<?xml version="1.0" encoding="UTF-8" standalone="no"?>
<!DOCTYPE svg PUBLIC "-//W3C//DTD SVG 1.1//EN"
 "http://www.w3.org/Graphics/SVG/1.1/DTD/svg11.dtd">
<!-- Generated by graphviz version 2.43.0 (0)
 -->
<!-- Title: net/dgram/PeerSocket.h Pages: 1 -->
<svg width="298pt" height="137pt"
 viewBox="0.00 0.00 297.50 137.00" xmlns="http://www.w3.org/2000/svg" xmlns:xlink="http://www.w3.org/1999/xlink">
<g id="graph0" class="graph" transform="scale(1 1) rotate(0) translate(4 133)">
<title>net/dgram/PeerSocket.h</title>
<!-- Node1 -->
<g id="Node000001" class="node">
<title>Node1</title>
<g id="a_Node000001"><a xlink:title=" ">
<polygon fill="#999999" stroke="#666666" points="216,-129 83,-129 83,-110 216,-110 216,-129"/>
<text text-anchor="middle" x="149.5" y="-117" font-family="Helvetica,sans-Serif" font-size="10.00">net/dgram/PeerSocket.h</text>
</a>
</g>
</g>
<!-- Node2 -->
<g id="Node000002" class="node">
<title>Node2</title>
<g id="a_Node000002"><a xlink:href="_peer_socket_8hpp.html" target="_top" xlink:title=" ">
<polygon fill="white" stroke="#666666" points="145,-74 0,-74 0,-55 145,-55 145,-74"/>
<text text-anchor="middle" x="72.5" y="-62" font-family="Helvetica,sans-Serif" font-size="10.00">net/dgram/PeerSocket.hpp</text>
</a>
</g>
</g>
<!-- Node1&#45;&gt;Node2 -->
<g id="edge1_Node000001_Node000002" class="edge">
<title>Node1&#45;&gt;Node2</title>
<g id="a_edge1_Node000001_Node000002"><a xlink:title=" ">
<path fill="none" stroke="#63b8ff" d="M128.65,-104.15C114.74,-94.57 96.89,-82.29 85.1,-74.17"/>
<polygon fill="#63b8ff" stroke="#63b8ff" points="126.91,-107.2 137.13,-109.98 130.88,-101.43 126.91,-107.2"/>
</a>
</g>
</g>
<!-- Node4 -->
<g id="Node000004" class="node">
<title>Node4</title>
<g id="a_Node000004"><a xlink:href="net_2un_2dgram_2_socket_8h.html" target="_top" xlink:title=" ">
<polygon fill="white" stroke="#666666" points="289.5,-74 163.5,-74 163.5,-55 289.5,-55 289.5,-74"/>
<text text-anchor="middle" x="226.5" y="-62" font-family="Helvetica,sans-Serif" font-size="10.00">net/un/dgram/Socket.h</text>
</a>
</g>
</g>
<!-- Node1&#45;&gt;Node4 -->
<g id="edge3_Node000001_Node000004" class="edge">
<title>Node1&#45;&gt;Node4</title>
<g id="a_edge3_Node000001_Node000004"><a xlink:title=" ">
<path fill="none" stroke="#63b8ff" d="M170.35,-104.15C184.26,-94.57 202.11,-82.29 213.9,-74.17"/>
<polygon fill="#63b8ff" stroke="#63b8ff" points="168.12,-101.43 161.87,-109.98 172.09,-107.2 168.12,-101.43"/>
</a>
</g>
</g>
<!-- Node3 -->
<g id="Node000003" class="node">
<title>Node3</title>
<g id="a_Node000003"><a xlink:href="net_2un_2dgram_2_socket_8cpp.html" target="_top" xlink:title=" ">
<polygon fill="white" stroke="#666666" points="218,-19 81,-19 81,0 218,0 218,-19"/>
<text text-anchor="middle" x="149.5" y="-7" font-family="Helvetica,sans-Serif" font-size="10.00">net/un/dgram/Socket.cpp</text>
</a>
</g>
</g>
<!-- Node2&#45;&gt;Node3 -->
<g id="edge2_Node000002_Node000003" class="edge">
<title>Node2&#45;&gt;Node3</title>
<g id="a_edge2_Node000002_Node000003"><a xlink:title=" ">
<path fill="none" stroke="#63b8ff" d="M93.35,-49.15C107.26,-39.57 125.11,-27.29 136.9,-19.17"/>
<polygon fill="#63b8ff" stroke="#63b8ff" points="91.12,-46.43 84.87,-54.98 95.09,-52.2 91.12,-46.43"/>
</a>
</g>
</g>
<!-- Node4&#45;&gt;Node3 -->
<g id="edge4_Node000004_Node000003" class="edge">
<title>Node4&#45;&gt;Node3</title>
<g id="a_edge4_Node000004_Node000003"><a xlink:title=" ">
<path fill="none" stroke="#63b8ff" d="M205.65,-49.15C191.74,-39.57 173.89,-27.29 162.1,-19.17"/>
<polygon fill="#63b8ff" stroke="#63b8ff" points="203.91,-52.2 214.13,-54.98 207.88,-46.43 203.91,-52.2"/>
</a>
</g>
</g>
</g>
</svg>
