<?xml version="1.0" encoding="UTF-8" standalone="no"?>
<!DOCTYPE svg PUBLIC "-//W3C//DTD SVG 1.1//EN"
 "http://www.w3.org/Graphics/SVG/1.1/DTD/svg11.dtd">
<!-- Generated by graphviz version 2.43.0 (0)
 -->
<!-- Title: web::http::server::Response::eof Pages: 1 -->
<svg width="928pt" height="149pt"
 viewBox="0.00 0.00 928.00 148.50" xmlns="http://www.w3.org/2000/svg" xmlns:xlink="http://www.w3.org/1999/xlink">
<g id="graph0" class="graph" transform="scale(1 1) rotate(0) translate(4 144.5)">
<title>web::http::server::Response::eof</title>
<!-- Node1 -->
<g id="Node000001" class="node">
<title>Node1</title>
<g id="a_Node000001"><a xlink:title=" ">
<polygon fill="#999999" stroke="#666666" points="105,-113.5 0,-113.5 0,-83.5 105,-83.5 105,-113.5"/>
<text text-anchor="start" x="8" y="-101.5" font-family="Helvetica,sans-Serif" font-size="10.00">web::http::server::</text>
<text text-anchor="middle" x="52.5" y="-90.5" font-family="Helvetica,sans-Serif" font-size="10.00">Response::eof</text>
</a>
</g>
</g>
<!-- Node2 -->
<g id="Node000002" class="node">
<title>Node2</title>
<g id="a_Node000002"><a xlink:href="classweb_1_1http_1_1server_1_1Response.html#a3967e93bab3872d6c4f1c270ebd421ea" target="_top" xlink:title=" ">
<polygon fill="white" stroke="#666666" points="320,-113.5 141,-113.5 141,-83.5 320,-83.5 320,-113.5"/>
<text text-anchor="start" x="149" y="-101.5" font-family="Helvetica,sans-Serif" font-size="10.00">web::http::server::</text>
<text text-anchor="middle" x="230.5" y="-90.5" font-family="Helvetica,sans-Serif" font-size="10.00">Response::sendToPeerCompleted</text>
</a>
</g>
</g>
<!-- Node1&#45;&gt;Node2 -->
<g id="edge1_Node000001_Node000002" class="edge">
<title>Node1&#45;&gt;Node2</title>
<g id="a_edge1_Node000001_Node000002"><a xlink:title=" ">
<path fill="none" stroke="#63b8ff" d="M105.35,-98.5C113.37,-98.5 121.87,-98.5 130.52,-98.5"/>
<polygon fill="#63b8ff" stroke="#63b8ff" points="130.71,-102 140.71,-98.5 130.71,-95 130.71,-102"/>
</a>
</g>
</g>
<!-- Node3 -->
<g id="Node000003" class="node">
<title>Node3</title>
<g id="a_Node000003"><a xlink:href="classweb_1_1http_1_1server_1_1RequestContextBase.html#a4f00d26b05063a3f91a13a4e3f83023d" target="_top" xlink:title=" ">
<polygon fill="white" stroke="#666666" points="506,-140.5 356,-140.5 356,-110.5 506,-110.5 506,-140.5"/>
<text text-anchor="start" x="364" y="-128.5" font-family="Helvetica,sans-Serif" font-size="10.00">web::http::server::</text>
<text text-anchor="middle" x="431" y="-117.5" font-family="Helvetica,sans-Serif" font-size="10.00">RequestContextBase::close</text>
</a>
</g>
</g>
<!-- Node2&#45;&gt;Node3 -->
<g id="edge2_Node000002_Node000003" class="edge">
<title>Node2&#45;&gt;Node3</title>
<g id="a_edge2_Node000002_Node000003"><a xlink:title=" ">
<path fill="none" stroke="#63b8ff" d="M320.01,-110.54C328.63,-111.71 337.36,-112.9 345.93,-114.07"/>
<polygon fill="#63b8ff" stroke="#63b8ff" points="345.53,-117.54 355.91,-115.42 346.47,-110.61 345.53,-117.54"/>
</a>
</g>
</g>
<!-- Node6 -->
<g id="Node000006" class="node">
<title>Node6</title>
<g id="a_Node000006"><a xlink:href="classweb_1_1http_1_1server_1_1RequestContextBase.html#a0d34bccc21c1e0139345d8a59520c8cb" target="_top" xlink:title=" ">
<polygon fill="white" stroke="#666666" points="493.5,-92 368.5,-92 368.5,-51 493.5,-51 493.5,-92"/>
<text text-anchor="start" x="376.5" y="-80" font-family="Helvetica,sans-Serif" font-size="10.00">web::http::server::</text>
<text text-anchor="start" x="376.5" y="-69" font-family="Helvetica,sans-Serif" font-size="10.00">RequestContextBase::</text>
<text text-anchor="middle" x="431" y="-58" font-family="Helvetica,sans-Serif" font-size="10.00">sendToPeerCompleted</text>
</a>
</g>
</g>
<!-- Node2&#45;&gt;Node6 -->
<g id="edge5_Node000002_Node000006" class="edge">
<title>Node2&#45;&gt;Node6</title>
<g id="a_edge5_Node000002_Node000006"><a xlink:title=" ">
<path fill="none" stroke="#63b8ff" d="M320.01,-86.46C332.77,-84.72 345.77,-82.96 358.16,-81.27"/>
<polygon fill="#63b8ff" stroke="#63b8ff" points="358.96,-84.7 368.39,-79.88 358.01,-77.76 358.96,-84.7"/>
</a>
</g>
</g>
<!-- Node4 -->
<g id="Node000004" class="node">
<title>Node4</title>
<g id="a_Node000004"><a xlink:href="classcore_1_1socket_1_1stream_1_1SocketContext.html#a47b23b8583dfd3880232e748f284f380" target="_top" xlink:title=" ">
<polygon fill="white" stroke="#666666" points="686,-140.5 561,-140.5 561,-110.5 686,-110.5 686,-140.5"/>
<text text-anchor="start" x="569" y="-128.5" font-family="Helvetica,sans-Serif" font-size="10.00">core::socket::stream</text>
<text text-anchor="middle" x="623.5" y="-117.5" font-family="Helvetica,sans-Serif" font-size="10.00">::SocketContext::close</text>
</a>
</g>
</g>
<!-- Node3&#45;&gt;Node4 -->
<g id="edge3_Node000003_Node000004" class="edge">
<title>Node3&#45;&gt;Node4</title>
<g id="a_edge3_Node000003_Node000004"><a xlink:title=" ">
<path fill="none" stroke="#63b8ff" d="M506.2,-125.5C520.74,-125.5 535.97,-125.5 550.45,-125.5"/>
<polygon fill="#63b8ff" stroke="#63b8ff" points="550.83,-129 560.83,-125.5 550.83,-122 550.83,-129"/>
</a>
</g>
</g>
<!-- Node5 -->
<g id="Node000005" class="node">
<title>Node5</title>
<g id="a_Node000005"><a xlink:href="classcore_1_1socket_1_1stream_1_1SocketConnection.html#aed398e81ede92d1d1cfae2597580ad2c" target="_top" xlink:title=" ">
<polygon fill="white" stroke="#666666" points="901,-140.5 760,-140.5 760,-110.5 901,-110.5 901,-140.5"/>
<text text-anchor="start" x="768" y="-128.5" font-family="Helvetica,sans-Serif" font-size="10.00">core::socket::stream</text>
<text text-anchor="middle" x="830.5" y="-117.5" font-family="Helvetica,sans-Serif" font-size="10.00">::SocketConnection::close</text>
</a>
</g>
</g>
<!-- Node4&#45;&gt;Node5 -->
<g id="edge4_Node000004_Node000005" class="edge">
<title>Node4&#45;&gt;Node5</title>
<g id="a_edge4_Node000004_Node000005"><a xlink:title=" ">
<path fill="none" stroke="#63b8ff" d="M686.01,-125.5C705.97,-125.5 728.42,-125.5 749.53,-125.5"/>
<polygon fill="#63b8ff" stroke="#63b8ff" points="749.77,-129 759.77,-125.5 749.77,-122 749.77,-129"/>
</a>
</g>
</g>
<!-- Node7 -->
<g id="Node000007" class="node">
<title>Node7</title>
<g id="a_Node000007"><a xlink:href="classweb_1_1http_1_1SocketContext.html#a3d37b0a17a47ce6c9ebf96900bfe2a74" target="_top" xlink:title=" ">
<polygon fill="white" stroke="#666666" points="693,-89.5 554,-89.5 554,-59.5 693,-59.5 693,-89.5"/>
<text text-anchor="start" x="562" y="-77.5" font-family="Helvetica,sans-Serif" font-size="10.00">web::http::SocketContext</text>
<text text-anchor="middle" x="623.5" y="-66.5" font-family="Helvetica,sans-Serif" font-size="10.00">::sendToPeerCompleted</text>
</a>
</g>
</g>
<!-- Node6&#45;&gt;Node7 -->
<g id="edge6_Node000006_Node000007" class="edge">
<title>Node6&#45;&gt;Node7</title>
<g id="a_edge6_Node000006_Node000007"><a xlink:title=" ">
<path fill="none" stroke="#63b8ff" d="M493.59,-72.47C509.52,-72.72 526.9,-72.99 543.58,-73.26"/>
<polygon fill="#63b8ff" stroke="#63b8ff" points="543.81,-76.76 553.87,-73.42 543.92,-69.76 543.81,-76.76"/>
</a>
</g>
</g>
<!-- Node8 -->
<g id="Node000008" class="node">
<title>Node8</title>
<g id="a_Node000008"><a xlink:href="classcore_1_1socket_1_1stream_1_1SocketContext.html#a153fd05f8c588f882b322dcbd47667b4" target="_top" xlink:title=" ">
<polygon fill="white" stroke="#666666" points="705,-41 542,-41 542,0 705,0 705,-41"/>
<text text-anchor="start" x="550" y="-29" font-family="Helvetica,sans-Serif" font-size="10.00">core::socket::stream</text>
<text text-anchor="start" x="550" y="-18" font-family="Helvetica,sans-Serif" font-size="10.00">::SocketContext::switchSocket</text>
<text text-anchor="middle" x="623.5" y="-7" font-family="Helvetica,sans-Serif" font-size="10.00">Context</text>
</a>
</g>
</g>
<!-- Node6&#45;&gt;Node8 -->
<g id="edge7_Node000006_Node000008" class="edge">
<title>Node6&#45;&gt;Node8</title>
<g id="a_edge7_Node000006_Node000008"><a xlink:title=" ">
<path fill="none" stroke="#63b8ff" d="M493.59,-55.01C507.1,-51.39 521.65,-47.5 535.94,-43.67"/>
<polygon fill="#63b8ff" stroke="#63b8ff" points="537.02,-47.01 545.77,-41.04 535.21,-40.25 537.02,-47.01"/>
</a>
</g>
</g>
<!-- Node9 -->
<g id="Node000009" class="node">
<title>Node9</title>
<g id="a_Node000009"><a xlink:href="classcore_1_1socket_1_1stream_1_1SocketConnection.html#a1f0ce3db26b4f317837b294418b3ee33" target="_top" xlink:title=" ">
<polygon fill="white" stroke="#666666" points="920,-41 741,-41 741,0 920,0 920,-41"/>
<text text-anchor="start" x="749" y="-29" font-family="Helvetica,sans-Serif" font-size="10.00">core::socket::stream</text>
<text text-anchor="start" x="749" y="-18" font-family="Helvetica,sans-Serif" font-size="10.00">::SocketConnection::switchSocket</text>
<text text-anchor="middle" x="830.5" y="-7" font-family="Helvetica,sans-Serif" font-size="10.00">Context</text>
</a>
</g>
</g>
<!-- Node8&#45;&gt;Node9 -->
<g id="edge8_Node000008_Node000009" class="edge">
<title>Node8&#45;&gt;Node9</title>
<g id="a_edge8_Node000008_Node000009"><a xlink:title=" ">
<path fill="none" stroke="#63b8ff" d="M705.23,-20.5C713.51,-20.5 721.99,-20.5 730.45,-20.5"/>
<polygon fill="#63b8ff" stroke="#63b8ff" points="730.73,-24 740.73,-20.5 730.73,-17 730.73,-24"/>
</a>
</g>
</g>
</g>
</svg>
