<?xml version="1.0" encoding="UTF-8" standalone="no"?>
<!DOCTYPE svg PUBLIC "-//W3C//DTD SVG 1.1//EN"
 "http://www.w3.org/Graphics/SVG/1.1/DTD/svg11.dtd">
<!-- Generated by graphviz version 2.43.0 (0)
 -->
<!-- Title: express::Response::download Pages: 1 -->
<svg width="550pt" height="182pt"
 viewBox="0.00 0.00 550.00 182.00" xmlns="http://www.w3.org/2000/svg" xmlns:xlink="http://www.w3.org/1999/xlink">
<g id="graph0" class="graph" transform="scale(1 1) rotate(0) translate(4 178)">
<title>express::Response::download</title>
<!-- Node1 -->
<g id="Node000001" class="node">
<title>Node1</title>
<g id="a_Node000001"><a xlink:title=" ">
<polygon fill="#999999" stroke="#666666" points="107,-126 0,-126 0,-96 107,-96 107,-126"/>
<text text-anchor="start" x="8" y="-114" font-family="Helvetica,sans-Serif" font-size="10.00">express::Response::</text>
<text text-anchor="middle" x="53.5" y="-103" font-family="Helvetica,sans-Serif" font-size="10.00">download</text>
</a>
</g>
</g>
<!-- Node2 -->
<g id="Node000002" class="node">
<title>Node2</title>
<g id="a_Node000002"><a xlink:href="classexpress_1_1Response.html#a138f3dd41c58ba2ae6d79b483978e919" target="_top" xlink:title=" ">
<polygon fill="white" stroke="#666666" points="250,-162 143,-162 143,-132 250,-132 250,-162"/>
<text text-anchor="start" x="151" y="-150" font-family="Helvetica,sans-Serif" font-size="10.00">express::Response::</text>
<text text-anchor="middle" x="196.5" y="-139" font-family="Helvetica,sans-Serif" font-size="10.00">attachment</text>
</a>
</g>
</g>
<!-- Node1&#45;&gt;Node2 -->
<g id="edge1_Node000001_Node000002" class="edge">
<title>Node1&#45;&gt;Node2</title>
<g id="a_edge1_Node000001_Node000002"><a xlink:title=" ">
<path fill="none" stroke="#63b8ff" d="M107,-124.41C115.54,-126.58 124.45,-128.86 133.19,-131.09"/>
<polygon fill="#63b8ff" stroke="#63b8ff" points="132.4,-134.5 142.95,-133.58 134.13,-127.72 132.4,-134.5"/>
</a>
</g>
</g>
<!-- Node5 -->
<g id="Node000005" class="node">
<title>Node5</title>
<g id="a_Node000005"><a xlink:href="classweb_1_1http_1_1server_1_1Response.html#a96199c6d2c9d08d65cdbf5fd0302c616" target="_top" xlink:title=" ">
<polygon fill="white" stroke="#666666" points="248.5,-102 144.5,-102 144.5,-72 248.5,-72 248.5,-102"/>
<text text-anchor="start" x="152.5" y="-90" font-family="Helvetica,sans-Serif" font-size="10.00">web::http::server::</text>
<text text-anchor="middle" x="196.5" y="-79" font-family="Helvetica,sans-Serif" font-size="10.00">Response::sendFile</text>
</a>
</g>
</g>
<!-- Node1&#45;&gt;Node5 -->
<g id="edge4_Node000001_Node000005" class="edge">
<title>Node1&#45;&gt;Node5</title>
<g id="a_edge4_Node000001_Node000005"><a xlink:title=" ">
<path fill="none" stroke="#63b8ff" d="M107,-102.06C115.88,-100.55 125.16,-98.97 134.23,-97.43"/>
<polygon fill="#63b8ff" stroke="#63b8ff" points="135.09,-100.83 144.36,-95.7 133.91,-93.93 135.09,-100.83"/>
</a>
</g>
</g>
<!-- Node3 -->
<g id="Node000003" class="node">
<title>Node3</title>
<g id="a_Node000003"><a xlink:href="classweb_1_1http_1_1server_1_1Response.html#a82301ce94e8418a2d0b9bc052207a178" target="_top" xlink:title=" ">
<polygon fill="white" stroke="#666666" points="390.5,-174 294.5,-174 294.5,-144 390.5,-144 390.5,-174"/>
<text text-anchor="start" x="302.5" y="-162" font-family="Helvetica,sans-Serif" font-size="10.00">web::http::server::</text>
<text text-anchor="middle" x="342.5" y="-151" font-family="Helvetica,sans-Serif" font-size="10.00">Response::set</text>
</a>
</g>
</g>
<!-- Node2&#45;&gt;Node3 -->
<g id="edge2_Node000002_Node000003" class="edge">
<title>Node2&#45;&gt;Node3</title>
<g id="a_edge2_Node000002_Node000003"><a xlink:title=" ">
<path fill="none" stroke="#63b8ff" d="M250.3,-151.4C261.36,-152.32 273.08,-153.3 284.29,-154.23"/>
<polygon fill="#63b8ff" stroke="#63b8ff" points="284.16,-157.73 294.42,-155.08 284.74,-150.76 284.16,-157.73"/>
</a>
</g>
</g>
<!-- Node4 -->
<g id="Node000004" class="node">
<title>Node4</title>
<g id="a_Node000004"><a xlink:href="namespacehttputils.html#af566d4f31d97a3a84b373a94e6cf9594" target="_top" xlink:title=" ">
<polygon fill="white" stroke="#666666" points="542,-168.5 435,-168.5 435,-149.5 542,-149.5 542,-168.5"/>
<text text-anchor="middle" x="488.5" y="-156.5" font-family="Helvetica,sans-Serif" font-size="10.00">httputils::ci_contains</text>
</a>
</g>
</g>
<!-- Node3&#45;&gt;Node4 -->
<g id="edge3_Node000003_Node000004" class="edge">
<title>Node3&#45;&gt;Node4</title>
<g id="a_edge3_Node000003_Node000004"><a xlink:title=" ">
<path fill="none" stroke="#63b8ff" d="M390.65,-159C401.45,-159 413.1,-159 424.46,-159"/>
<polygon fill="#63b8ff" stroke="#63b8ff" points="424.76,-162.5 434.76,-159 424.76,-155.5 424.76,-162.5"/>
</a>
</g>
</g>
<!-- Node6 -->
<g id="Node000006" class="node">
<title>Node6</title>
<g id="a_Node000006"><a xlink:href="classcore_1_1file_1_1FileReader.html#a1283a619871fb6ae3ecaa472afdab866" target="_top" xlink:title=" ">
<polygon fill="white" stroke="#666666" points="396,-126 289,-126 289,-96 396,-96 396,-126"/>
<text text-anchor="start" x="297" y="-114" font-family="Helvetica,sans-Serif" font-size="10.00">core::file::FileReader</text>
<text text-anchor="middle" x="342.5" y="-103" font-family="Helvetica,sans-Serif" font-size="10.00">::connect</text>
</a>
</g>
</g>
<!-- Node5&#45;&gt;Node6 -->
<g id="edge5_Node000005_Node000006" class="edge">
<title>Node5&#45;&gt;Node6</title>
<g id="a_edge5_Node000005_Node000006"><a xlink:title=" ">
<path fill="none" stroke="#63b8ff" d="M248.67,-95.53C258.38,-97.15 268.63,-98.85 278.64,-100.52"/>
<polygon fill="#63b8ff" stroke="#63b8ff" points="278.1,-103.98 288.54,-102.17 279.26,-97.08 278.1,-103.98"/>
</a>
</g>
</g>
<!-- Node8 -->
<g id="Node000008" class="node">
<title>Node8</title>
<g id="a_Node000008"><a xlink:href="classweb_1_1http_1_1MimeTypes.html#a08aa7365e19c29f97369a3bedfcc3721" target="_top" xlink:title=" ">
<polygon fill="white" stroke="#666666" points="399,-78 286,-78 286,-48 399,-48 399,-78"/>
<text text-anchor="start" x="294" y="-66" font-family="Helvetica,sans-Serif" font-size="10.00">web::http::MimeTypes</text>
<text text-anchor="middle" x="342.5" y="-55" font-family="Helvetica,sans-Serif" font-size="10.00">::contentType</text>
</a>
</g>
</g>
<!-- Node5&#45;&gt;Node8 -->
<g id="edge7_Node000005_Node000008" class="edge">
<title>Node5&#45;&gt;Node8</title>
<g id="a_edge7_Node000005_Node000008"><a xlink:title=" ">
<path fill="none" stroke="#63b8ff" d="M248.67,-78.47C257.37,-77.02 266.5,-75.5 275.51,-74"/>
<polygon fill="#63b8ff" stroke="#63b8ff" points="276.31,-77.41 285.6,-72.32 275.16,-70.51 276.31,-77.41"/>
</a>
</g>
</g>
<!-- Node9 -->
<g id="Node000009" class="node">
<title>Node9</title>
<g id="a_Node000009"><a xlink:href="namespacehttputils.html#a4a2597267a4c6fae315ab7b85273ea61" target="_top" xlink:title=" ">
<polygon fill="white" stroke="#666666" points="389.5,-30 295.5,-30 295.5,0 389.5,0 389.5,-30"/>
<text text-anchor="start" x="303.5" y="-18" font-family="Helvetica,sans-Serif" font-size="10.00">httputils::file_mod</text>
<text text-anchor="middle" x="342.5" y="-7" font-family="Helvetica,sans-Serif" font-size="10.00">_http_date</text>
</a>
</g>
</g>
<!-- Node5&#45;&gt;Node9 -->
<g id="edge8_Node000005_Node000009" class="edge">
<title>Node5&#45;&gt;Node9</title>
<g id="a_edge8_Node000005_Node000009"><a xlink:title=" ">
<path fill="none" stroke="#63b8ff" d="M223.9,-71.88C241.33,-62.1 264.78,-49.32 286,-39 289.31,-37.39 292.75,-35.77 296.23,-34.18"/>
<polygon fill="#63b8ff" stroke="#63b8ff" points="297.77,-37.32 305.46,-30.03 294.91,-30.94 297.77,-37.32"/>
</a>
</g>
</g>
<!-- Node7 -->
<g id="Node000007" class="node">
<title>Node7</title>
<g id="a_Node000007"><a xlink:href="namespacecore_1_1system.html#af932d59deb1d46aca925c487cebf0ab5" target="_top" xlink:title=" ">
<polygon fill="white" stroke="#666666" points="539,-120.5 438,-120.5 438,-101.5 539,-101.5 539,-120.5"/>
<text text-anchor="middle" x="488.5" y="-108.5" font-family="Helvetica,sans-Serif" font-size="10.00">core::system::open</text>
</a>
</g>
</g>
<!-- Node6&#45;&gt;Node7 -->
<g id="edge6_Node000006_Node000007" class="edge">
<title>Node6&#45;&gt;Node7</title>
<g id="a_edge6_Node000006_Node000007"><a xlink:title=" ">
<path fill="none" stroke="#63b8ff" d="M396.3,-111C406.42,-111 417.08,-111 427.4,-111"/>
<polygon fill="#63b8ff" stroke="#63b8ff" points="427.58,-114.5 437.58,-111 427.58,-107.5 427.58,-114.5"/>
</a>
</g>
</g>
</g>
</svg>
