<?xml version="1.0" encoding="UTF-8" standalone="no"?>
<!DOCTYPE svg PUBLIC "-//W3C//DTD SVG 1.1//EN"
 "http://www.w3.org/Graphics/SVG/1.1/DTD/svg11.dtd">
<!-- Generated by graphviz version 14.1.1 (0)
 -->
<!-- Title: web::http::decoder::Chunked Pages: 1 -->
<!--zoomable 311 -->

<svg id="main" version="1.1" xmlns="http://www.w3.org/2000/svg" xmlns:xlink="http://www.w3.org/1999/xlink" xml:space="preserve" onload="init(evt)">

<style type="text/css"><![CDATA[
.node, .edge {opacity: 0.7;}
.node.selected, .edge.selected {opacity: 1;}
.edge:hover path { stroke: red; }
.edge:hover polygon { stroke: red; fill: red; }
]]></style>

<defs>
  <circle id="rim" cx="0" cy="0" r="7"/>
  <circle id="rim2" cx="0" cy="0" r="3.5"/>
  <g id="zoomPlus">
    <use xlink:href="#rim" fill="#404040"><set attributeName="fill" to="#808080" begin="zoomplus.mouseover" end="zoomplus.mouseout"/></use>
    <path d="M-4,0h8M0,-4v8" fill="none" stroke="white" stroke-width="1.5" pointer-events="none"/>
  </g>
  <g id="zoomMin">
    <use xlink:href="#rim" fill="#404040"><set attributeName="fill" to="#808080" begin="zoomminus.mouseover" end="zoomminus.mouseout"/></use>
    <path d="M-4,0h8" fill="none" stroke="white" stroke-width="1.5" pointer-events="none"/>
  </g>
  <g id="arrowUp" transform="translate(30 24)">
    <use xlink:href="#rim"/>
    <path pointer-events="none" fill="none" stroke="white" stroke-width="1.5" d="M0,-3.0v7 M-2.5,-0.5L0,-3.0L2.5,-0.5"/>
  </g>
  <g id="arrowRight" transform="rotate(90) translate(36 -43)">
    <use xlink:href="#rim"/>
    <path pointer-events="none" fill="none" stroke="white" stroke-width="1.5" d="M0,-3.0v7 M-2.5,-0.5L0,-3.0L2.5,-0.5"/>
  </g>
  <g id="arrowDown" transform="rotate(180) translate(-30 -48)">
    <use xlink:href="#rim"/>
    <path pointer-events="none" fill="none" stroke="white" stroke-width="1.5" d="M0,-3.0v7 M-2.5,-0.5L0,-3.0L2.5,-0.5"/>
  </g>
  <g id="arrowLeft" transform="rotate(270) translate(-36 17)">
    <use xlink:href="#rim"/>
    <path pointer-events="none" fill="none" stroke="white" stroke-width="1.5" d="M0,-3.0v7 M-2.5,-0.5L0,-3.0L2.5,-0.5"/>
  </g>
  <g id="resetDef">
    <use xlink:href="#rim2" fill="#404040"><set attributeName="fill" to="#808080" begin="reset.mouseover" end="reset.mouseout"/></use>
  </g>
</defs>
<script type="application/ecmascript">
var viewWidth = 702;
var viewHeight = 311;
var sectionId = 'dynsection-1';
</script>
<script type="application/ecmascript" xlink:href="svg.min.js"/>
<svg id="graph" class="graph">
<g id="viewport">
<title>web::http::decoder::Chunked</title>
<!-- Node1 -->
<g id="Node000001" class="node">
<title>Node1</title>
<g id="a_Node000001"><a xlink:title=" ">
<polygon fill="#999999" stroke="none" points="178.62,-33.5 79.88,-33.5 79.88,0 178.62,0 178.62,-33.5"/>
<text xml:space="preserve" text-anchor="start" x="83.88" y="-20" font-family="Helvetica,sans-Serif" font-size="10.00">web::http::decoder</text>
<text xml:space="preserve" text-anchor="start" x="105.25" y="-7.25" font-family="Helvetica,sans-Serif" font-size="10.00">::Chunked</text>
<polygon fill="none" stroke="#666666" points="79.88,0 79.88,-33.5 178.62,-33.5 178.62,0 79.88,0"/>
</a>
</g>
</g>
<!-- Node2 -->
<g id="Node000002" class="node">
<title>Node2</title>
<g id="a_Node000002"><a xlink:href="classweb_1_1http_1_1ContentDecoder.html" target="_top" xlink:title=" ">
<polygon fill="white" stroke="none" points="138.5,-133.12 0,-133.12 0,-112.38 138.5,-112.38 138.5,-133.12"/>
<text xml:space="preserve" text-anchor="start" x="4" y="-119.62" font-family="Helvetica,sans-Serif" font-size="10.00">web::http::ContentDecoder</text>
<polygon fill="none" stroke="#666666" points="0,-112.38 0,-133.12 138.5,-133.12 138.5,-112.38 0,-112.38"/>
</a>
</g>
</g>
<!-- Node2&#45;&gt;Node1 -->
<g id="edge1_Node000001_Node000002" class="edge">
<title>Node2&#45;&gt;Node1</title>
<g id="a_edge1_Node000001_Node000002"><a xlink:title=" ">
<path fill="none" stroke="#63b8ff" d="M79.15,-102.44C86.59,-88.19 97.18,-68.42 107.25,-51.5 110.83,-45.49 114.97,-39.02 118.68,-33.38"/>
<polygon fill="none" stroke="#63b8ff" points="76.12,-100.69 74.63,-111.18 82.33,-103.91 76.12,-100.69"/>
</a>
</g>
</g>
<!-- Node3 -->
<g id="Node000003" class="node">
<title>Node3</title>
<g id="a_Node000003"><a xlink:title=" ">
<polygon fill="white" stroke="none" points="160.88,-232.75 57.62,-232.75 57.62,-212 160.88,-212 160.88,-232.75"/>
<text xml:space="preserve" text-anchor="start" x="61.62" y="-219.25" font-family="Helvetica,sans-Serif" font-size="10.00">std::vector&lt; char &gt;</text>
<polygon fill="none" stroke="#666666" points="57.62,-212 57.62,-232.75 160.88,-232.75 160.88,-212 57.62,-212"/>
</a>
</g>
</g>
<!-- Node3&#45;&gt;Node2 -->
<g id="edge2_Node000002_Node000003" class="edge">
<title>Node3&#45;&gt;Node2</title>
<g id="a_edge2_Node000002_Node000003"><a xlink:title=" ">
<path fill="none" stroke="#63b8ff" d="M105.41,-212.01C99.13,-196.67 86.47,-165.78 77.93,-144.93"/>
<polygon fill="none" stroke="#63b8ff" points="77.91,-144.88 71.93,-140.84 73.36,-133.77 79.33,-137.81 77.91,-144.88"/>
</a>
</g>
<text xml:space="preserve" text-anchor="start" x="100.43" y="-173.12" font-family="Helvetica,sans-Serif" font-size="10.00" fill="grey">#content</text>
</g>
<!-- Node10 -->
<g id="Node000010" class="node">
<title>Node10</title>
<g id="a_Node000010"><a xlink:href="classweb_1_1http_1_1decoder_1_1Chunked_1_1Chunk.html" target="_top" xlink:title=" ">
<polygon fill="white" stroke="none" points="255.62,-139.5 156.88,-139.5 156.88,-106 255.62,-106 255.62,-139.5"/>
<text xml:space="preserve" text-anchor="start" x="160.88" y="-126" font-family="Helvetica,sans-Serif" font-size="10.00">web::http::decoder</text>
<text xml:space="preserve" text-anchor="start" x="163.88" y="-113.25" font-family="Helvetica,sans-Serif" font-size="10.00">::Chunked::Chunk</text>
<polygon fill="none" stroke="#666666" points="156.88,-106 156.88,-139.5 255.62,-139.5 255.62,-106 156.88,-106"/>
</a>
</g>
</g>
<!-- Node3&#45;&gt;Node10 -->
<g id="edge13_Node000010_Node000003" class="edge">
<title>Node3&#45;&gt;Node10</title>
<g id="a_edge13_Node000010_Node000003"><a xlink:title=" ">
<path fill="none" stroke="#63b8ff" d="M126.55,-212.23C134.81,-207.42 144.55,-201.05 152.25,-194 166.49,-180.97 179.74,-163.84 189.55,-149.76"/>
<polygon fill="none" stroke="#63b8ff" points="189.42,-149.95 189.46,-142.74 196.13,-140 196.09,-147.21 189.42,-149.95"/>
</a>
</g>
<text xml:space="preserve" text-anchor="start" x="185.45" y="-173.12" font-family="Helvetica,sans-Serif" font-size="10.00" fill="grey">&#45;chunk</text>
</g>
<!-- Node4 -->
<g id="Node000004" class="node">
<title>Node4</title>
<g id="a_Node000004"><a xlink:href="classcore_1_1socket_1_1stream_1_1SocketContext.html" target="_top" xlink:title=" ">
<polygon fill="white" stroke="none" points="380.75,-139.5 273.75,-139.5 273.75,-106 380.75,-106 380.75,-139.5"/>
<text xml:space="preserve" text-anchor="start" x="277.75" y="-126" font-family="Helvetica,sans-Serif" font-size="10.00">core::socket::stream</text>
<text xml:space="preserve" text-anchor="start" x="289" y="-113.25" font-family="Helvetica,sans-Serif" font-size="10.00">::SocketContext</text>
<polygon fill="none" stroke="#666666" points="273.75,-106 273.75,-139.5 380.75,-139.5 380.75,-106 273.75,-106"/>
</a>
</g>
</g>
<!-- Node4&#45;&gt;Node1 -->
<g id="edge3_Node000001_Node000004" class="edge">
<title>Node4&#45;&gt;Node1</title>
<g id="a_edge3_Node000001_Node000004"><a xlink:title=" ">
<path fill="none" stroke="#63b8ff" d="M273.98,-107.35C240.55,-98.26 203.43,-88.03 201.75,-87 183.51,-75.82 184.68,-66.32 169.25,-51.5 165.84,-48.22 162.16,-44.88 158.46,-41.64"/>
<polygon fill="none" stroke="#63b8ff" points="158.62,-41.78 151.46,-40.92 149.5,-33.99 156.66,-34.84 158.62,-41.78"/>
</a>
</g>
<text xml:space="preserve" text-anchor="start" x="204.75" y="-66.12" font-family="Helvetica,sans-Serif" font-size="10.00" fill="grey">&#45;socketContext</text>
</g>
<!-- Node6 -->
<g id="Node000006" class="node">
<title>Node6</title>
<g id="a_Node000006"><a xlink:href="classcore_1_1socket_1_1stream_1_1SocketConnection.html" target="_top" xlink:title=" ">
<polygon fill="white" stroke="none" points="534.75,-33.5 427.75,-33.5 427.75,0 534.75,0 534.75,-33.5"/>
<text xml:space="preserve" text-anchor="start" x="431.75" y="-20" font-family="Helvetica,sans-Serif" font-size="10.00">core::socket::stream</text>
<text xml:space="preserve" text-anchor="start" x="434.75" y="-7.25" font-family="Helvetica,sans-Serif" font-size="10.00">::SocketConnection</text>
<polygon fill="none" stroke="#666666" points="427.75,0 427.75,-33.5 534.75,-33.5 534.75,0 427.75,0"/>
</a>
</g>
</g>
<!-- Node4&#45;&gt;Node6 -->
<g id="edge6_Node000006_Node000004" class="edge">
<title>Node4&#45;&gt;Node6</title>
<g id="a_edge6_Node000006_Node000004"><a xlink:title=" ">
<path fill="none" stroke="#63b8ff" d="M305.7,-106.3C299.9,-100.91 294.37,-94.36 291.25,-87 285.08,-72.48 281.12,-63.59 291.25,-51.5 306.97,-32.74 366.63,-24.4 414.96,-20.7"/>
<polygon fill="none" stroke="#63b8ff" points="415.06,-20.69 420.76,-16.28 427.03,-19.85 421.32,-24.26 415.06,-20.69"/>
</a>
</g>
<text xml:space="preserve" text-anchor="start" x="294.25" y="-74.5" font-family="Helvetica,sans-Serif" font-size="10.00" fill="grey">#newSocketContext</text>
<text xml:space="preserve" text-anchor="start" x="294.25" y="-57.75" font-family="Helvetica,sans-Serif" font-size="10.00" fill="grey">#socketContext</text>
</g>
<!-- Node5 -->
<g id="Node000005" class="node">
<title>Node5</title>
<g id="a_Node000005"><a xlink:href="classcore_1_1socket_1_1SocketContext.html" target="_top" xlink:title=" ">
<polygon fill="white" stroke="none" points="326.75,-232.75 183.75,-232.75 183.75,-212 326.75,-212 326.75,-232.75"/>
<text xml:space="preserve" text-anchor="start" x="187.75" y="-219.25" font-family="Helvetica,sans-Serif" font-size="10.00">core::socket::SocketContext</text>
<polygon fill="none" stroke="#666666" points="183.75,-212 183.75,-232.75 326.75,-232.75 326.75,-212 183.75,-212"/>
</a>
</g>
</g>
<!-- Node5&#45;&gt;Node4 -->
<g id="edge4_Node000004_Node000005" class="edge">
<title>Node5&#45;&gt;Node4</title>
<g id="a_edge4_Node000004_Node000005"><a xlink:title=" ">
<path fill="none" stroke="#63b8ff" d="M255.72,-201.13C256.94,-187.91 260.32,-170.87 269.25,-158.5 274.81,-150.79 282.66,-144.48 290.79,-139.46"/>
<polygon fill="none" stroke="#63b8ff" points="252.24,-200.67 255.19,-210.85 259.23,-201.05 252.24,-200.67"/>
</a>
</g>
</g>
<!-- Node6&#45;&gt;Node4 -->
<g id="edge5_Node000004_Node000006" class="edge">
<title>Node6&#45;&gt;Node4</title>
<g id="a_edge5_Node000004_Node000006"><a xlink:title=" ">
<path fill="none" stroke="#63b8ff" d="M444.07,-33.45C435.24,-38.34 426.33,-44.37 419.25,-51.5 406.64,-64.2 413.2,-74.65 400.25,-87 395.17,-91.84 389.29,-96.12 383.12,-99.87"/>
<polygon fill="none" stroke="#63b8ff" points="383.12,-99.87 379.77,-106.25 372.59,-105.62 375.94,-99.23 383.12,-99.87"/>
</a>
</g>
<text xml:space="preserve" text-anchor="start" x="422.25" y="-66.12" font-family="Helvetica,sans-Serif" font-size="10.00" fill="grey">&#45;socketConnection</text>
</g>
<!-- Node7 -->
<g id="Node000007" class="node">
<title>Node7</title>
<g id="a_Node000007"><a xlink:title=" ">
<polygon fill="white" stroke="none" points="469.62,-232.75 412.88,-232.75 412.88,-212 469.62,-212 469.62,-232.75"/>
<text xml:space="preserve" text-anchor="start" x="416.88" y="-219.25" font-family="Helvetica,sans-Serif" font-size="10.00">std::string</text>
<polygon fill="none" stroke="#666666" points="412.88,-212 412.88,-232.75 469.62,-232.75 469.62,-212 412.88,-212"/>
</a>
</g>
</g>
<!-- Node7&#45;&gt;Node4 -->
<g id="edge11_Node000004_Node000007" class="edge">
<title>Node7&#45;&gt;Node4</title>
<g id="a_edge11_Node000004_Node000007"><a xlink:title=" ">
<path fill="none" stroke="#63b8ff" d="M419.86,-212.11C411.15,-207.58 401.46,-201.48 394.25,-194 381.83,-181.12 387.02,-171.98 375.25,-158.5 371.75,-154.49 367.7,-150.68 363.47,-147.16"/>
<polygon fill="none" stroke="#63b8ff" points="363.69,-147.32 356.49,-146.85 354.16,-140.03 361.36,-140.5 363.69,-147.32"/>
</a>
</g>
<text xml:space="preserve" text-anchor="start" x="397.25" y="-173.12" font-family="Helvetica,sans-Serif" font-size="10.00" fill="grey">&#45;onlineSince</text>
</g>
<!-- Node7&#45;&gt;Node6 -->
<g id="edge7_Node000006_Node000007" class="edge">
<title>Node7&#45;&gt;Node6</title>
<g id="a_edge7_Node000006_Node000007"><a xlink:title=" ">
<path fill="none" stroke="#63b8ff" d="M469.57,-219.87C505.84,-217.28 565.65,-210.56 579.25,-194 599.32,-169.56 610.37,-107.72 567.25,-51.5 561.68,-44.23 554.31,-38.53 546.23,-34.05"/>
<polygon fill="none" stroke="#63b8ff" points="546.12,-34 538.99,-35.06 535.26,-28.89 542.39,-27.82 546.12,-34"/>
</a>
</g>
<text xml:space="preserve" text-anchor="start" x="599.94" y="-128" font-family="Helvetica,sans-Serif" font-size="10.00" fill="grey">#connectionName</text>
<text xml:space="preserve" text-anchor="start" x="599.94" y="-111.25" font-family="Helvetica,sans-Serif" font-size="10.00" fill="grey">#instanceName</text>
</g>
<!-- Node9 -->
<g id="Node000009" class="node">
<title>Node9</title>
<g id="a_Node000009"><a xlink:href="classnet_1_1config_1_1ConfigInstance.html" target="_top" xlink:title=" ">
<polygon fill="white" stroke="none" points="558.5,-133.12 420,-133.12 420,-112.38 558.5,-112.38 558.5,-133.12"/>
<text xml:space="preserve" text-anchor="start" x="424" y="-119.62" font-family="Helvetica,sans-Serif" font-size="10.00">net::config::ConfigInstance</text>
<polygon fill="none" stroke="#666666" points="420,-112.38 420,-133.12 558.5,-133.12 558.5,-112.38 420,-112.38"/>
</a>
</g>
</g>
<!-- Node7&#45;&gt;Node9 -->
<g id="edge10_Node000009_Node000007" class="edge">
<title>Node7&#45;&gt;Node9</title>
<g id="a_edge10_Node000009_Node000007"><a xlink:title=" ">
<path fill="none" stroke="#63b8ff" d="M450.24,-212.37C454.91,-207.31 460.42,-200.68 464.25,-194 473.04,-178.67 479.56,-159.71 483.74,-145.36"/>
<polygon fill="none" stroke="#63b8ff" points="483.75,-145.29 481.46,-138.46 486.89,-133.71 489.18,-140.55 483.75,-145.29"/>
</a>
</g>
<text xml:space="preserve" text-anchor="start" x="482.56" y="-181.5" font-family="Helvetica,sans-Serif" font-size="10.00" fill="grey">&#45;instanceName</text>
<text xml:space="preserve" text-anchor="start" x="482.56" y="-164.75" font-family="Helvetica,sans-Serif" font-size="10.00" fill="grey">&#45;nameAnonymous</text>
</g>
<!-- Node7&#45;&gt;Node10 -->
<g id="edge14_Node000010_Node000007" class="edge">
<title>Node7&#45;&gt;Node10</title>
<g id="a_edge14_Node000010_Node000007"><a xlink:title=" ">
<path fill="none" stroke="#63b8ff" d="M412.89,-220.95C380.6,-219.47 326.99,-213.87 285.75,-194 263.43,-183.24 242.61,-164.39 227.88,-148.92"/>
<polygon fill="none" stroke="#63b8ff" points="227.84,-148.88 220.84,-147.16 219.74,-140.03 226.74,-141.75 227.84,-148.88"/>
</a>
</g>
<text xml:space="preserve" text-anchor="start" x="288.75" y="-173.12" font-family="Helvetica,sans-Serif" font-size="10.00" fill="grey">&#45;chunkLenTotalS</text>
</g>
<!-- Node8 -->
<g id="Node000008" class="node">
<title>Node8</title>
<g id="a_Node000008"><a xlink:title=" ">
<polygon fill="white" stroke="none" points="489.12,-303.25 393.38,-303.25 393.38,-269.75 489.12,-269.75 489.12,-303.25"/>
<text xml:space="preserve" text-anchor="start" x="397.38" y="-289.75" font-family="Helvetica,sans-Serif" font-size="10.00">std::basic_string&lt;</text>
<text xml:space="preserve" text-anchor="start" x="422.88" y="-277" font-family="Helvetica,sans-Serif" font-size="10.00"> Char &gt;</text>
<polygon fill="none" stroke="#666666" points="393.38,-269.75 393.38,-303.25 489.12,-303.25 489.12,-269.75 393.38,-269.75"/>
</a>
</g>
</g>
<!-- Node8&#45;&gt;Node7 -->
<g id="edge8_Node000007_Node000008" class="edge">
<title>Node8&#45;&gt;Node7</title>
<g id="a_edge8_Node000007_Node000008"><a xlink:title=" ">
<path fill="none" stroke="#63b8ff" d="M441.25,-258.54C441.25,-249.21 441.25,-239.38 441.25,-232.49"/>
<polygon fill="none" stroke="#63b8ff" points="437.75,-258.31 441.25,-268.31 444.75,-258.31 437.75,-258.31"/>
</a>
</g>
</g>
<!-- Node9&#45;&gt;Node6 -->
<g id="edge9_Node000006_Node000009" class="edge">
<title>Node9&#45;&gt;Node6</title>
<g id="a_edge9_Node000006_Node000009"><a xlink:title=" ">
<path fill="none" stroke="#63b8ff" d="M500.66,-112.42C507.48,-106.06 515.53,-97.01 519.25,-87 524.75,-72.21 525.72,-65.89 519.25,-51.5 517.89,-48.47 516.11,-45.6 514.06,-42.92"/>
<polygon fill="none" stroke="#63b8ff" points="514.01,-42.86 506.98,-41.24 505.77,-34.13 512.8,-35.75 514.01,-42.86"/>
</a>
</g>
<text xml:space="preserve" text-anchor="start" x="526.74" y="-66.12" font-family="Helvetica,sans-Serif" font-size="10.00" fill="grey">&#45;config</text>
</g>
<!-- Node10&#45;&gt;Node1 -->
<g id="edge12_Node000001_Node000010" class="edge">
<title>Node10&#45;&gt;Node1</title>
<g id="a_edge12_Node000001_Node000010"><a xlink:title=" ">
<path fill="none" stroke="#63b8ff" d="M157.26,-109.03C146.64,-103.93 136.67,-96.84 130.25,-87 122.54,-75.19 121.69,-59.67 123.02,-46.32"/>
<polygon fill="none" stroke="#63b8ff" points="123.04,-46.18 120.01,-39.64 124.88,-34.32 127.91,-40.86 123.04,-46.18"/>
</a>
</g>
<text xml:space="preserve" text-anchor="start" x="133.25" y="-66.12" font-family="Helvetica,sans-Serif" font-size="10.00" fill="grey">&#45;chunk</text>
</g>
</g>
</svg>

<g id="navigator" transform="translate(0 0)" fill="#404254">
  <rect fill="#f2f5e9" fill-opacity="0.5" stroke="#606060" stroke-width=".5" x="0" y="0" width="60" height="60"/>
  <use id="zoomplus" xlink:href="#zoomPlus" x="17" y="9" onmousedown="handleZoom(evt,'in')"/>
  <use id="zoomminus" xlink:href="#zoomMin" x="42" y="9" onmousedown="handleZoom(evt,'out')"/>
  <use id="reset" xlink:href="#resetDef" x="30" y="36" onmousedown="handleReset()"/>
   <use id="arrowup" xlink:href="#arrowUp" x="0" y="0" onmousedown="handlePan(0,-1)"/>
  <use id="arrowright" xlink:href="#arrowRight" x="0" y="0" onmousedown="handlePan(1,0)"/>
  <use id="arrowdown" xlink:href="#arrowDown" x="0" y="0" onmousedown="handlePan(0,1)"/>
  <use id="arrowleft" xlink:href="#arrowLeft" x="0" y="0" onmousedown="handlePan(-1,0)"/>
</g>
<svg viewBox="0 0 15 15" width="100%" height="30px" preserveAspectRatio="xMaxYMin meet">
 <g id="arrow_out" transform="scale(0.3 0.3)">
  <a xlink:href="classweb_1_1http_1_1decoder_1_1Chunked__coll__graph_org.svg" target="_base">
   <rect id="button" ry="5" rx="5" y="6" x="6" height="38" width="38"
        fill="#f2f5e9" fill-opacity="0.5" stroke="#606060" stroke-width="1.0"/>
   <path id="arrow"
     d="M 11.500037,31.436501 C 11.940474,20.09759 22.043105,11.32322 32.158766,21.979434 L 37.068811,17.246167 C 37.068811,17.246167 37.088388,32 37.088388,32 L 22.160133,31.978069 C 22.160133,31.978069 26.997745,27.140456 26.997745,27.140456 C 18.528582,18.264221 13.291696,25.230495 11.500037,31.436501 z"
     style="fill:#404040;"/>
  </a>
 </g>
</svg>

<style type='text/css'>
<![CDATA[
[data-mouse-over-selected='false'] { opacity: 0.7; }
[data-mouse-over-selected='true']  { opacity: 1.0; }
]]>
</style>
<script type="application/ecmascript"><![CDATA[
document.addEventListener('DOMContentLoaded', (event) => {
  highlightEdges();
  highlightAdjacentNodes();
});
]]></script>
</svg>
