<?xml version="1.0" encoding="UTF-8" standalone="no"?>
<!DOCTYPE svg PUBLIC "-//W3C//DTD SVG 1.1//EN"
 "http://www.w3.org/Graphics/SVG/1.1/DTD/svg11.dtd">
<!-- Generated by graphviz version 14.1.1 (0)
 -->
<!-- Title: iot::mqtt_fast::packets::Connect::Connect Pages: 1 -->
<svg width="677pt" height="184pt"
 viewBox="0.00 0.00 677.00 184.00" xmlns="http://www.w3.org/2000/svg" xmlns:xlink="http://www.w3.org/1999/xlink">
<g id="graph0" class="graph" transform="scale(1 1) rotate(0) translate(4 179.5)">
<title>iot::mqtt_fast::packets::Connect::Connect</title>
<!-- Node1 -->
<g id="Node000001" class="node">
<title>Node1</title>
<g id="a_Node000001"><a xlink:title=" ">
<polygon fill="#999999" stroke="#666666" points="125.5,-107.5 0,-107.5 0,-74 125.5,-74 125.5,-107.5"/>
<text xml:space="preserve" text-anchor="start" x="8" y="-94" font-family="Helvetica,sans-Serif" font-size="10.00">iot::mqtt_fast::packets</text>
<text xml:space="preserve" text-anchor="middle" x="62.75" y="-81.25" font-family="Helvetica,sans-Serif" font-size="10.00">::Connect::Connect</text>
</a>
</g>
</g>
<!-- Node2 -->
<g id="Node000002" class="node">
<title>Node2</title>
<g id="a_Node000002"><a xlink:href="classiot_1_1mqtt__fast_1_1ControlPacket.html#a88eb4b316f38e466d7a6c90ce24153ff" target="_top" xlink:title=" ">
<polygon fill="white" stroke="#666666" points="317,-175.5 161.5,-175.5 161.5,-142 317,-142 317,-175.5"/>
<text xml:space="preserve" text-anchor="start" x="169.5" y="-162" font-family="Helvetica,sans-Serif" font-size="10.00">iot::mqtt_fast::ControlPacket</text>
<text xml:space="preserve" text-anchor="middle" x="239.25" y="-149.25" font-family="Helvetica,sans-Serif" font-size="10.00">::ControlPacket</text>
</a>
</g>
</g>
<!-- Node1&#45;&gt;Node2 -->
<g id="edge1_Node000001_Node000002" class="edge">
<title>Node1&#45;&gt;Node2</title>
<g id="a_edge1_Node000001_Node000002"><a xlink:title=" ">
<path fill="none" stroke="#63b8ff" d="M107.78,-107.91C130.83,-116.89 159.25,-127.96 183.68,-137.48"/>
<polygon fill="#63b8ff" stroke="#63b8ff" points="182.23,-140.68 192.82,-141.05 184.77,-134.15 182.23,-140.68"/>
</a>
</g>
</g>
<!-- Node3 -->
<g id="Node000003" class="node">
<title>Node3</title>
<g id="a_Node000003"><a xlink:href="classiot_1_1mqtt__fast_1_1ControlPacket.html#a68489018481e5e672b28b242cb9c71f8" target="_top" xlink:title=" ">
<polygon fill="white" stroke="#666666" points="508.5,-137.5 353,-137.5 353,-104 508.5,-104 508.5,-137.5"/>
<text xml:space="preserve" text-anchor="start" x="361" y="-124" font-family="Helvetica,sans-Serif" font-size="10.00">iot::mqtt_fast::ControlPacket</text>
<text xml:space="preserve" text-anchor="middle" x="430.75" y="-111.25" font-family="Helvetica,sans-Serif" font-size="10.00">::putInt16</text>
</a>
</g>
</g>
<!-- Node1&#45;&gt;Node3 -->
<g id="edge2_Node000001_Node000003" class="edge">
<title>Node1&#45;&gt;Node3</title>
<g id="a_edge2_Node000001_Node000003"><a xlink:title=" ">
<path fill="none" stroke="#63b8ff" d="M125.84,-95.84C185.02,-100.69 274.76,-108.05 341.39,-113.51"/>
<polygon fill="#63b8ff" stroke="#63b8ff" points="340.95,-116.98 351.21,-114.31 341.53,-110.01 340.95,-116.98"/>
</a>
</g>
</g>
<!-- Node5 -->
<g id="Node000005" class="node">
<title>Node5</title>
<g id="a_Node000005"><a xlink:href="classiot_1_1mqtt__fast_1_1ControlPacket.html#a56f27153885907d80fed2d06cef26f78" target="_top" xlink:title=" ">
<polygon fill="white" stroke="#666666" points="317,-85.5 161.5,-85.5 161.5,-52 317,-52 317,-85.5"/>
<text xml:space="preserve" text-anchor="start" x="169.5" y="-72" font-family="Helvetica,sans-Serif" font-size="10.00">iot::mqtt_fast::ControlPacket</text>
<text xml:space="preserve" text-anchor="middle" x="239.25" y="-59.25" font-family="Helvetica,sans-Serif" font-size="10.00">::putInt8</text>
</a>
</g>
</g>
<!-- Node1&#45;&gt;Node5 -->
<g id="edge4_Node000001_Node000005" class="edge">
<title>Node1&#45;&gt;Node5</title>
<g id="a_edge4_Node000001_Node000005"><a xlink:title=" ">
<path fill="none" stroke="#63b8ff" d="M125.76,-82.93C133.64,-81.94 141.82,-80.91 150.02,-79.87"/>
<polygon fill="#63b8ff" stroke="#63b8ff" points="150.18,-83.38 159.66,-78.66 149.31,-76.44 150.18,-83.38"/>
</a>
</g>
</g>
<!-- Node7 -->
<g id="Node000007" class="node">
<title>Node7</title>
<g id="a_Node000007"><a xlink:href="classiot_1_1mqtt__fast_1_1ControlPacket.html#a7068147ccc82c54eb8d434ce5ad5126d" target="_top" xlink:title=" ">
<polygon fill="white" stroke="#666666" points="317,-33.5 161.5,-33.5 161.5,0 317,0 317,-33.5"/>
<text xml:space="preserve" text-anchor="start" x="169.5" y="-20" font-family="Helvetica,sans-Serif" font-size="10.00">iot::mqtt_fast::ControlPacket</text>
<text xml:space="preserve" text-anchor="middle" x="239.25" y="-7.25" font-family="Helvetica,sans-Serif" font-size="10.00">::putString</text>
</a>
</g>
</g>
<!-- Node1&#45;&gt;Node7 -->
<g id="edge6_Node000001_Node000007" class="edge">
<title>Node1&#45;&gt;Node7</title>
<g id="a_edge6_Node000001_Node000007"><a xlink:title=" ">
<path fill="none" stroke="#63b8ff" d="M95.85,-73.68C114.69,-63.99 139.13,-51.99 161.5,-42.75 165.55,-41.08 169.76,-39.42 174.02,-37.82"/>
<polygon fill="#63b8ff" stroke="#63b8ff" points="175.05,-41.16 183.24,-34.43 172.64,-34.59 175.05,-41.16"/>
</a>
</g>
</g>
<!-- Node4 -->
<g id="Node000004" class="node">
<title>Node4</title>
<g id="a_Node000004"><a xlink:href="classiot_1_1mqtt__fast_1_1types_1_1Binary.html#af8e71e490efa99c2387deab66fb6ad86" target="_top" xlink:title=" ">
<polygon fill="white" stroke="#666666" points="664,-111.5 549,-111.5 549,-78 664,-78 664,-111.5"/>
<text xml:space="preserve" text-anchor="start" x="557" y="-98" font-family="Helvetica,sans-Serif" font-size="10.00">iot::mqtt_fast::types</text>
<text xml:space="preserve" text-anchor="middle" x="606.5" y="-85.25" font-family="Helvetica,sans-Serif" font-size="10.00">::Binary::putInt16</text>
</a>
</g>
</g>
<!-- Node3&#45;&gt;Node4 -->
<g id="edge3_Node000003_Node000004" class="edge">
<title>Node3&#45;&gt;Node4</title>
<g id="a_edge3_Node000003_Node000004"><a xlink:title=" ">
<path fill="none" stroke="#63b8ff" d="M508.97,-109.19C518.44,-107.78 528.07,-106.34 537.39,-104.94"/>
<polygon fill="#63b8ff" stroke="#63b8ff" points="537.72,-108.43 547.09,-103.49 536.68,-101.51 537.72,-108.43"/>
</a>
</g>
</g>
<!-- Node6 -->
<g id="Node000006" class="node">
<title>Node6</title>
<g id="a_Node000006"><a xlink:href="classiot_1_1mqtt__fast_1_1types_1_1Binary.html#a5d4733bdcf86dc7c44716864e147d63d" target="_top" xlink:title=" ">
<polygon fill="white" stroke="#666666" points="488.25,-85.5 373.25,-85.5 373.25,-52 488.25,-52 488.25,-85.5"/>
<text xml:space="preserve" text-anchor="start" x="381.25" y="-72" font-family="Helvetica,sans-Serif" font-size="10.00">iot::mqtt_fast::types</text>
<text xml:space="preserve" text-anchor="middle" x="430.75" y="-59.25" font-family="Helvetica,sans-Serif" font-size="10.00">::Binary::putInt8</text>
</a>
</g>
</g>
<!-- Node5&#45;&gt;Node6 -->
<g id="edge5_Node000005_Node000006" class="edge">
<title>Node5&#45;&gt;Node6</title>
<g id="a_edge5_Node000005_Node000006"><a xlink:title=" ">
<path fill="none" stroke="#63b8ff" d="M317.33,-68.75C331.96,-68.75 347.18,-68.75 361.52,-68.75"/>
<polygon fill="#63b8ff" stroke="#63b8ff" points="361.28,-72.25 371.28,-68.75 361.28,-65.25 361.28,-72.25"/>
</a>
</g>
</g>
<!-- Node8 -->
<g id="Node000008" class="node">
<title>Node8</title>
<g id="a_Node000008"><a xlink:href="classiot_1_1mqtt__fast_1_1types_1_1Binary.html#ade63fff9246720817c7d0477bc2c5c31" target="_top" xlink:title=" ">
<polygon fill="white" stroke="#666666" points="488.25,-33.5 373.25,-33.5 373.25,0 488.25,0 488.25,-33.5"/>
<text xml:space="preserve" text-anchor="start" x="381.25" y="-20" font-family="Helvetica,sans-Serif" font-size="10.00">iot::mqtt_fast::types</text>
<text xml:space="preserve" text-anchor="middle" x="430.75" y="-7.25" font-family="Helvetica,sans-Serif" font-size="10.00">::Binary::putString</text>
</a>
</g>
</g>
<!-- Node7&#45;&gt;Node8 -->
<g id="edge7_Node000007_Node000008" class="edge">
<title>Node7&#45;&gt;Node8</title>
<g id="a_edge7_Node000007_Node000008"><a xlink:title=" ">
<path fill="none" stroke="#63b8ff" d="M317.33,-16.75C331.96,-16.75 347.18,-16.75 361.52,-16.75"/>
<polygon fill="#63b8ff" stroke="#63b8ff" points="361.28,-20.25 371.28,-16.75 361.28,-13.25 361.28,-20.25"/>
</a>
</g>
</g>
<!-- Node8&#45;&gt;Node4 -->
<g id="edge8_Node000008_Node000004" class="edge">
<title>Node8&#45;&gt;Node4</title>
<g id="a_edge8_Node000008_Node000004"><a xlink:title=" ">
<path fill="none" stroke="#63b8ff" d="M486.27,-33.97C493.81,-36.71 501.4,-39.67 508.5,-42.75 528.13,-51.27 549.16,-62.29 566.6,-71.99"/>
<polygon fill="#63b8ff" stroke="#63b8ff" points="564.66,-74.92 575.09,-76.78 568.1,-68.82 564.66,-74.92"/>
</a>
</g>
</g>
<!-- Node9 -->
<g id="Node000009" class="node">
<title>Node9</title>
<g id="a_Node000009"><a xlink:href="classiot_1_1mqtt__fast_1_1types_1_1Binary.html#a3e398cd76ecae99ac447843667ef826e" target="_top" xlink:title=" ">
<polygon fill="white" stroke="#666666" points="668.5,-33.5 544.5,-33.5 544.5,0 668.5,0 668.5,-33.5"/>
<text xml:space="preserve" text-anchor="start" x="552.5" y="-20" font-family="Helvetica,sans-Serif" font-size="10.00">iot::mqtt_fast::types</text>
<text xml:space="preserve" text-anchor="middle" x="606.5" y="-7.25" font-family="Helvetica,sans-Serif" font-size="10.00">::Binary::putStringRaw</text>
</a>
</g>
</g>
<!-- Node8&#45;&gt;Node9 -->
<g id="edge9_Node000008_Node000009" class="edge">
<title>Node8&#45;&gt;Node9</title>
<g id="a_edge9_Node000008_Node000009"><a xlink:title=" ">
<path fill="none" stroke="#63b8ff" d="M488.64,-16.75C502.84,-16.75 518.25,-16.75 533.09,-16.75"/>
<polygon fill="#63b8ff" stroke="#63b8ff" points="532.77,-20.25 542.77,-16.75 532.77,-13.25 532.77,-20.25"/>
</a>
</g>
</g>
</g>
</svg>
