<?xml version="1.0" encoding="UTF-8" standalone="no"?>
<!DOCTYPE svg PUBLIC "-//W3C//DTD SVG 1.1//EN"
 "http://www.w3.org/Graphics/SVG/1.1/DTD/svg11.dtd">
<!-- Generated by graphviz version 2.42.4 (0)
 -->
<!-- Title: iot::mqtt::types::StringPair Pages: 1 -->
<svg width="391pt" height="259pt"
 viewBox="0.00 0.00 391.00 259.00" xmlns="http://www.w3.org/2000/svg" xmlns:xlink="http://www.w3.org/1999/xlink">
<g id="graph0" class="graph" transform="scale(1 1) rotate(0) translate(4 255)">
<title>iot::mqtt::types::StringPair</title>
<!-- Node1 -->
<g id="Node000001" class="node">
<title>Node1</title>
<g id="a_Node000001"><a xlink:title=" ">
<polygon fill="#999999" stroke="transparent" points="181,-19 43,-19 43,0 181,0 181,-19"/>
<text text-anchor="start" x="47.5" y="-6.5" font-family="Helvetica,sans-Serif" font-size="10.00">iot::mqtt::types::StringPair</text>
<polygon fill="none" stroke="#666666" points="43,0 43,-19 181,-19 181,0 43,0"/>
</a>
</g>
</g>
<!-- Node2 -->
<g id="Node000002" class="node">
<title>Node2</title>
<g id="a_Node000002"><a xlink:href="classiot_1_1mqtt_1_1types_1_1TypeBase.html" target="_top" xlink:title=" ">
<polygon fill="white" stroke="transparent" points="136,-107 0,-107 0,-77 136,-77 136,-107"/>
<text text-anchor="start" x="4" y="-95" font-family="Helvetica,sans-Serif" font-size="10.00">iot::mqtt::types::TypeBase</text>
<text text-anchor="start" x="9" y="-84" font-family="Helvetica,sans-Serif" font-size="10.00">&lt; std::vector&lt; char &gt; &gt;</text>
<polygon fill="none" stroke="#666666" points="0,-77 0,-107 136,-107 136,-77 0,-77"/>
</a>
</g>
</g>
<!-- Node2&#45;&gt;Node1 -->
<g id="edge1_Node000001_Node000002" class="edge">
<title>Node2&#45;&gt;Node1</title>
<g id="a_edge1_Node000001_Node000002"><a xlink:title=" ">
<path fill="none" stroke="#63b8ff" d="M80.53,-68.07C89.39,-51.87 100.78,-31.03 107.14,-19.38"/>
<polygon fill="none" stroke="#63b8ff" points="77.39,-66.52 75.66,-76.98 83.53,-69.88 77.39,-66.52"/>
</a>
</g>
</g>
<!-- Node3 -->
<g id="Node000003" class="node">
<title>Node3</title>
<g id="a_Node000003"><a xlink:href="classiot_1_1mqtt_1_1types_1_1String.html" target="_top" xlink:title=" ">
<polygon fill="white" stroke="transparent" points="272,-101.5 154,-101.5 154,-82.5 272,-82.5 272,-101.5"/>
<text text-anchor="start" x="158" y="-89" font-family="Helvetica,sans-Serif" font-size="10.00">iot::mqtt::types::String</text>
<polygon fill="none" stroke="#666666" points="154,-82.5 154,-101.5 272,-101.5 272,-82.5 154,-82.5"/>
</a>
</g>
</g>
<!-- Node3&#45;&gt;Node1 -->
<g id="edge2_Node000001_Node000003" class="edge">
<title>Node3&#45;&gt;Node1</title>
<g id="a_edge2_Node000001_Node000003"><a xlink:title=" ">
<path fill="none" stroke="#63b8ff" d="M202.19,-82.39C185.56,-69.13 153.42,-43.51 132.34,-26.71"/>
<polygon fill="none" stroke="#63b8ff" points="132.12,-26.53 124.93,-25.92 122.73,-19.05 129.92,-19.66 132.12,-26.53"/>
</a>
</g>
<text text-anchor="middle" x="188.5" y="-51" font-family="Helvetica,sans-Serif" font-size="10.00" fill="grey"> &#45;name</text>
<text text-anchor="middle" x="188.5" y="-40" font-family="Helvetica,sans-Serif" font-size="10.00" fill="grey">&#45;value</text>
</g>
<!-- Node4 -->
<g id="Node000004" class="node">
<title>Node4</title>
<g id="a_Node000004"><a xlink:href="classiot_1_1mqtt_1_1types_1_1TypeBase.html" target="_top" xlink:title=" ">
<polygon fill="white" stroke="transparent" points="236,-184 100,-184 100,-154 236,-154 236,-184"/>
<text text-anchor="start" x="104" y="-172" font-family="Helvetica,sans-Serif" font-size="10.00">iot::mqtt::types::TypeBase</text>
<text text-anchor="start" x="132" y="-161" font-family="Helvetica,sans-Serif" font-size="10.00">&lt; std::string &gt;</text>
<polygon fill="none" stroke="#666666" points="100,-154 100,-184 236,-184 236,-154 100,-154"/>
</a>
</g>
</g>
<!-- Node4&#45;&gt;Node3 -->
<g id="edge3_Node000003_Node000004" class="edge">
<title>Node4&#45;&gt;Node3</title>
<g id="a_edge3_Node000003_Node000004"><a xlink:title=" ">
<path fill="none" stroke="#63b8ff" d="M181.84,-144.94C190.57,-130.39 201.35,-112.41 207.68,-101.87"/>
<polygon fill="none" stroke="#63b8ff" points="178.61,-143.52 176.46,-153.89 184.61,-147.12 178.61,-143.52"/>
</a>
</g>
</g>
<!-- Node5 -->
<g id="Node000005" class="node">
<title>Node5</title>
<g id="a_Node000005"><a xlink:href="classiot_1_1mqtt_1_1types_1_1UInt16.html" target="_top" xlink:title=" ">
<polygon fill="white" stroke="transparent" points="376,-178.5 254,-178.5 254,-159.5 376,-159.5 376,-178.5"/>
<text text-anchor="start" x="258" y="-166" font-family="Helvetica,sans-Serif" font-size="10.00">iot::mqtt::types::UInt16</text>
<polygon fill="none" stroke="#666666" points="254,-159.5 254,-178.5 376,-178.5 376,-159.5 254,-159.5"/>
</a>
</g>
</g>
<!-- Node5&#45;&gt;Node3 -->
<g id="edge4_Node000003_Node000005" class="edge">
<title>Node5&#45;&gt;Node3</title>
<g id="a_edge4_Node000003_Node000005"><a xlink:title=" ">
<path fill="none" stroke="#63b8ff" d="M303.3,-159.4C286.54,-147.08 255.43,-124.2 234.47,-108.79"/>
<polygon fill="none" stroke="#63b8ff" points="234.23,-108.61 227.03,-108.28 224.56,-101.5 231.77,-101.83 234.23,-108.61"/>
</a>
</g>
<text text-anchor="middle" x="304" y="-128" font-family="Helvetica,sans-Serif" font-size="10.00" fill="grey"> &#45;stringLength</text>
</g>
<!-- Node6 -->
<g id="Node000006" class="node">
<title>Node6</title>
<g id="a_Node000006"><a xlink:href="classiot_1_1mqtt_1_1types_1_1TypeBase.html" target="_top" xlink:title=" ">
<polygon fill="white" stroke="transparent" points="383,-251 247,-251 247,-221 383,-221 383,-251"/>
<text text-anchor="start" x="251" y="-239" font-family="Helvetica,sans-Serif" font-size="10.00">iot::mqtt::types::TypeBase</text>
<text text-anchor="start" x="283.5" y="-228" font-family="Helvetica,sans-Serif" font-size="10.00">&lt; uint16_t &gt;</text>
<polygon fill="none" stroke="#666666" points="247,-221 247,-251 383,-251 383,-221 247,-221"/>
</a>
</g>
</g>
<!-- Node6&#45;&gt;Node5 -->
<g id="edge5_Node000005_Node000006" class="edge">
<title>Node6&#45;&gt;Node5</title>
<g id="a_edge5_Node000005_Node000006"><a xlink:title=" ">
<path fill="none" stroke="#63b8ff" d="M315,-210.75C315,-199.52 315,-186.88 315,-178.69"/>
<polygon fill="none" stroke="#63b8ff" points="311.5,-210.9 315,-220.9 318.5,-210.9 311.5,-210.9"/>
</a>
</g>
</g>
</g>
</svg>
