<?xml version="1.0" encoding="UTF-8" standalone="no"?>
<!DOCTYPE svg PUBLIC "-//W3C//DTD SVG 1.1//EN"
 "http://www.w3.org/Graphics/SVG/1.1/DTD/svg11.dtd">
<!-- Generated by graphviz version 2.43.0 (0)
 -->
<!-- Title: web::http::client::Request::set Pages: 1 -->
<svg width="741pt" height="490pt"
 viewBox="0.00 0.00 741.00 490.00" xmlns="http://www.w3.org/2000/svg" xmlns:xlink="http://www.w3.org/1999/xlink">
<g id="graph0" class="graph" transform="scale(1 1) rotate(0) translate(4 486)">
<title>web::http::client::Request::set</title>
<!-- Node1 -->
<g id="Node000001" class="node">
<title>Node1</title>
<g id="a_Node000001"><a xlink:title=" ">
<polygon fill="#999999" stroke="#666666" points="733,-272 632,-272 632,-242 733,-242 733,-272"/>
<text text-anchor="start" x="640" y="-260" font-family="Helvetica,sans-Serif" font-size="10.00">web::http::client::</text>
<text text-anchor="middle" x="682.5" y="-249" font-family="Helvetica,sans-Serif" font-size="10.00">Request::set</text>
</a>
</g>
</g>
<!-- Node2 -->
<g id="Node000002" class="node">
<title>Node2</title>
<g id="a_Node000002"><a xlink:href="classweb_1_1http_1_1client_1_1Request.html#ac43004a3996373bfd8be900519bcf3ec" target="_top" xlink:title=" ">
<polygon fill="white" stroke="#666666" points="561.5,-482 460.5,-482 460.5,-452 561.5,-452 561.5,-482"/>
<text text-anchor="start" x="468.5" y="-470" font-family="Helvetica,sans-Serif" font-size="10.00">web::http::client::</text>
<text text-anchor="middle" x="511" y="-459" font-family="Helvetica,sans-Serif" font-size="10.00">Request::append</text>
</a>
</g>
</g>
<!-- Node1&#45;&gt;Node2 -->
<g id="edge1_Node000001_Node000002" class="edge">
<title>Node1&#45;&gt;Node2</title>
<g id="a_edge1_Node000001_Node000002"><a xlink:title=" ">
<path fill="none" stroke="#63b8ff" d="M676.27,-281.94C666.88,-320.7 643.54,-395.37 596,-438 586.35,-446.65 573.99,-452.75 561.74,-457.03"/>
<polygon fill="#63b8ff" stroke="#63b8ff" points="679.72,-282.55 678.56,-272.02 672.9,-280.97 679.72,-282.55"/>
</a>
</g>
</g>
<!-- Node3 -->
<g id="Node000003" class="node">
<title>Node3</title>
<g id="a_Node000003"><a xlink:href="classweb_1_1http_1_1client_1_1Request.html#af6ef4c24e07761541074d404f5416add" target="_top" xlink:title=" ">
<polygon fill="white" stroke="#666666" points="368,-455 226,-455 226,-425 368,-425 368,-455"/>
<text text-anchor="start" x="234" y="-443" font-family="Helvetica,sans-Serif" font-size="10.00">web::http::client::</text>
<text text-anchor="middle" x="297" y="-432" font-family="Helvetica,sans-Serif" font-size="10.00">Request::executeSendFile</text>
</a>
</g>
</g>
<!-- Node1&#45;&gt;Node3 -->
<g id="edge2_Node000001_Node000003" class="edge">
<title>Node1&#45;&gt;Node3</title>
<g id="a_edge2_Node000001_Node000003"><a xlink:title=" ">
<path fill="none" stroke="#63b8ff" d="M674.75,-281.98C664.12,-316.01 640.03,-376.03 596,-405 559.72,-428.87 444.27,-436.49 368.18,-438.91"/>
<polygon fill="#63b8ff" stroke="#63b8ff" points="678.13,-282.89 677.62,-272.31 671.42,-280.9 678.13,-282.89"/>
</a>
</g>
</g>
<!-- Node5 -->
<g id="Node000005" class="node">
<title>Node5</title>
<g id="a_Node000005"><a xlink:href="classweb_1_1http_1_1client_1_1Request.html#ab675f5bc8a880f8287baeda598df759f" target="_top" xlink:title=" ">
<polygon fill="white" stroke="#666666" points="591.5,-396 430.5,-396 430.5,-366 591.5,-366 591.5,-396"/>
<text text-anchor="start" x="438.5" y="-384" font-family="Helvetica,sans-Serif" font-size="10.00">web::http::client::</text>
<text text-anchor="middle" x="511" y="-373" font-family="Helvetica,sans-Serif" font-size="10.00">Request::executeSendHeader</text>
</a>
</g>
</g>
<!-- Node1&#45;&gt;Node5 -->
<g id="edge4_Node000001_Node000005" class="edge">
<title>Node1&#45;&gt;Node5</title>
<g id="a_edge4_Node000001_Node000005"><a xlink:title=" ">
<path fill="none" stroke="#63b8ff" d="M665.89,-280.23C650.44,-301.61 624.94,-332.83 596,-352 587.64,-357.54 578.11,-362.14 568.54,-365.91"/>
<polygon fill="#63b8ff" stroke="#63b8ff" points="668.79,-282.2 671.69,-272.01 663.07,-278.16 668.79,-282.2"/>
</a>
</g>
</g>
<!-- Node7 -->
<g id="Node000007" class="node">
<title>Node7</title>
<g id="a_Node000007"><a xlink:href="classweb_1_1http_1_1client_1_1Request.html#afa8c9d24d852b519cb7a33e33780d6d8" target="_top" xlink:title=" ">
<polygon fill="white" stroke="#666666" points="368.5,-347 225.5,-347 225.5,-317 368.5,-317 368.5,-347"/>
<text text-anchor="start" x="233.5" y="-335" font-family="Helvetica,sans-Serif" font-size="10.00">web::http::client::</text>
<text text-anchor="middle" x="297" y="-324" font-family="Helvetica,sans-Serif" font-size="10.00">Request::executeUpgrade</text>
</a>
</g>
</g>
<!-- Node1&#45;&gt;Node7 -->
<g id="edge9_Node000001_Node000007" class="edge">
<title>Node1&#45;&gt;Node7</title>
<g id="a_edge9_Node000001_Node000007"><a xlink:title=" ">
<path fill="none" stroke="#63b8ff" d="M647.57,-277.04C632.3,-285.16 613.75,-293.83 596,-299 520.29,-321.05 429.82,-328.56 368.58,-331.02"/>
<polygon fill="#63b8ff" stroke="#63b8ff" points="649.53,-279.96 656.62,-272.09 646.17,-273.82 649.53,-279.96"/>
</a>
</g>
</g>
<!-- Node9 -->
<g id="Node000009" class="node">
<title>Node9</title>
<g id="a_Node000009"><a xlink:href="classweb_1_1http_1_1client_1_1Request.html#ad75da4129b99ca09f9160c5797710e9a" target="_top" xlink:title=" ">
<polygon fill="white" stroke="#666666" points="561.5,-272 460.5,-272 460.5,-242 561.5,-242 561.5,-272"/>
<text text-anchor="start" x="468.5" y="-260" font-family="Helvetica,sans-Serif" font-size="10.00">web::http::client::</text>
<text text-anchor="middle" x="511" y="-249" font-family="Helvetica,sans-Serif" font-size="10.00">Request::host</text>
</a>
</g>
</g>
<!-- Node1&#45;&gt;Node9 -->
<g id="edge10_Node000001_Node000009" class="edge">
<title>Node1&#45;&gt;Node9</title>
<g id="a_edge10_Node000001_Node000009"><a xlink:title=" ">
<path fill="none" stroke="#63b8ff" d="M621.51,-257C601.89,-257 580.34,-257 561.58,-257"/>
<polygon fill="#63b8ff" stroke="#63b8ff" points="621.56,-260.5 631.56,-257 621.56,-253.5 621.56,-260.5"/>
</a>
</g>
</g>
<!-- Node10 -->
<g id="Node000010" class="node">
<title>Node10</title>
<g id="a_Node000010"><a xlink:href="classweb_1_1http_1_1client_1_1Request.html#a2aa5cc2da7b11fe80b2d38fa0719c363" target="_top" xlink:title=" ">
<polygon fill="white" stroke="#666666" points="347.5,-296 246.5,-296 246.5,-266 347.5,-266 347.5,-296"/>
<text text-anchor="start" x="254.5" y="-284" font-family="Helvetica,sans-Serif" font-size="10.00">web::http::client::</text>
<text text-anchor="middle" x="297" y="-273" font-family="Helvetica,sans-Serif" font-size="10.00">Request::init</text>
</a>
</g>
</g>
<!-- Node1&#45;&gt;Node10 -->
<g id="edge15_Node000001_Node000010" class="edge">
<title>Node1&#45;&gt;Node10</title>
<g id="a_edge15_Node000001_Node000010"><a xlink:title=" ">
<path fill="none" stroke="#63b8ff" d="M626.78,-274.74C616.65,-277.34 606.08,-279.61 596,-281 509.26,-292.94 406.96,-289.09 347.58,-285.11"/>
<polygon fill="#63b8ff" stroke="#63b8ff" points="627.99,-278.04 636.73,-272.05 626.16,-271.28 627.99,-278.04"/>
</a>
</g>
</g>
<!-- Node14 -->
<g id="Node000014" class="node">
<title>Node14</title>
<g id="a_Node000014"><a xlink:href="classweb_1_1websocket_1_1client_1_1SocketContextUpgradeFactory.html#ac9987e6802325e3f70a94b92fe5c17ca" target="_top" xlink:title=" ">
<polygon fill="white" stroke="#666666" points="596,-223.5 426,-223.5 426,-182.5 596,-182.5 596,-223.5"/>
<text text-anchor="start" x="434" y="-211.5" font-family="Helvetica,sans-Serif" font-size="10.00">web::websocket::client</text>
<text text-anchor="start" x="434" y="-200.5" font-family="Helvetica,sans-Serif" font-size="10.00">::SocketContextUpgradeFactory</text>
<text text-anchor="middle" x="511" y="-189.5" font-family="Helvetica,sans-Serif" font-size="10.00">::prepare</text>
</a>
</g>
</g>
<!-- Node1&#45;&gt;Node14 -->
<g id="edge16_Node000001_Node000014" class="edge">
<title>Node1&#45;&gt;Node14</title>
<g id="a_edge16_Node000001_Node000014"><a xlink:title=" ">
<path fill="none" stroke="#63b8ff" d="M624.37,-238.8C608.96,-233.89 592.17,-228.54 576.38,-223.51"/>
<polygon fill="#63b8ff" stroke="#63b8ff" points="623.69,-242.26 634.28,-241.96 625.82,-235.59 623.69,-242.26"/>
</a>
</g>
</g>
<!-- Node15 -->
<g id="Node000015" class="node">
<title>Node15</title>
<g id="a_Node000015"><a xlink:href="classweb_1_1http_1_1client_1_1Request.html#ad5594e9fd3abf39cf9af4d1283e5d2f1" target="_top" xlink:title=" ">
<polygon fill="white" stroke="#666666" points="561.5,-164 460.5,-164 460.5,-134 561.5,-134 561.5,-164"/>
<text text-anchor="start" x="468.5" y="-152" font-family="Helvetica,sans-Serif" font-size="10.00">web::http::client::</text>
<text text-anchor="middle" x="511" y="-141" font-family="Helvetica,sans-Serif" font-size="10.00">Request::send</text>
</a>
</g>
</g>
<!-- Node1&#45;&gt;Node15 -->
<g id="edge17_Node000001_Node000015" class="edge">
<title>Node1&#45;&gt;Node15</title>
<g id="a_edge17_Node000001_Node000015"><a xlink:title=" ">
<path fill="none" stroke="#63b8ff" d="M663.76,-234.07C647.92,-215.09 623.1,-188.78 596,-173 585.52,-166.89 573.38,-162.26 561.65,-158.77"/>
<polygon fill="#63b8ff" stroke="#63b8ff" points="661.15,-236.4 670.17,-241.95 666.58,-231.99 661.15,-236.4"/>
</a>
</g>
</g>
<!-- Node16 -->
<g id="Node000016" class="node">
<title>Node16</title>
<g id="a_Node000016"><a xlink:href="classweb_1_1http_1_1client_1_1Request.html#adfe30050f8ddbe9952621d94f47b04da" target="_top" xlink:title=" ">
<polygon fill="white" stroke="#666666" points="347.5,-143 246.5,-143 246.5,-113 347.5,-113 347.5,-143"/>
<text text-anchor="start" x="254.5" y="-131" font-family="Helvetica,sans-Serif" font-size="10.00">web::http::client::</text>
<text text-anchor="middle" x="297" y="-120" font-family="Helvetica,sans-Serif" font-size="10.00">Request::send</text>
</a>
</g>
</g>
<!-- Node1&#45;&gt;Node16 -->
<g id="edge19_Node000001_Node000016" class="edge">
<title>Node1&#45;&gt;Node16</title>
<g id="a_edge19_Node000001_Node000016"><a xlink:title=" ">
<path fill="none" stroke="#63b8ff" d="M673.71,-232.19C662.32,-200.7 637.81,-147.73 596,-125 517.71,-82.43 409.86,-98.5 347.67,-113.58"/>
<polygon fill="#63b8ff" stroke="#63b8ff" points="670.51,-233.66 677.07,-241.98 677.13,-231.38 670.51,-233.66"/>
</a>
</g>
</g>
<!-- Node17 -->
<g id="Node000017" class="node">
<title>Node17</title>
<g id="a_Node000017"><a xlink:href="classweb_1_1http_1_1client_1_1Request.html#ab1d150f0233875468d46a5d297bb8422" target="_top" xlink:title=" ">
<polygon fill="white" stroke="#666666" points="561.5,-78 460.5,-78 460.5,-48 561.5,-48 561.5,-78"/>
<text text-anchor="start" x="468.5" y="-66" font-family="Helvetica,sans-Serif" font-size="10.00">web::http::client::</text>
<text text-anchor="middle" x="511" y="-55" font-family="Helvetica,sans-Serif" font-size="10.00">Request::set</text>
</a>
</g>
</g>
<!-- Node1&#45;&gt;Node17 -->
<g id="edge20_Node000001_Node000017" class="edge">
<title>Node1&#45;&gt;Node17</title>
<g id="a_edge20_Node000001_Node000017"><a xlink:title=" ">
<path fill="none" stroke="#63b8ff" d="M675.02,-232.17C664.42,-196.27 640,-130.01 596,-92 586.19,-83.53 573.78,-77.49 561.52,-73.21"/>
<polygon fill="#63b8ff" stroke="#63b8ff" points="671.67,-233.19 677.77,-241.86 678.41,-231.29 671.67,-233.19"/>
</a>
</g>
</g>
<!-- Node18 -->
<g id="Node000018" class="node">
<title>Node18</title>
<g id="a_Node000018"><a xlink:href="classweb_1_1http_1_1client_1_1Request.html#a7ee75f9186226290535224936bea8371" target="_top" xlink:title=" ">
<polygon fill="white" stroke="#666666" points="565,-30 457,-30 457,0 565,0 565,-30"/>
<text text-anchor="start" x="465" y="-18" font-family="Helvetica,sans-Serif" font-size="10.00">web::http::client::</text>
<text text-anchor="middle" x="511" y="-7" font-family="Helvetica,sans-Serif" font-size="10.00">Request::setTrailer</text>
</a>
</g>
</g>
<!-- Node1&#45;&gt;Node18 -->
<g id="edge21_Node000001_Node000018" class="edge">
<title>Node1&#45;&gt;Node18</title>
<g id="a_edge21_Node000001_Node000018"><a xlink:title=" ">
<path fill="none" stroke="#63b8ff" d="M678.81,-231.58C672.63,-186.18 653.26,-91.03 596,-39 587.36,-31.15 576.31,-25.84 565.1,-22.27"/>
<polygon fill="#63b8ff" stroke="#63b8ff" points="675.37,-232.26 680.08,-241.75 682.31,-231.39 675.37,-232.26"/>
</a>
</g>
</g>
<!-- Node4 -->
<g id="Node000004" class="node">
<title>Node4</title>
<g id="a_Node000004"><a xlink:href="classweb_1_1http_1_1client_1_1commands_1_1SendFileCommand.html#a21978f46ba2566d1cc0cda65cf6cd95d" target="_top" xlink:title=" ">
<polygon fill="white" stroke="#666666" points="167.5,-460.5 0.5,-460.5 0.5,-419.5 167.5,-419.5 167.5,-460.5"/>
<text text-anchor="start" x="8.5" y="-448.5" font-family="Helvetica,sans-Serif" font-size="10.00">web::http::client::</text>
<text text-anchor="start" x="8.5" y="-437.5" font-family="Helvetica,sans-Serif" font-size="10.00">commands::SendFileCommand</text>
<text text-anchor="middle" x="84" y="-426.5" font-family="Helvetica,sans-Serif" font-size="10.00">::execute</text>
</a>
</g>
</g>
<!-- Node3&#45;&gt;Node4 -->
<g id="edge3_Node000003_Node000004" class="edge">
<title>Node3&#45;&gt;Node4</title>
<g id="a_edge3_Node000003_Node000004"><a xlink:title=" ">
<path fill="none" stroke="#63b8ff" d="M215.58,-440C199.92,-440 183.48,-440 167.75,-440"/>
<polygon fill="#63b8ff" stroke="#63b8ff" points="215.74,-443.5 225.74,-440 215.74,-436.5 215.74,-443.5"/>
</a>
</g>
</g>
<!-- Node5&#45;&gt;Node3 -->
<g id="edge6_Node000005_Node000003" class="edge">
<title>Node5&#45;&gt;Node3</title>
<g id="a_edge6_Node000005_Node000003"><a xlink:title=" ">
<path fill="none" stroke="#63b8ff" d="M449.82,-398.92C430.72,-404.51 409.51,-410.61 390,-416 379.34,-418.94 367.96,-421.99 356.96,-424.89"/>
<polygon fill="#63b8ff" stroke="#63b8ff" points="450.98,-402.23 459.59,-396.05 449.01,-395.51 450.98,-402.23"/>
</a>
</g>
</g>
<!-- Node6 -->
<g id="Node000006" class="node">
<title>Node6</title>
<g id="a_Node000006"><a xlink:href="classweb_1_1http_1_1client_1_1commands_1_1SendHeaderCommand.html#a270107637f83b5d1b585146240833809" target="_top" xlink:title=" ">
<polygon fill="white" stroke="#666666" points="390,-406.5 204,-406.5 204,-365.5 390,-365.5 390,-406.5"/>
<text text-anchor="start" x="212" y="-394.5" font-family="Helvetica,sans-Serif" font-size="10.00">web::http::client::</text>
<text text-anchor="start" x="212" y="-383.5" font-family="Helvetica,sans-Serif" font-size="10.00">commands::SendHeaderCommand</text>
<text text-anchor="middle" x="297" y="-372.5" font-family="Helvetica,sans-Serif" font-size="10.00">::execute</text>
</a>
</g>
</g>
<!-- Node5&#45;&gt;Node6 -->
<g id="edge5_Node000005_Node000006" class="edge">
<title>Node5&#45;&gt;Node6</title>
<g id="a_edge5_Node000005_Node000006"><a xlink:title=" ">
<path fill="none" stroke="#63b8ff" d="M420.18,-383.12C410.23,-383.35 400.09,-383.59 390.12,-383.83"/>
<polygon fill="#63b8ff" stroke="#63b8ff" points="420.54,-386.61 430.46,-382.88 420.38,-379.61 420.54,-386.61"/>
</a>
</g>
</g>
<!-- Node5&#45;&gt;Node7 -->
<g id="edge7_Node000005_Node000007" class="edge">
<title>Node5&#45;&gt;Node7</title>
<g id="a_edge7_Node000005_Node000007"><a xlink:title=" ">
<path fill="none" stroke="#63b8ff" d="M435.02,-363.67C411.48,-358.23 385.71,-352.27 362.92,-347.01"/>
<polygon fill="#63b8ff" stroke="#63b8ff" points="434.42,-367.12 444.95,-365.97 436,-360.3 434.42,-367.12"/>
</a>
</g>
</g>
<!-- Node8 -->
<g id="Node000008" class="node">
<title>Node8</title>
<g id="a_Node000008"><a xlink:href="classweb_1_1http_1_1client_1_1commands_1_1UpgradeCommand.html#a8b6231beb777bb1476ffdef53a40cfa2" target="_top" xlink:title=" ">
<polygon fill="white" stroke="#666666" points="168,-355.5 0,-355.5 0,-314.5 168,-314.5 168,-355.5"/>
<text text-anchor="start" x="8" y="-343.5" font-family="Helvetica,sans-Serif" font-size="10.00">web::http::client::</text>
<text text-anchor="start" x="8" y="-332.5" font-family="Helvetica,sans-Serif" font-size="10.00">commands::UpgradeCommand</text>
<text text-anchor="middle" x="84" y="-321.5" font-family="Helvetica,sans-Serif" font-size="10.00">::execute</text>
</a>
</g>
</g>
<!-- Node7&#45;&gt;Node8 -->
<g id="edge8_Node000007_Node000008" class="edge">
<title>Node7&#45;&gt;Node8</title>
<g id="a_edge8_Node000007_Node000008"><a xlink:title=" ">
<path fill="none" stroke="#63b8ff" d="M215.43,-333.15C199.99,-333.37 183.8,-333.6 168.28,-333.82"/>
<polygon fill="#63b8ff" stroke="#63b8ff" points="215.5,-336.65 225.45,-333 215.4,-329.65 215.5,-336.65"/>
</a>
</g>
</g>
<!-- Node9&#45;&gt;Node10 -->
<g id="edge11_Node000009_Node000010" class="edge">
<title>Node9&#45;&gt;Node10</title>
<g id="a_edge11_Node000009_Node000010"><a xlink:title=" ">
<path fill="none" stroke="#63b8ff" d="M450.07,-263.78C417.76,-267.44 378.36,-271.9 347.76,-275.37"/>
<polygon fill="#63b8ff" stroke="#63b8ff" points="450.75,-267.23 460.3,-262.63 449.97,-260.27 450.75,-267.23"/>
</a>
</g>
</g>
<!-- Node13 -->
<g id="Node000013" class="node">
<title>Node13</title>
<g id="a_Node000013"><a xlink:href="classweb_1_1http_1_1client_1_1Request.html#ab853d5bc75cf3ffaa8667e684f31f462" target="_top" xlink:title=" ">
<polygon fill="white" stroke="#666666" points="348,-248 246,-248 246,-218 348,-218 348,-248"/>
<text text-anchor="start" x="254" y="-236" font-family="Helvetica,sans-Serif" font-size="10.00">web::http::client::</text>
<text text-anchor="middle" x="297" y="-225" font-family="Helvetica,sans-Serif" font-size="10.00">Request::Request</text>
</a>
</g>
</g>
<!-- Node9&#45;&gt;Node13 -->
<g id="edge14_Node000009_Node000013" class="edge">
<title>Node9&#45;&gt;Node13</title>
<g id="a_edge14_Node000009_Node000013"><a xlink:title=" ">
<path fill="none" stroke="#63b8ff" d="M450.11,-250.22C417.92,-246.58 378.69,-242.13 348.13,-238.67"/>
<polygon fill="#63b8ff" stroke="#63b8ff" points="449.97,-253.73 460.3,-251.37 450.75,-246.77 449.97,-253.73"/>
</a>
</g>
</g>
<!-- Node11 -->
<g id="Node000011" class="node">
<title>Node11</title>
<g id="a_Node000011"><a xlink:href="classweb_1_1http_1_1client_1_1SocketContext.html#abf37fe4440e42ea8657c06be1859402c" target="_top" xlink:title=" ">
<polygon fill="white" stroke="#666666" points="162.5,-296 5.5,-296 5.5,-266 162.5,-266 162.5,-296"/>
<text text-anchor="start" x="13.5" y="-284" font-family="Helvetica,sans-Serif" font-size="10.00">web::http::client::</text>
<text text-anchor="middle" x="84" y="-273" font-family="Helvetica,sans-Serif" font-size="10.00">SocketContext::onConnected</text>
</a>
</g>
</g>
<!-- Node10&#45;&gt;Node11 -->
<g id="edge12_Node000010_Node000011" class="edge">
<title>Node10&#45;&gt;Node11</title>
<g id="a_edge12_Node000010_Node000011"><a xlink:title=" ">
<path fill="none" stroke="#63b8ff" d="M236.07,-281C213.32,-281 187.06,-281 162.88,-281"/>
<polygon fill="#63b8ff" stroke="#63b8ff" points="236.26,-284.5 246.26,-281 236.26,-277.5 236.26,-284.5"/>
</a>
</g>
</g>
<!-- Node12 -->
<g id="Node000012" class="node">
<title>Node12</title>
<g id="a_Node000012"><a xlink:href="classweb_1_1http_1_1client_1_1Request.html#a2b69ff8c60d085db953c0dbb8286b3fd" target="_top" xlink:title=" ">
<polygon fill="white" stroke="#666666" points="135,-248 33,-248 33,-218 135,-218 135,-248"/>
<text text-anchor="start" x="41" y="-236" font-family="Helvetica,sans-Serif" font-size="10.00">web::http::client::</text>
<text text-anchor="middle" x="84" y="-225" font-family="Helvetica,sans-Serif" font-size="10.00">Request::Request</text>
</a>
</g>
</g>
<!-- Node10&#45;&gt;Node12 -->
<g id="edge13_Node000010_Node000012" class="edge">
<title>Node10&#45;&gt;Node12</title>
<g id="a_edge13_Node000010_Node000012"><a xlink:title=" ">
<path fill="none" stroke="#63b8ff" d="M236.17,-267.39C204.26,-260.13 165.44,-251.3 135.13,-244.4"/>
<polygon fill="#63b8ff" stroke="#63b8ff" points="235.74,-270.88 246.26,-269.69 237.29,-264.05 235.74,-270.88"/>
</a>
</g>
</g>
<!-- Node15&#45;&gt;Node16 -->
<g id="edge18_Node000015_Node000016" class="edge">
<title>Node15&#45;&gt;Node16</title>
<g id="a_edge18_Node000015_Node000016"><a xlink:title=" ">
<path fill="none" stroke="#63b8ff" d="M450.07,-143.06C417.76,-139.86 378.36,-135.96 347.76,-132.93"/>
<polygon fill="#63b8ff" stroke="#63b8ff" points="450,-146.57 460.3,-144.08 450.69,-139.61 450,-146.57"/>
</a>
</g>
</g>
</g>
</svg>
