<?xml version="1.0" encoding="UTF-8" standalone="no"?>
<!DOCTYPE svg PUBLIC "-//W3C//DTD SVG 1.1//EN"
 "http://www.w3.org/Graphics/SVG/1.1/DTD/svg11.dtd">
<!-- Generated by graphviz version 14.1.1 (0)
 -->
<!-- Title: core::socket::stream::SocketConnector::connectEvent Pages: 1 -->
<svg width="804pt" height="262pt"
 viewBox="0.00 0.00 804.00 262.00" xmlns="http://www.w3.org/2000/svg" xmlns:xlink="http://www.w3.org/1999/xlink">
<g id="graph0" class="graph" transform="scale(1 1) rotate(0) translate(4 257.88)">
<title>core::socket::stream::SocketConnector::connectEvent</title>
<!-- Node1 -->
<g id="Node000001" class="node">
<title>Node1</title>
<g id="a_Node000001"><a xlink:title=" ">
<polygon fill="#999999" stroke="#666666" points="175.75,-123.88 0,-123.88 0,-90.38 175.75,-90.38 175.75,-123.88"/>
<text xml:space="preserve" text-anchor="start" x="8" y="-110.38" font-family="Helvetica,sans-Serif" font-size="10.00">core::socket::stream</text>
<text xml:space="preserve" text-anchor="middle" x="87.88" y="-97.62" font-family="Helvetica,sans-Serif" font-size="10.00">::SocketConnector::connectEvent</text>
</a>
</g>
</g>
<!-- Node2 -->
<g id="Node000002" class="node">
<title>Node2</title>
<g id="a_Node000002"><a xlink:href="classcore_1_1DescriptorEventReceiver.html#a4ab422ce6622a29cee38a0108ee6ccc1" target="_top" xlink:title=" ">
<polygon fill="white" stroke="#666666" points="384.88,-201.88 221.12,-201.88 221.12,-168.38 384.88,-168.38 384.88,-201.88"/>
<text xml:space="preserve" text-anchor="start" x="229.12" y="-188.38" font-family="Helvetica,sans-Serif" font-size="10.00">core::DescriptorEventReceiver</text>
<text xml:space="preserve" text-anchor="middle" x="303" y="-175.62" font-family="Helvetica,sans-Serif" font-size="10.00">::disable</text>
</a>
</g>
</g>
<!-- Node1&#45;&gt;Node2 -->
<g id="edge1_Node000001_Node000002" class="edge">
<title>Node1&#45;&gt;Node2</title>
<g id="a_edge1_Node000001_Node000002"><a xlink:title=" ">
<path fill="none" stroke="#63b8ff" d="M126.33,-124.36C150.44,-135.1 182.6,-148.8 211.75,-159.12 216.99,-160.98 222.45,-162.81 227.95,-164.57"/>
<polygon fill="#63b8ff" stroke="#63b8ff" points="226.54,-167.8 237.13,-167.44 228.63,-161.12 226.54,-167.8"/>
</a>
</g>
</g>
<!-- Node7 -->
<g id="Node000007" class="node">
<title>Node7</title>
<g id="a_Node000007"><a xlink:href="classcore_1_1socket_1_1State.html#acacde2be8a7738225bfbd952211c7c4d" target="_top" xlink:title=" ">
<polygon fill="white" stroke="#666666" points="356,-149.88 250,-149.88 250,-116.38 356,-116.38 356,-149.88"/>
<text xml:space="preserve" text-anchor="start" x="258" y="-136.38" font-family="Helvetica,sans-Serif" font-size="10.00">core::socket::State</text>
<text xml:space="preserve" text-anchor="middle" x="303" y="-123.62" font-family="Helvetica,sans-Serif" font-size="10.00">::operator|</text>
</a>
</g>
</g>
<!-- Node1&#45;&gt;Node7 -->
<g id="edge6_Node000001_Node000007" class="edge">
<title>Node1&#45;&gt;Node7</title>
<g id="a_edge6_Node000001_Node000007"><a xlink:title=" ">
<path fill="none" stroke="#63b8ff" d="M176.18,-117.78C197.03,-120.32 218.9,-122.99 238.45,-125.37"/>
<polygon fill="#63b8ff" stroke="#63b8ff" points="237.81,-128.82 248.16,-126.56 238.66,-121.87 237.81,-128.82"/>
</a>
</g>
</g>
<!-- Node9 -->
<g id="Node000009" class="node">
<title>Node9</title>
<g id="a_Node000009"><a xlink:href="classutils_1_1PreserveErrno.html#ae07e79ee373a901ef4941ce2c3eb7c85" target="_top" xlink:title=" ">
<polygon fill="white" stroke="#666666" points="358.62,-97.88 247.38,-97.88 247.38,-64.38 358.62,-64.38 358.62,-97.88"/>
<text xml:space="preserve" text-anchor="start" x="255.38" y="-84.38" font-family="Helvetica,sans-Serif" font-size="10.00">utils::PreserveErrno</text>
<text xml:space="preserve" text-anchor="middle" x="303" y="-71.62" font-family="Helvetica,sans-Serif" font-size="10.00">::PreserveErrno</text>
</a>
</g>
</g>
<!-- Node1&#45;&gt;Node9 -->
<g id="edge8_Node000001_Node000009" class="edge">
<title>Node1&#45;&gt;Node9</title>
<g id="a_edge8_Node000001_Node000009"><a xlink:title=" ">
<path fill="none" stroke="#63b8ff" d="M176.18,-96.47C195.98,-94.06 216.7,-91.53 235.47,-89.24"/>
<polygon fill="#63b8ff" stroke="#63b8ff" points="235.88,-92.72 245.39,-88.03 235.04,-85.77 235.88,-92.72"/>
</a>
</g>
</g>
<!-- Node10 -->
<g id="Node000010" class="node">
<title>Node10</title>
<g id="a_Node000010"><a xlink:href="classcore_1_1socket_1_1stream_1_1SocketConnector.html#a1d8c24ec81c34a281d7adf47ccadc08d" target="_top" xlink:title=" ">
<polygon fill="white" stroke="#666666" points="394.25,-46.25 211.75,-46.25 211.75,0 394.25,0 394.25,-46.25"/>
<text xml:space="preserve" text-anchor="start" x="219.75" y="-32.75" font-family="Helvetica,sans-Serif" font-size="10.00">core::socket::stream</text>
<text xml:space="preserve" text-anchor="start" x="219.75" y="-20" font-family="Helvetica,sans-Serif" font-size="10.00">::SocketConnector::useNextSocket</text>
<text xml:space="preserve" text-anchor="middle" x="303" y="-7.25" font-family="Helvetica,sans-Serif" font-size="10.00">Address</text>
</a>
</g>
</g>
<!-- Node1&#45;&gt;Node10 -->
<g id="edge9_Node000001_Node000010" class="edge">
<title>Node1&#45;&gt;Node10</title>
<g id="a_edge9_Node000001_Node000010"><a xlink:title=" ">
<path fill="none" stroke="#63b8ff" d="M127.92,-89.9C151.95,-79.47 183.46,-66.11 211.75,-55.12 215.62,-53.62 219.59,-52.11 223.61,-50.6"/>
<polygon fill="#63b8ff" stroke="#63b8ff" points="224.74,-53.91 232.9,-47.15 222.31,-47.35 224.74,-53.91"/>
</a>
</g>
</g>
<!-- Node3 -->
<g id="Node000003" class="node">
<title>Node3</title>
<g id="a_Node000003"><a xlink:href="classcore_1_1DescriptorEventPublisher.html#a998d681666ff72ed73cf0799ff4aca77" target="_top" xlink:title=" ">
<polygon fill="white" stroke="#666666" points="596.25,-253.88 430.25,-253.88 430.25,-220.38 596.25,-220.38 596.25,-253.88"/>
<text xml:space="preserve" text-anchor="start" x="438.25" y="-240.38" font-family="Helvetica,sans-Serif" font-size="10.00">core::DescriptorEventPublisher</text>
<text xml:space="preserve" text-anchor="middle" x="513.25" y="-227.62" font-family="Helvetica,sans-Serif" font-size="10.00">::disable</text>
</a>
</g>
</g>
<!-- Node2&#45;&gt;Node3 -->
<g id="edge2_Node000002_Node000003" class="edge">
<title>Node2&#45;&gt;Node3</title>
<g id="a_edge2_Node000002_Node000003"><a xlink:title=" ">
<path fill="none" stroke="#63b8ff" d="M373.05,-202.37C392.05,-207.11 412.8,-212.29 432.35,-217.17"/>
<polygon fill="#63b8ff" stroke="#63b8ff" points="431.36,-220.54 441.91,-219.56 433.06,-213.74 431.36,-220.54"/>
</a>
</g>
</g>
<!-- Node5 -->
<g id="Node000005" class="node">
<title>Node5</title>
<g id="a_Node000005"><a xlink:href="classcore_1_1EventReceiver.html#a0735c234c7848cf4d45473a6f7ce11b2" target="_top" xlink:title=" ">
<polygon fill="white" stroke="#666666" points="570,-201.88 456.5,-201.88 456.5,-168.38 570,-168.38 570,-201.88"/>
<text xml:space="preserve" text-anchor="start" x="464.5" y="-188.38" font-family="Helvetica,sans-Serif" font-size="10.00">core::EventReceiver</text>
<text xml:space="preserve" text-anchor="middle" x="513.25" y="-175.62" font-family="Helvetica,sans-Serif" font-size="10.00">::getName</text>
</a>
</g>
</g>
<!-- Node2&#45;&gt;Node5 -->
<g id="edge4_Node000002_Node000005" class="edge">
<title>Node2&#45;&gt;Node5</title>
<g id="a_edge4_Node000002_Node000005"><a xlink:title=" ">
<path fill="none" stroke="#63b8ff" d="M385.11,-185.12C404.88,-185.12 425.81,-185.12 444.85,-185.12"/>
<polygon fill="#63b8ff" stroke="#63b8ff" points="444.62,-188.63 454.62,-185.13 444.62,-181.63 444.62,-188.63"/>
</a>
</g>
</g>
<!-- Node4 -->
<g id="Node000004" class="node">
<title>Node4</title>
<g id="a_Node000004"><a xlink:href="classcore_1_1DescriptorEventReceiver.html#a79f301b292a4c64f35f5bf44c9b7ad8f" target="_top" xlink:title=" ">
<polygon fill="white" stroke="#666666" points="796,-253.88 632.25,-253.88 632.25,-220.38 796,-220.38 796,-253.88"/>
<text xml:space="preserve" text-anchor="start" x="640.25" y="-240.38" font-family="Helvetica,sans-Serif" font-size="10.00">core::DescriptorEventReceiver</text>
<text xml:space="preserve" text-anchor="middle" x="714.12" y="-227.62" font-family="Helvetica,sans-Serif" font-size="10.00">::getRegisteredFd</text>
</a>
</g>
</g>
<!-- Node3&#45;&gt;Node4 -->
<g id="edge3_Node000003_Node000004" class="edge">
<title>Node3&#45;&gt;Node4</title>
<g id="a_edge3_Node000003_Node000004"><a xlink:title=" ">
<path fill="none" stroke="#63b8ff" d="M596.58,-237.12C604.49,-237.12 612.56,-237.12 620.56,-237.12"/>
<polygon fill="#63b8ff" stroke="#63b8ff" points="620.31,-240.63 630.31,-237.13 620.31,-233.63 620.31,-240.63"/>
</a>
</g>
</g>
<!-- Node6 -->
<g id="Node000006" class="node">
<title>Node6</title>
<g id="a_Node000006"><a xlink:href="classcore_1_1Event.html#a0ab010154200ef32e875dc673e921c94" target="_top" xlink:title=" ">
<polygon fill="white" stroke="#666666" points="775,-195.5 653.25,-195.5 653.25,-174.75 775,-174.75 775,-195.5"/>
<text xml:space="preserve" text-anchor="middle" x="714.12" y="-182" font-family="Helvetica,sans-Serif" font-size="10.00">core::Event::getName</text>
</a>
</g>
</g>
<!-- Node5&#45;&gt;Node6 -->
<g id="edge5_Node000005_Node000006" class="edge">
<title>Node5&#45;&gt;Node6</title>
<g id="a_edge5_Node000005_Node000006"><a xlink:title=" ">
<path fill="none" stroke="#63b8ff" d="M570.44,-185.12C592.55,-185.12 618.21,-185.12 641.61,-185.12"/>
<polygon fill="#63b8ff" stroke="#63b8ff" points="641.39,-188.63 651.39,-185.13 641.39,-181.63 641.39,-188.63"/>
</a>
</g>
</g>
<!-- Node8 -->
<g id="Node000008" class="node">
<title>Node8</title>
<g id="a_Node000008"><a xlink:href="classcore_1_1socket_1_1State.html#ab07dc39fe7e79d46832a6ac89aa5e8ec" target="_top" xlink:title=" ">
<polygon fill="white" stroke="#666666" points="566.25,-149.88 460.25,-149.88 460.25,-116.38 566.25,-116.38 566.25,-149.88"/>
<text xml:space="preserve" text-anchor="start" x="468.25" y="-136.38" font-family="Helvetica,sans-Serif" font-size="10.00">core::socket::State</text>
<text xml:space="preserve" text-anchor="middle" x="513.25" y="-123.62" font-family="Helvetica,sans-Serif" font-size="10.00">::State</text>
</a>
</g>
</g>
<!-- Node7&#45;&gt;Node8 -->
<g id="edge7_Node000007_Node000008" class="edge">
<title>Node7&#45;&gt;Node8</title>
<g id="a_edge7_Node000007_Node000008"><a xlink:title=" ">
<path fill="none" stroke="#63b8ff" d="M356.28,-133.12C384.26,-133.12 418.93,-133.12 448.48,-133.12"/>
<polygon fill="#63b8ff" stroke="#63b8ff" points="448.43,-136.63 458.43,-133.13 448.43,-129.63 448.43,-136.63"/>
</a>
</g>
</g>
</g>
</svg>
