<?xml version="1.0" encoding="UTF-8" standalone="no"?>
<!DOCTYPE svg PUBLIC "-//W3C//DTD SVG 1.1//EN"
 "http://www.w3.org/Graphics/SVG/1.1/DTD/svg11.dtd">
<!-- Generated by graphviz version 2.43.0 (0)
 -->
<!-- Title: utils::ResetToDefault::ResetToDefault Pages: 1 -->
<svg width="824pt" height="316pt"
 viewBox="0.00 0.00 824.00 315.50" xmlns="http://www.w3.org/2000/svg" xmlns:xlink="http://www.w3.org/1999/xlink">
<g id="graph0" class="graph" transform="scale(1 1) rotate(0) translate(4 311.5)">
<title>utils::ResetToDefault::ResetToDefault</title>
<!-- Node1 -->
<g id="Node000001" class="node">
<title>Node1</title>
<g id="a_Node000001"><a xlink:title=" ">
<polygon fill="#999999" stroke="#666666" points="816,-139.5 698,-139.5 698,-109.5 816,-109.5 816,-139.5"/>
<text text-anchor="start" x="706" y="-127.5" font-family="Helvetica,sans-Serif" font-size="10.00">utils::ResetToDefault</text>
<text text-anchor="middle" x="757" y="-116.5" font-family="Helvetica,sans-Serif" font-size="10.00">::ResetToDefault</text>
</a>
</g>
</g>
<!-- Node2 -->
<g id="Node000002" class="node">
<title>Node2</title>
<g id="a_Node000002"><a xlink:href="classnet_1_1config_1_1ConfigSection.html#af26607e24749b8cb27217276dbe0ef74" target="_top" xlink:title=" ">
<polygon fill="white" stroke="#666666" points="659.5,-259.5 517.5,-259.5 517.5,-229.5 659.5,-229.5 659.5,-259.5"/>
<text text-anchor="start" x="525.5" y="-247.5" font-family="Helvetica,sans-Serif" font-size="10.00">net::config::ConfigSection</text>
<text text-anchor="middle" x="588.5" y="-236.5" font-family="Helvetica,sans-Serif" font-size="10.00">::add_flag</text>
</a>
</g>
</g>
<!-- Node1&#45;&gt;Node2 -->
<g id="edge1_Node000001_Node000002" class="edge">
<title>Node1&#45;&gt;Node2</title>
<g id="a_edge1_Node000001_Node000002"><a xlink:title=" ">
<path fill="none" stroke="#63b8ff" d="M738.69,-147.71C721.44,-169.34 693.1,-201.1 662,-220.5 656.6,-223.87 650.68,-226.82 644.62,-229.39"/>
<polygon fill="#63b8ff" stroke="#63b8ff" points="741.56,-149.72 744.95,-139.68 736.04,-145.42 741.56,-149.72"/>
</a>
</g>
</g>
<!-- Node5 -->
<g id="Node000005" class="node">
<title>Node5</title>
<g id="a_Node000005"><a xlink:href="classnet_1_1config_1_1ConfigSection.html#af9fa512ddc1f50a6fd1b354522012306" target="_top" xlink:title=" ">
<polygon fill="white" stroke="#666666" points="659.5,-211.5 517.5,-211.5 517.5,-181.5 659.5,-181.5 659.5,-211.5"/>
<text text-anchor="start" x="525.5" y="-199.5" font-family="Helvetica,sans-Serif" font-size="10.00">net::config::ConfigSection</text>
<text text-anchor="middle" x="588.5" y="-188.5" font-family="Helvetica,sans-Serif" font-size="10.00">::add_option</text>
</a>
</g>
</g>
<!-- Node1&#45;&gt;Node5 -->
<g id="edge4_Node000001_Node000005" class="edge">
<title>Node1&#45;&gt;Node5</title>
<g id="a_edge4_Node000001_Node000005"><a xlink:title=" ">
<path fill="none" stroke="#63b8ff" d="M719.82,-144.61C702.6,-153.75 681.54,-164.33 662,-172.5 654.54,-175.62 646.52,-178.61 638.62,-181.37"/>
<polygon fill="#63b8ff" stroke="#63b8ff" points="721.81,-147.51 728.96,-139.7 718.5,-141.35 721.81,-147.51"/>
</a>
</g>
</g>
<!-- Node9 -->
<g id="Node000009" class="node">
<title>Node9</title>
<g id="a_Node000009"><a xlink:href="classnet_1_1config_1_1ConfigPhysicalSocket.html#a08588ff20f8f18bae5de20b5d384bd0d" target="_top" xlink:title=" ">
<polygon fill="white" stroke="#666666" points="661.5,-163.5 515.5,-163.5 515.5,-133.5 661.5,-133.5 661.5,-163.5"/>
<text text-anchor="start" x="523.5" y="-151.5" font-family="Helvetica,sans-Serif" font-size="10.00">net::config::ConfigPhysical</text>
<text text-anchor="middle" x="588.5" y="-140.5" font-family="Helvetica,sans-Serif" font-size="10.00">Socket::add_socket_option</text>
</a>
</g>
</g>
<!-- Node1&#45;&gt;Node9 -->
<g id="edge8_Node000001_Node000009" class="edge">
<title>Node1&#45;&gt;Node9</title>
<g id="a_edge8_Node000001_Node000009"><a xlink:title=" ">
<path fill="none" stroke="#63b8ff" d="M687.81,-134.33C679.22,-135.57 670.41,-136.84 661.76,-138.08"/>
<polygon fill="#63b8ff" stroke="#63b8ff" points="688.37,-137.79 697.77,-132.89 687.37,-130.86 688.37,-137.79"/>
</a>
</g>
</g>
<!-- Node10 -->
<g id="Node000010" class="node">
<title>Node10</title>
<g id="a_Node000010"><a xlink:href="classutils_1_1Config.html#a48e7f8ae23aafd44e164f62afa6675ed" target="_top" xlink:title=" ">
<polygon fill="white" stroke="#666666" points="638,-115.5 539,-115.5 539,-85.5 638,-85.5 638,-115.5"/>
<text text-anchor="start" x="547" y="-103.5" font-family="Helvetica,sans-Serif" font-size="10.00">utils::Config::add</text>
<text text-anchor="middle" x="588.5" y="-92.5" font-family="Helvetica,sans-Serif" font-size="10.00">_string_option</text>
</a>
</g>
</g>
<!-- Node1&#45;&gt;Node10 -->
<g id="edge9_Node000001_Node000010" class="edge">
<title>Node1&#45;&gt;Node10</title>
<g id="a_edge9_Node000001_Node000010"><a xlink:title=" ">
<path fill="none" stroke="#63b8ff" d="M687.55,-114.63C670.95,-112.24 653.52,-109.73 638.05,-107.5"/>
<polygon fill="#63b8ff" stroke="#63b8ff" points="687.37,-118.14 697.77,-116.11 688.37,-111.21 687.37,-118.14"/>
</a>
</g>
</g>
<!-- Node16 -->
<g id="Node000016" class="node">
<title>Node16</title>
<g id="a_Node000016"><a xlink:href="classnet_1_1config_1_1ConfigInstance.html#a61780f56ff159b9f0892d8cb58c10bca" target="_top" xlink:title=" ">
<polygon fill="white" stroke="#666666" points="662,-67.5 515,-67.5 515,-37.5 662,-37.5 662,-67.5"/>
<text text-anchor="start" x="523" y="-55.5" font-family="Helvetica,sans-Serif" font-size="10.00">net::config::ConfigInstance</text>
<text text-anchor="middle" x="588.5" y="-44.5" font-family="Helvetica,sans-Serif" font-size="10.00">::ConfigInstance</text>
</a>
</g>
</g>
<!-- Node1&#45;&gt;Node16 -->
<g id="edge15_Node000001_Node000016" class="edge">
<title>Node1&#45;&gt;Node16</title>
<g id="a_edge15_Node000001_Node000016"><a xlink:title=" ">
<path fill="none" stroke="#63b8ff" d="M719.82,-104.39C702.6,-95.25 681.54,-84.67 662,-76.5 654.54,-73.38 646.52,-70.39 638.62,-67.63"/>
<polygon fill="#63b8ff" stroke="#63b8ff" points="718.5,-107.65 728.96,-109.3 721.81,-101.49 718.5,-107.65"/>
</a>
</g>
</g>
<!-- Node17 -->
<g id="Node000017" class="node">
<title>Node17</title>
<g id="a_Node000017"><a xlink:href="classutils_1_1Config.html#a8f7a5bd81078ac7228f762345677e4f1" target="_top" xlink:title=" ">
<polygon fill="white" stroke="#666666" points="637,-19 540,-19 540,0 637,0 637,-19"/>
<text text-anchor="middle" x="588.5" y="-7" font-family="Helvetica,sans-Serif" font-size="10.00">utils::Config::init</text>
</a>
</g>
</g>
<!-- Node1&#45;&gt;Node17 -->
<g id="edge16_Node000001_Node000017" class="edge">
<title>Node1&#45;&gt;Node17</title>
<g id="a_edge16_Node000001_Node000017"><a xlink:title=" ">
<path fill="none" stroke="#63b8ff" d="M739.24,-101.21C722.22,-79.25 693.88,-47.01 662,-28.5 654.46,-24.12 645.9,-20.73 637.37,-18.12"/>
<polygon fill="#63b8ff" stroke="#63b8ff" points="736.58,-103.5 745.4,-109.36 742.16,-99.27 736.58,-103.5"/>
</a>
</g>
</g>
<!-- Node3 -->
<g id="Node000003" class="node">
<title>Node3</title>
<g id="a_Node000003"><a xlink:href="classnet_1_1config_1_1ConfigSection.html#a50bdc014ba2f32815a42f3da1c48668f" target="_top" xlink:title=" ">
<polygon fill="white" stroke="#666666" points="479,-307.5 337,-307.5 337,-277.5 479,-277.5 479,-307.5"/>
<text text-anchor="start" x="345" y="-295.5" font-family="Helvetica,sans-Serif" font-size="10.00">net::config::ConfigSection</text>
<text text-anchor="middle" x="408" y="-284.5" font-family="Helvetica,sans-Serif" font-size="10.00">::add_flag</text>
</a>
</g>
</g>
<!-- Node2&#45;&gt;Node3 -->
<g id="edge2_Node000002_Node000003" class="edge">
<title>Node2&#45;&gt;Node3</title>
<g id="a_edge2_Node000002_Node000003"><a xlink:title=" ">
<path fill="none" stroke="#63b8ff" d="M521.61,-262.22C502.94,-267.24 482.8,-272.65 464.79,-277.5"/>
<polygon fill="#63b8ff" stroke="#63b8ff" points="522.76,-265.53 531.51,-259.56 520.95,-258.77 522.76,-265.53"/>
</a>
</g>
</g>
<!-- Node4 -->
<g id="Node000004" class="node">
<title>Node4</title>
<g id="a_Node000004"><a xlink:href="classnet_1_1config_1_1ConfigSection.html#a3f8ff3bf5547565fd4239c75dc10597c" target="_top" xlink:title=" ">
<polygon fill="white" stroke="#666666" points="479,-259.5 337,-259.5 337,-229.5 479,-229.5 479,-259.5"/>
<text text-anchor="start" x="345" y="-247.5" font-family="Helvetica,sans-Serif" font-size="10.00">net::config::ConfigSection</text>
<text text-anchor="middle" x="408" y="-236.5" font-family="Helvetica,sans-Serif" font-size="10.00">::add_flag</text>
</a>
</g>
</g>
<!-- Node2&#45;&gt;Node4 -->
<g id="edge3_Node000002_Node000004" class="edge">
<title>Node2&#45;&gt;Node4</title>
<g id="a_edge3_Node000002_Node000004"><a xlink:title=" ">
<path fill="none" stroke="#63b8ff" d="M507.33,-244.5C497.92,-244.5 488.38,-244.5 479.13,-244.5"/>
<polygon fill="#63b8ff" stroke="#63b8ff" points="507.46,-248 517.46,-244.5 507.46,-241 507.46,-248"/>
</a>
</g>
</g>
<!-- Node6 -->
<g id="Node000006" class="node">
<title>Node6</title>
<g id="a_Node000006"><a xlink:href="classnet_1_1config_1_1ConfigSection.html#afdedf755cb4937efd181df861b61b315" target="_top" xlink:title=" ">
<polygon fill="white" stroke="#666666" points="479,-211.5 337,-211.5 337,-181.5 479,-181.5 479,-211.5"/>
<text text-anchor="start" x="345" y="-199.5" font-family="Helvetica,sans-Serif" font-size="10.00">net::config::ConfigSection</text>
<text text-anchor="middle" x="408" y="-188.5" font-family="Helvetica,sans-Serif" font-size="10.00">::add_option</text>
</a>
</g>
</g>
<!-- Node5&#45;&gt;Node6 -->
<g id="edge5_Node000005_Node000006" class="edge">
<title>Node5&#45;&gt;Node6</title>
<g id="a_edge5_Node000005_Node000006"><a xlink:title=" ">
<path fill="none" stroke="#63b8ff" d="M507.33,-196.5C497.92,-196.5 488.38,-196.5 479.13,-196.5"/>
<polygon fill="#63b8ff" stroke="#63b8ff" points="507.46,-200 517.46,-196.5 507.46,-193 507.46,-200"/>
</a>
</g>
</g>
<!-- Node7 -->
<g id="Node000007" class="node">
<title>Node7</title>
<g id="a_Node000007"><a xlink:href="classnet_1_1config_1_1ConfigSection.html#af416b42f106a4454047916b2031be710" target="_top" xlink:title=" ">
<polygon fill="white" stroke="#666666" points="301,-241.5 159,-241.5 159,-211.5 301,-211.5 301,-241.5"/>
<text text-anchor="start" x="167" y="-229.5" font-family="Helvetica,sans-Serif" font-size="10.00">net::config::ConfigSection</text>
<text text-anchor="middle" x="230" y="-218.5" font-family="Helvetica,sans-Serif" font-size="10.00">::add_option</text>
</a>
</g>
</g>
<!-- Node6&#45;&gt;Node7 -->
<g id="edge6_Node000006_Node000007" class="edge">
<title>Node6&#45;&gt;Node7</title>
<g id="a_edge6_Node000006_Node000007"><a xlink:title=" ">
<path fill="none" stroke="#63b8ff" d="M326.9,-210.15C318.29,-211.62 309.59,-213.1 301.11,-214.55"/>
<polygon fill="#63b8ff" stroke="#63b8ff" points="327.66,-213.57 336.93,-208.44 326.49,-206.67 327.66,-213.57"/>
</a>
</g>
</g>
<!-- Node8 -->
<g id="Node000008" class="node">
<title>Node8</title>
<g id="a_Node000008"><a xlink:href="classnet_1_1config_1_1ConfigSection.html#a015590e364e9789b85ffdf6c99b6ddef" target="_top" xlink:title=" ">
<polygon fill="white" stroke="#666666" points="301,-193.5 159,-193.5 159,-163.5 301,-163.5 301,-193.5"/>
<text text-anchor="start" x="167" y="-181.5" font-family="Helvetica,sans-Serif" font-size="10.00">net::config::ConfigSection</text>
<text text-anchor="middle" x="230" y="-170.5" font-family="Helvetica,sans-Serif" font-size="10.00">::add_option</text>
</a>
</g>
</g>
<!-- Node6&#45;&gt;Node8 -->
<g id="edge7_Node000006_Node000008" class="edge">
<title>Node6&#45;&gt;Node8</title>
<g id="a_edge7_Node000006_Node000008"><a xlink:title=" ">
<path fill="none" stroke="#63b8ff" d="M326.9,-188.31C318.29,-187.43 309.59,-186.54 301.11,-185.67"/>
<polygon fill="#63b8ff" stroke="#63b8ff" points="326.63,-191.8 336.93,-189.33 327.34,-184.83 326.63,-191.8"/>
</a>
</g>
</g>
<!-- Node11 -->
<g id="Node000011" class="node">
<title>Node11</title>
<g id="a_Node000011"><a xlink:href="classutils_1_1Config.html#a1c1d32f86a7995f725512a8b394894d7" target="_top" xlink:title=" ">
<polygon fill="white" stroke="#666666" points="457.5,-139.5 358.5,-139.5 358.5,-109.5 457.5,-109.5 457.5,-139.5"/>
<text text-anchor="start" x="366.5" y="-127.5" font-family="Helvetica,sans-Serif" font-size="10.00">utils::Config::add</text>
<text text-anchor="middle" x="408" y="-116.5" font-family="Helvetica,sans-Serif" font-size="10.00">_string_option</text>
</a>
</g>
</g>
<!-- Node10&#45;&gt;Node11 -->
<g id="edge10_Node000010_Node000011" class="edge">
<title>Node10&#45;&gt;Node11</title>
<g id="a_edge10_Node000010_Node000011"><a xlink:title=" ">
<path fill="none" stroke="#63b8ff" d="M528.74,-108.4C505.73,-111.49 479.65,-115 457.72,-117.95"/>
<polygon fill="#63b8ff" stroke="#63b8ff" points="529.28,-111.86 538.72,-107.06 528.35,-104.92 529.28,-111.86"/>
</a>
</g>
</g>
<!-- Node12 -->
<g id="Node000012" class="node">
<title>Node12</title>
<g id="a_Node000012"><a xlink:href="classutils_1_1Config.html#a6abe7bdf3cb4629fdf09561b07f679ad" target="_top" xlink:title=" ">
<polygon fill="white" stroke="#666666" points="457.5,-91.5 358.5,-91.5 358.5,-61.5 457.5,-61.5 457.5,-91.5"/>
<text text-anchor="start" x="366.5" y="-79.5" font-family="Helvetica,sans-Serif" font-size="10.00">utils::Config::add</text>
<text text-anchor="middle" x="408" y="-68.5" font-family="Helvetica,sans-Serif" font-size="10.00">_string_option</text>
</a>
</g>
</g>
<!-- Node10&#45;&gt;Node12 -->
<g id="edge11_Node000010_Node000012" class="edge">
<title>Node10&#45;&gt;Node12</title>
<g id="a_edge11_Node000010_Node000012"><a xlink:title=" ">
<path fill="none" stroke="#63b8ff" d="M528.74,-92.6C505.73,-89.51 479.65,-86 457.72,-83.05"/>
<polygon fill="#63b8ff" stroke="#63b8ff" points="528.35,-96.08 538.72,-93.94 529.28,-89.14 528.35,-96.08"/>
</a>
</g>
</g>
<!-- Node13 -->
<g id="Node000013" class="node">
<title>Node13</title>
<g id="a_Node000013"><a xlink:href="classutils_1_1Config.html#ae2aa7ad3a339e84cbd0fb0ec19de12ce" target="_top" xlink:title=" ">
<polygon fill="white" stroke="#666666" points="279.5,-127.5 180.5,-127.5 180.5,-97.5 279.5,-97.5 279.5,-127.5"/>
<text text-anchor="start" x="188.5" y="-115.5" font-family="Helvetica,sans-Serif" font-size="10.00">utils::Config::add</text>
<text text-anchor="middle" x="230" y="-104.5" font-family="Helvetica,sans-Serif" font-size="10.00">_string_option</text>
</a>
</g>
</g>
<!-- Node12&#45;&gt;Node13 -->
<g id="edge12_Node000012_Node000013" class="edge">
<title>Node12&#45;&gt;Node13</title>
<g id="a_edge12_Node000012_Node000013"><a xlink:title=" ">
<path fill="none" stroke="#63b8ff" d="M348.42,-88.48C326.13,-93.04 300.99,-98.18 279.71,-102.54"/>
<polygon fill="#63b8ff" stroke="#63b8ff" points="349.35,-91.87 358.44,-86.43 347.94,-85.01 349.35,-91.87"/>
</a>
</g>
</g>
<!-- Node14 -->
<g id="Node000014" class="node">
<title>Node14</title>
<g id="a_Node000014"><a xlink:href="classutils_1_1Config.html#a7fcdf7815e94678867034eb14dedea9b" target="_top" xlink:title=" ">
<polygon fill="white" stroke="#666666" points="279.5,-79.5 180.5,-79.5 180.5,-49.5 279.5,-49.5 279.5,-79.5"/>
<text text-anchor="start" x="188.5" y="-67.5" font-family="Helvetica,sans-Serif" font-size="10.00">utils::Config::add</text>
<text text-anchor="middle" x="230" y="-56.5" font-family="Helvetica,sans-Serif" font-size="10.00">_string_option</text>
</a>
</g>
</g>
<!-- Node12&#45;&gt;Node14 -->
<g id="edge13_Node000012_Node000014" class="edge">
<title>Node12&#45;&gt;Node14</title>
<g id="a_edge13_Node000012_Node000014"><a xlink:title=" ">
<path fill="none" stroke="#63b8ff" d="M348.42,-72.51C326.13,-70.99 300.99,-69.27 279.71,-67.82"/>
<polygon fill="#63b8ff" stroke="#63b8ff" points="348.23,-76 358.44,-73.19 348.7,-69.02 348.23,-76"/>
</a>
</g>
</g>
<!-- Node15 -->
<g id="Node000015" class="node">
<title>Node15</title>
<g id="a_Node000015"><a xlink:href="classutils_1_1Config.html#aa3cbd8dd27216553abe8fca35a4f7f8f" target="_top" xlink:title=" ">
<polygon fill="white" stroke="#666666" points="111,-79.5 12,-79.5 12,-49.5 111,-49.5 111,-79.5"/>
<text text-anchor="start" x="20" y="-67.5" font-family="Helvetica,sans-Serif" font-size="10.00">utils::Config::add</text>
<text text-anchor="middle" x="61.5" y="-56.5" font-family="Helvetica,sans-Serif" font-size="10.00">_string_option</text>
</a>
</g>
</g>
<!-- Node14&#45;&gt;Node15 -->
<g id="edge14_Node000014_Node000015" class="edge">
<title>Node14&#45;&gt;Node15</title>
<g id="a_edge14_Node000014_Node000015"><a xlink:title=" ">
<path fill="none" stroke="#63b8ff" d="M170.19,-64.5C150.88,-64.5 129.64,-64.5 111.17,-64.5"/>
<polygon fill="#63b8ff" stroke="#63b8ff" points="170.39,-68 180.39,-64.5 170.39,-61 170.39,-68"/>
</a>
</g>
</g>
<!-- Node18 -->
<g id="Node000018" class="node">
<title>Node18</title>
<g id="a_Node000018"><a xlink:href="classcore_1_1EventLoop.html#add5491dc1f6a70714ce62f80db91098e" target="_top" xlink:title=" ">
<polygon fill="white" stroke="#666666" points="466,-19 350,-19 350,0 466,0 466,-19"/>
<text text-anchor="middle" x="408" y="-7" font-family="Helvetica,sans-Serif" font-size="10.00">core::EventLoop::init</text>
</a>
</g>
</g>
<!-- Node17&#45;&gt;Node18 -->
<g id="edge17_Node000017_Node000018" class="edge">
<title>Node17&#45;&gt;Node18</title>
<g id="a_edge17_Node000017_Node000018"><a xlink:title=" ">
<path fill="none" stroke="#63b8ff" d="M529.6,-9.5C509.27,-9.5 486.45,-9.5 466.18,-9.5"/>
<polygon fill="#63b8ff" stroke="#63b8ff" points="529.67,-13 539.67,-9.5 529.67,-6 529.67,-13"/>
</a>
</g>
</g>
<!-- Node19 -->
<g id="Node000019" class="node">
<title>Node19</title>
<g id="a_Node000019"><a xlink:href="classcore_1_1SNodeC.html#a2c8b01c5fc6ecc3036cb48a76f76f3b5" target="_top" xlink:title=" ">
<polygon fill="white" stroke="#666666" points="282,-19 178,-19 178,0 282,0 282,-19"/>
<text text-anchor="middle" x="230" y="-7" font-family="Helvetica,sans-Serif" font-size="10.00">core::SNodeC::init</text>
</a>
</g>
</g>
<!-- Node18&#45;&gt;Node19 -->
<g id="edge18_Node000018_Node000019" class="edge">
<title>Node18&#45;&gt;Node19</title>
<g id="a_edge18_Node000018_Node000019"><a xlink:title=" ">
<path fill="none" stroke="#63b8ff" d="M339.72,-9.5C320.64,-9.5 300.18,-9.5 282.21,-9.5"/>
<polygon fill="#63b8ff" stroke="#63b8ff" points="339.86,-13 349.86,-9.5 339.86,-6 339.86,-13"/>
</a>
</g>
</g>
<!-- Node20 -->
<g id="Node000020" class="node">
<title>Node20</title>
<g id="a_Node000020"><a xlink:href="classexpress_1_1WebApp.html#a0a01439a0cc8dfc86ed14f1094826b7e" target="_top" xlink:title=" ">
<polygon fill="white" stroke="#666666" points="123,-19 0,-19 0,0 123,0 123,-19"/>
<text text-anchor="middle" x="61.5" y="-7" font-family="Helvetica,sans-Serif" font-size="10.00">express::WebApp::init</text>
</a>
</g>
</g>
<!-- Node19&#45;&gt;Node20 -->
<g id="edge19_Node000019_Node000020" class="edge">
<title>Node19&#45;&gt;Node20</title>
<g id="a_edge19_Node000019_Node000020"><a xlink:title=" ">
<path fill="none" stroke="#63b8ff" d="M167.39,-9.5C152.99,-9.5 137.66,-9.5 123.29,-9.5"/>
<polygon fill="#63b8ff" stroke="#63b8ff" points="167.69,-13 177.69,-9.5 167.69,-6 167.69,-13"/>
</a>
</g>
</g>
</g>
</svg>
