<?xml version="1.0" encoding="UTF-8" standalone="no"?>
<!DOCTYPE svg PUBLIC "-//W3C//DTD SVG 1.1//EN"
 "http://www.w3.org/Graphics/SVG/1.1/DTD/svg11.dtd">
<!-- Generated by graphviz version 2.42.4 (0)
 -->
<!-- Title: net::SocketAddress::SocketAddress Pages: 1 -->
<svg width="509pt" height="278pt"
 viewBox="0.00 0.00 509.00 278.00" xmlns="http://www.w3.org/2000/svg" xmlns:xlink="http://www.w3.org/1999/xlink">
<g id="graph0" class="graph" transform="scale(1 1) rotate(0) translate(4 274)">
<title>net::SocketAddress::SocketAddress</title>
<!-- Node1 -->
<g id="Node000001" class="node">
<title>Node1</title>
<g id="a_Node000001"><a xlink:title=" ">
<polygon fill="#999999" stroke="#666666" points="501,-174 391,-174 391,-144 501,-144 501,-174"/>
<text text-anchor="start" x="399" y="-162" font-family="Helvetica,sans-Serif" font-size="10.00">net::SocketAddress</text>
<text text-anchor="middle" x="446" y="-151" font-family="Helvetica,sans-Serif" font-size="10.00">::SocketAddress</text>
</a>
</g>
</g>
<!-- Node2 -->
<g id="Node000002" class="node">
<title>Node2</title>
<g id="a_Node000002"><a xlink:href="classnet_1_1l2_1_1SocketAddress.html#a7a8e8a3044a992ac356af6738fd5ce91" target="_top" xlink:title=" ">
<polygon fill="white" stroke="#666666" points="352,-270 227,-270 227,-240 352,-240 352,-270"/>
<text text-anchor="start" x="235" y="-258" font-family="Helvetica,sans-Serif" font-size="10.00">net::l2::SocketAddress</text>
<text text-anchor="middle" x="289.5" y="-247" font-family="Helvetica,sans-Serif" font-size="10.00">::SocketAddress</text>
</a>
</g>
</g>
<!-- Node1&#45;&gt;Node2 -->
<g id="edge1_Node000001_Node000002" class="edge">
<title>Node1&#45;&gt;Node2</title>
<g id="a_edge1_Node000001_Node000002"><a xlink:title=" ">
<path fill="none" stroke="#63b8ff" d="M421.82,-181C404.48,-196.56 379.61,-217.06 355,-231 349.18,-234.3 342.82,-237.3 336.43,-239.98"/>
<polygon fill="#63b8ff" stroke="#63b8ff" points="424.2,-183.56 429.23,-174.24 419.49,-178.39 424.2,-183.56"/>
</a>
</g>
</g>
<!-- Node3 -->
<g id="Node000003" class="node">
<title>Node3</title>
<g id="a_Node000003"><a xlink:href="classnet_1_1rc_1_1SocketAddress.html#abaf19a0ba47c1eb62b7542e1a40b684d" target="_top" xlink:title=" ">
<polygon fill="white" stroke="#666666" points="352,-222 227,-222 227,-192 352,-192 352,-222"/>
<text text-anchor="start" x="235" y="-210" font-family="Helvetica,sans-Serif" font-size="10.00">net::rc::SocketAddress</text>
<text text-anchor="middle" x="289.5" y="-199" font-family="Helvetica,sans-Serif" font-size="10.00">::SocketAddress</text>
</a>
</g>
</g>
<!-- Node1&#45;&gt;Node3 -->
<g id="edge2_Node000001_Node000003" class="edge">
<title>Node1&#45;&gt;Node3</title>
<g id="a_edge2_Node000001_Node000003"><a xlink:title=" ">
<path fill="none" stroke="#63b8ff" d="M386.85,-177.07C371.01,-181.99 354.02,-187.27 338.79,-192"/>
<polygon fill="#63b8ff" stroke="#63b8ff" points="388.03,-180.37 396.54,-174.06 385.95,-173.68 388.03,-180.37"/>
</a>
</g>
</g>
<!-- Node4 -->
<g id="Node000004" class="node">
<title>Node4</title>
<g id="a_Node000004"><a xlink:href="classnet_1_1un_1_1SocketAddress.html#ae93ecf7d0a3bd0b0a038e7349cb5b329" target="_top" xlink:title=" ">
<polygon fill="white" stroke="#666666" points="353.5,-174 225.5,-174 225.5,-144 353.5,-144 353.5,-174"/>
<text text-anchor="start" x="233.5" y="-162" font-family="Helvetica,sans-Serif" font-size="10.00">net::un::SocketAddress</text>
<text text-anchor="middle" x="289.5" y="-151" font-family="Helvetica,sans-Serif" font-size="10.00">::SocketAddress</text>
</a>
</g>
</g>
<!-- Node1&#45;&gt;Node4 -->
<g id="edge3_Node000001_Node000004" class="edge">
<title>Node1&#45;&gt;Node4</title>
<g id="a_edge3_Node000001_Node000004"><a xlink:title=" ">
<path fill="none" stroke="#63b8ff" d="M380.88,-159C371.83,-159 362.54,-159 353.51,-159"/>
<polygon fill="#63b8ff" stroke="#63b8ff" points="380.96,-162.5 390.96,-159 380.96,-155.5 380.96,-162.5"/>
</a>
</g>
</g>
<!-- Node5 -->
<g id="Node000005" class="node">
<title>Node5</title>
<g id="a_Node000005"><a xlink:href="classnet_1_1in_1_1SocketAddress.html#a9baecfd0d2c08553586614eb8c075869" target="_top" xlink:title=" ">
<polygon fill="white" stroke="#666666" points="352,-126 227,-126 227,-96 352,-96 352,-126"/>
<text text-anchor="start" x="235" y="-114" font-family="Helvetica,sans-Serif" font-size="10.00">net::in::SocketAddress</text>
<text text-anchor="middle" x="289.5" y="-103" font-family="Helvetica,sans-Serif" font-size="10.00">::SocketAddress</text>
</a>
</g>
</g>
<!-- Node1&#45;&gt;Node5 -->
<g id="edge4_Node000001_Node000005" class="edge">
<title>Node1&#45;&gt;Node5</title>
<g id="a_edge4_Node000001_Node000005"><a xlink:title=" ">
<path fill="none" stroke="#63b8ff" d="M386.85,-140.93C371.01,-136.01 354.02,-130.73 338.79,-126"/>
<polygon fill="#63b8ff" stroke="#63b8ff" points="385.95,-144.32 396.54,-143.94 388.03,-137.63 385.95,-144.32"/>
</a>
</g>
</g>
<!-- Node8 -->
<g id="Node000008" class="node">
<title>Node8</title>
<g id="a_Node000008"><a xlink:href="classnet_1_1in6_1_1SocketAddress.html#ab6e68fb9bcad3ebbd175105a71e3686a" target="_top" xlink:title=" ">
<polygon fill="white" stroke="#666666" points="355,-78 224,-78 224,-48 355,-48 355,-78"/>
<text text-anchor="start" x="232" y="-66" font-family="Helvetica,sans-Serif" font-size="10.00">net::in6::SocketAddress</text>
<text text-anchor="middle" x="289.5" y="-55" font-family="Helvetica,sans-Serif" font-size="10.00">::SocketAddress</text>
</a>
</g>
</g>
<!-- Node1&#45;&gt;Node8 -->
<g id="edge7_Node000001_Node000008" class="edge">
<title>Node1&#45;&gt;Node8</title>
<g id="a_edge7_Node000001_Node000008"><a xlink:title=" ">
<path fill="none" stroke="#63b8ff" d="M421.82,-137C404.48,-121.44 379.61,-100.94 355,-87 349.18,-83.7 342.82,-80.7 336.43,-78.02"/>
<polygon fill="#63b8ff" stroke="#63b8ff" points="419.49,-139.61 429.23,-143.76 424.2,-134.44 419.49,-139.61"/>
</a>
</g>
</g>
<!-- Node6 -->
<g id="Node000006" class="node">
<title>Node6</title>
<g id="a_Node000006"><a xlink:href="classnet_1_1in_1_1config_1_1ConfigAddressReverse.html#af1c28b16845df8cd864583a750a541a6" target="_top" xlink:title=" ">
<polygon fill="white" stroke="#666666" points="174,-174 14,-174 14,-144 174,-144 174,-174"/>
<text text-anchor="start" x="22" y="-162" font-family="Helvetica,sans-Serif" font-size="10.00">net::in::config::ConfigAddress</text>
<text text-anchor="middle" x="94" y="-151" font-family="Helvetica,sans-Serif" font-size="10.00">Reverse::getSocketAddress</text>
</a>
</g>
</g>
<!-- Node5&#45;&gt;Node6 -->
<g id="edge5_Node000005_Node000006" class="edge">
<title>Node5&#45;&gt;Node6</title>
<g id="a_edge5_Node000005_Node000006"><a xlink:title=" ">
<path fill="none" stroke="#63b8ff" d="M217.91,-128.51C197.44,-133.59 175.27,-139.09 155.48,-144"/>
<polygon fill="#63b8ff" stroke="#63b8ff" points="218.94,-131.86 227.81,-126.06 217.26,-125.07 218.94,-131.86"/>
</a>
</g>
</g>
<!-- Node7 -->
<g id="Node000007" class="node">
<title>Node7</title>
<g id="a_Node000007"><a xlink:href="classnet_1_1in_1_1config_1_1ConfigAddress.html#a0b6f0dbfa292f2530b9b1f2ef86dc306" target="_top" xlink:title=" ">
<polygon fill="white" stroke="#666666" points="174,-126 14,-126 14,-96 174,-96 174,-126"/>
<text text-anchor="start" x="22" y="-114" font-family="Helvetica,sans-Serif" font-size="10.00">net::in::config::ConfigAddress</text>
<text text-anchor="middle" x="94" y="-103" font-family="Helvetica,sans-Serif" font-size="10.00">::getSocketAddress</text>
</a>
</g>
</g>
<!-- Node5&#45;&gt;Node7 -->
<g id="edge6_Node000005_Node000007" class="edge">
<title>Node5&#45;&gt;Node7</title>
<g id="a_edge6_Node000005_Node000007"><a xlink:title=" ">
<path fill="none" stroke="#63b8ff" d="M216.39,-111C202.64,-111 188.18,-111 174.22,-111"/>
<polygon fill="#63b8ff" stroke="#63b8ff" points="216.74,-114.5 226.74,-111 216.74,-107.5 216.74,-114.5"/>
</a>
</g>
</g>
<!-- Node9 -->
<g id="Node000009" class="node">
<title>Node9</title>
<g id="a_Node000009"><a xlink:href="classnet_1_1in6_1_1config_1_1ConfigAddressReverse.html#ab91a6b9ee645823229f5bb0c8f337055" target="_top" xlink:title=" ">
<polygon fill="white" stroke="#666666" points="188,-78 0,-78 0,-48 188,-48 188,-78"/>
<text text-anchor="start" x="8" y="-66" font-family="Helvetica,sans-Serif" font-size="10.00">net::in6::config::Config</text>
<text text-anchor="middle" x="94" y="-55" font-family="Helvetica,sans-Serif" font-size="10.00">AddressReverse::getSocketAddress</text>
</a>
</g>
</g>
<!-- Node8&#45;&gt;Node9 -->
<g id="edge8_Node000008_Node000009" class="edge">
<title>Node8&#45;&gt;Node9</title>
<g id="a_edge8_Node000008_Node000009"><a xlink:title=" ">
<path fill="none" stroke="#63b8ff" d="M213.74,-63C205.38,-63 196.8,-63 188.25,-63"/>
<polygon fill="#63b8ff" stroke="#63b8ff" points="213.8,-66.5 223.8,-63 213.8,-59.5 213.8,-66.5"/>
</a>
</g>
</g>
<!-- Node10 -->
<g id="Node000010" class="node">
<title>Node10</title>
<g id="a_Node000010"><a xlink:href="classnet_1_1in6_1_1config_1_1ConfigAddress.html#a612d98b77cfd73f5cd3ef0805fb94020" target="_top" xlink:title=" ">
<polygon fill="white" stroke="#666666" points="168.5,-30 19.5,-30 19.5,0 168.5,0 168.5,-30"/>
<text text-anchor="start" x="27.5" y="-18" font-family="Helvetica,sans-Serif" font-size="10.00">net::in6::config::Config</text>
<text text-anchor="middle" x="94" y="-7" font-family="Helvetica,sans-Serif" font-size="10.00">Address::getSocketAddress</text>
</a>
</g>
</g>
<!-- Node8&#45;&gt;Node10 -->
<g id="edge9_Node000008_Node000010" class="edge">
<title>Node8&#45;&gt;Node10</title>
<g id="a_edge9_Node000008_Node000010"><a xlink:title=" ">
<path fill="none" stroke="#63b8ff" d="M217.91,-45.49C197.44,-40.41 175.27,-34.91 155.48,-30"/>
<polygon fill="#63b8ff" stroke="#63b8ff" points="217.26,-48.93 227.81,-47.94 218.94,-42.14 217.26,-48.93"/>
</a>
</g>
</g>
</g>
</svg>
