<?xml version="1.0" encoding="UTF-8" standalone="no"?>
<!DOCTYPE svg PUBLIC "-//W3C//DTD SVG 1.1//EN"
 "http://www.w3.org/Graphics/SVG/1.1/DTD/svg11.dtd">
<!-- Generated by graphviz version 14.1.2 (0)
 -->
<!-- Title: express::dispatcher::MiddlewareDispatcher Pages: 1 -->
<svg width="132pt" height="98pt"
 viewBox="0.00 0.00 132.00 98.00" xmlns="http://www.w3.org/2000/svg" xmlns:xlink="http://www.w3.org/1999/xlink">
<g id="graph0" class="graph" transform="scale(1 1) rotate(0) translate(4 94.25)">
<title>express::dispatcher::MiddlewareDispatcher</title>
<!-- Node1 -->
<g id="Node000001" class="node">
<title>Node1</title>
<g id="a_Node000001"><a xlink:title=" ">
<polygon fill="#999999" stroke="none" points="123.5,-33.5 0,-33.5 0,0 123.5,0 123.5,-33.5"/>
<text xml:space="preserve" text-anchor="start" x="4" y="-20" font-family="Helvetica,sans-Serif" font-size="10.00">express::dispatcher</text>
<text xml:space="preserve" text-anchor="start" x="4" y="-7.25" font-family="Helvetica,sans-Serif" font-size="10.00">::MiddlewareDispatcher</text>
<polygon fill="none" stroke="#666666" points="0,0 0,-33.5 123.5,-33.5 123.5,0 0,0"/>
</a>
</g>
</g>
<!-- Node2 -->
<g id="Node000002" class="node">
<title>Node2</title>
<g id="a_Node000002"><a xlink:href="classexpress_1_1Dispatcher.html" target="_top" xlink:title=" ">
<polygon fill="white" stroke="none" points="114.12,-90.25 9.38,-90.25 9.38,-69.5 114.12,-69.5 114.12,-90.25"/>
<text xml:space="preserve" text-anchor="start" x="13.38" y="-76.75" font-family="Helvetica,sans-Serif" font-size="10.00">express::Dispatcher</text>
<polygon fill="none" stroke="#666666" points="9.38,-69.5 9.38,-90.25 114.12,-90.25 114.12,-69.5 9.38,-69.5"/>
</a>
</g>
</g>
<!-- Node2&#45;&gt;Node1 -->
<g id="edge1_Node000001_Node000002" class="edge">
<title>Node2&#45;&gt;Node1</title>
<g id="a_edge1_Node000001_Node000002"><a xlink:title=" ">
<path fill="none" stroke="#63b8ff" d="M61.75,-58.36C61.75,-50.18 61.75,-40.92 61.75,-33.31"/>
<polygon fill="none" stroke="#63b8ff" points="58.25,-58.08 61.75,-68.08 65.25,-58.08 58.25,-58.08"/>
</a>
</g>
</g>
</g>
</svg>
