<?xml version="1.0" encoding="UTF-8" standalone="no"?>
<!DOCTYPE svg PUBLIC "-//W3C//DTD SVG 1.1//EN"
 "http://www.w3.org/Graphics/SVG/1.1/DTD/svg11.dtd">
<!-- Generated by graphviz version 2.43.0 (0)
 -->
<!-- Title: web::websocket::SubProtocol&lt; SocketContextUpgradeT &gt; Pages: 1 -->
<svg width="1183pt" height="740pt"
 viewBox="0.00 0.00 1183.00 740.00" xmlns="http://www.w3.org/2000/svg" xmlns:xlink="http://www.w3.org/1999/xlink">
<g id="graph0" class="graph" transform="scale(1 1) rotate(0) translate(4 736)">
<title>web::websocket::SubProtocol&lt; SocketContextUpgradeT &gt;</title>
<!-- Node1 -->
<g id="Node000001" class="node">
<title>Node1</title>
<g id="a_Node000001"><a xlink:title=" ">
<polygon fill="#999999" stroke="transparent" points="1096,-173 956,-173 956,-143 1096,-143 1096,-173"/>
<text text-anchor="start" x="960.5" y="-161" font-family="Helvetica,sans-Serif" font-size="10.00">web::websocket::SubProtocol</text>
<text text-anchor="start" x="962.5" y="-150" font-family="Helvetica,sans-Serif" font-size="10.00">&lt; SocketContextUpgradeT &gt;</text>
<polygon fill="none" stroke="#666666" points="956,-143 956,-173 1096,-173 1096,-143 956,-143"/>
</a>
</g>
</g>
<!-- Node2 -->
<g id="Node000002" class="node">
<title>Node2</title>
<g id="a_Node000002"><a xlink:title=" ">
<polygon fill="white" stroke="transparent" points="363,-665 311,-665 311,-646 363,-646 363,-665"/>
<text text-anchor="start" x="315" y="-652.5" font-family="Helvetica,sans-Serif" font-size="10.00">std::string</text>
<polygon fill="none" stroke="#666666" points="311,-646 311,-665 363,-665 363,-646 311,-646"/>
</a>
</g>
</g>
<!-- Node2&#45;&gt;Node1 -->
<g id="edge1_Node000001_Node000002" class="edge">
<title>Node2&#45;&gt;Node1</title>
<g id="a_edge1_Node000001_Node000002"><a xlink:title=" ">
<path fill="none" stroke="#63b8ff" d="M363.39,-653.82C502.47,-650.07 1144,-630.6 1144,-590.5 1144,-590.5 1144,-590.5 1144,-239.5 1144,-216.35 1141.86,-206.87 1125,-191 1119.73,-186.04 1113.69,-181.85 1107.25,-178.31"/>
<polygon fill="none" stroke="#63b8ff" points="1106.9,-178.15 1099.76,-179.15 1096.09,-172.95 1103.23,-171.94 1106.9,-178.15"/>
</a>
</g>
<text text-anchor="middle" x="1159.5" y="-427.5" font-family="Helvetica,sans-Serif" font-size="10.00" fill="grey"> &#45;name</text>
</g>
<!-- Node12 -->
<g id="Node000012" class="node">
<title>Node12</title>
<g id="a_Node000012"><a xlink:href="classcore_1_1Event.html" target="_top" xlink:title=" ">
<polygon fill="white" stroke="transparent" points="367,-599 307,-599 307,-580 367,-580 367,-599"/>
<text text-anchor="start" x="311.5" y="-586.5" font-family="Helvetica,sans-Serif" font-size="10.00">core::Event</text>
<polygon fill="none" stroke="#666666" points="307,-580 307,-599 367,-599 367,-580 307,-580"/>
</a>
</g>
</g>
<!-- Node2&#45;&gt;Node12 -->
<g id="edge12_Node000012_Node000002" class="edge">
<title>Node2&#45;&gt;Node12</title>
<g id="a_edge12_Node000012_Node000002"><a xlink:title=" ">
<path fill="none" stroke="#63b8ff" d="M337,-645.87C337,-637.14 337,-623.31 337,-611.65"/>
<polygon fill="none" stroke="#63b8ff" points="337,-611.41 333,-605.41 337,-599.41 341,-605.41 337,-611.41"/>
</a>
</g>
<text text-anchor="middle" x="352.5" y="-620" font-family="Helvetica,sans-Serif" font-size="10.00" fill="grey"> &#45;name</text>
</g>
<!-- Node15 -->
<g id="Node000015" class="node">
<title>Node15</title>
<g id="a_Node000015"><a xlink:href="classcore_1_1DescriptorEventPublisher.html" target="_top" xlink:title=" ">
<polygon fill="white" stroke="transparent" points="179,-167.5 35,-167.5 35,-148.5 179,-148.5 179,-167.5"/>
<text text-anchor="start" x="39" y="-155" font-family="Helvetica,sans-Serif" font-size="10.00">core::DescriptorEventPublisher</text>
<polygon fill="none" stroke="#666666" points="35,-148.5 35,-167.5 179,-167.5 179,-148.5 35,-148.5"/>
</a>
</g>
</g>
<!-- Node2&#45;&gt;Node15 -->
<g id="edge24_Node000015_Node000002" class="edge">
<title>Node2&#45;&gt;Node15</title>
<g id="a_edge24_Node000015_Node000002"><a xlink:title=" ">
<path fill="none" stroke="#63b8ff" d="M310.75,-654.98C232.46,-655.71 6,-652.47 6,-590.5 6,-590.5 6,-590.5 6,-327.5 6,-264.38 58.79,-204.45 88.04,-176.1"/>
<polygon fill="none" stroke="#63b8ff" points="88.2,-175.95 89.83,-168.92 96.95,-167.73 95.31,-174.76 88.2,-175.95"/>
</a>
</g>
<text text-anchor="middle" x="21.5" y="-427.5" font-family="Helvetica,sans-Serif" font-size="10.00" fill="grey"> &#45;name</text>
</g>
<!-- Node3 -->
<g id="Node000003" class="node">
<title>Node3</title>
<g id="a_Node000003"><a xlink:title=" ">
<polygon fill="white" stroke="transparent" points="381,-732 293,-732 293,-702 381,-702 381,-732"/>
<text text-anchor="start" x="297.5" y="-720" font-family="Helvetica,sans-Serif" font-size="10.00">std::basic_string&lt;</text>
<text text-anchor="start" x="320" y="-709" font-family="Helvetica,sans-Serif" font-size="10.00"> Char &gt;</text>
<polygon fill="none" stroke="#666666" points="293,-702 293,-732 381,-732 381,-702 293,-702"/>
</a>
</g>
</g>
<!-- Node3&#45;&gt;Node2 -->
<g id="edge2_Node000002_Node000003" class="edge">
<title>Node3&#45;&gt;Node2</title>
<g id="a_edge2_Node000002_Node000003"><a xlink:title=" ">
<path fill="none" stroke="#63b8ff" d="M337,-691.79C337,-682.36 337,-672.15 337,-665.16"/>
<polygon fill="none" stroke="#63b8ff" points="333.5,-691.9 337,-701.9 340.5,-691.9 333.5,-691.9"/>
</a>
</g>
</g>
<!-- Node4 -->
<g id="Node000004" class="node">
<title>Node4</title>
<g id="a_Node000004"><a xlink:href="classweb_1_1websocket_1_1SubProtocolContext.html" target="_top" xlink:title=" ">
<polygon fill="white" stroke="transparent" points="1096,-255.5 956,-255.5 956,-225.5 1096,-225.5 1096,-255.5"/>
<text text-anchor="start" x="960.5" y="-243.5" font-family="Helvetica,sans-Serif" font-size="10.00">web::websocket::SubProtocol</text>
<text text-anchor="start" x="1008.5" y="-232.5" font-family="Helvetica,sans-Serif" font-size="10.00">Context</text>
<polygon fill="none" stroke="#666666" points="956,-225.5 956,-255.5 1096,-255.5 1096,-225.5 956,-225.5"/>
</a>
</g>
</g>
<!-- Node4&#45;&gt;Node1 -->
<g id="edge3_Node000001_Node000004" class="edge">
<title>Node4&#45;&gt;Node1</title>
<g id="a_edge3_Node000001_Node000004"><a xlink:title=" ">
<path fill="none" stroke="#63b8ff" d="M1026,-225.48C1026,-214.46 1026,-198.81 1026,-185.46"/>
<polygon fill="none" stroke="#63b8ff" points="1026,-185.13 1022,-179.13 1026,-173.13 1030,-179.13 1026,-185.13"/>
</a>
</g>
<text text-anchor="middle" x="1073.5" y="-194" font-family="Helvetica,sans-Serif" font-size="10.00" fill="grey"> #subProtocolContext</text>
</g>
<!-- Node5 -->
<g id="Node000005" class="node">
<title>Node5</title>
<g id="a_Node000005"><a xlink:href="classweb_1_1websocket_1_1Receiver.html" target="_top" xlink:title=" ">
<polygon fill="white" stroke="transparent" points="1116,-338 990,-338 990,-319 1116,-319 1116,-338"/>
<text text-anchor="start" x="994.5" y="-325.5" font-family="Helvetica,sans-Serif" font-size="10.00">web::websocket::Receiver</text>
<polygon fill="none" stroke="#666666" points="990,-319 990,-338 1116,-338 1116,-319 990,-319"/>
</a>
</g>
</g>
<!-- Node5&#45;&gt;Node4 -->
<g id="edge4_Node000004_Node000005" class="edge">
<title>Node5&#45;&gt;Node4</title>
<g id="a_edge4_Node000004_Node000005"><a xlink:title=" ">
<path fill="none" stroke="darkgreen" d="M1047.24,-309.16C1042.22,-293.17 1035.05,-270.32 1030.46,-255.7"/>
<polygon fill="none" stroke="darkgreen" points="1043.98,-310.45 1050.31,-318.94 1050.66,-308.35 1043.98,-310.45"/>
</a>
</g>
</g>
<!-- Node6 -->
<g id="Node000006" class="node">
<title>Node6</title>
<g id="a_Node000006"><a xlink:href="unionweb_1_1websocket_1_1Receiver_1_1MaskingKey.html" target="_top" xlink:title=" ">
<polygon fill="white" stroke="transparent" points="1096,-445 970,-445 970,-415 1096,-415 1096,-445"/>
<text text-anchor="start" x="974.5" y="-433" font-family="Helvetica,sans-Serif" font-size="10.00">web::websocket::Receiver</text>
<text text-anchor="start" x="1002.5" y="-422" font-family="Helvetica,sans-Serif" font-size="10.00">::MaskingKey</text>
<polygon fill="none" stroke="#666666" points="970,-415 970,-445 1096,-445 1096,-415 970,-415"/>
</a>
</g>
</g>
<!-- Node6&#45;&gt;Node5 -->
<g id="edge5_Node000005_Node000006" class="edge">
<title>Node6&#45;&gt;Node5</title>
<g id="a_edge5_Node000005_Node000006"><a xlink:title=" ">
<path fill="none" stroke="#63b8ff" d="M1031.45,-414.98C1030.47,-402.26 1030.02,-383.09 1034,-367 1035.5,-360.94 1038.12,-354.74 1040.94,-349.17"/>
<polygon fill="none" stroke="#63b8ff" points="1041.19,-348.74 1040.66,-341.55 1047.09,-338.29 1047.62,-345.48 1041.19,-348.74"/>
</a>
</g>
<text text-anchor="middle" x="1082" y="-379.5" font-family="Helvetica,sans-Serif" font-size="10.00" fill="grey"> &#45;maskingKeyAsArray</text>
</g>
<!-- Node7 -->
<g id="Node000007" class="node">
<title>Node7</title>
<g id="a_Node000007"><a xlink:href="classweb_1_1websocket_1_1Transmitter.html" target="_top" xlink:title=" ">
<polygon fill="white" stroke="transparent" points="972,-338 836,-338 836,-319 972,-319 972,-338"/>
<text text-anchor="start" x="840.5" y="-325.5" font-family="Helvetica,sans-Serif" font-size="10.00">web::websocket::Transmitter</text>
<polygon fill="none" stroke="#666666" points="836,-319 836,-338 972,-338 972,-319 836,-319"/>
</a>
</g>
</g>
<!-- Node7&#45;&gt;Node4 -->
<g id="edge6_Node000004_Node000007" class="edge">
<title>Node7&#45;&gt;Node4</title>
<g id="a_edge6_Node000004_Node000007"><a xlink:title=" ">
<path fill="none" stroke="darkgreen" d="M924.37,-313.14C947,-297.19 983.32,-271.58 1005.86,-255.7"/>
<polygon fill="none" stroke="darkgreen" points="922.3,-310.32 916.14,-318.94 926.33,-316.04 922.3,-310.32"/>
</a>
</g>
</g>
<!-- Node8 -->
<g id="Node000008" class="node">
<title>Node8</title>
<g id="a_Node000008"><a xlink:href="classcore_1_1timer_1_1Timer.html" target="_top" xlink:title=" ">
<polygon fill="white" stroke="transparent" points="933,-250 847,-250 847,-231 933,-231 933,-250"/>
<text text-anchor="start" x="851" y="-237.5" font-family="Helvetica,sans-Serif" font-size="10.00">core::timer::Timer</text>
<polygon fill="none" stroke="#666666" points="847,-231 847,-250 933,-250 933,-231 847,-231"/>
</a>
</g>
</g>
<!-- Node8&#45;&gt;Node1 -->
<g id="edge7_Node000001_Node000008" class="edge">
<title>Node8&#45;&gt;Node1</title>
<g id="a_edge7_Node000001_Node000008"><a xlink:title=" ">
<path fill="none" stroke="#63b8ff" d="M904.55,-230.89C925.12,-218.71 963.31,-196.11 991.4,-179.48"/>
<polygon fill="none" stroke="#63b8ff" points="991.65,-179.33 994.78,-172.83 1001.98,-173.22 998.85,-179.72 991.65,-179.33"/>
</a>
</g>
<text text-anchor="middle" x="994.5" y="-194" font-family="Helvetica,sans-Serif" font-size="10.00" fill="grey"> &#45;pingTimer</text>
</g>
<!-- Node9 -->
<g id="Node000009" class="node">
<title>Node9</title>
<g id="a_Node000009"><a xlink:href="classcore_1_1Timer.html" target="_top" xlink:title=" ">
<polygon fill="white" stroke="transparent" points="780,-338 722,-338 722,-319 780,-319 780,-338"/>
<text text-anchor="start" x="726" y="-325.5" font-family="Helvetica,sans-Serif" font-size="10.00">core::Timer</text>
<polygon fill="none" stroke="#666666" points="722,-319 722,-338 780,-338 780,-319 722,-319"/>
</a>
</g>
</g>
<!-- Node9&#45;&gt;Node8 -->
<g id="edge8_Node000008_Node000009" class="edge">
<title>Node9&#45;&gt;Node8</title>
<g id="a_edge8_Node000008_Node000009"><a xlink:title=" ">
<path fill="none" stroke="#63b8ff" d="M773.48,-313.59C802.53,-295.62 852.22,-264.88 876.22,-250.03"/>
<polygon fill="none" stroke="#63b8ff" points="771.5,-310.7 764.84,-318.94 775.18,-316.65 771.5,-310.7"/>
</a>
</g>
</g>
<!-- Node10 -->
<g id="Node000010" class="node">
<title>Node10</title>
<g id="a_Node000010"><a xlink:href="classcore_1_1TimerEventReceiver.html" target="_top" xlink:title=" ">
<polygon fill="white" stroke="transparent" points="548,-439.5 424,-439.5 424,-420.5 548,-420.5 548,-439.5"/>
<text text-anchor="start" x="428.5" y="-427" font-family="Helvetica,sans-Serif" font-size="10.00">core::TimerEventReceiver</text>
<polygon fill="none" stroke="#666666" points="424,-420.5 424,-439.5 548,-439.5 548,-420.5 424,-420.5"/>
</a>
</g>
</g>
<!-- Node9&#45;&gt;Node10 -->
<g id="edge34_Node000010_Node000009" class="edge">
<title>Node9&#45;&gt;Node10</title>
<g id="a_edge34_Node000010_Node000009"><a xlink:title=" ">
<path fill="none" stroke="#63b8ff" d="M733.7,-338.14C725.96,-341.8 716.65,-345.92 708,-349 678.55,-359.49 665.22,-348.52 640,-367 627.27,-376.33 633.85,-387.84 621,-397 603.29,-409.63 581.29,-417.33 560.21,-422.01"/>
<polygon fill="none" stroke="#63b8ff" points="560.07,-422.03 554.96,-427.12 548.3,-424.37 553.4,-419.28 560.07,-422.03"/>
</a>
</g>
<text text-anchor="middle" x="654" y="-379.5" font-family="Helvetica,sans-Serif" font-size="10.00" fill="grey"> &#45;timer</text>
</g>
<!-- Node10&#45;&gt;Node9 -->
<g id="edge9_Node000009_Node000010" class="edge">
<title>Node10&#45;&gt;Node9</title>
<g id="a_edge9_Node000009_Node000010"><a xlink:title=" ">
<path fill="none" stroke="#63b8ff" d="M548.11,-423.89C594.15,-419.08 652.2,-410.56 672,-397 684.83,-388.22 679.06,-378.05 690,-367 699.02,-357.88 710.68,-350.02 721.38,-343.89"/>
<polygon fill="none" stroke="#63b8ff" points="721.48,-343.84 724.86,-337.47 732.04,-338.14 728.66,-344.51 721.48,-343.84"/>
</a>
</g>
<text text-anchor="middle" x="736.5" y="-379.5" font-family="Helvetica,sans-Serif" font-size="10.00" fill="grey"> &#45;timerEventReceiver</text>
</g>
<!-- Node22 -->
<g id="Node000022" class="node">
<title>Node22</title>
<g id="a_Node000022"><a xlink:title=" ">
<polygon fill="white" stroke="transparent" points="574,-349 398,-349 398,-308 574,-308 574,-349"/>
<text text-anchor="start" x="402" y="-336.5" font-family="Helvetica,sans-Serif" font-size="10.00">std::set&lt; core::TimerEvent</text>
<text text-anchor="start" x="402" y="-325.5" font-family="Helvetica,sans-Serif" font-size="10.00">Receiver *, core::TimerEventPublisher</text>
<text text-anchor="start" x="451.5" y="-314.5" font-family="Helvetica,sans-Serif" font-size="10.00">::timernode_lt &gt;</text>
<polygon fill="none" stroke="#666666" points="398,-308 398,-349 574,-349 574,-308 398,-308"/>
</a>
</g>
</g>
<!-- Node10&#45;&gt;Node22 -->
<g id="edge27_Node000022_Node000010" class="edge">
<title>Node10&#45;&gt;Node22</title>
<g id="a_edge27_Node000022_Node000010"><a xlink:title=" ">
<path fill="none" stroke="#63b8ff" d="M486,-420.17C486,-407.09 486,-381.92 486,-361.4"/>
<polygon fill="none" stroke="#63b8ff" points="486,-361.38 482,-355.39 486,-349.38 490,-355.38 486,-361.38"/>
</a>
</g>
<text text-anchor="middle" x="501.5" y="-379.5" font-family="Helvetica,sans-Serif" font-size="10.00" fill="grey"> +keys</text>
</g>
<!-- Node23 -->
<g id="Node000023" class="node">
<title>Node23</title>
<g id="a_Node000023"><a xlink:title=" ">
<polygon fill="white" stroke="transparent" points="380,-343.5 254,-343.5 254,-313.5 380,-313.5 380,-343.5"/>
<text text-anchor="start" x="258.5" y="-331.5" font-family="Helvetica,sans-Serif" font-size="10.00">std::list&lt; core::TimerEvent</text>
<text text-anchor="start" x="289.5" y="-320.5" font-family="Helvetica,sans-Serif" font-size="10.00">Receiver * &gt;</text>
<polygon fill="none" stroke="#666666" points="254,-313.5 254,-343.5 380,-343.5 380,-313.5 254,-313.5"/>
</a>
</g>
</g>
<!-- Node10&#45;&gt;Node23 -->
<g id="edge29_Node000023_Node000010" class="edge">
<title>Node10&#45;&gt;Node23</title>
<g id="a_edge29_Node000023_Node000010"><a xlink:title=" ">
<path fill="none" stroke="#63b8ff" d="M471.3,-420.34C444.81,-404.75 388.4,-371.54 351.63,-349.89"/>
<polygon fill="none" stroke="#63b8ff" points="351.24,-349.66 344.04,-350.06 340.9,-343.57 348.1,-343.17 351.24,-349.66"/>
</a>
</g>
<text text-anchor="middle" x="455.5" y="-379.5" font-family="Helvetica,sans-Serif" font-size="10.00" fill="grey"> +elements</text>
</g>
<!-- Node11 -->
<g id="Node000011" class="node">
<title>Node11</title>
<g id="a_Node000011"><a xlink:href="classcore_1_1EventReceiver.html" target="_top" xlink:title=" ">
<polygon fill="white" stroke="transparent" points="387,-533 289,-533 289,-514 387,-514 387,-533"/>
<text text-anchor="start" x="293" y="-520.5" font-family="Helvetica,sans-Serif" font-size="10.00">core::EventReceiver</text>
<polygon fill="none" stroke="#666666" points="289,-514 289,-533 387,-533 387,-514 289,-514"/>
</a>
</g>
</g>
<!-- Node11&#45;&gt;Node10 -->
<g id="edge10_Node000010_Node000011" class="edge">
<title>Node11&#45;&gt;Node10</title>
<g id="a_edge10_Node000010_Node000011"><a xlink:title=" ">
<path fill="none" stroke="#63b8ff" d="M345.83,-504.68C352.55,-491.36 363.45,-473.69 378,-463 393.45,-451.66 412.89,-444.31 431.01,-439.56"/>
<polygon fill="none" stroke="#63b8ff" points="342.62,-503.28 341.52,-513.82 348.95,-506.27 342.62,-503.28"/>
</a>
</g>
</g>
<!-- Node11&#45;&gt;Node12 -->
<g id="edge13_Node000012_Node000011" class="edge">
<title>Node11&#45;&gt;Node12</title>
<g id="a_edge13_Node000012_Node000011"><a xlink:title=" ">
<path fill="none" stroke="#63b8ff" d="M309.78,-533.02C301.28,-537.05 292.91,-542.83 288,-551 282.32,-560.43 289.1,-568.33 299.24,-574.41"/>
<polygon fill="none" stroke="#63b8ff" points="299.44,-574.51 306.6,-573.62 310.17,-579.88 303.02,-580.77 299.44,-574.51"/>
</a>
</g>
<text text-anchor="middle" x="323" y="-554" font-family="Helvetica,sans-Serif" font-size="10.00" fill="grey"> &#45;eventReceiver</text>
</g>
<!-- Node18 -->
<g id="Node000018" class="node">
<title>Node18</title>
<g id="a_Node000018"><a xlink:href="classcore_1_1DescriptorEventReceiver.html" target="_top" xlink:title=" ">
<polygon fill="white" stroke="transparent" points="301,-439.5 157,-439.5 157,-420.5 301,-420.5 301,-439.5"/>
<text text-anchor="start" x="161.5" y="-427" font-family="Helvetica,sans-Serif" font-size="10.00">core::DescriptorEventReceiver</text>
<polygon fill="none" stroke="#666666" points="157,-420.5 157,-439.5 301,-439.5 301,-420.5 157,-420.5"/>
</a>
</g>
</g>
<!-- Node11&#45;&gt;Node18 -->
<g id="edge21_Node000018_Node000011" class="edge">
<title>Node11&#45;&gt;Node18</title>
<g id="a_edge21_Node000018_Node000011"><a xlink:title=" ">
<path fill="none" stroke="#63b8ff" d="M319.84,-507.25C296.76,-487.88 257.72,-455.11 239.26,-439.61"/>
<polygon fill="none" stroke="#63b8ff" points="317.64,-509.98 327.55,-513.73 322.14,-504.62 317.64,-509.98"/>
</a>
</g>
</g>
<!-- Node12&#45;&gt;Node11 -->
<g id="edge11_Node000011_Node000012" class="edge">
<title>Node12&#45;&gt;Node11</title>
<g id="a_edge11_Node000011_Node000012"><a xlink:title=" ">
<path fill="none" stroke="#63b8ff" d="M348.3,-579.98C353.53,-575.32 359.2,-569.05 362,-562 364.71,-555.19 362.12,-548.28 357.78,-542.28"/>
<polygon fill="none" stroke="#63b8ff" points="357.58,-542.06 350.57,-540.34 349.47,-533.21 356.47,-534.93 357.58,-542.06"/>
</a>
</g>
<text text-anchor="middle" x="378.5" y="-554" font-family="Helvetica,sans-Serif" font-size="10.00" fill="grey"> &#45;event</text>
</g>
<!-- Node25 -->
<g id="Node000025" class="node">
<title>Node25</title>
<g id="a_Node000025"><a xlink:title=" ">
<polygon fill="white" stroke="transparent" points="753,-533 637,-533 637,-514 753,-514 753,-533"/>
<text text-anchor="start" x="641" y="-520.5" font-family="Helvetica,sans-Serif" font-size="10.00">std::list&lt; core::Event * &gt;</text>
<polygon fill="none" stroke="#666666" points="637,-514 637,-533 753,-533 753,-514 637,-514"/>
</a>
</g>
</g>
<!-- Node12&#45;&gt;Node25 -->
<g id="edge32_Node000025_Node000012" class="edge">
<title>Node12&#45;&gt;Node25</title>
<g id="a_edge32_Node000025_Node000012"><a xlink:title=" ">
<path fill="none" stroke="#63b8ff" d="M367.21,-583.1C426.34,-572.53 558.28,-548.94 635.53,-535.13"/>
<polygon fill="none" stroke="#63b8ff" points="635.62,-535.12 640.83,-530.12 647.44,-533 642.23,-538 635.62,-535.12"/>
</a>
</g>
<text text-anchor="middle" x="561.5" y="-554" font-family="Helvetica,sans-Serif" font-size="10.00" fill="grey"> +elements</text>
</g>
<!-- Node13 -->
<g id="Node000013" class="node">
<title>Node13</title>
<g id="a_Node000013"><a xlink:href="classcore_1_1EventMultiplexer.html" target="_top" xlink:title=" ">
<polygon fill="white" stroke="transparent" points="355,-19 249,-19 249,0 355,0 355,-19"/>
<text text-anchor="start" x="253" y="-6.5" font-family="Helvetica,sans-Serif" font-size="10.00">core::EventMultiplexer</text>
<polygon fill="none" stroke="#666666" points="249,0 249,-19 355,-19 355,0 249,0"/>
</a>
</g>
</g>
<!-- Node13&#45;&gt;Node12 -->
<g id="edge14_Node000012_Node000013" class="edge">
<title>Node13&#45;&gt;Node12</title>
<g id="a_edge14_Node000012_Node000013"><a xlink:title=" ">
<path fill="none" stroke="#63b8ff" d="M248.7,-11.93C162.01,-15.72 0,-29.56 0,-80 0,-197.5 0,-197.5 0,-197.5 0,-367.35 51.04,-426.07 183,-533 215.5,-559.34 261.54,-573.74 294.8,-581.22"/>
<polygon fill="none" stroke="#63b8ff" points="295.13,-581.29 301.82,-578.61 306.87,-583.76 300.18,-586.44 295.13,-581.29"/>
</a>
</g>
<text text-anchor="middle" x="46" y="-282" font-family="Helvetica,sans-Serif" font-size="10.00" fill="grey"> &#45;eventMultiplexer</text>
</g>
<!-- Node14 -->
<g id="Node000014" class="node">
<title>Node14</title>
<g id="a_Node000014"><a xlink:title=" ">
<polygon fill="white" stroke="transparent" points="242,-96 112,-96 112,-66 242,-66 242,-96"/>
<text text-anchor="start" x="116.5" y="-84" font-family="Helvetica,sans-Serif" font-size="10.00">std::array&lt; core::Descriptor</text>
<text text-anchor="start" x="130" y="-73" font-family="Helvetica,sans-Serif" font-size="10.00">EventPublisher *, 3 &gt;</text>
<polygon fill="none" stroke="#666666" points="112,-66 112,-96 242,-96 242,-66 112,-66"/>
</a>
</g>
</g>
<!-- Node14&#45;&gt;Node13 -->
<g id="edge15_Node000013_Node000014" class="edge">
<title>Node14&#45;&gt;Node13</title>
<g id="a_edge15_Node000013_Node000014"><a xlink:title=" ">
<path fill="none" stroke="#63b8ff" d="M184.73,-65.68C190.52,-56.24 199.27,-44.31 210,-37 218.78,-31.01 228.91,-26.36 239.18,-22.76"/>
<polygon fill="none" stroke="#63b8ff" points="239.31,-22.72 243.83,-17.1 250.75,-19.11 246.23,-24.73 239.31,-22.72"/>
</a>
</g>
<text text-anchor="middle" x="271.5" y="-40" font-family="Helvetica,sans-Serif" font-size="10.00" fill="grey"> #descriptorEventPublishers</text>
</g>
<!-- Node15&#45;&gt;Node14 -->
<g id="edge16_Node000014_Node000015" class="edge">
<title>Node15&#45;&gt;Node14</title>
<g id="a_edge16_Node000014_Node000015"><a xlink:title=" ">
<path fill="none" stroke="#63b8ff" d="M115.03,-148.4C124.81,-137.92 141.72,-119.8 155.41,-105.14"/>
<polygon fill="none" stroke="#63b8ff" points="155.64,-104.89 156.81,-97.77 163.83,-96.11 162.66,-103.23 155.64,-104.89"/>
</a>
</g>
<text text-anchor="middle" x="171.5" y="-117" font-family="Helvetica,sans-Serif" font-size="10.00" fill="grey"> +elements</text>
</g>
<!-- Node15&#45;&gt;Node18 -->
<g id="edge22_Node000018_Node000015" class="edge">
<title>Node15&#45;&gt;Node18</title>
<g id="a_edge22_Node000018_Node000015"><a xlink:title=" ">
<path fill="none" stroke="#63b8ff" d="M176.61,-167.51C190.22,-172.35 203.03,-179.75 212,-191 238.44,-224.16 233.46,-356.52 230.41,-408.19"/>
<polygon fill="none" stroke="#63b8ff" points="230.39,-408.5 234,-414.74 229.63,-420.47 226.01,-414.23 230.39,-408.5"/>
</a>
</g>
<text text-anchor="middle" x="290.5" y="-282" font-family="Helvetica,sans-Serif" font-size="10.00" fill="grey"> &#45;descriptorEventPublisher</text>
</g>
<!-- Node16 -->
<g id="Node000016" class="node">
<title>Node16</title>
<g id="a_Node000016"><a xlink:title=" ">
<polygon fill="white" stroke="transparent" points="198,-261 66,-261 66,-220 198,-220 198,-261"/>
<text text-anchor="start" x="70" y="-248.5" font-family="Helvetica,sans-Serif" font-size="10.00">std::map&lt; int, std</text>
<text text-anchor="start" x="70" y="-237.5" font-family="Helvetica,sans-Serif" font-size="10.00">::list&lt; core::DescriptorEvent</text>
<text text-anchor="start" x="100" y="-226.5" font-family="Helvetica,sans-Serif" font-size="10.00">Receiver * &gt; &gt;</text>
<polygon fill="none" stroke="#666666" points="66,-220 66,-261 198,-261 198,-220 66,-220"/>
</a>
</g>
</g>
<!-- Node16&#45;&gt;Node15 -->
<g id="edge17_Node000015_Node000016" class="edge">
<title>Node16&#45;&gt;Node15</title>
<g id="a_edge17_Node000015_Node000016"><a xlink:title=" ">
<path fill="none" stroke="#63b8ff" d="M106.48,-220C101.41,-214.76 96.79,-208.67 94,-202 90.88,-194.53 92.42,-186.06 95.36,-178.62"/>
<polygon fill="none" stroke="#63b8ff" points="95.44,-178.46 94.58,-171.3 100.86,-167.75 101.72,-174.91 95.44,-178.46"/>
</a>
</g>
<text text-anchor="middle" x="153" y="-194" font-family="Helvetica,sans-Serif" font-size="10.00" fill="grey"> #observedEventReceivers</text>
</g>
<!-- Node17 -->
<g id="Node000017" class="node">
<title>Node17</title>
<g id="a_Node000017"><a xlink:title=" ">
<polygon fill="white" stroke="transparent" points="198,-343.5 78,-343.5 78,-313.5 198,-313.5 198,-343.5"/>
<text text-anchor="start" x="82" y="-331.5" font-family="Helvetica,sans-Serif" font-size="10.00">std::list&lt; core::Descriptor</text>
<text text-anchor="start" x="97.5" y="-320.5" font-family="Helvetica,sans-Serif" font-size="10.00">EventReceiver * &gt;</text>
<polygon fill="none" stroke="#666666" points="78,-313.5 78,-343.5 198,-343.5 198,-313.5 78,-313.5"/>
</a>
</g>
</g>
<!-- Node17&#45;&gt;Node16 -->
<g id="edge18_Node000016_Node000017" class="edge">
<title>Node17&#45;&gt;Node16</title>
<g id="a_edge18_Node000016_Node000017"><a xlink:title=" ">
<path fill="none" stroke="#63b8ff" d="M137.01,-313.3C136.25,-302.41 135.17,-286.97 134.21,-273.2"/>
<polygon fill="none" stroke="#63b8ff" points="134.21,-273.16 129.8,-267.46 133.37,-261.19 137.78,-266.9 134.21,-273.16"/>
</a>
</g>
<text text-anchor="middle" x="160.5" y="-282" font-family="Helvetica,sans-Serif" font-size="10.00" fill="grey"> +elements</text>
</g>
<!-- Node18&#45;&gt;Node17 -->
<g id="edge19_Node000017_Node000018" class="edge">
<title>Node18&#45;&gt;Node17</title>
<g id="a_edge19_Node000017_Node000018"><a xlink:title=" ">
<path fill="none" stroke="#63b8ff" d="M199.95,-420.44C187.16,-415.4 172.84,-407.84 163,-397 152.56,-385.5 146.37,-369.26 142.75,-355.59"/>
<polygon fill="none" stroke="#63b8ff" points="142.67,-355.21 137.45,-350.24 140.03,-343.51 145.25,-348.48 142.67,-355.21"/>
</a>
</g>
<text text-anchor="middle" x="187.5" y="-379.5" font-family="Helvetica,sans-Serif" font-size="10.00" fill="grey"> +elements</text>
</g>
<!-- Node19 -->
<g id="Node000019" class="node">
<title>Node19</title>
<g id="a_Node000019"><a xlink:href="classcore_1_1Observer.html" target="_top" xlink:title=" ">
<polygon fill="white" stroke="transparent" points="266,-533 192,-533 192,-514 266,-514 266,-533"/>
<text text-anchor="start" x="196.5" y="-520.5" font-family="Helvetica,sans-Serif" font-size="10.00">core::Observer</text>
<polygon fill="none" stroke="#666666" points="192,-514 192,-533 266,-533 266,-514 192,-514"/>
</a>
</g>
</g>
<!-- Node19&#45;&gt;Node18 -->
<g id="edge20_Node000018_Node000019" class="edge">
<title>Node19&#45;&gt;Node18</title>
<g id="a_edge20_Node000018_Node000019"><a xlink:title=" ">
<path fill="none" stroke="darkgreen" d="M229,-503.54C229,-483.92 229,-454.16 229,-439.61"/>
<polygon fill="none" stroke="darkgreen" points="225.5,-503.73 229,-513.73 232.5,-503.73 225.5,-503.73"/>
</a>
</g>
</g>
<!-- Node20 -->
<g id="Node000020" class="node">
<title>Node20</title>
<g id="a_Node000020"><a xlink:href="classutils_1_1Timeval.html" target="_top" xlink:title=" ">
<polygon fill="white" stroke="transparent" points="497,-533 429,-533 429,-514 497,-514 497,-533"/>
<text text-anchor="start" x="433.5" y="-520.5" font-family="Helvetica,sans-Serif" font-size="10.00">utils::Timeval</text>
<polygon fill="none" stroke="#666666" points="429,-514 429,-533 497,-533 497,-514 429,-514"/>
</a>
</g>
</g>
<!-- Node20&#45;&gt;Node10 -->
<g id="edge35_Node000010_Node000020" class="edge">
<title>Node20&#45;&gt;Node10</title>
<g id="a_edge35_Node000010_Node000020"><a xlink:title=" ">
<path fill="none" stroke="#63b8ff" d="M465.21,-513.73C468.79,-499.48 475.96,-470.95 480.87,-451.41"/>
<polygon fill="none" stroke="#63b8ff" points="480.91,-451.25 478.49,-444.46 483.83,-439.61 486.25,-446.41 480.91,-451.25"/>
</a>
</g>
<text text-anchor="middle" x="516.5" y="-482.5" font-family="Helvetica,sans-Serif" font-size="10.00" fill="grey"> &#45;absoluteTimeout</text>
<text text-anchor="middle" x="516.5" y="-471.5" font-family="Helvetica,sans-Serif" font-size="10.00" fill="grey">&#45;delay</text>
</g>
<!-- Node20&#45;&gt;Node18 -->
<g id="edge23_Node000018_Node000020" class="edge">
<title>Node20&#45;&gt;Node18</title>
<g id="a_edge23_Node000018_Node000020"><a xlink:title=" ">
<path fill="none" stroke="#63b8ff" d="M440.99,-513.89C399.77,-497.77 310.74,-462.96 262.2,-443.98"/>
<polygon fill="none" stroke="#63b8ff" points="261.96,-443.89 254.92,-445.43 250.79,-439.52 257.83,-437.98 261.96,-443.89"/>
</a>
</g>
<text text-anchor="middle" x="425" y="-488" font-family="Helvetica,sans-Serif" font-size="10.00" fill="grey"> &#45;initialTimeout</text>
<text text-anchor="middle" x="425" y="-477" font-family="Helvetica,sans-Serif" font-size="10.00" fill="grey">&#45;lastTriggered</text>
<text text-anchor="middle" x="425" y="-466" font-family="Helvetica,sans-Serif" font-size="10.00" fill="grey">&#45;maxInactivity</text>
</g>
<!-- Node21 -->
<g id="Node000021" class="node">
<title>Node21</title>
<g id="a_Node000021"><a xlink:href="classcore_1_1TimerEventPublisher.html" target="_top" xlink:title=" ">
<polygon fill="white" stroke="transparent" points="526,-250 402,-250 402,-231 526,-231 526,-250"/>
<text text-anchor="start" x="406" y="-237.5" font-family="Helvetica,sans-Serif" font-size="10.00">core::TimerEventPublisher</text>
<polygon fill="none" stroke="#666666" points="402,-231 402,-250 526,-250 526,-231 402,-231"/>
</a>
</g>
</g>
<!-- Node21&#45;&gt;Node10 -->
<g id="edge33_Node000010_Node000021" class="edge">
<title>Node21&#45;&gt;Node10</title>
<g id="a_edge33_Node000010_Node000021"><a xlink:title=" ">
<path fill="none" stroke="#63b8ff" d="M497.67,-250.06C526,-259.23 564.74,-276.87 583,-308 607.51,-349.77 549.68,-392.59 513.12,-414.35"/>
<polygon fill="none" stroke="#63b8ff" points="512.98,-414.43 509.77,-420.89 502.58,-420.41 505.79,-413.95 512.98,-414.43"/>
</a>
</g>
<text text-anchor="middle" x="635" y="-326" font-family="Helvetica,sans-Serif" font-size="10.00" fill="grey"> &#45;timerEventPublisher</text>
</g>
<!-- Node21&#45;&gt;Node13 -->
<g id="edge25_Node000013_Node000021" class="edge">
<title>Node21&#45;&gt;Node13</title>
<g id="a_edge25_Node000013_Node000021"><a xlink:title=" ">
<path fill="none" stroke="#63b8ff" d="M459.56,-230.79C444.39,-201.53 392.28,-104.75 333,-37 329.93,-33.49 326.39,-30.03 322.82,-26.83"/>
<polygon fill="none" stroke="#63b8ff" points="322.8,-26.82 315.64,-26.02 313.61,-19.1 320.78,-19.9 322.8,-26.82"/>
</a>
</g>
<text text-anchor="middle" x="444" y="-117" font-family="Helvetica,sans-Serif" font-size="10.00" fill="grey"> &#45;timerEventPublisher</text>
</g>
<!-- Node22&#45;&gt;Node21 -->
<g id="edge26_Node000021_Node000022" class="edge">
<title>Node22&#45;&gt;Node21</title>
<g id="a_edge26_Node000021_Node000022"><a xlink:title=" ">
<path fill="none" stroke="#63b8ff" d="M481.01,-307.99C477.51,-294.32 472.85,-276.08 469.29,-262.16"/>
<polygon fill="none" stroke="#63b8ff" points="469.26,-262.06 463.9,-257.24 466.29,-250.43 471.65,-255.25 469.26,-262.06"/>
</a>
</g>
<text text-anchor="middle" x="498" y="-282" font-family="Helvetica,sans-Serif" font-size="10.00" fill="grey"> &#45;timerList</text>
</g>
<!-- Node23&#45;&gt;Node21 -->
<g id="edge28_Node000021_Node000023" class="edge">
<title>Node23&#45;&gt;Node21</title>
<g id="a_edge28_Node000021_Node000023"><a xlink:title=" ">
<path fill="none" stroke="#63b8ff" d="M340.95,-313.49C367.85,-297.75 411.35,-272.3 438.77,-256.26"/>
<polygon fill="none" stroke="#63b8ff" points="439.09,-256.07 442.25,-249.59 449.44,-250.02 446.29,-256.5 439.09,-256.07"/>
</a>
</g>
<text text-anchor="middle" x="429" y="-282" font-family="Helvetica,sans-Serif" font-size="10.00" fill="grey"> &#45;removedList</text>
</g>
<!-- Node24 -->
<g id="Node000024" class="node">
<title>Node24</title>
<g id="a_Node000024"><a xlink:href="classcore_1_1EventMultiplexer_1_1EventQueue.html" target="_top" xlink:title=" ">
<polygon fill="white" stroke="transparent" points="898,-397 792,-397 792,-367 898,-367 898,-397"/>
<text text-anchor="start" x="796" y="-385" font-family="Helvetica,sans-Serif" font-size="10.00">core::EventMultiplexer</text>
<text text-anchor="start" x="814.5" y="-374" font-family="Helvetica,sans-Serif" font-size="10.00">::EventQueue</text>
<polygon fill="none" stroke="#666666" points="792,-367 792,-397 898,-397 898,-367 792,-367"/>
</a>
</g>
</g>
<!-- Node24&#45;&gt;Node13 -->
<g id="edge30_Node000013_Node000024" class="edge">
<title>Node24&#45;&gt;Node13</title>
<g id="a_edge30_Node000013_Node000024"><a xlink:title=" ">
<path fill="none" stroke="#63b8ff" d="M835.66,-366.78C824.7,-348.68 808,-316.08 808,-285.5 808,-285.5 808,-285.5 808,-80 808,-36.04 504.36,-18.48 367.51,-12.8"/>
<polygon fill="none" stroke="#63b8ff" points="367.18,-12.79 361.03,-16.54 355.19,-12.3 361.35,-8.55 367.18,-12.79"/>
</a>
</g>
<text text-anchor="middle" x="837.5" y="-194" font-family="Helvetica,sans-Serif" font-size="10.00" fill="grey"> &#45;eventQueue</text>
</g>
<!-- Node25&#45;&gt;Node24 -->
<g id="edge31_Node000024_Node000025" class="edge">
<title>Node25&#45;&gt;Node24</title>
<g id="a_edge31_Node000024_Node000025"><a xlink:title=" ">
<path fill="none" stroke="#63b8ff" d="M704.38,-513.77C727.27,-492.49 786.54,-437.37 820.37,-405.9"/>
<polygon fill="none" stroke="#63b8ff" points="820.8,-405.5 822.47,-398.49 829.59,-397.33 827.92,-404.35 820.8,-405.5"/>
</a>
</g>
<text text-anchor="middle" x="792" y="-482.5" font-family="Helvetica,sans-Serif" font-size="10.00" fill="grey"> &#45;executeQueue</text>
<text text-anchor="middle" x="792" y="-471.5" font-family="Helvetica,sans-Serif" font-size="10.00" fill="grey">&#45;publishQueue</text>
</g>
</g>
</svg>
