<?xml version="1.0" encoding="UTF-8" standalone="no"?>
<!DOCTYPE svg PUBLIC "-//W3C//DTD SVG 1.1//EN"
 "http://www.w3.org/Graphics/SVG/1.1/DTD/svg11.dtd">
<!-- Generated by graphviz version 14.1.1 (0)
 -->
<!-- Title: net::in::stream::legacy::config::ConfigSocketClient Pages: 1 -->
<svg width="704pt" height="1015pt"
 viewBox="0.00 0.00 704.00 1015.00" xmlns="http://www.w3.org/2000/svg" xmlns:xlink="http://www.w3.org/1999/xlink">
<g id="graph0" class="graph" transform="scale(1 1) rotate(0) translate(4 1011)">
<title>net::in::stream::legacy::config::ConfigSocketClient</title>
<!-- Node1 -->
<g id="Node000001" class="node">
<title>Node1</title>
<g id="a_Node000001"><a xlink:title=" ">
<polygon fill="#999999" stroke="none" points="152.12,-33.5 9.88,-33.5 9.88,0 152.12,0 152.12,-33.5"/>
<text xml:space="preserve" text-anchor="start" x="13.88" y="-20" font-family="Helvetica,sans-Serif" font-size="10.00">net::in::stream::legacy</text>
<text xml:space="preserve" text-anchor="start" x="13.88" y="-7.25" font-family="Helvetica,sans-Serif" font-size="10.00">::config::ConfigSocketClient</text>
<polygon fill="none" stroke="#666666" points="9.88,0 9.88,-33.5 152.12,-33.5 152.12,0 9.88,0"/>
</a>
</g>
</g>
<!-- Node2 -->
<g id="Node000002" class="node">
<title>Node2</title>
<g id="a_Node000002"><a xlink:href="classnet_1_1config_1_1stream_1_1legacy_1_1ConfigSocketClient.html" target="_top" xlink:title=" ">
<polygon fill="white" stroke="none" points="152.88,-129.5 9.12,-129.5 9.12,-70.5 152.88,-70.5 152.88,-129.5"/>
<text xml:space="preserve" text-anchor="start" x="13.12" y="-116" font-family="Helvetica,sans-Serif" font-size="10.00">net::config::stream</text>
<text xml:space="preserve" text-anchor="start" x="13.12" y="-103.25" font-family="Helvetica,sans-Serif" font-size="10.00">::legacy::ConfigSocketClient</text>
<text xml:space="preserve" text-anchor="start" x="13.12" y="-90.5" font-family="Helvetica,sans-Serif" font-size="10.00">&lt; net::in::stream::config</text>
<text xml:space="preserve" text-anchor="start" x="26.25" y="-77.75" font-family="Helvetica,sans-Serif" font-size="10.00">::ConfigSocketClient &gt;</text>
<polygon fill="none" stroke="#666666" points="9.12,-70.5 9.12,-129.5 152.88,-129.5 152.88,-70.5 9.12,-70.5"/>
</a>
</g>
</g>
<!-- Node2&#45;&gt;Node1 -->
<g id="edge1_Node000001_Node000002" class="edge">
<title>Node2&#45;&gt;Node1</title>
<g id="a_edge1_Node000001_Node000002"><a xlink:title=" ">
<path fill="none" stroke="#63b8ff" d="M81,-59.19C81,-50.06 81,-40.88 81,-33.49"/>
<polygon fill="none" stroke="#63b8ff" points="77.5,-59.07 81,-69.07 84.5,-59.07 77.5,-59.07"/>
</a>
</g>
</g>
<!-- Node3 -->
<g id="Node000003" class="node">
<title>Node3</title>
<g id="a_Node000003"><a xlink:href="classnet_1_1config_1_1ConfigInstance.html" target="_top" xlink:title=" ">
<polygon fill="white" stroke="none" points="203.25,-813.75 64.75,-813.75 64.75,-793 203.25,-793 203.25,-813.75"/>
<text xml:space="preserve" text-anchor="start" x="68.75" y="-800.25" font-family="Helvetica,sans-Serif" font-size="10.00">net::config::ConfigInstance</text>
<polygon fill="none" stroke="#666666" points="64.75,-793 64.75,-813.75 203.25,-813.75 203.25,-793 64.75,-793"/>
</a>
</g>
</g>
<!-- Node3&#45;&gt;Node2 -->
<g id="edge2_Node000002_Node000003" class="edge">
<title>Node3&#45;&gt;Node2</title>
<g id="a_edge2_Node000002_Node000003"><a xlink:title=" ">
<path fill="none" stroke="#63b8ff" d="M78.29,-789.78C41.48,-777.79 0,-755.53 0,-716.12 0,-716.12 0,-716.12 0,-182.25 0,-160.74 14.42,-142.92 31.09,-129.5"/>
<polygon fill="none" stroke="#63b8ff" points="76.97,-793.04 87.56,-792.6 79.01,-786.34 76.97,-793.04"/>
</a>
</g>
</g>
<!-- Node12 -->
<g id="Node000012" class="node">
<title>Node12</title>
<g id="a_Node000012"><a xlink:href="classnet_1_1config_1_1ConfigSection.html" target="_top" xlink:title=" ">
<polygon fill="white" stroke="none" points="200.62,-725.5 67.38,-725.5 67.38,-704.75 200.62,-704.75 200.62,-725.5"/>
<text xml:space="preserve" text-anchor="start" x="71.38" y="-712" font-family="Helvetica,sans-Serif" font-size="10.00">net::config::ConfigSection</text>
<polygon fill="none" stroke="#666666" points="67.38,-704.75 67.38,-725.5 200.62,-725.5 200.62,-704.75 67.38,-704.75"/>
</a>
</g>
</g>
<!-- Node3&#45;&gt;Node12 -->
<g id="edge12_Node000012_Node000003" class="edge">
<title>Node3&#45;&gt;Node12</title>
<g id="a_edge12_Node000012_Node000003"><a xlink:title=" ">
<path fill="none" stroke="#63b8ff" d="M134,-793.14C134,-780.11 134,-755.92 134,-738.11"/>
<polygon fill="none" stroke="#63b8ff" points="134,-738.19 130,-732.19 134,-726.19 138,-732.19 134,-738.19"/>
</a>
</g>
<text xml:space="preserve" text-anchor="start" x="137" y="-762.5" font-family="Helvetica,sans-Serif" font-size="10.00" fill="grey">&#45;instance</text>
</g>
<!-- Node4 -->
<g id="Node000004" class="node">
<title>Node4</title>
<g id="a_Node000004"><a xlink:title=" ">
<polygon fill="white" stroke="none" points="194.38,-912.38 137.62,-912.38 137.62,-891.62 194.38,-891.62 194.38,-912.38"/>
<text xml:space="preserve" text-anchor="start" x="141.62" y="-898.88" font-family="Helvetica,sans-Serif" font-size="10.00">std::string</text>
<polygon fill="none" stroke="#666666" points="137.62,-891.62 137.62,-912.38 194.38,-912.38 194.38,-891.62 137.62,-891.62"/>
</a>
</g>
</g>
<!-- Node4&#45;&gt;Node3 -->
<g id="edge3_Node000003_Node000004" class="edge">
<title>Node4&#45;&gt;Node3</title>
<g id="a_edge3_Node000003_Node000004"><a xlink:title=" ">
<path fill="none" stroke="#63b8ff" d="M158.4,-891.86C153.43,-885.39 147.24,-876.29 143.75,-867.25 138.72,-854.21 136.28,-838.71 135.1,-826.36"/>
<polygon fill="none" stroke="#63b8ff" points="135.11,-826.51 130.7,-820.81 134.27,-814.54 138.68,-820.25 135.11,-826.51"/>
</a>
</g>
<text xml:space="preserve" text-anchor="start" x="146.75" y="-854.75" font-family="Helvetica,sans-Serif" font-size="10.00" fill="grey">&#45;instanceName</text>
<text xml:space="preserve" text-anchor="start" x="146.75" y="-838" font-family="Helvetica,sans-Serif" font-size="10.00" fill="grey">&#45;nameAnonymous</text>
</g>
<!-- Node13 -->
<g id="Node000013" class="node">
<title>Node13</title>
<g id="a_Node000013"><a xlink:href="classnet_1_1in_1_1SocketAddress.html" target="_top" xlink:title=" ">
<polygon fill="white" stroke="none" points="405,-813.75 289,-813.75 289,-793 405,-793 405,-813.75"/>
<text xml:space="preserve" text-anchor="start" x="293" y="-800.25" font-family="Helvetica,sans-Serif" font-size="10.00">net::in::SocketAddress</text>
<polygon fill="none" stroke="#666666" points="289,-793 289,-813.75 405,-813.75 405,-793 289,-793"/>
</a>
</g>
</g>
<!-- Node4&#45;&gt;Node13 -->
<g id="edge16_Node000013_Node000004" class="edge">
<title>Node4&#45;&gt;Node13</title>
<g id="a_edge16_Node000013_Node000004"><a xlink:title=" ">
<path fill="none" stroke="#63b8ff" d="M194.34,-892.49C208.94,-887.04 226.29,-878.8 239,-867.25 252.53,-854.96 245.46,-843.14 259.75,-831.75 266.75,-826.17 274.91,-821.72 283.36,-818.17"/>
<polygon fill="none" stroke="#63b8ff" points="283.33,-818.18 287.58,-812.36 294.59,-814.04 290.34,-819.87 283.33,-818.18"/>
</a>
</g>
<text xml:space="preserve" text-anchor="start" x="262.75" y="-854.75" font-family="Helvetica,sans-Serif" font-size="10.00" fill="grey">&#45;canonName</text>
<text xml:space="preserve" text-anchor="start" x="262.75" y="-838" font-family="Helvetica,sans-Serif" font-size="10.00" fill="grey">&#45;host</text>
</g>
<!-- Node5 -->
<g id="Node000005" class="node">
<title>Node5</title>
<g id="a_Node000005"><a xlink:title=" ">
<polygon fill="white" stroke="none" points="213.88,-1007 118.12,-1007 118.12,-973.5 213.88,-973.5 213.88,-1007"/>
<text xml:space="preserve" text-anchor="start" x="122.12" y="-993.5" font-family="Helvetica,sans-Serif" font-size="10.00">std::basic_string&lt;</text>
<text xml:space="preserve" text-anchor="start" x="147.62" y="-980.75" font-family="Helvetica,sans-Serif" font-size="10.00"> Char &gt;</text>
<polygon fill="none" stroke="#666666" points="118.12,-973.5 118.12,-1007 213.88,-1007 213.88,-973.5 118.12,-973.5"/>
</a>
</g>
</g>
<!-- Node5&#45;&gt;Node4 -->
<g id="edge4_Node000004_Node000005" class="edge">
<title>Node5&#45;&gt;Node4</title>
<g id="a_edge4_Node000004_Node000005"><a xlink:title=" ">
<path fill="none" stroke="#63b8ff" d="M166,-962.43C166,-945.15 166,-923.78 166,-911.95"/>
<polygon fill="none" stroke="#63b8ff" points="162.5,-962.32 166,-972.32 169.5,-962.32 162.5,-962.32"/>
</a>
</g>
</g>
<!-- Node6 -->
<g id="Node000006" class="node">
<title>Node6</title>
<g id="a_Node000006"><a xlink:href="classnet_1_1in_1_1stream_1_1config_1_1ConfigSocketClient.html" target="_top" xlink:title=" ">
<polygon fill="white" stroke="none" points="285.62,-200 170.38,-200 170.38,-166.5 285.62,-166.5 285.62,-200"/>
<text xml:space="preserve" text-anchor="start" x="174.38" y="-186.5" font-family="Helvetica,sans-Serif" font-size="10.00">net::in::stream::config</text>
<text xml:space="preserve" text-anchor="start" x="178.88" y="-173.75" font-family="Helvetica,sans-Serif" font-size="10.00">::ConfigSocketClient</text>
<polygon fill="none" stroke="#666666" points="170.38,-166.5 170.38,-200 285.62,-200 285.62,-166.5 170.38,-166.5"/>
</a>
</g>
</g>
<!-- Node6&#45;&gt;Node2 -->
<g id="edge5_Node000002_Node000006" class="edge">
<title>Node6&#45;&gt;Node2</title>
<g id="a_edge5_Node000002_Node000006"><a xlink:title=" ">
<path fill="none" stroke="#63b8ff" d="M189.8,-161.14C172.31,-151.47 151.32,-139.87 132.47,-129.45"/>
<polygon fill="none" stroke="#63b8ff" points="187.89,-164.08 198.33,-165.85 191.27,-157.95 187.89,-164.08"/>
</a>
</g>
</g>
<!-- Node7 -->
<g id="Node000007" class="node">
<title>Node7</title>
<g id="a_Node000007"><a xlink:href="classnet_1_1config_1_1stream_1_1ConfigSocketClient.html" target="_top" xlink:title=" ">
<polygon fill="white" stroke="none" points="375.88,-283.25 202.12,-283.25 202.12,-237 375.88,-237 375.88,-283.25"/>
<text xml:space="preserve" text-anchor="start" x="206.12" y="-269.75" font-family="Helvetica,sans-Serif" font-size="10.00">net::config::stream</text>
<text xml:space="preserve" text-anchor="start" x="206.12" y="-257" font-family="Helvetica,sans-Serif" font-size="10.00">::ConfigSocketClient</text>
<text xml:space="preserve" text-anchor="start" x="206.12" y="-244.25" font-family="Helvetica,sans-Serif" font-size="10.00">&lt; net::in::config::ConfigAddress &gt;</text>
<polygon fill="none" stroke="#666666" points="202.12,-237 202.12,-283.25 375.88,-283.25 375.88,-237 202.12,-237"/>
</a>
</g>
</g>
<!-- Node7&#45;&gt;Node6 -->
<g id="edge6_Node000006_Node000007" class="edge">
<title>Node7&#45;&gt;Node6</title>
<g id="a_edge6_Node000006_Node000007"><a xlink:title=" ">
<path fill="none" stroke="#63b8ff" d="M263.94,-228.36C255.99,-218.6 247.53,-208.22 240.82,-199.98"/>
<polygon fill="none" stroke="#63b8ff" points="261.04,-230.35 270.07,-235.89 266.47,-225.93 261.04,-230.35"/>
</a>
</g>
</g>
<!-- Node8 -->
<g id="Node000008" class="node">
<title>Node8</title>
<g id="a_Node000008"><a xlink:href="classnet_1_1in_1_1config_1_1ConfigAddress.html" target="_top" xlink:title=" ">
<polygon fill="white" stroke="none" points="387.5,-353.75 190.5,-353.75 190.5,-320.25 387.5,-320.25 387.5,-353.75"/>
<text xml:space="preserve" text-anchor="start" x="194.5" y="-340.25" font-family="Helvetica,sans-Serif" font-size="10.00">net::in::config::ConfigAddress</text>
<text xml:space="preserve" text-anchor="start" x="194.5" y="-327.5" font-family="Helvetica,sans-Serif" font-size="10.00">&lt; net::config::ConfigAddressRemote &gt;</text>
<polygon fill="none" stroke="#666666" points="190.5,-320.25 190.5,-353.75 387.5,-353.75 387.5,-320.25 190.5,-320.25"/>
</a>
</g>
</g>
<!-- Node8&#45;&gt;Node7 -->
<g id="edge7_Node000007_Node000008" class="edge">
<title>Node8&#45;&gt;Node7</title>
<g id="a_edge7_Node000007_Node000008"><a xlink:title=" ">
<path fill="none" stroke="#63b8ff" d="M289,-309.16C289,-300.63 289,-291.3 289,-283.15"/>
<polygon fill="none" stroke="#63b8ff" points="285.5,-308.97 289,-318.97 292.5,-308.97 285.5,-308.97"/>
</a>
</g>
</g>
<!-- Node9 -->
<g id="Node000009" class="node">
<title>Node9</title>
<g id="a_Node000009"><a xlink:href="classnet_1_1config_1_1ConfigAddressRemote.html" target="_top" xlink:title=" ">
<polygon fill="white" stroke="none" points="385.38,-456.75 208.62,-456.75 208.62,-423.25 385.38,-423.25 385.38,-456.75"/>
<text xml:space="preserve" text-anchor="start" x="212.62" y="-443.25" font-family="Helvetica,sans-Serif" font-size="10.00">net::config::ConfigAddress</text>
<text xml:space="preserve" text-anchor="start" x="212.62" y="-430.5" font-family="Helvetica,sans-Serif" font-size="10.00">Remote&lt; net::in::SocketAddress &gt;</text>
<polygon fill="none" stroke="#666666" points="208.62,-423.25 208.62,-456.75 385.38,-456.75 385.38,-423.25 208.62,-423.25"/>
</a>
</g>
</g>
<!-- Node9&#45;&gt;Node8 -->
<g id="edge8_Node000008_Node000009" class="edge">
<title>Node9&#45;&gt;Node8</title>
<g id="a_edge8_Node000008_Node000009"><a xlink:title=" ">
<path fill="none" stroke="#63b8ff" d="M294.89,-412.3C293.4,-393.55 291.46,-369.11 290.23,-353.48"/>
<polygon fill="none" stroke="#63b8ff" points="291.39,-412.46 295.67,-422.15 298.36,-411.91 291.39,-412.46"/>
</a>
</g>
</g>
<!-- Node10 -->
<g id="Node000010" class="node">
<title>Node10</title>
<g id="a_Node000010"><a xlink:href="classnet_1_1config_1_1ConfigAddress.html" target="_top" xlink:title=" ">
<polygon fill="white" stroke="none" points="396.25,-547 257.75,-547 257.75,-513.5 396.25,-513.5 396.25,-547"/>
<text xml:space="preserve" text-anchor="start" x="261.75" y="-533.5" font-family="Helvetica,sans-Serif" font-size="10.00">net::config::ConfigAddress</text>
<text xml:space="preserve" text-anchor="start" x="261.75" y="-520.75" font-family="Helvetica,sans-Serif" font-size="10.00">&lt; net::in::SocketAddress &gt;</text>
<polygon fill="none" stroke="#666666" points="257.75,-513.5 257.75,-547 396.25,-547 396.25,-513.5 257.75,-513.5"/>
</a>
</g>
</g>
<!-- Node10&#45;&gt;Node9 -->
<g id="edge9_Node000009_Node000010" class="edge">
<title>Node10&#45;&gt;Node9</title>
<g id="a_edge9_Node000009_Node000010"><a xlink:title=" ">
<path fill="none" stroke="#63b8ff" d="M318.11,-503.1C312.96,-487.94 306.64,-469.36 302.27,-456.49"/>
<polygon fill="none" stroke="#63b8ff" points="314.75,-504.1 321.29,-512.45 321.38,-501.85 314.75,-504.1"/>
</a>
</g>
</g>
<!-- Node19 -->
<g id="Node000019" class="node">
<title>Node19</title>
<g id="a_Node000019"><a xlink:href="classnet_1_1config_1_1ConfigAddressLocal.html" target="_top" xlink:title=" ">
<polygon fill="white" stroke="none" points="577,-456.75 413,-456.75 413,-423.25 577,-423.25 577,-456.75"/>
<text xml:space="preserve" text-anchor="start" x="417" y="-443.25" font-family="Helvetica,sans-Serif" font-size="10.00">net::config::ConfigAddress</text>
<text xml:space="preserve" text-anchor="start" x="417" y="-430.5" font-family="Helvetica,sans-Serif" font-size="10.00">Local&lt; net::in::SocketAddress &gt;</text>
<polygon fill="none" stroke="#666666" points="413,-423.25 413,-456.75 577,-456.75 577,-423.25 413,-423.25"/>
</a>
</g>
</g>
<!-- Node10&#45;&gt;Node19 -->
<g id="edge21_Node000019_Node000010" class="edge">
<title>Node10&#45;&gt;Node19</title>
<g id="a_edge21_Node000019_Node000010"><a xlink:title=" ">
<path fill="none" stroke="#63b8ff" d="M366.83,-508.33C396.96,-492.5 437.69,-471.1 465.08,-456.72"/>
<polygon fill="none" stroke="#63b8ff" points="365.21,-505.22 357.99,-512.97 368.47,-511.42 365.21,-505.22"/>
</a>
</g>
</g>
<!-- Node11 -->
<g id="Node000011" class="node">
<title>Node11</title>
<g id="a_Node000011"><a xlink:href="classnet_1_1config_1_1ConfigAddressBase.html" target="_top" xlink:title=" ">
<polygon fill="white" stroke="none" points="320.25,-637.25 157.75,-637.25 157.75,-603.75 320.25,-603.75 320.25,-637.25"/>
<text xml:space="preserve" text-anchor="start" x="161.75" y="-623.75" font-family="Helvetica,sans-Serif" font-size="10.00">net::config::ConfigAddress</text>
<text xml:space="preserve" text-anchor="start" x="161.75" y="-611" font-family="Helvetica,sans-Serif" font-size="10.00">Base&lt; net::in::SocketAddress &gt;</text>
<polygon fill="none" stroke="#666666" points="157.75,-603.75 157.75,-637.25 320.25,-637.25 320.25,-603.75 157.75,-603.75"/>
</a>
</g>
</g>
<!-- Node11&#45;&gt;Node10 -->
<g id="edge10_Node000010_Node000011" class="edge">
<title>Node11&#45;&gt;Node10</title>
<g id="a_edge10_Node000010_Node000011"><a xlink:title=" ">
<path fill="none" stroke="#63b8ff" d="M262.45,-595.99C278,-580.39 297.97,-560.36 311.55,-546.74"/>
<polygon fill="none" stroke="#63b8ff" points="259.98,-593.5 255.4,-603.06 264.94,-598.45 259.98,-593.5"/>
</a>
</g>
</g>
<!-- Node12&#45;&gt;Node11 -->
<g id="edge11_Node000011_Node000012" class="edge">
<title>Node12&#45;&gt;Node11</title>
<g id="a_edge11_Node000011_Node000012"><a xlink:title=" ">
<path fill="none" stroke="darkgreen" d="M153.05,-697.32C172.48,-680.18 202.36,-653.82 221.29,-637.12"/>
<polygon fill="none" stroke="darkgreen" points="150.77,-694.66 145.59,-703.9 155.4,-699.91 150.77,-694.66"/>
</a>
</g>
</g>
<!-- Node20 -->
<g id="Node000020" class="node">
<title>Node20</title>
<g id="a_Node000020"><a xlink:href="classnet_1_1config_1_1ConfigConnection.html" target="_top" xlink:title=" ">
<polygon fill="white" stroke="none" points="243,-585.75 91,-585.75 91,-565 243,-565 243,-585.75"/>
<text xml:space="preserve" text-anchor="start" x="95" y="-572.25" font-family="Helvetica,sans-Serif" font-size="10.00">net::config::ConfigConnection</text>
<polygon fill="none" stroke="#666666" points="91,-565 91,-585.75 243,-585.75 243,-565 91,-565"/>
</a>
</g>
</g>
<!-- Node12&#45;&gt;Node20 -->
<g id="edge23_Node000020_Node000012" class="edge">
<title>Node12&#45;&gt;Node20</title>
<g id="a_edge23_Node000020_Node000012"><a xlink:title=" ">
<path fill="none" stroke="darkgreen" d="M134.09,-693.71C134.8,-671.05 137.78,-633.71 149,-603.75 151.47,-597.14 155.77,-590.52 159.55,-585.44"/>
<polygon fill="none" stroke="darkgreen" points="130.6,-693.35 133.92,-703.41 137.6,-693.47 130.6,-693.35"/>
</a>
</g>
</g>
<!-- Node22 -->
<g id="Node000022" class="node">
<title>Node22</title>
<g id="a_Node000022"><a xlink:href="classnet_1_1config_1_1ConfigPhysicalSocket.html" target="_top" xlink:title=" ">
<polygon fill="white" stroke="none" points="643.88,-637.25 506.12,-637.25 506.12,-603.75 643.88,-603.75 643.88,-637.25"/>
<text xml:space="preserve" text-anchor="start" x="510.12" y="-623.75" font-family="Helvetica,sans-Serif" font-size="10.00">net::config::ConfigPhysical</text>
<text xml:space="preserve" text-anchor="start" x="558.88" y="-611" font-family="Helvetica,sans-Serif" font-size="10.00">Socket</text>
<polygon fill="none" stroke="#666666" points="506.12,-603.75 506.12,-637.25 643.88,-637.25 643.88,-603.75 506.12,-603.75"/>
</a>
</g>
</g>
<!-- Node12&#45;&gt;Node22 -->
<g id="edge26_Node000022_Node000012" class="edge">
<title>Node12&#45;&gt;Node22</title>
<g id="a_edge26_Node000022_Node000012"><a xlink:title=" ">
<path fill="none" stroke="darkgreen" d="M211.87,-708.32C272.51,-702.68 358.45,-692.22 432,-674 469.35,-664.75 510.44,-649.05 538.95,-637.23"/>
<polygon fill="none" stroke="darkgreen" points="211.62,-704.83 201.98,-709.21 212.25,-711.8 211.62,-704.83"/>
</a>
</g>
</g>
<!-- Node24 -->
<g id="Node000024" class="node">
<title>Node24</title>
<g id="a_Node000024"><a xlink:href="classnet_1_1config_1_1ConfigLegacy.html" target="_top" xlink:title=" ">
<polygon fill="white" stroke="none" points="146.88,-495.5 15.12,-495.5 15.12,-474.75 146.88,-474.75 146.88,-495.5"/>
<text xml:space="preserve" text-anchor="start" x="19.12" y="-482" font-family="Helvetica,sans-Serif" font-size="10.00">net::config::ConfigLegacy</text>
<polygon fill="none" stroke="#666666" points="15.12,-474.75 15.12,-495.5 146.88,-495.5 146.88,-474.75 15.12,-474.75"/>
</a>
</g>
</g>
<!-- Node12&#45;&gt;Node24 -->
<g id="edge29_Node000024_Node000012" class="edge">
<title>Node12&#45;&gt;Node24</title>
<g id="a_edge29_Node000024_Node000012"><a xlink:title=" ">
<path fill="none" stroke="darkgreen" d="M125.61,-694.48C115.39,-669.64 98.45,-625.35 90,-585.75 83.01,-552.97 81.44,-512.99 81.1,-495.3"/>
<polygon fill="none" stroke="darkgreen" points="122.34,-695.73 129.43,-703.6 128.79,-693.03 122.34,-695.73"/>
</a>
</g>
</g>
<!-- Node13&#45;&gt;Node10 -->
<g id="edge13_Node000010_Node000013" class="edge">
<title>Node13&#45;&gt;Node10</title>
<g id="a_edge13_Node000010_Node000013"><a xlink:title=" ">
<path fill="none" stroke="#63b8ff" d="M346.31,-793.04C343.59,-756.15 333.51,-619.57 329.1,-559.69"/>
<polygon fill="none" stroke="#63b8ff" points="329.1,-559.73 324.67,-554.04 328.22,-547.76 332.65,-553.45 329.1,-559.73"/>
</a>
</g>
<text xml:space="preserve" text-anchor="start" x="340.46" y="-661.5" font-family="Helvetica,sans-Serif" font-size="10.00" fill="grey">&#45;socketAddress</text>
</g>
<!-- Node14 -->
<g id="Node000014" class="node">
<title>Node14</title>
<g id="a_Node000014"><a xlink:href="classnet_1_1SocketAddress.html" target="_top" xlink:title=" ">
<polygon fill="white" stroke="none" points="372.5,-918.75 271.5,-918.75 271.5,-885.25 372.5,-885.25 372.5,-918.75"/>
<text xml:space="preserve" text-anchor="start" x="275.5" y="-905.25" font-family="Helvetica,sans-Serif" font-size="10.00">net::SocketAddress</text>
<text xml:space="preserve" text-anchor="start" x="281.5" y="-892.5" font-family="Helvetica,sans-Serif" font-size="10.00">&lt; sockaddr_in &gt;</text>
<polygon fill="none" stroke="#666666" points="271.5,-885.25 271.5,-918.75 372.5,-918.75 372.5,-885.25 271.5,-885.25"/>
</a>
</g>
</g>
<!-- Node14&#45;&gt;Node13 -->
<g id="edge14_Node000013_Node000014" class="edge">
<title>Node14&#45;&gt;Node13</title>
<g id="a_edge14_Node000013_Node000014"><a xlink:title=" ">
<path fill="none" stroke="#63b8ff" d="M330.04,-874.34C330.72,-871.94 331.38,-869.56 332,-867.25 337.1,-848.17 342.28,-825.61 345.01,-813.37"/>
<polygon fill="none" stroke="#63b8ff" points="326.72,-873.22 327.28,-883.8 333.44,-875.18 326.72,-873.22"/>
</a>
</g>
</g>
<!-- Node15 -->
<g id="Node000015" class="node">
<title>Node15</title>
<g id="a_Node000015"><a xlink:href="classcore_1_1socket_1_1SocketAddress.html" target="_top" xlink:title=" ">
<polygon fill="white" stroke="none" points="387.88,-1000.62 244.12,-1000.62 244.12,-979.88 387.88,-979.88 387.88,-1000.62"/>
<text xml:space="preserve" text-anchor="start" x="248.12" y="-987.12" font-family="Helvetica,sans-Serif" font-size="10.00">core::socket::SocketAddress</text>
<polygon fill="none" stroke="#666666" points="244.12,-979.88 244.12,-1000.62 387.88,-1000.62 387.88,-979.88 244.12,-979.88"/>
</a>
</g>
</g>
<!-- Node15&#45;&gt;Node14 -->
<g id="edge15_Node000014_Node000015" class="edge">
<title>Node15&#45;&gt;Node14</title>
<g id="a_edge15_Node000014_Node000015"><a xlink:title=" ">
<path fill="none" stroke="#63b8ff" d="M317.44,-968.61C318.51,-953.23 319.94,-932.55 320.92,-918.55"/>
<polygon fill="none" stroke="#63b8ff" points="313.95,-968.29 316.75,-978.51 320.93,-968.78 313.95,-968.29"/>
</a>
</g>
</g>
<!-- Node16 -->
<g id="Node000016" class="node">
<title>Node16</title>
<g id="a_Node000016"><a xlink:title=" ">
<polygon fill="white" stroke="none" points="515.88,-918.75 402.12,-918.75 402.12,-885.25 515.88,-885.25 515.88,-918.75"/>
<text xml:space="preserve" text-anchor="start" x="406.12" y="-905.25" font-family="Helvetica,sans-Serif" font-size="10.00">std::shared_ptr&lt; net</text>
<text xml:space="preserve" text-anchor="start" x="406.12" y="-892.5" font-family="Helvetica,sans-Serif" font-size="10.00">::in::SocketAddrInfo &gt;</text>
<polygon fill="none" stroke="#666666" points="402.12,-885.25 402.12,-918.75 515.88,-918.75 515.88,-885.25 402.12,-885.25"/>
</a>
</g>
</g>
<!-- Node16&#45;&gt;Node13 -->
<g id="edge17_Node000013_Node000016" class="edge">
<title>Node16&#45;&gt;Node13</title>
<g id="a_edge17_Node000013_Node000016"><a xlink:title=" ">
<path fill="none" stroke="#63b8ff" d="M441.01,-885.48C421,-868.21 388.73,-840.38 367.69,-822.23"/>
<polygon fill="none" stroke="#63b8ff" points="367.61,-822.15 360.45,-821.26 358.52,-814.31 365.68,-815.2 367.61,-822.15"/>
</a>
</g>
<text xml:space="preserve" text-anchor="start" x="422.58" y="-846.38" font-family="Helvetica,sans-Serif" font-size="10.00" fill="grey">&#45;socketAddrInfo</text>
</g>
<!-- Node17 -->
<g id="Node000017" class="node">
<title>Node17</title>
<g id="a_Node000017"><a xlink:href="classnet_1_1in_1_1SocketAddrInfo.html" target="_top" xlink:title=" ">
<polygon fill="white" stroke="none" points="524.12,-1000.62 405.88,-1000.62 405.88,-979.88 524.12,-979.88 524.12,-1000.62"/>
<text xml:space="preserve" text-anchor="start" x="409.88" y="-987.12" font-family="Helvetica,sans-Serif" font-size="10.00">net::in::SocketAddrInfo</text>
<polygon fill="none" stroke="#666666" points="405.88,-979.88 405.88,-1000.62 524.12,-1000.62 524.12,-979.88 405.88,-979.88"/>
</a>
</g>
</g>
<!-- Node17&#45;&gt;Node16 -->
<g id="edge18_Node000016_Node000017" class="edge">
<title>Node17&#45;&gt;Node16</title>
<g id="a_edge18_Node000016_Node000017"><a xlink:title=" ">
<path fill="none" stroke="#63b8ff" d="M464.36,-980.02C463.56,-968.49 462.15,-948.22 460.97,-931.37"/>
<polygon fill="none" stroke="#63b8ff" points="460.98,-931.42 456.57,-925.71 460.14,-919.45 464.55,-925.16 460.98,-931.42"/>
</a>
</g>
<text xml:space="preserve" text-anchor="start" x="465.54" y="-943" font-family="Helvetica,sans-Serif" font-size="10.00" fill="grey">+ptr</text>
</g>
<!-- Node18 -->
<g id="Node000018" class="node">
<title>Node18</title>
<g id="a_Node000018"><a xlink:href="classnet_1_1in_1_1config_1_1ConfigAddress.html" target="_top" xlink:title=" ">
<polygon fill="white" stroke="none" points="590.12,-353.75 405.88,-353.75 405.88,-320.25 590.12,-320.25 590.12,-353.75"/>
<text xml:space="preserve" text-anchor="start" x="409.88" y="-340.25" font-family="Helvetica,sans-Serif" font-size="10.00">net::in::config::ConfigAddress</text>
<text xml:space="preserve" text-anchor="start" x="409.88" y="-327.5" font-family="Helvetica,sans-Serif" font-size="10.00">&lt; net::config::ConfigAddressLocal &gt;</text>
<polygon fill="none" stroke="#666666" points="405.88,-320.25 405.88,-353.75 590.12,-353.75 590.12,-320.25 405.88,-320.25"/>
</a>
</g>
</g>
<!-- Node18&#45;&gt;Node7 -->
<g id="edge19_Node000007_Node000018" class="edge">
<title>Node18&#45;&gt;Node7</title>
<g id="a_edge19_Node000007_Node000018"><a xlink:title=" ">
<path fill="none" stroke="#63b8ff" d="M443.61,-316.51C415.11,-306.3 380.09,-293.76 350.59,-283.19"/>
<polygon fill="none" stroke="#63b8ff" points="442.17,-319.72 452.76,-319.79 444.53,-313.13 442.17,-319.72"/>
</a>
</g>
</g>
<!-- Node19&#45;&gt;Node18 -->
<g id="edge20_Node000018_Node000019" class="edge">
<title>Node19&#45;&gt;Node18</title>
<g id="a_edge20_Node000018_Node000019"><a xlink:title=" ">
<path fill="none" stroke="#63b8ff" d="M495.79,-412.3C496.35,-393.55 497.08,-369.11 497.54,-353.48"/>
<polygon fill="none" stroke="#63b8ff" points="492.3,-412.05 495.5,-422.15 499.3,-412.26 492.3,-412.05"/>
</a>
</g>
</g>
<!-- Node20&#45;&gt;Node7 -->
<g id="edge22_Node000007_Node000020" class="edge">
<title>Node20&#45;&gt;Node7</title>
<g id="a_edge22_Node000007_Node000020"><a xlink:title=" ">
<path fill="none" stroke="#63b8ff" d="M165.17,-553.81C163.75,-535.94 162,-509.34 162,-486.12 162,-486.12 162,-486.12 162,-336 162,-311.17 180.23,-294.41 202.88,-283.16"/>
<polygon fill="none" stroke="#63b8ff" points="161.67,-553.93 166,-563.6 168.65,-553.34 161.67,-553.93"/>
</a>
</g>
</g>
<!-- Node21 -->
<g id="Node000021" class="node">
<title>Node21</title>
<g id="a_Node000021"><a xlink:href="classnet_1_1config_1_1ConfigPhysicalSocketClient.html" target="_top" xlink:title=" ">
<polygon fill="white" stroke="none" points="684.88,-405.25 547.12,-405.25 547.12,-371.75 684.88,-371.75 684.88,-405.25"/>
<text xml:space="preserve" text-anchor="start" x="551.12" y="-391.75" font-family="Helvetica,sans-Serif" font-size="10.00">net::config::ConfigPhysical</text>
<text xml:space="preserve" text-anchor="start" x="585.62" y="-379" font-family="Helvetica,sans-Serif" font-size="10.00">SocketClient</text>
<polygon fill="none" stroke="#666666" points="547.12,-371.75 547.12,-405.25 684.88,-405.25 684.88,-371.75 547.12,-371.75"/>
</a>
</g>
</g>
<!-- Node21&#45;&gt;Node7 -->
<g id="edge24_Node000007_Node000021" class="edge">
<title>Node21&#45;&gt;Node7</title>
<g id="a_edge24_Node000007_Node000021"><a xlink:title=" ">
<path fill="none" stroke="#63b8ff" d="M615.76,-360.38C614.18,-346.53 609.84,-330.47 599,-320.25 567.35,-290.42 455.75,-274.85 375.52,-267.33"/>
<polygon fill="none" stroke="#63b8ff" points="612.26,-360.55 616.43,-370.29 619.25,-360.07 612.26,-360.55"/>
</a>
</g>
</g>
<!-- Node22&#45;&gt;Node21 -->
<g id="edge25_Node000021_Node000022" class="edge">
<title>Node22&#45;&gt;Node21</title>
<g id="a_edge25_Node000021_Node000022"><a xlink:title=" ">
<path fill="none" stroke="#63b8ff" d="M579.73,-592.98C588.33,-544.73 606.29,-443.97 613.2,-405.18"/>
<polygon fill="none" stroke="#63b8ff" points="576.33,-592.1 578.02,-602.56 583.22,-593.33 576.33,-592.1"/>
</a>
</g>
</g>
<!-- Node23 -->
<g id="Node000023" class="node">
<title>Node23</title>
<g id="a_Node000023"><a xlink:title=" ">
<polygon fill="white" stroke="none" points="645.75,-738.25 504.25,-738.25 504.25,-692 645.75,-692 645.75,-738.25"/>
<text xml:space="preserve" text-anchor="start" x="508.25" y="-724.75" font-family="Helvetica,sans-Serif" font-size="10.00">std::map&lt; int, std</text>
<text xml:space="preserve" text-anchor="start" x="508.25" y="-712" font-family="Helvetica,sans-Serif" font-size="10.00">::map&lt; int, net::phy</text>
<text xml:space="preserve" text-anchor="start" x="508.25" y="-699.25" font-family="Helvetica,sans-Serif" font-size="10.00">::PhysicalSocketOption &gt; &gt;</text>
<polygon fill="none" stroke="#666666" points="504.25,-692 504.25,-738.25 645.75,-738.25 645.75,-692 504.25,-692"/>
</a>
</g>
</g>
<!-- Node23&#45;&gt;Node22 -->
<g id="edge27_Node000022_Node000023" class="edge">
<title>Node23&#45;&gt;Node22</title>
<g id="a_edge27_Node000022_Node000023"><a xlink:title=" ">
<path fill="none" stroke="#63b8ff" d="M575,-692.17C575,-679.63 575,-663.75 575,-650.22"/>
<polygon fill="none" stroke="#63b8ff" points="575,-650.11 571,-644.11 575,-638.11 579,-644.11 575,-650.11"/>
</a>
</g>
<text xml:space="preserve" text-anchor="start" x="578" y="-661.5" font-family="Helvetica,sans-Serif" font-size="10.00" fill="grey">&#45;socketOptionsMapMap</text>
</g>
<!-- Node24&#45;&gt;Node2 -->
<g id="edge28_Node000002_Node000024" class="edge">
<title>Node24&#45;&gt;Node2</title>
<g id="a_edge28_Node000002_Node000024"><a xlink:title=" ">
<path fill="none" stroke="#63b8ff" d="M81,-463.52C81,-444.35 81,-414.99 81,-389.5 81,-389.5 81,-389.5 81,-182.25 81,-164.62 81,-144.83 81,-129.2"/>
<polygon fill="none" stroke="#63b8ff" points="77.5,-463.48 81,-473.48 84.5,-463.48 77.5,-463.48"/>
</a>
</g>
</g>
</g>
</svg>
