<?xml version="1.0" encoding="UTF-8" standalone="no"?>
<!DOCTYPE svg PUBLIC "-//W3C//DTD SVG 1.1//EN"
 "http://www.w3.org/Graphics/SVG/1.1/DTD/svg11.dtd">
<!-- Generated by graphviz version 2.43.0 (0)
 -->
<!-- Title: iot::mqtt::server::Mqtt::_onDisconnect Pages: 1 -->
<svg width="848pt" height="220pt"
 viewBox="0.00 0.00 848.00 219.50" xmlns="http://www.w3.org/2000/svg" xmlns:xlink="http://www.w3.org/1999/xlink">
<g id="graph0" class="graph" transform="scale(1 1) rotate(0) translate(4 215.5)">
<title>iot::mqtt::server::Mqtt::_onDisconnect</title>
<!-- Node1 -->
<g id="Node000001" class="node">
<title>Node1</title>
<g id="a_Node000001"><a xlink:title=" ">
<polygon fill="#999999" stroke="#666666" points="116,-150 0,-150 0,-120 116,-120 116,-150"/>
<text text-anchor="start" x="8" y="-138" font-family="Helvetica,sans-Serif" font-size="10.00">iot::mqtt::server::</text>
<text text-anchor="middle" x="58" y="-127" font-family="Helvetica,sans-Serif" font-size="10.00">Mqtt::_onDisconnect</text>
</a>
</g>
</g>
<!-- Node2 -->
<g id="Node000002" class="node">
<title>Node2</title>
<g id="a_Node000002"><a xlink:href="classiot_1_1mqtt_1_1MqttContext.html#ada10a6f2fcf6953ed62d93bdb5907cd1" target="_top" xlink:title=" ">
<polygon fill="white" stroke="#666666" points="306,-211.5 157,-211.5 157,-192.5 306,-192.5 306,-211.5"/>
<text text-anchor="middle" x="231.5" y="-199.5" font-family="Helvetica,sans-Serif" font-size="10.00">iot::mqtt::MqttContext::end</text>
</a>
</g>
</g>
<!-- Node1&#45;&gt;Node2 -->
<g id="edge1_Node000001_Node000002" class="edge">
<title>Node1&#45;&gt;Node2</title>
<g id="a_edge1_Node000001_Node000002"><a xlink:title=" ">
<path fill="none" stroke="#63b8ff" d="M84.3,-150.16C102.59,-160.59 128.17,-174.11 152,-183 158.77,-185.53 166,-187.81 173.23,-189.84"/>
<polygon fill="#63b8ff" stroke="#63b8ff" points="172.48,-193.26 183.04,-192.45 174.28,-186.49 172.48,-193.26"/>
</a>
</g>
</g>
<!-- Node3 -->
<g id="Node000003" class="node">
<title>Node3</title>
<g id="a_Node000003"><a xlink:href="classiot_1_1mqtt_1_1server_1_1Mqtt.html#a6e956034ffe8d67b55582c6a79521b47" target="_top" xlink:title=" ">
<polygon fill="white" stroke="#666666" points="287,-174 176,-174 176,-144 287,-144 287,-174"/>
<text text-anchor="start" x="184" y="-162" font-family="Helvetica,sans-Serif" font-size="10.00">iot::mqtt::server::</text>
<text text-anchor="middle" x="231.5" y="-151" font-family="Helvetica,sans-Serif" font-size="10.00">Mqtt::onDisconnect</text>
</a>
</g>
</g>
<!-- Node1&#45;&gt;Node3 -->
<g id="edge2_Node000001_Node000003" class="edge">
<title>Node1&#45;&gt;Node3</title>
<g id="a_edge2_Node000001_Node000003"><a xlink:title=" ">
<path fill="none" stroke="#63b8ff" d="M116.11,-142.99C132.08,-145.23 149.56,-147.67 165.94,-149.96"/>
<polygon fill="#63b8ff" stroke="#63b8ff" points="165.58,-153.45 175.97,-151.37 166.55,-146.52 165.58,-153.45"/>
</a>
</g>
</g>
<!-- Node4 -->
<g id="Node000004" class="node">
<title>Node4</title>
<g id="a_Node000004"><a xlink:href="classiot_1_1mqtt_1_1Mqtt.html#aad0ebe3e81b0c159295be7ff0c491bd1" target="_top" xlink:title=" ">
<polygon fill="white" stroke="#666666" points="311,-126 152,-126 152,-96 311,-96 311,-126"/>
<text text-anchor="start" x="160" y="-114" font-family="Helvetica,sans-Serif" font-size="10.00">iot::mqtt::Mqtt::printStandard</text>
<text text-anchor="middle" x="231.5" y="-103" font-family="Helvetica,sans-Serif" font-size="10.00">Header</text>
</a>
</g>
</g>
<!-- Node1&#45;&gt;Node4 -->
<g id="edge3_Node000001_Node000004" class="edge">
<title>Node1&#45;&gt;Node4</title>
<g id="a_edge3_Node000001_Node000004"><a xlink:title=" ">
<path fill="none" stroke="#63b8ff" d="M116.11,-127.01C124.46,-125.84 133.22,-124.61 142.03,-123.38"/>
<polygon fill="#63b8ff" stroke="#63b8ff" points="142.54,-126.84 151.96,-121.99 141.57,-119.91 142.54,-126.84"/>
</a>
</g>
</g>
<!-- Node12 -->
<g id="Node000012" class="node">
<title>Node12</title>
<g id="a_Node000012"><a xlink:href="classiot_1_1mqtt_1_1server_1_1Mqtt.html#a218093aeea1108aba67ebceb242f8681" target="_top" xlink:title=" ">
<polygon fill="white" stroke="#666666" points="291,-78 172,-78 172,-48 291,-48 291,-78"/>
<text text-anchor="start" x="180" y="-66" font-family="Helvetica,sans-Serif" font-size="10.00">iot::mqtt::server::</text>
<text text-anchor="middle" x="231.5" y="-55" font-family="Helvetica,sans-Serif" font-size="10.00">Mqtt::releaseSession</text>
</a>
</g>
</g>
<!-- Node1&#45;&gt;Node12 -->
<g id="edge11_Node000001_Node000012" class="edge">
<title>Node1&#45;&gt;Node12</title>
<g id="a_edge11_Node000001_Node000012"><a xlink:title=" ">
<path fill="none" stroke="#63b8ff" d="M85.26,-119.83C103.57,-109.66 128.78,-96.45 152,-87 156.75,-85.07 161.71,-83.21 166.73,-81.43"/>
<polygon fill="#63b8ff" stroke="#63b8ff" points="168.08,-84.67 176.42,-78.13 165.83,-78.04 168.08,-84.67"/>
</a>
</g>
</g>
<!-- Node5 -->
<g id="Node000005" class="node">
<title>Node5</title>
<g id="a_Node000005"><a xlink:href="classiot_1_1mqtt_1_1Mqtt.html#ab70d673e9ccb125cb5ed2449cfa1492c" target="_top" xlink:title=" ">
<polygon fill="white" stroke="#666666" points="492,-198 347,-198 347,-168 492,-168 492,-198"/>
<text text-anchor="start" x="355" y="-186" font-family="Helvetica,sans-Serif" font-size="10.00">iot::mqtt::Mqtt::dataToHex</text>
<text text-anchor="middle" x="419.5" y="-175" font-family="Helvetica,sans-Serif" font-size="10.00">String</text>
</a>
</g>
</g>
<!-- Node4&#45;&gt;Node5 -->
<g id="edge4_Node000004_Node000005" class="edge">
<title>Node4&#45;&gt;Node5</title>
<g id="a_edge4_Node000004_Node000005"><a xlink:title=" ">
<path fill="none" stroke="#63b8ff" d="M289,-126.09C296.53,-128.73 304.05,-131.71 311,-135 328.38,-143.23 329.73,-150.53 347,-159 350.77,-160.85 354.72,-162.61 358.74,-164.28"/>
<polygon fill="#63b8ff" stroke="#63b8ff" points="357.62,-167.6 368.2,-168 360.18,-161.08 357.62,-167.6"/>
</a>
</g>
</g>
<!-- Node6 -->
<g id="Node000006" class="node">
<title>Node6</title>
<g id="a_Node000006"><a xlink:href="classiot_1_1mqtt_1_1ControlPacket.html#a5010a3ec8f0c9d1a95b1fd1e85d77f71" target="_top" xlink:title=" ">
<polygon fill="white" stroke="#666666" points="485.5,-150 353.5,-150 353.5,-120 485.5,-120 485.5,-150"/>
<text text-anchor="start" x="361.5" y="-138" font-family="Helvetica,sans-Serif" font-size="10.00">iot::mqtt::ControlPacket</text>
<text text-anchor="middle" x="419.5" y="-127" font-family="Helvetica,sans-Serif" font-size="10.00">::getFlags</text>
</a>
</g>
</g>
<!-- Node4&#45;&gt;Node6 -->
<g id="edge5_Node000004_Node000006" class="edge">
<title>Node4&#45;&gt;Node6</title>
<g id="a_edge5_Node000004_Node000006"><a xlink:title=" ">
<path fill="none" stroke="#63b8ff" d="M311.11,-121.14C321.78,-122.52 332.71,-123.93 343.32,-125.3"/>
<polygon fill="#63b8ff" stroke="#63b8ff" points="343,-128.79 353.37,-126.6 343.9,-121.84 343,-128.79"/>
</a>
</g>
</g>
<!-- Node7 -->
<g id="Node000007" class="node">
<title>Node7</title>
<g id="a_Node000007"><a xlink:href="classiot_1_1mqtt_1_1ControlPacket.html#a2010ac4f0ef53a8c8140faa953b5a6cd" target="_top" xlink:title=" ">
<polygon fill="white" stroke="#666666" points="485.5,-102 353.5,-102 353.5,-72 485.5,-72 485.5,-102"/>
<text text-anchor="start" x="361.5" y="-90" font-family="Helvetica,sans-Serif" font-size="10.00">iot::mqtt::ControlPacket</text>
<text text-anchor="middle" x="419.5" y="-79" font-family="Helvetica,sans-Serif" font-size="10.00">::getType</text>
</a>
</g>
</g>
<!-- Node4&#45;&gt;Node7 -->
<g id="edge6_Node000004_Node000007" class="edge">
<title>Node4&#45;&gt;Node7</title>
<g id="a_edge6_Node000004_Node000007"><a xlink:title=" ">
<path fill="none" stroke="#63b8ff" d="M311.11,-100.86C321.78,-99.48 332.71,-98.07 343.32,-96.7"/>
<polygon fill="#63b8ff" stroke="#63b8ff" points="343.9,-100.16 353.37,-95.4 343,-93.21 343.9,-100.16"/>
</a>
</g>
</g>
<!-- Node8 -->
<g id="Node000008" class="node">
<title>Node8</title>
<g id="a_Node000008"><a xlink:href="classiot_1_1mqtt_1_1ControlPacket.html#a05bfc24d7ae7380ef9b2fcb64ce37526" target="_top" xlink:title=" ">
<polygon fill="white" stroke="#666666" points="485.5,-54 353.5,-54 353.5,-24 485.5,-24 485.5,-54"/>
<text text-anchor="start" x="361.5" y="-42" font-family="Helvetica,sans-Serif" font-size="10.00">iot::mqtt::ControlPacket</text>
<text text-anchor="middle" x="419.5" y="-31" font-family="Helvetica,sans-Serif" font-size="10.00">::serialize</text>
</a>
</g>
</g>
<!-- Node4&#45;&gt;Node8 -->
<g id="edge7_Node000004_Node000008" class="edge">
<title>Node4&#45;&gt;Node8</title>
<g id="a_edge7_Node000004_Node000008"><a xlink:title=" ">
<path fill="none" stroke="#63b8ff" d="M289,-95.91C296.53,-93.27 304.05,-90.29 311,-87 328.38,-78.77 329.73,-71.47 347,-63 350.77,-61.15 354.72,-59.39 358.74,-57.72"/>
<polygon fill="#63b8ff" stroke="#63b8ff" points="360.18,-60.92 368.2,-54 357.62,-54.4 360.18,-60.92"/>
</a>
</g>
</g>
<!-- Node9 -->
<g id="Node000009" class="node">
<title>Node9</title>
<g id="a_Node000009"><a xlink:href="classiot_1_1mqtt_1_1FixedHeader.html#a8f92f1f71ca75c3516c7ba3ff7b0ebf5" target="_top" xlink:title=" ">
<polygon fill="white" stroke="#666666" points="656.5,-78 531.5,-78 531.5,-48 656.5,-48 656.5,-78"/>
<text text-anchor="start" x="539.5" y="-66" font-family="Helvetica,sans-Serif" font-size="10.00">iot::mqtt::FixedHeader</text>
<text text-anchor="middle" x="594" y="-55" font-family="Helvetica,sans-Serif" font-size="10.00">::serialize</text>
</a>
</g>
</g>
<!-- Node8&#45;&gt;Node9 -->
<g id="edge8_Node000008_Node000009" class="edge">
<title>Node8&#45;&gt;Node9</title>
<g id="a_edge8_Node000008_Node000009"><a xlink:title=" ">
<path fill="none" stroke="#63b8ff" d="M485.71,-48.07C497.3,-49.69 509.42,-51.37 521.18,-53.01"/>
<polygon fill="#63b8ff" stroke="#63b8ff" points="521.01,-56.52 531.4,-54.43 521.97,-49.58 521.01,-56.52"/>
</a>
</g>
</g>
<!-- Node11 -->
<g id="Node000011" class="node">
<title>Node11</title>
<g id="a_Node000011"><a xlink:href="classiot_1_1mqtt_1_1ControlPacket.html#ab4f58bf0c1920d705af23c8d7636247f" target="_top" xlink:title=" ">
<polygon fill="white" stroke="#666666" points="660,-30 528,-30 528,0 660,0 660,-30"/>
<text text-anchor="start" x="536" y="-18" font-family="Helvetica,sans-Serif" font-size="10.00">iot::mqtt::ControlPacket</text>
<text text-anchor="middle" x="594" y="-7" font-family="Helvetica,sans-Serif" font-size="10.00">::serializeVP</text>
</a>
</g>
</g>
<!-- Node8&#45;&gt;Node11 -->
<g id="edge10_Node000008_Node000011" class="edge">
<title>Node8&#45;&gt;Node11</title>
<g id="a_edge10_Node000008_Node000011"><a xlink:title=" ">
<path fill="none" stroke="#63b8ff" d="M485.71,-29.93C496.2,-28.47 507.12,-26.95 517.82,-25.46"/>
<polygon fill="#63b8ff" stroke="#63b8ff" points="518.56,-28.89 527.98,-24.05 517.59,-21.96 518.56,-28.89"/>
</a>
</g>
</g>
<!-- Node10 -->
<g id="Node000010" class="node">
<title>Node10</title>
<g id="a_Node000010"><a xlink:href="classiot_1_1mqtt_1_1types_1_1TypeBase.html#a7e6939bfafb586b2c2990b485bc5218a" target="_top" xlink:title=" ">
<polygon fill="white" stroke="#666666" points="840,-78 696,-78 696,-48 840,-48 840,-78"/>
<text text-anchor="start" x="704" y="-66" font-family="Helvetica,sans-Serif" font-size="10.00">iot::mqtt::types::TypeBase</text>
<text text-anchor="middle" x="768" y="-55" font-family="Helvetica,sans-Serif" font-size="10.00">::serialize</text>
</a>
</g>
</g>
<!-- Node9&#45;&gt;Node10 -->
<g id="edge9_Node000009_Node000010" class="edge">
<title>Node9&#45;&gt;Node10</title>
<g id="a_edge9_Node000009_Node000010"><a xlink:title=" ">
<path fill="none" stroke="#63b8ff" d="M656.61,-63C666.05,-63 675.93,-63 685.71,-63"/>
<polygon fill="#63b8ff" stroke="#63b8ff" points="685.87,-66.5 695.87,-63 685.87,-59.5 685.87,-66.5"/>
</a>
</g>
</g>
</g>
</svg>
