<?xml version="1.0" encoding="UTF-8" standalone="no"?>
<!DOCTYPE svg PUBLIC "-//W3C//DTD SVG 1.1//EN"
 "http://www.w3.org/Graphics/SVG/1.1/DTD/svg11.dtd">
<!-- Generated by graphviz version 2.42.4 (0)
 -->
<!-- Title: net::rc::SocketAddress::setBtAddress Pages: 1 -->
<!--zoomable 312 -->

<svg id="main" version="1.1" xmlns="http://www.w3.org/2000/svg" xmlns:xlink="http://www.w3.org/1999/xlink" xml:space="preserve" onload="init(evt)">

<style type="text/css"><![CDATA[
.node, .edge {opacity: 0.7;}
.node.selected, .edge.selected {opacity: 1;}
.edge:hover path { stroke: red; }
.edge:hover polygon { stroke: red; fill: red; }
]]></style>

<defs>
  <circle id="rim" cx="0" cy="0" r="7"/>
  <circle id="rim2" cx="0" cy="0" r="3.5"/>
  <g id="zoomPlus">
    <use xlink:href="#rim" fill="#404040"><set attributeName="fill" to="#808080" begin="zoomplus.mouseover" end="zoomplus.mouseout"/></use>
    <path d="M-4,0h8M0,-4v8" fill="none" stroke="white" stroke-width="1.5" pointer-events="none"/>
  </g>
  <g id="zoomMin">
    <use xlink:href="#rim" fill="#404040"><set attributeName="fill" to="#808080" begin="zoomminus.mouseover" end="zoomminus.mouseout"/></use>
    <path d="M-4,0h8" fill="none" stroke="white" stroke-width="1.5" pointer-events="none"/>
  </g>
  <g id="arrowUp" transform="translate(30 24)">
    <use xlink:href="#rim"/>
    <path pointer-events="none" fill="none" stroke="white" stroke-width="1.5" d="M0,-3.0v7 M-2.5,-0.5L0,-3.0L2.5,-0.5"/>
  </g>
  <g id="arrowRight" transform="rotate(90) translate(36 -43)">
    <use xlink:href="#rim"/>
    <path pointer-events="none" fill="none" stroke="white" stroke-width="1.5" d="M0,-3.0v7 M-2.5,-0.5L0,-3.0L2.5,-0.5"/>
  </g>
  <g id="arrowDown" transform="rotate(180) translate(-30 -48)">
    <use xlink:href="#rim"/>
    <path pointer-events="none" fill="none" stroke="white" stroke-width="1.5" d="M0,-3.0v7 M-2.5,-0.5L0,-3.0L2.5,-0.5"/>
  </g>
  <g id="arrowLeft" transform="rotate(270) translate(-36 17)">
    <use xlink:href="#rim"/>
    <path pointer-events="none" fill="none" stroke="white" stroke-width="1.5" d="M0,-3.0v7 M-2.5,-0.5L0,-3.0L2.5,-0.5"/>
  </g>
  <g id="resetDef">
    <use xlink:href="#rim2" fill="#404040"><set attributeName="fill" to="#808080" begin="reset.mouseover" end="reset.mouseout"/></use>
  </g>
</defs>
<script type="application/ecmascript">
var viewWidth = 554;
var viewHeight = 312;
var sectionId = 'dynsection-12';
</script>
<script type="application/ecmascript" xlink:href="svg.min.js"/>
<svg id="graph" class="graph">
<g id="viewport">
<title>net::rc::SocketAddress::setBtAddress</title>
<!-- Node1 -->
<g id="Node000001" class="node">
<title>Node1</title>
<g id="a_Node000001"><a xlink:title=" ">
<polygon fill="#999999" stroke="#666666" points="546,-174 421,-174 421,-144 546,-144 546,-174"/>
<text text-anchor="start" x="429" y="-162" font-family="Helvetica,sans-Serif" font-size="10.00">net::rc::SocketAddress</text>
<text text-anchor="middle" x="483.5" y="-151" font-family="Helvetica,sans-Serif" font-size="10.00">::setBtAddress</text>
</a>
</g>
</g>
<!-- Node2 -->
<g id="Node000002" class="node">
<title>Node2</title>
<g id="a_Node000002"><a xlink:href="classnet_1_1rc_1_1SocketAddress.html#a7fb9a2440f8e17170c9b6ad02b2eab97" target="_top" xlink:title=" ">
<polygon fill="white" stroke="#666666" points="385,-198 260,-198 260,-168 385,-168 385,-198"/>
<text text-anchor="start" x="268" y="-186" font-family="Helvetica,sans-Serif" font-size="10.00">net::rc::SocketAddress</text>
<text text-anchor="middle" x="322.5" y="-175" font-family="Helvetica,sans-Serif" font-size="10.00">::SocketAddress</text>
</a>
</g>
</g>
<!-- Node1&#45;&gt;Node2 -->
<g id="edge1_Node000001_Node000002" class="edge">
<title>Node1&#45;&gt;Node2</title>
<g id="a_edge1_Node000001_Node000002"><a xlink:title=" ">
<path fill="none" stroke="#63b8ff" d="M410.41,-169.88C402.01,-171.15 393.5,-172.43 385.26,-173.68"/>
<polygon fill="#63b8ff" stroke="#63b8ff" points="411.21,-173.3 420.57,-168.35 410.16,-166.38 411.21,-173.3"/>
</a>
</g>
</g>
<!-- Node3 -->
<g id="Node000003" class="node">
<title>Node3</title>
<g id="a_Node000003"><a xlink:href="classnet_1_1rc_1_1SocketAddress.html#a4b5bf908d8cf00162d68918357184a66" target="_top" xlink:title=" ">
<polygon fill="white" stroke="#666666" points="385,-150 260,-150 260,-120 385,-120 385,-150"/>
<text text-anchor="start" x="268" y="-138" font-family="Helvetica,sans-Serif" font-size="10.00">net::rc::SocketAddress</text>
<text text-anchor="middle" x="322.5" y="-127" font-family="Helvetica,sans-Serif" font-size="10.00">::SocketAddress</text>
</a>
</g>
</g>
<!-- Node1&#45;&gt;Node3 -->
<g id="edge2_Node000001_Node000003" class="edge">
<title>Node1&#45;&gt;Node3</title>
<g id="a_edge2_Node000001_Node000003"><a xlink:title=" ">
<path fill="none" stroke="#63b8ff" d="M410.41,-148.12C402.01,-146.85 393.5,-145.57 385.26,-144.32"/>
<polygon fill="#63b8ff" stroke="#63b8ff" points="410.16,-151.62 420.57,-149.65 411.21,-144.7 410.16,-151.62"/>
</a>
</g>
</g>
<!-- Node4 -->
<g id="Node000004" class="node">
<title>Node4</title>
<g id="a_Node000004"><a xlink:href="classnet_1_1rc_1_1stream_1_1SocketClient.html#a492485f6e7c23e7e6a3505d68ff36dce" target="_top" xlink:title=" ">
<polygon fill="white" stroke="#666666" points="224,-303.5 0,-303.5 0,-240.5 224,-240.5 224,-303.5"/>
<text text-anchor="start" x="8" y="-291.5" font-family="Helvetica,sans-Serif" font-size="10.00">net::rc::stream::SocketClient</text>
<text text-anchor="start" x="8" y="-280.5" font-family="Helvetica,sans-Serif" font-size="10.00">&lt; core::socket::stream::legacy</text>
<text text-anchor="start" x="8" y="-269.5" font-family="Helvetica,sans-Serif" font-size="10.00">::SocketConnector, net::rc::stream</text>
<text text-anchor="start" x="8" y="-258.5" font-family="Helvetica,sans-Serif" font-size="10.00">::legacy::config::ConfigSocketClient,</text>
<text text-anchor="middle" x="112" y="-247.5" font-family="Helvetica,sans-Serif" font-size="10.00"> SocketContextFactoryT, Args... &gt;::connect</text>
</a>
</g>
</g>
<!-- Node3&#45;&gt;Node4 -->
<g id="edge3_Node000003_Node000004" class="edge">
<title>Node3&#45;&gt;Node4</title>
<g id="a_edge3_Node000003_Node000004"><a xlink:title=" ">
<path fill="none" stroke="#63b8ff" d="M264.02,-155.66C262.62,-156.72 261.28,-157.83 260,-159 233.57,-183.11 250.65,-207.13 224,-231 220.17,-234.43 216.04,-237.58 211.69,-240.47"/>
<polygon fill="#63b8ff" stroke="#63b8ff" points="266.03,-158.52 272.49,-150.12 262.2,-152.66 266.03,-158.52"/>
</a>
</g>
</g>
<!-- Node5 -->
<g id="Node000005" class="node">
<title>Node5</title>
<g id="a_Node000005"><a xlink:href="namespaceweb_1_1http_1_1legacy_1_1rc.html#a6171de510922f92258358dd967087490" target="_top" xlink:title=" ">
<polygon fill="white" stroke="#666666" points="165,-222 59,-222 59,-192 165,-192 165,-222"/>
<text text-anchor="start" x="67" y="-210" font-family="Helvetica,sans-Serif" font-size="10.00">web::http::legacy::</text>
<text text-anchor="middle" x="112" y="-199" font-family="Helvetica,sans-Serif" font-size="10.00">rc::EventSource</text>
</a>
</g>
</g>
<!-- Node3&#45;&gt;Node5 -->
<g id="edge4_Node000003_Node000005" class="edge">
<title>Node3&#45;&gt;Node5</title>
<g id="a_edge4_Node000003_Node000005"><a xlink:title=" ">
<path fill="none" stroke="#63b8ff" d="M270.07,-154.1C266.63,-155.67 263.24,-157.31 260,-159 242.94,-167.88 241.71,-175.5 224,-183 205.48,-190.84 184.1,-196.24 165.07,-199.91"/>
<polygon fill="#63b8ff" stroke="#63b8ff" points="271.51,-157.29 279.28,-150.08 268.71,-150.87 271.51,-157.29"/>
</a>
</g>
</g>
<!-- Node6 -->
<g id="Node000006" class="node">
<title>Node6</title>
<g id="a_Node000006"><a xlink:href="namespaceweb_1_1http_1_1legacy_1_1rc.html#a3068409d2605a4909d03a186f46b1b92" target="_top" xlink:title=" ">
<polygon fill="white" stroke="#666666" points="165,-174 59,-174 59,-144 165,-144 165,-174"/>
<text text-anchor="start" x="67" y="-162" font-family="Helvetica,sans-Serif" font-size="10.00">web::http::legacy::</text>
<text text-anchor="middle" x="112" y="-151" font-family="Helvetica,sans-Serif" font-size="10.00">rc::EventSource</text>
</a>
</g>
</g>
<!-- Node3&#45;&gt;Node6 -->
<g id="edge5_Node000003_Node000006" class="edge">
<title>Node3&#45;&gt;Node6</title>
<g id="a_edge5_Node000003_Node000006"><a xlink:title=" ">
<path fill="none" stroke="#63b8ff" d="M249.71,-143.26C221.89,-146.47 190.64,-150.06 165.05,-153.01"/>
<polygon fill="#63b8ff" stroke="#63b8ff" points="250.26,-146.72 259.79,-142.1 249.45,-139.77 250.26,-146.72"/>
</a>
</g>
</g>
<!-- Node7 -->
<g id="Node000007" class="node">
<title>Node7</title>
<g id="a_Node000007"><a xlink:href="namespaceweb_1_1http_1_1tls_1_1rc.html#a9cde3075d2aad932cacaa0b836105ea6" target="_top" xlink:title=" ">
<polygon fill="white" stroke="#666666" points="159.5,-126 64.5,-126 64.5,-96 159.5,-96 159.5,-126"/>
<text text-anchor="start" x="72.5" y="-114" font-family="Helvetica,sans-Serif" font-size="10.00">web::http::tls::rc</text>
<text text-anchor="middle" x="112" y="-103" font-family="Helvetica,sans-Serif" font-size="10.00">::EventSource</text>
</a>
</g>
</g>
<!-- Node3&#45;&gt;Node7 -->
<g id="edge6_Node000003_Node000007" class="edge">
<title>Node3&#45;&gt;Node7</title>
<g id="a_edge6_Node000003_Node000007"><a xlink:title=" ">
<path fill="none" stroke="#63b8ff" d="M249.84,-126.75C219.99,-123.32 186.19,-119.42 159.64,-116.37"/>
<polygon fill="#63b8ff" stroke="#63b8ff" points="249.45,-130.23 259.79,-127.9 250.26,-123.28 249.45,-130.23"/>
</a>
</g>
</g>
<!-- Node8 -->
<g id="Node000008" class="node">
<title>Node8</title>
<g id="a_Node000008"><a xlink:href="namespaceweb_1_1http_1_1tls_1_1rc.html#aaf43903f22d218d5f43cae004c7101b4" target="_top" xlink:title=" ">
<polygon fill="white" stroke="#666666" points="159.5,-78 64.5,-78 64.5,-48 159.5,-48 159.5,-78"/>
<text text-anchor="start" x="72.5" y="-66" font-family="Helvetica,sans-Serif" font-size="10.00">web::http::tls::rc</text>
<text text-anchor="middle" x="112" y="-55" font-family="Helvetica,sans-Serif" font-size="10.00">::EventSource</text>
</a>
</g>
</g>
<!-- Node3&#45;&gt;Node8 -->
<g id="edge7_Node000003_Node000008" class="edge">
<title>Node3&#45;&gt;Node8</title>
<g id="a_edge7_Node000003_Node000008"><a xlink:title=" ">
<path fill="none" stroke="#63b8ff" d="M286.32,-115.08C268.17,-105.47 245.39,-94.45 224,-87 203.33,-79.8 179.72,-74.33 159.6,-70.45"/>
<polygon fill="#63b8ff" stroke="#63b8ff" points="284.9,-118.28 295.36,-119.94 288.21,-112.12 284.9,-118.28"/>
</a>
</g>
</g>
<!-- Node9 -->
<g id="Node000009" class="node">
<title>Node9</title>
<g id="a_Node000009"><a xlink:href="classnet_1_1rc_1_1config_1_1ConfigAddress.html#a1abb7a953202db98625b2591590ea420" target="_top" xlink:title=" ">
<polygon fill="white" stroke="#666666" points="192,-30 32,-30 32,0 192,0 192,-30"/>
<text text-anchor="start" x="40" y="-18" font-family="Helvetica,sans-Serif" font-size="10.00">net::rc::config::ConfigAddress</text>
<text text-anchor="middle" x="112" y="-7" font-family="Helvetica,sans-Serif" font-size="10.00">::init</text>
</a>
</g>
</g>
<!-- Node3&#45;&gt;Node9 -->
<g id="edge8_Node000003_Node000009" class="edge">
<title>Node3&#45;&gt;Node9</title>
<g id="a_edge8_Node000003_Node000009"><a xlink:title=" ">
<path fill="none" stroke="#63b8ff" d="M304.33,-111.71C286.69,-89.52 257.17,-56.92 224,-39 214.11,-33.66 203.12,-29.51 192.02,-26.28"/>
<polygon fill="#63b8ff" stroke="#63b8ff" points="301.6,-113.9 310.5,-119.65 307.13,-109.61 301.6,-113.9"/>
</a>
</g>
</g>
</g>
</svg>

<g id="navigator" transform="translate(0 0)" fill="#404254">
  <rect fill="#f2f5e9" fill-opacity="0.5" stroke="#606060" stroke-width=".5" x="0" y="0" width="60" height="60"/>
  <use id="zoomplus" xlink:href="#zoomPlus" x="17" y="9" onmousedown="handleZoom(evt,'in')"/>
  <use id="zoomminus" xlink:href="#zoomMin" x="42" y="9" onmousedown="handleZoom(evt,'out')"/>
  <use id="reset" xlink:href="#resetDef" x="30" y="36" onmousedown="handleReset()"/>
   <use id="arrowup" xlink:href="#arrowUp" x="0" y="0" onmousedown="handlePan(0,-1)"/>
  <use id="arrowright" xlink:href="#arrowRight" x="0" y="0" onmousedown="handlePan(1,0)"/>
  <use id="arrowdown" xlink:href="#arrowDown" x="0" y="0" onmousedown="handlePan(0,1)"/>
  <use id="arrowleft" xlink:href="#arrowLeft" x="0" y="0" onmousedown="handlePan(-1,0)"/>
</g>
<svg viewBox="0 0 15 15" width="100%" height="30px" preserveAspectRatio="xMaxYMin meet">
 <g id="arrow_out" transform="scale(0.3 0.3)">
  <a xlink:href="classnet_1_1rc_1_1SocketAddress_ab14b70612513103bfe34e5c4a4f7ee61_icgraph_org.svg" target="_base">
   <rect id="button" ry="5" rx="5" y="6" x="6" height="38" width="38"
        fill="#f2f5e9" fill-opacity="0.5" stroke="#606060" stroke-width="1.0"/>
   <path id="arrow"
     d="M 11.500037,31.436501 C 11.940474,20.09759 22.043105,11.32322 32.158766,21.979434 L 37.068811,17.246167 C 37.068811,17.246167 37.088388,32 37.088388,32 L 22.160133,31.978069 C 22.160133,31.978069 26.997745,27.140456 26.997745,27.140456 C 18.528582,18.264221 13.291696,25.230495 11.500037,31.436501 z"
     style="fill:#404040;"/>
  </a>
 </g>
</svg>

<style type='text/css'>
<![CDATA[
[data-mouse-over-selected='false'] { opacity: 0.7; }
[data-mouse-over-selected='true']  { opacity: 1.0; }
]]>
</style>
<script type="application/ecmascript"><![CDATA[
document.addEventListener('DOMContentLoaded', (event) => {
  highlightEdges();
  highlightAdjacentNodes();
});
]]></script>
</svg>
