<?xml version="1.0" encoding="UTF-8" standalone="no"?>
<!DOCTYPE svg PUBLIC "-//W3C//DTD SVG 1.1//EN"
 "http://www.w3.org/Graphics/SVG/1.1/DTD/svg11.dtd">
<!-- Generated by graphviz version 2.42.4 (0)
 -->
<!-- Title: App::_process_callbacks Pages: 1 -->
<svg width="609pt" height="116pt"
 viewBox="0.00 0.00 609.00 116.00" xmlns="http://www.w3.org/2000/svg" xmlns:xlink="http://www.w3.org/1999/xlink">
<g id="graph0" class="graph" transform="scale(1 1) rotate(0) translate(4 112)">
<title>App::_process_callbacks</title>
<!-- Node1 -->
<g id="Node000001" class="node">
<title>Node1</title>
<g id="a_Node000001"><a xlink:title="Process callbacks. Runs on all subcommands.">
<polygon fill="#999999" stroke="#666666" points="601,-80 466,-80 466,-61 601,-61 601,-80"/>
<text text-anchor="middle" x="533.5" y="-68" font-family="Helvetica,sans-Serif" font-size="10.00">App::_process_callbacks</text>
</a>
</g>
</g>
<!-- Node2 -->
<g id="Node000002" class="node">
<title>Node2</title>
<g id="a_Node000002"><a xlink:href="classApp.html#a7a8c25d1c522c4d47482a30af75300d6" target="_top" xlink:title="Internal parse function.">
<polygon fill="white" stroke="#666666" points="266.5,-108 192.5,-108 192.5,-89 266.5,-89 266.5,-108"/>
<text text-anchor="middle" x="229.5" y="-96" font-family="Helvetica,sans-Serif" font-size="10.00">App::_parse</text>
</a>
</g>
</g>
<!-- Node1&#45;&gt;Node2 -->
<g id="edge1_Node000001_Node000002" class="edge">
<title>Node1&#45;&gt;Node2</title>
<g id="a_edge1_Node000001_Node000002"><a xlink:title=" ">
<path fill="none" stroke="#63b8ff" d="M489.82,-82.61C471.55,-87.24 449.89,-92 430,-94.5 373.29,-101.63 306.8,-101.23 266.7,-100.05"/>
<polygon fill="#63b8ff" stroke="#63b8ff" points="490.79,-85.97 499.58,-80.07 489.02,-79.2 490.79,-85.97"/>
</a>
</g>
</g>
<!-- Node3 -->
<g id="Node000003" class="node">
<title>Node3</title>
<g id="a_Node000003"><a xlink:href="classApp.html#af14d8ead6eedb2a651a5c8f8700e77ec" target="_top" xlink:title="Fill in a single config option.">
<polygon fill="white" stroke="#666666" points="430,-85.5 322,-85.5 322,-55.5 430,-55.5 430,-85.5"/>
<text text-anchor="start" x="330" y="-73.5" font-family="Helvetica,sans-Serif" font-size="10.00">App::_parse_single</text>
<text text-anchor="middle" x="376" y="-62.5" font-family="Helvetica,sans-Serif" font-size="10.00">_config</text>
</a>
</g>
</g>
<!-- Node1&#45;&gt;Node3 -->
<g id="edge2_Node000001_Node000003" class="edge">
<title>Node1&#45;&gt;Node3</title>
<g id="a_edge2_Node000001_Node000003"><a xlink:title=" ">
<path fill="none" stroke="#63b8ff" d="M455.59,-70.5C447,-70.5 438.39,-70.5 430.19,-70.5"/>
<polygon fill="#63b8ff" stroke="#63b8ff" points="455.65,-74 465.65,-70.5 455.65,-67 455.65,-74"/>
</a>
</g>
</g>
<!-- Node4 -->
<g id="Node000004" class="node">
<title>Node4</title>
<g id="a_Node000004"><a xlink:href="classApp.html#abadf9e63957398738c12bd76d89fd7ff" target="_top" xlink:title="Process callbacks and such.">
<polygon fill="white" stroke="#666666" points="418,-37 334,-37 334,-18 418,-18 418,-37"/>
<text text-anchor="middle" x="376" y="-25" font-family="Helvetica,sans-Serif" font-size="10.00">App::_process</text>
</a>
</g>
</g>
<!-- Node1&#45;&gt;Node4 -->
<g id="edge3_Node000001_Node000004" class="edge">
<title>Node1&#45;&gt;Node4</title>
<g id="a_edge3_Node000001_Node000004"><a xlink:title=" ">
<path fill="none" stroke="#63b8ff" d="M488.25,-58.26C463.87,-51.52 434.04,-43.27 411.41,-37.02"/>
<polygon fill="#63b8ff" stroke="#63b8ff" points="487.42,-61.66 497.99,-60.96 489.28,-54.92 487.42,-61.66"/>
</a>
</g>
</g>
<!-- Node4&#45;&gt;Node2 -->
<g id="edge5_Node000004_Node000002" class="edge">
<title>Node4&#45;&gt;Node2</title>
<g id="a_edge5_Node000004_Node000002"><a xlink:title=" ">
<path fill="none" stroke="#63b8ff" d="M335.87,-40.66C331.15,-42.5 326.43,-44.47 322,-46.5 294.1,-59.31 263.42,-77.7 245.61,-88.83"/>
<polygon fill="#63b8ff" stroke="#63b8ff" points="337.34,-43.85 345.48,-37.07 334.89,-37.29 337.34,-43.85"/>
</a>
</g>
</g>
<!-- Node5 -->
<g id="Node000005" class="node">
<title>Node5</title>
<g id="a_Node000005"><a xlink:href="classApp.html#ad13a057e7c5e2943973a90070f4ae910" target="_top" xlink:title="Internal parse function.">
<polygon fill="white" stroke="#666666" points="266.5,-56 192.5,-56 192.5,-37 266.5,-37 266.5,-56"/>
<text text-anchor="middle" x="229.5" y="-44" font-family="Helvetica,sans-Serif" font-size="10.00">App::_parse</text>
</a>
</g>
</g>
<!-- Node4&#45;&gt;Node5 -->
<g id="edge4_Node000004_Node000005" class="edge">
<title>Node4&#45;&gt;Node5</title>
<g id="a_edge4_Node000004_Node000005"><a xlink:title=" ">
<path fill="none" stroke="#63b8ff" d="M324.02,-34.2C305.1,-36.69 284.04,-39.46 266.7,-41.74"/>
<polygon fill="#63b8ff" stroke="#63b8ff" points="324.52,-37.67 333.98,-32.89 323.61,-30.73 324.52,-37.67"/>
</a>
</g>
</g>
<!-- Node6 -->
<g id="Node000006" class="node">
<title>Node6</title>
<g id="a_Node000006"><a xlink:href="classApp.html#a3a7043187d98d0587b3c19bd057f0208" target="_top" xlink:title="Internal function to parse a stream.">
<polygon fill="white" stroke="#666666" points="286,-19 173,-19 173,0 286,0 286,-19"/>
<text text-anchor="middle" x="229.5" y="-7" font-family="Helvetica,sans-Serif" font-size="10.00">App::_parse_stream</text>
</a>
</g>
</g>
<!-- Node4&#45;&gt;Node6 -->
<g id="edge6_Node000004_Node000006" class="edge">
<title>Node4&#45;&gt;Node6</title>
<g id="a_edge6_Node000004_Node000006"><a xlink:title=" ">
<path fill="none" stroke="#63b8ff" d="M323.95,-21.14C311.73,-19.62 298.62,-17.99 286.19,-16.44"/>
<polygon fill="#63b8ff" stroke="#63b8ff" points="323.62,-24.63 333.98,-22.39 324.49,-17.68 323.62,-24.63"/>
</a>
</g>
</g>
<!-- Node7 -->
<g id="Node000007" class="node">
<title>Node7</title>
<g id="a_Node000007"><a xlink:href="classApp.html#ac6a637b7b62c6d956564bf4241dc3b7b" target="_top" xlink:title=" ">
<polygon fill="white" stroke="#666666" points="137,-19 0,-19 0,0 137,0 137,-19"/>
<text text-anchor="middle" x="68.5" y="-7" font-family="Helvetica,sans-Serif" font-size="10.00">App::parse_from_stream</text>
</a>
</g>
</g>
<!-- Node6&#45;&gt;Node7 -->
<g id="edge7_Node000006_Node000007" class="edge">
<title>Node6&#45;&gt;Node7</title>
<g id="a_edge7_Node000006_Node000007"><a xlink:title=" ">
<path fill="none" stroke="#63b8ff" d="M162.71,-9.5C154.26,-9.5 145.59,-9.5 137.11,-9.5"/>
<polygon fill="#63b8ff" stroke="#63b8ff" points="162.89,-13 172.89,-9.5 162.89,-6 162.89,-13"/>
</a>
</g>
</g>
</g>
</svg>
