<?xml version="1.0" encoding="UTF-8" standalone="no"?>
<!DOCTYPE svg PUBLIC "-//W3C//DTD SVG 1.1//EN"
 "http://www.w3.org/Graphics/SVG/1.1/DTD/svg11.dtd">
<!-- Generated by graphviz version 2.42.4 (0)
 -->
<!-- Title: net::in6::stream::config::ConfigSocketClient Pages: 1 -->
<svg width="589pt" height="575pt"
 viewBox="0.00 0.00 589.00 575.00" xmlns="http://www.w3.org/2000/svg" xmlns:xlink="http://www.w3.org/1999/xlink">
<g id="graph0" class="graph" transform="scale(1 1) rotate(0) translate(4 571)">
<title>net::in6::stream::config::ConfigSocketClient</title>
<!-- Node1 -->
<g id="Node000001" class="node">
<title>Node1</title>
<g id="a_Node000001"><a xlink:title=" ">
<polygon fill="#999999" stroke="transparent" points="214,-30 92,-30 92,0 214,0 214,-30"/>
<text text-anchor="start" x="96" y="-18" font-family="Helvetica,sans-Serif" font-size="10.00">net::in6::stream::config</text>
<text text-anchor="start" x="103.5" y="-7" font-family="Helvetica,sans-Serif" font-size="10.00">::ConfigSocketClient</text>
<polygon fill="none" stroke="#666666" points="92,0 92,-30 214,-30 214,0 92,0"/>
</a>
</g>
</g>
<!-- Node2 -->
<g id="Node000002" class="node">
<title>Node2</title>
<g id="a_Node000002"><a xlink:href="classnet_1_1config_1_1stream_1_1ConfigSocketClient.html" target="_top" xlink:title=" ">
<polygon fill="white" stroke="transparent" points="243,-108 63,-108 63,-67 243,-67 243,-108"/>
<text text-anchor="start" x="67" y="-95.5" font-family="Helvetica,sans-Serif" font-size="10.00">net::config::stream</text>
<text text-anchor="start" x="67" y="-84.5" font-family="Helvetica,sans-Serif" font-size="10.00">::ConfigSocketClient</text>
<text text-anchor="start" x="67" y="-73.5" font-family="Helvetica,sans-Serif" font-size="10.00">&lt; net::in6::config::ConfigAddress &gt;</text>
<polygon fill="none" stroke="#666666" points="63,-67 63,-108 243,-108 243,-67 63,-67"/>
</a>
</g>
</g>
<!-- Node2&#45;&gt;Node1 -->
<g id="edge1_Node000001_Node000002" class="edge">
<title>Node2&#45;&gt;Node1</title>
<g id="a_edge1_Node000001_Node000002"><a xlink:title=" ">
<path fill="none" stroke="#63b8ff" d="M153,-56.58C153,-47.51 153,-37.95 153,-30.39"/>
<polygon fill="none" stroke="#63b8ff" points="149.5,-56.86 153,-66.86 156.5,-56.86 149.5,-56.86"/>
</a>
</g>
</g>
<!-- Node3 -->
<g id="Node000003" class="node">
<title>Node3</title>
<g id="a_Node000003"><a xlink:href="classnet_1_1in6_1_1config_1_1ConfigAddress.html" target="_top" xlink:title=" ">
<polygon fill="white" stroke="transparent" points="312,-186 182,-186 182,-145 312,-145 312,-186"/>
<text text-anchor="start" x="186.5" y="-173.5" font-family="Helvetica,sans-Serif" font-size="10.00">net::in6::config::Config</text>
<text text-anchor="start" x="186.5" y="-162.5" font-family="Helvetica,sans-Serif" font-size="10.00">Address&lt; net::config::</text>
<text text-anchor="start" x="186.5" y="-151.5" font-family="Helvetica,sans-Serif" font-size="10.00">ConfigAddressRemote &gt;</text>
<polygon fill="none" stroke="#666666" points="182,-145 182,-186 312,-186 312,-145 182,-145"/>
</a>
</g>
</g>
<!-- Node3&#45;&gt;Node2 -->
<g id="edge2_Node000002_Node000003" class="edge">
<title>Node3&#45;&gt;Node2</title>
<g id="a_edge2_Node000002_Node000003"><a xlink:title=" ">
<path fill="none" stroke="#63b8ff" d="M214.92,-138.56C202.54,-128.56 188.63,-117.3 177.13,-108.01"/>
<polygon fill="none" stroke="#63b8ff" points="212.82,-141.36 222.79,-144.93 217.22,-135.92 212.82,-141.36"/>
</a>
</g>
</g>
<!-- Node4 -->
<g id="Node000004" class="node">
<title>Node4</title>
<g id="a_Node000004"><a xlink:href="classnet_1_1config_1_1ConfigAddressRemote.html" target="_top" xlink:title=" ">
<polygon fill="white" stroke="transparent" points="353,-253 169,-253 169,-223 353,-223 353,-253"/>
<text text-anchor="start" x="173.5" y="-241" font-family="Helvetica,sans-Serif" font-size="10.00">net::config::ConfigAddress</text>
<text text-anchor="start" x="173.5" y="-230" font-family="Helvetica,sans-Serif" font-size="10.00">Remote&lt; net::in6::SocketAddress &gt;</text>
<polygon fill="none" stroke="#666666" points="169,-223 169,-253 353,-253 353,-223 169,-223"/>
</a>
</g>
</g>
<!-- Node4&#45;&gt;Node3 -->
<g id="edge3_Node000003_Node000004" class="edge">
<title>Node4&#45;&gt;Node3</title>
<g id="a_edge3_Node000003_Node000004"><a xlink:title=" ">
<path fill="none" stroke="#63b8ff" d="M256.19,-212.77C254.46,-204.06 252.53,-194.35 250.89,-186.09"/>
<polygon fill="none" stroke="#63b8ff" points="252.79,-213.61 258.17,-222.73 259.65,-212.24 252.79,-213.61"/>
</a>
</g>
</g>
<!-- Node5 -->
<g id="Node000005" class="node">
<title>Node5</title>
<g id="a_Node000005"><a xlink:href="classnet_1_1config_1_1ConfigAddress.html" target="_top" xlink:title=" ">
<polygon fill="white" stroke="transparent" points="464,-349 318,-349 318,-319 464,-319 464,-349"/>
<text text-anchor="start" x="322.5" y="-337" font-family="Helvetica,sans-Serif" font-size="10.00">net::config::ConfigAddress</text>
<text text-anchor="start" x="322.5" y="-326" font-family="Helvetica,sans-Serif" font-size="10.00">&lt; net::in6::SocketAddress &gt;</text>
<polygon fill="none" stroke="#666666" points="318,-319 318,-349 464,-349 464,-319 318,-319"/>
</a>
</g>
</g>
<!-- Node5&#45;&gt;Node4 -->
<g id="edge4_Node000004_Node000005" class="edge">
<title>Node5&#45;&gt;Node4</title>
<g id="a_edge4_Node000004_Node000005"><a xlink:title=" ">
<path fill="none" stroke="#63b8ff" d="M363.24,-312.93C338.39,-294.96 302.57,-269.06 280.6,-253.17"/>
<polygon fill="none" stroke="#63b8ff" points="361.38,-315.9 371.54,-318.93 365.48,-310.23 361.38,-315.9"/>
</a>
</g>
</g>
<!-- Node13 -->
<g id="Node000013" class="node">
<title>Node13</title>
<g id="a_Node000013"><a xlink:href="classnet_1_1config_1_1ConfigAddressLocal.html" target="_top" xlink:title=" ">
<polygon fill="white" stroke="transparent" points="543,-253 371,-253 371,-223 543,-223 543,-253"/>
<text text-anchor="start" x="375.5" y="-241" font-family="Helvetica,sans-Serif" font-size="10.00">net::config::ConfigAddress</text>
<text text-anchor="start" x="375.5" y="-230" font-family="Helvetica,sans-Serif" font-size="10.00">Local&lt; net::in6::SocketAddress &gt;</text>
<polygon fill="none" stroke="#666666" points="371,-223 371,-253 543,-253 543,-223 371,-223"/>
</a>
</g>
</g>
<!-- Node5&#45;&gt;Node13 -->
<g id="edge13_Node000013_Node000005" class="edge">
<title>Node5&#45;&gt;Node13</title>
<g id="a_edge13_Node000013_Node000005"><a xlink:title=" ">
<path fill="none" stroke="#63b8ff" d="M407.1,-310.07C419.6,-292.27 436.52,-268.17 447.1,-253.1"/>
<polygon fill="none" stroke="#63b8ff" points="403.91,-308.53 401.02,-318.72 409.63,-312.55 403.91,-308.53"/>
</a>
</g>
</g>
<!-- Node6 -->
<g id="Node000006" class="node">
<title>Node6</title>
<g id="a_Node000006"><a xlink:href="classnet_1_1config_1_1ConfigAddressBase.html" target="_top" xlink:title=" ">
<polygon fill="white" stroke="transparent" points="429,-434 259,-434 259,-404 429,-404 429,-434"/>
<text text-anchor="start" x="263.5" y="-422" font-family="Helvetica,sans-Serif" font-size="10.00">net::config::ConfigAddress</text>
<text text-anchor="start" x="263.5" y="-411" font-family="Helvetica,sans-Serif" font-size="10.00">Base&lt; net::in6::SocketAddress &gt;</text>
<polygon fill="none" stroke="#666666" points="259,-404 259,-434 429,-434 429,-404 259,-404"/>
</a>
</g>
</g>
<!-- Node6&#45;&gt;Node5 -->
<g id="edge5_Node000005_Node000006" class="edge">
<title>Node6&#45;&gt;Node5</title>
<g id="a_edge5_Node000005_Node000006"><a xlink:title=" ">
<path fill="none" stroke="#63b8ff" d="M357.06,-394.93C365.38,-380.24 375.89,-361.69 382.99,-349.15"/>
<polygon fill="none" stroke="#63b8ff" points="353.85,-393.49 351.97,-403.92 359.95,-396.94 353.85,-393.49"/>
</a>
</g>
</g>
<!-- Node7 -->
<g id="Node000007" class="node">
<title>Node7</title>
<g id="a_Node000007"><a xlink:href="classnet_1_1config_1_1ConfigSection.html" target="_top" xlink:title=" ">
<polygon fill="white" stroke="transparent" points="239,-495.5 105,-495.5 105,-476.5 239,-476.5 239,-495.5"/>
<text text-anchor="start" x="109" y="-483" font-family="Helvetica,sans-Serif" font-size="10.00">net::config::ConfigSection</text>
<polygon fill="none" stroke="#666666" points="105,-476.5 105,-495.5 239,-495.5 239,-476.5 105,-476.5"/>
</a>
</g>
</g>
<!-- Node7&#45;&gt;Node6 -->
<g id="edge6_Node000006_Node000007" class="edge">
<title>Node7&#45;&gt;Node6</title>
<g id="a_edge6_Node000006_Node000007"><a xlink:title=" ">
<path fill="none" stroke="darkgreen" d="M204.54,-472.7C233.69,-461.69 276.41,-445.54 306.88,-434.03"/>
<polygon fill="none" stroke="darkgreen" points="202.96,-469.56 194.84,-476.37 205.43,-476.11 202.96,-469.56"/>
</a>
</g>
</g>
<!-- Node14 -->
<g id="Node000014" class="node">
<title>Node14</title>
<g id="a_Node000014"><a xlink:href="classnet_1_1config_1_1ConfigConnection.html" target="_top" xlink:title=" ">
<polygon fill="white" stroke="transparent" points="154,-386 0,-386 0,-367 154,-367 154,-386"/>
<text text-anchor="start" x="4.5" y="-373.5" font-family="Helvetica,sans-Serif" font-size="10.00">net::config::ConfigConnection</text>
<polygon fill="none" stroke="#666666" points="0,-367 0,-386 154,-386 154,-367 0,-367"/>
</a>
</g>
</g>
<!-- Node7&#45;&gt;Node14 -->
<g id="edge15_Node000014_Node000007" class="edge">
<title>Node7&#45;&gt;Node14</title>
<g id="a_edge15_Node000014_Node000007"><a xlink:title=" ">
<path fill="none" stroke="darkgreen" d="M141.94,-471.75C125.62,-463.15 106.31,-450.46 94,-434 83.2,-419.56 79.22,-398.27 77.78,-386.37"/>
<polygon fill="none" stroke="darkgreen" points="140.62,-475 151.13,-476.34 143.75,-468.74 140.62,-475"/>
</a>
</g>
</g>
<!-- Node16 -->
<g id="Node000016" class="node">
<title>Node16</title>
<g id="a_Node000016"><a xlink:href="classnet_1_1config_1_1ConfigPhysicalSocket.html" target="_top" xlink:title=" ">
<polygon fill="white" stroke="transparent" points="241,-434 103,-434 103,-404 241,-404 241,-434"/>
<text text-anchor="start" x="107" y="-422" font-family="Helvetica,sans-Serif" font-size="10.00">net::config::ConfigPhysical</text>
<text text-anchor="start" x="155.5" y="-411" font-family="Helvetica,sans-Serif" font-size="10.00">Socket</text>
<polygon fill="none" stroke="#666666" points="103,-404 103,-434 241,-434 241,-404 103,-404"/>
</a>
</g>
</g>
<!-- Node7&#45;&gt;Node16 -->
<g id="edge18_Node000016_Node000007" class="edge">
<title>Node7&#45;&gt;Node16</title>
<g id="a_edge18_Node000016_Node000007"><a xlink:title=" ">
<path fill="none" stroke="darkgreen" d="M172,-465.91C172,-455.72 172,-443.4 172,-434.09"/>
<polygon fill="none" stroke="darkgreen" points="168.5,-466.23 172,-476.23 175.5,-466.23 168.5,-466.23"/>
</a>
</g>
</g>
<!-- Node8 -->
<g id="Node000008" class="node">
<title>Node8</title>
<g id="a_Node000008"><a xlink:href="classnet_1_1config_1_1ConfigInstance.html" target="_top" xlink:title=" ">
<polygon fill="white" stroke="transparent" points="242,-567 102,-567 102,-548 242,-548 242,-567"/>
<text text-anchor="start" x="106.5" y="-554.5" font-family="Helvetica,sans-Serif" font-size="10.00">net::config::ConfigInstance</text>
<polygon fill="none" stroke="#666666" points="102,-548 102,-567 242,-567 242,-548 102,-548"/>
</a>
</g>
</g>
<!-- Node8&#45;&gt;Node7 -->
<g id="edge7_Node000007_Node000008" class="edge">
<title>Node8&#45;&gt;Node7</title>
<g id="a_edge7_Node000007_Node000008"><a xlink:title=" ">
<path fill="none" stroke="#63b8ff" d="M172,-547.98C172,-538.08 172,-521.39 172,-507.97"/>
<polygon fill="none" stroke="#63b8ff" points="172,-507.59 168,-501.59 172,-495.59 176,-501.59 172,-507.59"/>
</a>
</g>
<text text-anchor="middle" x="196.5" y="-522" font-family="Helvetica,sans-Serif" font-size="10.00" fill="grey"> &#45;instance</text>
</g>
<!-- Node9 -->
<g id="Node000009" class="node">
<title>Node9</title>
<g id="a_Node000009"><a xlink:href="classnet_1_1in6_1_1SocketAddress.html" target="_top" xlink:title=" ">
<polygon fill="white" stroke="transparent" points="571,-428.5 447,-428.5 447,-409.5 571,-409.5 571,-428.5"/>
<text text-anchor="start" x="451.5" y="-416" font-family="Helvetica,sans-Serif" font-size="10.00">net::in6::SocketAddress</text>
<polygon fill="none" stroke="#666666" points="447,-409.5 447,-428.5 571,-428.5 571,-409.5 447,-409.5"/>
</a>
</g>
</g>
<!-- Node9&#45;&gt;Node5 -->
<g id="edge8_Node000005_Node000009" class="edge">
<title>Node9&#45;&gt;Node5</title>
<g id="a_edge8_Node000005_Node000009"><a xlink:title=" ">
<path fill="none" stroke="#63b8ff" d="M496.82,-409.43C479.09,-396.96 445.64,-373.43 421.07,-356.15"/>
<polygon fill="none" stroke="#63b8ff" points="420.97,-356.08 413.77,-355.9 411.16,-349.18 418.37,-349.36 420.97,-356.08"/>
</a>
</g>
<text text-anchor="middle" x="499" y="-374" font-family="Helvetica,sans-Serif" font-size="10.00" fill="grey"> &#45;socketAddress</text>
</g>
<!-- Node10 -->
<g id="Node000010" class="node">
<title>Node10</title>
<g id="a_Node000010"><a xlink:href="classnet_1_1SocketAddress.html" target="_top" xlink:title=" ">
<polygon fill="white" stroke="transparent" points="560,-501 458,-501 458,-471 560,-471 560,-501"/>
<text text-anchor="start" x="462" y="-489" font-family="Helvetica,sans-Serif" font-size="10.00">net::SocketAddress</text>
<text text-anchor="start" x="465" y="-478" font-family="Helvetica,sans-Serif" font-size="10.00">&lt; sockaddr_in6 &gt;</text>
<polygon fill="none" stroke="#666666" points="458,-471 458,-501 560,-501 560,-471 458,-471"/>
</a>
</g>
</g>
<!-- Node10&#45;&gt;Node9 -->
<g id="edge9_Node000009_Node000010" class="edge">
<title>Node10&#45;&gt;Node9</title>
<g id="a_edge9_Node000009_Node000010"><a xlink:title=" ">
<path fill="none" stroke="#63b8ff" d="M509,-460.75C509,-449.52 509,-436.88 509,-428.69"/>
<polygon fill="none" stroke="#63b8ff" points="505.5,-460.9 509,-470.9 512.5,-460.9 505.5,-460.9"/>
</a>
</g>
</g>
<!-- Node11 -->
<g id="Node000011" class="node">
<title>Node11</title>
<g id="a_Node000011"><a xlink:href="classcore_1_1socket_1_1SocketAddress.html" target="_top" xlink:title=" ">
<polygon fill="white" stroke="transparent" points="581,-567 437,-567 437,-548 581,-548 581,-567"/>
<text text-anchor="start" x="441" y="-554.5" font-family="Helvetica,sans-Serif" font-size="10.00">core::socket::SocketAddress</text>
<polygon fill="none" stroke="#666666" points="437,-548 437,-567 581,-567 581,-548 437,-548"/>
</a>
</g>
</g>
<!-- Node11&#45;&gt;Node10 -->
<g id="edge10_Node000010_Node000011" class="edge">
<title>Node11&#45;&gt;Node10</title>
<g id="a_edge10_Node000010_Node000011"><a xlink:title=" ">
<path fill="none" stroke="#63b8ff" d="M509,-537.71C509,-526.19 509,-511.68 509,-501.14"/>
<polygon fill="none" stroke="#63b8ff" points="505.5,-537.98 509,-547.98 512.5,-537.98 505.5,-537.98"/>
</a>
</g>
</g>
<!-- Node12 -->
<g id="Node000012" class="node">
<title>Node12</title>
<g id="a_Node000012"><a xlink:href="classnet_1_1in6_1_1config_1_1ConfigAddress.html" target="_top" xlink:title=" ">
<polygon fill="white" stroke="transparent" points="483,-186 363,-186 363,-145 483,-145 483,-186"/>
<text text-anchor="start" x="367.5" y="-173.5" font-family="Helvetica,sans-Serif" font-size="10.00">net::in6::config::Config</text>
<text text-anchor="start" x="367.5" y="-162.5" font-family="Helvetica,sans-Serif" font-size="10.00">Address&lt; net::config::</text>
<text text-anchor="start" x="369" y="-151.5" font-family="Helvetica,sans-Serif" font-size="10.00">ConfigAddressLocal &gt;</text>
<polygon fill="none" stroke="#666666" points="363,-145 363,-186 483,-186 483,-145 363,-145"/>
</a>
</g>
</g>
<!-- Node12&#45;&gt;Node2 -->
<g id="edge11_Node000002_Node000012" class="edge">
<title>Node12&#45;&gt;Node2</title>
<g id="a_edge11_Node000002_Node000012"><a xlink:title=" ">
<path fill="none" stroke="#63b8ff" d="M353.03,-144.81C312.9,-133.51 262.69,-119.37 222.61,-108.09"/>
<polygon fill="none" stroke="#63b8ff" points="352.17,-148.2 362.74,-147.54 354.07,-141.46 352.17,-148.2"/>
</a>
</g>
</g>
<!-- Node13&#45;&gt;Node12 -->
<g id="edge12_Node000012_Node000013" class="edge">
<title>Node13&#45;&gt;Node12</title>
<g id="a_edge12_Node000012_Node000013"><a xlink:title=" ">
<path fill="none" stroke="#63b8ff" d="M445.73,-213.63C441.42,-204.7 436.56,-194.63 432.45,-186.09"/>
<polygon fill="none" stroke="#63b8ff" points="442.62,-215.25 450.12,-222.73 448.93,-212.21 442.62,-215.25"/>
</a>
</g>
</g>
<!-- Node14&#45;&gt;Node2 -->
<g id="edge14_Node000002_Node000014" class="edge">
<title>Node14&#45;&gt;Node2</title>
<g id="a_edge14_Node000002_Node000014"><a xlink:title=" ">
<path fill="none" stroke="#63b8ff" d="M78,-356.75C78.88,-338.84 80,-311.09 80,-287 80,-287 80,-287 80,-164.5 80,-140.53 99.12,-121.19 117.78,-108.02"/>
<polygon fill="none" stroke="#63b8ff" points="74.5,-356.79 77.48,-366.96 81.49,-357.15 74.5,-356.79"/>
</a>
</g>
</g>
<!-- Node15 -->
<g id="Node000015" class="node">
<title>Node15</title>
<g id="a_Node000015"><a xlink:href="classnet_1_1config_1_1ConfigPhysicalSocketClient.html" target="_top" xlink:title=" ">
<polygon fill="white" stroke="transparent" points="237,-301 99,-301 99,-271 237,-271 237,-301"/>
<text text-anchor="start" x="103" y="-289" font-family="Helvetica,sans-Serif" font-size="10.00">net::config::ConfigPhysical</text>
<text text-anchor="start" x="137.5" y="-278" font-family="Helvetica,sans-Serif" font-size="10.00">SocketClient</text>
<polygon fill="none" stroke="#666666" points="99,-271 99,-301 237,-301 237,-271 99,-271"/>
</a>
</g>
</g>
<!-- Node15&#45;&gt;Node2 -->
<g id="edge16_Node000002_Node000015" class="edge">
<title>Node15&#45;&gt;Node2</title>
<g id="a_edge16_Node000002_Node000015"><a xlink:title=" ">
<path fill="none" stroke="#63b8ff" d="M161.43,-260.9C160.87,-258.25 160.37,-255.58 160,-253 152.49,-201.09 152.15,-139.08 152.56,-108.12"/>
<polygon fill="none" stroke="#63b8ff" points="158.06,-261.88 163.79,-270.79 164.87,-260.25 158.06,-261.88"/>
</a>
</g>
</g>
<!-- Node16&#45;&gt;Node15 -->
<g id="edge17_Node000015_Node000016" class="edge">
<title>Node16&#45;&gt;Node15</title>
<g id="a_edge17_Node000015_Node000016"><a xlink:title=" ">
<path fill="none" stroke="#63b8ff" d="M171.26,-393.77C170.43,-366.63 169.12,-323.55 168.44,-301.32"/>
<polygon fill="none" stroke="#63b8ff" points="167.77,-394.09 171.57,-403.98 174.77,-393.88 167.77,-394.09"/>
</a>
</g>
</g>
</g>
</svg>
