<?xml version="1.0" encoding="UTF-8" standalone="no"?>
<!DOCTYPE svg PUBLIC "-//W3C//DTD SVG 1.1//EN"
 "http://www.w3.org/Graphics/SVG/1.1/DTD/svg11.dtd">
<!-- Generated by graphviz version 2.43.0 (0)
 -->
<!-- Title: iot::mqtt::server::Mqtt::_onPublish Pages: 1 -->
<svg width="1183pt" height="452pt"
 viewBox="0.00 0.00 1183.00 451.50" xmlns="http://www.w3.org/2000/svg" xmlns:xlink="http://www.w3.org/1999/xlink">
<g id="graph0" class="graph" transform="scale(1 1) rotate(0) translate(4 447.5)">
<title>iot::mqtt::server::Mqtt::_onPublish</title>
<!-- Node1 -->
<g id="Node000001" class="node">
<title>Node1</title>
<g id="a_Node000001"><a xlink:title=" ">
<polygon fill="#999999" stroke="#666666" points="101,-119.5 0,-119.5 0,-89.5 101,-89.5 101,-119.5"/>
<text text-anchor="start" x="8" y="-107.5" font-family="Helvetica,sans-Serif" font-size="10.00">iot::mqtt::server::</text>
<text text-anchor="middle" x="50.5" y="-96.5" font-family="Helvetica,sans-Serif" font-size="10.00">Mqtt::_onPublish</text>
</a>
</g>
</g>
<!-- Node2 -->
<g id="Node000002" class="node">
<title>Node2</title>
<g id="a_Node000002"><a xlink:href="classiot_1_1mqtt_1_1Mqtt.html#a8766079f6d926bc6b5201d7e46a00ed1" target="_top" xlink:title=" ">
<polygon fill="white" stroke="#666666" points="283,-224 137,-224 137,-205 283,-205 283,-224"/>
<text text-anchor="middle" x="210" y="-212" font-family="Helvetica,sans-Serif" font-size="10.00">iot::mqtt::Mqtt::_onPublish</text>
</a>
</g>
</g>
<!-- Node1&#45;&gt;Node2 -->
<g id="edge1_Node000001_Node000002" class="edge">
<title>Node1&#45;&gt;Node2</title>
<g id="a_edge1_Node000001_Node000002"><a xlink:title=" ">
<path fill="none" stroke="#63b8ff" d="M73.07,-119.56C102.97,-140.45 156.75,-178.01 186.92,-199.08"/>
<polygon fill="#63b8ff" stroke="#63b8ff" points="184.92,-201.95 195.12,-204.81 188.93,-196.21 184.92,-201.95"/>
</a>
</g>
</g>
<!-- Node5 -->
<g id="Node000005" class="node">
<title>Node5</title>
<g id="a_Node000005"><a xlink:href="classiot_1_1mqtt_1_1packets_1_1Publish.html#a5ff7a6ef5d6d227e3870b9247a30eade" target="_top" xlink:title=" ">
<polygon fill="white" stroke="#666666" points="460,-443.5 337,-443.5 337,-413.5 460,-413.5 460,-443.5"/>
<text text-anchor="start" x="345" y="-431.5" font-family="Helvetica,sans-Serif" font-size="10.00">iot::mqtt::packets</text>
<text text-anchor="middle" x="398.5" y="-420.5" font-family="Helvetica,sans-Serif" font-size="10.00">::Publish::getMessage</text>
</a>
</g>
</g>
<!-- Node1&#45;&gt;Node5 -->
<g id="edge23_Node000001_Node000005" class="edge">
<title>Node1&#45;&gt;Node5</title>
<g id="a_edge23_Node000001_Node000005"><a xlink:title=" ">
<path fill="none" stroke="#63b8ff" d="M60.1,-119.68C89.22,-169.54 189.51,-329.42 319,-404.5 321.99,-406.23 325.11,-407.85 328.32,-409.36"/>
<polygon fill="#63b8ff" stroke="#63b8ff" points="326.98,-412.6 337.55,-413.35 329.76,-406.17 326.98,-412.6"/>
</a>
</g>
</g>
<!-- Node7 -->
<g id="Node000007" class="node">
<title>Node7</title>
<g id="a_Node000007"><a xlink:href="classiot_1_1mqtt_1_1packets_1_1Publish.html#a096fa9c85bacbdce30e5203a34c142bc" target="_top" xlink:title=" ">
<polygon fill="white" stroke="#666666" points="449.5,-138.5 347.5,-138.5 347.5,-108.5 449.5,-108.5 449.5,-138.5"/>
<text text-anchor="start" x="355.5" y="-126.5" font-family="Helvetica,sans-Serif" font-size="10.00">iot::mqtt::packets</text>
<text text-anchor="middle" x="398.5" y="-115.5" font-family="Helvetica,sans-Serif" font-size="10.00">::Publish::getQoS</text>
</a>
</g>
</g>
<!-- Node1&#45;&gt;Node7 -->
<g id="edge24_Node000001_Node000007" class="edge">
<title>Node1&#45;&gt;Node7</title>
<g id="a_edge24_Node000001_Node000007"><a xlink:title=" ">
<path fill="none" stroke="#63b8ff" d="M101.07,-107.22C163.33,-110.64 270.09,-116.5 337.06,-120.18"/>
<polygon fill="#63b8ff" stroke="#63b8ff" points="337.28,-123.7 347.46,-120.75 337.66,-116.71 337.28,-123.7"/>
</a>
</g>
</g>
<!-- Node8 -->
<g id="Node000008" class="node">
<title>Node8</title>
<g id="a_Node000008"><a xlink:href="classiot_1_1mqtt_1_1packets_1_1Publish.html#a6a6426abdf03294324dd1408e6dde0e7" target="_top" xlink:title=" ">
<polygon fill="white" stroke="#666666" points="454,-90.5 343,-90.5 343,-60.5 454,-60.5 454,-90.5"/>
<text text-anchor="start" x="351" y="-78.5" font-family="Helvetica,sans-Serif" font-size="10.00">iot::mqtt::packets</text>
<text text-anchor="middle" x="398.5" y="-67.5" font-family="Helvetica,sans-Serif" font-size="10.00">::Publish::getRetain</text>
</a>
</g>
</g>
<!-- Node1&#45;&gt;Node8 -->
<g id="edge25_Node000001_Node000008" class="edge">
<title>Node1&#45;&gt;Node8</title>
<g id="a_edge25_Node000001_Node000008"><a xlink:title=" ">
<path fill="none" stroke="#63b8ff" d="M101.07,-100.35C162.04,-95.24 265.67,-86.55 332.84,-80.92"/>
<polygon fill="#63b8ff" stroke="#63b8ff" points="333.21,-84.4 342.88,-80.08 332.62,-77.43 333.21,-84.4"/>
</a>
</g>
</g>
<!-- Node9 -->
<g id="Node000009" class="node">
<title>Node9</title>
<g id="a_Node000009"><a xlink:href="classiot_1_1mqtt_1_1packets_1_1Publish.html#a5df0f8b11d0cc24eac2aa8956319127b" target="_top" xlink:title=" ">
<polygon fill="white" stroke="#666666" points="450.5,-42.5 346.5,-42.5 346.5,-12.5 450.5,-12.5 450.5,-42.5"/>
<text text-anchor="start" x="354.5" y="-30.5" font-family="Helvetica,sans-Serif" font-size="10.00">iot::mqtt::packets</text>
<text text-anchor="middle" x="398.5" y="-19.5" font-family="Helvetica,sans-Serif" font-size="10.00">::Publish::getTopic</text>
</a>
</g>
</g>
<!-- Node1&#45;&gt;Node9 -->
<g id="edge26_Node000001_Node000009" class="edge">
<title>Node1&#45;&gt;Node9</title>
<g id="a_edge26_Node000001_Node000009"><a xlink:title=" ">
<path fill="none" stroke="#63b8ff" d="M101.14,-91.33C112.88,-88.33 125.36,-85.23 137,-82.5 205.07,-66.56 283.64,-50.26 336.54,-39.59"/>
<polygon fill="#63b8ff" stroke="#63b8ff" points="337.33,-43 346.44,-37.59 335.95,-36.13 337.33,-43"/>
</a>
</g>
</g>
<!-- Node21 -->
<g id="Node000021" class="node">
<title>Node21</title>
<g id="a_Node000021"><a xlink:href="classiot_1_1mqtt_1_1Mqtt.html#a186716f44067e3b0c6ba668833db6938" target="_top" xlink:title=" ">
<polygon fill="white" stroke="#666666" points="280,-19 140,-19 140,0 280,0 280,-19"/>
<text text-anchor="middle" x="210" y="-7" font-family="Helvetica,sans-Serif" font-size="10.00">iot::mqtt::Mqtt::onPublish</text>
</a>
</g>
</g>
<!-- Node1&#45;&gt;Node21 -->
<g id="edge27_Node000001_Node000021" class="edge">
<title>Node1&#45;&gt;Node21</title>
<g id="a_edge27_Node000001_Node000021"><a xlink:title=" ">
<path fill="none" stroke="#63b8ff" d="M66.27,-89.25C82.37,-73.39 109.51,-48.78 137,-33.5 144.78,-29.17 153.47,-25.46 162.05,-22.34"/>
<polygon fill="#63b8ff" stroke="#63b8ff" points="163.3,-25.61 171.63,-19.06 161.03,-18.98 163.3,-25.61"/>
</a>
</g>
</g>
<!-- Node3 -->
<g id="Node000003" class="node">
<title>Node3</title>
<g id="a_Node000003"><a xlink:href="classiot_1_1mqtt_1_1MqttContext.html#ada10a6f2fcf6953ed62d93bdb5907cd1" target="_top" xlink:title=" ">
<polygon fill="white" stroke="#666666" points="473,-395 324,-395 324,-376 473,-376 473,-395"/>
<text text-anchor="middle" x="398.5" y="-383" font-family="Helvetica,sans-Serif" font-size="10.00">iot::mqtt::MqttContext::end</text>
</a>
</g>
</g>
<!-- Node2&#45;&gt;Node3 -->
<g id="edge2_Node000002_Node000003" class="edge">
<title>Node2&#45;&gt;Node3</title>
<g id="a_edge2_Node000002_Node000003"><a xlink:title=" ">
<path fill="none" stroke="#63b8ff" d="M217.31,-224.2C238.21,-256.16 304.59,-356.74 319,-366.5 321.93,-368.49 325.05,-370.27 328.29,-371.86"/>
<polygon fill="#63b8ff" stroke="#63b8ff" points="327.12,-375.16 337.69,-375.88 329.87,-368.73 327.12,-375.16"/>
</a>
</g>
</g>
<!-- Node4 -->
<g id="Node000004" class="node">
<title>Node4</title>
<g id="a_Node000004"><a xlink:href="classiot_1_1mqtt_1_1packets_1_1Publish.html#ac28fb8146c897130f1834fcdec89fabe" target="_top" xlink:title=" ">
<polygon fill="white" stroke="#666666" points="449.5,-357.5 347.5,-357.5 347.5,-327.5 449.5,-327.5 449.5,-357.5"/>
<text text-anchor="start" x="355.5" y="-345.5" font-family="Helvetica,sans-Serif" font-size="10.00">iot::mqtt::packets</text>
<text text-anchor="middle" x="398.5" y="-334.5" font-family="Helvetica,sans-Serif" font-size="10.00">::Publish::getDup</text>
</a>
</g>
</g>
<!-- Node2&#45;&gt;Node4 -->
<g id="edge3_Node000002_Node000004" class="edge">
<title>Node2&#45;&gt;Node4</title>
<g id="a_edge3_Node000002_Node000004"><a xlink:title=" ">
<path fill="none" stroke="#63b8ff" d="M218.28,-224.07C234.26,-244.45 274.57,-292.37 319,-318.5 324.86,-321.95 331.26,-324.94 337.8,-327.53"/>
<polygon fill="#63b8ff" stroke="#63b8ff" points="336.84,-330.91 347.43,-331.05 339.24,-324.33 336.84,-330.91"/>
</a>
</g>
</g>
<!-- Node2&#45;&gt;Node5 -->
<g id="edge4_Node000002_Node000005" class="edge">
<title>Node2&#45;&gt;Node5</title>
<g id="a_edge4_Node000002_Node000005"><a xlink:title=" ">
<path fill="none" stroke="#63b8ff" d="M217.83,-224.11C231.2,-243.14 261.43,-287.19 283,-326.5 301.37,-359.97 290.23,-379.39 319,-404.5 321.71,-406.87 324.65,-409 327.75,-410.93"/>
<polygon fill="#63b8ff" stroke="#63b8ff" points="326.38,-414.16 336.85,-415.81 329.69,-407.99 326.38,-414.16"/>
</a>
</g>
</g>
<!-- Node6 -->
<g id="Node000006" class="node">
<title>Node6</title>
<g id="a_Node000006"><a xlink:href="classiot_1_1mqtt_1_1packets_1_1Publish.html#ad6c57a14da601668c592004480637c96" target="_top" xlink:title=" ">
<polygon fill="white" stroke="#666666" points="476.5,-309.5 320.5,-309.5 320.5,-279.5 476.5,-279.5 476.5,-309.5"/>
<text text-anchor="start" x="328.5" y="-297.5" font-family="Helvetica,sans-Serif" font-size="10.00">iot::mqtt::packets</text>
<text text-anchor="middle" x="398.5" y="-286.5" font-family="Helvetica,sans-Serif" font-size="10.00">::Publish::getPacketIdentifier</text>
</a>
</g>
</g>
<!-- Node2&#45;&gt;Node6 -->
<g id="edge5_Node000002_Node000006" class="edge">
<title>Node2&#45;&gt;Node6</title>
<g id="a_edge5_Node000002_Node000006"><a xlink:title=" ">
<path fill="none" stroke="#63b8ff" d="M227.39,-224.2C248.17,-236.21 285.37,-256.77 319,-270.5 323.74,-272.44 328.7,-274.3 333.72,-276.08"/>
<polygon fill="#63b8ff" stroke="#63b8ff" points="332.82,-279.47 343.42,-279.38 335.08,-272.84 332.82,-279.47"/>
</a>
</g>
</g>
<!-- Node2&#45;&gt;Node7 -->
<g id="edge6_Node000002_Node000007" class="edge">
<title>Node2&#45;&gt;Node7</title>
<g id="a_edge6_Node000002_Node000007"><a xlink:title=" ">
<path fill="none" stroke="#63b8ff" d="M224.01,-204.87C243.7,-190.66 282.63,-164 319,-147.5 325.02,-144.77 331.43,-142.24 337.89,-139.93"/>
<polygon fill="#63b8ff" stroke="#63b8ff" points="339.03,-143.24 347.37,-136.7 336.77,-136.62 339.03,-143.24"/>
</a>
</g>
</g>
<!-- Node2&#45;&gt;Node8 -->
<g id="edge7_Node000002_Node000008" class="edge">
<title>Node2&#45;&gt;Node8</title>
<g id="a_edge7_Node000002_Node000008"><a xlink:title=" ">
<path fill="none" stroke="#63b8ff" d="M217.34,-204.88C232.34,-182.89 272.26,-128.59 319,-99.5 323.42,-96.75 328.19,-94.29 333.1,-92.1"/>
<polygon fill="#63b8ff" stroke="#63b8ff" points="334.73,-95.22 342.68,-88.22 332.1,-88.73 334.73,-95.22"/>
</a>
</g>
</g>
<!-- Node2&#45;&gt;Node9 -->
<g id="edge8_Node000002_Node000009" class="edge">
<title>Node2&#45;&gt;Node9</title>
<g id="a_edge8_Node000002_Node000009"><a xlink:title=" ">
<path fill="none" stroke="#63b8ff" d="M214.67,-204.73C225.79,-176.51 261.87,-94.14 319,-51.5 324.45,-47.43 330.59,-44.05 336.98,-41.23"/>
<polygon fill="#63b8ff" stroke="#63b8ff" points="338.44,-44.42 346.47,-37.5 335.88,-37.91 338.44,-44.42"/>
</a>
</g>
</g>
<!-- Node10 -->
<g id="Node000010" class="node">
<title>Node10</title>
<g id="a_Node000010"><a xlink:href="classiot_1_1mqtt_1_1Mqtt.html#aad0ebe3e81b0c159295be7ff0c491bd1" target="_top" xlink:title=" ">
<polygon fill="white" stroke="#666666" points="478,-186.5 319,-186.5 319,-156.5 478,-156.5 478,-186.5"/>
<text text-anchor="start" x="327" y="-174.5" font-family="Helvetica,sans-Serif" font-size="10.00">iot::mqtt::Mqtt::printStandard</text>
<text text-anchor="middle" x="398.5" y="-163.5" font-family="Helvetica,sans-Serif" font-size="10.00">Header</text>
</a>
</g>
</g>
<!-- Node2&#45;&gt;Node10 -->
<g id="edge9_Node000002_Node000010" class="edge">
<title>Node2&#45;&gt;Node10</title>
<g id="a_edge9_Node000002_Node000010"><a xlink:title=" ">
<path fill="none" stroke="#63b8ff" d="M252.39,-204.96C273.05,-200.19 298.68,-194.28 322.63,-188.76"/>
<polygon fill="#63b8ff" stroke="#63b8ff" points="323.46,-192.16 332.41,-186.51 321.88,-185.34 323.46,-192.16"/>
</a>
</g>
</g>
<!-- Node18 -->
<g id="Node000018" class="node">
<title>Node18</title>
<g id="a_Node000018"><a xlink:href="classiot_1_1mqtt_1_1Mqtt.html#a64f2e5213d4954df3bc653617cd14455" target="_top" xlink:title=" ">
<polygon fill="white" stroke="#666666" points="474.5,-224 322.5,-224 322.5,-205 474.5,-205 474.5,-224"/>
<text text-anchor="middle" x="398.5" y="-212" font-family="Helvetica,sans-Serif" font-size="10.00">iot::mqtt::Mqtt::sendPuback</text>
</a>
</g>
</g>
<!-- Node2&#45;&gt;Node18 -->
<g id="edge17_Node000002_Node000018" class="edge">
<title>Node2&#45;&gt;Node18</title>
<g id="a_edge17_Node000002_Node000018"><a xlink:title=" ">
<path fill="none" stroke="#63b8ff" d="M283.11,-214.5C292.62,-214.5 302.43,-214.5 312.14,-214.5"/>
<polygon fill="#63b8ff" stroke="#63b8ff" points="312.19,-218 322.19,-214.5 312.19,-211 312.19,-218"/>
</a>
</g>
</g>
<!-- Node20 -->
<g id="Node000020" class="node">
<title>Node20</title>
<g id="a_Node000020"><a xlink:href="classiot_1_1mqtt_1_1Mqtt.html#aefeb8db9cebbe5fdb28dee626f6389f3" target="_top" xlink:title=" ">
<polygon fill="white" stroke="#666666" points="473,-261 324,-261 324,-242 473,-242 473,-261"/>
<text text-anchor="middle" x="398.5" y="-249" font-family="Helvetica,sans-Serif" font-size="10.00">iot::mqtt::Mqtt::sendPubrec</text>
</a>
</g>
</g>
<!-- Node2&#45;&gt;Node20 -->
<g id="edge21_Node000002_Node000020" class="edge">
<title>Node2&#45;&gt;Node20</title>
<g id="a_edge21_Node000002_Node000020"><a xlink:title=" ">
<path fill="none" stroke="#63b8ff" d="M259.03,-224.03C283.52,-228.89 313.49,-234.83 339.28,-239.95"/>
<polygon fill="#63b8ff" stroke="#63b8ff" points="338.82,-243.43 349.31,-241.94 340.18,-236.56 338.82,-243.43"/>
</a>
</g>
</g>
<!-- Node11 -->
<g id="Node000011" class="node">
<title>Node11</title>
<g id="a_Node000011"><a xlink:href="classiot_1_1mqtt_1_1Mqtt.html#ab70d673e9ccb125cb5ed2449cfa1492c" target="_top" xlink:title=" ">
<polygon fill="white" stroke="#666666" points="659,-228.5 514,-228.5 514,-198.5 659,-198.5 659,-228.5"/>
<text text-anchor="start" x="522" y="-216.5" font-family="Helvetica,sans-Serif" font-size="10.00">iot::mqtt::Mqtt::dataToHex</text>
<text text-anchor="middle" x="586.5" y="-205.5" font-family="Helvetica,sans-Serif" font-size="10.00">String</text>
</a>
</g>
</g>
<!-- Node10&#45;&gt;Node11 -->
<g id="edge10_Node000010_Node000011" class="edge">
<title>Node10&#45;&gt;Node11</title>
<g id="a_edge10_Node000010_Node000011"><a xlink:title=" ">
<path fill="none" stroke="#63b8ff" d="M466.12,-186.54C480.1,-189.7 494.94,-193.05 509.24,-196.28"/>
<polygon fill="#63b8ff" stroke="#63b8ff" points="508.5,-199.7 519.03,-198.49 510.04,-192.87 508.5,-199.7"/>
</a>
</g>
</g>
<!-- Node12 -->
<g id="Node000012" class="node">
<title>Node12</title>
<g id="a_Node000012"><a xlink:href="classiot_1_1mqtt_1_1ControlPacket.html#a5010a3ec8f0c9d1a95b1fd1e85d77f71" target="_top" xlink:title=" ">
<polygon fill="white" stroke="#666666" points="652.5,-180.5 520.5,-180.5 520.5,-150.5 652.5,-150.5 652.5,-180.5"/>
<text text-anchor="start" x="528.5" y="-168.5" font-family="Helvetica,sans-Serif" font-size="10.00">iot::mqtt::ControlPacket</text>
<text text-anchor="middle" x="586.5" y="-157.5" font-family="Helvetica,sans-Serif" font-size="10.00">::getFlags</text>
</a>
</g>
</g>
<!-- Node10&#45;&gt;Node12 -->
<g id="edge11_Node000010_Node000012" class="edge">
<title>Node10&#45;&gt;Node12</title>
<g id="a_edge11_Node000010_Node000012"><a xlink:title=" ">
<path fill="none" stroke="#63b8ff" d="M478.11,-168.96C488.78,-168.62 499.71,-168.27 510.32,-167.93"/>
<polygon fill="#63b8ff" stroke="#63b8ff" points="510.49,-171.42 520.37,-167.6 510.26,-164.43 510.49,-171.42"/>
</a>
</g>
</g>
<!-- Node13 -->
<g id="Node000013" class="node">
<title>Node13</title>
<g id="a_Node000013"><a xlink:href="classiot_1_1mqtt_1_1ControlPacket.html#a2010ac4f0ef53a8c8140faa953b5a6cd" target="_top" xlink:title=" ">
<polygon fill="white" stroke="#666666" points="652.5,-132.5 520.5,-132.5 520.5,-102.5 652.5,-102.5 652.5,-132.5"/>
<text text-anchor="start" x="528.5" y="-120.5" font-family="Helvetica,sans-Serif" font-size="10.00">iot::mqtt::ControlPacket</text>
<text text-anchor="middle" x="586.5" y="-109.5" font-family="Helvetica,sans-Serif" font-size="10.00">::getType</text>
</a>
</g>
</g>
<!-- Node10&#45;&gt;Node13 -->
<g id="edge12_Node000010_Node000013" class="edge">
<title>Node10&#45;&gt;Node13</title>
<g id="a_edge12_Node000010_Node000013"><a xlink:title=" ">
<path fill="none" stroke="#63b8ff" d="M451.31,-156.46C473.79,-149.93 500.29,-142.24 523.78,-135.42"/>
<polygon fill="#63b8ff" stroke="#63b8ff" points="525.02,-138.7 533.64,-132.55 523.06,-131.98 525.02,-138.7"/>
</a>
</g>
</g>
<!-- Node14 -->
<g id="Node000014" class="node">
<title>Node14</title>
<g id="a_Node000014"><a xlink:href="classiot_1_1mqtt_1_1ControlPacket.html#a05bfc24d7ae7380ef9b2fcb64ce37526" target="_top" xlink:title=" ">
<polygon fill="white" stroke="#666666" points="827,-180.5 695,-180.5 695,-150.5 827,-150.5 827,-180.5"/>
<text text-anchor="start" x="703" y="-168.5" font-family="Helvetica,sans-Serif" font-size="10.00">iot::mqtt::ControlPacket</text>
<text text-anchor="middle" x="761" y="-157.5" font-family="Helvetica,sans-Serif" font-size="10.00">::serialize</text>
</a>
</g>
</g>
<!-- Node10&#45;&gt;Node14 -->
<g id="edge13_Node000010_Node000014" class="edge">
<title>Node10&#45;&gt;Node14</title>
<g id="a_edge13_Node000010_Node000014"><a xlink:title=" ">
<path fill="none" stroke="#63b8ff" d="M463.08,-156.34C468.37,-153.83 473.43,-150.9 478,-147.5 501.14,-130.28 488.57,-107.11 514,-93.5 570.82,-63.09 597.62,-73.86 659,-93.5 689.51,-103.26 718.66,-125.99 737.74,-143.32"/>
<polygon fill="#63b8ff" stroke="#63b8ff" points="735.57,-146.09 745.27,-150.36 740.35,-140.97 735.57,-146.09"/>
</a>
</g>
</g>
<!-- Node15 -->
<g id="Node000015" class="node">
<title>Node15</title>
<g id="a_Node000015"><a xlink:href="classiot_1_1mqtt_1_1FixedHeader.html#a8f92f1f71ca75c3516c7ba3ff7b0ebf5" target="_top" xlink:title=" ">
<polygon fill="white" stroke="#666666" points="991.5,-204.5 866.5,-204.5 866.5,-174.5 991.5,-174.5 991.5,-204.5"/>
<text text-anchor="start" x="874.5" y="-192.5" font-family="Helvetica,sans-Serif" font-size="10.00">iot::mqtt::FixedHeader</text>
<text text-anchor="middle" x="929" y="-181.5" font-family="Helvetica,sans-Serif" font-size="10.00">::serialize</text>
</a>
</g>
</g>
<!-- Node14&#45;&gt;Node15 -->
<g id="edge14_Node000014_Node000015" class="edge">
<title>Node14&#45;&gt;Node15</title>
<g id="a_edge14_Node000014_Node000015"><a xlink:title=" ">
<path fill="none" stroke="#63b8ff" d="M827.13,-174.92C836.7,-176.3 846.61,-177.73 856.31,-179.13"/>
<polygon fill="#63b8ff" stroke="#63b8ff" points="855.91,-182.61 866.31,-180.58 856.91,-175.69 855.91,-182.61"/>
</a>
</g>
</g>
<!-- Node17 -->
<g id="Node000017" class="node">
<title>Node17</title>
<g id="a_Node000017"><a xlink:href="classiot_1_1mqtt_1_1ControlPacket.html#ab4f58bf0c1920d705af23c8d7636247f" target="_top" xlink:title=" ">
<polygon fill="white" stroke="#666666" points="995,-156.5 863,-156.5 863,-126.5 995,-126.5 995,-156.5"/>
<text text-anchor="start" x="871" y="-144.5" font-family="Helvetica,sans-Serif" font-size="10.00">iot::mqtt::ControlPacket</text>
<text text-anchor="middle" x="929" y="-133.5" font-family="Helvetica,sans-Serif" font-size="10.00">::serializeVP</text>
</a>
</g>
</g>
<!-- Node14&#45;&gt;Node17 -->
<g id="edge16_Node000014_Node000017" class="edge">
<title>Node14&#45;&gt;Node17</title>
<g id="a_edge16_Node000014_Node000017"><a xlink:title=" ">
<path fill="none" stroke="#63b8ff" d="M827.13,-156.08C835.55,-154.87 844.23,-153.61 852.8,-152.37"/>
<polygon fill="#63b8ff" stroke="#63b8ff" points="853.39,-155.82 862.78,-150.93 852.39,-148.9 853.39,-155.82"/>
</a>
</g>
</g>
<!-- Node16 -->
<g id="Node000016" class="node">
<title>Node16</title>
<g id="a_Node000016"><a xlink:href="classiot_1_1mqtt_1_1types_1_1TypeBase.html#a7e6939bfafb586b2c2990b485bc5218a" target="_top" xlink:title=" ">
<polygon fill="white" stroke="#666666" points="1175,-204.5 1031,-204.5 1031,-174.5 1175,-174.5 1175,-204.5"/>
<text text-anchor="start" x="1039" y="-192.5" font-family="Helvetica,sans-Serif" font-size="10.00">iot::mqtt::types::TypeBase</text>
<text text-anchor="middle" x="1103" y="-181.5" font-family="Helvetica,sans-Serif" font-size="10.00">::serialize</text>
</a>
</g>
</g>
<!-- Node15&#45;&gt;Node16 -->
<g id="edge15_Node000015_Node000016" class="edge">
<title>Node15&#45;&gt;Node16</title>
<g id="a_edge15_Node000015_Node000016"><a xlink:title=" ">
<path fill="none" stroke="#63b8ff" d="M991.61,-189.5C1001.05,-189.5 1010.93,-189.5 1020.71,-189.5"/>
<polygon fill="#63b8ff" stroke="#63b8ff" points="1020.87,-193 1030.87,-189.5 1020.87,-186 1020.87,-193"/>
</a>
</g>
</g>
<!-- Node19 -->
<g id="Node000019" class="node">
<title>Node19</title>
<g id="a_Node000019"><a xlink:href="classiot_1_1mqtt_1_1Mqtt.html#ac2c838576318814d55feaaf87cdca5b9" target="_top" xlink:title=" ">
<polygon fill="white" stroke="#666666" points="644.5,-266 528.5,-266 528.5,-247 644.5,-247 644.5,-266"/>
<text text-anchor="middle" x="586.5" y="-254" font-family="Helvetica,sans-Serif" font-size="10.00">iot::mqtt::Mqtt::send</text>
</a>
</g>
</g>
<!-- Node18&#45;&gt;Node19 -->
<g id="edge18_Node000018_Node000019" class="edge">
<title>Node18&#45;&gt;Node19</title>
<g id="a_edge18_Node000018_Node000019"><a xlink:title=" ">
<path fill="none" stroke="#63b8ff" d="M441.71,-224.03C468.84,-230.16 504.29,-238.16 533.21,-244.69"/>
<polygon fill="#63b8ff" stroke="#63b8ff" points="532.61,-248.15 543.14,-246.93 534.16,-241.32 532.61,-248.15"/>
</a>
</g>
</g>
<!-- Node19&#45;&gt;Node14 -->
<g id="edge20_Node000019_Node000014" class="edge">
<title>Node19&#45;&gt;Node14</title>
<g id="a_edge20_Node000019_Node000014"><a xlink:title=" ">
<path fill="none" stroke="#63b8ff" d="M633.38,-246.93C642.09,-244.39 650.98,-241.27 659,-237.5 687.13,-224.27 715.66,-203.06 735.19,-187.08"/>
<polygon fill="#63b8ff" stroke="#63b8ff" points="737.53,-189.68 742.98,-180.59 733.05,-184.31 737.53,-189.68"/>
</a>
</g>
</g>
<!-- Node19&#45;&gt;Node19 -->
<g id="edge19_Node000019_Node000019" class="edge">
<title>Node19&#45;&gt;Node19</title>
<g id="a_edge19_Node000019_Node000019"><a xlink:title=" ">
<path fill="none" stroke="#63b8ff" d="M559.68,-266.08C546.63,-274.73 555.57,-284 586.5,-284 607.28,-284 618.13,-279.82 619.06,-274.45"/>
<polygon fill="#63b8ff" stroke="#63b8ff" points="621.86,-272.35 613.32,-266.08 616.09,-276.31 621.86,-272.35"/>
</a>
</g>
</g>
<!-- Node20&#45;&gt;Node19 -->
<g id="edge22_Node000020_Node000019" class="edge">
<title>Node20&#45;&gt;Node19</title>
<g id="a_edge22_Node000020_Node000019"><a xlink:title=" ">
<path fill="none" stroke="#63b8ff" d="M473.01,-253.48C487.95,-253.88 503.58,-254.3 518.28,-254.69"/>
<polygon fill="#63b8ff" stroke="#63b8ff" points="518.2,-258.19 528.29,-254.96 518.39,-251.19 518.2,-258.19"/>
</a>
</g>
</g>
</g>
</svg>
