<?xml version="1.0" encoding="UTF-8" standalone="no"?>
<!DOCTYPE svg PUBLIC "-//W3C//DTD SVG 1.1//EN"
 "http://www.w3.org/Graphics/SVG/1.1/DTD/svg11.dtd">
<!-- Generated by graphviz version 2.43.0 (0)
 -->
<!-- Title: core::pipe::PipeSource::eof Pages: 1 -->
<svg width="894pt" height="193pt"
 viewBox="0.00 0.00 894.00 193.00" xmlns="http://www.w3.org/2000/svg" xmlns:xlink="http://www.w3.org/1999/xlink">
<g id="graph0" class="graph" transform="scale(1 1) rotate(0) translate(4 189)">
<title>core::pipe::PipeSource::eof</title>
<!-- Node1 -->
<g id="Node000001" class="node">
<title>Node1</title>
<g id="a_Node000001"><a xlink:title=" ">
<polygon fill="#999999" stroke="#666666" points="135,-114.5 0,-114.5 0,-95.5 135,-95.5 135,-114.5"/>
<text text-anchor="middle" x="67.5" y="-102.5" font-family="Helvetica,sans-Serif" font-size="10.00">core::pipe::PipeSource::eof</text>
</a>
</g>
</g>
<!-- Node2 -->
<g id="Node000002" class="node">
<title>Node2</title>
<g id="a_Node000002"><a xlink:href="classcore_1_1DescriptorEventReceiver.html#a4ab422ce6622a29cee38a0108ee6ccc1" target="_top" xlink:title=" ">
<polygon fill="white" stroke="#666666" points="322,-120 171,-120 171,-90 322,-90 322,-120"/>
<text text-anchor="start" x="179" y="-108" font-family="Helvetica,sans-Serif" font-size="10.00">core::DescriptorEventReceiver</text>
<text text-anchor="middle" x="246.5" y="-97" font-family="Helvetica,sans-Serif" font-size="10.00">::disable</text>
</a>
</g>
</g>
<!-- Node1&#45;&gt;Node2 -->
<g id="edge1_Node000001_Node000002" class="edge">
<title>Node1&#45;&gt;Node2</title>
<g id="a_edge1_Node000001_Node000002"><a xlink:title=" ">
<path fill="none" stroke="#63b8ff" d="M135.16,-105C143.55,-105 152.21,-105 160.82,-105"/>
<polygon fill="#63b8ff" stroke="#63b8ff" points="160.89,-108.5 170.89,-105 160.89,-101.5 160.89,-108.5"/>
</a>
</g>
</g>
<!-- Node3 -->
<g id="Node000003" class="node">
<title>Node3</title>
<g id="a_Node000003"><a xlink:href="classcore_1_1DescriptorEventPublisher.html#a998d681666ff72ed73cf0799ff4aca77" target="_top" xlink:title=" ">
<polygon fill="white" stroke="#666666" points="510,-185 358,-185 358,-155 510,-155 510,-185"/>
<text text-anchor="start" x="366" y="-173" font-family="Helvetica,sans-Serif" font-size="10.00">core::DescriptorEventPublisher</text>
<text text-anchor="middle" x="434" y="-162" font-family="Helvetica,sans-Serif" font-size="10.00">::disable</text>
</a>
</g>
</g>
<!-- Node2&#45;&gt;Node3 -->
<g id="edge2_Node000002_Node000003" class="edge">
<title>Node2&#45;&gt;Node3</title>
<g id="a_edge2_Node000002_Node000003"><a xlink:title=" ">
<path fill="none" stroke="#63b8ff" d="M290.52,-120.08C317.24,-129.44 351.76,-141.53 380.13,-151.47"/>
<polygon fill="#63b8ff" stroke="#63b8ff" points="379.29,-154.89 389.89,-154.89 381.61,-148.28 379.29,-154.89"/>
</a>
</g>
</g>
<!-- Node4 -->
<g id="Node000004" class="node">
<title>Node4</title>
<g id="a_Node000004"><a xlink:href="classcore_1_1EventReceiver.html#a0735c234c7848cf4d45473a6f7ce11b2" target="_top" xlink:title=" ">
<polygon fill="white" stroke="#666666" points="675,-129 569,-129 569,-99 675,-99 675,-129"/>
<text text-anchor="start" x="577" y="-117" font-family="Helvetica,sans-Serif" font-size="10.00">core::EventReceiver</text>
<text text-anchor="middle" x="622" y="-106" font-family="Helvetica,sans-Serif" font-size="10.00">::getName</text>
</a>
</g>
</g>
<!-- Node2&#45;&gt;Node4 -->
<g id="edge3_Node000002_Node000004" class="edge">
<title>Node2&#45;&gt;Node4</title>
<g id="a_edge3_Node000002_Node000004"><a xlink:title=" ">
<path fill="none" stroke="#63b8ff" d="M322.1,-107.07C334.1,-107.39 346.39,-107.71 358,-108 426.49,-109.71 505.01,-111.48 558.29,-112.65"/>
<polygon fill="#63b8ff" stroke="#63b8ff" points="558.53,-116.15 568.6,-112.87 558.68,-109.15 558.53,-116.15"/>
</a>
</g>
</g>
<!-- Node6 -->
<g id="Node000006" class="node">
<title>Node6</title>
<g id="a_Node000006"><a xlink:href="classcore_1_1DescriptorEventReceiver.html#ac80fc901f941c059a6ebdb28147b25a2" target="_top" xlink:title=" ">
<polygon fill="white" stroke="#666666" points="509.5,-99 358.5,-99 358.5,-69 509.5,-69 509.5,-99"/>
<text text-anchor="start" x="366.5" y="-87" font-family="Helvetica,sans-Serif" font-size="10.00">core::DescriptorEventReceiver</text>
<text text-anchor="middle" x="434" y="-76" font-family="Helvetica,sans-Serif" font-size="10.00">::isSuspended</text>
</a>
</g>
</g>
<!-- Node2&#45;&gt;Node6 -->
<g id="edge5_Node000002_Node000006" class="edge">
<title>Node2&#45;&gt;Node6</title>
<g id="a_edge5_Node000002_Node000006"><a xlink:title=" ">
<path fill="none" stroke="#63b8ff" d="M322.15,-96.55C330.69,-95.58 339.44,-94.59 348.1,-93.61"/>
<polygon fill="#63b8ff" stroke="#63b8ff" points="348.66,-97.07 358.2,-92.47 347.87,-90.11 348.66,-97.07"/>
</a>
</g>
</g>
<!-- Node7 -->
<g id="Node000007" class="node">
<title>Node7</title>
<g id="a_Node000007"><a xlink:href="classcore_1_1DescriptorEventReceiver.html#aab5e466759c83194c5bc4b41f1a33103" target="_top" xlink:title=" ">
<polygon fill="white" stroke="#666666" points="509.5,-51 358.5,-51 358.5,-21 509.5,-21 509.5,-51"/>
<text text-anchor="start" x="366.5" y="-39" font-family="Helvetica,sans-Serif" font-size="10.00">core::DescriptorEventReceiver</text>
<text text-anchor="middle" x="434" y="-28" font-family="Helvetica,sans-Serif" font-size="10.00">::suspend</text>
</a>
</g>
</g>
<!-- Node2&#45;&gt;Node7 -->
<g id="edge6_Node000002_Node000007" class="edge">
<title>Node2&#45;&gt;Node7</title>
<g id="a_edge6_Node000002_Node000007"><a xlink:title=" ">
<path fill="none" stroke="#63b8ff" d="M282.56,-89.91C304.16,-80.83 332.49,-69.26 358,-60 363.22,-58.1 368.67,-56.21 374.15,-54.35"/>
<polygon fill="#63b8ff" stroke="#63b8ff" points="375.61,-57.56 384,-51.08 373.41,-50.91 375.61,-57.56"/>
</a>
</g>
</g>
<!-- Node5 -->
<g id="Node000005" class="node">
<title>Node5</title>
<g id="a_Node000005"><a xlink:href="classcore_1_1Event.html#a0ab010154200ef32e875dc673e921c94" target="_top" xlink:title=" ">
<polygon fill="white" stroke="#666666" points="866.5,-123.5 753.5,-123.5 753.5,-104.5 866.5,-104.5 866.5,-123.5"/>
<text text-anchor="middle" x="810" y="-111.5" font-family="Helvetica,sans-Serif" font-size="10.00">core::Event::getName</text>
</a>
</g>
</g>
<!-- Node4&#45;&gt;Node5 -->
<g id="edge4_Node000004_Node000005" class="edge">
<title>Node4&#45;&gt;Node5</title>
<g id="a_edge4_Node000004_Node000005"><a xlink:title=" ">
<path fill="none" stroke="#63b8ff" d="M675.31,-114C696.36,-114 720.89,-114 743.14,-114"/>
<polygon fill="#63b8ff" stroke="#63b8ff" points="743.19,-117.5 753.19,-114 743.19,-110.5 743.19,-117.5"/>
</a>
</g>
</g>
<!-- Node7&#45;&gt;Node4 -->
<g id="edge7_Node000007_Node000004" class="edge">
<title>Node7&#45;&gt;Node4</title>
<g id="a_edge7_Node000007_Node000004"><a xlink:title=" ">
<path fill="none" stroke="#63b8ff" d="M485.38,-51.03C493.68,-53.81 502.13,-56.85 510,-60 517.29,-62.92 552.65,-80.21 581.52,-94.45"/>
<polygon fill="#63b8ff" stroke="#63b8ff" points="580.11,-97.66 590.63,-98.95 583.21,-91.38 580.11,-97.66"/>
</a>
</g>
</g>
<!-- Node8 -->
<g id="Node000008" class="node">
<title>Node8</title>
<g id="a_Node000008"><a xlink:href="classcore_1_1Observer.html#a12bf1ddfdb90f05f28d16c09ce0658f8" target="_top" xlink:title=" ">
<polygon fill="white" stroke="#666666" points="690.5,-67.5 553.5,-67.5 553.5,-48.5 690.5,-48.5 690.5,-67.5"/>
<text text-anchor="middle" x="622" y="-55.5" font-family="Helvetica,sans-Serif" font-size="10.00">core::Observer::isObserved</text>
</a>
</g>
</g>
<!-- Node7&#45;&gt;Node8 -->
<g id="edge8_Node000007_Node000008" class="edge">
<title>Node7&#45;&gt;Node8</title>
<g id="a_edge8_Node000007_Node000008"><a xlink:title=" ">
<path fill="none" stroke="#63b8ff" d="M509.58,-44.82C520.65,-46.13 532.07,-47.48 543.2,-48.8"/>
<polygon fill="#63b8ff" stroke="#63b8ff" points="542.98,-52.3 553.32,-50 543.8,-45.34 542.98,-52.3"/>
</a>
</g>
</g>
<!-- Node9 -->
<g id="Node000009" class="node">
<title>Node9</title>
<g id="a_Node000009"><a xlink:href="classcore_1_1DescriptorEventPublisher.html#ac1bfb115c6aba58d380862a43db457e8" target="_top" xlink:title=" ">
<polygon fill="white" stroke="#666666" points="698,-30 546,-30 546,0 698,0 698,-30"/>
<text text-anchor="start" x="554" y="-18" font-family="Helvetica,sans-Serif" font-size="10.00">core::DescriptorEventPublisher</text>
<text text-anchor="middle" x="622" y="-7" font-family="Helvetica,sans-Serif" font-size="10.00">::suspend</text>
</a>
</g>
</g>
<!-- Node7&#45;&gt;Node9 -->
<g id="edge9_Node000007_Node000009" class="edge">
<title>Node7&#45;&gt;Node9</title>
<g id="a_edge9_Node000007_Node000009"><a xlink:title=" ">
<path fill="none" stroke="#63b8ff" d="M509.58,-27.58C518.15,-26.61 526.94,-25.62 535.64,-24.64"/>
<polygon fill="#63b8ff" stroke="#63b8ff" points="536.25,-28.09 545.79,-23.49 535.47,-21.13 536.25,-28.09"/>
</a>
</g>
</g>
<!-- Node10 -->
<g id="Node000010" class="node">
<title>Node10</title>
<g id="a_Node000010"><a xlink:href="classcore_1_1DescriptorEventPublisher.html#a5e0e1a78a4bae48537ba6d0425a7c1cf" target="_top" xlink:title=" ">
<polygon fill="white" stroke="#666666" points="886,-30 734,-30 734,0 886,0 886,-30"/>
<text text-anchor="start" x="742" y="-18" font-family="Helvetica,sans-Serif" font-size="10.00">core::DescriptorEventPublisher</text>
<text text-anchor="middle" x="810" y="-7" font-family="Helvetica,sans-Serif" font-size="10.00">::muxOff</text>
</a>
</g>
</g>
<!-- Node9&#45;&gt;Node10 -->
<g id="edge10_Node000009_Node000010" class="edge">
<title>Node9&#45;&gt;Node10</title>
<g id="a_edge10_Node000009_Node000010"><a xlink:title=" ">
<path fill="none" stroke="#63b8ff" d="M698.12,-15C706.6,-15 715.28,-15 723.87,-15"/>
<polygon fill="#63b8ff" stroke="#63b8ff" points="723.9,-18.5 733.9,-15 723.9,-11.5 723.9,-18.5"/>
</a>
</g>
</g>
</g>
</svg>
