<?xml version="1.0" encoding="UTF-8" standalone="no"?>
<!DOCTYPE svg PUBLIC "-//W3C//DTD SVG 1.1//EN"
 "http://www.w3.org/Graphics/SVG/1.1/DTD/svg11.dtd">
<!-- Generated by graphviz version 2.43.0 (0)
 -->
<!-- Title: web::http::server::Response::sendHeader Pages: 1 -->
<svg width="762pt" height="227pt"
 viewBox="0.00 0.00 762.00 227.00" xmlns="http://www.w3.org/2000/svg" xmlns:xlink="http://www.w3.org/1999/xlink">
<g id="graph0" class="graph" transform="scale(1 1) rotate(0) translate(4 223)">
<title>web::http::server::Response::sendHeader</title>
<!-- Node1 -->
<g id="Node000001" class="node">
<title>Node1</title>
<g id="a_Node000001"><a xlink:title=" ">
<polygon fill="#999999" stroke="#666666" points="754,-171 635,-171 635,-141 754,-141 754,-171"/>
<text text-anchor="start" x="643" y="-159" font-family="Helvetica,sans-Serif" font-size="10.00">web::http::server::</text>
<text text-anchor="middle" x="694.5" y="-148" font-family="Helvetica,sans-Serif" font-size="10.00">Response::sendHeader</text>
</a>
</g>
</g>
<!-- Node2 -->
<g id="Node000002" class="node">
<title>Node2</title>
<g id="a_Node000002"><a xlink:href="classweb_1_1http_1_1server_1_1Response.html#a6bdff1ff4fb13a952df7bfefd0b87667" target="_top" xlink:title=" ">
<polygon fill="white" stroke="#666666" points="599,-171 495,-171 495,-141 599,-141 599,-171"/>
<text text-anchor="start" x="503" y="-159" font-family="Helvetica,sans-Serif" font-size="10.00">web::http::server::</text>
<text text-anchor="middle" x="547" y="-148" font-family="Helvetica,sans-Serif" font-size="10.00">Response::enqueue</text>
</a>
</g>
</g>
<!-- Node1&#45;&gt;Node2 -->
<g id="edge1_Node000001_Node000002" class="edge">
<title>Node1&#45;&gt;Node2</title>
<g id="a_edge1_Node000001_Node000002"><a xlink:title=" ">
<path fill="none" stroke="#63b8ff" d="M624.66,-149.26C616.03,-149.22 607.32,-149.31 599.02,-149.52"/>
<polygon fill="#63b8ff" stroke="#63b8ff" points="624.7,-152.76 634.74,-149.36 624.78,-145.76 624.7,-152.76"/>
</a>
</g>
</g>
<!-- Node2&#45;&gt;Node1 -->
<g id="edge13_Node000002_Node000001" class="edge">
<title>Node2&#45;&gt;Node1</title>
<g id="a_edge13_Node000002_Node000001"><a xlink:title=" ">
<path fill="none" stroke="#63b8ff" d="M609.2,-162.67C617.66,-162.79 626.33,-162.77 634.74,-162.64"/>
<polygon fill="#63b8ff" stroke="#63b8ff" points="609.09,-159.17 599.02,-162.48 608.95,-166.17 609.09,-159.17"/>
</a>
</g>
</g>
<!-- Node3 -->
<g id="Node000003" class="node">
<title>Node3</title>
<g id="a_Node000003"><a xlink:href="classweb_1_1http_1_1server_1_1Response.html#a9c5834911394dedb7faed2e52ceb7a1d" target="_top" xlink:title=" ">
<polygon fill="white" stroke="#666666" points="459,-219 355,-219 355,-189 459,-189 459,-219"/>
<text text-anchor="start" x="363" y="-207" font-family="Helvetica,sans-Serif" font-size="10.00">web::http::server::</text>
<text text-anchor="middle" x="407" y="-196" font-family="Helvetica,sans-Serif" font-size="10.00">Response::enqueue</text>
</a>
</g>
</g>
<!-- Node2&#45;&gt;Node3 -->
<g id="edge2_Node000002_Node000003" class="edge">
<title>Node2&#45;&gt;Node3</title>
<g id="a_edge2_Node000002_Node000003"><a xlink:title=" ">
<path fill="none" stroke="#63b8ff" d="M493.26,-174.35C479.34,-179.19 464.48,-184.36 451.13,-189"/>
<polygon fill="#63b8ff" stroke="#63b8ff" points="494.42,-177.65 502.71,-171.06 492.12,-171.04 494.42,-177.65"/>
</a>
</g>
</g>
<!-- Node4 -->
<g id="Node000004" class="node">
<title>Node4</title>
<g id="a_Node000004"><a xlink:href="classweb_1_1http_1_1server_1_1Response.html#a6693a2431a465a948bca9ba1593a1f20" target="_top" xlink:title=" ">
<polygon fill="white" stroke="#666666" points="456,-171 358,-171 358,-141 456,-141 456,-171"/>
<text text-anchor="start" x="366" y="-159" font-family="Helvetica,sans-Serif" font-size="10.00">web::http::server::</text>
<text text-anchor="middle" x="407" y="-148" font-family="Helvetica,sans-Serif" font-size="10.00">Response::receive</text>
</a>
</g>
</g>
<!-- Node2&#45;&gt;Node4 -->
<g id="edge3_Node000002_Node000004" class="edge">
<title>Node2&#45;&gt;Node4</title>
<g id="a_edge3_Node000002_Node000004"><a xlink:title=" ">
<path fill="none" stroke="#63b8ff" d="M484.46,-156C475,-156 465.35,-156 456.23,-156"/>
<polygon fill="#63b8ff" stroke="#63b8ff" points="484.61,-159.5 494.61,-156 484.61,-152.5 484.61,-159.5"/>
</a>
</g>
</g>
<!-- Node5 -->
<g id="Node000005" class="node">
<title>Node5</title>
<g id="a_Node000005"><a xlink:href="classweb_1_1http_1_1server_1_1Response.html#ad13e93ee083ee9e780a4478a86fdefec" target="_top" xlink:title=" ">
<polygon fill="white" stroke="#666666" points="455,-123 359,-123 359,-93 455,-93 455,-123"/>
<text text-anchor="start" x="367" y="-111" font-family="Helvetica,sans-Serif" font-size="10.00">web::http::server::</text>
<text text-anchor="middle" x="407" y="-100" font-family="Helvetica,sans-Serif" font-size="10.00">Response::send</text>
</a>
</g>
</g>
<!-- Node2&#45;&gt;Node5 -->
<g id="edge4_Node000002_Node000005" class="edge">
<title>Node2&#45;&gt;Node5</title>
<g id="a_edge4_Node000002_Node000005"><a xlink:title=" ">
<path fill="none" stroke="#63b8ff" d="M493.26,-137.65C479.34,-132.81 464.48,-127.64 451.13,-123"/>
<polygon fill="#63b8ff" stroke="#63b8ff" points="492.12,-140.96 502.71,-140.94 494.42,-134.35 492.12,-140.96"/>
</a>
</g>
</g>
<!-- Node6 -->
<g id="Node000006" class="node">
<title>Node6</title>
<g id="a_Node000006"><a xlink:href="classweb_1_1http_1_1server_1_1Response.html#a761cba48efb6eed2fa816750670c03db" target="_top" xlink:title=" ">
<polygon fill="white" stroke="#666666" points="304.5,-206 208.5,-206 208.5,-176 304.5,-176 304.5,-206"/>
<text text-anchor="start" x="216.5" y="-194" font-family="Helvetica,sans-Serif" font-size="10.00">web::http::server::</text>
<text text-anchor="middle" x="256.5" y="-183" font-family="Helvetica,sans-Serif" font-size="10.00">Response::end</text>
</a>
</g>
</g>
<!-- Node5&#45;&gt;Node6 -->
<g id="edge5_Node000005_Node000006" class="edge">
<title>Node5&#45;&gt;Node6</title>
<g id="a_edge5_Node000005_Node000006"><a xlink:title=" ">
<path fill="none" stroke="#63b8ff" d="M360.91,-128.18C358.87,-129.41 356.9,-130.69 355,-132 336.65,-144.7 337.77,-154.93 319,-167 313.89,-170.29 308.26,-173.24 302.55,-175.86"/>
<polygon fill="#63b8ff" stroke="#63b8ff" points="363.03,-131 370.04,-123.06 359.61,-124.9 363.03,-131"/>
</a>
</g>
</g>
<!-- Node8 -->
<g id="Node000008" class="node">
<title>Node8</title>
<g id="a_Node000008"><a xlink:href="classexpress_1_1Response.html#ae60d0bae9024f07455b4d54c6fe9b4a0" target="_top" xlink:title=" ">
<polygon fill="white" stroke="#666666" points="319,-139.5 194,-139.5 194,-120.5 319,-120.5 319,-139.5"/>
<text text-anchor="middle" x="256.5" y="-127.5" font-family="Helvetica,sans-Serif" font-size="10.00">express::Response::json</text>
</a>
</g>
</g>
<!-- Node5&#45;&gt;Node8 -->
<g id="edge7_Node000005_Node000008" class="edge">
<title>Node5&#45;&gt;Node8</title>
<g id="a_edge7_Node000005_Node000008"><a xlink:title=" ">
<path fill="none" stroke="#63b8ff" d="M348.68,-116.49C338.99,-117.93 328.89,-119.42 319.1,-120.87"/>
<polygon fill="#63b8ff" stroke="#63b8ff" points="349.23,-119.95 358.61,-115.02 348.2,-113.02 349.23,-119.95"/>
</a>
</g>
</g>
<!-- Node9 -->
<g id="Node000009" class="node">
<title>Node9</title>
<g id="a_Node000009"><a xlink:href="classweb_1_1http_1_1server_1_1Response.html#a5128a20b904071c22a077b040c8ff138" target="_top" xlink:title=" ">
<polygon fill="white" stroke="#666666" points="304.5,-102 208.5,-102 208.5,-72 304.5,-72 304.5,-102"/>
<text text-anchor="start" x="216.5" y="-90" font-family="Helvetica,sans-Serif" font-size="10.00">web::http::server::</text>
<text text-anchor="middle" x="256.5" y="-79" font-family="Helvetica,sans-Serif" font-size="10.00">Response::send</text>
</a>
</g>
</g>
<!-- Node5&#45;&gt;Node9 -->
<g id="edge9_Node000005_Node000009" class="edge">
<title>Node5&#45;&gt;Node9</title>
<g id="a_edge9_Node000005_Node000009"><a xlink:title=" ">
<path fill="none" stroke="#63b8ff" d="M348.29,-99.84C333.86,-97.8 318.55,-95.63 304.7,-93.67"/>
<polygon fill="#63b8ff" stroke="#63b8ff" points="348.21,-103.36 358.61,-101.3 349.19,-96.43 348.21,-103.36"/>
</a>
</g>
</g>
<!-- Node10 -->
<g id="Node000010" class="node">
<title>Node10</title>
<g id="a_Node000010"><a xlink:href="classexpress_1_1Response.html#aead1c666aafef5787f1824e5ea30efad" target="_top" xlink:title=" ">
<polygon fill="white" stroke="#666666" points="310,-54 203,-54 203,-24 310,-24 310,-54"/>
<text text-anchor="start" x="211" y="-42" font-family="Helvetica,sans-Serif" font-size="10.00">express::Response::</text>
<text text-anchor="middle" x="256.5" y="-31" font-family="Helvetica,sans-Serif" font-size="10.00">sendStatus</text>
</a>
</g>
</g>
<!-- Node5&#45;&gt;Node10 -->
<g id="edge10_Node000005_Node000010" class="edge">
<title>Node5&#45;&gt;Node10</title>
<g id="a_edge10_Node000005_Node000010"><a xlink:title=" ">
<path fill="none" stroke="#63b8ff" d="M369.37,-87.97C354,-79.84 335.81,-70.6 319,-63 312.21,-59.93 304.91,-56.87 297.78,-54.02"/>
<polygon fill="#63b8ff" stroke="#63b8ff" points="368.08,-91.24 378.55,-92.86 371.37,-85.06 368.08,-91.24"/>
</a>
</g>
</g>
<!-- Node7 -->
<g id="Node000007" class="node">
<title>Node7</title>
<g id="a_Node000007"><a xlink:href="classweb_1_1websocket_1_1server_1_1SocketContextUpgradeFactory.html#a7164a3b2a96810d40a3c081e1289277b" target="_top" xlink:title=" ">
<polygon fill="white" stroke="#666666" points="158,-211.5 0,-211.5 0,-170.5 158,-170.5 158,-211.5"/>
<text text-anchor="start" x="8" y="-199.5" font-family="Helvetica,sans-Serif" font-size="10.00">web::websocket::server</text>
<text text-anchor="start" x="8" y="-188.5" font-family="Helvetica,sans-Serif" font-size="10.00">::SocketContextUpgradeFactory</text>
<text text-anchor="middle" x="79" y="-177.5" font-family="Helvetica,sans-Serif" font-size="10.00">::create</text>
</a>
</g>
</g>
<!-- Node6&#45;&gt;Node7 -->
<g id="edge6_Node000006_Node000007" class="edge">
<title>Node6&#45;&gt;Node7</title>
<g id="a_edge6_Node000006_Node000007"><a xlink:title=" ">
<path fill="none" stroke="#63b8ff" d="M198.44,-191C185.64,-191 171.83,-191 158.33,-191"/>
<polygon fill="#63b8ff" stroke="#63b8ff" points="198.47,-194.5 208.47,-191 198.47,-187.5 198.47,-194.5"/>
</a>
</g>
</g>
<!-- Node8&#45;&gt;Node8 -->
<g id="edge8_Node000008_Node000008" class="edge">
<title>Node8&#45;&gt;Node8</title>
<g id="a_edge8_Node000008_Node000008"><a xlink:title=" ">
<path fill="none" stroke="#63b8ff" d="M284.5,-148.32C283.33,-153.51 274,-157.5 256.5,-157.5 229.84,-157.5 222.13,-148.23 233.38,-139.58"/>
<polygon fill="#63b8ff" stroke="#63b8ff" points="287.55,-146.61 279.62,-139.58 281.44,-150.02 287.55,-146.61"/>
</a>
</g>
</g>
<!-- Node11 -->
<g id="Node000011" class="node">
<title>Node11</title>
<g id="a_Node000011"><a xlink:href="classexpress_1_1RootRoute.html#a2d65050e101a52dc8c303cd787d1cb23" target="_top" xlink:title=" ">
<polygon fill="white" stroke="#666666" points="131,-78 27,-78 27,-48 131,-48 131,-78"/>
<text text-anchor="start" x="35" y="-66" font-family="Helvetica,sans-Serif" font-size="10.00">express::RootRoute</text>
<text text-anchor="middle" x="79" y="-55" font-family="Helvetica,sans-Serif" font-size="10.00">::dispatch</text>
</a>
</g>
</g>
<!-- Node10&#45;&gt;Node11 -->
<g id="edge11_Node000010_Node000011" class="edge">
<title>Node10&#45;&gt;Node11</title>
<g id="a_edge11_Node000010_Node000011"><a xlink:title=" ">
<path fill="none" stroke="#63b8ff" d="M192.78,-47.58C172.56,-50.34 150.39,-53.37 131.11,-56.01"/>
<polygon fill="#63b8ff" stroke="#63b8ff" points="193.41,-51.02 202.84,-46.2 192.46,-44.09 193.41,-51.02"/>
</a>
</g>
</g>
<!-- Node12 -->
<g id="Node000012" class="node">
<title>Node12</title>
<g id="a_Node000012"><a xlink:href="classexpress_1_1Response.html#a6da531370bf0e26c31d44e9831a896d2" target="_top" xlink:title=" ">
<polygon fill="white" stroke="#666666" points="132.5,-30 25.5,-30 25.5,0 132.5,0 132.5,-30"/>
<text text-anchor="start" x="33.5" y="-18" font-family="Helvetica,sans-Serif" font-size="10.00">express::Response::</text>
<text text-anchor="middle" x="79" y="-7" font-family="Helvetica,sans-Serif" font-size="10.00">redirect</text>
</a>
</g>
</g>
<!-- Node10&#45;&gt;Node12 -->
<g id="edge12_Node000010_Node000012" class="edge">
<title>Node10&#45;&gt;Node12</title>
<g id="a_edge12_Node000010_Node000012"><a xlink:title=" ">
<path fill="none" stroke="#63b8ff" d="M192.74,-30.42C173.05,-27.72 151.53,-24.78 132.62,-22.2"/>
<polygon fill="#63b8ff" stroke="#63b8ff" points="192.46,-33.91 202.84,-31.8 193.41,-26.98 192.46,-33.91"/>
</a>
</g>
</g>
</g>
</svg>
