<?xml version="1.0" encoding="UTF-8" standalone="no"?>
<!DOCTYPE svg PUBLIC "-//W3C//DTD SVG 1.1//EN"
 "http://www.w3.org/Graphics/SVG/1.1/DTD/svg11.dtd">
<!-- Generated by graphviz version 2.42.4 (0)
 -->
<!-- Title: web::websocket::SubProtocolContext::sendPing Pages: 1 -->
<svg width="1128pt" height="49pt"
 viewBox="0.00 0.00 1128.00 49.00" xmlns="http://www.w3.org/2000/svg" xmlns:xlink="http://www.w3.org/1999/xlink">
<g id="graph0" class="graph" transform="scale(1 1) rotate(0) translate(4 45)">
<title>web::websocket::SubProtocolContext::sendPing</title>
<!-- Node1 -->
<g id="Node000001" class="node">
<title>Node1</title>
<g id="a_Node000001"><a xlink:title=" ">
<polygon fill="#999999" stroke="#666666" points="1120,-35.5 962,-35.5 962,-5.5 1120,-5.5 1120,-35.5"/>
<text text-anchor="start" x="970" y="-23.5" font-family="Helvetica,sans-Serif" font-size="10.00">web::websocket::SubProtocol</text>
<text text-anchor="middle" x="1041" y="-12.5" font-family="Helvetica,sans-Serif" font-size="10.00">Context::sendPing</text>
</a>
</g>
</g>
<!-- Node2 -->
<g id="Node000002" class="node">
<title>Node2</title>
<g id="a_Node000002"><a xlink:href="classweb_1_1websocket_1_1SubProtocol.html#a43db1f80b0e64d8eb3951fff74719247" target="_top" xlink:title=" ">
<polygon fill="white" stroke="#666666" points="926,-35.5 768,-35.5 768,-5.5 926,-5.5 926,-35.5"/>
<text text-anchor="start" x="776" y="-23.5" font-family="Helvetica,sans-Serif" font-size="10.00">web::websocket::SubProtocol</text>
<text text-anchor="middle" x="847" y="-12.5" font-family="Helvetica,sans-Serif" font-size="10.00">::sendPing</text>
</a>
</g>
</g>
<!-- Node1&#45;&gt;Node2 -->
<g id="edge1_Node000001_Node000002" class="edge">
<title>Node1&#45;&gt;Node2</title>
<g id="a_edge1_Node000001_Node000002"><a xlink:title=" ">
<path fill="none" stroke="#63b8ff" d="M951.85,-20.5C943.23,-20.5 934.53,-20.5 926.02,-20.5"/>
<polygon fill="#63b8ff" stroke="#63b8ff" points="951.91,-24 961.91,-20.5 951.91,-17 951.91,-24"/>
</a>
</g>
</g>
<!-- Node3 -->
<g id="Node000003" class="node">
<title>Node3</title>
<g id="a_Node000003"><a xlink:href="classweb_1_1websocket_1_1SubProtocol.html#a325492e158e2c9646819ffa80634db1f" target="_top" xlink:title=" ">
<polygon fill="white" stroke="#666666" points="732,-35.5 574,-35.5 574,-5.5 732,-5.5 732,-35.5"/>
<text text-anchor="start" x="582" y="-23.5" font-family="Helvetica,sans-Serif" font-size="10.00">web::websocket::SubProtocol</text>
<text text-anchor="middle" x="653" y="-12.5" font-family="Helvetica,sans-Serif" font-size="10.00">::SubProtocol</text>
</a>
</g>
</g>
<!-- Node2&#45;&gt;Node3 -->
<g id="edge2_Node000002_Node000003" class="edge">
<title>Node2&#45;&gt;Node3</title>
<g id="a_edge2_Node000002_Node000003"><a xlink:title=" ">
<path fill="none" stroke="#63b8ff" d="M757.85,-20.5C749.23,-20.5 740.53,-20.5 732.02,-20.5"/>
<polygon fill="#63b8ff" stroke="#63b8ff" points="757.91,-24 767.91,-20.5 757.91,-17 757.91,-24"/>
</a>
</g>
</g>
<!-- Node4 -->
<g id="Node000004" class="node">
<title>Node4</title>
<g id="a_Node000004"><a xlink:href="classweb_1_1websocket_1_1server_1_1SubProtocol.html#a90c19bba8f27311f6967d4f22a4e3244" target="_top" xlink:title=" ">
<polygon fill="white" stroke="#666666" points="538,-35.5 394,-35.5 394,-5.5 538,-5.5 538,-35.5"/>
<text text-anchor="start" x="402" y="-23.5" font-family="Helvetica,sans-Serif" font-size="10.00">web::websocket::server</text>
<text text-anchor="middle" x="466" y="-12.5" font-family="Helvetica,sans-Serif" font-size="10.00">::SubProtocol::SubProtocol</text>
</a>
</g>
</g>
<!-- Node3&#45;&gt;Node4 -->
<g id="edge3_Node000003_Node000004" class="edge">
<title>Node3&#45;&gt;Node4</title>
<g id="a_edge3_Node000003_Node000004"><a xlink:title=" ">
<path fill="none" stroke="#63b8ff" d="M563.77,-20.5C555.18,-20.5 546.54,-20.5 538.15,-20.5"/>
<polygon fill="#63b8ff" stroke="#63b8ff" points="563.81,-24 573.81,-20.5 563.81,-17 563.81,-24"/>
</a>
</g>
</g>
<!-- Node5 -->
<g id="Node000005" class="node">
<title>Node5</title>
<g id="a_Node000005"><a xlink:href="classapps_1_1websocket_1_1subprotocol_1_1echo_1_1server_1_1Echo.html#a919728679e7fdb92248408d886ea3e92" target="_top" xlink:title=" ">
<polygon fill="white" stroke="#666666" points="358,-35.5 197,-35.5 197,-5.5 358,-5.5 358,-35.5"/>
<text text-anchor="start" x="205" y="-23.5" font-family="Helvetica,sans-Serif" font-size="10.00">apps::websocket::subprotocol</text>
<text text-anchor="middle" x="277.5" y="-12.5" font-family="Helvetica,sans-Serif" font-size="10.00">::echo::server::Echo::Echo</text>
</a>
</g>
</g>
<!-- Node4&#45;&gt;Node5 -->
<g id="edge4_Node000004_Node000005" class="edge">
<title>Node4&#45;&gt;Node5</title>
<g id="a_edge4_Node000004_Node000005"><a xlink:title=" ">
<path fill="none" stroke="#63b8ff" d="M383.96,-20.5C375.37,-20.5 366.64,-20.5 358.06,-20.5"/>
<polygon fill="#63b8ff" stroke="#63b8ff" points="383.96,-24 393.96,-20.5 383.96,-17 383.96,-24"/>
</a>
</g>
</g>
<!-- Node6 -->
<g id="Node000006" class="node">
<title>Node6</title>
<g id="a_Node000006"><a xlink:href="classapps_1_1websocket_1_1subprotocol_1_1echo_1_1server_1_1EchoFactory.html#a3884114ec5ec8b369837e4fa6e4e3c12" target="_top" xlink:title=" ">
<polygon fill="white" stroke="#666666" points="161,-41 0,-41 0,0 161,0 161,-41"/>
<text text-anchor="start" x="8" y="-29" font-family="Helvetica,sans-Serif" font-size="10.00">apps::websocket::subprotocol</text>
<text text-anchor="start" x="8" y="-18" font-family="Helvetica,sans-Serif" font-size="10.00">::echo::server::EchoFactory</text>
<text text-anchor="middle" x="80.5" y="-7" font-family="Helvetica,sans-Serif" font-size="10.00">::create</text>
</a>
</g>
</g>
<!-- Node5&#45;&gt;Node6 -->
<g id="edge5_Node000005_Node000006" class="edge">
<title>Node5&#45;&gt;Node6</title>
<g id="a_edge5_Node000005_Node000006"><a xlink:title=" ">
<path fill="none" stroke="#63b8ff" d="M186.88,-20.5C178.3,-20.5 169.64,-20.5 161.16,-20.5"/>
<polygon fill="#63b8ff" stroke="#63b8ff" points="186.9,-24 196.9,-20.5 186.9,-17 186.9,-24"/>
</a>
</g>
</g>
</g>
</svg>
