<?xml version="1.0" encoding="UTF-8" standalone="no"?>
<!DOCTYPE svg PUBLIC "-//W3C//DTD SVG 1.1//EN"
 "http://www.w3.org/Graphics/SVG/1.1/DTD/svg11.dtd">
<!-- Generated by graphviz version 2.43.0 (0)
 -->
<!-- Title: core::socket::stream::SocketContext::getSocketConnection Pages: 1 -->
<svg width="640pt" height="338pt"
 viewBox="0.00 0.00 640.00 338.00" xmlns="http://www.w3.org/2000/svg" xmlns:xlink="http://www.w3.org/1999/xlink">
<g id="graph0" class="graph" transform="scale(1 1) rotate(0) translate(4 334)">
<title>core::socket::stream::SocketContext::getSocketConnection</title>
<!-- Node1 -->
<g id="Node000001" class="node">
<title>Node1</title>
<g id="a_Node000001"><a xlink:title=" ">
<polygon fill="#999999" stroke="#666666" points="632,-186 430,-186 430,-156 632,-156 632,-186"/>
<text text-anchor="start" x="438" y="-174" font-family="Helvetica,sans-Serif" font-size="10.00">core::socket::stream</text>
<text text-anchor="middle" x="531" y="-163" font-family="Helvetica,sans-Serif" font-size="10.00">::SocketContext::getSocketConnection</text>
</a>
</g>
</g>
<!-- Node2 -->
<g id="Node000002" class="node">
<title>Node2</title>
<g id="a_Node000002"><a xlink:href="classiot_1_1mqtt_1_1SocketContext.html#a938de6e66dbde5e5bda3ed9118dee871" target="_top" xlink:title=" ">
<polygon fill="white" stroke="#666666" points="376,-330 241,-330 241,-300 376,-300 376,-330"/>
<text text-anchor="start" x="249" y="-318" font-family="Helvetica,sans-Serif" font-size="10.00">iot::mqtt::SocketContext</text>
<text text-anchor="middle" x="308.5" y="-307" font-family="Helvetica,sans-Serif" font-size="10.00">::getSocketConnection</text>
</a>
</g>
</g>
<!-- Node1&#45;&gt;Node2 -->
<g id="edge1_Node000001_Node000002" class="edge">
<title>Node1&#45;&gt;Node2</title>
<g id="a_edge1_Node000001_Node000002"><a xlink:title=" ">
<path fill="none" stroke="#63b8ff" d="M510.26,-193.75C485.64,-220.74 441.04,-265.31 394,-291 387.71,-294.44 380.88,-297.42 373.92,-300"/>
<polygon fill="#63b8ff" stroke="#63b8ff" points="512.87,-196.08 516.95,-186.3 507.66,-191.4 512.87,-196.08"/>
</a>
</g>
</g>
<!-- Node3 -->
<g id="Node000003" class="node">
<title>Node3</title>
<g id="a_Node000003"><a xlink:href="classweb_1_1http_1_1client_1_1SocketContext.html#ab4d6e5759b9639e9e6a800b8b76a9dc0" target="_top" xlink:title=" ">
<polygon fill="white" stroke="#666666" points="387,-282 230,-282 230,-252 387,-252 387,-282"/>
<text text-anchor="start" x="238" y="-270" font-family="Helvetica,sans-Serif" font-size="10.00">web::http::client::</text>
<text text-anchor="middle" x="308.5" y="-259" font-family="Helvetica,sans-Serif" font-size="10.00">SocketContext::onConnected</text>
</a>
</g>
</g>
<!-- Node1&#45;&gt;Node3 -->
<g id="edge2_Node000001_Node000003" class="edge">
<title>Node1&#45;&gt;Node3</title>
<g id="a_edge2_Node000001_Node000003"><a xlink:title=" ">
<path fill="none" stroke="#63b8ff" d="M496.54,-191.26C469.58,-206.96 430.31,-228.42 394,-243 385.93,-246.24 377.27,-249.23 368.67,-251.91"/>
<polygon fill="#63b8ff" stroke="#63b8ff" points="498.35,-194.26 505.19,-186.18 494.8,-188.23 498.35,-194.26"/>
</a>
</g>
</g>
<!-- Node4 -->
<g id="Node000004" class="node">
<title>Node4</title>
<g id="a_Node000004"><a xlink:href="classweb_1_1http_1_1server_1_1SocketContext.html#a9ab1126fadd8cac112dc4ae0739fca9d" target="_top" xlink:title=" ">
<polygon fill="white" stroke="#666666" points="387,-234 230,-234 230,-204 387,-204 387,-234"/>
<text text-anchor="start" x="238" y="-222" font-family="Helvetica,sans-Serif" font-size="10.00">web::http::server::</text>
<text text-anchor="middle" x="308.5" y="-211" font-family="Helvetica,sans-Serif" font-size="10.00">SocketContext::onConnected</text>
</a>
</g>
</g>
<!-- Node1&#45;&gt;Node4 -->
<g id="edge3_Node000001_Node000004" class="edge">
<title>Node1&#45;&gt;Node4</title>
<g id="a_edge3_Node000001_Node000004"><a xlink:title=" ">
<path fill="none" stroke="#63b8ff" d="M450.83,-188.23C427.15,-193.39 401.38,-199 378.42,-204"/>
<polygon fill="#63b8ff" stroke="#63b8ff" points="451.81,-191.6 460.84,-186.06 450.32,-184.76 451.81,-191.6"/>
</a>
</g>
</g>
<!-- Node5 -->
<g id="Node000005" class="node">
<title>Node5</title>
<g id="a_Node000005"><a xlink:href="classweb_1_1http_1_1server_1_1SocketContext.html#a0aa077c4729e844ac80765c99a09cc37" target="_top" xlink:title=" ">
<polygon fill="white" stroke="#666666" points="394,-186 223,-186 223,-156 394,-156 394,-186"/>
<text text-anchor="start" x="231" y="-174" font-family="Helvetica,sans-Serif" font-size="10.00">web::http::server::</text>
<text text-anchor="middle" x="308.5" y="-163" font-family="Helvetica,sans-Serif" font-size="10.00">SocketContext::onDisconnected</text>
</a>
</g>
</g>
<!-- Node1&#45;&gt;Node5 -->
<g id="edge4_Node000001_Node000005" class="edge">
<title>Node1&#45;&gt;Node5</title>
<g id="a_edge4_Node000001_Node000005"><a xlink:title=" ">
<path fill="none" stroke="#63b8ff" d="M419.65,-171C411.03,-171 402.41,-171 394.01,-171"/>
<polygon fill="#63b8ff" stroke="#63b8ff" points="419.75,-174.5 429.75,-171 419.75,-167.5 419.75,-174.5"/>
</a>
</g>
</g>
<!-- Node6 -->
<g id="Node000006" class="node">
<title>Node6</title>
<g id="a_Node000006"><a xlink:href="classweb_1_1http_1_1server_1_1SocketContext.html#a9ce4c9c0df638cebfc17ad769abf90fc" target="_top" xlink:title=" ">
<polygon fill="white" stroke="#666666" points="376,-138 241,-138 241,-108 376,-108 376,-138"/>
<text text-anchor="start" x="249" y="-126" font-family="Helvetica,sans-Serif" font-size="10.00">web::http::server::</text>
<text text-anchor="middle" x="308.5" y="-115" font-family="Helvetica,sans-Serif" font-size="10.00">SocketContext::onSignal</text>
</a>
</g>
</g>
<!-- Node1&#45;&gt;Node6 -->
<g id="edge5_Node000001_Node000006" class="edge">
<title>Node1&#45;&gt;Node6</title>
<g id="a_edge5_Node000001_Node000006"><a xlink:title=" ">
<path fill="none" stroke="#63b8ff" d="M450.86,-153.77C426.39,-148.45 399.69,-142.63 376.16,-137.51"/>
<polygon fill="#63b8ff" stroke="#63b8ff" points="450.32,-157.24 460.84,-155.94 451.81,-150.4 450.32,-157.24"/>
</a>
</g>
</g>
<!-- Node7 -->
<g id="Node000007" class="node">
<title>Node7</title>
<g id="a_Node000007"><a xlink:href="classweb_1_1http_1_1server_1_1RequestContextBase.html#acfcd2a50417d1f881c077f14986d620e" target="_top" xlink:title=" ">
<polygon fill="white" stroke="#666666" points="371,-89.5 246,-89.5 246,-48.5 371,-48.5 371,-89.5"/>
<text text-anchor="start" x="254" y="-77.5" font-family="Helvetica,sans-Serif" font-size="10.00">web::http::server::</text>
<text text-anchor="start" x="254" y="-66.5" font-family="Helvetica,sans-Serif" font-size="10.00">RequestContextBase::</text>
<text text-anchor="middle" x="308.5" y="-55.5" font-family="Helvetica,sans-Serif" font-size="10.00">switchSocketContext</text>
</a>
</g>
</g>
<!-- Node1&#45;&gt;Node7 -->
<g id="edge6_Node000001_Node000007" class="edge">
<title>Node1&#45;&gt;Node7</title>
<g id="a_edge6_Node000001_Node000007"><a xlink:title=" ">
<path fill="none" stroke="#63b8ff" d="M495.52,-150.95C468.44,-135.64 429.49,-114.59 394,-99 386.59,-95.74 378.7,-92.57 370.84,-89.59"/>
<polygon fill="#63b8ff" stroke="#63b8ff" points="493.81,-154 504.23,-155.91 497.27,-147.92 493.81,-154"/>
</a>
</g>
</g>
<!-- Node10 -->
<g id="Node000010" class="node">
<title>Node10</title>
<g id="a_Node000010"><a xlink:href="classweb_1_1http_1_1client_1_1Response.html#a9e325e31cf23d211476c9dd9f0636ac0" target="_top" xlink:title=" ">
<polygon fill="white" stroke="#666666" points="363.5,-30 253.5,-30 253.5,0 363.5,0 363.5,-30"/>
<text text-anchor="start" x="261.5" y="-18" font-family="Helvetica,sans-Serif" font-size="10.00">web::http::client::</text>
<text text-anchor="middle" x="308.5" y="-7" font-family="Helvetica,sans-Serif" font-size="10.00">Response::upgrade</text>
</a>
</g>
</g>
<!-- Node1&#45;&gt;Node10 -->
<g id="edge9_Node000001_Node000010" class="edge">
<title>Node1&#45;&gt;Node10</title>
<g id="a_edge9_Node000001_Node000010"><a xlink:title=" ">
<path fill="none" stroke="#63b8ff" d="M512.27,-147.78C488.51,-118.23 443.54,-67.6 394,-39 384.75,-33.66 374.25,-29.45 363.86,-26.14"/>
<polygon fill="#63b8ff" stroke="#63b8ff" points="509.73,-150.2 518.68,-155.87 515.22,-145.85 509.73,-150.2"/>
</a>
</g>
</g>
<!-- Node8 -->
<g id="Node000008" class="node">
<title>Node8</title>
<g id="a_Node000008"><a xlink:href="classweb_1_1http_1_1server_1_1Response.html#a4f15e72be3836e83cc239487c4333a7f" target="_top" xlink:title=" ">
<polygon fill="white" stroke="#666666" points="187,-84 77,-84 77,-54 187,-54 187,-84"/>
<text text-anchor="start" x="85" y="-72" font-family="Helvetica,sans-Serif" font-size="10.00">web::http::server::</text>
<text text-anchor="middle" x="132" y="-61" font-family="Helvetica,sans-Serif" font-size="10.00">Response::upgrade</text>
</a>
</g>
</g>
<!-- Node7&#45;&gt;Node8 -->
<g id="edge7_Node000007_Node000008" class="edge">
<title>Node7&#45;&gt;Node8</title>
<g id="a_edge7_Node000007_Node000008"><a xlink:title=" ">
<path fill="none" stroke="#63b8ff" d="M235.92,-69C219.58,-69 202.47,-69 187.01,-69"/>
<polygon fill="#63b8ff" stroke="#63b8ff" points="235.98,-72.5 245.98,-69 235.98,-65.5 235.98,-72.5"/>
</a>
</g>
</g>
<!-- Node9 -->
<g id="Node000009" class="node">
<title>Node9</title>
<g id="a_Node000009"><a xlink:href="websocket_2echoserver_8cpp.html#a0ddf1224851353fc92bfbff6f499fa97" target="_top" xlink:title=" ">
<polygon fill="white" stroke="#666666" points="41,-78.5 0,-78.5 0,-59.5 41,-59.5 41,-78.5"/>
<text text-anchor="middle" x="20.5" y="-66.5" font-family="Helvetica,sans-Serif" font-size="10.00">main</text>
</a>
</g>
</g>
<!-- Node8&#45;&gt;Node9 -->
<g id="edge8_Node000008_Node000009" class="edge">
<title>Node8&#45;&gt;Node9</title>
<g id="a_edge8_Node000008_Node000009"><a xlink:title=" ">
<path fill="none" stroke="#63b8ff" d="M66.72,-69C57.43,-69 48.51,-69 41.09,-69"/>
<polygon fill="#63b8ff" stroke="#63b8ff" points="66.89,-72.5 76.89,-69 66.89,-65.5 66.89,-72.5"/>
</a>
</g>
</g>
<!-- Node11 -->
<g id="Node000011" class="node">
<title>Node11</title>
<g id="a_Node000011"><a xlink:href="websocket_2echoclient_8cpp.html#a0ddf1224851353fc92bfbff6f499fa97" target="_top" xlink:title=" ">
<polygon fill="white" stroke="#666666" points="152.5,-24.5 111.5,-24.5 111.5,-5.5 152.5,-5.5 152.5,-24.5"/>
<text text-anchor="middle" x="132" y="-12.5" font-family="Helvetica,sans-Serif" font-size="10.00">main</text>
</a>
</g>
</g>
<!-- Node10&#45;&gt;Node11 -->
<g id="edge10_Node000010_Node000011" class="edge">
<title>Node10&#45;&gt;Node11</title>
<g id="a_edge10_Node000010_Node000011"><a xlink:title=" ">
<path fill="none" stroke="#63b8ff" d="M243.02,-15C210.96,-15 174.51,-15 152.65,-15"/>
<polygon fill="#63b8ff" stroke="#63b8ff" points="243.24,-18.5 253.24,-15 243.24,-11.5 243.24,-18.5"/>
</a>
</g>
</g>
</g>
</svg>
