<?xml version="1.0" encoding="UTF-8" standalone="no"?>
<!DOCTYPE svg PUBLIC "-//W3C//DTD SVG 1.1//EN"
 "http://www.w3.org/Graphics/SVG/1.1/DTD/svg11.dtd">
<!-- Generated by graphviz version 14.1.2 (0)
 -->
<!-- Title: web::http::client::SocketContext::requestDelivered Pages: 1 -->
<!--zoomable 346 -->

<svg id="main" version="1.1" xmlns="http://www.w3.org/2000/svg" xmlns:xlink="http://www.w3.org/1999/xlink" xml:space="preserve" onload="init(evt)">

<style type="text/css"><![CDATA[
.node, .edge {opacity: 0.7;}
.node.selected, .edge.selected {opacity: 1;}
.edge:hover path { stroke: red; }
.edge:hover polygon { stroke: red; fill: red; }
]]></style>

<defs>
  <circle id="rim" cx="0" cy="0" r="7"/>
  <circle id="rim2" cx="0" cy="0" r="3.5"/>
  <g id="zoomPlus">
    <use xlink:href="#rim" fill="#404040"><set attributeName="fill" to="#808080" begin="zoomplus.mouseover" end="zoomplus.mouseout"/></use>
    <path d="M-4,0h8M0,-4v8" fill="none" stroke="white" stroke-width="1.5" pointer-events="none"/>
  </g>
  <g id="zoomMin">
    <use xlink:href="#rim" fill="#404040"><set attributeName="fill" to="#808080" begin="zoomminus.mouseover" end="zoomminus.mouseout"/></use>
    <path d="M-4,0h8" fill="none" stroke="white" stroke-width="1.5" pointer-events="none"/>
  </g>
  <g id="arrowUp" transform="translate(30 24)">
    <use xlink:href="#rim"/>
    <path pointer-events="none" fill="none" stroke="white" stroke-width="1.5" d="M0,-3.0v7 M-2.5,-0.5L0,-3.0L2.5,-0.5"/>
  </g>
  <g id="arrowRight" transform="rotate(90) translate(36 -43)">
    <use xlink:href="#rim"/>
    <path pointer-events="none" fill="none" stroke="white" stroke-width="1.5" d="M0,-3.0v7 M-2.5,-0.5L0,-3.0L2.5,-0.5"/>
  </g>
  <g id="arrowDown" transform="rotate(180) translate(-30 -48)">
    <use xlink:href="#rim"/>
    <path pointer-events="none" fill="none" stroke="white" stroke-width="1.5" d="M0,-3.0v7 M-2.5,-0.5L0,-3.0L2.5,-0.5"/>
  </g>
  <g id="arrowLeft" transform="rotate(270) translate(-36 17)">
    <use xlink:href="#rim"/>
    <path pointer-events="none" fill="none" stroke="white" stroke-width="1.5" d="M0,-3.0v7 M-2.5,-0.5L0,-3.0L2.5,-0.5"/>
  </g>
  <g id="resetDef">
    <use xlink:href="#rim2" fill="#404040"><set attributeName="fill" to="#808080" begin="reset.mouseover" end="reset.mouseout"/></use>
  </g>
</defs>
<script type="application/ecmascript">
var viewWidth = 1450;
var viewHeight = 346;
var sectionId = 'dynsection-16';
</script>
<script type="application/ecmascript" xlink:href="svg.min.js"/>
<svg id="graph" class="graph">
<g id="viewport">
<title>web::http::client::SocketContext::requestDelivered</title>
<!-- Node1 -->
<g id="Node000001" class="node">
<title>Node1</title>
<g id="a_Node000001"><a xlink:title=" ">
<polygon fill="#999999" stroke="#666666" points="176.5,-157.88 0,-157.88 0,-124.38 176.5,-124.38 176.5,-157.88"/>
<text xml:space="preserve" text-anchor="start" x="8" y="-144.38" font-family="Helvetica,sans-Serif" font-size="10.00">web::http::client::</text>
<text xml:space="preserve" text-anchor="middle" x="88.25" y="-131.62" font-family="Helvetica,sans-Serif" font-size="10.00">SocketContext::requestDelivered</text>
</a>
</g>
</g>
<!-- Node2 -->
<g id="Node000002" class="node">
<title>Node2</title>
<g id="a_Node000002"><a xlink:href="classcore_1_1EventReceiver.html#a2e8d915eca53e827be4f493a63ae058d" target="_top" xlink:title=" ">
<polygon fill="white" stroke="#666666" points="584.62,-291.88 471.12,-291.88 471.12,-258.38 584.62,-258.38 584.62,-291.88"/>
<text xml:space="preserve" text-anchor="start" x="479.12" y="-278.38" font-family="Helvetica,sans-Serif" font-size="10.00">core::EventReceiver</text>
<text xml:space="preserve" text-anchor="middle" x="527.88" y="-265.62" font-family="Helvetica,sans-Serif" font-size="10.00">::atNextTick</text>
</a>
</g>
</g>
<!-- Node1&#45;&gt;Node2 -->
<g id="edge1_Node000001_Node000002" class="edge">
<title>Node1&#45;&gt;Node2</title>
<g id="a_edge1_Node000001_Node000002"><a xlink:title=" ">
<path fill="none" stroke="#63b8ff" d="M106.23,-158.37C128.48,-179.81 169.72,-215.69 212.5,-233.12 293.07,-265.96 393.95,-274.27 459.37,-275.81"/>
<polygon fill="#63b8ff" stroke="#63b8ff" points="459.19,-279.31 469.25,-275.99 459.31,-272.31 459.19,-279.31"/>
</a>
</g>
</g>
<!-- Node11 -->
<g id="Node000011" class="node">
<title>Node11</title>
<g id="a_Node000011"><a xlink:href="classcore_1_1socket_1_1stream_1_1SocketConnection.html#a5e26cd617f07295e8579ddb9c41bdd2c" target="_top" xlink:title=" ">
<polygon fill="white" stroke="#666666" points="635.25,-239.88 420.5,-239.88 420.5,-206.38 635.25,-206.38 635.25,-239.88"/>
<text xml:space="preserve" text-anchor="start" x="428.5" y="-226.38" font-family="Helvetica,sans-Serif" font-size="10.00">core::socket::stream</text>
<text xml:space="preserve" text-anchor="middle" x="527.88" y="-213.62" font-family="Helvetica,sans-Serif" font-size="10.00">::SocketConnection::getConnectionName</text>
</a>
</g>
</g>
<!-- Node1&#45;&gt;Node11 -->
<g id="edge10_Node000001_Node000011" class="edge">
<title>Node1&#45;&gt;Node11</title>
<g id="a_edge10_Node000001_Node000011"><a xlink:title=" ">
<path fill="none" stroke="#63b8ff" d="M112.86,-158.2C136.69,-174.37 175.21,-197.69 212.5,-208.12 275.78,-225.83 348.97,-230.21 408.81,-229.88"/>
<polygon fill="#63b8ff" stroke="#63b8ff" points="408.73,-233.38 418.69,-229.77 408.65,-226.38 408.73,-233.38"/>
</a>
</g>
</g>
<!-- Node12 -->
<g id="Node000012" class="node">
<title>Node12</title>
<g id="a_Node000012"><a xlink:href="classcore_1_1socket_1_1stream_1_1SocketContext.html#a02f0b93ac0ea376dabd6921c7589a8cf" target="_top" xlink:title=" ">
<polygon fill="white" stroke="#666666" points="628.5,-135.88 427.25,-135.88 427.25,-102.38 628.5,-102.38 628.5,-135.88"/>
<text xml:space="preserve" text-anchor="start" x="435.25" y="-122.38" font-family="Helvetica,sans-Serif" font-size="10.00">core::socket::stream</text>
<text xml:space="preserve" text-anchor="middle" x="527.88" y="-109.62" font-family="Helvetica,sans-Serif" font-size="10.00">::SocketContext::getSocketConnection</text>
</a>
</g>
</g>
<!-- Node1&#45;&gt;Node12 -->
<g id="edge11_Node000001_Node000012" class="edge">
<title>Node1&#45;&gt;Node12</title>
<g id="a_edge11_Node000001_Node000012"><a xlink:title=" ">
<path fill="none" stroke="#63b8ff" d="M176.76,-136.73C245.44,-133.27 341.52,-128.44 415.66,-124.72"/>
<polygon fill="#63b8ff" stroke="#63b8ff" points="415.57,-128.22 425.38,-124.23 415.22,-121.23 415.57,-128.22"/>
</a>
</g>
</g>
<!-- Node13 -->
<g id="Node000013" class="node">
<title>Node13</title>
<g id="a_Node000013"><a xlink:href="classweb_1_1http_1_1client_1_1SocketContext.html#a640d648c8eaf71a0cc9c32fc19a060e5" target="_top" xlink:title=" ">
<polygon fill="white" stroke="#666666" points="381.88,-180.88 215.12,-180.88 215.12,-147.38 381.88,-147.38 381.88,-180.88"/>
<text xml:space="preserve" text-anchor="start" x="223.12" y="-167.38" font-family="Helvetica,sans-Serif" font-size="10.00">web::http::client::</text>
<text xml:space="preserve" text-anchor="middle" x="298.5" y="-154.62" font-family="Helvetica,sans-Serif" font-size="10.00">SocketContext::initiateRequest</text>
</a>
</g>
</g>
<!-- Node1&#45;&gt;Node13 -->
<g id="edge12_Node000001_Node000013" class="edge">
<title>Node1&#45;&gt;Node13</title>
<g id="a_edge12_Node000001_Node000013"><a xlink:title=" ">
<path fill="none" stroke="#63b8ff" d="M176.96,-150.81C185.8,-151.79 194.79,-152.78 203.68,-153.76"/>
<polygon fill="#63b8ff" stroke="#63b8ff" points="203.04,-157.21 213.37,-154.83 203.81,-150.26 203.04,-157.21"/>
</a>
</g>
</g>
<!-- Node23 -->
<g id="Node000023" class="node">
<title>Node23</title>
<g id="a_Node000023"><a xlink:href="classcore_1_1socket_1_1stream_1_1SocketContext.html#a632584fcef2e3450157b9cc351c0a78b" target="_top" xlink:title=" ">
<polygon fill="white" stroke="#666666" points="384.5,-42.88 212.5,-42.88 212.5,-9.38 384.5,-9.38 384.5,-42.88"/>
<text xml:space="preserve" text-anchor="start" x="220.5" y="-29.38" font-family="Helvetica,sans-Serif" font-size="10.00">core::socket::stream</text>
<text xml:space="preserve" text-anchor="middle" x="298.5" y="-16.62" font-family="Helvetica,sans-Serif" font-size="10.00">::SocketContext::shutdownWrite</text>
</a>
</g>
</g>
<!-- Node1&#45;&gt;Node23 -->
<g id="edge28_Node000001_Node000023" class="edge">
<title>Node1&#45;&gt;Node23</title>
<g id="a_edge28_Node000001_Node000023"><a xlink:title=" ">
<path fill="none" stroke="#63b8ff" d="M112.02,-124.14C136.14,-106.65 175.73,-79.31 212.5,-60.12 220.91,-55.74 230.01,-51.55 239.03,-47.71"/>
<polygon fill="#63b8ff" stroke="#63b8ff" points="240.23,-51 248.14,-43.94 237.56,-44.53 240.23,-51"/>
</a>
</g>
</g>
<!-- Node3 -->
<g id="Node000003" class="node">
<title>Node3</title>
<g id="a_Node000003"><a xlink:href="classcore_1_1EventReceiver.html#adec275118bd8a68e2b4cb71fa94d79b6" target="_top" xlink:title=" ">
<polygon fill="white" stroke="#666666" points="817.75,-285.88 704.25,-285.88 704.25,-252.38 817.75,-252.38 817.75,-285.88"/>
<text xml:space="preserve" text-anchor="start" x="712.25" y="-272.38" font-family="Helvetica,sans-Serif" font-size="10.00">core::EventReceiver</text>
<text xml:space="preserve" text-anchor="middle" x="761" y="-259.62" font-family="Helvetica,sans-Serif" font-size="10.00">::EventReceiver</text>
</a>
</g>
</g>
<!-- Node2&#45;&gt;Node3 -->
<g id="edge2_Node000002_Node000003" class="edge">
<title>Node2&#45;&gt;Node3</title>
<g id="a_edge2_Node000002_Node000003"><a xlink:title=" ">
<path fill="none" stroke="#63b8ff" d="M585.12,-273.66C617.53,-272.82 658.49,-271.76 692.62,-270.87"/>
<polygon fill="#63b8ff" stroke="#63b8ff" points="692.49,-274.38 702.39,-270.62 692.3,-267.38 692.49,-274.38"/>
</a>
</g>
</g>
<!-- Node7 -->
<g id="Node000007" class="node">
<title>Node7</title>
<g id="a_Node000007"><a xlink:href="classcore_1_1EventReceiver.html#ad353e97a9089b2769e52f8825e4878b1" target="_top" xlink:title=" ">
<polygon fill="white" stroke="#666666" points="817.75,-337.88 704.25,-337.88 704.25,-304.38 817.75,-304.38 817.75,-337.88"/>
<text xml:space="preserve" text-anchor="start" x="712.25" y="-324.38" font-family="Helvetica,sans-Serif" font-size="10.00">core::EventReceiver</text>
<text xml:space="preserve" text-anchor="middle" x="761" y="-311.62" font-family="Helvetica,sans-Serif" font-size="10.00">::span</text>
</a>
</g>
</g>
<!-- Node2&#45;&gt;Node7 -->
<g id="edge6_Node000002_Node000007" class="edge">
<title>Node2&#45;&gt;Node7</title>
<g id="a_edge6_Node000002_Node000007"><a xlink:title=" ">
<path fill="none" stroke="#63b8ff" d="M585.12,-286.32C617.53,-292.77 658.49,-300.92 692.62,-307.71"/>
<polygon fill="#63b8ff" stroke="#63b8ff" points="691.93,-311.15 702.42,-309.67 693.3,-304.28 691.93,-311.15"/>
</a>
</g>
</g>
<!-- Node4 -->
<g id="Node000004" class="node">
<title>Node4</title>
<g id="a_Node000004"><a xlink:href="classcore_1_1Event.html#a81e45f64219d897d59324c9dd0573936" target="_top" xlink:title=" ">
<polygon fill="white" stroke="#666666" points="1018.25,-279.5 913.75,-279.5 913.75,-258.75 1018.25,-258.75 1018.25,-279.5"/>
<text xml:space="preserve" text-anchor="middle" x="966" y="-266" font-family="Helvetica,sans-Serif" font-size="10.00">core::Event::Event</text>
</a>
</g>
</g>
<!-- Node3&#45;&gt;Node4 -->
<g id="edge3_Node000003_Node000004" class="edge">
<title>Node3&#45;&gt;Node4</title>
<g id="a_edge3_Node000003_Node000004"><a xlink:title=" ">
<path fill="none" stroke="#63b8ff" d="M818.01,-269.12C844.09,-269.12 875.23,-269.12 902.11,-269.12"/>
<polygon fill="#63b8ff" stroke="#63b8ff" points="901.84,-272.63 911.84,-269.13 901.84,-265.63 901.84,-272.63"/>
</a>
</g>
</g>
<!-- Node5 -->
<g id="Node000005" class="node">
<title>Node5</title>
<g id="a_Node000005"><a xlink:href="classcore_1_1EventLoop.html#a17f1623de6ca2ea2682c63cf502c3c36" target="_top" xlink:title=" ">
<polygon fill="white" stroke="#666666" points="1230,-243.88 1086.5,-243.88 1086.5,-210.38 1230,-210.38 1230,-243.88"/>
<text xml:space="preserve" text-anchor="start" x="1094.5" y="-230.38" font-family="Helvetica,sans-Serif" font-size="10.00">core::EventLoop::getEvent</text>
<text xml:space="preserve" text-anchor="middle" x="1158.25" y="-217.62" font-family="Helvetica,sans-Serif" font-size="10.00">Multiplexer</text>
</a>
</g>
</g>
<!-- Node4&#45;&gt;Node5 -->
<g id="edge4_Node000004_Node000005" class="edge">
<title>Node4&#45;&gt;Node5</title>
<g id="a_edge4_Node000004_Node000005"><a xlink:title=" ">
<path fill="none" stroke="#63b8ff" d="M1015.99,-258.31C1034.02,-254.33 1054.95,-249.71 1075.1,-245.26"/>
<polygon fill="#63b8ff" stroke="#63b8ff" points="1075.7,-248.71 1084.71,-243.14 1074.19,-241.88 1075.7,-248.71"/>
</a>
</g>
</g>
<!-- Node6 -->
<g id="Node000006" class="node">
<title>Node6</title>
<g id="a_Node000006"><a xlink:href="classcore_1_1EventLoop.html#a413d227511f68c2c9939719bd2590794" target="_top" xlink:title=" ">
<polygon fill="white" stroke="#666666" points="1228.88,-282.5 1087.62,-282.5 1087.62,-261.75 1228.88,-261.75 1228.88,-282.5"/>
<text xml:space="preserve" text-anchor="middle" x="1158.25" y="-269" font-family="Helvetica,sans-Serif" font-size="10.00">core::EventLoop::instance</text>
</a>
</g>
</g>
<!-- Node4&#45;&gt;Node6 -->
<g id="edge5_Node000004_Node000006" class="edge">
<title>Node4&#45;&gt;Node6</title>
<g id="a_edge5_Node000004_Node000006"><a xlink:title=" ">
<path fill="none" stroke="#63b8ff" d="M1018.74,-269.94C1036.4,-270.22 1056.6,-270.54 1076.01,-270.84"/>
<polygon fill="#63b8ff" stroke="#63b8ff" points="1075.75,-274.34 1085.81,-271 1075.86,-267.34 1075.75,-274.34"/>
</a>
</g>
</g>
<!-- Node8 -->
<g id="Node000008" class="node">
<title>Node8</title>
<g id="a_Node000008"><a xlink:href="classcore_1_1Event.html#a0a68a616082e2b1aece96499a439884f" target="_top" xlink:title=" ">
<polygon fill="white" stroke="#666666" points="1016,-331.5 916,-331.5 916,-310.75 1016,-310.75 1016,-331.5"/>
<text xml:space="preserve" text-anchor="middle" x="966" y="-318" font-family="Helvetica,sans-Serif" font-size="10.00">core::Event::span</text>
</a>
</g>
</g>
<!-- Node7&#45;&gt;Node8 -->
<g id="edge7_Node000007_Node000008" class="edge">
<title>Node7&#45;&gt;Node8</title>
<g id="a_edge7_Node000007_Node000008"><a xlink:title=" ">
<path fill="none" stroke="#63b8ff" d="M818.01,-321.12C844.81,-321.12 876.95,-321.12 904.33,-321.12"/>
<polygon fill="#63b8ff" stroke="#63b8ff" points="904.23,-324.63 914.23,-321.13 904.23,-317.63 904.23,-324.63"/>
</a>
</g>
</g>
<!-- Node9 -->
<g id="Node000009" class="node">
<title>Node9</title>
<g id="a_Node000009"><a xlink:href="classcore_1_1EventMultiplexer.html#a61d96e95daaebfe6c3b980a2a847bb21" target="_top" xlink:title=" ">
<polygon fill="white" stroke="#666666" points="1221.38,-337.88 1095.12,-337.88 1095.12,-304.38 1221.38,-304.38 1221.38,-337.88"/>
<text xml:space="preserve" text-anchor="start" x="1103.12" y="-324.38" font-family="Helvetica,sans-Serif" font-size="10.00">core::EventMultiplexer</text>
<text xml:space="preserve" text-anchor="middle" x="1158.25" y="-311.62" font-family="Helvetica,sans-Serif" font-size="10.00">::span</text>
</a>
</g>
</g>
<!-- Node8&#45;&gt;Node9 -->
<g id="edge8_Node000008_Node000009" class="edge">
<title>Node8&#45;&gt;Node9</title>
<g id="a_edge8_Node000008_Node000009"><a xlink:title=" ">
<path fill="none" stroke="#63b8ff" d="M1016.49,-321.12C1036.93,-321.12 1061.05,-321.12 1083.5,-321.12"/>
<polygon fill="#63b8ff" stroke="#63b8ff" points="1083.19,-324.63 1093.19,-321.13 1083.19,-317.63 1083.19,-324.63"/>
</a>
</g>
</g>
<!-- Node10 -->
<g id="Node000010" class="node">
<title>Node10</title>
<g id="a_Node000010"><a xlink:href="classcore_1_1EventMultiplexer_1_1EventQueue.html#a009075f2f16a78d3bf8d9e3a20226336" target="_top" xlink:title=" ">
<polygon fill="white" stroke="#666666" points="1419.62,-337.88 1293.38,-337.88 1293.38,-304.38 1419.62,-304.38 1419.62,-337.88"/>
<text xml:space="preserve" text-anchor="start" x="1301.38" y="-324.38" font-family="Helvetica,sans-Serif" font-size="10.00">core::EventMultiplexer</text>
<text xml:space="preserve" text-anchor="middle" x="1356.5" y="-311.62" font-family="Helvetica,sans-Serif" font-size="10.00">::EventQueue::insert</text>
</a>
</g>
</g>
<!-- Node9&#45;&gt;Node10 -->
<g id="edge9_Node000009_Node000010" class="edge">
<title>Node9&#45;&gt;Node10</title>
<g id="a_edge9_Node000009_Node000010"><a xlink:title=" ">
<path fill="none" stroke="#63b8ff" d="M1221.61,-321.12C1240.66,-321.12 1261.79,-321.12 1281.53,-321.12"/>
<polygon fill="#63b8ff" stroke="#63b8ff" points="1281.45,-324.63 1291.45,-321.13 1281.45,-317.63 1281.45,-324.63"/>
</a>
</g>
</g>
<!-- Node13&#45;&gt;Node2 -->
<g id="edge13_Node000013_Node000002" class="edge">
<title>Node13&#45;&gt;Node2</title>
<g id="a_edge13_Node000013_Node000002"><a xlink:title=" ">
<path fill="none" stroke="#63b8ff" d="M318.64,-181.03C341.39,-200.26 381.23,-231.3 420.5,-249.12 432.74,-254.68 446.33,-259.15 459.6,-262.71"/>
<polygon fill="#63b8ff" stroke="#63b8ff" points="458.61,-266.07 469.16,-265.12 460.32,-259.28 458.61,-266.07"/>
</a>
</g>
</g>
<!-- Node13&#45;&gt;Node11 -->
<g id="edge14_Node000013_Node000011" class="edge">
<title>Node13&#45;&gt;Node11</title>
<g id="a_edge14_Node000013_Node000011"><a xlink:title=" ">
<path fill="none" stroke="#63b8ff" d="M361.28,-181.31C380.25,-186.5 401.21,-192.14 420.5,-197.12 428.22,-199.12 436.26,-201.16 444.32,-203.18"/>
<polygon fill="#63b8ff" stroke="#63b8ff" points="443.27,-206.52 453.82,-205.54 444.96,-199.73 443.27,-206.52"/>
</a>
</g>
</g>
<!-- Node13&#45;&gt;Node12 -->
<g id="edge15_Node000013_Node000012" class="edge">
<title>Node13&#45;&gt;Node12</title>
<g id="a_edge15_Node000013_Node000012"><a xlink:title=" ">
<path fill="none" stroke="#63b8ff" d="M382.23,-147.75C397.35,-144.76 413.27,-141.61 428.78,-138.54"/>
<polygon fill="#63b8ff" stroke="#63b8ff" points="429.38,-141.99 438.51,-136.61 428.02,-135.12 429.38,-141.99"/>
</a>
</g>
</g>
<!-- Node13&#45;&gt;Node13 -->
<g id="edge27_Node000013_Node000013" class="edge">
<title>Node13&#45;&gt;Node13</title>
<g id="a_edge27_Node000013_Node000013"><a xlink:title=" ">
<path fill="none" stroke="#63b8ff" d="M260.7,-181.29C254.28,-190.49 266.88,-198.88 298.5,-198.88 316.04,-198.88 327.73,-196.3 333.56,-192.43"/>
<polygon fill="#63b8ff" stroke="#63b8ff" points="336.95,-193.31 335.93,-182.76 330.15,-191.64 336.95,-193.31"/>
</a>
</g>
</g>
<!-- Node14 -->
<g id="Node000014" class="node">
<title>Node14</title>
<g id="a_Node000014"><a xlink:href="classweb_1_1http_1_1client_1_1MasterRequest.html#af22c5a647f9beb7c6be6d50815c77255" target="_top" xlink:title=" ">
<polygon fill="white" stroke="#666666" points="592.88,-187.88 462.88,-187.88 462.88,-154.38 592.88,-154.38 592.88,-187.88"/>
<text xml:space="preserve" text-anchor="start" x="470.88" y="-174.38" font-family="Helvetica,sans-Serif" font-size="10.00">web::http::client::</text>
<text xml:space="preserve" text-anchor="middle" x="527.88" y="-161.62" font-family="Helvetica,sans-Serif" font-size="10.00">MasterRequest::initiate</text>
</a>
</g>
</g>
<!-- Node13&#45;&gt;Node14 -->
<g id="edge16_Node000013_Node000014" class="edge">
<title>Node13&#45;&gt;Node14</title>
<g id="a_edge16_Node000013_Node000014"><a xlink:title=" ">
<path fill="none" stroke="#63b8ff" d="M382.23,-166.67C404.72,-167.36 428.96,-168.11 451.05,-168.79"/>
<polygon fill="#63b8ff" stroke="#63b8ff" points="450.77,-172.28 460.87,-169.09 450.98,-165.29 450.77,-172.28"/>
</a>
</g>
</g>
<!-- Node15 -->
<g id="Node000015" class="node">
<title>Node15</title>
<g id="a_Node000015"><a xlink:href="classweb_1_1http_1_1client_1_1RequestCommand.html#a7ac2bc251de5f709188a9abeb16f14c2" target="_top" xlink:title=" ">
<polygon fill="white" stroke="#666666" points="836.5,-175.88 685.5,-175.88 685.5,-142.38 836.5,-142.38 836.5,-175.88"/>
<text xml:space="preserve" text-anchor="start" x="693.5" y="-162.38" font-family="Helvetica,sans-Serif" font-size="10.00">web::http::client::</text>
<text xml:space="preserve" text-anchor="middle" x="761" y="-149.62" font-family="Helvetica,sans-Serif" font-size="10.00">RequestCommand::execute</text>
</a>
</g>
</g>
<!-- Node14&#45;&gt;Node15 -->
<g id="edge17_Node000014_Node000015" class="edge">
<title>Node14&#45;&gt;Node15</title>
<g id="a_edge17_Node000014_Node000015"><a xlink:title=" ">
<path fill="none" stroke="#63b8ff" d="M593.26,-167.78C618.27,-166.48 647.29,-164.98 674.04,-163.59"/>
<polygon fill="#63b8ff" stroke="#63b8ff" points="674.03,-167.09 683.83,-163.08 673.66,-160.1 674.03,-167.09"/>
</a>
</g>
</g>
<!-- Node16 -->
<g id="Node000016" class="node">
<title>Node16</title>
<g id="a_Node000016"><a xlink:href="classweb_1_1http_1_1client_1_1RequestCommand.html#a996ea2745b48ee690b40babe54c142c2" target="_top" xlink:title=" ">
<polygon fill="white" stroke="#666666" points="836.5,-227.88 685.5,-227.88 685.5,-194.38 836.5,-194.38 836.5,-227.88"/>
<text xml:space="preserve" text-anchor="start" x="693.5" y="-214.38" font-family="Helvetica,sans-Serif" font-size="10.00">web::http::client::</text>
<text xml:space="preserve" text-anchor="middle" x="761" y="-201.62" font-family="Helvetica,sans-Serif" font-size="10.00">RequestCommand::getError</text>
</a>
</g>
</g>
<!-- Node14&#45;&gt;Node16 -->
<g id="edge18_Node000014_Node000016" class="edge">
<title>Node14&#45;&gt;Node16</title>
<g id="a_edge18_Node000014_Node000016"><a xlink:title=" ">
<path fill="none" stroke="#63b8ff" d="M593.26,-182.27C618.27,-186.6 647.29,-191.62 674.04,-196.25"/>
<polygon fill="#63b8ff" stroke="#63b8ff" points="673.4,-199.69 683.85,-197.95 674.6,-192.79 673.4,-199.69"/>
</a>
</g>
</g>
<!-- Node17 -->
<g id="Node000017" class="node">
<title>Node17</title>
<g id="a_Node000017"><a xlink:href="classweb_1_1http_1_1client_1_1MasterRequest.html#a91801b8da2708788c712709cd7cdca2b" target="_top" xlink:title=" ">
<polygon fill="white" stroke="#666666" points="850.75,-112.88 671.25,-112.88 671.25,-79.38 850.75,-79.38 850.75,-112.88"/>
<text xml:space="preserve" text-anchor="start" x="679.25" y="-99.38" font-family="Helvetica,sans-Serif" font-size="10.00">web::http::client::</text>
<text xml:space="preserve" text-anchor="middle" x="761" y="-86.62" font-family="Helvetica,sans-Serif" font-size="10.00">MasterRequest::requestDelivered</text>
</a>
</g>
</g>
<!-- Node14&#45;&gt;Node17 -->
<g id="edge19_Node000014_Node000017" class="edge">
<title>Node14&#45;&gt;Node17</title>
<g id="a_edge19_Node000014_Node000017"><a xlink:title=" ">
<path fill="none" stroke="#63b8ff" d="M593.11,-156.9C607.1,-153.4 621.75,-149.41 635.25,-145.12 660.24,-137.2 687.39,-126.76 709.97,-117.56"/>
<polygon fill="#63b8ff" stroke="#63b8ff" points="711.01,-120.91 718.92,-113.87 708.34,-114.44 711.01,-120.91"/>
</a>
</g>
</g>
<!-- Node17&#45;&gt;Node1 -->
<g id="edge25_Node000017_Node000001" class="edge">
<title>Node17&#45;&gt;Node1</title>
<g id="a_edge25_Node000017_Node000001"><a xlink:title=" ">
<path fill="none" stroke="#63b8ff" d="M671.07,-93.72C659.03,-93.48 646.84,-93.26 635.25,-93.12 539.81,-91.98 515.7,-86.29 420.5,-93.12 327.34,-99.81 304.93,-109.71 212.5,-123.12 204.56,-124.28 196.32,-125.48 188.05,-126.68"/>
<polygon fill="#63b8ff" stroke="#63b8ff" points="187.66,-123.2 178.27,-128.1 188.67,-130.13 187.66,-123.2"/>
</a>
</g>
</g>
<!-- Node18 -->
<g id="Node000018" class="node">
<title>Node18</title>
<g id="a_Node000018"><a xlink:href="classweb_1_1http_1_1client_1_1MasterRequest.html#a9b3afb938d19932d492b70a3a6b0dc01" target="_top" xlink:title=" ">
<polygon fill="white" stroke="#666666" points="1045.25,-94.25 886.75,-94.25 886.75,-48 1045.25,-48 1045.25,-94.25"/>
<text xml:space="preserve" text-anchor="start" x="894.75" y="-80.75" font-family="Helvetica,sans-Serif" font-size="10.00">web::http::client::</text>
<text xml:space="preserve" text-anchor="start" x="894.75" y="-68" font-family="Helvetica,sans-Serif" font-size="10.00">MasterRequest::executeSend</text>
<text xml:space="preserve" text-anchor="middle" x="966" y="-55.25" font-family="Helvetica,sans-Serif" font-size="10.00">Fragment</text>
</a>
</g>
</g>
<!-- Node17&#45;&gt;Node18 -->
<g id="edge20_Node000017_Node000018" class="edge">
<title>Node17&#45;&gt;Node18</title>
<g id="a_edge20_Node000017_Node000018"><a xlink:title=" ">
<path fill="none" stroke="#63b8ff" d="M851.04,-85.16C859.08,-84.17 867.22,-83.17 875.26,-82.18"/>
<polygon fill="#63b8ff" stroke="#63b8ff" points="875.55,-85.67 885.04,-80.97 874.69,-78.72 875.55,-85.67"/>
</a>
</g>
</g>
<!-- Node19 -->
<g id="Node000019" class="node">
<title>Node19</title>
<g id="a_Node000019"><a xlink:href="classcore_1_1socket_1_1SocketContext.html#a171ec3bb2190630276ff2e6cb5fd9ccf" target="_top" xlink:title=" ">
<polygon fill="white" stroke="#666666" points="1233.75,-138.88 1082.75,-138.88 1082.75,-105.38 1233.75,-105.38 1233.75,-138.88"/>
<text xml:space="preserve" text-anchor="start" x="1090.75" y="-125.38" font-family="Helvetica,sans-Serif" font-size="10.00">core::socket::SocketContext</text>
<text xml:space="preserve" text-anchor="middle" x="1158.25" y="-112.62" font-family="Helvetica,sans-Serif" font-size="10.00">::sendToPeer</text>
</a>
</g>
</g>
<!-- Node17&#45;&gt;Node19 -->
<g id="edge26_Node000017_Node000019" class="edge">
<title>Node17&#45;&gt;Node19</title>
<g id="a_edge26_Node000017_Node000019"><a xlink:title=" ">
<path fill="none" stroke="#63b8ff" d="M851.19,-101.99C916.92,-106.32 1005.82,-112.16 1070.87,-116.44"/>
<polygon fill="#63b8ff" stroke="#63b8ff" points="1070.6,-119.93 1080.81,-117.1 1071.06,-112.95 1070.6,-119.93"/>
</a>
</g>
</g>
<!-- Node18&#45;&gt;Node19 -->
<g id="edge21_Node000018_Node000019" class="edge">
<title>Node18&#45;&gt;Node19</title>
<g id="a_edge21_Node000018_Node000019"><a xlink:title=" ">
<path fill="none" stroke="#63b8ff" d="M1045.48,-92.16C1057.63,-95.42 1070.15,-98.78 1082.22,-102.01"/>
<polygon fill="#63b8ff" stroke="#63b8ff" points="1081.12,-105.34 1091.69,-104.55 1082.93,-98.58 1081.12,-105.34"/>
</a>
</g>
</g>
<!-- Node21 -->
<g id="Node000021" class="node">
<title>Node21</title>
<g id="a_Node000021"><a xlink:href="classcore_1_1socket_1_1stream_1_1SocketContext.html#a7e80affcdada3ef5f1c52c283d65a89c" target="_top" xlink:title=" ">
<polygon fill="white" stroke="#666666" points="1235.25,-86.88 1081.25,-86.88 1081.25,-53.38 1235.25,-53.38 1235.25,-86.88"/>
<text xml:space="preserve" text-anchor="start" x="1089.25" y="-73.38" font-family="Helvetica,sans-Serif" font-size="10.00">core::socket::stream</text>
<text xml:space="preserve" text-anchor="middle" x="1158.25" y="-60.62" font-family="Helvetica,sans-Serif" font-size="10.00">::SocketContext::sendToPeer</text>
</a>
</g>
</g>
<!-- Node18&#45;&gt;Node21 -->
<g id="edge23_Node000018_Node000021" class="edge">
<title>Node18&#45;&gt;Node21</title>
<g id="a_edge23_Node000018_Node000021"><a xlink:title=" ">
<path fill="none" stroke="#63b8ff" d="M1045.48,-70.71C1053.41,-70.67 1061.5,-70.63 1069.52,-70.59"/>
<polygon fill="#63b8ff" stroke="#63b8ff" points="1069.29,-74.09 1079.28,-70.53 1069.26,-67.09 1069.29,-74.09"/>
</a>
</g>
</g>
<!-- Node20 -->
<g id="Node000020" class="node">
<title>Node20</title>
<g id="a_Node000020"><a xlink:href="classcore_1_1socket_1_1SocketContext.html#ad483b080be706b99648da684b74cdcd9" target="_top" xlink:title=" ">
<polygon fill="white" stroke="#666666" points="1432,-138.88 1281,-138.88 1281,-105.38 1432,-105.38 1432,-138.88"/>
<text xml:space="preserve" text-anchor="start" x="1289" y="-125.38" font-family="Helvetica,sans-Serif" font-size="10.00">core::socket::SocketContext</text>
<text xml:space="preserve" text-anchor="middle" x="1356.5" y="-112.62" font-family="Helvetica,sans-Serif" font-size="10.00">::sendToPeer</text>
</a>
</g>
</g>
<!-- Node19&#45;&gt;Node20 -->
<g id="edge22_Node000019_Node000020" class="edge">
<title>Node19&#45;&gt;Node20</title>
<g id="a_edge22_Node000019_Node000020"><a xlink:title=" ">
<path fill="none" stroke="#63b8ff" d="M1234,-122.12C1245.58,-122.12 1257.61,-122.12 1269.41,-122.12"/>
<polygon fill="#63b8ff" stroke="#63b8ff" points="1269.12,-125.63 1279.12,-122.13 1269.12,-118.63 1269.12,-125.63"/>
</a>
</g>
</g>
<!-- Node22 -->
<g id="Node000022" class="node">
<title>Node22</title>
<g id="a_Node000022"><a xlink:href="classcore_1_1socket_1_1stream_1_1SocketConnection.html#a0e8eedcbfe5dc63e1c1682b5beaf90da" target="_top" xlink:title=" ">
<polygon fill="white" stroke="#666666" points="1441.75,-86.88 1271.25,-86.88 1271.25,-53.38 1441.75,-53.38 1441.75,-86.88"/>
<text xml:space="preserve" text-anchor="start" x="1279.25" y="-73.38" font-family="Helvetica,sans-Serif" font-size="10.00">core::socket::stream</text>
<text xml:space="preserve" text-anchor="middle" x="1356.5" y="-60.62" font-family="Helvetica,sans-Serif" font-size="10.00">::SocketConnection::sendToPeer</text>
</a>
</g>
</g>
<!-- Node21&#45;&gt;Node22 -->
<g id="edge24_Node000021_Node000022" class="edge">
<title>Node21&#45;&gt;Node22</title>
<g id="a_edge24_Node000021_Node000022"><a xlink:title=" ">
<path fill="none" stroke="#63b8ff" d="M1235.69,-70.12C1243.51,-70.12 1251.54,-70.12 1259.54,-70.12"/>
<polygon fill="#63b8ff" stroke="#63b8ff" points="1259.3,-73.63 1269.3,-70.13 1259.3,-66.63 1259.3,-73.63"/>
</a>
</g>
</g>
<!-- Node24 -->
<g id="Node000024" class="node">
<title>Node24</title>
<g id="a_Node000024"><a xlink:href="classcore_1_1socket_1_1stream_1_1SocketConnection.html#a73fe465f2fee94189954baa41dedd7e8" target="_top" xlink:title=" ">
<polygon fill="white" stroke="#666666" points="609,-46.25 446.75,-46.25 446.75,0 609,0 609,-46.25"/>
<text xml:space="preserve" text-anchor="start" x="454.75" y="-32.75" font-family="Helvetica,sans-Serif" font-size="10.00">core::socket::stream</text>
<text xml:space="preserve" text-anchor="start" x="454.75" y="-20" font-family="Helvetica,sans-Serif" font-size="10.00">::SocketConnection::shutdown</text>
<text xml:space="preserve" text-anchor="middle" x="527.88" y="-7.25" font-family="Helvetica,sans-Serif" font-size="10.00">Write</text>
</a>
</g>
</g>
<!-- Node23&#45;&gt;Node24 -->
<g id="edge29_Node000023_Node000024" class="edge">
<title>Node23&#45;&gt;Node24</title>
<g id="a_edge29_Node000023_Node000024"><a xlink:title=" ">
<path fill="none" stroke="#63b8ff" d="M384.81,-25C401.19,-24.78 418.42,-24.56 434.99,-24.34"/>
<polygon fill="#63b8ff" stroke="#63b8ff" points="434.88,-27.84 444.84,-24.21 434.79,-20.84 434.88,-27.84"/>
</a>
</g>
</g>
</g>
</svg>

<g id="navigator" transform="translate(0 0)" fill="#404254">
  <rect fill="#f2f5e9" fill-opacity="0.5" stroke="#606060" stroke-width=".5" x="0" y="0" width="60" height="60"/>
  <use id="zoomplus" xlink:href="#zoomPlus" x="17" y="9" onmousedown="handleZoom(evt,'in')"/>
  <use id="zoomminus" xlink:href="#zoomMin" x="42" y="9" onmousedown="handleZoom(evt,'out')"/>
  <use id="reset" xlink:href="#resetDef" x="30" y="36" onmousedown="handleReset()"/>
   <use id="arrowup" xlink:href="#arrowUp" x="0" y="0" onmousedown="handlePan(0,-1)"/>
  <use id="arrowright" xlink:href="#arrowRight" x="0" y="0" onmousedown="handlePan(1,0)"/>
  <use id="arrowdown" xlink:href="#arrowDown" x="0" y="0" onmousedown="handlePan(0,1)"/>
  <use id="arrowleft" xlink:href="#arrowLeft" x="0" y="0" onmousedown="handlePan(-1,0)"/>
</g>
<svg viewBox="0 0 15 15" width="100%" height="30px" preserveAspectRatio="xMaxYMin meet">
 <g id="arrow_out" transform="scale(0.3 0.3)">
  <a xlink:href="classweb_1_1http_1_1client_1_1SocketContext_a87af7659934d282633c82e9f77301128_cgraph_org.svg" target="_base">
   <rect id="button" ry="5" rx="5" y="6" x="6" height="38" width="38"
        fill="#f2f5e9" fill-opacity="0.5" stroke="#606060" stroke-width="1.0"/>
   <path id="arrow"
     d="M 11.500037,31.436501 C 11.940474,20.09759 22.043105,11.32322 32.158766,21.979434 L 37.068811,17.246167 C 37.068811,17.246167 37.088388,32 37.088388,32 L 22.160133,31.978069 C 22.160133,31.978069 26.997745,27.140456 26.997745,27.140456 C 18.528582,18.264221 13.291696,25.230495 11.500037,31.436501 z"
     style="fill:#404040;"/>
  </a>
 </g>
</svg>

<style type='text/css'>
<![CDATA[
[data-mouse-over-selected='false'] { opacity: 0.7; }
[data-mouse-over-selected='true']  { opacity: 1.0; }
]]>
</style>
<script type="application/ecmascript"><![CDATA[
document.addEventListener('DOMContentLoaded', (event) => {
  highlightEdges();
  highlightAdjacentNodes();
});
]]></script>
</svg>
