<?xml version="1.0" encoding="UTF-8" standalone="no"?>
<!DOCTYPE svg PUBLIC "-//W3C//DTD SVG 1.1//EN"
 "http://www.w3.org/Graphics/SVG/1.1/DTD/svg11.dtd">
<!-- Generated by graphviz version 14.1.1 (0)
 -->
<!-- Title: net::un::stream::legacy::config::ConfigSocketClient Pages: 1 -->
<!--zoomable 997 -->

<svg id="main" version="1.1" xmlns="http://www.w3.org/2000/svg" xmlns:xlink="http://www.w3.org/1999/xlink" xml:space="preserve" onload="init(evt)">

<style type="text/css"><![CDATA[
.node, .edge {opacity: 0.7;}
.node.selected, .edge.selected {opacity: 1;}
.edge:hover path { stroke: red; }
.edge:hover polygon { stroke: red; fill: red; }
]]></style>

<defs>
  <circle id="rim" cx="0" cy="0" r="7"/>
  <circle id="rim2" cx="0" cy="0" r="3.5"/>
  <g id="zoomPlus">
    <use xlink:href="#rim" fill="#404040"><set attributeName="fill" to="#808080" begin="zoomplus.mouseover" end="zoomplus.mouseout"/></use>
    <path d="M-4,0h8M0,-4v8" fill="none" stroke="white" stroke-width="1.5" pointer-events="none"/>
  </g>
  <g id="zoomMin">
    <use xlink:href="#rim" fill="#404040"><set attributeName="fill" to="#808080" begin="zoomminus.mouseover" end="zoomminus.mouseout"/></use>
    <path d="M-4,0h8" fill="none" stroke="white" stroke-width="1.5" pointer-events="none"/>
  </g>
  <g id="arrowUp" transform="translate(30 24)">
    <use xlink:href="#rim"/>
    <path pointer-events="none" fill="none" stroke="white" stroke-width="1.5" d="M0,-3.0v7 M-2.5,-0.5L0,-3.0L2.5,-0.5"/>
  </g>
  <g id="arrowRight" transform="rotate(90) translate(36 -43)">
    <use xlink:href="#rim"/>
    <path pointer-events="none" fill="none" stroke="white" stroke-width="1.5" d="M0,-3.0v7 M-2.5,-0.5L0,-3.0L2.5,-0.5"/>
  </g>
  <g id="arrowDown" transform="rotate(180) translate(-30 -48)">
    <use xlink:href="#rim"/>
    <path pointer-events="none" fill="none" stroke="white" stroke-width="1.5" d="M0,-3.0v7 M-2.5,-0.5L0,-3.0L2.5,-0.5"/>
  </g>
  <g id="arrowLeft" transform="rotate(270) translate(-36 17)">
    <use xlink:href="#rim"/>
    <path pointer-events="none" fill="none" stroke="white" stroke-width="1.5" d="M0,-3.0v7 M-2.5,-0.5L0,-3.0L2.5,-0.5"/>
  </g>
  <g id="resetDef">
    <use xlink:href="#rim2" fill="#404040"><set attributeName="fill" to="#808080" begin="reset.mouseover" end="reset.mouseout"/></use>
  </g>
</defs>
<script type="application/ecmascript">
var viewWidth = 710;
var viewHeight = 997;
var sectionId = 'dynsection-1';
</script>
<script type="application/ecmascript" xlink:href="svg.min.js"/>
<svg id="graph" class="graph">
<g id="viewport">
<title>net::un::stream::legacy::config::ConfigSocketClient</title>
<!-- Node1 -->
<g id="Node000001" class="node">
<title>Node1</title>
<g id="a_Node000001"><a xlink:title=" ">
<polygon fill="#999999" stroke="none" points="152.12,-33.5 9.88,-33.5 9.88,0 152.12,0 152.12,-33.5"/>
<text xml:space="preserve" text-anchor="start" x="13.88" y="-20" font-family="Helvetica,sans-Serif" font-size="10.00">net::un::stream::legacy</text>
<text xml:space="preserve" text-anchor="start" x="13.88" y="-7.25" font-family="Helvetica,sans-Serif" font-size="10.00">::config::ConfigSocketClient</text>
<polygon fill="none" stroke="#666666" points="9.88,0 9.88,-33.5 152.12,-33.5 152.12,0 9.88,0"/>
</a>
</g>
</g>
<!-- Node2 -->
<g id="Node000002" class="node">
<title>Node2</title>
<g id="a_Node000002"><a xlink:href="classnet_1_1config_1_1stream_1_1legacy_1_1ConfigSocketClient.html" target="_top" xlink:title=" ">
<polygon fill="white" stroke="none" points="152.88,-129.5 9.12,-129.5 9.12,-70.5 152.88,-70.5 152.88,-129.5"/>
<text xml:space="preserve" text-anchor="start" x="13.12" y="-116" font-family="Helvetica,sans-Serif" font-size="10.00">net::config::stream</text>
<text xml:space="preserve" text-anchor="start" x="13.12" y="-103.25" font-family="Helvetica,sans-Serif" font-size="10.00">::legacy::ConfigSocketClient</text>
<text xml:space="preserve" text-anchor="start" x="13.12" y="-90.5" font-family="Helvetica,sans-Serif" font-size="10.00">&lt; net::un::stream::config</text>
<text xml:space="preserve" text-anchor="start" x="26.25" y="-77.75" font-family="Helvetica,sans-Serif" font-size="10.00">::ConfigSocketClient &gt;</text>
<polygon fill="none" stroke="#666666" points="9.12,-70.5 9.12,-129.5 152.88,-129.5 152.88,-70.5 9.12,-70.5"/>
</a>
</g>
</g>
<!-- Node2&#45;&gt;Node1 -->
<g id="edge1_Node000001_Node000002" class="edge">
<title>Node2&#45;&gt;Node1</title>
<g id="a_edge1_Node000001_Node000002"><a xlink:title=" ">
<path fill="none" stroke="#63b8ff" d="M81,-59.19C81,-50.06 81,-40.88 81,-33.49"/>
<polygon fill="none" stroke="#63b8ff" points="77.5,-59.07 81,-69.07 84.5,-59.07 77.5,-59.07"/>
</a>
</g>
</g>
<!-- Node3 -->
<g id="Node000003" class="node">
<title>Node3</title>
<g id="a_Node000003"><a xlink:href="classnet_1_1config_1_1ConfigInstance.html" target="_top" xlink:title=" ">
<polygon fill="white" stroke="none" points="202.25,-813.75 63.75,-813.75 63.75,-793 202.25,-793 202.25,-813.75"/>
<text xml:space="preserve" text-anchor="start" x="67.75" y="-800.25" font-family="Helvetica,sans-Serif" font-size="10.00">net::config::ConfigInstance</text>
<polygon fill="none" stroke="#666666" points="63.75,-793 63.75,-813.75 202.25,-813.75 202.25,-793 63.75,-793"/>
</a>
</g>
</g>
<!-- Node3&#45;&gt;Node2 -->
<g id="edge2_Node000002_Node000003" class="edge">
<title>Node3&#45;&gt;Node2</title>
<g id="a_edge2_Node000002_Node000003"><a xlink:title=" ">
<path fill="none" stroke="#63b8ff" d="M78.05,-789.77C41.44,-777.75 0,-755.45 0,-716.12 0,-716.12 0,-716.12 0,-182.25 0,-160.74 14.42,-142.92 31.09,-129.5"/>
<polygon fill="none" stroke="#63b8ff" points="76.68,-793.01 87.27,-792.6 78.73,-786.32 76.68,-793.01"/>
</a>
</g>
</g>
<!-- Node12 -->
<g id="Node000012" class="node">
<title>Node12</title>
<g id="a_Node000012"><a xlink:href="classnet_1_1config_1_1ConfigSection.html" target="_top" xlink:title=" ">
<polygon fill="white" stroke="none" points="199.62,-725.5 66.38,-725.5 66.38,-704.75 199.62,-704.75 199.62,-725.5"/>
<text xml:space="preserve" text-anchor="start" x="70.38" y="-712" font-family="Helvetica,sans-Serif" font-size="10.00">net::config::ConfigSection</text>
<polygon fill="none" stroke="#666666" points="66.38,-704.75 66.38,-725.5 199.62,-725.5 199.62,-704.75 66.38,-704.75"/>
</a>
</g>
</g>
<!-- Node3&#45;&gt;Node12 -->
<g id="edge12_Node000012_Node000003" class="edge">
<title>Node3&#45;&gt;Node12</title>
<g id="a_edge12_Node000012_Node000003"><a xlink:title=" ">
<path fill="none" stroke="#63b8ff" d="M133,-793.14C133,-780.11 133,-755.92 133,-738.11"/>
<polygon fill="none" stroke="#63b8ff" points="133,-738.19 129,-732.19 133,-726.19 137,-732.19 133,-738.19"/>
</a>
</g>
<text xml:space="preserve" text-anchor="start" x="136" y="-762.5" font-family="Helvetica,sans-Serif" font-size="10.00" fill="grey">&#45;instance</text>
</g>
<!-- Node4 -->
<g id="Node000004" class="node">
<title>Node4</title>
<g id="a_Node000004"><a xlink:title=" ">
<polygon fill="white" stroke="none" points="218.38,-912.38 161.62,-912.38 161.62,-891.62 218.38,-891.62 218.38,-912.38"/>
<text xml:space="preserve" text-anchor="start" x="165.62" y="-898.88" font-family="Helvetica,sans-Serif" font-size="10.00">std::string</text>
<polygon fill="none" stroke="#666666" points="161.62,-891.62 161.62,-912.38 218.38,-912.38 218.38,-891.62 161.62,-891.62"/>
</a>
</g>
</g>
<!-- Node4&#45;&gt;Node3 -->
<g id="edge3_Node000003_Node000004" class="edge">
<title>Node4&#45;&gt;Node3</title>
<g id="a_edge3_Node000003_Node000004"><a xlink:title=" ">
<path fill="none" stroke="#63b8ff" d="M181.87,-891.64C176.38,-885.07 169.17,-875.94 163.75,-867.25 155.43,-853.93 147.68,-838.03 142.03,-825.55"/>
<polygon fill="none" stroke="#63b8ff" points="141.99,-825.46 135.92,-821.57 137.18,-814.47 143.25,-818.36 141.99,-825.46"/>
</a>
</g>
<text xml:space="preserve" text-anchor="start" x="166.75" y="-854.75" font-family="Helvetica,sans-Serif" font-size="10.00" fill="grey">&#45;instanceName</text>
<text xml:space="preserve" text-anchor="start" x="166.75" y="-838" font-family="Helvetica,sans-Serif" font-size="10.00" fill="grey">&#45;nameAnonymous</text>
</g>
<!-- Node13 -->
<g id="Node000013" class="node">
<title>Node13</title>
<g id="a_Node000013"><a xlink:href="classnet_1_1un_1_1SocketAddress.html" target="_top" xlink:title=" ">
<polygon fill="white" stroke="none" points="409.5,-813.75 290.5,-813.75 290.5,-793 409.5,-793 409.5,-813.75"/>
<text xml:space="preserve" text-anchor="start" x="294.5" y="-800.25" font-family="Helvetica,sans-Serif" font-size="10.00">net::un::SocketAddress</text>
<polygon fill="none" stroke="#666666" points="290.5,-793 290.5,-813.75 409.5,-813.75 409.5,-793 290.5,-793"/>
</a>
</g>
</g>
<!-- Node4&#45;&gt;Node13 -->
<g id="edge16_Node000013_Node000004" class="edge">
<title>Node4&#45;&gt;Node13</title>
<g id="a_edge16_Node000013_Node000004"><a xlink:title=" ">
<path fill="none" stroke="#63b8ff" d="M213.3,-891.65C227.14,-885.61 244.71,-877.06 259,-867.25 278.12,-854.12 278.28,-845.1 297.25,-831.75 303.5,-827.35 310.54,-823.21 317.4,-819.54"/>
<polygon fill="none" stroke="#63b8ff" points="317.46,-819.51 321,-813.23 328.16,-814.08 324.62,-820.37 317.46,-819.51"/>
</a>
</g>
<text xml:space="preserve" text-anchor="start" x="300.25" y="-846.38" font-family="Helvetica,sans-Serif" font-size="10.00" fill="grey">&#45;sunPath</text>
</g>
<!-- Node5 -->
<g id="Node000005" class="node">
<title>Node5</title>
<g id="a_Node000005"><a xlink:title=" ">
<polygon fill="white" stroke="none" points="237.88,-989.25 142.12,-989.25 142.12,-955.75 237.88,-955.75 237.88,-989.25"/>
<text xml:space="preserve" text-anchor="start" x="146.12" y="-975.75" font-family="Helvetica,sans-Serif" font-size="10.00">std::basic_string&lt;</text>
<text xml:space="preserve" text-anchor="start" x="171.62" y="-963" font-family="Helvetica,sans-Serif" font-size="10.00"> Char &gt;</text>
<polygon fill="none" stroke="#666666" points="142.12,-955.75 142.12,-989.25 237.88,-989.25 237.88,-955.75 142.12,-955.75"/>
</a>
</g>
</g>
<!-- Node5&#45;&gt;Node4 -->
<g id="edge4_Node000004_Node000005" class="edge">
<title>Node5&#45;&gt;Node4</title>
<g id="a_edge4_Node000004_Node000005"><a xlink:title=" ">
<path fill="none" stroke="#63b8ff" d="M190,-944.7C190,-933.28 190,-920.69 190,-912.37"/>
<polygon fill="none" stroke="#63b8ff" points="186.5,-944.44 190,-954.44 193.5,-944.44 186.5,-944.44"/>
</a>
</g>
</g>
<!-- Node6 -->
<g id="Node000006" class="node">
<title>Node6</title>
<g id="a_Node000006"><a xlink:href="classnet_1_1un_1_1stream_1_1config_1_1ConfigSocketClient.html" target="_top" xlink:title=" ">
<polygon fill="white" stroke="none" points="287.12,-200 168.88,-200 168.88,-166.5 287.12,-166.5 287.12,-200"/>
<text xml:space="preserve" text-anchor="start" x="172.88" y="-186.5" font-family="Helvetica,sans-Serif" font-size="10.00">net::un::stream::config</text>
<text xml:space="preserve" text-anchor="start" x="178.88" y="-173.75" font-family="Helvetica,sans-Serif" font-size="10.00">::ConfigSocketClient</text>
<polygon fill="none" stroke="#666666" points="168.88,-166.5 168.88,-200 287.12,-200 287.12,-166.5 168.88,-166.5"/>
</a>
</g>
</g>
<!-- Node6&#45;&gt;Node2 -->
<g id="edge5_Node000002_Node000006" class="edge">
<title>Node6&#45;&gt;Node2</title>
<g id="a_edge5_Node000002_Node000006"><a xlink:title=" ">
<path fill="none" stroke="#63b8ff" d="M189.8,-161.14C172.31,-151.47 151.32,-139.87 132.47,-129.45"/>
<polygon fill="none" stroke="#63b8ff" points="187.89,-164.08 198.33,-165.85 191.27,-157.95 187.89,-164.08"/>
</a>
</g>
</g>
<!-- Node7 -->
<g id="Node000007" class="node">
<title>Node7</title>
<g id="a_Node000007"><a xlink:href="classnet_1_1config_1_1stream_1_1ConfigSocketClient.html" target="_top" xlink:title=" ">
<polygon fill="white" stroke="none" points="377.38,-283.25 200.62,-283.25 200.62,-237 377.38,-237 377.38,-283.25"/>
<text xml:space="preserve" text-anchor="start" x="204.62" y="-269.75" font-family="Helvetica,sans-Serif" font-size="10.00">net::config::stream</text>
<text xml:space="preserve" text-anchor="start" x="204.62" y="-257" font-family="Helvetica,sans-Serif" font-size="10.00">::ConfigSocketClient</text>
<text xml:space="preserve" text-anchor="start" x="204.62" y="-244.25" font-family="Helvetica,sans-Serif" font-size="10.00">&lt; net::un::config::ConfigAddress &gt;</text>
<polygon fill="none" stroke="#666666" points="200.62,-237 200.62,-283.25 377.38,-283.25 377.38,-237 200.62,-237"/>
</a>
</g>
</g>
<!-- Node7&#45;&gt;Node6 -->
<g id="edge6_Node000006_Node000007" class="edge">
<title>Node7&#45;&gt;Node6</title>
<g id="a_edge6_Node000006_Node000007"><a xlink:title=" ">
<path fill="none" stroke="#63b8ff" d="M263.94,-228.36C255.99,-218.6 247.53,-208.22 240.82,-199.98"/>
<polygon fill="none" stroke="#63b8ff" points="261.04,-230.35 270.07,-235.89 266.47,-225.93 261.04,-230.35"/>
</a>
</g>
</g>
<!-- Node8 -->
<g id="Node000008" class="node">
<title>Node8</title>
<g id="a_Node000008"><a xlink:href="classnet_1_1un_1_1config_1_1ConfigAddress.html" target="_top" xlink:title=" ">
<polygon fill="white" stroke="none" points="387.5,-353.75 190.5,-353.75 190.5,-320.25 387.5,-320.25 387.5,-353.75"/>
<text xml:space="preserve" text-anchor="start" x="194.5" y="-340.25" font-family="Helvetica,sans-Serif" font-size="10.00">net::un::config::ConfigAddress</text>
<text xml:space="preserve" text-anchor="start" x="194.5" y="-327.5" font-family="Helvetica,sans-Serif" font-size="10.00">&lt; net::config::ConfigAddressRemote &gt;</text>
<polygon fill="none" stroke="#666666" points="190.5,-320.25 190.5,-353.75 387.5,-353.75 387.5,-320.25 190.5,-320.25"/>
</a>
</g>
</g>
<!-- Node8&#45;&gt;Node7 -->
<g id="edge7_Node000007_Node000008" class="edge">
<title>Node8&#45;&gt;Node7</title>
<g id="a_edge7_Node000007_Node000008"><a xlink:title=" ">
<path fill="none" stroke="#63b8ff" d="M289,-309.16C289,-300.63 289,-291.3 289,-283.15"/>
<polygon fill="none" stroke="#63b8ff" points="285.5,-308.97 289,-318.97 292.5,-308.97 285.5,-308.97"/>
</a>
</g>
</g>
<!-- Node9 -->
<g id="Node000009" class="node">
<title>Node9</title>
<g id="a_Node000009"><a xlink:href="classnet_1_1config_1_1ConfigAddressRemote.html" target="_top" xlink:title=" ">
<polygon fill="white" stroke="none" points="384.88,-456.75 205.12,-456.75 205.12,-423.25 384.88,-423.25 384.88,-456.75"/>
<text xml:space="preserve" text-anchor="start" x="209.12" y="-443.25" font-family="Helvetica,sans-Serif" font-size="10.00">net::config::ConfigAddress</text>
<text xml:space="preserve" text-anchor="start" x="209.12" y="-430.5" font-family="Helvetica,sans-Serif" font-size="10.00">Remote&lt; net::un::SocketAddress &gt;</text>
<polygon fill="none" stroke="#666666" points="205.12,-423.25 205.12,-456.75 384.88,-456.75 384.88,-423.25 205.12,-423.25"/>
</a>
</g>
</g>
<!-- Node9&#45;&gt;Node8 -->
<g id="edge8_Node000008_Node000009" class="edge">
<title>Node9&#45;&gt;Node8</title>
<g id="a_edge8_Node000008_Node000009"><a xlink:title=" ">
<path fill="none" stroke="#63b8ff" d="M293.41,-412.3C292.3,-393.55 290.85,-369.11 289.92,-353.48"/>
<polygon fill="none" stroke="#63b8ff" points="289.91,-412.37 294,-422.15 296.9,-411.96 289.91,-412.37"/>
</a>
</g>
</g>
<!-- Node10 -->
<g id="Node000010" class="node">
<title>Node10</title>
<g id="a_Node000010"><a xlink:href="classnet_1_1config_1_1ConfigAddress.html" target="_top" xlink:title=" ">
<polygon fill="white" stroke="none" points="393.75,-547 252.25,-547 252.25,-513.5 393.75,-513.5 393.75,-547"/>
<text xml:space="preserve" text-anchor="start" x="256.25" y="-533.5" font-family="Helvetica,sans-Serif" font-size="10.00">net::config::ConfigAddress</text>
<text xml:space="preserve" text-anchor="start" x="256.25" y="-520.75" font-family="Helvetica,sans-Serif" font-size="10.00">&lt; net::un::SocketAddress &gt;</text>
<polygon fill="none" stroke="#666666" points="252.25,-513.5 252.25,-547 393.75,-547 393.75,-513.5 252.25,-513.5"/>
</a>
</g>
</g>
<!-- Node10&#45;&gt;Node9 -->
<g id="edge9_Node000009_Node000010" class="edge">
<title>Node10&#45;&gt;Node9</title>
<g id="a_edge9_Node000009_Node000010"><a xlink:title=" ">
<path fill="none" stroke="#63b8ff" d="M314.7,-503.1C309.89,-487.94 304,-469.36 299.92,-456.49"/>
<polygon fill="none" stroke="#63b8ff" points="311.3,-503.96 317.67,-512.44 317.98,-501.85 311.3,-503.96"/>
</a>
</g>
</g>
<!-- Node17 -->
<g id="Node000017" class="node">
<title>Node17</title>
<g id="a_Node000017"><a xlink:href="classnet_1_1config_1_1ConfigAddressLocal.html" target="_top" xlink:title=" ">
<polygon fill="white" stroke="none" points="578.5,-456.75 411.5,-456.75 411.5,-423.25 578.5,-423.25 578.5,-456.75"/>
<text xml:space="preserve" text-anchor="start" x="415.5" y="-443.25" font-family="Helvetica,sans-Serif" font-size="10.00">net::config::ConfigAddress</text>
<text xml:space="preserve" text-anchor="start" x="415.5" y="-430.5" font-family="Helvetica,sans-Serif" font-size="10.00">Local&lt; net::un::SocketAddress &gt;</text>
<polygon fill="none" stroke="#666666" points="411.5,-423.25 411.5,-456.75 578.5,-456.75 578.5,-423.25 411.5,-423.25"/>
</a>
</g>
</g>
<!-- Node10&#45;&gt;Node17 -->
<g id="edge19_Node000017_Node000010" class="edge">
<title>Node10&#45;&gt;Node17</title>
<g id="a_edge19_Node000017_Node000010"><a xlink:title=" ">
<path fill="none" stroke="#63b8ff" d="M363.37,-508.54C394.26,-492.69 436.21,-471.17 464.37,-456.72"/>
<polygon fill="none" stroke="#63b8ff" points="362,-505.31 354.7,-512.98 365.2,-511.53 362,-505.31"/>
</a>
</g>
</g>
<!-- Node11 -->
<g id="Node000011" class="node">
<title>Node11</title>
<g id="a_Node000011"><a xlink:href="classnet_1_1config_1_1ConfigAddressBase.html" target="_top" xlink:title=" ">
<polygon fill="white" stroke="none" points="323.75,-637.25 158.25,-637.25 158.25,-603.75 323.75,-603.75 323.75,-637.25"/>
<text xml:space="preserve" text-anchor="start" x="162.25" y="-623.75" font-family="Helvetica,sans-Serif" font-size="10.00">net::config::ConfigAddress</text>
<text xml:space="preserve" text-anchor="start" x="162.25" y="-611" font-family="Helvetica,sans-Serif" font-size="10.00">Base&lt; net::un::SocketAddress &gt;</text>
<polygon fill="none" stroke="#666666" points="158.25,-603.75 158.25,-637.25 323.75,-637.25 323.75,-603.75 158.25,-603.75"/>
</a>
</g>
</g>
<!-- Node11&#45;&gt;Node10 -->
<g id="edge10_Node000010_Node000011" class="edge">
<title>Node11&#45;&gt;Node10</title>
<g id="a_edge10_Node000010_Node000011"><a xlink:title=" ">
<path fill="none" stroke="#63b8ff" d="M262.85,-595.99C277.34,-580.39 295.95,-560.36 308.61,-546.74"/>
<polygon fill="none" stroke="#63b8ff" points="260.56,-593.31 256.31,-603.02 265.68,-598.08 260.56,-593.31"/>
</a>
</g>
</g>
<!-- Node12&#45;&gt;Node11 -->
<g id="edge11_Node000011_Node000012" class="edge">
<title>Node12&#45;&gt;Node11</title>
<g id="a_edge11_Node000011_Node000012"><a xlink:title=" ">
<path fill="none" stroke="darkgreen" d="M152.32,-697.55C172.29,-680.42 203.23,-653.89 222.78,-637.12"/>
<polygon fill="none" stroke="darkgreen" points="150.21,-694.75 144.9,-703.92 154.77,-700.07 150.21,-694.75"/>
</a>
</g>
</g>
<!-- Node18 -->
<g id="Node000018" class="node">
<title>Node18</title>
<g id="a_Node000018"><a xlink:href="classnet_1_1config_1_1ConfigConnection.html" target="_top" xlink:title=" ">
<polygon fill="white" stroke="none" points="243,-585.75 91,-585.75 91,-565 243,-565 243,-585.75"/>
<text xml:space="preserve" text-anchor="start" x="95" y="-572.25" font-family="Helvetica,sans-Serif" font-size="10.00">net::config::ConfigConnection</text>
<polygon fill="none" stroke="#666666" points="91,-565 91,-585.75 243,-585.75 243,-565 91,-565"/>
</a>
</g>
</g>
<!-- Node12&#45;&gt;Node18 -->
<g id="edge21_Node000018_Node000012" class="edge">
<title>Node12&#45;&gt;Node18</title>
<g id="a_edge21_Node000018_Node000012"><a xlink:title=" ">
<path fill="none" stroke="darkgreen" d="M133.32,-693.71C134.27,-671.04 137.63,-633.7 149,-603.75 151.5,-597.16 155.8,-590.53 159.57,-585.44"/>
<polygon fill="none" stroke="darkgreen" points="129.83,-693.31 133.04,-703.41 136.83,-693.51 129.83,-693.31"/>
</a>
</g>
</g>
<!-- Node20 -->
<g id="Node000020" class="node">
<title>Node20</title>
<g id="a_Node000020"><a xlink:href="classnet_1_1config_1_1ConfigPhysicalSocket.html" target="_top" xlink:title=" ">
<polygon fill="white" stroke="none" points="649.88,-637.25 512.12,-637.25 512.12,-603.75 649.88,-603.75 649.88,-637.25"/>
<text xml:space="preserve" text-anchor="start" x="516.12" y="-623.75" font-family="Helvetica,sans-Serif" font-size="10.00">net::config::ConfigPhysical</text>
<text xml:space="preserve" text-anchor="start" x="564.88" y="-611" font-family="Helvetica,sans-Serif" font-size="10.00">Socket</text>
<polygon fill="none" stroke="#666666" points="512.12,-603.75 512.12,-637.25 649.88,-637.25 649.88,-603.75 512.12,-603.75"/>
</a>
</g>
</g>
<!-- Node12&#45;&gt;Node20 -->
<g id="edge24_Node000020_Node000012" class="edge">
<title>Node12&#45;&gt;Node20</title>
<g id="a_edge24_Node000020_Node000012"><a xlink:title=" ">
<path fill="none" stroke="darkgreen" d="M210.57,-708.49C272.3,-702.9 360.54,-692.43 436,-674 473.84,-664.76 515.51,-649.06 544.43,-637.23"/>
<polygon fill="none" stroke="darkgreen" points="210.53,-704.98 200.87,-709.35 211.14,-711.95 210.53,-704.98"/>
</a>
</g>
</g>
<!-- Node22 -->
<g id="Node000022" class="node">
<title>Node22</title>
<g id="a_Node000022"><a xlink:href="classnet_1_1config_1_1ConfigLegacy.html" target="_top" xlink:title=" ">
<polygon fill="white" stroke="none" points="146.88,-495.5 15.12,-495.5 15.12,-474.75 146.88,-474.75 146.88,-495.5"/>
<text xml:space="preserve" text-anchor="start" x="19.12" y="-482" font-family="Helvetica,sans-Serif" font-size="10.00">net::config::ConfigLegacy</text>
<polygon fill="none" stroke="#666666" points="15.12,-474.75 15.12,-495.5 146.88,-495.5 146.88,-474.75 15.12,-474.75"/>
</a>
</g>
</g>
<!-- Node12&#45;&gt;Node22 -->
<g id="edge27_Node000022_Node000012" class="edge">
<title>Node12&#45;&gt;Node22</title>
<g id="a_edge27_Node000022_Node000012"><a xlink:title=" ">
<path fill="none" stroke="darkgreen" d="M124.81,-694.46C114.83,-669.6 98.29,-625.29 90,-585.75 83.12,-552.95 81.5,-512.98 81.12,-495.3"/>
<polygon fill="none" stroke="darkgreen" points="121.52,-695.66 128.54,-703.59 128,-693.01 121.52,-695.66"/>
</a>
</g>
</g>
<!-- Node13&#45;&gt;Node10 -->
<g id="edge13_Node000010_Node000013" class="edge">
<title>Node13&#45;&gt;Node10</title>
<g id="a_edge13_Node000010_Node000013"><a xlink:title=" ">
<path fill="none" stroke="#63b8ff" d="M349.39,-793.25C347.46,-765.03 341.14,-676.67 333,-603.75 331.37,-589.13 329.17,-572.9 327.24,-559.52"/>
<polygon fill="none" stroke="#63b8ff" points="327.25,-559.54 322.42,-554.19 325.51,-547.67 330.34,-553.03 327.25,-559.54"/>
</a>
</g>
<text xml:space="preserve" text-anchor="start" x="342.9" y="-661.5" font-family="Helvetica,sans-Serif" font-size="10.00" fill="grey">&#45;socketAddress</text>
</g>
<!-- Node14 -->
<g id="Node000014" class="node">
<title>Node14</title>
<g id="a_Node000014"><a xlink:href="classnet_1_1SocketAddress.html" target="_top" xlink:title=" ">
<polygon fill="white" stroke="none" points="400.5,-918.75 299.5,-918.75 299.5,-885.25 400.5,-885.25 400.5,-918.75"/>
<text xml:space="preserve" text-anchor="start" x="303.5" y="-905.25" font-family="Helvetica,sans-Serif" font-size="10.00">net::SocketAddress</text>
<text xml:space="preserve" text-anchor="start" x="308" y="-892.5" font-family="Helvetica,sans-Serif" font-size="10.00">&lt; sockaddr_un &gt;</text>
<polygon fill="none" stroke="#666666" points="299.5,-885.25 299.5,-918.75 400.5,-918.75 400.5,-885.25 299.5,-885.25"/>
</a>
</g>
</g>
<!-- Node14&#45;&gt;Node13 -->
<g id="edge14_Node000013_Node000014" class="edge">
<title>Node14&#45;&gt;Node13</title>
<g id="a_edge14_Node000013_Node000014"><a xlink:title=" ">
<path fill="none" stroke="#63b8ff" d="M350,-874.18C350,-854.01 350,-827.56 350,-813.72"/>
<polygon fill="none" stroke="#63b8ff" points="346.5,-873.96 350,-883.96 353.5,-873.96 346.5,-873.96"/>
</a>
</g>
</g>
<!-- Node15 -->
<g id="Node000015" class="node">
<title>Node15</title>
<g id="a_Node000015"><a xlink:href="classcore_1_1socket_1_1SocketAddress.html" target="_top" xlink:title=" ">
<polygon fill="white" stroke="none" points="421.88,-982.88 278.12,-982.88 278.12,-962.12 421.88,-962.12 421.88,-982.88"/>
<text xml:space="preserve" text-anchor="start" x="282.12" y="-969.38" font-family="Helvetica,sans-Serif" font-size="10.00">core::socket::SocketAddress</text>
<polygon fill="none" stroke="#666666" points="278.12,-962.12 278.12,-982.88 421.88,-982.88 421.88,-962.12 278.12,-962.12"/>
</a>
</g>
</g>
<!-- Node15&#45;&gt;Node14 -->
<g id="edge15_Node000014_Node000015" class="edge">
<title>Node15&#45;&gt;Node14</title>
<g id="a_edge15_Node000014_Node000015"><a xlink:title=" ">
<path fill="none" stroke="#63b8ff" d="M350,-950.94C350,-940.57 350,-928.21 350,-918.63"/>
<polygon fill="none" stroke="#63b8ff" points="346.5,-950.75 350,-960.75 353.5,-950.75 346.5,-950.75"/>
</a>
</g>
</g>
<!-- Node16 -->
<g id="Node000016" class="node">
<title>Node16</title>
<g id="a_Node000016"><a xlink:href="classnet_1_1un_1_1config_1_1ConfigAddress.html" target="_top" xlink:title=" ">
<polygon fill="white" stroke="none" points="590.12,-353.75 405.88,-353.75 405.88,-320.25 590.12,-320.25 590.12,-353.75"/>
<text xml:space="preserve" text-anchor="start" x="409.88" y="-340.25" font-family="Helvetica,sans-Serif" font-size="10.00">net::un::config::ConfigAddress</text>
<text xml:space="preserve" text-anchor="start" x="409.88" y="-327.5" font-family="Helvetica,sans-Serif" font-size="10.00">&lt; net::config::ConfigAddressLocal &gt;</text>
<polygon fill="none" stroke="#666666" points="405.88,-320.25 405.88,-353.75 590.12,-353.75 590.12,-320.25 405.88,-320.25"/>
</a>
</g>
</g>
<!-- Node16&#45;&gt;Node7 -->
<g id="edge17_Node000007_Node000016" class="edge">
<title>Node16&#45;&gt;Node7</title>
<g id="a_edge17_Node000007_Node000016"><a xlink:title=" ">
<path fill="none" stroke="#63b8ff" d="M443.61,-316.51C415.11,-306.3 380.09,-293.76 350.59,-283.19"/>
<polygon fill="none" stroke="#63b8ff" points="442.17,-319.72 452.76,-319.79 444.53,-313.13 442.17,-319.72"/>
</a>
</g>
</g>
<!-- Node17&#45;&gt;Node16 -->
<g id="edge18_Node000016_Node000017" class="edge">
<title>Node17&#45;&gt;Node16</title>
<g id="a_edge18_Node000016_Node000017"><a xlink:title=" ">
<path fill="none" stroke="#63b8ff" d="M495.79,-412.3C496.35,-393.55 497.08,-369.11 497.54,-353.48"/>
<polygon fill="none" stroke="#63b8ff" points="492.3,-412.05 495.5,-422.15 499.3,-412.26 492.3,-412.05"/>
</a>
</g>
</g>
<!-- Node18&#45;&gt;Node7 -->
<g id="edge20_Node000007_Node000018" class="edge">
<title>Node18&#45;&gt;Node7</title>
<g id="a_edge20_Node000007_Node000018"><a xlink:title=" ">
<path fill="none" stroke="#63b8ff" d="M165.17,-553.81C163.75,-535.94 162,-509.34 162,-486.12 162,-486.12 162,-486.12 162,-336 162,-311.17 180.23,-294.41 202.88,-283.16"/>
<polygon fill="none" stroke="#63b8ff" points="161.67,-553.93 166,-563.6 168.65,-553.34 161.67,-553.93"/>
</a>
</g>
</g>
<!-- Node19 -->
<g id="Node000019" class="node">
<title>Node19</title>
<g id="a_Node000019"><a xlink:href="classnet_1_1config_1_1ConfigPhysicalSocketClient.html" target="_top" xlink:title=" ">
<polygon fill="white" stroke="none" points="684.88,-405.25 547.12,-405.25 547.12,-371.75 684.88,-371.75 684.88,-405.25"/>
<text xml:space="preserve" text-anchor="start" x="551.12" y="-391.75" font-family="Helvetica,sans-Serif" font-size="10.00">net::config::ConfigPhysical</text>
<text xml:space="preserve" text-anchor="start" x="585.62" y="-379" font-family="Helvetica,sans-Serif" font-size="10.00">SocketClient</text>
<polygon fill="none" stroke="#666666" points="547.12,-371.75 547.12,-405.25 684.88,-405.25 684.88,-371.75 547.12,-371.75"/>
</a>
</g>
</g>
<!-- Node19&#45;&gt;Node7 -->
<g id="edge22_Node000007_Node000019" class="edge">
<title>Node19&#45;&gt;Node7</title>
<g id="a_edge22_Node000007_Node000019"><a xlink:title=" ">
<path fill="none" stroke="#63b8ff" d="M615.76,-360.38C614.18,-346.53 609.84,-330.47 599,-320.25 567.55,-290.61 457.15,-275.05 377.04,-267.47"/>
<polygon fill="none" stroke="#63b8ff" points="612.26,-360.55 616.43,-370.29 619.25,-360.07 612.26,-360.55"/>
</a>
</g>
</g>
<!-- Node20&#45;&gt;Node19 -->
<g id="edge23_Node000019_Node000020" class="edge">
<title>Node20&#45;&gt;Node19</title>
<g id="a_edge23_Node000019_Node000020"><a xlink:title=" ">
<path fill="none" stroke="#63b8ff" d="M585.08,-592.68C592.44,-544.3 607.72,-443.89 613.61,-405.18"/>
<polygon fill="none" stroke="#63b8ff" points="581.62,-592.14 583.58,-602.56 588.54,-593.2 581.62,-592.14"/>
</a>
</g>
</g>
<!-- Node21 -->
<g id="Node000021" class="node">
<title>Node21</title>
<g id="a_Node000021"><a xlink:title=" ">
<polygon fill="white" stroke="none" points="651.75,-738.25 510.25,-738.25 510.25,-692 651.75,-692 651.75,-738.25"/>
<text xml:space="preserve" text-anchor="start" x="514.25" y="-724.75" font-family="Helvetica,sans-Serif" font-size="10.00">std::map&lt; int, std</text>
<text xml:space="preserve" text-anchor="start" x="514.25" y="-712" font-family="Helvetica,sans-Serif" font-size="10.00">::map&lt; int, net::phy</text>
<text xml:space="preserve" text-anchor="start" x="514.25" y="-699.25" font-family="Helvetica,sans-Serif" font-size="10.00">::PhysicalSocketOption &gt; &gt;</text>
<polygon fill="none" stroke="#666666" points="510.25,-692 510.25,-738.25 651.75,-738.25 651.75,-692 510.25,-692"/>
</a>
</g>
</g>
<!-- Node21&#45;&gt;Node20 -->
<g id="edge25_Node000020_Node000021" class="edge">
<title>Node21&#45;&gt;Node20</title>
<g id="a_edge25_Node000020_Node000021"><a xlink:title=" ">
<path fill="none" stroke="#63b8ff" d="M581,-692.17C581,-679.63 581,-663.75 581,-650.22"/>
<polygon fill="none" stroke="#63b8ff" points="581,-650.11 577,-644.11 581,-638.11 585,-644.11 581,-650.11"/>
</a>
</g>
<text xml:space="preserve" text-anchor="start" x="584" y="-661.5" font-family="Helvetica,sans-Serif" font-size="10.00" fill="grey">&#45;socketOptionsMapMap</text>
</g>
<!-- Node22&#45;&gt;Node2 -->
<g id="edge26_Node000002_Node000022" class="edge">
<title>Node22&#45;&gt;Node2</title>
<g id="a_edge26_Node000002_Node000022"><a xlink:title=" ">
<path fill="none" stroke="#63b8ff" d="M81,-463.52C81,-444.35 81,-414.99 81,-389.5 81,-389.5 81,-389.5 81,-182.25 81,-164.62 81,-144.83 81,-129.2"/>
<polygon fill="none" stroke="#63b8ff" points="77.5,-463.48 81,-473.48 84.5,-463.48 77.5,-463.48"/>
</a>
</g>
</g>
</g>
</svg>

<g id="navigator" transform="translate(0 0)" fill="#404254">
  <rect fill="#f2f5e9" fill-opacity="0.5" stroke="#606060" stroke-width=".5" x="0" y="0" width="60" height="60"/>
  <use id="zoomplus" xlink:href="#zoomPlus" x="17" y="9" onmousedown="handleZoom(evt,'in')"/>
  <use id="zoomminus" xlink:href="#zoomMin" x="42" y="9" onmousedown="handleZoom(evt,'out')"/>
  <use id="reset" xlink:href="#resetDef" x="30" y="36" onmousedown="handleReset()"/>
   <use id="arrowup" xlink:href="#arrowUp" x="0" y="0" onmousedown="handlePan(0,-1)"/>
  <use id="arrowright" xlink:href="#arrowRight" x="0" y="0" onmousedown="handlePan(1,0)"/>
  <use id="arrowdown" xlink:href="#arrowDown" x="0" y="0" onmousedown="handlePan(0,1)"/>
  <use id="arrowleft" xlink:href="#arrowLeft" x="0" y="0" onmousedown="handlePan(-1,0)"/>
</g>
<svg viewBox="0 0 15 15" width="100%" height="30px" preserveAspectRatio="xMaxYMin meet">
 <g id="arrow_out" transform="scale(0.3 0.3)">
  <a xlink:href="classnet_1_1un_1_1stream_1_1legacy_1_1config_1_1ConfigSocketClient__coll__graph_org.svg" target="_base">
   <rect id="button" ry="5" rx="5" y="6" x="6" height="38" width="38"
        fill="#f2f5e9" fill-opacity="0.5" stroke="#606060" stroke-width="1.0"/>
   <path id="arrow"
     d="M 11.500037,31.436501 C 11.940474,20.09759 22.043105,11.32322 32.158766,21.979434 L 37.068811,17.246167 C 37.068811,17.246167 37.088388,32 37.088388,32 L 22.160133,31.978069 C 22.160133,31.978069 26.997745,27.140456 26.997745,27.140456 C 18.528582,18.264221 13.291696,25.230495 11.500037,31.436501 z"
     style="fill:#404040;"/>
  </a>
 </g>
</svg>

<style type='text/css'>
<![CDATA[
[data-mouse-over-selected='false'] { opacity: 0.7; }
[data-mouse-over-selected='true']  { opacity: 1.0; }
]]>
</style>
<script type="application/ecmascript"><![CDATA[
document.addEventListener('DOMContentLoaded', (event) => {
  highlightEdges();
  highlightAdjacentNodes();
});
]]></script>
</svg>
