<?xml version="1.0" encoding="UTF-8" standalone="no"?>
<!DOCTYPE svg PUBLIC "-//W3C//DTD SVG 1.1//EN"
 "http://www.w3.org/Graphics/SVG/1.1/DTD/svg11.dtd">
<!-- Generated by graphviz version 14.1.1 (0)
 -->
<!-- Title: core::multiplexer::poll::DescriptorEventPublisher Pages: 1 -->
<!--zoomable 919 -->

<svg id="main" version="1.1" xmlns="http://www.w3.org/2000/svg" xmlns:xlink="http://www.w3.org/1999/xlink" xml:space="preserve" onload="init(evt)">

<style type="text/css"><![CDATA[
.node, .edge {opacity: 0.7;}
.node.selected, .edge.selected {opacity: 1;}
.edge:hover path { stroke: red; }
.edge:hover polygon { stroke: red; fill: red; }
]]></style>

<defs>
  <circle id="rim" cx="0" cy="0" r="7"/>
  <circle id="rim2" cx="0" cy="0" r="3.5"/>
  <g id="zoomPlus">
    <use xlink:href="#rim" fill="#404040"><set attributeName="fill" to="#808080" begin="zoomplus.mouseover" end="zoomplus.mouseout"/></use>
    <path d="M-4,0h8M0,-4v8" fill="none" stroke="white" stroke-width="1.5" pointer-events="none"/>
  </g>
  <g id="zoomMin">
    <use xlink:href="#rim" fill="#404040"><set attributeName="fill" to="#808080" begin="zoomminus.mouseover" end="zoomminus.mouseout"/></use>
    <path d="M-4,0h8" fill="none" stroke="white" stroke-width="1.5" pointer-events="none"/>
  </g>
  <g id="arrowUp" transform="translate(30 24)">
    <use xlink:href="#rim"/>
    <path pointer-events="none" fill="none" stroke="white" stroke-width="1.5" d="M0,-3.0v7 M-2.5,-0.5L0,-3.0L2.5,-0.5"/>
  </g>
  <g id="arrowRight" transform="rotate(90) translate(36 -43)">
    <use xlink:href="#rim"/>
    <path pointer-events="none" fill="none" stroke="white" stroke-width="1.5" d="M0,-3.0v7 M-2.5,-0.5L0,-3.0L2.5,-0.5"/>
  </g>
  <g id="arrowDown" transform="rotate(180) translate(-30 -48)">
    <use xlink:href="#rim"/>
    <path pointer-events="none" fill="none" stroke="white" stroke-width="1.5" d="M0,-3.0v7 M-2.5,-0.5L0,-3.0L2.5,-0.5"/>
  </g>
  <g id="arrowLeft" transform="rotate(270) translate(-36 17)">
    <use xlink:href="#rim"/>
    <path pointer-events="none" fill="none" stroke="white" stroke-width="1.5" d="M0,-3.0v7 M-2.5,-0.5L0,-3.0L2.5,-0.5"/>
  </g>
  <g id="resetDef">
    <use xlink:href="#rim2" fill="#404040"><set attributeName="fill" to="#808080" begin="reset.mouseover" end="reset.mouseout"/></use>
  </g>
</defs>
<script type="application/ecmascript">
var viewWidth = 1106;
var viewHeight = 919;
var sectionId = 'dynsection-1';
</script>
<script type="application/ecmascript" xlink:href="svg.min.js"/>
<svg id="graph" class="graph">
<g id="viewport">
<title>core::multiplexer::poll::DescriptorEventPublisher</title>
<!-- Node1 -->
<g id="Node000001" class="node">
<title>Node1</title>
<g id="a_Node000001"><a xlink:title=" ">
<polygon fill="#999999" stroke="none" points="1001.5,-613.25 846.5,-613.25 846.5,-579.75 1001.5,-579.75 1001.5,-613.25"/>
<text xml:space="preserve" text-anchor="start" x="850.5" y="-599.75" font-family="Helvetica,sans-Serif" font-size="10.00">core::multiplexer::</text>
<text xml:space="preserve" text-anchor="start" x="850.5" y="-587" font-family="Helvetica,sans-Serif" font-size="10.00">poll::DescriptorEventPublisher</text>
<polygon fill="none" stroke="#666666" points="846.5,-579.75 846.5,-613.25 1001.5,-613.25 1001.5,-579.75 846.5,-579.75"/>
</a>
</g>
</g>
<!-- Node2 -->
<g id="Node000002" class="node">
<title>Node2</title>
<g id="a_Node000002"><a xlink:href="classcore_1_1DescriptorEventPublisher.html" target="_top" xlink:title=" ">
<polygon fill="white" stroke="none" points="634,-695.12 476,-695.12 476,-674.38 634,-674.38 634,-695.12"/>
<text xml:space="preserve" text-anchor="start" x="480" y="-681.62" font-family="Helvetica,sans-Serif" font-size="10.00">core::DescriptorEventPublisher</text>
<polygon fill="none" stroke="#666666" points="476,-674.38 476,-695.12 634,-695.12 634,-674.38 476,-674.38"/>
</a>
</g>
</g>
<!-- Node2&#45;&gt;Node1 -->
<g id="edge1_Node000001_Node000002" class="edge">
<title>Node2&#45;&gt;Node1</title>
<g id="a_edge1_Node000001_Node000002"><a xlink:title=" ">
<path fill="none" stroke="#63b8ff" d="M644.98,-681.78C700.15,-678.38 771.55,-670.03 832,-650 857.84,-641.44 884.55,-625.23 902.49,-613.08"/>
<polygon fill="none" stroke="#63b8ff" points="645.12,-678.26 635.33,-682.32 645.51,-685.25 645.12,-678.26"/>
</a>
</g>
</g>
<!-- Node5 -->
<g id="Node000005" class="node">
<title>Node5</title>
<g id="a_Node000005"><a xlink:href="classcore_1_1DescriptorEventReceiver.html" target="_top" xlink:title=" ">
<polygon fill="white" stroke="none" points="709.88,-258.62 554.12,-258.62 554.12,-237.88 709.88,-237.88 709.88,-258.62"/>
<text xml:space="preserve" text-anchor="start" x="558.12" y="-245.12" font-family="Helvetica,sans-Serif" font-size="10.00">core::DescriptorEventReceiver</text>
<polygon fill="none" stroke="#666666" points="554.12,-237.88 554.12,-258.62 709.88,-258.62 709.88,-237.88 554.12,-237.88"/>
</a>
</g>
</g>
<!-- Node2&#45;&gt;Node5 -->
<g id="edge27_Node000005_Node000002" class="edge">
<title>Node2&#45;&gt;Node5</title>
<g id="a_edge27_Node000005_Node000002"><a xlink:title=" ">
<path fill="none" stroke="#63b8ff" d="M572.09,-674.56C594.77,-660.97 632,-633.23 632,-597.5 632,-597.5 632,-597.5 632,-362.62 632,-330.82 632,-293.99 632,-271.15"/>
<polygon fill="none" stroke="#63b8ff" points="632,-271.26 628,-265.26 632,-259.26 636,-265.26 632,-271.26"/>
</a>
</g>
<text xml:space="preserve" text-anchor="start" x="635" y="-473.75" font-family="Helvetica,sans-Serif" font-size="10.00" fill="grey">&#45;descriptorEventPublisher</text>
</g>
<!-- Node12 -->
<g id="Node000012" class="node">
<title>Node12</title>
<g id="a_Node000012"><a xlink:title=" ">
<polygon fill="white" stroke="none" points="470.5,-613.25 327.5,-613.25 327.5,-579.75 470.5,-579.75 470.5,-613.25"/>
<text xml:space="preserve" text-anchor="start" x="331.5" y="-599.75" font-family="Helvetica,sans-Serif" font-size="10.00">std::array&lt; core::Descriptor</text>
<text xml:space="preserve" text-anchor="start" x="346.88" y="-587" font-family="Helvetica,sans-Serif" font-size="10.00">EventPublisher *, 3 &gt;</text>
<polygon fill="none" stroke="#666666" points="327.5,-579.75 327.5,-613.25 470.5,-613.25 470.5,-579.75 327.5,-579.75"/>
</a>
</g>
</g>
<!-- Node2&#45;&gt;Node12 -->
<g id="edge13_Node000012_Node000002" class="edge">
<title>Node2&#45;&gt;Node12</title>
<g id="a_edge13_Node000012_Node000002"><a xlink:title=" ">
<path fill="none" stroke="#63b8ff" d="M538.31,-674.52C514.71,-661.48 470.91,-637.26 438.7,-619.45"/>
<polygon fill="none" stroke="#63b8ff" points="438.71,-619.45 431.52,-620.05 428.2,-613.65 435.39,-613.05 438.71,-619.45"/>
</a>
</g>
<text xml:space="preserve" text-anchor="start" x="493.97" y="-637.5" font-family="Helvetica,sans-Serif" font-size="10.00" fill="grey">+elements</text>
</g>
<!-- Node3 -->
<g id="Node000003" class="node">
<title>Node3</title>
<g id="a_Node000003"><a xlink:title=" ">
<polygon fill="white" stroke="none" points="516.62,-52.62 371.38,-52.62 371.38,-6.38 516.62,-6.38 516.62,-52.62"/>
<text xml:space="preserve" text-anchor="start" x="375.38" y="-39.12" font-family="Helvetica,sans-Serif" font-size="10.00">std::map&lt; int, std</text>
<text xml:space="preserve" text-anchor="start" x="375.38" y="-26.38" font-family="Helvetica,sans-Serif" font-size="10.00">::list&lt; core::DescriptorEvent</text>
<text xml:space="preserve" text-anchor="start" x="407.25" y="-13.62" font-family="Helvetica,sans-Serif" font-size="10.00">Receiver * &gt; &gt;</text>
<polygon fill="none" stroke="#666666" points="371.38,-6.38 371.38,-52.62 516.62,-52.62 516.62,-6.38 371.38,-6.38"/>
</a>
</g>
</g>
<!-- Node3&#45;&gt;Node2 -->
<g id="edge2_Node000002_Node000003" class="edge">
<title>Node3&#45;&gt;Node2</title>
<g id="a_edge2_Node000002_Node000003"><a xlink:title=" ">
<path fill="none" stroke="#63b8ff" d="M434.26,-52.27C424.22,-71.83 406.57,-99.41 382,-112.5 318.16,-146.5 121.15,-97.08 57,-130.5 20.61,-149.46 0,-162.09 0,-203.12 0,-440.12 0,-440.12 0,-440.12 0,-639.97 305.43,-677.38 463.13,-683.38"/>
<polygon fill="none" stroke="#63b8ff" points="463.18,-683.38 469.31,-679.58 475.17,-683.78 469.04,-687.58 463.18,-683.38"/>
</a>
</g>
<text xml:space="preserve" text-anchor="start" x="3" y="-398.25" font-family="Helvetica,sans-Serif" font-size="10.00" fill="grey">#observedEventReceiverLists</text>
</g>
<!-- Node4 -->
<g id="Node000004" class="node">
<title>Node4</title>
<g id="a_Node000004"><a xlink:title=" ">
<polygon fill="white" stroke="none" points="790.25,-170.38 657.75,-170.38 657.75,-136.88 790.25,-136.88 790.25,-170.38"/>
<text xml:space="preserve" text-anchor="start" x="661.75" y="-156.88" font-family="Helvetica,sans-Serif" font-size="10.00">std::list&lt; core::Descriptor</text>
<text xml:space="preserve" text-anchor="start" x="679" y="-144.12" font-family="Helvetica,sans-Serif" font-size="10.00">EventReceiver * &gt;</text>
<polygon fill="none" stroke="#666666" points="657.75,-136.88 657.75,-170.38 790.25,-170.38 790.25,-136.88 657.75,-136.88"/>
</a>
</g>
</g>
<!-- Node4&#45;&gt;Node3 -->
<g id="edge3_Node000003_Node000004" class="edge">
<title>Node4&#45;&gt;Node3</title>
<g id="a_edge3_Node000003_Node000004"><a xlink:title=" ">
<path fill="none" stroke="#63b8ff" d="M687.97,-136.91C642.15,-116.92 562.28,-82.09 506.45,-57.74"/>
<polygon fill="none" stroke="#63b8ff" points="506.4,-57.72 499.3,-58.98 495.4,-52.92 502.5,-51.65 506.4,-57.72"/>
</a>
</g>
<text xml:space="preserve" text-anchor="start" x="628.44" y="-91.62" font-family="Helvetica,sans-Serif" font-size="10.00" fill="grey">+elements</text>
</g>
<!-- Node21 -->
<g id="Node000021" class="node">
<title>Node21</title>
<g id="a_Node000021"><a xlink:title=" ">
<polygon fill="white" stroke="none" points="859.5,-59 692.5,-59 692.5,0 859.5,0 859.5,-59"/>
<text xml:space="preserve" text-anchor="start" x="696.5" y="-45.5" font-family="Helvetica,sans-Serif" font-size="10.00">std::map&lt; std::list</text>
<text xml:space="preserve" text-anchor="start" x="696.5" y="-32.75" font-family="Helvetica,sans-Serif" font-size="10.00">&lt; core::DescriptorEventReceiver</text>
<text xml:space="preserve" text-anchor="start" x="696.5" y="-20" font-family="Helvetica,sans-Serif" font-size="10.00"> * &gt; *, std::list&lt; core::Descriptor</text>
<text xml:space="preserve" text-anchor="start" x="725.38" y="-7.25" font-family="Helvetica,sans-Serif" font-size="10.00">EventReceiver * &gt; &gt;</text>
<polygon fill="none" stroke="#666666" points="692.5,0 692.5,-59 859.5,-59 859.5,0 692.5,0"/>
</a>
</g>
</g>
<!-- Node4&#45;&gt;Node21 -->
<g id="edge31_Node000021_Node000004" class="edge">
<title>Node4&#45;&gt;Node21</title>
<g id="a_edge31_Node000021_Node000004"><a xlink:title=" ">
<path fill="none" stroke="#63b8ff" d="M726.5,-137.03C729.38,-121.35 734.93,-96.75 744,-77 745.1,-74.6 746.33,-72.19 747.64,-69.8"/>
<polygon fill="none" stroke="#63b8ff" points="747.58,-69.9 747.25,-62.7 753.77,-59.62 754.1,-66.83 747.58,-69.9"/>
</a>
</g>
<text xml:space="preserve" text-anchor="start" x="747" y="-100" font-family="Helvetica,sans-Serif" font-size="10.00" fill="grey">+elements</text>
<text xml:space="preserve" text-anchor="start" x="747" y="-83.25" font-family="Helvetica,sans-Serif" font-size="10.00" fill="grey">+keys</text>
</g>
<!-- Node5&#45;&gt;Node4 -->
<g id="edge4_Node000004_Node000005" class="edge">
<title>Node5&#45;&gt;Node4</title>
<g id="a_edge4_Node000004_Node000005"><a xlink:title=" ">
<path fill="none" stroke="#63b8ff" d="M641.16,-238.03C654.61,-224.49 680.2,-198.73 699.39,-179.4"/>
<polygon fill="none" stroke="#63b8ff" points="699.39,-179.4 700.78,-172.33 707.85,-170.89 706.46,-177.96 699.39,-179.4"/>
</a>
</g>
<text xml:space="preserve" text-anchor="start" x="686.51" y="-201" font-family="Helvetica,sans-Serif" font-size="10.00" fill="grey">+elements</text>
</g>
<!-- Node6 -->
<g id="Node000006" class="node">
<title>Node6</title>
<g id="a_Node000006"><a xlink:href="classcore_1_1Observer.html" target="_top" xlink:title=" ">
<polygon fill="white" stroke="none" points="739.62,-374 660.38,-374 660.38,-353.25 739.62,-353.25 739.62,-374"/>
<text xml:space="preserve" text-anchor="start" x="664.38" y="-360.5" font-family="Helvetica,sans-Serif" font-size="10.00">core::Observer</text>
<polygon fill="none" stroke="#666666" points="660.38,-353.25 660.38,-374 739.62,-374 739.62,-353.25 660.38,-353.25"/>
</a>
</g>
</g>
<!-- Node6&#45;&gt;Node5 -->
<g id="edge5_Node000005_Node000006" class="edge">
<title>Node6&#45;&gt;Node5</title>
<g id="a_edge5_Node000005_Node000006"><a xlink:title=" ">
<path fill="none" stroke="darkgreen" d="M688.63,-343.67C673.82,-318.98 648.52,-276.79 637.45,-258.34"/>
<polygon fill="none" stroke="darkgreen" points="685.51,-345.27 693.66,-352.05 691.51,-341.67 685.51,-345.27"/>
</a>
</g>
</g>
<!-- Node7 -->
<g id="Node000007" class="node">
<title>Node7</title>
<g id="a_Node000007"><a xlink:href="classcore_1_1EventReceiver.html" target="_top" xlink:title=" ">
<polygon fill="white" stroke="none" points="484.75,-374 379.25,-374 379.25,-353.25 484.75,-353.25 484.75,-374"/>
<text xml:space="preserve" text-anchor="start" x="383.25" y="-360.5" font-family="Helvetica,sans-Serif" font-size="10.00">core::EventReceiver</text>
<polygon fill="none" stroke="#666666" points="379.25,-353.25 379.25,-374 484.75,-374 484.75,-353.25 379.25,-353.25"/>
</a>
</g>
</g>
<!-- Node7&#45;&gt;Node5 -->
<g id="edge6_Node000005_Node000007" class="edge">
<title>Node7&#45;&gt;Node5</title>
<g id="a_edge6_Node000005_Node000007"><a xlink:title=" ">
<path fill="none" stroke="#63b8ff" d="M470.84,-348.64C478.31,-344.95 485.74,-340.5 492,-335.25 513.61,-317.13 505.39,-299.86 528,-283 543.6,-271.37 563.38,-263.64 581.49,-258.56"/>
<polygon fill="none" stroke="#63b8ff" points="469.44,-345.43 461.76,-352.73 472.32,-351.81 469.44,-345.43"/>
</a>
</g>
</g>
<!-- Node8 -->
<g id="Node000008" class="node">
<title>Node8</title>
<g id="a_Node000008"><a xlink:href="classcore_1_1Event.html" target="_top" xlink:title=" ">
<polygon fill="white" stroke="none" points="326.38,-449.5 263.62,-449.5 263.62,-428.75 326.38,-428.75 326.38,-449.5"/>
<text xml:space="preserve" text-anchor="start" x="267.62" y="-436" font-family="Helvetica,sans-Serif" font-size="10.00">core::Event</text>
<polygon fill="none" stroke="#666666" points="263.62,-428.75 263.62,-449.5 326.38,-449.5 326.38,-428.75 263.62,-428.75"/>
</a>
</g>
</g>
<!-- Node7&#45;&gt;Node8 -->
<g id="edge10_Node000008_Node000007" class="edge">
<title>Node7&#45;&gt;Node8</title>
<g id="a_edge10_Node000008_Node000007"><a xlink:title=" ">
<path fill="none" stroke="#63b8ff" d="M407.88,-373.98C397.26,-378.63 384.91,-384.81 374.75,-392 365.13,-398.81 365.7,-404.06 356,-410.75 348.96,-415.61 340.91,-419.94 333.03,-423.64"/>
<polygon fill="none" stroke="#63b8ff" points="333.15,-423.59 329.26,-429.66 322.16,-428.4 326.05,-422.33 333.15,-423.59"/>
</a>
</g>
<text xml:space="preserve" text-anchor="start" x="377.75" y="-398.25" font-family="Helvetica,sans-Serif" font-size="10.00" fill="grey">&#45;eventReceiver</text>
</g>
<!-- Node15 -->
<g id="Node000015" class="node">
<title>Node15</title>
<g id="a_Node000015"><a xlink:href="classcore_1_1TimerEventReceiver.html" target="_top" xlink:title=" ">
<polygon fill="white" stroke="none" points="428.62,-258.62 295.38,-258.62 295.38,-237.88 428.62,-237.88 428.62,-258.62"/>
<text xml:space="preserve" text-anchor="start" x="299.38" y="-245.12" font-family="Helvetica,sans-Serif" font-size="10.00">core::TimerEventReceiver</text>
<polygon fill="none" stroke="#666666" points="295.38,-237.88 295.38,-258.62 428.62,-258.62 428.62,-237.88 295.38,-237.88"/>
</a>
</g>
</g>
<!-- Node7&#45;&gt;Node15 -->
<g id="edge17_Node000015_Node000007" class="edge">
<title>Node7&#45;&gt;Node15</title>
<g id="a_edge17_Node000015_Node000007"><a xlink:title=" ">
<path fill="none" stroke="#63b8ff" d="M391.03,-347.86C385.67,-344.43 380.75,-340.27 377,-335.25 359.69,-312.05 359.86,-275.59 361.06,-258.58"/>
<polygon fill="none" stroke="#63b8ff" points="389.21,-350.85 399.67,-352.55 392.55,-344.7 389.21,-350.85"/>
</a>
</g>
</g>
<!-- Node8&#45;&gt;Node7 -->
<g id="edge7_Node000007_Node000008" class="edge">
<title>Node8&#45;&gt;Node7</title>
<g id="a_edge7_Node000007_Node000008"><a xlink:title=" ">
<path fill="none" stroke="#63b8ff" d="M326.05,-437.54C368.78,-435.99 442.3,-430.46 459,-410.75 466.15,-402.31 460.79,-391.74 453.02,-382.84"/>
<polygon fill="none" stroke="#63b8ff" points="452.95,-382.77 445.87,-381.41 444.41,-374.35 451.49,-375.71 452.95,-382.77"/>
</a>
</g>
<text xml:space="preserve" text-anchor="start" x="465.35" y="-398.25" font-family="Helvetica,sans-Serif" font-size="10.00" fill="grey">&#45;event</text>
</g>
<!-- Node20 -->
<g id="Node000020" class="node">
<title>Node20</title>
<g id="a_Node000020"><a xlink:title=" ">
<polygon fill="white" stroke="none" points="360.75,-374 231.25,-374 231.25,-353.25 360.75,-353.25 360.75,-374"/>
<text xml:space="preserve" text-anchor="start" x="235.25" y="-360.5" font-family="Helvetica,sans-Serif" font-size="10.00">std::list&lt; core::Event * &gt;</text>
<polygon fill="none" stroke="#666666" points="231.25,-353.25 231.25,-374 360.75,-374 360.75,-353.25 231.25,-353.25"/>
</a>
</g>
</g>
<!-- Node8&#45;&gt;Node20 -->
<g id="edge26_Node000020_Node000008" class="edge">
<title>Node8&#45;&gt;Node20</title>
<g id="a_edge26_Node000020_Node000008"><a xlink:title=" ">
<path fill="none" stroke="#63b8ff" d="M295.13,-428.82C295.27,-418.27 295.51,-400.7 295.7,-386.62"/>
<polygon fill="none" stroke="#63b8ff" points="295.7,-386.53 291.78,-380.47 295.87,-374.53 299.78,-380.58 295.7,-386.53"/>
</a>
</g>
<text xml:space="preserve" text-anchor="start" x="298.62" y="-398.25" font-family="Helvetica,sans-Serif" font-size="10.00" fill="grey">+elements</text>
</g>
<!-- Node9 -->
<g id="Node000009" class="node">
<title>Node9</title>
<g id="a_Node000009"><a xlink:title=" ">
<polygon fill="white" stroke="none" points="310.38,-808.88 253.62,-808.88 253.62,-788.12 310.38,-788.12 310.38,-808.88"/>
<text xml:space="preserve" text-anchor="start" x="257.62" y="-795.38" font-family="Helvetica,sans-Serif" font-size="10.00">std::string</text>
<polygon fill="none" stroke="#666666" points="253.62,-788.12 253.62,-808.88 310.38,-808.88 310.38,-788.12 253.62,-788.12"/>
</a>
</g>
</g>
<!-- Node9&#45;&gt;Node2 -->
<g id="edge29_Node000002_Node000009" class="edge">
<title>Node9&#45;&gt;Node2</title>
<g id="a_edge29_Node000002_Node000009"><a xlink:title=" ">
<path fill="none" stroke="#63b8ff" d="M304.81,-788.16C352.7,-768.56 463.98,-723.01 520.6,-699.83"/>
<polygon fill="none" stroke="#63b8ff" points="520.51,-699.87 524.55,-693.89 531.62,-695.32 527.58,-701.3 520.51,-699.87"/>
</a>
</g>
<text xml:space="preserve" text-anchor="start" x="469.7" y="-725.75" font-family="Helvetica,sans-Serif" font-size="10.00" fill="grey">&#45;name</text>
</g>
<!-- Node9&#45;&gt;Node8 -->
<g id="edge8_Node000008_Node000009" class="edge">
<title>Node9&#45;&gt;Node8</title>
<g id="a_edge8_Node000008_Node000009"><a xlink:title=" ">
<path fill="none" stroke="#63b8ff" d="M254.01,-797.82C187.4,-796.97 25,-784.76 25,-685.75 25,-685.75 25,-685.75 25,-513.62 25,-467.39 174.23,-449.28 250.81,-443.03"/>
<polygon fill="none" stroke="#63b8ff" points="250.9,-443.02 256.57,-438.57 262.87,-442.1 257.19,-446.55 250.9,-443.02"/>
</a>
</g>
<text xml:space="preserve" text-anchor="start" x="28" y="-593.38" font-family="Helvetica,sans-Serif" font-size="10.00" fill="grey">&#45;name</text>
</g>
<!-- Node10 -->
<g id="Node000010" class="node">
<title>Node10</title>
<g id="a_Node000010"><a xlink:title=" ">
<polygon fill="white" stroke="none" points="329.88,-911.25 234.12,-911.25 234.12,-877.75 329.88,-877.75 329.88,-911.25"/>
<text xml:space="preserve" text-anchor="start" x="238.12" y="-897.75" font-family="Helvetica,sans-Serif" font-size="10.00">std::basic_string&lt;</text>
<text xml:space="preserve" text-anchor="start" x="263.62" y="-885" font-family="Helvetica,sans-Serif" font-size="10.00"> Char &gt;</text>
<polygon fill="none" stroke="#666666" points="234.12,-877.75 234.12,-911.25 329.88,-911.25 329.88,-877.75 234.12,-877.75"/>
</a>
</g>
</g>
<!-- Node10&#45;&gt;Node9 -->
<g id="edge9_Node000009_Node000010" class="edge">
<title>Node10&#45;&gt;Node9</title>
<g id="a_edge9_Node000009_Node000010"><a xlink:title=" ">
<path fill="none" stroke="#63b8ff" d="M282,-866.48C282,-847.06 282,-822.05 282,-808.76"/>
<polygon fill="none" stroke="#63b8ff" points="278.5,-866.46 282,-876.46 285.5,-866.46 278.5,-866.46"/>
</a>
</g>
</g>
<!-- Node11 -->
<g id="Node000011" class="node">
<title>Node11</title>
<g id="a_Node000011"><a xlink:href="classcore_1_1EventMultiplexer.html" target="_top" xlink:title=" ">
<polygon fill="white" stroke="none" points="294.12,-525 175.88,-525 175.88,-504.25 294.12,-504.25 294.12,-525"/>
<text xml:space="preserve" text-anchor="start" x="179.88" y="-511.5" font-family="Helvetica,sans-Serif" font-size="10.00">core::EventMultiplexer</text>
<polygon fill="none" stroke="#666666" points="175.88,-504.25 175.88,-525 294.12,-525 294.12,-504.25 175.88,-504.25"/>
</a>
</g>
</g>
<!-- Node11&#45;&gt;Node8 -->
<g id="edge11_Node000008_Node000011" class="edge">
<title>Node11&#45;&gt;Node8</title>
<g id="a_edge11_Node000008_Node000011"><a xlink:title=" ">
<path fill="none" stroke="#63b8ff" d="M242.6,-504.32C251.85,-492.99 267.69,-473.58 279.54,-459.06"/>
<polygon fill="none" stroke="#63b8ff" points="279.49,-459.12 280.19,-451.95 287.08,-449.83 286.38,-457 279.49,-459.12"/>
</a>
</g>
<text xml:space="preserve" text-anchor="start" x="275.14" y="-473.75" font-family="Helvetica,sans-Serif" font-size="10.00" fill="grey">&#45;eventMultiplexer</text>
</g>
<!-- Node12&#45;&gt;Node11 -->
<g id="edge12_Node000011_Node000012" class="edge">
<title>Node12&#45;&gt;Node11</title>
<g id="a_edge12_Node000011_Node000012"><a xlink:title=" ">
<path fill="none" stroke="#63b8ff" d="M366.99,-579.91C337.63,-565.61 294.43,-544.57 265.54,-530.5"/>
<polygon fill="none" stroke="#63b8ff" points="265.72,-530.59 258.57,-531.55 254.93,-525.33 262.07,-524.36 265.72,-530.59"/>
</a>
</g>
<text xml:space="preserve" text-anchor="start" x="329.82" y="-549.25" font-family="Helvetica,sans-Serif" font-size="10.00" fill="grey">#descriptorEventPublishers</text>
</g>
<!-- Node13 -->
<g id="Node000013" class="node">
<title>Node13</title>
<g id="a_Node000013"><a xlink:href="classcore_1_1TimerEventPublisher.html" target="_top" xlink:title=" ">
<polygon fill="white" stroke="none" points="314.75,-39.88 179.25,-39.88 179.25,-19.12 314.75,-19.12 314.75,-39.88"/>
<text xml:space="preserve" text-anchor="start" x="183.25" y="-26.38" font-family="Helvetica,sans-Serif" font-size="10.00">core::TimerEventPublisher</text>
<polygon fill="none" stroke="#666666" points="179.25,-19.12 179.25,-39.88 314.75,-39.88 314.75,-19.12 179.25,-19.12"/>
</a>
</g>
</g>
<!-- Node13&#45;&gt;Node11 -->
<g id="edge14_Node000011_Node000013" class="edge">
<title>Node13&#45;&gt;Node11</title>
<g id="a_edge14_Node000011_Node000013"><a xlink:title=" ">
<path fill="none" stroke="#63b8ff" d="M202.85,-39.8C157.26,-52.01 88.5,-78.33 57,-130.5 8.88,-210.2 56.14,-253.81 101.25,-335.25 117.79,-365.11 131.9,-365.17 153,-392 179.93,-426.25 207.49,-469.05 222.81,-493.67"/>
<polygon fill="none" stroke="#63b8ff" points="222.69,-493.48 229.25,-496.49 228.99,-503.69 222.44,-500.68 222.69,-493.48"/>
</a>
</g>
<text xml:space="preserve" text-anchor="start" x="104.25" y="-306" font-family="Helvetica,sans-Serif" font-size="10.00" fill="grey">&#45;timerEventPublisher</text>
</g>
<!-- Node13&#45;&gt;Node15 -->
<g id="edge18_Node000015_Node000013" class="edge">
<title>Node13&#45;&gt;Node15</title>
<g id="a_edge18_Node000015_Node000013"><a xlink:title=" ">
<path fill="none" stroke="#63b8ff" d="M254.01,-39.87C260.77,-49.09 271.11,-63.68 279,-77 304.3,-119.71 299.76,-136.82 329.25,-176.75 336.11,-186.04 342.13,-184.8 348,-194.75 353.48,-204.03 356.85,-215.48 358.91,-225.32"/>
<polygon fill="none" stroke="#63b8ff" points="358.93,-225.41 363.87,-230.66 360.93,-237.24 355.99,-231.99 358.93,-225.41"/>
</a>
</g>
<text xml:space="preserve" text-anchor="start" x="332.25" y="-150.5" font-family="Helvetica,sans-Serif" font-size="10.00" fill="grey">&#45;timerEventPublisher</text>
</g>
<!-- Node14 -->
<g id="Node000014" class="node">
<title>Node14</title>
<g id="a_Node000014"><a xlink:title=" ">
<polygon fill="white" stroke="none" points="639.25,-176.75 446.75,-176.75 446.75,-130.5 639.25,-130.5 639.25,-176.75"/>
<text xml:space="preserve" text-anchor="start" x="450.75" y="-163.25" font-family="Helvetica,sans-Serif" font-size="10.00">std::set&lt; core::TimerEvent</text>
<text xml:space="preserve" text-anchor="start" x="450.75" y="-150.5" font-family="Helvetica,sans-Serif" font-size="10.00">Receiver *, core::TimerEventPublisher</text>
<text xml:space="preserve" text-anchor="start" x="503.25" y="-137.75" font-family="Helvetica,sans-Serif" font-size="10.00">::timernode_lt &gt;</text>
<polygon fill="none" stroke="#666666" points="446.75,-130.5 446.75,-176.75 639.25,-176.75 639.25,-130.5 446.75,-130.5"/>
</a>
</g>
</g>
<!-- Node14&#45;&gt;Node13 -->
<g id="edge15_Node000013_Node000014" class="edge">
<title>Node14&#45;&gt;Node13</title>
<g id="a_edge15_Node000013_Node000014"><a xlink:title=" ">
<path fill="none" stroke="#63b8ff" d="M489.4,-130.51C429.04,-105.61 332.73,-65.87 281.57,-44.76"/>
<polygon fill="none" stroke="#63b8ff" points="281.51,-44.74 274.44,-46.15 270.42,-40.16 277.49,-38.75 281.51,-44.74"/>
</a>
</g>
<text xml:space="preserve" text-anchor="start" x="441.81" y="-91.62" font-family="Helvetica,sans-Serif" font-size="10.00" fill="grey">&#45;timerList</text>
</g>
<!-- Node15&#45;&gt;Node14 -->
<g id="edge16_Node000014_Node000015" class="edge">
<title>Node15&#45;&gt;Node14</title>
<g id="a_edge16_Node000014_Node000015"><a xlink:title=" ">
<path fill="none" stroke="#63b8ff" d="M380.02,-238.03C405.03,-225.23 451.36,-201.52 488.25,-182.64"/>
<polygon fill="none" stroke="#63b8ff" points="488.37,-182.58 491.89,-176.29 499.05,-177.11 495.53,-183.41 488.37,-182.58"/>
</a>
</g>
<text xml:space="preserve" text-anchor="start" x="466.34" y="-201" font-family="Helvetica,sans-Serif" font-size="10.00" fill="grey">+keys</text>
</g>
<!-- Node16 -->
<g id="Node000016" class="node">
<title>Node16</title>
<g id="a_Node000016"><a xlink:href="classcore_1_1Timer.html" target="_top" xlink:title=" ">
<polygon fill="white" stroke="none" points="284.38,-164 221.62,-164 221.62,-143.25 284.38,-143.25 284.38,-164"/>
<text xml:space="preserve" text-anchor="start" x="225.62" y="-150.5" font-family="Helvetica,sans-Serif" font-size="10.00">core::Timer</text>
<polygon fill="none" stroke="#666666" points="221.62,-143.25 221.62,-164 284.38,-164 284.38,-143.25 221.62,-143.25"/>
</a>
</g>
</g>
<!-- Node15&#45;&gt;Node16 -->
<g id="edge20_Node000016_Node000015" class="edge">
<title>Node15&#45;&gt;Node16</title>
<g id="a_edge20_Node000016_Node000015"><a xlink:title=" ">
<path fill="none" stroke="#63b8ff" d="M314.48,-237.9C303.49,-235.77 291.84,-233.53 281,-231.5 258.92,-227.36 195.91,-230.75 181.5,-213.5 176.16,-207.1 177.29,-201.94 181.5,-194.75 181.83,-194.19 204.91,-181.29 224.76,-170.26"/>
<polygon fill="none" stroke="#63b8ff" points="224.89,-170.19 228.2,-163.78 235.39,-164.37 232.08,-170.78 224.89,-170.19"/>
</a>
</g>
<text xml:space="preserve" text-anchor="start" x="184.5" y="-201" font-family="Helvetica,sans-Serif" font-size="10.00" fill="grey">&#45;timerEventReceiver</text>
</g>
<!-- Node18 -->
<g id="Node000018" class="node">
<title>Node18</title>
<g id="a_Node000018"><a xlink:title=" ">
<polygon fill="white" stroke="none" points="203.88,-170.38 66.12,-170.38 66.12,-136.88 203.88,-136.88 203.88,-170.38"/>
<text xml:space="preserve" text-anchor="start" x="70.12" y="-156.88" font-family="Helvetica,sans-Serif" font-size="10.00">std::list&lt; core::TimerEvent</text>
<text xml:space="preserve" text-anchor="start" x="103.88" y="-144.12" font-family="Helvetica,sans-Serif" font-size="10.00">Receiver * &gt;</text>
<polygon fill="none" stroke="#666666" points="66.12,-136.88 66.12,-170.38 203.88,-170.38 203.88,-136.88 66.12,-136.88"/>
</a>
</g>
</g>
<!-- Node15&#45;&gt;Node18 -->
<g id="edge23_Node000018_Node000015" class="edge">
<title>Node15&#45;&gt;Node18</title>
<g id="a_edge23_Node000018_Node000015"><a xlink:title=" ">
<path fill="none" stroke="#63b8ff" d="M317.55,-237.91C305.71,-235.61 292.9,-233.29 281,-231.5 244.09,-225.93 138.94,-241.27 114,-213.5 105.93,-204.51 108.85,-192.21 114.73,-181.17"/>
<polygon fill="none" stroke="#63b8ff" points="114.69,-181.22 114.52,-174.01 121.1,-171.08 121.28,-178.29 114.69,-181.22"/>
</a>
</g>
<text xml:space="preserve" text-anchor="start" x="117" y="-201" font-family="Helvetica,sans-Serif" font-size="10.00" fill="grey">+elements</text>
</g>
<!-- Node16&#45;&gt;Node15 -->
<g id="edge19_Node000015_Node000016" class="edge">
<title>Node16&#45;&gt;Node15</title>
<g id="a_edge19_Node000015_Node000016"><a xlink:title=" ">
<path fill="none" stroke="#63b8ff" d="M261.3,-163.95C272.29,-176.05 292.57,-197.49 312,-213.5 319.39,-219.58 327.87,-225.63 335.73,-230.88"/>
<polygon fill="none" stroke="#63b8ff" points="335.76,-230.9 342.97,-230.81 345.83,-237.43 338.62,-237.52 335.76,-230.9"/>
</a>
</g>
<text xml:space="preserve" text-anchor="start" x="315" y="-201" font-family="Helvetica,sans-Serif" font-size="10.00" fill="grey">&#45;timer</text>
</g>
<!-- Node17 -->
<g id="Node000017" class="node">
<title>Node17</title>
<g id="a_Node000017"><a xlink:href="classutils_1_1Timeval.html" target="_top" xlink:title=" ">
<polygon fill="white" stroke="none" points="577,-374 503,-374 503,-353.25 577,-353.25 577,-374"/>
<text xml:space="preserve" text-anchor="start" x="507" y="-360.5" font-family="Helvetica,sans-Serif" font-size="10.00">utils::Timeval</text>
<polygon fill="none" stroke="#666666" points="503,-353.25 503,-374 577,-374 577,-353.25 503,-353.25"/>
</a>
</g>
</g>
<!-- Node17&#45;&gt;Node5 -->
<g id="edge28_Node000005_Node000017" class="edge">
<title>Node17&#45;&gt;Node5</title>
<g id="a_edge28_Node000005_Node000017"><a xlink:title=" ">
<path fill="none" stroke="#63b8ff" d="M536.97,-353.26C532.4,-337.24 525.8,-304.26 540.75,-283 546.56,-274.74 554.63,-268.5 563.59,-263.79"/>
<polygon fill="none" stroke="#63b8ff" points="563.51,-263.82 567.37,-257.73 574.48,-258.95 570.62,-265.04 563.51,-263.82"/>
</a>
</g>
<text xml:space="preserve" text-anchor="start" x="543.75" y="-322.75" font-family="Helvetica,sans-Serif" font-size="10.00" fill="grey">&#45;initialTimeout</text>
<text xml:space="preserve" text-anchor="start" x="543.75" y="-306" font-family="Helvetica,sans-Serif" font-size="10.00" fill="grey">&#45;lastTriggered</text>
<text xml:space="preserve" text-anchor="start" x="543.75" y="-289.25" font-family="Helvetica,sans-Serif" font-size="10.00" fill="grey">&#45;maxInactivity</text>
</g>
<!-- Node17&#45;&gt;Node15 -->
<g id="edge21_Node000015_Node000017" class="edge">
<title>Node17&#45;&gt;Node15</title>
<g id="a_edge21_Node000015_Node000017"><a xlink:title=" ">
<path fill="none" stroke="#63b8ff" d="M503.1,-355.27C478.1,-349.84 447.66,-342.21 436.5,-335.25 409.57,-318.45 387.1,-288.87 374.1,-269.16"/>
<polygon fill="none" stroke="#63b8ff" points="374.17,-269.27 367.58,-266.34 367.75,-259.13 374.34,-262.06 374.17,-269.27"/>
</a>
</g>
<text xml:space="preserve" text-anchor="start" x="439.5" y="-314.38" font-family="Helvetica,sans-Serif" font-size="10.00" fill="grey">&#45;absoluteTimeout</text>
<text xml:space="preserve" text-anchor="start" x="439.5" y="-297.62" font-family="Helvetica,sans-Serif" font-size="10.00" fill="grey">&#45;delay</text>
</g>
<!-- Node18&#45;&gt;Node13 -->
<g id="edge22_Node000013_Node000018" class="edge">
<title>Node18&#45;&gt;Node13</title>
<g id="a_edge22_Node000013_Node000018"><a xlink:title=" ">
<path fill="none" stroke="#63b8ff" d="M149.18,-137.16C169.8,-114.68 207.97,-73.06 230.04,-48.99"/>
<polygon fill="none" stroke="#63b8ff" points="229.95,-49.09 231.06,-41.96 238.06,-40.25 236.96,-47.37 229.95,-49.09"/>
</a>
</g>
<text xml:space="preserve" text-anchor="start" x="207.33" y="-91.62" font-family="Helvetica,sans-Serif" font-size="10.00" fill="grey">&#45;removedList</text>
</g>
<!-- Node19 -->
<g id="Node000019" class="node">
<title>Node19</title>
<g id="a_Node000019"><a xlink:href="classcore_1_1EventMultiplexer_1_1EventQueue.html" target="_top" xlink:title=" ">
<polygon fill="white" stroke="none" points="272.12,-265 153.88,-265 153.88,-231.5 272.12,-231.5 272.12,-265"/>
<text xml:space="preserve" text-anchor="start" x="157.88" y="-251.5" font-family="Helvetica,sans-Serif" font-size="10.00">core::EventMultiplexer</text>
<text xml:space="preserve" text-anchor="start" x="180.38" y="-238.75" font-family="Helvetica,sans-Serif" font-size="10.00">::EventQueue</text>
<polygon fill="none" stroke="#666666" points="153.88,-231.5 153.88,-265 272.12,-265 272.12,-231.5 153.88,-231.5"/>
</a>
</g>
</g>
<!-- Node19&#45;&gt;Node11 -->
<g id="edge24_Node000011_Node000019" class="edge">
<title>Node19&#45;&gt;Node11</title>
<g id="a_edge24_Node000011_Node000019"><a xlink:title=" ">
<path fill="none" stroke="#63b8ff" d="M213.51,-264.87C214.52,-293.72 217.14,-357.33 222,-410.75 224.54,-438.73 228.82,-470.83 231.77,-491.62"/>
<polygon fill="none" stroke="#63b8ff" points="231.75,-491.52 236.57,-496.88 233.47,-503.4 228.65,-498.03 231.75,-491.52"/>
</a>
</g>
<text xml:space="preserve" text-anchor="start" x="225" y="-398.25" font-family="Helvetica,sans-Serif" font-size="10.00" fill="grey">&#45;eventQueue</text>
</g>
<!-- Node20&#45;&gt;Node19 -->
<g id="edge25_Node000019_Node000020" class="edge">
<title>Node20&#45;&gt;Node19</title>
<g id="a_edge25_Node000019_Node000020"><a xlink:title=" ">
<path fill="none" stroke="#63b8ff" d="M289.21,-353.35C276.8,-336.39 250.05,-299.86 231.79,-274.92"/>
<polygon fill="none" stroke="#63b8ff" points="231.93,-275.11 225.16,-272.63 224.85,-265.43 231.62,-267.91 231.93,-275.11"/>
</a>
</g>
<text xml:space="preserve" text-anchor="start" x="278.94" y="-314.38" font-family="Helvetica,sans-Serif" font-size="10.00" fill="grey">&#45;executeQueue</text>
<text xml:space="preserve" text-anchor="start" x="278.94" y="-297.62" font-family="Helvetica,sans-Serif" font-size="10.00" fill="grey">&#45;publishQueue</text>
</g>
<!-- Node21&#45;&gt;Node2 -->
<g id="edge30_Node000002_Node000021" class="edge">
<title>Node21&#45;&gt;Node2</title>
<g id="a_edge30_Node000002_Node000021"><a xlink:title=" ">
<path fill="none" stroke="#63b8ff" d="M795.3,-58.95C798.6,-64.74 801.69,-70.92 804,-77 816.12,-108.96 818,-118.44 818,-152.62 818,-597.5 818,-597.5 818,-597.5 818,-635.62 716.97,-659.62 640.15,-672.36"/>
<polygon fill="none" stroke="#63b8ff" points="640.3,-672.33 635.01,-677.24 628.45,-674.24 633.74,-669.34 640.3,-672.33"/>
</a>
</g>
<text xml:space="preserve" text-anchor="start" x="821" y="-398.25" font-family="Helvetica,sans-Serif" font-size="10.00" fill="grey">&#45;dirtyEventReceiverLists</text>
</g>
<!-- Node22 -->
<g id="Node000022" class="node">
<title>Node22</title>
<g id="a_Node000022"><a xlink:href="classcore_1_1multiplexer_1_1poll_1_1PollFdsManager.html" target="_top" xlink:title=" ">
<polygon fill="white" stroke="none" points="979,-701.5 869,-701.5 869,-668 979,-668 979,-701.5"/>
<text xml:space="preserve" text-anchor="start" x="873" y="-688" font-family="Helvetica,sans-Serif" font-size="10.00">core::multiplexer::</text>
<text xml:space="preserve" text-anchor="start" x="873" y="-675.25" font-family="Helvetica,sans-Serif" font-size="10.00">poll::PollFdsManager</text>
<polygon fill="none" stroke="#666666" points="869,-668 869,-701.5 979,-701.5 979,-668 869,-668"/>
</a>
</g>
</g>
<!-- Node22&#45;&gt;Node1 -->
<g id="edge32_Node000001_Node000022" class="edge">
<title>Node22&#45;&gt;Node1</title>
<g id="a_edge32_Node000001_Node000022"><a xlink:title=" ">
<path fill="none" stroke="#63b8ff" d="M924,-668.33C924,-656.63 924,-640.21 924,-626.12"/>
<polygon fill="none" stroke="#63b8ff" points="924,-625.98 920,-619.98 924,-613.98 928,-619.98 924,-625.98"/>
</a>
</g>
<text xml:space="preserve" text-anchor="start" x="927" y="-637.5" font-family="Helvetica,sans-Serif" font-size="10.00" fill="grey">&#45;pollFds</text>
</g>
<!-- Node23 -->
<g id="Node000023" class="node">
<title>Node23</title>
<g id="a_Node000023"><a xlink:title=" ">
<polygon fill="white" stroke="none" points="897.88,-821.62 784.12,-821.62 784.12,-775.38 897.88,-775.38 897.88,-821.62"/>
<text xml:space="preserve" text-anchor="start" x="788.12" y="-808.12" font-family="Helvetica,sans-Serif" font-size="10.00">std::vector&lt; pollfd,</text>
<text xml:space="preserve" text-anchor="start" x="788.12" y="-795.38" font-family="Helvetica,sans-Serif" font-size="10.00"> VarSizeTypeAllocator</text>
<text xml:space="preserve" text-anchor="start" x="792.25" y="-782.62" font-family="Helvetica,sans-Serif" font-size="10.00">&lt; pollfd, nfds_t &gt; &gt;</text>
<polygon fill="none" stroke="#666666" points="784.12,-775.38 784.12,-821.62 897.88,-821.62 897.88,-775.38 784.12,-775.38"/>
</a>
</g>
</g>
<!-- Node23&#45;&gt;Node22 -->
<g id="edge33_Node000022_Node000023" class="edge">
<title>Node23&#45;&gt;Node22</title>
<g id="a_edge33_Node000022_Node000023"><a xlink:title=" ">
<path fill="none" stroke="#63b8ff" d="M857.4,-775.42C871.05,-757.05 890.5,-730.86 904.86,-711.52"/>
<polygon fill="none" stroke="#63b8ff" points="904.75,-711.67 905.12,-704.47 911.91,-702.03 911.54,-709.24 904.75,-711.67"/>
</a>
</g>
<text xml:space="preserve" text-anchor="start" x="900.15" y="-725.75" font-family="Helvetica,sans-Serif" font-size="10.00" fill="grey">&#45;pollfds</text>
</g>
<!-- Node24 -->
<g id="Node000024" class="node">
<title>Node24</title>
<g id="a_Node000024"><a xlink:title=" ">
<polygon fill="white" stroke="none" points="1097.62,-840.75 916.38,-840.75 916.38,-756.25 1097.62,-756.25 1097.62,-840.75"/>
<text xml:space="preserve" text-anchor="start" x="920.38" y="-827.25" font-family="Helvetica,sans-Serif" font-size="10.00">std::unordered_map</text>
<text xml:space="preserve" text-anchor="start" x="920.38" y="-814.5" font-family="Helvetica,sans-Serif" font-size="10.00">&lt; int, PollFdIndex,</text>
<text xml:space="preserve" text-anchor="start" x="920.38" y="-801.75" font-family="Helvetica,sans-Serif" font-size="10.00"> std::hash&lt; int &gt;, std</text>
<text xml:space="preserve" text-anchor="start" x="920.38" y="-789" font-family="Helvetica,sans-Serif" font-size="10.00">::equal_to&lt;&gt;, VarSizeTypeAllocator</text>
<text xml:space="preserve" text-anchor="start" x="920.38" y="-776.25" font-family="Helvetica,sans-Serif" font-size="10.00">&lt; std::pair&lt; const int, PollFdIndex</text>
<text xml:space="preserve" text-anchor="start" x="972.12" y="-763.5" font-family="Helvetica,sans-Serif" font-size="10.00"> &gt;, nfds_t &gt; &gt;</text>
<polygon fill="none" stroke="#666666" points="916.38,-756.25 916.38,-840.75 1097.62,-840.75 1097.62,-756.25 916.38,-756.25"/>
</a>
</g>
</g>
<!-- Node24&#45;&gt;Node22 -->
<g id="edge34_Node000022_Node000024" class="edge">
<title>Node24&#45;&gt;Node22</title>
<g id="a_edge34_Node000022_Node000024"><a xlink:title=" ">
<path fill="none" stroke="#63b8ff" d="M976.57,-756.52C965.43,-741.53 953.15,-725 943.26,-711.69"/>
<polygon fill="none" stroke="#63b8ff" points="943.29,-711.72 936.5,-709.29 936.14,-702.09 942.92,-704.52 943.29,-711.72"/>
</a>
</g>
<text xml:space="preserve" text-anchor="start" x="963.53" y="-725.75" font-family="Helvetica,sans-Serif" font-size="10.00" fill="grey">&#45;pollFdIndices</text>
</g>
</g>
</svg>

<g id="navigator" transform="translate(0 0)" fill="#404254">
  <rect fill="#f2f5e9" fill-opacity="0.5" stroke="#606060" stroke-width=".5" x="0" y="0" width="60" height="60"/>
  <use id="zoomplus" xlink:href="#zoomPlus" x="17" y="9" onmousedown="handleZoom(evt,'in')"/>
  <use id="zoomminus" xlink:href="#zoomMin" x="42" y="9" onmousedown="handleZoom(evt,'out')"/>
  <use id="reset" xlink:href="#resetDef" x="30" y="36" onmousedown="handleReset()"/>
   <use id="arrowup" xlink:href="#arrowUp" x="0" y="0" onmousedown="handlePan(0,-1)"/>
  <use id="arrowright" xlink:href="#arrowRight" x="0" y="0" onmousedown="handlePan(1,0)"/>
  <use id="arrowdown" xlink:href="#arrowDown" x="0" y="0" onmousedown="handlePan(0,1)"/>
  <use id="arrowleft" xlink:href="#arrowLeft" x="0" y="0" onmousedown="handlePan(-1,0)"/>
</g>
<svg viewBox="0 0 15 15" width="100%" height="30px" preserveAspectRatio="xMaxYMin meet">
 <g id="arrow_out" transform="scale(0.3 0.3)">
  <a xlink:href="classcore_1_1multiplexer_1_1poll_1_1DescriptorEventPublisher__coll__graph_org.svg" target="_base">
   <rect id="button" ry="5" rx="5" y="6" x="6" height="38" width="38"
        fill="#f2f5e9" fill-opacity="0.5" stroke="#606060" stroke-width="1.0"/>
   <path id="arrow"
     d="M 11.500037,31.436501 C 11.940474,20.09759 22.043105,11.32322 32.158766,21.979434 L 37.068811,17.246167 C 37.068811,17.246167 37.088388,32 37.088388,32 L 22.160133,31.978069 C 22.160133,31.978069 26.997745,27.140456 26.997745,27.140456 C 18.528582,18.264221 13.291696,25.230495 11.500037,31.436501 z"
     style="fill:#404040;"/>
  </a>
 </g>
</svg>

<style type='text/css'>
<![CDATA[
[data-mouse-over-selected='false'] { opacity: 0.7; }
[data-mouse-over-selected='true']  { opacity: 1.0; }
]]>
</style>
<script type="application/ecmascript"><![CDATA[
document.addEventListener('DOMContentLoaded', (event) => {
  highlightEdges();
  highlightAdjacentNodes();
});
]]></script>
</svg>
