<?xml version="1.0" encoding="UTF-8" standalone="no"?>
<!DOCTYPE svg PUBLIC "-//W3C//DTD SVG 1.1//EN"
 "http://www.w3.org/Graphics/SVG/1.1/DTD/svg11.dtd">
<!-- Generated by graphviz version 14.1.2 (0)
 -->
<!-- Title: core::DescriptorEventPublisher Pages: 1 -->
<!--zoomable 843 -->

<svg id="main" version="1.1" xmlns="http://www.w3.org/2000/svg" xmlns:xlink="http://www.w3.org/1999/xlink" xml:space="preserve" onload="init(evt)">

<style type="text/css"><![CDATA[
.node, .edge {opacity: 0.7;}
.node.selected, .edge.selected {opacity: 1;}
.edge:hover path { stroke: red; }
.edge:hover polygon { stroke: red; fill: red; }
]]></style>

<defs>
  <circle id="rim" cx="0" cy="0" r="7"/>
  <circle id="rim2" cx="0" cy="0" r="3.5"/>
  <g id="zoomPlus">
    <use xlink:href="#rim" fill="#404040"><set attributeName="fill" to="#808080" begin="zoomplus.mouseover" end="zoomplus.mouseout"/></use>
    <path d="M-4,0h8M0,-4v8" fill="none" stroke="white" stroke-width="1.5" pointer-events="none"/>
  </g>
  <g id="zoomMin">
    <use xlink:href="#rim" fill="#404040"><set attributeName="fill" to="#808080" begin="zoomminus.mouseover" end="zoomminus.mouseout"/></use>
    <path d="M-4,0h8" fill="none" stroke="white" stroke-width="1.5" pointer-events="none"/>
  </g>
  <g id="arrowUp" transform="translate(30 24)">
    <use xlink:href="#rim"/>
    <path pointer-events="none" fill="none" stroke="white" stroke-width="1.5" d="M0,-3.0v7 M-2.5,-0.5L0,-3.0L2.5,-0.5"/>
  </g>
  <g id="arrowRight" transform="rotate(90) translate(36 -43)">
    <use xlink:href="#rim"/>
    <path pointer-events="none" fill="none" stroke="white" stroke-width="1.5" d="M0,-3.0v7 M-2.5,-0.5L0,-3.0L2.5,-0.5"/>
  </g>
  <g id="arrowDown" transform="rotate(180) translate(-30 -48)">
    <use xlink:href="#rim"/>
    <path pointer-events="none" fill="none" stroke="white" stroke-width="1.5" d="M0,-3.0v7 M-2.5,-0.5L0,-3.0L2.5,-0.5"/>
  </g>
  <g id="arrowLeft" transform="rotate(270) translate(-36 17)">
    <use xlink:href="#rim"/>
    <path pointer-events="none" fill="none" stroke="white" stroke-width="1.5" d="M0,-3.0v7 M-2.5,-0.5L0,-3.0L2.5,-0.5"/>
  </g>
  <g id="resetDef">
    <use xlink:href="#rim2" fill="#404040"><set attributeName="fill" to="#808080" begin="reset.mouseover" end="reset.mouseout"/></use>
  </g>
</defs>
<script type="application/ecmascript">
var viewWidth = 951;
var viewHeight = 843;
var sectionId = 'dynsection-1';
</script>
<script type="application/ecmascript" xlink:href="svg.min.js"/>
<svg id="graph" class="graph">
<g id="viewport">
<title>core::DescriptorEventPublisher</title>
<!-- Node1 -->
<g id="Node000001" class="node">
<title>Node1</title>
<g id="a_Node000001"><a xlink:title=" ">
<polygon fill="#999999" stroke="none" points="726,-688.75 568,-688.75 568,-668 726,-668 726,-688.75"/>
<text xml:space="preserve" text-anchor="start" x="572" y="-675.25" font-family="Helvetica,sans-Serif" font-size="10.00">core::DescriptorEventPublisher</text>
<polygon fill="none" stroke="#666666" points="568,-668 568,-688.75 726,-688.75 726,-668 568,-668"/>
</a>
</g>
</g>
<!-- Node4 -->
<g id="Node000004" class="node">
<title>Node4</title>
<g id="a_Node000004"><a xlink:href="classcore_1_1DescriptorEventReceiver.html" target="_top" xlink:title=" ">
<polygon fill="white" stroke="none" points="724.88,-258.62 569.12,-258.62 569.12,-237.88 724.88,-237.88 724.88,-258.62"/>
<text xml:space="preserve" text-anchor="start" x="573.12" y="-245.12" font-family="Helvetica,sans-Serif" font-size="10.00">core::DescriptorEventReceiver</text>
<polygon fill="none" stroke="#666666" points="569.12,-237.88 569.12,-258.62 724.88,-258.62 724.88,-237.88 569.12,-237.88"/>
</a>
</g>
</g>
<!-- Node1&#45;&gt;Node4 -->
<g id="edge26_Node000004_Node000001" class="edge">
<title>Node1&#45;&gt;Node4</title>
<g id="a_edge26_Node000004_Node000001"><a xlink:title=" ">
<path fill="none" stroke="#63b8ff" d="M647,-668.03C647,-653.12 647,-623.02 647,-597.5 647,-597.5 647,-597.5 647,-362.62 647,-330.82 647,-293.99 647,-271.15"/>
<polygon fill="none" stroke="#63b8ff" points="647,-271.26 643,-265.26 647,-259.26 651,-265.26 647,-271.26"/>
</a>
</g>
<text xml:space="preserve" text-anchor="start" x="650" y="-473.75" font-family="Helvetica,sans-Serif" font-size="10.00" fill="grey">&#45;descriptorEventPublisher</text>
</g>
<!-- Node11 -->
<g id="Node000011" class="node">
<title>Node11</title>
<g id="a_Node000011"><a xlink:title=" ">
<polygon fill="white" stroke="none" points="569.5,-613.25 426.5,-613.25 426.5,-579.75 569.5,-579.75 569.5,-613.25"/>
<text xml:space="preserve" text-anchor="start" x="430.5" y="-599.75" font-family="Helvetica,sans-Serif" font-size="10.00">std::array&lt; core::Descriptor</text>
<text xml:space="preserve" text-anchor="start" x="445.88" y="-587" font-family="Helvetica,sans-Serif" font-size="10.00">EventPublisher *, 3 &gt;</text>
<polygon fill="none" stroke="#666666" points="426.5,-579.75 426.5,-613.25 569.5,-613.25 569.5,-579.75 426.5,-579.75"/>
</a>
</g>
</g>
<!-- Node1&#45;&gt;Node11 -->
<g id="edge12_Node000011_Node000001" class="edge">
<title>Node1&#45;&gt;Node11</title>
<g id="a_edge12_Node000011_Node000001"><a xlink:title=" ">
<path fill="none" stroke="#63b8ff" d="M616.36,-668.02C602.74,-663.36 586.71,-657.18 573,-650 557.22,-641.74 540.89,-630.65 527.51,-620.79"/>
<polygon fill="none" stroke="#63b8ff" points="527.78,-621 520.58,-620.58 518.2,-613.77 525.4,-614.19 527.78,-621"/>
</a>
</g>
<text xml:space="preserve" text-anchor="start" x="576" y="-637.5" font-family="Helvetica,sans-Serif" font-size="10.00" fill="grey">+elements</text>
</g>
<!-- Node2 -->
<g id="Node000002" class="node">
<title>Node2</title>
<g id="a_Node000002"><a xlink:title=" ">
<polygon fill="white" stroke="none" points="637.62,-52.62 492.38,-52.62 492.38,-6.38 637.62,-6.38 637.62,-52.62"/>
<text xml:space="preserve" text-anchor="start" x="496.38" y="-39.12" font-family="Helvetica,sans-Serif" font-size="10.00">std::map&lt; int, std</text>
<text xml:space="preserve" text-anchor="start" x="496.38" y="-26.38" font-family="Helvetica,sans-Serif" font-size="10.00">::list&lt; core::DescriptorEvent</text>
<text xml:space="preserve" text-anchor="start" x="528.25" y="-13.62" font-family="Helvetica,sans-Serif" font-size="10.00">Receiver * &gt; &gt;</text>
<polygon fill="none" stroke="#666666" points="492.38,-6.38 492.38,-52.62 637.62,-52.62 637.62,-6.38 492.38,-6.38"/>
</a>
</g>
</g>
<!-- Node2&#45;&gt;Node1 -->
<g id="edge1_Node000001_Node000002" class="edge">
<title>Node2&#45;&gt;Node1</title>
<g id="a_edge1_Node000001_Node000002"><a xlink:title=" ">
<path fill="none" stroke="#63b8ff" d="M549.68,-52.49C534.53,-72.2 509.4,-99.9 480,-112.5 393.53,-149.57 140.71,-87.56 57,-130.5 20.49,-149.23 0,-162.09 0,-203.12 0,-597.5 0,-597.5 0,-597.5 0,-652.78 376.79,-670.2 555.29,-675.36"/>
<polygon fill="none" stroke="#63b8ff" points="555.42,-675.36 561.53,-671.53 567.41,-675.7 561.3,-679.53 555.42,-675.36"/>
</a>
</g>
<text xml:space="preserve" text-anchor="start" x="3" y="-398.25" font-family="Helvetica,sans-Serif" font-size="10.00" fill="grey">#observedEventReceiverLists</text>
</g>
<!-- Node3 -->
<g id="Node000003" class="node">
<title>Node3</title>
<g id="a_Node000003"><a xlink:title=" ">
<polygon fill="white" stroke="none" points="790.25,-170.38 657.75,-170.38 657.75,-136.88 790.25,-136.88 790.25,-170.38"/>
<text xml:space="preserve" text-anchor="start" x="661.75" y="-156.88" font-family="Helvetica,sans-Serif" font-size="10.00">std::list&lt; core::Descriptor</text>
<text xml:space="preserve" text-anchor="start" x="679" y="-144.12" font-family="Helvetica,sans-Serif" font-size="10.00">EventReceiver * &gt;</text>
<polygon fill="none" stroke="#666666" points="657.75,-136.88 657.75,-170.38 790.25,-170.38 790.25,-136.88 657.75,-136.88"/>
</a>
</g>
</g>
<!-- Node3&#45;&gt;Node2 -->
<g id="edge2_Node000002_Node000003" class="edge">
<title>Node3&#45;&gt;Node2</title>
<g id="a_edge2_Node000002_Node000003"><a xlink:title=" ">
<path fill="none" stroke="#63b8ff" d="M702.62,-136.92C692.67,-129.56 680.68,-120.64 670,-112.5 647.7,-95.51 622.98,-76.22 603.12,-60.63"/>
<polygon fill="none" stroke="#63b8ff" points="603.07,-60.59 595.89,-60.02 593.64,-53.17 600.83,-53.73 603.07,-60.59"/>
</a>
</g>
<text xml:space="preserve" text-anchor="start" x="673" y="-91.62" font-family="Helvetica,sans-Serif" font-size="10.00" fill="grey">+elements</text>
</g>
<!-- Node20 -->
<g id="Node000020" class="node">
<title>Node20</title>
<g id="a_Node000020"><a xlink:title=" ">
<polygon fill="white" stroke="none" points="841.5,-59 674.5,-59 674.5,0 841.5,0 841.5,-59"/>
<text xml:space="preserve" text-anchor="start" x="678.5" y="-45.5" font-family="Helvetica,sans-Serif" font-size="10.00">std::map&lt; std::list</text>
<text xml:space="preserve" text-anchor="start" x="678.5" y="-32.75" font-family="Helvetica,sans-Serif" font-size="10.00">&lt; core::DescriptorEventReceiver</text>
<text xml:space="preserve" text-anchor="start" x="678.5" y="-20" font-family="Helvetica,sans-Serif" font-size="10.00"> * &gt; *, std::list&lt; core::Descriptor</text>
<text xml:space="preserve" text-anchor="start" x="707.38" y="-7.25" font-family="Helvetica,sans-Serif" font-size="10.00">EventReceiver * &gt; &gt;</text>
<polygon fill="none" stroke="#666666" points="674.5,0 674.5,-59 841.5,-59 841.5,0 674.5,0"/>
</a>
</g>
</g>
<!-- Node3&#45;&gt;Node20 -->
<g id="edge30_Node000020_Node000003" class="edge">
<title>Node3&#45;&gt;Node20</title>
<g id="a_edge30_Node000020_Node000003"><a xlink:title=" ">
<path fill="none" stroke="#63b8ff" d="M727.98,-136.94C731.91,-121.62 738.16,-97.65 744,-77 744.52,-75.17 745.05,-73.31 745.59,-71.43"/>
<polygon fill="none" stroke="#63b8ff" points="745.61,-71.36 743.47,-64.47 749,-59.85 751.15,-66.73 745.61,-71.36"/>
</a>
</g>
<text xml:space="preserve" text-anchor="start" x="747" y="-100" font-family="Helvetica,sans-Serif" font-size="10.00" fill="grey">+elements</text>
<text xml:space="preserve" text-anchor="start" x="747" y="-83.25" font-family="Helvetica,sans-Serif" font-size="10.00" fill="grey">+keys</text>
</g>
<!-- Node4&#45;&gt;Node3 -->
<g id="edge3_Node000003_Node000004" class="edge">
<title>Node4&#45;&gt;Node3</title>
<g id="a_edge3_Node000003_Node000004"><a xlink:title=" ">
<path fill="none" stroke="#63b8ff" d="M654.66,-238.03C665.77,-224.67 686.75,-199.43 702.74,-180.2"/>
<polygon fill="none" stroke="#63b8ff" points="702.76,-180.17 703.52,-173 710.44,-170.94 709.68,-178.11 702.76,-180.17"/>
</a>
</g>
<text xml:space="preserve" text-anchor="start" x="693.11" y="-201" font-family="Helvetica,sans-Serif" font-size="10.00" fill="grey">+elements</text>
</g>
<!-- Node5 -->
<g id="Node000005" class="node">
<title>Node5</title>
<g id="a_Node000005"><a xlink:href="classcore_1_1Observer.html" target="_top" xlink:title=" ">
<polygon fill="white" stroke="none" points="754.62,-374 675.38,-374 675.38,-353.25 754.62,-353.25 754.62,-374"/>
<text xml:space="preserve" text-anchor="start" x="679.38" y="-360.5" font-family="Helvetica,sans-Serif" font-size="10.00">core::Observer</text>
<polygon fill="none" stroke="#666666" points="675.38,-353.25 675.38,-374 754.62,-374 754.62,-353.25 675.38,-353.25"/>
</a>
</g>
</g>
<!-- Node5&#45;&gt;Node4 -->
<g id="edge4_Node000004_Node000005" class="edge">
<title>Node5&#45;&gt;Node4</title>
<g id="a_edge4_Node000004_Node000005"><a xlink:title=" ">
<path fill="none" stroke="darkgreen" d="M703.63,-343.67C688.82,-318.98 663.52,-276.79 652.45,-258.34"/>
<polygon fill="none" stroke="darkgreen" points="700.51,-345.27 708.66,-352.05 706.51,-341.67 700.51,-345.27"/>
</a>
</g>
</g>
<!-- Node6 -->
<g id="Node000006" class="node">
<title>Node6</title>
<g id="a_Node000006"><a xlink:href="classcore_1_1EventReceiver.html" target="_top" xlink:title=" ">
<polygon fill="white" stroke="none" points="618.75,-374 513.25,-374 513.25,-353.25 618.75,-353.25 618.75,-374"/>
<text xml:space="preserve" text-anchor="start" x="517.25" y="-360.5" font-family="Helvetica,sans-Serif" font-size="10.00">core::EventReceiver</text>
<polygon fill="none" stroke="#666666" points="513.25,-353.25 513.25,-374 618.75,-374 618.75,-353.25 513.25,-353.25"/>
</a>
</g>
</g>
<!-- Node6&#45;&gt;Node4 -->
<g id="edge5_Node000004_Node000006" class="edge">
<title>Node6&#45;&gt;Node4</title>
<g id="a_edge5_Node000004_Node000006"><a xlink:title=" ">
<path fill="none" stroke="#63b8ff" d="M594.39,-347.32C599.34,-343.81 604.13,-339.76 608,-335.25 618.57,-322.94 636.12,-278.22 643.53,-258.6"/>
<polygon fill="none" stroke="#63b8ff" points="592.7,-344.25 586.16,-352.59 596.47,-350.15 592.7,-344.25"/>
</a>
</g>
</g>
<!-- Node7 -->
<g id="Node000007" class="node">
<title>Node7</title>
<g id="a_Node000007"><a xlink:href="classcore_1_1Event.html" target="_top" xlink:title=" ">
<polygon fill="white" stroke="none" points="494.38,-449.5 431.62,-449.5 431.62,-428.75 494.38,-428.75 494.38,-449.5"/>
<text xml:space="preserve" text-anchor="start" x="435.62" y="-436" font-family="Helvetica,sans-Serif" font-size="10.00">core::Event</text>
<polygon fill="none" stroke="#666666" points="431.62,-428.75 431.62,-449.5 494.38,-449.5 494.38,-428.75 431.62,-428.75"/>
</a>
</g>
</g>
<!-- Node6&#45;&gt;Node7 -->
<g id="edge9_Node000007_Node000006" class="edge">
<title>Node6&#45;&gt;Node7</title>
<g id="a_edge9_Node000007_Node000006"><a xlink:title=" ">
<path fill="none" stroke="#63b8ff" d="M518.97,-373.98C492.37,-379.75 463.64,-386.97 459.75,-392 454.46,-398.83 454.19,-408.07 455.66,-416.49"/>
<polygon fill="none" stroke="#63b8ff" points="455.66,-416.49 461.09,-421.23 458.81,-428.07 453.38,-423.33 455.66,-416.49"/>
</a>
</g>
<text xml:space="preserve" text-anchor="start" x="462.75" y="-398.25" font-family="Helvetica,sans-Serif" font-size="10.00" fill="grey">&#45;eventReceiver</text>
</g>
<!-- Node14 -->
<g id="Node000014" class="node">
<title>Node14</title>
<g id="a_Node000014"><a xlink:href="classcore_1_1TimerEventReceiver.html" target="_top" xlink:title=" ">
<polygon fill="white" stroke="none" points="456.62,-258.62 323.38,-258.62 323.38,-237.88 456.62,-237.88 456.62,-258.62"/>
<text xml:space="preserve" text-anchor="start" x="327.38" y="-245.12" font-family="Helvetica,sans-Serif" font-size="10.00">core::TimerEventReceiver</text>
<polygon fill="none" stroke="#666666" points="323.38,-237.88 323.38,-258.62 456.62,-258.62 456.62,-237.88 323.38,-237.88"/>
</a>
</g>
</g>
<!-- Node6&#45;&gt;Node14 -->
<g id="edge16_Node000014_Node000006" class="edge">
<title>Node6&#45;&gt;Node14</title>
<g id="a_edge16_Node000014_Node000006"><a xlink:title=" ">
<path fill="none" stroke="#63b8ff" d="M529.07,-348.23C522.57,-344.63 516.22,-340.32 511,-335.25 492.09,-316.9 502.92,-300.24 483,-283 469.62,-271.42 451.96,-263.7 435.62,-258.6"/>
<polygon fill="none" stroke="#63b8ff" points="527.41,-351.31 537.92,-352.63 530.52,-345.04 527.41,-351.31"/>
</a>
</g>
</g>
<!-- Node7&#45;&gt;Node6 -->
<g id="edge6_Node000006_Node000007" class="edge">
<title>Node7&#45;&gt;Node6</title>
<g id="a_edge6_Node000006_Node000007"><a xlink:title=" ">
<path fill="none" stroke="#63b8ff" d="M494.02,-433.63C510.48,-429.88 530.12,-423.07 544,-410.75 551.4,-404.18 556.53,-394.58 559.96,-385.83"/>
<polygon fill="none" stroke="#63b8ff" points="559.91,-385.98 557.99,-379.03 563.66,-374.58 565.59,-381.53 559.91,-385.98"/>
</a>
</g>
<text xml:space="preserve" text-anchor="start" x="559.86" y="-398.25" font-family="Helvetica,sans-Serif" font-size="10.00" fill="grey">&#45;event</text>
</g>
<!-- Node19 -->
<g id="Node000019" class="node">
<title>Node19</title>
<g id="a_Node000019"><a xlink:title=" ">
<polygon fill="white" stroke="none" points="402.75,-374 273.25,-374 273.25,-353.25 402.75,-353.25 402.75,-374"/>
<text xml:space="preserve" text-anchor="start" x="277.25" y="-360.5" font-family="Helvetica,sans-Serif" font-size="10.00">std::list&lt; core::Event * &gt;</text>
<polygon fill="none" stroke="#666666" points="273.25,-353.25 273.25,-374 402.75,-374 402.75,-353.25 273.25,-353.25"/>
</a>
</g>
</g>
<!-- Node7&#45;&gt;Node19 -->
<g id="edge25_Node000019_Node000007" class="edge">
<title>Node7&#45;&gt;Node19</title>
<g id="a_edge25_Node000019_Node000007"><a xlink:title=" ">
<path fill="none" stroke="#63b8ff" d="M431.77,-428.95C418.69,-424.43 403.62,-418.31 391,-410.75 378.11,-403.03 365.35,-392.05 355.58,-382.75"/>
<polygon fill="none" stroke="#63b8ff" points="355.77,-382.94 348.7,-381.56 347.25,-374.49 354.32,-375.87 355.77,-382.94"/>
</a>
</g>
<text xml:space="preserve" text-anchor="start" x="394" y="-398.25" font-family="Helvetica,sans-Serif" font-size="10.00" fill="grey">+elements</text>
</g>
<!-- Node8 -->
<g id="Node000008" class="node">
<title>Node8</title>
<g id="a_Node000008"><a xlink:title=" ">
<polygon fill="white" stroke="none" points="784.38,-764.25 727.62,-764.25 727.62,-743.5 784.38,-743.5 784.38,-764.25"/>
<text xml:space="preserve" text-anchor="start" x="731.62" y="-750.75" font-family="Helvetica,sans-Serif" font-size="10.00">std::string</text>
<polygon fill="none" stroke="#666666" points="727.62,-743.5 727.62,-764.25 784.38,-764.25 784.38,-743.5 727.62,-743.5"/>
</a>
</g>
</g>
<!-- Node8&#45;&gt;Node1 -->
<g id="edge28_Node000001_Node000008" class="edge">
<title>Node8&#45;&gt;Node1</title>
<g id="a_edge28_Node000001_Node000008"><a xlink:title=" ">
<path fill="none" stroke="#63b8ff" d="M742.2,-743.57C724.42,-731.58 693.24,-710.55 671.42,-695.84"/>
<polygon fill="none" stroke="#63b8ff" points="671.39,-695.82 664.18,-695.78 661.44,-689.11 668.65,-689.15 671.39,-695.82"/>
</a>
</g>
<text xml:space="preserve" text-anchor="start" x="717.47" y="-713" font-family="Helvetica,sans-Serif" font-size="10.00" fill="grey">&#45;name</text>
</g>
<!-- Node8&#45;&gt;Node7 -->
<g id="edge7_Node000007_Node000008" class="edge">
<title>Node8&#45;&gt;Node7</title>
<g id="a_edge7_Node000007_Node000008"><a xlink:title=" ">
<path fill="none" stroke="#63b8ff" d="M764.21,-743.65C775.11,-730.41 793,-704.8 793,-679.38 793,-679.38 793,-679.38 793,-513.62 793,-492.2 795.64,-480.99 779,-467.5 758.34,-450.75 588.81,-443.69 506.94,-441.23"/>
<polygon fill="none" stroke="#63b8ff" points="507.01,-441.24 500.9,-445.06 495.02,-440.89 501.13,-437.07 507.01,-441.24"/>
</a>
</g>
<text xml:space="preserve" text-anchor="start" x="796" y="-593.38" font-family="Helvetica,sans-Serif" font-size="10.00" fill="grey">&#45;name</text>
</g>
<!-- Node9 -->
<g id="Node000009" class="node">
<title>Node9</title>
<g id="a_Node000009"><a xlink:title=" ">
<polygon fill="white" stroke="none" points="803.88,-834.75 708.12,-834.75 708.12,-801.25 803.88,-801.25 803.88,-834.75"/>
<text xml:space="preserve" text-anchor="start" x="712.12" y="-821.25" font-family="Helvetica,sans-Serif" font-size="10.00">std::basic_string&lt;</text>
<text xml:space="preserve" text-anchor="start" x="737.62" y="-808.5" font-family="Helvetica,sans-Serif" font-size="10.00"> Char &gt;</text>
<polygon fill="none" stroke="#666666" points="708.12,-801.25 708.12,-834.75 803.88,-834.75 803.88,-801.25 708.12,-801.25"/>
</a>
</g>
</g>
<!-- Node9&#45;&gt;Node8 -->
<g id="edge8_Node000008_Node000009" class="edge">
<title>Node9&#45;&gt;Node8</title>
<g id="a_edge8_Node000008_Node000009"><a xlink:title=" ">
<path fill="none" stroke="#63b8ff" d="M756,-790.04C756,-780.71 756,-770.88 756,-763.99"/>
<polygon fill="none" stroke="#63b8ff" points="752.5,-789.81 756,-799.81 759.5,-789.81 752.5,-789.81"/>
</a>
</g>
</g>
<!-- Node10 -->
<g id="Node000010" class="node">
<title>Node10</title>
<g id="a_Node000010"><a xlink:href="classcore_1_1EventMultiplexer.html" target="_top" xlink:title=" ">
<polygon fill="white" stroke="none" points="413.12,-525 294.88,-525 294.88,-504.25 413.12,-504.25 413.12,-525"/>
<text xml:space="preserve" text-anchor="start" x="298.88" y="-511.5" font-family="Helvetica,sans-Serif" font-size="10.00">core::EventMultiplexer</text>
<polygon fill="none" stroke="#666666" points="294.88,-504.25 294.88,-525 413.12,-525 413.12,-504.25 294.88,-504.25"/>
</a>
</g>
</g>
<!-- Node10&#45;&gt;Node7 -->
<g id="edge10_Node000007_Node000010" class="edge">
<title>Node10&#45;&gt;Node7</title>
<g id="a_edge10_Node000007_Node000010"><a xlink:title=" ">
<path fill="none" stroke="#63b8ff" d="M367.8,-504.32C385.58,-492.33 416.76,-471.3 438.58,-456.59"/>
<polygon fill="none" stroke="#63b8ff" points="438.61,-456.57 441.35,-449.9 448.56,-449.86 445.82,-456.53 438.61,-456.57"/>
</a>
</g>
<text xml:space="preserve" text-anchor="start" x="424.47" y="-473.75" font-family="Helvetica,sans-Serif" font-size="10.00" fill="grey">&#45;eventMultiplexer</text>
</g>
<!-- Node11&#45;&gt;Node10 -->
<g id="edge11_Node000010_Node000011" class="edge">
<title>Node11&#45;&gt;Node10</title>
<g id="a_edge11_Node000010_Node000011"><a xlink:title=" ">
<path fill="none" stroke="#63b8ff" d="M469.89,-579.91C444.57,-565.86 407.54,-545.32 382.19,-531.26"/>
<polygon fill="none" stroke="#63b8ff" points="382.07,-531.19 374.88,-531.78 371.58,-525.37 378.76,-524.79 382.07,-531.19"/>
</a>
</g>
<text xml:space="preserve" text-anchor="start" x="437.62" y="-549.25" font-family="Helvetica,sans-Serif" font-size="10.00" fill="grey">#descriptorEventPublishers</text>
</g>
<!-- Node12 -->
<g id="Node000012" class="node">
<title>Node12</title>
<g id="a_Node000012"><a xlink:href="classcore_1_1TimerEventPublisher.html" target="_top" xlink:title=" ">
<polygon fill="white" stroke="none" points="435.75,-39.88 300.25,-39.88 300.25,-19.12 435.75,-19.12 435.75,-39.88"/>
<text xml:space="preserve" text-anchor="start" x="304.25" y="-26.38" font-family="Helvetica,sans-Serif" font-size="10.00">core::TimerEventPublisher</text>
<polygon fill="none" stroke="#666666" points="300.25,-19.12 300.25,-39.88 435.75,-39.88 435.75,-19.12 300.25,-19.12"/>
</a>
</g>
</g>
<!-- Node12&#45;&gt;Node10 -->
<g id="edge13_Node000010_Node000012" class="edge">
<title>Node12&#45;&gt;Node10</title>
<g id="a_edge13_Node000010_Node000012"><a xlink:title=" ">
<path fill="none" stroke="#63b8ff" d="M300.27,-30.68C226.76,-34.96 112.46,-54.42 57,-130.5 -49.27,-276.3 230.71,-446.58 324.57,-498.1"/>
<polygon fill="none" stroke="#63b8ff" points="324.69,-498.16 331.87,-497.5 335.24,-503.87 328.06,-504.53 324.69,-498.16"/>
</a>
</g>
<text xml:space="preserve" text-anchor="start" x="103.06" y="-306" font-family="Helvetica,sans-Serif" font-size="10.00" fill="grey">&#45;timerEventPublisher</text>
</g>
<!-- Node12&#45;&gt;Node14 -->
<g id="edge17_Node000014_Node000012" class="edge">
<title>Node12&#45;&gt;Node14</title>
<g id="a_edge17_Node000014_Node000012"><a xlink:title=" ">
<path fill="none" stroke="#63b8ff" d="M410.05,-39.82C433.11,-46.77 460.83,-58.36 480,-77 498.69,-95.17 498.55,-105.02 504,-130.5 511.79,-166.89 518.97,-186.85 493,-213.5 484.47,-222.25 473.64,-228.74 462.23,-233.54"/>
<polygon fill="none" stroke="#63b8ff" points="462.3,-233.51 458.05,-239.33 451.04,-237.65 455.29,-231.82 462.3,-233.51"/>
</a>
</g>
<text xml:space="preserve" text-anchor="start" x="514.2" y="-150.5" font-family="Helvetica,sans-Serif" font-size="10.00" fill="grey">&#45;timerEventPublisher</text>
</g>
<!-- Node13 -->
<g id="Node000013" class="node">
<title>Node13</title>
<g id="a_Node000013"><a xlink:title=" ">
<polygon fill="white" stroke="none" points="258.25,-176.75 65.75,-176.75 65.75,-130.5 258.25,-130.5 258.25,-176.75"/>
<text xml:space="preserve" text-anchor="start" x="69.75" y="-163.25" font-family="Helvetica,sans-Serif" font-size="10.00">std::set&lt; core::TimerEvent</text>
<text xml:space="preserve" text-anchor="start" x="69.75" y="-150.5" font-family="Helvetica,sans-Serif" font-size="10.00">Receiver *, core::TimerEventPublisher</text>
<text xml:space="preserve" text-anchor="start" x="122.25" y="-137.75" font-family="Helvetica,sans-Serif" font-size="10.00">::timernode_lt &gt;</text>
<polygon fill="none" stroke="#666666" points="65.75,-130.5 65.75,-176.75 258.25,-176.75 258.25,-130.5 65.75,-130.5"/>
</a>
</g>
</g>
<!-- Node13&#45;&gt;Node12 -->
<g id="edge14_Node000012_Node000013" class="edge">
<title>Node13&#45;&gt;Node12</title>
<g id="a_edge14_Node000012_Node000013"><a xlink:title=" ">
<path fill="none" stroke="#63b8ff" d="M199.31,-130.51C240.35,-106.18 305.27,-67.69 341.44,-46.24"/>
<polygon fill="none" stroke="#63b8ff" points="341.43,-46.25 344.55,-39.75 351.75,-40.13 348.63,-46.63 341.43,-46.25"/>
</a>
</g>
<text xml:space="preserve" text-anchor="start" x="292.51" y="-91.62" font-family="Helvetica,sans-Serif" font-size="10.00" fill="grey">&#45;timerList</text>
</g>
<!-- Node14&#45;&gt;Node13 -->
<g id="edge15_Node000013_Node000014" class="edge">
<title>Node14&#45;&gt;Node13</title>
<g id="a_edge15_Node000013_Node000014"><a xlink:title=" ">
<path fill="none" stroke="#63b8ff" d="M345.83,-237.9C335.4,-235.74 324.32,-233.5 314,-231.5 269.77,-222.93 253.53,-235.56 214.25,-213.5 202.58,-206.94 192.19,-196.78 183.81,-186.74"/>
<polygon fill="none" stroke="#63b8ff" points="183.74,-186.66 176.9,-184.37 176.38,-177.18 183.22,-179.46 183.74,-186.66"/>
</a>
</g>
<text xml:space="preserve" text-anchor="start" x="217.25" y="-201" font-family="Helvetica,sans-Serif" font-size="10.00" fill="grey">+keys</text>
</g>
<!-- Node15 -->
<g id="Node000015" class="node">
<title>Node15</title>
<g id="a_Node000015"><a xlink:href="classcore_1_1Timer.html" target="_top" xlink:title=" ">
<polygon fill="white" stroke="none" points="339.38,-164 276.62,-164 276.62,-143.25 339.38,-143.25 339.38,-164"/>
<text xml:space="preserve" text-anchor="start" x="280.62" y="-150.5" font-family="Helvetica,sans-Serif" font-size="10.00">core::Timer</text>
<polygon fill="none" stroke="#666666" points="276.62,-143.25 276.62,-164 339.38,-164 339.38,-143.25 276.62,-143.25"/>
</a>
</g>
</g>
<!-- Node14&#45;&gt;Node15 -->
<g id="edge19_Node000015_Node000014" class="edge">
<title>Node14&#45;&gt;Node15</title>
<g id="a_edge19_Node000015_Node000014"><a xlink:title=" ">
<path fill="none" stroke="#63b8ff" d="M349.88,-238C336.6,-232.94 323.05,-225.22 314.5,-213.5 306.92,-203.1 305.19,-188.81 305.41,-176.9"/>
<polygon fill="none" stroke="#63b8ff" points="305.42,-176.86 301.88,-170.58 306.32,-164.9 309.86,-171.18 305.42,-176.86"/>
</a>
</g>
<text xml:space="preserve" text-anchor="start" x="317.5" y="-201" font-family="Helvetica,sans-Serif" font-size="10.00" fill="grey">&#45;timerEventReceiver</text>
</g>
<!-- Node17 -->
<g id="Node000017" class="node">
<title>Node17</title>
<g id="a_Node000017"><a xlink:title=" ">
<polygon fill="white" stroke="none" points="494.88,-170.38 357.12,-170.38 357.12,-136.88 494.88,-136.88 494.88,-170.38"/>
<text xml:space="preserve" text-anchor="start" x="361.12" y="-156.88" font-family="Helvetica,sans-Serif" font-size="10.00">std::list&lt; core::TimerEvent</text>
<text xml:space="preserve" text-anchor="start" x="394.88" y="-144.12" font-family="Helvetica,sans-Serif" font-size="10.00">Receiver * &gt;</text>
<polygon fill="none" stroke="#666666" points="357.12,-136.88 357.12,-170.38 494.88,-170.38 494.88,-136.88 357.12,-136.88"/>
</a>
</g>
</g>
<!-- Node14&#45;&gt;Node17 -->
<g id="edge22_Node000017_Node000014" class="edge">
<title>Node14&#45;&gt;Node17</title>
<g id="a_edge22_Node000017_Node000014"><a xlink:title=" ">
<path fill="none" stroke="#63b8ff" d="M403.91,-238.08C411.67,-232.11 420.62,-223.56 425,-213.5 429.09,-204.09 430.13,-193.01 429.88,-183.01"/>
<polygon fill="none" stroke="#63b8ff" points="429.89,-183.18 425.44,-177.5 428.97,-171.21 433.42,-176.89 429.89,-183.18"/>
</a>
</g>
<text xml:space="preserve" text-anchor="start" x="432.49" y="-201" font-family="Helvetica,sans-Serif" font-size="10.00" fill="grey">+elements</text>
</g>
<!-- Node15&#45;&gt;Node14 -->
<g id="edge18_Node000014_Node000015" class="edge">
<title>Node15&#45;&gt;Node14</title>
<g id="a_edge18_Node000014_Node000015"><a xlink:title=" ">
<path fill="none" stroke="#63b8ff" d="M290.77,-163.84C271.61,-175.3 245.07,-195.53 259,-213.5 261.54,-216.78 301.11,-226.7 336.1,-234.95"/>
<polygon fill="none" stroke="#63b8ff" points="336.15,-234.96 342.9,-232.43 347.83,-237.69 341.08,-240.22 336.15,-234.96"/>
</a>
</g>
<text xml:space="preserve" text-anchor="start" x="262" y="-201" font-family="Helvetica,sans-Serif" font-size="10.00" fill="grey">&#45;timer</text>
</g>
<!-- Node16 -->
<g id="Node000016" class="node">
<title>Node16</title>
<g id="a_Node000016"><a xlink:href="classutils_1_1Timeval.html" target="_top" xlink:title=" ">
<polygon fill="white" stroke="none" points="495,-374 421,-374 421,-353.25 495,-353.25 495,-374"/>
<text xml:space="preserve" text-anchor="start" x="425" y="-360.5" font-family="Helvetica,sans-Serif" font-size="10.00">utils::Timeval</text>
<polygon fill="none" stroke="#666666" points="421,-353.25 421,-374 495,-374 495,-353.25 421,-353.25"/>
</a>
</g>
</g>
<!-- Node16&#45;&gt;Node4 -->
<g id="edge27_Node000004_Node000016" class="edge">
<title>Node16&#45;&gt;Node4</title>
<g id="a_edge27_Node000004_Node000016"><a xlink:title=" ">
<path fill="none" stroke="#63b8ff" d="M468.6,-353.39C474.28,-348.26 481.26,-341.63 487,-335.25 506.51,-313.55 502.62,-299.4 526.75,-283 540.47,-273.67 556.73,-266.91 572.78,-262.01"/>
<polygon fill="none" stroke="#63b8ff" points="572.54,-262.07 577.25,-256.61 584.1,-258.85 579.4,-264.31 572.54,-262.07"/>
</a>
</g>
<text xml:space="preserve" text-anchor="start" x="529.75" y="-322.75" font-family="Helvetica,sans-Serif" font-size="10.00" fill="grey">&#45;initialTimeout</text>
<text xml:space="preserve" text-anchor="start" x="529.75" y="-306" font-family="Helvetica,sans-Serif" font-size="10.00" fill="grey">&#45;lastTriggered</text>
<text xml:space="preserve" text-anchor="start" x="529.75" y="-289.25" font-family="Helvetica,sans-Serif" font-size="10.00" fill="grey">&#45;maxInactivity</text>
</g>
<!-- Node16&#45;&gt;Node14 -->
<g id="edge20_Node000014_Node000016" class="edge">
<title>Node16&#45;&gt;Node14</title>
<g id="a_edge20_Node000014_Node000016"><a xlink:title=" ">
<path fill="none" stroke="#63b8ff" d="M421.16,-355.76C409.76,-351.74 398.4,-345.36 391.5,-335.25 378.75,-316.57 380.56,-289.89 384.17,-271.22"/>
<polygon fill="none" stroke="#63b8ff" points="384.2,-271.08 381.67,-264.32 386.93,-259.39 389.46,-266.14 384.2,-271.08"/>
</a>
</g>
<text xml:space="preserve" text-anchor="start" x="394.5" y="-314.38" font-family="Helvetica,sans-Serif" font-size="10.00" fill="grey">&#45;absoluteTimeout</text>
<text xml:space="preserve" text-anchor="start" x="394.5" y="-297.62" font-family="Helvetica,sans-Serif" font-size="10.00" fill="grey">&#45;delay</text>
</g>
<!-- Node17&#45;&gt;Node12 -->
<g id="edge21_Node000012_Node000017" class="edge">
<title>Node17&#45;&gt;Node12</title>
<g id="a_edge21_Node000012_Node000017"><a xlink:title=" ">
<path fill="none" stroke="#63b8ff" d="M418.65,-137.16C408.32,-115.39 389.44,-75.65 377.88,-51.31"/>
<polygon fill="none" stroke="#63b8ff" points="377.85,-51.23 371.66,-47.53 372.7,-40.4 378.89,-44.1 377.85,-51.23"/>
</a>
</g>
<text xml:space="preserve" text-anchor="start" x="408.58" y="-91.62" font-family="Helvetica,sans-Serif" font-size="10.00" fill="grey">&#45;removedList</text>
</g>
<!-- Node18 -->
<g id="Node000018" class="node">
<title>Node18</title>
<g id="a_Node000018"><a xlink:href="classcore_1_1EventMultiplexer_1_1EventQueue.html" target="_top" xlink:title=" ">
<polygon fill="white" stroke="none" points="305.12,-265 186.88,-265 186.88,-231.5 305.12,-231.5 305.12,-265"/>
<text xml:space="preserve" text-anchor="start" x="190.88" y="-251.5" font-family="Helvetica,sans-Serif" font-size="10.00">core::EventMultiplexer</text>
<text xml:space="preserve" text-anchor="start" x="213.38" y="-238.75" font-family="Helvetica,sans-Serif" font-size="10.00">::EventQueue</text>
<polygon fill="none" stroke="#666666" points="186.88,-231.5 186.88,-265 305.12,-265 305.12,-231.5 186.88,-231.5"/>
</a>
</g>
</g>
<!-- Node18&#45;&gt;Node10 -->
<g id="edge23_Node000010_Node000018" class="edge">
<title>Node18&#45;&gt;Node10</title>
<g id="a_edge23_Node000010_Node000018"><a xlink:title=" ">
<path fill="none" stroke="#63b8ff" d="M246.13,-264.75C246.8,-288.86 249.97,-336.49 264,-374 281.6,-421.06 316.93,-468.73 337.7,-494.39"/>
<polygon fill="none" stroke="#63b8ff" points="337.64,-494.32 344.55,-496.39 345.29,-503.57 338.38,-501.49 337.64,-494.32"/>
</a>
</g>
<text xml:space="preserve" text-anchor="start" x="283.76" y="-398.25" font-family="Helvetica,sans-Serif" font-size="10.00" fill="grey">&#45;eventQueue</text>
</g>
<!-- Node19&#45;&gt;Node18 -->
<g id="edge24_Node000018_Node000019" class="edge">
<title>Node19&#45;&gt;Node18</title>
<g id="a_edge24_Node000018_Node000019"><a xlink:title=" ">
<path fill="none" stroke="#63b8ff" d="M321.1,-353.41C313.38,-348.66 304.49,-342.37 297.75,-335.25 281.31,-317.87 267.62,-294.39 258.45,-276.36"/>
<polygon fill="none" stroke="#63b8ff" points="258.51,-276.48 252.29,-272.84 253.25,-265.69 259.48,-269.33 258.51,-276.48"/>
</a>
</g>
<text xml:space="preserve" text-anchor="start" x="300.75" y="-314.38" font-family="Helvetica,sans-Serif" font-size="10.00" fill="grey">&#45;executeQueue</text>
<text xml:space="preserve" text-anchor="start" x="300.75" y="-297.62" font-family="Helvetica,sans-Serif" font-size="10.00" fill="grey">&#45;publishQueue</text>
</g>
<!-- Node20&#45;&gt;Node1 -->
<g id="edge29_Node000001_Node000020" class="edge">
<title>Node20&#45;&gt;Node1</title>
<g id="a_edge29_Node000001_Node000020"><a xlink:title=" ">
<path fill="none" stroke="#63b8ff" d="M791.13,-58.86C796.08,-64.43 800.63,-70.56 804,-77 819.83,-107.3 818,-118.44 818,-152.62 818,-440.12 818,-440.12 818,-440.12 818,-539.33 718.39,-625.31 671.22,-660.46"/>
<polygon fill="none" stroke="#63b8ff" points="671.14,-660.51 668.64,-667.28 661.43,-667.57 663.94,-660.8 671.14,-660.51"/>
</a>
</g>
<text xml:space="preserve" text-anchor="start" x="821" y="-398.25" font-family="Helvetica,sans-Serif" font-size="10.00" fill="grey">&#45;dirtyEventReceiverLists</text>
</g>
</g>
</svg>

<g id="navigator" transform="translate(0 0)" fill="#404254">
  <rect fill="#f2f5e9" fill-opacity="0.5" stroke="#606060" stroke-width=".5" x="0" y="0" width="60" height="60"/>
  <use id="zoomplus" xlink:href="#zoomPlus" x="17" y="9" onmousedown="handleZoom(evt,'in')"/>
  <use id="zoomminus" xlink:href="#zoomMin" x="42" y="9" onmousedown="handleZoom(evt,'out')"/>
  <use id="reset" xlink:href="#resetDef" x="30" y="36" onmousedown="handleReset()"/>
   <use id="arrowup" xlink:href="#arrowUp" x="0" y="0" onmousedown="handlePan(0,-1)"/>
  <use id="arrowright" xlink:href="#arrowRight" x="0" y="0" onmousedown="handlePan(1,0)"/>
  <use id="arrowdown" xlink:href="#arrowDown" x="0" y="0" onmousedown="handlePan(0,1)"/>
  <use id="arrowleft" xlink:href="#arrowLeft" x="0" y="0" onmousedown="handlePan(-1,0)"/>
</g>
<svg viewBox="0 0 15 15" width="100%" height="30px" preserveAspectRatio="xMaxYMin meet">
 <g id="arrow_out" transform="scale(0.3 0.3)">
  <a xlink:href="classcore_1_1DescriptorEventPublisher__coll__graph_org.svg" target="_base">
   <rect id="button" ry="5" rx="5" y="6" x="6" height="38" width="38"
        fill="#f2f5e9" fill-opacity="0.5" stroke="#606060" stroke-width="1.0"/>
   <path id="arrow"
     d="M 11.500037,31.436501 C 11.940474,20.09759 22.043105,11.32322 32.158766,21.979434 L 37.068811,17.246167 C 37.068811,17.246167 37.088388,32 37.088388,32 L 22.160133,31.978069 C 22.160133,31.978069 26.997745,27.140456 26.997745,27.140456 C 18.528582,18.264221 13.291696,25.230495 11.500037,31.436501 z"
     style="fill:#404040;"/>
  </a>
 </g>
</svg>

<style type='text/css'>
<![CDATA[
[data-mouse-over-selected='false'] { opacity: 0.7; }
[data-mouse-over-selected='true']  { opacity: 1.0; }
]]>
</style>
<script type="application/ecmascript"><![CDATA[
document.addEventListener('DOMContentLoaded', (event) => {
  highlightEdges();
  highlightAdjacentNodes();
});
]]></script>
</svg>
