<?xml version="1.0" encoding="UTF-8" standalone="no"?>
<!DOCTYPE svg PUBLIC "-//W3C//DTD SVG 1.1//EN"
 "http://www.w3.org/Graphics/SVG/1.1/DTD/svg11.dtd">
<!-- Generated by graphviz version 2.43.0 (0)
 -->
<!-- Title: express::Response::send Pages: 1 -->
<svg width="1999pt" height="728pt"
 viewBox="0.00 0.00 1999.00 727.50" xmlns="http://www.w3.org/2000/svg" xmlns:xlink="http://www.w3.org/1999/xlink">
<g id="graph0" class="graph" transform="scale(1 1) rotate(0) translate(4 723.5)">
<title>express::Response::send</title>
<!-- Node1 -->
<g id="Node000001" class="node">
<title>Node1</title>
<g id="a_Node000001"><a xlink:title=" ">
<polygon fill="#999999" stroke="#666666" points="137,-686 0,-686 0,-667 137,-667 137,-686"/>
<text text-anchor="middle" x="68.5" y="-674" font-family="Helvetica,sans-Serif" font-size="10.00">express::Response::send</text>
</a>
</g>
</g>
<!-- Node2 -->
<g id="Node000002" class="node">
<title>Node2</title>
<g id="a_Node000002"><a xlink:href="classweb_1_1http_1_1server_1_1Response.html#a5128a20b904071c22a077b040c8ff138" target="_top" xlink:title=" ">
<polygon fill="white" stroke="#666666" points="278,-691.5 173,-691.5 173,-661.5 278,-661.5 278,-691.5"/>
<text text-anchor="start" x="181" y="-679.5" font-family="Helvetica,sans-Serif" font-size="10.00">web::http::server::</text>
<text text-anchor="middle" x="225.5" y="-668.5" font-family="Helvetica,sans-Serif" font-size="10.00">Response::send</text>
</a>
</g>
</g>
<!-- Node1&#45;&gt;Node2 -->
<g id="edge1_Node000001_Node000002" class="edge">
<title>Node1&#45;&gt;Node2</title>
<g id="a_edge1_Node000001_Node000002"><a xlink:title=" ">
<path fill="none" stroke="#63b8ff" d="M137.03,-676.5C145.5,-676.5 154.13,-676.5 162.51,-676.5"/>
<polygon fill="#63b8ff" stroke="#63b8ff" points="162.57,-680 172.57,-676.5 162.57,-673 162.57,-680"/>
</a>
</g>
</g>
<!-- Node3 -->
<g id="Node000003" class="node">
<title>Node3</title>
<g id="a_Node000003"><a xlink:href="classweb_1_1http_1_1server_1_1Response.html#ad13e93ee083ee9e780a4478a86fdefec" target="_top" xlink:title=" ">
<polygon fill="white" stroke="#666666" points="419,-648.5 314,-648.5 314,-618.5 419,-618.5 419,-648.5"/>
<text text-anchor="start" x="322" y="-636.5" font-family="Helvetica,sans-Serif" font-size="10.00">web::http::server::</text>
<text text-anchor="middle" x="366.5" y="-625.5" font-family="Helvetica,sans-Serif" font-size="10.00">Response::send</text>
</a>
</g>
</g>
<!-- Node2&#45;&gt;Node3 -->
<g id="edge2_Node000002_Node000003" class="edge">
<title>Node2&#45;&gt;Node3</title>
<g id="a_edge2_Node000002_Node000003"><a xlink:title=" ">
<path fill="none" stroke="#63b8ff" d="M275.12,-661.46C285.43,-658.27 296.41,-654.87 307.04,-651.58"/>
<polygon fill="#63b8ff" stroke="#63b8ff" points="308.16,-654.9 316.68,-648.6 306.09,-648.22 308.16,-654.9"/>
</a>
</g>
</g>
<!-- Node22 -->
<g id="Node000022" class="node">
<title>Node22</title>
<g id="a_Node000022"><a xlink:href="classweb_1_1http_1_1server_1_1Response.html#a82301ce94e8418a2d0b9bc052207a178" target="_top" xlink:title=" ">
<polygon fill="white" stroke="#666666" points="1445.5,-631.5 1340.5,-631.5 1340.5,-601.5 1445.5,-601.5 1445.5,-631.5"/>
<text text-anchor="start" x="1348.5" y="-619.5" font-family="Helvetica,sans-Serif" font-size="10.00">web::http::server::</text>
<text text-anchor="middle" x="1393" y="-608.5" font-family="Helvetica,sans-Serif" font-size="10.00">Response::set</text>
</a>
</g>
</g>
<!-- Node2&#45;&gt;Node22 -->
<g id="edge50_Node000002_Node000022" class="edge">
<title>Node2&#45;&gt;Node22</title>
<g id="a_edge50_Node000002_Node000022"><a xlink:title=" ">
<path fill="none" stroke="#63b8ff" d="M278.03,-688.42C337.62,-701.15 438.86,-719.5 527,-719.5 527,-719.5 527,-719.5 956.5,-719.5 1101.23,-719.5 1265.93,-664.96 1344.9,-635.26"/>
<polygon fill="#63b8ff" stroke="#63b8ff" points="1346.45,-638.41 1354.55,-631.59 1343.96,-631.87 1346.45,-638.41"/>
</a>
</g>
</g>
<!-- Node4 -->
<g id="Node000004" class="node">
<title>Node4</title>
<g id="a_Node000004"><a xlink:href="classweb_1_1http_1_1server_1_1Response.html#a78a2a745922ae71ca035ce38b07fb9bc" target="_top" xlink:title=" ">
<polygon fill="white" stroke="#666666" points="601,-447.5 455,-447.5 455,-417.5 601,-417.5 601,-447.5"/>
<text text-anchor="start" x="463" y="-435.5" font-family="Helvetica,sans-Serif" font-size="10.00">web::http::server::</text>
<text text-anchor="middle" x="528" y="-424.5" font-family="Helvetica,sans-Serif" font-size="10.00">Response::sendCompleted</text>
</a>
</g>
</g>
<!-- Node3&#45;&gt;Node4 -->
<g id="edge3_Node000003_Node000004" class="edge">
<title>Node3&#45;&gt;Node4</title>
<g id="a_edge3_Node000003_Node000004"><a xlink:title=" ">
<path fill="none" stroke="#63b8ff" d="M379.49,-618.39C407.21,-583.46 475.88,-496.92 508.82,-455.41"/>
<polygon fill="#63b8ff" stroke="#63b8ff" points="511.62,-457.52 515.09,-447.51 506.13,-453.17 511.62,-457.52"/>
</a>
</g>
</g>
<!-- Node3&#45;&gt;Node22 -->
<g id="edge49_Node000003_Node000022" class="edge">
<title>Node3&#45;&gt;Node22</title>
<g id="a_edge49_Node000003_Node000022"><a xlink:title=" ">
<path fill="none" stroke="#63b8ff" d="M419.04,-633.5C489.57,-633.5 620.12,-633.5 731.5,-633.5 731.5,-633.5 731.5,-633.5 956.5,-633.5 1089.79,-633.5 1245.84,-625.45 1330.23,-620.43"/>
<polygon fill="#63b8ff" stroke="#63b8ff" points="1330.63,-623.91 1340.41,-619.82 1330.21,-616.92 1330.63,-623.91"/>
</a>
</g>
</g>
<!-- Node28 -->
<g id="Node000028" class="node">
<title>Node28</title>
<g id="a_Node000028"><a xlink:href="classweb_1_1http_1_1server_1_1Response.html#aa23a377bd1dbe86905d77ea35237975c" target="_top" xlink:title=" ">
<polygon fill="white" stroke="#666666" points="598,-691.5 458,-691.5 458,-661.5 598,-661.5 598,-691.5"/>
<text text-anchor="start" x="466" y="-679.5" font-family="Helvetica,sans-Serif" font-size="10.00">web::http::server::</text>
<text text-anchor="middle" x="528" y="-668.5" font-family="Helvetica,sans-Serif" font-size="10.00">Response::sendFragment</text>
</a>
</g>
</g>
<!-- Node3&#45;&gt;Node28 -->
<g id="edge32_Node000003_Node000028" class="edge">
<title>Node3&#45;&gt;Node28</title>
<g id="a_edge32_Node000003_Node000028"><a xlink:title=" ">
<path fill="none" stroke="#63b8ff" d="M419.29,-647.46C432.81,-651.11 447.56,-655.08 461.69,-658.89"/>
<polygon fill="#63b8ff" stroke="#63b8ff" points="460.78,-662.27 471.35,-661.5 462.61,-655.51 460.78,-662.27"/>
</a>
</g>
</g>
<!-- Node31 -->
<g id="Node000031" class="node">
<title>Node31</title>
<g id="a_Node000031"><a xlink:href="classweb_1_1http_1_1server_1_1Response.html#a8f6c40b9d266cd754cd8d3e2612d22de" target="_top" xlink:title=" ">
<polygon fill="white" stroke="#666666" points="1019.5,-509.5 891.5,-509.5 891.5,-479.5 1019.5,-479.5 1019.5,-509.5"/>
<text text-anchor="start" x="899.5" y="-497.5" font-family="Helvetica,sans-Serif" font-size="10.00">web::http::server::</text>
<text text-anchor="middle" x="955.5" y="-486.5" font-family="Helvetica,sans-Serif" font-size="10.00">Response::sendHeader</text>
</a>
</g>
</g>
<!-- Node3&#45;&gt;Node31 -->
<g id="edge35_Node000003_Node000031" class="edge">
<title>Node3&#45;&gt;Node31</title>
<g id="a_edge35_Node000003_Node000031"><a xlink:title=" ">
<path fill="none" stroke="#63b8ff" d="M419.08,-621.29C523.71,-596.51 761.16,-540.28 881.57,-511.77"/>
<polygon fill="#63b8ff" stroke="#63b8ff" points="882.52,-515.14 891.44,-509.43 880.9,-508.33 882.52,-515.14"/>
</a>
</g>
</g>
<!-- Node5 -->
<g id="Node000005" class="node">
<title>Node5</title>
<g id="a_Node000005"><a xlink:href="classweb_1_1http_1_1server_1_1SocketContext.html#a445fce1f4b75291dbc566f79f8795765" target="_top" xlink:title=" ">
<polygon fill="white" stroke="#666666" points="828,-302.5 637,-302.5 637,-272.5 828,-272.5 828,-302.5"/>
<text text-anchor="start" x="645" y="-290.5" font-family="Helvetica,sans-Serif" font-size="10.00">web::http::server::</text>
<text text-anchor="middle" x="732.5" y="-279.5" font-family="Helvetica,sans-Serif" font-size="10.00">SocketContext::responseCompleted</text>
</a>
</g>
</g>
<!-- Node4&#45;&gt;Node5 -->
<g id="edge4_Node000004_Node000005" class="edge">
<title>Node4&#45;&gt;Node5</title>
<g id="a_edge4_Node000004_Node000005"><a xlink:title=" ">
<path fill="none" stroke="#63b8ff" d="M550.29,-417.26C586.69,-391.19 660.96,-338.01 702.22,-308.47"/>
<polygon fill="#63b8ff" stroke="#63b8ff" points="704.4,-311.21 710.5,-302.54 700.33,-305.52 704.4,-311.21"/>
</a>
</g>
</g>
<!-- Node26 -->
<g id="Node000026" class="node">
<title>Node26</title>
<g id="a_Node000026"><a xlink:href="classcore_1_1socket_1_1stream_1_1SocketContext.html#a153fd05f8c588f882b322dcbd47667b4" target="_top" xlink:title=" ">
<polygon fill="white" stroke="#666666" points="814,-453 651,-453 651,-412 814,-412 814,-453"/>
<text text-anchor="start" x="659" y="-441" font-family="Helvetica,sans-Serif" font-size="10.00">core::socket::stream</text>
<text text-anchor="start" x="659" y="-430" font-family="Helvetica,sans-Serif" font-size="10.00">::SocketContext::switchSocket</text>
<text text-anchor="middle" x="732.5" y="-419" font-family="Helvetica,sans-Serif" font-size="10.00">Context</text>
</a>
</g>
</g>
<!-- Node4&#45;&gt;Node26 -->
<g id="edge30_Node000004_Node000026" class="edge">
<title>Node4&#45;&gt;Node26</title>
<g id="a_edge30_Node000004_Node000026"><a xlink:title=" ">
<path fill="none" stroke="#63b8ff" d="M601.25,-432.5C614.01,-432.5 627.45,-432.5 640.64,-432.5"/>
<polygon fill="#63b8ff" stroke="#63b8ff" points="640.67,-436 650.67,-432.5 640.67,-429 640.67,-436"/>
</a>
</g>
</g>
<!-- Node6 -->
<g id="Node000006" class="node">
<title>Node6</title>
<g id="a_Node000006"><a xlink:href="classcore_1_1socket_1_1stream_1_1SocketConnection.html#aff2eb3e752c798455541e85054bf91de" target="_top" xlink:title=" ">
<polygon fill="white" stroke="#666666" points="1494,-197.5 1292,-197.5 1292,-167.5 1494,-167.5 1494,-197.5"/>
<text text-anchor="start" x="1300" y="-185.5" font-family="Helvetica,sans-Serif" font-size="10.00">core::socket::stream</text>
<text text-anchor="middle" x="1393" y="-174.5" font-family="Helvetica,sans-Serif" font-size="10.00">::SocketConnection::getInstanceName</text>
</a>
</g>
</g>
<!-- Node5&#45;&gt;Node6 -->
<g id="edge5_Node000005_Node000006" class="edge">
<title>Node5&#45;&gt;Node6</title>
<g id="a_edge5_Node000005_Node000006"><a xlink:title=" ">
<path fill="none" stroke="#63b8ff" d="M746.03,-272.21C767.3,-247.54 813.15,-199.67 864,-179.5 1016.51,-119.01 1213.85,-144.57 1318.79,-165.42"/>
<polygon fill="#63b8ff" stroke="#63b8ff" points="1318.15,-168.86 1328.65,-167.42 1319.55,-162 1318.15,-168.86"/>
</a>
</g>
</g>
<!-- Node7 -->
<g id="Node000007" class="node">
<title>Node7</title>
<g id="a_Node000007"><a xlink:href="classcore_1_1socket_1_1stream_1_1SocketContext.html#a02f0b93ac0ea376dabd6921c7589a8cf" target="_top" xlink:title=" ">
<polygon fill="white" stroke="#666666" points="1494,-304.5 1292,-304.5 1292,-274.5 1494,-274.5 1494,-304.5"/>
<text text-anchor="start" x="1300" y="-292.5" font-family="Helvetica,sans-Serif" font-size="10.00">core::socket::stream</text>
<text text-anchor="middle" x="1393" y="-281.5" font-family="Helvetica,sans-Serif" font-size="10.00">::SocketContext::getSocketConnection</text>
</a>
</g>
</g>
<!-- Node5&#45;&gt;Node7 -->
<g id="edge6_Node000005_Node000007" class="edge">
<title>Node5&#45;&gt;Node7</title>
<g id="a_edge6_Node000005_Node000007"><a xlink:title=" ">
<path fill="none" stroke="#63b8ff" d="M828.38,-291.58C933.08,-295.51 1106.58,-300.34 1256,-296.5 1264.32,-296.29 1272.93,-296 1281.59,-295.66"/>
<polygon fill="#63b8ff" stroke="#63b8ff" points="1281.91,-299.15 1291.76,-295.24 1281.62,-292.16 1281.91,-299.15"/>
</a>
</g>
</g>
<!-- Node8 -->
<g id="Node000008" class="node">
<title>Node8</title>
<g id="a_Node000008"><a xlink:href="classweb_1_1http_1_1server_1_1Response.html#ae3867615b62e96b85fc5d6c5c1af7037" target="_top" xlink:title=" ">
<polygon fill="white" stroke="#666666" points="1008,-385.5 903,-385.5 903,-355.5 1008,-355.5 1008,-385.5"/>
<text text-anchor="start" x="911" y="-373.5" font-family="Helvetica,sans-Serif" font-size="10.00">web::http::server::</text>
<text text-anchor="middle" x="955.5" y="-362.5" font-family="Helvetica,sans-Serif" font-size="10.00">Response::init</text>
</a>
</g>
</g>
<!-- Node5&#45;&gt;Node8 -->
<g id="edge7_Node000005_Node000008" class="edge">
<title>Node5&#45;&gt;Node8</title>
<g id="a_edge7_Node000005_Node000008"><a xlink:title=" ">
<path fill="none" stroke="#63b8ff" d="M767.82,-302.61C793.96,-313.89 830.96,-329.39 864,-341.5 874.08,-345.19 884.89,-348.88 895.39,-352.33"/>
<polygon fill="#63b8ff" stroke="#63b8ff" points="894.34,-355.67 904.93,-355.43 896.5,-349.01 894.34,-355.67"/>
</a>
</g>
</g>
<!-- Node9 -->
<g id="Node000009" class="node">
<title>Node9</title>
<g id="a_Node000009"><a xlink:href="classweb_1_1http_1_1server_1_1SocketContext.html#a5b3bb23c3b2d0d5d651b728147c3fd7c" target="_top" xlink:title=" ">
<polygon fill="white" stroke="#666666" points="1047,-218.5 864,-218.5 864,-188.5 1047,-188.5 1047,-218.5"/>
<text text-anchor="start" x="872" y="-206.5" font-family="Helvetica,sans-Serif" font-size="10.00">web::http::server::</text>
<text text-anchor="middle" x="955.5" y="-195.5" font-family="Helvetica,sans-Serif" font-size="10.00">SocketContext::requestCompleted</text>
</a>
</g>
</g>
<!-- Node5&#45;&gt;Node9 -->
<g id="edge8_Node000005_Node000009" class="edge">
<title>Node5&#45;&gt;Node9</title>
<g id="a_edge8_Node000005_Node000009"><a xlink:title=" ">
<path fill="none" stroke="#63b8ff" d="M773.01,-272.48C810.06,-258.4 865.57,-237.3 905.44,-222.15"/>
<polygon fill="#63b8ff" stroke="#63b8ff" points="906.86,-225.35 914.96,-218.53 904.37,-218.81 906.86,-225.35"/>
</a>
</g>
</g>
<!-- Node24 -->
<g id="Node000024" class="node">
<title>Node24</title>
<g id="a_Node000024"><a xlink:href="classcore_1_1socket_1_1stream_1_1SocketContext.html#a853d83e3e3cd8dfcce992ab688c0f63e" target="_top" xlink:title=" ">
<polygon fill="white" stroke="#666666" points="1256,-41.5 1083,-41.5 1083,-11.5 1256,-11.5 1256,-41.5"/>
<text text-anchor="start" x="1091" y="-29.5" font-family="Helvetica,sans-Serif" font-size="10.00">core::socket::stream</text>
<text text-anchor="middle" x="1169.5" y="-18.5" font-family="Helvetica,sans-Serif" font-size="10.00">::SocketContext::shutdownWrite</text>
</a>
</g>
</g>
<!-- Node5&#45;&gt;Node24 -->
<g id="edge29_Node000005_Node000024" class="edge">
<title>Node5&#45;&gt;Node24</title>
<g id="a_edge29_Node000005_Node000024"><a xlink:title=" ">
<path fill="none" stroke="#63b8ff" d="M739.76,-272.36C755.22,-236.93 798.74,-148.22 864,-103.5 925.8,-61.15 1008.98,-42.08 1072.78,-33.5"/>
<polygon fill="#63b8ff" stroke="#63b8ff" points="1073.38,-36.95 1082.85,-32.21 1072.49,-30.01 1073.38,-36.95"/>
</a>
</g>
</g>
<!-- Node9&#45;&gt;Node6 -->
<g id="edge18_Node000009_Node000006" class="edge">
<title>Node9&#45;&gt;Node6</title>
<g id="a_edge18_Node000009_Node000006"><a xlink:title=" ">
<path fill="none" stroke="#63b8ff" d="M1009.9,-188.45C1032.28,-182.88 1058.71,-177.25 1083,-174.5 1148.66,-167.07 1222.64,-168.64 1281.74,-172.27"/>
<polygon fill="#63b8ff" stroke="#63b8ff" points="1281.64,-175.77 1291.85,-172.92 1282.09,-168.78 1281.64,-175.77"/>
</a>
</g>
</g>
<!-- Node9&#45;&gt;Node7 -->
<g id="edge19_Node000009_Node000007" class="edge">
<title>Node9&#45;&gt;Node7</title>
<g id="a_edge19_Node000009_Node000007"><a xlink:title=" ">
<path fill="none" stroke="#63b8ff" d="M978.13,-218.67C1002.39,-234.77 1043.53,-259.39 1083,-270.5 1147.19,-288.56 1221.74,-293.58 1281.54,-293.95"/>
<polygon fill="#63b8ff" stroke="#63b8ff" points="1281.75,-297.45 1291.76,-293.97 1281.77,-290.45 1281.75,-297.45"/>
</a>
</g>
</g>
<!-- Node10 -->
<g id="Node000010" class="node">
<title>Node10</title>
<g id="a_Node000010"><a xlink:href="classcore_1_1EventReceiver.html#a2e8d915eca53e827be4f493a63ae058d" target="_top" xlink:title=" ">
<polygon fill="white" stroke="#666666" points="1226.5,-89.5 1112.5,-89.5 1112.5,-59.5 1226.5,-59.5 1226.5,-89.5"/>
<text text-anchor="start" x="1120.5" y="-77.5" font-family="Helvetica,sans-Serif" font-size="10.00">core::EventReceiver</text>
<text text-anchor="middle" x="1169.5" y="-66.5" font-family="Helvetica,sans-Serif" font-size="10.00">::atNextTick</text>
</a>
</g>
</g>
<!-- Node9&#45;&gt;Node10 -->
<g id="edge9_Node000009_Node000010" class="edge">
<title>Node9&#45;&gt;Node10</title>
<g id="a_edge9_Node000009_Node000010"><a xlink:title=" ">
<path fill="none" stroke="#63b8ff" d="M981.23,-188.45C1019.27,-165.31 1092.19,-120.93 1134.95,-94.91"/>
<polygon fill="#63b8ff" stroke="#63b8ff" points="1136.87,-97.84 1143.6,-89.65 1133.23,-91.86 1136.87,-97.84"/>
</a>
</g>
</g>
<!-- Node19 -->
<g id="Node000019" class="node">
<title>Node19</title>
<g id="a_Node000019"><a xlink:href="classweb_1_1http_1_1server_1_1SocketContext.html#a5672b22426818c358c7ef93715f42f20" target="_top" xlink:title=" ">
<polygon fill="white" stroke="#666666" points="1251,-261.5 1088,-261.5 1088,-231.5 1251,-231.5 1251,-261.5"/>
<text text-anchor="start" x="1096" y="-249.5" font-family="Helvetica,sans-Serif" font-size="10.00">web::http::server::</text>
<text text-anchor="middle" x="1169.5" y="-238.5" font-family="Helvetica,sans-Serif" font-size="10.00">SocketContext::requestParsed</text>
</a>
</g>
</g>
<!-- Node9&#45;&gt;Node19 -->
<g id="edge20_Node000009_Node000019" class="edge">
<title>Node9&#45;&gt;Node19</title>
<g id="a_edge20_Node000009_Node000019"><a xlink:title=" ">
<path fill="none" stroke="#63b8ff" d="M1030.65,-218.54C1047.92,-222.04 1066.43,-225.8 1084.1,-229.38"/>
<polygon fill="#63b8ff" stroke="#63b8ff" points="1083.9,-232.91 1094.39,-231.47 1085.29,-226.05 1083.9,-232.91"/>
</a>
</g>
</g>
<!-- Node9&#45;&gt;Node24 -->
<g id="edge27_Node000009_Node000024" class="edge">
<title>Node9&#45;&gt;Node24</title>
<g id="a_edge27_Node000009_Node000024"><a xlink:title=" ">
<path fill="none" stroke="#63b8ff" d="M964.76,-188.3C982.31,-157.45 1026.38,-87.34 1083,-50.5 1085.57,-48.83 1088.25,-47.28 1091.01,-45.83"/>
<polygon fill="#63b8ff" stroke="#63b8ff" points="1092.53,-48.98 1100.09,-41.56 1089.55,-42.65 1092.53,-48.98"/>
</a>
</g>
</g>
<!-- Node11 -->
<g id="Node000011" class="node">
<title>Node11</title>
<g id="a_Node000011"><a xlink:href="classcore_1_1EventReceiver.html#adec275118bd8a68e2b4cb71fa94d79b6" target="_top" xlink:title=" ">
<polygon fill="white" stroke="#666666" points="1450,-89.5 1336,-89.5 1336,-59.5 1450,-59.5 1450,-89.5"/>
<text text-anchor="start" x="1344" y="-77.5" font-family="Helvetica,sans-Serif" font-size="10.00">core::EventReceiver</text>
<text text-anchor="middle" x="1393" y="-66.5" font-family="Helvetica,sans-Serif" font-size="10.00">::EventReceiver</text>
</a>
</g>
</g>
<!-- Node10&#45;&gt;Node11 -->
<g id="edge10_Node000010_Node000011" class="edge">
<title>Node10&#45;&gt;Node11</title>
<g id="a_edge10_Node000010_Node000011"><a xlink:title=" ">
<path fill="none" stroke="#63b8ff" d="M1226.68,-74.5C1256.87,-74.5 1294.26,-74.5 1325.85,-74.5"/>
<polygon fill="#63b8ff" stroke="#63b8ff" points="1325.88,-78 1335.88,-74.5 1325.88,-71 1325.88,-78"/>
</a>
</g>
</g>
<!-- Node15 -->
<g id="Node000015" class="node">
<title>Node15</title>
<g id="a_Node000015"><a xlink:href="classcore_1_1EventReceiver.html#ad353e97a9089b2769e52f8825e4878b1" target="_top" xlink:title=" ">
<polygon fill="white" stroke="#666666" points="1450,-137.5 1336,-137.5 1336,-107.5 1450,-107.5 1450,-137.5"/>
<text text-anchor="start" x="1344" y="-125.5" font-family="Helvetica,sans-Serif" font-size="10.00">core::EventReceiver</text>
<text text-anchor="middle" x="1393" y="-114.5" font-family="Helvetica,sans-Serif" font-size="10.00">::span</text>
</a>
</g>
</g>
<!-- Node10&#45;&gt;Node15 -->
<g id="edge14_Node000010_Node000015" class="edge">
<title>Node10&#45;&gt;Node15</title>
<g id="a_edge14_Node000010_Node000015"><a xlink:title=" ">
<path fill="none" stroke="#63b8ff" d="M1226.68,-86.67C1256.87,-93.22 1294.26,-101.32 1325.85,-108.16"/>
<polygon fill="#63b8ff" stroke="#63b8ff" points="1325.37,-111.64 1335.88,-110.34 1326.85,-104.8 1325.37,-111.64"/>
</a>
</g>
</g>
<!-- Node12 -->
<g id="Node000012" class="node">
<title>Node12</title>
<g id="a_Node000012"><a xlink:href="classcore_1_1Event.html#a81e45f64219d897d59324c9dd0573936" target="_top" xlink:title=" ">
<polygon fill="white" stroke="#666666" points="1641.5,-84 1536.5,-84 1536.5,-65 1641.5,-65 1641.5,-84"/>
<text text-anchor="middle" x="1589" y="-72" font-family="Helvetica,sans-Serif" font-size="10.00">core::Event::Event</text>
</a>
</g>
</g>
<!-- Node11&#45;&gt;Node12 -->
<g id="edge11_Node000011_Node000012" class="edge">
<title>Node11&#45;&gt;Node12</title>
<g id="a_edge11_Node000011_Node000012"><a xlink:title=" ">
<path fill="none" stroke="#63b8ff" d="M1450.11,-74.5C1473.91,-74.5 1501.72,-74.5 1526.11,-74.5"/>
<polygon fill="#63b8ff" stroke="#63b8ff" points="1526.33,-78 1536.33,-74.5 1526.33,-71 1526.33,-78"/>
</a>
</g>
</g>
<!-- Node13 -->
<g id="Node000013" class="node">
<title>Node13</title>
<g id="a_Node000013"><a xlink:href="classcore_1_1EventLoop.html#a17f1623de6ca2ea2682c63cf502c3c36" target="_top" xlink:title=" ">
<polygon fill="white" stroke="#666666" points="1828,-89.5 1684,-89.5 1684,-59.5 1828,-59.5 1828,-89.5"/>
<text text-anchor="start" x="1692" y="-77.5" font-family="Helvetica,sans-Serif" font-size="10.00">core::EventLoop::getEvent</text>
<text text-anchor="middle" x="1756" y="-66.5" font-family="Helvetica,sans-Serif" font-size="10.00">Multiplexer</text>
</a>
</g>
</g>
<!-- Node12&#45;&gt;Node13 -->
<g id="edge12_Node000012_Node000013" class="edge">
<title>Node12&#45;&gt;Node13</title>
<g id="a_edge12_Node000012_Node000013"><a xlink:title=" ">
<path fill="none" stroke="#63b8ff" d="M1641.75,-74.5C1651.85,-74.5 1662.67,-74.5 1673.46,-74.5"/>
<polygon fill="#63b8ff" stroke="#63b8ff" points="1673.78,-78 1683.78,-74.5 1673.78,-71 1673.78,-78"/>
</a>
</g>
</g>
<!-- Node14 -->
<g id="Node000014" class="node">
<title>Node14</title>
<g id="a_Node000014"><a xlink:href="classcore_1_1EventLoop.html#a413d227511f68c2c9939719bd2590794" target="_top" xlink:title=" ">
<polygon fill="white" stroke="#666666" points="1827,-41 1685,-41 1685,-22 1827,-22 1827,-41"/>
<text text-anchor="middle" x="1756" y="-29" font-family="Helvetica,sans-Serif" font-size="10.00">core::EventLoop::instance</text>
</a>
</g>
</g>
<!-- Node12&#45;&gt;Node14 -->
<g id="edge13_Node000012_Node000014" class="edge">
<title>Node12&#45;&gt;Node14</title>
<g id="a_edge13_Node000012_Node000014"><a xlink:title=" ">
<path fill="none" stroke="#63b8ff" d="M1626.62,-64.96C1650.76,-58.67 1682.58,-50.37 1708.5,-43.62"/>
<polygon fill="#63b8ff" stroke="#63b8ff" points="1709.69,-46.93 1718.48,-41.02 1707.92,-40.15 1709.69,-46.93"/>
</a>
</g>
</g>
<!-- Node16 -->
<g id="Node000016" class="node">
<title>Node16</title>
<g id="a_Node000016"><a xlink:href="classcore_1_1Event.html#a0a68a616082e2b1aece96499a439884f" target="_top" xlink:title=" ">
<polygon fill="white" stroke="#666666" points="1639.5,-132 1538.5,-132 1538.5,-113 1639.5,-113 1639.5,-132"/>
<text text-anchor="middle" x="1589" y="-120" font-family="Helvetica,sans-Serif" font-size="10.00">core::Event::span</text>
</a>
</g>
</g>
<!-- Node15&#45;&gt;Node16 -->
<g id="edge15_Node000015_Node000016" class="edge">
<title>Node15&#45;&gt;Node16</title>
<g id="a_edge15_Node000015_Node000016"><a xlink:title=" ">
<path fill="none" stroke="#63b8ff" d="M1450.11,-122.5C1474.6,-122.5 1503.35,-122.5 1528.24,-122.5"/>
<polygon fill="#63b8ff" stroke="#63b8ff" points="1528.29,-126 1538.29,-122.5 1528.29,-119 1528.29,-126"/>
</a>
</g>
</g>
<!-- Node17 -->
<g id="Node000017" class="node">
<title>Node17</title>
<g id="a_Node000017"><a xlink:href="classcore_1_1EventMultiplexer.html#a61d96e95daaebfe6c3b980a2a847bb21" target="_top" xlink:title=" ">
<polygon fill="white" stroke="#666666" points="1819.5,-137.5 1692.5,-137.5 1692.5,-107.5 1819.5,-107.5 1819.5,-137.5"/>
<text text-anchor="start" x="1700.5" y="-125.5" font-family="Helvetica,sans-Serif" font-size="10.00">core::EventMultiplexer</text>
<text text-anchor="middle" x="1756" y="-114.5" font-family="Helvetica,sans-Serif" font-size="10.00">::span</text>
</a>
</g>
</g>
<!-- Node16&#45;&gt;Node17 -->
<g id="edge16_Node000016_Node000017" class="edge">
<title>Node16&#45;&gt;Node17</title>
<g id="a_edge16_Node000016_Node000017"><a xlink:title=" ">
<path fill="none" stroke="#63b8ff" d="M1639.51,-122.5C1652.87,-122.5 1667.62,-122.5 1681.99,-122.5"/>
<polygon fill="#63b8ff" stroke="#63b8ff" points="1682.35,-126 1692.35,-122.5 1682.35,-119 1682.35,-126"/>
</a>
</g>
</g>
<!-- Node18 -->
<g id="Node000018" class="node">
<title>Node18</title>
<g id="a_Node000018"><a xlink:href="classcore_1_1EventMultiplexer_1_1EventQueue.html#a009075f2f16a78d3bf8d9e3a20226336" target="_top" xlink:title=" ">
<polygon fill="white" stroke="#666666" points="1991,-137.5 1864,-137.5 1864,-107.5 1991,-107.5 1991,-137.5"/>
<text text-anchor="start" x="1872" y="-125.5" font-family="Helvetica,sans-Serif" font-size="10.00">core::EventMultiplexer</text>
<text text-anchor="middle" x="1927.5" y="-114.5" font-family="Helvetica,sans-Serif" font-size="10.00">::EventQueue::insert</text>
</a>
</g>
</g>
<!-- Node17&#45;&gt;Node18 -->
<g id="edge17_Node000017_Node000018" class="edge">
<title>Node17&#45;&gt;Node18</title>
<g id="a_edge17_Node000017_Node000018"><a xlink:title=" ">
<path fill="none" stroke="#63b8ff" d="M1819.63,-122.5C1830.68,-122.5 1842.27,-122.5 1853.57,-122.5"/>
<polygon fill="#63b8ff" stroke="#63b8ff" points="1853.84,-126 1863.84,-122.5 1853.84,-119 1853.84,-126"/>
</a>
</g>
</g>
<!-- Node19&#45;&gt;Node6 -->
<g id="edge23_Node000019_Node000006" class="edge">
<title>Node19&#45;&gt;Node6</title>
<g id="a_edge23_Node000019_Node000006"><a xlink:title=" ">
<path fill="none" stroke="#63b8ff" d="M1224.35,-231.49C1234.85,-228.54 1245.78,-225.44 1256,-222.5 1280.73,-215.39 1307.95,-207.42 1331.5,-200.47"/>
<polygon fill="#63b8ff" stroke="#63b8ff" points="1332.75,-203.75 1341.35,-197.56 1330.76,-197.04 1332.75,-203.75"/>
</a>
</g>
</g>
<!-- Node19&#45;&gt;Node7 -->
<g id="edge24_Node000019_Node000007" class="edge">
<title>Node19&#45;&gt;Node7</title>
<g id="a_edge24_Node000019_Node000007"><a xlink:title=" ">
<path fill="none" stroke="#63b8ff" d="M1247.97,-261.54C1266.26,-265.09 1285.89,-268.9 1304.59,-272.53"/>
<polygon fill="#63b8ff" stroke="#63b8ff" points="1304.09,-276 1314.57,-274.47 1305.42,-269.13 1304.09,-276"/>
</a>
</g>
</g>
<!-- Node20 -->
<g id="Node000020" class="node">
<title>Node20</title>
<g id="a_Node000020"><a xlink:href="classweb_1_1http_1_1server_1_1Request.html#aa29d8d5a5b007453ce2b96b55e63960f" target="_top" xlink:title=" ">
<polygon fill="white" stroke="#666666" points="1445.5,-256.5 1340.5,-256.5 1340.5,-226.5 1445.5,-226.5 1445.5,-256.5"/>
<text text-anchor="start" x="1348.5" y="-244.5" font-family="Helvetica,sans-Serif" font-size="10.00">web::http::server::</text>
<text text-anchor="middle" x="1393" y="-233.5" font-family="Helvetica,sans-Serif" font-size="10.00">Request::get</text>
</a>
</g>
</g>
<!-- Node19&#45;&gt;Node20 -->
<g id="edge21_Node000019_Node000020" class="edge">
<title>Node19&#45;&gt;Node20</title>
<g id="a_edge21_Node000019_Node000020"><a xlink:title=" ">
<path fill="none" stroke="#63b8ff" d="M1251.09,-244.68C1277.18,-244.09 1305.68,-243.45 1330.18,-242.9"/>
<polygon fill="#63b8ff" stroke="#63b8ff" points="1330.5,-246.39 1340.42,-242.66 1330.34,-239.39 1330.5,-246.39"/>
</a>
</g>
</g>
<!-- Node19&#45;&gt;Node22 -->
<g id="edge25_Node000019_Node000022" class="edge">
<title>Node19&#45;&gt;Node22</title>
<g id="a_edge25_Node000019_Node000022"><a xlink:title=" ">
<path fill="none" stroke="#63b8ff" d="M1188.53,-261.79C1208.53,-279.85 1240.05,-311.85 1256,-346.5 1299.26,-440.49 1227.52,-495.58 1292,-576.5 1301.85,-588.86 1316.08,-597.41 1330.75,-603.33"/>
<polygon fill="#63b8ff" stroke="#63b8ff" points="1329.8,-606.72 1340.4,-606.86 1332.2,-600.14 1329.8,-606.72"/>
</a>
</g>
</g>
<!-- Node21 -->
<g id="Node000021" class="node">
<title>Node21</title>
<g id="a_Node000021"><a xlink:href="namespacehttputils.html#a4dd60a8e2472042c70e00dec22ebf927" target="_top" xlink:title=" ">
<polygon fill="white" stroke="#666666" points="1641.5,-251 1536.5,-251 1536.5,-232 1641.5,-232 1641.5,-251"/>
<text text-anchor="middle" x="1589" y="-239" font-family="Helvetica,sans-Serif" font-size="10.00">httputils::to_lower</text>
</a>
</g>
</g>
<!-- Node20&#45;&gt;Node21 -->
<g id="edge22_Node000020_Node000021" class="edge">
<title>Node20&#45;&gt;Node21</title>
<g id="a_edge22_Node000020_Node000021"><a xlink:title=" ">
<path fill="none" stroke="#63b8ff" d="M1445.73,-241.5C1470.51,-241.5 1500.36,-241.5 1526.3,-241.5"/>
<polygon fill="#63b8ff" stroke="#63b8ff" points="1526.41,-245 1536.41,-241.5 1526.41,-238 1526.41,-245"/>
</a>
</g>
</g>
<!-- Node23 -->
<g id="Node000023" class="node">
<title>Node23</title>
<g id="a_Node000023"><a xlink:href="namespacehttputils.html#af566d4f31d97a3a84b373a94e6cf9594" target="_top" xlink:title=" ">
<polygon fill="white" stroke="#666666" points="1648,-626 1530,-626 1530,-607 1648,-607 1648,-626"/>
<text text-anchor="middle" x="1589" y="-614" font-family="Helvetica,sans-Serif" font-size="10.00">httputils::ci_contains</text>
</a>
</g>
</g>
<!-- Node22&#45;&gt;Node23 -->
<g id="edge26_Node000022_Node000023" class="edge">
<title>Node22&#45;&gt;Node23</title>
<g id="a_edge26_Node000022_Node000023"><a xlink:title=" ">
<path fill="none" stroke="#63b8ff" d="M1445.73,-616.5C1468.42,-616.5 1495.37,-616.5 1519.67,-616.5"/>
<polygon fill="#63b8ff" stroke="#63b8ff" points="1519.91,-620 1529.91,-616.5 1519.91,-613 1519.91,-620"/>
</a>
</g>
</g>
<!-- Node25 -->
<g id="Node000025" class="node">
<title>Node25</title>
<g id="a_Node000025"><a xlink:href="classcore_1_1socket_1_1stream_1_1SocketConnection.html#ab4496d58a35b0fa62a01f8aa78869522" target="_top" xlink:title=" ">
<polygon fill="white" stroke="#666666" points="1474.5,-41 1311.5,-41 1311.5,0 1474.5,0 1474.5,-41"/>
<text text-anchor="start" x="1319.5" y="-29" font-family="Helvetica,sans-Serif" font-size="10.00">core::socket::stream</text>
<text text-anchor="start" x="1319.5" y="-18" font-family="Helvetica,sans-Serif" font-size="10.00">::SocketConnection::shutdown</text>
<text text-anchor="middle" x="1393" y="-7" font-family="Helvetica,sans-Serif" font-size="10.00">Write</text>
</a>
</g>
</g>
<!-- Node24&#45;&gt;Node25 -->
<g id="edge28_Node000024_Node000025" class="edge">
<title>Node24&#45;&gt;Node25</title>
<g id="a_edge28_Node000024_Node000025"><a xlink:title=" ">
<path fill="none" stroke="#63b8ff" d="M1256.14,-24.18C1270.88,-23.78 1286.24,-23.36 1301.11,-22.96"/>
<polygon fill="#63b8ff" stroke="#63b8ff" points="1301.41,-26.46 1311.31,-22.69 1301.22,-19.46 1301.41,-26.46"/>
</a>
</g>
</g>
<!-- Node27 -->
<g id="Node000027" class="node">
<title>Node27</title>
<g id="a_Node000027"><a xlink:href="classcore_1_1socket_1_1stream_1_1SocketConnection.html#a1f0ce3db26b4f317837b294418b3ee33" target="_top" xlink:title=" ">
<polygon fill="white" stroke="#666666" points="1045,-453 866,-453 866,-412 1045,-412 1045,-453"/>
<text text-anchor="start" x="874" y="-441" font-family="Helvetica,sans-Serif" font-size="10.00">core::socket::stream</text>
<text text-anchor="start" x="874" y="-430" font-family="Helvetica,sans-Serif" font-size="10.00">::SocketConnection::switchSocket</text>
<text text-anchor="middle" x="955.5" y="-419" font-family="Helvetica,sans-Serif" font-size="10.00">Context</text>
</a>
</g>
</g>
<!-- Node26&#45;&gt;Node27 -->
<g id="edge31_Node000026_Node000027" class="edge">
<title>Node26&#45;&gt;Node27</title>
<g id="a_edge31_Node000026_Node000027"><a xlink:title=" ">
<path fill="none" stroke="#63b8ff" d="M814.22,-432.5C827.72,-432.5 841.85,-432.5 855.74,-432.5"/>
<polygon fill="#63b8ff" stroke="#63b8ff" points="855.79,-436 865.79,-432.5 855.79,-429 855.79,-436"/>
</a>
</g>
</g>
<!-- Node29 -->
<g id="Node000029" class="node">
<title>Node29</title>
<g id="a_Node000029"><a xlink:href="classcore_1_1socket_1_1stream_1_1SocketContext.html#a7ab4e5580dbb64d509ffe2573205c600" target="_top" xlink:title=" ">
<polygon fill="white" stroke="#666666" points="810,-691.5 655,-691.5 655,-661.5 810,-661.5 810,-691.5"/>
<text text-anchor="start" x="663" y="-679.5" font-family="Helvetica,sans-Serif" font-size="10.00">core::socket::stream</text>
<text text-anchor="middle" x="732.5" y="-668.5" font-family="Helvetica,sans-Serif" font-size="10.00">::SocketContext::sendToPeer</text>
</a>
</g>
</g>
<!-- Node28&#45;&gt;Node29 -->
<g id="edge33_Node000028_Node000029" class="edge">
<title>Node28&#45;&gt;Node29</title>
<g id="a_edge33_Node000028_Node000029"><a xlink:title=" ">
<path fill="none" stroke="#63b8ff" d="M598.12,-676.5C613.07,-676.5 629.05,-676.5 644.58,-676.5"/>
<polygon fill="#63b8ff" stroke="#63b8ff" points="644.7,-680 654.7,-676.5 644.7,-673 644.7,-680"/>
</a>
</g>
</g>
<!-- Node30 -->
<g id="Node000030" class="node">
<title>Node30</title>
<g id="a_Node000030"><a xlink:href="classcore_1_1socket_1_1stream_1_1SocketConnection.html#a8562a65ddd381e8a5c3360d12064b0ac" target="_top" xlink:title=" ">
<polygon fill="white" stroke="#666666" points="1041,-691.5 870,-691.5 870,-661.5 1041,-661.5 1041,-691.5"/>
<text text-anchor="start" x="878" y="-679.5" font-family="Helvetica,sans-Serif" font-size="10.00">core::socket::stream</text>
<text text-anchor="middle" x="955.5" y="-668.5" font-family="Helvetica,sans-Serif" font-size="10.00">::SocketConnection::sendToPeer</text>
</a>
</g>
</g>
<!-- Node29&#45;&gt;Node30 -->
<g id="edge34_Node000029_Node000030" class="edge">
<title>Node29&#45;&gt;Node30</title>
<g id="a_edge34_Node000029_Node000030"><a xlink:title=" ">
<path fill="none" stroke="#63b8ff" d="M810.17,-676.5C826.07,-676.5 843.01,-676.5 859.47,-676.5"/>
<polygon fill="#63b8ff" stroke="#63b8ff" points="859.65,-680 869.65,-676.5 859.65,-673 859.65,-680"/>
</a>
</g>
</g>
<!-- Node31&#45;&gt;Node22 -->
<g id="edge45_Node000031_Node000022" class="edge">
<title>Node31&#45;&gt;Node22</title>
<g id="a_edge45_Node000031_Node000022"><a xlink:title=" ">
<path fill="none" stroke="#63b8ff" d="M973.96,-509.52C997.17,-528.56 1040.25,-560.8 1083,-576.5 1164.89,-606.57 1266.23,-614.63 1330.02,-616.47"/>
<polygon fill="#63b8ff" stroke="#63b8ff" points="1330.23,-619.98 1340.32,-616.73 1330.41,-612.98 1330.23,-619.98"/>
</a>
</g>
</g>
<!-- Node32 -->
<g id="Node000032" class="node">
<title>Node32</title>
<g id="a_Node000032"><a xlink:href="classweb_1_1http_1_1CookieOptions.html#a4be3fcbeb3b146110d45edadba1ddc08" target="_top" xlink:title=" ">
<polygon fill="white" stroke="#666666" points="1239.5,-481.5 1099.5,-481.5 1099.5,-451.5 1239.5,-451.5 1239.5,-481.5"/>
<text text-anchor="start" x="1107.5" y="-469.5" font-family="Helvetica,sans-Serif" font-size="10.00">web::http::CookieOptions</text>
<text text-anchor="middle" x="1169.5" y="-458.5" font-family="Helvetica,sans-Serif" font-size="10.00">::getOptions</text>
</a>
</g>
</g>
<!-- Node31&#45;&gt;Node32 -->
<g id="edge36_Node000031_Node000032" class="edge">
<title>Node31&#45;&gt;Node32</title>
<g id="a_edge36_Node000031_Node000032"><a xlink:title=" ">
<path fill="none" stroke="#63b8ff" d="M1019.53,-486.17C1041.44,-483.28 1066.28,-480 1089.32,-476.96"/>
<polygon fill="#63b8ff" stroke="#63b8ff" points="1089.96,-480.4 1099.42,-475.62 1089.04,-473.46 1089.96,-480.4"/>
</a>
</g>
</g>
<!-- Node33 -->
<g id="Node000033" class="node">
<title>Node33</title>
<g id="a_Node000033"><a xlink:href="classweb_1_1http_1_1CookieOptions.html#a93e39fac2e3beb0b97a485169479e2ea" target="_top" xlink:title=" ">
<polygon fill="white" stroke="#666666" points="1239.5,-433.5 1099.5,-433.5 1099.5,-403.5 1239.5,-403.5 1239.5,-433.5"/>
<text text-anchor="start" x="1107.5" y="-421.5" font-family="Helvetica,sans-Serif" font-size="10.00">web::http::CookieOptions</text>
<text text-anchor="middle" x="1169.5" y="-410.5" font-family="Helvetica,sans-Serif" font-size="10.00">::getValue</text>
</a>
</g>
</g>
<!-- Node31&#45;&gt;Node33 -->
<g id="edge37_Node000031_Node000033" class="edge">
<title>Node31&#45;&gt;Node33</title>
<g id="a_edge37_Node000031_Node000033"><a xlink:title=" ">
<path fill="none" stroke="#63b8ff" d="M1001.63,-479.41C1016.27,-474.15 1032.48,-467.94 1047,-461.5 1063.54,-454.16 1066.2,-449.2 1083,-442.5 1088.1,-440.46 1093.44,-438.53 1098.85,-436.71"/>
<polygon fill="#63b8ff" stroke="#63b8ff" points="1100.18,-439.96 1108.63,-433.56 1098.03,-433.3 1100.18,-439.96"/>
</a>
</g>
</g>
<!-- Node34 -->
<g id="Node000034" class="node">
<title>Node34</title>
<g id="a_Node000034"><a xlink:href="classweb_1_1http_1_1StatusCode.html#ad3c635f1cb778cdb4a2e23332ebda277" target="_top" xlink:title=" ">
<polygon fill="white" stroke="#666666" points="1231.5,-385.5 1107.5,-385.5 1107.5,-355.5 1231.5,-355.5 1231.5,-385.5"/>
<text text-anchor="start" x="1115.5" y="-373.5" font-family="Helvetica,sans-Serif" font-size="10.00">web::http::StatusCode</text>
<text text-anchor="middle" x="1169.5" y="-362.5" font-family="Helvetica,sans-Serif" font-size="10.00">::reason</text>
</a>
</g>
</g>
<!-- Node31&#45;&gt;Node34 -->
<g id="edge38_Node000031_Node000034" class="edge">
<title>Node31&#45;&gt;Node34</title>
<g id="a_edge38_Node000031_Node000034"><a xlink:title=" ">
<path fill="none" stroke="#63b8ff" d="M1016.86,-479.49C1027.68,-474.93 1038.28,-469.05 1047,-461.5 1072.55,-439.37 1056.62,-415.64 1083,-394.5 1087.55,-390.86 1092.61,-387.76 1097.95,-385.14"/>
<polygon fill="#63b8ff" stroke="#63b8ff" points="1099.36,-388.35 1107.14,-381.16 1096.57,-381.92 1099.36,-388.35"/>
</a>
</g>
</g>
<!-- Node36 -->
<g id="Node000036" class="node">
<title>Node36</title>
<g id="a_Node000036"><a xlink:href="classweb_1_1http_1_1server_1_1SocketContext.html#a3fb957f3a38174ca3d067750d0fadafe" target="_top" xlink:title=" ">
<polygon fill="white" stroke="#666666" points="1256,-213.5 1083,-213.5 1083,-183.5 1256,-183.5 1256,-213.5"/>
<text text-anchor="start" x="1091" y="-201.5" font-family="Helvetica,sans-Serif" font-size="10.00">web::http::server::</text>
<text text-anchor="middle" x="1169.5" y="-190.5" font-family="Helvetica,sans-Serif" font-size="10.00">SocketContext::responseStarted</text>
</a>
</g>
</g>
<!-- Node31&#45;&gt;Node36 -->
<g id="edge40_Node000031_Node000036" class="edge">
<title>Node31&#45;&gt;Node36</title>
<g id="a_edge40_Node000031_Node000036"><a xlink:title=" ">
<path fill="none" stroke="#63b8ff" d="M1019.59,-481.49C1030.04,-476.76 1039.8,-470.3 1047,-461.5 1114.99,-378.33 1011.9,-303.02 1083,-222.5 1083.65,-221.77 1084.32,-221.06 1085,-220.36"/>
<polygon fill="#63b8ff" stroke="#63b8ff" points="1087.54,-222.81 1093.02,-213.74 1083.08,-217.41 1087.54,-222.81"/>
</a>
</g>
</g>
<!-- Node37 -->
<g id="Node000037" class="node">
<title>Node37</title>
<g id="a_Node000037"><a xlink:href="classcore_1_1socket_1_1SocketContext.html#a171ec3bb2190630276ff2e6cb5fd9ccf" target="_top" xlink:title=" ">
<polygon fill="white" stroke="#666666" points="1245.5,-567.5 1093.5,-567.5 1093.5,-537.5 1245.5,-537.5 1245.5,-567.5"/>
<text text-anchor="start" x="1101.5" y="-555.5" font-family="Helvetica,sans-Serif" font-size="10.00">core::socket::SocketContext</text>
<text text-anchor="middle" x="1169.5" y="-544.5" font-family="Helvetica,sans-Serif" font-size="10.00">::sendToPeer</text>
</a>
</g>
</g>
<!-- Node31&#45;&gt;Node37 -->
<g id="edge43_Node000031_Node000037" class="edge">
<title>Node31&#45;&gt;Node37</title>
<g id="a_edge43_Node000031_Node000037"><a xlink:title=" ">
<path fill="none" stroke="#63b8ff" d="M1011.37,-509.51C1039.59,-517.23 1074.16,-526.69 1103.69,-534.77"/>
<polygon fill="#63b8ff" stroke="#63b8ff" points="1102.92,-538.19 1113.49,-537.45 1104.77,-531.44 1102.92,-538.19"/>
</a>
</g>
</g>
<!-- Node39 -->
<g id="Node000039" class="node">
<title>Node39</title>
<g id="a_Node000039"><a xlink:href="namespacehttputils.html#ad53daa08390598493f3f4ae09164a60a" target="_top" xlink:title=" ">
<polygon fill="white" stroke="#666666" points="1232,-519 1107,-519 1107,-500 1232,-500 1232,-519"/>
<text text-anchor="middle" x="1169.5" y="-507" font-family="Helvetica,sans-Serif" font-size="10.00">httputils::to_http_date</text>
</a>
</g>
</g>
<!-- Node31&#45;&gt;Node39 -->
<g id="edge46_Node000031_Node000039" class="edge">
<title>Node31&#45;&gt;Node39</title>
<g id="a_edge46_Node000031_Node000039"><a xlink:title=" ">
<path fill="none" stroke="#63b8ff" d="M1019.53,-498.96C1043.78,-500.68 1071.63,-502.65 1096.64,-504.42"/>
<polygon fill="#63b8ff" stroke="#63b8ff" points="1096.58,-507.92 1106.8,-505.13 1097.08,-500.94 1096.58,-507.92"/>
</a>
</g>
</g>
<!-- Node35 -->
<g id="Node000035" class="node">
<title>Node35</title>
<g id="a_Node000035"><a xlink:href="classweb_1_1http_1_1StatusCode.html#a7128168d2becba8d8bfd0e47ab2854ff" target="_top" xlink:title=" ">
<polygon fill="white" stroke="#666666" points="1455,-385.5 1331,-385.5 1331,-355.5 1455,-355.5 1455,-385.5"/>
<text text-anchor="start" x="1339" y="-373.5" font-family="Helvetica,sans-Serif" font-size="10.00">web::http::StatusCode</text>
<text text-anchor="middle" x="1393" y="-362.5" font-family="Helvetica,sans-Serif" font-size="10.00">::contains</text>
</a>
</g>
</g>
<!-- Node34&#45;&gt;Node35 -->
<g id="edge39_Node000034_Node000035" class="edge">
<title>Node34&#45;&gt;Node35</title>
<g id="a_edge39_Node000034_Node000035"><a xlink:title=" ">
<path fill="none" stroke="#63b8ff" d="M1231.61,-370.5C1259.1,-370.5 1291.73,-370.5 1320.35,-370.5"/>
<polygon fill="#63b8ff" stroke="#63b8ff" points="1320.7,-374 1330.7,-370.5 1320.7,-367 1320.7,-374"/>
</a>
</g>
</g>
<!-- Node36&#45;&gt;Node6 -->
<g id="edge41_Node000036_Node000006" class="edge">
<title>Node36&#45;&gt;Node6</title>
<g id="a_edge41_Node000036_Node000006"><a xlink:title=" ">
<path fill="none" stroke="#63b8ff" d="M1256.14,-192.31C1264.54,-191.71 1273.14,-191.09 1281.74,-190.46"/>
<polygon fill="#63b8ff" stroke="#63b8ff" points="1282.1,-193.95 1291.82,-189.74 1281.6,-186.97 1282.1,-193.95"/>
</a>
</g>
</g>
<!-- Node36&#45;&gt;Node7 -->
<g id="edge42_Node000036_Node000007" class="edge">
<title>Node36&#45;&gt;Node7</title>
<g id="a_edge42_Node000036_Node000007"><a xlink:title=" ">
<path fill="none" stroke="#63b8ff" d="M1238.89,-213.59C1244.89,-216.12 1250.69,-219.07 1256,-222.5 1276.93,-236.03 1270.81,-252.37 1292,-265.5 1294.81,-267.24 1297.73,-268.85 1300.74,-270.35"/>
<polygon fill="#63b8ff" stroke="#63b8ff" points="1299.44,-273.6 1309.99,-274.5 1302.3,-267.21 1299.44,-273.6"/>
</a>
</g>
</g>
<!-- Node38 -->
<g id="Node000038" class="node">
<title>Node38</title>
<g id="a_Node000038"><a xlink:href="classcore_1_1socket_1_1SocketContext.html#a22f19b6279af079ad97b71eb08427b06" target="_top" xlink:title=" ">
<polygon fill="white" stroke="#666666" points="1469,-567.5 1317,-567.5 1317,-537.5 1469,-537.5 1469,-567.5"/>
<text text-anchor="start" x="1325" y="-555.5" font-family="Helvetica,sans-Serif" font-size="10.00">core::socket::SocketContext</text>
<text text-anchor="middle" x="1393" y="-544.5" font-family="Helvetica,sans-Serif" font-size="10.00">::sendToPeer</text>
</a>
</g>
</g>
<!-- Node37&#45;&gt;Node38 -->
<g id="edge44_Node000037_Node000038" class="edge">
<title>Node37&#45;&gt;Node38</title>
<g id="a_edge44_Node000037_Node000038"><a xlink:title=" ">
<path fill="none" stroke="#63b8ff" d="M1245.8,-552.5C1265.43,-552.5 1286.73,-552.5 1306.83,-552.5"/>
<polygon fill="#63b8ff" stroke="#63b8ff" points="1306.91,-556 1316.91,-552.5 1306.91,-549 1306.91,-556"/>
</a>
</g>
</g>
<!-- Node40 -->
<g id="Node000040" class="node">
<title>Node40</title>
<g id="a_Node000040"><a xlink:href="namespaceutils_1_1system.html#a629a1ebec50192eff5587cdd5d51bf20" target="_top" xlink:title=" ">
<polygon fill="white" stroke="#666666" points="1455,-519 1331,-519 1331,-500 1455,-500 1455,-519"/>
<text text-anchor="middle" x="1393" y="-507" font-family="Helvetica,sans-Serif" font-size="10.00">utils::system::gmtime</text>
</a>
</g>
</g>
<!-- Node39&#45;&gt;Node40 -->
<g id="edge47_Node000039_Node000040" class="edge">
<title>Node39&#45;&gt;Node40</title>
<g id="a_edge47_Node000039_Node000040"><a xlink:title=" ">
<path fill="none" stroke="#63b8ff" d="M1232.2,-509.5C1259.56,-509.5 1291.93,-509.5 1320.35,-509.5"/>
<polygon fill="#63b8ff" stroke="#63b8ff" points="1320.63,-513 1330.63,-509.5 1320.63,-506 1320.63,-513"/>
</a>
</g>
</g>
<!-- Node41 -->
<g id="Node000041" class="node">
<title>Node41</title>
<g id="a_Node000041"><a xlink:href="namespaceutils_1_1system.html#aa36252afed0ca4903feb511649270d1c" target="_top" xlink:title=" ">
<polygon fill="white" stroke="#666666" points="1447,-482 1339,-482 1339,-463 1447,-463 1447,-482"/>
<text text-anchor="middle" x="1393" y="-470" font-family="Helvetica,sans-Serif" font-size="10.00">utils::system::time</text>
</a>
</g>
</g>
<!-- Node39&#45;&gt;Node41 -->
<g id="edge48_Node000039_Node000041" class="edge">
<title>Node39&#45;&gt;Node41</title>
<g id="a_edge48_Node000039_Node000041"><a xlink:title=" ">
<path fill="none" stroke="#63b8ff" d="M1227.54,-499.97C1258.54,-494.79 1296.94,-488.38 1328.84,-483.05"/>
<polygon fill="#63b8ff" stroke="#63b8ff" points="1329.67,-486.46 1338.95,-481.36 1328.51,-479.56 1329.67,-486.46"/>
</a>
</g>
</g>
</g>
</svg>
