<?xml version="1.0" encoding="UTF-8" standalone="no"?>
<!DOCTYPE svg PUBLIC "-//W3C//DTD SVG 1.1//EN"
 "http://www.w3.org/Graphics/SVG/1.1/DTD/svg11.dtd">
<!-- Generated by graphviz version 2.42.4 (0)
 -->
<!-- Title: web::http::server::Response::stopResponse Pages: 1 -->
<svg width="627pt" height="76pt"
 viewBox="0.00 0.00 627.00 75.50" xmlns="http://www.w3.org/2000/svg" xmlns:xlink="http://www.w3.org/1999/xlink">
<g id="graph0" class="graph" transform="scale(1 1) rotate(0) translate(4 71.5)">
<title>web::http::server::Response::stopResponse</title>
<!-- Node1 -->
<g id="Node000001" class="node">
<title>Node1</title>
<g id="a_Node000001"><a xlink:title=" ">
<polygon fill="#999999" stroke="#666666" points="138,-51 0,-51 0,-21 138,-21 138,-51"/>
<text text-anchor="start" x="8" y="-39" font-family="Helvetica,sans-Serif" font-size="10.00">web::http::server::</text>
<text text-anchor="middle" x="69" y="-28" font-family="Helvetica,sans-Serif" font-size="10.00">Response::stopResponse</text>
</a>
</g>
</g>
<!-- Node2 -->
<g id="Node000002" class="node">
<title>Node2</title>
<g id="a_Node000002"><a xlink:href="classcore_1_1pipe_1_1Sink.html#a2b2ab7c9d68f73a6f2d79c7e10adc660" target="_top" xlink:title=" ">
<polygon fill="white" stroke="#666666" points="293,-45.5 174,-45.5 174,-26.5 293,-26.5 293,-45.5"/>
<text text-anchor="middle" x="233.5" y="-33.5" font-family="Helvetica,sans-Serif" font-size="10.00">core::pipe::Sink::stop</text>
</a>
</g>
</g>
<!-- Node1&#45;&gt;Node2 -->
<g id="edge1_Node000001_Node000002" class="edge">
<title>Node1&#45;&gt;Node2</title>
<g id="a_edge1_Node000001_Node000002"><a xlink:title=" ">
<path fill="none" stroke="#63b8ff" d="M138.44,-36C146.83,-36 155.4,-36 163.79,-36"/>
<polygon fill="#63b8ff" stroke="#63b8ff" points="163.91,-39.5 173.91,-36 163.91,-32.5 163.91,-39.5"/>
</a>
</g>
</g>
<!-- Node3 -->
<g id="Node000003" class="node">
<title>Node3</title>
<g id="a_Node000003"><a xlink:href="classcore_1_1pipe_1_1Source.html#aa435bf91173fd2039b8462044826df7c" target="_top" xlink:title=" ">
<polygon fill="white" stroke="#666666" points="433,-51 329,-51 329,-21 433,-21 433,-51"/>
<text text-anchor="start" x="337" y="-39" font-family="Helvetica,sans-Serif" font-size="10.00">core::pipe::Source</text>
<text text-anchor="middle" x="381" y="-28" font-family="Helvetica,sans-Serif" font-size="10.00">::disconnect</text>
</a>
</g>
</g>
<!-- Node2&#45;&gt;Node3 -->
<g id="edge2_Node000002_Node000003" class="edge">
<title>Node2&#45;&gt;Node3</title>
<g id="a_edge2_Node000002_Node000003"><a xlink:title=" ">
<path fill="none" stroke="#63b8ff" d="M293.26,-36C301.67,-36 310.34,-36 318.8,-36"/>
<polygon fill="#63b8ff" stroke="#63b8ff" points="318.98,-39.5 328.98,-36 318.98,-32.5 318.98,-39.5"/>
</a>
</g>
</g>
<!-- Node4 -->
<g id="Node000004" class="node">
<title>Node4</title>
<g id="a_Node000004"><a xlink:href="classcore_1_1pipe_1_1Sink.html#a9a1e49e75508e894158714e823db77e8" target="_top" xlink:title=" ">
<polygon fill="white" stroke="#666666" points="619,-67.5 469,-67.5 469,-48.5 619,-48.5 619,-67.5"/>
<text text-anchor="middle" x="544" y="-55.5" font-family="Helvetica,sans-Serif" font-size="10.00">core::pipe::Sink::disconnect</text>
</a>
</g>
</g>
<!-- Node3&#45;&gt;Node4 -->
<g id="edge3_Node000003_Node000004" class="edge">
<title>Node3&#45;&gt;Node4</title>
<g id="a_edge3_Node000003_Node000004"><a xlink:title=" ">
<path fill="none" stroke="#63b8ff" d="M433.38,-43.02C442.91,-44.32 453.06,-45.71 463.2,-47.1"/>
<polygon fill="#63b8ff" stroke="#63b8ff" points="462.93,-50.59 473.31,-48.48 463.88,-43.66 462.93,-50.59"/>
</a>
</g>
</g>
<!-- Node5 -->
<g id="Node000005" class="node">
<title>Node5</title>
<g id="a_Node000005"><a xlink:href="classcore_1_1pipe_1_1Source.html#a1f2713b56b2210fade76e3699d4bc95d" target="_top" xlink:title=" ">
<polygon fill="white" stroke="#666666" points="596,-30 492,-30 492,0 596,0 596,-30"/>
<text text-anchor="start" x="500" y="-18" font-family="Helvetica,sans-Serif" font-size="10.00">core::pipe::Source</text>
<text text-anchor="middle" x="544" y="-7" font-family="Helvetica,sans-Serif" font-size="10.00">::stop</text>
</a>
</g>
</g>
<!-- Node3&#45;&gt;Node5 -->
<g id="edge4_Node000003_Node000005" class="edge">
<title>Node3&#45;&gt;Node5</title>
<g id="a_edge4_Node000003_Node000005"><a xlink:title=" ">
<path fill="none" stroke="#63b8ff" d="M433.38,-29.3C448.71,-27.3 465.66,-25.09 481.56,-23.01"/>
<polygon fill="#63b8ff" stroke="#63b8ff" points="482.36,-26.44 491.83,-21.67 481.46,-19.5 482.36,-26.44"/>
</a>
</g>
</g>
</g>
</svg>
