<?xml version="1.0" encoding="UTF-8" standalone="no"?>
<!DOCTYPE svg PUBLIC "-//W3C//DTD SVG 1.1//EN"
 "http://www.w3.org/Graphics/SVG/1.1/DTD/svg11.dtd">
<!-- Generated by graphviz version 14.1.2 (0)
 -->
<!-- Title: net::in::SocketAddress::toString Pages: 1 -->
<!--zoomable 236 -->

<svg id="main" version="1.1" xmlns="http://www.w3.org/2000/svg" xmlns:xlink="http://www.w3.org/1999/xlink" xml:space="preserve" onload="init(evt)">

<style type="text/css"><![CDATA[
.node, .edge {opacity: 0.7;}
.node.selected, .edge.selected {opacity: 1;}
.edge:hover path { stroke: red; }
.edge:hover polygon { stroke: red; fill: red; }
]]></style>

<defs>
  <circle id="rim" cx="0" cy="0" r="7"/>
  <circle id="rim2" cx="0" cy="0" r="3.5"/>
  <g id="zoomPlus">
    <use xlink:href="#rim" fill="#404040"><set attributeName="fill" to="#808080" begin="zoomplus.mouseover" end="zoomplus.mouseout"/></use>
    <path d="M-4,0h8M0,-4v8" fill="none" stroke="white" stroke-width="1.5" pointer-events="none"/>
  </g>
  <g id="zoomMin">
    <use xlink:href="#rim" fill="#404040"><set attributeName="fill" to="#808080" begin="zoomminus.mouseover" end="zoomminus.mouseout"/></use>
    <path d="M-4,0h8" fill="none" stroke="white" stroke-width="1.5" pointer-events="none"/>
  </g>
  <g id="arrowUp" transform="translate(30 24)">
    <use xlink:href="#rim"/>
    <path pointer-events="none" fill="none" stroke="white" stroke-width="1.5" d="M0,-3.0v7 M-2.5,-0.5L0,-3.0L2.5,-0.5"/>
  </g>
  <g id="arrowRight" transform="rotate(90) translate(36 -43)">
    <use xlink:href="#rim"/>
    <path pointer-events="none" fill="none" stroke="white" stroke-width="1.5" d="M0,-3.0v7 M-2.5,-0.5L0,-3.0L2.5,-0.5"/>
  </g>
  <g id="arrowDown" transform="rotate(180) translate(-30 -48)">
    <use xlink:href="#rim"/>
    <path pointer-events="none" fill="none" stroke="white" stroke-width="1.5" d="M0,-3.0v7 M-2.5,-0.5L0,-3.0L2.5,-0.5"/>
  </g>
  <g id="arrowLeft" transform="rotate(270) translate(-36 17)">
    <use xlink:href="#rim"/>
    <path pointer-events="none" fill="none" stroke="white" stroke-width="1.5" d="M0,-3.0v7 M-2.5,-0.5L0,-3.0L2.5,-0.5"/>
  </g>
  <g id="resetDef">
    <use xlink:href="#rim2" fill="#404040"><set attributeName="fill" to="#808080" begin="reset.mouseover" end="reset.mouseout"/></use>
  </g>
</defs>
<script type="application/ecmascript">
var viewWidth = 622;
var viewHeight = 236;
var sectionId = 'dynsection-17';
</script>
<script type="application/ecmascript" xlink:href="svg.min.js"/>
<svg id="graph" class="graph">
<g id="viewport">
<title>net::in::SocketAddress::toString</title>
<!-- Node1 -->
<g id="Node000001" class="node">
<title>Node1</title>
<g id="a_Node000001"><a xlink:title=" ">
<polygon fill="#999999" stroke="#666666" points="613.75,-156.12 489.75,-156.12 489.75,-122.62 613.75,-122.62 613.75,-156.12"/>
<text xml:space="preserve" text-anchor="start" x="497.75" y="-142.62" font-family="Helvetica,sans-Serif" font-size="10.00">net::in::SocketAddress</text>
<text xml:space="preserve" text-anchor="middle" x="551.75" y="-129.88" font-family="Helvetica,sans-Serif" font-size="10.00">::toString</text>
</a>
</g>
</g>
<!-- Node2 -->
<g id="Node000002" class="node">
<title>Node2</title>
<g id="a_Node000002"><a xlink:href="namespacetls.html#ac9c248ad49fa1a968e28d6e1a4e1a1c0" target="_top" xlink:title=" ">
<polygon fill="white" stroke="#666666" points="426.75,-227.75 348.5,-227.75 348.5,-207 426.75,-207 426.75,-227.75"/>
<text xml:space="preserve" text-anchor="middle" x="387.62" y="-214.25" font-family="Helvetica,sans-Serif" font-size="10.00">tls::getClient</text>
</a>
</g>
</g>
<!-- Node1&#45;&gt;Node2 -->
<g id="edge1_Node000001_Node000002" class="edge">
<title>Node1&#45;&gt;Node2</title>
<g id="a_edge1_Node000001_Node000002"><a xlink:title=" ">
<path fill="none" stroke="#63b8ff" d="M516.6,-162.56C498.49,-174.13 475.53,-187.69 453.75,-197.38 445.32,-201.12 435.98,-204.44 427.07,-207.25"/>
<polygon fill="#63b8ff" stroke="#63b8ff" points="518.37,-165.58 524.85,-157.2 514.56,-159.71 518.37,-165.58"/>
</a>
</g>
</g>
<!-- Node4 -->
<g id="Node000004" class="node">
<title>Node4</title>
<g id="a_Node000004"><a xlink:href="namespacelegacy.html#af964e2e82f4d4b80cea76cf218ba671c" target="_top" xlink:title=" ">
<polygon fill="white" stroke="#666666" points="453.75,-188.75 321.5,-188.75 321.5,-168 453.75,-168 453.75,-188.75"/>
<text xml:space="preserve" text-anchor="middle" x="387.62" y="-175.25" font-family="Helvetica,sans-Serif" font-size="10.00">legacy::getLegacyClient</text>
</a>
</g>
</g>
<!-- Node1&#45;&gt;Node4 -->
<g id="edge3_Node000001_Node000004" class="edge">
<title>Node1&#45;&gt;Node4</title>
<g id="a_edge3_Node000001_Node000004"><a xlink:title=" ">
<path fill="none" stroke="#63b8ff" d="M478.5,-156.76C463.3,-160.41 447.69,-164.17 433.83,-167.5"/>
<polygon fill="#63b8ff" stroke="#63b8ff" points="479.08,-160.22 487.99,-154.47 477.44,-153.41 479.08,-160.22"/>
</a>
</g>
</g>
<!-- Node5 -->
<g id="Node000005" class="node">
<title>Node5</title>
<g id="a_Node000005"><a xlink:href="express__compat__server_8cpp.html#a0ddf1224851353fc92bfbff6f499fa97" target="_top" xlink:title=" ">
<polygon fill="white" stroke="#666666" points="408,-149.75 367.25,-149.75 367.25,-129 408,-129 408,-149.75"/>
<text xml:space="preserve" text-anchor="middle" x="387.62" y="-136.25" font-family="Helvetica,sans-Serif" font-size="10.00">main</text>
</a>
</g>
</g>
<!-- Node1&#45;&gt;Node5 -->
<g id="edge5_Node000001_Node000005" class="edge">
<title>Node1&#45;&gt;Node5</title>
<g id="a_edge5_Node000001_Node000005"><a xlink:title=" ">
<path fill="none" stroke="#63b8ff" d="M478.22,-139.38C452.66,-139.38 425.95,-139.38 408.42,-139.38"/>
<polygon fill="#63b8ff" stroke="#63b8ff" points="477.94,-142.88 487.94,-139.38 477.94,-135.88 477.94,-142.88"/>
</a>
</g>
</g>
<!-- Node6 -->
<g id="Node000006" class="node">
<title>Node6</title>
<g id="a_Node000006"><a xlink:href="namespaceexpress_1_1legacy_1_1in.html#a0e24c48e0e1eeb739c1529e1f8b10e1a" target="_top" xlink:title=" ">
<polygon fill="white" stroke="#666666" points="441,-111.12 334.25,-111.12 334.25,-77.62 441,-77.62 441,-111.12"/>
<text xml:space="preserve" text-anchor="start" x="342.25" y="-97.62" font-family="Helvetica,sans-Serif" font-size="10.00">express::legacy::in</text>
<text xml:space="preserve" text-anchor="middle" x="387.62" y="-84.88" font-family="Helvetica,sans-Serif" font-size="10.00">::Server</text>
</a>
</g>
</g>
<!-- Node1&#45;&gt;Node6 -->
<g id="edge6_Node000001_Node000006" class="edge">
<title>Node1&#45;&gt;Node6</title>
<g id="a_edge6_Node000001_Node000006"><a xlink:title=" ">
<path fill="none" stroke="#63b8ff" d="M478.53,-119.33C465.99,-115.85 453.15,-112.29 441.25,-108.98"/>
<polygon fill="#63b8ff" stroke="#63b8ff" points="477.43,-122.66 488,-121.96 479.3,-115.91 477.43,-122.66"/>
</a>
</g>
</g>
<!-- Node10 -->
<g id="Node000010" class="node">
<title>Node10</title>
<g id="a_Node000010"><a xlink:href="namespaceexpress_1_1tls_1_1in.html#a0d8f64d0d14fe37c5ebe8c0ef4b84916" target="_top" xlink:title=" ">
<polygon fill="white" stroke="#666666" points="450,-59.75 325.25,-59.75 325.25,-39 450,-39 450,-59.75"/>
<text xml:space="preserve" text-anchor="middle" x="387.62" y="-46.25" font-family="Helvetica,sans-Serif" font-size="10.00">express::tls::in::Server</text>
</a>
</g>
</g>
<!-- Node1&#45;&gt;Node10 -->
<g id="edge10_Node000001_Node000010" class="edge">
<title>Node1&#45;&gt;Node10</title>
<g id="a_edge10_Node000001_Node000010"><a xlink:title=" ">
<path fill="none" stroke="#63b8ff" d="M522.88,-114.9C504.35,-99.7 478.89,-80.76 453.75,-68.38 447.41,-65.25 440.47,-62.55 433.55,-60.24"/>
<polygon fill="#63b8ff" stroke="#63b8ff" points="520.56,-117.52 530.48,-121.26 525.06,-112.16 520.56,-117.52"/>
</a>
</g>
</g>
<!-- Node3 -->
<g id="Node000003" class="node">
<title>Node3</title>
<g id="a_Node000003"><a xlink:href="httplowlevelclient_8cpp.html#a0ddf1224851353fc92bfbff6f499fa97" target="_top" xlink:title=" ">
<polygon fill="white" stroke="#666666" points="243.5,-214.75 202.75,-214.75 202.75,-194 243.5,-194 243.5,-214.75"/>
<text xml:space="preserve" text-anchor="middle" x="223.12" y="-201.25" font-family="Helvetica,sans-Serif" font-size="10.00">main</text>
</a>
</g>
</g>
<!-- Node2&#45;&gt;Node3 -->
<g id="edge2_Node000002_Node000003" class="edge">
<title>Node2&#45;&gt;Node3</title>
<g id="a_edge2_Node000002_Node000003"><a xlink:title=" ">
<path fill="none" stroke="#63b8ff" d="M336.91,-213.4C305.47,-210.88 266.57,-207.77 243.64,-205.94"/>
<polygon fill="#63b8ff" stroke="#63b8ff" points="336.36,-216.86 346.61,-214.17 336.92,-209.89 336.36,-216.86"/>
</a>
</g>
</g>
<!-- Node4&#45;&gt;Node3 -->
<g id="edge4_Node000004_Node000003" class="edge">
<title>Node4&#45;&gt;Node3</title>
<g id="a_edge4_Node000004_Node000003"><a xlink:title=" ">
<path fill="none" stroke="#63b8ff" d="M310.24,-190.6C285.65,-194.53 260.46,-198.56 243.73,-201.24"/>
<polygon fill="#63b8ff" stroke="#63b8ff" points="310.65,-194.08 319.97,-189.04 309.54,-187.16 310.65,-194.08"/>
</a>
</g>
</g>
<!-- Node7 -->
<g id="Node000007" class="node">
<title>Node7</title>
<g id="a_Node000007"><a xlink:href="namespaceexpress_1_1legacy_1_1in.html#af0dee274b3e220c4d65670ca07a1f326" target="_top" xlink:title=" ">
<polygon fill="white" stroke="#666666" points="276.5,-163.12 169.75,-163.12 169.75,-129.62 276.5,-129.62 276.5,-163.12"/>
<text xml:space="preserve" text-anchor="start" x="177.75" y="-149.62" font-family="Helvetica,sans-Serif" font-size="10.00">express::legacy::in</text>
<text xml:space="preserve" text-anchor="middle" x="223.12" y="-136.88" font-family="Helvetica,sans-Serif" font-size="10.00">::Server</text>
</a>
</g>
</g>
<!-- Node6&#45;&gt;Node7 -->
<g id="edge7_Node000006_Node000007" class="edge">
<title>Node6&#45;&gt;Node7</title>
<g id="a_edge7_Node000006_Node000007"><a xlink:title=" ">
<path fill="none" stroke="#63b8ff" d="M322.95,-114.75C307.7,-119.63 291.59,-124.79 276.9,-129.49"/>
<polygon fill="#63b8ff" stroke="#63b8ff" points="323.97,-118.1 332.42,-111.72 321.83,-111.43 323.97,-118.1"/>
</a>
</g>
</g>
<!-- Node9 -->
<g id="Node000009" class="node">
<title>Node9</title>
<g id="a_Node000009"><a xlink:href="namespaceexpress_1_1legacy_1_1in.html#a27c5733e49595ff66cb64a06f3e281b8" target="_top" xlink:title=" ">
<polygon fill="white" stroke="#666666" points="276.5,-111.12 169.75,-111.12 169.75,-77.62 276.5,-77.62 276.5,-111.12"/>
<text xml:space="preserve" text-anchor="start" x="177.75" y="-97.62" font-family="Helvetica,sans-Serif" font-size="10.00">express::legacy::in</text>
<text xml:space="preserve" text-anchor="middle" x="223.12" y="-84.88" font-family="Helvetica,sans-Serif" font-size="10.00">::Server</text>
</a>
</g>
</g>
<!-- Node6&#45;&gt;Node9 -->
<g id="edge9_Node000006_Node000009" class="edge">
<title>Node6&#45;&gt;Node9</title>
<g id="a_edge9_Node000006_Node000009"><a xlink:title=" ">
<path fill="none" stroke="#63b8ff" d="M322.51,-94.38C307.39,-94.38 291.45,-94.38 276.9,-94.38"/>
<polygon fill="#63b8ff" stroke="#63b8ff" points="322.35,-97.88 332.35,-94.38 322.35,-90.88 322.35,-97.88"/>
</a>
</g>
</g>
<!-- Node8 -->
<g id="Node000008" class="node">
<title>Node8</title>
<g id="a_Node000008"><a xlink:href="namespaceexpress_1_1legacy_1_1in.html#a15455ec47f7d3e53a39baacb7f3f27c1" target="_top" xlink:title=" ">
<polygon fill="white" stroke="#666666" points="115.75,-163.12 9,-163.12 9,-129.62 115.75,-129.62 115.75,-163.12"/>
<text xml:space="preserve" text-anchor="start" x="17" y="-149.62" font-family="Helvetica,sans-Serif" font-size="10.00">express::legacy::in</text>
<text xml:space="preserve" text-anchor="middle" x="62.38" y="-136.88" font-family="Helvetica,sans-Serif" font-size="10.00">::Server</text>
</a>
</g>
</g>
<!-- Node7&#45;&gt;Node8 -->
<g id="edge8_Node000007_Node000008" class="edge">
<title>Node7&#45;&gt;Node8</title>
<g id="a_edge8_Node000007_Node000008"><a xlink:title=" ">
<path fill="none" stroke="#63b8ff" d="M157.79,-146.38C143.9,-146.38 129.38,-146.38 116.01,-146.38"/>
<polygon fill="#63b8ff" stroke="#63b8ff" points="157.75,-149.88 167.75,-146.38 157.75,-142.88 157.75,-149.88"/>
</a>
</g>
</g>
<!-- Node11 -->
<g id="Node000011" class="node">
<title>Node11</title>
<g id="a_Node000011"><a xlink:href="namespaceexpress_1_1tls_1_1in.html#a15a302db919946d45894481173db8280" target="_top" xlink:title=" ">
<polygon fill="white" stroke="#666666" points="285.5,-59.75 160.75,-59.75 160.75,-39 285.5,-39 285.5,-59.75"/>
<text xml:space="preserve" text-anchor="middle" x="223.12" y="-46.25" font-family="Helvetica,sans-Serif" font-size="10.00">express::tls::in::Server</text>
</a>
</g>
</g>
<!-- Node10&#45;&gt;Node11 -->
<g id="edge11_Node000010_Node000011" class="edge">
<title>Node10&#45;&gt;Node11</title>
<g id="a_edge11_Node000010_Node000011"><a xlink:title=" ">
<path fill="none" stroke="#63b8ff" d="M313.9,-49.38C304.56,-49.38 295.06,-49.38 285.92,-49.38"/>
<polygon fill="#63b8ff" stroke="#63b8ff" points="313.68,-52.88 323.68,-49.38 313.68,-45.88 313.68,-52.88"/>
</a>
</g>
</g>
<!-- Node13 -->
<g id="Node000013" class="node">
<title>Node13</title>
<g id="a_Node000013"><a xlink:href="namespaceexpress_1_1tls_1_1in.html#a9d41ebd121a8a4135423843f99c75dbb" target="_top" xlink:title=" ">
<polygon fill="white" stroke="#666666" points="285.5,-20.75 160.75,-20.75 160.75,0 285.5,0 285.5,-20.75"/>
<text xml:space="preserve" text-anchor="middle" x="223.12" y="-7.25" font-family="Helvetica,sans-Serif" font-size="10.00">express::tls::in::Server</text>
</a>
</g>
</g>
<!-- Node10&#45;&gt;Node13 -->
<g id="edge13_Node000010_Node000013" class="edge">
<title>Node10&#45;&gt;Node13</title>
<g id="a_edge13_Node000010_Node000013"><a xlink:title=" ">
<path fill="none" stroke="#63b8ff" d="M330.26,-35.85C310.37,-31.07 288.28,-25.77 269.43,-21.25"/>
<polygon fill="#63b8ff" stroke="#63b8ff" points="329.35,-39.23 339.89,-38.16 330.98,-32.42 329.35,-39.23"/>
</a>
</g>
</g>
<!-- Node12 -->
<g id="Node000012" class="node">
<title>Node12</title>
<g id="a_Node000012"><a xlink:href="namespaceexpress_1_1tls_1_1in.html#a65a880cfb5493ae93f610fa2a490484f" target="_top" xlink:title=" ">
<polygon fill="white" stroke="#666666" points="124.75,-59.75 0,-59.75 0,-39 124.75,-39 124.75,-59.75"/>
<text xml:space="preserve" text-anchor="middle" x="62.38" y="-46.25" font-family="Helvetica,sans-Serif" font-size="10.00">express::tls::in::Server</text>
</a>
</g>
</g>
<!-- Node11&#45;&gt;Node12 -->
<g id="edge12_Node000011_Node000012" class="edge">
<title>Node11&#45;&gt;Node12</title>
<g id="a_edge12_Node000011_Node000012"><a xlink:title=" ">
<path fill="none" stroke="#63b8ff" d="M149.04,-49.38C141.02,-49.38 132.9,-49.38 125.04,-49.38"/>
<polygon fill="#63b8ff" stroke="#63b8ff" points="148.78,-52.88 158.78,-49.38 148.78,-45.88 148.78,-52.88"/>
</a>
</g>
</g>
</g>
</svg>

<g id="navigator" transform="translate(0 0)" fill="#404254">
  <rect fill="#f2f5e9" fill-opacity="0.5" stroke="#606060" stroke-width=".5" x="0" y="0" width="60" height="60"/>
  <use id="zoomplus" xlink:href="#zoomPlus" x="17" y="9" onmousedown="handleZoom(evt,'in')"/>
  <use id="zoomminus" xlink:href="#zoomMin" x="42" y="9" onmousedown="handleZoom(evt,'out')"/>
  <use id="reset" xlink:href="#resetDef" x="30" y="36" onmousedown="handleReset()"/>
   <use id="arrowup" xlink:href="#arrowUp" x="0" y="0" onmousedown="handlePan(0,-1)"/>
  <use id="arrowright" xlink:href="#arrowRight" x="0" y="0" onmousedown="handlePan(1,0)"/>
  <use id="arrowdown" xlink:href="#arrowDown" x="0" y="0" onmousedown="handlePan(0,1)"/>
  <use id="arrowleft" xlink:href="#arrowLeft" x="0" y="0" onmousedown="handlePan(-1,0)"/>
</g>
<svg viewBox="0 0 15 15" width="100%" height="30px" preserveAspectRatio="xMaxYMin meet">
 <g id="arrow_out" transform="scale(0.3 0.3)">
  <a xlink:href="classnet_1_1in_1_1SocketAddress_af1acaf76ab09ffe9f4f23d39cc56d7f3_icgraph_org.svg" target="_base">
   <rect id="button" ry="5" rx="5" y="6" x="6" height="38" width="38"
        fill="#f2f5e9" fill-opacity="0.5" stroke="#606060" stroke-width="1.0"/>
   <path id="arrow"
     d="M 11.500037,31.436501 C 11.940474,20.09759 22.043105,11.32322 32.158766,21.979434 L 37.068811,17.246167 C 37.068811,17.246167 37.088388,32 37.088388,32 L 22.160133,31.978069 C 22.160133,31.978069 26.997745,27.140456 26.997745,27.140456 C 18.528582,18.264221 13.291696,25.230495 11.500037,31.436501 z"
     style="fill:#404040;"/>
  </a>
 </g>
</svg>

<style type='text/css'>
<![CDATA[
[data-mouse-over-selected='false'] { opacity: 0.7; }
[data-mouse-over-selected='true']  { opacity: 1.0; }
]]>
</style>
<script type="application/ecmascript"><![CDATA[
document.addEventListener('DOMContentLoaded', (event) => {
  highlightEdges();
  highlightAdjacentNodes();
});
]]></script>
</svg>
