<?xml version="1.0" encoding="UTF-8" standalone="no"?>
<!DOCTYPE svg PUBLIC "-//W3C//DTD SVG 1.1//EN"
 "http://www.w3.org/Graphics/SVG/1.1/DTD/svg11.dtd">
<!-- Generated by graphviz version 2.42.4 (0)
 -->
<!-- Title: core::eventreceiver::WriteEventReceiver::WriteEventReceiver Pages: 1 -->
<!--zoomable 233 -->

<svg id="main" version="1.1" xmlns="http://www.w3.org/2000/svg" xmlns:xlink="http://www.w3.org/1999/xlink" xml:space="preserve" onload="init(evt)">
<style type="text/css"><![CDATA[
.node, .edge {opacity: 0.7;}
.node.selected, .edge.selected {opacity: 1;}
.edge:hover path { stroke: red; }
.edge:hover polygon { stroke: red; fill: red; }
]]></style>

<defs>
  <circle id="rim" cx="0" cy="0" r="7"/>
  <circle id="rim2" cx="0" cy="0" r="3.5"/>
  <g id="zoomPlus">
    <use xlink:href="#rim" fill="#404040"><set attributeName="fill" to="#808080" begin="zoomplus.mouseover" end="zoomplus.mouseout"/></use>
    <path d="M-4,0h8M0,-4v8" fill="none" stroke="white" stroke-width="1.5" pointer-events="none"/>
  </g>
  <g id="zoomMin">
    <use xlink:href="#rim" fill="#404040"><set attributeName="fill" to="#808080" begin="zoomminus.mouseover" end="zoomminus.mouseout"/></use>
    <path d="M-4,0h8" fill="none" stroke="white" stroke-width="1.5" pointer-events="none"/>
  </g>
  <g id="arrowUp" transform="translate(30 24)">
    <use xlink:href="#rim"/>
    <path pointer-events="none" fill="none" stroke="white" stroke-width="1.5" d="M0,-3.0v7 M-2.5,-0.5L0,-3.0L2.5,-0.5"/>
  </g>
  <g id="arrowRight" transform="rotate(90) translate(36 -43)">
    <use xlink:href="#rim"/>
    <path pointer-events="none" fill="none" stroke="white" stroke-width="1.5" d="M0,-3.0v7 M-2.5,-0.5L0,-3.0L2.5,-0.5"/>
  </g>
  <g id="arrowDown" transform="rotate(180) translate(-30 -48)">
    <use xlink:href="#rim"/>
    <path pointer-events="none" fill="none" stroke="white" stroke-width="1.5" d="M0,-3.0v7 M-2.5,-0.5L0,-3.0L2.5,-0.5"/>
  </g>
  <g id="arrowLeft" transform="rotate(270) translate(-36 17)">
    <use xlink:href="#rim"/>
    <path pointer-events="none" fill="none" stroke="white" stroke-width="1.5" d="M0,-3.0v7 M-2.5,-0.5L0,-3.0L2.5,-0.5"/>
  </g>
  <g id="resetDef">
    <use xlink:href="#rim2" fill="#404040"><set attributeName="fill" to="#808080" begin="reset.mouseover" end="reset.mouseout"/></use>
  </g>
</defs>
<script type="application/ecmascript">
var viewWidth = 876;
var viewHeight = 233;
var sectionId = 'dynsection-3';
</script>
<script type="application/ecmascript" xlink:href="svg.min.js"/>
<svg id="graph" class="graph">
<g id="viewport">
<title>core::eventreceiver::WriteEventReceiver::WriteEventReceiver</title>
<!-- Node1 -->
<g id="Node000001" class="node">
<title>Node1</title>
<g id="a_Node000001"><a xlink:title=" ">
<polygon fill="#999999" stroke="#666666" points="868,-155 749,-155 749,-114 868,-114 868,-155"/>
<text text-anchor="start" x="757" y="-143" font-family="Helvetica,sans-Serif" font-size="10.00">core::eventreceiver</text>
<text text-anchor="start" x="757" y="-132" font-family="Helvetica,sans-Serif" font-size="10.00">::WriteEventReceiver</text>
<text text-anchor="middle" x="808.5" y="-121" font-family="Helvetica,sans-Serif" font-size="10.00">::WriteEventReceiver</text>
</a>
</g>
</g>
<!-- Node2 -->
<g id="Node000002" class="node">
<title>Node2</title>
<g id="a_Node000002"><a xlink:href="classcore_1_1pipe_1_1PipeSource.html#a6804eb1f9c27124f36a2bf37454af2c7" target="_top" xlink:title=" ">
<polygon fill="white" stroke="#666666" points="687,-224.5 562,-224.5 562,-194.5 687,-194.5 687,-224.5"/>
<text text-anchor="start" x="570" y="-212.5" font-family="Helvetica,sans-Serif" font-size="10.00">core::pipe::PipeSource</text>
<text text-anchor="middle" x="624.5" y="-201.5" font-family="Helvetica,sans-Serif" font-size="10.00">::PipeSource</text>
</a>
</g>
</g>
<!-- Node1&#45;&gt;Node2 -->
<g id="edge1_Node000001_Node000002" class="edge">
<title>Node1&#45;&gt;Node2</title>
<g id="a_edge1_Node000001_Node000002"><a xlink:title=" ">
<path fill="none" stroke="#63b8ff" d="M764.81,-160.2C748.93,-169.05 730.5,-178.48 713,-185.5 704.81,-188.78 696.02,-191.78 687.28,-194.45"/>
<polygon fill="#63b8ff" stroke="#63b8ff" points="766.87,-163.06 773.85,-155.09 763.42,-156.97 766.87,-163.06"/>
</a>
</g>
</g>
<!-- Node5 -->
<g id="Node000005" class="node">
<title>Node5</title>
<g id="a_Node000005"><a xlink:href="classcore_1_1socket_1_1stream_1_1SocketWriter.html#afa023211b7313ab80d92a705702a4f2e" target="_top" xlink:title=" ">
<polygon fill="white" stroke="#666666" points="701,-176.5 548,-176.5 548,-146.5 701,-146.5 701,-176.5"/>
<text text-anchor="start" x="556" y="-164.5" font-family="Helvetica,sans-Serif" font-size="10.00">core::socket::stream</text>
<text text-anchor="middle" x="624.5" y="-153.5" font-family="Helvetica,sans-Serif" font-size="10.00">::SocketWriter::SocketWriter</text>
</a>
</g>
</g>
<!-- Node1&#45;&gt;Node5 -->
<g id="edge4_Node000001_Node000005" class="edge">
<title>Node1&#45;&gt;Node5</title>
<g id="a_edge4_Node000001_Node000005"><a xlink:title=" ">
<path fill="none" stroke="#63b8ff" d="M738.78,-144.69C726.53,-146.51 713.71,-148.41 701.27,-150.26"/>
<polygon fill="#63b8ff" stroke="#63b8ff" points="739.53,-148.12 748.91,-143.19 738.51,-141.2 739.53,-148.12"/>
</a>
</g>
</g>
<!-- Node6 -->
<g id="Node000006" class="node">
<title>Node6</title>
<g id="a_Node000006"><a xlink:href="classcore_1_1socket_1_1stream_1_1tls_1_1TLSHandshake.html#a61e66727ff26660649083539c7a2495a" target="_top" xlink:title=" ">
<polygon fill="white" stroke="#666666" points="683.5,-128 565.5,-128 565.5,-87 683.5,-87 683.5,-128"/>
<text text-anchor="start" x="573.5" y="-116" font-family="Helvetica,sans-Serif" font-size="10.00">core::socket::stream</text>
<text text-anchor="start" x="573.5" y="-105" font-family="Helvetica,sans-Serif" font-size="10.00">::tls::TLSHandshake::</text>
<text text-anchor="middle" x="624.5" y="-94" font-family="Helvetica,sans-Serif" font-size="10.00">TLSHandshake</text>
</a>
</g>
</g>
<!-- Node1&#45;&gt;Node6 -->
<g id="edge5_Node000001_Node000006" class="edge">
<title>Node1&#45;&gt;Node6</title>
<g id="a_edge5_Node000001_Node000006"><a xlink:title=" ">
<path fill="none" stroke="#63b8ff" d="M738.95,-124.33C720.74,-121.63 701.26,-118.74 683.67,-116.13"/>
<polygon fill="#63b8ff" stroke="#63b8ff" points="738.51,-127.8 748.91,-125.81 739.53,-120.88 738.51,-127.8"/>
</a>
</g>
</g>
<!-- Node9 -->
<g id="Node000009" class="node">
<title>Node9</title>
<g id="a_Node000009"><a xlink:href="classcore_1_1socket_1_1stream_1_1tls_1_1TLSShutdown.html#a65af96d7ac042893046ff2332e47ae8e" target="_top" xlink:title=" ">
<polygon fill="white" stroke="#666666" points="713,-67.5 536,-67.5 536,-37.5 713,-37.5 713,-67.5"/>
<text text-anchor="start" x="544" y="-55.5" font-family="Helvetica,sans-Serif" font-size="10.00">core::socket::stream</text>
<text text-anchor="middle" x="624.5" y="-44.5" font-family="Helvetica,sans-Serif" font-size="10.00">::tls::TLSShutdown::TLSShutdown</text>
</a>
</g>
</g>
<!-- Node1&#45;&gt;Node9 -->
<g id="edge8_Node000001_Node000009" class="edge">
<title>Node1&#45;&gt;Node9</title>
<g id="a_edge8_Node000001_Node000009"><a xlink:title=" ">
<path fill="none" stroke="#63b8ff" d="M768.19,-108.26C751.64,-98 731.87,-86.75 713,-78.5 703.71,-74.44 693.59,-70.78 683.64,-67.59"/>
<polygon fill="#63b8ff" stroke="#63b8ff" points="766.7,-111.46 777.03,-113.83 770.43,-105.54 766.7,-111.46"/>
</a>
</g>
</g>
<!-- Node3 -->
<g id="Node000003" class="node">
<title>Node3</title>
<g id="a_Node000003"><a xlink:href="classcore_1_1pipe_1_1Pipe.html#af8d50ebf7c81a9e742ce1075773f63a9" target="_top" xlink:title=" ">
<polygon fill="white" stroke="#666666" points="473.5,-219 354.5,-219 354.5,-200 473.5,-200 473.5,-219"/>
<text text-anchor="middle" x="414" y="-207" font-family="Helvetica,sans-Serif" font-size="10.00">core::pipe::Pipe::Pipe</text>
</a>
</g>
</g>
<!-- Node2&#45;&gt;Node3 -->
<g id="edge2_Node000002_Node000003" class="edge">
<title>Node2&#45;&gt;Node3</title>
<g id="a_edge2_Node000002_Node000003"><a xlink:title=" ">
<path fill="none" stroke="#63b8ff" d="M551.47,-209.5C526.08,-209.5 497.85,-209.5 473.69,-209.5"/>
<polygon fill="#63b8ff" stroke="#63b8ff" points="551.79,-213 561.79,-209.5 551.79,-206 551.79,-213"/>
</a>
</g>
</g>
<!-- Node4 -->
<g id="Node000004" class="node">
<title>Node4</title>
<g id="a_Node000004"><a xlink:href="testpipe_8cpp.html#a0ddf1224851353fc92bfbff6f499fa97" target="_top" xlink:title=" ">
<polygon fill="white" stroke="#666666" points="248.5,-219 207.5,-219 207.5,-200 248.5,-200 248.5,-219"/>
<text text-anchor="middle" x="228" y="-207" font-family="Helvetica,sans-Serif" font-size="10.00">main</text>
</a>
</g>
</g>
<!-- Node3&#45;&gt;Node4 -->
<g id="edge3_Node000003_Node000004" class="edge">
<title>Node3&#45;&gt;Node4</title>
<g id="a_edge3_Node000003_Node000004"><a xlink:title=" ">
<path fill="none" stroke="#63b8ff" d="M343.91,-209.5C309.99,-209.5 271.63,-209.5 248.93,-209.5"/>
<polygon fill="#63b8ff" stroke="#63b8ff" points="344.28,-213 354.28,-209.5 344.28,-206 344.28,-213"/>
</a>
</g>
</g>
<!-- Node7 -->
<g id="Node000007" class="node">
<title>Node7</title>
<g id="a_Node000007"><a xlink:href="classcore_1_1socket_1_1stream_1_1tls_1_1TLSHandshake.html#a4fa969478e53adfb271cb6afcf86fd32" target="_top" xlink:title=" ">
<polygon fill="white" stroke="#666666" points="473,-128 355,-128 355,-87 473,-87 473,-128"/>
<text text-anchor="start" x="363" y="-116" font-family="Helvetica,sans-Serif" font-size="10.00">core::socket::stream</text>
<text text-anchor="start" x="363" y="-105" font-family="Helvetica,sans-Serif" font-size="10.00">::tls::TLSHandshake::</text>
<text text-anchor="middle" x="414" y="-94" font-family="Helvetica,sans-Serif" font-size="10.00">doHandshake</text>
</a>
</g>
</g>
<!-- Node6&#45;&gt;Node7 -->
<g id="edge6_Node000006_Node000007" class="edge">
<title>Node6&#45;&gt;Node7</title>
<g id="a_edge6_Node000006_Node000007"><a xlink:title=" ">
<path fill="none" stroke="#63b8ff" d="M555.07,-107.5C528.57,-107.5 498.56,-107.5 473.13,-107.5"/>
<polygon fill="#63b8ff" stroke="#63b8ff" points="555.42,-111 565.42,-107.5 555.42,-104 555.42,-111"/>
</a>
</g>
</g>
<!-- Node8 -->
<g id="Node000008" class="node">
<title>Node8</title>
<g id="a_Node000008"><a xlink:href="classcore_1_1socket_1_1stream_1_1tls_1_1SocketConnection.html#afbaea26dae9b2c40e01bdf20af96549f" target="_top" xlink:title=" ">
<polygon fill="white" stroke="#666666" points="292,-129 164,-129 164,-88 292,-88 292,-129"/>
<text text-anchor="start" x="172" y="-117" font-family="Helvetica,sans-Serif" font-size="10.00">core::socket::stream</text>
<text text-anchor="start" x="172" y="-106" font-family="Helvetica,sans-Serif" font-size="10.00">::tls::SocketConnection</text>
<text text-anchor="middle" x="228" y="-95" font-family="Helvetica,sans-Serif" font-size="10.00">::doSSLHandshake</text>
</a>
</g>
</g>
<!-- Node7&#45;&gt;Node8 -->
<g id="edge7_Node000007_Node000008" class="edge">
<title>Node7&#45;&gt;Node8</title>
<g id="a_edge7_Node000007_Node000008"><a xlink:title=" ">
<path fill="none" stroke="#63b8ff" d="M344.33,-107.87C327.26,-107.97 309.05,-108.06 292.26,-108.16"/>
<polygon fill="#63b8ff" stroke="#63b8ff" points="344.8,-111.37 354.78,-107.82 344.76,-104.37 344.8,-111.37"/>
</a>
</g>
</g>
<!-- Node10 -->
<g id="Node000010" class="node">
<title>Node10</title>
<g id="a_Node000010"><a xlink:href="classcore_1_1socket_1_1stream_1_1tls_1_1TLSShutdown.html#a3fa5f2766d74bdea0127800c7ba9d4e9" target="_top" xlink:title=" ">
<polygon fill="white" stroke="#666666" points="500,-66.5 328,-66.5 328,-36.5 500,-36.5 500,-66.5"/>
<text text-anchor="start" x="336" y="-54.5" font-family="Helvetica,sans-Serif" font-size="10.00">core::socket::stream</text>
<text text-anchor="middle" x="414" y="-43.5" font-family="Helvetica,sans-Serif" font-size="10.00">::tls::TLSShutdown::doShutdown</text>
</a>
</g>
</g>
<!-- Node9&#45;&gt;Node10 -->
<g id="edge9_Node000009_Node000010" class="edge">
<title>Node9&#45;&gt;Node10</title>
<g id="a_edge9_Node000009_Node000010"><a xlink:title=" ">
<path fill="none" stroke="#63b8ff" d="M525.96,-52.03C517.39,-51.99 508.75,-51.95 500.29,-51.91"/>
<polygon fill="#63b8ff" stroke="#63b8ff" points="525.97,-55.53 535.98,-52.08 526,-48.53 525.97,-55.53"/>
</a>
</g>
</g>
<!-- Node11 -->
<g id="Node000011" class="node">
<title>Node11</title>
<g id="a_Node000011"><a xlink:href="classcore_1_1socket_1_1stream_1_1tls_1_1SocketConnection.html#ab19cf9af01a4bd8c9a4cdd75e8265e62" target="_top" xlink:title=" ">
<polygon fill="white" stroke="#666666" points="292,-70 164,-70 164,-29 292,-29 292,-70"/>
<text text-anchor="start" x="172" y="-58" font-family="Helvetica,sans-Serif" font-size="10.00">core::socket::stream</text>
<text text-anchor="start" x="172" y="-47" font-family="Helvetica,sans-Serif" font-size="10.00">::tls::SocketConnection</text>
<text text-anchor="middle" x="228" y="-36" font-family="Helvetica,sans-Serif" font-size="10.00">::doSSLShutdown</text>
</a>
</g>
</g>
<!-- Node10&#45;&gt;Node11 -->
<g id="edge10_Node000010_Node000011" class="edge">
<title>Node10&#45;&gt;Node11</title>
<g id="a_edge10_Node000010_Node000011"><a xlink:title=" ">
<path fill="none" stroke="#63b8ff" d="M317.56,-50.46C308.9,-50.37 300.28,-50.27 292,-50.18"/>
<polygon fill="#63b8ff" stroke="#63b8ff" points="317.7,-53.96 327.73,-50.57 317.77,-46.96 317.7,-53.96"/>
</a>
</g>
</g>
<!-- Node12 -->
<g id="Node000012" class="node">
<title>Node12</title>
<g id="a_Node000012"><a xlink:href="classcore_1_1socket_1_1stream_1_1tls_1_1SocketConnection.html#aa4a33b9e037dd5f12086817db80501e4" target="_top" xlink:title=" ">
<polygon fill="white" stroke="#666666" points="128,-100 0,-100 0,-59 128,-59 128,-100"/>
<text text-anchor="start" x="8" y="-88" font-family="Helvetica,sans-Serif" font-size="10.00">core::socket::stream</text>
<text text-anchor="start" x="8" y="-77" font-family="Helvetica,sans-Serif" font-size="10.00">::tls::SocketConnection</text>
<text text-anchor="middle" x="64" y="-66" font-family="Helvetica,sans-Serif" font-size="10.00">::doWriteShutdown</text>
</a>
</g>
</g>
<!-- Node11&#45;&gt;Node12 -->
<g id="edge11_Node000011_Node000012" class="edge">
<title>Node11&#45;&gt;Node12</title>
<g id="a_edge11_Node000011_Node000012"><a xlink:title=" ">
<path fill="none" stroke="#63b8ff" d="M153.91,-63.04C145.32,-64.63 136.62,-66.24 128.19,-67.8"/>
<polygon fill="#63b8ff" stroke="#63b8ff" points="154.71,-66.45 163.9,-61.18 153.43,-59.56 154.71,-66.45"/>
</a>
</g>
</g>
<!-- Node13 -->
<g id="Node000013" class="node">
<title>Node13</title>
<g id="a_Node000013"><a xlink:href="classcore_1_1socket_1_1stream_1_1tls_1_1SocketConnection.html#ad2b4177906f93d2d7bd725d609d7fda2" target="_top" xlink:title=" ">
<polygon fill="white" stroke="#666666" points="128,-41 0,-41 0,0 128,0 128,-41"/>
<text text-anchor="start" x="8" y="-29" font-family="Helvetica,sans-Serif" font-size="10.00">core::socket::stream</text>
<text text-anchor="start" x="8" y="-18" font-family="Helvetica,sans-Serif" font-size="10.00">::tls::SocketConnection</text>
<text text-anchor="middle" x="64" y="-7" font-family="Helvetica,sans-Serif" font-size="10.00">::onReadShutdown</text>
</a>
</g>
</g>
<!-- Node11&#45;&gt;Node13 -->
<g id="edge12_Node000011_Node000013" class="edge">
<title>Node11&#45;&gt;Node13</title>
<g id="a_edge12_Node000011_Node000013"><a xlink:title=" ">
<path fill="none" stroke="#63b8ff" d="M153.91,-36.42C145.32,-34.88 136.62,-33.32 128.19,-31.81"/>
<polygon fill="#63b8ff" stroke="#63b8ff" points="153.44,-39.89 163.9,-38.2 154.68,-33 153.44,-39.89"/>
</a>
</g>
</g>
</g>
</svg>

<g id="navigator" transform="translate(0 0)" fill="#404254">
  <rect fill="#f2f5e9" fill-opacity="0.5" stroke="#606060" stroke-width=".5" x="0" y="0" width="60" height="60"/>
  <use id="zoomplus" xlink:href="#zoomPlus" x="17" y="9" onmousedown="handleZoom(evt,'in')"/>
  <use id="zoomminus" xlink:href="#zoomMin" x="42" y="9" onmousedown="handleZoom(evt,'out')"/>
  <use id="reset" xlink:href="#resetDef" x="30" y="36" onmousedown="handleReset()"/>
   <use id="arrowup" xlink:href="#arrowUp" x="0" y="0" onmousedown="handlePan(0,-1)"/>
  <use id="arrowright" xlink:href="#arrowRight" x="0" y="0" onmousedown="handlePan(1,0)"/>
  <use id="arrowdown" xlink:href="#arrowDown" x="0" y="0" onmousedown="handlePan(0,1)"/>
  <use id="arrowleft" xlink:href="#arrowLeft" x="0" y="0" onmousedown="handlePan(-1,0)"/>
</g>
<svg viewBox="0 0 15 15" width="100%" height="30px" preserveAspectRatio="xMaxYMin meet">
 <g id="arrow_out" transform="scale(0.3 0.3)">
  <a xlink:href="classcore_1_1eventreceiver_1_1WriteEventReceiver_aaae40b662157301c59d6477ba75f794f_icgraph_org.svg" target="_base">
   <rect id="button" ry="5" rx="5" y="6" x="6" height="38" width="38"
        fill="#f2f5e9" fill-opacity="0.5" stroke="#606060" stroke-width="1.0"/>
   <path id="arrow"
     d="M 11.500037,31.436501 C 11.940474,20.09759 22.043105,11.32322 32.158766,21.979434 L 37.068811,17.246167 C 37.068811,17.246167 37.088388,32 37.088388,32 L 22.160133,31.978069 C 22.160133,31.978069 26.997745,27.140456 26.997745,27.140456 C 18.528582,18.264221 13.291696,25.230495 11.500037,31.436501 z"
     style="fill:#404040;"/>
  </a>
 </g>
</svg>

<style type='text/css'>
<![CDATA[
[data-mouse-over-selected='false'] { opacity: 0.7; }
[data-mouse-over-selected='true']  { opacity: 1.0; }
]]>
</style>
<script type="application/ecmascript"><![CDATA[
document.addEventListener('DOMContentLoaded', (event) => {
  highlightEdges();
  highlightAdjacentNodes();
});
]]></script>
</svg>
