<?xml version="1.0" encoding="UTF-8" standalone="no"?>
<!DOCTYPE svg PUBLIC "-//W3C//DTD SVG 1.1//EN"
 "http://www.w3.org/Graphics/SVG/1.1/DTD/svg11.dtd">
<!-- Generated by graphviz version 14.1.2 (0)
 -->
<!-- Title: web::websocket::server::SocketContextUpgradeFactory::link Pages: 1 -->
<!--zoomable 170 -->

<svg id="main" version="1.1" xmlns="http://www.w3.org/2000/svg" xmlns:xlink="http://www.w3.org/1999/xlink" xml:space="preserve" onload="init(evt)">

<style type="text/css"><![CDATA[
.node, .edge {opacity: 0.7;}
.node.selected, .edge.selected {opacity: 1;}
.edge:hover path { stroke: red; }
.edge:hover polygon { stroke: red; fill: red; }
]]></style>

<defs>
  <circle id="rim" cx="0" cy="0" r="7"/>
  <circle id="rim2" cx="0" cy="0" r="3.5"/>
  <g id="zoomPlus">
    <use xlink:href="#rim" fill="#404040"><set attributeName="fill" to="#808080" begin="zoomplus.mouseover" end="zoomplus.mouseout"/></use>
    <path d="M-4,0h8M0,-4v8" fill="none" stroke="white" stroke-width="1.5" pointer-events="none"/>
  </g>
  <g id="zoomMin">
    <use xlink:href="#rim" fill="#404040"><set attributeName="fill" to="#808080" begin="zoomminus.mouseover" end="zoomminus.mouseout"/></use>
    <path d="M-4,0h8" fill="none" stroke="white" stroke-width="1.5" pointer-events="none"/>
  </g>
  <g id="arrowUp" transform="translate(30 24)">
    <use xlink:href="#rim"/>
    <path pointer-events="none" fill="none" stroke="white" stroke-width="1.5" d="M0,-3.0v7 M-2.5,-0.5L0,-3.0L2.5,-0.5"/>
  </g>
  <g id="arrowRight" transform="rotate(90) translate(36 -43)">
    <use xlink:href="#rim"/>
    <path pointer-events="none" fill="none" stroke="white" stroke-width="1.5" d="M0,-3.0v7 M-2.5,-0.5L0,-3.0L2.5,-0.5"/>
  </g>
  <g id="arrowDown" transform="rotate(180) translate(-30 -48)">
    <use xlink:href="#rim"/>
    <path pointer-events="none" fill="none" stroke="white" stroke-width="1.5" d="M0,-3.0v7 M-2.5,-0.5L0,-3.0L2.5,-0.5"/>
  </g>
  <g id="arrowLeft" transform="rotate(270) translate(-36 17)">
    <use xlink:href="#rim"/>
    <path pointer-events="none" fill="none" stroke="white" stroke-width="1.5" d="M0,-3.0v7 M-2.5,-0.5L0,-3.0L2.5,-0.5"/>
  </g>
  <g id="resetDef">
    <use xlink:href="#rim2" fill="#404040"><set attributeName="fill" to="#808080" begin="reset.mouseover" end="reset.mouseout"/></use>
  </g>
</defs>
<script type="application/ecmascript">
var viewWidth = 630;
var viewHeight = 170;
var sectionId = 'dynsection-4';
</script>
<script type="application/ecmascript" xlink:href="svg.min.js"/>
<svg id="graph" class="graph">
<g id="viewport">
<title>web::websocket::server::SocketContextUpgradeFactory::link</title>
<!-- Node1 -->
<g id="Node000001" class="node">
<title>Node1</title>
<g id="a_Node000001"><a xlink:title=" ">
<polygon fill="#999999" stroke="#666666" points="193,-68.88 0,-68.88 0,-35.38 193,-35.38 193,-68.88"/>
<text xml:space="preserve" text-anchor="start" x="8" y="-55.38" font-family="Helvetica,sans-Serif" font-size="10.00">web::websocket::server</text>
<text xml:space="preserve" text-anchor="middle" x="96.5" y="-42.62" font-family="Helvetica,sans-Serif" font-size="10.00">::SocketContextUpgradeFactory::link</text>
</a>
</g>
</g>
<!-- Node2 -->
<g id="Node000002" class="node">
<title>Node2</title>
<g id="a_Node000002"><a xlink:href="classweb_1_1http_1_1server_1_1SocketContextUpgradeFactory.html#a2e553e76ad8cc76fb226b7bb4c3c5aed" target="_top" xlink:title=" ">
<polygon fill="white" stroke="#666666" points="416,-97.88 229,-97.88 229,-64.38 416,-64.38 416,-97.88"/>
<text xml:space="preserve" text-anchor="start" x="237" y="-84.38" font-family="Helvetica,sans-Serif" font-size="10.00">web::http::server::</text>
<text xml:space="preserve" text-anchor="middle" x="322.5" y="-71.62" font-family="Helvetica,sans-Serif" font-size="10.00">SocketContextUpgradeFactory::link</text>
</a>
</g>
</g>
<!-- Node1&#45;&gt;Node2 -->
<g id="edge1_Node000001_Node000002" class="edge">
<title>Node1&#45;&gt;Node2</title>
<g id="a_edge1_Node000001_Node000002"><a xlink:title=" ">
<path fill="none" stroke="#63b8ff" d="M193.47,-64.55C201.38,-65.57 209.4,-66.61 217.36,-67.64"/>
<polygon fill="#63b8ff" stroke="#63b8ff" points="216.7,-71.09 227.07,-68.9 217.6,-64.14 216.7,-71.09"/>
</a>
</g>
</g>
<!-- Node5 -->
<g id="Node000005" class="node">
<title>Node5</title>
<g id="a_Node000005"><a xlink:href="namespaceweb_1_1websocket_1_1server.html#a099aa1974bc400775861d797a7c62062" target="_top" xlink:title=" ">
<polygon fill="white" stroke="#666666" points="410.38,-46.25 234.62,-46.25 234.62,0 410.38,0 410.38,-46.25"/>
<text xml:space="preserve" text-anchor="start" x="242.62" y="-32.75" font-family="Helvetica,sans-Serif" font-size="10.00">web::websocket::server</text>
<text xml:space="preserve" text-anchor="start" x="242.62" y="-20" font-family="Helvetica,sans-Serif" font-size="10.00">::websocketServerSocketContext</text>
<text xml:space="preserve" text-anchor="middle" x="322.5" y="-7.25" font-family="Helvetica,sans-Serif" font-size="10.00">UpgradeFactory</text>
</a>
</g>
</g>
<!-- Node1&#45;&gt;Node5 -->
<g id="edge4_Node000001_Node000005" class="edge">
<title>Node1&#45;&gt;Node5</title>
<g id="a_edge4_Node000001_Node000005"><a xlink:title=" ">
<path fill="none" stroke="#63b8ff" d="M193.47,-39.7C203.2,-38.44 213.1,-37.16 222.85,-35.9"/>
<polygon fill="#63b8ff" stroke="#63b8ff" points="223.26,-39.37 232.72,-34.62 222.36,-32.43 223.26,-39.37"/>
</a>
</g>
</g>
<!-- Node3 -->
<g id="Node000003" class="node">
<title>Node3</title>
<g id="a_Node000003"><a xlink:href="classweb_1_1http_1_1server_1_1SocketContextUpgradeFactorySelector.html#a568eb6d1145d9494f8b903609a59f0f0" target="_top" xlink:title=" ">
<polygon fill="white" stroke="#666666" points="618.75,-162.25 455,-162.25 455,-116 618.75,-116 618.75,-162.25"/>
<text xml:space="preserve" text-anchor="start" x="463" y="-148.75" font-family="Helvetica,sans-Serif" font-size="10.00">web::http::server::</text>
<text xml:space="preserve" text-anchor="start" x="463" y="-136" font-family="Helvetica,sans-Serif" font-size="10.00">SocketContextUpgradeFactory</text>
<text xml:space="preserve" text-anchor="middle" x="536.88" y="-123.25" font-family="Helvetica,sans-Serif" font-size="10.00">Selector::instance</text>
</a>
</g>
</g>
<!-- Node2&#45;&gt;Node3 -->
<g id="edge2_Node000002_Node000003" class="edge">
<title>Node2&#45;&gt;Node3</title>
<g id="a_edge2_Node000002_Node000003"><a xlink:title=" ">
<path fill="none" stroke="#63b8ff" d="M386.64,-98.37C404.61,-103.28 424.57,-108.73 443.88,-114"/>
<polygon fill="#63b8ff" stroke="#63b8ff" points="442.81,-117.34 453.38,-116.59 444.65,-110.58 442.81,-117.34"/>
</a>
</g>
</g>
<!-- Node4 -->
<g id="Node000004" class="node">
<title>Node4</title>
<g id="a_Node000004"><a xlink:href="classweb_1_1http_1_1SocketContextUpgradeFactorySelector.html#a19ba5c3c97ae9a0dfbff5da04158f5e2" target="_top" xlink:title=" ">
<polygon fill="white" stroke="#666666" points="615.38,-97.88 458.38,-97.88 458.38,-64.38 615.38,-64.38 615.38,-97.88"/>
<text xml:space="preserve" text-anchor="start" x="466.38" y="-84.38" font-family="Helvetica,sans-Serif" font-size="10.00">web::http::SocketContext</text>
<text xml:space="preserve" text-anchor="middle" x="536.88" y="-71.62" font-family="Helvetica,sans-Serif" font-size="10.00">UpgradeFactorySelector::link</text>
</a>
</g>
</g>
<!-- Node2&#45;&gt;Node4 -->
<g id="edge3_Node000002_Node000004" class="edge">
<title>Node2&#45;&gt;Node4</title>
<g id="a_edge3_Node000002_Node000004"><a xlink:title=" ">
<path fill="none" stroke="#63b8ff" d="M416.34,-81.12C426.48,-81.12 436.78,-81.12 446.87,-81.12"/>
<polygon fill="#63b8ff" stroke="#63b8ff" points="446.64,-84.63 456.64,-81.13 446.64,-77.63 446.64,-84.63"/>
</a>
</g>
</g>
<!-- Node6 -->
<g id="Node000006" class="node">
<title>Node6</title>
<g id="a_Node000006"><a xlink:href="classweb_1_1websocket_1_1server_1_1SocketContextUpgradeFactory.html#ac2a97a11151f74235d9b144139d83eb5" target="_top" xlink:title=" ">
<polygon fill="white" stroke="#666666" points="621.75,-46.25 452,-46.25 452,0 621.75,0 621.75,-46.25"/>
<text xml:space="preserve" text-anchor="start" x="460" y="-32.75" font-family="Helvetica,sans-Serif" font-size="10.00">web::websocket::server</text>
<text xml:space="preserve" text-anchor="start" x="460" y="-20" font-family="Helvetica,sans-Serif" font-size="10.00">::SocketContextUpgradeFactory</text>
<text xml:space="preserve" text-anchor="middle" x="536.88" y="-7.25" font-family="Helvetica,sans-Serif" font-size="10.00">::SocketContextUpgradeFactory</text>
</a>
</g>
</g>
<!-- Node5&#45;&gt;Node6 -->
<g id="edge5_Node000005_Node000006" class="edge">
<title>Node5&#45;&gt;Node6</title>
<g id="a_edge5_Node000005_Node000006"><a xlink:title=" ">
<path fill="none" stroke="#63b8ff" d="M410.8,-23.12C420.5,-23.12 430.42,-23.12 440.22,-23.12"/>
<polygon fill="#63b8ff" stroke="#63b8ff" points="440.14,-26.63 450.14,-23.13 440.14,-19.63 440.14,-26.63"/>
</a>
</g>
</g>
</g>
</svg>

<g id="navigator" transform="translate(0 0)" fill="#404254">
  <rect fill="#f2f5e9" fill-opacity="0.5" stroke="#606060" stroke-width=".5" x="0" y="0" width="60" height="60"/>
  <use id="zoomplus" xlink:href="#zoomPlus" x="17" y="9" onmousedown="handleZoom(evt,'in')"/>
  <use id="zoomminus" xlink:href="#zoomMin" x="42" y="9" onmousedown="handleZoom(evt,'out')"/>
  <use id="reset" xlink:href="#resetDef" x="30" y="36" onmousedown="handleReset()"/>
   <use id="arrowup" xlink:href="#arrowUp" x="0" y="0" onmousedown="handlePan(0,-1)"/>
  <use id="arrowright" xlink:href="#arrowRight" x="0" y="0" onmousedown="handlePan(1,0)"/>
  <use id="arrowdown" xlink:href="#arrowDown" x="0" y="0" onmousedown="handlePan(0,1)"/>
  <use id="arrowleft" xlink:href="#arrowLeft" x="0" y="0" onmousedown="handlePan(-1,0)"/>
</g>
<svg viewBox="0 0 15 15" width="100%" height="30px" preserveAspectRatio="xMaxYMin meet">
 <g id="arrow_out" transform="scale(0.3 0.3)">
  <a xlink:href="classweb_1_1websocket_1_1server_1_1SocketContextUpgradeFactory_abeb8c98b614660a16abc408397b96e76_cgraph_org.svg" target="_base">
   <rect id="button" ry="5" rx="5" y="6" x="6" height="38" width="38"
        fill="#f2f5e9" fill-opacity="0.5" stroke="#606060" stroke-width="1.0"/>
   <path id="arrow"
     d="M 11.500037,31.436501 C 11.940474,20.09759 22.043105,11.32322 32.158766,21.979434 L 37.068811,17.246167 C 37.068811,17.246167 37.088388,32 37.088388,32 L 22.160133,31.978069 C 22.160133,31.978069 26.997745,27.140456 26.997745,27.140456 C 18.528582,18.264221 13.291696,25.230495 11.500037,31.436501 z"
     style="fill:#404040;"/>
  </a>
 </g>
</svg>

<style type='text/css'>
<![CDATA[
[data-mouse-over-selected='false'] { opacity: 0.7; }
[data-mouse-over-selected='true']  { opacity: 1.0; }
]]>
</style>
<script type="application/ecmascript"><![CDATA[
document.addEventListener('DOMContentLoaded', (event) => {
  highlightEdges();
  highlightAdjacentNodes();
});
]]></script>
</svg>
