<?xml version="1.0" encoding="UTF-8" standalone="no"?>
<!DOCTYPE svg PUBLIC "-//W3C//DTD SVG 1.1//EN"
 "http://www.w3.org/Graphics/SVG/1.1/DTD/svg11.dtd">
<!-- Generated by graphviz version 2.42.4 (0)
 -->
<!-- Title: core::DescriptorEventReceiver::enable Pages: 1 -->
<svg width="560pt" height="266pt"
 viewBox="0.00 0.00 560.00 266.00" xmlns="http://www.w3.org/2000/svg" xmlns:xlink="http://www.w3.org/1999/xlink">
<g id="graph0" class="graph" transform="scale(1 1) rotate(0) translate(4 262)">
<title>core::DescriptorEventReceiver::enable</title>
<!-- Node1 -->
<g id="Node000001" class="node">
<title>Node1</title>
<g id="a_Node000001"><a xlink:title=" ">
<polygon fill="#999999" stroke="#666666" points="552,-138 401,-138 401,-108 552,-108 552,-138"/>
<text text-anchor="start" x="409" y="-126" font-family="Helvetica,sans-Serif" font-size="10.00">core::DescriptorEventReceiver</text>
<text text-anchor="middle" x="476.5" y="-115" font-family="Helvetica,sans-Serif" font-size="10.00">::enable</text>
</a>
</g>
</g>
<!-- Node2 -->
<g id="Node000002" class="node">
<title>Node2</title>
<g id="a_Node000002"><a xlink:href="classcore_1_1pipe_1_1PipeSink.html#abfdb292fe8bd66fac2a78dcefe678fdf" target="_top" xlink:title=" ">
<polygon fill="white" stroke="#666666" points="333,-240 229,-240 229,-210 333,-210 333,-240"/>
<text text-anchor="start" x="237" y="-228" font-family="Helvetica,sans-Serif" font-size="10.00">core::pipe::PipeSink</text>
<text text-anchor="middle" x="281" y="-217" font-family="Helvetica,sans-Serif" font-size="10.00">::PipeSink</text>
</a>
</g>
</g>
<!-- Node1&#45;&gt;Node2 -->
<g id="edge1_Node000001_Node000002" class="edge">
<title>Node1&#45;&gt;Node2</title>
<g id="a_edge1_Node000001_Node000002"><a xlink:title=" ">
<path fill="none" stroke="#63b8ff" d="M449.95,-144.79C428.5,-162.13 396.39,-185.91 365,-201 355,-205.81 343.84,-209.84 333.03,-213.15"/>
<polygon fill="#63b8ff" stroke="#63b8ff" points="452.4,-147.31 457.91,-138.26 447.96,-141.89 452.4,-147.31"/>
</a>
</g>
</g>
<!-- Node4 -->
<g id="Node000004" class="node">
<title>Node4</title>
<g id="a_Node000004"><a xlink:href="classcore_1_1pipe_1_1PipeSource.html#a6804eb1f9c27124f36a2bf37454af2c7" target="_top" xlink:title=" ">
<polygon fill="white" stroke="#666666" points="339,-174 223,-174 223,-144 339,-144 339,-174"/>
<text text-anchor="start" x="231" y="-162" font-family="Helvetica,sans-Serif" font-size="10.00">core::pipe::PipeSource</text>
<text text-anchor="middle" x="281" y="-151" font-family="Helvetica,sans-Serif" font-size="10.00">::PipeSource</text>
</a>
</g>
</g>
<!-- Node1&#45;&gt;Node4 -->
<g id="edge4_Node000001_Node000004" class="edge">
<title>Node1&#45;&gt;Node4</title>
<g id="a_edge4_Node000001_Node000004"><a xlink:title=" ">
<path fill="none" stroke="#63b8ff" d="M390.75,-138.77C373.28,-142.02 355.28,-145.37 339.07,-148.38"/>
<polygon fill="#63b8ff" stroke="#63b8ff" points="391.77,-142.14 400.96,-136.87 390.49,-135.26 391.77,-142.14"/>
</a>
</g>
</g>
<!-- Node5 -->
<g id="Node000005" class="node">
<title>Node5</title>
<g id="a_Node000005"><a xlink:href="classcore_1_1socket_1_1stream_1_1tls_1_1TLSHandshake.html#a61e66727ff26660649083539c7a2495a" target="_top" xlink:title=" ">
<polygon fill="white" stroke="#666666" points="337.5,-107.5 224.5,-107.5 224.5,-66.5 337.5,-66.5 337.5,-107.5"/>
<text text-anchor="start" x="232.5" y="-95.5" font-family="Helvetica,sans-Serif" font-size="10.00">core::socket::stream</text>
<text text-anchor="start" x="232.5" y="-84.5" font-family="Helvetica,sans-Serif" font-size="10.00">::tls::TLSHandshake::</text>
<text text-anchor="middle" x="281" y="-73.5" font-family="Helvetica,sans-Serif" font-size="10.00">TLSHandshake</text>
</a>
</g>
</g>
<!-- Node1&#45;&gt;Node5 -->
<g id="edge7_Node000001_Node000005" class="edge">
<title>Node1&#45;&gt;Node5</title>
<g id="a_edge7_Node000001_Node000005"><a xlink:title=" ">
<path fill="none" stroke="#63b8ff" d="M390.99,-107.28C372.9,-103.91 354.23,-100.44 337.57,-97.34"/>
<polygon fill="#63b8ff" stroke="#63b8ff" points="390.49,-110.74 400.96,-109.13 391.77,-103.86 390.49,-110.74"/>
</a>
</g>
</g>
<!-- Node7 -->
<g id="Node000007" class="node">
<title>Node7</title>
<g id="a_Node000007"><a xlink:href="classcore_1_1socket_1_1stream_1_1tls_1_1TLSShutdown.html#a65af96d7ac042893046ff2332e47ae8e" target="_top" xlink:title=" ">
<polygon fill="white" stroke="#666666" points="365,-30 197,-30 197,0 365,0 365,-30"/>
<text text-anchor="start" x="205" y="-18" font-family="Helvetica,sans-Serif" font-size="10.00">core::socket::stream</text>
<text text-anchor="middle" x="281" y="-7" font-family="Helvetica,sans-Serif" font-size="10.00">::tls::TLSShutdown::TLSShutdown</text>
</a>
</g>
</g>
<!-- Node1&#45;&gt;Node7 -->
<g id="edge10_Node000001_Node000007" class="edge">
<title>Node1&#45;&gt;Node7</title>
<g id="a_edge10_Node000001_Node000007"><a xlink:title=" ">
<path fill="none" stroke="#63b8ff" d="M442.66,-102.56C420.86,-89.2 391.49,-71.59 365,-57 348.02,-47.65 328.73,-37.84 313.01,-30.05"/>
<polygon fill="#63b8ff" stroke="#63b8ff" points="440.86,-105.56 451.21,-107.82 444.52,-99.6 440.86,-105.56"/>
</a>
</g>
</g>
<!-- Node2&#45;&gt;Node2 -->
<g id="edge3_Node000002_Node000002" class="edge">
<title>Node2&#45;&gt;Node2</title>
<g id="a_edge3_Node000002_Node000002"><a xlink:title=" ">
<path fill="none" stroke="#63b8ff" d="M314.96,-250.6C310.32,-254.97 299,-258 281,-258 250.69,-258 239.32,-249.41 246.9,-240.28"/>
<polygon fill="#63b8ff" stroke="#63b8ff" points="318.46,-250.32 315.1,-240.28 311.46,-250.23 318.46,-250.32"/>
</a>
</g>
</g>
<!-- Node3 -->
<g id="Node000003" class="node">
<title>Node3</title>
<g id="a_Node000003"><a xlink:href="classcore_1_1pipe_1_1Pipe.html#af8d50ebf7c81a9e742ce1075773f63a9" target="_top" xlink:title=" ">
<polygon fill="white" stroke="#666666" points="135.5,-201.5 25.5,-201.5 25.5,-182.5 135.5,-182.5 135.5,-201.5"/>
<text text-anchor="middle" x="80.5" y="-189.5" font-family="Helvetica,sans-Serif" font-size="10.00">core::pipe::Pipe::Pipe</text>
</a>
</g>
</g>
<!-- Node2&#45;&gt;Node3 -->
<g id="edge2_Node000002_Node000003" class="edge">
<title>Node2&#45;&gt;Node3</title>
<g id="a_edge2_Node000002_Node000003"><a xlink:title=" ">
<path fill="none" stroke="#63b8ff" d="M218.91,-214.84C192.29,-210.42 161.35,-205.27 135.57,-200.99"/>
<polygon fill="#63b8ff" stroke="#63b8ff" points="218.44,-218.31 228.88,-216.5 219.59,-211.41 218.44,-218.31"/>
</a>
</g>
</g>
<!-- Node4&#45;&gt;Node3 -->
<g id="edge5_Node000004_Node000003" class="edge">
<title>Node4&#45;&gt;Node3</title>
<g id="a_edge5_Node000004_Node000003"><a xlink:title=" ">
<path fill="none" stroke="#63b8ff" d="M212.65,-170.2C187.51,-174.38 159.31,-179.06 135.52,-183.02"/>
<polygon fill="#63b8ff" stroke="#63b8ff" points="213.56,-173.59 222.85,-168.5 212.41,-166.69 213.56,-173.59"/>
</a>
</g>
</g>
<!-- Node4&#45;&gt;Node4 -->
<g id="edge6_Node000004_Node000004" class="edge">
<title>Node4&#45;&gt;Node4</title>
<g id="a_edge6_Node000004_Node000004"><a xlink:title=" ">
<path fill="none" stroke="#63b8ff" d="M314.96,-184.6C310.32,-188.97 299,-192 281,-192 250.69,-192 239.32,-183.41 246.9,-174.28"/>
<polygon fill="#63b8ff" stroke="#63b8ff" points="318.46,-184.32 315.1,-174.28 311.46,-184.23 318.46,-184.32"/>
</a>
</g>
</g>
<!-- Node5&#45;&gt;Node5 -->
<g id="edge9_Node000005_Node000005" class="edge">
<title>Node5&#45;&gt;Node5</title>
<g id="a_edge9_Node000005_Node000005"><a xlink:title=" ">
<path fill="none" stroke="#63b8ff" d="M314.38,-117.46C309.41,-122.24 298.29,-125.5 281,-125.5 253.34,-125.5 241.45,-117.15 245.34,-107.6"/>
<polygon fill="#63b8ff" stroke="#63b8ff" points="317.81,-118.13 316.66,-107.6 310.99,-116.55 317.81,-118.13"/>
</a>
</g>
</g>
<!-- Node6 -->
<g id="Node000006" class="node">
<title>Node6</title>
<g id="a_Node000006"><a xlink:href="classcore_1_1socket_1_1stream_1_1tls_1_1TLSHandshake.html#a4fa969478e53adfb271cb6afcf86fd32" target="_top" xlink:title=" ">
<polygon fill="white" stroke="#666666" points="137,-107.5 24,-107.5 24,-66.5 137,-66.5 137,-107.5"/>
<text text-anchor="start" x="32" y="-95.5" font-family="Helvetica,sans-Serif" font-size="10.00">core::socket::stream</text>
<text text-anchor="start" x="32" y="-84.5" font-family="Helvetica,sans-Serif" font-size="10.00">::tls::TLSHandshake::</text>
<text text-anchor="middle" x="80.5" y="-73.5" font-family="Helvetica,sans-Serif" font-size="10.00">doHandshake</text>
</a>
</g>
</g>
<!-- Node5&#45;&gt;Node6 -->
<g id="edge8_Node000005_Node000006" class="edge">
<title>Node5&#45;&gt;Node6</title>
<g id="a_edge8_Node000005_Node000006"><a xlink:title=" ">
<path fill="none" stroke="#63b8ff" d="M214.3,-87C189.28,-87 161.03,-87 137.04,-87"/>
<polygon fill="#63b8ff" stroke="#63b8ff" points="214.44,-90.5 224.44,-87 214.44,-83.5 214.44,-90.5"/>
</a>
</g>
</g>
<!-- Node7&#45;&gt;Node7 -->
<g id="edge12_Node000007_Node000007" class="edge">
<title>Node7&#45;&gt;Node7</title>
<g id="a_edge12_Node000007_Node000007"><a xlink:title=" ">
<path fill="none" stroke="#63b8ff" d="M314.96,-40.6C310.32,-44.97 299,-48 281,-48 250.69,-48 239.32,-39.41 246.9,-30.28"/>
<polygon fill="#63b8ff" stroke="#63b8ff" points="318.46,-40.32 315.1,-30.28 311.46,-40.23 318.46,-40.32"/>
</a>
</g>
</g>
<!-- Node8 -->
<g id="Node000008" class="node">
<title>Node8</title>
<g id="a_Node000008"><a xlink:href="classcore_1_1socket_1_1stream_1_1tls_1_1TLSShutdown.html#a3fa5f2766d74bdea0127800c7ba9d4e9" target="_top" xlink:title=" ">
<polygon fill="white" stroke="#666666" points="161,-30 0,-30 0,0 161,0 161,-30"/>
<text text-anchor="start" x="8" y="-18" font-family="Helvetica,sans-Serif" font-size="10.00">core::socket::stream</text>
<text text-anchor="middle" x="80.5" y="-7" font-family="Helvetica,sans-Serif" font-size="10.00">::tls::TLSShutdown::doShutdown</text>
</a>
</g>
</g>
<!-- Node7&#45;&gt;Node8 -->
<g id="edge11_Node000007_Node000008" class="edge">
<title>Node7&#45;&gt;Node8</title>
<g id="a_edge11_Node000007_Node000008"><a xlink:title=" ">
<path fill="none" stroke="#63b8ff" d="M186.87,-15C178.23,-15 169.52,-15 161.02,-15"/>
<polygon fill="#63b8ff" stroke="#63b8ff" points="186.97,-18.5 196.97,-15 186.97,-11.5 186.97,-18.5"/>
</a>
</g>
</g>
</g>
</svg>
