<?xml version="1.0" encoding="UTF-8" standalone="no"?>
<!DOCTYPE svg PUBLIC "-//W3C//DTD SVG 1.1//EN"
 "http://www.w3.org/Graphics/SVG/1.1/DTD/svg11.dtd">
<!-- Generated by graphviz version 2.42.4 (0)
 -->
<!-- Title: core::socket::stream::legacy::SocketAcceptor&lt; PhysicalServerSocketT, ConfigT &gt; Pages: 1 -->
<!--zoomable 951 -->

<svg id="main" version="1.1" xmlns="http://www.w3.org/2000/svg" xmlns:xlink="http://www.w3.org/1999/xlink" xml:space="preserve" onload="init(evt)">
<style type="text/css"><![CDATA[
.node, .edge {opacity: 0.7;}
.node.selected, .edge.selected {opacity: 1;}
.edge:hover path { stroke: red; }
.edge:hover polygon { stroke: red; fill: red; }
]]></style>

<defs>
  <circle id="rim" cx="0" cy="0" r="7"/>
  <circle id="rim2" cx="0" cy="0" r="3.5"/>
  <g id="zoomPlus">
    <use xlink:href="#rim" fill="#404040"><set attributeName="fill" to="#808080" begin="zoomplus.mouseover" end="zoomplus.mouseout"/></use>
    <path d="M-4,0h8M0,-4v8" fill="none" stroke="white" stroke-width="1.5" pointer-events="none"/>
  </g>
  <g id="zoomMin">
    <use xlink:href="#rim" fill="#404040"><set attributeName="fill" to="#808080" begin="zoomminus.mouseover" end="zoomminus.mouseout"/></use>
    <path d="M-4,0h8" fill="none" stroke="white" stroke-width="1.5" pointer-events="none"/>
  </g>
  <g id="arrowUp" transform="translate(30 24)">
    <use xlink:href="#rim"/>
    <path pointer-events="none" fill="none" stroke="white" stroke-width="1.5" d="M0,-3.0v7 M-2.5,-0.5L0,-3.0L2.5,-0.5"/>
  </g>
  <g id="arrowRight" transform="rotate(90) translate(36 -43)">
    <use xlink:href="#rim"/>
    <path pointer-events="none" fill="none" stroke="white" stroke-width="1.5" d="M0,-3.0v7 M-2.5,-0.5L0,-3.0L2.5,-0.5"/>
  </g>
  <g id="arrowDown" transform="rotate(180) translate(-30 -48)">
    <use xlink:href="#rim"/>
    <path pointer-events="none" fill="none" stroke="white" stroke-width="1.5" d="M0,-3.0v7 M-2.5,-0.5L0,-3.0L2.5,-0.5"/>
  </g>
  <g id="arrowLeft" transform="rotate(270) translate(-36 17)">
    <use xlink:href="#rim"/>
    <path pointer-events="none" fill="none" stroke="white" stroke-width="1.5" d="M0,-3.0v7 M-2.5,-0.5L0,-3.0L2.5,-0.5"/>
  </g>
  <g id="resetDef">
    <use xlink:href="#rim2" fill="#404040"><set attributeName="fill" to="#808080" begin="reset.mouseover" end="reset.mouseout"/></use>
  </g>
</defs>
<script type="application/ecmascript">
var viewWidth = 1195;
var viewHeight = 951;
var sectionId = 'dynsection-1';
</script>
<script type="application/ecmascript" xlink:href="svg.min.js"/>
<svg id="graph" class="graph">
<g id="viewport">
<title>core::socket::stream::legacy::SocketAcceptor&lt; PhysicalServerSocketT, ConfigT &gt;</title>
<!-- Node1 -->
<g id="Node000001" class="node">
<title>Node1</title>
<g id="a_Node000001"><a xlink:title=" ">
<polygon fill="#999999" stroke="transparent" points="1023,-580 889,-580 889,-528 1023,-528 1023,-580"/>
<text text-anchor="start" x="893.5" y="-568" font-family="Helvetica,sans-Serif" font-size="10.00">core::socket::stream</text>
<text text-anchor="start" x="893.5" y="-557" font-family="Helvetica,sans-Serif" font-size="10.00">::legacy::SocketAcceptor</text>
<text text-anchor="start" x="893.5" y="-546" font-family="Helvetica,sans-Serif" font-size="10.00">&lt; PhysicalServerSocketT,</text>
<text text-anchor="start" x="930" y="-535" font-family="Helvetica,sans-Serif" font-size="10.00"> ConfigT &gt;</text>
<polygon fill="none" stroke="#666666" points="889,-528 889,-580 1023,-580 1023,-528 889,-528"/>
</a>
</g>
</g>
<!-- Node2 -->
<g id="Node000002" class="node">
<title>Node2</title>
<g id="a_Node000002"><a xlink:href="classcore_1_1socket_1_1stream_1_1SocketAcceptor.html" target="_top" xlink:title=" ">
<polygon fill="white" stroke="transparent" points="1052,-679 860,-679 860,-627 1052,-627 1052,-679"/>
<text text-anchor="start" x="864.5" y="-667" font-family="Helvetica,sans-Serif" font-size="10.00">core::socket::stream</text>
<text text-anchor="start" x="864.5" y="-656" font-family="Helvetica,sans-Serif" font-size="10.00">::SocketAcceptor&lt; PhysicalServer</text>
<text text-anchor="start" x="864.5" y="-645" font-family="Helvetica,sans-Serif" font-size="10.00">SocketT, ConfigT, core::socket</text>
<text text-anchor="start" x="864.5" y="-634" font-family="Helvetica,sans-Serif" font-size="10.00">::stream::legacy::SocketConnection &gt;</text>
<polygon fill="none" stroke="#666666" points="860,-627 860,-679 1052,-679 1052,-627 860,-627"/>
</a>
</g>
</g>
<!-- Node2&#45;&gt;Node1 -->
<g id="edge1_Node000001_Node000002" class="edge">
<title>Node2&#45;&gt;Node1</title>
<g id="a_edge1_Node000001_Node000002"><a xlink:title=" ">
<path fill="none" stroke="#8b1a1a" d="M956,-616.53C956,-604.45 956,-591.2 956,-580.11"/>
<polygon fill="none" stroke="#8b1a1a" points="952.5,-616.77 956,-626.77 959.5,-616.77 952.5,-616.77"/>
</a>
</g>
</g>
<!-- Node3 -->
<g id="Node000003" class="node">
<title>Node3</title>
<g id="a_Node000003"><a xlink:href="classcore_1_1eventreceiver_1_1AcceptEventReceiver.html" target="_top" xlink:title=" ">
<polygon fill="white" stroke="transparent" points="850,-772.5 732,-772.5 732,-742.5 850,-742.5 850,-772.5"/>
<text text-anchor="start" x="736" y="-760.5" font-family="Helvetica,sans-Serif" font-size="10.00">core::eventreceiver</text>
<text text-anchor="start" x="736" y="-749.5" font-family="Helvetica,sans-Serif" font-size="10.00">::AcceptEventReceiver</text>
<polygon fill="none" stroke="#666666" points="732,-742.5 732,-772.5 850,-772.5 850,-742.5 732,-742.5"/>
</a>
</g>
</g>
<!-- Node3&#45;&gt;Node2 -->
<g id="edge2_Node000002_Node000003" class="edge">
<title>Node3&#45;&gt;Node2</title>
<g id="a_edge2_Node000002_Node000003"><a xlink:title=" ">
<path fill="none" stroke="darkgreen" d="M822.09,-737.18C848.57,-720.74 886.79,-696.99 915.62,-679.08"/>
<polygon fill="none" stroke="darkgreen" points="820.24,-734.21 813.6,-742.46 823.94,-740.16 820.24,-734.21"/>
</a>
</g>
</g>
<!-- Node4 -->
<g id="Node000004" class="node">
<title>Node4</title>
<g id="a_Node000004"><a xlink:href="classcore_1_1DescriptorEventReceiver.html" target="_top" xlink:title=" ">
<polygon fill="white" stroke="transparent" points="447,-849.5 291,-849.5 291,-830.5 447,-830.5 447,-849.5"/>
<text text-anchor="start" x="295" y="-837" font-family="Helvetica,sans-Serif" font-size="10.00">core::DescriptorEventReceiver</text>
<polygon fill="none" stroke="#666666" points="291,-830.5 291,-849.5 447,-849.5 447,-830.5 291,-830.5"/>
</a>
</g>
</g>
<!-- Node4&#45;&gt;Node3 -->
<g id="edge3_Node000003_Node000004" class="edge">
<title>Node4&#45;&gt;Node3</title>
<g id="a_edge3_Node000003_Node000004"><a xlink:title=" ">
<path fill="none" stroke="#63b8ff" d="M443.6,-829.03C515.45,-818.74 626.93,-800.97 722,-778 728.9,-776.33 736.14,-774.44 743.24,-772.51"/>
<polygon fill="none" stroke="#63b8ff" points="442.7,-825.62 433.29,-830.49 443.68,-832.55 442.7,-825.62"/>
</a>
</g>
</g>
<!-- Node14 -->
<g id="Node000014" class="node">
<title>Node14</title>
<g id="a_Node000014"><a xlink:title=" ">
<polygon fill="white" stroke="transparent" points="713,-772.5 579,-772.5 579,-742.5 713,-742.5 713,-772.5"/>
<text text-anchor="start" x="583.5" y="-760.5" font-family="Helvetica,sans-Serif" font-size="10.00">std::list&lt; core::Descriptor</text>
<text text-anchor="start" x="600.5" y="-749.5" font-family="Helvetica,sans-Serif" font-size="10.00">EventReceiver * &gt;</text>
<polygon fill="none" stroke="#666666" points="579,-742.5 579,-772.5 713,-772.5 713,-742.5 579,-742.5"/>
</a>
</g>
</g>
<!-- Node4&#45;&gt;Node14 -->
<g id="edge15_Node000014_Node000004" class="edge">
<title>Node4&#45;&gt;Node14</title>
<g id="a_edge15_Node000014_Node000004"><a xlink:title=" ">
<path fill="none" stroke="#63b8ff" d="M398.38,-830.46C442.87,-817.53 528.25,-792.72 586.17,-775.89"/>
<polygon fill="none" stroke="#63b8ff" points="586.21,-775.88 590.85,-770.36 597.73,-772.53 593.08,-778.04 586.21,-775.88"/>
</a>
</g>
<text text-anchor="middle" x="545" y="-799" font-family="Helvetica,sans-Serif" font-size="10.00" fill="grey"> +elements</text>
</g>
<!-- Node5 -->
<g id="Node000005" class="node">
<title>Node5</title>
<g id="a_Node000005"><a xlink:href="classcore_1_1Observer.html" target="_top" xlink:title=" ">
<polygon fill="white" stroke="transparent" points="409,-943 329,-943 329,-924 409,-924 409,-943"/>
<text text-anchor="start" x="333" y="-930.5" font-family="Helvetica,sans-Serif" font-size="10.00">core::Observer</text>
<polygon fill="none" stroke="#666666" points="329,-924 329,-943 409,-943 409,-924 329,-924"/>
</a>
</g>
</g>
<!-- Node5&#45;&gt;Node4 -->
<g id="edge4_Node000004_Node000005" class="edge">
<title>Node5&#45;&gt;Node4</title>
<g id="a_edge4_Node000004_Node000005"><a xlink:title=" ">
<path fill="none" stroke="darkgreen" d="M369,-913.54C369,-893.92 369,-864.16 369,-849.61"/>
<polygon fill="none" stroke="darkgreen" points="365.5,-913.73 369,-923.73 372.5,-913.73 365.5,-913.73"/>
</a>
</g>
</g>
<!-- Node6 -->
<g id="Node000006" class="node">
<title>Node6</title>
<g id="a_Node000006"><a xlink:href="classcore_1_1EventReceiver.html" target="_top" xlink:title=" ">
<polygon fill="white" stroke="transparent" points="403,-261 297,-261 297,-242 403,-242 403,-261"/>
<text text-anchor="start" x="301" y="-248.5" font-family="Helvetica,sans-Serif" font-size="10.00">core::EventReceiver</text>
<polygon fill="none" stroke="#666666" points="297,-242 297,-261 403,-261 403,-242 297,-242"/>
</a>
</g>
</g>
<!-- Node6&#45;&gt;Node4 -->
<g id="edge5_Node000004_Node000006" class="edge">
<title>Node6&#45;&gt;Node4</title>
<g id="a_edge5_Node000004_Node000006"><a xlink:title=" ">
<path fill="none" stroke="#63b8ff" d="M341.56,-270.7C336.48,-283.28 331,-300.56 331,-316.5 331,-758.5 331,-758.5 331,-758.5 331,-786.94 350.63,-816.08 361.67,-830.23"/>
<polygon fill="none" stroke="#63b8ff" points="344.83,-271.94 345.59,-261.37 338.41,-269.16 344.83,-271.94"/>
</a>
</g>
</g>
<!-- Node7 -->
<g id="Node000007" class="node">
<title>Node7</title>
<g id="a_Node000007"><a xlink:href="classcore_1_1Event.html" target="_top" xlink:title=" ">
<polygon fill="white" stroke="transparent" points="497,-327 433,-327 433,-308 497,-308 497,-327"/>
<text text-anchor="start" x="437.5" y="-314.5" font-family="Helvetica,sans-Serif" font-size="10.00">core::Event</text>
<polygon fill="none" stroke="#666666" points="433,-308 433,-327 497,-327 497,-308 433,-308"/>
</a>
</g>
</g>
<!-- Node6&#45;&gt;Node7 -->
<g id="edge9_Node000007_Node000006" class="edge">
<title>Node6&#45;&gt;Node7</title>
<g id="a_edge9_Node000007_Node000006"><a xlink:title=" ">
<path fill="none" stroke="#63b8ff" d="M350.18,-261.19C350.84,-269.7 353.19,-282.46 361,-290 376.84,-305.28 400.21,-312.11 420.79,-315.02"/>
<polygon fill="none" stroke="#63b8ff" points="420.9,-315.03 427.3,-311.71 432.82,-316.34 426.42,-319.66 420.9,-315.03"/>
</a>
</g>
<text text-anchor="middle" x="400" y="-282" font-family="Helvetica,sans-Serif" font-size="10.00" fill="grey"> &#45;eventReceiver</text>
</g>
<!-- Node18 -->
<g id="Node000018" class="node">
<title>Node18</title>
<g id="a_Node000018"><a xlink:href="classcore_1_1TimerEventReceiver.html" target="_top" xlink:title=" ">
<polygon fill="white" stroke="transparent" points="373,-178.5 239,-178.5 239,-159.5 373,-159.5 373,-178.5"/>
<text text-anchor="start" x="243" y="-166" font-family="Helvetica,sans-Serif" font-size="10.00">core::TimerEventReceiver</text>
<polygon fill="none" stroke="#666666" points="239,-159.5 239,-178.5 373,-178.5 373,-159.5 239,-159.5"/>
</a>
</g>
</g>
<!-- Node6&#45;&gt;Node18 -->
<g id="edge22_Node000018_Node000006" class="edge">
<title>Node6&#45;&gt;Node18</title>
<g id="a_edge22_Node000018_Node000006"><a xlink:title=" ">
<path fill="none" stroke="#63b8ff" d="M340.49,-233.1C331.35,-216.38 317.91,-191.79 310.81,-178.8"/>
<polygon fill="none" stroke="#63b8ff" points="337.42,-234.79 345.29,-241.89 343.57,-231.43 337.42,-234.79"/>
</a>
</g>
</g>
<!-- Node7&#45;&gt;Node6 -->
<g id="edge6_Node000006_Node000007" class="edge">
<title>Node7&#45;&gt;Node6</title>
<g id="a_edge6_Node000006_Node000007"><a xlink:title=" ">
<path fill="none" stroke="#63b8ff" d="M462.07,-307.75C458.76,-299.19 452.55,-286.39 443,-279 434.8,-272.65 425.13,-267.82 415.19,-264.14"/>
<polygon fill="none" stroke="#63b8ff" points="414.88,-264.04 407.94,-266 403.46,-260.34 410.4,-258.39 414.88,-264.04"/>
</a>
</g>
<text text-anchor="middle" x="470.5" y="-282" font-family="Helvetica,sans-Serif" font-size="10.00" fill="grey"> &#45;event</text>
</g>
<!-- Node23 -->
<g id="Node000023" class="node">
<title>Node23</title>
<g id="a_Node000023"><a xlink:title=" ">
<polygon fill="white" stroke="transparent" points="570,-261 440,-261 440,-242 570,-242 570,-261"/>
<text text-anchor="start" x="444" y="-248.5" font-family="Helvetica,sans-Serif" font-size="10.00">std::list&lt; core::Event * &gt;</text>
<polygon fill="none" stroke="#666666" points="440,-242 440,-261 570,-261 570,-242 440,-242"/>
</a>
</g>
</g>
<!-- Node7&#45;&gt;Node23 -->
<g id="edge31_Node000023_Node000007" class="edge">
<title>Node7&#45;&gt;Node23</title>
<g id="a_edge31_Node000023_Node000007"><a xlink:title=" ">
<path fill="none" stroke="#63b8ff" d="M482.25,-307.93C489.24,-303.55 496.67,-297.54 501,-290 503.86,-285.02 505.23,-279.04 505.8,-273.35"/>
<polygon fill="none" stroke="#63b8ff" points="505.8,-273.14 501.89,-267.08 505.97,-261.14 509.89,-267.2 505.8,-273.14"/>
</a>
</g>
<text text-anchor="middle" x="534" y="-282" font-family="Helvetica,sans-Serif" font-size="10.00" fill="grey"> +elements</text>
</g>
<!-- Node8 -->
<g id="Node000008" class="node">
<title>Node8</title>
<g id="a_Node000008"><a xlink:title=" ">
<polygon fill="white" stroke="transparent" points="492,-662.5 434,-662.5 434,-643.5 492,-643.5 492,-662.5"/>
<text text-anchor="start" x="438.5" y="-650" font-family="Helvetica,sans-Serif" font-size="10.00">std::string</text>
<polygon fill="none" stroke="#666666" points="434,-643.5 434,-662.5 492,-662.5 492,-643.5 434,-643.5"/>
</a>
</g>
</g>
<!-- Node8&#45;&gt;Node7 -->
<g id="edge7_Node000007_Node000008" class="edge">
<title>Node8&#45;&gt;Node7</title>
<g id="a_edge7_Node000007_Node000008"><a xlink:title=" ">
<path fill="none" stroke="#63b8ff" d="M463,-643.44C463,-626.53 463,-587.67 463,-555 463,-555 463,-555 463,-382.5 463,-368.12 463.51,-351.94 464.02,-339.44"/>
<polygon fill="none" stroke="#63b8ff" points="464.03,-339.18 460.3,-333.01 464.56,-327.19 468.29,-333.36 464.03,-339.18"/>
</a>
</g>
<text text-anchor="middle" x="480.5" y="-452.5" font-family="Helvetica,sans-Serif" font-size="10.00" fill="grey"> &#45;name</text>
</g>
<!-- Node12 -->
<g id="Node000012" class="node">
<title>Node12</title>
<g id="a_Node000012"><a xlink:href="classcore_1_1DescriptorEventPublisher.html" target="_top" xlink:title=" ">
<polygon fill="white" stroke="transparent" points="674,-563.5 514,-563.5 514,-544.5 674,-544.5 674,-563.5"/>
<text text-anchor="start" x="518.5" y="-551" font-family="Helvetica,sans-Serif" font-size="10.00">core::DescriptorEventPublisher</text>
<polygon fill="none" stroke="#666666" points="514,-544.5 514,-563.5 674,-563.5 674,-544.5 514,-544.5"/>
</a>
</g>
</g>
<!-- Node8&#45;&gt;Node12 -->
<g id="edge16_Node000012_Node000008" class="edge">
<title>Node8&#45;&gt;Node12</title>
<g id="a_edge16_Node000012_Node000008"><a xlink:title=" ">
<path fill="none" stroke="#63b8ff" d="M474.63,-643.39C496.61,-627.11 544.59,-591.59 572.57,-570.87"/>
<polygon fill="none" stroke="#63b8ff" points="572.57,-570.87 575.01,-564.08 582.21,-563.73 579.77,-570.51 572.57,-570.87"/>
</a>
</g>
<text text-anchor="middle" x="550.5" y="-601" font-family="Helvetica,sans-Serif" font-size="10.00" fill="grey"> &#45;name</text>
</g>
<!-- Node9 -->
<g id="Node000009" class="node">
<title>Node9</title>
<g id="a_Node000009"><a xlink:title=" ">
<polygon fill="white" stroke="transparent" points="561,-772.5 465,-772.5 465,-742.5 561,-742.5 561,-772.5"/>
<text text-anchor="start" x="469" y="-760.5" font-family="Helvetica,sans-Serif" font-size="10.00">std::basic_string&lt;</text>
<text text-anchor="start" x="494.5" y="-749.5" font-family="Helvetica,sans-Serif" font-size="10.00"> Char &gt;</text>
<polygon fill="none" stroke="#666666" points="465,-742.5 465,-772.5 561,-772.5 561,-742.5 465,-742.5"/>
</a>
</g>
</g>
<!-- Node9&#45;&gt;Node8 -->
<g id="edge8_Node000008_Node000009" class="edge">
<title>Node9&#45;&gt;Node8</title>
<g id="a_edge8_Node000008_Node000009"><a xlink:title=" ">
<path fill="none" stroke="#63b8ff" d="M509.92,-732.22C507.85,-721.07 504.47,-707.93 499,-697 492.29,-683.59 480.62,-670.75 472.39,-662.65"/>
<polygon fill="none" stroke="#63b8ff" points="506.47,-732.85 511.52,-742.16 513.38,-731.73 506.47,-732.85"/>
</a>
</g>
</g>
<!-- Node10 -->
<g id="Node000010" class="node">
<title>Node10</title>
<g id="a_Node000010"><a xlink:href="classcore_1_1EventMultiplexer.html" target="_top" xlink:title=" ">
<polygon fill="white" stroke="transparent" points="661,-393 541,-393 541,-374 661,-374 661,-393"/>
<text text-anchor="start" x="545.5" y="-380.5" font-family="Helvetica,sans-Serif" font-size="10.00">core::EventMultiplexer</text>
<polygon fill="none" stroke="#666666" points="541,-374 541,-393 661,-393 661,-374 541,-374"/>
</a>
</g>
</g>
<!-- Node10&#45;&gt;Node7 -->
<g id="edge10_Node000007_Node000010" class="edge">
<title>Node10&#45;&gt;Node7</title>
<g id="a_edge10_Node000007_Node000010"><a xlink:title=" ">
<path fill="none" stroke="#63b8ff" d="M541.51,-373.96C526.24,-370.04 510.37,-364.32 497,-356 489.37,-351.25 482.62,-344.09 477.3,-337.29"/>
<polygon fill="none" stroke="#63b8ff" points="477.17,-337.1 470.43,-334.52 470.22,-327.31 476.96,-329.89 477.17,-337.1"/>
</a>
</g>
<text text-anchor="middle" x="542.5" y="-348" font-family="Helvetica,sans-Serif" font-size="10.00" fill="grey"> &#45;eventMultiplexer</text>
</g>
<!-- Node11 -->
<g id="Node000011" class="node">
<title>Node11</title>
<g id="a_Node000011"><a xlink:title=" ">
<polygon fill="white" stroke="transparent" points="667,-470 523,-470 523,-440 667,-440 667,-470"/>
<text text-anchor="start" x="527" y="-458" font-family="Helvetica,sans-Serif" font-size="10.00">std::array&lt; core::Descriptor</text>
<text text-anchor="start" x="542.5" y="-447" font-family="Helvetica,sans-Serif" font-size="10.00">EventPublisher *, 3 &gt;</text>
<polygon fill="none" stroke="#666666" points="523,-440 523,-470 667,-470 667,-440 523,-440"/>
</a>
</g>
</g>
<!-- Node11&#45;&gt;Node10 -->
<g id="edge11_Node000010_Node000011" class="edge">
<title>Node11&#45;&gt;Node10</title>
<g id="a_edge11_Node000010_Node000011"><a xlink:title=" ">
<path fill="none" stroke="#63b8ff" d="M596.21,-439.94C597.07,-430.01 598.23,-416.54 599.2,-405.37"/>
<polygon fill="none" stroke="#63b8ff" points="599.21,-405.22 595.74,-398.9 600.24,-393.27 603.71,-399.59 599.21,-405.22"/>
</a>
</g>
<text text-anchor="middle" x="667.5" y="-414" font-family="Helvetica,sans-Serif" font-size="10.00" fill="grey"> #descriptorEventPublishers</text>
</g>
<!-- Node12&#45;&gt;Node4 -->
<g id="edge32_Node000004_Node000012" class="edge">
<title>Node12&#45;&gt;Node4</title>
<g id="a_edge32_Node000004_Node000012"><a xlink:title=" ">
<path fill="none" stroke="#63b8ff" d="M556.1,-563.5C499.2,-578.72 395.28,-616.84 366,-697 351.02,-738 358.2,-790.2 364.04,-818.51"/>
<polygon fill="none" stroke="#63b8ff" points="364.07,-818.62 369.29,-823.59 366.71,-830.33 361.49,-825.35 364.07,-818.62"/>
</a>
</g>
<text text-anchor="middle" x="430.5" y="-705.5" font-family="Helvetica,sans-Serif" font-size="10.00" fill="grey"> &#45;descriptorEventPublisher</text>
</g>
<!-- Node12&#45;&gt;Node11 -->
<g id="edge12_Node000011_Node000012" class="edge">
<title>Node12&#45;&gt;Node11</title>
<g id="a_edge12_Node000011_Node000012"><a xlink:title=" ">
<path fill="none" stroke="#63b8ff" d="M594.09,-544.39C594.23,-530.63 594.51,-503.14 594.73,-482.44"/>
<polygon fill="none" stroke="#63b8ff" points="594.73,-482.33 590.79,-476.29 594.85,-470.33 598.79,-476.37 594.73,-482.33"/>
</a>
</g>
<text text-anchor="middle" x="623" y="-496.5" font-family="Helvetica,sans-Serif" font-size="10.00" fill="grey"> +elements</text>
</g>
<!-- Node13 -->
<g id="Node000013" class="node">
<title>Node13</title>
<g id="a_Node000013"><a xlink:title=" ">
<polygon fill="white" stroke="transparent" points="842,-673.5 696,-673.5 696,-632.5 842,-632.5 842,-673.5"/>
<text text-anchor="start" x="700" y="-661" font-family="Helvetica,sans-Serif" font-size="10.00">std::map&lt; int, std</text>
<text text-anchor="start" x="700" y="-650" font-family="Helvetica,sans-Serif" font-size="10.00">::list&lt; core::DescriptorEvent</text>
<text text-anchor="start" x="732" y="-639" font-family="Helvetica,sans-Serif" font-size="10.00">Receiver * &gt; &gt;</text>
<polygon fill="none" stroke="#666666" points="696,-632.5 696,-673.5 842,-673.5 842,-632.5 696,-632.5"/>
</a>
</g>
</g>
<!-- Node13&#45;&gt;Node12 -->
<g id="edge13_Node000012_Node000013" class="edge">
<title>Node13&#45;&gt;Node12</title>
<g id="a_edge13_Node000012_Node000013"><a xlink:title=" ">
<path fill="none" stroke="#63b8ff" d="M755.64,-632.44C746.94,-621.01 734.7,-607.08 721,-598 699.09,-583.48 671.8,-573.4 648.14,-566.67"/>
<polygon fill="none" stroke="#63b8ff" points="648.09,-566.66 641.25,-568.96 636.5,-563.54 643.33,-561.24 648.09,-566.66"/>
</a>
</g>
<text text-anchor="middle" x="808" y="-601" font-family="Helvetica,sans-Serif" font-size="10.00" fill="grey"> #observedEventReceiverLists</text>
</g>
<!-- Node14&#45;&gt;Node13 -->
<g id="edge14_Node000013_Node000014" class="edge">
<title>Node14&#45;&gt;Node13</title>
<g id="a_edge14_Node000013_Node000014"><a xlink:title=" ">
<path fill="none" stroke="#63b8ff" d="M662.84,-742.46C681.58,-726.85 712.31,-701.24 735.9,-681.58"/>
<polygon fill="none" stroke="#63b8ff" points="735.98,-681.52 738.03,-674.61 745.2,-673.84 743.15,-680.75 735.98,-681.52"/>
</a>
</g>
<text text-anchor="middle" x="743" y="-705.5" font-family="Helvetica,sans-Serif" font-size="10.00" fill="grey"> +elements</text>
</g>
<!-- Node15 -->
<g id="Node000015" class="node">
<title>Node15</title>
<g id="a_Node000015"><a xlink:title=" ">
<polygon fill="white" stroke="transparent" points="678,-679 510,-679 510,-627 678,-627 678,-679"/>
<text text-anchor="start" x="514" y="-667" font-family="Helvetica,sans-Serif" font-size="10.00">std::map&lt; std::list</text>
<text text-anchor="start" x="514" y="-656" font-family="Helvetica,sans-Serif" font-size="10.00">&lt; core::DescriptorEventReceiver</text>
<text text-anchor="start" x="514" y="-645" font-family="Helvetica,sans-Serif" font-size="10.00"> * &gt; *, std::list&lt; core::Descriptor</text>
<text text-anchor="start" x="543" y="-634" font-family="Helvetica,sans-Serif" font-size="10.00">EventReceiver * &gt; &gt;</text>
<polygon fill="none" stroke="#666666" points="510,-627 510,-679 678,-679 678,-627 510,-627"/>
</a>
</g>
</g>
<!-- Node14&#45;&gt;Node15 -->
<g id="edge18_Node000015_Node000014" class="edge">
<title>Node14&#45;&gt;Node15</title>
<g id="a_edge18_Node000015_Node000014"><a xlink:title=" ">
<path fill="none" stroke="#63b8ff" d="M637.8,-742.37C633.83,-735.4 629.05,-726.82 625,-719 620.22,-709.76 615.27,-699.67 610.77,-690.25"/>
<polygon fill="none" stroke="#63b8ff" points="610.67,-690.04 604.49,-686.32 605.54,-679.19 611.73,-682.91 610.67,-690.04"/>
</a>
</g>
<text text-anchor="middle" x="654" y="-711" font-family="Helvetica,sans-Serif" font-size="10.00" fill="grey"> +elements</text>
<text text-anchor="middle" x="654" y="-700" font-family="Helvetica,sans-Serif" font-size="10.00" fill="grey">+keys</text>
</g>
<!-- Node15&#45;&gt;Node12 -->
<g id="edge17_Node000012_Node000015" class="edge">
<title>Node15&#45;&gt;Node12</title>
<g id="a_edge17_Node000012_Node000015"><a xlink:title=" ">
<path fill="none" stroke="#63b8ff" d="M594,-626.77C594,-611.11 594,-591.22 594,-576.35"/>
<polygon fill="none" stroke="#63b8ff" points="594,-575.94 590,-569.94 594,-563.94 598,-569.94 594,-575.94"/>
</a>
</g>
<text text-anchor="middle" x="655.5" y="-601" font-family="Helvetica,sans-Serif" font-size="10.00" fill="grey"> &#45;dirtyEventReceiverLists</text>
</g>
<!-- Node16 -->
<g id="Node000016" class="node">
<title>Node16</title>
<g id="a_Node000016"><a xlink:href="classcore_1_1TimerEventPublisher.html" target="_top" xlink:title=" ">
<polygon fill="white" stroke="transparent" points="483,-19 347,-19 347,0 483,0 483,-19"/>
<text text-anchor="start" x="351" y="-6.5" font-family="Helvetica,sans-Serif" font-size="10.00">core::TimerEventPublisher</text>
<polygon fill="none" stroke="#666666" points="347,0 347,-19 483,-19 483,0 347,0"/>
</a>
</g>
</g>
<!-- Node16&#45;&gt;Node10 -->
<g id="edge19_Node000010_Node000016" class="edge">
<title>Node16&#45;&gt;Node10</title>
<g id="a_edge19_Node000010_Node000016"><a xlink:title=" ">
<path fill="none" stroke="#63b8ff" d="M483.04,-11.3C536.51,-15.97 602,-32.51 602,-85.5 602,-318.5 602,-318.5 602,-318.5 602,-332.87 601.74,-349.06 601.49,-361.55"/>
<polygon fill="none" stroke="#63b8ff" points="601.49,-361.81 605.35,-367.89 601.22,-373.81 597.36,-367.72 601.49,-361.81"/>
</a>
</g>
<text text-anchor="middle" x="655" y="-210.5" font-family="Helvetica,sans-Serif" font-size="10.00" fill="grey"> &#45;timerEventPublisher</text>
</g>
<!-- Node16&#45;&gt;Node18 -->
<g id="edge23_Node000018_Node000016" class="edge">
<title>Node16&#45;&gt;Node18</title>
<g id="a_edge23_Node000018_Node000016"><a xlink:title=" ">
<path fill="none" stroke="#63b8ff" d="M435.3,-19.23C442.56,-23.47 449.94,-29.33 454,-37 468.81,-64.96 456.66,-79.5 441,-107 426.53,-132.4 398.29,-147.28 371.36,-155.96"/>
<polygon fill="none" stroke="#63b8ff" points="371.06,-156.05 366.43,-161.57 359.55,-159.42 364.18,-153.89 371.06,-156.05"/>
</a>
</g>
<text text-anchor="middle" x="514" y="-84" font-family="Helvetica,sans-Serif" font-size="10.00" fill="grey"> &#45;timerEventPublisher</text>
</g>
<!-- Node17 -->
<g id="Node000017" class="node">
<title>Node17</title>
<g id="a_Node000017"><a xlink:title=" ">
<polygon fill="white" stroke="transparent" points="194,-107 0,-107 0,-66 194,-66 194,-107"/>
<text text-anchor="start" x="4.5" y="-94.5" font-family="Helvetica,sans-Serif" font-size="10.00">std::set&lt; core::TimerEvent</text>
<text text-anchor="start" x="4.5" y="-83.5" font-family="Helvetica,sans-Serif" font-size="10.00">Receiver *, core::TimerEventPublisher</text>
<text text-anchor="start" x="57" y="-72.5" font-family="Helvetica,sans-Serif" font-size="10.00">::timernode_lt &gt;</text>
<polygon fill="none" stroke="#666666" points="0,-66 0,-107 194,-107 194,-66 0,-66"/>
</a>
</g>
</g>
<!-- Node17&#45;&gt;Node16 -->
<g id="edge20_Node000016_Node000017" class="edge">
<title>Node17&#45;&gt;Node16</title>
<g id="a_edge20_Node000016_Node000017"><a xlink:title=" ">
<path fill="none" stroke="#63b8ff" d="M179.72,-65.99C239.1,-51.99 317.08,-33.6 366.63,-21.91"/>
<polygon fill="none" stroke="#63b8ff" points="366.91,-21.84 371.83,-16.57 378.59,-19.09 373.67,-24.36 366.91,-21.84"/>
</a>
</g>
<text text-anchor="middle" x="319.5" y="-40" font-family="Helvetica,sans-Serif" font-size="10.00" fill="grey"> &#45;timerList</text>
</g>
<!-- Node18&#45;&gt;Node17 -->
<g id="edge21_Node000017_Node000018" class="edge">
<title>Node18&#45;&gt;Node17</title>
<g id="a_edge21_Node000017_Node000018"><a xlink:title=" ">
<path fill="none" stroke="#63b8ff" d="M238.8,-166.14C205.87,-162.64 166.79,-154.45 136,-136 128.1,-131.27 121.13,-124.31 115.36,-117.13"/>
<polygon fill="none" stroke="#63b8ff" points="115.33,-117.08 108.56,-114.6 108.25,-107.39 115.02,-109.88 115.33,-117.08"/>
</a>
</g>
<text text-anchor="middle" x="153" y="-128" font-family="Helvetica,sans-Serif" font-size="10.00" fill="grey"> +keys</text>
</g>
<!-- Node19 -->
<g id="Node000019" class="node">
<title>Node19</title>
<g id="a_Node000019"><a xlink:href="classcore_1_1Timer.html" target="_top" xlink:title=" ">
<polygon fill="white" stroke="transparent" points="276,-96 212,-96 212,-77 276,-77 276,-96"/>
<text text-anchor="start" x="216.5" y="-83.5" font-family="Helvetica,sans-Serif" font-size="10.00">core::Timer</text>
<polygon fill="none" stroke="#666666" points="212,-77 212,-96 276,-96 276,-77 212,-77"/>
</a>
</g>
</g>
<!-- Node18&#45;&gt;Node19 -->
<g id="edge25_Node000019_Node000018" class="edge">
<title>Node18&#45;&gt;Node19</title>
<g id="a_edge25_Node000019_Node000018"><a xlink:title=" ">
<path fill="none" stroke="#63b8ff" d="M240.42,-159.47C212.5,-154.37 184.42,-146.75 176,-136 172.98,-132.15 173.51,-129.21 176,-125 178.37,-120.98 198.07,-110.34 215.66,-101.41"/>
<polygon fill="none" stroke="#63b8ff" points="215.71,-101.39 219.28,-95.13 226.44,-96.02 222.86,-102.28 215.71,-101.39"/>
</a>
</g>
<text text-anchor="middle" x="228" y="-128" font-family="Helvetica,sans-Serif" font-size="10.00" fill="grey"> &#45;timerEventReceiver</text>
</g>
<!-- Node21 -->
<g id="Node000021" class="node">
<title>Node21</title>
<g id="a_Node000021"><a xlink:title=" ">
<polygon fill="white" stroke="transparent" points="432,-101.5 294,-101.5 294,-71.5 432,-71.5 432,-101.5"/>
<text text-anchor="start" x="298" y="-89.5" font-family="Helvetica,sans-Serif" font-size="10.00">std::list&lt; core::TimerEvent</text>
<text text-anchor="start" x="331.5" y="-78.5" font-family="Helvetica,sans-Serif" font-size="10.00">Receiver * &gt;</text>
<polygon fill="none" stroke="#666666" points="294,-71.5 294,-101.5 432,-101.5 432,-71.5 294,-71.5"/>
</a>
</g>
</g>
<!-- Node18&#45;&gt;Node21 -->
<g id="edge28_Node000021_Node000018" class="edge">
<title>Node18&#45;&gt;Node21</title>
<g id="a_edge28_Node000021_Node000018"><a xlink:title=" ">
<path fill="none" stroke="#63b8ff" d="M317.52,-159.47C324.95,-153.53 334.42,-145.06 341,-136 345.99,-129.13 350.23,-120.94 353.62,-113.27"/>
<polygon fill="none" stroke="#63b8ff" points="353.72,-113.02 352.27,-105.96 358.23,-101.9 359.68,-108.96 353.72,-113.02"/>
</a>
</g>
<text text-anchor="middle" x="377" y="-128" font-family="Helvetica,sans-Serif" font-size="10.00" fill="grey"> +elements</text>
</g>
<!-- Node19&#45;&gt;Node18 -->
<g id="edge24_Node000018_Node000019" class="edge">
<title>Node19&#45;&gt;Node18</title>
<g id="a_edge24_Node000018_Node000019"><a xlink:title=" ">
<path fill="none" stroke="#63b8ff" d="M255.18,-96.17C263.81,-103.26 275.64,-113.9 284,-125 289.3,-132.04 293.95,-140.54 297.6,-148.12"/>
<polygon fill="none" stroke="#63b8ff" points="297.68,-148.3 303.78,-152.14 302.58,-159.25 296.48,-155.41 297.68,-148.3"/>
</a>
</g>
<text text-anchor="middle" x="308" y="-128" font-family="Helvetica,sans-Serif" font-size="10.00" fill="grey"> &#45;timer</text>
</g>
<!-- Node20 -->
<g id="Node000020" class="node">
<title>Node20</title>
<g id="a_Node000020"><a xlink:href="classutils_1_1Timeval.html" target="_top" xlink:title=" ">
<polygon fill="white" stroke="transparent" points="288,-943 212,-943 212,-924 288,-924 288,-943"/>
<text text-anchor="start" x="216.5" y="-930.5" font-family="Helvetica,sans-Serif" font-size="10.00">utils::Timeval</text>
<polygon fill="none" stroke="#666666" points="212,-924 212,-943 288,-943 288,-924 212,-924"/>
</a>
</g>
</g>
<!-- Node20&#45;&gt;Node4 -->
<g id="edge33_Node000004_Node000020" class="edge">
<title>Node20&#45;&gt;Node4</title>
<g id="a_edge33_Node000004_Node000020"><a xlink:title=" ">
<path fill="none" stroke="#63b8ff" d="M253.88,-923.62C259.9,-910.8 272.61,-887.12 290,-873 300.1,-864.8 312.58,-858.46 324.61,-853.67"/>
<polygon fill="none" stroke="#63b8ff" points="324.65,-853.65 328.91,-847.84 335.92,-849.54 331.66,-855.35 324.65,-853.65"/>
</a>
</g>
<text text-anchor="middle" x="327.5" y="-898" font-family="Helvetica,sans-Serif" font-size="10.00" fill="grey"> &#45;initialTimeout</text>
<text text-anchor="middle" x="327.5" y="-887" font-family="Helvetica,sans-Serif" font-size="10.00" fill="grey">&#45;lastTriggered</text>
<text text-anchor="middle" x="327.5" y="-876" font-family="Helvetica,sans-Serif" font-size="10.00" fill="grey">&#45;maxInactivity</text>
</g>
<!-- Node20&#45;&gt;Node18 -->
<g id="edge26_Node000018_Node000020" class="edge">
<title>Node20&#45;&gt;Node18</title>
<g id="a_edge26_Node000018_Node000020"><a xlink:title=" ">
<path fill="none" stroke="#63b8ff" d="M246.3,-923.85C239.8,-907.82 227,-872.29 227,-841 227,-841 227,-841 227,-250.5 227,-220.88 254.58,-198.16 277.14,-184.53"/>
<polygon fill="none" stroke="#63b8ff" points="277.23,-184.48 280.49,-178.04 287.68,-178.57 284.42,-185.01 277.23,-184.48"/>
</a>
</g>
<text text-anchor="middle" x="271.5" y="-502" font-family="Helvetica,sans-Serif" font-size="10.00" fill="grey"> &#45;absoluteTimeout</text>
<text text-anchor="middle" x="271.5" y="-491" font-family="Helvetica,sans-Serif" font-size="10.00" fill="grey">&#45;delay</text>
</g>
<!-- Node21&#45;&gt;Node16 -->
<g id="edge27_Node000016_Node000021" class="edge">
<title>Node21&#45;&gt;Node16</title>
<g id="a_edge27_Node000016_Node000021"><a xlink:title=" ">
<path fill="none" stroke="#63b8ff" d="M368.11,-71.11C372.09,-61.01 378.24,-47.49 386,-37 388.47,-33.65 391.41,-30.4 394.46,-27.38"/>
<polygon fill="none" stroke="#63b8ff" points="394.64,-27.22 396.41,-20.23 403.55,-19.18 401.77,-26.17 394.64,-27.22"/>
</a>
</g>
<text text-anchor="middle" x="420" y="-40" font-family="Helvetica,sans-Serif" font-size="10.00" fill="grey"> &#45;removedList</text>
</g>
<!-- Node22 -->
<g id="Node000022" class="node">
<title>Node22</title>
<g id="a_Node000022"><a xlink:href="classcore_1_1EventMultiplexer_1_1EventQueue.html" target="_top" xlink:title=" ">
<polygon fill="white" stroke="transparent" points="568,-184 448,-184 448,-154 568,-154 568,-184"/>
<text text-anchor="start" x="452.5" y="-172" font-family="Helvetica,sans-Serif" font-size="10.00">core::EventMultiplexer</text>
<text text-anchor="start" x="475" y="-161" font-family="Helvetica,sans-Serif" font-size="10.00">::EventQueue</text>
<polygon fill="none" stroke="#666666" points="448,-154 448,-184 568,-184 568,-154 448,-154"/>
</a>
</g>
</g>
<!-- Node22&#45;&gt;Node10 -->
<g id="edge29_Node000010_Node000022" class="edge">
<title>Node22&#45;&gt;Node10</title>
<g id="a_edge29_Node000010_Node000022"><a xlink:title=" ">
<path fill="none" stroke="#63b8ff" d="M568.11,-171.25C620.61,-173.76 691.14,-181.07 709,-202 755.65,-256.66 666.77,-333.94 623.16,-366.76"/>
<polygon fill="none" stroke="#63b8ff" points="623.06,-366.83 620.59,-373.61 613.39,-373.94 615.86,-367.16 623.06,-366.83"/>
</a>
</g>
<text text-anchor="middle" x="741.5" y="-282" font-family="Helvetica,sans-Serif" font-size="10.00" fill="grey"> &#45;eventQueue</text>
</g>
<!-- Node23&#45;&gt;Node22 -->
<g id="edge30_Node000022_Node000023" class="edge">
<title>Node23&#45;&gt;Node22</title>
<g id="a_edge30_Node000022_Node000023"><a xlink:title=" ">
<path fill="none" stroke="#63b8ff" d="M503.75,-241.69C503.08,-236.54 502.33,-229.92 502,-224 501.45,-214.24 501.1,-211.74 502,-202 502.18,-200.08 502.42,-198.1 502.69,-196.12"/>
<polygon fill="none" stroke="#63b8ff" points="502.7,-196.08 499.78,-189.49 504.74,-184.26 507.66,-190.85 502.7,-196.08"/>
</a>
</g>
<text text-anchor="middle" x="541" y="-216" font-family="Helvetica,sans-Serif" font-size="10.00" fill="grey"> &#45;executeQueue</text>
<text text-anchor="middle" x="541" y="-205" font-family="Helvetica,sans-Serif" font-size="10.00" fill="grey">&#45;publishQueue</text>
</g>
<!-- Node24 -->
<g id="Node000024" class="node">
<title>Node24</title>
<g id="a_Node000024"><a xlink:title=" ">
<polygon fill="white" stroke="transparent" points="1033,-778 869,-778 869,-737 1033,-737 1033,-778"/>
<text text-anchor="start" x="873.5" y="-765.5" font-family="Helvetica,sans-Serif" font-size="10.00">std::shared_ptr&lt; core</text>
<text text-anchor="start" x="873.5" y="-754.5" font-family="Helvetica,sans-Serif" font-size="10.00">::socket::stream::SocketContext</text>
<text text-anchor="start" x="927" y="-743.5" font-family="Helvetica,sans-Serif" font-size="10.00">Factory &gt;</text>
<polygon fill="none" stroke="#666666" points="869,-737 869,-778 1033,-778 1033,-737 869,-737"/>
</a>
</g>
</g>
<!-- Node24&#45;&gt;Node2 -->
<g id="edge34_Node000002_Node000024" class="edge">
<title>Node24&#45;&gt;Node2</title>
<g id="a_edge34_Node000002_Node000024"><a xlink:title=" ">
<path fill="none" stroke="#63b8ff" d="M951.96,-736.74C952.59,-723.92 953.42,-706.81 954.17,-691.48"/>
<polygon fill="none" stroke="#63b8ff" points="954.19,-691.14 950.49,-684.95 954.77,-679.16 958.48,-685.34 954.19,-691.14"/>
</a>
</g>
<text text-anchor="middle" x="1012" y="-705.5" font-family="Helvetica,sans-Serif" font-size="10.00" fill="grey"> #socketContextFactory</text>
</g>
<!-- Node25 -->
<g id="Node000025" class="node">
<title>Node25</title>
<g id="a_Node000025"><a xlink:href="classcore_1_1socket_1_1stream_1_1SocketContextFactory.html" target="_top" xlink:title=" ">
<polygon fill="white" stroke="transparent" points="1012,-855 890,-855 890,-825 1012,-825 1012,-855"/>
<text text-anchor="start" x="894.5" y="-843" font-family="Helvetica,sans-Serif" font-size="10.00">core::socket::stream</text>
<text text-anchor="start" x="894.5" y="-832" font-family="Helvetica,sans-Serif" font-size="10.00">::SocketContextFactory</text>
<polygon fill="none" stroke="#666666" points="890,-825 890,-855 1012,-855 1012,-825 890,-825"/>
</a>
</g>
</g>
<!-- Node25&#45;&gt;Node24 -->
<g id="edge35_Node000024_Node000025" class="edge">
<title>Node25&#45;&gt;Node24</title>
<g id="a_edge35_Node000024_Node000025"><a xlink:title=" ">
<path fill="none" stroke="#63b8ff" d="M951,-824.98C951,-815.35 951,-802.17 951,-790.09"/>
<polygon fill="none" stroke="#63b8ff" points="951,-790.09 947,-784.09 951,-778.09 955,-784.09 951,-790.09"/>
</a>
</g>
<text text-anchor="middle" x="963.5" y="-799" font-family="Helvetica,sans-Serif" font-size="10.00" fill="grey"> +ptr</text>
</g>
<!-- Node26 -->
<g id="Node000026" class="node">
<title>Node26</title>
<g id="a_Node000026"><a xlink:title=" ">
<polygon fill="white" stroke="transparent" points="1187,-767 1051,-767 1051,-748 1187,-748 1187,-767"/>
<text text-anchor="start" x="1055.5" y="-754.5" font-family="Helvetica,sans-Serif" font-size="10.00">std::shared_ptr&lt; Config &gt;</text>
<polygon fill="none" stroke="#666666" points="1051,-748 1051,-767 1187,-767 1187,-748 1051,-748"/>
</a>
</g>
</g>
<!-- Node26&#45;&gt;Node2 -->
<g id="edge36_Node000002_Node000026" class="edge">
<title>Node26&#45;&gt;Node2</title>
<g id="a_edge36_Node000002_Node000026"><a xlink:title=" ">
<path fill="none" stroke="#63b8ff" d="M1114.8,-747.96C1108.08,-735.15 1093.75,-710.97 1075,-697 1068.87,-692.43 1062.22,-688.32 1055.28,-684.61"/>
<polygon fill="none" stroke="#63b8ff" points="1054.95,-684.44 1047.8,-685.36 1044.2,-679.11 1051.35,-678.19 1054.95,-684.44"/>
</a>
</g>
<text text-anchor="middle" x="1117" y="-705.5" font-family="Helvetica,sans-Serif" font-size="10.00" fill="grey"> #config</text>
</g>
</g>
</svg>

<g id="navigator" transform="translate(0 0)" fill="#404254">
  <rect fill="#f2f5e9" fill-opacity="0.5" stroke="#606060" stroke-width=".5" x="0" y="0" width="60" height="60"/>
  <use id="zoomplus" xlink:href="#zoomPlus" x="17" y="9" onmousedown="handleZoom(evt,'in')"/>
  <use id="zoomminus" xlink:href="#zoomMin" x="42" y="9" onmousedown="handleZoom(evt,'out')"/>
  <use id="reset" xlink:href="#resetDef" x="30" y="36" onmousedown="handleReset()"/>
   <use id="arrowup" xlink:href="#arrowUp" x="0" y="0" onmousedown="handlePan(0,-1)"/>
  <use id="arrowright" xlink:href="#arrowRight" x="0" y="0" onmousedown="handlePan(1,0)"/>
  <use id="arrowdown" xlink:href="#arrowDown" x="0" y="0" onmousedown="handlePan(0,1)"/>
  <use id="arrowleft" xlink:href="#arrowLeft" x="0" y="0" onmousedown="handlePan(-1,0)"/>
</g>
<svg viewBox="0 0 15 15" width="100%" height="30px" preserveAspectRatio="xMaxYMin meet">
 <g id="arrow_out" transform="scale(0.3 0.3)">
  <a xlink:href="classcore_1_1socket_1_1stream_1_1legacy_1_1SocketAcceptor__coll__graph_org.svg" target="_base">
   <rect id="button" ry="5" rx="5" y="6" x="6" height="38" width="38"
        fill="#f2f5e9" fill-opacity="0.5" stroke="#606060" stroke-width="1.0"/>
   <path id="arrow"
     d="M 11.500037,31.436501 C 11.940474,20.09759 22.043105,11.32322 32.158766,21.979434 L 37.068811,17.246167 C 37.068811,17.246167 37.088388,32 37.088388,32 L 22.160133,31.978069 C 22.160133,31.978069 26.997745,27.140456 26.997745,27.140456 C 18.528582,18.264221 13.291696,25.230495 11.500037,31.436501 z"
     style="fill:#404040;"/>
  </a>
 </g>
</svg>

<style type='text/css'>
<![CDATA[
[data-mouse-over-selected='false'] { opacity: 0.7; }
[data-mouse-over-selected='true']  { opacity: 1.0; }
]]>
</style>
<script type="application/ecmascript"><![CDATA[
document.addEventListener('DOMContentLoaded', (event) => {
  highlightEdges();
  highlightAdjacentNodes();
});
]]></script>
</svg>
