<?xml version="1.0" encoding="UTF-8" standalone="no"?>
<!DOCTYPE svg PUBLIC "-//W3C//DTD SVG 1.1//EN"
 "http://www.w3.org/Graphics/SVG/1.1/DTD/svg11.dtd">
<!-- Generated by graphviz version 2.43.0 (0)
 -->
<!-- Title: express::Route::dispatch Pages: 1 -->
<svg width="452pt" height="86pt"
 viewBox="0.00 0.00 452.00 86.00" xmlns="http://www.w3.org/2000/svg" xmlns:xlink="http://www.w3.org/1999/xlink">
<g id="graph0" class="graph" transform="scale(1 1) rotate(0) translate(4 82)">
<title>express::Route::dispatch</title>
<!-- Node1 -->
<g id="Node000001" class="node">
<title>Node1</title>
<g id="a_Node000001"><a xlink:title=" ">
<polygon fill="#999999" stroke="#666666" points="126,-48.5 0,-48.5 0,-29.5 126,-29.5 126,-48.5"/>
<text text-anchor="middle" x="63" y="-36.5" font-family="Helvetica,sans-Serif" font-size="10.00">express::Route::dispatch</text>
</a>
</g>
</g>
<!-- Node2 -->
<g id="Node000002" class="node">
<title>Node2</title>
<g id="a_Node000002"><a xlink:href="classexpress_1_1Controller.html#ad869b9f2284026613a76f1c4e4240de0" target="_top" xlink:title=" ">
<polygon fill="white" stroke="#666666" points="261,-78 162,-78 162,-48 261,-48 261,-78"/>
<text text-anchor="start" x="170" y="-66" font-family="Helvetica,sans-Serif" font-size="10.00">express::Controller</text>
<text text-anchor="middle" x="211.5" y="-55" font-family="Helvetica,sans-Serif" font-size="10.00">::dispatchNext</text>
</a>
</g>
</g>
<!-- Node1&#45;&gt;Node2 -->
<g id="edge1_Node000001_Node000002" class="edge">
<title>Node1&#45;&gt;Node2</title>
<g id="a_edge1_Node000001_Node000002"><a xlink:title=" ">
<path fill="none" stroke="#63b8ff" d="M122.32,-48.55C132.03,-50.15 142.11,-51.8 151.83,-53.39"/>
<polygon fill="#63b8ff" stroke="#63b8ff" points="151.37,-56.86 161.8,-55.02 152.5,-49.95 151.37,-56.86"/>
</a>
</g>
</g>
<!-- Node4 -->
<g id="Node000004" class="node">
<title>Node4</title>
<g id="a_Node000004"><a xlink:href="classexpress_1_1Controller.html#ae7633696264876a7d3f64a3ff8aa1291" target="_top" xlink:title=" ">
<polygon fill="white" stroke="#666666" points="261,-30 162,-30 162,0 261,0 261,-30"/>
<text text-anchor="start" x="170" y="-18" font-family="Helvetica,sans-Serif" font-size="10.00">express::Controller</text>
<text text-anchor="middle" x="211.5" y="-7" font-family="Helvetica,sans-Serif" font-size="10.00">::setCurrentRoute</text>
</a>
</g>
</g>
<!-- Node1&#45;&gt;Node4 -->
<g id="edge3_Node000001_Node000004" class="edge">
<title>Node1&#45;&gt;Node4</title>
<g id="a_edge3_Node000001_Node000004"><a xlink:title=" ">
<path fill="none" stroke="#63b8ff" d="M122.32,-29.45C132.03,-27.85 142.11,-26.2 151.83,-24.61"/>
<polygon fill="#63b8ff" stroke="#63b8ff" points="152.5,-28.05 161.8,-22.98 151.37,-21.14 152.5,-28.05"/>
</a>
</g>
</g>
<!-- Node3 -->
<g id="Node000003" class="node">
<title>Node3</title>
<g id="a_Node000003"><a xlink:href="classexpress_1_1Route.html#a8c878f3ae8be82aa01d8a73d55759771" target="_top" xlink:title=" ">
<polygon fill="white" stroke="#666666" points="444,-72.5 297,-72.5 297,-53.5 444,-53.5 444,-72.5"/>
<text text-anchor="middle" x="370.5" y="-60.5" font-family="Helvetica,sans-Serif" font-size="10.00">express::Route::dispatchNext</text>
</a>
</g>
</g>
<!-- Node2&#45;&gt;Node3 -->
<g id="edge2_Node000002_Node000003" class="edge">
<title>Node2&#45;&gt;Node3</title>
<g id="a_edge2_Node000002_Node000003"><a xlink:title=" ">
<path fill="none" stroke="#63b8ff" d="M261.32,-63C269.4,-63 277.98,-63 286.63,-63"/>
<polygon fill="#63b8ff" stroke="#63b8ff" points="286.8,-66.5 296.8,-63 286.8,-59.5 286.8,-66.5"/>
</a>
</g>
</g>
</g>
</svg>
