<?xml version="1.0" encoding="UTF-8" standalone="no"?>
<!DOCTYPE svg PUBLIC "-//W3C//DTD SVG 1.1//EN"
 "http://www.w3.org/Graphics/SVG/1.1/DTD/svg11.dtd">
<!-- Generated by graphviz version 2.43.0 (0)
 -->
<!-- Title: iot::mqtt::server::broker::RetainTree::appear Pages: 1 -->
<svg width="1726pt" height="398pt"
 viewBox="0.00 0.00 1726.00 398.00" xmlns="http://www.w3.org/2000/svg" xmlns:xlink="http://www.w3.org/1999/xlink">
<g id="graph0" class="graph" transform="scale(1 1) rotate(0) translate(4 394)">
<title>iot::mqtt::server::broker::RetainTree::appear</title>
<!-- Node1 -->
<g id="Node000001" class="node">
<title>Node1</title>
<g id="a_Node000001"><a xlink:title=" ">
<polygon fill="#999999" stroke="#666666" points="104,-146.5 0,-146.5 0,-105.5 104,-105.5 104,-146.5"/>
<text text-anchor="start" x="8" y="-134.5" font-family="Helvetica,sans-Serif" font-size="10.00">iot::mqtt::server::</text>
<text text-anchor="start" x="8" y="-123.5" font-family="Helvetica,sans-Serif" font-size="10.00">broker::RetainTree::</text>
<text text-anchor="middle" x="52" y="-112.5" font-family="Helvetica,sans-Serif" font-size="10.00">appear</text>
</a>
</g>
</g>
<!-- Node2 -->
<g id="Node000002" class="node">
<title>Node2</title>
<g id="a_Node000002"><a xlink:href="classiot_1_1mqtt_1_1server_1_1broker_1_1RetainTree_1_1TopicLevel.html#abca0aa6bfbc6c9ec5b4b55de0ce09a68" target="_top" xlink:title=" ">
<polygon fill="white" stroke="#666666" points="244,-146.5 140,-146.5 140,-105.5 244,-105.5 244,-146.5"/>
<text text-anchor="start" x="148" y="-134.5" font-family="Helvetica,sans-Serif" font-size="10.00">iot::mqtt::server::</text>
<text text-anchor="start" x="148" y="-123.5" font-family="Helvetica,sans-Serif" font-size="10.00">broker::RetainTree::</text>
<text text-anchor="middle" x="192" y="-112.5" font-family="Helvetica,sans-Serif" font-size="10.00">TopicLevel::appear</text>
</a>
</g>
</g>
<!-- Node1&#45;&gt;Node2 -->
<g id="edge1_Node000001_Node000002" class="edge">
<title>Node1&#45;&gt;Node2</title>
<g id="a_edge1_Node000001_Node000002"><a xlink:title=" ">
<path fill="none" stroke="#63b8ff" d="M104.39,-126C112.56,-126 121.08,-126 129.46,-126"/>
<polygon fill="#63b8ff" stroke="#63b8ff" points="129.57,-129.5 139.57,-126 129.57,-122.5 129.57,-129.5"/>
</a>
</g>
</g>
<!-- Node3 -->
<g id="Node000003" class="node">
<title>Node3</title>
<g id="a_Node000003"><a xlink:href="classiot_1_1mqtt_1_1server_1_1broker_1_1RetainTree_1_1TopicLevel.html#a894a022e8a86c605abdc60e233eaeffe" target="_top" xlink:title=" ">
<polygon fill="white" stroke="#666666" points="384,-146.5 280,-146.5 280,-105.5 384,-105.5 384,-146.5"/>
<text text-anchor="start" x="288" y="-134.5" font-family="Helvetica,sans-Serif" font-size="10.00">iot::mqtt::server::</text>
<text text-anchor="start" x="288" y="-123.5" font-family="Helvetica,sans-Serif" font-size="10.00">broker::RetainTree::</text>
<text text-anchor="middle" x="332" y="-112.5" font-family="Helvetica,sans-Serif" font-size="10.00">TopicLevel::appear</text>
</a>
</g>
</g>
<!-- Node2&#45;&gt;Node3 -->
<g id="edge2_Node000002_Node000003" class="edge">
<title>Node2&#45;&gt;Node3</title>
<g id="a_edge2_Node000002_Node000003"><a xlink:title=" ">
<path fill="none" stroke="#63b8ff" d="M244.39,-126C252.56,-126 261.08,-126 269.46,-126"/>
<polygon fill="#63b8ff" stroke="#63b8ff" points="269.57,-129.5 279.57,-126 269.57,-122.5 269.57,-129.5"/>
</a>
</g>
</g>
<!-- Node3&#45;&gt;Node3 -->
<g id="edge3_Node000003_Node000003" class="edge">
<title>Node3&#45;&gt;Node3</title>
<g id="a_edge3_Node000003_Node000003"><a xlink:title=" ">
<path fill="none" stroke="#63b8ff" d="M306.27,-146.6C303.46,-156.15 312.04,-164.5 332,-164.5 344.16,-164.5 352.1,-161.4 355.81,-156.82"/>
<polygon fill="#63b8ff" stroke="#63b8ff" points="359.32,-157.07 357.73,-146.6 352.44,-155.78 359.32,-157.07"/>
</a>
</g>
</g>
<!-- Node4 -->
<g id="Node000004" class="node">
<title>Node4</title>
<g id="a_Node000004"><a xlink:href="classiot_1_1mqtt_1_1server_1_1broker_1_1RetainTree_1_1TopicLevel.html#a14836ec28cdb1d5f58a6c8f2c53ecb08" target="_top" xlink:title=" ">
<polygon fill="white" stroke="#666666" points="524,-171.5 420,-171.5 420,-130.5 524,-130.5 524,-171.5"/>
<text text-anchor="start" x="428" y="-159.5" font-family="Helvetica,sans-Serif" font-size="10.00">iot::mqtt::server::</text>
<text text-anchor="start" x="428" y="-148.5" font-family="Helvetica,sans-Serif" font-size="10.00">broker::RetainTree::</text>
<text text-anchor="middle" x="472" y="-137.5" font-family="Helvetica,sans-Serif" font-size="10.00">TopicLevel::appear</text>
</a>
</g>
</g>
<!-- Node3&#45;&gt;Node4 -->
<g id="edge4_Node000003_Node000004" class="edge">
<title>Node3&#45;&gt;Node4</title>
<g id="a_edge4_Node000003_Node000004"><a xlink:title=" ">
<path fill="none" stroke="#63b8ff" d="M384.39,-135.31C392.56,-136.79 401.08,-138.33 409.46,-139.85"/>
<polygon fill="#63b8ff" stroke="#63b8ff" points="409.11,-143.34 419.57,-141.68 410.36,-136.46 409.11,-143.34"/>
</a>
</g>
</g>
<!-- Node5 -->
<g id="Node000005" class="node">
<title>Node5</title>
<g id="a_Node000005"><a xlink:href="classiot_1_1mqtt_1_1server_1_1broker_1_1Message.html#acd5cfc83cb92749b61307c77b7649c5e" target="_top" xlink:title=" ">
<polygon fill="white" stroke="#666666" points="1062,-308 913,-308 913,-278 1062,-278 1062,-308"/>
<text text-anchor="start" x="921" y="-296" font-family="Helvetica,sans-Serif" font-size="10.00">iot::mqtt::server::</text>
<text text-anchor="middle" x="987.5" y="-285" font-family="Helvetica,sans-Serif" font-size="10.00">broker::Message::getMessage</text>
</a>
</g>
</g>
<!-- Node3&#45;&gt;Node5 -->
<g id="edge39_Node000003_Node000005" class="edge">
<title>Node3&#45;&gt;Node5</title>
<g id="a_edge39_Node000003_Node000005"><a xlink:title=" ">
<path fill="none" stroke="#63b8ff" d="M345.12,-146.5C359.92,-169.82 387.12,-207.44 420,-229 567.78,-325.91 784.98,-318.77 902.89,-305.58"/>
<polygon fill="#63b8ff" stroke="#63b8ff" points="903.41,-309.05 912.94,-304.42 902.61,-302.09 903.41,-309.05"/>
</a>
</g>
</g>
<!-- Node6 -->
<g id="Node000006" class="node">
<title>Node6</title>
<g id="a_Node000006"><a xlink:href="classiot_1_1mqtt_1_1server_1_1broker_1_1Message.html#ad8438b8455ed9abf0ee35faf50b5c946" target="_top" xlink:title=" ">
<polygon fill="white" stroke="#666666" points="1051.5,-30 923.5,-30 923.5,0 1051.5,0 1051.5,-30"/>
<text text-anchor="start" x="931.5" y="-18" font-family="Helvetica,sans-Serif" font-size="10.00">iot::mqtt::server::</text>
<text text-anchor="middle" x="987.5" y="-7" font-family="Helvetica,sans-Serif" font-size="10.00">broker::Message::getQoS</text>
</a>
</g>
</g>
<!-- Node3&#45;&gt;Node6 -->
<g id="edge40_Node000003_Node000006" class="edge">
<title>Node3&#45;&gt;Node6</title>
<g id="a_edge40_Node000003_Node000006"><a xlink:title=" ">
<path fill="none" stroke="#63b8ff" d="M384.17,-108.69C395.85,-105.14 408.28,-101.67 420,-99 594.91,-59.14 804.67,-33.74 913.27,-22.22"/>
<polygon fill="#63b8ff" stroke="#63b8ff" points="913.88,-25.67 923.46,-21.15 913.15,-18.71 913.88,-25.67"/>
</a>
</g>
</g>
<!-- Node7 -->
<g id="Node000007" class="node">
<title>Node7</title>
<g id="a_Node000007"><a xlink:href="classiot_1_1mqtt_1_1server_1_1broker_1_1Message.html#a369363facef6ec50065e6f3f2b9e975c" target="_top" xlink:title=" ">
<polygon fill="white" stroke="#666666" points="1053.5,-126 921.5,-126 921.5,-96 1053.5,-96 1053.5,-126"/>
<text text-anchor="start" x="929.5" y="-114" font-family="Helvetica,sans-Serif" font-size="10.00">iot::mqtt::server::</text>
<text text-anchor="middle" x="987.5" y="-103" font-family="Helvetica,sans-Serif" font-size="10.00">broker::Message::getTopic</text>
</a>
</g>
</g>
<!-- Node3&#45;&gt;Node7 -->
<g id="edge41_Node000003_Node000007" class="edge">
<title>Node3&#45;&gt;Node7</title>
<g id="a_edge41_Node000003_Node000007"><a xlink:title=" ">
<path fill="none" stroke="#63b8ff" d="M384.05,-122.73C395.85,-122.06 408.36,-121.44 420,-121 595.93,-114.39 802.76,-112.14 911.29,-111.38"/>
<polygon fill="#63b8ff" stroke="#63b8ff" points="911.51,-114.88 921.48,-111.31 911.46,-107.88 911.51,-114.88"/>
</a>
</g>
</g>
<!-- Node8 -->
<g id="Node000008" class="node">
<title>Node8</title>
<g id="a_Node000008"><a xlink:href="classiot_1_1mqtt_1_1server_1_1broker_1_1Broker.html#ae776d5b70c46dd5e2b80e111119c866e" target="_top" xlink:title=" ">
<polygon fill="white" stroke="#666666" points="697,-262 560,-262 560,-232 697,-232 697,-262"/>
<text text-anchor="start" x="568" y="-250" font-family="Helvetica,sans-Serif" font-size="10.00">iot::mqtt::server::</text>
<text text-anchor="middle" x="628.5" y="-239" font-family="Helvetica,sans-Serif" font-size="10.00">broker::Broker::sendPublish</text>
</a>
</g>
</g>
<!-- Node3&#45;&gt;Node8 -->
<g id="edge42_Node000003_Node000008" class="edge">
<title>Node3&#45;&gt;Node8</title>
<g id="a_edge42_Node000003_Node000008"><a xlink:title=" ">
<path fill="none" stroke="#63b8ff" d="M352.52,-146.73C369,-163.03 394.02,-185.08 420,-198 460.48,-218.14 509.57,-230.21 549.84,-237.34"/>
<polygon fill="#63b8ff" stroke="#63b8ff" points="549.43,-240.82 559.88,-239.04 550.61,-233.92 549.43,-240.82"/>
</a>
</g>
</g>
<!-- Node32 -->
<g id="Node000032" class="node">
<title>Node32</title>
<g id="a_Node000032"><a xlink:href="classiot_1_1mqtt_1_1Mqtt.html#a5fa34f738f94a3911b8fe82661a99ca7" target="_top" xlink:title=" ">
<polygon fill="white" stroke="#666666" points="1047,-78 928,-78 928,-48 1047,-48 1047,-78"/>
<text text-anchor="start" x="936" y="-66" font-family="Helvetica,sans-Serif" font-size="10.00">iot::mqtt::Mqtt::stringTo</text>
<text text-anchor="middle" x="987.5" y="-55" font-family="Helvetica,sans-Serif" font-size="10.00">HexString</text>
</a>
</g>
</g>
<!-- Node3&#45;&gt;Node32 -->
<g id="edge43_Node000003_Node000032" class="edge">
<title>Node3&#45;&gt;Node32</title>
<g id="a_edge43_Node000003_Node000032"><a xlink:title=" ">
<path fill="none" stroke="#63b8ff" d="M384.01,-118.55C395.82,-116.94 408.34,-115.33 420,-114 599.17,-93.59 810.97,-76.35 917.69,-68.14"/>
<polygon fill="#63b8ff" stroke="#63b8ff" points="917.99,-71.63 927.69,-67.37 917.45,-64.65 917.99,-71.63"/>
</a>
</g>
</g>
<!-- Node4&#45;&gt;Node4 -->
<g id="edge5_Node000004_Node000004" class="edge">
<title>Node4&#45;&gt;Node4</title>
<g id="a_edge5_Node000004_Node000004"><a xlink:title=" ">
<path fill="none" stroke="#63b8ff" d="M446.27,-171.6C443.46,-181.15 452.04,-189.5 472,-189.5 484.16,-189.5 492.1,-186.4 495.81,-181.82"/>
<polygon fill="#63b8ff" stroke="#63b8ff" points="499.32,-182.07 497.73,-171.6 492.44,-180.78 499.32,-182.07"/>
</a>
</g>
</g>
<!-- Node4&#45;&gt;Node5 -->
<g id="edge6_Node000004_Node000005" class="edge">
<title>Node4&#45;&gt;Node5</title>
<g id="a_edge6_Node000004_Node000005"><a xlink:title=" ">
<path fill="none" stroke="#63b8ff" d="M524.05,-167.68C576.28,-184.51 659.93,-210.84 733,-231 792.37,-247.38 860.17,-263.85 910.7,-275.69"/>
<polygon fill="#63b8ff" stroke="#63b8ff" points="910.04,-279.13 920.57,-277.99 911.63,-272.31 910.04,-279.13"/>
</a>
</g>
</g>
<!-- Node4&#45;&gt;Node6 -->
<g id="edge7_Node000004_Node000006" class="edge">
<title>Node4&#45;&gt;Node6</title>
<g id="a_edge7_Node000004_Node000006"><a xlink:title=" ">
<path fill="none" stroke="#63b8ff" d="M510.73,-130.42C525.73,-122.86 543.36,-114.76 560,-109 680.78,-67.18 827.43,-39.67 913.51,-25.77"/>
<polygon fill="#63b8ff" stroke="#63b8ff" points="914.12,-29.21 923.44,-24.18 913.02,-22.3 914.12,-29.21"/>
</a>
</g>
</g>
<!-- Node4&#45;&gt;Node7 -->
<g id="edge8_Node000004_Node000007" class="edge">
<title>Node4&#45;&gt;Node7</title>
<g id="a_edge8_Node000004_Node000007"><a xlink:title=" ">
<path fill="none" stroke="#63b8ff" d="M524.02,-153.37C600.98,-156.1 751.13,-158.13 877,-140 894.33,-137.5 912.85,-133.24 929.63,-128.73"/>
<polygon fill="#63b8ff" stroke="#63b8ff" points="930.59,-132.1 939.29,-126.06 928.72,-125.35 930.59,-132.1"/>
</a>
</g>
</g>
<!-- Node4&#45;&gt;Node8 -->
<g id="edge9_Node000004_Node000008" class="edge">
<title>Node4&#45;&gt;Node8</title>
<g id="a_edge9_Node000004_Node000008"><a xlink:title=" ">
<path fill="none" stroke="#63b8ff" d="M496.59,-171.78C513.46,-185.98 537.15,-204.58 560,-218 565.84,-221.43 572.16,-224.68 578.51,-227.69"/>
<polygon fill="#63b8ff" stroke="#63b8ff" points="577.23,-230.95 587.78,-231.9 580.12,-224.57 577.23,-230.95"/>
</a>
</g>
</g>
<!-- Node4&#45;&gt;Node32 -->
<g id="edge38_Node000004_Node000032" class="edge">
<title>Node4&#45;&gt;Node32</title>
<g id="a_edge38_Node000004_Node000032"><a xlink:title=" ">
<path fill="none" stroke="#63b8ff" d="M524.11,-142.24C616.91,-126.34 813.15,-92.71 917.64,-74.8"/>
<polygon fill="#63b8ff" stroke="#63b8ff" points="918.5,-78.2 927.77,-73.07 917.32,-71.3 918.5,-78.2"/>
</a>
</g>
</g>
<!-- Node9 -->
<g id="Node000009" class="node">
<title>Node9</title>
<g id="a_Node000009"><a xlink:href="classiot_1_1mqtt_1_1server_1_1broker_1_1Session.html#a29e925298c01ae9de82376442f63fbab" target="_top" xlink:title=" ">
<polygon fill="white" stroke="#666666" points="877,-222 733,-222 733,-192 877,-192 877,-222"/>
<text text-anchor="start" x="741" y="-210" font-family="Helvetica,sans-Serif" font-size="10.00">iot::mqtt::server::</text>
<text text-anchor="middle" x="805" y="-199" font-family="Helvetica,sans-Serif" font-size="10.00">broker::Session::sendPublish</text>
</a>
</g>
</g>
<!-- Node8&#45;&gt;Node9 -->
<g id="edge10_Node000008_Node000009" class="edge">
<title>Node8&#45;&gt;Node9</title>
<g id="a_edge10_Node000008_Node000009"><a xlink:title=" ">
<path fill="none" stroke="#63b8ff" d="M694.97,-231.99C705.97,-229.47 717.46,-226.84 728.68,-224.27"/>
<polygon fill="#63b8ff" stroke="#63b8ff" points="729.48,-227.67 738.45,-222.03 727.92,-220.85 729.48,-227.67"/>
</a>
</g>
</g>
<!-- Node9&#45;&gt;Node5 -->
<g id="edge11_Node000009_Node000005" class="edge">
<title>Node9&#45;&gt;Node5</title>
<g id="a_edge11_Node000009_Node000005"><a xlink:title=" ">
<path fill="none" stroke="#63b8ff" d="M849.58,-222.07C858.92,-226.04 868.52,-230.72 877,-236 895.17,-247.32 894.5,-257.23 913,-268 916.6,-270.1 920.41,-272.05 924.32,-273.87"/>
<polygon fill="#63b8ff" stroke="#63b8ff" points="923,-277.12 933.57,-277.86 925.77,-270.69 923,-277.12"/>
</a>
</g>
</g>
<!-- Node9&#45;&gt;Node6 -->
<g id="edge12_Node000009_Node000006" class="edge">
<title>Node9&#45;&gt;Node6</title>
<g id="a_edge12_Node000009_Node000006"><a xlink:title=" ">
<path fill="none" stroke="#63b8ff" d="M811.46,-191.99C824.13,-159.3 858.62,-81.17 913,-39 914.81,-37.6 916.7,-36.27 918.67,-35.03"/>
<polygon fill="#63b8ff" stroke="#63b8ff" points="920.6,-37.96 927.63,-30.03 917.19,-31.84 920.6,-37.96"/>
</a>
</g>
</g>
<!-- Node9&#45;&gt;Node7 -->
<g id="edge13_Node000009_Node000007" class="edge">
<title>Node9&#45;&gt;Node7</title>
<g id="a_edge13_Node000009_Node000007"><a xlink:title=" ">
<path fill="none" stroke="#63b8ff" d="M852.43,-191.86C861,-188.02 869.58,-183.42 877,-178 897.13,-163.3 892.35,-148.96 913,-135 915.27,-133.47 917.64,-132.03 920.09,-130.67"/>
<polygon fill="#63b8ff" stroke="#63b8ff" points="921.81,-133.72 929.21,-126.14 918.7,-127.45 921.81,-133.72"/>
</a>
</g>
</g>
<!-- Node10 -->
<g id="Node000010" class="node">
<title>Node10</title>
<g id="a_Node000010"><a xlink:href="classiot_1_1mqtt_1_1server_1_1broker_1_1Session.html#acec1ef8891e7d33f873a72a994edf5c7" target="_top" xlink:title=" ">
<polygon fill="white" stroke="#666666" points="1050.5,-174 924.5,-174 924.5,-144 1050.5,-144 1050.5,-174"/>
<text text-anchor="start" x="932.5" y="-162" font-family="Helvetica,sans-Serif" font-size="10.00">iot::mqtt::server::</text>
<text text-anchor="middle" x="987.5" y="-151" font-family="Helvetica,sans-Serif" font-size="10.00">broker::Session::isActive</text>
</a>
</g>
</g>
<!-- Node9&#45;&gt;Node10 -->
<g id="edge14_Node000009_Node000010" class="edge">
<title>Node9&#45;&gt;Node10</title>
<g id="a_edge14_Node000009_Node000010"><a xlink:title=" ">
<path fill="none" stroke="#63b8ff" d="M862.62,-191.94C880.93,-187.07 901.4,-181.63 920.34,-176.59"/>
<polygon fill="#63b8ff" stroke="#63b8ff" points="921.32,-179.95 930.08,-174 919.52,-173.19 921.32,-179.95"/>
</a>
</g>
</g>
<!-- Node11 -->
<g id="Node000011" class="node">
<title>Node11</title>
<g id="a_Node000011"><a xlink:href="classiot_1_1mqtt_1_1Mqtt.html#a92d9442bb5f6cdce165fd47e14b0f101" target="_top" xlink:title=" ">
<polygon fill="white" stroke="#666666" points="1056,-259.5 919,-259.5 919,-240.5 1056,-240.5 1056,-259.5"/>
<text text-anchor="middle" x="987.5" y="-247.5" font-family="Helvetica,sans-Serif" font-size="10.00">iot::mqtt::Mqtt::sendPublish</text>
</a>
</g>
</g>
<!-- Node9&#45;&gt;Node11 -->
<g id="edge15_Node000009_Node000011" class="edge">
<title>Node9&#45;&gt;Node11</title>
<g id="a_edge15_Node000009_Node000011"><a xlink:title=" ">
<path fill="none" stroke="#63b8ff" d="M869.13,-222.04C891.23,-227.3 915.73,-233.14 936.6,-238.11"/>
<polygon fill="#63b8ff" stroke="#63b8ff" points="935.99,-241.56 946.53,-240.48 937.61,-234.76 935.99,-241.56"/>
</a>
</g>
</g>
<!-- Node31 -->
<g id="Node000031" class="node">
<title>Node31</title>
<g id="a_Node000031"><a xlink:href="classiot_1_1mqtt_1_1server_1_1broker_1_1Message.html#ab5be74e84012b68d9915ad626af2e513" target="_top" xlink:title=" ">
<polygon fill="white" stroke="#666666" points="1051.5,-222 923.5,-222 923.5,-192 1051.5,-192 1051.5,-222"/>
<text text-anchor="start" x="931.5" y="-210" font-family="Helvetica,sans-Serif" font-size="10.00">iot::mqtt::server::</text>
<text text-anchor="middle" x="987.5" y="-199" font-family="Helvetica,sans-Serif" font-size="10.00">broker::Message::setQoS</text>
</a>
</g>
</g>
<!-- Node9&#45;&gt;Node31 -->
<g id="edge35_Node000009_Node000031" class="edge">
<title>Node9&#45;&gt;Node31</title>
<g id="a_edge35_Node000009_Node000031"><a xlink:title=" ">
<path fill="none" stroke="#63b8ff" d="M877.08,-207C888.91,-207 901.19,-207 913.08,-207"/>
<polygon fill="#63b8ff" stroke="#63b8ff" points="913.4,-210.5 923.4,-207 913.4,-203.5 913.4,-210.5"/>
</a>
</g>
</g>
<!-- Node9&#45;&gt;Node32 -->
<g id="edge36_Node000009_Node000032" class="edge">
<title>Node9&#45;&gt;Node32</title>
<g id="a_edge36_Node000009_Node000032"><a xlink:title=" ">
<path fill="none" stroke="#63b8ff" d="M824.26,-191.75C839.26,-178.77 860.63,-159.22 877,-140 895.46,-118.32 890.24,-104.12 913,-87 914.83,-85.62 916.74,-84.32 918.72,-83.1"/>
<polygon fill="#63b8ff" stroke="#63b8ff" points="920.64,-86.04 927.73,-78.17 917.28,-79.9 920.64,-86.04"/>
</a>
</g>
</g>
<!-- Node12 -->
<g id="Node000012" class="node">
<title>Node12</title>
<g id="a_Node000012"><a xlink:href="classiot_1_1mqtt_1_1Mqtt.html#a86ebf4f83f4881c2bb3ed1c9fc3ff0eb" target="_top" xlink:title=" ">
<polygon fill="white" stroke="#666666" points="1226,-332 1098,-332 1098,-302 1226,-302 1226,-332"/>
<text text-anchor="start" x="1106" y="-320" font-family="Helvetica,sans-Serif" font-size="10.00">iot::mqtt::Mqtt::getPacket</text>
<text text-anchor="middle" x="1162" y="-309" font-family="Helvetica,sans-Serif" font-size="10.00">Identifier</text>
</a>
</g>
</g>
<!-- Node11&#45;&gt;Node12 -->
<g id="edge16_Node000011_Node000012" class="edge">
<title>Node11&#45;&gt;Node12</title>
<g id="a_edge16_Node000011_Node000012"><a xlink:title=" ">
<path fill="none" stroke="#63b8ff" d="M1035.18,-259.55C1044.27,-262.11 1053.58,-265.23 1062,-269 1079.55,-276.85 1080.91,-284.19 1098,-293 1101.32,-294.71 1104.78,-296.37 1108.31,-297.95"/>
<polygon fill="#63b8ff" stroke="#63b8ff" points="1107.17,-301.27 1117.74,-302 1109.93,-294.84 1107.17,-301.27"/>
</a>
</g>
</g>
<!-- Node13 -->
<g id="Node000013" class="node">
<title>Node13</title>
<g id="a_Node000013"><a xlink:href="classiot_1_1mqtt_1_1packets_1_1Publish.html#a63528c0e73a6b5a1621fd6ae4940403c" target="_top" xlink:title=" ">
<polygon fill="white" stroke="#666666" points="1208.5,-284 1115.5,-284 1115.5,-254 1208.5,-254 1208.5,-284"/>
<text text-anchor="start" x="1123.5" y="-272" font-family="Helvetica,sans-Serif" font-size="10.00">iot::mqtt::packets</text>
<text text-anchor="middle" x="1162" y="-261" font-family="Helvetica,sans-Serif" font-size="10.00">::Publish::Publish</text>
</a>
</g>
</g>
<!-- Node11&#45;&gt;Node13 -->
<g id="edge17_Node000011_Node000013" class="edge">
<title>Node11&#45;&gt;Node13</title>
<g id="a_edge17_Node000011_Node000013"><a xlink:title=" ">
<path fill="none" stroke="#63b8ff" d="M1056.18,-257.45C1072.44,-259.25 1089.63,-261.14 1105.27,-262.86"/>
<polygon fill="#63b8ff" stroke="#63b8ff" points="1104.98,-266.35 1115.31,-263.97 1105.75,-259.39 1104.98,-266.35"/>
</a>
</g>
</g>
<!-- Node19 -->
<g id="Node000019" class="node">
<title>Node19</title>
<g id="a_Node000019"><a xlink:href="classiot_1_1mqtt_1_1Mqtt.html#ac2c838576318814d55feaaf87cdca5b9" target="_top" xlink:title=" ">
<polygon fill="white" stroke="#666666" points="1214.5,-170.5 1109.5,-170.5 1109.5,-151.5 1214.5,-151.5 1214.5,-170.5"/>
<text text-anchor="middle" x="1162" y="-158.5" font-family="Helvetica,sans-Serif" font-size="10.00">iot::mqtt::Mqtt::send</text>
</a>
</g>
</g>
<!-- Node11&#45;&gt;Node19 -->
<g id="edge23_Node000011_Node000019" class="edge">
<title>Node11&#45;&gt;Node19</title>
<g id="a_edge23_Node000011_Node000019"><a xlink:title=" ">
<path fill="none" stroke="#63b8ff" d="M1036.04,-240.41C1044.87,-237.88 1053.87,-234.77 1062,-231 1092.47,-216.87 1123.42,-193.16 1142.41,-177.3"/>
<polygon fill="#63b8ff" stroke="#63b8ff" points="1144.9,-179.78 1150.25,-170.63 1140.37,-174.44 1144.9,-179.78"/>
</a>
</g>
</g>
<!-- Node14 -->
<g id="Node000014" class="node">
<title>Node14</title>
<g id="a_Node000014"><a xlink:href="classiot_1_1mqtt_1_1types_1_1String.html#ac571371a896d6430ddc4df75e97e8060" target="_top" xlink:title=" ">
<polygon fill="white" stroke="#666666" points="1379.5,-342 1265.5,-342 1265.5,-312 1379.5,-312 1379.5,-342"/>
<text text-anchor="start" x="1273.5" y="-330" font-family="Helvetica,sans-Serif" font-size="10.00">iot::mqtt::types::String</text>
<text text-anchor="middle" x="1322.5" y="-319" font-family="Helvetica,sans-Serif" font-size="10.00">::operator=</text>
</a>
</g>
</g>
<!-- Node13&#45;&gt;Node14 -->
<g id="edge18_Node000013_Node000014" class="edge">
<title>Node13&#45;&gt;Node14</title>
<g id="a_edge18_Node000013_Node000014"><a xlink:title=" ">
<path fill="none" stroke="#63b8ff" d="M1204.23,-284.09C1224.59,-291.54 1249.34,-300.6 1270.85,-308.47"/>
<polygon fill="#63b8ff" stroke="#63b8ff" points="1269.88,-311.84 1280.48,-311.99 1272.29,-305.26 1269.88,-311.84"/>
</a>
</g>
</g>
<!-- Node15 -->
<g id="Node000015" class="node">
<title>Node15</title>
<g id="a_Node000015"><a xlink:href="classiot_1_1mqtt_1_1types_1_1StringRaw.html#a32ec42f8e1b2f8776f5b6bc29be8e296" target="_top" xlink:title=" ">
<polygon fill="white" stroke="#666666" points="1379.5,-294 1265.5,-294 1265.5,-264 1379.5,-264 1379.5,-294"/>
<text text-anchor="start" x="1273.5" y="-282" font-family="Helvetica,sans-Serif" font-size="10.00">iot::mqtt::types::String</text>
<text text-anchor="middle" x="1322.5" y="-271" font-family="Helvetica,sans-Serif" font-size="10.00">Raw::operator=</text>
</a>
</g>
</g>
<!-- Node13&#45;&gt;Node15 -->
<g id="edge19_Node000013_Node000015" class="edge">
<title>Node13&#45;&gt;Node15</title>
<g id="a_edge19_Node000013_Node000015"><a xlink:title=" ">
<path fill="none" stroke="#63b8ff" d="M1208.84,-271.89C1223.32,-272.81 1239.61,-273.83 1255.22,-274.82"/>
<polygon fill="#63b8ff" stroke="#63b8ff" points="1255.15,-278.32 1265.35,-275.46 1255.59,-271.33 1255.15,-278.32"/>
</a>
</g>
</g>
<!-- Node16 -->
<g id="Node000016" class="node">
<title>Node16</title>
<g id="a_Node000016"><a xlink:href="classiot_1_1mqtt_1_1types_1_1UInt16.html#a3c761614ff11a920e9aaba3eba90aa06" target="_top" xlink:title=" ">
<polygon fill="white" stroke="#666666" points="1381.5,-246 1263.5,-246 1263.5,-216 1381.5,-216 1381.5,-246"/>
<text text-anchor="start" x="1271.5" y="-234" font-family="Helvetica,sans-Serif" font-size="10.00">iot::mqtt::types::UInt16</text>
<text text-anchor="middle" x="1322.5" y="-223" font-family="Helvetica,sans-Serif" font-size="10.00">::operator=</text>
</a>
</g>
</g>
<!-- Node13&#45;&gt;Node16 -->
<g id="edge20_Node000013_Node000016" class="edge">
<title>Node13&#45;&gt;Node16</title>
<g id="a_edge20_Node000013_Node000016"><a xlink:title=" ">
<path fill="none" stroke="#63b8ff" d="M1208.84,-258.01C1222.79,-254.66 1238.43,-250.91 1253.52,-247.3"/>
<polygon fill="#63b8ff" stroke="#63b8ff" points="1254.42,-250.68 1263.33,-244.95 1252.79,-243.87 1254.42,-250.68"/>
</a>
</g>
</g>
<!-- Node17 -->
<g id="Node000017" class="node">
<title>Node17</title>
<g id="a_Node000017"><a xlink:href="classiot_1_1mqtt_1_1packets_1_1Publish.html#a9bfd14e069dd1fcf5ccf276c8c36b498" target="_top" xlink:title=" ">
<polygon fill="white" stroke="#666666" points="1369,-390 1276,-390 1276,-360 1369,-360 1369,-390"/>
<text text-anchor="start" x="1284" y="-378" font-family="Helvetica,sans-Serif" font-size="10.00">iot::mqtt::packets</text>
<text text-anchor="middle" x="1322.5" y="-367" font-family="Helvetica,sans-Serif" font-size="10.00">::Publish::Publish</text>
</a>
</g>
</g>
<!-- Node13&#45;&gt;Node17 -->
<g id="edge21_Node000013_Node000017" class="edge">
<title>Node13&#45;&gt;Node17</title>
<g id="a_edge21_Node000013_Node000017"><a xlink:title=" ">
<path fill="none" stroke="#63b8ff" d="M1208.69,-282.27C1214.87,-285.21 1220.85,-288.76 1226,-293 1249.41,-312.3 1238.78,-331.47 1262,-351 1263.57,-352.32 1265.21,-353.57 1266.92,-354.76"/>
<polygon fill="#63b8ff" stroke="#63b8ff" points="1265.53,-358.01 1275.9,-360.19 1269.16,-352.02 1265.53,-358.01"/>
</a>
</g>
</g>
<!-- Node18 -->
<g id="Node000018" class="node">
<title>Node18</title>
<g id="a_Node000018"><a xlink:href="classiot_1_1mqtt_1_1ControlPacket.html#ae14191916323940c9bacc11d7f517c5a" target="_top" xlink:title=" ">
<polygon fill="white" stroke="#666666" points="1545,-390 1424,-390 1424,-360 1545,-360 1545,-390"/>
<text text-anchor="start" x="1432" y="-378" font-family="Helvetica,sans-Serif" font-size="10.00">iot::mqtt::ControlPacket</text>
<text text-anchor="middle" x="1484.5" y="-367" font-family="Helvetica,sans-Serif" font-size="10.00">::ControlPacket</text>
</a>
</g>
</g>
<!-- Node17&#45;&gt;Node18 -->
<g id="edge22_Node000017_Node000018" class="edge">
<title>Node17&#45;&gt;Node18</title>
<g id="a_edge22_Node000017_Node000018"><a xlink:title=" ">
<path fill="none" stroke="#63b8ff" d="M1369.35,-375C1383.15,-375 1398.63,-375 1413.62,-375"/>
<polygon fill="#63b8ff" stroke="#63b8ff" points="1413.9,-378.5 1423.9,-375 1413.9,-371.5 1413.9,-378.5"/>
</a>
</g>
</g>
<!-- Node20 -->
<g id="Node000020" class="node">
<title>Node20</title>
<g id="a_Node000020"><a xlink:href="classiot_1_1mqtt_1_1ControlPacket.html#a1d35b63fe04256fa31650462db1b311a" target="_top" xlink:title=" ">
<polygon fill="white" stroke="#666666" points="1383,-112 1262,-112 1262,-82 1383,-82 1383,-112"/>
<text text-anchor="start" x="1270" y="-100" font-family="Helvetica,sans-Serif" font-size="10.00">iot::mqtt::ControlPacket</text>
<text text-anchor="middle" x="1322.5" y="-89" font-family="Helvetica,sans-Serif" font-size="10.00">::getName</text>
</a>
</g>
</g>
<!-- Node19&#45;&gt;Node20 -->
<g id="edge24_Node000019_Node000020" class="edge">
<title>Node19&#45;&gt;Node20</title>
<g id="a_edge24_Node000019_Node000020"><a xlink:title=" ">
<path fill="none" stroke="#63b8ff" d="M1186.6,-151.46C1206.66,-143.35 1236.22,-131.41 1262,-121 1266.12,-119.34 1270.4,-117.61 1274.69,-115.88"/>
<polygon fill="#63b8ff" stroke="#63b8ff" points="1276.08,-119.09 1284.05,-112.1 1273.46,-112.6 1276.08,-119.09"/>
</a>
</g>
</g>
<!-- Node21 -->
<g id="Node000021" class="node">
<title>Node21</title>
<g id="a_Node000021"><a xlink:href="classiot_1_1mqtt_1_1Mqtt.html#a594844a93633d9acce2794ef5bc23c5a" target="_top" xlink:title=" ">
<polygon fill="white" stroke="#666666" points="1375,-149.5 1270,-149.5 1270,-130.5 1375,-130.5 1375,-149.5"/>
<text text-anchor="middle" x="1322.5" y="-137.5" font-family="Helvetica,sans-Serif" font-size="10.00">iot::mqtt::Mqtt::send</text>
</a>
</g>
</g>
<!-- Node19&#45;&gt;Node21 -->
<g id="edge25_Node000019_Node000021" class="edge">
<title>Node19&#45;&gt;Node21</title>
<g id="a_edge25_Node000019_Node000021"><a xlink:title=" ">
<path fill="none" stroke="#63b8ff" d="M1214.9,-154.12C1229.2,-152.23 1244.86,-150.15 1259.67,-148.19"/>
<polygon fill="#63b8ff" stroke="#63b8ff" points="1260.3,-151.64 1269.76,-146.86 1259.38,-144.7 1260.3,-151.64"/>
</a>
</g>
</g>
<!-- Node24 -->
<g id="Node000024" class="node">
<title>Node24</title>
<g id="a_Node000024"><a xlink:href="classiot_1_1mqtt_1_1ControlPacket.html#a05bfc24d7ae7380ef9b2fcb64ce37526" target="_top" xlink:title=" ">
<polygon fill="white" stroke="#666666" points="1383,-198 1262,-198 1262,-168 1383,-168 1383,-198"/>
<text text-anchor="start" x="1270" y="-186" font-family="Helvetica,sans-Serif" font-size="10.00">iot::mqtt::ControlPacket</text>
<text text-anchor="middle" x="1322.5" y="-175" font-family="Helvetica,sans-Serif" font-size="10.00">::serialize</text>
</a>
</g>
</g>
<!-- Node19&#45;&gt;Node24 -->
<g id="edge28_Node000019_Node000024" class="edge">
<title>Node19&#45;&gt;Node24</title>
<g id="a_edge28_Node000019_Node000024"><a xlink:title=" ">
<path fill="none" stroke="#63b8ff" d="M1214.9,-168.2C1226.61,-169.83 1239.22,-171.58 1251.54,-173.29"/>
<polygon fill="#63b8ff" stroke="#63b8ff" points="1251.4,-176.8 1261.78,-174.71 1252.36,-169.87 1251.4,-176.8"/>
</a>
</g>
</g>
<!-- Node22 -->
<g id="Node000022" class="node">
<title>Node22</title>
<g id="a_Node000022"><a xlink:href="classiot_1_1mqtt_1_1Mqtt.html#ab70d673e9ccb125cb5ed2449cfa1492c" target="_top" xlink:title=" ">
<polygon fill="white" stroke="#666666" points="1550,-78 1419,-78 1419,-48 1550,-48 1550,-78"/>
<text text-anchor="start" x="1427" y="-66" font-family="Helvetica,sans-Serif" font-size="10.00">iot::mqtt::Mqtt::dataToHex</text>
<text text-anchor="middle" x="1484.5" y="-55" font-family="Helvetica,sans-Serif" font-size="10.00">String</text>
</a>
</g>
</g>
<!-- Node21&#45;&gt;Node22 -->
<g id="edge26_Node000021_Node000022" class="edge">
<title>Node21&#45;&gt;Node22</title>
<g id="a_edge26_Node000021_Node000022"><a xlink:title=" ">
<path fill="none" stroke="#63b8ff" d="M1359.78,-130.43C1367.63,-127.81 1375.74,-124.66 1383,-121 1400.62,-112.11 1402.1,-105.2 1419,-95 1426,-90.78 1433.63,-86.62 1441.11,-82.78"/>
<polygon fill="#63b8ff" stroke="#63b8ff" points="1443.09,-85.7 1450.46,-78.09 1439.95,-79.45 1443.09,-85.7"/>
</a>
</g>
</g>
<!-- Node23 -->
<g id="Node000023" class="node">
<title>Node23</title>
<g id="a_Node000023"><a xlink:href="classiot_1_1mqtt_1_1MqttContext.html#a26a6997aff68a55407e12cf3269ab28f" target="_top" xlink:title=" ">
<polygon fill="white" stroke="#666666" points="1541,-134 1428,-134 1428,-104 1541,-104 1541,-134"/>
<text text-anchor="start" x="1436" y="-122" font-family="Helvetica,sans-Serif" font-size="10.00">iot::mqtt::MqttContext</text>
<text text-anchor="middle" x="1484.5" y="-111" font-family="Helvetica,sans-Serif" font-size="10.00">::send</text>
</a>
</g>
</g>
<!-- Node21&#45;&gt;Node23 -->
<g id="edge27_Node000021_Node000023" class="edge">
<title>Node21&#45;&gt;Node23</title>
<g id="a_edge27_Node000021_Node000023"><a xlink:title=" ">
<path fill="none" stroke="#63b8ff" d="M1375.01,-133.24C1388.61,-131.45 1403.47,-129.5 1417.71,-127.63"/>
<polygon fill="#63b8ff" stroke="#63b8ff" points="1418.49,-131.06 1427.94,-126.29 1417.57,-124.12 1418.49,-131.06"/>
</a>
</g>
</g>
<!-- Node25 -->
<g id="Node000025" class="node">
<title>Node25</title>
<g id="a_Node000025"><a xlink:href="classiot_1_1mqtt_1_1FixedHeader.html#a45b8ecb57a876ecaec96ff3e59361b76" target="_top" xlink:title=" ">
<polygon fill="white" stroke="#666666" points="1541.5,-182 1427.5,-182 1427.5,-152 1541.5,-152 1541.5,-182"/>
<text text-anchor="start" x="1435.5" y="-170" font-family="Helvetica,sans-Serif" font-size="10.00">iot::mqtt::FixedHeader</text>
<text text-anchor="middle" x="1484.5" y="-159" font-family="Helvetica,sans-Serif" font-size="10.00">::FixedHeader</text>
</a>
</g>
</g>
<!-- Node24&#45;&gt;Node25 -->
<g id="edge29_Node000024_Node000025" class="edge">
<title>Node24&#45;&gt;Node25</title>
<g id="a_edge29_Node000024_Node000025"><a xlink:title=" ">
<path fill="none" stroke="#63b8ff" d="M1383.08,-177.04C1394.17,-175.93 1405.81,-174.77 1417.09,-173.64"/>
<polygon fill="#63b8ff" stroke="#63b8ff" points="1417.72,-177.1 1427.32,-172.62 1417.02,-170.13 1417.72,-177.1"/>
</a>
</g>
</g>
<!-- Node28 -->
<g id="Node000028" class="node">
<title>Node28</title>
<g id="a_Node000028"><a xlink:href="classiot_1_1mqtt_1_1FixedHeader.html#ad322e68956357200e493c128629b90e7" target="_top" xlink:title=" ">
<polygon fill="white" stroke="#666666" points="1541.5,-278 1427.5,-278 1427.5,-248 1541.5,-248 1541.5,-278"/>
<text text-anchor="start" x="1435.5" y="-266" font-family="Helvetica,sans-Serif" font-size="10.00">iot::mqtt::FixedHeader</text>
<text text-anchor="middle" x="1484.5" y="-255" font-family="Helvetica,sans-Serif" font-size="10.00">::serialize</text>
</a>
</g>
</g>
<!-- Node24&#45;&gt;Node28 -->
<g id="edge32_Node000024_Node000028" class="edge">
<title>Node24&#45;&gt;Node28</title>
<g id="a_edge32_Node000024_Node000028"><a xlink:title=" ">
<path fill="none" stroke="#63b8ff" d="M1366,-198.04C1371.87,-200.72 1377.7,-203.71 1383,-207 1401.19,-218.28 1400.65,-227.97 1419,-239 1421.76,-240.66 1424.66,-242.24 1427.64,-243.74"/>
<polygon fill="#63b8ff" stroke="#63b8ff" points="1426.18,-246.92 1436.73,-247.96 1429.14,-240.57 1426.18,-246.92"/>
</a>
</g>
</g>
<!-- Node30 -->
<g id="Node000030" class="node">
<title>Node30</title>
<g id="a_Node000030"><a xlink:href="classiot_1_1mqtt_1_1ControlPacket.html#ab4f58bf0c1920d705af23c8d7636247f" target="_top" xlink:title=" ">
<polygon fill="white" stroke="#666666" points="1545,-230 1424,-230 1424,-200 1545,-200 1545,-230"/>
<text text-anchor="start" x="1432" y="-218" font-family="Helvetica,sans-Serif" font-size="10.00">iot::mqtt::ControlPacket</text>
<text text-anchor="middle" x="1484.5" y="-207" font-family="Helvetica,sans-Serif" font-size="10.00">::serializeVP</text>
</a>
</g>
</g>
<!-- Node24&#45;&gt;Node30 -->
<g id="edge34_Node000024_Node000030" class="edge">
<title>Node24&#45;&gt;Node30</title>
<g id="a_edge34_Node000024_Node000030"><a xlink:title=" ">
<path fill="none" stroke="#63b8ff" d="M1383.08,-194.92C1393.07,-196.91 1403.52,-199 1413.75,-201.05"/>
<polygon fill="#63b8ff" stroke="#63b8ff" points="1413.38,-204.55 1423.87,-203.07 1414.75,-197.68 1413.38,-204.55"/>
</a>
</g>
</g>
<!-- Node26 -->
<g id="Node000026" class="node">
<title>Node26</title>
<g id="a_Node000026"><a xlink:href="classiot_1_1mqtt_1_1types_1_1UIntV.html#a672679ce4242663e44de0be37001c764" target="_top" xlink:title=" ">
<polygon fill="white" stroke="#666666" points="1709,-206 1595,-206 1595,-176 1709,-176 1709,-206"/>
<text text-anchor="start" x="1603" y="-194" font-family="Helvetica,sans-Serif" font-size="10.00">iot::mqtt::types::UIntV</text>
<text text-anchor="middle" x="1652" y="-183" font-family="Helvetica,sans-Serif" font-size="10.00">::operator=</text>
</a>
</g>
</g>
<!-- Node25&#45;&gt;Node26 -->
<g id="edge30_Node000025_Node000026" class="edge">
<title>Node25&#45;&gt;Node26</title>
<g id="a_edge30_Node000025_Node000026"><a xlink:title=" ">
<path fill="none" stroke="#63b8ff" d="M1541.53,-175.13C1555.34,-177.13 1570.26,-179.29 1584.51,-181.36"/>
<polygon fill="#63b8ff" stroke="#63b8ff" points="1584.35,-184.87 1594.75,-182.84 1585.35,-177.94 1584.35,-184.87"/>
</a>
</g>
</g>
<!-- Node27 -->
<g id="Node000027" class="node">
<title>Node27</title>
<g id="a_Node000027"><a xlink:href="classiot_1_1mqtt_1_1types_1_1UInt8.html#ac58c30e21c435aa4c4f22de6549ce0b0" target="_top" xlink:title=" ">
<polygon fill="white" stroke="#666666" points="1708.5,-158 1595.5,-158 1595.5,-128 1708.5,-128 1708.5,-158"/>
<text text-anchor="start" x="1603.5" y="-146" font-family="Helvetica,sans-Serif" font-size="10.00">iot::mqtt::types::UInt8</text>
<text text-anchor="middle" x="1652" y="-135" font-family="Helvetica,sans-Serif" font-size="10.00">::operator=</text>
</a>
</g>
</g>
<!-- Node25&#45;&gt;Node27 -->
<g id="edge31_Node000025_Node000027" class="edge">
<title>Node25&#45;&gt;Node27</title>
<g id="a_edge31_Node000025_Node000027"><a xlink:title=" ">
<path fill="none" stroke="#63b8ff" d="M1541.53,-158.87C1555.63,-156.83 1570.88,-154.62 1585.4,-152.51"/>
<polygon fill="#63b8ff" stroke="#63b8ff" points="1585.91,-155.98 1595.31,-151.08 1584.91,-149.05 1585.91,-155.98"/>
</a>
</g>
</g>
<!-- Node29 -->
<g id="Node000029" class="node">
<title>Node29</title>
<g id="a_Node000029"><a xlink:href="classiot_1_1mqtt_1_1types_1_1TypeBase.html#a7e6939bfafb586b2c2990b485bc5218a" target="_top" xlink:title=" ">
<polygon fill="white" stroke="#666666" points="1718,-278 1586,-278 1586,-248 1718,-248 1718,-278"/>
<text text-anchor="start" x="1594" y="-266" font-family="Helvetica,sans-Serif" font-size="10.00">iot::mqtt::types::TypeBase</text>
<text text-anchor="middle" x="1652" y="-255" font-family="Helvetica,sans-Serif" font-size="10.00">::serialize</text>
</a>
</g>
</g>
<!-- Node28&#45;&gt;Node29 -->
<g id="edge33_Node000028_Node000029" class="edge">
<title>Node28&#45;&gt;Node29</title>
<g id="a_edge33_Node000028_Node000029"><a xlink:title=" ">
<path fill="none" stroke="#63b8ff" d="M1541.53,-263C1552.56,-263 1564.29,-263 1575.82,-263"/>
<polygon fill="#63b8ff" stroke="#63b8ff" points="1575.89,-266.5 1585.89,-263 1575.89,-259.5 1575.89,-266.5"/>
</a>
</g>
</g>
<!-- Node32&#45;&gt;Node22 -->
<g id="edge37_Node000032_Node000022" class="edge">
<title>Node32&#45;&gt;Node22</title>
<g id="a_edge37_Node000032_Node000022"><a xlink:title=" ">
<path fill="none" stroke="#63b8ff" d="M1047.23,-63C1137.38,-63 1309.82,-63 1408.76,-63"/>
<polygon fill="#63b8ff" stroke="#63b8ff" points="1408.98,-66.5 1418.98,-63 1408.98,-59.5 1408.98,-66.5"/>
</a>
</g>
</g>
</g>
</svg>
