<?xml version="1.0" encoding="UTF-8" standalone="no"?>
<!DOCTYPE svg PUBLIC "-//W3C//DTD SVG 1.1//EN"
 "http://www.w3.org/Graphics/SVG/1.1/DTD/svg11.dtd">
<!-- Generated by graphviz version 2.43.0 (0)
 -->
<!-- Title: web::http::Parser Pages: 1 -->
<svg width="198pt" height="93pt"
 viewBox="0.00 0.00 198.00 93.00" xmlns="http://www.w3.org/2000/svg" xmlns:xlink="http://www.w3.org/1999/xlink">
<g id="graph0" class="graph" transform="scale(1 1) rotate(0) translate(4 89)">
<title>web::http::Parser</title>
<!-- Node1 -->
<g id="Node000001" class="node">
<title>Node1</title>
<g id="a_Node000001"><a xlink:title=" ">
<polygon fill="#999999" stroke="transparent" points="136,-85 52,-85 52,-66 136,-66 136,-85"/>
<text text-anchor="start" x="56" y="-72.5" font-family="Helvetica,sans-Serif" font-size="10.00">web::http::Parser</text>
<polygon fill="none" stroke="#666666" points="52,-66 52,-85 136,-85 136,-66 52,-66"/>
</a>
</g>
</g>
<!-- Node2 -->
<g id="Node000002" class="node">
<title>Node2</title>
<g id="a_Node000002"><a xlink:href="classweb_1_1http_1_1client_1_1ResponseParser.html" target="_top" xlink:title=" ">
<polygon fill="white" stroke="transparent" points="84,-30 0,-30 0,0 84,0 84,-30"/>
<text text-anchor="start" x="4" y="-18" font-family="Helvetica,sans-Serif" font-size="10.00">web::http::client::</text>
<text text-anchor="start" x="5.5" y="-7" font-family="Helvetica,sans-Serif" font-size="10.00">ResponseParser</text>
<polygon fill="none" stroke="#666666" points="0,0 0,-30 84,-30 84,0 0,0"/>
</a>
</g>
</g>
<!-- Node1&#45;&gt;Node2 -->
<g id="edge1_Node000001_Node000002" class="edge">
<title>Node1&#45;&gt;Node2</title>
<g id="a_edge1_Node000001_Node000002"><a xlink:title=" ">
<path fill="none" stroke="#63b8ff" d="M79.47,-58.15C71.63,-49.34 62.06,-38.56 54.55,-30.11"/>
<polygon fill="none" stroke="#63b8ff" points="77.07,-60.72 86.33,-65.87 82.3,-56.07 77.07,-60.72"/>
</a>
</g>
</g>
<!-- Node3 -->
<g id="Node000003" class="node">
<title>Node3</title>
<g id="a_Node000003"><a xlink:href="classweb_1_1http_1_1server_1_1RequestParser.html" target="_top" xlink:title=" ">
<polygon fill="white" stroke="transparent" points="190,-30 102,-30 102,0 190,0 190,-30"/>
<text text-anchor="start" x="106" y="-18" font-family="Helvetica,sans-Serif" font-size="10.00">web::http::server::</text>
<text text-anchor="start" x="113" y="-7" font-family="Helvetica,sans-Serif" font-size="10.00">RequestParser</text>
<polygon fill="none" stroke="#666666" points="102,0 102,-30 190,-30 190,0 102,0"/>
</a>
</g>
</g>
<!-- Node1&#45;&gt;Node3 -->
<g id="edge2_Node000001_Node000003" class="edge">
<title>Node1&#45;&gt;Node3</title>
<g id="a_edge2_Node000001_Node000003"><a xlink:title=" ">
<path fill="none" stroke="#63b8ff" d="M108.53,-58.15C116.37,-49.34 125.94,-38.56 133.45,-30.11"/>
<polygon fill="none" stroke="#63b8ff" points="105.7,-56.07 101.67,-65.87 110.93,-60.72 105.7,-56.07"/>
</a>
</g>
</g>
</g>
</svg>
