<?xml version="1.0" encoding="UTF-8" standalone="no"?>
<!DOCTYPE svg PUBLIC "-//W3C//DTD SVG 1.1//EN"
 "http://www.w3.org/Graphics/SVG/1.1/DTD/svg11.dtd">
<!-- Generated by graphviz version 2.43.0 (0)
 -->
<!-- Title: iot::mqtt::Mqtt::_onPubrec Pages: 1 -->
<svg width="1022pt" height="347pt"
 viewBox="0.00 0.00 1022.00 346.50" xmlns="http://www.w3.org/2000/svg" xmlns:xlink="http://www.w3.org/1999/xlink">
<g id="graph0" class="graph" transform="scale(1 1) rotate(0) translate(4 342.5)">
<title>iot::mqtt::Mqtt::_onPubrec</title>
<!-- Node1 -->
<g id="Node000001" class="node">
<title>Node1</title>
<g id="a_Node000001"><a xlink:title=" ">
<polygon fill="#999999" stroke="#666666" points="143,-273.5 0,-273.5 0,-254.5 143,-254.5 143,-273.5"/>
<text text-anchor="middle" x="71.5" y="-261.5" font-family="Helvetica,sans-Serif" font-size="10.00">iot::mqtt::Mqtt::_onPubrec</text>
</a>
</g>
</g>
<!-- Node2 -->
<g id="Node000002" class="node">
<title>Node2</title>
<g id="a_Node000002"><a xlink:href="classiot_1_1mqtt_1_1MqttContext.html#ada10a6f2fcf6953ed62d93bdb5907cd1" target="_top" xlink:title=" ">
<polygon fill="white" stroke="#666666" points="330.5,-338.5 181.5,-338.5 181.5,-319.5 330.5,-319.5 330.5,-338.5"/>
<text text-anchor="middle" x="256" y="-326.5" font-family="Helvetica,sans-Serif" font-size="10.00">iot::mqtt::MqttContext::end</text>
</a>
</g>
</g>
<!-- Node1&#45;&gt;Node2 -->
<g id="edge1_Node000001_Node000002" class="edge">
<title>Node1&#45;&gt;Node2</title>
<g id="a_edge1_Node000001_Node000002"><a xlink:title=" ">
<path fill="none" stroke="#63b8ff" d="M92.14,-273.63C113.23,-283.7 147.9,-299.48 179,-310 186.34,-312.48 194.17,-314.8 201.92,-316.91"/>
<polygon fill="#63b8ff" stroke="#63b8ff" points="201.08,-320.3 211.64,-319.45 202.85,-313.53 201.08,-320.3"/>
</a>
</g>
</g>
<!-- Node3 -->
<g id="Node000003" class="node">
<title>Node3</title>
<g id="a_Node000003"><a xlink:href="classiot_1_1mqtt_1_1packets_1_1Pubrec.html#a6059e37ab98c145fe03012405b44d255" target="_top" xlink:title=" ">
<polygon fill="white" stroke="#666666" points="333,-301 179,-301 179,-271 333,-271 333,-301"/>
<text text-anchor="start" x="187" y="-289" font-family="Helvetica,sans-Serif" font-size="10.00">iot::mqtt::packets</text>
<text text-anchor="middle" x="256" y="-278" font-family="Helvetica,sans-Serif" font-size="10.00">::Pubrec::getPacketIdentifier</text>
</a>
</g>
</g>
<!-- Node1&#45;&gt;Node3 -->
<g id="edge2_Node000001_Node000003" class="edge">
<title>Node1&#45;&gt;Node3</title>
<g id="a_edge2_Node000001_Node000003"><a xlink:title=" ">
<path fill="none" stroke="#63b8ff" d="M143.06,-272.51C151.49,-273.52 160.18,-274.57 168.8,-275.61"/>
<polygon fill="#63b8ff" stroke="#63b8ff" points="168.53,-279.1 178.88,-276.82 169.37,-272.15 168.53,-279.1"/>
</a>
</g>
</g>
<!-- Node4 -->
<g id="Node000004" class="node">
<title>Node4</title>
<g id="a_Node000004"><a xlink:href="classiot_1_1mqtt_1_1Mqtt.html#ab847146d78d9361b354f401f58b8d3c8" target="_top" xlink:title=" ">
<polygon fill="white" stroke="#666666" points="325,-252.5 187,-252.5 187,-233.5 325,-233.5 325,-252.5"/>
<text text-anchor="middle" x="256" y="-240.5" font-family="Helvetica,sans-Serif" font-size="10.00">iot::mqtt::Mqtt::onPubrec</text>
</a>
</g>
</g>
<!-- Node1&#45;&gt;Node4 -->
<g id="edge3_Node000001_Node000004" class="edge">
<title>Node1&#45;&gt;Node4</title>
<g id="a_edge3_Node000001_Node000004"><a xlink:title=" ">
<path fill="none" stroke="#63b8ff" d="M143.06,-255.88C154.04,-254.62 165.44,-253.3 176.59,-252.02"/>
<polygon fill="#63b8ff" stroke="#63b8ff" points="177.19,-255.48 186.73,-250.86 176.39,-248.52 177.19,-255.48"/>
</a>
</g>
</g>
<!-- Node5 -->
<g id="Node000005" class="node">
<title>Node5</title>
<g id="a_Node000005"><a xlink:href="classiot_1_1mqtt_1_1Mqtt.html#a83cc8ae2aed0a7973bfde515b35bb0fe" target="_top" xlink:title=" ">
<polygon fill="white" stroke="#666666" points="329.5,-215.5 182.5,-215.5 182.5,-196.5 329.5,-196.5 329.5,-215.5"/>
<text text-anchor="middle" x="256" y="-203.5" font-family="Helvetica,sans-Serif" font-size="10.00">iot::mqtt::Mqtt::sendPubrel</text>
</a>
</g>
</g>
<!-- Node1&#45;&gt;Node5 -->
<g id="edge4_Node000001_Node000005" class="edge">
<title>Node1&#45;&gt;Node5</title>
<g id="a_edge4_Node000001_Node000005"><a xlink:title=" ">
<path fill="none" stroke="#63b8ff" d="M96.36,-254.44C117.79,-246.05 150.2,-233.85 179,-225 186.86,-222.59 195.24,-220.25 203.46,-218.1"/>
<polygon fill="#63b8ff" stroke="#63b8ff" points="204.54,-221.43 213.36,-215.56 202.81,-214.65 204.54,-221.43"/>
</a>
</g>
</g>
<!-- Node6 -->
<g id="Node000006" class="node">
<title>Node6</title>
<g id="a_Node000006"><a xlink:href="classiot_1_1mqtt_1_1packets_1_1Pubrel.html#a109bfa06d50268b41622543fc2f867f5" target="_top" xlink:title=" ">
<polygon fill="white" stroke="#666666" points="478,-268 376,-268 376,-238 478,-238 478,-268"/>
<text text-anchor="start" x="384" y="-256" font-family="Helvetica,sans-Serif" font-size="10.00">iot::mqtt::packets</text>
<text text-anchor="middle" x="427" y="-245" font-family="Helvetica,sans-Serif" font-size="10.00">::Pubrel::Pubrel</text>
</a>
</g>
</g>
<!-- Node5&#45;&gt;Node6 -->
<g id="edge5_Node000005_Node000006" class="edge">
<title>Node5&#45;&gt;Node6</title>
<g id="a_edge5_Node000005_Node000006"><a xlink:title=" ">
<path fill="none" stroke="#63b8ff" d="M296.54,-215.51C308.3,-218.44 321.2,-221.75 333,-225 344.19,-228.08 356.09,-231.53 367.5,-234.93"/>
<polygon fill="#63b8ff" stroke="#63b8ff" points="366.79,-238.37 377.38,-237.89 368.8,-231.66 366.79,-238.37"/>
</a>
</g>
</g>
<!-- Node10 -->
<g id="Node000010" class="node">
<title>Node10</title>
<g id="a_Node000010"><a xlink:href="classiot_1_1mqtt_1_1Mqtt.html#ac2c838576318814d55feaaf87cdca5b9" target="_top" xlink:title=" ">
<polygon fill="white" stroke="#666666" points="485,-191.5 369,-191.5 369,-172.5 485,-172.5 485,-191.5"/>
<text text-anchor="middle" x="427" y="-179.5" font-family="Helvetica,sans-Serif" font-size="10.00">iot::mqtt::Mqtt::send</text>
</a>
</g>
</g>
<!-- Node5&#45;&gt;Node10 -->
<g id="edge9_Node000005_Node000010" class="edge">
<title>Node5&#45;&gt;Node10</title>
<g id="a_edge9_Node000005_Node000010"><a xlink:title=" ">
<path fill="none" stroke="#63b8ff" d="M324.28,-196.45C335.55,-194.84 347.26,-193.18 358.54,-191.58"/>
<polygon fill="#63b8ff" stroke="#63b8ff" points="359.35,-195 368.75,-190.13 358.36,-188.07 359.35,-195"/>
</a>
</g>
</g>
<!-- Node7 -->
<g id="Node000007" class="node">
<title>Node7</title>
<g id="a_Node000007"><a xlink:href="classiot_1_1mqtt_1_1types_1_1UInt16.html#a60a47d7e83cd70d9c87031048668ba72" target="_top" xlink:title=" ">
<polygon fill="white" stroke="#666666" points="652,-316 522,-316 522,-286 652,-286 652,-316"/>
<text text-anchor="start" x="530" y="-304" font-family="Helvetica,sans-Serif" font-size="10.00">iot::mqtt::types::UInt16</text>
<text text-anchor="middle" x="587" y="-293" font-family="Helvetica,sans-Serif" font-size="10.00">::operator=</text>
</a>
</g>
</g>
<!-- Node6&#45;&gt;Node7 -->
<g id="edge6_Node000006_Node000007" class="edge">
<title>Node6&#45;&gt;Node7</title>
<g id="a_edge6_Node000006_Node000007"><a xlink:title=" ">
<path fill="none" stroke="#63b8ff" d="M477.56,-268.06C493.15,-272.79 510.52,-278.07 526.71,-282.99"/>
<polygon fill="#63b8ff" stroke="#63b8ff" points="526.03,-286.44 536.62,-286 528.07,-279.74 526.03,-286.44"/>
</a>
</g>
</g>
<!-- Node8 -->
<g id="Node000008" class="node">
<title>Node8</title>
<g id="a_Node000008"><a xlink:href="classiot_1_1mqtt_1_1packets_1_1Pubrel.html#ac28271476c0a0f9e3fadbb470b74b410" target="_top" xlink:title=" ">
<polygon fill="white" stroke="#666666" points="638,-268 536,-268 536,-238 638,-238 638,-268"/>
<text text-anchor="start" x="544" y="-256" font-family="Helvetica,sans-Serif" font-size="10.00">iot::mqtt::packets</text>
<text text-anchor="middle" x="587" y="-245" font-family="Helvetica,sans-Serif" font-size="10.00">::Pubrel::Pubrel</text>
</a>
</g>
</g>
<!-- Node6&#45;&gt;Node8 -->
<g id="edge7_Node000006_Node000008" class="edge">
<title>Node6&#45;&gt;Node8</title>
<g id="a_edge7_Node000006_Node000008"><a xlink:title=" ">
<path fill="none" stroke="#63b8ff" d="M478.43,-253C493.47,-253 510.1,-253 525.7,-253"/>
<polygon fill="#63b8ff" stroke="#63b8ff" points="525.78,-256.5 535.78,-253 525.78,-249.5 525.78,-256.5"/>
</a>
</g>
</g>
<!-- Node9 -->
<g id="Node000009" class="node">
<title>Node9</title>
<g id="a_Node000009"><a xlink:href="classiot_1_1mqtt_1_1ControlPacket.html#ae14191916323940c9bacc11d7f517c5a" target="_top" xlink:title=" ">
<polygon fill="white" stroke="#666666" points="827.5,-270 695.5,-270 695.5,-240 827.5,-240 827.5,-270"/>
<text text-anchor="start" x="703.5" y="-258" font-family="Helvetica,sans-Serif" font-size="10.00">iot::mqtt::ControlPacket</text>
<text text-anchor="middle" x="761.5" y="-247" font-family="Helvetica,sans-Serif" font-size="10.00">::ControlPacket</text>
</a>
</g>
</g>
<!-- Node8&#45;&gt;Node9 -->
<g id="edge8_Node000008_Node000009" class="edge">
<title>Node8&#45;&gt;Node9</title>
<g id="a_edge8_Node000008_Node000009"><a xlink:title=" ">
<path fill="none" stroke="#63b8ff" d="M638.36,-253.58C652.96,-253.75 669.23,-253.94 685.02,-254.12"/>
<polygon fill="#63b8ff" stroke="#63b8ff" points="685.26,-257.63 695.3,-254.24 685.34,-250.63 685.26,-257.63"/>
</a>
</g>
</g>
<!-- Node11 -->
<g id="Node000011" class="node">
<title>Node11</title>
<g id="a_Node000011"><a xlink:href="classiot_1_1mqtt_1_1ControlPacket.html#a1d35b63fe04256fa31650462db1b311a" target="_top" xlink:title=" ">
<polygon fill="white" stroke="#666666" points="653,-218 521,-218 521,-188 653,-188 653,-218"/>
<text text-anchor="start" x="529" y="-206" font-family="Helvetica,sans-Serif" font-size="10.00">iot::mqtt::ControlPacket</text>
<text text-anchor="middle" x="587" y="-195" font-family="Helvetica,sans-Serif" font-size="10.00">::getName</text>
</a>
</g>
</g>
<!-- Node10&#45;&gt;Node11 -->
<g id="edge10_Node000010_Node000011" class="edge">
<title>Node10&#45;&gt;Node11</title>
<g id="a_edge10_Node000010_Node000011"><a xlink:title=" ">
<path fill="none" stroke="#63b8ff" d="M485.04,-189.58C493.43,-190.7 502.17,-191.86 510.86,-193.01"/>
<polygon fill="#63b8ff" stroke="#63b8ff" points="510.62,-196.51 520.99,-194.36 511.54,-189.57 510.62,-196.51"/>
</a>
</g>
</g>
<!-- Node12 -->
<g id="Node000012" class="node">
<title>Node12</title>
<g id="a_Node000012"><a xlink:href="classiot_1_1mqtt_1_1Mqtt.html#a594844a93633d9acce2794ef5bc23c5a" target="_top" xlink:title=" ">
<polygon fill="white" stroke="#666666" points="645,-169.5 529,-169.5 529,-150.5 645,-150.5 645,-169.5"/>
<text text-anchor="middle" x="587" y="-157.5" font-family="Helvetica,sans-Serif" font-size="10.00">iot::mqtt::Mqtt::send</text>
</a>
</g>
</g>
<!-- Node10&#45;&gt;Node12 -->
<g id="edge11_Node000010_Node000012" class="edge">
<title>Node10&#45;&gt;Node12</title>
<g id="a_edge11_Node000010_Node000012"><a xlink:title=" ">
<path fill="none" stroke="#63b8ff" d="M485.04,-174.06C495.94,-172.54 507.44,-170.94 518.62,-169.38"/>
<polygon fill="#63b8ff" stroke="#63b8ff" points="519.36,-172.81 528.78,-167.97 518.39,-165.88 519.36,-172.81"/>
</a>
</g>
</g>
<!-- Node15 -->
<g id="Node000015" class="node">
<title>Node15</title>
<g id="a_Node000015"><a xlink:href="classiot_1_1mqtt_1_1ControlPacket.html#a05bfc24d7ae7380ef9b2fcb64ce37526" target="_top" xlink:title=" ">
<polygon fill="white" stroke="#666666" points="653,-102 521,-102 521,-72 653,-72 653,-102"/>
<text text-anchor="start" x="529" y="-90" font-family="Helvetica,sans-Serif" font-size="10.00">iot::mqtt::ControlPacket</text>
<text text-anchor="middle" x="587" y="-79" font-family="Helvetica,sans-Serif" font-size="10.00">::serialize</text>
</a>
</g>
</g>
<!-- Node10&#45;&gt;Node15 -->
<g id="edge14_Node000010_Node000015" class="edge">
<title>Node10&#45;&gt;Node15</title>
<g id="a_edge14_Node000010_Node000015"><a xlink:title=" ">
<path fill="none" stroke="#63b8ff" d="M444.02,-172.37C469.19,-157.23 518.57,-127.55 551.93,-107.49"/>
<polygon fill="#63b8ff" stroke="#63b8ff" points="554.11,-110.26 560.88,-102.1 550.51,-104.26 554.11,-110.26"/>
</a>
</g>
</g>
<!-- Node13 -->
<g id="Node000013" class="node">
<title>Node13</title>
<g id="a_Node000013"><a xlink:href="classiot_1_1mqtt_1_1Mqtt.html#ab70d673e9ccb125cb5ed2449cfa1492c" target="_top" xlink:title=" ">
<polygon fill="white" stroke="#666666" points="834,-222 689,-222 689,-192 834,-192 834,-222"/>
<text text-anchor="start" x="697" y="-210" font-family="Helvetica,sans-Serif" font-size="10.00">iot::mqtt::Mqtt::dataToHex</text>
<text text-anchor="middle" x="761.5" y="-199" font-family="Helvetica,sans-Serif" font-size="10.00">String</text>
</a>
</g>
</g>
<!-- Node12&#45;&gt;Node13 -->
<g id="edge12_Node000012_Node000013" class="edge">
<title>Node12&#45;&gt;Node13</title>
<g id="a_edge12_Node000012_Node000013"><a xlink:title=" ">
<path fill="none" stroke="#63b8ff" d="M622.91,-169.51C643.77,-175.19 670.92,-182.59 695.59,-189.32"/>
<polygon fill="#63b8ff" stroke="#63b8ff" points="694.7,-192.7 705.27,-191.95 696.54,-185.95 694.7,-192.7"/>
</a>
</g>
</g>
<!-- Node14 -->
<g id="Node000014" class="node">
<title>Node14</title>
<g id="a_Node000014"><a xlink:href="classiot_1_1mqtt_1_1MqttContext.html#ab674b33f357f43982863a67c0429dd5b" target="_top" xlink:title=" ">
<polygon fill="white" stroke="#666666" points="824,-174 699,-174 699,-144 824,-144 824,-174"/>
<text text-anchor="start" x="707" y="-162" font-family="Helvetica,sans-Serif" font-size="10.00">iot::mqtt::MqttContext</text>
<text text-anchor="middle" x="761.5" y="-151" font-family="Helvetica,sans-Serif" font-size="10.00">::send</text>
</a>
</g>
</g>
<!-- Node12&#45;&gt;Node14 -->
<g id="edge13_Node000012_Node000014" class="edge">
<title>Node12&#45;&gt;Node14</title>
<g id="a_edge13_Node000012_Node000014"><a xlink:title=" ">
<path fill="none" stroke="#63b8ff" d="M645.44,-159.67C659.24,-159.59 674.16,-159.5 688.52,-159.42"/>
<polygon fill="#63b8ff" stroke="#63b8ff" points="688.89,-162.92 698.87,-159.36 688.85,-155.92 688.89,-162.92"/>
</a>
</g>
</g>
<!-- Node16 -->
<g id="Node000016" class="node">
<title>Node16</title>
<g id="a_Node000016"><a xlink:href="classiot_1_1mqtt_1_1FixedHeader.html#a45b8ecb57a876ecaec96ff3e59361b76" target="_top" xlink:title=" ">
<polygon fill="white" stroke="#666666" points="824,-126 699,-126 699,-96 824,-96 824,-126"/>
<text text-anchor="start" x="707" y="-114" font-family="Helvetica,sans-Serif" font-size="10.00">iot::mqtt::FixedHeader</text>
<text text-anchor="middle" x="761.5" y="-103" font-family="Helvetica,sans-Serif" font-size="10.00">::FixedHeader</text>
</a>
</g>
</g>
<!-- Node15&#45;&gt;Node16 -->
<g id="edge15_Node000015_Node000016" class="edge">
<title>Node15&#45;&gt;Node16</title>
<g id="a_edge15_Node000015_Node000016"><a xlink:title=" ">
<path fill="none" stroke="#63b8ff" d="M653.21,-96.07C664.8,-97.69 676.92,-99.37 688.68,-101.01"/>
<polygon fill="#63b8ff" stroke="#63b8ff" points="688.51,-104.52 698.9,-102.43 689.47,-97.58 688.51,-104.52"/>
</a>
</g>
</g>
<!-- Node19 -->
<g id="Node000019" class="node">
<title>Node19</title>
<g id="a_Node000019"><a xlink:href="classiot_1_1mqtt_1_1FixedHeader.html#ad322e68956357200e493c128629b90e7" target="_top" xlink:title=" ">
<polygon fill="white" stroke="#666666" points="824,-78 699,-78 699,-48 824,-48 824,-78"/>
<text text-anchor="start" x="707" y="-66" font-family="Helvetica,sans-Serif" font-size="10.00">iot::mqtt::FixedHeader</text>
<text text-anchor="middle" x="761.5" y="-55" font-family="Helvetica,sans-Serif" font-size="10.00">::serialize</text>
</a>
</g>
</g>
<!-- Node15&#45;&gt;Node19 -->
<g id="edge18_Node000015_Node000019" class="edge">
<title>Node15&#45;&gt;Node19</title>
<g id="a_edge18_Node000015_Node000019"><a xlink:title=" ">
<path fill="none" stroke="#63b8ff" d="M653.21,-77.93C664.8,-76.31 676.92,-74.63 688.68,-72.99"/>
<polygon fill="#63b8ff" stroke="#63b8ff" points="689.47,-76.42 698.9,-71.57 688.51,-69.48 689.47,-76.42"/>
</a>
</g>
</g>
<!-- Node21 -->
<g id="Node000021" class="node">
<title>Node21</title>
<g id="a_Node000021"><a xlink:href="classiot_1_1mqtt_1_1ControlPacket.html#ab4f58bf0c1920d705af23c8d7636247f" target="_top" xlink:title=" ">
<polygon fill="white" stroke="#666666" points="827.5,-30 695.5,-30 695.5,0 827.5,0 827.5,-30"/>
<text text-anchor="start" x="703.5" y="-18" font-family="Helvetica,sans-Serif" font-size="10.00">iot::mqtt::ControlPacket</text>
<text text-anchor="middle" x="761.5" y="-7" font-family="Helvetica,sans-Serif" font-size="10.00">::serializeVP</text>
</a>
</g>
</g>
<!-- Node15&#45;&gt;Node21 -->
<g id="edge20_Node000015_Node000021" class="edge">
<title>Node15&#45;&gt;Node21</title>
<g id="a_edge20_Node000015_Node000021"><a xlink:title=" ">
<path fill="none" stroke="#63b8ff" d="M617.2,-71.98C637.15,-62 664.34,-48.96 689,-39 693.66,-37.12 698.53,-35.26 703.45,-33.46"/>
<polygon fill="#63b8ff" stroke="#63b8ff" points="704.66,-36.75 712.9,-30.09 702.31,-30.15 704.66,-36.75"/>
</a>
</g>
</g>
<!-- Node17 -->
<g id="Node000017" class="node">
<title>Node17</title>
<g id="a_Node000017"><a xlink:href="classiot_1_1mqtt_1_1types_1_1UIntV.html#a55e63d1c17bc11b3634ca1c32b1e0ca8" target="_top" xlink:title=" ">
<polygon fill="white" stroke="#666666" points="1004.5,-174 879.5,-174 879.5,-144 1004.5,-144 1004.5,-174"/>
<text text-anchor="start" x="887.5" y="-162" font-family="Helvetica,sans-Serif" font-size="10.00">iot::mqtt::types::UIntV</text>
<text text-anchor="middle" x="942" y="-151" font-family="Helvetica,sans-Serif" font-size="10.00">::operator=</text>
</a>
</g>
</g>
<!-- Node16&#45;&gt;Node17 -->
<g id="edge16_Node000016_Node000017" class="edge">
<title>Node16&#45;&gt;Node17</title>
<g id="a_edge16_Node000016_Node000017"><a xlink:title=" ">
<path fill="none" stroke="#63b8ff" d="M818.49,-126.06C836.52,-130.9 856.65,-136.32 875.31,-141.34"/>
<polygon fill="#63b8ff" stroke="#63b8ff" points="874.64,-144.78 885.21,-144 876.46,-138.02 874.64,-144.78"/>
</a>
</g>
</g>
<!-- Node18 -->
<g id="Node000018" class="node">
<title>Node18</title>
<g id="a_Node000018"><a xlink:href="classiot_1_1mqtt_1_1types_1_1UInt8.html#a046b3f06a9eef1ed55414ec4272e2713" target="_top" xlink:title=" ">
<polygon fill="white" stroke="#666666" points="1004,-126 880,-126 880,-96 1004,-96 1004,-126"/>
<text text-anchor="start" x="888" y="-114" font-family="Helvetica,sans-Serif" font-size="10.00">iot::mqtt::types::UInt8</text>
<text text-anchor="middle" x="942" y="-103" font-family="Helvetica,sans-Serif" font-size="10.00">::operator=</text>
</a>
</g>
</g>
<!-- Node16&#45;&gt;Node18 -->
<g id="edge17_Node000016_Node000018" class="edge">
<title>Node16&#45;&gt;Node18</title>
<g id="a_edge17_Node000016_Node000018"><a xlink:title=" ">
<path fill="none" stroke="#63b8ff" d="M824.18,-111C838.84,-111 854.59,-111 869.64,-111"/>
<polygon fill="#63b8ff" stroke="#63b8ff" points="869.92,-114.5 879.92,-111 869.92,-107.5 869.92,-114.5"/>
</a>
</g>
</g>
<!-- Node20 -->
<g id="Node000020" class="node">
<title>Node20</title>
<g id="a_Node000020"><a xlink:href="classiot_1_1mqtt_1_1types_1_1TypeBase.html#a7e6939bfafb586b2c2990b485bc5218a" target="_top" xlink:title=" ">
<polygon fill="white" stroke="#666666" points="1014,-78 870,-78 870,-48 1014,-48 1014,-78"/>
<text text-anchor="start" x="878" y="-66" font-family="Helvetica,sans-Serif" font-size="10.00">iot::mqtt::types::TypeBase</text>
<text text-anchor="middle" x="942" y="-55" font-family="Helvetica,sans-Serif" font-size="10.00">::serialize</text>
</a>
</g>
</g>
<!-- Node19&#45;&gt;Node20 -->
<g id="edge19_Node000019_Node000020" class="edge">
<title>Node19&#45;&gt;Node20</title>
<g id="a_edge19_Node000019_Node000020"><a xlink:title=" ">
<path fill="none" stroke="#63b8ff" d="M824.18,-63C835.56,-63 847.6,-63 859.46,-63"/>
<polygon fill="#63b8ff" stroke="#63b8ff" points="859.81,-66.5 869.81,-63 859.81,-59.5 859.81,-66.5"/>
</a>
</g>
</g>
</g>
</svg>
