<?xml version="1.0" encoding="UTF-8" standalone="no"?>
<!DOCTYPE svg PUBLIC "-//W3C//DTD SVG 1.1//EN"
 "http://www.w3.org/Graphics/SVG/1.1/DTD/svg11.dtd">
<!-- Generated by graphviz version 2.43.0 (0)
 -->
<!-- Title: database::mariadb::MariaDBCommand::setMariaDBConnection Pages: 1 -->
<svg width="635pt" height="49pt"
 viewBox="0.00 0.00 635.00 49.00" xmlns="http://www.w3.org/2000/svg" xmlns:xlink="http://www.w3.org/1999/xlink">
<g id="graph0" class="graph" transform="scale(1 1) rotate(0) translate(4 45)">
<title>database::mariadb::MariaDBCommand::setMariaDBConnection</title>
<!-- Node1 -->
<g id="Node000001" class="node">
<title>Node1</title>
<g id="a_Node000001"><a xlink:title=" ">
<polygon fill="#999999" stroke="#666666" points="627,-35.5 400,-35.5 400,-5.5 627,-5.5 627,-35.5"/>
<text text-anchor="start" x="408" y="-23.5" font-family="Helvetica,sans-Serif" font-size="10.00">database::mariadb::</text>
<text text-anchor="middle" x="513.5" y="-12.5" font-family="Helvetica,sans-Serif" font-size="10.00">MariaDBCommand::setMariaDBConnection</text>
</a>
</g>
</g>
<!-- Node2 -->
<g id="Node000002" class="node">
<title>Node2</title>
<g id="a_Node000002"><a xlink:href="classdatabase_1_1mariadb_1_1_maria_d_b_connection.html#abc46d0297ce19f7a7b0f65234fba03a2" target="_top" xlink:title=" ">
<polygon fill="white" stroke="#666666" points="364,-41 196,-41 196,0 364,0 364,-41"/>
<text text-anchor="start" x="204" y="-29" font-family="Helvetica,sans-Serif" font-size="10.00">database::mariadb::</text>
<text text-anchor="start" x="204" y="-18" font-family="Helvetica,sans-Serif" font-size="10.00">MariaDBConnection::command</text>
<text text-anchor="middle" x="280" y="-7" font-family="Helvetica,sans-Serif" font-size="10.00">Start</text>
</a>
</g>
</g>
<!-- Node1&#45;&gt;Node2 -->
<g id="edge1_Node000001_Node000002" class="edge">
<title>Node1&#45;&gt;Node2</title>
<g id="a_edge1_Node000001_Node000002"><a xlink:title=" ">
<path fill="none" stroke="#63b8ff" d="M389.71,-20.5C381.13,-20.5 372.6,-20.5 364.31,-20.5"/>
<polygon fill="#63b8ff" stroke="#63b8ff" points="389.8,-24 399.8,-20.5 389.8,-17 389.8,-24"/>
</a>
</g>
</g>
<!-- Node3 -->
<g id="Node000003" class="node">
<title>Node3</title>
<g id="a_Node000003"><a xlink:href="classdatabase_1_1mariadb_1_1_maria_d_b_command_start_event.html#acfd3b9a13a4eadeb36cc8effcd2029c0" target="_top" xlink:title=" ">
<polygon fill="white" stroke="#666666" points="160,-41 0,-41 0,0 160,0 160,-41"/>
<text text-anchor="start" x="8" y="-29" font-family="Helvetica,sans-Serif" font-size="10.00">database::mariadb::</text>
<text text-anchor="start" x="8" y="-18" font-family="Helvetica,sans-Serif" font-size="10.00">MariaDBCommandStartEvent</text>
<text text-anchor="middle" x="80" y="-7" font-family="Helvetica,sans-Serif" font-size="10.00">::onEvent</text>
</a>
</g>
</g>
<!-- Node2&#45;&gt;Node3 -->
<g id="edge2_Node000002_Node000003" class="edge">
<title>Node2&#45;&gt;Node3</title>
<g id="a_edge2_Node000002_Node000003"><a xlink:title=" ">
<path fill="none" stroke="#63b8ff" d="M185.83,-20.5C177.23,-20.5 168.56,-20.5 160.1,-20.5"/>
<polygon fill="#63b8ff" stroke="#63b8ff" points="185.89,-24 195.89,-20.5 185.89,-17 185.89,-24"/>
</a>
</g>
</g>
</g>
</svg>
