<?xml version="1.0" encoding="UTF-8" standalone="no"?>
<!DOCTYPE svg PUBLIC "-//W3C//DTD SVG 1.1//EN"
 "http://www.w3.org/Graphics/SVG/1.1/DTD/svg11.dtd">
<!-- Generated by graphviz version 2.43.0 (0)
 -->
<!-- Title: logger::Logger::setVerboseLevel Pages: 1 -->
<svg width="889pt" height="64pt"
 viewBox="0.00 0.00 889.00 64.00" xmlns="http://www.w3.org/2000/svg" xmlns:xlink="http://www.w3.org/1999/xlink">
<g id="graph0" class="graph" transform="scale(1 1) rotate(0) translate(4 60)">
<title>logger::Logger::setVerboseLevel</title>
<!-- Node1 -->
<g id="Node000001" class="node">
<title>Node1</title>
<g id="a_Node000001"><a xlink:title=" ">
<polygon fill="#999999" stroke="#666666" points="881,-42.5 734,-42.5 734,-12.5 881,-12.5 881,-42.5"/>
<text text-anchor="start" x="742" y="-30.5" font-family="Helvetica,sans-Serif" font-size="10.00">logger::Logger::setVerbose</text>
<text text-anchor="middle" x="807.5" y="-19.5" font-family="Helvetica,sans-Serif" font-size="10.00">Level</text>
</a>
</g>
</g>
<!-- Node2 -->
<g id="Node000002" class="node">
<title>Node2</title>
<g id="a_Node000002"><a xlink:href="classlogger_1_1Logger.html#abab0f18929e134d658ea323245f6cab8" target="_top" xlink:title=" ">
<polygon fill="white" stroke="#666666" points="695,-56 587,-56 587,-37 695,-37 695,-56"/>
<text text-anchor="middle" x="641" y="-44" font-family="Helvetica,sans-Serif" font-size="10.00">logger::Logger::init</text>
</a>
</g>
</g>
<!-- Node1&#45;&gt;Node2 -->
<g id="edge1_Node000001_Node000002" class="edge">
<title>Node1&#45;&gt;Node2</title>
<g id="a_edge1_Node000001_Node000002"><a xlink:title=" ">
<path fill="none" stroke="#63b8ff" d="M723.84,-37.05C714.2,-38.16 704.57,-39.27 695.47,-40.32"/>
<polygon fill="#63b8ff" stroke="#63b8ff" points="724.34,-40.51 733.87,-35.89 723.53,-33.56 724.34,-40.51"/>
</a>
</g>
</g>
<!-- Node7 -->
<g id="Node000007" class="node">
<title>Node7</title>
<g id="a_Node000007"><a xlink:href="classutils_1_1Config.html#a4e00d5e9679c3e060fda2443bccaefbb" target="_top" xlink:title=" ">
<polygon fill="white" stroke="#666666" points="698,-19 584,-19 584,0 698,0 698,-19"/>
<text text-anchor="middle" x="641" y="-7" font-family="Helvetica,sans-Serif" font-size="10.00">utils::Config::parse1</text>
</a>
</g>
</g>
<!-- Node1&#45;&gt;Node7 -->
<g id="edge6_Node000001_Node000007" class="edge">
<title>Node1&#45;&gt;Node7</title>
<g id="a_edge6_Node000001_Node000007"><a xlink:title=" ">
<path fill="none" stroke="#63b8ff" d="M723.81,-18.45C715.22,-17.51 706.63,-16.57 698.43,-15.67"/>
<polygon fill="#63b8ff" stroke="#63b8ff" points="723.55,-21.94 733.87,-19.55 724.31,-14.99 723.55,-21.94"/>
</a>
</g>
</g>
<!-- Node3 -->
<g id="Node000003" class="node">
<title>Node3</title>
<g id="a_Node000003"><a xlink:href="classutils_1_1Config.html#a8f7a5bd81078ac7228f762345677e4f1" target="_top" xlink:title=" ">
<polygon fill="white" stroke="#666666" points="548,-37 451,-37 451,-18 548,-18 548,-37"/>
<text text-anchor="middle" x="499.5" y="-25" font-family="Helvetica,sans-Serif" font-size="10.00">utils::Config::init</text>
</a>
</g>
</g>
<!-- Node2&#45;&gt;Node3 -->
<g id="edge2_Node000002_Node000003" class="edge">
<title>Node2&#45;&gt;Node3</title>
<g id="a_edge2_Node000002_Node000003"><a xlink:title=" ">
<path fill="none" stroke="#63b8ff" d="M576.85,-37.9C567.15,-36.58 557.29,-35.23 548,-33.97"/>
<polygon fill="#63b8ff" stroke="#63b8ff" points="576.48,-41.38 586.86,-39.26 577.43,-34.45 576.48,-41.38"/>
</a>
</g>
</g>
<!-- Node4 -->
<g id="Node000004" class="node">
<title>Node4</title>
<g id="a_Node000004"><a xlink:href="classcore_1_1EventLoop.html#add5491dc1f6a70714ce62f80db91098e" target="_top" xlink:title=" ">
<polygon fill="white" stroke="#666666" points="415,-37 299,-37 299,-18 415,-18 415,-37"/>
<text text-anchor="middle" x="357" y="-25" font-family="Helvetica,sans-Serif" font-size="10.00">core::EventLoop::init</text>
</a>
</g>
</g>
<!-- Node3&#45;&gt;Node4 -->
<g id="edge3_Node000003_Node000004" class="edge">
<title>Node3&#45;&gt;Node4</title>
<g id="a_edge3_Node000003_Node000004"><a xlink:title=" ">
<path fill="none" stroke="#63b8ff" d="M440.8,-27.5C432.36,-27.5 423.68,-27.5 415.25,-27.5"/>
<polygon fill="#63b8ff" stroke="#63b8ff" points="440.93,-31 450.93,-27.5 440.93,-24 440.93,-31"/>
</a>
</g>
</g>
<!-- Node5 -->
<g id="Node000005" class="node">
<title>Node5</title>
<g id="a_Node000005"><a xlink:href="classcore_1_1SNodeC.html#a2c8b01c5fc6ecc3036cb48a76f76f3b5" target="_top" xlink:title=" ">
<polygon fill="white" stroke="#666666" points="263,-37 159,-37 159,-18 263,-18 263,-37"/>
<text text-anchor="middle" x="211" y="-25" font-family="Helvetica,sans-Serif" font-size="10.00">core::SNodeC::init</text>
</a>
</g>
</g>
<!-- Node4&#45;&gt;Node5 -->
<g id="edge4_Node000004_Node000005" class="edge">
<title>Node4&#45;&gt;Node5</title>
<g id="a_edge4_Node000004_Node000005"><a xlink:title=" ">
<path fill="none" stroke="#63b8ff" d="M288.65,-27.5C280.05,-27.5 271.36,-27.5 263.07,-27.5"/>
<polygon fill="#63b8ff" stroke="#63b8ff" points="288.67,-31 298.67,-27.5 288.67,-24 288.67,-31"/>
</a>
</g>
</g>
<!-- Node6 -->
<g id="Node000006" class="node">
<title>Node6</title>
<g id="a_Node000006"><a xlink:href="classexpress_1_1WebApp.html#a0a01439a0cc8dfc86ed14f1094826b7e" target="_top" xlink:title=" ">
<polygon fill="white" stroke="#666666" points="123,-37 0,-37 0,-18 123,-18 123,-37"/>
<text text-anchor="middle" x="61.5" y="-25" font-family="Helvetica,sans-Serif" font-size="10.00">express::WebApp::init</text>
</a>
</g>
</g>
<!-- Node5&#45;&gt;Node6 -->
<g id="edge5_Node000005_Node000006" class="edge">
<title>Node5&#45;&gt;Node6</title>
<g id="a_edge5_Node000005_Node000006"><a xlink:title=" ">
<path fill="none" stroke="#63b8ff" d="M148.7,-27.5C140.28,-27.5 131.63,-27.5 123.22,-27.5"/>
<polygon fill="#63b8ff" stroke="#63b8ff" points="148.83,-31 158.83,-27.5 148.83,-24 148.83,-31"/>
</a>
</g>
</g>
<!-- Node7&#45;&gt;Node3 -->
<g id="edge7_Node000007_Node000003" class="edge">
<title>Node7&#45;&gt;Node3</title>
<g id="a_edge7_Node000007_Node000003"><a xlink:title=" ">
<path fill="none" stroke="#63b8ff" d="M573.61,-18.07C565,-19.18 556.32,-20.3 548.1,-21.36"/>
<polygon fill="#63b8ff" stroke="#63b8ff" points="574.19,-21.52 583.66,-16.77 573.3,-14.58 574.19,-21.52"/>
</a>
</g>
</g>
</g>
</svg>
