<?xml version="1.0" encoding="UTF-8" standalone="no"?>
<!DOCTYPE svg PUBLIC "-//W3C//DTD SVG 1.1//EN"
 "http://www.w3.org/Graphics/SVG/1.1/DTD/svg11.dtd">
<!-- Generated by graphviz version 14.1.2 (0)
 -->
<!-- Title: core::DescriptorEventReceiver::suspend Pages: 1 -->
<!--zoomable 897 -->

<svg id="main" version="1.1" xmlns="http://www.w3.org/2000/svg" xmlns:xlink="http://www.w3.org/1999/xlink" xml:space="preserve" onload="init(evt)">

<style type="text/css"><![CDATA[
.node, .edge {opacity: 0.7;}
.node.selected, .edge.selected {opacity: 1;}
.edge:hover path { stroke: red; }
.edge:hover polygon { stroke: red; fill: red; }
]]></style>

<defs>
  <circle id="rim" cx="0" cy="0" r="7"/>
  <circle id="rim2" cx="0" cy="0" r="3.5"/>
  <g id="zoomPlus">
    <use xlink:href="#rim" fill="#404040"><set attributeName="fill" to="#808080" begin="zoomplus.mouseover" end="zoomplus.mouseout"/></use>
    <path d="M-4,0h8M0,-4v8" fill="none" stroke="white" stroke-width="1.5" pointer-events="none"/>
  </g>
  <g id="zoomMin">
    <use xlink:href="#rim" fill="#404040"><set attributeName="fill" to="#808080" begin="zoomminus.mouseover" end="zoomminus.mouseout"/></use>
    <path d="M-4,0h8" fill="none" stroke="white" stroke-width="1.5" pointer-events="none"/>
  </g>
  <g id="arrowUp" transform="translate(30 24)">
    <use xlink:href="#rim"/>
    <path pointer-events="none" fill="none" stroke="white" stroke-width="1.5" d="M0,-3.0v7 M-2.5,-0.5L0,-3.0L2.5,-0.5"/>
  </g>
  <g id="arrowRight" transform="rotate(90) translate(36 -43)">
    <use xlink:href="#rim"/>
    <path pointer-events="none" fill="none" stroke="white" stroke-width="1.5" d="M0,-3.0v7 M-2.5,-0.5L0,-3.0L2.5,-0.5"/>
  </g>
  <g id="arrowDown" transform="rotate(180) translate(-30 -48)">
    <use xlink:href="#rim"/>
    <path pointer-events="none" fill="none" stroke="white" stroke-width="1.5" d="M0,-3.0v7 M-2.5,-0.5L0,-3.0L2.5,-0.5"/>
  </g>
  <g id="arrowLeft" transform="rotate(270) translate(-36 17)">
    <use xlink:href="#rim"/>
    <path pointer-events="none" fill="none" stroke="white" stroke-width="1.5" d="M0,-3.0v7 M-2.5,-0.5L0,-3.0L2.5,-0.5"/>
  </g>
  <g id="resetDef">
    <use xlink:href="#rim2" fill="#404040"><set attributeName="fill" to="#808080" begin="reset.mouseover" end="reset.mouseout"/></use>
  </g>
</defs>
<script type="application/ecmascript">
var viewWidth = 975;
var viewHeight = 897;
var sectionId = 'dynsection-29';
</script>
<script type="application/ecmascript" xlink:href="svg.min.js"/>
<svg id="graph" class="graph">
<g id="viewport">
<title>core::DescriptorEventReceiver::suspend</title>
<!-- Node1 -->
<g id="Node000001" class="node">
<title>Node1</title>
<g id="a_Node000001"><a xlink:title=" ">
<polygon fill="#999999" stroke="#666666" points="967.25,-317.5 803.5,-317.5 803.5,-284 967.25,-284 967.25,-317.5"/>
<text xml:space="preserve" text-anchor="start" x="811.5" y="-304" font-family="Helvetica,sans-Serif" font-size="10.00">core::DescriptorEventReceiver</text>
<text xml:space="preserve" text-anchor="middle" x="885.38" y="-291.25" font-family="Helvetica,sans-Serif" font-size="10.00">::suspend</text>
</a>
</g>
</g>
<!-- Node2 -->
<g id="Node000002" class="node">
<title>Node2</title>
<g id="a_Node000002"><a xlink:href="classdatabase_1_1mariadb_1_1MariaDBConnection.html#afd1535c332bed7e8562eb5cbe9feaa66" target="_top" xlink:title=" ">
<polygon fill="white" stroke="#666666" points="767.5,-595.5 589.5,-595.5 589.5,-562 767.5,-562 767.5,-595.5"/>
<text xml:space="preserve" text-anchor="start" x="597.5" y="-582" font-family="Helvetica,sans-Serif" font-size="10.00">database::mariadb::</text>
<text xml:space="preserve" text-anchor="middle" x="678.5" y="-569.25" font-family="Helvetica,sans-Serif" font-size="10.00">MariaDBConnection::checkStatus</text>
</a>
</g>
</g>
<!-- Node1&#45;&gt;Node2 -->
<g id="edge1_Node000001_Node000002" class="edge">
<title>Node1&#45;&gt;Node2</title>
<g id="a_edge1_Node000001_Node000002"><a xlink:title=" ">
<path fill="none" stroke="#63b8ff" d="M878.46,-328.75C866.39,-379.28 834.21,-486.08 767.5,-546.75 760.89,-552.77 753.05,-557.67 744.83,-561.67"/>
<polygon fill="#63b8ff" stroke="#63b8ff" points="881.83,-329.74 880.65,-319.21 875,-328.18 881.83,-329.74"/>
</a>
</g>
</g>
<!-- Node12 -->
<g id="Node000012" class="node">
<title>Node12</title>
<g id="a_Node000012"><a xlink:href="classcore_1_1socket_1_1stream_1_1SocketReader.html#a209362160ea50351e6a6600598dedb96" target="_top" xlink:title=" ">
<polygon fill="white" stroke="#666666" points="744.25,-537.5 612.75,-537.5 612.75,-504 744.25,-504 744.25,-537.5"/>
<text xml:space="preserve" text-anchor="start" x="620.75" y="-524" font-family="Helvetica,sans-Serif" font-size="10.00">core::socket::stream</text>
<text xml:space="preserve" text-anchor="middle" x="678.5" y="-511.25" font-family="Helvetica,sans-Serif" font-size="10.00">::SocketReader::doRead</text>
</a>
</g>
</g>
<!-- Node1&#45;&gt;Node12 -->
<g id="edge11_Node000001_Node000012" class="edge">
<title>Node1&#45;&gt;Node12</title>
<g id="a_edge11_Node000001_Node000012"><a xlink:title=" ">
<path fill="none" stroke="#63b8ff" d="M875.11,-328.52C859.6,-370.75 824.36,-450.81 767.5,-494.75 760.69,-500.01 752.84,-504.21 744.69,-507.56"/>
<polygon fill="#63b8ff" stroke="#63b8ff" points="878.32,-329.94 878.37,-319.34 871.72,-327.59 878.32,-329.94"/>
</a>
</g>
</g>
<!-- Node14 -->
<g id="Node000014" class="node">
<title>Node14</title>
<g id="a_Node000014"><a xlink:href="classcore_1_1socket_1_1stream_1_1SocketWriter.html#ac78cca657385ea8a364d7296c2c32c92" target="_top" xlink:title=" ">
<polygon fill="white" stroke="#666666" points="742.75,-485.5 614.25,-485.5 614.25,-452 742.75,-452 742.75,-485.5"/>
<text xml:space="preserve" text-anchor="start" x="622.25" y="-472" font-family="Helvetica,sans-Serif" font-size="10.00">core::socket::stream</text>
<text xml:space="preserve" text-anchor="middle" x="678.5" y="-459.25" font-family="Helvetica,sans-Serif" font-size="10.00">::SocketWriter::doWrite</text>
</a>
</g>
</g>
<!-- Node1&#45;&gt;Node14 -->
<g id="edge13_Node000001_Node000014" class="edge">
<title>Node1&#45;&gt;Node14</title>
<g id="a_edge13_Node000001_Node000014"><a xlink:title=" ">
<path fill="none" stroke="#63b8ff" d="M869.18,-327.61C849.68,-359.66 812.91,-412.69 767.5,-442.75 760.06,-447.67 751.67,-451.69 743.09,-454.95"/>
<polygon fill="#63b8ff" stroke="#63b8ff" points="872.02,-329.68 874.12,-319.3 866,-326.11 872.02,-329.68"/>
</a>
</g>
</g>
<!-- Node16 -->
<g id="Node000016" class="node">
<title>Node16</title>
<g id="a_Node000016"><a xlink:href="classcore_1_1pipe_1_1PipeSource.html#a6804eb1f9c27124f36a2bf37454af2c7" target="_top" xlink:title=" ">
<polygon fill="white" stroke="#666666" points="740.5,-433.5 616.5,-433.5 616.5,-400 740.5,-400 740.5,-433.5"/>
<text xml:space="preserve" text-anchor="start" x="624.5" y="-420" font-family="Helvetica,sans-Serif" font-size="10.00">core::pipe::PipeSource</text>
<text xml:space="preserve" text-anchor="middle" x="678.5" y="-407.25" font-family="Helvetica,sans-Serif" font-size="10.00">::PipeSource</text>
</a>
</g>
</g>
<!-- Node1&#45;&gt;Node16 -->
<g id="edge15_Node000001_Node000016" class="edge">
<title>Node1&#45;&gt;Node16</title>
<g id="a_edge15_Node000001_Node000016"><a xlink:title=" ">
<path fill="none" stroke="#63b8ff" d="M858.49,-325.25C836,-345.37 801.74,-373.28 767.5,-390.75 759.13,-395.02 749.94,-398.7 740.76,-401.84"/>
<polygon fill="#63b8ff" stroke="#63b8ff" points="860.63,-328.03 865.68,-318.72 855.92,-322.85 860.63,-328.03"/>
</a>
</g>
</g>
<!-- Node19 -->
<g id="Node000019" class="node">
<title>Node19</title>
<g id="a_Node000019"><a xlink:href="classcore_1_1socket_1_1stream_1_1tls_1_1TLSHandshake.html#a6de78d37176e8916609ce96bb40651e0" target="_top" xlink:title=" ">
<polygon fill="white" stroke="#666666" points="737.12,-381.88 619.88,-381.88 619.88,-335.62 737.12,-335.62 737.12,-381.88"/>
<text xml:space="preserve" text-anchor="start" x="627.88" y="-368.38" font-family="Helvetica,sans-Serif" font-size="10.00">core::socket::stream</text>
<text xml:space="preserve" text-anchor="start" x="627.88" y="-355.62" font-family="Helvetica,sans-Serif" font-size="10.00">::tls::TLSHandshake::</text>
<text xml:space="preserve" text-anchor="middle" x="678.5" y="-342.88" font-family="Helvetica,sans-Serif" font-size="10.00">readEvent</text>
</a>
</g>
</g>
<!-- Node1&#45;&gt;Node19 -->
<g id="edge18_Node000001_Node000019" class="edge">
<title>Node1&#45;&gt;Node19</title>
<g id="a_edge18_Node000001_Node000019"><a xlink:title=" ">
<path fill="none" stroke="#63b8ff" d="M812.71,-321.04C788.06,-328.02 760.78,-335.74 737.37,-342.37"/>
<polygon fill="#63b8ff" stroke="#63b8ff" points="813.34,-324.5 822,-318.41 811.43,-317.76 813.34,-324.5"/>
</a>
</g>
</g>
<!-- Node20 -->
<g id="Node000020" class="node">
<title>Node20</title>
<g id="a_Node000020"><a xlink:href="classcore_1_1socket_1_1stream_1_1tls_1_1TLSShutdown.html#a2c8e1be85cffd4c21063dbec82951e8e" target="_top" xlink:title=" ">
<polygon fill="white" stroke="#666666" points="758.88,-317.5 598.12,-317.5 598.12,-284 758.88,-284 758.88,-317.5"/>
<text xml:space="preserve" text-anchor="start" x="606.12" y="-304" font-family="Helvetica,sans-Serif" font-size="10.00">core::socket::stream</text>
<text xml:space="preserve" text-anchor="middle" x="678.5" y="-291.25" font-family="Helvetica,sans-Serif" font-size="10.00">::tls::TLSShutdown::readEvent</text>
</a>
</g>
</g>
<!-- Node1&#45;&gt;Node20 -->
<g id="edge19_Node000001_Node000020" class="edge">
<title>Node1&#45;&gt;Node20</title>
<g id="a_edge19_Node000001_Node000020"><a xlink:title=" ">
<path fill="none" stroke="#63b8ff" d="M791.87,-300.75C781.01,-300.75 770,-300.75 759.33,-300.75"/>
<polygon fill="#63b8ff" stroke="#63b8ff" points="791.6,-304.25 801.6,-300.75 791.6,-297.25 791.6,-304.25"/>
</a>
</g>
</g>
<!-- Node21 -->
<g id="Node000021" class="node">
<title>Node21</title>
<g id="a_Node000021"><a xlink:href="classcore_1_1socket_1_1stream_1_1tls_1_1TLSHandshake.html#a61e66727ff26660649083539c7a2495a" target="_top" xlink:title=" ">
<polygon fill="white" stroke="#666666" points="737.12,-265.88 619.88,-265.88 619.88,-219.62 737.12,-219.62 737.12,-265.88"/>
<text xml:space="preserve" text-anchor="start" x="627.88" y="-252.38" font-family="Helvetica,sans-Serif" font-size="10.00">core::socket::stream</text>
<text xml:space="preserve" text-anchor="start" x="627.88" y="-239.62" font-family="Helvetica,sans-Serif" font-size="10.00">::tls::TLSHandshake::</text>
<text xml:space="preserve" text-anchor="middle" x="678.5" y="-226.88" font-family="Helvetica,sans-Serif" font-size="10.00">TLSHandshake</text>
</a>
</g>
</g>
<!-- Node1&#45;&gt;Node21 -->
<g id="edge20_Node000001_Node000021" class="edge">
<title>Node1&#45;&gt;Node21</title>
<g id="a_edge20_Node000001_Node000021"><a xlink:title=" ">
<path fill="none" stroke="#63b8ff" d="M812.71,-280.46C788.06,-273.48 760.78,-265.76 737.37,-259.13"/>
<polygon fill="#63b8ff" stroke="#63b8ff" points="811.43,-283.74 822,-283.09 813.34,-277 811.43,-283.74"/>
</a>
</g>
</g>
<!-- Node24 -->
<g id="Node000024" class="node">
<title>Node24</title>
<g id="a_Node000024"><a xlink:href="classcore_1_1socket_1_1stream_1_1tls_1_1TLSShutdown.html#a65af96d7ac042893046ff2332e47ae8e" target="_top" xlink:title=" ">
<polygon fill="white" stroke="#666666" points="766.75,-201.5 590.25,-201.5 590.25,-168 766.75,-168 766.75,-201.5"/>
<text xml:space="preserve" text-anchor="start" x="598.25" y="-188" font-family="Helvetica,sans-Serif" font-size="10.00">core::socket::stream</text>
<text xml:space="preserve" text-anchor="middle" x="678.5" y="-175.25" font-family="Helvetica,sans-Serif" font-size="10.00">::tls::TLSShutdown::TLSShutdown</text>
</a>
</g>
</g>
<!-- Node1&#45;&gt;Node24 -->
<g id="edge23_Node000001_Node000024" class="edge">
<title>Node1&#45;&gt;Node24</title>
<g id="a_edge23_Node000001_Node000024"><a xlink:title=" ">
<path fill="none" stroke="#63b8ff" d="M858.49,-276.25C836,-256.13 801.74,-228.22 767.5,-210.75 761.11,-207.49 754.25,-204.58 747.28,-201.98"/>
<polygon fill="#63b8ff" stroke="#63b8ff" points="855.92,-278.65 865.68,-282.78 860.63,-273.47 855.92,-278.65"/>
</a>
</g>
</g>
<!-- Node29 -->
<g id="Node000029" class="node">
<title>Node29</title>
<g id="a_Node000029"><a xlink:href="classcore_1_1pipe_1_1PipeSource.html#a7021ffb2c18daac613670c870fc43124" target="_top" xlink:title=" ">
<polygon fill="white" stroke="#666666" points="740.5,-149.5 616.5,-149.5 616.5,-116 740.5,-116 740.5,-149.5"/>
<text xml:space="preserve" text-anchor="start" x="624.5" y="-136" font-family="Helvetica,sans-Serif" font-size="10.00">core::pipe::PipeSource</text>
<text xml:space="preserve" text-anchor="middle" x="678.5" y="-123.25" font-family="Helvetica,sans-Serif" font-size="10.00">::writeEvent</text>
</a>
</g>
</g>
<!-- Node1&#45;&gt;Node29 -->
<g id="edge28_Node000001_Node000029" class="edge">
<title>Node1&#45;&gt;Node29</title>
<g id="a_edge28_Node000001_Node000029"><a xlink:title=" ">
<path fill="none" stroke="#63b8ff" d="M869.18,-273.89C849.68,-241.84 812.91,-188.81 767.5,-158.75 759.4,-153.39 750.16,-149.1 740.79,-145.69"/>
<polygon fill="#63b8ff" stroke="#63b8ff" points="866,-275.39 874.12,-282.2 872.02,-271.82 866,-275.39"/>
</a>
</g>
</g>
<!-- Node30 -->
<g id="Node000030" class="node">
<title>Node30</title>
<g id="a_Node000030"><a xlink:href="classcore_1_1socket_1_1stream_1_1tls_1_1TLSHandshake.html#a3edb49f1f2c8df6d6a49f6a8584cb047" target="_top" xlink:title=" ">
<polygon fill="white" stroke="#666666" points="737.12,-97.88 619.88,-97.88 619.88,-51.62 737.12,-51.62 737.12,-97.88"/>
<text xml:space="preserve" text-anchor="start" x="627.88" y="-84.38" font-family="Helvetica,sans-Serif" font-size="10.00">core::socket::stream</text>
<text xml:space="preserve" text-anchor="start" x="627.88" y="-71.62" font-family="Helvetica,sans-Serif" font-size="10.00">::tls::TLSHandshake::</text>
<text xml:space="preserve" text-anchor="middle" x="678.5" y="-58.88" font-family="Helvetica,sans-Serif" font-size="10.00">writeEvent</text>
</a>
</g>
</g>
<!-- Node1&#45;&gt;Node30 -->
<g id="edge29_Node000001_Node000030" class="edge">
<title>Node1&#45;&gt;Node30</title>
<g id="a_edge29_Node000001_Node000030"><a xlink:title=" ">
<path fill="none" stroke="#63b8ff" d="M874.55,-272.82C858.48,-231.01 822.72,-152.2 767.5,-106.75 758.71,-99.52 748.15,-93.85 737.45,-89.43"/>
<polygon fill="#63b8ff" stroke="#63b8ff" points="871.26,-274.01 878.03,-282.16 877.81,-271.56 871.26,-274.01"/>
</a>
</g>
</g>
<!-- Node31 -->
<g id="Node000031" class="node">
<title>Node31</title>
<g id="a_Node000031"><a xlink:href="classcore_1_1socket_1_1stream_1_1tls_1_1TLSShutdown.html#aed6dfd51e40c52b0b08b82305e275fd7" target="_top" xlink:title=" ">
<polygon fill="white" stroke="#666666" points="760.38,-33.5 596.62,-33.5 596.62,0 760.38,0 760.38,-33.5"/>
<text xml:space="preserve" text-anchor="start" x="604.62" y="-20" font-family="Helvetica,sans-Serif" font-size="10.00">core::socket::stream</text>
<text xml:space="preserve" text-anchor="middle" x="678.5" y="-7.25" font-family="Helvetica,sans-Serif" font-size="10.00">::tls::TLSShutdown::writeEvent</text>
</a>
</g>
</g>
<!-- Node1&#45;&gt;Node31 -->
<g id="edge30_Node000001_Node000031" class="edge">
<title>Node1&#45;&gt;Node31</title>
<g id="a_edge30_Node000001_Node000031"><a xlink:title=" ">
<path fill="none" stroke="#63b8ff" d="M879.55,-272.48C869,-219.47 838.89,-104.91 767.5,-42.75 763.66,-39.4 759.4,-36.49 754.89,-33.94"/>
<polygon fill="#63b8ff" stroke="#63b8ff" points="876.09,-273.03 881.38,-282.21 882.97,-271.73 876.09,-273.03"/>
</a>
</g>
</g>
<!-- Node3 -->
<g id="Node000003" class="node">
<title>Node3</title>
<g id="a_Node000003"><a xlink:href="classdatabase_1_1mariadb_1_1MariaDBConnection.html#ab6064af831f9fbe11c742954db49fdb9" target="_top" xlink:title=" ">
<polygon fill="white" stroke="#666666" points="551.62,-714.88 384.12,-714.88 384.12,-668.62 551.62,-668.62 551.62,-714.88"/>
<text xml:space="preserve" text-anchor="start" x="392.12" y="-701.38" font-family="Helvetica,sans-Serif" font-size="10.00">database::mariadb::</text>
<text xml:space="preserve" text-anchor="start" x="392.12" y="-688.62" font-family="Helvetica,sans-Serif" font-size="10.00">MariaDBConnection::command</text>
<text xml:space="preserve" text-anchor="middle" x="467.88" y="-675.88" font-family="Helvetica,sans-Serif" font-size="10.00">Continue</text>
</a>
</g>
</g>
<!-- Node2&#45;&gt;Node3 -->
<g id="edge2_Node000002_Node000003" class="edge">
<title>Node2&#45;&gt;Node3</title>
<g id="a_edge2_Node000002_Node000003"><a xlink:title=" ">
<path fill="none" stroke="#63b8ff" d="M636.14,-601.15C600.27,-620.58 548.53,-648.61 512.12,-668.33"/>
<polygon fill="#63b8ff" stroke="#63b8ff" points="637.36,-604.47 644.48,-596.63 634.02,-598.32 637.36,-604.47"/>
</a>
</g>
</g>
<!-- Node10 -->
<g id="Node000010" class="node">
<title>Node10</title>
<g id="a_Node000010"><a xlink:href="classdatabase_1_1mariadb_1_1MariaDBConnection.html#abc46d0297ce19f7a7b0f65234fba03a2" target="_top" xlink:title=" ">
<polygon fill="white" stroke="#666666" points="551.62,-601.88 384.12,-601.88 384.12,-555.62 551.62,-555.62 551.62,-601.88"/>
<text xml:space="preserve" text-anchor="start" x="392.12" y="-588.38" font-family="Helvetica,sans-Serif" font-size="10.00">database::mariadb::</text>
<text xml:space="preserve" text-anchor="start" x="392.12" y="-575.62" font-family="Helvetica,sans-Serif" font-size="10.00">MariaDBConnection::command</text>
<text xml:space="preserve" text-anchor="middle" x="467.88" y="-562.88" font-family="Helvetica,sans-Serif" font-size="10.00">Start</text>
</a>
</g>
</g>
<!-- Node2&#45;&gt;Node10 -->
<g id="edge9_Node000002_Node000010" class="edge">
<title>Node2&#45;&gt;Node10</title>
<g id="a_edge9_Node000002_Node000010"><a xlink:title=" ">
<path fill="none" stroke="#63b8ff" d="M577.69,-578.75C569.04,-578.75 560.34,-578.75 551.85,-578.75"/>
<polygon fill="#63b8ff" stroke="#63b8ff" points="577.51,-582.25 587.51,-578.75 577.51,-575.25 577.51,-582.25"/>
</a>
</g>
</g>
<!-- Node4 -->
<g id="Node000004" class="node">
<title>Node4</title>
<g id="a_Node000004"><a xlink:href="classdatabase_1_1mariadb_1_1MariaDBConnection.html#a3e0fb10bbcff7fa244dd0492a6b500ed" target="_top" xlink:title=" ">
<polygon fill="white" stroke="#666666" points="339.88,-888.88 169.38,-888.88 169.38,-842.62 339.88,-842.62 339.88,-888.88"/>
<text xml:space="preserve" text-anchor="start" x="177.38" y="-875.38" font-family="Helvetica,sans-Serif" font-size="10.00">database::mariadb::</text>
<text xml:space="preserve" text-anchor="start" x="177.38" y="-862.62" font-family="Helvetica,sans-Serif" font-size="10.00">MariaDBConnection::outOfBand</text>
<text xml:space="preserve" text-anchor="middle" x="254.62" y="-849.88" font-family="Helvetica,sans-Serif" font-size="10.00">Event</text>
</a>
</g>
</g>
<!-- Node3&#45;&gt;Node4 -->
<g id="edge3_Node000003_Node000004" class="edge">
<title>Node3&#45;&gt;Node4</title>
<g id="a_edge3_Node000003_Node000004"><a xlink:title=" ">
<path fill="none" stroke="#63b8ff" d="M446.49,-724.6C425.11,-756.57 388.74,-804.49 346.25,-833.75 341.71,-836.87 336.84,-839.72 331.8,-842.32"/>
<polygon fill="#63b8ff" stroke="#63b8ff" points="449.25,-726.77 451.81,-716.49 443.4,-722.94 449.25,-726.77"/>
</a>
</g>
</g>
<!-- Node5 -->
<g id="Node000005" class="node">
<title>Node5</title>
<g id="a_Node000005"><a xlink:href="classdatabase_1_1mariadb_1_1MariaDBConnection.html#a1d57ddc41339b7128ae62760ab98be7d" target="_top" xlink:title=" ">
<polygon fill="white" stroke="#666666" points="339.88,-824.88 169.38,-824.88 169.38,-778.62 339.88,-778.62 339.88,-824.88"/>
<text xml:space="preserve" text-anchor="start" x="177.38" y="-811.38" font-family="Helvetica,sans-Serif" font-size="10.00">database::mariadb::</text>
<text xml:space="preserve" text-anchor="start" x="177.38" y="-798.62" font-family="Helvetica,sans-Serif" font-size="10.00">MariaDBConnection::outOfBand</text>
<text xml:space="preserve" text-anchor="middle" x="254.62" y="-785.88" font-family="Helvetica,sans-Serif" font-size="10.00">Timeout</text>
</a>
</g>
</g>
<!-- Node3&#45;&gt;Node5 -->
<g id="edge4_Node000003_Node000005" class="edge">
<title>Node3&#45;&gt;Node5</title>
<g id="a_edge4_Node000003_Node000005"><a xlink:title=" ">
<path fill="none" stroke="#63b8ff" d="M425.77,-721.77C403.08,-737.44 373.96,-756.13 346.25,-769.75 340.26,-772.69 333.93,-775.5 327.51,-778.14"/>
<polygon fill="#63b8ff" stroke="#63b8ff" points="427.65,-724.73 433.84,-716.13 423.63,-718.99 427.65,-724.73"/>
</a>
</g>
</g>
<!-- Node6 -->
<g id="Node000006" class="node">
<title>Node6</title>
<g id="a_Node000006"><a xlink:href="classdatabase_1_1mariadb_1_1MariaDBConnection.html#af313d9366e07c032ac96b5e563576a19" target="_top" xlink:title=" ">
<polygon fill="white" stroke="#666666" points="338.75,-760.5 170.5,-760.5 170.5,-727 338.75,-727 338.75,-760.5"/>
<text xml:space="preserve" text-anchor="start" x="178.5" y="-747" font-family="Helvetica,sans-Serif" font-size="10.00">database::mariadb::</text>
<text xml:space="preserve" text-anchor="middle" x="254.62" y="-734.25" font-family="Helvetica,sans-Serif" font-size="10.00">MariaDBConnection::readEvent</text>
</a>
</g>
</g>
<!-- Node3&#45;&gt;Node6 -->
<g id="edge5_Node000003_Node000006" class="edge">
<title>Node3&#45;&gt;Node6</title>
<g id="a_edge5_Node000003_Node000006"><a xlink:title=" ">
<path fill="none" stroke="#63b8ff" d="M372.75,-714.92C356.84,-718.84 340.58,-722.84 325.44,-726.57"/>
<polygon fill="#63b8ff" stroke="#63b8ff" points="373.34,-718.38 382.22,-712.59 371.67,-711.58 373.34,-718.38"/>
</a>
</g>
</g>
<!-- Node7 -->
<g id="Node000007" class="node">
<title>Node7</title>
<g id="a_Node000007"><a xlink:href="classdatabase_1_1mariadb_1_1MariaDBConnection.html#aacead864b0e41f35e69d74c5a0c95321" target="_top" xlink:title=" ">
<polygon fill="white" stroke="#666666" points="344.75,-708.5 164.5,-708.5 164.5,-675 344.75,-675 344.75,-708.5"/>
<text xml:space="preserve" text-anchor="start" x="172.5" y="-695" font-family="Helvetica,sans-Serif" font-size="10.00">database::mariadb::</text>
<text xml:space="preserve" text-anchor="middle" x="254.62" y="-682.25" font-family="Helvetica,sans-Serif" font-size="10.00">MariaDBConnection::readTimeout</text>
</a>
</g>
</g>
<!-- Node3&#45;&gt;Node7 -->
<g id="edge6_Node000003_Node000007" class="edge">
<title>Node3&#45;&gt;Node7</title>
<g id="a_edge6_Node000003_Node000007"><a xlink:title=" ">
<path fill="none" stroke="#63b8ff" d="M372.28,-691.75C363.2,-691.75 354.02,-691.75 345,-691.75"/>
<polygon fill="#63b8ff" stroke="#63b8ff" points="372.17,-695.25 382.17,-691.75 372.17,-688.25 372.17,-695.25"/>
</a>
</g>
</g>
<!-- Node8 -->
<g id="Node000008" class="node">
<title>Node8</title>
<g id="a_Node000008"><a xlink:href="classdatabase_1_1mariadb_1_1MariaDBConnection.html#a72c76aacb77fc28fb4be83ec7347bfc7" target="_top" xlink:title=" ">
<polygon fill="white" stroke="#666666" points="340.25,-656.5 169,-656.5 169,-623 340.25,-623 340.25,-656.5"/>
<text xml:space="preserve" text-anchor="start" x="177" y="-643" font-family="Helvetica,sans-Serif" font-size="10.00">database::mariadb::</text>
<text xml:space="preserve" text-anchor="middle" x="254.62" y="-630.25" font-family="Helvetica,sans-Serif" font-size="10.00">MariaDBConnection::writeEvent</text>
</a>
</g>
</g>
<!-- Node3&#45;&gt;Node8 -->
<g id="edge7_Node000003_Node000008" class="edge">
<title>Node3&#45;&gt;Node8</title>
<g id="a_edge7_Node000003_Node000008"><a xlink:title=" ">
<path fill="none" stroke="#63b8ff" d="M372.75,-668.58C356.84,-664.66 340.58,-660.66 325.44,-656.93"/>
<polygon fill="#63b8ff" stroke="#63b8ff" points="371.67,-671.92 382.22,-670.91 373.34,-665.12 371.67,-671.92"/>
</a>
</g>
</g>
<!-- Node9 -->
<g id="Node000009" class="node">
<title>Node9</title>
<g id="a_Node000009"><a xlink:href="classdatabase_1_1mariadb_1_1MariaDBConnection.html#a10d6d386d7c038ac0562dd92a91d557a" target="_top" xlink:title=" ">
<polygon fill="white" stroke="#666666" points="346.25,-604.5 163,-604.5 163,-571 346.25,-571 346.25,-604.5"/>
<text xml:space="preserve" text-anchor="start" x="171" y="-591" font-family="Helvetica,sans-Serif" font-size="10.00">database::mariadb::</text>
<text xml:space="preserve" text-anchor="middle" x="254.62" y="-578.25" font-family="Helvetica,sans-Serif" font-size="10.00">MariaDBConnection::writeTimeout</text>
</a>
</g>
</g>
<!-- Node3&#45;&gt;Node9 -->
<g id="edge8_Node000003_Node000009" class="edge">
<title>Node3&#45;&gt;Node9</title>
<g id="a_edge8_Node000003_Node000009"><a xlink:title=" ">
<path fill="none" stroke="#63b8ff" d="M426.8,-661.56C404.11,-645.59 374.66,-626.66 346.25,-613.75 339.1,-610.5 331.44,-607.55 323.72,-604.91"/>
<polygon fill="#63b8ff" stroke="#63b8ff" points="424.69,-664.35 434.86,-667.32 428.76,-658.66 424.69,-664.35"/>
</a>
</g>
</g>
<!-- Node11 -->
<g id="Node000011" class="node">
<title>Node11</title>
<g id="a_Node000011"><a xlink:href="classdatabase_1_1mariadb_1_1MariaDBCommandStartEvent.html#acfd3b9a13a4eadeb36cc8effcd2029c0" target="_top" xlink:title=" ">
<polygon fill="white" stroke="#666666" points="334.25,-552.88 175,-552.88 175,-506.62 334.25,-506.62 334.25,-552.88"/>
<text xml:space="preserve" text-anchor="start" x="183" y="-539.38" font-family="Helvetica,sans-Serif" font-size="10.00">database::mariadb::</text>
<text xml:space="preserve" text-anchor="start" x="183" y="-526.62" font-family="Helvetica,sans-Serif" font-size="10.00">MariaDBCommandStartEvent</text>
<text xml:space="preserve" text-anchor="middle" x="254.62" y="-513.88" font-family="Helvetica,sans-Serif" font-size="10.00">::onEvent</text>
</a>
</g>
</g>
<!-- Node10&#45;&gt;Node11 -->
<g id="edge10_Node000010_Node000011" class="edge">
<title>Node10&#45;&gt;Node11</title>
<g id="a_edge10_Node000010_Node000011"><a xlink:title=" ">
<path fill="none" stroke="#63b8ff" d="M372.61,-556.88C359.91,-553.94 346.99,-550.94 334.6,-548.07"/>
<polygon fill="#63b8ff" stroke="#63b8ff" points="371.68,-560.26 382.21,-559.11 373.26,-553.44 371.68,-560.26"/>
</a>
</g>
</g>
<!-- Node13 -->
<g id="Node000013" class="node">
<title>Node13</title>
<g id="a_Node000013"><a xlink:href="classcore_1_1socket_1_1stream_1_1SocketReader.html#ae669637b5d29ab6909f4cd91028a87b3" target="_top" xlink:title=" ">
<polygon fill="white" stroke="#666666" points="540,-537.5 395.75,-537.5 395.75,-504 540,-504 540,-537.5"/>
<text xml:space="preserve" text-anchor="start" x="403.75" y="-524" font-family="Helvetica,sans-Serif" font-size="10.00">core::socket::stream</text>
<text xml:space="preserve" text-anchor="middle" x="467.88" y="-511.25" font-family="Helvetica,sans-Serif" font-size="10.00">::SocketReader::readEvent</text>
</a>
</g>
</g>
<!-- Node12&#45;&gt;Node13 -->
<g id="edge12_Node000012_Node000013" class="edge">
<title>Node12&#45;&gt;Node13</title>
<g id="a_edge12_Node000012_Node000013"><a xlink:title=" ">
<path fill="none" stroke="#63b8ff" d="M600.9,-520.75C581.12,-520.75 559.92,-520.75 540.42,-520.75"/>
<polygon fill="#63b8ff" stroke="#63b8ff" points="600.83,-524.25 610.83,-520.75 600.83,-517.25 600.83,-524.25"/>
</a>
</g>
</g>
<!-- Node15 -->
<g id="Node000015" class="node">
<title>Node15</title>
<g id="a_Node000015"><a xlink:href="classcore_1_1socket_1_1stream_1_1SocketWriter.html#a9308f104283a0def976d31fd7b00ad1c" target="_top" xlink:title=" ">
<polygon fill="white" stroke="#666666" points="539.25,-485.5 396.5,-485.5 396.5,-452 539.25,-452 539.25,-485.5"/>
<text xml:space="preserve" text-anchor="start" x="404.5" y="-472" font-family="Helvetica,sans-Serif" font-size="10.00">core::socket::stream</text>
<text xml:space="preserve" text-anchor="middle" x="467.88" y="-459.25" font-family="Helvetica,sans-Serif" font-size="10.00">::SocketWriter::writeEvent</text>
</a>
</g>
</g>
<!-- Node14&#45;&gt;Node15 -->
<g id="edge14_Node000014_Node000015" class="edge">
<title>Node14&#45;&gt;Node15</title>
<g id="a_edge14_Node000014_Node000015"><a xlink:title=" ">
<path fill="none" stroke="#63b8ff" d="M602.26,-468.75C581.79,-468.75 559.69,-468.75 539.49,-468.75"/>
<polygon fill="#63b8ff" stroke="#63b8ff" points="602.26,-472.25 612.26,-468.75 602.26,-465.25 602.26,-472.25"/>
</a>
</g>
</g>
<!-- Node17 -->
<g id="Node000017" class="node">
<title>Node17</title>
<g id="a_Node000017"><a xlink:href="classcore_1_1pipe_1_1Pipe.html#af8d50ebf7c81a9e742ce1075773f63a9" target="_top" xlink:title=" ">
<polygon fill="white" stroke="#666666" points="526.88,-427.12 408.88,-427.12 408.88,-406.38 526.88,-406.38 526.88,-427.12"/>
<text xml:space="preserve" text-anchor="middle" x="467.88" y="-413.62" font-family="Helvetica,sans-Serif" font-size="10.00">core::pipe::Pipe::Pipe</text>
</a>
</g>
</g>
<!-- Node16&#45;&gt;Node17 -->
<g id="edge16_Node000016_Node000017" class="edge">
<title>Node16&#45;&gt;Node17</title>
<g id="a_edge16_Node000016_Node000017"><a xlink:title=" ">
<path fill="none" stroke="#63b8ff" d="M604.59,-416.75C579.2,-416.75 551.07,-416.75 527.04,-416.75"/>
<polygon fill="#63b8ff" stroke="#63b8ff" points="604.52,-420.25 614.52,-416.75 604.52,-413.25 604.52,-420.25"/>
</a>
</g>
</g>
<!-- Node18 -->
<g id="Node000018" class="node">
<title>Node18</title>
<g id="a_Node000018"><a xlink:href="testpipe_8cpp.html#a0ddf1224851353fc92bfbff6f499fa97" target="_top" xlink:title=" ">
<polygon fill="white" stroke="#666666" points="275,-427.12 234.25,-427.12 234.25,-406.38 275,-406.38 275,-427.12"/>
<text xml:space="preserve" text-anchor="middle" x="254.62" y="-413.62" font-family="Helvetica,sans-Serif" font-size="10.00">main</text>
</a>
</g>
</g>
<!-- Node17&#45;&gt;Node18 -->
<g id="edge17_Node000017_Node000018" class="edge">
<title>Node17&#45;&gt;Node18</title>
<g id="a_edge17_Node000017_Node000018"><a xlink:title=" ">
<path fill="none" stroke="#63b8ff" d="M397.12,-416.75C354.5,-416.75 303.05,-416.75 275.44,-416.75"/>
<polygon fill="#63b8ff" stroke="#63b8ff" points="397.08,-420.25 407.08,-416.75 397.08,-413.25 397.08,-420.25"/>
</a>
</g>
</g>
<!-- Node22 -->
<g id="Node000022" class="node">
<title>Node22</title>
<g id="a_Node000022"><a xlink:href="classcore_1_1socket_1_1stream_1_1tls_1_1TLSHandshake.html#a4fa969478e53adfb271cb6afcf86fd32" target="_top" xlink:title=" ">
<polygon fill="white" stroke="#666666" points="526.5,-265.88 409.25,-265.88 409.25,-219.62 526.5,-219.62 526.5,-265.88"/>
<text xml:space="preserve" text-anchor="start" x="417.25" y="-252.38" font-family="Helvetica,sans-Serif" font-size="10.00">core::socket::stream</text>
<text xml:space="preserve" text-anchor="start" x="417.25" y="-239.62" font-family="Helvetica,sans-Serif" font-size="10.00">::tls::TLSHandshake::</text>
<text xml:space="preserve" text-anchor="middle" x="467.88" y="-226.88" font-family="Helvetica,sans-Serif" font-size="10.00">doHandshake</text>
</a>
</g>
</g>
<!-- Node21&#45;&gt;Node22 -->
<g id="edge21_Node000021_Node000022" class="edge">
<title>Node21&#45;&gt;Node22</title>
<g id="a_edge21_Node000021_Node000022"><a xlink:title=" ">
<path fill="none" stroke="#63b8ff" d="M607.93,-242.75C581.56,-242.75 551.85,-242.75 526.68,-242.75"/>
<polygon fill="#63b8ff" stroke="#63b8ff" points="607.87,-246.25 617.87,-242.75 607.87,-239.25 607.87,-246.25"/>
</a>
</g>
</g>
<!-- Node23 -->
<g id="Node000023" class="node">
<title>Node23</title>
<g id="a_Node000023"><a xlink:href="classcore_1_1socket_1_1stream_1_1tls_1_1SocketConnection.html#afbaea26dae9b2c40e01bdf20af96549f" target="_top" xlink:title=" ">
<polygon fill="white" stroke="#666666" points="318.12,-267.88 191.12,-267.88 191.12,-221.62 318.12,-221.62 318.12,-267.88"/>
<text xml:space="preserve" text-anchor="start" x="199.12" y="-254.38" font-family="Helvetica,sans-Serif" font-size="10.00">core::socket::stream</text>
<text xml:space="preserve" text-anchor="start" x="199.12" y="-241.62" font-family="Helvetica,sans-Serif" font-size="10.00">::tls::SocketConnection</text>
<text xml:space="preserve" text-anchor="middle" x="254.62" y="-228.88" font-family="Helvetica,sans-Serif" font-size="10.00">::doSSLHandshake</text>
</a>
</g>
</g>
<!-- Node22&#45;&gt;Node23 -->
<g id="edge22_Node000022_Node000023" class="edge">
<title>Node22&#45;&gt;Node23</title>
<g id="a_edge22_Node000022_Node000023"><a xlink:title=" ">
<path fill="none" stroke="#63b8ff" d="M397.4,-243.41C371.89,-243.65 343.19,-243.92 318.31,-244.16"/>
<polygon fill="#63b8ff" stroke="#63b8ff" points="397.39,-246.91 407.36,-243.31 397.32,-239.91 397.39,-246.91"/>
</a>
</g>
</g>
<!-- Node25 -->
<g id="Node000025" class="node">
<title>Node25</title>
<g id="a_Node000025"><a xlink:href="classcore_1_1socket_1_1stream_1_1tls_1_1TLSShutdown.html#a3fa5f2766d74bdea0127800c7ba9d4e9" target="_top" xlink:title=" ">
<polygon fill="white" stroke="#666666" points="553.5,-200.5 382.25,-200.5 382.25,-167 553.5,-167 553.5,-200.5"/>
<text xml:space="preserve" text-anchor="start" x="390.25" y="-187" font-family="Helvetica,sans-Serif" font-size="10.00">core::socket::stream</text>
<text xml:space="preserve" text-anchor="middle" x="467.88" y="-174.25" font-family="Helvetica,sans-Serif" font-size="10.00">::tls::TLSShutdown::doShutdown</text>
</a>
</g>
</g>
<!-- Node24&#45;&gt;Node25 -->
<g id="edge24_Node000024_Node000025" class="edge">
<title>Node24&#45;&gt;Node25</title>
<g id="a_edge24_Node000024_Node000025"><a xlink:title=" ">
<path fill="none" stroke="#63b8ff" d="M578.68,-184.28C570.39,-184.24 562.05,-184.2 553.88,-184.16"/>
<polygon fill="#63b8ff" stroke="#63b8ff" points="578.4,-187.77 588.42,-184.32 578.43,-180.78 578.4,-187.77"/>
</a>
</g>
</g>
<!-- Node26 -->
<g id="Node000026" class="node">
<title>Node26</title>
<g id="a_Node000026"><a xlink:href="classcore_1_1socket_1_1stream_1_1tls_1_1SocketConnection.html#ab19cf9af01a4bd8c9a4cdd75e8265e62" target="_top" xlink:title=" ">
<polygon fill="white" stroke="#666666" points="318.12,-203.88 191.12,-203.88 191.12,-157.62 318.12,-157.62 318.12,-203.88"/>
<text xml:space="preserve" text-anchor="start" x="199.12" y="-190.38" font-family="Helvetica,sans-Serif" font-size="10.00">core::socket::stream</text>
<text xml:space="preserve" text-anchor="start" x="199.12" y="-177.62" font-family="Helvetica,sans-Serif" font-size="10.00">::tls::SocketConnection</text>
<text xml:space="preserve" text-anchor="middle" x="254.62" y="-164.88" font-family="Helvetica,sans-Serif" font-size="10.00">::doSSLShutdown</text>
</a>
</g>
</g>
<!-- Node25&#45;&gt;Node26 -->
<g id="edge25_Node000025_Node000026" class="edge">
<title>Node25&#45;&gt;Node26</title>
<g id="a_edge25_Node000025_Node000026"><a xlink:title=" ">
<path fill="none" stroke="#63b8ff" d="M370.59,-182.38C352.87,-182.13 334.79,-181.87 318.38,-181.64"/>
<polygon fill="#63b8ff" stroke="#63b8ff" points="370.3,-185.88 380.35,-182.52 370.4,-178.88 370.3,-185.88"/>
</a>
</g>
</g>
<!-- Node27 -->
<g id="Node000027" class="node">
<title>Node27</title>
<g id="a_Node000027"><a xlink:href="classcore_1_1socket_1_1stream_1_1tls_1_1SocketConnection.html#aa4a33b9e037dd5f12086817db80501e4" target="_top" xlink:title=" ">
<polygon fill="white" stroke="#666666" points="127,-235.88 0,-235.88 0,-189.62 127,-189.62 127,-235.88"/>
<text xml:space="preserve" text-anchor="start" x="8" y="-222.38" font-family="Helvetica,sans-Serif" font-size="10.00">core::socket::stream</text>
<text xml:space="preserve" text-anchor="start" x="8" y="-209.62" font-family="Helvetica,sans-Serif" font-size="10.00">::tls::SocketConnection</text>
<text xml:space="preserve" text-anchor="middle" x="63.5" y="-196.88" font-family="Helvetica,sans-Serif" font-size="10.00">::doWriteShutdown</text>
</a>
</g>
</g>
<!-- Node26&#45;&gt;Node27 -->
<g id="edge26_Node000026_Node000027" class="edge">
<title>Node26&#45;&gt;Node27</title>
<g id="a_edge26_Node000026_Node000027"><a xlink:title=" ">
<path fill="none" stroke="#63b8ff" d="M179.45,-193.3C162.17,-196.22 143.93,-199.31 127.2,-202.14"/>
<polygon fill="#63b8ff" stroke="#63b8ff" points="179.88,-196.78 189.16,-191.66 178.71,-189.88 179.88,-196.78"/>
</a>
</g>
</g>
<!-- Node28 -->
<g id="Node000028" class="node">
<title>Node28</title>
<g id="a_Node000028"><a xlink:href="classcore_1_1socket_1_1stream_1_1tls_1_1SocketConnection.html#ad2b4177906f93d2d7bd725d609d7fda2" target="_top" xlink:title=" ">
<polygon fill="white" stroke="#666666" points="127,-171.88 0,-171.88 0,-125.62 127,-125.62 127,-171.88"/>
<text xml:space="preserve" text-anchor="start" x="8" y="-158.38" font-family="Helvetica,sans-Serif" font-size="10.00">core::socket::stream</text>
<text xml:space="preserve" text-anchor="start" x="8" y="-145.62" font-family="Helvetica,sans-Serif" font-size="10.00">::tls::SocketConnection</text>
<text xml:space="preserve" text-anchor="middle" x="63.5" y="-132.88" font-family="Helvetica,sans-Serif" font-size="10.00">::onReadShutdown</text>
</a>
</g>
</g>
<!-- Node26&#45;&gt;Node28 -->
<g id="edge27_Node000026_Node000028" class="edge">
<title>Node26&#45;&gt;Node28</title>
<g id="a_edge27_Node000026_Node000028"><a xlink:title=" ">
<path fill="none" stroke="#63b8ff" d="M179.45,-168.2C162.17,-165.28 143.93,-162.19 127.2,-159.36"/>
<polygon fill="#63b8ff" stroke="#63b8ff" points="178.71,-171.62 189.16,-169.84 179.88,-164.72 178.71,-171.62"/>
</a>
</g>
</g>
</g>
</svg>

<g id="navigator" transform="translate(0 0)" fill="#404254">
  <rect fill="#f2f5e9" fill-opacity="0.5" stroke="#606060" stroke-width=".5" x="0" y="0" width="60" height="60"/>
  <use id="zoomplus" xlink:href="#zoomPlus" x="17" y="9" onmousedown="handleZoom(evt,'in')"/>
  <use id="zoomminus" xlink:href="#zoomMin" x="42" y="9" onmousedown="handleZoom(evt,'out')"/>
  <use id="reset" xlink:href="#resetDef" x="30" y="36" onmousedown="handleReset()"/>
   <use id="arrowup" xlink:href="#arrowUp" x="0" y="0" onmousedown="handlePan(0,-1)"/>
  <use id="arrowright" xlink:href="#arrowRight" x="0" y="0" onmousedown="handlePan(1,0)"/>
  <use id="arrowdown" xlink:href="#arrowDown" x="0" y="0" onmousedown="handlePan(0,1)"/>
  <use id="arrowleft" xlink:href="#arrowLeft" x="0" y="0" onmousedown="handlePan(-1,0)"/>
</g>
<svg viewBox="0 0 15 15" width="100%" height="30px" preserveAspectRatio="xMaxYMin meet">
 <g id="arrow_out" transform="scale(0.3 0.3)">
  <a xlink:href="classcore_1_1DescriptorEventReceiver_aab5e466759c83194c5bc4b41f1a33103_icgraph_org.svg" target="_base">
   <rect id="button" ry="5" rx="5" y="6" x="6" height="38" width="38"
        fill="#f2f5e9" fill-opacity="0.5" stroke="#606060" stroke-width="1.0"/>
   <path id="arrow"
     d="M 11.500037,31.436501 C 11.940474,20.09759 22.043105,11.32322 32.158766,21.979434 L 37.068811,17.246167 C 37.068811,17.246167 37.088388,32 37.088388,32 L 22.160133,31.978069 C 22.160133,31.978069 26.997745,27.140456 26.997745,27.140456 C 18.528582,18.264221 13.291696,25.230495 11.500037,31.436501 z"
     style="fill:#404040;"/>
  </a>
 </g>
</svg>

<style type='text/css'>
<![CDATA[
[data-mouse-over-selected='false'] { opacity: 0.7; }
[data-mouse-over-selected='true']  { opacity: 1.0; }
]]>
</style>
<script type="application/ecmascript"><![CDATA[
document.addEventListener('DOMContentLoaded', (event) => {
  highlightEdges();
  highlightAdjacentNodes();
});
]]></script>
</svg>
