<?xml version="1.0" encoding="UTF-8" standalone="no"?>
<!DOCTYPE svg PUBLIC "-//W3C//DTD SVG 1.1//EN"
 "http://www.w3.org/Graphics/SVG/1.1/DTD/svg11.dtd">
<!-- Generated by graphviz version 14.1.1 (0)
 -->
<!-- Title: iot::mqtt::server::broker::SubscriptionTree::TopicLevel::appear Pages: 1 -->
<svg width="988pt" height="72pt"
 viewBox="0.00 0.00 988.00 72.00" xmlns="http://www.w3.org/2000/svg" xmlns:xlink="http://www.w3.org/1999/xlink">
<g id="graph0" class="graph" transform="scale(1 1) rotate(0) translate(4 68.25)">
<title>iot::mqtt::server::broker::SubscriptionTree::TopicLevel::appear</title>
<!-- Node1 -->
<g id="Node000001" class="node">
<title>Node1</title>
<g id="a_Node000001"><a xlink:title=" ">
<polygon fill="#999999" stroke="#666666" points="979.5,-46.25 846.5,-46.25 846.5,0 979.5,0 979.5,-46.25"/>
<text xml:space="preserve" text-anchor="start" x="854.5" y="-32.75" font-family="Helvetica,sans-Serif" font-size="10.00">iot::mqtt::server::</text>
<text xml:space="preserve" text-anchor="start" x="854.5" y="-20" font-family="Helvetica,sans-Serif" font-size="10.00">broker::SubscriptionTree</text>
<text xml:space="preserve" text-anchor="middle" x="913" y="-7.25" font-family="Helvetica,sans-Serif" font-size="10.00">::TopicLevel::appear</text>
</a>
</g>
</g>
<!-- Node1&#45;&gt;Node1 -->
<g id="edge6_Node000001_Node000001" class="edge">
<title>Node1&#45;&gt;Node1</title>
<g id="a_edge6_Node000001_Node000001"><a xlink:title=" ">
<path fill="none" stroke="#63b8ff" d="M940.79,-56.99C935.98,-61.36 926.72,-64.25 913,-64.25 889.89,-64.25 879.42,-56.05 881.59,-46.38"/>
<polygon fill="#63b8ff" stroke="#63b8ff" points="944.01,-58.4 943.92,-47.81 937.38,-56.15 944.01,-58.4"/>
</a>
</g>
</g>
<!-- Node2 -->
<g id="Node000002" class="node">
<title>Node2</title>
<g id="a_Node000002"><a xlink:href="classiot_1_1mqtt_1_1server_1_1broker_1_1SubscriptionTree.html#aab807c4b93e8c7e82ddf20bd72b807bb" target="_top" xlink:title=" ">
<polygon fill="white" stroke="#666666" points="810.5,-46.25 677.5,-46.25 677.5,0 810.5,0 810.5,-46.25"/>
<text xml:space="preserve" text-anchor="start" x="685.5" y="-32.75" font-family="Helvetica,sans-Serif" font-size="10.00">iot::mqtt::server::</text>
<text xml:space="preserve" text-anchor="start" x="685.5" y="-20" font-family="Helvetica,sans-Serif" font-size="10.00">broker::SubscriptionTree</text>
<text xml:space="preserve" text-anchor="middle" x="744" y="-7.25" font-family="Helvetica,sans-Serif" font-size="10.00">::appear</text>
</a>
</g>
</g>
<!-- Node1&#45;&gt;Node2 -->
<g id="edge1_Node000001_Node000002" class="edge">
<title>Node1&#45;&gt;Node2</title>
<g id="a_edge1_Node000001_Node000002"><a xlink:title=" ">
<path fill="none" stroke="#63b8ff" d="M835.12,-23.12C827.02,-23.12 818.84,-23.12 810.88,-23.12"/>
<polygon fill="#63b8ff" stroke="#63b8ff" points="834.96,-26.63 844.96,-23.13 834.96,-19.63 834.96,-26.63"/>
</a>
</g>
</g>
<!-- Node3 -->
<g id="Node000003" class="node">
<title>Node3</title>
<g id="a_Node000003"><a xlink:href="classiot_1_1mqtt_1_1server_1_1broker_1_1Broker.html#a05a7b6757746c36f6a9cd38c0f6a9638" target="_top" xlink:title=" ">
<polygon fill="white" stroke="#666666" points="641.5,-39.88 481.5,-39.88 481.5,-6.38 641.5,-6.38 641.5,-39.88"/>
<text xml:space="preserve" text-anchor="start" x="489.5" y="-26.38" font-family="Helvetica,sans-Serif" font-size="10.00">iot::mqtt::server::</text>
<text xml:space="preserve" text-anchor="middle" x="561.5" y="-13.62" font-family="Helvetica,sans-Serif" font-size="10.00">broker::Broker::restartSession</text>
</a>
</g>
</g>
<!-- Node2&#45;&gt;Node3 -->
<g id="edge2_Node000002_Node000003" class="edge">
<title>Node2&#45;&gt;Node3</title>
<g id="a_edge2_Node000002_Node000003"><a xlink:title=" ">
<path fill="none" stroke="#63b8ff" d="M665.61,-23.12C657.71,-23.12 649.67,-23.12 641.75,-23.12"/>
<polygon fill="#63b8ff" stroke="#63b8ff" points="665.56,-26.63 675.56,-23.13 665.56,-19.63 665.56,-26.63"/>
</a>
</g>
</g>
<!-- Node4 -->
<g id="Node000004" class="node">
<title>Node4</title>
<g id="a_Node000004"><a xlink:href="classiot_1_1mqtt_1_1server_1_1Mqtt.html#a7d2cf05330626e69fe77778fac499d5d" target="_top" xlink:title=" ">
<polygon fill="white" stroke="#666666" points="445.5,-39.88 344.75,-39.88 344.75,-6.38 445.5,-6.38 445.5,-39.88"/>
<text xml:space="preserve" text-anchor="start" x="352.75" y="-26.38" font-family="Helvetica,sans-Serif" font-size="10.00">iot::mqtt::server::</text>
<text xml:space="preserve" text-anchor="middle" x="395.12" y="-13.62" font-family="Helvetica,sans-Serif" font-size="10.00">Mqtt::initSession</text>
</a>
</g>
</g>
<!-- Node3&#45;&gt;Node4 -->
<g id="edge3_Node000003_Node000004" class="edge">
<title>Node3&#45;&gt;Node4</title>
<g id="a_edge3_Node000003_Node000004"><a xlink:title=" ">
<path fill="none" stroke="#63b8ff" d="M469.82,-23.12C461.5,-23.12 453.3,-23.12 445.56,-23.12"/>
<polygon fill="#63b8ff" stroke="#63b8ff" points="469.69,-26.63 479.69,-23.13 469.69,-19.63 469.69,-26.63"/>
</a>
</g>
</g>
<!-- Node5 -->
<g id="Node000005" class="node">
<title>Node5</title>
<g id="a_Node000005"><a xlink:href="classiot_1_1mqtt_1_1server_1_1Mqtt.html#a92036680046e60baa280afa4f20c5580" target="_top" xlink:title=" ">
<polygon fill="white" stroke="#666666" points="308.75,-39.88 207.25,-39.88 207.25,-6.38 308.75,-6.38 308.75,-39.88"/>
<text xml:space="preserve" text-anchor="start" x="215.25" y="-26.38" font-family="Helvetica,sans-Serif" font-size="10.00">iot::mqtt::server::</text>
<text xml:space="preserve" text-anchor="middle" x="258" y="-13.62" font-family="Helvetica,sans-Serif" font-size="10.00">Mqtt::_onConnect</text>
</a>
</g>
</g>
<!-- Node4&#45;&gt;Node5 -->
<g id="edge4_Node000004_Node000005" class="edge">
<title>Node4&#45;&gt;Node5</title>
<g id="a_edge4_Node000004_Node000005"><a xlink:title=" ">
<path fill="none" stroke="#63b8ff" d="M333.24,-23.12C325.13,-23.12 316.89,-23.12 308.99,-23.12"/>
<polygon fill="#63b8ff" stroke="#63b8ff" points="333.06,-26.63 343.06,-23.13 333.06,-19.63 333.06,-26.63"/>
</a>
</g>
</g>
<!-- Node6 -->
<g id="Node000006" class="node">
<title>Node6</title>
<g id="a_Node000006"><a xlink:href="classiot_1_1mqtt_1_1server_1_1packets_1_1Connect.html#a5568a6ab65ba3eeb8460e286fe4574ea" target="_top" xlink:title=" ">
<polygon fill="white" stroke="#666666" points="171.25,-39.88 0,-39.88 0,-6.38 171.25,-6.38 171.25,-39.88"/>
<text xml:space="preserve" text-anchor="start" x="8" y="-26.38" font-family="Helvetica,sans-Serif" font-size="10.00">iot::mqtt::server::</text>
<text xml:space="preserve" text-anchor="middle" x="85.62" y="-13.62" font-family="Helvetica,sans-Serif" font-size="10.00">packets::Connect::deliverPacket</text>
</a>
</g>
</g>
<!-- Node5&#45;&gt;Node6 -->
<g id="edge5_Node000005_Node000006" class="edge">
<title>Node5&#45;&gt;Node6</title>
<g id="a_edge5_Node000005_Node000006"><a xlink:title=" ">
<path fill="none" stroke="#63b8ff" d="M195.34,-23.12C187.62,-23.12 179.62,-23.12 171.62,-23.12"/>
<polygon fill="#63b8ff" stroke="#63b8ff" points="195.29,-26.63 205.29,-23.13 195.29,-19.63 195.29,-26.63"/>
</a>
</g>
</g>
</g>
</svg>
