<?xml version="1.0" encoding="UTF-8" standalone="no"?>
<!DOCTYPE svg PUBLIC "-//W3C//DTD SVG 1.1//EN"
 "http://www.w3.org/Graphics/SVG/1.1/DTD/svg11.dtd">
<!-- Generated by graphviz version 2.42.4 (0)
 -->
<!-- Title: FormatterBase::get_label Pages: 1 -->
<svg width="670pt" height="322pt"
 viewBox="0.00 0.00 670.00 322.23" xmlns="http://www.w3.org/2000/svg" xmlns:xlink="http://www.w3.org/1999/xlink">
<g id="graph0" class="graph" transform="scale(1 1) rotate(0) translate(4 318.23)">
<title>FormatterBase::get_label</title>
<!-- Node1 -->
<g id="Node000001" class="node">
<title>Node1</title>
<g id="a_Node000001"><a xlink:title="Get the current value of a name (REQUIRED, etc.)">
<polygon fill="#999999" stroke="#666666" points="662,-163.73 552,-163.73 552,-133.73 662,-133.73 662,-163.73"/>
<text text-anchor="start" x="560" y="-151.73" font-family="Helvetica,sans-Serif" font-size="10.00">FormatterBase::get</text>
<text text-anchor="middle" x="607" y="-140.73" font-family="Helvetica,sans-Serif" font-size="10.00">_label</text>
</a>
</g>
</g>
<!-- Node2 -->
<g id="Node000002" class="node">
<title>Node2</title>
<g id="a_Node000002"><a xlink:href="classFormatter.html#aad2debed6060d008eb10ece1b974eb23" target="_top" xlink:title="This displays the description line.">
<polygon fill="white" stroke="#666666" points="510,-314.23 353,-314.23 353,-295.23 510,-295.23 510,-314.23"/>
<text text-anchor="middle" x="431.5" y="-302.23" font-family="Helvetica,sans-Serif" font-size="10.00">Formatter::make_description</text>
</a>
</g>
</g>
<!-- Node1&#45;&gt;Node2 -->
<g id="edge1_Node000001_Node000002" class="edge">
<title>Node1&#45;&gt;Node2</title>
<g id="a_edge1_Node000001_Node000002"><a xlink:title=" ">
<path fill="none" stroke="#63b8ff" d="M596.77,-173.12C583.69,-204.26 556.72,-257.47 516,-285.73 510.38,-289.63 504.09,-292.74 497.54,-295.22"/>
<polygon fill="#63b8ff" stroke="#63b8ff" points="600.02,-174.43 600.53,-163.85 593.53,-171.8 600.02,-174.43"/>
</a>
</g>
</g>
<!-- Node5 -->
<g id="Node000005" class="node">
<title>Node5</title>
<g id="a_Node000005"><a xlink:href="classCLI_1_1HelpFormatter.html#ab477a392fff54c1c1e64cd17311c709b" target="_top" xlink:title=" ">
<polygon fill="white" stroke="#666666" points="485.5,-276.73 377.5,-276.73 377.5,-246.73 485.5,-246.73 485.5,-276.73"/>
<text text-anchor="start" x="385.5" y="-264.73" font-family="Helvetica,sans-Serif" font-size="10.00">CLI::HelpFormatter</text>
<text text-anchor="middle" x="431.5" y="-253.73" font-family="Helvetica,sans-Serif" font-size="10.00">::make_expanded</text>
</a>
</g>
</g>
<!-- Node1&#45;&gt;Node5 -->
<g id="edge5_Node000001_Node000005" class="edge">
<title>Node1&#45;&gt;Node5</title>
<g id="a_edge5_Node000001_Node000005"><a xlink:title=" ">
<path fill="none" stroke="#63b8ff" d="M588.37,-171.79C571.77,-191.96 545.16,-220.65 516,-237.73 506.76,-243.14 496.22,-247.4 485.82,-250.72"/>
<polygon fill="#63b8ff" stroke="#63b8ff" points="591.1,-173.97 594.64,-163.98 585.65,-169.59 591.1,-173.97"/>
</a>
</g>
</g>
<!-- Node6 -->
<g id="Node000006" class="node">
<title>Node6</title>
<g id="a_Node000006"><a xlink:href="classCLI_1_1HelpFormatter.html#a0a0421c2ae2eda35aff26bb91f0275cf" target="_top" xlink:title=" ">
<polygon fill="white" stroke="#666666" points="487.5,-228.73 375.5,-228.73 375.5,-198.73 487.5,-198.73 487.5,-228.73"/>
<text text-anchor="start" x="383.5" y="-216.73" font-family="Helvetica,sans-Serif" font-size="10.00">CLI::HelpFormatter</text>
<text text-anchor="middle" x="431.5" y="-205.73" font-family="Helvetica,sans-Serif" font-size="10.00">::make_option_opts</text>
</a>
</g>
</g>
<!-- Node1&#45;&gt;Node6 -->
<g id="edge6_Node000001_Node000006" class="edge">
<title>Node1&#45;&gt;Node6</title>
<g id="a_edge6_Node000001_Node000006"><a xlink:title=" ">
<path fill="none" stroke="#63b8ff" d="M566.36,-168.31C550.86,-175.57 532.81,-183.52 516,-189.73 506.94,-193.07 497.2,-196.24 487.67,-199.12"/>
<polygon fill="#63b8ff" stroke="#63b8ff" points="568.11,-171.36 575.65,-163.91 565.11,-165.03 568.11,-171.36"/>
</a>
</g>
</g>
<!-- Node7 -->
<g id="Node000007" class="node">
<title>Node7</title>
<g id="a_Node000007"><a xlink:href="classFormatter.html#a7e35efd730b673bf00bc92d5c7fa2b1e" target="_top" xlink:title="This is the options part of the name, Default: combined into left column.">
<polygon fill="white" stroke="#666666" points="511.5,-180.23 351.5,-180.23 351.5,-161.23 511.5,-161.23 511.5,-180.23"/>
<text text-anchor="middle" x="431.5" y="-168.23" font-family="Helvetica,sans-Serif" font-size="10.00">Formatter::make_option_opts</text>
</a>
</g>
</g>
<!-- Node1&#45;&gt;Node7 -->
<g id="edge7_Node000001_Node000007" class="edge">
<title>Node1&#45;&gt;Node7</title>
<g id="a_edge7_Node000001_Node000007"><a xlink:title=" ">
<path fill="none" stroke="#63b8ff" d="M541.61,-156.89C530.56,-158.29 519,-159.76 507.7,-161.19"/>
<polygon fill="#63b8ff" stroke="#63b8ff" points="542.1,-160.36 551.58,-155.63 541.22,-153.41 542.1,-160.36"/>
</a>
</g>
</g>
<!-- Node9 -->
<g id="Node000009" class="node">
<title>Node9</title>
<g id="a_Node000009"><a xlink:href="classCLI_1_1HelpFormatter.html#a36183e7ab0a1cff248622901b5a4c8b4" target="_top" xlink:title=" ">
<polygon fill="white" stroke="#666666" points="492,-142.73 371,-142.73 371,-112.73 492,-112.73 492,-142.73"/>
<text text-anchor="start" x="379" y="-130.73" font-family="Helvetica,sans-Serif" font-size="10.00">CLI::HelpFormatter</text>
<text text-anchor="middle" x="431.5" y="-119.73" font-family="Helvetica,sans-Serif" font-size="10.00">::make_subcommand</text>
</a>
</g>
</g>
<!-- Node1&#45;&gt;Node9 -->
<g id="edge9_Node000001_Node000009" class="edge">
<title>Node1&#45;&gt;Node9</title>
<g id="a_edge9_Node000001_Node000009"><a xlink:title=" ">
<path fill="none" stroke="#63b8ff" d="M541.2,-140.88C525.12,-138.94 507.97,-136.86 492.15,-134.95"/>
<polygon fill="#63b8ff" stroke="#63b8ff" points="541.23,-144.41 551.58,-142.14 542.07,-137.47 541.23,-144.41"/>
</a>
</g>
</g>
<!-- Node10 -->
<g id="Node000010" class="node">
<title>Node10</title>
<g id="a_Node000010"><a xlink:href="classFormatter.html#a8681d83a7802d843bba03d2e91d1dfc1" target="_top" xlink:title="This prints out a subcommand.">
<polygon fill="white" stroke="#666666" points="516,-94.23 347,-94.23 347,-75.23 516,-75.23 516,-94.23"/>
<text text-anchor="middle" x="431.5" y="-82.23" font-family="Helvetica,sans-Serif" font-size="10.00">Formatter::make_subcommand</text>
</a>
</g>
</g>
<!-- Node1&#45;&gt;Node10 -->
<g id="edge10_Node000001_Node000010" class="edge">
<title>Node1&#45;&gt;Node10</title>
<g id="a_edge10_Node000001_Node000010"><a xlink:title=" ">
<path fill="none" stroke="#63b8ff" d="M570.82,-128.67C554.54,-120.04 534.7,-110.42 516,-103.73 505.64,-100.02 494.29,-96.87 483.4,-94.26"/>
<polygon fill="#63b8ff" stroke="#63b8ff" points="569.5,-131.94 579.96,-133.61 572.82,-125.78 569.5,-131.94"/>
</a>
</g>
</g>
<!-- Node11 -->
<g id="Node000011" class="node">
<title>Node11</title>
<g id="a_Node000011"><a xlink:href="classCLI_1_1HelpFormatter.html#a8078272d7feee9a9f8a1fec644c0f632" target="_top" xlink:title=" ">
<polygon fill="white" stroke="#666666" points="485.5,-56.73 377.5,-56.73 377.5,-26.73 485.5,-26.73 485.5,-56.73"/>
<text text-anchor="start" x="385.5" y="-44.73" font-family="Helvetica,sans-Serif" font-size="10.00">CLI::HelpFormatter</text>
<text text-anchor="middle" x="431.5" y="-33.73" font-family="Helvetica,sans-Serif" font-size="10.00">::make_usage</text>
</a>
</g>
</g>
<!-- Node1&#45;&gt;Node11 -->
<g id="edge11_Node000001_Node000011" class="edge">
<title>Node1&#45;&gt;Node11</title>
<g id="a_edge11_Node000001_Node000011"><a xlink:title=" ">
<path fill="none" stroke="#63b8ff" d="M586.95,-126.05C570.08,-107.34 543.88,-81.41 516,-65.73 506.67,-60.48 496.09,-56.29 485.67,-52.99"/>
<polygon fill="#63b8ff" stroke="#63b8ff" points="584.34,-128.39 593.58,-133.57 589.59,-123.76 584.34,-128.39"/>
</a>
</g>
</g>
<!-- Node12 -->
<g id="Node000012" class="node">
<title>Node12</title>
<g id="a_Node000012"><a xlink:href="classFormatter.html#a8e1e5d6b78719fe5b2a41ea1c45839cf" target="_top" xlink:title="This displays the usage line.">
<polygon fill="white" stroke="#666666" points="301.5,-76.23 169.5,-76.23 169.5,-57.23 301.5,-57.23 301.5,-76.23"/>
<text text-anchor="middle" x="235.5" y="-64.23" font-family="Helvetica,sans-Serif" font-size="10.00">Formatter::make_usage</text>
</a>
</g>
</g>
<!-- Node1&#45;&gt;Node12 -->
<g id="edge12_Node000001_Node000012" class="edge">
<title>Node1&#45;&gt;Node12</title>
<g id="a_edge12_Node000001_Node000012"><a xlink:title=" ">
<path fill="none" stroke="#63b8ff" d="M597.32,-123.98C584.84,-92.66 558.53,-40.11 516,-17.73 425.32,29.99 297.48,-32.18 252.73,-57.17"/>
<polygon fill="#63b8ff" stroke="#63b8ff" points="594.06,-125.24 600.89,-133.34 600.6,-122.75 594.06,-125.24"/>
</a>
</g>
</g>
<!-- Node3 -->
<g id="Node000003" class="node">
<title>Node3</title>
<g id="a_Node000003"><a xlink:href="classFormatter.html#a3fce36537b25a1841a980b7a018d6b5e" target="_top" xlink:title="This prints out a subcommand in help&#45;all.">
<polygon fill="white" stroke="#666666" points="311,-314.23 160,-314.23 160,-295.23 311,-295.23 311,-314.23"/>
<text text-anchor="middle" x="235.5" y="-302.23" font-family="Helvetica,sans-Serif" font-size="10.00">Formatter::make_expanded</text>
</a>
</g>
</g>
<!-- Node2&#45;&gt;Node3 -->
<g id="edge2_Node000002_Node000003" class="edge">
<title>Node2&#45;&gt;Node3</title>
<g id="a_edge2_Node000002_Node000003"><a xlink:title=" ">
<path fill="none" stroke="#63b8ff" d="M342.86,-304.73C332.24,-304.73 321.46,-304.73 311.05,-304.73"/>
<polygon fill="#63b8ff" stroke="#63b8ff" points="342.99,-308.23 352.99,-304.73 342.99,-301.23 342.99,-308.23"/>
</a>
</g>
</g>
<!-- Node4 -->
<g id="Node000004" class="node">
<title>Node4</title>
<g id="a_Node000004"><a xlink:href="classFormatter.html#ab682ca416d8793c76aca0993fd14ea22" target="_top" xlink:title="This puts everything together.">
<polygon fill="white" stroke="#666666" points="124,-276.23 0,-276.23 0,-257.23 124,-257.23 124,-276.23"/>
<text text-anchor="middle" x="62" y="-264.23" font-family="Helvetica,sans-Serif" font-size="10.00">Formatter::make_help</text>
</a>
</g>
</g>
<!-- Node2&#45;&gt;Node4 -->
<g id="edge4_Node000002_Node000004" class="edge">
<title>Node2&#45;&gt;Node4</title>
<g id="a_edge4_Node000002_Node000004"><a xlink:title=" ">
<path fill="none" stroke="#63b8ff" d="M362.56,-293.66C345.74,-291.15 327.74,-288.66 311,-286.73 247.39,-279.38 174.28,-273.84 124.01,-270.47"/>
<polygon fill="#63b8ff" stroke="#63b8ff" points="362.45,-297.19 372.86,-295.23 363.5,-290.27 362.45,-297.19"/>
</a>
</g>
</g>
<!-- Node3&#45;&gt;Node4 -->
<g id="edge3_Node000003_Node000004" class="edge">
<title>Node3&#45;&gt;Node4</title>
<g id="a_edge3_Node000003_Node000004"><a xlink:title=" ">
<path fill="none" stroke="#63b8ff" d="M181.46,-292.98C157.21,-287.6 128.85,-281.32 105.97,-276.25"/>
<polygon fill="#63b8ff" stroke="#63b8ff" points="180.7,-296.39 191.22,-295.14 182.22,-289.56 180.7,-296.39"/>
</a>
</g>
</g>
<!-- Node8 -->
<g id="Node000008" class="node">
<title>Node8</title>
<g id="a_Node000008"><a xlink:href="classFormatter.html#a2f8b31452187bca4be10e29ab2ffb64a" target="_top" xlink:title="This prints out an option help line, either positional or optional form.">
<polygon fill="white" stroke="#666666" points="302.5,-180.23 168.5,-180.23 168.5,-161.23 302.5,-161.23 302.5,-180.23"/>
<text text-anchor="middle" x="235.5" y="-168.23" font-family="Helvetica,sans-Serif" font-size="10.00">Formatter::make_option</text>
</a>
</g>
</g>
<!-- Node7&#45;&gt;Node8 -->
<g id="edge8_Node000007_Node000008" class="edge">
<title>Node7&#45;&gt;Node8</title>
<g id="a_edge8_Node000007_Node000008"><a xlink:title=" ">
<path fill="none" stroke="#63b8ff" d="M341.03,-170.73C328.14,-170.73 315.07,-170.73 302.73,-170.73"/>
<polygon fill="#63b8ff" stroke="#63b8ff" points="341.31,-174.23 351.31,-170.73 341.31,-167.23 341.31,-174.23"/>
</a>
</g>
</g>
<!-- Node12&#45;&gt;Node4 -->
<g id="edge13_Node000012_Node000004" class="edge">
<title>Node12&#45;&gt;Node4</title>
<g id="a_edge13_Node000012_Node000004"><a xlink:title=" ">
<path fill="none" stroke="#63b8ff" d="M219.57,-83.87C204.5,-101.2 180.57,-128.77 160,-152.73 126.99,-191.18 87.99,-237.2 71.28,-256.94"/>
<polygon fill="#63b8ff" stroke="#63b8ff" points="222.28,-86.09 226.2,-76.25 217,-81.5 222.28,-86.09"/>
</a>
</g>
</g>
</g>
</svg>
