<?xml version="1.0" encoding="UTF-8" standalone="no"?>
<!DOCTYPE svg PUBLIC "-//W3C//DTD SVG 1.1//EN"
 "http://www.w3.org/Graphics/SVG/1.1/DTD/svg11.dtd">
<!-- Generated by graphviz version 2.42.4 (0)
 -->
<!-- Title: web::websocket::client::SocketContextUpgradeFactory::create Pages: 1 -->
<svg width="1090pt" height="388pt"
 viewBox="0.00 0.00 1090.00 387.50" xmlns="http://www.w3.org/2000/svg" xmlns:xlink="http://www.w3.org/1999/xlink">
<g id="graph0" class="graph" transform="scale(1 1) rotate(0) translate(4 383.5)">
<title>web::websocket::client::SocketContextUpgradeFactory::create</title>
<!-- Node1 -->
<g id="Node000001" class="node">
<title>Node1</title>
<g id="a_Node000001"><a xlink:title=" ">
<polygon fill="#999999" stroke="#666666" points="170,-191.5 0,-191.5 0,-150.5 170,-150.5 170,-191.5"/>
<text text-anchor="start" x="8" y="-179.5" font-family="Helvetica,sans-Serif" font-size="10.00">web::websocket::client</text>
<text text-anchor="start" x="8" y="-168.5" font-family="Helvetica,sans-Serif" font-size="10.00">::SocketContextUpgradeFactory</text>
<text text-anchor="middle" x="85" y="-157.5" font-family="Helvetica,sans-Serif" font-size="10.00">::create</text>
</a>
</g>
</g>
<!-- Node2 -->
<g id="Node000002" class="node">
<title>Node2</title>
<g id="a_Node000002"><a xlink:href="classweb_1_1http_1_1client_1_1SocketContextUpgradeFactory.html#a254e57fe75d644633ca8ab5667e04f60" target="_top" xlink:title=" ">
<polygon fill="white" stroke="#666666" points="370,-320.5 206,-320.5 206,-279.5 370,-279.5 370,-320.5"/>
<text text-anchor="start" x="214" y="-308.5" font-family="Helvetica,sans-Serif" font-size="10.00">web::http::client::</text>
<text text-anchor="start" x="214" y="-297.5" font-family="Helvetica,sans-Serif" font-size="10.00">SocketContextUpgradeFactory</text>
<text text-anchor="middle" x="288" y="-286.5" font-family="Helvetica,sans-Serif" font-size="10.00">::checkRefCount</text>
</a>
</g>
</g>
<!-- Node1&#45;&gt;Node2 -->
<g id="edge1_Node000001_Node000002" class="edge">
<title>Node1&#45;&gt;Node2</title>
<g id="a_edge1_Node000001_Node000002"><a xlink:title=" ">
<path fill="none" stroke="#63b8ff" d="M106.48,-191.61C129.16,-213.49 167.61,-247.9 206,-270 209.02,-271.74 212.15,-273.4 215.36,-275"/>
<polygon fill="#63b8ff" stroke="#63b8ff" points="214.01,-278.23 224.55,-279.32 216.98,-271.9 214.01,-278.23"/>
</a>
</g>
</g>
<!-- Node6 -->
<g id="Node000006" class="node">
<title>Node6</title>
<g id="a_Node000006"><a xlink:href="classweb_1_1http_1_1client_1_1Response.html#ae1e0c3462aad7f40e717f93f6944150a" target="_top" xlink:title=" ">
<polygon fill="white" stroke="#666666" points="338.5,-261 237.5,-261 237.5,-231 338.5,-231 338.5,-261"/>
<text text-anchor="start" x="245.5" y="-249" font-family="Helvetica,sans-Serif" font-size="10.00">web::http::client::</text>
<text text-anchor="middle" x="288" y="-238" font-family="Helvetica,sans-Serif" font-size="10.00">Response::get</text>
</a>
</g>
</g>
<!-- Node1&#45;&gt;Node6 -->
<g id="edge5_Node000001_Node000006" class="edge">
<title>Node1&#45;&gt;Node6</title>
<g id="a_edge5_Node000001_Node000006"><a xlink:title=" ">
<path fill="none" stroke="#63b8ff" d="M131.1,-191.61C153.4,-201.43 180.86,-212.97 206,-222 212.93,-224.49 220.25,-226.92 227.55,-229.23"/>
<polygon fill="#63b8ff" stroke="#63b8ff" points="226.86,-232.68 237.45,-232.29 228.93,-225.99 226.86,-232.68"/>
</a>
</g>
</g>
<!-- Node7 -->
<g id="Node000007" class="node">
<title>Node7</title>
<g id="a_Node000007"><a xlink:href="classweb_1_1http_1_1client_1_1Request.html#a434d520c37e7f4fa0fed73c7b69e4f1b" target="_top" xlink:title=" ">
<polygon fill="white" stroke="#666666" points="338.5,-213 237.5,-213 237.5,-183 338.5,-183 338.5,-213"/>
<text text-anchor="start" x="245.5" y="-201" font-family="Helvetica,sans-Serif" font-size="10.00">web::http::client::</text>
<text text-anchor="middle" x="288" y="-190" font-family="Helvetica,sans-Serif" font-size="10.00">Request::header</text>
</a>
</g>
</g>
<!-- Node1&#45;&gt;Node7 -->
<g id="edge6_Node000001_Node000007" class="edge">
<title>Node1&#45;&gt;Node7</title>
<g id="a_edge6_Node000001_Node000007"><a xlink:title=" ">
<path fill="none" stroke="#63b8ff" d="M170.08,-182.29C189.32,-184.88 209.39,-187.57 227.36,-189.99"/>
<polygon fill="#63b8ff" stroke="#63b8ff" points="227.01,-193.47 237.39,-191.34 227.95,-186.54 227.01,-193.47"/>
</a>
</g>
</g>
<!-- Node8 -->
<g id="Node000008" class="node">
<title>Node8</title>
<g id="a_Node000008"><a xlink:href="classweb_1_1websocket_1_1client_1_1SocketContextUpgrade.html#aaddd51302d8ffb317cd986e16095fc9f" target="_top" xlink:title=" ">
<polygon fill="white" stroke="#666666" points="355,-164.5 221,-164.5 221,-123.5 355,-123.5 355,-164.5"/>
<text text-anchor="start" x="229" y="-152.5" font-family="Helvetica,sans-Serif" font-size="10.00">web::websocket::client</text>
<text text-anchor="start" x="229" y="-141.5" font-family="Helvetica,sans-Serif" font-size="10.00">::SocketContextUpgrade</text>
<text text-anchor="middle" x="288" y="-130.5" font-family="Helvetica,sans-Serif" font-size="10.00">::loadSubProtocol</text>
</a>
</g>
</g>
<!-- Node1&#45;&gt;Node8 -->
<g id="edge7_Node000001_Node000008" class="edge">
<title>Node1&#45;&gt;Node8</title>
<g id="a_edge7_Node000001_Node000008"><a xlink:title=" ">
<path fill="none" stroke="#63b8ff" d="M170.08,-159.71C183.62,-157.89 197.58,-156.01 210.92,-154.22"/>
<polygon fill="#63b8ff" stroke="#63b8ff" points="211.54,-157.67 220.99,-152.87 210.61,-150.73 211.54,-157.67"/>
</a>
</g>
</g>
<!-- Node13 -->
<g id="Node000013" class="node">
<title>Node13</title>
<g id="a_Node000013"><a xlink:href="namespacebase64.html#a43968536c5e19d8c265e17d08fd91c3e" target="_top" xlink:title=" ">
<polygon fill="white" stroke="#666666" points="368.5,-104.5 207.5,-104.5 207.5,-85.5 368.5,-85.5 368.5,-104.5"/>
<text text-anchor="middle" x="288" y="-92.5" font-family="Helvetica,sans-Serif" font-size="10.00">base64::serverWebSocketKey</text>
</a>
</g>
</g>
<!-- Node1&#45;&gt;Node13 -->
<g id="edge12_Node000001_Node000013" class="edge">
<title>Node1&#45;&gt;Node13</title>
<g id="a_edge12_Node000001_Node000013"><a xlink:title=" ">
<path fill="none" stroke="#63b8ff" d="M124.92,-150.48C148.02,-138.91 178.14,-124.83 206,-115 214.24,-112.09 223.09,-109.44 231.81,-107.1"/>
<polygon fill="#63b8ff" stroke="#63b8ff" points="232.75,-110.47 241.55,-104.57 231,-103.69 232.75,-110.47"/>
</a>
</g>
</g>
<!-- Node24 -->
<g id="Node000024" class="node">
<title>Node24</title>
<g id="a_Node000024"><a xlink:href="classweb_1_1websocket_1_1client_1_1SocketContextUpgrade.html#adead52712fdfcd3e8de56455d52818c8" target="_top" xlink:title=" ">
<polygon fill="white" stroke="#666666" points="355,-51.5 221,-51.5 221,-10.5 355,-10.5 355,-51.5"/>
<text text-anchor="start" x="229" y="-39.5" font-family="Helvetica,sans-Serif" font-size="10.00">web::websocket::client</text>
<text text-anchor="start" x="229" y="-28.5" font-family="Helvetica,sans-Serif" font-size="10.00">::SocketContextUpgrade</text>
<text text-anchor="middle" x="288" y="-17.5" font-family="Helvetica,sans-Serif" font-size="10.00">::SocketContextUpgrade</text>
</a>
</g>
</g>
<!-- Node1&#45;&gt;Node24 -->
<g id="edge25_Node000001_Node000024" class="edge">
<title>Node1&#45;&gt;Node24</title>
<g id="a_edge25_Node000001_Node000024"><a xlink:title=" ">
<path fill="none" stroke="#63b8ff" d="M110.02,-150.46C133.7,-130.63 171.27,-100.28 206,-77 216.49,-69.97 228.13,-62.94 239.22,-56.58"/>
<polygon fill="#63b8ff" stroke="#63b8ff" points="241,-59.59 247.98,-51.62 237.55,-53.5 241,-59.59"/>
</a>
</g>
</g>
<!-- Node3 -->
<g id="Node000003" class="node">
<title>Node3</title>
<g id="a_Node000003"><a xlink:href="classweb_1_1http_1_1client_1_1SocketContextUpgradeFactorySelector.html#aa0241fb31bc6bdb675652878fe8734af" target="_top" xlink:title=" ">
<polygon fill="white" stroke="#666666" points="576,-379.5 412,-379.5 412,-338.5 576,-338.5 576,-379.5"/>
<text text-anchor="start" x="420" y="-367.5" font-family="Helvetica,sans-Serif" font-size="10.00">web::http::client::</text>
<text text-anchor="start" x="420" y="-356.5" font-family="Helvetica,sans-Serif" font-size="10.00">SocketContextUpgradeFactory</text>
<text text-anchor="middle" x="494" y="-345.5" font-family="Helvetica,sans-Serif" font-size="10.00">Selector::instance</text>
</a>
</g>
</g>
<!-- Node2&#45;&gt;Node3 -->
<g id="edge2_Node000002_Node000003" class="edge">
<title>Node2&#45;&gt;Node3</title>
<g id="a_edge2_Node000002_Node000003"><a xlink:title=" ">
<path fill="none" stroke="#63b8ff" d="M360.06,-320.55C376.79,-325.39 394.74,-330.58 411.87,-335.54"/>
<polygon fill="#63b8ff" stroke="#63b8ff" points="411.27,-339.01 421.85,-338.42 413.21,-332.28 411.27,-339.01"/>
</a>
</g>
</g>
<!-- Node4 -->
<g id="Node000004" class="node">
<title>Node4</title>
<g id="a_Node000004"><a xlink:href="classweb_1_1http_1_1SocketContextUpgradeFactorySelector.html#a95a372b68288705669f80c5721eff016" target="_top" xlink:title=" ">
<polygon fill="white" stroke="#666666" points="563.5,-320.5 424.5,-320.5 424.5,-279.5 563.5,-279.5 563.5,-320.5"/>
<text text-anchor="start" x="432.5" y="-308.5" font-family="Helvetica,sans-Serif" font-size="10.00">web::http::SocketContext</text>
<text text-anchor="start" x="432.5" y="-297.5" font-family="Helvetica,sans-Serif" font-size="10.00">UpgradeFactorySelector</text>
<text text-anchor="middle" x="494" y="-286.5" font-family="Helvetica,sans-Serif" font-size="10.00">::unload</text>
</a>
</g>
</g>
<!-- Node2&#45;&gt;Node4 -->
<g id="edge3_Node000002_Node000004" class="edge">
<title>Node2&#45;&gt;Node4</title>
<g id="a_edge3_Node000002_Node000004"><a xlink:title=" ">
<path fill="none" stroke="#63b8ff" d="M370.21,-300C384.61,-300 399.58,-300 413.91,-300"/>
<polygon fill="#63b8ff" stroke="#63b8ff" points="414.22,-303.5 424.22,-300 414.22,-296.5 414.22,-303.5"/>
</a>
</g>
</g>
<!-- Node5 -->
<g id="Node000005" class="node">
<title>Node5</title>
<g id="a_Node000005"><a xlink:href="classcore_1_1DynamicLoader.html#aea517617ba189573803a8c3a4c5e9575" target="_top" xlink:title=" ">
<polygon fill="white" stroke="#666666" points="757,-315 637,-315 637,-285 757,-285 757,-315"/>
<text text-anchor="start" x="645" y="-303" font-family="Helvetica,sans-Serif" font-size="10.00">core::DynamicLoader</text>
<text text-anchor="middle" x="697" y="-292" font-family="Helvetica,sans-Serif" font-size="10.00">::dlCloseDelayed</text>
</a>
</g>
</g>
<!-- Node4&#45;&gt;Node5 -->
<g id="edge4_Node000004_Node000005" class="edge">
<title>Node4&#45;&gt;Node5</title>
<g id="a_edge4_Node000004_Node000005"><a xlink:title=" ">
<path fill="none" stroke="#63b8ff" d="M563.61,-300C583.94,-300 606.22,-300 626.6,-300"/>
<polygon fill="#63b8ff" stroke="#63b8ff" points="626.75,-303.5 636.75,-300 626.75,-296.5 626.75,-303.5"/>
</a>
</g>
</g>
<!-- Node9 -->
<g id="Node000009" class="node">
<title>Node9</title>
<g id="a_Node000009"><a xlink:href="classweb_1_1websocket_1_1SubProtocolFactory.html#aa084fb13e2b2f872daced31ab9751dc9" target="_top" xlink:title=" ">
<polygon fill="white" stroke="#666666" points="573,-261 415,-261 415,-231 573,-231 573,-261"/>
<text text-anchor="start" x="423" y="-249" font-family="Helvetica,sans-Serif" font-size="10.00">web::websocket::SubProtocol</text>
<text text-anchor="middle" x="494" y="-238" font-family="Helvetica,sans-Serif" font-size="10.00">Factory::createSubProtocol</text>
</a>
</g>
</g>
<!-- Node8&#45;&gt;Node9 -->
<g id="edge8_Node000008_Node000009" class="edge">
<title>Node8&#45;&gt;Node9</title>
<g id="a_edge8_Node000008_Node000009"><a xlink:title=" ">
<path fill="none" stroke="#63b8ff" d="M354.83,-164.58C360.17,-167.37 365.31,-170.5 370,-174 391.37,-189.95 383.96,-206.98 406,-222 408.29,-223.56 410.67,-225.02 413.14,-226.38"/>
<polygon fill="#63b8ff" stroke="#63b8ff" points="411.81,-229.63 422.33,-230.92 414.91,-223.35 411.81,-229.63"/>
</a>
</g>
</g>
<!-- Node11 -->
<g id="Node000011" class="node">
<title>Node11</title>
<g id="a_Node000011"><a xlink:href="classweb_1_1websocket_1_1client_1_1SubProtocolFactorySelector.html#ad8fb3cbccd230e0c0110b4465000aaa1" target="_top" xlink:title=" ">
<polygon fill="white" stroke="#666666" points="572,-212.5 416,-212.5 416,-171.5 572,-171.5 572,-212.5"/>
<text text-anchor="start" x="424" y="-200.5" font-family="Helvetica,sans-Serif" font-size="10.00">web::websocket::client</text>
<text text-anchor="start" x="424" y="-189.5" font-family="Helvetica,sans-Serif" font-size="10.00">::SubProtocolFactorySelector</text>
<text text-anchor="middle" x="494" y="-178.5" font-family="Helvetica,sans-Serif" font-size="10.00">::instance</text>
</a>
</g>
</g>
<!-- Node8&#45;&gt;Node11 -->
<g id="edge10_Node000008_Node000011" class="edge">
<title>Node8&#45;&gt;Node11</title>
<g id="a_edge10_Node000008_Node000011"><a xlink:title=" ">
<path fill="none" stroke="#63b8ff" d="M355.23,-159.58C371.38,-163.38 388.89,-167.5 405.84,-171.49"/>
<polygon fill="#63b8ff" stroke="#63b8ff" points="405.21,-174.94 415.75,-173.82 406.81,-168.13 405.21,-174.94"/>
</a>
</g>
</g>
<!-- Node12 -->
<g id="Node000012" class="node">
<title>Node12</title>
<g id="a_Node000012"><a xlink:href="classweb_1_1websocket_1_1SubProtocolFactorySelector.html#af0ecde506108cbb3b84b43d81a3c923e" target="_top" xlink:title=" ">
<polygon fill="white" stroke="#666666" points="573,-153 415,-153 415,-123 573,-123 573,-153"/>
<text text-anchor="start" x="423" y="-141" font-family="Helvetica,sans-Serif" font-size="10.00">web::websocket::SubProtocol</text>
<text text-anchor="middle" x="494" y="-130" font-family="Helvetica,sans-Serif" font-size="10.00">FactorySelector::select</text>
</a>
</g>
</g>
<!-- Node8&#45;&gt;Node12 -->
<g id="edge11_Node000008_Node000012" class="edge">
<title>Node8&#45;&gt;Node12</title>
<g id="a_edge11_Node000008_Node000012"><a xlink:title=" ">
<path fill="none" stroke="#63b8ff" d="M355.23,-142.05C370.94,-141.59 387.94,-141.09 404.46,-140.6"/>
<polygon fill="#63b8ff" stroke="#63b8ff" points="404.77,-144.1 414.67,-140.3 404.57,-137.1 404.77,-144.1"/>
</a>
</g>
</g>
<!-- Node10 -->
<g id="Node000010" class="node">
<title>Node10</title>
<g id="a_Node000010"><a xlink:href="classweb_1_1websocket_1_1SubProtocolFactory.html#a0c9c76956769d386f4b1b52da5c5fd44" target="_top" xlink:title=" ">
<polygon fill="white" stroke="#666666" points="776,-261 618,-261 618,-231 776,-231 776,-261"/>
<text text-anchor="start" x="626" y="-249" font-family="Helvetica,sans-Serif" font-size="10.00">web::websocket::SubProtocol</text>
<text text-anchor="middle" x="697" y="-238" font-family="Helvetica,sans-Serif" font-size="10.00">Factory::create</text>
</a>
</g>
</g>
<!-- Node9&#45;&gt;Node10 -->
<g id="edge9_Node000009_Node000010" class="edge">
<title>Node9&#45;&gt;Node10</title>
<g id="a_edge9_Node000009_Node000010"><a xlink:title=" ">
<path fill="none" stroke="#63b8ff" d="M573.29,-246C584.63,-246 596.36,-246 607.88,-246"/>
<polygon fill="#63b8ff" stroke="#63b8ff" points="607.93,-249.5 617.93,-246 607.93,-242.5 607.93,-249.5"/>
</a>
</g>
</g>
<!-- Node14 -->
<g id="Node000014" class="node">
<title>Node14</title>
<g id="a_Node000014"><a xlink:href="namespacebase64.html#af19189e96ecbd4de55806b9b705f7374" target="_top" xlink:title=" ">
<polygon fill="white" stroke="#666666" points="561,-104.5 427,-104.5 427,-85.5 561,-85.5 561,-104.5"/>
<text text-anchor="middle" x="494" y="-92.5" font-family="Helvetica,sans-Serif" font-size="10.00">base64::base64_encode</text>
</a>
</g>
</g>
<!-- Node13&#45;&gt;Node14 -->
<g id="edge13_Node000013_Node000014" class="edge">
<title>Node13&#45;&gt;Node14</title>
<g id="a_edge13_Node000013_Node000014"><a xlink:title=" ">
<path fill="none" stroke="#63b8ff" d="M368.75,-95C384.52,-95 401.03,-95 416.68,-95"/>
<polygon fill="#63b8ff" stroke="#63b8ff" points="416.82,-98.5 426.82,-95 416.82,-91.5 416.82,-98.5"/>
</a>
</g>
</g>
<!-- Node15 -->
<g id="Node000015" class="node">
<title>Node15</title>
<g id="a_Node000015"><a xlink:href="namespaceutils.html#a4ba067c99edff8bcc98aab55a4ddc814" target="_top" xlink:title=" ">
<polygon fill="white" stroke="#666666" points="527.5,-67.5 460.5,-67.5 460.5,-48.5 527.5,-48.5 527.5,-67.5"/>
<text text-anchor="middle" x="494" y="-55.5" font-family="Helvetica,sans-Serif" font-size="10.00">utils::sha1</text>
</a>
</g>
</g>
<!-- Node13&#45;&gt;Node15 -->
<g id="edge14_Node000013_Node000015" class="edge">
<title>Node13&#45;&gt;Node15</title>
<g id="a_edge14_Node000013_Node000015"><a xlink:title=" ">
<path fill="none" stroke="#63b8ff" d="M341.54,-85.47C375.41,-79.33 418.89,-71.44 450.57,-65.7"/>
<polygon fill="#63b8ff" stroke="#63b8ff" points="451.2,-69.14 460.41,-63.91 449.95,-62.25 451.2,-69.14"/>
</a>
</g>
</g>
<!-- Node16 -->
<g id="Node000016" class="node">
<title>Node16</title>
<g id="a_Node000016"><a xlink:href="classutils_1_1SHA1.html#abbb3d15120364a4f1996c3c2c587feba" target="_top" xlink:title=" ">
<polygon fill="white" stroke="#666666" points="916,-107.5 818,-107.5 818,-88.5 916,-88.5 916,-107.5"/>
<text text-anchor="middle" x="867" y="-95.5" font-family="Helvetica,sans-Serif" font-size="10.00">utils::SHA1::final</text>
</a>
</g>
</g>
<!-- Node15&#45;&gt;Node16 -->
<g id="edge15_Node000015_Node000016" class="edge">
<title>Node15&#45;&gt;Node16</title>
<g id="a_edge15_Node000015_Node000016"><a xlink:title=" ">
<path fill="none" stroke="#63b8ff" d="M527.55,-63.65C552.29,-67.8 587.21,-73.32 618,-77 682.83,-84.74 757.52,-90.66 807.85,-94.21"/>
<polygon fill="#63b8ff" stroke="#63b8ff" points="807.67,-97.71 817.89,-94.91 808.16,-90.72 807.67,-97.71"/>
</a>
</g>
</g>
<!-- Node20 -->
<g id="Node000020" class="node">
<title>Node20</title>
<g id="a_Node000020"><a xlink:href="namespaceutils.html#a4d92cb87a59c2c9265e21a19d0587db2" target="_top" xlink:title=" ">
<polygon fill="white" stroke="#666666" points="750.5,-30 643.5,-30 643.5,0 750.5,0 750.5,-30"/>
<text text-anchor="start" x="651.5" y="-18" font-family="Helvetica,sans-Serif" font-size="10.00">utils::transform_to</text>
<text text-anchor="middle" x="697" y="-7" font-family="Helvetica,sans-Serif" font-size="10.00">_binary</text>
</a>
</g>
</g>
<!-- Node15&#45;&gt;Node20 -->
<g id="edge19_Node000015_Node000020" class="edge">
<title>Node15&#45;&gt;Node20</title>
<g id="a_edge19_Node000015_Node000020"><a xlink:title=" ">
<path fill="none" stroke="#63b8ff" d="M527.74,-51C556.19,-44.91 598.2,-35.92 633.13,-28.45"/>
<polygon fill="#63b8ff" stroke="#63b8ff" points="634.2,-31.8 643.24,-26.29 632.73,-24.96 634.2,-31.8"/>
</a>
</g>
</g>
<!-- Node21 -->
<g id="Node000021" class="node">
<title>Node21</title>
<g id="a_Node000021"><a xlink:href="classutils_1_1SHA1.html#af6e891be7b82b349aeff21a74e60a41e" target="_top" xlink:title=" ">
<polygon fill="white" stroke="#666666" points="752,-67.5 642,-67.5 642,-48.5 752,-48.5 752,-67.5"/>
<text text-anchor="middle" x="697" y="-55.5" font-family="Helvetica,sans-Serif" font-size="10.00">utils::SHA1::update</text>
</a>
</g>
</g>
<!-- Node15&#45;&gt;Node21 -->
<g id="edge20_Node000015_Node000021" class="edge">
<title>Node15&#45;&gt;Node21</title>
<g id="a_edge20_Node000015_Node000021"><a xlink:title=" ">
<path fill="none" stroke="#63b8ff" d="M527.74,-58C555.79,-58 597.01,-58 631.63,-58"/>
<polygon fill="#63b8ff" stroke="#63b8ff" points="631.67,-61.5 641.67,-58 631.67,-54.5 631.67,-61.5"/>
</a>
</g>
</g>
<!-- Node17 -->
<g id="Node000017" class="node">
<title>Node17</title>
<g id="a_Node000017"><a xlink:href="classutils_1_1SHA1.html#aea82a6fa79469fdcea9f9213abbf9750" target="_top" xlink:title=" ">
<polygon fill="white" stroke="#666666" points="1072.5,-114 967.5,-114 967.5,-84 1072.5,-84 1072.5,-114"/>
<text text-anchor="start" x="975.5" y="-102" font-family="Helvetica,sans-Serif" font-size="10.00">utils::SHA1::buffer</text>
<text text-anchor="middle" x="1020" y="-91" font-family="Helvetica,sans-Serif" font-size="10.00">_to_block</text>
</a>
</g>
</g>
<!-- Node16&#45;&gt;Node17 -->
<g id="edge16_Node000016_Node000017" class="edge">
<title>Node16&#45;&gt;Node17</title>
<g id="a_edge16_Node000016_Node000017"><a xlink:title=" ">
<path fill="none" stroke="#63b8ff" d="M916.19,-98.32C929.19,-98.41 943.44,-98.5 957.08,-98.59"/>
<polygon fill="#63b8ff" stroke="#63b8ff" points="957.33,-102.09 967.35,-98.66 957.38,-95.09 957.33,-102.09"/>
</a>
</g>
</g>
<!-- Node18 -->
<g id="Node000018" class="node">
<title>Node18</title>
<g id="a_Node000018"><a xlink:href="classutils_1_1SHA1.html#ab83fa688762520a6d28657ebf61e0cef" target="_top" xlink:title=" ">
<polygon fill="white" stroke="#666666" points="1070.5,-151.5 969.5,-151.5 969.5,-132.5 1070.5,-132.5 1070.5,-151.5"/>
<text text-anchor="middle" x="1020" y="-139.5" font-family="Helvetica,sans-Serif" font-size="10.00">utils::SHA1::reset</text>
</a>
</g>
</g>
<!-- Node16&#45;&gt;Node18 -->
<g id="edge17_Node000016_Node000018" class="edge">
<title>Node16&#45;&gt;Node18</title>
<g id="a_edge17_Node000016_Node000018"><a xlink:title=" ">
<path fill="none" stroke="#63b8ff" d="M900.76,-107.55C922.93,-114.01 952.41,-122.6 976.4,-129.59"/>
<polygon fill="#63b8ff" stroke="#63b8ff" points="975.72,-133.03 986.3,-132.47 977.68,-126.31 975.72,-133.03"/>
</a>
</g>
</g>
<!-- Node19 -->
<g id="Node000019" class="node">
<title>Node19</title>
<g id="a_Node000019"><a xlink:href="classutils_1_1SHA1.html#a97ae9b6599c4556606ef51f9c7e81d75" target="_top" xlink:title=" ">
<polygon fill="white" stroke="#666666" points="1082,-65.5 958,-65.5 958,-46.5 1082,-46.5 1082,-65.5"/>
<text text-anchor="middle" x="1020" y="-53.5" font-family="Helvetica,sans-Serif" font-size="10.00">utils::SHA1::transform</text>
</a>
</g>
</g>
<!-- Node16&#45;&gt;Node19 -->
<g id="edge18_Node000016_Node000019" class="edge">
<title>Node16&#45;&gt;Node19</title>
<g id="a_edge18_Node000016_Node000019"><a xlink:title=" ">
<path fill="none" stroke="#63b8ff" d="M902.26,-88.47C923.71,-82.5 951.57,-74.75 974.69,-68.32"/>
<polygon fill="#63b8ff" stroke="#63b8ff" points="975.91,-71.62 984.61,-65.57 974.04,-64.87 975.91,-71.62"/>
</a>
</g>
</g>
<!-- Node22 -->
<g id="Node000022" class="node">
<title>Node22</title>
<g id="a_Node000022"><a xlink:href="classutils_1_1SHA1.html#ac600cb1269027e334eaac5f6bd3e451b" target="_top" xlink:title=" ">
<polygon fill="white" stroke="#666666" points="922,-67.5 812,-67.5 812,-48.5 922,-48.5 922,-67.5"/>
<text text-anchor="middle" x="867" y="-55.5" font-family="Helvetica,sans-Serif" font-size="10.00">utils::SHA1::update</text>
</a>
</g>
</g>
<!-- Node21&#45;&gt;Node22 -->
<g id="edge21_Node000021_Node000022" class="edge">
<title>Node21&#45;&gt;Node22</title>
<g id="a_edge21_Node000021_Node000022"><a xlink:title=" ">
<path fill="none" stroke="#63b8ff" d="M752.08,-58C767.89,-58 785.32,-58 801.7,-58"/>
<polygon fill="#63b8ff" stroke="#63b8ff" points="801.73,-61.5 811.73,-58 801.73,-54.5 801.73,-61.5"/>
</a>
</g>
</g>
<!-- Node22&#45;&gt;Node17 -->
<g id="edge22_Node000022_Node000017" class="edge">
<title>Node22&#45;&gt;Node17</title>
<g id="a_edge22_Node000022_Node000017"><a xlink:title=" ">
<path fill="none" stroke="#63b8ff" d="M903.02,-67.51C919.2,-71.9 938.89,-77.25 957.42,-82.28"/>
<polygon fill="#63b8ff" stroke="#63b8ff" points="956.7,-85.71 967.27,-84.95 958.54,-78.96 956.7,-85.71"/>
</a>
</g>
</g>
<!-- Node22&#45;&gt;Node19 -->
<g id="edge24_Node000022_Node000019" class="edge">
<title>Node22&#45;&gt;Node19</title>
<g id="a_edge24_Node000022_Node000019"><a xlink:title=" ">
<path fill="none" stroke="#63b8ff" d="M922.09,-57.28C930.42,-57.17 939.13,-57.06 947.77,-56.94"/>
<polygon fill="#63b8ff" stroke="#63b8ff" points="947.9,-60.44 957.85,-56.81 947.8,-53.44 947.9,-60.44"/>
</a>
</g>
</g>
<!-- Node23 -->
<g id="Node000023" class="node">
<title>Node23</title>
<g id="a_Node000023"><a xlink:href="classutils_1_1SHA1.html#ac0bd8733e458183c7097099a19cf0ad9" target="_top" xlink:title=" ">
<polygon fill="white" stroke="#666666" points="1069,-28.5 971,-28.5 971,-9.5 1069,-9.5 1069,-28.5"/>
<text text-anchor="middle" x="1020" y="-16.5" font-family="Helvetica,sans-Serif" font-size="10.00">utils::SHA1::read</text>
</a>
</g>
</g>
<!-- Node22&#45;&gt;Node23 -->
<g id="edge23_Node000022_Node000023" class="edge">
<title>Node22&#45;&gt;Node23</title>
<g id="a_edge23_Node000022_Node000023"><a xlink:title=" ">
<path fill="none" stroke="#63b8ff" d="M904.94,-48.46C925.21,-43.22 950.56,-36.68 972.21,-31.08"/>
<polygon fill="#63b8ff" stroke="#63b8ff" points="973.37,-34.4 982.18,-28.51 971.62,-27.62 973.37,-34.4"/>
</a>
</g>
</g>
<!-- Node25 -->
<g id="Node000025" class="node">
<title>Node25</title>
<g id="a_Node000025"><a xlink:href="classweb_1_1websocket_1_1SocketContextUpgrade.html#ab2d28eedc3f673e3a825b5b74727a75d" target="_top" xlink:title=" ">
<polygon fill="white" stroke="#666666" points="582,-30 406,-30 406,0 582,0 582,-30"/>
<text text-anchor="start" x="414" y="-18" font-family="Helvetica,sans-Serif" font-size="10.00">web::websocket::SocketContext</text>
<text text-anchor="middle" x="494" y="-7" font-family="Helvetica,sans-Serif" font-size="10.00">Upgrade::SocketContextUpgrade</text>
</a>
</g>
</g>
<!-- Node24&#45;&gt;Node25 -->
<g id="edge26_Node000024_Node000025" class="edge">
<title>Node24&#45;&gt;Node25</title>
<g id="a_edge26_Node000024_Node000025"><a xlink:title=" ">
<path fill="none" stroke="#63b8ff" d="M355.23,-25.81C368.25,-24.78 382.15,-23.69 395.93,-22.61"/>
<polygon fill="#63b8ff" stroke="#63b8ff" points="396.23,-26.1 405.93,-21.83 395.69,-19.12 396.23,-26.1"/>
</a>
</g>
</g>
</g>
</svg>
