<?xml version="1.0" encoding="UTF-8" standalone="no"?>
<!DOCTYPE svg PUBLIC "-//W3C//DTD SVG 1.1//EN"
 "http://www.w3.org/Graphics/SVG/1.1/DTD/svg11.dtd">
<!-- Generated by graphviz version 14.1.1 (0)
 -->
<!-- Title: iot::mqtt::server::broker::Broker::isActiveSession Pages: 1 -->
<svg width="362pt" height="94pt"
 viewBox="0.00 0.00 362.00 94.00" xmlns="http://www.w3.org/2000/svg" xmlns:xlink="http://www.w3.org/1999/xlink">
<g id="graph0" class="graph" transform="scale(1 1) rotate(0) translate(4 89.5)">
<title>iot::mqtt::server::broker::Broker::isActiveSession</title>
<!-- Node1 -->
<g id="Node000001" class="node">
<title>Node1</title>
<g id="a_Node000001"><a xlink:title=" ">
<polygon fill="#999999" stroke="#666666" points="166.75,-59.5 0,-59.5 0,-26 166.75,-26 166.75,-59.5"/>
<text xml:space="preserve" text-anchor="start" x="8" y="-46" font-family="Helvetica,sans-Serif" font-size="10.00">iot::mqtt::server::</text>
<text xml:space="preserve" text-anchor="middle" x="83.38" y="-33.25" font-family="Helvetica,sans-Serif" font-size="10.00">broker::Broker::isActiveSession</text>
</a>
</g>
</g>
<!-- Node2 -->
<g id="Node000002" class="node">
<title>Node2</title>
<g id="a_Node000002"><a xlink:href="classiot_1_1mqtt_1_1server_1_1broker_1_1Broker.html#a7adc3607c5da7096fd38778d22da7e9c" target="_top" xlink:title=" ">
<polygon fill="white" stroke="#666666" points="350.75,-85.5 205.75,-85.5 205.75,-52 350.75,-52 350.75,-85.5"/>
<text xml:space="preserve" text-anchor="start" x="213.75" y="-72" font-family="Helvetica,sans-Serif" font-size="10.00">iot::mqtt::server::</text>
<text xml:space="preserve" text-anchor="middle" x="278.25" y="-59.25" font-family="Helvetica,sans-Serif" font-size="10.00">broker::Broker::hasSession</text>
</a>
</g>
</g>
<!-- Node1&#45;&gt;Node2 -->
<g id="edge1_Node000001_Node000002" class="edge">
<title>Node1&#45;&gt;Node2</title>
<g id="a_edge1_Node000001_Node000002"><a xlink:title=" ">
<path fill="none" stroke="#63b8ff" d="M167.01,-53.89C176,-55.1 185.15,-56.33 194.14,-57.55"/>
<polygon fill="#63b8ff" stroke="#63b8ff" points="193.54,-61 203.92,-58.86 194.48,-54.06 193.54,-61"/>
</a>
</g>
</g>
<!-- Node3 -->
<g id="Node000003" class="node">
<title>Node3</title>
<g id="a_Node000003"><a xlink:href="classiot_1_1mqtt_1_1server_1_1broker_1_1Session.html#ad78684d431782a61f70c6425963975bc" target="_top" xlink:title=" ">
<polygon fill="white" stroke="#666666" points="353.75,-33.5 202.75,-33.5 202.75,0 353.75,0 353.75,-33.5"/>
<text xml:space="preserve" text-anchor="start" x="210.75" y="-20" font-family="Helvetica,sans-Serif" font-size="10.00">iot::mqtt::server::</text>
<text xml:space="preserve" text-anchor="middle" x="278.25" y="-7.25" font-family="Helvetica,sans-Serif" font-size="10.00">broker::Session::isOwnedBy</text>
</a>
</g>
</g>
<!-- Node1&#45;&gt;Node3 -->
<g id="edge2_Node000001_Node000003" class="edge">
<title>Node1&#45;&gt;Node3</title>
<g id="a_edge2_Node000001_Node000003"><a xlink:title=" ">
<path fill="none" stroke="#63b8ff" d="M167.01,-31.61C175,-30.53 183.12,-29.44 191.15,-28.36"/>
<polygon fill="#63b8ff" stroke="#63b8ff" points="191.46,-31.85 200.91,-27.04 190.53,-24.91 191.46,-31.85"/>
</a>
</g>
</g>
</g>
</svg>
