<?xml version="1.0" encoding="UTF-8" standalone="no"?>
<!DOCTYPE svg PUBLIC "-//W3C//DTD SVG 1.1//EN"
 "http://www.w3.org/Graphics/SVG/1.1/DTD/svg11.dtd">
<!-- Generated by graphviz version 14.1.1 (0)
 -->
<!-- Title: express::Request Pages: 1 -->
<svg width="668pt" height="641pt"
 viewBox="0.00 0.00 668.00 641.00" xmlns="http://www.w3.org/2000/svg" xmlns:xlink="http://www.w3.org/1999/xlink">
<g id="graph0" class="graph" transform="scale(1 1) rotate(0) translate(4 636.5)">
<title>express::Request</title>
<!-- Node1 -->
<g id="Node000001" class="node">
<title>Node1</title>
<g id="a_Node000001"><a xlink:title=" ">
<polygon fill="#999999" stroke="none" points="418.12,-20.75 326.12,-20.75 326.12,0 418.12,0 418.12,-20.75"/>
<text xml:space="preserve" text-anchor="start" x="330.12" y="-7.25" font-family="Helvetica,sans-Serif" font-size="10.00">express::Request</text>
<polygon fill="none" stroke="#666666" points="326.12,0 326.12,-20.75 418.12,-20.75 418.12,0 326.12,0"/>
</a>
</g>
</g>
<!-- Node2 -->
<g id="Node000002" class="node">
<title>Node2</title>
<g id="a_Node000002"><a xlink:href="classutils_1_1MultibleAttributeInjector.html" target="_top" xlink:title=" ">
<polygon fill="white" stroke="none" points="166.88,-109 49.38,-109 49.38,-75.5 166.88,-75.5 166.88,-109"/>
<text xml:space="preserve" text-anchor="start" x="53.38" y="-95.5" font-family="Helvetica,sans-Serif" font-size="10.00">utils::MultibleAttribute</text>
<text xml:space="preserve" text-anchor="start" x="89.75" y="-82.75" font-family="Helvetica,sans-Serif" font-size="10.00">Injector</text>
<polygon fill="none" stroke="#666666" points="49.38,-75.5 49.38,-109 166.88,-109 166.88,-75.5 49.38,-75.5"/>
</a>
</g>
</g>
<!-- Node2&#45;&gt;Node1 -->
<g id="edge1_Node000001_Node000002" class="edge">
<title>Node2&#45;&gt;Node1</title>
<g id="a_edge1_Node000001_Node000002"><a xlink:title=" ">
<path fill="none" stroke="#63b8ff" d="M134.04,-68.56C147.73,-57.8 165.36,-45.79 183.12,-38.75 229.67,-20.31 287.06,-14.1 326.31,-12.1"/>
<polygon fill="none" stroke="#63b8ff" points="131.95,-65.75 126.4,-74.77 136.37,-71.17 131.95,-65.75"/>
</a>
</g>
</g>
<!-- Node3 -->
<g id="Node000003" class="node">
<title>Node3</title>
<g id="a_Node000003"><a xlink:title=" ">
<polygon fill="white" stroke="none" points="169.38,-331.25 30.88,-331.25 30.88,-297.75 169.38,-297.75 169.38,-331.25"/>
<text xml:space="preserve" text-anchor="start" x="34.88" y="-317.75" font-family="Helvetica,sans-Serif" font-size="10.00">std::map&lt; std::string,</text>
<text xml:space="preserve" text-anchor="start" x="34.88" y="-305" font-family="Helvetica,sans-Serif" font-size="10.00"> std::shared_ptr&lt; void &gt; &gt;</text>
<polygon fill="none" stroke="#666666" points="30.88,-297.75 30.88,-331.25 169.38,-331.25 169.38,-297.75 30.88,-297.75"/>
</a>
</g>
</g>
<!-- Node3&#45;&gt;Node2 -->
<g id="edge2_Node000002_Node000003" class="edge">
<title>Node3&#45;&gt;Node2</title>
<g id="a_edge2_Node000002_Node000003"><a xlink:title=" ">
<path fill="none" stroke="#63b8ff" d="M100.69,-298.01C102.02,-261.28 105.39,-168.48 107.1,-121.47"/>
<polygon fill="none" stroke="#63b8ff" points="107.09,-121.61 103.32,-115.47 107.53,-109.62 111.31,-115.76 107.09,-121.61"/>
</a>
</g>
<text xml:space="preserve" text-anchor="start" x="109.78" y="-200.25" font-family="Helvetica,sans-Serif" font-size="10.00" fill="grey">&#45;attributes</text>
</g>
<!-- Node4 -->
<g id="Node000004" class="node">
<title>Node4</title>
<g id="a_Node000004"><a xlink:title=" ">
<polygon fill="white" stroke="none" points="244.5,-480.12 187.75,-480.12 187.75,-459.38 244.5,-459.38 244.5,-480.12"/>
<text xml:space="preserve" text-anchor="start" x="191.75" y="-466.62" font-family="Helvetica,sans-Serif" font-size="10.00">std::string</text>
<polygon fill="none" stroke="#666666" points="187.75,-459.38 187.75,-480.12 244.5,-480.12 244.5,-459.38 187.75,-459.38"/>
</a>
</g>
</g>
<!-- Node4&#45;&gt;Node1 -->
<g id="edge6_Node000001_Node000004" class="edge">
<title>Node4&#45;&gt;Node1</title>
<g id="a_edge6_Node000001_Node000004"><a xlink:title=" ">
<path fill="none" stroke="#63b8ff" d="M214.24,-459.53C204.53,-411.21 161.88,-187.03 193.38,-127 221.27,-73.83 285.75,-41.58 329.14,-25.11"/>
<polygon fill="none" stroke="#63b8ff" points="329.2,-25.09 333.47,-19.28 340.48,-20.99 336.2,-26.8 329.2,-25.09"/>
</a>
</g>
<text xml:space="preserve" text-anchor="start" x="196.38" y="-267.25" font-family="Helvetica,sans-Serif" font-size="10.00" fill="grey">+baseUrl</text>
<text xml:space="preserve" text-anchor="start" x="196.38" y="-250.5" font-family="Helvetica,sans-Serif" font-size="10.00" fill="grey">+file</text>
<text xml:space="preserve" text-anchor="start" x="196.38" y="-233.75" font-family="Helvetica,sans-Serif" font-size="10.00" fill="grey">+httpVersion</text>
<text xml:space="preserve" text-anchor="start" x="196.38" y="-217" font-family="Helvetica,sans-Serif" font-size="10.00" fill="grey">+method</text>
<text xml:space="preserve" text-anchor="start" x="196.38" y="-200.25" font-family="Helvetica,sans-Serif" font-size="10.00" fill="grey">+originalPath</text>
<text xml:space="preserve" text-anchor="start" x="196.38" y="-183.5" font-family="Helvetica,sans-Serif" font-size="10.00" fill="grey">+originalUrl</text>
<text xml:space="preserve" text-anchor="start" x="196.38" y="-166.75" font-family="Helvetica,sans-Serif" font-size="10.00" fill="grey">+path</text>
<text xml:space="preserve" text-anchor="start" x="196.38" y="-150" font-family="Helvetica,sans-Serif" font-size="10.00" fill="grey">+url</text>
<text xml:space="preserve" text-anchor="start" x="196.38" y="-133.25" font-family="Helvetica,sans-Serif" font-size="10.00" fill="grey">&#45;nullstr</text>
</g>
<!-- Node4&#45;&gt;Node3 -->
<g id="edge3_Node000003_Node000004" class="edge">
<title>Node4&#45;&gt;Node3</title>
<g id="a_edge3_Node000003_Node000004"><a xlink:title=" ">
<path fill="none" stroke="#63b8ff" d="M187.76,-461.2C173.45,-456.02 156.94,-447.74 146.38,-435 121.17,-404.61 139.64,-385.12 123.12,-349.25 121.99,-346.78 120.68,-344.3 119.27,-341.86"/>
<polygon fill="none" stroke="#63b8ff" points="119.26,-341.83 112.64,-338.95 112.76,-331.74 119.37,-334.62 119.26,-341.83"/>
</a>
</g>
<text xml:space="preserve" text-anchor="start" x="149.38" y="-389" font-family="Helvetica,sans-Serif" font-size="10.00" fill="grey">+keys</text>
</g>
<!-- Node7 -->
<g id="Node000007" class="node">
<title>Node7</title>
<g id="a_Node000007"><a xlink:title=" ">
<polygon fill="white" stroke="none" points="389,-220.12 275.25,-220.12 275.25,-186.62 389,-186.62 389,-220.12"/>
<text xml:space="preserve" text-anchor="start" x="279.25" y="-206.62" font-family="Helvetica,sans-Serif" font-size="10.00">std::map&lt; std::string,</text>
<text xml:space="preserve" text-anchor="start" x="300.62" y="-193.88" font-family="Helvetica,sans-Serif" font-size="10.00"> std::string &gt;</text>
<polygon fill="none" stroke="#666666" points="275.25,-186.62 275.25,-220.12 389,-220.12 389,-186.62 275.25,-186.62"/>
</a>
</g>
</g>
<!-- Node4&#45;&gt;Node7 -->
<g id="edge8_Node000007_Node000004" class="edge">
<title>Node4&#45;&gt;Node7</title>
<g id="a_edge8_Node000007_Node000004"><a xlink:title=" ">
<path fill="none" stroke="#63b8ff" d="M215.92,-459.39C215.77,-438.76 217.12,-388.11 232.12,-349.25 241.86,-324.04 285.87,-264.52 312.16,-230.12"/>
<polygon fill="none" stroke="#63b8ff" points="312.14,-230.15 312.62,-222.95 319.45,-220.63 318.97,-227.82 312.14,-230.15"/>
</a>
</g>
<text xml:space="preserve" text-anchor="start" x="235.12" y="-397.38" font-family="Helvetica,sans-Serif" font-size="10.00" fill="grey">+elements</text>
<text xml:space="preserve" text-anchor="start" x="235.12" y="-380.62" font-family="Helvetica,sans-Serif" font-size="10.00" fill="grey">+keys</text>
</g>
<!-- Node9 -->
<g id="Node000009" class="node">
<title>Node9</title>
<g id="a_Node000009"><a xlink:href="classweb_1_1http_1_1server_1_1Request.html" target="_top" xlink:title=" ">
<polygon fill="white" stroke="none" points="469.38,-331.25 372.88,-331.25 372.88,-297.75 469.38,-297.75 469.38,-331.25"/>
<text xml:space="preserve" text-anchor="start" x="376.88" y="-317.75" font-family="Helvetica,sans-Serif" font-size="10.00">web::http::server::</text>
<text xml:space="preserve" text-anchor="start" x="401.25" y="-305" font-family="Helvetica,sans-Serif" font-size="10.00">Request</text>
<polygon fill="none" stroke="#666666" points="372.88,-297.75 372.88,-331.25 469.38,-331.25 469.38,-297.75 372.88,-297.75"/>
</a>
</g>
</g>
<!-- Node4&#45;&gt;Node9 -->
<g id="edge11_Node000009_Node000004" class="edge">
<title>Node4&#45;&gt;Node9</title>
<g id="a_edge11_Node000009_Node000004"><a xlink:title=" ">
<path fill="none" stroke="#63b8ff" d="M244.33,-462.55C261.2,-457.58 282.03,-449.05 296.12,-435 325.46,-405.76 302.78,-377.98 332.62,-349.25 340.72,-341.46 350.79,-335.43 361.21,-330.76"/>
<polygon fill="none" stroke="#63b8ff" points="361.05,-330.83 365.15,-324.89 372.2,-326.4 368.1,-332.33 361.05,-330.83"/>
</a>
</g>
<text xml:space="preserve" text-anchor="start" x="335.62" y="-422.5" font-family="Helvetica,sans-Serif" font-size="10.00" fill="grey">+httpVersion</text>
<text xml:space="preserve" text-anchor="start" x="335.62" y="-405.75" font-family="Helvetica,sans-Serif" font-size="10.00" fill="grey">+method</text>
<text xml:space="preserve" text-anchor="start" x="335.62" y="-389" font-family="Helvetica,sans-Serif" font-size="10.00" fill="grey">+url</text>
<text xml:space="preserve" text-anchor="start" x="335.62" y="-372.25" font-family="Helvetica,sans-Serif" font-size="10.00" fill="grey">&#45;nullstr</text>
<text xml:space="preserve" text-anchor="start" x="335.62" y="-355.5" font-family="Helvetica,sans-Serif" font-size="10.00" fill="grey">&#45;reason</text>
</g>
<!-- Node5 -->
<g id="Node000005" class="node">
<title>Node5</title>
<g id="a_Node000005"><a xlink:title=" ">
<polygon fill="white" stroke="none" points="264,-557 168.25,-557 168.25,-523.5 264,-523.5 264,-557"/>
<text xml:space="preserve" text-anchor="start" x="172.25" y="-543.5" font-family="Helvetica,sans-Serif" font-size="10.00">std::basic_string&lt;</text>
<text xml:space="preserve" text-anchor="start" x="197.75" y="-530.75" font-family="Helvetica,sans-Serif" font-size="10.00"> Char &gt;</text>
<polygon fill="none" stroke="#666666" points="168.25,-523.5 168.25,-557 264,-557 264,-523.5 168.25,-523.5"/>
</a>
</g>
</g>
<!-- Node5&#45;&gt;Node4 -->
<g id="edge4_Node000004_Node000005" class="edge">
<title>Node5&#45;&gt;Node4</title>
<g id="a_edge4_Node000004_Node000005"><a xlink:title=" ">
<path fill="none" stroke="#63b8ff" d="M216.12,-512.45C216.12,-501.03 216.12,-488.44 216.12,-480.12"/>
<polygon fill="none" stroke="#63b8ff" points="212.63,-512.19 216.13,-522.19 219.63,-512.19 212.63,-512.19"/>
</a>
</g>
</g>
<!-- Node6 -->
<g id="Node000006" class="node">
<title>Node6</title>
<g id="a_Node000006"><a xlink:title=" ">
<polygon fill="white" stroke="none" points="124.25,-480.12 0,-480.12 0,-459.38 124.25,-459.38 124.25,-480.12"/>
<text xml:space="preserve" text-anchor="start" x="4" y="-466.62" font-family="Helvetica,sans-Serif" font-size="10.00">std::shared_ptr&lt; void &gt;</text>
<polygon fill="none" stroke="#666666" points="0,-459.38 0,-480.12 124.25,-480.12 124.25,-459.38 0,-459.38"/>
</a>
</g>
</g>
<!-- Node6&#45;&gt;Node3 -->
<g id="edge5_Node000003_Node000006" class="edge">
<title>Node6&#45;&gt;Node3</title>
<g id="a_edge5_Node000003_Node000006"><a xlink:title=" ">
<path fill="none" stroke="#63b8ff" d="M59.82,-459.54C55.11,-438.76 46.21,-387.14 63.12,-349.25 64.54,-346.08 66.41,-343.09 68.56,-340.28"/>
<polygon fill="none" stroke="#63b8ff" points="68.44,-340.41 69.63,-333.3 76.65,-331.66 75.46,-338.77 68.44,-340.41"/>
</a>
</g>
<text xml:space="preserve" text-anchor="start" x="66.12" y="-389" font-family="Helvetica,sans-Serif" font-size="10.00" fill="grey">+elements</text>
</g>
<!-- Node7&#45;&gt;Node1 -->
<g id="edge7_Node000001_Node000007" class="edge">
<title>Node7&#45;&gt;Node1</title>
<g id="a_edge7_Node000001_Node000007"><a xlink:title=" ">
<path fill="none" stroke="#63b8ff" d="M325.4,-186.98C315.73,-162.54 300.59,-113.72 315.12,-75.5 322.14,-57.04 337.18,-40.51 350.04,-28.85"/>
<polygon fill="none" stroke="#63b8ff" points="349.89,-28.98 351.86,-22.04 359.02,-21.19 357.05,-28.13 349.89,-28.98"/>
</a>
</g>
<text xml:space="preserve" text-anchor="start" x="318.12" y="-89.12" font-family="Helvetica,sans-Serif" font-size="10.00" fill="grey">+params</text>
</g>
<!-- Node8 -->
<g id="Node000008" class="node">
<title>Node8</title>
<g id="a_Node000008"><a xlink:title=" ">
<polygon fill="white" stroke="none" points="502.75,-109 375.5,-109 375.5,-75.5 502.75,-75.5 502.75,-109"/>
<text xml:space="preserve" text-anchor="start" x="379.5" y="-95.5" font-family="Helvetica,sans-Serif" font-size="10.00">std::shared_ptr&lt; web</text>
<text xml:space="preserve" text-anchor="start" x="379.5" y="-82.75" font-family="Helvetica,sans-Serif" font-size="10.00">::http::server::Request &gt;</text>
<polygon fill="none" stroke="#666666" points="375.5,-75.5 375.5,-109 502.75,-109 502.75,-75.5 375.5,-75.5"/>
</a>
</g>
</g>
<!-- Node8&#45;&gt;Node1 -->
<g id="edge9_Node000001_Node000008" class="edge">
<title>Node8&#45;&gt;Node1</title>
<g id="a_edge9_Node000001_Node000008"><a xlink:title=" ">
<path fill="none" stroke="#63b8ff" d="M426.21,-75.85C415.4,-62.97 399.94,-44.54 388.31,-30.68"/>
<polygon fill="none" stroke="#63b8ff" points="388.27,-30.62 381.35,-28.59 380.55,-21.42 387.47,-23.45 388.27,-30.62"/>
</a>
</g>
<text xml:space="preserve" text-anchor="start" x="412.64" y="-45" font-family="Helvetica,sans-Serif" font-size="10.00" fill="grey">&#45;requestBase</text>
</g>
<!-- Node9&#45;&gt;Node8 -->
<g id="edge10_Node000008_Node000009" class="edge">
<title>Node9&#45;&gt;Node8</title>
<g id="a_edge10_Node000008_Node000009"><a xlink:title=" ">
<path fill="none" stroke="#63b8ff" d="M422.39,-298.01C425.39,-261.28 432.98,-168.48 436.82,-121.47"/>
<polygon fill="none" stroke="#63b8ff" points="436.81,-121.58 433.31,-115.27 437.79,-109.62 441.29,-115.92 436.81,-121.58"/>
</a>
</g>
<text xml:space="preserve" text-anchor="start" x="439.11" y="-200.25" font-family="Helvetica,sans-Serif" font-size="10.00" fill="grey">+ptr</text>
</g>
<!-- Node10 -->
<g id="Node000010" class="node">
<title>Node10</title>
<g id="a_Node000010"><a xlink:href="classweb_1_1http_1_1CiStringMap.html" target="_top" xlink:title=" ">
<polygon fill="white" stroke="none" points="490.62,-486.5 371.62,-486.5 371.62,-453 490.62,-453 490.62,-486.5"/>
<text xml:space="preserve" text-anchor="start" x="375.62" y="-473" font-family="Helvetica,sans-Serif" font-size="10.00">web::http::CiStringMap</text>
<text xml:space="preserve" text-anchor="start" x="395.5" y="-460.25" font-family="Helvetica,sans-Serif" font-size="10.00">&lt; std::string &gt;</text>
<polygon fill="none" stroke="#666666" points="371.62,-453 371.62,-486.5 490.62,-486.5 490.62,-453 371.62,-453"/>
</a>
</g>
</g>
<!-- Node10&#45;&gt;Node1 -->
<g id="edge17_Node000001_Node000010" class="edge">
<title>Node10&#45;&gt;Node1</title>
<g id="a_edge17_Node000001_Node000010"><a xlink:title=" ">
<path fill="none" stroke="#63b8ff" d="M490.53,-460.18C504.79,-455.18 518.39,-447.33 527.12,-435 542.74,-412.96 551.01,-181.06 512.12,-75.5 505.03,-56.23 501.3,-50 484.12,-38.75 468.28,-28.38 448.85,-21.93 430.65,-17.93"/>
<polygon fill="none" stroke="#63b8ff" points="430.66,-17.93 424.01,-20.72 418.88,-15.65 425.53,-12.86 430.66,-17.93"/>
</a>
</g>
<text xml:space="preserve" text-anchor="start" x="542.96" y="-225.38" font-family="Helvetica,sans-Serif" font-size="10.00" fill="grey">+cookies</text>
<text xml:space="preserve" text-anchor="start" x="542.96" y="-208.62" font-family="Helvetica,sans-Serif" font-size="10.00" fill="grey">+headers</text>
<text xml:space="preserve" text-anchor="start" x="542.96" y="-191.88" font-family="Helvetica,sans-Serif" font-size="10.00" fill="grey">+queries</text>
<text xml:space="preserve" text-anchor="start" x="542.96" y="-175.12" font-family="Helvetica,sans-Serif" font-size="10.00" fill="grey">+trailer</text>
</g>
<!-- Node10&#45;&gt;Node9 -->
<g id="edge12_Node000009_Node000010" class="edge">
<title>Node10&#45;&gt;Node9</title>
<g id="a_edge12_Node000009_Node000010"><a xlink:title=" ">
<path fill="none" stroke="#63b8ff" d="M420.68,-453.28C417.53,-447.76 414.48,-441.33 412.88,-435 403.53,-398.05 408.32,-387.09 412.88,-349.25 413.09,-347.47 413.36,-345.65 413.68,-343.83"/>
<polygon fill="none" stroke="#63b8ff" points="413.7,-343.75 411.08,-337.03 416.28,-332.03 418.9,-338.75 413.7,-343.75"/>
</a>
</g>
<text xml:space="preserve" text-anchor="start" x="415.88" y="-405.75" font-family="Helvetica,sans-Serif" font-size="10.00" fill="grey">+cookies</text>
<text xml:space="preserve" text-anchor="start" x="415.88" y="-389" font-family="Helvetica,sans-Serif" font-size="10.00" fill="grey">+headers</text>
<text xml:space="preserve" text-anchor="start" x="415.88" y="-372.25" font-family="Helvetica,sans-Serif" font-size="10.00" fill="grey">+queries</text>
</g>
<!-- Node11 -->
<g id="Node000011" class="node">
<title>Node11</title>
<g id="a_Node000011"><a xlink:title=" ">
<polygon fill="white" stroke="none" points="477.12,-550.62 385.12,-550.62 385.12,-529.88 477.12,-529.88 477.12,-550.62"/>
<text xml:space="preserve" text-anchor="start" x="389.12" y="-537.12" font-family="Helvetica,sans-Serif" font-size="10.00">std::map&lt; K, T &gt;</text>
<polygon fill="none" stroke="#666666" points="385.12,-529.88 385.12,-550.62 477.12,-550.62 477.12,-529.88 385.12,-529.88"/>
</a>
</g>
</g>
<!-- Node11&#45;&gt;Node10 -->
<g id="edge13_Node000010_Node000011" class="edge">
<title>Node11&#45;&gt;Node10</title>
<g id="a_edge13_Node000010_Node000011"><a xlink:title=" ">
<path fill="none" stroke="#63b8ff" d="M431.12,-518.69C431.12,-508.32 431.12,-495.96 431.12,-486.38"/>
<polygon fill="none" stroke="#63b8ff" points="427.63,-518.5 431.13,-528.5 434.63,-518.5 427.63,-518.5"/>
</a>
</g>
</g>
<!-- Node12 -->
<g id="Node000012" class="node">
<title>Node12</title>
<g id="a_Node000012"><a xlink:title=" ">
<polygon fill="white" stroke="none" points="408.5,-632.5 393.75,-632.5 393.75,-611.75 408.5,-611.75 408.5,-632.5"/>
<text xml:space="preserve" text-anchor="start" x="397.75" y="-619" font-family="Helvetica,sans-Serif" font-size="10.00">K</text>
<polygon fill="none" stroke="#666666" points="393.75,-611.75 393.75,-632.5 408.5,-632.5 408.5,-611.75 393.75,-611.75"/>
</a>
</g>
</g>
<!-- Node12&#45;&gt;Node11 -->
<g id="edge14_Node000011_Node000012" class="edge">
<title>Node12&#45;&gt;Node11</title>
<g id="a_edge14_Node000011_Node000012"><a xlink:title=" ">
<path fill="none" stroke="#63b8ff" d="M399.63,-611.94C398.46,-602.37 397.73,-587.12 402.38,-575 404.45,-569.58 407.8,-564.43 411.49,-559.86"/>
<polygon fill="none" stroke="#63b8ff" points="411.5,-559.84 412.65,-552.72 419.66,-551.04 418.52,-558.16 411.5,-559.84"/>
</a>
</g>
<text xml:space="preserve" text-anchor="start" x="405.38" y="-581.25" font-family="Helvetica,sans-Serif" font-size="10.00" fill="grey">+keys</text>
</g>
<!-- Node13 -->
<g id="Node000013" class="node">
<title>Node13</title>
<g id="a_Node000013"><a xlink:title=" ">
<polygon fill="white" stroke="none" points="468.12,-632.5 454.12,-632.5 454.12,-611.75 468.12,-611.75 468.12,-632.5"/>
<text xml:space="preserve" text-anchor="start" x="458.12" y="-619" font-family="Helvetica,sans-Serif" font-size="10.00">T</text>
<polygon fill="none" stroke="#666666" points="454.12,-611.75 454.12,-632.5 468.12,-632.5 468.12,-611.75 454.12,-611.75"/>
</a>
</g>
</g>
<!-- Node13&#45;&gt;Node11 -->
<g id="edge15_Node000011_Node000013" class="edge">
<title>Node13&#45;&gt;Node11</title>
<g id="a_edge15_Node000011_Node000013"><a xlink:title=" ">
<path fill="none" stroke="#63b8ff" d="M457.68,-611.96C453.16,-599.93 445.09,-578.42 439.02,-562.28"/>
<polygon fill="none" stroke="#63b8ff" points="439.06,-562.38 433.21,-558.17 434.84,-551.15 440.7,-555.36 439.06,-562.38"/>
</a>
</g>
<text xml:space="preserve" text-anchor="start" x="453.56" y="-581.25" font-family="Helvetica,sans-Serif" font-size="10.00" fill="grey">+elements</text>
</g>
<!-- Node14 -->
<g id="Node000014" class="node">
<title>Node14</title>
<g id="a_Node000014"><a xlink:title=" ">
<polygon fill="white" stroke="none" points="649.75,-480.12 546.5,-480.12 546.5,-459.38 649.75,-459.38 649.75,-480.12"/>
<text xml:space="preserve" text-anchor="start" x="550.5" y="-466.62" font-family="Helvetica,sans-Serif" font-size="10.00">std::vector&lt; char &gt;</text>
<polygon fill="none" stroke="#666666" points="546.5,-459.38 546.5,-480.12 649.75,-480.12 649.75,-459.38 546.5,-459.38"/>
</a>
</g>
</g>
<!-- Node14&#45;&gt;Node1 -->
<g id="edge18_Node000001_Node000014" class="edge">
<title>Node14&#45;&gt;Node1</title>
<g id="a_edge18_Node000001_Node000014"><a xlink:title=" ">
<path fill="none" stroke="#63b8ff" d="M600.45,-459.55C610.32,-418.58 645.97,-249.48 595.12,-127 574.01,-76.13 556.58,-64.94 508.12,-38.75 484.49,-25.97 455.63,-19.13 430.58,-15.48"/>
<polygon fill="none" stroke="#63b8ff" points="430.68,-15.5 424.22,-18.7 418.78,-13.96 425.24,-10.76 430.68,-15.5"/>
</a>
</g>
<text xml:space="preserve" text-anchor="start" x="624.78" y="-200.25" font-family="Helvetica,sans-Serif" font-size="10.00" fill="grey">+body</text>
</g>
<!-- Node14&#45;&gt;Node9 -->
<g id="edge16_Node000009_Node000014" class="edge">
<title>Node14&#45;&gt;Node9</title>
<g id="a_edge16_Node000009_Node000014"><a xlink:title=" ">
<path fill="none" stroke="#63b8ff" d="M588.47,-459.44C567.02,-438.89 513.58,-388.39 466.12,-349.25 461.97,-345.82 457.52,-342.31 453.09,-338.9"/>
<polygon fill="none" stroke="#63b8ff" points="453.25,-339.02 446.05,-338.59 443.67,-331.78 450.87,-332.21 453.25,-339.02"/>
</a>
</g>
<text xml:space="preserve" text-anchor="start" x="563.96" y="-389" font-family="Helvetica,sans-Serif" font-size="10.00" fill="grey">+body</text>
</g>
</g>
</svg>
