<?xml version="1.0" encoding="UTF-8" standalone="no"?>
<!DOCTYPE svg PUBLIC "-//W3C//DTD SVG 1.1//EN"
 "http://www.w3.org/Graphics/SVG/1.1/DTD/svg11.dtd">
<!-- Generated by graphviz version 2.43.0 (0)
 -->
<!-- Title: express::Controller::setCurrentRoute Pages: 1 -->
<svg width="1501pt" height="309pt"
 viewBox="0.00 0.00 1501.00 308.55" xmlns="http://www.w3.org/2000/svg" xmlns:xlink="http://www.w3.org/1999/xlink">
<g id="graph0" class="graph" transform="scale(1 1) rotate(0) translate(4 304.55)">
<title>express::Controller::setCurrentRoute</title>
<!-- Node1 -->
<g id="Node000001" class="node">
<title>Node1</title>
<g id="a_Node000001"><a xlink:title=" ">
<polygon fill="#999999" stroke="#666666" points="1493,-120.05 1384,-120.05 1384,-90.05 1493,-90.05 1493,-120.05"/>
<text text-anchor="start" x="1392" y="-108.05" font-family="Helvetica,sans-Serif" font-size="10.00">express::Controller</text>
<text text-anchor="middle" x="1438.5" y="-97.05" font-family="Helvetica,sans-Serif" font-size="10.00">::setCurrentRoute</text>
</a>
</g>
</g>
<!-- Node2 -->
<g id="Node000002" class="node">
<title>Node2</title>
<g id="a_Node000002"><a xlink:href="classexpress_1_1Route.html#a1aea7b29f8470cd6394ab72d5daeb66d" target="_top" xlink:title=" ">
<polygon fill="white" stroke="#666666" points="1348,-114.55 1211,-114.55 1211,-95.55 1348,-95.55 1348,-114.55"/>
<text text-anchor="middle" x="1279.5" y="-102.55" font-family="Helvetica,sans-Serif" font-size="10.00">express::Route::dispatch</text>
</a>
</g>
</g>
<!-- Node1&#45;&gt;Node2 -->
<g id="edge1_Node000001_Node000002" class="edge">
<title>Node1&#45;&gt;Node2</title>
<g id="a_edge1_Node000001_Node000002"><a xlink:title=" ">
<path fill="none" stroke="#63b8ff" d="M1373.72,-105.05C1365.25,-105.05 1356.54,-105.05 1348.01,-105.05"/>
<polygon fill="#63b8ff" stroke="#63b8ff" points="1373.91,-108.55 1383.91,-105.05 1373.91,-101.55 1373.91,-108.55"/>
</a>
</g>
</g>
<!-- Node3 -->
<g id="Node000003" class="node">
<title>Node3</title>
<g id="a_Node000003"><a xlink:href="classexpress_1_1RootRoute.html#a2d65050e101a52dc8c303cd787d1cb23" target="_top" xlink:title=" ">
<polygon fill="white" stroke="#666666" points="1162.5,-211.05 1050.5,-211.05 1050.5,-181.05 1162.5,-181.05 1162.5,-211.05"/>
<text text-anchor="start" x="1058.5" y="-199.05" font-family="Helvetica,sans-Serif" font-size="10.00">express::RootRoute</text>
<text text-anchor="middle" x="1106.5" y="-188.05" font-family="Helvetica,sans-Serif" font-size="10.00">::dispatch</text>
</a>
</g>
</g>
<!-- Node2&#45;&gt;Node3 -->
<g id="edge2_Node000002_Node000003" class="edge">
<title>Node2&#45;&gt;Node3</title>
<g id="a_edge2_Node000002_Node000003"><a xlink:title=" ">
<path fill="none" stroke="#63b8ff" d="M1257.48,-120.75C1237.16,-135.41 1205.1,-157.21 1175,-172.05 1168.53,-175.24 1161.53,-178.21 1154.56,-180.91"/>
<polygon fill="#63b8ff" stroke="#63b8ff" points="1259.68,-123.48 1265.69,-114.75 1255.55,-117.82 1259.68,-123.48"/>
</a>
</g>
</g>
<!-- Node21 -->
<g id="Node000021" class="node">
<title>Node21</title>
<g id="a_Node000021"><a xlink:href="classexpress_1_1Route.html#a6d78c3ba853829e162a3c646f896d06a" target="_top" xlink:title=" ">
<polygon fill="white" stroke="#666666" points="1175,-162.55 1038,-162.55 1038,-143.55 1175,-143.55 1175,-162.55"/>
<text text-anchor="middle" x="1106.5" y="-150.55" font-family="Helvetica,sans-Serif" font-size="10.00">express::Route::dispatch</text>
</a>
</g>
</g>
<!-- Node2&#45;&gt;Node21 -->
<g id="edge20_Node000002_Node000021" class="edge">
<title>Node2&#45;&gt;Node21</title>
<g id="a_edge20_Node000002_Node000021"><a xlink:title=" ">
<path fill="none" stroke="#63b8ff" d="M1236.63,-117.41C1217.82,-122.9 1195.32,-129.39 1175,-135.05 1164.95,-137.84 1154.04,-140.79 1143.97,-143.48"/>
<polygon fill="#63b8ff" stroke="#63b8ff" points="1237.77,-120.72 1246.38,-114.55 1235.8,-114 1237.77,-120.72"/>
</a>
</g>
</g>
<!-- Node22 -->
<g id="Node000022" class="node">
<title>Node22</title>
<g id="a_Node000022"><a xlink:href="classexpress_1_1dispatcher_1_1RouterDispatcher.html#a6df955e698d465aa9375a851ed6bc283" target="_top" xlink:title=" ">
<polygon fill="white" stroke="#666666" points="1163,-125.55 1050,-125.55 1050,-84.55 1163,-84.55 1163,-125.55"/>
<text text-anchor="start" x="1058" y="-113.55" font-family="Helvetica,sans-Serif" font-size="10.00">express::dispatcher</text>
<text text-anchor="start" x="1058" y="-102.55" font-family="Helvetica,sans-Serif" font-size="10.00">::RouterDispatcher::</text>
<text text-anchor="middle" x="1106.5" y="-91.55" font-family="Helvetica,sans-Serif" font-size="10.00">dispatch</text>
</a>
</g>
</g>
<!-- Node2&#45;&gt;Node22 -->
<g id="edge21_Node000002_Node000022" class="edge">
<title>Node2&#45;&gt;Node22</title>
<g id="a_edge21_Node000002_Node000022"><a xlink:title=" ">
<path fill="none" stroke="#63b8ff" d="M1200.78,-105.05C1188.05,-105.05 1175.09,-105.05 1163.04,-105.05"/>
<polygon fill="#63b8ff" stroke="#63b8ff" points="1200.92,-108.55 1210.92,-105.05 1200.92,-101.55 1200.92,-108.55"/>
</a>
</g>
</g>
<!-- Node23 -->
<g id="Node000023" class="node">
<title>Node23</title>
<g id="a_Node000023"><a xlink:href="classexpress_1_1Dispatcher.html#a8b5e4f0eb3d02c5f8c5452980a8845c2" target="_top" xlink:title=" ">
<polygon fill="white" stroke="#666666" points="1163,-66.05 1050,-66.05 1050,-36.05 1163,-36.05 1163,-66.05"/>
<text text-anchor="start" x="1058" y="-54.05" font-family="Helvetica,sans-Serif" font-size="10.00">express::Dispatcher</text>
<text text-anchor="middle" x="1106.5" y="-43.05" font-family="Helvetica,sans-Serif" font-size="10.00">::dispatchNext</text>
</a>
</g>
</g>
<!-- Node2&#45;&gt;Node23 -->
<g id="edge22_Node000002_Node000023" class="edge">
<title>Node2&#45;&gt;Node23</title>
<g id="a_edge22_Node000002_Node000023"><a xlink:title=" ">
<path fill="none" stroke="#63b8ff" d="M1238.47,-92.41C1213.55,-84.54 1181.35,-74.37 1155.12,-66.09"/>
<polygon fill="#63b8ff" stroke="#63b8ff" points="1237.73,-95.84 1248.32,-95.52 1239.84,-89.17 1237.73,-95.84"/>
</a>
</g>
</g>
<!-- Node4 -->
<g id="Node000004" class="node">
<title>Node4</title>
<g id="a_Node000004"><a xlink:href="classexpress_1_1RootRoute.html#a1c2da19981989c227a16b6054be19262" target="_top" xlink:title=" ">
<polygon fill="white" stroke="#666666" points="978,-235.05 866,-235.05 866,-205.05 978,-205.05 978,-235.05"/>
<text text-anchor="start" x="874" y="-223.05" font-family="Helvetica,sans-Serif" font-size="10.00">express::RootRoute</text>
<text text-anchor="middle" x="922" y="-212.05" font-family="Helvetica,sans-Serif" font-size="10.00">::dispatch</text>
</a>
</g>
</g>
<!-- Node3&#45;&gt;Node4 -->
<g id="edge3_Node000003_Node000004" class="edge">
<title>Node3&#45;&gt;Node4</title>
<g id="a_edge3_Node000003_Node000004"><a xlink:title=" ">
<path fill="none" stroke="#63b8ff" d="M1040.13,-204.64C1019.8,-207.32 997.61,-210.24 978.06,-212.81"/>
<polygon fill="#63b8ff" stroke="#63b8ff" points="1040.79,-208.09 1050.25,-203.31 1039.88,-201.15 1040.79,-208.09"/>
</a>
</g>
</g>
<!-- Node5 -->
<g id="Node000005" class="node">
<title>Node5</title>
<g id="a_Node000005"><a xlink:href="classexpress_1_1Controller.html#a37349835c6e195cd3b2f264cfcf97fae" target="_top" xlink:title=" ">
<polygon fill="white" stroke="#666666" points="976.5,-187.05 867.5,-187.05 867.5,-157.05 976.5,-157.05 976.5,-187.05"/>
<text text-anchor="start" x="875.5" y="-175.05" font-family="Helvetica,sans-Serif" font-size="10.00">express::Controller</text>
<text text-anchor="middle" x="922" y="-164.05" font-family="Helvetica,sans-Serif" font-size="10.00">::next</text>
</a>
</g>
</g>
<!-- Node3&#45;&gt;Node5 -->
<g id="edge4_Node000003_Node000005" class="edge">
<title>Node3&#45;&gt;Node5</title>
<g id="a_edge4_Node000003_Node000005"><a xlink:title=" ">
<path fill="none" stroke="#63b8ff" d="M1040.22,-187.46C1019.44,-184.73 996.69,-181.74 976.81,-179.12"/>
<polygon fill="#63b8ff" stroke="#63b8ff" points="1039.88,-190.95 1050.25,-188.78 1040.79,-184.01 1039.88,-190.95"/>
</a>
</g>
</g>
<!-- Node6 -->
<g id="Node000006" class="node">
<title>Node6</title>
<g id="a_Node000006"><a xlink:href="classexpress_1_1Next.html#a3e14e0e46359f80dac195ec6e57eaf5d" target="_top" xlink:title=" ">
<polygon fill="white" stroke="#666666" points="806,-181.55 667,-181.55 667,-162.55 806,-162.55 806,-181.55"/>
<text text-anchor="middle" x="736.5" y="-169.55" font-family="Helvetica,sans-Serif" font-size="10.00">express::Next::operator()</text>
</a>
</g>
</g>
<!-- Node5&#45;&gt;Node6 -->
<g id="edge5_Node000005_Node000006" class="edge">
<title>Node5&#45;&gt;Node6</title>
<g id="a_edge5_Node000005_Node000006"><a xlink:title=" ">
<path fill="none" stroke="#63b8ff" d="M857.34,-172.05C840.82,-172.05 822.96,-172.05 806.19,-172.05"/>
<polygon fill="#63b8ff" stroke="#63b8ff" points="857.43,-175.55 867.43,-172.05 857.43,-168.55 857.43,-175.55"/>
</a>
</g>
</g>
<!-- Node7 -->
<g id="Node000007" class="node">
<title>Node7</title>
<g id="a_Node000007"><a xlink:href="classexpress_1_1middleware_1_1BasicAuthentication.html#a74011e8f313cded7f34c28250ddc878f" target="_top" xlink:title=" ">
<polygon fill="white" stroke="#666666" points="597,-300.55 477,-300.55 477,-259.55 597,-259.55 597,-300.55"/>
<text text-anchor="start" x="485" y="-288.55" font-family="Helvetica,sans-Serif" font-size="10.00">express::middleware</text>
<text text-anchor="start" x="485" y="-277.55" font-family="Helvetica,sans-Serif" font-size="10.00">::BasicAuthentication</text>
<text text-anchor="middle" x="537" y="-266.55" font-family="Helvetica,sans-Serif" font-size="10.00">::BasicAuthentication</text>
</a>
</g>
</g>
<!-- Node6&#45;&gt;Node7 -->
<g id="edge6_Node000006_Node000007" class="edge">
<title>Node6&#45;&gt;Node7</title>
<g id="a_edge6_Node000006_Node000007"><a xlink:title=" ">
<path fill="none" stroke="#63b8ff" d="M717.36,-188.55C697.44,-205.92 663.91,-233.05 631,-250.05 620.45,-255.5 608.71,-260.21 597.23,-264.18"/>
<polygon fill="#63b8ff" stroke="#63b8ff" points="719.85,-191.01 725.02,-181.76 715.21,-185.77 719.85,-191.01"/>
</a>
</g>
</g>
<!-- Node10 -->
<g id="Node000010" class="node">
<title>Node10</title>
<g id="a_Node000010"><a xlink:href="classexpress_1_1middleware_1_1JsonMiddleware.html#a0f90276c1100e22d2114306b23b95991" target="_top" xlink:title=" ">
<polygon fill="white" stroke="#666666" points="628.5,-241.05 445.5,-241.05 445.5,-211.05 628.5,-211.05 628.5,-241.05"/>
<text text-anchor="start" x="453.5" y="-229.05" font-family="Helvetica,sans-Serif" font-size="10.00">express::middleware</text>
<text text-anchor="middle" x="537" y="-218.05" font-family="Helvetica,sans-Serif" font-size="10.00">::JsonMiddleware::JsonMiddleware</text>
</a>
</g>
</g>
<!-- Node6&#45;&gt;Node10 -->
<g id="edge9_Node000006_Node000010" class="edge">
<title>Node6&#45;&gt;Node10</title>
<g id="a_edge9_Node000006_Node000010"><a xlink:title=" ">
<path fill="none" stroke="#63b8ff" d="M693.24,-184.46C674.25,-189.97 651.53,-196.45 631,-202.05 620.22,-204.99 608.71,-208.03 597.6,-210.92"/>
<polygon fill="#63b8ff" stroke="#63b8ff" points="694.46,-187.75 703.08,-181.6 692.5,-181.03 694.46,-187.75"/>
</a>
</g>
</g>
<!-- Node13 -->
<g id="Node000013" class="node">
<title>Node13</title>
<g id="a_Node000013"><a xlink:href="classexpress_1_1middleware_1_1StaticMiddleware.html#af712793a6f6d600b813fc4a6d3fbe41d" target="_top" xlink:title=" ">
<polygon fill="white" stroke="#666666" points="596.5,-192.55 477.5,-192.55 477.5,-151.55 596.5,-151.55 596.5,-192.55"/>
<text text-anchor="start" x="485.5" y="-180.55" font-family="Helvetica,sans-Serif" font-size="10.00">express::middleware</text>
<text text-anchor="start" x="485.5" y="-169.55" font-family="Helvetica,sans-Serif" font-size="10.00">::StaticMiddleware::</text>
<text text-anchor="middle" x="537" y="-158.55" font-family="Helvetica,sans-Serif" font-size="10.00">StaticMiddleware</text>
</a>
</g>
</g>
<!-- Node6&#45;&gt;Node13 -->
<g id="edge12_Node000006_Node000013" class="edge">
<title>Node6&#45;&gt;Node13</title>
<g id="a_edge12_Node000006_Node000013"><a xlink:title=" ">
<path fill="none" stroke="#63b8ff" d="M656.89,-172.05C636.76,-172.05 615.47,-172.05 596.55,-172.05"/>
<polygon fill="#63b8ff" stroke="#63b8ff" points="656.98,-175.55 666.98,-172.05 656.98,-168.55 656.98,-175.55"/>
</a>
</g>
</g>
<!-- Node16 -->
<g id="Node000016" class="node">
<title>Node16</title>
<g id="a_Node000016"><a xlink:href="classexpress_1_1middleware_1_1VerboseRequest.html#a80c248c1ee14bcc6068fc21a08d9f562" target="_top" xlink:title=" ">
<polygon fill="white" stroke="#666666" points="631,-133.05 443,-133.05 443,-103.05 631,-103.05 631,-133.05"/>
<text text-anchor="start" x="451" y="-121.05" font-family="Helvetica,sans-Serif" font-size="10.00">express::middleware</text>
<text text-anchor="middle" x="537" y="-110.05" font-family="Helvetica,sans-Serif" font-size="10.00">::VerboseRequest::VerboseRequest</text>
</a>
</g>
</g>
<!-- Node6&#45;&gt;Node16 -->
<g id="edge15_Node000006_Node000016" class="edge">
<title>Node6&#45;&gt;Node16</title>
<g id="a_edge15_Node000006_Node000016"><a xlink:title=" ">
<path fill="none" stroke="#63b8ff" d="M691.46,-159.74C672.82,-154.55 650.86,-148.47 631,-143.05 619.23,-139.83 606.61,-136.42 594.58,-133.18"/>
<polygon fill="#63b8ff" stroke="#63b8ff" points="690.59,-163.13 701.16,-162.44 692.47,-156.39 690.59,-163.13"/>
</a>
</g>
</g>
<!-- Node18 -->
<g id="Node000018" class="node">
<title>Node18</title>
<g id="a_Node000018"><a xlink:href="classexpress_1_1middleware_1_1VHost.html#ab60d9df1ad85a8ee414c111135e250b1" target="_top" xlink:title=" ">
<polygon fill="white" stroke="#666666" points="596.5,-85.05 477.5,-85.05 477.5,-55.05 596.5,-55.05 596.5,-85.05"/>
<text text-anchor="start" x="485.5" y="-73.05" font-family="Helvetica,sans-Serif" font-size="10.00">express::middleware</text>
<text text-anchor="middle" x="537" y="-62.05" font-family="Helvetica,sans-Serif" font-size="10.00">::VHost::VHost</text>
</a>
</g>
</g>
<!-- Node6&#45;&gt;Node18 -->
<g id="edge17_Node000006_Node000018" class="edge">
<title>Node6&#45;&gt;Node18</title>
<g id="a_edge17_Node000006_Node000018"><a xlink:title=" ">
<path fill="none" stroke="#63b8ff" d="M717.86,-155.45C698.16,-137.76 664.58,-110.14 631,-94.05 620.32,-88.93 608.42,-84.81 596.78,-81.52"/>
<polygon fill="#63b8ff" stroke="#63b8ff" points="715.68,-158.19 725.42,-162.35 720.4,-153.02 715.68,-158.19"/>
</a>
</g>
</g>
<!-- Node8 -->
<g id="Node000008" class="node">
<title>Node8</title>
<g id="a_Node000008"><a xlink:href="classexpress_1_1middleware_1_1BasicAuthentication.html#a8cd93f5ab0744e5deae89aac3709ee42" target="_top" xlink:title=" ">
<polygon fill="white" stroke="#666666" points="373,-300.55 253,-300.55 253,-259.55 373,-259.55 373,-300.55"/>
<text text-anchor="start" x="261" y="-288.55" font-family="Helvetica,sans-Serif" font-size="10.00">express::middleware</text>
<text text-anchor="start" x="261" y="-277.55" font-family="Helvetica,sans-Serif" font-size="10.00">::BasicAuthentication</text>
<text text-anchor="middle" x="313" y="-266.55" font-family="Helvetica,sans-Serif" font-size="10.00">::instance</text>
</a>
</g>
</g>
<!-- Node7&#45;&gt;Node8 -->
<g id="edge7_Node000007_Node000008" class="edge">
<title>Node7&#45;&gt;Node8</title>
<g id="a_edge7_Node000007_Node000008"><a xlink:title=" ">
<path fill="none" stroke="#63b8ff" d="M466.41,-280.05C436.43,-280.05 401.74,-280.05 373.04,-280.05"/>
<polygon fill="#63b8ff" stroke="#63b8ff" points="466.8,-283.55 476.8,-280.05 466.8,-276.55 466.8,-283.55"/>
</a>
</g>
</g>
<!-- Node9 -->
<g id="Node000009" class="node">
<title>Node9</title>
<g id="a_Node000009"><a xlink:href="classexpress_1_1middleware_1_1BasicAuthentication.html#a461f08f2de85ee8ddb1afb72db149028" target="_top" xlink:title=" ">
<polygon fill="white" stroke="#666666" points="151.5,-300.55 31.5,-300.55 31.5,-259.55 151.5,-259.55 151.5,-300.55"/>
<text text-anchor="start" x="39.5" y="-288.55" font-family="Helvetica,sans-Serif" font-size="10.00">express::middleware</text>
<text text-anchor="start" x="39.5" y="-277.55" font-family="Helvetica,sans-Serif" font-size="10.00">::BasicAuthentication</text>
<text text-anchor="middle" x="91.5" y="-266.55" font-family="Helvetica,sans-Serif" font-size="10.00">::BasicAuthentication</text>
</a>
</g>
</g>
<!-- Node8&#45;&gt;Node9 -->
<g id="edge8_Node000008_Node000009" class="edge">
<title>Node8&#45;&gt;Node9</title>
<g id="a_edge8_Node000008_Node000009"><a xlink:title=" ">
<path fill="none" stroke="#63b8ff" d="M242.75,-280.05C213.5,-280.05 179.79,-280.05 151.72,-280.05"/>
<polygon fill="#63b8ff" stroke="#63b8ff" points="242.89,-283.55 252.89,-280.05 242.89,-276.55 242.89,-283.55"/>
</a>
</g>
</g>
<!-- Node11 -->
<g id="Node000011" class="node">
<title>Node11</title>
<g id="a_Node000011"><a xlink:href="classexpress_1_1middleware_1_1JsonMiddleware.html#ae20c47bf2107ee7b8a8190d3a3439b1a" target="_top" xlink:title=" ">
<polygon fill="white" stroke="#666666" points="386.5,-241.05 239.5,-241.05 239.5,-211.05 386.5,-211.05 386.5,-241.05"/>
<text text-anchor="start" x="247.5" y="-229.05" font-family="Helvetica,sans-Serif" font-size="10.00">express::middleware</text>
<text text-anchor="middle" x="313" y="-218.05" font-family="Helvetica,sans-Serif" font-size="10.00">::JsonMiddleware::instance</text>
</a>
</g>
</g>
<!-- Node10&#45;&gt;Node11 -->
<g id="edge10_Node000010_Node000011" class="edge">
<title>Node10&#45;&gt;Node11</title>
<g id="a_edge10_Node000010_Node000011"><a xlink:title=" ">
<path fill="none" stroke="#63b8ff" d="M435.24,-226.05C418.87,-226.05 402.2,-226.05 386.67,-226.05"/>
<polygon fill="#63b8ff" stroke="#63b8ff" points="435.38,-229.55 445.38,-226.05 435.38,-222.55 435.38,-229.55"/>
</a>
</g>
</g>
<!-- Node12 -->
<g id="Node000012" class="node">
<title>Node12</title>
<g id="a_Node000012"><a xlink:href="classexpress_1_1middleware_1_1JsonMiddleware.html#a50b23edc44a7ae19b857efe7fbb3495f" target="_top" xlink:title=" ">
<polygon fill="white" stroke="#666666" points="183,-241.05 0,-241.05 0,-211.05 183,-211.05 183,-241.05"/>
<text text-anchor="start" x="8" y="-229.05" font-family="Helvetica,sans-Serif" font-size="10.00">express::middleware</text>
<text text-anchor="middle" x="91.5" y="-218.05" font-family="Helvetica,sans-Serif" font-size="10.00">::JsonMiddleware::JsonMiddleware</text>
</a>
</g>
</g>
<!-- Node11&#45;&gt;Node12 -->
<g id="edge11_Node000011_Node000012" class="edge">
<title>Node11&#45;&gt;Node12</title>
<g id="a_edge11_Node000011_Node000012"><a xlink:title=" ">
<path fill="none" stroke="#63b8ff" d="M228.96,-226.05C213.97,-226.05 198.27,-226.05 183.08,-226.05"/>
<polygon fill="#63b8ff" stroke="#63b8ff" points="229.21,-229.55 239.21,-226.05 229.21,-222.55 229.21,-229.55"/>
</a>
</g>
</g>
<!-- Node14 -->
<g id="Node000014" class="node">
<title>Node14</title>
<g id="a_Node000014"><a xlink:href="classexpress_1_1middleware_1_1StaticMiddleware.html#abf7aad109677706e3b41004be8ac2f53" target="_top" xlink:title=" ">
<polygon fill="white" stroke="#666666" points="372.5,-192.55 253.5,-192.55 253.5,-151.55 372.5,-151.55 372.5,-192.55"/>
<text text-anchor="start" x="261.5" y="-180.55" font-family="Helvetica,sans-Serif" font-size="10.00">express::middleware</text>
<text text-anchor="start" x="261.5" y="-169.55" font-family="Helvetica,sans-Serif" font-size="10.00">::StaticMiddleware::</text>
<text text-anchor="middle" x="313" y="-158.55" font-family="Helvetica,sans-Serif" font-size="10.00">instance</text>
</a>
</g>
</g>
<!-- Node13&#45;&gt;Node14 -->
<g id="edge13_Node000013_Node000014" class="edge">
<title>Node13&#45;&gt;Node14</title>
<g id="a_edge13_Node000013_Node000014"><a xlink:title=" ">
<path fill="none" stroke="#63b8ff" d="M467.3,-172.05C436.95,-172.05 401.64,-172.05 372.56,-172.05"/>
<polygon fill="#63b8ff" stroke="#63b8ff" points="467.38,-175.55 477.38,-172.05 467.38,-168.55 467.38,-175.55"/>
</a>
</g>
</g>
<!-- Node15 -->
<g id="Node000015" class="node">
<title>Node15</title>
<g id="a_Node000015"><a xlink:href="classexpress_1_1middleware_1_1StaticMiddleware.html#a91cf7d4b266c87b5feb7267c12db535b" target="_top" xlink:title=" ">
<polygon fill="white" stroke="#666666" points="151,-192.55 32,-192.55 32,-151.55 151,-151.55 151,-192.55"/>
<text text-anchor="start" x="40" y="-180.55" font-family="Helvetica,sans-Serif" font-size="10.00">express::middleware</text>
<text text-anchor="start" x="40" y="-169.55" font-family="Helvetica,sans-Serif" font-size="10.00">::StaticMiddleware::</text>
<text text-anchor="middle" x="91.5" y="-158.55" font-family="Helvetica,sans-Serif" font-size="10.00">StaticMiddleware</text>
</a>
</g>
</g>
<!-- Node14&#45;&gt;Node15 -->
<g id="edge14_Node000014_Node000015" class="edge">
<title>Node14&#45;&gt;Node15</title>
<g id="a_edge14_Node000014_Node000015"><a xlink:title=" ">
<path fill="none" stroke="#63b8ff" d="M243.23,-172.05C213.71,-172.05 179.57,-172.05 151.25,-172.05"/>
<polygon fill="#63b8ff" stroke="#63b8ff" points="243.47,-175.55 253.47,-172.05 243.47,-168.55 243.47,-175.55"/>
</a>
</g>
</g>
<!-- Node17 -->
<g id="Node000017" class="node">
<title>Node17</title>
<g id="a_Node000017"><a xlink:href="classexpress_1_1middleware_1_1VerboseRequest.html#a545ed22b9d5d978a745b06a25533e544" target="_top" xlink:title=" ">
<polygon fill="white" stroke="#666666" points="407,-133.05 219,-133.05 219,-103.05 407,-103.05 407,-133.05"/>
<text text-anchor="start" x="227" y="-121.05" font-family="Helvetica,sans-Serif" font-size="10.00">express::middleware</text>
<text text-anchor="middle" x="313" y="-110.05" font-family="Helvetica,sans-Serif" font-size="10.00">::VerboseRequest::VerboseRequest</text>
</a>
</g>
</g>
<!-- Node16&#45;&gt;Node17 -->
<g id="edge16_Node000016_Node000017" class="edge">
<title>Node16&#45;&gt;Node17</title>
<g id="a_edge16_Node000016_Node000017"><a xlink:title=" ">
<path fill="none" stroke="#63b8ff" d="M432.57,-118.05C424.14,-118.05 415.65,-118.05 407.3,-118.05"/>
<polygon fill="#63b8ff" stroke="#63b8ff" points="432.82,-121.55 442.82,-118.05 432.82,-114.55 432.82,-121.55"/>
</a>
</g>
</g>
<!-- Node19 -->
<g id="Node000019" class="node">
<title>Node19</title>
<g id="a_Node000019"><a xlink:href="classexpress_1_1middleware_1_1VHost.html#aedfd77e91aabab72a4b6bf19c9047876" target="_top" xlink:title=" ">
<polygon fill="white" stroke="#666666" points="372.5,-85.05 253.5,-85.05 253.5,-55.05 372.5,-55.05 372.5,-85.05"/>
<text text-anchor="start" x="261.5" y="-73.05" font-family="Helvetica,sans-Serif" font-size="10.00">express::middleware</text>
<text text-anchor="middle" x="313" y="-62.05" font-family="Helvetica,sans-Serif" font-size="10.00">::VHost::instance</text>
</a>
</g>
</g>
<!-- Node18&#45;&gt;Node19 -->
<g id="edge18_Node000018_Node000019" class="edge">
<title>Node18&#45;&gt;Node19</title>
<g id="a_edge18_Node000018_Node000019"><a xlink:title=" ">
<path fill="none" stroke="#63b8ff" d="M467.3,-70.05C436.95,-70.05 401.64,-70.05 372.56,-70.05"/>
<polygon fill="#63b8ff" stroke="#63b8ff" points="467.38,-73.55 477.38,-70.05 467.38,-66.55 467.38,-73.55"/>
</a>
</g>
</g>
<!-- Node20 -->
<g id="Node000020" class="node">
<title>Node20</title>
<g id="a_Node000020"><a xlink:href="classexpress_1_1middleware_1_1VHost.html#a0c0c8ae51cc23dc35d0444d98dfd41a8" target="_top" xlink:title=" ">
<polygon fill="white" stroke="#666666" points="151,-85.05 32,-85.05 32,-55.05 151,-55.05 151,-85.05"/>
<text text-anchor="start" x="40" y="-73.05" font-family="Helvetica,sans-Serif" font-size="10.00">express::middleware</text>
<text text-anchor="middle" x="91.5" y="-62.05" font-family="Helvetica,sans-Serif" font-size="10.00">::VHost::VHost</text>
</a>
</g>
</g>
<!-- Node19&#45;&gt;Node20 -->
<g id="edge19_Node000019_Node000020" class="edge">
<title>Node19&#45;&gt;Node20</title>
<g id="a_edge19_Node000019_Node000020"><a xlink:title=" ">
<path fill="none" stroke="#63b8ff" d="M243.23,-70.05C213.71,-70.05 179.57,-70.05 151.25,-70.05"/>
<polygon fill="#63b8ff" stroke="#63b8ff" points="243.47,-73.55 253.47,-70.05 243.47,-66.55 243.47,-73.55"/>
</a>
</g>
</g>
<!-- Node24 -->
<g id="Node000024" class="node">
<title>Node24</title>
<g id="a_Node000024"><a xlink:href="classexpress_1_1Route.html#a8c878f3ae8be82aa01d8a73d55759771" target="_top" xlink:title=" ">
<polygon fill="white" stroke="#666666" points="1002,-58.55 842,-58.55 842,-39.55 1002,-39.55 1002,-58.55"/>
<text text-anchor="middle" x="922" y="-46.55" font-family="Helvetica,sans-Serif" font-size="10.00">express::Route::dispatchNext</text>
</a>
</g>
</g>
<!-- Node23&#45;&gt;Node24 -->
<g id="edge23_Node000023_Node000024" class="edge">
<title>Node23&#45;&gt;Node24</title>
<g id="a_edge23_Node000023_Node000024"><a xlink:title=" ">
<path fill="none" stroke="#63b8ff" d="M1039.72,-50.33C1027.57,-50.19 1014.76,-50.05 1002.26,-49.92"/>
<polygon fill="#63b8ff" stroke="#63b8ff" points="1039.71,-53.83 1049.75,-50.44 1039.79,-46.83 1039.71,-53.83"/>
</a>
</g>
</g>
<!-- Node25 -->
<g id="Node000025" class="node">
<title>Node25</title>
<g id="a_Node000025"><a xlink:href="classexpress_1_1Controller.html#ad869b9f2284026613a76f1c4e4240de0" target="_top" xlink:title=" ">
<polygon fill="white" stroke="#666666" points="791,-44.05 682,-44.05 682,-14.05 791,-14.05 791,-44.05"/>
<text text-anchor="start" x="690" y="-32.05" font-family="Helvetica,sans-Serif" font-size="10.00">express::Controller</text>
<text text-anchor="middle" x="736.5" y="-21.05" font-family="Helvetica,sans-Serif" font-size="10.00">::dispatchNext</text>
</a>
</g>
</g>
<!-- Node24&#45;&gt;Node25 -->
<g id="edge24_Node000024_Node000025" class="edge">
<title>Node24&#45;&gt;Node25</title>
<g id="a_edge24_Node000024_Node000025"><a xlink:title=" ">
<path fill="none" stroke="#63b8ff" d="M831.74,-39.32C817.81,-37.8 803.8,-36.27 791.01,-34.88"/>
<polygon fill="#63b8ff" stroke="#63b8ff" points="831.53,-42.82 841.85,-40.42 832.29,-35.86 831.53,-42.82"/>
</a>
</g>
</g>
<!-- Node25&#45;&gt;Node2 -->
<g id="edge25_Node000025_Node000002" class="edge">
<title>Node25&#45;&gt;Node2</title>
<g id="a_edge25_Node000025_Node000002"><a xlink:title=" ">
<path fill="none" stroke="#63b8ff" d="M801.07,-16.28C888.05,-1.58 1047.86,15.5 1175,-27.05 1215.97,-40.76 1253.7,-77.78 1270.01,-95.43"/>
<polygon fill="#63b8ff" stroke="#63b8ff" points="800.34,-12.86 791.09,-18.02 801.54,-19.75 800.34,-12.86"/>
</a>
</g>
</g>
</g>
</svg>
