<?xml version="1.0" encoding="UTF-8" standalone="no"?>
<!DOCTYPE svg PUBLIC "-//W3C//DTD SVG 1.1//EN"
 "http://www.w3.org/Graphics/SVG/1.1/DTD/svg11.dtd">
<!-- Generated by graphviz version 14.1.1 (0)
 -->
<!-- Title: iot::mqtt::Session::fromJson Pages: 1 -->
<svg width="443pt" height="146pt"
 viewBox="0.00 0.00 443.00 146.00" xmlns="http://www.w3.org/2000/svg" xmlns:xlink="http://www.w3.org/1999/xlink">
<g id="graph0" class="graph" transform="scale(1 1) rotate(0) translate(4 141.5)">
<title>iot::mqtt::Session::fromJson</title>
<!-- Node1 -->
<g id="Node000001" class="node">
<title>Node1</title>
<g id="a_Node000001"><a xlink:title=" ">
<polygon fill="#999999" stroke="#666666" points="435,-85.5 333.5,-85.5 333.5,-52 435,-52 435,-85.5"/>
<text xml:space="preserve" text-anchor="start" x="341.5" y="-72" font-family="Helvetica,sans-Serif" font-size="10.00">iot::mqtt::Session</text>
<text xml:space="preserve" text-anchor="middle" x="384.25" y="-59.25" font-family="Helvetica,sans-Serif" font-size="10.00">::fromJson</text>
</a>
</g>
</g>
<!-- Node2 -->
<g id="Node000002" class="node">
<title>Node2</title>
<g id="a_Node000002"><a xlink:href="classiot_1_1mqtt_1_1server_1_1broker_1_1Session.html#ac44c1d5af218e86d5335f6906fb3c8f7" target="_top" xlink:title=" ">
<polygon fill="white" stroke="#666666" points="297.5,-137.5 157.75,-137.5 157.75,-104 297.5,-104 297.5,-137.5"/>
<text xml:space="preserve" text-anchor="start" x="165.75" y="-124" font-family="Helvetica,sans-Serif" font-size="10.00">iot::mqtt::server::</text>
<text xml:space="preserve" text-anchor="middle" x="227.62" y="-111.25" font-family="Helvetica,sans-Serif" font-size="10.00">broker::Session::fromJson</text>
</a>
</g>
</g>
<!-- Node1&#45;&gt;Node2 -->
<g id="edge1_Node000001_Node000002" class="edge">
<title>Node1&#45;&gt;Node2</title>
<g id="a_edge1_Node000001_Node000002"><a xlink:title=" ">
<path fill="none" stroke="#63b8ff" d="M322.46,-89.19C308.38,-93.93 293.53,-98.92 279.9,-103.51"/>
<polygon fill="#63b8ff" stroke="#63b8ff" points="323.25,-92.62 331.61,-86.12 321.02,-85.99 323.25,-92.62"/>
</a>
</g>
</g>
<!-- Node4 -->
<g id="Node000004" class="node">
<title>Node4</title>
<g id="a_Node000004"><a xlink:href="classiot_1_1mqtt_1_1client_1_1Mqtt.html#a076a16767a7732eede1b3b3f9cdc9362" target="_top" xlink:title=" ">
<polygon fill="white" stroke="#666666" points="276.12,-85.5 179.12,-85.5 179.12,-52 276.12,-52 276.12,-85.5"/>
<text xml:space="preserve" text-anchor="start" x="187.12" y="-72" font-family="Helvetica,sans-Serif" font-size="10.00">iot::mqtt::client::</text>
<text xml:space="preserve" text-anchor="middle" x="227.62" y="-59.25" font-family="Helvetica,sans-Serif" font-size="10.00">Mqtt::Mqtt</text>
</a>
</g>
</g>
<!-- Node1&#45;&gt;Node4 -->
<g id="edge3_Node000001_Node000004" class="edge">
<title>Node1&#45;&gt;Node4</title>
<g id="a_edge3_Node000001_Node000004"><a xlink:title=" ">
<path fill="none" stroke="#63b8ff" d="M321.74,-68.75C306.68,-68.75 290.78,-68.75 276.47,-68.75"/>
<polygon fill="#63b8ff" stroke="#63b8ff" points="321.53,-72.25 331.53,-68.75 321.53,-65.25 321.53,-72.25"/>
</a>
</g>
</g>
<!-- Node5 -->
<g id="Node000005" class="node">
<title>Node5</title>
<g id="a_Node000005"><a xlink:href="classiot_1_1mqtt_1_1Session.html#a85419ce60a2d2a8062b83cfd2f0fa7a1" target="_top" xlink:title=" ">
<polygon fill="white" stroke="#666666" points="278.38,-33.5 176.88,-33.5 176.88,0 278.38,0 278.38,-33.5"/>
<text xml:space="preserve" text-anchor="start" x="184.88" y="-20" font-family="Helvetica,sans-Serif" font-size="10.00">iot::mqtt::Session</text>
<text xml:space="preserve" text-anchor="middle" x="227.62" y="-7.25" font-family="Helvetica,sans-Serif" font-size="10.00">::Session</text>
</a>
</g>
</g>
<!-- Node1&#45;&gt;Node5 -->
<g id="edge4_Node000001_Node000005" class="edge">
<title>Node1&#45;&gt;Node5</title>
<g id="a_edge4_Node000001_Node000005"><a xlink:title=" ">
<path fill="none" stroke="#63b8ff" d="M322.24,-48.23C307.86,-43.39 292.68,-38.29 278.84,-33.64"/>
<polygon fill="#63b8ff" stroke="#63b8ff" points="321.02,-51.51 331.61,-51.38 323.25,-44.88 321.02,-51.51"/>
</a>
</g>
</g>
<!-- Node3 -->
<g id="Node000003" class="node">
<title>Node3</title>
<g id="a_Node000003"><a xlink:href="classiot_1_1mqtt_1_1server_1_1broker_1_1Broker.html#a7303dbd9eddbfe66c2ff2f827441d2ba" target="_top" xlink:title=" ">
<polygon fill="white" stroke="#666666" points="121.75,-137.5 0,-137.5 0,-104 121.75,-104 121.75,-137.5"/>
<text xml:space="preserve" text-anchor="start" x="8" y="-124" font-family="Helvetica,sans-Serif" font-size="10.00">iot::mqtt::server::</text>
<text xml:space="preserve" text-anchor="middle" x="60.88" y="-111.25" font-family="Helvetica,sans-Serif" font-size="10.00">broker::Broker::Broker</text>
</a>
</g>
</g>
<!-- Node2&#45;&gt;Node3 -->
<g id="edge2_Node000002_Node000003" class="edge">
<title>Node2&#45;&gt;Node3</title>
<g id="a_edge2_Node000002_Node000003"><a xlink:title=" ">
<path fill="none" stroke="#63b8ff" d="M146.27,-120.75C138.15,-120.75 129.99,-120.75 122.13,-120.75"/>
<polygon fill="#63b8ff" stroke="#63b8ff" points="146.2,-124.25 156.2,-120.75 146.2,-117.25 146.2,-124.25"/>
</a>
</g>
</g>
</g>
</svg>
