<?xml version="1.0" encoding="UTF-8" standalone="no"?>
<!DOCTYPE svg PUBLIC "-//W3C//DTD SVG 1.1//EN"
 "http://www.w3.org/Graphics/SVG/1.1/DTD/svg11.dtd">
<!-- Generated by graphviz version 2.42.4 (0)
 -->
<!-- Title: database::mariadb::MariaDBCommandStartEvent Pages: 1 -->
<svg width="1328pt" height="425pt"
 viewBox="0.00 0.00 1328.00 425.00" xmlns="http://www.w3.org/2000/svg" xmlns:xlink="http://www.w3.org/1999/xlink">
<g id="graph0" class="graph" transform="scale(1 1) rotate(0) translate(4 421)">
<title>database::mariadb::MariaDBCommandStartEvent</title>
<!-- Node1 -->
<g id="Node000001" class="node">
<title>Node1</title>
<g id="a_Node000001"><a xlink:title=" ">
<polygon fill="#999999" stroke="transparent" points="611,-252 459,-252 459,-222 611,-222 611,-252"/>
<text text-anchor="start" x="463" y="-240" font-family="Helvetica,sans-Serif" font-size="10.00">database::mariadb::</text>
<text text-anchor="start" x="463" y="-229" font-family="Helvetica,sans-Serif" font-size="10.00">MariaDBCommandStartEvent</text>
<polygon fill="none" stroke="#666666" points="459,-222 459,-252 611,-252 611,-222 459,-222"/>
</a>
</g>
</g>
<!-- Node7 -->
<g id="Node000007" class="node">
<title>Node7</title>
<g id="a_Node000007"><a xlink:href="classdatabase_1_1mariadb_1_1MariaDBConnection.html" target="_top" xlink:title=" ">
<polygon fill="white" stroke="transparent" points="836,-107 730,-107 730,-77 836,-77 836,-107"/>
<text text-anchor="start" x="734" y="-95" font-family="Helvetica,sans-Serif" font-size="10.00">database::mariadb::</text>
<text text-anchor="start" x="734.5" y="-84" font-family="Helvetica,sans-Serif" font-size="10.00">MariaDBConnection</text>
<polygon fill="none" stroke="#666666" points="730,-77 730,-107 836,-107 836,-77 730,-77"/>
</a>
</g>
</g>
<!-- Node1&#45;&gt;Node7 -->
<g id="edge26_Node000007_Node000001" class="edge">
<title>Node1&#45;&gt;Node7</title>
<g id="a_edge26_Node000007_Node000001"><a xlink:title=" ">
<path fill="none" stroke="#63b8ff" d="M574.73,-221.92C595.55,-213.32 620.66,-200.89 640,-185 657.65,-170.5 653.17,-158.28 671,-144 687.86,-130.5 708.87,-119.71 728.12,-111.59"/>
<polygon fill="none" stroke="#63b8ff" points="728.38,-111.48 732.46,-105.53 739.52,-107 735.44,-112.95 728.38,-111.48"/>
</a>
</g>
<text text-anchor="middle" x="724.5" y="-162" font-family="Helvetica,sans-Serif" font-size="10.00" fill="grey"> &#45;commandStartEvent</text>
</g>
<!-- Node2 -->
<g id="Node000002" class="node">
<title>Node2</title>
<g id="a_Node000002"><a xlink:href="classcore_1_1EventReceiver.html" target="_top" xlink:title=" ">
<polygon fill="white" stroke="transparent" points="434,-340 328,-340 328,-321 434,-321 434,-340"/>
<text text-anchor="start" x="332" y="-327.5" font-family="Helvetica,sans-Serif" font-size="10.00">core::EventReceiver</text>
<polygon fill="none" stroke="#666666" points="328,-321 328,-340 434,-340 434,-321 328,-321"/>
</a>
</g>
</g>
<!-- Node2&#45;&gt;Node1 -->
<g id="edge1_Node000001_Node000002" class="edge">
<title>Node2&#45;&gt;Node1</title>
<g id="a_edge1_Node000001_Node000002"><a xlink:title=" ">
<path fill="none" stroke="#8b1a1a" d="M404.09,-315.78C432.93,-298.65 482.02,-269.48 511.19,-252.15"/>
<polygon fill="none" stroke="#8b1a1a" points="402.3,-312.77 395.49,-320.89 405.87,-318.79 402.3,-312.77"/>
</a>
</g>
</g>
<!-- Node3 -->
<g id="Node000003" class="node">
<title>Node3</title>
<g id="a_Node000003"><a xlink:href="classcore_1_1Event.html" target="_top" xlink:title=" ">
<polygon fill="white" stroke="transparent" points="287,-246.5 223,-246.5 223,-227.5 287,-227.5 287,-246.5"/>
<text text-anchor="start" x="227.5" y="-234" font-family="Helvetica,sans-Serif" font-size="10.00">core::Event</text>
<polygon fill="none" stroke="#666666" points="223,-227.5 223,-246.5 287,-246.5 287,-227.5 223,-227.5"/>
</a>
</g>
</g>
<!-- Node2&#45;&gt;Node3 -->
<g id="edge3_Node000003_Node000002" class="edge">
<title>Node2&#45;&gt;Node3</title>
<g id="a_edge3_Node000003_Node000002"><a xlink:title=" ">
<path fill="none" stroke="#63b8ff" d="M327.98,-325.31C296.83,-321.63 261.72,-314.92 252,-303 242.05,-290.79 243.82,-272.6 247.51,-258.56"/>
<polygon fill="none" stroke="#63b8ff" points="247.64,-258.14 245.67,-251.2 251.3,-246.71 253.28,-253.64 247.64,-258.14"/>
</a>
</g>
<text text-anchor="middle" x="291" y="-284" font-family="Helvetica,sans-Serif" font-size="10.00" fill="grey"> &#45;eventReceiver</text>
</g>
<!-- Node9 -->
<g id="Node000009" class="node">
<title>Node9</title>
<g id="a_Node000009"><a xlink:href="classcore_1_1DescriptorEventReceiver.html" target="_top" xlink:title=" ">
<polygon fill="white" stroke="transparent" points="938,-246.5 782,-246.5 782,-227.5 938,-227.5 938,-246.5"/>
<text text-anchor="start" x="786" y="-234" font-family="Helvetica,sans-Serif" font-size="10.00">core::DescriptorEventReceiver</text>
<polygon fill="none" stroke="#666666" points="782,-227.5 782,-246.5 938,-246.5 938,-227.5 782,-227.5"/>
</a>
</g>
</g>
<!-- Node2&#45;&gt;Node9 -->
<g id="edge11_Node000009_Node000002" class="edge">
<title>Node2&#45;&gt;Node9</title>
<g id="a_edge11_Node000009_Node000002"><a xlink:title=" ">
<path fill="none" stroke="#63b8ff" d="M425.56,-318.57C478.41,-305.85 569.27,-284.7 648,-270 697.4,-260.78 753.65,-252.38 795.79,-246.51"/>
<polygon fill="none" stroke="#63b8ff" points="424.73,-315.18 415.83,-320.93 426.37,-321.98 424.73,-315.18"/>
</a>
</g>
</g>
<!-- Node3&#45;&gt;Node2 -->
<g id="edge2_Node000002_Node000003" class="edge">
<title>Node3&#45;&gt;Node2</title>
<g id="a_edge2_Node000002_Node000003"><a xlink:title=" ">
<path fill="none" stroke="#63b8ff" d="M287.22,-246.38C302.5,-251.46 320.35,-259.11 334,-270 347.97,-281.15 345.87,-289.01 357,-303 359.32,-305.91 361.87,-308.92 364.42,-311.81"/>
<polygon fill="none" stroke="#63b8ff" points="364.63,-312.04 371.63,-313.78 372.71,-320.91 365.71,-319.17 364.63,-312.04"/>
</a>
</g>
<text text-anchor="middle" x="374.5" y="-284" font-family="Helvetica,sans-Serif" font-size="10.00" fill="grey"> &#45;event</text>
</g>
<!-- Node4 -->
<g id="Node000004" class="node">
<title>Node4</title>
<g id="a_Node000004"><a xlink:href="classcore_1_1EventMultiplexer.html" target="_top" xlink:title=" ">
<polygon fill="white" stroke="transparent" points="201,-340 81,-340 81,-321 201,-321 201,-340"/>
<text text-anchor="start" x="85.5" y="-327.5" font-family="Helvetica,sans-Serif" font-size="10.00">core::EventMultiplexer</text>
<polygon fill="none" stroke="#666666" points="81,-321 81,-340 201,-340 201,-321 81,-321"/>
</a>
</g>
</g>
<!-- Node4&#45;&gt;Node3 -->
<g id="edge4_Node000003_Node000004" class="edge">
<title>Node4&#45;&gt;Node3</title>
<g id="a_edge4_Node000003_Node000004"><a xlink:title=" ">
<path fill="none" stroke="#63b8ff" d="M138.21,-320.78C134.77,-308.17 130.66,-284.74 142,-270 157.94,-249.29 186.24,-241.3 210.53,-238.48"/>
<polygon fill="none" stroke="#63b8ff" points="210.82,-238.45 216.46,-233.96 222.78,-237.43 217.14,-241.93 210.82,-238.45"/>
</a>
</g>
<text text-anchor="middle" x="187.5" y="-284" font-family="Helvetica,sans-Serif" font-size="10.00" fill="grey"> &#45;eventMultiplexer</text>
</g>
<!-- Node5 -->
<g id="Node000005" class="node">
<title>Node5</title>
<g id="a_Node000005"><a xlink:href="classcore_1_1TimerEventPublisher.html" target="_top" xlink:title=" ">
<polygon fill="white" stroke="transparent" points="136,-411.5 0,-411.5 0,-392.5 136,-392.5 136,-411.5"/>
<text text-anchor="start" x="4" y="-399" font-family="Helvetica,sans-Serif" font-size="10.00">core::TimerEventPublisher</text>
<polygon fill="none" stroke="#666666" points="0,-392.5 0,-411.5 136,-411.5 136,-392.5 0,-392.5"/>
</a>
</g>
</g>
<!-- Node5&#45;&gt;Node4 -->
<g id="edge5_Node000004_Node000005" class="edge">
<title>Node5&#45;&gt;Node4</title>
<g id="a_edge5_Node000004_Node000005"><a xlink:title=" ">
<path fill="none" stroke="#63b8ff" d="M69.68,-392.41C71.93,-382.93 76.75,-367.75 86,-358 90.7,-353.05 96.51,-348.91 102.58,-345.5"/>
<polygon fill="none" stroke="#63b8ff" points="102.82,-345.38 106.45,-339.14 113.6,-340.1 109.97,-346.33 102.82,-345.38"/>
</a>
</g>
<text text-anchor="middle" x="139" y="-361" font-family="Helvetica,sans-Serif" font-size="10.00" fill="grey"> &#45;timerEventPublisher</text>
</g>
<!-- Node6 -->
<g id="Node000006" class="node">
<title>Node6</title>
<g id="a_Node000006"><a xlink:href="classcore_1_1EventMultiplexer_1_1EventQueue.html" target="_top" xlink:title=" ">
<polygon fill="white" stroke="transparent" points="274,-417 154,-417 154,-387 274,-387 274,-417"/>
<text text-anchor="start" x="158.5" y="-405" font-family="Helvetica,sans-Serif" font-size="10.00">core::EventMultiplexer</text>
<text text-anchor="start" x="181" y="-394" font-family="Helvetica,sans-Serif" font-size="10.00">::EventQueue</text>
<polygon fill="none" stroke="#666666" points="154,-387 154,-417 274,-417 274,-387 154,-387"/>
</a>
</g>
</g>
<!-- Node6&#45;&gt;Node4 -->
<g id="edge6_Node000004_Node000006" class="edge">
<title>Node6&#45;&gt;Node4</title>
<g id="a_edge6_Node000004_Node000006"><a xlink:title=" ">
<path fill="none" stroke="#63b8ff" d="M209.33,-386.85C205.75,-377.72 200.04,-366.09 192,-358 187.21,-353.18 181.36,-349.05 175.35,-345.58"/>
<polygon fill="none" stroke="#63b8ff" points="175.23,-345.52 168.07,-346.34 164.55,-340.05 171.72,-339.22 175.23,-345.52"/>
</a>
</g>
<text text-anchor="middle" x="234.5" y="-361" font-family="Helvetica,sans-Serif" font-size="10.00" fill="grey"> &#45;eventQueue</text>
</g>
<!-- Node7&#45;&gt;Node1 -->
<g id="edge7_Node000001_Node000007" class="edge">
<title>Node7&#45;&gt;Node1</title>
<g id="a_edge7_Node000001_Node000007"><a xlink:title=" ">
<path fill="none" stroke="#63b8ff" d="M729.84,-96.27C664.44,-101.53 559.1,-114.45 535,-144 520.19,-162.16 522.36,-189.72 526.9,-209.94"/>
<polygon fill="none" stroke="#63b8ff" points="526.95,-210.11 532.34,-214.9 530,-221.72 524.6,-216.93 526.95,-210.11"/>
</a>
</g>
<text text-anchor="middle" x="587.5" y="-162" font-family="Helvetica,sans-Serif" font-size="10.00" fill="grey"> &#45;mariaDBConnection</text>
</g>
<!-- Node15 -->
<g id="Node000015" class="node">
<title>Node15</title>
<g id="a_Node000015"><a xlink:href="classdatabase_1_1mariadb_1_1MariaDBClient.html" target="_top" xlink:title=" ">
<polygon fill="white" stroke="transparent" points="1058,-30 952,-30 952,0 1058,0 1058,-30"/>
<text text-anchor="start" x="956" y="-18" font-family="Helvetica,sans-Serif" font-size="10.00">database::mariadb::</text>
<text text-anchor="start" x="969.5" y="-7" font-family="Helvetica,sans-Serif" font-size="10.00">MariaDBClient</text>
<polygon fill="none" stroke="#666666" points="952,0 952,-30 1058,-30 1058,0 952,0"/>
</a>
</g>
</g>
<!-- Node7&#45;&gt;Node15 -->
<g id="edge21_Node000015_Node000007" class="edge">
<title>Node7&#45;&gt;Node15</title>
<g id="a_edge21_Node000015_Node000007"><a xlink:title=" ">
<path fill="none" stroke="#63b8ff" d="M821.33,-76.96C834.7,-71.73 849.68,-65.48 863,-59 871.77,-54.73 872.97,-51.71 882,-48 900.42,-40.43 921.15,-34.23 940.26,-29.36"/>
<polygon fill="none" stroke="#63b8ff" points="940.26,-29.36 945.13,-24.04 951.91,-26.5 947.04,-31.81 940.26,-29.36"/>
</a>
</g>
<text text-anchor="middle" x="934.5" y="-51" font-family="Helvetica,sans-Serif" font-size="10.00" fill="grey"> &#45;mariaDBConnection</text>
</g>
<!-- Node19 -->
<g id="Node000019" class="node">
<title>Node19</title>
<g id="a_Node000019"><a xlink:href="classdatabase_1_1mariadb_1_1MariaDBCommand.html" target="_top" xlink:title=" ">
<polygon fill="white" stroke="transparent" points="593,-30 487,-30 487,0 593,0 593,-30"/>
<text text-anchor="start" x="491" y="-18" font-family="Helvetica,sans-Serif" font-size="10.00">database::mariadb::</text>
<text text-anchor="start" x="493.5" y="-7" font-family="Helvetica,sans-Serif" font-size="10.00">MariaDBCommand</text>
<polygon fill="none" stroke="#666666" points="487,0 487,-30 593,-30 593,0 487,0"/>
</a>
</g>
</g>
<!-- Node7&#45;&gt;Node19 -->
<g id="edge24_Node000019_Node000007" class="edge">
<title>Node7&#45;&gt;Node19</title>
<g id="a_edge24_Node000019_Node000007"><a xlink:title=" ">
<path fill="none" stroke="#63b8ff" d="M731.67,-76.97C712.29,-71.54 690.08,-65.16 670,-59 644.34,-51.13 616.02,-41.83 592.38,-33.9"/>
<polygon fill="none" stroke="#63b8ff" points="592.21,-33.84 585.25,-35.72 580.84,-30.01 587.8,-28.14 592.21,-33.84"/>
</a>
</g>
<text text-anchor="middle" x="722.5" y="-51" font-family="Helvetica,sans-Serif" font-size="10.00" fill="grey"> &#45;mariaDBConnection</text>
</g>
<!-- Node8 -->
<g id="Node000008" class="node">
<title>Node8</title>
<g id="a_Node000008"><a xlink:href="classcore_1_1eventreceiver_1_1ReadEventReceiver.html" target="_top" xlink:title=" ">
<polygon fill="white" stroke="transparent" points="1061,-179.5 951,-179.5 951,-149.5 1061,-149.5 1061,-179.5"/>
<text text-anchor="start" x="955" y="-167.5" font-family="Helvetica,sans-Serif" font-size="10.00">core::eventreceiver</text>
<text text-anchor="start" x="955" y="-156.5" font-family="Helvetica,sans-Serif" font-size="10.00">::ReadEventReceiver</text>
<polygon fill="none" stroke="#666666" points="951,-149.5 951,-179.5 1061,-179.5 1061,-149.5 951,-149.5"/>
</a>
</g>
</g>
<!-- Node8&#45;&gt;Node7 -->
<g id="edge8_Node000007_Node000008" class="edge">
<title>Node8&#45;&gt;Node7</title>
<g id="a_edge8_Node000007_Node000008"><a xlink:title=" ">
<path fill="none" stroke="#8b1a1a" d="M951.78,-146.36C913.7,-134.32 863.38,-118.41 827.62,-107.11"/>
<polygon fill="none" stroke="#8b1a1a" points="951.09,-149.81 961.68,-149.49 953.2,-143.14 951.09,-149.81"/>
</a>
</g>
</g>
<!-- Node9&#45;&gt;Node8 -->
<g id="edge9_Node000008_Node000009" class="edge">
<title>Node9&#45;&gt;Node8</title>
<g id="a_edge9_Node000008_Node000009"><a xlink:title=" ">
<path fill="none" stroke="#63b8ff" d="M886.72,-223.1C912.28,-210.76 950.71,-192.2 976.99,-179.51"/>
<polygon fill="none" stroke="#63b8ff" points="885.09,-220 877.61,-227.5 888.14,-226.3 885.09,-220"/>
</a>
</g>
</g>
<!-- Node13 -->
<g id="Node000013" class="node">
<title>Node13</title>
<g id="a_Node000013"><a xlink:href="classcore_1_1eventreceiver_1_1WriteEventReceiver.html" target="_top" xlink:title=" ">
<polygon fill="white" stroke="transparent" points="1191,-179.5 1079,-179.5 1079,-149.5 1191,-149.5 1191,-179.5"/>
<text text-anchor="start" x="1083.5" y="-167.5" font-family="Helvetica,sans-Serif" font-size="10.00">core::eventreceiver</text>
<text text-anchor="start" x="1083.5" y="-156.5" font-family="Helvetica,sans-Serif" font-size="10.00">::WriteEventReceiver</text>
<polygon fill="none" stroke="#666666" points="1079,-149.5 1079,-179.5 1191,-179.5 1191,-149.5 1079,-149.5"/>
</a>
</g>
</g>
<!-- Node9&#45;&gt;Node13 -->
<g id="edge15_Node000013_Node000009" class="edge">
<title>Node9&#45;&gt;Node13</title>
<g id="a_edge15_Node000013_Node000009"><a xlink:title=" ">
<path fill="none" stroke="#63b8ff" d="M907.54,-225.21C950.23,-215.35 1014.52,-200.05 1070,-185 1076.25,-183.3 1082.82,-181.44 1089.28,-179.55"/>
<polygon fill="none" stroke="#63b8ff" points="906.67,-221.82 897.71,-227.48 908.24,-228.65 906.67,-221.82"/>
</a>
</g>
</g>
<!-- Node14 -->
<g id="Node000014" class="node">
<title>Node14</title>
<g id="a_Node000014"><a xlink:href="classcore_1_1eventreceiver_1_1ExceptionalConditionEventReceiver.html" target="_top" xlink:title=" ">
<polygon fill="white" stroke="transparent" points="933,-185 787,-185 787,-144 933,-144 933,-185"/>
<text text-anchor="start" x="791" y="-172.5" font-family="Helvetica,sans-Serif" font-size="10.00">core::eventreceiver</text>
<text text-anchor="start" x="791" y="-161.5" font-family="Helvetica,sans-Serif" font-size="10.00">::ExceptionalConditionEvent</text>
<text text-anchor="start" x="838.5" y="-150.5" font-family="Helvetica,sans-Serif" font-size="10.00">Receiver</text>
<polygon fill="none" stroke="#666666" points="787,-144 787,-185 933,-185 933,-144 787,-144"/>
</a>
</g>
</g>
<!-- Node9&#45;&gt;Node14 -->
<g id="edge17_Node000014_Node000009" class="edge">
<title>Node9&#45;&gt;Node14</title>
<g id="a_edge17_Node000014_Node000009"><a xlink:title=" ">
<path fill="none" stroke="#63b8ff" d="M860,-217.35C860,-207.43 860,-195.23 860,-185.16"/>
<polygon fill="none" stroke="#63b8ff" points="856.5,-217.36 860,-227.36 863.5,-217.36 856.5,-217.36"/>
</a>
</g>
</g>
<!-- Node10 -->
<g id="Node000010" class="node">
<title>Node10</title>
<g id="a_Node000010"><a xlink:href="classcore_1_1Observer.html" target="_top" xlink:title=" ">
<polygon fill="white" stroke="transparent" points="831,-340 751,-340 751,-321 831,-321 831,-340"/>
<text text-anchor="start" x="755" y="-327.5" font-family="Helvetica,sans-Serif" font-size="10.00">core::Observer</text>
<polygon fill="none" stroke="#666666" points="751,-321 751,-340 831,-340 831,-321 751,-321"/>
</a>
</g>
</g>
<!-- Node10&#45;&gt;Node9 -->
<g id="edge10_Node000009_Node000010" class="edge">
<title>Node10&#45;&gt;Node9</title>
<g id="a_edge10_Node000009_Node000010"><a xlink:title=" ">
<path fill="none" stroke="darkgreen" d="M803.67,-312.7C818.4,-293.17 842.13,-261.7 853.5,-246.61"/>
<polygon fill="none" stroke="darkgreen" points="800.84,-310.63 797.62,-320.73 806.43,-314.85 800.84,-310.63"/>
</a>
</g>
</g>
<!-- Node11 -->
<g id="Node000011" class="node">
<title>Node11</title>
<g id="a_Node000011"><a xlink:href="classcore_1_1DescriptorEventPublisher.html" target="_top" xlink:title=" ">
<polygon fill="white" stroke="transparent" points="1009,-340 849,-340 849,-321 1009,-321 1009,-340"/>
<text text-anchor="start" x="853.5" y="-327.5" font-family="Helvetica,sans-Serif" font-size="10.00">core::DescriptorEventPublisher</text>
<polygon fill="none" stroke="#666666" points="849,-321 849,-340 1009,-340 1009,-321 849,-321"/>
</a>
</g>
</g>
<!-- Node11&#45;&gt;Node9 -->
<g id="edge12_Node000009_Node000011" class="edge">
<title>Node11&#45;&gt;Node9</title>
<g id="a_edge12_Node000009_Node000011"><a xlink:title=" ">
<path fill="none" stroke="#63b8ff" d="M922.38,-320.73C911.23,-305.93 888.45,-275.73 873.72,-256.2"/>
<polygon fill="none" stroke="#63b8ff" points="873.72,-256.19 866.91,-253.81 866.5,-246.61 873.3,-249 873.72,-256.19"/>
</a>
</g>
<text text-anchor="middle" x="972.5" y="-284" font-family="Helvetica,sans-Serif" font-size="10.00" fill="grey"> &#45;descriptorEventPublisher</text>
</g>
<!-- Node12 -->
<g id="Node000012" class="node">
<title>Node12</title>
<g id="a_Node000012"><a xlink:href="classutils_1_1Timeval.html" target="_top" xlink:title=" ">
<polygon fill="white" stroke="transparent" points="631,-340 555,-340 555,-321 631,-321 631,-340"/>
<text text-anchor="start" x="559.5" y="-327.5" font-family="Helvetica,sans-Serif" font-size="10.00">utils::Timeval</text>
<polygon fill="none" stroke="#666666" points="555,-321 555,-340 631,-340 631,-321 555,-321"/>
</a>
</g>
</g>
<!-- Node12&#45;&gt;Node9 -->
<g id="edge13_Node000009_Node000012" class="edge">
<title>Node12&#45;&gt;Node9</title>
<g id="a_edge13_Node000009_Node000012"><a xlink:title=" ">
<path fill="none" stroke="#63b8ff" d="M610.64,-320.87C636.69,-308.37 687.22,-285.07 732,-270 756.31,-261.82 783.84,-254.67 807.13,-249.22"/>
<polygon fill="none" stroke="#63b8ff" points="807.18,-249.21 812.14,-243.97 818.88,-246.53 813.93,-251.76 807.18,-249.21"/>
</a>
</g>
<text text-anchor="middle" x="769.5" y="-295" font-family="Helvetica,sans-Serif" font-size="10.00" fill="grey"> &#45;initialTimeout</text>
<text text-anchor="middle" x="769.5" y="-284" font-family="Helvetica,sans-Serif" font-size="10.00" fill="grey">&#45;lastTriggered</text>
<text text-anchor="middle" x="769.5" y="-273" font-family="Helvetica,sans-Serif" font-size="10.00" fill="grey">&#45;maxInactivity</text>
</g>
<!-- Node12&#45;&gt;Node19 -->
<g id="edge25_Node000019_Node000012" class="edge">
<title>Node12&#45;&gt;Node19</title>
<g id="a_edge25_Node000019_Node000012"><a xlink:title=" ">
<path fill="none" stroke="#63b8ff" d="M554.61,-324.79C506.7,-316.53 431,-294.53 431,-238 431,-238 431,-238 431,-91 431,-64.41 453.29,-46.53 477.71,-34.92"/>
<polygon fill="none" stroke="#63b8ff" points="478,-34.79 481.91,-28.74 489.01,-30.02 485.1,-36.08 478,-34.79"/>
</a>
</g>
<text text-anchor="middle" x="458" y="-162" font-family="Helvetica,sans-Serif" font-size="10.00" fill="grey"> &#45;startTime</text>
</g>
<!-- Node13&#45;&gt;Node7 -->
<g id="edge14_Node000007_Node000013" class="edge">
<title>Node13&#45;&gt;Node7</title>
<g id="a_edge14_Node000007_Node000013"><a xlink:title=" ">
<path fill="none" stroke="#8b1a1a" d="M1080.98,-146.78C1077.28,-145.79 1073.59,-144.86 1070,-144 989.14,-124.75 893.89,-109.21 836.01,-100.54"/>
<polygon fill="none" stroke="#8b1a1a" points="1080.21,-150.2 1090.78,-149.49 1082.07,-143.45 1080.21,-150.2"/>
</a>
</g>
</g>
<!-- Node14&#45;&gt;Node7 -->
<g id="edge16_Node000007_Node000014" class="edge">
<title>Node14&#45;&gt;Node7</title>
<g id="a_edge16_Node000007_Node000014"><a xlink:title=" ">
<path fill="none" stroke="#8b1a1a" d="M831.17,-137.1C820.17,-127.03 808.05,-115.94 798.72,-107.39"/>
<polygon fill="none" stroke="#8b1a1a" points="828.81,-139.69 838.55,-143.86 833.54,-134.53 828.81,-139.69"/>
</a>
</g>
</g>
<!-- Node15&#45;&gt;Node7 -->
<g id="edge18_Node000007_Node000015" class="edge">
<title>Node15&#45;&gt;Node7</title>
<g id="a_edge18_Node000007_Node000015"><a xlink:title=" ">
<path fill="none" stroke="#63b8ff" d="M951.75,-16.12C893.5,-17.5 805.53,-23.7 784,-48 779.94,-52.58 778.38,-58.63 778.13,-64.75"/>
<polygon fill="none" stroke="#63b8ff" points="778.15,-64.97 782.6,-70.64 779.09,-76.93 774.63,-71.26 778.15,-64.97"/>
</a>
</g>
<text text-anchor="middle" x="823.5" y="-51" font-family="Helvetica,sans-Serif" font-size="10.00" fill="grey"> &#45;mariaDBClient</text>
</g>
<!-- Node16 -->
<g id="Node000016" class="node">
<title>Node16</title>
<g id="a_Node000016"><a xlink:href="classdatabase_1_1mariadb_1_1MariaDBClientASyncAPI.html" target="_top" xlink:title=" ">
<polygon fill="white" stroke="transparent" points="1320,-107 1194,-107 1194,-77 1320,-77 1320,-107"/>
<text text-anchor="start" x="1198.5" y="-95" font-family="Helvetica,sans-Serif" font-size="10.00">database::mariadb::</text>
<text text-anchor="start" x="1198.5" y="-84" font-family="Helvetica,sans-Serif" font-size="10.00">MariaDBClientASyncAPI</text>
<polygon fill="none" stroke="#666666" points="1194,-77 1194,-107 1320,-107 1320,-77 1194,-77"/>
</a>
</g>
</g>
<!-- Node16&#45;&gt;Node15 -->
<g id="edge19_Node000015_Node000016" class="edge">
<title>Node16&#45;&gt;Node15</title>
<g id="a_edge19_Node000015_Node000016"><a xlink:title=" ">
<path fill="none" stroke="#63b8ff" d="M1200.08,-74.06C1155.5,-60.79 1094.21,-42.55 1052.3,-30.08"/>
<polygon fill="none" stroke="#63b8ff" points="1199.31,-77.48 1209.9,-76.98 1201.31,-70.77 1199.31,-77.48"/>
</a>
</g>
</g>
<!-- Node17 -->
<g id="Node000017" class="node">
<title>Node17</title>
<g id="a_Node000017"><a xlink:href="classdatabase_1_1mariadb_1_1MariaDBClientSyncAPI.html" target="_top" xlink:title=" ">
<polygon fill="white" stroke="transparent" points="1018,-107 900,-107 900,-77 1018,-77 1018,-107"/>
<text text-anchor="start" x="904" y="-95" font-family="Helvetica,sans-Serif" font-size="10.00">database::mariadb::</text>
<text text-anchor="start" x="904" y="-84" font-family="Helvetica,sans-Serif" font-size="10.00">MariaDBClientSyncAPI</text>
<polygon fill="none" stroke="#666666" points="900,-77 900,-107 1018,-107 1018,-77 900,-77"/>
</a>
</g>
</g>
<!-- Node17&#45;&gt;Node15 -->
<g id="edge20_Node000015_Node000017" class="edge">
<title>Node17&#45;&gt;Node15</title>
<g id="a_edge20_Node000015_Node000017"><a xlink:title=" ">
<path fill="none" stroke="#63b8ff" d="M983.01,-69.63C985.96,-66.28 988.74,-62.69 991,-59 996.42,-50.17 999.97,-39.01 1002.14,-30.27"/>
<polygon fill="none" stroke="#63b8ff" points="980.34,-67.35 975.92,-76.98 985.38,-72.21 980.34,-67.35"/>
</a>
</g>
</g>
<!-- Node18 -->
<g id="Node000018" class="node">
<title>Node18</title>
<g id="a_Node000018"><a xlink:href="structdatabase_1_1mariadb_1_1MariaDBConnectionDetails.html" target="_top" xlink:title=" ">
<polygon fill="white" stroke="transparent" points="1176,-107 1036,-107 1036,-77 1176,-77 1176,-107"/>
<text text-anchor="start" x="1040" y="-95" font-family="Helvetica,sans-Serif" font-size="10.00">database::mariadb::</text>
<text text-anchor="start" x="1040" y="-84" font-family="Helvetica,sans-Serif" font-size="10.00">MariaDBConnectionDetails</text>
<polygon fill="none" stroke="#666666" points="1036,-77 1036,-107 1176,-107 1176,-77 1036,-77"/>
</a>
</g>
</g>
<!-- Node18&#45;&gt;Node15 -->
<g id="edge22_Node000015_Node000018" class="edge">
<title>Node18&#45;&gt;Node15</title>
<g id="a_edge22_Node000015_Node000018"><a xlink:title=" ">
<path fill="none" stroke="#63b8ff" d="M1087,-76.89C1072.05,-65.79 1050.96,-50.13 1033.91,-37.47"/>
<polygon fill="none" stroke="#63b8ff" points="1033.55,-37.2 1026.34,-36.83 1023.91,-30.04 1031.11,-30.41 1033.55,-37.2"/>
</a>
</g>
<text text-anchor="middle" x="1081" y="-51" font-family="Helvetica,sans-Serif" font-size="10.00" fill="grey"> &#45;details</text>
</g>
<!-- Node19&#45;&gt;Node7 -->
<g id="edge23_Node000007_Node000019" class="edge">
<title>Node19&#45;&gt;Node7</title>
<g id="a_edge23_Node000007_Node000019"><a xlink:title=" ">
<path fill="none" stroke="#63b8ff" d="M536.06,-30.1C534.37,-39.43 534.12,-51.33 541,-59 563.82,-84.43 653.91,-90.52 717.46,-91.55"/>
<polygon fill="none" stroke="#63b8ff" points="717.8,-91.55 723.84,-87.62 729.79,-91.69 723.75,-95.62 717.8,-91.55"/>
</a>
</g>
<text text-anchor="middle" x="587" y="-51" font-family="Helvetica,sans-Serif" font-size="10.00" fill="grey"> &#45;currentCommand</text>
</g>
</g>
</svg>
