<?xml version="1.0" encoding="UTF-8" standalone="no"?>
<!DOCTYPE svg PUBLIC "-//W3C//DTD SVG 1.1//EN"
 "http://www.w3.org/Graphics/SVG/1.1/DTD/svg11.dtd">
<!-- Generated by graphviz version 14.1.1 (0)
 -->
<!-- Title: iot::mqtt::packets::Pubcomp::getPacketIdentifier Pages: 1 -->
<svg width="577pt" height="94pt"
 viewBox="0.00 0.00 577.00 94.00" xmlns="http://www.w3.org/2000/svg" xmlns:xlink="http://www.w3.org/1999/xlink">
<g id="graph0" class="graph" transform="scale(1 1) rotate(0) translate(4 89.5)">
<title>iot::mqtt::packets::Pubcomp::getPacketIdentifier</title>
<!-- Node1 -->
<g id="Node000001" class="node">
<title>Node1</title>
<g id="a_Node000001"><a xlink:title=" ">
<polygon fill="#999999" stroke="#666666" points="568.5,-59.5 403.25,-59.5 403.25,-26 568.5,-26 568.5,-59.5"/>
<text xml:space="preserve" text-anchor="start" x="411.25" y="-46" font-family="Helvetica,sans-Serif" font-size="10.00">iot::mqtt::packets</text>
<text xml:space="preserve" text-anchor="middle" x="485.88" y="-33.25" font-family="Helvetica,sans-Serif" font-size="10.00">::Pubcomp::getPacketIdentifier</text>
</a>
</g>
</g>
<!-- Node2 -->
<g id="Node000002" class="node">
<title>Node2</title>
<g id="a_Node000002"><a xlink:href="classiot_1_1mqtt_1_1Mqtt.html#af9d3d4076d46f8d1d78686d375ccc85d" target="_top" xlink:title=" ">
<polygon fill="white" stroke="#666666" points="367.25,-53.12 212.5,-53.12 212.5,-32.38 367.25,-32.38 367.25,-53.12"/>
<text xml:space="preserve" text-anchor="middle" x="289.88" y="-39.62" font-family="Helvetica,sans-Serif" font-size="10.00">iot::mqtt::Mqtt::_onPubcomp</text>
</a>
</g>
</g>
<!-- Node1&#45;&gt;Node2 -->
<g id="edge1_Node000001_Node000002" class="edge">
<title>Node1&#45;&gt;Node2</title>
<g id="a_edge1_Node000001_Node000002"><a xlink:title=" ">
<path fill="none" stroke="#63b8ff" d="M391.58,-42.75C383.56,-42.75 375.5,-42.75 367.63,-42.75"/>
<polygon fill="#63b8ff" stroke="#63b8ff" points="391.37,-46.25 401.37,-42.75 391.37,-39.25 391.37,-46.25"/>
</a>
</g>
</g>
<!-- Node3 -->
<g id="Node000003" class="node">
<title>Node3</title>
<g id="a_Node000003"><a xlink:href="classiot_1_1mqtt_1_1client_1_1packets_1_1Pubcomp.html#a8a923f32be6e0f8b9b901cd3fbc2d565" target="_top" xlink:title=" ">
<polygon fill="white" stroke="#666666" points="176.5,-85.5 0,-85.5 0,-52 176.5,-52 176.5,-85.5"/>
<text xml:space="preserve" text-anchor="start" x="8" y="-72" font-family="Helvetica,sans-Serif" font-size="10.00">iot::mqtt::client::</text>
<text xml:space="preserve" text-anchor="middle" x="88.25" y="-59.25" font-family="Helvetica,sans-Serif" font-size="10.00">packets::Pubcomp::deliverPacket</text>
</a>
</g>
</g>
<!-- Node2&#45;&gt;Node3 -->
<g id="edge2_Node000002_Node000003" class="edge">
<title>Node2&#45;&gt;Node3</title>
<g id="a_edge2_Node000002_Node000003"><a xlink:title=" ">
<path fill="none" stroke="#63b8ff" d="M201.06,-54.19C193.07,-55.23 184.97,-56.28 176.98,-57.32"/>
<polygon fill="#63b8ff" stroke="#63b8ff" points="201.3,-57.69 210.76,-52.92 200.4,-50.74 201.3,-57.69"/>
</a>
</g>
</g>
<!-- Node4 -->
<g id="Node000004" class="node">
<title>Node4</title>
<g id="a_Node000004"><a xlink:href="classiot_1_1mqtt_1_1server_1_1packets_1_1Pubcomp.html#afdf7a3c71d196f70141d07dd71d3ab24" target="_top" xlink:title=" ">
<polygon fill="white" stroke="#666666" points="176.5,-33.5 0,-33.5 0,0 176.5,0 176.5,-33.5"/>
<text xml:space="preserve" text-anchor="start" x="8" y="-20" font-family="Helvetica,sans-Serif" font-size="10.00">iot::mqtt::server::</text>
<text xml:space="preserve" text-anchor="middle" x="88.25" y="-7.25" font-family="Helvetica,sans-Serif" font-size="10.00">packets::Pubcomp::deliverPacket</text>
</a>
</g>
</g>
<!-- Node2&#45;&gt;Node4 -->
<g id="edge3_Node000002_Node000004" class="edge">
<title>Node2&#45;&gt;Node4</title>
<g id="a_edge3_Node000002_Node000004"><a xlink:title=" ">
<path fill="none" stroke="#63b8ff" d="M201.06,-31.31C193.07,-30.27 184.97,-29.22 176.98,-28.18"/>
<polygon fill="#63b8ff" stroke="#63b8ff" points="200.4,-34.76 210.76,-32.58 201.3,-27.81 200.4,-34.76"/>
</a>
</g>
</g>
</g>
</svg>
