<?xml version="1.0" encoding="UTF-8" standalone="no"?>
<!DOCTYPE svg PUBLIC "-//W3C//DTD SVG 1.1//EN"
 "http://www.w3.org/Graphics/SVG/1.1/DTD/svg11.dtd">
<!-- Generated by graphviz version 2.42.4 (0)
 -->
<!-- Title: core::socket::stream::SocketConnection Pages: 1 -->
<svg width="470pt" height="328pt"
 viewBox="0.00 0.00 470.00 328.00" xmlns="http://www.w3.org/2000/svg" xmlns:xlink="http://www.w3.org/1999/xlink">

<svg id="main" version="1.1" xmlns="http://www.w3.org/2000/svg" xmlns:xlink="http://www.w3.org/1999/xlink" xml:space="preserve" onload="init(evt)">
<style type="text/css"><![CDATA[
.node, .edge {opacity: 0.7;}
.node.selected, .edge.selected {opacity: 1;}
.edge:hover path { stroke: red; }
.edge:hover polygon { stroke: red; fill: red; }
]]></style>
<script type="application/ecmascript" xlink:href="svg.min.js"/>
<svg id="graph" class="graph">
<g id="graph0" class="graph" transform="scale(1 1) rotate(0) translate(4 324)">
<title>core::socket::stream::SocketConnection</title>
<!-- Node1 -->
<g id="Node000001" class="node">
<title>Node1</title>
<g id="a_Node000001"><a xlink:title=" ">
<polygon fill="#999999" stroke="transparent" points="363,-107 255,-107 255,-77 363,-77 363,-107"/>
<text text-anchor="start" x="259" y="-95" font-family="Helvetica,sans-Serif" font-size="10.00">core::socket::stream</text>
<text text-anchor="start" x="262" y="-84" font-family="Helvetica,sans-Serif" font-size="10.00">::SocketConnection</text>
<polygon fill="none" stroke="#666666" points="255,-77 255,-107 363,-107 363,-77 255,-77"/>
</a>
</g>
</g>
<!-- Node2 -->
<g id="Node000002" class="node">
<title>Node2</title>
<g id="a_Node000002"><a xlink:href="classcore_1_1socket_1_1stream_1_1SocketContext.html" target="_top" xlink:title=" ">
<polygon fill="white" stroke="transparent" points="242,-30 134,-30 134,0 242,0 242,-30"/>
<text text-anchor="start" x="138" y="-18" font-family="Helvetica,sans-Serif" font-size="10.00">core::socket::stream</text>
<text text-anchor="start" x="149.5" y="-7" font-family="Helvetica,sans-Serif" font-size="10.00">::SocketContext</text>
<polygon fill="none" stroke="#666666" points="134,0 134,-30 242,-30 242,0 134,0"/>
</a>
</g>
</g>
<!-- Node1&#45;&gt;Node2 -->
<g id="edge3_Node000002_Node000001" class="edge">
<title>Node1&#45;&gt;Node2</title>
<g id="a_edge3_Node000002_Node000001"><a xlink:title=" ">
<path fill="none" stroke="#63b8ff" d="M254.79,-85.19C236.01,-80.7 216.15,-72.81 202,-59 197.28,-54.39 194.14,-48.17 192.07,-41.89"/>
<polygon fill="none" stroke="#63b8ff" points="192.05,-41.83 186.76,-36.93 189.24,-30.16 194.54,-35.06 192.05,-41.83"/>
</a>
</g>
<text text-anchor="middle" x="249" y="-51" font-family="Helvetica,sans-Serif" font-size="10.00" fill="grey"> &#45;socketConnection</text>
</g>
<!-- Node2&#45;&gt;Node1 -->
<g id="edge1_Node000001_Node000002" class="edge">
<title>Node2&#45;&gt;Node1</title>
<g id="a_edge1_Node000001_Node000002"><a xlink:title=" ">
<path fill="none" stroke="#63b8ff" d="M242.1,-19.69C262.86,-23.82 285.12,-32.01 300,-48 304.26,-52.58 306.71,-58.63 308.08,-64.74"/>
<polygon fill="none" stroke="#63b8ff" points="308.11,-65.02 312.82,-70.48 309.6,-76.93 304.89,-71.47 308.11,-65.02"/>
</a>
</g>
<text text-anchor="middle" x="347" y="-51" font-family="Helvetica,sans-Serif" font-size="10.00" fill="grey"> #socketContext</text>
</g>
<!-- Node2&#45;&gt;Node2 -->
<g id="edge4_Node000002_Node000002" class="edge">
<title>Node2&#45;&gt;Node2</title>
<g id="a_edge4_Node000002_Node000002"><a xlink:title=" ">
<path fill="none" stroke="#63b8ff" d="M242.01,-21.81C252.53,-21.02 260,-18.75 260,-15 260,-12.95 257.77,-11.34 254.02,-10.18"/>
<polygon fill="none" stroke="#63b8ff" points="253.85,-10.15 247.27,-13.12 242.01,-8.19 248.58,-5.22 253.85,-10.15"/>
</a>
</g>
<text text-anchor="middle" x="309" y="-12.5" font-family="Helvetica,sans-Serif" font-size="10.00" fill="grey"> &#45;newSocketContext</text>
</g>
<!-- Node3 -->
<g id="Node000003" class="node">
<title>Node3</title>
<g id="a_Node000003"><a xlink:href="classcore_1_1socket_1_1SocketContext.html" target="_top" xlink:title=" ">
<polygon fill="white" stroke="transparent" points="144,-101.5 0,-101.5 0,-82.5 144,-82.5 144,-101.5"/>
<text text-anchor="start" x="4" y="-89" font-family="Helvetica,sans-Serif" font-size="10.00">core::socket::SocketContext</text>
<polygon fill="none" stroke="#666666" points="0,-82.5 0,-101.5 144,-101.5 144,-82.5 0,-82.5"/>
</a>
</g>
</g>
<!-- Node3&#45;&gt;Node2 -->
<g id="edge2_Node000002_Node000003" class="edge">
<title>Node3&#45;&gt;Node2</title>
<g id="a_edge2_Node000002_Node000003"><a xlink:title=" ">
<path fill="none" stroke="#63b8ff" d="M93.76,-76.93C114.46,-63.55 145.45,-43.51 166.17,-30.11"/>
<polygon fill="none" stroke="#63b8ff" points="91.8,-74.03 85.31,-82.4 95.6,-79.91 91.8,-74.03"/>
</a>
</g>
</g>
<!-- Node4 -->
<g id="Node000004" class="node">
<title>Node4</title>
<g id="a_Node000004"><a xlink:title=" ">
<polygon fill="white" stroke="transparent" points="299,-253 241,-253 241,-234 299,-234 299,-253"/>
<text text-anchor="start" x="245.5" y="-240.5" font-family="Helvetica,sans-Serif" font-size="10.00">std::string</text>
<polygon fill="none" stroke="#666666" points="241,-234 241,-253 299,-253 299,-234 241,-234"/>
</a>
</g>
</g>
<!-- Node4&#45;&gt;Node1 -->
<g id="edge7_Node000001_Node000004" class="edge">
<title>Node4&#45;&gt;Node1</title>
<g id="a_edge7_Node000001_Node000004"><a xlink:title=" ">
<path fill="none" stroke="#63b8ff" d="M299.16,-242.7C320.3,-241.12 347.61,-235.12 362,-216 385.41,-184.89 355.53,-141.86 332.05,-115.81"/>
<polygon fill="none" stroke="#63b8ff" points="332.02,-115.78 324.99,-114.14 323.8,-107.03 330.82,-108.66 332.02,-115.78"/>
</a>
</g>
<text text-anchor="middle" x="415" y="-168" font-family="Helvetica,sans-Serif" font-size="10.00" fill="grey"> #connectionName</text>
<text text-anchor="middle" x="415" y="-157" font-family="Helvetica,sans-Serif" font-size="10.00" fill="grey">#instanceName</text>
</g>
<!-- Node4&#45;&gt;Node2 -->
<g id="edge5_Node000002_Node000004" class="edge">
<title>Node4&#45;&gt;Node2</title>
<g id="a_edge5_Node000002_Node000004"><a xlink:title=" ">
<path fill="none" stroke="#63b8ff" d="M253.01,-233.97C233.93,-223.33 203.96,-203.19 191,-176 170.4,-132.8 176.17,-75.29 182.14,-42.29"/>
<polygon fill="none" stroke="#63b8ff" points="182.22,-41.92 179.46,-35.25 184.55,-30.15 187.31,-36.81 182.22,-41.92"/>
</a>
</g>
<text text-anchor="middle" x="211" y="-128" font-family="Helvetica,sans-Serif" font-size="10.00" fill="grey"> &#45;onlineSince</text>
</g>
<!-- Node6 -->
<g id="Node000006" class="node">
<title>Node6</title>
<g id="a_Node000006"><a xlink:href="classnet_1_1config_1_1ConfigInstance.html" target="_top" xlink:title=" ">
<polygon fill="white" stroke="transparent" points="340,-174.5 200,-174.5 200,-155.5 340,-155.5 340,-174.5"/>
<text text-anchor="start" x="204.5" y="-162" font-family="Helvetica,sans-Serif" font-size="10.00">net::config::ConfigInstance</text>
<polygon fill="none" stroke="#666666" points="200,-155.5 200,-174.5 340,-174.5 340,-155.5 200,-155.5"/>
</a>
</g>
</g>
<!-- Node4&#45;&gt;Node6 -->
<g id="edge9_Node000006_Node000004" class="edge">
<title>Node4&#45;&gt;Node6</title>
<g id="a_edge9_Node000006_Node000004"><a xlink:title=" ">
<path fill="none" stroke="#63b8ff" d="M270,-233.72C270,-222.43 270,-202.42 270,-187.08"/>
<polygon fill="none" stroke="#63b8ff" points="270,-186.67 266,-180.67 270,-174.67 274,-180.67 270,-186.67"/>
</a>
</g>
<text text-anchor="middle" x="315" y="-208" font-family="Helvetica,sans-Serif" font-size="10.00" fill="grey"> &#45;instanceName</text>
<text text-anchor="middle" x="315" y="-197" font-family="Helvetica,sans-Serif" font-size="10.00" fill="grey">&#45;nameAnonymous</text>
</g>
<!-- Node5 -->
<g id="Node000005" class="node">
<title>Node5</title>
<g id="a_Node000005"><a xlink:title=" ">
<polygon fill="white" stroke="transparent" points="318,-320 222,-320 222,-290 318,-290 318,-320"/>
<text text-anchor="start" x="226" y="-308" font-family="Helvetica,sans-Serif" font-size="10.00">std::basic_string&lt;</text>
<text text-anchor="start" x="251.5" y="-297" font-family="Helvetica,sans-Serif" font-size="10.00"> Char &gt;</text>
<polygon fill="none" stroke="#666666" points="222,-290 222,-320 318,-320 318,-290 222,-290"/>
</a>
</g>
</g>
<!-- Node5&#45;&gt;Node4 -->
<g id="edge6_Node000004_Node000005" class="edge">
<title>Node5&#45;&gt;Node4</title>
<g id="a_edge6_Node000004_Node000005"><a xlink:title=" ">
<path fill="none" stroke="#63b8ff" d="M270,-279.79C270,-270.36 270,-260.15 270,-253.16"/>
<polygon fill="none" stroke="#63b8ff" points="266.5,-279.9 270,-289.9 273.5,-279.9 266.5,-279.9"/>
</a>
</g>
</g>
<!-- Node6&#45;&gt;Node1 -->
<g id="edge8_Node000001_Node000006" class="edge">
<title>Node6&#45;&gt;Node1</title>
<g id="a_edge8_Node000001_Node000006"><a xlink:title=" ">
<path fill="none" stroke="#63b8ff" d="M274.78,-155.29C279.88,-146.01 288.18,-130.9 295.34,-117.88"/>
<polygon fill="none" stroke="#63b8ff" points="295.44,-117.69 294.82,-110.51 301.21,-107.18 301.83,-114.36 295.44,-117.69"/>
</a>
</g>
<text text-anchor="middle" x="308.5" y="-128" font-family="Helvetica,sans-Serif" font-size="10.00" fill="grey"> &#45;config</text>
</g>
</g>
</svg>
</svg>

<style type='text/css'>
<![CDATA[
[data-mouse-over-selected='false'] { opacity: 0.7; }
[data-mouse-over-selected='true']  { opacity: 1.0; }
]]>
</style>
<script type="application/ecmascript"><![CDATA[
document.addEventListener('DOMContentLoaded', (event) => {
  highlightEdges();
  highlightAdjacentNodes();
});
]]></script>
</svg>
