<?xml version="1.0" encoding="UTF-8" standalone="no"?>
<!DOCTYPE svg PUBLIC "-//W3C//DTD SVG 1.1//EN"
 "http://www.w3.org/Graphics/SVG/1.1/DTD/svg11.dtd">
<!-- Generated by graphviz version 2.43.0 (0)
 -->
<!-- Title: core::EventMultiplexer::EventQueue::insert Pages: 1 -->
<svg width="1852pt" height="722pt"
 viewBox="0.00 0.00 1852.00 721.50" xmlns="http://www.w3.org/2000/svg" xmlns:xlink="http://www.w3.org/1999/xlink">
<g id="graph0" class="graph" transform="scale(1 1) rotate(0) translate(4 717.5)">
<title>core::EventMultiplexer::EventQueue::insert</title>
<!-- Node1 -->
<g id="Node000001" class="node">
<title>Node1</title>
<g id="a_Node000001"><a xlink:title=" ">
<polygon fill="#999999" stroke="#666666" points="1844,-366 1730,-366 1730,-336 1844,-336 1844,-366"/>
<text text-anchor="start" x="1738" y="-354" font-family="Helvetica,sans-Serif" font-size="10.00">core::EventMultiplexer</text>
<text text-anchor="middle" x="1787" y="-343" font-family="Helvetica,sans-Serif" font-size="10.00">::EventQueue::insert</text>
</a>
</g>
</g>
<!-- Node2 -->
<g id="Node000002" class="node">
<title>Node2</title>
<g id="a_Node000002"><a xlink:href="classcore_1_1EventMultiplexer.html#a61d96e95daaebfe6c3b980a2a847bb21" target="_top" xlink:title=" ">
<polygon fill="white" stroke="#666666" points="1694,-366 1580,-366 1580,-336 1694,-336 1694,-366"/>
<text text-anchor="start" x="1588" y="-354" font-family="Helvetica,sans-Serif" font-size="10.00">core::EventMultiplexer</text>
<text text-anchor="middle" x="1637" y="-343" font-family="Helvetica,sans-Serif" font-size="10.00">::span</text>
</a>
</g>
</g>
<!-- Node1&#45;&gt;Node2 -->
<g id="edge1_Node000001_Node000002" class="edge">
<title>Node1&#45;&gt;Node2</title>
<g id="a_edge1_Node000001_Node000002"><a xlink:title=" ">
<path fill="none" stroke="#63b8ff" d="M1719.44,-351C1711.02,-351 1702.46,-351 1694.22,-351"/>
<polygon fill="#63b8ff" stroke="#63b8ff" points="1719.63,-354.5 1729.63,-351 1719.63,-347.5 1719.63,-354.5"/>
</a>
</g>
</g>
<!-- Node3 -->
<g id="Node000003" class="node">
<title>Node3</title>
<g id="a_Node000003"><a xlink:href="classcore_1_1Event.html#a0a68a616082e2b1aece96499a439884f" target="_top" xlink:title=" ">
<polygon fill="white" stroke="#666666" points="1544,-360.5 1450,-360.5 1450,-341.5 1544,-341.5 1544,-360.5"/>
<text text-anchor="middle" x="1497" y="-348.5" font-family="Helvetica,sans-Serif" font-size="10.00">core::Event::span</text>
</a>
</g>
</g>
<!-- Node2&#45;&gt;Node3 -->
<g id="edge2_Node000002_Node000003" class="edge">
<title>Node2&#45;&gt;Node3</title>
<g id="a_edge2_Node000002_Node000003"><a xlink:title=" ">
<path fill="none" stroke="#63b8ff" d="M1569.83,-351C1561.23,-351 1552.57,-351 1544.38,-351"/>
<polygon fill="#63b8ff" stroke="#63b8ff" points="1569.87,-354.5 1579.87,-351 1569.87,-347.5 1569.87,-354.5"/>
</a>
</g>
</g>
<!-- Node4 -->
<g id="Node000004" class="node">
<title>Node4</title>
<g id="a_Node000004"><a xlink:href="classcore_1_1EventReceiver.html#ad353e97a9089b2769e52f8825e4878b1" target="_top" xlink:title=" ">
<polygon fill="white" stroke="#666666" points="1414,-366 1308,-366 1308,-336 1414,-336 1414,-366"/>
<text text-anchor="start" x="1316" y="-354" font-family="Helvetica,sans-Serif" font-size="10.00">core::EventReceiver</text>
<text text-anchor="middle" x="1361" y="-343" font-family="Helvetica,sans-Serif" font-size="10.00">::span</text>
</a>
</g>
</g>
<!-- Node3&#45;&gt;Node4 -->
<g id="edge3_Node000003_Node000004" class="edge">
<title>Node3&#45;&gt;Node4</title>
<g id="a_edge3_Node000003_Node000004"><a xlink:title=" ">
<path fill="none" stroke="#63b8ff" d="M1439.71,-351C1431.25,-351 1422.55,-351 1414.18,-351"/>
<polygon fill="#63b8ff" stroke="#63b8ff" points="1439.88,-354.5 1449.88,-351 1439.88,-347.5 1439.88,-354.5"/>
</a>
</g>
</g>
<!-- Node5 -->
<g id="Node000005" class="node">
<title>Node5</title>
<g id="a_Node000005"><a xlink:href="classdatabase_1_1mariadb_1_1MariaDBConnection.html#afd1535c332bed7e8562eb5cbe9feaa66" target="_top" xlink:title=" ">
<polygon fill="white" stroke="#666666" points="1264.5,-705 1099.5,-705 1099.5,-675 1264.5,-675 1264.5,-705"/>
<text text-anchor="start" x="1107.5" y="-693" font-family="Helvetica,sans-Serif" font-size="10.00">database::mariadb::</text>
<text text-anchor="middle" x="1182" y="-682" font-family="Helvetica,sans-Serif" font-size="10.00">MariaDBConnection::checkStatus</text>
</a>
</g>
</g>
<!-- Node4&#45;&gt;Node5 -->
<g id="edge4_Node000004_Node000005" class="edge">
<title>Node4&#45;&gt;Node5</title>
<g id="a_edge4_Node000004_Node000005"><a xlink:title=" ">
<path fill="none" stroke="#63b8ff" d="M1360.53,-376.38C1360.33,-435.21 1351.4,-582.02 1272,-663 1267.37,-667.73 1261.93,-671.63 1256.07,-674.86"/>
<polygon fill="#63b8ff" stroke="#63b8ff" points="1364.03,-376.13 1360.48,-366.14 1357.03,-376.16 1364.03,-376.13"/>
</a>
</g>
</g>
<!-- Node7 -->
<g id="Node000007" class="node">
<title>Node7</title>
<g id="a_Node000007"><a xlink:href="classcore_1_1socket_1_1stream_1_1SocketReader.html#ad50c8d1780a0a8678d512de2f06860eb" target="_top" xlink:title=" ">
<polygon fill="white" stroke="#666666" points="1244.5,-654 1119.5,-654 1119.5,-624 1244.5,-624 1244.5,-654"/>
<text text-anchor="start" x="1127.5" y="-642" font-family="Helvetica,sans-Serif" font-size="10.00">core::socket::stream</text>
<text text-anchor="middle" x="1182" y="-631" font-family="Helvetica,sans-Serif" font-size="10.00">::SocketReader::doRead</text>
</a>
</g>
</g>
<!-- Node4&#45;&gt;Node7 -->
<g id="edge6_Node000004_Node000007" class="edge">
<title>Node4&#45;&gt;Node7</title>
<g id="a_edge6_Node000004_Node000007"><a xlink:title=" ">
<path fill="none" stroke="#63b8ff" d="M1359.16,-376.21C1356.02,-428.58 1341.23,-549.7 1272,-615 1264.32,-622.25 1254.68,-627.35 1244.61,-630.94"/>
<polygon fill="#63b8ff" stroke="#63b8ff" points="1362.66,-376.28 1359.67,-366.12 1355.67,-375.93 1362.66,-376.28"/>
</a>
</g>
</g>
<!-- Node9 -->
<g id="Node000009" class="node">
<title>Node9</title>
<g id="a_Node000009"><a xlink:href="classcore_1_1socket_1_1stream_1_1SocketWriter.html#af5c187c875ef40cbb7e1b8d68c08bd77" target="_top" xlink:title=" ">
<polygon fill="white" stroke="#666666" points="1241,-606 1123,-606 1123,-576 1241,-576 1241,-606"/>
<text text-anchor="start" x="1131" y="-594" font-family="Helvetica,sans-Serif" font-size="10.00">core::socket::stream</text>
<text text-anchor="middle" x="1182" y="-583" font-family="Helvetica,sans-Serif" font-size="10.00">::SocketWriter::doWrite</text>
</a>
</g>
</g>
<!-- Node4&#45;&gt;Node9 -->
<g id="edge8_Node000004_Node000009" class="edge">
<title>Node4&#45;&gt;Node9</title>
<g id="a_edge8_Node000004_Node000009"><a xlink:title=" ">
<path fill="none" stroke="#63b8ff" d="M1357,-376.29C1350.27,-421.44 1329.75,-515.98 1272,-567 1263.37,-574.63 1252.55,-579.87 1241.46,-583.45"/>
<polygon fill="#63b8ff" stroke="#63b8ff" points="1360.49,-376.56 1358.39,-366.18 1353.56,-375.61 1360.49,-376.56"/>
</a>
</g>
</g>
<!-- Node11 -->
<g id="Node000011" class="node">
<title>Node11</title>
<g id="a_Node000011"><a xlink:href="classdatabase_1_1mariadb_1_1MariaDBConnection.html#a77e3a9a7ce64011c901bac2515edd285" target="_top" xlink:title=" ">
<polygon fill="white" stroke="#666666" points="1270,-558 1094,-558 1094,-528 1270,-528 1270,-558"/>
<text text-anchor="start" x="1102" y="-546" font-family="Helvetica,sans-Serif" font-size="10.00">database::mariadb::</text>
<text text-anchor="middle" x="1182" y="-535" font-family="Helvetica,sans-Serif" font-size="10.00">MariaDBConnection::execute_async</text>
</a>
</g>
</g>
<!-- Node4&#45;&gt;Node11 -->
<g id="edge10_Node000004_Node000011" class="edge">
<title>Node4&#45;&gt;Node11</title>
<g id="a_edge10_Node000004_Node000011"><a xlink:title=" ">
<path fill="none" stroke="#63b8ff" d="M1353.76,-376.14C1343.27,-413.08 1318.53,-481.69 1272,-519 1267.75,-522.4 1263.07,-525.33 1258.13,-527.84"/>
<polygon fill="#63b8ff" stroke="#63b8ff" points="1357.22,-376.75 1356.46,-366.18 1350.46,-374.92 1357.22,-376.75"/>
</a>
</g>
</g>
<!-- Node13 -->
<g id="Node000013" class="node">
<title>Node13</title>
<g id="a_Node000013"><a xlink:href="classcore_1_1file_1_1FileReader.html#a528c00603662070fffba7df4cffa067c" target="_top" xlink:title=" ">
<polygon fill="white" stroke="#666666" points="1235.5,-510 1128.5,-510 1128.5,-480 1235.5,-480 1235.5,-510"/>
<text text-anchor="start" x="1136.5" y="-498" font-family="Helvetica,sans-Serif" font-size="10.00">core::file::FileReader</text>
<text text-anchor="middle" x="1182" y="-487" font-family="Helvetica,sans-Serif" font-size="10.00">::FileReader</text>
</a>
</g>
</g>
<!-- Node4&#45;&gt;Node13 -->
<g id="edge12_Node000004_Node000013" class="edge">
<title>Node4&#45;&gt;Node13</title>
<g id="a_edge12_Node000004_Node000013"><a xlink:title=" ">
<path fill="none" stroke="#63b8ff" d="M1348.5,-375.37C1334.33,-402.75 1307.68,-446.55 1272,-471 1261.31,-478.33 1248.47,-483.42 1235.92,-486.96"/>
<polygon fill="#63b8ff" stroke="#63b8ff" points="1351.8,-376.6 1353.15,-366.09 1345.54,-373.46 1351.8,-376.6"/>
</a>
</g>
</g>
<!-- Node21 -->
<g id="Node000021" class="node">
<title>Node21</title>
<g id="a_Node000021"><a xlink:href="classcore_1_1file_1_1FileReader.html#a4d9266c6804d36f5bf203df026f89a0c" target="_top" xlink:title=" ">
<polygon fill="white" stroke="#666666" points="1235.5,-462 1128.5,-462 1128.5,-432 1235.5,-432 1235.5,-462"/>
<text text-anchor="start" x="1136.5" y="-450" font-family="Helvetica,sans-Serif" font-size="10.00">core::file::FileReader</text>
<text text-anchor="middle" x="1182" y="-439" font-family="Helvetica,sans-Serif" font-size="10.00">::onEvent</text>
</a>
</g>
</g>
<!-- Node4&#45;&gt;Node21 -->
<g id="edge20_Node000004_Node000021" class="edge">
<title>Node4&#45;&gt;Node21</title>
<g id="a_edge20_Node000004_Node000021"><a xlink:title=" ">
<path fill="none" stroke="#63b8ff" d="M1337.95,-373.57C1321.21,-389.5 1296.9,-410.21 1272,-423 1260.75,-428.78 1247.97,-433.27 1235.68,-436.73"/>
<polygon fill="#63b8ff" stroke="#63b8ff" points="1340.81,-375.67 1345.53,-366.18 1335.92,-370.65 1340.81,-375.67"/>
</a>
</g>
</g>
<!-- Node22 -->
<g id="Node000022" class="node">
<title>Node22</title>
<g id="a_Node000022"><a xlink:href="classiot_1_1mqtt_1_1SubProtocol.html#ad05d4435c7512624bb216d72b54e2eae" target="_top" xlink:title=" ">
<polygon fill="white" stroke="#666666" points="1238,-414 1126,-414 1126,-384 1238,-384 1238,-414"/>
<text text-anchor="start" x="1134" y="-402" font-family="Helvetica,sans-Serif" font-size="10.00">iot::mqtt::SubProtocol</text>
<text text-anchor="middle" x="1182" y="-391" font-family="Helvetica,sans-Serif" font-size="10.00">::onMessageEnd</text>
</a>
</g>
</g>
<!-- Node4&#45;&gt;Node22 -->
<g id="edge21_Node000004_Node000022" class="edge">
<title>Node4&#45;&gt;Node22</title>
<g id="a_edge21_Node000004_Node000022"><a xlink:title=" ">
<path fill="none" stroke="#63b8ff" d="M1298.09,-367.91C1289.33,-370.29 1280.44,-372.71 1272,-375 1261.03,-377.97 1249.3,-381.14 1238.08,-384.17"/>
<polygon fill="#63b8ff" stroke="#63b8ff" points="1299.16,-371.24 1307.89,-365.24 1297.32,-364.49 1299.16,-371.24"/>
</a>
</g>
</g>
<!-- Node23 -->
<g id="Node000023" class="node">
<title>Node23</title>
<g id="a_Node000023"><a xlink:href="classcore_1_1file_1_1FileReader.html#ae16913239b7e1137fc9da4df483fb3ec" target="_top" xlink:title=" ">
<polygon fill="white" stroke="#666666" points="1235.5,-366 1128.5,-366 1128.5,-336 1235.5,-336 1235.5,-366"/>
<text text-anchor="start" x="1136.5" y="-354" font-family="Helvetica,sans-Serif" font-size="10.00">core::file::FileReader</text>
<text text-anchor="middle" x="1182" y="-343" font-family="Helvetica,sans-Serif" font-size="10.00">::resume</text>
</a>
</g>
</g>
<!-- Node4&#45;&gt;Node23 -->
<g id="edge22_Node000004_Node000023" class="edge">
<title>Node4&#45;&gt;Node23</title>
<g id="a_edge22_Node000004_Node000023"><a xlink:title=" ">
<path fill="none" stroke="#63b8ff" d="M1297.77,-351C1277.5,-351 1255.2,-351 1235.69,-351"/>
<polygon fill="#63b8ff" stroke="#63b8ff" points="1297.85,-354.5 1307.85,-351 1297.85,-347.5 1297.85,-354.5"/>
</a>
</g>
</g>
<!-- Node24 -->
<g id="Node000024" class="node">
<title>Node24</title>
<g id="a_Node000024"><a xlink:href="classcore_1_1socket_1_1stream_1_1SocketAcceptor.html#a00b30294335a23f43d31c5ba78fc820a" target="_top" xlink:title=" ">
<polygon fill="white" stroke="#666666" points="1266,-318 1098,-318 1098,-288 1266,-288 1266,-318"/>
<text text-anchor="start" x="1106" y="-306" font-family="Helvetica,sans-Serif" font-size="10.00">core::socket::stream</text>
<text text-anchor="middle" x="1182" y="-295" font-family="Helvetica,sans-Serif" font-size="10.00">::SocketAcceptor::SocketAcceptor</text>
</a>
</g>
</g>
<!-- Node4&#45;&gt;Node24 -->
<g id="edge23_Node000004_Node000024" class="edge">
<title>Node4&#45;&gt;Node24</title>
<g id="a_edge23_Node000004_Node000024"><a xlink:title=" ">
<path fill="none" stroke="#63b8ff" d="M1298.09,-334.09C1289.33,-331.71 1280.44,-329.29 1272,-327 1261.34,-324.11 1249.96,-321.03 1239.03,-318.08"/>
<polygon fill="#63b8ff" stroke="#63b8ff" points="1297.32,-337.51 1307.89,-336.76 1299.16,-330.76 1297.32,-337.51"/>
</a>
</g>
</g>
<!-- Node25 -->
<g id="Node000025" class="node">
<title>Node25</title>
<g id="a_Node000025"><a xlink:href="classcore_1_1socket_1_1stream_1_1SocketConnector.html#adfc9c27364cc6402e2cf8d14e5f642ab" target="_top" xlink:title=" ">
<polygon fill="white" stroke="#666666" points="1272,-270 1092,-270 1092,-240 1272,-240 1272,-270"/>
<text text-anchor="start" x="1100" y="-258" font-family="Helvetica,sans-Serif" font-size="10.00">core::socket::stream</text>
<text text-anchor="middle" x="1182" y="-247" font-family="Helvetica,sans-Serif" font-size="10.00">::SocketConnector::SocketConnector</text>
</a>
</g>
</g>
<!-- Node4&#45;&gt;Node25 -->
<g id="edge24_Node000004_Node000025" class="edge">
<title>Node4&#45;&gt;Node25</title>
<g id="a_edge24_Node000004_Node000025"><a xlink:title=" ">
<path fill="none" stroke="#63b8ff" d="M1337.95,-328.43C1321.21,-312.5 1296.9,-291.79 1272,-279 1265.45,-275.64 1258.38,-272.71 1251.19,-270.16"/>
<polygon fill="#63b8ff" stroke="#63b8ff" points="1335.92,-331.35 1345.53,-335.82 1340.81,-326.33 1335.92,-331.35"/>
</a>
</g>
</g>
<!-- Node26 -->
<g id="Node000026" class="node">
<title>Node26</title>
<g id="a_Node000026"><a xlink:href="classcore_1_1epoll_1_1DescriptorEventPublisher.html#a96dea35b04539ed5abffd78710a2dee4" target="_top" xlink:title=" ">
<polygon fill="white" stroke="#666666" points="1253.5,-222 1110.5,-222 1110.5,-192 1253.5,-192 1253.5,-222"/>
<text text-anchor="start" x="1118.5" y="-210" font-family="Helvetica,sans-Serif" font-size="10.00">core::epoll::DescriptorEvent</text>
<text text-anchor="middle" x="1182" y="-199" font-family="Helvetica,sans-Serif" font-size="10.00">Publisher::spanActiveEvents</text>
</a>
</g>
</g>
<!-- Node4&#45;&gt;Node26 -->
<g id="edge25_Node000004_Node000026" class="edge">
<title>Node4&#45;&gt;Node26</title>
<g id="a_edge25_Node000004_Node000026"><a xlink:title=" ">
<path fill="none" stroke="#63b8ff" d="M1348.5,-326.63C1334.33,-299.25 1307.68,-255.45 1272,-231 1266.32,-227.11 1260.04,-223.85 1253.52,-221.12"/>
<polygon fill="#63b8ff" stroke="#63b8ff" points="1345.54,-328.54 1353.15,-335.91 1351.8,-325.4 1345.54,-328.54"/>
</a>
</g>
</g>
<!-- Node27 -->
<g id="Node000027" class="node">
<title>Node27</title>
<g id="a_Node000027"><a xlink:href="classcore_1_1poll_1_1DescriptorEventPublisher.html#a41989d8aebe14f0e935e262f1f044187" target="_top" xlink:title=" ">
<polygon fill="white" stroke="#666666" points="1253.5,-174 1110.5,-174 1110.5,-144 1253.5,-144 1253.5,-174"/>
<text text-anchor="start" x="1118.5" y="-162" font-family="Helvetica,sans-Serif" font-size="10.00">core::poll::DescriptorEvent</text>
<text text-anchor="middle" x="1182" y="-151" font-family="Helvetica,sans-Serif" font-size="10.00">Publisher::spanActiveEvents</text>
</a>
</g>
</g>
<!-- Node4&#45;&gt;Node27 -->
<g id="edge26_Node000004_Node000027" class="edge">
<title>Node4&#45;&gt;Node27</title>
<g id="a_edge26_Node000004_Node000027"><a xlink:title=" ">
<path fill="none" stroke="#63b8ff" d="M1353.76,-325.86C1343.27,-288.92 1318.53,-220.31 1272,-183 1266.51,-178.6 1260.27,-175 1253.71,-172.05"/>
<polygon fill="#63b8ff" stroke="#63b8ff" points="1350.46,-327.08 1356.46,-335.82 1357.22,-325.25 1350.46,-327.08"/>
</a>
</g>
</g>
<!-- Node28 -->
<g id="Node000028" class="node">
<title>Node28</title>
<g id="a_Node000028"><a xlink:href="classcore_1_1select_1_1DescriptorEventPublisher.html#a36564cbb6c3ef7b38e0d29b0f83710ed" target="_top" xlink:title=" ">
<polygon fill="white" stroke="#666666" points="1266,-126 1098,-126 1098,-96 1266,-96 1266,-126"/>
<text text-anchor="start" x="1106" y="-114" font-family="Helvetica,sans-Serif" font-size="10.00">core::select::Descriptor</text>
<text text-anchor="middle" x="1182" y="-103" font-family="Helvetica,sans-Serif" font-size="10.00">EventPublisher::spanActiveEvents</text>
</a>
</g>
</g>
<!-- Node4&#45;&gt;Node28 -->
<g id="edge27_Node000004_Node000028" class="edge">
<title>Node4&#45;&gt;Node28</title>
<g id="a_edge27_Node000004_Node000028"><a xlink:title=" ">
<path fill="none" stroke="#63b8ff" d="M1357,-325.71C1350.27,-280.56 1329.75,-186.02 1272,-135 1268.16,-131.61 1263.89,-128.69 1259.36,-126.18"/>
<polygon fill="#63b8ff" stroke="#63b8ff" points="1353.56,-326.39 1358.39,-335.82 1360.49,-325.44 1353.56,-326.39"/>
</a>
</g>
</g>
<!-- Node29 -->
<g id="Node000029" class="node">
<title>Node29</title>
<g id="a_Node000029"><a xlink:href="classcore_1_1TimerEventPublisher.html#a63e61efe7444a29cc3ada8616249d535" target="_top" xlink:title=" ">
<polygon fill="white" stroke="#666666" points="1248,-78 1116,-78 1116,-48 1248,-48 1248,-78"/>
<text text-anchor="start" x="1124" y="-66" font-family="Helvetica,sans-Serif" font-size="10.00">core::TimerEventPublisher</text>
<text text-anchor="middle" x="1182" y="-55" font-family="Helvetica,sans-Serif" font-size="10.00">::spanActiveEvents</text>
</a>
</g>
</g>
<!-- Node4&#45;&gt;Node29 -->
<g id="edge28_Node000004_Node000029" class="edge">
<title>Node4&#45;&gt;Node29</title>
<g id="a_edge28_Node000004_Node000029"><a xlink:title=" ">
<path fill="none" stroke="#63b8ff" d="M1359.16,-325.79C1356.02,-273.42 1341.23,-152.3 1272,-87 1265.25,-80.63 1256.99,-75.92 1248.25,-72.43"/>
<polygon fill="#63b8ff" stroke="#63b8ff" points="1355.67,-326.07 1359.67,-335.88 1362.66,-325.72 1355.67,-326.07"/>
</a>
</g>
</g>
<!-- Node42 -->
<g id="Node000042" class="node">
<title>Node42</title>
<g id="a_Node000042"><a xlink:href="classiot_1_1mqtt_1_1SubProtocol.html#abcfe4fc7236ee728417d9d5c36d025c9" target="_top" xlink:title=" ">
<polygon fill="white" stroke="#666666" points="1238,-30 1126,-30 1126,0 1238,0 1238,-30"/>
<text text-anchor="start" x="1134" y="-18" font-family="Helvetica,sans-Serif" font-size="10.00">iot::mqtt::SubProtocol</text>
<text text-anchor="middle" x="1182" y="-7" font-family="Helvetica,sans-Serif" font-size="10.00">::SubProtocol</text>
</a>
</g>
</g>
<!-- Node4&#45;&gt;Node42 -->
<g id="edge42_Node000004_Node000042" class="edge">
<title>Node4&#45;&gt;Node42</title>
<g id="a_edge42_Node000004_Node000042"><a xlink:title=" ">
<path fill="none" stroke="#63b8ff" d="M1360.7,-325.45C1360.86,-266.26 1352.65,-118.73 1272,-39 1262.9,-30 1250.79,-24.28 1238.45,-20.67"/>
<polygon fill="#63b8ff" stroke="#63b8ff" points="1357.2,-325.71 1360.58,-335.75 1364.2,-325.79 1357.2,-325.71"/>
</a>
</g>
</g>
<!-- Node6 -->
<g id="Node000006" class="node">
<title>Node6</title>
<g id="a_Node000006"><a xlink:href="classdatabase_1_1mariadb_1_1MariaDBConnection.html#ab6064af831f9fbe11c742954db49fdb9" target="_top" xlink:title=" ">
<polygon fill="white" stroke="#666666" points="1056,-713.5 903,-713.5 903,-672.5 1056,-672.5 1056,-713.5"/>
<text text-anchor="start" x="911" y="-701.5" font-family="Helvetica,sans-Serif" font-size="10.00">database::mariadb::</text>
<text text-anchor="start" x="911" y="-690.5" font-family="Helvetica,sans-Serif" font-size="10.00">MariaDBConnection::command</text>
<text text-anchor="middle" x="979.5" y="-679.5" font-family="Helvetica,sans-Serif" font-size="10.00">Continue</text>
</a>
</g>
</g>
<!-- Node5&#45;&gt;Node6 -->
<g id="edge5_Node000005_Node000006" class="edge">
<title>Node5&#45;&gt;Node6</title>
<g id="a_edge5_Node000005_Node000006"><a xlink:title=" ">
<path fill="none" stroke="#63b8ff" d="M1089.32,-691.37C1078.22,-691.54 1066.99,-691.71 1056.16,-691.87"/>
<polygon fill="#63b8ff" stroke="#63b8ff" points="1089.5,-694.87 1099.45,-691.22 1089.4,-687.87 1089.5,-694.87"/>
</a>
</g>
</g>
<!-- Node8 -->
<g id="Node000008" class="node">
<title>Node8</title>
<g id="a_Node000008"><a xlink:href="classcore_1_1socket_1_1stream_1_1SocketReader.html#a17157132269c6579c9e860c4b8410734" target="_top" xlink:title=" ">
<polygon fill="white" stroke="#666666" points="1047,-654 912,-654 912,-624 1047,-624 1047,-654"/>
<text text-anchor="start" x="920" y="-642" font-family="Helvetica,sans-Serif" font-size="10.00">core::socket::stream</text>
<text text-anchor="middle" x="979.5" y="-631" font-family="Helvetica,sans-Serif" font-size="10.00">::SocketReader::readEvent</text>
</a>
</g>
</g>
<!-- Node7&#45;&gt;Node8 -->
<g id="edge7_Node000007_Node000008" class="edge">
<title>Node7&#45;&gt;Node8</title>
<g id="a_edge7_Node000007_Node000008"><a xlink:title=" ">
<path fill="none" stroke="#63b8ff" d="M1109.37,-639C1089.09,-639 1067.1,-639 1047.13,-639"/>
<polygon fill="#63b8ff" stroke="#63b8ff" points="1109.48,-642.5 1119.48,-639 1109.48,-635.5 1109.48,-642.5"/>
</a>
</g>
</g>
<!-- Node10 -->
<g id="Node000010" class="node">
<title>Node10</title>
<g id="a_Node000010"><a xlink:href="classcore_1_1socket_1_1stream_1_1SocketWriter.html#a4f7f2aeb042961bc9457c916d887e757" target="_top" xlink:title=" ">
<polygon fill="white" stroke="#666666" points="1045,-606 914,-606 914,-576 1045,-576 1045,-606"/>
<text text-anchor="start" x="922" y="-594" font-family="Helvetica,sans-Serif" font-size="10.00">core::socket::stream</text>
<text text-anchor="middle" x="979.5" y="-583" font-family="Helvetica,sans-Serif" font-size="10.00">::SocketWriter::writeEvent</text>
</a>
</g>
</g>
<!-- Node9&#45;&gt;Node10 -->
<g id="edge9_Node000009_Node000010" class="edge">
<title>Node9&#45;&gt;Node10</title>
<g id="a_edge9_Node000009_Node000010"><a xlink:title=" ">
<path fill="none" stroke="#63b8ff" d="M1112.57,-591C1090.78,-591 1066.76,-591 1045.24,-591"/>
<polygon fill="#63b8ff" stroke="#63b8ff" points="1112.74,-594.5 1122.74,-591 1112.74,-587.5 1112.74,-594.5"/>
</a>
</g>
</g>
<!-- Node12 -->
<g id="Node000012" class="node">
<title>Node12</title>
<g id="a_Node000012"><a xlink:href="classdatabase_1_1mariadb_1_1MariaDBClient.html#a4e3ba4237c2ca362153722d7f94ce00f" target="_top" xlink:title=" ">
<polygon fill="white" stroke="#666666" points="1055.5,-558 903.5,-558 903.5,-528 1055.5,-528 1055.5,-558"/>
<text text-anchor="start" x="911.5" y="-546" font-family="Helvetica,sans-Serif" font-size="10.00">database::mariadb::</text>
<text text-anchor="middle" x="979.5" y="-535" font-family="Helvetica,sans-Serif" font-size="10.00">MariaDBClient::execute_async</text>
</a>
</g>
</g>
<!-- Node11&#45;&gt;Node12 -->
<g id="edge11_Node000011_Node000012" class="edge">
<title>Node11&#45;&gt;Node12</title>
<g id="a_edge11_Node000011_Node000012"><a xlink:title=" ">
<path fill="none" stroke="#63b8ff" d="M1083.7,-543C1074.24,-543 1064.74,-543 1055.55,-543"/>
<polygon fill="#63b8ff" stroke="#63b8ff" points="1083.93,-546.5 1093.93,-543 1083.93,-539.5 1083.93,-546.5"/>
</a>
</g>
</g>
<!-- Node14 -->
<g id="Node000014" class="node">
<title>Node14</title>
<g id="a_Node000014"><a xlink:href="classcore_1_1file_1_1FileReader.html#a1283a619871fb6ae3ecaa472afdab866" target="_top" xlink:title=" ">
<polygon fill="white" stroke="#666666" points="1033,-510 926,-510 926,-480 1033,-480 1033,-510"/>
<text text-anchor="start" x="934" y="-498" font-family="Helvetica,sans-Serif" font-size="10.00">core::file::FileReader</text>
<text text-anchor="middle" x="979.5" y="-487" font-family="Helvetica,sans-Serif" font-size="10.00">::connect</text>
</a>
</g>
</g>
<!-- Node13&#45;&gt;Node14 -->
<g id="edge13_Node000013_Node000014" class="edge">
<title>Node13&#45;&gt;Node14</title>
<g id="a_edge13_Node000013_Node000014"><a xlink:title=" ">
<path fill="none" stroke="#63b8ff" d="M1118.09,-495C1090.8,-495 1059.2,-495 1033.17,-495"/>
<polygon fill="#63b8ff" stroke="#63b8ff" points="1118.32,-498.5 1128.32,-495 1118.32,-491.5 1118.32,-498.5"/>
</a>
</g>
</g>
<!-- Node15 -->
<g id="Node000015" class="node">
<title>Node15</title>
<g id="a_Node000015"><a xlink:href="classweb_1_1http_1_1server_1_1Response.html#a96199c6d2c9d08d65cdbf5fd0302c616" target="_top" xlink:title=" ">
<polygon fill="white" stroke="#666666" points="862,-510 758,-510 758,-480 862,-480 862,-510"/>
<text text-anchor="start" x="766" y="-498" font-family="Helvetica,sans-Serif" font-size="10.00">web::http::server::</text>
<text text-anchor="middle" x="810" y="-487" font-family="Helvetica,sans-Serif" font-size="10.00">Response::sendFile</text>
</a>
</g>
</g>
<!-- Node14&#45;&gt;Node15 -->
<g id="edge14_Node000014_Node000015" class="edge">
<title>Node14&#45;&gt;Node15</title>
<g id="a_edge14_Node000014_Node000015"><a xlink:title=" ">
<path fill="none" stroke="#63b8ff" d="M915.75,-495C898.09,-495 879.1,-495 862.2,-495"/>
<polygon fill="#63b8ff" stroke="#63b8ff" points="915.96,-498.5 925.96,-495 915.96,-491.5 915.96,-498.5"/>
</a>
</g>
</g>
<!-- Node16 -->
<g id="Node000016" class="node">
<title>Node16</title>
<g id="a_Node000016"><a xlink:href="classexpress_1_1Response.html#a97e0caff7023908457d4dbb8972ddee7" target="_top" xlink:title=" ">
<polygon fill="white" stroke="#666666" points="713,-537 606,-537 606,-507 713,-507 713,-537"/>
<text text-anchor="start" x="614" y="-525" font-family="Helvetica,sans-Serif" font-size="10.00">express::Response::</text>
<text text-anchor="middle" x="659.5" y="-514" font-family="Helvetica,sans-Serif" font-size="10.00">download</text>
</a>
</g>
</g>
<!-- Node15&#45;&gt;Node16 -->
<g id="edge15_Node000015_Node000016" class="edge">
<title>Node15&#45;&gt;Node16</title>
<g id="a_edge15_Node000015_Node000016"><a xlink:title=" ">
<path fill="none" stroke="#63b8ff" d="M747.92,-506.11C736.4,-508.2 724.45,-510.37 713.21,-512.42"/>
<polygon fill="#63b8ff" stroke="#63b8ff" points="748.68,-509.52 757.89,-504.29 747.43,-502.64 748.68,-509.52"/>
</a>
</g>
</g>
<!-- Node18 -->
<g id="Node000018" class="node">
<title>Node18</title>
<g id="a_Node000018"><a xlink:href="classexpress_1_1middleware_1_1StaticMiddleware.html#af712793a6f6d600b813fc4a6d3fbe41d" target="_top" xlink:title=" ">
<polygon fill="white" stroke="#666666" points="713,-488.5 606,-488.5 606,-447.5 713,-447.5 713,-488.5"/>
<text text-anchor="start" x="614" y="-476.5" font-family="Helvetica,sans-Serif" font-size="10.00">express::middleware</text>
<text text-anchor="start" x="614" y="-465.5" font-family="Helvetica,sans-Serif" font-size="10.00">::StaticMiddleware::</text>
<text text-anchor="middle" x="659.5" y="-454.5" font-family="Helvetica,sans-Serif" font-size="10.00">StaticMiddleware</text>
</a>
</g>
</g>
<!-- Node15&#45;&gt;Node18 -->
<g id="edge17_Node000015_Node000018" class="edge">
<title>Node15&#45;&gt;Node18</title>
<g id="a_edge17_Node000015_Node000018"><a xlink:title=" ">
<path fill="none" stroke="#63b8ff" d="M747.92,-483.89C736.4,-481.8 724.45,-479.63 713.21,-477.58"/>
<polygon fill="#63b8ff" stroke="#63b8ff" points="747.43,-487.36 757.89,-485.71 748.68,-480.48 747.43,-487.36"/>
</a>
</g>
</g>
<!-- Node17 -->
<g id="Node000017" class="node">
<title>Node17</title>
<g id="a_Node000017"><a xlink:href="classexpress_1_1Response.html#ad4dee9d801bc0d3f7ab3e83abddae30f" target="_top" xlink:title=" ">
<polygon fill="white" stroke="#666666" points="564.5,-537 457.5,-537 457.5,-507 564.5,-507 564.5,-537"/>
<text text-anchor="start" x="465.5" y="-525" font-family="Helvetica,sans-Serif" font-size="10.00">express::Response::</text>
<text text-anchor="middle" x="511" y="-514" font-family="Helvetica,sans-Serif" font-size="10.00">download</text>
</a>
</g>
</g>
<!-- Node16&#45;&gt;Node17 -->
<g id="edge16_Node000016_Node000017" class="edge">
<title>Node16&#45;&gt;Node17</title>
<g id="a_edge16_Node000016_Node000017"><a xlink:title=" ">
<path fill="none" stroke="#63b8ff" d="M595.5,-522C585.27,-522 574.77,-522 564.81,-522"/>
<polygon fill="#63b8ff" stroke="#63b8ff" points="595.61,-525.5 605.61,-522 595.61,-518.5 595.61,-525.5"/>
</a>
</g>
</g>
<!-- Node19 -->
<g id="Node000019" class="node">
<title>Node19</title>
<g id="a_Node000019"><a xlink:href="classexpress_1_1middleware_1_1StaticMiddleware.html#abf7aad109677706e3b41004be8ac2f53" target="_top" xlink:title=" ">
<polygon fill="white" stroke="#666666" points="564.5,-488.5 457.5,-488.5 457.5,-447.5 564.5,-447.5 564.5,-488.5"/>
<text text-anchor="start" x="465.5" y="-476.5" font-family="Helvetica,sans-Serif" font-size="10.00">express::middleware</text>
<text text-anchor="start" x="465.5" y="-465.5" font-family="Helvetica,sans-Serif" font-size="10.00">::StaticMiddleware::</text>
<text text-anchor="middle" x="511" y="-454.5" font-family="Helvetica,sans-Serif" font-size="10.00">instance</text>
</a>
</g>
</g>
<!-- Node18&#45;&gt;Node19 -->
<g id="edge18_Node000018_Node000019" class="edge">
<title>Node18&#45;&gt;Node19</title>
<g id="a_edge18_Node000018_Node000019"><a xlink:title=" ">
<path fill="none" stroke="#63b8ff" d="M595.5,-468C585.27,-468 574.77,-468 564.81,-468"/>
<polygon fill="#63b8ff" stroke="#63b8ff" points="595.61,-471.5 605.61,-468 595.61,-464.5 595.61,-471.5"/>
</a>
</g>
</g>
<!-- Node20 -->
<g id="Node000020" class="node">
<title>Node20</title>
<g id="a_Node000020"><a xlink:href="classexpress_1_1middleware_1_1StaticMiddleware.html#a91cf7d4b266c87b5feb7267c12db535b" target="_top" xlink:title=" ">
<polygon fill="white" stroke="#666666" points="417,-488.5 310,-488.5 310,-447.5 417,-447.5 417,-488.5"/>
<text text-anchor="start" x="318" y="-476.5" font-family="Helvetica,sans-Serif" font-size="10.00">express::middleware</text>
<text text-anchor="start" x="318" y="-465.5" font-family="Helvetica,sans-Serif" font-size="10.00">::StaticMiddleware::</text>
<text text-anchor="middle" x="363.5" y="-454.5" font-family="Helvetica,sans-Serif" font-size="10.00">StaticMiddleware</text>
</a>
</g>
</g>
<!-- Node19&#45;&gt;Node20 -->
<g id="edge19_Node000019_Node000020" class="edge">
<title>Node19&#45;&gt;Node20</title>
<g id="a_edge19_Node000019_Node000020"><a xlink:title=" ">
<path fill="none" stroke="#63b8ff" d="M447.24,-468C437.31,-468 427.12,-468 417.44,-468"/>
<polygon fill="#63b8ff" stroke="#63b8ff" points="447.47,-471.5 457.47,-468 447.47,-464.5 447.47,-471.5"/>
</a>
</g>
</g>
<!-- Node30 -->
<g id="Node000030" class="node">
<title>Node30</title>
<g id="a_Node000030"><a xlink:href="classcore_1_1EventMultiplexer.html#a5425950b6a24f1bd93ce44301cfb2c22" target="_top" xlink:title=" ">
<polygon fill="white" stroke="#666666" points="1036.5,-78 922.5,-78 922.5,-48 1036.5,-48 1036.5,-78"/>
<text text-anchor="start" x="930.5" y="-66" font-family="Helvetica,sans-Serif" font-size="10.00">core::EventMultiplexer</text>
<text text-anchor="middle" x="979.5" y="-55" font-family="Helvetica,sans-Serif" font-size="10.00">::spanActiveEvents</text>
</a>
</g>
</g>
<!-- Node29&#45;&gt;Node30 -->
<g id="edge29_Node000029_Node000030" class="edge">
<title>Node29&#45;&gt;Node30</title>
<g id="a_edge29_Node000029_Node000030"><a xlink:title=" ">
<path fill="none" stroke="#63b8ff" d="M1105.84,-63C1082.86,-63 1057.99,-63 1036.52,-63"/>
<polygon fill="#63b8ff" stroke="#63b8ff" points="1105.9,-66.5 1115.9,-63 1105.9,-59.5 1105.9,-66.5"/>
</a>
</g>
</g>
<!-- Node31 -->
<g id="Node000031" class="node">
<title>Node31</title>
<g id="a_Node000031"><a xlink:href="classcore_1_1EventMultiplexer.html#a530975d218904452f30c411598c10423" target="_top" xlink:title=" ">
<polygon fill="white" stroke="#666666" points="867,-78 753,-78 753,-48 867,-48 867,-78"/>
<text text-anchor="start" x="761" y="-66" font-family="Helvetica,sans-Serif" font-size="10.00">core::EventMultiplexer</text>
<text text-anchor="middle" x="810" y="-55" font-family="Helvetica,sans-Serif" font-size="10.00">::tick</text>
</a>
</g>
</g>
<!-- Node30&#45;&gt;Node31 -->
<g id="edge30_Node000030_Node000031" class="edge">
<title>Node30&#45;&gt;Node31</title>
<g id="a_edge30_Node000030_Node000031"><a xlink:title=" ">
<path fill="none" stroke="#63b8ff" d="M912.09,-63C897.19,-63 881.52,-63 867.09,-63"/>
<polygon fill="#63b8ff" stroke="#63b8ff" points="912.26,-66.5 922.26,-63 912.26,-59.5 912.26,-66.5"/>
</a>
</g>
</g>
<!-- Node32 -->
<g id="Node000032" class="node">
<title>Node32</title>
<g id="a_Node000032"><a xlink:href="classcore_1_1EventLoop.html#a3ce638b4895c765df8e60a804be90339" target="_top" xlink:title=" ">
<polygon fill="white" stroke="#666666" points="717,-72.5 602,-72.5 602,-53.5 717,-53.5 717,-72.5"/>
<text text-anchor="middle" x="659.5" y="-60.5" font-family="Helvetica,sans-Serif" font-size="10.00">core::EventLoop::_tick</text>
</a>
</g>
</g>
<!-- Node31&#45;&gt;Node32 -->
<g id="edge31_Node000031_Node000032" class="edge">
<title>Node31&#45;&gt;Node32</title>
<g id="a_edge31_Node000031_Node000032"><a xlink:title=" ">
<path fill="none" stroke="#63b8ff" d="M742.62,-63C734.14,-63 725.52,-63 717.21,-63"/>
<polygon fill="#63b8ff" stroke="#63b8ff" points="742.86,-66.5 752.86,-63 742.86,-59.5 742.86,-66.5"/>
</a>
</g>
</g>
<!-- Node33 -->
<g id="Node000033" class="node">
<title>Node33</title>
<g id="a_Node000033"><a xlink:href="classcore_1_1EventLoop.html#a3125b6361565df4753affc73eb83984a" target="_top" xlink:title=" ">
<polygon fill="white" stroke="#666666" points="566,-110.5 456,-110.5 456,-91.5 566,-91.5 566,-110.5"/>
<text text-anchor="middle" x="511" y="-98.5" font-family="Helvetica,sans-Serif" font-size="10.00">core::EventLoop::free</text>
</a>
</g>
</g>
<!-- Node32&#45;&gt;Node33 -->
<g id="edge32_Node000032_Node000033" class="edge">
<title>Node32&#45;&gt;Node33</title>
<g id="a_edge32_Node000032_Node000033"><a xlink:title=" ">
<path fill="none" stroke="#63b8ff" d="M611.8,-75.11C591.4,-80.4 567.82,-86.52 548.7,-91.48"/>
<polygon fill="#63b8ff" stroke="#63b8ff" points="612.73,-78.49 621.53,-72.59 610.97,-71.71 612.73,-78.49"/>
</a>
</g>
</g>
<!-- Node36 -->
<g id="Node000036" class="node">
<title>Node36</title>
<g id="a_Node000036"><a xlink:href="classcore_1_1EventLoop.html#aaa2c3856fed808d00542d573c2b3a737" target="_top" xlink:title=" ">
<polygon fill="white" stroke="#666666" points="420,-72.5 307,-72.5 307,-53.5 420,-53.5 420,-72.5"/>
<text text-anchor="middle" x="363.5" y="-60.5" font-family="Helvetica,sans-Serif" font-size="10.00">core::EventLoop::start</text>
</a>
</g>
</g>
<!-- Node32&#45;&gt;Node36 -->
<g id="edge38_Node000032_Node000036" class="edge">
<title>Node32&#45;&gt;Node36</title>
<g id="a_edge38_Node000032_Node000036"><a xlink:title=" ">
<path fill="none" stroke="#63b8ff" d="M591.71,-63C539.85,-63 468.78,-63 420.02,-63"/>
<polygon fill="#63b8ff" stroke="#63b8ff" points="591.81,-66.5 601.81,-63 591.81,-59.5 591.81,-66.5"/>
</a>
</g>
</g>
<!-- Node39 -->
<g id="Node000039" class="node">
<title>Node39</title>
<g id="a_Node000039"><a xlink:href="classcore_1_1EventLoop.html#ad61057e89520dae76c6e0a098c595e57" target="_top" xlink:title=" ">
<polygon fill="white" stroke="#666666" points="566,-34.5 456,-34.5 456,-15.5 566,-15.5 566,-34.5"/>
<text text-anchor="middle" x="511" y="-22.5" font-family="Helvetica,sans-Serif" font-size="10.00">core::EventLoop::tick</text>
</a>
</g>
</g>
<!-- Node32&#45;&gt;Node39 -->
<g id="edge39_Node000032_Node000039" class="edge">
<title>Node32&#45;&gt;Node39</title>
<g id="a_edge39_Node000032_Node000039"><a xlink:title=" ">
<path fill="none" stroke="#63b8ff" d="M611.8,-50.89C591.4,-45.6 567.82,-39.48 548.7,-34.52"/>
<polygon fill="#63b8ff" stroke="#63b8ff" points="610.97,-54.29 621.53,-53.41 612.73,-47.51 610.97,-54.29"/>
</a>
</g>
</g>
<!-- Node34 -->
<g id="Node000034" class="node">
<title>Node34</title>
<g id="a_Node000034"><a xlink:href="classcore_1_1SNodeC.html#a723f1f8e484db32164adeca1fbf98e28" target="_top" xlink:title=" ">
<polygon fill="white" stroke="#666666" points="414,-110.5 313,-110.5 313,-91.5 414,-91.5 414,-110.5"/>
<text text-anchor="middle" x="363.5" y="-98.5" font-family="Helvetica,sans-Serif" font-size="10.00">core::SNodeC::free</text>
</a>
</g>
</g>
<!-- Node33&#45;&gt;Node34 -->
<g id="edge33_Node000033_Node000034" class="edge">
<title>Node33&#45;&gt;Node34</title>
<g id="a_edge33_Node000033_Node000034"><a xlink:title=" ">
<path fill="none" stroke="#63b8ff" d="M445.5,-101C435.07,-101 424.41,-101 414.39,-101"/>
<polygon fill="#63b8ff" stroke="#63b8ff" points="445.82,-104.5 455.82,-101 445.82,-97.5 445.82,-104.5"/>
</a>
</g>
</g>
<!-- Node33&#45;&gt;Node36 -->
<g id="edge35_Node000033_Node000036" class="edge">
<title>Node33&#45;&gt;Node36</title>
<g id="a_edge35_Node000033_Node000036"><a xlink:title=" ">
<path fill="none" stroke="#63b8ff" d="M463.35,-88.82C443.15,-83.54 419.85,-77.46 400.95,-72.52"/>
<polygon fill="#63b8ff" stroke="#63b8ff" points="462.72,-92.27 473.28,-91.41 464.49,-85.5 462.72,-92.27"/>
</a>
</g>
</g>
<!-- Node35 -->
<g id="Node000035" class="node">
<title>Node35</title>
<g id="a_Node000035"><a xlink:href="classexpress_1_1WebApp.html#a07c26842d227b81ee32b9b26a94cae1b" target="_top" xlink:title=" ">
<polygon fill="white" stroke="#666666" points="271,-110.5 155,-110.5 155,-91.5 271,-91.5 271,-110.5"/>
<text text-anchor="middle" x="213" y="-98.5" font-family="Helvetica,sans-Serif" font-size="10.00">express::WebApp::free</text>
</a>
</g>
</g>
<!-- Node34&#45;&gt;Node35 -->
<g id="edge34_Node000034_Node000035" class="edge">
<title>Node34&#45;&gt;Node35</title>
<g id="a_edge34_Node000034_Node000035"><a xlink:title=" ">
<path fill="none" stroke="#63b8ff" d="M302.46,-101C292.13,-101 281.42,-101 271.16,-101"/>
<polygon fill="#63b8ff" stroke="#63b8ff" points="302.64,-104.5 312.64,-101 302.64,-97.5 302.64,-104.5"/>
</a>
</g>
</g>
<!-- Node37 -->
<g id="Node000037" class="node">
<title>Node37</title>
<g id="a_Node000037"><a xlink:href="classcore_1_1SNodeC.html#ac3d0dcb6c216ae72d9bbb77fe080e461" target="_top" xlink:title=" ">
<polygon fill="white" stroke="#666666" points="265,-72.5 161,-72.5 161,-53.5 265,-53.5 265,-72.5"/>
<text text-anchor="middle" x="213" y="-60.5" font-family="Helvetica,sans-Serif" font-size="10.00">core::SNodeC::start</text>
</a>
</g>
</g>
<!-- Node36&#45;&gt;Node37 -->
<g id="edge36_Node000036_Node000037" class="edge">
<title>Node36&#45;&gt;Node37</title>
<g id="a_edge36_Node000036_Node000037"><a xlink:title=" ">
<path fill="none" stroke="#63b8ff" d="M296.73,-63C286.14,-63 275.31,-63 265.13,-63"/>
<polygon fill="#63b8ff" stroke="#63b8ff" points="296.78,-66.5 306.78,-63 296.78,-59.5 296.78,-66.5"/>
</a>
</g>
</g>
<!-- Node38 -->
<g id="Node000038" class="node">
<title>Node38</title>
<g id="a_Node000038"><a xlink:href="classexpress_1_1WebApp.html#a54e6910c9466c61d0b217490b7d9bb5a" target="_top" xlink:title=" ">
<polygon fill="white" stroke="#666666" points="119,-72.5 0,-72.5 0,-53.5 119,-53.5 119,-72.5"/>
<text text-anchor="middle" x="59.5" y="-60.5" font-family="Helvetica,sans-Serif" font-size="10.00">express::WebApp::start</text>
</a>
</g>
</g>
<!-- Node37&#45;&gt;Node38 -->
<g id="edge37_Node000037_Node000038" class="edge">
<title>Node37&#45;&gt;Node38</title>
<g id="a_edge37_Node000037_Node000038"><a xlink:title=" ">
<path fill="none" stroke="#63b8ff" d="M150.48,-63C140.1,-63 129.35,-63 119.05,-63"/>
<polygon fill="#63b8ff" stroke="#63b8ff" points="150.71,-66.5 160.71,-63 150.71,-59.5 150.71,-66.5"/>
</a>
</g>
</g>
<!-- Node40 -->
<g id="Node000040" class="node">
<title>Node40</title>
<g id="a_Node000040"><a xlink:href="classcore_1_1SNodeC.html#a57b40bb139f23e6a9fc2704d2415e636" target="_top" xlink:title=" ">
<polygon fill="white" stroke="#666666" points="414,-34.5 313,-34.5 313,-15.5 414,-15.5 414,-34.5"/>
<text text-anchor="middle" x="363.5" y="-22.5" font-family="Helvetica,sans-Serif" font-size="10.00">core::SNodeC::tick</text>
</a>
</g>
</g>
<!-- Node39&#45;&gt;Node40 -->
<g id="edge40_Node000039_Node000040" class="edge">
<title>Node39&#45;&gt;Node40</title>
<g id="a_edge40_Node000039_Node000040"><a xlink:title=" ">
<path fill="none" stroke="#63b8ff" d="M445.5,-25C435.07,-25 424.41,-25 414.39,-25"/>
<polygon fill="#63b8ff" stroke="#63b8ff" points="445.82,-28.5 455.82,-25 445.82,-21.5 445.82,-28.5"/>
</a>
</g>
</g>
<!-- Node41 -->
<g id="Node000041" class="node">
<title>Node41</title>
<g id="a_Node000041"><a xlink:href="classexpress_1_1WebApp.html#a42de99299b0f344789e201aee12b3fd7" target="_top" xlink:title=" ">
<polygon fill="white" stroke="#666666" points="271,-34.5 155,-34.5 155,-15.5 271,-15.5 271,-34.5"/>
<text text-anchor="middle" x="213" y="-22.5" font-family="Helvetica,sans-Serif" font-size="10.00">express::WebApp::tick</text>
</a>
</g>
</g>
<!-- Node40&#45;&gt;Node41 -->
<g id="edge41_Node000040_Node000041" class="edge">
<title>Node40&#45;&gt;Node41</title>
<g id="a_edge41_Node000040_Node000041"><a xlink:title=" ">
<path fill="none" stroke="#63b8ff" d="M302.46,-25C292.13,-25 281.42,-25 271.16,-25"/>
<polygon fill="#63b8ff" stroke="#63b8ff" points="302.64,-28.5 312.64,-25 302.64,-21.5 302.64,-28.5"/>
</a>
</g>
</g>
</g>
</svg>
