<?xml version="1.0" encoding="UTF-8" standalone="no"?>
<!DOCTYPE svg PUBLIC "-//W3C//DTD SVG 1.1//EN"
 "http://www.w3.org/Graphics/SVG/1.1/DTD/svg11.dtd">
<!-- Generated by graphviz version 2.43.0 (0)
 -->
<!-- Title: web::websocket::SubProtocolFactorySelector::load Pages: 1 -->
<svg width="739pt" height="129pt"
 viewBox="0.00 0.00 739.00 129.00" xmlns="http://www.w3.org/2000/svg" xmlns:xlink="http://www.w3.org/1999/xlink">
<g id="graph0" class="graph" transform="scale(1 1) rotate(0) translate(4 125)">
<title>web::websocket::SubProtocolFactorySelector::load</title>
<!-- Node1 -->
<g id="Node000001" class="node">
<title>Node1</title>
<g id="a_Node000001"><a xlink:title=" ">
<polygon fill="#999999" stroke="#666666" points="147,-73 0,-73 0,-43 147,-43 147,-73"/>
<text text-anchor="start" x="8" y="-61" font-family="Helvetica,sans-Serif" font-size="10.00">web::websocket::SubProtocol</text>
<text text-anchor="middle" x="73.5" y="-50" font-family="Helvetica,sans-Serif" font-size="10.00">FactorySelector::load</text>
</a>
</g>
</g>
<!-- Node2 -->
<g id="Node000002" class="node">
<title>Node2</title>
<g id="a_Node000002"><a xlink:href="classcore_1_1DynamicLoader.html#a42ac52cda1ec4534f1cc9e225dcb31b0" target="_top" xlink:title=" ">
<polygon fill="white" stroke="#666666" points="293,-116 183,-116 183,-86 293,-86 293,-116"/>
<text text-anchor="start" x="191" y="-104" font-family="Helvetica,sans-Serif" font-size="10.00">core::DynamicLoader</text>
<text text-anchor="middle" x="238" y="-93" font-family="Helvetica,sans-Serif" font-size="10.00">::dlClose</text>
</a>
</g>
</g>
<!-- Node1&#45;&gt;Node2 -->
<g id="edge1_Node000001_Node000002" class="edge">
<title>Node1&#45;&gt;Node2</title>
<g id="a_edge1_Node000001_Node000002"><a xlink:title=" ">
<path fill="none" stroke="#63b8ff" d="M131.33,-73.04C144.81,-76.61 159.28,-80.43 173.05,-84.08"/>
<polygon fill="#63b8ff" stroke="#63b8ff" points="172.37,-87.52 182.93,-86.69 174.16,-80.75 172.37,-87.52"/>
</a>
</g>
</g>
<!-- Node4 -->
<g id="Node000004" class="node">
<title>Node4</title>
<g id="a_Node000004"><a xlink:href="classcore_1_1DynamicLoader.html#a28d14f3029339351d8bb8b328a6110b0" target="_top" xlink:title=" ">
<polygon fill="white" stroke="#666666" points="585,-73 475,-73 475,-43 585,-43 585,-73"/>
<text text-anchor="start" x="483" y="-61" font-family="Helvetica,sans-Serif" font-size="10.00">core::DynamicLoader</text>
<text text-anchor="middle" x="530" y="-50" font-family="Helvetica,sans-Serif" font-size="10.00">::dlError</text>
</a>
</g>
</g>
<!-- Node1&#45;&gt;Node4 -->
<g id="edge7_Node000001_Node000004" class="edge">
<title>Node1&#45;&gt;Node4</title>
<g id="a_edge7_Node000001_Node000004"><a xlink:title=" ">
<path fill="none" stroke="#63b8ff" d="M147.02,-58C234.71,-58 380.95,-58 464.75,-58"/>
<polygon fill="#63b8ff" stroke="#63b8ff" points="464.9,-61.5 474.9,-58 464.9,-54.5 464.9,-61.5"/>
</a>
</g>
</g>
<!-- Node8 -->
<g id="Node000008" class="node">
<title>Node8</title>
<g id="a_Node000008"><a xlink:href="classcore_1_1DynamicLoader.html#a708b7adb431acbc8976968c59692625e" target="_top" xlink:title=" ">
<polygon fill="white" stroke="#666666" points="293,-30 183,-30 183,0 293,0 293,-30"/>
<text text-anchor="start" x="191" y="-18" font-family="Helvetica,sans-Serif" font-size="10.00">core::DynamicLoader</text>
<text text-anchor="middle" x="238" y="-7" font-family="Helvetica,sans-Serif" font-size="10.00">::dlSym</text>
</a>
</g>
</g>
<!-- Node1&#45;&gt;Node8 -->
<g id="edge8_Node000001_Node000008" class="edge">
<title>Node1&#45;&gt;Node8</title>
<g id="a_edge8_Node000001_Node000008"><a xlink:title=" ">
<path fill="none" stroke="#63b8ff" d="M131.33,-42.96C144.81,-39.39 159.28,-35.57 173.05,-31.92"/>
<polygon fill="#63b8ff" stroke="#63b8ff" points="174.16,-35.25 182.93,-29.31 172.37,-28.48 174.16,-35.25"/>
</a>
</g>
</g>
<!-- Node3 -->
<g id="Node000003" class="node">
<title>Node3</title>
<g id="a_Node000003"><a xlink:href="classcore_1_1DynamicLoader.html#ac5caf32e25a9eeb3fa463f924b0642fa" target="_top" xlink:title=" ">
<polygon fill="white" stroke="#666666" points="439,-116 329,-116 329,-86 439,-86 439,-116"/>
<text text-anchor="start" x="337" y="-104" font-family="Helvetica,sans-Serif" font-size="10.00">core::DynamicLoader</text>
<text text-anchor="middle" x="384" y="-93" font-family="Helvetica,sans-Serif" font-size="10.00">::dlClose</text>
</a>
</g>
</g>
<!-- Node2&#45;&gt;Node3 -->
<g id="edge2_Node000002_Node000003" class="edge">
<title>Node2&#45;&gt;Node3</title>
<g id="a_edge2_Node000002_Node000003"><a xlink:title=" ">
<path fill="none" stroke="#63b8ff" d="M293.03,-101C301.31,-101 309.94,-101 318.42,-101"/>
<polygon fill="#63b8ff" stroke="#63b8ff" points="318.67,-104.5 328.67,-101 318.67,-97.5 318.67,-104.5"/>
</a>
</g>
</g>
<!-- Node3&#45;&gt;Node4 -->
<g id="edge3_Node000003_Node000004" class="edge">
<title>Node3&#45;&gt;Node4</title>
<g id="a_edge3_Node000003_Node000004"><a xlink:title=" ">
<path fill="none" stroke="#63b8ff" d="M435.36,-85.96C446.15,-82.74 457.66,-79.3 468.78,-75.98"/>
<polygon fill="#63b8ff" stroke="#63b8ff" points="469.84,-79.32 478.42,-73.1 467.84,-72.61 469.84,-79.32"/>
</a>
</g>
</g>
<!-- Node6 -->
<g id="Node000006" class="node">
<title>Node6</title>
<g id="a_Node000006"><a xlink:href="classcore_1_1DynamicLoader.html#a32f0c49018bd2dbc53de83963dd3a3d0" target="_top" xlink:title=" ">
<polygon fill="white" stroke="#666666" points="585,-121 475,-121 475,-91 585,-91 585,-121"/>
<text text-anchor="start" x="483" y="-109" font-family="Helvetica,sans-Serif" font-size="10.00">core::DynamicLoader</text>
<text text-anchor="middle" x="530" y="-98" font-family="Helvetica,sans-Serif" font-size="10.00">::realExecDlClose</text>
</a>
</g>
</g>
<!-- Node3&#45;&gt;Node6 -->
<g id="edge5_Node000003_Node000006" class="edge">
<title>Node3&#45;&gt;Node6</title>
<g id="a_edge5_Node000003_Node000006"><a xlink:title=" ">
<path fill="none" stroke="#63b8ff" d="M439.03,-102.88C447.31,-103.16 455.94,-103.46 464.42,-103.76"/>
<polygon fill="#63b8ff" stroke="#63b8ff" points="464.55,-107.26 474.67,-104.11 464.79,-100.27 464.55,-107.26"/>
</a>
</g>
</g>
<!-- Node5 -->
<g id="Node000005" class="node">
<title>Node5</title>
<g id="a_Node000005"><a xlink:href="namespacecore_1_1system.html#ad04dc647899e7a1c52498190f5e16f1c" target="_top" xlink:title=" ">
<polygon fill="white" stroke="#666666" points="729.5,-67.5 622.5,-67.5 622.5,-48.5 729.5,-48.5 729.5,-67.5"/>
<text text-anchor="middle" x="676" y="-55.5" font-family="Helvetica,sans-Serif" font-size="10.00">core::system::dlerror</text>
</a>
</g>
</g>
<!-- Node4&#45;&gt;Node5 -->
<g id="edge4_Node000004_Node000005" class="edge">
<title>Node4&#45;&gt;Node5</title>
<g id="a_edge4_Node000004_Node000005"><a xlink:title=" ">
<path fill="none" stroke="#63b8ff" d="M585.03,-58C593.84,-58 603.04,-58 612.05,-58"/>
<polygon fill="#63b8ff" stroke="#63b8ff" points="612.1,-61.5 622.1,-58 612.1,-54.5 612.1,-61.5"/>
</a>
</g>
</g>
<!-- Node7 -->
<g id="Node000007" class="node">
<title>Node7</title>
<g id="a_Node000007"><a xlink:href="namespacecore_1_1system.html#a4317d54914cd18248143183ea71252d3" target="_top" xlink:title=" ">
<polygon fill="white" stroke="#666666" points="731,-115.5 621,-115.5 621,-96.5 731,-96.5 731,-115.5"/>
<text text-anchor="middle" x="676" y="-103.5" font-family="Helvetica,sans-Serif" font-size="10.00">core::system::dlclose</text>
</a>
</g>
</g>
<!-- Node6&#45;&gt;Node7 -->
<g id="edge6_Node000006_Node000007" class="edge">
<title>Node6&#45;&gt;Node7</title>
<g id="a_edge6_Node000006_Node000007"><a xlink:title=" ">
<path fill="none" stroke="#63b8ff" d="M585.03,-106C593.31,-106 601.94,-106 610.42,-106"/>
<polygon fill="#63b8ff" stroke="#63b8ff" points="610.67,-109.5 620.67,-106 610.67,-102.5 610.67,-109.5"/>
</a>
</g>
</g>
<!-- Node9 -->
<g id="Node000009" class="node">
<title>Node9</title>
<g id="a_Node000009"><a xlink:href="namespacecore_1_1system.html#a83d3862b9812ad39b93753bbea40238b" target="_top" xlink:title=" ">
<polygon fill="white" stroke="#666666" points="437,-24.5 331,-24.5 331,-5.5 437,-5.5 437,-24.5"/>
<text text-anchor="middle" x="384" y="-12.5" font-family="Helvetica,sans-Serif" font-size="10.00">core::system::dlsym</text>
</a>
</g>
</g>
<!-- Node8&#45;&gt;Node9 -->
<g id="edge9_Node000008_Node000009" class="edge">
<title>Node8&#45;&gt;Node9</title>
<g id="a_edge9_Node000008_Node000009"><a xlink:title=" ">
<path fill="none" stroke="#63b8ff" d="M293.03,-15C301.96,-15 311.28,-15 320.4,-15"/>
<polygon fill="#63b8ff" stroke="#63b8ff" points="320.58,-18.5 330.58,-15 320.58,-11.5 320.58,-18.5"/>
</a>
</g>
</g>
</g>
</svg>
