<?xml version="1.0" encoding="UTF-8" standalone="no"?>
<!DOCTYPE svg PUBLIC "-//W3C//DTD SVG 1.1//EN"
 "http://www.w3.org/Graphics/SVG/1.1/DTD/svg11.dtd">
<!-- Generated by graphviz version 2.42.4 (0)
 -->
<!-- Title: net::config::ConfigTlsClient Pages: 1 -->
<svg width="858pt" height="291pt"
 viewBox="0.00 0.00 858.00 291.00" xmlns="http://www.w3.org/2000/svg" xmlns:xlink="http://www.w3.org/1999/xlink">
<g id="graph0" class="graph" transform="scale(1 1) rotate(0) translate(4 287)">
<title>net::config::ConfigTlsClient</title>
<!-- Node1 -->
<g id="Node000001" class="node">
<title>Node1</title>
<g id="a_Node000001"><a xlink:title=" ">
<polygon fill="#999999" stroke="transparent" points="497,-173 369,-173 369,-154 497,-154 497,-173"/>
<text text-anchor="start" x="373" y="-160.5" font-family="Helvetica,sans-Serif" font-size="10.00">net::config::ConfigTlsClient</text>
<polygon fill="none" stroke="#666666" points="369,-154 369,-173 497,-173 497,-154 369,-154"/>
</a>
</g>
</g>
<!-- Node4 -->
<g id="Node000004" class="node">
<title>Node4</title>
<g id="a_Node000004"><a xlink:href="classnet_1_1config_1_1stream_1_1tls_1_1ConfigSocketClient.html" target="_top" xlink:title=" ">
<polygon fill="white" stroke="transparent" points="133,-118 15,-118 15,-66 133,-66 133,-118"/>
<text text-anchor="start" x="19" y="-106" font-family="Helvetica,sans-Serif" font-size="10.00">net::config::stream</text>
<text text-anchor="start" x="19" y="-95" font-family="Helvetica,sans-Serif" font-size="10.00">::tls::ConfigSocketClient</text>
<text text-anchor="start" x="19" y="-84" font-family="Helvetica,sans-Serif" font-size="10.00">&lt; net::in6::stream::config</text>
<text text-anchor="start" x="24" y="-73" font-family="Helvetica,sans-Serif" font-size="10.00">::ConfigSocketClient &gt;</text>
<polygon fill="none" stroke="#666666" points="15,-66 15,-118 133,-118 133,-66 15,-66"/>
</a>
</g>
</g>
<!-- Node1&#45;&gt;Node4 -->
<g id="edge3_Node000001_Node000004" class="edge">
<title>Node1&#45;&gt;Node4</title>
<g id="a_edge3_Node000001_Node000004"><a xlink:title=" ">
<path fill="none" stroke="#63b8ff" d="M358.79,-153.26C302.93,-145.64 224.68,-133.58 157,-118 149.23,-116.21 141.12,-114.09 133.14,-111.85"/>
<polygon fill="none" stroke="#63b8ff" points="358.58,-156.76 368.95,-154.63 359.51,-149.82 358.58,-156.76"/>
</a>
</g>
</g>
<!-- Node6 -->
<g id="Node000006" class="node">
<title>Node6</title>
<g id="a_Node000006"><a xlink:href="classnet_1_1config_1_1stream_1_1tls_1_1ConfigSocketClient.html" target="_top" xlink:title=" ">
<polygon fill="white" stroke="transparent" points="282,-118 166,-118 166,-66 282,-66 282,-118"/>
<text text-anchor="start" x="170" y="-106" font-family="Helvetica,sans-Serif" font-size="10.00">net::config::stream</text>
<text text-anchor="start" x="170" y="-95" font-family="Helvetica,sans-Serif" font-size="10.00">::tls::ConfigSocketClient</text>
<text text-anchor="start" x="170" y="-84" font-family="Helvetica,sans-Serif" font-size="10.00">&lt; net::in::stream::config</text>
<text text-anchor="start" x="174" y="-73" font-family="Helvetica,sans-Serif" font-size="10.00">::ConfigSocketClient &gt;</text>
<polygon fill="none" stroke="#666666" points="166,-66 166,-118 282,-118 282,-66 166,-66"/>
</a>
</g>
</g>
<!-- Node1&#45;&gt;Node6 -->
<g id="edge5_Node000001_Node000006" class="edge">
<title>Node1&#45;&gt;Node6</title>
<g id="a_edge5_Node000001_Node000006"><a xlink:title=" ">
<path fill="none" stroke="#63b8ff" d="M397.53,-150.73C370.52,-141.77 332.41,-129.12 299,-118 293.53,-116.18 287.84,-114.28 282.14,-112.39"/>
<polygon fill="none" stroke="#63b8ff" points="396.72,-154.15 407.31,-153.98 398.92,-147.51 396.72,-154.15"/>
</a>
</g>
</g>
<!-- Node8 -->
<g id="Node000008" class="node">
<title>Node8</title>
<g id="a_Node000008"><a xlink:href="classnet_1_1config_1_1stream_1_1tls_1_1ConfigSocketClient.html" target="_top" xlink:title=" ">
<polygon fill="white" stroke="transparent" points="424,-118 308,-118 308,-66 424,-66 424,-118"/>
<text text-anchor="start" x="312" y="-106" font-family="Helvetica,sans-Serif" font-size="10.00">net::config::stream</text>
<text text-anchor="start" x="312" y="-95" font-family="Helvetica,sans-Serif" font-size="10.00">::tls::ConfigSocketClient</text>
<text text-anchor="start" x="312" y="-84" font-family="Helvetica,sans-Serif" font-size="10.00">&lt; net::l2::stream::config</text>
<text text-anchor="start" x="316" y="-73" font-family="Helvetica,sans-Serif" font-size="10.00">::ConfigSocketClient &gt;</text>
<polygon fill="none" stroke="#666666" points="308,-66 308,-118 424,-118 424,-66 308,-66"/>
</a>
</g>
</g>
<!-- Node1&#45;&gt;Node8 -->
<g id="edge7_Node000001_Node000008" class="edge">
<title>Node1&#45;&gt;Node8</title>
<g id="a_edge7_Node000001_Node000008"><a xlink:title=" ">
<path fill="none" stroke="#63b8ff" d="M417.71,-146.63C409.56,-138.18 399.34,-127.59 390.15,-118.05"/>
<polygon fill="none" stroke="#63b8ff" points="415.32,-149.21 424.78,-153.98 420.36,-144.35 415.32,-149.21"/>
</a>
</g>
</g>
<!-- Node10 -->
<g id="Node000010" class="node">
<title>Node10</title>
<g id="a_Node000010"><a xlink:href="classnet_1_1config_1_1stream_1_1tls_1_1ConfigSocketClient.html" target="_top" xlink:title=" ">
<polygon fill="white" stroke="transparent" points="558,-118 442,-118 442,-66 558,-66 558,-118"/>
<text text-anchor="start" x="446" y="-106" font-family="Helvetica,sans-Serif" font-size="10.00">net::config::stream</text>
<text text-anchor="start" x="446" y="-95" font-family="Helvetica,sans-Serif" font-size="10.00">::tls::ConfigSocketClient</text>
<text text-anchor="start" x="446" y="-84" font-family="Helvetica,sans-Serif" font-size="10.00">&lt; net::rc::stream::config</text>
<text text-anchor="start" x="450" y="-73" font-family="Helvetica,sans-Serif" font-size="10.00">::ConfigSocketClient &gt;</text>
<polygon fill="none" stroke="#666666" points="442,-66 442,-118 558,-118 558,-66 442,-66"/>
</a>
</g>
</g>
<!-- Node1&#45;&gt;Node10 -->
<g id="edge9_Node000001_Node000010" class="edge">
<title>Node1&#45;&gt;Node10</title>
<g id="a_edge9_Node000001_Node000010"><a xlink:title=" ">
<path fill="none" stroke="#63b8ff" d="M448.29,-146.63C456.44,-138.18 466.66,-127.59 475.85,-118.05"/>
<polygon fill="none" stroke="#63b8ff" points="445.64,-144.35 441.22,-153.98 450.68,-149.21 445.64,-144.35"/>
</a>
</g>
</g>
<!-- Node12 -->
<g id="Node000012" class="node">
<title>Node12</title>
<g id="a_Node000012"><a xlink:href="classnet_1_1config_1_1stream_1_1tls_1_1ConfigSocketClient.html" target="_top" xlink:title=" ">
<polygon fill="white" stroke="transparent" points="692,-118 576,-118 576,-66 692,-66 692,-118"/>
<text text-anchor="start" x="580" y="-106" font-family="Helvetica,sans-Serif" font-size="10.00">net::config::stream</text>
<text text-anchor="start" x="580" y="-95" font-family="Helvetica,sans-Serif" font-size="10.00">::tls::ConfigSocketClient</text>
<text text-anchor="start" x="580" y="-84" font-family="Helvetica,sans-Serif" font-size="10.00">&lt; net::un::stream::config</text>
<text text-anchor="start" x="584" y="-73" font-family="Helvetica,sans-Serif" font-size="10.00">::ConfigSocketClient &gt;</text>
<polygon fill="none" stroke="#666666" points="576,-66 576,-118 692,-118 692,-66 576,-66"/>
</a>
</g>
</g>
<!-- Node1&#45;&gt;Node12 -->
<g id="edge11_Node000001_Node000012" class="edge">
<title>Node1&#45;&gt;Node12</title>
<g id="a_edge11_Node000001_Node000012"><a xlink:title=" ">
<path fill="none" stroke="#63b8ff" d="M469.59,-150.75C496.6,-141.98 534.2,-129.56 567,-118 569.93,-116.97 572.92,-115.9 575.94,-114.81"/>
<polygon fill="none" stroke="#63b8ff" points="468.23,-147.51 459.79,-153.92 470.39,-154.17 468.23,-147.51"/>
</a>
</g>
</g>
<!-- Node14 -->
<g id="Node000014" class="node">
<title>Node14</title>
<g id="a_Node000014"><a xlink:href="classnet_1_1config_1_1stream_1_1tls_1_1ConfigSocketClient.html" target="_top" xlink:title=" ">
<polygon fill="white" stroke="transparent" points="850,-112.5 710,-112.5 710,-71.5 850,-71.5 850,-112.5"/>
<text text-anchor="start" x="714" y="-100" font-family="Helvetica,sans-Serif" font-size="10.00">net::config::stream</text>
<text text-anchor="start" x="714" y="-89" font-family="Helvetica,sans-Serif" font-size="10.00">::tls::ConfigSocketClient</text>
<text text-anchor="start" x="714" y="-78" font-family="Helvetica,sans-Serif" font-size="10.00">&lt; ConfigSocketClientBaseT &gt;</text>
<polygon fill="none" stroke="#666666" points="710,-71.5 710,-112.5 850,-112.5 850,-71.5 710,-71.5"/>
</a>
</g>
</g>
<!-- Node1&#45;&gt;Node14 -->
<g id="edge13_Node000001_Node000014" class="edge">
<title>Node1&#45;&gt;Node14</title>
<g id="a_edge13_Node000001_Node000014"><a xlink:title=" ">
<path fill="none" stroke="#63b8ff" d="M507.33,-153.05C561.44,-145.47 636.26,-133.53 701,-118 707.71,-116.39 714.69,-114.5 721.59,-112.5"/>
<polygon fill="none" stroke="#63b8ff" points="506.56,-149.62 497.14,-154.46 507.52,-156.55 506.56,-149.62"/>
</a>
</g>
</g>
<!-- Node2 -->
<g id="Node000002" class="node">
<title>Node2</title>
<g id="a_Node000002"><a xlink:href="classnet_1_1config_1_1ConfigTls.html" target="_top" xlink:title=" ">
<polygon fill="white" stroke="transparent" points="484,-228 382,-228 382,-209 484,-209 484,-228"/>
<text text-anchor="start" x="386" y="-215.5" font-family="Helvetica,sans-Serif" font-size="10.00">net::config::ConfigTls</text>
<polygon fill="none" stroke="#666666" points="382,-209 382,-228 484,-228 484,-209 382,-209"/>
</a>
</g>
</g>
<!-- Node2&#45;&gt;Node1 -->
<g id="edge1_Node000001_Node000002" class="edge">
<title>Node2&#45;&gt;Node1</title>
<g id="a_edge1_Node000001_Node000002"><a xlink:title=" ">
<path fill="none" stroke="#63b8ff" d="M433,-198.66C433,-189.93 433,-179.99 433,-173.09"/>
<polygon fill="none" stroke="#63b8ff" points="429.5,-198.75 433,-208.75 436.5,-198.75 429.5,-198.75"/>
</a>
</g>
</g>
<!-- Node3 -->
<g id="Node000003" class="node">
<title>Node3</title>
<g id="a_Node000003"><a xlink:href="classnet_1_1config_1_1ConfigSection.html" target="_top" xlink:title=" ">
<polygon fill="white" stroke="transparent" points="494,-283 372,-283 372,-264 494,-264 494,-283"/>
<text text-anchor="start" x="376" y="-270.5" font-family="Helvetica,sans-Serif" font-size="10.00">net::config::ConfigSection</text>
<polygon fill="none" stroke="#666666" points="372,-264 372,-283 494,-283 494,-264 372,-264"/>
</a>
</g>
</g>
<!-- Node3&#45;&gt;Node2 -->
<g id="edge2_Node000002_Node000003" class="edge">
<title>Node3&#45;&gt;Node2</title>
<g id="a_edge2_Node000002_Node000003"><a xlink:title=" ">
<path fill="none" stroke="darkgreen" d="M433,-253.66C433,-244.93 433,-234.99 433,-228.09"/>
<polygon fill="none" stroke="darkgreen" points="429.5,-253.75 433,-263.75 436.5,-253.75 429.5,-253.75"/>
</a>
</g>
</g>
<!-- Node5 -->
<g id="Node000005" class="node">
<title>Node5</title>
<g id="a_Node000005"><a xlink:href="classnet_1_1in6_1_1stream_1_1tls_1_1config_1_1ConfigSocketClient.html" target="_top" xlink:title=" ">
<polygon fill="white" stroke="transparent" points="132,-30 0,-30 0,0 132,0 132,-30"/>
<text text-anchor="start" x="4" y="-18" font-family="Helvetica,sans-Serif" font-size="10.00">net::in6::stream::tls</text>
<text text-anchor="start" x="4" y="-7" font-family="Helvetica,sans-Serif" font-size="10.00">::config::ConfigSocketClient</text>
<polygon fill="none" stroke="#666666" points="0,0 0,-30 132,-30 132,0 0,0"/>
</a>
</g>
</g>
<!-- Node4&#45;&gt;Node5 -->
<g id="edge4_Node000004_Node000005" class="edge">
<title>Node4&#45;&gt;Node5</title>
<g id="a_edge4_Node000004_Node000005"><a xlink:title=" ">
<path fill="none" stroke="#63b8ff" d="M70.2,-55.41C69.26,-46.57 68.3,-37.58 67.54,-30.43"/>
<polygon fill="none" stroke="#63b8ff" points="66.75,-56.04 71.29,-65.61 73.71,-55.29 66.75,-56.04"/>
</a>
</g>
</g>
<!-- Node7 -->
<g id="Node000007" class="node">
<title>Node7</title>
<g id="a_Node000007"><a xlink:href="classnet_1_1in_1_1stream_1_1tls_1_1config_1_1ConfigSocketClient.html" target="_top" xlink:title=" ">
<polygon fill="white" stroke="transparent" points="282,-30 150,-30 150,0 282,0 282,-30"/>
<text text-anchor="start" x="154" y="-18" font-family="Helvetica,sans-Serif" font-size="10.00">net::in::stream::tls</text>
<text text-anchor="start" x="154" y="-7" font-family="Helvetica,sans-Serif" font-size="10.00">::config::ConfigSocketClient</text>
<polygon fill="none" stroke="#666666" points="150,0 150,-30 282,-30 282,0 150,0"/>
</a>
</g>
</g>
<!-- Node6&#45;&gt;Node7 -->
<g id="edge6_Node000006_Node000007" class="edge">
<title>Node6&#45;&gt;Node7</title>
<g id="a_edge6_Node000006_Node000007"><a xlink:title=" ">
<path fill="none" stroke="#63b8ff" d="M220.2,-55.41C219.26,-46.57 218.3,-37.58 217.54,-30.43"/>
<polygon fill="none" stroke="#63b8ff" points="216.75,-56.04 221.29,-65.61 223.71,-55.29 216.75,-56.04"/>
</a>
</g>
</g>
<!-- Node9 -->
<g id="Node000009" class="node">
<title>Node9</title>
<g id="a_Node000009"><a xlink:href="classnet_1_1l2_1_1stream_1_1tls_1_1config_1_1ConfigSocketClient.html" target="_top" xlink:title=" ">
<polygon fill="white" stroke="transparent" points="432,-30 300,-30 300,0 432,0 432,-30"/>
<text text-anchor="start" x="304" y="-18" font-family="Helvetica,sans-Serif" font-size="10.00">net::l2::stream::tls</text>
<text text-anchor="start" x="304" y="-7" font-family="Helvetica,sans-Serif" font-size="10.00">::config::ConfigSocketClient</text>
<polygon fill="none" stroke="#666666" points="300,0 300,-30 432,-30 432,0 300,0"/>
</a>
</g>
</g>
<!-- Node8&#45;&gt;Node9 -->
<g id="edge8_Node000008_Node000009" class="edge">
<title>Node8&#45;&gt;Node9</title>
<g id="a_edge8_Node000008_Node000009"><a xlink:title=" ">
<path fill="none" stroke="#63b8ff" d="M366,-55.41C366,-46.57 366,-37.58 366,-30.43"/>
<polygon fill="none" stroke="#63b8ff" points="362.5,-55.61 366,-65.61 369.5,-55.61 362.5,-55.61"/>
</a>
</g>
</g>
<!-- Node11 -->
<g id="Node000011" class="node">
<title>Node11</title>
<g id="a_Node000011"><a xlink:href="classnet_1_1rc_1_1stream_1_1tls_1_1config_1_1ConfigSocketClient.html" target="_top" xlink:title=" ">
<polygon fill="white" stroke="transparent" points="582,-30 450,-30 450,0 582,0 582,-30"/>
<text text-anchor="start" x="454" y="-18" font-family="Helvetica,sans-Serif" font-size="10.00">net::rc::stream::tls</text>
<text text-anchor="start" x="454" y="-7" font-family="Helvetica,sans-Serif" font-size="10.00">::config::ConfigSocketClient</text>
<polygon fill="none" stroke="#666666" points="450,0 450,-30 582,-30 582,0 450,0"/>
</a>
</g>
</g>
<!-- Node10&#45;&gt;Node11 -->
<g id="edge10_Node000010_Node000011" class="edge">
<title>Node10&#45;&gt;Node11</title>
<g id="a_edge10_Node000010_Node000011"><a xlink:title=" ">
<path fill="none" stroke="#63b8ff" d="M507.53,-55.7C509.44,-46.76 511.38,-37.66 512.92,-30.43"/>
<polygon fill="none" stroke="#63b8ff" points="504.08,-55.1 505.42,-65.61 510.93,-56.56 504.08,-55.1"/>
</a>
</g>
</g>
<!-- Node13 -->
<g id="Node000013" class="node">
<title>Node13</title>
<g id="a_Node000013"><a xlink:href="classnet_1_1un_1_1stream_1_1tls_1_1config_1_1ConfigSocketClient.html" target="_top" xlink:title=" ">
<polygon fill="white" stroke="transparent" points="732,-30 600,-30 600,0 732,0 732,-30"/>
<text text-anchor="start" x="604" y="-18" font-family="Helvetica,sans-Serif" font-size="10.00">net::un::stream::tls</text>
<text text-anchor="start" x="604" y="-7" font-family="Helvetica,sans-Serif" font-size="10.00">::config::ConfigSocketClient</text>
<polygon fill="none" stroke="#666666" points="600,0 600,-30 732,-30 732,0 600,0"/>
</a>
</g>
</g>
<!-- Node12&#45;&gt;Node13 -->
<g id="edge12_Node000012_Node000013" class="edge">
<title>Node12&#45;&gt;Node13</title>
<g id="a_edge12_Node000012_Node000013"><a xlink:title=" ">
<path fill="none" stroke="#63b8ff" d="M648.82,-56.27C652.71,-47.15 656.69,-37.81 659.84,-30.43"/>
<polygon fill="none" stroke="#63b8ff" points="645.54,-55.04 644.83,-65.61 651.98,-57.78 645.54,-55.04"/>
</a>
</g>
</g>
</g>
</svg>
