<?xml version="1.0" encoding="UTF-8" standalone="no"?>
<!DOCTYPE svg PUBLIC "-//W3C//DTD SVG 1.1//EN"
 "http://www.w3.org/Graphics/SVG/1.1/DTD/svg11.dtd">
<!-- Generated by graphviz version 2.43.0 (0)
 -->
<!-- Title: iot::mqtt::server::broker::Broker::Broker Pages: 1 -->
<svg width="1004pt" height="479pt"
 viewBox="0.00 0.00 1004.00 479.00" xmlns="http://www.w3.org/2000/svg" xmlns:xlink="http://www.w3.org/1999/xlink">
<g id="graph0" class="graph" transform="scale(1 1) rotate(0) translate(4 475)">
<title>iot::mqtt::server::broker::Broker::Broker</title>
<!-- Node1 -->
<g id="Node000001" class="node">
<title>Node1</title>
<g id="a_Node000001"><a xlink:title=" ">
<polygon fill="#999999" stroke="#666666" points="122,-237.5 0,-237.5 0,-207.5 122,-207.5 122,-237.5"/>
<text text-anchor="start" x="8" y="-225.5" font-family="Helvetica,sans-Serif" font-size="10.00">iot::mqtt::server::</text>
<text text-anchor="middle" x="61" y="-214.5" font-family="Helvetica,sans-Serif" font-size="10.00">broker::Broker::Broker</text>
</a>
</g>
</g>
<!-- Node2 -->
<g id="Node000002" class="node">
<title>Node2</title>
<g id="a_Node000002"><a xlink:href="classiot_1_1mqtt_1_1server_1_1broker_1_1RetainTree.html#aeae126c5a3f18fce67b2295acbaccfda" target="_top" xlink:title=" ">
<polygon fill="white" stroke="#666666" points="295.5,-385.5 160.5,-385.5 160.5,-355.5 295.5,-355.5 295.5,-385.5"/>
<text text-anchor="start" x="168.5" y="-373.5" font-family="Helvetica,sans-Serif" font-size="10.00">iot::mqtt::server::</text>
<text text-anchor="middle" x="228" y="-362.5" font-family="Helvetica,sans-Serif" font-size="10.00">broker::RetainTree::clear</text>
</a>
</g>
</g>
<!-- Node1&#45;&gt;Node2 -->
<g id="edge1_Node000001_Node000002" class="edge">
<title>Node1&#45;&gt;Node2</title>
<g id="a_edge1_Node000001_Node000002"><a xlink:title=" ">
<path fill="none" stroke="#63b8ff" d="M74.03,-237.56C91.3,-258.64 124.7,-297.49 158,-325.5 168.45,-334.29 180.7,-342.78 191.96,-349.98"/>
<polygon fill="#63b8ff" stroke="#63b8ff" points="190.39,-353.12 200.72,-355.45 194.09,-347.18 190.39,-353.12"/>
</a>
</g>
</g>
<!-- Node5 -->
<g id="Node000005" class="node">
<title>Node5</title>
<g id="a_Node000005"><a xlink:href="classiot_1_1mqtt_1_1server_1_1broker_1_1SubscribtionTree.html#a9f8c96cc6ba68e842107553eb9fd410f" target="_top" xlink:title=" ">
<polygon fill="white" stroke="#666666" points="295,-165 161,-165 161,-124 295,-124 295,-165"/>
<text text-anchor="start" x="169" y="-153" font-family="Helvetica,sans-Serif" font-size="10.00">iot::mqtt::server::</text>
<text text-anchor="start" x="169" y="-142" font-family="Helvetica,sans-Serif" font-size="10.00">broker::SubscribtionTree</text>
<text text-anchor="middle" x="228" y="-131" font-family="Helvetica,sans-Serif" font-size="10.00">::clear</text>
</a>
</g>
</g>
<!-- Node1&#45;&gt;Node5 -->
<g id="edge4_Node000001_Node000005" class="edge">
<title>Node1&#45;&gt;Node5</title>
<g id="a_edge4_Node000001_Node000005"><a xlink:title=" ">
<path fill="none" stroke="#63b8ff" d="M93.81,-207.46C116.6,-196.69 147.81,-181.94 174.29,-169.42"/>
<polygon fill="#63b8ff" stroke="#63b8ff" points="175.89,-172.53 183.43,-165.1 172.9,-166.21 175.89,-172.53"/>
</a>
</g>
</g>
<!-- Node8 -->
<g id="Node000008" class="node">
<title>Node8</title>
<g id="a_Node000008"><a xlink:href="classiot_1_1mqtt_1_1server_1_1broker_1_1RetainTree.html#a35b5514093e590d7a7e3d5889f7ab82e" target="_top" xlink:title=" ">
<polygon fill="white" stroke="#666666" points="283.5,-316 172.5,-316 172.5,-275 283.5,-275 283.5,-316"/>
<text text-anchor="start" x="180.5" y="-304" font-family="Helvetica,sans-Serif" font-size="10.00">iot::mqtt::server::</text>
<text text-anchor="start" x="180.5" y="-293" font-family="Helvetica,sans-Serif" font-size="10.00">broker::RetainTree::</text>
<text text-anchor="middle" x="228" y="-282" font-family="Helvetica,sans-Serif" font-size="10.00">fromJson</text>
</a>
</g>
</g>
<!-- Node1&#45;&gt;Node8 -->
<g id="edge7_Node000001_Node000008" class="edge">
<title>Node1&#45;&gt;Node8</title>
<g id="a_edge7_Node000001_Node000008"><a xlink:title=" ">
<path fill="none" stroke="#63b8ff" d="M96.19,-237.63C117.87,-247.22 146.42,-259.85 171.31,-270.86"/>
<polygon fill="#63b8ff" stroke="#63b8ff" points="170.09,-274.15 180.65,-274.99 172.92,-267.75 170.09,-274.15"/>
</a>
</g>
</g>
<!-- Node11 -->
<g id="Node000011" class="node">
<title>Node11</title>
<g id="a_Node000011"><a xlink:href="classiot_1_1mqtt_1_1server_1_1broker_1_1SubscribtionTree.html#a4dd482c22ab9bd702d11232db0953bf2" target="_top" xlink:title=" ">
<polygon fill="white" stroke="#666666" points="295,-104 161,-104 161,-63 295,-63 295,-104"/>
<text text-anchor="start" x="169" y="-92" font-family="Helvetica,sans-Serif" font-size="10.00">iot::mqtt::server::</text>
<text text-anchor="start" x="169" y="-81" font-family="Helvetica,sans-Serif" font-size="10.00">broker::SubscribtionTree</text>
<text text-anchor="middle" x="228" y="-70" font-family="Helvetica,sans-Serif" font-size="10.00">::fromJson</text>
</a>
</g>
</g>
<!-- Node1&#45;&gt;Node11 -->
<g id="edge12_Node000001_Node000011" class="edge">
<title>Node1&#45;&gt;Node11</title>
<g id="a_edge12_Node000001_Node000011"><a xlink:title=" ">
<path fill="none" stroke="#63b8ff" d="M72.54,-207.25C88.73,-184.73 121.68,-142.36 158,-115.5 160.99,-113.29 164.16,-111.18 167.42,-109.17"/>
<polygon fill="#63b8ff" stroke="#63b8ff" points="169.33,-112.11 176.26,-104.1 165.85,-106.04 169.33,-112.11"/>
</a>
</g>
</g>
<!-- Node13 -->
<g id="Node000013" class="node">
<title>Node13</title>
<g id="a_Node000013"><a xlink:href="classiot_1_1mqtt_1_1server_1_1broker_1_1Session.html#a6e55399c07d8ca278bc166623a229d35" target="_top" xlink:title=" ">
<polygon fill="white" stroke="#666666" points="298,-237.5 158,-237.5 158,-207.5 298,-207.5 298,-237.5"/>
<text text-anchor="start" x="166" y="-225.5" font-family="Helvetica,sans-Serif" font-size="10.00">iot::mqtt::server::</text>
<text text-anchor="middle" x="228" y="-214.5" font-family="Helvetica,sans-Serif" font-size="10.00">broker::Session::fromJson</text>
</a>
</g>
</g>
<!-- Node1&#45;&gt;Node13 -->
<g id="edge16_Node000001_Node000013" class="edge">
<title>Node1&#45;&gt;Node13</title>
<g id="a_edge16_Node000001_Node000013"><a xlink:title=" ">
<path fill="none" stroke="#63b8ff" d="M122.04,-222.5C130.38,-222.5 139.06,-222.5 147.69,-222.5"/>
<polygon fill="#63b8ff" stroke="#63b8ff" points="147.77,-226 157.77,-222.5 147.77,-219 147.77,-226"/>
</a>
</g>
</g>
<!-- Node22 -->
<g id="Node000022" class="node">
<title>Node22</title>
<g id="a_Node000022"><a xlink:href="classiot_1_1mqtt_1_1server_1_1broker_1_1RetainTree.html#aaca99279ac491bb0faf6d903a0249704" target="_top" xlink:title=" ">
<polygon fill="white" stroke="#666666" points="462.5,-471 351.5,-471 351.5,-430 462.5,-430 462.5,-471"/>
<text text-anchor="start" x="359.5" y="-459" font-family="Helvetica,sans-Serif" font-size="10.00">iot::mqtt::server::</text>
<text text-anchor="start" x="359.5" y="-448" font-family="Helvetica,sans-Serif" font-size="10.00">broker::RetainTree::</text>
<text text-anchor="middle" x="407" y="-437" font-family="Helvetica,sans-Serif" font-size="10.00">RetainTree</text>
</a>
</g>
</g>
<!-- Node1&#45;&gt;Node22 -->
<g id="edge26_Node000001_Node000022" class="edge">
<title>Node1&#45;&gt;Node22</title>
<g id="a_edge26_Node000001_Node000022"><a xlink:title=" ">
<path fill="none" stroke="#63b8ff" d="M65.91,-237.71C75.44,-271.6 103.22,-353.55 158,-394.5 211.14,-434.22 287.38,-446.61 341.27,-450.06"/>
<polygon fill="#63b8ff" stroke="#63b8ff" points="341.22,-453.56 351.4,-450.62 341.6,-446.57 341.22,-453.56"/>
</a>
</g>
</g>
<!-- Node23 -->
<g id="Node000023" class="node">
<title>Node23</title>
<g id="a_Node000023"><a xlink:href="classiot_1_1mqtt_1_1server_1_1broker_1_1SubscribtionTree.html#ac6714d9335da30dcd7e573aad16bbe09" target="_top" xlink:title=" ">
<polygon fill="white" stroke="#666666" points="295,-41 161,-41 161,0 295,0 295,-41"/>
<text text-anchor="start" x="169" y="-29" font-family="Helvetica,sans-Serif" font-size="10.00">iot::mqtt::server::</text>
<text text-anchor="start" x="169" y="-18" font-family="Helvetica,sans-Serif" font-size="10.00">broker::SubscribtionTree</text>
<text text-anchor="middle" x="228" y="-7" font-family="Helvetica,sans-Serif" font-size="10.00">::SubscribtionTree</text>
</a>
</g>
</g>
<!-- Node1&#45;&gt;Node23 -->
<g id="edge28_Node000001_Node000023" class="edge">
<title>Node1&#45;&gt;Node23</title>
<g id="a_edge28_Node000001_Node000023"><a xlink:title=" ">
<path fill="none" stroke="#63b8ff" d="M67.27,-207.07C78.93,-174.88 109.79,-99.84 158,-54.5 160.93,-51.75 164.12,-49.17 167.47,-46.77"/>
<polygon fill="#63b8ff" stroke="#63b8ff" points="169.61,-49.55 176.08,-41.16 165.79,-43.69 169.61,-49.55"/>
</a>
</g>
</g>
<!-- Node3 -->
<g id="Node000003" class="node">
<title>Node3</title>
<g id="a_Node000003"><a xlink:href="classiot_1_1mqtt_1_1server_1_1broker_1_1RetainTree_1_1TopicLevel.html#a4d010e7dda6897199e59b342e95eddc1" target="_top" xlink:title=" ">
<polygon fill="white" stroke="#666666" points="462.5,-412 351.5,-412 351.5,-371 462.5,-371 462.5,-412"/>
<text text-anchor="start" x="359.5" y="-400" font-family="Helvetica,sans-Serif" font-size="10.00">iot::mqtt::server::</text>
<text text-anchor="start" x="359.5" y="-389" font-family="Helvetica,sans-Serif" font-size="10.00">broker::RetainTree::</text>
<text text-anchor="middle" x="407" y="-378" font-family="Helvetica,sans-Serif" font-size="10.00">TopicLevel::clear</text>
</a>
</g>
</g>
<!-- Node2&#45;&gt;Node3 -->
<g id="edge2_Node000002_Node000003" class="edge">
<title>Node2&#45;&gt;Node3</title>
<g id="a_edge2_Node000002_Node000003"><a xlink:title=" ">
<path fill="none" stroke="#63b8ff" d="M295.66,-378.41C310.55,-380.18 326.32,-382.05 341.14,-383.8"/>
<polygon fill="#63b8ff" stroke="#63b8ff" points="340.88,-387.3 351.22,-385 341.7,-380.35 340.88,-387.3"/>
</a>
</g>
</g>
<!-- Node4 -->
<g id="Node000004" class="node">
<title>Node4</title>
<g id="a_Node000004"><a xlink:href="classiot_1_1mqtt_1_1server_1_1broker_1_1RetainTree_1_1TopicLevel.html#a1b33837bec4958d7c867aafef369744b" target="_top" xlink:title=" ">
<polygon fill="white" stroke="#666666" points="651.5,-412 526.5,-412 526.5,-371 651.5,-371 651.5,-412"/>
<text text-anchor="start" x="534.5" y="-400" font-family="Helvetica,sans-Serif" font-size="10.00">iot::mqtt::server::</text>
<text text-anchor="start" x="534.5" y="-389" font-family="Helvetica,sans-Serif" font-size="10.00">broker::RetainTree::</text>
<text text-anchor="middle" x="589" y="-378" font-family="Helvetica,sans-Serif" font-size="10.00">TopicLevel::TopicLevel</text>
</a>
</g>
</g>
<!-- Node3&#45;&gt;Node4 -->
<g id="edge3_Node000003_Node000004" class="edge">
<title>Node3&#45;&gt;Node4</title>
<g id="a_edge3_Node000003_Node000004"><a xlink:title=" ">
<path fill="none" stroke="#63b8ff" d="M462.98,-391.5C479.75,-391.5 498.44,-391.5 516.15,-391.5"/>
<polygon fill="#63b8ff" stroke="#63b8ff" points="516.44,-395 526.44,-391.5 516.44,-388 516.44,-395"/>
</a>
</g>
</g>
<!-- Node6 -->
<g id="Node000006" class="node">
<title>Node6</title>
<g id="a_Node000006"><a xlink:href="classiot_1_1mqtt_1_1server_1_1broker_1_1SubscribtionTree_1_1TopicLevel.html#a58137fe71456e9249cfc8ed9c3394e4b" target="_top" xlink:title=" ">
<polygon fill="white" stroke="#666666" points="474,-141 340,-141 340,-100 474,-100 474,-141"/>
<text text-anchor="start" x="348" y="-129" font-family="Helvetica,sans-Serif" font-size="10.00">iot::mqtt::server::</text>
<text text-anchor="start" x="348" y="-118" font-family="Helvetica,sans-Serif" font-size="10.00">broker::SubscribtionTree</text>
<text text-anchor="middle" x="407" y="-107" font-family="Helvetica,sans-Serif" font-size="10.00">::TopicLevel::clear</text>
</a>
</g>
</g>
<!-- Node5&#45;&gt;Node6 -->
<g id="edge5_Node000005_Node000006" class="edge">
<title>Node5&#45;&gt;Node6</title>
<g id="a_edge5_Node000005_Node000006"><a xlink:title=" ">
<path fill="none" stroke="#63b8ff" d="M295.16,-135.53C306.48,-133.99 318.31,-132.39 329.86,-130.82"/>
<polygon fill="#63b8ff" stroke="#63b8ff" points="330.48,-134.27 339.92,-129.46 329.54,-127.34 330.48,-134.27"/>
</a>
</g>
</g>
<!-- Node7 -->
<g id="Node000007" class="node">
<title>Node7</title>
<g id="a_Node000007"><a xlink:href="classiot_1_1mqtt_1_1server_1_1broker_1_1SubscribtionTree_1_1TopicLevel.html#a61a2a537142b3a860bd6886f301ff372" target="_top" xlink:title=" ">
<polygon fill="white" stroke="#666666" points="656,-64 522,-64 522,-23 656,-23 656,-64"/>
<text text-anchor="start" x="530" y="-52" font-family="Helvetica,sans-Serif" font-size="10.00">iot::mqtt::server::</text>
<text text-anchor="start" x="530" y="-41" font-family="Helvetica,sans-Serif" font-size="10.00">broker::SubscribtionTree</text>
<text text-anchor="middle" x="589" y="-30" font-family="Helvetica,sans-Serif" font-size="10.00">::TopicLevel::TopicLevel</text>
</a>
</g>
</g>
<!-- Node6&#45;&gt;Node7 -->
<g id="edge6_Node000006_Node000007" class="edge">
<title>Node6&#45;&gt;Node7</title>
<g id="a_edge6_Node000006_Node000007"><a xlink:title=" ">
<path fill="none" stroke="#63b8ff" d="M459.61,-99.97C466.48,-97.16 473.42,-94.28 480,-91.5 497.46,-84.11 516.38,-75.8 533.44,-68.2"/>
<polygon fill="#63b8ff" stroke="#63b8ff" points="535,-71.33 542.7,-64.06 532.14,-64.94 535,-71.33"/>
</a>
</g>
</g>
<!-- Node9 -->
<g id="Node000009" class="node">
<title>Node9</title>
<g id="a_Node000009"><a xlink:href="classiot_1_1mqtt_1_1server_1_1broker_1_1RetainTree_1_1TopicLevel.html#a2db67e5d191580e179ea7864b658377b" target="_top" xlink:title=" ">
<polygon fill="white" stroke="#666666" points="465.5,-335 348.5,-335 348.5,-294 465.5,-294 465.5,-335"/>
<text text-anchor="start" x="356.5" y="-323" font-family="Helvetica,sans-Serif" font-size="10.00">iot::mqtt::server::</text>
<text text-anchor="start" x="356.5" y="-312" font-family="Helvetica,sans-Serif" font-size="10.00">broker::RetainTree::</text>
<text text-anchor="middle" x="407" y="-301" font-family="Helvetica,sans-Serif" font-size="10.00">TopicLevel::fromJson</text>
</a>
</g>
</g>
<!-- Node8&#45;&gt;Node9 -->
<g id="edge8_Node000008_Node000009" class="edge">
<title>Node8&#45;&gt;Node9</title>
<g id="a_edge8_Node000008_Node000009"><a xlink:title=" ">
<path fill="none" stroke="#63b8ff" d="M283.55,-301.36C300.78,-303.21 320.04,-305.27 338.09,-307.21"/>
<polygon fill="#63b8ff" stroke="#63b8ff" points="337.94,-310.71 348.26,-308.3 338.69,-303.75 337.94,-310.71"/>
</a>
</g>
</g>
<!-- Node9&#45;&gt;Node4 -->
<g id="edge11_Node000009_Node000004" class="edge">
<title>Node9&#45;&gt;Node4</title>
<g id="a_edge11_Node000009_Node000004"><a xlink:title=" ">
<path fill="none" stroke="#63b8ff" d="M456.24,-335.13C479.13,-344.93 506.65,-356.7 530.61,-366.95"/>
<polygon fill="#63b8ff" stroke="#63b8ff" points="529.37,-370.23 539.94,-370.94 532.13,-363.79 529.37,-370.23"/>
</a>
</g>
</g>
<!-- Node9&#45;&gt;Node9 -->
<g id="edge10_Node000009_Node000009" class="edge">
<title>Node9&#45;&gt;Node9</title>
<g id="a_edge10_Node000009_Node000009"><a xlink:title=" ">
<path fill="none" stroke="#63b8ff" d="M374.29,-335.1C370.72,-344.65 381.62,-353 407,-353 422.86,-353 433.07,-349.74 437.62,-344.96"/>
<polygon fill="#63b8ff" stroke="#63b8ff" points="441.06,-345.61 439.71,-335.1 434.22,-344.15 441.06,-345.61"/>
</a>
</g>
</g>
<!-- Node10 -->
<g id="Node000010" class="node">
<title>Node10</title>
<g id="a_Node000010"><a xlink:href="classiot_1_1mqtt_1_1server_1_1broker_1_1Message.html#aed6cf730690e99d5c7a0cc6710d21c88" target="_top" xlink:title=" ">
<polygon fill="white" stroke="#666666" points="662,-307.5 516,-307.5 516,-277.5 662,-277.5 662,-307.5"/>
<text text-anchor="start" x="524" y="-295.5" font-family="Helvetica,sans-Serif" font-size="10.00">iot::mqtt::server::</text>
<text text-anchor="middle" x="589" y="-284.5" font-family="Helvetica,sans-Serif" font-size="10.00">broker::Message::fromJson</text>
</a>
</g>
</g>
<!-- Node9&#45;&gt;Node10 -->
<g id="edge9_Node000009_Node000010" class="edge">
<title>Node9&#45;&gt;Node10</title>
<g id="a_edge9_Node000009_Node000010"><a xlink:title=" ">
<path fill="none" stroke="#63b8ff" d="M465.94,-307.42C478.64,-305.87 492.31,-304.2 505.75,-302.55"/>
<polygon fill="#63b8ff" stroke="#63b8ff" points="506.46,-305.99 515.96,-301.3 505.61,-299.04 506.46,-305.99"/>
</a>
</g>
</g>
<!-- Node12 -->
<g id="Node000012" class="node">
<title>Node12</title>
<g id="a_Node000012"><a xlink:href="classiot_1_1mqtt_1_1server_1_1broker_1_1SubscribtionTree_1_1TopicLevel.html#a4d9067806fd5f967b69db751346ad694" target="_top" xlink:title=" ">
<polygon fill="white" stroke="#666666" points="474,-64 340,-64 340,-23 474,-23 474,-64"/>
<text text-anchor="start" x="348" y="-52" font-family="Helvetica,sans-Serif" font-size="10.00">iot::mqtt::server::</text>
<text text-anchor="start" x="348" y="-41" font-family="Helvetica,sans-Serif" font-size="10.00">broker::SubscribtionTree</text>
<text text-anchor="middle" x="407" y="-30" font-family="Helvetica,sans-Serif" font-size="10.00">::TopicLevel::fromJson</text>
</a>
</g>
</g>
<!-- Node11&#45;&gt;Node12 -->
<g id="edge13_Node000011_Node000012" class="edge">
<title>Node11&#45;&gt;Node12</title>
<g id="a_edge13_Node000011_Node000012"><a xlink:title=" ">
<path fill="none" stroke="#63b8ff" d="M295.16,-68.55C306.48,-65.99 318.31,-63.32 329.86,-60.71"/>
<polygon fill="#63b8ff" stroke="#63b8ff" points="330.94,-64.05 339.92,-58.43 329.39,-57.22 330.94,-64.05"/>
</a>
</g>
</g>
<!-- Node12&#45;&gt;Node7 -->
<g id="edge15_Node000012_Node000007" class="edge">
<title>Node12&#45;&gt;Node7</title>
<g id="a_edge15_Node000012_Node000007"><a xlink:title=" ">
<path fill="none" stroke="#63b8ff" d="M474,-43.5C486.15,-43.5 498.93,-43.5 511.36,-43.5"/>
<polygon fill="#63b8ff" stroke="#63b8ff" points="511.7,-47 521.7,-43.5 511.7,-40 511.7,-47"/>
</a>
</g>
</g>
<!-- Node12&#45;&gt;Node12 -->
<g id="edge14_Node000012_Node000012" class="edge">
<title>Node12&#45;&gt;Node12</title>
<g id="a_edge14_Node000012_Node000012"><a xlink:title=" ">
<path fill="none" stroke="#63b8ff" d="M374.29,-64.1C370.72,-73.65 381.62,-82 407,-82 422.86,-82 433.07,-78.74 437.62,-73.96"/>
<polygon fill="#63b8ff" stroke="#63b8ff" points="441.06,-74.61 439.71,-64.1 434.22,-73.15 441.06,-74.61"/>
</a>
</g>
</g>
<!-- Node13&#45;&gt;Node10 -->
<g id="edge17_Node000013_Node000010" class="edge">
<title>Node13&#45;&gt;Node10</title>
<g id="a_edge17_Node000013_Node000010"><a xlink:title=" ">
<path fill="none" stroke="#63b8ff" d="M292.75,-237.56C306.34,-240.63 320.63,-243.76 334,-246.5 391.2,-258.21 455.96,-269.91 505.77,-278.59"/>
<polygon fill="#63b8ff" stroke="#63b8ff" points="505.4,-282.07 515.85,-280.33 506.59,-275.18 505.4,-282.07"/>
</a>
</g>
</g>
<!-- Node14 -->
<g id="Node000014" class="node">
<title>Node14</title>
<g id="a_Node000014"><a xlink:href="classiot_1_1mqtt_1_1Session.html#af06528da9b6c2681db92be904587d1ef" target="_top" xlink:title=" ">
<polygon fill="white" stroke="#666666" points="458,-237.5 356,-237.5 356,-207.5 458,-207.5 458,-237.5"/>
<text text-anchor="start" x="364" y="-225.5" font-family="Helvetica,sans-Serif" font-size="10.00">iot::mqtt::Session</text>
<text text-anchor="middle" x="407" y="-214.5" font-family="Helvetica,sans-Serif" font-size="10.00">::fromJson</text>
</a>
</g>
</g>
<!-- Node13&#45;&gt;Node14 -->
<g id="edge18_Node000013_Node000014" class="edge">
<title>Node13&#45;&gt;Node14</title>
<g id="a_edge18_Node000013_Node000014"><a xlink:title=" ">
<path fill="none" stroke="#63b8ff" d="M298.19,-222.5C313.79,-222.5 330.23,-222.5 345.44,-222.5"/>
<polygon fill="#63b8ff" stroke="#63b8ff" points="345.75,-226 355.75,-222.5 345.75,-219 345.75,-226"/>
</a>
</g>
</g>
<!-- Node21 -->
<g id="Node000021" class="node">
<title>Node21</title>
<g id="a_Node000021"><a xlink:href="classiot_1_1mqtt_1_1server_1_1broker_1_1Message.html#a852fdf9f7abf922fcf7a8c1e90948d87" target="_top" xlink:title=" ">
<polygon fill="white" stroke="#666666" points="480,-189.5 334,-189.5 334,-159.5 480,-159.5 480,-189.5"/>
<text text-anchor="start" x="342" y="-177.5" font-family="Helvetica,sans-Serif" font-size="10.00">iot::mqtt::server::</text>
<text text-anchor="middle" x="407" y="-166.5" font-family="Helvetica,sans-Serif" font-size="10.00">broker::Message::Message</text>
</a>
</g>
</g>
<!-- Node13&#45;&gt;Node21 -->
<g id="edge25_Node000013_Node000021" class="edge">
<title>Node13&#45;&gt;Node21</title>
<g id="a_edge25_Node000013_Node000021"><a xlink:title=" ">
<path fill="none" stroke="#63b8ff" d="M284.52,-207.44C302.39,-202.6 322.36,-197.18 340.87,-192.16"/>
<polygon fill="#63b8ff" stroke="#63b8ff" points="341.94,-195.5 350.68,-189.5 340.11,-188.74 341.94,-195.5"/>
</a>
</g>
</g>
<!-- Node15 -->
<g id="Node000015" class="node">
<title>Node15</title>
<g id="a_Node000015"><a xlink:href="classiot_1_1mqtt_1_1packets_1_1Publish.html#a63528c0e73a6b5a1621fd6ae4940403c" target="_top" xlink:title=" ">
<polygon fill="white" stroke="#666666" points="640,-237.5 538,-237.5 538,-207.5 640,-207.5 640,-237.5"/>
<text text-anchor="start" x="546" y="-225.5" font-family="Helvetica,sans-Serif" font-size="10.00">iot::mqtt::packets</text>
<text text-anchor="middle" x="589" y="-214.5" font-family="Helvetica,sans-Serif" font-size="10.00">::Publish::Publish</text>
</a>
</g>
</g>
<!-- Node14&#45;&gt;Node15 -->
<g id="edge19_Node000014_Node000015" class="edge">
<title>Node14&#45;&gt;Node15</title>
<g id="a_edge19_Node000014_Node000015"><a xlink:title=" ">
<path fill="none" stroke="#63b8ff" d="M458.14,-222.5C479.7,-222.5 505.08,-222.5 527.66,-222.5"/>
<polygon fill="#63b8ff" stroke="#63b8ff" points="527.82,-226 537.82,-222.5 527.82,-219 527.82,-226"/>
</a>
</g>
</g>
<!-- Node16 -->
<g id="Node000016" class="node">
<title>Node16</title>
<g id="a_Node000016"><a xlink:href="classiot_1_1mqtt_1_1types_1_1String.html#ac571371a896d6430ddc4df75e97e8060" target="_top" xlink:title=" ">
<polygon fill="white" stroke="#666666" points="826,-309.5 700,-309.5 700,-279.5 826,-279.5 826,-309.5"/>
<text text-anchor="start" x="708" y="-297.5" font-family="Helvetica,sans-Serif" font-size="10.00">iot::mqtt::types::String</text>
<text text-anchor="middle" x="763" y="-286.5" font-family="Helvetica,sans-Serif" font-size="10.00">::operator=</text>
</a>
</g>
</g>
<!-- Node15&#45;&gt;Node16 -->
<g id="edge20_Node000015_Node000016" class="edge">
<title>Node15&#45;&gt;Node16</title>
<g id="a_edge20_Node000015_Node000016"><a xlink:title=" ">
<path fill="none" stroke="#63b8ff" d="M622.39,-237.5C643.73,-247.23 672.36,-260.01 698,-270.5 702.37,-272.29 706.93,-274.1 711.51,-275.89"/>
<polygon fill="#63b8ff" stroke="#63b8ff" points="710.3,-279.17 720.89,-279.5 712.81,-272.64 710.3,-279.17"/>
</a>
</g>
</g>
<!-- Node17 -->
<g id="Node000017" class="node">
<title>Node17</title>
<g id="a_Node000017"><a xlink:href="classiot_1_1mqtt_1_1types_1_1StringRaw.html#a32ec42f8e1b2f8776f5b6bc29be8e296" target="_top" xlink:title=" ">
<polygon fill="white" stroke="#666666" points="826,-261.5 700,-261.5 700,-231.5 826,-231.5 826,-261.5"/>
<text text-anchor="start" x="708" y="-249.5" font-family="Helvetica,sans-Serif" font-size="10.00">iot::mqtt::types::String</text>
<text text-anchor="middle" x="763" y="-238.5" font-family="Helvetica,sans-Serif" font-size="10.00">Raw::operator=</text>
</a>
</g>
</g>
<!-- Node15&#45;&gt;Node17 -->
<g id="edge21_Node000015_Node000017" class="edge">
<title>Node15&#45;&gt;Node17</title>
<g id="a_edge21_Node000015_Node000017"><a xlink:title=" ">
<path fill="none" stroke="#63b8ff" d="M640.21,-229.51C655.65,-231.66 672.96,-234.08 689.58,-236.39"/>
<polygon fill="#63b8ff" stroke="#63b8ff" points="689.42,-239.91 699.81,-237.82 690.39,-232.97 689.42,-239.91"/>
</a>
</g>
</g>
<!-- Node18 -->
<g id="Node000018" class="node">
<title>Node18</title>
<g id="a_Node000018"><a xlink:href="classiot_1_1mqtt_1_1types_1_1UInt16.html#a3c761614ff11a920e9aaba3eba90aa06" target="_top" xlink:title=" ">
<polygon fill="white" stroke="#666666" points="828,-213.5 698,-213.5 698,-183.5 828,-183.5 828,-213.5"/>
<text text-anchor="start" x="706" y="-201.5" font-family="Helvetica,sans-Serif" font-size="10.00">iot::mqtt::types::UInt16</text>
<text text-anchor="middle" x="763" y="-190.5" font-family="Helvetica,sans-Serif" font-size="10.00">::operator=</text>
</a>
</g>
</g>
<!-- Node15&#45;&gt;Node18 -->
<g id="edge22_Node000015_Node000018" class="edge">
<title>Node15&#45;&gt;Node18</title>
<g id="a_edge22_Node000015_Node000018"><a xlink:title=" ">
<path fill="none" stroke="#63b8ff" d="M640.21,-215.49C655.16,-213.41 671.86,-211.08 687.98,-208.83"/>
<polygon fill="#63b8ff" stroke="#63b8ff" points="688.51,-212.29 697.93,-207.44 687.54,-205.36 688.51,-212.29"/>
</a>
</g>
</g>
<!-- Node19 -->
<g id="Node000019" class="node">
<title>Node19</title>
<g id="a_Node000019"><a xlink:href="classiot_1_1mqtt_1_1packets_1_1Publish.html#a9bfd14e069dd1fcf5ccf276c8c36b498" target="_top" xlink:title=" ">
<polygon fill="white" stroke="#666666" points="814,-165.5 712,-165.5 712,-135.5 814,-135.5 814,-165.5"/>
<text text-anchor="start" x="720" y="-153.5" font-family="Helvetica,sans-Serif" font-size="10.00">iot::mqtt::packets</text>
<text text-anchor="middle" x="763" y="-142.5" font-family="Helvetica,sans-Serif" font-size="10.00">::Publish::Publish</text>
</a>
</g>
</g>
<!-- Node15&#45;&gt;Node19 -->
<g id="edge23_Node000015_Node000019" class="edge">
<title>Node15&#45;&gt;Node19</title>
<g id="a_edge23_Node000015_Node000019"><a xlink:title=" ">
<path fill="none" stroke="#63b8ff" d="M622.39,-207.5C643.73,-197.77 672.36,-184.99 698,-174.5 702.37,-172.71 706.93,-170.9 711.51,-169.11"/>
<polygon fill="#63b8ff" stroke="#63b8ff" points="712.81,-172.36 720.89,-165.5 710.3,-165.83 712.81,-172.36"/>
</a>
</g>
</g>
<!-- Node20 -->
<g id="Node000020" class="node">
<title>Node20</title>
<g id="a_Node000020"><a xlink:href="classiot_1_1mqtt_1_1ControlPacket.html#aa2b1ec43dc6f8271dd94b5f4d2560dcc" target="_top" xlink:title=" ">
<polygon fill="white" stroke="#666666" points="996,-165.5 864,-165.5 864,-135.5 996,-135.5 996,-165.5"/>
<text text-anchor="start" x="872" y="-153.5" font-family="Helvetica,sans-Serif" font-size="10.00">iot::mqtt::ControlPacket</text>
<text text-anchor="middle" x="930" y="-142.5" font-family="Helvetica,sans-Serif" font-size="10.00">::ControlPacket</text>
</a>
</g>
</g>
<!-- Node19&#45;&gt;Node20 -->
<g id="edge24_Node000019_Node000020" class="edge">
<title>Node19&#45;&gt;Node20</title>
<g id="a_edge24_Node000019_Node000020"><a xlink:title=" ">
<path fill="none" stroke="#63b8ff" d="M814.4,-150.5C826.86,-150.5 840.48,-150.5 853.84,-150.5"/>
<polygon fill="#63b8ff" stroke="#63b8ff" points="853.98,-154 863.98,-150.5 853.98,-147 853.98,-154"/>
</a>
</g>
</g>
<!-- Node22&#45;&gt;Node4 -->
<g id="edge27_Node000022_Node000004" class="edge">
<title>Node22&#45;&gt;Node4</title>
<g id="a_edge27_Node000022_Node000004"><a xlink:title=" ">
<path fill="none" stroke="#63b8ff" d="M462.98,-432.48C479.91,-426.93 498.79,-420.74 516.64,-414.89"/>
<polygon fill="#63b8ff" stroke="#63b8ff" points="518.03,-418.12 526.44,-411.68 515.85,-411.47 518.03,-418.12"/>
</a>
</g>
</g>
<!-- Node23&#45;&gt;Node7 -->
<g id="edge29_Node000023_Node000007" class="edge">
<title>Node23&#45;&gt;Node7</title>
<g id="a_edge29_Node000023_Node000007"><a xlink:title=" ">
<path fill="none" stroke="#63b8ff" d="M295.11,-12.81C345.91,-8.31 417.69,-5.01 480,-13.5 491.6,-15.08 503.71,-17.58 515.45,-20.47"/>
<polygon fill="#63b8ff" stroke="#63b8ff" points="514.65,-23.88 525.21,-22.98 516.4,-17.1 514.65,-23.88"/>
</a>
</g>
</g>
</g>
</svg>
