<?xml version="1.0" encoding="UTF-8" standalone="no"?>
<!DOCTYPE svg PUBLIC "-//W3C//DTD SVG 1.1//EN"
 "http://www.w3.org/Graphics/SVG/1.1/DTD/svg11.dtd">
<!-- Generated by graphviz version 14.1.1 (0)
 -->
<!-- Title: iot::mqtt_fast::types::Int_V Pages: 1 -->
<svg width="164pt" height="188pt"
 viewBox="0.00 0.00 164.00 188.00" xmlns="http://www.w3.org/2000/svg" xmlns:xlink="http://www.w3.org/1999/xlink">

<svg id="main" version="1.1" xmlns="http://www.w3.org/2000/svg" xmlns:xlink="http://www.w3.org/1999/xlink" xml:space="preserve">

<style type="text/css"><![CDATA[
.node, .edge {opacity: 0.7;}
.node.selected, .edge.selected {opacity: 1;}
.edge:hover path { stroke: red; }
.edge:hover polygon { stroke: red; fill: red; }
]]></style>
<script type="application/ecmascript" xlink:href="svg.min.js"/>
<svg id="graph" class="graph">
<g id="graph0" class="graph" transform="scale(1 1) rotate(0) translate(4 183.5)">
<title>iot::mqtt_fast::types::Int_V</title>
<!-- Node1 -->
<g id="Node000001" class="node">
<title>Node1</title>
<g id="a_Node000001"><a xlink:title=" ">
<polygon fill="#999999" stroke="none" points="125,-33.5 18,-33.5 18,0 125,0 125,-33.5"/>
<text xml:space="preserve" text-anchor="start" x="22" y="-20" font-family="Helvetica,sans-Serif" font-size="10.00">iot::mqtt_fast::types</text>
<text xml:space="preserve" text-anchor="start" x="56.12" y="-7.25" font-family="Helvetica,sans-Serif" font-size="10.00">::Int_V</text>
<polygon fill="none" stroke="#666666" points="18,0 18,-33.5 125,-33.5 125,0 18,0"/>
</a>
</g>
</g>
<!-- Node2 -->
<g id="Node000002" class="node">
<title>Node2</title>
<g id="a_Node000002"><a xlink:href="classiot_1_1mqtt__fast_1_1types_1_1TypeBase.html" target="_top" xlink:title=" ">
<polygon fill="white" stroke="none" points="125,-104 18,-104 18,-70.5 125,-70.5 125,-104"/>
<text xml:space="preserve" text-anchor="start" x="22" y="-90.5" font-family="Helvetica,sans-Serif" font-size="10.00">iot::mqtt_fast::types</text>
<text xml:space="preserve" text-anchor="start" x="45.25" y="-77.75" font-family="Helvetica,sans-Serif" font-size="10.00">::TypeBase</text>
<polygon fill="none" stroke="#666666" points="18,-70.5 18,-104 125,-104 125,-70.5 18,-70.5"/>
</a>
</g>
</g>
<!-- Node2&#45;&gt;Node1 -->
<g id="edge1_Node000001_Node000002" class="edge">
<title>Node2&#45;&gt;Node1</title>
<g id="a_edge1_Node000001_Node000002"><a xlink:title=" ">
<path fill="none" stroke="#63b8ff" d="M71.5,-59.3C71.5,-50.46 71.5,-40.93 71.5,-33.23"/>
<polygon fill="none" stroke="#63b8ff" points="68,-59.19 71.5,-69.19 75,-59.19 68,-59.19"/>
</a>
</g>
</g>
<!-- Node3 -->
<g id="Node000003" class="node">
<title>Node3</title>
<g id="a_Node000003"><a xlink:href="classcore_1_1socket_1_1SocketContext.html" target="_top" xlink:title=" ">
<polygon fill="white" stroke="none" points="143,-179.5 0,-179.5 0,-158.75 143,-158.75 143,-179.5"/>
<text xml:space="preserve" text-anchor="start" x="4" y="-166" font-family="Helvetica,sans-Serif" font-size="10.00">core::socket::SocketContext</text>
<polygon fill="none" stroke="#666666" points="0,-158.75 0,-179.5 143,-179.5 143,-158.75 0,-158.75"/>
</a>
</g>
</g>
<!-- Node3&#45;&gt;Node2 -->
<g id="edge2_Node000002_Node000003" class="edge">
<title>Node3&#45;&gt;Node2</title>
<g id="a_edge2_Node000002_Node000003"><a xlink:title=" ">
<path fill="none" stroke="#63b8ff" d="M71.5,-158.96C71.5,-148.67 71.5,-131.46 71.5,-116.6"/>
<polygon fill="none" stroke="#63b8ff" points="71.5,-116.78 67.5,-110.78 71.5,-104.78 75.5,-110.78 71.5,-116.78"/>
</a>
</g>
<text xml:space="preserve" text-anchor="start" x="74.5" y="-128.25" font-family="Helvetica,sans-Serif" font-size="10.00" fill="grey">#socketContext</text>
</g>
</g>
</svg>
</svg>

<style type='text/css'>
<![CDATA[
[data-mouse-over-selected='false'] { opacity: 0.7; }
[data-mouse-over-selected='true']  { opacity: 1.0; }
]]>
</style>
<script type="application/ecmascript"><![CDATA[
document.addEventListener('DOMContentLoaded', (event) => {
  highlightEdges();
  highlightAdjacentNodes();
});
]]></script>
</svg>
