<?xml version="1.0" encoding="UTF-8" standalone="no"?>
<!DOCTYPE svg PUBLIC "-//W3C//DTD SVG 1.1//EN"
 "http://www.w3.org/Graphics/SVG/1.1/DTD/svg11.dtd">
<!-- Generated by graphviz version 2.43.0 (0)
 -->
<!-- Title: net::config::ConfigPhysicalSocket::add_socket_option Pages: 1 -->
<svg width="493pt" height="182pt"
 viewBox="0.00 0.00 493.00 182.00" xmlns="http://www.w3.org/2000/svg" xmlns:xlink="http://www.w3.org/1999/xlink">
<g id="graph0" class="graph" transform="scale(1 1) rotate(0) translate(4 178)">
<title>net::config::ConfigPhysicalSocket::add_socket_option</title>
<!-- Node1 -->
<g id="Node000001" class="node">
<title>Node1</title>
<g id="a_Node000001"><a xlink:title=" ">
<polygon fill="#999999" stroke="#666666" points="135,-102 0,-102 0,-72 135,-72 135,-102"/>
<text text-anchor="start" x="8" y="-90" font-family="Helvetica,sans-Serif" font-size="10.00">net::config::ConfigPhysical</text>
<text text-anchor="middle" x="67.5" y="-79" font-family="Helvetica,sans-Serif" font-size="10.00">Socket::add_socket_option</text>
</a>
</g>
</g>
<!-- Node2 -->
<g id="Node000002" class="node">
<title>Node2</title>
<g id="a_Node000002"><a xlink:href="classnet_1_1config_1_1ConfigSection.html#a8939e9ab190f5ad86c7fa0d91664a7e7" target="_top" xlink:title=" ">
<polygon fill="white" stroke="#666666" points="310,-174 180,-174 180,-144 310,-144 310,-174"/>
<text text-anchor="start" x="188" y="-162" font-family="Helvetica,sans-Serif" font-size="10.00">net::config::ConfigSection</text>
<text text-anchor="middle" x="245" y="-151" font-family="Helvetica,sans-Serif" font-size="10.00">::add_flag_function</text>
</a>
</g>
</g>
<!-- Node1&#45;&gt;Node2 -->
<g id="edge1_Node000001_Node000002" class="edge">
<title>Node1&#45;&gt;Node2</title>
<g id="a_edge1_Node000001_Node000002"><a xlink:title=" ">
<path fill="none" stroke="#63b8ff" d="M98.13,-102.04C118.38,-112.02 145.98,-125.07 171,-135 175.76,-136.89 180.73,-138.75 185.75,-140.55"/>
<polygon fill="#63b8ff" stroke="#63b8ff" points="184.81,-143.93 195.41,-143.93 187.12,-137.32 184.81,-143.93"/>
</a>
</g>
</g>
<!-- Node4 -->
<g id="Node000004" class="node">
<title>Node4</title>
<g id="a_Node000004"><a xlink:href="classutils_1_1ResetToDefault.html#a8751f97a18d0671bf103dd2a5df799c9" target="_top" xlink:title=" ">
<polygon fill="white" stroke="#666666" points="299.5,-126 190.5,-126 190.5,-96 299.5,-96 299.5,-126"/>
<text text-anchor="start" x="198.5" y="-114" font-family="Helvetica,sans-Serif" font-size="10.00">utils::ResetToDefault</text>
<text text-anchor="middle" x="245" y="-103" font-family="Helvetica,sans-Serif" font-size="10.00">::operator()</text>
</a>
</g>
</g>
<!-- Node1&#45;&gt;Node4 -->
<g id="edge3_Node000001_Node000004" class="edge">
<title>Node1&#45;&gt;Node4</title>
<g id="a_edge3_Node000001_Node000004"><a xlink:title=" ">
<path fill="none" stroke="#63b8ff" d="M135.1,-96.11C149.91,-98.13 165.58,-100.28 180.27,-102.28"/>
<polygon fill="#63b8ff" stroke="#63b8ff" points="179.88,-105.76 190.27,-103.65 180.83,-98.83 179.88,-105.76"/>
</a>
</g>
</g>
<!-- Node5 -->
<g id="Node000005" class="node">
<title>Node5</title>
<g id="a_Node000005"><a xlink:href="classnet_1_1phy_1_1PhysicalSocketOption.html#a657bd7ad02fce344695d0bcb57180b9e" target="_top" xlink:title=" ">
<polygon fill="white" stroke="#666666" points="319,-78 171,-78 171,-48 319,-48 319,-78"/>
<text text-anchor="start" x="179" y="-66" font-family="Helvetica,sans-Serif" font-size="10.00">net::phy::PhysicalSocket</text>
<text text-anchor="middle" x="245" y="-55" font-family="Helvetica,sans-Serif" font-size="10.00">Option::PhysicalSocketOption</text>
</a>
</g>
</g>
<!-- Node1&#45;&gt;Node5 -->
<g id="edge4_Node000001_Node000005" class="edge">
<title>Node1&#45;&gt;Node5</title>
<g id="a_edge4_Node000001_Node000005"><a xlink:title=" ">
<path fill="none" stroke="#63b8ff" d="M135.1,-77.89C143.53,-76.74 152.24,-75.55 160.89,-74.37"/>
<polygon fill="#63b8ff" stroke="#63b8ff" points="161.57,-77.81 171,-72.98 160.62,-70.87 161.57,-77.81"/>
</a>
</g>
</g>
<!-- Node6 -->
<g id="Node000006" class="node">
<title>Node6</title>
<g id="a_Node000006"><a xlink:href="classutils_1_1ResetToDefault.html#a6b8f10c6fae707562bdeebe5aea51c44" target="_top" xlink:title=" ">
<polygon fill="white" stroke="#666666" points="299.5,-30 190.5,-30 190.5,0 299.5,0 299.5,-30"/>
<text text-anchor="start" x="198.5" y="-18" font-family="Helvetica,sans-Serif" font-size="10.00">utils::ResetToDefault</text>
<text text-anchor="middle" x="245" y="-7" font-family="Helvetica,sans-Serif" font-size="10.00">::ResetToDefault</text>
</a>
</g>
</g>
<!-- Node1&#45;&gt;Node6 -->
<g id="edge5_Node000001_Node000006" class="edge">
<title>Node1&#45;&gt;Node6</title>
<g id="a_edge5_Node000001_Node000006"><a xlink:title=" ">
<path fill="none" stroke="#63b8ff" d="M98.13,-71.96C118.38,-61.98 145.98,-48.93 171,-39 175.76,-37.11 180.73,-35.25 185.75,-33.45"/>
<polygon fill="#63b8ff" stroke="#63b8ff" points="187.12,-36.68 195.41,-30.07 184.81,-30.07 187.12,-36.68"/>
</a>
</g>
</g>
<!-- Node3 -->
<g id="Node000003" class="node">
<title>Node3</title>
<g id="a_Node000003"><a xlink:href="classnet_1_1config_1_1ConfigSection.html#a4745eea9224d6e67a8d7c9c93f262ce0" target="_top" xlink:title=" ">
<polygon fill="white" stroke="#666666" points="485,-174 355,-174 355,-144 485,-144 485,-174"/>
<text text-anchor="start" x="363" y="-162" font-family="Helvetica,sans-Serif" font-size="10.00">net::config::ConfigSection</text>
<text text-anchor="middle" x="420" y="-151" font-family="Helvetica,sans-Serif" font-size="10.00">::add_flag_function</text>
</a>
</g>
</g>
<!-- Node2&#45;&gt;Node3 -->
<g id="edge2_Node000002_Node000003" class="edge">
<title>Node2&#45;&gt;Node3</title>
<g id="a_edge2_Node000002_Node000003"><a xlink:title=" ">
<path fill="none" stroke="#63b8ff" d="M310.42,-159C321.53,-159 333.15,-159 344.5,-159"/>
<polygon fill="#63b8ff" stroke="#63b8ff" points="344.82,-162.5 354.82,-159 344.82,-155.5 344.82,-162.5"/>
</a>
</g>
</g>
</g>
</svg>
