<?xml version="1.0" encoding="UTF-8" standalone="no"?>
<!DOCTYPE svg PUBLIC "-//W3C//DTD SVG 1.1//EN"
 "http://www.w3.org/Graphics/SVG/1.1/DTD/svg11.dtd">
<!-- Generated by graphviz version 2.42.4 (0)
 -->
<!-- Title: web::http::server::SocketContext::responseCompleted Pages: 1 -->
<!--zoomable 373 -->

<svg id="main" version="1.1" xmlns="http://www.w3.org/2000/svg" xmlns:xlink="http://www.w3.org/1999/xlink" xml:space="preserve" onload="init(evt)">
<style type="text/css"><![CDATA[
.node, .edge {opacity: 0.7;}
.node.selected, .edge.selected {opacity: 1;}
.edge:hover path { stroke: red; }
.edge:hover polygon { stroke: red; fill: red; }
]]></style>

<defs>
  <circle id="rim" cx="0" cy="0" r="7"/>
  <circle id="rim2" cx="0" cy="0" r="3.5"/>
  <g id="zoomPlus">
    <use xlink:href="#rim" fill="#404040"><set attributeName="fill" to="#808080" begin="zoomplus.mouseover" end="zoomplus.mouseout"/></use>
    <path d="M-4,0h8M0,-4v8" fill="none" stroke="white" stroke-width="1.5" pointer-events="none"/>
  </g>
  <g id="zoomMin">
    <use xlink:href="#rim" fill="#404040"><set attributeName="fill" to="#808080" begin="zoomminus.mouseover" end="zoomminus.mouseout"/></use>
    <path d="M-4,0h8" fill="none" stroke="white" stroke-width="1.5" pointer-events="none"/>
  </g>
  <g id="arrowUp" transform="translate(30 24)">
    <use xlink:href="#rim"/>
    <path pointer-events="none" fill="none" stroke="white" stroke-width="1.5" d="M0,-3.0v7 M-2.5,-0.5L0,-3.0L2.5,-0.5"/>
  </g>
  <g id="arrowRight" transform="rotate(90) translate(36 -43)">
    <use xlink:href="#rim"/>
    <path pointer-events="none" fill="none" stroke="white" stroke-width="1.5" d="M0,-3.0v7 M-2.5,-0.5L0,-3.0L2.5,-0.5"/>
  </g>
  <g id="arrowDown" transform="rotate(180) translate(-30 -48)">
    <use xlink:href="#rim"/>
    <path pointer-events="none" fill="none" stroke="white" stroke-width="1.5" d="M0,-3.0v7 M-2.5,-0.5L0,-3.0L2.5,-0.5"/>
  </g>
  <g id="arrowLeft" transform="rotate(270) translate(-36 17)">
    <use xlink:href="#rim"/>
    <path pointer-events="none" fill="none" stroke="white" stroke-width="1.5" d="M0,-3.0v7 M-2.5,-0.5L0,-3.0L2.5,-0.5"/>
  </g>
  <g id="resetDef">
    <use xlink:href="#rim2" fill="#404040"><set attributeName="fill" to="#808080" begin="reset.mouseover" end="reset.mouseout"/></use>
  </g>
</defs>
<script type="application/ecmascript">
var viewWidth = 2470;
var viewHeight = 373;
var sectionId = 'dynsection-13';
</script>
<script type="application/ecmascript" xlink:href="svg.min.js"/>
<svg id="graph" class="graph">
<g id="viewport">
<title>web::http::server::SocketContext::responseCompleted</title>
<!-- Node1 -->
<g id="Node000001" class="node">
<title>Node1</title>
<g id="a_Node000001"><a xlink:title=" ">
<polygon fill="#999999" stroke="#666666" points="2462,-36.35 2271,-36.35 2271,-6.35 2462,-6.35 2462,-36.35"/>
<text text-anchor="start" x="2279" y="-24.35" font-family="Helvetica,sans-Serif" font-size="10.00">web::http::server::</text>
<text text-anchor="middle" x="2366.5" y="-13.35" font-family="Helvetica,sans-Serif" font-size="10.00">SocketContext::responseCompleted</text>
</a>
</g>
</g>
<!-- Node2 -->
<g id="Node000002" class="node">
<title>Node2</title>
<g id="a_Node000002"><a xlink:href="classweb_1_1http_1_1server_1_1Response.html#a78a2a745922ae71ca035ce38b07fb9bc" target="_top" xlink:title=" ">
<polygon fill="white" stroke="#666666" points="2235,-82.35 2089,-82.35 2089,-52.35 2235,-52.35 2235,-82.35"/>
<text text-anchor="start" x="2097" y="-70.35" font-family="Helvetica,sans-Serif" font-size="10.00">web::http::server::</text>
<text text-anchor="middle" x="2162" y="-59.35" font-family="Helvetica,sans-Serif" font-size="10.00">Response::sendCompleted</text>
</a>
</g>
</g>
<!-- Node1&#45;&gt;Node2 -->
<g id="edge1_Node000001_Node000002" class="edge">
<title>Node1&#45;&gt;Node2</title>
<g id="a_edge1_Node000001_Node000002"><a xlink:title=" ">
<path fill="none" stroke="#63b8ff" d="M2289.29,-38.66C2269.5,-43.16 2248.34,-47.96 2229.11,-52.33"/>
<polygon fill="#63b8ff" stroke="#63b8ff" points="2290.22,-42.04 2299.19,-36.41 2288.67,-35.21 2290.22,-42.04"/>
</a>
</g>
</g>
<!-- Node3 -->
<g id="Node000003" class="node">
<title>Node3</title>
<g id="a_Node000003"><a xlink:href="classweb_1_1http_1_1server_1_1Response.html#ad5cef3b2e444372e83275d463d597c5a" target="_top" xlink:title=" ">
<polygon fill="white" stroke="#666666" points="2049.5,-58.35 1918.5,-58.35 1918.5,-28.35 2049.5,-28.35 2049.5,-58.35"/>
<text text-anchor="start" x="1926.5" y="-46.35" font-family="Helvetica,sans-Serif" font-size="10.00">web::http::server::</text>
<text text-anchor="middle" x="1984" y="-35.35" font-family="Helvetica,sans-Serif" font-size="10.00">Response::onSourceEof</text>
</a>
</g>
</g>
<!-- Node2&#45;&gt;Node3 -->
<g id="edge2_Node000002_Node000003" class="edge">
<title>Node2&#45;&gt;Node3</title>
<g id="a_edge2_Node000002_Node000003"><a xlink:title=" ">
<path fill="none" stroke="#63b8ff" d="M2078.77,-56.14C2068.99,-54.8 2059.12,-53.46 2049.64,-52.16"/>
<polygon fill="#63b8ff" stroke="#63b8ff" points="2078.53,-59.63 2088.91,-57.52 2079.47,-52.7 2078.53,-59.63"/>
</a>
</g>
</g>
<!-- Node4 -->
<g id="Node000004" class="node">
<title>Node4</title>
<g id="a_Node000004"><a xlink:href="classweb_1_1http_1_1server_1_1Response.html#a8c5abc5735fe7346779165cdc166a28b" target="_top" xlink:title=" ">
<polygon fill="white" stroke="#666666" points="2053,-106.35 1915,-106.35 1915,-76.35 2053,-76.35 2053,-106.35"/>
<text text-anchor="start" x="1923" y="-94.35" font-family="Helvetica,sans-Serif" font-size="10.00">web::http::server::</text>
<text text-anchor="middle" x="1984" y="-83.35" font-family="Helvetica,sans-Serif" font-size="10.00">Response::onSourceError</text>
</a>
</g>
</g>
<!-- Node2&#45;&gt;Node4 -->
<g id="edge3_Node000002_Node000004" class="edge">
<title>Node2&#45;&gt;Node4</title>
<g id="a_edge3_Node000002_Node000004"><a xlink:title=" ">
<path fill="none" stroke="#63b8ff" d="M2078.82,-78.55C2070.18,-79.73 2061.47,-80.92 2053.01,-82.07"/>
<polygon fill="#63b8ff" stroke="#63b8ff" points="2079.47,-82 2088.91,-77.18 2078.53,-75.06 2079.47,-82"/>
</a>
</g>
</g>
<!-- Node5 -->
<g id="Node000005" class="node">
<title>Node5</title>
<g id="a_Node000005"><a xlink:href="classweb_1_1http_1_1server_1_1Response.html#a6a6cd44cb3d0f3a65e38f5a4cd9cc05b" target="_top" xlink:title=" ">
<polygon fill="white" stroke="#666666" points="2036.5,-154.35 1931.5,-154.35 1931.5,-124.35 2036.5,-124.35 2036.5,-154.35"/>
<text text-anchor="start" x="1939.5" y="-142.35" font-family="Helvetica,sans-Serif" font-size="10.00">web::http::server::</text>
<text text-anchor="middle" x="1984" y="-131.35" font-family="Helvetica,sans-Serif" font-size="10.00">Response::send</text>
</a>
</g>
</g>
<!-- Node2&#45;&gt;Node5 -->
<g id="edge4_Node000002_Node000005" class="edge">
<title>Node2&#45;&gt;Node5</title>
<g id="a_edge4_Node000002_Node000005"><a xlink:title=" ">
<path fill="none" stroke="#63b8ff" d="M2119.55,-86.69C2099.59,-95.77 2075.22,-106.51 2053,-115.35 2045.44,-118.36 2037.33,-121.39 2029.45,-124.23"/>
<polygon fill="#63b8ff" stroke="#63b8ff" points="2121.04,-89.86 2128.67,-82.52 2118.12,-83.49 2121.04,-89.86"/>
</a>
</g>
</g>
<!-- Node6 -->
<g id="Node000006" class="node">
<title>Node6</title>
<g id="a_Node000006"><a xlink:href="classexpress_1_1Response.html#a91a4ea0dec22714b3ce9846491090ab0" target="_top" xlink:title=" ">
<polygon fill="white" stroke="#666666" points="1879,-105.85 1742,-105.85 1742,-86.85 1879,-86.85 1879,-105.85"/>
<text text-anchor="middle" x="1810.5" y="-93.85" font-family="Helvetica,sans-Serif" font-size="10.00">express::Response::send</text>
</a>
</g>
</g>
<!-- Node5&#45;&gt;Node6 -->
<g id="edge5_Node000005_Node000006" class="edge">
<title>Node5&#45;&gt;Node6</title>
<g id="a_edge5_Node000005_Node000006"><a xlink:title=" ">
<path fill="none" stroke="#63b8ff" d="M1921.35,-123.89C1897.39,-117.88 1870.7,-111.19 1849.63,-105.91"/>
<polygon fill="#63b8ff" stroke="#63b8ff" points="1920.53,-127.29 1931.08,-126.33 1922.23,-120.5 1920.53,-127.29"/>
</a>
</g>
</g>
<!-- Node7 -->
<g id="Node000007" class="node">
<title>Node7</title>
<g id="a_Node000007"><a xlink:href="classweb_1_1http_1_1server_1_1Response.html#a36844eacc201e3373c9da5bade3ac1c8" target="_top" xlink:title=" ">
<polygon fill="white" stroke="#666666" points="1863,-154.35 1758,-154.35 1758,-124.35 1863,-124.35 1863,-154.35"/>
<text text-anchor="start" x="1766" y="-142.35" font-family="Helvetica,sans-Serif" font-size="10.00">web::http::server::</text>
<text text-anchor="middle" x="1810.5" y="-131.35" font-family="Helvetica,sans-Serif" font-size="10.00">Response::send</text>
</a>
</g>
</g>
<!-- Node5&#45;&gt;Node7 -->
<g id="edge6_Node000005_Node000007" class="edge">
<title>Node5&#45;&gt;Node7</title>
<g id="a_edge6_Node000005_Node000007"><a xlink:title=" ">
<path fill="none" stroke="#63b8ff" d="M1921.05,-139.35C1902.09,-139.35 1881.45,-139.35 1863.24,-139.35"/>
<polygon fill="#63b8ff" stroke="#63b8ff" points="1921.08,-142.85 1931.08,-139.35 1921.08,-135.85 1921.08,-142.85"/>
</a>
</g>
</g>
<!-- Node8 -->
<g id="Node000008" class="node">
<title>Node8</title>
<g id="a_Node000008"><a xlink:href="classweb_1_1http_1_1server_1_1SocketContext.html#a8ac84bb72b3b67b2a4ebb0f429459b27" target="_top" xlink:title=" ">
<polygon fill="white" stroke="#666666" points="1706,-106.35 1539,-106.35 1539,-76.35 1706,-76.35 1706,-106.35"/>
<text text-anchor="start" x="1547" y="-94.35" font-family="Helvetica,sans-Serif" font-size="10.00">web::http::server::</text>
<text text-anchor="middle" x="1622.5" y="-83.35" font-family="Helvetica,sans-Serif" font-size="10.00">SocketContext::deliverRequest</text>
</a>
</g>
</g>
<!-- Node7&#45;&gt;Node8 -->
<g id="edge7_Node000007_Node000008" class="edge">
<title>Node7&#45;&gt;Node8</title>
<g id="a_edge7_Node000007_Node000008"><a xlink:title=" ">
<path fill="none" stroke="#63b8ff" d="M1747.81,-123.43C1726.57,-117.95 1702.87,-111.83 1681.91,-106.42"/>
<polygon fill="#63b8ff" stroke="#63b8ff" points="1747.13,-126.87 1757.69,-125.98 1748.88,-120.09 1747.13,-126.87"/>
</a>
</g>
</g>
<!-- Node10 -->
<g id="Node000010" class="node">
<title>Node10</title>
<g id="a_Node000010"><a xlink:href="classweb_1_1http_1_1server_1_1Response.html#a761cba48efb6eed2fa816750670c03db" target="_top" xlink:title=" ">
<polygon fill="white" stroke="#666666" points="1675,-154.35 1570,-154.35 1570,-124.35 1675,-124.35 1675,-154.35"/>
<text text-anchor="start" x="1578" y="-142.35" font-family="Helvetica,sans-Serif" font-size="10.00">web::http::server::</text>
<text text-anchor="middle" x="1622.5" y="-131.35" font-family="Helvetica,sans-Serif" font-size="10.00">Response::end</text>
</a>
</g>
</g>
<!-- Node7&#45;&gt;Node10 -->
<g id="edge10_Node000007_Node000010" class="edge">
<title>Node7&#45;&gt;Node10</title>
<g id="a_edge10_Node000007_Node000010"><a xlink:title=" ">
<path fill="none" stroke="#63b8ff" d="M1747.47,-139.35C1723.96,-139.35 1697.47,-139.35 1675.03,-139.35"/>
<polygon fill="#63b8ff" stroke="#63b8ff" points="1747.69,-142.85 1757.69,-139.35 1747.69,-135.85 1747.69,-142.85"/>
</a>
</g>
</g>
<!-- Node13 -->
<g id="Node000013" class="node">
<title>Node13</title>
<g id="a_Node000013"><a xlink:href="classexpress_1_1Response.html#a55934f3429d433fd03e1c4f3d0a90e8c" target="_top" xlink:title=" ">
<polygon fill="white" stroke="#666666" points="1691,-212.85 1554,-212.85 1554,-193.85 1691,-193.85 1691,-212.85"/>
<text text-anchor="middle" x="1622.5" y="-200.85" font-family="Helvetica,sans-Serif" font-size="10.00">express::Response::send</text>
</a>
</g>
</g>
<!-- Node7&#45;&gt;Node13 -->
<g id="edge13_Node000007_Node000013" class="edge">
<title>Node7&#45;&gt;Node13</title>
<g id="a_edge13_Node000007_Node000013"><a xlink:title=" ">
<path fill="none" stroke="#63b8ff" d="M1756.04,-157.74C1721.82,-169.52 1678.83,-184.31 1651.25,-193.8"/>
<polygon fill="#63b8ff" stroke="#63b8ff" points="1757.57,-160.92 1765.89,-154.35 1755.3,-154.3 1757.57,-160.92"/>
</a>
</g>
</g>
<!-- Node39 -->
<g id="Node000039" class="node">
<title>Node39</title>
<g id="a_Node000039"><a xlink:href="classweb_1_1http_1_1server_1_1Response.html#ad3587f9838ba8df486ca9e14496fc844" target="_top" xlink:title=" ">
<polygon fill="white" stroke="#666666" points="1684.5,-58.35 1560.5,-58.35 1560.5,-28.35 1684.5,-28.35 1684.5,-58.35"/>
<text text-anchor="start" x="1568.5" y="-46.35" font-family="Helvetica,sans-Serif" font-size="10.00">web::http::server::</text>
<text text-anchor="middle" x="1622.5" y="-35.35" font-family="Helvetica,sans-Serif" font-size="10.00">Response::sendStatus</text>
</a>
</g>
</g>
<!-- Node7&#45;&gt;Node39 -->
<g id="edge44_Node000007_Node000039" class="edge">
<title>Node7&#45;&gt;Node39</title>
<g id="a_edge44_Node000007_Node000039"><a xlink:title=" ">
<path fill="none" stroke="#63b8ff" d="M1749.85,-119.49C1747.12,-117.89 1744.48,-116.18 1742,-114.35 1720.83,-98.72 1727.71,-82.21 1706,-67.35 1699.48,-62.88 1692.12,-59.24 1684.55,-56.27"/>
<polygon fill="#63b8ff" stroke="#63b8ff" points="1748.35,-122.66 1758.83,-124.21 1751.61,-116.46 1748.35,-122.66"/>
</a>
</g>
</g>
<!-- Node9 -->
<g id="Node000009" class="node">
<title>Node9</title>
<g id="a_Node000009"><a xlink:href="classweb_1_1http_1_1server_1_1SocketContext.html#aa6410812de05b931c69b0b55d1cdc947" target="_top" xlink:title=" ">
<polygon fill="white" stroke="#666666" points="1503,-69.35 1320,-69.35 1320,-39.35 1503,-39.35 1503,-69.35"/>
<text text-anchor="start" x="1328" y="-57.35" font-family="Helvetica,sans-Serif" font-size="10.00">web::http::server::</text>
<text text-anchor="middle" x="1411.5" y="-46.35" font-family="Helvetica,sans-Serif" font-size="10.00">SocketContext::requestCompleted</text>
</a>
</g>
</g>
<!-- Node8&#45;&gt;Node9 -->
<g id="edge8_Node000008_Node000009" class="edge">
<title>Node8&#45;&gt;Node9</title>
<g id="a_edge8_Node000008_Node000009"><a xlink:title=" ">
<path fill="none" stroke="#63b8ff" d="M1528.87,-74.95C1518.35,-73.09 1507.66,-71.19 1497.24,-69.35"/>
<polygon fill="#63b8ff" stroke="#63b8ff" points="1528.44,-78.43 1538.9,-76.72 1529.66,-71.54 1528.44,-78.43"/>
</a>
</g>
</g>
<!-- Node9&#45;&gt;Node1 -->
<g id="edge9_Node000009_Node000001" class="edge">
<title>Node9&#45;&gt;Node1</title>
<g id="a_edge9_Node000009_Node000001"><a xlink:title=" ">
<path fill="none" stroke="#63b8ff" d="M1468.05,-36.39C1489.93,-30 1515.43,-23.39 1539,-19.35 1657.78,1.04 1688.98,-0.35 1809.5,-0.35 1985,-0.35 1985,-0.35 1985,-0.35 2082.59,-0.35 2194.03,-7.32 2270.98,-13.23"/>
<polygon fill="#63b8ff" stroke="#63b8ff" points="1466.85,-33.1 1458.26,-39.31 1468.85,-39.81 1466.85,-33.1"/>
</a>
</g>
</g>
<!-- Node11 -->
<g id="Node000011" class="node">
<title>Node11</title>
<g id="a_Node000011"><a xlink:href="classexpress_1_1Response.html#a229eb88872cbaf3887cda0b64703796f" target="_top" xlink:title=" ">
<polygon fill="white" stroke="#666666" points="1477.5,-132.85 1345.5,-132.85 1345.5,-113.85 1477.5,-113.85 1477.5,-132.85"/>
<text text-anchor="middle" x="1411.5" y="-120.85" font-family="Helvetica,sans-Serif" font-size="10.00">express::Response::end</text>
</a>
</g>
</g>
<!-- Node10&#45;&gt;Node11 -->
<g id="edge11_Node000010_Node000011" class="edge">
<title>Node10&#45;&gt;Node11</title>
<g id="a_edge11_Node000010_Node000011"><a xlink:title=" ">
<path fill="none" stroke="#63b8ff" d="M1559.8,-134.62C1534,-132.65 1503.99,-130.35 1477.81,-128.35"/>
<polygon fill="#63b8ff" stroke="#63b8ff" points="1559.6,-138.12 1569.84,-135.39 1560.13,-131.14 1559.6,-138.12"/>
</a>
</g>
</g>
<!-- Node12 -->
<g id="Node000012" class="node">
<title>Node12</title>
<g id="a_Node000012"><a xlink:href="websocket_2echoserver_8cpp.html#a0ddf1224851353fc92bfbff6f499fa97" target="_top" xlink:title=" ">
<polygon fill="white" stroke="#666666" points="1247.5,-126.85 1206.5,-126.85 1206.5,-107.85 1247.5,-107.85 1247.5,-126.85"/>
<text text-anchor="middle" x="1227" y="-114.85" font-family="Helvetica,sans-Serif" font-size="10.00">main</text>
</a>
</g>
</g>
<!-- Node11&#45;&gt;Node12 -->
<g id="edge12_Node000011_Node000012" class="edge">
<title>Node11&#45;&gt;Node12</title>
<g id="a_edge12_Node000011_Node000012"><a xlink:title=" ">
<path fill="none" stroke="#63b8ff" d="M1335.18,-120.87C1303.37,-119.83 1268.91,-118.69 1247.88,-118"/>
<polygon fill="#63b8ff" stroke="#63b8ff" points="1335.28,-124.38 1345.39,-121.21 1335.51,-117.38 1335.28,-124.38"/>
</a>
</g>
</g>
<!-- Node14 -->
<g id="Node000014" class="node">
<title>Node14</title>
<g id="a_Node000014"><a xlink:href="classexpress_1_1Response.html#ae60d0bae9024f07455b4d54c6fe9b4a0" target="_top" xlink:title=" ">
<polygon fill="white" stroke="#666666" points="1478.5,-212.85 1344.5,-212.85 1344.5,-193.85 1478.5,-193.85 1478.5,-212.85"/>
<text text-anchor="middle" x="1411.5" y="-200.85" font-family="Helvetica,sans-Serif" font-size="10.00">express::Response::json</text>
</a>
</g>
</g>
<!-- Node13&#45;&gt;Node14 -->
<g id="edge14_Node000013_Node000014" class="edge">
<title>Node13&#45;&gt;Node14</title>
<g id="a_edge14_Node000013_Node000014"><a xlink:title=" ">
<path fill="none" stroke="#63b8ff" d="M1543.9,-203.35C1522.49,-203.35 1499.47,-203.35 1478.76,-203.35"/>
<polygon fill="#63b8ff" stroke="#63b8ff" points="1543.93,-206.85 1553.93,-203.35 1543.93,-199.85 1543.93,-206.85"/>
</a>
</g>
</g>
<!-- Node15 -->
<g id="Node000015" class="node">
<title>Node15</title>
<g id="a_Node000015"><a xlink:href="jsonserver_8cpp.html#a0ddf1224851353fc92bfbff6f499fa97" target="_top" xlink:title=" ">
<polygon fill="white" stroke="#666666" points="1432,-175.85 1391,-175.85 1391,-156.85 1432,-156.85 1432,-175.85"/>
<text text-anchor="middle" x="1411.5" y="-163.85" font-family="Helvetica,sans-Serif" font-size="10.00">main</text>
</a>
</g>
</g>
<!-- Node13&#45;&gt;Node15 -->
<g id="edge15_Node000013_Node000015" class="edge">
<title>Node13&#45;&gt;Node15</title>
<g id="a_edge15_Node000013_Node000015"><a xlink:title=" ">
<path fill="none" stroke="#63b8ff" d="M1557.82,-192.07C1514.7,-184.44 1460.59,-174.86 1432.11,-169.82"/>
<polygon fill="#63b8ff" stroke="#63b8ff" points="1557.22,-195.52 1567.68,-193.82 1558.44,-188.63 1557.22,-195.52"/>
</a>
</g>
</g>
<!-- Node16 -->
<g id="Node000016" class="node">
<title>Node16</title>
<g id="a_Node000016"><a xlink:href="classexpress_1_1Response.html#a3594f40a7f6b8d06bfdd7922bade4e7c" target="_top" xlink:title=" ">
<polygon fill="white" stroke="#666666" points="1468.5,-261.35 1354.5,-261.35 1354.5,-231.35 1468.5,-231.35 1468.5,-261.35"/>
<text text-anchor="start" x="1362.5" y="-249.35" font-family="Helvetica,sans-Serif" font-size="10.00">express::Response::</text>
<text text-anchor="middle" x="1411.5" y="-238.35" font-family="Helvetica,sans-Serif" font-size="10.00">sendStatus</text>
</a>
</g>
</g>
<!-- Node13&#45;&gt;Node16 -->
<g id="edge16_Node000013_Node000016" class="edge">
<title>Node13&#45;&gt;Node16</title>
<g id="a_edge16_Node000013_Node000016"><a xlink:title=" ">
<path fill="none" stroke="#63b8ff" d="M1565.25,-214.92C1535.36,-221.07 1498.7,-228.61 1468.8,-234.77"/>
<polygon fill="#63b8ff" stroke="#63b8ff" points="1566.03,-218.33 1575.12,-212.89 1564.62,-211.48 1566.03,-218.33"/>
</a>
</g>
</g>
<!-- Node30 -->
<g id="Node000030" class="node">
<title>Node30</title>
<g id="a_Node000030"><a xlink:href="classexpress_1_1middleware_1_1StaticMiddleware.html#af712793a6f6d600b813fc4a6d3fbe41d" target="_top" xlink:title=" ">
<polygon fill="white" stroke="#666666" points="774.5,-328.85 655.5,-328.85 655.5,-287.85 774.5,-287.85 774.5,-328.85"/>
<text text-anchor="start" x="663.5" y="-316.85" font-family="Helvetica,sans-Serif" font-size="10.00">express::middleware</text>
<text text-anchor="start" x="663.5" y="-305.85" font-family="Helvetica,sans-Serif" font-size="10.00">::StaticMiddleware::</text>
<text text-anchor="middle" x="715" y="-294.85" font-family="Helvetica,sans-Serif" font-size="10.00">StaticMiddleware</text>
</a>
</g>
</g>
<!-- Node13&#45;&gt;Node30 -->
<g id="edge43_Node000013_Node000030" class="edge">
<title>Node13&#45;&gt;Node30</title>
<g id="a_edge43_Node000013_Node000030"><a xlink:title=" ">
<path fill="none" stroke="#63b8ff" d="M1600.52,-218.92C1543.71,-259.5 1380.88,-365.35 1228,-365.35 1228,-365.35 1228,-365.35 1076,-365.35 972.83,-365.35 946.54,-360.66 845,-342.35 821.75,-338.15 796.55,-331.9 774.64,-325.9"/>
<polygon fill="#63b8ff" stroke="#63b8ff" points="1602.66,-221.69 1608.71,-213 1598.56,-216.02 1602.66,-221.69"/>
</a>
</g>
</g>
<!-- Node17 -->
<g id="Node000017" class="node">
<title>Node17</title>
<g id="a_Node000017"><a xlink:href="classexpress_1_1middleware_1_1BasicAuthentication.html#a74011e8f313cded7f34c28250ddc878f" target="_top" xlink:title=" ">
<polygon fill="white" stroke="#666666" points="775,-226.85 655,-226.85 655,-185.85 775,-185.85 775,-226.85"/>
<text text-anchor="start" x="663" y="-214.85" font-family="Helvetica,sans-Serif" font-size="10.00">express::middleware</text>
<text text-anchor="start" x="663" y="-203.85" font-family="Helvetica,sans-Serif" font-size="10.00">::BasicAuthentication</text>
<text text-anchor="middle" x="715" y="-192.85" font-family="Helvetica,sans-Serif" font-size="10.00">::BasicAuthentication</text>
</a>
</g>
</g>
<!-- Node16&#45;&gt;Node17 -->
<g id="edge17_Node000016_Node000017" class="edge">
<title>Node16&#45;&gt;Node17</title>
<g id="a_edge17_Node000016_Node000017"><a xlink:title=" ">
<path fill="none" stroke="#63b8ff" d="M1344.48,-231.77C1325.09,-228.04 1303.78,-224.49 1284,-222.35 1099.12,-202.34 878.55,-203.12 775.08,-204.92"/>
<polygon fill="#63b8ff" stroke="#63b8ff" points="1343.94,-235.23 1354.43,-233.72 1345.29,-228.36 1343.94,-235.23"/>
</a>
</g>
</g>
<!-- Node22 -->
<g id="Node000022" class="node">
<title>Node22</title>
<g id="a_Node000022"><a xlink:href="classexpress_1_1RootRoute.html#a2d65050e101a52dc8c303cd787d1cb23" target="_top" xlink:title=" ">
<polygon fill="white" stroke="#666666" points="1283,-175.35 1171,-175.35 1171,-145.35 1283,-145.35 1283,-175.35"/>
<text text-anchor="start" x="1179" y="-163.35" font-family="Helvetica,sans-Serif" font-size="10.00">express::RootRoute</text>
<text text-anchor="middle" x="1227" y="-152.35" font-family="Helvetica,sans-Serif" font-size="10.00">::dispatch</text>
</a>
</g>
</g>
<!-- Node16&#45;&gt;Node22 -->
<g id="edge23_Node000016_Node000022" class="edge">
<title>Node16&#45;&gt;Node22</title>
<g id="a_edge23_Node000016_Node000022"><a xlink:title=" ">
<path fill="none" stroke="#63b8ff" d="M1344.65,-232.93C1336.11,-230.03 1327.67,-226.54 1320,-222.35 1300.96,-211.93 1301.79,-201.78 1284,-189.35 1276.73,-184.27 1268.45,-179.5 1260.54,-175.35"/>
<polygon fill="#63b8ff" stroke="#63b8ff" points="1343.73,-236.31 1354.32,-235.96 1345.82,-229.63 1343.73,-236.31"/>
</a>
</g>
</g>
<!-- Node16&#45;&gt;Node30 -->
<g id="edge42_Node000016_Node000030" class="edge">
<title>Node16&#45;&gt;Node30</title>
<g id="a_edge42_Node000016_Node000030"><a xlink:title=" ">
<path fill="none" stroke="#63b8ff" d="M1378.88,-266.85C1354.16,-281.6 1318.35,-300.26 1284,-308.35 1102.34,-351.11 878.86,-330.65 774.66,-317.07"/>
<polygon fill="#63b8ff" stroke="#63b8ff" points="1380.74,-269.81 1387.46,-261.61 1377.1,-263.83 1380.74,-269.81"/>
</a>
</g>
</g>
<!-- Node36 -->
<g id="Node000036" class="node">
<title>Node36</title>
<g id="a_Node000036"><a xlink:href="ResourceServer_8cpp.html#a0ddf1224851353fc92bfbff6f499fa97" target="_top" xlink:title=" ">
<polygon fill="white" stroke="#666666" points="1247.5,-298.85 1206.5,-298.85 1206.5,-279.85 1247.5,-279.85 1247.5,-298.85"/>
<text text-anchor="middle" x="1227" y="-286.85" font-family="Helvetica,sans-Serif" font-size="10.00">main</text>
</a>
</g>
</g>
<!-- Node16&#45;&gt;Node36 -->
<g id="edge38_Node000016_Node000036" class="edge">
<title>Node16&#45;&gt;Node36</title>
<g id="a_edge38_Node000016_Node000036"><a xlink:title=" ">
<path fill="none" stroke="#63b8ff" d="M1344.3,-261.95C1310.1,-270 1270.82,-279.26 1247.78,-284.69"/>
<polygon fill="#63b8ff" stroke="#63b8ff" points="1345.32,-265.3 1354.25,-259.6 1343.72,-258.49 1345.32,-265.3"/>
</a>
</g>
</g>
<!-- Node37 -->
<g id="Node000037" class="node">
<title>Node37</title>
<g id="a_Node000037"><a xlink:href="classexpress_1_1Response.html#a18310d9c1178a5aa2fc6c569b1dfd518" target="_top" xlink:title=" ">
<polygon fill="white" stroke="#666666" points="1284,-261.35 1170,-261.35 1170,-231.35 1284,-231.35 1284,-261.35"/>
<text text-anchor="start" x="1178" y="-249.35" font-family="Helvetica,sans-Serif" font-size="10.00">express::Response::</text>
<text text-anchor="middle" x="1227" y="-238.35" font-family="Helvetica,sans-Serif" font-size="10.00">redirect</text>
</a>
</g>
</g>
<!-- Node16&#45;&gt;Node37 -->
<g id="edge39_Node000016_Node000037" class="edge">
<title>Node16&#45;&gt;Node37</title>
<g id="a_edge39_Node000016_Node000037"><a xlink:title=" ">
<path fill="none" stroke="#63b8ff" d="M1344.12,-246.35C1324.42,-246.35 1303.04,-246.35 1284.06,-246.35"/>
<polygon fill="#63b8ff" stroke="#63b8ff" points="1344.25,-249.85 1354.25,-246.35 1344.25,-242.85 1344.25,-249.85"/>
</a>
</g>
</g>
<!-- Node18 -->
<g id="Node000018" class="node">
<title>Node18</title>
<g id="a_Node000018"><a xlink:href="classexpress_1_1middleware_1_1BasicAuthentication.html#a8cd93f5ab0744e5deae89aac3709ee42" target="_top" xlink:title=" ">
<polygon fill="white" stroke="#666666" points="551,-226.85 431,-226.85 431,-185.85 551,-185.85 551,-226.85"/>
<text text-anchor="start" x="439" y="-214.85" font-family="Helvetica,sans-Serif" font-size="10.00">express::middleware</text>
<text text-anchor="start" x="439" y="-203.85" font-family="Helvetica,sans-Serif" font-size="10.00">::BasicAuthentication</text>
<text text-anchor="middle" x="491" y="-192.85" font-family="Helvetica,sans-Serif" font-size="10.00">::instance</text>
</a>
</g>
</g>
<!-- Node17&#45;&gt;Node18 -->
<g id="edge18_Node000017_Node000018" class="edge">
<title>Node17&#45;&gt;Node18</title>
<g id="a_edge18_Node000017_Node000018"><a xlink:title=" ">
<path fill="none" stroke="#63b8ff" d="M644.41,-206.35C614.43,-206.35 579.74,-206.35 551.04,-206.35"/>
<polygon fill="#63b8ff" stroke="#63b8ff" points="644.8,-209.85 654.8,-206.35 644.8,-202.85 644.8,-209.85"/>
</a>
</g>
</g>
<!-- Node19 -->
<g id="Node000019" class="node">
<title>Node19</title>
<g id="a_Node000019"><a xlink:href="classexpress_1_1middleware_1_1BasicAuthentication.html#a461f08f2de85ee8ddb1afb72db149028" target="_top" xlink:title=" ">
<polygon fill="white" stroke="#666666" points="329.5,-226.85 209.5,-226.85 209.5,-185.85 329.5,-185.85 329.5,-226.85"/>
<text text-anchor="start" x="217.5" y="-214.85" font-family="Helvetica,sans-Serif" font-size="10.00">express::middleware</text>
<text text-anchor="start" x="217.5" y="-203.85" font-family="Helvetica,sans-Serif" font-size="10.00">::BasicAuthentication</text>
<text text-anchor="middle" x="269.5" y="-192.85" font-family="Helvetica,sans-Serif" font-size="10.00">::BasicAuthentication</text>
</a>
</g>
</g>
<!-- Node18&#45;&gt;Node19 -->
<g id="edge19_Node000018_Node000019" class="edge">
<title>Node18&#45;&gt;Node19</title>
<g id="a_edge19_Node000018_Node000019"><a xlink:title=" ">
<path fill="none" stroke="#63b8ff" d="M420.75,-206.35C391.5,-206.35 357.79,-206.35 329.72,-206.35"/>
<polygon fill="#63b8ff" stroke="#63b8ff" points="420.89,-209.85 430.89,-206.35 420.89,-202.85 420.89,-209.85"/>
</a>
</g>
</g>
<!-- Node20 -->
<g id="Node000020" class="node">
<title>Node20</title>
<g id="a_Node000020"><a xlink:href="testbasicauthentication_8cpp.html#aeb6ff6ca94f495351c99f0a372eadd33" target="_top" xlink:title=" ">
<polygon fill="white" stroke="#666666" points="142,-196.85 77,-196.85 77,-177.85 142,-177.85 142,-196.85"/>
<text text-anchor="middle" x="109.5" y="-184.85" font-family="Helvetica,sans-Serif" font-size="10.00">getRouter</text>
</a>
</g>
</g>
<!-- Node19&#45;&gt;Node20 -->
<g id="edge20_Node000019_Node000020" class="edge">
<title>Node19&#45;&gt;Node20</title>
<g id="a_edge20_Node000019_Node000020"><a xlink:title=" ">
<path fill="none" stroke="#63b8ff" d="M199.22,-198.02C179.32,-195.62 158.58,-193.13 142.16,-191.15"/>
<polygon fill="#63b8ff" stroke="#63b8ff" points="198.87,-201.5 209.22,-199.22 199.71,-194.55 198.87,-201.5"/>
</a>
</g>
</g>
<!-- Node21 -->
<g id="Node000021" class="node">
<title>Node21</title>
<g id="a_Node000021"><a xlink:href="testbasicauthentication_8cpp.html#a0ddf1224851353fc92bfbff6f499fa97" target="_top" xlink:title=" ">
<polygon fill="white" stroke="#666666" points="41,-215.85 0,-215.85 0,-196.85 41,-196.85 41,-215.85"/>
<text text-anchor="middle" x="20.5" y="-203.85" font-family="Helvetica,sans-Serif" font-size="10.00">main</text>
</a>
</g>
</g>
<!-- Node19&#45;&gt;Node21 -->
<g id="edge22_Node000019_Node000021" class="edge">
<title>Node19&#45;&gt;Node21</title>
<g id="a_edge22_Node000019_Node000021"><a xlink:title=" ">
<path fill="none" stroke="#63b8ff" d="M199.19,-206.35C145.56,-206.35 74.91,-206.35 41.14,-206.35"/>
<polygon fill="#63b8ff" stroke="#63b8ff" points="199.34,-209.85 209.34,-206.35 199.34,-202.85 199.34,-209.85"/>
</a>
</g>
</g>
<!-- Node20&#45;&gt;Node21 -->
<g id="edge21_Node000020_Node000021" class="edge">
<title>Node20&#45;&gt;Node21</title>
<g id="a_edge21_Node000020_Node000021"><a xlink:title=" ">
<path fill="none" stroke="#63b8ff" d="M66.61,-196.5C57.66,-198.45 48.62,-200.43 41,-202.09"/>
<polygon fill="#63b8ff" stroke="#63b8ff" points="67.58,-199.87 76.6,-194.32 66.08,-193.03 67.58,-199.87"/>
</a>
</g>
</g>
<!-- Node23 -->
<g id="Node000023" class="node">
<title>Node23</title>
<g id="a_Node000023"><a xlink:href="classexpress_1_1RootRoute.html#a1c2da19981989c227a16b6054be19262" target="_top" xlink:title=" ">
<polygon fill="white" stroke="#666666" points="1133,-175.35 1021,-175.35 1021,-145.35 1133,-145.35 1133,-175.35"/>
<text text-anchor="start" x="1029" y="-163.35" font-family="Helvetica,sans-Serif" font-size="10.00">express::RootRoute</text>
<text text-anchor="middle" x="1077" y="-152.35" font-family="Helvetica,sans-Serif" font-size="10.00">::dispatch</text>
</a>
</g>
</g>
<!-- Node22&#45;&gt;Node23 -->
<g id="edge24_Node000022_Node000023" class="edge">
<title>Node22&#45;&gt;Node23</title>
<g id="a_edge24_Node000022_Node000023"><a xlink:title=" ">
<path fill="none" stroke="#63b8ff" d="M1160.64,-160.35C1151.47,-160.35 1142.11,-160.35 1133.16,-160.35"/>
<polygon fill="#63b8ff" stroke="#63b8ff" points="1160.89,-163.85 1170.89,-160.35 1160.89,-156.85 1160.89,-163.85"/>
</a>
</g>
</g>
<!-- Node24 -->
<g id="Node000024" class="node">
<title>Node24</title>
<g id="a_Node000024"><a xlink:href="classexpress_1_1Controller.html#a37349835c6e195cd3b2f264cfcf97fae" target="_top" xlink:title=" ">
<polygon fill="white" stroke="#666666" points="1131.5,-127.35 1022.5,-127.35 1022.5,-97.35 1131.5,-97.35 1131.5,-127.35"/>
<text text-anchor="start" x="1030.5" y="-115.35" font-family="Helvetica,sans-Serif" font-size="10.00">express::Controller</text>
<text text-anchor="middle" x="1077" y="-104.35" font-family="Helvetica,sans-Serif" font-size="10.00">::next</text>
</a>
</g>
</g>
<!-- Node22&#45;&gt;Node24 -->
<g id="edge25_Node000022_Node000024" class="edge">
<title>Node22&#45;&gt;Node24</title>
<g id="a_edge25_Node000022_Node000024"><a xlink:title=" ">
<path fill="none" stroke="#63b8ff" d="M1169.87,-142.14C1154.81,-137.26 1138.71,-132.04 1124.26,-127.35"/>
<polygon fill="#63b8ff" stroke="#63b8ff" points="1168.99,-145.54 1179.58,-145.29 1171.15,-138.88 1168.99,-145.54"/>
</a>
</g>
</g>
<!-- Node25 -->
<g id="Node000025" class="node">
<title>Node25</title>
<g id="a_Node000025"><a xlink:href="classexpress_1_1Next.html#a3e14e0e46359f80dac195ec6e57eaf5d" target="_top" xlink:title=" ">
<polygon fill="white" stroke="#666666" points="984,-121.85 845,-121.85 845,-102.85 984,-102.85 984,-121.85"/>
<text text-anchor="middle" x="914.5" y="-109.85" font-family="Helvetica,sans-Serif" font-size="10.00">express::Next::operator()</text>
</a>
</g>
</g>
<!-- Node24&#45;&gt;Node25 -->
<g id="edge26_Node000024_Node000025" class="edge">
<title>Node24&#45;&gt;Node25</title>
<g id="a_edge26_Node000024_Node000025"><a xlink:title=" ">
<path fill="none" stroke="#63b8ff" d="M1011.92,-112.35C1002.76,-112.35 993.31,-112.35 984.07,-112.35"/>
<polygon fill="#63b8ff" stroke="#63b8ff" points="1012.11,-115.85 1022.11,-112.35 1012.11,-108.85 1012.11,-115.85"/>
</a>
</g>
</g>
<!-- Node25&#45;&gt;Node17 -->
<g id="edge27_Node000025_Node000017" class="edge">
<title>Node25&#45;&gt;Node17</title>
<g id="a_edge27_Node000025_Node000017"><a xlink:title=" ">
<path fill="none" stroke="#63b8ff" d="M891.9,-127.69C871.33,-141.78 839.14,-162.5 809,-176.35 798.36,-181.24 786.7,-185.67 775.35,-189.54"/>
<polygon fill="#63b8ff" stroke="#63b8ff" points="894,-130.5 900.22,-121.92 890,-124.74 894,-130.5"/>
</a>
</g>
</g>
<!-- Node26 -->
<g id="Node000026" class="node">
<title>Node26</title>
<g id="a_Node000026"><a xlink:href="classexpress_1_1middleware_1_1JsonMiddleware.html#a0f90276c1100e22d2114306b23b95991" target="_top" xlink:title=" ">
<polygon fill="white" stroke="#666666" points="806.5,-167.35 623.5,-167.35 623.5,-137.35 806.5,-137.35 806.5,-167.35"/>
<text text-anchor="start" x="631.5" y="-155.35" font-family="Helvetica,sans-Serif" font-size="10.00">express::middleware</text>
<text text-anchor="middle" x="715" y="-144.35" font-family="Helvetica,sans-Serif" font-size="10.00">::JsonMiddleware::JsonMiddleware</text>
</a>
</g>
</g>
<!-- Node25&#45;&gt;Node26 -->
<g id="edge28_Node000025_Node000026" class="edge">
<title>Node25&#45;&gt;Node26</title>
<g id="a_edge28_Node000025_Node000026"><a xlink:title=" ">
<path fill="none" stroke="#63b8ff" d="M856.53,-123.89C835.81,-128.08 812.08,-132.89 790.09,-137.34"/>
<polygon fill="#63b8ff" stroke="#63b8ff" points="857.34,-127.29 866.44,-121.88 855.95,-120.43 857.34,-127.29"/>
</a>
</g>
</g>
<!-- Node29 -->
<g id="Node000029" class="node">
<title>Node29</title>
<g id="a_Node000029"><a xlink:href="vhostserver_8cpp.html#a0ddf1224851353fc92bfbff6f499fa97" target="_top" xlink:title=" ">
<polygon fill="white" stroke="#666666" points="735.5,-118.85 694.5,-118.85 694.5,-99.85 735.5,-99.85 735.5,-118.85"/>
<text text-anchor="middle" x="715" y="-106.85" font-family="Helvetica,sans-Serif" font-size="10.00">main</text>
</a>
</g>
</g>
<!-- Node25&#45;&gt;Node29 -->
<g id="edge31_Node000025_Node000029" class="edge">
<title>Node25&#45;&gt;Node29</title>
<g id="a_edge31_Node000025_Node000029"><a xlink:title=" ">
<path fill="none" stroke="#63b8ff" d="M834.91,-111.15C798.78,-110.61 758.9,-110 735.73,-109.65"/>
<polygon fill="#63b8ff" stroke="#63b8ff" points="834.93,-114.65 844.98,-111.31 835.03,-107.66 834.93,-114.65"/>
</a>
</g>
</g>
<!-- Node25&#45;&gt;Node30 -->
<g id="edge32_Node000025_Node000030" class="edge">
<title>Node25&#45;&gt;Node30</title>
<g id="a_edge32_Node000025_Node000030"><a xlink:title=" ">
<path fill="none" stroke="#63b8ff" d="M900.42,-130.15C881.61,-155.19 845.19,-201.63 809,-236.35 789.26,-255.29 764.7,-274.13 745.78,-287.78"/>
<polygon fill="#63b8ff" stroke="#63b8ff" points="903.36,-132.07 906.52,-121.96 897.74,-127.89 903.36,-132.07"/>
</a>
</g>
</g>
<!-- Node31 -->
<g id="Node000031" class="node">
<title>Node31</title>
<g id="a_Node000031"><a xlink:href="classexpress_1_1middleware_1_1VerboseRequest.html#a9958ed4e731964c4ff5e5dcb447f8d71" target="_top" xlink:title=" ">
<polygon fill="white" stroke="#666666" points="809,-81.35 621,-81.35 621,-51.35 809,-51.35 809,-81.35"/>
<text text-anchor="start" x="629" y="-69.35" font-family="Helvetica,sans-Serif" font-size="10.00">express::middleware</text>
<text text-anchor="middle" x="715" y="-58.35" font-family="Helvetica,sans-Serif" font-size="10.00">::VerboseRequest::VerboseRequest</text>
</a>
</g>
</g>
<!-- Node25&#45;&gt;Node31 -->
<g id="edge33_Node000025_Node000031" class="edge">
<title>Node25&#45;&gt;Node31</title>
<g id="a_edge33_Node000025_Node000031"><a xlink:title=" ">
<path fill="none" stroke="#63b8ff" d="M862.58,-100.49C837.58,-94.67 807.2,-87.59 780.59,-81.39"/>
<polygon fill="#63b8ff" stroke="#63b8ff" points="862.04,-103.96 872.58,-102.82 863.63,-97.14 862.04,-103.96"/>
</a>
</g>
</g>
<!-- Node33 -->
<g id="Node000033" class="node">
<title>Node33</title>
<g id="a_Node000033"><a xlink:href="classexpress_1_1middleware_1_1VHost.html#ab60d9df1ad85a8ee414c111135e250b1" target="_top" xlink:title=" ">
<polygon fill="white" stroke="#666666" points="774.5,-33.35 655.5,-33.35 655.5,-3.35 774.5,-3.35 774.5,-33.35"/>
<text text-anchor="start" x="663.5" y="-21.35" font-family="Helvetica,sans-Serif" font-size="10.00">express::middleware</text>
<text text-anchor="middle" x="715" y="-10.35" font-family="Helvetica,sans-Serif" font-size="10.00">::VHost::VHost</text>
</a>
</g>
</g>
<!-- Node25&#45;&gt;Node33 -->
<g id="edge35_Node000025_Node000033" class="edge">
<title>Node25&#45;&gt;Node33</title>
<g id="a_edge35_Node000025_Node000033"><a xlink:title=" ">
<path fill="none" stroke="#63b8ff" d="M893.99,-96.31C873.85,-80.49 840.94,-56.66 809,-42.35 798.2,-37.51 786.23,-33.5 774.58,-30.25"/>
<polygon fill="#63b8ff" stroke="#63b8ff" points="892.05,-99.24 902.05,-102.75 896.42,-93.77 892.05,-99.24"/>
</a>
</g>
</g>
<!-- Node27 -->
<g id="Node000027" class="node">
<title>Node27</title>
<g id="a_Node000027"><a xlink:href="classexpress_1_1middleware_1_1JsonMiddleware.html#ae20c47bf2107ee7b8a8190d3a3439b1a" target="_top" xlink:title=" ">
<polygon fill="white" stroke="#666666" points="564.5,-167.35 417.5,-167.35 417.5,-137.35 564.5,-137.35 564.5,-167.35"/>
<text text-anchor="start" x="425.5" y="-155.35" font-family="Helvetica,sans-Serif" font-size="10.00">express::middleware</text>
<text text-anchor="middle" x="491" y="-144.35" font-family="Helvetica,sans-Serif" font-size="10.00">::JsonMiddleware::instance</text>
</a>
</g>
</g>
<!-- Node26&#45;&gt;Node27 -->
<g id="edge29_Node000026_Node000027" class="edge">
<title>Node26&#45;&gt;Node27</title>
<g id="a_edge29_Node000026_Node000027"><a xlink:title=" ">
<path fill="none" stroke="#63b8ff" d="M613.24,-152.35C596.87,-152.35 580.2,-152.35 564.67,-152.35"/>
<polygon fill="#63b8ff" stroke="#63b8ff" points="613.38,-155.85 623.38,-152.35 613.38,-148.85 613.38,-155.85"/>
</a>
</g>
</g>
<!-- Node28 -->
<g id="Node000028" class="node">
<title>Node28</title>
<g id="a_Node000028"><a xlink:href="classexpress_1_1middleware_1_1JsonMiddleware.html#a50b23edc44a7ae19b857efe7fbb3495f" target="_top" xlink:title=" ">
<polygon fill="white" stroke="#666666" points="361,-167.35 178,-167.35 178,-137.35 361,-137.35 361,-167.35"/>
<text text-anchor="start" x="186" y="-155.35" font-family="Helvetica,sans-Serif" font-size="10.00">express::middleware</text>
<text text-anchor="middle" x="269.5" y="-144.35" font-family="Helvetica,sans-Serif" font-size="10.00">::JsonMiddleware::JsonMiddleware</text>
</a>
</g>
</g>
<!-- Node27&#45;&gt;Node28 -->
<g id="edge30_Node000027_Node000028" class="edge">
<title>Node27&#45;&gt;Node28</title>
<g id="a_edge30_Node000027_Node000028"><a xlink:title=" ">
<path fill="none" stroke="#63b8ff" d="M406.96,-152.35C391.97,-152.35 376.27,-152.35 361.08,-152.35"/>
<polygon fill="#63b8ff" stroke="#63b8ff" points="407.21,-155.85 417.21,-152.35 407.21,-148.85 407.21,-155.85"/>
</a>
</g>
</g>
<!-- Node32 -->
<g id="Node000032" class="node">
<title>Node32</title>
<g id="a_Node000032"><a xlink:href="classexpress_1_1middleware_1_1VerboseRequest.html#a545ed22b9d5d978a745b06a25533e544" target="_top" xlink:title=" ">
<polygon fill="white" stroke="#666666" points="585,-81.35 397,-81.35 397,-51.35 585,-51.35 585,-81.35"/>
<text text-anchor="start" x="405" y="-69.35" font-family="Helvetica,sans-Serif" font-size="10.00">express::middleware</text>
<text text-anchor="middle" x="491" y="-58.35" font-family="Helvetica,sans-Serif" font-size="10.00">::VerboseRequest::VerboseRequest</text>
</a>
</g>
</g>
<!-- Node31&#45;&gt;Node32 -->
<g id="edge34_Node000031_Node000032" class="edge">
<title>Node31&#45;&gt;Node32</title>
<g id="a_edge34_Node000031_Node000032"><a xlink:title=" ">
<path fill="none" stroke="#63b8ff" d="M610.57,-66.35C602.14,-66.35 593.65,-66.35 585.3,-66.35"/>
<polygon fill="#63b8ff" stroke="#63b8ff" points="610.82,-69.85 620.82,-66.35 610.82,-62.85 610.82,-69.85"/>
</a>
</g>
</g>
<!-- Node34 -->
<g id="Node000034" class="node">
<title>Node34</title>
<g id="a_Node000034"><a xlink:href="classexpress_1_1middleware_1_1VHost.html#aedfd77e91aabab72a4b6bf19c9047876" target="_top" xlink:title=" ">
<polygon fill="white" stroke="#666666" points="550.5,-33.35 431.5,-33.35 431.5,-3.35 550.5,-3.35 550.5,-33.35"/>
<text text-anchor="start" x="439.5" y="-21.35" font-family="Helvetica,sans-Serif" font-size="10.00">express::middleware</text>
<text text-anchor="middle" x="491" y="-10.35" font-family="Helvetica,sans-Serif" font-size="10.00">::VHost::instance</text>
</a>
</g>
</g>
<!-- Node33&#45;&gt;Node34 -->
<g id="edge36_Node000033_Node000034" class="edge">
<title>Node33&#45;&gt;Node34</title>
<g id="a_edge36_Node000033_Node000034"><a xlink:title=" ">
<path fill="none" stroke="#63b8ff" d="M645.3,-18.35C614.95,-18.35 579.64,-18.35 550.56,-18.35"/>
<polygon fill="#63b8ff" stroke="#63b8ff" points="645.38,-21.85 655.38,-18.35 645.38,-14.85 645.38,-21.85"/>
</a>
</g>
</g>
<!-- Node35 -->
<g id="Node000035" class="node">
<title>Node35</title>
<g id="a_Node000035"><a xlink:href="classexpress_1_1middleware_1_1VHost.html#a0c0c8ae51cc23dc35d0444d98dfd41a8" target="_top" xlink:title=" ">
<polygon fill="white" stroke="#666666" points="329,-33.35 210,-33.35 210,-3.35 329,-3.35 329,-33.35"/>
<text text-anchor="start" x="218" y="-21.35" font-family="Helvetica,sans-Serif" font-size="10.00">express::middleware</text>
<text text-anchor="middle" x="269.5" y="-10.35" font-family="Helvetica,sans-Serif" font-size="10.00">::VHost::VHost</text>
</a>
</g>
</g>
<!-- Node34&#45;&gt;Node35 -->
<g id="edge37_Node000034_Node000035" class="edge">
<title>Node34&#45;&gt;Node35</title>
<g id="a_edge37_Node000034_Node000035"><a xlink:title=" ">
<path fill="none" stroke="#63b8ff" d="M421.23,-18.35C391.71,-18.35 357.57,-18.35 329.25,-18.35"/>
<polygon fill="#63b8ff" stroke="#63b8ff" points="421.47,-21.85 431.47,-18.35 421.47,-14.85 421.47,-21.85"/>
</a>
</g>
</g>
<!-- Node37&#45;&gt;Node30 -->
<g id="edge41_Node000037_Node000030" class="edge">
<title>Node37&#45;&gt;Node30</title>
<g id="a_edge41_Node000037_Node000030"><a xlink:title=" ">
<path fill="none" stroke="#63b8ff" d="M1164.32,-263.92C1154.25,-266.36 1143.88,-268.62 1134,-270.35 1006.95,-292.54 855.76,-302.21 774.55,-306.07"/>
<polygon fill="#63b8ff" stroke="#63b8ff" points="1165.42,-267.26 1174.27,-261.44 1163.72,-260.47 1165.42,-267.26"/>
</a>
</g>
</g>
<!-- Node38 -->
<g id="Node000038" class="node">
<title>Node38</title>
<g id="a_Node000038"><a xlink:href="classexpress_1_1Response.html#a0caba0c97da9f7623360c01639f34616" target="_top" xlink:title=" ">
<polygon fill="white" stroke="#666666" points="1134,-261.35 1020,-261.35 1020,-231.35 1134,-231.35 1134,-261.35"/>
<text text-anchor="start" x="1028" y="-249.35" font-family="Helvetica,sans-Serif" font-size="10.00">express::Response::</text>
<text text-anchor="middle" x="1077" y="-238.35" font-family="Helvetica,sans-Serif" font-size="10.00">redirect</text>
</a>
</g>
</g>
<!-- Node37&#45;&gt;Node38 -->
<g id="edge40_Node000037_Node000038" class="edge">
<title>Node37&#45;&gt;Node38</title>
<g id="a_edge40_Node000037_Node000038"><a xlink:title=" ">
<path fill="none" stroke="#63b8ff" d="M1159.44,-246.35C1151.02,-246.35 1142.46,-246.35 1134.22,-246.35"/>
<polygon fill="#63b8ff" stroke="#63b8ff" points="1159.63,-249.85 1169.63,-246.35 1159.63,-242.85 1159.63,-249.85"/>
</a>
</g>
</g>
</g>
</svg>

<g id="navigator" transform="translate(0 0)" fill="#404254">
  <rect fill="#f2f5e9" fill-opacity="0.5" stroke="#606060" stroke-width=".5" x="0" y="0" width="60" height="60"/>
  <use id="zoomplus" xlink:href="#zoomPlus" x="17" y="9" onmousedown="handleZoom(evt,'in')"/>
  <use id="zoomminus" xlink:href="#zoomMin" x="42" y="9" onmousedown="handleZoom(evt,'out')"/>
  <use id="reset" xlink:href="#resetDef" x="30" y="36" onmousedown="handleReset()"/>
   <use id="arrowup" xlink:href="#arrowUp" x="0" y="0" onmousedown="handlePan(0,-1)"/>
  <use id="arrowright" xlink:href="#arrowRight" x="0" y="0" onmousedown="handlePan(1,0)"/>
  <use id="arrowdown" xlink:href="#arrowDown" x="0" y="0" onmousedown="handlePan(0,1)"/>
  <use id="arrowleft" xlink:href="#arrowLeft" x="0" y="0" onmousedown="handlePan(-1,0)"/>
</g>
<svg viewBox="0 0 15 15" width="100%" height="30px" preserveAspectRatio="xMaxYMin meet">
 <g id="arrow_out" transform="scale(0.3 0.3)">
  <a xlink:href="classweb_1_1http_1_1server_1_1SocketContext_a4d88902e4b881471e4b377ce533e79ad_icgraph_org.svg" target="_base">
   <rect id="button" ry="5" rx="5" y="6" x="6" height="38" width="38"
        fill="#f2f5e9" fill-opacity="0.5" stroke="#606060" stroke-width="1.0"/>
   <path id="arrow"
     d="M 11.500037,31.436501 C 11.940474,20.09759 22.043105,11.32322 32.158766,21.979434 L 37.068811,17.246167 C 37.068811,17.246167 37.088388,32 37.088388,32 L 22.160133,31.978069 C 22.160133,31.978069 26.997745,27.140456 26.997745,27.140456 C 18.528582,18.264221 13.291696,25.230495 11.500037,31.436501 z"
     style="fill:#404040;"/>
  </a>
 </g>
</svg>

<style type='text/css'>
<![CDATA[
[data-mouse-over-selected='false'] { opacity: 0.7; }
[data-mouse-over-selected='true']  { opacity: 1.0; }
]]>
</style>
<script type="application/ecmascript"><![CDATA[
document.addEventListener('DOMContentLoaded', (event) => {
  highlightEdges();
  highlightAdjacentNodes();
});
]]></script>
</svg>
