<?xml version="1.0" encoding="UTF-8" standalone="no"?>
<!DOCTYPE svg PUBLIC "-//W3C//DTD SVG 1.1//EN"
 "http://www.w3.org/Graphics/SVG/1.1/DTD/svg11.dtd">
<!-- Generated by graphviz version 14.1.2 (0)
 -->
<!-- Title: net::in::config::ConfigAddress&lt; ConfigAddressTypeT &gt; Pages: 1 -->
<!--zoomable 310 -->

<svg id="main" version="1.1" xmlns="http://www.w3.org/2000/svg" xmlns:xlink="http://www.w3.org/1999/xlink" xml:space="preserve" onload="init(evt)">

<style type="text/css"><![CDATA[
.node, .edge {opacity: 0.7;}
.node.selected, .edge.selected {opacity: 1;}
.edge:hover path { stroke: red; }
.edge:hover polygon { stroke: red; fill: red; }
]]></style>

<defs>
  <circle id="rim" cx="0" cy="0" r="7"/>
  <circle id="rim2" cx="0" cy="0" r="3.5"/>
  <g id="zoomPlus">
    <use xlink:href="#rim" fill="#404040"><set attributeName="fill" to="#808080" begin="zoomplus.mouseover" end="zoomplus.mouseout"/></use>
    <path d="M-4,0h8M0,-4v8" fill="none" stroke="white" stroke-width="1.5" pointer-events="none"/>
  </g>
  <g id="zoomMin">
    <use xlink:href="#rim" fill="#404040"><set attributeName="fill" to="#808080" begin="zoomminus.mouseover" end="zoomminus.mouseout"/></use>
    <path d="M-4,0h8" fill="none" stroke="white" stroke-width="1.5" pointer-events="none"/>
  </g>
  <g id="arrowUp" transform="translate(30 24)">
    <use xlink:href="#rim"/>
    <path pointer-events="none" fill="none" stroke="white" stroke-width="1.5" d="M0,-3.0v7 M-2.5,-0.5L0,-3.0L2.5,-0.5"/>
  </g>
  <g id="arrowRight" transform="rotate(90) translate(36 -43)">
    <use xlink:href="#rim"/>
    <path pointer-events="none" fill="none" stroke="white" stroke-width="1.5" d="M0,-3.0v7 M-2.5,-0.5L0,-3.0L2.5,-0.5"/>
  </g>
  <g id="arrowDown" transform="rotate(180) translate(-30 -48)">
    <use xlink:href="#rim"/>
    <path pointer-events="none" fill="none" stroke="white" stroke-width="1.5" d="M0,-3.0v7 M-2.5,-0.5L0,-3.0L2.5,-0.5"/>
  </g>
  <g id="arrowLeft" transform="rotate(270) translate(-36 17)">
    <use xlink:href="#rim"/>
    <path pointer-events="none" fill="none" stroke="white" stroke-width="1.5" d="M0,-3.0v7 M-2.5,-0.5L0,-3.0L2.5,-0.5"/>
  </g>
  <g id="resetDef">
    <use xlink:href="#rim2" fill="#404040"><set attributeName="fill" to="#808080" begin="reset.mouseover" end="reset.mouseout"/></use>
  </g>
</defs>
<script type="application/ecmascript">
var viewWidth = 516;
var viewHeight = 310;
var sectionId = 'dynsection-1';
</script>
<script type="application/ecmascript" xlink:href="svg.min.js"/>
<svg id="graph" class="graph">
<g id="viewport">
<title>net::in::config::ConfigAddress&lt; ConfigAddressTypeT &gt;</title>
<!-- Node1 -->
<g id="Node000001" class="node">
<title>Node1</title>
<g id="a_Node000001"><a xlink:title=" ">
<polygon fill="#999999" stroke="none" points="393.5,-214 242.25,-214 242.25,-180.5 393.5,-180.5 393.5,-214"/>
<text xml:space="preserve" text-anchor="start" x="246.25" y="-200.5" font-family="Helvetica,sans-Serif" font-size="10.00">net::in::config::ConfigAddress</text>
<text xml:space="preserve" text-anchor="start" x="257.12" y="-187.75" font-family="Helvetica,sans-Serif" font-size="10.00">&lt; ConfigAddressTypeT &gt;</text>
<polygon fill="none" stroke="#666666" points="242.25,-180.5 242.25,-214 393.5,-214 393.5,-180.5 242.25,-180.5"/>
</a>
</g>
</g>
<!-- Node2 -->
<g id="Node000002" class="node">
<title>Node2</title>
<g id="a_Node000002"><a xlink:href="classnet_1_1config_1_1ConfigSection.html" target="_top" xlink:title=" ">
<polygon fill="white" stroke="none" points="244.5,-295.88 111.25,-295.88 111.25,-275.12 244.5,-275.12 244.5,-295.88"/>
<text xml:space="preserve" text-anchor="start" x="115.25" y="-282.38" font-family="Helvetica,sans-Serif" font-size="10.00">net::config::ConfigSection</text>
<polygon fill="none" stroke="#666666" points="111.25,-275.12 111.25,-295.88 244.5,-295.88 244.5,-275.12 111.25,-275.12"/>
</a>
</g>
</g>
<!-- Node2&#45;&gt;Node1 -->
<g id="edge1_Node000001_Node000002" class="edge">
<title>Node2&#45;&gt;Node1</title>
<g id="a_edge1_Node000001_Node000002"><a xlink:title=" ">
<path fill="none" stroke="#8b1a1a" d="M202.43,-269.37C227.67,-253.82 266.79,-229.72 292.37,-213.96"/>
<polygon fill="none" stroke="#8b1a1a" points="200.82,-266.25 194.15,-274.48 204.5,-272.21 200.82,-266.25"/>
</a>
</g>
</g>
<!-- Node7 -->
<g id="Node000007" class="node">
<title>Node7</title>
<g id="a_Node000007"><a xlink:title=" ">
<polygon fill="white" stroke="none" points="179.25,-214 50.5,-214 50.5,-180.5 179.25,-180.5 179.25,-214"/>
<text xml:space="preserve" text-anchor="start" x="54.5" y="-200.5" font-family="Helvetica,sans-Serif" font-size="10.00">std::shared_ptr&lt; net</text>
<text xml:space="preserve" text-anchor="start" x="54.5" y="-187.75" font-family="Helvetica,sans-Serif" font-size="10.00">::config::ConfigSection &gt;</text>
<polygon fill="none" stroke="#666666" points="50.5,-180.5 50.5,-214 179.25,-214 179.25,-180.5 50.5,-180.5"/>
</a>
</g>
</g>
<!-- Node2&#45;&gt;Node7 -->
<g id="edge7_Node000007_Node000002" class="edge">
<title>Node2&#45;&gt;Node7</title>
<g id="a_edge7_Node000007_Node000002"><a xlink:title=" ">
<path fill="none" stroke="#63b8ff" d="M171.13,-275.27C162.25,-263.11 146.26,-241.22 133.6,-223.88"/>
<polygon fill="none" stroke="#63b8ff" points="133.84,-224.22 127.07,-221.73 126.77,-214.53 133.53,-217.01 133.84,-224.22"/>
</a>
</g>
<text xml:space="preserve" text-anchor="start" x="155.02" y="-238.25" font-family="Helvetica,sans-Serif" font-size="10.00" fill="grey">+ptr</text>
</g>
<!-- Node3 -->
<g id="Node000003" class="node">
<title>Node3</title>
<g id="a_Node000003"><a xlink:href="classnet_1_1config_1_1ConfigInstance.html" target="_top" xlink:title=" ">
<polygon fill="white" stroke="none" points="283.12,-20.75 144.62,-20.75 144.62,0 283.12,0 283.12,-20.75"/>
<text xml:space="preserve" text-anchor="start" x="148.62" y="-7.25" font-family="Helvetica,sans-Serif" font-size="10.00">net::config::ConfigInstance</text>
<polygon fill="none" stroke="#666666" points="144.62,0 144.62,-20.75 283.12,-20.75 283.12,0 144.62,0"/>
</a>
</g>
</g>
<!-- Node3&#45;&gt;Node2 -->
<g id="edge2_Node000002_Node000003" class="edge">
<title>Node3&#45;&gt;Node2</title>
<g id="a_edge2_Node000002_Node000003"><a xlink:title=" ">
<path fill="none" stroke="#63b8ff" d="M212.9,-20.53C209.47,-52.38 197.42,-161.3 183.88,-250.75 183.28,-254.67 182.59,-258.83 181.89,-262.84"/>
<polygon fill="none" stroke="#63b8ff" points="181.93,-262.66 184.8,-269.27 179.79,-274.47 176.92,-267.85 181.93,-262.66"/>
</a>
</g>
<text xml:space="preserve" text-anchor="start" x="201.38" y="-150" font-family="Helvetica,sans-Serif" font-size="10.00" fill="grey">&#45;instance</text>
</g>
<!-- Node4 -->
<g id="Node000004" class="node">
<title>Node4</title>
<g id="a_Node000004"><a xlink:title=" ">
<polygon fill="white" stroke="none" points="435.25,-119.38 378.5,-119.38 378.5,-98.62 435.25,-98.62 435.25,-119.38"/>
<text xml:space="preserve" text-anchor="start" x="382.5" y="-105.88" font-family="Helvetica,sans-Serif" font-size="10.00">std::string</text>
<polygon fill="none" stroke="#666666" points="378.5,-98.62 378.5,-119.38 435.25,-119.38 435.25,-98.62 378.5,-98.62"/>
</a>
</g>
</g>
<!-- Node4&#45;&gt;Node3 -->
<g id="edge3_Node000003_Node000004" class="edge">
<title>Node4&#45;&gt;Node3</title>
<g id="a_edge3_Node000003_Node000004"><a xlink:title=" ">
<path fill="none" stroke="#63b8ff" d="M388.37,-98.74C354.94,-82 284.2,-46.58 243.81,-26.36"/>
<polygon fill="none" stroke="#63b8ff" points="243.86,-26.39 236.71,-27.28 233.13,-21.02 240.29,-20.12 243.86,-26.39"/>
</a>
</g>
<text xml:space="preserve" text-anchor="start" x="341.94" y="-61.75" font-family="Helvetica,sans-Serif" font-size="10.00" fill="grey">&#45;instanceName</text>
<text xml:space="preserve" text-anchor="start" x="341.94" y="-45" font-family="Helvetica,sans-Serif" font-size="10.00" fill="grey">&#45;nameAnonymous</text>
</g>
<!-- Node5 -->
<g id="Node000005" class="node">
<title>Node5</title>
<g id="a_Node000005"><a xlink:title=" ">
<polygon fill="white" stroke="none" points="507.75,-214 412,-214 412,-180.5 507.75,-180.5 507.75,-214"/>
<text xml:space="preserve" text-anchor="start" x="416" y="-200.5" font-family="Helvetica,sans-Serif" font-size="10.00">std::basic_string&lt;</text>
<text xml:space="preserve" text-anchor="start" x="441.5" y="-187.75" font-family="Helvetica,sans-Serif" font-size="10.00"> Char &gt;</text>
<polygon fill="none" stroke="#666666" points="412,-180.5 412,-214 507.75,-214 507.75,-180.5 412,-180.5"/>
</a>
</g>
</g>
<!-- Node5&#45;&gt;Node4 -->
<g id="edge4_Node000004_Node000005" class="edge">
<title>Node5&#45;&gt;Node4</title>
<g id="a_edge4_Node000004_Node000005"><a xlink:title=" ">
<path fill="none" stroke="#63b8ff" d="M444.46,-171.17C433.67,-153.61 419.89,-131.18 412.37,-118.95"/>
<polygon fill="none" stroke="#63b8ff" points="441.39,-172.85 449.61,-179.54 447.35,-169.19 441.39,-172.85"/>
</a>
</g>
</g>
<!-- Node6 -->
<g id="Node000006" class="node">
<title>Node6</title>
<g id="a_Node000006"><a xlink:title=" ">
<polygon fill="white" stroke="none" points="185.75,-125.75 0,-125.75 0,-92.25 185.75,-92.25 185.75,-125.75"/>
<text xml:space="preserve" text-anchor="start" x="4" y="-112.25" font-family="Helvetica,sans-Serif" font-size="10.00">std::vector&lt; std::shared</text>
<text xml:space="preserve" text-anchor="start" x="4" y="-99.5" font-family="Helvetica,sans-Serif" font-size="10.00">_ptr&lt; net::config::ConfigSection &gt; &gt;</text>
<polygon fill="none" stroke="#666666" points="0,-92.25 0,-125.75 185.75,-125.75 185.75,-92.25 0,-92.25"/>
</a>
</g>
</g>
<!-- Node6&#45;&gt;Node3 -->
<g id="edge5_Node000003_Node000006" class="edge">
<title>Node6&#45;&gt;Node3</title>
<g id="a_edge5_Node000003_Node000006"><a xlink:title=" ">
<path fill="none" stroke="#63b8ff" d="M94.69,-92.27C97.32,-76.56 103.69,-52.78 118.88,-38.75 124.68,-33.39 131.47,-29.07 138.7,-25.59"/>
<polygon fill="none" stroke="#63b8ff" points="138.83,-25.54 142.86,-19.56 149.93,-20.98 145.9,-26.96 138.83,-25.54"/>
</a>
</g>
<text xml:space="preserve" text-anchor="start" x="121.88" y="-53.38" font-family="Helvetica,sans-Serif" font-size="10.00" fill="grey">&#45;configSections</text>
</g>
<!-- Node7&#45;&gt;Node6 -->
<g id="edge6_Node000006_Node000007" class="edge">
<title>Node7&#45;&gt;Node6</title>
<g id="a_edge6_Node000006_Node000007"><a xlink:title=" ">
<path fill="none" stroke="#63b8ff" d="M110.94,-180.83C107.93,-169.01 103.68,-152.36 100.06,-138.18"/>
<polygon fill="none" stroke="#63b8ff" points="100.04,-138.08 94.68,-133.25 97.07,-126.45 102.43,-131.28 100.04,-138.08"/>
</a>
</g>
<text xml:space="preserve" text-anchor="start" x="108.85" y="-150" font-family="Helvetica,sans-Serif" font-size="10.00" fill="grey">+elements</text>
</g>
<!-- Node8 -->
<g id="Node000008" class="node">
<title>Node8</title>
<g id="a_Node000008"><a xlink:title=" ">
<polygon fill="white" stroke="none" points="401.12,-302.25 262.62,-302.25 262.62,-268.75 401.12,-268.75 401.12,-302.25"/>
<text xml:space="preserve" text-anchor="start" x="266.62" y="-288.75" font-family="Helvetica,sans-Serif" font-size="10.00">ConfigAddressTypeT</text>
<text xml:space="preserve" text-anchor="start" x="266.62" y="-276" font-family="Helvetica,sans-Serif" font-size="10.00">&lt; net::in::SocketAddress &gt;</text>
<polygon fill="none" stroke="#666666" points="262.62,-268.75 262.62,-302.25 401.12,-302.25 401.12,-268.75 262.62,-268.75"/>
</a>
</g>
</g>
<!-- Node8&#45;&gt;Node1 -->
<g id="edge8_Node000001_Node000008" class="edge">
<title>Node8&#45;&gt;Node1</title>
<g id="a_edge8_Node000001_Node000008"><a xlink:title=" ">
<path fill="none" stroke="#63b8ff" d="M327.54,-257.81C325.2,-243.38 322.39,-226.06 320.4,-213.83"/>
<polygon fill="none" stroke="#63b8ff" points="324.07,-258.28 329.13,-267.59 330.98,-257.15 324.07,-258.28"/>
</a>
</g>
</g>
</g>
</svg>

<g id="navigator" transform="translate(0 0)" fill="#404254">
  <rect fill="#f2f5e9" fill-opacity="0.5" stroke="#606060" stroke-width=".5" x="0" y="0" width="60" height="60"/>
  <use id="zoomplus" xlink:href="#zoomPlus" x="17" y="9" onmousedown="handleZoom(evt,'in')"/>
  <use id="zoomminus" xlink:href="#zoomMin" x="42" y="9" onmousedown="handleZoom(evt,'out')"/>
  <use id="reset" xlink:href="#resetDef" x="30" y="36" onmousedown="handleReset()"/>
   <use id="arrowup" xlink:href="#arrowUp" x="0" y="0" onmousedown="handlePan(0,-1)"/>
  <use id="arrowright" xlink:href="#arrowRight" x="0" y="0" onmousedown="handlePan(1,0)"/>
  <use id="arrowdown" xlink:href="#arrowDown" x="0" y="0" onmousedown="handlePan(0,1)"/>
  <use id="arrowleft" xlink:href="#arrowLeft" x="0" y="0" onmousedown="handlePan(-1,0)"/>
</g>
<svg viewBox="0 0 15 15" width="100%" height="30px" preserveAspectRatio="xMaxYMin meet">
 <g id="arrow_out" transform="scale(0.3 0.3)">
  <a xlink:href="classnet_1_1in_1_1config_1_1ConfigAddress__coll__graph_org.svg" target="_base">
   <rect id="button" ry="5" rx="5" y="6" x="6" height="38" width="38"
        fill="#f2f5e9" fill-opacity="0.5" stroke="#606060" stroke-width="1.0"/>
   <path id="arrow"
     d="M 11.500037,31.436501 C 11.940474,20.09759 22.043105,11.32322 32.158766,21.979434 L 37.068811,17.246167 C 37.068811,17.246167 37.088388,32 37.088388,32 L 22.160133,31.978069 C 22.160133,31.978069 26.997745,27.140456 26.997745,27.140456 C 18.528582,18.264221 13.291696,25.230495 11.500037,31.436501 z"
     style="fill:#404040;"/>
  </a>
 </g>
</svg>

<style type='text/css'>
<![CDATA[
[data-mouse-over-selected='false'] { opacity: 0.7; }
[data-mouse-over-selected='true']  { opacity: 1.0; }
]]>
</style>
<script type="application/ecmascript"><![CDATA[
document.addEventListener('DOMContentLoaded', (event) => {
  highlightEdges();
  highlightAdjacentNodes();
});
]]></script>
</svg>
