<?xml version="1.0" encoding="UTF-8" standalone="no"?>
<!DOCTYPE svg PUBLIC "-//W3C//DTD SVG 1.1//EN"
 "http://www.w3.org/Graphics/SVG/1.1/DTD/svg11.dtd">
<!-- Generated by graphviz version 2.43.0 (0)
 -->
<!-- Title: iot::mqtt::packets::Publish::getRetain Pages: 1 -->
<svg width="598pt" height="86pt"
 viewBox="0.00 0.00 598.00 86.00" xmlns="http://www.w3.org/2000/svg" xmlns:xlink="http://www.w3.org/1999/xlink">
<g id="graph0" class="graph" transform="scale(1 1) rotate(0) translate(4 82)">
<title>iot::mqtt::packets::Publish::getRetain</title>
<!-- Node1 -->
<g id="Node000001" class="node">
<title>Node1</title>
<g id="a_Node000001"><a xlink:title=" ">
<polygon fill="#999999" stroke="#666666" points="590,-49 487,-49 487,-19 590,-19 590,-49"/>
<text text-anchor="start" x="495" y="-37" font-family="Helvetica,sans-Serif" font-size="10.00">iot::mqtt::packets</text>
<text text-anchor="middle" x="538.5" y="-26" font-family="Helvetica,sans-Serif" font-size="10.00">::Publish::getRetain</text>
</a>
</g>
</g>
<!-- Node2 -->
<g id="Node000002" class="node">
<title>Node2</title>
<g id="a_Node000002"><a xlink:href="classiot_1_1mqtt_1_1Mqtt.html#a8766079f6d926bc6b5201d7e46a00ed1" target="_top" xlink:title=" ">
<polygon fill="white" stroke="#666666" points="451,-62.5 319,-62.5 319,-43.5 451,-43.5 451,-62.5"/>
<text text-anchor="middle" x="385" y="-50.5" font-family="Helvetica,sans-Serif" font-size="10.00">iot::mqtt::Mqtt::_onPublish</text>
</a>
</g>
</g>
<!-- Node1&#45;&gt;Node2 -->
<g id="edge1_Node000001_Node000002" class="edge">
<title>Node1&#45;&gt;Node2</title>
<g id="a_edge1_Node000001_Node000002"><a xlink:title=" ">
<path fill="none" stroke="#63b8ff" d="M476.61,-41.64C468.27,-42.68 459.68,-43.76 451.26,-44.82"/>
<polygon fill="#63b8ff" stroke="#63b8ff" points="477.14,-45.1 486.63,-40.38 476.27,-38.15 477.14,-45.1"/>
</a>
</g>
</g>
<!-- Node5 -->
<g id="Node000005" class="node">
<title>Node5</title>
<g id="a_Node000005"><a xlink:href="classiot_1_1mqtt_1_1server_1_1Mqtt.html#a71e7b5dd0527c66335742821ff06d9a6" target="_top" xlink:title=" ">
<polygon fill="white" stroke="#666666" points="283,-30 191,-30 191,0 283,0 283,-30"/>
<text text-anchor="start" x="199" y="-18" font-family="Helvetica,sans-Serif" font-size="10.00">iot::mqtt::server::</text>
<text text-anchor="middle" x="237" y="-7" font-family="Helvetica,sans-Serif" font-size="10.00">Mqtt::_onPublish</text>
</a>
</g>
</g>
<!-- Node1&#45;&gt;Node5 -->
<g id="edge6_Node000001_Node000005" class="edge">
<title>Node1&#45;&gt;Node5</title>
<g id="a_edge6_Node000001_Node000005"><a xlink:title=" ">
<path fill="none" stroke="#63b8ff" d="M476.67,-30.14C419.34,-26.5 334.73,-21.14 283.17,-17.87"/>
<polygon fill="#63b8ff" stroke="#63b8ff" points="476.49,-33.64 486.69,-30.78 476.94,-26.65 476.49,-33.64"/>
</a>
</g>
</g>
<!-- Node3 -->
<g id="Node000003" class="node">
<title>Node3</title>
<g id="a_Node000003"><a xlink:href="classiot_1_1mqtt_1_1client_1_1Mqtt.html#a1147c1de14b227686a91052cc000c700" target="_top" xlink:title=" ">
<polygon fill="white" stroke="#666666" points="282,-78 192,-78 192,-48 282,-48 282,-78"/>
<text text-anchor="start" x="200" y="-66" font-family="Helvetica,sans-Serif" font-size="10.00">iot::mqtt::client::</text>
<text text-anchor="middle" x="237" y="-55" font-family="Helvetica,sans-Serif" font-size="10.00">Mqtt::_onPublish</text>
</a>
</g>
</g>
<!-- Node2&#45;&gt;Node3 -->
<g id="edge2_Node000002_Node000003" class="edge">
<title>Node2&#45;&gt;Node3</title>
<g id="a_edge2_Node000002_Node000003"><a xlink:title=" ">
<path fill="none" stroke="#63b8ff" d="M308.56,-58.17C299.58,-58.78 290.66,-59.39 282.32,-59.96"/>
<polygon fill="#63b8ff" stroke="#63b8ff" points="308.95,-61.65 318.69,-57.47 308.47,-54.67 308.95,-61.65"/>
</a>
</g>
</g>
<!-- Node2&#45;&gt;Node5 -->
<g id="edge4_Node000002_Node000005" class="edge">
<title>Node2&#45;&gt;Node5</title>
<g id="a_edge4_Node000002_Node000005"><a xlink:title=" ">
<path fill="none" stroke="#63b8ff" d="M337.26,-40.84C319.95,-36.33 300.36,-31.23 283.18,-26.76"/>
<polygon fill="#63b8ff" stroke="#63b8ff" points="336.6,-44.28 347.16,-43.41 338.36,-37.5 336.6,-44.28"/>
</a>
</g>
</g>
<!-- Node4 -->
<g id="Node000004" class="node">
<title>Node4</title>
<g id="a_Node000004"><a xlink:href="classiot_1_1mqtt_1_1client_1_1packets_1_1Publish.html#a32b464340584c0c136fe5f467715fc56" target="_top" xlink:title=" ">
<polygon fill="white" stroke="#666666" points="155,-78 0,-78 0,-48 155,-48 155,-78"/>
<text text-anchor="start" x="8" y="-66" font-family="Helvetica,sans-Serif" font-size="10.00">iot::mqtt::client::</text>
<text text-anchor="middle" x="77.5" y="-55" font-family="Helvetica,sans-Serif" font-size="10.00">packets::Publish::deliverPacket</text>
</a>
</g>
</g>
<!-- Node3&#45;&gt;Node4 -->
<g id="edge3_Node000003_Node000004" class="edge">
<title>Node3&#45;&gt;Node4</title>
<g id="a_edge3_Node000003_Node000004"><a xlink:title=" ">
<path fill="none" stroke="#63b8ff" d="M181.58,-63C173.08,-63 164.15,-63 155.27,-63"/>
<polygon fill="#63b8ff" stroke="#63b8ff" points="181.71,-66.5 191.71,-63 181.71,-59.5 181.71,-66.5"/>
</a>
</g>
</g>
<!-- Node6 -->
<g id="Node000006" class="node">
<title>Node6</title>
<g id="a_Node000006"><a xlink:href="classiot_1_1mqtt_1_1server_1_1packets_1_1Publish.html#aa4b9e335d769c0b994e54bb72276b18b" target="_top" xlink:title=" ">
<polygon fill="white" stroke="#666666" points="155,-30 0,-30 0,0 155,0 155,-30"/>
<text text-anchor="start" x="8" y="-18" font-family="Helvetica,sans-Serif" font-size="10.00">iot::mqtt::server::</text>
<text text-anchor="middle" x="77.5" y="-7" font-family="Helvetica,sans-Serif" font-size="10.00">packets::Publish::deliverPacket</text>
</a>
</g>
</g>
<!-- Node5&#45;&gt;Node6 -->
<g id="edge5_Node000005_Node000006" class="edge">
<title>Node5&#45;&gt;Node6</title>
<g id="a_edge5_Node000005_Node000006"><a xlink:title=" ">
<path fill="none" stroke="#63b8ff" d="M180.65,-15C172.39,-15 163.76,-15 155.17,-15"/>
<polygon fill="#63b8ff" stroke="#63b8ff" points="180.87,-18.5 190.87,-15 180.87,-11.5 180.87,-18.5"/>
</a>
</g>
</g>
</g>
</svg>
