<?xml version="1.0" encoding="UTF-8" standalone="no"?>
<!DOCTYPE svg PUBLIC "-//W3C//DTD SVG 1.1//EN"
 "http://www.w3.org/Graphics/SVG/1.1/DTD/svg11.dtd">
<!-- Generated by graphviz version 2.42.4 (0)
 -->
<!-- Title: express::WebApp Pages: 1 -->
<!--zoomable 558 -->

<svg id="main" version="1.1" xmlns="http://www.w3.org/2000/svg" xmlns:xlink="http://www.w3.org/1999/xlink" xml:space="preserve" onload="init(evt)">

<style type="text/css"><![CDATA[
.node, .edge {opacity: 0.7;}
.node.selected, .edge.selected {opacity: 1;}
.edge:hover path { stroke: red; }
.edge:hover polygon { stroke: red; fill: red; }
]]></style>

<defs>
  <circle id="rim" cx="0" cy="0" r="7"/>
  <circle id="rim2" cx="0" cy="0" r="3.5"/>
  <g id="zoomPlus">
    <use xlink:href="#rim" fill="#404040"><set attributeName="fill" to="#808080" begin="zoomplus.mouseover" end="zoomplus.mouseout"/></use>
    <path d="M-4,0h8M0,-4v8" fill="none" stroke="white" stroke-width="1.5" pointer-events="none"/>
  </g>
  <g id="zoomMin">
    <use xlink:href="#rim" fill="#404040"><set attributeName="fill" to="#808080" begin="zoomminus.mouseover" end="zoomminus.mouseout"/></use>
    <path d="M-4,0h8" fill="none" stroke="white" stroke-width="1.5" pointer-events="none"/>
  </g>
  <g id="arrowUp" transform="translate(30 24)">
    <use xlink:href="#rim"/>
    <path pointer-events="none" fill="none" stroke="white" stroke-width="1.5" d="M0,-3.0v7 M-2.5,-0.5L0,-3.0L2.5,-0.5"/>
  </g>
  <g id="arrowRight" transform="rotate(90) translate(36 -43)">
    <use xlink:href="#rim"/>
    <path pointer-events="none" fill="none" stroke="white" stroke-width="1.5" d="M0,-3.0v7 M-2.5,-0.5L0,-3.0L2.5,-0.5"/>
  </g>
  <g id="arrowDown" transform="rotate(180) translate(-30 -48)">
    <use xlink:href="#rim"/>
    <path pointer-events="none" fill="none" stroke="white" stroke-width="1.5" d="M0,-3.0v7 M-2.5,-0.5L0,-3.0L2.5,-0.5"/>
  </g>
  <g id="arrowLeft" transform="rotate(270) translate(-36 17)">
    <use xlink:href="#rim"/>
    <path pointer-events="none" fill="none" stroke="white" stroke-width="1.5" d="M0,-3.0v7 M-2.5,-0.5L0,-3.0L2.5,-0.5"/>
  </g>
  <g id="resetDef">
    <use xlink:href="#rim2" fill="#404040"><set attributeName="fill" to="#808080" begin="reset.mouseover" end="reset.mouseout"/></use>
  </g>
</defs>
<script type="application/ecmascript">
var viewWidth = 360;
var viewHeight = 558;
var sectionId = 'dynsection-1';
</script>
<script type="application/ecmascript" xlink:href="svg.min.js"/>
<svg id="graph" class="graph">
<g id="viewport">
<title>express::WebApp</title>
<!-- Node1 -->
<g id="Node000001" class="node">
<title>Node1</title>
<g id="a_Node000001"><a xlink:title=" ">
<polygon fill="#999999" stroke="transparent" points="113,-19 19,-19 19,0 113,0 113,-19"/>
<text text-anchor="start" x="23.5" y="-6.5" font-family="Helvetica,sans-Serif" font-size="10.00">express::WebApp</text>
<polygon fill="none" stroke="#666666" points="19,0 19,-19 113,-19 113,0 19,0"/>
</a>
</g>
</g>
<!-- Node2 -->
<g id="Node000002" class="node">
<title>Node2</title>
<g id="a_Node000002"><a xlink:href="classexpress_1_1Router.html" target="_top" xlink:title=" ">
<polygon fill="white" stroke="transparent" points="109,-80.5 23,-80.5 23,-61.5 109,-61.5 109,-80.5"/>
<text text-anchor="start" x="27.5" y="-68" font-family="Helvetica,sans-Serif" font-size="10.00">express::Router</text>
<polygon fill="none" stroke="#666666" points="23,-61.5 23,-80.5 109,-80.5 109,-61.5 23,-61.5"/>
</a>
</g>
</g>
<!-- Node2&#45;&gt;Node1 -->
<g id="edge1_Node000001_Node000002" class="edge">
<title>Node2&#45;&gt;Node1</title>
<g id="a_edge1_Node000001_Node000002"><a xlink:title=" ">
<path fill="none" stroke="#63b8ff" d="M66,-51.32C66,-40.5 66,-27.4 66,-19.01"/>
<polygon fill="none" stroke="#63b8ff" points="62.5,-51.48 66,-61.48 69.5,-51.48 62.5,-51.48"/>
</a>
</g>
</g>
<!-- Node3 -->
<g id="Node000003" class="node">
<title>Node3</title>
<g id="a_Node000003"><a xlink:title=" ">
<polygon fill="white" stroke="transparent" points="132,-169 0,-169 0,-139 132,-139 132,-169"/>
<text text-anchor="start" x="4.5" y="-157" font-family="Helvetica,sans-Serif" font-size="10.00">std::shared_ptr&lt; express</text>
<text text-anchor="start" x="31.5" y="-146" font-family="Helvetica,sans-Serif" font-size="10.00">::RootRoute &gt;</text>
<polygon fill="none" stroke="#666666" points="0,-139 0,-169 132,-169 132,-139 0,-139"/>
</a>
</g>
</g>
<!-- Node3&#45;&gt;Node2 -->
<g id="edge2_Node000002_Node000003" class="edge">
<title>Node3&#45;&gt;Node2</title>
<g id="a_edge2_Node000002_Node000003"><a xlink:title=" ">
<path fill="none" stroke="#63b8ff" d="M66,-138.89C66,-126.25 66,-107.54 66,-93.11"/>
<polygon fill="none" stroke="#63b8ff" points="66,-92.94 62,-86.94 66,-80.94 70,-86.94 66,-92.94"/>
</a>
</g>
<text text-anchor="start" x="69.5" y="-109.5" font-family="Helvetica,sans-Serif" font-size="10.00" fill="grey">#rootRoute</text>
</g>
<!-- Node4 -->
<g id="Node000004" class="node">
<title>Node4</title>
<g id="a_Node000004"><a xlink:href="classexpress_1_1RootRoute.html" target="_top" xlink:title=" ">
<polygon fill="white" stroke="transparent" points="118,-246.5 14,-246.5 14,-227.5 118,-227.5 118,-246.5"/>
<text text-anchor="start" x="18" y="-234" font-family="Helvetica,sans-Serif" font-size="10.00">express::RootRoute</text>
<polygon fill="none" stroke="#666666" points="14,-227.5 14,-246.5 118,-246.5 118,-227.5 14,-227.5"/>
</a>
</g>
</g>
<!-- Node4&#45;&gt;Node3 -->
<g id="edge3_Node000003_Node000004" class="edge">
<title>Node4&#45;&gt;Node3</title>
<g id="a_edge3_Node000003_Node000004"><a xlink:title=" ">
<path fill="none" stroke="#63b8ff" d="M66,-227.33C66,-216.43 66,-197.21 66,-181.32"/>
<polygon fill="none" stroke="#63b8ff" points="66,-181.01 62,-175.01 66,-169.01 70,-175.01 66,-181.01"/>
</a>
</g>
<text text-anchor="start" x="69" y="-192.5" font-family="Helvetica,sans-Serif" font-size="10.00" fill="grey">+ptr</text>
</g>
<!-- Node5 -->
<g id="Node000005" class="node">
<title>Node5</title>
<g id="a_Node000005"><a xlink:href="classexpress_1_1Route.html" target="_top" xlink:title=" ">
<polygon fill="white" stroke="transparent" points="243,-324 161,-324 161,-305 243,-305 243,-324"/>
<text text-anchor="start" x="165.5" y="-311.5" font-family="Helvetica,sans-Serif" font-size="10.00">express::Route</text>
<polygon fill="none" stroke="#666666" points="161,-305 161,-324 243,-324 243,-305 161,-305"/>
</a>
</g>
</g>
<!-- Node5&#45;&gt;Node4 -->
<g id="edge4_Node000004_Node000005" class="edge">
<title>Node5&#45;&gt;Node4</title>
<g id="a_edge4_Node000004_Node000005"><a xlink:title=" ">
<path fill="none" stroke="#63b8ff" d="M177.57,-299.94C149.7,-284.46 104.95,-259.62 81.49,-246.6"/>
<polygon fill="none" stroke="#63b8ff" points="176.22,-303.19 186.66,-304.99 179.62,-297.07 176.22,-303.19"/>
</a>
</g>
</g>
<!-- Node11 -->
<g id="Node000011" class="node">
<title>Node11</title>
<g id="a_Node000011"><a xlink:title=" ">
<polygon fill="white" stroke="transparent" points="268,-252 136,-252 136,-222 268,-222 268,-252"/>
<text text-anchor="start" x="140.5" y="-240" font-family="Helvetica,sans-Serif" font-size="10.00">std::shared_ptr&lt; express</text>
<text text-anchor="start" x="179" y="-229" font-family="Helvetica,sans-Serif" font-size="10.00">::Route &gt;</text>
<polygon fill="none" stroke="#666666" points="136,-222 136,-252 268,-252 268,-222 136,-222"/>
</a>
</g>
</g>
<!-- Node5&#45;&gt;Node11 -->
<g id="edge11_Node000011_Node000005" class="edge">
<title>Node5&#45;&gt;Node11</title>
<g id="a_edge11_Node000011_Node000005"><a xlink:title=" ">
<path fill="none" stroke="#63b8ff" d="M202,-304.84C202,-294.99 202,-278.45 202,-264.29"/>
<polygon fill="none" stroke="#63b8ff" points="202,-264.21 198,-258.21 202,-252.21 206,-258.21 202,-264.21"/>
</a>
</g>
<text text-anchor="start" x="205" y="-275.5" font-family="Helvetica,sans-Serif" font-size="10.00" fill="grey">+ptr</text>
</g>
<!-- Node6 -->
<g id="Node000006" class="node">
<title>Node6</title>
<g id="a_Node000006"><a xlink:href="structexpress_1_1MountPoint.html" target="_top" xlink:title=" ">
<polygon fill="white" stroke="transparent" points="256,-396 148,-396 148,-377 256,-377 256,-396"/>
<text text-anchor="start" x="152" y="-383.5" font-family="Helvetica,sans-Serif" font-size="10.00">express::MountPoint</text>
<polygon fill="none" stroke="#666666" points="148,-377 148,-396 256,-396 256,-377 148,-377"/>
</a>
</g>
</g>
<!-- Node6&#45;&gt;Node5 -->
<g id="edge5_Node000005_Node000006" class="edge">
<title>Node6&#45;&gt;Node5</title>
<g id="a_edge5_Node000005_Node000006"><a xlink:title=" ">
<path fill="none" stroke="#63b8ff" d="M202,-376.92C202,-366.84 202,-349.78 202,-336.19"/>
<polygon fill="none" stroke="#63b8ff" points="202,-336.15 198,-330.15 202,-324.15 206,-330.15 202,-336.15"/>
</a>
</g>
<text text-anchor="start" x="205.5" y="-347.5" font-family="Helvetica,sans-Serif" font-size="10.00" fill="grey">&#45;mountPoint</text>
</g>
<!-- Node7 -->
<g id="Node000007" class="node">
<title>Node7</title>
<g id="a_Node000007"><a xlink:title=" ">
<polygon fill="white" stroke="transparent" points="231,-483 173,-483 173,-464 231,-464 231,-483"/>
<text text-anchor="start" x="177.5" y="-470.5" font-family="Helvetica,sans-Serif" font-size="10.00">std::string</text>
<polygon fill="none" stroke="#666666" points="173,-464 173,-483 231,-483 231,-464 173,-464"/>
</a>
</g>
</g>
<!-- Node7&#45;&gt;Node6 -->
<g id="edge6_Node000006_Node000007" class="edge">
<title>Node7&#45;&gt;Node6</title>
<g id="a_edge6_Node000006_Node000007"><a xlink:title=" ">
<path fill="none" stroke="#63b8ff" d="M202,-463.72C202,-450.81 202,-426.29 202,-408.55"/>
<polygon fill="none" stroke="#63b8ff" points="202,-408.36 198,-402.36 202,-396.36 206,-402.36 202,-408.36"/>
</a>
</g>
<text text-anchor="start" x="205.5" y="-435" font-family="Helvetica,sans-Serif" font-size="10.00" fill="grey">+method</text>
<text text-anchor="start" x="205.5" y="-420" font-family="Helvetica,sans-Serif" font-size="10.00" fill="grey">+relativeMountPath</text>
</g>
<!-- Node8 -->
<g id="Node000008" class="node">
<title>Node8</title>
<g id="a_Node000008"><a xlink:title=" ">
<polygon fill="white" stroke="transparent" points="250,-550 154,-550 154,-520 250,-520 250,-550"/>
<text text-anchor="start" x="158" y="-538" font-family="Helvetica,sans-Serif" font-size="10.00">std::basic_string&lt;</text>
<text text-anchor="start" x="183.5" y="-527" font-family="Helvetica,sans-Serif" font-size="10.00"> Char &gt;</text>
<polygon fill="none" stroke="#666666" points="154,-520 154,-550 250,-550 250,-520 154,-520"/>
</a>
</g>
</g>
<!-- Node8&#45;&gt;Node7 -->
<g id="edge7_Node000007_Node000008" class="edge">
<title>Node8&#45;&gt;Node7</title>
<g id="a_edge7_Node000007_Node000008"><a xlink:title=" ">
<path fill="none" stroke="#63b8ff" d="M202,-509.79C202,-500.36 202,-490.15 202,-483.16"/>
<polygon fill="none" stroke="#63b8ff" points="198.5,-509.9 202,-519.9 205.5,-509.9 198.5,-509.9"/>
</a>
</g>
</g>
<!-- Node9 -->
<g id="Node000009" class="node">
<title>Node9</title>
<g id="a_Node000009"><a xlink:title=" ">
<polygon fill="white" stroke="transparent" points="321,-86 189,-86 189,-56 321,-56 321,-86"/>
<text text-anchor="start" x="193.5" y="-74" font-family="Helvetica,sans-Serif" font-size="10.00">std::shared_ptr&lt; express</text>
<text text-anchor="start" x="220" y="-63" font-family="Helvetica,sans-Serif" font-size="10.00">::Dispatcher &gt;</text>
<polygon fill="none" stroke="#666666" points="189,-56 189,-86 321,-86 321,-56 189,-56"/>
</a>
</g>
</g>
<!-- Node9&#45;&gt;Node5 -->
<g id="edge8_Node000005_Node000009" class="edge">
<title>Node9&#45;&gt;Node5</title>
<g id="a_edge8_Node000005_Node000009"><a xlink:title=" ">
<path fill="none" stroke="#63b8ff" d="M262.12,-86.03C264.64,-91.52 267.27,-97.93 269,-104 287.02,-167.36 305.18,-192.46 277,-252 267.37,-272.35 247.34,-288.22 230.4,-298.74"/>
<polygon fill="none" stroke="#63b8ff" points="230.23,-298.84 227.05,-305.31 219.85,-304.87 223.03,-298.4 230.23,-298.84"/>
</a>
</g>
<text text-anchor="start" x="294.5" y="-192.5" font-family="Helvetica,sans-Serif" font-size="10.00" fill="grey">&#45;dispatcher</text>
</g>
<!-- Node10 -->
<g id="Node000010" class="node">
<title>Node10</title>
<g id="a_Node000010"><a xlink:href="classexpress_1_1Dispatcher.html" target="_top" xlink:title=" ">
<polygon fill="white" stroke="transparent" points="265,-163.5 159,-163.5 159,-144.5 265,-144.5 265,-163.5"/>
<text text-anchor="start" x="163.5" y="-151" font-family="Helvetica,sans-Serif" font-size="10.00">express::Dispatcher</text>
<polygon fill="none" stroke="#666666" points="159,-144.5 159,-163.5 265,-163.5 265,-144.5 159,-144.5"/>
</a>
</g>
</g>
<!-- Node10&#45;&gt;Node9 -->
<g id="edge9_Node000009_Node000010" class="edge">
<title>Node10&#45;&gt;Node9</title>
<g id="a_edge9_Node000009_Node000010"><a xlink:title=" ">
<path fill="none" stroke="#63b8ff" d="M216.6,-144.33C222.56,-133.1 233.21,-113.04 241.78,-96.9"/>
<polygon fill="none" stroke="#63b8ff" points="241.94,-96.61 241.22,-89.43 247.56,-86.01 248.28,-93.19 241.94,-96.61"/>
</a>
</g>
<text text-anchor="start" x="240" y="-109.5" font-family="Helvetica,sans-Serif" font-size="10.00" fill="grey">+ptr</text>
</g>
<!-- Node11&#45;&gt;Node10 -->
<g id="edge10_Node000010_Node000011" class="edge">
<title>Node11&#45;&gt;Node10</title>
<g id="a_edge10_Node000010_Node000011"><a xlink:title=" ">
<path fill="none" stroke="#63b8ff" d="M203.74,-221.89C205.3,-209.25 207.61,-190.54 209.39,-176.11"/>
<polygon fill="none" stroke="#63b8ff" points="209.43,-175.85 206.19,-169.4 210.9,-163.94 214.13,-170.38 209.43,-175.85"/>
</a>
</g>
<text text-anchor="start" x="210.5" y="-192.5" font-family="Helvetica,sans-Serif" font-size="10.00" fill="grey">#nextRoute</text>
</g>
</g>
</svg>

<g id="navigator" transform="translate(0 0)" fill="#404254">
  <rect fill="#f2f5e9" fill-opacity="0.5" stroke="#606060" stroke-width=".5" x="0" y="0" width="60" height="60"/>
  <use id="zoomplus" xlink:href="#zoomPlus" x="17" y="9" onmousedown="handleZoom(evt,'in')"/>
  <use id="zoomminus" xlink:href="#zoomMin" x="42" y="9" onmousedown="handleZoom(evt,'out')"/>
  <use id="reset" xlink:href="#resetDef" x="30" y="36" onmousedown="handleReset()"/>
   <use id="arrowup" xlink:href="#arrowUp" x="0" y="0" onmousedown="handlePan(0,-1)"/>
  <use id="arrowright" xlink:href="#arrowRight" x="0" y="0" onmousedown="handlePan(1,0)"/>
  <use id="arrowdown" xlink:href="#arrowDown" x="0" y="0" onmousedown="handlePan(0,1)"/>
  <use id="arrowleft" xlink:href="#arrowLeft" x="0" y="0" onmousedown="handlePan(-1,0)"/>
</g>
<svg viewBox="0 0 15 15" width="100%" height="30px" preserveAspectRatio="xMaxYMin meet">
 <g id="arrow_out" transform="scale(0.3 0.3)">
  <a xlink:href="classexpress_1_1WebApp__coll__graph_org.svg" target="_base">
   <rect id="button" ry="5" rx="5" y="6" x="6" height="38" width="38"
        fill="#f2f5e9" fill-opacity="0.5" stroke="#606060" stroke-width="1.0"/>
   <path id="arrow"
     d="M 11.500037,31.436501 C 11.940474,20.09759 22.043105,11.32322 32.158766,21.979434 L 37.068811,17.246167 C 37.068811,17.246167 37.088388,32 37.088388,32 L 22.160133,31.978069 C 22.160133,31.978069 26.997745,27.140456 26.997745,27.140456 C 18.528582,18.264221 13.291696,25.230495 11.500037,31.436501 z"
     style="fill:#404040;"/>
  </a>
 </g>
</svg>

<style type='text/css'>
<![CDATA[
[data-mouse-over-selected='false'] { opacity: 0.7; }
[data-mouse-over-selected='true']  { opacity: 1.0; }
]]>
</style>
<script type="application/ecmascript"><![CDATA[
document.addEventListener('DOMContentLoaded', (event) => {
  highlightEdges();
  highlightAdjacentNodes();
});
]]></script>
</svg>
