<?xml version="1.0" encoding="UTF-8" standalone="no"?>
<!DOCTYPE svg PUBLIC "-//W3C//DTD SVG 1.1//EN"
 "http://www.w3.org/Graphics/SVG/1.1/DTD/svg11.dtd">
<!-- Generated by graphviz version 2.43.0 (0)
 -->
<!-- Title: web::http::client::commands::UpgradeCommand::execute Pages: 1 -->
<svg width="1735pt" height="617pt"
 viewBox="0.00 0.00 1735.00 616.50" xmlns="http://www.w3.org/2000/svg" xmlns:xlink="http://www.w3.org/1999/xlink">
<g id="graph0" class="graph" transform="scale(1 1) rotate(0) translate(4 612.5)">
<title>web::http::client::commands::UpgradeCommand::execute</title>
<!-- Node1 -->
<g id="Node000001" class="node">
<title>Node1</title>
<g id="a_Node000001"><a xlink:title=" ">
<polygon fill="#999999" stroke="#666666" points="168,-430 0,-430 0,-389 168,-389 168,-430"/>
<text text-anchor="start" x="8" y="-418" font-family="Helvetica,sans-Serif" font-size="10.00">web::http::client::</text>
<text text-anchor="start" x="8" y="-407" font-family="Helvetica,sans-Serif" font-size="10.00">commands::UpgradeCommand</text>
<text text-anchor="middle" x="84" y="-396" font-family="Helvetica,sans-Serif" font-size="10.00">::execute</text>
</a>
</g>
</g>
<!-- Node2 -->
<g id="Node000002" class="node">
<title>Node2</title>
<g id="a_Node000002"><a xlink:href="classweb_1_1http_1_1client_1_1Request.html#ab79c3ea6bab8c77dd3c363d8b1ab97df" target="_top" xlink:title=" ">
<polygon fill="white" stroke="#666666" points="349,-424.5 204,-424.5 204,-394.5 349,-394.5 349,-424.5"/>
<text text-anchor="start" x="212" y="-412.5" font-family="Helvetica,sans-Serif" font-size="10.00">web::http::client::</text>
<text text-anchor="middle" x="276.5" y="-401.5" font-family="Helvetica,sans-Serif" font-size="10.00">Request::dispatchUpgrade</text>
</a>
</g>
</g>
<!-- Node1&#45;&gt;Node2 -->
<g id="edge1_Node000001_Node000002" class="edge">
<title>Node1&#45;&gt;Node2</title>
<g id="a_edge1_Node000001_Node000002"><a xlink:title=" ">
<path fill="none" stroke="#63b8ff" d="M168,-409.5C176.48,-409.5 185.1,-409.5 193.57,-409.5"/>
<polygon fill="#63b8ff" stroke="#63b8ff" points="193.81,-413 203.81,-409.5 193.81,-406 193.81,-413"/>
</a>
</g>
</g>
<!-- Node3 -->
<g id="Node000003" class="node">
<title>Node3</title>
<g id="a_Node000003"><a xlink:href="classweb_1_1http_1_1client_1_1SocketContextUpgradeFactory.html#a254e57fe75d644633ca8ab5667e04f60" target="_top" xlink:title=" ">
<polygon fill="white" stroke="#666666" points="549,-532 385,-532 385,-491 549,-491 549,-532"/>
<text text-anchor="start" x="393" y="-520" font-family="Helvetica,sans-Serif" font-size="10.00">web::http::client::</text>
<text text-anchor="start" x="393" y="-509" font-family="Helvetica,sans-Serif" font-size="10.00">SocketContextUpgradeFactory</text>
<text text-anchor="middle" x="467" y="-498" font-family="Helvetica,sans-Serif" font-size="10.00">::checkRefCount</text>
</a>
</g>
</g>
<!-- Node2&#45;&gt;Node3 -->
<g id="edge2_Node000002_Node000003" class="edge">
<title>Node2&#45;&gt;Node3</title>
<g id="a_edge2_Node000002_Node000003"><a xlink:title=" ">
<path fill="none" stroke="#63b8ff" d="M296.85,-424.51C317.73,-440.21 352.4,-464.84 385,-481.5 388.68,-483.38 392.51,-485.2 396.41,-486.96"/>
<polygon fill="#63b8ff" stroke="#63b8ff" points="395.03,-490.18 405.6,-490.94 397.81,-483.75 395.03,-490.18"/>
</a>
</g>
</g>
<!-- Node4 -->
<g id="Node000004" class="node">
<title>Node4</title>
<g id="a_Node000004"><a xlink:href="classweb_1_1http_1_1client_1_1SocketContextUpgradeFactorySelector.html#aa0241fb31bc6bdb675652878fe8734af" target="_top" xlink:title=" ">
<polygon fill="white" stroke="#666666" points="749,-591 585,-591 585,-550 749,-550 749,-591"/>
<text text-anchor="start" x="593" y="-579" font-family="Helvetica,sans-Serif" font-size="10.00">web::http::client::</text>
<text text-anchor="start" x="593" y="-568" font-family="Helvetica,sans-Serif" font-size="10.00">SocketContextUpgradeFactory</text>
<text text-anchor="middle" x="667" y="-557" font-family="Helvetica,sans-Serif" font-size="10.00">Selector::instance</text>
</a>
</g>
</g>
<!-- Node2&#45;&gt;Node4 -->
<g id="edge35_Node000002_Node000004" class="edge">
<title>Node2&#45;&gt;Node4</title>
<g id="a_edge35_Node000002_Node000004"><a xlink:title=" ">
<path fill="none" stroke="#63b8ff" d="M284.71,-424.62C299.2,-453.14 334.81,-514.4 385,-541.5 442.81,-572.71 517.06,-579.2 574.72,-578.29"/>
<polygon fill="#63b8ff" stroke="#63b8ff" points="575,-581.79 584.91,-578.05 574.84,-574.79 575,-581.79"/>
</a>
</g>
</g>
<!-- Node7 -->
<g id="Node000007" class="node">
<title>Node7</title>
<g id="a_Node000007"><a xlink:href="classcore_1_1socket_1_1stream_1_1SocketContext.html#a47b23b8583dfd3880232e748f284f380" target="_top" xlink:title=" ">
<polygon fill="white" stroke="#666666" points="529.5,-472.5 404.5,-472.5 404.5,-442.5 529.5,-442.5 529.5,-472.5"/>
<text text-anchor="start" x="412.5" y="-460.5" font-family="Helvetica,sans-Serif" font-size="10.00">core::socket::stream</text>
<text text-anchor="middle" x="467" y="-449.5" font-family="Helvetica,sans-Serif" font-size="10.00">::SocketContext::close</text>
</a>
</g>
</g>
<!-- Node2&#45;&gt;Node7 -->
<g id="edge6_Node000002_Node000007" class="edge">
<title>Node2&#45;&gt;Node7</title>
<g id="a_edge6_Node000002_Node000007"><a xlink:title=" ">
<path fill="none" stroke="#63b8ff" d="M336.63,-424.56C355.84,-429.45 377.32,-434.92 397.18,-439.98"/>
<polygon fill="#63b8ff" stroke="#63b8ff" points="396.53,-443.42 407.08,-442.5 398.26,-436.64 396.53,-443.42"/>
</a>
</g>
</g>
<!-- Node9 -->
<g id="Node000009" class="node">
<title>Node9</title>
<g id="a_Node000009"><a xlink:href="classweb_1_1http_1_1client_1_1Request.html#a8c95e6589ab2f08f88c72a27de6d1248" target="_top" xlink:title=" ">
<polygon fill="white" stroke="#666666" points="545.5,-424.5 388.5,-424.5 388.5,-394.5 545.5,-394.5 545.5,-424.5"/>
<text text-anchor="start" x="396.5" y="-412.5" font-family="Helvetica,sans-Serif" font-size="10.00">web::http::client::</text>
<text text-anchor="middle" x="467" y="-401.5" font-family="Helvetica,sans-Serif" font-size="10.00">Request::dispatchCompleted</text>
</a>
</g>
</g>
<!-- Node2&#45;&gt;Node9 -->
<g id="edge8_Node000002_Node000009" class="edge">
<title>Node2&#45;&gt;Node9</title>
<g id="a_edge8_Node000002_Node000009"><a xlink:title=" ">
<path fill="none" stroke="#63b8ff" d="M349.03,-409.5C358.54,-409.5 368.38,-409.5 378.12,-409.5"/>
<polygon fill="#63b8ff" stroke="#63b8ff" points="378.23,-413 388.23,-409.5 378.23,-406 378.23,-413"/>
</a>
</g>
</g>
<!-- Node27 -->
<g id="Node000027" class="node">
<title>Node27</title>
<g id="a_Node000027"><a xlink:href="classweb_1_1http_1_1client_1_1Request.html#ac391c717c349cb2c67fc9e54cd64ab5e" target="_top" xlink:title=" ">
<polygon fill="white" stroke="#666666" points="548.5,-357.5 385.5,-357.5 385.5,-327.5 548.5,-327.5 548.5,-357.5"/>
<text text-anchor="start" x="393.5" y="-345.5" font-family="Helvetica,sans-Serif" font-size="10.00">web::http::client::</text>
<text text-anchor="middle" x="467" y="-334.5" font-family="Helvetica,sans-Serif" font-size="10.00">Request::dispatchSendHeader</text>
</a>
</g>
</g>
<!-- Node2&#45;&gt;Node27 -->
<g id="edge28_Node000002_Node000027" class="edge">
<title>Node2&#45;&gt;Node27</title>
<g id="a_edge28_Node000002_Node000027"><a xlink:title=" ">
<path fill="none" stroke="#63b8ff" d="M319.8,-394.46C347.6,-384.58 384.16,-371.59 413.76,-361.07"/>
<polygon fill="#63b8ff" stroke="#63b8ff" points="415.26,-364.25 423.51,-357.6 412.92,-357.65 415.26,-364.25"/>
</a>
</g>
</g>
<!-- Node34 -->
<g id="Node000034" class="node">
<title>Node34</title>
<g id="a_Node000034"><a xlink:href="classweb_1_1http_1_1client_1_1SocketContextUpgradeFactorySelector.html#ab9d337ebb5d81bf02b8b71c17c197491" target="_top" xlink:title=" ">
<polygon fill="white" stroke="#666666" points="549,-204 385,-204 385,-163 549,-163 549,-204"/>
<text text-anchor="start" x="393" y="-192" font-family="Helvetica,sans-Serif" font-size="10.00">web::http::client::</text>
<text text-anchor="start" x="393" y="-181" font-family="Helvetica,sans-Serif" font-size="10.00">SocketContextUpgradeFactory</text>
<text text-anchor="middle" x="467" y="-170" font-family="Helvetica,sans-Serif" font-size="10.00">Selector::select</text>
</a>
</g>
</g>
<!-- Node2&#45;&gt;Node34 -->
<g id="edge36_Node000002_Node000034" class="edge">
<title>Node2&#45;&gt;Node34</title>
<g id="a_edge36_Node000002_Node000034"><a xlink:title=" ">
<path fill="none" stroke="#63b8ff" d="M290.16,-394.32C321.3,-356.99 401.99,-260.25 442.32,-211.89"/>
<polygon fill="#63b8ff" stroke="#63b8ff" points="445.18,-213.93 448.9,-204 439.81,-209.44 445.18,-213.93"/>
</a>
</g>
</g>
<!-- Node40 -->
<g id="Node000040" class="node">
<title>Node40</title>
<g id="a_Node000040"><a xlink:href="classweb_1_1http_1_1client_1_1Request.html#a01d3d0cff8ce735636cceb6e0aaecf97" target="_top" xlink:title=" ">
<polygon fill="white" stroke="#666666" points="517.5,-75.5 416.5,-75.5 416.5,-45.5 517.5,-45.5 517.5,-75.5"/>
<text text-anchor="start" x="424.5" y="-63.5" font-family="Helvetica,sans-Serif" font-size="10.00">web::http::client::</text>
<text text-anchor="middle" x="467" y="-52.5" font-family="Helvetica,sans-Serif" font-size="10.00">Request::set</text>
</a>
</g>
</g>
<!-- Node2&#45;&gt;Node40 -->
<g id="edge42_Node000002_Node000040" class="edge">
<title>Node2&#45;&gt;Node40</title>
<g id="a_edge42_Node000002_Node000040"><a xlink:title=" ">
<path fill="none" stroke="#63b8ff" d="M282.05,-394.34C294.65,-353.58 332.59,-239.02 385,-154.5 401.59,-127.75 425.63,-100.91 443.21,-82.8"/>
<polygon fill="#63b8ff" stroke="#63b8ff" points="445.78,-85.18 450.31,-75.6 440.8,-80.26 445.78,-85.18"/>
</a>
</g>
</g>
<!-- Node3&#45;&gt;Node4 -->
<g id="edge3_Node000003_Node000004" class="edge">
<title>Node3&#45;&gt;Node4</title>
<g id="a_edge3_Node000003_Node000004"><a xlink:title=" ">
<path fill="none" stroke="#63b8ff" d="M536.97,-532.05C553.21,-536.89 570.63,-542.08 587.26,-547.04"/>
<polygon fill="#63b8ff" stroke="#63b8ff" points="586.36,-550.42 596.94,-549.92 588.36,-543.71 586.36,-550.42"/>
</a>
</g>
</g>
<!-- Node5 -->
<g id="Node000005" class="node">
<title>Node5</title>
<g id="a_Node000005"><a xlink:href="classweb_1_1http_1_1SocketContextUpgradeFactorySelector.html#a95a372b68288705669f80c5721eff016" target="_top" xlink:title=" ">
<polygon fill="white" stroke="#666666" points="736.5,-532 597.5,-532 597.5,-491 736.5,-491 736.5,-532"/>
<text text-anchor="start" x="605.5" y="-520" font-family="Helvetica,sans-Serif" font-size="10.00">web::http::SocketContext</text>
<text text-anchor="start" x="605.5" y="-509" font-family="Helvetica,sans-Serif" font-size="10.00">UpgradeFactorySelector</text>
<text text-anchor="middle" x="667" y="-498" font-family="Helvetica,sans-Serif" font-size="10.00">::unload</text>
</a>
</g>
</g>
<!-- Node3&#45;&gt;Node5 -->
<g id="edge4_Node000003_Node000005" class="edge">
<title>Node3&#45;&gt;Node5</title>
<g id="a_edge4_Node000003_Node000005"><a xlink:title=" ">
<path fill="none" stroke="#63b8ff" d="M549.11,-511.5C561.62,-511.5 574.53,-511.5 587,-511.5"/>
<polygon fill="#63b8ff" stroke="#63b8ff" points="587.35,-515 597.35,-511.5 587.35,-508 587.35,-515"/>
</a>
</g>
</g>
<!-- Node6 -->
<g id="Node000006" class="node">
<title>Node6</title>
<g id="a_Node000006"><a xlink:href="classcore_1_1DynamicLoader.html#aea517617ba189573803a8c3a4c5e9575" target="_top" xlink:title=" ">
<polygon fill="white" stroke="#666666" points="931.5,-608.5 811.5,-608.5 811.5,-578.5 931.5,-578.5 931.5,-608.5"/>
<text text-anchor="start" x="819.5" y="-596.5" font-family="Helvetica,sans-Serif" font-size="10.00">core::DynamicLoader</text>
<text text-anchor="middle" x="871.5" y="-585.5" font-family="Helvetica,sans-Serif" font-size="10.00">::dlCloseDelayed</text>
</a>
</g>
</g>
<!-- Node5&#45;&gt;Node6 -->
<g id="edge5_Node000005_Node000006" class="edge">
<title>Node5&#45;&gt;Node6</title>
<g id="a_edge5_Node000005_Node000006"><a xlink:title=" ">
<path fill="none" stroke="#63b8ff" d="M727.9,-532.03C735.11,-534.98 742.29,-538.16 749,-541.5 766,-549.96 767.89,-556.28 785,-564.5 792.9,-568.3 801.44,-571.82 809.95,-575.01"/>
<polygon fill="#63b8ff" stroke="#63b8ff" points="808.91,-578.35 819.51,-578.46 811.29,-571.77 808.91,-578.35"/>
</a>
</g>
</g>
<!-- Node8 -->
<g id="Node000008" class="node">
<title>Node8</title>
<g id="a_Node000008"><a xlink:href="classcore_1_1socket_1_1stream_1_1SocketConnection.html#aed398e81ede92d1d1cfae2597580ad2c" target="_top" xlink:title=" ">
<polygon fill="white" stroke="#666666" points="737.5,-472.5 596.5,-472.5 596.5,-442.5 737.5,-442.5 737.5,-472.5"/>
<text text-anchor="start" x="604.5" y="-460.5" font-family="Helvetica,sans-Serif" font-size="10.00">core::socket::stream</text>
<text text-anchor="middle" x="667" y="-449.5" font-family="Helvetica,sans-Serif" font-size="10.00">::SocketConnection::close</text>
</a>
</g>
</g>
<!-- Node7&#45;&gt;Node8 -->
<g id="edge7_Node000007_Node000008" class="edge">
<title>Node7&#45;&gt;Node8</title>
<g id="a_edge7_Node000007_Node000008"><a xlink:title=" ">
<path fill="none" stroke="#63b8ff" d="M529.56,-457.5C547.46,-457.5 567.27,-457.5 586.13,-457.5"/>
<polygon fill="#63b8ff" stroke="#63b8ff" points="586.18,-461 596.18,-457.5 586.18,-454 586.18,-461"/>
</a>
</g>
</g>
<!-- Node10 -->
<g id="Node000010" class="node">
<title>Node10</title>
<g id="a_Node000010"><a xlink:href="classweb_1_1http_1_1client_1_1SocketContext.html#a4e4e7e42c9d0191282d8731632a7306d" target="_top" xlink:title=" ">
<polygon fill="white" stroke="#666666" points="743,-424.5 591,-424.5 591,-394.5 743,-394.5 743,-424.5"/>
<text text-anchor="start" x="599" y="-412.5" font-family="Helvetica,sans-Serif" font-size="10.00">web::http::client::</text>
<text text-anchor="middle" x="667" y="-401.5" font-family="Helvetica,sans-Serif" font-size="10.00">SocketContext::requestSent</text>
</a>
</g>
</g>
<!-- Node9&#45;&gt;Node10 -->
<g id="edge9_Node000009_Node000010" class="edge">
<title>Node9&#45;&gt;Node10</title>
<g id="a_edge9_Node000009_Node000010"><a xlink:title=" ">
<path fill="none" stroke="#63b8ff" d="M545.69,-409.5C557.17,-409.5 569.05,-409.5 580.67,-409.5"/>
<polygon fill="#63b8ff" stroke="#63b8ff" points="580.81,-413 590.81,-409.5 580.81,-406 580.81,-413"/>
</a>
</g>
</g>
<!-- Node11 -->
<g id="Node000011" class="node">
<title>Node11</title>
<g id="a_Node000011"><a xlink:href="classcore_1_1EventReceiver.html#a2e8d915eca53e827be4f493a63ae058d" target="_top" xlink:title=" ">
<polygon fill="white" stroke="#666666" points="928.5,-376.5 814.5,-376.5 814.5,-346.5 928.5,-346.5 928.5,-376.5"/>
<text text-anchor="start" x="822.5" y="-364.5" font-family="Helvetica,sans-Serif" font-size="10.00">core::EventReceiver</text>
<text text-anchor="middle" x="871.5" y="-353.5" font-family="Helvetica,sans-Serif" font-size="10.00">::atNextTick</text>
</a>
</g>
</g>
<!-- Node10&#45;&gt;Node11 -->
<g id="edge10_Node000010_Node000011" class="edge">
<title>Node10&#45;&gt;Node11</title>
<g id="a_edge10_Node000010_Node000011"><a xlink:title=" ">
<path fill="none" stroke="#63b8ff" d="M731.52,-394.44C754.76,-388.94 781.09,-382.69 804.54,-377.13"/>
<polygon fill="#63b8ff" stroke="#63b8ff" points="805.48,-380.51 814.4,-374.8 803.86,-373.7 805.48,-380.51"/>
</a>
</g>
</g>
<!-- Node20 -->
<g id="Node000020" class="node">
<title>Node20</title>
<g id="a_Node000020"><a xlink:href="classweb_1_1http_1_1client_1_1SocketContext.html#a2ad03593f4288f5d4525a2aa684627c2" target="_top" xlink:title=" ">
<polygon fill="white" stroke="#666666" points="950.5,-522 792.5,-522 792.5,-481 950.5,-481 950.5,-522"/>
<text text-anchor="start" x="800.5" y="-510" font-family="Helvetica,sans-Serif" font-size="10.00">web::http::client::</text>
<text text-anchor="start" x="800.5" y="-499" font-family="Helvetica,sans-Serif" font-size="10.00">SocketContext::dispatchNext</text>
<text text-anchor="middle" x="871.5" y="-488" font-family="Helvetica,sans-Serif" font-size="10.00">Request</text>
</a>
</g>
</g>
<!-- Node10&#45;&gt;Node20 -->
<g id="edge19_Node000010_Node000020" class="edge">
<title>Node10&#45;&gt;Node20</title>
<g id="a_edge19_Node000010_Node000020"><a xlink:title=" ">
<path fill="none" stroke="#63b8ff" d="M729.82,-424.58C736.47,-427.15 743,-430.1 749,-433.5 767.89,-444.19 766.67,-454.87 785,-466.5 790.64,-470.08 796.71,-473.42 802.92,-476.5"/>
<polygon fill="#63b8ff" stroke="#63b8ff" points="801.55,-479.73 812.08,-480.84 804.54,-473.4 801.55,-479.73"/>
</a>
</g>
</g>
<!-- Node23 -->
<g id="Node000023" class="node">
<title>Node23</title>
<g id="a_Node000023"><a xlink:href="classcore_1_1socket_1_1stream_1_1SocketConnection.html#aff2eb3e752c798455541e85054bf91de" target="_top" xlink:title=" ">
<polygon fill="white" stroke="#666666" points="1196,-569.5 994,-569.5 994,-539.5 1196,-539.5 1196,-569.5"/>
<text text-anchor="start" x="1002" y="-557.5" font-family="Helvetica,sans-Serif" font-size="10.00">core::socket::stream</text>
<text text-anchor="middle" x="1095" y="-546.5" font-family="Helvetica,sans-Serif" font-size="10.00">::SocketConnection::getInstanceName</text>
</a>
</g>
</g>
<!-- Node10&#45;&gt;Node23 -->
<g id="edge24_Node000010_Node000023" class="edge">
<title>Node10&#45;&gt;Node23</title>
<g id="a_edge24_Node000010_Node000023"><a xlink:title=" ">
<path fill="none" stroke="#63b8ff" d="M736.89,-424.65C741.26,-427.16 745.36,-430.09 749,-433.5 782.84,-465.24 747.96,-503.55 785,-531.5 815.61,-554.61 908,-559.11 983.84,-558.56"/>
<polygon fill="#63b8ff" stroke="#63b8ff" points="983.98,-562.06 993.95,-558.46 983.91,-555.06 983.98,-562.06"/>
</a>
</g>
</g>
<!-- Node24 -->
<g id="Node000024" class="node">
<title>Node24</title>
<g id="a_Node000024"><a xlink:href="classcore_1_1socket_1_1stream_1_1SocketContext.html#a02f0b93ac0ea376dabd6921c7589a8cf" target="_top" xlink:title=" ">
<polygon fill="white" stroke="#666666" points="1196,-473.5 994,-473.5 994,-443.5 1196,-443.5 1196,-473.5"/>
<text text-anchor="start" x="1002" y="-461.5" font-family="Helvetica,sans-Serif" font-size="10.00">core::socket::stream</text>
<text text-anchor="middle" x="1095" y="-450.5" font-family="Helvetica,sans-Serif" font-size="10.00">::SocketContext::getSocketConnection</text>
</a>
</g>
</g>
<!-- Node10&#45;&gt;Node24 -->
<g id="edge25_Node000010_Node000024" class="edge">
<title>Node10&#45;&gt;Node24</title>
<g id="a_edge25_Node000010_Node000024"><a xlink:title=" ">
<path fill="none" stroke="#63b8ff" d="M734.27,-424.55C750.77,-427.9 768.47,-431.15 785,-433.5 850.61,-442.85 924.58,-448.99 983.7,-452.84"/>
<polygon fill="#63b8ff" stroke="#63b8ff" points="983.61,-456.34 993.81,-453.49 984.05,-449.36 983.61,-456.34"/>
</a>
</g>
</g>
<!-- Node25 -->
<g id="Node000025" class="node">
<title>Node25</title>
<g id="a_Node000025"><a xlink:href="classcore_1_1socket_1_1stream_1_1SocketContext.html#a853d83e3e3cd8dfcce992ab688c0f63e" target="_top" xlink:title=" ">
<polygon fill="white" stroke="#666666" points="958,-424.5 785,-424.5 785,-394.5 958,-394.5 958,-424.5"/>
<text text-anchor="start" x="793" y="-412.5" font-family="Helvetica,sans-Serif" font-size="10.00">core::socket::stream</text>
<text text-anchor="middle" x="871.5" y="-401.5" font-family="Helvetica,sans-Serif" font-size="10.00">::SocketContext::shutdownWrite</text>
</a>
</g>
</g>
<!-- Node10&#45;&gt;Node25 -->
<g id="edge26_Node000010_Node000025" class="edge">
<title>Node10&#45;&gt;Node25</title>
<g id="a_edge26_Node000010_Node000025"><a xlink:title=" ">
<path fill="none" stroke="#63b8ff" d="M743.12,-409.5C753.44,-409.5 764.15,-409.5 774.78,-409.5"/>
<polygon fill="#63b8ff" stroke="#63b8ff" points="774.93,-413 784.93,-409.5 774.92,-406 774.93,-413"/>
</a>
</g>
</g>
<!-- Node12 -->
<g id="Node000012" class="node">
<title>Node12</title>
<g id="a_Node000012"><a xlink:href="classcore_1_1EventReceiver.html#adec275118bd8a68e2b4cb71fa94d79b6" target="_top" xlink:title=" ">
<polygon fill="white" stroke="#666666" points="1152,-365.5 1038,-365.5 1038,-335.5 1152,-335.5 1152,-365.5"/>
<text text-anchor="start" x="1046" y="-353.5" font-family="Helvetica,sans-Serif" font-size="10.00">core::EventReceiver</text>
<text text-anchor="middle" x="1095" y="-342.5" font-family="Helvetica,sans-Serif" font-size="10.00">::EventReceiver</text>
</a>
</g>
</g>
<!-- Node11&#45;&gt;Node12 -->
<g id="edge11_Node000011_Node000012" class="edge">
<title>Node11&#45;&gt;Node12</title>
<g id="a_edge11_Node000011_Node000012"><a xlink:title=" ">
<path fill="none" stroke="#63b8ff" d="M928.68,-358.71C958.87,-357.21 996.26,-355.35 1027.85,-353.79"/>
<polygon fill="#63b8ff" stroke="#63b8ff" points="1028.07,-357.28 1037.88,-353.29 1027.72,-350.29 1028.07,-357.28"/>
</a>
</g>
</g>
<!-- Node16 -->
<g id="Node000016" class="node">
<title>Node16</title>
<g id="a_Node000016"><a xlink:href="classcore_1_1EventReceiver.html#ad353e97a9089b2769e52f8825e4878b1" target="_top" xlink:title=" ">
<polygon fill="white" stroke="#666666" points="1152,-317.5 1038,-317.5 1038,-287.5 1152,-287.5 1152,-317.5"/>
<text text-anchor="start" x="1046" y="-305.5" font-family="Helvetica,sans-Serif" font-size="10.00">core::EventReceiver</text>
<text text-anchor="middle" x="1095" y="-294.5" font-family="Helvetica,sans-Serif" font-size="10.00">::span</text>
</a>
</g>
</g>
<!-- Node11&#45;&gt;Node16 -->
<g id="edge15_Node000011_Node000016" class="edge">
<title>Node11&#45;&gt;Node16</title>
<g id="a_edge15_Node000011_Node000016"><a xlink:title=" ">
<path fill="none" stroke="#63b8ff" d="M926.83,-346.45C937.19,-343.52 947.94,-340.45 958,-337.5 974.05,-332.79 977.86,-330.9 994,-326.5 1004.93,-323.52 1016.57,-320.55 1027.92,-317.76"/>
<polygon fill="#63b8ff" stroke="#63b8ff" points="1028.9,-321.12 1037.78,-315.36 1027.24,-314.32 1028.9,-321.12"/>
</a>
</g>
</g>
<!-- Node13 -->
<g id="Node000013" class="node">
<title>Node13</title>
<g id="a_Node000013"><a xlink:href="classcore_1_1Event.html#a81e45f64219d897d59324c9dd0573936" target="_top" xlink:title=" ">
<polygon fill="white" stroke="#666666" points="1360.5,-360 1255.5,-360 1255.5,-341 1360.5,-341 1360.5,-360"/>
<text text-anchor="middle" x="1308" y="-348" font-family="Helvetica,sans-Serif" font-size="10.00">core::Event::Event</text>
</a>
</g>
</g>
<!-- Node12&#45;&gt;Node13 -->
<g id="edge12_Node000012_Node000013" class="edge">
<title>Node12&#45;&gt;Node13</title>
<g id="a_edge12_Node000012_Node000013"><a xlink:title=" ">
<path fill="none" stroke="#63b8ff" d="M1152.27,-350.5C1180.88,-350.5 1215.72,-350.5 1245.09,-350.5"/>
<polygon fill="#63b8ff" stroke="#63b8ff" points="1245.23,-354 1255.23,-350.5 1245.23,-347 1245.23,-354"/>
</a>
</g>
</g>
<!-- Node14 -->
<g id="Node000014" class="node">
<title>Node14</title>
<g id="a_Node000014"><a xlink:href="classcore_1_1EventLoop.html#a17f1623de6ca2ea2682c63cf502c3c36" target="_top" xlink:title=" ">
<polygon fill="white" stroke="#666666" points="1564,-365.5 1420,-365.5 1420,-335.5 1564,-335.5 1564,-365.5"/>
<text text-anchor="start" x="1428" y="-353.5" font-family="Helvetica,sans-Serif" font-size="10.00">core::EventLoop::getEvent</text>
<text text-anchor="middle" x="1492" y="-342.5" font-family="Helvetica,sans-Serif" font-size="10.00">Multiplexer</text>
</a>
</g>
</g>
<!-- Node13&#45;&gt;Node14 -->
<g id="edge13_Node000013_Node000014" class="edge">
<title>Node13&#45;&gt;Node14</title>
<g id="a_edge13_Node000013_Node000014"><a xlink:title=" ">
<path fill="none" stroke="#63b8ff" d="M1360.67,-350.5C1375.9,-350.5 1392.95,-350.5 1409.57,-350.5"/>
<polygon fill="#63b8ff" stroke="#63b8ff" points="1409.84,-354 1419.84,-350.5 1409.84,-347 1409.84,-354"/>
</a>
</g>
</g>
<!-- Node15 -->
<g id="Node000015" class="node">
<title>Node15</title>
<g id="a_Node000015"><a xlink:href="classcore_1_1EventLoop.html#a413d227511f68c2c9939719bd2590794" target="_top" xlink:title=" ">
<polygon fill="white" stroke="#666666" points="1563,-403 1421,-403 1421,-384 1563,-384 1563,-403"/>
<text text-anchor="middle" x="1492" y="-391" font-family="Helvetica,sans-Serif" font-size="10.00">core::EventLoop::instance</text>
</a>
</g>
</g>
<!-- Node13&#45;&gt;Node15 -->
<g id="edge14_Node000013_Node000015" class="edge">
<title>Node13&#45;&gt;Node15</title>
<g id="a_edge14_Node000013_Node000015"><a xlink:title=" ">
<path fill="none" stroke="#63b8ff" d="M1349.39,-360.04C1376.37,-366.42 1412.05,-374.85 1440.85,-381.65"/>
<polygon fill="#63b8ff" stroke="#63b8ff" points="1440.18,-385.09 1450.72,-383.98 1441.79,-378.28 1440.18,-385.09"/>
</a>
</g>
</g>
<!-- Node17 -->
<g id="Node000017" class="node">
<title>Node17</title>
<g id="a_Node000017"><a xlink:href="classcore_1_1Event.html#a0a68a616082e2b1aece96499a439884f" target="_top" xlink:title=" ">
<polygon fill="white" stroke="#666666" points="1358.5,-312 1257.5,-312 1257.5,-293 1358.5,-293 1358.5,-312"/>
<text text-anchor="middle" x="1308" y="-300" font-family="Helvetica,sans-Serif" font-size="10.00">core::Event::span</text>
</a>
</g>
</g>
<!-- Node16&#45;&gt;Node17 -->
<g id="edge16_Node000016_Node000017" class="edge">
<title>Node16&#45;&gt;Node17</title>
<g id="a_edge16_Node000016_Node000017"><a xlink:title=" ">
<path fill="none" stroke="#63b8ff" d="M1152.27,-302.5C1181.53,-302.5 1217.32,-302.5 1247.1,-302.5"/>
<polygon fill="#63b8ff" stroke="#63b8ff" points="1247.36,-306 1257.36,-302.5 1247.36,-299 1247.36,-306"/>
</a>
</g>
</g>
<!-- Node18 -->
<g id="Node000018" class="node">
<title>Node18</title>
<g id="a_Node000018"><a xlink:href="classcore_1_1EventMultiplexer.html#a61d96e95daaebfe6c3b980a2a847bb21" target="_top" xlink:title=" ">
<polygon fill="white" stroke="#666666" points="1555.5,-317.5 1428.5,-317.5 1428.5,-287.5 1555.5,-287.5 1555.5,-317.5"/>
<text text-anchor="start" x="1436.5" y="-305.5" font-family="Helvetica,sans-Serif" font-size="10.00">core::EventMultiplexer</text>
<text text-anchor="middle" x="1492" y="-294.5" font-family="Helvetica,sans-Serif" font-size="10.00">::span</text>
</a>
</g>
</g>
<!-- Node17&#45;&gt;Node18 -->
<g id="edge17_Node000017_Node000018" class="edge">
<title>Node17&#45;&gt;Node18</title>
<g id="a_edge17_Node000017_Node000018"><a xlink:title=" ">
<path fill="none" stroke="#63b8ff" d="M1358.73,-302.5C1377.1,-302.5 1398.31,-302.5 1418.3,-302.5"/>
<polygon fill="#63b8ff" stroke="#63b8ff" points="1418.3,-306 1428.3,-302.5 1418.3,-299 1418.3,-306"/>
</a>
</g>
</g>
<!-- Node19 -->
<g id="Node000019" class="node">
<title>Node19</title>
<g id="a_Node000019"><a xlink:href="classcore_1_1EventMultiplexer_1_1EventQueue.html#a009075f2f16a78d3bf8d9e3a20226336" target="_top" xlink:title=" ">
<polygon fill="white" stroke="#666666" points="1727,-317.5 1600,-317.5 1600,-287.5 1727,-287.5 1727,-317.5"/>
<text text-anchor="start" x="1608" y="-305.5" font-family="Helvetica,sans-Serif" font-size="10.00">core::EventMultiplexer</text>
<text text-anchor="middle" x="1663.5" y="-294.5" font-family="Helvetica,sans-Serif" font-size="10.00">::EventQueue::insert</text>
</a>
</g>
</g>
<!-- Node18&#45;&gt;Node19 -->
<g id="edge18_Node000018_Node000019" class="edge">
<title>Node18&#45;&gt;Node19</title>
<g id="a_edge18_Node000018_Node000019"><a xlink:title=" ">
<path fill="none" stroke="#63b8ff" d="M1555.63,-302.5C1566.68,-302.5 1578.27,-302.5 1589.57,-302.5"/>
<polygon fill="#63b8ff" stroke="#63b8ff" points="1589.84,-306 1599.84,-302.5 1589.84,-299 1589.84,-306"/>
</a>
</g>
</g>
<!-- Node21 -->
<g id="Node000021" class="node">
<title>Node21</title>
<g id="a_Node000021"><a xlink:href="classweb_1_1http_1_1client_1_1Request.html#acd29baab45638d07c47f544f160f0b95" target="_top" xlink:title=" ">
<polygon fill="white" stroke="#666666" points="1145.5,-521.5 1044.5,-521.5 1044.5,-491.5 1145.5,-491.5 1145.5,-521.5"/>
<text text-anchor="start" x="1052.5" y="-509.5" font-family="Helvetica,sans-Serif" font-size="10.00">web::http::client::</text>
<text text-anchor="middle" x="1095" y="-498.5" font-family="Helvetica,sans-Serif" font-size="10.00">Request::execute</text>
</a>
</g>
</g>
<!-- Node20&#45;&gt;Node21 -->
<g id="edge20_Node000020_Node000021" class="edge">
<title>Node20&#45;&gt;Node21</title>
<g id="a_edge20_Node000020_Node000021"><a xlink:title=" ">
<path fill="none" stroke="#63b8ff" d="M950.59,-503.26C977.96,-503.88 1008.25,-504.56 1033.91,-505.14"/>
<polygon fill="#63b8ff" stroke="#63b8ff" points="1034.16,-508.65 1044.24,-505.38 1034.32,-501.65 1034.16,-508.65"/>
</a>
</g>
</g>
<!-- Node20&#45;&gt;Node23 -->
<g id="edge22_Node000020_Node000023" class="edge">
<title>Node20&#45;&gt;Node23</title>
<g id="a_edge22_Node000020_Node000023"><a xlink:title=" ">
<path fill="none" stroke="#63b8ff" d="M950.59,-520.19C973.59,-525.69 998.66,-531.69 1021.31,-537.11"/>
<polygon fill="#63b8ff" stroke="#63b8ff" points="1020.65,-540.55 1031.19,-539.47 1022.28,-533.74 1020.65,-540.55"/>
</a>
</g>
</g>
<!-- Node20&#45;&gt;Node24 -->
<g id="edge23_Node000020_Node000024" class="edge">
<title>Node20&#45;&gt;Node24</title>
<g id="a_edge23_Node000020_Node000024"><a xlink:title=" ">
<path fill="none" stroke="#63b8ff" d="M950.59,-486.34C968.75,-482.81 988.2,-479.04 1006.73,-475.44"/>
<polygon fill="#63b8ff" stroke="#63b8ff" points="1007.46,-478.86 1016.61,-473.52 1006.13,-471.99 1007.46,-478.86"/>
</a>
</g>
</g>
<!-- Node22 -->
<g id="Node000022" class="node">
<title>Node22</title>
<g id="a_Node000022"><a xlink:href="classweb_1_1http_1_1client_1_1RequestCommand.html#a59632827126d392597cc6cc26565dda0" target="_top" xlink:title=" ">
<polygon fill="white" stroke="#666666" points="1384,-521.5 1232,-521.5 1232,-491.5 1384,-491.5 1384,-521.5"/>
<text text-anchor="start" x="1240" y="-509.5" font-family="Helvetica,sans-Serif" font-size="10.00">web::http::client::</text>
<text text-anchor="middle" x="1308" y="-498.5" font-family="Helvetica,sans-Serif" font-size="10.00">RequestCommand::execute</text>
</a>
</g>
</g>
<!-- Node21&#45;&gt;Node22 -->
<g id="edge21_Node000021_Node000022" class="edge">
<title>Node21&#45;&gt;Node22</title>
<g id="a_edge21_Node000021_Node000022"><a xlink:title=" ">
<path fill="none" stroke="#63b8ff" d="M1145.74,-506.5C1168.43,-506.5 1195.96,-506.5 1221.8,-506.5"/>
<polygon fill="#63b8ff" stroke="#63b8ff" points="1221.98,-510 1231.98,-506.5 1221.98,-503 1221.98,-510"/>
</a>
</g>
</g>
<!-- Node26 -->
<g id="Node000026" class="node">
<title>Node26</title>
<g id="a_Node000026"><a xlink:href="classcore_1_1socket_1_1stream_1_1SocketConnection.html#ab4496d58a35b0fa62a01f8aa78869522" target="_top" xlink:title=" ">
<polygon fill="white" stroke="#666666" points="1176.5,-425 1013.5,-425 1013.5,-384 1176.5,-384 1176.5,-425"/>
<text text-anchor="start" x="1021.5" y="-413" font-family="Helvetica,sans-Serif" font-size="10.00">core::socket::stream</text>
<text text-anchor="start" x="1021.5" y="-402" font-family="Helvetica,sans-Serif" font-size="10.00">::SocketConnection::shutdown</text>
<text text-anchor="middle" x="1095" y="-391" font-family="Helvetica,sans-Serif" font-size="10.00">Write</text>
</a>
</g>
</g>
<!-- Node25&#45;&gt;Node26 -->
<g id="edge27_Node000025_Node000026" class="edge">
<title>Node25&#45;&gt;Node26</title>
<g id="a_edge27_Node000025_Node000026"><a xlink:title=" ">
<path fill="none" stroke="#63b8ff" d="M958.14,-407.57C972.88,-407.23 988.24,-406.89 1003.11,-406.55"/>
<polygon fill="#63b8ff" stroke="#63b8ff" points="1003.39,-410.05 1013.31,-406.32 1003.24,-403.05 1003.39,-410.05"/>
</a>
</g>
</g>
<!-- Node28 -->
<g id="Node000028" class="node">
<title>Node28</title>
<g id="a_Node000028"><a xlink:href="classcore_1_1socket_1_1SocketContext.html#a171ec3bb2190630276ff2e6cb5fd9ccf" target="_top" xlink:title=" ">
<polygon fill="white" stroke="#666666" points="743,-333.5 591,-333.5 591,-303.5 743,-303.5 743,-333.5"/>
<text text-anchor="start" x="599" y="-321.5" font-family="Helvetica,sans-Serif" font-size="10.00">core::socket::SocketContext</text>
<text text-anchor="middle" x="667" y="-310.5" font-family="Helvetica,sans-Serif" font-size="10.00">::sendToPeer</text>
</a>
</g>
</g>
<!-- Node27&#45;&gt;Node28 -->
<g id="edge29_Node000027_Node000028" class="edge">
<title>Node27&#45;&gt;Node28</title>
<g id="a_edge29_Node000027_Node000028"><a xlink:title=" ">
<path fill="none" stroke="#63b8ff" d="M548.53,-332.74C559.16,-331.45 570.09,-330.13 580.79,-328.83"/>
<polygon fill="#63b8ff" stroke="#63b8ff" points="581.46,-332.27 590.97,-327.59 580.62,-325.32 581.46,-332.27"/>
</a>
</g>
</g>
<!-- Node30 -->
<g id="Node000030" class="node">
<title>Node30</title>
<g id="a_Node000030"><a xlink:href="namespacehttputils.html#ad53daa08390598493f3f4ae09164a60a" target="_top" xlink:title=" ">
<polygon fill="white" stroke="#666666" points="729.5,-285 604.5,-285 604.5,-266 729.5,-266 729.5,-285"/>
<text text-anchor="middle" x="667" y="-273" font-family="Helvetica,sans-Serif" font-size="10.00">httputils::to_http_date</text>
</a>
</g>
</g>
<!-- Node27&#45;&gt;Node30 -->
<g id="edge31_Node000027_Node000030" class="edge">
<title>Node27&#45;&gt;Node30</title>
<g id="a_edge31_Node000027_Node000030"><a xlink:title=" ">
<path fill="none" stroke="#63b8ff" d="M500.76,-327.42C523.94,-317.16 555.94,-303.81 585,-294.5 592.82,-292 601.17,-289.67 609.42,-287.56"/>
<polygon fill="#63b8ff" stroke="#63b8ff" points="610.52,-290.89 619.39,-285.1 608.84,-284.09 610.52,-290.89"/>
</a>
</g>
</g>
<!-- Node33 -->
<g id="Node000033" class="node">
<title>Node33</title>
<g id="a_Node000033"><a xlink:href="namespacehttputils.html#a386473920285bded181a38ffac8fe833" target="_top" xlink:title=" ">
<polygon fill="white" stroke="#666666" points="725,-371 609,-371 609,-352 725,-352 725,-371"/>
<text text-anchor="middle" x="667" y="-359" font-family="Helvetica,sans-Serif" font-size="10.00">httputils::url_encode</text>
</a>
</g>
</g>
<!-- Node27&#45;&gt;Node33 -->
<g id="edge34_Node000027_Node000033" class="edge">
<title>Node27&#45;&gt;Node33</title>
<g id="a_edge34_Node000027_Node000033"><a xlink:title=" ">
<path fill="none" stroke="#63b8ff" d="M548.53,-350.23C565.13,-351.82 582.45,-353.48 598.53,-355.03"/>
<polygon fill="#63b8ff" stroke="#63b8ff" points="598.61,-358.55 608.9,-356.02 599.28,-351.58 598.61,-358.55"/>
</a>
</g>
</g>
<!-- Node29 -->
<g id="Node000029" class="node">
<title>Node29</title>
<g id="a_Node000029"><a xlink:href="classcore_1_1socket_1_1SocketContext.html#a22f19b6279af079ad97b71eb08427b06" target="_top" xlink:title=" ">
<polygon fill="white" stroke="#666666" points="947.5,-328.5 795.5,-328.5 795.5,-298.5 947.5,-298.5 947.5,-328.5"/>
<text text-anchor="start" x="803.5" y="-316.5" font-family="Helvetica,sans-Serif" font-size="10.00">core::socket::SocketContext</text>
<text text-anchor="middle" x="871.5" y="-305.5" font-family="Helvetica,sans-Serif" font-size="10.00">::sendToPeer</text>
</a>
</g>
</g>
<!-- Node28&#45;&gt;Node29 -->
<g id="edge30_Node000028_Node000029" class="edge">
<title>Node28&#45;&gt;Node29</title>
<g id="a_edge30_Node000028_Node000029"><a xlink:title=" ">
<path fill="none" stroke="#63b8ff" d="M743.12,-316.65C756.79,-316.31 771.15,-315.95 785.1,-315.61"/>
<polygon fill="#63b8ff" stroke="#63b8ff" points="785.26,-319.11 795.17,-315.36 785.08,-312.11 785.26,-319.11"/>
</a>
</g>
</g>
<!-- Node31 -->
<g id="Node000031" class="node">
<title>Node31</title>
<g id="a_Node000031"><a xlink:href="namespaceutils_1_1system.html#a629a1ebec50192eff5587cdd5d51bf20" target="_top" xlink:title=" ">
<polygon fill="white" stroke="#666666" points="933.5,-243 809.5,-243 809.5,-224 933.5,-224 933.5,-243"/>
<text text-anchor="middle" x="871.5" y="-231" font-family="Helvetica,sans-Serif" font-size="10.00">utils::system::gmtime</text>
</a>
</g>
</g>
<!-- Node30&#45;&gt;Node31 -->
<g id="edge32_Node000030_Node000031" class="edge">
<title>Node30&#45;&gt;Node31</title>
<g id="a_edge32_Node000030_Node000031"><a xlink:title=" ">
<path fill="none" stroke="#63b8ff" d="M713.95,-265.97C743.75,-259.79 782.77,-251.7 814.39,-245.14"/>
<polygon fill="#63b8ff" stroke="#63b8ff" points="815.3,-248.52 824.38,-243.07 813.88,-241.67 815.3,-248.52"/>
</a>
</g>
</g>
<!-- Node32 -->
<g id="Node000032" class="node">
<title>Node32</title>
<g id="a_Node000032"><a xlink:href="namespaceutils_1_1system.html#aa36252afed0ca4903feb511649270d1c" target="_top" xlink:title=" ">
<polygon fill="white" stroke="#666666" points="925.5,-280 817.5,-280 817.5,-261 925.5,-261 925.5,-280"/>
<text text-anchor="middle" x="871.5" y="-268" font-family="Helvetica,sans-Serif" font-size="10.00">utils::system::time</text>
</a>
</g>
</g>
<!-- Node30&#45;&gt;Node32 -->
<g id="edge33_Node000030_Node000032" class="edge">
<title>Node30&#45;&gt;Node32</title>
<g id="a_edge33_Node000030_Node000032"><a xlink:title=" ">
<path fill="none" stroke="#63b8ff" d="M729.58,-273.98C754.23,-273.37 782.6,-272.67 807.4,-272.06"/>
<polygon fill="#63b8ff" stroke="#63b8ff" points="807.51,-275.56 817.42,-271.81 807.34,-268.56 807.51,-275.56"/>
</a>
</g>
</g>
<!-- Node35 -->
<g id="Node000035" class="node">
<title>Node35</title>
<g id="a_Node000035"><a xlink:href="classweb_1_1http_1_1client_1_1SocketContextUpgradeFactory.html#a54d5a02915673a747309fce295e225cd" target="_top" xlink:title=" ">
<polygon fill="white" stroke="#666666" points="749,-137 585,-137 585,-96 749,-96 749,-137"/>
<text text-anchor="start" x="593" y="-125" font-family="Helvetica,sans-Serif" font-size="10.00">web::http::client::</text>
<text text-anchor="start" x="593" y="-114" font-family="Helvetica,sans-Serif" font-size="10.00">SocketContextUpgradeFactory</text>
<text text-anchor="middle" x="667" y="-103" font-family="Helvetica,sans-Serif" font-size="10.00">::prepare</text>
</a>
</g>
</g>
<!-- Node34&#45;&gt;Node35 -->
<g id="edge37_Node000034_Node000035" class="edge">
<title>Node34&#45;&gt;Node35</title>
<g id="a_edge37_Node000034_Node000035"><a xlink:title=" ">
<path fill="none" stroke="#63b8ff" d="M528.75,-162.94C549.94,-155.77 573.9,-147.67 595.79,-140.26"/>
<polygon fill="#63b8ff" stroke="#63b8ff" points="597.01,-143.54 605.36,-137.02 594.77,-136.91 597.01,-143.54"/>
</a>
</g>
</g>
<!-- Node36 -->
<g id="Node000036" class="node">
<title>Node36</title>
<g id="a_Node000036"><a xlink:href="classweb_1_1http_1_1SocketContextUpgradeFactorySelector.html#a8273a7213dee225405b4d107f4c5d072" target="_top" xlink:title=" ">
<polygon fill="white" stroke="#666666" points="736.5,-78 597.5,-78 597.5,-37 736.5,-37 736.5,-78"/>
<text text-anchor="start" x="605.5" y="-66" font-family="Helvetica,sans-Serif" font-size="10.00">web::http::SocketContext</text>
<text text-anchor="start" x="605.5" y="-55" font-family="Helvetica,sans-Serif" font-size="10.00">UpgradeFactorySelector</text>
<text text-anchor="middle" x="667" y="-44" font-family="Helvetica,sans-Serif" font-size="10.00">::select</text>
</a>
</g>
</g>
<!-- Node34&#45;&gt;Node36 -->
<g id="edge38_Node000034_Node000036" class="edge">
<title>Node34&#45;&gt;Node36</title>
<g id="a_edge38_Node000034_Node000036"><a xlink:title=" ">
<path fill="none" stroke="#63b8ff" d="M488.81,-162.74C511.03,-141.5 548.08,-108.68 585,-87.5 588.18,-85.68 591.49,-83.93 594.88,-82.26"/>
<polygon fill="#63b8ff" stroke="#63b8ff" points="596.4,-85.41 603.98,-78.01 593.44,-79.06 596.4,-85.41"/>
</a>
</g>
</g>
<!-- Node37 -->
<g id="Node000037" class="node">
<title>Node37</title>
<g id="a_Node000037"><a xlink:href="namespacehttputils.html#a9e46abe5c20380871f3884c9176a424d" target="_top" xlink:title=" ">
<polygon fill="white" stroke="#666666" points="718,-248 616,-248 616,-229 718,-229 718,-248"/>
<text text-anchor="middle" x="667" y="-236" font-family="Helvetica,sans-Serif" font-size="10.00">httputils::str_split</text>
</a>
</g>
</g>
<!-- Node34&#45;&gt;Node37 -->
<g id="edge39_Node000034_Node000037" class="edge">
<title>Node34&#45;&gt;Node37</title>
<g id="a_edge39_Node000034_Node000037"><a xlink:title=" ">
<path fill="none" stroke="#63b8ff" d="M529.33,-204.01C547.19,-209.68 566.79,-215.61 585,-220.5 592.91,-222.63 601.31,-224.7 609.58,-226.63"/>
<polygon fill="#63b8ff" stroke="#63b8ff" points="609.04,-230.1 619.57,-228.91 610.6,-223.27 609.04,-230.1"/>
</a>
</g>
</g>
<!-- Node38 -->
<g id="Node000038" class="node">
<title>Node38</title>
<g id="a_Node000038"><a xlink:href="namespacehttputils.html#aaa1e55d83548ea4ebf224d695f73c874" target="_top" xlink:title=" ">
<polygon fill="white" stroke="#666666" points="722.5,-211 611.5,-211 611.5,-192 722.5,-192 722.5,-211"/>
<text text-anchor="middle" x="667" y="-199" font-family="Helvetica,sans-Serif" font-size="10.00">httputils::str_trimm</text>
</a>
</g>
</g>
<!-- Node34&#45;&gt;Node38 -->
<g id="edge40_Node000034_Node000038" class="edge">
<title>Node34&#45;&gt;Node38</title>
<g id="a_edge40_Node000034_Node000038"><a xlink:title=" ">
<path fill="none" stroke="#63b8ff" d="M549.11,-190.87C566.44,-192.45 584.53,-194.09 601.16,-195.61"/>
<polygon fill="#63b8ff" stroke="#63b8ff" points="601.03,-199.11 611.3,-196.53 601.66,-192.14 601.03,-199.11"/>
</a>
</g>
</g>
<!-- Node39 -->
<g id="Node000039" class="node">
<title>Node39</title>
<g id="a_Node000039"><a xlink:href="namespacehttputils.html#a4dd60a8e2472042c70e00dec22ebf927" target="_top" xlink:title=" ">
<polygon fill="white" stroke="#666666" points="719.5,-174 614.5,-174 614.5,-155 719.5,-155 719.5,-174"/>
<text text-anchor="middle" x="667" y="-162" font-family="Helvetica,sans-Serif" font-size="10.00">httputils::to_lower</text>
</a>
</g>
</g>
<!-- Node34&#45;&gt;Node39 -->
<g id="edge41_Node000034_Node000039" class="edge">
<title>Node34&#45;&gt;Node39</title>
<g id="a_edge41_Node000034_Node000039"><a xlink:title=" ">
<path fill="none" stroke="#63b8ff" d="M549.11,-175.72C567.5,-173.95 586.74,-172.11 604.18,-170.43"/>
<polygon fill="#63b8ff" stroke="#63b8ff" points="604.6,-173.91 614.22,-169.47 603.93,-166.94 604.6,-173.91"/>
</a>
</g>
</g>
<!-- Node41 -->
<g id="Node000041" class="node">
<title>Node41</title>
<g id="a_Node000041"><a xlink:href="namespacehttputils.html#af566d4f31d97a3a84b373a94e6cf9594" target="_top" xlink:title=" ">
<polygon fill="white" stroke="#666666" points="726,-19 608,-19 608,0 726,0 726,-19"/>
<text text-anchor="middle" x="667" y="-7" font-family="Helvetica,sans-Serif" font-size="10.00">httputils::ci_contains</text>
</a>
</g>
</g>
<!-- Node40&#45;&gt;Node41 -->
<g id="edge43_Node000040_Node000041" class="edge">
<title>Node40&#45;&gt;Node41</title>
<g id="a_edge43_Node000040_Node000041"><a xlink:title=" ">
<path fill="none" stroke="#63b8ff" d="M517.65,-45.83C538.4,-39.87 562.79,-33.09 585,-27.5 593.42,-25.38 602.37,-23.26 611.13,-21.25"/>
<polygon fill="#63b8ff" stroke="#63b8ff" points="611.92,-24.66 620.91,-19.05 610.38,-17.84 611.92,-24.66"/>
</a>
</g>
</g>
</g>
</svg>
