<?xml version="1.0" encoding="UTF-8" standalone="no"?>
<!DOCTYPE svg PUBLIC "-//W3C//DTD SVG 1.1//EN"
 "http://www.w3.org/Graphics/SVG/1.1/DTD/svg11.dtd">
<!-- Generated by graphviz version 2.42.4 (0)
 -->
<!-- Title: apps::towercalculator::TowerCalculator::onEvent Pages: 1 -->
<svg width="459pt" height="60pt"
 viewBox="0.00 0.00 459.00 60.00" xmlns="http://www.w3.org/2000/svg" xmlns:xlink="http://www.w3.org/1999/xlink">
<g id="graph0" class="graph" transform="scale(1 1) rotate(0) translate(4 56)">
<title>apps::towercalculator::TowerCalculator::onEvent</title>
<!-- Node1 -->
<g id="Node000001" class="node">
<title>Node1</title>
<g id="a_Node000001"><a xlink:title=" ">
<polygon fill="#999999" stroke="#666666" points="135,-30 0,-30 0,0 135,0 135,-30"/>
<text text-anchor="start" x="8" y="-18" font-family="Helvetica,sans-Serif" font-size="10.00">apps::towercalculator</text>
<text text-anchor="middle" x="67.5" y="-7" font-family="Helvetica,sans-Serif" font-size="10.00">::TowerCalculator::onEvent</text>
</a>
</g>
</g>
<!-- Node2 -->
<g id="Node000002" class="node">
<title>Node2</title>
<g id="a_Node000002"><a xlink:href="classapps_1_1towercalculator_1_1TowerCalculator.html#abac7d452c2ef55d534ce7dfe1450d897" target="_top" xlink:title=" ">
<polygon fill="white" stroke="#666666" points="309,-52 171,-52 171,-22 309,-22 309,-52"/>
<text text-anchor="start" x="179" y="-40" font-family="Helvetica,sans-Serif" font-size="10.00">apps::towercalculator</text>
<text text-anchor="middle" x="240" y="-29" font-family="Helvetica,sans-Serif" font-size="10.00">::TowerCalculator::calculate</text>
</a>
</g>
</g>
<!-- Node1&#45;&gt;Node2 -->
<g id="edge1_Node000001_Node000002" class="edge">
<title>Node1&#45;&gt;Node2</title>
<g id="a_edge1_Node000001_Node000002"><a xlink:title=" ">
<path fill="none" stroke="#63b8ff" d="M135.4,-23.63C143.78,-24.71 152.41,-25.83 160.94,-26.93"/>
<polygon fill="#63b8ff" stroke="#63b8ff" points="160.53,-30.4 170.9,-28.21 161.43,-23.46 160.53,-30.4"/>
</a>
</g>
</g>
<!-- Node3 -->
<g id="Node000003" class="node">
<title>Node3</title>
<g id="a_Node000003"><a xlink:href="classcore_1_1EventReceiver.html#ad353e97a9089b2769e52f8825e4878b1" target="_top" xlink:title=" ">
<polygon fill="white" stroke="#666666" points="451,-30 345,-30 345,0 451,0 451,-30"/>
<text text-anchor="start" x="353" y="-18" font-family="Helvetica,sans-Serif" font-size="10.00">core::EventReceiver</text>
<text text-anchor="middle" x="398" y="-7" font-family="Helvetica,sans-Serif" font-size="10.00">::span</text>
</a>
</g>
</g>
<!-- Node1&#45;&gt;Node3 -->
<g id="edge3_Node000001_Node000003" class="edge">
<title>Node1&#45;&gt;Node3</title>
<g id="a_edge3_Node000001_Node000003"><a xlink:title=" ">
<path fill="none" stroke="#63b8ff" d="M135.21,-13.51C147.13,-13.3 159.43,-13.11 171,-13 232.33,-12.4 247.67,-12.3 309,-13 317.35,-13.09 326.14,-13.24 334.81,-13.41"/>
<polygon fill="#63b8ff" stroke="#63b8ff" points="334.82,-16.91 344.89,-13.62 334.96,-9.91 334.82,-16.91"/>
</a>
</g>
</g>
<!-- Node2&#45;&gt;Node3 -->
<g id="edge2_Node000002_Node000003" class="edge">
<title>Node2&#45;&gt;Node3</title>
<g id="a_edge2_Node000002_Node000003"><a xlink:title=" ">
<path fill="none" stroke="#63b8ff" d="M309.42,-27.35C317.8,-26.17 326.34,-24.97 334.62,-23.8"/>
<polygon fill="#63b8ff" stroke="#63b8ff" points="335.17,-27.25 344.58,-22.39 334.19,-20.32 335.17,-27.25"/>
</a>
</g>
</g>
</g>
</svg>
