<?xml version="1.0" encoding="UTF-8" standalone="no"?>
<!DOCTYPE svg PUBLIC "-//W3C//DTD SVG 1.1//EN"
 "http://www.w3.org/Graphics/SVG/1.1/DTD/svg11.dtd">
<!-- Generated by graphviz version 2.43.0 (0)
 -->
<!-- Title: database::mariadb::MariaDBCommand::commandName Pages: 1 -->
<svg width="430pt" height="226pt"
 viewBox="0.00 0.00 430.00 226.00" xmlns="http://www.w3.org/2000/svg" xmlns:xlink="http://www.w3.org/1999/xlink">
<g id="graph0" class="graph" transform="scale(1 1) rotate(0) translate(4 222)">
<title>database::mariadb::MariaDBCommand::commandName</title>
<!-- Node1 -->
<g id="Node000001" class="node">
<title>Node1</title>
<g id="a_Node000001"><a xlink:title=" ">
<polygon fill="#999999" stroke="#666666" points="422,-123.5 229,-123.5 229,-93.5 422,-93.5 422,-123.5"/>
<text text-anchor="start" x="237" y="-111.5" font-family="Helvetica,sans-Serif" font-size="10.00">database::mariadb::</text>
<text text-anchor="middle" x="325.5" y="-100.5" font-family="Helvetica,sans-Serif" font-size="10.00">MariaDBCommand::commandName</text>
</a>
</g>
</g>
<!-- Node2 -->
<g id="Node000002" class="node">
<title>Node2</title>
<g id="a_Node000002"><a xlink:href="classdatabase_1_1mariadb_1_1commands_1_1async_1_1_maria_d_b_auto_commit_command.html#a04764c7fdd8bea0d1b484ba3b502d234" target="_top" xlink:title=" ">
<polygon fill="white" stroke="#666666" points="186,-218 7,-218 7,-177 186,-177 186,-218"/>
<text text-anchor="start" x="15" y="-206" font-family="Helvetica,sans-Serif" font-size="10.00">database::mariadb::</text>
<text text-anchor="start" x="15" y="-195" font-family="Helvetica,sans-Serif" font-size="10.00">commands::async::MariaDBAuto</text>
<text text-anchor="middle" x="96.5" y="-184" font-family="Helvetica,sans-Serif" font-size="10.00">CommitCommand::commandInfo</text>
</a>
</g>
</g>
<!-- Node1&#45;&gt;Node2 -->
<g id="edge1_Node000001_Node000002" class="edge">
<title>Node1&#45;&gt;Node2</title>
<g id="a_edge1_Node000001_Node000002"><a xlink:title=" ">
<path fill="none" stroke="#63b8ff" d="M285.34,-128.03C259.49,-140.51 224.67,-156.53 193,-168.5 185.3,-171.41 177.17,-174.24 169.04,-176.92"/>
<polygon fill="#63b8ff" stroke="#63b8ff" points="286.97,-131.13 294.43,-123.61 283.91,-124.84 286.97,-131.13"/>
</a>
</g>
</g>
<!-- Node3 -->
<g id="Node000003" class="node">
<title>Node3</title>
<g id="a_Node000003"><a xlink:href="classdatabase_1_1mariadb_1_1commands_1_1async_1_1_maria_d_b_connect_command.html#af0357d2bf8e15d50620504e469f10b03" target="_top" xlink:title=" ">
<polygon fill="white" stroke="#666666" points="193,-159 0,-159 0,-118 193,-118 193,-159"/>
<text text-anchor="start" x="8" y="-147" font-family="Helvetica,sans-Serif" font-size="10.00">database::mariadb::</text>
<text text-anchor="start" x="8" y="-136" font-family="Helvetica,sans-Serif" font-size="10.00">commands::async::MariaDBConnect</text>
<text text-anchor="middle" x="96.5" y="-125" font-family="Helvetica,sans-Serif" font-size="10.00">Command::commandInfo</text>
</a>
</g>
</g>
<!-- Node1&#45;&gt;Node3 -->
<g id="edge2_Node000001_Node000003" class="edge">
<title>Node1&#45;&gt;Node3</title>
<g id="a_edge2_Node000001_Node000003"><a xlink:title=" ">
<path fill="none" stroke="#63b8ff" d="M218.82,-122.47C210.21,-123.6 201.53,-124.75 193,-125.88"/>
<polygon fill="#63b8ff" stroke="#63b8ff" points="219.43,-125.92 228.89,-121.14 218.52,-118.98 219.43,-125.92"/>
</a>
</g>
</g>
<!-- Node4 -->
<g id="Node000004" class="node">
<title>Node4</title>
<g id="a_Node000004"><a xlink:href="classdatabase_1_1mariadb_1_1commands_1_1async_1_1_maria_d_b_exec_command.html#a10b02906a0038aff6c2578475b2fb862" target="_top" xlink:title=" ">
<polygon fill="white" stroke="#666666" points="184.5,-100 8.5,-100 8.5,-59 184.5,-59 184.5,-100"/>
<text text-anchor="start" x="16.5" y="-88" font-family="Helvetica,sans-Serif" font-size="10.00">database::mariadb::</text>
<text text-anchor="start" x="16.5" y="-77" font-family="Helvetica,sans-Serif" font-size="10.00">commands::async::MariaDBExec</text>
<text text-anchor="middle" x="96.5" y="-66" font-family="Helvetica,sans-Serif" font-size="10.00">Command::commandInfo</text>
</a>
</g>
</g>
<!-- Node1&#45;&gt;Node4 -->
<g id="edge3_Node000001_Node000004" class="edge">
<title>Node1&#45;&gt;Node4</title>
<g id="a_edge3_Node000001_Node000004"><a xlink:title=" ">
<path fill="none" stroke="#63b8ff" d="M218.87,-95.01C207.43,-93.54 195.88,-92.07 184.69,-90.64"/>
<polygon fill="#63b8ff" stroke="#63b8ff" points="218.53,-98.49 228.89,-96.29 219.41,-91.55 218.53,-98.49"/>
</a>
</g>
</g>
<!-- Node5 -->
<g id="Node000005" class="node">
<title>Node5</title>
<g id="a_Node000005"><a xlink:href="classdatabase_1_1mariadb_1_1commands_1_1async_1_1_maria_d_b_query_command.html#a5fa9815f1de302a00e92b3ebea7c4ccd" target="_top" xlink:title=" ">
<polygon fill="white" stroke="#666666" points="187.5,-41 5.5,-41 5.5,0 187.5,0 187.5,-41"/>
<text text-anchor="start" x="13.5" y="-29" font-family="Helvetica,sans-Serif" font-size="10.00">database::mariadb::</text>
<text text-anchor="start" x="13.5" y="-18" font-family="Helvetica,sans-Serif" font-size="10.00">commands::async::MariaDBQuery</text>
<text text-anchor="middle" x="96.5" y="-7" font-family="Helvetica,sans-Serif" font-size="10.00">Command::commandInfo</text>
</a>
</g>
</g>
<!-- Node1&#45;&gt;Node5 -->
<g id="edge4_Node000001_Node000005" class="edge">
<title>Node1&#45;&gt;Node5</title>
<g id="a_edge4_Node000001_Node000005"><a xlink:title=" ">
<path fill="none" stroke="#63b8ff" d="M283.94,-89.21C258.19,-77.32 223.99,-62.16 193,-50.5 184.38,-47.26 175.23,-44.07 166.15,-41.06"/>
<polygon fill="#63b8ff" stroke="#63b8ff" points="282.48,-92.39 293.02,-93.43 285.43,-86.05 282.48,-92.39"/>
</a>
</g>
</g>
</g>
</svg>
