<?xml version="1.0" encoding="UTF-8" standalone="no"?>
<!DOCTYPE svg PUBLIC "-//W3C//DTD SVG 1.1//EN"
 "http://www.w3.org/Graphics/SVG/1.1/DTD/svg11.dtd">
<!-- Generated by graphviz version 2.43.0 (0)
 -->
<!-- Title: iot::mqtt::client::Mqtt::_onConnack Pages: 1 -->
<svg width="1351pt" height="692pt"
 viewBox="0.00 0.00 1351.00 691.50" xmlns="http://www.w3.org/2000/svg" xmlns:xlink="http://www.w3.org/1999/xlink">
<g id="graph0" class="graph" transform="scale(1 1) rotate(0) translate(4 687.5)">
<title>iot::mqtt::client::Mqtt::_onConnack</title>
<!-- Node1 -->
<g id="Node000001" class="node">
<title>Node1</title>
<g id="a_Node000001"><a xlink:title=" ">
<polygon fill="#999999" stroke="#666666" points="97,-507 0,-507 0,-477 97,-477 97,-507"/>
<text text-anchor="start" x="8" y="-495" font-family="Helvetica,sans-Serif" font-size="10.00">iot::mqtt::client::</text>
<text text-anchor="middle" x="48.5" y="-484" font-family="Helvetica,sans-Serif" font-size="10.00">Mqtt::_onConnack</text>
</a>
</g>
</g>
<!-- Node2 -->
<g id="Node000002" class="node">
<title>Node2</title>
<g id="a_Node000002"><a xlink:href="classiot_1_1mqtt_1_1MqttContext.html#ada10a6f2fcf6953ed62d93bdb5907cd1" target="_top" xlink:title=" ">
<polygon fill="white" stroke="#666666" points="282,-683.5 148,-683.5 148,-664.5 282,-664.5 282,-683.5"/>
<text text-anchor="middle" x="215" y="-671.5" font-family="Helvetica,sans-Serif" font-size="10.00">iot::mqtt::MqttContext::end</text>
</a>
</g>
</g>
<!-- Node1&#45;&gt;Node2 -->
<g id="edge1_Node000001_Node000002" class="edge">
<title>Node1&#45;&gt;Node2</title>
<g id="a_edge1_Node000001_Node000002"><a xlink:title=" ">
<path fill="none" stroke="#63b8ff" d="M52.78,-507.34C60.58,-539.91 83.42,-616.21 133,-655 135.29,-656.79 137.73,-658.42 140.27,-659.9"/>
<polygon fill="#63b8ff" stroke="#63b8ff" points="138.74,-663.05 149.25,-664.38 141.86,-656.78 138.74,-663.05"/>
</a>
</g>
</g>
<!-- Node3 -->
<g id="Node000003" class="node">
<title>Node3</title>
<g id="a_Node000003"><a xlink:href="classiot_1_1mqtt_1_1packets_1_1Connack.html#a9d5a9abd54366d63606e6aef01a97db2" target="_top" xlink:title=" ">
<polygon fill="white" stroke="#666666" points="297,-646 133,-646 133,-616 297,-616 297,-646"/>
<text text-anchor="start" x="141" y="-634" font-family="Helvetica,sans-Serif" font-size="10.00">iot::mqtt::packets</text>
<text text-anchor="middle" x="215" y="-623" font-family="Helvetica,sans-Serif" font-size="10.00">::Connack::getAcknowledgeFlags</text>
</a>
</g>
</g>
<!-- Node1&#45;&gt;Node3 -->
<g id="edge2_Node000001_Node000003" class="edge">
<title>Node1&#45;&gt;Node3</title>
<g id="a_edge2_Node000001_Node000003"><a xlink:title=" ">
<path fill="none" stroke="#63b8ff" d="M56.41,-507.15C68.43,-531.8 95.53,-580.51 133,-607 135.15,-608.52 137.39,-609.94 139.71,-611.28"/>
<polygon fill="#63b8ff" stroke="#63b8ff" points="138.46,-614.57 148.96,-616 141.64,-608.33 138.46,-614.57"/>
</a>
</g>
</g>
<!-- Node4 -->
<g id="Node000004" class="node">
<title>Node4</title>
<g id="a_Node000004"><a xlink:href="classiot_1_1mqtt_1_1packets_1_1Connack.html#a06bb934f481d45386d9e9e73e33b68e5" target="_top" xlink:title=" ">
<polygon fill="white" stroke="#666666" points="282,-598 148,-598 148,-568 282,-568 282,-598"/>
<text text-anchor="start" x="156" y="-586" font-family="Helvetica,sans-Serif" font-size="10.00">iot::mqtt::packets</text>
<text text-anchor="middle" x="215" y="-575" font-family="Helvetica,sans-Serif" font-size="10.00">::Connack::getReturnCode</text>
</a>
</g>
</g>
<!-- Node1&#45;&gt;Node4 -->
<g id="edge3_Node000001_Node000004" class="edge">
<title>Node1&#45;&gt;Node4</title>
<g id="a_edge3_Node000001_Node000004"><a xlink:title=" ">
<path fill="none" stroke="#63b8ff" d="M64.51,-507.1C80.3,-522.2 106.49,-545.13 133,-559 136.55,-560.86 140.27,-562.6 144.08,-564.21"/>
<polygon fill="#63b8ff" stroke="#63b8ff" points="143.1,-567.59 153.68,-567.99 145.66,-561.07 143.1,-567.59"/>
</a>
</g>
</g>
<!-- Node5 -->
<g id="Node000005" class="node">
<title>Node5</title>
<g id="a_Node000005"><a xlink:href="classiot_1_1mqtt_1_1packets_1_1Connack.html#a7ba5c498454af80e8fbd82ebb3d34629" target="_top" xlink:title=" ">
<polygon fill="white" stroke="#666666" points="290,-550 140,-550 140,-520 290,-520 290,-550"/>
<text text-anchor="start" x="148" y="-538" font-family="Helvetica,sans-Serif" font-size="10.00">iot::mqtt::packets</text>
<text text-anchor="middle" x="215" y="-527" font-family="Helvetica,sans-Serif" font-size="10.00">::Connack::getSessionPresent</text>
</a>
</g>
</g>
<!-- Node1&#45;&gt;Node5 -->
<g id="edge4_Node000001_Node000005" class="edge">
<title>Node1&#45;&gt;Node5</title>
<g id="a_edge4_Node000001_Node000005"><a xlink:title=" ">
<path fill="none" stroke="#63b8ff" d="M97.08,-504.44C112.4,-508.44 129.69,-512.96 146.18,-517.27"/>
<polygon fill="#63b8ff" stroke="#63b8ff" points="145.76,-520.78 156.32,-519.92 147.53,-514.01 145.76,-520.78"/>
</a>
</g>
</g>
<!-- Node6 -->
<g id="Node000006" class="node">
<title>Node6</title>
<g id="a_Node000006"><a xlink:href="classiot_1_1mqtt_1_1Mqtt.html#af49fe8a64d1defd29f3ed4538c1dc6e9" target="_top" xlink:title=" ">
<polygon fill="white" stroke="#666666" points="281,-463.5 149,-463.5 149,-444.5 281,-444.5 281,-463.5"/>
<text text-anchor="middle" x="215" y="-451.5" font-family="Helvetica,sans-Serif" font-size="10.00">iot::mqtt::Mqtt::initSession</text>
</a>
</g>
</g>
<!-- Node1&#45;&gt;Node6 -->
<g id="edge5_Node000001_Node000006" class="edge">
<title>Node1&#45;&gt;Node6</title>
<g id="a_edge5_Node000001_Node000006"><a xlink:title=" ">
<path fill="none" stroke="#63b8ff" d="M97.08,-481.01C117.63,-476.26 141.71,-470.7 162.66,-465.86"/>
<polygon fill="#63b8ff" stroke="#63b8ff" points="163.71,-469.21 172.67,-463.55 162.14,-462.39 163.71,-469.21"/>
</a>
</g>
</g>
<!-- Node10 -->
<g id="Node000010" class="node">
<title>Node10</title>
<g id="a_Node000010"><a xlink:href="classcore_1_1timer_1_1Timer.html#a70182b02eba5c9baf33336e939fe731d" target="_top" xlink:title=" ">
<polygon fill="white" stroke="#666666" points="459,-678 365,-678 365,-648 459,-648 459,-678"/>
<text text-anchor="start" x="373" y="-666" font-family="Helvetica,sans-Serif" font-size="10.00">core::timer::Timer</text>
<text text-anchor="middle" x="412" y="-655" font-family="Helvetica,sans-Serif" font-size="10.00">::operator=</text>
</a>
</g>
</g>
<!-- Node1&#45;&gt;Node10 -->
<g id="edge49_Node000001_Node000010" class="edge">
<title>Node1&#45;&gt;Node10</title>
<g id="a_edge49_Node000001_Node000010"><a xlink:title=" ">
<path fill="none" stroke="#63b8ff" d="M97.28,-480.92C151.92,-471.26 241.01,-465.1 297,-511 342.7,-548.46 291.72,-596.71 333,-639 339.18,-645.34 347,-650.01 355.27,-653.45"/>
<polygon fill="#63b8ff" stroke="#63b8ff" points="354.16,-656.77 364.75,-656.84 356.51,-650.18 354.16,-656.77"/>
</a>
</g>
</g>
<!-- Node44 -->
<g id="Node000044" class="node">
<title>Node44</title>
<g id="a_Node000044"><a xlink:href="classcore_1_1timer_1_1Timer.html#afb7f888ed0b254a49ebc87f0312f06d6" target="_top" xlink:title=" ">
<polygon fill="white" stroke="#666666" points="262,-400 168,-400 168,-370 262,-370 262,-400"/>
<text text-anchor="start" x="176" y="-388" font-family="Helvetica,sans-Serif" font-size="10.00">core::timer::Timer</text>
<text text-anchor="middle" x="215" y="-377" font-family="Helvetica,sans-Serif" font-size="10.00">::intervalTimer</text>
</a>
</g>
</g>
<!-- Node1&#45;&gt;Node44 -->
<g id="edge45_Node000001_Node000044" class="edge">
<title>Node1&#45;&gt;Node44</title>
<g id="a_edge45_Node000001_Node000044"><a xlink:title=" ">
<path fill="none" stroke="#63b8ff" d="M71.71,-476.85C88.47,-465.48 112.07,-449.6 133,-436 148.58,-425.88 166,-414.87 180.68,-405.68"/>
<polygon fill="#63b8ff" stroke="#63b8ff" points="182.8,-408.48 189.43,-400.22 179.09,-402.54 182.8,-408.48"/>
</a>
</g>
</g>
<!-- Node46 -->
<g id="Node000046" class="node">
<title>Node46</title>
<g id="a_Node000046"><a xlink:href="classiot_1_1mqtt_1_1client_1_1Mqtt.html#a790dd3ca635cabd8da183752aa8190e1" target="_top" xlink:title=" ">
<polygon fill="white" stroke="#666666" points="261,-271 169,-271 169,-241 261,-241 261,-271"/>
<text text-anchor="start" x="177" y="-259" font-family="Helvetica,sans-Serif" font-size="10.00">iot::mqtt::client::</text>
<text text-anchor="middle" x="215" y="-248" font-family="Helvetica,sans-Serif" font-size="10.00">Mqtt::onConnack</text>
</a>
</g>
</g>
<!-- Node1&#45;&gt;Node46 -->
<g id="edge48_Node000001_Node000046" class="edge">
<title>Node1&#45;&gt;Node46</title>
<g id="a_edge48_Node000001_Node000046"><a xlink:title=" ">
<path fill="none" stroke="#63b8ff" d="M50.97,-476.92C55.55,-438.28 73.07,-334.92 133,-280 140.38,-273.24 149.58,-268.37 159.11,-264.88"/>
<polygon fill="#63b8ff" stroke="#63b8ff" points="160.23,-268.2 168.69,-261.82 158.1,-261.53 160.23,-268.2"/>
</a>
</g>
</g>
<!-- Node47 -->
<g id="Node000047" class="node">
<title>Node47</title>
<g id="a_Node000047"><a xlink:href="classiot_1_1mqtt_1_1client_1_1Mqtt.html#ad91d635b135c0a9f5d67a4b7e51d3f42" target="_top" xlink:title=" ">
<polygon fill="white" stroke="#666666" points="263,-319 167,-319 167,-289 263,-289 263,-319"/>
<text text-anchor="start" x="175" y="-307" font-family="Helvetica,sans-Serif" font-size="10.00">iot::mqtt::client::</text>
<text text-anchor="middle" x="215" y="-296" font-family="Helvetica,sans-Serif" font-size="10.00">Mqtt::sendPingreq</text>
</a>
</g>
</g>
<!-- Node1&#45;&gt;Node47 -->
<g id="edge50_Node000001_Node000047" class="edge">
<title>Node1&#45;&gt;Node47</title>
<g id="a_edge50_Node000001_Node000047"><a xlink:title=" ">
<path fill="none" stroke="#63b8ff" d="M56.63,-476.94C69.36,-451.13 97.98,-397.66 133,-361 146.3,-347.07 163.47,-334.42 178.58,-324.59"/>
<polygon fill="#63b8ff" stroke="#63b8ff" points="180.61,-327.45 187.19,-319.15 176.87,-321.53 180.61,-327.45"/>
</a>
</g>
</g>
<!-- Node7 -->
<g id="Node000007" class="node">
<title>Node7</title>
<g id="a_Node000007"><a xlink:href="classiot_1_1mqtt_1_1MqttContext.html#af44399b7e355931397763d0ef887375b" target="_top" xlink:title=" ">
<polygon fill="white" stroke="#666666" points="468.5,-582 355.5,-582 355.5,-552 468.5,-552 468.5,-582"/>
<text text-anchor="start" x="363.5" y="-570" font-family="Helvetica,sans-Serif" font-size="10.00">iot::mqtt::MqttContext</text>
<text text-anchor="middle" x="412" y="-559" font-family="Helvetica,sans-Serif" font-size="10.00">::close</text>
</a>
</g>
</g>
<!-- Node6&#45;&gt;Node7 -->
<g id="edge6_Node000006_Node000007" class="edge">
<title>Node6&#45;&gt;Node7</title>
<g id="a_edge6_Node000006_Node000007"><a xlink:title=" ">
<path fill="none" stroke="#63b8ff" d="M269.89,-463.57C279.59,-467 289.11,-471.66 297,-478 322.75,-498.68 307.36,-522.19 333,-543 337.02,-546.26 341.49,-549.09 346.18,-551.52"/>
<polygon fill="#63b8ff" stroke="#63b8ff" points="344.9,-554.79 355.45,-555.76 347.81,-548.42 344.9,-554.79"/>
</a>
</g>
</g>
<!-- Node8 -->
<g id="Node000008" class="node">
<title>Node8</title>
<g id="a_Node000008"><a xlink:href="classiot_1_1mqtt_1_1Mqtt.html#adb34507072d9f44d955b1060ca3cf118" target="_top" xlink:title=" ">
<polygon fill="white" stroke="#666666" points="476,-534 348,-534 348,-504 476,-504 476,-534"/>
<text text-anchor="start" x="356" y="-522" font-family="Helvetica,sans-Serif" font-size="10.00">iot::mqtt::Mqtt::getSocket</text>
<text text-anchor="middle" x="412" y="-511" font-family="Helvetica,sans-Serif" font-size="10.00">Connection</text>
</a>
</g>
</g>
<!-- Node6&#45;&gt;Node8 -->
<g id="edge7_Node000006_Node000008" class="edge">
<title>Node6&#45;&gt;Node8</title>
<g id="a_edge7_Node000006_Node000008"><a xlink:title=" ">
<path fill="none" stroke="#63b8ff" d="M252.69,-463.58C266.71,-467.58 282.75,-472.56 297,-478 313.53,-484.31 316.5,-488.6 333,-495 338.04,-496.95 343.3,-498.86 348.62,-500.68"/>
<polygon fill="#63b8ff" stroke="#63b8ff" points="347.61,-504.03 358.2,-503.88 349.82,-497.39 347.61,-504.03"/>
</a>
</g>
</g>
<!-- Node6&#45;&gt;Node10 -->
<g id="edge9_Node000006_Node000010" class="edge">
<title>Node6&#45;&gt;Node10</title>
<g id="a_edge9_Node000006_Node000010"><a xlink:title=" ">
<path fill="none" stroke="#63b8ff" d="M275.58,-463.53C283.61,-466.99 291.09,-471.68 297,-478 347.05,-531.58 283.23,-585.16 333,-639 339.08,-645.58 346.91,-650.37 355.26,-653.86"/>
<polygon fill="#63b8ff" stroke="#63b8ff" points="354.25,-657.21 364.84,-657.27 356.59,-650.62 354.25,-657.21"/>
</a>
</g>
</g>
<!-- Node11 -->
<g id="Node000011" class="node">
<title>Node11</title>
<g id="a_Node000011"><a xlink:href="classutils_1_1Timeval.html#a0a9d21f05cc48b208a95d269305fb7ec" target="_top" xlink:title=" ">
<polygon fill="white" stroke="#666666" points="473,-485.5 351,-485.5 351,-466.5 473,-466.5 473,-485.5"/>
<text text-anchor="middle" x="412" y="-473.5" font-family="Helvetica,sans-Serif" font-size="10.00">utils::Timeval::operator&gt;</text>
</a>
</g>
</g>
<!-- Node6&#45;&gt;Node11 -->
<g id="edge10_Node000006_Node000011" class="edge">
<title>Node6&#45;&gt;Node11</title>
<g id="a_edge10_Node000006_Node000011"><a xlink:title=" ">
<path fill="none" stroke="#63b8ff" d="M281.2,-461.36C300.34,-463.52 321.35,-465.89 340.79,-468.08"/>
<polygon fill="#63b8ff" stroke="#63b8ff" points="340.47,-471.56 350.79,-469.21 341.25,-464.61 340.47,-471.56"/>
</a>
</g>
</g>
<!-- Node13 -->
<g id="Node000013" class="node">
<title>Node13</title>
<g id="a_Node000013"><a xlink:href="classiot_1_1mqtt_1_1packets_1_1Pubrel.html#afddd24b48f455e81fe230ee7074ed3d2" target="_top" xlink:title=" ">
<polygon fill="white" stroke="#666666" points="458.5,-400 365.5,-400 365.5,-370 458.5,-370 458.5,-400"/>
<text text-anchor="start" x="373.5" y="-388" font-family="Helvetica,sans-Serif" font-size="10.00">iot::mqtt::packets</text>
<text text-anchor="middle" x="412" y="-377" font-family="Helvetica,sans-Serif" font-size="10.00">::Pubrel::Pubrel</text>
</a>
</g>
</g>
<!-- Node6&#45;&gt;Node13 -->
<g id="edge12_Node000006_Node000013" class="edge">
<title>Node6&#45;&gt;Node13</title>
<g id="a_edge12_Node000006_Node000013"><a xlink:title=" ">
<path fill="none" stroke="#63b8ff" d="M239.58,-444.38C263.08,-434.93 300.3,-420.31 333,-409 340.34,-406.46 348.12,-403.91 355.81,-401.46"/>
<polygon fill="#63b8ff" stroke="#63b8ff" points="356.97,-404.77 365.46,-398.44 354.87,-398.09 356.97,-404.77"/>
</a>
</g>
</g>
<!-- Node17 -->
<g id="Node000017" class="node">
<title>Node17</title>
<g id="a_Node000017"><a xlink:href="classiot_1_1mqtt_1_1Mqtt.html#ac2c838576318814d55feaaf87cdca5b9" target="_top" xlink:title=" ">
<polygon fill="white" stroke="#666666" points="464.5,-212.5 359.5,-212.5 359.5,-193.5 464.5,-193.5 464.5,-212.5"/>
<text text-anchor="middle" x="412" y="-200.5" font-family="Helvetica,sans-Serif" font-size="10.00">iot::mqtt::Mqtt::send</text>
</a>
</g>
</g>
<!-- Node6&#45;&gt;Node17 -->
<g id="edge16_Node000006_Node000017" class="edge">
<title>Node6&#45;&gt;Node17</title>
<g id="a_edge16_Node000006_Node000017"><a xlink:title=" ">
<path fill="none" stroke="#63b8ff" d="M243.68,-444.37C261.07,-437.07 282.82,-425.45 297,-409 326.75,-374.48 311.64,-353.25 333,-313 351.43,-278.26 379.26,-241.74 396.22,-220.74"/>
<polygon fill="#63b8ff" stroke="#63b8ff" points="399.14,-222.7 402.76,-212.74 393.72,-218.27 399.14,-222.7"/>
</a>
</g>
</g>
<!-- Node29 -->
<g id="Node000029" class="node">
<title>Node29</title>
<g id="a_Node000029"><a xlink:href="classcore_1_1socket_1_1stream_1_1SocketConnection.html#a37134f664c9d8d624709c9d37e0b5cfb" target="_top" xlink:title=" ">
<polygon fill="white" stroke="#666666" points="491,-630 333,-630 333,-600 491,-600 491,-630"/>
<text text-anchor="start" x="341" y="-618" font-family="Helvetica,sans-Serif" font-size="10.00">core::socket::stream</text>
<text text-anchor="middle" x="412" y="-607" font-family="Helvetica,sans-Serif" font-size="10.00">::SocketConnection::setTimeout</text>
</a>
</g>
</g>
<!-- Node6&#45;&gt;Node29 -->
<g id="edge28_Node000006_Node000029" class="edge">
<title>Node6&#45;&gt;Node29</title>
<g id="a_edge28_Node000006_Node000029"><a xlink:title=" ">
<path fill="none" stroke="#63b8ff" d="M274.27,-463.66C282.67,-467.1 290.61,-471.74 297,-478 334.65,-514.89 295.54,-553.91 333,-591 333.96,-591.95 334.96,-592.87 335.99,-593.75"/>
<polygon fill="#63b8ff" stroke="#63b8ff" points="334.31,-596.85 344.48,-599.8 338.38,-591.15 334.31,-596.85"/>
</a>
</g>
</g>
<!-- Node30 -->
<g id="Node000030" class="node">
<title>Node30</title>
<g id="a_Node000030"><a xlink:href="classcore_1_1timer_1_1Timer.html#a9847ce4e56baf9141cc880aa7e20c71a" target="_top" xlink:title=" ">
<polygon fill="white" stroke="#666666" points="459,-448 365,-448 365,-418 459,-418 459,-448"/>
<text text-anchor="start" x="373" y="-436" font-family="Helvetica,sans-Serif" font-size="10.00">core::timer::Timer</text>
<text text-anchor="middle" x="412" y="-425" font-family="Helvetica,sans-Serif" font-size="10.00">::singleshotTimer</text>
</a>
</g>
</g>
<!-- Node6&#45;&gt;Node30 -->
<g id="edge29_Node000006_Node000030" class="edge">
<title>Node6&#45;&gt;Node30</title>
<g id="a_edge29_Node000006_Node000030"><a xlink:title=" ">
<path fill="none" stroke="#63b8ff" d="M281.2,-446.98C305.12,-444.4 331.96,-441.51 355,-439.03"/>
<polygon fill="#63b8ff" stroke="#63b8ff" points="355.39,-442.51 364.96,-437.96 354.64,-435.55 355.39,-442.51"/>
</a>
</g>
</g>
<!-- Node9 -->
<g id="Node000009" class="node">
<title>Node9</title>
<g id="a_Node000009"><a xlink:href="classiot_1_1mqtt_1_1MqttContext.html#a1a620373f681b25b2e38899374124b01" target="_top" xlink:title=" ">
<polygon fill="white" stroke="#666666" points="655,-534 539,-534 539,-504 655,-504 655,-534"/>
<text text-anchor="start" x="547" y="-522" font-family="Helvetica,sans-Serif" font-size="10.00">iot::mqtt::MqttContext</text>
<text text-anchor="middle" x="597" y="-511" font-family="Helvetica,sans-Serif" font-size="10.00">::getSocketConnection</text>
</a>
</g>
</g>
<!-- Node8&#45;&gt;Node9 -->
<g id="edge8_Node000008_Node000009" class="edge">
<title>Node8&#45;&gt;Node9</title>
<g id="a_edge8_Node000008_Node000009"><a xlink:title=" ">
<path fill="none" stroke="#63b8ff" d="M476.23,-519C493.09,-519 511.36,-519 528.44,-519"/>
<polygon fill="#63b8ff" stroke="#63b8ff" points="528.89,-522.5 538.89,-519 528.89,-515.5 528.89,-522.5"/>
</a>
</g>
</g>
<!-- Node12 -->
<g id="Node000012" class="node">
<title>Node12</title>
<g id="a_Node000012"><a xlink:href="classutils_1_1Timeval.html#a11e78b5aeeb6526856905939d9642815" target="_top" xlink:title=" ">
<polygon fill="white" stroke="#666666" points="658,-485.5 536,-485.5 536,-466.5 658,-466.5 658,-485.5"/>
<text text-anchor="middle" x="597" y="-473.5" font-family="Helvetica,sans-Serif" font-size="10.00">utils::Timeval::operator&lt;</text>
</a>
</g>
</g>
<!-- Node11&#45;&gt;Node12 -->
<g id="edge11_Node000011_Node000012" class="edge">
<title>Node11&#45;&gt;Node12</title>
<g id="a_edge11_Node000011_Node000012"><a xlink:title=" ">
<path fill="none" stroke="#63b8ff" d="M473.17,-476C489.98,-476 508.39,-476 525.73,-476"/>
<polygon fill="#63b8ff" stroke="#63b8ff" points="525.79,-479.5 535.79,-476 525.79,-472.5 525.79,-479.5"/>
</a>
</g>
</g>
<!-- Node14 -->
<g id="Node000014" class="node">
<title>Node14</title>
<g id="a_Node000014"><a xlink:href="classiot_1_1mqtt_1_1types_1_1UInt16.html#a3c761614ff11a920e9aaba3eba90aa06" target="_top" xlink:title=" ">
<polygon fill="white" stroke="#666666" points="656,-400 538,-400 538,-370 656,-370 656,-400"/>
<text text-anchor="start" x="546" y="-388" font-family="Helvetica,sans-Serif" font-size="10.00">iot::mqtt::types::UInt16</text>
<text text-anchor="middle" x="597" y="-377" font-family="Helvetica,sans-Serif" font-size="10.00">::operator=</text>
</a>
</g>
</g>
<!-- Node13&#45;&gt;Node14 -->
<g id="edge13_Node000013_Node000014" class="edge">
<title>Node13&#45;&gt;Node14</title>
<g id="a_edge13_Node000013_Node000014"><a xlink:title=" ">
<path fill="none" stroke="#63b8ff" d="M458.71,-385C479.55,-385 504.66,-385 527.68,-385"/>
<polygon fill="#63b8ff" stroke="#63b8ff" points="527.74,-388.5 537.74,-385 527.74,-381.5 527.74,-388.5"/>
</a>
</g>
</g>
<!-- Node15 -->
<g id="Node000015" class="node">
<title>Node15</title>
<g id="a_Node000015"><a xlink:href="classiot_1_1mqtt_1_1packets_1_1Pubrel.html#ac28271476c0a0f9e3fadbb470b74b410" target="_top" xlink:title=" ">
<polygon fill="white" stroke="#666666" points="643.5,-314 550.5,-314 550.5,-284 643.5,-284 643.5,-314"/>
<text text-anchor="start" x="558.5" y="-302" font-family="Helvetica,sans-Serif" font-size="10.00">iot::mqtt::packets</text>
<text text-anchor="middle" x="597" y="-291" font-family="Helvetica,sans-Serif" font-size="10.00">::Pubrel::Pubrel</text>
</a>
</g>
</g>
<!-- Node13&#45;&gt;Node15 -->
<g id="edge14_Node000013_Node000015" class="edge">
<title>Node13&#45;&gt;Node15</title>
<g id="a_edge14_Node000013_Node000015"><a xlink:title=" ">
<path fill="none" stroke="#63b8ff" d="M458.62,-372.93C469.41,-369.54 480.76,-365.52 491,-361 517.15,-349.45 544.92,-332.84 565.33,-319.71"/>
<polygon fill="#63b8ff" stroke="#63b8ff" points="567.41,-322.54 573.88,-314.15 563.59,-316.67 567.41,-322.54"/>
</a>
</g>
</g>
<!-- Node16 -->
<g id="Node000016" class="node">
<title>Node16</title>
<g id="a_Node000016"><a xlink:href="classiot_1_1mqtt_1_1ControlPacket.html#ae14191916323940c9bacc11d7f517c5a" target="_top" xlink:title=" ">
<polygon fill="white" stroke="#666666" points="829,-294 708,-294 708,-264 829,-264 829,-294"/>
<text text-anchor="start" x="716" y="-282" font-family="Helvetica,sans-Serif" font-size="10.00">iot::mqtt::ControlPacket</text>
<text text-anchor="middle" x="768.5" y="-271" font-family="Helvetica,sans-Serif" font-size="10.00">::ControlPacket</text>
</a>
</g>
</g>
<!-- Node15&#45;&gt;Node16 -->
<g id="edge15_Node000015_Node000016" class="edge">
<title>Node15&#45;&gt;Node16</title>
<g id="a_edge15_Node000015_Node000016"><a xlink:title=" ">
<path fill="none" stroke="#63b8ff" d="M643.87,-293.59C660.5,-291.63 679.67,-289.36 697.89,-287.21"/>
<polygon fill="#63b8ff" stroke="#63b8ff" points="698.36,-290.68 707.88,-286.03 697.54,-283.73 698.36,-290.68"/>
</a>
</g>
</g>
<!-- Node18 -->
<g id="Node000018" class="node">
<title>Node18</title>
<g id="a_Node000018"><a xlink:href="classiot_1_1mqtt_1_1ControlPacket.html#a1d35b63fe04256fa31650462db1b311a" target="_top" xlink:title=" ">
<polygon fill="white" stroke="#666666" points="657.5,-218 536.5,-218 536.5,-188 657.5,-188 657.5,-218"/>
<text text-anchor="start" x="544.5" y="-206" font-family="Helvetica,sans-Serif" font-size="10.00">iot::mqtt::ControlPacket</text>
<text text-anchor="middle" x="597" y="-195" font-family="Helvetica,sans-Serif" font-size="10.00">::getName</text>
</a>
</g>
</g>
<!-- Node17&#45;&gt;Node18 -->
<g id="edge17_Node000017_Node000018" class="edge">
<title>Node17&#45;&gt;Node18</title>
<g id="a_edge17_Node000017_Node000018"><a xlink:title=" ">
<path fill="none" stroke="#63b8ff" d="M464.95,-203C484.02,-203 505.94,-203 526.32,-203"/>
<polygon fill="#63b8ff" stroke="#63b8ff" points="526.49,-206.5 536.49,-203 526.49,-199.5 526.49,-206.5"/>
</a>
</g>
</g>
<!-- Node19 -->
<g id="Node000019" class="node">
<title>Node19</title>
<g id="a_Node000019"><a xlink:href="classiot_1_1mqtt_1_1Mqtt.html#a594844a93633d9acce2794ef5bc23c5a" target="_top" xlink:title=" ">
<polygon fill="white" stroke="#666666" points="649.5,-72.5 544.5,-72.5 544.5,-53.5 649.5,-53.5 649.5,-72.5"/>
<text text-anchor="middle" x="597" y="-60.5" font-family="Helvetica,sans-Serif" font-size="10.00">iot::mqtt::Mqtt::send</text>
</a>
</g>
</g>
<!-- Node17&#45;&gt;Node19 -->
<g id="edge18_Node000017_Node000019" class="edge">
<title>Node17&#45;&gt;Node19</title>
<g id="a_edge18_Node000017_Node000019"><a xlink:title=" ">
<path fill="none" stroke="#63b8ff" d="M425.58,-193.38C456.53,-169.7 536.64,-108.41 574.97,-79.09"/>
<polygon fill="#63b8ff" stroke="#63b8ff" points="577.52,-81.55 583.33,-72.69 573.26,-75.99 577.52,-81.55"/>
</a>
</g>
</g>
<!-- Node22 -->
<g id="Node000022" class="node">
<title>Node22</title>
<g id="a_Node000022"><a xlink:href="classiot_1_1mqtt_1_1ControlPacket.html#a05bfc24d7ae7380ef9b2fcb64ce37526" target="_top" xlink:title=" ">
<polygon fill="white" stroke="#666666" points="657.5,-170 536.5,-170 536.5,-140 657.5,-140 657.5,-170"/>
<text text-anchor="start" x="544.5" y="-158" font-family="Helvetica,sans-Serif" font-size="10.00">iot::mqtt::ControlPacket</text>
<text text-anchor="middle" x="597" y="-147" font-family="Helvetica,sans-Serif" font-size="10.00">::serialize</text>
</a>
</g>
</g>
<!-- Node17&#45;&gt;Node22 -->
<g id="edge21_Node000017_Node000022" class="edge">
<title>Node17&#45;&gt;Node22</title>
<g id="a_edge21_Node000017_Node000022"><a xlink:title=" ">
<path fill="none" stroke="#63b8ff" d="M449.59,-193.4C472.26,-187.46 502.06,-179.64 528.86,-172.61"/>
<polygon fill="#63b8ff" stroke="#63b8ff" points="529.79,-175.99 538.57,-170.06 528.01,-169.21 529.79,-175.99"/>
</a>
</g>
</g>
<!-- Node20 -->
<g id="Node000020" class="node">
<title>Node20</title>
<g id="a_Node000020"><a xlink:href="classiot_1_1mqtt_1_1Mqtt.html#ab70d673e9ccb125cb5ed2449cfa1492c" target="_top" xlink:title=" ">
<polygon fill="white" stroke="#666666" points="834,-78 703,-78 703,-48 834,-48 834,-78"/>
<text text-anchor="start" x="711" y="-66" font-family="Helvetica,sans-Serif" font-size="10.00">iot::mqtt::Mqtt::dataToHex</text>
<text text-anchor="middle" x="768.5" y="-55" font-family="Helvetica,sans-Serif" font-size="10.00">String</text>
</a>
</g>
</g>
<!-- Node19&#45;&gt;Node20 -->
<g id="edge19_Node000019_Node000020" class="edge">
<title>Node19&#45;&gt;Node20</title>
<g id="a_edge19_Node000019_Node000020"><a xlink:title=" ">
<path fill="none" stroke="#63b8ff" d="M649.78,-63C663.25,-63 678.04,-63 692.46,-63"/>
<polygon fill="#63b8ff" stroke="#63b8ff" points="692.86,-66.5 702.86,-63 692.86,-59.5 692.86,-66.5"/>
</a>
</g>
</g>
<!-- Node21 -->
<g id="Node000021" class="node">
<title>Node21</title>
<g id="a_Node000021"><a xlink:href="classiot_1_1mqtt_1_1MqttContext.html#a26a6997aff68a55407e12cf3269ab28f" target="_top" xlink:title=" ">
<polygon fill="white" stroke="#666666" points="825,-30 712,-30 712,0 825,0 825,-30"/>
<text text-anchor="start" x="720" y="-18" font-family="Helvetica,sans-Serif" font-size="10.00">iot::mqtt::MqttContext</text>
<text text-anchor="middle" x="768.5" y="-7" font-family="Helvetica,sans-Serif" font-size="10.00">::send</text>
</a>
</g>
</g>
<!-- Node19&#45;&gt;Node21 -->
<g id="edge20_Node000019_Node000021" class="edge">
<title>Node19&#45;&gt;Node21</title>
<g id="a_edge20_Node000019_Node000021"><a xlink:title=" ">
<path fill="none" stroke="#63b8ff" d="M631.89,-53.4C652.7,-47.51 680.01,-39.78 704.65,-32.8"/>
<polygon fill="#63b8ff" stroke="#63b8ff" points="705.64,-36.16 714.31,-30.06 703.73,-29.42 705.64,-36.16"/>
</a>
</g>
</g>
<!-- Node23 -->
<g id="Node000023" class="node">
<title>Node23</title>
<g id="a_Node000023"><a xlink:href="classiot_1_1mqtt_1_1FixedHeader.html#a45b8ecb57a876ecaec96ff3e59361b76" target="_top" xlink:title=" ">
<polygon fill="white" stroke="#666666" points="825.5,-222 711.5,-222 711.5,-192 825.5,-192 825.5,-222"/>
<text text-anchor="start" x="719.5" y="-210" font-family="Helvetica,sans-Serif" font-size="10.00">iot::mqtt::FixedHeader</text>
<text text-anchor="middle" x="768.5" y="-199" font-family="Helvetica,sans-Serif" font-size="10.00">::FixedHeader</text>
</a>
</g>
</g>
<!-- Node22&#45;&gt;Node23 -->
<g id="edge22_Node000022_Node000023" class="edge">
<title>Node22&#45;&gt;Node23</title>
<g id="a_edge22_Node000022_Node000023"><a xlink:title=" ">
<path fill="none" stroke="#63b8ff" d="M647.03,-170.04C666.35,-175.97 688.71,-182.83 708.88,-189.02"/>
<polygon fill="#63b8ff" stroke="#63b8ff" points="708,-192.41 718.58,-191.99 710.05,-185.71 708,-192.41"/>
</a>
</g>
</g>
<!-- Node26 -->
<g id="Node000026" class="node">
<title>Node26</title>
<g id="a_Node000026"><a xlink:href="classiot_1_1mqtt_1_1FixedHeader.html#ad322e68956357200e493c128629b90e7" target="_top" xlink:title=" ">
<polygon fill="white" stroke="#666666" points="825.5,-174 711.5,-174 711.5,-144 825.5,-144 825.5,-174"/>
<text text-anchor="start" x="719.5" y="-162" font-family="Helvetica,sans-Serif" font-size="10.00">iot::mqtt::FixedHeader</text>
<text text-anchor="middle" x="768.5" y="-151" font-family="Helvetica,sans-Serif" font-size="10.00">::serialize</text>
</a>
</g>
</g>
<!-- Node22&#45;&gt;Node26 -->
<g id="edge25_Node000022_Node000026" class="edge">
<title>Node22&#45;&gt;Node26</title>
<g id="a_edge25_Node000022_Node000026"><a xlink:title=" ">
<path fill="none" stroke="#63b8ff" d="M657.76,-156.41C671.79,-156.74 686.83,-157.1 701.14,-157.43"/>
<polygon fill="#63b8ff" stroke="#63b8ff" points="701.32,-160.94 711.4,-157.68 701.49,-153.94 701.32,-160.94"/>
</a>
</g>
</g>
<!-- Node28 -->
<g id="Node000028" class="node">
<title>Node28</title>
<g id="a_Node000028"><a xlink:href="classiot_1_1mqtt_1_1ControlPacket.html#ab4f58bf0c1920d705af23c8d7636247f" target="_top" xlink:title=" ">
<polygon fill="white" stroke="#666666" points="829,-126 708,-126 708,-96 829,-96 829,-126"/>
<text text-anchor="start" x="716" y="-114" font-family="Helvetica,sans-Serif" font-size="10.00">iot::mqtt::ControlPacket</text>
<text text-anchor="middle" x="768.5" y="-103" font-family="Helvetica,sans-Serif" font-size="10.00">::serializeVP</text>
</a>
</g>
</g>
<!-- Node22&#45;&gt;Node28 -->
<g id="edge27_Node000022_Node000028" class="edge">
<title>Node22&#45;&gt;Node28</title>
<g id="a_edge27_Node000022_Node000028"><a xlink:title=" ">
<path fill="none" stroke="#63b8ff" d="M655.86,-139.98C669.96,-136.32 685.17,-132.37 699.69,-128.6"/>
<polygon fill="#63b8ff" stroke="#63b8ff" points="700.82,-131.93 709.61,-126.03 699.06,-125.15 700.82,-131.93"/>
</a>
</g>
</g>
<!-- Node24 -->
<g id="Node000024" class="node">
<title>Node24</title>
<g id="a_Node000024"><a xlink:href="classiot_1_1mqtt_1_1types_1_1UIntV.html#a672679ce4242663e44de0be37001c764" target="_top" xlink:title=" ">
<polygon fill="white" stroke="#666666" points="993.5,-222 879.5,-222 879.5,-192 993.5,-192 993.5,-222"/>
<text text-anchor="start" x="887.5" y="-210" font-family="Helvetica,sans-Serif" font-size="10.00">iot::mqtt::types::UIntV</text>
<text text-anchor="middle" x="936.5" y="-199" font-family="Helvetica,sans-Serif" font-size="10.00">::operator=</text>
</a>
</g>
</g>
<!-- Node23&#45;&gt;Node24 -->
<g id="edge23_Node000023_Node000024" class="edge">
<title>Node23&#45;&gt;Node24</title>
<g id="a_edge23_Node000023_Node000024"><a xlink:title=" ">
<path fill="none" stroke="#63b8ff" d="M825.7,-207C839.63,-207 854.68,-207 869.05,-207"/>
<polygon fill="#63b8ff" stroke="#63b8ff" points="869.36,-210.5 879.36,-207 869.36,-203.5 869.36,-210.5"/>
</a>
</g>
</g>
<!-- Node25 -->
<g id="Node000025" class="node">
<title>Node25</title>
<g id="a_Node000025"><a xlink:href="classiot_1_1mqtt_1_1types_1_1UInt8.html#ac58c30e21c435aa4c4f22de6549ce0b0" target="_top" xlink:title=" ">
<polygon fill="white" stroke="#666666" points="993,-270 880,-270 880,-240 993,-240 993,-270"/>
<text text-anchor="start" x="888" y="-258" font-family="Helvetica,sans-Serif" font-size="10.00">iot::mqtt::types::UInt8</text>
<text text-anchor="middle" x="936.5" y="-247" font-family="Helvetica,sans-Serif" font-size="10.00">::operator=</text>
</a>
</g>
</g>
<!-- Node23&#45;&gt;Node25 -->
<g id="edge24_Node000023_Node000025" class="edge">
<title>Node23&#45;&gt;Node25</title>
<g id="a_edge24_Node000023_Node000025"><a xlink:title=" ">
<path fill="none" stroke="#63b8ff" d="M821.57,-222.06C838.1,-226.84 856.54,-232.17 873.69,-237.13"/>
<polygon fill="#63b8ff" stroke="#63b8ff" points="873.04,-240.58 883.62,-240 874.98,-233.86 873.04,-240.58"/>
</a>
</g>
</g>
<!-- Node27 -->
<g id="Node000027" class="node">
<title>Node27</title>
<g id="a_Node000027"><a xlink:href="classiot_1_1mqtt_1_1types_1_1TypeBase.html#a7e6939bfafb586b2c2990b485bc5218a" target="_top" xlink:title=" ">
<polygon fill="white" stroke="#666666" points="1002.5,-174 870.5,-174 870.5,-144 1002.5,-144 1002.5,-174"/>
<text text-anchor="start" x="878.5" y="-162" font-family="Helvetica,sans-Serif" font-size="10.00">iot::mqtt::types::TypeBase</text>
<text text-anchor="middle" x="936.5" y="-151" font-family="Helvetica,sans-Serif" font-size="10.00">::serialize</text>
</a>
</g>
</g>
<!-- Node26&#45;&gt;Node27 -->
<g id="edge26_Node000026_Node000027" class="edge">
<title>Node26&#45;&gt;Node27</title>
<g id="a_edge26_Node000026_Node000027"><a xlink:title=" ">
<path fill="none" stroke="#63b8ff" d="M825.7,-159C836.83,-159 848.68,-159 860.32,-159"/>
<polygon fill="#63b8ff" stroke="#63b8ff" points="860.48,-162.5 870.48,-159 860.48,-155.5 860.48,-162.5"/>
</a>
</g>
</g>
<!-- Node31 -->
<g id="Node000031" class="node">
<title>Node31</title>
<g id="a_Node000031"><a xlink:href="classcore_1_1timer_1_1SingleshotTimer.html#a021ce2f4c49323449bbe12b5f7025ab2" target="_top" xlink:title=" ">
<polygon fill="white" stroke="#666666" points="667,-448 527,-448 527,-418 667,-418 667,-448"/>
<text text-anchor="start" x="535" y="-436" font-family="Helvetica,sans-Serif" font-size="10.00">core::timer::SingleshotTimer</text>
<text text-anchor="middle" x="597" y="-425" font-family="Helvetica,sans-Serif" font-size="10.00">::SingleshotTimer</text>
</a>
</g>
</g>
<!-- Node30&#45;&gt;Node31 -->
<g id="edge30_Node000030_Node000031" class="edge">
<title>Node30&#45;&gt;Node31</title>
<g id="a_edge30_Node000030_Node000031"><a xlink:title=" ">
<path fill="none" stroke="#63b8ff" d="M459.18,-433C476.67,-433 497.12,-433 516.8,-433"/>
<polygon fill="#63b8ff" stroke="#63b8ff" points="516.99,-436.5 526.99,-433 516.99,-429.5 516.99,-436.5"/>
</a>
</g>
</g>
<!-- Node32 -->
<g id="Node000032" class="node">
<title>Node32</title>
<g id="a_Node000032"><a xlink:href="classcore_1_1TimerEventReceiver.html#a807e13fae610d76c12480935855046aa" target="_top" xlink:title=" ">
<polygon fill="white" stroke="#666666" points="834,-444 703,-444 703,-414 834,-414 834,-444"/>
<text text-anchor="start" x="711" y="-432" font-family="Helvetica,sans-Serif" font-size="10.00">core::TimerEventReceiver</text>
<text text-anchor="middle" x="768.5" y="-421" font-family="Helvetica,sans-Serif" font-size="10.00">::TimerEventReceiver</text>
</a>
</g>
</g>
<!-- Node31&#45;&gt;Node32 -->
<g id="edge31_Node000031_Node000032" class="edge">
<title>Node31&#45;&gt;Node32</title>
<g id="a_edge31_Node000031_Node000032"><a xlink:title=" ">
<path fill="none" stroke="#63b8ff" d="M667.43,-431.36C675.75,-431.17 684.27,-430.96 692.67,-430.77"/>
<polygon fill="#63b8ff" stroke="#63b8ff" points="692.9,-434.26 702.81,-430.53 692.73,-427.26 692.9,-434.26"/>
</a>
</g>
</g>
<!-- Node33 -->
<g id="Node000033" class="node">
<title>Node33</title>
<g id="a_Node000033"><a xlink:href="classutils_1_1Timeval.html#a54b232dc1ffeea007100dcd1caad1987" target="_top" xlink:title=" ">
<polygon fill="white" stroke="#666666" points="1003,-438.5 870,-438.5 870,-419.5 1003,-419.5 1003,-438.5"/>
<text text-anchor="middle" x="936.5" y="-426.5" font-family="Helvetica,sans-Serif" font-size="10.00">utils::Timeval::currentTime</text>
</a>
</g>
</g>
<!-- Node32&#45;&gt;Node33 -->
<g id="edge32_Node000032_Node000033" class="edge">
<title>Node32&#45;&gt;Node33</title>
<g id="a_edge32_Node000032_Node000033"><a xlink:title=" ">
<path fill="none" stroke="#63b8ff" d="M834.16,-429C842.6,-429 851.3,-429 859.9,-429"/>
<polygon fill="#63b8ff" stroke="#63b8ff" points="859.93,-432.5 869.93,-429 859.93,-425.5 859.93,-432.5"/>
</a>
</g>
</g>
<!-- Node36 -->
<g id="Node000036" class="node">
<title>Node36</title>
<g id="a_Node000036"><a xlink:href="classcore_1_1EventReceiver.html#adec275118bd8a68e2b4cb71fa94d79b6" target="_top" xlink:title=" ">
<polygon fill="white" stroke="#666666" points="989.5,-363 883.5,-363 883.5,-333 989.5,-333 989.5,-363"/>
<text text-anchor="start" x="891.5" y="-351" font-family="Helvetica,sans-Serif" font-size="10.00">core::EventReceiver</text>
<text text-anchor="middle" x="936.5" y="-340" font-family="Helvetica,sans-Serif" font-size="10.00">::EventReceiver</text>
</a>
</g>
</g>
<!-- Node32&#45;&gt;Node36 -->
<g id="edge35_Node000032_Node000036" class="edge">
<title>Node32&#45;&gt;Node36</title>
<g id="a_edge35_Node000032_Node000036"><a xlink:title=" ">
<path fill="none" stroke="#63b8ff" d="M797.43,-413.97C817.47,-403.33 845.2,-388.89 870,-377 876.71,-373.78 883.86,-370.49 890.87,-367.32"/>
<polygon fill="#63b8ff" stroke="#63b8ff" points="892.6,-370.38 900.31,-363.11 889.75,-363.99 892.6,-370.38"/>
</a>
</g>
</g>
<!-- Node38 -->
<g id="Node000038" class="node">
<title>Node38</title>
<g id="a_Node000038"><a xlink:href="classcore_1_1EventLoop.html#a17f1623de6ca2ea2682c63cf502c3c36" target="_top" xlink:title=" ">
<polygon fill="white" stroke="#666666" points="1343,-395 1210,-395 1210,-365 1343,-365 1343,-395"/>
<text text-anchor="start" x="1218" y="-383" font-family="Helvetica,sans-Serif" font-size="10.00">core::EventLoop::getEvent</text>
<text text-anchor="middle" x="1276.5" y="-372" font-family="Helvetica,sans-Serif" font-size="10.00">Multiplexer</text>
</a>
</g>
</g>
<!-- Node32&#45;&gt;Node38 -->
<g id="edge39_Node000032_Node000038" class="edge">
<title>Node32&#45;&gt;Node38</title>
<g id="a_edge39_Node000032_Node000038"><a xlink:title=" ">
<path fill="none" stroke="#63b8ff" d="M834.23,-416.42C846.09,-414.39 858.39,-412.48 870,-411 984.52,-396.41 1118.17,-387.81 1199.8,-383.5"/>
<polygon fill="#63b8ff" stroke="#63b8ff" points="1200.17,-386.99 1209.98,-382.97 1199.81,-380 1200.17,-386.99"/>
</a>
</g>
</g>
<!-- Node39 -->
<g id="Node000039" class="node">
<title>Node39</title>
<g id="a_Node000039"><a xlink:href="classcore_1_1EventLoop.html#a413d227511f68c2c9939719bd2590794" target="_top" xlink:title=" ">
<polygon fill="white" stroke="#666666" points="1342,-335.5 1211,-335.5 1211,-316.5 1342,-316.5 1342,-335.5"/>
<text text-anchor="middle" x="1276.5" y="-323.5" font-family="Helvetica,sans-Serif" font-size="10.00">core::EventLoop::instance</text>
</a>
</g>
</g>
<!-- Node32&#45;&gt;Node39 -->
<g id="edge41_Node000032_Node000039" class="edge">
<title>Node32&#45;&gt;Node39</title>
<g id="a_edge41_Node000032_Node000039"><a xlink:title=" ">
<path fill="none" stroke="#63b8ff" d="M778.25,-413.88C793.34,-389.51 826.84,-342.43 870,-324 990.67,-272.46 1150.57,-297.03 1228.62,-314.2"/>
<polygon fill="#63b8ff" stroke="#63b8ff" points="1228.1,-317.67 1238.62,-316.46 1229.64,-310.85 1228.1,-317.67"/>
</a>
</g>
</g>
<!-- Node40 -->
<g id="Node000040" class="node">
<title>Node40</title>
<g id="a_Node000040"><a xlink:href="classcore_1_1EventMultiplexer.html#a4a0bcabd14e5588166b7df8c3c634938" target="_top" xlink:title=" ">
<polygon fill="white" stroke="#666666" points="1000,-561 873,-561 873,-531 1000,-531 1000,-561"/>
<text text-anchor="start" x="881" y="-549" font-family="Helvetica,sans-Serif" font-size="10.00">core::EventMultiplexer</text>
<text text-anchor="middle" x="936.5" y="-538" font-family="Helvetica,sans-Serif" font-size="10.00">::getTimerEventPublisher</text>
</a>
</g>
</g>
<!-- Node32&#45;&gt;Node40 -->
<g id="edge40_Node000032_Node000040" class="edge">
<title>Node32&#45;&gt;Node40</title>
<g id="a_edge40_Node000032_Node000040"><a xlink:title=" ">
<path fill="none" stroke="#63b8ff" d="M782.35,-444.17C800.19,-464.4 834.31,-500.17 870,-522 872.65,-523.62 875.43,-525.16 878.28,-526.62"/>
<polygon fill="#63b8ff" stroke="#63b8ff" points="877.05,-529.9 887.59,-530.98 880.02,-523.56 877.05,-529.9"/>
</a>
</g>
</g>
<!-- Node41 -->
<g id="Node000041" class="node">
<title>Node41</title>
<g id="a_Node000041"><a xlink:href="classutils_1_1Timeval.html#ab2603e981dfbf12b15cbcfe4be2780a2" target="_top" xlink:title=" ">
<polygon fill="white" stroke="#666666" points="997.5,-512.5 875.5,-512.5 875.5,-493.5 997.5,-493.5 997.5,-512.5"/>
<text text-anchor="middle" x="936.5" y="-500.5" font-family="Helvetica,sans-Serif" font-size="10.00">utils::Timeval::operator+</text>
</a>
</g>
</g>
<!-- Node32&#45;&gt;Node41 -->
<g id="edge42_Node000032_Node000041" class="edge">
<title>Node32&#45;&gt;Node41</title>
<g id="a_edge42_Node000032_Node000041"><a xlink:title=" ">
<path fill="none" stroke="#63b8ff" d="M792.66,-444.02C812.53,-456.38 842.27,-473.66 870,-485 874.79,-486.96 879.86,-488.78 884.98,-490.44"/>
<polygon fill="#63b8ff" stroke="#63b8ff" points="884.22,-493.87 894.81,-493.45 886.27,-487.18 884.22,-493.87"/>
</a>
</g>
</g>
<!-- Node43 -->
<g id="Node000043" class="node">
<title>Node43</title>
<g id="a_Node000043"><a xlink:href="classutils_1_1Timeval.html#aea8eba217c23b75fc9483aa3e6848367" target="_top" xlink:title=" ">
<polygon fill="white" stroke="#666666" points="994.5,-475.5 878.5,-475.5 878.5,-456.5 994.5,-456.5 994.5,-475.5"/>
<text text-anchor="middle" x="936.5" y="-463.5" font-family="Helvetica,sans-Serif" font-size="10.00">utils::Timeval::Timeval</text>
</a>
</g>
</g>
<!-- Node32&#45;&gt;Node43 -->
<g id="edge44_Node000032_Node000043" class="edge">
<title>Node32&#45;&gt;Node43</title>
<g id="a_edge44_Node000032_Node000043"><a xlink:title=" ">
<path fill="none" stroke="#63b8ff" d="M834.16,-443.41C850.29,-447.01 867.39,-450.82 882.86,-454.27"/>
<polygon fill="#63b8ff" stroke="#63b8ff" points="882.24,-457.72 892.76,-456.47 883.77,-450.88 882.24,-457.72"/>
</a>
</g>
</g>
<!-- Node34 -->
<g id="Node000034" class="node">
<title>Node34</title>
<g id="a_Node000034"><a xlink:href="namespaceutils_1_1system.html#ad594b7afe9fa80d3db04591c966422b2" target="_top" xlink:title=" ">
<polygon fill="white" stroke="#666666" points="1174,-438.5 1039,-438.5 1039,-419.5 1174,-419.5 1174,-438.5"/>
<text text-anchor="middle" x="1106.5" y="-426.5" font-family="Helvetica,sans-Serif" font-size="10.00">utils::system::gettimeofday</text>
</a>
</g>
</g>
<!-- Node33&#45;&gt;Node34 -->
<g id="edge33_Node000033_Node000034" class="edge">
<title>Node33&#45;&gt;Node34</title>
<g id="a_edge33_Node000033_Node000034"><a xlink:title=" ">
<path fill="none" stroke="#63b8ff" d="M1003.42,-429C1011.72,-429 1020.26,-429 1028.71,-429"/>
<polygon fill="#63b8ff" stroke="#63b8ff" points="1028.95,-432.5 1038.95,-429 1028.95,-425.5 1028.95,-432.5"/>
</a>
</g>
</g>
<!-- Node35 -->
<g id="Node000035" class="node">
<title>Node35</title>
<g id="a_Node000035"><a xlink:href="classutils_1_1Timeval.html#a4a554848a362fa40feef1c3f93c0c2e5" target="_top" xlink:title=" ">
<polygon fill="white" stroke="#666666" points="1168,-475.5 1045,-475.5 1045,-456.5 1168,-456.5 1168,-475.5"/>
<text text-anchor="middle" x="1106.5" y="-463.5" font-family="Helvetica,sans-Serif" font-size="10.00">utils::Timeval::operator&amp;</text>
</a>
</g>
</g>
<!-- Node33&#45;&gt;Node35 -->
<g id="edge34_Node000033_Node000035" class="edge">
<title>Node33&#45;&gt;Node35</title>
<g id="a_edge34_Node000033_Node000035"><a xlink:title=" ">
<path fill="none" stroke="#63b8ff" d="M980.76,-438.53C1002.53,-443.32 1029.11,-449.18 1052.13,-454.25"/>
<polygon fill="#63b8ff" stroke="#63b8ff" points="1051.57,-457.71 1062.09,-456.44 1053.08,-450.87 1051.57,-457.71"/>
</a>
</g>
</g>
<!-- Node37 -->
<g id="Node000037" class="node">
<title>Node37</title>
<g id="a_Node000037"><a xlink:href="classcore_1_1Event.html#a81e45f64219d897d59324c9dd0573936" target="_top" xlink:title=" ">
<polygon fill="white" stroke="#666666" points="1155.5,-357.5 1057.5,-357.5 1057.5,-338.5 1155.5,-338.5 1155.5,-357.5"/>
<text text-anchor="middle" x="1106.5" y="-345.5" font-family="Helvetica,sans-Serif" font-size="10.00">core::Event::Event</text>
</a>
</g>
</g>
<!-- Node36&#45;&gt;Node37 -->
<g id="edge36_Node000036_Node000037" class="edge">
<title>Node36&#45;&gt;Node37</title>
<g id="a_edge36_Node000036_Node000037"><a xlink:title=" ">
<path fill="none" stroke="#63b8ff" d="M989.74,-348C1007.94,-348 1028.48,-348 1047.15,-348"/>
<polygon fill="#63b8ff" stroke="#63b8ff" points="1047.3,-351.5 1057.3,-348 1047.3,-344.5 1047.3,-351.5"/>
</a>
</g>
</g>
<!-- Node37&#45;&gt;Node38 -->
<g id="edge37_Node000037_Node000038" class="edge">
<title>Node37&#45;&gt;Node38</title>
<g id="a_edge37_Node000037_Node000038"><a xlink:title=" ">
<path fill="none" stroke="#63b8ff" d="M1155.64,-357.17C1169.48,-359.81 1184.92,-362.75 1199.99,-365.62"/>
<polygon fill="#63b8ff" stroke="#63b8ff" points="1199.34,-369.06 1209.82,-367.49 1200.65,-362.18 1199.34,-369.06"/>
</a>
</g>
</g>
<!-- Node37&#45;&gt;Node39 -->
<g id="edge38_Node000037_Node000039" class="edge">
<title>Node37&#45;&gt;Node39</title>
<g id="a_edge38_Node000037_Node000039"><a xlink:title=" ">
<path fill="none" stroke="#63b8ff" d="M1155.64,-341.7C1169.72,-339.85 1185.45,-337.79 1200.77,-335.79"/>
<polygon fill="#63b8ff" stroke="#63b8ff" points="1201.29,-339.25 1210.75,-334.48 1200.38,-332.31 1201.29,-339.25"/>
</a>
</g>
</g>
<!-- Node42 -->
<g id="Node000042" class="node">
<title>Node42</title>
<g id="a_Node000042"><a xlink:href="classutils_1_1Timeval.html#af8b19ac507d5120c815d07da9f5146b1" target="_top" xlink:title=" ">
<polygon fill="white" stroke="#666666" points="1168,-512.5 1045,-512.5 1045,-493.5 1168,-493.5 1168,-512.5"/>
<text text-anchor="middle" x="1106.5" y="-500.5" font-family="Helvetica,sans-Serif" font-size="10.00">utils::Timeval::normalize</text>
</a>
</g>
</g>
<!-- Node41&#45;&gt;Node42 -->
<g id="edge43_Node000041_Node000042" class="edge">
<title>Node41&#45;&gt;Node42</title>
<g id="a_edge43_Node000041_Node000042"><a xlink:title=" ">
<path fill="none" stroke="#63b8ff" d="M997.68,-503C1009.67,-503 1022.36,-503 1034.67,-503"/>
<polygon fill="#63b8ff" stroke="#63b8ff" points="1034.9,-506.5 1044.9,-503 1034.9,-499.5 1034.9,-506.5"/>
</a>
</g>
</g>
<!-- Node45 -->
<g id="Node000045" class="node">
<title>Node45</title>
<g id="a_Node000045"><a xlink:href="classcore_1_1timer_1_1IntervalTimer.html#a43563100fc459ce781dac1a12e9dea69" target="_top" xlink:title=" ">
<polygon fill="white" stroke="#666666" points="475,-352 349,-352 349,-322 475,-322 475,-352"/>
<text text-anchor="start" x="357" y="-340" font-family="Helvetica,sans-Serif" font-size="10.00">core::timer::IntervalTimer</text>
<text text-anchor="middle" x="412" y="-329" font-family="Helvetica,sans-Serif" font-size="10.00">::IntervalTimer</text>
</a>
</g>
</g>
<!-- Node44&#45;&gt;Node45 -->
<g id="edge46_Node000044_Node000045" class="edge">
<title>Node44&#45;&gt;Node45</title>
<g id="a_edge46_Node000044_Node000045"><a xlink:title=" ">
<path fill="none" stroke="#63b8ff" d="M262.21,-373.62C285.48,-367.9 314.2,-360.83 340.18,-354.43"/>
<polygon fill="#63b8ff" stroke="#63b8ff" points="341.11,-357.81 349.98,-352.02 339.44,-351.01 341.11,-357.81"/>
</a>
</g>
</g>
<!-- Node45&#45;&gt;Node32 -->
<g id="edge47_Node000045_Node000032" class="edge">
<title>Node45&#45;&gt;Node32</title>
<g id="a_edge47_Node000045_Node000032"><a xlink:title=" ">
<path fill="none" stroke="#63b8ff" d="M475.15,-334.4C527.75,-334.16 604.36,-338.52 667,-361 695.63,-371.27 723.93,-391.59 743.17,-407.35"/>
<polygon fill="#63b8ff" stroke="#63b8ff" points="740.92,-410.03 750.83,-413.78 745.42,-404.67 740.92,-410.03"/>
</a>
</g>
</g>
<!-- Node47&#45;&gt;Node17 -->
<g id="edge53_Node000047_Node000017" class="edge">
<title>Node47&#45;&gt;Node17</title>
<g id="a_edge53_Node000047_Node000017"><a xlink:title=" ">
<path fill="none" stroke="#63b8ff" d="M263.17,-292.67C274.5,-289.23 286.39,-285.01 297,-280 306.68,-275.43 358.72,-239.49 389.04,-218.36"/>
<polygon fill="#63b8ff" stroke="#63b8ff" points="391.12,-221.18 397.32,-212.58 387.12,-215.44 391.12,-221.18"/>
</a>
</g>
</g>
<!-- Node48 -->
<g id="Node000048" class="node">
<title>Node48</title>
<g id="a_Node000048"><a xlink:href="classiot_1_1mqtt_1_1packets_1_1Pingreq.html#aee06249dc1efcc56e7dc6bf17db7a31c" target="_top" xlink:title=" ">
<polygon fill="white" stroke="#666666" points="644.5,-266 549.5,-266 549.5,-236 644.5,-236 644.5,-266"/>
<text text-anchor="start" x="557.5" y="-254" font-family="Helvetica,sans-Serif" font-size="10.00">iot::mqtt::packets</text>
<text text-anchor="middle" x="597" y="-243" font-family="Helvetica,sans-Serif" font-size="10.00">::Pingreq::Pingreq</text>
</a>
</g>
</g>
<!-- Node47&#45;&gt;Node48 -->
<g id="edge51_Node000047_Node000048" class="edge">
<title>Node47&#45;&gt;Node48</title>
<g id="a_edge51_Node000047_Node000048"><a xlink:title=" ">
<path fill="none" stroke="#63b8ff" d="M263.36,-297.39C333.29,-287.64 463.96,-269.42 539.03,-258.95"/>
<polygon fill="#63b8ff" stroke="#63b8ff" points="539.82,-262.37 549.24,-257.52 538.85,-255.44 539.82,-262.37"/>
</a>
</g>
</g>
<!-- Node48&#45;&gt;Node16 -->
<g id="edge52_Node000048_Node000016" class="edge">
<title>Node48&#45;&gt;Node16</title>
<g id="a_edge52_Node000048_Node000016"><a xlink:title=" ">
<path fill="none" stroke="#63b8ff" d="M644.77,-258.73C661.07,-261.42 679.73,-264.5 697.5,-267.44"/>
<polygon fill="#63b8ff" stroke="#63b8ff" points="697.4,-270.97 707.84,-269.14 698.54,-264.06 697.4,-270.97"/>
</a>
</g>
</g>
</g>
</svg>
