<?xml version="1.0" encoding="UTF-8" standalone="no"?>
<!DOCTYPE svg PUBLIC "-//W3C//DTD SVG 1.1//EN"
 "http://www.w3.org/Graphics/SVG/1.1/DTD/svg11.dtd">
<!-- Generated by graphviz version 2.43.0 (0)
 -->
<!-- Title: iot::mqtt::packets::Subscribe::serializeVP Pages: 1 -->
<svg width="448pt" height="59pt"
 viewBox="0.00 0.00 448.00 59.00" xmlns="http://www.w3.org/2000/svg" xmlns:xlink="http://www.w3.org/1999/xlink">
<g id="graph0" class="graph" transform="scale(1 1) rotate(0) translate(4 55)">
<title>iot::mqtt::packets::Subscribe::serializeVP</title>
<!-- Node1 -->
<g id="Node000001" class="node">
<title>Node1</title>
<g id="a_Node000001"><a xlink:title=" ">
<polygon fill="#999999" stroke="#666666" points="122,-51 0,-51 0,-21 122,-21 122,-51"/>
<text text-anchor="start" x="8" y="-39" font-family="Helvetica,sans-Serif" font-size="10.00">iot::mqtt::packets</text>
<text text-anchor="middle" x="61" y="-28" font-family="Helvetica,sans-Serif" font-size="10.00">::Subscribe::serializeVP</text>
</a>
</g>
</g>
<!-- Node2 -->
<g id="Node000002" class="node">
<title>Node2</title>
<g id="a_Node000002"><a xlink:href="classiot_1_1mqtt_1_1types_1_1TypeBase.html#a7e6939bfafb586b2c2990b485bc5218a" target="_top" xlink:title=" ">
<polygon fill="white" stroke="#666666" points="440,-51 308,-51 308,-21 440,-21 440,-51"/>
<text text-anchor="start" x="316" y="-39" font-family="Helvetica,sans-Serif" font-size="10.00">iot::mqtt::types::TypeBase</text>
<text text-anchor="middle" x="374" y="-28" font-family="Helvetica,sans-Serif" font-size="10.00">::serialize</text>
</a>
</g>
</g>
<!-- Node1&#45;&gt;Node2 -->
<g id="edge1_Node000001_Node000002" class="edge">
<title>Node1&#45;&gt;Node2</title>
<g id="a_edge1_Node000001_Node000002"><a xlink:title=" ">
<path fill="none" stroke="#63b8ff" d="M122.17,-38.17C134.04,-38.52 146.41,-38.82 158,-39 208.66,-39.79 221.34,-39.75 272,-39 280.32,-38.88 289.03,-38.7 297.69,-38.48"/>
<polygon fill="#63b8ff" stroke="#63b8ff" points="297.9,-41.98 307.81,-38.22 297.72,-34.98 297.9,-41.98"/>
</a>
</g>
</g>
<!-- Node3 -->
<g id="Node000003" class="node">
<title>Node3</title>
<g id="a_Node000003"><a xlink:href="classiot_1_1mqtt_1_1types_1_1String.html#ab52298f43269e8d06d285d1ab895e822" target="_top" xlink:title=" ">
<polygon fill="white" stroke="#666666" points="272,-30 158,-30 158,0 272,0 272,-30"/>
<text text-anchor="start" x="166" y="-18" font-family="Helvetica,sans-Serif" font-size="10.00">iot::mqtt::types::String</text>
<text text-anchor="middle" x="215" y="-7" font-family="Helvetica,sans-Serif" font-size="10.00">::serialize</text>
</a>
</g>
</g>
<!-- Node1&#45;&gt;Node3 -->
<g id="edge2_Node000001_Node000003" class="edge">
<title>Node1&#45;&gt;Node3</title>
<g id="a_edge2_Node000001_Node000003"><a xlink:title=" ">
<path fill="none" stroke="#63b8ff" d="M122.07,-27.7C130.54,-26.53 139.29,-25.32 147.86,-24.14"/>
<polygon fill="#63b8ff" stroke="#63b8ff" points="148.4,-27.6 157.83,-22.76 147.44,-20.66 148.4,-27.6"/>
</a>
</g>
</g>
<!-- Node3&#45;&gt;Node2 -->
<g id="edge3_Node000003_Node000002" class="edge">
<title>Node3&#45;&gt;Node2</title>
<g id="a_edge3_Node000003_Node000002"><a xlink:title=" ">
<path fill="none" stroke="#63b8ff" d="M272.24,-22.52C280.52,-23.63 289.17,-24.79 297.76,-25.94"/>
<polygon fill="#63b8ff" stroke="#63b8ff" points="297.42,-29.42 307.8,-27.28 298.35,-22.48 297.42,-29.42"/>
</a>
</g>
</g>
</g>
</svg>
