<?xml version="1.0" encoding="UTF-8" standalone="no"?>
<!DOCTYPE svg PUBLIC "-//W3C//DTD SVG 1.1//EN"
 "http://www.w3.org/Graphics/SVG/1.1/DTD/svg11.dtd">
<!-- Generated by graphviz version 2.42.4 (0)
 -->
<!-- Title: net::un::stream::legacy::config::ConfigSocketClient Pages: 1 -->
<!--zoomable 588 -->

<svg id="main" version="1.1" xmlns="http://www.w3.org/2000/svg" xmlns:xlink="http://www.w3.org/1999/xlink" xml:space="preserve" onload="init(evt)">
<style type="text/css"><![CDATA[
.node, .edge {opacity: 0.7;}
.node.selected, .edge.selected {opacity: 1;}
.edge:hover path { stroke: red; }
.edge:hover polygon { stroke: red; fill: red; }
]]></style>

<defs>
  <circle id="rim" cx="0" cy="0" r="7"/>
  <circle id="rim2" cx="0" cy="0" r="3.5"/>
  <g id="zoomPlus">
    <use xlink:href="#rim" fill="#404040"><set attributeName="fill" to="#808080" begin="zoomplus.mouseover" end="zoomplus.mouseout"/></use>
    <path d="M-4,0h8M0,-4v8" fill="none" stroke="white" stroke-width="1.5" pointer-events="none"/>
  </g>
  <g id="zoomMin">
    <use xlink:href="#rim" fill="#404040"><set attributeName="fill" to="#808080" begin="zoomminus.mouseover" end="zoomminus.mouseout"/></use>
    <path d="M-4,0h8" fill="none" stroke="white" stroke-width="1.5" pointer-events="none"/>
  </g>
  <g id="arrowUp" transform="translate(30 24)">
    <use xlink:href="#rim"/>
    <path pointer-events="none" fill="none" stroke="white" stroke-width="1.5" d="M0,-3.0v7 M-2.5,-0.5L0,-3.0L2.5,-0.5"/>
  </g>
  <g id="arrowRight" transform="rotate(90) translate(36 -43)">
    <use xlink:href="#rim"/>
    <path pointer-events="none" fill="none" stroke="white" stroke-width="1.5" d="M0,-3.0v7 M-2.5,-0.5L0,-3.0L2.5,-0.5"/>
  </g>
  <g id="arrowDown" transform="rotate(180) translate(-30 -48)">
    <use xlink:href="#rim"/>
    <path pointer-events="none" fill="none" stroke="white" stroke-width="1.5" d="M0,-3.0v7 M-2.5,-0.5L0,-3.0L2.5,-0.5"/>
  </g>
  <g id="arrowLeft" transform="rotate(270) translate(-36 17)">
    <use xlink:href="#rim"/>
    <path pointer-events="none" fill="none" stroke="white" stroke-width="1.5" d="M0,-3.0v7 M-2.5,-0.5L0,-3.0L2.5,-0.5"/>
  </g>
  <g id="resetDef">
    <use xlink:href="#rim2" fill="#404040"><set attributeName="fill" to="#808080" begin="reset.mouseover" end="reset.mouseout"/></use>
  </g>
</defs>
<script type="application/ecmascript">
var viewWidth = 628;
var viewHeight = 588;
var sectionId = 'dynsection-0';
</script>
<script type="application/ecmascript" xlink:href="svg.min.js"/>
<svg id="graph" class="graph">
<g id="viewport">
<title>net::un::stream::legacy::config::ConfigSocketClient</title>
<!-- Node1 -->
<g id="Node000001" class="node">
<title>Node1</title>
<g id="a_Node000001"><a xlink:title=" ">
<polygon fill="#999999" stroke="transparent" points="487,-30 355,-30 355,0 487,0 487,-30"/>
<text text-anchor="start" x="359" y="-18" font-family="Helvetica,sans-Serif" font-size="10.00">net::un::stream::legacy</text>
<text text-anchor="start" x="359" y="-7" font-family="Helvetica,sans-Serif" font-size="10.00">::config::ConfigSocketClient</text>
<polygon fill="none" stroke="#666666" points="355,0 355,-30 487,-30 487,0 355,0"/>
</a>
</g>
</g>
<!-- Node2 -->
<g id="Node000002" class="node">
<title>Node2</title>
<g id="a_Node000002"><a xlink:href="classnet_1_1config_1_1stream_1_1legacy_1_1ConfigSocketClient.html" target="_top" xlink:title=" ">
<polygon fill="white" stroke="transparent" points="488,-118 354,-118 354,-66 488,-66 488,-118"/>
<text text-anchor="start" x="358" y="-106" font-family="Helvetica,sans-Serif" font-size="10.00">net::config::stream</text>
<text text-anchor="start" x="358" y="-95" font-family="Helvetica,sans-Serif" font-size="10.00">::legacy::ConfigSocketClient</text>
<text text-anchor="start" x="358" y="-84" font-family="Helvetica,sans-Serif" font-size="10.00">&lt; net::un::stream::config</text>
<text text-anchor="start" x="371" y="-73" font-family="Helvetica,sans-Serif" font-size="10.00">::ConfigSocketClient &gt;</text>
<polygon fill="none" stroke="#666666" points="354,-66 354,-118 488,-118 488,-66 354,-66"/>
</a>
</g>
</g>
<!-- Node2&#45;&gt;Node1 -->
<g id="edge1_Node000001_Node000002" class="edge">
<title>Node2&#45;&gt;Node1</title>
<g id="a_edge1_Node000001_Node000002"><a xlink:title=" ">
<path fill="none" stroke="#63b8ff" d="M421,-55.41C421,-46.57 421,-37.58 421,-30.43"/>
<polygon fill="none" stroke="#63b8ff" points="417.5,-55.61 421,-65.61 424.5,-55.61 417.5,-55.61"/>
</a>
</g>
</g>
<!-- Node3 -->
<g id="Node000003" class="node">
<title>Node3</title>
<g id="a_Node000003"><a xlink:href="classnet_1_1config_1_1ConfigInstance.html" target="_top" xlink:title=" ">
<polygon fill="white" stroke="transparent" points="349,-178.5 223,-178.5 223,-159.5 349,-159.5 349,-178.5"/>
<text text-anchor="start" x="227" y="-166" font-family="Helvetica,sans-Serif" font-size="10.00">net::config::ConfigInstance</text>
<polygon fill="none" stroke="#666666" points="223,-159.5 223,-178.5 349,-178.5 349,-159.5 223,-159.5"/>
</a>
</g>
</g>
<!-- Node3&#45;&gt;Node2 -->
<g id="edge2_Node000002_Node000003" class="edge">
<title>Node3&#45;&gt;Node2</title>
<g id="a_edge2_Node000002_Node000003"><a xlink:title=" ">
<path fill="none" stroke="#63b8ff" d="M310.28,-154.51C328.45,-144.42 353.85,-130.31 375.73,-118.15"/>
<polygon fill="none" stroke="#63b8ff" points="308.53,-151.48 301.49,-159.4 311.93,-157.6 308.53,-151.48"/>
</a>
</g>
</g>
<!-- Node4 -->
<g id="Node000004" class="node">
<title>Node4</title>
<g id="a_Node000004"><a xlink:href="classnet_1_1un_1_1stream_1_1config_1_1ConfigSocketClient.html" target="_top" xlink:title=" ">
<polygon fill="white" stroke="transparent" points="475,-184 367,-184 367,-154 475,-154 475,-184"/>
<text text-anchor="start" x="371.5" y="-172" font-family="Helvetica,sans-Serif" font-size="10.00">net::un::stream::config</text>
<text text-anchor="start" x="375.5" y="-161" font-family="Helvetica,sans-Serif" font-size="10.00">::ConfigSocketClient</text>
<polygon fill="none" stroke="#666666" points="367,-154 367,-184 475,-184 475,-154 367,-154"/>
</a>
</g>
</g>
<!-- Node4&#45;&gt;Node2 -->
<g id="edge3_Node000002_Node000004" class="edge">
<title>Node4&#45;&gt;Node2</title>
<g id="a_edge3_Node000002_Node000004"><a xlink:title=" ">
<path fill="none" stroke="#63b8ff" d="M421,-143.86C421,-135.69 421,-126.54 421,-118.28"/>
<polygon fill="none" stroke="#63b8ff" points="417.5,-143.89 421,-153.89 424.5,-143.89 417.5,-143.89"/>
</a>
</g>
</g>
<!-- Node5 -->
<g id="Node000005" class="node">
<title>Node5</title>
<g id="a_Node000005"><a xlink:href="classnet_1_1config_1_1stream_1_1ConfigSocketClient.html" target="_top" xlink:title=" ">
<polygon fill="white" stroke="transparent" points="470,-261 310,-261 310,-220 470,-220 470,-261"/>
<text text-anchor="start" x="314.5" y="-248.5" font-family="Helvetica,sans-Serif" font-size="10.00">net::config::stream</text>
<text text-anchor="start" x="314.5" y="-237.5" font-family="Helvetica,sans-Serif" font-size="10.00">::ConfigSocketClient</text>
<text text-anchor="start" x="314.5" y="-226.5" font-family="Helvetica,sans-Serif" font-size="10.00">&lt; net::un::config::ConfigAddress &gt;</text>
<polygon fill="none" stroke="#666666" points="310,-220 310,-261 470,-261 470,-220 310,-220"/>
</a>
</g>
</g>
<!-- Node5&#45;&gt;Node4 -->
<g id="edge4_Node000004_Node000005" class="edge">
<title>Node5&#45;&gt;Node4</title>
<g id="a_edge4_Node000004_Node000005"><a xlink:title=" ">
<path fill="none" stroke="#63b8ff" d="M402.92,-210.53C407.01,-201.37 411.34,-191.66 414.74,-184.04"/>
<polygon fill="none" stroke="#63b8ff" points="399.68,-209.21 398.8,-219.77 406.07,-212.06 399.68,-209.21"/>
</a>
</g>
</g>
<!-- Node6 -->
<g id="Node000006" class="node">
<title>Node6</title>
<g id="a_Node000006"><a xlink:href="classnet_1_1un_1_1config_1_1ConfigAddress.html" target="_top" xlink:title=" ">
<polygon fill="white" stroke="transparent" points="178,-327 0,-327 0,-297 178,-297 178,-327"/>
<text text-anchor="start" x="4.5" y="-315" font-family="Helvetica,sans-Serif" font-size="10.00">net::un::config::ConfigAddress</text>
<text text-anchor="start" x="4.5" y="-304" font-family="Helvetica,sans-Serif" font-size="10.00">&lt; net::config::ConfigAddressRemote &gt;</text>
<polygon fill="none" stroke="#666666" points="0,-297 0,-327 178,-327 178,-297 0,-297"/>
</a>
</g>
</g>
<!-- Node6&#45;&gt;Node5 -->
<g id="edge5_Node000005_Node000006" class="edge">
<title>Node6&#45;&gt;Node5</title>
<g id="a_edge5_Node000005_Node000006"><a xlink:title=" ">
<path fill="none" stroke="#63b8ff" d="M159.87,-294.64C204.83,-284.26 263.1,-270.8 309.76,-260.03"/>
<polygon fill="none" stroke="#63b8ff" points="158.87,-291.28 149.91,-296.94 160.44,-298.1 158.87,-291.28"/>
</a>
</g>
</g>
<!-- Node7 -->
<g id="Node000007" class="node">
<title>Node7</title>
<g id="a_Node000007"><a xlink:href="classnet_1_1config_1_1ConfigAddressRemote.html" target="_top" xlink:title=" ">
<polygon fill="white" stroke="transparent" points="175,-393 11,-393 11,-363 175,-363 175,-393"/>
<text text-anchor="start" x="15" y="-381" font-family="Helvetica,sans-Serif" font-size="10.00">net::config::ConfigAddress</text>
<text text-anchor="start" x="15" y="-370" font-family="Helvetica,sans-Serif" font-size="10.00">Remote&lt; net::un::SocketAddress &gt;</text>
<polygon fill="none" stroke="#666666" points="11,-363 11,-393 175,-393 175,-363 11,-363"/>
</a>
</g>
</g>
<!-- Node7&#45;&gt;Node6 -->
<g id="edge6_Node000006_Node000007" class="edge">
<title>Node7&#45;&gt;Node6</title>
<g id="a_edge6_Node000006_Node000007"><a xlink:title=" ">
<path fill="none" stroke="#63b8ff" d="M91.47,-352.54C90.94,-343.96 90.35,-334.61 89.89,-327.16"/>
<polygon fill="none" stroke="#63b8ff" points="88,-353.03 92.11,-362.8 94.98,-352.6 88,-353.03"/>
</a>
</g>
</g>
<!-- Node8 -->
<g id="Node000008" class="node">
<title>Node8</title>
<g id="a_Node000008"><a xlink:href="classnet_1_1config_1_1ConfigAddress.html" target="_top" xlink:title=" ">
<polygon fill="white" stroke="transparent" points="303,-459 173,-459 173,-429 303,-429 303,-459"/>
<text text-anchor="start" x="177.5" y="-447" font-family="Helvetica,sans-Serif" font-size="10.00">net::config::ConfigAddress</text>
<text text-anchor="start" x="177.5" y="-436" font-family="Helvetica,sans-Serif" font-size="10.00">&lt; net::un::SocketAddress &gt;</text>
<polygon fill="none" stroke="#666666" points="173,-429 173,-459 303,-459 303,-429 173,-429"/>
</a>
</g>
</g>
<!-- Node8&#45;&gt;Node7 -->
<g id="edge7_Node000007_Node000008" class="edge">
<title>Node8&#45;&gt;Node7</title>
<g id="a_edge7_Node000007_Node000008"><a xlink:title=" ">
<path fill="none" stroke="#63b8ff" d="M196.73,-424.78C173.87,-414.69 145.88,-402.34 124.75,-393.01"/>
<polygon fill="none" stroke="#63b8ff" points="195.62,-428.12 206.18,-428.95 198.44,-421.71 195.62,-428.12"/>
</a>
</g>
</g>
<!-- Node12 -->
<g id="Node000012" class="node">
<title>Node12</title>
<g id="a_Node000012"><a xlink:href="classnet_1_1config_1_1ConfigAddressLocal.html" target="_top" xlink:title=" ">
<polygon fill="white" stroke="transparent" points="350,-393 196,-393 196,-363 350,-363 350,-393"/>
<text text-anchor="start" x="200.5" y="-381" font-family="Helvetica,sans-Serif" font-size="10.00">net::config::ConfigAddress</text>
<text text-anchor="start" x="200.5" y="-370" font-family="Helvetica,sans-Serif" font-size="10.00">Local&lt; net::un::SocketAddress &gt;</text>
<polygon fill="none" stroke="#666666" points="196,-363 196,-393 350,-393 350,-363 196,-363"/>
</a>
</g>
</g>
<!-- Node8&#45;&gt;Node12 -->
<g id="edge12_Node000012_Node000008" class="edge">
<title>Node8&#45;&gt;Node12</title>
<g id="a_edge12_Node000012_Node000008"><a xlink:title=" ">
<path fill="none" stroke="#63b8ff" d="M250.6,-419.96C255.5,-411 260.95,-401.03 265.25,-393.16"/>
<polygon fill="none" stroke="#63b8ff" points="247.5,-418.34 245.77,-428.8 253.64,-421.7 247.5,-418.34"/>
</a>
</g>
</g>
<!-- Node9 -->
<g id="Node000009" class="node">
<title>Node9</title>
<g id="a_Node000009"><a xlink:href="classnet_1_1config_1_1ConfigAddressBase.html" target="_top" xlink:title=" ">
<polygon fill="white" stroke="transparent" points="338,-525 186,-525 186,-495 338,-495 338,-525"/>
<text text-anchor="start" x="190" y="-513" font-family="Helvetica,sans-Serif" font-size="10.00">net::config::ConfigAddress</text>
<text text-anchor="start" x="190" y="-502" font-family="Helvetica,sans-Serif" font-size="10.00">Base&lt; net::un::SocketAddress &gt;</text>
<polygon fill="none" stroke="#666666" points="186,-495 186,-525 338,-525 338,-495 186,-495"/>
</a>
</g>
</g>
<!-- Node9&#45;&gt;Node8 -->
<g id="edge8_Node000008_Node000009" class="edge">
<title>Node9&#45;&gt;Node8</title>
<g id="a_edge8_Node000008_Node000009"><a xlink:title=" ">
<path fill="none" stroke="#63b8ff" d="M253.15,-485.39C249.84,-476.59 246.2,-466.86 243.31,-459.16"/>
<polygon fill="none" stroke="#63b8ff" points="249.89,-486.66 256.67,-494.8 256.44,-484.2 249.89,-486.66"/>
</a>
</g>
</g>
<!-- Node10 -->
<g id="Node000010" class="node">
<title>Node10</title>
<g id="a_Node000010"><a xlink:href="classnet_1_1config_1_1ConfigSection.html" target="_top" xlink:title=" ">
<polygon fill="white" stroke="transparent" points="496,-580 374,-580 374,-561 496,-561 496,-580"/>
<text text-anchor="start" x="378" y="-567.5" font-family="Helvetica,sans-Serif" font-size="10.00">net::config::ConfigSection</text>
<polygon fill="none" stroke="#666666" points="374,-561 374,-580 496,-580 496,-561 374,-561"/>
</a>
</g>
</g>
<!-- Node10&#45;&gt;Node9 -->
<g id="edge9_Node000009_Node000010" class="edge">
<title>Node10&#45;&gt;Node9</title>
<g id="a_edge9_Node000009_Node000010"><a xlink:title=" ">
<path fill="none" stroke="darkgreen" d="M400.12,-557.71C372.25,-548.28 333.1,-535.04 303.59,-525.06"/>
<polygon fill="none" stroke="darkgreen" points="399.25,-561.11 409.84,-560.99 401.49,-554.47 399.25,-561.11"/>
</a>
</g>
</g>
<!-- Node13 -->
<g id="Node000013" class="node">
<title>Node13</title>
<g id="a_Node000013"><a xlink:href="classnet_1_1config_1_1ConfigConnection.html" target="_top" xlink:title=" ">
<polygon fill="white" stroke="transparent" points="459,-453.5 321,-453.5 321,-434.5 459,-434.5 459,-453.5"/>
<text text-anchor="start" x="325" y="-441" font-family="Helvetica,sans-Serif" font-size="10.00">net::config::ConfigConnection</text>
<polygon fill="none" stroke="#666666" points="321,-434.5 321,-453.5 459,-453.5 459,-434.5 321,-434.5"/>
</a>
</g>
</g>
<!-- Node10&#45;&gt;Node13 -->
<g id="edge14_Node000013_Node000010" class="edge">
<title>Node10&#45;&gt;Node13</title>
<g id="a_edge14_Node000013_Node000010"><a xlink:title=" ">
<path fill="none" stroke="darkgreen" d="M423.32,-552.26C418.32,-544.25 412.78,-534.43 409,-525 399.02,-500.09 393.45,-468.62 391.2,-453.66"/>
<polygon fill="none" stroke="darkgreen" points="420.42,-554.22 428.8,-560.7 426.29,-550.41 420.42,-554.22"/>
</a>
</g>
</g>
<!-- Node15 -->
<g id="Node000015" class="node">
<title>Node15</title>
<g id="a_Node000015"><a xlink:href="classnet_1_1config_1_1ConfigPhysicalSocket.html" target="_top" xlink:title=" ">
<polygon fill="white" stroke="transparent" points="544,-525 418,-525 418,-495 544,-495 544,-525"/>
<text text-anchor="start" x="422" y="-513" font-family="Helvetica,sans-Serif" font-size="10.00">net::config::ConfigPhysical</text>
<text text-anchor="start" x="465.5" y="-502" font-family="Helvetica,sans-Serif" font-size="10.00">Socket</text>
<polygon fill="none" stroke="#666666" points="418,-495 418,-525 544,-525 544,-495 418,-495"/>
</a>
</g>
</g>
<!-- Node10&#45;&gt;Node15 -->
<g id="edge17_Node000015_Node000010" class="edge">
<title>Node10&#45;&gt;Node15</title>
<g id="a_edge17_Node000015_Node000010"><a xlink:title=" ">
<path fill="none" stroke="darkgreen" d="M448.07,-552.88C454.96,-544.11 463.33,-533.48 469.9,-525.11"/>
<polygon fill="none" stroke="darkgreen" points="445.22,-550.84 441.79,-560.87 450.72,-555.17 445.22,-550.84"/>
</a>
</g>
</g>
<!-- Node16 -->
<g id="Node000016" class="node">
<title>Node16</title>
<g id="a_Node000016"><a xlink:href="classnet_1_1config_1_1ConfigLegacy.html" target="_top" xlink:title=" ">
<polygon fill="white" stroke="transparent" points="620,-250 500,-250 500,-231 620,-231 620,-250"/>
<text text-anchor="start" x="504" y="-237.5" font-family="Helvetica,sans-Serif" font-size="10.00">net::config::ConfigLegacy</text>
<polygon fill="none" stroke="#666666" points="500,-231 500,-250 620,-250 620,-231 500,-231"/>
</a>
</g>
</g>
<!-- Node10&#45;&gt;Node16 -->
<g id="edge19_Node000016_Node000010" class="edge">
<title>Node10&#45;&gt;Node16</title>
<g id="a_edge19_Node000016_Node000010"><a xlink:title=" ">
<path fill="none" stroke="darkgreen" d="M497.92,-558.06C518.04,-551.49 538.77,-541.17 553,-525 577.14,-497.57 572,-481.54 572,-445 572,-445 572,-445 572,-377 572,-328.82 564.38,-271.38 561.28,-250.04"/>
<polygon fill="none" stroke="darkgreen" points="496.7,-554.77 488.12,-560.99 498.7,-561.48 496.7,-554.77"/>
</a>
</g>
</g>
<!-- Node11 -->
<g id="Node000011" class="node">
<title>Node11</title>
<g id="a_Node000011"><a xlink:href="classnet_1_1un_1_1config_1_1ConfigAddress.html" target="_top" xlink:title=" ">
<polygon fill="white" stroke="transparent" points="362,-327 196,-327 196,-297 362,-297 362,-327"/>
<text text-anchor="start" x="200" y="-315" font-family="Helvetica,sans-Serif" font-size="10.00">net::un::config::ConfigAddress</text>
<text text-anchor="start" x="200" y="-304" font-family="Helvetica,sans-Serif" font-size="10.00">&lt; net::config::ConfigAddressLocal &gt;</text>
<polygon fill="none" stroke="#666666" points="196,-297 196,-327 362,-327 362,-297 196,-297"/>
</a>
</g>
</g>
<!-- Node11&#45;&gt;Node5 -->
<g id="edge10_Node000005_Node000011" class="edge">
<title>Node11&#45;&gt;Node5</title>
<g id="a_edge10_Node000005_Node000011"><a xlink:title=" ">
<path fill="none" stroke="#63b8ff" d="M310.02,-291.58C325.22,-282.06 343.5,-270.62 358.74,-261.07"/>
<polygon fill="none" stroke="#63b8ff" points="308.08,-288.66 301.46,-296.94 311.8,-294.6 308.08,-288.66"/>
</a>
</g>
</g>
<!-- Node12&#45;&gt;Node11 -->
<g id="edge11_Node000011_Node000012" class="edge">
<title>Node12&#45;&gt;Node11</title>
<g id="a_edge11_Node000011_Node000012"><a xlink:title=" ">
<path fill="none" stroke="#63b8ff" d="M275.27,-352.83C276.08,-344.17 276.97,-334.7 277.67,-327.16"/>
<polygon fill="none" stroke="#63b8ff" points="271.78,-352.51 274.33,-362.8 278.75,-353.17 271.78,-352.51"/>
</a>
</g>
</g>
<!-- Node13&#45;&gt;Node5 -->
<g id="edge13_Node000005_Node000013" class="edge">
<title>Node13&#45;&gt;Node5</title>
<g id="a_edge13_Node000005_Node000013"><a xlink:title=" ">
<path fill="none" stroke="#63b8ff" d="M390,-424.14C390,-385.98 390,-299.95 390,-261.14"/>
<polygon fill="none" stroke="#63b8ff" points="386.5,-424.34 390,-434.34 393.5,-424.34 386.5,-424.34"/>
</a>
</g>
</g>
<!-- Node14 -->
<g id="Node000014" class="node">
<title>Node14</title>
<g id="a_Node000014"><a xlink:href="classnet_1_1config_1_1ConfigPhysicalSocketClient.html" target="_top" xlink:title=" ">
<polygon fill="white" stroke="transparent" points="544,-393 418,-393 418,-363 544,-363 544,-393"/>
<text text-anchor="start" x="422" y="-381" font-family="Helvetica,sans-Serif" font-size="10.00">net::config::ConfigPhysical</text>
<text text-anchor="start" x="452.5" y="-370" font-family="Helvetica,sans-Serif" font-size="10.00">SocketClient</text>
<polygon fill="none" stroke="#666666" points="418,-363 418,-393 544,-393 544,-363 418,-363"/>
</a>
</g>
</g>
<!-- Node14&#45;&gt;Node5 -->
<g id="edge15_Node000005_Node000014" class="edge">
<title>Node14&#45;&gt;Node5</title>
<g id="a_edge15_Node000005_Node000014"><a xlink:title=" ">
<path fill="none" stroke="#63b8ff" d="M465.74,-354.27C448.24,-328.21 419.84,-285.93 403.24,-261.21"/>
<polygon fill="none" stroke="#63b8ff" points="462.95,-356.4 471.43,-362.76 468.76,-352.5 462.95,-356.4"/>
</a>
</g>
</g>
<!-- Node15&#45;&gt;Node14 -->
<g id="edge16_Node000014_Node000015" class="edge">
<title>Node15&#45;&gt;Node14</title>
<g id="a_edge16_Node000014_Node000015"><a xlink:title=" ">
<path fill="none" stroke="#63b8ff" d="M481,-484.68C481,-457.7 481,-415.11 481,-393.14"/>
<polygon fill="none" stroke="#63b8ff" points="477.5,-484.84 481,-494.84 484.5,-484.84 477.5,-484.84"/>
</a>
</g>
</g>
<!-- Node16&#45;&gt;Node2 -->
<g id="edge18_Node000002_Node000016" class="edge">
<title>Node16&#45;&gt;Node2</title>
<g id="a_edge18_Node000002_Node000016"><a xlink:title=" ">
<path fill="none" stroke="#63b8ff" d="M546.14,-223.19C531.17,-205.74 506.44,-177.41 484,-154 472.41,-141.91 459.15,-128.95 447.79,-118.09"/>
<polygon fill="none" stroke="#63b8ff" points="543.5,-225.49 552.66,-230.81 548.82,-220.94 543.5,-225.49"/>
</a>
</g>
</g>
</g>
</svg>

<g id="navigator" transform="translate(0 0)" fill="#404254">
  <rect fill="#f2f5e9" fill-opacity="0.5" stroke="#606060" stroke-width=".5" x="0" y="0" width="60" height="60"/>
  <use id="zoomplus" xlink:href="#zoomPlus" x="17" y="9" onmousedown="handleZoom(evt,'in')"/>
  <use id="zoomminus" xlink:href="#zoomMin" x="42" y="9" onmousedown="handleZoom(evt,'out')"/>
  <use id="reset" xlink:href="#resetDef" x="30" y="36" onmousedown="handleReset()"/>
   <use id="arrowup" xlink:href="#arrowUp" x="0" y="0" onmousedown="handlePan(0,-1)"/>
  <use id="arrowright" xlink:href="#arrowRight" x="0" y="0" onmousedown="handlePan(1,0)"/>
  <use id="arrowdown" xlink:href="#arrowDown" x="0" y="0" onmousedown="handlePan(0,1)"/>
  <use id="arrowleft" xlink:href="#arrowLeft" x="0" y="0" onmousedown="handlePan(-1,0)"/>
</g>
<svg viewBox="0 0 15 15" width="100%" height="30px" preserveAspectRatio="xMaxYMin meet">
 <g id="arrow_out" transform="scale(0.3 0.3)">
  <a xlink:href="classnet_1_1un_1_1stream_1_1legacy_1_1config_1_1ConfigSocketClient__inherit__graph_org.svg" target="_base">
   <rect id="button" ry="5" rx="5" y="6" x="6" height="38" width="38"
        fill="#f2f5e9" fill-opacity="0.5" stroke="#606060" stroke-width="1.0"/>
   <path id="arrow"
     d="M 11.500037,31.436501 C 11.940474,20.09759 22.043105,11.32322 32.158766,21.979434 L 37.068811,17.246167 C 37.068811,17.246167 37.088388,32 37.088388,32 L 22.160133,31.978069 C 22.160133,31.978069 26.997745,27.140456 26.997745,27.140456 C 18.528582,18.264221 13.291696,25.230495 11.500037,31.436501 z"
     style="fill:#404040;"/>
  </a>
 </g>
</svg>

<style type='text/css'>
<![CDATA[
[data-mouse-over-selected='false'] { opacity: 0.7; }
[data-mouse-over-selected='true']  { opacity: 1.0; }
]]>
</style>
<script type="application/ecmascript"><![CDATA[
document.addEventListener('DOMContentLoaded', (event) => {
  highlightEdges();
  highlightAdjacentNodes();
});
]]></script>
</svg>
