<?xml version="1.0" encoding="UTF-8" standalone="no"?>
<!DOCTYPE svg PUBLIC "-//W3C//DTD SVG 1.1//EN"
 "http://www.w3.org/Graphics/SVG/1.1/DTD/svg11.dtd">
<!-- Generated by graphviz version 2.43.0 (0)
 -->
<!-- Title: express::dispatcher::ApplicationDispatcher::dispatch Pages: 1 -->
<svg width="679pt" height="316pt"
 viewBox="0.00 0.00 679.00 316.00" xmlns="http://www.w3.org/2000/svg" xmlns:xlink="http://www.w3.org/1999/xlink">
<g id="graph0" class="graph" transform="scale(1 1) rotate(0) translate(4 312)">
<title>express::dispatcher::ApplicationDispatcher::dispatch</title>
<!-- Node1 -->
<g id="Node000001" class="node">
<title>Node1</title>
<g id="a_Node000001"><a xlink:title=" ">
<polygon fill="#999999" stroke="#666666" points="118,-174.5 0,-174.5 0,-133.5 118,-133.5 118,-174.5"/>
<text text-anchor="start" x="8" y="-162.5" font-family="Helvetica,sans-Serif" font-size="10.00">express::dispatcher</text>
<text text-anchor="start" x="8" y="-151.5" font-family="Helvetica,sans-Serif" font-size="10.00">::ApplicationDispatcher</text>
<text text-anchor="middle" x="59" y="-140.5" font-family="Helvetica,sans-Serif" font-size="10.00">::dispatch</text>
</a>
</g>
</g>
<!-- Node2 -->
<g id="Node000002" class="node">
<title>Node2</title>
<g id="a_Node000002"><a xlink:href="namespaceexpress_1_1dispatcher.html#a2b6de0cc8c5234f7908f51b740b4eb91" target="_top" xlink:title=" ">
<polygon fill="white" stroke="#666666" points="257,-212 154,-212 154,-182 257,-182 257,-212"/>
<text text-anchor="start" x="162" y="-200" font-family="Helvetica,sans-Serif" font-size="10.00">express::dispatcher</text>
<text text-anchor="middle" x="205.5" y="-189" font-family="Helvetica,sans-Serif" font-size="10.00">::checkForUrlMatch</text>
</a>
</g>
</g>
<!-- Node1&#45;&gt;Node2 -->
<g id="edge1_Node000001_Node000002" class="edge">
<title>Node1&#45;&gt;Node2</title>
<g id="a_edge1_Node000001_Node000002"><a xlink:title=" ">
<path fill="none" stroke="#63b8ff" d="M118.36,-171.37C126.8,-173.88 135.51,-176.47 144,-179"/>
<polygon fill="#63b8ff" stroke="#63b8ff" points="143.24,-182.42 153.83,-181.92 145.24,-175.71 143.24,-182.42"/>
</a>
</g>
</g>
<!-- Node3 -->
<g id="Node000003" class="node">
<title>Node3</title>
<g id="a_Node000003"><a xlink:href="namespaceexpress_1_1dispatcher.html#a8a7580a939d02f430b311ebe2285c651" target="_top" xlink:title=" ">
<polygon fill="white" stroke="#666666" points="395,-308 293,-308 293,-278 395,-278 395,-308"/>
<text text-anchor="start" x="301" y="-296" font-family="Helvetica,sans-Serif" font-size="10.00">express::dispatcher</text>
<text text-anchor="middle" x="344" y="-285" font-family="Helvetica,sans-Serif" font-size="10.00">::hasResult</text>
</a>
</g>
</g>
<!-- Node1&#45;&gt;Node3 -->
<g id="edge12_Node000001_Node000003" class="edge">
<title>Node1&#45;&gt;Node3</title>
<g id="a_edge12_Node000001_Node000003"><a xlink:title=" ">
<path fill="none" stroke="#63b8ff" d="M75.72,-174.55C92.76,-195.39 121.87,-227.07 154,-245 193.76,-267.18 243.9,-279.31 282.55,-285.82"/>
<polygon fill="#63b8ff" stroke="#63b8ff" points="282.19,-289.3 292.62,-287.43 283.3,-282.39 282.19,-289.3"/>
</a>
</g>
</g>
<!-- Node8 -->
<g id="Node000008" class="node">
<title>Node8</title>
<g id="a_Node000008"><a xlink:href="namespaceexpress_1_1dispatcher.html#aacf7e88044f162ed0a8bea3a00c068be" target="_top" xlink:title=" ">
<polygon fill="white" stroke="#666666" points="533,-169 431,-169 431,-139 533,-139 533,-169"/>
<text text-anchor="start" x="439" y="-157" font-family="Helvetica,sans-Serif" font-size="10.00">express::dispatcher</text>
<text text-anchor="middle" x="482" y="-146" font-family="Helvetica,sans-Serif" font-size="10.00">::path_concat</text>
</a>
</g>
</g>
<!-- Node1&#45;&gt;Node8 -->
<g id="edge13_Node000001_Node000008" class="edge">
<title>Node1&#45;&gt;Node8</title>
<g id="a_edge13_Node000001_Node000008"><a xlink:title=" ">
<path fill="none" stroke="#63b8ff" d="M118.1,-154C197.7,-154 339.98,-154 420.72,-154"/>
<polygon fill="#63b8ff" stroke="#63b8ff" points="420.73,-157.5 430.73,-154 420.73,-150.5 420.73,-157.5"/>
</a>
</g>
</g>
<!-- Node9 -->
<g id="Node000009" class="node">
<title>Node9</title>
<g id="a_Node000009"><a xlink:href="classexpress_1_1Controller.html#adc00f14eb275a0ef34ce9ffc7abfb4a6" target="_top" xlink:title=" ">
<polygon fill="white" stroke="#666666" points="255,-126 156,-126 156,-96 255,-96 255,-126"/>
<text text-anchor="start" x="164" y="-114" font-family="Helvetica,sans-Serif" font-size="10.00">express::Controller</text>
<text text-anchor="middle" x="205.5" y="-103" font-family="Helvetica,sans-Serif" font-size="10.00">::getFlags</text>
</a>
</g>
</g>
<!-- Node1&#45;&gt;Node9 -->
<g id="edge9_Node000001_Node000009" class="edge">
<title>Node1&#45;&gt;Node9</title>
<g id="a_edge9_Node000001_Node000009"><a xlink:title=" ">
<path fill="none" stroke="#63b8ff" d="M118.36,-136.63C127.45,-133.93 136.84,-131.13 145.93,-128.43"/>
<polygon fill="#63b8ff" stroke="#63b8ff" points="147.07,-131.74 155.65,-125.54 145.07,-125.03 147.07,-131.74"/>
</a>
</g>
</g>
<!-- Node10 -->
<g id="Node000010" class="node">
<title>Node10</title>
<g id="a_Node000010"><a xlink:href="classexpress_1_1Controller.html#a494def07f2dda52f0958c4062a52c959" target="_top" xlink:title=" ">
<polygon fill="white" stroke="#666666" points="255,-78 156,-78 156,-48 255,-48 255,-78"/>
<text text-anchor="start" x="164" y="-66" font-family="Helvetica,sans-Serif" font-size="10.00">express::Controller</text>
<text text-anchor="middle" x="205.5" y="-55" font-family="Helvetica,sans-Serif" font-size="10.00">::getRequest</text>
</a>
</g>
</g>
<!-- Node1&#45;&gt;Node10 -->
<g id="edge10_Node000001_Node000010" class="edge">
<title>Node1&#45;&gt;Node10</title>
<g id="a_edge10_Node000001_Node000010"><a xlink:title=" ">
<path fill="none" stroke="#63b8ff" d="M86.31,-133.35C104.71,-119.39 130.16,-101.02 154,-87 156.47,-85.55 159.04,-84.11 161.66,-82.7"/>
<polygon fill="#63b8ff" stroke="#63b8ff" points="163.37,-85.76 170.66,-78.07 160.17,-79.54 163.37,-85.76"/>
</a>
</g>
</g>
<!-- Node11 -->
<g id="Node000011" class="node">
<title>Node11</title>
<g id="a_Node000011"><a xlink:href="classexpress_1_1Controller.html#aafcd0fbe7ff947b243d28b6dee9baf98" target="_top" xlink:title=" ">
<polygon fill="white" stroke="#666666" points="255,-30 156,-30 156,0 255,0 255,-30"/>
<text text-anchor="start" x="164" y="-18" font-family="Helvetica,sans-Serif" font-size="10.00">express::Controller</text>
<text text-anchor="middle" x="205.5" y="-7" font-family="Helvetica,sans-Serif" font-size="10.00">::getResponse</text>
</a>
</g>
</g>
<!-- Node1&#45;&gt;Node11 -->
<g id="edge11_Node000001_Node000011" class="edge">
<title>Node1&#45;&gt;Node11</title>
<g id="a_edge11_Node000001_Node000011"><a xlink:title=" ">
<path fill="none" stroke="#63b8ff" d="M72.73,-133.38C89.01,-108.37 119.29,-66.19 154,-39 155.58,-37.77 157.23,-36.57 158.93,-35.43"/>
<polygon fill="#63b8ff" stroke="#63b8ff" points="161.03,-38.24 167.76,-30.06 157.4,-32.26 161.03,-38.24"/>
</a>
</g>
</g>
<!-- Node12 -->
<g id="Node000012" class="node">
<title>Node12</title>
<g id="a_Node000012"><a xlink:href="namespaceexpress_1_1dispatcher.html#a383db1fb291317caf5c61e4922f123d8" target="_top" xlink:title=" ">
<polygon fill="white" stroke="#666666" points="395,-260 293,-260 293,-230 395,-230 395,-260"/>
<text text-anchor="start" x="301" y="-248" font-family="Helvetica,sans-Serif" font-size="10.00">express::dispatcher</text>
<text text-anchor="middle" x="344" y="-237" font-family="Helvetica,sans-Serif" font-size="10.00">::setParams</text>
</a>
</g>
</g>
<!-- Node1&#45;&gt;Node12 -->
<g id="edge14_Node000001_Node000012" class="edge">
<title>Node1&#45;&gt;Node12</title>
<g id="a_edge14_Node000001_Node000012"><a xlink:title=" ">
<path fill="none" stroke="#63b8ff" d="M82.06,-174.58C100.01,-190.05 126.75,-210.34 154,-221 194.97,-237.02 244.38,-242.87 282.4,-244.8"/>
<polygon fill="#63b8ff" stroke="#63b8ff" points="282.67,-248.31 292.81,-245.24 282.97,-241.32 282.67,-248.31"/>
</a>
</g>
</g>
<!-- Node2&#45;&gt;Node3 -->
<g id="edge2_Node000002_Node000003" class="edge">
<title>Node2&#45;&gt;Node3</title>
<g id="a_edge2_Node000002_Node000003"><a xlink:title=" ">
<path fill="none" stroke="#63b8ff" d="M222.15,-212.08C238.8,-227.61 266.37,-251.9 293,-269 295.16,-270.39 297.42,-271.75 299.72,-273.07"/>
<polygon fill="#63b8ff" stroke="#63b8ff" points="298.31,-276.28 308.77,-277.96 301.64,-270.13 298.31,-276.28"/>
</a>
</g>
</g>
<!-- Node5 -->
<g id="Node000005" class="node">
<title>Node5</title>
<g id="a_Node000005"><a xlink:href="namespaceexpress_1_1dispatcher.html#aa13db0532ee87bf0eb739baf6942e313" target="_top" xlink:title=" ">
<polygon fill="white" stroke="#666666" points="395,-212 293,-212 293,-182 395,-182 395,-212"/>
<text text-anchor="start" x="301" y="-200" font-family="Helvetica,sans-Serif" font-size="10.00">express::dispatcher</text>
<text text-anchor="middle" x="344" y="-189" font-family="Helvetica,sans-Serif" font-size="10.00">::matchFunction</text>
</a>
</g>
</g>
<!-- Node2&#45;&gt;Node5 -->
<g id="edge4_Node000002_Node000005" class="edge">
<title>Node2&#45;&gt;Node5</title>
<g id="a_edge4_Node000002_Node000005"><a xlink:title=" ">
<path fill="none" stroke="#63b8ff" d="M257.33,-197C265.52,-197 274.07,-197 282.46,-197"/>
<polygon fill="#63b8ff" stroke="#63b8ff" points="282.58,-200.5 292.58,-197 282.58,-193.5 282.58,-200.5"/>
</a>
</g>
</g>
<!-- Node4 -->
<g id="Node000004" class="node">
<title>Node4</title>
<g id="a_Node000004"><a xlink:href="namespaceexpress_1_1dispatcher.html#af0eb131eb8db907ff38d832318c57153" target="_top" xlink:title=" ">
<polygon fill="white" stroke="#666666" points="671,-262 569,-262 569,-232 671,-232 671,-262"/>
<text text-anchor="start" x="577" y="-250" font-family="Helvetica,sans-Serif" font-size="10.00">express::dispatcher</text>
<text text-anchor="middle" x="620" y="-239" font-family="Helvetica,sans-Serif" font-size="10.00">::pathRegex</text>
</a>
</g>
</g>
<!-- Node3&#45;&gt;Node4 -->
<g id="edge3_Node000003_Node000004" class="edge">
<title>Node3&#45;&gt;Node4</title>
<g id="a_edge3_Node000003_Node000004"><a xlink:title=" ">
<path fill="none" stroke="#63b8ff" d="M395.29,-290.7C433.4,-288.29 486.89,-283.47 533,-274 544.26,-271.69 556.15,-268.48 567.36,-265.08"/>
<polygon fill="#63b8ff" stroke="#63b8ff" points="568.52,-268.38 577.02,-262.06 566.43,-261.7 568.52,-268.38"/>
</a>
</g>
</g>
<!-- Node6 -->
<g id="Node000006" class="node">
<title>Node6</title>
<g id="a_Node000006"><a xlink:href="namespaceexpress_1_1dispatcher.html#af6eaef9d6c3edcc196a8009f327e73a3" target="_top" xlink:title=" ">
<polygon fill="white" stroke="#666666" points="533,-265 431,-265 431,-235 533,-235 533,-265"/>
<text text-anchor="start" x="439" y="-253" font-family="Helvetica,sans-Serif" font-size="10.00">express::dispatcher</text>
<text text-anchor="middle" x="482" y="-242" font-family="Helvetica,sans-Serif" font-size="10.00">::explode</text>
</a>
</g>
</g>
<!-- Node5&#45;&gt;Node6 -->
<g id="edge5_Node000005_Node000006" class="edge">
<title>Node5&#45;&gt;Node6</title>
<g id="a_edge5_Node000005_Node000006"><a xlink:title=" ">
<path fill="none" stroke="#63b8ff" d="M383.61,-212.05C398.83,-217.98 416.48,-224.85 432.54,-231.11"/>
<polygon fill="#63b8ff" stroke="#63b8ff" points="431.71,-234.55 442.3,-234.92 434.25,-228.02 431.71,-234.55"/>
</a>
</g>
</g>
<!-- Node7 -->
<g id="Node000007" class="node">
<title>Node7</title>
<g id="a_Node000007"><a xlink:href="namespaceexpress_1_1dispatcher.html#ab2d85b942c8bab2b99043c62d0c2f351" target="_top" xlink:title=" ">
<polygon fill="white" stroke="#666666" points="533,-217 431,-217 431,-187 533,-187 533,-217"/>
<text text-anchor="start" x="439" y="-205" font-family="Helvetica,sans-Serif" font-size="10.00">express::dispatcher</text>
<text text-anchor="middle" x="482" y="-194" font-family="Helvetica,sans-Serif" font-size="10.00">::matchResult</text>
</a>
</g>
</g>
<!-- Node5&#45;&gt;Node7 -->
<g id="edge6_Node000005_Node000007" class="edge">
<title>Node5&#45;&gt;Node7</title>
<g id="a_edge6_Node000005_Node000007"><a xlink:title=" ">
<path fill="none" stroke="#63b8ff" d="M395.25,-198.85C403.54,-199.15 412.2,-199.47 420.7,-199.78"/>
<polygon fill="#63b8ff" stroke="#63b8ff" points="420.83,-203.29 430.95,-200.16 421.09,-196.29 420.83,-203.29"/>
</a>
</g>
</g>
<!-- Node5&#45;&gt;Node8 -->
<g id="edge8_Node000005_Node000008" class="edge">
<title>Node5&#45;&gt;Node8</title>
<g id="a_edge8_Node000005_Node000008"><a xlink:title=" ">
<path fill="none" stroke="#63b8ff" d="M392.57,-181.96C402.55,-178.8 413.18,-175.44 423.49,-172.18"/>
<polygon fill="#63b8ff" stroke="#63b8ff" points="424.75,-175.46 433.23,-169.1 422.64,-168.78 424.75,-175.46"/>
</a>
</g>
</g>
<!-- Node7&#45;&gt;Node4 -->
<g id="edge7_Node000007_Node000004" class="edge">
<title>Node7&#45;&gt;Node4</title>
<g id="a_edge7_Node000007_Node000004"><a xlink:title=" ">
<path fill="none" stroke="#63b8ff" d="M528.66,-217.11C539.88,-220.82 552,-224.83 563.62,-228.68"/>
<polygon fill="#63b8ff" stroke="#63b8ff" points="562.63,-232.04 573.22,-231.85 564.83,-225.39 562.63,-232.04"/>
</a>
</g>
</g>
<!-- Node12&#45;&gt;Node6 -->
<g id="edge15_Node000012_Node000006" class="edge">
<title>Node12&#45;&gt;Node6</title>
<g id="a_edge15_Node000012_Node000006"><a xlink:title=" ">
<path fill="none" stroke="#63b8ff" d="M395.25,-246.85C403.54,-247.15 412.2,-247.47 420.7,-247.78"/>
<polygon fill="#63b8ff" stroke="#63b8ff" points="420.83,-251.29 430.95,-248.16 421.09,-244.29 420.83,-251.29"/>
</a>
</g>
</g>
<!-- Node12&#45;&gt;Node7 -->
<g id="edge16_Node000012_Node000007" class="edge">
<title>Node12&#45;&gt;Node7</title>
<g id="a_edge16_Node000012_Node000007"><a xlink:title=" ">
<path fill="none" stroke="#63b8ff" d="M392.57,-229.96C402.55,-226.8 413.18,-223.44 423.49,-220.18"/>
<polygon fill="#63b8ff" stroke="#63b8ff" points="424.75,-223.46 433.23,-217.1 422.64,-216.78 424.75,-223.46"/>
</a>
</g>
</g>
</g>
</svg>
