<?xml version="1.0" encoding="UTF-8" standalone="no"?>
<!DOCTYPE svg PUBLIC "-//W3C//DTD SVG 1.1//EN"
 "http://www.w3.org/Graphics/SVG/1.1/DTD/svg11.dtd">
<!-- Generated by graphviz version 14.1.1 (0)
 -->
<!-- Title: iot::mqtt_fast::ControlPacketFactory::getPacketFlags Pages: 1 -->
<!--zoomable 773 -->

<svg id="main" version="1.1" xmlns="http://www.w3.org/2000/svg" xmlns:xlink="http://www.w3.org/1999/xlink" xml:space="preserve" onload="init(evt)">

<style type="text/css"><![CDATA[
.node, .edge {opacity: 0.7;}
.node.selected, .edge.selected {opacity: 1;}
.edge:hover path { stroke: red; }
.edge:hover polygon { stroke: red; fill: red; }
]]></style>

<defs>
  <circle id="rim" cx="0" cy="0" r="7"/>
  <circle id="rim2" cx="0" cy="0" r="3.5"/>
  <g id="zoomPlus">
    <use xlink:href="#rim" fill="#404040"><set attributeName="fill" to="#808080" begin="zoomplus.mouseover" end="zoomplus.mouseout"/></use>
    <path d="M-4,0h8M0,-4v8" fill="none" stroke="white" stroke-width="1.5" pointer-events="none"/>
  </g>
  <g id="zoomMin">
    <use xlink:href="#rim" fill="#404040"><set attributeName="fill" to="#808080" begin="zoomminus.mouseover" end="zoomminus.mouseout"/></use>
    <path d="M-4,0h8" fill="none" stroke="white" stroke-width="1.5" pointer-events="none"/>
  </g>
  <g id="arrowUp" transform="translate(30 24)">
    <use xlink:href="#rim"/>
    <path pointer-events="none" fill="none" stroke="white" stroke-width="1.5" d="M0,-3.0v7 M-2.5,-0.5L0,-3.0L2.5,-0.5"/>
  </g>
  <g id="arrowRight" transform="rotate(90) translate(36 -43)">
    <use xlink:href="#rim"/>
    <path pointer-events="none" fill="none" stroke="white" stroke-width="1.5" d="M0,-3.0v7 M-2.5,-0.5L0,-3.0L2.5,-0.5"/>
  </g>
  <g id="arrowDown" transform="rotate(180) translate(-30 -48)">
    <use xlink:href="#rim"/>
    <path pointer-events="none" fill="none" stroke="white" stroke-width="1.5" d="M0,-3.0v7 M-2.5,-0.5L0,-3.0L2.5,-0.5"/>
  </g>
  <g id="arrowLeft" transform="rotate(270) translate(-36 17)">
    <use xlink:href="#rim"/>
    <path pointer-events="none" fill="none" stroke="white" stroke-width="1.5" d="M0,-3.0v7 M-2.5,-0.5L0,-3.0L2.5,-0.5"/>
  </g>
  <g id="resetDef">
    <use xlink:href="#rim2" fill="#404040"><set attributeName="fill" to="#808080" begin="reset.mouseover" end="reset.mouseout"/></use>
  </g>
</defs>
<script type="application/ecmascript">
var viewWidth = 734;
var viewHeight = 773;
var sectionId = 'dynsection-7';
</script>
<script type="application/ecmascript" xlink:href="svg.min.js"/>
<svg id="graph" class="graph">
<g id="viewport">
<title>iot::mqtt_fast::ControlPacketFactory::getPacketFlags</title>
<!-- Node1 -->
<g id="Node000001" class="node">
<title>Node1</title>
<g id="a_Node000001"><a xlink:title=" ">
<polygon fill="#999999" stroke="#666666" points="725.5,-89.19 570,-89.19 570,-55.69 725.5,-55.69 725.5,-89.19"/>
<text xml:space="preserve" text-anchor="start" x="578" y="-75.69" font-family="Helvetica,sans-Serif" font-size="10.00">iot::mqtt_fast::ControlPacket</text>
<text xml:space="preserve" text-anchor="middle" x="647.75" y="-62.94" font-family="Helvetica,sans-Serif" font-size="10.00">Factory::getPacketFlags</text>
</a>
</g>
</g>
<!-- Node2 -->
<g id="Node000002" class="node">
<title>Node2</title>
<g id="a_Node000002"><a xlink:href="classiot_1_1mqtt__fast_1_1ControlPacket.html#a6418ee4821d152ba32b288f80f38075b" target="_top" xlink:title=" ">
<polygon fill="white" stroke="#666666" points="534,-401.19 378.5,-401.19 378.5,-367.69 534,-367.69 534,-401.19"/>
<text xml:space="preserve" text-anchor="start" x="386.5" y="-387.69" font-family="Helvetica,sans-Serif" font-size="10.00">iot::mqtt_fast::ControlPacket</text>
<text xml:space="preserve" text-anchor="middle" x="456.25" y="-374.94" font-family="Helvetica,sans-Serif" font-size="10.00">::ControlPacket</text>
</a>
</g>
</g>
<!-- Node1&#45;&gt;Node2 -->
<g id="edge1_Node000001_Node000002" class="edge">
<title>Node1&#45;&gt;Node2</title>
<g id="a_edge1_Node000001_Node000002"><a xlink:title=" ">
<path fill="none" stroke="#63b8ff" d="M630.49,-99.2C592.55,-161.67 499.02,-315.67 467.68,-367.27"/>
<polygon fill="#63b8ff" stroke="#63b8ff" points="633.31,-101.31 635.51,-90.95 627.32,-97.68 633.31,-101.31"/>
</a>
</g>
</g>
<!-- Node4 -->
<g id="Node000004" class="node">
<title>Node4</title>
<g id="a_Node000004"><a xlink:href="classiot_1_1mqtt__fast_1_1SocketContext.html#ac5f5635b2bd6f9b3ae6aabc9c9f31dcf" target="_top" xlink:title=" ">
<polygon fill="white" stroke="#666666" points="158.5,-401.19 0,-401.19 0,-367.69 158.5,-367.69 158.5,-401.19"/>
<text xml:space="preserve" text-anchor="start" x="8" y="-387.69" font-family="Helvetica,sans-Serif" font-size="10.00">iot::mqtt_fast::SocketContext</text>
<text xml:space="preserve" text-anchor="middle" x="79.25" y="-374.94" font-family="Helvetica,sans-Serif" font-size="10.00">::onReceivedFromPeer</text>
</a>
</g>
</g>
<!-- Node1&#45;&gt;Node4 -->
<g id="edge30_Node000001_Node000004" class="edge">
<title>Node1&#45;&gt;Node4</title>
<g id="a_edge30_Node000001_Node000004"><a xlink:title=" ">
<path fill="none" stroke="#63b8ff" d="M597,-51.05C507.23,-16.14 316.23,40.91 194.5,-46.44 86.05,-124.26 79.22,-310.58 79.78,-367.58"/>
<polygon fill="#63b8ff" stroke="#63b8ff" points="595.44,-54.2 606.02,-54.63 598.02,-47.69 595.44,-54.2"/>
</a>
</g>
</g>
<!-- Node11 -->
<g id="Node000011" class="node">
<title>Node11</title>
<g id="a_Node000011"><a xlink:href="classiot_1_1mqtt__fast_1_1packets_1_1Publish.html#a1dc6ca5cfe9f2e9fb97cbe76bb2822a9" target="_top" xlink:title=" ">
<polygon fill="white" stroke="#666666" points="331.25,-89.19 205.75,-89.19 205.75,-55.69 331.25,-55.69 331.25,-89.19"/>
<text xml:space="preserve" text-anchor="start" x="213.75" y="-75.69" font-family="Helvetica,sans-Serif" font-size="10.00">iot::mqtt_fast::packets</text>
<text xml:space="preserve" text-anchor="middle" x="268.5" y="-62.94" font-family="Helvetica,sans-Serif" font-size="10.00">::Publish::Publish</text>
</a>
</g>
</g>
<!-- Node1&#45;&gt;Node11 -->
<g id="edge31_Node000001_Node000011" class="edge">
<title>Node1&#45;&gt;Node11</title>
<g id="a_edge31_Node000001_Node000011"><a xlink:title=" ">
<path fill="none" stroke="#63b8ff" d="M558.56,-72.44C488.88,-72.44 393.36,-72.44 331.54,-72.44"/>
<polygon fill="#63b8ff" stroke="#63b8ff" points="558.44,-75.94 568.44,-72.44 558.44,-68.94 558.44,-75.94"/>
</a>
</g>
</g>
<!-- Node3 -->
<g id="Node000003" class="node">
<title>Node3</title>
<g id="a_Node000003"><a xlink:href="classiot_1_1mqtt__fast_1_1packets_1_1Connack.html#aff1de93487ef250f97fe2eb814fc8515" target="_top" xlink:title=" ">
<polygon fill="white" stroke="#666666" points="331.25,-765.19 205.75,-765.19 205.75,-731.69 331.25,-731.69 331.25,-765.19"/>
<text xml:space="preserve" text-anchor="start" x="213.75" y="-751.69" font-family="Helvetica,sans-Serif" font-size="10.00">iot::mqtt_fast::packets</text>
<text xml:space="preserve" text-anchor="middle" x="268.5" y="-738.94" font-family="Helvetica,sans-Serif" font-size="10.00">::Connack::Connack</text>
</a>
</g>
</g>
<!-- Node2&#45;&gt;Node3 -->
<g id="edge2_Node000002_Node000003" class="edge">
<title>Node2&#45;&gt;Node3</title>
<g id="a_edge2_Node000002_Node000003"><a xlink:title=" ">
<path fill="none" stroke="#63b8ff" d="M453.9,-412.65C449.32,-476.58 429.34,-633.82 342.5,-722.44 339.2,-725.8 335.45,-728.73 331.41,-731.28"/>
<polygon fill="#63b8ff" stroke="#63b8ff" points="457.37,-413.2 454.51,-403 450.38,-412.76 457.37,-413.2"/>
</a>
</g>
</g>
<!-- Node5 -->
<g id="Node000005" class="node">
<title>Node5</title>
<g id="a_Node000005"><a xlink:href="classiot_1_1mqtt__fast_1_1packets_1_1Connect.html#ab6eeb62dc9632ff5915306a32e6bbbcd" target="_top" xlink:title=" ">
<polygon fill="white" stroke="#666666" points="331.25,-713.19 205.75,-713.19 205.75,-679.69 331.25,-679.69 331.25,-713.19"/>
<text xml:space="preserve" text-anchor="start" x="213.75" y="-699.69" font-family="Helvetica,sans-Serif" font-size="10.00">iot::mqtt_fast::packets</text>
<text xml:space="preserve" text-anchor="middle" x="268.5" y="-686.94" font-family="Helvetica,sans-Serif" font-size="10.00">::Connect::Connect</text>
</a>
</g>
</g>
<!-- Node2&#45;&gt;Node5 -->
<g id="edge4_Node000002_Node000005" class="edge">
<title>Node2&#45;&gt;Node5</title>
<g id="a_edge4_Node000002_Node000005"><a xlink:title=" ">
<path fill="none" stroke="#63b8ff" d="M451.86,-412.93C443.62,-469.78 417.38,-598.02 342.5,-670.44 339.02,-673.81 335.07,-676.74 330.86,-679.3"/>
<polygon fill="#63b8ff" stroke="#63b8ff" points="455.32,-413.5 453.19,-403.12 448.38,-412.56 455.32,-413.5"/>
</a>
</g>
</g>
<!-- Node6 -->
<g id="Node000006" class="node">
<title>Node6</title>
<g id="a_Node000006"><a xlink:href="classiot_1_1mqtt__fast_1_1packets_1_1Disconnect.html#a915cca58b23e10323f396ead705a7f01" target="_top" xlink:title=" ">
<polygon fill="white" stroke="#666666" points="336.5,-661.19 200.5,-661.19 200.5,-627.69 336.5,-627.69 336.5,-661.19"/>
<text xml:space="preserve" text-anchor="start" x="208.5" y="-647.69" font-family="Helvetica,sans-Serif" font-size="10.00">iot::mqtt_fast::packets</text>
<text xml:space="preserve" text-anchor="middle" x="268.5" y="-634.94" font-family="Helvetica,sans-Serif" font-size="10.00">::Disconnect::Disconnect</text>
</a>
</g>
</g>
<!-- Node2&#45;&gt;Node6 -->
<g id="edge6_Node000002_Node000006" class="edge">
<title>Node2&#45;&gt;Node6</title>
<g id="a_edge6_Node000002_Node000006"><a xlink:title=" ">
<path fill="none" stroke="#63b8ff" d="M449.14,-412.49C437.12,-461.16 405.87,-561.5 342.5,-618.44 338.8,-621.77 334.64,-624.67 330.24,-627.21"/>
<polygon fill="#63b8ff" stroke="#63b8ff" points="452.48,-413.57 451.38,-403.03 445.67,-411.95 452.48,-413.57"/>
</a>
</g>
</g>
<!-- Node7 -->
<g id="Node000007" class="node">
<title>Node7</title>
<g id="a_Node000007"><a xlink:href="classiot_1_1mqtt__fast_1_1packets_1_1Pingreq.html#a7cdfd8d7710d94d0e61fa108c37b75ab" target="_top" xlink:title=" ">
<polygon fill="white" stroke="#666666" points="331.25,-609.19 205.75,-609.19 205.75,-575.69 331.25,-575.69 331.25,-609.19"/>
<text xml:space="preserve" text-anchor="start" x="213.75" y="-595.69" font-family="Helvetica,sans-Serif" font-size="10.00">iot::mqtt_fast::packets</text>
<text xml:space="preserve" text-anchor="middle" x="268.5" y="-582.94" font-family="Helvetica,sans-Serif" font-size="10.00">::Pingreq::Pingreq</text>
</a>
</g>
</g>
<!-- Node2&#45;&gt;Node7 -->
<g id="edge8_Node000002_Node000007" class="edge">
<title>Node2&#45;&gt;Node7</title>
<g id="a_edge8_Node000002_Node000007"><a xlink:title=" ">
<path fill="none" stroke="#63b8ff" d="M445.02,-412.13C429.03,-451.76 394.47,-524.49 342.5,-566.44 338.31,-569.82 333.65,-572.78 328.77,-575.36"/>
<polygon fill="#63b8ff" stroke="#63b8ff" points="448.18,-413.65 448.57,-403.06 441.67,-411.1 448.18,-413.65"/>
</a>
</g>
</g>
<!-- Node8 -->
<g id="Node000008" class="node">
<title>Node8</title>
<g id="a_Node000008"><a xlink:href="classiot_1_1mqtt__fast_1_1packets_1_1Pingresp.html#acf4f8e8d44b6858c057bdca5e1554d11" target="_top" xlink:title=" ">
<polygon fill="white" stroke="#666666" points="331.25,-557.19 205.75,-557.19 205.75,-523.69 331.25,-523.69 331.25,-557.19"/>
<text xml:space="preserve" text-anchor="start" x="213.75" y="-543.69" font-family="Helvetica,sans-Serif" font-size="10.00">iot::mqtt_fast::packets</text>
<text xml:space="preserve" text-anchor="middle" x="268.5" y="-530.94" font-family="Helvetica,sans-Serif" font-size="10.00">::Pingresp::Pingresp</text>
</a>
</g>
</g>
<!-- Node2&#45;&gt;Node8 -->
<g id="edge10_Node000002_Node000008" class="edge">
<title>Node2&#45;&gt;Node8</title>
<g id="a_edge10_Node000002_Node000008"><a xlink:title=" ">
<path fill="none" stroke="#63b8ff" d="M438.56,-410.77C418.87,-439.9 383.55,-486.4 342.5,-514.44 337.61,-517.78 332.25,-520.74 326.72,-523.35"/>
<polygon fill="#63b8ff" stroke="#63b8ff" points="441.43,-412.79 444.03,-402.51 435.59,-408.92 441.43,-412.79"/>
</a>
</g>
</g>
<!-- Node9 -->
<g id="Node000009" class="node">
<title>Node9</title>
<g id="a_Node000009"><a xlink:href="classiot_1_1mqtt__fast_1_1packets_1_1Puback.html#a9320abf7c8fbea7569eb8542e8dd68c1" target="_top" xlink:title=" ">
<polygon fill="white" stroke="#666666" points="331.25,-505.19 205.75,-505.19 205.75,-471.69 331.25,-471.69 331.25,-505.19"/>
<text xml:space="preserve" text-anchor="start" x="213.75" y="-491.69" font-family="Helvetica,sans-Serif" font-size="10.00">iot::mqtt_fast::packets</text>
<text xml:space="preserve" text-anchor="middle" x="268.5" y="-478.94" font-family="Helvetica,sans-Serif" font-size="10.00">::Puback::Puback</text>
</a>
</g>
</g>
<!-- Node2&#45;&gt;Node9 -->
<g id="edge12_Node000002_Node000009" class="edge">
<title>Node2&#45;&gt;Node9</title>
<g id="a_edge12_Node000002_Node000009"><a xlink:title=" ">
<path fill="none" stroke="#63b8ff" d="M425.46,-408.29C403.48,-425.06 372.34,-447.14 342.5,-462.44 336.27,-465.63 329.57,-468.6 322.83,-471.3"/>
<polygon fill="#63b8ff" stroke="#63b8ff" points="427.32,-411.28 433.08,-402.39 423.03,-405.74 427.32,-411.28"/>
</a>
</g>
</g>
<!-- Node10 -->
<g id="Node000010" class="node">
<title>Node10</title>
<g id="a_Node000010"><a xlink:href="classiot_1_1mqtt__fast_1_1packets_1_1Pubcomp.html#ab1f03acd48f2d7cefde3b292b9da69d5" target="_top" xlink:title=" ">
<polygon fill="white" stroke="#666666" points="331.25,-453.19 205.75,-453.19 205.75,-419.69 331.25,-419.69 331.25,-453.19"/>
<text xml:space="preserve" text-anchor="start" x="213.75" y="-439.69" font-family="Helvetica,sans-Serif" font-size="10.00">iot::mqtt_fast::packets</text>
<text xml:space="preserve" text-anchor="middle" x="268.5" y="-426.94" font-family="Helvetica,sans-Serif" font-size="10.00">::Pubcomp::Pubcomp</text>
</a>
</g>
</g>
<!-- Node2&#45;&gt;Node10 -->
<g id="edge14_Node000002_Node000010" class="edge">
<title>Node2&#45;&gt;Node10</title>
<g id="a_edge14_Node000002_Node000010"><a xlink:title=" ">
<path fill="none" stroke="#63b8ff" d="M382.59,-404.78C365.51,-409.56 347.46,-414.61 330.93,-419.24"/>
<polygon fill="#63b8ff" stroke="#63b8ff" points="383.51,-408.16 392.2,-402.09 381.63,-401.41 383.51,-408.16"/>
</a>
</g>
</g>
<!-- Node2&#45;&gt;Node11 -->
<g id="edge16_Node000002_Node000011" class="edge">
<title>Node2&#45;&gt;Node11</title>
<g id="a_edge16_Node000002_Node000011"><a xlink:title=" ">
<path fill="none" stroke="#63b8ff" d="M451.86,-355.94C443.62,-299.1 417.38,-170.86 342.5,-98.44 339.02,-95.07 335.07,-92.14 330.86,-89.58"/>
<polygon fill="#63b8ff" stroke="#63b8ff" points="448.38,-356.31 453.19,-365.75 455.32,-355.37 448.38,-356.31"/>
</a>
</g>
</g>
<!-- Node12 -->
<g id="Node000012" class="node">
<title>Node12</title>
<g id="a_Node000012"><a xlink:href="classiot_1_1mqtt__fast_1_1packets_1_1Pubrec.html#a6230e00a646417b771dcd1907483e1fc" target="_top" xlink:title=" ">
<polygon fill="white" stroke="#666666" points="331.25,-401.19 205.75,-401.19 205.75,-367.69 331.25,-367.69 331.25,-401.19"/>
<text xml:space="preserve" text-anchor="start" x="213.75" y="-387.69" font-family="Helvetica,sans-Serif" font-size="10.00">iot::mqtt_fast::packets</text>
<text xml:space="preserve" text-anchor="middle" x="268.5" y="-374.94" font-family="Helvetica,sans-Serif" font-size="10.00">::Pubrec::Pubrec</text>
</a>
</g>
</g>
<!-- Node2&#45;&gt;Node12 -->
<g id="edge18_Node000002_Node000012" class="edge">
<title>Node2&#45;&gt;Node12</title>
<g id="a_edge18_Node000002_Node000012"><a xlink:title=" ">
<path fill="none" stroke="#63b8ff" d="M366.78,-384.44C354.94,-384.44 342.99,-384.44 331.72,-384.44"/>
<polygon fill="#63b8ff" stroke="#63b8ff" points="366.58,-387.94 376.58,-384.44 366.58,-380.94 366.58,-387.94"/>
</a>
</g>
</g>
<!-- Node13 -->
<g id="Node000013" class="node">
<title>Node13</title>
<g id="a_Node000013"><a xlink:href="classiot_1_1mqtt__fast_1_1packets_1_1Pubrel.html#a61bbe57ec05e913c5d7da8a1e67c854f" target="_top" xlink:title=" ">
<polygon fill="white" stroke="#666666" points="331.25,-349.19 205.75,-349.19 205.75,-315.69 331.25,-315.69 331.25,-349.19"/>
<text xml:space="preserve" text-anchor="start" x="213.75" y="-335.69" font-family="Helvetica,sans-Serif" font-size="10.00">iot::mqtt_fast::packets</text>
<text xml:space="preserve" text-anchor="middle" x="268.5" y="-322.94" font-family="Helvetica,sans-Serif" font-size="10.00">::Pubrel::Pubrel</text>
</a>
</g>
</g>
<!-- Node2&#45;&gt;Node13 -->
<g id="edge20_Node000002_Node000013" class="edge">
<title>Node2&#45;&gt;Node13</title>
<g id="a_edge20_Node000002_Node000013"><a xlink:title=" ">
<path fill="none" stroke="#63b8ff" d="M382.59,-364.1C365.51,-359.32 347.46,-354.26 330.93,-349.63"/>
<polygon fill="#63b8ff" stroke="#63b8ff" points="381.63,-367.46 392.2,-366.79 383.51,-360.72 381.63,-367.46"/>
</a>
</g>
</g>
<!-- Node14 -->
<g id="Node000014" class="node">
<title>Node14</title>
<g id="a_Node000014"><a xlink:href="classiot_1_1mqtt__fast_1_1packets_1_1Suback.html#accd600f4f3e582afeaaa0d342458cc3a" target="_top" xlink:title=" ">
<polygon fill="white" stroke="#666666" points="331.25,-297.19 205.75,-297.19 205.75,-263.69 331.25,-263.69 331.25,-297.19"/>
<text xml:space="preserve" text-anchor="start" x="213.75" y="-283.69" font-family="Helvetica,sans-Serif" font-size="10.00">iot::mqtt_fast::packets</text>
<text xml:space="preserve" text-anchor="middle" x="268.5" y="-270.94" font-family="Helvetica,sans-Serif" font-size="10.00">::Suback::Suback</text>
</a>
</g>
</g>
<!-- Node2&#45;&gt;Node14 -->
<g id="edge22_Node000002_Node000014" class="edge">
<title>Node2&#45;&gt;Node14</title>
<g id="a_edge22_Node000002_Node000014"><a xlink:title=" ">
<path fill="none" stroke="#63b8ff" d="M425.46,-360.58C403.48,-343.82 372.34,-321.73 342.5,-306.44 336.27,-303.25 329.57,-300.28 322.83,-297.58"/>
<polygon fill="#63b8ff" stroke="#63b8ff" points="423.03,-363.13 433.08,-366.48 427.32,-357.6 423.03,-363.13"/>
</a>
</g>
</g>
<!-- Node15 -->
<g id="Node000015" class="node">
<title>Node15</title>
<g id="a_Node000015"><a xlink:href="classiot_1_1mqtt__fast_1_1packets_1_1Subscribe.html#aa818d2bafb7cf827a5727a4a255cd50c" target="_top" xlink:title=" ">
<polygon fill="white" stroke="#666666" points="331.25,-245.19 205.75,-245.19 205.75,-211.69 331.25,-211.69 331.25,-245.19"/>
<text xml:space="preserve" text-anchor="start" x="213.75" y="-231.69" font-family="Helvetica,sans-Serif" font-size="10.00">iot::mqtt_fast::packets</text>
<text xml:space="preserve" text-anchor="middle" x="268.5" y="-218.94" font-family="Helvetica,sans-Serif" font-size="10.00">::Subscribe::Subscribe</text>
</a>
</g>
</g>
<!-- Node2&#45;&gt;Node15 -->
<g id="edge24_Node000002_Node000015" class="edge">
<title>Node2&#45;&gt;Node15</title>
<g id="a_edge24_Node000002_Node000015"><a xlink:title=" ">
<path fill="none" stroke="#63b8ff" d="M438.56,-358.11C418.87,-328.98 383.55,-282.47 342.5,-254.44 337.61,-251.1 332.25,-248.14 326.72,-245.53"/>
<polygon fill="#63b8ff" stroke="#63b8ff" points="435.59,-359.95 444.03,-366.36 441.43,-356.09 435.59,-359.95"/>
</a>
</g>
</g>
<!-- Node16 -->
<g id="Node000016" class="node">
<title>Node16</title>
<g id="a_Node000016"><a xlink:href="classiot_1_1mqtt__fast_1_1packets_1_1Unsuback.html#ad088157543657d0a0347c9a8a933bdeb" target="_top" xlink:title=" ">
<polygon fill="white" stroke="#666666" points="331.25,-193.19 205.75,-193.19 205.75,-159.69 331.25,-159.69 331.25,-193.19"/>
<text xml:space="preserve" text-anchor="start" x="213.75" y="-179.69" font-family="Helvetica,sans-Serif" font-size="10.00">iot::mqtt_fast::packets</text>
<text xml:space="preserve" text-anchor="middle" x="268.5" y="-166.94" font-family="Helvetica,sans-Serif" font-size="10.00">::Unsuback::Unsuback</text>
</a>
</g>
</g>
<!-- Node2&#45;&gt;Node16 -->
<g id="edge26_Node000002_Node000016" class="edge">
<title>Node2&#45;&gt;Node16</title>
<g id="a_edge26_Node000002_Node000016"><a xlink:title=" ">
<path fill="none" stroke="#63b8ff" d="M445.02,-356.74C429.03,-317.11 394.47,-244.39 342.5,-202.44 338.31,-199.06 333.65,-196.1 328.77,-193.51"/>
<polygon fill="#63b8ff" stroke="#63b8ff" points="441.67,-357.78 448.57,-365.81 448.18,-355.22 441.67,-357.78"/>
</a>
</g>
</g>
<!-- Node17 -->
<g id="Node000017" class="node">
<title>Node17</title>
<g id="a_Node000017"><a xlink:href="classiot_1_1mqtt__fast_1_1packets_1_1Unsubscribe.html#a4167da07a281adeda5294ed2e7403542" target="_top" xlink:title=" ">
<polygon fill="white" stroke="#666666" points="342.5,-141.19 194.5,-141.19 194.5,-107.69 342.5,-107.69 342.5,-141.19"/>
<text xml:space="preserve" text-anchor="start" x="202.5" y="-127.69" font-family="Helvetica,sans-Serif" font-size="10.00">iot::mqtt_fast::packets</text>
<text xml:space="preserve" text-anchor="middle" x="268.5" y="-114.94" font-family="Helvetica,sans-Serif" font-size="10.00">::Unsubscribe::Unsubscribe</text>
</a>
</g>
</g>
<!-- Node2&#45;&gt;Node17 -->
<g id="edge28_Node000002_Node000017" class="edge">
<title>Node2&#45;&gt;Node17</title>
<g id="a_edge28_Node000002_Node000017"><a xlink:title=" ">
<path fill="none" stroke="#63b8ff" d="M449.14,-356.39C437.12,-307.72 405.87,-207.38 342.5,-150.44 338.8,-147.11 334.64,-144.2 330.24,-141.66"/>
<polygon fill="#63b8ff" stroke="#63b8ff" points="445.67,-356.92 451.38,-365.85 452.48,-355.31 445.67,-356.92"/>
</a>
</g>
</g>
<!-- Node3&#45;&gt;Node4 -->
<g id="edge3_Node000003_Node000004" class="edge">
<title>Node3&#45;&gt;Node4</title>
<g id="a_edge3_Node000003_Node000004"><a xlink:title=" ">
<path fill="none" stroke="#63b8ff" d="M196.73,-724.58C195.97,-723.89 195.22,-723.17 194.5,-722.44 101.75,-628.17 84.24,-456.05 80.98,-401.5"/>
<polygon fill="#63b8ff" stroke="#63b8ff" points="194.3,-727.13 204.4,-730.36 198.52,-721.54 194.3,-727.13"/>
</a>
</g>
</g>
<!-- Node5&#45;&gt;Node4 -->
<g id="edge5_Node000005_Node000004" class="edge">
<title>Node5&#45;&gt;Node4</title>
<g id="a_edge5_Node000005_Node000004"><a xlink:title=" ">
<path fill="none" stroke="#63b8ff" d="M196.85,-672.58C196.05,-671.89 195.26,-671.17 194.5,-670.44 113.81,-592.75 88.67,-450.68 82.2,-401.63"/>
<polygon fill="#63b8ff" stroke="#63b8ff" points="194.77,-675.39 204.93,-678.39 198.86,-669.71 194.77,-675.39"/>
</a>
</g>
</g>
<!-- Node6&#45;&gt;Node4 -->
<g id="edge7_Node000006_Node000004" class="edge">
<title>Node6&#45;&gt;Node4</title>
<g id="a_edge7_Node000006_Node000004"><a xlink:title=" ">
<path fill="none" stroke="#63b8ff" d="M197.37,-620.85C196.38,-620.07 195.43,-619.27 194.5,-618.44 125.57,-556.83 93.86,-444.33 83.89,-401.56"/>
<polygon fill="#63b8ff" stroke="#63b8ff" points="195.28,-623.66 205.53,-626.35 199.19,-617.86 195.28,-623.66"/>
</a>
</g>
</g>
<!-- Node7&#45;&gt;Node4 -->
<g id="edge9_Node000007_Node000004" class="edge">
<title>Node7&#45;&gt;Node4</title>
<g id="a_edge9_Node000007_Node000004"><a xlink:title=" ">
<path fill="none" stroke="#63b8ff" d="M198.57,-569.47C197.17,-568.5 195.81,-567.49 194.5,-566.44 137.18,-520.44 100.42,-437.46 86.52,-401.65"/>
<polygon fill="#63b8ff" stroke="#63b8ff" points="196.59,-572.37 206.96,-574.55 200.22,-566.38 196.59,-572.37"/>
</a>
</g>
</g>
<!-- Node8&#45;&gt;Node4 -->
<g id="edge11_Node000008_Node000004" class="edge">
<title>Node8&#45;&gt;Node4</title>
<g id="a_edge11_Node000008_Node000004"><a xlink:title=" ">
<path fill="none" stroke="#63b8ff" d="M200.19,-518.02C198.24,-516.88 196.34,-515.68 194.5,-514.44 148.25,-483.07 108.89,-428.66 90.83,-401.25"/>
<polygon fill="#63b8ff" stroke="#63b8ff" points="198.48,-521.07 208.97,-522.61 201.73,-514.87 198.48,-521.07"/>
</a>
</g>
</g>
<!-- Node9&#45;&gt;Node4 -->
<g id="edge13_Node000009_Node000004" class="edge">
<title>Node9&#45;&gt;Node4</title>
<g id="a_edge13_Node000009_Node000004"><a xlink:title=" ">
<path fill="none" stroke="#63b8ff" d="M203.85,-466.89C200.65,-465.46 197.52,-463.97 194.5,-462.44 160.04,-444.91 123.73,-418.58 101.53,-401.45"/>
<polygon fill="#63b8ff" stroke="#63b8ff" points="202.22,-470 212.8,-470.67 204.95,-463.56 202.22,-470"/>
</a>
</g>
</g>
<!-- Node10&#45;&gt;Node4 -->
<g id="edge15_Node000010_Node000004" class="edge">
<title>Node10&#45;&gt;Node4</title>
<g id="a_edge15_Node000010_Node000004"><a xlink:title=" ">
<path fill="none" stroke="#63b8ff" d="M194.75,-416.23C177.38,-411.41 159,-406.31 142.17,-401.63"/>
<polygon fill="#63b8ff" stroke="#63b8ff" points="193.38,-419.49 203.95,-418.79 195.25,-412.74 193.38,-419.49"/>
</a>
</g>
</g>
<!-- Node11&#45;&gt;Node4 -->
<g id="edge17_Node000011_Node000004" class="edge">
<title>Node11&#45;&gt;Node4</title>
<g id="a_edge17_Node000011_Node000004"><a xlink:title=" ">
<path fill="none" stroke="#63b8ff" d="M196.85,-96.3C196.05,-96.99 195.26,-97.7 194.5,-98.44 113.81,-176.13 88.67,-318.2 82.2,-367.25"/>
<polygon fill="#63b8ff" stroke="#63b8ff" points="198.86,-99.17 204.93,-90.48 194.77,-93.49 198.86,-99.17"/>
</a>
</g>
</g>
<!-- Node12&#45;&gt;Node4 -->
<g id="edge19_Node000012_Node000004" class="edge">
<title>Node12&#45;&gt;Node4</title>
<g id="a_edge19_Node000012_Node000004"><a xlink:title=" ">
<path fill="none" stroke="#63b8ff" d="M194.03,-384.44C182.48,-384.44 170.51,-384.44 158.85,-384.44"/>
<polygon fill="#63b8ff" stroke="#63b8ff" points="193.9,-387.94 203.9,-384.44 193.89,-380.94 193.9,-387.94"/>
</a>
</g>
</g>
<!-- Node13&#45;&gt;Node4 -->
<g id="edge21_Node000013_Node000004" class="edge">
<title>Node13&#45;&gt;Node4</title>
<g id="a_edge21_Node000013_Node000004"><a xlink:title=" ">
<path fill="none" stroke="#63b8ff" d="M194.75,-352.64C177.38,-357.46 159,-362.57 142.17,-367.24"/>
<polygon fill="#63b8ff" stroke="#63b8ff" points="195.25,-356.13 203.95,-350.09 193.38,-349.39 195.25,-356.13"/>
</a>
</g>
</g>
<!-- Node14&#45;&gt;Node4 -->
<g id="edge23_Node000014_Node000004" class="edge">
<title>Node14&#45;&gt;Node4</title>
<g id="a_edge23_Node000014_Node000004"><a xlink:title=" ">
<path fill="none" stroke="#63b8ff" d="M203.85,-301.99C200.65,-303.42 197.52,-304.9 194.5,-306.44 160.04,-323.97 123.73,-350.3 101.53,-367.43"/>
<polygon fill="#63b8ff" stroke="#63b8ff" points="204.95,-305.32 212.8,-298.2 202.22,-298.87 204.95,-305.32"/>
</a>
</g>
</g>
<!-- Node15&#45;&gt;Node4 -->
<g id="edge25_Node000015_Node000004" class="edge">
<title>Node15&#45;&gt;Node4</title>
<g id="a_edge25_Node000015_Node000004"><a xlink:title=" ">
<path fill="none" stroke="#63b8ff" d="M200.19,-250.86C198.24,-252 196.34,-253.19 194.5,-254.44 148.25,-285.81 108.89,-340.22 90.83,-367.63"/>
<polygon fill="#63b8ff" stroke="#63b8ff" points="201.73,-254 208.97,-246.26 198.48,-247.8 201.73,-254"/>
</a>
</g>
</g>
<!-- Node16&#45;&gt;Node4 -->
<g id="edge27_Node000016_Node000004" class="edge">
<title>Node16&#45;&gt;Node4</title>
<g id="a_edge27_Node000016_Node000004"><a xlink:title=" ">
<path fill="none" stroke="#63b8ff" d="M198.57,-199.4C197.17,-200.37 195.81,-201.39 194.5,-202.44 137.18,-248.43 100.42,-331.42 86.52,-367.22"/>
<polygon fill="#63b8ff" stroke="#63b8ff" points="200.22,-202.49 206.96,-194.32 196.59,-196.51 200.22,-202.49"/>
</a>
</g>
</g>
<!-- Node17&#45;&gt;Node4 -->
<g id="edge29_Node000017_Node000004" class="edge">
<title>Node17&#45;&gt;Node4</title>
<g id="a_edge29_Node000017_Node000004"><a xlink:title=" ">
<path fill="none" stroke="#63b8ff" d="M197.37,-148.03C196.38,-148.81 195.43,-149.61 194.5,-150.44 125.57,-212.05 93.86,-324.55 83.89,-367.32"/>
<polygon fill="#63b8ff" stroke="#63b8ff" points="199.19,-151.02 205.53,-142.53 195.28,-145.21 199.19,-151.02"/>
</a>
</g>
</g>
</g>
</svg>

<g id="navigator" transform="translate(0 0)" fill="#404254">
  <rect fill="#f2f5e9" fill-opacity="0.5" stroke="#606060" stroke-width=".5" x="0" y="0" width="60" height="60"/>
  <use id="zoomplus" xlink:href="#zoomPlus" x="17" y="9" onmousedown="handleZoom(evt,'in')"/>
  <use id="zoomminus" xlink:href="#zoomMin" x="42" y="9" onmousedown="handleZoom(evt,'out')"/>
  <use id="reset" xlink:href="#resetDef" x="30" y="36" onmousedown="handleReset()"/>
   <use id="arrowup" xlink:href="#arrowUp" x="0" y="0" onmousedown="handlePan(0,-1)"/>
  <use id="arrowright" xlink:href="#arrowRight" x="0" y="0" onmousedown="handlePan(1,0)"/>
  <use id="arrowdown" xlink:href="#arrowDown" x="0" y="0" onmousedown="handlePan(0,1)"/>
  <use id="arrowleft" xlink:href="#arrowLeft" x="0" y="0" onmousedown="handlePan(-1,0)"/>
</g>
<svg viewBox="0 0 15 15" width="100%" height="30px" preserveAspectRatio="xMaxYMin meet">
 <g id="arrow_out" transform="scale(0.3 0.3)">
  <a xlink:href="classiot_1_1mqtt__fast_1_1ControlPacketFactory_afbd8fc525ad92651391a72acbad10bfc_icgraph_org.svg" target="_base">
   <rect id="button" ry="5" rx="5" y="6" x="6" height="38" width="38"
        fill="#f2f5e9" fill-opacity="0.5" stroke="#606060" stroke-width="1.0"/>
   <path id="arrow"
     d="M 11.500037,31.436501 C 11.940474,20.09759 22.043105,11.32322 32.158766,21.979434 L 37.068811,17.246167 C 37.068811,17.246167 37.088388,32 37.088388,32 L 22.160133,31.978069 C 22.160133,31.978069 26.997745,27.140456 26.997745,27.140456 C 18.528582,18.264221 13.291696,25.230495 11.500037,31.436501 z"
     style="fill:#404040;"/>
  </a>
 </g>
</svg>

<style type='text/css'>
<![CDATA[
[data-mouse-over-selected='false'] { opacity: 0.7; }
[data-mouse-over-selected='true']  { opacity: 1.0; }
]]>
</style>
<script type="application/ecmascript"><![CDATA[
document.addEventListener('DOMContentLoaded', (event) => {
  highlightEdges();
  highlightAdjacentNodes();
});
]]></script>
</svg>
