<?xml version="1.0" encoding="UTF-8" standalone="no"?>
<!DOCTYPE svg PUBLIC "-//W3C//DTD SVG 1.1//EN"
 "http://www.w3.org/Graphics/SVG/1.1/DTD/svg11.dtd">
<!-- Generated by graphviz version 2.43.0 (0)
 -->
<!-- Title: iot::mqtt::server::broker::Message Pages: 1 -->
<svg width="98pt" height="182pt"
 viewBox="0.00 0.00 98.00 182.00" xmlns="http://www.w3.org/2000/svg" xmlns:xlink="http://www.w3.org/1999/xlink">
<g id="graph0" class="graph" transform="scale(1 1) rotate(0) translate(4 178)">
<title>iot::mqtt::server::broker::Message</title>
<!-- Node1 -->
<g id="Node000001" class="node">
<title>Node1</title>
<g id="a_Node000001"><a xlink:title=" ">
<polygon fill="#999999" stroke="transparent" points="86,-30 2,-30 2,0 86,0 86,-30"/>
<text text-anchor="start" x="6" y="-18" font-family="Helvetica,sans-Serif" font-size="10.00">iot::mqtt::server::</text>
<text text-anchor="start" x="7.5" y="-7" font-family="Helvetica,sans-Serif" font-size="10.00">broker::Message</text>
<polygon fill="none" stroke="#666666" points="2,0 2,-30 86,-30 86,0 2,0"/>
</a>
</g>
</g>
<!-- Node2 -->
<g id="Node000002" class="node">
<title>Node2</title>
<g id="a_Node000002"><a xlink:title=" ">
<polygon fill="white" stroke="transparent" points="70,-107 18,-107 18,-88 70,-88 70,-107"/>
<text text-anchor="start" x="22" y="-94.5" font-family="Helvetica,sans-Serif" font-size="10.00">std::string</text>
<polygon fill="none" stroke="#666666" points="18,-88 18,-107 70,-107 70,-88 18,-88"/>
</a>
</g>
</g>
<!-- Node2&#45;&gt;Node1 -->
<g id="edge1_Node000001_Node000002" class="edge">
<title>Node2&#45;&gt;Node1</title>
<g id="a_edge1_Node000001_Node000002"><a xlink:title=" ">
<path fill="none" stroke="#63b8ff" d="M44,-87.89C44,-77.11 44,-58.17 44,-42.43"/>
<polygon fill="none" stroke="#63b8ff" points="44,-42.22 40,-36.22 44,-30.22 48,-36.22 44,-42.22"/>
</a>
</g>
<text text-anchor="middle" x="67" y="-62" font-family="Helvetica,sans-Serif" font-size="10.00" fill="grey"> &#45;message</text>
<text text-anchor="middle" x="67" y="-51" font-family="Helvetica,sans-Serif" font-size="10.00" fill="grey">&#45;topic</text>
</g>
<!-- Node3 -->
<g id="Node000003" class="node">
<title>Node3</title>
<g id="a_Node000003"><a xlink:title=" ">
<polygon fill="white" stroke="transparent" points="88,-174 0,-174 0,-144 88,-144 88,-174"/>
<text text-anchor="start" x="4.5" y="-162" font-family="Helvetica,sans-Serif" font-size="10.00">std::basic_string&lt;</text>
<text text-anchor="start" x="27" y="-151" font-family="Helvetica,sans-Serif" font-size="10.00"> Char &gt;</text>
<polygon fill="none" stroke="#666666" points="0,-144 0,-174 88,-174 88,-144 0,-144"/>
</a>
</g>
</g>
<!-- Node3&#45;&gt;Node2 -->
<g id="edge2_Node000002_Node000003" class="edge">
<title>Node3&#45;&gt;Node2</title>
<g id="a_edge2_Node000002_Node000003"><a xlink:title=" ">
<path fill="none" stroke="#63b8ff" d="M44,-133.79C44,-124.36 44,-114.15 44,-107.16"/>
<polygon fill="none" stroke="#63b8ff" points="40.5,-133.9 44,-143.9 47.5,-133.9 40.5,-133.9"/>
</a>
</g>
</g>
</g>
</svg>
