<?xml version="1.0" encoding="UTF-8" standalone="no"?>
<!DOCTYPE svg PUBLIC "-//W3C//DTD SVG 1.1//EN"
 "http://www.w3.org/Graphics/SVG/1.1/DTD/svg11.dtd">
<!-- Generated by graphviz version 2.43.0 (0)
 -->
<!-- Title: web::http::server::Response::sendResponse Pages: 1 -->
<svg width="710pt" height="322pt"
 viewBox="0.00 0.00 710.00 321.50" xmlns="http://www.w3.org/2000/svg" xmlns:xlink="http://www.w3.org/1999/xlink">
<g id="graph0" class="graph" transform="scale(1 1) rotate(0) translate(4 317.5)">
<title>web::http::server::Response::sendResponse</title>
<!-- Node1 -->
<g id="Node000001" class="node">
<title>Node1</title>
<g id="a_Node000001"><a xlink:title=" ">
<polygon fill="#999999" stroke="#666666" points="140,-84.5 0,-84.5 0,-54.5 140,-54.5 140,-84.5"/>
<text text-anchor="start" x="8" y="-72.5" font-family="Helvetica,sans-Serif" font-size="10.00">web::http::server::</text>
<text text-anchor="middle" x="70" y="-61.5" font-family="Helvetica,sans-Serif" font-size="10.00">Response::sendResponse</text>
</a>
</g>
</g>
<!-- Node2 -->
<g id="Node000002" class="node">
<title>Node2</title>
<g id="a_Node000002"><a xlink:href="classweb_1_1http_1_1server_1_1Response.html#a4fae387fd1d11b86260f4572bfebfce2" target="_top" xlink:title=" ">
<polygon fill="white" stroke="#666666" points="304,-169.5 176,-169.5 176,-139.5 304,-139.5 304,-169.5"/>
<text text-anchor="start" x="184" y="-157.5" font-family="Helvetica,sans-Serif" font-size="10.00">web::http::server::</text>
<text text-anchor="middle" x="240" y="-146.5" font-family="Helvetica,sans-Serif" font-size="10.00">Response::sendHeader</text>
</a>
</g>
</g>
<!-- Node1&#45;&gt;Node2 -->
<g id="edge1_Node000001_Node000002" class="edge">
<title>Node1&#45;&gt;Node2</title>
<g id="a_edge1_Node000001_Node000002"><a xlink:title=" ">
<path fill="none" stroke="#63b8ff" d="M100.65,-84.5C128.31,-98.49 169.74,-119.46 200.06,-134.8"/>
<polygon fill="#63b8ff" stroke="#63b8ff" points="198.58,-137.97 209.08,-139.36 201.74,-131.73 198.58,-137.97"/>
</a>
</g>
</g>
<!-- Node13 -->
<g id="Node000013" class="node">
<title>Node13</title>
<g id="a_Node000013"><a xlink:href="classweb_1_1http_1_1server_1_1RequestContextBase.html#a75e9f8daa736c9af15f9b784477fd216" target="_top" xlink:title=" ">
<polygon fill="white" stroke="#666666" points="302.5,-41 177.5,-41 177.5,0 302.5,0 302.5,-41"/>
<text text-anchor="start" x="185.5" y="-29" font-family="Helvetica,sans-Serif" font-size="10.00">web::http::server::</text>
<text text-anchor="start" x="185.5" y="-18" font-family="Helvetica,sans-Serif" font-size="10.00">RequestContextBase::</text>
<text text-anchor="middle" x="240" y="-7" font-family="Helvetica,sans-Serif" font-size="10.00">sendToPeer</text>
</a>
</g>
</g>
<!-- Node1&#45;&gt;Node13 -->
<g id="edge13_Node000001_Node000013" class="edge">
<title>Node1&#45;&gt;Node13</title>
<g id="a_edge13_Node000001_Node000013"><a xlink:title=" ">
<path fill="none" stroke="#63b8ff" d="M122.78,-54.4C136.93,-50.27 152.53,-45.72 167.57,-41.33"/>
<polygon fill="#63b8ff" stroke="#63b8ff" points="168.74,-44.64 177.36,-38.48 166.78,-37.92 168.74,-44.64"/>
</a>
</g>
</g>
<!-- Node3 -->
<g id="Node000003" class="node">
<title>Node3</title>
<g id="a_Node000003"><a xlink:href="classweb_1_1http_1_1CookieOptions.html#a4be3fcbeb3b146110d45edadba1ddc08" target="_top" xlink:title=" ">
<polygon fill="white" stroke="#666666" points="487.5,-313.5 347.5,-313.5 347.5,-283.5 487.5,-283.5 487.5,-313.5"/>
<text text-anchor="start" x="355.5" y="-301.5" font-family="Helvetica,sans-Serif" font-size="10.00">web::http::CookieOptions</text>
<text text-anchor="middle" x="417.5" y="-290.5" font-family="Helvetica,sans-Serif" font-size="10.00">::getOptions</text>
</a>
</g>
</g>
<!-- Node2&#45;&gt;Node3 -->
<g id="edge2_Node000002_Node000003" class="edge">
<title>Node2&#45;&gt;Node3</title>
<g id="a_edge2_Node000002_Node000003"><a xlink:title=" ">
<path fill="none" stroke="#63b8ff" d="M249.57,-169.81C264.59,-195.27 298.1,-246.3 340,-274.5 342.38,-276.1 344.88,-277.6 347.45,-279.01"/>
<polygon fill="#63b8ff" stroke="#63b8ff" points="345.94,-282.16 356.46,-283.42 349.01,-275.88 345.94,-282.16"/>
</a>
</g>
</g>
<!-- Node4 -->
<g id="Node000004" class="node">
<title>Node4</title>
<g id="a_Node000004"><a xlink:href="classweb_1_1http_1_1CookieOptions.html#a93e39fac2e3beb0b97a485169479e2ea" target="_top" xlink:title=" ">
<polygon fill="white" stroke="#666666" points="487.5,-265.5 347.5,-265.5 347.5,-235.5 487.5,-235.5 487.5,-265.5"/>
<text text-anchor="start" x="355.5" y="-253.5" font-family="Helvetica,sans-Serif" font-size="10.00">web::http::CookieOptions</text>
<text text-anchor="middle" x="417.5" y="-242.5" font-family="Helvetica,sans-Serif" font-size="10.00">::getValue</text>
</a>
</g>
</g>
<!-- Node2&#45;&gt;Node4 -->
<g id="edge3_Node000002_Node000004" class="edge">
<title>Node2&#45;&gt;Node4</title>
<g id="a_edge3_Node000002_Node000004"><a xlink:title=" ">
<path fill="none" stroke="#63b8ff" d="M258.11,-169.64C276.99,-185.69 308.87,-210.83 340,-226.5 343.71,-228.37 347.59,-230.12 351.55,-231.77"/>
<polygon fill="#63b8ff" stroke="#63b8ff" points="350.32,-235.05 360.91,-235.42 352.86,-228.53 350.32,-235.05"/>
</a>
</g>
</g>
<!-- Node5 -->
<g id="Node000005" class="node">
<title>Node5</title>
<g id="a_Node000005"><a xlink:href="classweb_1_1http_1_1StatusCode.html#ad3c635f1cb778cdb4a2e23332ebda277" target="_top" xlink:title=" ">
<polygon fill="white" stroke="#666666" points="479.5,-217.5 355.5,-217.5 355.5,-187.5 479.5,-187.5 479.5,-217.5"/>
<text text-anchor="start" x="363.5" y="-205.5" font-family="Helvetica,sans-Serif" font-size="10.00">web::http::StatusCode</text>
<text text-anchor="middle" x="417.5" y="-194.5" font-family="Helvetica,sans-Serif" font-size="10.00">::reason</text>
</a>
</g>
</g>
<!-- Node2&#45;&gt;Node5 -->
<g id="edge4_Node000002_Node000005" class="edge">
<title>Node2&#45;&gt;Node5</title>
<g id="a_edge4_Node000002_Node000005"><a xlink:title=" ">
<path fill="none" stroke="#63b8ff" d="M296.05,-169.56C313.77,-174.4 333.57,-179.82 351.92,-184.84"/>
<polygon fill="#63b8ff" stroke="#63b8ff" points="351.08,-188.24 361.65,-187.5 352.93,-181.48 351.08,-188.24"/>
</a>
</g>
</g>
<!-- Node7 -->
<g id="Node000007" class="node">
<title>Node7</title>
<g id="a_Node000007"><a xlink:href="classweb_1_1http_1_1server_1_1Response.html#a428f61869432e01609dddc9c16b1d0ff" target="_top" xlink:title=" ">
<polygon fill="white" stroke="#666666" points="487.5,-83.5 347.5,-83.5 347.5,-53.5 487.5,-53.5 487.5,-83.5"/>
<text text-anchor="start" x="355.5" y="-71.5" font-family="Helvetica,sans-Serif" font-size="10.00">web::http::server::</text>
<text text-anchor="middle" x="417.5" y="-60.5" font-family="Helvetica,sans-Serif" font-size="10.00">Response::sendResponse</text>
</a>
</g>
</g>
<!-- Node2&#45;&gt;Node7 -->
<g id="edge6_Node000002_Node000007" class="edge">
<title>Node2&#45;&gt;Node7</title>
<g id="a_edge6_Node000002_Node000007"><a xlink:title=" ">
<path fill="none" stroke="#63b8ff" d="M262.19,-139.39C281.7,-125.99 311.79,-106.57 340,-93.5 344.91,-91.22 350.09,-89.06 355.34,-87.04"/>
<polygon fill="#63b8ff" stroke="#63b8ff" points="356.66,-90.28 364.83,-83.53 354.24,-83.71 356.66,-90.28"/>
</a>
</g>
</g>
<!-- Node8 -->
<g id="Node000008" class="node">
<title>Node8</title>
<g id="a_Node000008"><a xlink:href="classweb_1_1http_1_1server_1_1Response.html#a6f8d3d143f82fc3b48fe2d705e95a0c7" target="_top" xlink:title=" ">
<polygon fill="white" stroke="#666666" points="470,-169.5 365,-169.5 365,-139.5 470,-139.5 470,-169.5"/>
<text text-anchor="start" x="373" y="-157.5" font-family="Helvetica,sans-Serif" font-size="10.00">web::http::server::</text>
<text text-anchor="middle" x="417.5" y="-146.5" font-family="Helvetica,sans-Serif" font-size="10.00">Response::set</text>
</a>
</g>
</g>
<!-- Node2&#45;&gt;Node8 -->
<g id="edge8_Node000002_Node000008" class="edge">
<title>Node2&#45;&gt;Node8</title>
<g id="a_edge8_Node000002_Node000008"><a xlink:title=" ">
<path fill="none" stroke="#63b8ff" d="M304.36,-154.5C320.63,-154.5 338.11,-154.5 354.32,-154.5"/>
<polygon fill="#63b8ff" stroke="#63b8ff" points="354.76,-158 364.76,-154.5 354.76,-151 354.76,-158"/>
</a>
</g>
</g>
<!-- Node10 -->
<g id="Node000010" class="node">
<title>Node10</title>
<g id="a_Node000010"><a xlink:href="namespacehttputils.html#ad53daa08390598493f3f4ae09164a60a" target="_top" xlink:title=" ">
<polygon fill="white" stroke="#666666" points="480,-121 355,-121 355,-102 480,-102 480,-121"/>
<text text-anchor="middle" x="417.5" y="-109" font-family="Helvetica,sans-Serif" font-size="10.00">httputils::to_http_date</text>
</a>
</g>
</g>
<!-- Node2&#45;&gt;Node10 -->
<g id="edge10_Node000002_Node000010" class="edge">
<title>Node2&#45;&gt;Node10</title>
<g id="a_edge10_Node000002_Node000010"><a xlink:title=" ">
<path fill="none" stroke="#63b8ff" d="M302.38,-139.46C323.77,-134.22 347.47,-128.41 367.71,-123.46"/>
<polygon fill="#63b8ff" stroke="#63b8ff" points="368.76,-126.8 377.64,-121.02 367.09,-120 368.76,-126.8"/>
</a>
</g>
</g>
<!-- Node6 -->
<g id="Node000006" class="node">
<title>Node6</title>
<g id="a_Node000006"><a xlink:href="classweb_1_1http_1_1StatusCode.html#a7128168d2becba8d8bfd0e47ab2854ff" target="_top" xlink:title=" ">
<polygon fill="white" stroke="#666666" points="678.5,-217.5 554.5,-217.5 554.5,-187.5 678.5,-187.5 678.5,-217.5"/>
<text text-anchor="start" x="562.5" y="-205.5" font-family="Helvetica,sans-Serif" font-size="10.00">web::http::StatusCode</text>
<text text-anchor="middle" x="616.5" y="-194.5" font-family="Helvetica,sans-Serif" font-size="10.00">::contains</text>
</a>
</g>
</g>
<!-- Node5&#45;&gt;Node6 -->
<g id="edge5_Node000005_Node000006" class="edge">
<title>Node5&#45;&gt;Node6</title>
<g id="a_edge5_Node000005_Node000006"><a xlink:title=" ">
<path fill="none" stroke="#63b8ff" d="M479.75,-202.5C500.14,-202.5 523.02,-202.5 544.1,-202.5"/>
<polygon fill="#63b8ff" stroke="#63b8ff" points="544.29,-206 554.29,-202.5 544.29,-199 544.29,-206"/>
</a>
</g>
</g>
<!-- Node7&#45;&gt;Node1 -->
<g id="edge7_Node000007_Node000001" class="edge">
<title>Node7&#45;&gt;Node1</title>
<g id="a_edge7_Node000007_Node000001"><a xlink:title=" ">
<path fill="none" stroke="#63b8ff" d="M347.24,-68.7C290.32,-68.87 209.66,-69.1 150.19,-69.27"/>
<polygon fill="#63b8ff" stroke="#63b8ff" points="150.08,-65.77 140.09,-69.3 150.1,-72.77 150.08,-65.77"/>
</a>
</g>
</g>
<!-- Node9 -->
<g id="Node000009" class="node">
<title>Node9</title>
<g id="a_Node000009"><a xlink:href="classweb_1_1http_1_1server_1_1Response.html#a82301ce94e8418a2d0b9bc052207a178" target="_top" xlink:title=" ">
<polygon fill="white" stroke="#666666" points="669,-169.5 564,-169.5 564,-139.5 669,-139.5 669,-169.5"/>
<text text-anchor="start" x="572" y="-157.5" font-family="Helvetica,sans-Serif" font-size="10.00">web::http::server::</text>
<text text-anchor="middle" x="616.5" y="-146.5" font-family="Helvetica,sans-Serif" font-size="10.00">Response::set</text>
</a>
</g>
</g>
<!-- Node8&#45;&gt;Node9 -->
<g id="edge9_Node000008_Node000009" class="edge">
<title>Node8&#45;&gt;Node9</title>
<g id="a_edge9_Node000008_Node000009"><a xlink:title=" ">
<path fill="none" stroke="#63b8ff" d="M470,-154.5C495.68,-154.5 526.92,-154.5 553.86,-154.5"/>
<polygon fill="#63b8ff" stroke="#63b8ff" points="553.96,-158 563.96,-154.5 553.96,-151 553.96,-158"/>
</a>
</g>
</g>
<!-- Node11 -->
<g id="Node000011" class="node">
<title>Node11</title>
<g id="a_Node000011"><a xlink:href="namespaceutils_1_1system.html#a629a1ebec50192eff5587cdd5d51bf20" target="_top" xlink:title=" ">
<polygon fill="white" stroke="#666666" points="678.5,-121 554.5,-121 554.5,-102 678.5,-102 678.5,-121"/>
<text text-anchor="middle" x="616.5" y="-109" font-family="Helvetica,sans-Serif" font-size="10.00">utils::system::gmtime</text>
</a>
</g>
</g>
<!-- Node10&#45;&gt;Node11 -->
<g id="edge11_Node000010_Node000011" class="edge">
<title>Node10&#45;&gt;Node11</title>
<g id="a_edge11_Node000010_Node000011"><a xlink:title=" ">
<path fill="none" stroke="#63b8ff" d="M480.02,-111.5C500.4,-111.5 523.24,-111.5 544.28,-111.5"/>
<polygon fill="#63b8ff" stroke="#63b8ff" points="544.44,-115 554.44,-111.5 544.44,-108 544.44,-115"/>
</a>
</g>
</g>
<!-- Node12 -->
<g id="Node000012" class="node">
<title>Node12</title>
<g id="a_Node000012"><a xlink:href="namespaceutils_1_1system.html#aa36252afed0ca4903feb511649270d1c" target="_top" xlink:title=" ">
<polygon fill="white" stroke="#666666" points="670.5,-84 562.5,-84 562.5,-65 670.5,-65 670.5,-84"/>
<text text-anchor="middle" x="616.5" y="-72" font-family="Helvetica,sans-Serif" font-size="10.00">utils::system::time</text>
</a>
</g>
</g>
<!-- Node10&#45;&gt;Node12 -->
<g id="edge12_Node000010_Node000012" class="edge">
<title>Node10&#45;&gt;Node12</title>
<g id="a_edge12_Node000010_Node000012"><a xlink:title=" ">
<path fill="none" stroke="#63b8ff" d="M469.23,-101.97C495.33,-97.07 527.32,-91.06 554.73,-85.91"/>
<polygon fill="#63b8ff" stroke="#63b8ff" points="555.42,-89.35 564.6,-84.06 554.12,-82.47 555.42,-89.35"/>
</a>
</g>
</g>
<!-- Node14 -->
<g id="Node000014" class="node">
<title>Node14</title>
<g id="a_Node000014"><a xlink:href="classcore_1_1socket_1_1stream_1_1SocketContext.html#a7ab4e5580dbb64d509ffe2573205c600" target="_top" xlink:title=" ">
<polygon fill="white" stroke="#666666" points="495,-35.5 340,-35.5 340,-5.5 495,-5.5 495,-35.5"/>
<text text-anchor="start" x="348" y="-23.5" font-family="Helvetica,sans-Serif" font-size="10.00">core::socket::stream</text>
<text text-anchor="middle" x="417.5" y="-12.5" font-family="Helvetica,sans-Serif" font-size="10.00">::SocketContext::sendToPeer</text>
</a>
</g>
</g>
<!-- Node13&#45;&gt;Node14 -->
<g id="edge14_Node000013_Node000014" class="edge">
<title>Node13&#45;&gt;Node14</title>
<g id="a_edge14_Node000013_Node000014"><a xlink:title=" ">
<path fill="none" stroke="#63b8ff" d="M302.87,-20.5C311.55,-20.5 320.6,-20.5 329.63,-20.5"/>
<polygon fill="#63b8ff" stroke="#63b8ff" points="329.81,-24 339.81,-20.5 329.81,-17 329.81,-24"/>
</a>
</g>
</g>
<!-- Node15 -->
<g id="Node000015" class="node">
<title>Node15</title>
<g id="a_Node000015"><a xlink:href="classcore_1_1socket_1_1stream_1_1SocketConnection.html#a8562a65ddd381e8a5c3360d12064b0ac" target="_top" xlink:title=" ">
<polygon fill="white" stroke="#666666" points="702,-35.5 531,-35.5 531,-5.5 702,-5.5 702,-35.5"/>
<text text-anchor="start" x="539" y="-23.5" font-family="Helvetica,sans-Serif" font-size="10.00">core::socket::stream</text>
<text text-anchor="middle" x="616.5" y="-12.5" font-family="Helvetica,sans-Serif" font-size="10.00">::SocketConnection::sendToPeer</text>
</a>
</g>
</g>
<!-- Node14&#45;&gt;Node15 -->
<g id="edge15_Node000014_Node000015" class="edge">
<title>Node14&#45;&gt;Node15</title>
<g id="a_edge15_Node000014_Node000015"><a xlink:title=" ">
<path fill="none" stroke="#63b8ff" d="M495.23,-20.5C503.62,-20.5 512.22,-20.5 520.79,-20.5"/>
<polygon fill="#63b8ff" stroke="#63b8ff" points="520.82,-24 530.82,-20.5 520.82,-17 520.82,-24"/>
</a>
</g>
</g>
</g>
</svg>
