<?xml version="1.0" encoding="UTF-8" standalone="no"?>
<!DOCTYPE svg PUBLIC "-//W3C//DTD SVG 1.1//EN"
 "http://www.w3.org/Graphics/SVG/1.1/DTD/svg11.dtd">
<!-- Generated by graphviz version 2.42.4 (0)
 -->
<!-- Title: iot::mqtt::packets::Connect::Connect Pages: 1 -->
<svg width="446pt" height="172pt"
 viewBox="0.00 0.00 446.00 172.00" xmlns="http://www.w3.org/2000/svg" xmlns:xlink="http://www.w3.org/1999/xlink">

<svg id="main" version="1.1" xmlns="http://www.w3.org/2000/svg" xmlns:xlink="http://www.w3.org/1999/xlink" xml:space="preserve">

<style type="text/css"><![CDATA[
.node, .edge {opacity: 0.7;}
.node.selected, .edge.selected {opacity: 1;}
.edge:hover path { stroke: red; }
.edge:hover polygon { stroke: red; fill: red; }
]]></style>
<script type="application/ecmascript" xlink:href="svg.min.js"/>
<svg id="graph" class="graph">
<g id="graph0" class="graph" transform="scale(1 1) rotate(0) translate(4 168)">
<title>iot::mqtt::packets::Connect::Connect</title>
<!-- Node1 -->
<g id="Node000001" class="node">
<title>Node1</title>
<g id="a_Node000001"><a xlink:title=" ">
<polygon fill="#999999" stroke="#666666" points="108,-94 0,-94 0,-64 108,-64 108,-94"/>
<text text-anchor="start" x="8" y="-82" font-family="Helvetica,sans-Serif" font-size="10.00">iot::mqtt::packets</text>
<text text-anchor="middle" x="54" y="-71" font-family="Helvetica,sans-Serif" font-size="10.00">::Connect::Connect</text>
</a>
</g>
</g>
<!-- Node2 -->
<g id="Node000002" class="node">
<title>Node2</title>
<g id="a_Node000002"><a xlink:href="classiot_1_1mqtt_1_1packets_1_1Connect.html#acf053d26c7a20aee2a080f41845839a5" target="_top" xlink:title=" ">
<polygon fill="white" stroke="#666666" points="261,-164 153,-164 153,-134 261,-134 261,-164"/>
<text text-anchor="start" x="161" y="-152" font-family="Helvetica,sans-Serif" font-size="10.00">iot::mqtt::packets</text>
<text text-anchor="middle" x="207" y="-141" font-family="Helvetica,sans-Serif" font-size="10.00">::Connect::Connect</text>
</a>
</g>
</g>
<!-- Node1&#45;&gt;Node2 -->
<g id="edge1_Node000001_Node000002" class="edge">
<title>Node1&#45;&gt;Node2</title>
<g id="a_edge1_Node000001_Node000002"><a xlink:title=" ">
<path fill="none" stroke="#63b8ff" d="M82.29,-94.07C99.71,-103.46 122.91,-115.5 144,-125 147.79,-126.71 151.74,-128.41 155.73,-130.07"/>
<polygon fill="#63b8ff" stroke="#63b8ff" points="154.47,-133.34 165.05,-133.87 157.11,-126.86 154.47,-133.34"/>
</a>
</g>
</g>
<!-- Node4 -->
<g id="Node000004" class="node">
<title>Node4</title>
<g id="a_Node000004"><a xlink:href="classiot_1_1mqtt_1_1types_1_1String.html#ae05dc8e9dcf43e69cd29794b37495b13" target="_top" xlink:title=" ">
<polygon fill="white" stroke="#666666" points="270,-116 144,-116 144,-86 270,-86 270,-116"/>
<text text-anchor="start" x="152" y="-104" font-family="Helvetica,sans-Serif" font-size="10.00">iot::mqtt::types::String</text>
<text text-anchor="middle" x="207" y="-93" font-family="Helvetica,sans-Serif" font-size="10.00">::operator=</text>
</a>
</g>
</g>
<!-- Node1&#45;&gt;Node4 -->
<g id="edge3_Node000001_Node000004" class="edge">
<title>Node1&#45;&gt;Node4</title>
<g id="a_edge3_Node000001_Node000004"><a xlink:title=" ">
<path fill="none" stroke="#63b8ff" d="M108.24,-86.76C116.54,-87.97 125.23,-89.23 133.87,-90.49"/>
<polygon fill="#63b8ff" stroke="#63b8ff" points="133.55,-93.98 143.95,-91.96 134.56,-87.05 133.55,-93.98"/>
</a>
</g>
</g>
<!-- Node5 -->
<g id="Node000005" class="node">
<title>Node5</title>
<g id="a_Node000005"><a xlink:href="classiot_1_1mqtt_1_1types_1_1UInt16.html#a60a47d7e83cd70d9c87031048668ba72" target="_top" xlink:title=" ">
<polygon fill="white" stroke="#666666" points="437,-95 307,-95 307,-65 437,-65 437,-95"/>
<text text-anchor="start" x="315" y="-83" font-family="Helvetica,sans-Serif" font-size="10.00">iot::mqtt::types::UInt16</text>
<text text-anchor="middle" x="372" y="-72" font-family="Helvetica,sans-Serif" font-size="10.00">::operator=</text>
</a>
</g>
</g>
<!-- Node1&#45;&gt;Node5 -->
<g id="edge5_Node000001_Node000005" class="edge">
<title>Node1&#45;&gt;Node5</title>
<g id="a_edge5_Node000001_Node000005"><a xlink:title=" ">
<path fill="none" stroke="#63b8ff" d="M108.18,-77.61C119.97,-77.36 132.41,-77.13 144,-77 200,-76.37 214.01,-76.17 270,-77 278.67,-77.13 287.75,-77.32 296.77,-77.54"/>
<polygon fill="#63b8ff" stroke="#63b8ff" points="296.8,-81.05 306.89,-77.81 296.99,-74.05 296.8,-81.05"/>
</a>
</g>
</g>
<!-- Node6 -->
<g id="Node000006" class="node">
<title>Node6</title>
<g id="a_Node000006"><a xlink:href="classiot_1_1mqtt_1_1types_1_1UInt8.html#a046b3f06a9eef1ed55414ec4272e2713" target="_top" xlink:title=" ">
<polygon fill="white" stroke="#666666" points="269,-30 145,-30 145,0 269,0 269,-30"/>
<text text-anchor="start" x="153" y="-18" font-family="Helvetica,sans-Serif" font-size="10.00">iot::mqtt::types::UInt8</text>
<text text-anchor="middle" x="207" y="-7" font-family="Helvetica,sans-Serif" font-size="10.00">::operator=</text>
</a>
</g>
</g>
<!-- Node1&#45;&gt;Node6 -->
<g id="edge6_Node000001_Node000006" class="edge">
<title>Node1&#45;&gt;Node6</title>
<g id="a_edge6_Node000001_Node000006"><a xlink:title=" ">
<path fill="none" stroke="#63b8ff" d="M90.4,-63.99C111.53,-55.04 138.56,-43.58 161.17,-34"/>
<polygon fill="#63b8ff" stroke="#63b8ff" points="162.72,-37.15 170.56,-30.02 159.98,-30.7 162.72,-37.15"/>
</a>
</g>
</g>
<!-- Node3 -->
<g id="Node000003" class="node">
<title>Node3</title>
<g id="a_Node000003"><a xlink:href="classiot_1_1mqtt_1_1ControlPacket.html#ae14191916323940c9bacc11d7f517c5a" target="_top" xlink:title=" ">
<polygon fill="white" stroke="#666666" points="438,-164 306,-164 306,-134 438,-134 438,-164"/>
<text text-anchor="start" x="314" y="-152" font-family="Helvetica,sans-Serif" font-size="10.00">iot::mqtt::ControlPacket</text>
<text text-anchor="middle" x="372" y="-141" font-family="Helvetica,sans-Serif" font-size="10.00">::ControlPacket</text>
</a>
</g>
</g>
<!-- Node2&#45;&gt;Node3 -->
<g id="edge2_Node000002_Node000003" class="edge">
<title>Node2&#45;&gt;Node3</title>
<g id="a_edge2_Node000002_Node000003"><a xlink:title=" ">
<path fill="none" stroke="#63b8ff" d="M261.37,-149C272.36,-149 284.12,-149 295.72,-149"/>
<polygon fill="#63b8ff" stroke="#63b8ff" points="295.84,-152.5 305.84,-149 295.84,-145.5 295.84,-152.5"/>
</a>
</g>
</g>
<!-- Node4&#45;&gt;Node5 -->
<g id="edge4_Node000004_Node000005" class="edge">
<title>Node4&#45;&gt;Node5</title>
<g id="a_edge4_Node000004_Node000005"><a xlink:title=" ">
<path fill="none" stroke="#63b8ff" d="M270.09,-93C278.85,-91.87 287.92,-90.7 296.88,-89.55"/>
<polygon fill="#63b8ff" stroke="#63b8ff" points="297.45,-93 306.92,-88.26 296.55,-86.06 297.45,-93"/>
</a>
</g>
</g>
</g>
</svg>
</svg>

<style type='text/css'>
<![CDATA[
[data-mouse-over-selected='false'] { opacity: 0.7; }
[data-mouse-over-selected='true']  { opacity: 1.0; }
]]>
</style>
<script type="application/ecmascript"><![CDATA[
document.addEventListener('DOMContentLoaded', (event) => {
  highlightEdges();
  highlightAdjacentNodes();
});
]]></script>
</svg>
