<?xml version="1.0" encoding="UTF-8" standalone="no"?>
<!DOCTYPE svg PUBLIC "-//W3C//DTD SVG 1.1//EN"
 "http://www.w3.org/Graphics/SVG/1.1/DTD/svg11.dtd">
<!-- Generated by graphviz version 2.42.4 (0)
 -->
<!-- Title: web::http::server::SocketContext::responseStarted Pages: 1 -->
<!--zoomable 279 -->

<svg id="main" version="1.1" xmlns="http://www.w3.org/2000/svg" xmlns:xlink="http://www.w3.org/1999/xlink" xml:space="preserve" onload="init(evt)">
<style type="text/css"><![CDATA[
.node, .edge {opacity: 0.7;}
.node.selected, .edge.selected {opacity: 1;}
.edge:hover path { stroke: red; }
.edge:hover polygon { stroke: red; fill: red; }
]]></style>

<defs>
  <circle id="rim" cx="0" cy="0" r="7"/>
  <circle id="rim2" cx="0" cy="0" r="3.5"/>
  <g id="zoomPlus">
    <use xlink:href="#rim" fill="#404040"><set attributeName="fill" to="#808080" begin="zoomplus.mouseover" end="zoomplus.mouseout"/></use>
    <path d="M-4,0h8M0,-4v8" fill="none" stroke="white" stroke-width="1.5" pointer-events="none"/>
  </g>
  <g id="zoomMin">
    <use xlink:href="#rim" fill="#404040"><set attributeName="fill" to="#808080" begin="zoomminus.mouseover" end="zoomminus.mouseout"/></use>
    <path d="M-4,0h8" fill="none" stroke="white" stroke-width="1.5" pointer-events="none"/>
  </g>
  <g id="arrowUp" transform="translate(30 24)">
    <use xlink:href="#rim"/>
    <path pointer-events="none" fill="none" stroke="white" stroke-width="1.5" d="M0,-3.0v7 M-2.5,-0.5L0,-3.0L2.5,-0.5"/>
  </g>
  <g id="arrowRight" transform="rotate(90) translate(36 -43)">
    <use xlink:href="#rim"/>
    <path pointer-events="none" fill="none" stroke="white" stroke-width="1.5" d="M0,-3.0v7 M-2.5,-0.5L0,-3.0L2.5,-0.5"/>
  </g>
  <g id="arrowDown" transform="rotate(180) translate(-30 -48)">
    <use xlink:href="#rim"/>
    <path pointer-events="none" fill="none" stroke="white" stroke-width="1.5" d="M0,-3.0v7 M-2.5,-0.5L0,-3.0L2.5,-0.5"/>
  </g>
  <g id="arrowLeft" transform="rotate(270) translate(-36 17)">
    <use xlink:href="#rim"/>
    <path pointer-events="none" fill="none" stroke="white" stroke-width="1.5" d="M0,-3.0v7 M-2.5,-0.5L0,-3.0L2.5,-0.5"/>
  </g>
  <g id="resetDef">
    <use xlink:href="#rim2" fill="#404040"><set attributeName="fill" to="#808080" begin="reset.mouseover" end="reset.mouseout"/></use>
  </g>
</defs>
<script type="application/ecmascript">
var viewWidth = 592;
var viewHeight = 279;
var sectionId = 'dynsection-14';
</script>
<script type="application/ecmascript" xlink:href="svg.min.js"/>
<svg id="graph" class="graph">
<g id="viewport">
<title>web::http::server::SocketContext::responseStarted</title>
<!-- Node1 -->
<g id="Node000001" class="node">
<title>Node1</title>
<g id="a_Node000001"><a xlink:title=" ">
<polygon fill="#999999" stroke="#666666" points="173,-161.5 0,-161.5 0,-131.5 173,-131.5 173,-161.5"/>
<text text-anchor="start" x="8" y="-149.5" font-family="Helvetica,sans-Serif" font-size="10.00">web::http::server::</text>
<text text-anchor="middle" x="86.5" y="-138.5" font-family="Helvetica,sans-Serif" font-size="10.00">SocketContext::responseStarted</text>
</a>
</g>
</g>
<!-- Node2 -->
<g id="Node000002" class="node">
<title>Node2</title>
<g id="a_Node000002"><a xlink:href="namespaceweb_1_1http.html#a1f64d7d534ae76729c7bae5e5264e5d4" target="_top" xlink:title=" ">
<polygon fill="white" stroke="#666666" points="376,-271 257,-271 257,-252 376,-252 376,-271"/>
<text text-anchor="middle" x="316.5" y="-259" font-family="Helvetica,sans-Serif" font-size="10.00">web::http::ciContains</text>
</a>
</g>
</g>
<!-- Node1&#45;&gt;Node2 -->
<g id="edge1_Node000001_Node000002" class="edge">
<title>Node1&#45;&gt;Node2</title>
<g id="a_edge1_Node000001_Node000002"><a xlink:title=" ">
<path fill="none" stroke="#63b8ff" d="M101.6,-161.61C122.73,-183.25 164.87,-222.65 209,-242.5 220.81,-247.81 233.98,-251.64 246.92,-254.4"/>
<polygon fill="#63b8ff" stroke="#63b8ff" points="246.26,-257.83 256.75,-256.31 247.6,-250.96 246.26,-257.83"/>
</a>
</g>
</g>
<!-- Node3 -->
<g id="Node000003" class="node">
<title>Node3</title>
<g id="a_Node000003"><a xlink:href="classweb_1_1http_1_1server_1_1Request.html#aa29d8d5a5b007453ce2b96b55e63960f" target="_top" xlink:title=" ">
<polygon fill="white" stroke="#666666" points="369,-233.5 264,-233.5 264,-203.5 369,-203.5 369,-233.5"/>
<text text-anchor="start" x="272" y="-221.5" font-family="Helvetica,sans-Serif" font-size="10.00">web::http::server::</text>
<text text-anchor="middle" x="316.5" y="-210.5" font-family="Helvetica,sans-Serif" font-size="10.00">Request::get</text>
</a>
</g>
</g>
<!-- Node1&#45;&gt;Node3 -->
<g id="edge2_Node000001_Node000003" class="edge">
<title>Node1&#45;&gt;Node3</title>
<g id="a_edge2_Node000001_Node000003"><a xlink:title=" ">
<path fill="none" stroke="#63b8ff" d="M121.56,-161.6C145.64,-171.86 178.87,-185.22 209,-194.5 223.35,-198.92 239.02,-202.91 253.81,-206.3"/>
<polygon fill="#63b8ff" stroke="#63b8ff" points="253.36,-209.78 263.89,-208.55 254.89,-202.95 253.36,-209.78"/>
</a>
</g>
</g>
<!-- Node4 -->
<g id="Node000004" class="node">
<title>Node4</title>
<g id="a_Node000004"><a xlink:href="classcore_1_1socket_1_1stream_1_1SocketConnection.html#a5e26cd617f07295e8579ddb9c41bdd2c" target="_top" xlink:title=" ">
<polygon fill="white" stroke="#666666" points="424,-185.5 209,-185.5 209,-155.5 424,-155.5 424,-185.5"/>
<text text-anchor="start" x="217" y="-173.5" font-family="Helvetica,sans-Serif" font-size="10.00">core::socket::stream</text>
<text text-anchor="middle" x="316.5" y="-162.5" font-family="Helvetica,sans-Serif" font-size="10.00">::SocketConnection::getConnectionName</text>
</a>
</g>
</g>
<!-- Node1&#45;&gt;Node4 -->
<g id="edge3_Node000001_Node000004" class="edge">
<title>Node1&#45;&gt;Node4</title>
<g id="a_edge3_Node000001_Node000004"><a xlink:title=" ">
<path fill="none" stroke="#63b8ff" d="M173.05,-155.5C181.4,-156.38 189.98,-157.29 198.57,-158.19"/>
<polygon fill="#63b8ff" stroke="#63b8ff" points="198.35,-161.69 208.66,-159.25 199.08,-154.73 198.35,-161.69"/>
</a>
</g>
</g>
<!-- Node5 -->
<g id="Node000005" class="node">
<title>Node5</title>
<g id="a_Node000005"><a xlink:href="classcore_1_1socket_1_1stream_1_1SocketContext.html#a02f0b93ac0ea376dabd6921c7589a8cf" target="_top" xlink:title=" ">
<polygon fill="white" stroke="#666666" points="417.5,-137.5 215.5,-137.5 215.5,-107.5 417.5,-107.5 417.5,-137.5"/>
<text text-anchor="start" x="223.5" y="-125.5" font-family="Helvetica,sans-Serif" font-size="10.00">core::socket::stream</text>
<text text-anchor="middle" x="316.5" y="-114.5" font-family="Helvetica,sans-Serif" font-size="10.00">::SocketContext::getSocketConnection</text>
</a>
</g>
</g>
<!-- Node1&#45;&gt;Node5 -->
<g id="edge4_Node000001_Node000005" class="edge">
<title>Node1&#45;&gt;Node5</title>
<g id="a_edge4_Node000001_Node000005"><a xlink:title=" ">
<path fill="none" stroke="#63b8ff" d="M173.05,-137.5C183.48,-136.4 194.26,-135.26 205,-134.13"/>
<polygon fill="#63b8ff" stroke="#63b8ff" points="205.69,-137.58 215.27,-133.05 204.96,-130.62 205.69,-137.58"/>
</a>
</g>
</g>
<!-- Node6 -->
<g id="Node000006" class="node">
<title>Node6</title>
<g id="a_Node000006"><a xlink:href="classweb_1_1http_1_1StatusCode.html#ad3c635f1cb778cdb4a2e23332ebda277" target="_top" xlink:title=" ">
<polygon fill="white" stroke="#666666" points="378.5,-89.5 254.5,-89.5 254.5,-59.5 378.5,-59.5 378.5,-89.5"/>
<text text-anchor="start" x="262.5" y="-77.5" font-family="Helvetica,sans-Serif" font-size="10.00">web::http::StatusCode</text>
<text text-anchor="middle" x="316.5" y="-66.5" font-family="Helvetica,sans-Serif" font-size="10.00">::reason</text>
</a>
</g>
</g>
<!-- Node1&#45;&gt;Node6 -->
<g id="edge5_Node000001_Node000006" class="edge">
<title>Node1&#45;&gt;Node6</title>
<g id="a_edge5_Node000001_Node000006"><a xlink:title=" ">
<path fill="none" stroke="#63b8ff" d="M121.56,-131.4C145.64,-121.14 178.87,-107.78 209,-98.5 220.32,-95.01 232.46,-91.8 244.35,-88.93"/>
<polygon fill="#63b8ff" stroke="#63b8ff" points="245.31,-92.3 254.25,-86.6 243.71,-85.48 245.31,-92.3"/>
</a>
</g>
</g>
<!-- Node8 -->
<g id="Node000008" class="node">
<title>Node8</title>
<g id="a_Node000008"><a xlink:href="classcore_1_1socket_1_1stream_1_1SocketConnection.html#a0da233ab0285d61d4fd260763d2fcc0c" target="_top" xlink:title=" ">
<polygon fill="white" stroke="#666666" points="394,-41 239,-41 239,0 394,0 394,-41"/>
<text text-anchor="start" x="247" y="-29" font-family="Helvetica,sans-Serif" font-size="10.00">core::socket::stream</text>
<text text-anchor="start" x="247" y="-18" font-family="Helvetica,sans-Serif" font-size="10.00">::SocketConnection::setRead</text>
<text text-anchor="middle" x="316.5" y="-7" font-family="Helvetica,sans-Serif" font-size="10.00">Timeout</text>
</a>
</g>
</g>
<!-- Node1&#45;&gt;Node8 -->
<g id="edge7_Node000001_Node000008" class="edge">
<title>Node1&#45;&gt;Node8</title>
<g id="a_edge7_Node000001_Node000008"><a xlink:title=" ">
<path fill="none" stroke="#63b8ff" d="M102.59,-131.25C124.28,-110.16 166.37,-72.24 209,-50.5 215.41,-47.23 222.23,-44.27 229.19,-41.61"/>
<polygon fill="#63b8ff" stroke="#63b8ff" points="230.54,-44.85 238.76,-38.16 228.16,-38.26 230.54,-44.85"/>
</a>
</g>
</g>
<!-- Node7 -->
<g id="Node000007" class="node">
<title>Node7</title>
<g id="a_Node000007"><a xlink:href="classweb_1_1http_1_1StatusCode.html#a7128168d2becba8d8bfd0e47ab2854ff" target="_top" xlink:title=" ">
<polygon fill="white" stroke="#666666" points="584,-89.5 460,-89.5 460,-59.5 584,-59.5 584,-89.5"/>
<text text-anchor="start" x="468" y="-77.5" font-family="Helvetica,sans-Serif" font-size="10.00">web::http::StatusCode</text>
<text text-anchor="middle" x="522" y="-66.5" font-family="Helvetica,sans-Serif" font-size="10.00">::contains</text>
</a>
</g>
</g>
<!-- Node6&#45;&gt;Node7 -->
<g id="edge6_Node000006_Node000007" class="edge">
<title>Node6&#45;&gt;Node7</title>
<g id="a_edge6_Node000006_Node000007"><a xlink:title=" ">
<path fill="none" stroke="#63b8ff" d="M378.56,-74.5C400.99,-74.5 426.59,-74.5 449.84,-74.5"/>
<polygon fill="#63b8ff" stroke="#63b8ff" points="449.99,-78 459.99,-74.5 449.99,-71 449.99,-78"/>
</a>
</g>
</g>
</g>
</svg>

<g id="navigator" transform="translate(0 0)" fill="#404254">
  <rect fill="#f2f5e9" fill-opacity="0.5" stroke="#606060" stroke-width=".5" x="0" y="0" width="60" height="60"/>
  <use id="zoomplus" xlink:href="#zoomPlus" x="17" y="9" onmousedown="handleZoom(evt,'in')"/>
  <use id="zoomminus" xlink:href="#zoomMin" x="42" y="9" onmousedown="handleZoom(evt,'out')"/>
  <use id="reset" xlink:href="#resetDef" x="30" y="36" onmousedown="handleReset()"/>
   <use id="arrowup" xlink:href="#arrowUp" x="0" y="0" onmousedown="handlePan(0,-1)"/>
  <use id="arrowright" xlink:href="#arrowRight" x="0" y="0" onmousedown="handlePan(1,0)"/>
  <use id="arrowdown" xlink:href="#arrowDown" x="0" y="0" onmousedown="handlePan(0,1)"/>
  <use id="arrowleft" xlink:href="#arrowLeft" x="0" y="0" onmousedown="handlePan(-1,0)"/>
</g>
<svg viewBox="0 0 15 15" width="100%" height="30px" preserveAspectRatio="xMaxYMin meet">
 <g id="arrow_out" transform="scale(0.3 0.3)">
  <a xlink:href="classweb_1_1http_1_1server_1_1SocketContext_aa03164f2beb37a1e271db355ae660eaf_cgraph_org.svg" target="_base">
   <rect id="button" ry="5" rx="5" y="6" x="6" height="38" width="38"
        fill="#f2f5e9" fill-opacity="0.5" stroke="#606060" stroke-width="1.0"/>
   <path id="arrow"
     d="M 11.500037,31.436501 C 11.940474,20.09759 22.043105,11.32322 32.158766,21.979434 L 37.068811,17.246167 C 37.068811,17.246167 37.088388,32 37.088388,32 L 22.160133,31.978069 C 22.160133,31.978069 26.997745,27.140456 26.997745,27.140456 C 18.528582,18.264221 13.291696,25.230495 11.500037,31.436501 z"
     style="fill:#404040;"/>
  </a>
 </g>
</svg>

<style type='text/css'>
<![CDATA[
[data-mouse-over-selected='false'] { opacity: 0.7; }
[data-mouse-over-selected='true']  { opacity: 1.0; }
]]>
</style>
<script type="application/ecmascript"><![CDATA[
document.addEventListener('DOMContentLoaded', (event) => {
  highlightEdges();
  highlightAdjacentNodes();
});
]]></script>
</svg>
