<?xml version="1.0" encoding="UTF-8" standalone="no"?>
<!DOCTYPE svg PUBLIC "-//W3C//DTD SVG 1.1//EN"
 "http://www.w3.org/Graphics/SVG/1.1/DTD/svg11.dtd">
<!-- Generated by graphviz version 14.1.2 (0)
 -->
<!-- Title: net::in6::phy::stream::PhysicalSocketServer Pages: 1 -->
<svg width="159pt" height="276pt"
 viewBox="0.00 0.00 159.00 276.00" xmlns="http://www.w3.org/2000/svg" xmlns:xlink="http://www.w3.org/1999/xlink">

<svg id="main" version="1.1" xmlns="http://www.w3.org/2000/svg" xmlns:xlink="http://www.w3.org/1999/xlink" xml:space="preserve">

<style type="text/css"><![CDATA[
.node, .edge {opacity: 0.7;}
.node.selected, .edge.selected {opacity: 1;}
.edge:hover path { stroke: red; }
.edge:hover polygon { stroke: red; fill: red; }
]]></style>
<script type="application/ecmascript" xlink:href="svg.min.js"/>
<svg id="graph" class="graph">
<g id="graph0" class="graph" transform="scale(1 1) rotate(0) translate(4 271.5)">
<title>net::in6::phy::stream::PhysicalSocketServer</title>
<!-- Node1 -->
<g id="Node000001" class="node">
<title>Node1</title>
<g id="a_Node000001"><a xlink:title=" ">
<polygon fill="#999999" stroke="none" points="134.38,-33.5 16.12,-33.5 16.12,0 134.38,0 134.38,-33.5"/>
<text xml:space="preserve" text-anchor="start" x="20.12" y="-20" font-family="Helvetica,sans-Serif" font-size="10.00">net::in6::phy::stream</text>
<text xml:space="preserve" text-anchor="start" x="20.12" y="-7.25" font-family="Helvetica,sans-Serif" font-size="10.00">::PhysicalSocketServer</text>
<polygon fill="none" stroke="#666666" points="16.12,0 16.12,-33.5 134.38,-33.5 134.38,0 16.12,0"/>
</a>
</g>
</g>
<!-- Node2 -->
<g id="Node000002" class="node">
<title>Node2</title>
<g id="a_Node000002"><a xlink:href="classnet_1_1in6_1_1phy_1_1stream_1_1PhysicalSocket.html" target="_top" xlink:title=" ">
<polygon fill="white" stroke="none" points="150.5,-128.5 0,-128.5 0,-69.5 150.5,-69.5 150.5,-128.5"/>
<text xml:space="preserve" text-anchor="start" x="4" y="-115" font-family="Helvetica,sans-Serif" font-size="10.00">net::in6::phy::stream</text>
<text xml:space="preserve" text-anchor="start" x="4" y="-102.25" font-family="Helvetica,sans-Serif" font-size="10.00">::PhysicalSocket&lt; net</text>
<text xml:space="preserve" text-anchor="start" x="4" y="-89.5" font-family="Helvetica,sans-Serif" font-size="10.00">::phy::stream::PhysicalSocket</text>
<text xml:space="preserve" text-anchor="start" x="53.88" y="-76.75" font-family="Helvetica,sans-Serif" font-size="10.00">Server &gt;</text>
<polygon fill="none" stroke="#666666" points="0,-69.5 0,-128.5 150.5,-128.5 150.5,-69.5 0,-69.5"/>
</a>
</g>
</g>
<!-- Node2&#45;&gt;Node1 -->
<g id="edge1_Node000001_Node000002" class="edge">
<title>Node2&#45;&gt;Node1</title>
<g id="a_edge1_Node000001_Node000002"><a xlink:title=" ">
<path fill="none" stroke="#63b8ff" d="M75.25,-58.68C75.25,-49.67 75.25,-40.6 75.25,-33.29"/>
<polygon fill="none" stroke="#63b8ff" points="71.75,-58.42 75.25,-68.42 78.75,-58.42 71.75,-58.42"/>
</a>
</g>
</g>
<!-- Node3 -->
<g id="Node000003" class="node">
<title>Node3</title>
<g id="a_Node000003"><a xlink:href="classnet_1_1in6_1_1phy_1_1PhysicalSocket.html" target="_top" xlink:title=" ">
<polygon fill="white" stroke="none" points="148.62,-198 1.88,-198 1.88,-164.5 148.62,-164.5 148.62,-198"/>
<text xml:space="preserve" text-anchor="start" x="5.88" y="-184.5" font-family="Helvetica,sans-Serif" font-size="10.00">net::in6::phy::PhysicalSocket</text>
<text xml:space="preserve" text-anchor="start" x="13.75" y="-171.75" font-family="Helvetica,sans-Serif" font-size="10.00">&lt; PhysicalPeerSocketT &gt;</text>
<polygon fill="none" stroke="#666666" points="1.88,-164.5 1.88,-198 148.62,-198 148.62,-164.5 1.88,-164.5"/>
</a>
</g>
</g>
<!-- Node3&#45;&gt;Node2 -->
<g id="edge2_Node000002_Node000003" class="edge">
<title>Node3&#45;&gt;Node2</title>
<g id="a_edge2_Node000002_Node000003"><a xlink:title=" ">
<path fill="none" stroke="#63b8ff" d="M75.25,-153.4C75.25,-145.37 75.25,-136.55 75.25,-128.42"/>
<polygon fill="none" stroke="#63b8ff" points="71.75,-153.26 75.25,-163.26 78.75,-153.26 71.75,-153.26"/>
</a>
</g>
</g>
<!-- Node4 -->
<g id="Node000004" class="node">
<title>Node4</title>
<g id="a_Node000004"><a xlink:title=" ">
<polygon fill="white" stroke="none" points="147.5,-267.5 3,-267.5 3,-234 147.5,-234 147.5,-267.5"/>
<text xml:space="preserve" text-anchor="start" x="7" y="-254" font-family="Helvetica,sans-Serif" font-size="10.00">PhysicalPeerSocketT</text>
<text xml:space="preserve" text-anchor="start" x="7" y="-241.25" font-family="Helvetica,sans-Serif" font-size="10.00">&lt; net::in6::SocketAddress &gt;</text>
<polygon fill="none" stroke="#666666" points="3,-234 3,-267.5 147.5,-267.5 147.5,-234 3,-234"/>
</a>
</g>
</g>
<!-- Node4&#45;&gt;Node3 -->
<g id="edge3_Node000003_Node000004" class="edge">
<title>Node4&#45;&gt;Node3</title>
<g id="a_edge3_Node000003_Node000004"><a xlink:title=" ">
<path fill="none" stroke="#63b8ff" d="M75.25,-222.75C75.25,-214.28 75.25,-205.22 75.25,-197.82"/>
<polygon fill="none" stroke="#63b8ff" points="71.75,-222.58 75.25,-232.58 78.75,-222.58 71.75,-222.58"/>
</a>
</g>
</g>
</g>
</svg>
</svg>

<style type='text/css'>
<![CDATA[
[data-mouse-over-selected='false'] { opacity: 0.7; }
[data-mouse-over-selected='true']  { opacity: 1.0; }
]]>
</style>
<script type="application/ecmascript"><![CDATA[
document.addEventListener('DOMContentLoaded', (event) => {
  highlightEdges();
  highlightAdjacentNodes();
});
]]></script>
</svg>
