<?xml version="1.0" encoding="UTF-8" standalone="no"?>
<!DOCTYPE svg PUBLIC "-//W3C//DTD SVG 1.1//EN"
 "http://www.w3.org/Graphics/SVG/1.1/DTD/svg11.dtd">
<!-- Generated by graphviz version 2.43.0 (0)
 -->
<!-- Title: TowerCalculator Pages: 1 -->
<svg width="1230pt" height="522pt"
 viewBox="0.00 0.00 1230.00 522.00" xmlns="http://www.w3.org/2000/svg" xmlns:xlink="http://www.w3.org/1999/xlink">
<g id="graph0" class="graph" transform="scale(1 1) rotate(0) translate(4 518)">
<title>TowerCalculator</title>
<!-- Node1 -->
<g id="Node000001" class="node">
<title>Node1</title>
<g id="a_Node000001"><a xlink:title=" ">
<polygon fill="#999999" stroke="transparent" points="102,-420.5 14,-420.5 14,-401.5 102,-401.5 102,-420.5"/>
<text text-anchor="start" x="18.5" y="-408" font-family="Helvetica,sans-Serif" font-size="10.00">TowerCalculator</text>
<polygon fill="none" stroke="#666666" points="14,-401.5 14,-420.5 102,-420.5 102,-401.5 14,-401.5"/>
</a>
</g>
</g>
<!-- Node2 -->
<g id="Node000002" class="node">
<title>Node2</title>
<g id="a_Node000002"><a xlink:href="classcore_1_1EventReceiver.html" target="_top" xlink:title=" ">
<polygon fill="white" stroke="transparent" points="290,-514 184,-514 184,-495 290,-495 290,-514"/>
<text text-anchor="start" x="188" y="-501.5" font-family="Helvetica,sans-Serif" font-size="10.00">core::EventReceiver</text>
<polygon fill="none" stroke="#666666" points="184,-495 184,-514 290,-514 290,-495 184,-495"/>
</a>
</g>
</g>
<!-- Node2&#45;&gt;Node1 -->
<g id="edge1_Node000001_Node000002" class="edge">
<title>Node2&#45;&gt;Node1</title>
<g id="a_edge1_Node000001_Node000002"><a xlink:title=" ">
<path fill="none" stroke="#63b8ff" d="M173.64,-495.8C156.98,-491.87 139.6,-485.95 125,-477 108.6,-466.95 110.71,-457.49 97,-444 88.38,-435.52 77.72,-426.89 69.73,-420.73"/>
<polygon fill="none" stroke="#63b8ff" points="173.38,-499.32 183.89,-498 174.85,-492.48 173.38,-499.32"/>
</a>
</g>
</g>
<!-- Node3 -->
<g id="Node000003" class="node">
<title>Node3</title>
<g id="a_Node000003"><a xlink:href="classcore_1_1Event.html" target="_top" xlink:title=" ">
<polygon fill="white" stroke="transparent" points="269,-250 205,-250 205,-231 269,-231 269,-250"/>
<text text-anchor="start" x="209.5" y="-237.5" font-family="Helvetica,sans-Serif" font-size="10.00">core::Event</text>
<polygon fill="none" stroke="#666666" points="205,-231 205,-250 269,-250 269,-231 205,-231"/>
</a>
</g>
</g>
<!-- Node2&#45;&gt;Node3 -->
<g id="edge5_Node000003_Node000002" class="edge">
<title>Node2&#45;&gt;Node3</title>
<g id="a_edge5_Node000003_Node000002"><a xlink:title=" ">
<path fill="none" stroke="#63b8ff" d="M228.81,-494.99C211.13,-475.94 169.78,-427.64 155,-378 140.81,-330.33 187.06,-282.25 215.81,-257.88"/>
<polygon fill="none" stroke="#63b8ff" points="216.16,-257.59 218.29,-250.7 225.47,-250.01 223.34,-256.9 216.16,-257.59"/>
</a>
</g>
<text text-anchor="middle" x="194" y="-370" font-family="Helvetica,sans-Serif" font-size="10.00" fill="grey"> &#45;eventReceiver</text>
</g>
<!-- Node11 -->
<g id="Node000011" class="node">
<title>Node11</title>
<g id="a_Node000011"><a xlink:href="classcore_1_1DescriptorEventReceiver.html" target="_top" xlink:title=" ">
<polygon fill="white" stroke="transparent" points="586,-420.5 430,-420.5 430,-401.5 586,-401.5 586,-420.5"/>
<text text-anchor="start" x="434" y="-408" font-family="Helvetica,sans-Serif" font-size="10.00">core::DescriptorEventReceiver</text>
<polygon fill="none" stroke="#666666" points="430,-401.5 430,-420.5 586,-420.5 586,-401.5 430,-401.5"/>
</a>
</g>
</g>
<!-- Node2&#45;&gt;Node11 -->
<g id="edge13_Node000011_Node000002" class="edge">
<title>Node2&#45;&gt;Node11</title>
<g id="a_edge13_Node000011_Node000002"><a xlink:title=" ">
<path fill="none" stroke="#63b8ff" d="M272.24,-491.6C327.76,-472.86 434.23,-436.91 482.77,-420.52"/>
<polygon fill="none" stroke="#63b8ff" points="270.85,-488.38 262.5,-494.89 273.09,-495.01 270.85,-488.38"/>
</a>
</g>
</g>
<!-- Node16 -->
<g id="Node000016" class="node">
<title>Node16</title>
<g id="a_Node000016"><a xlink:href="classcore_1_1TimerEventReceiver.html" target="_top" xlink:title=" ">
<polygon fill="white" stroke="transparent" points="766,-420.5 632,-420.5 632,-401.5 766,-401.5 766,-420.5"/>
<text text-anchor="start" x="636" y="-408" font-family="Helvetica,sans-Serif" font-size="10.00">core::TimerEventReceiver</text>
<polygon fill="none" stroke="#666666" points="632,-401.5 632,-420.5 766,-420.5 766,-401.5 632,-401.5"/>
</a>
</g>
</g>
<!-- Node2&#45;&gt;Node16 -->
<g id="edge20_Node000016_Node000002" class="edge">
<title>Node2&#45;&gt;Node16</title>
<g id="a_edge20_Node000016_Node000002"><a xlink:title=" ">
<path fill="none" stroke="#63b8ff" d="M294.01,-493.13C319.7,-488.36 350.41,-482.55 378,-477 446.62,-463.2 463.4,-457.92 532,-444 572.79,-435.72 619.31,-426.86 652.87,-420.56"/>
<polygon fill="none" stroke="#63b8ff" points="293.26,-489.7 284.06,-494.96 294.53,-496.59 293.26,-489.7"/>
</a>
</g>
</g>
<!-- Node3&#45;&gt;Node2 -->
<g id="edge2_Node000002_Node000003" class="edge">
<title>Node3&#45;&gt;Node2</title>
<g id="a_edge2_Node000002_Node000003"><a xlink:title=" ">
<path fill="none" stroke="#63b8ff" d="M237,-250.25C237,-286.91 237,-428.73 237,-482.59"/>
<polygon fill="none" stroke="#63b8ff" points="237,-482.78 241,-488.78 237,-494.78 233,-488.78 237,-482.78"/>
</a>
</g>
<text text-anchor="middle" x="254.5" y="-370" font-family="Helvetica,sans-Serif" font-size="10.00" fill="grey"> &#45;event</text>
</g>
<!-- Node20 -->
<g id="Node000020" class="node">
<title>Node20</title>
<g id="a_Node000020"><a xlink:title=" ">
<polygon fill="white" stroke="transparent" points="354,-173 224,-173 224,-154 354,-154 354,-173"/>
<text text-anchor="start" x="228" y="-160.5" font-family="Helvetica,sans-Serif" font-size="10.00">std::list&lt; core::Event * &gt;</text>
<polygon fill="none" stroke="#666666" points="224,-154 224,-173 354,-173 354,-154 224,-154"/>
</a>
</g>
</g>
<!-- Node3&#45;&gt;Node20 -->
<g id="edge29_Node000020_Node000003" class="edge">
<title>Node3&#45;&gt;Node20</title>
<g id="a_edge29_Node000020_Node000003"><a xlink:title=" ">
<path fill="none" stroke="#63b8ff" d="M237.04,-230.83C237.5,-220.47 239.59,-203.03 248,-191 251,-186.7 254.95,-182.93 259.21,-179.69"/>
<polygon fill="none" stroke="#63b8ff" points="259.35,-179.6 262.21,-172.98 269.42,-173.07 266.56,-179.69 259.35,-179.6"/>
</a>
</g>
<text text-anchor="middle" x="277" y="-194" font-family="Helvetica,sans-Serif" font-size="10.00" fill="grey"> +elements</text>
</g>
<!-- Node4 -->
<g id="Node000004" class="node">
<title>Node4</title>
<g id="a_Node000004"><a xlink:title=" ">
<polygon fill="white" stroke="transparent" points="345,-338 287,-338 287,-319 345,-319 345,-338"/>
<text text-anchor="start" x="291.5" y="-325.5" font-family="Helvetica,sans-Serif" font-size="10.00">std::string</text>
<polygon fill="none" stroke="#666666" points="287,-319 287,-338 345,-338 345,-319 287,-319"/>
</a>
</g>
</g>
<!-- Node4&#45;&gt;Node3 -->
<g id="edge3_Node000003_Node000004" class="edge">
<title>Node4&#45;&gt;Node3</title>
<g id="a_edge3_Node000003_Node000004"><a xlink:title=" ">
<path fill="none" stroke="#63b8ff" d="M303.78,-318.73C294.28,-311.59 281.05,-300.93 271,-290 262.68,-280.96 254.73,-269.8 248.6,-260.46"/>
<polygon fill="none" stroke="#63b8ff" points="248.56,-260.39 241.97,-257.45 242.14,-250.25 248.73,-253.18 248.56,-260.39"/>
</a>
</g>
<text text-anchor="middle" x="288.5" y="-282" font-family="Helvetica,sans-Serif" font-size="10.00" fill="grey"> &#45;name</text>
</g>
<!-- Node8 -->
<g id="Node000008" class="node">
<title>Node8</title>
<g id="a_Node000008"><a xlink:href="classcore_1_1DescriptorEventPublisher.html" target="_top" xlink:title=" ">
<polygon fill="white" stroke="transparent" points="533,-173 373,-173 373,-154 533,-154 533,-173"/>
<text text-anchor="start" x="377.5" y="-160.5" font-family="Helvetica,sans-Serif" font-size="10.00">core::DescriptorEventPublisher</text>
<polygon fill="none" stroke="#666666" points="373,-154 373,-173 533,-173 533,-154 373,-154"/>
</a>
</g>
</g>
<!-- Node4&#45;&gt;Node8 -->
<g id="edge16_Node000008_Node000004" class="edge">
<title>Node4&#45;&gt;Node8</title>
<g id="a_edge16_Node000008_Node000004"><a xlink:title=" ">
<path fill="none" stroke="#63b8ff" d="M314.45,-318.97C311.38,-299.36 306.65,-250.47 329,-220 345,-198.18 371.57,-184.77 396.01,-176.62"/>
<polygon fill="none" stroke="#63b8ff" points="396.31,-176.53 400.88,-170.95 407.79,-173.02 403.22,-178.6 396.31,-176.53"/>
</a>
</g>
<text text-anchor="middle" x="346.5" y="-238" font-family="Helvetica,sans-Serif" font-size="10.00" fill="grey"> &#45;name</text>
</g>
<!-- Node5 -->
<g id="Node000005" class="node">
<title>Node5</title>
<g id="a_Node000005"><a xlink:title=" ">
<polygon fill="white" stroke="transparent" points="364,-426 268,-426 268,-396 364,-396 364,-426"/>
<text text-anchor="start" x="272" y="-414" font-family="Helvetica,sans-Serif" font-size="10.00">std::basic_string&lt;</text>
<text text-anchor="start" x="297.5" y="-403" font-family="Helvetica,sans-Serif" font-size="10.00"> Char &gt;</text>
<polygon fill="none" stroke="#666666" points="268,-396 268,-426 364,-426 364,-396 268,-396"/>
</a>
</g>
</g>
<!-- Node5&#45;&gt;Node4 -->
<g id="edge4_Node000004_Node000005" class="edge">
<title>Node5&#45;&gt;Node4</title>
<g id="a_edge4_Node000004_Node000005"><a xlink:title=" ">
<path fill="none" stroke="#63b8ff" d="M316,-385.7C316,-369.7 316,-349.7 316,-338.38"/>
<polygon fill="none" stroke="#63b8ff" points="312.5,-385.98 316,-395.98 319.5,-385.98 312.5,-385.98"/>
</a>
</g>
</g>
<!-- Node6 -->
<g id="Node000006" class="node">
<title>Node6</title>
<g id="a_Node000006"><a xlink:href="classcore_1_1EventMultiplexer.html" target="_top" xlink:title=" ">
<polygon fill="white" stroke="transparent" points="425,-19 305,-19 305,0 425,0 425,-19"/>
<text text-anchor="start" x="309.5" y="-6.5" font-family="Helvetica,sans-Serif" font-size="10.00">core::EventMultiplexer</text>
<polygon fill="none" stroke="#666666" points="305,0 305,-19 425,-19 425,0 305,0"/>
</a>
</g>
</g>
<!-- Node6&#45;&gt;Node3 -->
<g id="edge6_Node000003_Node000006" class="edge">
<title>Node6&#45;&gt;Node3</title>
<g id="a_edge6_Node000003_Node000006"><a xlink:title=" ">
<path fill="none" stroke="#63b8ff" d="M328.56,-19.01C285.74,-31.4 218.08,-59.15 199,-114 185.96,-151.49 208.31,-196.14 223.9,-220.8"/>
<polygon fill="none" stroke="#63b8ff" points="223.97,-220.91 230.63,-223.69 230.62,-230.9 223.97,-228.12 223.97,-220.91"/>
</a>
</g>
<text text-anchor="middle" x="244.5" y="-122.5" font-family="Helvetica,sans-Serif" font-size="10.00" fill="grey"> &#45;eventMultiplexer</text>
</g>
<!-- Node7 -->
<g id="Node000007" class="node">
<title>Node7</title>
<g id="a_Node000007"><a xlink:title=" ">
<polygon fill="white" stroke="transparent" points="528,-96 384,-96 384,-66 528,-66 528,-96"/>
<text text-anchor="start" x="388" y="-84" font-family="Helvetica,sans-Serif" font-size="10.00">std::array&lt; core::Descriptor</text>
<text text-anchor="start" x="403.5" y="-73" font-family="Helvetica,sans-Serif" font-size="10.00">EventPublisher *, 3 &gt;</text>
<polygon fill="none" stroke="#666666" points="384,-66 384,-96 528,-96 528,-66 384,-66"/>
</a>
</g>
</g>
<!-- Node7&#45;&gt;Node6 -->
<g id="edge7_Node000006_Node000007" class="edge">
<title>Node7&#45;&gt;Node6</title>
<g id="a_edge7_Node000006_Node000007"><a xlink:title=" ">
<path fill="none" stroke="#63b8ff" d="M441.45,-65.73C432.23,-56.99 419.83,-45.84 408,-37 402.69,-33.04 396.77,-29.1 391.06,-25.53"/>
<polygon fill="none" stroke="#63b8ff" points="390.83,-25.39 383.62,-25.71 380.56,-19.18 387.76,-18.86 390.83,-25.39"/>
</a>
</g>
<text text-anchor="middle" x="489.5" y="-40" font-family="Helvetica,sans-Serif" font-size="10.00" fill="grey"> #descriptorEventPublishers</text>
</g>
<!-- Node8&#45;&gt;Node7 -->
<g id="edge8_Node000007_Node000008" class="edge">
<title>Node8&#45;&gt;Node7</title>
<g id="a_edge8_Node000007_Node000008"><a xlink:title=" ">
<path fill="none" stroke="#63b8ff" d="M453.32,-153.89C453.72,-143.11 454.43,-124.17 455.01,-108.43"/>
<polygon fill="none" stroke="#63b8ff" points="455.02,-108.21 451.25,-102.06 455.47,-96.22 459.24,-102.36 455.02,-108.21"/>
</a>
</g>
<text text-anchor="middle" x="483" y="-122.5" font-family="Helvetica,sans-Serif" font-size="10.00" fill="grey"> +elements</text>
</g>
<!-- Node8&#45;&gt;Node11 -->
<g id="edge14_Node000011_Node000008" class="edge">
<title>Node8&#45;&gt;Node11</title>
<g id="a_edge14_Node000011_Node000008"><a xlink:title=" ">
<path fill="none" stroke="#63b8ff" d="M509.24,-173.16C518.55,-177.12 527.09,-182.82 533,-191 581.7,-258.44 546.94,-297.76 525,-378 523.8,-382.38 521.93,-386.83 519.85,-390.97"/>
<polygon fill="none" stroke="#63b8ff" points="519.81,-391.05 520.32,-398.24 513.88,-401.48 513.37,-394.28 519.81,-391.05"/>
</a>
</g>
<text text-anchor="middle" x="619.5" y="-282" font-family="Helvetica,sans-Serif" font-size="10.00" fill="grey"> &#45;descriptorEventPublisher</text>
</g>
<!-- Node9 -->
<g id="Node000009" class="node">
<title>Node9</title>
<g id="a_Node000009"><a xlink:title=" ">
<polygon fill="white" stroke="transparent" points="519,-261 373,-261 373,-220 519,-220 519,-261"/>
<text text-anchor="start" x="377" y="-248.5" font-family="Helvetica,sans-Serif" font-size="10.00">std::map&lt; int, std</text>
<text text-anchor="start" x="377" y="-237.5" font-family="Helvetica,sans-Serif" font-size="10.00">::list&lt; core::DescriptorEvent</text>
<text text-anchor="start" x="409" y="-226.5" font-family="Helvetica,sans-Serif" font-size="10.00">Receiver * &gt; &gt;</text>
<polygon fill="none" stroke="#666666" points="373,-220 373,-261 519,-261 519,-220 373,-220"/>
</a>
</g>
</g>
<!-- Node9&#45;&gt;Node8 -->
<g id="edge9_Node000008_Node000009" class="edge">
<title>Node9&#45;&gt;Node8</title>
<g id="a_edge9_Node000008_Node000009"><a xlink:title=" ">
<path fill="none" stroke="#63b8ff" d="M410.47,-219.84C400.31,-211.58 393.53,-201.46 400,-191 402.94,-186.24 407.02,-182.31 411.62,-179.07"/>
<polygon fill="none" stroke="#63b8ff" points="411.86,-178.94 415.11,-172.5 422.3,-173.02 419.05,-179.46 411.86,-178.94"/>
</a>
</g>
<text text-anchor="middle" x="466.5" y="-194" font-family="Helvetica,sans-Serif" font-size="10.00" fill="grey"> #observedEventReceivers</text>
</g>
<!-- Node10 -->
<g id="Node000010" class="node">
<title>Node10</title>
<g id="a_Node000010"><a xlink:title=" ">
<polygon fill="white" stroke="transparent" points="516,-343.5 382,-343.5 382,-313.5 516,-313.5 516,-343.5"/>
<text text-anchor="start" x="386.5" y="-331.5" font-family="Helvetica,sans-Serif" font-size="10.00">std::list&lt; core::Descriptor</text>
<text text-anchor="start" x="403.5" y="-320.5" font-family="Helvetica,sans-Serif" font-size="10.00">EventReceiver * &gt;</text>
<polygon fill="none" stroke="#666666" points="382,-313.5 382,-343.5 516,-343.5 516,-313.5 382,-313.5"/>
</a>
</g>
</g>
<!-- Node10&#45;&gt;Node9 -->
<g id="edge10_Node000009_Node000010" class="edge">
<title>Node10&#45;&gt;Node9</title>
<g id="a_edge10_Node000009_Node000010"><a xlink:title=" ">
<path fill="none" stroke="#63b8ff" d="M448.5,-313.3C448.12,-302.41 447.59,-286.97 447.11,-273.2"/>
<polygon fill="none" stroke="#63b8ff" points="447.11,-273.19 442.9,-267.33 446.69,-261.19 450.89,-267.05 447.11,-273.19"/>
</a>
</g>
<text text-anchor="middle" x="476" y="-282" font-family="Helvetica,sans-Serif" font-size="10.00" fill="grey"> +elements</text>
</g>
<!-- Node11&#45;&gt;Node10 -->
<g id="edge11_Node000010_Node000011" class="edge">
<title>Node11&#45;&gt;Node10</title>
<g id="a_edge11_Node000010_Node000011"><a xlink:title=" ">
<path fill="none" stroke="#63b8ff" d="M493.02,-401.26C484.4,-395.58 473.93,-387.47 467,-378 462.06,-371.25 458.33,-362.98 455.58,-355.2"/>
<polygon fill="none" stroke="#63b8ff" points="455.56,-355.14 449.98,-350.57 452.05,-343.66 457.63,-348.23 455.56,-355.14"/>
</a>
</g>
<text text-anchor="middle" x="496" y="-370" font-family="Helvetica,sans-Serif" font-size="10.00" fill="grey"> +elements</text>
</g>
<!-- Node12 -->
<g id="Node000012" class="node">
<title>Node12</title>
<g id="a_Node000012"><a xlink:href="classcore_1_1Observer.html" target="_top" xlink:title=" ">
<polygon fill="white" stroke="transparent" points="548,-514 468,-514 468,-495 548,-495 548,-514"/>
<text text-anchor="start" x="472" y="-501.5" font-family="Helvetica,sans-Serif" font-size="10.00">core::Observer</text>
<polygon fill="none" stroke="#666666" points="468,-495 468,-514 548,-514 548,-495 468,-495"/>
</a>
</g>
</g>
<!-- Node12&#45;&gt;Node11 -->
<g id="edge12_Node000011_Node000012" class="edge">
<title>Node12&#45;&gt;Node11</title>
<g id="a_edge12_Node000011_Node000012"><a xlink:title=" ">
<path fill="none" stroke="darkgreen" d="M508,-484.54C508,-464.92 508,-435.16 508,-420.61"/>
<polygon fill="none" stroke="darkgreen" points="504.5,-484.73 508,-494.73 511.5,-484.73 504.5,-484.73"/>
</a>
</g>
</g>
<!-- Node13 -->
<g id="Node000013" class="node">
<title>Node13</title>
<g id="a_Node000013"><a xlink:href="classutils_1_1Timeval.html" target="_top" xlink:title=" ">
<polygon fill="white" stroke="transparent" points="659,-514 583,-514 583,-495 659,-495 659,-514"/>
<text text-anchor="start" x="587.5" y="-501.5" font-family="Helvetica,sans-Serif" font-size="10.00">utils::Timeval</text>
<polygon fill="none" stroke="#666666" points="583,-495 583,-514 659,-514 659,-495 583,-495"/>
</a>
</g>
</g>
<!-- Node13&#45;&gt;Node11 -->
<g id="edge15_Node000011_Node000013" class="edge">
<title>Node13&#45;&gt;Node11</title>
<g id="a_edge15_Node000011_Node000013"><a xlink:title=" ">
<path fill="none" stroke="#63b8ff" d="M601.16,-494.77C591.62,-490.14 580.27,-483.96 571,-477 552.78,-463.31 534.98,-444.27 522.98,-430.34"/>
<polygon fill="none" stroke="#63b8ff" points="522.73,-430.04 515.81,-428.02 515.02,-420.85 521.94,-422.87 522.73,-430.04"/>
</a>
</g>
<text text-anchor="middle" x="608.5" y="-469" font-family="Helvetica,sans-Serif" font-size="10.00" fill="grey"> &#45;initialTimeout</text>
<text text-anchor="middle" x="608.5" y="-458" font-family="Helvetica,sans-Serif" font-size="10.00" fill="grey">&#45;lastTriggered</text>
<text text-anchor="middle" x="608.5" y="-447" font-family="Helvetica,sans-Serif" font-size="10.00" fill="grey">&#45;maxInactivity</text>
</g>
<!-- Node13&#45;&gt;Node16 -->
<g id="edge24_Node000016_Node000013" class="edge">
<title>Node13&#45;&gt;Node16</title>
<g id="a_edge24_Node000016_Node000013"><a xlink:title=" ">
<path fill="none" stroke="#63b8ff" d="M631.37,-494.86C637.1,-489.88 644.22,-483.36 650,-477 663.37,-462.3 676.84,-444.14 686.26,-430.75"/>
<polygon fill="none" stroke="#63b8ff" points="686.31,-430.68 686.43,-423.47 693.13,-420.81 693.01,-428.02 686.31,-430.68"/>
</a>
</g>
<text text-anchor="middle" x="720.5" y="-463.5" font-family="Helvetica,sans-Serif" font-size="10.00" fill="grey"> &#45;absoluteTimeout</text>
<text text-anchor="middle" x="720.5" y="-452.5" font-family="Helvetica,sans-Serif" font-size="10.00" fill="grey">&#45;delay</text>
</g>
<!-- Node14 -->
<g id="Node000014" class="node">
<title>Node14</title>
<g id="a_Node000014"><a xlink:href="classcore_1_1TimerEventPublisher.html" target="_top" xlink:title=" ">
<polygon fill="white" stroke="transparent" points="832,-250 696,-250 696,-231 832,-231 832,-250"/>
<text text-anchor="start" x="700" y="-237.5" font-family="Helvetica,sans-Serif" font-size="10.00">core::TimerEventPublisher</text>
<polygon fill="none" stroke="#666666" points="696,-231 696,-250 832,-250 832,-231 696,-231"/>
</a>
</g>
</g>
<!-- Node14&#45;&gt;Node6 -->
<g id="edge17_Node000006_Node000014" class="edge">
<title>Node14&#45;&gt;Node6</title>
<g id="a_edge17_Node000006_Node000014"><a xlink:title=" ">
<path fill="none" stroke="#63b8ff" d="M758.42,-230.61C737.47,-198.11 659.71,-85.04 563,-37 541.36,-26.25 484.6,-19.35 437.37,-15.29"/>
<polygon fill="none" stroke="#63b8ff" points="437.24,-15.28 430.93,-18.78 425.28,-14.3 431.59,-10.8 437.24,-15.28"/>
</a>
</g>
<text text-anchor="middle" x="737" y="-122.5" font-family="Helvetica,sans-Serif" font-size="10.00" fill="grey"> &#45;timerEventPublisher</text>
</g>
<!-- Node14&#45;&gt;Node16 -->
<g id="edge21_Node000016_Node000014" class="edge">
<title>Node14&#45;&gt;Node16</title>
<g id="a_edge21_Node000016_Node000014"><a xlink:title=" ">
<path fill="none" stroke="#63b8ff" d="M762.08,-250.11C756.99,-272.12 742.03,-331.96 720,-378 717.87,-382.46 715.2,-387.03 712.49,-391.27"/>
<polygon fill="none" stroke="#63b8ff" points="712.33,-391.51 712.24,-398.72 705.55,-401.41 705.64,-394.2 712.33,-391.51"/>
</a>
</g>
<text text-anchor="middle" x="799" y="-326" font-family="Helvetica,sans-Serif" font-size="10.00" fill="grey"> &#45;timerEventPublisher</text>
</g>
<!-- Node15 -->
<g id="Node000015" class="node">
<title>Node15</title>
<g id="a_Node000015"><a xlink:title=" ">
<polygon fill="white" stroke="transparent" points="1066,-349 872,-349 872,-308 1066,-308 1066,-349"/>
<text text-anchor="start" x="876.5" y="-336.5" font-family="Helvetica,sans-Serif" font-size="10.00">std::set&lt; core::TimerEvent</text>
<text text-anchor="start" x="876.5" y="-325.5" font-family="Helvetica,sans-Serif" font-size="10.00">Receiver *, core::TimerEventPublisher</text>
<text text-anchor="start" x="929" y="-314.5" font-family="Helvetica,sans-Serif" font-size="10.00">::timernode_lt &gt;</text>
<polygon fill="none" stroke="#666666" points="872,-308 872,-349 1066,-349 1066,-308 872,-308"/>
</a>
</g>
</g>
<!-- Node15&#45;&gt;Node14 -->
<g id="edge18_Node000014_Node000015" class="edge">
<title>Node15&#45;&gt;Node14</title>
<g id="a_edge18_Node000014_Node000015"><a xlink:title=" ">
<path fill="none" stroke="#63b8ff" d="M922.48,-307.99C883.7,-291.72 829.49,-268.98 795.59,-254.75"/>
<polygon fill="none" stroke="#63b8ff" points="795.57,-254.74 788.49,-256.11 784.5,-250.1 791.58,-248.73 795.57,-254.74"/>
</a>
</g>
<text text-anchor="middle" x="903.5" y="-282" font-family="Helvetica,sans-Serif" font-size="10.00" fill="grey"> &#45;timerList</text>
</g>
<!-- Node16&#45;&gt;Node15 -->
<g id="edge19_Node000015_Node000016" class="edge">
<title>Node16&#45;&gt;Node15</title>
<g id="a_edge19_Node000015_Node000016"><a xlink:title=" ">
<path fill="none" stroke="#63b8ff" d="M727.64,-401.46C766.33,-389.93 836.76,-368.93 891.59,-352.58"/>
<polygon fill="none" stroke="#63b8ff" points="891.89,-352.49 896.5,-346.94 903.39,-349.06 898.79,-354.61 891.89,-352.49"/>
</a>
</g>
<text text-anchor="middle" x="859" y="-370" font-family="Helvetica,sans-Serif" font-size="10.00" fill="grey"> +keys</text>
</g>
<!-- Node17 -->
<g id="Node000017" class="node">
<title>Node17</title>
<g id="a_Node000017"><a xlink:href="classcore_1_1Timer.html" target="_top" xlink:title=" ">
<polygon fill="white" stroke="transparent" points="683,-338 619,-338 619,-319 683,-319 683,-338"/>
<text text-anchor="start" x="623.5" y="-325.5" font-family="Helvetica,sans-Serif" font-size="10.00">core::Timer</text>
<polygon fill="none" stroke="#666666" points="619,-319 619,-338 683,-338 683,-319 619,-319"/>
</a>
</g>
</g>
<!-- Node16&#45;&gt;Node17 -->
<g id="edge23_Node000017_Node000016" class="edge">
<title>Node16&#45;&gt;Node17</title>
<g id="a_edge23_Node000017_Node000016"><a xlink:title=" ">
<path fill="none" stroke="#63b8ff" d="M633.42,-401.47C605.5,-396.37 577.42,-388.75 569,-378 554.65,-359.69 580.83,-346.85 607.34,-339.01"/>
<polygon fill="none" stroke="#63b8ff" points="607.41,-338.99 612.16,-333.56 618.99,-335.85 614.25,-341.28 607.41,-338.99"/>
</a>
</g>
<text text-anchor="middle" x="621" y="-370" font-family="Helvetica,sans-Serif" font-size="10.00" fill="grey"> &#45;timerEventReceiver</text>
</g>
<!-- Node18 -->
<g id="Node000018" class="node">
<title>Node18</title>
<g id="a_Node000018"><a xlink:title=" ">
<polygon fill="white" stroke="transparent" points="1222,-343.5 1084,-343.5 1084,-313.5 1222,-313.5 1222,-343.5"/>
<text text-anchor="start" x="1088" y="-331.5" font-family="Helvetica,sans-Serif" font-size="10.00">std::list&lt; core::TimerEvent</text>
<text text-anchor="start" x="1121.5" y="-320.5" font-family="Helvetica,sans-Serif" font-size="10.00">Receiver * &gt;</text>
<polygon fill="none" stroke="#666666" points="1084,-313.5 1084,-343.5 1222,-343.5 1222,-313.5 1084,-313.5"/>
</a>
</g>
</g>
<!-- Node16&#45;&gt;Node18 -->
<g id="edge26_Node000018_Node000016" class="edge">
<title>Node16&#45;&gt;Node18</title>
<g id="a_edge26_Node000018_Node000016"><a xlink:title=" ">
<path fill="none" stroke="#63b8ff" d="M761.83,-401.46C836.73,-390.89 965.53,-371.52 1075,-349 1079.09,-348.16 1083.29,-347.25 1087.51,-346.3"/>
<polygon fill="none" stroke="#63b8ff" points="1087.74,-346.24 1092.68,-340.99 1099.43,-343.52 1094.49,-348.78 1087.74,-346.24"/>
</a>
</g>
<text text-anchor="middle" x="1001" y="-370" font-family="Helvetica,sans-Serif" font-size="10.00" fill="grey"> +elements</text>
</g>
<!-- Node17&#45;&gt;Node16 -->
<g id="edge22_Node000016_Node000017" class="edge">
<title>Node17&#45;&gt;Node16</title>
<g id="a_edge22_Node000016_Node000017"><a xlink:title=" ">
<path fill="none" stroke="#63b8ff" d="M657.54,-338.22C663.02,-345.68 670.89,-356.81 677,-367 681.47,-374.46 685.93,-382.94 689.65,-390.38"/>
<polygon fill="none" stroke="#63b8ff" points="689.69,-390.46 695.92,-394.1 694.95,-401.25 688.72,-397.61 689.69,-390.46"/>
</a>
</g>
<text text-anchor="middle" x="699" y="-370" font-family="Helvetica,sans-Serif" font-size="10.00" fill="grey"> &#45;timer</text>
</g>
<!-- Node18&#45;&gt;Node14 -->
<g id="edge25_Node000014_Node000018" class="edge">
<title>Node18&#45;&gt;Node14</title>
<g id="a_edge25_Node000014_Node000018"><a xlink:title=" ">
<path fill="none" stroke="#63b8ff" d="M1097.66,-313.42C1090.06,-311.55 1082.34,-309.7 1075,-308 985.12,-287.16 880.06,-265.19 817.94,-252.45"/>
<polygon fill="none" stroke="#63b8ff" points="817.86,-252.43 811.18,-255.15 806.1,-250.03 812.78,-247.31 817.86,-252.43"/>
</a>
</g>
<text text-anchor="middle" x="1023" y="-282" font-family="Helvetica,sans-Serif" font-size="10.00" fill="grey"> &#45;removedList</text>
</g>
<!-- Node19 -->
<g id="Node000019" class="node">
<title>Node19</title>
<g id="a_Node000019"><a xlink:href="classcore_1_1EventMultiplexer_1_1EventQueue.html" target="_top" xlink:title=" ">
<polygon fill="white" stroke="transparent" points="366,-96 246,-96 246,-66 366,-66 366,-96"/>
<text text-anchor="start" x="250.5" y="-84" font-family="Helvetica,sans-Serif" font-size="10.00">core::EventMultiplexer</text>
<text text-anchor="start" x="273" y="-73" font-family="Helvetica,sans-Serif" font-size="10.00">::EventQueue</text>
<polygon fill="none" stroke="#666666" points="246,-66 246,-96 366,-96 366,-66 246,-66"/>
</a>
</g>
</g>
<!-- Node19&#45;&gt;Node6 -->
<g id="edge27_Node000006_Node000019" class="edge">
<title>Node19&#45;&gt;Node6</title>
<g id="a_edge27_Node000006_Node000019"><a xlink:title=" ">
<path fill="none" stroke="#63b8ff" d="M317.17,-65.9C323.95,-57.43 332.85,-46.49 341,-37 343.43,-34.17 346.03,-31.22 348.6,-28.35"/>
<polygon fill="none" stroke="#63b8ff" points="348.82,-28.11 349.89,-20.98 356.88,-19.23 355.81,-26.36 348.82,-28.11"/>
</a>
</g>
<text text-anchor="middle" x="374.5" y="-40" font-family="Helvetica,sans-Serif" font-size="10.00" fill="grey"> &#45;eventQueue</text>
</g>
<!-- Node20&#45;&gt;Node19 -->
<g id="edge28_Node000019_Node000020" class="edge">
<title>Node20&#45;&gt;Node19</title>
<g id="a_edge28_Node000019_Node000020"><a xlink:title=" ">
<path fill="none" stroke="#63b8ff" d="M290.82,-153.89C293.12,-143 297.18,-123.79 300.52,-107.96"/>
<polygon fill="none" stroke="#63b8ff" points="300.52,-107.96 297.84,-101.26 303,-96.22 305.67,-102.92 300.52,-107.96"/>
</a>
</g>
<text text-anchor="middle" x="338" y="-128" font-family="Helvetica,sans-Serif" font-size="10.00" fill="grey"> &#45;executeQueue</text>
<text text-anchor="middle" x="338" y="-117" font-family="Helvetica,sans-Serif" font-size="10.00" fill="grey">&#45;publishQueue</text>
</g>
<!-- Node21 -->
<g id="Node000021" class="node">
<title>Node21</title>
<g id="a_Node000021"><a xlink:title=" ">
<polygon fill="white" stroke="transparent" points="104,-514 0,-514 0,-495 104,-495 104,-514"/>
<text text-anchor="start" x="4.5" y="-501.5" font-family="Helvetica,sans-Serif" font-size="10.00">std::deque&lt; long &gt;</text>
<polygon fill="none" stroke="#666666" points="0,-495 0,-514 104,-514 104,-495 0,-495"/>
</a>
</g>
</g>
<!-- Node21&#45;&gt;Node1 -->
<g id="edge30_Node000001_Node000021" class="edge">
<title>Node21&#45;&gt;Node1</title>
<g id="a_edge30_Node000001_Node000021"><a xlink:title=" ">
<path fill="none" stroke="#63b8ff" d="M51.77,-494.61C51.55,-482.96 51.46,-461.91 53,-444 53.32,-440.27 53.81,-436.32 54.37,-432.51"/>
<polygon fill="none" stroke="#63b8ff" points="54.37,-432.49 51.4,-425.92 56.32,-420.65 59.29,-427.22 54.37,-432.49"/>
</a>
</g>
<text text-anchor="middle" x="75" y="-458" font-family="Helvetica,sans-Serif" font-size="10.00" fill="grey"> #values</text>
</g>
</g>
</svg>
