<?xml version="1.0" encoding="UTF-8" standalone="no"?>
<!DOCTYPE svg PUBLIC "-//W3C//DTD SVG 1.1//EN"
 "http://www.w3.org/Graphics/SVG/1.1/DTD/svg11.dtd">
<!-- Generated by graphviz version 14.1.2 (0)
 -->
<!-- Title: core::socket::stream::tls::SocketConnection::doWriteShutdown Pages: 1 -->
<!--zoomable 695 -->

<svg id="main" version="1.1" xmlns="http://www.w3.org/2000/svg" xmlns:xlink="http://www.w3.org/1999/xlink" xml:space="preserve" onload="init(evt)">

<style type="text/css"><![CDATA[
.node, .edge {opacity: 0.7;}
.node.selected, .edge.selected {opacity: 1;}
.edge:hover path { stroke: red; }
.edge:hover polygon { stroke: red; fill: red; }
]]></style>

<defs>
  <circle id="rim" cx="0" cy="0" r="7"/>
  <circle id="rim2" cx="0" cy="0" r="3.5"/>
  <g id="zoomPlus">
    <use xlink:href="#rim" fill="#404040"><set attributeName="fill" to="#808080" begin="zoomplus.mouseover" end="zoomplus.mouseout"/></use>
    <path d="M-4,0h8M0,-4v8" fill="none" stroke="white" stroke-width="1.5" pointer-events="none"/>
  </g>
  <g id="zoomMin">
    <use xlink:href="#rim" fill="#404040"><set attributeName="fill" to="#808080" begin="zoomminus.mouseover" end="zoomminus.mouseout"/></use>
    <path d="M-4,0h8" fill="none" stroke="white" stroke-width="1.5" pointer-events="none"/>
  </g>
  <g id="arrowUp" transform="translate(30 24)">
    <use xlink:href="#rim"/>
    <path pointer-events="none" fill="none" stroke="white" stroke-width="1.5" d="M0,-3.0v7 M-2.5,-0.5L0,-3.0L2.5,-0.5"/>
  </g>
  <g id="arrowRight" transform="rotate(90) translate(36 -43)">
    <use xlink:href="#rim"/>
    <path pointer-events="none" fill="none" stroke="white" stroke-width="1.5" d="M0,-3.0v7 M-2.5,-0.5L0,-3.0L2.5,-0.5"/>
  </g>
  <g id="arrowDown" transform="rotate(180) translate(-30 -48)">
    <use xlink:href="#rim"/>
    <path pointer-events="none" fill="none" stroke="white" stroke-width="1.5" d="M0,-3.0v7 M-2.5,-0.5L0,-3.0L2.5,-0.5"/>
  </g>
  <g id="arrowLeft" transform="rotate(270) translate(-36 17)">
    <use xlink:href="#rim"/>
    <path pointer-events="none" fill="none" stroke="white" stroke-width="1.5" d="M0,-3.0v7 M-2.5,-0.5L0,-3.0L2.5,-0.5"/>
  </g>
  <g id="resetDef">
    <use xlink:href="#rim2" fill="#404040"><set attributeName="fill" to="#808080" begin="reset.mouseover" end="reset.mouseout"/></use>
  </g>
</defs>
<script type="application/ecmascript">
var viewWidth = 1688;
var viewHeight = 695;
var sectionId = 'dynsection-5';
</script>
<script type="application/ecmascript" xlink:href="svg.min.js"/>
<svg id="graph" class="graph">
<g id="viewport">
<title>core::socket::stream::tls::SocketConnection::doWriteShutdown</title>
<!-- Node1 -->
<g id="Node000001" class="node">
<title>Node1</title>
<g id="a_Node000001"><a xlink:title=" ">
<polygon fill="#999999" stroke="#666666" points="127,-421.51 0,-421.51 0,-375.26 127,-375.26 127,-421.51"/>
<text xml:space="preserve" text-anchor="start" x="8" y="-408.01" font-family="Helvetica,sans-Serif" font-size="10.00">core::socket::stream</text>
<text xml:space="preserve" text-anchor="start" x="8" y="-395.26" font-family="Helvetica,sans-Serif" font-size="10.00">::tls::SocketConnection</text>
<text xml:space="preserve" text-anchor="middle" x="63.5" y="-382.51" font-family="Helvetica,sans-Serif" font-size="10.00">::doWriteShutdown</text>
</a>
</g>
</g>
<!-- Node2 -->
<g id="Node000002" class="node">
<title>Node2</title>
<g id="a_Node000002"><a xlink:href="classcore_1_1socket_1_1stream_1_1tls_1_1SocketConnection.html#ab19cf9af01a4bd8c9a4cdd75e8265e62" target="_top" xlink:title=" ">
<polygon fill="white" stroke="#666666" points="290,-421.51 163,-421.51 163,-375.26 290,-375.26 290,-421.51"/>
<text xml:space="preserve" text-anchor="start" x="171" y="-408.01" font-family="Helvetica,sans-Serif" font-size="10.00">core::socket::stream</text>
<text xml:space="preserve" text-anchor="start" x="171" y="-395.26" font-family="Helvetica,sans-Serif" font-size="10.00">::tls::SocketConnection</text>
<text xml:space="preserve" text-anchor="middle" x="226.5" y="-382.51" font-family="Helvetica,sans-Serif" font-size="10.00">::doSSLShutdown</text>
</a>
</g>
</g>
<!-- Node1&#45;&gt;Node2 -->
<g id="edge1_Node000001_Node000002" class="edge">
<title>Node1&#45;&gt;Node2</title>
<g id="a_edge1_Node000001_Node000002"><a xlink:title=" ">
<path fill="none" stroke="#63b8ff" d="M127.21,-398.38C135.13,-398.38 143.29,-398.38 151.37,-398.38"/>
<polygon fill="#63b8ff" stroke="#63b8ff" points="151.18,-401.88 161.18,-398.38 151.18,-394.88 151.18,-401.88"/>
</a>
</g>
</g>
<!-- Node3 -->
<g id="Node000003" class="node">
<title>Node3</title>
<g id="a_Node000003"><a xlink:href="classcore_1_1socket_1_1stream_1_1tls_1_1TLSShutdown.html#a3fa5f2766d74bdea0127800c7ba9d4e9" target="_top" xlink:title=" ">
<polygon fill="white" stroke="#666666" points="497.25,-415.13 326,-415.13 326,-381.63 497.25,-381.63 497.25,-415.13"/>
<text xml:space="preserve" text-anchor="start" x="334" y="-401.63" font-family="Helvetica,sans-Serif" font-size="10.00">core::socket::stream</text>
<text xml:space="preserve" text-anchor="middle" x="411.62" y="-388.88" font-family="Helvetica,sans-Serif" font-size="10.00">::tls::TLSShutdown::doShutdown</text>
</a>
</g>
</g>
<!-- Node2&#45;&gt;Node3 -->
<g id="edge2_Node000002_Node000003" class="edge">
<title>Node2&#45;&gt;Node3</title>
<g id="a_edge2_Node000002_Node000003"><a xlink:title=" ">
<path fill="none" stroke="#63b8ff" d="M290.27,-398.38C298.01,-398.38 306.05,-398.38 314.15,-398.38"/>
<polygon fill="#63b8ff" stroke="#63b8ff" points="314.09,-401.88 324.09,-398.38 314.09,-394.88 314.09,-401.88"/>
</a>
</g>
</g>
<!-- Node4 -->
<g id="Node000004" class="node">
<title>Node4</title>
<g id="a_Node000004"><a xlink:href="classcore_1_1socket_1_1stream_1_1tls_1_1TLSShutdown.html#a65af96d7ac042893046ff2332e47ae8e" target="_top" xlink:title=" ">
<polygon fill="white" stroke="#666666" points="709.75,-415.13 533.25,-415.13 533.25,-381.63 709.75,-381.63 709.75,-415.13"/>
<text xml:space="preserve" text-anchor="start" x="541.25" y="-401.63" font-family="Helvetica,sans-Serif" font-size="10.00">core::socket::stream</text>
<text xml:space="preserve" text-anchor="middle" x="621.5" y="-388.88" font-family="Helvetica,sans-Serif" font-size="10.00">::tls::TLSShutdown::TLSShutdown</text>
</a>
</g>
</g>
<!-- Node3&#45;&gt;Node4 -->
<g id="edge3_Node000003_Node000004" class="edge">
<title>Node3&#45;&gt;Node4</title>
<g id="a_edge3_Node000003_Node000004"><a xlink:title=" ">
<path fill="none" stroke="#63b8ff" d="M497.48,-398.38C505.41,-398.38 513.5,-398.38 521.55,-398.38"/>
<polygon fill="#63b8ff" stroke="#63b8ff" points="521.37,-401.88 531.37,-398.38 521.37,-394.88 521.37,-401.88"/>
</a>
</g>
</g>
<!-- Node5 -->
<g id="Node000005" class="node">
<title>Node5</title>
<g id="a_Node000005"><a xlink:href="classcore_1_1DescriptorEventReceiver.html#a4ab422ce6622a29cee38a0108ee6ccc1" target="_top" xlink:title=" ">
<polygon fill="white" stroke="#666666" points="909.5,-545.13 745.75,-545.13 745.75,-511.63 909.5,-511.63 909.5,-545.13"/>
<text xml:space="preserve" text-anchor="start" x="753.75" y="-531.63" font-family="Helvetica,sans-Serif" font-size="10.00">core::DescriptorEventReceiver</text>
<text xml:space="preserve" text-anchor="middle" x="827.62" y="-518.88" font-family="Helvetica,sans-Serif" font-size="10.00">::disable</text>
</a>
</g>
</g>
<!-- Node4&#45;&gt;Node5 -->
<g id="edge4_Node000004_Node000005" class="edge">
<title>Node4&#45;&gt;Node5</title>
<g id="a_edge4_Node000004_Node000005"><a xlink:title=" ">
<path fill="none" stroke="#63b8ff" d="M638.46,-415.51C660.56,-438.3 702.65,-478.5 745.75,-502.38 748.44,-503.87 751.23,-505.29 754.08,-506.64"/>
<polygon fill="#63b8ff" stroke="#63b8ff" points="752.67,-509.85 763.24,-510.63 755.47,-503.43 752.67,-509.85"/>
</a>
</g>
</g>
<!-- Node10 -->
<g id="Node000010" class="node">
<title>Node10</title>
<g id="a_Node000010"><a xlink:href="classcore_1_1DescriptorEventReceiver.html#ace4fa96fa2d29ef1bcaf8fc1cf28100a" target="_top" xlink:title=" ">
<polygon fill="white" stroke="#666666" points="909.5,-493.13 745.75,-493.13 745.75,-459.63 909.5,-459.63 909.5,-493.13"/>
<text xml:space="preserve" text-anchor="start" x="753.75" y="-479.63" font-family="Helvetica,sans-Serif" font-size="10.00">core::DescriptorEventReceiver</text>
<text xml:space="preserve" text-anchor="middle" x="827.62" y="-466.88" font-family="Helvetica,sans-Serif" font-size="10.00">::enable</text>
</a>
</g>
</g>
<!-- Node4&#45;&gt;Node10 -->
<g id="edge9_Node000004_Node000010" class="edge">
<title>Node4&#45;&gt;Node10</title>
<g id="a_edge9_Node000004_Node000010"><a xlink:title=" ">
<path fill="none" stroke="#63b8ff" d="M660.73,-415.54C684.9,-426.13 716.9,-439.68 745.75,-450.38 750.47,-452.13 755.36,-453.88 760.31,-455.59"/>
<polygon fill="#63b8ff" stroke="#63b8ff" points="759.12,-458.88 769.72,-458.78 761.37,-452.25 759.12,-458.88"/>
</a>
</g>
</g>
<!-- Node22 -->
<g id="Node000022" class="node">
<title>Node22</title>
<g id="a_Node000022"><a xlink:href="classcore_1_1eventreceiver_1_1ReadEventReceiver.html#aca8a2e9521718d70233491cffbf09f3d" target="_top" xlink:title=" ">
<polygon fill="white" stroke="#666666" points="886.25,-139.51 769,-139.51 769,-93.26 886.25,-93.26 886.25,-139.51"/>
<text xml:space="preserve" text-anchor="start" x="777" y="-126.01" font-family="Helvetica,sans-Serif" font-size="10.00">core::eventreceiver</text>
<text xml:space="preserve" text-anchor="start" x="777" y="-113.26" font-family="Helvetica,sans-Serif" font-size="10.00">::ReadEventReceiver</text>
<text xml:space="preserve" text-anchor="middle" x="827.62" y="-100.51" font-family="Helvetica,sans-Serif" font-size="10.00">::ReadEventReceiver</text>
</a>
</g>
</g>
<!-- Node4&#45;&gt;Node22 -->
<g id="edge23_Node000004_Node000022" class="edge">
<title>Node4&#45;&gt;Node22</title>
<g id="a_edge23_Node000004_Node000022"><a xlink:title=" ">
<path fill="none" stroke="#63b8ff" d="M629.55,-381.25C645.95,-342.7 689.59,-247.37 745.75,-181.38 756.56,-168.68 770.14,-156.66 783.06,-146.49"/>
<polygon fill="#63b8ff" stroke="#63b8ff" points="784.84,-149.53 790.66,-140.68 780.59,-143.97 784.84,-149.53"/>
</a>
</g>
</g>
<!-- Node30 -->
<g id="Node000030" class="node">
<title>Node30</title>
<g id="a_Node000030"><a xlink:href="classcore_1_1DescriptorEventReceiver.html#afa983ac6b0ba8f28ce4c0fc16cd914f8" target="_top" xlink:title=" ">
<polygon fill="white" stroke="#666666" points="909.5,-389.13 745.75,-389.13 745.75,-355.63 909.5,-355.63 909.5,-389.13"/>
<text xml:space="preserve" text-anchor="start" x="753.75" y="-375.63" font-family="Helvetica,sans-Serif" font-size="10.00">core::DescriptorEventReceiver</text>
<text xml:space="preserve" text-anchor="middle" x="827.62" y="-362.88" font-family="Helvetica,sans-Serif" font-size="10.00">::resume</text>
</a>
</g>
</g>
<!-- Node4&#45;&gt;Node30 -->
<g id="edge33_Node000004_Node000030" class="edge">
<title>Node4&#45;&gt;Node30</title>
<g id="a_edge33_Node000004_Node000030"><a xlink:title=" ">
<path fill="none" stroke="#63b8ff" d="M709.96,-387.24C717.97,-386.22 726.11,-385.19 734.17,-384.16"/>
<polygon fill="#63b8ff" stroke="#63b8ff" points="734.51,-387.64 743.99,-382.91 733.63,-380.7 734.51,-387.64"/>
</a>
</g>
</g>
<!-- Node33 -->
<g id="Node000033" class="node">
<title>Node33</title>
<g id="a_Node000033"><a xlink:href="classcore_1_1DescriptorEventReceiver.html#aab5e466759c83194c5bc4b41f1a33103" target="_top" xlink:title=" ">
<polygon fill="white" stroke="#666666" points="909.5,-441.13 745.75,-441.13 745.75,-407.63 909.5,-407.63 909.5,-441.13"/>
<text xml:space="preserve" text-anchor="start" x="753.75" y="-427.63" font-family="Helvetica,sans-Serif" font-size="10.00">core::DescriptorEventReceiver</text>
<text xml:space="preserve" text-anchor="middle" x="827.62" y="-414.88" font-family="Helvetica,sans-Serif" font-size="10.00">::suspend</text>
</a>
</g>
</g>
<!-- Node4&#45;&gt;Node33 -->
<g id="edge39_Node000004_Node000033" class="edge">
<title>Node4&#45;&gt;Node33</title>
<g id="a_edge39_Node000004_Node000033"><a xlink:title=" ">
<path fill="none" stroke="#63b8ff" d="M709.96,-409.52C717.97,-410.54 726.11,-411.58 734.17,-412.61"/>
<polygon fill="#63b8ff" stroke="#63b8ff" points="733.63,-416.07 743.99,-413.86 734.51,-409.12 733.63,-416.07"/>
</a>
</g>
</g>
<!-- Node35 -->
<g id="Node000035" class="node">
<title>Node35</title>
<g id="a_Node000035"><a xlink:href="classcore_1_1eventreceiver_1_1WriteEventReceiver.html#aaae40b662157301c59d6477ba75f794f" target="_top" xlink:title=" ">
<polygon fill="white" stroke="#666666" points="887,-236.51 768.25,-236.51 768.25,-190.26 887,-190.26 887,-236.51"/>
<text xml:space="preserve" text-anchor="start" x="776.25" y="-223.01" font-family="Helvetica,sans-Serif" font-size="10.00">core::eventreceiver</text>
<text xml:space="preserve" text-anchor="start" x="776.25" y="-210.26" font-family="Helvetica,sans-Serif" font-size="10.00">::WriteEventReceiver</text>
<text xml:space="preserve" text-anchor="middle" x="827.62" y="-197.51" font-family="Helvetica,sans-Serif" font-size="10.00">::WriteEventReceiver</text>
</a>
</g>
</g>
<!-- Node4&#45;&gt;Node35 -->
<g id="edge43_Node000004_Node000035" class="edge">
<title>Node4&#45;&gt;Node35</title>
<g id="a_edge43_Node000004_Node000035"><a xlink:title=" ">
<path fill="none" stroke="#63b8ff" d="M641.34,-381.31C675.69,-350.18 748.95,-283.78 792.35,-244.44"/>
<polygon fill="#63b8ff" stroke="#63b8ff" points="794.7,-247.04 799.75,-237.74 789.99,-241.86 794.7,-247.04"/>
</a>
</g>
</g>
<!-- Node6 -->
<g id="Node000006" class="node">
<title>Node6</title>
<g id="a_Node000006"><a xlink:href="classcore_1_1DescriptorEventPublisher.html#a998d681666ff72ed73cf0799ff4aca77" target="_top" xlink:title=" ">
<polygon fill="white" stroke="#666666" points="1111.5,-642.13 945.5,-642.13 945.5,-608.63 1111.5,-608.63 1111.5,-642.13"/>
<text xml:space="preserve" text-anchor="start" x="953.5" y="-628.63" font-family="Helvetica,sans-Serif" font-size="10.00">core::DescriptorEventPublisher</text>
<text xml:space="preserve" text-anchor="middle" x="1028.5" y="-615.88" font-family="Helvetica,sans-Serif" font-size="10.00">::disable</text>
</a>
</g>
</g>
<!-- Node5&#45;&gt;Node6 -->
<g id="edge5_Node000005_Node000006" class="edge">
<title>Node5&#45;&gt;Node6</title>
<g id="a_edge5_Node000005_Node000006"><a xlink:title=" ">
<path fill="none" stroke="#63b8ff" d="M863.72,-545.5C896.71,-561.59 946.24,-585.75 982.2,-603.29"/>
<polygon fill="#63b8ff" stroke="#63b8ff" points="980.54,-606.37 991.06,-607.61 983.61,-600.08 980.54,-606.37"/>
</a>
</g>
</g>
<!-- Node8 -->
<g id="Node000008" class="node">
<title>Node8</title>
<g id="a_Node000008"><a xlink:href="classcore_1_1EventReceiver.html#a0735c234c7848cf4d45473a6f7ce11b2" target="_top" xlink:title=" ">
<polygon fill="white" stroke="#666666" points="1085.25,-493.13 971.75,-493.13 971.75,-459.63 1085.25,-459.63 1085.25,-493.13"/>
<text xml:space="preserve" text-anchor="start" x="979.75" y="-479.63" font-family="Helvetica,sans-Serif" font-size="10.00">core::EventReceiver</text>
<text xml:space="preserve" text-anchor="middle" x="1028.5" y="-466.88" font-family="Helvetica,sans-Serif" font-size="10.00">::getName</text>
</a>
</g>
</g>
<!-- Node5&#45;&gt;Node8 -->
<g id="edge7_Node000005_Node000008" class="edge">
<title>Node5&#45;&gt;Node8</title>
<g id="a_edge7_Node000005_Node000008"><a xlink:title=" ">
<path fill="none" stroke="#63b8ff" d="M894.57,-511.14C915.75,-505.6 939.23,-499.46 960.49,-493.9"/>
<polygon fill="#63b8ff" stroke="#63b8ff" points="961.13,-497.36 969.92,-491.44 959.36,-490.58 961.13,-497.36"/>
</a>
</g>
</g>
<!-- Node7 -->
<g id="Node000007" class="node">
<title>Node7</title>
<g id="a_Node000007"><a xlink:href="classcore_1_1DescriptorEventReceiver.html#a79f301b292a4c64f35f5bf44c9b7ad8f" target="_top" xlink:title=" ">
<polygon fill="white" stroke="#666666" points="1312.38,-687.13 1148.62,-687.13 1148.62,-653.63 1312.38,-653.63 1312.38,-687.13"/>
<text xml:space="preserve" text-anchor="start" x="1156.62" y="-673.63" font-family="Helvetica,sans-Serif" font-size="10.00">core::DescriptorEventReceiver</text>
<text xml:space="preserve" text-anchor="middle" x="1230.5" y="-660.88" font-family="Helvetica,sans-Serif" font-size="10.00">::getRegisteredFd</text>
</a>
</g>
</g>
<!-- Node6&#45;&gt;Node7 -->
<g id="edge6_Node000006_Node000007" class="edge">
<title>Node6&#45;&gt;Node7</title>
<g id="a_edge6_Node000006_Node000007"><a xlink:title=" ">
<path fill="none" stroke="#63b8ff" d="M1105.97,-642.59C1117.79,-645.25 1130.07,-648.01 1142.11,-650.72"/>
<polygon fill="#63b8ff" stroke="#63b8ff" points="1141.07,-654.07 1151.6,-652.86 1142.61,-647.25 1141.07,-654.07"/>
</a>
</g>
</g>
<!-- Node9 -->
<g id="Node000009" class="node">
<title>Node9</title>
<g id="a_Node000009"><a xlink:href="classcore_1_1Event.html#a0ab010154200ef32e875dc673e921c94" target="_top" xlink:title=" ">
<polygon fill="white" stroke="#666666" points="1291.38,-479.76 1169.62,-479.76 1169.62,-459.01 1291.38,-459.01 1291.38,-479.76"/>
<text xml:space="preserve" text-anchor="middle" x="1230.5" y="-466.26" font-family="Helvetica,sans-Serif" font-size="10.00">core::Event::getName</text>
</a>
</g>
</g>
<!-- Node8&#45;&gt;Node9 -->
<g id="edge8_Node000008_Node000009" class="edge">
<title>Node8&#45;&gt;Node9</title>
<g id="a_edge8_Node000008_Node000009"><a xlink:title=" ">
<path fill="none" stroke="#63b8ff" d="M1085.74,-474.41C1108.08,-473.63 1134.05,-472.72 1157.72,-471.9"/>
<polygon fill="#63b8ff" stroke="#63b8ff" points="1157.75,-475.4 1167.62,-471.55 1157.51,-468.4 1157.75,-475.4"/>
</a>
</g>
</g>
<!-- Node10&#45;&gt;Node8 -->
<g id="edge22_Node000010_Node000008" class="edge">
<title>Node10&#45;&gt;Node8</title>
<g id="a_edge22_Node000010_Node000008"><a xlink:title=" ">
<path fill="none" stroke="#63b8ff" d="M909.8,-476.38C926.48,-476.38 943.87,-476.38 960.01,-476.38"/>
<polygon fill="#63b8ff" stroke="#63b8ff" points="959.99,-479.88 969.99,-476.38 959.99,-472.88 959.99,-479.88"/>
</a>
</g>
</g>
<!-- Node11 -->
<g id="Node000011" class="node">
<title>Node11</title>
<g id="a_Node000011"><a xlink:href="classcore_1_1DescriptorEventPublisher.html#ab1ba62f94b1882616f47a3cc8045b28d" target="_top" xlink:title=" ">
<polygon fill="white" stroke="#666666" points="1111.5,-545.13 945.5,-545.13 945.5,-511.63 1111.5,-511.63 1111.5,-545.13"/>
<text xml:space="preserve" text-anchor="start" x="953.5" y="-531.63" font-family="Helvetica,sans-Serif" font-size="10.00">core::DescriptorEventPublisher</text>
<text xml:space="preserve" text-anchor="middle" x="1028.5" y="-518.88" font-family="Helvetica,sans-Serif" font-size="10.00">::enable</text>
</a>
</g>
</g>
<!-- Node10&#45;&gt;Node11 -->
<g id="edge10_Node000010_Node000011" class="edge">
<title>Node10&#45;&gt;Node11</title>
<g id="a_edge10_Node000010_Node000011"><a xlink:title=" ">
<path fill="none" stroke="#63b8ff" d="M894.57,-493.63C912.54,-498.32 932.16,-503.45 950.68,-508.3"/>
<polygon fill="#63b8ff" stroke="#63b8ff" points="949.71,-511.66 960.27,-510.8 951.48,-504.89 949.71,-511.66"/>
</a>
</g>
</g>
<!-- Node11&#45;&gt;Node7 -->
<g id="edge14_Node000011_Node000007" class="edge">
<title>Node11&#45;&gt;Node7</title>
<g id="a_edge14_Node000011_Node000007"><a xlink:title=" ">
<path fill="none" stroke="#63b8ff" d="M1051.35,-545.47C1068.45,-559.26 1092.44,-579.57 1111.5,-599.38 1129.26,-617.84 1126.38,-629.89 1147.5,-644.38 1149.35,-645.65 1151.26,-646.86 1153.22,-648.01"/>
<polygon fill="#63b8ff" stroke="#63b8ff" points="1151.57,-651.1 1162.06,-652.61 1154.8,-644.89 1151.57,-651.1"/>
</a>
</g>
</g>
<!-- Node12 -->
<g id="Node000012" class="node">
<title>Node12</title>
<g id="a_Node000012"><a xlink:href="classutils_1_1Timeval.html#a54b232dc1ffeea007100dcd1caad1987" target="_top" xlink:title=" ">
<polygon fill="white" stroke="#666666" points="1303.75,-351.76 1157.25,-351.76 1157.25,-331.01 1303.75,-331.01 1303.75,-351.76"/>
<text xml:space="preserve" text-anchor="middle" x="1230.5" y="-338.26" font-family="Helvetica,sans-Serif" font-size="10.00">utils::Timeval::currentTime</text>
</a>
</g>
</g>
<!-- Node11&#45;&gt;Node12 -->
<g id="edge11_Node000011_Node000012" class="edge">
<title>Node11&#45;&gt;Node12</title>
<g id="a_edge11_Node000011_Node000012"><a xlink:title=" ">
<path fill="none" stroke="#63b8ff" d="M1100.11,-511.16C1104.23,-508.63 1108.08,-505.72 1111.5,-502.38 1146.54,-468.25 1117.96,-437.37 1147.5,-398.38 1160.42,-381.33 1179.93,-367.47 1196.68,-357.69"/>
<polygon fill="#63b8ff" stroke="#63b8ff" points="1198.31,-360.79 1205.35,-352.88 1194.91,-354.68 1198.31,-360.79"/>
</a>
</g>
</g>
<!-- Node15 -->
<g id="Node000015" class="node">
<title>Node15</title>
<g id="a_Node000015"><a xlink:href="classcore_1_1DescriptorEventReceiver.html#ac80fc901f941c059a6ebdb28147b25a2" target="_top" xlink:title=" ">
<polygon fill="white" stroke="#666666" points="1312.38,-583.13 1148.62,-583.13 1148.62,-549.63 1312.38,-549.63 1312.38,-583.13"/>
<text xml:space="preserve" text-anchor="start" x="1156.62" y="-569.63" font-family="Helvetica,sans-Serif" font-size="10.00">core::DescriptorEventReceiver</text>
<text xml:space="preserve" text-anchor="middle" x="1230.5" y="-556.88" font-family="Helvetica,sans-Serif" font-size="10.00">::isSuspended</text>
</a>
</g>
</g>
<!-- Node11&#45;&gt;Node15 -->
<g id="edge15_Node000011_Node000015" class="edge">
<title>Node11&#45;&gt;Node15</title>
<g id="a_edge15_Node000011_Node000015"><a xlink:title=" ">
<path fill="none" stroke="#63b8ff" d="M1111.71,-544C1120.1,-545.6 1128.67,-547.22 1137.16,-548.84"/>
<polygon fill="#63b8ff" stroke="#63b8ff" points="1136.29,-552.23 1146.76,-550.66 1137.59,-545.36 1136.29,-552.23"/>
</a>
</g>
</g>
<!-- Node16 -->
<g id="Node000016" class="node">
<title>Node16</title>
<g id="a_Node000016"><a xlink:href="classcore_1_1DescriptorEventPublisher.html#a010d889407017a69f9635271587aab9a" target="_top" xlink:title=" ">
<polygon fill="white" stroke="#666666" points="1313.5,-531.13 1147.5,-531.13 1147.5,-497.63 1313.5,-497.63 1313.5,-531.13"/>
<text xml:space="preserve" text-anchor="start" x="1155.5" y="-517.63" font-family="Helvetica,sans-Serif" font-size="10.00">core::DescriptorEventPublisher</text>
<text xml:space="preserve" text-anchor="middle" x="1230.5" y="-504.88" font-family="Helvetica,sans-Serif" font-size="10.00">::muxAdd</text>
</a>
</g>
</g>
<!-- Node11&#45;&gt;Node16 -->
<g id="edge16_Node000011_Node000016" class="edge">
<title>Node11&#45;&gt;Node16</title>
<g id="a_edge16_Node000011_Node000016"><a xlink:title=" ">
<path fill="none" stroke="#63b8ff" d="M1111.71,-522.63C1119.7,-522.07 1127.83,-521.5 1135.92,-520.93"/>
<polygon fill="#63b8ff" stroke="#63b8ff" points="1136.04,-524.43 1145.77,-520.24 1135.55,-517.45 1136.04,-524.43"/>
</a>
</g>
</g>
<!-- Node17 -->
<g id="Node000017" class="node">
<title>Node17</title>
<g id="a_Node000017"><a xlink:href="classcore_1_1DescriptorEventPublisher.html#a5e0e1a78a4bae48537ba6d0425a7c1cf" target="_top" xlink:title=" ">
<polygon fill="white" stroke="#666666" points="1313.5,-441.13 1147.5,-441.13 1147.5,-407.63 1313.5,-407.63 1313.5,-441.13"/>
<text xml:space="preserve" text-anchor="start" x="1155.5" y="-427.63" font-family="Helvetica,sans-Serif" font-size="10.00">core::DescriptorEventPublisher</text>
<text xml:space="preserve" text-anchor="middle" x="1230.5" y="-414.88" font-family="Helvetica,sans-Serif" font-size="10.00">::muxOff</text>
</a>
</g>
</g>
<!-- Node11&#45;&gt;Node17 -->
<g id="edge17_Node000011_Node000017" class="edge">
<title>Node11&#45;&gt;Node17</title>
<g id="a_edge17_Node000011_Node000017"><a xlink:title=" ">
<path fill="none" stroke="#63b8ff" d="M1096.68,-511.27C1101.92,-508.7 1106.93,-505.75 1111.5,-502.38 1134.11,-485.68 1124.89,-467.08 1147.5,-450.38 1149.07,-449.22 1150.69,-448.12 1152.36,-447.06"/>
<polygon fill="#63b8ff" stroke="#63b8ff" points="1153.97,-450.17 1160.99,-442.24 1150.56,-444.05 1153.97,-450.17"/>
</a>
</g>
</g>
<!-- Node18 -->
<g id="Node000018" class="node">
<title>Node18</title>
<g id="a_Node000018"><a xlink:href="classcore_1_1DescriptorEventReceiver.html#a7d590ffb163531deb55223472bfc8400" target="_top" xlink:title=" ">
<polygon fill="white" stroke="#666666" points="1312.38,-635.13 1148.62,-635.13 1148.62,-601.63 1312.38,-601.63 1312.38,-635.13"/>
<text xml:space="preserve" text-anchor="start" x="1156.62" y="-621.63" font-family="Helvetica,sans-Serif" font-size="10.00">core::DescriptorEventReceiver</text>
<text xml:space="preserve" text-anchor="middle" x="1230.5" y="-608.88" font-family="Helvetica,sans-Serif" font-size="10.00">::setEnabled</text>
</a>
</g>
</g>
<!-- Node11&#45;&gt;Node18 -->
<g id="edge18_Node000011_Node000018" class="edge">
<title>Node11&#45;&gt;Node18</title>
<g id="a_edge18_Node000011_Node000018"><a xlink:title=" ">
<path fill="none" stroke="#63b8ff" d="M1057.36,-545.46C1080.81,-559.34 1115.54,-578.8 1147.5,-592.38 1151.56,-594.11 1155.77,-595.78 1160.05,-597.39"/>
<polygon fill="#63b8ff" stroke="#63b8ff" points="1158.75,-600.64 1169.35,-600.75 1161.13,-594.06 1158.75,-600.64"/>
</a>
</g>
</g>
<!-- Node13 -->
<g id="Node000013" class="node">
<title>Node13</title>
<g id="a_Node000013"><a xlink:href="namespaceutils_1_1system.html#ad594b7afe9fa80d3db04591c966422b2" target="_top" xlink:title=" ">
<polygon fill="white" stroke="#666666" points="1500.5,-331.76 1349.5,-331.76 1349.5,-311.01 1500.5,-311.01 1500.5,-331.76"/>
<text xml:space="preserve" text-anchor="middle" x="1425" y="-318.26" font-family="Helvetica,sans-Serif" font-size="10.00">utils::system::gettimeofday</text>
</a>
</g>
</g>
<!-- Node12&#45;&gt;Node13 -->
<g id="edge12_Node000012_Node000013" class="edge">
<title>Node12&#45;&gt;Node13</title>
<g id="a_edge12_Node000012_Node000013"><a xlink:title=" ">
<path fill="none" stroke="#63b8ff" d="M1304,-333.85C1315.11,-332.7 1326.67,-331.49 1338.04,-330.31"/>
<polygon fill="#63b8ff" stroke="#63b8ff" points="1338.23,-333.81 1347.81,-329.3 1337.51,-326.85 1338.23,-333.81"/>
</a>
</g>
</g>
<!-- Node14 -->
<g id="Node000014" class="node">
<title>Node14</title>
<g id="a_Node000014"><a xlink:href="classutils_1_1Timeval.html#a4a554848a362fa40feef1c3f93c0c2e5" target="_top" xlink:title=" ">
<polygon fill="white" stroke="#666666" points="1493.38,-370.76 1356.62,-370.76 1356.62,-350.01 1493.38,-350.01 1493.38,-370.76"/>
<text xml:space="preserve" text-anchor="middle" x="1425" y="-357.26" font-family="Helvetica,sans-Serif" font-size="10.00">utils::Timeval::operator&amp;</text>
</a>
</g>
</g>
<!-- Node12&#45;&gt;Node14 -->
<g id="edge13_Node000012_Node000014" class="edge">
<title>Node12&#45;&gt;Node14</title>
<g id="a_edge13_Node000012_Node000014"><a xlink:title=" ">
<path fill="none" stroke="#63b8ff" d="M1304,-348.54C1317.41,-349.86 1331.47,-351.25 1345.05,-352.59"/>
<polygon fill="#63b8ff" stroke="#63b8ff" points="1344.53,-356.06 1354.82,-353.56 1345.21,-349.09 1344.53,-356.06"/>
</a>
</g>
</g>
<!-- Node19 -->
<g id="Node000019" class="node">
<title>Node19</title>
<g id="a_Node000019"><a xlink:href="classcore_1_1Observer.html#aeff595f74f25efea85406cf700e13550" target="_top" xlink:title=" ">
<polygon fill="white" stroke="#666666" points="1494.12,-628.76 1355.88,-628.76 1355.88,-608.01 1494.12,-608.01 1494.12,-628.76"/>
<text xml:space="preserve" text-anchor="middle" x="1425" y="-615.26" font-family="Helvetica,sans-Serif" font-size="10.00">core::Observer::observed</text>
</a>
</g>
</g>
<!-- Node18&#45;&gt;Node19 -->
<g id="edge19_Node000018_Node000019" class="edge">
<title>Node18&#45;&gt;Node19</title>
<g id="a_edge19_Node000018_Node000019"><a xlink:title=" ">
<path fill="none" stroke="#63b8ff" d="M1312.86,-618.38C1323.15,-618.38 1333.67,-618.38 1343.94,-618.38"/>
<polygon fill="#63b8ff" stroke="#63b8ff" points="1343.88,-621.88 1353.88,-618.38 1343.88,-614.88 1343.88,-621.88"/>
</a>
</g>
</g>
<!-- Node20 -->
<g id="Node000020" class="node">
<title>Node20</title>
<g id="a_Node000020"><a xlink:href="classutils_1_1Timeval.html#ac5696b678505b8fb9ee27540ab1802ca" target="_top" xlink:title=" ">
<polygon fill="white" stroke="#666666" points="1493.75,-508.76 1356.25,-508.76 1356.25,-488.01 1493.75,-488.01 1493.75,-508.76"/>
<text xml:space="preserve" text-anchor="middle" x="1425" y="-495.26" font-family="Helvetica,sans-Serif" font-size="10.00">utils::Timeval::operator=</text>
</a>
</g>
</g>
<!-- Node18&#45;&gt;Node20 -->
<g id="edge20_Node000018_Node000020" class="edge">
<title>Node18&#45;&gt;Node20</title>
<g id="a_edge20_Node000018_Node000020"><a xlink:title=" ">
<path fill="none" stroke="#63b8ff" d="M1294.81,-601.15C1301.28,-598.56 1307.62,-595.64 1313.5,-592.38 1350.32,-571.98 1386.16,-538.16 1406.61,-517.13"/>
<polygon fill="#63b8ff" stroke="#63b8ff" points="1408.97,-519.72 1413.34,-510.07 1403.9,-514.89 1408.97,-519.72"/>
</a>
</g>
</g>
<!-- Node21 -->
<g id="Node000021" class="node">
<title>Node21</title>
<g id="a_Node000021"><a xlink:href="classutils_1_1Timeval.html#a09c93683f8c399644adff88b92577624" target="_top" xlink:title=" ">
<polygon fill="white" stroke="#666666" points="1676.62,-508.76 1539.88,-508.76 1539.88,-488.01 1676.62,-488.01 1676.62,-508.76"/>
<text xml:space="preserve" text-anchor="middle" x="1608.25" y="-495.26" font-family="Helvetica,sans-Serif" font-size="10.00">utils::Timeval::operator&amp;</text>
</a>
</g>
</g>
<!-- Node20&#45;&gt;Node21 -->
<g id="edge21_Node000020_Node000021" class="edge">
<title>Node20&#45;&gt;Node21</title>
<g id="a_edge21_Node000020_Node000021"><a xlink:title=" ">
<path fill="none" stroke="#63b8ff" d="M1494.01,-498.38C1505.16,-498.38 1516.79,-498.38 1528.18,-498.38"/>
<polygon fill="#63b8ff" stroke="#63b8ff" points="1527.95,-501.88 1537.95,-498.38 1527.95,-494.88 1527.95,-501.88"/>
</a>
</g>
</g>
<!-- Node23 -->
<g id="Node000023" class="node">
<title>Node23</title>
<g id="a_Node000023"><a xlink:href="classcore_1_1DescriptorEventReceiver.html#a1c88ab07dd31cc902fdfeb071f11956e" target="_top" xlink:title=" ">
<polygon fill="white" stroke="#666666" points="1110.38,-133.13 946.62,-133.13 946.62,-99.63 1110.38,-99.63 1110.38,-133.13"/>
<text xml:space="preserve" text-anchor="start" x="954.62" y="-119.63" font-family="Helvetica,sans-Serif" font-size="10.00">core::DescriptorEventReceiver</text>
<text xml:space="preserve" text-anchor="middle" x="1028.5" y="-106.88" font-family="Helvetica,sans-Serif" font-size="10.00">::DescriptorEventReceiver</text>
</a>
</g>
</g>
<!-- Node22&#45;&gt;Node23 -->
<g id="edge24_Node000022_Node000023" class="edge">
<title>Node22&#45;&gt;Node23</title>
<g id="a_edge24_Node000022_Node000023"><a xlink:title=" ">
<path fill="none" stroke="#63b8ff" d="M886.68,-116.38C901.87,-116.38 918.62,-116.38 935.11,-116.38"/>
<polygon fill="#63b8ff" stroke="#63b8ff" points="934.95,-119.88 944.95,-116.38 934.95,-112.88 934.95,-119.88"/>
</a>
</g>
</g>
<!-- Node26 -->
<g id="Node000026" class="node">
<title>Node26</title>
<g id="a_Node000026"><a xlink:href="classcore_1_1EventLoop.html#a17f1623de6ca2ea2682c63cf502c3c36" target="_top" xlink:title=" ">
<polygon fill="white" stroke="#666666" points="1680,-178.13 1536.5,-178.13 1536.5,-144.63 1680,-144.63 1680,-178.13"/>
<text xml:space="preserve" text-anchor="start" x="1544.5" y="-164.63" font-family="Helvetica,sans-Serif" font-size="10.00">core::EventLoop::getEvent</text>
<text xml:space="preserve" text-anchor="middle" x="1608.25" y="-151.88" font-family="Helvetica,sans-Serif" font-size="10.00">Multiplexer</text>
</a>
</g>
</g>
<!-- Node22&#45;&gt;Node26 -->
<g id="edge31_Node000022_Node000026" class="edge">
<title>Node22&#45;&gt;Node26</title>
<g id="a_edge31_Node000022_Node000026"><a xlink:title=" ">
<path fill="none" stroke="#63b8ff" d="M864.29,-92.85C886.61,-79.57 916.53,-64.28 945.5,-57.38 1185.46,-0.25 1272,35.52 1500.5,-57.38 1538.97,-73.02 1571.16,-109.93 1589.83,-135.29"/>
<polygon fill="#63b8ff" stroke="#63b8ff" points="1586.77,-137.03 1595.42,-143.14 1592.47,-132.97 1586.77,-137.03"/>
</a>
</g>
</g>
<!-- Node27 -->
<g id="Node000027" class="node">
<title>Node27</title>
<g id="a_Node000027"><a xlink:href="classcore_1_1EventLoop.html#a413d227511f68c2c9939719bd2590794" target="_top" xlink:title=" ">
<polygon fill="white" stroke="#666666" points="1678.88,-216.76 1537.62,-216.76 1537.62,-196.01 1678.88,-196.01 1678.88,-216.76"/>
<text xml:space="preserve" text-anchor="middle" x="1608.25" y="-203.26" font-family="Helvetica,sans-Serif" font-size="10.00">core::EventLoop::instance</text>
</a>
</g>
</g>
<!-- Node22&#45;&gt;Node27 -->
<g id="edge32_Node000022_Node000027" class="edge">
<title>Node22&#45;&gt;Node27</title>
<g id="a_edge32_Node000022_Node000027"><a xlink:title=" ">
<path fill="none" stroke="#63b8ff" d="M886.47,-100.89C905.16,-96.59 926.08,-92.52 945.5,-90.38 1108.11,-72.51 1153.48,-63.42 1313.5,-97.38 1418.05,-119.57 1435.15,-153.46 1536.5,-187.38 1541.79,-189.15 1547.35,-190.88 1552.92,-192.51"/>
<polygon fill="#63b8ff" stroke="#63b8ff" points="1551.57,-195.77 1562.14,-195.14 1553.48,-189.03 1551.57,-195.77"/>
</a>
</g>
</g>
<!-- Node29 -->
<g id="Node000029" class="node">
<title>Node29</title>
<g id="a_Node000029"><a xlink:href="classcore_1_1EventMultiplexer.html#ad05d5ce3f2562bbd28d7a8a0ca782e88" target="_top" xlink:title=" ">
<polygon fill="white" stroke="#666666" points="1108.88,-185.13 948.12,-185.13 948.12,-151.63 1108.88,-151.63 1108.88,-185.13"/>
<text xml:space="preserve" text-anchor="start" x="956.12" y="-171.63" font-family="Helvetica,sans-Serif" font-size="10.00">core::EventMultiplexer</text>
<text xml:space="preserve" text-anchor="middle" x="1028.5" y="-158.88" font-family="Helvetica,sans-Serif" font-size="10.00">::getDescriptorEventPublisher</text>
</a>
</g>
</g>
<!-- Node22&#45;&gt;Node29 -->
<g id="edge30_Node000022_Node000029" class="edge">
<title>Node22&#45;&gt;Node29</title>
<g id="a_edge30_Node000022_Node000029"><a xlink:title=" ">
<path fill="none" stroke="#63b8ff" d="M886.68,-131.56C906.7,-136.8 929.43,-142.74 950.71,-148.3"/>
<polygon fill="#63b8ff" stroke="#63b8ff" points="949.66,-151.65 960.22,-150.79 951.43,-144.87 949.66,-151.65"/>
</a>
</g>
</g>
<!-- Node24 -->
<g id="Node000024" class="node">
<title>Node24</title>
<g id="a_Node000024"><a xlink:href="classcore_1_1EventReceiver.html#adec275118bd8a68e2b4cb71fa94d79b6" target="_top" xlink:title=" ">
<polygon fill="white" stroke="#666666" points="1287.25,-223.13 1173.75,-223.13 1173.75,-189.63 1287.25,-189.63 1287.25,-223.13"/>
<text xml:space="preserve" text-anchor="start" x="1181.75" y="-209.63" font-family="Helvetica,sans-Serif" font-size="10.00">core::EventReceiver</text>
<text xml:space="preserve" text-anchor="middle" x="1230.5" y="-196.88" font-family="Helvetica,sans-Serif" font-size="10.00">::EventReceiver</text>
</a>
</g>
</g>
<!-- Node23&#45;&gt;Node24 -->
<g id="edge25_Node000023_Node000024" class="edge">
<title>Node23&#45;&gt;Node24</title>
<g id="a_edge25_Node000023_Node000024"><a xlink:title=" ">
<path fill="none" stroke="#63b8ff" d="M1088.23,-133.51C1096.14,-136.25 1104.08,-139.23 1111.5,-142.38 1139.21,-154.17 1169.01,-170.36 1191.73,-183.51"/>
<polygon fill="#63b8ff" stroke="#63b8ff" points="1189.93,-186.51 1200.33,-188.54 1193.47,-180.47 1189.93,-186.51"/>
</a>
</g>
</g>
<!-- Node28 -->
<g id="Node000028" class="node">
<title>Node28</title>
<g id="a_Node000028"><a xlink:href="classutils_1_1Timeval.html#aea8eba217c23b75fc9483aa3e6848367" target="_top" xlink:title=" ">
<polygon fill="white" stroke="#666666" points="1294,-126.76 1167,-126.76 1167,-106.01 1294,-106.01 1294,-126.76"/>
<text xml:space="preserve" text-anchor="middle" x="1230.5" y="-113.26" font-family="Helvetica,sans-Serif" font-size="10.00">utils::Timeval::Timeval</text>
</a>
</g>
</g>
<!-- Node23&#45;&gt;Node28 -->
<g id="edge29_Node000023_Node000028" class="edge">
<title>Node23&#45;&gt;Node28</title>
<g id="a_edge29_Node000023_Node000028"><a xlink:title=" ">
<path fill="none" stroke="#63b8ff" d="M1110.85,-116.38C1125.53,-116.38 1140.76,-116.38 1155.22,-116.38"/>
<polygon fill="#63b8ff" stroke="#63b8ff" points="1155.12,-119.88 1165.12,-116.38 1155.12,-112.88 1155.12,-119.88"/>
</a>
</g>
</g>
<!-- Node25 -->
<g id="Node000025" class="node">
<title>Node25</title>
<g id="a_Node000025"><a xlink:href="classcore_1_1Event.html#a81e45f64219d897d59324c9dd0573936" target="_top" xlink:title=" ">
<polygon fill="white" stroke="#666666" points="1477.25,-216.76 1372.75,-216.76 1372.75,-196.01 1477.25,-196.01 1477.25,-216.76"/>
<text xml:space="preserve" text-anchor="middle" x="1425" y="-203.26" font-family="Helvetica,sans-Serif" font-size="10.00">core::Event::Event</text>
</a>
</g>
</g>
<!-- Node24&#45;&gt;Node25 -->
<g id="edge26_Node000024_Node000025" class="edge">
<title>Node24&#45;&gt;Node25</title>
<g id="a_edge26_Node000024_Node000025"><a xlink:title=" ">
<path fill="none" stroke="#63b8ff" d="M1287.7,-206.38C1310.68,-206.38 1337.37,-206.38 1361.01,-206.38"/>
<polygon fill="#63b8ff" stroke="#63b8ff" points="1360.83,-209.88 1370.83,-206.38 1360.83,-202.88 1360.83,-209.88"/>
</a>
</g>
</g>
<!-- Node25&#45;&gt;Node26 -->
<g id="edge27_Node000025_Node000026" class="edge">
<title>Node25&#45;&gt;Node26</title>
<g id="a_edge27_Node000025_Node000026"><a xlink:title=" ">
<path fill="none" stroke="#63b8ff" d="M1469.41,-195.6C1486.73,-191.3 1507.24,-186.21 1527.08,-181.29"/>
<polygon fill="#63b8ff" stroke="#63b8ff" points="1527.67,-184.75 1536.53,-178.94 1525.99,-177.95 1527.67,-184.75"/>
</a>
</g>
</g>
<!-- Node25&#45;&gt;Node27 -->
<g id="edge28_Node000025_Node000027" class="edge">
<title>Node25&#45;&gt;Node27</title>
<g id="a_edge28_Node000025_Node000027"><a xlink:title=" ">
<path fill="none" stroke="#63b8ff" d="M1477.45,-206.38C1492.59,-206.38 1509.53,-206.38 1526.05,-206.38"/>
<polygon fill="#63b8ff" stroke="#63b8ff" points="1525.88,-209.88 1535.88,-206.38 1525.88,-202.88 1525.88,-209.88"/>
</a>
</g>
</g>
<!-- Node30&#45;&gt;Node8 -->
<g id="edge35_Node000030_Node000008" class="edge">
<title>Node30&#45;&gt;Node8</title>
<g id="a_edge35_Node000030_Node000008"><a xlink:title=" ">
<path fill="none" stroke="#63b8ff" d="M894.89,-389.57C900.05,-392.12 905,-395.04 909.5,-398.38 932.08,-415.13 922.89,-433.68 945.5,-450.38 950.19,-453.84 955.35,-456.85 960.73,-459.47"/>
<polygon fill="#63b8ff" stroke="#63b8ff" points="959.33,-462.68 969.9,-463.43 962.1,-456.25 959.33,-462.68"/>
</a>
</g>
</g>
<!-- Node30&#45;&gt;Node12 -->
<g id="edge34_Node000030_Node000012" class="edge">
<title>Node30&#45;&gt;Node12</title>
<g id="a_edge34_Node000030_Node000012"><a xlink:title=" ">
<path fill="none" stroke="#63b8ff" d="M909.75,-366.11C978.34,-360.81 1076.24,-353.23 1145.61,-347.87"/>
<polygon fill="#63b8ff" stroke="#63b8ff" points="1145.71,-351.37 1155.41,-347.11 1145.17,-344.39 1145.71,-351.37"/>
</a>
</g>
</g>
<!-- Node30&#45;&gt;Node20 -->
<g id="edge36_Node000030_Node000020" class="edge">
<title>Node30&#45;&gt;Node20</title>
<g id="a_edge36_Node000030_Node000020"><a xlink:title=" ">
<path fill="none" stroke="#63b8ff" d="M909.97,-370.24C1028.67,-368.2 1242.88,-368.97 1313.5,-398.38 1354.65,-415.52 1390.45,-454.87 1409.47,-478.78"/>
<polygon fill="#63b8ff" stroke="#63b8ff" points="1406.54,-480.72 1415.43,-486.49 1412.08,-476.44 1406.54,-480.72"/>
</a>
</g>
</g>
<!-- Node31 -->
<g id="Node000031" class="node">
<title>Node31</title>
<g id="a_Node000031"><a xlink:href="classcore_1_1DescriptorEventPublisher.html#adef0cdee352a13b99772af079fb7bfe1" target="_top" xlink:title=" ">
<polygon fill="white" stroke="#666666" points="1111.5,-313.13 945.5,-313.13 945.5,-279.63 1111.5,-279.63 1111.5,-313.13"/>
<text xml:space="preserve" text-anchor="start" x="953.5" y="-299.63" font-family="Helvetica,sans-Serif" font-size="10.00">core::DescriptorEventPublisher</text>
<text xml:space="preserve" text-anchor="middle" x="1028.5" y="-286.88" font-family="Helvetica,sans-Serif" font-size="10.00">::resume</text>
</a>
</g>
</g>
<!-- Node30&#45;&gt;Node31 -->
<g id="edge37_Node000030_Node000031" class="edge">
<title>Node30&#45;&gt;Node31</title>
<g id="a_edge37_Node000030_Node000031"><a xlink:title=" ">
<path fill="none" stroke="#63b8ff" d="M873,-355.22C894.82,-346.8 921.53,-336.53 945.5,-327.38 953.8,-324.22 962.57,-320.88 971.18,-317.62"/>
<polygon fill="#63b8ff" stroke="#63b8ff" points="972.41,-320.9 980.52,-314.09 969.93,-314.35 972.41,-320.9"/>
</a>
</g>
</g>
<!-- Node32 -->
<g id="Node000032" class="node">
<title>Node32</title>
<g id="a_Node000032"><a xlink:href="classcore_1_1DescriptorEventPublisher.html#a8cdba59fd3522f1e108a21f6f818840e" target="_top" xlink:title=" ">
<polygon fill="white" stroke="#666666" points="1313.5,-313.13 1147.5,-313.13 1147.5,-279.63 1313.5,-279.63 1313.5,-313.13"/>
<text xml:space="preserve" text-anchor="start" x="1155.5" y="-299.63" font-family="Helvetica,sans-Serif" font-size="10.00">core::DescriptorEventPublisher</text>
<text xml:space="preserve" text-anchor="middle" x="1230.5" y="-286.88" font-family="Helvetica,sans-Serif" font-size="10.00">::muxOn</text>
</a>
</g>
</g>
<!-- Node31&#45;&gt;Node32 -->
<g id="edge38_Node000031_Node000032" class="edge">
<title>Node31&#45;&gt;Node32</title>
<g id="a_edge38_Node000031_Node000032"><a xlink:title=" ">
<path fill="none" stroke="#63b8ff" d="M1111.71,-296.38C1119.7,-296.38 1127.83,-296.38 1135.92,-296.38"/>
<polygon fill="#63b8ff" stroke="#63b8ff" points="1135.77,-299.88 1145.77,-296.38 1135.77,-292.88 1135.77,-299.88"/>
</a>
</g>
</g>
<!-- Node33&#45;&gt;Node8 -->
<g id="edge40_Node000033_Node000008" class="edge">
<title>Node33&#45;&gt;Node8</title>
<g id="a_edge40_Node000033_Node000008"><a xlink:title=" ">
<path fill="none" stroke="#63b8ff" d="M894.57,-441.63C915.75,-447.16 939.23,-453.3 960.49,-458.86"/>
<polygon fill="#63b8ff" stroke="#63b8ff" points="959.36,-462.18 969.92,-461.33 961.13,-455.41 959.36,-462.18"/>
</a>
</g>
</g>
<!-- Node34 -->
<g id="Node000034" class="node">
<title>Node34</title>
<g id="a_Node000034"><a xlink:href="classcore_1_1DescriptorEventPublisher.html#ac1bfb115c6aba58d380862a43db457e8" target="_top" xlink:title=" ">
<polygon fill="white" stroke="#666666" points="1111.5,-441.13 945.5,-441.13 945.5,-407.63 1111.5,-407.63 1111.5,-441.13"/>
<text xml:space="preserve" text-anchor="start" x="953.5" y="-427.63" font-family="Helvetica,sans-Serif" font-size="10.00">core::DescriptorEventPublisher</text>
<text xml:space="preserve" text-anchor="middle" x="1028.5" y="-414.88" font-family="Helvetica,sans-Serif" font-size="10.00">::suspend</text>
</a>
</g>
</g>
<!-- Node33&#45;&gt;Node34 -->
<g id="edge41_Node000033_Node000034" class="edge">
<title>Node33&#45;&gt;Node34</title>
<g id="a_edge41_Node000033_Node000034"><a xlink:title=" ">
<path fill="none" stroke="#63b8ff" d="M909.8,-424.38C917.76,-424.38 925.88,-424.38 933.94,-424.38"/>
<polygon fill="#63b8ff" stroke="#63b8ff" points="933.78,-427.88 943.78,-424.38 933.78,-420.88 933.78,-427.88"/>
</a>
</g>
</g>
<!-- Node34&#45;&gt;Node17 -->
<g id="edge42_Node000034_Node000017" class="edge">
<title>Node34&#45;&gt;Node17</title>
<g id="a_edge42_Node000034_Node000017"><a xlink:title=" ">
<path fill="none" stroke="#63b8ff" d="M1111.71,-424.38C1119.7,-424.38 1127.83,-424.38 1135.92,-424.38"/>
<polygon fill="#63b8ff" stroke="#63b8ff" points="1135.77,-427.88 1145.77,-424.38 1135.77,-420.88 1135.77,-427.88"/>
</a>
</g>
</g>
<!-- Node35&#45;&gt;Node23 -->
<g id="edge44_Node000035_Node000023" class="edge">
<title>Node35&#45;&gt;Node23</title>
<g id="a_edge44_Node000035_Node000023"><a xlink:title=" ">
<path fill="none" stroke="#63b8ff" d="M862.46,-189.84C885.18,-174.8 916.21,-155.69 945.5,-142.38 949.26,-140.68 953.16,-139.04 957.13,-137.47"/>
<polygon fill="#63b8ff" stroke="#63b8ff" points="958.19,-140.8 966.33,-134.01 955.74,-134.25 958.19,-140.8"/>
</a>
</g>
</g>
<!-- Node35&#45;&gt;Node26 -->
<g id="edge46_Node000035_Node000026" class="edge">
<title>Node35&#45;&gt;Node26</title>
<g id="a_edge46_Node000035_Node000026"><a xlink:title=" ">
<path fill="none" stroke="#63b8ff" d="M887.33,-214.59C945.06,-214.58 1035.35,-211.33 1111.5,-194.38 1128.26,-190.65 1130.7,-183.9 1147.5,-180.38 1277.36,-153.23 1432.22,-153.31 1524.99,-156.72"/>
<polygon fill="#63b8ff" stroke="#63b8ff" points="1524.62,-160.21 1534.75,-157.1 1524.9,-153.21 1524.62,-160.21"/>
</a>
</g>
</g>
<!-- Node35&#45;&gt;Node27 -->
<g id="edge47_Node000035_Node000027" class="edge">
<title>Node35&#45;&gt;Node27</title>
<g id="a_edge47_Node000035_Node000027"><a xlink:title=" ">
<path fill="none" stroke="#63b8ff" d="M887.38,-221.52C905.94,-223.79 926.54,-226.02 945.5,-227.38 1191.53,-245.12 1255.24,-251.67 1500.5,-225.38 1514.53,-223.88 1529.5,-221.63 1543.65,-219.19"/>
<polygon fill="#63b8ff" stroke="#63b8ff" points="1544.07,-222.67 1553.3,-217.48 1542.84,-215.78 1544.07,-222.67"/>
</a>
</g>
</g>
<!-- Node35&#45;&gt;Node29 -->
<g id="edge45_Node000035_Node000029" class="edge">
<title>Node35&#45;&gt;Node29</title>
<g id="a_edge45_Node000035_Node000029"><a xlink:title=" ">
<path fill="none" stroke="#63b8ff" d="M887.49,-200.06C904.09,-196.31 922.51,-192.14 940.39,-188.09"/>
<polygon fill="#63b8ff" stroke="#63b8ff" points="940.97,-191.55 949.95,-185.93 939.43,-184.72 940.97,-191.55"/>
</a>
</g>
</g>
</g>
</svg>

<g id="navigator" transform="translate(0 0)" fill="#404254">
  <rect fill="#f2f5e9" fill-opacity="0.5" stroke="#606060" stroke-width=".5" x="0" y="0" width="60" height="60"/>
  <use id="zoomplus" xlink:href="#zoomPlus" x="17" y="9" onmousedown="handleZoom(evt,'in')"/>
  <use id="zoomminus" xlink:href="#zoomMin" x="42" y="9" onmousedown="handleZoom(evt,'out')"/>
  <use id="reset" xlink:href="#resetDef" x="30" y="36" onmousedown="handleReset()"/>
   <use id="arrowup" xlink:href="#arrowUp" x="0" y="0" onmousedown="handlePan(0,-1)"/>
  <use id="arrowright" xlink:href="#arrowRight" x="0" y="0" onmousedown="handlePan(1,0)"/>
  <use id="arrowdown" xlink:href="#arrowDown" x="0" y="0" onmousedown="handlePan(0,1)"/>
  <use id="arrowleft" xlink:href="#arrowLeft" x="0" y="0" onmousedown="handlePan(-1,0)"/>
</g>
<svg viewBox="0 0 15 15" width="100%" height="30px" preserveAspectRatio="xMaxYMin meet">
 <g id="arrow_out" transform="scale(0.3 0.3)">
  <a xlink:href="classcore_1_1socket_1_1stream_1_1tls_1_1SocketConnection_aa4a33b9e037dd5f12086817db80501e4_cgraph_org.svg" target="_base">
   <rect id="button" ry="5" rx="5" y="6" x="6" height="38" width="38"
        fill="#f2f5e9" fill-opacity="0.5" stroke="#606060" stroke-width="1.0"/>
   <path id="arrow"
     d="M 11.500037,31.436501 C 11.940474,20.09759 22.043105,11.32322 32.158766,21.979434 L 37.068811,17.246167 C 37.068811,17.246167 37.088388,32 37.088388,32 L 22.160133,31.978069 C 22.160133,31.978069 26.997745,27.140456 26.997745,27.140456 C 18.528582,18.264221 13.291696,25.230495 11.500037,31.436501 z"
     style="fill:#404040;"/>
  </a>
 </g>
</svg>

<style type='text/css'>
<![CDATA[
[data-mouse-over-selected='false'] { opacity: 0.7; }
[data-mouse-over-selected='true']  { opacity: 1.0; }
]]>
</style>
<script type="application/ecmascript"><![CDATA[
document.addEventListener('DOMContentLoaded', (event) => {
  highlightEdges();
  highlightAdjacentNodes();
});
]]></script>
</svg>
