<?xml version="1.0" encoding="UTF-8" standalone="no"?>
<!DOCTYPE svg PUBLIC "-//W3C//DTD SVG 1.1//EN"
 "http://www.w3.org/Graphics/SVG/1.1/DTD/svg11.dtd">
<!-- Generated by graphviz version 14.1.1 (0)
 -->
<!-- Title: core::file::FileReader Pages: 1 -->
<svg width="1170pt" height="696pt"
 viewBox="0.00 0.00 1170.00 696.00" xmlns="http://www.w3.org/2000/svg" xmlns:xlink="http://www.w3.org/1999/xlink">
<g id="graph0" class="graph" transform="scale(1 1) rotate(0) translate(4 691.75)">
<title>core::file::FileReader</title>
<!-- Node1 -->
<g id="Node000001" class="node">
<title>Node1</title>
<g id="a_Node000001"><a xlink:title=" ">
<polygon fill="#999999" stroke="none" points="1042.62,-514.62 934.88,-514.62 934.88,-493.88 1042.62,-493.88 1042.62,-514.62"/>
<text xml:space="preserve" text-anchor="start" x="938.88" y="-501.12" font-family="Helvetica,sans-Serif" font-size="10.00">core::file::FileReader</text>
<polygon fill="none" stroke="#666666" points="934.88,-493.88 934.88,-514.62 1042.62,-514.62 1042.62,-493.88 934.88,-493.88"/>
</a>
</g>
</g>
<!-- Node2 -->
<g id="Node000002" class="node">
<title>Node2</title>
<g id="a_Node000002"><a xlink:href="classcore_1_1EventReceiver.html" target="_top" xlink:title=" ">
<polygon fill="white" stroke="none" points="540.5,-630 435,-630 435,-609.25 540.5,-609.25 540.5,-630"/>
<text xml:space="preserve" text-anchor="start" x="439" y="-616.5" font-family="Helvetica,sans-Serif" font-size="10.00">core::EventReceiver</text>
<polygon fill="none" stroke="#666666" points="435,-609.25 435,-630 540.5,-630 540.5,-609.25 435,-609.25"/>
</a>
</g>
</g>
<!-- Node2&#45;&gt;Node1 -->
<g id="edge1_Node000001_Node000002" class="edge">
<title>Node2&#45;&gt;Node1</title>
<g id="a_edge1_Node000001_Node000002"><a xlink:title=" ">
<path fill="none" stroke="#8b1a1a" d="M551.93,-614.11C635.77,-608.03 774.66,-597.28 797.75,-591.25 866.36,-573.32 941.27,-532.81 973.07,-514.52"/>
<polygon fill="none" stroke="#8b1a1a" points="551.71,-610.61 541.99,-614.82 552.22,-617.6 551.71,-610.61"/>
</a>
</g>
</g>
<!-- Node3 -->
<g id="Node000003" class="node">
<title>Node3</title>
<g id="a_Node000003"><a xlink:href="classcore_1_1Event.html" target="_top" xlink:title=" ">
<polygon fill="white" stroke="none" points="108.12,-295.88 45.38,-295.88 45.38,-275.12 108.12,-275.12 108.12,-295.88"/>
<text xml:space="preserve" text-anchor="start" x="49.38" y="-282.38" font-family="Helvetica,sans-Serif" font-size="10.00">core::Event</text>
<polygon fill="none" stroke="#666666" points="45.38,-275.12 45.38,-295.88 108.12,-295.88 108.12,-275.12 45.38,-275.12"/>
</a>
</g>
</g>
<!-- Node2&#45;&gt;Node3 -->
<g id="edge5_Node000003_Node000002" class="edge">
<title>Node2&#45;&gt;Node3</title>
<g id="a_edge5_Node000003_Node000002"><a xlink:title=" ">
<path fill="none" stroke="#63b8ff" d="M435.27,-616.51C366.08,-613.21 248.38,-605.65 207.75,-591.25 115.24,-558.45 69.99,-555.94 23.5,-469.5 -6.21,-414.26 37.28,-340.48 61.85,-305.91"/>
<polygon fill="none" stroke="#63b8ff" points="61.67,-306.16 62.01,-298.96 68.79,-296.5 68.45,-303.7 61.67,-306.16"/>
</a>
</g>
<text xml:space="preserve" text-anchor="start" x="26.5" y="-457" font-family="Helvetica,sans-Serif" font-size="10.00" fill="grey">&#45;eventReceiver</text>
</g>
<!-- Node11 -->
<g id="Node000011" class="node">
<title>Node11</title>
<g id="a_Node000011"><a xlink:href="classcore_1_1DescriptorEventReceiver.html" target="_top" xlink:title=" ">
<polygon fill="white" stroke="none" points="916.62,-514.62 760.88,-514.62 760.88,-493.88 916.62,-493.88 916.62,-514.62"/>
<text xml:space="preserve" text-anchor="start" x="764.88" y="-501.12" font-family="Helvetica,sans-Serif" font-size="10.00">core::DescriptorEventReceiver</text>
<polygon fill="none" stroke="#666666" points="760.88,-493.88 760.88,-514.62 916.62,-514.62 916.62,-493.88 760.88,-493.88"/>
</a>
</g>
</g>
<!-- Node2&#45;&gt;Node11 -->
<g id="edge13_Node000011_Node000002" class="edge">
<title>Node2&#45;&gt;Node11</title>
<g id="a_edge13_Node000011_Node000002"><a xlink:title=" ">
<path fill="none" stroke="#63b8ff" d="M551.55,-614.19C593.27,-610.24 643.17,-603.17 660.75,-591.25 683.09,-576.09 669.94,-554.92 691.75,-539 699.76,-533.15 749.77,-522.41 789.27,-514.61"/>
<polygon fill="none" stroke="#63b8ff" points="551.46,-610.69 541.82,-615.07 552.09,-617.66 551.46,-610.69"/>
</a>
</g>
</g>
<!-- Node17 -->
<g id="Node000017" class="node">
<title>Node17</title>
<g id="a_Node000017"><a xlink:href="classcore_1_1TimerEventReceiver.html" target="_top" xlink:title=" ">
<polygon fill="white" stroke="none" points="554.38,-514.62 421.12,-514.62 421.12,-493.88 554.38,-493.88 554.38,-514.62"/>
<text xml:space="preserve" text-anchor="start" x="425.12" y="-501.12" font-family="Helvetica,sans-Serif" font-size="10.00">core::TimerEventReceiver</text>
<polygon fill="none" stroke="#666666" points="421.12,-493.88 421.12,-514.62 554.38,-514.62 554.38,-493.88 421.12,-493.88"/>
</a>
</g>
</g>
<!-- Node2&#45;&gt;Node17 -->
<g id="edge22_Node000017_Node000002" class="edge">
<title>Node2&#45;&gt;Node17</title>
<g id="a_edge22_Node000017_Node000002"><a xlink:title=" ">
<path fill="none" stroke="#63b8ff" d="M487.75,-597.98C487.75,-573.1 487.75,-532.38 487.75,-514.34"/>
<polygon fill="none" stroke="#63b8ff" points="484.25,-597.83 487.75,-607.83 491.25,-597.83 484.25,-597.83"/>
</a>
</g>
</g>
<!-- Node3&#45;&gt;Node2 -->
<g id="edge2_Node000002_Node000003" class="edge">
<title>Node3&#45;&gt;Node2</title>
<g id="a_edge2_Node000002_Node000003"><a xlink:title=" ">
<path fill="none" stroke="#63b8ff" d="M75.56,-295.87C72.93,-320.33 68.84,-387.39 95.75,-432.75 164.77,-549.1 329.9,-593.68 422.31,-609.93"/>
<polygon fill="none" stroke="#63b8ff" points="422.39,-609.94 428.97,-606.99 434.23,-611.93 427.65,-614.88 422.39,-609.94"/>
</a>
</g>
<text xml:space="preserve" text-anchor="start" x="124.7" y="-457" font-family="Helvetica,sans-Serif" font-size="10.00" fill="grey">&#45;event</text>
</g>
<!-- Node21 -->
<g id="Node000021" class="node">
<title>Node21</title>
<g id="a_Node000021"><a xlink:title=" ">
<polygon fill="white" stroke="none" points="129.5,-201.25 0,-201.25 0,-180.5 129.5,-180.5 129.5,-201.25"/>
<text xml:space="preserve" text-anchor="start" x="4" y="-187.75" font-family="Helvetica,sans-Serif" font-size="10.00">std::list&lt; core::Event * &gt;</text>
<polygon fill="none" stroke="#666666" points="0,-180.5 0,-201.25 129.5,-201.25 129.5,-180.5 0,-180.5"/>
</a>
</g>
</g>
<!-- Node3&#45;&gt;Node21 -->
<g id="edge31_Node000021_Node000003" class="edge">
<title>Node3&#45;&gt;Node21</title>
<g id="a_edge31_Node000021_Node000003"><a xlink:title=" ">
<path fill="none" stroke="#63b8ff" d="M75.56,-275.28C73.71,-261.06 70.13,-233.39 67.59,-213.82"/>
<polygon fill="none" stroke="#63b8ff" points="67.6,-213.85 62.86,-208.42 66.06,-201.95 70.79,-207.39 67.6,-213.85"/>
</a>
</g>
<text xml:space="preserve" text-anchor="start" x="73.39" y="-225.5" font-family="Helvetica,sans-Serif" font-size="10.00" fill="grey">+elements</text>
</g>
<!-- Node4 -->
<g id="Node000004" class="node">
<title>Node4</title>
<g id="a_Node000004"><a xlink:title=" ">
<polygon fill="white" stroke="none" points="754.12,-420 697.38,-420 697.38,-399.25 754.12,-399.25 754.12,-420"/>
<text xml:space="preserve" text-anchor="start" x="701.38" y="-406.5" font-family="Helvetica,sans-Serif" font-size="10.00">std::string</text>
<polygon fill="none" stroke="#666666" points="697.38,-399.25 697.38,-420 754.12,-420 754.12,-399.25 697.38,-399.25"/>
</a>
</g>
</g>
<!-- Node4&#45;&gt;Node3 -->
<g id="edge3_Node000003_Node000004" class="edge">
<title>Node4&#45;&gt;Node3</title>
<g id="a_edge3_Node000003_Node000004"><a xlink:title=" ">
<path fill="none" stroke="#63b8ff" d="M713.44,-399.42C706.32,-394.64 696.97,-389.23 687.75,-386.5 610,-363.44 402.96,-383.44 323.25,-368.5 282.26,-360.82 171.86,-321.44 113.72,-300.17"/>
<polygon fill="none" stroke="#63b8ff" points="113.92,-300.25 106.91,-301.94 102.66,-296.11 109.67,-294.43 113.92,-300.25"/>
</a>
</g>
<text xml:space="preserve" text-anchor="start" x="326.25" y="-347.62" font-family="Helvetica,sans-Serif" font-size="10.00" fill="grey">&#45;name</text>
</g>
<!-- Node8 -->
<g id="Node000008" class="node">
<title>Node8</title>
<g id="a_Node000008"><a xlink:href="classcore_1_1DescriptorEventPublisher.html" target="_top" xlink:title=" ">
<polygon fill="white" stroke="none" points="714.75,-201.25 556.75,-201.25 556.75,-180.5 714.75,-180.5 714.75,-201.25"/>
<text xml:space="preserve" text-anchor="start" x="560.75" y="-187.75" font-family="Helvetica,sans-Serif" font-size="10.00">core::DescriptorEventPublisher</text>
<polygon fill="none" stroke="#666666" points="556.75,-180.5 556.75,-201.25 714.75,-201.25 714.75,-180.5 556.75,-180.5"/>
</a>
</g>
</g>
<!-- Node4&#45;&gt;Node8 -->
<g id="edge16_Node000008_Node000004" class="edge">
<title>Node4&#45;&gt;Node8</title>
<g id="a_edge16_Node000008_Node000004"><a xlink:title=" ">
<path fill="none" stroke="#63b8ff" d="M710.34,-399.36C703.48,-395.31 695.27,-390.57 687.75,-386.5 625.44,-352.77 582.46,-375.3 545.25,-315 531.48,-292.68 533.21,-279.29 545.25,-256 556.8,-233.66 580.13,-217.42 600.21,-206.87"/>
<polygon fill="none" stroke="#63b8ff" points="600.26,-206.85 603.89,-200.62 611.03,-201.58 607.4,-207.81 600.26,-206.85"/>
</a>
</g>
<text xml:space="preserve" text-anchor="start" x="548.25" y="-282.38" font-family="Helvetica,sans-Serif" font-size="10.00" fill="grey">&#45;name</text>
</g>
<!-- Node5 -->
<g id="Node000005" class="node">
<title>Node5</title>
<g id="a_Node000005"><a xlink:title=" ">
<polygon fill="white" stroke="none" points="742.62,-521 646.88,-521 646.88,-487.5 742.62,-487.5 742.62,-521"/>
<text xml:space="preserve" text-anchor="start" x="650.88" y="-507.5" font-family="Helvetica,sans-Serif" font-size="10.00">std::basic_string&lt;</text>
<text xml:space="preserve" text-anchor="start" x="676.38" y="-494.75" font-family="Helvetica,sans-Serif" font-size="10.00"> Char &gt;</text>
<polygon fill="none" stroke="#666666" points="646.88,-487.5 646.88,-521 742.62,-521 742.62,-487.5 646.88,-487.5"/>
</a>
</g>
</g>
<!-- Node5&#45;&gt;Node4 -->
<g id="edge4_Node000004_Node000005" class="edge">
<title>Node5&#45;&gt;Node4</title>
<g id="a_edge4_Node000004_Node000005"><a xlink:title=" ">
<path fill="none" stroke="#63b8ff" d="M703.6,-476.8C709.99,-457.72 718.23,-433.09 722.64,-419.91"/>
<polygon fill="none" stroke="#63b8ff" points="700.34,-475.51 700.49,-486.1 706.98,-477.73 700.34,-475.51"/>
</a>
</g>
</g>
<!-- Node6 -->
<g id="Node000006" class="node">
<title>Node6</title>
<g id="a_Node000006"><a xlink:href="classcore_1_1EventMultiplexer.html" target="_top" xlink:title=" ">
<polygon fill="white" stroke="none" points="282.88,-20.75 164.62,-20.75 164.62,0 282.88,0 282.88,-20.75"/>
<text xml:space="preserve" text-anchor="start" x="168.62" y="-7.25" font-family="Helvetica,sans-Serif" font-size="10.00">core::EventMultiplexer</text>
<polygon fill="none" stroke="#666666" points="164.62,0 164.62,-20.75 282.88,-20.75 282.88,0 164.62,0"/>
</a>
</g>
</g>
<!-- Node6&#45;&gt;Node3 -->
<g id="edge6_Node000003_Node000006" class="edge">
<title>Node6&#45;&gt;Node3</title>
<g id="a_edge6_Node000003_Node000006"><a xlink:title=" ">
<path fill="none" stroke="#63b8ff" d="M217.89,-20.61C205.98,-39.75 178.68,-85.47 162.75,-127 144.53,-174.5 162.25,-195.19 134.75,-238 127.01,-250.05 115.07,-260.4 104.04,-268.25"/>
<polygon fill="none" stroke="#63b8ff" points="104.25,-268.11 101.46,-274.76 94.25,-274.74 97.04,-268.09 104.25,-268.11"/>
</a>
</g>
<text xml:space="preserve" text-anchor="start" x="165.75" y="-141.62" font-family="Helvetica,sans-Serif" font-size="10.00" fill="grey">&#45;eventMultiplexer</text>
</g>
<!-- Node7 -->
<g id="Node000007" class="node">
<title>Node7</title>
<g id="a_Node000007"><a xlink:title=" ">
<polygon fill="white" stroke="none" points="580.25,-109 437.25,-109 437.25,-75.5 580.25,-75.5 580.25,-109"/>
<text xml:space="preserve" text-anchor="start" x="441.25" y="-95.5" font-family="Helvetica,sans-Serif" font-size="10.00">std::array&lt; core::Descriptor</text>
<text xml:space="preserve" text-anchor="start" x="456.62" y="-82.75" font-family="Helvetica,sans-Serif" font-size="10.00">EventPublisher *, 3 &gt;</text>
<polygon fill="none" stroke="#666666" points="437.25,-75.5 437.25,-109 580.25,-109 580.25,-75.5 437.25,-75.5"/>
</a>
</g>
</g>
<!-- Node7&#45;&gt;Node6 -->
<g id="edge7_Node000006_Node000007" class="edge">
<title>Node7&#45;&gt;Node6</title>
<g id="a_edge7_Node000006_Node000007"><a xlink:title=" ">
<path fill="none" stroke="#63b8ff" d="M452.78,-75.56C399.1,-60.52 319.04,-38.08 269.19,-24.11"/>
<polygon fill="none" stroke="#63b8ff" points="269.31,-24.15 262.46,-26.38 257.76,-20.91 264.62,-18.67 269.31,-24.15"/>
</a>
</g>
<text xml:space="preserve" text-anchor="start" x="386.31" y="-45" font-family="Helvetica,sans-Serif" font-size="10.00" fill="grey">#descriptorEventPublishers</text>
</g>
<!-- Node8&#45;&gt;Node7 -->
<g id="edge8_Node000007_Node000008" class="edge">
<title>Node8&#45;&gt;Node7</title>
<g id="a_edge8_Node000007_Node000008"><a xlink:title=" ">
<path fill="none" stroke="#63b8ff" d="M623.57,-180.61C604.39,-166.02 566.54,-137.22 539.54,-116.68"/>
<polygon fill="none" stroke="#63b8ff" points="539.7,-116.8 532.51,-116.35 530.15,-109.53 537.35,-109.98 539.7,-116.8"/>
</a>
</g>
<text xml:space="preserve" text-anchor="start" x="601.22" y="-141.62" font-family="Helvetica,sans-Serif" font-size="10.00" fill="grey">+elements</text>
</g>
<!-- Node8&#45;&gt;Node11 -->
<g id="edge14_Node000011_Node000008" class="edge">
<title>Node8&#45;&gt;Node11</title>
<g id="a_edge14_Node000011_Node000008"><a xlink:title=" ">
<path fill="none" stroke="#63b8ff" d="M714.62,-193.65C798.76,-196.37 922,-203.1 936.75,-219.25 1012.44,-302.13 974.04,-382.8 902.75,-469.5 896.37,-477.26 887.73,-483.46 878.87,-488.33"/>
<polygon fill="none" stroke="#63b8ff" points="878.86,-488.33 875.21,-494.55 868.07,-493.57 871.72,-487.35 878.86,-488.33"/>
</a>
</g>
<text xml:space="preserve" text-anchor="start" x="979.62" y="-347.62" font-family="Helvetica,sans-Serif" font-size="10.00" fill="grey">&#45;descriptorEventPublisher</text>
</g>
<!-- Node9 -->
<g id="Node000009" class="node">
<title>Node9</title>
<g id="a_Node000009"><a xlink:title=" ">
<polygon fill="white" stroke="none" points="737.38,-308.62 592.12,-308.62 592.12,-262.38 737.38,-262.38 737.38,-308.62"/>
<text xml:space="preserve" text-anchor="start" x="596.12" y="-295.12" font-family="Helvetica,sans-Serif" font-size="10.00">std::map&lt; int, std</text>
<text xml:space="preserve" text-anchor="start" x="596.12" y="-282.38" font-family="Helvetica,sans-Serif" font-size="10.00">::list&lt; core::DescriptorEvent</text>
<text xml:space="preserve" text-anchor="start" x="628" y="-269.62" font-family="Helvetica,sans-Serif" font-size="10.00">Receiver * &gt; &gt;</text>
<polygon fill="none" stroke="#666666" points="592.12,-262.38 592.12,-308.62 737.38,-308.62 737.38,-262.38 592.12,-262.38"/>
</a>
</g>
</g>
<!-- Node9&#45;&gt;Node8 -->
<g id="edge9_Node000008_Node000009" class="edge">
<title>Node9&#45;&gt;Node8</title>
<g id="a_edge9_Node000008_Node000009"><a xlink:title=" ">
<path fill="none" stroke="#63b8ff" d="M648.09,-262.45C643.43,-255.07 638.96,-246.53 636.5,-238 634.28,-230.31 633.68,-221.59 633.77,-213.82"/>
<polygon fill="none" stroke="#63b8ff" points="633.77,-213.8 630.13,-207.58 634.47,-201.82 638.11,-208.05 633.77,-213.8"/>
</a>
</g>
<text xml:space="preserve" text-anchor="start" x="639.5" y="-225.5" font-family="Helvetica,sans-Serif" font-size="10.00" fill="grey">#observedEventReceiverLists</text>
</g>
<!-- Node10 -->
<g id="Node000010" class="node">
<title>Node10</title>
<g id="a_Node000010"><a xlink:title=" ">
<polygon fill="white" stroke="none" points="905,-426.38 772.5,-426.38 772.5,-392.88 905,-392.88 905,-426.38"/>
<text xml:space="preserve" text-anchor="start" x="776.5" y="-412.88" font-family="Helvetica,sans-Serif" font-size="10.00">std::list&lt; core::Descriptor</text>
<text xml:space="preserve" text-anchor="start" x="793.75" y="-400.12" font-family="Helvetica,sans-Serif" font-size="10.00">EventReceiver * &gt;</text>
<polygon fill="none" stroke="#666666" points="772.5,-392.88 772.5,-426.38 905,-426.38 905,-392.88 772.5,-392.88"/>
</a>
</g>
</g>
<!-- Node10&#45;&gt;Node9 -->
<g id="edge10_Node000009_Node000010" class="edge">
<title>Node10&#45;&gt;Node9</title>
<g id="a_edge10_Node000009_Node000010"><a xlink:title=" ">
<path fill="none" stroke="#63b8ff" d="M812.6,-392.89C800.88,-385.67 786.98,-376.87 774.75,-368.5 750.37,-351.81 723.79,-332.04 702.87,-316.1"/>
<polygon fill="none" stroke="#63b8ff" points="703.03,-316.22 695.83,-315.75 693.5,-308.92 700.69,-309.4 703.03,-316.22"/>
</a>
</g>
<text xml:space="preserve" text-anchor="start" x="777.75" y="-347.62" font-family="Helvetica,sans-Serif" font-size="10.00" fill="grey">+elements</text>
</g>
<!-- Node14 -->
<g id="Node000014" class="node">
<title>Node14</title>
<g id="a_Node000014"><a xlink:title=" ">
<polygon fill="white" stroke="none" points="922.25,-315 755.25,-315 755.25,-256 922.25,-256 922.25,-315"/>
<text xml:space="preserve" text-anchor="start" x="759.25" y="-301.5" font-family="Helvetica,sans-Serif" font-size="10.00">std::map&lt; std::list</text>
<text xml:space="preserve" text-anchor="start" x="759.25" y="-288.75" font-family="Helvetica,sans-Serif" font-size="10.00">&lt; core::DescriptorEventReceiver</text>
<text xml:space="preserve" text-anchor="start" x="759.25" y="-276" font-family="Helvetica,sans-Serif" font-size="10.00"> * &gt; *, std::list&lt; core::Descriptor</text>
<text xml:space="preserve" text-anchor="start" x="788.12" y="-263.25" font-family="Helvetica,sans-Serif" font-size="10.00">EventReceiver * &gt; &gt;</text>
<polygon fill="none" stroke="#666666" points="755.25,-256 755.25,-315 922.25,-315 922.25,-256 755.25,-256"/>
</a>
</g>
</g>
<!-- Node10&#45;&gt;Node14 -->
<g id="edge18_Node000014_Node000010" class="edge">
<title>Node10&#45;&gt;Node14</title>
<g id="a_edge18_Node000014_Node000010"><a xlink:title=" ">
<path fill="none" stroke="#63b8ff" d="M838.75,-393.16C838.75,-376.82 838.75,-350.35 838.75,-327.88"/>
<polygon fill="none" stroke="#63b8ff" points="838.75,-327.77 834.75,-321.77 838.75,-315.77 842.75,-321.77 838.75,-327.77"/>
</a>
</g>
<text xml:space="preserve" text-anchor="start" x="841.75" y="-356" font-family="Helvetica,sans-Serif" font-size="10.00" fill="grey">+elements</text>
<text xml:space="preserve" text-anchor="start" x="841.75" y="-339.25" font-family="Helvetica,sans-Serif" font-size="10.00" fill="grey">+keys</text>
</g>
<!-- Node11&#45;&gt;Node10 -->
<g id="edge11_Node000010_Node000011" class="edge">
<title>Node11&#45;&gt;Node10</title>
<g id="a_edge11_Node000010_Node000011"><a xlink:title=" ">
<path fill="none" stroke="#63b8ff" d="M838.75,-494.03C838.75,-481.35 838.75,-457.97 838.75,-439.18"/>
<polygon fill="none" stroke="#63b8ff" points="838.75,-439.15 834.75,-433.15 838.75,-427.15 842.75,-433.15 838.75,-439.15"/>
</a>
</g>
<text xml:space="preserve" text-anchor="start" x="841.75" y="-457" font-family="Helvetica,sans-Serif" font-size="10.00" fill="grey">+elements</text>
</g>
<!-- Node12 -->
<g id="Node000012" class="node">
<title>Node12</title>
<g id="a_Node000012"><a xlink:href="classcore_1_1Observer.html" target="_top" xlink:title=" ">
<polygon fill="white" stroke="none" points="878.38,-630 799.12,-630 799.12,-609.25 878.38,-609.25 878.38,-630"/>
<text xml:space="preserve" text-anchor="start" x="803.12" y="-616.5" font-family="Helvetica,sans-Serif" font-size="10.00">core::Observer</text>
<polygon fill="none" stroke="#666666" points="799.12,-609.25 799.12,-630 878.38,-630 878.38,-609.25 799.12,-609.25"/>
</a>
</g>
</g>
<!-- Node12&#45;&gt;Node11 -->
<g id="edge12_Node000011_Node000012" class="edge">
<title>Node12&#45;&gt;Node11</title>
<g id="a_edge12_Node000011_Node000012"><a xlink:title=" ">
<path fill="none" stroke="darkgreen" d="M838.75,-597.98C838.75,-573.1 838.75,-532.38 838.75,-514.34"/>
<polygon fill="none" stroke="darkgreen" points="835.25,-597.83 838.75,-607.83 842.25,-597.83 835.25,-597.83"/>
</a>
</g>
</g>
<!-- Node13 -->
<g id="Node000013" class="node">
<title>Node13</title>
<g id="a_Node000013"><a xlink:href="classutils_1_1Timeval.html" target="_top" xlink:title=" ">
<polygon fill="white" stroke="none" points="704.75,-630 630.75,-630 630.75,-609.25 704.75,-609.25 704.75,-630"/>
<text xml:space="preserve" text-anchor="start" x="634.75" y="-616.5" font-family="Helvetica,sans-Serif" font-size="10.00">utils::Timeval</text>
<polygon fill="none" stroke="#666666" points="630.75,-609.25 630.75,-630 704.75,-630 704.75,-609.25 630.75,-609.25"/>
</a>
</g>
</g>
<!-- Node13&#45;&gt;Node11 -->
<g id="edge15_Node000011_Node000013" class="edge">
<title>Node13&#45;&gt;Node11</title>
<g id="a_edge15_Node000011_Node000013"><a xlink:title=" ">
<path fill="none" stroke="#63b8ff" d="M676.12,-609.41C691.12,-593.34 724.14,-559.9 757.5,-539 769.99,-531.18 784.6,-524.46 797.96,-519.12"/>
<polygon fill="none" stroke="#63b8ff" points="797.73,-519.21 801.92,-513.33 808.95,-514.94 804.76,-520.81 797.73,-519.21"/>
</a>
</g>
<text xml:space="preserve" text-anchor="start" x="760.5" y="-578.75" font-family="Helvetica,sans-Serif" font-size="10.00" fill="grey">&#45;initialTimeout</text>
<text xml:space="preserve" text-anchor="start" x="760.5" y="-562" font-family="Helvetica,sans-Serif" font-size="10.00" fill="grey">&#45;lastTriggered</text>
<text xml:space="preserve" text-anchor="start" x="760.5" y="-545.25" font-family="Helvetica,sans-Serif" font-size="10.00" fill="grey">&#45;maxInactivity</text>
</g>
<!-- Node13&#45;&gt;Node17 -->
<g id="edge26_Node000017_Node000013" class="edge">
<title>Node13&#45;&gt;Node17</title>
<g id="a_edge26_Node000017_Node000013"><a xlink:title=" ">
<path fill="none" stroke="#63b8ff" d="M640.04,-609.3C627.52,-604.61 612.77,-598.4 600.25,-591.25 565.37,-571.33 529.19,-541.8 507.57,-523.05"/>
<polygon fill="none" stroke="#63b8ff" points="507.62,-523.09 500.47,-522.13 498.62,-515.16 505.76,-516.12 507.62,-523.09"/>
</a>
</g>
<text xml:space="preserve" text-anchor="start" x="603.25" y="-570.38" font-family="Helvetica,sans-Serif" font-size="10.00" fill="grey">&#45;absoluteTimeout</text>
<text xml:space="preserve" text-anchor="start" x="603.25" y="-553.62" font-family="Helvetica,sans-Serif" font-size="10.00" fill="grey">&#45;delay</text>
</g>
<!-- Node14&#45;&gt;Node8 -->
<g id="edge17_Node000008_Node000014" class="edge">
<title>Node14&#45;&gt;Node8</title>
<g id="a_edge17_Node000008_Node000014"><a xlink:title=" ">
<path fill="none" stroke="#63b8ff" d="M823.58,-256.03C815.08,-242.8 803.26,-228.08 788.75,-219.25 770.34,-208.04 748.53,-201.16 727.22,-197"/>
<polygon fill="none" stroke="#63b8ff" points="727.13,-196.98 720.54,-199.91 715.3,-194.95 721.89,-192.02 727.13,-196.98"/>
</a>
</g>
<text xml:space="preserve" text-anchor="start" x="811.98" y="-225.5" font-family="Helvetica,sans-Serif" font-size="10.00" fill="grey">&#45;dirtyEventReceiverLists</text>
</g>
<!-- Node15 -->
<g id="Node000015" class="node">
<title>Node15</title>
<g id="a_Node000015"><a xlink:href="classcore_1_1TimerEventPublisher.html" target="_top" xlink:title=" ">
<polygon fill="white" stroke="none" points="347.5,-295.88 212,-295.88 212,-275.12 347.5,-275.12 347.5,-295.88"/>
<text xml:space="preserve" text-anchor="start" x="216" y="-282.38" font-family="Helvetica,sans-Serif" font-size="10.00">core::TimerEventPublisher</text>
<polygon fill="none" stroke="#666666" points="212,-275.12 212,-295.88 347.5,-295.88 347.5,-275.12 212,-275.12"/>
</a>
</g>
</g>
<!-- Node15&#45;&gt;Node6 -->
<g id="edge19_Node000006_Node000015" class="edge">
<title>Node15&#45;&gt;Node6</title>
<g id="a_edge19_Node000006_Node000015"><a xlink:title=" ">
<path fill="none" stroke="#63b8ff" d="M279.14,-275.17C277.41,-250.66 271.81,-182.48 259.75,-127 252.46,-93.48 239.84,-55.73 231.65,-32.75"/>
<polygon fill="none" stroke="#63b8ff" points="231.61,-32.64 225.8,-28.37 227.51,-21.37 233.32,-25.64 231.61,-32.64"/>
</a>
</g>
<text xml:space="preserve" text-anchor="start" x="269.25" y="-141.62" font-family="Helvetica,sans-Serif" font-size="10.00" fill="grey">&#45;timerEventPublisher</text>
</g>
<!-- Node15&#45;&gt;Node17 -->
<g id="edge23_Node000017_Node000015" class="edge">
<title>Node15&#45;&gt;Node17</title>
<g id="a_edge23_Node000017_Node000015"><a xlink:title=" ">
<path fill="none" stroke="#63b8ff" d="M277.16,-295.53C270.65,-320.34 256.24,-390.45 288,-432.75 316.17,-470.28 365.89,-487.91 408.67,-496.16"/>
<polygon fill="none" stroke="#63b8ff" points="408.69,-496.16 415.29,-493.25 420.51,-498.23 413.91,-501.13 408.69,-496.16"/>
</a>
</g>
<text xml:space="preserve" text-anchor="start" x="291" y="-406.5" font-family="Helvetica,sans-Serif" font-size="10.00" fill="grey">&#45;timerEventPublisher</text>
</g>
<!-- Node16 -->
<g id="Node000016" class="node">
<title>Node16</title>
<g id="a_Node000016"><a xlink:title=" ">
<polygon fill="white" stroke="none" points="598,-432.75 405.5,-432.75 405.5,-386.5 598,-386.5 598,-432.75"/>
<text xml:space="preserve" text-anchor="start" x="409.5" y="-419.25" font-family="Helvetica,sans-Serif" font-size="10.00">std::set&lt; core::TimerEvent</text>
<text xml:space="preserve" text-anchor="start" x="409.5" y="-406.5" font-family="Helvetica,sans-Serif" font-size="10.00">Receiver *, core::TimerEventPublisher</text>
<text xml:space="preserve" text-anchor="start" x="462" y="-393.75" font-family="Helvetica,sans-Serif" font-size="10.00">::timernode_lt &gt;</text>
<polygon fill="none" stroke="#666666" points="405.5,-386.5 405.5,-432.75 598,-432.75 598,-386.5 405.5,-386.5"/>
</a>
</g>
</g>
<!-- Node16&#45;&gt;Node15 -->
<g id="edge20_Node000015_Node000016" class="edge">
<title>Node16&#45;&gt;Node15</title>
<g id="a_edge20_Node000015_Node000016"><a xlink:title=" ">
<path fill="none" stroke="#63b8ff" d="M461.55,-386.51C417.14,-362.08 346.79,-323.38 307.91,-301.99"/>
<polygon fill="none" stroke="#63b8ff" points="307.99,-302.04 300.81,-302.65 297.48,-296.25 304.66,-295.64 307.99,-302.04"/>
</a>
</g>
<text xml:space="preserve" text-anchor="start" x="426.61" y="-347.62" font-family="Helvetica,sans-Serif" font-size="10.00" fill="grey">&#45;timerList</text>
</g>
<!-- Node17&#45;&gt;Node16 -->
<g id="edge21_Node000016_Node000017" class="edge">
<title>Node17&#45;&gt;Node16</title>
<g id="a_edge21_Node000016_Node000017"><a xlink:title=" ">
<path fill="none" stroke="#63b8ff" d="M476.52,-493.88C470.04,-487.71 462.51,-479.03 459,-469.5 456.12,-461.68 455.69,-458.4 459,-450.75 460.23,-447.91 461.77,-445.18 463.53,-442.58"/>
<polygon fill="none" stroke="#63b8ff" points="463.55,-442.55 464.28,-435.37 471.18,-433.29 470.45,-440.46 463.55,-442.55"/>
</a>
</g>
<text xml:space="preserve" text-anchor="start" x="462" y="-457" font-family="Helvetica,sans-Serif" font-size="10.00" fill="grey">+keys</text>
</g>
<!-- Node18 -->
<g id="Node000018" class="node">
<title>Node18</title>
<g id="a_Node000018"><a xlink:href="classcore_1_1Timer.html" target="_top" xlink:title=" ">
<polygon fill="white" stroke="none" points="679.12,-420 616.38,-420 616.38,-399.25 679.12,-399.25 679.12,-420"/>
<text xml:space="preserve" text-anchor="start" x="620.38" y="-406.5" font-family="Helvetica,sans-Serif" font-size="10.00">core::Timer</text>
<polygon fill="none" stroke="#666666" points="616.38,-399.25 616.38,-420 679.12,-420 679.12,-399.25 616.38,-399.25"/>
</a>
</g>
</g>
<!-- Node17&#45;&gt;Node18 -->
<g id="edge25_Node000018_Node000017" class="edge">
<title>Node17&#45;&gt;Node18</title>
<g id="a_edge25_Node000018_Node000017"><a xlink:title=" ">
<path fill="none" stroke="#63b8ff" d="M489.88,-494.25C493.18,-482.34 500.74,-461.58 515.25,-450.75 548.46,-425.96 567.74,-446.75 606.75,-432.75 611.75,-430.96 616.87,-428.63 621.74,-426.16"/>
<polygon fill="none" stroke="#63b8ff" points="621.75,-426.15 625.09,-419.76 632.28,-420.38 628.94,-426.77 621.75,-426.15"/>
</a>
</g>
<text xml:space="preserve" text-anchor="start" x="518.25" y="-457" font-family="Helvetica,sans-Serif" font-size="10.00" fill="grey">&#45;timerEventReceiver</text>
</g>
<!-- Node19 -->
<g id="Node000019" class="node">
<title>Node19</title>
<g id="a_Node000019"><a xlink:title=" ">
<polygon fill="white" stroke="none" points="242.62,-426.38 104.88,-426.38 104.88,-392.88 242.62,-392.88 242.62,-426.38"/>
<text xml:space="preserve" text-anchor="start" x="108.88" y="-412.88" font-family="Helvetica,sans-Serif" font-size="10.00">std::list&lt; core::TimerEvent</text>
<text xml:space="preserve" text-anchor="start" x="142.62" y="-400.12" font-family="Helvetica,sans-Serif" font-size="10.00">Receiver * &gt;</text>
<polygon fill="none" stroke="#666666" points="104.88,-392.88 104.88,-426.38 242.62,-426.38 242.62,-392.88 104.88,-392.88"/>
</a>
</g>
</g>
<!-- Node17&#45;&gt;Node19 -->
<g id="edge28_Node000019_Node000017" class="edge">
<title>Node17&#45;&gt;Node19</title>
<g id="a_edge28_Node000019_Node000017"><a xlink:title=" ">
<path fill="none" stroke="#63b8ff" d="M421.26,-502.34C348.85,-500.14 238.79,-492.91 204.75,-469.5 194.03,-462.13 186.74,-449.85 181.94,-438.41"/>
<polygon fill="none" stroke="#63b8ff" points="181.9,-438.29 176.1,-434 177.83,-427 183.63,-431.29 181.9,-438.29"/>
</a>
</g>
<text xml:space="preserve" text-anchor="start" x="207.75" y="-457" font-family="Helvetica,sans-Serif" font-size="10.00" fill="grey">+elements</text>
</g>
<!-- Node18&#45;&gt;Node17 -->
<g id="edge24_Node000017_Node000018" class="edge">
<title>Node18&#45;&gt;Node17</title>
<g id="a_edge24_Node000017_Node000018"><a xlink:title=" ">
<path fill="none" stroke="#63b8ff" d="M646.97,-419.66C645.34,-432.65 640.43,-456.45 625.75,-469.5 609.49,-483.95 588.05,-492.45 566.94,-497.38"/>
<polygon fill="none" stroke="#63b8ff" points="566.88,-497.39 561.79,-502.51 555.12,-499.78 560.21,-494.66 566.88,-497.39"/>
</a>
</g>
<text xml:space="preserve" text-anchor="start" x="641.36" y="-457" font-family="Helvetica,sans-Serif" font-size="10.00" fill="grey">&#45;timer</text>
</g>
<!-- Node19&#45;&gt;Node15 -->
<g id="edge27_Node000015_Node000019" class="edge">
<title>Node19&#45;&gt;Node15</title>
<g id="a_edge27_Node000015_Node000019"><a xlink:title=" ">
<path fill="none" stroke="#63b8ff" d="M152.06,-393.03C144.64,-386.4 137.21,-378 133.25,-368.5 127.18,-353.94 123.93,-345.73 133.25,-333 148.89,-311.63 174.43,-299.84 199.83,-293.41"/>
<polygon fill="none" stroke="#63b8ff" points="199.65,-293.45 204.65,-288.25 211.37,-290.86 206.37,-296.06 199.65,-293.45"/>
</a>
</g>
<text xml:space="preserve" text-anchor="start" x="136.25" y="-347.62" font-family="Helvetica,sans-Serif" font-size="10.00" fill="grey">&#45;removedList</text>
</g>
<!-- Node20 -->
<g id="Node000020" class="node">
<title>Node20</title>
<g id="a_Node000020"><a xlink:href="classcore_1_1EventMultiplexer_1_1EventQueue.html" target="_top" xlink:title=" ">
<polygon fill="white" stroke="none" points="129.88,-109 11.62,-109 11.62,-75.5 129.88,-75.5 129.88,-109"/>
<text xml:space="preserve" text-anchor="start" x="15.62" y="-95.5" font-family="Helvetica,sans-Serif" font-size="10.00">core::EventMultiplexer</text>
<text xml:space="preserve" text-anchor="start" x="38.12" y="-82.75" font-family="Helvetica,sans-Serif" font-size="10.00">::EventQueue</text>
<polygon fill="none" stroke="#666666" points="11.62,-75.5 11.62,-109 129.88,-109 129.88,-75.5 11.62,-75.5"/>
</a>
</g>
</g>
<!-- Node20&#45;&gt;Node6 -->
<g id="edge29_Node000006_Node000020" class="edge">
<title>Node20&#45;&gt;Node6</title>
<g id="a_edge29_Node000006_Node000020"><a xlink:title=" ">
<path fill="none" stroke="#63b8ff" d="M70.06,-75.76C70.42,-63.98 72.94,-48.24 82.75,-38.75 93.1,-28.74 122.81,-22.19 152.31,-18.01"/>
<polygon fill="none" stroke="#63b8ff" points="152.09,-18.04 157.52,-13.3 163.98,-16.48 158.56,-21.23 152.09,-18.04"/>
</a>
</g>
<text xml:space="preserve" text-anchor="start" x="85.75" y="-45" font-family="Helvetica,sans-Serif" font-size="10.00" fill="grey">&#45;eventQueue</text>
</g>
<!-- Node21&#45;&gt;Node20 -->
<g id="edge30_Node000020_Node000021" class="edge">
<title>Node21&#45;&gt;Node20</title>
<g id="a_edge30_Node000020_Node000021"><a xlink:title=" ">
<path fill="none" stroke="#63b8ff" d="M64.22,-180.5C63.94,-175.22 63.64,-168.49 63.5,-162.5 63.14,-146.73 61.83,-142.69 63.5,-127 63.69,-125.23 63.93,-123.42 64.21,-121.6"/>
<polygon fill="none" stroke="#63b8ff" points="64.21,-121.6 61.42,-114.95 66.49,-109.82 69.28,-116.47 64.21,-121.6"/>
</a>
</g>
<text xml:space="preserve" text-anchor="start" x="66.5" y="-150" font-family="Helvetica,sans-Serif" font-size="10.00" fill="grey">&#45;executeQueue</text>
<text xml:space="preserve" text-anchor="start" x="66.5" y="-133.25" font-family="Helvetica,sans-Serif" font-size="10.00" fill="grey">&#45;publishQueue</text>
</g>
<!-- Node22 -->
<g id="Node000022" class="node">
<title>Node22</title>
<g id="a_Node000022"><a xlink:href="classcore_1_1pipe_1_1Source.html" target="_top" xlink:title=" ">
<polygon fill="white" stroke="none" points="1120.25,-630 1025.25,-630 1025.25,-609.25 1120.25,-609.25 1120.25,-630"/>
<text xml:space="preserve" text-anchor="start" x="1029.25" y="-616.5" font-family="Helvetica,sans-Serif" font-size="10.00">core::pipe::Source</text>
<polygon fill="none" stroke="#666666" points="1025.25,-609.25 1025.25,-630 1120.25,-630 1120.25,-609.25 1025.25,-609.25"/>
</a>
</g>
</g>
<!-- Node22&#45;&gt;Node1 -->
<g id="edge32_Node000001_Node000022" class="edge">
<title>Node22&#45;&gt;Node1</title>
<g id="a_edge32_Node000001_Node000022"><a xlink:title=" ">
<path fill="none" stroke="#63b8ff" d="M1059.19,-600.33C1040.97,-575.73 1009.28,-532.96 995.48,-514.34"/>
<polygon fill="none" stroke="#63b8ff" points="1056.21,-602.18 1064.97,-608.13 1061.83,-598.01 1056.21,-602.18"/>
</a>
</g>
</g>
<!-- Node23 -->
<g id="Node000023" class="node">
<title>Node23</title>
<g id="a_Node000023"><a xlink:href="classcore_1_1pipe_1_1Sink.html" target="_top" xlink:title=" ">
<polygon fill="white" stroke="none" points="1162.25,-514.62 1079.25,-514.62 1079.25,-493.88 1162.25,-493.88 1162.25,-514.62"/>
<text xml:space="preserve" text-anchor="start" x="1083.25" y="-501.12" font-family="Helvetica,sans-Serif" font-size="10.00">core::pipe::Sink</text>
<polygon fill="none" stroke="#666666" points="1079.25,-493.88 1079.25,-514.62 1162.25,-514.62 1162.25,-493.88 1079.25,-493.88"/>
</a>
</g>
</g>
<!-- Node22&#45;&gt;Node23 -->
<g id="edge34_Node000023_Node000022" class="edge">
<title>Node22&#45;&gt;Node23</title>
<g id="a_edge34_Node000023_Node000022"><a xlink:title=" ">
<path fill="none" stroke="#63b8ff" d="M1068.13,-609.31C1061.08,-593.66 1049.76,-561.59 1062.75,-539 1067.07,-531.49 1073.77,-525.49 1081.11,-520.77"/>
<polygon fill="none" stroke="#63b8ff" points="1081.19,-520.72 1084.54,-514.34 1091.72,-514.97 1088.38,-521.36 1081.19,-520.72"/>
</a>
</g>
<text xml:space="preserve" text-anchor="start" x="1065.75" y="-562" font-family="Helvetica,sans-Serif" font-size="10.00" fill="grey">&#45;source</text>
</g>
<!-- Node23&#45;&gt;Node22 -->
<g id="edge33_Node000022_Node000023" class="edge">
<title>Node23&#45;&gt;Node22</title>
<g id="a_edge33_Node000022_Node000023"><a xlink:title=" ">
<path fill="none" stroke="#63b8ff" d="M1121.65,-514.52C1122.82,-531.13 1123.22,-566.53 1108.75,-591.25 1106.57,-594.98 1103.66,-598.37 1100.44,-601.39"/>
<polygon fill="none" stroke="#63b8ff" points="1100.43,-601.4 1098.17,-608.25 1090.97,-608.79 1093.24,-601.94 1100.43,-601.4"/>
</a>
</g>
<text xml:space="preserve" text-anchor="start" x="1124.88" y="-562" font-family="Helvetica,sans-Serif" font-size="10.00" fill="grey">&#45;sink</text>
</g>
<!-- Node24 -->
<g id="Node000024" class="node">
<title>Node24</title>
<g id="a_Node000024"><a xlink:href="classcore_1_1file_1_1File.html" target="_top" xlink:title=" ">
<polygon fill="white" stroke="none" points="1007.38,-630 934.12,-630 934.12,-609.25 1007.38,-609.25 1007.38,-630"/>
<text xml:space="preserve" text-anchor="start" x="938.12" y="-616.5" font-family="Helvetica,sans-Serif" font-size="10.00">core::file::File</text>
<polygon fill="none" stroke="#666666" points="934.12,-609.25 934.12,-630 1007.38,-630 1007.38,-609.25 934.12,-609.25"/>
</a>
</g>
</g>
<!-- Node24&#45;&gt;Node1 -->
<g id="edge35_Node000001_Node000024" class="edge">
<title>Node24&#45;&gt;Node1</title>
<g id="a_edge35_Node000001_Node000024"><a xlink:title=" ">
<path fill="none" stroke="#63b8ff" d="M974.03,-597.98C977.98,-573.1 984.44,-532.38 987.31,-514.34"/>
<polygon fill="none" stroke="#63b8ff" points="970.57,-597.43 972.46,-607.85 977.49,-598.52 970.57,-597.43"/>
</a>
</g>
</g>
<!-- Node25 -->
<g id="Node000025" class="node">
<title>Node25</title>
<g id="a_Node000025"><a xlink:href="classcore_1_1Descriptor.html" target="_top" xlink:title=" ">
<polygon fill="white" stroke="none" points="1013.38,-687.75 928.12,-687.75 928.12,-667 1013.38,-667 1013.38,-687.75"/>
<text xml:space="preserve" text-anchor="start" x="932.12" y="-674.25" font-family="Helvetica,sans-Serif" font-size="10.00">core::Descriptor</text>
<polygon fill="none" stroke="#666666" points="928.12,-667 928.12,-687.75 1013.38,-687.75 1013.38,-667 928.12,-667"/>
</a>
</g>
</g>
<!-- Node25&#45;&gt;Node24 -->
<g id="edge36_Node000024_Node000025" class="edge">
<title>Node25&#45;&gt;Node24</title>
<g id="a_edge36_Node000024_Node000025"><a xlink:title=" ">
<path fill="none" stroke="#63b8ff" d="M970.75,-655.94C970.75,-646.91 970.75,-636.75 970.75,-629.66"/>
<polygon fill="none" stroke="#63b8ff" points="967.25,-655.66 970.75,-665.66 974.25,-655.66 967.25,-655.66"/>
</a>
</g>
</g>
</g>
</svg>
