<?xml version="1.0" encoding="UTF-8" standalone="no"?>
<!DOCTYPE svg PUBLIC "-//W3C//DTD SVG 1.1//EN"
 "http://www.w3.org/Graphics/SVG/1.1/DTD/svg11.dtd">
<!-- Generated by graphviz version 2.43.0 (0)
 -->
<!-- Title: net::in::stream::config::ConfigSocketClient::ConfigSocketClient Pages: 1 -->
<svg width="303pt" height="242pt"
 viewBox="0.00 0.00 303.00 241.50" xmlns="http://www.w3.org/2000/svg" xmlns:xlink="http://www.w3.org/1999/xlink">
<g id="graph0" class="graph" transform="scale(1 1) rotate(0) translate(4 237.5)">
<title>net::in::stream::config::ConfigSocketClient::ConfigSocketClient</title>
<!-- Node1 -->
<g id="Node000001" class="node">
<title>Node1</title>
<g id="a_Node000001"><a xlink:title=" ">
<polygon fill="#999999" stroke="#666666" points="113,-131.5 0,-131.5 0,-90.5 113,-90.5 113,-131.5"/>
<text text-anchor="start" x="8" y="-119.5" font-family="Helvetica,sans-Serif" font-size="10.00">net::in::stream::config</text>
<text text-anchor="start" x="8" y="-108.5" font-family="Helvetica,sans-Serif" font-size="10.00">::ConfigSocketClient::</text>
<text text-anchor="middle" x="56.5" y="-97.5" font-family="Helvetica,sans-Serif" font-size="10.00">ConfigSocketClient</text>
</a>
</g>
</g>
<!-- Node2 -->
<g id="Node000002" class="node">
<title>Node2</title>
<g id="a_Node000002"><a xlink:href="classnet_1_1config_1_1stream_1_1ConfigSocketClient.html#ac2bcad2575894d3f76cee874d4b6522f" target="_top" xlink:title=" ">
<polygon fill="white" stroke="#666666" points="275.5,-233.5 168.5,-233.5 168.5,-192.5 275.5,-192.5 275.5,-233.5"/>
<text text-anchor="start" x="176.5" y="-221.5" font-family="Helvetica,sans-Serif" font-size="10.00">net::config::stream</text>
<text text-anchor="start" x="176.5" y="-210.5" font-family="Helvetica,sans-Serif" font-size="10.00">::ConfigSocketClient</text>
<text text-anchor="middle" x="222" y="-199.5" font-family="Helvetica,sans-Serif" font-size="10.00">::ConfigSocketClient</text>
</a>
</g>
</g>
<!-- Node1&#45;&gt;Node2 -->
<g id="edge1_Node000001_Node000002" class="edge">
<title>Node1&#45;&gt;Node2</title>
<g id="a_edge1_Node000001_Node000002"><a xlink:title=" ">
<path fill="none" stroke="#63b8ff" d="M79.93,-131.5C97.72,-147.04 123.72,-168.16 149,-183 152.23,-184.89 155.59,-186.73 159.04,-188.49"/>
<polygon fill="#63b8ff" stroke="#63b8ff" points="157.75,-191.76 168.27,-193 160.82,-185.47 157.75,-191.76"/>
</a>
</g>
</g>
<!-- Node3 -->
<g id="Node000003" class="node">
<title>Node3</title>
<g id="a_Node000003"><a xlink:href="classnet_1_1in_1_1config_1_1ConfigAddress.html#ac46b1794c4e5d7800018a7d1e3ffa7c3" target="_top" xlink:title=" ">
<polygon fill="white" stroke="#666666" points="295,-174 149,-174 149,-144 295,-144 295,-174"/>
<text text-anchor="start" x="157" y="-162" font-family="Helvetica,sans-Serif" font-size="10.00">net::in::config::ConfigAddress</text>
<text text-anchor="middle" x="222" y="-151" font-family="Helvetica,sans-Serif" font-size="10.00">::setAiProtocol</text>
</a>
</g>
</g>
<!-- Node1&#45;&gt;Node3 -->
<g id="edge2_Node000001_Node000003" class="edge">
<title>Node1&#45;&gt;Node3</title>
<g id="a_edge2_Node000001_Node000003"><a xlink:title=" ">
<path fill="none" stroke="#63b8ff" d="M113.31,-127.38C128.34,-131.8 144.67,-136.59 159.96,-141.08"/>
<polygon fill="#63b8ff" stroke="#63b8ff" points="159.26,-144.52 169.84,-143.98 161.23,-137.8 159.26,-144.52"/>
</a>
</g>
</g>
<!-- Node4 -->
<g id="Node000004" class="node">
<title>Node4</title>
<g id="a_Node000004"><a xlink:href="classnet_1_1in_1_1config_1_1ConfigAddress.html#a648ff0dad7189018a6e0a071e9330641" target="_top" xlink:title=" ">
<polygon fill="white" stroke="#666666" points="295,-126 149,-126 149,-96 295,-96 295,-126"/>
<text text-anchor="start" x="157" y="-114" font-family="Helvetica,sans-Serif" font-size="10.00">net::in::config::ConfigAddress</text>
<text text-anchor="middle" x="222" y="-103" font-family="Helvetica,sans-Serif" font-size="10.00">::setAiSockType</text>
</a>
</g>
</g>
<!-- Node1&#45;&gt;Node4 -->
<g id="edge3_Node000001_Node000004" class="edge">
<title>Node1&#45;&gt;Node4</title>
<g id="a_edge3_Node000001_Node000004"><a xlink:title=" ">
<path fill="none" stroke="#63b8ff" d="M113.31,-111C121.56,-111 130.19,-111 138.84,-111"/>
<polygon fill="#63b8ff" stroke="#63b8ff" points="138.96,-114.5 148.96,-111 138.96,-107.5 138.96,-114.5"/>
</a>
</g>
</g>
<!-- Node5 -->
<g id="Node000005" class="node">
<title>Node5</title>
<g id="a_Node000005"><a xlink:href="classnet_1_1in_1_1config_1_1ConfigAddress.html#acebb2ffd8400574f279e701977b08437" target="_top" xlink:title=" ">
<polygon fill="white" stroke="#666666" points="295,-78 149,-78 149,-48 295,-48 295,-78"/>
<text text-anchor="start" x="157" y="-66" font-family="Helvetica,sans-Serif" font-size="10.00">net::in::config::ConfigAddress</text>
<text text-anchor="middle" x="222" y="-55" font-family="Helvetica,sans-Serif" font-size="10.00">::setHostRequired</text>
</a>
</g>
</g>
<!-- Node1&#45;&gt;Node5 -->
<g id="edge4_Node000001_Node000005" class="edge">
<title>Node1&#45;&gt;Node5</title>
<g id="a_edge4_Node000001_Node000005"><a xlink:title=" ">
<path fill="none" stroke="#63b8ff" d="M113.31,-94.62C128.34,-90.2 144.67,-85.41 159.96,-80.92"/>
<polygon fill="#63b8ff" stroke="#63b8ff" points="161.23,-84.2 169.84,-78.02 159.26,-77.48 161.23,-84.2"/>
</a>
</g>
</g>
<!-- Node6 -->
<g id="Node000006" class="node">
<title>Node6</title>
<g id="a_Node000006"><a xlink:href="classnet_1_1in_1_1config_1_1ConfigAddress.html#a99222250f2876e4ebbf363495db05ad3" target="_top" xlink:title=" ">
<polygon fill="white" stroke="#666666" points="295,-30 149,-30 149,0 295,0 295,-30"/>
<text text-anchor="start" x="157" y="-18" font-family="Helvetica,sans-Serif" font-size="10.00">net::in::config::ConfigAddress</text>
<text text-anchor="middle" x="222" y="-7" font-family="Helvetica,sans-Serif" font-size="10.00">::setPortRequired</text>
</a>
</g>
</g>
<!-- Node1&#45;&gt;Node6 -->
<g id="edge5_Node000001_Node000006" class="edge">
<title>Node1&#45;&gt;Node6</title>
<g id="a_edge5_Node000001_Node000006"><a xlink:title=" ">
<path fill="none" stroke="#63b8ff" d="M79.27,-90.3C96.91,-74.45 123.02,-53 149,-39 152.27,-37.24 155.68,-35.58 159.18,-34.01"/>
<polygon fill="#63b8ff" stroke="#63b8ff" points="160.7,-37.17 168.58,-30.09 158,-30.71 160.7,-37.17"/>
</a>
</g>
</g>
</g>
</svg>
