<?xml version="1.0" encoding="UTF-8" standalone="no"?>
<!DOCTYPE svg PUBLIC "-//W3C//DTD SVG 1.1//EN"
 "http://www.w3.org/Graphics/SVG/1.1/DTD/svg11.dtd">
<!-- Generated by graphviz version 2.42.4 (0)
 -->
<!-- Title: App::_valid_subcommand Pages: 1 -->
<svg width="280pt" height="45pt"
 viewBox="0.00 0.00 280.00 45.00" xmlns="http://www.w3.org/2000/svg" xmlns:xlink="http://www.w3.org/1999/xlink">
<g id="graph0" class="graph" transform="scale(1 1) rotate(0) translate(4 41)">
<title>App::_valid_subcommand</title>
<!-- Node1 -->
<g id="Node000001" class="node">
<title>Node1</title>
<g id="a_Node000001"><a xlink:title="Check to see if a subcommand is valid. Give up immediately if subcommand max has been reached.">
<polygon fill="#999999" stroke="#666666" points="272,-19 130,-19 130,0 272,0 272,-19"/>
<text text-anchor="middle" x="201" y="-7" font-family="Helvetica,sans-Serif" font-size="10.00">App::_valid_subcommand</text>
</a>
</g>
</g>
<!-- Node1&#45;&gt;Node1 -->
<g id="edge2_Node000001_Node000001" class="edge">
<title>Node1&#45;&gt;Node1</title>
<g id="a_edge2_Node000001_Node000001"><a xlink:title=" ">
<path fill="none" stroke="#63b8ff" d="M229.75,-27.82C228.54,-33.01 218.96,-37 201,-37 173.63,-37 165.72,-27.73 177.26,-19.08"/>
<polygon fill="#63b8ff" stroke="#63b8ff" points="232.75,-26.02 224.74,-19.08 226.67,-29.5 232.75,-26.02"/>
</a>
</g>
</g>
<!-- Node2 -->
<g id="Node000002" class="node">
<title>Node2</title>
<g id="a_Node000002"><a xlink:href="classApp.html#a53c8d643eb7886cf8ec09e07f954d875" target="_top" xlink:title="Selects a Classifier enum based on the type of the current argument.">
<polygon fill="white" stroke="#666666" points="94,-19 0,-19 0,0 94,0 94,-19"/>
<text text-anchor="middle" x="47" y="-7" font-family="Helvetica,sans-Serif" font-size="10.00">App::_recognize</text>
</a>
</g>
</g>
<!-- Node1&#45;&gt;Node2 -->
<g id="edge1_Node000001_Node000002" class="edge">
<title>Node1&#45;&gt;Node2</title>
<g id="a_edge1_Node000001_Node000002"><a xlink:title=" ">
<path fill="none" stroke="#63b8ff" d="M119.53,-9.5C110.8,-9.5 102.14,-9.5 94.03,-9.5"/>
<polygon fill="#63b8ff" stroke="#63b8ff" points="119.78,-13 129.78,-9.5 119.78,-6 119.78,-13"/>
</a>
</g>
</g>
</g>
</svg>
