<?xml version="1.0" encoding="UTF-8" standalone="no"?>
<!DOCTYPE svg PUBLIC "-//W3C//DTD SVG 1.1//EN"
 "http://www.w3.org/Graphics/SVG/1.1/DTD/svg11.dtd">
<!-- Generated by graphviz version 2.42.4 (0)
 -->
<!-- Title: web::http::ContentDecoder::getContent Pages: 1 -->
<svg width="795pt" height="134pt"
 viewBox="0.00 0.00 795.00 134.00" xmlns="http://www.w3.org/2000/svg" xmlns:xlink="http://www.w3.org/1999/xlink">
<g id="graph0" class="graph" transform="scale(1 1) rotate(0) translate(4 130)">
<title>web::http::ContentDecoder::getContent</title>
<!-- Node1 -->
<g id="Node000001" class="node">
<title>Node1</title>
<g id="a_Node000001"><a xlink:title=" ">
<polygon fill="#999999" stroke="#666666" points="787,-102 640,-102 640,-72 787,-72 787,-102"/>
<text text-anchor="start" x="648" y="-90" font-family="Helvetica,sans-Serif" font-size="10.00">web::http::ContentDecoder</text>
<text text-anchor="middle" x="713.5" y="-79" font-family="Helvetica,sans-Serif" font-size="10.00">::getContent</text>
</a>
</g>
</g>
<!-- Node2 -->
<g id="Node000002" class="node">
<title>Node2</title>
<g id="a_Node000002"><a xlink:href="classweb_1_1http_1_1client_1_1ResponseParser.html#aa01855c470e1c7ffdee1cb53e84dcd12" target="_top" xlink:title=" ">
<polygon fill="white" stroke="#666666" points="604,-126 440,-126 440,-96 604,-96 604,-126"/>
<text text-anchor="start" x="448" y="-114" font-family="Helvetica,sans-Serif" font-size="10.00">web::http::client::</text>
<text text-anchor="middle" x="522" y="-103" font-family="Helvetica,sans-Serif" font-size="10.00">ResponseParser::getResponse</text>
</a>
</g>
</g>
<!-- Node1&#45;&gt;Node2 -->
<g id="edge1_Node000001_Node000002" class="edge">
<title>Node1&#45;&gt;Node2</title>
<g id="a_edge1_Node000001_Node000002"><a xlink:title=" ">
<path fill="none" stroke="#63b8ff" d="M629.82,-97.47C621.27,-98.55 612.58,-99.65 604.05,-100.73"/>
<polygon fill="#63b8ff" stroke="#63b8ff" points="630.3,-100.94 639.78,-96.21 629.42,-93.99 630.3,-100.94"/>
</a>
</g>
</g>
<!-- Node4 -->
<g id="Node000004" class="node">
<title>Node4</title>
<g id="a_Node000004"><a xlink:href="classweb_1_1http_1_1Parser.html#a9b4196485cb33fd5dc8caa8e7c3bc568" target="_top" xlink:title=" ">
<polygon fill="white" stroke="#666666" points="574.5,-78 469.5,-78 469.5,-48 574.5,-48 574.5,-78"/>
<text text-anchor="start" x="477.5" y="-66" font-family="Helvetica,sans-Serif" font-size="10.00">web::http::Parser::</text>
<text text-anchor="middle" x="522" y="-55" font-family="Helvetica,sans-Serif" font-size="10.00">readContent</text>
</a>
</g>
</g>
<!-- Node1&#45;&gt;Node4 -->
<g id="edge3_Node000001_Node000004" class="edge">
<title>Node1&#45;&gt;Node4</title>
<g id="a_edge3_Node000001_Node000004"><a xlink:title=" ">
<path fill="none" stroke="#63b8ff" d="M629.76,-76.52C611.03,-74.15 591.67,-71.7 574.66,-69.54"/>
<polygon fill="#63b8ff" stroke="#63b8ff" points="629.42,-80.01 639.78,-77.79 630.3,-73.06 629.42,-80.01"/>
</a>
</g>
</g>
<!-- Node3 -->
<g id="Node000003" class="node">
<title>Node3</title>
<g id="a_Node000003"><a xlink:href="classweb_1_1http_1_1client_1_1SocketContext.html#a3ae7028195097c8a39e6f94633a5e26c" target="_top" xlink:title=" ">
<polygon fill="white" stroke="#666666" points="404,-126 233,-126 233,-96 404,-96 404,-126"/>
<text text-anchor="start" x="241" y="-114" font-family="Helvetica,sans-Serif" font-size="10.00">web::http::client::</text>
<text text-anchor="middle" x="318.5" y="-103" font-family="Helvetica,sans-Serif" font-size="10.00">SocketContext::onDisconnected</text>
</a>
</g>
</g>
<!-- Node2&#45;&gt;Node3 -->
<g id="edge2_Node000002_Node000003" class="edge">
<title>Node2&#45;&gt;Node3</title>
<g id="a_edge2_Node000002_Node000003"><a xlink:title=" ">
<path fill="none" stroke="#63b8ff" d="M429.87,-111C421.27,-111 412.58,-111 404.04,-111"/>
<polygon fill="#63b8ff" stroke="#63b8ff" points="429.91,-114.5 439.91,-111 429.91,-107.5 429.91,-114.5"/>
</a>
</g>
</g>
<!-- Node5 -->
<g id="Node000005" class="node">
<title>Node5</title>
<g id="a_Node000005"><a xlink:href="classweb_1_1http_1_1Parser.html#a1291dd16e6eba36cd6f35448dba4b3d5" target="_top" xlink:title=" ">
<polygon fill="white" stroke="#666666" points="371,-78 266,-78 266,-48 371,-48 371,-78"/>
<text text-anchor="start" x="274" y="-66" font-family="Helvetica,sans-Serif" font-size="10.00">web::http::Parser::</text>
<text text-anchor="middle" x="318.5" y="-55" font-family="Helvetica,sans-Serif" font-size="10.00">parse</text>
</a>
</g>
</g>
<!-- Node4&#45;&gt;Node5 -->
<g id="edge4_Node000004_Node000005" class="edge">
<title>Node4&#45;&gt;Node5</title>
<g id="a_edge4_Node000004_Node000005"><a xlink:title=" ">
<path fill="none" stroke="#63b8ff" d="M459.24,-63C431.11,-63 398.17,-63 371.35,-63"/>
<polygon fill="#63b8ff" stroke="#63b8ff" points="459.37,-66.5 469.37,-63 459.37,-59.5 459.37,-66.5"/>
</a>
</g>
</g>
<!-- Node6 -->
<g id="Node000006" class="node">
<title>Node6</title>
<g id="a_Node000006"><a xlink:href="classapps_1_1http_1_1SimpleSocketProtocol.html#afd3ecdfb4d988ac77198f7db44e2200c" target="_top" xlink:title=" ">
<polygon fill="white" stroke="#666666" points="181.5,-126 15.5,-126 15.5,-96 181.5,-96 181.5,-126"/>
<text text-anchor="start" x="23.5" y="-114" font-family="Helvetica,sans-Serif" font-size="10.00">apps::http::SimpleSocket</text>
<text text-anchor="middle" x="98.5" y="-103" font-family="Helvetica,sans-Serif" font-size="10.00">Protocol::onReceivedFromPeer</text>
</a>
</g>
</g>
<!-- Node5&#45;&gt;Node6 -->
<g id="edge5_Node000005_Node000006" class="edge">
<title>Node5&#45;&gt;Node6</title>
<g id="a_edge5_Node000005_Node000006"><a xlink:title=" ">
<path fill="none" stroke="#63b8ff" d="M255.95,-76.55C228.45,-82.61 195.95,-89.76 167.71,-95.98"/>
<polygon fill="#63b8ff" stroke="#63b8ff" points="256.82,-79.94 265.84,-74.38 255.32,-73.11 256.82,-79.94"/>
</a>
</g>
</g>
<!-- Node7 -->
<g id="Node000007" class="node">
<title>Node7</title>
<g id="a_Node000007"><a xlink:href="classweb_1_1http_1_1client_1_1SocketContext.html#a5ac9705bda485573e7af3228fefc8d2c" target="_top" xlink:title=" ">
<polygon fill="white" stroke="#666666" points="197,-78 0,-78 0,-48 197,-48 197,-78"/>
<text text-anchor="start" x="8" y="-66" font-family="Helvetica,sans-Serif" font-size="10.00">web::http::client::</text>
<text text-anchor="middle" x="98.5" y="-55" font-family="Helvetica,sans-Serif" font-size="10.00">SocketContext::onReceivedFromPeer</text>
</a>
</g>
</g>
<!-- Node5&#45;&gt;Node7 -->
<g id="edge6_Node000005_Node000007" class="edge">
<title>Node5&#45;&gt;Node7</title>
<g id="a_edge6_Node000005_Node000007"><a xlink:title=" ">
<path fill="none" stroke="#63b8ff" d="M255.7,-63C237.54,-63 217.22,-63 197.39,-63"/>
<polygon fill="#63b8ff" stroke="#63b8ff" points="255.84,-66.5 265.84,-63 255.84,-59.5 255.84,-66.5"/>
</a>
</g>
</g>
<!-- Node8 -->
<g id="Node000008" class="node">
<title>Node8</title>
<g id="a_Node000008"><a xlink:href="classweb_1_1http_1_1server_1_1SocketContext.html#a939435de5ba9e7ac686efd2de1844741" target="_top" xlink:title=" ">
<polygon fill="white" stroke="#666666" points="197,-30 0,-30 0,0 197,0 197,-30"/>
<text text-anchor="start" x="8" y="-18" font-family="Helvetica,sans-Serif" font-size="10.00">web::http::server::</text>
<text text-anchor="middle" x="98.5" y="-7" font-family="Helvetica,sans-Serif" font-size="10.00">SocketContext::onReceivedFromPeer</text>
</a>
</g>
</g>
<!-- Node5&#45;&gt;Node8 -->
<g id="edge7_Node000005_Node000008" class="edge">
<title>Node5&#45;&gt;Node8</title>
<g id="a_edge7_Node000005_Node000008"><a xlink:title=" ">
<path fill="none" stroke="#63b8ff" d="M255.95,-49.45C228.45,-43.39 195.95,-36.24 167.71,-30.02"/>
<polygon fill="#63b8ff" stroke="#63b8ff" points="255.32,-52.89 265.84,-51.62 256.82,-46.06 255.32,-52.89"/>
</a>
</g>
</g>
</g>
</svg>
