<?xml version="1.0" encoding="UTF-8" standalone="no"?>
<!DOCTYPE svg PUBLIC "-//W3C//DTD SVG 1.1//EN"
 "http://www.w3.org/Graphics/SVG/1.1/DTD/svg11.dtd">
<!-- Generated by graphviz version 14.1.1 (0)
 -->
<!-- Title: core::socket::SocketAddress::BadSocketAddress Pages: 1 -->
<svg width="152pt" height="155pt"
 viewBox="0.00 0.00 152.00 155.00" xmlns="http://www.w3.org/2000/svg" xmlns:xlink="http://www.w3.org/1999/xlink">
<g id="graph0" class="graph" transform="scale(1 1) rotate(0) translate(4 151)">
<title>core::socket::SocketAddress::BadSocketAddress</title>
<!-- Node1 -->
<g id="Node000001" class="node">
<title>Node1</title>
<g id="a_Node000001"><a xlink:title=" ">
<polygon fill="#999999" stroke="none" points="143.75,-33.5 0,-33.5 0,0 143.75,0 143.75,-33.5"/>
<text xml:space="preserve" text-anchor="start" x="4" y="-20" font-family="Helvetica,sans-Serif" font-size="10.00">core::socket::SocketAddress</text>
<text xml:space="preserve" text-anchor="start" x="23.88" y="-7.25" font-family="Helvetica,sans-Serif" font-size="10.00">::BadSocketAddress</text>
<polygon fill="none" stroke="#666666" points="0,0 0,-33.5 143.75,-33.5 143.75,0 0,0"/>
</a>
</g>
</g>
<!-- Node2 -->
<g id="Node000002" class="node">
<title>Node2</title>
<g id="a_Node000002"><a xlink:title=" ">
<polygon fill="white" stroke="none" points="119.75,-90.25 24,-90.25 24,-69.5 119.75,-69.5 119.75,-90.25"/>
<text xml:space="preserve" text-anchor="start" x="28" y="-76.75" font-family="Helvetica,sans-Serif" font-size="10.00">std::runtime_error</text>
<polygon fill="none" stroke="#666666" points="24,-69.5 24,-90.25 119.75,-90.25 119.75,-69.5 24,-69.5"/>
</a>
</g>
</g>
<!-- Node2&#45;&gt;Node1 -->
<g id="edge1_Node000001_Node000002" class="edge">
<title>Node2&#45;&gt;Node1</title>
<g id="a_edge1_Node000001_Node000002"><a xlink:title=" ">
<path fill="none" stroke="#63b8ff" d="M71.88,-58.36C71.88,-50.18 71.88,-40.92 71.88,-33.31"/>
<polygon fill="none" stroke="#63b8ff" points="68.38,-58.08 71.88,-68.08 75.38,-58.08 68.38,-58.08"/>
</a>
</g>
</g>
<!-- Node3 -->
<g id="Node000003" class="node">
<title>Node3</title>
<g id="a_Node000003"><a xlink:title=" ">
<polygon fill="white" stroke="none" points="110.38,-147 33.38,-147 33.38,-126.25 110.38,-126.25 110.38,-147"/>
<text xml:space="preserve" text-anchor="start" x="37.38" y="-133.5" font-family="Helvetica,sans-Serif" font-size="10.00">std::exception</text>
<polygon fill="none" stroke="#666666" points="33.38,-126.25 33.38,-147 110.38,-147 110.38,-126.25 33.38,-126.25"/>
</a>
</g>
</g>
<!-- Node3&#45;&gt;Node2 -->
<g id="edge2_Node000002_Node000003" class="edge">
<title>Node3&#45;&gt;Node2</title>
<g id="a_edge2_Node000002_Node000003"><a xlink:title=" ">
<path fill="none" stroke="#63b8ff" d="M71.88,-115.11C71.88,-106.51 71.88,-96.94 71.88,-90.11"/>
<polygon fill="none" stroke="#63b8ff" points="68.38,-115.07 71.88,-125.07 75.38,-115.07 68.38,-115.07"/>
</a>
</g>
</g>
</g>
</svg>
