<?xml version="1.0" encoding="UTF-8" standalone="no"?>
<!DOCTYPE svg PUBLIC "-//W3C//DTD SVG 1.1//EN"
 "http://www.w3.org/Graphics/SVG/1.1/DTD/svg11.dtd">
<!-- Generated by graphviz version 2.43.0 (0)
 -->
<!-- Title: core::DescriptorEventReceiver::getRegisteredFd Pages: 1 -->
<svg width="541pt" height="662pt"
 viewBox="0.00 0.00 541.00 662.00" xmlns="http://www.w3.org/2000/svg" xmlns:xlink="http://www.w3.org/1999/xlink">
<g id="graph0" class="graph" transform="scale(1 1) rotate(0) translate(4 658)">
<title>core::DescriptorEventReceiver::getRegisteredFd</title>
<!-- Node1 -->
<g id="Node000001" class="node">
<title>Node1</title>
<g id="a_Node000001"><a xlink:title=" ">
<polygon fill="#999999" stroke="#666666" points="533,-342 382,-342 382,-312 533,-312 533,-342"/>
<text text-anchor="start" x="390" y="-330" font-family="Helvetica,sans-Serif" font-size="10.00">core::DescriptorEventReceiver</text>
<text text-anchor="middle" x="457.5" y="-319" font-family="Helvetica,sans-Serif" font-size="10.00">::getRegisteredFd</text>
</a>
</g>
</g>
<!-- Node2 -->
<g id="Node000002" class="node">
<title>Node2</title>
<g id="a_Node000002"><a xlink:href="classcore_1_1DescriptorEventPublisher.html#ab1ba62f94b1882616f47a3cc8045b28d" target="_top" xlink:title=" ">
<polygon fill="white" stroke="#666666" points="342.5,-654 190.5,-654 190.5,-624 342.5,-624 342.5,-654"/>
<text text-anchor="start" x="198.5" y="-642" font-family="Helvetica,sans-Serif" font-size="10.00">core::DescriptorEventPublisher</text>
<text text-anchor="middle" x="266.5" y="-631" font-family="Helvetica,sans-Serif" font-size="10.00">::enable</text>
</a>
</g>
</g>
<!-- Node1&#45;&gt;Node2 -->
<g id="edge1_Node000001_Node000002" class="edge">
<title>Node1&#45;&gt;Node2</title>
<g id="a_edge1_Node000001_Node000002"><a xlink:title=" ">
<path fill="none" stroke="#63b8ff" d="M454.16,-352.09C447.64,-407.68 424.21,-542.06 346,-615 342.35,-618.4 338.23,-621.32 333.84,-623.83"/>
<polygon fill="#63b8ff" stroke="#63b8ff" points="457.65,-352.38 455.26,-342.06 450.69,-351.62 457.65,-352.38"/>
</a>
</g>
</g>
<!-- Node4 -->
<g id="Node000004" class="node">
<title>Node4</title>
<g id="a_Node000004"><a xlink:href="classcore_1_1epoll_1_1DescriptorEventPublisher_1_1EPollEvents.html#a6fcbf91fcf33ad26c2df6ee22f1f91d8" target="_top" xlink:title=" ">
<polygon fill="white" stroke="#666666" points="346,-606 187,-606 187,-576 346,-576 346,-606"/>
<text text-anchor="start" x="195" y="-594" font-family="Helvetica,sans-Serif" font-size="10.00">core::epoll::DescriptorEvent</text>
<text text-anchor="middle" x="266.5" y="-583" font-family="Helvetica,sans-Serif" font-size="10.00">Publisher::EPollEvents::muxAdd</text>
</a>
</g>
</g>
<!-- Node1&#45;&gt;Node4 -->
<g id="edge3_Node000001_Node000004" class="edge">
<title>Node1&#45;&gt;Node4</title>
<g id="a_edge3_Node000001_Node000004"><a xlink:title=" ">
<path fill="none" stroke="#63b8ff" d="M451.96,-352.23C441.87,-400.99 412.96,-508.5 346,-567 342.03,-570.47 337.57,-573.44 332.84,-575.98"/>
<polygon fill="#63b8ff" stroke="#63b8ff" points="455.44,-352.71 453.94,-342.22 448.57,-351.36 455.44,-352.71"/>
</a>
</g>
</g>
<!-- Node6 -->
<g id="Node000006" class="node">
<title>Node6</title>
<g id="a_Node000006"><a xlink:href="classcore_1_1select_1_1DescriptorEventPublisher.html#a5100eb5545a45223273568d9c67d9db5" target="_top" xlink:title=" ">
<polygon fill="white" stroke="#666666" points="329,-558 204,-558 204,-528 329,-528 329,-558"/>
<text text-anchor="start" x="212" y="-546" font-family="Helvetica,sans-Serif" font-size="10.00">core::select::Descriptor</text>
<text text-anchor="middle" x="266.5" y="-535" font-family="Helvetica,sans-Serif" font-size="10.00">EventPublisher::muxAdd</text>
</a>
</g>
</g>
<!-- Node1&#45;&gt;Node6 -->
<g id="edge5_Node000001_Node000006" class="edge">
<title>Node1&#45;&gt;Node6</title>
<g id="a_edge5_Node000001_Node000006"><a xlink:title=" ">
<path fill="none" stroke="#63b8ff" d="M448.95,-351.73C435.2,-392.62 402.18,-474.25 346,-519 340.98,-523 335.31,-526.33 329.35,-529.11"/>
<polygon fill="#63b8ff" stroke="#63b8ff" points="452.34,-352.62 452.1,-342.03 445.68,-350.45 452.34,-352.62"/>
</a>
</g>
</g>
<!-- Node7 -->
<g id="Node000007" class="node">
<title>Node7</title>
<g id="a_Node000007"><a xlink:href="classcore_1_1poll_1_1PollFdsManager.html#a339d400a54cd3b5f8eeec8384003ecc6" target="_top" xlink:title=" ">
<polygon fill="white" stroke="#666666" points="333,-510 200,-510 200,-480 333,-480 333,-510"/>
<text text-anchor="start" x="208" y="-498" font-family="Helvetica,sans-Serif" font-size="10.00">core::poll::PollFdsManager</text>
<text text-anchor="middle" x="266.5" y="-487" font-family="Helvetica,sans-Serif" font-size="10.00">::muxAdd</text>
</a>
</g>
</g>
<!-- Node1&#45;&gt;Node7 -->
<g id="edge6_Node000001_Node000007" class="edge">
<title>Node1&#45;&gt;Node7</title>
<g id="a_edge6_Node000001_Node000007"><a xlink:title=" ">
<path fill="none" stroke="#63b8ff" d="M444.17,-351.24C426.64,-383.3 391.52,-439.42 346,-471 341.08,-474.41 335.66,-477.35 330.04,-479.88"/>
<polygon fill="#63b8ff" stroke="#63b8ff" points="447.41,-352.59 449.03,-342.12 441.24,-349.29 447.41,-352.59"/>
</a>
</g>
</g>
<!-- Node9 -->
<g id="Node000009" class="node">
<title>Node9</title>
<g id="a_Node000009"><a xlink:href="classcore_1_1epoll_1_1DescriptorEventPublisher_1_1EPollEvents.html#aed2ceb41400871239965801463b54c30" target="_top" xlink:title=" ">
<polygon fill="white" stroke="#666666" points="344,-462 189,-462 189,-432 344,-432 344,-462"/>
<text text-anchor="start" x="197" y="-450" font-family="Helvetica,sans-Serif" font-size="10.00">core::epoll::DescriptorEvent</text>
<text text-anchor="middle" x="266.5" y="-439" font-family="Helvetica,sans-Serif" font-size="10.00">Publisher::EPollEvents::muxOff</text>
</a>
</g>
</g>
<!-- Node1&#45;&gt;Node9 -->
<g id="edge8_Node000001_Node000009" class="edge">
<title>Node1&#45;&gt;Node9</title>
<g id="a_edge8_Node000001_Node000009"><a xlink:title=" ">
<path fill="none" stroke="#63b8ff" d="M435.97,-349.66C415.21,-371.32 381.24,-403.47 346,-423 339.89,-426.38 333.25,-429.35 326.49,-431.94"/>
<polygon fill="#63b8ff" stroke="#63b8ff" points="438.69,-351.88 443,-342.2 433.59,-347.08 438.69,-351.88"/>
</a>
</g>
</g>
<!-- Node11 -->
<g id="Node000011" class="node">
<title>Node11</title>
<g id="a_Node000011"><a xlink:href="classcore_1_1select_1_1DescriptorEventPublisher.html#a89a04f6dd752dd51aef968a558a2b5e8" target="_top" xlink:title=" ">
<polygon fill="white" stroke="#666666" points="327,-414 206,-414 206,-384 327,-384 327,-414"/>
<text text-anchor="start" x="214" y="-402" font-family="Helvetica,sans-Serif" font-size="10.00">core::select::Descriptor</text>
<text text-anchor="middle" x="266.5" y="-391" font-family="Helvetica,sans-Serif" font-size="10.00">EventPublisher::muxOff</text>
</a>
</g>
</g>
<!-- Node1&#45;&gt;Node11 -->
<g id="edge10_Node000001_Node000011" class="edge">
<title>Node1&#45;&gt;Node11</title>
<g id="a_edge10_Node000001_Node000011"><a xlink:title=" ">
<path fill="none" stroke="#63b8ff" d="M415.12,-346.3C394.56,-355.55 369.21,-366.44 346,-375 337.58,-378.11 328.54,-381.14 319.71,-383.94"/>
<polygon fill="#63b8ff" stroke="#63b8ff" points="416.83,-349.36 424.5,-342.05 413.94,-342.99 416.83,-349.36"/>
</a>
</g>
</g>
<!-- Node12 -->
<g id="Node000012" class="node">
<title>Node12</title>
<g id="a_Node000012"><a xlink:href="classcore_1_1poll_1_1PollFdsManager.html#ae413e3fb50460431a1d90805eb88705f" target="_top" xlink:title=" ">
<polygon fill="white" stroke="#666666" points="333,-366 200,-366 200,-336 333,-336 333,-366"/>
<text text-anchor="start" x="208" y="-354" font-family="Helvetica,sans-Serif" font-size="10.00">core::poll::PollFdsManager</text>
<text text-anchor="middle" x="266.5" y="-343" font-family="Helvetica,sans-Serif" font-size="10.00">::muxOff</text>
</a>
</g>
</g>
<!-- Node1&#45;&gt;Node12 -->
<g id="edge11_Node000001_Node000012" class="edge">
<title>Node1&#45;&gt;Node12</title>
<g id="a_edge11_Node000001_Node000012"><a xlink:title=" ">
<path fill="none" stroke="#63b8ff" d="M371.53,-337.79C358.63,-339.43 345.49,-341.1 333.09,-342.67"/>
<polygon fill="#63b8ff" stroke="#63b8ff" points="372.32,-341.22 381.8,-336.49 371.44,-334.27 372.32,-341.22"/>
</a>
</g>
</g>
<!-- Node14 -->
<g id="Node000014" class="node">
<title>Node14</title>
<g id="a_Node000014"><a xlink:href="classcore_1_1epoll_1_1DescriptorEventPublisher_1_1EPollEvents.html#aef056d0392e02c55350d8783e213632a" target="_top" xlink:title=" ">
<polygon fill="white" stroke="#666666" points="344,-318 189,-318 189,-288 344,-288 344,-318"/>
<text text-anchor="start" x="197" y="-306" font-family="Helvetica,sans-Serif" font-size="10.00">core::epoll::DescriptorEvent</text>
<text text-anchor="middle" x="266.5" y="-295" font-family="Helvetica,sans-Serif" font-size="10.00">Publisher::EPollEvents::muxOn</text>
</a>
</g>
</g>
<!-- Node1&#45;&gt;Node14 -->
<g id="edge13_Node000001_Node000014" class="edge">
<title>Node1&#45;&gt;Node14</title>
<g id="a_edge13_Node000001_Node000014"><a xlink:title=" ">
<path fill="none" stroke="#63b8ff" d="M371.85,-316.25C362.62,-315.08 353.26,-313.89 344.14,-312.73"/>
<polygon fill="#63b8ff" stroke="#63b8ff" points="371.44,-319.73 381.8,-317.51 372.32,-312.78 371.44,-319.73"/>
</a>
</g>
</g>
<!-- Node16 -->
<g id="Node000016" class="node">
<title>Node16</title>
<g id="a_Node000016"><a xlink:href="classcore_1_1select_1_1DescriptorEventPublisher.html#a2e05969de6555245b0bde2e4845c5801" target="_top" xlink:title=" ">
<polygon fill="white" stroke="#666666" points="326.5,-270 206.5,-270 206.5,-240 326.5,-240 326.5,-270"/>
<text text-anchor="start" x="214.5" y="-258" font-family="Helvetica,sans-Serif" font-size="10.00">core::select::Descriptor</text>
<text text-anchor="middle" x="266.5" y="-247" font-family="Helvetica,sans-Serif" font-size="10.00">EventPublisher::muxOn</text>
</a>
</g>
</g>
<!-- Node1&#45;&gt;Node16 -->
<g id="edge15_Node000001_Node000016" class="edge">
<title>Node1&#45;&gt;Node16</title>
<g id="a_edge15_Node000001_Node000016"><a xlink:title=" ">
<path fill="none" stroke="#63b8ff" d="M415.12,-307.7C394.56,-298.45 369.21,-287.56 346,-279 337.58,-275.89 328.54,-272.86 319.71,-270.06"/>
<polygon fill="#63b8ff" stroke="#63b8ff" points="413.94,-311.01 424.5,-311.95 416.83,-304.64 413.94,-311.01"/>
</a>
</g>
</g>
<!-- Node17 -->
<g id="Node000017" class="node">
<title>Node17</title>
<g id="a_Node000017"><a xlink:href="classcore_1_1poll_1_1PollFdsManager.html#ab67d5775a12e241e7a56cd7edd400ff0" target="_top" xlink:title=" ">
<polygon fill="white" stroke="#666666" points="333,-222 200,-222 200,-192 333,-192 333,-222"/>
<text text-anchor="start" x="208" y="-210" font-family="Helvetica,sans-Serif" font-size="10.00">core::poll::PollFdsManager</text>
<text text-anchor="middle" x="266.5" y="-199" font-family="Helvetica,sans-Serif" font-size="10.00">::muxOn</text>
</a>
</g>
</g>
<!-- Node1&#45;&gt;Node17 -->
<g id="edge16_Node000001_Node000017" class="edge">
<title>Node1&#45;&gt;Node17</title>
<g id="a_edge16_Node000001_Node000017"><a xlink:title=" ">
<path fill="none" stroke="#63b8ff" d="M435.97,-304.34C415.21,-282.68 381.24,-250.53 346,-231 339.89,-227.62 333.25,-224.65 326.49,-222.06"/>
<polygon fill="#63b8ff" stroke="#63b8ff" points="433.59,-306.92 443,-311.8 438.69,-302.12 433.59,-306.92"/>
</a>
</g>
</g>
<!-- Node19 -->
<g id="Node000019" class="node">
<title>Node19</title>
<g id="a_Node000019"><a xlink:href="classcore_1_1pipe_1_1PipeSink.html#a2e57f7ff6c59add569e94b6760c0dac2" target="_top" xlink:title=" ">
<polygon fill="white" stroke="#666666" points="318.5,-174 214.5,-174 214.5,-144 318.5,-144 318.5,-174"/>
<text text-anchor="start" x="222.5" y="-162" font-family="Helvetica,sans-Serif" font-size="10.00">core::pipe::PipeSink</text>
<text text-anchor="middle" x="266.5" y="-151" font-family="Helvetica,sans-Serif" font-size="10.00">::readEvent</text>
</a>
</g>
</g>
<!-- Node1&#45;&gt;Node19 -->
<g id="edge18_Node000001_Node000019" class="edge">
<title>Node1&#45;&gt;Node19</title>
<g id="a_edge18_Node000001_Node000019"><a xlink:title=" ">
<path fill="none" stroke="#63b8ff" d="M444.17,-302.76C426.64,-270.7 391.52,-214.58 346,-183 337.8,-177.31 328.22,-172.94 318.62,-169.59"/>
<polygon fill="#63b8ff" stroke="#63b8ff" points="441.24,-304.71 449.03,-311.88 447.41,-301.41 441.24,-304.71"/>
</a>
</g>
</g>
<!-- Node20 -->
<g id="Node000020" class="node">
<title>Node20</title>
<g id="a_Node000020"><a xlink:href="classcore_1_1pipe_1_1PipeSource.html#a7021ffb2c18daac613670c870fc43124" target="_top" xlink:title=" ">
<polygon fill="white" stroke="#666666" points="324.5,-126 208.5,-126 208.5,-96 324.5,-96 324.5,-126"/>
<text text-anchor="start" x="216.5" y="-114" font-family="Helvetica,sans-Serif" font-size="10.00">core::pipe::PipeSource</text>
<text text-anchor="middle" x="266.5" y="-103" font-family="Helvetica,sans-Serif" font-size="10.00">::writeEvent</text>
</a>
</g>
</g>
<!-- Node1&#45;&gt;Node20 -->
<g id="edge19_Node000001_Node000020" class="edge">
<title>Node1&#45;&gt;Node20</title>
<g id="a_edge19_Node000001_Node000020"><a xlink:title=" ">
<path fill="none" stroke="#63b8ff" d="M448.95,-302.27C435.2,-261.38 402.18,-179.75 346,-135 339.65,-129.94 332.23,-125.94 324.54,-122.79"/>
<polygon fill="#63b8ff" stroke="#63b8ff" points="445.68,-303.55 452.1,-311.97 452.34,-301.38 445.68,-303.55"/>
</a>
</g>
</g>
<!-- Node21 -->
<g id="Node000021" class="node">
<title>Node21</title>
<g id="a_Node000021"><a xlink:href="classcore_1_1pipe_1_1PipeSink.html#a2c1fac1885d45bedf52e62b567d4a2eb" target="_top" xlink:title=" ">
<polygon fill="white" stroke="#666666" points="318.5,-78 214.5,-78 214.5,-48 318.5,-48 318.5,-78"/>
<text text-anchor="start" x="222.5" y="-66" font-family="Helvetica,sans-Serif" font-size="10.00">core::pipe::PipeSink</text>
<text text-anchor="middle" x="266.5" y="-55" font-family="Helvetica,sans-Serif" font-size="10.00">::~PipeSink</text>
</a>
</g>
</g>
<!-- Node1&#45;&gt;Node21 -->
<g id="edge20_Node000001_Node000021" class="edge">
<title>Node1&#45;&gt;Node21</title>
<g id="a_edge20_Node000001_Node000021"><a xlink:title=" ">
<path fill="none" stroke="#63b8ff" d="M451.96,-301.77C441.87,-253.01 412.96,-145.5 346,-87 338.27,-80.25 328.68,-75.4 318.89,-71.91"/>
<polygon fill="#63b8ff" stroke="#63b8ff" points="448.57,-302.64 453.94,-311.78 455.44,-301.29 448.57,-302.64"/>
</a>
</g>
</g>
<!-- Node22 -->
<g id="Node000022" class="node">
<title>Node22</title>
<g id="a_Node000022"><a xlink:href="classcore_1_1pipe_1_1PipeSource.html#a3ce6372cca5ef1c1a822507a74246fd0" target="_top" xlink:title=" ">
<polygon fill="white" stroke="#666666" points="324.5,-30 208.5,-30 208.5,0 324.5,0 324.5,-30"/>
<text text-anchor="start" x="216.5" y="-18" font-family="Helvetica,sans-Serif" font-size="10.00">core::pipe::PipeSource</text>
<text text-anchor="middle" x="266.5" y="-7" font-family="Helvetica,sans-Serif" font-size="10.00">::~PipeSource</text>
</a>
</g>
</g>
<!-- Node1&#45;&gt;Node22 -->
<g id="edge21_Node000001_Node000022" class="edge">
<title>Node1&#45;&gt;Node22</title>
<g id="a_edge21_Node000001_Node000022"><a xlink:title=" ">
<path fill="none" stroke="#63b8ff" d="M454.16,-301.91C447.64,-246.32 424.21,-111.94 346,-39 339.96,-33.36 332.62,-29.05 324.89,-25.74"/>
<polygon fill="#63b8ff" stroke="#63b8ff" points="450.69,-302.38 455.26,-311.94 457.65,-301.62 450.69,-302.38"/>
</a>
</g>
</g>
<!-- Node3 -->
<g id="Node000003" class="node">
<title>Node3</title>
<g id="a_Node000003"><a xlink:href="classcore_1_1DescriptorEventReceiver.html#ac8611e3a44e67126e1418844dea4a326" target="_top" xlink:title=" ">
<polygon fill="white" stroke="#666666" points="151,-654 0,-654 0,-624 151,-624 151,-654"/>
<text text-anchor="start" x="8" y="-642" font-family="Helvetica,sans-Serif" font-size="10.00">core::DescriptorEventReceiver</text>
<text text-anchor="middle" x="75.5" y="-631" font-family="Helvetica,sans-Serif" font-size="10.00">::enable</text>
</a>
</g>
</g>
<!-- Node2&#45;&gt;Node3 -->
<g id="edge2_Node000002_Node000003" class="edge">
<title>Node2&#45;&gt;Node3</title>
<g id="a_edge2_Node000002_Node000003"><a xlink:title=" ">
<path fill="none" stroke="#63b8ff" d="M180.22,-639C170.53,-639 160.71,-639 151.17,-639"/>
<polygon fill="#63b8ff" stroke="#63b8ff" points="180.26,-642.5 190.26,-639 180.26,-635.5 180.26,-642.5"/>
</a>
</g>
</g>
<!-- Node5 -->
<g id="Node000005" class="node">
<title>Node5</title>
<g id="a_Node000005"><a xlink:href="classcore_1_1epoll_1_1DescriptorEventPublisher.html#a58efcc42c16d1c98ce6b03b75554c85a" target="_top" xlink:title=" ">
<polygon fill="white" stroke="#666666" points="144.5,-606 6.5,-606 6.5,-576 144.5,-576 144.5,-606"/>
<text text-anchor="start" x="14.5" y="-594" font-family="Helvetica,sans-Serif" font-size="10.00">core::epoll::DescriptorEvent</text>
<text text-anchor="middle" x="75.5" y="-583" font-family="Helvetica,sans-Serif" font-size="10.00">Publisher::muxAdd</text>
</a>
</g>
</g>
<!-- Node4&#45;&gt;Node5 -->
<g id="edge4_Node000004_Node000005" class="edge">
<title>Node4&#45;&gt;Node5</title>
<g id="a_edge4_Node000004_Node000005"><a xlink:title=" ">
<path fill="none" stroke="#63b8ff" d="M176.68,-591C165.87,-591 154.97,-591 144.53,-591"/>
<polygon fill="#63b8ff" stroke="#63b8ff" points="176.99,-594.5 186.99,-591 176.99,-587.5 176.99,-594.5"/>
</a>
</g>
</g>
<!-- Node8 -->
<g id="Node000008" class="node">
<title>Node8</title>
<g id="a_Node000008"><a xlink:href="classcore_1_1poll_1_1DescriptorEventPublisher.html#af2bd18a6a33392f2119a938b198eb07d" target="_top" xlink:title=" ">
<polygon fill="white" stroke="#666666" points="142,-510 9,-510 9,-480 142,-480 142,-510"/>
<text text-anchor="start" x="17" y="-498" font-family="Helvetica,sans-Serif" font-size="10.00">core::poll::DescriptorEvent</text>
<text text-anchor="middle" x="75.5" y="-487" font-family="Helvetica,sans-Serif" font-size="10.00">Publisher::muxAdd</text>
</a>
</g>
</g>
<!-- Node7&#45;&gt;Node8 -->
<g id="edge7_Node000007_Node000008" class="edge">
<title>Node7&#45;&gt;Node8</title>
<g id="a_edge7_Node000007_Node000008"><a xlink:title=" ">
<path fill="none" stroke="#63b8ff" d="M189.73,-495C174.02,-495 157.59,-495 142.28,-495"/>
<polygon fill="#63b8ff" stroke="#63b8ff" points="189.93,-498.5 199.93,-495 189.93,-491.5 189.93,-498.5"/>
</a>
</g>
</g>
<!-- Node10 -->
<g id="Node000010" class="node">
<title>Node10</title>
<g id="a_Node000010"><a xlink:href="classcore_1_1epoll_1_1DescriptorEventPublisher.html#aa38c369f57b92b97529cd4d5078be6a0" target="_top" xlink:title=" ">
<polygon fill="white" stroke="#666666" points="144.5,-462 6.5,-462 6.5,-432 144.5,-432 144.5,-462"/>
<text text-anchor="start" x="14.5" y="-450" font-family="Helvetica,sans-Serif" font-size="10.00">core::epoll::DescriptorEvent</text>
<text text-anchor="middle" x="75.5" y="-439" font-family="Helvetica,sans-Serif" font-size="10.00">Publisher::muxOff</text>
</a>
</g>
</g>
<!-- Node9&#45;&gt;Node10 -->
<g id="edge9_Node000009_Node000010" class="edge">
<title>Node9&#45;&gt;Node10</title>
<g id="a_edge9_Node000009_Node000010"><a xlink:title=" ">
<path fill="none" stroke="#63b8ff" d="M178.88,-447C167.41,-447 155.79,-447 144.69,-447"/>
<polygon fill="#63b8ff" stroke="#63b8ff" points="178.9,-450.5 188.9,-447 178.9,-443.5 178.9,-450.5"/>
</a>
</g>
</g>
<!-- Node13 -->
<g id="Node000013" class="node">
<title>Node13</title>
<g id="a_Node000013"><a xlink:href="classcore_1_1poll_1_1DescriptorEventPublisher.html#a515b7615bbb4aeebd68bdd03cbb5ab95" target="_top" xlink:title=" ">
<polygon fill="white" stroke="#666666" points="142,-366 9,-366 9,-336 142,-336 142,-366"/>
<text text-anchor="start" x="17" y="-354" font-family="Helvetica,sans-Serif" font-size="10.00">core::poll::DescriptorEvent</text>
<text text-anchor="middle" x="75.5" y="-343" font-family="Helvetica,sans-Serif" font-size="10.00">Publisher::muxOff</text>
</a>
</g>
</g>
<!-- Node12&#45;&gt;Node13 -->
<g id="edge12_Node000012_Node000013" class="edge">
<title>Node12&#45;&gt;Node13</title>
<g id="a_edge12_Node000012_Node000013"><a xlink:title=" ">
<path fill="none" stroke="#63b8ff" d="M189.73,-351C174.02,-351 157.59,-351 142.28,-351"/>
<polygon fill="#63b8ff" stroke="#63b8ff" points="189.93,-354.5 199.93,-351 189.93,-347.5 189.93,-354.5"/>
</a>
</g>
</g>
<!-- Node15 -->
<g id="Node000015" class="node">
<title>Node15</title>
<g id="a_Node000015"><a xlink:href="classcore_1_1epoll_1_1DescriptorEventPublisher.html#ae856fff72a30f634a48ea0a8685ba1d1" target="_top" xlink:title=" ">
<polygon fill="white" stroke="#666666" points="144.5,-318 6.5,-318 6.5,-288 144.5,-288 144.5,-318"/>
<text text-anchor="start" x="14.5" y="-306" font-family="Helvetica,sans-Serif" font-size="10.00">core::epoll::DescriptorEvent</text>
<text text-anchor="middle" x="75.5" y="-295" font-family="Helvetica,sans-Serif" font-size="10.00">Publisher::muxOn</text>
</a>
</g>
</g>
<!-- Node14&#45;&gt;Node15 -->
<g id="edge14_Node000014_Node000015" class="edge">
<title>Node14&#45;&gt;Node15</title>
<g id="a_edge14_Node000014_Node000015"><a xlink:title=" ">
<path fill="none" stroke="#63b8ff" d="M178.88,-303C167.41,-303 155.79,-303 144.69,-303"/>
<polygon fill="#63b8ff" stroke="#63b8ff" points="178.9,-306.5 188.9,-303 178.9,-299.5 178.9,-306.5"/>
</a>
</g>
</g>
<!-- Node18 -->
<g id="Node000018" class="node">
<title>Node18</title>
<g id="a_Node000018"><a xlink:href="classcore_1_1poll_1_1DescriptorEventPublisher.html#aaded8dfb036d6a016126b05035db7453" target="_top" xlink:title=" ">
<polygon fill="white" stroke="#666666" points="142,-222 9,-222 9,-192 142,-192 142,-222"/>
<text text-anchor="start" x="17" y="-210" font-family="Helvetica,sans-Serif" font-size="10.00">core::poll::DescriptorEvent</text>
<text text-anchor="middle" x="75.5" y="-199" font-family="Helvetica,sans-Serif" font-size="10.00">Publisher::muxOn</text>
</a>
</g>
</g>
<!-- Node17&#45;&gt;Node18 -->
<g id="edge17_Node000017_Node000018" class="edge">
<title>Node17&#45;&gt;Node18</title>
<g id="a_edge17_Node000017_Node000018"><a xlink:title=" ">
<path fill="none" stroke="#63b8ff" d="M189.73,-207C174.02,-207 157.59,-207 142.28,-207"/>
<polygon fill="#63b8ff" stroke="#63b8ff" points="189.93,-210.5 199.93,-207 189.93,-203.5 189.93,-210.5"/>
</a>
</g>
</g>
</g>
</svg>
