<?xml version="1.0" encoding="UTF-8" standalone="no"?>
<!DOCTYPE svg PUBLIC "-//W3C//DTD SVG 1.1//EN"
 "http://www.w3.org/Graphics/SVG/1.1/DTD/svg11.dtd">
<!-- Generated by graphviz version 2.43.0 (0)
 -->
<!-- Title: web::http::server::Response::send Pages: 1 -->
<svg width="799pt" height="345pt"
 viewBox="0.00 0.00 799.00 345.00" xmlns="http://www.w3.org/2000/svg" xmlns:xlink="http://www.w3.org/1999/xlink">
<g id="graph0" class="graph" transform="scale(1 1) rotate(0) translate(4 341)">
<title>web::http::server::Response::send</title>
<!-- Node1 -->
<g id="Node000001" class="node">
<title>Node1</title>
<g id="a_Node000001"><a xlink:title=" ">
<polygon fill="#999999" stroke="#666666" points="96,-100.5 0,-100.5 0,-70.5 96,-70.5 96,-100.5"/>
<text text-anchor="start" x="8" y="-88.5" font-family="Helvetica,sans-Serif" font-size="10.00">web::http::server::</text>
<text text-anchor="middle" x="48" y="-77.5" font-family="Helvetica,sans-Serif" font-size="10.00">Response::send</text>
</a>
</g>
</g>
<!-- Node2 -->
<g id="Node000002" class="node">
<title>Node2</title>
<g id="a_Node000002"><a xlink:href="classweb_1_1http_1_1server_1_1Response.html#a6bdff1ff4fb13a952df7bfefd0b87667" target="_top" xlink:title=" ">
<polygon fill="white" stroke="#666666" points="236,-174.5 132,-174.5 132,-144.5 236,-144.5 236,-174.5"/>
<text text-anchor="start" x="140" y="-162.5" font-family="Helvetica,sans-Serif" font-size="10.00">web::http::server::</text>
<text text-anchor="middle" x="184" y="-151.5" font-family="Helvetica,sans-Serif" font-size="10.00">Response::enqueue</text>
</a>
</g>
</g>
<!-- Node1&#45;&gt;Node2 -->
<g id="edge1_Node000001_Node000002" class="edge">
<title>Node1&#45;&gt;Node2</title>
<g id="a_edge1_Node000001_Node000002"><a xlink:title=" ">
<path fill="none" stroke="#63b8ff" d="M76.44,-100.65C96.76,-111.88 124.65,-127.28 146.8,-139.51"/>
<polygon fill="#63b8ff" stroke="#63b8ff" points="145.15,-142.6 155.6,-144.37 148.53,-136.47 145.15,-142.6"/>
</a>
</g>
</g>
<!-- Node10 -->
<g id="Node000010" class="node">
<title>Node10</title>
<g id="a_Node000010"><a xlink:href="classweb_1_1http_1_1server_1_1Response.html#a82301ce94e8418a2d0b9bc052207a178" target="_top" xlink:title=" ">
<polygon fill="white" stroke="#666666" points="569,-55.5 473,-55.5 473,-25.5 569,-25.5 569,-55.5"/>
<text text-anchor="start" x="481" y="-43.5" font-family="Helvetica,sans-Serif" font-size="10.00">web::http::server::</text>
<text text-anchor="middle" x="521" y="-32.5" font-family="Helvetica,sans-Serif" font-size="10.00">Response::set</text>
</a>
</g>
</g>
<!-- Node1&#45;&gt;Node10 -->
<g id="edge21_Node000001_Node000010" class="edge">
<title>Node1&#45;&gt;Node10</title>
<g id="a_edge21_Node000001_Node000010"><a xlink:title=" ">
<path fill="none" stroke="#63b8ff" d="M96.32,-80.98C183.33,-72.67 368.44,-54.98 462.53,-45.99"/>
<polygon fill="#63b8ff" stroke="#63b8ff" points="463.09,-49.45 472.71,-45.02 462.43,-42.48 463.09,-49.45"/>
</a>
</g>
</g>
<!-- Node3 -->
<g id="Node000003" class="node">
<title>Node3</title>
<g id="a_Node000003"><a xlink:href="classweb_1_1http_1_1server_1_1RequestContextBase.html#a4f00d26b05063a3f91a13a4e3f83023d" target="_top" xlink:title=" ">
<polygon fill="white" stroke="#666666" points="412,-206.5 272,-206.5 272,-176.5 412,-176.5 412,-206.5"/>
<text text-anchor="start" x="280" y="-194.5" font-family="Helvetica,sans-Serif" font-size="10.00">web::http::server::</text>
<text text-anchor="middle" x="342" y="-183.5" font-family="Helvetica,sans-Serif" font-size="10.00">RequestContextBase::close</text>
</a>
</g>
</g>
<!-- Node2&#45;&gt;Node3 -->
<g id="edge2_Node000002_Node000003" class="edge">
<title>Node2&#45;&gt;Node3</title>
<g id="a_edge2_Node000002_Node000003"><a xlink:title=" ">
<path fill="none" stroke="#63b8ff" d="M236.08,-169.98C244.41,-171.69 253.2,-173.49 262.02,-175.3"/>
<polygon fill="#63b8ff" stroke="#63b8ff" points="261.45,-178.75 271.95,-177.34 262.86,-171.9 261.45,-178.75"/>
</a>
</g>
</g>
<!-- Node6 -->
<g id="Node000006" class="node">
<title>Node6</title>
<g id="a_Node000006"><a xlink:href="classweb_1_1http_1_1server_1_1Response.html#a4fae387fd1d11b86260f4572bfebfce2" target="_top" xlink:title=" ">
<polygon fill="white" stroke="#666666" points="401.5,-143.5 282.5,-143.5 282.5,-113.5 401.5,-113.5 401.5,-143.5"/>
<text text-anchor="start" x="290.5" y="-131.5" font-family="Helvetica,sans-Serif" font-size="10.00">web::http::server::</text>
<text text-anchor="middle" x="342" y="-120.5" font-family="Helvetica,sans-Serif" font-size="10.00">Response::sendHeader</text>
</a>
</g>
</g>
<!-- Node2&#45;&gt;Node6 -->
<g id="edge5_Node000002_Node000006" class="edge">
<title>Node2&#45;&gt;Node6</title>
<g id="a_edge5_Node000002_Node000006"><a xlink:title=" ">
<path fill="none" stroke="#63b8ff" d="M229.7,-144.45C243.02,-141.31 257.92,-138.17 272.39,-135.43"/>
<polygon fill="#63b8ff" stroke="#63b8ff" points="273.12,-138.85 282.32,-133.6 271.85,-131.97 273.12,-138.85"/>
</a>
</g>
</g>
<!-- Node16 -->
<g id="Node000016" class="node">
<title>Node16</title>
<g id="a_Node000016"><a xlink:href="classweb_1_1http_1_1server_1_1RequestContextBase.html#a75e9f8daa736c9af15f9b784477fd216" target="_top" xlink:title=" ">
<polygon fill="white" stroke="#666666" points="400,-337 284,-337 284,-296 400,-296 400,-337"/>
<text text-anchor="start" x="292" y="-325" font-family="Helvetica,sans-Serif" font-size="10.00">web::http::server::</text>
<text text-anchor="start" x="292" y="-314" font-family="Helvetica,sans-Serif" font-size="10.00">RequestContextBase::</text>
<text text-anchor="middle" x="342" y="-303" font-family="Helvetica,sans-Serif" font-size="10.00">sendToPeer</text>
</a>
</g>
</g>
<!-- Node2&#45;&gt;Node16 -->
<g id="edge16_Node000002_Node000016" class="edge">
<title>Node2&#45;&gt;Node16</title>
<g id="a_edge16_Node000002_Node000016"><a xlink:title=" ">
<path fill="none" stroke="#63b8ff" d="M192.45,-174.57C205.52,-199.75 234.8,-250.75 272,-282.5 275.41,-285.41 279.1,-288.14 282.96,-290.68"/>
<polygon fill="#63b8ff" stroke="#63b8ff" points="281.24,-293.73 291.59,-295.97 284.89,-287.76 281.24,-293.73"/>
</a>
</g>
</g>
<!-- Node19 -->
<g id="Node000019" class="node">
<title>Node19</title>
<g id="a_Node000019"><a xlink:href="classweb_1_1http_1_1server_1_1RequestContextBase.html#a0d34bccc21c1e0139345d8a59520c8cb" target="_top" xlink:title=" ">
<polygon fill="white" stroke="#666666" points="400,-274 284,-274 284,-233 400,-233 400,-274"/>
<text text-anchor="start" x="292" y="-262" font-family="Helvetica,sans-Serif" font-size="10.00">web::http::server::</text>
<text text-anchor="start" x="292" y="-251" font-family="Helvetica,sans-Serif" font-size="10.00">RequestContextBase::</text>
<text text-anchor="middle" x="342" y="-240" font-family="Helvetica,sans-Serif" font-size="10.00">sendToPeerCompleted</text>
</a>
</g>
</g>
<!-- Node2&#45;&gt;Node19 -->
<g id="edge19_Node000002_Node000019" class="edge">
<title>Node2&#45;&gt;Node19</title>
<g id="a_edge19_Node000002_Node000019"><a xlink:title=" ">
<path fill="none" stroke="#63b8ff" d="M207.63,-174.67C225.03,-186.19 249.78,-202.25 272,-215.5 278.85,-219.59 286.17,-223.79 293.38,-227.83"/>
<polygon fill="#63b8ff" stroke="#63b8ff" points="291.97,-231.05 302.41,-232.86 295.38,-224.94 291.97,-231.05"/>
</a>
</g>
</g>
<!-- Node4 -->
<g id="Node000004" class="node">
<title>Node4</title>
<g id="a_Node000004"><a xlink:href="classcore_1_1socket_1_1stream_1_1SocketContext.html#a47b23b8583dfd3880232e748f284f380" target="_top" xlink:title=" ">
<polygon fill="white" stroke="#666666" points="579.5,-237.5 462.5,-237.5 462.5,-207.5 579.5,-207.5 579.5,-237.5"/>
<text text-anchor="start" x="470.5" y="-225.5" font-family="Helvetica,sans-Serif" font-size="10.00">core::socket::stream</text>
<text text-anchor="middle" x="521" y="-214.5" font-family="Helvetica,sans-Serif" font-size="10.00">::SocketContext::close</text>
</a>
</g>
</g>
<!-- Node3&#45;&gt;Node4 -->
<g id="edge3_Node000003_Node000004" class="edge">
<title>Node3&#45;&gt;Node4</title>
<g id="a_edge3_Node000003_Node000004"><a xlink:title=" ">
<path fill="none" stroke="#63b8ff" d="M412.19,-203.62C425.41,-205.93 439.22,-208.35 452.38,-210.66"/>
<polygon fill="#63b8ff" stroke="#63b8ff" points="451.85,-214.12 462.3,-212.39 453.05,-207.22 451.85,-214.12"/>
</a>
</g>
</g>
<!-- Node5 -->
<g id="Node000005" class="node">
<title>Node5</title>
<g id="a_Node000005"><a xlink:href="classcore_1_1socket_1_1stream_1_1SocketConnection.html#aed398e81ede92d1d1cfae2597580ad2c" target="_top" xlink:title=" ">
<polygon fill="white" stroke="#666666" points="776.5,-237.5 644.5,-237.5 644.5,-207.5 776.5,-207.5 776.5,-237.5"/>
<text text-anchor="start" x="652.5" y="-225.5" font-family="Helvetica,sans-Serif" font-size="10.00">core::socket::stream</text>
<text text-anchor="middle" x="710.5" y="-214.5" font-family="Helvetica,sans-Serif" font-size="10.00">::SocketConnection::close</text>
</a>
</g>
</g>
<!-- Node4&#45;&gt;Node5 -->
<g id="edge4_Node000004_Node000005" class="edge">
<title>Node4&#45;&gt;Node5</title>
<g id="a_edge4_Node000004_Node000005"><a xlink:title=" ">
<path fill="none" stroke="#63b8ff" d="M579.53,-222.5C596.79,-222.5 615.98,-222.5 634.2,-222.5"/>
<polygon fill="#63b8ff" stroke="#63b8ff" points="634.21,-226 644.21,-222.5 634.21,-219 634.21,-226"/>
</a>
</g>
</g>
<!-- Node6&#45;&gt;Node2 -->
<g id="edge7_Node000006_Node000002" class="edge">
<title>Node6&#45;&gt;Node2</title>
<g id="a_edge7_Node000006_Node000002"><a xlink:title=" ">
<path fill="none" stroke="#63b8ff" d="M296.37,-143.54C280.78,-147.21 263.01,-150.89 246.31,-153.93"/>
<polygon fill="#63b8ff" stroke="#63b8ff" points="245.32,-150.55 236.08,-155.73 246.54,-157.44 245.32,-150.55"/>
</a>
</g>
</g>
<!-- Node7 -->
<g id="Node000007" class="node">
<title>Node7</title>
<g id="a_Node000007"><a xlink:href="classweb_1_1http_1_1server_1_1Response.html#aa9a6f2cbf1a4f186db94f9a2d5d6da08" target="_top" xlink:title=" ">
<polygon fill="white" stroke="#666666" points="569,-189.5 473,-189.5 473,-159.5 569,-159.5 569,-189.5"/>
<text text-anchor="start" x="481" y="-177.5" font-family="Helvetica,sans-Serif" font-size="10.00">web::http::server::</text>
<text text-anchor="middle" x="521" y="-166.5" font-family="Helvetica,sans-Serif" font-size="10.00">Response::cookie</text>
</a>
</g>
</g>
<!-- Node6&#45;&gt;Node7 -->
<g id="edge6_Node000006_Node000007" class="edge">
<title>Node6&#45;&gt;Node7</title>
<g id="a_edge6_Node000006_Node000007"><a xlink:title=" ">
<path fill="none" stroke="#63b8ff" d="M400.96,-143.56C420.88,-148.74 443.16,-154.53 463,-159.69"/>
<polygon fill="#63b8ff" stroke="#63b8ff" points="462.27,-163.11 472.83,-162.24 464.03,-156.34 462.27,-163.11"/>
</a>
</g>
</g>
<!-- Node8 -->
<g id="Node000008" class="node">
<title>Node8</title>
<g id="a_Node000008"><a xlink:href="classweb_1_1http_1_1StatusCode.html#ad3c635f1cb778cdb4a2e23332ebda277" target="_top" xlink:title=" ">
<polygon fill="white" stroke="#666666" points="578.5,-141.5 463.5,-141.5 463.5,-111.5 578.5,-111.5 578.5,-141.5"/>
<text text-anchor="start" x="471.5" y="-129.5" font-family="Helvetica,sans-Serif" font-size="10.00">web::http::StatusCode</text>
<text text-anchor="middle" x="521" y="-118.5" font-family="Helvetica,sans-Serif" font-size="10.00">::reason</text>
</a>
</g>
</g>
<!-- Node6&#45;&gt;Node8 -->
<g id="edge8_Node000006_Node000008" class="edge">
<title>Node6&#45;&gt;Node8</title>
<g id="a_edge8_Node000006_Node000008"><a xlink:title=" ">
<path fill="none" stroke="#63b8ff" d="M401.94,-127.83C418.34,-127.65 436.28,-127.45 453.11,-127.26"/>
<polygon fill="#63b8ff" stroke="#63b8ff" points="453.46,-130.75 463.42,-127.14 453.38,-123.75 453.46,-130.75"/>
</a>
</g>
</g>
<!-- Node6&#45;&gt;Node10 -->
<g id="edge10_Node000006_Node000010" class="edge">
<title>Node6&#45;&gt;Node10</title>
<g id="a_edge10_Node000006_Node000010"><a xlink:title=" ">
<path fill="none" stroke="#63b8ff" d="M364.72,-113.25C385.41,-99.22 417.79,-78.52 448,-64.5 452.93,-62.21 458.14,-60.04 463.41,-58"/>
<polygon fill="#63b8ff" stroke="#63b8ff" points="464.76,-61.24 472.92,-54.49 462.33,-54.67 464.76,-61.24"/>
</a>
</g>
</g>
<!-- Node12 -->
<g id="Node000012" class="node">
<title>Node12</title>
<g id="a_Node000012"><a xlink:href="namespacehttputils.html#a01539c1af68e4d072d3507ae44c0b02a" target="_top" xlink:title=" ">
<polygon fill="white" stroke="#666666" points="576.5,-93 465.5,-93 465.5,-74 576.5,-74 576.5,-93"/>
<text text-anchor="middle" x="521" y="-81" font-family="Helvetica,sans-Serif" font-size="10.00">httputils::to_http_date</text>
</a>
</g>
</g>
<!-- Node6&#45;&gt;Node12 -->
<g id="edge12_Node000006_Node000012" class="edge">
<title>Node6&#45;&gt;Node12</title>
<g id="a_edge12_Node000006_Node000012"><a xlink:title=" ">
<path fill="none" stroke="#63b8ff" d="M401.94,-113.52C424.86,-107.69 450.77,-101.1 472.46,-95.59"/>
<polygon fill="#63b8ff" stroke="#63b8ff" points="473.59,-98.91 482.42,-93.05 471.87,-92.13 473.59,-98.91"/>
</a>
</g>
</g>
<!-- Node9 -->
<g id="Node000009" class="node">
<title>Node9</title>
<g id="a_Node000009"><a xlink:href="classweb_1_1http_1_1StatusCode.html#a7128168d2becba8d8bfd0e47ab2854ff" target="_top" xlink:title=" ">
<polygon fill="white" stroke="#666666" points="768,-178.5 653,-178.5 653,-148.5 768,-148.5 768,-178.5"/>
<text text-anchor="start" x="661" y="-166.5" font-family="Helvetica,sans-Serif" font-size="10.00">web::http::StatusCode</text>
<text text-anchor="middle" x="710.5" y="-155.5" font-family="Helvetica,sans-Serif" font-size="10.00">::contains</text>
</a>
</g>
</g>
<!-- Node8&#45;&gt;Node9 -->
<g id="edge9_Node000008_Node000009" class="edge">
<title>Node8&#45;&gt;Node9</title>
<g id="a_edge9_Node000008_Node000009"><a xlink:title=" ">
<path fill="none" stroke="#63b8ff" d="M578.51,-137.65C598.8,-141.66 621.88,-146.21 642.94,-150.37"/>
<polygon fill="#63b8ff" stroke="#63b8ff" points="642.29,-153.81 652.78,-152.31 643.65,-146.94 642.29,-153.81"/>
</a>
</g>
</g>
<!-- Node11 -->
<g id="Node000011" class="node">
<title>Node11</title>
<g id="a_Node000011"><a xlink:href="namespacehttputils.html#af566d4f31d97a3a84b373a94e6cf9594" target="_top" xlink:title=" ">
<polygon fill="white" stroke="#666666" points="764,-19 657,-19 657,0 764,0 764,-19"/>
<text text-anchor="middle" x="710.5" y="-7" font-family="Helvetica,sans-Serif" font-size="10.00">httputils::ci_contains</text>
</a>
</g>
</g>
<!-- Node10&#45;&gt;Node11 -->
<g id="edge11_Node000010_Node000011" class="edge">
<title>Node10&#45;&gt;Node11</title>
<g id="a_edge11_Node000010_Node000011"><a xlink:title=" ">
<path fill="none" stroke="#63b8ff" d="M569.31,-32.68C592.87,-28.78 621.67,-24.02 647.02,-19.83"/>
<polygon fill="#63b8ff" stroke="#63b8ff" points="647.62,-23.28 656.91,-18.19 646.48,-16.37 647.62,-23.28"/>
</a>
</g>
</g>
<!-- Node13 -->
<g id="Node000013" class="node">
<title>Node13</title>
<g id="a_Node000013"><a xlink:href="namespaceutils_1_1system.html#a629a1ebec50192eff5587cdd5d51bf20" target="_top" xlink:title=" ">
<polygon fill="white" stroke="#666666" points="766,-93 655,-93 655,-74 766,-74 766,-93"/>
<text text-anchor="middle" x="710.5" y="-81" font-family="Helvetica,sans-Serif" font-size="10.00">utils::system::gmtime</text>
</a>
</g>
</g>
<!-- Node12&#45;&gt;Node13 -->
<g id="edge13_Node000012_Node000013" class="edge">
<title>Node12&#45;&gt;Node13</title>
<g id="a_edge13_Node000012_Node000013"><a xlink:title=" ">
<path fill="none" stroke="#63b8ff" d="M576.74,-83.5C597.92,-83.5 622.34,-83.5 644.41,-83.5"/>
<polygon fill="#63b8ff" stroke="#63b8ff" points="644.7,-87 654.7,-83.5 644.7,-80 644.7,-87"/>
</a>
</g>
</g>
<!-- Node14 -->
<g id="Node000014" class="node">
<title>Node14</title>
<g id="a_Node000014"><a xlink:href="namespaceutils_1_1system.html#a66eaf14c632914f8685b6ad36def2704" target="_top" xlink:title=" ">
<polygon fill="white" stroke="#666666" points="766,-56 655,-56 655,-37 766,-37 766,-56"/>
<text text-anchor="middle" x="710.5" y="-44" font-family="Helvetica,sans-Serif" font-size="10.00">utils::system::mktime</text>
</a>
</g>
</g>
<!-- Node12&#45;&gt;Node14 -->
<g id="edge14_Node000012_Node000014" class="edge">
<title>Node12&#45;&gt;Node14</title>
<g id="a_edge14_Node000012_Node000014"><a xlink:title=" ">
<path fill="none" stroke="#63b8ff" d="M570.29,-73.97C594.9,-69.11 625.04,-63.17 650.97,-58.05"/>
<polygon fill="#63b8ff" stroke="#63b8ff" points="651.92,-61.43 661.05,-56.06 650.56,-54.56 651.92,-61.43"/>
</a>
</g>
</g>
<!-- Node15 -->
<g id="Node000015" class="node">
<title>Node15</title>
<g id="a_Node000015"><a xlink:href="namespaceutils_1_1system.html#aa36252afed0ca4903feb511649270d1c" target="_top" xlink:title=" ">
<polygon fill="white" stroke="#666666" points="759.5,-130 661.5,-130 661.5,-111 759.5,-111 759.5,-130"/>
<text text-anchor="middle" x="710.5" y="-118" font-family="Helvetica,sans-Serif" font-size="10.00">utils::system::time</text>
</a>
</g>
</g>
<!-- Node12&#45;&gt;Node15 -->
<g id="edge15_Node000012_Node000015" class="edge">
<title>Node12&#45;&gt;Node15</title>
<g id="a_edge15_Node000012_Node000015"><a xlink:title=" ">
<path fill="none" stroke="#63b8ff" d="M570.29,-93.03C595,-97.91 625.28,-103.88 651.27,-109.01"/>
<polygon fill="#63b8ff" stroke="#63b8ff" points="650.89,-112.5 661.38,-111 652.24,-105.63 650.89,-112.5"/>
</a>
</g>
</g>
<!-- Node17 -->
<g id="Node000017" class="node">
<title>Node17</title>
<g id="a_Node000017"><a xlink:href="classcore_1_1socket_1_1stream_1_1SocketContext.html#a7ab4e5580dbb64d509ffe2573205c600" target="_top" xlink:title=" ">
<polygon fill="white" stroke="#666666" points="594,-333.5 448,-333.5 448,-303.5 594,-303.5 594,-333.5"/>
<text text-anchor="start" x="456" y="-321.5" font-family="Helvetica,sans-Serif" font-size="10.00">core::socket::stream</text>
<text text-anchor="middle" x="521" y="-310.5" font-family="Helvetica,sans-Serif" font-size="10.00">::SocketContext::sendToPeer</text>
</a>
</g>
</g>
<!-- Node16&#45;&gt;Node17 -->
<g id="edge17_Node000016_Node000017" class="edge">
<title>Node16&#45;&gt;Node17</title>
<g id="a_edge17_Node000016_Node000017"><a xlink:title=" ">
<path fill="none" stroke="#63b8ff" d="M400.47,-317.15C412.41,-317.28 425.23,-317.43 437.86,-317.57"/>
<polygon fill="#63b8ff" stroke="#63b8ff" points="437.9,-321.07 447.94,-317.69 437.98,-314.07 437.9,-321.07"/>
</a>
</g>
</g>
<!-- Node18 -->
<g id="Node000018" class="node">
<title>Node18</title>
<g id="a_Node000018"><a xlink:href="classcore_1_1socket_1_1stream_1_1SocketConnection.html#a8562a65ddd381e8a5c3360d12064b0ac" target="_top" xlink:title=" ">
<polygon fill="white" stroke="#666666" points="791,-333.5 630,-333.5 630,-303.5 791,-303.5 791,-333.5"/>
<text text-anchor="start" x="638" y="-321.5" font-family="Helvetica,sans-Serif" font-size="10.00">core::socket::stream</text>
<text text-anchor="middle" x="710.5" y="-310.5" font-family="Helvetica,sans-Serif" font-size="10.00">::SocketConnection::sendToPeer</text>
</a>
</g>
</g>
<!-- Node17&#45;&gt;Node18 -->
<g id="edge18_Node000017_Node000018" class="edge">
<title>Node17&#45;&gt;Node18</title>
<g id="a_edge18_Node000017_Node000018"><a xlink:title=" ">
<path fill="none" stroke="#63b8ff" d="M594.22,-318.5C602.6,-318.5 611.22,-318.5 619.8,-318.5"/>
<polygon fill="#63b8ff" stroke="#63b8ff" points="619.83,-322 629.83,-318.5 619.83,-315 619.83,-322"/>
</a>
</g>
</g>
<!-- Node20 -->
<g id="Node000020" class="node">
<title>Node20</title>
<g id="a_Node000020"><a xlink:href="classweb_1_1http_1_1SocketContext.html#a3d37b0a17a47ce6c9ebf96900bfe2a74" target="_top" xlink:title=" ">
<polygon fill="white" stroke="#666666" points="585,-285.5 457,-285.5 457,-255.5 585,-255.5 585,-285.5"/>
<text text-anchor="start" x="465" y="-273.5" font-family="Helvetica,sans-Serif" font-size="10.00">web::http::SocketContext</text>
<text text-anchor="middle" x="521" y="-262.5" font-family="Helvetica,sans-Serif" font-size="10.00">::sendToPeerCompleted</text>
</a>
</g>
</g>
<!-- Node19&#45;&gt;Node20 -->
<g id="edge20_Node000019_Node000020" class="edge">
<title>Node19&#45;&gt;Node20</title>
<g id="a_edge20_Node000019_Node000020"><a xlink:title=" ">
<path fill="none" stroke="#63b8ff" d="M400.47,-259.02C415.21,-260.44 431.26,-261.98 446.68,-263.46"/>
<polygon fill="#63b8ff" stroke="#63b8ff" points="446.41,-266.95 456.7,-264.42 447.08,-259.98 446.41,-266.95"/>
</a>
</g>
</g>
</g>
</svg>
