<?xml version="1.0" encoding="UTF-8" standalone="no"?>
<!DOCTYPE svg PUBLIC "-//W3C//DTD SVG 1.1//EN"
 "http://www.w3.org/Graphics/SVG/1.1/DTD/svg11.dtd">
<!-- Generated by graphviz version 14.1.2 (0)
 -->
<!-- Title: core::TimerEventReceiver Pages: 1 -->
<svg width="839pt" height="1058pt"
 viewBox="0.00 0.00 839.00 1058.00" xmlns="http://www.w3.org/2000/svg" xmlns:xlink="http://www.w3.org/1999/xlink">
<g id="graph0" class="graph" transform="scale(1 1) rotate(0) translate(4 1053.75)">
<title>core::TimerEventReceiver</title>
<!-- Node1 -->
<g id="Node000001" class="node">
<title>Node1</title>
<g id="a_Node000001"><a xlink:title=" ">
<polygon fill="#999999" stroke="none" points="452.88,-957.5 319.62,-957.5 319.62,-936.75 452.88,-936.75 452.88,-957.5"/>
<text xml:space="preserve" text-anchor="start" x="323.62" y="-944" font-family="Helvetica,sans-Serif" font-size="10.00">core::TimerEventReceiver</text>
<polygon fill="none" stroke="#666666" points="319.62,-936.75 319.62,-957.5 452.88,-957.5 452.88,-936.75 319.62,-936.75"/>
</a>
</g>
</g>
<!-- Node16 -->
<g id="Node000016" class="node">
<title>Node16</title>
<g id="a_Node000016"><a xlink:title=" ">
<polygon fill="white" stroke="none" points="192.5,-882 0,-882 0,-835.75 192.5,-835.75 192.5,-882"/>
<text xml:space="preserve" text-anchor="start" x="4" y="-868.5" font-family="Helvetica,sans-Serif" font-size="10.00">std::set&lt; core::TimerEvent</text>
<text xml:space="preserve" text-anchor="start" x="4" y="-855.75" font-family="Helvetica,sans-Serif" font-size="10.00">Receiver *, core::TimerEventPublisher</text>
<text xml:space="preserve" text-anchor="start" x="56.5" y="-843" font-family="Helvetica,sans-Serif" font-size="10.00">::timernode_lt &gt;</text>
<polygon fill="none" stroke="#666666" points="0,-835.75 0,-882 192.5,-882 192.5,-835.75 0,-835.75"/>
</a>
</g>
</g>
<!-- Node1&#45;&gt;Node16 -->
<g id="edge21_Node000016_Node000001" class="edge">
<title>Node1&#45;&gt;Node16</title>
<g id="a_edge21_Node000016_Node000001"><a xlink:title=" ">
<path fill="none" stroke="#63b8ff" d="M319.74,-945.71C277.66,-943.46 222.84,-936.79 177.5,-918.75 160.47,-911.98 143.72,-900.83 129.89,-890.05"/>
<polygon fill="none" stroke="#63b8ff" points="129.95,-890.09 122.77,-889.41 120.63,-882.52 127.81,-883.2 129.95,-890.09"/>
</a>
</g>
<text xml:space="preserve" text-anchor="start" x="180.5" y="-906.25" font-family="Helvetica,sans-Serif" font-size="10.00" fill="grey">+keys</text>
</g>
<!-- Node17 -->
<g id="Node000017" class="node">
<title>Node17</title>
<g id="a_Node000017"><a xlink:title=" ">
<polygon fill="white" stroke="none" points="573.12,-875.62 435.38,-875.62 435.38,-842.12 573.12,-842.12 573.12,-875.62"/>
<text xml:space="preserve" text-anchor="start" x="439.38" y="-862.12" font-family="Helvetica,sans-Serif" font-size="10.00">std::list&lt; core::TimerEvent</text>
<text xml:space="preserve" text-anchor="start" x="473.12" y="-849.38" font-family="Helvetica,sans-Serif" font-size="10.00">Receiver * &gt;</text>
<polygon fill="none" stroke="#666666" points="435.38,-842.12 435.38,-875.62 573.12,-875.62 573.12,-842.12 435.38,-842.12"/>
</a>
</g>
</g>
<!-- Node1&#45;&gt;Node17 -->
<g id="edge23_Node000017_Node000001" class="edge">
<title>Node1&#45;&gt;Node17</title>
<g id="a_edge23_Node000017_Node000001"><a xlink:title=" ">
<path fill="none" stroke="#63b8ff" d="M452.63,-941.68C468.18,-937.57 483.36,-930.55 494.25,-918.75 501.77,-910.61 504.75,-899 505.67,-888.25"/>
<polygon fill="none" stroke="#63b8ff" points="505.67,-888.3 501.79,-882.22 505.91,-876.3 509.79,-882.38 505.67,-888.3"/>
</a>
</g>
<text xml:space="preserve" text-anchor="start" x="506.62" y="-906.25" font-family="Helvetica,sans-Serif" font-size="10.00" fill="grey">+elements</text>
</g>
<!-- Node20 -->
<g id="Node000020" class="node">
<title>Node20</title>
<g id="a_Node000020"><a xlink:href="classcore_1_1Timer.html" target="_top" xlink:title=" ">
<polygon fill="white" stroke="none" points="417.62,-869.25 354.88,-869.25 354.88,-848.5 417.62,-848.5 417.62,-869.25"/>
<text xml:space="preserve" text-anchor="start" x="358.88" y="-855.75" font-family="Helvetica,sans-Serif" font-size="10.00">core::Timer</text>
<polygon fill="none" stroke="#666666" points="354.88,-848.5 354.88,-869.25 417.62,-869.25 417.62,-848.5 354.88,-848.5"/>
</a>
</g>
</g>
<!-- Node1&#45;&gt;Node20 -->
<g id="edge29_Node000020_Node000001" class="edge">
<title>Node1&#45;&gt;Node20</title>
<g id="a_edge29_Node000020_Node000001"><a xlink:title=" ">
<path fill="none" stroke="#63b8ff" d="M386.25,-936.89C386.25,-923.86 386.25,-899.67 386.25,-881.86"/>
<polygon fill="none" stroke="#63b8ff" points="386.25,-881.94 382.25,-875.94 386.25,-869.94 390.25,-875.94 386.25,-881.94"/>
</a>
</g>
<text xml:space="preserve" text-anchor="start" x="389.25" y="-906.25" font-family="Helvetica,sans-Serif" font-size="10.00" fill="grey">&#45;timerEventReceiver</text>
</g>
<!-- Node2 -->
<g id="Node000002" class="node">
<title>Node2</title>
<g id="a_Node000002"><a xlink:href="classcore_1_1EventReceiver.html" target="_top" xlink:title=" ">
<polygon fill="white" stroke="none" points="606,-508.25 500.5,-508.25 500.5,-487.5 606,-487.5 606,-508.25"/>
<text xml:space="preserve" text-anchor="start" x="504.5" y="-494.75" font-family="Helvetica,sans-Serif" font-size="10.00">core::EventReceiver</text>
<polygon fill="none" stroke="#666666" points="500.5,-487.5 500.5,-508.25 606,-508.25 606,-487.5 500.5,-487.5"/>
</a>
</g>
</g>
<!-- Node2&#45;&gt;Node1 -->
<g id="edge1_Node000001_Node000002" class="edge">
<title>Node2&#45;&gt;Node1</title>
<g id="a_edge1_Node000001_Node000002"><a xlink:title=" ">
<path fill="none" stroke="#63b8ff" d="M577.34,-515.17C581.04,-518.49 584.53,-522.22 587.25,-526.25 599.24,-544.01 601.25,-550.95 601.25,-572.38 601.25,-859.88 601.25,-859.88 601.25,-859.88 601.25,-890.09 592.21,-901.72 567.25,-918.75 548.87,-931.29 496.46,-938.3 452.74,-942.08"/>
<polygon fill="none" stroke="#63b8ff" points="579.75,-512.62 569.75,-509.13 575.4,-518.1 579.75,-512.62"/>
</a>
</g>
</g>
<!-- Node3 -->
<g id="Node000003" class="node">
<title>Node3</title>
<g id="a_Node000003"><a xlink:href="classcore_1_1Event.html" target="_top" xlink:title=" ">
<polygon fill="white" stroke="none" points="476.62,-583.75 413.88,-583.75 413.88,-563 476.62,-563 476.62,-583.75"/>
<text xml:space="preserve" text-anchor="start" x="417.88" y="-570.25" font-family="Helvetica,sans-Serif" font-size="10.00">core::Event</text>
<polygon fill="none" stroke="#666666" points="413.88,-563 413.88,-583.75 476.62,-583.75 476.62,-563 413.88,-563"/>
</a>
</g>
</g>
<!-- Node2&#45;&gt;Node3 -->
<g id="edge5_Node000003_Node000002" class="edge">
<title>Node2&#45;&gt;Node3</title>
<g id="a_edge5_Node000003_Node000002"><a xlink:title=" ">
<path fill="none" stroke="#63b8ff" d="M536.16,-508.15C527.26,-513.19 516.32,-519.71 507,-526.25 496.27,-533.78 494.68,-537.06 484.25,-545 479.66,-548.49 474.67,-552.12 469.85,-555.54"/>
<polygon fill="none" stroke="#63b8ff" points="469.73,-555.62 467.1,-562.33 459.89,-562.49 462.53,-555.77 469.73,-555.62"/>
</a>
</g>
<text xml:space="preserve" text-anchor="start" x="510" y="-532.5" font-family="Helvetica,sans-Serif" font-size="10.00" fill="grey">&#45;eventReceiver</text>
</g>
<!-- Node11 -->
<g id="Node000011" class="node">
<title>Node11</title>
<g id="a_Node000011"><a xlink:href="classcore_1_1DescriptorEventReceiver.html" target="_top" xlink:title=" ">
<polygon fill="white" stroke="none" points="591.12,-409.62 435.38,-409.62 435.38,-388.88 591.12,-388.88 591.12,-409.62"/>
<text xml:space="preserve" text-anchor="start" x="439.38" y="-396.12" font-family="Helvetica,sans-Serif" font-size="10.00">core::DescriptorEventReceiver</text>
<polygon fill="none" stroke="#666666" points="435.38,-388.88 435.38,-409.62 591.12,-409.62 591.12,-388.88 435.38,-388.88"/>
</a>
</g>
</g>
<!-- Node2&#45;&gt;Node11 -->
<g id="edge13_Node000011_Node000002" class="edge">
<title>Node2&#45;&gt;Node11</title>
<g id="a_edge13_Node000011_Node000002"><a xlink:title=" ">
<path fill="none" stroke="#63b8ff" d="M545.08,-477.14C536.51,-456.43 523.4,-424.78 517.02,-409.35"/>
<polygon fill="none" stroke="#63b8ff" points="541.78,-478.31 548.84,-486.21 548.24,-475.63 541.78,-478.31"/>
</a>
</g>
</g>
<!-- Node3&#45;&gt;Node2 -->
<g id="edge2_Node000002_Node000003" class="edge">
<title>Node3&#45;&gt;Node2</title>
<g id="a_edge2_Node000002_Node000003"><a xlink:title=" ">
<path fill="none" stroke="#63b8ff" d="M442.59,-563.13C440.27,-552.94 438.43,-536.63 446.75,-526.25 450.13,-522.04 471.29,-516.21 493.88,-511.01"/>
<polygon fill="none" stroke="#63b8ff" points="493.88,-511.01 498.86,-505.8 505.59,-508.4 500.6,-513.61 493.88,-511.01"/>
</a>
</g>
<text xml:space="preserve" text-anchor="start" x="449.75" y="-532.5" font-family="Helvetica,sans-Serif" font-size="10.00" fill="grey">&#45;event</text>
</g>
<!-- Node19 -->
<g id="Node000019" class="node">
<title>Node19</title>
<g id="a_Node000019"><a xlink:title=" ">
<polygon fill="white" stroke="none" points="386,-508.25 256.5,-508.25 256.5,-487.5 386,-487.5 386,-508.25"/>
<text xml:space="preserve" text-anchor="start" x="260.5" y="-494.75" font-family="Helvetica,sans-Serif" font-size="10.00">std::list&lt; core::Event * &gt;</text>
<polygon fill="none" stroke="#666666" points="256.5,-487.5 256.5,-508.25 386,-508.25 386,-487.5 256.5,-487.5"/>
</a>
</g>
</g>
<!-- Node3&#45;&gt;Node19 -->
<g id="edge26_Node000019_Node000003" class="edge">
<title>Node3&#45;&gt;Node19</title>
<g id="a_edge26_Node000019_Node000003"><a xlink:title=" ">
<path fill="none" stroke="#63b8ff" d="M415.74,-563.03C403.14,-558.45 388.54,-552.33 376.25,-545 363.06,-537.14 349.83,-526.16 339.65,-516.88"/>
<polygon fill="none" stroke="#63b8ff" points="339.66,-516.89 332.55,-515.69 330.93,-508.66 338.04,-509.87 339.66,-516.89"/>
</a>
</g>
<text xml:space="preserve" text-anchor="start" x="379.25" y="-532.5" font-family="Helvetica,sans-Serif" font-size="10.00" fill="grey">+elements</text>
</g>
<!-- Node4 -->
<g id="Node000004" class="node">
<title>Node4</title>
<g id="a_Node000004"><a xlink:title=" ">
<polygon fill="white" stroke="none" points="705.62,-659.25 648.88,-659.25 648.88,-638.5 705.62,-638.5 705.62,-659.25"/>
<text xml:space="preserve" text-anchor="start" x="652.88" y="-645.75" font-family="Helvetica,sans-Serif" font-size="10.00">std::string</text>
<polygon fill="none" stroke="#666666" points="648.88,-638.5 648.88,-659.25 705.62,-659.25 705.62,-638.5 648.88,-638.5"/>
</a>
</g>
</g>
<!-- Node4&#45;&gt;Node3 -->
<g id="edge3_Node000003_Node000004" class="edge">
<title>Node4&#45;&gt;Node3</title>
<g id="a_edge3_Node000003_Node000004"><a xlink:title=" ">
<path fill="none" stroke="#63b8ff" d="M649.27,-639.01C608.86,-626.21 533.89,-602.46 486.95,-587.59"/>
<polygon fill="none" stroke="#63b8ff" points="487.1,-587.63 480.17,-589.63 475.66,-584.01 482.58,-582.01 487.1,-587.63"/>
</a>
</g>
<text xml:space="preserve" text-anchor="start" x="591.85" y="-608" font-family="Helvetica,sans-Serif" font-size="10.00" fill="grey">&#45;name</text>
</g>
<!-- Node8 -->
<g id="Node000008" class="node">
<title>Node8</title>
<g id="a_Node000008"><a xlink:href="classcore_1_1DescriptorEventPublisher.html" target="_top" xlink:title=" ">
<polygon fill="white" stroke="none" points="479.25,-109 321.25,-109 321.25,-88.25 479.25,-88.25 479.25,-109"/>
<text xml:space="preserve" text-anchor="start" x="325.25" y="-95.5" font-family="Helvetica,sans-Serif" font-size="10.00">core::DescriptorEventPublisher</text>
<polygon fill="none" stroke="#666666" points="321.25,-88.25 321.25,-109 479.25,-109 479.25,-88.25 321.25,-88.25"/>
</a>
</g>
</g>
<!-- Node4&#45;&gt;Node8 -->
<g id="edge16_Node000008_Node000004" class="edge">
<title>Node4&#45;&gt;Node8</title>
<g id="a_edge16_Node000008_Node000004"><a xlink:title=" ">
<path fill="none" stroke="#63b8ff" d="M685.68,-638.68C696.88,-625.49 715.25,-599.94 715.25,-574.38 715.25,-574.38 715.25,-574.38 715.25,-192.25 715.25,-162.59 723.45,-146.67 701.25,-127 685.73,-113.25 574.65,-106.04 491.92,-102.54"/>
<polygon fill="none" stroke="#63b8ff" points="491.79,-102.54 485.63,-106.29 479.8,-102.05 485.96,-98.3 491.79,-102.54"/>
</a>
</g>
<text xml:space="preserve" text-anchor="start" x="718.25" y="-396.12" font-family="Helvetica,sans-Serif" font-size="10.00" fill="grey">&#45;name</text>
</g>
<!-- Node5 -->
<g id="Node000005" class="node">
<title>Node5</title>
<g id="a_Node000005"><a xlink:title=" ">
<polygon fill="white" stroke="none" points="725.12,-781 629.38,-781 629.38,-747.5 725.12,-747.5 725.12,-781"/>
<text xml:space="preserve" text-anchor="start" x="633.38" y="-767.5" font-family="Helvetica,sans-Serif" font-size="10.00">std::basic_string&lt;</text>
<text xml:space="preserve" text-anchor="start" x="658.88" y="-754.75" font-family="Helvetica,sans-Serif" font-size="10.00"> Char &gt;</text>
<polygon fill="none" stroke="#666666" points="629.38,-747.5 629.38,-781 725.12,-781 725.12,-747.5 629.38,-747.5"/>
</a>
</g>
</g>
<!-- Node5&#45;&gt;Node4 -->
<g id="edge4_Node000004_Node000005" class="edge">
<title>Node5&#45;&gt;Node4</title>
<g id="a_edge4_Node000004_Node000005"><a xlink:title=" ">
<path fill="none" stroke="#63b8ff" d="M677.25,-736.71C677.25,-711.72 677.25,-675.71 677.25,-659.01"/>
<polygon fill="none" stroke="#63b8ff" points="673.75,-736.45 677.25,-746.45 680.75,-736.45 673.75,-736.45"/>
</a>
</g>
</g>
<!-- Node6 -->
<g id="Node000006" class="node">
<title>Node6</title>
<g id="a_Node000006"><a xlink:href="classcore_1_1EventMultiplexer.html" target="_top" xlink:title=" ">
<polygon fill="white" stroke="none" points="287.38,-659.25 169.12,-659.25 169.12,-638.5 287.38,-638.5 287.38,-659.25"/>
<text xml:space="preserve" text-anchor="start" x="173.12" y="-645.75" font-family="Helvetica,sans-Serif" font-size="10.00">core::EventMultiplexer</text>
<polygon fill="none" stroke="#666666" points="169.12,-638.5 169.12,-659.25 287.38,-659.25 287.38,-638.5 169.12,-638.5"/>
</a>
</g>
</g>
<!-- Node6&#45;&gt;Node3 -->
<g id="edge6_Node000003_Node000006" class="edge">
<title>Node6&#45;&gt;Node3</title>
<g id="a_edge6_Node000003_Node000006"><a xlink:title=" ">
<path fill="none" stroke="#63b8ff" d="M255.73,-638.57C293.54,-625.76 361.83,-602.63 405.29,-587.91"/>
<polygon fill="none" stroke="#63b8ff" points="405.43,-587.86 409.83,-582.15 416.79,-584.01 412.39,-589.73 405.43,-587.86"/>
</a>
</g>
<text xml:space="preserve" text-anchor="start" x="365.57" y="-608" font-family="Helvetica,sans-Serif" font-size="10.00" fill="grey">&#45;eventMultiplexer</text>
</g>
<!-- Node7 -->
<g id="Node000007" class="node">
<title>Node7</title>
<g id="a_Node000007"><a xlink:title=" ">
<polygon fill="white" stroke="none" points="259.75,-33.5 116.75,-33.5 116.75,0 259.75,0 259.75,-33.5"/>
<text xml:space="preserve" text-anchor="start" x="120.75" y="-20" font-family="Helvetica,sans-Serif" font-size="10.00">std::array&lt; core::Descriptor</text>
<text xml:space="preserve" text-anchor="start" x="136.12" y="-7.25" font-family="Helvetica,sans-Serif" font-size="10.00">EventPublisher *, 3 &gt;</text>
<polygon fill="none" stroke="#666666" points="116.75,0 116.75,-33.5 259.75,-33.5 259.75,0 116.75,0"/>
</a>
</g>
</g>
<!-- Node7&#45;&gt;Node6 -->
<g id="edge7_Node000006_Node000007" class="edge">
<title>Node7&#45;&gt;Node6</title>
<g id="a_edge7_Node000006_Node000007"><a xlink:title=" ">
<path fill="none" stroke="#63b8ff" d="M183.19,-33.48C178.5,-49.45 172.25,-75 172.25,-97.62 172.25,-574.38 172.25,-574.38 172.25,-574.38 172.25,-597.05 189.33,-617.1 204.62,-630.5"/>
<polygon fill="none" stroke="#63b8ff" points="204.67,-630.55 211.85,-631.22 213.99,-638.11 206.81,-637.43 204.67,-630.55"/>
</a>
</g>
<text xml:space="preserve" text-anchor="start" x="175.25" y="-352" font-family="Helvetica,sans-Serif" font-size="10.00" fill="grey">#descriptorEventPublishers</text>
</g>
<!-- Node8&#45;&gt;Node7 -->
<g id="edge8_Node000007_Node000008" class="edge">
<title>Node8&#45;&gt;Node7</title>
<g id="a_edge8_Node000007_Node000008"><a xlink:title=" ">
<path fill="none" stroke="#63b8ff" d="M375.52,-88.31C343.01,-76.06 285.02,-54.21 242.15,-38.06"/>
<polygon fill="none" stroke="#63b8ff" points="242.01,-38.01 234.99,-39.63 230.78,-33.78 237.81,-32.15 242.01,-38.01"/>
</a>
</g>
<text xml:space="preserve" text-anchor="start" x="328.63" y="-57.75" font-family="Helvetica,sans-Serif" font-size="10.00" fill="grey">+elements</text>
</g>
<!-- Node8&#45;&gt;Node11 -->
<g id="edge14_Node000011_Node000008" class="edge">
<title>Node8&#45;&gt;Node11</title>
<g id="a_edge14_Node000011_Node000008"><a xlink:title=" ">
<path fill="none" stroke="#63b8ff" d="M390,-108.96C377.94,-120.56 358.32,-141.56 348.25,-163.75 342.44,-176.55 323.12,-253.72 335,-276.25 364.14,-331.5 430.81,-366.5 473.85,-384.21"/>
<polygon fill="none" stroke="#63b8ff" points="473.85,-384.21 480.9,-382.7 485,-388.62 477.95,-390.14 473.85,-384.21"/>
</a>
</g>
<text xml:space="preserve" text-anchor="start" x="338" y="-255.38" font-family="Helvetica,sans-Serif" font-size="10.00" fill="grey">&#45;descriptorEventPublisher</text>
</g>
<!-- Node9 -->
<g id="Node000009" class="node">
<title>Node9</title>
<g id="a_Node000009"><a xlink:title=" ">
<polygon fill="white" stroke="none" points="686.88,-216.38 541.62,-216.38 541.62,-170.12 686.88,-170.12 686.88,-216.38"/>
<text xml:space="preserve" text-anchor="start" x="545.62" y="-202.88" font-family="Helvetica,sans-Serif" font-size="10.00">std::map&lt; int, std</text>
<text xml:space="preserve" text-anchor="start" x="545.62" y="-190.12" font-family="Helvetica,sans-Serif" font-size="10.00">::list&lt; core::DescriptorEvent</text>
<text xml:space="preserve" text-anchor="start" x="577.5" y="-177.38" font-family="Helvetica,sans-Serif" font-size="10.00">Receiver * &gt; &gt;</text>
<polygon fill="none" stroke="#666666" points="541.62,-170.12 541.62,-216.38 686.88,-216.38 686.88,-170.12 541.62,-170.12"/>
</a>
</g>
</g>
<!-- Node9&#45;&gt;Node8 -->
<g id="edge9_Node000008_Node000009" class="edge">
<title>Node9&#45;&gt;Node8</title>
<g id="a_edge9_Node000008_Node000009"><a xlink:title=" ">
<path fill="none" stroke="#63b8ff" d="M582.4,-170.22C571.67,-162.63 559.71,-153.96 549,-145.75 538.6,-137.78 538.04,-132.72 526.25,-127 513.16,-120.65 498.61,-115.76 484.16,-112"/>
<polygon fill="none" stroke="#63b8ff" points="484.09,-111.98 477.32,-114.48 472.42,-109.19 479.19,-106.7 484.09,-111.98"/>
</a>
</g>
<text xml:space="preserve" text-anchor="start" x="552" y="-133.25" font-family="Helvetica,sans-Serif" font-size="10.00" fill="grey">#observedEventReceiverLists</text>
</g>
<!-- Node10 -->
<g id="Node000010" class="node">
<title>Node10</title>
<g id="a_Node000010"><a xlink:title=" ">
<polygon fill="white" stroke="none" points="579.5,-327.75 447,-327.75 447,-294.25 579.5,-294.25 579.5,-327.75"/>
<text xml:space="preserve" text-anchor="start" x="451" y="-314.25" font-family="Helvetica,sans-Serif" font-size="10.00">std::list&lt; core::Descriptor</text>
<text xml:space="preserve" text-anchor="start" x="468.25" y="-301.5" font-family="Helvetica,sans-Serif" font-size="10.00">EventReceiver * &gt;</text>
<polygon fill="none" stroke="#666666" points="447,-294.25 447,-327.75 579.5,-327.75 579.5,-294.25 447,-294.25"/>
</a>
</g>
</g>
<!-- Node10&#45;&gt;Node9 -->
<g id="edge10_Node000009_Node000010" class="edge">
<title>Node10&#45;&gt;Node9</title>
<g id="a_edge10_Node000009_Node000010"><a xlink:title=" ">
<path fill="none" stroke="#63b8ff" d="M534.72,-294.57C541.62,-289.14 549.07,-282.77 555.25,-276.25 569.43,-261.3 583.02,-242.8 593.57,-227.16"/>
<polygon fill="none" stroke="#63b8ff" points="593.59,-227.14 593.55,-219.93 600.19,-217.12 600.23,-224.33 593.59,-227.14"/>
</a>
</g>
<text xml:space="preserve" text-anchor="start" x="586.22" y="-255.38" font-family="Helvetica,sans-Serif" font-size="10.00" fill="grey">+elements</text>
</g>
<!-- Node14 -->
<g id="Node000014" class="node">
<title>Node14</title>
<g id="a_Node000014"><a xlink:title=" ">
<polygon fill="white" stroke="none" points="523.75,-222.75 356.75,-222.75 356.75,-163.75 523.75,-163.75 523.75,-222.75"/>
<text xml:space="preserve" text-anchor="start" x="360.75" y="-209.25" font-family="Helvetica,sans-Serif" font-size="10.00">std::map&lt; std::list</text>
<text xml:space="preserve" text-anchor="start" x="360.75" y="-196.5" font-family="Helvetica,sans-Serif" font-size="10.00">&lt; core::DescriptorEventReceiver</text>
<text xml:space="preserve" text-anchor="start" x="360.75" y="-183.75" font-family="Helvetica,sans-Serif" font-size="10.00"> * &gt; *, std::list&lt; core::Descriptor</text>
<text xml:space="preserve" text-anchor="start" x="389.62" y="-171" font-family="Helvetica,sans-Serif" font-size="10.00">EventReceiver * &gt; &gt;</text>
<polygon fill="none" stroke="#666666" points="356.75,-163.75 356.75,-222.75 523.75,-222.75 523.75,-163.75 356.75,-163.75"/>
</a>
</g>
</g>
<!-- Node10&#45;&gt;Node14 -->
<g id="edge18_Node000014_Node000010" class="edge">
<title>Node10&#45;&gt;Node14</title>
<g id="a_edge18_Node000014_Node000010"><a xlink:title=" ">
<path fill="none" stroke="#63b8ff" d="M503.4,-294.39C493.57,-278.8 478.07,-254.22 464.89,-233.31"/>
<polygon fill="none" stroke="#63b8ff" points="464.93,-233.38 458.35,-230.44 458.53,-223.23 465.11,-226.17 464.93,-233.38"/>
</a>
</g>
<text xml:space="preserve" text-anchor="start" x="494.68" y="-263.75" font-family="Helvetica,sans-Serif" font-size="10.00" fill="grey">+elements</text>
<text xml:space="preserve" text-anchor="start" x="494.68" y="-247" font-family="Helvetica,sans-Serif" font-size="10.00" fill="grey">+keys</text>
</g>
<!-- Node11&#45;&gt;Node10 -->
<g id="edge11_Node000010_Node000011" class="edge">
<title>Node11&#45;&gt;Node10</title>
<g id="a_edge11_Node000010_Node000011"><a xlink:title=" ">
<path fill="none" stroke="#63b8ff" d="M513.25,-389.02C513.25,-377.49 513.25,-357.22 513.25,-340.37"/>
<polygon fill="none" stroke="#63b8ff" points="513.25,-340.45 509.25,-334.45 513.25,-328.45 517.25,-334.45 513.25,-340.45"/>
</a>
</g>
<text xml:space="preserve" text-anchor="start" x="516.25" y="-352" font-family="Helvetica,sans-Serif" font-size="10.00" fill="grey">+elements</text>
</g>
<!-- Node12 -->
<g id="Node000012" class="node">
<title>Node12</title>
<g id="a_Node000012"><a xlink:href="classcore_1_1Observer.html" target="_top" xlink:title=" ">
<polygon fill="white" stroke="none" points="482.88,-508.25 403.62,-508.25 403.62,-487.5 482.88,-487.5 482.88,-508.25"/>
<text xml:space="preserve" text-anchor="start" x="407.62" y="-494.75" font-family="Helvetica,sans-Serif" font-size="10.00">core::Observer</text>
<polygon fill="none" stroke="#666666" points="403.62,-487.5 403.62,-508.25 482.88,-508.25 482.88,-487.5 403.62,-487.5"/>
</a>
</g>
</g>
<!-- Node12&#45;&gt;Node11 -->
<g id="edge12_Node000011_Node000012" class="edge">
<title>Node12&#45;&gt;Node11</title>
<g id="a_edge12_Node000011_Node000012"><a xlink:title=" ">
<path fill="none" stroke="darkgreen" d="M456.72,-478.29C471.69,-457.62 495.27,-425.07 506.66,-409.35"/>
<polygon fill="none" stroke="darkgreen" points="453.88,-476.23 450.85,-486.38 459.55,-480.34 453.88,-476.23"/>
</a>
</g>
</g>
<!-- Node13 -->
<g id="Node000013" class="node">
<title>Node13</title>
<g id="a_Node000013"><a xlink:href="classutils_1_1Timeval.html" target="_top" xlink:title=" ">
<polygon fill="white" stroke="none" points="606.25,-1049.75 532.25,-1049.75 532.25,-1029 606.25,-1029 606.25,-1049.75"/>
<text xml:space="preserve" text-anchor="start" x="536.25" y="-1036.25" font-family="Helvetica,sans-Serif" font-size="10.00">utils::Timeval</text>
<polygon fill="none" stroke="#666666" points="532.25,-1029 532.25,-1049.75 606.25,-1049.75 606.25,-1029 532.25,-1029"/>
</a>
</g>
</g>
<!-- Node13&#45;&gt;Node1 -->
<g id="edge30_Node000001_Node000013" class="edge">
<title>Node13&#45;&gt;Node1</title>
<g id="a_edge30_Node000001_Node000013"><a xlink:title=" ">
<path fill="none" stroke="#63b8ff" d="M550.36,-1029.06C518.63,-1013.41 454.4,-981.74 416.39,-962.99"/>
<polygon fill="none" stroke="#63b8ff" points="416.61,-963.1 409.46,-964.03 405.85,-957.79 413,-956.86 416.61,-963.1"/>
</a>
</g>
<text xml:space="preserve" text-anchor="start" x="513.06" y="-998.5" font-family="Helvetica,sans-Serif" font-size="10.00" fill="grey">&#45;absoluteTimeout</text>
<text xml:space="preserve" text-anchor="start" x="513.06" y="-981.75" font-family="Helvetica,sans-Serif" font-size="10.00" fill="grey">&#45;delay</text>
</g>
<!-- Node13&#45;&gt;Node11 -->
<g id="edge15_Node000011_Node000013" class="edge">
<title>Node13&#45;&gt;Node11</title>
<g id="a_edge15_Node000011_Node000013"><a xlink:title=" ">
<path fill="none" stroke="#63b8ff" d="M606.04,-1036.39C659.74,-1031.28 753.25,-1013.06 753.25,-948.12 753.25,-948.12 753.25,-948.12 753.25,-496.88 753.25,-458.37 645.59,-428.1 574.49,-412.31"/>
<polygon fill="none" stroke="#63b8ff" points="574.71,-412.35 568,-414.99 562.99,-409.81 569.7,-407.17 574.71,-412.35"/>
</a>
</g>
<text xml:space="preserve" text-anchor="start" x="756.25" y="-717" font-family="Helvetica,sans-Serif" font-size="10.00" fill="grey">&#45;initialTimeout</text>
<text xml:space="preserve" text-anchor="start" x="756.25" y="-700.25" font-family="Helvetica,sans-Serif" font-size="10.00" fill="grey">&#45;lastTriggered</text>
<text xml:space="preserve" text-anchor="start" x="756.25" y="-683.5" font-family="Helvetica,sans-Serif" font-size="10.00" fill="grey">&#45;maxInactivity</text>
</g>
<!-- Node14&#45;&gt;Node8 -->
<g id="edge17_Node000008_Node000014" class="edge">
<title>Node14&#45;&gt;Node8</title>
<g id="a_edge17_Node000008_Node000014"><a xlink:title=" ">
<path fill="none" stroke="#63b8ff" d="M411.33,-163.96C407.13,-158.34 403.41,-152.18 401,-145.75 398.19,-138.25 397.46,-129.57 397.61,-121.78"/>
<polygon fill="none" stroke="#63b8ff" points="397.62,-121.66 394.11,-115.37 398.57,-109.7 402.08,-115.99 397.62,-121.66"/>
</a>
</g>
<text xml:space="preserve" text-anchor="start" x="404" y="-133.25" font-family="Helvetica,sans-Serif" font-size="10.00" fill="grey">&#45;dirtyEventReceiverLists</text>
</g>
<!-- Node15 -->
<g id="Node000015" class="node">
<title>Node15</title>
<g id="a_Node000015"><a xlink:href="classcore_1_1TimerEventPublisher.html" target="_top" xlink:title=" ">
<polygon fill="white" stroke="none" points="296,-774.62 160.5,-774.62 160.5,-753.88 296,-753.88 296,-774.62"/>
<text xml:space="preserve" text-anchor="start" x="164.5" y="-761.12" font-family="Helvetica,sans-Serif" font-size="10.00">core::TimerEventPublisher</text>
<polygon fill="none" stroke="#666666" points="160.5,-753.88 160.5,-774.62 296,-774.62 296,-753.88 160.5,-753.88"/>
</a>
</g>
</g>
<!-- Node15&#45;&gt;Node1 -->
<g id="edge27_Node000001_Node000015" class="edge">
<title>Node15&#45;&gt;Node1</title>
<g id="a_edge27_Node000001_Node000015"><a xlink:title=" ">
<path fill="none" stroke="#63b8ff" d="M226.07,-774.49C221.62,-795.72 213.81,-848.69 237.5,-882 256.25,-908.37 288.2,-923.99 317.69,-933.2"/>
<polygon fill="none" stroke="#63b8ff" points="317.73,-933.21 324.6,-931.01 329.27,-936.51 322.4,-938.7 317.73,-933.21"/>
</a>
</g>
<text xml:space="preserve" text-anchor="start" x="240.5" y="-855.75" font-family="Helvetica,sans-Serif" font-size="10.00" fill="grey">&#45;timerEventPublisher</text>
</g>
<!-- Node15&#45;&gt;Node6 -->
<g id="edge19_Node000006_Node000015" class="edge">
<title>Node15&#45;&gt;Node6</title>
<g id="a_edge19_Node000006_Node000015"><a xlink:title=" ">
<path fill="none" stroke="#63b8ff" d="M228.25,-753.97C228.25,-736.2 228.25,-696.89 228.25,-671.99"/>
<polygon fill="none" stroke="#63b8ff" points="228.25,-671.87 224.25,-665.87 228.25,-659.87 232.25,-665.87 228.25,-671.87"/>
</a>
</g>
<text xml:space="preserve" text-anchor="start" x="231.25" y="-700.25" font-family="Helvetica,sans-Serif" font-size="10.00" fill="grey">&#45;timerEventPublisher</text>
</g>
<!-- Node16&#45;&gt;Node15 -->
<g id="edge20_Node000015_Node000016" class="edge">
<title>Node16&#45;&gt;Node15</title>
<g id="a_edge20_Node000015_Node000016"><a xlink:title=" ">
<path fill="none" stroke="#63b8ff" d="M117.46,-835.85C129.54,-824.04 145.34,-809.75 161,-799 171.25,-791.96 183.18,-785.49 194.11,-780.14"/>
<polygon fill="none" stroke="#63b8ff" points="194.22,-780.09 197.95,-773.92 205.08,-774.99 201.35,-781.16 194.22,-780.09"/>
</a>
</g>
<text xml:space="preserve" text-anchor="start" x="164" y="-805.25" font-family="Helvetica,sans-Serif" font-size="10.00" fill="grey">&#45;timerList</text>
</g>
<!-- Node17&#45;&gt;Node15 -->
<g id="edge22_Node000015_Node000017" class="edge">
<title>Node17&#45;&gt;Node15</title>
<g id="a_edge22_Node000015_Node000017"><a xlink:title=" ">
<path fill="none" stroke="#63b8ff" d="M457.43,-842.16C404.23,-824.31 318.32,-795.48 268.17,-778.65"/>
<polygon fill="none" stroke="#63b8ff" points="268.16,-778.64 261.2,-780.53 256.78,-774.83 263.75,-772.94 268.16,-778.64"/>
</a>
</g>
<text xml:space="preserve" text-anchor="start" x="385.77" y="-805.25" font-family="Helvetica,sans-Serif" font-size="10.00" fill="grey">&#45;removedList</text>
</g>
<!-- Node18 -->
<g id="Node000018" class="node">
<title>Node18</title>
<g id="a_Node000018"><a xlink:href="classcore_1_1EventMultiplexer_1_1EventQueue.html" target="_top" xlink:title=" ">
<polygon fill="white" stroke="none" points="334.38,-416 216.12,-416 216.12,-382.5 334.38,-382.5 334.38,-416"/>
<text xml:space="preserve" text-anchor="start" x="220.12" y="-402.5" font-family="Helvetica,sans-Serif" font-size="10.00">core::EventMultiplexer</text>
<text xml:space="preserve" text-anchor="start" x="242.62" y="-389.75" font-family="Helvetica,sans-Serif" font-size="10.00">::EventQueue</text>
<polygon fill="none" stroke="#666666" points="216.12,-382.5 216.12,-416 334.38,-416 334.38,-382.5 216.12,-382.5"/>
</a>
</g>
</g>
<!-- Node18&#45;&gt;Node6 -->
<g id="edge24_Node000006_Node000018" class="edge">
<title>Node18&#45;&gt;Node6</title>
<g id="a_edge24_Node000006_Node000018"><a xlink:title=" ">
<path fill="none" stroke="#63b8ff" d="M269.27,-415.76C262.85,-433.02 252.83,-461.85 247.25,-487.5 236.65,-536.24 231.61,-594.68 229.52,-625.81"/>
<polygon fill="none" stroke="#63b8ff" points="229.51,-625.85 233.13,-632.09 228.77,-637.83 225.15,-631.6 229.51,-625.85"/>
</a>
</g>
<text xml:space="preserve" text-anchor="start" x="242.93" y="-532.5" font-family="Helvetica,sans-Serif" font-size="10.00" fill="grey">&#45;eventQueue</text>
</g>
<!-- Node19&#45;&gt;Node18 -->
<g id="edge25_Node000018_Node000019" class="edge">
<title>Node19&#45;&gt;Node18</title>
<g id="a_edge25_Node000018_Node000019"><a xlink:title=" ">
<path fill="none" stroke="#63b8ff" d="M316.84,-487.61C310.32,-473.92 297.86,-447.73 288.26,-427.59"/>
<polygon fill="none" stroke="#63b8ff" points="288.29,-427.64 282.1,-423.94 283.13,-416.8 289.32,-420.5 288.29,-427.64"/>
</a>
</g>
<text xml:space="preserve" text-anchor="start" x="310.66" y="-457" font-family="Helvetica,sans-Serif" font-size="10.00" fill="grey">&#45;executeQueue</text>
<text xml:space="preserve" text-anchor="start" x="310.66" y="-440.25" font-family="Helvetica,sans-Serif" font-size="10.00" fill="grey">&#45;publishQueue</text>
</g>
<!-- Node20&#45;&gt;Node1 -->
<g id="edge28_Node000001_Node000020" class="edge">
<title>Node20&#45;&gt;Node1</title>
<g id="a_edge28_Node000001_Node000020"><a xlink:title=" ">
<path fill="none" stroke="#63b8ff" d="M365.06,-869.13C343.67,-879.85 315.5,-898.63 328.25,-918.75 331.17,-923.35 335.09,-927.2 339.52,-930.4"/>
<polygon fill="none" stroke="#63b8ff" points="339.4,-930.33 346.6,-929.87 349.79,-936.33 342.6,-936.8 339.4,-930.33"/>
</a>
</g>
<text xml:space="preserve" text-anchor="start" x="331.25" y="-906.25" font-family="Helvetica,sans-Serif" font-size="10.00" fill="grey">&#45;timer</text>
</g>
</g>
</svg>
