<?xml version="1.0" encoding="UTF-8" standalone="no"?>
<!DOCTYPE svg PUBLIC "-//W3C//DTD SVG 1.1//EN"
 "http://www.w3.org/Graphics/SVG/1.1/DTD/svg11.dtd">
<!-- Generated by graphviz version 2.42.4 (0)
 -->
<!-- Title: web::websocket::Transmitter Pages: 1 -->
<svg width="403pt" height="281pt"
 viewBox="0.00 0.00 403.00 281.00" xmlns="http://www.w3.org/2000/svg" xmlns:xlink="http://www.w3.org/1999/xlink">
<g id="graph0" class="graph" transform="scale(1 1) rotate(0) translate(4 277)">
<title>web::websocket::Transmitter</title>
<!-- Node1 -->
<g id="Node000001" class="node">
<title>Node1</title>
<g id="a_Node000001"><a xlink:title=" ">
<polygon fill="#999999" stroke="transparent" points="391,-24.5 255,-24.5 255,-5.5 391,-5.5 391,-24.5"/>
<text text-anchor="start" x="259.5" y="-12" font-family="Helvetica,sans-Serif" font-size="10.00">web::websocket::Transmitter</text>
<polygon fill="none" stroke="#666666" points="255,-5.5 255,-24.5 391,-24.5 391,-5.5 255,-5.5"/>
</a>
</g>
</g>
<!-- Node2 -->
<g id="Node000002" class="node">
<title>Node2</title>
<g id="a_Node000002"><a xlink:href="classcore_1_1socket_1_1stream_1_1SocketConnection.html" target="_top" xlink:title=" ">
<polygon fill="white" stroke="transparent" points="258,-118 158,-118 158,-88 258,-88 258,-118"/>
<text text-anchor="start" x="162.5" y="-106" font-family="Helvetica,sans-Serif" font-size="10.00">core::socket::stream</text>
<text text-anchor="start" x="164.5" y="-95" font-family="Helvetica,sans-Serif" font-size="10.00">::SocketConnection</text>
<polygon fill="none" stroke="#666666" points="158,-88 158,-118 258,-118 258,-88 158,-88"/>
</a>
</g>
</g>
<!-- Node2&#45;&gt;Node1 -->
<g id="edge1_Node000001_Node000002" class="edge">
<title>Node2&#45;&gt;Node1</title>
<g id="a_edge1_Node000001_Node000002"><a xlink:title=" ">
<path fill="none" stroke="#63b8ff" d="M258.41,-90.51C271.39,-85.77 284.62,-79.15 295,-70 305.25,-60.97 312.29,-47.28 316.74,-35.95"/>
<polygon fill="none" stroke="#63b8ff" points="316.77,-35.86 314.97,-28.88 320.71,-24.52 322.52,-31.5 316.77,-35.86"/>
</a>
</g>
<text text-anchor="middle" x="352.5" y="-56.5" font-family="Helvetica,sans-Serif" font-size="10.00" fill="grey"> &#45;socketConnection</text>
</g>
<!-- Node3 -->
<g id="Node000003" class="node">
<title>Node3</title>
<g id="a_Node000003"><a xlink:href="classcore_1_1socket_1_1stream_1_1SocketContext.html" target="_top" xlink:title=" ">
<polygon fill="white" stroke="transparent" points="150,-30 50,-30 50,0 150,0 150,-30"/>
<text text-anchor="start" x="54.5" y="-18" font-family="Helvetica,sans-Serif" font-size="10.00">core::socket::stream</text>
<text text-anchor="start" x="64" y="-7" font-family="Helvetica,sans-Serif" font-size="10.00">::SocketContext</text>
<polygon fill="none" stroke="#666666" points="50,0 50,-30 150,-30 150,0 50,0"/>
</a>
</g>
</g>
<!-- Node2&#45;&gt;Node3 -->
<g id="edge4_Node000003_Node000002" class="edge">
<title>Node2&#45;&gt;Node3</title>
<g id="a_edge4_Node000003_Node000002"><a xlink:title=" ">
<path fill="none" stroke="#63b8ff" d="M157.9,-90.47C130.37,-83.63 100.98,-75.29 97,-70 91.11,-62.17 90.52,-51.76 91.89,-42.17"/>
<polygon fill="none" stroke="#63b8ff" points="91.92,-42.03 89.32,-35.3 94.53,-30.32 97.13,-37.05 91.92,-42.03"/>
</a>
</g>
<text text-anchor="middle" x="139.5" y="-56.5" font-family="Helvetica,sans-Serif" font-size="10.00" fill="grey"> &#45;socketConnection</text>
</g>
<!-- Node3&#45;&gt;Node2 -->
<g id="edge2_Node000002_Node000003" class="edge">
<title>Node3&#45;&gt;Node2</title>
<g id="a_edge2_Node000002_Node000003"><a xlink:title=" ">
<path fill="none" stroke="#63b8ff" d="M150.39,-26.97C163.23,-31.72 176.17,-38.46 186,-48 193.77,-55.53 198.88,-66.19 202.21,-76.04"/>
<polygon fill="none" stroke="#63b8ff" points="202.27,-76.26 207.75,-80.95 205.53,-87.81 200.05,-83.12 202.27,-76.26"/>
</a>
</g>
<text text-anchor="middle" x="245" y="-62" font-family="Helvetica,sans-Serif" font-size="10.00" fill="grey"> #newSocketContext</text>
<text text-anchor="middle" x="245" y="-51" font-family="Helvetica,sans-Serif" font-size="10.00" fill="grey">#socketContext</text>
</g>
<!-- Node4 -->
<g id="Node000004" class="node">
<title>Node4</title>
<g id="a_Node000004"><a xlink:href="classcore_1_1socket_1_1SocketContext.html" target="_top" xlink:title=" ">
<polygon fill="white" stroke="transparent" points="134,-112.5 0,-112.5 0,-93.5 134,-93.5 134,-112.5"/>
<text text-anchor="start" x="4" y="-100" font-family="Helvetica,sans-Serif" font-size="10.00">core::socket::SocketContext</text>
<polygon fill="none" stroke="#666666" points="0,-93.5 0,-112.5 134,-112.5 134,-93.5 0,-93.5"/>
</a>
</g>
</g>
<!-- Node4&#45;&gt;Node3 -->
<g id="edge3_Node000003_Node000004" class="edge">
<title>Node4&#45;&gt;Node3</title>
<g id="a_edge3_Node000003_Node000004"><a xlink:title=" ">
<path fill="none" stroke="#63b8ff" d="M70.44,-83.5C72.75,-72.87 76.25,-59.41 81,-48 83.53,-41.92 87.07,-35.6 90.4,-30.2"/>
<polygon fill="none" stroke="#63b8ff" points="67,-82.85 68.46,-93.34 73.87,-84.23 67,-82.85"/>
</a>
</g>
</g>
<!-- Node5 -->
<g id="Node000005" class="node">
<title>Node5</title>
<g id="a_Node000005"><a xlink:title=" ">
<polygon fill="white" stroke="transparent" points="234,-206 182,-206 182,-187 234,-187 234,-206"/>
<text text-anchor="start" x="186" y="-193.5" font-family="Helvetica,sans-Serif" font-size="10.00">std::string</text>
<polygon fill="none" stroke="#666666" points="182,-187 182,-206 234,-206 234,-187 182,-187"/>
</a>
</g>
</g>
<!-- Node5&#45;&gt;Node2 -->
<g id="edge5_Node000002_Node000005" class="edge">
<title>Node5&#45;&gt;Node2</title>
<g id="a_edge5_Node000002_Node000005"><a xlink:title=" ">
<path fill="none" stroke="#63b8ff" d="M208,-186.73C208,-173.86 208,-149.34 208,-130.33"/>
<polygon fill="none" stroke="#63b8ff" points="208,-130.25 204,-124.25 208,-118.25 212,-124.25 208,-130.25"/>
</a>
</g>
<text text-anchor="middle" x="249" y="-161" font-family="Helvetica,sans-Serif" font-size="10.00" fill="grey"> #configuredServer</text>
<text text-anchor="middle" x="249" y="-150" font-family="Helvetica,sans-Serif" font-size="10.00" fill="grey">#connectionName</text>
<text text-anchor="middle" x="249" y="-139" font-family="Helvetica,sans-Serif" font-size="10.00" fill="grey">#instanceName</text>
</g>
<!-- Node6 -->
<g id="Node000006" class="node">
<title>Node6</title>
<g id="a_Node000006"><a xlink:title=" ">
<polygon fill="white" stroke="transparent" points="252,-273 164,-273 164,-243 252,-243 252,-273"/>
<text text-anchor="start" x="168.5" y="-261" font-family="Helvetica,sans-Serif" font-size="10.00">std::basic_string&lt;</text>
<text text-anchor="start" x="191" y="-250" font-family="Helvetica,sans-Serif" font-size="10.00"> Char &gt;</text>
<polygon fill="none" stroke="#666666" points="164,-243 164,-273 252,-273 252,-243 164,-243"/>
</a>
</g>
</g>
<!-- Node6&#45;&gt;Node5 -->
<g id="edge6_Node000005_Node000006" class="edge">
<title>Node6&#45;&gt;Node5</title>
<g id="a_edge6_Node000005_Node000006"><a xlink:title=" ">
<path fill="none" stroke="#63b8ff" d="M208,-232.79C208,-223.36 208,-213.15 208,-206.16"/>
<polygon fill="none" stroke="#63b8ff" points="204.5,-232.9 208,-242.9 211.5,-232.9 204.5,-232.9"/>
</a>
</g>
</g>
</g>
</svg>
