<?xml version="1.0" encoding="UTF-8" standalone="no"?>
<!DOCTYPE svg PUBLIC "-//W3C//DTD SVG 1.1//EN"
 "http://www.w3.org/Graphics/SVG/1.1/DTD/svg11.dtd">
<!-- Generated by graphviz version 2.42.4 (0)
 -->
<!-- Title: net::rc::stream::config::ConfigSocketClient Pages: 1 -->
<!--zoomable 762 -->

<svg id="main" version="1.1" xmlns="http://www.w3.org/2000/svg" xmlns:xlink="http://www.w3.org/1999/xlink" xml:space="preserve" onload="init(evt)">

<style type="text/css"><![CDATA[
.node, .edge {opacity: 0.7;}
.node.selected, .edge.selected {opacity: 1;}
.edge:hover path { stroke: red; }
.edge:hover polygon { stroke: red; fill: red; }
]]></style>

<defs>
  <circle id="rim" cx="0" cy="0" r="7"/>
  <circle id="rim2" cx="0" cy="0" r="3.5"/>
  <g id="zoomPlus">
    <use xlink:href="#rim" fill="#404040"><set attributeName="fill" to="#808080" begin="zoomplus.mouseover" end="zoomplus.mouseout"/></use>
    <path d="M-4,0h8M0,-4v8" fill="none" stroke="white" stroke-width="1.5" pointer-events="none"/>
  </g>
  <g id="zoomMin">
    <use xlink:href="#rim" fill="#404040"><set attributeName="fill" to="#808080" begin="zoomminus.mouseover" end="zoomminus.mouseout"/></use>
    <path d="M-4,0h8" fill="none" stroke="white" stroke-width="1.5" pointer-events="none"/>
  </g>
  <g id="arrowUp" transform="translate(30 24)">
    <use xlink:href="#rim"/>
    <path pointer-events="none" fill="none" stroke="white" stroke-width="1.5" d="M0,-3.0v7 M-2.5,-0.5L0,-3.0L2.5,-0.5"/>
  </g>
  <g id="arrowRight" transform="rotate(90) translate(36 -43)">
    <use xlink:href="#rim"/>
    <path pointer-events="none" fill="none" stroke="white" stroke-width="1.5" d="M0,-3.0v7 M-2.5,-0.5L0,-3.0L2.5,-0.5"/>
  </g>
  <g id="arrowDown" transform="rotate(180) translate(-30 -48)">
    <use xlink:href="#rim"/>
    <path pointer-events="none" fill="none" stroke="white" stroke-width="1.5" d="M0,-3.0v7 M-2.5,-0.5L0,-3.0L2.5,-0.5"/>
  </g>
  <g id="arrowLeft" transform="rotate(270) translate(-36 17)">
    <use xlink:href="#rim"/>
    <path pointer-events="none" fill="none" stroke="white" stroke-width="1.5" d="M0,-3.0v7 M-2.5,-0.5L0,-3.0L2.5,-0.5"/>
  </g>
  <g id="resetDef">
    <use xlink:href="#rim2" fill="#404040"><set attributeName="fill" to="#808080" begin="reset.mouseover" end="reset.mouseout"/></use>
  </g>
</defs>
<script type="application/ecmascript">
var viewWidth = 711;
var viewHeight = 762;
var sectionId = 'dynsection-1';
</script>
<script type="application/ecmascript" xlink:href="svg.min.js"/>
<svg id="graph" class="graph">
<g id="viewport">
<title>net::rc::stream::config::ConfigSocketClient</title>
<!-- Node1 -->
<g id="Node000001" class="node">
<title>Node1</title>
<g id="a_Node000001"><a xlink:title=" ">
<polygon fill="#999999" stroke="transparent" points="343,-30 227,-30 227,0 343,0 343,-30"/>
<text text-anchor="start" x="231" y="-18" font-family="Helvetica,sans-Serif" font-size="10.00">net::rc::stream::config</text>
<text text-anchor="start" x="235.5" y="-7" font-family="Helvetica,sans-Serif" font-size="10.00">::ConfigSocketClient</text>
<polygon fill="none" stroke="#666666" points="227,0 227,-30 343,-30 343,0 227,0"/>
</a>
</g>
</g>
<!-- Node2 -->
<g id="Node000002" class="node">
<title>Node2</title>
<g id="a_Node000002"><a xlink:href="classnet_1_1config_1_1stream_1_1ConfigSocketClient.html" target="_top" xlink:title=" ">
<polygon fill="white" stroke="transparent" points="372,-108 198,-108 198,-67 372,-67 372,-108"/>
<text text-anchor="start" x="202" y="-95.5" font-family="Helvetica,sans-Serif" font-size="10.00">net::config::stream</text>
<text text-anchor="start" x="202" y="-84.5" font-family="Helvetica,sans-Serif" font-size="10.00">::ConfigSocketClient</text>
<text text-anchor="start" x="202" y="-73.5" font-family="Helvetica,sans-Serif" font-size="10.00">&lt; net::rc::config::ConfigAddress &gt;</text>
<polygon fill="none" stroke="#666666" points="198,-67 198,-108 372,-108 372,-67 198,-67"/>
</a>
</g>
</g>
<!-- Node2&#45;&gt;Node1 -->
<g id="edge1_Node000001_Node000002" class="edge">
<title>Node2&#45;&gt;Node1</title>
<g id="a_edge1_Node000001_Node000002"><a xlink:title=" ">
<path fill="none" stroke="#63b8ff" d="M285,-56.58C285,-47.51 285,-37.95 285,-30.39"/>
<polygon fill="none" stroke="#63b8ff" points="281.5,-56.86 285,-66.86 288.5,-56.86 281.5,-56.86"/>
</a>
</g>
</g>
<!-- Node3 -->
<g id="Node000003" class="node">
<title>Node3</title>
<g id="a_Node000003"><a xlink:href="classnet_1_1rc_1_1config_1_1ConfigAddress.html" target="_top" xlink:title=" ">
<polygon fill="white" stroke="transparent" points="499,-175 301,-175 301,-145 499,-145 499,-175"/>
<text text-anchor="start" x="305" y="-163" font-family="Helvetica,sans-Serif" font-size="10.00">net::rc::config::ConfigAddress</text>
<text text-anchor="start" x="305" y="-152" font-family="Helvetica,sans-Serif" font-size="10.00">&lt; net::config::ConfigAddressRemote &gt;</text>
<polygon fill="none" stroke="#666666" points="301,-145 301,-175 499,-175 499,-145 301,-145"/>
</a>
</g>
</g>
<!-- Node3&#45;&gt;Node2 -->
<g id="edge2_Node000002_Node000003" class="edge">
<title>Node3&#45;&gt;Node2</title>
<g id="a_edge2_Node000002_Node000003"><a xlink:title=" ">
<path fill="none" stroke="#63b8ff" d="M368.08,-139.43C352.18,-129.69 333.02,-117.94 317.1,-108.18"/>
<polygon fill="none" stroke="#63b8ff" points="366.65,-142.66 377,-144.9 370.31,-136.69 366.65,-142.66"/>
</a>
</g>
</g>
<!-- Node4 -->
<g id="Node000004" class="node">
<title>Node4</title>
<g id="a_Node000004"><a xlink:href="classnet_1_1config_1_1ConfigAddressRemote.html" target="_top" xlink:title=" ">
<polygon fill="white" stroke="transparent" points="504,-242 326,-242 326,-212 504,-212 504,-242"/>
<text text-anchor="start" x="330.5" y="-230" font-family="Helvetica,sans-Serif" font-size="10.00">net::config::ConfigAddress</text>
<text text-anchor="start" x="330.5" y="-219" font-family="Helvetica,sans-Serif" font-size="10.00">Remote&lt; net::rc::SocketAddress &gt;</text>
<polygon fill="none" stroke="#666666" points="326,-212 326,-242 504,-242 504,-212 326,-212"/>
</a>
</g>
</g>
<!-- Node4&#45;&gt;Node3 -->
<g id="edge3_Node000003_Node000004" class="edge">
<title>Node4&#45;&gt;Node3</title>
<g id="a_edge3_Node000003_Node000004"><a xlink:title=" ">
<path fill="none" stroke="#63b8ff" d="M409.44,-201.9C407.35,-192.87 405.06,-182.91 403.25,-175.08"/>
<polygon fill="none" stroke="#63b8ff" points="406.09,-202.94 411.75,-211.9 412.91,-201.37 406.09,-202.94"/>
</a>
</g>
</g>
<!-- Node5 -->
<g id="Node000005" class="node">
<title>Node5</title>
<g id="a_Node000005"><a xlink:href="classnet_1_1config_1_1ConfigAddress.html" target="_top" xlink:title=" ">
<polygon fill="white" stroke="transparent" points="629,-338 489,-338 489,-308 629,-308 629,-338"/>
<text text-anchor="start" x="493.5" y="-326" font-family="Helvetica,sans-Serif" font-size="10.00">net::config::ConfigAddress</text>
<text text-anchor="start" x="493.5" y="-315" font-family="Helvetica,sans-Serif" font-size="10.00">&lt; net::rc::SocketAddress &gt;</text>
<polygon fill="none" stroke="#666666" points="489,-308 489,-338 629,-338 629,-308 489,-308"/>
</a>
</g>
</g>
<!-- Node5&#45;&gt;Node4 -->
<g id="edge4_Node000004_Node000005" class="edge">
<title>Node5&#45;&gt;Node4</title>
<g id="a_edge4_Node000004_Node000005"><a xlink:title=" ">
<path fill="none" stroke="#63b8ff" d="M528.97,-302.4C501.42,-284.41 461.26,-258.2 436.71,-242.17"/>
<polygon fill="none" stroke="#63b8ff" points="527.15,-305.39 537.44,-307.93 530.98,-299.53 527.15,-305.39"/>
</a>
</g>
</g>
<!-- Node15 -->
<g id="Node000015" class="node">
<title>Node15</title>
<g id="a_Node000015"><a xlink:href="classnet_1_1config_1_1ConfigAddressLocal.html" target="_top" xlink:title=" ">
<polygon fill="white" stroke="transparent" points="689,-242 523,-242 523,-212 689,-212 689,-242"/>
<text text-anchor="start" x="527.5" y="-230" font-family="Helvetica,sans-Serif" font-size="10.00">net::config::ConfigAddress</text>
<text text-anchor="start" x="527.5" y="-219" font-family="Helvetica,sans-Serif" font-size="10.00">Local&lt; net::rc::SocketAddress &gt;</text>
<polygon fill="none" stroke="#666666" points="523,-212 523,-242 689,-242 689,-212 523,-212"/>
</a>
</g>
</g>
<!-- Node5&#45;&gt;Node15 -->
<g id="edge16_Node000015_Node000005" class="edge">
<title>Node5&#45;&gt;Node15</title>
<g id="a_edge16_Node000015_Node000005"><a xlink:title=" ">
<path fill="none" stroke="#63b8ff" d="M570.71,-298.58C579.58,-280.83 591.49,-257.03 598.95,-242.1"/>
<polygon fill="none" stroke="#63b8ff" points="567.48,-297.21 566.14,-307.72 573.74,-300.34 567.48,-297.21"/>
</a>
</g>
</g>
<!-- Node6 -->
<g id="Node000006" class="node">
<title>Node6</title>
<g id="a_Node000006"><a xlink:href="classnet_1_1config_1_1ConfigAddressBase.html" target="_top" xlink:title=" ">
<polygon fill="white" stroke="transparent" points="555,-423 391,-423 391,-393 555,-393 555,-423"/>
<text text-anchor="start" x="395.5" y="-411" font-family="Helvetica,sans-Serif" font-size="10.00">net::config::ConfigAddress</text>
<text text-anchor="start" x="395.5" y="-400" font-family="Helvetica,sans-Serif" font-size="10.00">Base&lt; net::rc::SocketAddress &gt;</text>
<polygon fill="none" stroke="#666666" points="391,-393 391,-423 555,-423 555,-393 391,-393"/>
</a>
</g>
</g>
<!-- Node6&#45;&gt;Node5 -->
<g id="edge5_Node000005_Node000006" class="edge">
<title>Node6&#45;&gt;Node5</title>
<g id="a_edge5_Node000005_Node000006"><a xlink:title=" ">
<path fill="none" stroke="#63b8ff" d="M495.18,-385.59C510.65,-370.66 530.85,-351.17 544.34,-338.15"/>
<polygon fill="none" stroke="#63b8ff" points="492.35,-383.46 487.59,-392.92 497.21,-388.49 492.35,-383.46"/>
</a>
</g>
</g>
<!-- Node7 -->
<g id="Node000007" class="node">
<title>Node7</title>
<g id="a_Node000007"><a xlink:href="classnet_1_1config_1_1ConfigSection.html" target="_top" xlink:title=" ">
<polygon fill="white" stroke="transparent" points="373,-506 239,-506 239,-487 373,-487 373,-506"/>
<text text-anchor="start" x="243" y="-493.5" font-family="Helvetica,sans-Serif" font-size="10.00">net::config::ConfigSection</text>
<polygon fill="none" stroke="#666666" points="239,-487 239,-506 373,-506 373,-487 239,-487"/>
</a>
</g>
</g>
<!-- Node7&#45;&gt;Node6 -->
<g id="edge6_Node000006_Node000007" class="edge">
<title>Node7&#45;&gt;Node6</title>
<g id="a_edge6_Node000006_Node000007"><a xlink:title=" ">
<path fill="none" stroke="darkgreen" d="M331.88,-482.09C362.79,-466.09 414.24,-439.44 445.74,-423.12"/>
<polygon fill="none" stroke="darkgreen" points="329.89,-479.18 322.62,-486.89 333.11,-485.4 329.89,-479.18"/>
</a>
</g>
</g>
<!-- Node16 -->
<g id="Node000016" class="node">
<title>Node16</title>
<g id="a_Node000016"><a xlink:href="classnet_1_1config_1_1ConfigConnection.html" target="_top" xlink:title=" ">
<polygon fill="white" stroke="transparent" points="286,-375 132,-375 132,-356 286,-356 286,-375"/>
<text text-anchor="start" x="136.5" y="-362.5" font-family="Helvetica,sans-Serif" font-size="10.00">net::config::ConfigConnection</text>
<polygon fill="none" stroke="#666666" points="132,-356 132,-375 286,-375 286,-356 132,-356"/>
</a>
</g>
</g>
<!-- Node7&#45;&gt;Node16 -->
<g id="edge18_Node000016_Node000007" class="edge">
<title>Node7&#45;&gt;Node16</title>
<g id="a_edge18_Node000016_Node000007"><a xlink:title=" ">
<path fill="none" stroke="darkgreen" d="M284.38,-481.06C266.32,-467.92 241.14,-446.97 226,-423 216.37,-407.76 211.95,-386.77 210.12,-375.14"/>
<polygon fill="none" stroke="darkgreen" points="282.42,-483.95 292.61,-486.86 286.45,-478.23 282.42,-483.95"/>
</a>
</g>
</g>
<!-- Node18 -->
<g id="Node000018" class="node">
<title>Node18</title>
<g id="a_Node000018"><a xlink:href="classnet_1_1config_1_1ConfigPhysicalSocket.html" target="_top" xlink:title=" ">
<polygon fill="white" stroke="transparent" points="373,-423 235,-423 235,-393 373,-393 373,-423"/>
<text text-anchor="start" x="239" y="-411" font-family="Helvetica,sans-Serif" font-size="10.00">net::config::ConfigPhysical</text>
<text text-anchor="start" x="287.5" y="-400" font-family="Helvetica,sans-Serif" font-size="10.00">Socket</text>
<polygon fill="none" stroke="#666666" points="235,-393 235,-423 373,-423 373,-393 235,-393"/>
</a>
</g>
</g>
<!-- Node7&#45;&gt;Node18 -->
<g id="edge21_Node000018_Node000007" class="edge">
<title>Node7&#45;&gt;Node18</title>
<g id="a_edge21_Node000018_Node000007"><a xlink:title=" ">
<path fill="none" stroke="darkgreen" d="M305.56,-476.58C305.19,-460.53 304.67,-437.84 304.33,-423.28"/>
<polygon fill="none" stroke="darkgreen" points="302.07,-476.97 305.8,-486.89 309.07,-476.81 302.07,-476.97"/>
</a>
</g>
</g>
<!-- Node8 -->
<g id="Node000008" class="node">
<title>Node8</title>
<g id="a_Node000008"><a xlink:href="classnet_1_1config_1_1ConfigInstance.html" target="_top" xlink:title=" ">
<polygon fill="white" stroke="transparent" points="440,-589 300,-589 300,-570 440,-570 440,-589"/>
<text text-anchor="start" x="304.5" y="-576.5" font-family="Helvetica,sans-Serif" font-size="10.00">net::config::ConfigInstance</text>
<polygon fill="none" stroke="#666666" points="300,-570 300,-589 440,-589 440,-570 300,-570"/>
</a>
</g>
</g>
<!-- Node8&#45;&gt;Node7 -->
<g id="edge7_Node000007_Node000008" class="edge">
<title>Node8&#45;&gt;Node7</title>
<g id="a_edge7_Node000007_Node000008"><a xlink:title=" ">
<path fill="none" stroke="#63b8ff" d="M363.15,-569.83C353.1,-557.11 334.1,-533.07 320.78,-516.2"/>
<polygon fill="none" stroke="#63b8ff" points="320.43,-515.77 313.58,-513.54 312.99,-506.35 319.85,-508.58 320.43,-515.77"/>
</a>
</g>
<text text-anchor="start" x="350" y="-540.5" font-family="Helvetica,sans-Serif" font-size="10.00" fill="grey">&#45;instance</text>
</g>
<!-- Node9 -->
<g id="Node000009" class="node">
<title>Node9</title>
<g id="a_Node000009"><a xlink:title=" ">
<polygon fill="white" stroke="transparent" points="427,-681.5 369,-681.5 369,-662.5 427,-662.5 427,-681.5"/>
<text text-anchor="start" x="373.5" y="-669" font-family="Helvetica,sans-Serif" font-size="10.00">std::string</text>
<polygon fill="none" stroke="#666666" points="369,-662.5 369,-681.5 427,-681.5 427,-662.5 369,-662.5"/>
</a>
</g>
</g>
<!-- Node9&#45;&gt;Node8 -->
<g id="edge8_Node000008_Node000009" class="edge">
<title>Node9&#45;&gt;Node8</title>
<g id="a_edge8_Node000008_Node000009"><a xlink:title=" ">
<path fill="none" stroke="#63b8ff" d="M390.73,-662.36C386,-656.24 380.14,-647.61 377,-639 372.61,-626.98 370.84,-612.73 370.18,-601.31"/>
<polygon fill="none" stroke="#63b8ff" points="370.17,-601.11 366,-595.23 369.82,-589.11 373.99,-594.99 370.17,-601.11"/>
</a>
</g>
<text text-anchor="start" x="380" y="-628" font-family="Helvetica,sans-Serif" font-size="10.00" fill="grey">&#45;instanceName</text>
<text text-anchor="start" x="380" y="-613" font-family="Helvetica,sans-Serif" font-size="10.00" fill="grey">&#45;nameAnonymous</text>
</g>
<!-- Node11 -->
<g id="Node000011" class="node">
<title>Node11</title>
<g id="a_Node000011"><a xlink:href="classnet_1_1rc_1_1SocketAddress.html" target="_top" xlink:title=" ">
<polygon fill="white" stroke="transparent" points="631,-589 513,-589 513,-570 631,-570 631,-589"/>
<text text-anchor="start" x="517.5" y="-576.5" font-family="Helvetica,sans-Serif" font-size="10.00">net::rc::SocketAddress</text>
<polygon fill="none" stroke="#666666" points="513,-570 513,-589 631,-589 631,-570 513,-570"/>
</a>
</g>
</g>
<!-- Node9&#45;&gt;Node11 -->
<g id="edge13_Node000011_Node000009" class="edge">
<title>Node9&#45;&gt;Node11</title>
<g id="a_edge13_Node000011_Node000009"><a xlink:title=" ">
<path fill="none" stroke="#63b8ff" d="M423.67,-662.41C438.65,-656.83 457.58,-648.78 473,-639 491.08,-627.54 490.89,-618.41 509,-607 517.1,-601.9 526.34,-597.38 535.22,-593.58"/>
<polygon fill="none" stroke="#63b8ff" points="535.4,-593.51 539.47,-587.56 546.53,-589.02 542.46,-594.98 535.4,-593.51"/>
</a>
</g>
<text text-anchor="start" x="512.5" y="-620" font-family="Helvetica,sans-Serif" font-size="10.00" fill="grey">&#45;btAddress</text>
</g>
<!-- Node10 -->
<g id="Node000010" class="node">
<title>Node10</title>
<g id="a_Node000010"><a xlink:title=" ">
<polygon fill="white" stroke="transparent" points="446,-754 350,-754 350,-724 446,-724 446,-754"/>
<text text-anchor="start" x="354" y="-742" font-family="Helvetica,sans-Serif" font-size="10.00">std::basic_string&lt;</text>
<text text-anchor="start" x="379.5" y="-731" font-family="Helvetica,sans-Serif" font-size="10.00"> Char &gt;</text>
<polygon fill="none" stroke="#666666" points="350,-724 350,-754 446,-754 446,-724 350,-724"/>
</a>
</g>
</g>
<!-- Node10&#45;&gt;Node9 -->
<g id="edge9_Node000009_Node000010" class="edge">
<title>Node10&#45;&gt;Node9</title>
<g id="a_edge9_Node000009_Node000010"><a xlink:title=" ">
<path fill="none" stroke="#63b8ff" d="M398,-713.75C398,-702.52 398,-689.88 398,-681.69"/>
<polygon fill="none" stroke="#63b8ff" points="394.5,-713.9 398,-723.9 401.5,-713.9 394.5,-713.9"/>
</a>
</g>
</g>
<!-- Node11&#45;&gt;Node5 -->
<g id="edge10_Node000005_Node000011" class="edge">
<title>Node11&#45;&gt;Node5</title>
<g id="a_edge10_Node000005_Node000011"><a xlink:title=" ">
<path fill="none" stroke="#63b8ff" d="M571.72,-569.99C570.84,-543.67 567.94,-461.22 564,-393 563.18,-378.85 562.06,-363.08 561.08,-350.2"/>
<polygon fill="none" stroke="#63b8ff" points="561.06,-349.96 556.61,-344.29 560.14,-338 564.59,-343.67 561.06,-349.96"/>
</a>
</g>
<text text-anchor="start" x="570.5" y="-446.5" font-family="Helvetica,sans-Serif" font-size="10.00" fill="grey">&#45;socketAddress</text>
</g>
<!-- Node12 -->
<g id="Node000012" class="node">
<title>Node12</title>
<g id="a_Node000012"><a xlink:href="classnet_1_1SocketAddress.html" target="_top" xlink:title=" ">
<polygon fill="white" stroke="transparent" points="623,-687 521,-687 521,-657 623,-657 623,-687"/>
<text text-anchor="start" x="525" y="-675" font-family="Helvetica,sans-Serif" font-size="10.00">net::SocketAddress</text>
<text text-anchor="start" x="531" y="-664" font-family="Helvetica,sans-Serif" font-size="10.00">&lt; sockaddr_rc &gt;</text>
<polygon fill="none" stroke="#666666" points="521,-657 521,-687 623,-687 623,-657 521,-657"/>
</a>
</g>
</g>
<!-- Node12&#45;&gt;Node11 -->
<g id="edge11_Node000011_Node000012" class="edge">
<title>Node12&#45;&gt;Node11</title>
<g id="a_edge11_Node000011_Node000012"><a xlink:title=" ">
<path fill="none" stroke="#63b8ff" d="M572,-646.78C572,-627.7 572,-602.21 572,-589.1"/>
<polygon fill="none" stroke="#63b8ff" points="568.5,-646.86 572,-656.86 575.5,-646.86 568.5,-646.86"/>
</a>
</g>
</g>
<!-- Node13 -->
<g id="Node000013" class="node">
<title>Node13</title>
<g id="a_Node000013"><a xlink:href="classcore_1_1socket_1_1SocketAddress.html" target="_top" xlink:title=" ">
<polygon fill="white" stroke="transparent" points="644,-748.5 500,-748.5 500,-729.5 644,-729.5 644,-748.5"/>
<text text-anchor="start" x="504" y="-736" font-family="Helvetica,sans-Serif" font-size="10.00">core::socket::SocketAddress</text>
<polygon fill="none" stroke="#666666" points="500,-729.5 500,-748.5 644,-748.5 644,-729.5 500,-729.5"/>
</a>
</g>
</g>
<!-- Node13&#45;&gt;Node12 -->
<g id="edge12_Node000012_Node000013" class="edge">
<title>Node13&#45;&gt;Node12</title>
<g id="a_edge12_Node000012_Node000013"><a xlink:title=" ">
<path fill="none" stroke="#63b8ff" d="M572,-718.91C572,-708.72 572,-696.4 572,-687.09"/>
<polygon fill="none" stroke="#63b8ff" points="568.5,-719.23 572,-729.23 575.5,-719.23 568.5,-719.23"/>
</a>
</g>
</g>
<!-- Node14 -->
<g id="Node000014" class="node">
<title>Node14</title>
<g id="a_Node000014"><a xlink:href="classnet_1_1rc_1_1config_1_1ConfigAddress.html" target="_top" xlink:title=" ">
<polygon fill="white" stroke="transparent" points="703,-175 517,-175 517,-145 703,-145 703,-175"/>
<text text-anchor="start" x="521.5" y="-163" font-family="Helvetica,sans-Serif" font-size="10.00">net::rc::config::ConfigAddress</text>
<text text-anchor="start" x="521.5" y="-152" font-family="Helvetica,sans-Serif" font-size="10.00">&lt; net::config::ConfigAddressLocal &gt;</text>
<polygon fill="none" stroke="#666666" points="517,-145 517,-175 703,-175 703,-145 517,-145"/>
</a>
</g>
</g>
<!-- Node14&#45;&gt;Node2 -->
<g id="edge14_Node000002_Node000014" class="edge">
<title>Node14&#45;&gt;Node2</title>
<g id="a_edge14_Node000002_Node000014"><a xlink:title=" ">
<path fill="none" stroke="#63b8ff" d="M535.58,-142.86C486.95,-132.31 423.26,-118.49 372.25,-107.43"/>
<polygon fill="none" stroke="#63b8ff" points="534.89,-146.29 545.4,-144.99 536.37,-139.45 534.89,-146.29"/>
</a>
</g>
</g>
<!-- Node15&#45;&gt;Node14 -->
<g id="edge15_Node000014_Node000015" class="edge">
<title>Node15&#45;&gt;Node14</title>
<g id="a_edge15_Node000014_Node000015"><a xlink:title=" ">
<path fill="none" stroke="#63b8ff" d="M607.48,-201.9C608.04,-192.87 608.65,-182.91 609.13,-175.08"/>
<polygon fill="none" stroke="#63b8ff" points="603.99,-201.7 606.87,-211.9 610.98,-202.13 603.99,-201.7"/>
</a>
</g>
</g>
<!-- Node16&#45;&gt;Node2 -->
<g id="edge17_Node000002_Node000016" class="edge">
<title>Node16&#45;&gt;Node2</title>
<g id="a_edge17_Node000002_Node000016"><a xlink:title=" ">
<path fill="none" stroke="#63b8ff" d="M210,-345.75C210.88,-327.84 212,-300.09 212,-276 212,-276 212,-276 212,-159 212,-137.33 228.85,-120.21 246.36,-108.27"/>
<polygon fill="none" stroke="#63b8ff" points="206.5,-345.79 209.48,-355.96 213.49,-346.15 206.5,-345.79"/>
</a>
</g>
</g>
<!-- Node17 -->
<g id="Node000017" class="node">
<title>Node17</title>
<g id="a_Node000017"><a xlink:href="classnet_1_1config_1_1ConfigPhysicalSocketClient.html" target="_top" xlink:title=" ">
<polygon fill="white" stroke="transparent" points="369,-290 231,-290 231,-260 369,-260 369,-290"/>
<text text-anchor="start" x="235" y="-278" font-family="Helvetica,sans-Serif" font-size="10.00">net::config::ConfigPhysical</text>
<text text-anchor="start" x="269.5" y="-267" font-family="Helvetica,sans-Serif" font-size="10.00">SocketClient</text>
<polygon fill="none" stroke="#666666" points="231,-260 231,-290 369,-290 369,-260 231,-260"/>
</a>
</g>
</g>
<!-- Node17&#45;&gt;Node2 -->
<g id="edge19_Node000002_Node000017" class="edge">
<title>Node17&#45;&gt;Node2</title>
<g id="a_edge19_Node000002_Node000017"><a xlink:title=" ">
<path fill="none" stroke="#63b8ff" d="M298,-249.32C295,-212.11 289.35,-142.35 286.6,-108.27"/>
<polygon fill="none" stroke="#63b8ff" points="294.55,-250.07 298.85,-259.75 301.53,-249.5 294.55,-250.07"/>
</a>
</g>
</g>
<!-- Node18&#45;&gt;Node17 -->
<g id="edge20_Node000017_Node000018" class="edge">
<title>Node18&#45;&gt;Node17</title>
<g id="a_edge20_Node000017_Node000018"><a xlink:title=" ">
<path fill="none" stroke="#63b8ff" d="M303.26,-382.77C302.43,-355.63 301.12,-312.55 300.44,-290.32"/>
<polygon fill="none" stroke="#63b8ff" points="299.77,-383.09 303.57,-392.98 306.77,-382.88 299.77,-383.09"/>
</a>
</g>
</g>
<!-- Node19 -->
<g id="Node000019" class="node">
<title>Node19</title>
<g id="a_Node000019"><a xlink:title=" ">
<polygon fill="white" stroke="transparent" points="142,-517 0,-517 0,-476 142,-476 142,-517"/>
<text text-anchor="start" x="4" y="-504.5" font-family="Helvetica,sans-Serif" font-size="10.00">std::map&lt; int, std</text>
<text text-anchor="start" x="4" y="-493.5" font-family="Helvetica,sans-Serif" font-size="10.00">::map&lt; int, net::phy</text>
<text text-anchor="start" x="4" y="-482.5" font-family="Helvetica,sans-Serif" font-size="10.00">::PhysicalSocketOption &gt; &gt;</text>
<polygon fill="none" stroke="#666666" points="0,-476 0,-517 142,-517 142,-476 0,-476"/>
</a>
</g>
</g>
<!-- Node19&#45;&gt;Node18 -->
<g id="edge22_Node000018_Node000019" class="edge">
<title>Node19&#45;&gt;Node18</title>
<g id="a_edge22_Node000018_Node000019"><a xlink:title=" ">
<path fill="none" stroke="#63b8ff" d="M105.5,-475.89C126.53,-464.54 154.24,-450.64 180,-441 194.93,-435.41 211.23,-430.44 226.96,-426.18"/>
<polygon fill="none" stroke="#63b8ff" points="227.23,-426.11 232.02,-420.72 238.84,-423.07 234.05,-428.46 227.23,-426.11"/>
</a>
</g>
<text text-anchor="start" x="183.5" y="-446.5" font-family="Helvetica,sans-Serif" font-size="10.00" fill="grey">&#45;socketOptionsMapMap</text>
</g>
</g>
</svg>

<g id="navigator" transform="translate(0 0)" fill="#404254">
  <rect fill="#f2f5e9" fill-opacity="0.5" stroke="#606060" stroke-width=".5" x="0" y="0" width="60" height="60"/>
  <use id="zoomplus" xlink:href="#zoomPlus" x="17" y="9" onmousedown="handleZoom(evt,'in')"/>
  <use id="zoomminus" xlink:href="#zoomMin" x="42" y="9" onmousedown="handleZoom(evt,'out')"/>
  <use id="reset" xlink:href="#resetDef" x="30" y="36" onmousedown="handleReset()"/>
   <use id="arrowup" xlink:href="#arrowUp" x="0" y="0" onmousedown="handlePan(0,-1)"/>
  <use id="arrowright" xlink:href="#arrowRight" x="0" y="0" onmousedown="handlePan(1,0)"/>
  <use id="arrowdown" xlink:href="#arrowDown" x="0" y="0" onmousedown="handlePan(0,1)"/>
  <use id="arrowleft" xlink:href="#arrowLeft" x="0" y="0" onmousedown="handlePan(-1,0)"/>
</g>
<svg viewBox="0 0 15 15" width="100%" height="30px" preserveAspectRatio="xMaxYMin meet">
 <g id="arrow_out" transform="scale(0.3 0.3)">
  <a xlink:href="classnet_1_1rc_1_1stream_1_1config_1_1ConfigSocketClient__coll__graph_org.svg" target="_base">
   <rect id="button" ry="5" rx="5" y="6" x="6" height="38" width="38"
        fill="#f2f5e9" fill-opacity="0.5" stroke="#606060" stroke-width="1.0"/>
   <path id="arrow"
     d="M 11.500037,31.436501 C 11.940474,20.09759 22.043105,11.32322 32.158766,21.979434 L 37.068811,17.246167 C 37.068811,17.246167 37.088388,32 37.088388,32 L 22.160133,31.978069 C 22.160133,31.978069 26.997745,27.140456 26.997745,27.140456 C 18.528582,18.264221 13.291696,25.230495 11.500037,31.436501 z"
     style="fill:#404040;"/>
  </a>
 </g>
</svg>

<style type='text/css'>
<![CDATA[
[data-mouse-over-selected='false'] { opacity: 0.7; }
[data-mouse-over-selected='true']  { opacity: 1.0; }
]]>
</style>
<script type="application/ecmascript"><![CDATA[
document.addEventListener('DOMContentLoaded', (event) => {
  highlightEdges();
  highlightAdjacentNodes();
});
]]></script>
</svg>
