<?xml version="1.0" encoding="UTF-8" standalone="no"?>
<!DOCTYPE svg PUBLIC "-//W3C//DTD SVG 1.1//EN"
 "http://www.w3.org/Graphics/SVG/1.1/DTD/svg11.dtd">
<!-- Generated by graphviz version 14.1.2 (0)
 -->
<!-- Title: database::mariadb::MariaDBClient::execute_async Pages: 1 -->
<svg width="1011pt" height="170pt"
 viewBox="0.00 0.00 1011.00 170.00" xmlns="http://www.w3.org/2000/svg" xmlns:xlink="http://www.w3.org/1999/xlink">
<g id="graph0" class="graph" transform="scale(1 1) rotate(0) translate(4 166.25)">
<title>database::mariadb::MariaDBClient::execute_async</title>
<!-- Node1 -->
<g id="Node000001" class="node">
<title>Node1</title>
<g id="a_Node000001"><a xlink:title=" ">
<polygon fill="#999999" stroke="#666666" points="165.25,-97.88 0,-97.88 0,-64.38 165.25,-64.38 165.25,-97.88"/>
<text xml:space="preserve" text-anchor="start" x="8" y="-84.38" font-family="Helvetica,sans-Serif" font-size="10.00">database::mariadb::</text>
<text xml:space="preserve" text-anchor="middle" x="82.62" y="-71.62" font-family="Helvetica,sans-Serif" font-size="10.00">MariaDBClient::execute_async</text>
</a>
</g>
</g>
<!-- Node2 -->
<g id="Node000002" class="node">
<title>Node2</title>
<g id="a_Node000002"><a xlink:href="classdatabase_1_1mariadb_1_1MariaDBCommandSequence.html#a6b2077fc4e636ccdae75e0648a1fae53" target="_top" xlink:title=" ">
<polygon fill="white" stroke="#666666" points="374.75,-162.25 219.25,-162.25 219.25,-116 374.75,-116 374.75,-162.25"/>
<text xml:space="preserve" text-anchor="start" x="227.25" y="-148.75" font-family="Helvetica,sans-Serif" font-size="10.00">database::mariadb::</text>
<text xml:space="preserve" text-anchor="start" x="227.25" y="-136" font-family="Helvetica,sans-Serif" font-size="10.00">MariaDBCommandSequence</text>
<text xml:space="preserve" text-anchor="middle" x="297" y="-123.25" font-family="Helvetica,sans-Serif" font-size="10.00">::execute_async</text>
</a>
</g>
</g>
<!-- Node1&#45;&gt;Node2 -->
<g id="edge1_Node000001_Node000002" class="edge">
<title>Node1&#45;&gt;Node2</title>
<g id="a_edge1_Node000001_Node000002"><a xlink:title=" ">
<path fill="none" stroke="#63b8ff" d="M146.77,-98.37C165.94,-103.61 187.37,-109.46 207.87,-115.06"/>
<polygon fill="#63b8ff" stroke="#63b8ff" points="206.79,-118.39 217.36,-117.65 208.64,-111.64 206.79,-118.39"/>
</a>
</g>
</g>
<!-- Node3 -->
<g id="Node000003" class="node">
<title>Node3</title>
<g id="a_Node000003"><a xlink:href="classdatabase_1_1mariadb_1_1MariaDBConnection.html#a77e3a9a7ce64011c901bac2515edd285" target="_top" xlink:title=" ">
<polygon fill="white" stroke="#666666" points="392.75,-97.88 201.25,-97.88 201.25,-64.38 392.75,-64.38 392.75,-97.88"/>
<text xml:space="preserve" text-anchor="start" x="209.25" y="-84.38" font-family="Helvetica,sans-Serif" font-size="10.00">database::mariadb::</text>
<text xml:space="preserve" text-anchor="middle" x="297" y="-71.62" font-family="Helvetica,sans-Serif" font-size="10.00">MariaDBConnection::execute_async</text>
</a>
</g>
</g>
<!-- Node1&#45;&gt;Node3 -->
<g id="edge2_Node000001_Node000003" class="edge">
<title>Node1&#45;&gt;Node3</title>
<g id="a_edge2_Node000001_Node000003"><a xlink:title=" ">
<path fill="none" stroke="#63b8ff" d="M165.73,-81.12C173.59,-81.12 181.63,-81.12 189.67,-81.12"/>
<polygon fill="#63b8ff" stroke="#63b8ff" points="189.51,-84.63 199.51,-81.13 189.51,-77.63 189.51,-84.63"/>
</a>
</g>
</g>
<!-- Node8 -->
<g id="Node000008" class="node">
<title>Node8</title>
<g id="a_Node000008"><a xlink:href="classdatabase_1_1mariadb_1_1MariaDBCommandSequence.html#a0875d0dd60c7ecc0275a7c1d73de7f98" target="_top" xlink:title=" ">
<polygon fill="white" stroke="#666666" points="377.75,-46.25 216.25,-46.25 216.25,0 377.75,0 377.75,-46.25"/>
<text xml:space="preserve" text-anchor="start" x="224.25" y="-32.75" font-family="Helvetica,sans-Serif" font-size="10.00">database::mariadb::</text>
<text xml:space="preserve" text-anchor="start" x="224.25" y="-20" font-family="Helvetica,sans-Serif" font-size="10.00">MariaDBCommandSequence</text>
<text xml:space="preserve" text-anchor="middle" x="297" y="-7.25" font-family="Helvetica,sans-Serif" font-size="10.00">::MariaDBCommandSequence</text>
</a>
</g>
</g>
<!-- Node1&#45;&gt;Node8 -->
<g id="edge7_Node000001_Node000008" class="edge">
<title>Node1&#45;&gt;Node8</title>
<g id="a_edge7_Node000001_Node000008"><a xlink:title=" ">
<path fill="none" stroke="#63b8ff" d="M146.77,-63.88C165.13,-58.87 185.56,-53.29 205.27,-47.9"/>
<polygon fill="#63b8ff" stroke="#63b8ff" points="205.94,-51.35 214.66,-45.34 204.09,-44.6 205.94,-51.35"/>
</a>
</g>
</g>
<!-- Node4 -->
<g id="Node000004" class="node">
<title>Node4</title>
<g id="a_Node000004"><a xlink:href="classcore_1_1EventReceiver.html#ad353e97a9089b2769e52f8825e4878b1" target="_top" xlink:title=" ">
<polygon fill="white" stroke="#666666" points="542.25,-97.88 428.75,-97.88 428.75,-64.38 542.25,-64.38 542.25,-97.88"/>
<text xml:space="preserve" text-anchor="start" x="436.75" y="-84.38" font-family="Helvetica,sans-Serif" font-size="10.00">core::EventReceiver</text>
<text xml:space="preserve" text-anchor="middle" x="485.5" y="-71.62" font-family="Helvetica,sans-Serif" font-size="10.00">::span</text>
</a>
</g>
</g>
<!-- Node3&#45;&gt;Node4 -->
<g id="edge3_Node000003_Node000004" class="edge">
<title>Node3&#45;&gt;Node4</title>
<g id="a_edge3_Node000003_Node000004"><a xlink:title=" ">
<path fill="none" stroke="#63b8ff" d="M393.16,-81.12C401.15,-81.12 409.13,-81.12 416.84,-81.12"/>
<polygon fill="#63b8ff" stroke="#63b8ff" points="416.82,-84.63 426.82,-81.13 416.82,-77.63 416.82,-84.63"/>
</a>
</g>
</g>
<!-- Node5 -->
<g id="Node000005" class="node">
<title>Node5</title>
<g id="a_Node000005"><a xlink:href="classcore_1_1Event.html#a0a68a616082e2b1aece96499a439884f" target="_top" xlink:title=" ">
<polygon fill="white" stroke="#666666" points="678.25,-91.5 578.25,-91.5 578.25,-70.75 678.25,-70.75 678.25,-91.5"/>
<text xml:space="preserve" text-anchor="middle" x="628.25" y="-78" font-family="Helvetica,sans-Serif" font-size="10.00">core::Event::span</text>
</a>
</g>
</g>
<!-- Node4&#45;&gt;Node5 -->
<g id="edge4_Node000004_Node000005" class="edge">
<title>Node4&#45;&gt;Node5</title>
<g id="a_edge4_Node000004_Node000005"><a xlink:title=" ">
<path fill="none" stroke="#63b8ff" d="M542.53,-81.12C550.36,-81.12 558.44,-81.12 566.35,-81.12"/>
<polygon fill="#63b8ff" stroke="#63b8ff" points="566.27,-84.63 576.27,-81.13 566.27,-77.63 566.27,-84.63"/>
</a>
</g>
</g>
<!-- Node6 -->
<g id="Node000006" class="node">
<title>Node6</title>
<g id="a_Node000006"><a xlink:href="classcore_1_1EventMultiplexer.html#a61d96e95daaebfe6c3b980a2a847bb21" target="_top" xlink:title=" ">
<polygon fill="white" stroke="#666666" points="840.5,-97.88 714.25,-97.88 714.25,-64.38 840.5,-64.38 840.5,-97.88"/>
<text xml:space="preserve" text-anchor="start" x="722.25" y="-84.38" font-family="Helvetica,sans-Serif" font-size="10.00">core::EventMultiplexer</text>
<text xml:space="preserve" text-anchor="middle" x="777.38" y="-71.62" font-family="Helvetica,sans-Serif" font-size="10.00">::span</text>
</a>
</g>
</g>
<!-- Node5&#45;&gt;Node6 -->
<g id="edge5_Node000005_Node000006" class="edge">
<title>Node5&#45;&gt;Node6</title>
<g id="a_edge5_Node000005_Node000006"><a xlink:title=" ">
<path fill="none" stroke="#63b8ff" d="M678.65,-81.12C686.31,-81.12 694.36,-81.12 702.42,-81.12"/>
<polygon fill="#63b8ff" stroke="#63b8ff" points="702.27,-84.63 712.27,-81.13 702.27,-77.63 702.27,-84.63"/>
</a>
</g>
</g>
<!-- Node7 -->
<g id="Node000007" class="node">
<title>Node7</title>
<g id="a_Node000007"><a xlink:href="classcore_1_1EventMultiplexer_1_1EventQueue.html#a009075f2f16a78d3bf8d9e3a20226336" target="_top" xlink:title=" ">
<polygon fill="white" stroke="#666666" points="1002.75,-97.88 876.5,-97.88 876.5,-64.38 1002.75,-64.38 1002.75,-97.88"/>
<text xml:space="preserve" text-anchor="start" x="884.5" y="-84.38" font-family="Helvetica,sans-Serif" font-size="10.00">core::EventMultiplexer</text>
<text xml:space="preserve" text-anchor="middle" x="939.62" y="-71.62" font-family="Helvetica,sans-Serif" font-size="10.00">::EventQueue::insert</text>
</a>
</g>
</g>
<!-- Node6&#45;&gt;Node7 -->
<g id="edge6_Node000006_Node000007" class="edge">
<title>Node6&#45;&gt;Node7</title>
<g id="a_edge6_Node000006_Node000007"><a xlink:title=" ">
<path fill="none" stroke="#63b8ff" d="M840.79,-81.12C848.68,-81.12 856.8,-81.12 864.84,-81.12"/>
<polygon fill="#63b8ff" stroke="#63b8ff" points="864.6,-84.63 874.6,-81.13 864.6,-77.63 864.6,-84.63"/>
</a>
</g>
</g>
</g>
</svg>
