<?xml version="1.0" encoding="UTF-8" standalone="no"?>
<!DOCTYPE svg PUBLIC "-//W3C//DTD SVG 1.1//EN"
 "http://www.w3.org/Graphics/SVG/1.1/DTD/svg11.dtd">
<!-- Generated by graphviz version 14.1.1 (0)
 -->
<!-- Title: core::multiplexer::epoll::DescriptorEventPublisher::spanActiveEvents Pages: 1 -->
<!--zoomable 273 -->

<svg id="main" version="1.1" xmlns="http://www.w3.org/2000/svg" xmlns:xlink="http://www.w3.org/1999/xlink" xml:space="preserve" onload="init(evt)">

<style type="text/css"><![CDATA[
.node, .edge {opacity: 0.7;}
.node.selected, .edge.selected {opacity: 1;}
.edge:hover path { stroke: red; }
.edge:hover polygon { stroke: red; fill: red; }
]]></style>

<defs>
  <circle id="rim" cx="0" cy="0" r="7"/>
  <circle id="rim2" cx="0" cy="0" r="3.5"/>
  <g id="zoomPlus">
    <use xlink:href="#rim" fill="#404040"><set attributeName="fill" to="#808080" begin="zoomplus.mouseover" end="zoomplus.mouseout"/></use>
    <path d="M-4,0h8M0,-4v8" fill="none" stroke="white" stroke-width="1.5" pointer-events="none"/>
  </g>
  <g id="zoomMin">
    <use xlink:href="#rim" fill="#404040"><set attributeName="fill" to="#808080" begin="zoomminus.mouseover" end="zoomminus.mouseout"/></use>
    <path d="M-4,0h8" fill="none" stroke="white" stroke-width="1.5" pointer-events="none"/>
  </g>
  <g id="arrowUp" transform="translate(30 24)">
    <use xlink:href="#rim"/>
    <path pointer-events="none" fill="none" stroke="white" stroke-width="1.5" d="M0,-3.0v7 M-2.5,-0.5L0,-3.0L2.5,-0.5"/>
  </g>
  <g id="arrowRight" transform="rotate(90) translate(36 -43)">
    <use xlink:href="#rim"/>
    <path pointer-events="none" fill="none" stroke="white" stroke-width="1.5" d="M0,-3.0v7 M-2.5,-0.5L0,-3.0L2.5,-0.5"/>
  </g>
  <g id="arrowDown" transform="rotate(180) translate(-30 -48)">
    <use xlink:href="#rim"/>
    <path pointer-events="none" fill="none" stroke="white" stroke-width="1.5" d="M0,-3.0v7 M-2.5,-0.5L0,-3.0L2.5,-0.5"/>
  </g>
  <g id="arrowLeft" transform="rotate(270) translate(-36 17)">
    <use xlink:href="#rim"/>
    <path pointer-events="none" fill="none" stroke="white" stroke-width="1.5" d="M0,-3.0v7 M-2.5,-0.5L0,-3.0L2.5,-0.5"/>
  </g>
  <g id="resetDef">
    <use xlink:href="#rim2" fill="#404040"><set attributeName="fill" to="#808080" begin="reset.mouseover" end="reset.mouseout"/></use>
  </g>
</defs>
<script type="application/ecmascript">
var viewWidth = 843;
var viewHeight = 273;
var sectionId = 'dynsection-8';
</script>
<script type="application/ecmascript" xlink:href="svg.min.js"/>
<svg id="graph" class="graph">
<g id="viewport">
<title>core::multiplexer::epoll::DescriptorEventPublisher::spanActiveEvents</title>
<!-- Node1 -->
<g id="Node000001" class="node">
<title>Node1</title>
<g id="a_Node000001"><a xlink:title=" ">
<polygon fill="#999999" stroke="#666666" points="169,-161.88 0,-161.88 0,-115.62 169,-115.62 169,-161.88"/>
<text xml:space="preserve" text-anchor="start" x="8" y="-148.38" font-family="Helvetica,sans-Serif" font-size="10.00">core::multiplexer::</text>
<text xml:space="preserve" text-anchor="start" x="8" y="-135.62" font-family="Helvetica,sans-Serif" font-size="10.00">epoll::DescriptorEventPublisher</text>
<text xml:space="preserve" text-anchor="middle" x="84.5" y="-122.88" font-family="Helvetica,sans-Serif" font-size="10.00">::spanActiveEvents</text>
</a>
</g>
</g>
<!-- Node2 -->
<g id="Node000002" class="node">
<title>Node2</title>
<g id="a_Node000002"><a xlink:href="namespacecore_1_1system.html#aca4c1cc239b442807ff249c33aa23388" target="_top" xlink:title=" ">
<polygon fill="white" stroke="#666666" points="357.12,-265.12 221.88,-265.12 221.88,-244.38 357.12,-244.38 357.12,-265.12"/>
<text xml:space="preserve" text-anchor="middle" x="289.5" y="-251.62" font-family="Helvetica,sans-Serif" font-size="10.00">core::system::epoll_wait</text>
</a>
</g>
</g>
<!-- Node1&#45;&gt;Node2 -->
<g id="edge1_Node000001_Node000002" class="edge">
<title>Node1&#45;&gt;Node2</title>
<g id="a_edge1_Node000001_Node000002"><a xlink:title=" ">
<path fill="none" stroke="#63b8ff" d="M108.03,-162.04C130.58,-184.01 167.25,-216.24 205,-234.75 209.22,-236.82 213.66,-238.68 218.21,-240.35"/>
<polygon fill="#63b8ff" stroke="#63b8ff" points="216.93,-243.62 227.53,-243.45 219.14,-236.98 216.93,-243.62"/>
</a>
</g>
</g>
<!-- Node3 -->
<g id="Node000003" class="node">
<title>Node3</title>
<g id="a_Node000003"><a xlink:href="classcore_1_1multiplexer_1_1epoll_1_1DescriptorEventPublisher_1_1EPollEvents.html#a155eab48b4435836317cf41ce5ea1dce" target="_top" xlink:title=" ">
<polygon fill="white" stroke="#666666" points="374,-225.88 205,-225.88 205,-179.62 374,-179.62 374,-225.88"/>
<text xml:space="preserve" text-anchor="start" x="213" y="-212.38" font-family="Helvetica,sans-Serif" font-size="10.00">core::multiplexer::</text>
<text xml:space="preserve" text-anchor="start" x="213" y="-199.62" font-family="Helvetica,sans-Serif" font-size="10.00">epoll::DescriptorEventPublisher</text>
<text xml:space="preserve" text-anchor="middle" x="289.5" y="-186.88" font-family="Helvetica,sans-Serif" font-size="10.00">::EPollEvents::getEPFd</text>
</a>
</g>
</g>
<!-- Node1&#45;&gt;Node3 -->
<g id="edge2_Node000001_Node000003" class="edge">
<title>Node1&#45;&gt;Node3</title>
<g id="a_edge2_Node000001_Node000003"><a xlink:title=" ">
<path fill="none" stroke="#63b8ff" d="M160.22,-162.31C174.1,-166.68 188.69,-171.28 202.86,-175.75"/>
<polygon fill="#63b8ff" stroke="#63b8ff" points="201.56,-179.01 212.15,-178.68 203.67,-172.33 201.56,-179.01"/>
</a>
</g>
</g>
<!-- Node4 -->
<g id="Node000004" class="node">
<title>Node4</title>
<g id="a_Node000004"><a xlink:href="classcore_1_1multiplexer_1_1epoll_1_1DescriptorEventPublisher_1_1EPollEvents.html#ad3df053116f7156d5e047efdc33ba486" target="_top" xlink:title=" ">
<polygon fill="white" stroke="#666666" points="374,-161.88 205,-161.88 205,-115.62 374,-115.62 374,-161.88"/>
<text xml:space="preserve" text-anchor="start" x="213" y="-148.38" font-family="Helvetica,sans-Serif" font-size="10.00">core::multiplexer::</text>
<text xml:space="preserve" text-anchor="start" x="213" y="-135.62" font-family="Helvetica,sans-Serif" font-size="10.00">epoll::DescriptorEventPublisher</text>
<text xml:space="preserve" text-anchor="middle" x="289.5" y="-122.88" font-family="Helvetica,sans-Serif" font-size="10.00">::EPollEvents::getEvents</text>
</a>
</g>
</g>
<!-- Node1&#45;&gt;Node4 -->
<g id="edge3_Node000001_Node000004" class="edge">
<title>Node1&#45;&gt;Node4</title>
<g id="a_edge3_Node000001_Node000004"><a xlink:title=" ">
<path fill="none" stroke="#63b8ff" d="M169.24,-138.75C177.18,-138.75 185.28,-138.75 193.32,-138.75"/>
<polygon fill="#63b8ff" stroke="#63b8ff" points="193.11,-142.25 203.11,-138.75 193.11,-135.25 193.11,-142.25"/>
</a>
</g>
</g>
<!-- Node5 -->
<g id="Node000005" class="node">
<title>Node5</title>
<g id="a_Node000005"><a xlink:href="classcore_1_1multiplexer_1_1epoll_1_1DescriptorEventPublisher_1_1EPollEvents.html#a07afebad705aab316776a06b5e1aecb9" target="_top" xlink:title=" ">
<polygon fill="white" stroke="#666666" points="374,-97.88 205,-97.88 205,-51.62 374,-51.62 374,-97.88"/>
<text xml:space="preserve" text-anchor="start" x="213" y="-84.38" font-family="Helvetica,sans-Serif" font-size="10.00">core::multiplexer::</text>
<text xml:space="preserve" text-anchor="start" x="213" y="-71.62" font-family="Helvetica,sans-Serif" font-size="10.00">epoll::DescriptorEventPublisher</text>
<text xml:space="preserve" text-anchor="middle" x="289.5" y="-58.88" font-family="Helvetica,sans-Serif" font-size="10.00">::EPollEvents::getInterestCount</text>
</a>
</g>
</g>
<!-- Node1&#45;&gt;Node5 -->
<g id="edge4_Node000001_Node000005" class="edge">
<title>Node1&#45;&gt;Node5</title>
<g id="a_edge4_Node000001_Node000005"><a xlink:title=" ">
<path fill="none" stroke="#63b8ff" d="M160.22,-115.19C174.1,-110.82 188.69,-106.22 202.86,-101.75"/>
<polygon fill="#63b8ff" stroke="#63b8ff" points="203.67,-105.17 212.15,-98.82 201.56,-98.49 203.67,-105.17"/>
</a>
</g>
</g>
<!-- Node6 -->
<g id="Node000006" class="node">
<title>Node6</title>
<g id="a_Node000006"><a xlink:href="classcore_1_1EventReceiver.html#ad353e97a9089b2769e52f8825e4878b1" target="_top" xlink:title=" ">
<polygon fill="white" stroke="#666666" points="346.25,-33.5 232.75,-33.5 232.75,0 346.25,0 346.25,-33.5"/>
<text xml:space="preserve" text-anchor="start" x="240.75" y="-20" font-family="Helvetica,sans-Serif" font-size="10.00">core::EventReceiver</text>
<text xml:space="preserve" text-anchor="middle" x="289.5" y="-7.25" font-family="Helvetica,sans-Serif" font-size="10.00">::span</text>
</a>
</g>
</g>
<!-- Node1&#45;&gt;Node6 -->
<g id="edge5_Node000001_Node000006" class="edge">
<title>Node1&#45;&gt;Node6</title>
<g id="a_edge5_Node000001_Node000006"><a xlink:title=" ">
<path fill="none" stroke="#63b8ff" d="M109.18,-115.18C132,-93.64 168.36,-62.26 205,-42.75 210.36,-39.9 216.08,-37.3 221.93,-34.95"/>
<polygon fill="#63b8ff" stroke="#63b8ff" points="222.97,-38.3 231.1,-31.51 220.51,-31.74 222.97,-38.3"/>
</a>
</g>
</g>
<!-- Node7 -->
<g id="Node000007" class="node">
<title>Node7</title>
<g id="a_Node000007"><a xlink:href="classcore_1_1Event.html#a0a68a616082e2b1aece96499a439884f" target="_top" xlink:title=" ">
<polygon fill="white" stroke="#666666" points="510,-27.12 410,-27.12 410,-6.38 510,-6.38 510,-27.12"/>
<text xml:space="preserve" text-anchor="middle" x="460" y="-13.62" font-family="Helvetica,sans-Serif" font-size="10.00">core::Event::span</text>
</a>
</g>
</g>
<!-- Node6&#45;&gt;Node7 -->
<g id="edge6_Node000006_Node000007" class="edge">
<title>Node6&#45;&gt;Node7</title>
<g id="a_edge6_Node000006_Node000007"><a xlink:title=" ">
<path fill="none" stroke="#63b8ff" d="M346.61,-16.75C363.18,-16.75 381.39,-16.75 398.23,-16.75"/>
<polygon fill="#63b8ff" stroke="#63b8ff" points="398.13,-20.25 408.13,-16.75 398.13,-13.25 398.13,-20.25"/>
</a>
</g>
</g>
<!-- Node8 -->
<g id="Node000008" class="node">
<title>Node8</title>
<g id="a_Node000008"><a xlink:href="classcore_1_1EventMultiplexer.html#a61d96e95daaebfe6c3b980a2a847bb21" target="_top" xlink:title=" ">
<polygon fill="white" stroke="#666666" points="672.25,-33.5 546,-33.5 546,0 672.25,0 672.25,-33.5"/>
<text xml:space="preserve" text-anchor="start" x="554" y="-20" font-family="Helvetica,sans-Serif" font-size="10.00">core::EventMultiplexer</text>
<text xml:space="preserve" text-anchor="middle" x="609.12" y="-7.25" font-family="Helvetica,sans-Serif" font-size="10.00">::span</text>
</a>
</g>
</g>
<!-- Node7&#45;&gt;Node8 -->
<g id="edge7_Node000007_Node000008" class="edge">
<title>Node7&#45;&gt;Node8</title>
<g id="a_edge7_Node000007_Node000008"><a xlink:title=" ">
<path fill="none" stroke="#63b8ff" d="M510.4,-16.75C518.06,-16.75 526.11,-16.75 534.17,-16.75"/>
<polygon fill="#63b8ff" stroke="#63b8ff" points="534.02,-20.25 544.02,-16.75 534.02,-13.25 534.02,-20.25"/>
</a>
</g>
</g>
<!-- Node9 -->
<g id="Node000009" class="node">
<title>Node9</title>
<g id="a_Node000009"><a xlink:href="classcore_1_1EventMultiplexer_1_1EventQueue.html#a009075f2f16a78d3bf8d9e3a20226336" target="_top" xlink:title=" ">
<polygon fill="white" stroke="#666666" points="834.5,-33.5 708.25,-33.5 708.25,0 834.5,0 834.5,-33.5"/>
<text xml:space="preserve" text-anchor="start" x="716.25" y="-20" font-family="Helvetica,sans-Serif" font-size="10.00">core::EventMultiplexer</text>
<text xml:space="preserve" text-anchor="middle" x="771.38" y="-7.25" font-family="Helvetica,sans-Serif" font-size="10.00">::EventQueue::insert</text>
</a>
</g>
</g>
<!-- Node8&#45;&gt;Node9 -->
<g id="edge8_Node000008_Node000009" class="edge">
<title>Node8&#45;&gt;Node9</title>
<g id="a_edge8_Node000008_Node000009"><a xlink:title=" ">
<path fill="none" stroke="#63b8ff" d="M672.54,-16.75C680.43,-16.75 688.55,-16.75 696.59,-16.75"/>
<polygon fill="#63b8ff" stroke="#63b8ff" points="696.35,-20.25 706.35,-16.75 696.35,-13.25 696.35,-20.25"/>
</a>
</g>
</g>
</g>
</svg>

<g id="navigator" transform="translate(0 0)" fill="#404254">
  <rect fill="#f2f5e9" fill-opacity="0.5" stroke="#606060" stroke-width=".5" x="0" y="0" width="60" height="60"/>
  <use id="zoomplus" xlink:href="#zoomPlus" x="17" y="9" onmousedown="handleZoom(evt,'in')"/>
  <use id="zoomminus" xlink:href="#zoomMin" x="42" y="9" onmousedown="handleZoom(evt,'out')"/>
  <use id="reset" xlink:href="#resetDef" x="30" y="36" onmousedown="handleReset()"/>
   <use id="arrowup" xlink:href="#arrowUp" x="0" y="0" onmousedown="handlePan(0,-1)"/>
  <use id="arrowright" xlink:href="#arrowRight" x="0" y="0" onmousedown="handlePan(1,0)"/>
  <use id="arrowdown" xlink:href="#arrowDown" x="0" y="0" onmousedown="handlePan(0,1)"/>
  <use id="arrowleft" xlink:href="#arrowLeft" x="0" y="0" onmousedown="handlePan(-1,0)"/>
</g>
<svg viewBox="0 0 15 15" width="100%" height="30px" preserveAspectRatio="xMaxYMin meet">
 <g id="arrow_out" transform="scale(0.3 0.3)">
  <a xlink:href="classcore_1_1multiplexer_1_1epoll_1_1DescriptorEventPublisher_aaffa20875960b414baf9f9546ecfeb79_cgraph_org.svg" target="_base">
   <rect id="button" ry="5" rx="5" y="6" x="6" height="38" width="38"
        fill="#f2f5e9" fill-opacity="0.5" stroke="#606060" stroke-width="1.0"/>
   <path id="arrow"
     d="M 11.500037,31.436501 C 11.940474,20.09759 22.043105,11.32322 32.158766,21.979434 L 37.068811,17.246167 C 37.068811,17.246167 37.088388,32 37.088388,32 L 22.160133,31.978069 C 22.160133,31.978069 26.997745,27.140456 26.997745,27.140456 C 18.528582,18.264221 13.291696,25.230495 11.500037,31.436501 z"
     style="fill:#404040;"/>
  </a>
 </g>
</svg>

<style type='text/css'>
<![CDATA[
[data-mouse-over-selected='false'] { opacity: 0.7; }
[data-mouse-over-selected='true']  { opacity: 1.0; }
]]>
</style>
<script type="application/ecmascript"><![CDATA[
document.addEventListener('DOMContentLoaded', (event) => {
  highlightEdges();
  highlightAdjacentNodes();
});
]]></script>
</svg>
