<?xml version="1.0" encoding="UTF-8" standalone="no"?>
<!DOCTYPE svg PUBLIC "-//W3C//DTD SVG 1.1//EN"
 "http://www.w3.org/Graphics/SVG/1.1/DTD/svg11.dtd">
<!-- Generated by graphviz version 2.43.0 (0)
 -->
<!-- Title: net::phy::stream::PhysicalSocket&lt; SocketAddressT &gt; Pages: 1 -->
<svg width="150pt" height="159pt"
 viewBox="0.00 0.00 150.00 159.00" xmlns="http://www.w3.org/2000/svg" xmlns:xlink="http://www.w3.org/1999/xlink">
<g id="graph0" class="graph" transform="scale(1 1) rotate(0) translate(4 155)">
<title>net::phy::stream::PhysicalSocket&lt; SocketAddressT &gt;</title>
<!-- Node1 -->
<g id="Node000001" class="node">
<title>Node1</title>
<g id="a_Node000001"><a xlink:title=" ">
<polygon fill="#999999" stroke="transparent" points="142,-30 0,-30 0,0 142,0 142,-30"/>
<text text-anchor="start" x="4.5" y="-18" font-family="Helvetica,sans-Serif" font-size="10.00">net::phy::stream::Physical</text>
<text text-anchor="start" x="4.5" y="-7" font-family="Helvetica,sans-Serif" font-size="10.00">Socket&lt; SocketAddressT &gt;</text>
<polygon fill="none" stroke="#666666" points="0,0 0,-30 142,-30 142,0 0,0"/>
</a>
</g>
</g>
<!-- Node2 -->
<g id="Node000002" class="node">
<title>Node2</title>
<g id="a_Node000002"><a xlink:href="classnet_1_1phy_1_1PhysicalSocket.html" target="_top" xlink:title=" ">
<polygon fill="white" stroke="transparent" points="134,-96 8,-96 8,-66 134,-66 134,-96"/>
<text text-anchor="start" x="12" y="-84" font-family="Helvetica,sans-Serif" font-size="10.00">net::phy::PhysicalSocket</text>
<text text-anchor="start" x="21" y="-73" font-family="Helvetica,sans-Serif" font-size="10.00">&lt; SocketAddressT &gt;</text>
<polygon fill="none" stroke="#666666" points="8,-66 8,-96 134,-96 134,-66 8,-66"/>
</a>
</g>
</g>
<!-- Node2&#45;&gt;Node1 -->
<g id="edge1_Node000001_Node000002" class="edge">
<title>Node2&#45;&gt;Node1</title>
<g id="a_edge1_Node000001_Node000002"><a xlink:title=" ">
<path fill="none" stroke="#63b8ff" d="M71,-55.54C71,-46.96 71,-37.61 71,-30.16"/>
<polygon fill="none" stroke="#63b8ff" points="67.5,-55.8 71,-65.8 74.5,-55.8 67.5,-55.8"/>
</a>
</g>
</g>
<!-- Node3 -->
<g id="Node000003" class="node">
<title>Node3</title>
<g id="a_Node000003"><a xlink:href="classcore_1_1Descriptor.html" target="_top" xlink:title=" ">
<polygon fill="white" stroke="transparent" points="114,-151 28,-151 28,-132 114,-132 114,-151"/>
<text text-anchor="start" x="32" y="-138.5" font-family="Helvetica,sans-Serif" font-size="10.00">core::Descriptor</text>
<polygon fill="none" stroke="#666666" points="28,-132 28,-151 114,-151 114,-132 28,-132"/>
</a>
</g>
</g>
<!-- Node3&#45;&gt;Node2 -->
<g id="edge2_Node000002_Node000003" class="edge">
<title>Node3&#45;&gt;Node2</title>
<g id="a_edge2_Node000002_Node000003"><a xlink:title=" ">
<path fill="none" stroke="#63b8ff" d="M71,-121.65C71,-113.36 71,-103.78 71,-96.11"/>
<polygon fill="none" stroke="#63b8ff" points="67.5,-121.87 71,-131.87 74.5,-121.87 67.5,-121.87"/>
</a>
</g>
</g>
</g>
</svg>
