<?xml version="1.0" encoding="UTF-8" standalone="no"?>
<!DOCTYPE svg PUBLIC "-//W3C//DTD SVG 1.1//EN"
 "http://www.w3.org/Graphics/SVG/1.1/DTD/svg11.dtd">
<!-- Generated by graphviz version 14.1.1 (0)
 -->
<!-- Title: web::http::Parser::parseError Pages: 1 -->
<!--zoomable 243 -->

<svg id="main" version="1.1" xmlns="http://www.w3.org/2000/svg" xmlns:xlink="http://www.w3.org/1999/xlink" xml:space="preserve" onload="init(evt)">

<style type="text/css"><![CDATA[
.node, .edge {opacity: 0.7;}
.node.selected, .edge.selected {opacity: 1;}
.edge:hover path { stroke: red; }
.edge:hover polygon { stroke: red; fill: red; }
]]></style>

<defs>
  <circle id="rim" cx="0" cy="0" r="7"/>
  <circle id="rim2" cx="0" cy="0" r="3.5"/>
  <g id="zoomPlus">
    <use xlink:href="#rim" fill="#404040"><set attributeName="fill" to="#808080" begin="zoomplus.mouseover" end="zoomplus.mouseout"/></use>
    <path d="M-4,0h8M0,-4v8" fill="none" stroke="white" stroke-width="1.5" pointer-events="none"/>
  </g>
  <g id="zoomMin">
    <use xlink:href="#rim" fill="#404040"><set attributeName="fill" to="#808080" begin="zoomminus.mouseover" end="zoomminus.mouseout"/></use>
    <path d="M-4,0h8" fill="none" stroke="white" stroke-width="1.5" pointer-events="none"/>
  </g>
  <g id="arrowUp" transform="translate(30 24)">
    <use xlink:href="#rim"/>
    <path pointer-events="none" fill="none" stroke="white" stroke-width="1.5" d="M0,-3.0v7 M-2.5,-0.5L0,-3.0L2.5,-0.5"/>
  </g>
  <g id="arrowRight" transform="rotate(90) translate(36 -43)">
    <use xlink:href="#rim"/>
    <path pointer-events="none" fill="none" stroke="white" stroke-width="1.5" d="M0,-3.0v7 M-2.5,-0.5L0,-3.0L2.5,-0.5"/>
  </g>
  <g id="arrowDown" transform="rotate(180) translate(-30 -48)">
    <use xlink:href="#rim"/>
    <path pointer-events="none" fill="none" stroke="white" stroke-width="1.5" d="M0,-3.0v7 M-2.5,-0.5L0,-3.0L2.5,-0.5"/>
  </g>
  <g id="arrowLeft" transform="rotate(270) translate(-36 17)">
    <use xlink:href="#rim"/>
    <path pointer-events="none" fill="none" stroke="white" stroke-width="1.5" d="M0,-3.0v7 M-2.5,-0.5L0,-3.0L2.5,-0.5"/>
  </g>
  <g id="resetDef">
    <use xlink:href="#rim2" fill="#404040"><set attributeName="fill" to="#808080" begin="reset.mouseover" end="reset.mouseout"/></use>
  </g>
</defs>
<script type="application/ecmascript">
var viewWidth = 835;
var viewHeight = 243;
var sectionId = 'dynsection-10';
</script>
<script type="application/ecmascript" xlink:href="svg.min.js"/>
<svg id="graph" class="graph">
<g id="viewport">
<title>web::http::Parser::parseError</title>
<!-- Node1 -->
<g id="Node000001" class="node">
<title>Node1</title>
<g id="a_Node000001"><a xlink:title=" ">
<polygon fill="#999999" stroke="#666666" points="827,-109.5 722.5,-109.5 722.5,-76 827,-76 827,-109.5"/>
<text xml:space="preserve" text-anchor="start" x="730.5" y="-96" font-family="Helvetica,sans-Serif" font-size="10.00">web::http::Parser::</text>
<text xml:space="preserve" text-anchor="middle" x="774.75" y="-83.25" font-family="Helvetica,sans-Serif" font-size="10.00">parseError</text>
</a>
</g>
</g>
<!-- Node2 -->
<g id="Node000002" class="node">
<title>Node2</title>
<g id="a_Node000002"><a xlink:href="classweb_1_1http_1_1Parser.html#acc6afc67cabc5f61002830e31a36868c" target="_top" xlink:title=" ">
<polygon fill="white" stroke="#666666" points="686.5,-180.5 582,-180.5 582,-147 686.5,-147 686.5,-180.5"/>
<text xml:space="preserve" text-anchor="start" x="590" y="-167" font-family="Helvetica,sans-Serif" font-size="10.00">web::http::Parser::</text>
<text xml:space="preserve" text-anchor="middle" x="634.25" y="-154.25" font-family="Helvetica,sans-Serif" font-size="10.00">analyzeHeader</text>
</a>
</g>
</g>
<!-- Node1&#45;&gt;Node2 -->
<g id="edge1_Node000001_Node000002" class="edge">
<title>Node1&#45;&gt;Node2</title>
<g id="a_edge1_Node000001_Node000002"><a xlink:title=" ">
<path fill="none" stroke="#63b8ff" d="M730.14,-115.11C710.2,-125.33 686.96,-137.24 668.47,-146.72"/>
<polygon fill="#63b8ff" stroke="#63b8ff" points="731.57,-118.3 738.88,-110.63 728.38,-112.07 731.57,-118.3"/>
</a>
</g>
</g>
<!-- Node5 -->
<g id="Node000005" class="node">
<title>Node5</title>
<g id="a_Node000005"><a xlink:href="classweb_1_1http_1_1Parser.html#aef6ab45bed520f6fe3b2496e400e5389" target="_top" xlink:title=" ">
<polygon fill="white" stroke="#666666" points="511.5,-130.5 407,-130.5 407,-97 511.5,-97 511.5,-130.5"/>
<text xml:space="preserve" text-anchor="start" x="415" y="-117" font-family="Helvetica,sans-Serif" font-size="10.00">web::http::Parser::</text>
<text xml:space="preserve" text-anchor="middle" x="459.25" y="-104.25" font-family="Helvetica,sans-Serif" font-size="10.00">readHeader</text>
</a>
</g>
</g>
<!-- Node1&#45;&gt;Node5 -->
<g id="edge11_Node000001_Node000005" class="edge">
<title>Node1&#45;&gt;Node5</title>
<g id="a_edge11_Node000001_Node000005"><a xlink:title=" ">
<path fill="none" stroke="#63b8ff" d="M711.03,-96.95C652.61,-100.86 566.54,-106.63 511.96,-110.29"/>
<polygon fill="#63b8ff" stroke="#63b8ff" points="711.08,-100.46 720.82,-96.3 710.61,-93.47 711.08,-100.46"/>
</a>
</g>
</g>
<!-- Node10 -->
<g id="Node000010" class="node">
<title>Node10</title>
<g id="a_Node000010"><a xlink:href="classweb_1_1http_1_1Parser.html#a9b4196485cb33fd5dc8caa8e7c3bc568" target="_top" xlink:title=" ">
<polygon fill="white" stroke="#666666" points="686.5,-87.5 582,-87.5 582,-54 686.5,-54 686.5,-87.5"/>
<text xml:space="preserve" text-anchor="start" x="590" y="-74" font-family="Helvetica,sans-Serif" font-size="10.00">web::http::Parser::</text>
<text xml:space="preserve" text-anchor="middle" x="634.25" y="-61.25" font-family="Helvetica,sans-Serif" font-size="10.00">readContent</text>
</a>
</g>
</g>
<!-- Node1&#45;&gt;Node10 -->
<g id="edge9_Node000001_Node000010" class="edge">
<title>Node1&#45;&gt;Node10</title>
<g id="a_edge9_Node000001_Node000010"><a xlink:title=" ">
<path fill="none" stroke="#63b8ff" d="M710.92,-82.77C702.87,-81.49 694.71,-80.19 686.87,-78.95"/>
<polygon fill="#63b8ff" stroke="#63b8ff" points="710.26,-86.21 720.68,-84.32 711.36,-79.3 710.26,-86.21"/>
</a>
</g>
</g>
<!-- Node11 -->
<g id="Node000011" class="node">
<title>Node11</title>
<g id="a_Node000011"><a xlink:href="classweb_1_1http_1_1Parser.html#abc1ddad3e7024f1623f699e5b1a6f579" target="_top" xlink:title=" ">
<polygon fill="white" stroke="#666666" points="686.5,-35.5 582,-35.5 582,-2 686.5,-2 686.5,-35.5"/>
<text xml:space="preserve" text-anchor="start" x="590" y="-22" font-family="Helvetica,sans-Serif" font-size="10.00">web::http::Parser::</text>
<text xml:space="preserve" text-anchor="middle" x="634.25" y="-9.25" font-family="Helvetica,sans-Serif" font-size="10.00">readTrailer</text>
</a>
</g>
</g>
<!-- Node1&#45;&gt;Node11 -->
<g id="edge12_Node000001_Node000011" class="edge">
<title>Node1&#45;&gt;Node11</title>
<g id="a_edge12_Node000001_Node000011"><a xlink:title=" ">
<path fill="none" stroke="#63b8ff" d="M733.4,-70.18C718.69,-62.06 701.9,-52.89 686.5,-44.75 681.03,-41.86 675.21,-38.84 669.52,-35.93"/>
<polygon fill="#63b8ff" stroke="#63b8ff" points="731.43,-73.1 741.87,-74.88 734.82,-66.97 731.43,-73.1"/>
</a>
</g>
</g>
<!-- Node3 -->
<g id="Node000003" class="node">
<title>Node3</title>
<g id="a_Node000003"><a xlink:href="classweb_1_1http_1_1client_1_1ResponseParser.html#a57d3445f77b90b8e045bce9be8246370" target="_top" xlink:title=" ">
<polygon fill="white" stroke="#666666" points="546,-234.5 372.5,-234.5 372.5,-201 546,-201 546,-234.5"/>
<text xml:space="preserve" text-anchor="start" x="380.5" y="-221" font-family="Helvetica,sans-Serif" font-size="10.00">web::http::client::</text>
<text xml:space="preserve" text-anchor="middle" x="459.25" y="-208.25" font-family="Helvetica,sans-Serif" font-size="10.00">ResponseParser::analyzeHeader</text>
</a>
</g>
</g>
<!-- Node2&#45;&gt;Node3 -->
<g id="edge2_Node000002_Node000003" class="edge">
<title>Node2&#45;&gt;Node3</title>
<g id="a_edge2_Node000002_Node000003"><a xlink:title=" ">
<path fill="none" stroke="#63b8ff" d="M570.78,-183.93C562.45,-186.58 554.03,-189.25 546,-191.75 536.79,-194.62 527.02,-197.63 517.48,-200.54"/>
<polygon fill="#63b8ff" stroke="#63b8ff" points="571.72,-187.31 580.18,-180.93 569.59,-180.64 571.72,-187.31"/>
</a>
</g>
</g>
<!-- Node4 -->
<g id="Node000004" class="node">
<title>Node4</title>
<g id="a_Node000004"><a xlink:href="classweb_1_1http_1_1server_1_1RequestParser.html#acbf9d9b0c9868f3b7cfd98b4fa4b5851" target="_top" xlink:title=" ">
<polygon fill="white" stroke="#666666" points="542.25,-182.5 376.25,-182.5 376.25,-149 542.25,-149 542.25,-182.5"/>
<text xml:space="preserve" text-anchor="start" x="384.25" y="-169" font-family="Helvetica,sans-Serif" font-size="10.00">web::http::server::</text>
<text xml:space="preserve" text-anchor="middle" x="459.25" y="-156.25" font-family="Helvetica,sans-Serif" font-size="10.00">RequestParser::analyzeHeader</text>
</a>
</g>
</g>
<!-- Node2&#45;&gt;Node4 -->
<g id="edge3_Node000002_Node000004" class="edge">
<title>Node2&#45;&gt;Node4</title>
<g id="a_edge3_Node000002_Node000004"><a xlink:title=" ">
<path fill="none" stroke="#63b8ff" d="M570.54,-164.47C561.46,-164.58 552,-164.69 542.6,-164.8"/>
<polygon fill="#63b8ff" stroke="#63b8ff" points="570.34,-167.98 580.3,-164.36 570.26,-160.98 570.34,-167.98"/>
</a>
</g>
</g>
<!-- Node2&#45;&gt;Node5 -->
<g id="edge4_Node000002_Node000005" class="edge">
<title>Node2&#45;&gt;Node5</title>
<g id="a_edge4_Node000002_Node000005"><a xlink:title=" ">
<path fill="none" stroke="#63b8ff" d="M570.94,-145.74C551.53,-140.13 530.37,-134.02 511.79,-128.65"/>
<polygon fill="#63b8ff" stroke="#63b8ff" points="569.78,-149.05 580.36,-148.46 571.72,-142.32 569.78,-149.05"/>
</a>
</g>
</g>
<!-- Node6 -->
<g id="Node000006" class="node">
<title>Node6</title>
<g id="a_Node000006"><a xlink:href="classweb_1_1http_1_1Parser.html#a1291dd16e6eba36cd6f35448dba4b3d5" target="_top" xlink:title=" ">
<polygon fill="white" stroke="#666666" points="336.5,-85.5 232,-85.5 232,-52 336.5,-52 336.5,-85.5"/>
<text xml:space="preserve" text-anchor="start" x="240" y="-72" font-family="Helvetica,sans-Serif" font-size="10.00">web::http::Parser::</text>
<text xml:space="preserve" text-anchor="middle" x="284.25" y="-59.25" font-family="Helvetica,sans-Serif" font-size="10.00">parse</text>
</a>
</g>
</g>
<!-- Node5&#45;&gt;Node6 -->
<g id="edge5_Node000005_Node000006" class="edge">
<title>Node5&#45;&gt;Node6</title>
<g id="a_edge5_Node000005_Node000006"><a xlink:title=" ">
<path fill="none" stroke="#63b8ff" d="M395.94,-97.54C376.53,-92.49 355.37,-86.99 336.79,-82.16"/>
<polygon fill="#63b8ff" stroke="#63b8ff" points="394.79,-100.86 405.35,-99.99 396.55,-94.08 394.79,-100.86"/>
</a>
</g>
</g>
<!-- Node7 -->
<g id="Node000007" class="node">
<title>Node7</title>
<g id="a_Node000007"><a xlink:href="classapps_1_1http_1_1SimpleSocketProtocol.html#afd3ecdfb4d988ac77198f7db44e2200c" target="_top" xlink:title=" ">
<polygon fill="white" stroke="#666666" points="180.62,-137.5 15.38,-137.5 15.38,-104 180.62,-104 180.62,-137.5"/>
<text xml:space="preserve" text-anchor="start" x="23.38" y="-124" font-family="Helvetica,sans-Serif" font-size="10.00">apps::http::SimpleSocket</text>
<text xml:space="preserve" text-anchor="middle" x="98" y="-111.25" font-family="Helvetica,sans-Serif" font-size="10.00">Protocol::onReceivedFromPeer</text>
</a>
</g>
</g>
<!-- Node6&#45;&gt;Node7 -->
<g id="edge6_Node000006_Node000007" class="edge">
<title>Node6&#45;&gt;Node7</title>
<g id="a_edge6_Node000006_Node000007"><a xlink:title=" ">
<path fill="none" stroke="#63b8ff" d="M220.8,-87.59C212.47,-90.03 204.04,-92.48 196,-94.75 185.77,-97.65 174.9,-100.64 164.29,-103.52"/>
<polygon fill="#63b8ff" stroke="#63b8ff" points="221.6,-91 230.2,-84.81 219.61,-84.29 221.6,-91"/>
</a>
</g>
</g>
<!-- Node8 -->
<g id="Node000008" class="node">
<title>Node8</title>
<g id="a_Node000008"><a xlink:href="classweb_1_1http_1_1client_1_1SocketContext.html#a5ac9705bda485573e7af3228fefc8d2c" target="_top" xlink:title=" ">
<polygon fill="white" stroke="#666666" points="196,-85.5 0,-85.5 0,-52 196,-52 196,-85.5"/>
<text xml:space="preserve" text-anchor="start" x="8" y="-72" font-family="Helvetica,sans-Serif" font-size="10.00">web::http::client::</text>
<text xml:space="preserve" text-anchor="middle" x="98" y="-59.25" font-family="Helvetica,sans-Serif" font-size="10.00">SocketContext::onReceivedFromPeer</text>
</a>
</g>
</g>
<!-- Node6&#45;&gt;Node8 -->
<g id="edge7_Node000006_Node000008" class="edge">
<title>Node6&#45;&gt;Node8</title>
<g id="a_edge7_Node000006_Node000008"><a xlink:title=" ">
<path fill="none" stroke="#63b8ff" d="M220.63,-68.75C212.74,-68.75 204.52,-68.75 196.25,-68.75"/>
<polygon fill="#63b8ff" stroke="#63b8ff" points="220.41,-72.25 230.41,-68.75 220.41,-65.25 220.41,-72.25"/>
</a>
</g>
</g>
<!-- Node9 -->
<g id="Node000009" class="node">
<title>Node9</title>
<g id="a_Node000009"><a xlink:href="classweb_1_1http_1_1server_1_1SocketContext.html#a939435de5ba9e7ac686efd2de1844741" target="_top" xlink:title=" ">
<polygon fill="white" stroke="#666666" points="196,-33.5 0,-33.5 0,0 196,0 196,-33.5"/>
<text xml:space="preserve" text-anchor="start" x="8" y="-20" font-family="Helvetica,sans-Serif" font-size="10.00">web::http::server::</text>
<text xml:space="preserve" text-anchor="middle" x="98" y="-7.25" font-family="Helvetica,sans-Serif" font-size="10.00">SocketContext::onReceivedFromPeer</text>
</a>
</g>
</g>
<!-- Node6&#45;&gt;Node9 -->
<g id="edge8_Node000006_Node000009" class="edge">
<title>Node6&#45;&gt;Node9</title>
<g id="a_edge8_Node000006_Node000009"><a xlink:title=" ">
<path fill="none" stroke="#63b8ff" d="M220.8,-49.91C212.47,-47.47 204.04,-45.02 196,-42.75 185.77,-39.85 174.9,-36.86 164.29,-33.98"/>
<polygon fill="#63b8ff" stroke="#63b8ff" points="219.61,-53.21 230.2,-52.69 221.6,-46.5 219.61,-53.21"/>
</a>
</g>
</g>
<!-- Node10&#45;&gt;Node6 -->
<g id="edge10_Node000010_Node000006" class="edge">
<title>Node10&#45;&gt;Node6</title>
<g id="a_edge10_Node000010_Node000006"><a xlink:title=" ">
<path fill="none" stroke="#63b8ff" d="M570.32,-70.39C503.52,-70 399.17,-69.4 336.97,-69.05"/>
<polygon fill="#63b8ff" stroke="#63b8ff" points="569.99,-73.89 580.01,-70.44 570.03,-66.89 569.99,-73.89"/>
</a>
</g>
</g>
<!-- Node11&#45;&gt;Node6 -->
<g id="edge13_Node000011_Node000006" class="edge">
<title>Node11&#45;&gt;Node6</title>
<g id="a_edge13_Node000011_Node000006"><a xlink:title=" ">
<path fill="none" stroke="#63b8ff" d="M570.32,-27.79C503.52,-37.39 399.17,-52.38 336.97,-61.32"/>
<polygon fill="#63b8ff" stroke="#63b8ff" points="570.63,-31.28 580.03,-26.4 569.63,-24.35 570.63,-31.28"/>
</a>
</g>
</g>
</g>
</svg>

<g id="navigator" transform="translate(0 0)" fill="#404254">
  <rect fill="#f2f5e9" fill-opacity="0.5" stroke="#606060" stroke-width=".5" x="0" y="0" width="60" height="60"/>
  <use id="zoomplus" xlink:href="#zoomPlus" x="17" y="9" onmousedown="handleZoom(evt,'in')"/>
  <use id="zoomminus" xlink:href="#zoomMin" x="42" y="9" onmousedown="handleZoom(evt,'out')"/>
  <use id="reset" xlink:href="#resetDef" x="30" y="36" onmousedown="handleReset()"/>
   <use id="arrowup" xlink:href="#arrowUp" x="0" y="0" onmousedown="handlePan(0,-1)"/>
  <use id="arrowright" xlink:href="#arrowRight" x="0" y="0" onmousedown="handlePan(1,0)"/>
  <use id="arrowdown" xlink:href="#arrowDown" x="0" y="0" onmousedown="handlePan(0,1)"/>
  <use id="arrowleft" xlink:href="#arrowLeft" x="0" y="0" onmousedown="handlePan(-1,0)"/>
</g>
<svg viewBox="0 0 15 15" width="100%" height="30px" preserveAspectRatio="xMaxYMin meet">
 <g id="arrow_out" transform="scale(0.3 0.3)">
  <a xlink:href="classweb_1_1http_1_1Parser_a177b77b847f50f969491f250fe4c2f3b_icgraph_org.svg" target="_base">
   <rect id="button" ry="5" rx="5" y="6" x="6" height="38" width="38"
        fill="#f2f5e9" fill-opacity="0.5" stroke="#606060" stroke-width="1.0"/>
   <path id="arrow"
     d="M 11.500037,31.436501 C 11.940474,20.09759 22.043105,11.32322 32.158766,21.979434 L 37.068811,17.246167 C 37.068811,17.246167 37.088388,32 37.088388,32 L 22.160133,31.978069 C 22.160133,31.978069 26.997745,27.140456 26.997745,27.140456 C 18.528582,18.264221 13.291696,25.230495 11.500037,31.436501 z"
     style="fill:#404040;"/>
  </a>
 </g>
</svg>

<style type='text/css'>
<![CDATA[
[data-mouse-over-selected='false'] { opacity: 0.7; }
[data-mouse-over-selected='true']  { opacity: 1.0; }
]]>
</style>
<script type="application/ecmascript"><![CDATA[
document.addEventListener('DOMContentLoaded', (event) => {
  highlightEdges();
  highlightAdjacentNodes();
});
]]></script>
</svg>
