<?xml version="1.0" encoding="UTF-8" standalone="no"?>
<!DOCTYPE svg PUBLIC "-//W3C//DTD SVG 1.1//EN"
 "http://www.w3.org/Graphics/SVG/1.1/DTD/svg11.dtd">
<!-- Generated by graphviz version 14.1.1 (0)
 -->
<!-- Title: net::in6::stream::SocketClient&lt; SocketConnectorT, ConfigSocketClientT, SocketContextFactoryT, Args &gt; Pages: 1 -->
<svg width="237pt" height="244pt"
 viewBox="0.00 0.00 237.00 244.00" xmlns="http://www.w3.org/2000/svg" xmlns:xlink="http://www.w3.org/1999/xlink">
<g id="graph0" class="graph" transform="scale(1 1) rotate(0) translate(4 240.25)">
<title>net::in6::stream::SocketClient&lt; SocketConnectorT, ConfigSocketClientT, SocketContextFactoryT, Args &gt;</title>
<!-- Node1 -->
<g id="Node000001" class="node">
<title>Node1</title>
<g id="a_Node000001"><a xlink:title=" ">
<polygon fill="#999999" stroke="none" points="207.12,-59 21.38,-59 21.38,0 207.12,0 207.12,-59"/>
<text xml:space="preserve" text-anchor="start" x="25.38" y="-45.5" font-family="Helvetica,sans-Serif" font-size="10.00">net::in6::stream::Socket</text>
<text xml:space="preserve" text-anchor="start" x="25.38" y="-32.75" font-family="Helvetica,sans-Serif" font-size="10.00">Client&lt; SocketConnectorT,</text>
<text xml:space="preserve" text-anchor="start" x="25.38" y="-20" font-family="Helvetica,sans-Serif" font-size="10.00"> ConfigSocketClientT, SocketContext</text>
<text xml:space="preserve" text-anchor="start" x="73.75" y="-7.25" font-family="Helvetica,sans-Serif" font-size="10.00">FactoryT, Args &gt;</text>
<polygon fill="none" stroke="#666666" points="21.38,0 21.38,-59 207.12,-59 207.12,0 21.38,0"/>
</a>
</g>
</g>
<!-- Node2 -->
<g id="Node000002" class="node">
<title>Node2</title>
<g id="a_Node000002"><a xlink:href="classcore_1_1socket_1_1stream_1_1SocketClient.html" target="_top" xlink:title=" ">
<polygon fill="white" stroke="none" points="228.5,-166.75 0,-166.75 0,-95 228.5,-95 228.5,-166.75"/>
<text xml:space="preserve" text-anchor="start" x="4" y="-153.25" font-family="Helvetica,sans-Serif" font-size="10.00">core::socket::stream</text>
<text xml:space="preserve" text-anchor="start" x="4" y="-140.5" font-family="Helvetica,sans-Serif" font-size="10.00">::SocketClient&lt; SocketConnector</text>
<text xml:space="preserve" text-anchor="start" x="4" y="-127.75" font-family="Helvetica,sans-Serif" font-size="10.00">T&lt; net::in6::phy::stream::PhysicalSocket</text>
<text xml:space="preserve" text-anchor="start" x="4" y="-115" font-family="Helvetica,sans-Serif" font-size="10.00">Client, ConfigSocketClientT &gt;, SocketContext</text>
<text xml:space="preserve" text-anchor="start" x="69.25" y="-102.25" font-family="Helvetica,sans-Serif" font-size="10.00">FactoryT, Args... &gt;</text>
<polygon fill="none" stroke="#666666" points="0,-95 0,-166.75 228.5,-166.75 228.5,-95 0,-95"/>
</a>
</g>
</g>
<!-- Node2&#45;&gt;Node1 -->
<g id="edge1_Node000001_Node000002" class="edge">
<title>Node2&#45;&gt;Node1</title>
<g id="a_edge1_Node000001_Node000002"><a xlink:title=" ">
<path fill="none" stroke="#63b8ff" d="M114.25,-83.72C114.25,-75.23 114.25,-66.6 114.25,-58.84"/>
<polygon fill="none" stroke="#63b8ff" points="110.75,-83.6 114.25,-93.6 117.75,-83.6 110.75,-83.6"/>
</a>
</g>
</g>
<!-- Node3 -->
<g id="Node000003" class="node">
<title>Node3</title>
<g id="a_Node000003"><a xlink:href="classcore_1_1socket_1_1Socket.html" target="_top" xlink:title=" ">
<polygon fill="white" stroke="none" points="191.75,-236.25 36.75,-236.25 36.75,-202.75 191.75,-202.75 191.75,-236.25"/>
<text xml:space="preserve" text-anchor="start" x="40.75" y="-222.75" font-family="Helvetica,sans-Serif" font-size="10.00">core::socket::Socket</text>
<text xml:space="preserve" text-anchor="start" x="40.75" y="-210" font-family="Helvetica,sans-Serif" font-size="10.00">&lt; SocketConnectorT::Config &gt;</text>
<polygon fill="none" stroke="#666666" points="36.75,-202.75 36.75,-236.25 191.75,-236.25 191.75,-202.75 36.75,-202.75"/>
</a>
</g>
</g>
<!-- Node3&#45;&gt;Node2 -->
<g id="edge2_Node000002_Node000003" class="edge">
<title>Node3&#45;&gt;Node2</title>
<g id="a_edge2_Node000002_Node000003"><a xlink:title=" ">
<path fill="none" stroke="#63b8ff" d="M114.25,-191.51C114.25,-183.63 114.25,-174.91 114.25,-166.63"/>
<polygon fill="none" stroke="#63b8ff" points="110.75,-191.5 114.25,-201.5 117.75,-191.5 110.75,-191.5"/>
</a>
</g>
</g>
</g>
</svg>
