<?xml version="1.0" encoding="UTF-8" standalone="no"?>
<!DOCTYPE svg PUBLIC "-//W3C//DTD SVG 1.1//EN"
 "http://www.w3.org/Graphics/SVG/1.1/DTD/svg11.dtd">
<!-- Generated by graphviz version 2.43.0 (0)
 -->
<!-- Title: net::config::stream::tls::ConfigSocketClient::ConfigSocketClient Pages: 1 -->
<svg width="308pt" height="285pt"
 viewBox="0.00 0.00 308.00 285.00" xmlns="http://www.w3.org/2000/svg" xmlns:xlink="http://www.w3.org/1999/xlink">
<g id="graph0" class="graph" transform="scale(1 1) rotate(0) translate(4 281)">
<title>net::config::stream::tls::ConfigSocketClient::ConfigSocketClient</title>
<!-- Node1 -->
<g id="Node000001" class="node">
<title>Node1</title>
<g id="a_Node000001"><a xlink:title=" ">
<polygon fill="#999999" stroke="#666666" points="300,-159 176,-159 176,-118 300,-118 300,-159"/>
<text text-anchor="start" x="184" y="-147" font-family="Helvetica,sans-Serif" font-size="10.00">net::config::stream</text>
<text text-anchor="start" x="184" y="-136" font-family="Helvetica,sans-Serif" font-size="10.00">::tls::ConfigSocketClient</text>
<text text-anchor="middle" x="238" y="-125" font-family="Helvetica,sans-Serif" font-size="10.00">::ConfigSocketClient</text>
</a>
</g>
</g>
<!-- Node2 -->
<g id="Node000002" class="node">
<title>Node2</title>
<g id="a_Node000002"><a xlink:href="classnet_1_1in_1_1stream_1_1tls_1_1config_1_1ConfigSocketClient.html#aafee9f6449b4663538cd948a71493252" target="_top" xlink:title=" ">
<polygon fill="white" stroke="#666666" points="140,-277 0,-277 0,-236 140,-236 140,-277"/>
<text text-anchor="start" x="8" y="-265" font-family="Helvetica,sans-Serif" font-size="10.00">net::in::stream::tls</text>
<text text-anchor="start" x="8" y="-254" font-family="Helvetica,sans-Serif" font-size="10.00">::config::ConfigSocketClient</text>
<text text-anchor="middle" x="70" y="-243" font-family="Helvetica,sans-Serif" font-size="10.00">::ConfigSocketClient</text>
</a>
</g>
</g>
<!-- Node1&#45;&gt;Node2 -->
<g id="edge1_Node000001_Node000002" class="edge">
<title>Node1&#45;&gt;Node2</title>
<g id="a_edge1_Node000001_Node000002"><a xlink:title=" ">
<path fill="none" stroke="#63b8ff" d="M211.69,-166.33C193.23,-185.42 166.84,-210.29 140,-227.5 135.3,-230.52 130.23,-233.34 125.05,-235.94"/>
<polygon fill="#63b8ff" stroke="#63b8ff" points="214.24,-168.73 218.6,-159.07 209.17,-163.9 214.24,-168.73"/>
</a>
</g>
</g>
<!-- Node3 -->
<g id="Node000003" class="node">
<title>Node3</title>
<g id="a_Node000003"><a xlink:href="classnet_1_1in6_1_1stream_1_1tls_1_1config_1_1ConfigSocketClient.html#a25bc5f8df7527b2ccb44c424018fc408" target="_top" xlink:title=" ">
<polygon fill="white" stroke="#666666" points="140,-218 0,-218 0,-177 140,-177 140,-218"/>
<text text-anchor="start" x="8" y="-206" font-family="Helvetica,sans-Serif" font-size="10.00">net::in6::stream::tls</text>
<text text-anchor="start" x="8" y="-195" font-family="Helvetica,sans-Serif" font-size="10.00">::config::ConfigSocketClient</text>
<text text-anchor="middle" x="70" y="-184" font-family="Helvetica,sans-Serif" font-size="10.00">::ConfigSocketClient</text>
</a>
</g>
</g>
<!-- Node1&#45;&gt;Node3 -->
<g id="edge2_Node000001_Node000003" class="edge">
<title>Node1&#45;&gt;Node3</title>
<g id="a_edge2_Node000001_Node000003"><a xlink:title=" ">
<path fill="none" stroke="#63b8ff" d="M169.27,-162.57C155.82,-167.35 141.82,-172.33 128.75,-176.98"/>
<polygon fill="#63b8ff" stroke="#63b8ff" points="170.69,-165.78 178.94,-159.14 168.35,-159.19 170.69,-165.78"/>
</a>
</g>
</g>
<!-- Node4 -->
<g id="Node000004" class="node">
<title>Node4</title>
<g id="a_Node000004"><a xlink:href="classnet_1_1l2_1_1stream_1_1tls_1_1config_1_1ConfigSocketClient.html#a343efe6f671d7fa545f0491ca3e55333" target="_top" xlink:title=" ">
<polygon fill="white" stroke="#666666" points="140,-159 0,-159 0,-118 140,-118 140,-159"/>
<text text-anchor="start" x="8" y="-147" font-family="Helvetica,sans-Serif" font-size="10.00">net::l2::stream::tls</text>
<text text-anchor="start" x="8" y="-136" font-family="Helvetica,sans-Serif" font-size="10.00">::config::ConfigSocketClient</text>
<text text-anchor="middle" x="70" y="-125" font-family="Helvetica,sans-Serif" font-size="10.00">::ConfigSocketClient</text>
</a>
</g>
</g>
<!-- Node1&#45;&gt;Node4 -->
<g id="edge3_Node000001_Node000004" class="edge">
<title>Node1&#45;&gt;Node4</title>
<g id="a_edge3_Node000001_Node000004"><a xlink:title=" ">
<path fill="none" stroke="#63b8ff" d="M165.52,-138.5C157.12,-138.5 148.57,-138.5 140.2,-138.5"/>
<polygon fill="#63b8ff" stroke="#63b8ff" points="165.66,-142 175.66,-138.5 165.66,-135 165.66,-142"/>
</a>
</g>
</g>
<!-- Node5 -->
<g id="Node000005" class="node">
<title>Node5</title>
<g id="a_Node000005"><a xlink:href="classnet_1_1rc_1_1stream_1_1tls_1_1config_1_1ConfigSocketClient.html#a19733f86d11bec48f361f5afa075e923" target="_top" xlink:title=" ">
<polygon fill="white" stroke="#666666" points="140,-100 0,-100 0,-59 140,-59 140,-100"/>
<text text-anchor="start" x="8" y="-88" font-family="Helvetica,sans-Serif" font-size="10.00">net::rc::stream::tls</text>
<text text-anchor="start" x="8" y="-77" font-family="Helvetica,sans-Serif" font-size="10.00">::config::ConfigSocketClient</text>
<text text-anchor="middle" x="70" y="-66" font-family="Helvetica,sans-Serif" font-size="10.00">::ConfigSocketClient</text>
</a>
</g>
</g>
<!-- Node1&#45;&gt;Node5 -->
<g id="edge4_Node000001_Node000005" class="edge">
<title>Node1&#45;&gt;Node5</title>
<g id="a_edge4_Node000001_Node000005"><a xlink:title=" ">
<path fill="none" stroke="#63b8ff" d="M169.27,-114.43C155.82,-109.65 141.82,-104.67 128.75,-100.02"/>
<polygon fill="#63b8ff" stroke="#63b8ff" points="168.35,-117.81 178.94,-117.86 170.69,-111.22 168.35,-117.81"/>
</a>
</g>
</g>
<!-- Node6 -->
<g id="Node000006" class="node">
<title>Node6</title>
<g id="a_Node000006"><a xlink:href="classnet_1_1un_1_1stream_1_1tls_1_1config_1_1ConfigSocketClient.html#a25385f2fc826a95bd43a27aeef21199a" target="_top" xlink:title=" ">
<polygon fill="white" stroke="#666666" points="140,-41 0,-41 0,0 140,0 140,-41"/>
<text text-anchor="start" x="8" y="-29" font-family="Helvetica,sans-Serif" font-size="10.00">net::un::stream::tls</text>
<text text-anchor="start" x="8" y="-18" font-family="Helvetica,sans-Serif" font-size="10.00">::config::ConfigSocketClient</text>
<text text-anchor="middle" x="70" y="-7" font-family="Helvetica,sans-Serif" font-size="10.00">::ConfigSocketClient</text>
</a>
</g>
</g>
<!-- Node1&#45;&gt;Node6 -->
<g id="edge5_Node000001_Node000006" class="edge">
<title>Node1&#45;&gt;Node6</title>
<g id="a_edge5_Node000001_Node000006"><a xlink:title=" ">
<path fill="none" stroke="#63b8ff" d="M210.72,-110.24C192.25,-91.55 166.24,-67.45 140,-50.5 134.84,-47.17 129.25,-44.05 123.56,-41.18"/>
<polygon fill="#63b8ff" stroke="#63b8ff" points="208.67,-113.16 218.15,-117.89 213.69,-108.28 208.67,-113.16"/>
</a>
</g>
</g>
</g>
</svg>
