<?xml version="1.0" encoding="UTF-8" standalone="no"?>
<!DOCTYPE svg PUBLIC "-//W3C//DTD SVG 1.1//EN"
 "http://www.w3.org/Graphics/SVG/1.1/DTD/svg11.dtd">
<!-- Generated by graphviz version 2.43.0 (0)
 -->
<!-- Title: core::Observer Pages: 1 -->
<svg width="2366pt" height="335pt"
 viewBox="0.00 0.00 2366.00 335.00" xmlns="http://www.w3.org/2000/svg" xmlns:xlink="http://www.w3.org/1999/xlink">
<g id="graph0" class="graph" transform="scale(1 1) rotate(0) translate(4 331)">
<title>core::Observer</title>
<!-- Node1 -->
<g id="Node000001" class="node">
<title>Node1</title>
<g id="a_Node000001"><a xlink:title=" ">
<polygon fill="#999999" stroke="transparent" points="1435,-327 1355,-327 1355,-308 1435,-308 1435,-327"/>
<text text-anchor="start" x="1359" y="-314.5" font-family="Helvetica,sans-Serif" font-size="10.00">core::Observer</text>
<polygon fill="none" stroke="#666666" points="1355,-308 1355,-327 1435,-327 1435,-308 1355,-308"/>
</a>
</g>
</g>
<!-- Node2 -->
<g id="Node000002" class="node">
<title>Node2</title>
<g id="a_Node000002"><a xlink:href="classcore_1_1DescriptorEventReceiver.html" target="_top" xlink:title=" ">
<polygon fill="white" stroke="transparent" points="1473,-272 1317,-272 1317,-253 1473,-253 1473,-272"/>
<text text-anchor="start" x="1321" y="-259.5" font-family="Helvetica,sans-Serif" font-size="10.00">core::DescriptorEventReceiver</text>
<polygon fill="none" stroke="#666666" points="1317,-253 1317,-272 1473,-272 1473,-253 1317,-253"/>
</a>
</g>
</g>
<!-- Node1&#45;&gt;Node2 -->
<g id="edge1_Node000001_Node000002" class="edge">
<title>Node1&#45;&gt;Node2</title>
<g id="a_edge1_Node000001_Node000002"><a xlink:title=" ">
<path fill="none" stroke="darkgreen" d="M1395,-297.66C1395,-288.93 1395,-278.99 1395,-272.09"/>
<polygon fill="none" stroke="darkgreen" points="1391.5,-297.75 1395,-307.75 1398.5,-297.75 1391.5,-297.75"/>
</a>
</g>
</g>
<!-- Node3 -->
<g id="Node000003" class="node">
<title>Node3</title>
<g id="a_Node000003"><a xlink:href="classcore_1_1eventreceiver_1_1AcceptEventReceiver.html" target="_top" xlink:title=" ">
<polygon fill="white" stroke="transparent" points="459,-211.5 341,-211.5 341,-181.5 459,-181.5 459,-211.5"/>
<text text-anchor="start" x="345" y="-199.5" font-family="Helvetica,sans-Serif" font-size="10.00">core::eventreceiver</text>
<text text-anchor="start" x="345" y="-188.5" font-family="Helvetica,sans-Serif" font-size="10.00">::AcceptEventReceiver</text>
<polygon fill="none" stroke="#666666" points="341,-181.5 341,-211.5 459,-211.5 459,-181.5 341,-181.5"/>
</a>
</g>
</g>
<!-- Node2&#45;&gt;Node3 -->
<g id="edge2_Node000002_Node000003" class="edge">
<title>Node2&#45;&gt;Node3</title>
<g id="a_edge2_Node000002_Node000003"><a xlink:title=" ">
<path fill="none" stroke="#63b8ff" d="M1306.79,-255.83C1107.6,-243.01 627.26,-212.12 459.23,-201.31"/>
<polygon fill="none" stroke="#63b8ff" points="1306.72,-259.33 1316.92,-256.48 1307.17,-252.34 1306.72,-259.33"/>
</a>
</g>
</g>
<!-- Node9 -->
<g id="Node000009" class="node">
<title>Node9</title>
<g id="a_Node000009"><a xlink:href="classcore_1_1eventreceiver_1_1ConnectEventReceiver.html" target="_top" xlink:title=" ">
<polygon fill="white" stroke="transparent" points="1153,-211.5 1027,-211.5 1027,-181.5 1153,-181.5 1153,-211.5"/>
<text text-anchor="start" x="1031.5" y="-199.5" font-family="Helvetica,sans-Serif" font-size="10.00">core::eventreceiver</text>
<text text-anchor="start" x="1031.5" y="-188.5" font-family="Helvetica,sans-Serif" font-size="10.00">::ConnectEventReceiver</text>
<polygon fill="none" stroke="#666666" points="1027,-181.5 1027,-211.5 1153,-211.5 1153,-181.5 1027,-181.5"/>
</a>
</g>
</g>
<!-- Node2&#45;&gt;Node9 -->
<g id="edge8_Node000002_Node000009" class="edge">
<title>Node2&#45;&gt;Node9</title>
<g id="a_edge8_Node000002_Node000009"><a xlink:title=" ">
<path fill="none" stroke="#63b8ff" d="M1344.09,-250.82C1291.61,-239.8 1209.66,-222.61 1153.1,-210.74"/>
<polygon fill="none" stroke="#63b8ff" points="1343.68,-254.31 1354.18,-252.94 1345.11,-247.46 1343.68,-254.31"/>
</a>
</g>
</g>
<!-- Node15 -->
<g id="Node000015" class="node">
<title>Node15</title>
<g id="a_Node000015"><a xlink:href="classcore_1_1eventreceiver_1_1ExceptionalConditionEventReceiver.html" target="_top" xlink:title=" ">
<polygon fill="white" stroke="transparent" points="1468,-217 1322,-217 1322,-176 1468,-176 1468,-217"/>
<text text-anchor="start" x="1326" y="-204.5" font-family="Helvetica,sans-Serif" font-size="10.00">core::eventreceiver</text>
<text text-anchor="start" x="1326" y="-193.5" font-family="Helvetica,sans-Serif" font-size="10.00">::ExceptionalConditionEvent</text>
<text text-anchor="start" x="1373.5" y="-182.5" font-family="Helvetica,sans-Serif" font-size="10.00">Receiver</text>
<polygon fill="none" stroke="#666666" points="1322,-176 1322,-217 1468,-217 1468,-176 1322,-176"/>
</a>
</g>
</g>
<!-- Node2&#45;&gt;Node15 -->
<g id="edge14_Node000002_Node000015" class="edge">
<title>Node2&#45;&gt;Node15</title>
<g id="a_edge14_Node000002_Node000015"><a xlink:title=" ">
<path fill="none" stroke="#63b8ff" d="M1395,-242.63C1395,-234.56 1395,-225.15 1395,-217.01"/>
<polygon fill="none" stroke="#63b8ff" points="1391.5,-242.87 1395,-252.87 1398.5,-242.87 1391.5,-242.87"/>
</a>
</g>
</g>
<!-- Node17 -->
<g id="Node000017" class="node">
<title>Node17</title>
<g id="a_Node000017"><a xlink:href="classcore_1_1eventreceiver_1_1ReadEventReceiver.html" target="_top" xlink:title=" ">
<polygon fill="white" stroke="transparent" points="1667,-211.5 1557,-211.5 1557,-181.5 1667,-181.5 1667,-211.5"/>
<text text-anchor="start" x="1561" y="-199.5" font-family="Helvetica,sans-Serif" font-size="10.00">core::eventreceiver</text>
<text text-anchor="start" x="1561" y="-188.5" font-family="Helvetica,sans-Serif" font-size="10.00">::ReadEventReceiver</text>
<polygon fill="none" stroke="#666666" points="1557,-181.5 1557,-211.5 1667,-211.5 1667,-181.5 1557,-181.5"/>
</a>
</g>
</g>
<!-- Node2&#45;&gt;Node17 -->
<g id="edge16_Node000002_Node000017" class="edge">
<title>Node2&#45;&gt;Node17</title>
<g id="a_edge16_Node000002_Node000017"><a xlink:title=" ">
<path fill="none" stroke="#63b8ff" d="M1434.05,-249.98C1470.52,-239.23 1525.06,-223.14 1564.14,-211.62"/>
<polygon fill="none" stroke="#63b8ff" points="1432.87,-246.68 1424.27,-252.87 1434.85,-253.4 1432.87,-246.68"/>
</a>
</g>
</g>
<!-- Node24 -->
<g id="Node000024" class="node">
<title>Node24</title>
<g id="a_Node000024"><a xlink:href="classcore_1_1eventreceiver_1_1WriteEventReceiver.html" target="_top" xlink:title=" ">
<polygon fill="white" stroke="transparent" points="1965,-211.5 1853,-211.5 1853,-181.5 1965,-181.5 1965,-211.5"/>
<text text-anchor="start" x="1857.5" y="-199.5" font-family="Helvetica,sans-Serif" font-size="10.00">core::eventreceiver</text>
<text text-anchor="start" x="1857.5" y="-188.5" font-family="Helvetica,sans-Serif" font-size="10.00">::WriteEventReceiver</text>
<polygon fill="none" stroke="#666666" points="1853,-181.5 1853,-211.5 1965,-211.5 1965,-181.5 1853,-181.5"/>
</a>
</g>
</g>
<!-- Node2&#45;&gt;Node24 -->
<g id="edge24_Node000002_Node000024" class="edge">
<title>Node2&#45;&gt;Node24</title>
<g id="a_edge24_Node000002_Node000024"><a xlink:title=" ">
<path fill="none" stroke="#63b8ff" d="M1473.71,-251.7C1578.41,-238.66 1760.91,-215.94 1852.78,-204.5"/>
<polygon fill="none" stroke="#63b8ff" points="1473.01,-248.26 1463.52,-252.97 1473.88,-255.21 1473.01,-248.26"/>
</a>
</g>
</g>
<!-- Node4 -->
<g id="Node000004" class="node">
<title>Node4</title>
<g id="a_Node000004"><a xlink:href="classcore_1_1socket_1_1stream_1_1SocketAcceptor.html" target="_top" xlink:title=" ">
<polygon fill="white" stroke="transparent" points="192,-140 0,-140 0,-88 192,-88 192,-140"/>
<text text-anchor="start" x="4.5" y="-128" font-family="Helvetica,sans-Serif" font-size="10.00">core::socket::stream</text>
<text text-anchor="start" x="4.5" y="-117" font-family="Helvetica,sans-Serif" font-size="10.00">::SocketAcceptor&lt; PhysicalServer</text>
<text text-anchor="start" x="4.5" y="-106" font-family="Helvetica,sans-Serif" font-size="10.00">SocketT, ConfigT, core::socket</text>
<text text-anchor="start" x="4.5" y="-95" font-family="Helvetica,sans-Serif" font-size="10.00">::stream::legacy::SocketConnection &gt;</text>
<polygon fill="none" stroke="#666666" points="0,-88 0,-140 192,-140 192,-88 0,-88"/>
</a>
</g>
</g>
<!-- Node3&#45;&gt;Node4 -->
<g id="edge3_Node000003_Node000004" class="edge">
<title>Node3&#45;&gt;Node4</title>
<g id="a_edge3_Node000003_Node000004"><a xlink:title=" ">
<path fill="none" stroke="darkgreen" d="M337.17,-178.86C294.89,-167.67 238.38,-152.7 190.69,-140.07"/>
<polygon fill="none" stroke="darkgreen" points="336.48,-182.3 347.05,-181.48 338.28,-175.53 336.48,-182.3"/>
</a>
</g>
</g>
<!-- Node6 -->
<g id="Node000006" class="node">
<title>Node6</title>
<g id="a_Node000006"><a xlink:href="classcore_1_1socket_1_1stream_1_1SocketAcceptor.html" target="_top" xlink:title=" ">
<polygon fill="white" stroke="transparent" points="384,-140 210,-140 210,-88 384,-88 384,-140"/>
<text text-anchor="start" x="214" y="-128" font-family="Helvetica,sans-Serif" font-size="10.00">core::socket::stream</text>
<text text-anchor="start" x="214" y="-117" font-family="Helvetica,sans-Serif" font-size="10.00">::SocketAcceptor&lt; PhysicalSocket</text>
<text text-anchor="start" x="214" y="-106" font-family="Helvetica,sans-Serif" font-size="10.00">ServerT, ConfigT, core::socket</text>
<text text-anchor="start" x="215.5" y="-95" font-family="Helvetica,sans-Serif" font-size="10.00">::stream::tls::SocketConnection &gt;</text>
<polygon fill="none" stroke="#666666" points="210,-88 210,-140 384,-140 384,-88 210,-88"/>
</a>
</g>
</g>
<!-- Node3&#45;&gt;Node6 -->
<g id="edge5_Node000003_Node000006" class="edge">
<title>Node3&#45;&gt;Node6</title>
<g id="a_edge5_Node000003_Node000006"><a xlink:title=" ">
<path fill="none" stroke="darkgreen" d="M374.06,-175.23C360.47,-164.61 343.71,-151.51 329.29,-140.24"/>
<polygon fill="none" stroke="darkgreen" points="372.02,-178.08 382.06,-181.48 376.33,-172.56 372.02,-178.08"/>
</a>
</g>
</g>
<!-- Node8 -->
<g id="Node000008" class="node">
<title>Node8</title>
<g id="a_Node000008"><a xlink:href="classcore_1_1socket_1_1stream_1_1SocketAcceptor.html" target="_top" xlink:title=" ">
<polygon fill="white" stroke="transparent" points="602,-134.5 402,-134.5 402,-93.5 602,-93.5 602,-134.5"/>
<text text-anchor="start" x="406" y="-122" font-family="Helvetica,sans-Serif" font-size="10.00">core::socket::stream</text>
<text text-anchor="start" x="406" y="-111" font-family="Helvetica,sans-Serif" font-size="10.00">::SocketAcceptor&lt; PhysicalSocket</text>
<text text-anchor="start" x="406" y="-100" font-family="Helvetica,sans-Serif" font-size="10.00">ServerT, ConfigT, SocketConnectionT &gt;</text>
<polygon fill="none" stroke="#666666" points="402,-93.5 402,-134.5 602,-134.5 602,-93.5 402,-93.5"/>
</a>
</g>
</g>
<!-- Node3&#45;&gt;Node8 -->
<g id="edge7_Node000003_Node000008" class="edge">
<title>Node3&#45;&gt;Node8</title>
<g id="a_edge7_Node000003_Node000008"><a xlink:title=" ">
<path fill="none" stroke="darkgreen" d="M426.02,-174.97C441.74,-162.56 461.67,-146.83 477.18,-134.59"/>
<polygon fill="none" stroke="darkgreen" points="423.45,-172.54 417.77,-181.48 427.79,-178.03 423.45,-172.54"/>
</a>
</g>
</g>
<!-- Node5 -->
<g id="Node000005" class="node">
<title>Node5</title>
<g id="a_Node000005"><a xlink:href="classcore_1_1socket_1_1stream_1_1legacy_1_1SocketAcceptor.html" target="_top" xlink:title=" ">
<polygon fill="white" stroke="transparent" points="163,-52 29,-52 29,0 163,0 163,-52"/>
<text text-anchor="start" x="33.5" y="-40" font-family="Helvetica,sans-Serif" font-size="10.00">core::socket::stream</text>
<text text-anchor="start" x="33.5" y="-29" font-family="Helvetica,sans-Serif" font-size="10.00">::legacy::SocketAcceptor</text>
<text text-anchor="start" x="33.5" y="-18" font-family="Helvetica,sans-Serif" font-size="10.00">&lt; PhysicalServerSocketT,</text>
<text text-anchor="start" x="70" y="-7" font-family="Helvetica,sans-Serif" font-size="10.00"> ConfigT &gt;</text>
<polygon fill="none" stroke="#666666" points="29,0 29,-52 163,-52 163,0 29,0"/>
</a>
</g>
</g>
<!-- Node4&#45;&gt;Node5 -->
<g id="edge4_Node000004_Node000005" class="edge">
<title>Node4&#45;&gt;Node5</title>
<g id="a_edge4_Node000004_Node000005"><a xlink:title=" ">
<path fill="none" stroke="#8b1a1a" d="M96,-77.56C96,-69.04 96,-60.1 96,-52.16"/>
<polygon fill="none" stroke="#8b1a1a" points="92.5,-77.66 96,-87.66 99.5,-77.66 92.5,-77.66"/>
</a>
</g>
</g>
<!-- Node7 -->
<g id="Node000007" class="node">
<title>Node7</title>
<g id="a_Node000007"><a xlink:href="classcore_1_1socket_1_1stream_1_1tls_1_1SocketAcceptor.html" target="_top" xlink:title=" ">
<polygon fill="white" stroke="transparent" points="364,-52 230,-52 230,0 364,0 364,-52"/>
<text text-anchor="start" x="234.5" y="-40" font-family="Helvetica,sans-Serif" font-size="10.00">core::socket::stream</text>
<text text-anchor="start" x="234.5" y="-29" font-family="Helvetica,sans-Serif" font-size="10.00">::tls::SocketAcceptor</text>
<text text-anchor="start" x="234.5" y="-18" font-family="Helvetica,sans-Serif" font-size="10.00">&lt; PhysicalSocketServerT,</text>
<text text-anchor="start" x="271" y="-7" font-family="Helvetica,sans-Serif" font-size="10.00"> ConfigT &gt;</text>
<polygon fill="none" stroke="#666666" points="230,0 230,-52 364,-52 364,0 230,0"/>
</a>
</g>
</g>
<!-- Node6&#45;&gt;Node7 -->
<g id="edge6_Node000006_Node000007" class="edge">
<title>Node6&#45;&gt;Node7</title>
<g id="a_edge6_Node000006_Node000007"><a xlink:title=" ">
<path fill="none" stroke="#8b1a1a" d="M297,-77.56C297,-69.04 297,-60.1 297,-52.16"/>
<polygon fill="none" stroke="#8b1a1a" points="293.5,-77.66 297,-87.66 300.5,-77.66 293.5,-77.66"/>
</a>
</g>
</g>
<!-- Node10 -->
<g id="Node000010" class="node">
<title>Node10</title>
<g id="a_Node000010"><a xlink:href="classcore_1_1socket_1_1stream_1_1SocketConnector.html" target="_top" xlink:title=" ">
<polygon fill="white" stroke="transparent" points="848,-140 620,-140 620,-88 848,-88 848,-140"/>
<text text-anchor="start" x="624" y="-128" font-family="Helvetica,sans-Serif" font-size="10.00">core::socket::stream</text>
<text text-anchor="start" x="624" y="-117" font-family="Helvetica,sans-Serif" font-size="10.00">::SocketConnector&lt; Physical</text>
<text text-anchor="start" x="624" y="-106" font-family="Helvetica,sans-Serif" font-size="10.00">ClientSocketT, ConfigT, core</text>
<text text-anchor="start" x="624" y="-95" font-family="Helvetica,sans-Serif" font-size="10.00">::socket::stream::legacy::SocketConnection &gt;</text>
<polygon fill="none" stroke="#666666" points="620,-88 620,-140 848,-140 848,-88 620,-88"/>
</a>
</g>
</g>
<!-- Node9&#45;&gt;Node10 -->
<g id="edge9_Node000009_Node000010" class="edge">
<title>Node9&#45;&gt;Node10</title>
<g id="a_edge9_Node000009_Node000010"><a xlink:title=" ">
<path fill="none" stroke="darkgreen" d="M1017.98,-179.21C968.31,-167.98 901.33,-152.84 844.89,-140.07"/>
<polygon fill="none" stroke="darkgreen" points="1017.46,-182.69 1027.99,-181.48 1019.01,-175.86 1017.46,-182.69"/>
</a>
</g>
</g>
<!-- Node12 -->
<g id="Node000012" class="node">
<title>Node12</title>
<g id="a_Node000012"><a xlink:href="classcore_1_1socket_1_1stream_1_1SocketConnector.html" target="_top" xlink:title=" ">
<polygon fill="white" stroke="transparent" points="1076,-140 866,-140 866,-88 1076,-88 1076,-140"/>
<text text-anchor="start" x="870.5" y="-128" font-family="Helvetica,sans-Serif" font-size="10.00">core::socket::stream</text>
<text text-anchor="start" x="870.5" y="-117" font-family="Helvetica,sans-Serif" font-size="10.00">::SocketConnector&lt; Physical</text>
<text text-anchor="start" x="870.5" y="-106" font-family="Helvetica,sans-Serif" font-size="10.00">SocketClientT, ConfigT, core</text>
<text text-anchor="start" x="870.5" y="-95" font-family="Helvetica,sans-Serif" font-size="10.00">::socket::stream::tls::SocketConnection &gt;</text>
<polygon fill="none" stroke="#666666" points="866,-88 866,-140 1076,-140 1076,-88 866,-88"/>
</a>
</g>
</g>
<!-- Node9&#45;&gt;Node12 -->
<g id="edge11_Node000009_Node000012" class="edge">
<title>Node9&#45;&gt;Node12</title>
<g id="a_edge11_Node000009_Node000012"><a xlink:title=" ">
<path fill="none" stroke="darkgreen" d="M1060.91,-175.82C1045.07,-165.1 1025.28,-151.72 1008.31,-140.24"/>
<polygon fill="none" stroke="darkgreen" points="1059.03,-178.77 1069.27,-181.48 1062.95,-172.98 1059.03,-178.77"/>
</a>
</g>
</g>
<!-- Node14 -->
<g id="Node000014" class="node">
<title>Node14</title>
<g id="a_Node000014"><a xlink:href="classcore_1_1socket_1_1stream_1_1SocketConnector.html" target="_top" xlink:title=" ">
<polygon fill="white" stroke="transparent" points="1324,-134.5 1094,-134.5 1094,-93.5 1324,-93.5 1324,-134.5"/>
<text text-anchor="start" x="1098.5" y="-122" font-family="Helvetica,sans-Serif" font-size="10.00">core::socket::stream</text>
<text text-anchor="start" x="1098.5" y="-111" font-family="Helvetica,sans-Serif" font-size="10.00">::SocketConnector&lt; Physical</text>
<text text-anchor="start" x="1098.5" y="-100" font-family="Helvetica,sans-Serif" font-size="10.00">SocketClientT, ConfigT, SocketConnectionT &gt;</text>
<polygon fill="none" stroke="#666666" points="1094,-93.5 1094,-134.5 1324,-134.5 1324,-93.5 1094,-93.5"/>
</a>
</g>
</g>
<!-- Node9&#45;&gt;Node14 -->
<g id="edge13_Node000009_Node000014" class="edge">
<title>Node9&#45;&gt;Node14</title>
<g id="a_edge13_Node000009_Node000014"><a xlink:title=" ">
<path fill="none" stroke="darkgreen" d="M1119.09,-175.82C1137.62,-163.29 1161.53,-147.11 1180.04,-134.59"/>
<polygon fill="none" stroke="darkgreen" points="1117.05,-172.98 1110.73,-181.48 1120.97,-178.77 1117.05,-172.98"/>
</a>
</g>
</g>
<!-- Node11 -->
<g id="Node000011" class="node">
<title>Node11</title>
<g id="a_Node000011"><a xlink:href="classcore_1_1socket_1_1stream_1_1legacy_1_1SocketConnector.html" target="_top" xlink:title=" ">
<polygon fill="white" stroke="transparent" points="801,-52 667,-52 667,0 801,0 801,-52"/>
<text text-anchor="start" x="671" y="-40" font-family="Helvetica,sans-Serif" font-size="10.00">core::socket::stream</text>
<text text-anchor="start" x="671" y="-29" font-family="Helvetica,sans-Serif" font-size="10.00">::legacy::SocketConnector</text>
<text text-anchor="start" x="671" y="-18" font-family="Helvetica,sans-Serif" font-size="10.00">&lt; PhysicalClientSocketT,</text>
<text text-anchor="start" x="708" y="-7" font-family="Helvetica,sans-Serif" font-size="10.00"> ConfigT &gt;</text>
<polygon fill="none" stroke="#666666" points="667,0 667,-52 801,-52 801,0 667,0"/>
</a>
</g>
</g>
<!-- Node10&#45;&gt;Node11 -->
<g id="edge10_Node000010_Node000011" class="edge">
<title>Node10&#45;&gt;Node11</title>
<g id="a_edge10_Node000010_Node000011"><a xlink:title=" ">
<path fill="none" stroke="#8b1a1a" d="M734,-77.56C734,-69.04 734,-60.1 734,-52.16"/>
<polygon fill="none" stroke="#8b1a1a" points="730.5,-77.66 734,-87.66 737.5,-77.66 730.5,-77.66"/>
</a>
</g>
</g>
<!-- Node13 -->
<g id="Node000013" class="node">
<title>Node13</title>
<g id="a_Node000013"><a xlink:href="classcore_1_1socket_1_1stream_1_1tls_1_1SocketConnector.html" target="_top" xlink:title=" ">
<polygon fill="white" stroke="transparent" points="1036,-52 906,-52 906,0 1036,0 1036,-52"/>
<text text-anchor="start" x="910" y="-40" font-family="Helvetica,sans-Serif" font-size="10.00">core::socket::stream</text>
<text text-anchor="start" x="910" y="-29" font-family="Helvetica,sans-Serif" font-size="10.00">::tls::SocketConnector</text>
<text text-anchor="start" x="910" y="-18" font-family="Helvetica,sans-Serif" font-size="10.00">&lt; PhysicalSocketClientT,</text>
<text text-anchor="start" x="945" y="-7" font-family="Helvetica,sans-Serif" font-size="10.00"> ConfigT &gt;</text>
<polygon fill="none" stroke="#666666" points="906,0 906,-52 1036,-52 1036,0 906,0"/>
</a>
</g>
</g>
<!-- Node12&#45;&gt;Node13 -->
<g id="edge12_Node000012_Node000013" class="edge">
<title>Node12&#45;&gt;Node13</title>
<g id="a_edge12_Node000012_Node000013"><a xlink:title=" ">
<path fill="none" stroke="#8b1a1a" d="M971,-77.56C971,-69.04 971,-60.1 971,-52.16"/>
<polygon fill="none" stroke="#8b1a1a" points="967.5,-77.66 971,-87.66 974.5,-77.66 967.5,-77.66"/>
</a>
</g>
</g>
<!-- Node16 -->
<g id="Node000016" class="node">
<title>Node16</title>
<g id="a_Node000016"><a xlink:href="classdatabase_1_1mariadb_1_1MariaDBConnection.html" target="_top" xlink:title=" ">
<polygon fill="white" stroke="transparent" points="1448,-129 1342,-129 1342,-99 1448,-99 1448,-129"/>
<text text-anchor="start" x="1346" y="-117" font-family="Helvetica,sans-Serif" font-size="10.00">database::mariadb::</text>
<text text-anchor="start" x="1346.5" y="-106" font-family="Helvetica,sans-Serif" font-size="10.00">MariaDBConnection</text>
<polygon fill="none" stroke="#666666" points="1342,-99 1342,-129 1448,-129 1448,-99 1342,-99"/>
</a>
</g>
</g>
<!-- Node15&#45;&gt;Node16 -->
<g id="edge15_Node000015_Node000016" class="edge">
<title>Node15&#45;&gt;Node16</title>
<g id="a_edge15_Node000015_Node000016"><a xlink:title=" ">
<path fill="none" stroke="#8b1a1a" d="M1395,-165.26C1395,-152.96 1395,-139.33 1395,-129.37"/>
<polygon fill="none" stroke="#8b1a1a" points="1391.5,-165.6 1395,-175.6 1398.5,-165.6 1391.5,-165.6"/>
</a>
</g>
</g>
<!-- Node17&#45;&gt;Node16 -->
<g id="edge23_Node000017_Node000016" class="edge">
<title>Node17&#45;&gt;Node16</title>
<g id="a_edge23_Node000017_Node000016"><a xlink:title=" ">
<path fill="none" stroke="#8b1a1a" d="M1561.83,-178.1C1531.39,-167.4 1491.83,-153.25 1457,-140 1448,-136.57 1438.31,-132.74 1429.34,-129.13"/>
<polygon fill="none" stroke="#8b1a1a" points="1560.78,-181.44 1571.37,-181.44 1563.09,-174.83 1560.78,-181.44"/>
</a>
</g>
</g>
<!-- Node18 -->
<g id="Node000018" class="node">
<title>Node18</title>
<g id="a_Node000018"><a xlink:href="classcore_1_1pipe_1_1PipeSink.html" target="_top" xlink:title=" ">
<polygon fill="white" stroke="transparent" points="1572,-123.5 1466,-123.5 1466,-104.5 1572,-104.5 1572,-123.5"/>
<text text-anchor="start" x="1470.5" y="-111" font-family="Helvetica,sans-Serif" font-size="10.00">core::pipe::PipeSink</text>
<polygon fill="none" stroke="#666666" points="1466,-104.5 1466,-123.5 1572,-123.5 1572,-104.5 1466,-104.5"/>
</a>
</g>
</g>
<!-- Node17&#45;&gt;Node18 -->
<g id="edge17_Node000017_Node000018" class="edge">
<title>Node17&#45;&gt;Node18</title>
<g id="a_edge17_Node000017_Node000018"><a xlink:title=" ">
<path fill="none" stroke="#63b8ff" d="M1588.06,-174.78C1568.9,-158.2 1543.01,-135.78 1529,-123.66"/>
<polygon fill="none" stroke="#63b8ff" points="1585.95,-177.58 1595.8,-181.48 1590.53,-172.29 1585.95,-177.58"/>
</a>
</g>
</g>
<!-- Node19 -->
<g id="Node000019" class="node">
<title>Node19</title>
<g id="a_Node000019"><a xlink:href="classcore_1_1socket_1_1stream_1_1SocketReader.html" target="_top" xlink:title=" ">
<polygon fill="white" stroke="transparent" points="1774,-129 1590,-129 1590,-99 1774,-99 1774,-129"/>
<text text-anchor="start" x="1594.5" y="-117" font-family="Helvetica,sans-Serif" font-size="10.00">core::socket::stream</text>
<text text-anchor="start" x="1594.5" y="-106" font-family="Helvetica,sans-Serif" font-size="10.00">::SocketReader&lt; PhysicalSocketT &gt;</text>
<polygon fill="none" stroke="#666666" points="1590,-99 1590,-129 1774,-129 1774,-99 1590,-99"/>
</a>
</g>
</g>
<!-- Node17&#45;&gt;Node19 -->
<g id="edge18_Node000017_Node000019" class="edge">
<title>Node17&#45;&gt;Node19</title>
<g id="a_edge18_Node000017_Node000019"><a xlink:title=" ">
<path fill="none" stroke="#63b8ff" d="M1630.99,-173.66C1643.31,-159.49 1659.01,-141.44 1669.71,-129.13"/>
<polygon fill="none" stroke="#63b8ff" points="1628.11,-171.64 1624.19,-181.48 1633.4,-176.23 1628.11,-171.64"/>
</a>
</g>
</g>
<!-- Node22 -->
<g id="Node000022" class="node">
<title>Node22</title>
<g id="a_Node000022"><a xlink:href="classcore_1_1socket_1_1stream_1_1tls_1_1TLSHandshake.html" target="_top" xlink:title=" ">
<polygon fill="white" stroke="transparent" points="2026,-129 1918,-129 1918,-99 2026,-99 2026,-129"/>
<text text-anchor="start" x="1922" y="-117" font-family="Helvetica,sans-Serif" font-size="10.00">core::socket::stream</text>
<text text-anchor="start" x="1924" y="-106" font-family="Helvetica,sans-Serif" font-size="10.00">::tls::TLSHandshake</text>
<polygon fill="none" stroke="#666666" points="1918,-99 1918,-129 2026,-129 2026,-99 1918,-99"/>
</a>
</g>
</g>
<!-- Node17&#45;&gt;Node22 -->
<g id="edge21_Node000017_Node000022" class="edge">
<title>Node17&#45;&gt;Node22</title>
<g id="a_edge21_Node000017_Node000022"><a xlink:title=" ">
<path fill="none" stroke="#63b8ff" d="M1677.42,-186.98C1738.17,-178.21 1830.75,-162.61 1909,-140 1919.29,-137.03 1930.22,-133.01 1940.04,-129.06"/>
<polygon fill="none" stroke="#63b8ff" points="1676.61,-183.56 1667.21,-188.44 1677.6,-190.49 1676.61,-183.56"/>
</a>
</g>
</g>
<!-- Node23 -->
<g id="Node000023" class="node">
<title>Node23</title>
<g id="a_Node000023"><a xlink:href="classcore_1_1socket_1_1stream_1_1tls_1_1TLSShutdown.html" target="_top" xlink:title=" ">
<polygon fill="white" stroke="transparent" points="1900,-129 1792,-129 1792,-99 1900,-99 1900,-129"/>
<text text-anchor="start" x="1796" y="-117" font-family="Helvetica,sans-Serif" font-size="10.00">core::socket::stream</text>
<text text-anchor="start" x="1801" y="-106" font-family="Helvetica,sans-Serif" font-size="10.00">::tls::TLSShutdown</text>
<polygon fill="none" stroke="#666666" points="1792,-99 1792,-129 1900,-129 1900,-99 1792,-99"/>
</a>
</g>
</g>
<!-- Node17&#45;&gt;Node23 -->
<g id="edge22_Node000017_Node000023" class="edge">
<title>Node17&#45;&gt;Node23</title>
<g id="a_edge22_Node000017_Node000023"><a xlink:title=" ">
<path fill="none" stroke="#63b8ff" d="M1667.64,-178.43C1701.22,-167.88 1744.78,-153.77 1783,-140 1792.41,-136.61 1802.52,-132.71 1811.82,-129.02"/>
<polygon fill="none" stroke="#63b8ff" points="1666.49,-175.12 1657.99,-181.45 1668.58,-181.8 1666.49,-175.12"/>
</a>
</g>
</g>
<!-- Node20 -->
<g id="Node000020" class="node">
<title>Node20</title>
<g id="a_Node000020"><a xlink:href="classcore_1_1socket_1_1stream_1_1legacy_1_1SocketReader.html" target="_top" xlink:title=" ">
<polygon fill="white" stroke="transparent" points="1676,-46.5 1556,-46.5 1556,-5.5 1676,-5.5 1676,-46.5"/>
<text text-anchor="start" x="1560.5" y="-34" font-family="Helvetica,sans-Serif" font-size="10.00">core::socket::stream</text>
<text text-anchor="start" x="1560.5" y="-23" font-family="Helvetica,sans-Serif" font-size="10.00">::legacy::SocketReader</text>
<text text-anchor="start" x="1565" y="-12" font-family="Helvetica,sans-Serif" font-size="10.00">&lt; PhysicalSocketT &gt;</text>
<polygon fill="none" stroke="#666666" points="1556,-5.5 1556,-46.5 1676,-46.5 1676,-5.5 1556,-5.5"/>
</a>
</g>
</g>
<!-- Node19&#45;&gt;Node20 -->
<g id="edge19_Node000019_Node000020" class="edge">
<title>Node19&#45;&gt;Node20</title>
<g id="a_edge19_Node000019_Node000020"><a xlink:title=" ">
<path fill="none" stroke="#63b8ff" d="M1665,-90.85C1654.53,-77.2 1641.22,-59.86 1631.11,-46.69"/>
<polygon fill="none" stroke="#63b8ff" points="1662.24,-93 1671.1,-98.8 1667.79,-88.73 1662.24,-93"/>
</a>
</g>
</g>
<!-- Node21 -->
<g id="Node000021" class="node">
<title>Node21</title>
<g id="a_Node000021"><a xlink:href="classcore_1_1socket_1_1stream_1_1tls_1_1SocketReader.html" target="_top" xlink:title=" ">
<polygon fill="white" stroke="transparent" points="1802,-46.5 1694,-46.5 1694,-5.5 1802,-5.5 1802,-46.5"/>
<text text-anchor="start" x="1698" y="-34" font-family="Helvetica,sans-Serif" font-size="10.00">core::socket::stream</text>
<text text-anchor="start" x="1698" y="-23" font-family="Helvetica,sans-Serif" font-size="10.00">::tls::SocketReader&lt;</text>
<text text-anchor="start" x="1701" y="-12" font-family="Helvetica,sans-Serif" font-size="10.00"> PhysicalSocketT &gt;</text>
<polygon fill="none" stroke="#666666" points="1694,-5.5 1694,-46.5 1802,-46.5 1802,-5.5 1694,-5.5"/>
</a>
</g>
</g>
<!-- Node19&#45;&gt;Node21 -->
<g id="edge20_Node000019_Node000021" class="edge">
<title>Node19&#45;&gt;Node21</title>
<g id="a_edge20_Node000019_Node000021"><a xlink:title=" ">
<path fill="none" stroke="#63b8ff" d="M1699,-90.85C1709.47,-77.2 1722.78,-59.86 1732.89,-46.69"/>
<polygon fill="none" stroke="#63b8ff" points="1696.21,-88.73 1692.9,-98.8 1701.76,-93 1696.21,-88.73"/>
</a>
</g>
</g>
<!-- Node24&#45;&gt;Node16 -->
<g id="edge31_Node000024_Node000016" class="edge">
<title>Node24&#45;&gt;Node16</title>
<g id="a_edge31_Node000024_Node000016"><a xlink:title=" ">
<path fill="none" stroke="#8b1a1a" d="M1842.9,-189.52C1735.62,-179.46 1528.38,-158.43 1457,-140 1446.44,-137.27 1435.27,-133.18 1425.37,-129.09"/>
<polygon fill="none" stroke="#8b1a1a" points="1842.68,-193.02 1852.97,-190.46 1843.33,-186.05 1842.68,-193.02"/>
</a>
</g>
</g>
<!-- Node24&#45;&gt;Node22 -->
<g id="edge29_Node000024_Node000022" class="edge">
<title>Node24&#45;&gt;Node22</title>
<g id="a_edge29_Node000024_Node000022"><a xlink:title=" ">
<path fill="none" stroke="#63b8ff" d="M1926.41,-173.26C1937.45,-159.15 1951.4,-141.33 1960.94,-129.13"/>
<polygon fill="none" stroke="#63b8ff" points="1923.38,-171.45 1919.97,-181.48 1928.89,-175.76 1923.38,-171.45"/>
</a>
</g>
</g>
<!-- Node24&#45;&gt;Node23 -->
<g id="edge30_Node000024_Node000023" class="edge">
<title>Node24&#45;&gt;Node23</title>
<g id="a_edge30_Node000024_Node000023"><a xlink:title=" ">
<path fill="none" stroke="#63b8ff" d="M1891.59,-173.26C1880.55,-159.15 1866.6,-141.33 1857.06,-129.13"/>
<polygon fill="none" stroke="#63b8ff" points="1889.11,-175.76 1898.03,-181.48 1894.62,-171.45 1889.11,-175.76"/>
</a>
</g>
</g>
<!-- Node25 -->
<g id="Node000025" class="node">
<title>Node25</title>
<g id="a_Node000025"><a xlink:href="classcore_1_1pipe_1_1PipeSource.html" target="_top" xlink:title=" ">
<polygon fill="white" stroke="transparent" points="2358,-123.5 2240,-123.5 2240,-104.5 2358,-104.5 2358,-123.5"/>
<text text-anchor="start" x="2244.5" y="-111" font-family="Helvetica,sans-Serif" font-size="10.00">core::pipe::PipeSource</text>
<polygon fill="none" stroke="#666666" points="2240,-104.5 2240,-123.5 2358,-123.5 2358,-104.5 2240,-104.5"/>
</a>
</g>
</g>
<!-- Node24&#45;&gt;Node25 -->
<g id="edge25_Node000024_Node000025" class="edge">
<title>Node24&#45;&gt;Node25</title>
<g id="a_edge25_Node000024_Node000025"><a xlink:title=" ">
<path fill="none" stroke="#63b8ff" d="M1975.43,-187.64C2041.07,-179.03 2144,-163.28 2231,-140 2247.4,-135.61 2265.42,-128.9 2278.78,-123.53"/>
<polygon fill="none" stroke="#63b8ff" points="1974.69,-184.2 1965.22,-188.96 1975.59,-191.15 1974.69,-184.2"/>
</a>
</g>
</g>
<!-- Node26 -->
<g id="Node000026" class="node">
<title>Node26</title>
<g id="a_Node000026"><a xlink:href="classcore_1_1socket_1_1stream_1_1SocketWriter.html" target="_top" xlink:title=" ">
<polygon fill="white" stroke="transparent" points="2222,-129 2044,-129 2044,-99 2222,-99 2222,-129"/>
<text text-anchor="start" x="2048" y="-117" font-family="Helvetica,sans-Serif" font-size="10.00">core::socket::stream</text>
<text text-anchor="start" x="2048" y="-106" font-family="Helvetica,sans-Serif" font-size="10.00">::SocketWriter&lt; PhysicalSocketT &gt;</text>
<polygon fill="none" stroke="#666666" points="2044,-99 2044,-129 2222,-129 2222,-99 2044,-99"/>
</a>
</g>
</g>
<!-- Node24&#45;&gt;Node26 -->
<g id="edge26_Node000024_Node000026" class="edge">
<title>Node24&#45;&gt;Node26</title>
<g id="a_edge26_Node000024_Node000026"><a xlink:title=" ">
<path fill="none" stroke="#63b8ff" d="M1957.48,-178.08C1998.23,-163.43 2055.74,-142.76 2093.68,-129.13"/>
<polygon fill="none" stroke="#63b8ff" points="1956.24,-174.8 1948.02,-181.48 1958.61,-181.39 1956.24,-174.8"/>
</a>
</g>
</g>
<!-- Node27 -->
<g id="Node000027" class="node">
<title>Node27</title>
<g id="a_Node000027"><a xlink:href="classcore_1_1socket_1_1stream_1_1legacy_1_1SocketWriter.html" target="_top" xlink:title=" ">
<polygon fill="white" stroke="transparent" points="2125,-46.5 2011,-46.5 2011,-5.5 2125,-5.5 2125,-46.5"/>
<text text-anchor="start" x="2015" y="-34" font-family="Helvetica,sans-Serif" font-size="10.00">core::socket::stream</text>
<text text-anchor="start" x="2015" y="-23" font-family="Helvetica,sans-Serif" font-size="10.00">::legacy::SocketWriter</text>
<text text-anchor="start" x="2017" y="-12" font-family="Helvetica,sans-Serif" font-size="10.00">&lt; PhysicalSocketT &gt;</text>
<polygon fill="none" stroke="#666666" points="2011,-5.5 2011,-46.5 2125,-46.5 2125,-5.5 2011,-5.5"/>
</a>
</g>
</g>
<!-- Node26&#45;&gt;Node27 -->
<g id="edge27_Node000026_Node000027" class="edge">
<title>Node26&#45;&gt;Node27</title>
<g id="a_edge27_Node000026_Node000027"><a xlink:title=" ">
<path fill="none" stroke="#63b8ff" d="M2115.97,-90.46C2105.7,-76.88 2092.74,-59.73 2082.88,-46.69"/>
<polygon fill="none" stroke="#63b8ff" points="2113.44,-92.93 2122.27,-98.8 2119.03,-88.71 2113.44,-92.93"/>
</a>
</g>
</g>
<!-- Node28 -->
<g id="Node000028" class="node">
<title>Node28</title>
<g id="a_Node000028"><a xlink:href="classcore_1_1socket_1_1stream_1_1tls_1_1SocketWriter.html" target="_top" xlink:title=" ">
<polygon fill="white" stroke="transparent" points="2251,-46.5 2143,-46.5 2143,-5.5 2251,-5.5 2251,-46.5"/>
<text text-anchor="start" x="2147" y="-34" font-family="Helvetica,sans-Serif" font-size="10.00">core::socket::stream</text>
<text text-anchor="start" x="2147" y="-23" font-family="Helvetica,sans-Serif" font-size="10.00">::tls::SocketWriter&lt;</text>
<text text-anchor="start" x="2150" y="-12" font-family="Helvetica,sans-Serif" font-size="10.00"> PhysicalSocketT &gt;</text>
<polygon fill="none" stroke="#666666" points="2143,-5.5 2143,-46.5 2251,-46.5 2251,-5.5 2143,-5.5"/>
</a>
</g>
</g>
<!-- Node26&#45;&gt;Node28 -->
<g id="edge28_Node000026_Node000028" class="edge">
<title>Node26&#45;&gt;Node28</title>
<g id="a_edge28_Node000026_Node000028"><a xlink:title=" ">
<path fill="none" stroke="#63b8ff" d="M2149.77,-90.46C2159.88,-76.88 2172.64,-59.73 2182.34,-46.69"/>
<polygon fill="none" stroke="#63b8ff" points="2146.73,-88.69 2143.57,-98.8 2152.35,-92.87 2146.73,-88.69"/>
</a>
</g>
</g>
</g>
</svg>
