<?xml version="1.0" encoding="UTF-8" standalone="no"?>
<!DOCTYPE svg PUBLIC "-//W3C//DTD SVG 1.1//EN"
 "http://www.w3.org/Graphics/SVG/1.1/DTD/svg11.dtd">
<!-- Generated by graphviz version 2.43.0 (0)
 -->
<!-- Title: web::http::SocketContextUpgradeFactorySelector&lt; SocketContextUpgradeFactoryT &gt; Pages: 1 -->
<svg width="967pt" height="827pt"
 viewBox="0.00 0.00 967.00 827.00" xmlns="http://www.w3.org/2000/svg" xmlns:xlink="http://www.w3.org/1999/xlink">
<g id="graph0" class="graph" transform="scale(1 1) rotate(0) translate(4 823)">
<title>web::http::SocketContextUpgradeFactorySelector&lt; SocketContextUpgradeFactoryT &gt;</title>
<!-- Node1 -->
<g id="Node000001" class="node">
<title>Node1</title>
<g id="a_Node000001"><a xlink:title=" ">
<polygon fill="#999999" stroke="transparent" points="168,-41 0,-41 0,0 168,0 168,-41"/>
<text text-anchor="start" x="4" y="-28.5" font-family="Helvetica,sans-Serif" font-size="10.00">web::http::SocketContext</text>
<text text-anchor="start" x="4" y="-17.5" font-family="Helvetica,sans-Serif" font-size="10.00">UpgradeFactorySelector</text>
<text text-anchor="start" x="4" y="-6.5" font-family="Helvetica,sans-Serif" font-size="10.00">&lt; SocketContextUpgradeFactoryT &gt;</text>
<polygon fill="none" stroke="#666666" points="0,0 0,-41 168,-41 168,0 0,0"/>
</a>
</g>
</g>
<!-- Node2 -->
<g id="Node000002" class="node">
<title>Node2</title>
<g id="a_Node000002"><a xlink:title=" ">
<polygon fill="white" stroke="transparent" points="166,-600.5 52,-600.5 52,-570.5 166,-570.5 166,-600.5"/>
<text text-anchor="start" x="56.5" y="-588.5" font-family="Helvetica,sans-Serif" font-size="10.00">std::map&lt; std::string,</text>
<text text-anchor="start" x="56.5" y="-577.5" font-family="Helvetica,sans-Serif" font-size="10.00"> SocketContextPlugin &gt;</text>
<polygon fill="none" stroke="#666666" points="52,-570.5 52,-600.5 166,-600.5 166,-570.5 52,-570.5"/>
</a>
</g>
</g>
<!-- Node2&#45;&gt;Node1 -->
<g id="edge1_Node000001_Node000002" class="edge">
<title>Node2&#45;&gt;Node1</title>
<g id="a_edge1_Node000001_Node000002"><a xlink:title=" ">
<path fill="none" stroke="#63b8ff" d="M99.08,-570.34C86.94,-551.61 68,-517.15 68,-484.5 68,-484.5 68,-484.5 68,-118.5 68,-96.34 72.11,-71.72 76.17,-52.82"/>
<polygon fill="none" stroke="#63b8ff" points="76.19,-52.74 73.62,-46 78.85,-41.04 81.42,-47.77 76.19,-52.74"/>
</a>
</g>
<text text-anchor="middle" x="137.5" y="-327" font-family="Helvetica,sans-Serif" font-size="10.00" fill="grey"> &#45;socketContextUpgradePlugins</text>
</g>
<!-- Node3 -->
<g id="Node000003" class="node">
<title>Node3</title>
<g id="a_Node000003"><a xlink:title=" ">
<polygon fill="white" stroke="transparent" points="402,-746.5 350,-746.5 350,-727.5 402,-727.5 402,-746.5"/>
<text text-anchor="start" x="354" y="-734" font-family="Helvetica,sans-Serif" font-size="10.00">std::string</text>
<polygon fill="none" stroke="#666666" points="350,-727.5 350,-746.5 402,-746.5 402,-727.5 350,-727.5"/>
</a>
</g>
</g>
<!-- Node3&#45;&gt;Node2 -->
<g id="edge2_Node000002_Node000003" class="edge">
<title>Node3&#45;&gt;Node2</title>
<g id="a_edge2_Node000002_Node000003"><a xlink:title=" ">
<path fill="none" stroke="#63b8ff" d="M349.72,-734.55C302.26,-731.48 204.6,-723 177,-704 145.15,-682.08 126.2,-640.01 116.69,-612.62"/>
<polygon fill="none" stroke="#63b8ff" points="116.58,-612.25 110.92,-607.78 112.87,-600.84 118.53,-605.31 116.58,-612.25"/>
</a>
</g>
<text text-anchor="middle" x="192.5" y="-690.5" font-family="Helvetica,sans-Serif" font-size="10.00" fill="grey"> +keys</text>
</g>
<!-- Node5 -->
<g id="Node000005" class="node">
<title>Node5</title>
<g id="a_Node000005"><a xlink:title=" ">
<polygon fill="white" stroke="transparent" points="296,-140 148,-140 148,-99 296,-99 296,-140"/>
<text text-anchor="start" x="152.5" y="-127.5" font-family="Helvetica,sans-Serif" font-size="10.00">std::map&lt; std::string,</text>
<text text-anchor="start" x="152.5" y="-116.5" font-family="Helvetica,sans-Serif" font-size="10.00"> SocketContextUpgradeFactory</text>
<text text-anchor="start" x="207.5" y="-105.5" font-family="Helvetica,sans-Serif" font-size="10.00"> *(*)()&gt;</text>
<polygon fill="none" stroke="#666666" points="148,-99 148,-140 296,-140 296,-99 148,-99"/>
</a>
</g>
</g>
<!-- Node3&#45;&gt;Node5 -->
<g id="edge5_Node000005_Node000003" class="edge">
<title>Node3&#45;&gt;Node5</title>
<g id="a_edge5_Node000005_Node000003"><a xlink:title=" ">
<path fill="none" stroke="#63b8ff" d="M349.88,-732.35C305.94,-724.59 222,-702.03 222,-643 222,-643 222,-643 222,-201 222,-184.89 222,-166.98 222,-152.14"/>
<polygon fill="none" stroke="#63b8ff" points="222,-152.02 218,-146.02 222,-140.02 226,-146.02 222,-152.02"/>
</a>
</g>
<text text-anchor="middle" x="237.5" y="-404" font-family="Helvetica,sans-Serif" font-size="10.00" fill="grey"> +keys</text>
</g>
<!-- Node9 -->
<g id="Node000009" class="node">
<title>Node9</title>
<g id="a_Node000009"><a xlink:href="classweb_1_1http_1_1client_1_1Request.html" target="_top" xlink:title=" ">
<polygon fill="white" stroke="transparent" points="341,-544 257,-544 257,-514 341,-514 341,-544"/>
<text text-anchor="start" x="261" y="-532" font-family="Helvetica,sans-Serif" font-size="10.00">web::http::client::</text>
<text text-anchor="start" x="280.5" y="-521" font-family="Helvetica,sans-Serif" font-size="10.00">Request</text>
<polygon fill="none" stroke="#666666" points="257,-514 257,-544 341,-544 341,-514 257,-514"/>
</a>
</g>
</g>
<!-- Node3&#45;&gt;Node9 -->
<g id="edge10_Node000009_Node000003" class="edge">
<title>Node3&#45;&gt;Node9</title>
<g id="a_edge10_Node000009_Node000003"><a xlink:title=" ">
<path fill="none" stroke="#63b8ff" d="M354.26,-727.41C330.33,-716.63 293.11,-695.63 277,-664 259.29,-629.23 273.68,-583.41 286.06,-555.36"/>
<polygon fill="none" stroke="#63b8ff" points="286.21,-555.03 285.14,-547.9 291.31,-544.17 292.38,-551.3 286.21,-555.03"/>
</a>
</g>
<text text-anchor="middle" x="296.5" y="-656" font-family="Helvetica,sans-Serif" font-size="10.00" fill="grey"> #nullstr</text>
<text text-anchor="middle" x="296.5" y="-645" font-family="Helvetica,sans-Serif" font-size="10.00" fill="grey">+host</text>
<text text-anchor="middle" x="296.5" y="-634" font-family="Helvetica,sans-Serif" font-size="10.00" fill="grey">+method</text>
<text text-anchor="middle" x="296.5" y="-623" font-family="Helvetica,sans-Serif" font-size="10.00" fill="grey">+url</text>
</g>
<!-- Node14 -->
<g id="Node000014" class="node">
<title>Node14</title>
<g id="a_Node000014"><a xlink:title=" ">
<polygon fill="white" stroke="transparent" points="427,-657 325,-657 325,-627 427,-627 427,-657"/>
<text text-anchor="start" x="329" y="-645" font-family="Helvetica,sans-Serif" font-size="10.00">std::map&lt; std::string,</text>
<text text-anchor="start" x="348" y="-634" font-family="Helvetica,sans-Serif" font-size="10.00"> std::string &gt;</text>
<polygon fill="none" stroke="#666666" points="325,-627 325,-657 427,-657 427,-627 325,-627"/>
</a>
</g>
</g>
<!-- Node3&#45;&gt;Node14 -->
<g id="edge17_Node000014_Node000003" class="edge">
<title>Node3&#45;&gt;Node14</title>
<g id="a_edge17_Node000014_Node000003"><a xlink:title=" ">
<path fill="none" stroke="#63b8ff" d="M376,-727.42C376,-714.35 376,-688.91 376,-669.37"/>
<polygon fill="none" stroke="#63b8ff" points="376,-669.28 372,-663.28 376,-657.28 380,-663.28 376,-669.28"/>
</a>
</g>
<text text-anchor="middle" x="400.5" y="-696" font-family="Helvetica,sans-Serif" font-size="10.00" fill="grey"> +elements</text>
<text text-anchor="middle" x="400.5" y="-685" font-family="Helvetica,sans-Serif" font-size="10.00" fill="grey">+keys</text>
</g>
<!-- Node15 -->
<g id="Node000015" class="node">
<title>Node15</title>
<g id="a_Node000015"><a xlink:href="classweb_1_1http_1_1client_1_1Response.html" target="_top" xlink:title=" ">
<polygon fill="white" stroke="transparent" points="470,-383 386,-383 386,-353 470,-353 470,-383"/>
<text text-anchor="start" x="390" y="-371" font-family="Helvetica,sans-Serif" font-size="10.00">web::http::client::</text>
<text text-anchor="start" x="405.5" y="-360" font-family="Helvetica,sans-Serif" font-size="10.00">Response</text>
<polygon fill="none" stroke="#666666" points="386,-353 386,-383 470,-383 470,-353 386,-353"/>
</a>
</g>
</g>
<!-- Node3&#45;&gt;Node15 -->
<g id="edge20_Node000015_Node000003" class="edge">
<title>Node3&#45;&gt;Node15</title>
<g id="a_edge20_Node000015_Node000003"><a xlink:title=" ">
<path fill="none" stroke="#63b8ff" d="M399.08,-727.38C409.81,-722.21 421.77,-714.55 429,-704 439.2,-689.11 433.72,-681.9 436,-664 439.5,-636.58 439.89,-629.62 441,-602 441.59,-587.35 442.6,-583.58 441,-569 440.11,-560.85 438.1,-559.12 437,-551 429.58,-495.96 428.1,-430.81 427.91,-395.31"/>
<polygon fill="none" stroke="#63b8ff" points="427.91,-395.23 423.9,-389.24 427.89,-383.23 431.9,-389.23 427.91,-395.23"/>
</a>
</g>
<text text-anchor="middle" x="466.5" y="-543" font-family="Helvetica,sans-Serif" font-size="10.00" fill="grey"> +httpVersion</text>
<text text-anchor="middle" x="466.5" y="-532" font-family="Helvetica,sans-Serif" font-size="10.00" fill="grey">+reason</text>
<text text-anchor="middle" x="466.5" y="-521" font-family="Helvetica,sans-Serif" font-size="10.00" fill="grey">+statusCode</text>
<text text-anchor="middle" x="466.5" y="-510" font-family="Helvetica,sans-Serif" font-size="10.00" fill="grey">&#45;nullstr</text>
</g>
<!-- Node17 -->
<g id="Node000017" class="node">
<title>Node17</title>
<g id="a_Node000017"><a xlink:title=" ">
<polygon fill="white" stroke="transparent" points="631,-460 499,-460 499,-430 631,-430 631,-460"/>
<text text-anchor="start" x="503" y="-448" font-family="Helvetica,sans-Serif" font-size="10.00">std::map&lt; std::string,</text>
<text text-anchor="start" x="503" y="-437" font-family="Helvetica,sans-Serif" font-size="10.00"> web::http::CookieOptions &gt;</text>
<polygon fill="none" stroke="#666666" points="499,-430 499,-460 631,-460 631,-430 499,-430"/>
</a>
</g>
</g>
<!-- Node3&#45;&gt;Node17 -->
<g id="edge24_Node000017_Node000003" class="edge">
<title>Node3&#45;&gt;Node17</title>
<g id="a_edge24_Node000017_Node000003"><a xlink:title=" ">
<path fill="none" stroke="#63b8ff" d="M402.4,-731.21C456.23,-719.84 577.78,-685.66 627,-602 648.47,-565.51 644.56,-548 634,-507 630.33,-492.74 628.2,-488.61 618,-478 614.12,-473.97 609.63,-470.25 604.94,-466.89"/>
<polygon fill="none" stroke="#63b8ff" points="604.56,-466.65 597.35,-466.74 594.5,-460.12 601.71,-460.03 604.56,-466.65"/>
</a>
</g>
<text text-anchor="middle" x="655.5" y="-583" font-family="Helvetica,sans-Serif" font-size="10.00" fill="grey"> +keys</text>
</g>
<!-- Node18 -->
<g id="Node000018" class="node">
<title>Node18</title>
<g id="a_Node000018"><a xlink:href="classweb_1_1http_1_1CookieOptions.html" target="_top" xlink:title=" ">
<polygon fill="white" stroke="transparent" points="625,-538.5 505,-538.5 505,-519.5 625,-519.5 625,-538.5"/>
<text text-anchor="start" x="509" y="-526" font-family="Helvetica,sans-Serif" font-size="10.00">web::http::CookieOptions</text>
<polygon fill="none" stroke="#666666" points="505,-519.5 505,-538.5 625,-538.5 625,-519.5 505,-519.5"/>
</a>
</g>
</g>
<!-- Node3&#45;&gt;Node18 -->
<g id="edge26_Node000018_Node000003" class="edge">
<title>Node3&#45;&gt;Node18</title>
<g id="a_edge26_Node000018_Node000003"><a xlink:title=" ">
<path fill="none" stroke="#63b8ff" d="M402.01,-733.12C422.62,-729.55 450.87,-721.6 469,-704 515.02,-659.33 483.31,-621.61 520,-569 526.07,-560.29 534.51,-552.3 542.44,-545.85"/>
<polygon fill="none" stroke="#63b8ff" points="542.46,-545.83 544.8,-539.01 552,-538.56 549.65,-545.38 542.46,-545.83"/>
</a>
</g>
<text text-anchor="middle" x="515" y="-639.5" font-family="Helvetica,sans-Serif" font-size="10.00" fill="grey"> &#45;value</text>
</g>
<!-- Node4 -->
<g id="Node000004" class="node">
<title>Node4</title>
<g id="a_Node000004"><a xlink:title=" ">
<polygon fill="white" stroke="transparent" points="420,-819 332,-819 332,-789 420,-789 420,-819"/>
<text text-anchor="start" x="336.5" y="-807" font-family="Helvetica,sans-Serif" font-size="10.00">std::basic_string&lt;</text>
<text text-anchor="start" x="359" y="-796" font-family="Helvetica,sans-Serif" font-size="10.00"> Char &gt;</text>
<polygon fill="none" stroke="#666666" points="332,-789 332,-819 420,-819 420,-789 332,-789"/>
</a>
</g>
</g>
<!-- Node4&#45;&gt;Node3 -->
<g id="edge3_Node000003_Node000004" class="edge">
<title>Node4&#45;&gt;Node3</title>
<g id="a_edge3_Node000003_Node000004"><a xlink:title=" ">
<path fill="none" stroke="#63b8ff" d="M376,-778.75C376,-767.52 376,-754.88 376,-746.69"/>
<polygon fill="none" stroke="#63b8ff" points="372.5,-778.9 376,-788.9 379.5,-778.9 372.5,-778.9"/>
</a>
</g>
</g>
<!-- Node5&#45;&gt;Node1 -->
<g id="edge4_Node000001_Node000005" class="edge">
<title>Node5&#45;&gt;Node1</title>
<g id="a_edge4_Node000001_Node000005"><a xlink:title=" ">
<path fill="none" stroke="#63b8ff" d="M194.07,-98.87C173.31,-84.28 144.75,-64.2 121.92,-48.15"/>
<polygon fill="none" stroke="#63b8ff" points="121.7,-48 114.49,-47.82 111.88,-41.1 119.09,-41.28 121.7,-48"/>
</a>
</g>
<text text-anchor="start" x="166" y="-73" font-family="Helvetica,sans-Serif" font-size="10.00" fill="grey"> &#45;linkedSocketContextUpgrade</text>
<text text-anchor="middle" x="233" y="-62" font-family="Helvetica,sans-Serif" font-size="10.00" fill="grey">Plugins</text>
</g>
<!-- Node6 -->
<g id="Node000006" class="node">
<title>Node6</title>
<g id="a_Node000006"><a xlink:href="classweb_1_1http_1_1client_1_1SocketContextUpgradeFactory.html" target="_top" xlink:title=" ">
<polygon fill="white" stroke="transparent" points="447,-217 303,-217 303,-187 447,-187 447,-217"/>
<text text-anchor="start" x="307" y="-205" font-family="Helvetica,sans-Serif" font-size="10.00">web::http::client::</text>
<text text-anchor="start" x="307" y="-194" font-family="Helvetica,sans-Serif" font-size="10.00">SocketContextUpgradeFactory</text>
<polygon fill="none" stroke="#666666" points="303,-187 303,-217 447,-217 447,-187 303,-187"/>
</a>
</g>
</g>
<!-- Node6&#45;&gt;Node5 -->
<g id="edge6_Node000005_Node000006" class="edge">
<title>Node6&#45;&gt;Node5</title>
<g id="a_edge6_Node000005_Node000006"><a xlink:title=" ">
<path fill="none" stroke="#63b8ff" d="M348.35,-186.98C326.77,-175.63 295.83,-159.34 269.96,-145.74"/>
<polygon fill="none" stroke="#63b8ff" points="269.85,-145.68 262.68,-146.42 259.23,-140.09 266.4,-139.34 269.85,-145.68"/>
</a>
</g>
<text text-anchor="middle" x="337.5" y="-161" font-family="Helvetica,sans-Serif" font-size="10.00" fill="grey"> +elements</text>
</g>
<!-- Node7 -->
<g id="Node000007" class="node">
<title>Node7</title>
<g id="a_Node000007"><a xlink:href="classweb_1_1http_1_1SocketContextUpgradeFactory.html" target="_top" xlink:title=" ">
<polygon fill="white" stroke="transparent" points="478,-306 350,-306 350,-254 478,-254 478,-306"/>
<text text-anchor="start" x="354" y="-294" font-family="Helvetica,sans-Serif" font-size="10.00">web::http::SocketContext</text>
<text text-anchor="start" x="354" y="-283" font-family="Helvetica,sans-Serif" font-size="10.00">UpgradeFactory&lt; web::http</text>
<text text-anchor="start" x="354" y="-272" font-family="Helvetica,sans-Serif" font-size="10.00">::client::Request, web::http</text>
<text text-anchor="start" x="369.5" y="-261" font-family="Helvetica,sans-Serif" font-size="10.00">::client::Response &gt;</text>
<polygon fill="none" stroke="#666666" points="350,-254 350,-306 478,-306 478,-254 350,-254"/>
</a>
</g>
</g>
<!-- Node7&#45;&gt;Node6 -->
<g id="edge7_Node000006_Node000007" class="edge">
<title>Node7&#45;&gt;Node6</title>
<g id="a_edge7_Node000006_Node000007"><a xlink:title=" ">
<path fill="none" stroke="#63b8ff" d="M396.37,-244.65C391.44,-235.03 386.34,-225.1 382.36,-217.35"/>
<polygon fill="none" stroke="#63b8ff" points="393.33,-246.39 401.01,-253.69 399.56,-243.2 393.33,-246.39"/>
</a>
</g>
</g>
<!-- Node8 -->
<g id="Node000008" class="node">
<title>Node8</title>
<g id="a_Node000008"><a xlink:href="classcore_1_1socket_1_1stream_1_1SocketContextFactory.html" target="_top" xlink:title=" ">
<polygon fill="white" stroke="transparent" points="602,-383 488,-383 488,-353 602,-353 602,-383"/>
<text text-anchor="start" x="492.5" y="-371" font-family="Helvetica,sans-Serif" font-size="10.00">core::socket::stream</text>
<text text-anchor="start" x="492.5" y="-360" font-family="Helvetica,sans-Serif" font-size="10.00">::SocketContextFactory</text>
<polygon fill="none" stroke="#666666" points="488,-353 488,-383 602,-383 602,-353 488,-353"/>
</a>
</g>
</g>
<!-- Node8&#45;&gt;Node7 -->
<g id="edge8_Node000007_Node000008" class="edge">
<title>Node8&#45;&gt;Node7</title>
<g id="a_edge8_Node000007_Node000008"><a xlink:title=" ">
<path fill="none" stroke="#63b8ff" d="M515.25,-347.47C496.59,-335.22 472.35,-319.31 452.26,-306.12"/>
<polygon fill="none" stroke="#63b8ff" points="513.38,-350.43 523.66,-352.99 517.22,-344.58 513.38,-350.43"/>
</a>
</g>
</g>
<!-- Node9&#45;&gt;Node7 -->
<g id="edge9_Node000007_Node000009" class="edge">
<title>Node9&#45;&gt;Node7</title>
<g id="a_edge9_Node000007_Node000009"><a xlink:title=" ">
<path fill="none" stroke="#63b8ff" d="M305.01,-513.81C317.75,-483.87 348.68,-412.09 377,-353 382.65,-341.21 389.08,-328.49 394.97,-317.06"/>
<polygon fill="none" stroke="#63b8ff" points="395.11,-316.8 394.33,-309.63 400.64,-306.15 401.42,-313.32 395.11,-316.8"/>
</a>
</g>
<text text-anchor="middle" x="373.5" y="-404" font-family="Helvetica,sans-Serif" font-size="10.00" fill="grey"> &#45;request</text>
</g>
<!-- Node10 -->
<g id="Node000010" class="node">
<title>Node10</title>
<g id="a_Node000010"><a xlink:href="classweb_1_1http_1_1SocketContext.html" target="_top" xlink:title=" ">
<polygon fill="white" stroke="transparent" points="797,-651.5 677,-651.5 677,-632.5 797,-632.5 797,-651.5"/>
<text text-anchor="start" x="681" y="-639" font-family="Helvetica,sans-Serif" font-size="10.00">web::http::SocketContext</text>
<polygon fill="none" stroke="#666666" points="677,-632.5 677,-651.5 797,-651.5 797,-632.5 677,-632.5"/>
</a>
</g>
</g>
<!-- Node10&#45;&gt;Node9 -->
<g id="edge11_Node000009_Node000010" class="edge">
<title>Node10&#45;&gt;Node9</title>
<g id="a_edge11_Node000009_Node000010"><a xlink:title=" ">
<path fill="none" stroke="#63b8ff" d="M676.75,-632.94C640.4,-626.92 593.62,-617.08 554,-602 526.28,-591.45 523.79,-579.35 496,-569 494.29,-568.36 410.87,-551.94 353.14,-540.61"/>
<polygon fill="none" stroke="#63b8ff" points="353.03,-540.59 346.37,-543.36 341.25,-538.28 347.91,-535.51 353.03,-540.59"/>
</a>
</g>
<text text-anchor="middle" x="590.5" y="-583" font-family="Helvetica,sans-Serif" font-size="10.00" fill="grey"> #socketContext</text>
</g>
<!-- Node10&#45;&gt;Node15 -->
<g id="edge19_Node000015_Node000010" class="edge">
<title>Node10&#45;&gt;Node15</title>
<g id="a_edge19_Node000015_Node000010"><a xlink:title=" ">
<path fill="none" stroke="#63b8ff" d="M735.56,-632.3C729.83,-600.36 705.64,-488.44 640,-430 587.15,-382.95 554.54,-399.91 482,-383.54"/>
<polygon fill="none" stroke="#63b8ff" points="481.66,-383.46 474.88,-385.92 470,-380.61 476.78,-378.15 481.66,-383.46"/>
</a>
</g>
<text text-anchor="middle" x="721.5" y="-481" font-family="Helvetica,sans-Serif" font-size="10.00" fill="grey"> #socketContext</text>
</g>
<!-- Node11 -->
<g id="Node000011" class="node">
<title>Node11</title>
<g id="a_Node000011"><a xlink:href="classcore_1_1socket_1_1stream_1_1SocketContext.html" target="_top" xlink:title=" ">
<polygon fill="white" stroke="transparent" points="820,-752 720,-752 720,-722 820,-722 820,-752"/>
<text text-anchor="start" x="724.5" y="-740" font-family="Helvetica,sans-Serif" font-size="10.00">core::socket::stream</text>
<text text-anchor="start" x="734" y="-729" font-family="Helvetica,sans-Serif" font-size="10.00">::SocketContext</text>
<polygon fill="none" stroke="#666666" points="720,-722 720,-752 820,-752 820,-722 720,-722"/>
</a>
</g>
</g>
<!-- Node11&#45;&gt;Node10 -->
<g id="edge12_Node000010_Node000011" class="edge">
<title>Node11&#45;&gt;Node10</title>
<g id="a_edge12_Node000010_Node000011"><a xlink:title=" ">
<path fill="none" stroke="#63b8ff" d="M755.17,-712.91C753.62,-709.98 752.19,-706.96 751,-704 743.81,-686.04 739.85,-663.57 738.11,-651.54"/>
<polygon fill="none" stroke="#63b8ff" points="752.28,-714.91 760.3,-721.83 758.35,-711.42 752.28,-714.91"/>
</a>
</g>
</g>
<!-- Node13 -->
<g id="Node000013" class="node">
<title>Node13</title>
<g id="a_Node000013"><a xlink:href="classcore_1_1socket_1_1stream_1_1SocketConnection.html" target="_top" xlink:title=" ">
<polygon fill="white" stroke="transparent" points="922,-657 822,-657 822,-627 922,-627 922,-657"/>
<text text-anchor="start" x="826.5" y="-645" font-family="Helvetica,sans-Serif" font-size="10.00">core::socket::stream</text>
<text text-anchor="start" x="828.5" y="-634" font-family="Helvetica,sans-Serif" font-size="10.00">::SocketConnection</text>
<polygon fill="none" stroke="#666666" points="822,-627 822,-657 922,-657 922,-627 822,-627"/>
</a>
</g>
</g>
<!-- Node11&#45;&gt;Node13 -->
<g id="edge15_Node000013_Node000011" class="edge">
<title>Node11&#45;&gt;Node13</title>
<g id="a_edge15_Node000013_Node000011"><a xlink:title=" ">
<path fill="none" stroke="#63b8ff" d="M820.35,-726.17C833.49,-721.42 846.59,-714.39 856,-704 864.58,-694.52 868.66,-681 870.56,-669.09"/>
<polygon fill="none" stroke="#63b8ff" points="870.57,-669.01 867.25,-662.61 871.88,-657.08 875.2,-663.48 870.57,-669.01"/>
</a>
</g>
<text text-anchor="middle" x="913" y="-696" font-family="Helvetica,sans-Serif" font-size="10.00" fill="grey"> #newSocketContext</text>
<text text-anchor="middle" x="913" y="-685" font-family="Helvetica,sans-Serif" font-size="10.00" fill="grey">#socketContext</text>
</g>
<!-- Node12 -->
<g id="Node000012" class="node">
<title>Node12</title>
<g id="a_Node000012"><a xlink:href="classcore_1_1socket_1_1SocketContext.html" target="_top" xlink:title=" ">
<polygon fill="white" stroke="transparent" points="837,-813.5 703,-813.5 703,-794.5 837,-794.5 837,-813.5"/>
<text text-anchor="start" x="707" y="-801" font-family="Helvetica,sans-Serif" font-size="10.00">core::socket::SocketContext</text>
<polygon fill="none" stroke="#666666" points="703,-794.5 703,-813.5 837,-813.5 837,-794.5 703,-794.5"/>
</a>
</g>
</g>
<!-- Node12&#45;&gt;Node11 -->
<g id="edge13_Node000011_Node000012" class="edge">
<title>Node12&#45;&gt;Node11</title>
<g id="a_edge13_Node000011_Node000012"><a xlink:title=" ">
<path fill="none" stroke="#63b8ff" d="M770,-783.91C770,-773.72 770,-761.4 770,-752.09"/>
<polygon fill="none" stroke="#63b8ff" points="766.5,-784.23 770,-794.23 773.5,-784.23 766.5,-784.23"/>
</a>
</g>
</g>
<!-- Node13&#45;&gt;Node11 -->
<g id="edge14_Node000011_Node000013" class="edge">
<title>Node13&#45;&gt;Node11</title>
<g id="a_edge14_Node000011_Node000013"><a xlink:title=" ">
<path fill="none" stroke="#63b8ff" d="M829.21,-657.03C803.36,-665.93 774.69,-676.72 771,-682 765.46,-689.92 764.22,-700.23 764.71,-709.71"/>
<polygon fill="none" stroke="#63b8ff" points="764.74,-709.91 769.45,-715.37 766.23,-721.82 761.51,-716.36 764.74,-709.91"/>
</a>
</g>
<text text-anchor="middle" x="813.5" y="-690.5" font-family="Helvetica,sans-Serif" font-size="10.00" fill="grey"> &#45;socketConnection</text>
</g>
<!-- Node14&#45;&gt;Node9 -->
<g id="edge16_Node000009_Node000014" class="edge">
<title>Node14&#45;&gt;Node9</title>
<g id="a_edge16_Node000009_Node000014"><a xlink:title=" ">
<path fill="none" stroke="#63b8ff" d="M341.53,-626.97C330.51,-620.86 319.28,-612.62 312,-602 302.93,-588.77 299.64,-571.06 298.64,-556.52"/>
<polygon fill="none" stroke="#63b8ff" points="298.63,-556.27 294.45,-550.39 298.27,-544.27 302.45,-550.15 298.63,-556.27"/>
</a>
</g>
<text text-anchor="middle" x="333.5" y="-594" font-family="Helvetica,sans-Serif" font-size="10.00" fill="grey"> #cookies</text>
<text text-anchor="middle" x="333.5" y="-583" font-family="Helvetica,sans-Serif" font-size="10.00" fill="grey">#headers</text>
<text text-anchor="middle" x="333.5" y="-572" font-family="Helvetica,sans-Serif" font-size="10.00" fill="grey">#queries</text>
</g>
<!-- Node14&#45;&gt;Node15 -->
<g id="edge22_Node000015_Node000014" class="edge">
<title>Node14&#45;&gt;Node15</title>
<g id="a_edge22_Node000015_Node000014"><a xlink:title=" ">
<path fill="none" stroke="#63b8ff" d="M372.86,-626.77C367.11,-598.11 356.63,-531.58 370,-478 377.82,-446.65 396.54,-414.43 410.61,-393.23"/>
<polygon fill="none" stroke="#63b8ff" points="410.69,-393.12 410.77,-385.91 417.46,-383.22 417.38,-390.43 410.69,-393.12"/>
</a>
</g>
<text text-anchor="middle" x="392" y="-481" font-family="Helvetica,sans-Serif" font-size="10.00" fill="grey"> +headers</text>
</g>
<!-- Node14&#45;&gt;Node18 -->
<g id="edge27_Node000018_Node000014" class="edge">
<title>Node14&#45;&gt;Node18</title>
<g id="a_edge27_Node000018_Node000014"><a xlink:title=" ">
<path fill="none" stroke="#63b8ff" d="M387.91,-626.98C402.17,-610.98 427.47,-584.96 454,-569 473.6,-557.2 497.31,-548.26 517.76,-541.94"/>
<polygon fill="none" stroke="#63b8ff" points="517.87,-541.91 522.49,-536.38 529.38,-538.52 524.75,-544.05 517.87,-541.91"/>
</a>
</g>
<text text-anchor="middle" x="473" y="-583" font-family="Helvetica,sans-Serif" font-size="10.00" fill="grey"> &#45;options</text>
</g>
<!-- Node15&#45;&gt;Node7 -->
<g id="edge18_Node000007_Node000015" class="edge">
<title>Node15&#45;&gt;Node7</title>
<g id="a_edge18_Node000007_Node000015"><a xlink:title=" ">
<path fill="none" stroke="#63b8ff" d="M425.69,-352.8C424.14,-343.28 422.02,-330.28 420.02,-317.95"/>
<polygon fill="none" stroke="#63b8ff" points="420,-317.85 415.09,-312.57 418.07,-306.01 422.98,-311.29 420,-317.85"/>
</a>
</g>
<text text-anchor="middle" x="445" y="-327" font-family="Helvetica,sans-Serif" font-size="10.00" fill="grey"> &#45;response</text>
</g>
<!-- Node16 -->
<g id="Node000016" class="node">
<title>Node16</title>
<g id="a_Node000016"><a xlink:title=" ">
<polygon fill="white" stroke="transparent" points="825,-454.5 723,-454.5 723,-435.5 825,-435.5 825,-454.5"/>
<text text-anchor="start" x="727" y="-442" font-family="Helvetica,sans-Serif" font-size="10.00">std::vector&lt; uint8_t &gt;</text>
<polygon fill="none" stroke="#666666" points="723,-435.5 723,-454.5 825,-454.5 825,-435.5 723,-435.5"/>
</a>
</g>
</g>
<!-- Node16&#45;&gt;Node15 -->
<g id="edge21_Node000015_Node000016" class="edge">
<title>Node16&#45;&gt;Node15</title>
<g id="a_edge21_Node000015_Node000016"><a xlink:title=" ">
<path fill="none" stroke="#63b8ff" d="M764.29,-435.24C752.28,-424.99 730.75,-408.48 709,-401 615.64,-368.89 582.47,-398.29 482.08,-383.19"/>
<polygon fill="none" stroke="#63b8ff" points="482,-383.18 475.44,-386.15 470.16,-381.24 476.73,-378.26 482,-383.18"/>
</a>
</g>
<text text-anchor="middle" x="747.5" y="-404" font-family="Helvetica,sans-Serif" font-size="10.00" fill="grey"> +body</text>
</g>
<!-- Node17&#45;&gt;Node15 -->
<g id="edge23_Node000015_Node000017" class="edge">
<title>Node17&#45;&gt;Node15</title>
<g id="a_edge23_Node000015_Node000017"><a xlink:title=" ">
<path fill="none" stroke="#63b8ff" d="M539.23,-429.89C518.09,-418.32 487.9,-401.79 464.3,-388.87"/>
<polygon fill="none" stroke="#63b8ff" points="464.18,-388.81 457,-389.43 453.65,-383.04 460.84,-382.42 464.18,-388.81"/>
</a>
</g>
<text text-anchor="middle" x="525.5" y="-404" font-family="Helvetica,sans-Serif" font-size="10.00" fill="grey"> +cookies</text>
</g>
<!-- Node18&#45;&gt;Node17 -->
<g id="edge25_Node000017_Node000018" class="edge">
<title>Node18&#45;&gt;Node17</title>
<g id="a_edge25_Node000017_Node000018"><a xlink:title=" ">
<path fill="none" stroke="#63b8ff" d="M565,-519.22C565,-508.19 565,-488.73 565,-472.64"/>
<polygon fill="none" stroke="#63b8ff" points="565,-472.18 561,-466.18 565,-460.18 569,-466.18 565,-472.18"/>
</a>
</g>
<text text-anchor="middle" x="589.5" y="-481" font-family="Helvetica,sans-Serif" font-size="10.00" fill="grey"> +elements</text>
</g>
</g>
</svg>
