<?xml version="1.0" encoding="UTF-8" standalone="no"?>
<!DOCTYPE svg PUBLIC "-//W3C//DTD SVG 1.1//EN"
 "http://www.w3.org/Graphics/SVG/1.1/DTD/svg11.dtd">
<!-- Generated by graphviz version 2.43.0 (0)
 -->
<!-- Title: core::socket::stream::tls::SocketWriter&lt; PhysicalSocketT &gt; Pages: 1 -->
<svg width="743pt" height="414pt"
 viewBox="0.00 0.00 743.00 414.00" xmlns="http://www.w3.org/2000/svg" xmlns:xlink="http://www.w3.org/1999/xlink">
<g id="graph0" class="graph" transform="scale(1 1) rotate(0) translate(4 410)">
<title>core::socket::stream::tls::SocketWriter&lt; PhysicalSocketT &gt;</title>
<!-- Node1 -->
<g id="Node000001" class="node">
<title>Node1</title>
<g id="a_Node000001"><a xlink:title=" ">
<polygon fill="#999999" stroke="transparent" points="179,-41 71,-41 71,0 179,0 179,-41"/>
<text text-anchor="start" x="75" y="-28.5" font-family="Helvetica,sans-Serif" font-size="10.00">core::socket::stream</text>
<text text-anchor="start" x="75" y="-17.5" font-family="Helvetica,sans-Serif" font-size="10.00">::tls::SocketWriter&lt;</text>
<text text-anchor="start" x="78" y="-6.5" font-family="Helvetica,sans-Serif" font-size="10.00"> PhysicalSocketT &gt;</text>
<polygon fill="none" stroke="#666666" points="71,0 71,-41 179,-41 179,0 71,0"/>
</a>
</g>
</g>
<!-- Node2 -->
<g id="Node000002" class="node">
<title>Node2</title>
<g id="a_Node000002"><a xlink:href="classcore_1_1socket_1_1stream_1_1_socket_writer.html" target="_top" xlink:title=" ">
<polygon fill="white" stroke="transparent" points="214,-108 36,-108 36,-78 214,-78 214,-108"/>
<text text-anchor="start" x="40" y="-96" font-family="Helvetica,sans-Serif" font-size="10.00">core::socket::stream</text>
<text text-anchor="start" x="40" y="-85" font-family="Helvetica,sans-Serif" font-size="10.00">::SocketWriter&lt; PhysicalSocketT &gt;</text>
<polygon fill="none" stroke="#666666" points="36,-78 36,-108 214,-108 214,-78 36,-78"/>
</a>
</g>
</g>
<!-- Node2&#45;&gt;Node1 -->
<g id="edge1_Node000001_Node000002" class="edge">
<title>Node2&#45;&gt;Node1</title>
<g id="a_edge1_Node000001_Node000002"><a xlink:title=" ">
<path fill="none" stroke="#63b8ff" d="M125,-67.48C125,-58.85 125,-49.26 125,-41.09"/>
<polygon fill="none" stroke="#63b8ff" points="121.5,-67.73 125,-77.73 128.5,-67.73 121.5,-67.73"/>
</a>
</g>
</g>
<!-- Node3 -->
<g id="Node000003" class="node">
<title>Node3</title>
<g id="a_Node000003"><a xlink:href="classcore_1_1eventreceiver_1_1_write_event_receiver.html" target="_top" xlink:title=" ">
<polygon fill="white" stroke="transparent" points="181,-175 69,-175 69,-145 181,-145 181,-175"/>
<text text-anchor="start" x="73.5" y="-163" font-family="Helvetica,sans-Serif" font-size="10.00">core::eventreceiver</text>
<text text-anchor="start" x="73.5" y="-152" font-family="Helvetica,sans-Serif" font-size="10.00">::WriteEventReceiver</text>
<polygon fill="none" stroke="#666666" points="69,-145 69,-175 181,-175 181,-145 69,-145"/>
</a>
</g>
</g>
<!-- Node3&#45;&gt;Node2 -->
<g id="edge2_Node000002_Node000003" class="edge">
<title>Node3&#45;&gt;Node2</title>
<g id="a_edge2_Node000002_Node000003"><a xlink:title=" ">
<path fill="none" stroke="#63b8ff" d="M125,-134.61C125,-125.65 125,-115.82 125,-108.08"/>
<polygon fill="none" stroke="#63b8ff" points="121.5,-134.9 125,-144.9 128.5,-134.9 121.5,-134.9"/>
</a>
</g>
</g>
<!-- Node4 -->
<g id="Node000004" class="node">
<title>Node4</title>
<g id="a_Node000004"><a xlink:href="classcore_1_1_descriptor_event_receiver.html" target="_top" xlink:title=" ">
<polygon fill="white" stroke="transparent" points="226,-241 70,-241 70,-222 226,-222 226,-241"/>
<text text-anchor="start" x="74" y="-228.5" font-family="Helvetica,sans-Serif" font-size="10.00">core::DescriptorEventReceiver</text>
<polygon fill="none" stroke="#666666" points="70,-222 70,-241 226,-241 226,-222 70,-222"/>
</a>
</g>
</g>
<!-- Node4&#45;&gt;Node3 -->
<g id="edge3_Node000003_Node000004" class="edge">
<title>Node4&#45;&gt;Node3</title>
<g id="a_edge3_Node000003_Node000004"><a xlink:title=" ">
<path fill="none" stroke="#63b8ff" d="M142.02,-212.43C138.17,-200.8 133.24,-185.9 129.68,-175.14"/>
<polygon fill="none" stroke="#63b8ff" points="138.72,-213.58 145.18,-221.98 145.36,-211.38 138.72,-213.58"/>
</a>
</g>
</g>
<!-- Node5 -->
<g id="Node000005" class="node">
<title>Node5</title>
<g id="a_Node000005"><a xlink:href="classcore_1_1_observer.html" target="_top" xlink:title=" ">
<polygon fill="white" stroke="transparent" points="181,-329 101,-329 101,-310 181,-310 181,-329"/>
<text text-anchor="start" x="105" y="-316.5" font-family="Helvetica,sans-Serif" font-size="10.00">core::Observer</text>
<polygon fill="none" stroke="#666666" points="101,-310 101,-329 181,-329 181,-310 101,-310"/>
</a>
</g>
</g>
<!-- Node5&#45;&gt;Node4 -->
<g id="edge4_Node000004_Node000005" class="edge">
<title>Node5&#45;&gt;Node4</title>
<g id="a_edge4_Node000004_Node000005"><a xlink:title=" ">
<path fill="none" stroke="darkgreen" d="M142.51,-299.91C144,-281.67 146.2,-254.65 147.31,-241.03"/>
<polygon fill="none" stroke="darkgreen" points="139.02,-299.69 141.7,-309.94 146,-300.26 139.02,-299.69"/>
</a>
</g>
</g>
<!-- Node6 -->
<g id="Node000006" class="node">
<title>Node6</title>
<g id="a_Node000006"><a xlink:href="classcore_1_1_event_receiver.html" target="_top" xlink:title=" ">
<polygon fill="white" stroke="transparent" points="496,-329 390,-329 390,-310 496,-310 496,-329"/>
<text text-anchor="start" x="394" y="-316.5" font-family="Helvetica,sans-Serif" font-size="10.00">core::EventReceiver</text>
<polygon fill="none" stroke="#666666" points="390,-310 390,-329 496,-329 496,-310 390,-310"/>
</a>
</g>
</g>
<!-- Node6&#45;&gt;Node4 -->
<g id="edge5_Node000004_Node000006" class="edge">
<title>Node6&#45;&gt;Node4</title>
<g id="a_edge5_Node000004_Node000006"><a xlink:title=" ">
<path fill="none" stroke="#63b8ff" d="M428.46,-302.32C414.83,-288.32 393.15,-268.82 370,-259 344.68,-248.25 279.33,-241.28 226.05,-237.2"/>
<polygon fill="none" stroke="#63b8ff" points="426.1,-304.92 435.5,-309.82 431.2,-300.13 426.1,-304.92"/>
</a>
</g>
</g>
<!-- Node7 -->
<g id="Node000007" class="node">
<title>Node7</title>
<g id="a_Node000007"><a xlink:href="classcore_1_1_event.html" target="_top" xlink:title=" ">
<polygon fill="white" stroke="transparent" points="576,-241 512,-241 512,-222 576,-222 576,-241"/>
<text text-anchor="start" x="516.5" y="-228.5" font-family="Helvetica,sans-Serif" font-size="10.00">core::Event</text>
<polygon fill="none" stroke="#666666" points="512,-222 512,-241 576,-241 576,-222 512,-222"/>
</a>
</g>
</g>
<!-- Node6&#45;&gt;Node7 -->
<g id="edge7_Node000007_Node000006" class="edge">
<title>Node6&#45;&gt;Node7</title>
<g id="a_edge7_Node000007_Node000006"><a xlink:title=" ">
<path fill="none" stroke="#63b8ff" d="M439.34,-309.77C434.7,-297.14 428.58,-273.7 440,-259 447.57,-249.26 475.1,-242.51 499.94,-238.26"/>
<polygon fill="none" stroke="#63b8ff" points="499.97,-238.26 505.27,-233.36 511.82,-236.37 506.52,-241.27 499.97,-238.26"/>
</a>
</g>
<text text-anchor="middle" x="479" y="-273" font-family="Helvetica,sans-Serif" font-size="10.00" fill="grey"> &#45;eventReceiver</text>
</g>
<!-- Node7&#45;&gt;Node6 -->
<g id="edge6_Node000006_Node000007" class="edge">
<title>Node7&#45;&gt;Node6</title>
<g id="a_edge6_Node000006_Node000007"><a xlink:title=" ">
<path fill="none" stroke="#63b8ff" d="M543.15,-241.04C541.44,-253.86 536.39,-278.04 522,-292 516.35,-297.48 509.52,-301.83 502.28,-305.29"/>
<polygon fill="none" stroke="#63b8ff" points="502.18,-305.33 498.14,-311.3 491.08,-309.86 495.12,-303.89 502.18,-305.33"/>
</a>
</g>
<text text-anchor="middle" x="557.5" y="-273" font-family="Helvetica,sans-Serif" font-size="10.00" fill="grey"> &#45;event</text>
</g>
<!-- Node8 -->
<g id="Node000008" class="node">
<title>Node8</title>
<g id="a_Node000008"><a xlink:href="classcore_1_1_event_multiplexer.html" target="_top" xlink:title=" ">
<polygon fill="white" stroke="transparent" points="662,-329 542,-329 542,-310 662,-310 662,-329"/>
<text text-anchor="start" x="546.5" y="-316.5" font-family="Helvetica,sans-Serif" font-size="10.00">core::EventMultiplexer</text>
<polygon fill="none" stroke="#666666" points="542,-310 542,-329 662,-329 662,-310 542,-310"/>
</a>
</g>
</g>
<!-- Node8&#45;&gt;Node7 -->
<g id="edge8_Node000007_Node000008" class="edge">
<title>Node8&#45;&gt;Node7</title>
<g id="a_edge8_Node000007_Node000008"><a xlink:title=" ">
<path fill="none" stroke="#63b8ff" d="M600.4,-309.66C597.82,-297.31 591.79,-274.66 580,-259 577.04,-255.07 573.34,-251.46 569.44,-248.25"/>
<polygon fill="none" stroke="#63b8ff" points="569.38,-248.2 562.17,-247.92 559.67,-241.15 566.87,-241.44 569.38,-248.2"/>
</a>
</g>
<text text-anchor="middle" x="640.5" y="-273" font-family="Helvetica,sans-Serif" font-size="10.00" fill="grey"> &#45;eventMultiplexer</text>
</g>
<!-- Node9 -->
<g id="Node000009" class="node">
<title>Node9</title>
<g id="a_Node000009"><a xlink:href="classcore_1_1_timer_event_publisher.html" target="_top" xlink:title=" ">
<polygon fill="white" stroke="transparent" points="597,-400.5 461,-400.5 461,-381.5 597,-381.5 597,-400.5"/>
<text text-anchor="start" x="465" y="-388" font-family="Helvetica,sans-Serif" font-size="10.00">core::TimerEventPublisher</text>
<polygon fill="none" stroke="#666666" points="461,-381.5 461,-400.5 597,-400.5 597,-381.5 461,-381.5"/>
</a>
</g>
</g>
<!-- Node9&#45;&gt;Node8 -->
<g id="edge9_Node000008_Node000009" class="edge">
<title>Node9&#45;&gt;Node8</title>
<g id="a_edge9_Node000008_Node000009"><a xlink:title=" ">
<path fill="none" stroke="#63b8ff" d="M530.68,-381.41C532.93,-371.93 537.75,-356.75 547,-347 551.7,-342.05 557.51,-337.91 563.58,-334.5"/>
<polygon fill="none" stroke="#63b8ff" points="563.82,-334.38 567.45,-328.14 574.6,-329.1 570.97,-335.33 563.82,-334.38"/>
</a>
</g>
<text text-anchor="middle" x="600" y="-350" font-family="Helvetica,sans-Serif" font-size="10.00" fill="grey"> &#45;timerEventPublisher</text>
</g>
<!-- Node10 -->
<g id="Node000010" class="node">
<title>Node10</title>
<g id="a_Node000010"><a xlink:href="classcore_1_1_event_multiplexer_1_1_event_queue.html" target="_top" xlink:title=" ">
<polygon fill="white" stroke="transparent" points="735,-406 615,-406 615,-376 735,-376 735,-406"/>
<text text-anchor="start" x="619.5" y="-394" font-family="Helvetica,sans-Serif" font-size="10.00">core::EventMultiplexer</text>
<text text-anchor="start" x="642" y="-383" font-family="Helvetica,sans-Serif" font-size="10.00">::EventQueue</text>
<polygon fill="none" stroke="#666666" points="615,-376 615,-406 735,-406 735,-376 615,-376"/>
</a>
</g>
</g>
<!-- Node10&#45;&gt;Node8 -->
<g id="edge10_Node000008_Node000010" class="edge">
<title>Node10&#45;&gt;Node8</title>
<g id="a_edge10_Node000008_Node000010"><a xlink:title=" ">
<path fill="none" stroke="#63b8ff" d="M670.33,-375.85C666.75,-366.72 661.04,-355.09 653,-347 648.21,-342.18 642.36,-338.05 636.35,-334.58"/>
<polygon fill="none" stroke="#63b8ff" points="636.23,-334.52 629.07,-335.34 625.55,-329.05 632.72,-328.22 636.23,-334.52"/>
</a>
</g>
<text text-anchor="middle" x="694.5" y="-350" font-family="Helvetica,sans-Serif" font-size="10.00" fill="grey"> &#45;eventQueue</text>
</g>
<!-- Node11 -->
<g id="Node000011" class="node">
<title>Node11</title>
<g id="a_Node000011"><a xlink:href="classcore_1_1_descriptor_event_publisher.html" target="_top" xlink:title=" ">
<polygon fill="white" stroke="transparent" points="359,-329 199,-329 199,-310 359,-310 359,-329"/>
<text text-anchor="start" x="203.5" y="-316.5" font-family="Helvetica,sans-Serif" font-size="10.00">core::DescriptorEventPublisher</text>
<polygon fill="none" stroke="#666666" points="199,-310 199,-329 359,-329 359,-310 199,-310"/>
</a>
</g>
</g>
<!-- Node11&#45;&gt;Node4 -->
<g id="edge11_Node000004_Node000011" class="edge">
<title>Node11&#45;&gt;Node4</title>
<g id="a_edge11_Node000004_Node000011"><a xlink:title=" ">
<path fill="none" stroke="#63b8ff" d="M265.96,-309.94C243.89,-295.45 198.89,-265.91 171.3,-247.79"/>
<polygon fill="none" stroke="#63b8ff" points="171.02,-247.61 163.81,-247.66 160.99,-241.03 168.2,-240.97 171.02,-247.61"/>
</a>
</g>
<text text-anchor="middle" x="301.5" y="-273" font-family="Helvetica,sans-Serif" font-size="10.00" fill="grey"> &#45;descriptorEventPublisher</text>
</g>
<!-- Node12 -->
<g id="Node000012" class="node">
<title>Node12</title>
<g id="a_Node000012"><a xlink:href="classutils_1_1_timeval.html" target="_top" xlink:title=" ">
<polygon fill="white" stroke="transparent" points="76,-329 0,-329 0,-310 76,-310 76,-329"/>
<text text-anchor="start" x="4.5" y="-316.5" font-family="Helvetica,sans-Serif" font-size="10.00">utils::Timeval</text>
<polygon fill="none" stroke="#666666" points="0,-310 0,-329 76,-329 76,-310 0,-310"/>
</a>
</g>
</g>
<!-- Node12&#45;&gt;Node2 -->
<g id="edge14_Node000002_Node000012" class="edge">
<title>Node12&#45;&gt;Node2</title>
<g id="a_edge14_Node000002_Node000012"><a xlink:title=" ">
<path fill="none" stroke="#63b8ff" d="M36.58,-309.83C33.51,-289.25 27.25,-235.92 37,-193 42.24,-169.93 45.2,-163.45 60,-145 69,-133.78 80.93,-123.52 92.11,-115.2"/>
<polygon fill="none" stroke="#63b8ff" points="92.27,-115.08 94.85,-108.34 102.05,-108.12 99.48,-114.86 92.27,-115.08"/>
</a>
</g>
<text text-anchor="middle" x="84.5" y="-196" font-family="Helvetica,sans-Serif" font-size="10.00" fill="grey"> &#45;terminateTimeout</text>
</g>
<!-- Node12&#45;&gt;Node4 -->
<g id="edge12_Node000004_Node000012" class="edge">
<title>Node12&#45;&gt;Node4</title>
<g id="a_edge12_Node000004_Node000012"><a xlink:title=" ">
<path fill="none" stroke="#63b8ff" d="M39.6,-309.9C42.43,-297.01 49.57,-272.72 65,-259 71.38,-253.33 78.97,-248.87 86.94,-245.37"/>
<polygon fill="none" stroke="#63b8ff" points="87.15,-245.29 91.34,-239.41 98.37,-241.02 94.18,-246.89 87.15,-245.29"/>
</a>
</g>
<text text-anchor="middle" x="102.5" y="-284" font-family="Helvetica,sans-Serif" font-size="10.00" fill="grey"> &#45;initialTimeout</text>
<text text-anchor="middle" x="102.5" y="-273" font-family="Helvetica,sans-Serif" font-size="10.00" fill="grey">&#45;lastTriggered</text>
<text text-anchor="middle" x="102.5" y="-262" font-family="Helvetica,sans-Serif" font-size="10.00" fill="grey">&#45;maxInactivity</text>
</g>
<!-- Node13 -->
<g id="Node000013" class="node">
<title>Node13</title>
<g id="a_Node000013"><a xlink:title=" ">
<polygon fill="white" stroke="transparent" points="287,-169.5 199,-169.5 199,-150.5 287,-150.5 287,-169.5"/>
<text text-anchor="start" x="203.5" y="-157" font-family="Helvetica,sans-Serif" font-size="10.00">PhysicalSocketT</text>
<polygon fill="none" stroke="#666666" points="199,-150.5 199,-169.5 287,-169.5 287,-150.5 199,-150.5"/>
</a>
</g>
</g>
<!-- Node13&#45;&gt;Node2 -->
<g id="edge13_Node000002_Node000013" class="edge">
<title>Node13&#45;&gt;Node2</title>
<g id="a_edge13_Node000002_Node000013"><a xlink:title=" ">
<path fill="none" stroke="#63b8ff" d="M218.31,-145.4C198.46,-134.47 170.66,-119.15 150.58,-108.09"/>
<polygon fill="none" stroke="#63b8ff" points="216.64,-148.47 227.09,-150.23 220.02,-142.34 216.64,-148.47"/>
</a>
</g>
</g>
</g>
</svg>
