<?xml version="1.0" encoding="UTF-8" standalone="no"?>
<!DOCTYPE svg PUBLIC "-//W3C//DTD SVG 1.1//EN"
 "http://www.w3.org/Graphics/SVG/1.1/DTD/svg11.dtd">
<!-- Generated by graphviz version 2.43.0 (0)
 -->
<!-- Title: web::websocket::server::SubProtocolFactorySelector::load Pages: 1 -->
<svg width="1090pt" height="129pt"
 viewBox="0.00 0.00 1090.00 129.00" xmlns="http://www.w3.org/2000/svg" xmlns:xlink="http://www.w3.org/1999/xlink">
<g id="graph0" class="graph" transform="scale(1 1) rotate(0) translate(4 125)">
<title>web::websocket::server::SubProtocolFactorySelector::load</title>
<!-- Node1 -->
<g id="Node000001" class="node">
<title>Node1</title>
<g id="a_Node000001"><a xlink:title=" ">
<polygon fill="#999999" stroke="#666666" points="169,-73 0,-73 0,-43 169,-43 169,-73"/>
<text text-anchor="start" x="8" y="-61" font-family="Helvetica,sans-Serif" font-size="10.00">web::websocket::server</text>
<text text-anchor="middle" x="84.5" y="-50" font-family="Helvetica,sans-Serif" font-size="10.00">::SubProtocolFactorySelector::load</text>
</a>
</g>
</g>
<!-- Node2 -->
<g id="Node000002" class="node">
<title>Node2</title>
<g id="a_Node000002"><a xlink:href="classweb_1_1websocket_1_1SubProtocolFactorySelector.html#aaa7b6d1d6c4d36d49bee20584ac403c5" target="_top" xlink:title=" ">
<polygon fill="white" stroke="#666666" points="352,-73 205,-73 205,-43 352,-43 352,-73"/>
<text text-anchor="start" x="213" y="-61" font-family="Helvetica,sans-Serif" font-size="10.00">web::websocket::SubProtocol</text>
<text text-anchor="middle" x="278.5" y="-50" font-family="Helvetica,sans-Serif" font-size="10.00">FactorySelector::load</text>
</a>
</g>
</g>
<!-- Node1&#45;&gt;Node2 -->
<g id="edge1_Node000001_Node000002" class="edge">
<title>Node1&#45;&gt;Node2</title>
<g id="a_edge1_Node000001_Node000002"><a xlink:title=" ">
<path fill="none" stroke="#63b8ff" d="M169.16,-58C177.63,-58 186.24,-58 194.71,-58"/>
<polygon fill="#63b8ff" stroke="#63b8ff" points="194.95,-61.5 204.95,-58 194.95,-54.5 194.95,-61.5"/>
</a>
</g>
</g>
<!-- Node3 -->
<g id="Node000003" class="node">
<title>Node3</title>
<g id="a_Node000003"><a xlink:href="classcore_1_1DynamicLoader.html#a42ac52cda1ec4534f1cc9e225dcb31b0" target="_top" xlink:title=" ">
<polygon fill="white" stroke="#666666" points="498,-116 388,-116 388,-86 498,-86 498,-116"/>
<text text-anchor="start" x="396" y="-104" font-family="Helvetica,sans-Serif" font-size="10.00">core::DynamicLoader</text>
<text text-anchor="middle" x="443" y="-93" font-family="Helvetica,sans-Serif" font-size="10.00">::dlClose</text>
</a>
</g>
</g>
<!-- Node2&#45;&gt;Node3 -->
<g id="edge2_Node000002_Node000003" class="edge">
<title>Node2&#45;&gt;Node3</title>
<g id="a_edge2_Node000002_Node000003"><a xlink:title=" ">
<path fill="none" stroke="#63b8ff" d="M336.33,-73.04C349.81,-76.61 364.28,-80.43 378.05,-84.08"/>
<polygon fill="#63b8ff" stroke="#63b8ff" points="377.37,-87.52 387.93,-86.69 379.16,-80.75 377.37,-87.52"/>
</a>
</g>
</g>
<!-- Node5 -->
<g id="Node000005" class="node">
<title>Node5</title>
<g id="a_Node000005"><a xlink:href="classcore_1_1DynamicLoader.html#a28d14f3029339351d8bb8b328a6110b0" target="_top" xlink:title=" ">
<polygon fill="white" stroke="#666666" points="790,-73 680,-73 680,-43 790,-43 790,-73"/>
<text text-anchor="start" x="688" y="-61" font-family="Helvetica,sans-Serif" font-size="10.00">core::DynamicLoader</text>
<text text-anchor="middle" x="735" y="-50" font-family="Helvetica,sans-Serif" font-size="10.00">::dlError</text>
</a>
</g>
</g>
<!-- Node2&#45;&gt;Node5 -->
<g id="edge9_Node000002_Node000005" class="edge">
<title>Node2&#45;&gt;Node5</title>
<g id="a_edge9_Node000002_Node000005"><a xlink:title=" ">
<path fill="none" stroke="#63b8ff" d="M352.02,-58C439.71,-58 585.95,-58 669.75,-58"/>
<polygon fill="#63b8ff" stroke="#63b8ff" points="669.9,-61.5 679.9,-58 669.9,-54.5 669.9,-61.5"/>
</a>
</g>
</g>
<!-- Node10 -->
<g id="Node000010" class="node">
<title>Node10</title>
<g id="a_Node000010"><a xlink:href="classcore_1_1DynamicLoader.html#a708b7adb431acbc8976968c59692625e" target="_top" xlink:title=" ">
<polygon fill="white" stroke="#666666" points="498,-30 388,-30 388,0 498,0 498,-30"/>
<text text-anchor="start" x="396" y="-18" font-family="Helvetica,sans-Serif" font-size="10.00">core::DynamicLoader</text>
<text text-anchor="middle" x="443" y="-7" font-family="Helvetica,sans-Serif" font-size="10.00">::dlSym</text>
</a>
</g>
</g>
<!-- Node2&#45;&gt;Node10 -->
<g id="edge10_Node000002_Node000010" class="edge">
<title>Node2&#45;&gt;Node10</title>
<g id="a_edge10_Node000002_Node000010"><a xlink:title=" ">
<path fill="none" stroke="#63b8ff" d="M336.33,-42.96C349.81,-39.39 364.28,-35.57 378.05,-31.92"/>
<polygon fill="#63b8ff" stroke="#63b8ff" points="379.16,-35.25 387.93,-29.31 377.37,-28.48 379.16,-35.25"/>
</a>
</g>
</g>
<!-- Node4 -->
<g id="Node000004" class="node">
<title>Node4</title>
<g id="a_Node000004"><a xlink:href="classcore_1_1DynamicLoader.html#a94acb7071e8e3c99bfa33146b374d1c8" target="_top" xlink:title=" ">
<polygon fill="white" stroke="#666666" points="644,-116 534,-116 534,-86 644,-86 644,-116"/>
<text text-anchor="start" x="542" y="-104" font-family="Helvetica,sans-Serif" font-size="10.00">core::DynamicLoader</text>
<text text-anchor="middle" x="589" y="-93" font-family="Helvetica,sans-Serif" font-size="10.00">::dlClose</text>
</a>
</g>
</g>
<!-- Node3&#45;&gt;Node4 -->
<g id="edge3_Node000003_Node000004" class="edge">
<title>Node3&#45;&gt;Node4</title>
<g id="a_edge3_Node000003_Node000004"><a xlink:title=" ">
<path fill="none" stroke="#63b8ff" d="M498.03,-101C506.31,-101 514.94,-101 523.42,-101"/>
<polygon fill="#63b8ff" stroke="#63b8ff" points="523.67,-104.5 533.67,-101 523.67,-97.5 523.67,-104.5"/>
</a>
</g>
</g>
<!-- Node4&#45;&gt;Node5 -->
<g id="edge4_Node000004_Node000005" class="edge">
<title>Node4&#45;&gt;Node5</title>
<g id="a_edge4_Node000004_Node000005"><a xlink:title=" ">
<path fill="none" stroke="#63b8ff" d="M640.36,-85.96C651.15,-82.74 662.66,-79.3 673.78,-75.98"/>
<polygon fill="#63b8ff" stroke="#63b8ff" points="674.84,-79.32 683.42,-73.1 672.84,-72.61 674.84,-79.32"/>
</a>
</g>
</g>
<!-- Node7 -->
<g id="Node000007" class="node">
<title>Node7</title>
<g id="a_Node000007"><a xlink:href="classcore_1_1DynamicLoader.html#a0eb6f36d1c50f7233455d0e2798a71e4" target="_top" xlink:title=" ">
<polygon fill="white" stroke="#666666" points="790,-121 680,-121 680,-91 790,-91 790,-121"/>
<text text-anchor="start" x="688" y="-109" font-family="Helvetica,sans-Serif" font-size="10.00">core::DynamicLoader</text>
<text text-anchor="middle" x="735" y="-98" font-family="Helvetica,sans-Serif" font-size="10.00">::execDlClose</text>
</a>
</g>
</g>
<!-- Node4&#45;&gt;Node7 -->
<g id="edge6_Node000004_Node000007" class="edge">
<title>Node4&#45;&gt;Node7</title>
<g id="a_edge6_Node000004_Node000007"><a xlink:title=" ">
<path fill="none" stroke="#63b8ff" d="M644.03,-102.88C652.31,-103.16 660.94,-103.46 669.42,-103.76"/>
<polygon fill="#63b8ff" stroke="#63b8ff" points="669.55,-107.26 679.67,-104.11 669.79,-100.27 669.55,-107.26"/>
</a>
</g>
</g>
<!-- Node6 -->
<g id="Node000006" class="node">
<title>Node6</title>
<g id="a_Node000006"><a xlink:href="namespacecore_1_1system.html#ad04dc647899e7a1c52498190f5e16f1c" target="_top" xlink:title=" ">
<polygon fill="white" stroke="#666666" points="934.5,-67.5 827.5,-67.5 827.5,-48.5 934.5,-48.5 934.5,-67.5"/>
<text text-anchor="middle" x="881" y="-55.5" font-family="Helvetica,sans-Serif" font-size="10.00">core::system::dlerror</text>
</a>
</g>
</g>
<!-- Node5&#45;&gt;Node6 -->
<g id="edge5_Node000005_Node000006" class="edge">
<title>Node5&#45;&gt;Node6</title>
<g id="a_edge5_Node000005_Node000006"><a xlink:title=" ">
<path fill="none" stroke="#63b8ff" d="M790.03,-58C798.84,-58 808.04,-58 817.05,-58"/>
<polygon fill="#63b8ff" stroke="#63b8ff" points="817.1,-61.5 827.1,-58 817.1,-54.5 817.1,-61.5"/>
</a>
</g>
</g>
<!-- Node8 -->
<g id="Node000008" class="node">
<title>Node8</title>
<g id="a_Node000008"><a xlink:href="classcore_1_1DynamicLoader.html#afea22388177ead6ebd12f9ef041e6d2b" target="_top" xlink:title=" ">
<polygon fill="white" stroke="#666666" points="936,-121 826,-121 826,-91 936,-91 936,-121"/>
<text text-anchor="start" x="834" y="-109" font-family="Helvetica,sans-Serif" font-size="10.00">core::DynamicLoader</text>
<text text-anchor="middle" x="881" y="-98" font-family="Helvetica,sans-Serif" font-size="10.00">::execDlClose</text>
</a>
</g>
</g>
<!-- Node7&#45;&gt;Node8 -->
<g id="edge7_Node000007_Node000008" class="edge">
<title>Node7&#45;&gt;Node8</title>
<g id="a_edge7_Node000007_Node000008"><a xlink:title=" ">
<path fill="none" stroke="#63b8ff" d="M790.03,-106C798.31,-106 806.94,-106 815.42,-106"/>
<polygon fill="#63b8ff" stroke="#63b8ff" points="815.67,-109.5 825.67,-106 815.67,-102.5 815.67,-109.5"/>
</a>
</g>
</g>
<!-- Node9 -->
<g id="Node000009" class="node">
<title>Node9</title>
<g id="a_Node000009"><a xlink:href="namespacecore_1_1system.html#a4317d54914cd18248143183ea71252d3" target="_top" xlink:title=" ">
<polygon fill="white" stroke="#666666" points="1082,-115.5 972,-115.5 972,-96.5 1082,-96.5 1082,-115.5"/>
<text text-anchor="middle" x="1027" y="-103.5" font-family="Helvetica,sans-Serif" font-size="10.00">core::system::dlclose</text>
</a>
</g>
</g>
<!-- Node8&#45;&gt;Node9 -->
<g id="edge8_Node000008_Node000009" class="edge">
<title>Node8&#45;&gt;Node9</title>
<g id="a_edge8_Node000008_Node000009"><a xlink:title=" ">
<path fill="none" stroke="#63b8ff" d="M936.03,-106C944.31,-106 952.94,-106 961.42,-106"/>
<polygon fill="#63b8ff" stroke="#63b8ff" points="961.67,-109.5 971.67,-106 961.67,-102.5 961.67,-109.5"/>
</a>
</g>
</g>
<!-- Node11 -->
<g id="Node000011" class="node">
<title>Node11</title>
<g id="a_Node000011"><a xlink:href="namespacecore_1_1system.html#a83d3862b9812ad39b93753bbea40238b" target="_top" xlink:title=" ">
<polygon fill="white" stroke="#666666" points="642,-24.5 536,-24.5 536,-5.5 642,-5.5 642,-24.5"/>
<text text-anchor="middle" x="589" y="-12.5" font-family="Helvetica,sans-Serif" font-size="10.00">core::system::dlsym</text>
</a>
</g>
</g>
<!-- Node10&#45;&gt;Node11 -->
<g id="edge11_Node000010_Node000011" class="edge">
<title>Node10&#45;&gt;Node11</title>
<g id="a_edge11_Node000010_Node000011"><a xlink:title=" ">
<path fill="none" stroke="#63b8ff" d="M498.03,-15C506.96,-15 516.28,-15 525.4,-15"/>
<polygon fill="#63b8ff" stroke="#63b8ff" points="525.58,-18.5 535.58,-15 525.58,-11.5 525.58,-18.5"/>
</a>
</g>
</g>
</g>
</svg>
