<?xml version="1.0" encoding="UTF-8" standalone="no"?>
<!DOCTYPE svg PUBLIC "-//W3C//DTD SVG 1.1//EN"
 "http://www.w3.org/Graphics/SVG/1.1/DTD/svg11.dtd">
<!-- Generated by graphviz version 2.42.4 (0)
 -->
<!-- Title: Option::trigger_on_parse Pages: 1 -->
<svg width="295pt" height="56pt"
 viewBox="0.00 0.00 295.00 56.00" xmlns="http://www.w3.org/2000/svg" xmlns:xlink="http://www.w3.org/1999/xlink">
<g id="graph0" class="graph" transform="scale(1 1) rotate(0) translate(4 52)">
<title>Option::trigger_on_parse</title>
<!-- Node1 -->
<g id="Node000001" class="node">
<title>Node1</title>
<g id="a_Node000001"><a xlink:title="Set the value of trigger_on_parse which specifies that the option callback should be triggered on eve...">
<polygon fill="#999999" stroke="#666666" points="287,-30 183,-30 183,0 287,0 287,-30"/>
<text text-anchor="start" x="191" y="-18" font-family="Helvetica,sans-Serif" font-size="10.00">Option::trigger_on</text>
<text text-anchor="middle" x="235" y="-7" font-family="Helvetica,sans-Serif" font-size="10.00">_parse</text>
</a>
</g>
</g>
<!-- Node2 -->
<g id="Node000002" class="node">
<title>Node2</title>
<g id="a_Node000002"><a xlink:href="classnet_1_1config_1_1ConfigInstance.html#a7fd41c5db4865443c184508a4435f7aa" target="_top" xlink:title=" ">
<polygon fill="white" stroke="#666666" points="147,-30 0,-30 0,0 147,0 147,-30"/>
<text text-anchor="start" x="8" y="-18" font-family="Helvetica,sans-Serif" font-size="10.00">net::config::ConfigInstance</text>
<text text-anchor="middle" x="73.5" y="-7" font-family="Helvetica,sans-Serif" font-size="10.00">::ConfigInstance</text>
</a>
</g>
</g>
<!-- Node1&#45;&gt;Node2 -->
<g id="edge1_Node000001_Node000002" class="edge">
<title>Node1&#45;&gt;Node2</title>
<g id="a_edge1_Node000001_Node000002"><a xlink:title=" ">
<path fill="none" stroke="#63b8ff" d="M172.4,-15C164.16,-15 155.65,-15 147.24,-15"/>
<polygon fill="#63b8ff" stroke="#63b8ff" points="172.66,-18.5 182.66,-15 172.66,-11.5 172.66,-18.5"/>
</a>
</g>
</g>
<!-- Node2&#45;&gt;Node2 -->
<g id="edge2_Node000002_Node000002" class="edge">
<title>Node2&#45;&gt;Node2</title>
<g id="a_edge2_Node000002_Node000002"><a xlink:title=" ">
<path fill="none" stroke="#63b8ff" d="M101.51,-40.6C97.68,-44.97 88.34,-48 73.5,-48 48.5,-48 39.12,-39.41 45.38,-30.28"/>
<polygon fill="#63b8ff" stroke="#63b8ff" points="105.01,-40.32 101.62,-30.28 98.01,-40.23 105.01,-40.32"/>
</a>
</g>
</g>
</g>
</svg>
