<?xml version="1.0" encoding="UTF-8" standalone="no"?>
<!DOCTYPE svg PUBLIC "-//W3C//DTD SVG 1.1//EN"
 "http://www.w3.org/Graphics/SVG/1.1/DTD/svg11.dtd">
<!-- Generated by graphviz version 14.1.1 (0)
 -->
<!-- Title: iot::mqtt::SubProtocol::SubProtocol Pages: 1 -->
<svg width="979pt" height="250pt"
 viewBox="0.00 0.00 979.00 250.00" xmlns="http://www.w3.org/2000/svg" xmlns:xlink="http://www.w3.org/1999/xlink">
<g id="graph0" class="graph" transform="scale(1 1) rotate(0) translate(4 245.5)">
<title>iot::mqtt::SubProtocol::SubProtocol</title>
<!-- Node1 -->
<g id="Node000001" class="node">
<title>Node1</title>
<g id="a_Node000001"><a xlink:title=" ">
<polygon fill="#999999" stroke="#666666" points="121.75,-90.5 0,-90.5 0,-57 121.75,-57 121.75,-90.5"/>
<text xml:space="preserve" text-anchor="start" x="8" y="-77" font-family="Helvetica,sans-Serif" font-size="10.00">iot::mqtt::SubProtocol</text>
<text xml:space="preserve" text-anchor="middle" x="60.88" y="-64.25" font-family="Helvetica,sans-Serif" font-size="10.00">::SubProtocol</text>
</a>
</g>
</g>
<!-- Node2 -->
<g id="Node000002" class="node">
<title>Node2</title>
<g id="a_Node000002"><a xlink:href="classiot_1_1mqtt_1_1MqttContext.html#a614ee4495a17d7f004355578f73cc29c" target="_top" xlink:title=" ">
<polygon fill="white" stroke="#666666" points="283.25,-129.5 157.75,-129.5 157.75,-96 283.25,-96 283.25,-129.5"/>
<text xml:space="preserve" text-anchor="start" x="165.75" y="-116" font-family="Helvetica,sans-Serif" font-size="10.00">iot::mqtt::MqttContext</text>
<text xml:space="preserve" text-anchor="middle" x="220.5" y="-103.25" font-family="Helvetica,sans-Serif" font-size="10.00">::onReceivedFromPeer</text>
</a>
</g>
</g>
<!-- Node1&#45;&gt;Node2 -->
<g id="edge1_Node000001_Node000002" class="edge">
<title>Node1&#45;&gt;Node2</title>
<g id="a_edge1_Node000001_Node000002"><a xlink:title=" ">
<path fill="none" stroke="#63b8ff" d="M121.92,-88.61C129.87,-90.57 138.1,-92.61 146.24,-94.62"/>
<polygon fill="#63b8ff" stroke="#63b8ff" points="145.25,-97.99 155.8,-96.99 146.93,-91.19 145.25,-97.99"/>
</a>
</g>
</g>
<!-- Node10 -->
<g id="Node000010" class="node">
<title>Node10</title>
<g id="a_Node000010"><a xlink:href="classcore_1_1EventReceiver.html#ad353e97a9089b2769e52f8825e4878b1" target="_top" xlink:title=" ">
<polygon fill="white" stroke="#666666" points="277.25,-64.5 163.75,-64.5 163.75,-31 277.25,-31 277.25,-64.5"/>
<text xml:space="preserve" text-anchor="start" x="171.75" y="-51" font-family="Helvetica,sans-Serif" font-size="10.00">core::EventReceiver</text>
<text xml:space="preserve" text-anchor="middle" x="220.5" y="-38.25" font-family="Helvetica,sans-Serif" font-size="10.00">::span</text>
</a>
</g>
</g>
<!-- Node1&#45;&gt;Node10 -->
<g id="edge10_Node000001_Node000010" class="edge">
<title>Node1&#45;&gt;Node10</title>
<g id="a_edge10_Node000001_Node000010"><a xlink:title=" ">
<path fill="none" stroke="#63b8ff" d="M121.92,-63.85C131.78,-62.22 142.05,-60.52 152.08,-58.87"/>
<polygon fill="#63b8ff" stroke="#63b8ff" points="152.47,-62.35 161.76,-57.27 151.33,-55.45 152.47,-62.35"/>
</a>
</g>
</g>
<!-- Node3 -->
<g id="Node000003" class="node">
<title>Node3</title>
<g id="a_Node000003"><a xlink:href="classiot_1_1mqtt_1_1Mqtt.html#a40738c730fe9ee2aafb9dd4958d91d8f" target="_top" xlink:title=" ">
<polygon fill="white" stroke="#666666" points="468.75,-131.5 319.25,-131.5 319.25,-98 468.75,-98 468.75,-131.5"/>
<text xml:space="preserve" text-anchor="start" x="327.25" y="-118" font-family="Helvetica,sans-Serif" font-size="10.00">iot::mqtt::Mqtt::onReceived</text>
<text xml:space="preserve" text-anchor="middle" x="394" y="-105.25" font-family="Helvetica,sans-Serif" font-size="10.00">FromPeer</text>
</a>
</g>
</g>
<!-- Node2&#45;&gt;Node3 -->
<g id="edge2_Node000002_Node000003" class="edge">
<title>Node2&#45;&gt;Node3</title>
<g id="a_edge2_Node000002_Node000003"><a xlink:title=" ">
<path fill="none" stroke="#63b8ff" d="M283.42,-113.47C291.24,-113.56 299.35,-113.66 307.46,-113.75"/>
<polygon fill="#63b8ff" stroke="#63b8ff" points="307.35,-117.25 317.39,-113.87 307.43,-110.25 307.35,-117.25"/>
</a>
</g>
</g>
<!-- Node4 -->
<g id="Node000004" class="node">
<title>Node4</title>
<g id="a_Node000004"><a xlink:href="classiot_1_1mqtt_1_1FixedHeader.html#adb3ab0929d3aa769fb7c55057d051700" target="_top" xlink:title=" ">
<polygon fill="white" stroke="#666666" points="630.25,-137.5 505.5,-137.5 505.5,-104 630.25,-104 630.25,-137.5"/>
<text xml:space="preserve" text-anchor="start" x="513.5" y="-124" font-family="Helvetica,sans-Serif" font-size="10.00">iot::mqtt::FixedHeader</text>
<text xml:space="preserve" text-anchor="middle" x="567.88" y="-111.25" font-family="Helvetica,sans-Serif" font-size="10.00">::deserialize</text>
</a>
</g>
</g>
<!-- Node3&#45;&gt;Node4 -->
<g id="edge3_Node000003_Node000004" class="edge">
<title>Node3&#45;&gt;Node4</title>
<g id="a_edge3_Node000003_Node000004"><a xlink:title=" ">
<path fill="none" stroke="#63b8ff" d="M468.89,-117.33C477.11,-117.62 485.49,-117.91 493.7,-118.2"/>
<polygon fill="#63b8ff" stroke="#63b8ff" points="493.55,-121.69 503.67,-118.54 493.8,-114.7 493.55,-121.69"/>
</a>
</g>
</g>
<!-- Node5 -->
<g id="Node000005" class="node">
<title>Node5</title>
<g id="a_Node000005"><a xlink:href="classiot_1_1mqtt_1_1types_1_1TypeBase.html#aa3a0e0e868be87764c87378e27f2818a" target="_top" xlink:title=" ">
<polygon fill="white" stroke="#666666" points="810.5,-241.5 667,-241.5 667,-208 810.5,-208 810.5,-241.5"/>
<text xml:space="preserve" text-anchor="start" x="675" y="-228" font-family="Helvetica,sans-Serif" font-size="10.00">iot::mqtt::types::TypeBase</text>
<text xml:space="preserve" text-anchor="middle" x="738.75" y="-215.25" font-family="Helvetica,sans-Serif" font-size="10.00">::deserialize</text>
</a>
</g>
</g>
<!-- Node4&#45;&gt;Node5 -->
<g id="edge4_Node000004_Node000005" class="edge">
<title>Node4&#45;&gt;Node5</title>
<g id="a_edge4_Node000004_Node000005"><a xlink:title=" ">
<path fill="none" stroke="#63b8ff" d="M586.77,-137.91C605.52,-155.16 636.45,-181.59 667,-198.75 669.5,-200.15 672.08,-201.5 674.72,-202.81"/>
<polygon fill="#63b8ff" stroke="#63b8ff" points="673.2,-205.96 683.75,-206.93 676.11,-199.59 673.2,-205.96"/>
</a>
</g>
</g>
<!-- Node7 -->
<g id="Node000007" class="node">
<title>Node7</title>
<g id="a_Node000007"><a xlink:href="classiot_1_1mqtt_1_1types_1_1UIntV.html#a393422e75264b443c5d2481f2c23e30b" target="_top" xlink:title=" ">
<polygon fill="white" stroke="#666666" points="800.75,-189.5 676.75,-189.5 676.75,-156 800.75,-156 800.75,-189.5"/>
<text xml:space="preserve" text-anchor="start" x="684.75" y="-176" font-family="Helvetica,sans-Serif" font-size="10.00">iot::mqtt::types::UIntV</text>
<text xml:space="preserve" text-anchor="middle" x="738.75" y="-163.25" font-family="Helvetica,sans-Serif" font-size="10.00">::deserialize</text>
</a>
</g>
</g>
<!-- Node4&#45;&gt;Node7 -->
<g id="edge6_Node000004_Node000007" class="edge">
<title>Node4&#45;&gt;Node7</title>
<g id="a_edge6_Node000004_Node000007"><a xlink:title=" ">
<path fill="none" stroke="#63b8ff" d="M624.64,-137.92C639.41,-142.47 655.5,-147.42 670.79,-152.13"/>
<polygon fill="#63b8ff" stroke="#63b8ff" points="669.72,-155.47 680.31,-155.06 671.78,-148.78 669.72,-155.47"/>
</a>
</g>
</g>
<!-- Node8 -->
<g id="Node000008" class="node">
<title>Node8</title>
<g id="a_Node000008"><a xlink:href="classiot_1_1mqtt_1_1types_1_1TypeBase.html#a4a7c0fd8cae9084005a1ef4424dfde34" target="_top" xlink:title=" ">
<polygon fill="white" stroke="#666666" points="810.5,-137.5 667,-137.5 667,-104 810.5,-104 810.5,-137.5"/>
<text xml:space="preserve" text-anchor="start" x="675" y="-124" font-family="Helvetica,sans-Serif" font-size="10.00">iot::mqtt::types::TypeBase</text>
<text xml:space="preserve" text-anchor="middle" x="738.75" y="-111.25" font-family="Helvetica,sans-Serif" font-size="10.00">::isComplete</text>
</a>
</g>
</g>
<!-- Node4&#45;&gt;Node8 -->
<g id="edge8_Node000004_Node000008" class="edge">
<title>Node4&#45;&gt;Node8</title>
<g id="a_edge8_Node000004_Node000008"><a xlink:title=" ">
<path fill="none" stroke="#63b8ff" d="M630.32,-120.75C638.43,-120.75 646.84,-120.75 655.22,-120.75"/>
<polygon fill="#63b8ff" stroke="#63b8ff" points="655.1,-124.25 665.1,-120.75 655.1,-117.25 655.1,-124.25"/>
</a>
</g>
</g>
<!-- Node9 -->
<g id="Node000009" class="node">
<title>Node9</title>
<g id="a_Node000009"><a xlink:href="classiot_1_1mqtt_1_1types_1_1UIntV.html#a4d7c718f2a677bc6c2961686f206724b" target="_top" xlink:title=" ">
<polygon fill="white" stroke="#666666" points="800.75,-85.5 676.75,-85.5 676.75,-52 800.75,-52 800.75,-85.5"/>
<text xml:space="preserve" text-anchor="start" x="684.75" y="-72" font-family="Helvetica,sans-Serif" font-size="10.00">iot::mqtt::types::UIntV</text>
<text xml:space="preserve" text-anchor="middle" x="738.75" y="-59.25" font-family="Helvetica,sans-Serif" font-size="10.00">::isError</text>
</a>
</g>
</g>
<!-- Node4&#45;&gt;Node9 -->
<g id="edge9_Node000004_Node000009" class="edge">
<title>Node4&#45;&gt;Node9</title>
<g id="a_edge9_Node000004_Node000009"><a xlink:title=" ">
<path fill="none" stroke="#63b8ff" d="M624.64,-103.58C639.41,-99.03 655.5,-94.08 670.79,-89.37"/>
<polygon fill="#63b8ff" stroke="#63b8ff" points="671.78,-92.72 680.31,-86.44 669.72,-86.03 671.78,-92.72"/>
</a>
</g>
</g>
<!-- Node6 -->
<g id="Node000006" class="node">
<title>Node6</title>
<g id="a_Node000006"><a xlink:href="classiot_1_1mqtt_1_1MqttContext.html#a319ea16029337ef5b2f08b51d5b26d1a" target="_top" xlink:title=" ">
<polygon fill="white" stroke="#666666" points="971.25,-215.5 846.5,-215.5 846.5,-182 971.25,-182 971.25,-215.5"/>
<text xml:space="preserve" text-anchor="start" x="854.5" y="-202" font-family="Helvetica,sans-Serif" font-size="10.00">iot::mqtt::MqttContext</text>
<text xml:space="preserve" text-anchor="middle" x="908.88" y="-189.25" font-family="Helvetica,sans-Serif" font-size="10.00">::recv</text>
</a>
</g>
</g>
<!-- Node5&#45;&gt;Node6 -->
<g id="edge5_Node000005_Node000006" class="edge">
<title>Node5&#45;&gt;Node6</title>
<g id="a_edge5_Node000005_Node000006"><a xlink:title=" ">
<path fill="none" stroke="#63b8ff" d="M810.56,-213.8C818.61,-212.55 826.83,-211.28 834.91,-210.03"/>
<polygon fill="#63b8ff" stroke="#63b8ff" points="835.36,-213.51 844.71,-208.52 834.29,-206.59 835.36,-213.51"/>
</a>
</g>
</g>
<!-- Node7&#45;&gt;Node6 -->
<g id="edge7_Node000007_Node000006" class="edge">
<title>Node7&#45;&gt;Node6</title>
<g id="a_edge7_Node000007_Node000006"><a xlink:title=" ">
<path fill="none" stroke="#63b8ff" d="M800.92,-182.21C811.98,-183.92 823.61,-185.72 834.96,-187.47"/>
<polygon fill="#63b8ff" stroke="#63b8ff" points="834.27,-190.91 844.69,-188.98 835.34,-183.99 834.27,-190.91"/>
</a>
</g>
</g>
<!-- Node11 -->
<g id="Node000011" class="node">
<title>Node11</title>
<g id="a_Node000011"><a xlink:href="classcore_1_1Event.html#a0a68a616082e2b1aece96499a439884f" target="_top" xlink:title=" ">
<polygon fill="white" stroke="#666666" points="444,-32.12 344,-32.12 344,-11.38 444,-11.38 444,-32.12"/>
<text xml:space="preserve" text-anchor="middle" x="394" y="-18.62" font-family="Helvetica,sans-Serif" font-size="10.00">core::Event::span</text>
</a>
</g>
</g>
<!-- Node10&#45;&gt;Node11 -->
<g id="edge11_Node000010_Node000011" class="edge">
<title>Node10&#45;&gt;Node11</title>
<g id="a_edge11_Node000010_Node000011"><a xlink:title=" ">
<path fill="none" stroke="#63b8ff" d="M277.66,-39.24C295.21,-36.58 314.65,-33.63 332.49,-30.92"/>
<polygon fill="#63b8ff" stroke="#63b8ff" points="332.79,-34.42 342.15,-29.46 331.74,-27.5 332.79,-34.42"/>
</a>
</g>
</g>
<!-- Node12 -->
<g id="Node000012" class="node">
<title>Node12</title>
<g id="a_Node000012"><a xlink:href="classcore_1_1EventMultiplexer.html#a61d96e95daaebfe6c3b980a2a847bb21" target="_top" xlink:title=" ">
<polygon fill="white" stroke="#666666" points="631,-36.5 504.75,-36.5 504.75,-3 631,-3 631,-36.5"/>
<text xml:space="preserve" text-anchor="start" x="512.75" y="-23" font-family="Helvetica,sans-Serif" font-size="10.00">core::EventMultiplexer</text>
<text xml:space="preserve" text-anchor="middle" x="567.88" y="-10.25" font-family="Helvetica,sans-Serif" font-size="10.00">::span</text>
</a>
</g>
</g>
<!-- Node11&#45;&gt;Node12 -->
<g id="edge12_Node000011_Node000012" class="edge">
<title>Node11&#45;&gt;Node12</title>
<g id="a_edge12_Node000011_Node000012"><a xlink:title=" ">
<path fill="none" stroke="#63b8ff" d="M444.25,-21.18C459.49,-21 476.61,-20.8 493.12,-20.61"/>
<polygon fill="#63b8ff" stroke="#63b8ff" points="492.96,-24.11 502.91,-20.49 492.87,-17.11 492.96,-24.11"/>
</a>
</g>
</g>
<!-- Node13 -->
<g id="Node000013" class="node">
<title>Node13</title>
<g id="a_Node000013"><a xlink:href="classcore_1_1EventMultiplexer_1_1EventQueue.html#a009075f2f16a78d3bf8d9e3a20226336" target="_top" xlink:title=" ">
<polygon fill="white" stroke="#666666" points="801.88,-33.5 675.62,-33.5 675.62,0 801.88,0 801.88,-33.5"/>
<text xml:space="preserve" text-anchor="start" x="683.62" y="-20" font-family="Helvetica,sans-Serif" font-size="10.00">core::EventMultiplexer</text>
<text xml:space="preserve" text-anchor="middle" x="738.75" y="-7.25" font-family="Helvetica,sans-Serif" font-size="10.00">::EventQueue::insert</text>
</a>
</g>
</g>
<!-- Node12&#45;&gt;Node13 -->
<g id="edge13_Node000012_Node000013" class="edge">
<title>Node12&#45;&gt;Node13</title>
<g id="a_edge13_Node000012_Node000013"><a xlink:title=" ">
<path fill="none" stroke="#63b8ff" d="M631.28,-18.64C641.95,-18.45 653.12,-18.25 664.05,-18.06"/>
<polygon fill="#63b8ff" stroke="#63b8ff" points="663.87,-21.56 673.81,-17.89 663.75,-14.56 663.87,-21.56"/>
</a>
</g>
</g>
</g>
</svg>
