<?xml version="1.0" encoding="UTF-8" standalone="no"?>
<!DOCTYPE svg PUBLIC "-//W3C//DTD SVG 1.1//EN"
 "http://www.w3.org/Graphics/SVG/1.1/DTD/svg11.dtd">
<!-- Generated by graphviz version 2.43.0 (0)
 -->
<!-- Title: net::config::stream::ConfigSocketServer::ConfigSocketServer Pages: 1 -->
<svg width="330pt" height="285pt"
 viewBox="0.00 0.00 330.00 285.00" xmlns="http://www.w3.org/2000/svg" xmlns:xlink="http://www.w3.org/1999/xlink">
<g id="graph0" class="graph" transform="scale(1 1) rotate(0) translate(4 281)">
<title>net::config::stream::ConfigSocketServer::ConfigSocketServer</title>
<!-- Node1 -->
<g id="Node000001" class="node">
<title>Node1</title>
<g id="a_Node000001"><a xlink:title=" ">
<polygon fill="#999999" stroke="#666666" points="322,-159 212,-159 212,-118 322,-118 322,-159"/>
<text text-anchor="start" x="220" y="-147" font-family="Helvetica,sans-Serif" font-size="10.00">net::config::stream</text>
<text text-anchor="start" x="220" y="-136" font-family="Helvetica,sans-Serif" font-size="10.00">::ConfigSocketServer</text>
<text text-anchor="middle" x="267" y="-125" font-family="Helvetica,sans-Serif" font-size="10.00">::ConfigSocketServer</text>
</a>
</g>
</g>
<!-- Node2 -->
<g id="Node000002" class="node">
<title>Node2</title>
<g id="a_Node000002"><a xlink:href="classnet_1_1in_1_1stream_1_1config_1_1ConfigSocketServer.html#abb531f44f5b9fcf033c469d7b1c64825" target="_top" xlink:title=" ">
<polygon fill="white" stroke="#666666" points="146,-277 30,-277 30,-236 146,-236 146,-277"/>
<text text-anchor="start" x="38" y="-265" font-family="Helvetica,sans-Serif" font-size="10.00">net::in::stream::config</text>
<text text-anchor="start" x="38" y="-254" font-family="Helvetica,sans-Serif" font-size="10.00">::ConfigSocketServer::</text>
<text text-anchor="middle" x="88" y="-243" font-family="Helvetica,sans-Serif" font-size="10.00">ConfigSocketServer</text>
</a>
</g>
</g>
<!-- Node1&#45;&gt;Node2 -->
<g id="edge1_Node000001_Node000002" class="edge">
<title>Node1&#45;&gt;Node2</title>
<g id="a_edge1_Node000001_Node000002"><a xlink:title=" ">
<path fill="none" stroke="#63b8ff" d="M243.37,-166.95C226.59,-186.38 202.17,-211.43 176,-227.5 166.91,-233.08 156.62,-237.73 146.38,-241.55"/>
<polygon fill="#63b8ff" stroke="#63b8ff" points="246.07,-169.17 249.85,-159.27 240.72,-164.65 246.07,-169.17"/>
</a>
</g>
</g>
<!-- Node3 -->
<g id="Node000003" class="node">
<title>Node3</title>
<g id="a_Node000003"><a xlink:href="classnet_1_1in6_1_1stream_1_1config_1_1ConfigSocketServer.html#ada639af200e3e2d9c02d657e9c5e2489" target="_top" xlink:title=" ">
<polygon fill="white" stroke="#666666" points="176,-218 0,-218 0,-177 176,-177 176,-218"/>
<text text-anchor="start" x="8" y="-206" font-family="Helvetica,sans-Serif" font-size="10.00">net::in6::stream::config</text>
<text text-anchor="start" x="8" y="-195" font-family="Helvetica,sans-Serif" font-size="10.00">::ConfigSocketServer::ConfigSocket</text>
<text text-anchor="middle" x="88" y="-184" font-family="Helvetica,sans-Serif" font-size="10.00">Server</text>
</a>
</g>
</g>
<!-- Node1&#45;&gt;Node3 -->
<g id="edge2_Node000001_Node000003" class="edge">
<title>Node1&#45;&gt;Node3</title>
<g id="a_edge2_Node000001_Node000003"><a xlink:title=" ">
<path fill="none" stroke="#63b8ff" d="M202.24,-159.75C185.48,-165.34 167.44,-171.35 150.79,-176.9"/>
<polygon fill="#63b8ff" stroke="#63b8ff" points="203.55,-163.01 211.93,-156.52 201.34,-156.36 203.55,-163.01"/>
</a>
</g>
</g>
<!-- Node4 -->
<g id="Node000004" class="node">
<title>Node4</title>
<g id="a_Node000004"><a xlink:href="classnet_1_1l2_1_1stream_1_1config_1_1ConfigSocketServer.html#ac2a0a1b1dc9e0e7fbbd66133025125a7" target="_top" xlink:title=" ">
<polygon fill="white" stroke="#666666" points="146,-159 30,-159 30,-118 146,-118 146,-159"/>
<text text-anchor="start" x="38" y="-147" font-family="Helvetica,sans-Serif" font-size="10.00">net::l2::stream::config</text>
<text text-anchor="start" x="38" y="-136" font-family="Helvetica,sans-Serif" font-size="10.00">::ConfigSocketServer::</text>
<text text-anchor="middle" x="88" y="-125" font-family="Helvetica,sans-Serif" font-size="10.00">ConfigSocketServer</text>
</a>
</g>
</g>
<!-- Node1&#45;&gt;Node4 -->
<g id="edge3_Node000001_Node000004" class="edge">
<title>Node1&#45;&gt;Node4</title>
<g id="a_edge3_Node000001_Node000004"><a xlink:title=" ">
<path fill="none" stroke="#63b8ff" d="M201.71,-138.5C183.52,-138.5 163.85,-138.5 146.11,-138.5"/>
<polygon fill="#63b8ff" stroke="#63b8ff" points="201.93,-142 211.93,-138.5 201.93,-135 201.93,-142"/>
</a>
</g>
</g>
<!-- Node5 -->
<g id="Node000005" class="node">
<title>Node5</title>
<g id="a_Node000005"><a xlink:href="classnet_1_1rc_1_1stream_1_1config_1_1ConfigSocketServer.html#ae435f1158f44f11184732661ca2b2e4f" target="_top" xlink:title=" ">
<polygon fill="white" stroke="#666666" points="146,-100 30,-100 30,-59 146,-59 146,-100"/>
<text text-anchor="start" x="38" y="-88" font-family="Helvetica,sans-Serif" font-size="10.00">net::rc::stream::config</text>
<text text-anchor="start" x="38" y="-77" font-family="Helvetica,sans-Serif" font-size="10.00">::ConfigSocketServer::</text>
<text text-anchor="middle" x="88" y="-66" font-family="Helvetica,sans-Serif" font-size="10.00">ConfigSocketServer</text>
</a>
</g>
</g>
<!-- Node1&#45;&gt;Node5 -->
<g id="edge4_Node000001_Node000005" class="edge">
<title>Node1&#45;&gt;Node5</title>
<g id="a_edge4_Node000001_Node000005"><a xlink:title=" ">
<path fill="none" stroke="#63b8ff" d="M202.22,-117.24C183.88,-111.13 164.01,-104.5 146.11,-98.54"/>
<polygon fill="#63b8ff" stroke="#63b8ff" points="201.34,-120.64 211.93,-120.48 203.55,-113.99 201.34,-120.64"/>
</a>
</g>
</g>
<!-- Node6 -->
<g id="Node000006" class="node">
<title>Node6</title>
<g id="a_Node000006"><a xlink:href="classnet_1_1un_1_1stream_1_1config_1_1ConfigSocketServer.html#a58f1869db4e2c9157b8b833ea633dc55" target="_top" xlink:title=" ">
<polygon fill="white" stroke="#666666" points="146,-41 30,-41 30,0 146,0 146,-41"/>
<text text-anchor="start" x="38" y="-29" font-family="Helvetica,sans-Serif" font-size="10.00">net::un::stream::config</text>
<text text-anchor="start" x="38" y="-18" font-family="Helvetica,sans-Serif" font-size="10.00">::ConfigSocketServer::</text>
<text text-anchor="middle" x="88" y="-7" font-family="Helvetica,sans-Serif" font-size="10.00">ConfigSocketServer</text>
</a>
</g>
</g>
<!-- Node1&#45;&gt;Node6 -->
<g id="edge5_Node000001_Node000006" class="edge">
<title>Node1&#45;&gt;Node6</title>
<g id="a_edge5_Node000001_Node000006"><a xlink:title=" ">
<path fill="none" stroke="#63b8ff" d="M242.71,-109.85C225.9,-90.76 201.71,-66.37 176,-50.5 166.89,-44.88 156.59,-40.14 146.35,-36.22"/>
<polygon fill="#63b8ff" stroke="#63b8ff" points="240.27,-112.37 249.45,-117.66 245.57,-107.8 240.27,-112.37"/>
</a>
</g>
</g>
</g>
</svg>
