<?xml version="1.0" encoding="UTF-8" standalone="no"?>
<!DOCTYPE svg PUBLIC "-//W3C//DTD SVG 1.1//EN"
 "http://www.w3.org/Graphics/SVG/1.1/DTD/svg11.dtd">
<!-- Generated by graphviz version 2.42.4 (0)
 -->
<!-- Title: iot::mqtt::SubProtocol::getSocketConnection Pages: 1 -->
<svg width="291pt" height="326pt"
 viewBox="0.00 0.00 291.00 326.00" xmlns="http://www.w3.org/2000/svg" xmlns:xlink="http://www.w3.org/1999/xlink">
<g id="graph0" class="graph" transform="scale(1 1) rotate(0) translate(4 322)">
<title>iot::mqtt::SubProtocol::getSocketConnection</title>
<!-- Node1 -->
<g id="Node000001" class="node">
<title>Node1</title>
<g id="a_Node000001"><a xlink:title=" ">
<polygon fill="#999999" stroke="#666666" points="283,-174 158,-174 158,-144 283,-144 283,-174"/>
<text text-anchor="start" x="166" y="-162" font-family="Helvetica,sans-Serif" font-size="10.00">iot::mqtt::SubProtocol</text>
<text text-anchor="middle" x="220.5" y="-151" font-family="Helvetica,sans-Serif" font-size="10.00">::getSocketConnection</text>
</a>
</g>
</g>
<!-- Node2 -->
<g id="Node000002" class="node">
<title>Node2</title>
<g id="a_Node000002"><a xlink:href="classiot_1_1mqtt_1_1SubProtocol.html#a26ddb43046e7cf3765e3048030b0b68e" target="_top" xlink:title=" ">
<polygon fill="white" stroke="#666666" points="122,-318 0,-318 0,-288 122,-288 122,-318"/>
<text text-anchor="start" x="8" y="-306" font-family="Helvetica,sans-Serif" font-size="10.00">iot::mqtt::SubProtocol</text>
<text text-anchor="middle" x="61" y="-295" font-family="Helvetica,sans-Serif" font-size="10.00">::onConnected</text>
</a>
</g>
</g>
<!-- Node1&#45;&gt;Node2 -->
<g id="edge1_Node000001_Node000002" class="edge">
<title>Node1&#45;&gt;Node2</title>
<g id="a_edge1_Node000001_Node000002"><a xlink:title=" ">
<path fill="none" stroke="#63b8ff" d="M205.24,-183.09C188.37,-209.77 157.97,-252.53 122,-279 117.48,-282.33 112.44,-285.27 107.25,-287.85"/>
<polygon fill="#63b8ff" stroke="#63b8ff" points="208.35,-184.72 210.64,-174.37 202.4,-181.03 208.35,-184.72"/>
</a>
</g>
</g>
<!-- Node3 -->
<g id="Node000003" class="node">
<title>Node3</title>
<g id="a_Node000003"><a xlink:href="classiot_1_1mqtt_1_1SubProtocol.html#a114a1b2571f3c0f95289db366eb05aa2" target="_top" xlink:title=" ">
<polygon fill="white" stroke="#666666" points="122,-270 0,-270 0,-240 122,-240 122,-270"/>
<text text-anchor="start" x="8" y="-258" font-family="Helvetica,sans-Serif" font-size="10.00">iot::mqtt::SubProtocol</text>
<text text-anchor="middle" x="61" y="-247" font-family="Helvetica,sans-Serif" font-size="10.00">::onDisconnected</text>
</a>
</g>
</g>
<!-- Node1&#45;&gt;Node3 -->
<g id="edge2_Node000001_Node000003" class="edge">
<title>Node1&#45;&gt;Node3</title>
<g id="a_edge2_Node000001_Node000003"><a xlink:title=" ">
<path fill="none" stroke="#63b8ff" d="M193.89,-180.75C174.91,-196.15 147.94,-216.55 122,-231 116.22,-234.22 109.91,-237.23 103.64,-239.96"/>
<polygon fill="#63b8ff" stroke="#63b8ff" points="196.26,-183.34 201.76,-174.28 191.81,-177.93 196.26,-183.34"/>
</a>
</g>
</g>
<!-- Node4 -->
<g id="Node000004" class="node">
<title>Node4</title>
<g id="a_Node000004"><a xlink:href="classiot_1_1mqtt_1_1SubProtocol.html#aba7ffa070ca2bda95106009a70e1becb" target="_top" xlink:title=" ">
<polygon fill="white" stroke="#666666" points="122,-222 0,-222 0,-192 122,-192 122,-222"/>
<text text-anchor="start" x="8" y="-210" font-family="Helvetica,sans-Serif" font-size="10.00">iot::mqtt::SubProtocol</text>
<text text-anchor="middle" x="61" y="-199" font-family="Helvetica,sans-Serif" font-size="10.00">::onMessageData</text>
</a>
</g>
</g>
<!-- Node1&#45;&gt;Node4 -->
<g id="edge3_Node000001_Node000004" class="edge">
<title>Node1&#45;&gt;Node4</title>
<g id="a_edge3_Node000001_Node000004"><a xlink:title=" ">
<path fill="none" stroke="#63b8ff" d="M160.22,-177.07C144.07,-181.99 126.75,-187.27 111.23,-192"/>
<polygon fill="#63b8ff" stroke="#63b8ff" points="161.55,-180.32 170.1,-174.06 159.51,-173.62 161.55,-180.32"/>
</a>
</g>
</g>
<!-- Node5 -->
<g id="Node000005" class="node">
<title>Node5</title>
<g id="a_Node000005"><a xlink:href="classiot_1_1mqtt_1_1SubProtocol.html#ad05d4435c7512624bb216d72b54e2eae" target="_top" xlink:title=" ">
<polygon fill="white" stroke="#666666" points="122,-174 0,-174 0,-144 122,-144 122,-174"/>
<text text-anchor="start" x="8" y="-162" font-family="Helvetica,sans-Serif" font-size="10.00">iot::mqtt::SubProtocol</text>
<text text-anchor="middle" x="61" y="-151" font-family="Helvetica,sans-Serif" font-size="10.00">::onMessageEnd</text>
</a>
</g>
</g>
<!-- Node1&#45;&gt;Node5 -->
<g id="edge4_Node000001_Node000005" class="edge">
<title>Node1&#45;&gt;Node5</title>
<g id="a_edge4_Node000001_Node000005"><a xlink:title=" ">
<path fill="none" stroke="#63b8ff" d="M147.43,-159C138.95,-159 130.36,-159 122.07,-159"/>
<polygon fill="#63b8ff" stroke="#63b8ff" points="147.7,-162.5 157.7,-159 147.7,-155.5 147.7,-162.5"/>
</a>
</g>
</g>
<!-- Node6 -->
<g id="Node000006" class="node">
<title>Node6</title>
<g id="a_Node000006"><a xlink:href="classiot_1_1mqtt_1_1SubProtocol.html#a0dbc9da88938607df28f3af7a105d583" target="_top" xlink:title=" ">
<polygon fill="white" stroke="#666666" points="122,-126 0,-126 0,-96 122,-96 122,-126"/>
<text text-anchor="start" x="8" y="-114" font-family="Helvetica,sans-Serif" font-size="10.00">iot::mqtt::SubProtocol</text>
<text text-anchor="middle" x="61" y="-103" font-family="Helvetica,sans-Serif" font-size="10.00">::onMessageError</text>
</a>
</g>
</g>
<!-- Node1&#45;&gt;Node6 -->
<g id="edge5_Node000001_Node000006" class="edge">
<title>Node1&#45;&gt;Node6</title>
<g id="a_edge5_Node000001_Node000006"><a xlink:title=" ">
<path fill="none" stroke="#63b8ff" d="M160.22,-140.93C144.07,-136.01 126.75,-130.73 111.23,-126"/>
<polygon fill="#63b8ff" stroke="#63b8ff" points="159.51,-144.38 170.1,-143.94 161.55,-137.68 159.51,-144.38"/>
</a>
</g>
</g>
<!-- Node7 -->
<g id="Node000007" class="node">
<title>Node7</title>
<g id="a_Node000007"><a xlink:href="classiot_1_1mqtt_1_1SubProtocol.html#ad164180dcd4d3659dec3172c155aaeff" target="_top" xlink:title=" ">
<polygon fill="white" stroke="#666666" points="122,-78 0,-78 0,-48 122,-48 122,-78"/>
<text text-anchor="start" x="8" y="-66" font-family="Helvetica,sans-Serif" font-size="10.00">iot::mqtt::SubProtocol</text>
<text text-anchor="middle" x="61" y="-55" font-family="Helvetica,sans-Serif" font-size="10.00">::onMessageStart</text>
</a>
</g>
</g>
<!-- Node1&#45;&gt;Node7 -->
<g id="edge6_Node000001_Node000007" class="edge">
<title>Node1&#45;&gt;Node7</title>
<g id="a_edge6_Node000001_Node000007"><a xlink:title=" ">
<path fill="none" stroke="#63b8ff" d="M193.89,-137.25C174.91,-121.85 147.94,-101.45 122,-87 116.22,-83.78 109.91,-80.77 103.64,-78.04"/>
<polygon fill="#63b8ff" stroke="#63b8ff" points="191.81,-140.07 201.76,-143.72 196.26,-134.66 191.81,-140.07"/>
</a>
</g>
</g>
<!-- Node8 -->
<g id="Node000008" class="node">
<title>Node8</title>
<g id="a_Node000008"><a xlink:href="classiot_1_1mqtt_1_1SubProtocol.html#a0e719a29942ab0abb4fad152e56f462a" target="_top" xlink:title=" ">
<polygon fill="white" stroke="#666666" points="122,-30 0,-30 0,0 122,0 122,-30"/>
<text text-anchor="start" x="8" y="-18" font-family="Helvetica,sans-Serif" font-size="10.00">iot::mqtt::SubProtocol</text>
<text text-anchor="middle" x="61" y="-7" font-family="Helvetica,sans-Serif" font-size="10.00">::onSignal</text>
</a>
</g>
</g>
<!-- Node1&#45;&gt;Node8 -->
<g id="edge7_Node000001_Node000008" class="edge">
<title>Node1&#45;&gt;Node8</title>
<g id="a_edge7_Node000001_Node000008"><a xlink:title=" ">
<path fill="none" stroke="#63b8ff" d="M205.24,-134.91C188.37,-108.23 157.97,-65.47 122,-39 117.48,-35.67 112.44,-32.73 107.25,-30.15"/>
<polygon fill="#63b8ff" stroke="#63b8ff" points="202.4,-136.97 210.64,-143.63 208.35,-133.28 202.4,-136.97"/>
</a>
</g>
</g>
</g>
</svg>
