<?xml version="1.0" encoding="UTF-8" standalone="no"?>
<!DOCTYPE svg PUBLIC "-//W3C//DTD SVG 1.1//EN"
 "http://www.w3.org/Graphics/SVG/1.1/DTD/svg11.dtd">
<!-- Generated by graphviz version 2.42.4 (0)
 -->
<!-- Title: iot::mqtt::Mqtt::onReceivedFromPeer Pages: 1 -->
<svg width="660pt" height="182pt"
 viewBox="0.00 0.00 660.00 182.00" xmlns="http://www.w3.org/2000/svg" xmlns:xlink="http://www.w3.org/1999/xlink">
<g id="graph0" class="graph" transform="scale(1 1) rotate(0) translate(4 178)">
<title>iot::mqtt::Mqtt::onReceivedFromPeer</title>
<!-- Node1 -->
<g id="Node000001" class="node">
<title>Node1</title>
<g id="a_Node000001"><a xlink:title=" ">
<polygon fill="#999999" stroke="#666666" points="150,-102 0,-102 0,-72 150,-72 150,-102"/>
<text text-anchor="start" x="8" y="-90" font-family="Helvetica,sans-Serif" font-size="10.00">iot::mqtt::Mqtt::onReceived</text>
<text text-anchor="middle" x="75" y="-79" font-family="Helvetica,sans-Serif" font-size="10.00">FromPeer</text>
</a>
</g>
</g>
<!-- Node2 -->
<g id="Node000002" class="node">
<title>Node2</title>
<g id="a_Node000002"><a xlink:href="classiot_1_1mqtt_1_1FixedHeader.html#adb3ab0929d3aa769fb7c55057d051700" target="_top" xlink:title=" ">
<polygon fill="white" stroke="#666666" points="311,-102 186,-102 186,-72 311,-72 311,-102"/>
<text text-anchor="start" x="194" y="-90" font-family="Helvetica,sans-Serif" font-size="10.00">iot::mqtt::FixedHeader</text>
<text text-anchor="middle" x="248.5" y="-79" font-family="Helvetica,sans-Serif" font-size="10.00">::deserialize</text>
</a>
</g>
</g>
<!-- Node1&#45;&gt;Node2 -->
<g id="edge1_Node000001_Node000002" class="edge">
<title>Node1&#45;&gt;Node2</title>
<g id="a_edge1_Node000001_Node000002"><a xlink:title=" ">
<path fill="none" stroke="#63b8ff" d="M150.22,-87C158.66,-87 167.24,-87 175.64,-87"/>
<polygon fill="#63b8ff" stroke="#63b8ff" points="175.77,-90.5 185.77,-87 175.77,-83.5 175.77,-90.5"/>
</a>
</g>
</g>
<!-- Node3 -->
<g id="Node000003" class="node">
<title>Node3</title>
<g id="a_Node000003"><a xlink:href="classiot_1_1mqtt_1_1types_1_1TypeBase.html#aa3a0e0e868be87764c87378e27f2818a" target="_top" xlink:title=" ">
<polygon fill="white" stroke="#666666" points="491,-174 347,-174 347,-144 491,-144 491,-174"/>
<text text-anchor="start" x="355" y="-162" font-family="Helvetica,sans-Serif" font-size="10.00">iot::mqtt::types::TypeBase</text>
<text text-anchor="middle" x="419" y="-151" font-family="Helvetica,sans-Serif" font-size="10.00">::deserialize</text>
</a>
</g>
</g>
<!-- Node2&#45;&gt;Node3 -->
<g id="edge2_Node000002_Node000003" class="edge">
<title>Node2&#45;&gt;Node3</title>
<g id="a_edge2_Node000002_Node000003"><a xlink:title=" ">
<path fill="none" stroke="#63b8ff" d="M277.63,-102.08C296.87,-112.08 323.11,-125.13 347,-135 351.5,-136.86 356.2,-138.69 360.94,-140.45"/>
<polygon fill="#63b8ff" stroke="#63b8ff" points="360.11,-143.87 370.7,-143.98 362.49,-137.29 360.11,-143.87"/>
</a>
</g>
</g>
<!-- Node5 -->
<g id="Node000005" class="node">
<title>Node5</title>
<g id="a_Node000005"><a xlink:href="classiot_1_1mqtt_1_1types_1_1UIntV.html#a393422e75264b443c5d2481f2c23e30b" target="_top" xlink:title=" ">
<polygon fill="white" stroke="#666666" points="481.5,-126 356.5,-126 356.5,-96 481.5,-96 481.5,-126"/>
<text text-anchor="start" x="364.5" y="-114" font-family="Helvetica,sans-Serif" font-size="10.00">iot::mqtt::types::UIntV</text>
<text text-anchor="middle" x="419" y="-103" font-family="Helvetica,sans-Serif" font-size="10.00">::deserialize</text>
</a>
</g>
</g>
<!-- Node2&#45;&gt;Node5 -->
<g id="edge4_Node000002_Node000005" class="edge">
<title>Node2&#45;&gt;Node5</title>
<g id="a_edge4_Node000002_Node000005"><a xlink:title=" ">
<path fill="none" stroke="#63b8ff" d="M311.29,-95.8C322.62,-97.41 334.54,-99.11 346.13,-100.76"/>
<polygon fill="#63b8ff" stroke="#63b8ff" points="345.83,-104.26 356.22,-102.2 346.81,-97.33 345.83,-104.26"/>
</a>
</g>
</g>
<!-- Node6 -->
<g id="Node000006" class="node">
<title>Node6</title>
<g id="a_Node000006"><a xlink:href="classiot_1_1mqtt_1_1types_1_1TypeBase.html#a4a7c0fd8cae9084005a1ef4424dfde34" target="_top" xlink:title=" ">
<polygon fill="white" stroke="#666666" points="491,-78 347,-78 347,-48 491,-48 491,-78"/>
<text text-anchor="start" x="355" y="-66" font-family="Helvetica,sans-Serif" font-size="10.00">iot::mqtt::types::TypeBase</text>
<text text-anchor="middle" x="419" y="-55" font-family="Helvetica,sans-Serif" font-size="10.00">::isComplete</text>
</a>
</g>
</g>
<!-- Node2&#45;&gt;Node6 -->
<g id="edge6_Node000002_Node000006" class="edge">
<title>Node2&#45;&gt;Node6</title>
<g id="a_edge6_Node000002_Node000006"><a xlink:title=" ">
<path fill="none" stroke="#63b8ff" d="M311.29,-78.2C319.59,-77.02 328.21,-75.79 336.78,-74.57"/>
<polygon fill="#63b8ff" stroke="#63b8ff" points="337.4,-78.02 346.81,-73.14 336.42,-71.08 337.4,-78.02"/>
</a>
</g>
</g>
<!-- Node7 -->
<g id="Node000007" class="node">
<title>Node7</title>
<g id="a_Node000007"><a xlink:href="classiot_1_1mqtt_1_1types_1_1UIntV.html#a4d7c718f2a677bc6c2961686f206724b" target="_top" xlink:title=" ">
<polygon fill="white" stroke="#666666" points="481.5,-30 356.5,-30 356.5,0 481.5,0 481.5,-30"/>
<text text-anchor="start" x="364.5" y="-18" font-family="Helvetica,sans-Serif" font-size="10.00">iot::mqtt::types::UIntV</text>
<text text-anchor="middle" x="419" y="-7" font-family="Helvetica,sans-Serif" font-size="10.00">::isError</text>
</a>
</g>
</g>
<!-- Node2&#45;&gt;Node7 -->
<g id="edge7_Node000002_Node000007" class="edge">
<title>Node2&#45;&gt;Node7</title>
<g id="a_edge7_Node000002_Node000007"><a xlink:title=" ">
<path fill="none" stroke="#63b8ff" d="M277.63,-71.92C296.87,-61.92 323.11,-48.87 347,-39 351.5,-37.14 356.2,-35.31 360.94,-33.55"/>
<polygon fill="#63b8ff" stroke="#63b8ff" points="362.49,-36.71 370.7,-30.02 360.11,-30.13 362.49,-36.71"/>
</a>
</g>
</g>
<!-- Node4 -->
<g id="Node000004" class="node">
<title>Node4</title>
<g id="a_Node000004"><a xlink:href="classiot_1_1mqtt_1_1MqttContext.html#a319ea16029337ef5b2f08b51d5b26d1a" target="_top" xlink:title=" ">
<polygon fill="white" stroke="#666666" points="652,-150 527,-150 527,-120 652,-120 652,-150"/>
<text text-anchor="start" x="535" y="-138" font-family="Helvetica,sans-Serif" font-size="10.00">iot::mqtt::MqttContext</text>
<text text-anchor="middle" x="589.5" y="-127" font-family="Helvetica,sans-Serif" font-size="10.00">::recv</text>
</a>
</g>
</g>
<!-- Node3&#45;&gt;Node4 -->
<g id="edge3_Node000003_Node000004" class="edge">
<title>Node3&#45;&gt;Node4</title>
<g id="a_edge3_Node000003_Node000004"><a xlink:title=" ">
<path fill="none" stroke="#63b8ff" d="M491.46,-148.82C499.81,-147.63 508.34,-146.42 516.7,-145.23"/>
<polygon fill="#63b8ff" stroke="#63b8ff" points="517.38,-148.67 526.79,-143.79 516.39,-141.74 517.38,-148.67"/>
</a>
</g>
</g>
<!-- Node5&#45;&gt;Node4 -->
<g id="edge5_Node000005_Node000004" class="edge">
<title>Node5&#45;&gt;Node4</title>
<g id="a_edge5_Node000005_Node000004"><a xlink:title=" ">
<path fill="none" stroke="#63b8ff" d="M481.79,-119.8C493.12,-121.41 505.04,-123.11 516.63,-124.76"/>
<polygon fill="#63b8ff" stroke="#63b8ff" points="516.33,-128.26 526.72,-126.2 517.31,-121.33 516.33,-128.26"/>
</a>
</g>
</g>
</g>
</svg>
