<?xml version="1.0" encoding="UTF-8" standalone="no"?>
<!DOCTYPE svg PUBLIC "-//W3C//DTD SVG 1.1//EN"
 "http://www.w3.org/Graphics/SVG/1.1/DTD/svg11.dtd">
<!-- Generated by graphviz version 2.42.4 (0)
 -->
<!-- Title: iot::mqtt::client::packets::Connack Pages: 1 -->
<svg width="411pt" height="369pt"
 viewBox="0.00 0.00 411.00 369.00" xmlns="http://www.w3.org/2000/svg" xmlns:xlink="http://www.w3.org/1999/xlink">

<svg id="main" version="1.1" xmlns="http://www.w3.org/2000/svg" xmlns:xlink="http://www.w3.org/1999/xlink" xml:space="preserve">

<style type="text/css"><![CDATA[
.node, .edge {opacity: 0.7;}
.node.selected, .edge.selected {opacity: 1;}
.edge:hover path { stroke: red; }
.edge:hover polygon { stroke: red; fill: red; }
]]></style>
<script type="application/ecmascript" xlink:href="svg.min.js"/>
<svg id="graph" class="graph">
<g id="graph0" class="graph" transform="scale(1 1) rotate(0) translate(4 365)">
<title>iot::mqtt::client::packets::Connack</title>
<!-- Node1 -->
<g id="Node000001" class="node">
<title>Node1</title>
<g id="a_Node000001"><a xlink:title=" ">
<polygon fill="#999999" stroke="transparent" points="313,-30 219,-30 219,0 313,0 313,-30"/>
<text text-anchor="start" x="223" y="-18" font-family="Helvetica,sans-Serif" font-size="10.00">iot::mqtt::client::</text>
<text text-anchor="start" x="223" y="-7" font-family="Helvetica,sans-Serif" font-size="10.00">packets::Connack</text>
<polygon fill="none" stroke="#666666" points="219,0 219,-30 313,-30 313,0 219,0"/>
</a>
</g>
</g>
<!-- Node2 -->
<g id="Node000002" class="node">
<title>Node2</title>
<g id="a_Node000002"><a xlink:href="classiot_1_1mqtt_1_1packets_1_1Connack.html" target="_top" xlink:title=" ">
<polygon fill="white" stroke="transparent" points="247,-97 153,-97 153,-67 247,-67 247,-97"/>
<text text-anchor="start" x="157" y="-85" font-family="Helvetica,sans-Serif" font-size="10.00">iot::mqtt::packets</text>
<text text-anchor="start" x="175.5" y="-74" font-family="Helvetica,sans-Serif" font-size="10.00">::Connack</text>
<polygon fill="none" stroke="#666666" points="153,-67 153,-97 247,-97 247,-67 153,-67"/>
</a>
</g>
</g>
<!-- Node2&#45;&gt;Node1 -->
<g id="edge1_Node000001_Node000002" class="edge">
<title>Node2&#45;&gt;Node1</title>
<g id="a_edge1_Node000001_Node000002"><a xlink:title=" ">
<path fill="none" stroke="#63b8ff" d="M221.51,-59.81C231.41,-50.06 242.89,-38.76 251.71,-30.08"/>
<polygon fill="none" stroke="#63b8ff" points="218.99,-57.39 214.32,-66.9 223.9,-62.37 218.99,-57.39"/>
</a>
</g>
</g>
<!-- Node3 -->
<g id="Node000003" class="node">
<title>Node3</title>
<g id="a_Node000003"><a xlink:href="classiot_1_1mqtt_1_1ControlPacket.html" target="_top" xlink:title=" ">
<polygon fill="white" stroke="transparent" points="124,-189.5 0,-189.5 0,-170.5 124,-170.5 124,-189.5"/>
<text text-anchor="start" x="4" y="-177" font-family="Helvetica,sans-Serif" font-size="10.00">iot::mqtt::ControlPacket</text>
<polygon fill="none" stroke="#666666" points="0,-170.5 0,-189.5 124,-189.5 124,-170.5 0,-170.5"/>
</a>
</g>
</g>
<!-- Node3&#45;&gt;Node2 -->
<g id="edge2_Node000002_Node000003" class="edge">
<title>Node3&#45;&gt;Node2</title>
<g id="a_edge2_Node000002_Node000003"><a xlink:title=" ">
<path fill="none" stroke="#63b8ff" d="M82.66,-164.63C108.81,-146.43 153.59,-115.29 179.61,-97.18"/>
<polygon fill="none" stroke="#63b8ff" points="80.46,-161.9 74.25,-170.48 84.45,-167.64 80.46,-161.9"/>
</a>
</g>
</g>
<!-- Node4 -->
<g id="Node000004" class="node">
<title>Node4</title>
<g id="a_Node000004"><a xlink:title=" ">
<polygon fill="white" stroke="transparent" points="91,-272.5 33,-272.5 33,-253.5 91,-253.5 91,-272.5"/>
<text text-anchor="start" x="37.5" y="-260" font-family="Helvetica,sans-Serif" font-size="10.00">std::string</text>
<polygon fill="none" stroke="#666666" points="33,-253.5 33,-272.5 91,-272.5 91,-253.5 33,-253.5"/>
</a>
</g>
</g>
<!-- Node4&#45;&gt;Node3 -->
<g id="edge3_Node000003_Node000004" class="edge">
<title>Node4&#45;&gt;Node3</title>
<g id="a_edge3_Node000003_Node000004"><a xlink:title=" ">
<path fill="none" stroke="#63b8ff" d="M62,-253.33C62,-241.22 62,-218.83 62,-202.16"/>
<polygon fill="none" stroke="#63b8ff" points="62,-201.85 58,-195.85 62,-189.85 66,-195.85 62,-201.85"/>
</a>
</g>
<text text-anchor="start" x="65" y="-218.5" font-family="Helvetica,sans-Serif" font-size="10.00" fill="grey">&#45;name</text>
</g>
<!-- Node5 -->
<g id="Node000005" class="node">
<title>Node5</title>
<g id="a_Node000005"><a xlink:title=" ">
<polygon fill="white" stroke="transparent" points="110,-361 14,-361 14,-331 110,-331 110,-361"/>
<text text-anchor="start" x="18" y="-349" font-family="Helvetica,sans-Serif" font-size="10.00">std::basic_string&lt;</text>
<text text-anchor="start" x="43.5" y="-338" font-family="Helvetica,sans-Serif" font-size="10.00"> Char &gt;</text>
<polygon fill="none" stroke="#666666" points="14,-331 14,-361 110,-361 110,-331 14,-331"/>
</a>
</g>
</g>
<!-- Node5&#45;&gt;Node4 -->
<g id="edge4_Node000004_Node000005" class="edge">
<title>Node5&#45;&gt;Node4</title>
<g id="a_edge4_Node000004_Node000005"><a xlink:title=" ">
<path fill="none" stroke="#63b8ff" d="M62,-320.55C62,-304.45 62,-284.32 62,-272.94"/>
<polygon fill="none" stroke="#63b8ff" points="58.5,-320.89 62,-330.89 65.5,-320.89 58.5,-320.89"/>
</a>
</g>
</g>
<!-- Node6 -->
<g id="Node000006" class="node">
<title>Node6</title>
<g id="a_Node000006"><a xlink:href="classiot_1_1mqtt_1_1types_1_1UInt8.html" target="_top" xlink:title=" ">
<polygon fill="white" stroke="transparent" points="258,-189.5 142,-189.5 142,-170.5 258,-170.5 258,-189.5"/>
<text text-anchor="start" x="146" y="-177" font-family="Helvetica,sans-Serif" font-size="10.00">iot::mqtt::types::UInt8</text>
<polygon fill="none" stroke="#666666" points="142,-170.5 142,-189.5 258,-189.5 258,-170.5 142,-170.5"/>
</a>
</g>
</g>
<!-- Node6&#45;&gt;Node2 -->
<g id="edge5_Node000002_Node000006" class="edge">
<title>Node6&#45;&gt;Node2</title>
<g id="a_edge5_Node000002_Node000006"><a xlink:title=" ">
<path fill="none" stroke="#63b8ff" d="M200,-170.48C200,-156.93 200,-129.91 200,-109.46"/>
<polygon fill="none" stroke="#63b8ff" points="200,-109.18 196,-103.18 200,-97.18 204,-103.18 200,-109.18"/>
</a>
</g>
<text text-anchor="start" x="203" y="-136" font-family="Helvetica,sans-Serif" font-size="10.00" fill="grey">#acknowledgeFlags</text>
<text text-anchor="start" x="203" y="-121" font-family="Helvetica,sans-Serif" font-size="10.00" fill="grey">#returnCode</text>
</g>
<!-- Node7 -->
<g id="Node000007" class="node">
<title>Node7</title>
<g id="a_Node000007"><a xlink:href="classiot_1_1mqtt_1_1types_1_1TypeBase.html" target="_top" xlink:title=" ">
<polygon fill="white" stroke="transparent" points="268,-278 132,-278 132,-248 268,-248 268,-278"/>
<text text-anchor="start" x="136" y="-266" font-family="Helvetica,sans-Serif" font-size="10.00">iot::mqtt::types::TypeBase</text>
<text text-anchor="start" x="171.5" y="-255" font-family="Helvetica,sans-Serif" font-size="10.00">&lt; uint8_t &gt;</text>
<polygon fill="none" stroke="#666666" points="132,-248 132,-278 268,-278 268,-248 132,-248"/>
</a>
</g>
</g>
<!-- Node7&#45;&gt;Node6 -->
<g id="edge6_Node000006_Node000007" class="edge">
<title>Node7&#45;&gt;Node6</title>
<g id="a_edge6_Node000006_Node000007"><a xlink:title=" ">
<path fill="none" stroke="#63b8ff" d="M200,-237.55C200,-221.45 200,-201.32 200,-189.94"/>
<polygon fill="none" stroke="#63b8ff" points="196.5,-237.89 200,-247.89 203.5,-237.89 196.5,-237.89"/>
</a>
</g>
</g>
<!-- Node8 -->
<g id="Node000008" class="node">
<title>Node8</title>
<g id="a_Node000008"><a xlink:title=" ">
<polygon fill="white" stroke="transparent" points="252,-355.5 148,-355.5 148,-336.5 252,-336.5 252,-355.5"/>
<text text-anchor="start" x="152" y="-343" font-family="Helvetica,sans-Serif" font-size="10.00">std::vector&lt; char &gt;</text>
<polygon fill="none" stroke="#666666" points="148,-336.5 148,-355.5 252,-355.5 252,-336.5 148,-336.5"/>
</a>
</g>
</g>
<!-- Node8&#45;&gt;Node7 -->
<g id="edge7_Node000007_Node000008" class="edge">
<title>Node8&#45;&gt;Node7</title>
<g id="a_edge7_Node000007_Node000008"><a xlink:title=" ">
<path fill="none" stroke="#63b8ff" d="M200,-336.33C200,-325.43 200,-306.21 200,-290.32"/>
<polygon fill="none" stroke="#63b8ff" points="200,-290.01 196,-284.01 200,-278.01 204,-284.01 200,-290.01"/>
</a>
</g>
<text text-anchor="start" x="203" y="-301.5" font-family="Helvetica,sans-Serif" font-size="10.00" fill="grey">#value</text>
</g>
<!-- Node9 -->
<g id="Node000009" class="node">
<title>Node9</title>
<g id="a_Node000009"><a xlink:href="classiot_1_1mqtt_1_1client_1_1ControlPacketDeserializer.html" target="_top" xlink:title=" ">
<polygon fill="white" stroke="transparent" points="403,-97 267,-97 267,-67 403,-67 403,-97"/>
<text text-anchor="start" x="271.5" y="-85" font-family="Helvetica,sans-Serif" font-size="10.00">iot::mqtt::client::</text>
<text text-anchor="start" x="271.5" y="-74" font-family="Helvetica,sans-Serif" font-size="10.00">ControlPacketDeserializer</text>
<polygon fill="none" stroke="#666666" points="267,-67 267,-97 403,-97 403,-67 267,-67"/>
</a>
</g>
</g>
<!-- Node9&#45;&gt;Node1 -->
<g id="edge8_Node000001_Node000009" class="edge">
<title>Node9&#45;&gt;Node1</title>
<g id="a_edge8_Node000001_Node000009"><a xlink:title=" ">
<path fill="none" stroke="#63b8ff" d="M312.51,-59.81C302.16,-50.06 290.16,-38.76 280.94,-30.08"/>
<polygon fill="none" stroke="#63b8ff" points="310.35,-62.59 320.03,-66.9 315.15,-57.49 310.35,-62.59"/>
</a>
</g>
</g>
<!-- Node10 -->
<g id="Node000010" class="node">
<title>Node10</title>
<g id="a_Node000010"><a xlink:href="classiot_1_1mqtt_1_1ControlPacketDeserializer.html" target="_top" xlink:title=" ">
<polygon fill="white" stroke="transparent" points="400,-195 276,-195 276,-165 400,-165 400,-195"/>
<text text-anchor="start" x="280" y="-183" font-family="Helvetica,sans-Serif" font-size="10.00">iot::mqtt::ControlPacket</text>
<text text-anchor="start" x="308.5" y="-172" font-family="Helvetica,sans-Serif" font-size="10.00">Deserializer</text>
<polygon fill="none" stroke="#666666" points="276,-165 276,-195 400,-195 400,-165 276,-165"/>
</a>
</g>
</g>
<!-- Node10&#45;&gt;Node9 -->
<g id="edge9_Node000009_Node000010" class="edge">
<title>Node10&#45;&gt;Node9</title>
<g id="a_edge9_Node000009_Node000010"><a xlink:title=" ">
<path fill="none" stroke="#63b8ff" d="M337.24,-154.7C336.67,-136.55 335.92,-112.35 335.44,-97.22"/>
<polygon fill="none" stroke="#63b8ff" points="333.75,-154.95 337.56,-164.83 340.74,-154.73 333.75,-154.95"/>
</a>
</g>
</g>
</g>
</svg>
</svg>

<style type='text/css'>
<![CDATA[
[data-mouse-over-selected='false'] { opacity: 0.7; }
[data-mouse-over-selected='true']  { opacity: 1.0; }
]]>
</style>
<script type="application/ecmascript"><![CDATA[
document.addEventListener('DOMContentLoaded', (event) => {
  highlightEdges();
  highlightAdjacentNodes();
});
]]></script>
</svg>
