<?xml version="1.0" encoding="UTF-8" standalone="no"?>
<!DOCTYPE svg PUBLIC "-//W3C//DTD SVG 1.1//EN"
 "http://www.w3.org/Graphics/SVG/1.1/DTD/svg11.dtd">
<!-- Generated by graphviz version 2.42.4 (0)
 -->
<!-- Title: web::http::client::MasterRequest::executeUpgrade Pages: 1 -->
<svg width="823pt" height="629pt"
 viewBox="0.00 0.00 823.00 629.00" xmlns="http://www.w3.org/2000/svg" xmlns:xlink="http://www.w3.org/1999/xlink">
<g id="graph0" class="graph" transform="scale(1 1) rotate(0) translate(4 625)">
<title>web::http::client::MasterRequest::executeUpgrade</title>
<!-- Node1 -->
<g id="Node000001" class="node">
<title>Node1</title>
<g id="a_Node000001"><a xlink:title=" ">
<polygon fill="#999999" stroke="#666666" points="176,-353.5 0,-353.5 0,-323.5 176,-323.5 176,-353.5"/>
<text text-anchor="start" x="8" y="-341.5" font-family="Helvetica,sans-Serif" font-size="10.00">web::http::client::</text>
<text text-anchor="middle" x="88" y="-330.5" font-family="Helvetica,sans-Serif" font-size="10.00">MasterRequest::executeUpgrade</text>
</a>
</g>
</g>
<!-- Node2 -->
<g id="Node000002" class="node">
<title>Node2</title>
<g id="a_Node000002"><a xlink:href="classweb_1_1http_1_1client_1_1SocketContextUpgradeFactory.html#a254e57fe75d644633ca8ab5667e04f60" target="_top" xlink:title=" ">
<polygon fill="white" stroke="#666666" points="401.5,-562 237.5,-562 237.5,-521 401.5,-521 401.5,-562"/>
<text text-anchor="start" x="245.5" y="-550" font-family="Helvetica,sans-Serif" font-size="10.00">web::http::client::</text>
<text text-anchor="start" x="245.5" y="-539" font-family="Helvetica,sans-Serif" font-size="10.00">SocketContextUpgradeFactory</text>
<text text-anchor="middle" x="319.5" y="-528" font-family="Helvetica,sans-Serif" font-size="10.00">::checkRefCount</text>
</a>
</g>
</g>
<!-- Node1&#45;&gt;Node2 -->
<g id="edge1_Node000001_Node000002" class="edge">
<title>Node1&#45;&gt;Node2</title>
<g id="a_edge1_Node000001_Node000002"><a xlink:title=" ">
<path fill="none" stroke="#63b8ff" d="M95.6,-353.75C110.93,-387.35 152.25,-468.15 212,-510.5 216.93,-514 222.26,-517.1 227.8,-519.86"/>
<polygon fill="#63b8ff" stroke="#63b8ff" points="226.76,-523.23 237.31,-524.18 229.65,-516.85 226.76,-523.23"/>
</a>
</g>
</g>
<!-- Node3 -->
<g id="Node000003" class="node">
<title>Node3</title>
<g id="a_Node000003"><a xlink:href="classweb_1_1http_1_1client_1_1SocketContextUpgradeFactorySelector.html#aa0241fb31bc6bdb675652878fe8734af" target="_top" xlink:title=" ">
<polygon fill="white" stroke="#666666" points="627,-621 463,-621 463,-580 627,-580 627,-621"/>
<text text-anchor="start" x="471" y="-609" font-family="Helvetica,sans-Serif" font-size="10.00">web::http::client::</text>
<text text-anchor="start" x="471" y="-598" font-family="Helvetica,sans-Serif" font-size="10.00">SocketContextUpgradeFactory</text>
<text text-anchor="middle" x="545" y="-587" font-family="Helvetica,sans-Serif" font-size="10.00">Selector::instance</text>
</a>
</g>
</g>
<!-- Node1&#45;&gt;Node3 -->
<g id="edge20_Node000001_Node000003" class="edge">
<title>Node1&#45;&gt;Node3</title>
<g id="a_edge20_Node000001_Node000003"><a xlink:title=" ">
<path fill="none" stroke="#63b8ff" d="M91.8,-353.52C100.62,-396.2 132.16,-518.49 212,-571.5 282.64,-618.4 381.19,-621.11 452.56,-614.85"/>
<polygon fill="#63b8ff" stroke="#63b8ff" points="453.26,-618.3 462.88,-613.87 452.6,-611.33 453.26,-618.3"/>
</a>
</g>
</g>
<!-- Node6 -->
<g id="Node000006" class="node">
<title>Node6</title>
<g id="a_Node000006"><a xlink:href="classcore_1_1socket_1_1stream_1_1SocketContext.html#a47b23b8583dfd3880232e748f284f380" target="_top" xlink:title=" ">
<polygon fill="white" stroke="#666666" points="382,-501.5 257,-501.5 257,-471.5 382,-471.5 382,-501.5"/>
<text text-anchor="start" x="265" y="-489.5" font-family="Helvetica,sans-Serif" font-size="10.00">core::socket::stream</text>
<text text-anchor="middle" x="319.5" y="-478.5" font-family="Helvetica,sans-Serif" font-size="10.00">::SocketContext::close</text>
</a>
</g>
</g>
<!-- Node1&#45;&gt;Node6 -->
<g id="edge5_Node000001_Node000006" class="edge">
<title>Node1&#45;&gt;Node6</title>
<g id="a_edge5_Node000001_Node000006"><a xlink:title=" ">
<path fill="none" stroke="#63b8ff" d="M100.9,-353.83C121.08,-378.79 164.48,-428.18 212,-455.5 222.8,-461.71 234.95,-466.76 247.07,-470.84"/>
<polygon fill="#63b8ff" stroke="#63b8ff" points="246.16,-474.23 256.75,-473.91 248.28,-467.56 246.16,-474.23"/>
</a>
</g>
</g>
<!-- Node8 -->
<g id="Node000008" class="node">
<title>Node8</title>
<g id="a_Node000008"><a xlink:href="classweb_1_1http_1_1client_1_1MasterRequest.html#a7f32119bf4e8e9e72f20490f758adcad" target="_top" xlink:title=" ">
<polygon fill="white" stroke="#666666" points="399,-413 240,-413 240,-372 399,-372 399,-413"/>
<text text-anchor="start" x="248" y="-401" font-family="Helvetica,sans-Serif" font-size="10.00">web::http::client::</text>
<text text-anchor="start" x="248" y="-390" font-family="Helvetica,sans-Serif" font-size="10.00">MasterRequest::executeSend</text>
<text text-anchor="middle" x="319.5" y="-379" font-family="Helvetica,sans-Serif" font-size="10.00">Header</text>
</a>
</g>
</g>
<!-- Node1&#45;&gt;Node8 -->
<g id="edge7_Node000001_Node000008" class="edge">
<title>Node1&#45;&gt;Node8</title>
<g id="a_edge7_Node000001_Node000008"><a xlink:title=" ">
<path fill="none" stroke="#63b8ff" d="M152.93,-353.54C176.8,-359.16 204.35,-365.64 230.05,-371.69"/>
<polygon fill="#63b8ff" stroke="#63b8ff" points="229.26,-375.1 239.79,-373.98 230.86,-368.28 229.26,-375.1"/>
</a>
</g>
</g>
<!-- Node11 -->
<g id="Node000011" class="node">
<title>Node11</title>
<g id="a_Node000011"><a xlink:href="classweb_1_1http_1_1client_1_1Request.html#a01d3d0cff8ce735636cceb6e0aaecf97" target="_top" xlink:title=" ">
<polygon fill="white" stroke="#666666" points="595.5,-454.5 494.5,-454.5 494.5,-424.5 595.5,-424.5 595.5,-454.5"/>
<text text-anchor="start" x="502.5" y="-442.5" font-family="Helvetica,sans-Serif" font-size="10.00">web::http::client::</text>
<text text-anchor="middle" x="545" y="-431.5" font-family="Helvetica,sans-Serif" font-size="10.00">Request::set</text>
</a>
</g>
</g>
<!-- Node1&#45;&gt;Node11 -->
<g id="edge28_Node000001_Node000011" class="edge">
<title>Node1&#45;&gt;Node11</title>
<g id="a_edge28_Node000001_Node000011"><a xlink:title=" ">
<path fill="none" stroke="#63b8ff" d="M104.89,-353.72C126.91,-373.71 168.87,-407.96 212,-422.5 303.16,-453.23 416.37,-451.15 484.26,-445.96"/>
<polygon fill="#63b8ff" stroke="#63b8ff" points="484.67,-449.44 494.35,-445.14 484.1,-442.46 484.67,-449.44"/>
</a>
</g>
</g>
<!-- Node18 -->
<g id="Node000018" class="node">
<title>Node18</title>
<g id="a_Node000018"><a xlink:href="classcore_1_1socket_1_1stream_1_1SocketConnection.html#a5e26cd617f07295e8579ddb9c41bdd2c" target="_top" xlink:title=" ">
<polygon fill="white" stroke="#666666" points="427,-353.5 212,-353.5 212,-323.5 427,-323.5 427,-353.5"/>
<text text-anchor="start" x="220" y="-341.5" font-family="Helvetica,sans-Serif" font-size="10.00">core::socket::stream</text>
<text text-anchor="middle" x="319.5" y="-330.5" font-family="Helvetica,sans-Serif" font-size="10.00">::SocketConnection::getConnectionName</text>
</a>
</g>
</g>
<!-- Node1&#45;&gt;Node18 -->
<g id="edge17_Node000001_Node000018" class="edge">
<title>Node1&#45;&gt;Node18</title>
<g id="a_edge17_Node000001_Node000018"><a xlink:title=" ">
<path fill="none" stroke="#63b8ff" d="M176.09,-338.5C184.48,-338.5 193.07,-338.5 201.68,-338.5"/>
<polygon fill="#63b8ff" stroke="#63b8ff" points="201.78,-342 211.78,-338.5 201.78,-335 201.78,-342"/>
</a>
</g>
</g>
<!-- Node19 -->
<g id="Node000019" class="node">
<title>Node19</title>
<g id="a_Node000019"><a xlink:href="classcore_1_1socket_1_1stream_1_1SocketContext.html#a02f0b93ac0ea376dabd6921c7589a8cf" target="_top" xlink:title=" ">
<polygon fill="white" stroke="#666666" points="420.5,-305.5 218.5,-305.5 218.5,-275.5 420.5,-275.5 420.5,-305.5"/>
<text text-anchor="start" x="226.5" y="-293.5" font-family="Helvetica,sans-Serif" font-size="10.00">core::socket::stream</text>
<text text-anchor="middle" x="319.5" y="-282.5" font-family="Helvetica,sans-Serif" font-size="10.00">::SocketContext::getSocketConnection</text>
</a>
</g>
</g>
<!-- Node1&#45;&gt;Node19 -->
<g id="edge18_Node000001_Node000019" class="edge">
<title>Node1&#45;&gt;Node19</title>
<g id="a_edge18_Node000001_Node000019"><a xlink:title=" ">
<path fill="none" stroke="#63b8ff" d="M160.99,-323.44C185.02,-318.42 211.97,-312.78 236.69,-307.61"/>
<polygon fill="#63b8ff" stroke="#63b8ff" points="237.7,-310.98 246.77,-305.5 236.27,-304.12 237.7,-310.98"/>
</a>
</g>
</g>
<!-- Node20 -->
<g id="Node000020" class="node">
<title>Node20</title>
<g id="a_Node000020"><a xlink:href="classweb_1_1http_1_1client_1_1Request.html#a8a80259856da04f06962bdce16f727e8" target="_top" xlink:title=" ">
<polygon fill="white" stroke="#666666" points="394,-257.5 245,-257.5 245,-227.5 394,-227.5 394,-257.5"/>
<text text-anchor="start" x="253" y="-245.5" font-family="Helvetica,sans-Serif" font-size="10.00">web::http::client::</text>
<text text-anchor="middle" x="319.5" y="-234.5" font-family="Helvetica,sans-Serif" font-size="10.00">Request::getSocketContext</text>
</a>
</g>
</g>
<!-- Node1&#45;&gt;Node20 -->
<g id="edge19_Node000001_Node000020" class="edge">
<title>Node1&#45;&gt;Node20</title>
<g id="a_edge19_Node000001_Node000020"><a xlink:title=" ">
<path fill="none" stroke="#63b8ff" d="M110.18,-323.35C133.9,-307.06 174.02,-281.48 212,-266.5 219.4,-263.58 227.23,-260.98 235.15,-258.66"/>
<polygon fill="#63b8ff" stroke="#63b8ff" points="236.14,-262.02 244.84,-255.98 234.27,-255.27 236.14,-262.02"/>
</a>
</g>
</g>
<!-- Node21 -->
<g id="Node000021" class="node">
<title>Node21</title>
<g id="a_Node000021"><a xlink:href="classweb_1_1http_1_1SocketContextUpgradeFactory.html#afae3ffca7956a1db027b587fe0c218f7" target="_top" xlink:title=" ">
<polygon fill="white" stroke="#666666" points="389,-209.5 250,-209.5 250,-179.5 389,-179.5 389,-209.5"/>
<text text-anchor="start" x="258" y="-197.5" font-family="Helvetica,sans-Serif" font-size="10.00">web::http::SocketContext</text>
<text text-anchor="middle" x="319.5" y="-186.5" font-family="Helvetica,sans-Serif" font-size="10.00">UpgradeFactory::name</text>
</a>
</g>
</g>
<!-- Node1&#45;&gt;Node21 -->
<g id="edge21_Node000001_Node000021" class="edge">
<title>Node1&#45;&gt;Node21</title>
<g id="a_edge21_Node000001_Node000021"><a xlink:title=" ">
<path fill="none" stroke="#63b8ff" d="M99.99,-323.26C119.48,-297.43 162.71,-245.26 212,-218.5 220.74,-213.75 230.38,-209.94 240.18,-206.89"/>
<polygon fill="#63b8ff" stroke="#63b8ff" points="241.35,-210.19 250,-204.07 239.42,-203.46 241.35,-210.19"/>
</a>
</g>
</g>
<!-- Node22 -->
<g id="Node000022" class="node">
<title>Node22</title>
<g id="a_Node000022"><a xlink:href="classweb_1_1http_1_1client_1_1SocketContextUpgradeFactorySelector.html#ab9d337ebb5d81bf02b8b71c17c197491" target="_top" xlink:title=" ">
<polygon fill="white" stroke="#666666" points="401.5,-161 237.5,-161 237.5,-120 401.5,-120 401.5,-161"/>
<text text-anchor="start" x="245.5" y="-149" font-family="Helvetica,sans-Serif" font-size="10.00">web::http::client::</text>
<text text-anchor="start" x="245.5" y="-138" font-family="Helvetica,sans-Serif" font-size="10.00">SocketContextUpgradeFactory</text>
<text text-anchor="middle" x="319.5" y="-127" font-family="Helvetica,sans-Serif" font-size="10.00">Selector::select</text>
</a>
</g>
</g>
<!-- Node1&#45;&gt;Node22 -->
<g id="edge22_Node000001_Node000022" class="edge">
<title>Node1&#45;&gt;Node22</title>
<g id="a_edge22_Node000001_Node000022"><a xlink:title=" ">
<path fill="none" stroke="#63b8ff" d="M95.79,-323.32C111.36,-290.28 152.9,-211.51 212,-170.5 216.95,-167.06 222.29,-164.02 227.85,-161.32"/>
<polygon fill="#63b8ff" stroke="#63b8ff" points="229.65,-164.35 237.38,-157.1 226.82,-157.95 229.65,-164.35"/>
</a>
</g>
</g>
<!-- Node28 -->
<g id="Node000028" class="node">
<title>Node28</title>
<g id="a_Node000028"><a xlink:href="namespacehttputils.html#ab84b77e9fb1e16e00e250d981aec32de" target="_top" xlink:title=" ">
<polygon fill="white" stroke="#666666" points="370,-73 269,-73 269,-54 370,-54 370,-73"/>
<text text-anchor="middle" x="319.5" y="-61" font-family="Helvetica,sans-Serif" font-size="10.00">httputils::toString</text>
</a>
</g>
</g>
<!-- Node1&#45;&gt;Node28 -->
<g id="edge29_Node000001_Node000028" class="edge">
<title>Node1&#45;&gt;Node28</title>
<g id="a_edge29_Node000001_Node000028"><a xlink:title=" ">
<path fill="none" stroke="#63b8ff" d="M93.41,-323.39C105.75,-283.57 144.2,-174.51 212,-111.5 229.31,-95.41 252.93,-84.02 273.53,-76.39"/>
<polygon fill="#63b8ff" stroke="#63b8ff" points="274.78,-79.66 283.05,-73.04 272.46,-73.06 274.78,-79.66"/>
</a>
</g>
</g>
<!-- Node2&#45;&gt;Node3 -->
<g id="edge2_Node000002_Node000003" class="edge">
<title>Node2&#45;&gt;Node3</title>
<g id="a_edge2_Node000002_Node000003"><a xlink:title=" ">
<path fill="none" stroke="#63b8ff" d="M398.36,-562.05C417.02,-566.98 437.08,-572.28 456.17,-577.31"/>
<polygon fill="#63b8ff" stroke="#63b8ff" points="455.48,-580.75 466.05,-579.92 457.27,-573.98 455.48,-580.75"/>
</a>
</g>
</g>
<!-- Node4 -->
<g id="Node000004" class="node">
<title>Node4</title>
<g id="a_Node000004"><a xlink:href="classweb_1_1http_1_1SocketContextUpgradeFactorySelector.html#a95a372b68288705669f80c5721eff016" target="_top" xlink:title=" ">
<polygon fill="white" stroke="#666666" points="614.5,-562 475.5,-562 475.5,-521 614.5,-521 614.5,-562"/>
<text text-anchor="start" x="483.5" y="-550" font-family="Helvetica,sans-Serif" font-size="10.00">web::http::SocketContext</text>
<text text-anchor="start" x="483.5" y="-539" font-family="Helvetica,sans-Serif" font-size="10.00">UpgradeFactorySelector</text>
<text text-anchor="middle" x="545" y="-528" font-family="Helvetica,sans-Serif" font-size="10.00">::unload</text>
</a>
</g>
</g>
<!-- Node2&#45;&gt;Node4 -->
<g id="edge3_Node000002_Node000004" class="edge">
<title>Node2&#45;&gt;Node4</title>
<g id="a_edge3_Node000002_Node000004"><a xlink:title=" ">
<path fill="none" stroke="#63b8ff" d="M401.5,-541.5C422.33,-541.5 444.7,-541.5 465.41,-541.5"/>
<polygon fill="#63b8ff" stroke="#63b8ff" points="465.42,-545 475.42,-541.5 465.42,-538 465.42,-545"/>
</a>
</g>
</g>
<!-- Node5 -->
<g id="Node000005" class="node">
<title>Node5</title>
<g id="a_Node000005"><a xlink:href="classcore_1_1DynamicLoader.html#aea517617ba189573803a8c3a4c5e9575" target="_top" xlink:title=" ">
<polygon fill="white" stroke="#666666" points="799,-556.5 679,-556.5 679,-526.5 799,-526.5 799,-556.5"/>
<text text-anchor="start" x="687" y="-544.5" font-family="Helvetica,sans-Serif" font-size="10.00">core::DynamicLoader</text>
<text text-anchor="middle" x="739" y="-533.5" font-family="Helvetica,sans-Serif" font-size="10.00">::dlCloseDelayed</text>
</a>
</g>
</g>
<!-- Node4&#45;&gt;Node5 -->
<g id="edge4_Node000004_Node000005" class="edge">
<title>Node4&#45;&gt;Node5</title>
<g id="a_edge4_Node000004_Node000005"><a xlink:title=" ">
<path fill="none" stroke="#63b8ff" d="M614.5,-541.5C632.06,-541.5 650.95,-541.5 668.56,-541.5"/>
<polygon fill="#63b8ff" stroke="#63b8ff" points="668.75,-545 678.75,-541.5 668.75,-538 668.75,-545"/>
</a>
</g>
</g>
<!-- Node7 -->
<g id="Node000007" class="node">
<title>Node7</title>
<g id="a_Node000007"><a xlink:href="classcore_1_1socket_1_1stream_1_1SocketConnection.html#aed398e81ede92d1d1cfae2597580ad2c" target="_top" xlink:title=" ">
<polygon fill="white" stroke="#666666" points="615.5,-502.5 474.5,-502.5 474.5,-472.5 615.5,-472.5 615.5,-502.5"/>
<text text-anchor="start" x="482.5" y="-490.5" font-family="Helvetica,sans-Serif" font-size="10.00">core::socket::stream</text>
<text text-anchor="middle" x="545" y="-479.5" font-family="Helvetica,sans-Serif" font-size="10.00">::SocketConnection::close</text>
</a>
</g>
</g>
<!-- Node6&#45;&gt;Node7 -->
<g id="edge6_Node000006_Node000007" class="edge">
<title>Node6&#45;&gt;Node7</title>
<g id="a_edge6_Node000006_Node000007"><a xlink:title=" ">
<path fill="none" stroke="#63b8ff" d="M382.16,-486.78C407.48,-486.89 437.13,-487.02 464.08,-487.14"/>
<polygon fill="#63b8ff" stroke="#63b8ff" points="464.25,-490.64 474.26,-487.19 464.28,-483.64 464.25,-490.64"/>
</a>
</g>
</g>
<!-- Node9 -->
<g id="Node000009" class="node">
<title>Node9</title>
<g id="a_Node000009"><a xlink:href="classcore_1_1socket_1_1SocketContext.html#a171ec3bb2190630276ff2e6cb5fd9ccf" target="_top" xlink:title=" ">
<polygon fill="white" stroke="#666666" points="621,-406.5 469,-406.5 469,-376.5 621,-376.5 621,-406.5"/>
<text text-anchor="start" x="477" y="-394.5" font-family="Helvetica,sans-Serif" font-size="10.00">core::socket::SocketContext</text>
<text text-anchor="middle" x="545" y="-383.5" font-family="Helvetica,sans-Serif" font-size="10.00">::sendToPeer</text>
</a>
</g>
</g>
<!-- Node8&#45;&gt;Node9 -->
<g id="edge8_Node000008_Node000009" class="edge">
<title>Node8&#45;&gt;Node9</title>
<g id="a_edge8_Node000008_Node000009"><a xlink:title=" ">
<path fill="none" stroke="#63b8ff" d="M399.3,-392.15C418.56,-392.06 439.26,-391.97 458.81,-391.88"/>
<polygon fill="#63b8ff" stroke="#63b8ff" points="458.93,-395.38 468.91,-391.84 458.9,-388.38 458.93,-395.38"/>
</a>
</g>
</g>
<!-- Node8&#45;&gt;Node11 -->
<g id="edge10_Node000008_Node000011" class="edge">
<title>Node8&#45;&gt;Node11</title>
<g id="a_edge10_Node000008_Node000011"><a xlink:title=" ">
<path fill="none" stroke="#63b8ff" d="M399.3,-409.07C427.26,-414.95 458.24,-421.47 484.34,-426.95"/>
<polygon fill="#63b8ff" stroke="#63b8ff" points="483.95,-430.45 494.45,-429.08 485.39,-423.6 483.95,-430.45"/>
</a>
</g>
</g>
<!-- Node14 -->
<g id="Node000014" class="node">
<title>Node14</title>
<g id="a_Node000014"><a xlink:href="namespacehttputils.html#a01539c1af68e4d072d3507ae44c0b02a" target="_top" xlink:title=" ">
<polygon fill="white" stroke="#666666" points="607.5,-321 482.5,-321 482.5,-302 607.5,-302 607.5,-321"/>
<text text-anchor="middle" x="545" y="-309" font-family="Helvetica,sans-Serif" font-size="10.00">httputils::to_http_date</text>
</a>
</g>
</g>
<!-- Node8&#45;&gt;Node14 -->
<g id="edge13_Node000008_Node000014" class="edge">
<title>Node8&#45;&gt;Node14</title>
<g id="a_edge13_Node000008_Node000014"><a xlink:title=" ">
<path fill="none" stroke="#63b8ff" d="M399.19,-374.74C408.82,-371.3 418.32,-367.25 427,-362.5 445.78,-352.23 444,-340.36 463,-330.5 467.53,-328.15 472.36,-326.09 477.31,-324.27"/>
<polygon fill="#63b8ff" stroke="#63b8ff" points="478.54,-327.55 486.94,-321.09 476.34,-320.91 478.54,-327.55"/>
</a>
</g>
</g>
<!-- Node17 -->
<g id="Node000017" class="node">
<title>Node17</title>
<g id="a_Node000017"><a xlink:href="namespacehttputils.html#a386473920285bded181a38ffac8fe833" target="_top" xlink:title=" ">
<polygon fill="white" stroke="#666666" points="603,-358 487,-358 487,-339 603,-339 603,-358"/>
<text text-anchor="middle" x="545" y="-346" font-family="Helvetica,sans-Serif" font-size="10.00">httputils::url_encode</text>
</a>
</g>
</g>
<!-- Node8&#45;&gt;Node17 -->
<g id="edge16_Node000008_Node000017" class="edge">
<title>Node8&#45;&gt;Node17</title>
<g id="a_edge16_Node000008_Node000017"><a xlink:title=" ">
<path fill="none" stroke="#63b8ff" d="M399.3,-376.99C427.72,-371.39 459.25,-365.18 485.62,-359.99"/>
<polygon fill="#63b8ff" stroke="#63b8ff" points="486.31,-363.42 495.45,-358.06 484.96,-356.56 486.31,-363.42"/>
</a>
</g>
</g>
<!-- Node10 -->
<g id="Node000010" class="node">
<title>Node10</title>
<g id="a_Node000010"><a xlink:href="classcore_1_1socket_1_1SocketContext.html#ad483b080be706b99648da684b74cdcd9" target="_top" xlink:title=" ">
<polygon fill="white" stroke="#666666" points="815,-406.5 663,-406.5 663,-376.5 815,-376.5 815,-406.5"/>
<text text-anchor="start" x="671" y="-394.5" font-family="Helvetica,sans-Serif" font-size="10.00">core::socket::SocketContext</text>
<text text-anchor="middle" x="739" y="-383.5" font-family="Helvetica,sans-Serif" font-size="10.00">::sendToPeer</text>
</a>
</g>
</g>
<!-- Node9&#45;&gt;Node10 -->
<g id="edge9_Node000009_Node000010" class="edge">
<title>Node9&#45;&gt;Node10</title>
<g id="a_edge9_Node000009_Node000010"><a xlink:title=" ">
<path fill="none" stroke="#63b8ff" d="M621.06,-391.5C631.5,-391.5 642.29,-391.5 652.9,-391.5"/>
<polygon fill="#63b8ff" stroke="#63b8ff" points="653,-395 663,-391.5 652.99,-388 653,-395"/>
</a>
</g>
</g>
<!-- Node12 -->
<g id="Node000012" class="node">
<title>Node12</title>
<g id="a_Node000012"><a xlink:href="namespaceweb_1_1http.html#a1f64d7d534ae76729c7bae5e5264e5d4" target="_top" xlink:title=" ">
<polygon fill="white" stroke="#666666" points="798.5,-447 679.5,-447 679.5,-428 798.5,-428 798.5,-447"/>
<text text-anchor="middle" x="739" y="-435" font-family="Helvetica,sans-Serif" font-size="10.00">web::http::ciContains</text>
</a>
</g>
</g>
<!-- Node11&#45;&gt;Node12 -->
<g id="edge11_Node000011_Node000012" class="edge">
<title>Node11&#45;&gt;Node12</title>
<g id="a_edge11_Node000011_Node000012"><a xlink:title=" ">
<path fill="none" stroke="#63b8ff" d="M595.94,-438.98C618.31,-438.75 645.04,-438.47 669.25,-438.22"/>
<polygon fill="#63b8ff" stroke="#63b8ff" points="669.48,-441.71 679.45,-438.11 669.41,-434.71 669.48,-441.71"/>
</a>
</g>
</g>
<!-- Node13 -->
<g id="Node000013" class="node">
<title>Node13</title>
<g id="a_Node000013"><a xlink:href="namespaceweb_1_1http.html#a14b1ae6d62f77d5b144063d213fd1cf7" target="_top" xlink:title=" ">
<polygon fill="white" stroke="#666666" points="793.5,-484 684.5,-484 684.5,-465 793.5,-465 793.5,-484"/>
<text text-anchor="middle" x="739" y="-472" font-family="Helvetica,sans-Serif" font-size="10.00">web::http::ciEquals</text>
</a>
</g>
</g>
<!-- Node11&#45;&gt;Node13 -->
<g id="edge12_Node000011_Node000013" class="edge">
<title>Node11&#45;&gt;Node13</title>
<g id="a_edge12_Node000011_Node000013"><a xlink:title=" ">
<path fill="none" stroke="#63b8ff" d="M595.94,-448.6C620.27,-453.04 649.77,-458.42 675.57,-463.12"/>
<polygon fill="#63b8ff" stroke="#63b8ff" points="675.16,-466.6 685.62,-464.95 676.41,-459.72 675.16,-466.6"/>
</a>
</g>
</g>
<!-- Node15 -->
<g id="Node000015" class="node">
<title>Node15</title>
<g id="a_Node000015"><a xlink:href="namespaceutils_1_1system.html#a629a1ebec50192eff5587cdd5d51bf20" target="_top" xlink:title=" ">
<polygon fill="white" stroke="#666666" points="801,-302 677,-302 677,-283 801,-283 801,-302"/>
<text text-anchor="middle" x="739" y="-290" font-family="Helvetica,sans-Serif" font-size="10.00">utils::system::gmtime</text>
</a>
</g>
</g>
<!-- Node14&#45;&gt;Node15 -->
<g id="edge14_Node000014_Node000015" class="edge">
<title>Node14&#45;&gt;Node15</title>
<g id="a_edge14_Node000014_Node000015"><a xlink:title=" ">
<path fill="none" stroke="#63b8ff" d="M607.54,-305.41C626.41,-303.54 647.33,-301.47 666.78,-299.55"/>
<polygon fill="#63b8ff" stroke="#63b8ff" points="667.2,-303.02 676.81,-298.56 666.51,-296.06 667.2,-303.02"/>
</a>
</g>
</g>
<!-- Node16 -->
<g id="Node000016" class="node">
<title>Node16</title>
<g id="a_Node000016"><a xlink:href="namespaceutils_1_1system.html#aa36252afed0ca4903feb511649270d1c" target="_top" xlink:title=" ">
<polygon fill="white" stroke="#666666" points="793,-339 685,-339 685,-320 793,-320 793,-339"/>
<text text-anchor="middle" x="739" y="-327" font-family="Helvetica,sans-Serif" font-size="10.00">utils::system::time</text>
</a>
</g>
</g>
<!-- Node14&#45;&gt;Node16 -->
<g id="edge15_Node000014_Node000016" class="edge">
<title>Node14&#45;&gt;Node16</title>
<g id="a_edge15_Node000014_Node000016"><a xlink:title=" ">
<path fill="none" stroke="#63b8ff" d="M607.54,-317.27C629.04,-319.28 653.19,-321.55 674.81,-323.58"/>
<polygon fill="#63b8ff" stroke="#63b8ff" points="674.6,-327.07 684.88,-324.52 675.25,-320.1 674.6,-327.07"/>
</a>
</g>
</g>
<!-- Node23 -->
<g id="Node000023" class="node">
<title>Node23</title>
<g id="a_Node000023"><a xlink:href="classweb_1_1http_1_1client_1_1SocketContextUpgradeFactory.html#a54d5a02915673a747309fce295e225cd" target="_top" xlink:title=" ">
<polygon fill="white" stroke="#666666" points="627,-137 463,-137 463,-96 627,-96 627,-137"/>
<text text-anchor="start" x="471" y="-125" font-family="Helvetica,sans-Serif" font-size="10.00">web::http::client::</text>
<text text-anchor="start" x="471" y="-114" font-family="Helvetica,sans-Serif" font-size="10.00">SocketContextUpgradeFactory</text>
<text text-anchor="middle" x="545" y="-103" font-family="Helvetica,sans-Serif" font-size="10.00">::prepare</text>
</a>
</g>
</g>
<!-- Node22&#45;&gt;Node23 -->
<g id="edge23_Node000022_Node000023" class="edge">
<title>Node22&#45;&gt;Node23</title>
<g id="a_edge23_Node000022_Node000023"><a xlink:title=" ">
<path fill="none" stroke="#63b8ff" d="M401.5,-131.8C418.06,-130.02 435.59,-128.14 452.48,-126.33"/>
<polygon fill="#63b8ff" stroke="#63b8ff" points="453.33,-129.76 462.9,-125.21 452.58,-122.8 453.33,-129.76"/>
</a>
</g>
</g>
<!-- Node24 -->
<g id="Node000024" class="node">
<title>Node24</title>
<g id="a_Node000024"><a xlink:href="classweb_1_1http_1_1SocketContextUpgradeFactorySelector.html#a8273a7213dee225405b4d107f4c5d072" target="_top" xlink:title=" ">
<polygon fill="white" stroke="#666666" points="614.5,-78 475.5,-78 475.5,-37 614.5,-37 614.5,-78"/>
<text text-anchor="start" x="483.5" y="-66" font-family="Helvetica,sans-Serif" font-size="10.00">web::http::SocketContext</text>
<text text-anchor="start" x="483.5" y="-55" font-family="Helvetica,sans-Serif" font-size="10.00">UpgradeFactorySelector</text>
<text text-anchor="middle" x="545" y="-44" font-family="Helvetica,sans-Serif" font-size="10.00">::select</text>
</a>
</g>
</g>
<!-- Node22&#45;&gt;Node24 -->
<g id="edge24_Node000022_Node000024" class="edge">
<title>Node22&#45;&gt;Node24</title>
<g id="a_edge24_Node000022_Node000024"><a xlink:title=" ">
<path fill="none" stroke="#63b8ff" d="M375.64,-119.97C402.07,-110.14 434.17,-98.2 463,-87.5 468.1,-85.61 473.37,-83.65 478.68,-81.68"/>
<polygon fill="#63b8ff" stroke="#63b8ff" points="480.06,-84.9 488.22,-78.15 477.63,-78.34 480.06,-84.9"/>
</a>
</g>
</g>
<!-- Node25 -->
<g id="Node000025" class="node">
<title>Node25</title>
<g id="a_Node000025"><a xlink:href="namespacehttputils.html#a9e46abe5c20380871f3884c9176a424d" target="_top" xlink:title=" ">
<polygon fill="white" stroke="#666666" points="596,-248 494,-248 494,-229 596,-229 596,-248"/>
<text text-anchor="middle" x="545" y="-236" font-family="Helvetica,sans-Serif" font-size="10.00">httputils::str_split</text>
</a>
</g>
</g>
<!-- Node22&#45;&gt;Node25 -->
<g id="edge25_Node000022_Node000025" class="edge">
<title>Node22&#45;&gt;Node25</title>
<g id="a_edge25_Node000022_Node000025"><a xlink:title=" ">
<path fill="none" stroke="#63b8ff" d="M401.66,-157.04C410.63,-160.67 419.29,-165.1 427,-170.5 449.43,-186.2 440.14,-205.43 463,-220.5 469.28,-224.64 476.38,-227.84 483.69,-230.31"/>
<polygon fill="#63b8ff" stroke="#63b8ff" points="483.16,-233.81 493.74,-233.25 485.12,-227.09 483.16,-233.81"/>
</a>
</g>
</g>
<!-- Node26 -->
<g id="Node000026" class="node">
<title>Node26</title>
<g id="a_Node000026"><a xlink:href="namespacehttputils.html#aaa1e55d83548ea4ebf224d695f73c874" target="_top" xlink:title=" ">
<polygon fill="white" stroke="#666666" points="600.5,-211 489.5,-211 489.5,-192 600.5,-192 600.5,-211"/>
<text text-anchor="middle" x="545" y="-199" font-family="Helvetica,sans-Serif" font-size="10.00">httputils::str_trimm</text>
</a>
</g>
</g>
<!-- Node22&#45;&gt;Node26 -->
<g id="edge26_Node000022_Node000026" class="edge">
<title>Node22&#45;&gt;Node26</title>
<g id="a_edge26_Node000022_Node000026"><a xlink:title=" ">
<path fill="none" stroke="#63b8ff" d="M396.05,-161.05C406.48,-164.1 417.03,-167.3 427,-170.5 443.2,-175.7 446.66,-178.76 463,-183.5 470.49,-185.67 478.43,-187.73 486.31,-189.63"/>
<polygon fill="#63b8ff" stroke="#63b8ff" points="485.67,-193.08 496.2,-191.94 487.26,-186.26 485.67,-193.08"/>
</a>
</g>
</g>
<!-- Node27 -->
<g id="Node000027" class="node">
<title>Node27</title>
<g id="a_Node000027"><a xlink:href="namespacehttputils.html#a4dd60a8e2472042c70e00dec22ebf927" target="_top" xlink:title=" ">
<polygon fill="white" stroke="#666666" points="597.5,-174 492.5,-174 492.5,-155 597.5,-155 597.5,-174"/>
<text text-anchor="middle" x="545" y="-162" font-family="Helvetica,sans-Serif" font-size="10.00">httputils::to_lower</text>
</a>
</g>
</g>
<!-- Node22&#45;&gt;Node27 -->
<g id="edge27_Node000022_Node000027" class="edge">
<title>Node22&#45;&gt;Node27</title>
<g id="a_edge27_Node000022_Node000027"><a xlink:title=" ">
<path fill="none" stroke="#63b8ff" d="M401.5,-149.2C428.19,-152.06 457.4,-155.2 482.4,-157.88"/>
<polygon fill="#63b8ff" stroke="#63b8ff" points="482.15,-161.38 492.47,-158.97 482.9,-154.42 482.15,-161.38"/>
</a>
</g>
</g>
<!-- Node29 -->
<g id="Node000029" class="node">
<title>Node29</title>
<g id="a_Node000029"><a xlink:href="namespaceutils.html#ad8af90943f5b6e2c985db811abae8730" target="_top" xlink:title=" ">
<polygon fill="white" stroke="#666666" points="590.5,-19 499.5,-19 499.5,0 590.5,0 590.5,-19"/>
<text text-anchor="middle" x="545" y="-7" font-family="Helvetica,sans-Serif" font-size="10.00">utils::hexDump</text>
</a>
</g>
</g>
<!-- Node28&#45;&gt;Node29 -->
<g id="edge30_Node000028_Node000029" class="edge">
<title>Node28&#45;&gt;Node29</title>
<g id="a_edge30_Node000028_Node000029"><a xlink:title=" ">
<path fill="none" stroke="#63b8ff" d="M357.04,-53.96C385.78,-46.53 426.88,-36.07 463,-27.5 471.66,-25.45 480.85,-23.33 489.82,-21.31"/>
<polygon fill="#63b8ff" stroke="#63b8ff" points="490.81,-24.68 499.81,-19.08 489.28,-17.85 490.81,-24.68"/>
</a>
</g>
</g>
<!-- Node30 -->
<g id="Node000030" class="node">
<title>Node30</title>
<g id="a_Node000030"><a xlink:href="namespaceutils.html#a5e89a82ecd447626404d378a3ca8d38b" target="_top" xlink:title=" ">
<polygon fill="white" stroke="#666666" points="784.5,-19 693.5,-19 693.5,0 784.5,0 784.5,-19"/>
<text text-anchor="middle" x="739" y="-7" font-family="Helvetica,sans-Serif" font-size="10.00">utils::hexDump</text>
</a>
</g>
</g>
<!-- Node29&#45;&gt;Node30 -->
<g id="edge31_Node000029_Node000030" class="edge">
<title>Node29&#45;&gt;Node30</title>
<g id="a_edge31_Node000029_Node000030"><a xlink:title=" ">
<path fill="none" stroke="#63b8ff" d="M590.53,-9.5C618.18,-9.5 653.91,-9.5 683.28,-9.5"/>
<polygon fill="#63b8ff" stroke="#63b8ff" points="683.38,-13 693.38,-9.5 683.38,-6 683.38,-13"/>
</a>
</g>
</g>
</g>
</svg>
