<?xml version="1.0" encoding="UTF-8" standalone="no"?>
<!DOCTYPE svg PUBLIC "-//W3C//DTD SVG 1.1//EN"
 "http://www.w3.org/Graphics/SVG/1.1/DTD/svg11.dtd">
<!-- Generated by graphviz version 2.42.4 (0)
 -->
<!-- Title: utils::SHA1 Pages: 1 -->
<svg width="96pt" height="160pt"
 viewBox="0.00 0.00 96.00 160.00" xmlns="http://www.w3.org/2000/svg" xmlns:xlink="http://www.w3.org/1999/xlink">
<g id="graph0" class="graph" transform="scale(1 1) rotate(0) translate(4 156)">
<title>utils::SHA1</title>
<!-- Node1 -->
<g id="Node000001" class="node">
<title>Node1</title>
<g id="a_Node000001"><a xlink:title=" ">
<polygon fill="#999999" stroke="transparent" points="74,-19 14,-19 14,0 74,0 74,-19"/>
<text text-anchor="start" x="18.5" y="-6.5" font-family="Helvetica,sans-Serif" font-size="10.00">utils::SHA1</text>
<polygon fill="none" stroke="#666666" points="14,0 14,-19 74,-19 74,0 14,0"/>
</a>
</g>
</g>
<!-- Node2 -->
<g id="Node000002" class="node">
<title>Node2</title>
<g id="a_Node000002"><a xlink:title=" ">
<polygon fill="white" stroke="transparent" points="70,-85 18,-85 18,-66 70,-66 70,-85"/>
<text text-anchor="start" x="22" y="-72.5" font-family="Helvetica,sans-Serif" font-size="10.00">std::string</text>
<polygon fill="none" stroke="#666666" points="18,-66 18,-85 70,-85 70,-66 18,-66"/>
</a>
</g>
</g>
<!-- Node2&#45;&gt;Node1 -->
<g id="edge1_Node000001_Node000002" class="edge">
<title>Node2&#45;&gt;Node1</title>
<g id="a_edge1_Node000001_Node000002"><a xlink:title=" ">
<path fill="none" stroke="#63b8ff" d="M44,-65.87C44,-57.14 44,-43.31 44,-31.65"/>
<polygon fill="none" stroke="#63b8ff" points="44,-31.41 40,-25.41 44,-19.41 48,-25.41 44,-31.41"/>
</a>
</g>
<text text-anchor="middle" x="59.5" y="-40" font-family="Helvetica,sans-Serif" font-size="10.00" fill="grey"> &#45;buffer</text>
</g>
<!-- Node3 -->
<g id="Node000003" class="node">
<title>Node3</title>
<g id="a_Node000003"><a xlink:title=" ">
<polygon fill="white" stroke="transparent" points="88,-152 0,-152 0,-122 88,-122 88,-152"/>
<text text-anchor="start" x="4.5" y="-140" font-family="Helvetica,sans-Serif" font-size="10.00">std::basic_string&lt;</text>
<text text-anchor="start" x="27" y="-129" font-family="Helvetica,sans-Serif" font-size="10.00"> Char &gt;</text>
<polygon fill="none" stroke="#666666" points="0,-122 0,-152 88,-152 88,-122 0,-122"/>
</a>
</g>
</g>
<!-- Node3&#45;&gt;Node2 -->
<g id="edge2_Node000002_Node000003" class="edge">
<title>Node3&#45;&gt;Node2</title>
<g id="a_edge2_Node000002_Node000003"><a xlink:title=" ">
<path fill="none" stroke="#63b8ff" d="M44,-111.79C44,-102.36 44,-92.15 44,-85.16"/>
<polygon fill="none" stroke="#63b8ff" points="40.5,-111.9 44,-121.9 47.5,-111.9 40.5,-111.9"/>
</a>
</g>
</g>
</g>
</svg>
