<?xml version="1.0" encoding="UTF-8" standalone="no"?>
<!DOCTYPE svg PUBLIC "-//W3C//DTD SVG 1.1//EN"
 "http://www.w3.org/Graphics/SVG/1.1/DTD/svg11.dtd">
<!-- Generated by graphviz version 2.43.0 (0)
 -->
<!-- Title: web::http::client::SocketContext::onConnected Pages: 1 -->
<svg width="832pt" height="206pt"
 viewBox="0.00 0.00 832.00 206.00" xmlns="http://www.w3.org/2000/svg" xmlns:xlink="http://www.w3.org/1999/xlink">
<g id="graph0" class="graph" transform="scale(1 1) rotate(0) translate(4 202)">
<title>web::http::client::SocketContext::onConnected</title>
<!-- Node1 -->
<g id="Node000001" class="node">
<title>Node1</title>
<g id="a_Node000001"><a xlink:title=" ">
<polygon fill="#999999" stroke="#666666" points="157,-114.5 0,-114.5 0,-84.5 157,-84.5 157,-114.5"/>
<text text-anchor="start" x="8" y="-102.5" font-family="Helvetica,sans-Serif" font-size="10.00">web::http::client::</text>
<text text-anchor="middle" x="78.5" y="-91.5" font-family="Helvetica,sans-Serif" font-size="10.00">SocketContext::onConnected</text>
</a>
</g>
</g>
<!-- Node2 -->
<g id="Node000002" class="node">
<title>Node2</title>
<g id="a_Node000002"><a xlink:href="classcore_1_1socket_1_1stream_1_1SocketConnection.html#a06d9ab2643cb4ce95681e6cb3a1029cf" target="_top" xlink:title=" ">
<polygon fill="white" stroke="#666666" points="386.5,-198 201.5,-198 201.5,-157 386.5,-157 386.5,-198"/>
<text text-anchor="start" x="209.5" y="-186" font-family="Helvetica,sans-Serif" font-size="10.00">core::socket::stream</text>
<text text-anchor="start" x="209.5" y="-175" font-family="Helvetica,sans-Serif" font-size="10.00">::SocketConnection::getConfigured</text>
<text text-anchor="middle" x="294" y="-164" font-family="Helvetica,sans-Serif" font-size="10.00">Server</text>
</a>
</g>
</g>
<!-- Node1&#45;&gt;Node2 -->
<g id="edge1_Node000001_Node000002" class="edge">
<title>Node1&#45;&gt;Node2</title>
<g id="a_edge1_Node000001_Node000002"><a xlink:title=" ">
<path fill="none" stroke="#63b8ff" d="M112.4,-114.53C134.86,-124.52 165.42,-137.57 193,-147.5 198.93,-149.64 205.1,-151.75 211.32,-153.8"/>
<polygon fill="#63b8ff" stroke="#63b8ff" points="210.54,-157.22 221.13,-156.97 212.69,-150.56 210.54,-157.22"/>
</a>
</g>
</g>
<!-- Node3 -->
<g id="Node000003" class="node">
<title>Node3</title>
<g id="a_Node000003"><a xlink:href="classcore_1_1socket_1_1stream_1_1SocketConnection.html#aff2eb3e752c798455541e85054bf91de" target="_top" xlink:title=" ">
<polygon fill="white" stroke="#666666" points="395,-138.5 193,-138.5 193,-108.5 395,-108.5 395,-138.5"/>
<text text-anchor="start" x="201" y="-126.5" font-family="Helvetica,sans-Serif" font-size="10.00">core::socket::stream</text>
<text text-anchor="middle" x="294" y="-115.5" font-family="Helvetica,sans-Serif" font-size="10.00">::SocketConnection::getInstanceName</text>
</a>
</g>
</g>
<!-- Node1&#45;&gt;Node3 -->
<g id="edge2_Node000001_Node000003" class="edge">
<title>Node1&#45;&gt;Node3</title>
<g id="a_edge2_Node000001_Node000003"><a xlink:title=" ">
<path fill="none" stroke="#63b8ff" d="M157.18,-108.23C165.49,-109.17 174.06,-110.13 182.66,-111.1"/>
<polygon fill="#63b8ff" stroke="#63b8ff" points="182.43,-114.59 192.75,-112.23 183.21,-107.64 182.43,-114.59"/>
</a>
</g>
</g>
<!-- Node4 -->
<g id="Node000004" class="node">
<title>Node4</title>
<g id="a_Node000004"><a xlink:href="classcore_1_1socket_1_1stream_1_1SocketContext.html#a02f0b93ac0ea376dabd6921c7589a8cf" target="_top" xlink:title=" ">
<polygon fill="white" stroke="#666666" points="395,-90.5 193,-90.5 193,-60.5 395,-60.5 395,-90.5"/>
<text text-anchor="start" x="201" y="-78.5" font-family="Helvetica,sans-Serif" font-size="10.00">core::socket::stream</text>
<text text-anchor="middle" x="294" y="-67.5" font-family="Helvetica,sans-Serif" font-size="10.00">::SocketContext::getSocketConnection</text>
</a>
</g>
</g>
<!-- Node1&#45;&gt;Node4 -->
<g id="edge3_Node000001_Node000004" class="edge">
<title>Node1&#45;&gt;Node4</title>
<g id="a_edge3_Node000001_Node000004"><a xlink:title=" ">
<path fill="none" stroke="#63b8ff" d="M157.18,-90.77C165.49,-89.83 174.06,-88.87 182.66,-87.9"/>
<polygon fill="#63b8ff" stroke="#63b8ff" points="183.21,-91.36 192.75,-86.77 182.43,-84.41 183.21,-91.36"/>
</a>
</g>
</g>
<!-- Node5 -->
<g id="Node000005" class="node">
<title>Node5</title>
<g id="a_Node000005"><a xlink:href="classweb_1_1http_1_1client_1_1Request.html#a2aa5cc2da7b11fe80b2d38fa0719c363" target="_top" xlink:title=" ">
<polygon fill="white" stroke="#666666" points="344.5,-42.5 243.5,-42.5 243.5,-12.5 344.5,-12.5 344.5,-42.5"/>
<text text-anchor="start" x="251.5" y="-30.5" font-family="Helvetica,sans-Serif" font-size="10.00">web::http::client::</text>
<text text-anchor="middle" x="294" y="-19.5" font-family="Helvetica,sans-Serif" font-size="10.00">Request::init</text>
</a>
</g>
</g>
<!-- Node1&#45;&gt;Node5 -->
<g id="edge4_Node000001_Node000005" class="edge">
<title>Node1&#45;&gt;Node5</title>
<g id="a_edge4_Node000001_Node000005"><a xlink:title=" ">
<path fill="none" stroke="#63b8ff" d="M111.25,-84.41C133.72,-74.15 164.75,-60.79 193,-51.5 205.91,-47.25 219.98,-43.41 233.38,-40.11"/>
<polygon fill="#63b8ff" stroke="#63b8ff" points="234.56,-43.42 243.47,-37.69 232.93,-36.62 234.56,-43.42"/>
</a>
</g>
</g>
<!-- Node6 -->
<g id="Node000006" class="node">
<title>Node6</title>
<g id="a_Node000006"><a xlink:href="classweb_1_1http_1_1client_1_1Request.html#ad75da4129b99ca09f9160c5797710e9a" target="_top" xlink:title=" ">
<polygon fill="white" stroke="#666666" points="532,-64.5 431,-64.5 431,-34.5 532,-34.5 532,-64.5"/>
<text text-anchor="start" x="439" y="-52.5" font-family="Helvetica,sans-Serif" font-size="10.00">web::http::client::</text>
<text text-anchor="middle" x="481.5" y="-41.5" font-family="Helvetica,sans-Serif" font-size="10.00">Request::host</text>
</a>
</g>
</g>
<!-- Node5&#45;&gt;Node6 -->
<g id="edge5_Node000005_Node000006" class="edge">
<title>Node5&#45;&gt;Node6</title>
<g id="a_edge5_Node000005_Node000006"><a xlink:title=" ">
<path fill="none" stroke="#63b8ff" d="M344.71,-33.4C368.2,-36.18 396.41,-39.53 421.03,-42.45"/>
<polygon fill="#63b8ff" stroke="#63b8ff" points="420.63,-45.92 430.97,-43.63 421.46,-38.97 420.63,-45.92"/>
</a>
</g>
</g>
<!-- Node7 -->
<g id="Node000007" class="node">
<title>Node7</title>
<g id="a_Node000007"><a xlink:href="classweb_1_1http_1_1client_1_1Request.html#a01d3d0cff8ce735636cceb6e0aaecf97" target="_top" xlink:title=" ">
<polygon fill="white" stroke="#666666" points="669,-42.5 568,-42.5 568,-12.5 669,-12.5 669,-42.5"/>
<text text-anchor="start" x="576" y="-30.5" font-family="Helvetica,sans-Serif" font-size="10.00">web::http::client::</text>
<text text-anchor="middle" x="618.5" y="-19.5" font-family="Helvetica,sans-Serif" font-size="10.00">Request::set</text>
</a>
</g>
</g>
<!-- Node5&#45;&gt;Node7 -->
<g id="edge9_Node000005_Node000007" class="edge">
<title>Node5&#45;&gt;Node7</title>
<g id="a_edge9_Node000005_Node000007"><a xlink:title=" ">
<path fill="none" stroke="#63b8ff" d="M344.94,-26.5C392.9,-25.67 467.4,-24.74 532,-25.5 540.32,-25.6 549.1,-25.75 557.74,-25.92"/>
<polygon fill="#63b8ff" stroke="#63b8ff" points="557.7,-29.42 567.77,-26.14 557.85,-22.43 557.7,-29.42"/>
</a>
</g>
</g>
<!-- Node6&#45;&gt;Node7 -->
<g id="edge6_Node000006_Node000007" class="edge">
<title>Node6&#45;&gt;Node7</title>
<g id="a_edge6_Node000006_Node000007"><a xlink:title=" ">
<path fill="none" stroke="#63b8ff" d="M532,-41.43C540.33,-40.08 549.06,-38.65 557.61,-37.26"/>
<polygon fill="#63b8ff" stroke="#63b8ff" points="558.24,-40.7 567.55,-35.64 557.12,-33.79 558.24,-40.7"/>
</a>
</g>
</g>
<!-- Node8 -->
<g id="Node000008" class="node">
<title>Node8</title>
<g id="a_Node000008"><a xlink:href="namespaceweb_1_1http.html#a1f64d7d534ae76729c7bae5e5264e5d4" target="_top" xlink:title=" ">
<polygon fill="white" stroke="#666666" points="824,-56 705,-56 705,-37 824,-37 824,-56"/>
<text text-anchor="middle" x="764.5" y="-44" font-family="Helvetica,sans-Serif" font-size="10.00">web::http::ciContains</text>
</a>
</g>
</g>
<!-- Node7&#45;&gt;Node8 -->
<g id="edge7_Node000007_Node000008" class="edge">
<title>Node7&#45;&gt;Node8</title>
<g id="a_edge7_Node000007_Node000008"><a xlink:title=" ">
<path fill="none" stroke="#63b8ff" d="M669.06,-34.04C677.36,-35.13 686.11,-36.29 694.79,-37.43"/>
<polygon fill="#63b8ff" stroke="#63b8ff" points="694.55,-40.93 704.92,-38.77 695.46,-33.99 694.55,-40.93"/>
</a>
</g>
</g>
<!-- Node9 -->
<g id="Node000009" class="node">
<title>Node9</title>
<g id="a_Node000009"><a xlink:href="namespaceweb_1_1http.html#a14b1ae6d62f77d5b144063d213fd1cf7" target="_top" xlink:title=" ">
<polygon fill="white" stroke="#666666" points="819,-19 710,-19 710,0 819,0 819,-19"/>
<text text-anchor="middle" x="764.5" y="-7" font-family="Helvetica,sans-Serif" font-size="10.00">web::http::ciEquals</text>
</a>
</g>
</g>
<!-- Node7&#45;&gt;Node9 -->
<g id="edge8_Node000007_Node000009" class="edge">
<title>Node7&#45;&gt;Node9</title>
<g id="a_edge8_Node000007_Node000009"><a xlink:title=" ">
<path fill="none" stroke="#63b8ff" d="M669.06,-21.31C678.94,-20.07 689.45,-18.76 699.74,-17.47"/>
<polygon fill="#63b8ff" stroke="#63b8ff" points="700.43,-20.91 709.91,-16.2 699.56,-13.97 700.43,-20.91"/>
</a>
</g>
</g>
</g>
</svg>
