<?xml version="1.0" encoding="UTF-8" standalone="no"?>
<!DOCTYPE svg PUBLIC "-//W3C//DTD SVG 1.1//EN"
 "http://www.w3.org/Graphics/SVG/1.1/DTD/svg11.dtd">
<!-- Generated by graphviz version 2.43.0 (0)
 -->
<!-- Title: core::socket::stream::SocketServer::SocketServer Pages: 1 -->
<svg width="370pt" height="175pt"
 viewBox="0.00 0.00 370.00 174.50" xmlns="http://www.w3.org/2000/svg" xmlns:xlink="http://www.w3.org/1999/xlink">
<g id="graph0" class="graph" transform="scale(1 1) rotate(0) translate(4 170.5)">
<title>core::socket::stream::SocketServer::SocketServer</title>
<!-- Node1 -->
<g id="Node000001" class="node">
<title>Node1</title>
<g id="a_Node000001"><a xlink:title=" ">
<polygon fill="#999999" stroke="#666666" points="156,-102 0,-102 0,-72 156,-72 156,-102"/>
<text text-anchor="start" x="8" y="-90" font-family="Helvetica,sans-Serif" font-size="10.00">core::socket::stream</text>
<text text-anchor="middle" x="78" y="-79" font-family="Helvetica,sans-Serif" font-size="10.00">::SocketServer::SocketServer</text>
</a>
</g>
</g>
<!-- Node2 -->
<g id="Node000002" class="node">
<title>Node2</title>
<g id="a_Node000002"><a xlink:href="classcore_1_1socket_1_1stream_1_1SocketConnection.html#a2930833c6c0df2a0febcf76d95ad4028" target="_top" xlink:title=" ">
<polygon fill="white" stroke="#666666" points="355.5,-166.5 198.5,-166.5 198.5,-125.5 355.5,-125.5 355.5,-166.5"/>
<text text-anchor="start" x="206.5" y="-154.5" font-family="Helvetica,sans-Serif" font-size="10.00">core::socket::stream</text>
<text text-anchor="start" x="206.5" y="-143.5" font-family="Helvetica,sans-Serif" font-size="10.00">::SocketConnection::getLocal</text>
<text text-anchor="middle" x="277" y="-132.5" font-family="Helvetica,sans-Serif" font-size="10.00">Address</text>
</a>
</g>
</g>
<!-- Node1&#45;&gt;Node2 -->
<g id="edge1_Node000001_Node000002" class="edge">
<title>Node1&#45;&gt;Node2</title>
<g id="a_edge1_Node000001_Node000002"><a xlink:title=" ">
<path fill="none" stroke="#63b8ff" d="M129.22,-102.04C149.97,-108.25 174.51,-115.61 197.53,-122.5"/>
<polygon fill="#63b8ff" stroke="#63b8ff" points="196.71,-125.91 207.29,-125.42 198.71,-119.2 196.71,-125.91"/>
</a>
</g>
</g>
<!-- Node3 -->
<g id="Node000003" class="node">
<title>Node3</title>
<g id="a_Node000003"><a xlink:href="classcore_1_1socket_1_1stream_1_1SocketConnection.html#a8676b9150b85fb2d2e5ef1d8daee0480" target="_top" xlink:title=" ">
<polygon fill="white" stroke="#666666" points="362,-107.5 192,-107.5 192,-66.5 362,-66.5 362,-107.5"/>
<text text-anchor="start" x="200" y="-95.5" font-family="Helvetica,sans-Serif" font-size="10.00">core::socket::stream</text>
<text text-anchor="start" x="200" y="-84.5" font-family="Helvetica,sans-Serif" font-size="10.00">::SocketConnection::getRemote</text>
<text text-anchor="middle" x="277" y="-73.5" font-family="Helvetica,sans-Serif" font-size="10.00">Address</text>
</a>
</g>
</g>
<!-- Node1&#45;&gt;Node3 -->
<g id="edge2_Node000001_Node000003" class="edge">
<title>Node1&#45;&gt;Node3</title>
<g id="a_edge2_Node000001_Node000003"><a xlink:title=" ">
<path fill="none" stroke="#63b8ff" d="M156.01,-87C164.47,-87 173.14,-87 181.78,-87"/>
<polygon fill="#63b8ff" stroke="#63b8ff" points="181.87,-90.5 191.87,-87 181.87,-83.5 181.87,-90.5"/>
</a>
</g>
</g>
<!-- Node4 -->
<g id="Node000004" class="node">
<title>Node4</title>
<g id="a_Node000004"><a xlink:href="classcore_1_1socket_1_1stream_1_1SocketServer.html#a70921a19b3291c7acae6314282520be8" target="_top" xlink:title=" ">
<polygon fill="white" stroke="#666666" points="355,-30 199,-30 199,0 355,0 355,-30"/>
<text text-anchor="start" x="207" y="-18" font-family="Helvetica,sans-Serif" font-size="10.00">core::socket::stream</text>
<text text-anchor="middle" x="277" y="-7" font-family="Helvetica,sans-Serif" font-size="10.00">::SocketServer::SocketServer</text>
</a>
</g>
</g>
<!-- Node1&#45;&gt;Node4 -->
<g id="edge3_Node000001_Node000004" class="edge">
<title>Node1&#45;&gt;Node4</title>
<g id="a_edge3_Node000001_Node000004"><a xlink:title=" ">
<path fill="none" stroke="#63b8ff" d="M120.3,-71.91C150.77,-60.77 192.41,-45.55 224.97,-33.65"/>
<polygon fill="#63b8ff" stroke="#63b8ff" points="226.57,-36.79 234.76,-30.07 224.16,-30.22 226.57,-36.79"/>
</a>
</g>
</g>
<!-- Node4&#45;&gt;Node4 -->
<g id="edge4_Node000004_Node000004" class="edge">
<title>Node4&#45;&gt;Node4</title>
<g id="a_edge4_Node000004_Node000004"><a xlink:title=" ">
<path fill="none" stroke="#63b8ff" d="M242.2,-30.28C234.46,-39.41 246.06,-48 277,-48 295.37,-48 306.92,-44.97 311.66,-40.6"/>
<polygon fill="#63b8ff" stroke="#63b8ff" points="315.16,-40.32 311.8,-30.28 308.16,-40.22 315.16,-40.32"/>
</a>
</g>
</g>
</g>
</svg>
