<?xml version="1.0" encoding="UTF-8" standalone="no"?>
<!DOCTYPE svg PUBLIC "-//W3C//DTD SVG 1.1//EN"
 "http://www.w3.org/Graphics/SVG/1.1/DTD/svg11.dtd">
<!-- Generated by graphviz version 14.1.1 (0)
 -->
<!-- Title: express::Next::operator() Pages: 1 -->
<svg width="988pt" height="319pt"
 viewBox="0.00 0.00 988.00 319.00" xmlns="http://www.w3.org/2000/svg" xmlns:xlink="http://www.w3.org/1999/xlink">
<g id="graph0" class="graph" transform="scale(1 1) rotate(0) translate(4 315.12)">
<title>express::Next::operator()</title>
<!-- Node1 -->
<g id="Node000001" class="node">
<title>Node1</title>
<g id="a_Node000001"><a xlink:title=" ">
<polygon fill="#999999" stroke="#666666" points="979.5,-163.12 841.25,-163.12 841.25,-142.38 979.5,-142.38 979.5,-163.12"/>
<text xml:space="preserve" text-anchor="middle" x="910.38" y="-149.62" font-family="Helvetica,sans-Serif" font-size="10.00">express::Next::operator()</text>
</a>
</g>
</g>
<!-- Node2 -->
<g id="Node000002" class="node">
<title>Node2</title>
<g id="a_Node000002"><a xlink:href="classexpress_1_1middleware_1_1BasicAuthentication.html#a74011e8f313cded7f34c28250ddc878f" target="_top" xlink:title=" ">
<polygon fill="white" stroke="#666666" points="771.5,-304.88 652,-304.88 652,-258.62 771.5,-258.62 771.5,-304.88"/>
<text xml:space="preserve" text-anchor="start" x="660" y="-291.38" font-family="Helvetica,sans-Serif" font-size="10.00">express::middleware</text>
<text xml:space="preserve" text-anchor="start" x="660" y="-278.62" font-family="Helvetica,sans-Serif" font-size="10.00">::BasicAuthentication</text>
<text xml:space="preserve" text-anchor="middle" x="711.75" y="-265.88" font-family="Helvetica,sans-Serif" font-size="10.00">::BasicAuthentication</text>
</a>
</g>
</g>
<!-- Node1&#45;&gt;Node2 -->
<g id="edge1_Node000001_Node000002" class="edge">
<title>Node1&#45;&gt;Node2</title>
<g id="a_edge1_Node000001_Node000002"><a xlink:title=" ">
<path fill="none" stroke="#63b8ff" d="M893.28,-171.96C874.24,-193.58 840.66,-228.45 805.25,-249.75 794.91,-255.97 783.19,-261.2 771.65,-265.51"/>
<polygon fill="#63b8ff" stroke="#63b8ff" points="895.86,-174.33 899.74,-164.47 890.56,-169.75 895.86,-174.33"/>
</a>
</g>
</g>
<!-- Node7 -->
<g id="Node000007" class="node">
<title>Node7</title>
<g id="a_Node000007"><a xlink:href="classexpress_1_1middleware_1_1JsonMiddleware.html#a0f90276c1100e22d2114306b23b95991" target="_top" xlink:title=" ">
<polygon fill="white" stroke="#666666" points="803,-240.5 620.5,-240.5 620.5,-207 803,-207 803,-240.5"/>
<text xml:space="preserve" text-anchor="start" x="628.5" y="-227" font-family="Helvetica,sans-Serif" font-size="10.00">express::middleware</text>
<text xml:space="preserve" text-anchor="middle" x="711.75" y="-214.25" font-family="Helvetica,sans-Serif" font-size="10.00">::JsonMiddleware::JsonMiddleware</text>
</a>
</g>
</g>
<!-- Node1&#45;&gt;Node7 -->
<g id="edge7_Node000001_Node000007" class="edge">
<title>Node1&#45;&gt;Node7</title>
<g id="a_edge7_Node000001_Node000007"><a xlink:title=" ">
<path fill="none" stroke="#63b8ff" d="M876.71,-168.21C856.42,-177.47 829.63,-189.1 805.25,-197.75 796.6,-200.82 787.4,-203.77 778.28,-206.51"/>
<polygon fill="#63b8ff" stroke="#63b8ff" points="877.99,-171.47 885.6,-164.1 875.05,-165.12 877.99,-171.47"/>
</a>
</g>
</g>
<!-- Node10 -->
<g id="Node000010" class="node">
<title>Node10</title>
<g id="a_Node000010"><a xlink:href="vhostserver_8cpp.html#a0ddf1224851353fc92bfbff6f499fa97" target="_top" xlink:title=" ">
<polygon fill="white" stroke="#666666" points="732.12,-189.12 691.38,-189.12 691.38,-168.38 732.12,-168.38 732.12,-189.12"/>
<text xml:space="preserve" text-anchor="middle" x="711.75" y="-175.62" font-family="Helvetica,sans-Serif" font-size="10.00">main</text>
</a>
</g>
</g>
<!-- Node1&#45;&gt;Node10 -->
<g id="edge10_Node000001_Node000010" class="edge">
<title>Node1&#45;&gt;Node10</title>
<g id="a_edge10_Node000001_Node000010"><a xlink:title=" ">
<path fill="none" stroke="#63b8ff" d="M829.48,-163.31C793.93,-168.02 755.04,-173.16 732.33,-176.16"/>
<polygon fill="#63b8ff" stroke="#63b8ff" points="829.93,-166.79 839.38,-162.01 829.01,-159.85 829.93,-166.79"/>
</a>
</g>
</g>
<!-- Node11 -->
<g id="Node000011" class="node">
<title>Node11</title>
<g id="a_Node000011"><a xlink:href="classexpress_1_1middleware_1_1StaticMiddleware.html#af712793a6f6d600b813fc4a6d3fbe41d" target="_top" xlink:title=" ">
<polygon fill="white" stroke="#666666" points="770.75,-149.88 652.75,-149.88 652.75,-103.62 770.75,-103.62 770.75,-149.88"/>
<text xml:space="preserve" text-anchor="start" x="660.75" y="-136.38" font-family="Helvetica,sans-Serif" font-size="10.00">express::middleware</text>
<text xml:space="preserve" text-anchor="start" x="660.75" y="-123.62" font-family="Helvetica,sans-Serif" font-size="10.00">::StaticMiddleware::</text>
<text xml:space="preserve" text-anchor="middle" x="711.75" y="-110.88" font-family="Helvetica,sans-Serif" font-size="10.00">StaticMiddleware</text>
</a>
</g>
</g>
<!-- Node1&#45;&gt;Node11 -->
<g id="edge11_Node000001_Node000011" class="edge">
<title>Node1&#45;&gt;Node11</title>
<g id="a_edge11_Node000001_Node000011"><a xlink:title=" ">
<path fill="none" stroke="#63b8ff" d="M829.53,-142.19C810.02,-139.61 789.5,-136.9 771.2,-134.48"/>
<polygon fill="#63b8ff" stroke="#63b8ff" points="829.01,-145.65 839.38,-143.49 829.93,-138.71 829.01,-145.65"/>
</a>
</g>
</g>
<!-- Node12 -->
<g id="Node000012" class="node">
<title>Node12</title>
<g id="a_Node000012"><a xlink:href="classexpress_1_1middleware_1_1VerboseRequest.html#a9958ed4e731964c4ff5e5dcb447f8d71" target="_top" xlink:title=" ">
<polygon fill="white" stroke="#666666" points="805.25,-85.5 618.25,-85.5 618.25,-52 805.25,-52 805.25,-85.5"/>
<text xml:space="preserve" text-anchor="start" x="626.25" y="-72" font-family="Helvetica,sans-Serif" font-size="10.00">express::middleware</text>
<text xml:space="preserve" text-anchor="middle" x="711.75" y="-59.25" font-family="Helvetica,sans-Serif" font-size="10.00">::VerboseRequest::VerboseRequest</text>
</a>
</g>
</g>
<!-- Node1&#45;&gt;Node12 -->
<g id="edge12_Node000001_Node000012" class="edge">
<title>Node1&#45;&gt;Node12</title>
<g id="a_edge12_Node000001_Node000012"><a xlink:title=" ">
<path fill="none" stroke="#63b8ff" d="M883.45,-136.06C862.89,-123.38 833.07,-106.22 805.25,-94.75 797.54,-91.57 789.31,-88.64 781.06,-85.99"/>
<polygon fill="#63b8ff" stroke="#63b8ff" points="881.41,-138.91 891.74,-141.25 885.13,-132.98 881.41,-138.91"/>
</a>
</g>
</g>
<!-- Node14 -->
<g id="Node000014" class="node">
<title>Node14</title>
<g id="a_Node000014"><a xlink:href="classexpress_1_1middleware_1_1VHost.html#ab60d9df1ad85a8ee414c111135e250b1" target="_top" xlink:title=" ">
<polygon fill="white" stroke="#666666" points="770.75,-33.5 652.75,-33.5 652.75,0 770.75,0 770.75,-33.5"/>
<text xml:space="preserve" text-anchor="start" x="660.75" y="-20" font-family="Helvetica,sans-Serif" font-size="10.00">express::middleware</text>
<text xml:space="preserve" text-anchor="middle" x="711.75" y="-7.25" font-family="Helvetica,sans-Serif" font-size="10.00">::VHost::VHost</text>
</a>
</g>
</g>
<!-- Node1&#45;&gt;Node14 -->
<g id="edge14_Node000001_Node000014" class="edge">
<title>Node1&#45;&gt;Node14</title>
<g id="a_edge14_Node000001_Node000014"><a xlink:title=" ">
<path fill="none" stroke="#63b8ff" d="M895.96,-133.04C878.11,-108.31 844.22,-66.29 805.25,-42.75 794.83,-36.45 782.83,-31.63 771,-27.96"/>
<polygon fill="#63b8ff" stroke="#63b8ff" points="892.91,-134.78 901.53,-140.95 898.63,-130.75 892.91,-134.78"/>
</a>
</g>
</g>
<!-- Node3 -->
<g id="Node000003" class="node">
<title>Node3</title>
<g id="a_Node000003"><a xlink:href="classexpress_1_1middleware_1_1BasicAuthentication.html#a8cd93f5ab0744e5deae89aac3709ee42" target="_top" xlink:title=" ">
<polygon fill="white" stroke="#666666" points="548.5,-304.88 429,-304.88 429,-258.62 548.5,-258.62 548.5,-304.88"/>
<text xml:space="preserve" text-anchor="start" x="437" y="-291.38" font-family="Helvetica,sans-Serif" font-size="10.00">express::middleware</text>
<text xml:space="preserve" text-anchor="start" x="437" y="-278.62" font-family="Helvetica,sans-Serif" font-size="10.00">::BasicAuthentication</text>
<text xml:space="preserve" text-anchor="middle" x="488.75" y="-265.88" font-family="Helvetica,sans-Serif" font-size="10.00">::instance</text>
</a>
</g>
</g>
<!-- Node2&#45;&gt;Node3 -->
<g id="edge2_Node000002_Node000003" class="edge">
<title>Node2&#45;&gt;Node3</title>
<g id="a_edge2_Node000002_Node000003"><a xlink:title=" ">
<path fill="none" stroke="#63b8ff" d="M640.06,-281.75C610.62,-281.75 576.83,-281.75 548.75,-281.75"/>
<polygon fill="#63b8ff" stroke="#63b8ff" points="640.01,-285.25 650.01,-281.75 640.01,-278.25 640.01,-285.25"/>
</a>
</g>
</g>
<!-- Node4 -->
<g id="Node000004" class="node">
<title>Node4</title>
<g id="a_Node000004"><a xlink:href="classexpress_1_1middleware_1_1BasicAuthentication.html#a461f08f2de85ee8ddb1afb72db149028" target="_top" xlink:title=" ">
<polygon fill="white" stroke="#666666" points="327.75,-304.88 208.25,-304.88 208.25,-258.62 327.75,-258.62 327.75,-304.88"/>
<text xml:space="preserve" text-anchor="start" x="216.25" y="-291.38" font-family="Helvetica,sans-Serif" font-size="10.00">express::middleware</text>
<text xml:space="preserve" text-anchor="start" x="216.25" y="-278.62" font-family="Helvetica,sans-Serif" font-size="10.00">::BasicAuthentication</text>
<text xml:space="preserve" text-anchor="middle" x="268" y="-265.88" font-family="Helvetica,sans-Serif" font-size="10.00">::BasicAuthentication</text>
</a>
</g>
</g>
<!-- Node3&#45;&gt;Node4 -->
<g id="edge3_Node000003_Node000004" class="edge">
<title>Node3&#45;&gt;Node4</title>
<g id="a_edge3_Node000003_Node000004"><a xlink:title=" ">
<path fill="none" stroke="#63b8ff" d="M417.35,-281.75C388.6,-281.75 355.73,-281.75 328.24,-281.75"/>
<polygon fill="#63b8ff" stroke="#63b8ff" points="417.04,-285.25 427.04,-281.75 417.04,-278.25 417.04,-285.25"/>
</a>
</g>
</g>
<!-- Node5 -->
<g id="Node000005" class="node">
<title>Node5</title>
<g id="a_Node000005"><a xlink:href="testbasicauthentication_8cpp.html#aeb6ff6ca94f495351c99f0a372eadd33" target="_top" xlink:title=" ">
<polygon fill="white" stroke="#666666" points="140.75,-311.12 76.75,-311.12 76.75,-290.38 140.75,-290.38 140.75,-311.12"/>
<text xml:space="preserve" text-anchor="middle" x="108.75" y="-297.62" font-family="Helvetica,sans-Serif" font-size="10.00">getRouter</text>
</a>
</g>
</g>
<!-- Node4&#45;&gt;Node5 -->
<g id="edge4_Node000004_Node000005" class="edge">
<title>Node4&#45;&gt;Node5</title>
<g id="a_edge4_Node000004_Node000005"><a xlink:title=" ">
<path fill="none" stroke="#63b8ff" d="M196.61,-290.26C177.06,-292.62 156.83,-295.06 140.82,-297"/>
<polygon fill="#63b8ff" stroke="#63b8ff" points="196.99,-293.73 206.5,-289.06 196.15,-286.79 196.99,-293.73"/>
</a>
</g>
</g>
<!-- Node6 -->
<g id="Node000006" class="node">
<title>Node6</title>
<g id="a_Node000006"><a xlink:href="testbasicauthentication_8cpp.html#a0ddf1224851353fc92bfbff6f499fa97" target="_top" xlink:title=" ">
<polygon fill="white" stroke="#666666" points="40.75,-292.12 0,-292.12 0,-271.38 40.75,-271.38 40.75,-292.12"/>
<text xml:space="preserve" text-anchor="middle" x="20.38" y="-278.62" font-family="Helvetica,sans-Serif" font-size="10.00">main</text>
</a>
</g>
</g>
<!-- Node4&#45;&gt;Node6 -->
<g id="edge6_Node000004_Node000006" class="edge">
<title>Node4&#45;&gt;Node6</title>
<g id="a_edge6_Node000004_Node000006"><a xlink:title=" ">
<path fill="none" stroke="#63b8ff" d="M196.46,-281.75C143.45,-281.75 74.47,-281.75 41.13,-281.75"/>
<polygon fill="#63b8ff" stroke="#63b8ff" points="196.34,-285.25 206.34,-281.75 196.34,-278.25 196.34,-285.25"/>
</a>
</g>
</g>
<!-- Node5&#45;&gt;Node6 -->
<g id="edge5_Node000005_Node000006" class="edge">
<title>Node5&#45;&gt;Node6</title>
<g id="a_edge5_Node000005_Node000006"><a xlink:title=" ">
<path fill="none" stroke="#63b8ff" d="M65.54,-291.46C57.04,-289.6 48.5,-287.72 41.22,-286.11"/>
<polygon fill="#63b8ff" stroke="#63b8ff" points="64.57,-294.84 75.09,-293.57 66.07,-288 64.57,-294.84"/>
</a>
</g>
</g>
<!-- Node8 -->
<g id="Node000008" class="node">
<title>Node8</title>
<g id="a_Node000008"><a xlink:href="classexpress_1_1middleware_1_1JsonMiddleware.html#ae20c47bf2107ee7b8a8190d3a3439b1a" target="_top" xlink:title=" ">
<polygon fill="white" stroke="#666666" points="562,-240.5 415.5,-240.5 415.5,-207 562,-207 562,-240.5"/>
<text xml:space="preserve" text-anchor="start" x="423.5" y="-227" font-family="Helvetica,sans-Serif" font-size="10.00">express::middleware</text>
<text xml:space="preserve" text-anchor="middle" x="488.75" y="-214.25" font-family="Helvetica,sans-Serif" font-size="10.00">::JsonMiddleware::instance</text>
</a>
</g>
</g>
<!-- Node7&#45;&gt;Node8 -->
<g id="edge8_Node000007_Node000008" class="edge">
<title>Node7&#45;&gt;Node8</title>
<g id="a_edge8_Node000007_Node000008"><a xlink:title=" ">
<path fill="none" stroke="#63b8ff" d="M608.83,-223.75C593.1,-223.75 577.14,-223.75 562.23,-223.75"/>
<polygon fill="#63b8ff" stroke="#63b8ff" points="608.71,-227.25 618.71,-223.75 608.71,-220.25 608.71,-227.25"/>
</a>
</g>
</g>
<!-- Node9 -->
<g id="Node000009" class="node">
<title>Node9</title>
<g id="a_Node000009"><a xlink:href="classexpress_1_1middleware_1_1JsonMiddleware.html#a50b23edc44a7ae19b857efe7fbb3495f" target="_top" xlink:title=" ">
<polygon fill="white" stroke="#666666" points="359.25,-240.5 176.75,-240.5 176.75,-207 359.25,-207 359.25,-240.5"/>
<text xml:space="preserve" text-anchor="start" x="184.75" y="-227" font-family="Helvetica,sans-Serif" font-size="10.00">express::middleware</text>
<text xml:space="preserve" text-anchor="middle" x="268" y="-214.25" font-family="Helvetica,sans-Serif" font-size="10.00">::JsonMiddleware::JsonMiddleware</text>
</a>
</g>
</g>
<!-- Node8&#45;&gt;Node9 -->
<g id="edge9_Node000008_Node000009" class="edge">
<title>Node8&#45;&gt;Node9</title>
<g id="a_edge9_Node000008_Node000009"><a xlink:title=" ">
<path fill="none" stroke="#63b8ff" d="M403.78,-223.75C389.34,-223.75 374.27,-223.75 359.65,-223.75"/>
<polygon fill="#63b8ff" stroke="#63b8ff" points="403.7,-227.25 413.7,-223.75 403.7,-220.25 403.7,-227.25"/>
</a>
</g>
</g>
<!-- Node13 -->
<g id="Node000013" class="node">
<title>Node13</title>
<g id="a_Node000013"><a xlink:href="classexpress_1_1middleware_1_1VerboseRequest.html#aede7e8916d6cee10ef317f8ecc02f168" target="_top" xlink:title=" ">
<polygon fill="white" stroke="#666666" points="582.25,-85.5 395.25,-85.5 395.25,-52 582.25,-52 582.25,-85.5"/>
<text xml:space="preserve" text-anchor="start" x="403.25" y="-72" font-family="Helvetica,sans-Serif" font-size="10.00">express::middleware</text>
<text xml:space="preserve" text-anchor="middle" x="488.75" y="-59.25" font-family="Helvetica,sans-Serif" font-size="10.00">::VerboseRequest::VerboseRequest</text>
</a>
</g>
</g>
<!-- Node12&#45;&gt;Node13 -->
<g id="edge13_Node000012_Node000013" class="edge">
<title>Node12&#45;&gt;Node13</title>
<g id="a_edge13_Node000012_Node000013"><a xlink:title=" ">
<path fill="none" stroke="#63b8ff" d="M606.68,-68.75C598.65,-68.75 590.58,-68.75 582.63,-68.75"/>
<polygon fill="#63b8ff" stroke="#63b8ff" points="606.47,-72.25 616.47,-68.75 606.47,-65.25 606.47,-72.25"/>
</a>
</g>
</g>
<!-- Node15 -->
<g id="Node000015" class="node">
<title>Node15</title>
<g id="a_Node000015"><a xlink:href="classexpress_1_1middleware_1_1VHost.html#aedfd77e91aabab72a4b6bf19c9047876" target="_top" xlink:title=" ">
<polygon fill="white" stroke="#666666" points="547.75,-33.5 429.75,-33.5 429.75,0 547.75,0 547.75,-33.5"/>
<text xml:space="preserve" text-anchor="start" x="437.75" y="-20" font-family="Helvetica,sans-Serif" font-size="10.00">express::middleware</text>
<text xml:space="preserve" text-anchor="middle" x="488.75" y="-7.25" font-family="Helvetica,sans-Serif" font-size="10.00">::VHost::instance</text>
</a>
</g>
</g>
<!-- Node14&#45;&gt;Node15 -->
<g id="edge15_Node000014_Node000015" class="edge">
<title>Node14&#45;&gt;Node15</title>
<g id="a_edge15_Node000014_Node000015"><a xlink:title=" ">
<path fill="none" stroke="#63b8ff" d="M641.17,-16.75C611.23,-16.75 576.62,-16.75 548.05,-16.75"/>
<polygon fill="#63b8ff" stroke="#63b8ff" points="640.88,-20.25 650.88,-16.75 640.88,-13.25 640.88,-20.25"/>
</a>
</g>
</g>
<!-- Node16 -->
<g id="Node000016" class="node">
<title>Node16</title>
<g id="a_Node000016"><a xlink:href="classexpress_1_1middleware_1_1VHost.html#a0c0c8ae51cc23dc35d0444d98dfd41a8" target="_top" xlink:title=" ">
<polygon fill="white" stroke="#666666" points="327,-33.5 209,-33.5 209,0 327,0 327,-33.5"/>
<text xml:space="preserve" text-anchor="start" x="217" y="-20" font-family="Helvetica,sans-Serif" font-size="10.00">express::middleware</text>
<text xml:space="preserve" text-anchor="middle" x="268" y="-7.25" font-family="Helvetica,sans-Serif" font-size="10.00">::VHost::VHost</text>
</a>
</g>
</g>
<!-- Node15&#45;&gt;Node16 -->
<g id="edge16_Node000015_Node000016" class="edge">
<title>Node15&#45;&gt;Node16</title>
<g id="a_edge16_Node000015_Node000016"><a xlink:title=" ">
<path fill="none" stroke="#63b8ff" d="M418.01,-16.75C388.74,-16.75 355.08,-16.75 327.17,-16.75"/>
<polygon fill="#63b8ff" stroke="#63b8ff" points="417.9,-20.25 427.9,-16.75 417.9,-13.25 417.9,-20.25"/>
</a>
</g>
</g>
</g>
</svg>
