<?xml version="1.0" encoding="UTF-8" standalone="no"?>
<!DOCTYPE svg PUBLIC "-//W3C//DTD SVG 1.1//EN"
 "http://www.w3.org/Graphics/SVG/1.1/DTD/svg11.dtd">
<!-- Generated by graphviz version 14.1.2 (0)
 -->
<!-- Title: net::SocketAddress::SocketAddress Pages: 1 -->
<svg width="786pt" height="1376pt"
 viewBox="0.00 0.00 786.00 1376.00" xmlns="http://www.w3.org/2000/svg" xmlns:xlink="http://www.w3.org/1999/xlink">
<g id="graph0" class="graph" transform="scale(1 1) rotate(0) translate(4 1371.5)">
<title>net::SocketAddress::SocketAddress</title>
<!-- Node1 -->
<g id="Node000001" class="node">
<title>Node1</title>
<g id="a_Node000001"><a xlink:title=" ">
<polygon fill="#999999" stroke="#666666" points="777.5,-678.5 668.5,-678.5 668.5,-645 777.5,-645 777.5,-678.5"/>
<text xml:space="preserve" text-anchor="start" x="676.5" y="-665" font-family="Helvetica,sans-Serif" font-size="10.00">net::SocketAddress</text>
<text xml:space="preserve" text-anchor="middle" x="723" y="-652.25" font-family="Helvetica,sans-Serif" font-size="10.00">::SocketAddress</text>
</a>
</g>
</g>
<!-- Node2 -->
<g id="Node000002" class="node">
<title>Node2</title>
<g id="a_Node000002"><a xlink:href="classnet_1_1in6_1_1SocketAddress.html#ab35c80e6d63c134527a33c05ec64ac75" target="_top" xlink:title=" ">
<polygon fill="white" stroke="#666666" points="632.5,-1211.5 502.5,-1211.5 502.5,-1178 632.5,-1178 632.5,-1211.5"/>
<text xml:space="preserve" text-anchor="start" x="510.5" y="-1198" font-family="Helvetica,sans-Serif" font-size="10.00">net::in6::SocketAddress</text>
<text xml:space="preserve" text-anchor="middle" x="567.5" y="-1185.25" font-family="Helvetica,sans-Serif" font-size="10.00">::SocketAddress</text>
</a>
</g>
</g>
<!-- Node1&#45;&gt;Node2 -->
<g id="edge1_Node000001_Node000002" class="edge">
<title>Node1&#45;&gt;Node2</title>
<g id="a_edge1_Node000001_Node000002"><a xlink:title=" ">
<path fill="none" stroke="#63b8ff" d="M713.94,-689.73C686.26,-785.84 595.57,-1100.76 573.42,-1177.68"/>
<polygon fill="#63b8ff" stroke="#63b8ff" points="717.24,-690.91 716.65,-680.33 710.52,-688.98 717.24,-690.91"/>
</a>
</g>
</g>
<!-- Node11 -->
<g id="Node000011" class="node">
<title>Node11</title>
<g id="a_Node000011"><a xlink:href="classnet_1_1in_1_1SocketAddress.html#af6c01700dca70241b9597818b91c1fce" target="_top" xlink:title=" ">
<polygon fill="white" stroke="#666666" points="629.5,-880.5 505.5,-880.5 505.5,-847 629.5,-847 629.5,-880.5"/>
<text xml:space="preserve" text-anchor="start" x="513.5" y="-867" font-family="Helvetica,sans-Serif" font-size="10.00">net::in::SocketAddress</text>
<text xml:space="preserve" text-anchor="middle" x="567.5" y="-854.25" font-family="Helvetica,sans-Serif" font-size="10.00">::SocketAddress</text>
</a>
</g>
</g>
<!-- Node1&#45;&gt;Node11 -->
<g id="edge10_Node000001_Node000011" class="edge">
<title>Node1&#45;&gt;Node11</title>
<g id="a_edge10_Node000001_Node000011"><a xlink:title=" ">
<path fill="none" stroke="#63b8ff" d="M702.02,-688.04C670.09,-730.06 608.43,-811.2 581.55,-846.57"/>
<polygon fill="#63b8ff" stroke="#63b8ff" points="704.73,-690.26 708,-680.18 699.16,-686.02 704.73,-690.26"/>
</a>
</g>
</g>
<!-- Node23 -->
<g id="Node000023" class="node">
<title>Node23</title>
<g id="a_Node000023"><a xlink:href="classnet_1_1l2_1_1SocketAddress.html#ace77cc85bd055293e47785e5f2312824" target="_top" xlink:title=" ">
<polygon fill="white" stroke="#666666" points="629.5,-678.5 505.5,-678.5 505.5,-645 629.5,-645 629.5,-678.5"/>
<text xml:space="preserve" text-anchor="start" x="513.5" y="-665" font-family="Helvetica,sans-Serif" font-size="10.00">net::l2::SocketAddress</text>
<text xml:space="preserve" text-anchor="middle" x="567.5" y="-652.25" font-family="Helvetica,sans-Serif" font-size="10.00">::SocketAddress</text>
</a>
</g>
</g>
<!-- Node1&#45;&gt;Node23 -->
<g id="edge24_Node000001_Node000023" class="edge">
<title>Node1&#45;&gt;Node23</title>
<g id="a_edge24_Node000001_Node000023"><a xlink:title=" ">
<path fill="none" stroke="#63b8ff" d="M657.03,-661.75C647.99,-661.75 638.74,-661.75 629.77,-661.75"/>
<polygon fill="#63b8ff" stroke="#63b8ff" points="656.8,-665.25 666.8,-661.75 656.8,-658.25 656.8,-665.25"/>
</a>
</g>
</g>
<!-- Node29 -->
<g id="Node000029" class="node">
<title>Node29</title>
<g id="a_Node000029"><a xlink:href="classnet_1_1rc_1_1SocketAddress.html#ac337eacfde6e455694216694fd4f7eeb" target="_top" xlink:title=" ">
<polygon fill="white" stroke="#666666" points="629.5,-475.5 505.5,-475.5 505.5,-442 629.5,-442 629.5,-475.5"/>
<text xml:space="preserve" text-anchor="start" x="513.5" y="-462" font-family="Helvetica,sans-Serif" font-size="10.00">net::rc::SocketAddress</text>
<text xml:space="preserve" text-anchor="middle" x="567.5" y="-449.25" font-family="Helvetica,sans-Serif" font-size="10.00">::SocketAddress</text>
</a>
</g>
</g>
<!-- Node1&#45;&gt;Node29 -->
<g id="edge30_Node000001_Node000029" class="edge">
<title>Node1&#45;&gt;Node29</title>
<g id="a_edge30_Node000001_Node000029"><a xlink:title=" ">
<path fill="none" stroke="#63b8ff" d="M702.3,-635.7C670.39,-593.5 608.26,-511.34 581.39,-475.8"/>
<polygon fill="#63b8ff" stroke="#63b8ff" points="699.44,-637.72 708.26,-643.58 705.02,-633.5 699.44,-637.72"/>
</a>
</g>
</g>
<!-- Node39 -->
<g id="Node000039" class="node">
<title>Node39</title>
<g id="a_Node000039"><a xlink:href="classnet_1_1un_1_1SocketAddress.html#af20aa53a2d0f4d9684b9a27d33176568" target="_top" xlink:title=" ">
<polygon fill="white" stroke="#666666" points="631,-293.5 504,-293.5 504,-260 631,-260 631,-293.5"/>
<text xml:space="preserve" text-anchor="start" x="512" y="-280" font-family="Helvetica,sans-Serif" font-size="10.00">net::un::SocketAddress</text>
<text xml:space="preserve" text-anchor="middle" x="567.5" y="-267.25" font-family="Helvetica,sans-Serif" font-size="10.00">::SocketAddress</text>
</a>
</g>
</g>
<!-- Node1&#45;&gt;Node39 -->
<g id="edge40_Node000001_Node000039" class="edge">
<title>Node1&#45;&gt;Node39</title>
<g id="a_edge40_Node000001_Node000039"><a xlink:title=" ">
<path fill="none" stroke="#63b8ff" d="M711.44,-634.29C694.85,-591.25 661.56,-505.32 632.5,-432.75 612.15,-381.93 587.38,-322.12 575.51,-293.56"/>
<polygon fill="#63b8ff" stroke="#63b8ff" points="708.07,-635.28 714.93,-643.35 714.6,-632.76 708.07,-635.28"/>
</a>
</g>
</g>
<!-- Node3 -->
<g id="Node000003" class="node">
<title>Node3</title>
<g id="a_Node000003"><a xlink:href="classnet_1_1in6_1_1SocketAddress.html#a72e0f16aadbf44771d2fc595eb3f06ea" target="_top" xlink:title=" ">
<polygon fill="white" stroke="#666666" points="466.5,-1289.5 336.5,-1289.5 336.5,-1256 466.5,-1256 466.5,-1289.5"/>
<text xml:space="preserve" text-anchor="start" x="344.5" y="-1276" font-family="Helvetica,sans-Serif" font-size="10.00">net::in6::SocketAddress</text>
<text xml:space="preserve" text-anchor="middle" x="401.5" y="-1263.25" font-family="Helvetica,sans-Serif" font-size="10.00">::SocketAddress</text>
</a>
</g>
</g>
<!-- Node2&#45;&gt;Node3 -->
<g id="edge2_Node000002_Node000003" class="edge">
<title>Node2&#45;&gt;Node3</title>
<g id="a_edge2_Node000002_Node000003"><a xlink:title=" ">
<path fill="none" stroke="#63b8ff" d="M525.26,-1217.3C507.38,-1226.79 486.1,-1237.7 466.5,-1246.75 460.08,-1249.72 453.21,-1252.7 446.46,-1255.53"/>
<polygon fill="#63b8ff" stroke="#63b8ff" points="526.84,-1220.42 534.01,-1212.62 523.54,-1214.25 526.84,-1220.42"/>
</a>
</g>
</g>
<!-- Node4 -->
<g id="Node000004" class="node">
<title>Node4</title>
<g id="a_Node000004"><a xlink:href="classnet_1_1in6_1_1SocketAddress.html#ab6d1b74c2d16f04b535ecc633c2677da" target="_top" xlink:title=" ">
<polygon fill="white" stroke="#666666" points="466.5,-1237.5 336.5,-1237.5 336.5,-1204 466.5,-1204 466.5,-1237.5"/>
<text xml:space="preserve" text-anchor="start" x="344.5" y="-1224" font-family="Helvetica,sans-Serif" font-size="10.00">net::in6::SocketAddress</text>
<text xml:space="preserve" text-anchor="middle" x="401.5" y="-1211.25" font-family="Helvetica,sans-Serif" font-size="10.00">::SocketAddress</text>
</a>
</g>
</g>
<!-- Node2&#45;&gt;Node4 -->
<g id="edge3_Node000002_Node000004" class="edge">
<title>Node2&#45;&gt;Node4</title>
<g id="a_edge3_Node000002_Node000004"><a xlink:title=" ">
<path fill="none" stroke="#63b8ff" d="M490.91,-1206.73C482.9,-1208 474.8,-1209.29 466.93,-1210.54"/>
<polygon fill="#63b8ff" stroke="#63b8ff" points="491.33,-1210.21 500.66,-1205.19 490.23,-1203.3 491.33,-1210.21"/>
</a>
</g>
</g>
<!-- Node10 -->
<g id="Node000010" class="node">
<title>Node10</title>
<g id="a_Node000010"><a xlink:href="classnet_1_1in6_1_1SocketAddress.html#a0f84284a49b0dd3128bfad1720013a13" target="_top" xlink:title=" ">
<polygon fill="white" stroke="#666666" points="466.5,-1185.5 336.5,-1185.5 336.5,-1152 466.5,-1152 466.5,-1185.5"/>
<text xml:space="preserve" text-anchor="start" x="344.5" y="-1172" font-family="Helvetica,sans-Serif" font-size="10.00">net::in6::SocketAddress</text>
<text xml:space="preserve" text-anchor="middle" x="401.5" y="-1159.25" font-family="Helvetica,sans-Serif" font-size="10.00">::SocketAddress</text>
</a>
</g>
</g>
<!-- Node2&#45;&gt;Node10 -->
<g id="edge9_Node000002_Node000010" class="edge">
<title>Node2&#45;&gt;Node10</title>
<g id="a_edge9_Node000002_Node000010"><a xlink:title=" ">
<path fill="none" stroke="#63b8ff" d="M490.91,-1182.77C482.9,-1181.5 474.8,-1180.21 466.93,-1178.96"/>
<polygon fill="#63b8ff" stroke="#63b8ff" points="490.23,-1186.2 500.66,-1184.31 491.33,-1179.29 490.23,-1186.2"/>
</a>
</g>
</g>
<!-- Node5 -->
<g id="Node000005" class="node">
<title>Node5</title>
<g id="a_Node000005"><a xlink:href="namespaceweb_1_1http_1_1legacy_1_1in6.html#ac28a8fdc54f00f2d8f3e92423bb188c2" target="_top" xlink:title=" ">
<polygon fill="white" stroke="#666666" points="241.25,-1367.5 136,-1367.5 136,-1334 241.25,-1334 241.25,-1367.5"/>
<text xml:space="preserve" text-anchor="start" x="144" y="-1354" font-family="Helvetica,sans-Serif" font-size="10.00">web::http::legacy::</text>
<text xml:space="preserve" text-anchor="middle" x="188.62" y="-1341.25" font-family="Helvetica,sans-Serif" font-size="10.00">in6::EventSource</text>
</a>
</g>
</g>
<!-- Node4&#45;&gt;Node5 -->
<g id="edge4_Node000004_Node000005" class="edge">
<title>Node4&#45;&gt;Node5</title>
<g id="a_edge4_Node000004_Node000005"><a xlink:title=" ">
<path fill="none" stroke="#63b8ff" d="M338.84,-1244.63C338.04,-1245.32 337.26,-1246.03 336.5,-1246.75 308.88,-1273.11 330.08,-1300.61 300.5,-1324.75 284.03,-1338.19 261.84,-1344.92 241.64,-1348.22"/>
<polygon fill="#63b8ff" stroke="#63b8ff" points="340.81,-1247.53 346.88,-1238.85 336.72,-1241.85 340.81,-1247.53"/>
</a>
</g>
</g>
<!-- Node6 -->
<g id="Node000006" class="node">
<title>Node6</title>
<g id="a_Node000006"><a xlink:href="namespaceweb_1_1http_1_1legacy_1_1in6.html#a1e5d4ac91fb044b825c173fc00b77685" target="_top" xlink:title=" ">
<polygon fill="white" stroke="#666666" points="241.25,-1315.5 136,-1315.5 136,-1282 241.25,-1282 241.25,-1315.5"/>
<text xml:space="preserve" text-anchor="start" x="144" y="-1302" font-family="Helvetica,sans-Serif" font-size="10.00">web::http::legacy::</text>
<text xml:space="preserve" text-anchor="middle" x="188.62" y="-1289.25" font-family="Helvetica,sans-Serif" font-size="10.00">in6::EventSource</text>
</a>
</g>
</g>
<!-- Node4&#45;&gt;Node6 -->
<g id="edge5_Node000004_Node000006" class="edge">
<title>Node4&#45;&gt;Node6</title>
<g id="a_edge5_Node000004_Node000006"><a xlink:title=" ">
<path fill="none" stroke="#63b8ff" d="M344.16,-1242.73C341.55,-1244.04 338.98,-1245.38 336.5,-1246.75 319.23,-1256.31 318.46,-1264.56 300.5,-1272.75 282.06,-1281.16 260.61,-1287 241.52,-1290.99"/>
<polygon fill="#63b8ff" stroke="#63b8ff" points="345.49,-1245.97 353.05,-1238.55 342.52,-1239.64 345.49,-1245.97"/>
</a>
</g>
</g>
<!-- Node7 -->
<g id="Node000007" class="node">
<title>Node7</title>
<g id="a_Node000007"><a xlink:href="namespaceweb_1_1http_1_1tls_1_1in6.html#ac965fe4ffc3328a0b5b159d2d52e09ed" target="_top" xlink:title=" ">
<polygon fill="white" stroke="#666666" points="239,-1263.5 138.25,-1263.5 138.25,-1230 239,-1230 239,-1263.5"/>
<text xml:space="preserve" text-anchor="start" x="146.25" y="-1250" font-family="Helvetica,sans-Serif" font-size="10.00">web::http::tls::in6</text>
<text xml:space="preserve" text-anchor="middle" x="188.62" y="-1237.25" font-family="Helvetica,sans-Serif" font-size="10.00">::EventSource</text>
</a>
</g>
</g>
<!-- Node4&#45;&gt;Node7 -->
<g id="edge6_Node000004_Node000007" class="edge">
<title>Node4&#45;&gt;Node7</title>
<g id="a_edge6_Node000004_Node000007"><a xlink:title=" ">
<path fill="none" stroke="#63b8ff" d="M324.93,-1230.07C296.44,-1233.58 264.79,-1237.48 239.26,-1240.63"/>
<polygon fill="#63b8ff" stroke="#63b8ff" points="325.09,-1233.57 334.58,-1228.88 324.23,-1226.63 325.09,-1233.57"/>
</a>
</g>
</g>
<!-- Node8 -->
<g id="Node000008" class="node">
<title>Node8</title>
<g id="a_Node000008"><a xlink:href="namespaceweb_1_1http_1_1tls_1_1in6.html#a42040252e96c62947dcb4af3fe50fd6c" target="_top" xlink:title=" ">
<polygon fill="white" stroke="#666666" points="239,-1211.5 138.25,-1211.5 138.25,-1178 239,-1178 239,-1211.5"/>
<text xml:space="preserve" text-anchor="start" x="146.25" y="-1198" font-family="Helvetica,sans-Serif" font-size="10.00">web::http::tls::in6</text>
<text xml:space="preserve" text-anchor="middle" x="188.62" y="-1185.25" font-family="Helvetica,sans-Serif" font-size="10.00">::EventSource</text>
</a>
</g>
</g>
<!-- Node4&#45;&gt;Node8 -->
<g id="edge7_Node000004_Node000008" class="edge">
<title>Node4&#45;&gt;Node8</title>
<g id="a_edge7_Node000004_Node000008"><a xlink:title=" ">
<path fill="none" stroke="#63b8ff" d="M324.93,-1211.43C296.44,-1207.92 264.79,-1204.02 239.26,-1200.87"/>
<polygon fill="#63b8ff" stroke="#63b8ff" points="324.23,-1214.87 334.58,-1212.62 325.09,-1207.93 324.23,-1214.87"/>
</a>
</g>
</g>
<!-- Node9 -->
<g id="Node000009" class="node">
<title>Node9</title>
<g id="a_Node000009"><a xlink:href="classnet_1_1in6_1_1config_1_1ConfigAddress.html#a9084cd70d152d5e1d701b30de6c92565" target="_top" xlink:title=" ">
<polygon fill="white" stroke="#666666" points="251.75,-1159.5 125.5,-1159.5 125.5,-1126 251.75,-1126 251.75,-1159.5"/>
<text xml:space="preserve" text-anchor="start" x="133.5" y="-1146" font-family="Helvetica,sans-Serif" font-size="10.00">net::in6::config::Config</text>
<text xml:space="preserve" text-anchor="middle" x="188.62" y="-1133.25" font-family="Helvetica,sans-Serif" font-size="10.00">Address::init</text>
</a>
</g>
</g>
<!-- Node4&#45;&gt;Node9 -->
<g id="edge8_Node000004_Node000009" class="edge">
<title>Node4&#45;&gt;Node9</title>
<g id="a_edge8_Node000004_Node000009"><a xlink:title=" ">
<path fill="none" stroke="#63b8ff" d="M344.16,-1198.77C341.55,-1197.46 338.98,-1196.12 336.5,-1194.75 319.23,-1185.19 318.46,-1176.94 300.5,-1168.75 285.39,-1161.86 268.26,-1156.69 252.06,-1152.86"/>
<polygon fill="#63b8ff" stroke="#63b8ff" points="342.52,-1201.86 353.05,-1202.95 345.49,-1195.53 342.52,-1201.86"/>
</a>
</g>
</g>
<!-- Node12 -->
<g id="Node000012" class="node">
<title>Node12</title>
<g id="a_Node000012"><a xlink:href="classnet_1_1in_1_1SocketAddress.html#a3cf9caad7f650b67627e07d6c33ea657" target="_top" xlink:title=" ">
<polygon fill="white" stroke="#666666" points="463.5,-958.5 339.5,-958.5 339.5,-925 463.5,-925 463.5,-958.5"/>
<text xml:space="preserve" text-anchor="start" x="347.5" y="-945" font-family="Helvetica,sans-Serif" font-size="10.00">net::in::SocketAddress</text>
<text xml:space="preserve" text-anchor="middle" x="401.5" y="-932.25" font-family="Helvetica,sans-Serif" font-size="10.00">::SocketAddress</text>
</a>
</g>
</g>
<!-- Node11&#45;&gt;Node12 -->
<g id="edge11_Node000011_Node000012" class="edge">
<title>Node11&#45;&gt;Node12</title>
<g id="a_edge11_Node000011_Node000012"><a xlink:title=" ">
<path fill="none" stroke="#63b8ff" d="M525.26,-886.3C507.38,-895.79 486.1,-906.7 466.5,-915.75 460.08,-918.72 453.21,-921.7 446.46,-924.53"/>
<polygon fill="#63b8ff" stroke="#63b8ff" points="526.84,-889.42 534.01,-881.62 523.54,-883.25 526.84,-889.42"/>
</a>
</g>
</g>
<!-- Node13 -->
<g id="Node000013" class="node">
<title>Node13</title>
<g id="a_Node000013"><a xlink:href="classnet_1_1in_1_1SocketAddress.html#a057d046a3dfdb55eb9ceb9793aa0495b" target="_top" xlink:title=" ">
<polygon fill="white" stroke="#666666" points="463.5,-906.5 339.5,-906.5 339.5,-873 463.5,-873 463.5,-906.5"/>
<text xml:space="preserve" text-anchor="start" x="347.5" y="-893" font-family="Helvetica,sans-Serif" font-size="10.00">net::in::SocketAddress</text>
<text xml:space="preserve" text-anchor="middle" x="401.5" y="-880.25" font-family="Helvetica,sans-Serif" font-size="10.00">::SocketAddress</text>
</a>
</g>
</g>
<!-- Node11&#45;&gt;Node13 -->
<g id="edge12_Node000011_Node000013" class="edge">
<title>Node11&#45;&gt;Node13</title>
<g id="a_edge12_Node000011_Node000013"><a xlink:title=" ">
<path fill="none" stroke="#63b8ff" d="M494.15,-875.22C484.05,-876.82 473.76,-878.45 463.89,-880.02"/>
<polygon fill="#63b8ff" stroke="#63b8ff" points="494.61,-878.69 503.94,-873.67 493.51,-871.78 494.61,-878.69"/>
</a>
</g>
</g>
<!-- Node22 -->
<g id="Node000022" class="node">
<title>Node22</title>
<g id="a_Node000022"><a xlink:href="classnet_1_1in_1_1SocketAddress.html#a30519704d67e0971240afa1611ed63a1" target="_top" xlink:title=" ">
<polygon fill="white" stroke="#666666" points="463.5,-854.5 339.5,-854.5 339.5,-821 463.5,-821 463.5,-854.5"/>
<text xml:space="preserve" text-anchor="start" x="347.5" y="-841" font-family="Helvetica,sans-Serif" font-size="10.00">net::in::SocketAddress</text>
<text xml:space="preserve" text-anchor="middle" x="401.5" y="-828.25" font-family="Helvetica,sans-Serif" font-size="10.00">::SocketAddress</text>
</a>
</g>
</g>
<!-- Node11&#45;&gt;Node22 -->
<g id="edge23_Node000011_Node000022" class="edge">
<title>Node11&#45;&gt;Node22</title>
<g id="a_edge23_Node000011_Node000022"><a xlink:title=" ">
<path fill="none" stroke="#63b8ff" d="M494.15,-852.28C484.05,-850.68 473.76,-849.05 463.89,-847.48"/>
<polygon fill="#63b8ff" stroke="#63b8ff" points="493.51,-855.72 503.94,-853.83 494.61,-848.81 493.51,-855.72"/>
</a>
</g>
</g>
<!-- Node14 -->
<g id="Node000014" class="node">
<title>Node14</title>
<g id="a_Node000014"><a xlink:href="namespaceweb_1_1http_1_1legacy_1_1in.html#a44e8b2af41d9a6348237b6db5b16782c" target="_top" xlink:title=" ">
<polygon fill="white" stroke="#666666" points="241.25,-1107.5 136,-1107.5 136,-1074 241.25,-1074 241.25,-1107.5"/>
<text xml:space="preserve" text-anchor="start" x="144" y="-1094" font-family="Helvetica,sans-Serif" font-size="10.00">web::http::legacy::</text>
<text xml:space="preserve" text-anchor="middle" x="188.62" y="-1081.25" font-family="Helvetica,sans-Serif" font-size="10.00">in::EventSource</text>
</a>
</g>
</g>
<!-- Node13&#45;&gt;Node14 -->
<g id="edge13_Node000013_Node000014" class="edge">
<title>Node13&#45;&gt;Node14</title>
<g id="a_edge13_Node000013_Node000014"><a xlink:title=" ">
<path fill="none" stroke="#63b8ff" d="M337.89,-914.21C337.42,-914.71 336.95,-915.22 336.5,-915.75 292.04,-967.37 348.84,-1016.74 300.5,-1064.75 285.07,-1080.08 262.43,-1087.03 241.62,-1089.98"/>
<polygon fill="#63b8ff" stroke="#63b8ff" points="339.98,-917.02 345.33,-907.88 335.45,-911.69 339.98,-917.02"/>
</a>
</g>
</g>
<!-- Node15 -->
<g id="Node000015" class="node">
<title>Node15</title>
<g id="a_Node000015"><a xlink:href="namespaceweb_1_1http_1_1legacy_1_1in.html#a3d33478462864714a20ec4a4fe2f15c2" target="_top" xlink:title=" ">
<polygon fill="white" stroke="#666666" points="241.25,-1055.5 136,-1055.5 136,-1022 241.25,-1022 241.25,-1055.5"/>
<text xml:space="preserve" text-anchor="start" x="144" y="-1042" font-family="Helvetica,sans-Serif" font-size="10.00">web::http::legacy::</text>
<text xml:space="preserve" text-anchor="middle" x="188.62" y="-1029.25" font-family="Helvetica,sans-Serif" font-size="10.00">in::EventSource</text>
</a>
</g>
</g>
<!-- Node13&#45;&gt;Node15 -->
<g id="edge14_Node000013_Node000015" class="edge">
<title>Node13&#45;&gt;Node15</title>
<g id="a_edge14_Node000013_Node000015"><a xlink:title=" ">
<path fill="none" stroke="#63b8ff" d="M338.71,-913.61C337.95,-914.3 337.21,-915.02 336.5,-915.75 304.48,-948.76 334.98,-982.33 300.5,-1012.75 284.41,-1026.94 262.05,-1033.77 241.61,-1036.94"/>
<polygon fill="#63b8ff" stroke="#63b8ff" points="340.49,-916.65 346.32,-907.8 336.24,-911.08 340.49,-916.65"/>
</a>
</g>
</g>
<!-- Node16 -->
<g id="Node000016" class="node">
<title>Node16</title>
<g id="a_Node000016"><a xlink:href="namespaceweb_1_1http_1_1tls_1_1in.html#a3785aca13fa8e5da263115470901596a" target="_top" xlink:title=" ">
<polygon fill="white" stroke="#666666" points="236,-1003.5 141.25,-1003.5 141.25,-970 236,-970 236,-1003.5"/>
<text xml:space="preserve" text-anchor="start" x="149.25" y="-990" font-family="Helvetica,sans-Serif" font-size="10.00">web::http::tls::in</text>
<text xml:space="preserve" text-anchor="middle" x="188.62" y="-977.25" font-family="Helvetica,sans-Serif" font-size="10.00">::EventSource</text>
</a>
</g>
</g>
<!-- Node13&#45;&gt;Node16 -->
<g id="edge15_Node000013_Node000016" class="edge">
<title>Node13&#45;&gt;Node16</title>
<g id="a_edge15_Node000013_Node000016"><a xlink:title=" ">
<path fill="none" stroke="#63b8ff" d="M341.22,-912.47C339.6,-913.52 338.02,-914.62 336.5,-915.75 315.97,-931.07 322.16,-947.08 300.5,-960.75 281.36,-972.84 257.16,-979.31 236.26,-982.78"/>
<polygon fill="#63b8ff" stroke="#63b8ff" points="342.67,-915.67 349.57,-907.63 339.17,-909.61 342.67,-915.67"/>
</a>
</g>
</g>
<!-- Node17 -->
<g id="Node000017" class="node">
<title>Node17</title>
<g id="a_Node000017"><a xlink:href="namespaceweb_1_1http_1_1tls_1_1in.html#ad736364b02baf14dabbba825a7f8f40c" target="_top" xlink:title=" ">
<polygon fill="white" stroke="#666666" points="236,-951.5 141.25,-951.5 141.25,-918 236,-918 236,-951.5"/>
<text xml:space="preserve" text-anchor="start" x="149.25" y="-938" font-family="Helvetica,sans-Serif" font-size="10.00">web::http::tls::in</text>
<text xml:space="preserve" text-anchor="middle" x="188.62" y="-925.25" font-family="Helvetica,sans-Serif" font-size="10.00">::EventSource</text>
</a>
</g>
</g>
<!-- Node13&#45;&gt;Node17 -->
<g id="edge16_Node000013_Node000017" class="edge">
<title>Node13&#45;&gt;Node17</title>
<g id="a_edge16_Node000013_Node000017"><a xlink:title=" ">
<path fill="none" stroke="#63b8ff" d="M328.22,-905.17C297.8,-911.67 263.27,-919.03 236.29,-924.79"/>
<polygon fill="#63b8ff" stroke="#63b8ff" points="328.69,-908.65 337.74,-903.14 327.23,-901.81 328.69,-908.65"/>
</a>
</g>
</g>
<!-- Node18 -->
<g id="Node000018" class="node">
<title>Node18</title>
<g id="a_Node000018"><a xlink:href="namespacetls.html#ac9c248ad49fa1a968e28d6e1a4e1a1c0" target="_top" xlink:title=" ">
<polygon fill="white" stroke="#666666" points="227.75,-900.12 149.5,-900.12 149.5,-879.38 227.75,-879.38 227.75,-900.12"/>
<text xml:space="preserve" text-anchor="middle" x="188.62" y="-886.62" font-family="Helvetica,sans-Serif" font-size="10.00">tls::getClient</text>
</a>
</g>
</g>
<!-- Node13&#45;&gt;Node18 -->
<g id="edge17_Node000013_Node000018" class="edge">
<title>Node13&#45;&gt;Node18</title>
<g id="a_edge17_Node000013_Node000018"><a xlink:title=" ">
<path fill="none" stroke="#63b8ff" d="M328.06,-889.75C294.51,-889.75 256,-889.75 228.13,-889.75"/>
<polygon fill="#63b8ff" stroke="#63b8ff" points="327.71,-893.25 337.71,-889.75 327.71,-886.25 327.71,-893.25"/>
</a>
</g>
</g>
<!-- Node19 -->
<g id="Node000019" class="node">
<title>Node19</title>
<g id="a_Node000019"><a xlink:href="httplowlevelclient_8cpp.html#a0ddf1224851353fc92bfbff6f499fa97" target="_top" xlink:title=" ">
<polygon fill="white" stroke="#666666" points="40.75,-862.12 0,-862.12 0,-841.38 40.75,-841.38 40.75,-862.12"/>
<text xml:space="preserve" text-anchor="middle" x="20.38" y="-848.62" font-family="Helvetica,sans-Serif" font-size="10.00">main</text>
</a>
</g>
</g>
<!-- Node13&#45;&gt;Node19 -->
<g id="edge22_Node000013_Node000019" class="edge">
<title>Node13&#45;&gt;Node19</title>
<g id="a_edge22_Node000013_Node000019"><a xlink:title=" ">
<path fill="none" stroke="#63b8ff" d="M327.93,-874.91C318.72,-873.34 309.41,-871.9 300.5,-870.75 203.67,-858.3 86.82,-853.69 41.08,-852.28"/>
<polygon fill="#63b8ff" stroke="#63b8ff" points="327.13,-878.32 337.58,-876.62 328.35,-871.43 327.13,-878.32"/>
</a>
</g>
</g>
<!-- Node20 -->
<g id="Node000020" class="node">
<title>Node20</title>
<g id="a_Node000020"><a xlink:href="namespacelegacy.html#af964e2e82f4d4b80cea76cf218ba671c" target="_top" xlink:title=" ">
<polygon fill="white" stroke="#666666" points="254.75,-824.12 122.5,-824.12 122.5,-803.38 254.75,-803.38 254.75,-824.12"/>
<text xml:space="preserve" text-anchor="middle" x="188.62" y="-810.62" font-family="Helvetica,sans-Serif" font-size="10.00">legacy::getLegacyClient</text>
</a>
</g>
</g>
<!-- Node13&#45;&gt;Node20 -->
<g id="edge19_Node000013_Node000020" class="edge">
<title>Node13&#45;&gt;Node20</title>
<g id="a_edge19_Node000013_Node000020"><a xlink:title=" ">
<path fill="none" stroke="#63b8ff" d="M344.16,-867.77C341.55,-866.46 338.98,-865.12 336.5,-863.75 319.23,-854.19 318.53,-845.79 300.5,-837.75 286.29,-831.42 270.29,-826.7 254.96,-823.22"/>
<polygon fill="#63b8ff" stroke="#63b8ff" points="342.52,-870.86 353.05,-871.95 345.49,-864.53 342.52,-870.86"/>
</a>
</g>
</g>
<!-- Node21 -->
<g id="Node000021" class="node">
<title>Node21</title>
<g id="a_Node000021"><a xlink:href="classnet_1_1in_1_1config_1_1ConfigAddress.html#a7c495ecbd26cca879e29d8887f5e6f0c" target="_top" xlink:title=" ">
<polygon fill="white" stroke="#666666" points="268.25,-785.5 109,-785.5 109,-752 268.25,-752 268.25,-785.5"/>
<text xml:space="preserve" text-anchor="start" x="117" y="-772" font-family="Helvetica,sans-Serif" font-size="10.00">net::in::config::ConfigAddress</text>
<text xml:space="preserve" text-anchor="middle" x="188.62" y="-759.25" font-family="Helvetica,sans-Serif" font-size="10.00">::init</text>
</a>
</g>
</g>
<!-- Node13&#45;&gt;Node21 -->
<g id="edge21_Node000013_Node000021" class="edge">
<title>Node13&#45;&gt;Node21</title>
<g id="a_edge21_Node000013_Node000021"><a xlink:title=" ">
<path fill="none" stroke="#63b8ff" d="M339.31,-866.16C338.35,-865.38 337.41,-864.58 336.5,-863.75 310.91,-840.48 327.82,-815.96 300.5,-794.75 291.13,-787.48 280.06,-782.18 268.6,-778.34"/>
<polygon fill="#63b8ff" stroke="#63b8ff" points="337.13,-868.9 347.35,-871.68 341.09,-863.13 337.13,-868.9"/>
</a>
</g>
</g>
<!-- Node18&#45;&gt;Node19 -->
<g id="edge18_Node000018_Node000019" class="edge">
<title>Node18&#45;&gt;Node19</title>
<g id="a_edge18_Node000018_Node000019"><a xlink:title=" ">
<path fill="none" stroke="#63b8ff" d="M137.87,-879.36C118.73,-875.27 96.69,-870.43 76.75,-865.75 64.88,-862.96 51.63,-859.62 41.07,-856.9"/>
<polygon fill="#63b8ff" stroke="#63b8ff" points="137.08,-882.77 147.59,-881.43 138.53,-875.92 137.08,-882.77"/>
</a>
</g>
</g>
<!-- Node20&#45;&gt;Node19 -->
<g id="edge20_Node000020_Node000019" class="edge">
<title>Node20&#45;&gt;Node19</title>
<g id="a_edge20_Node000020_Node000019"><a xlink:title=" ">
<path fill="none" stroke="#63b8ff" d="M124.49,-827.02C108.86,-830.42 92.18,-834.13 76.75,-837.75 64.88,-840.54 51.63,-843.88 41.07,-846.6"/>
<polygon fill="#63b8ff" stroke="#63b8ff" points="125.13,-830.46 134.17,-824.93 123.66,-823.62 125.13,-830.46"/>
</a>
</g>
</g>
<!-- Node24 -->
<g id="Node000024" class="node">
<title>Node24</title>
<g id="a_Node000024"><a xlink:href="classnet_1_1l2_1_1SocketAddress.html#a44651cacfd5e35283d9d06e221e1cb19" target="_top" xlink:title=" ">
<polygon fill="white" stroke="#666666" points="463.5,-730.5 339.5,-730.5 339.5,-697 463.5,-697 463.5,-730.5"/>
<text xml:space="preserve" text-anchor="start" x="347.5" y="-717" font-family="Helvetica,sans-Serif" font-size="10.00">net::l2::SocketAddress</text>
<text xml:space="preserve" text-anchor="middle" x="401.5" y="-704.25" font-family="Helvetica,sans-Serif" font-size="10.00">::SocketAddress</text>
</a>
</g>
</g>
<!-- Node23&#45;&gt;Node24 -->
<g id="edge25_Node000023_Node000024" class="edge">
<title>Node23&#45;&gt;Node24</title>
<g id="a_edge25_Node000023_Node000024"><a xlink:title=" ">
<path fill="none" stroke="#63b8ff" d="M501.71,-682.29C486.86,-687 471.23,-691.96 456.88,-696.51"/>
<polygon fill="#63b8ff" stroke="#63b8ff" points="502.43,-685.74 510.9,-679.38 500.31,-679.06 502.43,-685.74"/>
</a>
</g>
</g>
<!-- Node25 -->
<g id="Node000025" class="node">
<title>Node25</title>
<g id="a_Node000025"><a xlink:href="classnet_1_1l2_1_1SocketAddress.html#a261ee626d0917427fc77ecaefd077547" target="_top" xlink:title=" ">
<polygon fill="white" stroke="#666666" points="463.5,-678.5 339.5,-678.5 339.5,-645 463.5,-645 463.5,-678.5"/>
<text xml:space="preserve" text-anchor="start" x="347.5" y="-665" font-family="Helvetica,sans-Serif" font-size="10.00">net::l2::SocketAddress</text>
<text xml:space="preserve" text-anchor="middle" x="401.5" y="-652.25" font-family="Helvetica,sans-Serif" font-size="10.00">::SocketAddress</text>
</a>
</g>
</g>
<!-- Node23&#45;&gt;Node25 -->
<g id="edge26_Node000023_Node000025" class="edge">
<title>Node23&#45;&gt;Node25</title>
<g id="a_edge26_Node000023_Node000025"><a xlink:title=" ">
<path fill="none" stroke="#63b8ff" d="M494.15,-661.75C484.05,-661.75 473.76,-661.75 463.89,-661.75"/>
<polygon fill="#63b8ff" stroke="#63b8ff" points="493.92,-665.25 503.92,-661.75 493.92,-658.25 493.92,-665.25"/>
</a>
</g>
</g>
<!-- Node28 -->
<g id="Node000028" class="node">
<title>Node28</title>
<g id="a_Node000028"><a xlink:href="classnet_1_1l2_1_1SocketAddress.html#a56347b3d827dbc14a9f4d212b28f9c7d" target="_top" xlink:title=" ">
<polygon fill="white" stroke="#666666" points="463.5,-626.5 339.5,-626.5 339.5,-593 463.5,-593 463.5,-626.5"/>
<text xml:space="preserve" text-anchor="start" x="347.5" y="-613" font-family="Helvetica,sans-Serif" font-size="10.00">net::l2::SocketAddress</text>
<text xml:space="preserve" text-anchor="middle" x="401.5" y="-600.25" font-family="Helvetica,sans-Serif" font-size="10.00">::SocketAddress</text>
</a>
</g>
</g>
<!-- Node23&#45;&gt;Node28 -->
<g id="edge29_Node000023_Node000028" class="edge">
<title>Node23&#45;&gt;Node28</title>
<g id="a_edge29_Node000023_Node000028"><a xlink:title=" ">
<path fill="none" stroke="#63b8ff" d="M501.71,-641.21C486.86,-636.5 471.23,-631.54 456.88,-626.99"/>
<polygon fill="#63b8ff" stroke="#63b8ff" points="500.31,-644.44 510.9,-644.12 502.43,-637.76 500.31,-644.44"/>
</a>
</g>
</g>
<!-- Node26 -->
<g id="Node000026" class="node">
<title>Node26</title>
<g id="a_Node000026"><a xlink:href="classnet_1_1l2_1_1stream_1_1SocketClient.html#a453e3b33bb02f89553edcf84ac4ae88c" target="_top" xlink:title=" ">
<polygon fill="white" stroke="#666666" points="300.5,-733.62 76.75,-733.62 76.75,-661.88 300.5,-661.88 300.5,-733.62"/>
<text xml:space="preserve" text-anchor="start" x="84.75" y="-720.12" font-family="Helvetica,sans-Serif" font-size="10.00">net::l2::stream::SocketClient</text>
<text xml:space="preserve" text-anchor="start" x="84.75" y="-707.38" font-family="Helvetica,sans-Serif" font-size="10.00">&lt; core::socket::stream::legacy</text>
<text xml:space="preserve" text-anchor="start" x="84.75" y="-694.62" font-family="Helvetica,sans-Serif" font-size="10.00">::SocketConnector, net::l2::stream</text>
<text xml:space="preserve" text-anchor="start" x="84.75" y="-681.88" font-family="Helvetica,sans-Serif" font-size="10.00">::legacy::config::ConfigSocketClient,</text>
<text xml:space="preserve" text-anchor="middle" x="188.62" y="-669.12" font-family="Helvetica,sans-Serif" font-size="10.00"> SocketContextFactoryT, Args... &gt;::connect</text>
</a>
</g>
</g>
<!-- Node25&#45;&gt;Node26 -->
<g id="edge27_Node000025_Node000026" class="edge">
<title>Node25&#45;&gt;Node26</title>
<g id="a_edge27_Node000025_Node000026"><a xlink:title=" ">
<path fill="none" stroke="#63b8ff" d="M328.16,-674.1C319.26,-675.62 310.02,-677.2 300.71,-678.79"/>
<polygon fill="#63b8ff" stroke="#63b8ff" points="328.46,-677.6 337.73,-672.47 327.28,-670.7 328.46,-677.6"/>
</a>
</g>
</g>
<!-- Node27 -->
<g id="Node000027" class="node">
<title>Node27</title>
<g id="a_Node000027"><a xlink:href="classnet_1_1l2_1_1config_1_1ConfigAddress.html#ae5a9e0d8a3a65ab4f0d93766e574334d" target="_top" xlink:title=" ">
<polygon fill="white" stroke="#666666" points="268.25,-643.5 109,-643.5 109,-610 268.25,-610 268.25,-643.5"/>
<text xml:space="preserve" text-anchor="start" x="117" y="-630" font-family="Helvetica,sans-Serif" font-size="10.00">net::l2::config::ConfigAddress</text>
<text xml:space="preserve" text-anchor="middle" x="188.62" y="-617.25" font-family="Helvetica,sans-Serif" font-size="10.00">::init</text>
</a>
</g>
</g>
<!-- Node25&#45;&gt;Node27 -->
<g id="edge28_Node000025_Node000027" class="edge">
<title>Node25&#45;&gt;Node27</title>
<g id="a_edge28_Node000025_Node000027"><a xlink:title=" ">
<path fill="none" stroke="#63b8ff" d="M328.1,-649.73C308.84,-646.54 287.95,-643.07 268.37,-639.82"/>
<polygon fill="#63b8ff" stroke="#63b8ff" points="327.29,-653.15 337.73,-651.33 328.44,-646.24 327.29,-653.15"/>
</a>
</g>
</g>
<!-- Node30 -->
<g id="Node000030" class="node">
<title>Node30</title>
<g id="a_Node000030"><a xlink:href="classnet_1_1rc_1_1SocketAddress.html#a7fb9a2440f8e17170c9b6ad02b2eab97" target="_top" xlink:title=" ">
<polygon fill="white" stroke="#666666" points="463.5,-501.5 339.5,-501.5 339.5,-468 463.5,-468 463.5,-501.5"/>
<text xml:space="preserve" text-anchor="start" x="347.5" y="-488" font-family="Helvetica,sans-Serif" font-size="10.00">net::rc::SocketAddress</text>
<text xml:space="preserve" text-anchor="middle" x="401.5" y="-475.25" font-family="Helvetica,sans-Serif" font-size="10.00">::SocketAddress</text>
</a>
</g>
</g>
<!-- Node29&#45;&gt;Node30 -->
<g id="edge31_Node000029_Node000030" class="edge">
<title>Node29&#45;&gt;Node30</title>
<g id="a_edge31_Node000029_Node000030"><a xlink:title=" ">
<path fill="none" stroke="#63b8ff" d="M494.15,-470.22C484.05,-471.82 473.76,-473.45 463.89,-475.02"/>
<polygon fill="#63b8ff" stroke="#63b8ff" points="494.61,-473.69 503.94,-468.67 493.51,-466.78 494.61,-473.69"/>
</a>
</g>
</g>
<!-- Node31 -->
<g id="Node000031" class="node">
<title>Node31</title>
<g id="a_Node000031"><a xlink:href="classnet_1_1rc_1_1SocketAddress.html#a4b5bf908d8cf00162d68918357184a66" target="_top" xlink:title=" ">
<polygon fill="white" stroke="#666666" points="463.5,-449.5 339.5,-449.5 339.5,-416 463.5,-416 463.5,-449.5"/>
<text xml:space="preserve" text-anchor="start" x="347.5" y="-436" font-family="Helvetica,sans-Serif" font-size="10.00">net::rc::SocketAddress</text>
<text xml:space="preserve" text-anchor="middle" x="401.5" y="-423.25" font-family="Helvetica,sans-Serif" font-size="10.00">::SocketAddress</text>
</a>
</g>
</g>
<!-- Node29&#45;&gt;Node31 -->
<g id="edge32_Node000029_Node000031" class="edge">
<title>Node29&#45;&gt;Node31</title>
<g id="a_edge32_Node000029_Node000031"><a xlink:title=" ">
<path fill="none" stroke="#63b8ff" d="M494.15,-447.28C484.05,-445.68 473.76,-444.05 463.89,-442.48"/>
<polygon fill="#63b8ff" stroke="#63b8ff" points="493.51,-450.72 503.94,-448.83 494.61,-443.81 493.51,-450.72"/>
</a>
</g>
</g>
<!-- Node38 -->
<g id="Node000038" class="node">
<title>Node38</title>
<g id="a_Node000038"><a xlink:href="classnet_1_1rc_1_1SocketAddress.html#ae1ebf22215c7b69e0fd9b60a35ae3c17" target="_top" xlink:title=" ">
<polygon fill="white" stroke="#666666" points="463.5,-397.5 339.5,-397.5 339.5,-364 463.5,-364 463.5,-397.5"/>
<text xml:space="preserve" text-anchor="start" x="347.5" y="-384" font-family="Helvetica,sans-Serif" font-size="10.00">net::rc::SocketAddress</text>
<text xml:space="preserve" text-anchor="middle" x="401.5" y="-371.25" font-family="Helvetica,sans-Serif" font-size="10.00">::SocketAddress</text>
</a>
</g>
</g>
<!-- Node29&#45;&gt;Node38 -->
<g id="edge39_Node000029_Node000038" class="edge">
<title>Node29&#45;&gt;Node38</title>
<g id="a_edge39_Node000029_Node000038"><a xlink:title=" ">
<path fill="none" stroke="#63b8ff" d="M525.26,-436.2C507.38,-426.71 486.1,-415.8 466.5,-406.75 460.08,-403.78 453.21,-400.8 446.46,-397.97"/>
<polygon fill="#63b8ff" stroke="#63b8ff" points="523.54,-439.25 534.01,-440.88 526.84,-433.08 523.54,-439.25"/>
</a>
</g>
</g>
<!-- Node32 -->
<g id="Node000032" class="node">
<title>Node32</title>
<g id="a_Node000032"><a xlink:href="classnet_1_1rc_1_1stream_1_1SocketClient.html#a02b288583e6eab646bf04ce2b1e97789" target="_top" xlink:title=" ">
<polygon fill="white" stroke="#666666" points="300.5,-591.62 76.75,-591.62 76.75,-519.88 300.5,-519.88 300.5,-591.62"/>
<text xml:space="preserve" text-anchor="start" x="84.75" y="-578.12" font-family="Helvetica,sans-Serif" font-size="10.00">net::rc::stream::SocketClient</text>
<text xml:space="preserve" text-anchor="start" x="84.75" y="-565.38" font-family="Helvetica,sans-Serif" font-size="10.00">&lt; core::socket::stream::legacy</text>
<text xml:space="preserve" text-anchor="start" x="84.75" y="-552.62" font-family="Helvetica,sans-Serif" font-size="10.00">::SocketConnector, net::rc::stream</text>
<text xml:space="preserve" text-anchor="start" x="84.75" y="-539.88" font-family="Helvetica,sans-Serif" font-size="10.00">::legacy::config::ConfigSocketClient,</text>
<text xml:space="preserve" text-anchor="middle" x="188.62" y="-527.12" font-family="Helvetica,sans-Serif" font-size="10.00"> SocketContextFactoryT, Args... &gt;::connect</text>
</a>
</g>
</g>
<!-- Node31&#45;&gt;Node32 -->
<g id="edge33_Node000031_Node000032" class="edge">
<title>Node31&#45;&gt;Node32</title>
<g id="a_edge33_Node000031_Node000032"><a xlink:title=" ">
<path fill="none" stroke="#63b8ff" d="M340.49,-455.76C339.12,-456.72 337.79,-457.72 336.5,-458.75 314.56,-476.33 322.44,-493.18 300.5,-510.75 296.61,-513.87 292.47,-516.8 288.17,-519.54"/>
<polygon fill="#63b8ff" stroke="#63b8ff" points="342.02,-458.93 348.7,-450.71 338.35,-452.97 342.02,-458.93"/>
</a>
</g>
</g>
<!-- Node33 -->
<g id="Node000033" class="node">
<title>Node33</title>
<g id="a_Node000033"><a xlink:href="namespaceweb_1_1http_1_1legacy_1_1rc.html#a6171de510922f92258358dd967087490" target="_top" xlink:title=" ">
<polygon fill="white" stroke="#666666" points="241.25,-501.5 136,-501.5 136,-468 241.25,-468 241.25,-501.5"/>
<text xml:space="preserve" text-anchor="start" x="144" y="-488" font-family="Helvetica,sans-Serif" font-size="10.00">web::http::legacy::</text>
<text xml:space="preserve" text-anchor="middle" x="188.62" y="-475.25" font-family="Helvetica,sans-Serif" font-size="10.00">rc::EventSource</text>
</a>
</g>
</g>
<!-- Node31&#45;&gt;Node33 -->
<g id="edge34_Node000031_Node000033" class="edge">
<title>Node31&#45;&gt;Node33</title>
<g id="a_edge34_Node000031_Node000033"><a xlink:title=" ">
<path fill="none" stroke="#63b8ff" d="M328.32,-451.74C318.97,-454.13 309.51,-456.52 300.5,-458.75 281.31,-463.49 260.19,-468.5 241.58,-472.84"/>
<polygon fill="#63b8ff" stroke="#63b8ff" points="328.94,-455.19 337.75,-449.31 327.19,-448.41 328.94,-455.19"/>
</a>
</g>
</g>
<!-- Node34 -->
<g id="Node000034" class="node">
<title>Node34</title>
<g id="a_Node000034"><a xlink:href="namespaceweb_1_1http_1_1legacy_1_1rc.html#a3068409d2605a4909d03a186f46b1b92" target="_top" xlink:title=" ">
<polygon fill="white" stroke="#666666" points="241.25,-449.5 136,-449.5 136,-416 241.25,-416 241.25,-449.5"/>
<text xml:space="preserve" text-anchor="start" x="144" y="-436" font-family="Helvetica,sans-Serif" font-size="10.00">web::http::legacy::</text>
<text xml:space="preserve" text-anchor="middle" x="188.62" y="-423.25" font-family="Helvetica,sans-Serif" font-size="10.00">rc::EventSource</text>
</a>
</g>
</g>
<!-- Node31&#45;&gt;Node34 -->
<g id="edge35_Node000031_Node000034" class="edge">
<title>Node31&#45;&gt;Node34</title>
<g id="a_edge35_Node000031_Node000034"><a xlink:title=" ">
<path fill="none" stroke="#63b8ff" d="M328.09,-432.75C299.59,-432.75 267.52,-432.75 241.42,-432.75"/>
<polygon fill="#63b8ff" stroke="#63b8ff" points="327.71,-436.25 337.71,-432.75 327.71,-429.25 327.71,-436.25"/>
</a>
</g>
</g>
<!-- Node35 -->
<g id="Node000035" class="node">
<title>Node35</title>
<g id="a_Node000035"><a xlink:href="namespaceweb_1_1http_1_1tls_1_1rc.html#a9cde3075d2aad932cacaa0b836105ea6" target="_top" xlink:title=" ">
<polygon fill="white" stroke="#666666" points="236,-397.5 141.25,-397.5 141.25,-364 236,-364 236,-397.5"/>
<text xml:space="preserve" text-anchor="start" x="149.25" y="-384" font-family="Helvetica,sans-Serif" font-size="10.00">web::http::tls::rc</text>
<text xml:space="preserve" text-anchor="middle" x="188.62" y="-371.25" font-family="Helvetica,sans-Serif" font-size="10.00">::EventSource</text>
</a>
</g>
</g>
<!-- Node31&#45;&gt;Node35 -->
<g id="edge36_Node000031_Node000035" class="edge">
<title>Node31&#45;&gt;Node35</title>
<g id="a_edge36_Node000031_Node000035"><a xlink:title=" ">
<path fill="none" stroke="#63b8ff" d="M328.32,-413.76C318.97,-411.37 309.51,-408.98 300.5,-406.75 279.48,-401.55 256.16,-396.05 236.35,-391.44"/>
<polygon fill="#63b8ff" stroke="#63b8ff" points="327.19,-417.09 337.75,-416.19 328.94,-410.31 327.19,-417.09"/>
</a>
</g>
</g>
<!-- Node36 -->
<g id="Node000036" class="node">
<title>Node36</title>
<g id="a_Node000036"><a xlink:href="namespaceweb_1_1http_1_1tls_1_1rc.html#aaf43903f22d218d5f43cae004c7101b4" target="_top" xlink:title=" ">
<polygon fill="white" stroke="#666666" points="236,-345.5 141.25,-345.5 141.25,-312 236,-312 236,-345.5"/>
<text xml:space="preserve" text-anchor="start" x="149.25" y="-332" font-family="Helvetica,sans-Serif" font-size="10.00">web::http::tls::rc</text>
<text xml:space="preserve" text-anchor="middle" x="188.62" y="-319.25" font-family="Helvetica,sans-Serif" font-size="10.00">::EventSource</text>
</a>
</g>
</g>
<!-- Node31&#45;&gt;Node36 -->
<g id="edge37_Node000031_Node000036" class="edge">
<title>Node31&#45;&gt;Node36</title>
<g id="a_edge37_Node000031_Node000036"><a xlink:title=" ">
<path fill="none" stroke="#63b8ff" d="M340.49,-409.74C339.12,-408.78 337.79,-407.78 336.5,-406.75 314.56,-389.17 323.73,-370.57 300.5,-354.75 281.71,-341.95 257.42,-335.41 236.38,-332.08"/>
<polygon fill="#63b8ff" stroke="#63b8ff" points="338.35,-412.53 348.7,-414.79 342.02,-406.57 338.35,-412.53"/>
</a>
</g>
</g>
<!-- Node37 -->
<g id="Node000037" class="node">
<title>Node37</title>
<g id="a_Node000037"><a xlink:href="classnet_1_1rc_1_1config_1_1ConfigAddress.html#a1abb7a953202db98625b2591590ea420" target="_top" xlink:title=" ">
<polygon fill="white" stroke="#666666" points="268.25,-293.5 109,-293.5 109,-260 268.25,-260 268.25,-293.5"/>
<text xml:space="preserve" text-anchor="start" x="117" y="-280" font-family="Helvetica,sans-Serif" font-size="10.00">net::rc::config::ConfigAddress</text>
<text xml:space="preserve" text-anchor="middle" x="188.62" y="-267.25" font-family="Helvetica,sans-Serif" font-size="10.00">::init</text>
</a>
</g>
</g>
<!-- Node31&#45;&gt;Node37 -->
<g id="edge38_Node000031_Node000037" class="edge">
<title>Node31&#45;&gt;Node37</title>
<g id="a_edge38_Node000031_Node000037"><a xlink:title=" ">
<path fill="none" stroke="#63b8ff" d="M338.36,-408.61C337.72,-408.01 337.1,-407.39 336.5,-406.75 302.84,-371.26 336.82,-335.51 300.5,-302.75 291.47,-294.61 280.38,-288.87 268.74,-284.87"/>
<polygon fill="#63b8ff" stroke="#63b8ff" points="336.21,-411.37 346.25,-414.76 340.51,-405.85 336.21,-411.37"/>
</a>
</g>
</g>
<!-- Node40 -->
<g id="Node000040" class="node">
<title>Node40</title>
<g id="a_Node000040"><a xlink:href="classnet_1_1un_1_1SocketAddress.html#a642b5904081eae12c546ad22f81022a9" target="_top" xlink:title=" ">
<polygon fill="white" stroke="#666666" points="465,-163.5 338,-163.5 338,-130 465,-130 465,-163.5"/>
<text xml:space="preserve" text-anchor="start" x="346" y="-150" font-family="Helvetica,sans-Serif" font-size="10.00">net::un::SocketAddress</text>
<text xml:space="preserve" text-anchor="middle" x="401.5" y="-137.25" font-family="Helvetica,sans-Serif" font-size="10.00">::SocketAddress</text>
</a>
</g>
</g>
<!-- Node39&#45;&gt;Node40 -->
<g id="edge41_Node000039_Node000040" class="edge">
<title>Node39&#45;&gt;Node40</title>
<g id="a_edge41_Node000039_Node000040"><a xlink:title=" ">
<path fill="none" stroke="#63b8ff" d="M536.42,-252.91C503.94,-227.16 452.99,-186.78 424.21,-163.96"/>
<polygon fill="#63b8ff" stroke="#63b8ff" points="533.86,-255.35 543.87,-258.81 538.21,-249.86 533.86,-255.35"/>
</a>
</g>
</g>
<!-- Node41 -->
<g id="Node000041" class="node">
<title>Node41</title>
<g id="a_Node000041"><a xlink:href="namespaceweb_1_1http_1_1legacy_1_1un.html#a96730204f09f64e4a2ebcf48a3bee194" target="_top" xlink:title=" ">
<polygon fill="white" stroke="#666666" points="241.25,-241.5 136,-241.5 136,-208 241.25,-208 241.25,-241.5"/>
<text xml:space="preserve" text-anchor="start" x="144" y="-228" font-family="Helvetica,sans-Serif" font-size="10.00">web::http::legacy::</text>
<text xml:space="preserve" text-anchor="middle" x="188.62" y="-215.25" font-family="Helvetica,sans-Serif" font-size="10.00">un::EventSource</text>
</a>
</g>
</g>
<!-- Node40&#45;&gt;Node41 -->
<g id="edge42_Node000040_Node000041" class="edge">
<title>Node40&#45;&gt;Node41</title>
<g id="a_edge42_Node000040_Node000041"><a xlink:title=" ">
<path fill="none" stroke="#63b8ff" d="M362.14,-169.56C343.95,-179.63 321.61,-190.93 300.5,-198.75 281.68,-205.72 260.36,-211.26 241.47,-215.39"/>
<polygon fill="#63b8ff" stroke="#63b8ff" points="363.75,-172.68 370.74,-164.72 360.31,-166.58 363.75,-172.68"/>
</a>
</g>
</g>
<!-- Node42 -->
<g id="Node000042" class="node">
<title>Node42</title>
<g id="a_Node000042"><a xlink:href="namespaceweb_1_1http_1_1legacy_1_1un.html#a26c3216e4ab212d863baca6b7eb592f9" target="_top" xlink:title=" ">
<polygon fill="white" stroke="#666666" points="241.25,-189.5 136,-189.5 136,-156 241.25,-156 241.25,-189.5"/>
<text xml:space="preserve" text-anchor="start" x="144" y="-176" font-family="Helvetica,sans-Serif" font-size="10.00">web::http::legacy::</text>
<text xml:space="preserve" text-anchor="middle" x="188.62" y="-163.25" font-family="Helvetica,sans-Serif" font-size="10.00">un::EventSource</text>
</a>
</g>
</g>
<!-- Node40&#45;&gt;Node42 -->
<g id="edge43_Node000040_Node000042" class="edge">
<title>Node40&#45;&gt;Node42</title>
<g id="a_edge43_Node000040_Node000042"><a xlink:title=" ">
<path fill="none" stroke="#63b8ff" d="M326.18,-155.91C298.25,-159.36 267.12,-163.2 241.64,-166.34"/>
<polygon fill="#63b8ff" stroke="#63b8ff" points="326.52,-159.4 336.01,-154.7 325.66,-152.45 326.52,-159.4"/>
</a>
</g>
</g>
<!-- Node43 -->
<g id="Node000043" class="node">
<title>Node43</title>
<g id="a_Node000043"><a xlink:href="namespaceweb_1_1http_1_1tls_1_1un.html#a5936a780a9d9e7fe8e4d642f7dec8c31" target="_top" xlink:title=" ">
<polygon fill="white" stroke="#666666" points="237.5,-137.5 139.75,-137.5 139.75,-104 237.5,-104 237.5,-137.5"/>
<text xml:space="preserve" text-anchor="start" x="147.75" y="-124" font-family="Helvetica,sans-Serif" font-size="10.00">web::http::tls::un</text>
<text xml:space="preserve" text-anchor="middle" x="188.62" y="-111.25" font-family="Helvetica,sans-Serif" font-size="10.00">::EventSource</text>
</a>
</g>
</g>
<!-- Node40&#45;&gt;Node43 -->
<g id="edge44_Node000040_Node000043" class="edge">
<title>Node40&#45;&gt;Node43</title>
<g id="a_edge44_Node000040_Node000043"><a xlink:title=" ">
<path fill="none" stroke="#63b8ff" d="M326.45,-137.62C297.06,-134 264.1,-129.93 237.89,-126.7"/>
<polygon fill="#63b8ff" stroke="#63b8ff" points="325.66,-141.05 336.01,-138.8 326.52,-134.1 325.66,-141.05"/>
</a>
</g>
</g>
<!-- Node44 -->
<g id="Node000044" class="node">
<title>Node44</title>
<g id="a_Node000044"><a xlink:href="namespaceweb_1_1http_1_1tls_1_1un.html#abee109f3e424ed46a33691b8a6952733" target="_top" xlink:title=" ">
<polygon fill="white" stroke="#666666" points="237.5,-85.5 139.75,-85.5 139.75,-52 237.5,-52 237.5,-85.5"/>
<text xml:space="preserve" text-anchor="start" x="147.75" y="-72" font-family="Helvetica,sans-Serif" font-size="10.00">web::http::tls::un</text>
<text xml:space="preserve" text-anchor="middle" x="188.62" y="-59.25" font-family="Helvetica,sans-Serif" font-size="10.00">::EventSource</text>
</a>
</g>
</g>
<!-- Node40&#45;&gt;Node44 -->
<g id="edge45_Node000040_Node000044" class="edge">
<title>Node40&#45;&gt;Node44</title>
<g id="a_edge45_Node000040_Node000044"><a xlink:title=" ">
<path fill="none" stroke="#63b8ff" d="M362.14,-123.94C343.95,-113.87 321.61,-102.57 300.5,-94.75 280.48,-87.33 257.62,-81.54 237.87,-77.33"/>
<polygon fill="#63b8ff" stroke="#63b8ff" points="360.31,-126.92 370.74,-128.78 363.75,-120.82 360.31,-126.92"/>
</a>
</g>
</g>
<!-- Node45 -->
<g id="Node000045" class="node">
<title>Node45</title>
<g id="a_Node000045"><a xlink:href="classnet_1_1un_1_1config_1_1ConfigAddress.html#a676924815be4fd6ed35dde04889e4201" target="_top" xlink:title=" ">
<polygon fill="white" stroke="#666666" points="269.75,-33.5 107.5,-33.5 107.5,0 269.75,0 269.75,-33.5"/>
<text xml:space="preserve" text-anchor="start" x="115.5" y="-20" font-family="Helvetica,sans-Serif" font-size="10.00">net::un::config::ConfigAddress</text>
<text xml:space="preserve" text-anchor="middle" x="188.62" y="-7.25" font-family="Helvetica,sans-Serif" font-size="10.00">::init</text>
</a>
</g>
</g>
<!-- Node40&#45;&gt;Node45 -->
<g id="edge46_Node000040_Node000045" class="edge">
<title>Node40&#45;&gt;Node45</title>
<g id="a_edge46_Node000040_Node000045"><a xlink:title=" ">
<path fill="none" stroke="#63b8ff" d="M382.34,-120.6C364.33,-96.67 334.55,-62.14 300.5,-42.75 291.14,-37.42 280.73,-33.18 270.16,-29.81"/>
<polygon fill="#63b8ff" stroke="#63b8ff" points="379.47,-122.6 388.2,-128.59 385.11,-118.46 379.47,-122.6"/>
</a>
</g>
</g>
</g>
</svg>
