<?xml version="1.0" encoding="UTF-8" standalone="no"?>
<!DOCTYPE svg PUBLIC "-//W3C//DTD SVG 1.1//EN"
 "http://www.w3.org/Graphics/SVG/1.1/DTD/svg11.dtd">
<!-- Generated by graphviz version 2.42.4 (0)
 -->
<!-- Title: utils::Config::add_string_option Pages: 1 -->
<svg width="377pt" height="86pt"
 viewBox="0.00 0.00 377.00 86.00" xmlns="http://www.w3.org/2000/svg" xmlns:xlink="http://www.w3.org/1999/xlink">
<g id="graph0" class="graph" transform="scale(1 1) rotate(0) translate(4 82)">
<title>utils::Config::add_string_option</title>
<!-- Node1 -->
<g id="Node000001" class="node">
<title>Node1</title>
<g id="a_Node000001"><a xlink:title=" ">
<polygon fill="#999999" stroke="#666666" points="369,-54 270,-54 270,-24 369,-24 369,-54"/>
<text text-anchor="start" x="278" y="-42" font-family="Helvetica,sans-Serif" font-size="10.00">utils::Config::add</text>
<text text-anchor="middle" x="319.5" y="-31" font-family="Helvetica,sans-Serif" font-size="10.00">_string_option</text>
</a>
</g>
</g>
<!-- Node2 -->
<g id="Node000002" class="node">
<title>Node2</title>
<g id="a_Node000002"><a xlink:href="classutils_1_1Config.html#a00d3fea5333d090172ec94caa5fd7d09" target="_top" xlink:title=" ">
<polygon fill="white" stroke="#666666" points="234,-78 135,-78 135,-48 234,-48 234,-78"/>
<text text-anchor="start" x="143" y="-66" font-family="Helvetica,sans-Serif" font-size="10.00">utils::Config::add</text>
<text text-anchor="middle" x="184.5" y="-55" font-family="Helvetica,sans-Serif" font-size="10.00">_string_option</text>
</a>
</g>
</g>
<!-- Node1&#45;&gt;Node2 -->
<g id="edge1_Node000001_Node000002" class="edge">
<title>Node1&#45;&gt;Node2</title>
<g id="a_edge1_Node000001_Node000002"><a xlink:title=" ">
<path fill="none" stroke="#63b8ff" d="M259.82,-49.59C251.29,-51.13 242.58,-52.7 234.26,-54.2"/>
<polygon fill="#63b8ff" stroke="#63b8ff" points="260.51,-53.02 269.73,-47.8 259.27,-46.13 260.51,-53.02"/>
</a>
</g>
</g>
<!-- Node3 -->
<g id="Node000003" class="node">
<title>Node3</title>
<g id="a_Node000003"><a xlink:href="classutils_1_1Config.html#ac8fc5af8a26513917f259168abc5db50" target="_top" xlink:title=" ">
<polygon fill="white" stroke="#666666" points="234,-30 135,-30 135,0 234,0 234,-30"/>
<text text-anchor="start" x="143" y="-18" font-family="Helvetica,sans-Serif" font-size="10.00">utils::Config::add</text>
<text text-anchor="middle" x="184.5" y="-7" font-family="Helvetica,sans-Serif" font-size="10.00">_string_option</text>
</a>
</g>
</g>
<!-- Node1&#45;&gt;Node3 -->
<g id="edge2_Node000001_Node000003" class="edge">
<title>Node1&#45;&gt;Node3</title>
<g id="a_edge2_Node000001_Node000003"><a xlink:title=" ">
<path fill="none" stroke="#63b8ff" d="M259.82,-28.41C251.29,-26.87 242.58,-25.3 234.26,-23.8"/>
<polygon fill="#63b8ff" stroke="#63b8ff" points="259.27,-31.87 269.73,-30.2 260.51,-24.98 259.27,-31.87"/>
</a>
</g>
</g>
<!-- Node4 -->
<g id="Node000004" class="node">
<title>Node4</title>
<g id="a_Node000004"><a xlink:href="classutils_1_1Config.html#ac0126bb8acbe1e27f8a94cc4d39723e6" target="_top" xlink:title=" ">
<polygon fill="white" stroke="#666666" points="99,-30 0,-30 0,0 99,0 99,-30"/>
<text text-anchor="start" x="8" y="-18" font-family="Helvetica,sans-Serif" font-size="10.00">utils::Config::add</text>
<text text-anchor="middle" x="49.5" y="-7" font-family="Helvetica,sans-Serif" font-size="10.00">_string_option</text>
</a>
</g>
</g>
<!-- Node3&#45;&gt;Node4 -->
<g id="edge3_Node000003_Node000004" class="edge">
<title>Node3&#45;&gt;Node4</title>
<g id="a_edge3_Node000003_Node000004"><a xlink:title=" ">
<path fill="none" stroke="#63b8ff" d="M124.55,-15C116.1,-15 107.49,-15 99.26,-15"/>
<polygon fill="#63b8ff" stroke="#63b8ff" points="124.73,-18.5 134.73,-15 124.73,-11.5 124.73,-18.5"/>
</a>
</g>
</g>
</g>
</svg>
