<?xml version="1.0" encoding="UTF-8" standalone="no"?>
<!DOCTYPE svg PUBLIC "-//W3C//DTD SVG 1.1//EN"
 "http://www.w3.org/Graphics/SVG/1.1/DTD/svg11.dtd">
<!-- Generated by graphviz version 2.42.4 (0)
 -->
<!-- Title: CLI::CallForShowConfig::CallForShowConfig Pages: 1 -->
<svg width="677pt" height="104pt"
 viewBox="0.00 0.00 677.00 104.00" xmlns="http://www.w3.org/2000/svg" xmlns:xlink="http://www.w3.org/1999/xlink">
<g id="graph0" class="graph" transform="scale(1 1) rotate(0) translate(4 100)">
<title>CLI::CallForShowConfig::CallForShowConfig</title>
<!-- Node1 -->
<g id="Node000001" class="node">
<title>Node1</title>
<g id="a_Node000001"><a xlink:title=" ">
<polygon fill="#999999" stroke="#666666" points="669,-63 540,-63 540,-33 669,-33 669,-63"/>
<text text-anchor="start" x="548" y="-51" font-family="Helvetica,sans-Serif" font-size="10.00">CLI::CallForShowConfig</text>
<text text-anchor="middle" x="604.5" y="-40" font-family="Helvetica,sans-Serif" font-size="10.00">::CallForShowConfig</text>
</a>
</g>
</g>
<!-- Node1&#45;&gt;Node1 -->
<g id="edge6_Node000001_Node000001" class="edge">
<title>Node1&#45;&gt;Node1</title>
<g id="a_edge6_Node000001_Node000001"><a xlink:title=" ">
<path fill="none" stroke="#63b8ff" d="M634.61,-73.6C630.49,-77.97 620.46,-81 604.5,-81 577.62,-81 567.55,-72.41 574.27,-63.28"/>
<polygon fill="#63b8ff" stroke="#63b8ff" points="638.11,-73.32 634.73,-63.28 631.11,-73.23 638.11,-73.32"/>
</a>
</g>
</g>
<!-- Node2 -->
<g id="Node000002" class="node">
<title>Node2</title>
<g id="a_Node000002"><a xlink:href="classutils_1_1Config.html#a0b5c905e8e2775a0507f377eb021c3dc" target="_top" xlink:title=" ">
<polygon fill="white" stroke="#666666" points="504,-63 361,-63 361,-33 504,-33 504,-63"/>
<text text-anchor="start" x="369" y="-51" font-family="Helvetica,sans-Serif" font-size="10.00">utils::Config::addStandard</text>
<text text-anchor="middle" x="432.5" y="-40" font-family="Helvetica,sans-Serif" font-size="10.00">Flags</text>
</a>
</g>
</g>
<!-- Node1&#45;&gt;Node2 -->
<g id="edge1_Node000001_Node000002" class="edge">
<title>Node1&#45;&gt;Node2</title>
<g id="a_edge1_Node000001_Node000002"><a xlink:title=" ">
<path fill="none" stroke="#63b8ff" d="M529.55,-48C521.13,-48 512.57,-48 504.2,-48"/>
<polygon fill="#63b8ff" stroke="#63b8ff" points="529.71,-51.5 539.71,-48 529.71,-44.5 529.71,-51.5"/>
</a>
</g>
</g>
<!-- Node3 -->
<g id="Node000003" class="node">
<title>Node3</title>
<g id="a_Node000003"><a xlink:href="classnet_1_1config_1_1ConfigInstance.html#ad39c0527d0d8dde04ccf0c7dcc0fe323" target="_top" xlink:title=" ">
<polygon fill="white" stroke="#666666" points="325,-96 178,-96 178,-66 325,-66 325,-96"/>
<text text-anchor="start" x="186" y="-84" font-family="Helvetica,sans-Serif" font-size="10.00">net::config::ConfigInstance</text>
<text text-anchor="middle" x="251.5" y="-73" font-family="Helvetica,sans-Serif" font-size="10.00">::addSection</text>
</a>
</g>
</g>
<!-- Node2&#45;&gt;Node3 -->
<g id="edge2_Node000002_Node000003" class="edge">
<title>Node2&#45;&gt;Node3</title>
<g id="a_edge2_Node000002_Node000003"><a xlink:title=" ">
<path fill="none" stroke="#63b8ff" d="M350.77,-62.88C342.21,-64.46 333.54,-66.06 325.08,-67.62"/>
<polygon fill="#63b8ff" stroke="#63b8ff" points="351.55,-66.3 360.75,-61.04 350.29,-59.41 351.55,-66.3"/>
</a>
</g>
</g>
<!-- Node5 -->
<g id="Node000005" class="node">
<title>Node5</title>
<g id="a_Node000005"><a xlink:href="classnet_1_1config_1_1ConfigInstance.html#a7fd41c5db4865443c184508a4435f7aa" target="_top" xlink:title=" ">
<polygon fill="white" stroke="#666666" points="325,-30 178,-30 178,0 325,0 325,-30"/>
<text text-anchor="start" x="186" y="-18" font-family="Helvetica,sans-Serif" font-size="10.00">net::config::ConfigInstance</text>
<text text-anchor="middle" x="251.5" y="-7" font-family="Helvetica,sans-Serif" font-size="10.00">::ConfigInstance</text>
</a>
</g>
</g>
<!-- Node2&#45;&gt;Node5 -->
<g id="edge4_Node000002_Node000005" class="edge">
<title>Node2&#45;&gt;Node5</title>
<g id="a_edge4_Node000002_Node000005"><a xlink:title=" ">
<path fill="none" stroke="#63b8ff" d="M350.77,-33.12C342.21,-31.54 333.54,-29.94 325.08,-28.38"/>
<polygon fill="#63b8ff" stroke="#63b8ff" points="350.29,-36.59 360.75,-34.96 351.55,-29.7 350.29,-36.59"/>
</a>
</g>
</g>
<!-- Node4 -->
<g id="Node000004" class="node">
<title>Node4</title>
<g id="a_Node000004"><a xlink:href="classnet_1_1config_1_1ConfigSection.html#a160becc89b9f497e672c269051f56089" target="_top" xlink:title=" ">
<polygon fill="white" stroke="#666666" points="142,-96 0,-96 0,-66 142,-66 142,-96"/>
<text text-anchor="start" x="8" y="-84" font-family="Helvetica,sans-Serif" font-size="10.00">net::config::ConfigSection</text>
<text text-anchor="middle" x="71" y="-73" font-family="Helvetica,sans-Serif" font-size="10.00">::ConfigSection</text>
</a>
</g>
</g>
<!-- Node3&#45;&gt;Node4 -->
<g id="edge3_Node000003_Node000004" class="edge">
<title>Node3&#45;&gt;Node4</title>
<g id="a_edge3_Node000003_Node000004"><a xlink:title=" ">
<path fill="none" stroke="#63b8ff" d="M167.89,-81C159.31,-81 150.65,-81 142.23,-81"/>
<polygon fill="#63b8ff" stroke="#63b8ff" points="167.9,-84.5 177.9,-81 167.9,-77.5 167.9,-84.5"/>
</a>
</g>
</g>
<!-- Node5&#45;&gt;Node5 -->
<g id="edge5_Node000005_Node000005" class="edge">
<title>Node5&#45;&gt;Node5</title>
<g id="a_edge5_Node000005_Node000005"><a xlink:title=" ">
<path fill="none" stroke="#63b8ff" d="M283.01,-40.6C278.7,-44.97 268.2,-48 251.5,-48 223.38,-48 212.83,-39.41 219.86,-30.28"/>
<polygon fill="#63b8ff" stroke="#63b8ff" points="286.51,-40.32 283.14,-30.28 279.51,-40.23 286.51,-40.32"/>
</a>
</g>
</g>
</g>
</svg>
