<?xml version="1.0" encoding="UTF-8" standalone="no"?>
<!DOCTYPE svg PUBLIC "-//W3C//DTD SVG 1.1//EN"
 "http://www.w3.org/Graphics/SVG/1.1/DTD/svg11.dtd">
<!-- Generated by graphviz version 14.1.2 (0)
 -->
<!-- Title: web::http::client::MasterRequest::initiate Pages: 1 -->
<svg width="1657pt" height="361pt"
 viewBox="0.00 0.00 1657.00 361.00" xmlns="http://www.w3.org/2000/svg" xmlns:xlink="http://www.w3.org/1999/xlink">
<g id="graph0" class="graph" transform="scale(1 1) rotate(0) translate(4 356.5)">
<title>web::http::client::MasterRequest::initiate</title>
<!-- Node1 -->
<g id="Node000001" class="node">
<title>Node1</title>
<g id="a_Node000001"><a xlink:title=" ">
<polygon fill="#999999" stroke="#666666" points="130,-277.5 0,-277.5 0,-244 130,-244 130,-277.5"/>
<text xml:space="preserve" text-anchor="start" x="8" y="-264" font-family="Helvetica,sans-Serif" font-size="10.00">web::http::client::</text>
<text xml:space="preserve" text-anchor="middle" x="65" y="-251.25" font-family="Helvetica,sans-Serif" font-size="10.00">MasterRequest::initiate</text>
</a>
</g>
</g>
<!-- Node2 -->
<g id="Node000002" class="node">
<title>Node2</title>
<g id="a_Node000002"><a xlink:href="classweb_1_1http_1_1client_1_1RequestCommand.html#a7ac2bc251de5f709188a9abeb16f14c2" target="_top" xlink:title=" ">
<polygon fill="white" stroke="#666666" points="331.25,-352.5 180.25,-352.5 180.25,-319 331.25,-319 331.25,-352.5"/>
<text xml:space="preserve" text-anchor="start" x="188.25" y="-339" font-family="Helvetica,sans-Serif" font-size="10.00">web::http::client::</text>
<text xml:space="preserve" text-anchor="middle" x="255.75" y="-326.25" font-family="Helvetica,sans-Serif" font-size="10.00">RequestCommand::execute</text>
</a>
</g>
</g>
<!-- Node1&#45;&gt;Node2 -->
<g id="edge1_Node000001_Node000002" class="edge">
<title>Node1&#45;&gt;Node2</title>
<g id="a_edge1_Node000001_Node000002"><a xlink:title=" ">
<path fill="none" stroke="#63b8ff" d="M97.36,-277.83C116.76,-287.97 142.39,-300.58 166,-309.75 170.67,-311.56 175.53,-313.32 180.44,-315.01"/>
<polygon fill="#63b8ff" stroke="#63b8ff" points="179.25,-318.3 189.84,-318.12 181.44,-311.66 179.25,-318.3"/>
</a>
</g>
</g>
<!-- Node3 -->
<g id="Node000003" class="node">
<title>Node3</title>
<g id="a_Node000003"><a xlink:href="classweb_1_1http_1_1client_1_1RequestCommand.html#a996ea2745b48ee690b40babe54c142c2" target="_top" xlink:title=" ">
<polygon fill="white" stroke="#666666" points="331.25,-300.5 180.25,-300.5 180.25,-267 331.25,-267 331.25,-300.5"/>
<text xml:space="preserve" text-anchor="start" x="188.25" y="-287" font-family="Helvetica,sans-Serif" font-size="10.00">web::http::client::</text>
<text xml:space="preserve" text-anchor="middle" x="255.75" y="-274.25" font-family="Helvetica,sans-Serif" font-size="10.00">RequestCommand::getError</text>
</a>
</g>
</g>
<!-- Node1&#45;&gt;Node3 -->
<g id="edge2_Node000001_Node000003" class="edge">
<title>Node1&#45;&gt;Node3</title>
<g id="a_edge2_Node000001_Node000003"><a xlink:title=" ">
<path fill="none" stroke="#63b8ff" d="M130.43,-268.6C142.74,-270.1 155.8,-271.69 168.66,-273.26"/>
<polygon fill="#63b8ff" stroke="#63b8ff" points="168.03,-276.71 178.38,-274.44 168.88,-269.76 168.03,-276.71"/>
</a>
</g>
</g>
<!-- Node4 -->
<g id="Node000004" class="node">
<title>Node4</title>
<g id="a_Node000004"><a xlink:href="classweb_1_1http_1_1client_1_1MasterRequest.html#a91801b8da2708788c712709cd7cdca2b" target="_top" xlink:title=" ">
<polygon fill="white" stroke="#666666" points="345.5,-169.5 166,-169.5 166,-136 345.5,-136 345.5,-169.5"/>
<text xml:space="preserve" text-anchor="start" x="174" y="-156" font-family="Helvetica,sans-Serif" font-size="10.00">web::http::client::</text>
<text xml:space="preserve" text-anchor="middle" x="255.75" y="-143.25" font-family="Helvetica,sans-Serif" font-size="10.00">MasterRequest::requestDelivered</text>
</a>
</g>
</g>
<!-- Node1&#45;&gt;Node4 -->
<g id="edge3_Node000001_Node000004" class="edge">
<title>Node1&#45;&gt;Node4</title>
<g id="a_edge3_Node000001_Node000004"><a xlink:title=" ">
<path fill="none" stroke="#63b8ff" d="M95.91,-243.64C128.12,-225.21 179.52,-195.79 215.09,-175.44"/>
<polygon fill="#63b8ff" stroke="#63b8ff" points="216.41,-178.72 223.36,-170.71 212.94,-172.64 216.41,-178.72"/>
</a>
</g>
</g>
<!-- Node5 -->
<g id="Node000005" class="node">
<title>Node5</title>
<g id="a_Node000005"><a xlink:href="classweb_1_1http_1_1client_1_1MasterRequest.html#a9b3afb938d19932d492b70a3a6b0dc01" target="_top" xlink:title=" ">
<polygon fill="white" stroke="#666666" points="549,-91.88 390.5,-91.88 390.5,-45.62 549,-45.62 549,-91.88"/>
<text xml:space="preserve" text-anchor="start" x="398.5" y="-78.38" font-family="Helvetica,sans-Serif" font-size="10.00">web::http::client::</text>
<text xml:space="preserve" text-anchor="start" x="398.5" y="-65.62" font-family="Helvetica,sans-Serif" font-size="10.00">MasterRequest::executeSend</text>
<text xml:space="preserve" text-anchor="middle" x="469.75" y="-52.88" font-family="Helvetica,sans-Serif" font-size="10.00">Fragment</text>
</a>
</g>
</g>
<!-- Node4&#45;&gt;Node5 -->
<g id="edge4_Node000004_Node000005" class="edge">
<title>Node4&#45;&gt;Node5</title>
<g id="a_edge4_Node000004_Node000005"><a xlink:title=" ">
<path fill="none" stroke="#63b8ff" d="M300.16,-135.55C328.58,-124.29 366.36,-109.32 398.94,-96.41"/>
<polygon fill="#63b8ff" stroke="#63b8ff" points="399.91,-99.79 407.91,-92.85 397.33,-93.28 399.91,-99.79"/>
</a>
</g>
</g>
<!-- Node6 -->
<g id="Node000006" class="node">
<title>Node6</title>
<g id="a_Node000006"><a xlink:href="classcore_1_1socket_1_1SocketContext.html#a171ec3bb2190630276ff2e6cb5fd9ccf" target="_top" xlink:title=" ">
<polygon fill="white" stroke="#666666" points="755.5,-85.5 604.5,-85.5 604.5,-52 755.5,-52 755.5,-85.5"/>
<text xml:space="preserve" text-anchor="start" x="612.5" y="-72" font-family="Helvetica,sans-Serif" font-size="10.00">core::socket::SocketContext</text>
<text xml:space="preserve" text-anchor="middle" x="680" y="-59.25" font-family="Helvetica,sans-Serif" font-size="10.00">::sendToPeer</text>
</a>
</g>
</g>
<!-- Node4&#45;&gt;Node6 -->
<g id="edge29_Node000004_Node000006" class="edge">
<title>Node4&#45;&gt;Node6</title>
<g id="a_edge29_Node000004_Node000006"><a xlink:title=" ">
<path fill="none" stroke="#63b8ff" d="M345.79,-139.48C405.97,-130 487.09,-116.22 558,-100.75 573.96,-97.27 590.97,-93.08 607.05,-88.89"/>
<polygon fill="#63b8ff" stroke="#63b8ff" points="607.77,-92.32 616.54,-86.38 605.98,-85.55 607.77,-92.32"/>
</a>
</g>
</g>
<!-- Node10 -->
<g id="Node000010" class="node">
<title>Node10</title>
<g id="a_Node000010"><a xlink:href="classweb_1_1http_1_1client_1_1SocketContext.html#a87af7659934d282633c82e9f77301128" target="_top" xlink:title=" ">
<polygon fill="white" stroke="#666666" points="558,-191.5 381.5,-191.5 381.5,-158 558,-158 558,-191.5"/>
<text xml:space="preserve" text-anchor="start" x="389.5" y="-178" font-family="Helvetica,sans-Serif" font-size="10.00">web::http::client::</text>
<text xml:space="preserve" text-anchor="middle" x="469.75" y="-165.25" font-family="Helvetica,sans-Serif" font-size="10.00">SocketContext::requestDelivered</text>
</a>
</g>
</g>
<!-- Node4&#45;&gt;Node10 -->
<g id="edge9_Node000004_Node000010" class="edge">
<title>Node4&#45;&gt;Node10</title>
<g id="a_edge9_Node000004_Node000010"><a xlink:title=" ">
<path fill="none" stroke="#63b8ff" d="M345.74,-161.98C353.67,-162.81 361.73,-163.64 369.74,-164.48"/>
<polygon fill="#63b8ff" stroke="#63b8ff" points="369.2,-167.94 379.51,-165.49 369.92,-160.98 369.2,-167.94"/>
</a>
</g>
</g>
<!-- Node5&#45;&gt;Node6 -->
<g id="edge5_Node000005_Node000006" class="edge">
<title>Node5&#45;&gt;Node6</title>
<g id="a_edge5_Node000005_Node000006"><a xlink:title=" ">
<path fill="none" stroke="#63b8ff" d="M549.48,-68.75C563.66,-68.75 578.51,-68.75 592.88,-68.75"/>
<polygon fill="#63b8ff" stroke="#63b8ff" points="592.77,-72.25 602.77,-68.75 592.77,-65.25 592.77,-72.25"/>
</a>
</g>
</g>
<!-- Node8 -->
<g id="Node000008" class="node">
<title>Node8</title>
<g id="a_Node000008"><a xlink:href="classcore_1_1socket_1_1stream_1_1SocketContext.html#a7e80affcdada3ef5f1c52c283d65a89c" target="_top" xlink:title=" ">
<polygon fill="white" stroke="#666666" points="757,-33.5 603,-33.5 603,0 757,0 757,-33.5"/>
<text xml:space="preserve" text-anchor="start" x="611" y="-20" font-family="Helvetica,sans-Serif" font-size="10.00">core::socket::stream</text>
<text xml:space="preserve" text-anchor="middle" x="680" y="-7.25" font-family="Helvetica,sans-Serif" font-size="10.00">::SocketContext::sendToPeer</text>
</a>
</g>
</g>
<!-- Node5&#45;&gt;Node8 -->
<g id="edge7_Node000005_Node000008" class="edge">
<title>Node5&#45;&gt;Node8</title>
<g id="a_edge7_Node000005_Node000008"><a xlink:title=" ">
<path fill="none" stroke="#63b8ff" d="M549.48,-49.09C565.67,-45.05 582.73,-40.79 598.97,-36.73"/>
<polygon fill="#63b8ff" stroke="#63b8ff" points="599.73,-40.15 608.59,-34.33 598.04,-33.36 599.73,-40.15"/>
</a>
</g>
</g>
<!-- Node7 -->
<g id="Node000007" class="node">
<title>Node7</title>
<g id="a_Node000007"><a xlink:href="classcore_1_1socket_1_1SocketContext.html#ad483b080be706b99648da684b74cdcd9" target="_top" xlink:title=" ">
<polygon fill="white" stroke="#666666" points="984.88,-85.5 833.88,-85.5 833.88,-52 984.88,-52 984.88,-85.5"/>
<text xml:space="preserve" text-anchor="start" x="841.88" y="-72" font-family="Helvetica,sans-Serif" font-size="10.00">core::socket::SocketContext</text>
<text xml:space="preserve" text-anchor="middle" x="909.38" y="-59.25" font-family="Helvetica,sans-Serif" font-size="10.00">::sendToPeer</text>
</a>
</g>
</g>
<!-- Node6&#45;&gt;Node7 -->
<g id="edge6_Node000006_Node000007" class="edge">
<title>Node6&#45;&gt;Node7</title>
<g id="a_edge6_Node000006_Node000007"><a xlink:title=" ">
<path fill="none" stroke="#63b8ff" d="M755.77,-68.75C777.04,-68.75 800.38,-68.75 822.27,-68.75"/>
<polygon fill="#63b8ff" stroke="#63b8ff" points="822.05,-72.25 832.05,-68.75 822.05,-65.25 822.05,-72.25"/>
</a>
</g>
</g>
<!-- Node9 -->
<g id="Node000009" class="node">
<title>Node9</title>
<g id="a_Node000009"><a xlink:href="classcore_1_1socket_1_1stream_1_1SocketConnection.html#a0e8eedcbfe5dc63e1c1682b5beaf90da" target="_top" xlink:title=" ">
<polygon fill="white" stroke="#666666" points="994.62,-33.5 824.12,-33.5 824.12,0 994.62,0 994.62,-33.5"/>
<text xml:space="preserve" text-anchor="start" x="832.12" y="-20" font-family="Helvetica,sans-Serif" font-size="10.00">core::socket::stream</text>
<text xml:space="preserve" text-anchor="middle" x="909.38" y="-7.25" font-family="Helvetica,sans-Serif" font-size="10.00">::SocketConnection::sendToPeer</text>
</a>
</g>
</g>
<!-- Node8&#45;&gt;Node9 -->
<g id="edge8_Node000008_Node000009" class="edge">
<title>Node8&#45;&gt;Node9</title>
<g id="a_edge8_Node000008_Node000009"><a xlink:title=" ">
<path fill="none" stroke="#63b8ff" d="M757.35,-16.75C775.08,-16.75 794.18,-16.75 812.63,-16.75"/>
<polygon fill="#63b8ff" stroke="#63b8ff" points="812.51,-20.25 822.51,-16.75 812.51,-13.25 812.51,-20.25"/>
</a>
</g>
</g>
<!-- Node11 -->
<g id="Node000011" class="node">
<title>Node11</title>
<g id="a_Node000011"><a xlink:href="classcore_1_1EventReceiver.html#a2e8d915eca53e827be4f493a63ae058d" target="_top" xlink:title=" ">
<polygon fill="white" stroke="#666666" points="966.12,-207.5 852.62,-207.5 852.62,-174 966.12,-174 966.12,-207.5"/>
<text xml:space="preserve" text-anchor="start" x="860.62" y="-194" font-family="Helvetica,sans-Serif" font-size="10.00">core::EventReceiver</text>
<text xml:space="preserve" text-anchor="middle" x="909.38" y="-181.25" font-family="Helvetica,sans-Serif" font-size="10.00">::atNextTick</text>
</a>
</g>
</g>
<!-- Node10&#45;&gt;Node11 -->
<g id="edge10_Node000010_Node000011" class="edge">
<title>Node10&#45;&gt;Node11</title>
<g id="a_edge10_Node000010_Node000011"><a xlink:title=" ">
<path fill="none" stroke="#63b8ff" d="M558.26,-177.95C641.53,-180.99 765.08,-185.51 840.96,-188.29"/>
<polygon fill="#63b8ff" stroke="#63b8ff" points="840.63,-191.78 850.75,-188.64 840.88,-184.78 840.63,-191.78"/>
</a>
</g>
</g>
<!-- Node20 -->
<g id="Node000020" class="node">
<title>Node20</title>
<g id="a_Node000020"><a xlink:href="classcore_1_1socket_1_1stream_1_1SocketConnection.html#a5e26cd617f07295e8579ddb9c41bdd2c" target="_top" xlink:title=" ">
<polygon fill="white" stroke="#666666" points="1016.75,-321.5 802,-321.5 802,-288 1016.75,-288 1016.75,-321.5"/>
<text xml:space="preserve" text-anchor="start" x="810" y="-308" font-family="Helvetica,sans-Serif" font-size="10.00">core::socket::stream</text>
<text xml:space="preserve" text-anchor="middle" x="909.38" y="-295.25" font-family="Helvetica,sans-Serif" font-size="10.00">::SocketConnection::getConnectionName</text>
</a>
</g>
</g>
<!-- Node10&#45;&gt;Node20 -->
<g id="edge19_Node000010_Node000020" class="edge">
<title>Node10&#45;&gt;Node20</title>
<g id="a_edge19_Node000010_Node000020"><a xlink:title=" ">
<path fill="none" stroke="#63b8ff" d="M481.98,-191.57C501.19,-218.7 543.27,-271.25 594,-292.75 655.31,-318.74 729.52,-322.69 790.44,-319.71"/>
<polygon fill="#63b8ff" stroke="#63b8ff" points="790.36,-323.22 800.14,-319.16 789.96,-316.23 790.36,-323.22"/>
</a>
</g>
</g>
<!-- Node21 -->
<g id="Node000021" class="node">
<title>Node21</title>
<g id="a_Node000021"><a xlink:href="classcore_1_1socket_1_1stream_1_1SocketContext.html#a02f0b93ac0ea376dabd6921c7589a8cf" target="_top" xlink:title=" ">
<polygon fill="white" stroke="#666666" points="1010,-262.5 808.75,-262.5 808.75,-229 1010,-229 1010,-262.5"/>
<text xml:space="preserve" text-anchor="start" x="816.75" y="-249" font-family="Helvetica,sans-Serif" font-size="10.00">core::socket::stream</text>
<text xml:space="preserve" text-anchor="middle" x="909.38" y="-236.25" font-family="Helvetica,sans-Serif" font-size="10.00">::SocketContext::getSocketConnection</text>
</a>
</g>
</g>
<!-- Node10&#45;&gt;Node21 -->
<g id="edge20_Node000010_Node000021" class="edge">
<title>Node10&#45;&gt;Node21</title>
<g id="a_edge20_Node000010_Node000021"><a xlink:title=" ">
<path fill="none" stroke="#63b8ff" d="M558.26,-188.95C626.94,-200.09 723.02,-215.68 797.16,-227.71"/>
<polygon fill="#63b8ff" stroke="#63b8ff" points="796.47,-231.14 806.9,-229.29 797.59,-224.23 796.47,-231.14"/>
</a>
</g>
</g>
<!-- Node22 -->
<g id="Node000022" class="node">
<title>Node22</title>
<g id="a_Node000022"><a xlink:href="classweb_1_1http_1_1client_1_1SocketContext.html#a640d648c8eaf71a0cc9c32fc19a060e5" target="_top" xlink:title=" ">
<polygon fill="white" stroke="#666666" points="763.38,-265.5 596.62,-265.5 596.62,-232 763.38,-232 763.38,-265.5"/>
<text xml:space="preserve" text-anchor="start" x="604.62" y="-252" font-family="Helvetica,sans-Serif" font-size="10.00">web::http::client::</text>
<text xml:space="preserve" text-anchor="middle" x="680" y="-239.25" font-family="Helvetica,sans-Serif" font-size="10.00">SocketContext::initiateRequest</text>
</a>
</g>
</g>
<!-- Node10&#45;&gt;Node22 -->
<g id="edge21_Node000010_Node000022" class="edge">
<title>Node10&#45;&gt;Node22</title>
<g id="a_edge21_Node000010_Node000022"><a xlink:title=" ">
<path fill="none" stroke="#63b8ff" d="M519.05,-191.91C549.17,-202.62 588.13,-216.46 620.07,-227.81"/>
<polygon fill="#63b8ff" stroke="#63b8ff" points="618.58,-230.99 629.18,-231.05 620.92,-224.4 618.58,-230.99"/>
</a>
</g>
</g>
<!-- Node23 -->
<g id="Node000023" class="node">
<title>Node23</title>
<g id="a_Node000023"><a xlink:href="classcore_1_1socket_1_1stream_1_1SocketContext.html#a632584fcef2e3450157b9cc351c0a78b" target="_top" xlink:title=" ">
<polygon fill="white" stroke="#666666" points="766,-137.5 594,-137.5 594,-104 766,-104 766,-137.5"/>
<text xml:space="preserve" text-anchor="start" x="602" y="-124" font-family="Helvetica,sans-Serif" font-size="10.00">core::socket::stream</text>
<text xml:space="preserve" text-anchor="middle" x="680" y="-111.25" font-family="Helvetica,sans-Serif" font-size="10.00">::SocketContext::shutdownWrite</text>
</a>
</g>
</g>
<!-- Node10&#45;&gt;Node23 -->
<g id="edge27_Node000010_Node000023" class="edge">
<title>Node10&#45;&gt;Node23</title>
<g id="a_edge27_Node000010_Node000023"><a xlink:title=" ">
<path fill="none" stroke="#63b8ff" d="M537.21,-157.52C557.79,-152.18 580.64,-146.26 601.87,-140.75"/>
<polygon fill="#63b8ff" stroke="#63b8ff" points="602.54,-144.19 611.34,-138.29 600.79,-137.42 602.54,-144.19"/>
</a>
</g>
</g>
<!-- Node12 -->
<g id="Node000012" class="node">
<title>Node12</title>
<g id="a_Node000012"><a xlink:href="classcore_1_1EventReceiver.html#adec275118bd8a68e2b4cb71fa94d79b6" target="_top" xlink:title=" ">
<polygon fill="white" stroke="#666666" points="1166.25,-233.5 1052.75,-233.5 1052.75,-200 1166.25,-200 1166.25,-233.5"/>
<text xml:space="preserve" text-anchor="start" x="1060.75" y="-220" font-family="Helvetica,sans-Serif" font-size="10.00">core::EventReceiver</text>
<text xml:space="preserve" text-anchor="middle" x="1109.5" y="-207.25" font-family="Helvetica,sans-Serif" font-size="10.00">::EventReceiver</text>
</a>
</g>
</g>
<!-- Node11&#45;&gt;Node12 -->
<g id="edge11_Node000011_Node000012" class="edge">
<title>Node11&#45;&gt;Node12</title>
<g id="a_edge11_Node000011_Node000012"><a xlink:title=" ">
<path fill="none" stroke="#63b8ff" d="M966.62,-198.13C989.83,-201.18 1016.92,-204.73 1041.17,-207.91"/>
<polygon fill="#63b8ff" stroke="#63b8ff" points="1040.59,-211.37 1050.96,-209.2 1041.5,-204.43 1040.59,-211.37"/>
</a>
</g>
</g>
<!-- Node16 -->
<g id="Node000016" class="node">
<title>Node16</title>
<g id="a_Node000016"><a xlink:href="classcore_1_1EventReceiver.html#ad353e97a9089b2769e52f8825e4878b1" target="_top" xlink:title=" ">
<polygon fill="white" stroke="#666666" points="1166.25,-181.5 1052.75,-181.5 1052.75,-148 1166.25,-148 1166.25,-181.5"/>
<text xml:space="preserve" text-anchor="start" x="1060.75" y="-168" font-family="Helvetica,sans-Serif" font-size="10.00">core::EventReceiver</text>
<text xml:space="preserve" text-anchor="middle" x="1109.5" y="-155.25" font-family="Helvetica,sans-Serif" font-size="10.00">::span</text>
</a>
</g>
</g>
<!-- Node11&#45;&gt;Node16 -->
<g id="edge15_Node000011_Node000016" class="edge">
<title>Node11&#45;&gt;Node16</title>
<g id="a_edge15_Node000011_Node000016"><a xlink:title=" ">
<path fill="none" stroke="#63b8ff" d="M966.62,-183.37C989.83,-180.32 1016.92,-176.77 1041.17,-173.59"/>
<polygon fill="#63b8ff" stroke="#63b8ff" points="1041.5,-177.07 1050.96,-172.3 1040.59,-170.13 1041.5,-177.07"/>
</a>
</g>
</g>
<!-- Node13 -->
<g id="Node000013" class="node">
<title>Node13</title>
<g id="a_Node000013"><a xlink:href="classcore_1_1Event.html#a81e45f64219d897d59324c9dd0573936" target="_top" xlink:title=" ">
<polygon fill="white" stroke="#666666" points="1306.75,-227.12 1202.25,-227.12 1202.25,-206.38 1306.75,-206.38 1306.75,-227.12"/>
<text xml:space="preserve" text-anchor="middle" x="1254.5" y="-213.62" font-family="Helvetica,sans-Serif" font-size="10.00">core::Event::Event</text>
</a>
</g>
</g>
<!-- Node12&#45;&gt;Node13 -->
<g id="edge12_Node000012_Node000013" class="edge">
<title>Node12&#45;&gt;Node13</title>
<g id="a_edge12_Node000012_Node000013"><a xlink:title=" ">
<path fill="none" stroke="#63b8ff" d="M1166.61,-216.75C1174.39,-216.75 1182.42,-216.75 1190.32,-216.75"/>
<polygon fill="#63b8ff" stroke="#63b8ff" points="1190.24,-220.25 1200.24,-216.75 1190.24,-213.25 1190.24,-220.25"/>
</a>
</g>
</g>
<!-- Node14 -->
<g id="Node000014" class="node">
<title>Node14</title>
<g id="a_Node000014"><a xlink:href="classcore_1_1EventLoop.html#a17f1623de6ca2ea2682c63cf502c3c36" target="_top" xlink:title=" ">
<polygon fill="white" stroke="#666666" points="1486.25,-233.5 1342.75,-233.5 1342.75,-200 1486.25,-200 1486.25,-233.5"/>
<text xml:space="preserve" text-anchor="start" x="1350.75" y="-220" font-family="Helvetica,sans-Serif" font-size="10.00">core::EventLoop::getEvent</text>
<text xml:space="preserve" text-anchor="middle" x="1414.5" y="-207.25" font-family="Helvetica,sans-Serif" font-size="10.00">Multiplexer</text>
</a>
</g>
</g>
<!-- Node13&#45;&gt;Node14 -->
<g id="edge13_Node000013_Node000014" class="edge">
<title>Node13&#45;&gt;Node14</title>
<g id="a_edge13_Node000013_Node000014"><a xlink:title=" ">
<path fill="none" stroke="#63b8ff" d="M1307.24,-216.75C1314.88,-216.75 1322.92,-216.75 1331,-216.75"/>
<polygon fill="#63b8ff" stroke="#63b8ff" points="1330.91,-220.25 1340.91,-216.75 1330.91,-213.25 1330.91,-220.25"/>
</a>
</g>
</g>
<!-- Node15 -->
<g id="Node000015" class="node">
<title>Node15</title>
<g id="a_Node000015"><a xlink:href="classcore_1_1EventLoop.html#a413d227511f68c2c9939719bd2590794" target="_top" xlink:title=" ">
<polygon fill="white" stroke="#666666" points="1485.12,-272.12 1343.88,-272.12 1343.88,-251.38 1485.12,-251.38 1485.12,-272.12"/>
<text xml:space="preserve" text-anchor="middle" x="1414.5" y="-258.62" font-family="Helvetica,sans-Serif" font-size="10.00">core::EventLoop::instance</text>
</a>
</g>
</g>
<!-- Node13&#45;&gt;Node15 -->
<g id="edge14_Node000013_Node000015" class="edge">
<title>Node13&#45;&gt;Node15</title>
<g id="a_edge14_Node000013_Node000015"><a xlink:title=" ">
<path fill="none" stroke="#63b8ff" d="M1291.09,-227.6C1306.89,-232.35 1325.72,-237.93 1342.75,-242.75 1348.72,-244.44 1354.97,-246.17 1361.2,-247.88"/>
<polygon fill="#63b8ff" stroke="#63b8ff" points="1360.27,-251.25 1370.83,-250.49 1362.1,-244.49 1360.27,-251.25"/>
</a>
</g>
</g>
<!-- Node17 -->
<g id="Node000017" class="node">
<title>Node17</title>
<g id="a_Node000017"><a xlink:href="classcore_1_1Event.html#a0a68a616082e2b1aece96499a439884f" target="_top" xlink:title=" ">
<polygon fill="white" stroke="#666666" points="1304.5,-175.12 1204.5,-175.12 1204.5,-154.38 1304.5,-154.38 1304.5,-175.12"/>
<text xml:space="preserve" text-anchor="middle" x="1254.5" y="-161.62" font-family="Helvetica,sans-Serif" font-size="10.00">core::Event::span</text>
</a>
</g>
</g>
<!-- Node16&#45;&gt;Node17 -->
<g id="edge16_Node000016_Node000017" class="edge">
<title>Node16&#45;&gt;Node17</title>
<g id="a_edge16_Node000016_Node000017"><a xlink:title=" ">
<path fill="none" stroke="#63b8ff" d="M1166.61,-164.75C1175.2,-164.75 1184.11,-164.75 1192.8,-164.75"/>
<polygon fill="#63b8ff" stroke="#63b8ff" points="1192.54,-168.25 1202.54,-164.75 1192.54,-161.25 1192.54,-168.25"/>
</a>
</g>
</g>
<!-- Node18 -->
<g id="Node000018" class="node">
<title>Node18</title>
<g id="a_Node000018"><a xlink:href="classcore_1_1EventMultiplexer.html#a61d96e95daaebfe6c3b980a2a847bb21" target="_top" xlink:title=" ">
<polygon fill="white" stroke="#666666" points="1477.62,-181.5 1351.38,-181.5 1351.38,-148 1477.62,-148 1477.62,-181.5"/>
<text xml:space="preserve" text-anchor="start" x="1359.38" y="-168" font-family="Helvetica,sans-Serif" font-size="10.00">core::EventMultiplexer</text>
<text xml:space="preserve" text-anchor="middle" x="1414.5" y="-155.25" font-family="Helvetica,sans-Serif" font-size="10.00">::span</text>
</a>
</g>
</g>
<!-- Node17&#45;&gt;Node18 -->
<g id="edge17_Node000017_Node000018" class="edge">
<title>Node17&#45;&gt;Node18</title>
<g id="a_edge17_Node000017_Node000018"><a xlink:title=" ">
<path fill="none" stroke="#63b8ff" d="M1304.63,-164.75C1315.75,-164.75 1327.79,-164.75 1339.68,-164.75"/>
<polygon fill="#63b8ff" stroke="#63b8ff" points="1339.49,-168.25 1349.49,-164.75 1339.49,-161.25 1339.49,-168.25"/>
</a>
</g>
</g>
<!-- Node19 -->
<g id="Node000019" class="node">
<title>Node19</title>
<g id="a_Node000019"><a xlink:href="classcore_1_1EventMultiplexer_1_1EventQueue.html#a009075f2f16a78d3bf8d9e3a20226336" target="_top" xlink:title=" ">
<polygon fill="white" stroke="#666666" points="1648.5,-181.5 1522.25,-181.5 1522.25,-148 1648.5,-148 1648.5,-181.5"/>
<text xml:space="preserve" text-anchor="start" x="1530.25" y="-168" font-family="Helvetica,sans-Serif" font-size="10.00">core::EventMultiplexer</text>
<text xml:space="preserve" text-anchor="middle" x="1585.38" y="-155.25" font-family="Helvetica,sans-Serif" font-size="10.00">::EventQueue::insert</text>
</a>
</g>
</g>
<!-- Node18&#45;&gt;Node19 -->
<g id="edge18_Node000018_Node000019" class="edge">
<title>Node18&#45;&gt;Node19</title>
<g id="a_edge18_Node000018_Node000019"><a xlink:title=" ">
<path fill="none" stroke="#63b8ff" d="M1477.9,-164.75C1488.57,-164.75 1499.75,-164.75 1510.68,-164.75"/>
<polygon fill="#63b8ff" stroke="#63b8ff" points="1510.43,-168.25 1520.43,-164.75 1510.43,-161.25 1510.43,-168.25"/>
</a>
</g>
</g>
<!-- Node22&#45;&gt;Node1 -->
<g id="edge25_Node000022_Node000001" class="edge">
<title>Node22&#45;&gt;Node1</title>
<g id="a_edge25_Node000022_Node000001"><a xlink:title=" ">
<path fill="none" stroke="#63b8ff" d="M596.36,-249.88C494.97,-251.35 317.83,-254.14 166,-257.75 158.15,-257.94 149.96,-258.15 141.78,-258.38"/>
<polygon fill="#63b8ff" stroke="#63b8ff" points="141.69,-254.88 131.79,-258.66 141.89,-261.88 141.69,-254.88"/>
</a>
</g>
</g>
<!-- Node22&#45;&gt;Node11 -->
<g id="edge22_Node000022_Node000011" class="edge">
<title>Node22&#45;&gt;Node11</title>
<g id="a_edge22_Node000022_Node000011"><a xlink:title=" ">
<path fill="none" stroke="#63b8ff" d="M748.6,-231.51C777.86,-224.04 812.01,-215.33 841.21,-207.88"/>
<polygon fill="#63b8ff" stroke="#63b8ff" points="841.85,-211.33 850.67,-205.47 840.12,-204.55 841.85,-211.33"/>
</a>
</g>
</g>
<!-- Node22&#45;&gt;Node20 -->
<g id="edge23_Node000022_Node000020" class="edge">
<title>Node22&#45;&gt;Node20</title>
<g id="a_edge23_Node000022_Node000020"><a xlink:title=" ">
<path fill="none" stroke="#63b8ff" d="M750.77,-265.93C774.99,-271.9 802.35,-278.64 827.4,-284.81"/>
<polygon fill="#63b8ff" stroke="#63b8ff" points="826.33,-288.15 836.88,-287.14 828.01,-281.35 826.33,-288.15"/>
</a>
</g>
</g>
<!-- Node22&#45;&gt;Node21 -->
<g id="edge24_Node000022_Node000021" class="edge">
<title>Node22&#45;&gt;Node21</title>
<g id="a_edge24_Node000022_Node000021"><a xlink:title=" ">
<path fill="none" stroke="#63b8ff" d="M763.73,-247.66C774.59,-247.52 785.85,-247.37 797.08,-247.22"/>
<polygon fill="#63b8ff" stroke="#63b8ff" points="796.82,-250.72 806.78,-247.09 796.73,-243.72 796.82,-250.72"/>
</a>
</g>
</g>
<!-- Node22&#45;&gt;Node22 -->
<g id="edge26_Node000022_Node000022" class="edge">
<title>Node22&#45;&gt;Node22</title>
<g id="a_edge26_Node000022_Node000022"><a xlink:title=" ">
<path fill="none" stroke="#63b8ff" d="M642.2,-265.91C635.78,-275.12 648.38,-283.5 680,-283.5 697.54,-283.5 709.23,-280.92 715.06,-277.05"/>
<polygon fill="#63b8ff" stroke="#63b8ff" points="718.45,-277.93 717.43,-267.38 711.65,-276.26 718.45,-277.93"/>
</a>
</g>
</g>
<!-- Node24 -->
<g id="Node000024" class="node">
<title>Node24</title>
<g id="a_Node000024"><a xlink:href="classcore_1_1socket_1_1stream_1_1SocketConnection.html#a73fe465f2fee94189954baa41dedd7e8" target="_top" xlink:title=" ">
<polygon fill="white" stroke="#666666" points="990.5,-149.88 828.25,-149.88 828.25,-103.62 990.5,-103.62 990.5,-149.88"/>
<text xml:space="preserve" text-anchor="start" x="836.25" y="-136.38" font-family="Helvetica,sans-Serif" font-size="10.00">core::socket::stream</text>
<text xml:space="preserve" text-anchor="start" x="836.25" y="-123.62" font-family="Helvetica,sans-Serif" font-size="10.00">::SocketConnection::shutdown</text>
<text xml:space="preserve" text-anchor="middle" x="909.38" y="-110.88" font-family="Helvetica,sans-Serif" font-size="10.00">Write</text>
</a>
</g>
</g>
<!-- Node23&#45;&gt;Node24 -->
<g id="edge28_Node000023_Node000024" class="edge">
<title>Node23&#45;&gt;Node24</title>
<g id="a_edge28_Node000023_Node000024"><a xlink:title=" ">
<path fill="none" stroke="#63b8ff" d="M766.31,-123C782.69,-123.43 799.92,-123.89 816.49,-124.33"/>
<polygon fill="#63b8ff" stroke="#63b8ff" points="816.25,-127.82 826.34,-124.59 816.43,-120.82 816.25,-127.82"/>
</a>
</g>
</g>
</g>
</svg>
