<?xml version="1.0" encoding="UTF-8" standalone="no"?>
<!DOCTYPE svg PUBLIC "-//W3C//DTD SVG 1.1//EN"
 "http://www.w3.org/Graphics/SVG/1.1/DTD/svg11.dtd">
<!-- Generated by graphviz version 2.43.0 (0)
 -->
<!-- Title: core::EventMultiplexer::getTimerEventPublisher Pages: 1 -->
<svg width="1344pt" height="182pt"
 viewBox="0.00 0.00 1344.00 182.00" xmlns="http://www.w3.org/2000/svg" xmlns:xlink="http://www.w3.org/1999/xlink">
<g id="graph0" class="graph" transform="scale(1 1) rotate(0) translate(4 178)">
<title>core::EventMultiplexer::getTimerEventPublisher</title>
<!-- Node1 -->
<g id="Node000001" class="node">
<title>Node1</title>
<g id="a_Node000001"><a xlink:title=" ">
<polygon fill="#999999" stroke="#666666" points="1336,-126 1209,-126 1209,-96 1336,-96 1336,-126"/>
<text text-anchor="start" x="1217" y="-114" font-family="Helvetica,sans-Serif" font-size="10.00">core::EventMultiplexer</text>
<text text-anchor="middle" x="1272.5" y="-103" font-family="Helvetica,sans-Serif" font-size="10.00">::getTimerEventPublisher</text>
</a>
</g>
</g>
<!-- Node2 -->
<g id="Node000002" class="node">
<title>Node2</title>
<g id="a_Node000002"><a xlink:href="classcore_1_1TimerEventReceiver.html#a807e13fae610d76c12480935855046aa" target="_top" xlink:title=" ">
<polygon fill="white" stroke="#666666" points="1173,-126 1042,-126 1042,-96 1173,-96 1173,-126"/>
<text text-anchor="start" x="1050" y="-114" font-family="Helvetica,sans-Serif" font-size="10.00">core::TimerEventReceiver</text>
<text text-anchor="middle" x="1107.5" y="-103" font-family="Helvetica,sans-Serif" font-size="10.00">::TimerEventReceiver</text>
</a>
</g>
</g>
<!-- Node1&#45;&gt;Node2 -->
<g id="edge1_Node000001_Node000002" class="edge">
<title>Node1&#45;&gt;Node2</title>
<g id="a_edge1_Node000001_Node000002"><a xlink:title=" ">
<path fill="none" stroke="#63b8ff" d="M1198.91,-111C1190.3,-111 1181.54,-111 1173.05,-111"/>
<polygon fill="#63b8ff" stroke="#63b8ff" points="1198.95,-114.5 1208.95,-111 1198.95,-107.5 1198.95,-114.5"/>
</a>
</g>
</g>
<!-- Node3 -->
<g id="Node000003" class="node">
<title>Node3</title>
<g id="a_Node000003"><a xlink:href="classcore_1_1timer_1_1IntervalTimer.html#a43563100fc459ce781dac1a12e9dea69" target="_top" xlink:title=" ">
<polygon fill="white" stroke="#666666" points="991,-174 865,-174 865,-144 991,-144 991,-174"/>
<text text-anchor="start" x="873" y="-162" font-family="Helvetica,sans-Serif" font-size="10.00">core::timer::IntervalTimer</text>
<text text-anchor="middle" x="928" y="-151" font-family="Helvetica,sans-Serif" font-size="10.00">::IntervalTimer</text>
</a>
</g>
</g>
<!-- Node2&#45;&gt;Node3 -->
<g id="edge2_Node000002_Node000003" class="edge">
<title>Node2&#45;&gt;Node3</title>
<g id="a_edge2_Node000002_Node000003"><a xlink:title=" ">
<path fill="none" stroke="#63b8ff" d="M1040.98,-128.72C1022.41,-133.74 1002.39,-139.15 984.48,-144"/>
<polygon fill="#63b8ff" stroke="#63b8ff" points="1042.09,-132.04 1050.82,-126.06 1040.26,-125.29 1042.09,-132.04"/>
</a>
</g>
</g>
<!-- Node7 -->
<g id="Node000007" class="node">
<title>Node7</title>
<g id="a_Node000007"><a xlink:href="classcore_1_1timer_1_1IntervalTimerStopable.html#ae3e8467ccb5f5b0c28db30917827a5c6" target="_top" xlink:title=" ">
<polygon fill="white" stroke="#666666" points="1006,-126 850,-126 850,-96 1006,-96 1006,-126"/>
<text text-anchor="start" x="858" y="-114" font-family="Helvetica,sans-Serif" font-size="10.00">core::timer::IntervalTimer</text>
<text text-anchor="middle" x="928" y="-103" font-family="Helvetica,sans-Serif" font-size="10.00">Stopable::IntervalTimerStopable</text>
</a>
</g>
</g>
<!-- Node2&#45;&gt;Node7 -->
<g id="edge6_Node000002_Node000007" class="edge">
<title>Node2&#45;&gt;Node7</title>
<g id="a_edge6_Node000002_Node000007"><a xlink:title=" ">
<path fill="none" stroke="#63b8ff" d="M1031.73,-111C1023.29,-111 1014.68,-111 1006.21,-111"/>
<polygon fill="#63b8ff" stroke="#63b8ff" points="1031.92,-114.5 1041.92,-111 1031.92,-107.5 1031.92,-114.5"/>
</a>
</g>
</g>
<!-- Node9 -->
<g id="Node000009" class="node">
<title>Node9</title>
<g id="a_Node000009"><a xlink:href="classcore_1_1timer_1_1SingleshotTimer.html#a021ce2f4c49323449bbe12b5f7025ab2" target="_top" xlink:title=" ">
<polygon fill="white" stroke="#666666" points="998,-78 858,-78 858,-48 998,-48 998,-78"/>
<text text-anchor="start" x="866" y="-66" font-family="Helvetica,sans-Serif" font-size="10.00">core::timer::SingleshotTimer</text>
<text text-anchor="middle" x="928" y="-55" font-family="Helvetica,sans-Serif" font-size="10.00">::SingleshotTimer</text>
</a>
</g>
</g>
<!-- Node2&#45;&gt;Node9 -->
<g id="edge8_Node000002_Node000009" class="edge">
<title>Node2&#45;&gt;Node9</title>
<g id="a_edge8_Node000002_Node000009"><a xlink:title=" ">
<path fill="none" stroke="#63b8ff" d="M1040.98,-93.28C1022.41,-88.26 1002.39,-82.85 984.48,-78"/>
<polygon fill="#63b8ff" stroke="#63b8ff" points="1040.26,-96.71 1050.82,-95.94 1042.09,-89.96 1040.26,-96.71"/>
</a>
</g>
</g>
<!-- Node4 -->
<g id="Node000004" class="node">
<title>Node4</title>
<g id="a_Node000004"><a xlink:href="classcore_1_1timer_1_1Timer.html#afb7f888ed0b254a49ebc87f0312f06d6" target="_top" xlink:title=" ">
<polygon fill="white" stroke="#666666" points="814,-174 720,-174 720,-144 814,-144 814,-174"/>
<text text-anchor="start" x="728" y="-162" font-family="Helvetica,sans-Serif" font-size="10.00">core::timer::Timer</text>
<text text-anchor="middle" x="767" y="-151" font-family="Helvetica,sans-Serif" font-size="10.00">::intervalTimer</text>
</a>
</g>
</g>
<!-- Node3&#45;&gt;Node4 -->
<g id="edge3_Node000003_Node000004" class="edge">
<title>Node3&#45;&gt;Node4</title>
<g id="a_edge3_Node000003_Node000004"><a xlink:title=" ">
<path fill="none" stroke="#63b8ff" d="M854.33,-159C840.78,-159 826.96,-159 814.47,-159"/>
<polygon fill="#63b8ff" stroke="#63b8ff" points="854.62,-162.5 864.62,-159 854.62,-155.5 854.62,-162.5"/>
</a>
</g>
</g>
<!-- Node5 -->
<g id="Node000005" class="node">
<title>Node5</title>
<g id="a_Node000005"><a xlink:href="classiot_1_1mqtt_1_1client_1_1Mqtt.html#ab0f25dbc1908fdc2b6e5293c4d83e8fc" target="_top" xlink:title=" ">
<polygon fill="white" stroke="#666666" points="500,-174 403,-174 403,-144 500,-144 500,-174"/>
<text text-anchor="start" x="411" y="-162" font-family="Helvetica,sans-Serif" font-size="10.00">iot::mqtt::client::</text>
<text text-anchor="middle" x="451.5" y="-151" font-family="Helvetica,sans-Serif" font-size="10.00">Mqtt::_onConnack</text>
</a>
</g>
</g>
<!-- Node4&#45;&gt;Node5 -->
<g id="edge4_Node000004_Node000005" class="edge">
<title>Node4&#45;&gt;Node5</title>
<g id="a_edge4_Node000004_Node000005"><a xlink:title=" ">
<path fill="none" stroke="#63b8ff" d="M709.72,-159C649.96,-159 556.52,-159 500.23,-159"/>
<polygon fill="#63b8ff" stroke="#63b8ff" points="709.74,-162.5 719.74,-159 709.74,-155.5 709.74,-162.5"/>
</a>
</g>
</g>
<!-- Node6 -->
<g id="Node000006" class="node">
<title>Node6</title>
<g id="a_Node000006"><a xlink:href="classiot_1_1mqtt_1_1client_1_1packets_1_1Connack.html#ac950050234dbc65cd76697b5b8c51a61" target="_top" xlink:title=" ">
<polygon fill="white" stroke="#666666" points="356,-174 195,-174 195,-144 356,-144 356,-174"/>
<text text-anchor="start" x="203" y="-162" font-family="Helvetica,sans-Serif" font-size="10.00">iot::mqtt::client::</text>
<text text-anchor="middle" x="275.5" y="-151" font-family="Helvetica,sans-Serif" font-size="10.00">packets::Connack::deliverPacket</text>
</a>
</g>
</g>
<!-- Node5&#45;&gt;Node6 -->
<g id="edge5_Node000005_Node000006" class="edge">
<title>Node5&#45;&gt;Node6</title>
<g id="a_edge5_Node000005_Node000006"><a xlink:title=" ">
<path fill="none" stroke="#63b8ff" d="M392.85,-159C381.08,-159 368.5,-159 356.12,-159"/>
<polygon fill="#63b8ff" stroke="#63b8ff" points="392.95,-162.5 402.95,-159 392.95,-155.5 392.95,-162.5"/>
</a>
</g>
</g>
<!-- Node8 -->
<g id="Node000008" class="node">
<title>Node8</title>
<g id="a_Node000008"><a xlink:href="classcore_1_1timer_1_1Timer.html#a7d789d74b252cf645bd705ad3bf1b797" target="_top" xlink:title=" ">
<polygon fill="white" stroke="#666666" points="814,-126 720,-126 720,-96 814,-96 814,-126"/>
<text text-anchor="start" x="728" y="-114" font-family="Helvetica,sans-Serif" font-size="10.00">core::timer::Timer</text>
<text text-anchor="middle" x="767" y="-103" font-family="Helvetica,sans-Serif" font-size="10.00">::intervalTimer</text>
</a>
</g>
</g>
<!-- Node7&#45;&gt;Node8 -->
<g id="edge7_Node000007_Node000008" class="edge">
<title>Node7&#45;&gt;Node8</title>
<g id="a_edge7_Node000007_Node000008"><a xlink:title=" ">
<path fill="none" stroke="#63b8ff" d="M839.56,-111C830.83,-111 822.24,-111 814.2,-111"/>
<polygon fill="#63b8ff" stroke="#63b8ff" points="839.83,-114.5 849.83,-111 839.83,-107.5 839.83,-114.5"/>
</a>
</g>
</g>
<!-- Node10 -->
<g id="Node000010" class="node">
<title>Node10</title>
<g id="a_Node000010"><a xlink:href="classcore_1_1timer_1_1Timer.html#a9847ce4e56baf9141cc880aa7e20c71a" target="_top" xlink:title=" ">
<polygon fill="white" stroke="#666666" points="814,-78 720,-78 720,-48 814,-48 814,-78"/>
<text text-anchor="start" x="728" y="-66" font-family="Helvetica,sans-Serif" font-size="10.00">core::timer::Timer</text>
<text text-anchor="middle" x="767" y="-55" font-family="Helvetica,sans-Serif" font-size="10.00">::singleshotTimer</text>
</a>
</g>
</g>
<!-- Node9&#45;&gt;Node10 -->
<g id="edge9_Node000009_Node000010" class="edge">
<title>Node9&#45;&gt;Node10</title>
<g id="a_edge9_Node000009_Node000010"><a xlink:title=" ">
<path fill="none" stroke="#63b8ff" d="M847.66,-63C836.19,-63 824.71,-63 814.18,-63"/>
<polygon fill="#63b8ff" stroke="#63b8ff" points="847.72,-66.5 857.72,-63 847.72,-59.5 847.72,-66.5"/>
</a>
</g>
</g>
<!-- Node11 -->
<g id="Node000011" class="node">
<title>Node11</title>
<g id="a_Node000011"><a xlink:href="classiot_1_1mqtt_1_1Mqtt.html#af49fe8a64d1defd29f3ed4538c1dc6e9" target="_top" xlink:title=" ">
<polygon fill="white" stroke="#666666" points="681.5,-120.5 549.5,-120.5 549.5,-101.5 681.5,-101.5 681.5,-120.5"/>
<text text-anchor="middle" x="615.5" y="-108.5" font-family="Helvetica,sans-Serif" font-size="10.00">iot::mqtt::Mqtt::initSession</text>
</a>
</g>
</g>
<!-- Node10&#45;&gt;Node11 -->
<g id="edge10_Node000010_Node000011" class="edge">
<title>Node10&#45;&gt;Node11</title>
<g id="a_edge10_Node000010_Node000011"><a xlink:title=" ">
<path fill="none" stroke="#63b8ff" d="M710.14,-80.94C688.42,-87.91 664.43,-95.61 646.16,-101.48"/>
<polygon fill="#63b8ff" stroke="#63b8ff" points="711.47,-84.18 719.93,-77.79 709.33,-77.52 711.47,-84.18"/>
</a>
</g>
</g>
<!-- Node15 -->
<g id="Node000015" class="node">
<title>Node15</title>
<g id="a_Node000015"><a xlink:href="classcore_1_1socket_1_1stream_1_1SocketClient.html#ab1fed69440d98a8953872b4650ec58e9" target="_top" xlink:title=" ">
<polygon fill="white" stroke="#666666" points="684,-78 547,-78 547,-48 684,-48 684,-78"/>
<text text-anchor="start" x="555" y="-66" font-family="Helvetica,sans-Serif" font-size="10.00">core::socket::stream</text>
<text text-anchor="middle" x="615.5" y="-55" font-family="Helvetica,sans-Serif" font-size="10.00">::SocketClient::realConnect</text>
</a>
</g>
</g>
<!-- Node10&#45;&gt;Node15 -->
<g id="edge15_Node000010_Node000015" class="edge">
<title>Node10&#45;&gt;Node15</title>
<g id="a_edge15_Node000010_Node000015"><a xlink:title=" ">
<path fill="none" stroke="#63b8ff" d="M709.88,-63C701.48,-63 692.74,-63 684.13,-63"/>
<polygon fill="#63b8ff" stroke="#63b8ff" points="709.93,-66.5 719.93,-63 709.93,-59.5 709.93,-66.5"/>
</a>
</g>
</g>
<!-- Node17 -->
<g id="Node000017" class="node">
<title>Node17</title>
<g id="a_Node000017"><a xlink:href="classcore_1_1socket_1_1stream_1_1SocketServer.html#a25849aad9a7b7549dc9f6dc36673f507" target="_top" xlink:title=" ">
<polygon fill="white" stroke="#666666" points="680.5,-30 550.5,-30 550.5,0 680.5,0 680.5,-30"/>
<text text-anchor="start" x="558.5" y="-18" font-family="Helvetica,sans-Serif" font-size="10.00">core::socket::stream</text>
<text text-anchor="middle" x="615.5" y="-7" font-family="Helvetica,sans-Serif" font-size="10.00">::SocketServer::realListen</text>
</a>
</g>
</g>
<!-- Node10&#45;&gt;Node17 -->
<g id="edge17_Node000010_Node000017" class="edge">
<title>Node10&#45;&gt;Node17</title>
<g id="a_edge17_Node000010_Node000017"><a xlink:title=" ">
<path fill="none" stroke="#63b8ff" d="M710.04,-45.03C694.7,-40.11 678.23,-34.82 663.45,-30.08"/>
<polygon fill="#63b8ff" stroke="#63b8ff" points="709.33,-48.48 719.93,-48.21 711.47,-41.82 709.33,-48.48"/>
</a>
</g>
</g>
<!-- Node11&#45;&gt;Node5 -->
<g id="edge11_Node000011_Node000005" class="edge">
<title>Node11&#45;&gt;Node5</title>
<g id="a_edge11_Node000011_Node000005"><a xlink:title=" ">
<path fill="none" stroke="#63b8ff" d="M572.34,-123.49C550.23,-130.04 523.07,-138.09 500.2,-144.87"/>
<polygon fill="#63b8ff" stroke="#63b8ff" points="573.51,-126.79 582.11,-120.6 571.52,-120.08 573.51,-126.79"/>
</a>
</g>
</g>
<!-- Node12 -->
<g id="Node000012" class="node">
<title>Node12</title>
<g id="a_Node000012"><a xlink:href="classiot_1_1mqtt_1_1server_1_1Mqtt.html#a983c6c6a499d6c9c664f03b3ea52600c" target="_top" xlink:title=" ">
<polygon fill="white" stroke="#666666" points="497.5,-126 405.5,-126 405.5,-96 497.5,-96 497.5,-126"/>
<text text-anchor="start" x="413.5" y="-114" font-family="Helvetica,sans-Serif" font-size="10.00">iot::mqtt::server::</text>
<text text-anchor="middle" x="451.5" y="-103" font-family="Helvetica,sans-Serif" font-size="10.00">Mqtt::initSession</text>
</a>
</g>
</g>
<!-- Node11&#45;&gt;Node12 -->
<g id="edge12_Node000011_Node000012" class="edge">
<title>Node11&#45;&gt;Node12</title>
<g id="a_edge12_Node000011_Node000012"><a xlink:title=" ">
<path fill="none" stroke="#63b8ff" d="M538.9,-111C524.85,-111 510.57,-111 497.78,-111"/>
<polygon fill="#63b8ff" stroke="#63b8ff" points="539.08,-114.5 549.08,-111 539.08,-107.5 539.08,-114.5"/>
</a>
</g>
</g>
<!-- Node13 -->
<g id="Node000013" class="node">
<title>Node13</title>
<g id="a_Node000013"><a xlink:href="classiot_1_1mqtt_1_1server_1_1Mqtt.html#a92036680046e60baa280afa4f20c5580" target="_top" xlink:title=" ">
<polygon fill="white" stroke="#666666" points="323,-126 228,-126 228,-96 323,-96 323,-126"/>
<text text-anchor="start" x="236" y="-114" font-family="Helvetica,sans-Serif" font-size="10.00">iot::mqtt::server::</text>
<text text-anchor="middle" x="275.5" y="-103" font-family="Helvetica,sans-Serif" font-size="10.00">Mqtt::_onConnect</text>
</a>
</g>
</g>
<!-- Node12&#45;&gt;Node13 -->
<g id="edge13_Node000012_Node000013" class="edge">
<title>Node12&#45;&gt;Node13</title>
<g id="a_edge13_Node000012_Node000013"><a xlink:title=" ">
<path fill="none" stroke="#63b8ff" d="M395.18,-111C371.96,-111 345.25,-111 323.05,-111"/>
<polygon fill="#63b8ff" stroke="#63b8ff" points="395.24,-114.5 405.24,-111 395.24,-107.5 395.24,-114.5"/>
</a>
</g>
</g>
<!-- Node14 -->
<g id="Node000014" class="node">
<title>Node14</title>
<g id="a_Node000014"><a xlink:href="classiot_1_1mqtt_1_1server_1_1packets_1_1Connect.html#a5568a6ab65ba3eeb8460e286fe4574ea" target="_top" xlink:title=" ">
<polygon fill="white" stroke="#666666" points="159,-126 0,-126 0,-96 159,-96 159,-126"/>
<text text-anchor="start" x="8" y="-114" font-family="Helvetica,sans-Serif" font-size="10.00">iot::mqtt::server::</text>
<text text-anchor="middle" x="79.5" y="-103" font-family="Helvetica,sans-Serif" font-size="10.00">packets::Connect::deliverPacket</text>
</a>
</g>
</g>
<!-- Node13&#45;&gt;Node14 -->
<g id="edge14_Node000013_Node000014" class="edge">
<title>Node13&#45;&gt;Node14</title>
<g id="a_edge14_Node000013_Node000014"><a xlink:title=" ">
<path fill="none" stroke="#63b8ff" d="M217.38,-111C199.16,-111 178.67,-111 159.19,-111"/>
<polygon fill="#63b8ff" stroke="#63b8ff" points="217.54,-114.5 227.54,-111 217.54,-107.5 217.54,-114.5"/>
</a>
</g>
</g>
<!-- Node16 -->
<g id="Node000016" class="node">
<title>Node16</title>
<g id="a_Node000016"><a xlink:href="classcore_1_1socket_1_1stream_1_1SocketClient.html#afeafbe65ec572d555360192599066a2e" target="_top" xlink:title=" ">
<polygon fill="white" stroke="#666666" points="511,-78 392,-78 392,-48 511,-48 511,-78"/>
<text text-anchor="start" x="400" y="-66" font-family="Helvetica,sans-Serif" font-size="10.00">core::socket::stream</text>
<text text-anchor="middle" x="451.5" y="-55" font-family="Helvetica,sans-Serif" font-size="10.00">::SocketClient::connect</text>
</a>
</g>
</g>
<!-- Node15&#45;&gt;Node16 -->
<g id="edge16_Node000015_Node000016" class="edge">
<title>Node15&#45;&gt;Node16</title>
<g id="a_edge16_Node000015_Node000016"><a xlink:title=" ">
<path fill="none" stroke="#63b8ff" d="M536.72,-63C528.15,-63 519.53,-63 511.24,-63"/>
<polygon fill="#63b8ff" stroke="#63b8ff" points="536.74,-66.5 546.74,-63 536.74,-59.5 536.74,-66.5"/>
</a>
</g>
</g>
<!-- Node18 -->
<g id="Node000018" class="node">
<title>Node18</title>
<g id="a_Node000018"><a xlink:href="classcore_1_1socket_1_1stream_1_1SocketServer.html#a284e4c110a989e14c5f5a5772e0384e2" target="_top" xlink:title=" ">
<polygon fill="white" stroke="#666666" points="507,-30 396,-30 396,0 507,0 507,-30"/>
<text text-anchor="start" x="404" y="-18" font-family="Helvetica,sans-Serif" font-size="10.00">core::socket::stream</text>
<text text-anchor="middle" x="451.5" y="-7" font-family="Helvetica,sans-Serif" font-size="10.00">::SocketServer::listen</text>
</a>
</g>
</g>
<!-- Node17&#45;&gt;Node18 -->
<g id="edge18_Node000017_Node000018" class="edge">
<title>Node17&#45;&gt;Node18</title>
<g id="a_edge18_Node000017_Node000018"><a xlink:title=" ">
<path fill="none" stroke="#63b8ff" d="M540.3,-15C529.15,-15 517.82,-15 507.17,-15"/>
<polygon fill="#63b8ff" stroke="#63b8ff" points="540.47,-18.5 550.47,-15 540.47,-11.5 540.47,-18.5"/>
</a>
</g>
</g>
</g>
</svg>
