<?xml version="1.0" encoding="UTF-8" standalone="no"?>
<!DOCTYPE svg PUBLIC "-//W3C//DTD SVG 1.1//EN"
 "http://www.w3.org/Graphics/SVG/1.1/DTD/svg11.dtd">
<!-- Generated by graphviz version 2.43.0 (0)
 -->
<!-- Title: database::mariadb::MariaDBConnection::execute_async Pages: 1 -->
<svg width="452pt" height="104pt"
 viewBox="0.00 0.00 452.00 104.00" xmlns="http://www.w3.org/2000/svg" xmlns:xlink="http://www.w3.org/1999/xlink">
<g id="graph0" class="graph" transform="scale(1 1) rotate(0) translate(4 100)">
<title>database::mariadb::MariaDBConnection::execute_async</title>
<!-- Node1 -->
<g id="Node000001" class="node">
<title>Node1</title>
<g id="a_Node000001"><a xlink:title=" ">
<polygon fill="#999999" stroke="#666666" points="444,-54 252,-54 252,-24 444,-24 444,-54"/>
<text text-anchor="start" x="260" y="-42" font-family="Helvetica,sans-Serif" font-size="10.00">database::mariadb::</text>
<text text-anchor="middle" x="348" y="-31" font-family="Helvetica,sans-Serif" font-size="10.00">MariaDBConnection::execute_async</text>
</a>
</g>
</g>
<!-- Node2 -->
<g id="Node000002" class="node">
<title>Node2</title>
<g id="a_Node000002"><a xlink:href="classdatabase_1_1mariadb_1_1_maria_d_b_client.html#a4e3ba4237c2ca362153722d7f94ce00f" target="_top" xlink:title=" ">
<polygon fill="white" stroke="#666666" points="191,-78 25,-78 25,-48 191,-48 191,-78"/>
<text text-anchor="start" x="33" y="-66" font-family="Helvetica,sans-Serif" font-size="10.00">database::mariadb::</text>
<text text-anchor="middle" x="108" y="-55" font-family="Helvetica,sans-Serif" font-size="10.00">MariaDBClient::execute_async</text>
</a>
</g>
</g>
<!-- Node1&#45;&gt;Node2 -->
<g id="edge1_Node000001_Node000002" class="edge">
<title>Node1&#45;&gt;Node2</title>
<g id="a_edge1_Node000001_Node000002"><a xlink:title=" ">
<path fill="none" stroke="#63b8ff" d="M241.49,-49.64C224.66,-51.34 207.47,-53.07 191.28,-54.7"/>
<polygon fill="#63b8ff" stroke="#63b8ff" points="242.31,-53.07 251.91,-48.59 241.61,-46.11 242.31,-53.07"/>
</a>
</g>
</g>
<!-- Node3 -->
<g id="Node000003" class="node">
<title>Node3</title>
<g id="a_Node000003"><a xlink:href="classdatabase_1_1mariadb_1_1_maria_d_b_connection.html#a794891f07a71729619f09610842ec23c" target="_top" xlink:title=" ">
<polygon fill="white" stroke="#666666" points="216,-30 0,-30 0,0 216,0 216,-30"/>
<text text-anchor="start" x="8" y="-18" font-family="Helvetica,sans-Serif" font-size="10.00">database::mariadb::</text>
<text text-anchor="middle" x="108" y="-7" font-family="Helvetica,sans-Serif" font-size="10.00">MariaDBConnection::MariaDBConnection</text>
</a>
</g>
</g>
<!-- Node1&#45;&gt;Node3 -->
<g id="edge3_Node000001_Node000003" class="edge">
<title>Node1&#45;&gt;Node3</title>
<g id="a_edge3_Node000001_Node000003"><a xlink:title=" ">
<path fill="none" stroke="#63b8ff" d="M241.9,-28.4C233.33,-27.54 224.66,-26.66 216.07,-25.8"/>
<polygon fill="#63b8ff" stroke="#63b8ff" points="241.61,-31.89 251.91,-29.41 242.31,-24.93 241.61,-31.89"/>
</a>
</g>
</g>
<!-- Node2&#45;&gt;Node2 -->
<g id="edge2_Node000002_Node000002" class="edge">
<title>Node2&#45;&gt;Node2</title>
<g id="a_edge2_Node000002_Node000002"><a xlink:title=" ">
<path fill="none" stroke="#63b8ff" d="M150.01,-88.6C144.27,-92.97 130.27,-96 108,-96 70.5,-96 56.44,-87.41 65.81,-78.28"/>
<polygon fill="#63b8ff" stroke="#63b8ff" points="153.51,-88.33 150.19,-78.28 146.51,-88.21 153.51,-88.33"/>
</a>
</g>
</g>
</g>
</svg>
