<?xml version="1.0" encoding="UTF-8" standalone="no"?>
<!DOCTYPE svg PUBLIC "-//W3C//DTD SVG 1.1//EN"
 "http://www.w3.org/Graphics/SVG/1.1/DTD/svg11.dtd">
<!-- Generated by graphviz version 2.43.0 (0)
 -->
<!-- Title: net::config::stream::tls::ConfigSocketClient::getSslCtx Pages: 1 -->
<svg width="486pt" height="470pt"
 viewBox="0.00 0.00 486.00 470.00" xmlns="http://www.w3.org/2000/svg" xmlns:xlink="http://www.w3.org/1999/xlink">
<g id="graph0" class="graph" transform="scale(1 1) rotate(0) translate(4 466)">
<title>net::config::stream::tls::ConfigSocketClient::getSslCtx</title>
<!-- Node1 -->
<g id="Node000001" class="node">
<title>Node1</title>
<g id="a_Node000001"><a xlink:title=" ">
<polygon fill="#999999" stroke="#666666" points="133,-251.5 0,-251.5 0,-210.5 133,-210.5 133,-251.5"/>
<text text-anchor="start" x="8" y="-239.5" font-family="Helvetica,sans-Serif" font-size="10.00">net::config::stream</text>
<text text-anchor="start" x="8" y="-228.5" font-family="Helvetica,sans-Serif" font-size="10.00">::tls::ConfigSocketClient</text>
<text text-anchor="middle" x="66.5" y="-217.5" font-family="Helvetica,sans-Serif" font-size="10.00">::getSslCtx</text>
</a>
</g>
</g>
<!-- Node2 -->
<g id="Node000002" class="node">
<title>Node2</title>
<g id="a_Node000002"><a xlink:href="classnet_1_1config_1_1ConfigTls.html#a4302d359cd2202f36e8f05599e680425" target="_top" xlink:title=" ">
<polygon fill="white" stroke="#666666" points="299,-462 179,-462 179,-432 299,-432 299,-462"/>
<text text-anchor="start" x="187" y="-450" font-family="Helvetica,sans-Serif" font-size="10.00">net::config::ConfigTls</text>
<text text-anchor="middle" x="239" y="-439" font-family="Helvetica,sans-Serif" font-size="10.00">::getCaCertDir</text>
</a>
</g>
</g>
<!-- Node1&#45;&gt;Node2 -->
<g id="edge1_Node000001_Node000002" class="edge">
<title>Node1&#45;&gt;Node2</title>
<g id="a_edge1_Node000001_Node000002"><a xlink:title=" ">
<path fill="none" stroke="#63b8ff" d="M72.89,-251.55C84.14,-290.54 113.8,-375.59 169,-423 170.36,-424.16 171.77,-425.27 173.24,-426.33"/>
<polygon fill="#63b8ff" stroke="#63b8ff" points="171.75,-429.52 182.09,-431.82 175.44,-423.57 171.75,-429.52"/>
</a>
</g>
</g>
<!-- Node3 -->
<g id="Node000003" class="node">
<title>Node3</title>
<g id="a_Node000003"><a xlink:href="classnet_1_1config_1_1ConfigTls.html#a133a8f27ee882066e315f1bf46e0bb8d" target="_top" xlink:title=" ">
<polygon fill="white" stroke="#666666" points="299,-414 179,-414 179,-384 299,-384 299,-414"/>
<text text-anchor="start" x="187" y="-402" font-family="Helvetica,sans-Serif" font-size="10.00">net::config::ConfigTls</text>
<text text-anchor="middle" x="239" y="-391" font-family="Helvetica,sans-Serif" font-size="10.00">::getCaCertFile</text>
</a>
</g>
</g>
<!-- Node1&#45;&gt;Node3 -->
<g id="edge2_Node000001_Node000003" class="edge">
<title>Node1&#45;&gt;Node3</title>
<g id="a_edge2_Node000001_Node000003"><a xlink:title=" ">
<path fill="none" stroke="#63b8ff" d="M76.9,-251.74C92,-282.85 124.54,-341.5 169,-375 170.85,-376.4 172.79,-377.71 174.8,-378.96"/>
<polygon fill="#63b8ff" stroke="#63b8ff" points="173.48,-382.23 183.94,-383.96 176.85,-376.09 173.48,-382.23"/>
</a>
</g>
</g>
<!-- Node4 -->
<g id="Node000004" class="node">
<title>Node4</title>
<g id="a_Node000004"><a xlink:href="classnet_1_1config_1_1ConfigTls.html#a904776891e3d7e39ebff24408606df7f" target="_top" xlink:title=" ">
<polygon fill="white" stroke="#666666" points="299,-366 179,-366 179,-336 299,-336 299,-366"/>
<text text-anchor="start" x="187" y="-354" font-family="Helvetica,sans-Serif" font-size="10.00">net::config::ConfigTls</text>
<text text-anchor="middle" x="239" y="-343" font-family="Helvetica,sans-Serif" font-size="10.00">::getCertChain</text>
</a>
</g>
</g>
<!-- Node1&#45;&gt;Node4 -->
<g id="edge3_Node000001_Node000004" class="edge">
<title>Node1&#45;&gt;Node4</title>
<g id="a_edge3_Node000001_Node000004"><a xlink:title=" ">
<path fill="none" stroke="#63b8ff" d="M84.58,-251.67C103.3,-273.16 135.22,-306.47 169,-327 171.76,-328.68 174.66,-330.26 177.64,-331.75"/>
<polygon fill="#63b8ff" stroke="#63b8ff" points="176.21,-334.95 186.76,-335.94 179.13,-328.59 176.21,-334.95"/>
</a>
</g>
</g>
<!-- Node5 -->
<g id="Node000005" class="node">
<title>Node5</title>
<g id="a_Node000005"><a xlink:href="classnet_1_1config_1_1ConfigTls.html#aa6cb302815f7443f963ef8a970edf771" target="_top" xlink:title=" ">
<polygon fill="white" stroke="#666666" points="299,-318 179,-318 179,-288 299,-288 299,-318"/>
<text text-anchor="start" x="187" y="-306" font-family="Helvetica,sans-Serif" font-size="10.00">net::config::ConfigTls</text>
<text text-anchor="middle" x="239" y="-295" font-family="Helvetica,sans-Serif" font-size="10.00">::getCertKey</text>
</a>
</g>
</g>
<!-- Node1&#45;&gt;Node5 -->
<g id="edge4_Node000001_Node000005" class="edge">
<title>Node1&#45;&gt;Node5</title>
<g id="a_edge4_Node000001_Node000005"><a xlink:title=" ">
<path fill="none" stroke="#63b8ff" d="M108.54,-251.63C126.84,-260.51 148.79,-270.74 169,-279 173.46,-280.82 178.12,-282.64 182.81,-284.4"/>
<polygon fill="#63b8ff" stroke="#63b8ff" points="181.87,-287.78 192.46,-287.94 184.28,-281.21 181.87,-287.78"/>
</a>
</g>
</g>
<!-- Node6 -->
<g id="Node000006" class="node">
<title>Node6</title>
<g id="a_Node000006"><a xlink:href="classnet_1_1config_1_1ConfigTls.html#add00c3162c2b783312b0f83a7c821e86" target="_top" xlink:title=" ">
<polygon fill="white" stroke="#666666" points="300.5,-270 177.5,-270 177.5,-240 300.5,-240 300.5,-270"/>
<text text-anchor="start" x="185.5" y="-258" font-family="Helvetica,sans-Serif" font-size="10.00">net::config::ConfigTls</text>
<text text-anchor="middle" x="239" y="-247" font-family="Helvetica,sans-Serif" font-size="10.00">::getCertKeyPassword</text>
</a>
</g>
</g>
<!-- Node1&#45;&gt;Node6 -->
<g id="edge5_Node000001_Node000006" class="edge">
<title>Node1&#45;&gt;Node6</title>
<g id="a_edge5_Node000001_Node000006"><a xlink:title=" ">
<path fill="none" stroke="#63b8ff" d="M133.42,-240.28C144.47,-241.83 155.97,-243.45 167.14,-245.03"/>
<polygon fill="#63b8ff" stroke="#63b8ff" points="166.89,-248.52 177.28,-246.45 167.86,-241.59 166.89,-248.52"/>
</a>
</g>
</g>
<!-- Node7 -->
<g id="Node000007" class="node">
<title>Node7</title>
<g id="a_Node000007"><a xlink:href="classnet_1_1config_1_1ConfigTls.html#a8271a020b16cedcf85558e4928cd8933" target="_top" xlink:title=" ">
<polygon fill="white" stroke="#666666" points="299,-222 179,-222 179,-192 299,-192 299,-222"/>
<text text-anchor="start" x="187" y="-210" font-family="Helvetica,sans-Serif" font-size="10.00">net::config::ConfigTls</text>
<text text-anchor="middle" x="239" y="-199" font-family="Helvetica,sans-Serif" font-size="10.00">::getCipherList</text>
</a>
</g>
</g>
<!-- Node1&#45;&gt;Node7 -->
<g id="edge6_Node000001_Node000007" class="edge">
<title>Node1&#45;&gt;Node7</title>
<g id="a_edge6_Node000001_Node000007"><a xlink:title=" ">
<path fill="none" stroke="#63b8ff" d="M133.42,-221.72C145.02,-220.09 157.12,-218.39 168.8,-216.74"/>
<polygon fill="#63b8ff" stroke="#63b8ff" points="169.52,-220.17 178.94,-215.31 168.55,-213.24 169.52,-220.17"/>
</a>
</g>
</g>
<!-- Node8 -->
<g id="Node000008" class="node">
<title>Node8</title>
<g id="a_Node000008"><a xlink:href="classnet_1_1config_1_1ConfigTls.html#ad069d52562c6b44c63908a6e2ddd8953" target="_top" xlink:title=" ">
<polygon fill="white" stroke="#666666" points="299,-174 179,-174 179,-144 299,-144 299,-174"/>
<text text-anchor="start" x="187" y="-162" font-family="Helvetica,sans-Serif" font-size="10.00">net::config::ConfigTls</text>
<text text-anchor="middle" x="239" y="-151" font-family="Helvetica,sans-Serif" font-size="10.00">::getSslTlsOptions</text>
</a>
</g>
</g>
<!-- Node1&#45;&gt;Node8 -->
<g id="edge7_Node000001_Node000008" class="edge">
<title>Node1&#45;&gt;Node8</title>
<g id="a_edge7_Node000001_Node000008"><a xlink:title=" ">
<path fill="none" stroke="#63b8ff" d="M108.54,-210.37C126.84,-201.49 148.79,-191.26 169,-183 173.46,-181.18 178.12,-179.36 182.81,-177.6"/>
<polygon fill="#63b8ff" stroke="#63b8ff" points="184.28,-180.79 192.46,-174.06 181.87,-174.22 184.28,-180.79"/>
</a>
</g>
</g>
<!-- Node9 -->
<g id="Node000009" class="node">
<title>Node9</title>
<g id="a_Node000009"><a xlink:href="classnet_1_1config_1_1ConfigTls.html#a9bc866cb898181a0196b0334b41cdc87" target="_top" xlink:title=" ">
<polygon fill="white" stroke="#666666" points="309,-126 169,-126 169,-96 309,-96 309,-126"/>
<text text-anchor="start" x="177" y="-114" font-family="Helvetica,sans-Serif" font-size="10.00">net::config::ConfigTls</text>
<text text-anchor="middle" x="239" y="-103" font-family="Helvetica,sans-Serif" font-size="10.00">::getUseDefaultCaCertDir</text>
</a>
</g>
</g>
<!-- Node1&#45;&gt;Node9 -->
<g id="edge8_Node000001_Node000009" class="edge">
<title>Node1&#45;&gt;Node9</title>
<g id="a_edge8_Node000001_Node000009"><a xlink:title=" ">
<path fill="none" stroke="#63b8ff" d="M84.58,-210.33C103.3,-188.84 135.22,-155.53 169,-135 171.76,-133.32 174.66,-131.74 177.64,-130.25"/>
<polygon fill="#63b8ff" stroke="#63b8ff" points="179.13,-133.41 186.76,-126.06 176.21,-127.05 179.13,-133.41"/>
</a>
</g>
</g>
<!-- Node10 -->
<g id="Node000010" class="node">
<title>Node10</title>
<g id="a_Node000010"><a xlink:href="namespacecore_1_1socket_1_1stream_1_1tls.html#aefd777e1f1c17197ec24d244bb46c047" target="_top" xlink:title=" ">
<polygon fill="white" stroke="#666666" points="297,-78 181,-78 181,-48 297,-48 297,-78"/>
<text text-anchor="start" x="189" y="-66" font-family="Helvetica,sans-Serif" font-size="10.00">core::socket::stream</text>
<text text-anchor="middle" x="239" y="-55" font-family="Helvetica,sans-Serif" font-size="10.00">::tls::ssl_ctx_new</text>
</a>
</g>
</g>
<!-- Node1&#45;&gt;Node10 -->
<g id="edge9_Node000001_Node000010" class="edge">
<title>Node1&#45;&gt;Node10</title>
<g id="a_edge9_Node000001_Node000010"><a xlink:title=" ">
<path fill="none" stroke="#63b8ff" d="M76.9,-210.26C92,-179.15 124.54,-120.5 169,-87 170.85,-85.6 172.79,-84.29 174.8,-83.04"/>
<polygon fill="#63b8ff" stroke="#63b8ff" points="176.85,-85.91 183.94,-78.04 173.48,-79.77 176.85,-85.91"/>
</a>
</g>
</g>
<!-- Node14 -->
<g id="Node000014" class="node">
<title>Node14</title>
<g id="a_Node000014"><a xlink:href="structcore_1_1socket_1_1stream_1_1tls_1_1SslConfig.html#ae8fdf11461fdf8f37d58d6083bdd00a5" target="_top" xlink:title=" ">
<polygon fill="white" stroke="#666666" points="308,-30 170,-30 170,0 308,0 308,-30"/>
<text text-anchor="start" x="178" y="-18" font-family="Helvetica,sans-Serif" font-size="10.00">core::socket::stream</text>
<text text-anchor="middle" x="239" y="-7" font-family="Helvetica,sans-Serif" font-size="10.00">::tls::SslConfig::SslConfig</text>
</a>
</g>
</g>
<!-- Node1&#45;&gt;Node14 -->
<g id="edge13_Node000001_Node000014" class="edge">
<title>Node1&#45;&gt;Node14</title>
<g id="a_edge13_Node000001_Node000014"><a xlink:title=" ">
<path fill="none" stroke="#63b8ff" d="M72.89,-210.45C84.14,-171.46 113.8,-86.41 169,-39 170.36,-37.84 171.77,-36.73 173.24,-35.67"/>
<polygon fill="#63b8ff" stroke="#63b8ff" points="175.44,-38.43 182.09,-30.18 171.75,-32.48 175.44,-38.43"/>
</a>
</g>
</g>
<!-- Node11 -->
<g id="Node000011" class="node">
<title>Node11</title>
<g id="a_Node000011"><a xlink:href="namespacecore_1_1socket_1_1stream_1_1tls.html#a3d19258d83489ec6962a3b19da46d0c1" target="_top" xlink:title=" ">
<polygon fill="white" stroke="#666666" points="478,-126 345,-126 345,-96 478,-96 478,-126"/>
<text text-anchor="start" x="353" y="-114" font-family="Helvetica,sans-Serif" font-size="10.00">core::socket::stream</text>
<text text-anchor="middle" x="411.5" y="-103" font-family="Helvetica,sans-Serif" font-size="10.00">::tls::password_callback</text>
</a>
</g>
</g>
<!-- Node10&#45;&gt;Node11 -->
<g id="edge10_Node000010_Node000011" class="edge">
<title>Node10&#45;&gt;Node11</title>
<g id="a_edge10_Node000010_Node000011"><a xlink:title=" ">
<path fill="none" stroke="#63b8ff" d="M293.48,-78.06C310.62,-82.88 329.76,-88.27 347.51,-93.27"/>
<polygon fill="#63b8ff" stroke="#63b8ff" points="346.64,-96.66 357.21,-96 348.53,-89.92 346.64,-96.66"/>
</a>
</g>
</g>
<!-- Node12 -->
<g id="Node000012" class="node">
<title>Node12</title>
<g id="a_Node000012"><a xlink:href="namespacecore_1_1socket_1_1stream_1_1tls.html#afe89f684150f8b6288c799f430809e29" target="_top" xlink:title=" ">
<polygon fill="white" stroke="#666666" points="469.5,-78 353.5,-78 353.5,-48 469.5,-48 469.5,-78"/>
<text text-anchor="start" x="361.5" y="-66" font-family="Helvetica,sans-Serif" font-size="10.00">core::socket::stream</text>
<text text-anchor="middle" x="411.5" y="-55" font-family="Helvetica,sans-Serif" font-size="10.00">::tls::ssl_log_error</text>
</a>
</g>
</g>
<!-- Node10&#45;&gt;Node12 -->
<g id="edge11_Node000010_Node000012" class="edge">
<title>Node10&#45;&gt;Node12</title>
<g id="a_edge11_Node000010_Node000012"><a xlink:title=" ">
<path fill="none" stroke="#63b8ff" d="M297.25,-63C311.95,-63 327.9,-63 343.06,-63"/>
<polygon fill="#63b8ff" stroke="#63b8ff" points="343.4,-66.5 353.4,-63 343.4,-59.5 343.4,-66.5"/>
</a>
</g>
</g>
<!-- Node13 -->
<g id="Node000013" class="node">
<title>Node13</title>
<g id="a_Node000013"><a xlink:href="namespacecore_1_1socket_1_1stream_1_1tls.html#a322715864c9cd97e7b46ddebffef8fa5" target="_top" xlink:title=" ">
<polygon fill="white" stroke="#666666" points="469.5,-30 353.5,-30 353.5,0 469.5,0 469.5,-30"/>
<text text-anchor="start" x="361.5" y="-18" font-family="Helvetica,sans-Serif" font-size="10.00">core::socket::stream</text>
<text text-anchor="middle" x="411.5" y="-7" font-family="Helvetica,sans-Serif" font-size="10.00">::tls::verify_callback</text>
</a>
</g>
</g>
<!-- Node10&#45;&gt;Node13 -->
<g id="edge12_Node000010_Node000013" class="edge">
<title>Node10&#45;&gt;Node13</title>
<g id="a_edge12_Node000010_Node000013"><a xlink:title=" ">
<path fill="none" stroke="#63b8ff" d="M293.48,-47.94C310.62,-43.12 329.76,-37.73 347.51,-32.73"/>
<polygon fill="#63b8ff" stroke="#63b8ff" points="348.53,-36.08 357.21,-30 346.64,-29.34 348.53,-36.08"/>
</a>
</g>
</g>
</g>
</svg>
