<?xml version="1.0" encoding="UTF-8" standalone="no"?>
<!DOCTYPE svg PUBLIC "-//W3C//DTD SVG 1.1//EN"
 "http://www.w3.org/Graphics/SVG/1.1/DTD/svg11.dtd">
<!-- Generated by graphviz version 14.1.1 (0)
 -->
<!-- Title: express::Dispatcher::dispatchNext Pages: 1 -->
<!--zoomable 276 -->

<svg id="main" version="1.1" xmlns="http://www.w3.org/2000/svg" xmlns:xlink="http://www.w3.org/1999/xlink" xml:space="preserve" onload="init(evt)">

<style type="text/css"><![CDATA[
.node, .edge {opacity: 0.7;}
.node.selected, .edge.selected {opacity: 1;}
.edge:hover path { stroke: red; }
.edge:hover polygon { stroke: red; fill: red; }
]]></style>

<defs>
  <circle id="rim" cx="0" cy="0" r="7"/>
  <circle id="rim2" cx="0" cy="0" r="3.5"/>
  <g id="zoomPlus">
    <use xlink:href="#rim" fill="#404040"><set attributeName="fill" to="#808080" begin="zoomplus.mouseover" end="zoomplus.mouseout"/></use>
    <path d="M-4,0h8M0,-4v8" fill="none" stroke="white" stroke-width="1.5" pointer-events="none"/>
  </g>
  <g id="zoomMin">
    <use xlink:href="#rim" fill="#404040"><set attributeName="fill" to="#808080" begin="zoomminus.mouseover" end="zoomminus.mouseout"/></use>
    <path d="M-4,0h8" fill="none" stroke="white" stroke-width="1.5" pointer-events="none"/>
  </g>
  <g id="arrowUp" transform="translate(30 24)">
    <use xlink:href="#rim"/>
    <path pointer-events="none" fill="none" stroke="white" stroke-width="1.5" d="M0,-3.0v7 M-2.5,-0.5L0,-3.0L2.5,-0.5"/>
  </g>
  <g id="arrowRight" transform="rotate(90) translate(36 -43)">
    <use xlink:href="#rim"/>
    <path pointer-events="none" fill="none" stroke="white" stroke-width="1.5" d="M0,-3.0v7 M-2.5,-0.5L0,-3.0L2.5,-0.5"/>
  </g>
  <g id="arrowDown" transform="rotate(180) translate(-30 -48)">
    <use xlink:href="#rim"/>
    <path pointer-events="none" fill="none" stroke="white" stroke-width="1.5" d="M0,-3.0v7 M-2.5,-0.5L0,-3.0L2.5,-0.5"/>
  </g>
  <g id="arrowLeft" transform="rotate(270) translate(-36 17)">
    <use xlink:href="#rim"/>
    <path pointer-events="none" fill="none" stroke="white" stroke-width="1.5" d="M0,-3.0v7 M-2.5,-0.5L0,-3.0L2.5,-0.5"/>
  </g>
  <g id="resetDef">
    <use xlink:href="#rim2" fill="#404040"><set attributeName="fill" to="#808080" begin="reset.mouseover" end="reset.mouseout"/></use>
  </g>
</defs>
<script type="application/ecmascript">
var viewWidth = 637;
var viewHeight = 276;
var sectionId = 'dynsection-3';
</script>
<script type="application/ecmascript" xlink:href="svg.min.js"/>
<svg id="graph" class="graph">
<g id="viewport">
<title>express::Dispatcher::dispatchNext</title>
<!-- Node1 -->
<g id="Node000001" class="node">
<title>Node1</title>
<g id="a_Node000001"><a xlink:title=" ">
<polygon fill="#999999" stroke="#666666" points="112.75,-62.7 0,-62.7 0,-29.2 112.75,-29.2 112.75,-62.7"/>
<text xml:space="preserve" text-anchor="start" x="8" y="-49.2" font-family="Helvetica,sans-Serif" font-size="10.00">express::Dispatcher</text>
<text xml:space="preserve" text-anchor="middle" x="56.38" y="-36.45" font-family="Helvetica,sans-Serif" font-size="10.00">::dispatchNext</text>
</a>
</g>
</g>
<!-- Node2 -->
<g id="Node000002" class="node">
<title>Node2</title>
<g id="a_Node000002"><a xlink:href="classexpress_1_1Route.html#a1aea7b29f8470cd6394ab72d5daeb66d" target="_top" xlink:title=" ">
<polygon fill="white" stroke="#666666" points="284.75,-131.32 148.75,-131.32 148.75,-110.57 284.75,-110.57 284.75,-131.32"/>
<text xml:space="preserve" text-anchor="middle" x="216.75" y="-117.82" font-family="Helvetica,sans-Serif" font-size="10.00">express::Route::dispatch</text>
</a>
</g>
</g>
<!-- Node1&#45;&gt;Node2 -->
<g id="edge1_Node000001_Node000002" class="edge">
<title>Node1&#45;&gt;Node2</title>
<g id="a_edge1_Node000001_Node000002"><a xlink:title=" ">
<path fill="none" stroke="#63b8ff" d="M93.71,-63.15C120.52,-75.85 156.7,-92.98 182.7,-105.29"/>
<polygon fill="#63b8ff" stroke="#63b8ff" points="180.91,-108.32 191.45,-109.44 183.91,-101.99 180.91,-108.32"/>
</a>
</g>
</g>
<!-- Node3 -->
<g id="Node000003" class="node">
<title>Node3</title>
<g id="a_Node000003"><a xlink:href="classexpress_1_1Dispatcher.html#a85f78f8231206e037904233940b7b5a7" target="_top" xlink:title=" ">
<polygon fill="white" stroke="#666666" points="433.5,-267.7 320.75,-267.7 320.75,-234.2 433.5,-234.2 433.5,-267.7"/>
<text xml:space="preserve" text-anchor="start" x="328.75" y="-254.2" font-family="Helvetica,sans-Serif" font-size="10.00">express::Dispatcher</text>
<text xml:space="preserve" text-anchor="middle" x="377.12" y="-241.45" font-family="Helvetica,sans-Serif" font-size="10.00">::dispatch</text>
</a>
</g>
</g>
<!-- Node2&#45;&gt;Node3 -->
<g id="edge2_Node000002_Node000003" class="edge">
<title>Node2&#45;&gt;Node3</title>
<g id="a_edge2_Node000002_Node000003"><a xlink:title=" ">
<path fill="none" stroke="#63b8ff" d="M226.11,-131.6C242.49,-151.91 280.68,-196.66 320.75,-224.95 322.3,-226.04 323.91,-227.11 325.55,-228.15"/>
<polygon fill="#63b8ff" stroke="#63b8ff" points="323.56,-231.04 333.96,-233.03 327.07,-224.99 323.56,-231.04"/>
</a>
</g>
</g>
<!-- Node4 -->
<g id="Node000004" class="node">
<title>Node4</title>
<g id="a_Node000004"><a xlink:href="classexpress_1_1Controller.html#ad869b9f2284026613a76f1c4e4240de0" target="_top" xlink:title=" ">
<polygon fill="white" stroke="#666666" points="431.25,-215.7 323,-215.7 323,-182.2 431.25,-182.2 431.25,-215.7"/>
<text xml:space="preserve" text-anchor="start" x="331" y="-202.2" font-family="Helvetica,sans-Serif" font-size="10.00">express::Controller</text>
<text xml:space="preserve" text-anchor="middle" x="377.12" y="-189.45" font-family="Helvetica,sans-Serif" font-size="10.00">::dispatchNext</text>
</a>
</g>
</g>
<!-- Node2&#45;&gt;Node4 -->
<g id="edge3_Node000002_Node000004" class="edge">
<title>Node2&#45;&gt;Node4</title>
<g id="a_edge3_Node000002_Node000004"><a xlink:title=" ">
<path fill="none" stroke="#63b8ff" d="M238.57,-131.68C259.32,-142.32 292.12,-159 320.75,-172.95 323.43,-174.25 326.19,-175.58 328.98,-176.92"/>
<polygon fill="#63b8ff" stroke="#63b8ff" points="327.22,-179.96 337.75,-181.1 330.23,-173.64 327.22,-179.96"/>
</a>
</g>
</g>
<!-- Node6 -->
<g id="Node000006" class="node">
<title>Node6</title>
<g id="a_Node000006"><a xlink:href="classexpress_1_1Controller.html#a830cb9ca5febfce72e872e775e9677be" target="_top" xlink:title=" ">
<polygon fill="white" stroke="#666666" points="431.25,-163.7 323,-163.7 323,-130.2 431.25,-130.2 431.25,-163.7"/>
<text xml:space="preserve" text-anchor="start" x="331" y="-150.2" font-family="Helvetica,sans-Serif" font-size="10.00">express::Controller</text>
<text xml:space="preserve" text-anchor="middle" x="377.12" y="-137.45" font-family="Helvetica,sans-Serif" font-size="10.00">::getStrictRouting</text>
</a>
</g>
</g>
<!-- Node2&#45;&gt;Node6 -->
<g id="edge6_Node000002_Node000006" class="edge">
<title>Node2&#45;&gt;Node6</title>
<g id="a_edge6_Node000002_Node000006"><a xlink:title=" ">
<path fill="none" stroke="#63b8ff" d="M283.54,-131.75C292.84,-133.27 302.4,-134.84 311.68,-136.37"/>
<polygon fill="#63b8ff" stroke="#63b8ff" points="310.9,-139.78 321.33,-137.95 312.03,-132.88 310.9,-139.78"/>
</a>
</g>
</g>
<!-- Node7 -->
<g id="Node000007" class="node">
<title>Node7</title>
<g id="a_Node000007"><a xlink:href="classexpress_1_1Controller.html#aaff8f54ab62ad5ace41ab46c680c5edb" target="_top" xlink:title=" ">
<polygon fill="white" stroke="#666666" points="431.25,-111.7 323,-111.7 323,-78.2 431.25,-78.2 431.25,-111.7"/>
<text xml:space="preserve" text-anchor="start" x="331" y="-98.2" font-family="Helvetica,sans-Serif" font-size="10.00">express::Controller</text>
<text xml:space="preserve" text-anchor="middle" x="377.12" y="-85.45" font-family="Helvetica,sans-Serif" font-size="10.00">::setCurrentRoute</text>
</a>
</g>
</g>
<!-- Node2&#45;&gt;Node7 -->
<g id="edge7_Node000002_Node000007" class="edge">
<title>Node2&#45;&gt;Node7</title>
<g id="a_edge7_Node000002_Node000007"><a xlink:title=" ">
<path fill="none" stroke="#63b8ff" d="M283.54,-110.14C292.84,-108.62 302.4,-107.05 311.68,-105.52"/>
<polygon fill="#63b8ff" stroke="#63b8ff" points="312.03,-109.01 321.33,-103.94 310.9,-102.11 312.03,-109.01"/>
</a>
</g>
</g>
<!-- Node8 -->
<g id="Node000008" class="node">
<title>Node8</title>
<g id="a_Node000008"><a xlink:href="classexpress_1_1Controller.html#a7ffebbf48d02df4cbfb275c5fbb77f36" target="_top" xlink:title=" ">
<polygon fill="white" stroke="#666666" points="431.25,-59.7 323,-59.7 323,-26.2 431.25,-26.2 431.25,-59.7"/>
<text xml:space="preserve" text-anchor="start" x="331" y="-46.2" font-family="Helvetica,sans-Serif" font-size="10.00">express::Controller</text>
<text xml:space="preserve" text-anchor="middle" x="377.12" y="-33.45" font-family="Helvetica,sans-Serif" font-size="10.00">::setStrictRouting</text>
</a>
</g>
</g>
<!-- Node2&#45;&gt;Node8 -->
<g id="edge8_Node000002_Node000008" class="edge">
<title>Node2&#45;&gt;Node8</title>
<g id="a_edge8_Node000002_Node000008"><a xlink:title=" ">
<path fill="none" stroke="#63b8ff" d="M238.57,-110.21C259.32,-99.57 292.12,-82.89 320.75,-68.95 323.43,-67.64 326.19,-66.31 328.98,-64.97"/>
<polygon fill="#63b8ff" stroke="#63b8ff" points="330.23,-68.25 337.75,-60.79 327.22,-61.93 330.23,-68.25"/>
</a>
</g>
</g>
<!-- Node5 -->
<g id="Node000005" class="node">
<title>Node5</title>
<g id="a_Node000005"><a xlink:href="classexpress_1_1Route.html#a8c878f3ae8be82aa01d8a73d55759771" target="_top" xlink:title=" ">
<polygon fill="white" stroke="#666666" points="628.75,-108.32 469.5,-108.32 469.5,-87.57 628.75,-87.57 628.75,-108.32"/>
<text xml:space="preserve" text-anchor="middle" x="549.12" y="-94.82" font-family="Helvetica,sans-Serif" font-size="10.00">express::Route::dispatchNext</text>
</a>
</g>
</g>
<!-- Node4&#45;&gt;Node5 -->
<g id="edge4_Node000004_Node000005" class="edge">
<title>Node4&#45;&gt;Node5</title>
<g id="a_edge4_Node000004_Node000005"><a xlink:title=" ">
<path fill="none" stroke="#63b8ff" d="M416.61,-181.73C422.34,-178.92 428.12,-175.95 433.5,-172.95 465.88,-154.87 501.34,-130.99 524.11,-115.08"/>
<polygon fill="#63b8ff" stroke="#63b8ff" points="525.94,-118.08 532.1,-109.46 521.91,-112.35 525.94,-118.08"/>
</a>
</g>
</g>
<!-- Node5&#45;&gt;Node1 -->
<g id="edge5_Node000005_Node000001" class="edge">
<title>Node5&#45;&gt;Node1</title>
<g id="a_edge5_Node000005_Node000001"><a xlink:title=" ">
<path fill="none" stroke="#63b8ff" d="M538,-87.36C519.39,-68.79 477.63,-30.96 433.5,-16.95 329.09,16.22 200.54,-6.34 123.97,-25.96"/>
<polygon fill="#63b8ff" stroke="#63b8ff" points="123.31,-22.51 114.53,-28.44 125.09,-29.28 123.31,-22.51"/>
</a>
</g>
</g>
</g>
</svg>

<g id="navigator" transform="translate(0 0)" fill="#404254">
  <rect fill="#f2f5e9" fill-opacity="0.5" stroke="#606060" stroke-width=".5" x="0" y="0" width="60" height="60"/>
  <use id="zoomplus" xlink:href="#zoomPlus" x="17" y="9" onmousedown="handleZoom(evt,'in')"/>
  <use id="zoomminus" xlink:href="#zoomMin" x="42" y="9" onmousedown="handleZoom(evt,'out')"/>
  <use id="reset" xlink:href="#resetDef" x="30" y="36" onmousedown="handleReset()"/>
   <use id="arrowup" xlink:href="#arrowUp" x="0" y="0" onmousedown="handlePan(0,-1)"/>
  <use id="arrowright" xlink:href="#arrowRight" x="0" y="0" onmousedown="handlePan(1,0)"/>
  <use id="arrowdown" xlink:href="#arrowDown" x="0" y="0" onmousedown="handlePan(0,1)"/>
  <use id="arrowleft" xlink:href="#arrowLeft" x="0" y="0" onmousedown="handlePan(-1,0)"/>
</g>
<svg viewBox="0 0 15 15" width="100%" height="30px" preserveAspectRatio="xMaxYMin meet">
 <g id="arrow_out" transform="scale(0.3 0.3)">
  <a xlink:href="classexpress_1_1Dispatcher_a8b5e4f0eb3d02c5f8c5452980a8845c2_cgraph_org.svg" target="_base">
   <rect id="button" ry="5" rx="5" y="6" x="6" height="38" width="38"
        fill="#f2f5e9" fill-opacity="0.5" stroke="#606060" stroke-width="1.0"/>
   <path id="arrow"
     d="M 11.500037,31.436501 C 11.940474,20.09759 22.043105,11.32322 32.158766,21.979434 L 37.068811,17.246167 C 37.068811,17.246167 37.088388,32 37.088388,32 L 22.160133,31.978069 C 22.160133,31.978069 26.997745,27.140456 26.997745,27.140456 C 18.528582,18.264221 13.291696,25.230495 11.500037,31.436501 z"
     style="fill:#404040;"/>
  </a>
 </g>
</svg>

<style type='text/css'>
<![CDATA[
[data-mouse-over-selected='false'] { opacity: 0.7; }
[data-mouse-over-selected='true']  { opacity: 1.0; }
]]>
</style>
<script type="application/ecmascript"><![CDATA[
document.addEventListener('DOMContentLoaded', (event) => {
  highlightEdges();
  highlightAdjacentNodes();
});
]]></script>
</svg>
