<?xml version="1.0" encoding="UTF-8" standalone="no"?>
<!DOCTYPE svg PUBLIC "-//W3C//DTD SVG 1.1//EN"
 "http://www.w3.org/Graphics/SVG/1.1/DTD/svg11.dtd">
<!-- Generated by graphviz version 2.42.4 (0)
 -->
<!-- Title: iot::mqtt::types::BinaryData Pages: 1 -->
<svg width="220pt" height="255pt"
 viewBox="0.00 0.00 220.00 255.00" xmlns="http://www.w3.org/2000/svg" xmlns:xlink="http://www.w3.org/1999/xlink">

<svg id="main" version="1.1" xmlns="http://www.w3.org/2000/svg" xmlns:xlink="http://www.w3.org/1999/xlink" xml:space="preserve" onload="init(evt)">
<style type="text/css"><![CDATA[
.node, .edge {opacity: 0.7;}
.node.selected, .edge.selected {opacity: 1;}
.edge:hover path { stroke: red; }
.edge:hover polygon { stroke: red; fill: red; }
]]></style>
<script type="application/ecmascript" xlink:href="svg.min.js"/>
<svg id="graph" class="graph">
<g id="graph0" class="graph" transform="scale(1 1) rotate(0) translate(4 251)">
<title>iot::mqtt::types::BinaryData</title>
<!-- Node1 -->
<g id="Node000001" class="node">
<title>Node1</title>
<g id="a_Node000001"><a xlink:title=" ">
<polygon fill="#999999" stroke="transparent" points="146,-19 16,-19 16,0 146,0 146,-19"/>
<text text-anchor="start" x="20.5" y="-6.5" font-family="Helvetica,sans-Serif" font-size="10.00">iot::mqtt::types::BinaryData</text>
<polygon fill="none" stroke="#666666" points="16,0 16,-19 146,-19 146,0 16,0"/>
</a>
</g>
</g>
<!-- Node2 -->
<g id="Node000002" class="node">
<title>Node2</title>
<g id="a_Node000002"><a xlink:href="classiot_1_1mqtt_1_1types_1_1TypeBase.html" target="_top" xlink:title=" ">
<polygon fill="white" stroke="transparent" points="124,-133 0,-133 0,-103 124,-103 124,-133"/>
<text text-anchor="start" x="4" y="-121" font-family="Helvetica,sans-Serif" font-size="10.00">iot::mqtt::types::TypeBase</text>
<text text-anchor="start" x="11" y="-110" font-family="Helvetica,sans-Serif" font-size="10.00">&lt; std::vector&lt; char &gt; &gt;</text>
<polygon fill="none" stroke="#666666" points="0,-103 0,-133 124,-133 124,-103 0,-103"/>
</a>
</g>
</g>
<!-- Node2&#45;&gt;Node1 -->
<g id="edge1_Node000001_Node000002" class="edge">
<title>Node2&#45;&gt;Node1</title>
<g id="a_edge1_Node000001_Node000002"><a xlink:title=" ">
<path fill="none" stroke="#63b8ff" d="M66.33,-92.71C70.53,-69.21 76.65,-34.91 79.47,-19.08"/>
<polygon fill="none" stroke="#63b8ff" points="62.87,-92.18 64.56,-102.64 69.76,-93.41 62.87,-92.18"/>
</a>
</g>
</g>
<!-- Node3 -->
<g id="Node000003" class="node">
<title>Node3</title>
<g id="a_Node000003"><a xlink:title=" ">
<polygon fill="white" stroke="transparent" points="133,-247 41,-247 41,-228 133,-228 133,-247"/>
<text text-anchor="start" x="45" y="-234.5" font-family="Helvetica,sans-Serif" font-size="10.00">std::vector&lt; char &gt;</text>
<polygon fill="none" stroke="#666666" points="41,-228 41,-247 133,-247 133,-228 41,-228"/>
</a>
</g>
</g>
<!-- Node3&#45;&gt;Node2 -->
<g id="edge2_Node000002_Node000003" class="edge">
<title>Node3&#45;&gt;Node2</title>
<g id="a_edge2_Node000002_Node000003"><a xlink:title=" ">
<path fill="none" stroke="#63b8ff" d="M82.79,-227.85C80.47,-222.76 77.72,-216.14 76,-210 70,-188.57 66.38,-163.54 64.34,-145.16"/>
<polygon fill="none" stroke="#63b8ff" points="64.32,-145.04 59.74,-139.47 63.11,-133.1 67.7,-138.66 64.32,-145.04"/>
</a>
</g>
<text text-anchor="middle" x="92" y="-202" font-family="Helvetica,sans-Serif" font-size="10.00" fill="grey"> #value</text>
</g>
<!-- Node5 -->
<g id="Node000005" class="node">
<title>Node5</title>
<g id="a_Node000005"><a xlink:href="classiot_1_1mqtt_1_1types_1_1TypeBase.html" target="_top" xlink:title=" ">
<polygon fill="white" stroke="transparent" points="212,-181 88,-181 88,-151 212,-151 212,-181"/>
<text text-anchor="start" x="92" y="-169" font-family="Helvetica,sans-Serif" font-size="10.00">iot::mqtt::types::TypeBase</text>
<text text-anchor="start" x="123.5" y="-158" font-family="Helvetica,sans-Serif" font-size="10.00">&lt; uint16_t &gt;</text>
<polygon fill="none" stroke="#666666" points="88,-151 88,-181 212,-181 212,-151 88,-151"/>
</a>
</g>
</g>
<!-- Node3&#45;&gt;Node5 -->
<g id="edge5_Node000005_Node000003" class="edge">
<title>Node3&#45;&gt;Node5</title>
<g id="a_edge5_Node000005_Node000003"><a xlink:title=" ">
<path fill="none" stroke="#63b8ff" d="M94.73,-227.98C103.24,-218.59 117.29,-203.08 129.1,-190.06"/>
<polygon fill="none" stroke="#63b8ff" points="129.13,-190.03 130.19,-182.9 137.18,-181.14 136.12,-188.27 129.13,-190.03"/>
</a>
</g>
<text text-anchor="middle" x="136" y="-202" font-family="Helvetica,sans-Serif" font-size="10.00" fill="grey"> #value</text>
</g>
<!-- Node4 -->
<g id="Node000004" class="node">
<title>Node4</title>
<g id="a_Node000004"><a xlink:href="classiot_1_1mqtt_1_1types_1_1UInt16.html" target="_top" xlink:title=" ">
<polygon fill="white" stroke="transparent" points="203,-85 93,-85 93,-66 203,-66 203,-85"/>
<text text-anchor="start" x="97" y="-72.5" font-family="Helvetica,sans-Serif" font-size="10.00">iot::mqtt::types::UInt16</text>
<polygon fill="none" stroke="#666666" points="93,-66 93,-85 203,-85 203,-66 93,-66"/>
</a>
</g>
</g>
<!-- Node4&#45;&gt;Node1 -->
<g id="edge3_Node000001_Node000004" class="edge">
<title>Node4&#45;&gt;Node1</title>
<g id="a_edge3_Node000001_Node000004"><a xlink:title=" ">
<path fill="none" stroke="#63b8ff" d="M138.96,-65.87C128.83,-56.19 112.13,-40.24 99.25,-27.94"/>
<polygon fill="none" stroke="#63b8ff" points="99,-27.69 91.9,-26.44 90.32,-19.41 97.42,-20.66 99,-27.69"/>
</a>
</g>
<text text-anchor="middle" x="147.5" y="-40" font-family="Helvetica,sans-Serif" font-size="10.00" fill="grey"> &#45;valueLength</text>
</g>
<!-- Node5&#45;&gt;Node4 -->
<g id="edge4_Node000004_Node000005" class="edge">
<title>Node5&#45;&gt;Node4</title>
<g id="a_edge4_Node000004_Node000005"><a xlink:title=" ">
<path fill="none" stroke="#63b8ff" d="M149.45,-140.7C149.03,-122.19 148.48,-97.79 148.19,-85.06"/>
<polygon fill="none" stroke="#63b8ff" points="145.95,-140.86 149.68,-150.78 152.95,-140.7 145.95,-140.86"/>
</a>
</g>
</g>
</g>
</svg>
</svg>

<style type='text/css'>
<![CDATA[
[data-mouse-over-selected='false'] { opacity: 0.7; }
[data-mouse-over-selected='true']  { opacity: 1.0; }
]]>
</style>
<script type="application/ecmascript"><![CDATA[
document.addEventListener('DOMContentLoaded', (event) => {
  highlightEdges();
  highlightAdjacentNodes();
});
]]></script>
</svg>
