<?xml version="1.0" encoding="UTF-8" standalone="no"?>
<!DOCTYPE svg PUBLIC "-//W3C//DTD SVG 1.1//EN"
 "http://www.w3.org/Graphics/SVG/1.1/DTD/svg11.dtd">
<!-- Generated by graphviz version 14.1.1 (0)
 -->
<!-- Title: core::socket::stream::SocketContext::onReadError Pages: 1 -->
<svg width="616pt" height="100pt"
 viewBox="0.00 0.00 616.00 100.00" xmlns="http://www.w3.org/2000/svg" xmlns:xlink="http://www.w3.org/1999/xlink">
<g id="graph0" class="graph" transform="scale(1 1) rotate(0) translate(4 95.88)">
<title>core::socket::stream::SocketContext::onReadError</title>
<!-- Node1 -->
<g id="Node000001" class="node">
<title>Node1</title>
<g id="a_Node000001"><a xlink:title=" ">
<polygon fill="#999999" stroke="#666666" points="158.5,-65.88 0,-65.88 0,-32.38 158.5,-32.38 158.5,-65.88"/>
<text xml:space="preserve" text-anchor="start" x="8" y="-52.38" font-family="Helvetica,sans-Serif" font-size="10.00">core::socket::stream</text>
<text xml:space="preserve" text-anchor="middle" x="79.25" y="-39.62" font-family="Helvetica,sans-Serif" font-size="10.00">::SocketContext::onReadError</text>
</a>
</g>
</g>
<!-- Node2 -->
<g id="Node000002" class="node">
<title>Node2</title>
<g id="a_Node000002"><a xlink:href="classcore_1_1socket_1_1stream_1_1SocketConnection.html#a5e26cd617f07295e8579ddb9c41bdd2c" target="_top" xlink:title=" ">
<polygon fill="white" stroke="#666666" points="409.25,-91.88 194.5,-91.88 194.5,-58.38 409.25,-58.38 409.25,-91.88"/>
<text xml:space="preserve" text-anchor="start" x="202.5" y="-78.38" font-family="Helvetica,sans-Serif" font-size="10.00">core::socket::stream</text>
<text xml:space="preserve" text-anchor="middle" x="301.88" y="-65.62" font-family="Helvetica,sans-Serif" font-size="10.00">::SocketConnection::getConnectionName</text>
</a>
</g>
</g>
<!-- Node1&#45;&gt;Node2 -->
<g id="edge1_Node000001_Node000002" class="edge">
<title>Node1&#45;&gt;Node2</title>
<g id="a_edge1_Node000001_Node000002"><a xlink:title=" ">
<path fill="none" stroke="#63b8ff" d="M158.97,-58.4C166.7,-59.31 174.67,-60.25 182.69,-61.2"/>
<polygon fill="#63b8ff" stroke="#63b8ff" points="182.2,-64.66 192.55,-62.36 183.02,-57.71 182.2,-64.66"/>
</a>
</g>
</g>
<!-- Node3 -->
<g id="Node000003" class="node">
<title>Node3</title>
<g id="a_Node000003"><a xlink:href="classcore_1_1socket_1_1stream_1_1SocketContext.html#a853d83e3e3cd8dfcce992ab688c0f63e" target="_top" xlink:title=" ">
<polygon fill="white" stroke="#666666" points="387.88,-39.88 215.88,-39.88 215.88,-6.38 387.88,-6.38 387.88,-39.88"/>
<text xml:space="preserve" text-anchor="start" x="223.88" y="-26.38" font-family="Helvetica,sans-Serif" font-size="10.00">core::socket::stream</text>
<text xml:space="preserve" text-anchor="middle" x="301.88" y="-13.62" font-family="Helvetica,sans-Serif" font-size="10.00">::SocketContext::shutdownWrite</text>
</a>
</g>
</g>
<!-- Node1&#45;&gt;Node3 -->
<g id="edge2_Node000001_Node000003" class="edge">
<title>Node1&#45;&gt;Node3</title>
<g id="a_edge2_Node000001_Node000003"><a xlink:title=" ">
<path fill="none" stroke="#63b8ff" d="M158.97,-39.85C173.56,-38.13 188.96,-36.31 204.02,-34.54"/>
<polygon fill="#63b8ff" stroke="#63b8ff" points="204.43,-38.02 213.95,-33.37 203.61,-31.06 204.43,-38.02"/>
</a>
</g>
</g>
<!-- Node4 -->
<g id="Node000004" class="node">
<title>Node4</title>
<g id="a_Node000004"><a xlink:href="classcore_1_1socket_1_1stream_1_1SocketConnection.html#ab4496d58a35b0fa62a01f8aa78869522" target="_top" xlink:title=" ">
<polygon fill="white" stroke="#666666" points="607.5,-46.25 445.25,-46.25 445.25,0 607.5,0 607.5,-46.25"/>
<text xml:space="preserve" text-anchor="start" x="453.25" y="-32.75" font-family="Helvetica,sans-Serif" font-size="10.00">core::socket::stream</text>
<text xml:space="preserve" text-anchor="start" x="453.25" y="-20" font-family="Helvetica,sans-Serif" font-size="10.00">::SocketConnection::shutdown</text>
<text xml:space="preserve" text-anchor="middle" x="526.38" y="-7.25" font-family="Helvetica,sans-Serif" font-size="10.00">Write</text>
</a>
</g>
</g>
<!-- Node3&#45;&gt;Node4 -->
<g id="edge3_Node000003_Node000004" class="edge">
<title>Node3&#45;&gt;Node4</title>
<g id="a_edge3_Node000003_Node000004"><a xlink:title=" ">
<path fill="none" stroke="#63b8ff" d="M388.26,-23.12C403.11,-23.12 418.6,-23.12 433.61,-23.12"/>
<polygon fill="#63b8ff" stroke="#63b8ff" points="433.46,-26.63 443.46,-23.13 433.46,-19.63 433.46,-26.63"/>
</a>
</g>
</g>
</g>
</svg>
