<?xml version="1.0" encoding="UTF-8" standalone="no"?>
<!DOCTYPE svg PUBLIC "-//W3C//DTD SVG 1.1//EN"
 "http://www.w3.org/Graphics/SVG/1.1/DTD/svg11.dtd">
<!-- Generated by graphviz version 2.43.0 (0)
 -->
<!-- Title: express::Response::sendStatus Pages: 1 -->
<svg width="1396pt" height="267pt"
 viewBox="0.00 0.00 1396.00 266.50" xmlns="http://www.w3.org/2000/svg" xmlns:xlink="http://www.w3.org/1999/xlink">
<g id="graph0" class="graph" transform="scale(1 1) rotate(0) translate(4 262.5)">
<title>express::Response::sendStatus</title>
<!-- Node1 -->
<g id="Node000001" class="node">
<title>Node1</title>
<g id="a_Node000001"><a xlink:title=" ">
<polygon fill="#999999" stroke="#666666" points="1388,-111 1274,-111 1274,-81 1388,-81 1388,-111"/>
<text text-anchor="start" x="1282" y="-99" font-family="Helvetica,sans-Serif" font-size="10.00">express::Response::</text>
<text text-anchor="middle" x="1331" y="-88" font-family="Helvetica,sans-Serif" font-size="10.00">sendStatus</text>
</a>
</g>
</g>
<!-- Node2 -->
<g id="Node000002" class="node">
<title>Node2</title>
<g id="a_Node000002"><a xlink:href="classexpress_1_1middleware_1_1BasicAuthentication.html#a74011e8f313cded7f34c28250ddc878f" target="_top" xlink:title=" ">
<polygon fill="white" stroke="#666666" points="731.5,-250.5 611.5,-250.5 611.5,-209.5 731.5,-209.5 731.5,-250.5"/>
<text text-anchor="start" x="619.5" y="-238.5" font-family="Helvetica,sans-Serif" font-size="10.00">express::middleware</text>
<text text-anchor="start" x="619.5" y="-227.5" font-family="Helvetica,sans-Serif" font-size="10.00">::BasicAuthentication</text>
<text text-anchor="middle" x="671.5" y="-216.5" font-family="Helvetica,sans-Serif" font-size="10.00">::BasicAuthentication</text>
</a>
</g>
</g>
<!-- Node1&#45;&gt;Node2 -->
<g id="edge1_Node000001_Node000002" class="edge">
<title>Node1&#45;&gt;Node2</title>
<g id="a_edge1_Node000001_Node000002"><a xlink:title=" ">
<path fill="none" stroke="#63b8ff" d="M1304.69,-117.87C1286.97,-132.29 1262.23,-150.71 1238,-163 1070.05,-248.22 838.91,-243.71 731.63,-235.82"/>
<polygon fill="#63b8ff" stroke="#63b8ff" points="1307.32,-120.24 1312.78,-111.16 1302.85,-114.85 1307.32,-120.24"/>
</a>
</g>
</g>
<!-- Node7 -->
<g id="Node000007" class="node">
<title>Node7</title>
<g id="a_Node000007"><a xlink:href="classexpress_1_1RootRoute.html#a2d65050e101a52dc8c303cd787d1cb23" target="_top" xlink:title=" ">
<polygon fill="white" stroke="#666666" points="1237,-154 1125,-154 1125,-124 1237,-124 1237,-154"/>
<text text-anchor="start" x="1133" y="-142" font-family="Helvetica,sans-Serif" font-size="10.00">express::RootRoute</text>
<text text-anchor="middle" x="1181" y="-131" font-family="Helvetica,sans-Serif" font-size="10.00">::dispatch</text>
</a>
</g>
</g>
<!-- Node1&#45;&gt;Node7 -->
<g id="edge7_Node000001_Node000007" class="edge">
<title>Node1&#45;&gt;Node7</title>
<g id="a_edge7_Node000001_Node000007"><a xlink:title=" ">
<path fill="none" stroke="#63b8ff" d="M1268.62,-113.83C1257.02,-117.2 1245,-120.7 1233.73,-123.97"/>
<polygon fill="#63b8ff" stroke="#63b8ff" points="1269.61,-117.19 1278.24,-111.04 1267.66,-110.47 1269.61,-117.19"/>
</a>
</g>
</g>
<!-- Node15 -->
<g id="Node000015" class="node">
<title>Node15</title>
<g id="a_Node000015"><a xlink:href="classexpress_1_1middleware_1_1StaticMiddleware.html#af712793a6f6d600b813fc4a6d3fbe41d" target="_top" xlink:title=" ">
<polygon fill="white" stroke="#666666" points="731,-94.5 612,-94.5 612,-53.5 731,-53.5 731,-94.5"/>
<text text-anchor="start" x="620" y="-82.5" font-family="Helvetica,sans-Serif" font-size="10.00">express::middleware</text>
<text text-anchor="start" x="620" y="-71.5" font-family="Helvetica,sans-Serif" font-size="10.00">::StaticMiddleware::</text>
<text text-anchor="middle" x="671.5" y="-60.5" font-family="Helvetica,sans-Serif" font-size="10.00">StaticMiddleware</text>
</a>
</g>
</g>
<!-- Node1&#45;&gt;Node15 -->
<g id="edge24_Node000001_Node000015" class="edge">
<title>Node1&#45;&gt;Node15</title>
<g id="a_edge24_Node000001_Node000015"><a xlink:title=" ">
<path fill="none" stroke="#63b8ff" d="M1263.84,-93.79C1135.28,-89.48 853.64,-80.06 731.24,-75.97"/>
<polygon fill="#63b8ff" stroke="#63b8ff" points="1263.83,-97.29 1273.94,-94.12 1264.06,-90.29 1263.83,-97.29"/>
</a>
</g>
</g>
<!-- Node19 -->
<g id="Node000019" class="node">
<title>Node19</title>
<g id="a_Node000019"><a xlink:href="AuthorizationServer_8cpp.html#a0ddf1224851353fc92bfbff6f499fa97" target="_top" xlink:title=" ">
<polygon fill="white" stroke="#666666" points="1201.5,-67.5 1160.5,-67.5 1160.5,-48.5 1201.5,-48.5 1201.5,-67.5"/>
<text text-anchor="middle" x="1181" y="-55.5" font-family="Helvetica,sans-Serif" font-size="10.00">main</text>
</a>
</g>
</g>
<!-- Node1&#45;&gt;Node19 -->
<g id="edge20_Node000001_Node000019" class="edge">
<title>Node1&#45;&gt;Node19</title>
<g id="a_edge20_Node000001_Node000019"><a xlink:title=" ">
<path fill="none" stroke="#63b8ff" d="M1263.71,-78.98C1241.18,-73.2 1217.69,-67.16 1201.71,-63.06"/>
<polygon fill="#63b8ff" stroke="#63b8ff" points="1263.07,-82.43 1273.63,-81.53 1264.81,-75.65 1263.07,-82.43"/>
</a>
</g>
</g>
<!-- Node20 -->
<g id="Node000020" class="node">
<title>Node20</title>
<g id="a_Node000020"><a xlink:href="classexpress_1_1Response.html#a6da531370bf0e26c31d44e9831a896d2" target="_top" xlink:title=" ">
<polygon fill="white" stroke="#666666" points="1238,-30 1124,-30 1124,0 1238,0 1238,-30"/>
<text text-anchor="start" x="1132" y="-18" font-family="Helvetica,sans-Serif" font-size="10.00">express::Response::</text>
<text text-anchor="middle" x="1181" y="-7" font-family="Helvetica,sans-Serif" font-size="10.00">redirect</text>
</a>
</g>
</g>
<!-- Node1&#45;&gt;Node20 -->
<g id="edge21_Node000001_Node000020" class="edge">
<title>Node1&#45;&gt;Node20</title>
<g id="a_edge21_Node000001_Node000020"><a xlink:title=" ">
<path fill="none" stroke="#63b8ff" d="M1299.18,-75.29C1281.63,-63.91 1259.01,-49.93 1238,-39 1232.09,-35.92 1225.7,-32.91 1219.42,-30.11"/>
<polygon fill="#63b8ff" stroke="#63b8ff" points="1297.58,-78.43 1307.86,-80.98 1301.42,-72.57 1297.58,-78.43"/>
</a>
</g>
</g>
<!-- Node3 -->
<g id="Node000003" class="node">
<title>Node3</title>
<g id="a_Node000003"><a xlink:href="classexpress_1_1middleware_1_1BasicAuthentication.html#a8cd93f5ab0744e5deae89aac3709ee42" target="_top" xlink:title=" ">
<polygon fill="white" stroke="#666666" points="530.5,-250.5 410.5,-250.5 410.5,-209.5 530.5,-209.5 530.5,-250.5"/>
<text text-anchor="start" x="418.5" y="-238.5" font-family="Helvetica,sans-Serif" font-size="10.00">express::middleware</text>
<text text-anchor="start" x="418.5" y="-227.5" font-family="Helvetica,sans-Serif" font-size="10.00">::BasicAuthentication</text>
<text text-anchor="middle" x="470.5" y="-216.5" font-family="Helvetica,sans-Serif" font-size="10.00">::instance</text>
</a>
</g>
</g>
<!-- Node2&#45;&gt;Node3 -->
<g id="edge2_Node000002_Node000003" class="edge">
<title>Node2&#45;&gt;Node3</title>
<g id="a_edge2_Node000002_Node000003"><a xlink:title=" ">
<path fill="none" stroke="#63b8ff" d="M601.3,-230C578.32,-230 552.95,-230 530.78,-230"/>
<polygon fill="#63b8ff" stroke="#63b8ff" points="601.33,-233.5 611.33,-230 601.33,-226.5 601.33,-233.5"/>
</a>
</g>
</g>
<!-- Node4 -->
<g id="Node000004" class="node">
<title>Node4</title>
<g id="a_Node000004"><a xlink:href="classexpress_1_1middleware_1_1BasicAuthentication.html#a461f08f2de85ee8ddb1afb72db149028" target="_top" xlink:title=" ">
<polygon fill="white" stroke="#666666" points="329.5,-250.5 209.5,-250.5 209.5,-209.5 329.5,-209.5 329.5,-250.5"/>
<text text-anchor="start" x="217.5" y="-238.5" font-family="Helvetica,sans-Serif" font-size="10.00">express::middleware</text>
<text text-anchor="start" x="217.5" y="-227.5" font-family="Helvetica,sans-Serif" font-size="10.00">::BasicAuthentication</text>
<text text-anchor="middle" x="269.5" y="-216.5" font-family="Helvetica,sans-Serif" font-size="10.00">::BasicAuthentication</text>
</a>
</g>
</g>
<!-- Node3&#45;&gt;Node4 -->
<g id="edge3_Node000003_Node000004" class="edge">
<title>Node3&#45;&gt;Node4</title>
<g id="a_edge3_Node000003_Node000004"><a xlink:title=" ">
<path fill="none" stroke="#63b8ff" d="M400.3,-230C377.32,-230 351.95,-230 329.78,-230"/>
<polygon fill="#63b8ff" stroke="#63b8ff" points="400.33,-233.5 410.33,-230 400.33,-226.5 400.33,-233.5"/>
</a>
</g>
</g>
<!-- Node5 -->
<g id="Node000005" class="node">
<title>Node5</title>
<g id="a_Node000005"><a xlink:href="testbasicauthentication_8cpp.html#aeb6ff6ca94f495351c99f0a372eadd33" target="_top" xlink:title=" ">
<polygon fill="white" stroke="#666666" points="142,-258.5 77,-258.5 77,-239.5 142,-239.5 142,-258.5"/>
<text text-anchor="middle" x="109.5" y="-246.5" font-family="Helvetica,sans-Serif" font-size="10.00">getRouter</text>
</a>
</g>
</g>
<!-- Node4&#45;&gt;Node5 -->
<g id="edge4_Node000004_Node000005" class="edge">
<title>Node4&#45;&gt;Node5</title>
<g id="a_edge4_Node000004_Node000005"><a xlink:title=" ">
<path fill="none" stroke="#63b8ff" d="M199.22,-238.33C179.32,-240.72 158.58,-243.22 142.16,-245.19"/>
<polygon fill="#63b8ff" stroke="#63b8ff" points="199.71,-241.8 209.22,-237.13 198.87,-234.85 199.71,-241.8"/>
</a>
</g>
</g>
<!-- Node6 -->
<g id="Node000006" class="node">
<title>Node6</title>
<g id="a_Node000006"><a xlink:href="testbasicauthentication_8cpp.html#a0ddf1224851353fc92bfbff6f499fa97" target="_top" xlink:title=" ">
<polygon fill="white" stroke="#666666" points="41,-239.5 0,-239.5 0,-220.5 41,-220.5 41,-239.5"/>
<text text-anchor="middle" x="20.5" y="-227.5" font-family="Helvetica,sans-Serif" font-size="10.00">main</text>
</a>
</g>
</g>
<!-- Node4&#45;&gt;Node6 -->
<g id="edge6_Node000004_Node000006" class="edge">
<title>Node4&#45;&gt;Node6</title>
<g id="a_edge6_Node000004_Node000006"><a xlink:title=" ">
<path fill="none" stroke="#63b8ff" d="M199.19,-230C145.56,-230 74.91,-230 41.14,-230"/>
<polygon fill="#63b8ff" stroke="#63b8ff" points="199.34,-233.5 209.34,-230 199.34,-226.5 199.34,-233.5"/>
</a>
</g>
</g>
<!-- Node5&#45;&gt;Node6 -->
<g id="edge5_Node000005_Node000006" class="edge">
<title>Node5&#45;&gt;Node6</title>
<g id="a_edge5_Node000005_Node000006"><a xlink:title=" ">
<path fill="none" stroke="#63b8ff" d="M66.61,-239.85C57.66,-237.9 48.62,-235.92 41,-234.26"/>
<polygon fill="#63b8ff" stroke="#63b8ff" points="66.08,-243.32 76.6,-242.03 67.58,-236.48 66.08,-243.32"/>
</a>
</g>
</g>
<!-- Node8 -->
<g id="Node000008" class="node">
<title>Node8</title>
<g id="a_Node000008"><a xlink:href="classexpress_1_1RootRoute.html#a1c2da19981989c227a16b6054be19262" target="_top" xlink:title=" ">
<polygon fill="white" stroke="#666666" points="1087,-202 975,-202 975,-172 1087,-172 1087,-202"/>
<text text-anchor="start" x="983" y="-190" font-family="Helvetica,sans-Serif" font-size="10.00">express::RootRoute</text>
<text text-anchor="middle" x="1031" y="-179" font-family="Helvetica,sans-Serif" font-size="10.00">::dispatch</text>
</a>
</g>
</g>
<!-- Node7&#45;&gt;Node8 -->
<g id="edge8_Node000007_Node000008" class="edge">
<title>Node7&#45;&gt;Node8</title>
<g id="a_edge8_Node000007_Node000008"><a xlink:title=" ">
<path fill="none" stroke="#63b8ff" d="M1123.87,-157.21C1108.81,-162.09 1092.71,-167.31 1078.26,-172"/>
<polygon fill="#63b8ff" stroke="#63b8ff" points="1125.15,-160.47 1133.58,-154.06 1122.99,-153.81 1125.15,-160.47"/>
</a>
</g>
</g>
<!-- Node10 -->
<g id="Node000010" class="node">
<title>Node10</title>
<g id="a_Node000010"><a xlink:href="classexpress_1_1Controller.html#a37349835c6e195cd3b2f264cfcf97fae" target="_top" xlink:title=" ">
<polygon fill="white" stroke="#666666" points="1085.5,-154 976.5,-154 976.5,-124 1085.5,-124 1085.5,-154"/>
<text text-anchor="start" x="984.5" y="-142" font-family="Helvetica,sans-Serif" font-size="10.00">express::Controller</text>
<text text-anchor="middle" x="1031" y="-131" font-family="Helvetica,sans-Serif" font-size="10.00">::next</text>
</a>
</g>
</g>
<!-- Node7&#45;&gt;Node10 -->
<g id="edge10_Node000007_Node000010" class="edge">
<title>Node7&#45;&gt;Node10</title>
<g id="a_edge10_Node000007_Node000010"><a xlink:title=" ">
<path fill="none" stroke="#63b8ff" d="M1114.84,-139C1105.1,-139 1095.15,-139 1085.68,-139"/>
<polygon fill="#63b8ff" stroke="#63b8ff" points="1114.89,-142.5 1124.89,-139 1114.89,-135.5 1114.89,-142.5"/>
</a>
</g>
</g>
<!-- Node9 -->
<g id="Node000009" class="node">
<title>Node9</title>
<g id="a_Node000009"><a xlink:href="classexpress_1_1RootRoute.html#af16bc704beb82bcaaa1fbf9a56a7bbaa" target="_top" xlink:title=" ">
<polygon fill="white" stroke="#666666" points="924.5,-202 812.5,-202 812.5,-172 924.5,-172 924.5,-202"/>
<text text-anchor="start" x="820.5" y="-190" font-family="Helvetica,sans-Serif" font-size="10.00">express::RootRoute</text>
<text text-anchor="middle" x="868.5" y="-179" font-family="Helvetica,sans-Serif" font-size="10.00">::dispatch</text>
</a>
</g>
</g>
<!-- Node8&#45;&gt;Node9 -->
<g id="edge9_Node000008_Node000009" class="edge">
<title>Node8&#45;&gt;Node9</title>
<g id="a_edge9_Node000008_Node000009"><a xlink:title=" ">
<path fill="none" stroke="#63b8ff" d="M964.71,-187C951.39,-187 937.49,-187 924.56,-187"/>
<polygon fill="#63b8ff" stroke="#63b8ff" points="964.77,-190.5 974.77,-187 964.76,-183.5 964.77,-190.5"/>
</a>
</g>
</g>
<!-- Node11 -->
<g id="Node000011" class="node">
<title>Node11</title>
<g id="a_Node000011"><a xlink:href="classexpress_1_1Next.html#a3e14e0e46359f80dac195ec6e57eaf5d" target="_top" xlink:title=" ">
<polygon fill="white" stroke="#666666" points="938,-148.5 799,-148.5 799,-129.5 938,-129.5 938,-148.5"/>
<text text-anchor="middle" x="868.5" y="-136.5" font-family="Helvetica,sans-Serif" font-size="10.00">express::Next::operator()</text>
</a>
</g>
</g>
<!-- Node10&#45;&gt;Node11 -->
<g id="edge11_Node000010_Node000011" class="edge">
<title>Node10&#45;&gt;Node11</title>
<g id="a_edge11_Node000010_Node000011"><a xlink:title=" ">
<path fill="none" stroke="#63b8ff" d="M965.92,-139C956.76,-139 947.31,-139 938.07,-139"/>
<polygon fill="#63b8ff" stroke="#63b8ff" points="966.11,-142.5 976.11,-139 966.11,-135.5 966.11,-142.5"/>
</a>
</g>
</g>
<!-- Node11&#45;&gt;Node2 -->
<g id="edge12_Node000011_Node000002" class="edge">
<title>Node11&#45;&gt;Node2</title>
<g id="a_edge12_Node000011_Node000002"><a xlink:title=" ">
<path fill="none" stroke="#63b8ff" d="M820.66,-152.13C813.14,-155.16 805.65,-158.76 799,-163 779.66,-175.34 782.44,-187.82 763,-200 753.46,-205.98 742.6,-210.89 731.8,-214.89"/>
<polygon fill="#63b8ff" stroke="#63b8ff" points="821.99,-155.37 830.15,-148.61 819.56,-148.81 821.99,-155.37"/>
</a>
</g>
</g>
<!-- Node12 -->
<g id="Node000012" class="node">
<title>Node12</title>
<g id="a_Node000012"><a xlink:href="classexpress_1_1middleware_1_1JsonMiddleware.html#a0f90276c1100e22d2114306b23b95991" target="_top" xlink:title=" ">
<polygon fill="white" stroke="#666666" points="763,-191 580,-191 580,-161 763,-161 763,-191"/>
<text text-anchor="start" x="588" y="-179" font-family="Helvetica,sans-Serif" font-size="10.00">express::middleware</text>
<text text-anchor="middle" x="671.5" y="-168" font-family="Helvetica,sans-Serif" font-size="10.00">::JsonMiddleware::JsonMiddleware</text>
</a>
</g>
</g>
<!-- Node11&#45;&gt;Node12 -->
<g id="edge13_Node000011_Node000012" class="edge">
<title>Node11&#45;&gt;Node12</title>
<g id="a_edge13_Node000011_Node000012"><a xlink:title=" ">
<path fill="none" stroke="#63b8ff" d="M807.19,-150.44C789.64,-153.77 770.21,-157.46 751.68,-160.98"/>
<polygon fill="#63b8ff" stroke="#63b8ff" points="808.11,-153.83 817.28,-148.53 806.81,-146.95 808.11,-153.83"/>
</a>
</g>
</g>
<!-- Node11&#45;&gt;Node15 -->
<g id="edge16_Node000011_Node000015" class="edge">
<title>Node11&#45;&gt;Node15</title>
<g id="a_edge16_Node000011_Node000015"><a xlink:title=" ">
<path fill="none" stroke="#63b8ff" d="M829.53,-126.25C809.7,-119.6 785.05,-111.35 763,-104 752.79,-100.6 741.93,-96.99 731.41,-93.5"/>
<polygon fill="#63b8ff" stroke="#63b8ff" points="828.53,-129.61 839.12,-129.47 830.75,-122.97 828.53,-129.61"/>
</a>
</g>
</g>
<!-- Node16 -->
<g id="Node000016" class="node">
<title>Node16</title>
<g id="a_Node000016"><a xlink:href="classexpress_1_1middleware_1_1VHost.html#ab60d9df1ad85a8ee414c111135e250b1" target="_top" xlink:title=" ">
<polygon fill="white" stroke="#666666" points="731,-143 612,-143 612,-113 731,-113 731,-143"/>
<text text-anchor="start" x="620" y="-131" font-family="Helvetica,sans-Serif" font-size="10.00">express::middleware</text>
<text text-anchor="middle" x="671.5" y="-120" font-family="Helvetica,sans-Serif" font-size="10.00">::VHost::VHost</text>
</a>
</g>
</g>
<!-- Node11&#45;&gt;Node16 -->
<g id="edge17_Node000011_Node000016" class="edge">
<title>Node11&#45;&gt;Node16</title>
<g id="a_edge17_Node000011_Node000016"><a xlink:title=" ">
<path fill="none" stroke="#63b8ff" d="M788.55,-134.55C769.41,-133.47 749.28,-132.33 731.26,-131.31"/>
<polygon fill="#63b8ff" stroke="#63b8ff" points="788.57,-138.05 798.75,-135.12 788.96,-131.06 788.57,-138.05"/>
</a>
</g>
</g>
<!-- Node13 -->
<g id="Node000013" class="node">
<title>Node13</title>
<g id="a_Node000013"><a xlink:href="classexpress_1_1middleware_1_1JsonMiddleware.html#ae20c47bf2107ee7b8a8190d3a3439b1a" target="_top" xlink:title=" ">
<polygon fill="white" stroke="#666666" points="544,-191 397,-191 397,-161 544,-161 544,-191"/>
<text text-anchor="start" x="405" y="-179" font-family="Helvetica,sans-Serif" font-size="10.00">express::middleware</text>
<text text-anchor="middle" x="470.5" y="-168" font-family="Helvetica,sans-Serif" font-size="10.00">::JsonMiddleware::instance</text>
</a>
</g>
</g>
<!-- Node12&#45;&gt;Node13 -->
<g id="edge14_Node000012_Node000013" class="edge">
<title>Node12&#45;&gt;Node13</title>
<g id="a_edge14_Node000012_Node000013"><a xlink:title=" ">
<path fill="none" stroke="#63b8ff" d="M569.68,-176C561.1,-176 552.54,-176 544.25,-176"/>
<polygon fill="#63b8ff" stroke="#63b8ff" points="569.74,-179.5 579.74,-176 569.74,-172.5 569.74,-179.5"/>
</a>
</g>
</g>
<!-- Node14 -->
<g id="Node000014" class="node">
<title>Node14</title>
<g id="a_Node000014"><a xlink:href="classexpress_1_1middleware_1_1JsonMiddleware.html#a50b23edc44a7ae19b857efe7fbb3495f" target="_top" xlink:title=" ">
<polygon fill="white" stroke="#666666" points="361,-191 178,-191 178,-161 361,-161 361,-191"/>
<text text-anchor="start" x="186" y="-179" font-family="Helvetica,sans-Serif" font-size="10.00">express::middleware</text>
<text text-anchor="middle" x="269.5" y="-168" font-family="Helvetica,sans-Serif" font-size="10.00">::JsonMiddleware::JsonMiddleware</text>
</a>
</g>
</g>
<!-- Node13&#45;&gt;Node14 -->
<g id="edge15_Node000013_Node000014" class="edge">
<title>Node13&#45;&gt;Node14</title>
<g id="a_edge15_Node000013_Node000014"><a xlink:title=" ">
<path fill="none" stroke="#63b8ff" d="M386.68,-176C378.3,-176 369.76,-176 361.3,-176"/>
<polygon fill="#63b8ff" stroke="#63b8ff" points="386.81,-179.5 396.81,-176 386.81,-172.5 386.81,-179.5"/>
</a>
</g>
</g>
<!-- Node17 -->
<g id="Node000017" class="node">
<title>Node17</title>
<g id="a_Node000017"><a xlink:href="classexpress_1_1middleware_1_1VHost.html#aedfd77e91aabab72a4b6bf19c9047876" target="_top" xlink:title=" ">
<polygon fill="white" stroke="#666666" points="530,-143 411,-143 411,-113 530,-113 530,-143"/>
<text text-anchor="start" x="419" y="-131" font-family="Helvetica,sans-Serif" font-size="10.00">express::middleware</text>
<text text-anchor="middle" x="470.5" y="-120" font-family="Helvetica,sans-Serif" font-size="10.00">::VHost::instance</text>
</a>
</g>
</g>
<!-- Node16&#45;&gt;Node17 -->
<g id="edge18_Node000016_Node000017" class="edge">
<title>Node16&#45;&gt;Node17</title>
<g id="a_edge18_Node000016_Node000017"><a xlink:title=" ">
<path fill="none" stroke="#63b8ff" d="M601.69,-128C578.35,-128 552.52,-128 530.05,-128"/>
<polygon fill="#63b8ff" stroke="#63b8ff" points="601.87,-131.5 611.87,-128 601.87,-124.5 601.87,-131.5"/>
</a>
</g>
</g>
<!-- Node18 -->
<g id="Node000018" class="node">
<title>Node18</title>
<g id="a_Node000018"><a xlink:href="classexpress_1_1middleware_1_1VHost.html#a0c0c8ae51cc23dc35d0444d98dfd41a8" target="_top" xlink:title=" ">
<polygon fill="white" stroke="#666666" points="329,-143 210,-143 210,-113 329,-113 329,-143"/>
<text text-anchor="start" x="218" y="-131" font-family="Helvetica,sans-Serif" font-size="10.00">express::middleware</text>
<text text-anchor="middle" x="269.5" y="-120" font-family="Helvetica,sans-Serif" font-size="10.00">::VHost::VHost</text>
</a>
</g>
</g>
<!-- Node17&#45;&gt;Node18 -->
<g id="edge19_Node000017_Node000018" class="edge">
<title>Node17&#45;&gt;Node18</title>
<g id="a_edge19_Node000017_Node000018"><a xlink:title=" ">
<path fill="none" stroke="#63b8ff" d="M400.69,-128C377.35,-128 351.52,-128 329.05,-128"/>
<polygon fill="#63b8ff" stroke="#63b8ff" points="400.87,-131.5 410.87,-128 400.87,-124.5 400.87,-131.5"/>
</a>
</g>
</g>
<!-- Node20&#45;&gt;Node15 -->
<g id="edge23_Node000020_Node000015" class="edge">
<title>Node20&#45;&gt;Node15</title>
<g id="a_edge23_Node000020_Node000015"><a xlink:title=" ">
<path fill="none" stroke="#63b8ff" d="M1119.02,-32.47C1108.73,-34.96 1098.11,-37.27 1088,-39 961.89,-60.6 811.85,-69.06 731.05,-72.22"/>
<polygon fill="#63b8ff" stroke="#63b8ff" points="1119.91,-35.85 1128.76,-30.02 1118.21,-29.06 1119.91,-35.85"/>
</a>
</g>
</g>
<!-- Node21 -->
<g id="Node000021" class="node">
<title>Node21</title>
<g id="a_Node000021"><a xlink:href="classexpress_1_1Response.html#a342af4dc0b35ca124c9980be2cdc2b11" target="_top" xlink:title=" ">
<polygon fill="white" stroke="#666666" points="1088,-30 974,-30 974,0 1088,0 1088,-30"/>
<text text-anchor="start" x="982" y="-18" font-family="Helvetica,sans-Serif" font-size="10.00">express::Response::</text>
<text text-anchor="middle" x="1031" y="-7" font-family="Helvetica,sans-Serif" font-size="10.00">redirect</text>
</a>
</g>
</g>
<!-- Node20&#45;&gt;Node21 -->
<g id="edge22_Node000020_Node000021" class="edge">
<title>Node20&#45;&gt;Node21</title>
<g id="a_edge22_Node000020_Node000021"><a xlink:title=" ">
<path fill="none" stroke="#63b8ff" d="M1113.44,-15C1105.02,-15 1096.46,-15 1088.22,-15"/>
<polygon fill="#63b8ff" stroke="#63b8ff" points="1113.63,-18.5 1123.63,-15 1113.63,-11.5 1113.63,-18.5"/>
</a>
</g>
</g>
</g>
</svg>
