<?xml version="1.0" encoding="UTF-8" standalone="no"?>
<!DOCTYPE svg PUBLIC "-//W3C//DTD SVG 1.1//EN"
 "http://www.w3.org/Graphics/SVG/1.1/DTD/svg11.dtd">
<!-- Generated by graphviz version 2.43.0 (0)
 -->
<!-- Title: core::socket::stream::SocketContextFactory::create Pages: 1 -->
<svg width="812pt" height="130pt"
 viewBox="0.00 0.00 812.00 129.50" xmlns="http://www.w3.org/2000/svg" xmlns:xlink="http://www.w3.org/1999/xlink">
<g id="graph0" class="graph" transform="scale(1 1) rotate(0) translate(4 125.5)">
<title>core::socket::stream::SocketContextFactory::create</title>
<!-- Node1 -->
<g id="Node000001" class="node">
<title>Node1</title>
<g id="a_Node000001"><a xlink:title=" ">
<polygon fill="#999999" stroke="#666666" points="804,-91.5 683,-91.5 683,-50.5 804,-50.5 804,-91.5"/>
<text text-anchor="start" x="691" y="-79.5" font-family="Helvetica,sans-Serif" font-size="10.00">core::socket::stream</text>
<text text-anchor="start" x="691" y="-68.5" font-family="Helvetica,sans-Serif" font-size="10.00">::SocketContextFactory</text>
<text text-anchor="middle" x="743.5" y="-57.5" font-family="Helvetica,sans-Serif" font-size="10.00">::create</text>
</a>
</g>
</g>
<!-- Node2 -->
<g id="Node000002" class="node">
<title>Node2</title>
<g id="a_Node000002"><a xlink:href="classcore_1_1socket_1_1stream_1_1SocketConnection.html#a38acc88c009079cab45f97254b60bfd6" target="_top" xlink:title=" ">
<polygon fill="white" stroke="#666666" points="639.5,-121.5 486.5,-121.5 486.5,-80.5 639.5,-80.5 639.5,-121.5"/>
<text text-anchor="start" x="494.5" y="-109.5" font-family="Helvetica,sans-Serif" font-size="10.00">core::socket::stream</text>
<text text-anchor="start" x="494.5" y="-98.5" font-family="Helvetica,sans-Serif" font-size="10.00">::SocketConnection::setSocket</text>
<text text-anchor="middle" x="563" y="-87.5" font-family="Helvetica,sans-Serif" font-size="10.00">Context</text>
</a>
</g>
</g>
<!-- Node1&#45;&gt;Node2 -->
<g id="edge1_Node000001_Node000002" class="edge">
<title>Node1&#45;&gt;Node2</title>
<g id="a_edge1_Node000001_Node000002"><a xlink:title=" ">
<path fill="none" stroke="#63b8ff" d="M672.39,-82.78C661.64,-84.59 650.5,-86.46 639.63,-88.29"/>
<polygon fill="#63b8ff" stroke="#63b8ff" points="673.28,-86.18 682.57,-81.07 672.12,-79.28 673.28,-86.18"/>
</a>
</g>
</g>
<!-- Node4 -->
<g id="Node000004" class="node">
<title>Node4</title>
<g id="a_Node000004"><a xlink:href="classcore_1_1socket_1_1stream_1_1SocketConnection.html#a86e27d6d428cbac1d913d15dd8bab73e" target="_top" xlink:title=" ">
<polygon fill="white" stroke="#666666" points="647,-62.5 479,-62.5 479,-21.5 647,-21.5 647,-62.5"/>
<text text-anchor="start" x="487" y="-50.5" font-family="Helvetica,sans-Serif" font-size="10.00">core::socket::stream</text>
<text text-anchor="start" x="487" y="-39.5" font-family="Helvetica,sans-Serif" font-size="10.00">::SocketConnection::switchSocket</text>
<text text-anchor="middle" x="563" y="-28.5" font-family="Helvetica,sans-Serif" font-size="10.00">Context</text>
</a>
</g>
</g>
<!-- Node1&#45;&gt;Node4 -->
<g id="edge3_Node000001_Node000004" class="edge">
<title>Node1&#45;&gt;Node4</title>
<g id="a_edge3_Node000001_Node000004"><a xlink:title=" ">
<path fill="none" stroke="#63b8ff" d="M672.57,-59.64C664.27,-58.29 655.72,-56.9 647.26,-55.53"/>
<polygon fill="#63b8ff" stroke="#63b8ff" points="672.13,-63.11 682.57,-61.26 673.26,-56.2 672.13,-63.11"/>
</a>
</g>
</g>
<!-- Node3 -->
<g id="Node000003" class="node">
<title>Node3</title>
<g id="a_Node000003"><a xlink:href="classcore_1_1socket_1_1stream_1_1SocketConnection.html#ac3b70d0b318246b96a5a03ca24dd5517" target="_top" xlink:title=" ">
<polygon fill="white" stroke="#666666" points="443,-116 289,-116 289,-86 443,-86 443,-116"/>
<text text-anchor="start" x="297" y="-104" font-family="Helvetica,sans-Serif" font-size="10.00">core::socket::stream</text>
<text text-anchor="middle" x="366" y="-93" font-family="Helvetica,sans-Serif" font-size="10.00">::SocketConnection::connected</text>
</a>
</g>
</g>
<!-- Node2&#45;&gt;Node3 -->
<g id="edge2_Node000002_Node000003" class="edge">
<title>Node2&#45;&gt;Node3</title>
<g id="a_edge2_Node000002_Node000003"><a xlink:title=" ">
<path fill="none" stroke="#63b8ff" d="M476.3,-101C465.31,-101 454.1,-101 443.27,-101"/>
<polygon fill="#63b8ff" stroke="#63b8ff" points="476.33,-104.5 486.33,-101 476.33,-97.5 476.33,-104.5"/>
</a>
</g>
</g>
<!-- Node5 -->
<g id="Node000005" class="node">
<title>Node5</title>
<g id="a_Node000005"><a xlink:href="classcore_1_1socket_1_1stream_1_1SocketContext.html#ae8c575304d718a2b3c6b7eec638d2e06" target="_top" xlink:title=" ">
<polygon fill="white" stroke="#666666" points="442.5,-62.5 289.5,-62.5 289.5,-21.5 442.5,-21.5 442.5,-62.5"/>
<text text-anchor="start" x="297.5" y="-50.5" font-family="Helvetica,sans-Serif" font-size="10.00">core::socket::stream</text>
<text text-anchor="start" x="297.5" y="-39.5" font-family="Helvetica,sans-Serif" font-size="10.00">::SocketContext::switchSocket</text>
<text text-anchor="middle" x="366" y="-28.5" font-family="Helvetica,sans-Serif" font-size="10.00">Context</text>
</a>
</g>
</g>
<!-- Node4&#45;&gt;Node5 -->
<g id="edge4_Node000004_Node000005" class="edge">
<title>Node4&#45;&gt;Node5</title>
<g id="a_edge4_Node000004_Node000005"><a xlink:title=" ">
<path fill="none" stroke="#63b8ff" d="M468.55,-42C459.84,-42 451.09,-42 442.58,-42"/>
<polygon fill="#63b8ff" stroke="#63b8ff" points="468.74,-45.5 478.74,-42 468.74,-38.5 468.74,-45.5"/>
</a>
</g>
</g>
<!-- Node6 -->
<g id="Node000006" class="node">
<title>Node6</title>
<g id="a_Node000006"><a xlink:href="classweb_1_1http_1_1server_1_1RequestContextBase.html#a4189e811d3a9c8e33bd3ffb7163f91b3" target="_top" xlink:title=" ">
<polygon fill="white" stroke="#666666" points="253,-89.5 137,-89.5 137,-48.5 253,-48.5 253,-89.5"/>
<text text-anchor="start" x="145" y="-77.5" font-family="Helvetica,sans-Serif" font-size="10.00">web::http::server::</text>
<text text-anchor="start" x="145" y="-66.5" font-family="Helvetica,sans-Serif" font-size="10.00">RequestContextBase::</text>
<text text-anchor="middle" x="195" y="-55.5" font-family="Helvetica,sans-Serif" font-size="10.00">switchSocketContext</text>
</a>
</g>
</g>
<!-- Node5&#45;&gt;Node6 -->
<g id="edge5_Node000005_Node000006" class="edge">
<title>Node5&#45;&gt;Node6</title>
<g id="a_edge5_Node000005_Node000006"><a xlink:title=" ">
<path fill="none" stroke="#63b8ff" d="M279.34,-55.69C270.42,-57.11 261.52,-58.53 253.03,-59.89"/>
<polygon fill="#63b8ff" stroke="#63b8ff" points="280.07,-59.11 289.4,-54.08 278.97,-52.2 280.07,-59.11"/>
</a>
</g>
</g>
<!-- Node8 -->
<g id="Node000008" class="node">
<title>Node8</title>
<g id="a_Node000008"><a xlink:href="classweb_1_1http_1_1client_1_1Response.html#a9e325e31cf23d211476c9dd9f0636ac0" target="_top" xlink:title=" ">
<polygon fill="white" stroke="#666666" points="245.5,-30 144.5,-30 144.5,0 245.5,0 245.5,-30"/>
<text text-anchor="start" x="152.5" y="-18" font-family="Helvetica,sans-Serif" font-size="10.00">web::http::client::</text>
<text text-anchor="middle" x="195" y="-7" font-family="Helvetica,sans-Serif" font-size="10.00">Response::upgrade</text>
</a>
</g>
</g>
<!-- Node5&#45;&gt;Node8 -->
<g id="edge7_Node000005_Node000008" class="edge">
<title>Node5&#45;&gt;Node8</title>
<g id="a_edge7_Node000005_Node000008"><a xlink:title=" ">
<path fill="none" stroke="#63b8ff" d="M279.33,-28.31C267.85,-26.48 256.41,-24.65 245.83,-22.96"/>
<polygon fill="#63b8ff" stroke="#63b8ff" points="278.97,-31.8 289.4,-29.92 280.07,-24.89 278.97,-31.8"/>
</a>
</g>
</g>
<!-- Node7 -->
<g id="Node000007" class="node">
<title>Node7</title>
<g id="a_Node000007"><a xlink:href="classweb_1_1http_1_1server_1_1Response.html#a4f15e72be3836e83cc239487c4333a7f" target="_top" xlink:title=" ">
<polygon fill="white" stroke="#666666" points="101,-84 0,-84 0,-54 101,-54 101,-84"/>
<text text-anchor="start" x="8" y="-72" font-family="Helvetica,sans-Serif" font-size="10.00">web::http::server::</text>
<text text-anchor="middle" x="50.5" y="-61" font-family="Helvetica,sans-Serif" font-size="10.00">Response::upgrade</text>
</a>
</g>
</g>
<!-- Node6&#45;&gt;Node7 -->
<g id="edge6_Node000006_Node000007" class="edge">
<title>Node6&#45;&gt;Node7</title>
<g id="a_edge6_Node000006_Node000007"><a xlink:title=" ">
<path fill="none" stroke="#63b8ff" d="M126.83,-69C118.23,-69 109.56,-69 101.3,-69"/>
<polygon fill="#63b8ff" stroke="#63b8ff" points="126.86,-72.5 136.86,-69 126.86,-65.5 126.86,-72.5"/>
</a>
</g>
</g>
</g>
</svg>
