<?xml version="1.0" encoding="UTF-8" standalone="no"?>
<!DOCTYPE svg PUBLIC "-//W3C//DTD SVG 1.1//EN"
 "http://www.w3.org/Graphics/SVG/1.1/DTD/svg11.dtd">
<!-- Generated by graphviz version 2.43.0 (0)
 -->
<!-- Title: net::in::SocketAddress::getPort Pages: 1 -->
<svg width="329pt" height="86pt"
 viewBox="0.00 0.00 329.00 86.00" xmlns="http://www.w3.org/2000/svg" xmlns:xlink="http://www.w3.org/1999/xlink">
<g id="graph0" class="graph" transform="scale(1 1) rotate(0) translate(4 82)">
<title>net::in::SocketAddress::getPort</title>
<!-- Node1 -->
<g id="Node000001" class="node">
<title>Node1</title>
<g id="a_Node000001"><a xlink:title=" ">
<polygon fill="#999999" stroke="#666666" points="321,-54 196,-54 196,-24 321,-24 321,-54"/>
<text text-anchor="start" x="204" y="-42" font-family="Helvetica,sans-Serif" font-size="10.00">net::in::SocketAddress</text>
<text text-anchor="middle" x="258.5" y="-31" font-family="Helvetica,sans-Serif" font-size="10.00">::getPort</text>
</a>
</g>
</g>
<!-- Node2 -->
<g id="Node000002" class="node">
<title>Node2</title>
<g id="a_Node000002"><a xlink:href="classnet_1_1in_1_1config_1_1_config_address.html#ae6cff87e7c4c9236ee9894d9014e9448" target="_top" xlink:title=" ">
<polygon fill="white" stroke="#666666" points="160,-78 0,-78 0,-48 160,-48 160,-78"/>
<text text-anchor="start" x="8" y="-66" font-family="Helvetica,sans-Serif" font-size="10.00">net::in::config::ConfigAddress</text>
<text text-anchor="middle" x="80" y="-55" font-family="Helvetica,sans-Serif" font-size="10.00">::setSocketAddress</text>
</a>
</g>
</g>
<!-- Node1&#45;&gt;Node2 -->
<g id="edge1_Node000001_Node000002" class="edge">
<title>Node1&#45;&gt;Node2</title>
<g id="a_edge1_Node000001_Node000002"><a xlink:title=" ">
<path fill="none" stroke="#63b8ff" d="M185.62,-48.77C177.2,-49.92 168.58,-51.09 160.07,-52.25"/>
<polygon fill="#63b8ff" stroke="#63b8ff" points="186.33,-52.21 195.77,-47.39 185.39,-45.27 186.33,-52.21"/>
</a>
</g>
</g>
<!-- Node3 -->
<g id="Node000003" class="node">
<title>Node3</title>
<g id="a_Node000003"><a xlink:href="classnet_1_1in_1_1_socket_address.html#accb215df860073e1869c0202fa7f5f7c" target="_top" xlink:title=" ">
<polygon fill="white" stroke="#666666" points="142.5,-30 17.5,-30 17.5,0 142.5,0 142.5,-30"/>
<text text-anchor="start" x="25.5" y="-18" font-family="Helvetica,sans-Serif" font-size="10.00">net::in::SocketAddress</text>
<text text-anchor="middle" x="80" y="-7" font-family="Helvetica,sans-Serif" font-size="10.00">::toString</text>
</a>
</g>
</g>
<!-- Node1&#45;&gt;Node3 -->
<g id="edge2_Node000001_Node000003" class="edge">
<title>Node1&#45;&gt;Node3</title>
<g id="a_edge2_Node000001_Node000003"><a xlink:title=" ">
<path fill="none" stroke="#63b8ff" d="M185.54,-29.22C171.33,-27.28 156.53,-25.27 142.7,-23.39"/>
<polygon fill="#63b8ff" stroke="#63b8ff" points="185.39,-32.73 195.77,-30.61 186.33,-25.79 185.39,-32.73"/>
</a>
</g>
</g>
</g>
</svg>
