<?xml version="1.0" encoding="UTF-8" standalone="no"?>
<!DOCTYPE svg PUBLIC "-//W3C//DTD SVG 1.1//EN"
 "http://www.w3.org/Graphics/SVG/1.1/DTD/svg11.dtd">
<!-- Generated by graphviz version 14.1.2 (0)
 -->
<!-- Title: core::socket::stream::SocketWriter::shutdownWrite Pages: 1 -->
<svg width="542pt" height="94pt"
 viewBox="0.00 0.00 542.00 94.00" xmlns="http://www.w3.org/2000/svg" xmlns:xlink="http://www.w3.org/1999/xlink">
<g id="graph0" class="graph" transform="scale(1 1) rotate(0) translate(4 89.5)">
<title>core::socket::stream::SocketWriter::shutdownWrite</title>
<!-- Node1 -->
<g id="Node000001" class="node">
<title>Node1</title>
<g id="a_Node000001"><a xlink:title=" ">
<polygon fill="#999999" stroke="#666666" points="163.75,-59.5 0,-59.5 0,-26 163.75,-26 163.75,-59.5"/>
<text xml:space="preserve" text-anchor="start" x="8" y="-46" font-family="Helvetica,sans-Serif" font-size="10.00">core::socket::stream</text>
<text xml:space="preserve" text-anchor="middle" x="81.88" y="-33.25" font-family="Helvetica,sans-Serif" font-size="10.00">::SocketWriter::shutdownWrite</text>
</a>
</g>
</g>
<!-- Node2 -->
<g id="Node000002" class="node">
<title>Node2</title>
<g id="a_Node000002"><a xlink:href="classcore_1_1socket_1_1stream_1_1SocketWriter.html#a0cd5312f9e4a4efb20a51cc0151baa00" target="_top" xlink:title=" ">
<polygon fill="white" stroke="#666666" points="376.25,-85.5 199.75,-85.5 199.75,-52 376.25,-52 376.25,-85.5"/>
<text xml:space="preserve" text-anchor="start" x="207.75" y="-72" font-family="Helvetica,sans-Serif" font-size="10.00">core::socket::stream</text>
<text xml:space="preserve" text-anchor="middle" x="288" y="-59.25" font-family="Helvetica,sans-Serif" font-size="10.00">::SocketWriter::doWriteShutdown</text>
</a>
</g>
</g>
<!-- Node1&#45;&gt;Node2 -->
<g id="edge1_Node000001_Node000002" class="edge">
<title>Node1&#45;&gt;Node2</title>
<g id="a_edge1_Node000001_Node000002"><a xlink:title=" ">
<path fill="none" stroke="#63b8ff" d="M164.14,-53.1C172,-54.1 180.03,-55.12 188.03,-56.14"/>
<polygon fill="#63b8ff" stroke="#63b8ff" points="187.45,-59.6 197.81,-57.39 188.33,-52.65 187.45,-59.6"/>
</a>
</g>
</g>
<!-- Node3 -->
<g id="Node000003" class="node">
<title>Node3</title>
<g id="a_Node000003"><a xlink:href="classcore_1_1EventReceiver.html#a0735c234c7848cf4d45473a6f7ce11b2" target="_top" xlink:title=" ">
<polygon fill="white" stroke="#666666" points="344.75,-33.5 231.25,-33.5 231.25,0 344.75,0 344.75,-33.5"/>
<text xml:space="preserve" text-anchor="start" x="239.25" y="-20" font-family="Helvetica,sans-Serif" font-size="10.00">core::EventReceiver</text>
<text xml:space="preserve" text-anchor="middle" x="288" y="-7.25" font-family="Helvetica,sans-Serif" font-size="10.00">::getName</text>
</a>
</g>
</g>
<!-- Node1&#45;&gt;Node3 -->
<g id="edge2_Node000001_Node000003" class="edge">
<title>Node1&#45;&gt;Node3</title>
<g id="a_edge2_Node000001_Node000003"><a xlink:title=" ">
<path fill="none" stroke="#63b8ff" d="M164.14,-32.4C182.47,-30.06 201.74,-27.61 219.43,-25.36"/>
<polygon fill="#63b8ff" stroke="#63b8ff" points="219.83,-28.83 229.31,-24.1 218.95,-21.89 219.83,-28.83"/>
</a>
</g>
</g>
<!-- Node4 -->
<g id="Node000004" class="node">
<title>Node4</title>
<g id="a_Node000004"><a xlink:href="classcore_1_1Event.html#a0ab010154200ef32e875dc673e921c94" target="_top" xlink:title=" ">
<polygon fill="white" stroke="#666666" points="534,-27.12 412.25,-27.12 412.25,-6.38 534,-6.38 534,-27.12"/>
<text xml:space="preserve" text-anchor="middle" x="473.12" y="-13.62" font-family="Helvetica,sans-Serif" font-size="10.00">core::Event::getName</text>
</a>
</g>
</g>
<!-- Node3&#45;&gt;Node4 -->
<g id="edge3_Node000003_Node000004" class="edge">
<title>Node3&#45;&gt;Node4</title>
<g id="a_edge3_Node000003_Node000004"><a xlink:title=" ">
<path fill="none" stroke="#63b8ff" d="M345.19,-16.75C362.69,-16.75 382.23,-16.75 400.63,-16.75"/>
<polygon fill="#63b8ff" stroke="#63b8ff" points="400.4,-20.25 410.4,-16.75 400.4,-13.25 400.4,-20.25"/>
</a>
</g>
</g>
</g>
</svg>
