<?xml version="1.0" encoding="UTF-8" standalone="no"?>
<!DOCTYPE svg PUBLIC "-//W3C//DTD SVG 1.1//EN"
 "http://www.w3.org/Graphics/SVG/1.1/DTD/svg11.dtd">
<!-- Generated by graphviz version 2.42.4 (0)
 -->
<!-- Title: App::get_footer Pages: 1 -->
<svg width="428pt" height="27pt"
 viewBox="0.00 0.00 428.00 27.00" xmlns="http://www.w3.org/2000/svg" xmlns:xlink="http://www.w3.org/1999/xlink">
<g id="graph0" class="graph" transform="scale(1 1) rotate(0) translate(4 23)">
<title>App::get_footer</title>
<!-- Node1 -->
<g id="Node000001" class="node">
<title>Node1</title>
<g id="a_Node000001"><a xlink:title="Generate and return the footer.">
<polygon fill="#999999" stroke="#666666" points="420,-19 328,-19 328,0 420,0 420,-19"/>
<text text-anchor="middle" x="374" y="-7" font-family="Helvetica,sans-Serif" font-size="10.00">App::get_footer</text>
</a>
</g>
</g>
<!-- Node2 -->
<g id="Node000002" class="node">
<title>Node2</title>
<g id="a_Node000002"><a xlink:href="classFormatter.html#a27598b24d4a1586489070e1ebc39618a" target="_top" xlink:title="This prints out all the groups of options.">
<polygon fill="white" stroke="#666666" points="292,-19 160,-19 160,0 292,0 292,-19"/>
<text text-anchor="middle" x="226" y="-7" font-family="Helvetica,sans-Serif" font-size="10.00">Formatter::make_footer</text>
</a>
</g>
</g>
<!-- Node1&#45;&gt;Node2 -->
<g id="edge1_Node000001_Node000002" class="edge">
<title>Node1&#45;&gt;Node2</title>
<g id="a_edge1_Node000001_Node000002"><a xlink:title=" ">
<path fill="none" stroke="#63b8ff" d="M317.38,-9.5C309.15,-9.5 300.6,-9.5 292.2,-9.5"/>
<polygon fill="#63b8ff" stroke="#63b8ff" points="317.61,-13 327.61,-9.5 317.6,-6 317.61,-13"/>
</a>
</g>
</g>
<!-- Node3 -->
<g id="Node000003" class="node">
<title>Node3</title>
<g id="a_Node000003"><a xlink:href="classFormatter.html#ab682ca416d8793c76aca0993fd14ea22" target="_top" xlink:title="This puts everything together.">
<polygon fill="white" stroke="#666666" points="124,-19 0,-19 0,0 124,0 124,-19"/>
<text text-anchor="middle" x="62" y="-7" font-family="Helvetica,sans-Serif" font-size="10.00">Formatter::make_help</text>
</a>
</g>
</g>
<!-- Node2&#45;&gt;Node3 -->
<g id="edge2_Node000002_Node000003" class="edge">
<title>Node2&#45;&gt;Node3</title>
<g id="a_edge2_Node000002_Node000003"><a xlink:title=" ">
<path fill="none" stroke="#63b8ff" d="M149.36,-9.5C140.93,-9.5 132.43,-9.5 124.21,-9.5"/>
<polygon fill="#63b8ff" stroke="#63b8ff" points="149.58,-13 159.58,-9.5 149.58,-6 149.58,-13"/>
</a>
</g>
</g>
</g>
</svg>
