<?xml version="1.0" encoding="UTF-8" standalone="no"?>
<!DOCTYPE svg PUBLIC "-//W3C//DTD SVG 1.1//EN"
 "http://www.w3.org/Graphics/SVG/1.1/DTD/svg11.dtd">
<!-- Generated by graphviz version 2.43.0 (0)
 -->
<!-- Title: net::rc::stream::SocketClient::connect Pages: 1 -->
<svg width="327pt" height="62pt"
 viewBox="0.00 0.00 327.00 61.50" xmlns="http://www.w3.org/2000/svg" xmlns:xlink="http://www.w3.org/1999/xlink">
<g id="graph0" class="graph" transform="scale(1 1) rotate(0) translate(4 57.5)">
<title>net::rc::stream::SocketClient::connect</title>
<!-- Node1 -->
<g id="Node000001" class="node">
<title>Node1</title>
<g id="a_Node000001"><a xlink:title=" ">
<polygon fill="#999999" stroke="#666666" points="143,-35.5 0,-35.5 0,-5.5 143,-5.5 143,-35.5"/>
<text text-anchor="start" x="8" y="-23.5" font-family="Helvetica,sans-Serif" font-size="10.00">net::rc::stream::SocketClient</text>
<text text-anchor="middle" x="71.5" y="-12.5" font-family="Helvetica,sans-Serif" font-size="10.00">::connect</text>
</a>
</g>
</g>
<!-- Node1&#45;&gt;Node1 -->
<g id="edge1_Node000001_Node000001" class="edge">
<title>Node1&#45;&gt;Node1</title>
<g id="a_edge1_Node000001_Node000001"><a xlink:title=" ">
<path fill="none" stroke="#63b8ff" d="M40.56,-35.78C33.69,-44.91 44,-53.5 71.5,-53.5 87.83,-53.5 98.1,-50.47 102.31,-46.1"/>
<polygon fill="#63b8ff" stroke="#63b8ff" points="105.81,-45.82 102.44,-35.78 98.81,-45.73 105.81,-45.82"/>
</a>
</g>
</g>
<!-- Node2 -->
<g id="Node000002" class="node">
<title>Node2</title>
<g id="a_Node000002"><a xlink:href="classcore_1_1socket_1_1Socket.html#ac9b7df3682b2a24b5c7fce9bcff1c441" target="_top" xlink:title=" ">
<polygon fill="white" stroke="#666666" points="319,-41 179,-41 179,0 319,0 319,-41"/>
<text text-anchor="start" x="187" y="-29" font-family="Helvetica,sans-Serif" font-size="10.00">core::socket::Socket</text>
<text text-anchor="start" x="187" y="-18" font-family="Helvetica,sans-Serif" font-size="10.00">&lt; SocketConnectorT::Config</text>
<text text-anchor="middle" x="249" y="-7" font-family="Helvetica,sans-Serif" font-size="10.00"> &gt;::getConfig</text>
</a>
</g>
</g>
<!-- Node1&#45;&gt;Node2 -->
<g id="edge2_Node000001_Node000002" class="edge">
<title>Node1&#45;&gt;Node2</title>
<g id="a_edge2_Node000001_Node000002"><a xlink:title=" ">
<path fill="none" stroke="#63b8ff" d="M143.12,-20.5C151.61,-20.5 160.32,-20.5 168.92,-20.5"/>
<polygon fill="#63b8ff" stroke="#63b8ff" points="168.95,-24 178.95,-20.5 168.95,-17 168.95,-24"/>
</a>
</g>
</g>
</g>
</svg>
