<?xml version="1.0" encoding="UTF-8" standalone="no"?>
<!DOCTYPE svg PUBLIC "-//W3C//DTD SVG 1.1//EN"
 "http://www.w3.org/Graphics/SVG/1.1/DTD/svg11.dtd">
<!-- Generated by graphviz version 2.43.0 (0)
 -->
<!-- Title: core::epoll::DescriptorEventPublisher::EPollEvents::muxMod Pages: 1 -->
<svg width="576pt" height="134pt"
 viewBox="0.00 0.00 576.00 134.00" xmlns="http://www.w3.org/2000/svg" xmlns:xlink="http://www.w3.org/1999/xlink">
<g id="graph0" class="graph" transform="scale(1 1) rotate(0) translate(4 130)">
<title>core::epoll::DescriptorEventPublisher::EPollEvents::muxMod</title>
<!-- Node1 -->
<g id="Node000001" class="node">
<title>Node1</title>
<g id="a_Node000001"><a xlink:title=" ">
<polygon fill="#999999" stroke="#666666" points="568,-78 395,-78 395,-48 568,-48 568,-78"/>
<text text-anchor="start" x="403" y="-66" font-family="Helvetica,sans-Serif" font-size="10.00">core::epoll::DescriptorEvent</text>
<text text-anchor="middle" x="481.5" y="-55" font-family="Helvetica,sans-Serif" font-size="10.00">Publisher::EPollEvents::muxMod</text>
</a>
</g>
</g>
<!-- Node2 -->
<g id="Node000002" class="node">
<title>Node2</title>
<g id="a_Node000002"><a xlink:href="classcore_1_1epoll_1_1DescriptorEventPublisher_1_1EPollEvents.html#a6fcbf91fcf33ad26c2df6ee22f1f91d8" target="_top" xlink:title=" ">
<polygon fill="white" stroke="#666666" points="359,-126 188,-126 188,-96 359,-96 359,-126"/>
<text text-anchor="start" x="196" y="-114" font-family="Helvetica,sans-Serif" font-size="10.00">core::epoll::DescriptorEvent</text>
<text text-anchor="middle" x="273.5" y="-103" font-family="Helvetica,sans-Serif" font-size="10.00">Publisher::EPollEvents::muxAdd</text>
</a>
</g>
</g>
<!-- Node1&#45;&gt;Node2 -->
<g id="edge1_Node000001_Node000002" class="edge">
<title>Node1&#45;&gt;Node2</title>
<g id="a_edge1_Node000001_Node000002"><a xlink:title=" ">
<path fill="none" stroke="#63b8ff" d="M405.94,-80.37C383.98,-85.49 360.15,-91.04 338.89,-96"/>
<polygon fill="#63b8ff" stroke="#63b8ff" points="406.94,-83.73 415.89,-78.06 405.35,-76.92 406.94,-83.73"/>
</a>
</g>
</g>
<!-- Node4 -->
<g id="Node000004" class="node">
<title>Node4</title>
<g id="a_Node000004"><a xlink:href="classcore_1_1epoll_1_1DescriptorEventPublisher_1_1EPollEvents.html#aed2ceb41400871239965801463b54c30" target="_top" xlink:title=" ">
<polygon fill="white" stroke="#666666" points="357,-78 190,-78 190,-48 357,-48 357,-78"/>
<text text-anchor="start" x="198" y="-66" font-family="Helvetica,sans-Serif" font-size="10.00">core::epoll::DescriptorEvent</text>
<text text-anchor="middle" x="273.5" y="-55" font-family="Helvetica,sans-Serif" font-size="10.00">Publisher::EPollEvents::muxOff</text>
</a>
</g>
</g>
<!-- Node1&#45;&gt;Node4 -->
<g id="edge3_Node000001_Node000004" class="edge">
<title>Node1&#45;&gt;Node4</title>
<g id="a_edge3_Node000001_Node000004"><a xlink:title=" ">
<path fill="none" stroke="#63b8ff" d="M384.91,-63C375.64,-63 366.29,-63 357.16,-63"/>
<polygon fill="#63b8ff" stroke="#63b8ff" points="384.93,-66.5 394.93,-63 384.93,-59.5 384.93,-66.5"/>
</a>
</g>
</g>
<!-- Node6 -->
<g id="Node000006" class="node">
<title>Node6</title>
<g id="a_Node000006"><a xlink:href="classcore_1_1epoll_1_1DescriptorEventPublisher_1_1EPollEvents.html#aef056d0392e02c55350d8783e213632a" target="_top" xlink:title=" ">
<polygon fill="white" stroke="#666666" points="356.5,-30 190.5,-30 190.5,0 356.5,0 356.5,-30"/>
<text text-anchor="start" x="198.5" y="-18" font-family="Helvetica,sans-Serif" font-size="10.00">core::epoll::DescriptorEvent</text>
<text text-anchor="middle" x="273.5" y="-7" font-family="Helvetica,sans-Serif" font-size="10.00">Publisher::EPollEvents::muxOn</text>
</a>
</g>
</g>
<!-- Node1&#45;&gt;Node6 -->
<g id="edge5_Node000001_Node000006" class="edge">
<title>Node1&#45;&gt;Node6</title>
<g id="a_edge5_Node000001_Node000006"><a xlink:title=" ">
<path fill="none" stroke="#63b8ff" d="M405.94,-45.63C383.98,-40.51 360.15,-34.96 338.89,-30"/>
<polygon fill="#63b8ff" stroke="#63b8ff" points="405.35,-49.08 415.89,-47.94 406.94,-42.27 405.35,-49.08"/>
</a>
</g>
</g>
<!-- Node3 -->
<g id="Node000003" class="node">
<title>Node3</title>
<g id="a_Node000003"><a xlink:href="classcore_1_1epoll_1_1DescriptorEventPublisher.html#a58efcc42c16d1c98ce6b03b75554c85a" target="_top" xlink:title=" ">
<polygon fill="white" stroke="#666666" points="152,-126 0,-126 0,-96 152,-96 152,-126"/>
<text text-anchor="start" x="8" y="-114" font-family="Helvetica,sans-Serif" font-size="10.00">core::epoll::DescriptorEvent</text>
<text text-anchor="middle" x="76" y="-103" font-family="Helvetica,sans-Serif" font-size="10.00">Publisher::muxAdd</text>
</a>
</g>
</g>
<!-- Node2&#45;&gt;Node3 -->
<g id="edge2_Node000002_Node000003" class="edge">
<title>Node2&#45;&gt;Node3</title>
<g id="a_edge2_Node000002_Node000003"><a xlink:title=" ">
<path fill="none" stroke="#63b8ff" d="M177.83,-111C169.23,-111 160.61,-111 152.21,-111"/>
<polygon fill="#63b8ff" stroke="#63b8ff" points="177.89,-114.5 187.89,-111 177.89,-107.5 177.89,-114.5"/>
</a>
</g>
</g>
<!-- Node5 -->
<g id="Node000005" class="node">
<title>Node5</title>
<g id="a_Node000005"><a xlink:href="classcore_1_1epoll_1_1DescriptorEventPublisher.html#aa38c369f57b92b97529cd4d5078be6a0" target="_top" xlink:title=" ">
<polygon fill="white" stroke="#666666" points="152,-78 0,-78 0,-48 152,-48 152,-78"/>
<text text-anchor="start" x="8" y="-66" font-family="Helvetica,sans-Serif" font-size="10.00">core::epoll::DescriptorEvent</text>
<text text-anchor="middle" x="76" y="-55" font-family="Helvetica,sans-Serif" font-size="10.00">Publisher::muxOff</text>
</a>
</g>
</g>
<!-- Node4&#45;&gt;Node5 -->
<g id="edge4_Node000004_Node000005" class="edge">
<title>Node4&#45;&gt;Node5</title>
<g id="a_edge4_Node000004_Node000005"><a xlink:title=" ">
<path fill="none" stroke="#63b8ff" d="M179.85,-63C170.58,-63 161.25,-63 152.19,-63"/>
<polygon fill="#63b8ff" stroke="#63b8ff" points="179.87,-66.5 189.87,-63 179.87,-59.5 179.87,-66.5"/>
</a>
</g>
</g>
<!-- Node7 -->
<g id="Node000007" class="node">
<title>Node7</title>
<g id="a_Node000007"><a xlink:href="classcore_1_1epoll_1_1DescriptorEventPublisher.html#ae856fff72a30f634a48ea0a8685ba1d1" target="_top" xlink:title=" ">
<polygon fill="white" stroke="#666666" points="152,-30 0,-30 0,0 152,0 152,-30"/>
<text text-anchor="start" x="8" y="-18" font-family="Helvetica,sans-Serif" font-size="10.00">core::epoll::DescriptorEvent</text>
<text text-anchor="middle" x="76" y="-7" font-family="Helvetica,sans-Serif" font-size="10.00">Publisher::muxOn</text>
</a>
</g>
</g>
<!-- Node6&#45;&gt;Node7 -->
<g id="edge6_Node000006_Node000007" class="edge">
<title>Node6&#45;&gt;Node7</title>
<g id="a_edge6_Node000006_Node000007"><a xlink:title=" ">
<path fill="none" stroke="#63b8ff" d="M180.3,-15C170.92,-15 161.48,-15 152.31,-15"/>
<polygon fill="#63b8ff" stroke="#63b8ff" points="180.44,-18.5 190.44,-15 180.44,-11.5 180.44,-18.5"/>
</a>
</g>
</g>
</g>
</svg>
