<?xml version="1.0" encoding="UTF-8" standalone="no"?>
<!DOCTYPE svg PUBLIC "-//W3C//DTD SVG 1.1//EN"
 "http://www.w3.org/Graphics/SVG/1.1/DTD/svg11.dtd">
<!-- Generated by graphviz version 2.43.0 (0)
 -->
<!-- Title: iot::mqtt::client::packets::Publish::deliverPacket Pages: 1 -->
<svg width="1383pt" height="456pt"
 viewBox="0.00 0.00 1383.00 455.50" xmlns="http://www.w3.org/2000/svg" xmlns:xlink="http://www.w3.org/1999/xlink">
<g id="graph0" class="graph" transform="scale(1 1) rotate(0) translate(4 451.5)">
<title>iot::mqtt::client::packets::Publish::deliverPacket</title>
<!-- Node1 -->
<g id="Node000001" class="node">
<title>Node1</title>
<g id="a_Node000001"><a xlink:title=" ">
<polygon fill="#999999" stroke="#666666" points="167,-223 0,-223 0,-193 167,-193 167,-223"/>
<text text-anchor="start" x="8" y="-211" font-family="Helvetica,sans-Serif" font-size="10.00">iot::mqtt::client::</text>
<text text-anchor="middle" x="83.5" y="-200" font-family="Helvetica,sans-Serif" font-size="10.00">packets::Publish::deliverPacket</text>
</a>
</g>
</g>
<!-- Node2 -->
<g id="Node000002" class="node">
<title>Node2</title>
<g id="a_Node000002"><a xlink:href="classiot_1_1mqtt_1_1client_1_1Mqtt.html#a1147c1de14b227686a91052cc000c700" target="_top" xlink:title=" ">
<polygon fill="white" stroke="#666666" points="301,-223 203,-223 203,-193 301,-193 301,-223"/>
<text text-anchor="start" x="211" y="-211" font-family="Helvetica,sans-Serif" font-size="10.00">iot::mqtt::client::</text>
<text text-anchor="middle" x="252" y="-200" font-family="Helvetica,sans-Serif" font-size="10.00">Mqtt::_onPublish</text>
</a>
</g>
</g>
<!-- Node1&#45;&gt;Node2 -->
<g id="edge1_Node000001_Node000002" class="edge">
<title>Node1&#45;&gt;Node2</title>
<g id="a_edge1_Node000001_Node000002"><a xlink:title=" ">
<path fill="none" stroke="#63b8ff" d="M167.26,-208C175.87,-208 184.48,-208 192.74,-208"/>
<polygon fill="#63b8ff" stroke="#63b8ff" points="192.97,-211.5 202.97,-208 192.97,-204.5 192.97,-211.5"/>
</a>
</g>
</g>
<!-- Node3 -->
<g id="Node000003" class="node">
<title>Node3</title>
<g id="a_Node000003"><a xlink:href="classiot_1_1mqtt_1_1Mqtt.html#a8766079f6d926bc6b5201d7e46a00ed1" target="_top" xlink:title=" ">
<polygon fill="white" stroke="#666666" points="483,-236.5 337,-236.5 337,-217.5 483,-217.5 483,-236.5"/>
<text text-anchor="middle" x="410" y="-224.5" font-family="Helvetica,sans-Serif" font-size="10.00">iot::mqtt::Mqtt::_onPublish</text>
</a>
</g>
</g>
<!-- Node2&#45;&gt;Node3 -->
<g id="edge2_Node000002_Node000003" class="edge">
<title>Node2&#45;&gt;Node3</title>
<g id="a_edge2_Node000002_Node000003"><a xlink:title=" ">
<path fill="none" stroke="#63b8ff" d="M301.08,-213.86C309.34,-214.86 318.13,-215.93 326.98,-217.01"/>
<polygon fill="#63b8ff" stroke="#63b8ff" points="326.64,-220.49 336.99,-218.23 327.49,-213.55 326.64,-220.49"/>
</a>
</g>
</g>
<!-- Node22 -->
<g id="Node000022" class="node">
<title>Node22</title>
<g id="a_Node000022"><a xlink:href="classiot_1_1mqtt_1_1Mqtt.html#a186716f44067e3b0c6ba668833db6938" target="_top" xlink:title=" ">
<polygon fill="white" stroke="#666666" points="480,-199.5 340,-199.5 340,-180.5 480,-180.5 480,-199.5"/>
<text text-anchor="middle" x="410" y="-187.5" font-family="Helvetica,sans-Serif" font-size="10.00">iot::mqtt::Mqtt::onPublish</text>
</a>
</g>
</g>
<!-- Node2&#45;&gt;Node22 -->
<g id="edge24_Node000002_Node000022" class="edge">
<title>Node2&#45;&gt;Node22</title>
<g id="a_edge24_Node000002_Node000022"><a xlink:title=" ">
<path fill="none" stroke="#63b8ff" d="M301.08,-202.45C310.18,-201.4 319.92,-200.28 329.7,-199.15"/>
<polygon fill="#63b8ff" stroke="#63b8ff" points="330.33,-202.6 339.86,-197.98 329.53,-195.65 330.33,-202.6"/>
</a>
</g>
</g>
<!-- Node4 -->
<g id="Node000004" class="node">
<title>Node4</title>
<g id="a_Node000004"><a xlink:href="classiot_1_1mqtt_1_1MqttContext.html#ada10a6f2fcf6953ed62d93bdb5907cd1" target="_top" xlink:title=" ">
<polygon fill="white" stroke="#666666" points="673,-447.5 524,-447.5 524,-428.5 673,-428.5 673,-447.5"/>
<text text-anchor="middle" x="598.5" y="-435.5" font-family="Helvetica,sans-Serif" font-size="10.00">iot::mqtt::MqttContext::end</text>
</a>
</g>
</g>
<!-- Node3&#45;&gt;Node4 -->
<g id="edge3_Node000003_Node000004" class="edge">
<title>Node3&#45;&gt;Node4</title>
<g id="a_edge3_Node000003_Node000004"><a xlink:title=" ">
<path fill="none" stroke="#63b8ff" d="M413.5,-236.82C422.12,-268.62 453.74,-369.6 519,-419 521.49,-420.89 524.14,-422.59 526.91,-424.12"/>
<polygon fill="#63b8ff" stroke="#63b8ff" points="525.54,-427.35 536.07,-428.48 528.55,-421.02 525.54,-427.35"/>
</a>
</g>
</g>
<!-- Node5 -->
<g id="Node000005" class="node">
<title>Node5</title>
<g id="a_Node000005"><a xlink:href="classiot_1_1mqtt_1_1packets_1_1Publish.html#ac28fb8146c897130f1834fcdec89fabe" target="_top" xlink:title=" ">
<polygon fill="white" stroke="#666666" points="649.5,-410 547.5,-410 547.5,-380 649.5,-380 649.5,-410"/>
<text text-anchor="start" x="555.5" y="-398" font-family="Helvetica,sans-Serif" font-size="10.00">iot::mqtt::packets</text>
<text text-anchor="middle" x="598.5" y="-387" font-family="Helvetica,sans-Serif" font-size="10.00">::Publish::getDup</text>
</a>
</g>
</g>
<!-- Node3&#45;&gt;Node5 -->
<g id="edge4_Node000003_Node000005" class="edge">
<title>Node3&#45;&gt;Node5</title>
<g id="a_edge4_Node000003_Node000005"><a xlink:title=" ">
<path fill="none" stroke="#63b8ff" d="M415.54,-236.72C428.12,-262.62 466.05,-333.84 519,-371 524.64,-374.96 530.96,-378.28 537.48,-381.06"/>
<polygon fill="#63b8ff" stroke="#63b8ff" points="536.56,-384.46 547.15,-384.76 539.06,-377.92 536.56,-384.46"/>
</a>
</g>
</g>
<!-- Node6 -->
<g id="Node000006" class="node">
<title>Node6</title>
<g id="a_Node000006"><a xlink:href="classiot_1_1mqtt_1_1packets_1_1Publish.html#a5ff7a6ef5d6d227e3870b9247a30eade" target="_top" xlink:title=" ">
<polygon fill="white" stroke="#666666" points="660,-362 537,-362 537,-332 660,-332 660,-362"/>
<text text-anchor="start" x="545" y="-350" font-family="Helvetica,sans-Serif" font-size="10.00">iot::mqtt::packets</text>
<text text-anchor="middle" x="598.5" y="-339" font-family="Helvetica,sans-Serif" font-size="10.00">::Publish::getMessage</text>
</a>
</g>
</g>
<!-- Node3&#45;&gt;Node6 -->
<g id="edge5_Node000003_Node000006" class="edge">
<title>Node3&#45;&gt;Node6</title>
<g id="a_edge5_Node000003_Node000006"><a xlink:title=" ">
<path fill="none" stroke="#63b8ff" d="M419.21,-236.67C436.01,-255.88 476.35,-299.05 519,-323 522.08,-324.73 525.29,-326.34 528.59,-327.86"/>
<polygon fill="#63b8ff" stroke="#63b8ff" points="527.48,-331.19 538.06,-331.85 530.2,-324.74 527.48,-331.19"/>
</a>
</g>
</g>
<!-- Node7 -->
<g id="Node000007" class="node">
<title>Node7</title>
<g id="a_Node000007"><a xlink:href="classiot_1_1mqtt_1_1packets_1_1Publish.html#ad6c57a14da601668c592004480637c96" target="_top" xlink:title=" ">
<polygon fill="white" stroke="#666666" points="676.5,-314 520.5,-314 520.5,-284 676.5,-284 676.5,-314"/>
<text text-anchor="start" x="528.5" y="-302" font-family="Helvetica,sans-Serif" font-size="10.00">iot::mqtt::packets</text>
<text text-anchor="middle" x="598.5" y="-291" font-family="Helvetica,sans-Serif" font-size="10.00">::Publish::getPacketIdentifier</text>
</a>
</g>
</g>
<!-- Node3&#45;&gt;Node7 -->
<g id="edge6_Node000003_Node000007" class="edge">
<title>Node3&#45;&gt;Node7</title>
<g id="a_edge6_Node000003_Node000007"><a xlink:title=" ">
<path fill="none" stroke="#63b8ff" d="M430.61,-236.58C452.02,-246.84 487.48,-263.23 519,-275 524.17,-276.93 529.58,-278.83 535.03,-280.66"/>
<polygon fill="#63b8ff" stroke="#63b8ff" points="534.25,-284.09 544.84,-283.87 536.43,-277.43 534.25,-284.09"/>
</a>
</g>
</g>
<!-- Node8 -->
<g id="Node000008" class="node">
<title>Node8</title>
<g id="a_Node000008"><a xlink:href="classiot_1_1mqtt_1_1packets_1_1Publish.html#a096fa9c85bacbdce30e5203a34c142bc" target="_top" xlink:title=" ">
<polygon fill="white" stroke="#666666" points="649.5,-266 547.5,-266 547.5,-236 649.5,-236 649.5,-266"/>
<text text-anchor="start" x="555.5" y="-254" font-family="Helvetica,sans-Serif" font-size="10.00">iot::mqtt::packets</text>
<text text-anchor="middle" x="598.5" y="-243" font-family="Helvetica,sans-Serif" font-size="10.00">::Publish::getQoS</text>
</a>
</g>
</g>
<!-- Node3&#45;&gt;Node8 -->
<g id="edge7_Node000003_Node000008" class="edge">
<title>Node3&#45;&gt;Node8</title>
<g id="a_edge7_Node000003_Node000008"><a xlink:title=" ">
<path fill="none" stroke="#63b8ff" d="M483.11,-236.28C501.01,-238.58 520.02,-241.03 537.29,-243.25"/>
<polygon fill="#63b8ff" stroke="#63b8ff" points="536.87,-246.73 547.24,-244.53 537.77,-239.78 536.87,-246.73"/>
</a>
</g>
</g>
<!-- Node9 -->
<g id="Node000009" class="node">
<title>Node9</title>
<g id="a_Node000009"><a xlink:href="classiot_1_1mqtt_1_1packets_1_1Publish.html#a6a6426abdf03294324dd1408e6dde0e7" target="_top" xlink:title=" ">
<polygon fill="white" stroke="#666666" points="654,-218 543,-218 543,-188 654,-188 654,-218"/>
<text text-anchor="start" x="551" y="-206" font-family="Helvetica,sans-Serif" font-size="10.00">iot::mqtt::packets</text>
<text text-anchor="middle" x="598.5" y="-195" font-family="Helvetica,sans-Serif" font-size="10.00">::Publish::getRetain</text>
</a>
</g>
</g>
<!-- Node3&#45;&gt;Node9 -->
<g id="edge8_Node000003_Node000009" class="edge">
<title>Node3&#45;&gt;Node9</title>
<g id="a_edge8_Node000003_Node000009"><a xlink:title=" ">
<path fill="none" stroke="#63b8ff" d="M483.11,-217.72C499.42,-215.62 516.64,-213.41 532.63,-211.35"/>
<polygon fill="#63b8ff" stroke="#63b8ff" points="533.47,-214.77 542.94,-210.02 532.58,-207.83 533.47,-214.77"/>
</a>
</g>
</g>
<!-- Node10 -->
<g id="Node000010" class="node">
<title>Node10</title>
<g id="a_Node000010"><a xlink:href="classiot_1_1mqtt_1_1packets_1_1Publish.html#a5df0f8b11d0cc24eac2aa8956319127b" target="_top" xlink:title=" ">
<polygon fill="white" stroke="#666666" points="650.5,-170 546.5,-170 546.5,-140 650.5,-140 650.5,-170"/>
<text text-anchor="start" x="554.5" y="-158" font-family="Helvetica,sans-Serif" font-size="10.00">iot::mqtt::packets</text>
<text text-anchor="middle" x="598.5" y="-147" font-family="Helvetica,sans-Serif" font-size="10.00">::Publish::getTopic</text>
</a>
</g>
</g>
<!-- Node3&#45;&gt;Node10 -->
<g id="edge9_Node000003_Node000010" class="edge">
<title>Node3&#45;&gt;Node10</title>
<g id="a_edge9_Node000003_Node000010"><a xlink:title=" ">
<path fill="none" stroke="#63b8ff" d="M461.63,-217.43C469,-215.16 476.34,-212.38 483,-209 501.57,-199.57 500.68,-188.91 519,-179 524.59,-175.97 530.62,-173.28 536.77,-170.88"/>
<polygon fill="#63b8ff" stroke="#63b8ff" points="538.26,-174.06 546.47,-167.36 535.87,-167.48 538.26,-174.06"/>
</a>
</g>
</g>
<!-- Node11 -->
<g id="Node000011" class="node">
<title>Node11</title>
<g id="a_Node000011"><a xlink:href="classiot_1_1mqtt_1_1Mqtt.html#aad0ebe3e81b0c159295be7ff0c491bd1" target="_top" xlink:title=" ">
<polygon fill="white" stroke="#666666" points="678,-122 519,-122 519,-92 678,-92 678,-122"/>
<text text-anchor="start" x="527" y="-110" font-family="Helvetica,sans-Serif" font-size="10.00">iot::mqtt::Mqtt::printStandard</text>
<text text-anchor="middle" x="598.5" y="-99" font-family="Helvetica,sans-Serif" font-size="10.00">Header</text>
</a>
</g>
</g>
<!-- Node3&#45;&gt;Node11 -->
<g id="edge10_Node000003_Node000011" class="edge">
<title>Node3&#45;&gt;Node11</title>
<g id="a_edge10_Node000003_Node000011"><a xlink:title=" ">
<path fill="none" stroke="#63b8ff" d="M469.44,-217.37C474.32,-215.12 478.93,-212.37 483,-209 512.41,-184.65 490.23,-156.11 519,-131 520.49,-129.7 522.05,-128.47 523.66,-127.31"/>
<polygon fill="#63b8ff" stroke="#63b8ff" points="525.52,-130.28 532.17,-122.03 521.83,-124.33 525.52,-130.28"/>
</a>
</g>
</g>
<!-- Node19 -->
<g id="Node000019" class="node">
<title>Node19</title>
<g id="a_Node000019"><a xlink:href="classiot_1_1mqtt_1_1Mqtt.html#a64f2e5213d4954df3bc653617cd14455" target="_top" xlink:title=" ">
<polygon fill="white" stroke="#666666" points="674.5,-71.5 522.5,-71.5 522.5,-52.5 674.5,-52.5 674.5,-71.5"/>
<text text-anchor="middle" x="598.5" y="-59.5" font-family="Helvetica,sans-Serif" font-size="10.00">iot::mqtt::Mqtt::sendPuback</text>
</a>
</g>
</g>
<!-- Node3&#45;&gt;Node19 -->
<g id="edge18_Node000003_Node000019" class="edge">
<title>Node3&#45;&gt;Node19</title>
<g id="a_edge18_Node000003_Node000019"><a xlink:title=" ">
<path fill="none" stroke="#63b8ff" d="M471.06,-217.48C475.42,-215.19 479.48,-212.4 483,-209 524.86,-168.51 477.47,-123.83 519,-83 521.41,-80.63 524.07,-78.51 526.89,-76.63"/>
<polygon fill="#63b8ff" stroke="#63b8ff" points="528.78,-79.59 535.81,-71.66 525.37,-73.47 528.78,-79.59"/>
</a>
</g>
</g>
<!-- Node21 -->
<g id="Node000021" class="node">
<title>Node21</title>
<g id="a_Node000021"><a xlink:href="classiot_1_1mqtt_1_1Mqtt.html#aefeb8db9cebbe5fdb28dee626f6389f3" target="_top" xlink:title=" ">
<polygon fill="white" stroke="#666666" points="673,-29.5 524,-29.5 524,-10.5 673,-10.5 673,-29.5"/>
<text text-anchor="middle" x="598.5" y="-17.5" font-family="Helvetica,sans-Serif" font-size="10.00">iot::mqtt::Mqtt::sendPubrec</text>
</a>
</g>
</g>
<!-- Node3&#45;&gt;Node21 -->
<g id="edge22_Node000003_Node000021" class="edge">
<title>Node3&#45;&gt;Node21</title>
<g id="a_edge22_Node000003_Node000021"><a xlink:title=" ">
<path fill="none" stroke="#63b8ff" d="M471.98,-217.35C476.03,-215.08 479.77,-212.33 483,-209 535.54,-154.79 467.56,-98.25 519,-43 522.13,-39.63 525.73,-36.75 529.62,-34.29"/>
<polygon fill="#63b8ff" stroke="#63b8ff" points="531.37,-37.32 538.55,-29.52 528.08,-31.14 531.37,-37.32"/>
</a>
</g>
</g>
<!-- Node12 -->
<g id="Node000012" class="node">
<title>Node12</title>
<g id="a_Node000012"><a xlink:href="classiot_1_1mqtt_1_1Mqtt.html#ab70d673e9ccb125cb5ed2449cfa1492c" target="_top" xlink:title=" ">
<polygon fill="white" stroke="#666666" points="859,-221 714,-221 714,-191 859,-191 859,-221"/>
<text text-anchor="start" x="722" y="-209" font-family="Helvetica,sans-Serif" font-size="10.00">iot::mqtt::Mqtt::dataToHex</text>
<text text-anchor="middle" x="786.5" y="-198" font-family="Helvetica,sans-Serif" font-size="10.00">String</text>
</a>
</g>
</g>
<!-- Node11&#45;&gt;Node12 -->
<g id="edge11_Node000011_Node000012" class="edge">
<title>Node11&#45;&gt;Node12</title>
<g id="a_edge11_Node000011_Node000012"><a xlink:title=" ">
<path fill="none" stroke="#63b8ff" d="M662.59,-122.1C668.04,-124.63 673.27,-127.57 678,-131 700.48,-147.27 691.75,-165.43 714,-182 715.88,-183.4 717.84,-184.72 719.87,-185.96"/>
<polygon fill="#63b8ff" stroke="#63b8ff" points="718.66,-189.29 729.12,-190.96 721.99,-183.13 718.66,-189.29"/>
</a>
</g>
</g>
<!-- Node13 -->
<g id="Node000013" class="node">
<title>Node13</title>
<g id="a_Node000013"><a xlink:href="classiot_1_1mqtt_1_1ControlPacket.html#a5010a3ec8f0c9d1a95b1fd1e85d77f71" target="_top" xlink:title=" ">
<polygon fill="white" stroke="#666666" points="852.5,-173 720.5,-173 720.5,-143 852.5,-143 852.5,-173"/>
<text text-anchor="start" x="728.5" y="-161" font-family="Helvetica,sans-Serif" font-size="10.00">iot::mqtt::ControlPacket</text>
<text text-anchor="middle" x="786.5" y="-150" font-family="Helvetica,sans-Serif" font-size="10.00">::getFlags</text>
</a>
</g>
</g>
<!-- Node11&#45;&gt;Node13 -->
<g id="edge12_Node000011_Node000013" class="edge">
<title>Node11&#45;&gt;Node13</title>
<g id="a_edge12_Node000011_Node000013"><a xlink:title=" ">
<path fill="none" stroke="#63b8ff" d="M654.3,-122.03C675.21,-127.76 699.24,-134.35 720.97,-140.31"/>
<polygon fill="#63b8ff" stroke="#63b8ff" points="720.2,-143.72 730.77,-142.99 722.05,-136.97 720.2,-143.72"/>
</a>
</g>
</g>
<!-- Node14 -->
<g id="Node000014" class="node">
<title>Node14</title>
<g id="a_Node000014"><a xlink:href="classiot_1_1mqtt_1_1ControlPacket.html#a2010ac4f0ef53a8c8140faa953b5a6cd" target="_top" xlink:title=" ">
<polygon fill="white" stroke="#666666" points="852.5,-125 720.5,-125 720.5,-95 852.5,-95 852.5,-125"/>
<text text-anchor="start" x="728.5" y="-113" font-family="Helvetica,sans-Serif" font-size="10.00">iot::mqtt::ControlPacket</text>
<text text-anchor="middle" x="786.5" y="-102" font-family="Helvetica,sans-Serif" font-size="10.00">::getType</text>
</a>
</g>
</g>
<!-- Node11&#45;&gt;Node14 -->
<g id="edge13_Node000011_Node000014" class="edge">
<title>Node11&#45;&gt;Node14</title>
<g id="a_edge13_Node000011_Node000014"><a xlink:title=" ">
<path fill="none" stroke="#63b8ff" d="M678.11,-108.27C688.78,-108.44 699.71,-108.62 710.32,-108.79"/>
<polygon fill="#63b8ff" stroke="#63b8ff" points="710.31,-112.29 720.37,-108.95 710.43,-105.29 710.31,-112.29"/>
</a>
</g>
</g>
<!-- Node15 -->
<g id="Node000015" class="node">
<title>Node15</title>
<g id="a_Node000015"><a xlink:href="classiot_1_1mqtt_1_1ControlPacket.html#a05bfc24d7ae7380ef9b2fcb64ce37526" target="_top" xlink:title=" ">
<polygon fill="white" stroke="#666666" points="1027,-54 895,-54 895,-24 1027,-24 1027,-54"/>
<text text-anchor="start" x="903" y="-42" font-family="Helvetica,sans-Serif" font-size="10.00">iot::mqtt::ControlPacket</text>
<text text-anchor="middle" x="961" y="-31" font-family="Helvetica,sans-Serif" font-size="10.00">::serialize</text>
</a>
</g>
</g>
<!-- Node11&#45;&gt;Node15 -->
<g id="edge14_Node000011_Node000015" class="edge">
<title>Node11&#45;&gt;Node15</title>
<g id="a_edge14_Node000011_Node000015"><a xlink:title=" ">
<path fill="none" stroke="#63b8ff" d="M678.17,-92.16C739.59,-80.57 824.39,-64.58 884.89,-53.17"/>
<polygon fill="#63b8ff" stroke="#63b8ff" points="885.58,-56.6 894.76,-51.31 884.28,-49.72 885.58,-56.6"/>
</a>
</g>
</g>
<!-- Node16 -->
<g id="Node000016" class="node">
<title>Node16</title>
<g id="a_Node000016"><a xlink:href="classiot_1_1mqtt_1_1FixedHeader.html#a8f92f1f71ca75c3516c7ba3ff7b0ebf5" target="_top" xlink:title=" ">
<polygon fill="white" stroke="#666666" points="1191.5,-78 1066.5,-78 1066.5,-48 1191.5,-48 1191.5,-78"/>
<text text-anchor="start" x="1074.5" y="-66" font-family="Helvetica,sans-Serif" font-size="10.00">iot::mqtt::FixedHeader</text>
<text text-anchor="middle" x="1129" y="-55" font-family="Helvetica,sans-Serif" font-size="10.00">::serialize</text>
</a>
</g>
</g>
<!-- Node15&#45;&gt;Node16 -->
<g id="edge15_Node000015_Node000016" class="edge">
<title>Node15&#45;&gt;Node16</title>
<g id="a_edge15_Node000015_Node000016"><a xlink:title=" ">
<path fill="none" stroke="#63b8ff" d="M1027.13,-48.42C1036.7,-49.8 1046.61,-51.23 1056.31,-52.63"/>
<polygon fill="#63b8ff" stroke="#63b8ff" points="1055.91,-56.11 1066.31,-54.08 1056.91,-49.19 1055.91,-56.11"/>
</a>
</g>
</g>
<!-- Node18 -->
<g id="Node000018" class="node">
<title>Node18</title>
<g id="a_Node000018"><a xlink:href="classiot_1_1mqtt_1_1ControlPacket.html#ab4f58bf0c1920d705af23c8d7636247f" target="_top" xlink:title=" ">
<polygon fill="white" stroke="#666666" points="1195,-30 1063,-30 1063,0 1195,0 1195,-30"/>
<text text-anchor="start" x="1071" y="-18" font-family="Helvetica,sans-Serif" font-size="10.00">iot::mqtt::ControlPacket</text>
<text text-anchor="middle" x="1129" y="-7" font-family="Helvetica,sans-Serif" font-size="10.00">::serializeVP</text>
</a>
</g>
</g>
<!-- Node15&#45;&gt;Node18 -->
<g id="edge17_Node000015_Node000018" class="edge">
<title>Node15&#45;&gt;Node18</title>
<g id="a_edge17_Node000015_Node000018"><a xlink:title=" ">
<path fill="none" stroke="#63b8ff" d="M1027.13,-29.58C1035.55,-28.37 1044.23,-27.11 1052.8,-25.87"/>
<polygon fill="#63b8ff" stroke="#63b8ff" points="1053.39,-29.32 1062.78,-24.43 1052.39,-22.4 1053.39,-29.32"/>
</a>
</g>
</g>
<!-- Node17 -->
<g id="Node000017" class="node">
<title>Node17</title>
<g id="a_Node000017"><a xlink:href="classiot_1_1mqtt_1_1types_1_1TypeBase.html#a7e6939bfafb586b2c2990b485bc5218a" target="_top" xlink:title=" ">
<polygon fill="white" stroke="#666666" points="1375,-78 1231,-78 1231,-48 1375,-48 1375,-78"/>
<text text-anchor="start" x="1239" y="-66" font-family="Helvetica,sans-Serif" font-size="10.00">iot::mqtt::types::TypeBase</text>
<text text-anchor="middle" x="1303" y="-55" font-family="Helvetica,sans-Serif" font-size="10.00">::serialize</text>
</a>
</g>
</g>
<!-- Node16&#45;&gt;Node17 -->
<g id="edge16_Node000016_Node000017" class="edge">
<title>Node16&#45;&gt;Node17</title>
<g id="a_edge16_Node000016_Node000017"><a xlink:title=" ">
<path fill="none" stroke="#63b8ff" d="M1191.61,-63C1201.05,-63 1210.93,-63 1220.71,-63"/>
<polygon fill="#63b8ff" stroke="#63b8ff" points="1220.87,-66.5 1230.87,-63 1220.87,-59.5 1220.87,-66.5"/>
</a>
</g>
</g>
<!-- Node20 -->
<g id="Node000020" class="node">
<title>Node20</title>
<g id="a_Node000020"><a xlink:href="classiot_1_1mqtt_1_1Mqtt.html#ac2c838576318814d55feaaf87cdca5b9" target="_top" xlink:title=" ">
<polygon fill="white" stroke="#666666" points="844.5,-20.5 728.5,-20.5 728.5,-1.5 844.5,-1.5 844.5,-20.5"/>
<text text-anchor="middle" x="786.5" y="-8.5" font-family="Helvetica,sans-Serif" font-size="10.00">iot::mqtt::Mqtt::send</text>
</a>
</g>
</g>
<!-- Node19&#45;&gt;Node20 -->
<g id="edge19_Node000019_Node000020" class="edge">
<title>Node19&#45;&gt;Node20</title>
<g id="a_edge19_Node000019_Node000020"><a xlink:title=" ">
<path fill="none" stroke="#63b8ff" d="M634.49,-52.41C664.62,-44.14 708.29,-32.17 740.93,-23.22"/>
<polygon fill="#63b8ff" stroke="#63b8ff" points="741.95,-26.57 750.67,-20.55 740.1,-19.82 741.95,-26.57"/>
</a>
</g>
</g>
<!-- Node20&#45;&gt;Node15 -->
<g id="edge21_Node000020_Node000015" class="edge">
<title>Node20&#45;&gt;Node15</title>
<g id="a_edge21_Node000020_Node000015"><a xlink:title=" ">
<path fill="none" stroke="#63b8ff" d="M844.94,-20.32C857.67,-22.39 871.35,-24.61 884.67,-26.77"/>
<polygon fill="#63b8ff" stroke="#63b8ff" points="884.34,-30.26 894.77,-28.41 885.46,-23.35 884.34,-30.26"/>
</a>
</g>
</g>
<!-- Node20&#45;&gt;Node20 -->
<g id="edge20_Node000020_Node000020" class="edge">
<title>Node20&#45;&gt;Node20</title>
<g id="a_edge20_Node000020_Node000020"><a xlink:title=" ">
<path fill="none" stroke="#63b8ff" d="M759.68,-20.58C746.63,-29.23 755.57,-38.5 786.5,-38.5 807.28,-38.5 818.13,-34.32 819.06,-28.95"/>
<polygon fill="#63b8ff" stroke="#63b8ff" points="821.86,-26.85 813.32,-20.58 816.09,-30.81 821.86,-26.85"/>
</a>
</g>
</g>
<!-- Node21&#45;&gt;Node20 -->
<g id="edge23_Node000021_Node000020" class="edge">
<title>Node21&#45;&gt;Node20</title>
<g id="a_edge23_Node000021_Node000020"><a xlink:title=" ">
<path fill="none" stroke="#63b8ff" d="M673.01,-16.44C687.95,-15.72 703.58,-14.96 718.28,-14.25"/>
<polygon fill="#63b8ff" stroke="#63b8ff" points="718.47,-17.75 728.29,-13.77 718.13,-10.76 718.47,-17.75"/>
</a>
</g>
</g>
</g>
</svg>
