<?xml version="1.0" encoding="UTF-8" standalone="no"?>
<!DOCTYPE svg PUBLIC "-//W3C//DTD SVG 1.1//EN"
 "http://www.w3.org/Graphics/SVG/1.1/DTD/svg11.dtd">
<!-- Generated by graphviz version 14.1.1 (0)
 -->
<!-- Title: web::http::client::MasterRequest::requestDelivered Pages: 1 -->
<!--zoomable 314 -->

<svg id="main" version="1.1" xmlns="http://www.w3.org/2000/svg" xmlns:xlink="http://www.w3.org/1999/xlink" xml:space="preserve" onload="init(evt)">

<style type="text/css"><![CDATA[
.node, .edge {opacity: 0.7;}
.node.selected, .edge.selected {opacity: 1;}
.edge:hover path { stroke: red; }
.edge:hover polygon { stroke: red; fill: red; }
]]></style>

<defs>
  <circle id="rim" cx="0" cy="0" r="7"/>
  <circle id="rim2" cx="0" cy="0" r="3.5"/>
  <g id="zoomPlus">
    <use xlink:href="#rim" fill="#404040"><set attributeName="fill" to="#808080" begin="zoomplus.mouseover" end="zoomplus.mouseout"/></use>
    <path d="M-4,0h8M0,-4v8" fill="none" stroke="white" stroke-width="1.5" pointer-events="none"/>
  </g>
  <g id="zoomMin">
    <use xlink:href="#rim" fill="#404040"><set attributeName="fill" to="#808080" begin="zoomminus.mouseover" end="zoomminus.mouseout"/></use>
    <path d="M-4,0h8" fill="none" stroke="white" stroke-width="1.5" pointer-events="none"/>
  </g>
  <g id="arrowUp" transform="translate(30 24)">
    <use xlink:href="#rim"/>
    <path pointer-events="none" fill="none" stroke="white" stroke-width="1.5" d="M0,-3.0v7 M-2.5,-0.5L0,-3.0L2.5,-0.5"/>
  </g>
  <g id="arrowRight" transform="rotate(90) translate(36 -43)">
    <use xlink:href="#rim"/>
    <path pointer-events="none" fill="none" stroke="white" stroke-width="1.5" d="M0,-3.0v7 M-2.5,-0.5L0,-3.0L2.5,-0.5"/>
  </g>
  <g id="arrowDown" transform="rotate(180) translate(-30 -48)">
    <use xlink:href="#rim"/>
    <path pointer-events="none" fill="none" stroke="white" stroke-width="1.5" d="M0,-3.0v7 M-2.5,-0.5L0,-3.0L2.5,-0.5"/>
  </g>
  <g id="arrowLeft" transform="rotate(270) translate(-36 17)">
    <use xlink:href="#rim"/>
    <path pointer-events="none" fill="none" stroke="white" stroke-width="1.5" d="M0,-3.0v7 M-2.5,-0.5L0,-3.0L2.5,-0.5"/>
  </g>
  <g id="resetDef">
    <use xlink:href="#rim2" fill="#404040"><set attributeName="fill" to="#808080" begin="reset.mouseover" end="reset.mouseout"/></use>
  </g>
</defs>
<script type="application/ecmascript">
var viewWidth = 1458;
var viewHeight = 314;
var sectionId = 'dynsection-26';
</script>
<script type="application/ecmascript" xlink:href="svg.min.js"/>
<svg id="graph" class="graph">
<g id="viewport">
<title>web::http::client::MasterRequest::requestDelivered</title>
<!-- Node1 -->
<g id="Node000001" class="node">
<title>Node1</title>
<g id="a_Node000001"><a xlink:title=" ">
<polygon fill="#999999" stroke="#666666" points="1450.25,-124.5 1270.75,-124.5 1270.75,-91 1450.25,-91 1450.25,-124.5"/>
<text xml:space="preserve" text-anchor="start" x="1278.75" y="-111" font-family="Helvetica,sans-Serif" font-size="10.00">web::http::client::</text>
<text xml:space="preserve" text-anchor="middle" x="1360.5" y="-98.25" font-family="Helvetica,sans-Serif" font-size="10.00">MasterRequest::requestDelivered</text>
</a>
</g>
</g>
<!-- Node2 -->
<g id="Node000002" class="node">
<title>Node2</title>
<g id="a_Node000002"><a xlink:href="classweb_1_1http_1_1client_1_1MasterRequest.html#af22c5a647f9beb7c6be6d50815c77255" target="_top" xlink:title=" ">
<polygon fill="white" stroke="#666666" points="1217.88,-202.5 1087.88,-202.5 1087.88,-169 1217.88,-169 1217.88,-202.5"/>
<text xml:space="preserve" text-anchor="start" x="1095.88" y="-189" font-family="Helvetica,sans-Serif" font-size="10.00">web::http::client::</text>
<text xml:space="preserve" text-anchor="middle" x="1152.88" y="-176.25" font-family="Helvetica,sans-Serif" font-size="10.00">MasterRequest::initiate</text>
</a>
</g>
</g>
<!-- Node1&#45;&gt;Node2 -->
<g id="edge1_Node000001_Node000002" class="edge">
<title>Node1&#45;&gt;Node2</title>
<g id="a_edge1_Node000001_Node000002"><a xlink:title=" ">
<path fill="none" stroke="#63b8ff" d="M1310.07,-129.47C1287.31,-139.19 1259.84,-150.51 1234.75,-159.75 1226.58,-162.76 1217.89,-165.76 1209.34,-168.6"/>
<polygon fill="#63b8ff" stroke="#63b8ff" points="1311.31,-132.75 1319.11,-125.59 1308.54,-126.32 1311.31,-132.75"/>
</a>
</g>
</g>
<!-- Node18 -->
<g id="Node000018" class="node">
<title>Node18</title>
<g id="a_Node000018"><a xlink:href="classweb_1_1http_1_1client_1_1MasterRequest.html#ab085a910aa719a549805774591147c28" target="_top" xlink:title=" ">
<polygon fill="white" stroke="#666666" points="1231,-150.5 1074.75,-150.5 1074.75,-117 1231,-117 1231,-150.5"/>
<text xml:space="preserve" text-anchor="start" x="1082.75" y="-137" font-family="Helvetica,sans-Serif" font-size="10.00">web::http::client::</text>
<text xml:space="preserve" text-anchor="middle" x="1152.88" y="-124.25" font-family="Helvetica,sans-Serif" font-size="10.00">MasterRequest::onSourceEof</text>
</a>
</g>
</g>
<!-- Node1&#45;&gt;Node18 -->
<g id="edge19_Node000001_Node000018" class="edge">
<title>Node1&#45;&gt;Node18</title>
<g id="a_edge19_Node000001_Node000018"><a xlink:title=" ">
<path fill="none" stroke="#63b8ff" d="M1259.16,-120.44C1249.82,-121.62 1240.46,-122.8 1231.38,-123.95"/>
<polygon fill="#63b8ff" stroke="#63b8ff" points="1259.52,-123.92 1269,-119.19 1258.64,-116.97 1259.52,-123.92"/>
</a>
</g>
</g>
<!-- Node19 -->
<g id="Node000019" class="node">
<title>Node19</title>
<g id="a_Node000019"><a xlink:href="classweb_1_1http_1_1client_1_1MasterRequest.html#a89a302d791c21c34fb0716f73ca86da6" target="_top" xlink:title=" ">
<polygon fill="white" stroke="#666666" points="1234.75,-98.5 1071,-98.5 1071,-65 1234.75,-65 1234.75,-98.5"/>
<text xml:space="preserve" text-anchor="start" x="1079" y="-85" font-family="Helvetica,sans-Serif" font-size="10.00">web::http::client::</text>
<text xml:space="preserve" text-anchor="middle" x="1152.88" y="-72.25" font-family="Helvetica,sans-Serif" font-size="10.00">MasterRequest::onSourceError</text>
</a>
</g>
</g>
<!-- Node1&#45;&gt;Node19 -->
<g id="edge20_Node000001_Node000019" class="edge">
<title>Node1&#45;&gt;Node19</title>
<g id="a_edge20_Node000001_Node000019"><a xlink:title=" ">
<path fill="none" stroke="#63b8ff" d="M1259.19,-95.07C1251.16,-94.05 1243.11,-93.03 1235.23,-92.04"/>
<polygon fill="#63b8ff" stroke="#63b8ff" points="1258.64,-98.53 1269,-96.31 1259.52,-91.58 1258.64,-98.53"/>
</a>
</g>
</g>
<!-- Node3 -->
<g id="Node000003" class="node">
<title>Node3</title>
<g id="a_Node000003"><a xlink:href="classweb_1_1http_1_1client_1_1SocketContext.html#a640d648c8eaf71a0cc9c32fc19a060e5" target="_top" xlink:title=" ">
<polygon fill="white" stroke="#666666" points="1035,-189.5 868.25,-189.5 868.25,-156 1035,-156 1035,-189.5"/>
<text xml:space="preserve" text-anchor="start" x="876.25" y="-176" font-family="Helvetica,sans-Serif" font-size="10.00">web::http::client::</text>
<text xml:space="preserve" text-anchor="middle" x="951.62" y="-163.25" font-family="Helvetica,sans-Serif" font-size="10.00">SocketContext::initiateRequest</text>
</a>
</g>
</g>
<!-- Node2&#45;&gt;Node3 -->
<g id="edge2_Node000002_Node000003" class="edge">
<title>Node2&#45;&gt;Node3</title>
<g id="a_edge2_Node000002_Node000003"><a xlink:title=" ">
<path fill="none" stroke="#63b8ff" d="M1075.97,-180.8C1062.7,-179.93 1048.82,-179.03 1035.37,-178.15"/>
<polygon fill="#63b8ff" stroke="#63b8ff" points="1075.74,-184.29 1085.95,-181.45 1076.2,-177.3 1075.74,-184.29"/>
</a>
</g>
</g>
<!-- Node3&#45;&gt;Node3 -->
<g id="edge3_Node000003_Node000003" class="edge">
<title>Node3&#45;&gt;Node3</title>
<g id="a_edge3_Node000003_Node000003"><a xlink:title=" ">
<path fill="none" stroke="#63b8ff" d="M985.42,-200.89C979.91,-204.85 968.65,-207.5 951.62,-207.5 921.36,-207.5 909.3,-199.12 915.45,-189.91"/>
<polygon fill="#63b8ff" stroke="#63b8ff" points="988.78,-201.91 987.48,-191.39 981.94,-200.42 988.78,-201.91"/>
</a>
</g>
</g>
<!-- Node4 -->
<g id="Node000004" class="node">
<title>Node4</title>
<g id="a_Node000004"><a xlink:href="classweb_1_1http_1_1client_1_1SocketContext.html#ad865f6d929fcda93d867369dbcb5451f" target="_top" xlink:title=" ">
<polygon fill="white" stroke="#666666" points="832.25,-250.5 649.75,-250.5 649.75,-217 832.25,-217 832.25,-250.5"/>
<text xml:space="preserve" text-anchor="start" x="657.75" y="-237" font-family="Helvetica,sans-Serif" font-size="10.00">web::http::client::</text>
<text xml:space="preserve" text-anchor="middle" x="741" y="-224.25" font-family="Helvetica,sans-Serif" font-size="10.00">SocketContext::requestCompleted</text>
</a>
</g>
</g>
<!-- Node3&#45;&gt;Node4 -->
<g id="edge4_Node000003_Node000004" class="edge">
<title>Node3&#45;&gt;Node4</title>
<g id="a_edge4_Node000003_Node000004"><a xlink:title=" ">
<path fill="none" stroke="#63b8ff" d="M880.77,-193.17C854.82,-200.76 825.67,-209.29 800.8,-216.56"/>
<polygon fill="#63b8ff" stroke="#63b8ff" points="881.61,-196.58 890.23,-190.41 879.64,-189.86 881.61,-196.58"/>
</a>
</g>
</g>
<!-- Node7 -->
<g id="Node000007" class="node">
<title>Node7</title>
<g id="a_Node000007"><a xlink:href="classweb_1_1http_1_1client_1_1SocketContext.html#a87af7659934d282633c82e9f77301128" target="_top" xlink:title=" ">
<polygon fill="white" stroke="#666666" points="829.25,-101.5 652.75,-101.5 652.75,-68 829.25,-68 829.25,-101.5"/>
<text xml:space="preserve" text-anchor="start" x="660.75" y="-88" font-family="Helvetica,sans-Serif" font-size="10.00">web::http::client::</text>
<text xml:space="preserve" text-anchor="middle" x="741" y="-75.25" font-family="Helvetica,sans-Serif" font-size="10.00">SocketContext::requestDelivered</text>
</a>
</g>
</g>
<!-- Node3&#45;&gt;Node7 -->
<g id="edge7_Node000003_Node000007" class="edge">
<title>Node3&#45;&gt;Node7</title>
<g id="a_edge7_Node000003_Node000007"><a xlink:title=" ">
<path fill="none" stroke="#63b8ff" d="M899.61,-151.23C863.62,-136.05 816.05,-115.98 782.62,-101.88"/>
<polygon fill="#63b8ff" stroke="#63b8ff" points="897.94,-154.32 908.51,-154.99 900.66,-147.87 897.94,-154.32"/>
</a>
</g>
</g>
<!-- Node8 -->
<g id="Node000008" class="node">
<title>Node8</title>
<g id="a_Node000008"><a xlink:href="classweb_1_1http_1_1client_1_1SocketContext.html#a7b752e9901ca5658a74ba51978301fe0" target="_top" xlink:title=" ">
<polygon fill="white" stroke="#666666" points="827.38,-177.5 654.62,-177.5 654.62,-144 827.38,-144 827.38,-177.5"/>
<text xml:space="preserve" text-anchor="start" x="662.62" y="-164" font-family="Helvetica,sans-Serif" font-size="10.00">web::http::client::</text>
<text xml:space="preserve" text-anchor="middle" x="741" y="-151.25" font-family="Helvetica,sans-Serif" font-size="10.00">SocketContext::requestPrepared</text>
</a>
</g>
</g>
<!-- Node3&#45;&gt;Node8 -->
<g id="edge9_Node000003_Node000008" class="edge">
<title>Node3&#45;&gt;Node8</title>
<g id="a_edge9_Node000003_Node000008"><a xlink:title=" ">
<path fill="none" stroke="#63b8ff" d="M856.64,-167.34C847.01,-166.79 837.27,-166.23 827.73,-165.68"/>
<polygon fill="#63b8ff" stroke="#63b8ff" points="856.18,-170.82 866.36,-167.9 856.58,-163.83 856.18,-170.82"/>
</a>
</g>
</g>
<!-- Node5 -->
<g id="Node000005" class="node">
<title>Node5</title>
<g id="a_Node000005"><a xlink:href="classweb_1_1http_1_1client_1_1SocketContext.html#aaaae1a9b5592c119fcaaf91bbe9631a1" target="_top" xlink:title=" ">
<polygon fill="white" stroke="#666666" points="612.62,-261.5 439.12,-261.5 439.12,-228 612.62,-228 612.62,-261.5"/>
<text xml:space="preserve" text-anchor="start" x="447.12" y="-248" font-family="Helvetica,sans-Serif" font-size="10.00">web::http::client::</text>
<text xml:space="preserve" text-anchor="middle" x="525.88" y="-235.25" font-family="Helvetica,sans-Serif" font-size="10.00">SocketContext::deliverResponse</text>
</a>
</g>
</g>
<!-- Node4&#45;&gt;Node5 -->
<g id="edge5_Node000004_Node000005" class="edge">
<title>Node4&#45;&gt;Node5</title>
<g id="a_edge5_Node000004_Node000005"><a xlink:title=" ">
<path fill="none" stroke="#63b8ff" d="M637.99,-239.02C629.65,-239.45 621.28,-239.88 613.08,-240.3"/>
<polygon fill="#63b8ff" stroke="#63b8ff" points="637.99,-242.52 647.8,-238.51 637.63,-235.53 637.99,-242.52"/>
</a>
</g>
</g>
<!-- Node6 -->
<g id="Node000006" class="node">
<title>Node6</title>
<g id="a_Node000006"><a xlink:href="classweb_1_1http_1_1client_1_1SocketContext.html#a3ae7028195097c8a39e6f94633a5e26c" target="_top" xlink:title=" ">
<polygon fill="white" stroke="#666666" points="402,-305.5 231.5,-305.5 231.5,-272 402,-272 402,-305.5"/>
<text xml:space="preserve" text-anchor="start" x="239.5" y="-292" font-family="Helvetica,sans-Serif" font-size="10.00">web::http::client::</text>
<text xml:space="preserve" text-anchor="middle" x="316.75" y="-279.25" font-family="Helvetica,sans-Serif" font-size="10.00">SocketContext::onDisconnected</text>
</a>
</g>
</g>
<!-- Node5&#45;&gt;Node6 -->
<g id="edge6_Node000005_Node000006" class="edge">
<title>Node5&#45;&gt;Node6</title>
<g id="a_edge6_Node000005_Node000006"><a xlink:title=" ">
<path fill="none" stroke="#63b8ff" d="M432.66,-264.34C421.32,-266.75 409.81,-269.19 398.66,-271.56"/>
<polygon fill="#63b8ff" stroke="#63b8ff" points="433.37,-267.77 442.42,-262.27 431.92,-260.92 433.37,-267.77"/>
</a>
</g>
</g>
<!-- Node7&#45;&gt;Node1 -->
<g id="edge8_Node000007_Node000001" class="edge">
<title>Node7&#45;&gt;Node1</title>
<g id="a_edge8_Node000007_Node000001"><a xlink:title=" ">
<path fill="none" stroke="#63b8ff" d="M833.91,-65.5C933.61,-47.82 1097,-28.19 1234.75,-55.75 1268,-62.4 1303.46,-78.11 1328.04,-90.54"/>
<polygon fill="#63b8ff" stroke="#63b8ff" points="833.37,-62.04 824.16,-67.26 834.62,-68.93 833.37,-62.04"/>
</a>
</g>
</g>
<!-- Node9 -->
<g id="Node000009" class="node">
<title>Node9</title>
<g id="a_Node000009"><a xlink:href="classweb_1_1http_1_1client_1_1MasterRequest.html#a7bcb27a39949c01db17e7335f6eca524" target="_top" xlink:title=" ">
<polygon fill="white" stroke="#666666" points="613.75,-166.5 438,-166.5 438,-133 613.75,-133 613.75,-166.5"/>
<text xml:space="preserve" text-anchor="start" x="446" y="-153" font-family="Helvetica,sans-Serif" font-size="10.00">web::http::client::</text>
<text xml:space="preserve" text-anchor="middle" x="525.88" y="-140.25" font-family="Helvetica,sans-Serif" font-size="10.00">MasterRequest::requestPrepared</text>
</a>
</g>
</g>
<!-- Node8&#45;&gt;Node9 -->
<g id="edge10_Node000008_Node000009" class="edge">
<title>Node8&#45;&gt;Node9</title>
<g id="a_edge10_Node000008_Node000009"><a xlink:title=" ">
<path fill="none" stroke="#63b8ff" d="M643.02,-155.74C633.42,-155.25 623.7,-154.75 614.2,-154.26"/>
<polygon fill="#63b8ff" stroke="#63b8ff" points="642.56,-159.23 652.72,-156.25 642.92,-152.23 642.56,-159.23"/>
</a>
</g>
</g>
<!-- Node10 -->
<g id="Node000010" class="node">
<title>Node10</title>
<g id="a_Node000010"><a xlink:href="classweb_1_1http_1_1client_1_1MasterRequest.html#adadd049ccf51366ea5a63670c3e0f671" target="_top" xlink:title=" ">
<polygon fill="white" stroke="#666666" points="373.5,-253.5 260,-253.5 260,-220 373.5,-220 373.5,-253.5"/>
<text xml:space="preserve" text-anchor="start" x="268" y="-240" font-family="Helvetica,sans-Serif" font-size="10.00">web::http::client::</text>
<text xml:space="preserve" text-anchor="middle" x="316.75" y="-227.25" font-family="Helvetica,sans-Serif" font-size="10.00">MasterRequest::end</text>
</a>
</g>
</g>
<!-- Node9&#45;&gt;Node10 -->
<g id="edge11_Node000009_Node000010" class="edge">
<title>Node9&#45;&gt;Node10</title>
<g id="a_edge11_Node000009_Node000010"><a xlink:title=" ">
<path fill="none" stroke="#63b8ff" d="M483.73,-172.26C460.22,-184.59 429.94,-199.59 402,-210.75 393.04,-214.33 383.39,-217.72 373.93,-220.8"/>
<polygon fill="#63b8ff" stroke="#63b8ff" points="485.16,-175.47 492.36,-167.69 481.88,-169.28 485.16,-175.47"/>
</a>
</g>
</g>
<!-- Node11 -->
<g id="Node000011" class="node">
<title>Node11</title>
<g id="a_Node000011"><a xlink:href="classweb_1_1http_1_1client_1_1MasterRequest.html#a6bea9923e6702647a912b8dbba9deee6" target="_top" xlink:title=" ">
<polygon fill="white" stroke="#666666" points="396.75,-201.88 236.75,-201.88 236.75,-155.62 396.75,-155.62 396.75,-201.88"/>
<text xml:space="preserve" text-anchor="start" x="244.75" y="-188.38" font-family="Helvetica,sans-Serif" font-size="10.00">web::http::client::</text>
<text xml:space="preserve" text-anchor="start" x="244.75" y="-175.62" font-family="Helvetica,sans-Serif" font-size="10.00">MasterRequest::requestEvent</text>
<text xml:space="preserve" text-anchor="middle" x="316.75" y="-162.88" font-family="Helvetica,sans-Serif" font-size="10.00">Source</text>
</a>
</g>
</g>
<!-- Node9&#45;&gt;Node11 -->
<g id="edge12_Node000009_Node000011" class="edge">
<title>Node9&#45;&gt;Node11</title>
<g id="a_edge12_Node000009_Node000011"><a xlink:title=" ">
<path fill="none" stroke="#63b8ff" d="M426.51,-163.52C416.61,-164.91 406.64,-166.3 396.98,-167.66"/>
<polygon fill="#63b8ff" stroke="#63b8ff" points="426.72,-167.03 436.14,-162.17 425.75,-160.09 426.72,-167.03"/>
</a>
</g>
</g>
<!-- Node12 -->
<g id="Node000012" class="node">
<title>Node12</title>
<g id="a_Node000012"><a xlink:href="classweb_1_1http_1_1client_1_1MasterRequest.html#a50b4f77fed0f7228c54acbfc6ebc24ef" target="_top" xlink:title=" ">
<polygon fill="white" stroke="#666666" points="376.12,-137.5 257.38,-137.5 257.38,-104 376.12,-104 376.12,-137.5"/>
<text xml:space="preserve" text-anchor="start" x="265.38" y="-124" font-family="Helvetica,sans-Serif" font-size="10.00">web::http::client::</text>
<text xml:space="preserve" text-anchor="middle" x="316.75" y="-111.25" font-family="Helvetica,sans-Serif" font-size="10.00">MasterRequest::send</text>
</a>
</g>
</g>
<!-- Node9&#45;&gt;Node12 -->
<g id="edge13_Node000009_Node000012" class="edge">
<title>Node9&#45;&gt;Node12</title>
<g id="a_edge13_Node000009_Node000012"><a xlink:title=" ">
<path fill="none" stroke="#63b8ff" d="M426.42,-135.97C409.29,-133.57 391.97,-131.14 376.35,-128.95"/>
<polygon fill="#63b8ff" stroke="#63b8ff" points="425.75,-139.41 436.14,-137.33 426.72,-132.47 425.75,-139.41"/>
</a>
</g>
</g>
<!-- Node15 -->
<g id="Node000015" class="node">
<title>Node15</title>
<g id="a_Node000015"><a xlink:href="classweb_1_1http_1_1client_1_1MasterRequest.html#a9bce09ab1ebed2475f94a3505abe8662" target="_top" xlink:title=" ">
<polygon fill="white" stroke="#666666" points="384.38,-85.5 249.12,-85.5 249.12,-52 384.38,-52 384.38,-85.5"/>
<text xml:space="preserve" text-anchor="start" x="257.12" y="-72" font-family="Helvetica,sans-Serif" font-size="10.00">web::http::client::</text>
<text xml:space="preserve" text-anchor="middle" x="316.75" y="-59.25" font-family="Helvetica,sans-Serif" font-size="10.00">MasterRequest::sendFile</text>
</a>
</g>
</g>
<!-- Node9&#45;&gt;Node15 -->
<g id="edge16_Node000009_Node000015" class="edge">
<title>Node9&#45;&gt;Node15</title>
<g id="a_edge16_Node000009_Node000015"><a xlink:title=" ">
<path fill="none" stroke="#63b8ff" d="M479.47,-127.84C456.52,-117.17 428.08,-104.57 402,-94.75 393.83,-91.68 385.13,-88.68 376.53,-85.88"/>
<polygon fill="#63b8ff" stroke="#63b8ff" points="477.69,-130.87 488.23,-131.94 480.66,-124.53 477.69,-130.87"/>
</a>
</g>
</g>
<!-- Node16 -->
<g id="Node000016" class="node">
<title>Node16</title>
<g id="a_Node000016"><a xlink:href="classweb_1_1http_1_1client_1_1MasterRequest.html#a928c1cf1c0d6e4ede9a4263b60a253a9" target="_top" xlink:title=" ">
<polygon fill="white" stroke="#666666" points="384.38,-33.5 249.12,-33.5 249.12,0 384.38,0 384.38,-33.5"/>
<text xml:space="preserve" text-anchor="start" x="257.12" y="-20" font-family="Helvetica,sans-Serif" font-size="10.00">web::http::client::</text>
<text xml:space="preserve" text-anchor="middle" x="316.75" y="-7.25" font-family="Helvetica,sans-Serif" font-size="10.00">MasterRequest::upgrade</text>
</a>
</g>
</g>
<!-- Node9&#45;&gt;Node16 -->
<g id="edge17_Node000009_Node000016" class="edge">
<title>Node9&#45;&gt;Node16</title>
<g id="a_edge17_Node000009_Node000016"><a xlink:title=" ">
<path fill="none" stroke="#63b8ff" d="M502.04,-124.51C478.96,-100.39 441.18,-64.56 402,-42.75 396.11,-39.47 389.76,-36.56 383.28,-33.97"/>
<polygon fill="#63b8ff" stroke="#63b8ff" points="499.42,-126.83 508.82,-131.72 504.52,-122.04 499.42,-126.83"/>
</a>
</g>
</g>
<!-- Node13 -->
<g id="Node000013" class="node">
<title>Node13</title>
<g id="a_Node000013"><a xlink:href="classweb_1_1http_1_1client_1_1MasterRequest.html#a33efb21bfcb445dca2554117aea81e66" target="_top" xlink:title=" ">
<polygon fill="white" stroke="#666666" points="195.5,-137.5 76.75,-137.5 76.75,-104 195.5,-104 195.5,-137.5"/>
<text xml:space="preserve" text-anchor="start" x="84.75" y="-124" font-family="Helvetica,sans-Serif" font-size="10.00">web::http::client::</text>
<text xml:space="preserve" text-anchor="middle" x="136.12" y="-111.25" font-family="Helvetica,sans-Serif" font-size="10.00">MasterRequest::send</text>
</a>
</g>
</g>
<!-- Node12&#45;&gt;Node13 -->
<g id="edge14_Node000012_Node000013" class="edge">
<title>Node12&#45;&gt;Node13</title>
<g id="a_edge14_Node000012_Node000013"><a xlink:title=" ">
<path fill="none" stroke="#63b8ff" d="M245.95,-120.75C229.34,-120.75 211.79,-120.75 195.74,-120.75"/>
<polygon fill="#63b8ff" stroke="#63b8ff" points="245.75,-124.25 255.75,-120.75 245.75,-117.25 245.75,-124.25"/>
</a>
</g>
</g>
<!-- Node14 -->
<g id="Node000014" class="node">
<title>Node14</title>
<g id="a_Node000014"><a xlink:href="jsonclient_8cpp.html#a0ddf1224851353fc92bfbff6f499fa97" target="_top" xlink:title=" ">
<polygon fill="white" stroke="#666666" points="40.75,-131.12 0,-131.12 0,-110.38 40.75,-110.38 40.75,-131.12"/>
<text xml:space="preserve" text-anchor="middle" x="20.38" y="-117.62" font-family="Helvetica,sans-Serif" font-size="10.00">main</text>
</a>
</g>
</g>
<!-- Node13&#45;&gt;Node14 -->
<g id="edge15_Node000013_Node000014" class="edge">
<title>Node13&#45;&gt;Node14</title>
<g id="a_edge15_Node000013_Node000014"><a xlink:title=" ">
<path fill="none" stroke="#63b8ff" d="M64.76,-120.75C56.16,-120.75 48,-120.75 41.12,-120.75"/>
<polygon fill="#63b8ff" stroke="#63b8ff" points="64.74,-124.25 74.74,-120.75 64.74,-117.25 64.74,-124.25"/>
</a>
</g>
</g>
<!-- Node17 -->
<g id="Node000017" class="node">
<title>Node17</title>
<g id="a_Node000017"><a xlink:href="websocket_2echoclient_8cpp.html#a0ddf1224851353fc92bfbff6f499fa97" target="_top" xlink:title=" ">
<polygon fill="white" stroke="#666666" points="156.5,-27.12 115.75,-27.12 115.75,-6.38 156.5,-6.38 156.5,-27.12"/>
<text xml:space="preserve" text-anchor="middle" x="136.12" y="-13.62" font-family="Helvetica,sans-Serif" font-size="10.00">main</text>
</a>
</g>
</g>
<!-- Node16&#45;&gt;Node17 -->
<g id="edge18_Node000016_Node000017" class="edge">
<title>Node16&#45;&gt;Node17</title>
<g id="a_edge18_Node000016_Node000017"><a xlink:title=" ">
<path fill="none" stroke="#63b8ff" d="M237.42,-16.75C207.63,-16.75 176.19,-16.75 156.62,-16.75"/>
<polygon fill="#63b8ff" stroke="#63b8ff" points="237.21,-20.25 247.21,-16.75 237.21,-13.25 237.21,-20.25"/>
</a>
</g>
</g>
</g>
</svg>

<g id="navigator" transform="translate(0 0)" fill="#404254">
  <rect fill="#f2f5e9" fill-opacity="0.5" stroke="#606060" stroke-width=".5" x="0" y="0" width="60" height="60"/>
  <use id="zoomplus" xlink:href="#zoomPlus" x="17" y="9" onmousedown="handleZoom(evt,'in')"/>
  <use id="zoomminus" xlink:href="#zoomMin" x="42" y="9" onmousedown="handleZoom(evt,'out')"/>
  <use id="reset" xlink:href="#resetDef" x="30" y="36" onmousedown="handleReset()"/>
   <use id="arrowup" xlink:href="#arrowUp" x="0" y="0" onmousedown="handlePan(0,-1)"/>
  <use id="arrowright" xlink:href="#arrowRight" x="0" y="0" onmousedown="handlePan(1,0)"/>
  <use id="arrowdown" xlink:href="#arrowDown" x="0" y="0" onmousedown="handlePan(0,1)"/>
  <use id="arrowleft" xlink:href="#arrowLeft" x="0" y="0" onmousedown="handlePan(-1,0)"/>
</g>
<svg viewBox="0 0 15 15" width="100%" height="30px" preserveAspectRatio="xMaxYMin meet">
 <g id="arrow_out" transform="scale(0.3 0.3)">
  <a xlink:href="classweb_1_1http_1_1client_1_1MasterRequest_a91801b8da2708788c712709cd7cdca2b_icgraph_org.svg" target="_base">
   <rect id="button" ry="5" rx="5" y="6" x="6" height="38" width="38"
        fill="#f2f5e9" fill-opacity="0.5" stroke="#606060" stroke-width="1.0"/>
   <path id="arrow"
     d="M 11.500037,31.436501 C 11.940474,20.09759 22.043105,11.32322 32.158766,21.979434 L 37.068811,17.246167 C 37.068811,17.246167 37.088388,32 37.088388,32 L 22.160133,31.978069 C 22.160133,31.978069 26.997745,27.140456 26.997745,27.140456 C 18.528582,18.264221 13.291696,25.230495 11.500037,31.436501 z"
     style="fill:#404040;"/>
  </a>
 </g>
</svg>

<style type='text/css'>
<![CDATA[
[data-mouse-over-selected='false'] { opacity: 0.7; }
[data-mouse-over-selected='true']  { opacity: 1.0; }
]]>
</style>
<script type="application/ecmascript"><![CDATA[
document.addEventListener('DOMContentLoaded', (event) => {
  highlightEdges();
  highlightAdjacentNodes();
});
]]></script>
</svg>
