<?xml version="1.0" encoding="UTF-8" standalone="no"?>
<!DOCTYPE svg PUBLIC "-//W3C//DTD SVG 1.1//EN"
 "http://www.w3.org/Graphics/SVG/1.1/DTD/svg11.dtd">
<!-- Generated by graphviz version 14.1.1 (0)
 -->
<!-- Title: net::un::stream::config::ConfigSocketClient Pages: 1 -->
<!--zoomable 811 -->

<svg id="main" version="1.1" xmlns="http://www.w3.org/2000/svg" xmlns:xlink="http://www.w3.org/1999/xlink" xml:space="preserve" onload="init(evt)">

<style type="text/css"><![CDATA[
.node, .edge {opacity: 0.7;}
.node.selected, .edge.selected {opacity: 1;}
.edge:hover path { stroke: red; }
.edge:hover polygon { stroke: red; fill: red; }
]]></style>

<defs>
  <circle id="rim" cx="0" cy="0" r="7"/>
  <circle id="rim2" cx="0" cy="0" r="3.5"/>
  <g id="zoomPlus">
    <use xlink:href="#rim" fill="#404040"><set attributeName="fill" to="#808080" begin="zoomplus.mouseover" end="zoomplus.mouseout"/></use>
    <path d="M-4,0h8M0,-4v8" fill="none" stroke="white" stroke-width="1.5" pointer-events="none"/>
  </g>
  <g id="zoomMin">
    <use xlink:href="#rim" fill="#404040"><set attributeName="fill" to="#808080" begin="zoomminus.mouseover" end="zoomminus.mouseout"/></use>
    <path d="M-4,0h8" fill="none" stroke="white" stroke-width="1.5" pointer-events="none"/>
  </g>
  <g id="arrowUp" transform="translate(30 24)">
    <use xlink:href="#rim"/>
    <path pointer-events="none" fill="none" stroke="white" stroke-width="1.5" d="M0,-3.0v7 M-2.5,-0.5L0,-3.0L2.5,-0.5"/>
  </g>
  <g id="arrowRight" transform="rotate(90) translate(36 -43)">
    <use xlink:href="#rim"/>
    <path pointer-events="none" fill="none" stroke="white" stroke-width="1.5" d="M0,-3.0v7 M-2.5,-0.5L0,-3.0L2.5,-0.5"/>
  </g>
  <g id="arrowDown" transform="rotate(180) translate(-30 -48)">
    <use xlink:href="#rim"/>
    <path pointer-events="none" fill="none" stroke="white" stroke-width="1.5" d="M0,-3.0v7 M-2.5,-0.5L0,-3.0L2.5,-0.5"/>
  </g>
  <g id="arrowLeft" transform="rotate(270) translate(-36 17)">
    <use xlink:href="#rim"/>
    <path pointer-events="none" fill="none" stroke="white" stroke-width="1.5" d="M0,-3.0v7 M-2.5,-0.5L0,-3.0L2.5,-0.5"/>
  </g>
  <g id="resetDef">
    <use xlink:href="#rim2" fill="#404040"><set attributeName="fill" to="#808080" begin="reset.mouseover" end="reset.mouseout"/></use>
  </g>
</defs>
<script type="application/ecmascript">
var viewWidth = 710;
var viewHeight = 811;
var sectionId = 'dynsection-1';
</script>
<script type="application/ecmascript" xlink:href="svg.min.js"/>
<svg id="graph" class="graph">
<g id="viewport">
<title>net::un::stream::config::ConfigSocketClient</title>
<!-- Node1 -->
<g id="Node000001" class="node">
<title>Node1</title>
<g id="a_Node000001"><a xlink:title=" ">
<polygon fill="#999999" stroke="none" points="344.88,-33.5 226.62,-33.5 226.62,0 344.88,0 344.88,-33.5"/>
<text xml:space="preserve" text-anchor="start" x="230.62" y="-20" font-family="Helvetica,sans-Serif" font-size="10.00">net::un::stream::config</text>
<text xml:space="preserve" text-anchor="start" x="236.62" y="-7.25" font-family="Helvetica,sans-Serif" font-size="10.00">::ConfigSocketClient</text>
<polygon fill="none" stroke="#666666" points="226.62,0 226.62,-33.5 344.88,-33.5 344.88,0 226.62,0"/>
</a>
</g>
</g>
<!-- Node2 -->
<g id="Node000002" class="node">
<title>Node2</title>
<g id="a_Node000002"><a xlink:href="classnet_1_1config_1_1stream_1_1ConfigSocketClient.html" target="_top" xlink:title=" ">
<polygon fill="white" stroke="none" points="374.12,-116.75 197.38,-116.75 197.38,-70.5 374.12,-70.5 374.12,-116.75"/>
<text xml:space="preserve" text-anchor="start" x="201.38" y="-103.25" font-family="Helvetica,sans-Serif" font-size="10.00">net::config::stream</text>
<text xml:space="preserve" text-anchor="start" x="201.38" y="-90.5" font-family="Helvetica,sans-Serif" font-size="10.00">::ConfigSocketClient</text>
<text xml:space="preserve" text-anchor="start" x="201.38" y="-77.75" font-family="Helvetica,sans-Serif" font-size="10.00">&lt; net::un::config::ConfigAddress &gt;</text>
<polygon fill="none" stroke="#666666" points="197.38,-70.5 197.38,-116.75 374.12,-116.75 374.12,-70.5 197.38,-70.5"/>
</a>
</g>
</g>
<!-- Node2&#45;&gt;Node1 -->
<g id="edge1_Node000001_Node000002" class="edge">
<title>Node2&#45;&gt;Node1</title>
<g id="a_edge1_Node000001_Node000002"><a xlink:title=" ">
<path fill="none" stroke="#63b8ff" d="M285.75,-59.16C285.75,-50.21 285.75,-40.96 285.75,-33.48"/>
<polygon fill="none" stroke="#63b8ff" points="282.25,-59.05 285.75,-69.05 289.25,-59.05 282.25,-59.05"/>
</a>
</g>
</g>
<!-- Node3 -->
<g id="Node000003" class="node">
<title>Node3</title>
<g id="a_Node000003"><a xlink:href="classnet_1_1un_1_1config_1_1ConfigAddress.html" target="_top" xlink:title=" ">
<polygon fill="white" stroke="none" points="499.25,-187.25 302.25,-187.25 302.25,-153.75 499.25,-153.75 499.25,-187.25"/>
<text xml:space="preserve" text-anchor="start" x="306.25" y="-173.75" font-family="Helvetica,sans-Serif" font-size="10.00">net::un::config::ConfigAddress</text>
<text xml:space="preserve" text-anchor="start" x="306.25" y="-161" font-family="Helvetica,sans-Serif" font-size="10.00">&lt; net::config::ConfigAddressRemote &gt;</text>
<polygon fill="none" stroke="#666666" points="302.25,-153.75 302.25,-187.25 499.25,-187.25 499.25,-153.75 302.25,-153.75"/>
</a>
</g>
</g>
<!-- Node3&#45;&gt;Node2 -->
<g id="edge2_Node000002_Node000003" class="edge">
<title>Node3&#45;&gt;Node2</title>
<g id="a_edge2_Node000002_Node000003"><a xlink:title=" ">
<path fill="none" stroke="#63b8ff" d="M367.2,-147.66C352.17,-137.87 334.47,-126.35 319.42,-116.55"/>
<polygon fill="none" stroke="#63b8ff" points="365.08,-150.45 375.37,-152.98 368.9,-144.59 365.08,-150.45"/>
</a>
</g>
</g>
<!-- Node4 -->
<g id="Node000004" class="node">
<title>Node4</title>
<g id="a_Node000004"><a xlink:href="classnet_1_1config_1_1ConfigAddressRemote.html" target="_top" xlink:title=" ">
<polygon fill="white" stroke="none" points="496.62,-257.75 316.88,-257.75 316.88,-224.25 496.62,-224.25 496.62,-257.75"/>
<text xml:space="preserve" text-anchor="start" x="320.88" y="-244.25" font-family="Helvetica,sans-Serif" font-size="10.00">net::config::ConfigAddress</text>
<text xml:space="preserve" text-anchor="start" x="320.88" y="-231.5" font-family="Helvetica,sans-Serif" font-size="10.00">Remote&lt; net::un::SocketAddress &gt;</text>
<polygon fill="none" stroke="#666666" points="316.88,-224.25 316.88,-257.75 496.62,-257.75 496.62,-224.25 316.88,-224.25"/>
</a>
</g>
</g>
<!-- Node4&#45;&gt;Node3 -->
<g id="edge3_Node000003_Node000004" class="edge">
<title>Node4&#45;&gt;Node3</title>
<g id="a_edge3_Node000003_Node000004"><a xlink:title=" ">
<path fill="none" stroke="#63b8ff" d="M404.39,-213.05C403.61,-204.21 402.78,-194.68 402.11,-186.98"/>
<polygon fill="none" stroke="#63b8ff" points="400.9,-213.29 405.26,-222.95 407.87,-212.68 400.9,-213.29"/>
</a>
</g>
</g>
<!-- Node5 -->
<g id="Node000005" class="node">
<title>Node5</title>
<g id="a_Node000005"><a xlink:href="classnet_1_1config_1_1ConfigAddress.html" target="_top" xlink:title=" ">
<polygon fill="white" stroke="none" points="618.5,-360.75 477,-360.75 477,-327.25 618.5,-327.25 618.5,-360.75"/>
<text xml:space="preserve" text-anchor="start" x="481" y="-347.25" font-family="Helvetica,sans-Serif" font-size="10.00">net::config::ConfigAddress</text>
<text xml:space="preserve" text-anchor="start" x="481" y="-334.5" font-family="Helvetica,sans-Serif" font-size="10.00">&lt; net::un::SocketAddress &gt;</text>
<polygon fill="none" stroke="#666666" points="477,-327.25 477,-360.75 618.5,-360.75 618.5,-327.25 477,-327.25"/>
</a>
</g>
</g>
<!-- Node5&#45;&gt;Node4 -->
<g id="edge4_Node000004_Node000005" class="edge">
<title>Node5&#45;&gt;Node4</title>
<g id="a_edge4_Node000004_Node000005"><a xlink:title=" ">
<path fill="none" stroke="#63b8ff" d="M516.76,-320.8C490.12,-301.72 452.36,-274.67 428.73,-257.74"/>
<polygon fill="none" stroke="#63b8ff" points="514.63,-323.58 524.8,-326.56 518.71,-317.89 514.63,-323.58"/>
</a>
</g>
</g>
<!-- Node15 -->
<g id="Node000015" class="node">
<title>Node15</title>
<g id="a_Node000015"><a xlink:href="classnet_1_1config_1_1ConfigAddressLocal.html" target="_top" xlink:title=" ">
<polygon fill="white" stroke="none" points="690.25,-257.75 523.25,-257.75 523.25,-224.25 690.25,-224.25 690.25,-257.75"/>
<text xml:space="preserve" text-anchor="start" x="527.25" y="-244.25" font-family="Helvetica,sans-Serif" font-size="10.00">net::config::ConfigAddress</text>
<text xml:space="preserve" text-anchor="start" x="527.25" y="-231.5" font-family="Helvetica,sans-Serif" font-size="10.00">Local&lt; net::un::SocketAddress &gt;</text>
<polygon fill="none" stroke="#666666" points="523.25,-224.25 523.25,-257.75 690.25,-257.75 690.25,-224.25 523.25,-224.25"/>
</a>
</g>
</g>
<!-- Node5&#45;&gt;Node15 -->
<g id="edge16_Node000015_Node000005" class="edge">
<title>Node5&#45;&gt;Node15</title>
<g id="a_edge16_Node000015_Node000005"><a xlink:title=" ">
<path fill="none" stroke="#63b8ff" d="M562.41,-317.9C573.48,-298.95 588.32,-273.56 597.7,-257.48"/>
<polygon fill="none" stroke="#63b8ff" points="559.5,-315.95 557.47,-326.35 565.54,-319.48 559.5,-315.95"/>
</a>
</g>
</g>
<!-- Node6 -->
<g id="Node000006" class="node">
<title>Node6</title>
<g id="a_Node000006"><a xlink:href="classnet_1_1config_1_1ConfigAddressBase.html" target="_top" xlink:title=" ">
<polygon fill="white" stroke="none" points="556.5,-451 391,-451 391,-417.5 556.5,-417.5 556.5,-451"/>
<text xml:space="preserve" text-anchor="start" x="395" y="-437.5" font-family="Helvetica,sans-Serif" font-size="10.00">net::config::ConfigAddress</text>
<text xml:space="preserve" text-anchor="start" x="395" y="-424.75" font-family="Helvetica,sans-Serif" font-size="10.00">Base&lt; net::un::SocketAddress &gt;</text>
<polygon fill="none" stroke="#666666" points="391,-417.5 391,-451 556.5,-451 556.5,-417.5 391,-417.5"/>
</a>
</g>
</g>
<!-- Node6&#45;&gt;Node5 -->
<g id="edge5_Node000005_Node000006" class="edge">
<title>Node6&#45;&gt;Node5</title>
<g id="a_edge5_Node000005_Node000006"><a xlink:title=" ">
<path fill="none" stroke="#63b8ff" d="M493.83,-409.3C506.85,-393.77 523.44,-373.99 534.76,-360.49"/>
<polygon fill="none" stroke="#63b8ff" points="491.36,-406.81 487.61,-416.72 496.72,-411.3 491.36,-406.81"/>
</a>
</g>
</g>
<!-- Node7 -->
<g id="Node000007" class="node">
<title>Node7</title>
<g id="a_Node000007"><a xlink:href="classnet_1_1config_1_1ConfigSection.html" target="_top" xlink:title=" ">
<polygon fill="white" stroke="none" points="374.38,-539.25 241.12,-539.25 241.12,-518.5 374.38,-518.5 374.38,-539.25"/>
<text xml:space="preserve" text-anchor="start" x="245.12" y="-525.75" font-family="Helvetica,sans-Serif" font-size="10.00">net::config::ConfigSection</text>
<polygon fill="none" stroke="#666666" points="241.12,-518.5 241.12,-539.25 374.38,-539.25 374.38,-518.5 241.12,-518.5"/>
</a>
</g>
</g>
<!-- Node7&#45;&gt;Node6 -->
<g id="edge6_Node000006_Node000007" class="edge">
<title>Node7&#45;&gt;Node6</title>
<g id="a_edge6_Node000006_Node000007"><a xlink:title=" ">
<path fill="none" stroke="darkgreen" d="M334.19,-513.12C364.68,-496.11 414.61,-468.25 445.75,-450.87"/>
<polygon fill="none" stroke="darkgreen" points="332.62,-509.99 325.6,-517.92 336.03,-516.1 332.62,-509.99"/>
</a>
</g>
</g>
<!-- Node16 -->
<g id="Node000016" class="node">
<title>Node16</title>
<g id="a_Node000016"><a xlink:href="classnet_1_1config_1_1ConfigConnection.html" target="_top" xlink:title=" ">
<polygon fill="white" stroke="none" points="284.75,-399.5 132.75,-399.5 132.75,-378.75 284.75,-378.75 284.75,-399.5"/>
<text xml:space="preserve" text-anchor="start" x="136.75" y="-386" font-family="Helvetica,sans-Serif" font-size="10.00">net::config::ConfigConnection</text>
<polygon fill="none" stroke="#666666" points="132.75,-378.75 132.75,-399.5 284.75,-399.5 284.75,-378.75 132.75,-378.75"/>
</a>
</g>
</g>
<!-- Node7&#45;&gt;Node16 -->
<g id="edge18_Node000016_Node000007" class="edge">
<title>Node7&#45;&gt;Node16</title>
<g id="a_edge18_Node000016_Node000007"><a xlink:title=" ">
<path fill="none" stroke="darkgreen" d="M284.72,-511.9C266.19,-497.88 240.84,-475.89 225.75,-451 215.74,-434.49 211.46,-411.91 209.76,-399.41"/>
<polygon fill="none" stroke="darkgreen" points="282.59,-514.67 292.73,-517.76 286.72,-509.03 282.59,-514.67"/>
</a>
</g>
</g>
<!-- Node18 -->
<g id="Node000018" class="node">
<title>Node18</title>
<g id="a_Node000018"><a xlink:href="classnet_1_1config_1_1ConfigPhysicalSocket.html" target="_top" xlink:title=" ">
<polygon fill="white" stroke="none" points="372.62,-451 234.88,-451 234.88,-417.5 372.62,-417.5 372.62,-451"/>
<text xml:space="preserve" text-anchor="start" x="238.88" y="-437.5" font-family="Helvetica,sans-Serif" font-size="10.00">net::config::ConfigPhysical</text>
<text xml:space="preserve" text-anchor="start" x="287.62" y="-424.75" font-family="Helvetica,sans-Serif" font-size="10.00">Socket</text>
<polygon fill="none" stroke="#666666" points="234.88,-417.5 234.88,-451 372.62,-451 372.62,-417.5 234.88,-417.5"/>
</a>
</g>
</g>
<!-- Node7&#45;&gt;Node18 -->
<g id="edge21_Node000018_Node000007" class="edge">
<title>Node7&#45;&gt;Node18</title>
<g id="a_edge21_Node000018_Node000007"><a xlink:title=" ">
<path fill="none" stroke="darkgreen" d="M306.86,-507.19C306.12,-490.15 305.09,-466.35 304.42,-450.87"/>
<polygon fill="none" stroke="darkgreen" points="303.36,-507.3 307.29,-517.14 310.35,-507 303.36,-507.3"/>
</a>
</g>
</g>
<!-- Node8 -->
<g id="Node000008" class="node">
<title>Node8</title>
<g id="a_Node000008"><a xlink:href="classnet_1_1config_1_1ConfigInstance.html" target="_top" xlink:title=" ">
<polygon fill="white" stroke="none" points="451,-627.5 312.5,-627.5 312.5,-606.75 451,-606.75 451,-627.5"/>
<text xml:space="preserve" text-anchor="start" x="316.5" y="-614" font-family="Helvetica,sans-Serif" font-size="10.00">net::config::ConfigInstance</text>
<polygon fill="none" stroke="#666666" points="312.5,-606.75 312.5,-627.5 451,-627.5 451,-606.75 312.5,-606.75"/>
</a>
</g>
</g>
<!-- Node8&#45;&gt;Node7 -->
<g id="edge7_Node000007_Node000008" class="edge">
<title>Node8&#45;&gt;Node7</title>
<g id="a_edge7_Node000007_Node000008"><a xlink:title=" ">
<path fill="none" stroke="#63b8ff" d="M373.83,-606.89C361.98,-593.08 339.38,-566.74 323.94,-548.74"/>
<polygon fill="none" stroke="#63b8ff" points="324.01,-548.83 317.07,-546.88 316.2,-539.72 323.14,-541.67 324.01,-548.83"/>
</a>
</g>
<text xml:space="preserve" text-anchor="start" x="360.81" y="-576.25" font-family="Helvetica,sans-Serif" font-size="10.00" fill="grey">&#45;instance</text>
</g>
<!-- Node9 -->
<g id="Node000009" class="node">
<title>Node9</title>
<g id="a_Node000009"><a xlink:title=" ">
<polygon fill="white" stroke="none" points="433.12,-726.12 376.38,-726.12 376.38,-705.38 433.12,-705.38 433.12,-726.12"/>
<text xml:space="preserve" text-anchor="start" x="380.38" y="-712.62" font-family="Helvetica,sans-Serif" font-size="10.00">std::string</text>
<polygon fill="none" stroke="#666666" points="376.38,-705.38 376.38,-726.12 433.12,-726.12 433.12,-705.38 376.38,-705.38"/>
</a>
</g>
</g>
<!-- Node9&#45;&gt;Node8 -->
<g id="edge8_Node000008_Node000009" class="edge">
<title>Node9&#45;&gt;Node8</title>
<g id="a_edge8_Node000008_Node000009"><a xlink:title=" ">
<path fill="none" stroke="#63b8ff" d="M402.11,-705.62C400.18,-698.84 397.56,-689.38 395.5,-681 392.12,-667.28 388.72,-651.76 386.15,-639.58"/>
<polygon fill="none" stroke="#63b8ff" points="386.19,-639.75 381.05,-634.68 383.75,-628 388.88,-633.06 386.19,-639.75"/>
</a>
</g>
<text xml:space="preserve" text-anchor="start" x="398.5" y="-668.5" font-family="Helvetica,sans-Serif" font-size="10.00" fill="grey">&#45;instanceName</text>
<text xml:space="preserve" text-anchor="start" x="398.5" y="-651.75" font-family="Helvetica,sans-Serif" font-size="10.00" fill="grey">&#45;nameAnonymous</text>
</g>
<!-- Node11 -->
<g id="Node000011" class="node">
<title>Node11</title>
<g id="a_Node000011"><a xlink:href="classnet_1_1un_1_1SocketAddress.html" target="_top" xlink:title=" ">
<polygon fill="white" stroke="none" points="642.25,-627.5 523.25,-627.5 523.25,-606.75 642.25,-606.75 642.25,-627.5"/>
<text xml:space="preserve" text-anchor="start" x="527.25" y="-614" font-family="Helvetica,sans-Serif" font-size="10.00">net::un::SocketAddress</text>
<polygon fill="none" stroke="#666666" points="523.25,-606.75 523.25,-627.5 642.25,-627.5 642.25,-606.75 523.25,-606.75"/>
</a>
</g>
</g>
<!-- Node9&#45;&gt;Node11 -->
<g id="edge13_Node000011_Node000009" class="edge">
<title>Node9&#45;&gt;Node11</title>
<g id="a_edge13_Node000011_Node000009"><a xlink:title=" ">
<path fill="none" stroke="#63b8ff" d="M433.07,-706.51C450.45,-700.77 472.75,-692.15 490.75,-681 510.75,-668.61 510.68,-658.92 530,-645.5 536.27,-641.14 543.33,-637.02 550.19,-633.35"/>
<polygon fill="none" stroke="#63b8ff" points="550.25,-633.32 553.79,-627.04 560.95,-627.89 557.41,-634.17 550.25,-633.32"/>
</a>
</g>
<text xml:space="preserve" text-anchor="start" x="533" y="-660.12" font-family="Helvetica,sans-Serif" font-size="10.00" fill="grey">&#45;sunPath</text>
</g>
<!-- Node10 -->
<g id="Node000010" class="node">
<title>Node10</title>
<g id="a_Node000010"><a xlink:title=" ">
<polygon fill="white" stroke="none" points="452.62,-803 356.88,-803 356.88,-769.5 452.62,-769.5 452.62,-803"/>
<text xml:space="preserve" text-anchor="start" x="360.88" y="-789.5" font-family="Helvetica,sans-Serif" font-size="10.00">std::basic_string&lt;</text>
<text xml:space="preserve" text-anchor="start" x="386.38" y="-776.75" font-family="Helvetica,sans-Serif" font-size="10.00"> Char &gt;</text>
<polygon fill="none" stroke="#666666" points="356.88,-769.5 356.88,-803 452.62,-803 452.62,-769.5 356.88,-769.5"/>
</a>
</g>
</g>
<!-- Node10&#45;&gt;Node9 -->
<g id="edge9_Node000009_Node000010" class="edge">
<title>Node10&#45;&gt;Node9</title>
<g id="a_edge9_Node000009_Node000010"><a xlink:title=" ">
<path fill="none" stroke="#63b8ff" d="M404.75,-758.45C404.75,-747.03 404.75,-734.44 404.75,-726.12"/>
<polygon fill="none" stroke="#63b8ff" points="401.25,-758.19 404.75,-768.19 408.25,-758.19 401.25,-758.19"/>
</a>
</g>
</g>
<!-- Node11&#45;&gt;Node5 -->
<g id="edge10_Node000005_Node000011" class="edge">
<title>Node11&#45;&gt;Node5</title>
<g id="a_edge10_Node000005_Node000011"><a xlink:title=" ">
<path fill="none" stroke="#63b8ff" d="M582.48,-606.95C581.54,-578.6 577.76,-489.88 565.75,-417.5 563.28,-402.63 559.34,-386.31 555.78,-372.93"/>
<polygon fill="none" stroke="#63b8ff" points="555.83,-373.13 550.39,-368.41 552.65,-361.56 558.1,-366.28 555.83,-373.13"/>
</a>
</g>
<text xml:space="preserve" text-anchor="start" x="577.63" y="-475.25" font-family="Helvetica,sans-Serif" font-size="10.00" fill="grey">&#45;socketAddress</text>
</g>
<!-- Node12 -->
<g id="Node000012" class="node">
<title>Node12</title>
<g id="a_Node000012"><a xlink:href="classnet_1_1SocketAddress.html" target="_top" xlink:title=" ">
<polygon fill="white" stroke="none" points="633.25,-732.5 532.25,-732.5 532.25,-699 633.25,-699 633.25,-732.5"/>
<text xml:space="preserve" text-anchor="start" x="536.25" y="-719" font-family="Helvetica,sans-Serif" font-size="10.00">net::SocketAddress</text>
<text xml:space="preserve" text-anchor="start" x="540.75" y="-706.25" font-family="Helvetica,sans-Serif" font-size="10.00">&lt; sockaddr_un &gt;</text>
<polygon fill="none" stroke="#666666" points="532.25,-699 532.25,-732.5 633.25,-732.5 633.25,-699 532.25,-699"/>
</a>
</g>
</g>
<!-- Node12&#45;&gt;Node11 -->
<g id="edge11_Node000011_Node000012" class="edge">
<title>Node12&#45;&gt;Node11</title>
<g id="a_edge11_Node000011_Node000012"><a xlink:title=" ">
<path fill="none" stroke="#63b8ff" d="M582.75,-687.93C582.75,-667.76 582.75,-641.31 582.75,-627.47"/>
<polygon fill="none" stroke="#63b8ff" points="579.25,-687.71 582.75,-697.71 586.25,-687.71 579.25,-687.71"/>
</a>
</g>
</g>
<!-- Node13 -->
<g id="Node000013" class="node">
<title>Node13</title>
<g id="a_Node000013"><a xlink:href="classcore_1_1socket_1_1SocketAddress.html" target="_top" xlink:title=" ">
<polygon fill="white" stroke="none" points="654.62,-796.62 510.88,-796.62 510.88,-775.88 654.62,-775.88 654.62,-796.62"/>
<text xml:space="preserve" text-anchor="start" x="514.88" y="-783.12" font-family="Helvetica,sans-Serif" font-size="10.00">core::socket::SocketAddress</text>
<polygon fill="none" stroke="#666666" points="510.88,-775.88 510.88,-796.62 654.62,-796.62 654.62,-775.88 510.88,-775.88"/>
</a>
</g>
</g>
<!-- Node13&#45;&gt;Node12 -->
<g id="edge12_Node000012_Node000013" class="edge">
<title>Node13&#45;&gt;Node12</title>
<g id="a_edge12_Node000012_Node000013"><a xlink:title=" ">
<path fill="none" stroke="#63b8ff" d="M582.75,-764.69C582.75,-754.32 582.75,-741.96 582.75,-732.38"/>
<polygon fill="none" stroke="#63b8ff" points="579.25,-764.5 582.75,-774.5 586.25,-764.5 579.25,-764.5"/>
</a>
</g>
</g>
<!-- Node14 -->
<g id="Node000014" class="node">
<title>Node14</title>
<g id="a_Node000014"><a xlink:href="classnet_1_1un_1_1config_1_1ConfigAddress.html" target="_top" xlink:title=" ">
<polygon fill="white" stroke="none" points="701.88,-187.25 517.62,-187.25 517.62,-153.75 701.88,-153.75 701.88,-187.25"/>
<text xml:space="preserve" text-anchor="start" x="521.62" y="-173.75" font-family="Helvetica,sans-Serif" font-size="10.00">net::un::config::ConfigAddress</text>
<text xml:space="preserve" text-anchor="start" x="521.62" y="-161" font-family="Helvetica,sans-Serif" font-size="10.00">&lt; net::config::ConfigAddressLocal &gt;</text>
<polygon fill="none" stroke="#666666" points="517.62,-153.75 517.62,-187.25 701.88,-187.25 701.88,-153.75 517.62,-153.75"/>
</a>
</g>
</g>
<!-- Node14&#45;&gt;Node2 -->
<g id="edge14_Node000002_Node000014" class="edge">
<title>Node14&#45;&gt;Node2</title>
<g id="a_edge14_Node000002_Node000014"><a xlink:title=" ">
<path fill="none" stroke="#63b8ff" d="M530.69,-151.23C483.27,-140.27 422.87,-126.31 373.91,-115"/>
<polygon fill="none" stroke="#63b8ff" points="529.82,-154.62 540.35,-153.46 531.4,-147.8 529.82,-154.62"/>
</a>
</g>
</g>
<!-- Node15&#45;&gt;Node14 -->
<g id="edge15_Node000014_Node000015" class="edge">
<title>Node15&#45;&gt;Node14</title>
<g id="a_edge15_Node000014_Node000015"><a xlink:title=" ">
<path fill="none" stroke="#63b8ff" d="M607.93,-213.05C608.32,-204.21 608.73,-194.68 609.07,-186.98"/>
<polygon fill="none" stroke="#63b8ff" points="604.44,-212.8 607.5,-222.94 611.43,-213.11 604.44,-212.8"/>
</a>
</g>
</g>
<!-- Node16&#45;&gt;Node2 -->
<g id="edge17_Node000002_Node000016" class="edge">
<title>Node16&#45;&gt;Node2</title>
<g id="a_edge17_Node000002_Node000016"><a xlink:title=" ">
<path fill="none" stroke="#63b8ff" d="M209.44,-367.52C210.02,-348.36 210.75,-319 210.75,-293.5 210.75,-293.5 210.75,-293.5 210.75,-169.5 210.75,-147.24 227.51,-129.29 245.18,-116.56"/>
<polygon fill="none" stroke="#63b8ff" points="205.94,-367.37 209.12,-377.48 212.94,-367.6 205.94,-367.37"/>
</a>
</g>
</g>
<!-- Node17 -->
<g id="Node000017" class="node">
<title>Node17</title>
<g id="a_Node000017"><a xlink:href="classnet_1_1config_1_1ConfigPhysicalSocketClient.html" target="_top" xlink:title=" ">
<polygon fill="white" stroke="none" points="367.62,-309.25 229.88,-309.25 229.88,-275.75 367.62,-275.75 367.62,-309.25"/>
<text xml:space="preserve" text-anchor="start" x="233.88" y="-295.75" font-family="Helvetica,sans-Serif" font-size="10.00">net::config::ConfigPhysical</text>
<text xml:space="preserve" text-anchor="start" x="268.38" y="-283" font-family="Helvetica,sans-Serif" font-size="10.00">SocketClient</text>
<polygon fill="none" stroke="#666666" points="229.88,-275.75 229.88,-309.25 367.62,-309.25 367.62,-275.75 229.88,-275.75"/>
</a>
</g>
</g>
<!-- Node17&#45;&gt;Node2 -->
<g id="edge19_Node000002_Node000017" class="edge">
<title>Node17&#45;&gt;Node2</title>
<g id="a_edge19_Node000002_Node000017"><a xlink:title=" ">
<path fill="none" stroke="#63b8ff" d="M296.99,-264.77C294.39,-225.45 289.59,-152.75 287.19,-116.45"/>
<polygon fill="none" stroke="#63b8ff" points="293.48,-264.79 297.63,-274.54 300.46,-264.33 293.48,-264.79"/>
</a>
</g>
</g>
<!-- Node18&#45;&gt;Node17 -->
<g id="edge20_Node000017_Node000018" class="edge">
<title>Node18&#45;&gt;Node17</title>
<g id="a_edge20_Node000017_Node000018"><a xlink:title=" ">
<path fill="none" stroke="#63b8ff" d="M302.79,-406.48C301.76,-377.6 300.15,-332.61 299.31,-309.06"/>
<polygon fill="none" stroke="#63b8ff" points="299.29,-406.38 303.14,-416.25 306.28,-406.13 299.29,-406.38"/>
</a>
</g>
</g>
<!-- Node19 -->
<g id="Node000019" class="node">
<title>Node19</title>
<g id="a_Node000019"><a xlink:title=" ">
<polygon fill="white" stroke="none" points="141.5,-552 0,-552 0,-505.75 141.5,-505.75 141.5,-552"/>
<text xml:space="preserve" text-anchor="start" x="4" y="-538.5" font-family="Helvetica,sans-Serif" font-size="10.00">std::map&lt; int, std</text>
<text xml:space="preserve" text-anchor="start" x="4" y="-525.75" font-family="Helvetica,sans-Serif" font-size="10.00">::map&lt; int, net::phy</text>
<text xml:space="preserve" text-anchor="start" x="4" y="-513" font-family="Helvetica,sans-Serif" font-size="10.00">::PhysicalSocketOption &gt; &gt;</text>
<polygon fill="none" stroke="#666666" points="0,-505.75 0,-552 141.5,-552 141.5,-505.75 0,-505.75"/>
</a>
</g>
</g>
<!-- Node19&#45;&gt;Node18 -->
<g id="edge22_Node000018_Node000019" class="edge">
<title>Node19&#45;&gt;Node18</title>
<g id="a_edge22_Node000018_Node000019"><a xlink:title=" ">
<path fill="none" stroke="#63b8ff" d="M107.02,-505.87C128.07,-493.78 155.4,-479.21 181,-469 194.5,-463.62 209.16,-458.78 223.49,-454.55"/>
<polygon fill="none" stroke="#63b8ff" points="223.56,-454.53 228.24,-449.04 235.1,-451.24 230.43,-456.73 223.56,-454.53"/>
</a>
</g>
<text xml:space="preserve" text-anchor="start" x="184" y="-475.25" font-family="Helvetica,sans-Serif" font-size="10.00" fill="grey">&#45;socketOptionsMapMap</text>
</g>
</g>
</svg>

<g id="navigator" transform="translate(0 0)" fill="#404254">
  <rect fill="#f2f5e9" fill-opacity="0.5" stroke="#606060" stroke-width=".5" x="0" y="0" width="60" height="60"/>
  <use id="zoomplus" xlink:href="#zoomPlus" x="17" y="9" onmousedown="handleZoom(evt,'in')"/>
  <use id="zoomminus" xlink:href="#zoomMin" x="42" y="9" onmousedown="handleZoom(evt,'out')"/>
  <use id="reset" xlink:href="#resetDef" x="30" y="36" onmousedown="handleReset()"/>
   <use id="arrowup" xlink:href="#arrowUp" x="0" y="0" onmousedown="handlePan(0,-1)"/>
  <use id="arrowright" xlink:href="#arrowRight" x="0" y="0" onmousedown="handlePan(1,0)"/>
  <use id="arrowdown" xlink:href="#arrowDown" x="0" y="0" onmousedown="handlePan(0,1)"/>
  <use id="arrowleft" xlink:href="#arrowLeft" x="0" y="0" onmousedown="handlePan(-1,0)"/>
</g>
<svg viewBox="0 0 15 15" width="100%" height="30px" preserveAspectRatio="xMaxYMin meet">
 <g id="arrow_out" transform="scale(0.3 0.3)">
  <a xlink:href="classnet_1_1un_1_1stream_1_1config_1_1ConfigSocketClient__coll__graph_org.svg" target="_base">
   <rect id="button" ry="5" rx="5" y="6" x="6" height="38" width="38"
        fill="#f2f5e9" fill-opacity="0.5" stroke="#606060" stroke-width="1.0"/>
   <path id="arrow"
     d="M 11.500037,31.436501 C 11.940474,20.09759 22.043105,11.32322 32.158766,21.979434 L 37.068811,17.246167 C 37.068811,17.246167 37.088388,32 37.088388,32 L 22.160133,31.978069 C 22.160133,31.978069 26.997745,27.140456 26.997745,27.140456 C 18.528582,18.264221 13.291696,25.230495 11.500037,31.436501 z"
     style="fill:#404040;"/>
  </a>
 </g>
</svg>

<style type='text/css'>
<![CDATA[
[data-mouse-over-selected='false'] { opacity: 0.7; }
[data-mouse-over-selected='true']  { opacity: 1.0; }
]]>
</style>
<script type="application/ecmascript"><![CDATA[
document.addEventListener('DOMContentLoaded', (event) => {
  highlightEdges();
  highlightAdjacentNodes();
});
]]></script>
</svg>
