<?xml version="1.0" encoding="UTF-8" standalone="no"?>
<!DOCTYPE svg PUBLIC "-//W3C//DTD SVG 1.1//EN"
 "http://www.w3.org/Graphics/SVG/1.1/DTD/svg11.dtd">
<!-- Generated by graphviz version 2.43.0 (0)
 -->
<!-- Title: express::Response::redirect Pages: 1 -->
<svg width="1528pt" height="596pt"
 viewBox="0.00 0.00 1528.00 596.00" xmlns="http://www.w3.org/2000/svg" xmlns:xlink="http://www.w3.org/1999/xlink">
<g id="graph0" class="graph" transform="scale(1 1) rotate(0) translate(4 592)">
<title>express::Response::redirect</title>
<!-- Node1 -->
<g id="Node000001" class="node">
<title>Node1</title>
<g id="a_Node000001"><a xlink:title=" ">
<polygon fill="#999999" stroke="#666666" points="114,-494 0,-494 0,-464 114,-464 114,-494"/>
<text text-anchor="start" x="8" y="-482" font-family="Helvetica,sans-Serif" font-size="10.00">express::Response::</text>
<text text-anchor="middle" x="57" y="-471" font-family="Helvetica,sans-Serif" font-size="10.00">redirect</text>
</a>
</g>
</g>
<!-- Node2 -->
<g id="Node000002" class="node">
<title>Node2</title>
<g id="a_Node000002"><a xlink:href="classexpress_1_1Response.html#a6da531370bf0e26c31d44e9831a896d2" target="_top" xlink:title=" ">
<polygon fill="white" stroke="#666666" points="264,-494 150,-494 150,-464 264,-464 264,-494"/>
<text text-anchor="start" x="158" y="-482" font-family="Helvetica,sans-Serif" font-size="10.00">express::Response::</text>
<text text-anchor="middle" x="207" y="-471" font-family="Helvetica,sans-Serif" font-size="10.00">redirect</text>
</a>
</g>
</g>
<!-- Node1&#45;&gt;Node2 -->
<g id="edge1_Node000001_Node000002" class="edge">
<title>Node1&#45;&gt;Node2</title>
<g id="a_edge1_Node000001_Node000002"><a xlink:title=" ">
<path fill="none" stroke="#63b8ff" d="M114.37,-479C122.62,-479 131.18,-479 139.6,-479"/>
<polygon fill="#63b8ff" stroke="#63b8ff" points="139.78,-482.5 149.78,-479 139.78,-475.5 139.78,-482.5"/>
</a>
</g>
</g>
<!-- Node3 -->
<g id="Node000003" class="node">
<title>Node3</title>
<g id="a_Node000003"><a xlink:href="classexpress_1_1Response.html#afae395131573ca1f1365df599d985a3c" target="_top" xlink:title=" ">
<polygon fill="white" stroke="#666666" points="705,-588 591,-588 591,-558 705,-558 705,-588"/>
<text text-anchor="start" x="599" y="-576" font-family="Helvetica,sans-Serif" font-size="10.00">express::Response::</text>
<text text-anchor="middle" x="648" y="-565" font-family="Helvetica,sans-Serif" font-size="10.00">location</text>
</a>
</g>
</g>
<!-- Node2&#45;&gt;Node3 -->
<g id="edge2_Node000002_Node000003" class="edge">
<title>Node2&#45;&gt;Node3</title>
<g id="a_edge2_Node000002_Node000003"><a xlink:title=" ">
<path fill="none" stroke="#63b8ff" d="M264.05,-491C345.09,-508.35 494.72,-540.39 581,-558.87"/>
<polygon fill="#63b8ff" stroke="#63b8ff" points="580.43,-562.33 590.94,-561 581.9,-555.48 580.43,-562.33"/>
</a>
</g>
</g>
<!-- Node5 -->
<g id="Node000005" class="node">
<title>Node5</title>
<g id="a_Node000005"><a xlink:href="classexpress_1_1Response.html#aead1c666aafef5787f1824e5ea30efad" target="_top" xlink:title=" ">
<polygon fill="white" stroke="#666666" points="414,-473 300,-473 300,-443 414,-443 414,-473"/>
<text text-anchor="start" x="308" y="-461" font-family="Helvetica,sans-Serif" font-size="10.00">express::Response::</text>
<text text-anchor="middle" x="357" y="-450" font-family="Helvetica,sans-Serif" font-size="10.00">sendStatus</text>
</a>
</g>
</g>
<!-- Node2&#45;&gt;Node5 -->
<g id="edge4_Node000002_Node000005" class="edge">
<title>Node2&#45;&gt;Node5</title>
<g id="a_edge4_Node000002_Node000005"><a xlink:title=" ">
<path fill="none" stroke="#63b8ff" d="M264.37,-471C272.71,-469.82 281.37,-468.59 289.88,-467.38"/>
<polygon fill="#63b8ff" stroke="#63b8ff" points="290.37,-470.85 299.78,-465.98 289.39,-463.92 290.37,-470.85"/>
</a>
</g>
</g>
<!-- Node4 -->
<g id="Node000004" class="node">
<title>Node4</title>
<g id="a_Node000004"><a xlink:href="classweb_1_1http_1_1server_1_1Response.html#a82301ce94e8418a2d0b9bc052207a178" target="_top" xlink:title=" ">
<polygon fill="white" stroke="#666666" points="1483,-526 1378,-526 1378,-496 1483,-496 1483,-526"/>
<text text-anchor="start" x="1386" y="-514" font-family="Helvetica,sans-Serif" font-size="10.00">web::http::server::</text>
<text text-anchor="middle" x="1430.5" y="-503" font-family="Helvetica,sans-Serif" font-size="10.00">Response::set</text>
</a>
</g>
</g>
<!-- Node3&#45;&gt;Node4 -->
<g id="edge3_Node000003_Node000004" class="edge">
<title>Node3&#45;&gt;Node4</title>
<g id="a_edge3_Node000003_Node000004"><a xlink:title=" ">
<path fill="none" stroke="#63b8ff" d="M705.12,-574.56C818.97,-576.83 1084.97,-577.62 1305,-544 1327.42,-540.57 1351.62,-534.68 1372.67,-528.82"/>
<polygon fill="#63b8ff" stroke="#63b8ff" points="1373.76,-532.15 1382.41,-526.04 1371.84,-525.41 1373.76,-532.15"/>
</a>
</g>
</g>
<!-- Node6 -->
<g id="Node000006" class="node">
<title>Node6</title>
<g id="a_Node000006"><a xlink:href="classweb_1_1http_1_1StatusCode.html#ad3c635f1cb778cdb4a2e23332ebda277" target="_top" xlink:title=" ">
<polygon fill="white" stroke="#666666" points="1285.5,-186 1161.5,-186 1161.5,-156 1285.5,-156 1285.5,-186"/>
<text text-anchor="start" x="1169.5" y="-174" font-family="Helvetica,sans-Serif" font-size="10.00">web::http::StatusCode</text>
<text text-anchor="middle" x="1223.5" y="-163" font-family="Helvetica,sans-Serif" font-size="10.00">::reason</text>
</a>
</g>
</g>
<!-- Node5&#45;&gt;Node6 -->
<g id="edge5_Node000005_Node000006" class="edge">
<title>Node5&#45;&gt;Node6</title>
<g id="a_edge5_Node000005_Node000006"><a xlink:title=" ">
<path fill="none" stroke="#63b8ff" d="M364.32,-442.62C389.89,-383.22 491.7,-172 647,-172 647,-172 647,-172 831.5,-172 943.08,-172 1072.57,-171.59 1150.97,-171.29"/>
<polygon fill="#63b8ff" stroke="#63b8ff" points="1151.22,-174.79 1161.21,-171.25 1151.2,-167.79 1151.22,-174.79"/>
</a>
</g>
</g>
<!-- Node8 -->
<g id="Node000008" class="node">
<title>Node8</title>
<g id="a_Node000008"><a xlink:href="classweb_1_1http_1_1server_1_1Response.html#a5128a20b904071c22a077b040c8ff138" target="_top" xlink:title=" ">
<polygon fill="white" stroke="#666666" points="555,-449 450,-449 450,-419 555,-419 555,-449"/>
<text text-anchor="start" x="458" y="-437" font-family="Helvetica,sans-Serif" font-size="10.00">web::http::server::</text>
<text text-anchor="middle" x="502.5" y="-426" font-family="Helvetica,sans-Serif" font-size="10.00">Response::send</text>
</a>
</g>
</g>
<!-- Node5&#45;&gt;Node8 -->
<g id="edge7_Node000005_Node000008" class="edge">
<title>Node5&#45;&gt;Node8</title>
<g id="a_edge7_Node000005_Node000008"><a xlink:title=" ">
<path fill="none" stroke="#63b8ff" d="M414.3,-448.58C422.56,-447.2 431.11,-445.77 439.48,-444.37"/>
<polygon fill="#63b8ff" stroke="#63b8ff" points="440.28,-447.79 449.57,-442.69 439.13,-440.88 440.28,-447.79"/>
</a>
</g>
</g>
<!-- Node30 -->
<g id="Node000030" class="node">
<title>Node30</title>
<g id="a_Node000030"><a xlink:href="classweb_1_1http_1_1server_1_1Response.html#ab0e29ec119bf92d286d94d12ff2071ba" target="_top" xlink:title=" ">
<polygon fill="white" stroke="#666666" points="555,-497 450,-497 450,-467 555,-467 555,-497"/>
<text text-anchor="start" x="458" y="-485" font-family="Helvetica,sans-Serif" font-size="10.00">web::http::server::</text>
<text text-anchor="middle" x="502.5" y="-474" font-family="Helvetica,sans-Serif" font-size="10.00">Response::status</text>
</a>
</g>
</g>
<!-- Node5&#45;&gt;Node30 -->
<g id="edge34_Node000005_Node000030" class="edge">
<title>Node5&#45;&gt;Node30</title>
<g id="a_edge34_Node000005_Node000030"><a xlink:title=" ">
<path fill="none" stroke="#63b8ff" d="M414.3,-467.42C422.56,-468.8 431.11,-470.23 439.48,-471.63"/>
<polygon fill="#63b8ff" stroke="#63b8ff" points="439.13,-475.12 449.57,-473.31 440.28,-468.21 439.13,-475.12"/>
</a>
</g>
</g>
<!-- Node7 -->
<g id="Node000007" class="node">
<title>Node7</title>
<g id="a_Node000007"><a xlink:href="classweb_1_1http_1_1StatusCode.html#a7128168d2becba8d8bfd0e47ab2854ff" target="_top" xlink:title=" ">
<polygon fill="white" stroke="#666666" points="1492.5,-186 1368.5,-186 1368.5,-156 1492.5,-156 1492.5,-186"/>
<text text-anchor="start" x="1376.5" y="-174" font-family="Helvetica,sans-Serif" font-size="10.00">web::http::StatusCode</text>
<text text-anchor="middle" x="1430.5" y="-163" font-family="Helvetica,sans-Serif" font-size="10.00">::contains</text>
</a>
</g>
</g>
<!-- Node6&#45;&gt;Node7 -->
<g id="edge6_Node000006_Node000007" class="edge">
<title>Node6&#45;&gt;Node7</title>
<g id="a_edge6_Node000006_Node000007"><a xlink:title=" ">
<path fill="none" stroke="#63b8ff" d="M1285.73,-171C1308.44,-171 1334.4,-171 1357.95,-171"/>
<polygon fill="#63b8ff" stroke="#63b8ff" points="1358.23,-174.5 1368.23,-171 1358.23,-167.5 1358.23,-174.5"/>
</a>
</g>
</g>
<!-- Node8&#45;&gt;Node4 -->
<g id="edge33_Node000008_Node000004" class="edge">
<title>Node8&#45;&gt;Node4</title>
<g id="a_edge33_Node000008_Node000004"><a xlink:title=" ">
<path fill="none" stroke="#63b8ff" d="M543.82,-449C617.8,-476 772.86,-530 829.5,-530 829.5,-530 829.5,-530 1032,-530 1150.85,-530 1289.46,-521.42 1367.61,-515.79"/>
<polygon fill="#63b8ff" stroke="#63b8ff" points="1368.05,-519.27 1377.77,-515.05 1367.54,-512.29 1368.05,-519.27"/>
</a>
</g>
</g>
<!-- Node9 -->
<g id="Node000009" class="node">
<title>Node9</title>
<g id="a_Node000009"><a xlink:href="classweb_1_1http_1_1server_1_1Response.html#ad13e93ee083ee9e780a4478a86fdefec" target="_top" xlink:title=" ">
<polygon fill="white" stroke="#666666" points="700.5,-355 595.5,-355 595.5,-325 700.5,-325 700.5,-355"/>
<text text-anchor="start" x="603.5" y="-343" font-family="Helvetica,sans-Serif" font-size="10.00">web::http::server::</text>
<text text-anchor="middle" x="648" y="-332" font-family="Helvetica,sans-Serif" font-size="10.00">Response::send</text>
</a>
</g>
</g>
<!-- Node8&#45;&gt;Node9 -->
<g id="edge8_Node000008_Node000009" class="edge">
<title>Node8&#45;&gt;Node9</title>
<g id="a_edge8_Node000008_Node000009"><a xlink:title=" ">
<path fill="none" stroke="#63b8ff" d="M526.56,-418.9C550.61,-403.14 588.5,-378.32 615.35,-360.73"/>
<polygon fill="#63b8ff" stroke="#63b8ff" points="617.55,-363.47 624,-355.07 613.72,-357.62 617.55,-363.47"/>
</a>
</g>
</g>
<!-- Node9&#45;&gt;Node4 -->
<g id="edge32_Node000009_Node000004" class="edge">
<title>Node9&#45;&gt;Node4</title>
<g id="a_edge32_Node000009_Node000004"><a xlink:title=" ">
<path fill="none" stroke="#63b8ff" d="M696.44,-355.05C783.76,-382.25 976.19,-439.83 1142,-473 1219.08,-488.42 1309.07,-499.17 1367.56,-505.2"/>
<polygon fill="#63b8ff" stroke="#63b8ff" points="1367.44,-508.71 1377.75,-506.24 1368.15,-501.74 1367.44,-508.71"/>
</a>
</g>
</g>
<!-- Node10 -->
<g id="Node000010" class="node">
<title>Node10</title>
<g id="a_Node000010"><a xlink:href="classweb_1_1http_1_1server_1_1Response.html#afa629201cede13cbddfcc22290229ab9" target="_top" xlink:title=" ">
<polygon fill="white" stroke="#666666" points="900.5,-308 760.5,-308 760.5,-278 900.5,-278 900.5,-308"/>
<text text-anchor="start" x="768.5" y="-296" font-family="Helvetica,sans-Serif" font-size="10.00">web::http::server::</text>
<text text-anchor="middle" x="830.5" y="-285" font-family="Helvetica,sans-Serif" font-size="10.00">Response::sendResponse</text>
</a>
</g>
</g>
<!-- Node9&#45;&gt;Node10 -->
<g id="edge9_Node000009_Node000010" class="edge">
<title>Node9&#45;&gt;Node10</title>
<g id="a_edge9_Node000009_Node000010"><a xlink:title=" ">
<path fill="none" stroke="#63b8ff" d="M700.72,-326.53C719.79,-321.57 741.69,-315.87 761.95,-310.59"/>
<polygon fill="#63b8ff" stroke="#63b8ff" points="762.95,-313.95 771.74,-308.04 761.18,-307.17 762.95,-313.95"/>
</a>
</g>
</g>
<!-- Node22 -->
<g id="Node000022" class="node">
<title>Node22</title>
<g id="a_Node000022"><a xlink:href="classweb_1_1http_1_1server_1_1Response.html#a3967e93bab3872d6c4f1c270ebd421ea" target="_top" xlink:title=" ">
<polygon fill="white" stroke="#666666" points="920,-120 741,-120 741,-90 920,-90 920,-120"/>
<text text-anchor="start" x="749" y="-108" font-family="Helvetica,sans-Serif" font-size="10.00">web::http::server::</text>
<text text-anchor="middle" x="830.5" y="-97" font-family="Helvetica,sans-Serif" font-size="10.00">Response::sendToPeerCompleted</text>
</a>
</g>
</g>
<!-- Node9&#45;&gt;Node22 -->
<g id="edge24_Node000009_Node000022" class="edge">
<title>Node9&#45;&gt;Node22</title>
<g id="a_edge24_Node000009_Node000022"><a xlink:title=" ">
<path fill="none" stroke="#63b8ff" d="M660.57,-324.94C691.25,-285 774.87,-176.12 811.69,-128.18"/>
<polygon fill="#63b8ff" stroke="#63b8ff" points="814.48,-130.3 817.8,-120.24 808.93,-126.04 814.48,-130.3"/>
</a>
</g>
</g>
<!-- Node11 -->
<g id="Node000011" class="node">
<title>Node11</title>
<g id="a_Node000011"><a xlink:href="classweb_1_1http_1_1server_1_1Response.html#a4fae387fd1d11b86260f4572bfebfce2" target="_top" xlink:title=" ">
<polygon fill="white" stroke="#666666" points="1095,-330 967,-330 967,-300 1095,-300 1095,-330"/>
<text text-anchor="start" x="975" y="-318" font-family="Helvetica,sans-Serif" font-size="10.00">web::http::server::</text>
<text text-anchor="middle" x="1031" y="-307" font-family="Helvetica,sans-Serif" font-size="10.00">Response::sendHeader</text>
</a>
</g>
</g>
<!-- Node10&#45;&gt;Node11 -->
<g id="edge10_Node000010_Node000011" class="edge">
<title>Node10&#45;&gt;Node11</title>
<g id="a_edge10_Node000010_Node000011"><a xlink:title=" ">
<path fill="none" stroke="#63b8ff" d="M900.65,-300.66C918.77,-302.67 938.38,-304.85 956.71,-306.88"/>
<polygon fill="#63b8ff" stroke="#63b8ff" points="956.43,-310.37 966.75,-307.99 957.2,-303.41 956.43,-310.37"/>
</a>
</g>
</g>
<!-- Node19 -->
<g id="Node000019" class="node">
<title>Node19</title>
<g id="a_Node000019"><a xlink:href="classweb_1_1http_1_1server_1_1RequestContextBase.html#a75e9f8daa736c9af15f9b784477fd216" target="_top" xlink:title=" ">
<polygon fill="white" stroke="#666666" points="1093.5,-242.5 968.5,-242.5 968.5,-201.5 1093.5,-201.5 1093.5,-242.5"/>
<text text-anchor="start" x="976.5" y="-230.5" font-family="Helvetica,sans-Serif" font-size="10.00">web::http::server::</text>
<text text-anchor="start" x="976.5" y="-219.5" font-family="Helvetica,sans-Serif" font-size="10.00">RequestContextBase::</text>
<text text-anchor="middle" x="1031" y="-208.5" font-family="Helvetica,sans-Serif" font-size="10.00">sendToPeer</text>
</a>
</g>
</g>
<!-- Node10&#45;&gt;Node19 -->
<g id="edge21_Node000010_Node000019" class="edge">
<title>Node10&#45;&gt;Node19</title>
<g id="a_edge21_Node000010_Node000019"><a xlink:title=" ">
<path fill="none" stroke="#63b8ff" d="M873.6,-277.94C899.58,-268.65 933.48,-256.52 963.08,-245.93"/>
<polygon fill="#63b8ff" stroke="#63b8ff" points="964.29,-249.22 972.53,-242.56 961.93,-242.63 964.29,-249.22"/>
</a>
</g>
</g>
<!-- Node11&#45;&gt;Node6 -->
<g id="edge13_Node000011_Node000006" class="edge">
<title>Node11&#45;&gt;Node6</title>
<g id="a_edge13_Node000011_Node000006"><a xlink:title=" ">
<path fill="none" stroke="#63b8ff" d="M1052.96,-299.92C1068.66,-287.99 1090.08,-270.36 1106,-252 1125.63,-229.36 1118.12,-213.1 1142,-195 1145.18,-192.59 1148.6,-190.42 1152.16,-188.47"/>
<polygon fill="#63b8ff" stroke="#63b8ff" points="1153.82,-191.56 1161.3,-184.05 1150.77,-185.26 1153.82,-191.56"/>
</a>
</g>
</g>
<!-- Node12 -->
<g id="Node000012" class="node">
<title>Node12</title>
<g id="a_Node000012"><a xlink:href="classweb_1_1http_1_1CookieOptions.html#a4be3fcbeb3b146110d45edadba1ddc08" target="_top" xlink:title=" ">
<polygon fill="white" stroke="#666666" points="1293.5,-378 1153.5,-378 1153.5,-348 1293.5,-348 1293.5,-378"/>
<text text-anchor="start" x="1161.5" y="-366" font-family="Helvetica,sans-Serif" font-size="10.00">web::http::CookieOptions</text>
<text text-anchor="middle" x="1223.5" y="-355" font-family="Helvetica,sans-Serif" font-size="10.00">::getOptions</text>
</a>
</g>
</g>
<!-- Node11&#45;&gt;Node12 -->
<g id="edge11_Node000011_Node000012" class="edge">
<title>Node11&#45;&gt;Node12</title>
<g id="a_edge11_Node000011_Node000012"><a xlink:title=" ">
<path fill="none" stroke="#63b8ff" d="M1091.75,-330.06C1111.26,-334.97 1133.08,-340.47 1153.22,-345.54"/>
<polygon fill="#63b8ff" stroke="#63b8ff" points="1152.41,-348.95 1162.96,-348 1154.12,-342.16 1152.41,-348.95"/>
</a>
</g>
</g>
<!-- Node13 -->
<g id="Node000013" class="node">
<title>Node13</title>
<g id="a_Node000013"><a xlink:href="classweb_1_1http_1_1CookieOptions.html#a93e39fac2e3beb0b97a485169479e2ea" target="_top" xlink:title=" ">
<polygon fill="white" stroke="#666666" points="1293.5,-330 1153.5,-330 1153.5,-300 1293.5,-300 1293.5,-330"/>
<text text-anchor="start" x="1161.5" y="-318" font-family="Helvetica,sans-Serif" font-size="10.00">web::http::CookieOptions</text>
<text text-anchor="middle" x="1223.5" y="-307" font-family="Helvetica,sans-Serif" font-size="10.00">::getValue</text>
</a>
</g>
</g>
<!-- Node11&#45;&gt;Node13 -->
<g id="edge12_Node000011_Node000013" class="edge">
<title>Node11&#45;&gt;Node13</title>
<g id="a_edge12_Node000011_Node000013"><a xlink:title=" ">
<path fill="none" stroke="#63b8ff" d="M1095.17,-315C1110.45,-315 1126.98,-315 1142.91,-315"/>
<polygon fill="#63b8ff" stroke="#63b8ff" points="1143.27,-318.5 1153.27,-315 1143.27,-311.5 1143.27,-318.5"/>
</a>
</g>
</g>
<!-- Node14 -->
<g id="Node000014" class="node">
<title>Node14</title>
<g id="a_Node000014"><a xlink:href="classweb_1_1http_1_1server_1_1Response.html#a428f61869432e01609dddc9c16b1d0ff" target="_top" xlink:title=" ">
<polygon fill="white" stroke="#666666" points="1293.5,-282 1153.5,-282 1153.5,-252 1293.5,-252 1293.5,-282"/>
<text text-anchor="start" x="1161.5" y="-270" font-family="Helvetica,sans-Serif" font-size="10.00">web::http::server::</text>
<text text-anchor="middle" x="1223.5" y="-259" font-family="Helvetica,sans-Serif" font-size="10.00">Response::sendResponse</text>
</a>
</g>
</g>
<!-- Node11&#45;&gt;Node14 -->
<g id="edge14_Node000011_Node000014" class="edge">
<title>Node11&#45;&gt;Node14</title>
<g id="a_edge14_Node000011_Node000014"><a xlink:title=" ">
<path fill="none" stroke="#63b8ff" d="M1091.75,-299.94C1111.26,-295.03 1133.08,-289.53 1153.22,-284.46"/>
<polygon fill="#63b8ff" stroke="#63b8ff" points="1154.12,-287.84 1162.96,-282 1152.41,-281.05 1154.12,-287.84"/>
</a>
</g>
</g>
<!-- Node15 -->
<g id="Node000015" class="node">
<title>Node15</title>
<g id="a_Node000015"><a xlink:href="classweb_1_1http_1_1server_1_1Response.html#a6f8d3d143f82fc3b48fe2d705e95a0c7" target="_top" xlink:title=" ">
<polygon fill="white" stroke="#666666" points="1276,-464 1171,-464 1171,-434 1276,-434 1276,-464"/>
<text text-anchor="start" x="1179" y="-452" font-family="Helvetica,sans-Serif" font-size="10.00">web::http::server::</text>
<text text-anchor="middle" x="1223.5" y="-441" font-family="Helvetica,sans-Serif" font-size="10.00">Response::set</text>
</a>
</g>
</g>
<!-- Node11&#45;&gt;Node15 -->
<g id="edge16_Node000011_Node000015" class="edge">
<title>Node11&#45;&gt;Node15</title>
<g id="a_edge16_Node000011_Node000015"><a xlink:title=" ">
<path fill="none" stroke="#63b8ff" d="M1043.08,-330.17C1061.16,-353.86 1099.32,-399.55 1142,-425 1147.89,-428.51 1154.34,-431.54 1160.93,-434.15"/>
<polygon fill="#63b8ff" stroke="#63b8ff" points="1160.06,-437.56 1170.65,-437.68 1162.44,-430.98 1160.06,-437.56"/>
</a>
</g>
</g>
<!-- Node16 -->
<g id="Node000016" class="node">
<title>Node16</title>
<g id="a_Node000016"><a xlink:href="namespacehttputils.html#ad53daa08390598493f3f4ae09164a60a" target="_top" xlink:title=" ">
<polygon fill="white" stroke="#666666" points="1286,-415.5 1161,-415.5 1161,-396.5 1286,-396.5 1286,-415.5"/>
<text text-anchor="middle" x="1223.5" y="-403.5" font-family="Helvetica,sans-Serif" font-size="10.00">httputils::to_http_date</text>
</a>
</g>
</g>
<!-- Node11&#45;&gt;Node16 -->
<g id="edge18_Node000011_Node000016" class="edge">
<title>Node11&#45;&gt;Node16</title>
<g id="a_edge18_Node000011_Node000016"><a xlink:title=" ">
<path fill="none" stroke="#63b8ff" d="M1050.7,-330.19C1071.7,-346.52 1107.4,-372.14 1142,-387 1147.8,-389.49 1153.98,-391.69 1160.25,-393.62"/>
<polygon fill="#63b8ff" stroke="#63b8ff" points="1159.53,-397.05 1170.11,-396.43 1161.46,-390.32 1159.53,-397.05"/>
</a>
</g>
</g>
<!-- Node14&#45;&gt;Node10 -->
<g id="edge15_Node000014_Node000010" class="edge">
<title>Node14&#45;&gt;Node10</title>
<g id="a_edge15_Node000014_Node000010"><a xlink:title=" ">
<path fill="none" stroke="#63b8ff" d="M1153.2,-271.61C1085.29,-276.12 981.9,-283 910.76,-287.73"/>
<polygon fill="#63b8ff" stroke="#63b8ff" points="910.25,-284.26 900.5,-288.41 910.71,-291.24 910.25,-284.26"/>
</a>
</g>
</g>
<!-- Node15&#45;&gt;Node4 -->
<g id="edge17_Node000015_Node000004" class="edge">
<title>Node15&#45;&gt;Node4</title>
<g id="a_edge17_Node000015_Node000004"><a xlink:title=" ">
<path fill="none" stroke="#63b8ff" d="M1274.12,-464.01C1302.99,-472.74 1339.57,-483.8 1369.98,-493"/>
<polygon fill="#63b8ff" stroke="#63b8ff" points="1369.04,-496.37 1379.62,-495.91 1371.06,-489.67 1369.04,-496.37"/>
</a>
</g>
</g>
<!-- Node17 -->
<g id="Node000017" class="node">
<title>Node17</title>
<g id="a_Node000017"><a xlink:href="namespaceutils_1_1system.html#a629a1ebec50192eff5587cdd5d51bf20" target="_top" xlink:title=" ">
<polygon fill="white" stroke="#666666" points="1492.5,-396.5 1368.5,-396.5 1368.5,-377.5 1492.5,-377.5 1492.5,-396.5"/>
<text text-anchor="middle" x="1430.5" y="-384.5" font-family="Helvetica,sans-Serif" font-size="10.00">utils::system::gmtime</text>
</a>
</g>
</g>
<!-- Node16&#45;&gt;Node17 -->
<g id="edge19_Node000016_Node000017" class="edge">
<title>Node16&#45;&gt;Node17</title>
<g id="a_edge19_Node000016_Node000017"><a xlink:title=" ">
<path fill="none" stroke="#63b8ff" d="M1286.01,-400.3C1308.71,-398.2 1334.63,-395.79 1358.13,-393.61"/>
<polygon fill="#63b8ff" stroke="#63b8ff" points="1358.76,-397.07 1368.39,-392.66 1358.11,-390.1 1358.76,-397.07"/>
</a>
</g>
</g>
<!-- Node18 -->
<g id="Node000018" class="node">
<title>Node18</title>
<g id="a_Node000018"><a xlink:href="namespaceutils_1_1system.html#aa36252afed0ca4903feb511649270d1c" target="_top" xlink:title=" ">
<polygon fill="white" stroke="#666666" points="1484.5,-433.5 1376.5,-433.5 1376.5,-414.5 1484.5,-414.5 1484.5,-433.5"/>
<text text-anchor="middle" x="1430.5" y="-421.5" font-family="Helvetica,sans-Serif" font-size="10.00">utils::system::time</text>
</a>
</g>
</g>
<!-- Node16&#45;&gt;Node18 -->
<g id="edge20_Node000016_Node000018" class="edge">
<title>Node16&#45;&gt;Node18</title>
<g id="a_edge20_Node000016_Node000018"><a xlink:title=" ">
<path fill="none" stroke="#63b8ff" d="M1286.01,-411.4C1311.3,-413.62 1340.58,-416.19 1366.07,-418.43"/>
<polygon fill="#63b8ff" stroke="#63b8ff" points="1366.1,-421.95 1376.37,-419.33 1366.71,-414.97 1366.1,-421.95"/>
</a>
</g>
</g>
<!-- Node20 -->
<g id="Node000020" class="node">
<title>Node20</title>
<g id="a_Node000020"><a xlink:href="classcore_1_1socket_1_1stream_1_1SocketContext.html#a7ab4e5580dbb64d509ffe2573205c600" target="_top" xlink:title=" ">
<polygon fill="white" stroke="#666666" points="1301,-234 1146,-234 1146,-204 1301,-204 1301,-234"/>
<text text-anchor="start" x="1154" y="-222" font-family="Helvetica,sans-Serif" font-size="10.00">core::socket::stream</text>
<text text-anchor="middle" x="1223.5" y="-211" font-family="Helvetica,sans-Serif" font-size="10.00">::SocketContext::sendToPeer</text>
</a>
</g>
</g>
<!-- Node19&#45;&gt;Node20 -->
<g id="edge22_Node000019_Node000020" class="edge">
<title>Node19&#45;&gt;Node20</title>
<g id="a_edge22_Node000019_Node000020"><a xlink:title=" ">
<path fill="none" stroke="#63b8ff" d="M1093.59,-221.03C1106.97,-220.82 1121.37,-220.59 1135.53,-220.37"/>
<polygon fill="#63b8ff" stroke="#63b8ff" points="1135.83,-223.87 1145.77,-220.21 1135.72,-216.87 1135.83,-223.87"/>
</a>
</g>
</g>
<!-- Node21 -->
<g id="Node000021" class="node">
<title>Node21</title>
<g id="a_Node000021"><a xlink:href="classcore_1_1socket_1_1stream_1_1SocketConnection.html#a8562a65ddd381e8a5c3360d12064b0ac" target="_top" xlink:title=" ">
<polygon fill="white" stroke="#666666" points="1516,-234 1345,-234 1345,-204 1516,-204 1516,-234"/>
<text text-anchor="start" x="1353" y="-222" font-family="Helvetica,sans-Serif" font-size="10.00">core::socket::stream</text>
<text text-anchor="middle" x="1430.5" y="-211" font-family="Helvetica,sans-Serif" font-size="10.00">::SocketConnection::sendToPeer</text>
</a>
</g>
</g>
<!-- Node20&#45;&gt;Node21 -->
<g id="edge23_Node000020_Node000021" class="edge">
<title>Node20&#45;&gt;Node21</title>
<g id="a_edge23_Node000020_Node000021"><a xlink:title=" ">
<path fill="none" stroke="#63b8ff" d="M1301.13,-219C1312.01,-219 1323.31,-219 1334.49,-219"/>
<polygon fill="#63b8ff" stroke="#63b8ff" points="1334.71,-222.5 1344.71,-219 1334.71,-215.5 1334.71,-222.5"/>
</a>
</g>
</g>
<!-- Node23 -->
<g id="Node000023" class="node">
<title>Node23</title>
<g id="a_Node000023"><a xlink:href="classweb_1_1http_1_1server_1_1RequestContextBase.html#a4f00d26b05063a3f91a13a4e3f83023d" target="_top" xlink:title=" ">
<polygon fill="white" stroke="#666666" points="1106,-42 956,-42 956,-12 1106,-12 1106,-42"/>
<text text-anchor="start" x="964" y="-30" font-family="Helvetica,sans-Serif" font-size="10.00">web::http::server::</text>
<text text-anchor="middle" x="1031" y="-19" font-family="Helvetica,sans-Serif" font-size="10.00">RequestContextBase::close</text>
</a>
</g>
</g>
<!-- Node22&#45;&gt;Node23 -->
<g id="edge25_Node000022_Node000023" class="edge">
<title>Node22&#45;&gt;Node23</title>
<g id="a_edge25_Node000022_Node000023"><a xlink:title=" ">
<path fill="none" stroke="#63b8ff" d="M869.77,-89.96C901.8,-77.38 947.66,-59.36 982.11,-45.82"/>
<polygon fill="#63b8ff" stroke="#63b8ff" points="983.48,-49.04 991.51,-42.13 980.92,-42.53 983.48,-49.04"/>
</a>
</g>
</g>
<!-- Node26 -->
<g id="Node000026" class="node">
<title>Node26</title>
<g id="a_Node000026"><a xlink:href="classweb_1_1http_1_1server_1_1RequestContextBase.html#a0d34bccc21c1e0139345d8a59520c8cb" target="_top" xlink:title=" ">
<polygon fill="white" stroke="#666666" points="1093.5,-125.5 968.5,-125.5 968.5,-84.5 1093.5,-84.5 1093.5,-125.5"/>
<text text-anchor="start" x="976.5" y="-113.5" font-family="Helvetica,sans-Serif" font-size="10.00">web::http::server::</text>
<text text-anchor="start" x="976.5" y="-102.5" font-family="Helvetica,sans-Serif" font-size="10.00">RequestContextBase::</text>
<text text-anchor="middle" x="1031" y="-91.5" font-family="Helvetica,sans-Serif" font-size="10.00">sendToPeerCompleted</text>
</a>
</g>
</g>
<!-- Node22&#45;&gt;Node26 -->
<g id="edge28_Node000022_Node000026" class="edge">
<title>Node22&#45;&gt;Node26</title>
<g id="a_edge28_Node000022_Node000026"><a xlink:title=" ">
<path fill="none" stroke="#63b8ff" d="M920.01,-105C932.77,-105 945.77,-105 958.16,-105"/>
<polygon fill="#63b8ff" stroke="#63b8ff" points="958.39,-108.5 968.39,-105 958.39,-101.5 958.39,-108.5"/>
</a>
</g>
</g>
<!-- Node24 -->
<g id="Node000024" class="node">
<title>Node24</title>
<g id="a_Node000024"><a xlink:href="classcore_1_1socket_1_1stream_1_1SocketContext.html#a47b23b8583dfd3880232e748f284f380" target="_top" xlink:title=" ">
<polygon fill="white" stroke="#666666" points="1286,-30 1161,-30 1161,0 1286,0 1286,-30"/>
<text text-anchor="start" x="1169" y="-18" font-family="Helvetica,sans-Serif" font-size="10.00">core::socket::stream</text>
<text text-anchor="middle" x="1223.5" y="-7" font-family="Helvetica,sans-Serif" font-size="10.00">::SocketContext::close</text>
</a>
</g>
</g>
<!-- Node23&#45;&gt;Node24 -->
<g id="edge26_Node000023_Node000024" class="edge">
<title>Node23&#45;&gt;Node24</title>
<g id="a_edge26_Node000023_Node000024"><a xlink:title=" ">
<path fill="none" stroke="#63b8ff" d="M1106.2,-22.33C1120.74,-21.41 1135.97,-20.45 1150.45,-19.54"/>
<polygon fill="#63b8ff" stroke="#63b8ff" points="1151.07,-23.01 1160.83,-18.88 1150.63,-16.02 1151.07,-23.01"/>
</a>
</g>
</g>
<!-- Node25 -->
<g id="Node000025" class="node">
<title>Node25</title>
<g id="a_Node000025"><a xlink:href="classcore_1_1socket_1_1stream_1_1SocketConnection.html#aed398e81ede92d1d1cfae2597580ad2c" target="_top" xlink:title=" ">
<polygon fill="white" stroke="#666666" points="1501,-30 1360,-30 1360,0 1501,0 1501,-30"/>
<text text-anchor="start" x="1368" y="-18" font-family="Helvetica,sans-Serif" font-size="10.00">core::socket::stream</text>
<text text-anchor="middle" x="1430.5" y="-7" font-family="Helvetica,sans-Serif" font-size="10.00">::SocketConnection::close</text>
</a>
</g>
</g>
<!-- Node24&#45;&gt;Node25 -->
<g id="edge27_Node000024_Node000025" class="edge">
<title>Node24&#45;&gt;Node25</title>
<g id="a_edge27_Node000024_Node000025"><a xlink:title=" ">
<path fill="none" stroke="#63b8ff" d="M1286.01,-15C1305.97,-15 1328.42,-15 1349.53,-15"/>
<polygon fill="#63b8ff" stroke="#63b8ff" points="1349.77,-18.5 1359.77,-15 1349.77,-11.5 1349.77,-18.5"/>
</a>
</g>
</g>
<!-- Node27 -->
<g id="Node000027" class="node">
<title>Node27</title>
<g id="a_Node000027"><a xlink:href="classweb_1_1http_1_1SocketContext.html#a3d37b0a17a47ce6c9ebf96900bfe2a74" target="_top" xlink:title=" ">
<polygon fill="white" stroke="#666666" points="1293,-78 1154,-78 1154,-48 1293,-48 1293,-78"/>
<text text-anchor="start" x="1162" y="-66" font-family="Helvetica,sans-Serif" font-size="10.00">web::http::SocketContext</text>
<text text-anchor="middle" x="1223.5" y="-55" font-family="Helvetica,sans-Serif" font-size="10.00">::sendToPeerCompleted</text>
</a>
</g>
</g>
<!-- Node26&#45;&gt;Node27 -->
<g id="edge29_Node000026_Node000027" class="edge">
<title>Node26&#45;&gt;Node27</title>
<g id="a_edge29_Node000026_Node000027"><a xlink:title=" ">
<path fill="none" stroke="#63b8ff" d="M1093.59,-91.42C1109.76,-87.86 1127.42,-83.96 1144.34,-80.23"/>
<polygon fill="#63b8ff" stroke="#63b8ff" points="1145.19,-83.63 1154.2,-78.06 1143.68,-76.79 1145.19,-83.63"/>
</a>
</g>
</g>
<!-- Node28 -->
<g id="Node000028" class="node">
<title>Node28</title>
<g id="a_Node000028"><a xlink:href="classcore_1_1socket_1_1stream_1_1SocketContext.html#a153fd05f8c588f882b322dcbd47667b4" target="_top" xlink:title=" ">
<polygon fill="white" stroke="#666666" points="1305,-137.5 1142,-137.5 1142,-96.5 1305,-96.5 1305,-137.5"/>
<text text-anchor="start" x="1150" y="-125.5" font-family="Helvetica,sans-Serif" font-size="10.00">core::socket::stream</text>
<text text-anchor="start" x="1150" y="-114.5" font-family="Helvetica,sans-Serif" font-size="10.00">::SocketContext::switchSocket</text>
<text text-anchor="middle" x="1223.5" y="-103.5" font-family="Helvetica,sans-Serif" font-size="10.00">Context</text>
</a>
</g>
</g>
<!-- Node26&#45;&gt;Node28 -->
<g id="edge30_Node000026_Node000028" class="edge">
<title>Node26&#45;&gt;Node28</title>
<g id="a_edge30_Node000026_Node000028"><a xlink:title=" ">
<path fill="none" stroke="#63b8ff" d="M1093.59,-108.88C1105.68,-109.64 1118.61,-110.46 1131.43,-111.26"/>
<polygon fill="#63b8ff" stroke="#63b8ff" points="1131.48,-114.77 1141.68,-111.91 1131.92,-107.79 1131.48,-114.77"/>
</a>
</g>
</g>
<!-- Node29 -->
<g id="Node000029" class="node">
<title>Node29</title>
<g id="a_Node000029"><a xlink:href="classcore_1_1socket_1_1stream_1_1SocketConnection.html#a1f0ce3db26b4f317837b294418b3ee33" target="_top" xlink:title=" ">
<polygon fill="white" stroke="#666666" points="1520,-137.5 1341,-137.5 1341,-96.5 1520,-96.5 1520,-137.5"/>
<text text-anchor="start" x="1349" y="-125.5" font-family="Helvetica,sans-Serif" font-size="10.00">core::socket::stream</text>
<text text-anchor="start" x="1349" y="-114.5" font-family="Helvetica,sans-Serif" font-size="10.00">::SocketConnection::switchSocket</text>
<text text-anchor="middle" x="1430.5" y="-103.5" font-family="Helvetica,sans-Serif" font-size="10.00">Context</text>
</a>
</g>
</g>
<!-- Node28&#45;&gt;Node29 -->
<g id="edge31_Node000028_Node000029" class="edge">
<title>Node28&#45;&gt;Node29</title>
<g id="a_edge31_Node000028_Node000029"><a xlink:title=" ">
<path fill="none" stroke="#63b8ff" d="M1305.23,-117C1313.51,-117 1321.99,-117 1330.45,-117"/>
<polygon fill="#63b8ff" stroke="#63b8ff" points="1330.73,-120.5 1340.73,-117 1330.73,-113.5 1330.73,-120.5"/>
</a>
</g>
</g>
</g>
</svg>
