<?xml version="1.0" encoding="UTF-8" standalone="no"?>
<!DOCTYPE svg PUBLIC "-//W3C//DTD SVG 1.1//EN"
 "http://www.w3.org/Graphics/SVG/1.1/DTD/svg11.dtd">
<!-- Generated by graphviz version 2.42.4 (0)
 -->
<!-- Title: apps::http::SimpleSocketProtocol::onReceivedFromPeer Pages: 1 -->
<!--zoomable 699 -->

<svg id="main" version="1.1" xmlns="http://www.w3.org/2000/svg" xmlns:xlink="http://www.w3.org/1999/xlink" xml:space="preserve" onload="init(evt)">
<style type="text/css"><![CDATA[
.node, .edge {opacity: 0.7;}
.node.selected, .edge.selected {opacity: 1;}
.edge:hover path { stroke: red; }
.edge:hover polygon { stroke: red; fill: red; }
]]></style>

<defs>
  <circle id="rim" cx="0" cy="0" r="7"/>
  <circle id="rim2" cx="0" cy="0" r="3.5"/>
  <g id="zoomPlus">
    <use xlink:href="#rim" fill="#404040"><set attributeName="fill" to="#808080" begin="zoomplus.mouseover" end="zoomplus.mouseout"/></use>
    <path d="M-4,0h8M0,-4v8" fill="none" stroke="white" stroke-width="1.5" pointer-events="none"/>
  </g>
  <g id="zoomMin">
    <use xlink:href="#rim" fill="#404040"><set attributeName="fill" to="#808080" begin="zoomminus.mouseover" end="zoomminus.mouseout"/></use>
    <path d="M-4,0h8" fill="none" stroke="white" stroke-width="1.5" pointer-events="none"/>
  </g>
  <g id="arrowUp" transform="translate(30 24)">
    <use xlink:href="#rim"/>
    <path pointer-events="none" fill="none" stroke="white" stroke-width="1.5" d="M0,-3.0v7 M-2.5,-0.5L0,-3.0L2.5,-0.5"/>
  </g>
  <g id="arrowRight" transform="rotate(90) translate(36 -43)">
    <use xlink:href="#rim"/>
    <path pointer-events="none" fill="none" stroke="white" stroke-width="1.5" d="M0,-3.0v7 M-2.5,-0.5L0,-3.0L2.5,-0.5"/>
  </g>
  <g id="arrowDown" transform="rotate(180) translate(-30 -48)">
    <use xlink:href="#rim"/>
    <path pointer-events="none" fill="none" stroke="white" stroke-width="1.5" d="M0,-3.0v7 M-2.5,-0.5L0,-3.0L2.5,-0.5"/>
  </g>
  <g id="arrowLeft" transform="rotate(270) translate(-36 17)">
    <use xlink:href="#rim"/>
    <path pointer-events="none" fill="none" stroke="white" stroke-width="1.5" d="M0,-3.0v7 M-2.5,-0.5L0,-3.0L2.5,-0.5"/>
  </g>
  <g id="resetDef">
    <use xlink:href="#rim2" fill="#404040"><set attributeName="fill" to="#808080" begin="reset.mouseover" end="reset.mouseout"/></use>
  </g>
</defs>
<script type="application/ecmascript">
var viewWidth = 1093;
var viewHeight = 699;
var sectionId = 'dynsection-5';
</script>
<script type="application/ecmascript" xlink:href="svg.min.js"/>
<svg id="graph" class="graph">
<g id="viewport">
<title>apps::http::SimpleSocketProtocol::onReceivedFromPeer</title>
<!-- Node1 -->
<g id="Node000001" class="node">
<title>Node1</title>
<g id="a_Node000001"><a xlink:title=" ">
<polygon fill="#999999" stroke="#666666" points="166,-355 0,-355 0,-325 166,-325 166,-355"/>
<text text-anchor="start" x="8" y="-343" font-family="Helvetica,sans-Serif" font-size="10.00">apps::http::SimpleSocket</text>
<text text-anchor="middle" x="83" y="-332" font-family="Helvetica,sans-Serif" font-size="10.00">Protocol::onReceivedFromPeer</text>
</a>
</g>
</g>
<!-- Node2 -->
<g id="Node000002" class="node">
<title>Node2</title>
<g id="a_Node000002"><a xlink:href="classweb_1_1http_1_1Parser.html#a1291dd16e6eba36cd6f35448dba4b3d5" target="_top" xlink:title=" ">
<polygon fill="white" stroke="#666666" points="307,-355 202,-355 202,-325 307,-325 307,-355"/>
<text text-anchor="start" x="210" y="-343" font-family="Helvetica,sans-Serif" font-size="10.00">web::http::Parser::</text>
<text text-anchor="middle" x="254.5" y="-332" font-family="Helvetica,sans-Serif" font-size="10.00">parse</text>
</a>
</g>
</g>
<!-- Node1&#45;&gt;Node2 -->
<g id="edge1_Node000001_Node000002" class="edge">
<title>Node1&#45;&gt;Node2</title>
<g id="a_edge1_Node000001_Node000002"><a xlink:title=" ">
<path fill="none" stroke="#63b8ff" d="M166.27,-340C174.81,-340 183.38,-340 191.64,-340"/>
<polygon fill="#63b8ff" stroke="#63b8ff" points="191.91,-343.5 201.91,-340 191.91,-336.5 191.91,-343.5"/>
</a>
</g>
</g>
<!-- Node3 -->
<g id="Node000003" class="node">
<title>Node3</title>
<g id="a_Node000003"><a xlink:href="classweb_1_1http_1_1Parser.html#ab270fbb3109ec119665d0aafadcd2d8d" target="_top" xlink:title=" ">
<polygon fill="white" stroke="#666666" points="448,-571 343,-571 343,-541 448,-541 448,-571"/>
<text text-anchor="start" x="351" y="-559" font-family="Helvetica,sans-Serif" font-size="10.00">web::http::Parser::</text>
<text text-anchor="middle" x="395.5" y="-548" font-family="Helvetica,sans-Serif" font-size="10.00">begin</text>
</a>
</g>
</g>
<!-- Node2&#45;&gt;Node3 -->
<g id="edge2_Node000002_Node000003" class="edge">
<title>Node2&#45;&gt;Node3</title>
<g id="a_edge2_Node000002_Node000003"><a xlink:title=" ">
<path fill="none" stroke="#63b8ff" d="M258.58,-355.01C266.54,-390.29 290.9,-479.46 343,-532 343.94,-532.95 344.92,-533.86 345.94,-534.74"/>
<polygon fill="#63b8ff" stroke="#63b8ff" points="344.21,-537.81 354.36,-540.87 348.34,-532.15 344.21,-537.81"/>
</a>
</g>
</g>
<!-- Node4 -->
<g id="Node000004" class="node">
<title>Node4</title>
<g id="a_Node000004"><a xlink:href="classweb_1_1http_1_1Parser.html#a9b4196485cb33fd5dc8caa8e7c3bc568" target="_top" xlink:title=" ">
<polygon fill="white" stroke="#666666" points="448,-523 343,-523 343,-493 448,-493 448,-523"/>
<text text-anchor="start" x="351" y="-511" font-family="Helvetica,sans-Serif" font-size="10.00">web::http::Parser::</text>
<text text-anchor="middle" x="395.5" y="-500" font-family="Helvetica,sans-Serif" font-size="10.00">readContent</text>
</a>
</g>
</g>
<!-- Node2&#45;&gt;Node4 -->
<g id="edge3_Node000002_Node000004" class="edge">
<title>Node2&#45;&gt;Node4</title>
<g id="a_edge3_Node000002_Node000004"><a xlink:title=" ">
<path fill="none" stroke="#63b8ff" d="M268.08,-355.21C292.58,-384.82 346.81,-450.36 375.63,-485.2"/>
<polygon fill="#63b8ff" stroke="#63b8ff" points="372.98,-487.48 382.05,-492.95 378.37,-483.01 372.98,-487.48"/>
</a>
</g>
</g>
<!-- Node11 -->
<g id="Node000011" class="node">
<title>Node11</title>
<g id="a_Node000011"><a xlink:href="classweb_1_1http_1_1Parser.html#aef6ab45bed520f6fe3b2496e400e5389" target="_top" xlink:title=" ">
<polygon fill="white" stroke="#666666" points="448,-307 343,-307 343,-277 448,-277 448,-307"/>
<text text-anchor="start" x="351" y="-295" font-family="Helvetica,sans-Serif" font-size="10.00">web::http::Parser::</text>
<text text-anchor="middle" x="395.5" y="-284" font-family="Helvetica,sans-Serif" font-size="10.00">readHeader</text>
</a>
</g>
</g>
<!-- Node2&#45;&gt;Node11 -->
<g id="edge10_Node000002_Node000011" class="edge">
<title>Node2&#45;&gt;Node11</title>
<g id="a_edge10_Node000002_Node000011"><a xlink:title=" ">
<path fill="none" stroke="#63b8ff" d="M299.1,-324.94C312.55,-320.3 327.52,-315.13 341.54,-310.29"/>
<polygon fill="#63b8ff" stroke="#63b8ff" points="342.75,-313.57 351.06,-307 340.46,-306.96 342.75,-313.57"/>
</a>
</g>
</g>
<!-- Node30 -->
<g id="Node000030" class="node">
<title>Node30</title>
<g id="a_Node000030"><a xlink:href="classweb_1_1http_1_1Parser.html#ac4f03939d983773229932cf81ec4d5d5" target="_top" xlink:title=" ">
<polygon fill="white" stroke="#666666" points="448,-80 343,-80 343,-50 448,-50 448,-80"/>
<text text-anchor="start" x="351" y="-68" font-family="Helvetica,sans-Serif" font-size="10.00">web::http::Parser::</text>
<text text-anchor="middle" x="395.5" y="-57" font-family="Helvetica,sans-Serif" font-size="10.00">readStartLine</text>
</a>
</g>
</g>
<!-- Node2&#45;&gt;Node30 -->
<g id="edge32_Node000002_Node000030" class="edge">
<title>Node2&#45;&gt;Node30</title>
<g id="a_edge32_Node000002_Node000030"><a xlink:title=" ">
<path fill="none" stroke="#63b8ff" d="M263.17,-324.82C286.1,-279.47 354.24,-144.66 382.26,-89.22"/>
<polygon fill="#63b8ff" stroke="#63b8ff" points="385.47,-90.63 386.85,-80.13 379.22,-87.48 385.47,-90.63"/>
</a>
</g>
</g>
<!-- Node32 -->
<g id="Node000032" class="node">
<title>Node32</title>
<g id="a_Node000032"><a xlink:href="classweb_1_1http_1_1Parser.html#abc1ddad3e7024f1623f699e5b1a6f579" target="_top" xlink:title=" ">
<polygon fill="white" stroke="#666666" points="448,-355 343,-355 343,-325 448,-325 448,-355"/>
<text text-anchor="start" x="351" y="-343" font-family="Helvetica,sans-Serif" font-size="10.00">web::http::Parser::</text>
<text text-anchor="middle" x="395.5" y="-332" font-family="Helvetica,sans-Serif" font-size="10.00">readTrailer</text>
</a>
</g>
</g>
<!-- Node2&#45;&gt;Node32 -->
<g id="edge35_Node000002_Node000032" class="edge">
<title>Node2&#45;&gt;Node32</title>
<g id="a_edge35_Node000002_Node000032"><a xlink:title=" ">
<path fill="none" stroke="#63b8ff" d="M307.26,-340C315.49,-340 324.08,-340 332.51,-340"/>
<polygon fill="#63b8ff" stroke="#63b8ff" points="332.7,-343.5 342.7,-340 332.7,-336.5 332.7,-343.5"/>
</a>
</g>
</g>
<!-- Node5 -->
<g id="Node000005" class="node">
<title>Node5</title>
<g id="a_Node000005"><a xlink:href="classweb_1_1http_1_1ContentDecoder.html#adbf14c6c888b80753369c01f6fa1f901" target="_top" xlink:title=" ">
<polygon fill="white" stroke="#666666" points="631,-691 484,-691 484,-661 631,-661 631,-691"/>
<text text-anchor="start" x="492" y="-679" font-family="Helvetica,sans-Serif" font-size="10.00">web::http::ContentDecoder</text>
<text text-anchor="middle" x="557.5" y="-668" font-family="Helvetica,sans-Serif" font-size="10.00">::getContent</text>
</a>
</g>
</g>
<!-- Node4&#45;&gt;Node5 -->
<g id="edge4_Node000004_Node000005" class="edge">
<title>Node4&#45;&gt;Node5</title>
<g id="a_edge4_Node000004_Node000005"><a xlink:title=" ">
<path fill="none" stroke="#63b8ff" d="M437.62,-523.03C441.47,-525.59 445.03,-528.57 448,-532 484.43,-574.11 445.19,-612.08 484,-652 484.94,-652.96 485.91,-653.89 486.92,-654.77"/>
<polygon fill="#63b8ff" stroke="#63b8ff" points="485.13,-657.8 495.27,-660.87 489.26,-652.15 485.13,-657.8"/>
</a>
</g>
</g>
<!-- Node6 -->
<g id="Node000006" class="node">
<title>Node6</title>
<g id="a_Node000006"><a xlink:href="classweb_1_1http_1_1ContentDecoder.html#a889a8fa6bcaae53ec47d804dc995f879" target="_top" xlink:title=" ">
<polygon fill="white" stroke="#666666" points="631,-643 484,-643 484,-613 631,-613 631,-643"/>
<text text-anchor="start" x="492" y="-631" font-family="Helvetica,sans-Serif" font-size="10.00">web::http::ContentDecoder</text>
<text text-anchor="middle" x="557.5" y="-620" font-family="Helvetica,sans-Serif" font-size="10.00">::isComplete</text>
</a>
</g>
</g>
<!-- Node4&#45;&gt;Node6 -->
<g id="edge5_Node000004_Node000006" class="edge">
<title>Node4&#45;&gt;Node6</title>
<g id="a_edge5_Node000004_Node000006"><a xlink:title=" ">
<path fill="none" stroke="#63b8ff" d="M436.27,-523.09C440.51,-525.67 444.54,-528.63 448,-532 473.64,-556.95 456.95,-580.59 484,-604 485.5,-605.3 487.08,-606.53 488.72,-607.7"/>
<polygon fill="#63b8ff" stroke="#63b8ff" points="486.97,-610.73 497.32,-612.99 490.63,-604.77 486.97,-610.73"/>
</a>
</g>
</g>
<!-- Node7 -->
<g id="Node000007" class="node">
<title>Node7</title>
<g id="a_Node000007"><a xlink:href="classweb_1_1http_1_1ContentDecoder.html#a8bcbb930f2782618f8104e17fc258315" target="_top" xlink:title=" ">
<polygon fill="white" stroke="#666666" points="631,-595 484,-595 484,-565 631,-565 631,-595"/>
<text text-anchor="start" x="492" y="-583" font-family="Helvetica,sans-Serif" font-size="10.00">web::http::ContentDecoder</text>
<text text-anchor="middle" x="557.5" y="-572" font-family="Helvetica,sans-Serif" font-size="10.00">::isError</text>
</a>
</g>
</g>
<!-- Node4&#45;&gt;Node7 -->
<g id="edge6_Node000004_Node000007" class="edge">
<title>Node4&#45;&gt;Node7</title>
<g id="a_edge6_Node000004_Node000007"><a xlink:title=" ">
<path fill="none" stroke="#63b8ff" d="M430.67,-523.03C436.53,-525.86 442.5,-528.91 448,-532 464.76,-541.42 466.72,-547.57 484,-556 487.75,-557.83 491.68,-559.57 495.68,-561.23"/>
<polygon fill="#63b8ff" stroke="#63b8ff" points="494.52,-564.53 505.11,-564.9 497.07,-558.01 494.52,-564.53"/>
</a>
</g>
</g>
<!-- Node8 -->
<g id="Node000008" class="node">
<title>Node8</title>
<g id="a_Node000008"><a xlink:href="classweb_1_1http_1_1Parser.html#a177b77b847f50f969491f250fe4c2f3b" target="_top" xlink:title=" ">
<polygon fill="white" stroke="#666666" points="610,-451 505,-451 505,-421 610,-421 610,-451"/>
<text text-anchor="start" x="513" y="-439" font-family="Helvetica,sans-Serif" font-size="10.00">web::http::Parser::</text>
<text text-anchor="middle" x="557.5" y="-428" font-family="Helvetica,sans-Serif" font-size="10.00">parseError</text>
</a>
</g>
</g>
<!-- Node4&#45;&gt;Node8 -->
<g id="edge7_Node000004_Node000008" class="edge">
<title>Node4&#45;&gt;Node8</title>
<g id="a_edge7_Node000004_Node000008"><a xlink:title=" ">
<path fill="none" stroke="#63b8ff" d="M421.16,-492.89C438.36,-482.75 462.08,-469.55 484,-460 488.33,-458.11 492.86,-456.29 497.45,-454.54"/>
<polygon fill="#63b8ff" stroke="#63b8ff" points="498.72,-457.8 506.91,-451.08 496.31,-451.23 498.72,-457.8"/>
</a>
</g>
</g>
<!-- Node9 -->
<g id="Node000009" class="node">
<title>Node9</title>
<g id="a_Node000009"><a xlink:href="classweb_1_1http_1_1Parser.html#aa8a765b7241b85a1aee06c402f464f19" target="_top" xlink:title=" ">
<polygon fill="white" stroke="#666666" points="610,-499 505,-499 505,-469 610,-469 610,-499"/>
<text text-anchor="start" x="513" y="-487" font-family="Helvetica,sans-Serif" font-size="10.00">web::http::Parser::</text>
<text text-anchor="middle" x="557.5" y="-476" font-family="Helvetica,sans-Serif" font-size="10.00">parsingFinished</text>
</a>
</g>
</g>
<!-- Node4&#45;&gt;Node9 -->
<g id="edge8_Node000004_Node000009" class="edge">
<title>Node4&#45;&gt;Node9</title>
<g id="a_edge8_Node000004_Node000009"><a xlink:title=" ">
<path fill="none" stroke="#63b8ff" d="M448.01,-500.27C462.92,-498.04 479.35,-495.57 494.82,-493.25"/>
<polygon fill="#63b8ff" stroke="#63b8ff" points="495.45,-496.7 504.82,-491.75 494.41,-489.77 495.45,-496.7"/>
</a>
</g>
</g>
<!-- Node10 -->
<g id="Node000010" class="node">
<title>Node10</title>
<g id="a_Node000010"><a xlink:href="classweb_1_1http_1_1ContentDecoder.html#aa783ff5fd0e2d0f72514d6ebc0a4cd3a" target="_top" xlink:title=" ">
<polygon fill="white" stroke="#666666" points="631,-547 484,-547 484,-517 631,-517 631,-547"/>
<text text-anchor="start" x="492" y="-535" font-family="Helvetica,sans-Serif" font-size="10.00">web::http::ContentDecoder</text>
<text text-anchor="middle" x="557.5" y="-524" font-family="Helvetica,sans-Serif" font-size="10.00">::read</text>
</a>
</g>
</g>
<!-- Node4&#45;&gt;Node10 -->
<g id="edge9_Node000004_Node000010" class="edge">
<title>Node4&#45;&gt;Node10</title>
<g id="a_edge9_Node000004_Node000010"><a xlink:title=" ">
<path fill="none" stroke="#63b8ff" d="M448.01,-515.73C456.3,-516.97 465.07,-518.29 473.88,-519.61"/>
<polygon fill="#63b8ff" stroke="#63b8ff" points="473.41,-523.08 483.82,-521.1 474.45,-516.15 473.41,-523.08"/>
</a>
</g>
</g>
<!-- Node11&#45;&gt;Node8 -->
<g id="edge24_Node000011_Node000008" class="edge">
<title>Node11&#45;&gt;Node8</title>
<g id="a_edge24_Node000011_Node000008"><a xlink:title=" ">
<path fill="none" stroke="#63b8ff" d="M437.13,-307.07C441.12,-309.64 444.85,-312.6 448,-316 478.95,-349.44 451.15,-380.41 484,-412 487.52,-415.38 491.52,-418.29 495.8,-420.79"/>
<polygon fill="#63b8ff" stroke="#63b8ff" points="494.4,-424 504.91,-425.36 497.54,-417.74 494.4,-424"/>
</a>
</g>
</g>
<!-- Node12 -->
<g id="Node000012" class="node">
<title>Node12</title>
<g id="a_Node000012"><a xlink:href="classweb_1_1http_1_1Parser.html#acc6afc67cabc5f61002830e31a36868c" target="_top" xlink:title=" ">
<polygon fill="white" stroke="#666666" points="803,-225 698,-225 698,-195 803,-195 803,-225"/>
<text text-anchor="start" x="706" y="-213" font-family="Helvetica,sans-Serif" font-size="10.00">web::http::Parser::</text>
<text text-anchor="middle" x="750.5" y="-202" font-family="Helvetica,sans-Serif" font-size="10.00">analyzeHeader</text>
</a>
</g>
</g>
<!-- Node11&#45;&gt;Node12 -->
<g id="edge11_Node000011_Node000012" class="edge">
<title>Node11&#45;&gt;Node12</title>
<g id="a_edge11_Node000011_Node000012"><a xlink:title=" ">
<path fill="none" stroke="#63b8ff" d="M402.24,-276.61C413.28,-249.55 440.33,-194.2 484,-172 557.61,-134.57 656.66,-167.24 710.56,-190.85"/>
<polygon fill="#63b8ff" stroke="#63b8ff" points="709.21,-194.08 719.77,-194.98 712.08,-187.69 709.21,-194.08"/>
</a>
</g>
</g>
<!-- Node20 -->
<g id="Node000020" class="node">
<title>Node20</title>
<g id="a_Node000020"><a xlink:href="classweb_1_1http_1_1decoder_1_1Fields.html#ab2df1a150ed33a8c28a655cc250bb7c1" target="_top" xlink:title=" ">
<polygon fill="white" stroke="#666666" points="617.5,-403 497.5,-403 497.5,-373 617.5,-373 617.5,-403"/>
<text text-anchor="start" x="505.5" y="-391" font-family="Helvetica,sans-Serif" font-size="10.00">web::http::decoder</text>
<text text-anchor="middle" x="557.5" y="-380" font-family="Helvetica,sans-Serif" font-size="10.00">::Fields::getErrorCode</text>
</a>
</g>
</g>
<!-- Node11&#45;&gt;Node20 -->
<g id="edge19_Node000011_Node000020" class="edge">
<title>Node11&#45;&gt;Node20</title>
<g id="a_edge19_Node000011_Node000020"><a xlink:title=" ">
<path fill="none" stroke="#63b8ff" d="M434.63,-307.13C439.35,-309.75 443.94,-312.71 448,-316 468.71,-332.8 462.35,-348.43 484,-364 486.07,-365.49 488.24,-366.89 490.48,-368.21"/>
<polygon fill="#63b8ff" stroke="#63b8ff" points="488.95,-371.36 499.43,-372.89 492.19,-365.15 488.95,-371.36"/>
</a>
</g>
</g>
<!-- Node21 -->
<g id="Node000021" class="node">
<title>Node21</title>
<g id="a_Node000021"><a xlink:href="classweb_1_1http_1_1decoder_1_1Fields.html#a2f95154b6cf66b22cf710ef61bb03d02" target="_top" xlink:title=" ">
<polygon fill="white" stroke="#666666" points="623,-355 492,-355 492,-325 623,-325 623,-355"/>
<text text-anchor="start" x="500" y="-343" font-family="Helvetica,sans-Serif" font-size="10.00">web::http::decoder</text>
<text text-anchor="middle" x="557.5" y="-332" font-family="Helvetica,sans-Serif" font-size="10.00">::Fields::getErrorReason</text>
</a>
</g>
</g>
<!-- Node11&#45;&gt;Node21 -->
<g id="edge20_Node000011_Node000021" class="edge">
<title>Node11&#45;&gt;Node21</title>
<g id="a_edge20_Node000011_Node000021"><a xlink:title=" ">
<path fill="none" stroke="#63b8ff" d="M446.69,-307.06C462.47,-311.79 480.07,-317.07 496.46,-321.99"/>
<polygon fill="#63b8ff" stroke="#63b8ff" points="495.91,-325.48 506.49,-325 497.92,-318.77 495.91,-325.48"/>
</a>
</g>
</g>
<!-- Node22 -->
<g id="Node000022" class="node">
<title>Node22</title>
<g id="a_Node000022"><a xlink:href="classweb_1_1http_1_1decoder_1_1Fields.html#ab2232adee9daf7e87c3c247aa485d846" target="_top" xlink:title=" ">
<polygon fill="white" stroke="#666666" points="611,-307 504,-307 504,-277 611,-277 611,-307"/>
<text text-anchor="start" x="512" y="-295" font-family="Helvetica,sans-Serif" font-size="10.00">web::http::decoder</text>
<text text-anchor="middle" x="557.5" y="-284" font-family="Helvetica,sans-Serif" font-size="10.00">::Fields::getHeader</text>
</a>
</g>
</g>
<!-- Node11&#45;&gt;Node22 -->
<g id="edge21_Node000011_Node000022" class="edge">
<title>Node11&#45;&gt;Node22</title>
<g id="a_edge21_Node000011_Node000022"><a xlink:title=" ">
<path fill="none" stroke="#63b8ff" d="M448.01,-292C462.55,-292 478.55,-292 493.68,-292"/>
<polygon fill="#63b8ff" stroke="#63b8ff" points="493.99,-295.5 503.99,-292 493.99,-288.5 493.99,-295.5"/>
</a>
</g>
</g>
<!-- Node23 -->
<g id="Node000023" class="node">
<title>Node23</title>
<g id="a_Node000023"><a xlink:href="classweb_1_1http_1_1decoder_1_1Fields.html#a9ca1568b883460950da6e3cf78f99052" target="_top" xlink:title=" ">
<polygon fill="white" stroke="#666666" points="613.5,-259 501.5,-259 501.5,-229 613.5,-229 613.5,-259"/>
<text text-anchor="start" x="509.5" y="-247" font-family="Helvetica,sans-Serif" font-size="10.00">web::http::decoder</text>
<text text-anchor="middle" x="557.5" y="-236" font-family="Helvetica,sans-Serif" font-size="10.00">::Fields::isComplete</text>
</a>
</g>
</g>
<!-- Node11&#45;&gt;Node23 -->
<g id="edge22_Node000011_Node000023" class="edge">
<title>Node11&#45;&gt;Node23</title>
<g id="a_edge22_Node000011_Node000023"><a xlink:title=" ">
<path fill="none" stroke="#63b8ff" d="M446.69,-276.94C462.47,-272.21 480.07,-266.93 496.46,-262.01"/>
<polygon fill="#63b8ff" stroke="#63b8ff" points="497.92,-265.23 506.49,-259 495.91,-258.52 497.92,-265.23"/>
</a>
</g>
</g>
<!-- Node24 -->
<g id="Node000024" class="node">
<title>Node24</title>
<g id="a_Node000024"><a xlink:href="classweb_1_1http_1_1decoder_1_1Fields.html#ad44d0353761ae44a6f698b04e7734004" target="_top" xlink:title=" ">
<polygon fill="white" stroke="#666666" points="611,-211 504,-211 504,-181 611,-181 611,-211"/>
<text text-anchor="start" x="512" y="-199" font-family="Helvetica,sans-Serif" font-size="10.00">web::http::decoder</text>
<text text-anchor="middle" x="557.5" y="-188" font-family="Helvetica,sans-Serif" font-size="10.00">::Fields::isError</text>
</a>
</g>
</g>
<!-- Node11&#45;&gt;Node24 -->
<g id="edge23_Node000011_Node000024" class="edge">
<title>Node11&#45;&gt;Node24</title>
<g id="a_edge23_Node000011_Node000024"><a xlink:title=" ">
<path fill="none" stroke="#63b8ff" d="M411.33,-276.83C427.79,-260.75 455.75,-235.58 484,-220 487.27,-218.2 490.7,-216.5 494.21,-214.91"/>
<polygon fill="#63b8ff" stroke="#63b8ff" points="495.78,-218.04 503.64,-210.94 493.07,-211.59 495.78,-218.04"/>
</a>
</g>
</g>
<!-- Node25 -->
<g id="Node000025" class="node">
<title>Node25</title>
<g id="a_Node000025"><a xlink:href="classweb_1_1http_1_1decoder_1_1Fields.html#aaef8d6222145a1780cfa9c1202615168" target="_top" xlink:title=" ">
<polygon fill="white" stroke="#666666" points="611,-125 504,-125 504,-95 611,-95 611,-125"/>
<text text-anchor="start" x="512" y="-113" font-family="Helvetica,sans-Serif" font-size="10.00">web::http::decoder</text>
<text text-anchor="middle" x="557.5" y="-102" font-family="Helvetica,sans-Serif" font-size="10.00">::Fields::read</text>
</a>
</g>
</g>
<!-- Node11&#45;&gt;Node25 -->
<g id="edge25_Node000011_Node000025" class="edge">
<title>Node11&#45;&gt;Node25</title>
<g id="a_edge25_Node000011_Node000025"><a xlink:title=" ">
<path fill="none" stroke="#63b8ff" d="M401.37,-276.75C411.78,-246.44 438.98,-178.16 484,-139 487.93,-135.58 492.31,-132.54 496.91,-129.84"/>
<polygon fill="#63b8ff" stroke="#63b8ff" points="498.79,-132.8 506,-125.04 495.52,-126.61 498.79,-132.8"/>
</a>
</g>
</g>
<!-- Node13 -->
<g id="Node000013" class="node">
<title>Node13</title>
<g id="a_Node000013"><a xlink:href="classweb_1_1http_1_1decoder_1_1Chunked.html#a42d04ab20c132f0d959060e81d869102" target="_top" xlink:title=" ">
<polygon fill="white" stroke="#666666" points="1034,-383 921,-383 921,-353 1034,-353 1034,-383"/>
<text text-anchor="start" x="929" y="-371" font-family="Helvetica,sans-Serif" font-size="10.00">web::http::decoder</text>
<text text-anchor="middle" x="977.5" y="-360" font-family="Helvetica,sans-Serif" font-size="10.00">::Chunked::Chunked</text>
</a>
</g>
</g>
<!-- Node12&#45;&gt;Node13 -->
<g id="edge12_Node000012_Node000013" class="edge">
<title>Node12&#45;&gt;Node13</title>
<g id="a_edge12_Node000012_Node000013"><a xlink:title=" ">
<path fill="none" stroke="#63b8ff" d="M760.39,-225.25C777.68,-253.45 818.68,-313.64 870,-344 882.46,-351.37 896.96,-356.48 911.18,-360.02"/>
<polygon fill="#63b8ff" stroke="#63b8ff" points="910.43,-363.44 920.95,-362.23 911.97,-356.61 910.43,-363.44"/>
</a>
</g>
</g>
<!-- Node14 -->
<g id="Node000014" class="node">
<title>Node14</title>
<g id="a_Node000014"><a xlink:href="namespaceweb_1_1http.html#a1f64d7d534ae76729c7bae5e5264e5d4" target="_top" xlink:title=" ">
<polygon fill="white" stroke="#666666" points="1037,-334.5 918,-334.5 918,-315.5 1037,-315.5 1037,-334.5"/>
<text text-anchor="middle" x="977.5" y="-322.5" font-family="Helvetica,sans-Serif" font-size="10.00">web::http::ciContains</text>
</a>
</g>
</g>
<!-- Node12&#45;&gt;Node14 -->
<g id="edge13_Node000012_Node000014" class="edge">
<title>Node12&#45;&gt;Node14</title>
<g id="a_edge13_Node000012_Node000014"><a xlink:title=" ">
<path fill="none" stroke="#63b8ff" d="M765.17,-225.12C785.68,-246.78 826.65,-286.19 870,-306 881.84,-311.41 895.08,-315.29 908.09,-318.06"/>
<polygon fill="#63b8ff" stroke="#63b8ff" points="907.49,-321.51 917.97,-319.97 908.82,-314.64 907.49,-321.51"/>
</a>
</g>
</g>
<!-- Node15 -->
<g id="Node000015" class="node">
<title>Node15</title>
<g id="a_Node000015"><a xlink:href="classweb_1_1http_1_1decoder_1_1HTTP10Response.html#a919048aee24a6773ddce95f2c4c59053" target="_top" xlink:title=" ">
<polygon fill="white" stroke="#666666" points="1076.5,-297 878.5,-297 878.5,-267 1076.5,-267 1076.5,-297"/>
<text text-anchor="start" x="886.5" y="-285" font-family="Helvetica,sans-Serif" font-size="10.00">web::http::decoder</text>
<text text-anchor="middle" x="977.5" y="-274" font-family="Helvetica,sans-Serif" font-size="10.00">::HTTP10Response::HTTP10Response</text>
</a>
</g>
</g>
<!-- Node12&#45;&gt;Node15 -->
<g id="edge14_Node000012_Node000015" class="edge">
<title>Node12&#45;&gt;Node15</title>
<g id="a_edge14_Node000012_Node000015"><a xlink:title=" ">
<path fill="none" stroke="#63b8ff" d="M784.43,-225.03C807.92,-235.33 840.45,-248.75 870,-258 877.31,-260.29 884.97,-262.45 892.69,-264.47"/>
<polygon fill="#63b8ff" stroke="#63b8ff" points="891.91,-267.89 902.46,-266.96 893.63,-261.1 891.91,-267.89"/>
</a>
</g>
</g>
<!-- Node16 -->
<g id="Node000016" class="node">
<title>Node16</title>
<g id="a_Node000016"><a xlink:href="classweb_1_1http_1_1decoder_1_1Identity.html#a9fa3eac64286b0d32464e8f5928000ca" target="_top" xlink:title=" ">
<polygon fill="white" stroke="#666666" points="1031,-249 924,-249 924,-219 1031,-219 1031,-249"/>
<text text-anchor="start" x="932" y="-237" font-family="Helvetica,sans-Serif" font-size="10.00">web::http::decoder</text>
<text text-anchor="middle" x="977.5" y="-226" font-family="Helvetica,sans-Serif" font-size="10.00">::Identity::Identity</text>
</a>
</g>
</g>
<!-- Node12&#45;&gt;Node16 -->
<g id="edge15_Node000012_Node000016" class="edge">
<title>Node12&#45;&gt;Node16</title>
<g id="a_edge15_Node000012_Node000016"><a xlink:title=" ">
<path fill="none" stroke="#63b8ff" d="M803.12,-215.51C836.07,-219.02 878.98,-223.6 913.87,-227.32"/>
<polygon fill="#63b8ff" stroke="#63b8ff" points="913.64,-230.81 923.95,-228.39 914.38,-223.85 913.64,-230.81"/>
</a>
</g>
</g>
<!-- Node17 -->
<g id="Node000017" class="node">
<title>Node17</title>
<g id="a_Node000017"><a xlink:href="classweb_1_1http_1_1decoder_1_1Fields.html#a5fdc8a8ee608544378c87e97bbb97bce" target="_top" xlink:title=" ">
<polygon fill="white" stroke="#666666" points="1049.5,-201 905.5,-201 905.5,-171 1049.5,-171 1049.5,-201"/>
<text text-anchor="start" x="913.5" y="-189" font-family="Helvetica,sans-Serif" font-size="10.00">web::http::decoder</text>
<text text-anchor="middle" x="977.5" y="-178" font-family="Helvetica,sans-Serif" font-size="10.00">::Fields::setFieldsExpected</text>
</a>
</g>
</g>
<!-- Node12&#45;&gt;Node17 -->
<g id="edge16_Node000012_Node000017" class="edge">
<title>Node12&#45;&gt;Node17</title>
<g id="a_edge16_Node000012_Node000017"><a xlink:title=" ">
<path fill="none" stroke="#63b8ff" d="M803.12,-204.49C830.28,-201.6 864.21,-197.98 894.84,-194.71"/>
<polygon fill="#63b8ff" stroke="#63b8ff" points="895.52,-198.16 905.09,-193.62 894.77,-191.2 895.52,-198.16"/>
</a>
</g>
</g>
<!-- Node18 -->
<g id="Node000018" class="node">
<title>Node18</title>
<g id="a_Node000018"><a xlink:href="namespacehttputils.html#a9e46abe5c20380871f3884c9176a424d" target="_top" xlink:title=" ">
<polygon fill="white" stroke="#666666" points="1028.5,-152.5 926.5,-152.5 926.5,-133.5 1028.5,-133.5 1028.5,-152.5"/>
<text text-anchor="middle" x="977.5" y="-140.5" font-family="Helvetica,sans-Serif" font-size="10.00">httputils::str_split</text>
</a>
</g>
</g>
<!-- Node12&#45;&gt;Node18 -->
<g id="edge17_Node000012_Node000018" class="edge">
<title>Node12&#45;&gt;Node18</title>
<g id="a_edge17_Node000012_Node000018"><a xlink:title=" ">
<path fill="none" stroke="#63b8ff" d="M783.55,-194.89C807.03,-184.35 839.93,-170.67 870,-162 884.88,-157.71 901.22,-154.21 916.54,-151.44"/>
<polygon fill="#63b8ff" stroke="#63b8ff" points="917.17,-154.88 926.43,-149.73 915.98,-147.99 917.17,-154.88"/>
</a>
</g>
</g>
<!-- Node19 -->
<g id="Node000019" class="node">
<title>Node19</title>
<g id="a_Node000019"><a xlink:href="namespacehttputils.html#aaa1e55d83548ea4ebf224d695f73c874" target="_top" xlink:title=" ">
<polygon fill="white" stroke="#666666" points="1033,-115.5 922,-115.5 922,-96.5 1033,-96.5 1033,-115.5"/>
<text text-anchor="middle" x="977.5" y="-103.5" font-family="Helvetica,sans-Serif" font-size="10.00">httputils::str_trimm</text>
</a>
</g>
</g>
<!-- Node12&#45;&gt;Node19 -->
<g id="edge18_Node000012_Node000019" class="edge">
<title>Node12&#45;&gt;Node19</title>
<g id="a_edge18_Node000012_Node000019"><a xlink:title=" ">
<path fill="none" stroke="#63b8ff" d="M767.69,-194.7C789.26,-175.24 829.41,-142.13 870,-125 883.02,-119.51 897.58,-115.6 911.66,-112.82"/>
<polygon fill="#63b8ff" stroke="#63b8ff" points="912.58,-116.21 921.8,-110.99 911.34,-109.32 912.58,-116.21"/>
</a>
</g>
</g>
<!-- Node26 -->
<g id="Node000026" class="node">
<title>Node26</title>
<g id="a_Node000026"><a xlink:href="classcore_1_1socket_1_1stream_1_1SocketContext.html#a5401a6174dbad9a6637c684a0fb952d9" target="_top" xlink:title=" ">
<polygon fill="white" stroke="#666666" points="834,-78 667,-78 667,-48 834,-48 834,-78"/>
<text text-anchor="start" x="675" y="-66" font-family="Helvetica,sans-Serif" font-size="10.00">core::socket::stream</text>
<text text-anchor="middle" x="750.5" y="-55" font-family="Helvetica,sans-Serif" font-size="10.00">::SocketContext::readFromPeer</text>
</a>
</g>
</g>
<!-- Node25&#45;&gt;Node26 -->
<g id="edge26_Node000025_Node000026" class="edge">
<title>Node25&#45;&gt;Node26</title>
<g id="a_edge26_Node000025_Node000026"><a xlink:title=" ">
<path fill="none" stroke="#63b8ff" d="M611.2,-97.03C632.07,-91.9 656.38,-85.91 678.75,-80.41"/>
<polygon fill="#63b8ff" stroke="#63b8ff" points="679.66,-83.79 688.53,-78 677.99,-76.99 679.66,-83.79"/>
</a>
</g>
</g>
<!-- Node29 -->
<g id="Node000029" class="node">
<title>Node29</title>
<g id="a_Node000029"><a xlink:href="classweb_1_1http_1_1decoder_1_1Fields.html#a588e87d41393bd16be0f42e67ea9ac21" target="_top" xlink:title=" ">
<polygon fill="white" stroke="#666666" points="804,-126 697,-126 697,-96 804,-96 804,-126"/>
<text text-anchor="start" x="705" y="-114" font-family="Helvetica,sans-Serif" font-size="10.00">web::http::decoder</text>
<text text-anchor="middle" x="750.5" y="-103" font-family="Helvetica,sans-Serif" font-size="10.00">::Fields::splitLine</text>
</a>
</g>
</g>
<!-- Node25&#45;&gt;Node29 -->
<g id="edge29_Node000025_Node000029" class="edge">
<title>Node25&#45;&gt;Node29</title>
<g id="a_edge29_Node000025_Node000029"><a xlink:title=" ">
<path fill="none" stroke="#63b8ff" d="M611.2,-110.28C634.58,-110.4 662.28,-110.54 686.72,-110.67"/>
<polygon fill="#63b8ff" stroke="#63b8ff" points="686.96,-114.17 696.97,-110.72 686.99,-107.17 686.96,-114.17"/>
</a>
</g>
</g>
<!-- Node27 -->
<g id="Node000027" class="node">
<title>Node27</title>
<g id="a_Node000027"><a xlink:href="classcore_1_1socket_1_1stream_1_1SocketConnection.html#a5e26cd617f07295e8579ddb9c41bdd2c" target="_top" xlink:title=" ">
<polygon fill="white" stroke="#666666" points="1085,-78 870,-78 870,-48 1085,-48 1085,-78"/>
<text text-anchor="start" x="878" y="-66" font-family="Helvetica,sans-Serif" font-size="10.00">core::socket::stream</text>
<text text-anchor="middle" x="977.5" y="-55" font-family="Helvetica,sans-Serif" font-size="10.00">::SocketConnection::getConnectionName</text>
</a>
</g>
</g>
<!-- Node26&#45;&gt;Node27 -->
<g id="edge27_Node000026_Node000027" class="edge">
<title>Node26&#45;&gt;Node27</title>
<g id="a_edge27_Node000026_Node000027"><a xlink:title=" ">
<path fill="none" stroke="#63b8ff" d="M834,-63C842.39,-63 851.01,-63 859.67,-63"/>
<polygon fill="#63b8ff" stroke="#63b8ff" points="859.84,-66.5 869.84,-63 859.83,-59.5 859.84,-66.5"/>
</a>
</g>
</g>
<!-- Node28 -->
<g id="Node000028" class="node">
<title>Node28</title>
<g id="a_Node000028"><a xlink:href="classcore_1_1socket_1_1stream_1_1SocketConnection.html#ad150ba5503d608d9e7a679f85aa5684f" target="_top" xlink:title=" ">
<polygon fill="white" stroke="#666666" points="1069.5,-30 885.5,-30 885.5,0 1069.5,0 1069.5,-30"/>
<text text-anchor="start" x="893.5" y="-18" font-family="Helvetica,sans-Serif" font-size="10.00">core::socket::stream</text>
<text text-anchor="middle" x="977.5" y="-7" font-family="Helvetica,sans-Serif" font-size="10.00">::SocketConnection::readFromPeer</text>
</a>
</g>
</g>
<!-- Node26&#45;&gt;Node28 -->
<g id="edge28_Node000026_Node000028" class="edge">
<title>Node26&#45;&gt;Node28</title>
<g id="a_edge28_Node000026_Node000028"><a xlink:title=" ">
<path fill="none" stroke="#63b8ff" d="M822.07,-47.94C845.63,-42.92 872.06,-37.28 896.3,-32.11"/>
<polygon fill="#63b8ff" stroke="#63b8ff" points="897.13,-35.51 906.18,-30 895.67,-28.67 897.13,-35.51"/>
</a>
</g>
</g>
<!-- Node29&#45;&gt;Node18 -->
<g id="edge30_Node000029_Node000018" class="edge">
<title>Node29&#45;&gt;Node18</title>
<g id="a_edge30_Node000029_Node000018"><a xlink:title=" ">
<path fill="none" stroke="#63b8ff" d="M804.25,-118.5C837.83,-123.28 881.4,-129.48 916.32,-134.44"/>
<polygon fill="#63b8ff" stroke="#63b8ff" points="916,-137.93 926.39,-135.87 916.99,-131 916,-137.93"/>
</a>
</g>
</g>
<!-- Node29&#45;&gt;Node19 -->
<g id="edge31_Node000029_Node000019" class="edge">
<title>Node29&#45;&gt;Node19</title>
<g id="a_edge31_Node000029_Node000019"><a xlink:title=" ">
<path fill="none" stroke="#63b8ff" d="M804.25,-109.83C836.27,-109.12 877.38,-108.2 911.41,-107.45"/>
<polygon fill="#63b8ff" stroke="#63b8ff" points="911.81,-110.94 921.73,-107.22 911.65,-103.94 911.81,-110.94"/>
</a>
</g>
</g>
<!-- Node30&#45;&gt;Node26 -->
<g id="edge34_Node000030_Node000026" class="edge">
<title>Node30&#45;&gt;Node26</title>
<g id="a_edge34_Node000030_Node000026"><a xlink:title=" ">
<path fill="none" stroke="#63b8ff" d="M448.21,-64.71C502.85,-64.4 590.17,-63.9 656.77,-63.53"/>
<polygon fill="#63b8ff" stroke="#63b8ff" points="656.88,-67.02 666.86,-63.47 656.84,-60.03 656.88,-67.02"/>
</a>
</g>
</g>
<!-- Node31 -->
<g id="Node000031" class="node">
<title>Node31</title>
<g id="a_Node000031"><a xlink:href="classweb_1_1http_1_1Parser.html#a6f57a5785048d6a8d8dabd6c48befe92" target="_top" xlink:title=" ">
<polygon fill="white" stroke="#666666" points="610,-37 505,-37 505,-7 610,-7 610,-37"/>
<text text-anchor="start" x="513" y="-25" font-family="Helvetica,sans-Serif" font-size="10.00">web::http::Parser::</text>
<text text-anchor="middle" x="557.5" y="-14" font-family="Helvetica,sans-Serif" font-size="10.00">parseStartLine</text>
</a>
</g>
</g>
<!-- Node30&#45;&gt;Node31 -->
<g id="edge33_Node000030_Node000031" class="edge">
<title>Node30&#45;&gt;Node31</title>
<g id="a_edge33_Node000030_Node000031"><a xlink:title=" ">
<path fill="none" stroke="#63b8ff" d="M448.01,-51.16C462.92,-47.15 479.35,-42.73 494.82,-38.58"/>
<polygon fill="#63b8ff" stroke="#63b8ff" points="496.07,-41.87 504.82,-35.89 494.25,-35.11 496.07,-41.87"/>
</a>
</g>
</g>
<!-- Node32&#45;&gt;Node8 -->
<g id="edge41_Node000032_Node000008" class="edge">
<title>Node32&#45;&gt;Node8</title>
<g id="a_edge41_Node000032_Node000008"><a xlink:title=" ">
<path fill="none" stroke="#63b8ff" d="M411.33,-355.17C427.79,-371.25 455.75,-396.42 484,-412 487.66,-414.02 491.51,-415.9 495.46,-417.65"/>
<polygon fill="#63b8ff" stroke="#63b8ff" points="494.22,-420.93 504.79,-421.51 496.89,-414.46 494.22,-420.93"/>
</a>
</g>
</g>
<!-- Node32&#45;&gt;Node9 -->
<g id="edge42_Node000032_Node000009" class="edge">
<title>Node32&#45;&gt;Node9</title>
<g id="a_edge42_Node000032_Node000009"><a xlink:title=" ">
<path fill="none" stroke="#63b8ff" d="M403.65,-355.26C416.31,-380.65 445.05,-431.59 484,-460 487.59,-462.62 491.49,-464.97 495.54,-467.06"/>
<polygon fill="#63b8ff" stroke="#63b8ff" points="494.08,-470.24 504.63,-471.27 497.02,-463.89 494.08,-470.24"/>
</a>
</g>
</g>
<!-- Node32&#45;&gt;Node20 -->
<g id="edge36_Node000032_Node000020" class="edge">
<title>Node32&#45;&gt;Node20</title>
<g id="a_edge36_Node000032_Node000020"><a xlink:title=" ">
<path fill="none" stroke="#63b8ff" d="M446.69,-355.06C462.47,-359.79 480.07,-365.07 496.46,-369.99"/>
<polygon fill="#63b8ff" stroke="#63b8ff" points="495.91,-373.48 506.49,-373 497.92,-366.77 495.91,-373.48"/>
</a>
</g>
</g>
<!-- Node32&#45;&gt;Node21 -->
<g id="edge37_Node000032_Node000021" class="edge">
<title>Node32&#45;&gt;Node21</title>
<g id="a_edge37_Node000032_Node000021"><a xlink:title=" ">
<path fill="none" stroke="#63b8ff" d="M448.01,-340C458.82,-340 470.43,-340 481.89,-340"/>
<polygon fill="#63b8ff" stroke="#63b8ff" points="481.9,-343.5 491.9,-340 481.9,-336.5 481.9,-343.5"/>
</a>
</g>
</g>
<!-- Node32&#45;&gt;Node22 -->
<g id="edge38_Node000032_Node000022" class="edge">
<title>Node32&#45;&gt;Node22</title>
<g id="a_edge38_Node000032_Node000022"><a xlink:title=" ">
<path fill="none" stroke="#63b8ff" d="M446.69,-324.94C462.47,-320.21 480.07,-314.93 496.46,-310.01"/>
<polygon fill="#63b8ff" stroke="#63b8ff" points="497.92,-313.23 506.49,-307 495.91,-306.52 497.92,-313.23"/>
</a>
</g>
</g>
<!-- Node32&#45;&gt;Node23 -->
<g id="edge39_Node000032_Node000023" class="edge">
<title>Node32&#45;&gt;Node23</title>
<g id="a_edge39_Node000032_Node000023"><a xlink:title=" ">
<path fill="none" stroke="#63b8ff" d="M434.63,-324.87C439.35,-322.25 443.94,-319.29 448,-316 468.71,-299.2 462.35,-283.57 484,-268 486.64,-266.1 489.43,-264.35 492.33,-262.73"/>
<polygon fill="#63b8ff" stroke="#63b8ff" points="493.91,-265.85 501.3,-258.26 490.79,-259.59 493.91,-265.85"/>
</a>
</g>
</g>
<!-- Node32&#45;&gt;Node24 -->
<g id="edge40_Node000032_Node000024" class="edge">
<title>Node32&#45;&gt;Node24</title>
<g id="a_edge40_Node000032_Node000024"><a xlink:title=" ">
<path fill="none" stroke="#63b8ff" d="M437.13,-324.93C441.12,-322.36 444.85,-319.4 448,-316 478.95,-282.56 451.15,-251.59 484,-220 487.26,-216.87 490.94,-214.14 494.87,-211.77"/>
<polygon fill="#63b8ff" stroke="#63b8ff" points="496.53,-214.85 503.79,-207.13 493.31,-208.64 496.53,-214.85"/>
</a>
</g>
</g>
<!-- Node32&#45;&gt;Node25 -->
<g id="edge43_Node000032_Node000025" class="edge">
<title>Node32&#45;&gt;Node25</title>
<g id="a_edge43_Node000032_Node000025"><a xlink:title=" ">
<path fill="none" stroke="#63b8ff" d="M438.28,-324.77C441.9,-322.25 445.24,-319.35 448,-316 489.98,-265.11 449.29,-228.1 484,-172 493.98,-155.87 509.54,-141.77 523.69,-131.1"/>
<polygon fill="#63b8ff" stroke="#63b8ff" points="525.76,-133.93 531.81,-125.23 521.65,-128.25 525.76,-133.93"/>
</a>
</g>
</g>
</g>
</svg>

<g id="navigator" transform="translate(0 0)" fill="#404254">
  <rect fill="#f2f5e9" fill-opacity="0.5" stroke="#606060" stroke-width=".5" x="0" y="0" width="60" height="60"/>
  <use id="zoomplus" xlink:href="#zoomPlus" x="17" y="9" onmousedown="handleZoom(evt,'in')"/>
  <use id="zoomminus" xlink:href="#zoomMin" x="42" y="9" onmousedown="handleZoom(evt,'out')"/>
  <use id="reset" xlink:href="#resetDef" x="30" y="36" onmousedown="handleReset()"/>
   <use id="arrowup" xlink:href="#arrowUp" x="0" y="0" onmousedown="handlePan(0,-1)"/>
  <use id="arrowright" xlink:href="#arrowRight" x="0" y="0" onmousedown="handlePan(1,0)"/>
  <use id="arrowdown" xlink:href="#arrowDown" x="0" y="0" onmousedown="handlePan(0,1)"/>
  <use id="arrowleft" xlink:href="#arrowLeft" x="0" y="0" onmousedown="handlePan(-1,0)"/>
</g>
<svg viewBox="0 0 15 15" width="100%" height="30px" preserveAspectRatio="xMaxYMin meet">
 <g id="arrow_out" transform="scale(0.3 0.3)">
  <a xlink:href="classapps_1_1http_1_1SimpleSocketProtocol_afd3ecdfb4d988ac77198f7db44e2200c_cgraph_org.svg" target="_base">
   <rect id="button" ry="5" rx="5" y="6" x="6" height="38" width="38"
        fill="#f2f5e9" fill-opacity="0.5" stroke="#606060" stroke-width="1.0"/>
   <path id="arrow"
     d="M 11.500037,31.436501 C 11.940474,20.09759 22.043105,11.32322 32.158766,21.979434 L 37.068811,17.246167 C 37.068811,17.246167 37.088388,32 37.088388,32 L 22.160133,31.978069 C 22.160133,31.978069 26.997745,27.140456 26.997745,27.140456 C 18.528582,18.264221 13.291696,25.230495 11.500037,31.436501 z"
     style="fill:#404040;"/>
  </a>
 </g>
</svg>

<style type='text/css'>
<![CDATA[
[data-mouse-over-selected='false'] { opacity: 0.7; }
[data-mouse-over-selected='true']  { opacity: 1.0; }
]]>
</style>
<script type="application/ecmascript"><![CDATA[
document.addEventListener('DOMContentLoaded', (event) => {
  highlightEdges();
  highlightAdjacentNodes();
});
]]></script>
</svg>
