<?xml version="1.0" encoding="UTF-8" standalone="no"?>
<!DOCTYPE svg PUBLIC "-//W3C//DTD SVG 1.1//EN"
 "http://www.w3.org/Graphics/SVG/1.1/DTD/svg11.dtd">
<!-- Generated by graphviz version 2.42.4 (0)
 -->
<!-- Title: iot::mqtt_fast::ControlPacket Pages: 1 -->
<svg width="256pt" height="310pt"
 viewBox="0.00 0.00 256.00 310.00" xmlns="http://www.w3.org/2000/svg" xmlns:xlink="http://www.w3.org/1999/xlink">

<svg id="main" version="1.1" xmlns="http://www.w3.org/2000/svg" xmlns:xlink="http://www.w3.org/1999/xlink" xml:space="preserve">

<style type="text/css"><![CDATA[
.node, .edge {opacity: 0.7;}
.node.selected, .edge.selected {opacity: 1;}
.edge:hover path { stroke: red; }
.edge:hover polygon { stroke: red; fill: red; }
]]></style>
<script type="application/ecmascript" xlink:href="svg.min.js"/>
<svg id="graph" class="graph">
<g id="graph0" class="graph" transform="scale(1 1) rotate(0) translate(4 306)">
<title>iot::mqtt_fast::ControlPacket</title>
<!-- Node1 -->
<g id="Node000001" class="node">
<title>Node1</title>
<g id="a_Node000001"><a xlink:title=" ">
<polygon fill="#999999" stroke="transparent" points="239,-19 91,-19 91,0 239,0 239,-19"/>
<text text-anchor="start" x="95" y="-6.5" font-family="Helvetica,sans-Serif" font-size="10.00">iot::mqtt_fast::ControlPacket</text>
<polygon fill="none" stroke="#666666" points="91,0 91,-19 239,-19 239,0 91,0"/>
</a>
</g>
</g>
<!-- Node2 -->
<g id="Node000002" class="node">
<title>Node2</title>
<g id="a_Node000002"><a xlink:href="classiot_1_1mqtt__fast_1_1types_1_1Binary.html" target="_top" xlink:title=" ">
<polygon fill="white" stroke="transparent" points="219,-102 111,-102 111,-72 219,-72 219,-102"/>
<text text-anchor="start" x="115" y="-90" font-family="Helvetica,sans-Serif" font-size="10.00">iot::mqtt_fast::types</text>
<text text-anchor="start" x="146" y="-79" font-family="Helvetica,sans-Serif" font-size="10.00">::Binary</text>
<polygon fill="none" stroke="#666666" points="111,-72 111,-102 219,-102 219,-72 111,-72"/>
</a>
</g>
</g>
<!-- Node2&#45;&gt;Node1 -->
<g id="edge1_Node000001_Node000002" class="edge">
<title>Node2&#45;&gt;Node1</title>
<g id="a_edge1_Node000001_Node000002"><a xlink:title=" ">
<path fill="none" stroke="#63b8ff" d="M165,-71.8C165,-60.38 165,-44.18 165,-31.3"/>
<polygon fill="none" stroke="#63b8ff" points="165,-31.01 161,-25.01 165,-19.01 169,-25.01 165,-31.01"/>
</a>
</g>
<text text-anchor="start" x="168" y="-42.5" font-family="Helvetica,sans-Serif" font-size="10.00" fill="grey">&#45;data</text>
</g>
<!-- Node3 -->
<g id="Node000003" class="node">
<title>Node3</title>
<g id="a_Node000003"><a xlink:href="classiot_1_1mqtt__fast_1_1types_1_1TypeBase.html" target="_top" xlink:title=" ">
<polygon fill="white" stroke="transparent" points="126,-230 18,-230 18,-200 126,-200 126,-230"/>
<text text-anchor="start" x="22" y="-218" font-family="Helvetica,sans-Serif" font-size="10.00">iot::mqtt_fast::types</text>
<text text-anchor="start" x="45.5" y="-207" font-family="Helvetica,sans-Serif" font-size="10.00">::TypeBase</text>
<polygon fill="none" stroke="#666666" points="18,-200 18,-230 126,-230 126,-200 18,-200"/>
</a>
</g>
</g>
<!-- Node3&#45;&gt;Node2 -->
<g id="edge2_Node000002_Node000003" class="edge">
<title>Node3&#45;&gt;Node2</title>
<g id="a_edge2_Node000002_Node000003"><a xlink:title=" ">
<path fill="none" stroke="#63b8ff" d="M88.65,-191.44C107.73,-165.59 138.41,-124.02 154.46,-102.29"/>
<polygon fill="none" stroke="#63b8ff" points="85.79,-189.42 82.67,-199.55 91.42,-193.58 85.79,-189.42"/>
</a>
</g>
</g>
<!-- Node4 -->
<g id="Node000004" class="node">
<title>Node4</title>
<g id="a_Node000004"><a xlink:href="classcore_1_1socket_1_1SocketContext.html" target="_top" xlink:title=" ">
<polygon fill="white" stroke="transparent" points="144,-302 0,-302 0,-283 144,-283 144,-302"/>
<text text-anchor="start" x="4" y="-289.5" font-family="Helvetica,sans-Serif" font-size="10.00">core::socket::SocketContext</text>
<polygon fill="none" stroke="#666666" points="0,-283 0,-302 144,-302 144,-283 0,-283"/>
</a>
</g>
</g>
<!-- Node4&#45;&gt;Node3 -->
<g id="edge3_Node000003_Node000004" class="edge">
<title>Node4&#45;&gt;Node3</title>
<g id="a_edge3_Node000003_Node000004"><a xlink:title=" ">
<path fill="none" stroke="#63b8ff" d="M72,-282.84C72,-272.99 72,-256.45 72,-242.29"/>
<polygon fill="none" stroke="#63b8ff" points="72,-242.21 68,-236.21 72,-230.21 76,-236.21 72,-242.21"/>
</a>
</g>
<text text-anchor="start" x="75.5" y="-253.5" font-family="Helvetica,sans-Serif" font-size="10.00" fill="grey">#socketContext</text>
</g>
<!-- Node5 -->
<g id="Node000005" class="node">
<title>Node5</title>
<g id="a_Node000005"><a xlink:title=" ">
<polygon fill="white" stroke="transparent" points="248,-224.5 144,-224.5 144,-205.5 248,-205.5 248,-224.5"/>
<text text-anchor="start" x="148" y="-212" font-family="Helvetica,sans-Serif" font-size="10.00">std::vector&lt; char &gt;</text>
<polygon fill="none" stroke="#666666" points="144,-205.5 144,-224.5 248,-224.5 248,-205.5 144,-205.5"/>
</a>
</g>
</g>
<!-- Node5&#45;&gt;Node2 -->
<g id="edge4_Node000002_Node000005" class="edge">
<title>Node5&#45;&gt;Node2</title>
<g id="a_edge4_Node000002_Node000005"><a xlink:title=" ">
<path fill="none" stroke="#63b8ff" d="M193.87,-205.34C189.31,-186.82 178.47,-142.76 171.45,-114.21"/>
<polygon fill="none" stroke="#63b8ff" points="171.39,-113.98 166.08,-109.11 168.53,-102.33 173.84,-107.2 171.39,-113.98"/>
</a>
</g>
<text text-anchor="start" x="190" y="-171" font-family="Helvetica,sans-Serif" font-size="10.00" fill="grey">&#45;binary</text>
<text text-anchor="start" x="190" y="-156" font-family="Helvetica,sans-Serif" font-size="10.00" fill="grey">&#45;length</text>
<text text-anchor="start" x="190" y="-141" font-family="Helvetica,sans-Serif" font-size="10.00" fill="grey">&#45;needed</text>
<text text-anchor="start" x="190" y="-126" font-family="Helvetica,sans-Serif" font-size="10.00" fill="grey">&#45;pointer</text>
</g>
</g>
</svg>
</svg>

<style type='text/css'>
<![CDATA[
[data-mouse-over-selected='false'] { opacity: 0.7; }
[data-mouse-over-selected='true']  { opacity: 1.0; }
]]>
</style>
<script type="application/ecmascript"><![CDATA[
document.addEventListener('DOMContentLoaded', (event) => {
  highlightEdges();
  highlightAdjacentNodes();
});
]]></script>
</svg>
