<?xml version="1.0" encoding="UTF-8" standalone="no"?>
<!DOCTYPE svg PUBLIC "-//W3C//DTD SVG 1.1//EN"
 "http://www.w3.org/Graphics/SVG/1.1/DTD/svg11.dtd">
<!-- Generated by graphviz version 2.43.0 (0)
 -->
<!-- Title: net::phy::PhysicalSocket&lt; SocketAddressT &gt; Pages: 1 -->
<svg width="393pt" height="225pt"
 viewBox="0.00 0.00 393.00 225.00" xmlns="http://www.w3.org/2000/svg" xmlns:xlink="http://www.w3.org/1999/xlink">
<g id="graph0" class="graph" transform="scale(1 1) rotate(0) translate(4 221)">
<title>net::phy::PhysicalSocket&lt; SocketAddressT &gt;</title>
<!-- Node1 -->
<g id="Node000001" class="node">
<title>Node1</title>
<g id="a_Node000001"><a xlink:title=" ">
<polygon fill="#999999" stroke="transparent" points="201,-162 83,-162 83,-132 201,-132 201,-162"/>
<text text-anchor="start" x="87" y="-150" font-family="Helvetica,sans-Serif" font-size="10.00">net::phy::PhysicalSocket</text>
<text text-anchor="start" x="96.5" y="-139" font-family="Helvetica,sans-Serif" font-size="10.00">&lt; SocketAddressT &gt;</text>
<polygon fill="none" stroke="#666666" points="83,-132 83,-162 201,-162 201,-132 83,-132"/>
</a>
</g>
</g>
<!-- Node3 -->
<g id="Node000003" class="node">
<title>Node3</title>
<g id="a_Node000003"><a xlink:href="classnet_1_1phy_1_1dgram_1_1PeerSocket.html" target="_top" xlink:title=" ">
<polygon fill="white" stroke="transparent" points="134,-96 0,-96 0,-66 134,-66 134,-96"/>
<text text-anchor="start" x="4" y="-84" font-family="Helvetica,sans-Serif" font-size="10.00">net::phy::dgram::PeerSocket</text>
<text text-anchor="start" x="21.5" y="-73" font-family="Helvetica,sans-Serif" font-size="10.00">&lt; SocketAddressT &gt;</text>
<polygon fill="none" stroke="#666666" points="0,-66 0,-96 134,-96 134,-66 0,-66"/>
</a>
</g>
</g>
<!-- Node1&#45;&gt;Node3 -->
<g id="edge2_Node000001_Node000003" class="edge">
<title>Node1&#45;&gt;Node3</title>
<g id="a_edge2_Node000001_Node000003"><a xlink:title=" ">
<path fill="none" stroke="#63b8ff" d="M117.63,-125.2C106.49,-115.7 93.59,-104.69 83.6,-96.16"/>
<polygon fill="none" stroke="#63b8ff" points="115.48,-127.97 125.36,-131.8 120.02,-122.64 115.48,-127.97"/>
</a>
</g>
</g>
<!-- Node4 -->
<g id="Node000004" class="node">
<title>Node4</title>
<g id="a_Node000004"><a xlink:href="classnet_1_1phy_1_1stream_1_1PhysicalSocket.html" target="_top" xlink:title=" ">
<polygon fill="white" stroke="transparent" points="282,-96 152,-96 152,-66 282,-66 282,-96"/>
<text text-anchor="start" x="156" y="-84" font-family="Helvetica,sans-Serif" font-size="10.00">net::phy::stream::Physical</text>
<text text-anchor="start" x="156" y="-73" font-family="Helvetica,sans-Serif" font-size="10.00">Socket&lt; SocketAddressT &gt;</text>
<polygon fill="none" stroke="#666666" points="152,-66 152,-96 282,-96 282,-66 152,-66"/>
</a>
</g>
</g>
<!-- Node1&#45;&gt;Node4 -->
<g id="edge3_Node000001_Node000004" class="edge">
<title>Node1&#45;&gt;Node4</title>
<g id="a_edge3_Node000001_Node000004"><a xlink:title=" ">
<path fill="none" stroke="#63b8ff" d="M166.37,-125.2C177.51,-115.7 190.41,-104.69 200.4,-96.16"/>
<polygon fill="none" stroke="#63b8ff" points="163.98,-122.64 158.64,-131.8 168.52,-127.97 163.98,-122.64"/>
</a>
</g>
</g>
<!-- Node2 -->
<g id="Node000002" class="node">
<title>Node2</title>
<g id="a_Node000002"><a xlink:href="classcore_1_1Descriptor.html" target="_top" xlink:title=" ">
<polygon fill="white" stroke="transparent" points="181,-217 103,-217 103,-198 181,-198 181,-217"/>
<text text-anchor="start" x="107" y="-204.5" font-family="Helvetica,sans-Serif" font-size="10.00">core::Descriptor</text>
<polygon fill="none" stroke="#666666" points="103,-198 103,-217 181,-217 181,-198 103,-198"/>
</a>
</g>
</g>
<!-- Node2&#45;&gt;Node1 -->
<g id="edge1_Node000001_Node000002" class="edge">
<title>Node2&#45;&gt;Node1</title>
<g id="a_edge1_Node000001_Node000002"><a xlink:title=" ">
<path fill="none" stroke="#63b8ff" d="M142,-187.65C142,-179.36 142,-169.78 142,-162.11"/>
<polygon fill="none" stroke="#63b8ff" points="138.5,-187.87 142,-197.87 145.5,-187.87 138.5,-187.87"/>
</a>
</g>
</g>
<!-- Node5 -->
<g id="Node000005" class="node">
<title>Node5</title>
<g id="a_Node000005"><a xlink:href="classnet_1_1phy_1_1stream_1_1PhysicalSocketClient.html" target="_top" xlink:title=" ">
<polygon fill="white" stroke="transparent" points="207,-30 51,-30 51,0 207,0 207,-30"/>
<text text-anchor="start" x="55" y="-18" font-family="Helvetica,sans-Serif" font-size="10.00">net::phy::stream::Physical</text>
<text text-anchor="start" x="55" y="-7" font-family="Helvetica,sans-Serif" font-size="10.00">SocketClient&lt; SocketAddressT &gt;</text>
<polygon fill="none" stroke="#666666" points="51,0 51,-30 207,-30 207,0 51,0"/>
</a>
</g>
</g>
<!-- Node4&#45;&gt;Node5 -->
<g id="edge4_Node000004_Node000005" class="edge">
<title>Node4&#45;&gt;Node5</title>
<g id="a_edge4_Node000004_Node000005"><a xlink:title=" ">
<path fill="none" stroke="#63b8ff" d="M189.16,-59.75C175.93,-50.13 160.43,-38.86 148.48,-30.16"/>
<polygon fill="none" stroke="#63b8ff" points="187.32,-62.75 197.47,-65.8 191.44,-57.08 187.32,-62.75"/>
</a>
</g>
</g>
<!-- Node6 -->
<g id="Node000006" class="node">
<title>Node6</title>
<g id="a_Node000006"><a xlink:href="classnet_1_1phy_1_1stream_1_1PhysicalSocketServer.html" target="_top" xlink:title=" ">
<polygon fill="white" stroke="transparent" points="385,-30 225,-30 225,0 385,0 385,-30"/>
<text text-anchor="start" x="229.5" y="-18" font-family="Helvetica,sans-Serif" font-size="10.00">net::phy::stream::Physical</text>
<text text-anchor="start" x="229.5" y="-7" font-family="Helvetica,sans-Serif" font-size="10.00">SocketServer&lt; SocketAddressT &gt;</text>
<polygon fill="none" stroke="#666666" points="225,0 225,-30 385,-30 385,0 225,0"/>
</a>
</g>
</g>
<!-- Node4&#45;&gt;Node6 -->
<g id="edge5_Node000004_Node000006" class="edge">
<title>Node4&#45;&gt;Node6</title>
<g id="a_edge5_Node000004_Node000006"><a xlink:title=" ">
<path fill="none" stroke="#63b8ff" d="M244.84,-59.75C258.07,-50.13 273.57,-38.86 285.52,-30.16"/>
<polygon fill="none" stroke="#63b8ff" points="242.56,-57.08 236.53,-65.8 246.68,-62.75 242.56,-57.08"/>
</a>
</g>
</g>
</g>
</svg>
