<?xml version="1.0" encoding="UTF-8" standalone="no"?>
<!DOCTYPE svg PUBLIC "-//W3C//DTD SVG 1.1//EN"
 "http://www.w3.org/Graphics/SVG/1.1/DTD/svg11.dtd">
<!-- Generated by graphviz version 2.43.0 (0)
 -->
<!-- Title: core::EventMultiplexer::releaseExpiredResources Pages: 1 -->
<svg width="907pt" height="350pt"
 viewBox="0.00 0.00 907.00 350.00" xmlns="http://www.w3.org/2000/svg" xmlns:xlink="http://www.w3.org/1999/xlink">
<g id="graph0" class="graph" transform="scale(1 1) rotate(0) translate(4 346)">
<title>core::EventMultiplexer::releaseExpiredResources</title>
<!-- Node1 -->
<g id="Node000001" class="node">
<title>Node1</title>
<g id="a_Node000001"><a xlink:title=" ">
<polygon fill="#999999" stroke="#666666" points="146,-174 0,-174 0,-144 146,-144 146,-174"/>
<text text-anchor="start" x="8" y="-162" font-family="Helvetica,sans-Serif" font-size="10.00">core::EventMultiplexer</text>
<text text-anchor="middle" x="73" y="-151" font-family="Helvetica,sans-Serif" font-size="10.00">::releaseExpiredResources</text>
</a>
</g>
</g>
<!-- Node2 -->
<g id="Node000002" class="node">
<title>Node2</title>
<g id="a_Node000002"><a xlink:href="classcore_1_1DynamicLoader.html#a8c4d850882c7177f93a543b96eb450a0" target="_top" xlink:title=" ">
<polygon fill="white" stroke="#666666" points="327.5,-270 203.5,-270 203.5,-240 327.5,-240 327.5,-270"/>
<text text-anchor="start" x="211.5" y="-258" font-family="Helvetica,sans-Serif" font-size="10.00">core::DynamicLoader</text>
<text text-anchor="middle" x="265.5" y="-247" font-family="Helvetica,sans-Serif" font-size="10.00">::execDlCloseDeleyed</text>
</a>
</g>
</g>
<!-- Node1&#45;&gt;Node2 -->
<g id="edge1_Node000001_Node000002" class="edge">
<title>Node1&#45;&gt;Node2</title>
<g id="a_edge1_Node000001_Node000002"><a xlink:title=" ">
<path fill="none" stroke="#63b8ff" d="M103.77,-174C136.52,-190.51 189.31,-217.11 225.38,-235.29"/>
<polygon fill="#63b8ff" stroke="#63b8ff" points="224.12,-238.57 234.63,-239.95 227.27,-232.32 224.12,-238.57"/>
</a>
</g>
</g>
<!-- Node8 -->
<g id="Node000008" class="node">
<title>Node8</title>
<g id="a_Node000008"><a xlink:href="classcore_1_1DescriptorEventPublisher.html#a75b032abf55f5bc5cacc69690f9f02e3" target="_top" xlink:title=" ">
<polygon fill="white" stroke="#666666" points="349,-174 182,-174 182,-144 349,-144 349,-174"/>
<text text-anchor="start" x="190" y="-162" font-family="Helvetica,sans-Serif" font-size="10.00">core::DescriptorEventPublisher</text>
<text text-anchor="middle" x="265.5" y="-151" font-family="Helvetica,sans-Serif" font-size="10.00">::releaseDisabledEvents</text>
</a>
</g>
</g>
<!-- Node1&#45;&gt;Node8 -->
<g id="edge7_Node000001_Node000008" class="edge">
<title>Node1&#45;&gt;Node8</title>
<g id="a_edge7_Node000001_Node000008"><a xlink:title=" ">
<path fill="none" stroke="#63b8ff" d="M146.02,-159C154.43,-159 163.09,-159 171.73,-159"/>
<polygon fill="#63b8ff" stroke="#63b8ff" points="171.83,-162.5 181.83,-159 171.83,-155.5 171.83,-162.5"/>
</a>
</g>
</g>
<!-- Node16 -->
<g id="Node000016" class="node">
<title>Node16</title>
<g id="a_Node000016"><a xlink:href="classcore_1_1TimerEventPublisher.html#a7064625a77fa629ae729f73b839e4264" target="_top" xlink:title=" ">
<polygon fill="white" stroke="#666666" points="337.5,-78 193.5,-78 193.5,-48 337.5,-48 337.5,-78"/>
<text text-anchor="start" x="201.5" y="-66" font-family="Helvetica,sans-Serif" font-size="10.00">core::TimerEventPublisher</text>
<text text-anchor="middle" x="265.5" y="-55" font-family="Helvetica,sans-Serif" font-size="10.00">::unobserveDisableEvents</text>
</a>
</g>
</g>
<!-- Node1&#45;&gt;Node16 -->
<g id="edge15_Node000001_Node000016" class="edge">
<title>Node1&#45;&gt;Node16</title>
<g id="a_edge15_Node000001_Node000016"><a xlink:title=" ">
<path fill="none" stroke="#63b8ff" d="M103.77,-144C136.52,-127.49 189.31,-100.89 225.38,-82.71"/>
<polygon fill="#63b8ff" stroke="#63b8ff" points="227.27,-85.68 234.63,-78.05 224.12,-79.43 227.27,-85.68"/>
</a>
</g>
</g>
<!-- Node3 -->
<g id="Node000003" class="node">
<title>Node3</title>
<g id="a_Node000003"><a xlink:href="classcore_1_1DynamicLoader.html#ac5caf32e25a9eeb3fa463f924b0642fa" target="_top" xlink:title=" ">
<polygon fill="white" stroke="#666666" points="528.5,-318 408.5,-318 408.5,-288 528.5,-288 528.5,-318"/>
<text text-anchor="start" x="416.5" y="-306" font-family="Helvetica,sans-Serif" font-size="10.00">core::DynamicLoader</text>
<text text-anchor="middle" x="468.5" y="-295" font-family="Helvetica,sans-Serif" font-size="10.00">::dlClose</text>
</a>
</g>
</g>
<!-- Node2&#45;&gt;Node3 -->
<g id="edge2_Node000002_Node000003" class="edge">
<title>Node2&#45;&gt;Node3</title>
<g id="a_edge2_Node000002_Node000003"><a xlink:title=" ">
<path fill="none" stroke="#63b8ff" d="M327.63,-269.6C349.96,-274.93 375.38,-281 398.36,-286.49"/>
<polygon fill="#63b8ff" stroke="#63b8ff" points="397.85,-289.97 408.39,-288.88 399.48,-283.16 397.85,-289.97"/>
</a>
</g>
</g>
<!-- Node4 -->
<g id="Node000004" class="node">
<title>Node4</title>
<g id="a_Node000004"><a xlink:href="classcore_1_1DynamicLoader.html#a28d14f3029339351d8bb8b328a6110b0" target="_top" xlink:title=" ">
<polygon fill="white" stroke="#666666" points="717,-342 597,-342 597,-312 717,-312 717,-342"/>
<text text-anchor="start" x="605" y="-330" font-family="Helvetica,sans-Serif" font-size="10.00">core::DynamicLoader</text>
<text text-anchor="middle" x="657" y="-319" font-family="Helvetica,sans-Serif" font-size="10.00">::dlError</text>
</a>
</g>
</g>
<!-- Node3&#45;&gt;Node4 -->
<g id="edge3_Node000003_Node000004" class="edge">
<title>Node3&#45;&gt;Node4</title>
<g id="a_edge3_Node000003_Node000004"><a xlink:title=" ">
<path fill="none" stroke="#63b8ff" d="M528.51,-310.59C546.96,-312.97 567.49,-315.61 586.59,-318.07"/>
<polygon fill="#63b8ff" stroke="#63b8ff" points="586.37,-321.57 596.73,-319.37 587.26,-314.63 586.37,-321.57"/>
</a>
</g>
</g>
<!-- Node6 -->
<g id="Node000006" class="node">
<title>Node6</title>
<g id="a_Node000006"><a xlink:href="classcore_1_1DynamicLoader.html#a32f0c49018bd2dbc53de83963dd3a3d0" target="_top" xlink:title=" ">
<polygon fill="white" stroke="#666666" points="717,-294 597,-294 597,-264 717,-264 717,-294"/>
<text text-anchor="start" x="605" y="-282" font-family="Helvetica,sans-Serif" font-size="10.00">core::DynamicLoader</text>
<text text-anchor="middle" x="657" y="-271" font-family="Helvetica,sans-Serif" font-size="10.00">::realExecDlClose</text>
</a>
</g>
</g>
<!-- Node3&#45;&gt;Node6 -->
<g id="edge5_Node000003_Node000006" class="edge">
<title>Node3&#45;&gt;Node6</title>
<g id="a_edge5_Node000003_Node000006"><a xlink:title=" ">
<path fill="none" stroke="#63b8ff" d="M528.51,-295.41C546.96,-293.03 567.49,-290.39 586.59,-287.93"/>
<polygon fill="#63b8ff" stroke="#63b8ff" points="587.26,-291.37 596.73,-286.63 586.37,-284.43 587.26,-291.37"/>
</a>
</g>
</g>
<!-- Node5 -->
<g id="Node000005" class="node">
<title>Node5</title>
<g id="a_Node000005"><a xlink:href="namespacecore_1_1system.html#ad04dc647899e7a1c52498190f5e16f1c" target="_top" xlink:title=" ">
<polygon fill="white" stroke="#666666" points="889.5,-336.5 771.5,-336.5 771.5,-317.5 889.5,-317.5 889.5,-336.5"/>
<text text-anchor="middle" x="830.5" y="-324.5" font-family="Helvetica,sans-Serif" font-size="10.00">core::system::dlerror</text>
</a>
</g>
</g>
<!-- Node4&#45;&gt;Node5 -->
<g id="edge4_Node000004_Node000005" class="edge">
<title>Node4&#45;&gt;Node5</title>
<g id="a_edge4_Node000004_Node000005"><a xlink:title=" ">
<path fill="none" stroke="#63b8ff" d="M717.02,-327C731.13,-327 746.32,-327 760.82,-327"/>
<polygon fill="#63b8ff" stroke="#63b8ff" points="761.24,-330.5 771.24,-327 761.24,-323.5 761.24,-330.5"/>
</a>
</g>
</g>
<!-- Node7 -->
<g id="Node000007" class="node">
<title>Node7</title>
<g id="a_Node000007"><a xlink:href="namespacecore_1_1system.html#a4317d54914cd18248143183ea71252d3" target="_top" xlink:title=" ">
<polygon fill="white" stroke="#666666" points="890.5,-288.5 770.5,-288.5 770.5,-269.5 890.5,-269.5 890.5,-288.5"/>
<text text-anchor="middle" x="830.5" y="-276.5" font-family="Helvetica,sans-Serif" font-size="10.00">core::system::dlclose</text>
</a>
</g>
</g>
<!-- Node6&#45;&gt;Node7 -->
<g id="edge6_Node000006_Node000007" class="edge">
<title>Node6&#45;&gt;Node7</title>
<g id="a_edge6_Node000006_Node000007"><a xlink:title=" ">
<path fill="none" stroke="#63b8ff" d="M717.02,-279C730.9,-279 745.82,-279 760.1,-279"/>
<polygon fill="#63b8ff" stroke="#63b8ff" points="760.37,-282.5 770.37,-279 760.37,-275.5 760.37,-282.5"/>
</a>
</g>
</g>
<!-- Node9 -->
<g id="Node000009" class="node">
<title>Node9</title>
<g id="a_Node000009"><a xlink:href="classcore_1_1DescriptorEventReceiver.html#ac80fc901f941c059a6ebdb28147b25a2" target="_top" xlink:title=" ">
<polygon fill="white" stroke="#666666" points="550.5,-270 386.5,-270 386.5,-240 550.5,-240 550.5,-270"/>
<text text-anchor="start" x="394.5" y="-258" font-family="Helvetica,sans-Serif" font-size="10.00">core::DescriptorEventReceiver</text>
<text text-anchor="middle" x="468.5" y="-247" font-family="Helvetica,sans-Serif" font-size="10.00">::isSuspended</text>
</a>
</g>
</g>
<!-- Node8&#45;&gt;Node9 -->
<g id="edge8_Node000008_Node000009" class="edge">
<title>Node8&#45;&gt;Node9</title>
<g id="a_edge8_Node000008_Node000009"><a xlink:title=" ">
<path fill="none" stroke="#63b8ff" d="M287.41,-174.05C310.4,-190.02 348.86,-215.1 385,-231 389.46,-232.96 394.12,-234.81 398.87,-236.55"/>
<polygon fill="#63b8ff" stroke="#63b8ff" points="398.08,-239.98 408.68,-239.96 400.38,-233.37 398.08,-239.98"/>
</a>
</g>
</g>
<!-- Node10 -->
<g id="Node000010" class="node">
<title>Node10</title>
<g id="a_Node000010"><a xlink:href="classcore_1_1DescriptorEventPublisher.html#a28bc1eb205ca9783d96a4bfedf344e8f" target="_top" xlink:title=" ">
<polygon fill="white" stroke="#666666" points="552,-222 385,-222 385,-192 552,-192 552,-222"/>
<text text-anchor="start" x="393" y="-210" font-family="Helvetica,sans-Serif" font-size="10.00">core::DescriptorEventPublisher</text>
<text text-anchor="middle" x="468.5" y="-199" font-family="Helvetica,sans-Serif" font-size="10.00">::muxDel</text>
</a>
</g>
</g>
<!-- Node8&#45;&gt;Node10 -->
<g id="edge9_Node000008_Node000010" class="edge">
<title>Node8&#45;&gt;Node10</title>
<g id="a_edge9_Node000008_Node000010"><a xlink:title=" ">
<path fill="none" stroke="#63b8ff" d="M329.55,-174.06C350.22,-178.99 373.36,-184.52 394.69,-189.61"/>
<polygon fill="#63b8ff" stroke="#63b8ff" points="394.14,-193.08 404.68,-192 395.76,-186.27 394.14,-193.08"/>
</a>
</g>
</g>
<!-- Node11 -->
<g id="Node000011" class="node">
<title>Node11</title>
<g id="a_Node000011"><a xlink:href="classcore_1_1DescriptorEventPublisher.html#a5e0e1a78a4bae48537ba6d0425a7c1cf" target="_top" xlink:title=" ">
<polygon fill="white" stroke="#666666" points="552,-174 385,-174 385,-144 552,-144 552,-174"/>
<text text-anchor="start" x="393" y="-162" font-family="Helvetica,sans-Serif" font-size="10.00">core::DescriptorEventPublisher</text>
<text text-anchor="middle" x="468.5" y="-151" font-family="Helvetica,sans-Serif" font-size="10.00">::muxOff</text>
</a>
</g>
</g>
<!-- Node8&#45;&gt;Node11 -->
<g id="edge10_Node000008_Node000011" class="edge">
<title>Node8&#45;&gt;Node11</title>
<g id="a_edge10_Node000008_Node000011"><a xlink:title=" ">
<path fill="none" stroke="#63b8ff" d="M349.12,-159C357.61,-159 366.27,-159 374.85,-159"/>
<polygon fill="#63b8ff" stroke="#63b8ff" points="374.87,-162.5 384.87,-159 374.87,-155.5 374.87,-162.5"/>
</a>
</g>
</g>
<!-- Node12 -->
<g id="Node000012" class="node">
<title>Node12</title>
<g id="a_Node000012"><a xlink:href="classcore_1_1DescriptorEventPublisher.html#a8cdba59fd3522f1e108a21f6f818840e" target="_top" xlink:title=" ">
<polygon fill="white" stroke="#666666" points="552,-126 385,-126 385,-96 552,-96 552,-126"/>
<text text-anchor="start" x="393" y="-114" font-family="Helvetica,sans-Serif" font-size="10.00">core::DescriptorEventPublisher</text>
<text text-anchor="middle" x="468.5" y="-103" font-family="Helvetica,sans-Serif" font-size="10.00">::muxOn</text>
</a>
</g>
</g>
<!-- Node8&#45;&gt;Node12 -->
<g id="edge11_Node000008_Node000012" class="edge">
<title>Node8&#45;&gt;Node12</title>
<g id="a_edge11_Node000008_Node000012"><a xlink:title=" ">
<path fill="none" stroke="#63b8ff" d="M329.55,-143.94C350.22,-139.01 373.36,-133.48 394.69,-128.39"/>
<polygon fill="#63b8ff" stroke="#63b8ff" points="395.76,-131.73 404.68,-126 394.14,-124.92 395.76,-131.73"/>
</a>
</g>
</g>
<!-- Node13 -->
<g id="Node000013" class="node">
<title>Node13</title>
<g id="a_Node000013"><a xlink:href="classcore_1_1DescriptorEventReceiver.html#a550c1ba95dcb4e286eaf680eed1ca11b" target="_top" xlink:title=" ">
<polygon fill="white" stroke="#666666" points="550.5,-78 386.5,-78 386.5,-48 550.5,-48 550.5,-78"/>
<text text-anchor="start" x="394.5" y="-66" font-family="Helvetica,sans-Serif" font-size="10.00">core::DescriptorEventReceiver</text>
<text text-anchor="middle" x="468.5" y="-55" font-family="Helvetica,sans-Serif" font-size="10.00">::triggered</text>
</a>
</g>
</g>
<!-- Node8&#45;&gt;Node13 -->
<g id="edge12_Node000008_Node000013" class="edge">
<title>Node8&#45;&gt;Node13</title>
<g id="a_edge12_Node000008_Node000013"><a xlink:title=" ">
<path fill="none" stroke="#63b8ff" d="M287.41,-143.95C310.4,-127.98 348.86,-102.9 385,-87 389.46,-85.04 394.12,-83.19 398.87,-81.45"/>
<polygon fill="#63b8ff" stroke="#63b8ff" points="400.38,-84.63 408.68,-78.04 398.08,-78.02 400.38,-84.63"/>
</a>
</g>
</g>
<!-- Node14 -->
<g id="Node000014" class="node">
<title>Node14</title>
<g id="a_Node000014"><a xlink:href="classutils_1_1Timeval.html#ac5696b678505b8fb9ee27540ab1802ca" target="_top" xlink:title=" ">
<polygon fill="white" stroke="#666666" points="726,-72.5 588,-72.5 588,-53.5 726,-53.5 726,-72.5"/>
<text text-anchor="middle" x="657" y="-60.5" font-family="Helvetica,sans-Serif" font-size="10.00">utils::Timeval::operator=</text>
</a>
</g>
</g>
<!-- Node13&#45;&gt;Node14 -->
<g id="edge13_Node000013_Node000014" class="edge">
<title>Node13&#45;&gt;Node14</title>
<g id="a_edge13_Node000013_Node000014"><a xlink:title=" ">
<path fill="none" stroke="#63b8ff" d="M550.76,-63C559.75,-63 568.88,-63 577.83,-63"/>
<polygon fill="#63b8ff" stroke="#63b8ff" points="577.83,-66.5 587.83,-63 577.83,-59.5 577.83,-66.5"/>
</a>
</g>
</g>
<!-- Node15 -->
<g id="Node000015" class="node">
<title>Node15</title>
<g id="a_Node000015"><a xlink:href="classutils_1_1Timeval.html#a09c93683f8c399644adff88b92577624" target="_top" xlink:title=" ">
<polygon fill="white" stroke="#666666" points="899,-72.5 762,-72.5 762,-53.5 899,-53.5 899,-72.5"/>
<text text-anchor="middle" x="830.5" y="-60.5" font-family="Helvetica,sans-Serif" font-size="10.00">utils::Timeval::operator&amp;</text>
</a>
</g>
</g>
<!-- Node14&#45;&gt;Node15 -->
<g id="edge14_Node000014_Node000015" class="edge">
<title>Node14&#45;&gt;Node15</title>
<g id="a_edge14_Node000014_Node000015"><a xlink:title=" ">
<path fill="none" stroke="#63b8ff" d="M726.27,-63C734.58,-63 743.1,-63 751.53,-63"/>
<polygon fill="#63b8ff" stroke="#63b8ff" points="751.74,-66.5 761.74,-63 751.74,-59.5 751.74,-66.5"/>
</a>
</g>
</g>
<!-- Node17 -->
<g id="Node000017" class="node">
<title>Node17</title>
<g id="a_Node000017"><a xlink:href="classcore_1_1TimerEventReceiver.html#a52b86119e9c36bf5e736eb8db5d93cbf" target="_top" xlink:title=" ">
<polygon fill="white" stroke="#666666" points="539.5,-30 397.5,-30 397.5,0 539.5,0 539.5,-30"/>
<text text-anchor="start" x="405.5" y="-18" font-family="Helvetica,sans-Serif" font-size="10.00">core::TimerEventReceiver</text>
<text text-anchor="middle" x="468.5" y="-7" font-family="Helvetica,sans-Serif" font-size="10.00">::unobservedEvent</text>
</a>
</g>
</g>
<!-- Node16&#45;&gt;Node17 -->
<g id="edge16_Node000016_Node000017" class="edge">
<title>Node16&#45;&gt;Node17</title>
<g id="a_edge16_Node000016_Node000017"><a xlink:title=" ">
<path fill="none" stroke="#63b8ff" d="M329.55,-47.94C350.22,-43.01 373.36,-37.48 394.69,-32.39"/>
<polygon fill="#63b8ff" stroke="#63b8ff" points="395.76,-35.73 404.68,-30 394.14,-28.92 395.76,-35.73"/>
</a>
</g>
</g>
</g>
</svg>
