<?xml version="1.0" encoding="UTF-8" standalone="no"?>
<!DOCTYPE svg PUBLIC "-//W3C//DTD SVG 1.1//EN"
 "http://www.w3.org/Graphics/SVG/1.1/DTD/svg11.dtd">
<!-- Generated by graphviz version 2.43.0 (0)
 -->
<!-- Title: core::EventMultiplexer::releaseExpiredResources Pages: 1 -->
<svg width="1045pt" height="111pt"
 viewBox="0.00 0.00 1045.00 110.50" xmlns="http://www.w3.org/2000/svg" xmlns:xlink="http://www.w3.org/1999/xlink">
<g id="graph0" class="graph" transform="scale(1 1) rotate(0) translate(4 106.5)">
<title>core::EventMultiplexer::releaseExpiredResources</title>
<!-- Node1 -->
<g id="Node000001" class="node">
<title>Node1</title>
<g id="a_Node000001"><a xlink:title=" ">
<polygon fill="#999999" stroke="#666666" points="1037,-80.5 903,-80.5 903,-50.5 1037,-50.5 1037,-80.5"/>
<text text-anchor="start" x="911" y="-68.5" font-family="Helvetica,sans-Serif" font-size="10.00">core::EventMultiplexer</text>
<text text-anchor="middle" x="970" y="-57.5" font-family="Helvetica,sans-Serif" font-size="10.00">::releaseExpiredResources</text>
</a>
</g>
</g>
<!-- Node2 -->
<g id="Node000002" class="node">
<title>Node2</title>
<g id="a_Node000002"><a xlink:href="classcore_1_1EventMultiplexer.html#a56149f93e86262641e94e42d8d5b9a2b" target="_top" xlink:title=" ">
<polygon fill="white" stroke="#666666" points="716.5,-102.5 602.5,-102.5 602.5,-72.5 716.5,-72.5 716.5,-102.5"/>
<text text-anchor="start" x="610.5" y="-90.5" font-family="Helvetica,sans-Serif" font-size="10.00">core::EventMultiplexer</text>
<text text-anchor="middle" x="659.5" y="-79.5" font-family="Helvetica,sans-Serif" font-size="10.00">::stop</text>
</a>
</g>
</g>
<!-- Node1&#45;&gt;Node2 -->
<g id="edge1_Node000001_Node000002" class="edge">
<title>Node1&#45;&gt;Node2</title>
<g id="a_edge1_Node000001_Node000002"><a xlink:title=" ">
<path fill="none" stroke="#63b8ff" d="M892.51,-70.95C838.03,-74.84 766.01,-79.98 716.75,-83.49"/>
<polygon fill="#63b8ff" stroke="#63b8ff" points="893.09,-74.42 902.82,-70.22 892.6,-67.44 893.09,-74.42"/>
</a>
</g>
</g>
<!-- Node9 -->
<g id="Node000009" class="node">
<title>Node9</title>
<g id="a_Node000009"><a xlink:href="classcore_1_1EventMultiplexer.html#a530975d218904452f30c411598c10423" target="_top" xlink:title=" ">
<polygon fill="white" stroke="#666666" points="867,-59.5 753,-59.5 753,-29.5 867,-29.5 867,-59.5"/>
<text text-anchor="start" x="761" y="-47.5" font-family="Helvetica,sans-Serif" font-size="10.00">core::EventMultiplexer</text>
<text text-anchor="middle" x="810" y="-36.5" font-family="Helvetica,sans-Serif" font-size="10.00">::tick</text>
</a>
</g>
</g>
<!-- Node1&#45;&gt;Node9 -->
<g id="edge8_Node000001_Node000009" class="edge">
<title>Node1&#45;&gt;Node9</title>
<g id="a_edge8_Node000001_Node000009"><a xlink:title=" ">
<path fill="none" stroke="#63b8ff" d="M892.85,-55.38C884.24,-54.23 875.59,-53.08 867.3,-51.98"/>
<polygon fill="#63b8ff" stroke="#63b8ff" points="892.54,-58.87 902.91,-56.72 893.46,-51.93 892.54,-58.87"/>
</a>
</g>
</g>
<!-- Node3 -->
<g id="Node000003" class="node">
<title>Node3</title>
<g id="a_Node000003"><a xlink:href="classcore_1_1EventLoop.html#a3125b6361565df4753affc73eb83984a" target="_top" xlink:title=" ">
<polygon fill="white" stroke="#666666" points="566,-95 456,-95 456,-76 566,-76 566,-95"/>
<text text-anchor="middle" x="511" y="-83" font-family="Helvetica,sans-Serif" font-size="10.00">core::EventLoop::free</text>
</a>
</g>
</g>
<!-- Node2&#45;&gt;Node3 -->
<g id="edge2_Node000002_Node000003" class="edge">
<title>Node2&#45;&gt;Node3</title>
<g id="a_edge2_Node000002_Node000003"><a xlink:title=" ">
<path fill="none" stroke="#63b8ff" d="M592.22,-86.6C583.58,-86.48 574.8,-86.36 566.38,-86.24"/>
<polygon fill="#63b8ff" stroke="#63b8ff" points="592.23,-90.1 602.28,-86.73 592.33,-83.1 592.23,-90.1"/>
</a>
</g>
</g>
<!-- Node4 -->
<g id="Node000004" class="node">
<title>Node4</title>
<g id="a_Node000004"><a xlink:href="classcore_1_1SNodeC.html#a723f1f8e484db32164adeca1fbf98e28" target="_top" xlink:title=" ">
<polygon fill="white" stroke="#666666" points="414,-95 313,-95 313,-76 414,-76 414,-95"/>
<text text-anchor="middle" x="363.5" y="-83" font-family="Helvetica,sans-Serif" font-size="10.00">core::SNodeC::free</text>
</a>
</g>
</g>
<!-- Node3&#45;&gt;Node4 -->
<g id="edge3_Node000003_Node000004" class="edge">
<title>Node3&#45;&gt;Node4</title>
<g id="a_edge3_Node000003_Node000004"><a xlink:title=" ">
<path fill="none" stroke="#63b8ff" d="M445.5,-85.5C435.07,-85.5 424.41,-85.5 414.39,-85.5"/>
<polygon fill="#63b8ff" stroke="#63b8ff" points="445.82,-89 455.82,-85.5 445.82,-82 445.82,-89"/>
</a>
</g>
</g>
<!-- Node6 -->
<g id="Node000006" class="node">
<title>Node6</title>
<g id="a_Node000006"><a xlink:href="classcore_1_1EventLoop.html#aaa2c3856fed808d00542d573c2b3a737" target="_top" xlink:title=" ">
<polygon fill="white" stroke="#666666" points="420,-57 307,-57 307,-38 420,-38 420,-57"/>
<text text-anchor="middle" x="363.5" y="-45" font-family="Helvetica,sans-Serif" font-size="10.00">core::EventLoop::start</text>
</a>
</g>
</g>
<!-- Node3&#45;&gt;Node6 -->
<g id="edge5_Node000003_Node000006" class="edge">
<title>Node3&#45;&gt;Node6</title>
<g id="a_edge5_Node000003_Node000006"><a xlink:title=" ">
<path fill="none" stroke="#63b8ff" d="M463.35,-73.32C443.15,-68.04 419.85,-61.96 400.95,-57.02"/>
<polygon fill="#63b8ff" stroke="#63b8ff" points="462.72,-76.77 473.28,-75.91 464.49,-70 462.72,-76.77"/>
</a>
</g>
</g>
<!-- Node5 -->
<g id="Node000005" class="node">
<title>Node5</title>
<g id="a_Node000005"><a xlink:href="classexpress_1_1WebApp.html#a07c26842d227b81ee32b9b26a94cae1b" target="_top" xlink:title=" ">
<polygon fill="white" stroke="#666666" points="271,-95 155,-95 155,-76 271,-76 271,-95"/>
<text text-anchor="middle" x="213" y="-83" font-family="Helvetica,sans-Serif" font-size="10.00">express::WebApp::free</text>
</a>
</g>
</g>
<!-- Node4&#45;&gt;Node5 -->
<g id="edge4_Node000004_Node000005" class="edge">
<title>Node4&#45;&gt;Node5</title>
<g id="a_edge4_Node000004_Node000005"><a xlink:title=" ">
<path fill="none" stroke="#63b8ff" d="M302.46,-85.5C292.13,-85.5 281.42,-85.5 271.16,-85.5"/>
<polygon fill="#63b8ff" stroke="#63b8ff" points="302.64,-89 312.64,-85.5 302.64,-82 302.64,-89"/>
</a>
</g>
</g>
<!-- Node7 -->
<g id="Node000007" class="node">
<title>Node7</title>
<g id="a_Node000007"><a xlink:href="classcore_1_1SNodeC.html#ac3d0dcb6c216ae72d9bbb77fe080e461" target="_top" xlink:title=" ">
<polygon fill="white" stroke="#666666" points="265,-57 161,-57 161,-38 265,-38 265,-57"/>
<text text-anchor="middle" x="213" y="-45" font-family="Helvetica,sans-Serif" font-size="10.00">core::SNodeC::start</text>
</a>
</g>
</g>
<!-- Node6&#45;&gt;Node7 -->
<g id="edge6_Node000006_Node000007" class="edge">
<title>Node6&#45;&gt;Node7</title>
<g id="a_edge6_Node000006_Node000007"><a xlink:title=" ">
<path fill="none" stroke="#63b8ff" d="M296.73,-47.5C286.14,-47.5 275.31,-47.5 265.13,-47.5"/>
<polygon fill="#63b8ff" stroke="#63b8ff" points="296.78,-51 306.78,-47.5 296.78,-44 296.78,-51"/>
</a>
</g>
</g>
<!-- Node8 -->
<g id="Node000008" class="node">
<title>Node8</title>
<g id="a_Node000008"><a xlink:href="classexpress_1_1WebApp.html#a54e6910c9466c61d0b217490b7d9bb5a" target="_top" xlink:title=" ">
<polygon fill="white" stroke="#666666" points="119,-57 0,-57 0,-38 119,-38 119,-57"/>
<text text-anchor="middle" x="59.5" y="-45" font-family="Helvetica,sans-Serif" font-size="10.00">express::WebApp::start</text>
</a>
</g>
</g>
<!-- Node7&#45;&gt;Node8 -->
<g id="edge7_Node000007_Node000008" class="edge">
<title>Node7&#45;&gt;Node8</title>
<g id="a_edge7_Node000007_Node000008"><a xlink:title=" ">
<path fill="none" stroke="#63b8ff" d="M150.48,-47.5C140.1,-47.5 129.35,-47.5 119.05,-47.5"/>
<polygon fill="#63b8ff" stroke="#63b8ff" points="150.71,-51 160.71,-47.5 150.71,-44 150.71,-51"/>
</a>
</g>
</g>
<!-- Node10 -->
<g id="Node000010" class="node">
<title>Node10</title>
<g id="a_Node000010"><a xlink:href="classcore_1_1EventLoop.html#a3ce638b4895c765df8e60a804be90339" target="_top" xlink:title=" ">
<polygon fill="white" stroke="#666666" points="717,-54 602,-54 602,-35 717,-35 717,-54"/>
<text text-anchor="middle" x="659.5" y="-42" font-family="Helvetica,sans-Serif" font-size="10.00">core::EventLoop::_tick</text>
</a>
</g>
</g>
<!-- Node9&#45;&gt;Node10 -->
<g id="edge9_Node000009_Node000010" class="edge">
<title>Node9&#45;&gt;Node10</title>
<g id="a_edge9_Node000009_Node000010"><a xlink:title=" ">
<path fill="none" stroke="#63b8ff" d="M742.62,-44.5C734.14,-44.5 725.52,-44.5 717.21,-44.5"/>
<polygon fill="#63b8ff" stroke="#63b8ff" points="742.86,-48 752.86,-44.5 742.86,-41 742.86,-48"/>
</a>
</g>
</g>
<!-- Node10&#45;&gt;Node3 -->
<g id="edge10_Node000010_Node000003" class="edge">
<title>Node10&#45;&gt;Node3</title>
<g id="a_edge10_Node000010_Node000003"><a xlink:title=" ">
<path fill="none" stroke="#63b8ff" d="M614.75,-56.74C592.76,-62.9 566.51,-70.24 546.05,-75.97"/>
<polygon fill="#63b8ff" stroke="#63b8ff" points="615.84,-60.07 624.52,-54.01 613.95,-53.33 615.84,-60.07"/>
</a>
</g>
</g>
<!-- Node10&#45;&gt;Node6 -->
<g id="edge11_Node000010_Node000006" class="edge">
<title>Node10&#45;&gt;Node6</title>
<g id="a_edge11_Node000010_Node000006"><a xlink:title=" ">
<path fill="none" stroke="#63b8ff" d="M591.71,-45.18C539.85,-45.71 468.78,-46.44 420.02,-46.93"/>
<polygon fill="#63b8ff" stroke="#63b8ff" points="591.85,-48.68 601.81,-45.08 591.78,-41.68 591.85,-48.68"/>
</a>
</g>
</g>
<!-- Node11 -->
<g id="Node000011" class="node">
<title>Node11</title>
<g id="a_Node000011"><a xlink:href="classcore_1_1EventLoop.html#ad61057e89520dae76c6e0a098c595e57" target="_top" xlink:title=" ">
<polygon fill="white" stroke="#666666" points="566,-19 456,-19 456,0 566,0 566,-19"/>
<text text-anchor="middle" x="511" y="-7" font-family="Helvetica,sans-Serif" font-size="10.00">core::EventLoop::tick</text>
</a>
</g>
</g>
<!-- Node10&#45;&gt;Node11 -->
<g id="edge12_Node000010_Node000011" class="edge">
<title>Node10&#45;&gt;Node11</title>
<g id="a_edge12_Node000010_Node000011"><a xlink:title=" ">
<path fill="none" stroke="#63b8ff" d="M608.74,-32.61C590.24,-28.19 569.5,-23.24 551.98,-19.05"/>
<polygon fill="#63b8ff" stroke="#63b8ff" points="607.93,-36.02 618.47,-34.94 609.56,-29.21 607.93,-36.02"/>
</a>
</g>
</g>
<!-- Node12 -->
<g id="Node000012" class="node">
<title>Node12</title>
<g id="a_Node000012"><a xlink:href="classcore_1_1SNodeC.html#a57b40bb139f23e6a9fc2704d2415e636" target="_top" xlink:title=" ">
<polygon fill="white" stroke="#666666" points="414,-19 313,-19 313,0 414,0 414,-19"/>
<text text-anchor="middle" x="363.5" y="-7" font-family="Helvetica,sans-Serif" font-size="10.00">core::SNodeC::tick</text>
</a>
</g>
</g>
<!-- Node11&#45;&gt;Node12 -->
<g id="edge13_Node000011_Node000012" class="edge">
<title>Node11&#45;&gt;Node12</title>
<g id="a_edge13_Node000011_Node000012"><a xlink:title=" ">
<path fill="none" stroke="#63b8ff" d="M445.5,-9.5C435.07,-9.5 424.41,-9.5 414.39,-9.5"/>
<polygon fill="#63b8ff" stroke="#63b8ff" points="445.82,-13 455.82,-9.5 445.82,-6 445.82,-13"/>
</a>
</g>
</g>
<!-- Node13 -->
<g id="Node000013" class="node">
<title>Node13</title>
<g id="a_Node000013"><a xlink:href="classexpress_1_1WebApp.html#a42de99299b0f344789e201aee12b3fd7" target="_top" xlink:title=" ">
<polygon fill="white" stroke="#666666" points="271,-19 155,-19 155,0 271,0 271,-19"/>
<text text-anchor="middle" x="213" y="-7" font-family="Helvetica,sans-Serif" font-size="10.00">express::WebApp::tick</text>
</a>
</g>
</g>
<!-- Node12&#45;&gt;Node13 -->
<g id="edge14_Node000012_Node000013" class="edge">
<title>Node12&#45;&gt;Node13</title>
<g id="a_edge14_Node000012_Node000013"><a xlink:title=" ">
<path fill="none" stroke="#63b8ff" d="M302.46,-9.5C292.13,-9.5 281.42,-9.5 271.16,-9.5"/>
<polygon fill="#63b8ff" stroke="#63b8ff" points="302.64,-13 312.64,-9.5 302.64,-6 302.64,-13"/>
</a>
</g>
</g>
</g>
</svg>
