<?xml version="1.0" encoding="UTF-8" standalone="no"?>
<!DOCTYPE svg PUBLIC "-//W3C//DTD SVG 1.1//EN"
 "http://www.w3.org/Graphics/SVG/1.1/DTD/svg11.dtd">
<!-- Generated by graphviz version 2.42.4 (0)
 -->
<!-- Title: net::in::stream::config::ConfigSocketClient Pages: 1 -->
<svg width="572pt" height="750pt"
 viewBox="0.00 0.00 572.00 750.00" xmlns="http://www.w3.org/2000/svg" xmlns:xlink="http://www.w3.org/1999/xlink">
<g id="graph0" class="graph" transform="scale(1 1) rotate(0) translate(4 746)">
<title>net::in::stream::config::ConfigSocketClient</title>
<!-- Node1 -->
<g id="Node000001" class="node">
<title>Node1</title>
<g id="a_Node000001"><a xlink:title=" ">
<polygon fill="#999999" stroke="transparent" points="182,-30 78,-30 78,0 182,0 182,-30"/>
<text text-anchor="start" x="82" y="-18" font-family="Helvetica,sans-Serif" font-size="10.00">net::in::stream::config</text>
<text text-anchor="start" x="84.5" y="-7" font-family="Helvetica,sans-Serif" font-size="10.00">::ConfigSocketClient</text>
<polygon fill="none" stroke="#666666" points="78,0 78,-30 182,-30 182,0 78,0"/>
</a>
</g>
</g>
<!-- Node2 -->
<g id="Node000002" class="node">
<title>Node2</title>
<g id="a_Node000002"><a xlink:href="classnet_1_1config_1_1stream_1_1ConfigSocketClient.html" target="_top" xlink:title=" ">
<polygon fill="white" stroke="transparent" points="208,-108 52,-108 52,-67 208,-67 208,-108"/>
<text text-anchor="start" x="56" y="-95.5" font-family="Helvetica,sans-Serif" font-size="10.00">net::config::stream</text>
<text text-anchor="start" x="56" y="-84.5" font-family="Helvetica,sans-Serif" font-size="10.00">::ConfigSocketClient</text>
<text text-anchor="start" x="56" y="-73.5" font-family="Helvetica,sans-Serif" font-size="10.00">&lt; net::in::config::ConfigAddress &gt;</text>
<polygon fill="none" stroke="#666666" points="52,-67 52,-108 208,-108 208,-67 52,-67"/>
</a>
</g>
</g>
<!-- Node2&#45;&gt;Node1 -->
<g id="edge1_Node000001_Node000002" class="edge">
<title>Node2&#45;&gt;Node1</title>
<g id="a_edge1_Node000001_Node000002"><a xlink:title=" ">
<path fill="none" stroke="#63b8ff" d="M130,-56.58C130,-47.51 130,-37.95 130,-30.39"/>
<polygon fill="none" stroke="#63b8ff" points="126.5,-56.86 130,-66.86 133.5,-56.86 126.5,-56.86"/>
</a>
</g>
</g>
<!-- Node3 -->
<g id="Node000003" class="node">
<title>Node3</title>
<g id="a_Node000003"><a xlink:href="classnet_1_1in_1_1config_1_1ConfigAddress.html" target="_top" xlink:title=" ">
<polygon fill="white" stroke="transparent" points="324,-175 146,-175 146,-145 324,-145 324,-175"/>
<text text-anchor="start" x="150.5" y="-163" font-family="Helvetica,sans-Serif" font-size="10.00">net::in::config::ConfigAddress</text>
<text text-anchor="start" x="150.5" y="-152" font-family="Helvetica,sans-Serif" font-size="10.00">&lt; net::config::ConfigAddressRemote &gt;</text>
<polygon fill="none" stroke="#666666" points="146,-145 146,-175 324,-175 324,-145 146,-145"/>
</a>
</g>
</g>
<!-- Node3&#45;&gt;Node2 -->
<g id="edge2_Node000002_Node000003" class="edge">
<title>Node3&#45;&gt;Node2</title>
<g id="a_edge2_Node000002_Node000003"><a xlink:title=" ">
<path fill="none" stroke="#63b8ff" d="M205.44,-139.15C191.01,-129.47 173.71,-117.85 159.31,-108.18"/>
<polygon fill="none" stroke="#63b8ff" points="203.75,-142.23 214,-144.9 207.65,-136.42 203.75,-142.23"/>
</a>
</g>
</g>
<!-- Node4 -->
<g id="Node000004" class="node">
<title>Node4</title>
<g id="a_Node000004"><a xlink:href="classnet_1_1config_1_1ConfigAddressRemote.html" target="_top" xlink:title=" ">
<polygon fill="white" stroke="transparent" points="322,-242 160,-242 160,-212 322,-212 322,-242"/>
<text text-anchor="start" x="164.5" y="-230" font-family="Helvetica,sans-Serif" font-size="10.00">net::config::ConfigAddress</text>
<text text-anchor="start" x="164.5" y="-219" font-family="Helvetica,sans-Serif" font-size="10.00">Remote&lt; net::in::SocketAddress &gt;</text>
<polygon fill="none" stroke="#666666" points="160,-212 160,-242 322,-242 322,-212 160,-212"/>
</a>
</g>
</g>
<!-- Node4&#45;&gt;Node3 -->
<g id="edge3_Node000003_Node000004" class="edge">
<title>Node4&#45;&gt;Node3</title>
<g id="a_edge3_Node000003_Node000004"><a xlink:title=" ">
<path fill="none" stroke="#63b8ff" d="M238.78,-201.9C237.94,-192.87 237.02,-182.91 236.3,-175.08"/>
<polygon fill="none" stroke="#63b8ff" points="235.29,-202.26 239.7,-211.9 242.26,-201.62 235.29,-202.26"/>
</a>
</g>
</g>
<!-- Node5 -->
<g id="Node000005" class="node">
<title>Node5</title>
<g id="a_Node000005"><a xlink:href="classnet_1_1config_1_1ConfigAddress.html" target="_top" xlink:title=" ">
<polygon fill="white" stroke="transparent" points="454,-338 328,-338 328,-308 454,-308 454,-338"/>
<text text-anchor="start" x="332" y="-326" font-family="Helvetica,sans-Serif" font-size="10.00">net::config::ConfigAddress</text>
<text text-anchor="start" x="332" y="-315" font-family="Helvetica,sans-Serif" font-size="10.00">&lt; net::in::SocketAddress &gt;</text>
<polygon fill="none" stroke="#666666" points="328,-308 328,-338 454,-338 454,-308 328,-308"/>
</a>
</g>
</g>
<!-- Node5&#45;&gt;Node4 -->
<g id="edge4_Node000004_Node000005" class="edge">
<title>Node5&#45;&gt;Node4</title>
<g id="a_edge4_Node000004_Node000005"><a xlink:title=" ">
<path fill="none" stroke="#63b8ff" d="M359.72,-302.4C331.02,-284.41 289.19,-258.2 263.61,-242.17"/>
<polygon fill="none" stroke="#63b8ff" points="358.21,-305.58 368.54,-307.93 361.93,-299.65 358.21,-305.58"/>
</a>
</g>
</g>
<!-- Node17 -->
<g id="Node000017" class="node">
<title>Node17</title>
<g id="a_Node000017"><a xlink:href="classnet_1_1config_1_1ConfigAddressLocal.html" target="_top" xlink:title=" ">
<polygon fill="white" stroke="transparent" points="491,-242 341,-242 341,-212 491,-212 491,-242"/>
<text text-anchor="start" x="345" y="-230" font-family="Helvetica,sans-Serif" font-size="10.00">net::config::ConfigAddress</text>
<text text-anchor="start" x="345" y="-219" font-family="Helvetica,sans-Serif" font-size="10.00">Local&lt; net::in::SocketAddress &gt;</text>
<polygon fill="none" stroke="#666666" points="341,-212 341,-242 491,-242 491,-212 341,-212"/>
</a>
</g>
</g>
<!-- Node5&#45;&gt;Node17 -->
<g id="edge18_Node000017_Node000005" class="edge">
<title>Node5&#45;&gt;Node17</title>
<g id="a_edge18_Node000017_Node000005"><a xlink:title=" ">
<path fill="none" stroke="#63b8ff" d="M397.74,-298.26C398.51,-295.47 399.28,-292.68 400,-290 404.4,-273.69 409.21,-254.89 412.4,-242.31"/>
<polygon fill="none" stroke="#63b8ff" points="394.34,-297.43 395.01,-308 401.08,-299.31 394.34,-297.43"/>
</a>
</g>
</g>
<!-- Node6 -->
<g id="Node000006" class="node">
<title>Node6</title>
<g id="a_Node000006"><a xlink:href="classnet_1_1config_1_1ConfigAddressBase.html" target="_top" xlink:title=" ">
<polygon fill="white" stroke="transparent" points="389,-423 239,-423 239,-393 389,-393 389,-423"/>
<text text-anchor="start" x="243.5" y="-411" font-family="Helvetica,sans-Serif" font-size="10.00">net::config::ConfigAddress</text>
<text text-anchor="start" x="243.5" y="-400" font-family="Helvetica,sans-Serif" font-size="10.00">Base&lt; net::in::SocketAddress &gt;</text>
<polygon fill="none" stroke="#666666" points="239,-393 239,-423 389,-423 389,-393 239,-393"/>
</a>
</g>
</g>
<!-- Node6&#45;&gt;Node5 -->
<g id="edge5_Node000005_Node000006" class="edge">
<title>Node6&#45;&gt;Node5</title>
<g id="a_edge5_Node000005_Node000006"><a xlink:title=" ">
<path fill="none" stroke="#63b8ff" d="M334.24,-385.18C348.04,-370.31 365.91,-351.05 377.87,-338.15"/>
<polygon fill="none" stroke="#63b8ff" points="331.3,-383.21 327.06,-392.92 336.43,-387.97 331.3,-383.21"/>
</a>
</g>
</g>
<!-- Node7 -->
<g id="Node000007" class="node">
<title>Node7</title>
<g id="a_Node000007"><a xlink:href="classnet_1_1config_1_1ConfigSection.html" target="_top" xlink:title=" ">
<polygon fill="white" stroke="transparent" points="200,-500 78,-500 78,-481 200,-481 200,-500"/>
<text text-anchor="start" x="82" y="-487.5" font-family="Helvetica,sans-Serif" font-size="10.00">net::config::ConfigSection</text>
<polygon fill="none" stroke="#666666" points="78,-481 78,-500 200,-500 200,-481 78,-481"/>
</a>
</g>
</g>
<!-- Node7&#45;&gt;Node6 -->
<g id="edge6_Node000006_Node000007" class="edge">
<title>Node7&#45;&gt;Node6</title>
<g id="a_edge6_Node000006_Node000007"><a xlink:title=" ">
<path fill="none" stroke="darkgreen" d="M161.58,-475.6C178.85,-465.29 203.44,-451.31 226,-441 240.34,-434.45 256.45,-428.26 270.93,-423.11"/>
<polygon fill="none" stroke="darkgreen" points="159.56,-472.73 152.81,-480.89 163.18,-478.72 159.56,-472.73"/>
</a>
</g>
</g>
<!-- Node18 -->
<g id="Node000018" class="node">
<title>Node18</title>
<g id="a_Node000018"><a xlink:href="classnet_1_1config_1_1ConfigConnection.html" target="_top" xlink:title=" ">
<polygon fill="white" stroke="transparent" points="138,-375 0,-375 0,-356 138,-356 138,-375"/>
<text text-anchor="start" x="4" y="-362.5" font-family="Helvetica,sans-Serif" font-size="10.00">net::config::ConfigConnection</text>
<polygon fill="none" stroke="#666666" points="0,-356 0,-375 138,-375 138,-356 0,-356"/>
</a>
</g>
</g>
<!-- Node7&#45;&gt;Node18 -->
<g id="edge20_Node000018_Node000007" class="edge">
<title>Node7&#45;&gt;Node18</title>
<g id="a_edge20_Node000018_Node000007"><a xlink:title=" ">
<path fill="none" stroke="darkgreen" d="M123.2,-473.36C111.48,-460.62 95.89,-441.88 86,-423 77.73,-407.21 72.85,-386.78 70.57,-375.32"/>
<polygon fill="none" stroke="darkgreen" points="120.83,-475.95 130.24,-480.82 125.92,-471.15 120.83,-475.95"/>
</a>
</g>
</g>
<!-- Node20 -->
<g id="Node000020" class="node">
<title>Node20</title>
<g id="a_Node000020"><a xlink:href="classnet_1_1config_1_1ConfigPhysicalSocket.html" target="_top" xlink:title=" ">
<polygon fill="white" stroke="transparent" points="221,-423 95,-423 95,-393 221,-393 221,-423"/>
<text text-anchor="start" x="99" y="-411" font-family="Helvetica,sans-Serif" font-size="10.00">net::config::ConfigPhysical</text>
<text text-anchor="start" x="142.5" y="-400" font-family="Helvetica,sans-Serif" font-size="10.00">Socket</text>
<polygon fill="none" stroke="#666666" points="95,-393 95,-423 221,-423 221,-393 95,-393"/>
</a>
</g>
</g>
<!-- Node7&#45;&gt;Node20 -->
<g id="edge23_Node000020_Node000007" class="edge">
<title>Node7&#45;&gt;Node20</title>
<g id="a_edge23_Node000020_Node000007"><a xlink:title=" ">
<path fill="none" stroke="darkgreen" d="M143.36,-471.02C146.79,-456.49 151.5,-436.53 154.64,-423.22"/>
<polygon fill="none" stroke="darkgreen" points="139.92,-470.35 141.03,-480.89 146.74,-471.96 139.92,-470.35"/>
</a>
</g>
</g>
<!-- Node8 -->
<g id="Node000008" class="node">
<title>Node8</title>
<g id="a_Node000008"><a xlink:href="classnet_1_1config_1_1ConfigInstance.html" target="_top" xlink:title=" ">
<polygon fill="white" stroke="transparent" points="264,-577 138,-577 138,-558 264,-558 264,-577"/>
<text text-anchor="start" x="142" y="-564.5" font-family="Helvetica,sans-Serif" font-size="10.00">net::config::ConfigInstance</text>
<polygon fill="none" stroke="#666666" points="138,-558 138,-577 264,-577 264,-558 138,-558"/>
</a>
</g>
</g>
<!-- Node8&#45;&gt;Node7 -->
<g id="edge7_Node000007_Node000008" class="edge">
<title>Node8&#45;&gt;Node7</title>
<g id="a_edge7_Node000007_Node000008"><a xlink:title=" ">
<path fill="none" stroke="#63b8ff" d="M193.89,-557.9C184.17,-546.14 166.51,-524.78 153.84,-509.45"/>
<polygon fill="none" stroke="#63b8ff" points="153.68,-509.25 146.77,-507.18 146.03,-500 152.94,-502.08 153.68,-509.25"/>
</a>
</g>
<text text-anchor="middle" x="199.5" y="-532" font-family="Helvetica,sans-Serif" font-size="10.00" fill="grey"> &#45;instance</text>
</g>
<!-- Node9 -->
<g id="Node000009" class="node">
<title>Node9</title>
<g id="a_Node000009"><a xlink:title=" ">
<polygon fill="white" stroke="transparent" points="241,-659.5 189,-659.5 189,-640.5 241,-640.5 241,-659.5"/>
<text text-anchor="start" x="193" y="-647" font-family="Helvetica,sans-Serif" font-size="10.00">std::string</text>
<polygon fill="none" stroke="#666666" points="189,-640.5 189,-659.5 241,-659.5 241,-640.5 189,-640.5"/>
</a>
</g>
</g>
<!-- Node9&#45;&gt;Node8 -->
<g id="edge8_Node000008_Node000009" class="edge">
<title>Node9&#45;&gt;Node8</title>
<g id="a_edge8_Node000008_Node000009"><a xlink:title=" ">
<path fill="none" stroke="#63b8ff" d="M213.5,-640.39C211.41,-628.34 207.54,-606.1 204.66,-589.53"/>
<polygon fill="none" stroke="#63b8ff" points="204.59,-589.12 199.62,-583.89 202.53,-577.3 207.5,-582.52 204.59,-589.12"/>
</a>
</g>
<text text-anchor="middle" x="249.5" y="-609" font-family="Helvetica,sans-Serif" font-size="10.00" fill="grey"> &#45;instanceName</text>
<text text-anchor="middle" x="249.5" y="-598" font-family="Helvetica,sans-Serif" font-size="10.00" fill="grey">&#45;nameAnonymous</text>
</g>
<!-- Node11 -->
<g id="Node000011" class="node">
<title>Node11</title>
<g id="a_Node000011"><a xlink:href="classnet_1_1in_1_1SocketAddress.html" target="_top" xlink:title=" ">
<polygon fill="white" stroke="transparent" points="451,-577 343,-577 343,-558 451,-558 451,-577"/>
<text text-anchor="start" x="347" y="-564.5" font-family="Helvetica,sans-Serif" font-size="10.00">net::in::SocketAddress</text>
<polygon fill="none" stroke="#666666" points="343,-558 343,-577 451,-577 451,-558 343,-558"/>
</a>
</g>
</g>
<!-- Node9&#45;&gt;Node11 -->
<g id="edge13_Node000011_Node000009" class="edge">
<title>Node9&#45;&gt;Node11</title>
<g id="a_edge13_Node000011_Node000009"><a xlink:title=" ">
<path fill="none" stroke="#63b8ff" d="M237.51,-640.49C252.44,-634.56 272.28,-626.09 289,-617 304.49,-608.58 306.24,-602.89 322,-595 332.72,-589.64 344.8,-584.86 356.08,-580.89"/>
<polygon fill="none" stroke="#63b8ff" points="356.09,-580.89 360.5,-575.19 367.46,-577.06 363.05,-582.77 356.09,-580.89"/>
</a>
</g>
<text text-anchor="middle" x="351.5" y="-609" font-family="Helvetica,sans-Serif" font-size="10.00" fill="grey"> &#45;canonName</text>
<text text-anchor="middle" x="351.5" y="-598" font-family="Helvetica,sans-Serif" font-size="10.00" fill="grey">&#45;host</text>
</g>
<!-- Node10 -->
<g id="Node000010" class="node">
<title>Node10</title>
<g id="a_Node000010"><a xlink:title=" ">
<polygon fill="white" stroke="transparent" points="259,-742 171,-742 171,-712 259,-712 259,-742"/>
<text text-anchor="start" x="175.5" y="-730" font-family="Helvetica,sans-Serif" font-size="10.00">std::basic_string&lt;</text>
<text text-anchor="start" x="198" y="-719" font-family="Helvetica,sans-Serif" font-size="10.00"> Char &gt;</text>
<polygon fill="none" stroke="#666666" points="171,-712 171,-742 259,-742 259,-712 171,-712"/>
</a>
</g>
</g>
<!-- Node10&#45;&gt;Node9 -->
<g id="edge9_Node000009_Node000010" class="edge">
<title>Node10&#45;&gt;Node9</title>
<g id="a_edge9_Node000009_Node000010"><a xlink:title=" ">
<path fill="none" stroke="#63b8ff" d="M215,-701.68C215,-687.36 215,-670.11 215,-659.87"/>
<polygon fill="none" stroke="#63b8ff" points="211.5,-701.89 215,-711.89 218.5,-701.89 211.5,-701.89"/>
</a>
</g>
</g>
<!-- Node11&#45;&gt;Node5 -->
<g id="edge10_Node000005_Node000011" class="edge">
<title>Node11&#45;&gt;Node5</title>
<g id="a_edge10_Node000005_Node000011"><a xlink:title=" ">
<path fill="none" stroke="#63b8ff" d="M397.39,-557.83C398.48,-532.45 401.2,-456.18 398,-393 397.29,-378.9 395.76,-363.24 394.31,-350.41"/>
<polygon fill="none" stroke="#63b8ff" points="394.28,-350.16 389.6,-344.67 392.87,-338.24 397.55,-343.73 394.28,-350.16"/>
</a>
</g>
<text text-anchor="middle" x="435" y="-444" font-family="Helvetica,sans-Serif" font-size="10.00" fill="grey"> &#45;socketAddress</text>
</g>
<!-- Node12 -->
<g id="Node000012" class="node">
<title>Node12</title>
<g id="a_Node000012"><a xlink:href="classnet_1_1SocketAddress.html" target="_top" xlink:title=" ">
<polygon fill="white" stroke="transparent" points="425,-665 329,-665 329,-635 425,-635 425,-665"/>
<text text-anchor="start" x="333.5" y="-653" font-family="Helvetica,sans-Serif" font-size="10.00">net::SocketAddress</text>
<text text-anchor="start" x="341.5" y="-642" font-family="Helvetica,sans-Serif" font-size="10.00">&lt; sockaddr_in &gt;</text>
<polygon fill="none" stroke="#666666" points="329,-635 329,-665 425,-665 425,-635 329,-635"/>
</a>
</g>
</g>
<!-- Node12&#45;&gt;Node11 -->
<g id="edge11_Node000011_Node000012" class="edge">
<title>Node12&#45;&gt;Node11</title>
<g id="a_edge11_Node000011_Node000012"><a xlink:title=" ">
<path fill="none" stroke="#63b8ff" d="M382.92,-625.16C386.92,-609.09 391.95,-588.81 394.79,-577.38"/>
<polygon fill="none" stroke="#63b8ff" points="379.5,-624.43 380.48,-634.98 386.29,-626.12 379.5,-624.43"/>
</a>
</g>
</g>
<!-- Node13 -->
<g id="Node000013" class="node">
<title>Node13</title>
<g id="a_Node000013"><a xlink:href="classcore_1_1socket_1_1SocketAddress.html" target="_top" xlink:title=" ">
<polygon fill="white" stroke="transparent" points="436,-736.5 300,-736.5 300,-717.5 436,-717.5 436,-736.5"/>
<text text-anchor="start" x="304.5" y="-724" font-family="Helvetica,sans-Serif" font-size="10.00">core::socket::SocketAddress</text>
<polygon fill="none" stroke="#666666" points="300,-717.5 300,-736.5 436,-736.5 436,-717.5 300,-717.5"/>
</a>
</g>
</g>
<!-- Node13&#45;&gt;Node12 -->
<g id="edge12_Node000012_Node000013" class="edge">
<title>Node13&#45;&gt;Node12</title>
<g id="a_edge12_Node000012_Node000013"><a xlink:title=" ">
<path fill="none" stroke="#63b8ff" d="M370.26,-707.2C371.82,-694.14 373.88,-677.01 375.31,-665.11"/>
<polygon fill="none" stroke="#63b8ff" points="366.75,-707.05 369.03,-717.4 373.7,-707.88 366.75,-707.05"/>
</a>
</g>
</g>
<!-- Node14 -->
<g id="Node000014" class="node">
<title>Node14</title>
<g id="a_Node000014"><a xlink:title=" ">
<polygon fill="white" stroke="transparent" points="556,-665 450,-665 450,-635 556,-635 556,-665"/>
<text text-anchor="start" x="454.5" y="-653" font-family="Helvetica,sans-Serif" font-size="10.00">std::shared_ptr&lt; net</text>
<text text-anchor="start" x="454.5" y="-642" font-family="Helvetica,sans-Serif" font-size="10.00">::in::SocketAddrInfo &gt;</text>
<polygon fill="none" stroke="#666666" points="450,-635 450,-665 556,-665 556,-635 450,-635"/>
</a>
</g>
</g>
<!-- Node14&#45;&gt;Node11 -->
<g id="edge14_Node000011_Node000014" class="edge">
<title>Node14&#45;&gt;Node11</title>
<g id="a_edge14_Node000011_Node000014"><a xlink:title=" ">
<path fill="none" stroke="#63b8ff" d="M484.54,-634.98C466.02,-620.92 437.54,-599.29 418.13,-584.55"/>
<polygon fill="none" stroke="#63b8ff" points="417.96,-584.42 410.76,-583.97 408.4,-577.16 415.6,-577.6 417.96,-584.42"/>
</a>
</g>
<text text-anchor="middle" x="495.5" y="-603.5" font-family="Helvetica,sans-Serif" font-size="10.00" fill="grey"> &#45;socketAddrInfo</text>
</g>
<!-- Node15 -->
<g id="Node000015" class="node">
<title>Node15</title>
<g id="a_Node000015"><a xlink:href="classnet_1_1in_1_1SocketAddrInfo.html" target="_top" xlink:title=" ">
<polygon fill="white" stroke="transparent" points="564,-736.5 454,-736.5 454,-717.5 564,-717.5 564,-736.5"/>
<text text-anchor="start" x="458.5" y="-724" font-family="Helvetica,sans-Serif" font-size="10.00">net::in::SocketAddrInfo</text>
<polygon fill="none" stroke="#666666" points="454,-717.5 454,-736.5 564,-736.5 564,-717.5 454,-717.5"/>
</a>
</g>
</g>
<!-- Node15&#45;&gt;Node14 -->
<g id="edge15_Node000014_Node000015" class="edge">
<title>Node15&#45;&gt;Node14</title>
<g id="a_edge15_Node000014_Node000015"><a xlink:title=" ">
<path fill="none" stroke="#63b8ff" d="M508.31,-717.4C507.53,-707.62 506.21,-691.18 505.09,-677.11"/>
<polygon fill="none" stroke="#63b8ff" points="505.09,-677.07 500.62,-671.41 504.13,-665.11 508.59,-670.77 505.09,-677.07"/>
</a>
</g>
<text text-anchor="middle" x="516.5" y="-686" font-family="Helvetica,sans-Serif" font-size="10.00" fill="grey"> +ptr</text>
</g>
<!-- Node16 -->
<g id="Node000016" class="node">
<title>Node16</title>
<g id="a_Node000016"><a xlink:href="classnet_1_1in_1_1config_1_1ConfigAddress.html" target="_top" xlink:title=" ">
<polygon fill="white" stroke="transparent" points="508,-175 342,-175 342,-145 508,-145 508,-175"/>
<text text-anchor="start" x="346" y="-163" font-family="Helvetica,sans-Serif" font-size="10.00">net::in::config::ConfigAddress</text>
<text text-anchor="start" x="346" y="-152" font-family="Helvetica,sans-Serif" font-size="10.00">&lt; net::config::ConfigAddressLocal &gt;</text>
<polygon fill="none" stroke="#666666" points="342,-145 342,-175 508,-175 508,-145 342,-145"/>
</a>
</g>
</g>
<!-- Node16&#45;&gt;Node2 -->
<g id="edge16_Node000002_Node000016" class="edge">
<title>Node16&#45;&gt;Node2</title>
<g id="a_edge16_Node000002_Node000016"><a xlink:title=" ">
<path fill="none" stroke="#63b8ff" d="M356.54,-142.64C312.17,-132.04 254.26,-118.19 208.09,-107.16"/>
<polygon fill="none" stroke="#63b8ff" points="355.83,-146.07 366.36,-144.99 357.45,-139.26 355.83,-146.07"/>
</a>
</g>
</g>
<!-- Node17&#45;&gt;Node16 -->
<g id="edge17_Node000016_Node000017" class="edge">
<title>Node17&#45;&gt;Node16</title>
<g id="a_edge17_Node000016_Node000017"><a xlink:title=" ">
<path fill="none" stroke="#63b8ff" d="M419.34,-201.9C420.59,-192.87 421.97,-182.91 423.05,-175.08"/>
<polygon fill="none" stroke="#63b8ff" points="415.86,-201.51 417.95,-211.9 422.79,-202.47 415.86,-201.51"/>
</a>
</g>
</g>
<!-- Node18&#45;&gt;Node2 -->
<g id="edge19_Node000002_Node000018" class="edge">
<title>Node18&#45;&gt;Node2</title>
<g id="a_edge19_Node000002_Node000018"><a xlink:title=" ">
<path fill="none" stroke="#63b8ff" d="M71.01,-345.77C72.75,-327.87 75,-300.13 75,-276 75,-276 75,-276 75,-159 75,-138.82 89.18,-120.95 103.14,-108.26"/>
<polygon fill="none" stroke="#63b8ff" points="67.5,-345.67 69.96,-355.97 74.46,-346.38 67.5,-345.67"/>
</a>
</g>
</g>
<!-- Node19 -->
<g id="Node000019" class="node">
<title>Node19</title>
<g id="a_Node000019"><a xlink:href="classnet_1_1config_1_1ConfigPhysicalSocketClient.html" target="_top" xlink:title=" ">
<polygon fill="white" stroke="transparent" points="218,-290 92,-290 92,-260 218,-260 218,-290"/>
<text text-anchor="start" x="96" y="-278" font-family="Helvetica,sans-Serif" font-size="10.00">net::config::ConfigPhysical</text>
<text text-anchor="start" x="126.5" y="-267" font-family="Helvetica,sans-Serif" font-size="10.00">SocketClient</text>
<polygon fill="none" stroke="#666666" points="92,-260 92,-290 218,-290 218,-260 92,-260"/>
</a>
</g>
</g>
<!-- Node19&#45;&gt;Node2 -->
<g id="edge21_Node000002_Node000019" class="edge">
<title>Node19&#45;&gt;Node2</title>
<g id="a_edge21_Node000002_Node000019"><a xlink:title=" ">
<path fill="none" stroke="#63b8ff" d="M149.98,-250.17C145.94,-230.19 140.39,-200.84 137,-175 134,-152.14 132.09,-125.71 131.03,-108.14"/>
<polygon fill="none" stroke="#63b8ff" points="146.55,-250.88 152,-259.97 153.41,-249.47 146.55,-250.88"/>
</a>
</g>
</g>
<!-- Node20&#45;&gt;Node19 -->
<g id="edge22_Node000019_Node000020" class="edge">
<title>Node20&#45;&gt;Node19</title>
<g id="a_edge22_Node000019_Node000020"><a xlink:title=" ">
<path fill="none" stroke="#63b8ff" d="M157.45,-382.77C156.82,-355.63 155.84,-312.55 155.33,-290.32"/>
<polygon fill="none" stroke="#63b8ff" points="153.95,-383.06 157.68,-392.98 160.95,-382.9 153.95,-383.06"/>
</a>
</g>
</g>
<!-- Node21 -->
<g id="Node000021" class="node">
<title>Node21</title>
<g id="a_Node000021"><a xlink:title=" ">
<polygon fill="white" stroke="transparent" points="370,-511 218,-511 218,-470 370,-470 370,-511"/>
<text text-anchor="start" x="222.5" y="-498.5" font-family="Helvetica,sans-Serif" font-size="10.00">std::map&lt; int, std</text>
<text text-anchor="start" x="222.5" y="-487.5" font-family="Helvetica,sans-Serif" font-size="10.00">::map&lt; int, const net</text>
<text text-anchor="start" x="222.5" y="-476.5" font-family="Helvetica,sans-Serif" font-size="10.00">::phy::PhysicalSocketOption &gt; &gt;</text>
<polygon fill="none" stroke="#666666" points="218,-470 218,-511 370,-511 370,-470 218,-470"/>
</a>
</g>
</g>
<!-- Node21&#45;&gt;Node20 -->
<g id="edge24_Node000020_Node000021" class="edge">
<title>Node21&#45;&gt;Node20</title>
<g id="a_edge24_Node000020_Node000021"><a xlink:title=" ">
<path fill="none" stroke="#63b8ff" d="M260.73,-469.81C239.97,-457.52 213.31,-441.74 192.35,-429.33"/>
<polygon fill="none" stroke="#63b8ff" points="192.3,-429.3 185.1,-429.69 181.97,-423.19 189.17,-422.8 192.3,-429.3"/>
</a>
</g>
<text text-anchor="middle" x="283.5" y="-444" font-family="Helvetica,sans-Serif" font-size="10.00" fill="grey"> &#45;socketOptionsMapMap</text>
</g>
</g>
</svg>
