<?xml version="1.0" encoding="UTF-8" standalone="no"?>
<!DOCTYPE svg PUBLIC "-//W3C//DTD SVG 1.1//EN"
 "http://www.w3.org/Graphics/SVG/1.1/DTD/svg11.dtd">
<!-- Generated by graphviz version 2.42.4 (0)
 -->
<!-- Title: App::get_option_no_throw Pages: 1 -->
<svg width="399pt" height="113pt"
 viewBox="0.00 0.00 399.00 112.50" xmlns="http://www.w3.org/2000/svg" xmlns:xlink="http://www.w3.org/1999/xlink">
<g id="graph0" class="graph" transform="scale(1 1) rotate(0) translate(4 108.5)">
<title>App::get_option_no_throw</title>
<!-- Node1 -->
<g id="Node000001" class="node">
<title>Node1</title>
<g id="a_Node000001"><a xlink:title="Get an option by name (noexcept non&#45;const version)">
<polygon fill="#999999" stroke="#666666" points="391,-61.5 281,-61.5 281,-31.5 391,-31.5 391,-61.5"/>
<text text-anchor="start" x="289" y="-49.5" font-family="Helvetica,sans-Serif" font-size="10.00">App::get_option_no</text>
<text text-anchor="middle" x="336" y="-38.5" font-family="Helvetica,sans-Serif" font-size="10.00">_throw</text>
</a>
</g>
</g>
<!-- Node2 -->
<g id="Node000002" class="node">
<title>Node2</title>
<g id="a_Node000002"><a xlink:href="classApp.html#af14d8ead6eedb2a651a5c8f8700e77ec" target="_top" xlink:title="Fill in a single config option.">
<polygon fill="white" stroke="#666666" points="245,-104.5 137,-104.5 137,-74.5 245,-74.5 245,-104.5"/>
<text text-anchor="start" x="145" y="-92.5" font-family="Helvetica,sans-Serif" font-size="10.00">App::_parse_single</text>
<text text-anchor="middle" x="191" y="-81.5" font-family="Helvetica,sans-Serif" font-size="10.00">_config</text>
</a>
</g>
</g>
<!-- Node1&#45;&gt;Node2 -->
<g id="edge1_Node000001_Node000002" class="edge">
<title>Node1&#45;&gt;Node2</title>
<g id="a_edge1_Node000001_Node000002"><a xlink:title=" ">
<path fill="none" stroke="#63b8ff" d="M275.08,-64.52C264.15,-67.81 252.84,-71.2 242.23,-74.4"/>
<polygon fill="#63b8ff" stroke="#63b8ff" points="276.42,-67.77 284.99,-61.54 274.4,-61.07 276.42,-67.77"/>
</a>
</g>
</g>
<!-- Node3 -->
<g id="Node000003" class="node">
<title>Node3</title>
<g id="a_Node000003"><a xlink:href="classApp.html#a473433134f616c595d7e46642c483628" target="_top" xlink:title="Get an option by name (non&#45;const version)">
<polygon fill="white" stroke="#666666" points="237.5,-56 144.5,-56 144.5,-37 237.5,-37 237.5,-56"/>
<text text-anchor="middle" x="191" y="-44" font-family="Helvetica,sans-Serif" font-size="10.00">App::get_option</text>
</a>
</g>
</g>
<!-- Node1&#45;&gt;Node3 -->
<g id="edge2_Node000001_Node000003" class="edge">
<title>Node1&#45;&gt;Node3</title>
<g id="a_edge2_Node000001_Node000003"><a xlink:title=" ">
<path fill="none" stroke="#63b8ff" d="M270.8,-46.5C259.65,-46.5 248.26,-46.5 237.73,-46.5"/>
<polygon fill="#63b8ff" stroke="#63b8ff" points="270.94,-50 280.94,-46.5 270.94,-43 270.94,-50"/>
</a>
</g>
</g>
<!-- Node6 -->
<g id="Node000006" class="node">
<title>Node6</title>
<g id="a_Node000006"><a xlink:href="CLI11_8hpp.html#a399496af8ac78a5b4ff5390a114e6d9f" target="_top" xlink:title="Helper function to mark an option as retired.">
<polygon fill="white" stroke="#666666" points="230.5,-19 151.5,-19 151.5,0 230.5,0 230.5,-19"/>
<text text-anchor="middle" x="191" y="-7" font-family="Helvetica,sans-Serif" font-size="10.00">retire_option</text>
</a>
</g>
</g>
<!-- Node1&#45;&gt;Node6 -->
<g id="edge5_Node000001_Node000006" class="edge">
<title>Node1&#45;&gt;Node6</title>
<g id="a_edge5_Node000001_Node000006"><a xlink:title=" ">
<path fill="none" stroke="#63b8ff" d="M271.02,-29.95C256.57,-26.21 241.7,-22.36 228.81,-19.02"/>
<polygon fill="#63b8ff" stroke="#63b8ff" points="270.38,-33.4 280.94,-32.51 272.13,-26.62 270.38,-33.4"/>
</a>
</g>
</g>
<!-- Node4 -->
<g id="Node000004" class="node">
<title>Node4</title>
<g id="a_Node000004"><a xlink:href="CLI11_8hpp.html#a46af337eb3fe58e6a1b4e1a532f7d365" target="_top" xlink:title="Helper function to mark an option as deprecated.">
<polygon fill="white" stroke="#666666" points="101,-93 0,-93 0,-74 101,-74 101,-93"/>
<text text-anchor="middle" x="50.5" y="-81" font-family="Helvetica,sans-Serif" font-size="10.00">deprecate_option</text>
</a>
</g>
</g>
<!-- Node3&#45;&gt;Node4 -->
<g id="edge3_Node000003_Node000004" class="edge">
<title>Node3&#45;&gt;Node4</title>
<g id="a_edge3_Node000003_Node000004"><a xlink:title=" ">
<path fill="none" stroke="#63b8ff" d="M144.63,-58.62C126.1,-63.57 104.97,-69.22 87.53,-73.88"/>
<polygon fill="#63b8ff" stroke="#63b8ff" points="145.57,-61.99 154.33,-56.03 143.77,-55.23 145.57,-61.99"/>
</a>
</g>
</g>
<!-- Node5 -->
<g id="Node000005" class="node">
<title>Node5</title>
<g id="a_Node000005"><a xlink:href="CLI11_8hpp.html#a85071640e10450f6eeca02843d08dc95" target="_top" xlink:title="Helper function to mark an option as deprecated.">
<polygon fill="white" stroke="#666666" points="101,-56 0,-56 0,-37 101,-37 101,-56"/>
<text text-anchor="middle" x="50.5" y="-44" font-family="Helvetica,sans-Serif" font-size="10.00">deprecate_option</text>
</a>
</g>
</g>
<!-- Node3&#45;&gt;Node5 -->
<g id="edge4_Node000003_Node000005" class="edge">
<title>Node3&#45;&gt;Node5</title>
<g id="a_edge4_Node000003_Node000005"><a xlink:title=" ">
<path fill="none" stroke="#63b8ff" d="M133.98,-46.5C123.06,-46.5 111.69,-46.5 101,-46.5"/>
<polygon fill="#63b8ff" stroke="#63b8ff" points="134.27,-50 144.27,-46.5 134.27,-43 134.27,-50"/>
</a>
</g>
</g>
<!-- Node7 -->
<g id="Node000007" class="node">
<title>Node7</title>
<g id="a_Node000007"><a xlink:href="CLI11_8hpp.html#ac7bd752a47e4ea100405093f112e95e6" target="_top" xlink:title="Helper function to mark an option as retired.">
<polygon fill="white" stroke="#666666" points="90,-19 11,-19 11,0 90,0 90,-19"/>
<text text-anchor="middle" x="50.5" y="-7" font-family="Helvetica,sans-Serif" font-size="10.00">retire_option</text>
</a>
</g>
</g>
<!-- Node6&#45;&gt;Node7 -->
<g id="edge6_Node000006_Node000007" class="edge">
<title>Node6&#45;&gt;Node7</title>
<g id="a_edge6_Node000006_Node000007"><a xlink:title=" ">
<path fill="none" stroke="#63b8ff" d="M141.29,-9.5C124.6,-9.5 106.16,-9.5 90.35,-9.5"/>
<polygon fill="#63b8ff" stroke="#63b8ff" points="141.42,-13 151.42,-9.5 141.42,-6 141.42,-13"/>
</a>
</g>
</g>
</g>
</svg>
