<?xml version="1.0" encoding="UTF-8" standalone="no"?>
<!DOCTYPE svg PUBLIC "-//W3C//DTD SVG 1.1//EN"
 "http://www.w3.org/Graphics/SVG/1.1/DTD/svg11.dtd">
<!-- Generated by graphviz version 14.1.2 (0)
 -->
<!-- Title: core::socket::stream::legacy::SocketAcceptor&lt; PhysicalServerSocketT, ConfigT &gt; Pages: 1 -->
<svg width="211pt" height="345pt"
 viewBox="0.00 0.00 211.00 345.00" xmlns="http://www.w3.org/2000/svg" xmlns:xlink="http://www.w3.org/1999/xlink">

<svg id="main" version="1.1" xmlns="http://www.w3.org/2000/svg" xmlns:xlink="http://www.w3.org/1999/xlink" xml:space="preserve">

<style type="text/css"><![CDATA[
.node, .edge {opacity: 0.7;}
.node.selected, .edge.selected {opacity: 1;}
.edge:hover path { stroke: red; }
.edge:hover polygon { stroke: red; fill: red; }
]]></style>
<script type="application/ecmascript" xlink:href="svg.min.js"/>
<svg id="graph" class="graph">
<g id="graph0" class="graph" transform="scale(1 1) rotate(0) translate(4 341)">
<title>core::socket::stream::legacy::SocketAcceptor&lt; PhysicalServerSocketT, ConfigT &gt;</title>
<!-- Node1 -->
<g id="Node000001" class="node">
<title>Node1</title>
<g id="a_Node000001"><a xlink:title=" ">
<polygon fill="#999999" stroke="none" points="161.38,-59 28.88,-59 28.88,0 161.38,0 161.38,-59"/>
<text xml:space="preserve" text-anchor="start" x="32.88" y="-45.5" font-family="Helvetica,sans-Serif" font-size="10.00">core::socket::stream</text>
<text xml:space="preserve" text-anchor="start" x="32.88" y="-32.75" font-family="Helvetica,sans-Serif" font-size="10.00">::legacy::SocketAcceptor</text>
<text xml:space="preserve" text-anchor="start" x="32.88" y="-20" font-family="Helvetica,sans-Serif" font-size="10.00">&lt; PhysicalServerSocketT,</text>
<text xml:space="preserve" text-anchor="start" x="69.25" y="-7.25" font-family="Helvetica,sans-Serif" font-size="10.00"> ConfigT &gt;</text>
<polygon fill="none" stroke="#666666" points="28.88,0 28.88,-59 161.38,-59 161.38,0 28.88,0"/>
</a>
</g>
</g>
<!-- Node2 -->
<g id="Node000002" class="node">
<title>Node2</title>
<g id="a_Node000002"><a xlink:href="classcore_1_1socket_1_1stream_1_1SocketAcceptor.html" target="_top" xlink:title=" ">
<polygon fill="white" stroke="none" points="190.25,-154 0,-154 0,-95 190.25,-95 190.25,-154"/>
<text xml:space="preserve" text-anchor="start" x="4" y="-140.5" font-family="Helvetica,sans-Serif" font-size="10.00">core::socket::stream</text>
<text xml:space="preserve" text-anchor="start" x="4" y="-127.75" font-family="Helvetica,sans-Serif" font-size="10.00">::SocketAcceptor&lt; PhysicalServer</text>
<text xml:space="preserve" text-anchor="start" x="4" y="-115" font-family="Helvetica,sans-Serif" font-size="10.00">SocketT, ConfigT, core::socket</text>
<text xml:space="preserve" text-anchor="start" x="4" y="-102.25" font-family="Helvetica,sans-Serif" font-size="10.00">::stream::legacy::SocketConnection &gt;</text>
<polygon fill="none" stroke="#666666" points="0,-95 0,-154 190.25,-154 190.25,-95 0,-95"/>
</a>
</g>
</g>
<!-- Node2&#45;&gt;Node1 -->
<g id="edge1_Node000001_Node000002" class="edge">
<title>Node2&#45;&gt;Node1</title>
<g id="a_edge1_Node000001_Node000002"><a xlink:title=" ">
<path fill="none" stroke="#8b1a1a" d="M95.12,-83.58C95.12,-75.22 95.12,-66.56 95.12,-58.73"/>
<polygon fill="none" stroke="#8b1a1a" points="91.63,-83.58 95.13,-93.58 98.63,-83.58 91.63,-83.58"/>
</a>
</g>
</g>
<!-- Node3 -->
<g id="Node000003" class="node">
<title>Node3</title>
<g id="a_Node000003"><a xlink:href="classcore_1_1eventreceiver_1_1AcceptEventReceiver.html" target="_top" xlink:title=" ">
<polygon fill="white" stroke="none" points="153.88,-223.5 36.38,-223.5 36.38,-190 153.88,-190 153.88,-223.5"/>
<text xml:space="preserve" text-anchor="start" x="40.38" y="-210" font-family="Helvetica,sans-Serif" font-size="10.00">core::eventreceiver</text>
<text xml:space="preserve" text-anchor="start" x="40.38" y="-197.25" font-family="Helvetica,sans-Serif" font-size="10.00">::AcceptEventReceiver</text>
<polygon fill="none" stroke="#666666" points="36.38,-190 36.38,-223.5 153.88,-223.5 153.88,-190 36.38,-190"/>
</a>
</g>
</g>
<!-- Node3&#45;&gt;Node2 -->
<g id="edge2_Node000002_Node000003" class="edge">
<title>Node3&#45;&gt;Node2</title>
<g id="a_edge2_Node000002_Node000003"><a xlink:title=" ">
<path fill="none" stroke="darkgreen" d="M95.12,-178.9C95.12,-170.87 95.12,-162.05 95.12,-153.92"/>
<polygon fill="none" stroke="darkgreen" points="91.63,-178.76 95.13,-188.76 98.63,-178.76 91.63,-178.76"/>
</a>
</g>
</g>
<!-- Node4 -->
<g id="Node000004" class="node">
<title>Node4</title>
<g id="a_Node000004"><a xlink:href="classcore_1_1DescriptorEventReceiver.html" target="_top" xlink:title=" ">
<polygon fill="white" stroke="none" points="173,-280.25 17.25,-280.25 17.25,-259.5 173,-259.5 173,-280.25"/>
<text xml:space="preserve" text-anchor="start" x="21.25" y="-266.75" font-family="Helvetica,sans-Serif" font-size="10.00">core::DescriptorEventReceiver</text>
<polygon fill="none" stroke="#666666" points="17.25,-259.5 17.25,-280.25 173,-280.25 173,-259.5 17.25,-259.5"/>
</a>
</g>
</g>
<!-- Node4&#45;&gt;Node3 -->
<g id="edge3_Node000003_Node000004" class="edge">
<title>Node4&#45;&gt;Node3</title>
<g id="a_edge3_Node000003_Node000004"><a xlink:title=" ">
<path fill="none" stroke="#63b8ff" d="M95.12,-248.36C95.12,-240.18 95.12,-230.92 95.12,-223.31"/>
<polygon fill="none" stroke="#63b8ff" points="91.63,-248.08 95.13,-258.08 98.63,-248.08 91.63,-248.08"/>
</a>
</g>
</g>
<!-- Node5 -->
<g id="Node000005" class="node">
<title>Node5</title>
<g id="a_Node000005"><a xlink:href="classcore_1_1Observer.html" target="_top" xlink:title=" ">
<polygon fill="white" stroke="none" points="79.75,-337 0.5,-337 0.5,-316.25 79.75,-316.25 79.75,-337"/>
<text xml:space="preserve" text-anchor="start" x="4.5" y="-323.5" font-family="Helvetica,sans-Serif" font-size="10.00">core::Observer</text>
<polygon fill="none" stroke="#666666" points="0.5,-316.25 0.5,-337 79.75,-337 79.75,-316.25 0.5,-316.25"/>
</a>
</g>
</g>
<!-- Node5&#45;&gt;Node4 -->
<g id="edge4_Node000004_Node000005" class="edge">
<title>Node5&#45;&gt;Node4</title>
<g id="a_edge4_Node000004_Node000005"><a xlink:title=" ">
<path fill="none" stroke="darkgreen" d="M57.19,-308.64C66.64,-299.23 78.03,-287.89 85.85,-280.11"/>
<polygon fill="none" stroke="darkgreen" points="54.9,-305.98 50.28,-315.52 59.84,-310.94 54.9,-305.98"/>
</a>
</g>
</g>
<!-- Node6 -->
<g id="Node000006" class="node">
<title>Node6</title>
<g id="a_Node000006"><a xlink:href="classcore_1_1EventReceiver.html" target="_top" xlink:title=" ">
<polygon fill="white" stroke="none" points="202.88,-337 97.38,-337 97.38,-316.25 202.88,-316.25 202.88,-337"/>
<text xml:space="preserve" text-anchor="start" x="101.38" y="-323.5" font-family="Helvetica,sans-Serif" font-size="10.00">core::EventReceiver</text>
<polygon fill="none" stroke="#666666" points="97.38,-316.25 97.38,-337 202.88,-337 202.88,-316.25 97.38,-316.25"/>
</a>
</g>
</g>
<!-- Node6&#45;&gt;Node4 -->
<g id="edge5_Node000004_Node000006" class="edge">
<title>Node6&#45;&gt;Node4</title>
<g id="a_edge5_Node000004_Node000006"><a xlink:title=" ">
<path fill="none" stroke="#63b8ff" d="M133.06,-308.64C123.61,-299.23 112.22,-287.89 104.4,-280.11"/>
<polygon fill="none" stroke="#63b8ff" points="130.41,-310.94 139.97,-315.52 135.35,-305.98 130.41,-310.94"/>
</a>
</g>
</g>
</g>
</svg>
</svg>

<style type='text/css'>
<![CDATA[
[data-mouse-over-selected='false'] { opacity: 0.7; }
[data-mouse-over-selected='true']  { opacity: 1.0; }
]]>
</style>
<script type="application/ecmascript"><![CDATA[
document.addEventListener('DOMContentLoaded', (event) => {
  highlightEdges();
  highlightAdjacentNodes();
});
]]></script>
</svg>
