<?xml version="1.0" encoding="UTF-8" standalone="no"?>
<!DOCTYPE svg PUBLIC "-//W3C//DTD SVG 1.1//EN"
 "http://www.w3.org/Graphics/SVG/1.1/DTD/svg11.dtd">
<!-- Generated by graphviz version 2.42.4 (0)
 -->
<!-- Title: iot::mqtt::server::SharedSocketContextFactory Pages: 1 -->
<svg width="265pt" height="188pt"
 viewBox="0.00 0.00 265.00 188.00" xmlns="http://www.w3.org/2000/svg" xmlns:xlink="http://www.w3.org/1999/xlink">
<g id="graph0" class="graph" transform="scale(1 1) rotate(0) translate(4 184)">
<title>iot::mqtt::server::SharedSocketContextFactory</title>
<!-- Node1 -->
<g id="Node000001" class="node">
<title>Node1</title>
<g id="a_Node000001"><a xlink:title=" ">
<polygon fill="#999999" stroke="transparent" points="171,-30 21,-30 21,0 171,0 171,-30"/>
<text text-anchor="start" x="25.5" y="-18" font-family="Helvetica,sans-Serif" font-size="10.00">iot::mqtt::server::</text>
<text text-anchor="start" x="25.5" y="-7" font-family="Helvetica,sans-Serif" font-size="10.00">SharedSocketContextFactory</text>
<polygon fill="none" stroke="#666666" points="21,0 21,-30 171,-30 171,0 21,0"/>
</a>
</g>
</g>
<!-- Node2 -->
<g id="Node000002" class="node">
<title>Node2</title>
<g id="a_Node000002"><a xlink:href="classcore_1_1socket_1_1stream_1_1SocketContextFactory.html" target="_top" xlink:title=" ">
<polygon fill="white" stroke="transparent" points="122,-113 0,-113 0,-83 122,-83 122,-113"/>
<text text-anchor="start" x="4.5" y="-101" font-family="Helvetica,sans-Serif" font-size="10.00">core::socket::stream</text>
<text text-anchor="start" x="4.5" y="-90" font-family="Helvetica,sans-Serif" font-size="10.00">::SocketContextFactory</text>
<polygon fill="none" stroke="#666666" points="0,-83 0,-113 122,-113 122,-83 0,-83"/>
</a>
</g>
</g>
<!-- Node2&#45;&gt;Node1 -->
<g id="edge1_Node000001_Node000002" class="edge">
<title>Node2&#45;&gt;Node1</title>
<g id="a_edge1_Node000001_Node000002"><a xlink:title=" ">
<path fill="none" stroke="#63b8ff" d="M71.19,-73.41C77.24,-59.41 84.7,-42.14 89.86,-30.22"/>
<polygon fill="none" stroke="#63b8ff" points="67.85,-72.32 67.1,-82.89 74.28,-75.1 67.85,-72.32"/>
</a>
</g>
</g>
<!-- Node3 -->
<g id="Node000003" class="node">
<title>Node3</title>
<g id="a_Node000003"><a xlink:title=" ">
<polygon fill="white" stroke="transparent" points="198,-107.5 140,-107.5 140,-88.5 198,-88.5 198,-107.5"/>
<text text-anchor="start" x="144.5" y="-95" font-family="Helvetica,sans-Serif" font-size="10.00">std::string</text>
<polygon fill="none" stroke="#666666" points="140,-88.5 140,-107.5 198,-107.5 198,-88.5 140,-88.5"/>
</a>
</g>
</g>
<!-- Node3&#45;&gt;Node1 -->
<g id="edge2_Node000001_Node000003" class="edge">
<title>Node3&#45;&gt;Node1</title>
<g id="a_edge2_Node000001_Node000003"><a xlink:title=" ">
<path fill="none" stroke="#63b8ff" d="M161.19,-88.33C150.67,-76.66 131.58,-55.47 116.76,-39.03"/>
<polygon fill="none" stroke="#63b8ff" points="116.66,-38.92 109.67,-37.15 108.63,-30.01 115.62,-31.79 116.66,-38.92"/>
</a>
</g>
<text text-anchor="start" x="142" y="-53.5" font-family="Helvetica,sans-Serif" font-size="10.00" fill="grey">&#45;sessionStoreFileName</text>
</g>
<!-- Node4 -->
<g id="Node000004" class="node">
<title>Node4</title>
<g id="a_Node000004"><a xlink:title=" ">
<polygon fill="white" stroke="transparent" points="217,-180 121,-180 121,-150 217,-150 217,-180"/>
<text text-anchor="start" x="125" y="-168" font-family="Helvetica,sans-Serif" font-size="10.00">std::basic_string&lt;</text>
<text text-anchor="start" x="150.5" y="-157" font-family="Helvetica,sans-Serif" font-size="10.00"> Char &gt;</text>
<polygon fill="none" stroke="#666666" points="121,-150 121,-180 217,-180 217,-150 121,-150"/>
</a>
</g>
</g>
<!-- Node4&#45;&gt;Node3 -->
<g id="edge3_Node000003_Node000004" class="edge">
<title>Node4&#45;&gt;Node3</title>
<g id="a_edge3_Node000003_Node000004"><a xlink:title=" ">
<path fill="none" stroke="#63b8ff" d="M169,-139.75C169,-128.52 169,-115.88 169,-107.69"/>
<polygon fill="none" stroke="#63b8ff" points="165.5,-139.9 169,-149.9 172.5,-139.9 165.5,-139.9"/>
</a>
</g>
</g>
</g>
</svg>
