<?xml version="1.0" encoding="UTF-8" standalone="no"?>
<!DOCTYPE svg PUBLIC "-//W3C//DTD SVG 1.1//EN"
 "http://www.w3.org/Graphics/SVG/1.1/DTD/svg11.dtd">
<!-- Generated by graphviz version 2.43.0 (0)
 -->
<!-- Title: net::in::stream::SocketServer&lt; SocketAcceptorT, ConfigSocketServerT, SocketContextFactoryT &gt; Pages: 1 -->
<svg width="244pt" height="214pt"
 viewBox="0.00 0.00 244.00 214.00" xmlns="http://www.w3.org/2000/svg" xmlns:xlink="http://www.w3.org/1999/xlink">
<g id="graph0" class="graph" transform="scale(1 1) rotate(0) translate(4 210)">
<title>net::in::stream::SocketServer&lt; SocketAcceptorT, ConfigSocketServerT, SocketContextFactoryT &gt;</title>
<!-- Node1 -->
<g id="Node000001" class="node">
<title>Node1</title>
<g id="a_Node000001"><a xlink:title=" ">
<polygon fill="#999999" stroke="transparent" points="219,-41 17,-41 17,0 219,0 219,-41"/>
<text text-anchor="start" x="21" y="-28.5" font-family="Helvetica,sans-Serif" font-size="10.00">net::in::stream::SocketServer</text>
<text text-anchor="start" x="21" y="-17.5" font-family="Helvetica,sans-Serif" font-size="10.00">&lt; SocketAcceptorT, ConfigSocketServer</text>
<text text-anchor="start" x="50" y="-6.5" font-family="Helvetica,sans-Serif" font-size="10.00">T, SocketContextFactoryT &gt;</text>
<polygon fill="none" stroke="#666666" points="17,0 17,-41 219,-41 219,0 17,0"/>
</a>
</g>
</g>
<!-- Node2 -->
<g id="Node000002" class="node">
<title>Node2</title>
<g id="a_Node000002"><a xlink:href="classcore_1_1socket_1_1stream_1_1SocketServer.html" target="_top" xlink:title=" ">
<polygon fill="white" stroke="transparent" points="236,-140 0,-140 0,-77 236,-77 236,-140"/>
<text text-anchor="start" x="4.5" y="-127.5" font-family="Helvetica,sans-Serif" font-size="10.00">core::socket::stream</text>
<text text-anchor="start" x="4.5" y="-116.5" font-family="Helvetica,sans-Serif" font-size="10.00">::SocketServer&lt; SocketAcceptor</text>
<text text-anchor="start" x="4.5" y="-105.5" font-family="Helvetica,sans-Serif" font-size="10.00">T&lt; net::in::phy::stream::PhysicalSocket</text>
<text text-anchor="start" x="4.5" y="-94.5" font-family="Helvetica,sans-Serif" font-size="10.00">Server, ConfigSocketServerT &gt;, SocketContext</text>
<text text-anchor="start" x="91" y="-83.5" font-family="Helvetica,sans-Serif" font-size="10.00">FactoryT &gt;</text>
<polygon fill="none" stroke="#666666" points="0,-77 0,-140 236,-140 236,-77 0,-77"/>
</a>
</g>
</g>
<!-- Node2&#45;&gt;Node1 -->
<g id="edge1_Node000001_Node000002" class="edge">
<title>Node2&#45;&gt;Node1</title>
<g id="a_edge1_Node000001_Node000002"><a xlink:title=" ">
<path fill="none" stroke="#63b8ff" d="M118,-66.68C118,-57.81 118,-48.83 118,-41.23"/>
<polygon fill="none" stroke="#63b8ff" points="114.5,-66.94 118,-76.94 121.5,-66.94 114.5,-66.94"/>
</a>
</g>
</g>
<!-- Node3 -->
<g id="Node000003" class="node">
<title>Node3</title>
<g id="a_Node000003"><a xlink:href="classcore_1_1socket_1_1Socket.html" target="_top" xlink:title=" ">
<polygon fill="white" stroke="transparent" points="193,-206 43,-206 43,-176 193,-176 193,-206"/>
<text text-anchor="start" x="47.5" y="-194" font-family="Helvetica,sans-Serif" font-size="10.00">core::socket::Socket</text>
<text text-anchor="start" x="47.5" y="-183" font-family="Helvetica,sans-Serif" font-size="10.00">&lt; SocketAcceptorT::Config &gt;</text>
<polygon fill="none" stroke="#666666" points="43,-176 43,-206 193,-206 193,-176 43,-176"/>
</a>
</g>
</g>
<!-- Node3&#45;&gt;Node2 -->
<g id="edge2_Node000002_Node000003" class="edge">
<title>Node3&#45;&gt;Node2</title>
<g id="a_edge2_Node000002_Node000003"><a xlink:title=" ">
<path fill="none" stroke="#63b8ff" d="M118,-165.74C118,-157.65 118,-148.54 118,-140.03"/>
<polygon fill="none" stroke="#63b8ff" points="114.5,-165.98 118,-175.98 121.5,-165.98 114.5,-165.98"/>
</a>
</g>
</g>
</g>
</svg>
