<?xml version="1.0" encoding="UTF-8" standalone="no"?>
<!DOCTYPE svg PUBLIC "-//W3C//DTD SVG 1.1//EN"
 "http://www.w3.org/Graphics/SVG/1.1/DTD/svg11.dtd">
<!-- Generated by graphviz version 2.42.4 (0)
 -->
<!-- Title: net::rc::SocketAddress Pages: 1 -->
<svg width="266pt" height="177pt"
 viewBox="0.00 0.00 266.00 177.00" xmlns="http://www.w3.org/2000/svg" xmlns:xlink="http://www.w3.org/1999/xlink">

<svg id="main" version="1.1" xmlns="http://www.w3.org/2000/svg" xmlns:xlink="http://www.w3.org/1999/xlink" xml:space="preserve">

<style type="text/css"><![CDATA[
.node, .edge {opacity: 0.7;}
.node.selected, .edge.selected {opacity: 1;}
.edge:hover path { stroke: red; }
.edge:hover polygon { stroke: red; fill: red; }
]]></style>
<script type="application/ecmascript" xlink:href="svg.min.js"/>
<svg id="graph" class="graph">
<g id="graph0" class="graph" transform="scale(1 1) rotate(0) translate(4 173)">
<title>net::rc::SocketAddress</title>
<!-- Node1 -->
<g id="Node000001" class="node">
<title>Node1</title>
<g id="a_Node000001"><a xlink:title=" ">
<polygon fill="#999999" stroke="transparent" points="189,-19 71,-19 71,0 189,0 189,-19"/>
<text text-anchor="start" x="75.5" y="-6.5" font-family="Helvetica,sans-Serif" font-size="10.00">net::rc::SocketAddress</text>
<polygon fill="none" stroke="#666666" points="71,0 71,-19 189,-19 189,0 71,0"/>
</a>
</g>
</g>
<!-- Node2 -->
<g id="Node000002" class="node">
<title>Node2</title>
<g id="a_Node000002"><a xlink:href="classnet_1_1SocketAddress.html" target="_top" xlink:title=" ">
<polygon fill="white" stroke="transparent" points="133,-102 31,-102 31,-72 133,-72 133,-102"/>
<text text-anchor="start" x="35" y="-90" font-family="Helvetica,sans-Serif" font-size="10.00">net::SocketAddress</text>
<text text-anchor="start" x="41" y="-79" font-family="Helvetica,sans-Serif" font-size="10.00">&lt; sockaddr_rc &gt;</text>
<polygon fill="none" stroke="#666666" points="31,-72 31,-102 133,-102 133,-72 31,-72"/>
</a>
</g>
</g>
<!-- Node2&#45;&gt;Node1 -->
<g id="edge1_Node000001_Node000002" class="edge">
<title>Node2&#45;&gt;Node1</title>
<g id="a_edge1_Node000001_Node000002"><a xlink:title=" ">
<path fill="none" stroke="#63b8ff" d="M96.56,-63.1C106.03,-48.2 117.84,-29.62 124.59,-19.01"/>
<polygon fill="none" stroke="#63b8ff" points="93.44,-61.48 91.03,-71.8 99.35,-65.24 93.44,-61.48"/>
</a>
</g>
</g>
<!-- Node3 -->
<g id="Node000003" class="node">
<title>Node3</title>
<g id="a_Node000003"><a xlink:href="classcore_1_1socket_1_1SocketAddress.html" target="_top" xlink:title=" ">
<polygon fill="white" stroke="transparent" points="144,-163.5 0,-163.5 0,-144.5 144,-144.5 144,-163.5"/>
<text text-anchor="start" x="4" y="-151" font-family="Helvetica,sans-Serif" font-size="10.00">core::socket::SocketAddress</text>
<polygon fill="none" stroke="#666666" points="0,-144.5 0,-163.5 144,-163.5 144,-144.5 0,-144.5"/>
</a>
</g>
</g>
<!-- Node3&#45;&gt;Node2 -->
<g id="edge2_Node000002_Node000003" class="edge">
<title>Node3&#45;&gt;Node2</title>
<g id="a_edge2_Node000002_Node000003"><a xlink:title=" ">
<path fill="none" stroke="#63b8ff" d="M74.89,-134.24C76.46,-123.99 78.38,-111.5 79.83,-102.09"/>
<polygon fill="none" stroke="#63b8ff" points="71.41,-133.82 73.35,-144.23 78.33,-134.88 71.41,-133.82"/>
</a>
</g>
</g>
<!-- Node4 -->
<g id="Node000004" class="node">
<title>Node4</title>
<g id="a_Node000004"><a xlink:title=" ">
<polygon fill="white" stroke="transparent" points="229,-96.5 171,-96.5 171,-77.5 229,-77.5 229,-96.5"/>
<text text-anchor="start" x="175.5" y="-84" font-family="Helvetica,sans-Serif" font-size="10.00">std::string</text>
<polygon fill="none" stroke="#666666" points="171,-77.5 171,-96.5 229,-96.5 229,-77.5 171,-77.5"/>
</a>
</g>
</g>
<!-- Node4&#45;&gt;Node1 -->
<g id="edge3_Node000001_Node000004" class="edge">
<title>Node4&#45;&gt;Node1</title>
<g id="a_edge3_Node000001_Node000004"><a xlink:title=" ">
<path fill="none" stroke="#63b8ff" d="M191.97,-77.34C180.89,-65.39 160.67,-43.58 146.35,-28.13"/>
<polygon fill="none" stroke="#63b8ff" points="146.09,-27.86 139.08,-26.18 137.94,-19.06 144.95,-20.74 146.09,-27.86"/>
</a>
</g>
<text text-anchor="start" x="173.5" y="-42.5" font-family="Helvetica,sans-Serif" font-size="10.00" fill="grey">&#45;btAddress</text>
</g>
<!-- Node5 -->
<g id="Node000005" class="node">
<title>Node5</title>
<g id="a_Node000005"><a xlink:title=" ">
<polygon fill="white" stroke="transparent" points="258,-169 162,-169 162,-139 258,-139 258,-169"/>
<text text-anchor="start" x="166" y="-157" font-family="Helvetica,sans-Serif" font-size="10.00">std::basic_string&lt;</text>
<text text-anchor="start" x="191.5" y="-146" font-family="Helvetica,sans-Serif" font-size="10.00"> Char &gt;</text>
<polygon fill="none" stroke="#666666" points="162,-139 162,-169 258,-169 258,-139 162,-139"/>
</a>
</g>
</g>
<!-- Node5&#45;&gt;Node4 -->
<g id="edge4_Node000004_Node000005" class="edge">
<title>Node5&#45;&gt;Node4</title>
<g id="a_edge4_Node000004_Node000005"><a xlink:title=" ">
<path fill="none" stroke="#63b8ff" d="M206.27,-128.75C204.54,-117.52 202.6,-104.88 201.34,-96.69"/>
<polygon fill="none" stroke="#63b8ff" points="202.85,-129.54 207.83,-138.9 209.77,-128.48 202.85,-129.54"/>
</a>
</g>
</g>
</g>
</svg>
</svg>

<style type='text/css'>
<![CDATA[
[data-mouse-over-selected='false'] { opacity: 0.7; }
[data-mouse-over-selected='true']  { opacity: 1.0; }
]]>
</style>
<script type="application/ecmascript"><![CDATA[
document.addEventListener('DOMContentLoaded', (event) => {
  highlightEdges();
  highlightAdjacentNodes();
});
]]></script>
</svg>
