<?xml version="1.0" encoding="UTF-8" standalone="no"?>
<!DOCTYPE svg PUBLIC "-//W3C//DTD SVG 1.1//EN"
 "http://www.w3.org/Graphics/SVG/1.1/DTD/svg11.dtd">
<!-- Generated by graphviz version 2.42.4 (0)
 -->
<!-- Title: web::http::client::Request::responseParseError Pages: 1 -->
<svg width="416pt" height="134pt"
 viewBox="0.00 0.00 416.00 134.00" xmlns="http://www.w3.org/2000/svg" xmlns:xlink="http://www.w3.org/1999/xlink">
<g id="graph0" class="graph" transform="scale(1 1) rotate(0) translate(4 130)">
<title>web::http::client::Request::responseParseError</title>
<!-- Node1 -->
<g id="Node000001" class="node">
<title>Node1</title>
<g id="a_Node000001"><a xlink:title=" ">
<polygon fill="#999999" stroke="#666666" points="157,-78 0,-78 0,-48 157,-48 157,-78"/>
<text text-anchor="start" x="8" y="-66" font-family="Helvetica,sans-Serif" font-size="10.00">web::http::client::</text>
<text text-anchor="middle" x="78.5" y="-55" font-family="Helvetica,sans-Serif" font-size="10.00">Request::responseParseError</text>
</a>
</g>
</g>
<!-- Node2 -->
<g id="Node000002" class="node">
<title>Node2</title>
<g id="a_Node000002"><a xlink:href="classcore_1_1socket_1_1stream_1_1SocketConnection.html#a5e26cd617f07295e8579ddb9c41bdd2c" target="_top" xlink:title=" ">
<polygon fill="white" stroke="#666666" points="408,-126 193,-126 193,-96 408,-96 408,-126"/>
<text text-anchor="start" x="201" y="-114" font-family="Helvetica,sans-Serif" font-size="10.00">core::socket::stream</text>
<text text-anchor="middle" x="300.5" y="-103" font-family="Helvetica,sans-Serif" font-size="10.00">::SocketConnection::getConnectionName</text>
</a>
</g>
</g>
<!-- Node1&#45;&gt;Node2 -->
<g id="edge1_Node000001_Node000002" class="edge">
<title>Node1&#45;&gt;Node2</title>
<g id="a_edge1_Node000001_Node000002"><a xlink:title=" ">
<path fill="none" stroke="#63b8ff" d="M148.51,-78.06C171.44,-83.06 197.15,-88.67 220.76,-93.82"/>
<polygon fill="#63b8ff" stroke="#63b8ff" points="220.22,-97.29 230.74,-96 221.72,-90.45 220.22,-97.29"/>
</a>
</g>
</g>
<!-- Node3 -->
<g id="Node000003" class="node">
<title>Node3</title>
<g id="a_Node000003"><a xlink:href="classcore_1_1socket_1_1stream_1_1SocketContext.html#a02f0b93ac0ea376dabd6921c7589a8cf" target="_top" xlink:title=" ">
<polygon fill="white" stroke="#666666" points="401.5,-78 199.5,-78 199.5,-48 401.5,-48 401.5,-78"/>
<text text-anchor="start" x="207.5" y="-66" font-family="Helvetica,sans-Serif" font-size="10.00">core::socket::stream</text>
<text text-anchor="middle" x="300.5" y="-55" font-family="Helvetica,sans-Serif" font-size="10.00">::SocketContext::getSocketConnection</text>
</a>
</g>
</g>
<!-- Node1&#45;&gt;Node3 -->
<g id="edge2_Node000001_Node000003" class="edge">
<title>Node1&#45;&gt;Node3</title>
<g id="a_edge2_Node000001_Node000003"><a xlink:title=" ">
<path fill="none" stroke="#63b8ff" d="M157.06,-63C167.38,-63 178.11,-63 188.84,-63"/>
<polygon fill="#63b8ff" stroke="#63b8ff" points="189.13,-66.5 199.13,-63 189.13,-59.5 189.13,-66.5"/>
</a>
</g>
</g>
<!-- Node4 -->
<g id="Node000004" class="node">
<title>Node4</title>
<g id="a_Node000004"><a xlink:href="classweb_1_1http_1_1client_1_1Request.html#a8a80259856da04f06962bdce16f727e8" target="_top" xlink:title=" ">
<polygon fill="white" stroke="#666666" points="375,-30 226,-30 226,0 375,0 375,-30"/>
<text text-anchor="start" x="234" y="-18" font-family="Helvetica,sans-Serif" font-size="10.00">web::http::client::</text>
<text text-anchor="middle" x="300.5" y="-7" font-family="Helvetica,sans-Serif" font-size="10.00">Request::getSocketContext</text>
</a>
</g>
</g>
<!-- Node1&#45;&gt;Node4 -->
<g id="edge3_Node000001_Node000004" class="edge">
<title>Node1&#45;&gt;Node4</title>
<g id="a_edge3_Node000001_Node000004"><a xlink:title=" ">
<path fill="none" stroke="#63b8ff" d="M148.51,-47.94C171.44,-42.94 197.15,-37.33 220.76,-32.18"/>
<polygon fill="#63b8ff" stroke="#63b8ff" points="221.72,-35.55 230.74,-30 220.22,-28.71 221.72,-35.55"/>
</a>
</g>
</g>
</g>
</svg>
