<?xml version="1.0" encoding="UTF-8" standalone="no"?>
<!DOCTYPE svg PUBLIC "-//W3C//DTD SVG 1.1//EN"
 "http://www.w3.org/Graphics/SVG/1.1/DTD/svg11.dtd">
<!-- Generated by graphviz version 2.42.4 (0)
 -->
<!-- Title: iot::mqtt::client::packets::Connack::deliverPacket Pages: 1 -->
<svg width="712pt" height="303pt"
 viewBox="0.00 0.00 712.00 302.50" xmlns="http://www.w3.org/2000/svg" xmlns:xlink="http://www.w3.org/1999/xlink">
<g id="graph0" class="graph" transform="scale(1 1) rotate(0) translate(4 298.5)">
<title>iot::mqtt::client::packets::Connack::deliverPacket</title>
<!-- Node1 -->
<g id="Node000001" class="node">
<title>Node1</title>
<g id="a_Node000001"><a xlink:title=" ">
<polygon fill="#999999" stroke="#666666" points="174,-152.5 0,-152.5 0,-122.5 174,-122.5 174,-152.5"/>
<text text-anchor="start" x="8" y="-140.5" font-family="Helvetica,sans-Serif" font-size="10.00">iot::mqtt::client::</text>
<text text-anchor="middle" x="87" y="-129.5" font-family="Helvetica,sans-Serif" font-size="10.00">packets::Connack::deliverPacket</text>
</a>
</g>
</g>
<!-- Node2 -->
<g id="Node000002" class="node">
<title>Node2</title>
<g id="a_Node000002"><a xlink:href="classiot_1_1mqtt_1_1client_1_1Mqtt.html#ab0f25dbc1908fdc2b6e5293c4d83e8fc" target="_top" xlink:title=" ">
<polygon fill="white" stroke="#666666" points="326,-174.5 222,-174.5 222,-144.5 326,-144.5 326,-174.5"/>
<text text-anchor="start" x="230" y="-162.5" font-family="Helvetica,sans-Serif" font-size="10.00">iot::mqtt::client::</text>
<text text-anchor="middle" x="274" y="-151.5" font-family="Helvetica,sans-Serif" font-size="10.00">Mqtt::_onConnack</text>
</a>
</g>
</g>
<!-- Node1&#45;&gt;Node2 -->
<g id="edge1_Node000001_Node000002" class="edge">
<title>Node1&#45;&gt;Node2</title>
<g id="a_edge1_Node000001_Node000002"><a xlink:title=" ">
<path fill="none" stroke="#63b8ff" d="M174,-147.73C186.83,-149.25 199.82,-150.8 211.99,-152.24"/>
<polygon fill="#63b8ff" stroke="#63b8ff" points="211.65,-155.73 222,-153.43 212.48,-148.78 211.65,-155.73"/>
</a>
</g>
</g>
<!-- Node11 -->
<g id="Node000011" class="node">
<title>Node11</title>
<g id="a_Node000011"><a xlink:href="classiot_1_1mqtt_1_1Mqtt.html#adee229fe8dcd76411c9216f7c11ff907" target="_top" xlink:title=" ">
<polygon fill="white" stroke="#666666" points="338,-126 210,-126 210,-107 338,-107 338,-126"/>
<text text-anchor="middle" x="274" y="-114" font-family="Helvetica,sans-Serif" font-size="10.00">iot::mqtt::Mqtt::printVP</text>
</a>
</g>
</g>
<!-- Node1&#45;&gt;Node11 -->
<g id="edge12_Node000001_Node000011" class="edge">
<title>Node1&#45;&gt;Node11</title>
<g id="a_edge12_Node000001_Node000011"><a xlink:title=" ">
<path fill="none" stroke="#63b8ff" d="M174,-127.74C182.59,-126.76 191.25,-125.78 199.69,-124.82"/>
<polygon fill="#63b8ff" stroke="#63b8ff" points="200.31,-128.27 209.85,-123.67 199.52,-121.32 200.31,-128.27"/>
</a>
</g>
</g>
<!-- Node3 -->
<g id="Node000003" class="node">
<title>Node3</title>
<g id="a_Node000003"><a xlink:href="classiot_1_1mqtt_1_1packets_1_1Connack.html#a9d5a9abd54366d63606e6aef01a97db2" target="_top" xlink:title=" ">
<polygon fill="white" stroke="#666666" points="552,-294.5 374,-294.5 374,-264.5 552,-264.5 552,-294.5"/>
<text text-anchor="start" x="382" y="-282.5" font-family="Helvetica,sans-Serif" font-size="10.00">iot::mqtt::packets</text>
<text text-anchor="middle" x="463" y="-271.5" font-family="Helvetica,sans-Serif" font-size="10.00">::Connack::getAcknowledgeFlags</text>
</a>
</g>
</g>
<!-- Node2&#45;&gt;Node3 -->
<g id="edge2_Node000002_Node000003" class="edge">
<title>Node2&#45;&gt;Node3</title>
<g id="a_edge2_Node000002_Node000003"><a xlink:title=" ">
<path fill="none" stroke="#63b8ff" d="M286.38,-174.57C303.2,-195.8 336.77,-234.28 374,-255.5 377.22,-257.33 380.58,-259.03 384.03,-260.61"/>
<polygon fill="#63b8ff" stroke="#63b8ff" points="382.78,-263.88 393.36,-264.48 385.47,-257.41 382.78,-263.88"/>
</a>
</g>
</g>
<!-- Node4 -->
<g id="Node000004" class="node">
<title>Node4</title>
<g id="a_Node000004"><a xlink:href="classiot_1_1mqtt_1_1packets_1_1Connack.html#a06bb934f481d45386d9e9e73e33b68e5" target="_top" xlink:title=" ">
<polygon fill="white" stroke="#666666" points="534.5,-246.5 391.5,-246.5 391.5,-216.5 534.5,-216.5 534.5,-246.5"/>
<text text-anchor="start" x="399.5" y="-234.5" font-family="Helvetica,sans-Serif" font-size="10.00">iot::mqtt::packets</text>
<text text-anchor="middle" x="463" y="-223.5" font-family="Helvetica,sans-Serif" font-size="10.00">::Connack::getReturnCode</text>
</a>
</g>
</g>
<!-- Node2&#45;&gt;Node4 -->
<g id="edge3_Node000002_Node000004" class="edge">
<title>Node2&#45;&gt;Node4</title>
<g id="a_edge3_Node000002_Node000004"><a xlink:title=" ">
<path fill="none" stroke="#63b8ff" d="M302.56,-174.57C322.09,-184.83 349.14,-198.18 374,-207.5 379.51,-209.57 385.27,-211.54 391.1,-213.4"/>
<polygon fill="#63b8ff" stroke="#63b8ff" points="390.35,-216.83 400.94,-216.43 392.41,-210.14 390.35,-216.83"/>
</a>
</g>
</g>
<!-- Node5 -->
<g id="Node000005" class="node">
<title>Node5</title>
<g id="a_Node000005"><a xlink:href="classiot_1_1mqtt_1_1packets_1_1Connack.html#a7ba5c498454af80e8fbd82ebb3d34629" target="_top" xlink:title=" ">
<polygon fill="white" stroke="#666666" points="543.5,-198.5 382.5,-198.5 382.5,-168.5 543.5,-168.5 543.5,-198.5"/>
<text text-anchor="start" x="390.5" y="-186.5" font-family="Helvetica,sans-Serif" font-size="10.00">iot::mqtt::packets</text>
<text text-anchor="middle" x="463" y="-175.5" font-family="Helvetica,sans-Serif" font-size="10.00">::Connack::getSessionPresent</text>
</a>
</g>
</g>
<!-- Node2&#45;&gt;Node5 -->
<g id="edge4_Node000002_Node000005" class="edge">
<title>Node2&#45;&gt;Node5</title>
<g id="a_edge4_Node000002_Node000005"><a xlink:title=" ">
<path fill="none" stroke="#63b8ff" d="M326.1,-166.06C340.29,-167.88 356.14,-169.91 371.86,-171.93"/>
<polygon fill="#63b8ff" stroke="#63b8ff" points="371.79,-175.45 382.15,-173.25 372.68,-168.51 371.79,-175.45"/>
</a>
</g>
</g>
<!-- Node6 -->
<g id="Node000006" class="node">
<title>Node6</title>
<g id="a_Node000006"><a xlink:href="classiot_1_1mqtt_1_1client_1_1Mqtt.html#a790dd3ca635cabd8da183752aa8190e1" target="_top" xlink:title=" ">
<polygon fill="white" stroke="#666666" points="512.5,-150.5 413.5,-150.5 413.5,-120.5 512.5,-120.5 512.5,-150.5"/>
<text text-anchor="start" x="421.5" y="-138.5" font-family="Helvetica,sans-Serif" font-size="10.00">iot::mqtt::client::</text>
<text text-anchor="middle" x="463" y="-127.5" font-family="Helvetica,sans-Serif" font-size="10.00">Mqtt::onConnack</text>
</a>
</g>
</g>
<!-- Node2&#45;&gt;Node6 -->
<g id="edge5_Node000002_Node000006" class="edge">
<title>Node2&#45;&gt;Node6</title>
<g id="a_edge5_Node000002_Node000006"><a xlink:title=" ">
<path fill="none" stroke="#63b8ff" d="M326.1,-152.94C349.95,-149.88 378.48,-146.22 403.23,-143.04"/>
<polygon fill="#63b8ff" stroke="#63b8ff" points="403.75,-146.51 413.22,-141.76 402.85,-139.56 403.75,-146.51"/>
</a>
</g>
</g>
<!-- Node7 -->
<g id="Node000007" class="node">
<title>Node7</title>
<g id="a_Node000007"><a xlink:href="classcore_1_1timer_1_1Timer.html#a70182b02eba5c9baf33336e939fe731d" target="_top" xlink:title=" ">
<polygon fill="white" stroke="#666666" points="515,-102.5 411,-102.5 411,-72.5 515,-72.5 515,-102.5"/>
<text text-anchor="start" x="419" y="-90.5" font-family="Helvetica,sans-Serif" font-size="10.00">core::timer::Timer</text>
<text text-anchor="middle" x="463" y="-79.5" font-family="Helvetica,sans-Serif" font-size="10.00">::operator=</text>
</a>
</g>
</g>
<!-- Node2&#45;&gt;Node7 -->
<g id="edge6_Node000002_Node000007" class="edge">
<title>Node2&#45;&gt;Node7</title>
<g id="a_edge6_Node000002_Node000007"><a xlink:title=" ">
<path fill="none" stroke="#63b8ff" d="M318.26,-144.5C324.98,-141.75 331.76,-138.72 338,-135.5 355.09,-126.69 356.5,-119.47 374,-111.5 382.56,-107.6 391.88,-104.23 401.15,-101.33"/>
<polygon fill="#63b8ff" stroke="#63b8ff" points="402.16,-104.68 410.76,-98.49 400.18,-97.97 402.16,-104.68"/>
</a>
</g>
</g>
<!-- Node8 -->
<g id="Node000008" class="node">
<title>Node8</title>
<g id="a_Node000008"><a xlink:href="classiot_1_1mqtt_1_1client_1_1Mqtt.html#ad91d635b135c0a9f5d67a4b7e51d3f42" target="_top" xlink:title=" ">
<polygon fill="white" stroke="#666666" points="515.5,-54.5 410.5,-54.5 410.5,-24.5 515.5,-24.5 515.5,-54.5"/>
<text text-anchor="start" x="418.5" y="-42.5" font-family="Helvetica,sans-Serif" font-size="10.00">iot::mqtt::client::</text>
<text text-anchor="middle" x="463" y="-31.5" font-family="Helvetica,sans-Serif" font-size="10.00">Mqtt::sendPingreq</text>
</a>
</g>
</g>
<!-- Node2&#45;&gt;Node8 -->
<g id="edge7_Node000002_Node000008" class="edge">
<title>Node2&#45;&gt;Node8</title>
<g id="a_edge7_Node000002_Node000008"><a xlink:title=" ">
<path fill="none" stroke="#63b8ff" d="M325.2,-144.49C329.81,-141.93 334.18,-138.96 338,-135.5 364.53,-111.49 346.33,-86.18 374,-63.5 381.72,-57.17 390.96,-52.51 400.52,-49.07"/>
<polygon fill="#63b8ff" stroke="#63b8ff" points="401.66,-52.38 410.14,-46.02 399.55,-45.71 401.66,-52.38"/>
</a>
</g>
</g>
<!-- Node9 -->
<g id="Node000009" class="node">
<title>Node9</title>
<g id="a_Node000009"><a xlink:href="classiot_1_1mqtt_1_1packets_1_1Pingreq.html#aee06249dc1efcc56e7dc6bf17db7a31c" target="_top" xlink:title=" ">
<polygon fill="white" stroke="#666666" points="697,-85.5 595,-85.5 595,-55.5 697,-55.5 697,-85.5"/>
<text text-anchor="start" x="603" y="-73.5" font-family="Helvetica,sans-Serif" font-size="10.00">iot::mqtt::packets</text>
<text text-anchor="middle" x="646" y="-62.5" font-family="Helvetica,sans-Serif" font-size="10.00">::Pingreq::Pingreq</text>
</a>
</g>
</g>
<!-- Node8&#45;&gt;Node9 -->
<g id="edge8_Node000008_Node000009" class="edge">
<title>Node8&#45;&gt;Node9</title>
<g id="a_edge8_Node000008_Node000009"><a xlink:title=" ">
<path fill="none" stroke="#63b8ff" d="M515.87,-48.38C537.43,-52.08 562.59,-56.39 584.94,-60.21"/>
<polygon fill="#63b8ff" stroke="#63b8ff" points="584.55,-63.7 595,-61.94 585.73,-56.8 584.55,-63.7"/>
</a>
</g>
</g>
<!-- Node10 -->
<g id="Node000010" class="node">
<title>Node10</title>
<g id="a_Node000010"><a xlink:href="classiot_1_1mqtt_1_1Mqtt.html#ac2c838576318814d55feaaf87cdca5b9" target="_top" xlink:title=" ">
<polygon fill="white" stroke="#666666" points="704,-19 588,-19 588,0 704,0 704,-19"/>
<text text-anchor="middle" x="646" y="-7" font-family="Helvetica,sans-Serif" font-size="10.00">iot::mqtt::Mqtt::send</text>
</a>
</g>
</g>
<!-- Node8&#45;&gt;Node10 -->
<g id="edge10_Node000008_Node000010" class="edge">
<title>Node8&#45;&gt;Node10</title>
<g id="a_edge10_Node000008_Node000010"><a xlink:title=" ">
<path fill="none" stroke="#63b8ff" d="M515.87,-30.9C535.17,-27.7 557.36,-24.03 577.83,-20.63"/>
<polygon fill="#63b8ff" stroke="#63b8ff" points="578.43,-24.08 587.73,-18.99 577.29,-17.18 578.43,-24.08"/>
</a>
</g>
</g>
<!-- Node9&#45;&gt;Node9 -->
<g id="edge9_Node000009_Node000009" class="edge">
<title>Node9&#45;&gt;Node9</title>
<g id="a_edge9_Node000009_Node000009"><a xlink:title=" ">
<path fill="none" stroke="#63b8ff" d="M614.01,-85.78C606.9,-94.91 617.56,-103.5 646,-103.5 662.88,-103.5 673.5,-100.47 677.86,-96.1"/>
<polygon fill="#63b8ff" stroke="#63b8ff" points="681.36,-95.82 677.99,-85.78 674.36,-95.73 681.36,-95.82"/>
</a>
</g>
</g>
<!-- Node10&#45;&gt;Node10 -->
<g id="edge11_Node000010_Node000010" class="edge">
<title>Node10&#45;&gt;Node10</title>
<g id="a_edge11_Node000010_Node000010"><a xlink:title=" ">
<path fill="none" stroke="#63b8ff" d="M617.95,-19.08C604.3,-27.73 613.65,-37 646,-37 668.24,-37 679.61,-32.62 680.11,-27.07"/>
<polygon fill="#63b8ff" stroke="#63b8ff" points="682.88,-24.94 674.05,-19.08 677.3,-29.17 682.88,-24.94"/>
</a>
</g>
</g>
</g>
</svg>
