<?xml version="1.0" encoding="UTF-8" standalone="no"?>
<!DOCTYPE svg PUBLIC "-//W3C//DTD SVG 1.1//EN"
 "http://www.w3.org/Graphics/SVG/1.1/DTD/svg11.dtd">
<!-- Generated by graphviz version 14.1.2 (0)
 -->
<!-- Title: iot::mqtt::client::packets::Suback::deliverPacket Pages: 1 -->
<!--zoomable 340 -->

<svg id="main" version="1.1" xmlns="http://www.w3.org/2000/svg" xmlns:xlink="http://www.w3.org/1999/xlink" xml:space="preserve" onload="init(evt)">

<style type="text/css"><![CDATA[
.node, .edge {opacity: 0.7;}
.node.selected, .edge.selected {opacity: 1;}
.edge:hover path { stroke: red; }
.edge:hover polygon { stroke: red; fill: red; }
]]></style>

<defs>
  <circle id="rim" cx="0" cy="0" r="7"/>
  <circle id="rim2" cx="0" cy="0" r="3.5"/>
  <g id="zoomPlus">
    <use xlink:href="#rim" fill="#404040"><set attributeName="fill" to="#808080" begin="zoomplus.mouseover" end="zoomplus.mouseout"/></use>
    <path d="M-4,0h8M0,-4v8" fill="none" stroke="white" stroke-width="1.5" pointer-events="none"/>
  </g>
  <g id="zoomMin">
    <use xlink:href="#rim" fill="#404040"><set attributeName="fill" to="#808080" begin="zoomminus.mouseover" end="zoomminus.mouseout"/></use>
    <path d="M-4,0h8" fill="none" stroke="white" stroke-width="1.5" pointer-events="none"/>
  </g>
  <g id="arrowUp" transform="translate(30 24)">
    <use xlink:href="#rim"/>
    <path pointer-events="none" fill="none" stroke="white" stroke-width="1.5" d="M0,-3.0v7 M-2.5,-0.5L0,-3.0L2.5,-0.5"/>
  </g>
  <g id="arrowRight" transform="rotate(90) translate(36 -43)">
    <use xlink:href="#rim"/>
    <path pointer-events="none" fill="none" stroke="white" stroke-width="1.5" d="M0,-3.0v7 M-2.5,-0.5L0,-3.0L2.5,-0.5"/>
  </g>
  <g id="arrowDown" transform="rotate(180) translate(-30 -48)">
    <use xlink:href="#rim"/>
    <path pointer-events="none" fill="none" stroke="white" stroke-width="1.5" d="M0,-3.0v7 M-2.5,-0.5L0,-3.0L2.5,-0.5"/>
  </g>
  <g id="arrowLeft" transform="rotate(270) translate(-36 17)">
    <use xlink:href="#rim"/>
    <path pointer-events="none" fill="none" stroke="white" stroke-width="1.5" d="M0,-3.0v7 M-2.5,-0.5L0,-3.0L2.5,-0.5"/>
  </g>
  <g id="resetDef">
    <use xlink:href="#rim2" fill="#404040"><set attributeName="fill" to="#808080" begin="reset.mouseover" end="reset.mouseout"/></use>
  </g>
</defs>
<script type="application/ecmascript">
var viewWidth = 783;
var viewHeight = 340;
var sectionId = 'dynsection-3';
</script>
<script type="application/ecmascript" xlink:href="svg.min.js"/>
<svg id="graph" class="graph">
<g id="viewport">
<title>iot::mqtt::client::packets::Suback::deliverPacket</title>
<!-- Node1 -->
<g id="Node000001" class="node">
<title>Node1</title>
<g id="a_Node000001"><a xlink:title=" ">
<polygon fill="#999999" stroke="#666666" points="166.75,-150.12 0,-150.12 0,-116.62 166.75,-116.62 166.75,-150.12"/>
<text xml:space="preserve" text-anchor="start" x="8" y="-136.62" font-family="Helvetica,sans-Serif" font-size="10.00">iot::mqtt::client::</text>
<text xml:space="preserve" text-anchor="middle" x="83.38" y="-123.88" font-family="Helvetica,sans-Serif" font-size="10.00">packets::Suback::deliverPacket</text>
</a>
</g>
</g>
<!-- Node2 -->
<g id="Node000002" class="node">
<title>Node2</title>
<g id="a_Node000002"><a xlink:href="classiot_1_1mqtt_1_1client_1_1Mqtt.html#a9f548c070b83f2628b69ca080bde9377" target="_top" xlink:title=" ">
<polygon fill="white" stroke="#666666" points="315.12,-228.12 218.12,-228.12 218.12,-194.62 315.12,-194.62 315.12,-228.12"/>
<text xml:space="preserve" text-anchor="start" x="226.12" y="-214.62" font-family="Helvetica,sans-Serif" font-size="10.00">iot::mqtt::client::</text>
<text xml:space="preserve" text-anchor="middle" x="266.62" y="-201.88" font-family="Helvetica,sans-Serif" font-size="10.00">Mqtt::_onSuback</text>
</a>
</g>
</g>
<!-- Node1&#45;&gt;Node2 -->
<g id="edge1_Node000001_Node000002" class="edge">
<title>Node1&#45;&gt;Node2</title>
<g id="a_edge1_Node000001_Node000002"><a xlink:title=" ">
<path fill="none" stroke="#63b8ff" d="M124.15,-150.49C150.97,-162.04 186.58,-177.36 215.36,-189.74"/>
<polygon fill="#63b8ff" stroke="#63b8ff" points="213.67,-192.83 224.24,-193.56 216.44,-186.4 213.67,-192.83"/>
</a>
</g>
</g>
<!-- Node7 -->
<g id="Node000007" class="node">
<title>Node7</title>
<g id="a_Node000007"><a xlink:href="classiot_1_1mqtt_1_1Mqtt.html#adee229fe8dcd76411c9216f7c11ff907" target="_top" xlink:title=" ">
<polygon fill="white" stroke="#666666" points="330.5,-91.75 202.75,-91.75 202.75,-71 330.5,-71 330.5,-91.75"/>
<text xml:space="preserve" text-anchor="middle" x="266.62" y="-78.25" font-family="Helvetica,sans-Serif" font-size="10.00">iot::mqtt::Mqtt::printVP</text>
</a>
</g>
</g>
<!-- Node1&#45;&gt;Node7 -->
<g id="edge6_Node000001_Node000007" class="edge">
<title>Node1&#45;&gt;Node7</title>
<g id="a_edge6_Node000001_Node000007"><a xlink:title=" ">
<path fill="none" stroke="#63b8ff" d="M144.48,-116.13C168.01,-109.38 194.66,-101.73 216.96,-95.34"/>
<polygon fill="#63b8ff" stroke="#63b8ff" points="217.75,-98.75 226.4,-92.63 215.82,-92.02 217.75,-98.75"/>
</a>
</g>
</g>
<!-- Node3 -->
<g id="Node000003" class="node">
<title>Node3</title>
<g id="a_Node000003"><a xlink:href="classiot_1_1mqtt_1_1MqttContext.html#af44399b7e355931397763d0ef887375b" target="_top" xlink:title=" ">
<polygon fill="white" stroke="#666666" points="506.62,-332.12 381.88,-332.12 381.88,-298.62 506.62,-298.62 506.62,-332.12"/>
<text xml:space="preserve" text-anchor="start" x="389.88" y="-318.62" font-family="Helvetica,sans-Serif" font-size="10.00">iot::mqtt::MqttContext</text>
<text xml:space="preserve" text-anchor="middle" x="444.25" y="-305.88" font-family="Helvetica,sans-Serif" font-size="10.00">::close</text>
</a>
</g>
</g>
<!-- Node2&#45;&gt;Node3 -->
<g id="edge2_Node000002_Node000003" class="edge">
<title>Node2&#45;&gt;Node3</title>
<g id="a_edge2_Node000002_Node000003"><a xlink:title=" ">
<path fill="none" stroke="#63b8ff" d="M285.24,-228.37C304.04,-245.73 335.37,-272.48 366.5,-289.38 369.19,-290.83 371.98,-292.23 374.82,-293.57"/>
<polygon fill="#63b8ff" stroke="#63b8ff" points="373.38,-296.76 383.95,-297.55 376.18,-290.35 373.38,-296.76"/>
</a>
</g>
</g>
<!-- Node4 -->
<g id="Node000004" class="node">
<title>Node4</title>
<g id="a_Node000004"><a xlink:href="classiot_1_1mqtt_1_1packets_1_1Suback.html#a4b210bb967888e97f375d51b564a8256" target="_top" xlink:title=" ">
<polygon fill="white" stroke="#666666" points="522,-280.12 366.5,-280.12 366.5,-246.62 522,-246.62 522,-280.12"/>
<text xml:space="preserve" text-anchor="start" x="374.5" y="-266.62" font-family="Helvetica,sans-Serif" font-size="10.00">iot::mqtt::packets</text>
<text xml:space="preserve" text-anchor="middle" x="444.25" y="-253.88" font-family="Helvetica,sans-Serif" font-size="10.00">::Suback::getPacketIdentifier</text>
</a>
</g>
</g>
<!-- Node2&#45;&gt;Node4 -->
<g id="edge3_Node000002_Node000004" class="edge">
<title>Node2&#45;&gt;Node4</title>
<g id="a_edge3_Node000002_Node000004"><a xlink:title=" ">
<path fill="none" stroke="#63b8ff" d="M315.62,-225.58C333.61,-230.91 354.44,-237.08 373.99,-242.87"/>
<polygon fill="#63b8ff" stroke="#63b8ff" points="372.96,-246.21 383.55,-245.7 374.95,-239.5 372.96,-246.21"/>
</a>
</g>
</g>
<!-- Node5 -->
<g id="Node000005" class="node">
<title>Node5</title>
<g id="a_Node000005"><a xlink:href="classiot_1_1mqtt_1_1packets_1_1Suback.html#aeda5db3357a382a8e27124f849fe3787" target="_top" xlink:title=" ">
<polygon fill="white" stroke="#666666" points="514.88,-228.12 373.62,-228.12 373.62,-194.62 514.88,-194.62 514.88,-228.12"/>
<text xml:space="preserve" text-anchor="start" x="381.62" y="-214.62" font-family="Helvetica,sans-Serif" font-size="10.00">iot::mqtt::packets</text>
<text xml:space="preserve" text-anchor="middle" x="444.25" y="-201.88" font-family="Helvetica,sans-Serif" font-size="10.00">::Suback::getReturnCodes</text>
</a>
</g>
</g>
<!-- Node2&#45;&gt;Node5 -->
<g id="edge4_Node000002_Node000005" class="edge">
<title>Node2&#45;&gt;Node5</title>
<g id="a_edge4_Node000002_Node000005"><a xlink:title=" ">
<path fill="none" stroke="#63b8ff" d="M315.62,-211.38C329.92,-211.38 346.01,-211.38 361.82,-211.38"/>
<polygon fill="#63b8ff" stroke="#63b8ff" points="361.74,-214.88 371.74,-211.38 361.74,-207.88 361.74,-214.88"/>
</a>
</g>
</g>
<!-- Node6 -->
<g id="Node000006" class="node">
<title>Node6</title>
<g id="a_Node000006"><a xlink:href="classiot_1_1mqtt_1_1client_1_1Mqtt.html#acaacfad72b121df18686afdd69bbc62a" target="_top" xlink:title=" ">
<polygon fill="white" stroke="#666666" points="492.75,-176.12 395.75,-176.12 395.75,-142.62 492.75,-142.62 492.75,-176.12"/>
<text xml:space="preserve" text-anchor="start" x="403.75" y="-162.62" font-family="Helvetica,sans-Serif" font-size="10.00">iot::mqtt::client::</text>
<text xml:space="preserve" text-anchor="middle" x="444.25" y="-149.88" font-family="Helvetica,sans-Serif" font-size="10.00">Mqtt::onSuback</text>
</a>
</g>
</g>
<!-- Node2&#45;&gt;Node6 -->
<g id="edge5_Node000002_Node000006" class="edge">
<title>Node2&#45;&gt;Node6</title>
<g id="a_edge5_Node000002_Node000006"><a xlink:title=" ">
<path fill="none" stroke="#63b8ff" d="M315.62,-197.17C336.91,-190.86 362.17,-183.38 384.58,-176.75"/>
<polygon fill="#63b8ff" stroke="#63b8ff" points="385.27,-180.19 393.87,-174 383.28,-173.48 385.27,-180.19"/>
</a>
</g>
</g>
<!-- Node8 -->
<g id="Node000008" class="node">
<title>Node8</title>
<g id="a_Node000008"><a xlink:href="classiot_1_1mqtt_1_1ControlPacket.html#a1d35b63fe04256fa31650462db1b311a" target="_top" xlink:title=" ">
<polygon fill="white" stroke="#666666" points="510,-124.12 378.5,-124.12 378.5,-90.62 510,-90.62 510,-124.12"/>
<text xml:space="preserve" text-anchor="start" x="386.5" y="-110.62" font-family="Helvetica,sans-Serif" font-size="10.00">iot::mqtt::ControlPacket</text>
<text xml:space="preserve" text-anchor="middle" x="444.25" y="-97.88" font-family="Helvetica,sans-Serif" font-size="10.00">::getName</text>
</a>
</g>
</g>
<!-- Node7&#45;&gt;Node8 -->
<g id="edge7_Node000007_Node000008" class="edge">
<title>Node7&#45;&gt;Node8</title>
<g id="a_edge7_Node000007_Node000008"><a xlink:title=" ">
<path fill="none" stroke="#63b8ff" d="M330.53,-90.69C342.36,-92.44 354.85,-94.29 367.04,-96.09"/>
<polygon fill="#63b8ff" stroke="#63b8ff" points="366.21,-99.51 376.62,-97.51 367.24,-92.58 366.21,-99.51"/>
</a>
</g>
</g>
<!-- Node9 -->
<g id="Node000009" class="node">
<title>Node9</title>
<g id="a_Node000009"><a xlink:href="classiot_1_1mqtt_1_1ControlPacket.html#ab4f58bf0c1920d705af23c8d7636247f" target="_top" xlink:title=" ">
<polygon fill="white" stroke="#666666" points="510,-72.12 378.5,-72.12 378.5,-38.62 510,-38.62 510,-72.12"/>
<text xml:space="preserve" text-anchor="start" x="386.5" y="-58.62" font-family="Helvetica,sans-Serif" font-size="10.00">iot::mqtt::ControlPacket</text>
<text xml:space="preserve" text-anchor="middle" x="444.25" y="-45.88" font-family="Helvetica,sans-Serif" font-size="10.00">::serializeVP</text>
</a>
</g>
</g>
<!-- Node7&#45;&gt;Node9 -->
<g id="edge8_Node000007_Node000009" class="edge">
<title>Node7&#45;&gt;Node9</title>
<g id="a_edge8_Node000007_Node000009"><a xlink:title=" ">
<path fill="none" stroke="#63b8ff" d="M330.53,-72.06C342.36,-70.31 354.85,-68.46 367.04,-66.66"/>
<polygon fill="#63b8ff" stroke="#63b8ff" points="367.24,-70.17 376.62,-65.24 366.21,-63.24 367.24,-70.17"/>
</a>
</g>
</g>
<!-- Node10 -->
<g id="Node000010" class="node">
<title>Node10</title>
<g id="a_Node000010"><a xlink:href="classiot_1_1mqtt_1_1Mqtt.html#a16add1744c3cf0ea4a1f266b9d3f3902" target="_top" xlink:title=" ">
<polygon fill="white" stroke="#666666" points="519.38,-20.75 369.12,-20.75 369.12,0 519.38,0 519.38,-20.75"/>
<text xml:space="preserve" text-anchor="middle" x="444.25" y="-7.25" font-family="Helvetica,sans-Serif" font-size="10.00">iot::mqtt::Mqtt::toHexString</text>
</a>
</g>
</g>
<!-- Node7&#45;&gt;Node10 -->
<g id="edge9_Node000007_Node000010" class="edge">
<title>Node7&#45;&gt;Node10</title>
<g id="a_edge9_Node000007_Node000010"><a xlink:title=" ">
<path fill="none" stroke="#63b8ff" d="M284.89,-70.65C304.16,-59.06 336.59,-40.75 366.5,-29.38 371.17,-27.6 376.07,-25.94 381.03,-24.41"/>
<polygon fill="#63b8ff" stroke="#63b8ff" points="381.85,-27.81 390.49,-21.67 379.91,-21.09 381.85,-27.81"/>
</a>
</g>
</g>
<!-- Node11 -->
<g id="Node000011" class="node">
<title>Node11</title>
<g id="a_Node000011"><a xlink:href="namespaceutils.html#ad8af90943f5b6e2c985db811abae8730" target="_top" xlink:title=" ">
<polygon fill="white" stroke="#666666" points="648.25,-20.75 558,-20.75 558,0 648.25,0 648.25,-20.75"/>
<text xml:space="preserve" text-anchor="middle" x="603.12" y="-7.25" font-family="Helvetica,sans-Serif" font-size="10.00">utils::hexDump</text>
</a>
</g>
</g>
<!-- Node10&#45;&gt;Node11 -->
<g id="edge10_Node000010_Node000011" class="edge">
<title>Node10&#45;&gt;Node11</title>
<g id="a_edge10_Node000010_Node000011"><a xlink:title=" ">
<path fill="none" stroke="#63b8ff" d="M519.55,-10.38C528.48,-10.38 537.48,-10.38 546.09,-10.38"/>
<polygon fill="#63b8ff" stroke="#63b8ff" points="546.03,-13.88 556.03,-10.38 546.03,-6.88 546.03,-13.88"/>
</a>
</g>
</g>
<!-- Node12 -->
<g id="Node000012" class="node">
<title>Node12</title>
<g id="a_Node000012"><a xlink:href="namespaceutils.html#a5e89a82ecd447626404d378a3ca8d38b" target="_top" xlink:title=" ">
<polygon fill="white" stroke="#666666" points="774.5,-20.75 684.25,-20.75 684.25,0 774.5,0 774.5,-20.75"/>
<text xml:space="preserve" text-anchor="middle" x="729.38" y="-7.25" font-family="Helvetica,sans-Serif" font-size="10.00">utils::hexDump</text>
</a>
</g>
</g>
<!-- Node11&#45;&gt;Node12 -->
<g id="edge11_Node000011_Node000012" class="edge">
<title>Node11&#45;&gt;Node12</title>
<g id="a_edge11_Node000011_Node000012"><a xlink:title=" ">
<path fill="none" stroke="#63b8ff" d="M648.63,-10.38C656.3,-10.38 664.37,-10.38 672.3,-10.38"/>
<polygon fill="#63b8ff" stroke="#63b8ff" points="672.25,-13.88 682.25,-10.38 672.25,-6.88 672.25,-13.88"/>
</a>
</g>
</g>
</g>
</svg>

<g id="navigator" transform="translate(0 0)" fill="#404254">
  <rect fill="#f2f5e9" fill-opacity="0.5" stroke="#606060" stroke-width=".5" x="0" y="0" width="60" height="60"/>
  <use id="zoomplus" xlink:href="#zoomPlus" x="17" y="9" onmousedown="handleZoom(evt,'in')"/>
  <use id="zoomminus" xlink:href="#zoomMin" x="42" y="9" onmousedown="handleZoom(evt,'out')"/>
  <use id="reset" xlink:href="#resetDef" x="30" y="36" onmousedown="handleReset()"/>
   <use id="arrowup" xlink:href="#arrowUp" x="0" y="0" onmousedown="handlePan(0,-1)"/>
  <use id="arrowright" xlink:href="#arrowRight" x="0" y="0" onmousedown="handlePan(1,0)"/>
  <use id="arrowdown" xlink:href="#arrowDown" x="0" y="0" onmousedown="handlePan(0,1)"/>
  <use id="arrowleft" xlink:href="#arrowLeft" x="0" y="0" onmousedown="handlePan(-1,0)"/>
</g>
<svg viewBox="0 0 15 15" width="100%" height="30px" preserveAspectRatio="xMaxYMin meet">
 <g id="arrow_out" transform="scale(0.3 0.3)">
  <a xlink:href="classiot_1_1mqtt_1_1client_1_1packets_1_1Suback_ac2e43eb48aeb79e0bf2d89c33444a91b_cgraph_org.svg" target="_base">
   <rect id="button" ry="5" rx="5" y="6" x="6" height="38" width="38"
        fill="#f2f5e9" fill-opacity="0.5" stroke="#606060" stroke-width="1.0"/>
   <path id="arrow"
     d="M 11.500037,31.436501 C 11.940474,20.09759 22.043105,11.32322 32.158766,21.979434 L 37.068811,17.246167 C 37.068811,17.246167 37.088388,32 37.088388,32 L 22.160133,31.978069 C 22.160133,31.978069 26.997745,27.140456 26.997745,27.140456 C 18.528582,18.264221 13.291696,25.230495 11.500037,31.436501 z"
     style="fill:#404040;"/>
  </a>
 </g>
</svg>

<style type='text/css'>
<![CDATA[
[data-mouse-over-selected='false'] { opacity: 0.7; }
[data-mouse-over-selected='true']  { opacity: 1.0; }
]]>
</style>
<script type="application/ecmascript"><![CDATA[
document.addEventListener('DOMContentLoaded', (event) => {
  highlightEdges();
  highlightAdjacentNodes();
});
]]></script>
</svg>
