<?xml version="1.0" encoding="UTF-8" standalone="no"?>
<!DOCTYPE svg PUBLIC "-//W3C//DTD SVG 1.1//EN"
 "http://www.w3.org/Graphics/SVG/1.1/DTD/svg11.dtd">
<!-- Generated by graphviz version 14.1.2 (0)
 -->
<!-- Title: net::l2::SocketAddress::SocketAddress Pages: 1 -->
<svg width="552pt" height="152pt"
 viewBox="0.00 0.00 552.00 152.00" xmlns="http://www.w3.org/2000/svg" xmlns:xlink="http://www.w3.org/1999/xlink">
<g id="graph0" class="graph" transform="scale(1 1) rotate(0) translate(4 147.62)">
<title>net::l2::SocketAddress::SocketAddress</title>
<!-- Node1 -->
<g id="Node000001" class="node">
<title>Node1</title>
<g id="a_Node000001"><a xlink:title=" ">
<polygon fill="#999999" stroke="#666666" points="543.75,-91.62 419.75,-91.62 419.75,-58.12 543.75,-58.12 543.75,-91.62"/>
<text xml:space="preserve" text-anchor="start" x="427.75" y="-78.12" font-family="Helvetica,sans-Serif" font-size="10.00">net::l2::SocketAddress</text>
<text xml:space="preserve" text-anchor="middle" x="481.75" y="-65.38" font-family="Helvetica,sans-Serif" font-size="10.00">::SocketAddress</text>
</a>
</g>
</g>
<!-- Node2 -->
<g id="Node000002" class="node">
<title>Node2</title>
<g id="a_Node000002"><a xlink:href="classnet_1_1l2_1_1SocketAddress.html#a44651cacfd5e35283d9d06e221e1cb19" target="_top" xlink:title=" ">
<polygon fill="white" stroke="#666666" points="383.75,-143.62 259.75,-143.62 259.75,-110.12 383.75,-110.12 383.75,-143.62"/>
<text xml:space="preserve" text-anchor="start" x="267.75" y="-130.12" font-family="Helvetica,sans-Serif" font-size="10.00">net::l2::SocketAddress</text>
<text xml:space="preserve" text-anchor="middle" x="321.75" y="-117.38" font-family="Helvetica,sans-Serif" font-size="10.00">::SocketAddress</text>
</a>
</g>
</g>
<!-- Node1&#45;&gt;Node2 -->
<g id="edge1_Node000001_Node000002" class="edge">
<title>Node1&#45;&gt;Node2</title>
<g id="a_edge1_Node000001_Node000002"><a xlink:title=" ">
<path fill="none" stroke="#63b8ff" d="M417.91,-95.56C403.73,-100.22 388.83,-105.13 375.14,-109.63"/>
<polygon fill="#63b8ff" stroke="#63b8ff" points="418.73,-98.97 427.14,-92.52 416.55,-92.32 418.73,-98.97"/>
</a>
</g>
</g>
<!-- Node3 -->
<g id="Node000003" class="node">
<title>Node3</title>
<g id="a_Node000003"><a xlink:href="classnet_1_1l2_1_1SocketAddress.html#a261ee626d0917427fc77ecaefd077547" target="_top" xlink:title=" ">
<polygon fill="white" stroke="#666666" points="383.75,-91.62 259.75,-91.62 259.75,-58.12 383.75,-58.12 383.75,-91.62"/>
<text xml:space="preserve" text-anchor="start" x="267.75" y="-78.12" font-family="Helvetica,sans-Serif" font-size="10.00">net::l2::SocketAddress</text>
<text xml:space="preserve" text-anchor="middle" x="321.75" y="-65.38" font-family="Helvetica,sans-Serif" font-size="10.00">::SocketAddress</text>
</a>
</g>
</g>
<!-- Node1&#45;&gt;Node3 -->
<g id="edge2_Node000001_Node000003" class="edge">
<title>Node1&#45;&gt;Node3</title>
<g id="a_edge2_Node000001_Node000003"><a xlink:title=" ">
<path fill="none" stroke="#63b8ff" d="M408.35,-74.88C400.28,-74.88 392.11,-74.88 384.2,-74.88"/>
<polygon fill="#63b8ff" stroke="#63b8ff" points="408.15,-78.38 418.15,-74.88 408.15,-71.38 408.15,-78.38"/>
</a>
</g>
</g>
<!-- Node6 -->
<g id="Node000006" class="node">
<title>Node6</title>
<g id="a_Node000006"><a xlink:href="classnet_1_1l2_1_1SocketAddress.html#a56347b3d827dbc14a9f4d212b28f9c7d" target="_top" xlink:title=" ">
<polygon fill="white" stroke="#666666" points="383.75,-39.62 259.75,-39.62 259.75,-6.12 383.75,-6.12 383.75,-39.62"/>
<text xml:space="preserve" text-anchor="start" x="267.75" y="-26.12" font-family="Helvetica,sans-Serif" font-size="10.00">net::l2::SocketAddress</text>
<text xml:space="preserve" text-anchor="middle" x="321.75" y="-13.38" font-family="Helvetica,sans-Serif" font-size="10.00">::SocketAddress</text>
</a>
</g>
</g>
<!-- Node1&#45;&gt;Node6 -->
<g id="edge5_Node000001_Node000006" class="edge">
<title>Node1&#45;&gt;Node6</title>
<g id="a_edge5_Node000001_Node000006"><a xlink:title=" ">
<path fill="none" stroke="#63b8ff" d="M417.91,-54.19C403.73,-49.53 388.83,-44.62 375.14,-40.12"/>
<polygon fill="#63b8ff" stroke="#63b8ff" points="416.55,-57.43 427.14,-57.23 418.73,-50.78 416.55,-57.43"/>
</a>
</g>
</g>
<!-- Node4 -->
<g id="Node000004" class="node">
<title>Node4</title>
<g id="a_Node000004"><a xlink:href="classnet_1_1l2_1_1config_1_1ConfigAddress.html#a87196b5e030b257c6efd3ae16d81b237" target="_top" xlink:title=" ">
<polygon fill="white" stroke="#666666" points="208.75,-136 15,-136 15,-89.75 208.75,-89.75 208.75,-136"/>
<text xml:space="preserve" text-anchor="start" x="23" y="-122.5" font-family="Helvetica,sans-Serif" font-size="10.00">net::l2::config::ConfigAddress</text>
<text xml:space="preserve" text-anchor="start" x="23" y="-109.75" font-family="Helvetica,sans-Serif" font-size="10.00">&lt; net::config::ConfigAddressRemote</text>
<text xml:space="preserve" text-anchor="middle" x="111.88" y="-97" font-family="Helvetica,sans-Serif" font-size="10.00"> &gt;::configurable</text>
</a>
</g>
</g>
<!-- Node3&#45;&gt;Node4 -->
<g id="edge3_Node000003_Node000004" class="edge">
<title>Node3&#45;&gt;Node4</title>
<g id="a_edge3_Node000003_Node000004"><a xlink:title=" ">
<path fill="none" stroke="#63b8ff" d="M248.54,-88.08C235.82,-90.4 222.41,-92.85 209.17,-95.27"/>
<polygon fill="#63b8ff" stroke="#63b8ff" points="248.81,-91.58 258.02,-86.34 247.55,-84.7 248.81,-91.58"/>
</a>
</g>
</g>
<!-- Node5 -->
<g id="Node000005" class="node">
<title>Node5</title>
<g id="a_Node000005"><a xlink:href="classnet_1_1l2_1_1stream_1_1SocketClient.html#a453e3b33bb02f89553edcf84ac4ae88c" target="_top" xlink:title=" ">
<polygon fill="white" stroke="#666666" points="223.75,-71.75 0,-71.75 0,0 223.75,0 223.75,-71.75"/>
<text xml:space="preserve" text-anchor="start" x="8" y="-58.25" font-family="Helvetica,sans-Serif" font-size="10.00">net::l2::stream::SocketClient</text>
<text xml:space="preserve" text-anchor="start" x="8" y="-45.5" font-family="Helvetica,sans-Serif" font-size="10.00">&lt; core::socket::stream::legacy</text>
<text xml:space="preserve" text-anchor="start" x="8" y="-32.75" font-family="Helvetica,sans-Serif" font-size="10.00">::SocketConnector, net::l2::stream</text>
<text xml:space="preserve" text-anchor="start" x="8" y="-20" font-family="Helvetica,sans-Serif" font-size="10.00">::legacy::config::ConfigSocketClient,</text>
<text xml:space="preserve" text-anchor="middle" x="111.88" y="-7.25" font-family="Helvetica,sans-Serif" font-size="10.00"> SocketContextFactoryT, Args... &gt;::connect</text>
</a>
</g>
</g>
<!-- Node3&#45;&gt;Node5 -->
<g id="edge4_Node000003_Node000005" class="edge">
<title>Node3&#45;&gt;Node5</title>
<g id="a_edge4_Node000003_Node000005"><a xlink:title=" ">
<path fill="none" stroke="#63b8ff" d="M248.46,-61.31C240.5,-59.82 232.27,-58.28 223.98,-56.72"/>
<polygon fill="#63b8ff" stroke="#63b8ff" points="247.54,-64.7 258.02,-63.11 248.83,-57.82 247.54,-64.7"/>
</a>
</g>
</g>
</g>
</svg>
