<?xml version="1.0" encoding="UTF-8" standalone="no"?>
<!DOCTYPE svg PUBLIC "-//W3C//DTD SVG 1.1//EN"
 "http://www.w3.org/Graphics/SVG/1.1/DTD/svg11.dtd">
<!-- Generated by graphviz version 14.1.1 (0)
 -->
<!-- Title: net::config::ConfigTls::ConfigTls Pages: 1 -->
<svg width="853pt" height="250pt"
 viewBox="0.00 0.00 853.00 250.00" xmlns="http://www.w3.org/2000/svg" xmlns:xlink="http://www.w3.org/1999/xlink">
<g id="graph0" class="graph" transform="scale(1 1) rotate(0) translate(4 245.5)">
<title>net::config::ConfigTls::ConfigTls</title>
<!-- Node1 -->
<g id="Node000001" class="node">
<title>Node1</title>
<g id="a_Node000001"><a xlink:title=" ">
<polygon fill="#999999" stroke="#666666" points="119.5,-163.5 0,-163.5 0,-130 119.5,-130 119.5,-163.5"/>
<text xml:space="preserve" text-anchor="start" x="8" y="-150" font-family="Helvetica,sans-Serif" font-size="10.00">net::config::ConfigTls</text>
<text xml:space="preserve" text-anchor="middle" x="59.75" y="-137.25" font-family="Helvetica,sans-Serif" font-size="10.00">::ConfigTls</text>
</a>
</g>
</g>
<!-- Node2 -->
<g id="Node000002" class="node">
<title>Node2</title>
<g id="a_Node000002"><a xlink:href="classnet_1_1config_1_1ConfigSection.html#a95ffd0ca5955502fb43ff5ed2b0d9da1" target="_top" xlink:title=" ">
<polygon fill="white" stroke="#666666" points="296.75,-241.5 155.5,-241.5 155.5,-208 296.75,-208 296.75,-241.5"/>
<text xml:space="preserve" text-anchor="start" x="163.5" y="-228" font-family="Helvetica,sans-Serif" font-size="10.00">net::config::ConfigSection</text>
<text xml:space="preserve" text-anchor="middle" x="226.12" y="-215.25" font-family="Helvetica,sans-Serif" font-size="10.00">::addFlag</text>
</a>
</g>
</g>
<!-- Node1&#45;&gt;Node2 -->
<g id="edge1_Node000001_Node000002" class="edge">
<title>Node1&#45;&gt;Node2</title>
<g id="a_edge1_Node000001_Node000002"><a xlink:title=" ">
<path fill="none" stroke="#63b8ff" d="M89.22,-163.79C107.75,-174.52 132.64,-188.28 155.5,-198.75 158.84,-200.28 162.3,-201.79 165.82,-203.27"/>
<polygon fill="#63b8ff" stroke="#63b8ff" points="164.46,-206.5 175.04,-207.03 167.09,-200.01 164.46,-206.5"/>
</a>
</g>
</g>
<!-- Node3 -->
<g id="Node000003" class="node">
<title>Node3</title>
<g id="a_Node000003"><a xlink:href="classnet_1_1config_1_1ConfigSection.html#a49b8b1a82ea4c182b798c165567bd462" target="_top" xlink:title=" ">
<polygon fill="white" stroke="#666666" points="296.75,-189.5 155.5,-189.5 155.5,-156 296.75,-156 296.75,-189.5"/>
<text xml:space="preserve" text-anchor="start" x="163.5" y="-176" font-family="Helvetica,sans-Serif" font-size="10.00">net::config::ConfigSection</text>
<text xml:space="preserve" text-anchor="middle" x="226.12" y="-163.25" font-family="Helvetica,sans-Serif" font-size="10.00">::addOption</text>
</a>
</g>
</g>
<!-- Node1&#45;&gt;Node3 -->
<g id="edge2_Node000001_Node000003" class="edge">
<title>Node1&#45;&gt;Node3</title>
<g id="a_edge2_Node000001_Node000003"><a xlink:title=" ">
<path fill="none" stroke="#63b8ff" d="M119.63,-156.06C127.55,-157.32 135.78,-158.62 143.99,-159.92"/>
<polygon fill="#63b8ff" stroke="#63b8ff" points="143.24,-163.34 153.66,-161.45 144.33,-156.43 143.24,-163.34"/>
</a>
</g>
</g>
<!-- Node4 -->
<g id="Node000004" class="node">
<title>Node4</title>
<g id="a_Node000004"><a xlink:href="classnet_1_1config_1_1ConfigSection.html#a7afd42971ea3fcc6ddc5c19a40ca2f91" target="_top" xlink:title=" ">
<polygon fill="white" stroke="#666666" points="296.75,-137.5 155.5,-137.5 155.5,-104 296.75,-104 296.75,-137.5"/>
<text xml:space="preserve" text-anchor="start" x="163.5" y="-124" font-family="Helvetica,sans-Serif" font-size="10.00">net::config::ConfigSection</text>
<text xml:space="preserve" text-anchor="middle" x="226.12" y="-111.25" font-family="Helvetica,sans-Serif" font-size="10.00">::addOption</text>
</a>
</g>
</g>
<!-- Node1&#45;&gt;Node4 -->
<g id="edge3_Node000001_Node000004" class="edge">
<title>Node1&#45;&gt;Node4</title>
<g id="a_edge3_Node000001_Node000004"><a xlink:title=" ">
<path fill="none" stroke="#63b8ff" d="M119.63,-137.44C127.55,-136.18 135.78,-134.88 143.99,-133.58"/>
<polygon fill="#63b8ff" stroke="#63b8ff" points="144.33,-137.07 153.66,-132.05 143.24,-130.16 144.33,-137.07"/>
</a>
</g>
</g>
<!-- Node5 -->
<g id="Node000005" class="node">
<title>Node5</title>
<g id="a_Node000005"><a xlink:href="classnet_1_1config_1_1ConfigSection.html#a160becc89b9f497e672c269051f56089" target="_top" xlink:title=" ">
<polygon fill="white" stroke="#666666" points="296.75,-85.5 155.5,-85.5 155.5,-52 296.75,-52 296.75,-85.5"/>
<text xml:space="preserve" text-anchor="start" x="163.5" y="-72" font-family="Helvetica,sans-Serif" font-size="10.00">net::config::ConfigSection</text>
<text xml:space="preserve" text-anchor="middle" x="226.12" y="-59.25" font-family="Helvetica,sans-Serif" font-size="10.00">::ConfigSection</text>
</a>
</g>
</g>
<!-- Node1&#45;&gt;Node5 -->
<g id="edge4_Node000001_Node000005" class="edge">
<title>Node1&#45;&gt;Node5</title>
<g id="a_edge4_Node000001_Node000005"><a xlink:title=" ">
<path fill="none" stroke="#63b8ff" d="M89.22,-129.71C107.75,-118.98 132.64,-105.22 155.5,-94.75 158.84,-93.22 162.3,-91.71 165.82,-90.23"/>
<polygon fill="#63b8ff" stroke="#63b8ff" points="167.09,-93.49 175.04,-86.47 164.46,-87 167.09,-93.49"/>
</a>
</g>
</g>
<!-- Node6 -->
<g id="Node000006" class="node">
<title>Node6</title>
<g id="a_Node000006"><a xlink:href="classnet_1_1config_1_1ConfigInstance.html#a00106763b2a084d8fcb01c37155ad5e3" target="_top" xlink:title=" ">
<polygon fill="white" stroke="#666666" points="479.25,-137.5 332.75,-137.5 332.75,-104 479.25,-104 479.25,-137.5"/>
<text xml:space="preserve" text-anchor="start" x="340.75" y="-124" font-family="Helvetica,sans-Serif" font-size="10.00">net::config::ConfigInstance</text>
<text xml:space="preserve" text-anchor="middle" x="406" y="-111.25" font-family="Helvetica,sans-Serif" font-size="10.00">::addSection</text>
</a>
</g>
</g>
<!-- Node5&#45;&gt;Node6 -->
<g id="edge5_Node000005_Node000006" class="edge">
<title>Node5&#45;&gt;Node6</title>
<g id="a_edge5_Node000005_Node000006"><a xlink:title=" ">
<path fill="none" stroke="#63b8ff" d="M285.86,-85.92C301.72,-90.56 319.02,-95.62 335.41,-100.41"/>
<polygon fill="#63b8ff" stroke="#63b8ff" points="333.99,-103.64 344.57,-103.08 335.95,-96.92 333.99,-103.64"/>
</a>
</g>
</g>
<!-- Node10 -->
<g id="Node000010" class="node">
<title>Node10</title>
<g id="a_Node000010"><a xlink:href="classnet_1_1config_1_1ConfigInstance.html#adc690b51a4fcfeedb061577884a09f1f" target="_top" xlink:title=" ">
<polygon fill="white" stroke="#666666" points="479.25,-85.5 332.75,-85.5 332.75,-52 479.25,-52 479.25,-85.5"/>
<text xml:space="preserve" text-anchor="start" x="340.75" y="-72" font-family="Helvetica,sans-Serif" font-size="10.00">net::config::ConfigInstance</text>
<text xml:space="preserve" text-anchor="middle" x="406" y="-59.25" font-family="Helvetica,sans-Serif" font-size="10.00">::getInstanceName</text>
</a>
</g>
</g>
<!-- Node5&#45;&gt;Node10 -->
<g id="edge9_Node000005_Node000010" class="edge">
<title>Node5&#45;&gt;Node10</title>
<g id="a_edge9_Node000005_Node000010"><a xlink:title=" ">
<path fill="none" stroke="#63b8ff" d="M297.17,-68.75C305.03,-68.75 313.1,-68.75 321.12,-68.75"/>
<polygon fill="#63b8ff" stroke="#63b8ff" points="320.87,-72.25 330.87,-68.75 320.87,-65.25 320.87,-72.25"/>
</a>
</g>
</g>
<!-- Node11 -->
<g id="Node000011" class="node">
<title>Node11</title>
<g id="a_Node000011"><a xlink:href="classnet_1_1config_1_1ConfigInstance.html#a01536703bcccfa6594ed7b89c5a842eb" target="_top" xlink:title=" ">
<polygon fill="white" stroke="#666666" points="479.25,-33.5 332.75,-33.5 332.75,0 479.25,0 479.25,-33.5"/>
<text xml:space="preserve" text-anchor="start" x="340.75" y="-20" font-family="Helvetica,sans-Serif" font-size="10.00">net::config::ConfigInstance</text>
<text xml:space="preserve" text-anchor="middle" x="406" y="-7.25" font-family="Helvetica,sans-Serif" font-size="10.00">::getSection</text>
</a>
</g>
</g>
<!-- Node5&#45;&gt;Node11 -->
<g id="edge10_Node000005_Node000011" class="edge">
<title>Node5&#45;&gt;Node11</title>
<g id="a_edge10_Node000005_Node000011"><a xlink:title=" ">
<path fill="none" stroke="#63b8ff" d="M285.86,-51.58C301.72,-46.94 319.02,-41.88 335.41,-37.09"/>
<polygon fill="#63b8ff" stroke="#63b8ff" points="335.95,-40.58 344.57,-34.42 333.99,-33.86 335.95,-40.58"/>
</a>
</g>
</g>
<!-- Node7 -->
<g id="Node000007" class="node">
<title>Node7</title>
<g id="a_Node000007"><a xlink:href="classutils_1_1Config.html#a6603086ea4f9eb8b5c85b06dcc3054f5" target="_top" xlink:title=" ">
<polygon fill="white" stroke="#666666" points="670,-153.12 515.25,-153.12 515.25,-132.38 670,-132.38 670,-153.12"/>
<text xml:space="preserve" text-anchor="middle" x="592.62" y="-139.62" font-family="Helvetica,sans-Serif" font-size="10.00">utils::Config::addSimpleHelp</text>
</a>
</g>
</g>
<!-- Node6&#45;&gt;Node7 -->
<g id="edge6_Node000006_Node000007" class="edge">
<title>Node6&#45;&gt;Node7</title>
<g id="a_edge6_Node000006_Node000007"><a xlink:title=" ">
<path fill="none" stroke="#63b8ff" d="M479.7,-129.41C487.59,-130.35 495.68,-131.32 503.72,-132.28"/>
<polygon fill="#63b8ff" stroke="#63b8ff" points="503.19,-135.74 513.53,-133.44 504.02,-128.79 503.19,-135.74"/>
</a>
</g>
</g>
<!-- Node8 -->
<g id="Node000008" class="node">
<title>Node8</title>
<g id="a_Node000008"><a xlink:href="classutils_1_1Config.html#a90e8e890cf5043d0ade8df401f30df0f" target="_top" xlink:title=" ">
<polygon fill="white" stroke="#666666" points="663.62,-114.5 521.62,-114.5 521.62,-81 663.62,-81 663.62,-114.5"/>
<text xml:space="preserve" text-anchor="start" x="529.62" y="-101" font-family="Helvetica,sans-Serif" font-size="10.00">utils::Config::addStandard</text>
<text xml:space="preserve" text-anchor="middle" x="592.62" y="-88.25" font-family="Helvetica,sans-Serif" font-size="10.00">Flags</text>
</a>
</g>
</g>
<!-- Node6&#45;&gt;Node8 -->
<g id="edge7_Node000006_Node000008" class="edge">
<title>Node6&#45;&gt;Node8</title>
<g id="a_edge7_Node000006_Node000008"><a xlink:title=" ">
<path fill="none" stroke="#63b8ff" d="M479.7,-111.69C489.67,-110.45 499.97,-109.17 510.08,-107.91"/>
<polygon fill="#63b8ff" stroke="#63b8ff" points="510.41,-111.39 519.9,-106.69 509.54,-104.45 510.41,-111.39"/>
</a>
</g>
</g>
<!-- Node9 -->
<g id="Node000009" class="node">
<title>Node9</title>
<g id="a_Node000009"><a xlink:href="classCLI_1_1CallForCommandline.html#a7ea3f08f04bde7338cc490daa90627a9" target="_top" xlink:title=" ">
<polygon fill="white" stroke="#666666" points="845,-114.5 706,-114.5 706,-81 845,-81 845,-114.5"/>
<text xml:space="preserve" text-anchor="start" x="714" y="-101" font-family="Helvetica,sans-Serif" font-size="10.00">CLI::CallForCommandline</text>
<text xml:space="preserve" text-anchor="middle" x="775.5" y="-88.25" font-family="Helvetica,sans-Serif" font-size="10.00">::CallForCommandline</text>
</a>
</g>
</g>
<!-- Node8&#45;&gt;Node9 -->
<g id="edge8_Node000008_Node000009" class="edge">
<title>Node8&#45;&gt;Node9</title>
<g id="a_edge8_Node000008_Node000009"><a xlink:title=" ">
<path fill="none" stroke="#63b8ff" d="M664.07,-97.75C674.02,-97.75 684.3,-97.75 694.41,-97.75"/>
<polygon fill="#63b8ff" stroke="#63b8ff" points="694.21,-101.25 704.21,-97.75 694.21,-94.25 694.21,-101.25"/>
</a>
</g>
</g>
</g>
</svg>
