<?xml version="1.0" encoding="UTF-8" standalone="no"?>
<!DOCTYPE svg PUBLIC "-//W3C//DTD SVG 1.1//EN"
 "http://www.w3.org/Graphics/SVG/1.1/DTD/svg11.dtd">
<!-- Generated by graphviz version 2.42.4 (0)
 -->
<!-- Title: web::websocket::client::SocketContextUpgradeFactory::link Pages: 1 -->
<svg width="626pt" height="92pt"
 viewBox="0.00 0.00 626.00 91.50" xmlns="http://www.w3.org/2000/svg" xmlns:xlink="http://www.w3.org/1999/xlink">
<g id="graph0" class="graph" transform="scale(1 1) rotate(0) translate(4 87.5)">
<title>web::websocket::client::SocketContextUpgradeFactory::link</title>
<!-- Node1 -->
<g id="Node000001" class="node">
<title>Node1</title>
<g id="a_Node000001"><a xlink:title=" ">
<polygon fill="#999999" stroke="#666666" points="194,-54 0,-54 0,-24 194,-24 194,-54"/>
<text text-anchor="start" x="8" y="-42" font-family="Helvetica,sans-Serif" font-size="10.00">web::websocket::client</text>
<text text-anchor="middle" x="97" y="-31" font-family="Helvetica,sans-Serif" font-size="10.00">::SocketContextUpgradeFactory::link</text>
</a>
</g>
</g>
<!-- Node2 -->
<g id="Node000002" class="node">
<title>Node2</title>
<g id="a_Node000002"><a xlink:href="classweb_1_1http_1_1client_1_1SocketContextUpgradeFactory.html#aba8c1dcb3d67268eb0f9a0d2d4766e32" target="_top" xlink:title=" ">
<polygon fill="white" stroke="#666666" points="418,-78 230,-78 230,-48 418,-48 418,-78"/>
<text text-anchor="start" x="238" y="-66" font-family="Helvetica,sans-Serif" font-size="10.00">web::http::client::</text>
<text text-anchor="middle" x="324" y="-55" font-family="Helvetica,sans-Serif" font-size="10.00">SocketContextUpgradeFactory::link</text>
</a>
</g>
</g>
<!-- Node1&#45;&gt;Node2 -->
<g id="edge1_Node000001_Node000002" class="edge">
<title>Node1&#45;&gt;Node2</title>
<g id="a_edge1_Node000001_Node000002"><a xlink:title=" ">
<path fill="none" stroke="#63b8ff" d="M194.07,-49.25C202.57,-50.15 211.2,-51.07 219.75,-51.99"/>
<polygon fill="#63b8ff" stroke="#63b8ff" points="219.44,-55.47 229.75,-53.05 220.18,-48.51 219.44,-55.47"/>
</a>
</g>
</g>
<!-- Node4 -->
<g id="Node000004" class="node">
<title>Node4</title>
<g id="a_Node000004"><a xlink:href="namespaceweb_1_1websocket_1_1client.html#a44517070a1003cafc6540f941d8144d8" target="_top" xlink:title=" ">
<polygon fill="white" stroke="#666666" points="409,-30 239,-30 239,0 409,0 409,-30"/>
<text text-anchor="start" x="247" y="-18" font-family="Helvetica,sans-Serif" font-size="10.00">web::websocket::client</text>
<text text-anchor="middle" x="324" y="-7" font-family="Helvetica,sans-Serif" font-size="10.00">::socketContextUpgradeFactory</text>
</a>
</g>
</g>
<!-- Node1&#45;&gt;Node4 -->
<g id="edge3_Node000001_Node000004" class="edge">
<title>Node1&#45;&gt;Node4</title>
<g id="a_edge3_Node000001_Node000004"><a xlink:title=" ">
<path fill="none" stroke="#63b8ff" d="M194.07,-28.75C205.62,-27.52 217.4,-26.26 228.92,-25.03"/>
<polygon fill="#63b8ff" stroke="#63b8ff" points="229.39,-28.5 238.96,-23.96 228.65,-21.54 229.39,-28.5"/>
</a>
</g>
</g>
<!-- Node3 -->
<g id="Node000003" class="node">
<title>Node3</title>
<g id="a_Node000003"><a xlink:href="classweb_1_1http_1_1client_1_1SocketContextUpgradeFactorySelector.html#aa0241fb31bc6bdb675652878fe8734af" target="_top" xlink:title=" ">
<polygon fill="white" stroke="#666666" points="618,-83.5 454,-83.5 454,-42.5 618,-42.5 618,-83.5"/>
<text text-anchor="start" x="462" y="-71.5" font-family="Helvetica,sans-Serif" font-size="10.00">web::http::client::</text>
<text text-anchor="start" x="462" y="-60.5" font-family="Helvetica,sans-Serif" font-size="10.00">SocketContextUpgradeFactory</text>
<text text-anchor="middle" x="536" y="-49.5" font-family="Helvetica,sans-Serif" font-size="10.00">Selector::instance</text>
</a>
</g>
</g>
<!-- Node2&#45;&gt;Node3 -->
<g id="edge2_Node000002_Node000003" class="edge">
<title>Node2&#45;&gt;Node3</title>
<g id="a_edge2_Node000002_Node000003"><a xlink:title=" ">
<path fill="none" stroke="#63b8ff" d="M418.03,-63C426.53,-63 435.14,-63 443.62,-63"/>
<polygon fill="#63b8ff" stroke="#63b8ff" points="443.9,-66.5 453.9,-63 443.9,-59.5 443.9,-66.5"/>
</a>
</g>
</g>
</g>
</svg>
