<?xml version="1.0" encoding="UTF-8" standalone="no"?>
<!DOCTYPE svg PUBLIC "-//W3C//DTD SVG 1.1//EN"
 "http://www.w3.org/Graphics/SVG/1.1/DTD/svg11.dtd">
<!-- Generated by graphviz version 2.43.0 (0)
 -->
<!-- Title: core::socket::stream::SocketConnectionT::onWriteError Pages: 1 -->
<svg width="710pt" height="86pt"
 viewBox="0.00 0.00 710.00 86.00" xmlns="http://www.w3.org/2000/svg" xmlns:xlink="http://www.w3.org/1999/xlink">
<g id="graph0" class="graph" transform="scale(1 1) rotate(0) translate(4 82)">
<title>core::socket::stream::SocketConnectionT::onWriteError</title>
<!-- Node1 -->
<g id="Node000001" class="node">
<title>Node1</title>
<g id="a_Node000001"><a xlink:title=" ">
<polygon fill="#999999" stroke="#666666" points="113,-59.5 0,-59.5 0,-18.5 113,-18.5 113,-59.5"/>
<text text-anchor="start" x="8" y="-47.5" font-family="Helvetica,sans-Serif" font-size="10.00">core::socket::stream</text>
<text text-anchor="start" x="8" y="-36.5" font-family="Helvetica,sans-Serif" font-size="10.00">::SocketConnectionT::</text>
<text text-anchor="middle" x="56.5" y="-25.5" font-family="Helvetica,sans-Serif" font-size="10.00">onWriteError</text>
</a>
</g>
</g>
<!-- Node2 -->
<g id="Node000002" class="node">
<title>Node2</title>
<g id="a_Node000002"><a xlink:href="classcore_1_1socket_1_1stream_1_1SocketContext.html#a9ac0bc41b2d3020850c106ea84e274fb" target="_top" xlink:title=" ">
<polygon fill="white" stroke="#666666" points="297,-54 149,-54 149,-24 297,-24 297,-54"/>
<text text-anchor="start" x="157" y="-42" font-family="Helvetica,sans-Serif" font-size="10.00">core::socket::stream</text>
<text text-anchor="middle" x="223" y="-31" font-family="Helvetica,sans-Serif" font-size="10.00">::SocketContext::onWriteError</text>
</a>
</g>
</g>
<!-- Node1&#45;&gt;Node2 -->
<g id="edge1_Node000001_Node000002" class="edge">
<title>Node1&#45;&gt;Node2</title>
<g id="a_edge1_Node000001_Node000002"><a xlink:title=" ">
<path fill="none" stroke="#63b8ff" d="M113.19,-39C121.43,-39 130.07,-39 138.72,-39"/>
<polygon fill="#63b8ff" stroke="#63b8ff" points="138.87,-42.5 148.87,-39 138.87,-35.5 138.87,-42.5"/>
</a>
</g>
</g>
<!-- Node3 -->
<g id="Node000003" class="node">
<title>Node3</title>
<g id="a_Node000003"><a xlink:href="classcore_1_1socket_1_1SocketContext.html#af4c23c0cae547056b9c37a87f9a47f3b" target="_top" xlink:title=" ">
<polygon fill="white" stroke="#666666" points="483.5,-78 341.5,-78 341.5,-48 483.5,-48 483.5,-78"/>
<text text-anchor="start" x="349.5" y="-66" font-family="Helvetica,sans-Serif" font-size="10.00">core::socket::SocketContext</text>
<text text-anchor="middle" x="412.5" y="-55" font-family="Helvetica,sans-Serif" font-size="10.00">::onWriteError</text>
</a>
</g>
</g>
<!-- Node2&#45;&gt;Node3 -->
<g id="edge2_Node000002_Node000003" class="edge">
<title>Node2&#45;&gt;Node3</title>
<g id="a_edge2_Node000002_Node000003"><a xlink:title=" ">
<path fill="none" stroke="#63b8ff" d="M297.03,-48.35C308.32,-49.79 320.04,-51.29 331.47,-52.76"/>
<polygon fill="#63b8ff" stroke="#63b8ff" points="331.07,-56.23 341.44,-54.03 331.96,-49.29 331.07,-56.23"/>
</a>
</g>
</g>
<!-- Node4 -->
<g id="Node000004" class="node">
<title>Node4</title>
<g id="a_Node000004"><a xlink:href="classcore_1_1socket_1_1stream_1_1SocketContext.html#abe74f8904842a349e29846b10828fba8" target="_top" xlink:title=" ">
<polygon fill="white" stroke="#666666" points="492,-30 333,-30 333,0 492,0 492,-30"/>
<text text-anchor="start" x="341" y="-18" font-family="Helvetica,sans-Serif" font-size="10.00">core::socket::stream</text>
<text text-anchor="middle" x="412.5" y="-7" font-family="Helvetica,sans-Serif" font-size="10.00">::SocketContext::shutdownRead</text>
</a>
</g>
</g>
<!-- Node2&#45;&gt;Node4 -->
<g id="edge3_Node000002_Node000004" class="edge">
<title>Node2&#45;&gt;Node4</title>
<g id="a_edge3_Node000002_Node000004"><a xlink:title=" ">
<path fill="none" stroke="#63b8ff" d="M297.03,-29.65C305.45,-28.57 314.11,-27.47 322.72,-26.36"/>
<polygon fill="#63b8ff" stroke="#63b8ff" points="323.3,-29.82 332.78,-25.08 322.41,-22.87 323.3,-29.82"/>
</a>
</g>
</g>
<!-- Node5 -->
<g id="Node000005" class="node">
<title>Node5</title>
<g id="a_Node000005"><a xlink:href="classcore_1_1socket_1_1stream_1_1SocketConnection.html#a048516eda8dc42294fbcdf866977fb82" target="_top" xlink:title=" ">
<polygon fill="white" stroke="#666666" points="702,-30 528,-30 528,0 702,0 702,-30"/>
<text text-anchor="start" x="536" y="-18" font-family="Helvetica,sans-Serif" font-size="10.00">core::socket::stream</text>
<text text-anchor="middle" x="615" y="-7" font-family="Helvetica,sans-Serif" font-size="10.00">::SocketConnection::shutdownRead</text>
</a>
</g>
</g>
<!-- Node4&#45;&gt;Node5 -->
<g id="edge4_Node000004_Node000005" class="edge">
<title>Node4&#45;&gt;Node5</title>
<g id="a_edge4_Node000004_Node000005"><a xlink:title=" ">
<path fill="none" stroke="#63b8ff" d="M492.17,-15C500.6,-15 509.26,-15 517.87,-15"/>
<polygon fill="#63b8ff" stroke="#63b8ff" points="517.94,-18.5 527.94,-15 517.94,-11.5 517.94,-18.5"/>
</a>
</g>
</g>
</g>
</svg>
