<?xml version="1.0" encoding="UTF-8" standalone="no"?>
<!DOCTYPE svg PUBLIC "-//W3C//DTD SVG 1.1//EN"
 "http://www.w3.org/Graphics/SVG/1.1/DTD/svg11.dtd">
<!-- Generated by graphviz version 14.1.1 (0)
 -->
<!-- Title: core::socket::stream::SocketClient&lt; SocketConnectorT, SocketContextFactoryT, Args &gt; Pages: 1 -->
<svg width="2152pt" height="327pt"
 viewBox="0.00 0.00 2152.00 327.00" xmlns="http://www.w3.org/2000/svg" xmlns:xlink="http://www.w3.org/1999/xlink">
<g id="graph0" class="graph" transform="scale(1 1) rotate(0) translate(4 322.5)">
<title>core::socket::stream::SocketClient&lt; SocketConnectorT, SocketContextFactoryT, Args &gt;</title>
<!-- Node1 -->
<g id="Node000001" class="node">
<title>Node1</title>
<g id="a_Node000001"><a xlink:title=" ">
<polygon fill="#999999" stroke="none" points="1178.12,-249 1006.62,-249 1006.62,-202.75 1178.12,-202.75 1178.12,-249"/>
<text xml:space="preserve" text-anchor="start" x="1010.62" y="-235.5" font-family="Helvetica,sans-Serif" font-size="10.00">core::socket::stream</text>
<text xml:space="preserve" text-anchor="start" x="1010.62" y="-222.75" font-family="Helvetica,sans-Serif" font-size="10.00">::SocketClient&lt; SocketConnector</text>
<text xml:space="preserve" text-anchor="start" x="1010.62" y="-210" font-family="Helvetica,sans-Serif" font-size="10.00">T, SocketContextFactoryT, Args &gt;</text>
<polygon fill="none" stroke="#666666" points="1006.62,-202.75 1006.62,-249 1178.12,-249 1178.12,-202.75 1006.62,-202.75"/>
</a>
</g>
</g>
<!-- Node3 -->
<g id="Node000003" class="node">
<title>Node3</title>
<g id="a_Node000003"><a xlink:href="classnet_1_1in6_1_1stream_1_1SocketClient.html" target="_top" xlink:title=" ">
<polygon fill="white" stroke="none" points="218.75,-166.75 0,-166.75 0,-82.25 218.75,-82.25 218.75,-166.75"/>
<text xml:space="preserve" text-anchor="start" x="4" y="-153.25" font-family="Helvetica,sans-Serif" font-size="10.00">net::in6::stream::Socket</text>
<text xml:space="preserve" text-anchor="start" x="4" y="-140.5" font-family="Helvetica,sans-Serif" font-size="10.00">Client&lt; core::socket::</text>
<text xml:space="preserve" text-anchor="start" x="4" y="-127.75" font-family="Helvetica,sans-Serif" font-size="10.00">stream::legacy::SocketConnector,</text>
<text xml:space="preserve" text-anchor="start" x="4" y="-115" font-family="Helvetica,sans-Serif" font-size="10.00"> net::in6::stream::legacy::config</text>
<text xml:space="preserve" text-anchor="start" x="4" y="-102.25" font-family="Helvetica,sans-Serif" font-size="10.00">::ConfigSocketClient, SocketContextFactory</text>
<text xml:space="preserve" text-anchor="start" x="82.38" y="-89.5" font-family="Helvetica,sans-Serif" font-size="10.00">T, Args... &gt;</text>
<polygon fill="none" stroke="#666666" points="0,-82.25 0,-166.75 218.75,-166.75 218.75,-82.25 0,-82.25"/>
</a>
</g>
</g>
<!-- Node1&#45;&gt;Node3 -->
<g id="edge2_Node000001_Node000003" class="edge">
<title>Node1&#45;&gt;Node3</title>
<g id="a_edge2_Node000001_Node000003"><a xlink:title=" ">
<path fill="none" stroke="#63b8ff" d="M995.58,-221.61C801.85,-214.54 372.65,-196.06 228.38,-166.75 225.16,-166.1 221.91,-165.38 218.65,-164.61"/>
<polygon fill="none" stroke="#63b8ff" points="995.24,-225.1 1005.36,-221.96 995.5,-218.1 995.24,-225.1"/>
</a>
</g>
</g>
<!-- Node5 -->
<g id="Node000005" class="node">
<title>Node5</title>
<g id="a_Node000005"><a xlink:href="classnet_1_1in6_1_1stream_1_1SocketClient.html" target="_top" xlink:title=" ">
<polygon fill="white" stroke="none" points="455.75,-166.75 237,-166.75 237,-82.25 455.75,-82.25 455.75,-166.75"/>
<text xml:space="preserve" text-anchor="start" x="241" y="-153.25" font-family="Helvetica,sans-Serif" font-size="10.00">net::in6::stream::Socket</text>
<text xml:space="preserve" text-anchor="start" x="241" y="-140.5" font-family="Helvetica,sans-Serif" font-size="10.00">Client&lt; core::socket::</text>
<text xml:space="preserve" text-anchor="start" x="241" y="-127.75" font-family="Helvetica,sans-Serif" font-size="10.00">stream::tls::SocketConnector,</text>
<text xml:space="preserve" text-anchor="start" x="241" y="-115" font-family="Helvetica,sans-Serif" font-size="10.00"> net::in6::stream::tls::config</text>
<text xml:space="preserve" text-anchor="start" x="241" y="-102.25" font-family="Helvetica,sans-Serif" font-size="10.00">::ConfigSocketClient, SocketContextFactory</text>
<text xml:space="preserve" text-anchor="start" x="319.38" y="-89.5" font-family="Helvetica,sans-Serif" font-size="10.00">T, Args... &gt;</text>
<polygon fill="none" stroke="#666666" points="237,-82.25 237,-166.75 455.75,-166.75 455.75,-82.25 237,-82.25"/>
</a>
</g>
</g>
<!-- Node1&#45;&gt;Node5 -->
<g id="edge4_Node000001_Node000005" class="edge">
<title>Node1&#45;&gt;Node5</title>
<g id="a_edge4_Node000001_Node000005"><a xlink:title=" ">
<path fill="none" stroke="#63b8ff" d="M995.36,-223.11C871.2,-219.2 650.07,-206.71 465.38,-166.75 462.17,-166.06 458.93,-165.3 455.67,-164.5"/>
<polygon fill="none" stroke="#63b8ff" points="995.09,-226.6 1005.19,-223.4 995.3,-219.6 995.09,-226.6"/>
</a>
</g>
</g>
<!-- Node7 -->
<g id="Node000007" class="node">
<title>Node7</title>
<g id="a_Node000007"><a xlink:href="classnet_1_1in_1_1stream_1_1SocketClient.html" target="_top" xlink:title=" ">
<polygon fill="white" stroke="none" points="656.75,-160.38 474,-160.38 474,-88.62 656.75,-88.62 656.75,-160.38"/>
<text xml:space="preserve" text-anchor="start" x="478" y="-146.88" font-family="Helvetica,sans-Serif" font-size="10.00">net::in::stream::SocketClient</text>
<text xml:space="preserve" text-anchor="start" x="478" y="-134.12" font-family="Helvetica,sans-Serif" font-size="10.00">&lt; core::socket::stream::legacy</text>
<text xml:space="preserve" text-anchor="start" x="478" y="-121.38" font-family="Helvetica,sans-Serif" font-size="10.00">::SocketConnector, net::in::stream</text>
<text xml:space="preserve" text-anchor="start" x="478" y="-108.62" font-family="Helvetica,sans-Serif" font-size="10.00">::legacy::config::ConfigSocketClient,</text>
<text xml:space="preserve" text-anchor="start" x="483.62" y="-95.88" font-family="Helvetica,sans-Serif" font-size="10.00"> SocketContextFactoryT, Args... &gt;</text>
<polygon fill="none" stroke="#666666" points="474,-88.62 474,-160.38 656.75,-160.38 656.75,-88.62 474,-88.62"/>
</a>
</g>
</g>
<!-- Node1&#45;&gt;Node7 -->
<g id="edge6_Node000001_Node000007" class="edge">
<title>Node1&#45;&gt;Node7</title>
<g id="a_edge6_Node000001_Node000007"><a xlink:title=" ">
<path fill="none" stroke="#63b8ff" d="M995.6,-218.79C908.14,-211.63 776.45,-196.69 665.38,-166.75 658.58,-164.92 651.62,-162.74 644.71,-160.35"/>
<polygon fill="none" stroke="#63b8ff" points="995.09,-222.26 1005.34,-219.57 995.65,-215.28 995.09,-222.26"/>
</a>
</g>
</g>
<!-- Node9 -->
<g id="Node000009" class="node">
<title>Node9</title>
<g id="a_Node000009"><a xlink:href="classnet_1_1in_1_1stream_1_1SocketClient.html" target="_top" xlink:title=" ">
<polygon fill="white" stroke="none" points="878.25,-160.38 674.5,-160.38 674.5,-88.62 878.25,-88.62 878.25,-160.38"/>
<text xml:space="preserve" text-anchor="start" x="678.5" y="-146.88" font-family="Helvetica,sans-Serif" font-size="10.00">net::in::stream::SocketClient</text>
<text xml:space="preserve" text-anchor="start" x="678.5" y="-134.12" font-family="Helvetica,sans-Serif" font-size="10.00">&lt; core::socket::stream::tls</text>
<text xml:space="preserve" text-anchor="start" x="678.5" y="-121.38" font-family="Helvetica,sans-Serif" font-size="10.00">::SocketConnector, net::in</text>
<text xml:space="preserve" text-anchor="start" x="678.5" y="-108.62" font-family="Helvetica,sans-Serif" font-size="10.00">::stream::tls::config::ConfigSocketClient,</text>
<text xml:space="preserve" text-anchor="start" x="694.62" y="-95.88" font-family="Helvetica,sans-Serif" font-size="10.00"> SocketContextFactoryT, Args... &gt;</text>
<polygon fill="none" stroke="#666666" points="674.5,-88.62 674.5,-160.38 878.25,-160.38 878.25,-88.62 674.5,-88.62"/>
</a>
</g>
</g>
<!-- Node1&#45;&gt;Node9 -->
<g id="edge8_Node000001_Node000009" class="edge">
<title>Node1&#45;&gt;Node9</title>
<g id="a_edge8_Node000001_Node000009"><a xlink:title=" ">
<path fill="none" stroke="#63b8ff" d="M997.96,-199.8C963.03,-190.08 923.22,-178.47 887.38,-166.75 881.12,-164.71 874.7,-162.53 868.24,-160.28"/>
<polygon fill="none" stroke="#63b8ff" points="996.6,-203.05 1007.18,-202.35 998.47,-196.31 996.6,-203.05"/>
</a>
</g>
</g>
<!-- Node11 -->
<g id="Node000011" class="node">
<title>Node11</title>
<g id="a_Node000011"><a xlink:href="classnet_1_1l2_1_1stream_1_1SocketClient.html" target="_top" xlink:title=" ">
<polygon fill="white" stroke="none" points="1078.75,-160.38 896,-160.38 896,-88.62 1078.75,-88.62 1078.75,-160.38"/>
<text xml:space="preserve" text-anchor="start" x="900" y="-146.88" font-family="Helvetica,sans-Serif" font-size="10.00">net::l2::stream::SocketClient</text>
<text xml:space="preserve" text-anchor="start" x="900" y="-134.12" font-family="Helvetica,sans-Serif" font-size="10.00">&lt; core::socket::stream::legacy</text>
<text xml:space="preserve" text-anchor="start" x="900" y="-121.38" font-family="Helvetica,sans-Serif" font-size="10.00">::SocketConnector, net::l2::stream</text>
<text xml:space="preserve" text-anchor="start" x="900" y="-108.62" font-family="Helvetica,sans-Serif" font-size="10.00">::legacy::config::ConfigSocketClient,</text>
<text xml:space="preserve" text-anchor="start" x="905.62" y="-95.88" font-family="Helvetica,sans-Serif" font-size="10.00"> SocketContextFactoryT, Args... &gt;</text>
<polygon fill="none" stroke="#666666" points="896,-88.62 896,-160.38 1078.75,-160.38 1078.75,-88.62 896,-88.62"/>
</a>
</g>
</g>
<!-- Node1&#45;&gt;Node11 -->
<g id="edge10_Node000001_Node000011" class="edge">
<title>Node1&#45;&gt;Node11</title>
<g id="a_edge10_Node000001_Node000011"><a xlink:title=" ">
<path fill="none" stroke="#63b8ff" d="M1060.98,-195.17C1049.42,-184.22 1036.22,-171.73 1024.22,-160.37"/>
<polygon fill="none" stroke="#63b8ff" points="1058.3,-197.45 1067.97,-201.78 1063.12,-192.36 1058.3,-197.45"/>
</a>
</g>
</g>
<!-- Node12 -->
<g id="Node000012" class="node">
<title>Node12</title>
<g id="a_Node000012"><a xlink:href="classnet_1_1l2_1_1stream_1_1SocketClient.html" target="_top" xlink:title=" ">
<polygon fill="white" stroke="none" points="1300.25,-160.38 1096.5,-160.38 1096.5,-88.62 1300.25,-88.62 1300.25,-160.38"/>
<text xml:space="preserve" text-anchor="start" x="1100.5" y="-146.88" font-family="Helvetica,sans-Serif" font-size="10.00">net::l2::stream::SocketClient</text>
<text xml:space="preserve" text-anchor="start" x="1100.5" y="-134.12" font-family="Helvetica,sans-Serif" font-size="10.00">&lt; core::socket::stream::tls</text>
<text xml:space="preserve" text-anchor="start" x="1100.5" y="-121.38" font-family="Helvetica,sans-Serif" font-size="10.00">::SocketConnector, net::l2</text>
<text xml:space="preserve" text-anchor="start" x="1100.5" y="-108.62" font-family="Helvetica,sans-Serif" font-size="10.00">::stream::tls::config::ConfigSocketClient,</text>
<text xml:space="preserve" text-anchor="start" x="1116.62" y="-95.88" font-family="Helvetica,sans-Serif" font-size="10.00"> SocketContextFactoryT, Args... &gt;</text>
<polygon fill="none" stroke="#666666" points="1096.5,-88.62 1096.5,-160.38 1300.25,-160.38 1300.25,-88.62 1096.5,-88.62"/>
</a>
</g>
</g>
<!-- Node1&#45;&gt;Node12 -->
<g id="edge11_Node000001_Node000012" class="edge">
<title>Node1&#45;&gt;Node12</title>
<g id="a_edge11_Node000001_Node000012"><a xlink:title=" ">
<path fill="none" stroke="#63b8ff" d="M1124.07,-195.17C1135.74,-184.22 1149.06,-171.73 1161.18,-160.37"/>
<polygon fill="none" stroke="#63b8ff" points="1121.91,-192.39 1117,-201.79 1126.69,-197.5 1121.91,-192.39"/>
</a>
</g>
</g>
<!-- Node13 -->
<g id="Node000013" class="node">
<title>Node13</title>
<g id="a_Node000013"><a xlink:href="classnet_1_1rc_1_1stream_1_1SocketClient.html" target="_top" xlink:title=" ">
<polygon fill="white" stroke="none" points="1500.75,-160.38 1318,-160.38 1318,-88.62 1500.75,-88.62 1500.75,-160.38"/>
<text xml:space="preserve" text-anchor="start" x="1322" y="-146.88" font-family="Helvetica,sans-Serif" font-size="10.00">net::rc::stream::SocketClient</text>
<text xml:space="preserve" text-anchor="start" x="1322" y="-134.12" font-family="Helvetica,sans-Serif" font-size="10.00">&lt; core::socket::stream::legacy</text>
<text xml:space="preserve" text-anchor="start" x="1322" y="-121.38" font-family="Helvetica,sans-Serif" font-size="10.00">::SocketConnector, net::rc::stream</text>
<text xml:space="preserve" text-anchor="start" x="1322" y="-108.62" font-family="Helvetica,sans-Serif" font-size="10.00">::legacy::config::ConfigSocketClient,</text>
<text xml:space="preserve" text-anchor="start" x="1327.62" y="-95.88" font-family="Helvetica,sans-Serif" font-size="10.00"> SocketContextFactoryT, Args... &gt;</text>
<polygon fill="none" stroke="#666666" points="1318,-88.62 1318,-160.38 1500.75,-160.38 1500.75,-88.62 1318,-88.62"/>
</a>
</g>
</g>
<!-- Node1&#45;&gt;Node13 -->
<g id="edge12_Node000001_Node000013" class="edge">
<title>Node1&#45;&gt;Node13</title>
<g id="a_edge12_Node000001_Node000013"><a xlink:title=" ">
<path fill="none" stroke="#63b8ff" d="M1188.94,-201.87C1226.82,-192.1 1270.46,-179.93 1309.38,-166.75 1315.25,-164.76 1321.26,-162.6 1327.29,-160.35"/>
<polygon fill="none" stroke="#63b8ff" points="1188.19,-198.45 1179.37,-204.31 1189.92,-205.23 1188.19,-198.45"/>
</a>
</g>
</g>
<!-- Node15 -->
<g id="Node000015" class="node">
<title>Node15</title>
<g id="a_Node000015"><a xlink:href="classnet_1_1rc_1_1stream_1_1SocketClient.html" target="_top" xlink:title=" ">
<polygon fill="white" stroke="none" points="1722.25,-160.38 1518.5,-160.38 1518.5,-88.62 1722.25,-88.62 1722.25,-160.38"/>
<text xml:space="preserve" text-anchor="start" x="1522.5" y="-146.88" font-family="Helvetica,sans-Serif" font-size="10.00">net::rc::stream::SocketClient</text>
<text xml:space="preserve" text-anchor="start" x="1522.5" y="-134.12" font-family="Helvetica,sans-Serif" font-size="10.00">&lt; core::socket::stream::tls</text>
<text xml:space="preserve" text-anchor="start" x="1522.5" y="-121.38" font-family="Helvetica,sans-Serif" font-size="10.00">::SocketConnector, net::rc</text>
<text xml:space="preserve" text-anchor="start" x="1522.5" y="-108.62" font-family="Helvetica,sans-Serif" font-size="10.00">::stream::tls::config::ConfigSocketClient,</text>
<text xml:space="preserve" text-anchor="start" x="1538.62" y="-95.88" font-family="Helvetica,sans-Serif" font-size="10.00"> SocketContextFactoryT, Args... &gt;</text>
<polygon fill="none" stroke="#666666" points="1518.5,-88.62 1518.5,-160.38 1722.25,-160.38 1722.25,-88.62 1518.5,-88.62"/>
</a>
</g>
</g>
<!-- Node1&#45;&gt;Node15 -->
<g id="edge14_Node000001_Node000015" class="edge">
<title>Node1&#45;&gt;Node15</title>
<g id="a_edge14_Node000001_Node000015"><a xlink:title=" ">
<path fill="none" stroke="#63b8ff" d="M1189.3,-217.37C1274.56,-209.36 1401.53,-193.96 1509.38,-166.75 1516.75,-164.89 1524.31,-162.7 1531.85,-160.33"/>
<polygon fill="none" stroke="#63b8ff" points="1189.22,-213.87 1179.58,-218.27 1189.86,-220.84 1189.22,-213.87"/>
</a>
</g>
</g>
<!-- Node17 -->
<g id="Node000017" class="node">
<title>Node17</title>
<g id="a_Node000017"><a xlink:href="classnet_1_1un_1_1stream_1_1SocketClient.html" target="_top" xlink:title=" ">
<polygon fill="white" stroke="none" points="1922.75,-160.38 1740,-160.38 1740,-88.62 1922.75,-88.62 1922.75,-160.38"/>
<text xml:space="preserve" text-anchor="start" x="1744" y="-146.88" font-family="Helvetica,sans-Serif" font-size="10.00">net::un::stream::SocketClient</text>
<text xml:space="preserve" text-anchor="start" x="1744" y="-134.12" font-family="Helvetica,sans-Serif" font-size="10.00">&lt; core::socket::stream::legacy</text>
<text xml:space="preserve" text-anchor="start" x="1744" y="-121.38" font-family="Helvetica,sans-Serif" font-size="10.00">::SocketConnector, net::un::stream</text>
<text xml:space="preserve" text-anchor="start" x="1744" y="-108.62" font-family="Helvetica,sans-Serif" font-size="10.00">::legacy::config::ConfigSocketClient,</text>
<text xml:space="preserve" text-anchor="start" x="1749.62" y="-95.88" font-family="Helvetica,sans-Serif" font-size="10.00"> SocketContextFactoryT, Args... &gt;</text>
<polygon fill="none" stroke="#666666" points="1740,-88.62 1740,-160.38 1922.75,-160.38 1922.75,-88.62 1740,-88.62"/>
</a>
</g>
</g>
<!-- Node1&#45;&gt;Node17 -->
<g id="edge16_Node000001_Node000017" class="edge">
<title>Node1&#45;&gt;Node17</title>
<g id="a_edge16_Node000001_Node000017"><a xlink:title=" ">
<path fill="none" stroke="#63b8ff" d="M1189.13,-225.04C1315.59,-223.24 1543.15,-213.01 1731.38,-166.75 1738.58,-164.98 1745.94,-162.77 1753.24,-160.31"/>
<polygon fill="none" stroke="#63b8ff" points="1189.42,-221.54 1179.47,-225.16 1189.51,-228.54 1189.42,-221.54"/>
</a>
</g>
</g>
<!-- Node19 -->
<g id="Node000019" class="node">
<title>Node19</title>
<g id="a_Node000019"><a xlink:href="classnet_1_1un_1_1stream_1_1SocketClient.html" target="_top" xlink:title=" ">
<polygon fill="white" stroke="none" points="2144.25,-160.38 1940.5,-160.38 1940.5,-88.62 2144.25,-88.62 2144.25,-160.38"/>
<text xml:space="preserve" text-anchor="start" x="1944.5" y="-146.88" font-family="Helvetica,sans-Serif" font-size="10.00">net::un::stream::SocketClient</text>
<text xml:space="preserve" text-anchor="start" x="1944.5" y="-134.12" font-family="Helvetica,sans-Serif" font-size="10.00">&lt; core::socket::stream::tls</text>
<text xml:space="preserve" text-anchor="start" x="1944.5" y="-121.38" font-family="Helvetica,sans-Serif" font-size="10.00">::SocketConnector, net::un</text>
<text xml:space="preserve" text-anchor="start" x="1944.5" y="-108.62" font-family="Helvetica,sans-Serif" font-size="10.00">::stream::tls::config::ConfigSocketClient,</text>
<text xml:space="preserve" text-anchor="start" x="1960.62" y="-95.88" font-family="Helvetica,sans-Serif" font-size="10.00"> SocketContextFactoryT, Args... &gt;</text>
<polygon fill="none" stroke="#666666" points="1940.5,-88.62 1940.5,-160.38 2144.25,-160.38 2144.25,-88.62 1940.5,-88.62"/>
</a>
</g>
</g>
<!-- Node1&#45;&gt;Node19 -->
<g id="edge18_Node000001_Node000019" class="edge">
<title>Node1&#45;&gt;Node19</title>
<g id="a_edge18_Node000001_Node000019"><a xlink:title=" ">
<path fill="none" stroke="#63b8ff" d="M1189.19,-221.65C1378.71,-214.76 1792.29,-196.76 1931.38,-166.75 1939.41,-165.02 1947.65,-162.82 1955.83,-160.34"/>
<polygon fill="none" stroke="#63b8ff" points="1189.24,-218.15 1179.37,-222 1189.49,-225.14 1189.24,-218.15"/>
</a>
</g>
</g>
<!-- Node2 -->
<g id="Node000002" class="node">
<title>Node2</title>
<g id="a_Node000002"><a xlink:href="classcore_1_1socket_1_1Socket.html" target="_top" xlink:title=" ">
<polygon fill="white" stroke="none" points="1169.88,-318.5 1014.88,-318.5 1014.88,-285 1169.88,-285 1169.88,-318.5"/>
<text xml:space="preserve" text-anchor="start" x="1018.88" y="-305" font-family="Helvetica,sans-Serif" font-size="10.00">core::socket::Socket</text>
<text xml:space="preserve" text-anchor="start" x="1018.88" y="-292.25" font-family="Helvetica,sans-Serif" font-size="10.00">&lt; SocketConnectorT::Config &gt;</text>
<polygon fill="none" stroke="#666666" points="1014.88,-285 1014.88,-318.5 1169.88,-318.5 1169.88,-285 1014.88,-285"/>
</a>
</g>
</g>
<!-- Node2&#45;&gt;Node1 -->
<g id="edge1_Node000001_Node000002" class="edge">
<title>Node2&#45;&gt;Node1</title>
<g id="a_edge1_Node000001_Node000002"><a xlink:title=" ">
<path fill="none" stroke="#63b8ff" d="M1092.38,-273.83C1092.38,-265.66 1092.38,-256.78 1092.38,-248.96"/>
<polygon fill="none" stroke="#63b8ff" points="1088.88,-273.57 1092.38,-283.57 1095.88,-273.57 1088.88,-273.57"/>
</a>
</g>
</g>
<!-- Node4 -->
<g id="Node000004" class="node">
<title>Node4</title>
<g id="a_Node000004"><a xlink:href="classweb_1_1http_1_1client_1_1Client.html" target="_top" xlink:title=" ">
<polygon fill="white" stroke="none" points="171.88,-46.25 46.88,-46.25 46.88,0 171.88,0 171.88,-46.25"/>
<text xml:space="preserve" text-anchor="start" x="50.88" y="-32.75" font-family="Helvetica,sans-Serif" font-size="10.00">web::http::client::</text>
<text xml:space="preserve" text-anchor="start" x="50.88" y="-20" font-family="Helvetica,sans-Serif" font-size="10.00">Client&lt; net::in6::stream</text>
<text xml:space="preserve" text-anchor="start" x="51.62" y="-7.25" font-family="Helvetica,sans-Serif" font-size="10.00">::legacy::SocketClient &gt;</text>
<polygon fill="none" stroke="#666666" points="46.88,0 46.88,-46.25 171.88,-46.25 171.88,0 46.88,0"/>
</a>
</g>
</g>
<!-- Node3&#45;&gt;Node4 -->
<g id="edge3_Node000003_Node000004" class="edge">
<title>Node3&#45;&gt;Node4</title>
<g id="a_edge3_Node000003_Node000004"><a xlink:title=" ">
<path fill="none" stroke="#63b8ff" d="M109.38,-71.25C109.38,-62.34 109.38,-53.54 109.38,-46"/>
<polygon fill="none" stroke="#63b8ff" points="105.88,-70.99 109.38,-80.99 112.88,-70.99 105.88,-70.99"/>
</a>
</g>
</g>
<!-- Node6 -->
<g id="Node000006" class="node">
<title>Node6</title>
<g id="a_Node000006"><a xlink:href="classweb_1_1http_1_1client_1_1Client.html" target="_top" xlink:title=" ">
<polygon fill="white" stroke="none" points="408.88,-46.25 283.88,-46.25 283.88,0 408.88,0 408.88,-46.25"/>
<text xml:space="preserve" text-anchor="start" x="287.88" y="-32.75" font-family="Helvetica,sans-Serif" font-size="10.00">web::http::client::</text>
<text xml:space="preserve" text-anchor="start" x="287.88" y="-20" font-family="Helvetica,sans-Serif" font-size="10.00">Client&lt; net::in6::stream</text>
<text xml:space="preserve" text-anchor="start" x="298.38" y="-7.25" font-family="Helvetica,sans-Serif" font-size="10.00">::tls::SocketClient &gt;</text>
<polygon fill="none" stroke="#666666" points="283.88,0 283.88,-46.25 408.88,-46.25 408.88,0 283.88,0"/>
</a>
</g>
</g>
<!-- Node5&#45;&gt;Node6 -->
<g id="edge5_Node000005_Node000006" class="edge">
<title>Node5&#45;&gt;Node6</title>
<g id="a_edge5_Node000005_Node000006"><a xlink:title=" ">
<path fill="none" stroke="#63b8ff" d="M346.38,-71.25C346.38,-62.34 346.38,-53.54 346.38,-46"/>
<polygon fill="none" stroke="#63b8ff" points="342.88,-70.99 346.38,-80.99 349.88,-70.99 342.88,-70.99"/>
</a>
</g>
</g>
<!-- Node8 -->
<g id="Node000008" class="node">
<title>Node8</title>
<g id="a_Node000008"><a xlink:href="classweb_1_1http_1_1client_1_1Client.html" target="_top" xlink:title=" ">
<polygon fill="white" stroke="none" points="627.12,-46.25 503.62,-46.25 503.62,0 627.12,0 627.12,-46.25"/>
<text xml:space="preserve" text-anchor="start" x="507.62" y="-32.75" font-family="Helvetica,sans-Serif" font-size="10.00">web::http::client::</text>
<text xml:space="preserve" text-anchor="start" x="507.62" y="-20" font-family="Helvetica,sans-Serif" font-size="10.00">Client&lt; net::in::stream</text>
<text xml:space="preserve" text-anchor="start" x="507.62" y="-7.25" font-family="Helvetica,sans-Serif" font-size="10.00">::legacy::SocketClient &gt;</text>
<polygon fill="none" stroke="#666666" points="503.62,0 503.62,-46.25 627.12,-46.25 627.12,0 503.62,0"/>
</a>
</g>
</g>
<!-- Node7&#45;&gt;Node8 -->
<g id="edge7_Node000007_Node000008" class="edge">
<title>Node7&#45;&gt;Node8</title>
<g id="a_edge7_Node000007_Node000008"><a xlink:title=" ">
<path fill="none" stroke="#63b8ff" d="M565.38,-77.48C565.38,-66.5 565.38,-55.28 565.38,-45.98"/>
<polygon fill="none" stroke="#63b8ff" points="561.88,-77.23 565.38,-87.23 568.88,-77.23 561.88,-77.23"/>
</a>
</g>
</g>
<!-- Node10 -->
<g id="Node000010" class="node">
<title>Node10</title>
<g id="a_Node000010"><a xlink:href="classweb_1_1http_1_1client_1_1Client.html" target="_top" xlink:title=" ">
<polygon fill="white" stroke="none" points="835.88,-46.25 716.88,-46.25 716.88,0 835.88,0 835.88,-46.25"/>
<text xml:space="preserve" text-anchor="start" x="720.88" y="-32.75" font-family="Helvetica,sans-Serif" font-size="10.00">web::http::client::</text>
<text xml:space="preserve" text-anchor="start" x="720.88" y="-20" font-family="Helvetica,sans-Serif" font-size="10.00">Client&lt; net::in::stream</text>
<text xml:space="preserve" text-anchor="start" x="728.38" y="-7.25" font-family="Helvetica,sans-Serif" font-size="10.00">::tls::SocketClient &gt;</text>
<polygon fill="none" stroke="#666666" points="716.88,0 716.88,-46.25 835.88,-46.25 835.88,0 716.88,0"/>
</a>
</g>
</g>
<!-- Node9&#45;&gt;Node10 -->
<g id="edge9_Node000009_Node000010" class="edge">
<title>Node9&#45;&gt;Node10</title>
<g id="a_edge9_Node000009_Node000010"><a xlink:title=" ">
<path fill="none" stroke="#63b8ff" d="M776.38,-77.48C776.38,-66.5 776.38,-55.28 776.38,-45.98"/>
<polygon fill="none" stroke="#63b8ff" points="772.88,-77.23 776.38,-87.23 779.88,-77.23 772.88,-77.23"/>
</a>
</g>
</g>
<!-- Node14 -->
<g id="Node000014" class="node">
<title>Node14</title>
<g id="a_Node000014"><a xlink:href="classweb_1_1http_1_1client_1_1Client.html" target="_top" xlink:title=" ">
<polygon fill="white" stroke="none" points="1471.12,-46.25 1347.62,-46.25 1347.62,0 1471.12,0 1471.12,-46.25"/>
<text xml:space="preserve" text-anchor="start" x="1351.62" y="-32.75" font-family="Helvetica,sans-Serif" font-size="10.00">web::http::client::</text>
<text xml:space="preserve" text-anchor="start" x="1351.62" y="-20" font-family="Helvetica,sans-Serif" font-size="10.00">Client&lt; net::rc::stream</text>
<text xml:space="preserve" text-anchor="start" x="1351.62" y="-7.25" font-family="Helvetica,sans-Serif" font-size="10.00">::legacy::SocketClient &gt;</text>
<polygon fill="none" stroke="#666666" points="1347.62,0 1347.62,-46.25 1471.12,-46.25 1471.12,0 1347.62,0"/>
</a>
</g>
</g>
<!-- Node13&#45;&gt;Node14 -->
<g id="edge13_Node000013_Node000014" class="edge">
<title>Node13&#45;&gt;Node14</title>
<g id="a_edge13_Node000013_Node000014"><a xlink:title=" ">
<path fill="none" stroke="#63b8ff" d="M1409.38,-77.48C1409.38,-66.5 1409.38,-55.28 1409.38,-45.98"/>
<polygon fill="none" stroke="#63b8ff" points="1405.88,-77.23 1409.38,-87.23 1412.88,-77.23 1405.88,-77.23"/>
</a>
</g>
</g>
<!-- Node16 -->
<g id="Node000016" class="node">
<title>Node16</title>
<g id="a_Node000016"><a xlink:href="classweb_1_1http_1_1client_1_1Client.html" target="_top" xlink:title=" ">
<polygon fill="white" stroke="none" points="1679.88,-46.25 1560.88,-46.25 1560.88,0 1679.88,0 1679.88,-46.25"/>
<text xml:space="preserve" text-anchor="start" x="1564.88" y="-32.75" font-family="Helvetica,sans-Serif" font-size="10.00">web::http::client::</text>
<text xml:space="preserve" text-anchor="start" x="1564.88" y="-20" font-family="Helvetica,sans-Serif" font-size="10.00">Client&lt; net::rc::stream</text>
<text xml:space="preserve" text-anchor="start" x="1572.38" y="-7.25" font-family="Helvetica,sans-Serif" font-size="10.00">::tls::SocketClient &gt;</text>
<polygon fill="none" stroke="#666666" points="1560.88,0 1560.88,-46.25 1679.88,-46.25 1679.88,0 1560.88,0"/>
</a>
</g>
</g>
<!-- Node15&#45;&gt;Node16 -->
<g id="edge15_Node000015_Node000016" class="edge">
<title>Node15&#45;&gt;Node16</title>
<g id="a_edge15_Node000015_Node000016"><a xlink:title=" ">
<path fill="none" stroke="#63b8ff" d="M1620.38,-77.48C1620.38,-66.5 1620.38,-55.28 1620.38,-45.98"/>
<polygon fill="none" stroke="#63b8ff" points="1616.88,-77.23 1620.38,-87.23 1623.88,-77.23 1616.88,-77.23"/>
</a>
</g>
</g>
<!-- Node18 -->
<g id="Node000018" class="node">
<title>Node18</title>
<g id="a_Node000018"><a xlink:href="classweb_1_1http_1_1client_1_1Client.html" target="_top" xlink:title=" ">
<polygon fill="white" stroke="none" points="1893.12,-46.25 1769.62,-46.25 1769.62,0 1893.12,0 1893.12,-46.25"/>
<text xml:space="preserve" text-anchor="start" x="1773.62" y="-32.75" font-family="Helvetica,sans-Serif" font-size="10.00">web::http::client::</text>
<text xml:space="preserve" text-anchor="start" x="1773.62" y="-20" font-family="Helvetica,sans-Serif" font-size="10.00">Client&lt; net::un::stream</text>
<text xml:space="preserve" text-anchor="start" x="1773.62" y="-7.25" font-family="Helvetica,sans-Serif" font-size="10.00">::legacy::SocketClient &gt;</text>
<polygon fill="none" stroke="#666666" points="1769.62,0 1769.62,-46.25 1893.12,-46.25 1893.12,0 1769.62,0"/>
</a>
</g>
</g>
<!-- Node17&#45;&gt;Node18 -->
<g id="edge17_Node000017_Node000018" class="edge">
<title>Node17&#45;&gt;Node18</title>
<g id="a_edge17_Node000017_Node000018"><a xlink:title=" ">
<path fill="none" stroke="#63b8ff" d="M1831.38,-77.48C1831.38,-66.5 1831.38,-55.28 1831.38,-45.98"/>
<polygon fill="none" stroke="#63b8ff" points="1827.88,-77.23 1831.38,-87.23 1834.88,-77.23 1827.88,-77.23"/>
</a>
</g>
</g>
<!-- Node20 -->
<g id="Node000020" class="node">
<title>Node20</title>
<g id="a_Node000020"><a xlink:href="classweb_1_1http_1_1client_1_1Client.html" target="_top" xlink:title=" ">
<polygon fill="white" stroke="none" points="2103.38,-46.25 1981.38,-46.25 1981.38,0 2103.38,0 2103.38,-46.25"/>
<text xml:space="preserve" text-anchor="start" x="1985.38" y="-32.75" font-family="Helvetica,sans-Serif" font-size="10.00">web::http::client::</text>
<text xml:space="preserve" text-anchor="start" x="1985.38" y="-20" font-family="Helvetica,sans-Serif" font-size="10.00">Client&lt; net::un::stream</text>
<text xml:space="preserve" text-anchor="start" x="1994.38" y="-7.25" font-family="Helvetica,sans-Serif" font-size="10.00">::tls::SocketClient &gt;</text>
<polygon fill="none" stroke="#666666" points="1981.38,0 1981.38,-46.25 2103.38,-46.25 2103.38,0 1981.38,0"/>
</a>
</g>
</g>
<!-- Node19&#45;&gt;Node20 -->
<g id="edge19_Node000019_Node000020" class="edge">
<title>Node19&#45;&gt;Node20</title>
<g id="a_edge19_Node000019_Node000020"><a xlink:title=" ">
<path fill="none" stroke="#63b8ff" d="M2042.38,-77.48C2042.38,-66.5 2042.38,-55.28 2042.38,-45.98"/>
<polygon fill="none" stroke="#63b8ff" points="2038.88,-77.23 2042.38,-87.23 2045.88,-77.23 2038.88,-77.23"/>
</a>
</g>
</g>
</g>
</svg>
