<?xml version="1.0" encoding="UTF-8" standalone="no"?>
<!DOCTYPE svg PUBLIC "-//W3C//DTD SVG 1.1//EN"
 "http://www.w3.org/Graphics/SVG/1.1/DTD/svg11.dtd">
<!-- Generated by graphviz version 2.42.4 (0)
 -->
<!-- Title: web::websocket::Transmitter::sendMessage Pages: 1 -->
<svg width="786pt" height="86pt"
 viewBox="0.00 0.00 786.00 86.00" xmlns="http://www.w3.org/2000/svg" xmlns:xlink="http://www.w3.org/1999/xlink">
<g id="graph0" class="graph" transform="scale(1 1) rotate(0) translate(4 82)">
<title>web::websocket::Transmitter::sendMessage</title>
<!-- Node1 -->
<g id="Node000001" class="node">
<title>Node1</title>
<g id="a_Node000001"><a xlink:title=" ">
<polygon fill="#999999" stroke="#666666" points="778,-54 621,-54 621,-24 778,-24 778,-54"/>
<text text-anchor="start" x="629" y="-42" font-family="Helvetica,sans-Serif" font-size="10.00">web::websocket::Transmitter</text>
<text text-anchor="middle" x="699.5" y="-31" font-family="Helvetica,sans-Serif" font-size="10.00">::sendMessage</text>
</a>
</g>
</g>
<!-- Node2 -->
<g id="Node000002" class="node">
<title>Node2</title>
<g id="a_Node000002"><a xlink:href="classweb_1_1websocket_1_1SocketContextUpgrade.html#a649e6ce0b4d606e0dba826618af55755" target="_top" xlink:title=" ">
<polygon fill="white" stroke="#666666" points="585,-54 414,-54 414,-24 585,-24 585,-54"/>
<text text-anchor="start" x="422" y="-42" font-family="Helvetica,sans-Serif" font-size="10.00">web::websocket::SocketContext</text>
<text text-anchor="middle" x="499.5" y="-31" font-family="Helvetica,sans-Serif" font-size="10.00">Upgrade::sendMessage</text>
</a>
</g>
</g>
<!-- Node1&#45;&gt;Node2 -->
<g id="edge1_Node000001_Node000002" class="edge">
<title>Node1&#45;&gt;Node2</title>
<g id="a_edge1_Node000001_Node000002"><a xlink:title=" ">
<path fill="none" stroke="#63b8ff" d="M610.58,-39C602.13,-39 593.57,-39 585.16,-39"/>
<polygon fill="#63b8ff" stroke="#63b8ff" points="610.81,-42.5 620.81,-39 610.81,-35.5 610.81,-42.5"/>
</a>
</g>
</g>
<!-- Node3 -->
<g id="Node000003" class="node">
<title>Node3</title>
<g id="a_Node000003"><a xlink:href="classweb_1_1websocket_1_1SocketContextUpgrade.html#a2271667599aa7f7a9e43366fd833561a" target="_top" xlink:title=" ">
<polygon fill="white" stroke="#666666" points="378,-78 207,-78 207,-48 378,-48 378,-78"/>
<text text-anchor="start" x="215" y="-66" font-family="Helvetica,sans-Serif" font-size="10.00">web::websocket::SocketContext</text>
<text text-anchor="middle" x="292.5" y="-55" font-family="Helvetica,sans-Serif" font-size="10.00">Upgrade::sendPing</text>
</a>
</g>
</g>
<!-- Node2&#45;&gt;Node3 -->
<g id="edge2_Node000002_Node000003" class="edge">
<title>Node2&#45;&gt;Node3</title>
<g id="a_edge2_Node000002_Node000003"><a xlink:title=" ">
<path fill="none" stroke="#63b8ff" d="M403.91,-50.07C395.34,-51.08 386.69,-52.09 378.2,-53.08"/>
<polygon fill="#63b8ff" stroke="#63b8ff" points="404.41,-53.54 413.94,-48.9 403.6,-46.59 404.41,-53.54"/>
</a>
</g>
</g>
<!-- Node4 -->
<g id="Node000004" class="node">
<title>Node4</title>
<g id="a_Node000004"><a xlink:href="classweb_1_1websocket_1_1SocketContextUpgrade.html#ac470adc9b6643b3ac9bbf83ff7466a7e" target="_top" xlink:title=" ">
<polygon fill="white" stroke="#666666" points="378,-30 207,-30 207,0 378,0 378,-30"/>
<text text-anchor="start" x="215" y="-18" font-family="Helvetica,sans-Serif" font-size="10.00">web::websocket::SocketContext</text>
<text text-anchor="middle" x="292.5" y="-7" font-family="Helvetica,sans-Serif" font-size="10.00">Upgrade::sendPong</text>
</a>
</g>
</g>
<!-- Node2&#45;&gt;Node4 -->
<g id="edge3_Node000002_Node000004" class="edge">
<title>Node2&#45;&gt;Node4</title>
<g id="a_edge3_Node000002_Node000004"><a xlink:title=" ">
<path fill="none" stroke="#63b8ff" d="M403.91,-27.93C395.34,-26.92 386.69,-25.91 378.2,-24.92"/>
<polygon fill="#63b8ff" stroke="#63b8ff" points="403.6,-31.41 413.94,-29.1 404.41,-24.46 403.6,-31.41"/>
</a>
</g>
</g>
<!-- Node5 -->
<g id="Node000005" class="node">
<title>Node5</title>
<g id="a_Node000005"><a xlink:href="classweb_1_1websocket_1_1SocketContextUpgrade.html#a8c21f2d16f0513dc77edf962eee1e185" target="_top" xlink:title=" ">
<polygon fill="white" stroke="#666666" points="171,-30 0,-30 0,0 171,0 171,-30"/>
<text text-anchor="start" x="8" y="-18" font-family="Helvetica,sans-Serif" font-size="10.00">web::websocket::SocketContext</text>
<text text-anchor="middle" x="85.5" y="-7" font-family="Helvetica,sans-Serif" font-size="10.00">Upgrade::onMessageEnd</text>
</a>
</g>
</g>
<!-- Node4&#45;&gt;Node5 -->
<g id="edge4_Node000004_Node000005" class="edge">
<title>Node4&#45;&gt;Node5</title>
<g id="a_edge4_Node000004_Node000005"><a xlink:title=" ">
<path fill="none" stroke="#63b8ff" d="M196.91,-15C188.34,-15 179.69,-15 171.2,-15"/>
<polygon fill="#63b8ff" stroke="#63b8ff" points="196.94,-18.5 206.94,-15 196.94,-11.5 196.94,-18.5"/>
</a>
</g>
</g>
</g>
</svg>
