<?xml version="1.0" encoding="UTF-8" standalone="no"?>
<!DOCTYPE svg PUBLIC "-//W3C//DTD SVG 1.1//EN"
 "http://www.w3.org/Graphics/SVG/1.1/DTD/svg11.dtd">
<!-- Generated by graphviz version 2.42.4 (0)
 -->
<!-- Title: core::socket::stream::SocketConnection::connectSocketContext Pages: 1 -->
<svg width="778pt" height="234pt"
 viewBox="0.00 0.00 778.00 234.00" xmlns="http://www.w3.org/2000/svg" xmlns:xlink="http://www.w3.org/1999/xlink">
<g id="graph0" class="graph" transform="scale(1 1) rotate(0) translate(4 230)">
<title>core::socket::stream::SocketConnection::connectSocketContext</title>
<!-- Node1 -->
<g id="Node000001" class="node">
<title>Node1</title>
<g id="a_Node000001"><a xlink:title=" ">
<polygon fill="#999999" stroke="#666666" points="154,-177.5 0,-177.5 0,-136.5 154,-136.5 154,-177.5"/>
<text text-anchor="start" x="8" y="-165.5" font-family="Helvetica,sans-Serif" font-size="10.00">core::socket::stream</text>
<text text-anchor="start" x="8" y="-154.5" font-family="Helvetica,sans-Serif" font-size="10.00">::SocketConnection::connect</text>
<text text-anchor="middle" x="77" y="-143.5" font-family="Helvetica,sans-Serif" font-size="10.00">SocketContext</text>
</a>
</g>
</g>
<!-- Node2 -->
<g id="Node000002" class="node">
<title>Node2</title>
<g id="a_Node000002"><a xlink:href="classcore_1_1socket_1_1stream_1_1SocketConnection.html#aed398e81ede92d1d1cfae2597580ad2c" target="_top" xlink:title=" ">
<polygon fill="white" stroke="#666666" points="342,-226 201,-226 201,-196 342,-196 342,-226"/>
<text text-anchor="start" x="209" y="-214" font-family="Helvetica,sans-Serif" font-size="10.00">core::socket::stream</text>
<text text-anchor="middle" x="271.5" y="-203" font-family="Helvetica,sans-Serif" font-size="10.00">::SocketConnection::close</text>
</a>
</g>
</g>
<!-- Node1&#45;&gt;Node2 -->
<g id="edge1_Node000001_Node000002" class="edge">
<title>Node1&#45;&gt;Node2</title>
<g id="a_edge1_Node000001_Node000002"><a xlink:title=" ">
<path fill="none" stroke="#63b8ff" d="M151.33,-177.57C169.7,-182.72 189.27,-188.21 207.11,-193.22"/>
<polygon fill="#63b8ff" stroke="#63b8ff" points="206.26,-196.61 216.84,-195.95 208.15,-189.88 206.26,-196.61"/>
</a>
</g>
</g>
<!-- Node3 -->
<g id="Node000003" class="node">
<title>Node3</title>
<g id="a_Node000003"><a xlink:href="classcore_1_1socket_1_1stream_1_1SocketContextFactory.html#a949c1b855fb495f0ab80d179e6a8c0b9" target="_top" xlink:title=" ">
<polygon fill="white" stroke="#666666" points="336,-177.5 207,-177.5 207,-136.5 336,-136.5 336,-177.5"/>
<text text-anchor="start" x="215" y="-165.5" font-family="Helvetica,sans-Serif" font-size="10.00">core::socket::stream</text>
<text text-anchor="start" x="215" y="-154.5" font-family="Helvetica,sans-Serif" font-size="10.00">::SocketContextFactory</text>
<text text-anchor="middle" x="271.5" y="-143.5" font-family="Helvetica,sans-Serif" font-size="10.00">::create</text>
</a>
</g>
</g>
<!-- Node1&#45;&gt;Node3 -->
<g id="edge2_Node000001_Node000003" class="edge">
<title>Node1&#45;&gt;Node3</title>
<g id="a_edge2_Node000001_Node000003"><a xlink:title=" ">
<path fill="none" stroke="#63b8ff" d="M154.08,-157C168.12,-157 182.76,-157 196.72,-157"/>
<polygon fill="#63b8ff" stroke="#63b8ff" points="196.76,-160.5 206.76,-157 196.76,-153.5 196.76,-160.5"/>
</a>
</g>
</g>
<!-- Node4 -->
<g id="Node000004" class="node">
<title>Node4</title>
<g id="a_Node000004"><a xlink:href="classcore_1_1socket_1_1stream_1_1SocketConnection.html#a76fcc6939b029187a81a573e07fc1379" target="_top" xlink:title=" ">
<polygon fill="white" stroke="#666666" points="353,-118.5 190,-118.5 190,-77.5 353,-77.5 353,-118.5"/>
<text text-anchor="start" x="198" y="-106.5" font-family="Helvetica,sans-Serif" font-size="10.00">core::socket::stream</text>
<text text-anchor="start" x="198" y="-95.5" font-family="Helvetica,sans-Serif" font-size="10.00">::SocketConnection::setSocket</text>
<text text-anchor="middle" x="271.5" y="-84.5" font-family="Helvetica,sans-Serif" font-size="10.00">Context</text>
</a>
</g>
</g>
<!-- Node1&#45;&gt;Node4 -->
<g id="edge3_Node000001_Node000004" class="edge">
<title>Node1&#45;&gt;Node4</title>
<g id="a_edge3_Node000001_Node000004"><a xlink:title=" ">
<path fill="none" stroke="#63b8ff" d="M145.06,-136.45C160.69,-131.66 177.46,-126.52 193.49,-121.6"/>
<polygon fill="#63b8ff" stroke="#63b8ff" points="194.82,-124.86 203.36,-118.58 192.77,-118.16 194.82,-124.86"/>
</a>
</g>
</g>
<!-- Node5 -->
<g id="Node000005" class="node">
<title>Node5</title>
<g id="a_Node000005"><a xlink:href="classcore_1_1socket_1_1stream_1_1SocketContext.html#af8e76943ef2429fdae9133c26576c1c8" target="_top" xlink:title=" ">
<polygon fill="white" stroke="#666666" points="519,-113 389,-113 389,-83 519,-83 519,-113"/>
<text text-anchor="start" x="397" y="-101" font-family="Helvetica,sans-Serif" font-size="10.00">core::socket::stream</text>
<text text-anchor="middle" x="454" y="-90" font-family="Helvetica,sans-Serif" font-size="10.00">::SocketContext::attach</text>
</a>
</g>
</g>
<!-- Node4&#45;&gt;Node5 -->
<g id="edge4_Node000004_Node000005" class="edge">
<title>Node4&#45;&gt;Node5</title>
<g id="a_edge4_Node000004_Node000005"><a xlink:title=" ">
<path fill="none" stroke="#63b8ff" d="M353.25,-98C361.72,-98 370.31,-98 378.71,-98"/>
<polygon fill="#63b8ff" stroke="#63b8ff" points="378.84,-101.5 388.84,-98 378.84,-94.5 378.84,-101.5"/>
</a>
</g>
</g>
<!-- Node6 -->
<g id="Node000006" class="node">
<title>Node6</title>
<g id="a_Node000006"><a xlink:href="classcore_1_1socket_1_1stream_1_1SocketConnection.html#a5e26cd617f07295e8579ddb9c41bdd2c" target="_top" xlink:title=" ">
<polygon fill="white" stroke="#666666" points="770,-197 555,-197 555,-167 770,-167 770,-197"/>
<text text-anchor="start" x="563" y="-185" font-family="Helvetica,sans-Serif" font-size="10.00">core::socket::stream</text>
<text text-anchor="middle" x="662.5" y="-174" font-family="Helvetica,sans-Serif" font-size="10.00">::SocketConnection::getConnectionName</text>
</a>
</g>
</g>
<!-- Node5&#45;&gt;Node6 -->
<g id="edge5_Node000005_Node000006" class="edge">
<title>Node5&#45;&gt;Node6</title>
<g id="a_edge5_Node000005_Node000006"><a xlink:title=" ">
<path fill="none" stroke="#63b8ff" d="M475.81,-113.2C495.35,-126.8 525.87,-146.33 555,-158 560.47,-160.19 566.17,-162.2 571.99,-164.05"/>
<polygon fill="#63b8ff" stroke="#63b8ff" points="571.25,-167.48 581.84,-167 573.26,-160.77 571.25,-167.48"/>
</a>
</g>
</g>
<!-- Node7 -->
<g id="Node000007" class="node">
<title>Node7</title>
<g id="a_Node000007"><a xlink:href="classcore_1_1socket_1_1stream_1_1SocketConnection.html#afe9dd58ffc09d599bbfaa1e0d15a0fb2" target="_top" xlink:title=" ">
<polygon fill="white" stroke="#666666" points="740,-148.5 585,-148.5 585,-107.5 740,-107.5 740,-148.5"/>
<text text-anchor="start" x="593" y="-136.5" font-family="Helvetica,sans-Serif" font-size="10.00">core::socket::stream</text>
<text text-anchor="start" x="593" y="-125.5" font-family="Helvetica,sans-Serif" font-size="10.00">::SocketConnection::getTotal</text>
<text text-anchor="middle" x="662.5" y="-114.5" font-family="Helvetica,sans-Serif" font-size="10.00">Processed</text>
</a>
</g>
</g>
<!-- Node5&#45;&gt;Node7 -->
<g id="edge6_Node000005_Node000007" class="edge">
<title>Node5&#45;&gt;Node7</title>
<g id="a_edge6_Node000005_Node000007"><a xlink:title=" ">
<path fill="none" stroke="#63b8ff" d="M519.21,-107.33C536.77,-109.88 556.1,-112.69 574.7,-115.39"/>
<polygon fill="#63b8ff" stroke="#63b8ff" points="574.24,-118.86 584.64,-116.83 575.25,-111.93 574.24,-118.86"/>
</a>
</g>
</g>
<!-- Node8 -->
<g id="Node000008" class="node">
<title>Node8</title>
<g id="a_Node000008"><a xlink:href="classcore_1_1socket_1_1stream_1_1SocketConnection.html#a829d3652654354b5fd1a8b63564206d2" target="_top" xlink:title=" ">
<polygon fill="white" stroke="#666666" points="740,-89.5 585,-89.5 585,-48.5 740,-48.5 740,-89.5"/>
<text text-anchor="start" x="593" y="-77.5" font-family="Helvetica,sans-Serif" font-size="10.00">core::socket::stream</text>
<text text-anchor="start" x="593" y="-66.5" font-family="Helvetica,sans-Serif" font-size="10.00">::SocketConnection::getTotal</text>
<text text-anchor="middle" x="662.5" y="-55.5" font-family="Helvetica,sans-Serif" font-size="10.00">Queued</text>
</a>
</g>
</g>
<!-- Node5&#45;&gt;Node8 -->
<g id="edge7_Node000005_Node000008" class="edge">
<title>Node5&#45;&gt;Node8</title>
<g id="a_edge7_Node000005_Node000008"><a xlink:title=" ">
<path fill="none" stroke="#63b8ff" d="M519.21,-88.98C536.77,-86.52 556.1,-83.8 574.7,-81.19"/>
<polygon fill="#63b8ff" stroke="#63b8ff" points="575.23,-84.65 584.64,-79.79 574.25,-77.72 575.23,-84.65"/>
</a>
</g>
</g>
<!-- Node9 -->
<g id="Node000009" class="node">
<title>Node9</title>
<g id="a_Node000009"><a xlink:href="classcore_1_1socket_1_1stream_1_1SocketContext.html#a716a54b882173251b584439499ca0446" target="_top" xlink:title=" ">
<polygon fill="white" stroke="#666666" points="744,-30 581,-30 581,0 744,0 744,-30"/>
<text text-anchor="start" x="589" y="-18" font-family="Helvetica,sans-Serif" font-size="10.00">core::socket::stream</text>
<text text-anchor="middle" x="662.5" y="-7" font-family="Helvetica,sans-Serif" font-size="10.00">::SocketContext::onConnected</text>
</a>
</g>
</g>
<!-- Node5&#45;&gt;Node9 -->
<g id="edge8_Node000005_Node000009" class="edge">
<title>Node5&#45;&gt;Node9</title>
<g id="a_edge8_Node000005_Node000009"><a xlink:title=" ">
<path fill="none" stroke="#63b8ff" d="M476.68,-82.89C496.32,-69.84 526.46,-51.33 555,-40 561.4,-37.46 568.13,-35.13 574.96,-33.01"/>
<polygon fill="#63b8ff" stroke="#63b8ff" points="576.41,-36.24 585.02,-30.06 574.44,-29.52 576.41,-36.24"/>
</a>
</g>
</g>
</g>
</svg>
