<?xml version="1.0" encoding="UTF-8" standalone="no"?>
<!DOCTYPE svg PUBLIC "-//W3C//DTD SVG 1.1//EN"
 "http://www.w3.org/Graphics/SVG/1.1/DTD/svg11.dtd">
<!-- Generated by graphviz version 2.42.4 (0)
 -->
<!-- Title: core::pipe::Source::start Pages: 1 -->
<svg width="285pt" height="86pt"
 viewBox="0.00 0.00 285.00 86.00" xmlns="http://www.w3.org/2000/svg" xmlns:xlink="http://www.w3.org/1999/xlink">
<g id="graph0" class="graph" transform="scale(1 1) rotate(0) translate(4 82)">
<title>core::pipe::Source::start</title>
<!-- Node1 -->
<g id="Node000001" class="node">
<title>Node1</title>
<g id="a_Node000001"><a xlink:title=" ">
<polygon fill="#999999" stroke="#666666" points="277,-54 181,-54 181,-24 277,-24 277,-54"/>
<text text-anchor="start" x="189" y="-42" font-family="Helvetica,sans-Serif" font-size="10.00">core::pipe::Source</text>
<text text-anchor="middle" x="229" y="-31" font-family="Helvetica,sans-Serif" font-size="10.00">::start</text>
</a>
</g>
</g>
<!-- Node2 -->
<g id="Node000002" class="node">
<title>Node2</title>
<g id="a_Node000002"><a xlink:href="classweb_1_1http_1_1client_1_1Request.html#afd630075a0150730a6b7cabe247e6a1d" target="_top" xlink:title=" ">
<polygon fill="white" stroke="#666666" points="141,-78 4,-78 4,-48 141,-48 141,-78"/>
<text text-anchor="start" x="12" y="-66" font-family="Helvetica,sans-Serif" font-size="10.00">web::http::client::</text>
<text text-anchor="middle" x="72.5" y="-55" font-family="Helvetica,sans-Serif" font-size="10.00">Request::onSourceConnect</text>
</a>
</g>
</g>
<!-- Node1&#45;&gt;Node2 -->
<g id="edge1_Node000001_Node000002" class="edge">
<title>Node1&#45;&gt;Node2</title>
<g id="a_edge1_Node000001_Node000002"><a xlink:title=" ">
<path fill="none" stroke="#63b8ff" d="M170.91,-47.87C161.22,-49.37 151.09,-50.95 141.16,-52.49"/>
<polygon fill="#63b8ff" stroke="#63b8ff" points="171.46,-51.32 180.81,-46.33 170.39,-44.41 171.46,-51.32"/>
</a>
</g>
</g>
<!-- Node3 -->
<g id="Node000003" class="node">
<title>Node3</title>
<g id="a_Node000003"><a xlink:href="classweb_1_1http_1_1server_1_1Response.html#a32364fe954f40c700848c3037bcf5f96" target="_top" xlink:title=" ">
<polygon fill="white" stroke="#666666" points="145,-30 0,-30 0,0 145,0 145,-30"/>
<text text-anchor="start" x="8" y="-18" font-family="Helvetica,sans-Serif" font-size="10.00">web::http::server::</text>
<text text-anchor="middle" x="72.5" y="-7" font-family="Helvetica,sans-Serif" font-size="10.00">Response::onSourceConnect</text>
</a>
</g>
</g>
<!-- Node1&#45;&gt;Node3 -->
<g id="edge2_Node000001_Node000003" class="edge">
<title>Node1&#45;&gt;Node3</title>
<g id="a_edge2_Node000001_Node000003"><a xlink:title=" ">
<path fill="none" stroke="#63b8ff" d="M170.81,-30.12C162.45,-28.82 153.76,-27.47 145.16,-26.13"/>
<polygon fill="#63b8ff" stroke="#63b8ff" points="170.39,-33.59 180.81,-31.67 171.46,-26.68 170.39,-33.59"/>
</a>
</g>
</g>
</g>
</svg>
