<?xml version="1.0" encoding="UTF-8" standalone="no"?>
<!DOCTYPE svg PUBLIC "-//W3C//DTD SVG 1.1//EN"
 "http://www.w3.org/Graphics/SVG/1.1/DTD/svg11.dtd">
<!-- Generated by graphviz version 2.43.0 (0)
 -->
<!-- Title: web::http::server::RequestContextBase::close Pages: 1 -->
<svg width="798pt" height="228pt"
 viewBox="0.00 0.00 798.00 228.00" xmlns="http://www.w3.org/2000/svg" xmlns:xlink="http://www.w3.org/1999/xlink">
<g id="graph0" class="graph" transform="scale(1 1) rotate(0) translate(4 224)">
<title>web::http::server::RequestContextBase::close</title>
<!-- Node1 -->
<g id="Node000001" class="node">
<title>Node1</title>
<g id="a_Node000001"><a xlink:title=" ">
<polygon fill="#999999" stroke="#666666" points="790,-100 650,-100 650,-70 790,-70 790,-100"/>
<text text-anchor="start" x="658" y="-88" font-family="Helvetica,sans-Serif" font-size="10.00">web::http::server::</text>
<text text-anchor="middle" x="720" y="-77" font-family="Helvetica,sans-Serif" font-size="10.00">RequestContextBase::close</text>
</a>
</g>
</g>
<!-- Node2 -->
<g id="Node000002" class="node">
<title>Node2</title>
<g id="a_Node000002"><a xlink:href="classweb_1_1http_1_1server_1_1Response.html#a6bdff1ff4fb13a952df7bfefd0b87667" target="_top" xlink:title=" ">
<polygon fill="white" stroke="#666666" points="614,-124 510,-124 510,-94 614,-94 614,-124"/>
<text text-anchor="start" x="518" y="-112" font-family="Helvetica,sans-Serif" font-size="10.00">web::http::server::</text>
<text text-anchor="middle" x="562" y="-101" font-family="Helvetica,sans-Serif" font-size="10.00">Response::enqueue</text>
</a>
</g>
</g>
<!-- Node1&#45;&gt;Node2 -->
<g id="edge1_Node000001_Node000002" class="edge">
<title>Node1&#45;&gt;Node2</title>
<g id="a_edge1_Node000001_Node000002"><a xlink:title=" ">
<path fill="none" stroke="#63b8ff" d="M639.6,-97.21C631.02,-98.54 622.46,-99.85 614.33,-101.1"/>
<polygon fill="#63b8ff" stroke="#63b8ff" points="640.32,-100.65 649.67,-95.67 639.25,-93.73 640.32,-100.65"/>
</a>
</g>
</g>
<!-- Node14 -->
<g id="Node000014" class="node">
<title>Node14</title>
<g id="a_Node000014"><a xlink:href="classweb_1_1http_1_1server_1_1Response.html#a3cafd9aa6d11129548b54007eab49543" target="_top" xlink:title=" ">
<polygon fill="white" stroke="#666666" points="610,-76 514,-76 514,-46 610,-46 610,-76"/>
<text text-anchor="start" x="522" y="-64" font-family="Helvetica,sans-Serif" font-size="10.00">web::http::server::</text>
<text text-anchor="middle" x="562" y="-53" font-family="Helvetica,sans-Serif" font-size="10.00">Response::error</text>
</a>
</g>
</g>
<!-- Node1&#45;&gt;Node14 -->
<g id="edge15_Node000001_Node000014" class="edge">
<title>Node1&#45;&gt;Node14</title>
<g id="a_edge15_Node000001_Node000014"><a xlink:title=" ">
<path fill="none" stroke="#63b8ff" d="M639.62,-72.79C629.56,-71.24 619.52,-69.7 610.19,-68.26"/>
<polygon fill="#63b8ff" stroke="#63b8ff" points="639.25,-76.27 649.67,-74.33 640.32,-69.35 639.25,-76.27"/>
</a>
</g>
</g>
<!-- Node3 -->
<g id="Node000003" class="node">
<title>Node3</title>
<g id="a_Node000003"><a xlink:href="classweb_1_1http_1_1server_1_1Response.html#a9c5834911394dedb7faed2e52ceb7a1d" target="_top" xlink:title=" ">
<polygon fill="white" stroke="#666666" points="466.5,-220 362.5,-220 362.5,-190 466.5,-190 466.5,-220"/>
<text text-anchor="start" x="370.5" y="-208" font-family="Helvetica,sans-Serif" font-size="10.00">web::http::server::</text>
<text text-anchor="middle" x="414.5" y="-197" font-family="Helvetica,sans-Serif" font-size="10.00">Response::enqueue</text>
</a>
</g>
</g>
<!-- Node2&#45;&gt;Node3 -->
<g id="edge2_Node000002_Node000003" class="edge">
<title>Node2&#45;&gt;Node3</title>
<g id="a_edge2_Node000002_Node000003"><a xlink:title=" ">
<path fill="none" stroke="#63b8ff" d="M538.13,-131.23C521.38,-146.65 497.55,-166.87 474,-181 468.63,-184.22 462.76,-187.19 456.86,-189.87"/>
<polygon fill="#63b8ff" stroke="#63b8ff" points="540.84,-133.48 545.75,-124.09 536.06,-128.37 540.84,-133.48"/>
</a>
</g>
</g>
<!-- Node4 -->
<g id="Node000004" class="node">
<title>Node4</title>
<g id="a_Node000004"><a xlink:href="classweb_1_1http_1_1server_1_1Response.html#a6693a2431a465a948bca9ba1593a1f20" target="_top" xlink:title=" ">
<polygon fill="white" stroke="#666666" points="463.5,-172 365.5,-172 365.5,-142 463.5,-142 463.5,-172"/>
<text text-anchor="start" x="373.5" y="-160" font-family="Helvetica,sans-Serif" font-size="10.00">web::http::server::</text>
<text text-anchor="middle" x="414.5" y="-149" font-family="Helvetica,sans-Serif" font-size="10.00">Response::receive</text>
</a>
</g>
</g>
<!-- Node2&#45;&gt;Node4 -->
<g id="edge3_Node000002_Node000004" class="edge">
<title>Node2&#45;&gt;Node4</title>
<g id="a_edge3_Node000002_Node000004"><a xlink:title=" ">
<path fill="none" stroke="#63b8ff" d="M505.81,-127.21C491.01,-132.09 475.18,-137.31 460.98,-142"/>
<polygon fill="#63b8ff" stroke="#63b8ff" points="506.96,-130.51 515.36,-124.06 504.77,-123.86 506.96,-130.51"/>
</a>
</g>
</g>
<!-- Node5 -->
<g id="Node000005" class="node">
<title>Node5</title>
<g id="a_Node000005"><a xlink:href="classweb_1_1http_1_1server_1_1Response.html#ad13e93ee083ee9e780a4478a86fdefec" target="_top" xlink:title=" ">
<polygon fill="white" stroke="#666666" points="462.5,-124 366.5,-124 366.5,-94 462.5,-94 462.5,-124"/>
<text text-anchor="start" x="374.5" y="-112" font-family="Helvetica,sans-Serif" font-size="10.00">web::http::server::</text>
<text text-anchor="middle" x="414.5" y="-101" font-family="Helvetica,sans-Serif" font-size="10.00">Response::send</text>
</a>
</g>
</g>
<!-- Node2&#45;&gt;Node5 -->
<g id="edge4_Node000002_Node000005" class="edge">
<title>Node2&#45;&gt;Node5</title>
<g id="a_edge4_Node000002_Node000005"><a xlink:title=" ">
<path fill="none" stroke="#63b8ff" d="M499.55,-109C487.3,-109 474.62,-109 462.93,-109"/>
<polygon fill="#63b8ff" stroke="#63b8ff" points="499.7,-112.5 509.7,-109 499.7,-105.5 499.7,-112.5"/>
</a>
</g>
</g>
<!-- Node13 -->
<g id="Node000013" class="node">
<title>Node13</title>
<g id="a_Node000013"><a xlink:href="classweb_1_1http_1_1server_1_1Response.html#a4fae387fd1d11b86260f4572bfebfce2" target="_top" xlink:title=" ">
<polygon fill="white" stroke="#666666" points="474,-76 355,-76 355,-46 474,-46 474,-76"/>
<text text-anchor="start" x="363" y="-64" font-family="Helvetica,sans-Serif" font-size="10.00">web::http::server::</text>
<text text-anchor="middle" x="414.5" y="-53" font-family="Helvetica,sans-Serif" font-size="10.00">Response::sendHeader</text>
</a>
</g>
</g>
<!-- Node2&#45;&gt;Node13 -->
<g id="edge13_Node000002_Node000013" class="edge">
<title>Node2&#45;&gt;Node13</title>
<g id="a_edge13_Node000002_Node000013"><a xlink:title=" ">
<path fill="none" stroke="#63b8ff" d="M522.54,-90.28C507.68,-84.71 490.35,-78.79 474.02,-73.67"/>
<polygon fill="#63b8ff" stroke="#63b8ff" points="521.32,-93.56 531.91,-93.88 523.83,-87.02 521.32,-93.56"/>
</a>
</g>
</g>
<!-- Node6 -->
<g id="Node000006" class="node">
<title>Node6</title>
<g id="a_Node000006"><a xlink:href="classweb_1_1http_1_1server_1_1Response.html#a761cba48efb6eed2fa816750670c03db" target="_top" xlink:title=" ">
<polygon fill="white" stroke="#666666" points="304.5,-206 208.5,-206 208.5,-176 304.5,-176 304.5,-206"/>
<text text-anchor="start" x="216.5" y="-194" font-family="Helvetica,sans-Serif" font-size="10.00">web::http::server::</text>
<text text-anchor="middle" x="256.5" y="-183" font-family="Helvetica,sans-Serif" font-size="10.00">Response::end</text>
</a>
</g>
</g>
<!-- Node5&#45;&gt;Node6 -->
<g id="edge5_Node000005_Node000006" class="edge">
<title>Node5&#45;&gt;Node6</title>
<g id="a_edge5_Node000005_Node000006"><a xlink:title=" ">
<path fill="none" stroke="#63b8ff" d="M362.17,-128.74C359.7,-130.09 357.3,-131.52 355,-133 336.51,-144.93 337.59,-155.23 319,-167 313.77,-170.31 308.01,-173.29 302.18,-175.94"/>
<polygon fill="#63b8ff" stroke="#63b8ff" points="363.99,-131.74 371.32,-124.1 360.82,-125.5 363.99,-131.74"/>
</a>
</g>
</g>
<!-- Node8 -->
<g id="Node000008" class="node">
<title>Node8</title>
<g id="a_Node000008"><a xlink:href="classexpress_1_1Response.html#ae60d0bae9024f07455b4d54c6fe9b4a0" target="_top" xlink:title=" ">
<polygon fill="white" stroke="#666666" points="319,-139.5 194,-139.5 194,-120.5 319,-120.5 319,-139.5"/>
<text text-anchor="middle" x="256.5" y="-127.5" font-family="Helvetica,sans-Serif" font-size="10.00">express::Response::json</text>
</a>
</g>
</g>
<!-- Node5&#45;&gt;Node8 -->
<g id="edge7_Node000005_Node000008" class="edge">
<title>Node5&#45;&gt;Node8</title>
<g id="a_edge7_Node000005_Node000008"><a xlink:title=" ">
<path fill="none" stroke="#63b8ff" d="M356.34,-116.7C344.27,-118.32 331.5,-120.04 319.27,-121.68"/>
<polygon fill="#63b8ff" stroke="#63b8ff" points="356.83,-120.16 366.27,-115.36 355.89,-113.22 356.83,-120.16"/>
</a>
</g>
</g>
<!-- Node9 -->
<g id="Node000009" class="node">
<title>Node9</title>
<g id="a_Node000009"><a xlink:href="classweb_1_1http_1_1server_1_1Response.html#a5128a20b904071c22a077b040c8ff138" target="_top" xlink:title=" ">
<polygon fill="white" stroke="#666666" points="304.5,-102 208.5,-102 208.5,-72 304.5,-72 304.5,-102"/>
<text text-anchor="start" x="216.5" y="-90" font-family="Helvetica,sans-Serif" font-size="10.00">web::http::server::</text>
<text text-anchor="middle" x="256.5" y="-79" font-family="Helvetica,sans-Serif" font-size="10.00">Response::send</text>
</a>
</g>
</g>
<!-- Node5&#45;&gt;Node9 -->
<g id="edge9_Node000005_Node000009" class="edge">
<title>Node5&#45;&gt;Node9</title>
<g id="a_edge9_Node000005_Node000009"><a xlink:title=" ">
<path fill="none" stroke="#63b8ff" d="M355.95,-100.88C339.04,-98.5 320.74,-95.92 304.57,-93.64"/>
<polygon fill="#63b8ff" stroke="#63b8ff" points="355.88,-104.41 366.27,-102.34 356.86,-97.48 355.88,-104.41"/>
</a>
</g>
</g>
<!-- Node10 -->
<g id="Node000010" class="node">
<title>Node10</title>
<g id="a_Node000010"><a xlink:href="classexpress_1_1Response.html#aead1c666aafef5787f1824e5ea30efad" target="_top" xlink:title=" ">
<polygon fill="white" stroke="#666666" points="310,-54 203,-54 203,-24 310,-24 310,-54"/>
<text text-anchor="start" x="211" y="-42" font-family="Helvetica,sans-Serif" font-size="10.00">express::Response::</text>
<text text-anchor="middle" x="256.5" y="-31" font-family="Helvetica,sans-Serif" font-size="10.00">sendStatus</text>
</a>
</g>
</g>
<!-- Node5&#45;&gt;Node10 -->
<g id="edge10_Node000005_Node000010" class="edge">
<title>Node5&#45;&gt;Node10</title>
<g id="a_edge10_Node000005_Node000010"><a xlink:title=" ">
<path fill="none" stroke="#63b8ff" d="M365.17,-89.89C361.7,-88.3 358.28,-86.66 355,-85 338.27,-76.53 335.8,-71.33 319,-63 312.63,-59.84 305.74,-56.81 298.96,-54.02"/>
<polygon fill="#63b8ff" stroke="#63b8ff" points="363.84,-93.13 374.4,-93.97 366.68,-86.73 363.84,-93.13"/>
</a>
</g>
</g>
<!-- Node7 -->
<g id="Node000007" class="node">
<title>Node7</title>
<g id="a_Node000007"><a xlink:href="classweb_1_1websocket_1_1server_1_1SocketContextUpgradeFactory.html#a7164a3b2a96810d40a3c081e1289277b" target="_top" xlink:title=" ">
<polygon fill="white" stroke="#666666" points="158,-211.5 0,-211.5 0,-170.5 158,-170.5 158,-211.5"/>
<text text-anchor="start" x="8" y="-199.5" font-family="Helvetica,sans-Serif" font-size="10.00">web::websocket::server</text>
<text text-anchor="start" x="8" y="-188.5" font-family="Helvetica,sans-Serif" font-size="10.00">::SocketContextUpgradeFactory</text>
<text text-anchor="middle" x="79" y="-177.5" font-family="Helvetica,sans-Serif" font-size="10.00">::create</text>
</a>
</g>
</g>
<!-- Node6&#45;&gt;Node7 -->
<g id="edge6_Node000006_Node000007" class="edge">
<title>Node6&#45;&gt;Node7</title>
<g id="a_edge6_Node000006_Node000007"><a xlink:title=" ">
<path fill="none" stroke="#63b8ff" d="M198.44,-191C185.64,-191 171.83,-191 158.33,-191"/>
<polygon fill="#63b8ff" stroke="#63b8ff" points="198.47,-194.5 208.47,-191 198.47,-187.5 198.47,-194.5"/>
</a>
</g>
</g>
<!-- Node8&#45;&gt;Node8 -->
<g id="edge8_Node000008_Node000008" class="edge">
<title>Node8&#45;&gt;Node8</title>
<g id="a_edge8_Node000008_Node000008"><a xlink:title=" ">
<path fill="none" stroke="#63b8ff" d="M285.99,-148.32C284.76,-153.51 274.93,-157.5 256.5,-157.5 228.42,-157.5 220.3,-148.23 232.15,-139.58"/>
<polygon fill="#63b8ff" stroke="#63b8ff" points="288.94,-146.43 280.85,-139.58 282.91,-149.98 288.94,-146.43"/>
</a>
</g>
</g>
<!-- Node11 -->
<g id="Node000011" class="node">
<title>Node11</title>
<g id="a_Node000011"><a xlink:href="classexpress_1_1RootRoute.html#a2d65050e101a52dc8c303cd787d1cb23" target="_top" xlink:title=" ">
<polygon fill="white" stroke="#666666" points="131,-78 27,-78 27,-48 131,-48 131,-78"/>
<text text-anchor="start" x="35" y="-66" font-family="Helvetica,sans-Serif" font-size="10.00">express::RootRoute</text>
<text text-anchor="middle" x="79" y="-55" font-family="Helvetica,sans-Serif" font-size="10.00">::dispatch</text>
</a>
</g>
</g>
<!-- Node10&#45;&gt;Node11 -->
<g id="edge11_Node000010_Node000011" class="edge">
<title>Node10&#45;&gt;Node11</title>
<g id="a_edge11_Node000010_Node000011"><a xlink:title=" ">
<path fill="none" stroke="#63b8ff" d="M192.78,-47.58C172.56,-50.34 150.39,-53.37 131.11,-56.01"/>
<polygon fill="#63b8ff" stroke="#63b8ff" points="193.41,-51.02 202.84,-46.2 192.46,-44.09 193.41,-51.02"/>
</a>
</g>
</g>
<!-- Node12 -->
<g id="Node000012" class="node">
<title>Node12</title>
<g id="a_Node000012"><a xlink:href="classexpress_1_1Response.html#a6da531370bf0e26c31d44e9831a896d2" target="_top" xlink:title=" ">
<polygon fill="white" stroke="#666666" points="132.5,-30 25.5,-30 25.5,0 132.5,0 132.5,-30"/>
<text text-anchor="start" x="33.5" y="-18" font-family="Helvetica,sans-Serif" font-size="10.00">express::Response::</text>
<text text-anchor="middle" x="79" y="-7" font-family="Helvetica,sans-Serif" font-size="10.00">redirect</text>
</a>
</g>
</g>
<!-- Node10&#45;&gt;Node12 -->
<g id="edge12_Node000010_Node000012" class="edge">
<title>Node10&#45;&gt;Node12</title>
<g id="a_edge12_Node000010_Node000012"><a xlink:title=" ">
<path fill="none" stroke="#63b8ff" d="M192.74,-30.42C173.05,-27.72 151.53,-24.78 132.62,-22.2"/>
<polygon fill="#63b8ff" stroke="#63b8ff" points="192.46,-33.91 202.84,-31.8 193.41,-26.98 192.46,-33.91"/>
</a>
</g>
</g>
<!-- Node13&#45;&gt;Node2 -->
<g id="edge14_Node000013_Node000002" class="edge">
<title>Node13&#45;&gt;Node2</title>
<g id="a_edge14_Node000013_Node000002"><a xlink:title=" ">
<path fill="none" stroke="#63b8ff" d="M453.98,-79.73C471.05,-86.13 491.37,-92.98 509.7,-98.56"/>
<polygon fill="#63b8ff" stroke="#63b8ff" points="454.94,-76.35 444.35,-76.03 452.43,-82.88 454.94,-76.35"/>
</a>
</g>
</g>
</g>
</svg>
