<?xml version="1.0" encoding="UTF-8" standalone="no"?>
<!DOCTYPE svg PUBLIC "-//W3C//DTD SVG 1.1//EN"
 "http://www.w3.org/Graphics/SVG/1.1/DTD/svg11.dtd">
<!-- Generated by graphviz version 2.42.4 (0)
 -->
<!-- Title: core::socket::stream::SocketConnection::sendToPeer Pages: 1 -->
<svg width="579pt" height="98pt"
 viewBox="0.00 0.00 579.00 97.50" xmlns="http://www.w3.org/2000/svg" xmlns:xlink="http://www.w3.org/1999/xlink">
<g id="graph0" class="graph" transform="scale(1 1) rotate(0) translate(4 93.5)">
<title>core::socket::stream::SocketConnection::sendToPeer</title>
<!-- Node1 -->
<g id="Node000001" class="node">
<title>Node1</title>
<g id="a_Node000001"><a xlink:title=" ">
<polygon fill="#999999" stroke="#666666" points="571,-57 400,-57 400,-27 571,-27 571,-57"/>
<text text-anchor="start" x="408" y="-45" font-family="Helvetica,sans-Serif" font-size="10.00">core::socket::stream</text>
<text text-anchor="middle" x="485.5" y="-34" font-family="Helvetica,sans-Serif" font-size="10.00">::SocketConnection::sendToPeer</text>
</a>
</g>
</g>
<!-- Node2 -->
<g id="Node000002" class="node">
<title>Node2</title>
<g id="a_Node000002"><a xlink:href="classcore_1_1socket_1_1stream_1_1SocketContext.html#a7e80affcdada3ef5f1c52c283d65a89c" target="_top" xlink:title=" ">
<polygon fill="white" stroke="#666666" points="364,-57 209,-57 209,-27 364,-27 364,-57"/>
<text text-anchor="start" x="217" y="-45" font-family="Helvetica,sans-Serif" font-size="10.00">core::socket::stream</text>
<text text-anchor="middle" x="286.5" y="-34" font-family="Helvetica,sans-Serif" font-size="10.00">::SocketContext::sendToPeer</text>
</a>
</g>
</g>
<!-- Node1&#45;&gt;Node2 -->
<g id="edge1_Node000001_Node000002" class="edge">
<title>Node1&#45;&gt;Node2</title>
<g id="a_edge1_Node000001_Node000002"><a xlink:title=" ">
<path fill="none" stroke="#63b8ff" d="M389.73,-42C381.12,-42 372.46,-42 364.04,-42"/>
<polygon fill="#63b8ff" stroke="#63b8ff" points="389.81,-45.5 399.81,-42 389.81,-38.5 389.81,-45.5"/>
</a>
</g>
</g>
<!-- Node3 -->
<g id="Node000003" class="node">
<title>Node3</title>
<g id="a_Node000003"><a xlink:href="classapps_1_1echo_1_1model_1_1EchoSocketContext.html#ac4cded8642412b3ff4f92953bb758731" target="_top" xlink:title=" ">
<polygon fill="white" stroke="#666666" points="173,-89.5 0,-89.5 0,-48.5 173,-48.5 173,-89.5"/>
<text text-anchor="start" x="8" y="-77.5" font-family="Helvetica,sans-Serif" font-size="10.00">apps::echo::model::</text>
<text text-anchor="start" x="8" y="-66.5" font-family="Helvetica,sans-Serif" font-size="10.00">EchoSocketContext::onReceived</text>
<text text-anchor="middle" x="86.5" y="-55.5" font-family="Helvetica,sans-Serif" font-size="10.00">FromPeer</text>
</a>
</g>
</g>
<!-- Node2&#45;&gt;Node3 -->
<g id="edge2_Node000002_Node000003" class="edge">
<title>Node2&#45;&gt;Node3</title>
<g id="a_edge2_Node000002_Node000003"><a xlink:title=" ">
<path fill="none" stroke="#63b8ff" d="M198.94,-53.8C190.35,-54.97 181.64,-56.16 173.06,-57.33"/>
<polygon fill="#63b8ff" stroke="#63b8ff" points="199.51,-57.26 208.95,-52.44 198.57,-50.32 199.51,-57.26"/>
</a>
</g>
</g>
<!-- Node4 -->
<g id="Node000004" class="node">
<title>Node4</title>
<g id="a_Node000004"><a xlink:href="classiot_1_1mqtt_1_1SocketContext.html#a0ec4f31a56563248c2d1a3523e8d3a12" target="_top" xlink:title=" ">
<polygon fill="white" stroke="#666666" points="154,-30 19,-30 19,0 154,0 154,-30"/>
<text text-anchor="start" x="27" y="-18" font-family="Helvetica,sans-Serif" font-size="10.00">iot::mqtt::SocketContext</text>
<text text-anchor="middle" x="86.5" y="-7" font-family="Helvetica,sans-Serif" font-size="10.00">::send</text>
</a>
</g>
</g>
<!-- Node2&#45;&gt;Node4 -->
<g id="edge3_Node000002_Node000004" class="edge">
<title>Node2&#45;&gt;Node4</title>
<g id="a_edge3_Node000002_Node000004"><a xlink:title=" ">
<path fill="none" stroke="#63b8ff" d="M198.69,-30.16C183.77,-28.13 168.47,-26.04 154.18,-24.09"/>
<polygon fill="#63b8ff" stroke="#63b8ff" points="198.57,-33.68 208.95,-31.56 199.51,-26.74 198.57,-33.68"/>
</a>
</g>
</g>
</g>
</svg>
