<?xml version="1.0" encoding="UTF-8" standalone="no"?>
<!DOCTYPE svg PUBLIC "-//W3C//DTD SVG 1.1//EN"
 "http://www.w3.org/Graphics/SVG/1.1/DTD/svg11.dtd">
<!-- Generated by graphviz version 2.42.4 (0)
 -->
<!-- Title: web::http::client::SocketContextFactory Pages: 1 -->
<svg width="230pt" height="193pt"
 viewBox="0.00 0.00 230.00 193.00" xmlns="http://www.w3.org/2000/svg" xmlns:xlink="http://www.w3.org/1999/xlink">

<svg id="main" version="1.1" xmlns="http://www.w3.org/2000/svg" xmlns:xlink="http://www.w3.org/1999/xlink" xml:space="preserve" onload="init(evt)">
<style type="text/css"><![CDATA[
.node, .edge {opacity: 0.7;}
.node.selected, .edge.selected {opacity: 1;}
.edge:hover path { stroke: red; }
.edge:hover polygon { stroke: red; fill: red; }
]]></style>
<script type="application/ecmascript" xlink:href="svg.min.js"/>
<svg id="graph" class="graph">
<g id="graph0" class="graph" transform="scale(1 1) rotate(0) translate(4 189)">
<title>web::http::client::SocketContextFactory</title>
<!-- Node1 -->
<g id="Node000001" class="node">
<title>Node1</title>
<g id="a_Node000001"><a xlink:title=" ">
<polygon fill="#999999" stroke="transparent" points="204,-30 96,-30 96,0 204,0 204,-30"/>
<text text-anchor="start" x="100.5" y="-18" font-family="Helvetica,sans-Serif" font-size="10.00">web::http::client::</text>
<text text-anchor="start" x="100.5" y="-7" font-family="Helvetica,sans-Serif" font-size="10.00">SocketContextFactory</text>
<polygon fill="none" stroke="#666666" points="96,0 96,-30 204,-30 204,0 96,0"/>
</a>
</g>
</g>
<!-- Node2 -->
<g id="Node000002" class="node">
<title>Node2</title>
<g id="a_Node000002"><a xlink:href="classweb_1_1http_1_1SocketContextFactory.html" target="_top" xlink:title=" ">
<polygon fill="white" stroke="transparent" points="120,-118 0,-118 0,-77 120,-77 120,-118"/>
<text text-anchor="start" x="4" y="-105.5" font-family="Helvetica,sans-Serif" font-size="10.00">web::http::SocketContext</text>
<text text-anchor="start" x="4" y="-94.5" font-family="Helvetica,sans-Serif" font-size="10.00">Factory&lt; web::http::client</text>
<text text-anchor="start" x="19.5" y="-83.5" font-family="Helvetica,sans-Serif" font-size="10.00">::SocketContext &gt;</text>
<polygon fill="none" stroke="#666666" points="0,-77 0,-118 120,-118 120,-77 0,-77"/>
</a>
</g>
</g>
<!-- Node2&#45;&gt;Node1 -->
<g id="edge1_Node000001_Node000002" class="edge">
<title>Node2&#45;&gt;Node1</title>
<g id="a_edge1_Node000001_Node000002"><a xlink:title=" ">
<path fill="none" stroke="#63b8ff" d="M89.74,-69.9C104.59,-56.61 121.96,-41.08 134.22,-30.12"/>
<polygon fill="none" stroke="#63b8ff" points="87.37,-67.33 82.25,-76.6 92.03,-72.54 87.37,-67.33"/>
</a>
</g>
</g>
<!-- Node3 -->
<g id="Node000003" class="node">
<title>Node3</title>
<g id="a_Node000003"><a xlink:href="classcore_1_1socket_1_1stream_1_1SocketContextFactory.html" target="_top" xlink:title=" ">
<polygon fill="white" stroke="transparent" points="117,-185 3,-185 3,-155 117,-155 117,-185"/>
<text text-anchor="start" x="7.5" y="-173" font-family="Helvetica,sans-Serif" font-size="10.00">core::socket::stream</text>
<text text-anchor="start" x="7.5" y="-162" font-family="Helvetica,sans-Serif" font-size="10.00">::SocketContextFactory</text>
<polygon fill="none" stroke="#666666" points="3,-155 3,-185 117,-185 117,-155 3,-155"/>
</a>
</g>
</g>
<!-- Node3&#45;&gt;Node2 -->
<g id="edge2_Node000002_Node000003" class="edge">
<title>Node3&#45;&gt;Node2</title>
<g id="a_edge2_Node000002_Node000003"><a xlink:title=" ">
<path fill="none" stroke="#63b8ff" d="M60,-144.48C60,-135.85 60,-126.26 60,-118.09"/>
<polygon fill="none" stroke="#63b8ff" points="56.5,-144.73 60,-154.73 63.5,-144.73 56.5,-144.73"/>
</a>
</g>
</g>
<!-- Node4 -->
<g id="Node000004" class="node">
<title>Node4</title>
<g id="a_Node000004"><a xlink:href="classweb_1_1http_1_1client_1_1ConfigHTTP.html" target="_top" xlink:title=" ">
<polygon fill="white" stroke="transparent" points="222,-112.5 138,-112.5 138,-82.5 222,-82.5 222,-112.5"/>
<text text-anchor="start" x="142" y="-100.5" font-family="Helvetica,sans-Serif" font-size="10.00">web::http::client::</text>
<text text-anchor="start" x="152.5" y="-89.5" font-family="Helvetica,sans-Serif" font-size="10.00">ConfigHTTP</text>
<polygon fill="none" stroke="#666666" points="138,-82.5 138,-112.5 222,-112.5 222,-82.5 138,-82.5"/>
</a>
</g>
</g>
<!-- Node4&#45;&gt;Node1 -->
<g id="edge3_Node000001_Node000004" class="edge">
<title>Node4&#45;&gt;Node1</title>
<g id="a_edge3_Node000001_Node000004"><a xlink:title=" ">
<path fill="none" stroke="#63b8ff" d="M174.77,-82.48C170.58,-71.23 164.59,-55.16 159.55,-41.63"/>
<polygon fill="none" stroke="#63b8ff" points="159.46,-41.38 153.61,-37.15 155.27,-30.13 161.11,-34.36 159.46,-41.38"/>
</a>
</g>
<text text-anchor="middle" x="191" y="-51" font-family="Helvetica,sans-Serif" font-size="10.00" fill="grey"> &#45;configHttp</text>
</g>
</g>
</svg>
</svg>

<style type='text/css'>
<![CDATA[
[data-mouse-over-selected='false'] { opacity: 0.7; }
[data-mouse-over-selected='true']  { opacity: 1.0; }
]]>
</style>
<script type="application/ecmascript"><![CDATA[
document.addEventListener('DOMContentLoaded', (event) => {
  highlightEdges();
  highlightAdjacentNodes();
});
]]></script>
</svg>
