<?xml version="1.0" encoding="UTF-8" standalone="no"?>
<!DOCTYPE svg PUBLIC "-//W3C//DTD SVG 1.1//EN"
 "http://www.w3.org/Graphics/SVG/1.1/DTD/svg11.dtd">
<!-- Generated by graphviz version 2.43.0 (0)
 -->
<!-- Title: web::http::server::SocketContext&lt; RequestT, ResponseT &gt;::RequestContext Pages: 1 -->
<svg width="328pt" height="337pt"
 viewBox="0.00 0.00 328.00 337.00" xmlns="http://www.w3.org/2000/svg" xmlns:xlink="http://www.w3.org/1999/xlink">
<g id="graph0" class="graph" transform="scale(1 1) rotate(0) translate(4 333)">
<title>web::http::server::SocketContext&lt; RequestT, ResponseT &gt;::RequestContext</title>
<!-- Node1 -->
<g id="Node000001" class="node">
<title>Node1</title>
<g id="a_Node000001"><a xlink:title=" ">
<polygon fill="#999999" stroke="transparent" points="160,-41 0,-41 0,0 160,0 160,-41"/>
<text text-anchor="start" x="4" y="-28.5" font-family="Helvetica,sans-Serif" font-size="10.00">web::http::server::</text>
<text text-anchor="start" x="4" y="-17.5" font-family="Helvetica,sans-Serif" font-size="10.00">SocketContext&lt; RequestT,</text>
<text text-anchor="start" x="4" y="-6.5" font-family="Helvetica,sans-Serif" font-size="10.00"> ResponseT &gt;::RequestContext</text>
<polygon fill="none" stroke="#666666" points="0,0 0,-41 160,-41 160,0 0,0"/>
</a>
</g>
</g>
<!-- Node2 -->
<g id="Node000002" class="node">
<title>Node2</title>
<g id="a_Node000002"><a xlink:href="classweb_1_1http_1_1server_1_1_request_context_base.html" target="_top" xlink:title=" ">
<polygon fill="white" stroke="transparent" points="136,-108 24,-108 24,-78 136,-78 136,-108"/>
<text text-anchor="start" x="28.5" y="-96" font-family="Helvetica,sans-Serif" font-size="10.00">web::http::server::</text>
<text text-anchor="start" x="28.5" y="-85" font-family="Helvetica,sans-Serif" font-size="10.00">RequestContextBase</text>
<polygon fill="none" stroke="#666666" points="24,-78 24,-108 136,-108 136,-78 24,-78"/>
</a>
</g>
</g>
<!-- Node2&#45;&gt;Node1 -->
<g id="edge1_Node000001_Node000002" class="edge">
<title>Node2&#45;&gt;Node1</title>
<g id="a_edge1_Node000001_Node000002"><a xlink:title=" ">
<path fill="none" stroke="#63b8ff" d="M80,-67.48C80,-58.85 80,-49.26 80,-41.09"/>
<polygon fill="none" stroke="#63b8ff" points="76.5,-67.73 80,-77.73 83.5,-67.73 76.5,-67.73"/>
</a>
</g>
</g>
<!-- Node3 -->
<g id="Node000003" class="node">
<title>Node3</title>
<g id="a_Node000003"><a xlink:href="classweb_1_1http_1_1_socket_context.html" target="_top" xlink:title=" ">
<polygon fill="white" stroke="transparent" points="146,-179.5 14,-179.5 14,-160.5 146,-160.5 146,-179.5"/>
<text text-anchor="start" x="18.5" y="-167" font-family="Helvetica,sans-Serif" font-size="10.00">web::http::SocketContext</text>
<polygon fill="none" stroke="#666666" points="14,-160.5 14,-179.5 146,-179.5 146,-160.5 14,-160.5"/>
</a>
</g>
</g>
<!-- Node3&#45;&gt;Node2 -->
<g id="edge2_Node000002_Node000003" class="edge">
<title>Node3&#45;&gt;Node2</title>
<g id="a_edge2_Node000002_Node000003"><a xlink:title=" ">
<path fill="none" stroke="#63b8ff" d="M80,-160.4C80,-150.72 80,-134.52 80,-120.54"/>
<polygon fill="none" stroke="#63b8ff" points="80,-120.11 76,-114.11 80,-108.11 84,-114.11 80,-120.11"/>
</a>
</g>
<text text-anchor="middle" x="118.5" y="-129" font-family="Helvetica,sans-Serif" font-size="10.00" fill="grey"> &#45;socketContext</text>
</g>
<!-- Node4 -->
<g id="Node000004" class="node">
<title>Node4</title>
<g id="a_Node000004"><a xlink:href="classcore_1_1socket_1_1stream_1_1_socket_context.html" target="_top" xlink:title=" ">
<polygon fill="white" stroke="transparent" points="167,-273 59,-273 59,-243 167,-243 167,-273"/>
<text text-anchor="start" x="63" y="-261" font-family="Helvetica,sans-Serif" font-size="10.00">core::socket::stream</text>
<text text-anchor="start" x="74.5" y="-250" font-family="Helvetica,sans-Serif" font-size="10.00">::SocketContext</text>
<polygon fill="none" stroke="#666666" points="59,-243 59,-273 167,-273 167,-243 59,-243"/>
</a>
</g>
</g>
<!-- Node4&#45;&gt;Node3 -->
<g id="edge3_Node000003_Node000004" class="edge">
<title>Node4&#45;&gt;Node3</title>
<g id="a_edge3_Node000003_Node000004"><a xlink:title=" ">
<path fill="none" stroke="#63b8ff" d="M98.25,-233.87C96.69,-230.95 95.23,-227.95 94,-225 87.59,-209.62 83.48,-190.53 81.46,-179.66"/>
<polygon fill="none" stroke="#63b8ff" points="95.37,-235.88 103.4,-242.8 101.43,-232.39 95.37,-235.88"/>
</a>
</g>
</g>
<!-- Node6 -->
<g id="Node000006" class="node">
<title>Node6</title>
<g id="a_Node000006"><a xlink:href="classcore_1_1socket_1_1stream_1_1_socket_connection.html" target="_top" xlink:title=" ">
<polygon fill="white" stroke="transparent" points="282,-185 174,-185 174,-155 282,-155 282,-185"/>
<text text-anchor="start" x="178" y="-173" font-family="Helvetica,sans-Serif" font-size="10.00">core::socket::stream</text>
<text text-anchor="start" x="181" y="-162" font-family="Helvetica,sans-Serif" font-size="10.00">::SocketConnection</text>
<polygon fill="none" stroke="#666666" points="174,-155 174,-185 282,-185 282,-155 174,-155"/>
</a>
</g>
</g>
<!-- Node4&#45;&gt;Node6 -->
<g id="edge6_Node000006_Node000004" class="edge">
<title>Node4&#45;&gt;Node6</title>
<g id="a_edge6_Node000006_Node000004"><a xlink:title=" ">
<path fill="none" stroke="#63b8ff" d="M107.48,-242.65C103.94,-230.8 101.44,-214.19 110,-203 113.63,-198.25 136.92,-191.49 161.86,-185.4"/>
<polygon fill="none" stroke="#63b8ff" points="162.09,-185.34 167,-180.06 173.76,-182.57 168.85,-187.85 162.09,-185.34"/>
</a>
</g>
<text text-anchor="middle" x="161.5" y="-217" font-family="Helvetica,sans-Serif" font-size="10.00" fill="grey"> #newSocketContext</text>
<text text-anchor="middle" x="161.5" y="-206" font-family="Helvetica,sans-Serif" font-size="10.00" fill="grey">#socketContext</text>
</g>
<!-- Node5 -->
<g id="Node000005" class="node">
<title>Node5</title>
<g id="a_Node000005"><a xlink:href="classcore_1_1socket_1_1_socket_context.html" target="_top" xlink:title=" ">
<polygon fill="white" stroke="transparent" points="185,-329 41,-329 41,-310 185,-310 185,-329"/>
<text text-anchor="start" x="45" y="-316.5" font-family="Helvetica,sans-Serif" font-size="10.00">core::socket::SocketContext</text>
<polygon fill="none" stroke="#666666" points="41,-310 41,-329 185,-329 185,-310 41,-310"/>
</a>
</g>
</g>
<!-- Node5&#45;&gt;Node4 -->
<g id="edge4_Node000004_Node000005" class="edge">
<title>Node5&#45;&gt;Node4</title>
<g id="a_edge4_Node000004_Node000005"><a xlink:title=" ">
<path fill="none" stroke="#63b8ff" d="M113,-299.73C113,-291.09 113,-281 113,-273.02"/>
<polygon fill="none" stroke="#63b8ff" points="109.5,-299.98 113,-309.98 116.5,-299.98 109.5,-299.98"/>
</a>
</g>
</g>
<!-- Node6&#45;&gt;Node4 -->
<g id="edge5_Node000004_Node000006" class="edge">
<title>Node6&#45;&gt;Node4</title>
<g id="a_edge5_Node000004_Node000006"><a xlink:title=" ">
<path fill="none" stroke="#63b8ff" d="M228.87,-185.16C228.82,-197.21 226.77,-214.23 217,-225 206.89,-236.15 192.99,-243.46 178.65,-248.24"/>
<polygon fill="none" stroke="#63b8ff" points="178.65,-248.24 173.98,-253.74 167.11,-251.56 171.77,-246.05 178.65,-248.24"/>
</a>
</g>
<text text-anchor="middle" x="273" y="-211.5" font-family="Helvetica,sans-Serif" font-size="10.00" fill="grey"> &#45;socketConnection</text>
</g>
</g>
</svg>
