<?xml version="1.0" encoding="UTF-8" standalone="no"?>
<!DOCTYPE svg PUBLIC "-//W3C//DTD SVG 1.1//EN"
 "http://www.w3.org/Graphics/SVG/1.1/DTD/svg11.dtd">
<!-- Generated by graphviz version 14.1.2 (0)
 -->
<!-- Title: web::http::server::RequestParser::parseStartLine Pages: 1 -->
<svg width="532pt" height="171pt"
 viewBox="0.00 0.00 532.00 171.00" xmlns="http://www.w3.org/2000/svg" xmlns:xlink="http://www.w3.org/1999/xlink">
<g id="graph0" class="graph" transform="scale(1 1) rotate(0) translate(4 167.12)">
<title>web::http::server::RequestParser::parseStartLine</title>
<!-- Node1 -->
<g id="Node000001" class="node">
<title>Node1</title>
<g id="a_Node000001"><a xlink:title=" ">
<polygon fill="#999999" stroke="#666666" points="163,-88.12 0,-88.12 0,-54.62 163,-54.62 163,-88.12"/>
<text xml:space="preserve" text-anchor="start" x="8" y="-74.62" font-family="Helvetica,sans-Serif" font-size="10.00">web::http::server::</text>
<text xml:space="preserve" text-anchor="middle" x="81.5" y="-61.88" font-family="Helvetica,sans-Serif" font-size="10.00">RequestParser::parseStartLine</text>
</a>
</g>
</g>
<!-- Node2 -->
<g id="Node000002" class="node">
<title>Node2</title>
<g id="a_Node000002"><a xlink:href="classweb_1_1http_1_1server_1_1RequestParser.html#ab470f101e514af211a5380f40b49eb86" target="_top" xlink:title=" ">
<polygon fill="white" stroke="#666666" points="378.5,-163.12 199,-163.12 199,-129.62 378.5,-129.62 378.5,-163.12"/>
<text xml:space="preserve" text-anchor="start" x="207" y="-149.62" font-family="Helvetica,sans-Serif" font-size="10.00">web::http::server::</text>
<text xml:space="preserve" text-anchor="middle" x="288.75" y="-136.88" font-family="Helvetica,sans-Serif" font-size="10.00">RequestParser::methodSupported</text>
</a>
</g>
</g>
<!-- Node1&#45;&gt;Node2 -->
<g id="edge1_Node000001_Node000002" class="edge">
<title>Node1&#45;&gt;Node2</title>
<g id="a_edge1_Node000001_Node000002"><a xlink:title=" ">
<path fill="none" stroke="#63b8ff" d="M120.38,-88.59C142.96,-98.53 172.33,-110.89 199,-120.38 204.25,-122.24 209.72,-124.08 215.23,-125.87"/>
<polygon fill="#63b8ff" stroke="#63b8ff" points="213.84,-129.1 224.43,-128.77 215.95,-122.42 213.84,-129.1"/>
</a>
</g>
</g>
<!-- Node3 -->
<g id="Node000003" class="node">
<title>Node3</title>
<g id="a_Node000003"><a xlink:href="classweb_1_1http_1_1server_1_1RequestParser.html#a8b0b9cd8cbace4e2d0299232a6a84f98" target="_top" xlink:title=" ">
<polygon fill="white" stroke="#666666" points="360.12,-111.12 217.38,-111.12 217.38,-77.62 360.12,-77.62 360.12,-111.12"/>
<text xml:space="preserve" text-anchor="start" x="225.38" y="-97.62" font-family="Helvetica,sans-Serif" font-size="10.00">web::http::server::</text>
<text xml:space="preserve" text-anchor="middle" x="288.75" y="-84.88" font-family="Helvetica,sans-Serif" font-size="10.00">RequestParser::parseError</text>
</a>
</g>
</g>
<!-- Node1&#45;&gt;Node3 -->
<g id="edge2_Node000001_Node000003" class="edge">
<title>Node1&#45;&gt;Node3</title>
<g id="a_edge2_Node000001_Node000003"><a xlink:title=" ">
<path fill="none" stroke="#63b8ff" d="M163.33,-80.43C177.31,-82 191.86,-83.63 205.88,-85.2"/>
<polygon fill="#63b8ff" stroke="#63b8ff" points="205.15,-88.64 215.47,-86.28 205.93,-81.68 205.15,-88.64"/>
</a>
</g>
</g>
<!-- Node5 -->
<g id="Node000005" class="node">
<title>Node5</title>
<g id="a_Node000005"><a xlink:href="namespacehttputils.html#a9e46abe5c20380871f3884c9176a424d" target="_top" xlink:title=" ">
<polygon fill="white" stroke="#666666" points="339.5,-59.75 238,-59.75 238,-39 339.5,-39 339.5,-59.75"/>
<text xml:space="preserve" text-anchor="middle" x="288.75" y="-46.25" font-family="Helvetica,sans-Serif" font-size="10.00">httputils::str_split</text>
</a>
</g>
</g>
<!-- Node1&#45;&gt;Node5 -->
<g id="edge4_Node000001_Node000005" class="edge">
<title>Node1&#45;&gt;Node5</title>
<g id="a_edge4_Node000001_Node000005"><a xlink:title=" ">
<path fill="none" stroke="#63b8ff" d="M163.33,-62.71C184.33,-60.46 206.61,-58.07 226.43,-55.95"/>
<polygon fill="#63b8ff" stroke="#63b8ff" points="226.71,-59.44 236.28,-54.89 225.97,-52.48 226.71,-59.44"/>
</a>
</g>
</g>
<!-- Node6 -->
<g id="Node000006" class="node">
<title>Node6</title>
<g id="a_Node000006"><a xlink:href="namespacehttputils.html#a818b4991d32a494fb64a2f7cf1b25087" target="_top" xlink:title=" ">
<polygon fill="white" stroke="#666666" points="346.62,-20.75 230.88,-20.75 230.88,0 346.62,0 346.62,-20.75"/>
<text xml:space="preserve" text-anchor="middle" x="288.75" y="-7.25" font-family="Helvetica,sans-Serif" font-size="10.00">httputils::url_decode</text>
</a>
</g>
</g>
<!-- Node1&#45;&gt;Node6 -->
<g id="edge5_Node000001_Node000006" class="edge">
<title>Node1&#45;&gt;Node6</title>
<g id="a_edge5_Node000001_Node000006"><a xlink:title=" ">
<path fill="none" stroke="#63b8ff" d="M127.47,-54.17C148.94,-46.31 175.1,-37.25 199,-30.38 207.02,-28.07 215.51,-25.86 223.94,-23.81"/>
<polygon fill="#63b8ff" stroke="#63b8ff" points="224.53,-27.27 233.46,-21.56 222.92,-20.46 224.53,-27.27"/>
</a>
</g>
</g>
<!-- Node4 -->
<g id="Node000004" class="node">
<title>Node4</title>
<g id="a_Node000004"><a xlink:href="classweb_1_1http_1_1Parser.html#a833eceec5f259e1ffc2096c1fbc1cb6f" target="_top" xlink:title=" ">
<polygon fill="white" stroke="#666666" points="521.25,-111.12 416.75,-111.12 416.75,-77.62 521.25,-77.62 521.25,-111.12"/>
<text xml:space="preserve" text-anchor="start" x="424.75" y="-97.62" font-family="Helvetica,sans-Serif" font-size="10.00">web::http::Parser::</text>
<text xml:space="preserve" text-anchor="middle" x="469" y="-84.88" font-family="Helvetica,sans-Serif" font-size="10.00">reset</text>
</a>
</g>
</g>
<!-- Node3&#45;&gt;Node4 -->
<g id="edge3_Node000003_Node000004" class="edge">
<title>Node3&#45;&gt;Node4</title>
<g id="a_edge3_Node000003_Node000004"><a xlink:title=" ">
<path fill="none" stroke="#63b8ff" d="M360.46,-94.38C375.18,-94.38 390.61,-94.38 405.03,-94.38"/>
<polygon fill="#63b8ff" stroke="#63b8ff" points="404.84,-97.88 414.84,-94.38 404.84,-90.88 404.84,-97.88"/>
</a>
</g>
</g>
<!-- Node7 -->
<g id="Node000007" class="node">
<title>Node7</title>
<g id="a_Node000007"><a xlink:href="namespacehttputils.html#a2162ee901d7b1ac5f0fdb0dcbbd2d350" target="_top" xlink:title=" ">
<polygon fill="white" stroke="#666666" points="523.5,-20.75 414.5,-20.75 414.5,0 523.5,0 523.5,-20.75"/>
<text xml:space="preserve" text-anchor="middle" x="469" y="-7.25" font-family="Helvetica,sans-Serif" font-size="10.00">httputils::from_hex</text>
</a>
</g>
</g>
<!-- Node6&#45;&gt;Node7 -->
<g id="edge6_Node000006_Node000007" class="edge">
<title>Node6&#45;&gt;Node7</title>
<g id="a_edge6_Node000006_Node000007"><a xlink:title=" ">
<path fill="none" stroke="#63b8ff" d="M346.64,-10.38C364.44,-10.38 384.23,-10.38 402.57,-10.38"/>
<polygon fill="#63b8ff" stroke="#63b8ff" points="402.56,-13.88 412.56,-10.38 402.56,-6.88 402.56,-13.88"/>
</a>
</g>
</g>
</g>
</svg>
