<?xml version="1.0" encoding="UTF-8" standalone="no"?>
<!DOCTYPE svg PUBLIC "-//W3C//DTD SVG 1.1//EN"
 "http://www.w3.org/Graphics/SVG/1.1/DTD/svg11.dtd">
<!-- Generated by graphviz version 14.1.1 (0)
 -->
<!-- Title: web::http::client::commands::SseCommand Pages: 1 -->
<svg width="144pt" height="111pt"
 viewBox="0.00 0.00 144.00 111.00" xmlns="http://www.w3.org/2000/svg" xmlns:xlink="http://www.w3.org/1999/xlink">
<g id="graph0" class="graph" transform="scale(1 1) rotate(0) translate(4 107)">
<title>web::http::client::commands::SseCommand</title>
<!-- Node1 -->
<g id="Node000001" class="node">
<title>Node1</title>
<g id="a_Node000001"><a xlink:title=" ">
<polygon fill="#999999" stroke="none" points="135.5,-33.5 0,-33.5 0,0 135.5,0 135.5,-33.5"/>
<text xml:space="preserve" text-anchor="start" x="4" y="-20" font-family="Helvetica,sans-Serif" font-size="10.00">web::http::client::</text>
<text xml:space="preserve" text-anchor="start" x="4" y="-7.25" font-family="Helvetica,sans-Serif" font-size="10.00">commands::SseCommand</text>
<polygon fill="none" stroke="#666666" points="0,0 0,-33.5 135.5,-33.5 135.5,0 0,0"/>
</a>
</g>
</g>
<!-- Node2 -->
<g id="Node000002" class="node">
<title>Node2</title>
<g id="a_Node000002"><a xlink:href="classweb_1_1http_1_1client_1_1RequestCommand.html" target="_top" xlink:title=" ">
<polygon fill="white" stroke="none" points="116.75,-103 18.75,-103 18.75,-69.5 116.75,-69.5 116.75,-103"/>
<text xml:space="preserve" text-anchor="start" x="22.75" y="-89.5" font-family="Helvetica,sans-Serif" font-size="10.00">web::http::client::</text>
<text xml:space="preserve" text-anchor="start" x="22.75" y="-76.75" font-family="Helvetica,sans-Serif" font-size="10.00">RequestCommand</text>
<polygon fill="none" stroke="#666666" points="18.75,-69.5 18.75,-103 116.75,-103 116.75,-69.5 18.75,-69.5"/>
</a>
</g>
</g>
<!-- Node2&#45;&gt;Node1 -->
<g id="edge1_Node000001_Node000002" class="edge">
<title>Node2&#45;&gt;Node1</title>
<g id="a_edge1_Node000001_Node000002"><a xlink:title=" ">
<path fill="none" stroke="#63b8ff" d="M67.75,-58.25C67.75,-49.78 67.75,-40.72 67.75,-33.32"/>
<polygon fill="none" stroke="#63b8ff" points="64.25,-58.08 67.75,-68.08 71.25,-58.08 64.25,-58.08"/>
</a>
</g>
</g>
</g>
</svg>
