<?xml version="1.0" encoding="UTF-8" standalone="no"?>
<!DOCTYPE svg PUBLIC "-//W3C//DTD SVG 1.1//EN"
 "http://www.w3.org/Graphics/SVG/1.1/DTD/svg11.dtd">
<!-- Generated by graphviz version 2.43.0 (0)
 -->
<!-- Title: iot::mqtt::packets::Suback Pages: 1 -->
<svg width="396pt" height="237pt"
 viewBox="0.00 0.00 396.00 237.00" xmlns="http://www.w3.org/2000/svg" xmlns:xlink="http://www.w3.org/1999/xlink">
<g id="graph0" class="graph" transform="scale(1 1) rotate(0) translate(4 233)">
<title>iot::mqtt::packets::Suback</title>
<!-- Node1 -->
<g id="Node000001" class="node">
<title>Node1</title>
<g id="a_Node000001"><a xlink:title=" ">
<polygon fill="#999999" stroke="transparent" points="230,-30 144,-30 144,0 230,0 230,-30"/>
<text text-anchor="start" x="148.5" y="-18" font-family="Helvetica,sans-Serif" font-size="10.00">iot::mqtt::packets</text>
<text text-anchor="start" x="167" y="-7" font-family="Helvetica,sans-Serif" font-size="10.00">::Suback</text>
<polygon fill="none" stroke="#666666" points="144,0 144,-30 230,-30 230,0 144,0"/>
</a>
</g>
</g>
<!-- Node2 -->
<g id="Node000002" class="node">
<title>Node2</title>
<g id="a_Node000002"><a xlink:href="classiot_1_1mqtt_1_1ControlPacket.html" target="_top" xlink:title=" ">
<polygon fill="white" stroke="transparent" points="114,-96 0,-96 0,-77 114,-77 114,-96"/>
<text text-anchor="start" x="4.5" y="-83.5" font-family="Helvetica,sans-Serif" font-size="10.00">iot::mqtt::ControlPacket</text>
<polygon fill="none" stroke="#666666" points="0,-77 0,-96 114,-96 114,-77 0,-77"/>
</a>
</g>
</g>
<!-- Node2&#45;&gt;Node1 -->
<g id="edge1_Node000001_Node000002" class="edge">
<title>Node2&#45;&gt;Node1</title>
<g id="a_edge1_Node000001_Node000002"><a xlink:title=" ">
<path fill="none" stroke="#63b8ff" d="M81.89,-72.19C104.44,-60.14 137.54,-42.44 160.56,-30.14"/>
<polygon fill="none" stroke="#63b8ff" points="80.11,-69.18 72.94,-76.98 83.41,-75.35 80.11,-69.18"/>
</a>
</g>
</g>
<!-- Node3 -->
<g id="Node000003" class="node">
<title>Node3</title>
<g id="a_Node000003"><a xlink:href="classiot_1_1mqtt_1_1types_1_1UInt16.html" target="_top" xlink:title=" ">
<polygon fill="white" stroke="transparent" points="242,-96 132,-96 132,-77 242,-77 242,-96"/>
<text text-anchor="start" x="136" y="-83.5" font-family="Helvetica,sans-Serif" font-size="10.00">iot::mqtt::types::UInt16</text>
<polygon fill="none" stroke="#666666" points="132,-77 132,-96 242,-96 242,-77 132,-77"/>
</a>
</g>
</g>
<!-- Node3&#45;&gt;Node1 -->
<g id="edge2_Node000001_Node000003" class="edge">
<title>Node3&#45;&gt;Node1</title>
<g id="a_edge2_Node000001_Node000003"><a xlink:title=" ">
<path fill="none" stroke="#63b8ff" d="M187,-76.98C187,-68.41 187,-54.75 187,-42.52"/>
<polygon fill="none" stroke="#63b8ff" points="187,-42.14 183,-36.14 187,-30.14 191,-36.14 187,-42.14"/>
</a>
</g>
<text text-anchor="middle" x="225" y="-51" font-family="Helvetica,sans-Serif" font-size="10.00" fill="grey"> #packetIdentifier</text>
</g>
<!-- Node4 -->
<g id="Node000004" class="node">
<title>Node4</title>
<g id="a_Node000004"><a xlink:href="classiot_1_1mqtt_1_1types_1_1TypeBase.html" target="_top" xlink:title=" ">
<polygon fill="white" stroke="transparent" points="246,-163 122,-163 122,-133 246,-133 246,-163"/>
<text text-anchor="start" x="126" y="-151" font-family="Helvetica,sans-Serif" font-size="10.00">iot::mqtt::types::TypeBase</text>
<text text-anchor="start" x="157.5" y="-140" font-family="Helvetica,sans-Serif" font-size="10.00">&lt; uint16_t &gt;</text>
<polygon fill="none" stroke="#666666" points="122,-133 122,-163 246,-163 246,-133 122,-133"/>
</a>
</g>
</g>
<!-- Node4&#45;&gt;Node3 -->
<g id="edge3_Node000003_Node000004" class="edge">
<title>Node4&#45;&gt;Node3</title>
<g id="a_edge3_Node000003_Node000004"><a xlink:title=" ">
<path fill="none" stroke="#63b8ff" d="M185.22,-122.79C185.7,-113.36 186.21,-103.15 186.56,-96.16"/>
<polygon fill="none" stroke="#63b8ff" points="181.72,-122.74 184.71,-132.9 188.71,-123.09 181.72,-122.74"/>
</a>
</g>
</g>
<!-- Node5 -->
<g id="Node000005" class="node">
<title>Node5</title>
<g id="a_Node000005"><a xlink:title=" ">
<polygon fill="white" stroke="transparent" points="300,-229 208,-229 208,-210 300,-210 300,-229"/>
<text text-anchor="start" x="212" y="-216.5" font-family="Helvetica,sans-Serif" font-size="10.00">std::vector&lt; char &gt;</text>
<polygon fill="none" stroke="#666666" points="208,-210 208,-229 300,-229 300,-210 208,-210"/>
</a>
</g>
</g>
<!-- Node5&#45;&gt;Node4 -->
<g id="edge4_Node000004_Node000005" class="edge">
<title>Node5&#45;&gt;Node4</title>
<g id="a_edge4_Node000004_Node000005"><a xlink:title=" ">
<path fill="none" stroke="#63b8ff" d="M245.42,-209.98C235.87,-200.49 220.04,-184.78 206.84,-171.68"/>
<polygon fill="none" stroke="#63b8ff" points="206.76,-171.59 199.68,-170.2 198.24,-163.14 205.32,-164.53 206.76,-171.59"/>
</a>
</g>
<text text-anchor="middle" x="242" y="-184" font-family="Helvetica,sans-Serif" font-size="10.00" fill="grey"> #value</text>
</g>
<!-- Node7 -->
<g id="Node000007" class="node">
<title>Node7</title>
<g id="a_Node000007"><a xlink:href="classiot_1_1mqtt_1_1types_1_1TypeBase.html" target="_top" xlink:title=" ">
<polygon fill="white" stroke="transparent" points="388,-163 264,-163 264,-133 388,-133 388,-163"/>
<text text-anchor="start" x="268" y="-151" font-family="Helvetica,sans-Serif" font-size="10.00">iot::mqtt::types::TypeBase</text>
<text text-anchor="start" x="302" y="-140" font-family="Helvetica,sans-Serif" font-size="10.00">&lt; uint8_t &gt;</text>
<polygon fill="none" stroke="#666666" points="264,-133 264,-163 388,-163 388,-133 264,-133"/>
</a>
</g>
</g>
<!-- Node5&#45;&gt;Node7 -->
<g id="edge7_Node000007_Node000005" class="edge">
<title>Node5&#45;&gt;Node7</title>
<g id="a_edge7_Node000007_Node000005"><a xlink:title=" ">
<path fill="none" stroke="#63b8ff" d="M262.83,-209.98C272.65,-200.49 288.93,-184.78 302.5,-171.68"/>
<polygon fill="none" stroke="#63b8ff" points="302.72,-171.47 304.26,-164.43 311.35,-163.14 309.81,-170.18 302.72,-171.47"/>
</a>
</g>
<text text-anchor="middle" x="309" y="-184" font-family="Helvetica,sans-Serif" font-size="10.00" fill="grey"> #value</text>
</g>
<!-- Node6 -->
<g id="Node000006" class="node">
<title>Node6</title>
<g id="a_Node000006"><a xlink:href="classiot_1_1mqtt_1_1types_1_1UInt8.html" target="_top" xlink:title=" ">
<polygon fill="white" stroke="transparent" points="374,-96 268,-96 268,-77 374,-77 374,-96"/>
<text text-anchor="start" x="272.5" y="-83.5" font-family="Helvetica,sans-Serif" font-size="10.00">iot::mqtt::types::UInt8</text>
<polygon fill="none" stroke="#666666" points="268,-77 268,-96 374,-96 374,-77 268,-77"/>
</a>
</g>
</g>
<!-- Node6&#45;&gt;Node1 -->
<g id="edge5_Node000001_Node000006" class="edge">
<title>Node6&#45;&gt;Node1</title>
<g id="a_edge5_Node000001_Node000006"><a xlink:title=" ">
<path fill="none" stroke="#63b8ff" d="M310.3,-76.98C299.73,-68.83 282.88,-56.55 267,-48 258.01,-43.16 248.12,-38.62 238.45,-34.58"/>
<polygon fill="none" stroke="#63b8ff" points="238.4,-34.56 231.34,-36.02 227.28,-30.06 234.34,-28.6 238.4,-34.56"/>
</a>
</g>
<text text-anchor="middle" x="313.5" y="-51" font-family="Helvetica,sans-Serif" font-size="10.00" fill="grey"> #returnCode</text>
</g>
<!-- Node7&#45;&gt;Node6 -->
<g id="edge6_Node000006_Node000007" class="edge">
<title>Node7&#45;&gt;Node6</title>
<g id="a_edge6_Node000006_Node000007"><a xlink:title=" ">
<path fill="none" stroke="#63b8ff" d="M323.97,-122.79C323.17,-113.36 322.32,-103.15 321.73,-96.16"/>
<polygon fill="none" stroke="#63b8ff" points="320.49,-123.23 324.82,-132.9 327.47,-122.64 320.49,-123.23"/>
</a>
</g>
</g>
</g>
</svg>
