<?xml version="1.0" encoding="UTF-8" standalone="no"?>
<!DOCTYPE svg PUBLIC "-//W3C//DTD SVG 1.1//EN"
 "http://www.w3.org/Graphics/SVG/1.1/DTD/svg11.dtd">
<!-- Generated by graphviz version 14.1.2 (0)
 -->
<!-- Title: apps::towercalculator::TowerCalculator Pages: 1 -->
<svg width="1421pt" height="638pt"
 viewBox="0.00 0.00 1421.00 638.00" xmlns="http://www.w3.org/2000/svg" xmlns:xlink="http://www.w3.org/1999/xlink">
<g id="graph0" class="graph" transform="scale(1 1) rotate(0) translate(4 634)">
<title>apps::towercalculator::TowerCalculator</title>
<!-- Node1 -->
<g id="Node000001" class="node">
<title>Node1</title>
<g id="a_Node000001"><a xlink:title=" ">
<polygon fill="#999999" stroke="none" points="113,-521 0,-521 0,-487.5 113,-487.5 113,-521"/>
<text xml:space="preserve" text-anchor="start" x="4" y="-507.5" font-family="Helvetica,sans-Serif" font-size="10.00">apps::towercalculator</text>
<text xml:space="preserve" text-anchor="start" x="14.5" y="-494.75" font-family="Helvetica,sans-Serif" font-size="10.00">::TowerCalculator</text>
<polygon fill="none" stroke="#666666" points="0,-487.5 0,-521 113,-521 113,-487.5 0,-487.5"/>
</a>
</g>
</g>
<!-- Node2 -->
<g id="Node000002" class="node">
<title>Node2</title>
<g id="a_Node000002"><a xlink:href="classcore_1_1EventReceiver.html" target="_top" xlink:title=" ">
<polygon fill="white" stroke="none" points="298.25,-630 192.75,-630 192.75,-609.25 298.25,-609.25 298.25,-630"/>
<text xml:space="preserve" text-anchor="start" x="196.75" y="-616.5" font-family="Helvetica,sans-Serif" font-size="10.00">core::EventReceiver</text>
<polygon fill="none" stroke="#666666" points="192.75,-609.25 192.75,-630 298.25,-630 298.25,-609.25 192.75,-609.25"/>
</a>
</g>
</g>
<!-- Node2&#45;&gt;Node1 -->
<g id="edge1_Node000001_Node000002" class="edge">
<title>Node2&#45;&gt;Node1</title>
<g id="a_edge1_Node000001_Node000002"><a xlink:title=" ">
<path fill="none" stroke="#63b8ff" d="M181.82,-613.06C164.16,-609.06 145.91,-602.37 131.5,-591.25 110.64,-575.15 120.87,-558.81 103.5,-539 97.54,-532.2 89.96,-526.01 82.64,-520.84"/>
<polygon fill="none" stroke="#63b8ff" points="181.01,-616.47 191.5,-614.98 182.37,-609.6 181.01,-616.47"/>
</a>
</g>
</g>
<!-- Node3 -->
<g id="Node000003" class="node">
<title>Node3</title>
<g id="a_Node000003"><a xlink:href="classcore_1_1Event.html" target="_top" xlink:title=" ">
<polygon fill="white" stroke="none" points="276.88,-295.88 214.12,-295.88 214.12,-275.12 276.88,-275.12 276.88,-295.88"/>
<text xml:space="preserve" text-anchor="start" x="218.12" y="-282.38" font-family="Helvetica,sans-Serif" font-size="10.00">core::Event</text>
<polygon fill="none" stroke="#666666" points="214.12,-275.12 214.12,-295.88 276.88,-295.88 276.88,-275.12 214.12,-275.12"/>
</a>
</g>
</g>
<!-- Node2&#45;&gt;Node3 -->
<g id="edge5_Node000003_Node000002" class="edge">
<title>Node2&#45;&gt;Node3</title>
<g id="a_edge5_Node000003_Node000002"><a xlink:title=" ">
<path fill="none" stroke="#63b8ff" d="M237.87,-609.27C220.15,-586.86 176.53,-527.59 161.25,-469.5 144.55,-405.98 197.67,-337.19 227.18,-305.03"/>
<polygon fill="none" stroke="#63b8ff" points="227.26,-304.95 228.49,-297.84 235.52,-296.24 234.29,-303.35 227.26,-304.95"/>
</a>
</g>
<text xml:space="preserve" text-anchor="start" x="164.25" y="-457" font-family="Helvetica,sans-Serif" font-size="10.00" fill="grey">&#45;eventReceiver</text>
</g>
<!-- Node11 -->
<g id="Node000011" class="node">
<title>Node11</title>
<g id="a_Node000011"><a xlink:href="classcore_1_1DescriptorEventReceiver.html" target="_top" xlink:title=" ">
<polygon fill="white" stroke="none" points="739.38,-514.62 583.62,-514.62 583.62,-493.88 739.38,-493.88 739.38,-514.62"/>
<text xml:space="preserve" text-anchor="start" x="587.62" y="-501.12" font-family="Helvetica,sans-Serif" font-size="10.00">core::DescriptorEventReceiver</text>
<polygon fill="none" stroke="#666666" points="583.62,-493.88 583.62,-514.62 739.38,-514.62 739.38,-493.88 583.62,-493.88"/>
</a>
</g>
</g>
<!-- Node2&#45;&gt;Node11 -->
<g id="edge13_Node000011_Node000002" class="edge">
<title>Node2&#45;&gt;Node11</title>
<g id="a_edge13_Node000011_Node000002"><a xlink:title=" ">
<path fill="none" stroke="#63b8ff" d="M290.86,-606.26C374.82,-583.38 552.68,-534.91 627.35,-514.56"/>
<polygon fill="none" stroke="#63b8ff" points="290.09,-602.85 281.36,-608.85 291.93,-609.6 290.09,-602.85"/>
</a>
</g>
</g>
<!-- Node17 -->
<g id="Node000017" class="node">
<title>Node17</title>
<g id="a_Node000017"><a xlink:href="classcore_1_1TimerEventReceiver.html" target="_top" xlink:title=" ">
<polygon fill="white" stroke="none" points="954.12,-514.62 820.88,-514.62 820.88,-493.88 954.12,-493.88 954.12,-514.62"/>
<text xml:space="preserve" text-anchor="start" x="824.88" y="-501.12" font-family="Helvetica,sans-Serif" font-size="10.00">core::TimerEventReceiver</text>
<polygon fill="none" stroke="#666666" points="820.88,-493.88 820.88,-514.62 954.12,-514.62 954.12,-493.88 820.88,-493.88"/>
</a>
</g>
</g>
<!-- Node2&#45;&gt;Node17 -->
<g id="edge22_Node000017_Node000002" class="edge">
<title>Node2&#45;&gt;Node17</title>
<g id="a_edge22_Node000017_Node000002"><a xlink:title=" ">
<path fill="none" stroke="#63b8ff" d="M309.29,-611.57C349.86,-606.72 403.43,-599.65 450.5,-591.25 554.98,-572.6 579.33,-559.28 683.5,-539 730.89,-529.77 784.8,-520.93 825.29,-514.61"/>
<polygon fill="none" stroke="#63b8ff" points="308.96,-608.08 299.44,-612.73 309.78,-615.04 308.96,-608.08"/>
</a>
</g>
</g>
<!-- Node3&#45;&gt;Node2 -->
<g id="edge2_Node000002_Node000003" class="edge">
<title>Node3&#45;&gt;Node2</title>
<g id="a_edge2_Node000002_Node000003"><a xlink:title=" ">
<path fill="none" stroke="#63b8ff" d="M245.5,-295.84C245.5,-340.31 245.5,-531.11 245.5,-596.52"/>
<polygon fill="none" stroke="#63b8ff" points="245.5,-596.49 249.5,-602.49 245.5,-608.49 241.5,-602.49 245.5,-596.49"/>
</a>
</g>
<text xml:space="preserve" text-anchor="start" x="248.5" y="-457" font-family="Helvetica,sans-Serif" font-size="10.00" fill="grey">&#45;event</text>
</g>
<!-- Node21 -->
<g id="Node000021" class="node">
<title>Node21</title>
<g id="a_Node000021"><a xlink:title=" ">
<polygon fill="white" stroke="none" points="273.25,-201.25 143.75,-201.25 143.75,-180.5 273.25,-180.5 273.25,-201.25"/>
<text xml:space="preserve" text-anchor="start" x="147.75" y="-187.75" font-family="Helvetica,sans-Serif" font-size="10.00">std::list&lt; core::Event * &gt;</text>
<polygon fill="none" stroke="#666666" points="143.75,-180.5 143.75,-201.25 273.25,-201.25 273.25,-180.5 143.75,-180.5"/>
</a>
</g>
</g>
<!-- Node3&#45;&gt;Node21 -->
<g id="edge31_Node000021_Node000003" class="edge">
<title>Node3&#45;&gt;Node21</title>
<g id="a_edge31_Node000021_Node000003"><a xlink:title=" ">
<path fill="none" stroke="#63b8ff" d="M241.82,-275.28C236.05,-260.85 224.76,-232.57 216.93,-212.97"/>
<polygon fill="none" stroke="#63b8ff" points="216.95,-213.04 211.01,-208.95 212.5,-201.89 218.44,-205.98 216.95,-213.04"/>
</a>
</g>
<text xml:space="preserve" text-anchor="start" x="228.89" y="-225.5" font-family="Helvetica,sans-Serif" font-size="10.00" fill="grey">+elements</text>
</g>
<!-- Node4 -->
<g id="Node000004" class="node">
<title>Node4</title>
<g id="a_Node000004"><a xlink:title=" ">
<polygon fill="white" stroke="none" points="354.88,-420 298.12,-420 298.12,-399.25 354.88,-399.25 354.88,-420"/>
<text xml:space="preserve" text-anchor="start" x="302.12" y="-406.5" font-family="Helvetica,sans-Serif" font-size="10.00">std::string</text>
<polygon fill="none" stroke="#666666" points="298.12,-399.25 298.12,-420 354.88,-420 354.88,-399.25 298.12,-399.25"/>
</a>
</g>
</g>
<!-- Node4&#45;&gt;Node3 -->
<g id="edge3_Node000003_Node000004" class="edge">
<title>Node4&#45;&gt;Node3</title>
<g id="a_edge3_Node000003_Node000004"><a xlink:title=" ">
<path fill="none" stroke="#63b8ff" d="M312.77,-399.44C302.61,-392.06 289.03,-380.92 280,-368.5 266.6,-350.06 257.18,-325.62 251.61,-308.23"/>
<polygon fill="none" stroke="#63b8ff" points="251.59,-308.17 246.04,-303.57 248.15,-296.68 253.7,-301.28 251.59,-308.17"/>
</a>
</g>
<text xml:space="preserve" text-anchor="start" x="283" y="-347.62" font-family="Helvetica,sans-Serif" font-size="10.00" fill="grey">&#45;name</text>
</g>
<!-- Node8 -->
<g id="Node000008" class="node">
<title>Node8</title>
<g id="a_Node000008"><a xlink:href="classcore_1_1DescriptorEventPublisher.html" target="_top" xlink:title=" ">
<polygon fill="white" stroke="none" points="509.5,-201.25 351.5,-201.25 351.5,-180.5 509.5,-180.5 509.5,-201.25"/>
<text xml:space="preserve" text-anchor="start" x="355.5" y="-187.75" font-family="Helvetica,sans-Serif" font-size="10.00">core::DescriptorEventPublisher</text>
<polygon fill="none" stroke="#666666" points="351.5,-180.5 351.5,-201.25 509.5,-201.25 509.5,-180.5 351.5,-180.5"/>
</a>
</g>
</g>
<!-- Node4&#45;&gt;Node8 -->
<g id="edge16_Node000008_Node000004" class="edge">
<title>Node4&#45;&gt;Node8</title>
<g id="a_edge16_Node000008_Node000004"><a xlink:title=" ">
<path fill="none" stroke="#63b8ff" d="M324.84,-399.6C320.76,-374.75 312.45,-303.98 340,-256 352.69,-233.91 376.43,-217.53 396.41,-206.85"/>
<polygon fill="none" stroke="#63b8ff" points="396.4,-206.86 399.97,-200.59 407.13,-201.49 403.55,-207.75 396.4,-206.86"/>
</a>
</g>
<text xml:space="preserve" text-anchor="start" x="343" y="-282.38" font-family="Helvetica,sans-Serif" font-size="10.00" fill="grey">&#45;name</text>
</g>
<!-- Node5 -->
<g id="Node000005" class="node">
<title>Node5</title>
<g id="a_Node000005"><a xlink:title=" ">
<polygon fill="white" stroke="none" points="374.38,-521 278.62,-521 278.62,-487.5 374.38,-487.5 374.38,-521"/>
<text xml:space="preserve" text-anchor="start" x="282.62" y="-507.5" font-family="Helvetica,sans-Serif" font-size="10.00">std::basic_string&lt;</text>
<text xml:space="preserve" text-anchor="start" x="308.12" y="-494.75" font-family="Helvetica,sans-Serif" font-size="10.00"> Char &gt;</text>
<polygon fill="none" stroke="#666666" points="278.62,-487.5 278.62,-521 374.38,-521 374.38,-487.5 278.62,-487.5"/>
</a>
</g>
</g>
<!-- Node5&#45;&gt;Node4 -->
<g id="edge4_Node000004_Node000005" class="edge">
<title>Node5&#45;&gt;Node4</title>
<g id="a_edge4_Node000004_Node000005"><a xlink:title=" ">
<path fill="none" stroke="#63b8ff" d="M326.5,-476.26C326.5,-457.26 326.5,-432.96 326.5,-419.91"/>
<polygon fill="none" stroke="#63b8ff" points="323,-476.02 326.5,-486.02 330,-476.02 323,-476.02"/>
</a>
</g>
</g>
<!-- Node6 -->
<g id="Node000006" class="node">
<title>Node6</title>
<g id="a_Node000006"><a xlink:href="classcore_1_1EventMultiplexer.html" target="_top" xlink:title=" ">
<polygon fill="white" stroke="none" points="427.62,-20.75 309.38,-20.75 309.38,0 427.62,0 427.62,-20.75"/>
<text xml:space="preserve" text-anchor="start" x="313.38" y="-7.25" font-family="Helvetica,sans-Serif" font-size="10.00">core::EventMultiplexer</text>
<polygon fill="none" stroke="#666666" points="309.38,0 309.38,-20.75 427.62,-20.75 427.62,0 309.38,0"/>
</a>
</g>
</g>
<!-- Node6&#45;&gt;Node3 -->
<g id="edge6_Node000003_Node000006" class="edge">
<title>Node6&#45;&gt;Node3</title>
<g id="a_edge6_Node000003_Node000006"><a xlink:title=" ">
<path fill="none" stroke="#63b8ff" d="M362.77,-20.63C355.4,-32.83 342.61,-55.13 334.5,-75.5 306.78,-145.13 326.34,-172.74 289.5,-238 283.52,-248.6 274.6,-258.63 266.36,-266.65"/>
<polygon fill="none" stroke="#63b8ff" points="266.4,-266.62 264.67,-273.62 257.55,-274.73 259.27,-267.72 266.4,-266.62"/>
</a>
</g>
<text xml:space="preserve" text-anchor="start" x="322.72" y="-141.62" font-family="Helvetica,sans-Serif" font-size="10.00" fill="grey">&#45;eventMultiplexer</text>
</g>
<!-- Node7 -->
<g id="Node000007" class="node">
<title>Node7</title>
<g id="a_Node000007"><a xlink:title=" ">
<polygon fill="white" stroke="none" points="486,-109 343,-109 343,-75.5 486,-75.5 486,-109"/>
<text xml:space="preserve" text-anchor="start" x="347" y="-95.5" font-family="Helvetica,sans-Serif" font-size="10.00">std::array&lt; core::Descriptor</text>
<text xml:space="preserve" text-anchor="start" x="362.38" y="-82.75" font-family="Helvetica,sans-Serif" font-size="10.00">EventPublisher *, 3 &gt;</text>
<polygon fill="none" stroke="#666666" points="343,-75.5 343,-109 486,-109 486,-75.5 343,-75.5"/>
</a>
</g>
</g>
<!-- Node7&#45;&gt;Node6 -->
<g id="edge7_Node000006_Node000007" class="edge">
<title>Node7&#45;&gt;Node6</title>
<g id="a_edge7_Node000006_Node000007"><a xlink:title=" ">
<path fill="none" stroke="#63b8ff" d="M405.63,-75.85C398.43,-63.35 388.23,-45.63 380.33,-31.92"/>
<polygon fill="none" stroke="#63b8ff" points="380.33,-31.91 373.87,-28.71 374.34,-21.51 380.8,-24.72 380.33,-31.91"/>
</a>
</g>
<text xml:space="preserve" text-anchor="start" x="397.25" y="-45" font-family="Helvetica,sans-Serif" font-size="10.00" fill="grey">#descriptorEventPublishers</text>
</g>
<!-- Node8&#45;&gt;Node7 -->
<g id="edge8_Node000007_Node000008" class="edge">
<title>Node8&#45;&gt;Node7</title>
<g id="a_edge8_Node000007_Node000008"><a xlink:title=" ">
<path fill="none" stroke="#63b8ff" d="M428.97,-180.61C426.74,-167.18 422.53,-141.72 419.22,-121.73"/>
<polygon fill="none" stroke="#63b8ff" points="419.21,-121.72 414.29,-116.45 417.25,-109.88 422.18,-115.14 419.21,-121.72"/>
</a>
</g>
<text xml:space="preserve" text-anchor="start" x="428.77" y="-141.62" font-family="Helvetica,sans-Serif" font-size="10.00" fill="grey">+elements</text>
</g>
<!-- Node8&#45;&gt;Node11 -->
<g id="edge14_Node000011_Node000008" class="edge">
<title>Node8&#45;&gt;Node11</title>
<g id="a_edge14_Node000011_Node000008"><a xlink:title=" ">
<path fill="none" stroke="#63b8ff" d="M509.37,-193.65C593.51,-196.37 716.75,-203.1 731.5,-219.25 806.76,-301.67 767.45,-373.51 710.5,-469.5 706.32,-476.55 700.01,-482.48 693.31,-487.3"/>
<polygon fill="none" stroke="#63b8ff" points="693.62,-487.1 690.66,-493.68 683.45,-493.48 686.41,-486.9 693.62,-487.1"/>
</a>
</g>
<text xml:space="preserve" text-anchor="start" x="774.52" y="-347.62" font-family="Helvetica,sans-Serif" font-size="10.00" fill="grey">&#45;descriptorEventPublisher</text>
</g>
<!-- Node9 -->
<g id="Node000009" class="node">
<title>Node9</title>
<g id="a_Node000009"><a xlink:title=" ">
<polygon fill="white" stroke="none" points="532.12,-308.62 386.88,-308.62 386.88,-262.38 532.12,-262.38 532.12,-308.62"/>
<text xml:space="preserve" text-anchor="start" x="390.88" y="-295.12" font-family="Helvetica,sans-Serif" font-size="10.00">std::map&lt; int, std</text>
<text xml:space="preserve" text-anchor="start" x="390.88" y="-282.38" font-family="Helvetica,sans-Serif" font-size="10.00">::list&lt; core::DescriptorEvent</text>
<text xml:space="preserve" text-anchor="start" x="422.75" y="-269.62" font-family="Helvetica,sans-Serif" font-size="10.00">Receiver * &gt; &gt;</text>
<polygon fill="none" stroke="#666666" points="386.88,-262.38 386.88,-308.62 532.12,-308.62 532.12,-262.38 386.88,-262.38"/>
</a>
</g>
</g>
<!-- Node9&#45;&gt;Node8 -->
<g id="edge9_Node000008_Node000009" class="edge">
<title>Node9&#45;&gt;Node8</title>
<g id="a_edge9_Node000008_Node000009"><a xlink:title=" ">
<path fill="none" stroke="#63b8ff" d="M442.84,-262.45C438.18,-255.07 433.71,-246.53 431.25,-238 429.03,-230.31 428.43,-221.59 428.52,-213.82"/>
<polygon fill="none" stroke="#63b8ff" points="428.52,-213.8 424.88,-207.58 429.22,-201.82 432.86,-208.05 428.52,-213.8"/>
</a>
</g>
<text xml:space="preserve" text-anchor="start" x="434.25" y="-225.5" font-family="Helvetica,sans-Serif" font-size="10.00" fill="grey">#observedEventReceiverLists</text>
</g>
<!-- Node10 -->
<g id="Node000010" class="node">
<title>Node10</title>
<g id="a_Node000010"><a xlink:title=" ">
<polygon fill="white" stroke="none" points="699.75,-426.38 567.25,-426.38 567.25,-392.88 699.75,-392.88 699.75,-426.38"/>
<text xml:space="preserve" text-anchor="start" x="571.25" y="-412.88" font-family="Helvetica,sans-Serif" font-size="10.00">std::list&lt; core::Descriptor</text>
<text xml:space="preserve" text-anchor="start" x="588.5" y="-400.12" font-family="Helvetica,sans-Serif" font-size="10.00">EventReceiver * &gt;</text>
<polygon fill="none" stroke="#666666" points="567.25,-392.88 567.25,-426.38 699.75,-426.38 699.75,-392.88 567.25,-392.88"/>
</a>
</g>
</g>
<!-- Node10&#45;&gt;Node9 -->
<g id="edge10_Node000009_Node000010" class="edge">
<title>Node10&#45;&gt;Node9</title>
<g id="a_edge10_Node000009_Node000010"><a xlink:title=" ">
<path fill="none" stroke="#63b8ff" d="M607.35,-392.89C595.63,-385.67 581.73,-376.87 569.5,-368.5 545.12,-351.81 518.54,-332.04 497.62,-316.1"/>
<polygon fill="none" stroke="#63b8ff" points="497.78,-316.22 490.58,-315.75 488.25,-308.92 495.44,-309.4 497.78,-316.22"/>
</a>
</g>
<text xml:space="preserve" text-anchor="start" x="572.5" y="-347.62" font-family="Helvetica,sans-Serif" font-size="10.00" fill="grey">+elements</text>
</g>
<!-- Node14 -->
<g id="Node000014" class="node">
<title>Node14</title>
<g id="a_Node000014"><a xlink:title=" ">
<polygon fill="white" stroke="none" points="717,-315 550,-315 550,-256 717,-256 717,-315"/>
<text xml:space="preserve" text-anchor="start" x="554" y="-301.5" font-family="Helvetica,sans-Serif" font-size="10.00">std::map&lt; std::list</text>
<text xml:space="preserve" text-anchor="start" x="554" y="-288.75" font-family="Helvetica,sans-Serif" font-size="10.00">&lt; core::DescriptorEventReceiver</text>
<text xml:space="preserve" text-anchor="start" x="554" y="-276" font-family="Helvetica,sans-Serif" font-size="10.00"> * &gt; *, std::list&lt; core::Descriptor</text>
<text xml:space="preserve" text-anchor="start" x="582.88" y="-263.25" font-family="Helvetica,sans-Serif" font-size="10.00">EventReceiver * &gt; &gt;</text>
<polygon fill="none" stroke="#666666" points="550,-256 550,-315 717,-315 717,-256 550,-256"/>
</a>
</g>
</g>
<!-- Node10&#45;&gt;Node14 -->
<g id="edge18_Node000014_Node000010" class="edge">
<title>Node10&#45;&gt;Node14</title>
<g id="a_edge18_Node000014_Node000010"><a xlink:title=" ">
<path fill="none" stroke="#63b8ff" d="M633.5,-393.16C633.5,-376.82 633.5,-350.35 633.5,-327.88"/>
<polygon fill="none" stroke="#63b8ff" points="633.5,-327.77 629.5,-321.77 633.5,-315.77 637.5,-321.77 633.5,-327.77"/>
</a>
</g>
<text xml:space="preserve" text-anchor="start" x="636.5" y="-356" font-family="Helvetica,sans-Serif" font-size="10.00" fill="grey">+elements</text>
<text xml:space="preserve" text-anchor="start" x="636.5" y="-339.25" font-family="Helvetica,sans-Serif" font-size="10.00" fill="grey">+keys</text>
</g>
<!-- Node11&#45;&gt;Node10 -->
<g id="edge11_Node000010_Node000011" class="edge">
<title>Node11&#45;&gt;Node10</title>
<g id="a_edge11_Node000010_Node000011"><a xlink:title=" ">
<path fill="none" stroke="#63b8ff" d="M658.43,-494.11C656.17,-487.33 653.07,-477.87 650.5,-469.5 647.41,-459.43 644.16,-448.35 641.35,-438.54"/>
<polygon fill="none" stroke="#63b8ff" points="641.36,-438.57 635.87,-433.89 638.08,-427.03 643.57,-431.71 641.36,-438.57"/>
</a>
</g>
<text xml:space="preserve" text-anchor="start" x="653.5" y="-457" font-family="Helvetica,sans-Serif" font-size="10.00" fill="grey">+elements</text>
</g>
<!-- Node12 -->
<g id="Node000012" class="node">
<title>Node12</title>
<g id="a_Node000012"><a xlink:href="classcore_1_1Observer.html" target="_top" xlink:title=" ">
<polygon fill="white" stroke="none" points="701.12,-630 621.88,-630 621.88,-609.25 701.12,-609.25 701.12,-630"/>
<text xml:space="preserve" text-anchor="start" x="625.88" y="-616.5" font-family="Helvetica,sans-Serif" font-size="10.00">core::Observer</text>
<polygon fill="none" stroke="#666666" points="621.88,-609.25 621.88,-630 701.12,-630 701.12,-609.25 621.88,-609.25"/>
</a>
</g>
</g>
<!-- Node12&#45;&gt;Node11 -->
<g id="edge12_Node000011_Node000012" class="edge">
<title>Node12&#45;&gt;Node11</title>
<g id="a_edge12_Node000011_Node000012"><a xlink:title=" ">
<path fill="none" stroke="darkgreen" d="M661.5,-597.98C661.5,-573.1 661.5,-532.38 661.5,-514.34"/>
<polygon fill="none" stroke="darkgreen" points="658,-597.83 661.5,-607.83 665,-597.83 658,-597.83"/>
</a>
</g>
</g>
<!-- Node13 -->
<g id="Node000013" class="node">
<title>Node13</title>
<g id="a_Node000013"><a xlink:href="classutils_1_1Timeval.html" target="_top" xlink:title=" ">
<polygon fill="white" stroke="none" points="812.5,-630 738.5,-630 738.5,-609.25 812.5,-609.25 812.5,-630"/>
<text xml:space="preserve" text-anchor="start" x="742.5" y="-616.5" font-family="Helvetica,sans-Serif" font-size="10.00">utils::Timeval</text>
<polygon fill="none" stroke="#666666" points="738.5,-609.25 738.5,-630 812.5,-630 812.5,-609.25 738.5,-609.25"/>
</a>
</g>
</g>
<!-- Node13&#45;&gt;Node11 -->
<g id="edge15_Node000011_Node000013" class="edge">
<title>Node13&#45;&gt;Node11</title>
<g id="a_edge15_Node000011_Node000013"><a xlink:title=" ">
<path fill="none" stroke="#63b8ff" d="M759.47,-609.46C751.5,-604.55 741.95,-598.11 734.25,-591.25 711.37,-570.89 689.26,-543.26 675.54,-524.87"/>
<polygon fill="none" stroke="#63b8ff" points="675.59,-524.94 668.82,-522.46 668.51,-515.25 675.28,-517.74 675.59,-524.94"/>
</a>
</g>
<text xml:space="preserve" text-anchor="start" x="737.25" y="-578.75" font-family="Helvetica,sans-Serif" font-size="10.00" fill="grey">&#45;initialTimeout</text>
<text xml:space="preserve" text-anchor="start" x="737.25" y="-562" font-family="Helvetica,sans-Serif" font-size="10.00" fill="grey">&#45;lastTriggered</text>
<text xml:space="preserve" text-anchor="start" x="737.25" y="-545.25" font-family="Helvetica,sans-Serif" font-size="10.00" fill="grey">&#45;maxInactivity</text>
</g>
<!-- Node13&#45;&gt;Node17 -->
<g id="edge26_Node000017_Node000013" class="edge">
<title>Node13&#45;&gt;Node17</title>
<g id="a_edge26_Node000017_Node000013"><a xlink:title=" ">
<path fill="none" stroke="#63b8ff" d="M791.04,-609.4C798.77,-604.48 808.02,-598.04 815.5,-591.25 838.08,-570.76 859.98,-543.15 873.58,-524.81"/>
<polygon fill="none" stroke="#63b8ff" points="873.49,-524.93 873.78,-517.73 880.54,-515.22 880.25,-522.43 873.49,-524.93"/>
</a>
</g>
<text xml:space="preserve" text-anchor="start" x="865.04" y="-570.38" font-family="Helvetica,sans-Serif" font-size="10.00" fill="grey">&#45;absoluteTimeout</text>
<text xml:space="preserve" text-anchor="start" x="865.04" y="-553.62" font-family="Helvetica,sans-Serif" font-size="10.00" fill="grey">&#45;delay</text>
</g>
<!-- Node14&#45;&gt;Node8 -->
<g id="edge17_Node000008_Node000014" class="edge">
<title>Node14&#45;&gt;Node8</title>
<g id="a_edge17_Node000008_Node000014"><a xlink:title=" ">
<path fill="none" stroke="#63b8ff" d="M618.33,-256.03C609.83,-242.8 598.01,-228.08 583.5,-219.25 565.09,-208.04 543.28,-201.16 521.97,-197"/>
<polygon fill="none" stroke="#63b8ff" points="521.88,-196.98 515.29,-199.91 510.05,-194.95 516.64,-192.02 521.88,-196.98"/>
</a>
</g>
<text xml:space="preserve" text-anchor="start" x="606.73" y="-225.5" font-family="Helvetica,sans-Serif" font-size="10.00" fill="grey">&#45;dirtyEventReceiverLists</text>
</g>
<!-- Node15 -->
<g id="Node000015" class="node">
<title>Node15</title>
<g id="a_Node000015"><a xlink:href="classcore_1_1TimerEventPublisher.html" target="_top" xlink:title=" ">
<polygon fill="white" stroke="none" points="1070.25,-295.88 934.75,-295.88 934.75,-275.12 1070.25,-275.12 1070.25,-295.88"/>
<text xml:space="preserve" text-anchor="start" x="938.75" y="-282.38" font-family="Helvetica,sans-Serif" font-size="10.00">core::TimerEventPublisher</text>
<polygon fill="none" stroke="#666666" points="934.75,-275.12 934.75,-295.88 1070.25,-295.88 1070.25,-275.12 934.75,-275.12"/>
</a>
</g>
</g>
<!-- Node15&#45;&gt;Node6 -->
<g id="edge19_Node000006_Node000015" class="edge">
<title>Node15&#45;&gt;Node6</title>
<g id="a_edge19_Node000006_Node000015"><a xlink:title=" ">
<path fill="none" stroke="#63b8ff" d="M989.24,-275.31C935.76,-238.75 729.76,-102.51 539.5,-38.75 507.82,-28.13 471.42,-21.58 440.37,-17.55"/>
<polygon fill="none" stroke="#63b8ff" points="440.23,-17.54 433.79,-20.78 428.32,-16.09 434.76,-12.84 440.23,-17.54"/>
</a>
</g>
<text xml:space="preserve" text-anchor="start" x="809.88" y="-141.62" font-family="Helvetica,sans-Serif" font-size="10.00" fill="grey">&#45;timerEventPublisher</text>
</g>
<!-- Node15&#45;&gt;Node17 -->
<g id="edge23_Node000017_Node000015" class="edge">
<title>Node15&#45;&gt;Node17</title>
<g id="a_edge23_Node000017_Node000015"><a xlink:title=" ">
<path fill="none" stroke="#63b8ff" d="M996.99,-295.68C986.66,-313.07 963.97,-352.13 947.75,-386.5 930.79,-422.44 934.52,-435.17 914.5,-469.5 911.57,-474.53 907.93,-479.62 904.28,-484.26"/>
<polygon fill="none" stroke="#63b8ff" points="904.37,-484.15 903.59,-491.32 896.67,-493.36 897.45,-486.19 904.37,-484.15"/>
</a>
</g>
<text xml:space="preserve" text-anchor="start" x="950.75" y="-406.5" font-family="Helvetica,sans-Serif" font-size="10.00" fill="grey">&#45;timerEventPublisher</text>
</g>
<!-- Node16 -->
<g id="Node000016" class="node">
<title>Node16</title>
<g id="a_Node000016"><a xlink:title=" ">
<polygon fill="white" stroke="none" points="1257.75,-432.75 1065.25,-432.75 1065.25,-386.5 1257.75,-386.5 1257.75,-432.75"/>
<text xml:space="preserve" text-anchor="start" x="1069.25" y="-419.25" font-family="Helvetica,sans-Serif" font-size="10.00">std::set&lt; core::TimerEvent</text>
<text xml:space="preserve" text-anchor="start" x="1069.25" y="-406.5" font-family="Helvetica,sans-Serif" font-size="10.00">Receiver *, core::TimerEventPublisher</text>
<text xml:space="preserve" text-anchor="start" x="1121.75" y="-393.75" font-family="Helvetica,sans-Serif" font-size="10.00">::timernode_lt &gt;</text>
<polygon fill="none" stroke="#666666" points="1065.25,-386.5 1065.25,-432.75 1257.75,-432.75 1257.75,-386.5 1065.25,-386.5"/>
</a>
</g>
</g>
<!-- Node16&#45;&gt;Node15 -->
<g id="edge20_Node000015_Node000016" class="edge">
<title>Node16&#45;&gt;Node15</title>
<g id="a_edge20_Node000015_Node000016"><a xlink:title=" ">
<path fill="none" stroke="#63b8ff" d="M1132.71,-386.51C1101.58,-362.6 1052.65,-325.02 1024.48,-303.38"/>
<polygon fill="none" stroke="#63b8ff" points="1024.67,-303.53 1017.48,-303.05 1015.16,-296.22 1022.35,-296.7 1024.67,-303.53"/>
</a>
</g>
<text xml:space="preserve" text-anchor="start" x="1108.53" y="-347.62" font-family="Helvetica,sans-Serif" font-size="10.00" fill="grey">&#45;timerList</text>
</g>
<!-- Node17&#45;&gt;Node16 -->
<g id="edge21_Node000016_Node000017" class="edge">
<title>Node17&#45;&gt;Node16</title>
<g id="a_edge21_Node000016_Node000017"><a xlink:title=" ">
<path fill="none" stroke="#63b8ff" d="M915.03,-493.94C954.22,-480.7 1027.62,-455.88 1084.17,-436.77"/>
<polygon fill="none" stroke="#63b8ff" points="1084.1,-436.79 1088.5,-431.08 1095.47,-432.95 1091.07,-438.66 1084.1,-436.79"/>
</a>
</g>
<text xml:space="preserve" text-anchor="start" x="1043.9" y="-457" font-family="Helvetica,sans-Serif" font-size="10.00" fill="grey">+keys</text>
</g>
<!-- Node18 -->
<g id="Node000018" class="node">
<title>Node18</title>
<g id="a_Node000018"><a xlink:href="classcore_1_1Timer.html" target="_top" xlink:title=" ">
<polygon fill="white" stroke="none" points="865.88,-420 803.12,-420 803.12,-399.25 865.88,-399.25 865.88,-420"/>
<text xml:space="preserve" text-anchor="start" x="807.12" y="-406.5" font-family="Helvetica,sans-Serif" font-size="10.00">core::Timer</text>
<polygon fill="none" stroke="#666666" points="803.12,-399.25 803.12,-420 865.88,-420 865.88,-399.25 803.12,-399.25"/>
</a>
</g>
</g>
<!-- Node17&#45;&gt;Node18 -->
<g id="edge25_Node000018_Node000017" class="edge">
<title>Node17&#45;&gt;Node18</title>
<g id="a_edge25_Node000018_Node000017"><a xlink:title=" ">
<path fill="none" stroke="#63b8ff" d="M820.99,-494.04C792.42,-488.59 763.59,-480.56 755,-469.5 740.26,-450.54 765.35,-434.72 791.15,-424.27"/>
<polygon fill="none" stroke="#63b8ff" points="791.23,-424.25 795.44,-418.4 802.47,-420.04 798.25,-425.89 791.23,-424.25"/>
</a>
</g>
<text xml:space="preserve" text-anchor="start" x="758" y="-457" font-family="Helvetica,sans-Serif" font-size="10.00" fill="grey">&#45;timerEventReceiver</text>
</g>
<!-- Node19 -->
<g id="Node000019" class="node">
<title>Node19</title>
<g id="a_Node000019"><a xlink:title=" ">
<polygon fill="white" stroke="none" points="1413.38,-426.38 1275.62,-426.38 1275.62,-392.88 1413.38,-392.88 1413.38,-426.38"/>
<text xml:space="preserve" text-anchor="start" x="1279.62" y="-412.88" font-family="Helvetica,sans-Serif" font-size="10.00">std::list&lt; core::TimerEvent</text>
<text xml:space="preserve" text-anchor="start" x="1313.38" y="-400.12" font-family="Helvetica,sans-Serif" font-size="10.00">Receiver * &gt;</text>
<polygon fill="none" stroke="#666666" points="1275.62,-392.88 1275.62,-426.38 1413.38,-426.38 1413.38,-392.88 1275.62,-392.88"/>
</a>
</g>
</g>
<!-- Node17&#45;&gt;Node19 -->
<g id="edge28_Node000019_Node000017" class="edge">
<title>Node17&#45;&gt;Node19</title>
<g id="a_edge28_Node000019_Node000017"><a xlink:title=" ">
<path fill="none" stroke="#63b8ff" d="M948.63,-493.9C1023.89,-481.93 1155.4,-459.5 1266.5,-432.75 1270.54,-431.78 1274.68,-430.74 1278.85,-429.65"/>
<polygon fill="none" stroke="#63b8ff" points="1278.9,-429.64 1283.66,-424.23 1290.49,-426.55 1285.73,-431.96 1278.9,-429.64"/>
</a>
</g>
<text xml:space="preserve" text-anchor="start" x="1187.08" y="-457" font-family="Helvetica,sans-Serif" font-size="10.00" fill="grey">+elements</text>
</g>
<!-- Node18&#45;&gt;Node17 -->
<g id="edge24_Node000017_Node000018" class="edge">
<title>Node18&#45;&gt;Node17</title>
<g id="a_edge24_Node000017_Node000018"><a xlink:title=" ">
<path fill="none" stroke="#63b8ff" d="M842.63,-419.7C849.35,-427.52 858.86,-439.34 865.5,-450.75 871.18,-460.5 876.17,-472 879.95,-481.74"/>
<polygon fill="none" stroke="#63b8ff" points="880,-481.88 885.83,-486.13 884.14,-493.14 878.32,-488.89 880,-481.88"/>
</a>
</g>
<text xml:space="preserve" text-anchor="start" x="877.63" y="-457" font-family="Helvetica,sans-Serif" font-size="10.00" fill="grey">&#45;timer</text>
</g>
<!-- Node19&#45;&gt;Node15 -->
<g id="edge27_Node000015_Node000019" class="edge">
<title>Node19&#45;&gt;Node15</title>
<g id="a_edge27_Node000015_Node000019"><a xlink:title=" ">
<path fill="none" stroke="#63b8ff" d="M1310.05,-392.97C1273.78,-376.8 1214.79,-351.4 1162.5,-333 1125.69,-320.05 1083.24,-307.83 1051.32,-299.17"/>
<polygon fill="none" stroke="#63b8ff" points="1051.23,-299.15 1044.39,-301.46 1039.64,-296.04 1046.47,-293.73 1051.23,-299.15"/>
</a>
</g>
<text xml:space="preserve" text-anchor="start" x="1255.83" y="-347.62" font-family="Helvetica,sans-Serif" font-size="10.00" fill="grey">&#45;removedList</text>
</g>
<!-- Node20 -->
<g id="Node000020" class="node">
<title>Node20</title>
<g id="a_Node000020"><a xlink:href="classcore_1_1EventMultiplexer_1_1EventQueue.html" target="_top" xlink:title=" ">
<polygon fill="white" stroke="none" points="270.62,-109 152.38,-109 152.38,-75.5 270.62,-75.5 270.62,-109"/>
<text xml:space="preserve" text-anchor="start" x="156.38" y="-95.5" font-family="Helvetica,sans-Serif" font-size="10.00">core::EventMultiplexer</text>
<text xml:space="preserve" text-anchor="start" x="178.88" y="-82.75" font-family="Helvetica,sans-Serif" font-size="10.00">::EventQueue</text>
<polygon fill="none" stroke="#666666" points="152.38,-75.5 152.38,-109 270.62,-109 270.62,-75.5 152.38,-75.5"/>
</a>
</g>
</g>
<!-- Node20&#45;&gt;Node6 -->
<g id="edge29_Node000006_Node000020" class="edge">
<title>Node20&#45;&gt;Node6</title>
<g id="a_edge29_Node000006_Node000020"><a xlink:title=" ">
<path fill="none" stroke="#63b8ff" d="M210.8,-75.74C211.15,-63.96 213.67,-48.22 223.5,-38.75 234.37,-28.29 265.93,-21.66 296.84,-17.55"/>
<polygon fill="none" stroke="#63b8ff" points="296.71,-17.56 302.18,-12.86 308.62,-16.1 303.16,-20.8 296.71,-17.56"/>
</a>
</g>
<text xml:space="preserve" text-anchor="start" x="226.5" y="-45" font-family="Helvetica,sans-Serif" font-size="10.00" fill="grey">&#45;eventQueue</text>
</g>
<!-- Node21&#45;&gt;Node20 -->
<g id="edge30_Node000020_Node000021" class="edge">
<title>Node21&#45;&gt;Node20</title>
<g id="a_edge30_Node000020_Node000021"><a xlink:title=" ">
<path fill="none" stroke="#63b8ff" d="M206.69,-180.54C205.75,-175.27 204.72,-168.54 204.25,-162.5 203.04,-146.77 202.58,-142.69 204.25,-127 204.44,-125.23 204.68,-123.42 204.96,-121.6"/>
<polygon fill="none" stroke="#63b8ff" points="204.96,-121.6 202.17,-114.95 207.24,-109.82 210.03,-116.47 204.96,-121.6"/>
</a>
</g>
<text xml:space="preserve" text-anchor="start" x="207.25" y="-150" font-family="Helvetica,sans-Serif" font-size="10.00" fill="grey">&#45;executeQueue</text>
<text xml:space="preserve" text-anchor="start" x="207.25" y="-133.25" font-family="Helvetica,sans-Serif" font-size="10.00" fill="grey">&#45;publishQueue</text>
</g>
<!-- Node22 -->
<g id="Node000022" class="node">
<title>Node22</title>
<g id="a_Node000022"><a xlink:title=" ">
<polygon fill="white" stroke="none" points="106.75,-630 4.25,-630 4.25,-609.25 106.75,-609.25 106.75,-630"/>
<text xml:space="preserve" text-anchor="start" x="8.25" y="-616.5" font-family="Helvetica,sans-Serif" font-size="10.00">std::deque&lt; long &gt;</text>
<polygon fill="none" stroke="#666666" points="4.25,-609.25 4.25,-630 106.75,-630 106.75,-609.25 4.25,-609.25"/>
</a>
</g>
</g>
<!-- Node22&#45;&gt;Node1 -->
<g id="edge32_Node000001_Node000022" class="edge">
<title>Node22&#45;&gt;Node1</title>
<g id="a_edge32_Node000001_Node000022"><a xlink:title=" ">
<path fill="none" stroke="#63b8ff" d="M55.58,-609.35C55.73,-593 56.03,-558.46 56.25,-533.64"/>
<polygon fill="none" stroke="#63b8ff" points="56.25,-533.6 52.3,-527.57 56.36,-521.6 60.3,-527.64 56.25,-533.6"/>
</a>
</g>
<text xml:space="preserve" text-anchor="start" x="59.18" y="-562" font-family="Helvetica,sans-Serif" font-size="10.00" fill="grey">#values</text>
</g>
</g>
</svg>
