<?xml version="1.0" encoding="UTF-8" standalone="no"?>
<!DOCTYPE svg PUBLIC "-//W3C//DTD SVG 1.1//EN"
 "http://www.w3.org/Graphics/SVG/1.1/DTD/svg11.dtd">
<!-- Generated by graphviz version 2.42.4 (0)
 -->
<!-- Title: Option::get_flag_value Pages: 1 -->
<svg width="502pt" height="64pt"
 viewBox="0.00 0.00 502.00 64.00" xmlns="http://www.w3.org/2000/svg" xmlns:xlink="http://www.w3.org/1999/xlink">
<g id="graph0" class="graph" transform="scale(1 1) rotate(0) translate(4 60)">
<title>Option::get_flag_value</title>
<!-- Node1 -->
<g id="Node000001" class="node">
<title>Node1</title>
<g id="a_Node000001"><a xlink:title=" ">
<polygon fill="#999999" stroke="#666666" points="127,-37 0,-37 0,-18 127,-18 127,-37"/>
<text text-anchor="middle" x="63.5" y="-25" font-family="Helvetica,sans-Serif" font-size="10.00">Option::get_flag_value</text>
</a>
</g>
</g>
<!-- Node2 -->
<g id="Node000002" class="node">
<title>Node2</title>
<g id="a_Node000002"><a xlink:href="classArgumentMismatch.html#a56b748e5fc42c3951e798cbc6ec5f915" target="_top" xlink:title=" ">
<polygon fill="white" stroke="#666666" points="345,-56 163,-56 163,-37 345,-37 345,-56"/>
<text text-anchor="middle" x="254" y="-44" font-family="Helvetica,sans-Serif" font-size="10.00">ArgumentMismatch::FlagOverride</text>
</a>
</g>
</g>
<!-- Node1&#45;&gt;Node2 -->
<g id="edge1_Node000001_Node000002" class="edge">
<title>Node1&#45;&gt;Node2</title>
<g id="a_edge1_Node000001_Node000002"><a xlink:title=" ">
<path fill="none" stroke="#63b8ff" d="M127.01,-33.8C135.25,-34.63 143.86,-35.5 152.54,-36.37"/>
<polygon fill="#63b8ff" stroke="#63b8ff" points="152.44,-39.88 162.74,-37.4 153.14,-32.92 152.44,-39.88"/>
</a>
</g>
</g>
<!-- Node3 -->
<g id="Node000003" class="node">
<title>Node3</title>
<g id="a_Node000003"><a xlink:href="namespacedetail.html#aa6423843bf32523b1b9888e1708528e1" target="_top" xlink:title="Convert a flag into an integer value typically binary flags.">
<polygon fill="white" stroke="#666666" points="312,-19 196,-19 196,0 312,0 312,-19"/>
<text text-anchor="middle" x="254" y="-7" font-family="Helvetica,sans-Serif" font-size="10.00">detail::to_flag_value</text>
</a>
</g>
</g>
<!-- Node1&#45;&gt;Node3 -->
<g id="edge2_Node000001_Node000003" class="edge">
<title>Node1&#45;&gt;Node3</title>
<g id="a_edge2_Node000001_Node000003"><a xlink:title=" ">
<path fill="none" stroke="#63b8ff" d="M127.01,-21.53C145.81,-19.74 166.52,-17.76 185.63,-15.93"/>
<polygon fill="#63b8ff" stroke="#63b8ff" points="186.13,-19.4 195.75,-14.97 185.47,-12.43 186.13,-19.4"/>
</a>
</g>
</g>
<!-- Node4 -->
<g id="Node000004" class="node">
<title>Node4</title>
<g id="a_Node000004"><a xlink:href="namespaceCLI_1_1detail.html#ae83709ec148057ec53df4383645727e9" target="_top" xlink:title="Return a lower case version of a string.">
<polygon fill="white" stroke="#666666" points="494,-19 381,-19 381,0 494,0 494,-19"/>
<text text-anchor="middle" x="437.5" y="-7" font-family="Helvetica,sans-Serif" font-size="10.00">CLI::detail::to_lower</text>
</a>
</g>
</g>
<!-- Node3&#45;&gt;Node4 -->
<g id="edge3_Node000003_Node000004" class="edge">
<title>Node3&#45;&gt;Node4</title>
<g id="a_edge3_Node000003_Node000004"><a xlink:title=" ">
<path fill="none" stroke="#63b8ff" d="M312.43,-9.5C331,-9.5 351.74,-9.5 370.86,-9.5"/>
<polygon fill="#63b8ff" stroke="#63b8ff" points="371,-13 381,-9.5 371,-6 371,-13"/>
</a>
</g>
</g>
</g>
</svg>
