<?xml version="1.0" encoding="UTF-8" standalone="no"?>
<!DOCTYPE svg PUBLIC "-//W3C//DTD SVG 1.1//EN"
 "http://www.w3.org/Graphics/SVG/1.1/DTD/svg11.dtd">
<!-- Generated by graphviz version 2.43.0 (0)
 -->
<!-- Title: iot::mqtt::FixedHeader Pages: 1 -->
<svg width="298pt" height="160pt"
 viewBox="0.00 0.00 298.00 160.00" xmlns="http://www.w3.org/2000/svg" xmlns:xlink="http://www.w3.org/1999/xlink">
<g id="graph0" class="graph" transform="scale(1 1) rotate(0) translate(4 156)">
<title>iot::mqtt::FixedHeader</title>
<!-- Node1 -->
<g id="Node000001" class="node">
<title>Node1</title>
<g id="a_Node000001"><a xlink:title=" ">
<polygon fill="#999999" stroke="transparent" points="199,-19 81,-19 81,0 199,0 199,-19"/>
<text text-anchor="start" x="85.5" y="-6.5" font-family="Helvetica,sans-Serif" font-size="10.00">iot::mqtt::FixedHeader</text>
<polygon fill="none" stroke="#666666" points="81,0 81,-19 199,-19 199,0 81,0"/>
</a>
</g>
</g>
<!-- Node2 -->
<g id="Node000002" class="node">
<title>Node2</title>
<g id="a_Node000002"><a xlink:href="classiot_1_1mqtt_1_1types_1_1_u_int8.html" target="_top" xlink:title=" ">
<polygon fill="white" stroke="transparent" points="131,-85 15,-85 15,-66 131,-66 131,-85"/>
<text text-anchor="start" x="19" y="-72.5" font-family="Helvetica,sans-Serif" font-size="10.00">iot::mqtt::types::UInt8</text>
<polygon fill="none" stroke="#666666" points="15,-66 15,-85 131,-85 131,-66 15,-66"/>
</a>
</g>
</g>
<!-- Node2&#45;&gt;Node1 -->
<g id="edge1_Node000001_Node000002" class="edge">
<title>Node2&#45;&gt;Node1</title>
<g id="a_edge1_Node000001_Node000002"><a xlink:title=" ">
<path fill="none" stroke="#63b8ff" d="M82.04,-65.87C92.17,-56.19 108.87,-40.24 121.75,-27.94"/>
<polygon fill="none" stroke="#63b8ff" points="122,-27.69 123.58,-20.66 130.68,-19.41 129.1,-26.44 122,-27.69"/>
</a>
</g>
<text text-anchor="middle" x="138.5" y="-40" font-family="Helvetica,sans-Serif" font-size="10.00" fill="grey"> &#45;typeFlags</text>
</g>
<!-- Node3 -->
<g id="Node000003" class="node">
<title>Node3</title>
<g id="a_Node000003"><a xlink:href="classiot_1_1mqtt_1_1types_1_1_type_base.html" target="_top" xlink:title=" ">
<polygon fill="white" stroke="transparent" points="136,-152 0,-152 0,-122 136,-122 136,-152"/>
<text text-anchor="start" x="4" y="-140" font-family="Helvetica,sans-Serif" font-size="10.00">iot::mqtt::types::TypeBase</text>
<text text-anchor="start" x="39.5" y="-129" font-family="Helvetica,sans-Serif" font-size="10.00">&lt; uint8_t &gt;</text>
<polygon fill="none" stroke="#666666" points="0,-122 0,-152 136,-152 136,-122 0,-122"/>
</a>
</g>
</g>
<!-- Node3&#45;&gt;Node2 -->
<g id="edge2_Node000002_Node000003" class="edge">
<title>Node3&#45;&gt;Node2</title>
<g id="a_edge2_Node000002_Node000003"><a xlink:title=" ">
<path fill="none" stroke="#63b8ff" d="M70.03,-111.79C70.83,-102.36 71.68,-92.15 72.27,-85.16"/>
<polygon fill="none" stroke="#63b8ff" points="66.53,-111.64 69.18,-121.9 73.51,-112.23 66.53,-111.64"/>
</a>
</g>
</g>
<!-- Node4 -->
<g id="Node000004" class="node">
<title>Node4</title>
<g id="a_Node000004"><a xlink:href="classiot_1_1mqtt_1_1types_1_1_u_int_v.html" target="_top" xlink:title=" ">
<polygon fill="white" stroke="transparent" points="276,-85 158,-85 158,-66 276,-66 276,-85"/>
<text text-anchor="start" x="162.5" y="-72.5" font-family="Helvetica,sans-Serif" font-size="10.00">iot::mqtt::types::UIntV</text>
<polygon fill="none" stroke="#666666" points="158,-66 158,-85 276,-85 276,-66 158,-66"/>
</a>
</g>
</g>
<!-- Node4&#45;&gt;Node1 -->
<g id="edge3_Node000001_Node000004" class="edge">
<title>Node4&#45;&gt;Node1</title>
<g id="a_edge3_Node000001_Node000004"><a xlink:title=" ">
<path fill="none" stroke="#63b8ff" d="M206.62,-65.87C194.74,-56 175.02,-39.61 160.11,-27.22"/>
<polygon fill="none" stroke="#63b8ff" points="159.94,-27.08 152.77,-26.32 150.71,-19.41 157.89,-20.16 159.94,-27.08"/>
</a>
</g>
<text text-anchor="middle" x="229" y="-40" font-family="Helvetica,sans-Serif" font-size="10.00" fill="grey"> &#45;remainingLength</text>
</g>
<!-- Node5 -->
<g id="Node000005" class="node">
<title>Node5</title>
<g id="a_Node000005"><a xlink:href="classiot_1_1mqtt_1_1types_1_1_type_base.html" target="_top" xlink:title=" ">
<polygon fill="white" stroke="transparent" points="290,-152 154,-152 154,-122 290,-122 290,-152"/>
<text text-anchor="start" x="158" y="-140" font-family="Helvetica,sans-Serif" font-size="10.00">iot::mqtt::types::TypeBase</text>
<text text-anchor="start" x="190.5" y="-129" font-family="Helvetica,sans-Serif" font-size="10.00">&lt; uint32_t &gt;</text>
<polygon fill="none" stroke="#666666" points="154,-122 154,-152 290,-152 290,-122 154,-122"/>
</a>
</g>
</g>
<!-- Node5&#45;&gt;Node4 -->
<g id="edge4_Node000004_Node000005" class="edge">
<title>Node5&#45;&gt;Node4</title>
<g id="a_edge4_Node000004_Node000005"><a xlink:title=" ">
<path fill="none" stroke="#63b8ff" d="M219.97,-111.79C219.17,-102.36 218.32,-92.15 217.73,-85.16"/>
<polygon fill="none" stroke="#63b8ff" points="216.49,-112.23 220.82,-121.9 223.47,-111.64 216.49,-112.23"/>
</a>
</g>
</g>
</g>
</svg>
