<?xml version="1.0" encoding="UTF-8" standalone="no"?>
<!DOCTYPE svg PUBLIC "-//W3C//DTD SVG 1.1//EN"
 "http://www.w3.org/Graphics/SVG/1.1/DTD/svg11.dtd">
<!-- Generated by graphviz version 2.43.0 (0)
 -->
<!-- Title: web::http::decoder::Chunked::read Pages: 1 -->
<svg width="691pt" height="278pt"
 viewBox="0.00 0.00 691.00 278.00" xmlns="http://www.w3.org/2000/svg" xmlns:xlink="http://www.w3.org/1999/xlink">
<g id="graph0" class="graph" transform="scale(1 1) rotate(0) translate(4 274)">
<title>web::http::decoder::Chunked::read</title>
<!-- Node1 -->
<g id="Node000001" class="node">
<title>Node1</title>
<g id="a_Node000001"><a xlink:title=" ">
<polygon fill="#999999" stroke="#666666" points="98,-150 0,-150 0,-120 98,-120 98,-150"/>
<text text-anchor="start" x="8" y="-138" font-family="Helvetica,sans-Serif" font-size="10.00">web::http::decoder</text>
<text text-anchor="middle" x="49" y="-127" font-family="Helvetica,sans-Serif" font-size="10.00">::Chunked::read</text>
</a>
</g>
</g>
<!-- Node2 -->
<g id="Node000002" class="node">
<title>Node2</title>
<g id="a_Node000002"><a xlink:href="classweb_1_1http_1_1decoder_1_1Chunked_1_1Chunk.html#a7f9a2a151bf38673c7815869bc50557b" target="_top" xlink:title=" ">
<polygon fill="white" stroke="#666666" points="272.5,-270 147.5,-270 147.5,-240 272.5,-240 272.5,-270"/>
<text text-anchor="start" x="155.5" y="-258" font-family="Helvetica,sans-Serif" font-size="10.00">web::http::decoder</text>
<text text-anchor="middle" x="210" y="-247" font-family="Helvetica,sans-Serif" font-size="10.00">::Chunked::Chunk::begin</text>
</a>
</g>
</g>
<!-- Node1&#45;&gt;Node2 -->
<g id="edge1_Node000001_Node000002" class="edge">
<title>Node1&#45;&gt;Node2</title>
<g id="a_edge1_Node000001_Node000002"><a xlink:title=" ">
<path fill="none" stroke="#63b8ff" d="M59.46,-150.28C73.31,-171.41 101.04,-209.37 134,-231 136.41,-232.58 138.93,-234.07 141.53,-235.46"/>
<polygon fill="#63b8ff" stroke="#63b8ff" points="140.09,-238.65 150.62,-239.84 143.13,-232.35 140.09,-238.65"/>
</a>
</g>
</g>
<!-- Node3 -->
<g id="Node000003" class="node">
<title>Node3</title>
<g id="a_Node000003"><a xlink:href="classweb_1_1http_1_1decoder_1_1Chunked_1_1Chunk.html#af30d0e080c4d709aed508812d37397ac" target="_top" xlink:title=" ">
<polygon fill="white" stroke="#666666" points="269,-222 151,-222 151,-192 269,-192 269,-222"/>
<text text-anchor="start" x="159" y="-210" font-family="Helvetica,sans-Serif" font-size="10.00">web::http::decoder</text>
<text text-anchor="middle" x="210" y="-199" font-family="Helvetica,sans-Serif" font-size="10.00">::Chunked::Chunk::end</text>
</a>
</g>
</g>
<!-- Node1&#45;&gt;Node3 -->
<g id="edge2_Node000001_Node000003" class="edge">
<title>Node1&#45;&gt;Node3</title>
<g id="a_edge2_Node000001_Node000003"><a xlink:title=" ">
<path fill="none" stroke="#63b8ff" d="M73.21,-150.02C89.7,-160.26 112.63,-173.6 134,-183 138.31,-184.9 142.82,-186.72 147.39,-188.45"/>
<polygon fill="#63b8ff" stroke="#63b8ff" points="146.24,-191.75 156.83,-191.87 148.62,-185.17 146.24,-191.75"/>
</a>
</g>
</g>
<!-- Node4 -->
<g id="Node000004" class="node">
<title>Node4</title>
<g id="a_Node000004"><a xlink:href="classweb_1_1http_1_1decoder_1_1Chunked_1_1Chunk.html#aa902f3a020974152754071f7e22cc0e1" target="_top" xlink:title=" ">
<polygon fill="white" stroke="#666666" points="286,-174 134,-174 134,-144 286,-144 286,-174"/>
<text text-anchor="start" x="142" y="-162" font-family="Helvetica,sans-Serif" font-size="10.00">web::http::decoder</text>
<text text-anchor="middle" x="210" y="-151" font-family="Helvetica,sans-Serif" font-size="10.00">::Chunked::Chunk::isComplete</text>
</a>
</g>
</g>
<!-- Node1&#45;&gt;Node4 -->
<g id="edge3_Node000001_Node000004" class="edge">
<title>Node1&#45;&gt;Node4</title>
<g id="a_edge3_Node000001_Node000004"><a xlink:title=" ">
<path fill="none" stroke="#63b8ff" d="M98.14,-142.27C106.31,-143.5 115,-144.81 123.79,-146.14"/>
<polygon fill="#63b8ff" stroke="#63b8ff" points="123.32,-149.61 133.73,-147.64 124.36,-142.68 123.32,-149.61"/>
</a>
</g>
</g>
<!-- Node5 -->
<g id="Node000005" class="node">
<title>Node5</title>
<g id="a_Node000005"><a xlink:href="classweb_1_1http_1_1decoder_1_1Chunked_1_1Chunk.html#a1953943e48e1dbde473b3da14f95d147" target="_top" xlink:title=" ">
<polygon fill="white" stroke="#666666" points="275.5,-126 144.5,-126 144.5,-96 275.5,-96 275.5,-126"/>
<text text-anchor="start" x="152.5" y="-114" font-family="Helvetica,sans-Serif" font-size="10.00">web::http::decoder</text>
<text text-anchor="middle" x="210" y="-103" font-family="Helvetica,sans-Serif" font-size="10.00">::Chunked::Chunk::isError</text>
</a>
</g>
</g>
<!-- Node1&#45;&gt;Node5 -->
<g id="edge4_Node000001_Node000005" class="edge">
<title>Node1&#45;&gt;Node5</title>
<g id="a_edge4_Node000001_Node000005"><a xlink:title=" ">
<path fill="none" stroke="#63b8ff" d="M98.14,-127.73C109.49,-126.02 121.86,-124.15 134.09,-122.31"/>
<polygon fill="#63b8ff" stroke="#63b8ff" points="134.93,-125.72 144.3,-120.77 133.89,-118.8 134.93,-125.72"/>
</a>
</g>
</g>
<!-- Node6 -->
<g id="Node000006" class="node">
<title>Node6</title>
<g id="a_Node000006"><a xlink:href="classweb_1_1http_1_1decoder_1_1Chunked_1_1Chunk.html#a21368631198e5de6a27ffd62ae7d8561" target="_top" xlink:title=" ">
<polygon fill="white" stroke="#666666" points="270.5,-78 149.5,-78 149.5,-48 270.5,-48 270.5,-78"/>
<text text-anchor="start" x="157.5" y="-66" font-family="Helvetica,sans-Serif" font-size="10.00">web::http::decoder</text>
<text text-anchor="middle" x="210" y="-55" font-family="Helvetica,sans-Serif" font-size="10.00">::Chunked::Chunk::read</text>
</a>
</g>
</g>
<!-- Node1&#45;&gt;Node6 -->
<g id="edge5_Node000001_Node000006" class="edge">
<title>Node1&#45;&gt;Node6</title>
<g id="a_edge5_Node000001_Node000006"><a xlink:title=" ">
<path fill="none" stroke="#63b8ff" d="M73.21,-119.98C89.7,-109.74 112.63,-96.4 134,-87 138.31,-85.1 142.82,-83.28 147.39,-81.55"/>
<polygon fill="#63b8ff" stroke="#63b8ff" points="148.62,-84.83 156.83,-78.13 146.24,-78.25 148.62,-84.83"/>
</a>
</g>
</g>
<!-- Node9 -->
<g id="Node000009" class="node">
<title>Node9</title>
<g id="a_Node000009"><a xlink:href="classweb_1_1http_1_1decoder_1_1Chunked_1_1Chunk.html#a5f15df16ac31db62bc379dbe036f59cb" target="_top" xlink:title=" ">
<polygon fill="white" stroke="#666666" points="270,-30 150,-30 150,0 270,0 270,-30"/>
<text text-anchor="start" x="158" y="-18" font-family="Helvetica,sans-Serif" font-size="10.00">web::http::decoder</text>
<text text-anchor="middle" x="210" y="-7" font-family="Helvetica,sans-Serif" font-size="10.00">::Chunked::Chunk::size</text>
</a>
</g>
</g>
<!-- Node1&#45;&gt;Node9 -->
<g id="edge8_Node000001_Node000009" class="edge">
<title>Node1&#45;&gt;Node9</title>
<g id="a_edge8_Node000001_Node000009"><a xlink:title=" ">
<path fill="none" stroke="#63b8ff" d="M59.46,-119.72C73.31,-98.59 101.04,-60.63 134,-39 136.41,-37.42 138.93,-35.93 141.53,-34.54"/>
<polygon fill="#63b8ff" stroke="#63b8ff" points="143.13,-37.65 150.62,-30.16 140.09,-31.35 143.13,-37.65"/>
</a>
</g>
</g>
<!-- Node7 -->
<g id="Node000007" class="node">
<title>Node7</title>
<g id="a_Node000007"><a xlink:href="classcore_1_1socket_1_1stream_1_1SocketContext.html#a5401a6174dbad9a6637c684a0fb952d9" target="_top" xlink:title=" ">
<polygon fill="white" stroke="#666666" points="477,-78 322,-78 322,-48 477,-48 477,-78"/>
<text text-anchor="start" x="330" y="-66" font-family="Helvetica,sans-Serif" font-size="10.00">core::socket::stream</text>
<text text-anchor="middle" x="399.5" y="-55" font-family="Helvetica,sans-Serif" font-size="10.00">::SocketContext::readFromPeer</text>
</a>
</g>
</g>
<!-- Node6&#45;&gt;Node7 -->
<g id="edge6_Node000006_Node000007" class="edge">
<title>Node6&#45;&gt;Node7</title>
<g id="a_edge6_Node000006_Node000007"><a xlink:title=" ">
<path fill="none" stroke="#63b8ff" d="M270.58,-63C283.7,-63 297.85,-63 311.79,-63"/>
<polygon fill="#63b8ff" stroke="#63b8ff" points="311.89,-66.5 321.89,-63 311.89,-59.5 311.89,-66.5"/>
</a>
</g>
</g>
<!-- Node8 -->
<g id="Node000008" class="node">
<title>Node8</title>
<g id="a_Node000008"><a xlink:href="classcore_1_1socket_1_1stream_1_1SocketConnection.html#ad150ba5503d608d9e7a679f85aa5684f" target="_top" xlink:title=" ">
<polygon fill="white" stroke="#666666" points="683,-78 513,-78 513,-48 683,-48 683,-78"/>
<text text-anchor="start" x="521" y="-66" font-family="Helvetica,sans-Serif" font-size="10.00">core::socket::stream</text>
<text text-anchor="middle" x="598" y="-55" font-family="Helvetica,sans-Serif" font-size="10.00">::SocketConnection::readFromPeer</text>
</a>
</g>
</g>
<!-- Node7&#45;&gt;Node8 -->
<g id="edge7_Node000007_Node000008" class="edge">
<title>Node7&#45;&gt;Node8</title>
<g id="a_edge7_Node000007_Node000008"><a xlink:title=" ">
<path fill="none" stroke="#63b8ff" d="M477.03,-63C485.48,-63 494.14,-63 502.77,-63"/>
<polygon fill="#63b8ff" stroke="#63b8ff" points="502.86,-66.5 512.86,-63 502.86,-59.5 502.86,-66.5"/>
</a>
</g>
</g>
</g>
</svg>
