<?xml version="1.0" encoding="UTF-8" standalone="no"?>
<!DOCTYPE svg PUBLIC "-//W3C//DTD SVG 1.1//EN"
 "http://www.w3.org/Graphics/SVG/1.1/DTD/svg11.dtd">
<!-- Generated by graphviz version 2.43.0 (0)
 -->
<!-- Title: core::file::FileReader::onEvent Pages: 1 -->
<svg width="785pt" height="284pt"
 viewBox="0.00 0.00 785.00 283.50" xmlns="http://www.w3.org/2000/svg" xmlns:xlink="http://www.w3.org/1999/xlink">
<g id="graph0" class="graph" transform="scale(1 1) rotate(0) translate(4 279.5)">
<title>core::file::FileReader::onEvent</title>
<!-- Node1 -->
<g id="Node000001" class="node">
<title>Node1</title>
<g id="a_Node000001"><a xlink:title=" ">
<polygon fill="#999999" stroke="#666666" points="107,-158 0,-158 0,-128 107,-128 107,-158"/>
<text text-anchor="start" x="8" y="-146" font-family="Helvetica,sans-Serif" font-size="10.00">core::file::FileReader</text>
<text text-anchor="middle" x="53.5" y="-135" font-family="Helvetica,sans-Serif" font-size="10.00">::onEvent</text>
</a>
</g>
</g>
<!-- Node2 -->
<g id="Node000002" class="node">
<title>Node2</title>
<g id="a_Node000002"><a xlink:href="classcore_1_1pipe_1_1Source.html#a7cdfe3494b76d59780750d8af228f1d1" target="_top" xlink:title=" ">
<polygon fill="white" stroke="#666666" points="259.5,-275.5 143.5,-275.5 143.5,-256.5 259.5,-256.5 259.5,-275.5"/>
<text text-anchor="middle" x="201.5" y="-263.5" font-family="Helvetica,sans-Serif" font-size="10.00">core::pipe::Source::eof</text>
</a>
</g>
</g>
<!-- Node1&#45;&gt;Node2 -->
<g id="edge1_Node000001_Node000002" class="edge">
<title>Node1&#45;&gt;Node2</title>
<g id="a_edge1_Node000001_Node000002"><a xlink:title=" ">
<path fill="none" stroke="#63b8ff" d="M63.44,-158.01C77.58,-180.51 107.2,-222.91 143,-247 145.92,-248.97 149.07,-250.75 152.32,-252.35"/>
<polygon fill="#63b8ff" stroke="#63b8ff" points="151.14,-255.65 161.71,-256.43 153.93,-249.23 151.14,-255.65"/>
</a>
</g>
</g>
<!-- Node5 -->
<g id="Node000005" class="node">
<title>Node5</title>
<g id="a_Node000005"><a xlink:href="classcore_1_1pipe_1_1Source.html#a179b74c2582275beb312423905f9cbd4" target="_top" xlink:title=" ">
<polygon fill="white" stroke="#666666" points="249.5,-238 153.5,-238 153.5,-208 249.5,-208 249.5,-238"/>
<text text-anchor="start" x="161.5" y="-226" font-family="Helvetica,sans-Serif" font-size="10.00">core::pipe::Source</text>
<text text-anchor="middle" x="201.5" y="-215" font-family="Helvetica,sans-Serif" font-size="10.00">::error</text>
</a>
</g>
</g>
<!-- Node1&#45;&gt;Node5 -->
<g id="edge4_Node000001_Node000005" class="edge">
<title>Node1&#45;&gt;Node5</title>
<g id="a_edge4_Node000001_Node000005"><a xlink:title=" ">
<path fill="none" stroke="#63b8ff" d="M76.07,-158.1C93.63,-170.03 119.29,-186.66 143,-199 146.07,-200.6 149.27,-202.17 152.51,-203.7"/>
<polygon fill="#63b8ff" stroke="#63b8ff" points="151.18,-206.94 161.73,-207.87 154.07,-200.56 151.18,-206.94"/>
</a>
</g>
</g>
<!-- Node8 -->
<g id="Node000008" class="node">
<title>Node8</title>
<g id="a_Node000008"><a xlink:href="namespacecore.html#ac748365ac1e79353b3d6218a60216bd4" target="_top" xlink:title=" ">
<polygon fill="white" stroke="#666666" points="256.5,-189.5 146.5,-189.5 146.5,-170.5 256.5,-170.5 256.5,-189.5"/>
<text text-anchor="middle" x="201.5" y="-177.5" font-family="Helvetica,sans-Serif" font-size="10.00">core::eventLoopState</text>
</a>
</g>
</g>
<!-- Node1&#45;&gt;Node8 -->
<g id="edge7_Node000001_Node000008" class="edge">
<title>Node1&#45;&gt;Node8</title>
<g id="a_edge7_Node000001_Node000008"><a xlink:title=" ">
<path fill="none" stroke="#63b8ff" d="M107.21,-156.36C122.21,-160.16 138.45,-164.27 153.11,-167.99"/>
<polygon fill="#63b8ff" stroke="#63b8ff" points="152.42,-171.43 162.97,-170.49 154.14,-164.64 152.42,-171.43"/>
</a>
</g>
</g>
<!-- Node10 -->
<g id="Node000010" class="node">
<title>Node10</title>
<g id="a_Node000010"><a xlink:href="classcore_1_1Descriptor.html#af1ac9826d5c5f44bb357c845932ea5e4" target="_top" xlink:title=" ">
<polygon fill="white" stroke="#666666" points="260,-152.5 143,-152.5 143,-133.5 260,-133.5 260,-152.5"/>
<text text-anchor="middle" x="201.5" y="-140.5" font-family="Helvetica,sans-Serif" font-size="10.00">core::Descriptor::getFd</text>
</a>
</g>
</g>
<!-- Node1&#45;&gt;Node10 -->
<g id="edge9_Node000001_Node000010" class="edge">
<title>Node1&#45;&gt;Node10</title>
<g id="a_edge9_Node000001_Node000010"><a xlink:title=" ">
<path fill="none" stroke="#63b8ff" d="M107.21,-143C115.55,-143 124.27,-143 132.88,-143"/>
<polygon fill="#63b8ff" stroke="#63b8ff" points="132.93,-146.5 142.93,-143 132.93,-139.5 132.93,-146.5"/>
</a>
</g>
</g>
<!-- Node11 -->
<g id="Node000011" class="node">
<title>Node11</title>
<g id="a_Node000011"><a xlink:href="namespacecore_1_1system.html#a38a2ef544196b684eb5850c42e8ee770" target="_top" xlink:title=" ">
<polygon fill="white" stroke="#666666" points="250.5,-115.5 152.5,-115.5 152.5,-96.5 250.5,-96.5 250.5,-115.5"/>
<text text-anchor="middle" x="201.5" y="-103.5" font-family="Helvetica,sans-Serif" font-size="10.00">core::system::read</text>
</a>
</g>
</g>
<!-- Node1&#45;&gt;Node11 -->
<g id="edge10_Node000001_Node000011" class="edge">
<title>Node1&#45;&gt;Node11</title>
<g id="a_edge10_Node000001_Node000011"><a xlink:title=" ">
<path fill="none" stroke="#63b8ff" d="M107.21,-129.64C122.21,-125.84 138.45,-121.73 153.11,-118.01"/>
<polygon fill="#63b8ff" stroke="#63b8ff" points="154.14,-121.36 162.97,-115.51 152.42,-114.57 154.14,-121.36"/>
</a>
</g>
</g>
<!-- Node12 -->
<g id="Node000012" class="node">
<title>Node12</title>
<g id="a_Node000012"><a xlink:href="classcore_1_1pipe_1_1Source.html#a400ff14fdb42b001f6cd9ad6de306ea3" target="_top" xlink:title=" ">
<polygon fill="white" stroke="#666666" points="249.5,-78 153.5,-78 153.5,-48 249.5,-48 249.5,-78"/>
<text text-anchor="start" x="161.5" y="-66" font-family="Helvetica,sans-Serif" font-size="10.00">core::pipe::Source</text>
<text text-anchor="middle" x="201.5" y="-55" font-family="Helvetica,sans-Serif" font-size="10.00">::send</text>
</a>
</g>
</g>
<!-- Node1&#45;&gt;Node12 -->
<g id="edge11_Node000001_Node000012" class="edge">
<title>Node1&#45;&gt;Node12</title>
<g id="a_edge11_Node000001_Node000012"><a xlink:title=" ">
<path fill="none" stroke="#63b8ff" d="M76.89,-127.82C94.46,-116.21 119.77,-100.18 143,-88 146.69,-86.07 150.56,-84.15 154.47,-82.29"/>
<polygon fill="#63b8ff" stroke="#63b8ff" points="156,-85.44 163.62,-78.08 153.07,-79.08 156,-85.44"/>
</a>
</g>
</g>
<!-- Node15 -->
<g id="Node000015" class="node">
<title>Node15</title>
<g id="a_Node000015"><a xlink:href="classcore_1_1EventReceiver.html#ad353e97a9089b2769e52f8825e4878b1" target="_top" xlink:title=" ">
<polygon fill="white" stroke="#666666" points="254.5,-30 148.5,-30 148.5,0 254.5,0 254.5,-30"/>
<text text-anchor="start" x="156.5" y="-18" font-family="Helvetica,sans-Serif" font-size="10.00">core::EventReceiver</text>
<text text-anchor="middle" x="201.5" y="-7" font-family="Helvetica,sans-Serif" font-size="10.00">::span</text>
</a>
</g>
</g>
<!-- Node1&#45;&gt;Node15 -->
<g id="edge14_Node000001_Node000015" class="edge">
<title>Node1&#45;&gt;Node15</title>
<g id="a_edge14_Node000001_Node000015"><a xlink:title=" ">
<path fill="none" stroke="#63b8ff" d="M63.91,-127.97C78.45,-105.81 108.34,-64.3 143,-39 144.85,-37.65 146.78,-36.36 148.77,-35.13"/>
<polygon fill="#63b8ff" stroke="#63b8ff" points="150.77,-38.03 157.81,-30.11 147.37,-31.91 150.77,-38.03"/>
</a>
</g>
</g>
<!-- Node3 -->
<g id="Node000003" class="node">
<title>Node3</title>
<g id="a_Node000003"><a xlink:href="classcore_1_1pipe_1_1Sink.html#afbf58be8cf3b9b3ed0ffd06e9e586539" target="_top" xlink:title=" ">
<polygon fill="white" stroke="#666666" points="435,-275.5 299,-275.5 299,-256.5 435,-256.5 435,-275.5"/>
<text text-anchor="middle" x="367" y="-263.5" font-family="Helvetica,sans-Serif" font-size="10.00">core::pipe::Sink::streamEof</text>
</a>
</g>
</g>
<!-- Node2&#45;&gt;Node3 -->
<g id="edge2_Node000002_Node000003" class="edge">
<title>Node2&#45;&gt;Node3</title>
<g id="a_edge2_Node000002_Node000003"><a xlink:title=" ">
<path fill="none" stroke="#63b8ff" d="M259.68,-266C269.05,-266 278.89,-266 288.64,-266"/>
<polygon fill="#63b8ff" stroke="#63b8ff" points="288.75,-269.5 298.75,-266 288.75,-262.5 288.75,-269.5"/>
</a>
</g>
</g>
<!-- Node4 -->
<g id="Node000004" class="node">
<title>Node4</title>
<g id="a_Node000004"><a xlink:href="classcore_1_1pipe_1_1Sink.html#a4485cdfe60dd8a6a0b167b0bd69a64fd" target="_top" xlink:title=" ">
<polygon fill="white" stroke="#666666" points="624,-275.5 477,-275.5 477,-256.5 624,-256.5 624,-275.5"/>
<text text-anchor="middle" x="550.5" y="-263.5" font-family="Helvetica,sans-Serif" font-size="10.00">core::pipe::Sink::onSourceEof</text>
</a>
</g>
</g>
<!-- Node3&#45;&gt;Node4 -->
<g id="edge3_Node000003_Node000004" class="edge">
<title>Node3&#45;&gt;Node4</title>
<g id="a_edge3_Node000003_Node000004"><a xlink:title=" ">
<path fill="none" stroke="#63b8ff" d="M435.07,-266C445.4,-266 456.17,-266 466.79,-266"/>
<polygon fill="#63b8ff" stroke="#63b8ff" points="466.91,-269.5 476.91,-266 466.91,-262.5 466.91,-269.5"/>
</a>
</g>
</g>
<!-- Node6 -->
<g id="Node000006" class="node">
<title>Node6</title>
<g id="a_Node000006"><a xlink:href="classcore_1_1pipe_1_1Sink.html#a745687d054a566ae2a15301bc5ee0393" target="_top" xlink:title=" ">
<polygon fill="white" stroke="#666666" points="427.5,-238 306.5,-238 306.5,-208 427.5,-208 427.5,-238"/>
<text text-anchor="start" x="314.5" y="-226" font-family="Helvetica,sans-Serif" font-size="10.00">core::pipe::Sink::stream</text>
<text text-anchor="middle" x="367" y="-215" font-family="Helvetica,sans-Serif" font-size="10.00">Error</text>
</a>
</g>
</g>
<!-- Node5&#45;&gt;Node6 -->
<g id="edge5_Node000005_Node000006" class="edge">
<title>Node5&#45;&gt;Node6</title>
<g id="a_edge5_Node000005_Node000006"><a xlink:title=" ">
<path fill="none" stroke="#63b8ff" d="M249.79,-223C264.26,-223 280.49,-223 296.13,-223"/>
<polygon fill="#63b8ff" stroke="#63b8ff" points="296.29,-226.5 306.29,-223 296.29,-219.5 296.29,-226.5"/>
</a>
</g>
</g>
<!-- Node7 -->
<g id="Node000007" class="node">
<title>Node7</title>
<g id="a_Node000007"><a xlink:href="classcore_1_1pipe_1_1Sink.html#ae6252a06b8a6c18ded21f2b190683531" target="_top" xlink:title=" ">
<polygon fill="white" stroke="#666666" points="616.5,-238 484.5,-238 484.5,-208 616.5,-208 616.5,-238"/>
<text text-anchor="start" x="492.5" y="-226" font-family="Helvetica,sans-Serif" font-size="10.00">core::pipe::Sink::onSource</text>
<text text-anchor="middle" x="550.5" y="-215" font-family="Helvetica,sans-Serif" font-size="10.00">Error</text>
</a>
</g>
</g>
<!-- Node6&#45;&gt;Node7 -->
<g id="edge6_Node000006_Node000007" class="edge">
<title>Node6&#45;&gt;Node7</title>
<g id="a_edge6_Node000006_Node000007"><a xlink:title=" ">
<path fill="none" stroke="#63b8ff" d="M427.68,-223C442.6,-223 458.79,-223 474.35,-223"/>
<polygon fill="#63b8ff" stroke="#63b8ff" points="474.46,-226.5 484.46,-223 474.46,-219.5 474.46,-226.5"/>
</a>
</g>
</g>
<!-- Node9 -->
<g id="Node000009" class="node">
<title>Node9</title>
<g id="a_Node000009"><a xlink:href="classcore_1_1EventLoop.html#a2a5630955f1449eb2141e711985590a7" target="_top" xlink:title=" ">
<polygon fill="white" stroke="#666666" points="433.5,-190 300.5,-190 300.5,-160 433.5,-160 433.5,-190"/>
<text text-anchor="start" x="308.5" y="-178" font-family="Helvetica,sans-Serif" font-size="10.00">core::EventLoop::getEvent</text>
<text text-anchor="middle" x="367" y="-167" font-family="Helvetica,sans-Serif" font-size="10.00">LoopState</text>
</a>
</g>
</g>
<!-- Node8&#45;&gt;Node9 -->
<g id="edge8_Node000008_Node000009" class="edge">
<title>Node8&#45;&gt;Node9</title>
<g id="a_edge8_Node000008_Node000009"><a xlink:title=" ">
<path fill="none" stroke="#63b8ff" d="M256.94,-178.34C267.61,-178.01 278.98,-177.66 290.2,-177.32"/>
<polygon fill="#63b8ff" stroke="#63b8ff" points="290.55,-180.81 300.44,-177 290.33,-173.81 290.55,-180.81"/>
</a>
</g>
</g>
<!-- Node13 -->
<g id="Node000013" class="node">
<title>Node13</title>
<g id="a_Node000013"><a xlink:href="classcore_1_1pipe_1_1Sink.html#ae52db9744617834b75f5ffa45f661b18" target="_top" xlink:title=" ">
<polygon fill="white" stroke="#666666" points="438,-72.5 296,-72.5 296,-53.5 438,-53.5 438,-72.5"/>
<text text-anchor="middle" x="367" y="-60.5" font-family="Helvetica,sans-Serif" font-size="10.00">core::pipe::Sink::streamData</text>
</a>
</g>
</g>
<!-- Node12&#45;&gt;Node13 -->
<g id="edge12_Node000012_Node000013" class="edge">
<title>Node12&#45;&gt;Node13</title>
<g id="a_edge12_Node000012_Node000013"><a xlink:title=" ">
<path fill="none" stroke="#63b8ff" d="M249.79,-63C260.99,-63 273.25,-63 285.47,-63"/>
<polygon fill="#63b8ff" stroke="#63b8ff" points="285.7,-66.5 295.7,-63 285.7,-59.5 285.7,-66.5"/>
</a>
</g>
</g>
<!-- Node14 -->
<g id="Node000014" class="node">
<title>Node14</title>
<g id="a_Node000014"><a xlink:href="classcore_1_1pipe_1_1Sink.html#abe361ff8d262bf5a72447eea469cbdd8" target="_top" xlink:title=" ">
<polygon fill="white" stroke="#666666" points="627,-72.5 474,-72.5 474,-53.5 627,-53.5 627,-72.5"/>
<text text-anchor="middle" x="550.5" y="-60.5" font-family="Helvetica,sans-Serif" font-size="10.00">core::pipe::Sink::onSourceData</text>
</a>
</g>
</g>
<!-- Node13&#45;&gt;Node14 -->
<g id="edge13_Node000013_Node000014" class="edge">
<title>Node13&#45;&gt;Node14</title>
<g id="a_edge13_Node000013_Node000014"><a xlink:title=" ">
<path fill="none" stroke="#63b8ff" d="M438.17,-63C446.56,-63 455.2,-63 463.77,-63"/>
<polygon fill="#63b8ff" stroke="#63b8ff" points="463.8,-66.5 473.8,-63 463.8,-59.5 463.8,-66.5"/>
</a>
</g>
</g>
<!-- Node16 -->
<g id="Node000016" class="node">
<title>Node16</title>
<g id="a_Node000016"><a xlink:href="classcore_1_1Event.html#a0a68a616082e2b1aece96499a439884f" target="_top" xlink:title=" ">
<polygon fill="white" stroke="#666666" points="414,-24.5 320,-24.5 320,-5.5 414,-5.5 414,-24.5"/>
<text text-anchor="middle" x="367" y="-12.5" font-family="Helvetica,sans-Serif" font-size="10.00">core::Event::span</text>
</a>
</g>
</g>
<!-- Node15&#45;&gt;Node16 -->
<g id="edge15_Node000015_Node000016" class="edge">
<title>Node15&#45;&gt;Node16</title>
<g id="a_edge15_Node000015_Node000016"><a xlink:title=" ">
<path fill="none" stroke="#63b8ff" d="M254.68,-15C272.18,-15 291.77,-15 309.58,-15"/>
<polygon fill="#63b8ff" stroke="#63b8ff" points="309.83,-18.5 319.83,-15 309.83,-11.5 309.83,-18.5"/>
</a>
</g>
</g>
<!-- Node17 -->
<g id="Node000017" class="node">
<title>Node17</title>
<g id="a_Node000017"><a xlink:href="classcore_1_1EventMultiplexer.html#a61d96e95daaebfe6c3b980a2a847bb21" target="_top" xlink:title=" ">
<polygon fill="white" stroke="#666666" points="607.5,-30 493.5,-30 493.5,0 607.5,0 607.5,-30"/>
<text text-anchor="start" x="501.5" y="-18" font-family="Helvetica,sans-Serif" font-size="10.00">core::EventMultiplexer</text>
<text text-anchor="middle" x="550.5" y="-7" font-family="Helvetica,sans-Serif" font-size="10.00">::span</text>
</a>
</g>
</g>
<!-- Node16&#45;&gt;Node17 -->
<g id="edge16_Node000016_Node000017" class="edge">
<title>Node16&#45;&gt;Node17</title>
<g id="a_edge16_Node000016_Node000017"><a xlink:title=" ">
<path fill="none" stroke="#63b8ff" d="M414.27,-15C435.13,-15 460.15,-15 482.97,-15"/>
<polygon fill="#63b8ff" stroke="#63b8ff" points="483.27,-18.5 493.27,-15 483.27,-11.5 483.27,-18.5"/>
</a>
</g>
</g>
<!-- Node18 -->
<g id="Node000018" class="node">
<title>Node18</title>
<g id="a_Node000018"><a xlink:href="classcore_1_1EventMultiplexer_1_1EventQueue.html#a009075f2f16a78d3bf8d9e3a20226336" target="_top" xlink:title=" ">
<polygon fill="white" stroke="#666666" points="777,-30 663,-30 663,0 777,0 777,-30"/>
<text text-anchor="start" x="671" y="-18" font-family="Helvetica,sans-Serif" font-size="10.00">core::EventMultiplexer</text>
<text text-anchor="middle" x="720" y="-7" font-family="Helvetica,sans-Serif" font-size="10.00">::EventQueue::insert</text>
</a>
</g>
</g>
<!-- Node17&#45;&gt;Node18 -->
<g id="edge17_Node000017_Node000018" class="edge">
<title>Node17&#45;&gt;Node18</title>
<g id="a_edge17_Node000017_Node000018"><a xlink:title=" ">
<path fill="none" stroke="#63b8ff" d="M607.74,-15C622.18,-15 637.85,-15 652.74,-15"/>
<polygon fill="#63b8ff" stroke="#63b8ff" points="652.91,-18.5 662.91,-15 652.91,-11.5 652.91,-18.5"/>
</a>
</g>
</g>
</g>
</svg>
