<?xml version="1.0" encoding="UTF-8" standalone="no"?>
<!DOCTYPE svg PUBLIC "-//W3C//DTD SVG 1.1//EN"
 "http://www.w3.org/Graphics/SVG/1.1/DTD/svg11.dtd">
<!-- Generated by graphviz version 14.1.1 (0)
 -->
<!-- Title: iot::mqtt::types::TypeBase::setSize Pages: 1 -->
<svg width="523pt" height="326pt"
 viewBox="0.00 0.00 523.00 326.00" xmlns="http://www.w3.org/2000/svg" xmlns:xlink="http://www.w3.org/1999/xlink">
<g id="graph0" class="graph" transform="scale(1 1) rotate(0) translate(4 321.5)">
<title>iot::mqtt::types::TypeBase::setSize</title>
<!-- Node1 -->
<g id="Node000001" class="node">
<title>Node1</title>
<g id="a_Node000001"><a xlink:title=" ">
<polygon fill="#999999" stroke="#666666" points="515.25,-206.5 371.75,-206.5 371.75,-173 515.25,-173 515.25,-206.5"/>
<text xml:space="preserve" text-anchor="start" x="379.75" y="-193" font-family="Helvetica,sans-Serif" font-size="10.00">iot::mqtt::types::TypeBase</text>
<text xml:space="preserve" text-anchor="middle" x="443.5" y="-180.25" font-family="Helvetica,sans-Serif" font-size="10.00">::setSize</text>
</a>
</g>
</g>
<!-- Node2 -->
<g id="Node000002" class="node">
<title>Node2</title>
<g id="a_Node000002"><a xlink:href="classiot_1_1mqtt_1_1types_1_1BinaryData.html#a1013968f344390903b9f3c30862597a9" target="_top" xlink:title=" ">
<polygon fill="white" stroke="#666666" points="335.75,-274.5 207.25,-274.5 207.25,-241 335.75,-241 335.75,-274.5"/>
<text xml:space="preserve" text-anchor="start" x="215.25" y="-261" font-family="Helvetica,sans-Serif" font-size="10.00">iot::mqtt::types::Binary</text>
<text xml:space="preserve" text-anchor="middle" x="271.5" y="-248.25" font-family="Helvetica,sans-Serif" font-size="10.00">Data::deserialize</text>
</a>
</g>
</g>
<!-- Node1&#45;&gt;Node2 -->
<g id="edge1_Node000001_Node000002" class="edge">
<title>Node1&#45;&gt;Node2</title>
<g id="a_edge1_Node000001_Node000002"><a xlink:title=" ">
<path fill="none" stroke="#63b8ff" d="M389,-211.15C365.27,-220.64 337.73,-231.66 315.38,-240.6"/>
<polygon fill="#63b8ff" stroke="#63b8ff" points="390.21,-214.44 398.2,-207.47 387.61,-207.94 390.21,-214.44"/>
</a>
</g>
</g>
<!-- Node3 -->
<g id="Node000003" class="node">
<title>Node3</title>
<g id="a_Node000003"><a xlink:href="classiot_1_1mqtt_1_1types_1_1String.html#a449e269d1266184584827fd75af2aa4d" target="_top" xlink:title=" ">
<polygon fill="white" stroke="#666666" points="334.25,-184.5 208.75,-184.5 208.75,-151 334.25,-151 334.25,-184.5"/>
<text xml:space="preserve" text-anchor="start" x="216.75" y="-171" font-family="Helvetica,sans-Serif" font-size="10.00">iot::mqtt::types::String</text>
<text xml:space="preserve" text-anchor="middle" x="271.5" y="-158.25" font-family="Helvetica,sans-Serif" font-size="10.00">::deserialize</text>
</a>
</g>
</g>
<!-- Node1&#45;&gt;Node3 -->
<g id="edge2_Node000001_Node000003" class="edge">
<title>Node1&#45;&gt;Node3</title>
<g id="a_edge2_Node000001_Node000003"><a xlink:title=" ">
<path fill="none" stroke="#63b8ff" d="M360.17,-179.09C351.59,-177.99 342.98,-176.87 334.68,-175.8"/>
<polygon fill="#63b8ff" stroke="#63b8ff" points="359.52,-182.54 369.89,-180.35 360.42,-175.6 359.52,-182.54"/>
</a>
</g>
</g>
<!-- Node5 -->
<g id="Node000005" class="node">
<title>Node5</title>
<g id="a_Node000005"><a xlink:href="classiot_1_1mqtt_1_1client_1_1packets_1_1Publish.html#ac2e5ff063721bccc259999b9cb04a973" target="_top" xlink:title=" ">
<polygon fill="white" stroke="#666666" points="169,-317.5 2.25,-317.5 2.25,-284 169,-284 169,-317.5"/>
<text xml:space="preserve" text-anchor="start" x="10.25" y="-304" font-family="Helvetica,sans-Serif" font-size="10.00">iot::mqtt::client::</text>
<text xml:space="preserve" text-anchor="middle" x="85.62" y="-291.25" font-family="Helvetica,sans-Serif" font-size="10.00">packets::Publish::deserializeVP</text>
</a>
</g>
</g>
<!-- Node1&#45;&gt;Node5 -->
<g id="edge9_Node000001_Node000005" class="edge">
<title>Node1&#45;&gt;Node5</title>
<g id="a_edge9_Node000001_Node000005"><a xlink:title=" ">
<path fill="none" stroke="#63b8ff" d="M360.14,-198.42C303.05,-205.56 232.87,-216.9 207.25,-231.75 185.68,-244.25 192.02,-260.97 171.25,-274.75 166.26,-278.06 160.82,-280.97 155.19,-283.52"/>
<polygon fill="#63b8ff" stroke="#63b8ff" points="360.36,-201.92 369.86,-197.23 359.51,-194.97 360.36,-201.92"/>
</a>
</g>
</g>
<!-- Node7 -->
<g id="Node000007" class="node">
<title>Node7</title>
<g id="a_Node000007"><a xlink:href="classiot_1_1mqtt_1_1server_1_1packets_1_1Publish.html#aacd831f07b9932c2061e0545c00a7e48" target="_top" xlink:title=" ">
<polygon fill="white" stroke="#666666" points="169,-33.5 2.25,-33.5 2.25,0 169,0 169,-33.5"/>
<text xml:space="preserve" text-anchor="start" x="10.25" y="-20" font-family="Helvetica,sans-Serif" font-size="10.00">iot::mqtt::server::</text>
<text xml:space="preserve" text-anchor="middle" x="85.62" y="-7.25" font-family="Helvetica,sans-Serif" font-size="10.00">packets::Publish::deserializeVP</text>
</a>
</g>
</g>
<!-- Node1&#45;&gt;Node7 -->
<g id="edge10_Node000001_Node000007" class="edge">
<title>Node1&#45;&gt;Node7</title>
<g id="a_edge10_Node000001_Node000007"><a xlink:title=" ">
<path fill="none" stroke="#63b8ff" d="M405.68,-166.73C354.57,-135.49 258.53,-79.38 171.25,-42.75 163.74,-39.6 155.71,-36.64 147.7,-33.92"/>
<polygon fill="#63b8ff" stroke="#63b8ff" points="403.65,-169.58 414,-171.84 407.31,-163.62 403.65,-169.58"/>
</a>
</g>
</g>
<!-- Node4 -->
<g id="Node000004" class="node">
<title>Node4</title>
<g id="a_Node000004"><a xlink:href="classiot_1_1mqtt_1_1types_1_1StringPair.html#a80347798e64b64f465f1570a697330a5" target="_top" xlink:title=" ">
<polygon fill="white" stroke="#666666" points="148.38,-265.5 22.88,-265.5 22.88,-232 148.38,-232 148.38,-265.5"/>
<text xml:space="preserve" text-anchor="start" x="30.88" y="-252" font-family="Helvetica,sans-Serif" font-size="10.00">iot::mqtt::types::String</text>
<text xml:space="preserve" text-anchor="middle" x="85.62" y="-239.25" font-family="Helvetica,sans-Serif" font-size="10.00">Pair::deserialize</text>
</a>
</g>
</g>
<!-- Node3&#45;&gt;Node4 -->
<g id="edge3_Node000003_Node000004" class="edge">
<title>Node3&#45;&gt;Node4</title>
<g id="a_edge3_Node000003_Node000004"><a xlink:title=" ">
<path fill="none" stroke="#63b8ff" d="M223.42,-189.96C217.91,-192.81 212.42,-195.78 207.25,-198.75 190.58,-208.34 188.62,-214.51 171.25,-222.75 164.03,-226.18 156.25,-229.28 148.44,-232.06"/>
<polygon fill="#63b8ff" stroke="#63b8ff" points="224.59,-193.29 231.93,-185.66 221.43,-187.05 224.59,-193.29"/>
</a>
</g>
</g>
<!-- Node3&#45;&gt;Node5 -->
<g id="edge4_Node000003_Node000005" class="edge">
<title>Node3&#45;&gt;Node5</title>
<g id="a_edge4_Node000003_Node000005"><a xlink:title=" ">
<path fill="none" stroke="#63b8ff" d="M216.27,-191.03C213.04,-193.4 210,-195.97 207.25,-198.75 181,-225.35 199.51,-250.3 171.25,-274.75 167.3,-278.17 162.9,-281.14 158.25,-283.72"/>
<polygon fill="#63b8ff" stroke="#63b8ff" points="218,-194.08 224.49,-185.7 214.19,-188.2 218,-194.08"/>
</a>
</g>
</g>
<!-- Node6 -->
<g id="Node000006" class="node">
<title>Node6</title>
<g id="a_Node000006"><a xlink:href="classiot_1_1mqtt_1_1server_1_1packets_1_1Connect.html#a77281a4861f09b9bc0b11554a0aaa169" target="_top" xlink:title=" ">
<polygon fill="white" stroke="#666666" points="171.25,-213.5 0,-213.5 0,-180 171.25,-180 171.25,-213.5"/>
<text xml:space="preserve" text-anchor="start" x="8" y="-200" font-family="Helvetica,sans-Serif" font-size="10.00">iot::mqtt::server::</text>
<text xml:space="preserve" text-anchor="middle" x="85.62" y="-187.25" font-family="Helvetica,sans-Serif" font-size="10.00">packets::Connect::deserializeVP</text>
</a>
</g>
</g>
<!-- Node3&#45;&gt;Node6 -->
<g id="edge5_Node000003_Node000006" class="edge">
<title>Node3&#45;&gt;Node6</title>
<g id="a_edge5_Node000003_Node000006"><a xlink:title=" ">
<path fill="none" stroke="#63b8ff" d="M197.17,-179.32C188.74,-180.64 180.09,-182.01 171.52,-183.36"/>
<polygon fill="#63b8ff" stroke="#63b8ff" points="197.68,-182.78 207.01,-177.76 196.59,-175.86 197.68,-182.78"/>
</a>
</g>
</g>
<!-- Node3&#45;&gt;Node7 -->
<g id="edge6_Node000003_Node000007" class="edge">
<title>Node3&#45;&gt;Node7</title>
<g id="a_edge6_Node000003_Node000007"><a xlink:title=" ">
<path fill="none" stroke="#63b8ff" d="M245.32,-142.4C233.26,-129.73 218.94,-113.91 207.25,-98.75 189.19,-75.31 194.83,-60.63 171.25,-42.75 166.84,-39.41 162,-36.49 156.93,-33.95"/>
<polygon fill="#63b8ff" stroke="#63b8ff" points="242.74,-144.76 252.2,-149.52 247.77,-139.89 242.74,-144.76"/>
</a>
</g>
</g>
<!-- Node8 -->
<g id="Node000008" class="node">
<title>Node8</title>
<g id="a_Node000008"><a xlink:href="classiot_1_1mqtt_1_1server_1_1packets_1_1Subscribe.html#a0367b91f6fe0df25a0f663ccec668cc4" target="_top" xlink:title=" ">
<polygon fill="white" stroke="#666666" points="142,-161.88 29.25,-161.88 29.25,-115.62 142,-115.62 142,-161.88"/>
<text xml:space="preserve" text-anchor="start" x="37.25" y="-148.38" font-family="Helvetica,sans-Serif" font-size="10.00">iot::mqtt::server::</text>
<text xml:space="preserve" text-anchor="start" x="37.25" y="-135.62" font-family="Helvetica,sans-Serif" font-size="10.00">packets::Subscribe::</text>
<text xml:space="preserve" text-anchor="middle" x="85.62" y="-122.88" font-family="Helvetica,sans-Serif" font-size="10.00">deserializeVP</text>
</a>
</g>
</g>
<!-- Node3&#45;&gt;Node8 -->
<g id="edge7_Node000003_Node000008" class="edge">
<title>Node3&#45;&gt;Node8</title>
<g id="a_edge7_Node000003_Node000008"><a xlink:title=" ">
<path fill="none" stroke="#63b8ff" d="M197.3,-156.2C179.04,-153.33 159.75,-150.28 142.48,-147.56"/>
<polygon fill="#63b8ff" stroke="#63b8ff" points="196.59,-159.64 207.01,-157.74 197.68,-152.72 196.59,-159.64"/>
</a>
</g>
</g>
<!-- Node9 -->
<g id="Node000009" class="node">
<title>Node9</title>
<g id="a_Node000009"><a xlink:href="classiot_1_1mqtt_1_1server_1_1packets_1_1Unsubscribe.html#ad3349a81d31dab3a9202a0286f2b9630" target="_top" xlink:title=" ">
<polygon fill="white" stroke="#666666" points="145.38,-97.88 25.87,-97.88 25.87,-51.62 145.38,-51.62 145.38,-97.88"/>
<text xml:space="preserve" text-anchor="start" x="33.88" y="-84.38" font-family="Helvetica,sans-Serif" font-size="10.00">iot::mqtt::server::</text>
<text xml:space="preserve" text-anchor="start" x="33.88" y="-71.62" font-family="Helvetica,sans-Serif" font-size="10.00">packets::Unsubscribe</text>
<text xml:space="preserve" text-anchor="middle" x="85.62" y="-58.88" font-family="Helvetica,sans-Serif" font-size="10.00">::deserializeVP</text>
</a>
</g>
</g>
<!-- Node3&#45;&gt;Node9 -->
<g id="edge8_Node000003_Node000009" class="edge">
<title>Node3&#45;&gt;Node9</title>
<g id="a_edge8_Node000003_Node000009"><a xlink:title=" ">
<path fill="none" stroke="#63b8ff" d="M236.01,-144.31C217.33,-132.2 193.57,-117.7 171.25,-106.75 163.07,-102.74 154.26,-98.9 145.51,-95.36"/>
<polygon fill="#63b8ff" stroke="#63b8ff" points="234.01,-147.18 244.29,-149.75 237.85,-141.33 234.01,-147.18"/>
</a>
</g>
</g>
</g>
</svg>
