<?xml version="1.0" encoding="UTF-8" standalone="no"?>
<!DOCTYPE svg PUBLIC "-//W3C//DTD SVG 1.1//EN"
 "http://www.w3.org/Graphics/SVG/1.1/DTD/svg11.dtd">
<!-- Generated by graphviz version 2.43.0 (0)
 -->
<!-- Title: iot::mqtt_fast::ControlPacket::getString Pages: 1 -->
<svg width="544pt" height="182pt"
 viewBox="0.00 0.00 544.00 182.00" xmlns="http://www.w3.org/2000/svg" xmlns:xlink="http://www.w3.org/1999/xlink">
<g id="graph0" class="graph" transform="scale(1 1) rotate(0) translate(4 178)">
<title>iot::mqtt_fast::ControlPacket::getString</title>
<!-- Node1 -->
<g id="Node000001" class="node">
<title>Node1</title>
<g id="a_Node000001"><a xlink:title=" ">
<polygon fill="#999999" stroke="#666666" points="536,-102 380,-102 380,-72 536,-72 536,-102"/>
<text text-anchor="start" x="388" y="-90" font-family="Helvetica,sans-Serif" font-size="10.00">iot::mqtt_fast::ControlPacket</text>
<text text-anchor="middle" x="458" y="-79" font-family="Helvetica,sans-Serif" font-size="10.00">::getString</text>
</a>
</g>
</g>
<!-- Node2 -->
<g id="Node000002" class="node">
<title>Node2</title>
<g id="a_Node000002"><a xlink:href="classiot_1_1mqtt__fast_1_1packets_1_1Connect.html#ab6eeb62dc9632ff5915306a32e6bbbcd" target="_top" xlink:title=" ">
<polygon fill="white" stroke="#666666" points="332.5,-174 206.5,-174 206.5,-144 332.5,-144 332.5,-174"/>
<text text-anchor="start" x="214.5" y="-162" font-family="Helvetica,sans-Serif" font-size="10.00">iot::mqtt_fast::packets</text>
<text text-anchor="middle" x="269.5" y="-151" font-family="Helvetica,sans-Serif" font-size="10.00">::Connect::Connect</text>
</a>
</g>
</g>
<!-- Node1&#45;&gt;Node2 -->
<g id="edge1_Node000001_Node000002" class="edge">
<title>Node1&#45;&gt;Node2</title>
<g id="a_edge1_Node000001_Node000002"><a xlink:title=" ">
<path fill="none" stroke="#63b8ff" d="M414.39,-106.13C393.37,-115.3 367.54,-126.18 344,-135 335.83,-138.06 327.07,-141.12 318.55,-143.97"/>
<polygon fill="#63b8ff" stroke="#63b8ff" points="415.93,-109.27 423.68,-102.05 413.12,-102.86 415.93,-109.27"/>
</a>
</g>
</g>
<!-- Node4 -->
<g id="Node000004" class="node">
<title>Node4</title>
<g id="a_Node000004"><a xlink:href="classiot_1_1mqtt__fast_1_1packets_1_1Publish.html#a1dc6ca5cfe9f2e9fb97cbe76bb2822a9" target="_top" xlink:title=" ">
<polygon fill="white" stroke="#666666" points="332.5,-126 206.5,-126 206.5,-96 332.5,-96 332.5,-126"/>
<text text-anchor="start" x="214.5" y="-114" font-family="Helvetica,sans-Serif" font-size="10.00">iot::mqtt_fast::packets</text>
<text text-anchor="middle" x="269.5" y="-103" font-family="Helvetica,sans-Serif" font-size="10.00">::Publish::Publish</text>
</a>
</g>
</g>
<!-- Node1&#45;&gt;Node4 -->
<g id="edge3_Node000001_Node000004" class="edge">
<title>Node1&#45;&gt;Node4</title>
<g id="a_edge3_Node000001_Node000004"><a xlink:title=" ">
<path fill="none" stroke="#63b8ff" d="M369.77,-98.22C357.22,-99.84 344.51,-101.48 332.58,-103.01"/>
<polygon fill="#63b8ff" stroke="#63b8ff" points="370.33,-101.68 379.8,-96.93 369.43,-94.74 370.33,-101.68"/>
</a>
</g>
</g>
<!-- Node5 -->
<g id="Node000005" class="node">
<title>Node5</title>
<g id="a_Node000005"><a xlink:href="classiot_1_1mqtt__fast_1_1packets_1_1Subscribe.html#aa818d2bafb7cf827a5727a4a255cd50c" target="_top" xlink:title=" ">
<polygon fill="white" stroke="#666666" points="332.5,-78 206.5,-78 206.5,-48 332.5,-48 332.5,-78"/>
<text text-anchor="start" x="214.5" y="-66" font-family="Helvetica,sans-Serif" font-size="10.00">iot::mqtt_fast::packets</text>
<text text-anchor="middle" x="269.5" y="-55" font-family="Helvetica,sans-Serif" font-size="10.00">::Subscribe::Subscribe</text>
</a>
</g>
</g>
<!-- Node1&#45;&gt;Node5 -->
<g id="edge5_Node000001_Node000005" class="edge">
<title>Node1&#45;&gt;Node5</title>
<g id="a_edge5_Node000001_Node000005"><a xlink:title=" ">
<path fill="none" stroke="#63b8ff" d="M369.77,-75.78C357.22,-74.16 344.51,-72.52 332.58,-70.99"/>
<polygon fill="#63b8ff" stroke="#63b8ff" points="369.43,-79.26 379.8,-77.07 370.33,-72.32 369.43,-79.26"/>
</a>
</g>
</g>
<!-- Node6 -->
<g id="Node000006" class="node">
<title>Node6</title>
<g id="a_Node000006"><a xlink:href="classiot_1_1mqtt__fast_1_1packets_1_1Unsubscribe.html#a4167da07a281adeda5294ed2e7403542" target="_top" xlink:title=" ">
<polygon fill="white" stroke="#666666" points="344,-30 195,-30 195,0 344,0 344,-30"/>
<text text-anchor="start" x="203" y="-18" font-family="Helvetica,sans-Serif" font-size="10.00">iot::mqtt_fast::packets</text>
<text text-anchor="middle" x="269.5" y="-7" font-family="Helvetica,sans-Serif" font-size="10.00">::Unsubscribe::Unsubscribe</text>
</a>
</g>
</g>
<!-- Node1&#45;&gt;Node6 -->
<g id="edge7_Node000001_Node000006" class="edge">
<title>Node1&#45;&gt;Node6</title>
<g id="a_edge7_Node000001_Node000006"><a xlink:title=" ">
<path fill="none" stroke="#63b8ff" d="M414.39,-67.87C393.37,-58.7 367.54,-47.82 344,-39 335.83,-35.94 327.07,-32.88 318.55,-30.03"/>
<polygon fill="#63b8ff" stroke="#63b8ff" points="413.12,-71.14 423.68,-71.95 415.93,-64.73 413.12,-71.14"/>
</a>
</g>
</g>
<!-- Node3 -->
<g id="Node000003" class="node">
<title>Node3</title>
<g id="a_Node000003"><a xlink:href="classiot_1_1mqtt__fast_1_1SocketContext.html#ac5f5635b2bd6f9b3ae6aabc9c9f31dcf" target="_top" xlink:title=" ">
<polygon fill="white" stroke="#666666" points="159,-102 0,-102 0,-72 159,-72 159,-102"/>
<text text-anchor="start" x="8" y="-90" font-family="Helvetica,sans-Serif" font-size="10.00">iot::mqtt_fast::SocketContext</text>
<text text-anchor="middle" x="79.5" y="-79" font-family="Helvetica,sans-Serif" font-size="10.00">::onReceivedFromPeer</text>
</a>
</g>
</g>
<!-- Node2&#45;&gt;Node3 -->
<g id="edge2_Node000002_Node000003" class="edge">
<title>Node2&#45;&gt;Node3</title>
<g id="a_edge2_Node000002_Node000003"><a xlink:title=" ">
<path fill="none" stroke="#63b8ff" d="M210.82,-140.66C205.45,-138.8 200.11,-136.9 195,-135 167.53,-124.78 136.93,-111.87 114.28,-102.01"/>
<polygon fill="#63b8ff" stroke="#63b8ff" points="209.87,-144.03 220.46,-143.94 212.12,-137.41 209.87,-144.03"/>
</a>
</g>
</g>
<!-- Node4&#45;&gt;Node3 -->
<g id="edge4_Node000004_Node000003" class="edge">
<title>Node4&#45;&gt;Node3</title>
<g id="a_edge4_Node000004_Node000003"><a xlink:title=" ">
<path fill="none" stroke="#63b8ff" d="M196.36,-101.79C184.23,-100.24 171.57,-98.63 159.28,-97.06"/>
<polygon fill="#63b8ff" stroke="#63b8ff" points="196.06,-105.28 206.42,-103.07 196.94,-98.34 196.06,-105.28"/>
</a>
</g>
</g>
<!-- Node5&#45;&gt;Node3 -->
<g id="edge6_Node000005_Node000003" class="edge">
<title>Node5&#45;&gt;Node3</title>
<g id="a_edge6_Node000005_Node000003"><a xlink:title=" ">
<path fill="none" stroke="#63b8ff" d="M196.36,-72.21C184.23,-73.76 171.57,-75.37 159.28,-76.94"/>
<polygon fill="#63b8ff" stroke="#63b8ff" points="196.94,-75.66 206.42,-70.93 196.06,-68.72 196.94,-75.66"/>
</a>
</g>
</g>
<!-- Node6&#45;&gt;Node3 -->
<g id="edge8_Node000006_Node000003" class="edge">
<title>Node6&#45;&gt;Node3</title>
<g id="a_edge8_Node000006_Node000003"><a xlink:title=" ">
<path fill="none" stroke="#63b8ff" d="M210.82,-33.34C205.45,-35.2 200.11,-37.1 195,-39 167.53,-49.22 136.93,-62.13 114.28,-71.99"/>
<polygon fill="#63b8ff" stroke="#63b8ff" points="212.12,-36.59 220.46,-30.06 209.87,-29.97 212.12,-36.59"/>
</a>
</g>
</g>
</g>
</svg>
