<?xml version="1.0" encoding="UTF-8" standalone="no"?>
<!DOCTYPE svg PUBLIC "-//W3C//DTD SVG 1.1//EN"
 "http://www.w3.org/Graphics/SVG/1.1/DTD/svg11.dtd">
<!-- Generated by graphviz version 14.1.1 (0)
 -->
<!-- Title: iot::mqtt::server::broker::SubscriptionTree::TopicLevel::subscribe Pages: 1 -->
<svg width="777pt" height="100pt"
 viewBox="0.00 0.00 777.00 100.00" xmlns="http://www.w3.org/2000/svg" xmlns:xlink="http://www.w3.org/1999/xlink">
<g id="graph0" class="graph" transform="scale(1 1) rotate(0) translate(4 95.88)">
<title>iot::mqtt::server::broker::SubscriptionTree::TopicLevel::subscribe</title>
<!-- Node1 -->
<g id="Node000001" class="node">
<title>Node1</title>
<g id="a_Node000001"><a xlink:title=" ">
<polygon fill="#999999" stroke="#666666" points="768.5,-65.88 635.5,-65.88 635.5,-19.62 768.5,-19.62 768.5,-65.88"/>
<text xml:space="preserve" text-anchor="start" x="643.5" y="-52.38" font-family="Helvetica,sans-Serif" font-size="10.00">iot::mqtt::server::</text>
<text xml:space="preserve" text-anchor="start" x="643.5" y="-39.62" font-family="Helvetica,sans-Serif" font-size="10.00">broker::SubscriptionTree</text>
<text xml:space="preserve" text-anchor="middle" x="702" y="-26.88" font-family="Helvetica,sans-Serif" font-size="10.00">::TopicLevel::subscribe</text>
</a>
</g>
</g>
<!-- Node1&#45;&gt;Node1 -->
<g id="edge6_Node000001_Node000001" class="edge">
<title>Node1&#45;&gt;Node1</title>
<g id="a_edge6_Node000001_Node000001"><a xlink:title=" ">
<path fill="none" stroke="#63b8ff" d="M729.79,-76.61C724.98,-80.98 715.72,-83.88 702,-83.88 678.89,-83.88 668.42,-75.68 670.59,-66"/>
<polygon fill="#63b8ff" stroke="#63b8ff" points="733.01,-78.03 732.92,-67.44 726.38,-75.77 733.01,-78.03"/>
</a>
</g>
</g>
<!-- Node2 -->
<g id="Node000002" class="node">
<title>Node2</title>
<g id="a_Node000002"><a xlink:href="classiot_1_1mqtt_1_1server_1_1broker_1_1SubscriptionTree.html#a6ed80f3b6927c5bb17704d3d75dc1713" target="_top" xlink:title=" ">
<polygon fill="white" stroke="#666666" points="599.5,-65.88 466.5,-65.88 466.5,-19.62 599.5,-19.62 599.5,-65.88"/>
<text xml:space="preserve" text-anchor="start" x="474.5" y="-52.38" font-family="Helvetica,sans-Serif" font-size="10.00">iot::mqtt::server::</text>
<text xml:space="preserve" text-anchor="start" x="474.5" y="-39.62" font-family="Helvetica,sans-Serif" font-size="10.00">broker::SubscriptionTree</text>
<text xml:space="preserve" text-anchor="middle" x="533" y="-26.88" font-family="Helvetica,sans-Serif" font-size="10.00">::subscribe</text>
</a>
</g>
</g>
<!-- Node1&#45;&gt;Node2 -->
<g id="edge1_Node000001_Node000002" class="edge">
<title>Node1&#45;&gt;Node2</title>
<g id="a_edge1_Node000001_Node000002"><a xlink:title=" ">
<path fill="none" stroke="#63b8ff" d="M624.12,-42.75C616.02,-42.75 607.84,-42.75 599.88,-42.75"/>
<polygon fill="#63b8ff" stroke="#63b8ff" points="623.96,-46.25 633.96,-42.75 623.96,-39.25 623.96,-46.25"/>
</a>
</g>
</g>
<!-- Node3 -->
<g id="Node000003" class="node">
<title>Node3</title>
<g id="a_Node000003"><a xlink:href="classiot_1_1mqtt_1_1server_1_1broker_1_1Broker.html#a2f5c56fec4bedbcc73948d46a825e7e6" target="_top" xlink:title=" ">
<polygon fill="white" stroke="#666666" points="430.5,-59.5 293.75,-59.5 293.75,-26 430.5,-26 430.5,-59.5"/>
<text xml:space="preserve" text-anchor="start" x="301.75" y="-46" font-family="Helvetica,sans-Serif" font-size="10.00">iot::mqtt::server::</text>
<text xml:space="preserve" text-anchor="middle" x="362.12" y="-33.25" font-family="Helvetica,sans-Serif" font-size="10.00">broker::Broker::subscribe</text>
</a>
</g>
</g>
<!-- Node2&#45;&gt;Node3 -->
<g id="edge2_Node000002_Node000003" class="edge">
<title>Node2&#45;&gt;Node3</title>
<g id="a_edge2_Node000002_Node000003"><a xlink:title=" ">
<path fill="none" stroke="#63b8ff" d="M454.98,-42.75C446.96,-42.75 438.85,-42.75 430.95,-42.75"/>
<polygon fill="#63b8ff" stroke="#63b8ff" points="454.71,-46.25 464.71,-42.75 454.71,-39.25 454.71,-46.25"/>
</a>
</g>
</g>
<!-- Node4 -->
<g id="Node000004" class="node">
<title>Node4</title>
<g id="a_Node000004"><a xlink:href="classiot_1_1mqtt_1_1server_1_1Mqtt.html#a7a6696d7e956eb1de9b52c7ab2d7c519" target="_top" xlink:title=" ">
<polygon fill="white" stroke="#666666" points="257.75,-85.5 148.75,-85.5 148.75,-52 257.75,-52 257.75,-85.5"/>
<text xml:space="preserve" text-anchor="start" x="156.75" y="-72" font-family="Helvetica,sans-Serif" font-size="10.00">iot::mqtt::server::</text>
<text xml:space="preserve" text-anchor="middle" x="203.25" y="-59.25" font-family="Helvetica,sans-Serif" font-size="10.00">Mqtt::_onSubscribe</text>
</a>
</g>
</g>
<!-- Node3&#45;&gt;Node4 -->
<g id="edge3_Node000003_Node000004" class="edge">
<title>Node3&#45;&gt;Node4</title>
<g id="a_edge3_Node000003_Node000004"><a xlink:title=" ">
<path fill="none" stroke="#63b8ff" d="M282.41,-55.8C274.11,-57.17 265.82,-58.55 257.91,-59.86"/>
<polygon fill="#63b8ff" stroke="#63b8ff" points="282.9,-59.26 292.19,-54.17 281.75,-52.36 282.9,-59.26"/>
</a>
</g>
</g>
<!-- Node6 -->
<g id="Node000006" class="node">
<title>Node6</title>
<g id="a_Node000006"><a xlink:href="classiot_1_1mqtt_1_1server_1_1Mqtt.html#a258107c79ff7581d2b7937c1c71b4480" target="_top" xlink:title=" ">
<polygon fill="white" stroke="#666666" points="253.62,-33.5 152.88,-33.5 152.88,0 253.62,0 253.62,-33.5"/>
<text xml:space="preserve" text-anchor="start" x="160.88" y="-20" font-family="Helvetica,sans-Serif" font-size="10.00">iot::mqtt::server::</text>
<text xml:space="preserve" text-anchor="middle" x="203.25" y="-7.25" font-family="Helvetica,sans-Serif" font-size="10.00">Mqtt::subscribe</text>
</a>
</g>
</g>
<!-- Node3&#45;&gt;Node6 -->
<g id="edge5_Node000003_Node000006" class="edge">
<title>Node3&#45;&gt;Node6</title>
<g id="a_edge5_Node000003_Node000006"><a xlink:title=" ">
<path fill="none" stroke="#63b8ff" d="M282.41,-29.7C272.77,-28.11 263.14,-26.51 254.1,-25.01"/>
<polygon fill="#63b8ff" stroke="#63b8ff" points="281.75,-33.14 292.19,-31.33 282.9,-26.24 281.75,-33.14"/>
</a>
</g>
</g>
<!-- Node5 -->
<g id="Node000005" class="node">
<title>Node5</title>
<g id="a_Node000005"><a xlink:href="classiot_1_1mqtt_1_1server_1_1packets_1_1Subscribe.html#a1a913de8f13c3fb2e0ef6707bb6604af" target="_top" xlink:title=" ">
<polygon fill="white" stroke="#666666" points="112.75,-91.88 0,-91.88 0,-45.62 112.75,-45.62 112.75,-91.88"/>
<text xml:space="preserve" text-anchor="start" x="8" y="-78.38" font-family="Helvetica,sans-Serif" font-size="10.00">iot::mqtt::server::</text>
<text xml:space="preserve" text-anchor="start" x="8" y="-65.62" font-family="Helvetica,sans-Serif" font-size="10.00">packets::Subscribe::</text>
<text xml:space="preserve" text-anchor="middle" x="56.38" y="-52.88" font-family="Helvetica,sans-Serif" font-size="10.00">deliverPacket</text>
</a>
</g>
</g>
<!-- Node4&#45;&gt;Node5 -->
<g id="edge4_Node000004_Node000005" class="edge">
<title>Node4&#45;&gt;Node5</title>
<g id="a_edge4_Node000004_Node000005"><a xlink:title=" ">
<path fill="none" stroke="#63b8ff" d="M137.01,-68.75C128.93,-68.75 120.73,-68.75 112.82,-68.75"/>
<polygon fill="#63b8ff" stroke="#63b8ff" points="136.79,-72.25 146.79,-68.75 136.79,-65.25 136.79,-72.25"/>
</a>
</g>
</g>
</g>
</svg>
