<?xml version="1.0" encoding="UTF-8" standalone="no"?>
<!DOCTYPE svg PUBLIC "-//W3C//DTD SVG 1.1//EN"
 "http://www.w3.org/Graphics/SVG/1.1/DTD/svg11.dtd">
<!-- Generated by graphviz version 2.43.0 (0)
 -->
<!-- Title: iot::mqtt::Mqtt::printStandardHeader Pages: 1 -->
<svg width="642pt" height="206pt"
 viewBox="0.00 0.00 642.00 206.00" xmlns="http://www.w3.org/2000/svg" xmlns:xlink="http://www.w3.org/1999/xlink">
<g id="graph0" class="graph" transform="scale(1 1) rotate(0) translate(4 202)">
<title>iot::mqtt::Mqtt::printStandardHeader</title>
<!-- Node1 -->
<g id="Node000001" class="node">
<title>Node1</title>
<g id="a_Node000001"><a xlink:title=" ">
<polygon fill="#999999" stroke="#666666" points="142,-126 0,-126 0,-96 142,-96 142,-126"/>
<text text-anchor="start" x="8" y="-114" font-family="Helvetica,sans-Serif" font-size="10.00">iot::mqtt::Mqtt::printStandard</text>
<text text-anchor="middle" x="71" y="-103" font-family="Helvetica,sans-Serif" font-size="10.00">Header</text>
</a>
</g>
</g>
<!-- Node2 -->
<g id="Node000002" class="node">
<title>Node2</title>
<g id="a_Node000002"><a xlink:href="classiot_1_1mqtt_1_1Mqtt.html#ab70d673e9ccb125cb5ed2449cfa1492c" target="_top" xlink:title=" ">
<polygon fill="white" stroke="#666666" points="309,-198 178,-198 178,-168 309,-168 309,-198"/>
<text text-anchor="start" x="186" y="-186" font-family="Helvetica,sans-Serif" font-size="10.00">iot::mqtt::Mqtt::dataToHex</text>
<text text-anchor="middle" x="243.5" y="-175" font-family="Helvetica,sans-Serif" font-size="10.00">String</text>
</a>
</g>
</g>
<!-- Node1&#45;&gt;Node2 -->
<g id="edge1_Node000001_Node000002" class="edge">
<title>Node1&#45;&gt;Node2</title>
<g id="a_edge1_Node000001_Node000002"><a xlink:title=" ">
<path fill="none" stroke="#63b8ff" d="M103.76,-126.07C124.68,-135.83 152.78,-148.61 178,-159 182.22,-160.74 186.61,-162.49 191.03,-164.21"/>
<polygon fill="#63b8ff" stroke="#63b8ff" points="190.11,-167.61 200.7,-167.93 192.62,-161.07 190.11,-167.61"/>
</a>
</g>
</g>
<!-- Node3 -->
<g id="Node000003" class="node">
<title>Node3</title>
<g id="a_Node000003"><a xlink:href="classiot_1_1mqtt_1_1ControlPacket.html#a5010a3ec8f0c9d1a95b1fd1e85d77f71" target="_top" xlink:title=" ">
<polygon fill="white" stroke="#666666" points="304,-150 183,-150 183,-120 304,-120 304,-150"/>
<text text-anchor="start" x="191" y="-138" font-family="Helvetica,sans-Serif" font-size="10.00">iot::mqtt::ControlPacket</text>
<text text-anchor="middle" x="243.5" y="-127" font-family="Helvetica,sans-Serif" font-size="10.00">::getFlags</text>
</a>
</g>
</g>
<!-- Node1&#45;&gt;Node3 -->
<g id="edge2_Node000001_Node000003" class="edge">
<title>Node1&#45;&gt;Node3</title>
<g id="a_edge2_Node000001_Node000003"><a xlink:title=" ">
<path fill="none" stroke="#63b8ff" d="M142.33,-120.9C152.45,-122.32 162.85,-123.79 172.95,-125.21"/>
<polygon fill="#63b8ff" stroke="#63b8ff" points="172.53,-128.69 182.92,-126.61 173.51,-121.75 172.53,-128.69"/>
</a>
</g>
</g>
<!-- Node4 -->
<g id="Node000004" class="node">
<title>Node4</title>
<g id="a_Node000004"><a xlink:href="classiot_1_1mqtt_1_1ControlPacket.html#a2010ac4f0ef53a8c8140faa953b5a6cd" target="_top" xlink:title=" ">
<polygon fill="white" stroke="#666666" points="304,-102 183,-102 183,-72 304,-72 304,-102"/>
<text text-anchor="start" x="191" y="-90" font-family="Helvetica,sans-Serif" font-size="10.00">iot::mqtt::ControlPacket</text>
<text text-anchor="middle" x="243.5" y="-79" font-family="Helvetica,sans-Serif" font-size="10.00">::getType</text>
</a>
</g>
</g>
<!-- Node1&#45;&gt;Node4 -->
<g id="edge3_Node000001_Node000004" class="edge">
<title>Node1&#45;&gt;Node4</title>
<g id="a_edge3_Node000001_Node000004"><a xlink:title=" ">
<path fill="none" stroke="#63b8ff" d="M142.33,-101.1C152.45,-99.68 162.85,-98.21 172.95,-96.79"/>
<polygon fill="#63b8ff" stroke="#63b8ff" points="173.51,-100.25 182.92,-95.39 172.53,-93.31 173.51,-100.25"/>
</a>
</g>
</g>
<!-- Node5 -->
<g id="Node000005" class="node">
<title>Node5</title>
<g id="a_Node000005"><a xlink:href="classiot_1_1mqtt_1_1ControlPacket.html#a05bfc24d7ae7380ef9b2fcb64ce37526" target="_top" xlink:title=" ">
<polygon fill="white" stroke="#666666" points="304,-54 183,-54 183,-24 304,-24 304,-54"/>
<text text-anchor="start" x="191" y="-42" font-family="Helvetica,sans-Serif" font-size="10.00">iot::mqtt::ControlPacket</text>
<text text-anchor="middle" x="243.5" y="-31" font-family="Helvetica,sans-Serif" font-size="10.00">::serialize</text>
</a>
</g>
</g>
<!-- Node1&#45;&gt;Node5 -->
<g id="edge4_Node000001_Node000005" class="edge">
<title>Node1&#45;&gt;Node5</title>
<g id="a_edge4_Node000001_Node000005"><a xlink:title=" ">
<path fill="none" stroke="#63b8ff" d="M103.76,-95.93C124.68,-86.17 152.78,-73.39 178,-63 182.22,-61.26 186.61,-59.51 191.03,-57.79"/>
<polygon fill="#63b8ff" stroke="#63b8ff" points="192.62,-60.93 200.7,-54.07 190.11,-54.39 192.62,-60.93"/>
</a>
</g>
</g>
<!-- Node6 -->
<g id="Node000006" class="node">
<title>Node6</title>
<g id="a_Node000006"><a xlink:href="classiot_1_1mqtt_1_1FixedHeader.html#a8f92f1f71ca75c3516c7ba3ff7b0ebf5" target="_top" xlink:title=" ">
<polygon fill="white" stroke="#666666" points="462.5,-78 348.5,-78 348.5,-48 462.5,-48 462.5,-78"/>
<text text-anchor="start" x="356.5" y="-66" font-family="Helvetica,sans-Serif" font-size="10.00">iot::mqtt::FixedHeader</text>
<text text-anchor="middle" x="405.5" y="-55" font-family="Helvetica,sans-Serif" font-size="10.00">::serialize</text>
</a>
</g>
</g>
<!-- Node5&#45;&gt;Node6 -->
<g id="edge5_Node000005_Node000006" class="edge">
<title>Node5&#45;&gt;Node6</title>
<g id="a_edge5_Node000005_Node000006"><a xlink:title=" ">
<path fill="none" stroke="#63b8ff" d="M304.08,-47.94C315.17,-49.6 326.81,-51.35 338.09,-53.04"/>
<polygon fill="#63b8ff" stroke="#63b8ff" points="337.91,-56.55 348.32,-54.57 338.95,-49.63 337.91,-56.55"/>
</a>
</g>
</g>
<!-- Node8 -->
<g id="Node000008" class="node">
<title>Node8</title>
<g id="a_Node000008"><a xlink:href="classiot_1_1mqtt_1_1ControlPacket.html#ab4f58bf0c1920d705af23c8d7636247f" target="_top" xlink:title=" ">
<polygon fill="white" stroke="#666666" points="466,-30 345,-30 345,0 466,0 466,-30"/>
<text text-anchor="start" x="353" y="-18" font-family="Helvetica,sans-Serif" font-size="10.00">iot::mqtt::ControlPacket</text>
<text text-anchor="middle" x="405.5" y="-7" font-family="Helvetica,sans-Serif" font-size="10.00">::serializeVP</text>
</a>
</g>
</g>
<!-- Node5&#45;&gt;Node8 -->
<g id="edge7_Node000005_Node000008" class="edge">
<title>Node5&#45;&gt;Node8</title>
<g id="a_edge7_Node000005_Node000008"><a xlink:title=" ">
<path fill="none" stroke="#63b8ff" d="M304.08,-30.06C314.07,-28.56 324.52,-27 334.75,-25.46"/>
<polygon fill="#63b8ff" stroke="#63b8ff" points="335.5,-28.89 344.87,-23.94 334.46,-21.97 335.5,-28.89"/>
</a>
</g>
</g>
<!-- Node7 -->
<g id="Node000007" class="node">
<title>Node7</title>
<g id="a_Node000007"><a xlink:href="classiot_1_1mqtt_1_1types_1_1TypeBase.html#a7e6939bfafb586b2c2990b485bc5218a" target="_top" xlink:title=" ">
<polygon fill="white" stroke="#666666" points="634,-78 502,-78 502,-48 634,-48 634,-78"/>
<text text-anchor="start" x="510" y="-66" font-family="Helvetica,sans-Serif" font-size="10.00">iot::mqtt::types::TypeBase</text>
<text text-anchor="middle" x="568" y="-55" font-family="Helvetica,sans-Serif" font-size="10.00">::serialize</text>
</a>
</g>
</g>
<!-- Node6&#45;&gt;Node7 -->
<g id="edge6_Node000006_Node000007" class="edge">
<title>Node6&#45;&gt;Node7</title>
<g id="a_edge6_Node000006_Node000007"><a xlink:title=" ">
<path fill="none" stroke="#63b8ff" d="M462.64,-63C472.03,-63 481.91,-63 491.69,-63"/>
<polygon fill="#63b8ff" stroke="#63b8ff" points="491.82,-66.5 501.82,-63 491.82,-59.5 491.82,-66.5"/>
</a>
</g>
</g>
</g>
</svg>
