<?xml version="1.0" encoding="UTF-8" standalone="no"?>
<!DOCTYPE svg PUBLIC "-//W3C//DTD SVG 1.1//EN"
 "http://www.w3.org/Graphics/SVG/1.1/DTD/svg11.dtd">
<!-- Generated by graphviz version 2.43.0 (0)
 -->
<!-- Title: iot::mqtt::server::Mqtt::sendSuback Pages: 1 -->
<svg width="727pt" height="86pt"
 viewBox="0.00 0.00 727.00 86.00" xmlns="http://www.w3.org/2000/svg" xmlns:xlink="http://www.w3.org/1999/xlink">
<g id="graph0" class="graph" transform="scale(1 1) rotate(0) translate(4 82)">
<title>iot::mqtt::server::Mqtt::sendSuback</title>
<!-- Node1 -->
<g id="Node000001" class="node">
<title>Node1</title>
<g id="a_Node000001"><a xlink:title=" ">
<polygon fill="#999999" stroke="#666666" points="96,-54 0,-54 0,-24 96,-24 96,-54"/>
<text text-anchor="start" x="8" y="-42" font-family="Helvetica,sans-Serif" font-size="10.00">iot::mqtt::server::</text>
<text text-anchor="middle" x="48" y="-31" font-family="Helvetica,sans-Serif" font-size="10.00">Mqtt::sendSuback</text>
</a>
</g>
</g>
<!-- Node2 -->
<g id="Node000002" class="node">
<title>Node2</title>
<g id="a_Node000002"><a xlink:href="classiot_1_1mqtt_1_1Mqtt.html#ac2c838576318814d55feaaf87cdca5b9" target="_top" xlink:title=" ">
<polygon fill="white" stroke="#666666" points="237,-48.5 132,-48.5 132,-29.5 237,-29.5 237,-48.5"/>
<text text-anchor="middle" x="184.5" y="-36.5" font-family="Helvetica,sans-Serif" font-size="10.00">iot::mqtt::Mqtt::send</text>
</a>
</g>
</g>
<!-- Node1&#45;&gt;Node2 -->
<g id="edge1_Node000001_Node000002" class="edge">
<title>Node1&#45;&gt;Node2</title>
<g id="a_edge1_Node000001_Node000002"><a xlink:title=" ">
<path fill="none" stroke="#63b8ff" d="M96.04,-39C104.32,-39 113.04,-39 121.65,-39"/>
<polygon fill="#63b8ff" stroke="#63b8ff" points="121.67,-42.5 131.67,-39 121.67,-35.5 121.67,-42.5"/>
</a>
</g>
</g>
<!-- Node2&#45;&gt;Node2 -->
<g id="edge2_Node000002_Node000002" class="edge">
<title>Node2&#45;&gt;Node2</title>
<g id="a_edge2_Node000002_Node000002"><a xlink:title=" ">
<path fill="none" stroke="#63b8ff" d="M163.54,-48.58C153.34,-57.23 160.33,-66.5 184.5,-66.5 199.99,-66.5 208.42,-62.7 209.8,-57.69"/>
<polygon fill="#63b8ff" stroke="#63b8ff" points="212.92,-56.11 205.46,-48.58 206.6,-59.12 212.92,-56.11"/>
</a>
</g>
</g>
<!-- Node3 -->
<g id="Node000003" class="node">
<title>Node3</title>
<g id="a_Node000003"><a xlink:href="classiot_1_1mqtt_1_1ControlPacket.html#a05bfc24d7ae7380ef9b2fcb64ce37526" target="_top" xlink:title=" ">
<polygon fill="white" stroke="#666666" points="394,-54 273,-54 273,-24 394,-24 394,-54"/>
<text text-anchor="start" x="281" y="-42" font-family="Helvetica,sans-Serif" font-size="10.00">iot::mqtt::ControlPacket</text>
<text text-anchor="middle" x="333.5" y="-31" font-family="Helvetica,sans-Serif" font-size="10.00">::serialize</text>
</a>
</g>
</g>
<!-- Node2&#45;&gt;Node3 -->
<g id="edge3_Node000002_Node000003" class="edge">
<title>Node2&#45;&gt;Node3</title>
<g id="a_edge3_Node000002_Node000003"><a xlink:title=" ">
<path fill="none" stroke="#63b8ff" d="M237.33,-39C245.59,-39 254.24,-39 262.83,-39"/>
<polygon fill="#63b8ff" stroke="#63b8ff" points="262.86,-42.5 272.86,-39 262.86,-35.5 262.86,-42.5"/>
</a>
</g>
</g>
<!-- Node4 -->
<g id="Node000004" class="node">
<title>Node4</title>
<g id="a_Node000004"><a xlink:href="classiot_1_1mqtt_1_1FixedHeader.html#a8f92f1f71ca75c3516c7ba3ff7b0ebf5" target="_top" xlink:title=" ">
<polygon fill="white" stroke="#666666" points="547.5,-78 433.5,-78 433.5,-48 547.5,-48 547.5,-78"/>
<text text-anchor="start" x="441.5" y="-66" font-family="Helvetica,sans-Serif" font-size="10.00">iot::mqtt::FixedHeader</text>
<text text-anchor="middle" x="490.5" y="-55" font-family="Helvetica,sans-Serif" font-size="10.00">::serialize</text>
</a>
</g>
</g>
<!-- Node3&#45;&gt;Node4 -->
<g id="edge4_Node000003_Node000004" class="edge">
<title>Node3&#45;&gt;Node4</title>
<g id="a_edge4_Node000003_Node000004"><a xlink:title=" ">
<path fill="none" stroke="#63b8ff" d="M394.43,-48.28C403.91,-49.75 413.77,-51.27 423.38,-52.76"/>
<polygon fill="#63b8ff" stroke="#63b8ff" points="422.87,-56.23 433.29,-54.3 423.94,-49.31 422.87,-56.23"/>
</a>
</g>
</g>
<!-- Node6 -->
<g id="Node000006" class="node">
<title>Node6</title>
<g id="a_Node000006"><a xlink:href="classiot_1_1mqtt_1_1ControlPacket.html#ab4f58bf0c1920d705af23c8d7636247f" target="_top" xlink:title=" ">
<polygon fill="white" stroke="#666666" points="551,-30 430,-30 430,0 551,0 551,-30"/>
<text text-anchor="start" x="438" y="-18" font-family="Helvetica,sans-Serif" font-size="10.00">iot::mqtt::ControlPacket</text>
<text text-anchor="middle" x="490.5" y="-7" font-family="Helvetica,sans-Serif" font-size="10.00">::serializeVP</text>
</a>
</g>
</g>
<!-- Node3&#45;&gt;Node6 -->
<g id="edge6_Node000003_Node000006" class="edge">
<title>Node3&#45;&gt;Node6</title>
<g id="a_edge6_Node000003_Node000006"><a xlink:title=" ">
<path fill="none" stroke="#63b8ff" d="M394.43,-29.72C402.82,-28.42 411.49,-27.08 420.04,-25.76"/>
<polygon fill="#63b8ff" stroke="#63b8ff" points="420.64,-29.2 429.99,-24.21 419.57,-22.29 420.64,-29.2"/>
</a>
</g>
</g>
<!-- Node5 -->
<g id="Node000005" class="node">
<title>Node5</title>
<g id="a_Node000005"><a xlink:href="classiot_1_1mqtt_1_1types_1_1TypeBase.html#a7e6939bfafb586b2c2990b485bc5218a" target="_top" xlink:title=" ">
<polygon fill="white" stroke="#666666" points="719,-78 587,-78 587,-48 719,-48 719,-78"/>
<text text-anchor="start" x="595" y="-66" font-family="Helvetica,sans-Serif" font-size="10.00">iot::mqtt::types::TypeBase</text>
<text text-anchor="middle" x="653" y="-55" font-family="Helvetica,sans-Serif" font-size="10.00">::serialize</text>
</a>
</g>
</g>
<!-- Node4&#45;&gt;Node5 -->
<g id="edge5_Node000004_Node000005" class="edge">
<title>Node4&#45;&gt;Node5</title>
<g id="a_edge5_Node000004_Node000005"><a xlink:title=" ">
<path fill="none" stroke="#63b8ff" d="M547.64,-63C557.03,-63 566.91,-63 576.69,-63"/>
<polygon fill="#63b8ff" stroke="#63b8ff" points="576.82,-66.5 586.82,-63 576.82,-59.5 576.82,-66.5"/>
</a>
</g>
</g>
</g>
</svg>
