<?xml version="1.0" encoding="UTF-8" standalone="no"?>
<!DOCTYPE svg PUBLIC "-//W3C//DTD SVG 1.1//EN"
 "http://www.w3.org/Graphics/SVG/1.1/DTD/svg11.dtd">
<!-- Generated by graphviz version 2.43.0 (0)
 -->
<!-- Title: utils::Timeval::currentTime Pages: 1 -->
<svg width="343pt" height="45pt"
 viewBox="0.00 0.00 343.00 45.00" xmlns="http://www.w3.org/2000/svg" xmlns:xlink="http://www.w3.org/1999/xlink">
<g id="graph0" class="graph" transform="scale(1 1) rotate(0) translate(4 41)">
<title>utils::Timeval::currentTime</title>
<!-- Node1 -->
<g id="Node000001" class="node">
<title>Node1</title>
<g id="a_Node000001"><a xlink:title=" ">
<polygon fill="#999999" stroke="#666666" points="147,-19 0,-19 0,0 147,0 147,-19"/>
<text text-anchor="middle" x="73.5" y="-7" font-family="Helvetica,sans-Serif" font-size="10.00">utils::Timeval::currentTime</text>
</a>
</g>
</g>
<!-- Node1&#45;&gt;Node1 -->
<g id="edge1_Node000001_Node000001" class="edge">
<title>Node1&#45;&gt;Node1</title>
<g id="a_edge1_Node000001_Node000001"><a xlink:title=" ">
<path fill="none" stroke="#63b8ff" d="M45.14,-19.08C31.34,-27.73 40.8,-37 73.5,-37 95.98,-37 107.48,-32.62 107.98,-27.07"/>
<polygon fill="#63b8ff" stroke="#63b8ff" points="110.72,-24.89 101.86,-19.08 105.16,-29.15 110.72,-24.89"/>
</a>
</g>
</g>
<!-- Node2 -->
<g id="Node000002" class="node">
<title>Node2</title>
<g id="a_Node000002"><a xlink:href="namespaceutils_1_1system.html#ad594b7afe9fa80d3db04591c966422b2" target="_top" xlink:title=" ">
<polygon fill="white" stroke="#666666" points="335,-19 183,-19 183,0 335,0 335,-19"/>
<text text-anchor="middle" x="259" y="-7" font-family="Helvetica,sans-Serif" font-size="10.00">utils::system::gettimeofday</text>
</a>
</g>
</g>
<!-- Node1&#45;&gt;Node2 -->
<g id="edge2_Node000001_Node000002" class="edge">
<title>Node1&#45;&gt;Node2</title>
<g id="a_edge2_Node000001_Node000002"><a xlink:title=" ">
<path fill="none" stroke="#63b8ff" d="M147.02,-9.5C155.52,-9.5 164.25,-9.5 172.89,-9.5"/>
<polygon fill="#63b8ff" stroke="#63b8ff" points="172.99,-13 182.99,-9.5 172.99,-6 172.99,-13"/>
</a>
</g>
</g>
</g>
</svg>
