<?xml version="1.0" encoding="UTF-8" standalone="no"?>
<!DOCTYPE svg PUBLIC "-//W3C//DTD SVG 1.1//EN"
 "http://www.w3.org/Graphics/SVG/1.1/DTD/svg11.dtd">
<!-- Generated by graphviz version 2.42.4 (0)
 -->
<!-- Title: web::http::server::SocketContextUpgradeFactorySelector::instance Pages: 1 -->
<svg width="626pt" height="146pt"
 viewBox="0.00 0.00 626.00 145.50" xmlns="http://www.w3.org/2000/svg" xmlns:xlink="http://www.w3.org/1999/xlink">
<g id="graph0" class="graph" transform="scale(1 1) rotate(0) translate(4 141.5)">
<title>web::http::server::SocketContextUpgradeFactorySelector::instance</title>
<!-- Node1 -->
<g id="Node000001" class="node">
<title>Node1</title>
<g id="a_Node000001"><a xlink:title=" ">
<polygon fill="#999999" stroke="#666666" points="618,-83.5 454,-83.5 454,-42.5 618,-42.5 618,-83.5"/>
<text text-anchor="start" x="462" y="-71.5" font-family="Helvetica,sans-Serif" font-size="10.00">web::http::server::</text>
<text text-anchor="start" x="462" y="-60.5" font-family="Helvetica,sans-Serif" font-size="10.00">SocketContextUpgradeFactory</text>
<text text-anchor="middle" x="536" y="-49.5" font-family="Helvetica,sans-Serif" font-size="10.00">Selector::instance</text>
</a>
</g>
</g>
<!-- Node2 -->
<g id="Node000002" class="node">
<title>Node2</title>
<g id="a_Node000002"><a xlink:href="classweb_1_1http_1_1server_1_1SocketContextUpgradeFactory.html#ad6da4e4f4825434741da9130a3d77e46" target="_top" xlink:title=" ">
<polygon fill="white" stroke="#666666" points="406,-137.5 242,-137.5 242,-96.5 406,-96.5 406,-137.5"/>
<text text-anchor="start" x="250" y="-125.5" font-family="Helvetica,sans-Serif" font-size="10.00">web::http::server::</text>
<text text-anchor="start" x="250" y="-114.5" font-family="Helvetica,sans-Serif" font-size="10.00">SocketContextUpgradeFactory</text>
<text text-anchor="middle" x="324" y="-103.5" font-family="Helvetica,sans-Serif" font-size="10.00">::checkRefCount</text>
</a>
</g>
</g>
<!-- Node1&#45;&gt;Node2 -->
<g id="edge1_Node000001_Node000002" class="edge">
<title>Node1&#45;&gt;Node2</title>
<g id="a_edge1_Node000001_Node000002"><a xlink:title=" ">
<path fill="none" stroke="#63b8ff" d="M445.28,-86.07C431.81,-89.53 418.01,-93.08 404.77,-96.49"/>
<polygon fill="#63b8ff" stroke="#63b8ff" points="446.2,-89.45 455.01,-83.57 444.45,-82.67 446.2,-89.45"/>
</a>
</g>
</g>
<!-- Node4 -->
<g id="Node000004" class="node">
<title>Node4</title>
<g id="a_Node000004"><a xlink:href="classweb_1_1http_1_1server_1_1SocketContextUpgradeFactory.html#a2e553e76ad8cc76fb226b7bb4c3c5aed" target="_top" xlink:title=" ">
<polygon fill="white" stroke="#666666" points="418,-78 230,-78 230,-48 418,-48 418,-78"/>
<text text-anchor="start" x="238" y="-66" font-family="Helvetica,sans-Serif" font-size="10.00">web::http::server::</text>
<text text-anchor="middle" x="324" y="-55" font-family="Helvetica,sans-Serif" font-size="10.00">SocketContextUpgradeFactory::link</text>
</a>
</g>
</g>
<!-- Node1&#45;&gt;Node4 -->
<g id="edge3_Node000001_Node000004" class="edge">
<title>Node1&#45;&gt;Node4</title>
<g id="a_edge3_Node000001_Node000004"><a xlink:title=" ">
<path fill="none" stroke="#63b8ff" d="M443.61,-63C435.19,-63 426.65,-63 418.21,-63"/>
<polygon fill="#63b8ff" stroke="#63b8ff" points="443.81,-66.5 453.81,-63 443.81,-59.5 443.81,-66.5"/>
</a>
</g>
</g>
<!-- Node6 -->
<g id="Node000006" class="node">
<title>Node6</title>
<g id="a_Node000006"><a xlink:href="classweb_1_1http_1_1server_1_1Response.html#a8f4c6c3aca5a951524bfa98527218dac" target="_top" xlink:title=" ">
<polygon fill="white" stroke="#666666" points="379,-30 269,-30 269,0 379,0 379,-30"/>
<text text-anchor="start" x="277" y="-18" font-family="Helvetica,sans-Serif" font-size="10.00">web::http::server::</text>
<text text-anchor="middle" x="324" y="-7" font-family="Helvetica,sans-Serif" font-size="10.00">Response::upgrade</text>
</a>
</g>
</g>
<!-- Node1&#45;&gt;Node6 -->
<g id="edge5_Node000001_Node000006" class="edge">
<title>Node1&#45;&gt;Node6</title>
<g id="a_edge5_Node000001_Node000006"><a xlink:title=" ">
<path fill="none" stroke="#63b8ff" d="M444.04,-42.21C421.88,-37.14 398.88,-31.89 379.06,-27.36"/>
<polygon fill="#63b8ff" stroke="#63b8ff" points="443.28,-45.63 453.81,-44.44 444.84,-38.8 443.28,-45.63"/>
</a>
</g>
</g>
<!-- Node3 -->
<g id="Node000003" class="node">
<title>Node3</title>
<g id="a_Node000003"><a xlink:href="classweb_1_1websocket_1_1server_1_1SocketContextUpgradeFactory.html#a84258535f7d82a78086f65f43b48726f" target="_top" xlink:title=" ">
<polygon fill="white" stroke="#666666" points="182,-137.5 12,-137.5 12,-96.5 182,-96.5 182,-137.5"/>
<text text-anchor="start" x="20" y="-125.5" font-family="Helvetica,sans-Serif" font-size="10.00">web::websocket::server</text>
<text text-anchor="start" x="20" y="-114.5" font-family="Helvetica,sans-Serif" font-size="10.00">::SocketContextUpgradeFactory</text>
<text text-anchor="middle" x="97" y="-103.5" font-family="Helvetica,sans-Serif" font-size="10.00">::create</text>
</a>
</g>
</g>
<!-- Node2&#45;&gt;Node3 -->
<g id="edge2_Node000002_Node000003" class="edge">
<title>Node2&#45;&gt;Node3</title>
<g id="a_edge2_Node000002_Node000003"><a xlink:title=" ">
<path fill="none" stroke="#63b8ff" d="M231.67,-117C215.29,-117 198.3,-117 182.14,-117"/>
<polygon fill="#63b8ff" stroke="#63b8ff" points="231.77,-120.5 241.77,-117 231.77,-113.5 231.77,-120.5"/>
</a>
</g>
</g>
<!-- Node5 -->
<g id="Node000005" class="node">
<title>Node5</title>
<g id="a_Node000005"><a xlink:href="classweb_1_1websocket_1_1server_1_1SocketContextUpgradeFactory.html#abeb8c98b614660a16abc408397b96e76" target="_top" xlink:title=" ">
<polygon fill="white" stroke="#666666" points="194,-78 0,-78 0,-48 194,-48 194,-78"/>
<text text-anchor="start" x="8" y="-66" font-family="Helvetica,sans-Serif" font-size="10.00">web::websocket::server</text>
<text text-anchor="middle" x="97" y="-55" font-family="Helvetica,sans-Serif" font-size="10.00">::SocketContextUpgradeFactory::link</text>
</a>
</g>
</g>
<!-- Node4&#45;&gt;Node5 -->
<g id="edge4_Node000004_Node000005" class="edge">
<title>Node4&#45;&gt;Node5</title>
<g id="a_edge4_Node000004_Node000005"><a xlink:title=" ">
<path fill="none" stroke="#63b8ff" d="M219.63,-63C211.21,-63 202.71,-63 194.34,-63"/>
<polygon fill="#63b8ff" stroke="#63b8ff" points="219.86,-66.5 229.86,-63 219.86,-59.5 219.86,-66.5"/>
</a>
</g>
</g>
</g>
</svg>
