<?xml version="1.0" encoding="UTF-8" standalone="no"?>
<!DOCTYPE svg PUBLIC "-//W3C//DTD SVG 1.1//EN"
 "http://www.w3.org/Graphics/SVG/1.1/DTD/svg11.dtd">
<!-- Generated by graphviz version 2.42.4 (0)
 -->
<!-- Title: core::EventLoop::instance Pages: 1 -->
<svg width="581pt" height="352pt"
 viewBox="0.00 0.00 581.00 352.00" xmlns="http://www.w3.org/2000/svg" xmlns:xlink="http://www.w3.org/1999/xlink">
<g id="graph0" class="graph" transform="scale(1 1) rotate(0) translate(4 348)">
<title>core::EventLoop::instance</title>
<!-- Node1 -->
<g id="Node000001" class="node">
<title>Node1</title>
<g id="a_Node000001"><a xlink:title=" ">
<polygon fill="#999999" stroke="#666666" points="573,-181 431,-181 431,-162 573,-162 573,-181"/>
<text text-anchor="middle" x="502" y="-169" font-family="Helvetica,sans-Serif" font-size="10.00">core::EventLoop::instance</text>
</a>
</g>
</g>
<!-- Node2 -->
<g id="Node000002" class="node">
<title>Node2</title>
<g id="a_Node000002"><a xlink:href="classcore_1_1eventreceiver_1_1AcceptEventReceiver.html#a2359a535984d5001e94eb63e9fa1291a" target="_top" xlink:title=" ">
<polygon fill="white" stroke="#666666" points="359.5,-344 233.5,-344 233.5,-303 359.5,-303 359.5,-344"/>
<text text-anchor="start" x="241.5" y="-332" font-family="Helvetica,sans-Serif" font-size="10.00">core::eventreceiver</text>
<text text-anchor="start" x="241.5" y="-321" font-family="Helvetica,sans-Serif" font-size="10.00">::AcceptEventReceiver</text>
<text text-anchor="middle" x="296.5" y="-310" font-family="Helvetica,sans-Serif" font-size="10.00">::AcceptEventReceiver</text>
</a>
</g>
</g>
<!-- Node1&#45;&gt;Node2 -->
<g id="edge1_Node000001_Node000002" class="edge">
<title>Node1&#45;&gt;Node2</title>
<g id="a_edge1_Node000001_Node000002"><a xlink:title=" ">
<path fill="none" stroke="#63b8ff" d="M490.01,-189.94C473.01,-216.88 437.79,-266.81 395,-294.5 384.32,-301.41 371.94,-306.72 359.66,-310.8"/>
<polygon fill="#63b8ff" stroke="#63b8ff" points="493.17,-191.49 495.43,-181.14 487.21,-187.82 493.17,-191.49"/>
</a>
</g>
</g>
<!-- Node3 -->
<g id="Node000003" class="node">
<title>Node3</title>
<g id="a_Node000003"><a xlink:href="classcore_1_1eventreceiver_1_1ConnectEventReceiver.html#a26edc6e16f5f23fddaadbdfc5bda1349" target="_top" xlink:title=" ">
<polygon fill="white" stroke="#666666" points="363,-285 230,-285 230,-244 363,-244 363,-285"/>
<text text-anchor="start" x="238" y="-273" font-family="Helvetica,sans-Serif" font-size="10.00">core::eventreceiver</text>
<text text-anchor="start" x="238" y="-262" font-family="Helvetica,sans-Serif" font-size="10.00">::ConnectEventReceiver</text>
<text text-anchor="middle" x="296.5" y="-251" font-family="Helvetica,sans-Serif" font-size="10.00">::ConnectEventReceiver</text>
</a>
</g>
</g>
<!-- Node1&#45;&gt;Node3 -->
<g id="edge2_Node000001_Node000003" class="edge">
<title>Node1&#45;&gt;Node3</title>
<g id="a_edge2_Node000001_Node000003"><a xlink:title=" ">
<path fill="none" stroke="#63b8ff" d="M479.12,-186.98C458.29,-201.16 425.66,-221.95 395,-235.5 384.9,-239.96 373.93,-243.97 363.1,-247.49"/>
<polygon fill="#63b8ff" stroke="#63b8ff" points="481.31,-189.73 487.55,-181.17 477.33,-183.97 481.31,-189.73"/>
</a>
</g>
</g>
<!-- Node4 -->
<g id="Node000004" class="node">
<title>Node4</title>
<g id="a_Node000004"><a xlink:href="classcore_1_1Event.html#a81e45f64219d897d59324c9dd0573936" target="_top" xlink:title=" ">
<polygon fill="white" stroke="#666666" points="349,-208 244,-208 244,-189 349,-189 349,-208"/>
<text text-anchor="middle" x="296.5" y="-196" font-family="Helvetica,sans-Serif" font-size="10.00">core::Event::Event</text>
</a>
</g>
</g>
<!-- Node1&#45;&gt;Node4 -->
<g id="edge3_Node000001_Node000004" class="edge">
<title>Node1&#45;&gt;Node4</title>
<g id="a_edge3_Node000001_Node000004"><a xlink:title=" ">
<path fill="none" stroke="#63b8ff" d="M420.74,-182.15C396.6,-185.35 370.77,-188.78 349.02,-191.66"/>
<polygon fill="#63b8ff" stroke="#63b8ff" points="421.51,-185.58 430.97,-180.79 420.59,-178.64 421.51,-185.58"/>
</a>
</g>
</g>
<!-- Node5 -->
<g id="Node000005" class="node">
<title>Node5</title>
<g id="a_Node000005"><a xlink:href="classcore_1_1eventreceiver_1_1ExceptionalConditionEventReceiver.html#a89a098b6bb8425ad3031cec9355be9d1" target="_top" xlink:title=" ">
<polygon fill="white" stroke="#666666" points="395,-170.5 198,-170.5 198,-118.5 395,-118.5 395,-170.5"/>
<text text-anchor="start" x="206" y="-158.5" font-family="Helvetica,sans-Serif" font-size="10.00">core::eventreceiver</text>
<text text-anchor="start" x="206" y="-147.5" font-family="Helvetica,sans-Serif" font-size="10.00">::ExceptionalConditionEvent</text>
<text text-anchor="start" x="206" y="-136.5" font-family="Helvetica,sans-Serif" font-size="10.00">Receiver::ExceptionalConditionEvent</text>
<text text-anchor="middle" x="296.5" y="-125.5" font-family="Helvetica,sans-Serif" font-size="10.00">Receiver</text>
</a>
</g>
</g>
<!-- Node1&#45;&gt;Node5 -->
<g id="edge5_Node000001_Node000005" class="edge">
<title>Node1&#45;&gt;Node5</title>
<g id="a_edge5_Node000001_Node000005"><a xlink:title=" ">
<path fill="none" stroke="#63b8ff" d="M420.86,-160.87C412.48,-159.76 403.9,-158.62 395.35,-157.48"/>
<polygon fill="#63b8ff" stroke="#63b8ff" points="420.59,-164.36 430.97,-162.21 421.51,-157.42 420.59,-164.36"/>
</a>
</g>
</g>
<!-- Node6 -->
<g id="Node000006" class="node">
<title>Node6</title>
<g id="a_Node000006"><a xlink:href="classcore_1_1eventreceiver_1_1ReadEventReceiver.html#aca8a2e9521718d70233491cffbf09f3d" target="_top" xlink:title=" ">
<polygon fill="white" stroke="#666666" points="355.5,-100 237.5,-100 237.5,-59 355.5,-59 355.5,-100"/>
<text text-anchor="start" x="245.5" y="-88" font-family="Helvetica,sans-Serif" font-size="10.00">core::eventreceiver</text>
<text text-anchor="start" x="245.5" y="-77" font-family="Helvetica,sans-Serif" font-size="10.00">::ReadEventReceiver</text>
<text text-anchor="middle" x="296.5" y="-66" font-family="Helvetica,sans-Serif" font-size="10.00">::ReadEventReceiver</text>
</a>
</g>
</g>
<!-- Node1&#45;&gt;Node6 -->
<g id="edge6_Node000001_Node000006" class="edge">
<title>Node1&#45;&gt;Node6</title>
<g id="a_edge6_Node000001_Node000006"><a xlink:title=" ">
<path fill="none" stroke="#63b8ff" d="M478.67,-156.38C457.76,-142.73 425.27,-122.79 395,-109.5 382.51,-104.02 368.72,-99.12 355.53,-94.95"/>
<polygon fill="#63b8ff" stroke="#63b8ff" points="476.88,-159.39 487.15,-161.99 480.74,-153.56 476.88,-159.39"/>
</a>
</g>
</g>
<!-- Node8 -->
<g id="Node000008" class="node">
<title>Node8</title>
<g id="a_Node000008"><a xlink:href="classcore_1_1eventreceiver_1_1WriteEventReceiver.html#aaae40b662157301c59d6477ba75f794f" target="_top" xlink:title=" ">
<polygon fill="white" stroke="#666666" points="356,-41 237,-41 237,0 356,0 356,-41"/>
<text text-anchor="start" x="245" y="-29" font-family="Helvetica,sans-Serif" font-size="10.00">core::eventreceiver</text>
<text text-anchor="start" x="245" y="-18" font-family="Helvetica,sans-Serif" font-size="10.00">::WriteEventReceiver</text>
<text text-anchor="middle" x="296.5" y="-7" font-family="Helvetica,sans-Serif" font-size="10.00">::WriteEventReceiver</text>
</a>
</g>
</g>
<!-- Node1&#45;&gt;Node8 -->
<g id="edge9_Node000001_Node000008" class="edge">
<title>Node1&#45;&gt;Node8</title>
<g id="a_edge9_Node000001_Node000008"><a xlink:title=" ">
<path fill="none" stroke="#63b8ff" d="M489.65,-153.03C472.42,-126.5 437.17,-77.82 395,-50.5 383.26,-42.89 369.48,-37.12 356.04,-32.78"/>
<polygon fill="#63b8ff" stroke="#63b8ff" points="486.85,-155.15 495.16,-161.71 492.76,-151.4 486.85,-155.15"/>
</a>
</g>
</g>
<!-- Node4&#45;&gt;Node4 -->
<g id="edge4_Node000004_Node000004" class="edge">
<title>Node4&#45;&gt;Node4</title>
<g id="a_edge4_Node000004_Node000004"><a xlink:title=" ">
<path fill="none" stroke="#63b8ff" d="M334.75,-215.69C334.74,-221.42 321.99,-226 296.5,-226 260.24,-226 249.76,-216.73 265.06,-208.08"/>
<polygon fill="#63b8ff" stroke="#63b8ff" points="337.22,-213.2 327.94,-208.08 332,-217.87 337.22,-213.2"/>
</a>
</g>
</g>
<!-- Node7 -->
<g id="Node000007" class="node">
<title>Node7</title>
<g id="a_Node000007"><a xlink:href="classcore_1_1socket_1_1stream_1_1SocketReader.html#a9d9d3b5b1dd71824e88b79d7746ffee2" target="_top" xlink:title=" ">
<polygon fill="white" stroke="#666666" points="162,-94.5 0,-94.5 0,-64.5 162,-64.5 162,-94.5"/>
<text text-anchor="start" x="8" y="-82.5" font-family="Helvetica,sans-Serif" font-size="10.00">core::socket::stream</text>
<text text-anchor="middle" x="81" y="-71.5" font-family="Helvetica,sans-Serif" font-size="10.00">::SocketReader::SocketReader</text>
</a>
</g>
</g>
<!-- Node6&#45;&gt;Node7 -->
<g id="edge7_Node000006_Node000007" class="edge">
<title>Node6&#45;&gt;Node7</title>
<g id="a_edge7_Node000006_Node000007"><a xlink:title=" ">
<path fill="none" stroke="#63b8ff" d="M227.43,-79.5C206.64,-79.5 183.58,-79.5 162.07,-79.5"/>
<polygon fill="#63b8ff" stroke="#63b8ff" points="227.44,-83 237.44,-79.5 227.44,-76 227.44,-83"/>
</a>
</g>
</g>
<!-- Node7&#45;&gt;Node7 -->
<g id="edge8_Node000007_Node000007" class="edge">
<title>Node7&#45;&gt;Node7</title>
<g id="a_edge8_Node000007_Node000007"><a xlink:title=" ">
<path fill="none" stroke="#63b8ff" d="M118.46,-105.1C113.34,-109.47 100.85,-112.5 81,-112.5 47.56,-112.5 35.02,-103.91 43.38,-94.78"/>
<polygon fill="#63b8ff" stroke="#63b8ff" points="121.96,-104.83 118.62,-94.78 114.96,-104.72 121.96,-104.83"/>
</a>
</g>
</g>
</g>
</svg>
