<?xml version="1.0" encoding="UTF-8" standalone="no"?>
<!DOCTYPE svg PUBLIC "-//W3C//DTD SVG 1.1//EN"
 "http://www.w3.org/Graphics/SVG/1.1/DTD/svg11.dtd">
<!-- Generated by graphviz version 2.43.0 (0)
 -->
<!-- Title: core::socket::stream::tls::TLSHandshake::writeEvent Pages: 1 -->
<svg width="872pt" height="338pt"
 viewBox="0.00 0.00 872.00 337.50" xmlns="http://www.w3.org/2000/svg" xmlns:xlink="http://www.w3.org/1999/xlink">
<g id="graph0" class="graph" transform="scale(1 1) rotate(0) translate(4 333.5)">
<title>core::socket::stream::tls::TLSHandshake::writeEvent</title>
<!-- Node1 -->
<g id="Node000001" class="node">
<title>Node1</title>
<g id="a_Node000001"><a xlink:title=" ">
<polygon fill="#999999" stroke="#666666" points="113,-201 0,-201 0,-160 113,-160 113,-201"/>
<text text-anchor="start" x="8" y="-189" font-family="Helvetica,sans-Serif" font-size="10.00">core::socket::stream</text>
<text text-anchor="start" x="8" y="-178" font-family="Helvetica,sans-Serif" font-size="10.00">::tls::TLSHandshake::</text>
<text text-anchor="middle" x="56.5" y="-167" font-family="Helvetica,sans-Serif" font-size="10.00">writeEvent</text>
</a>
</g>
</g>
<!-- Node2 -->
<g id="Node000002" class="node">
<title>Node2</title>
<g id="a_Node000002"><a xlink:href="classcore_1_1DescriptorEventReceiver.html#a4ab422ce6622a29cee38a0108ee6ccc1" target="_top" xlink:title=" ">
<polygon fill="white" stroke="#666666" points="300,-243.5 149,-243.5 149,-213.5 300,-213.5 300,-243.5"/>
<text text-anchor="start" x="157" y="-231.5" font-family="Helvetica,sans-Serif" font-size="10.00">core::DescriptorEventReceiver</text>
<text text-anchor="middle" x="224.5" y="-220.5" font-family="Helvetica,sans-Serif" font-size="10.00">::disable</text>
</a>
</g>
</g>
<!-- Node1&#45;&gt;Node2 -->
<g id="edge1_Node000001_Node000002" class="edge">
<title>Node1&#45;&gt;Node2</title>
<g id="a_edge1_Node000001_Node000002"><a xlink:title=" ">
<path fill="none" stroke="#63b8ff" d="M113.24,-196.62C128.84,-201.13 145.88,-206.06 161.81,-210.66"/>
<polygon fill="#63b8ff" stroke="#63b8ff" points="160.97,-214.06 171.55,-213.48 162.92,-207.34 160.97,-214.06"/>
</a>
</g>
</g>
<!-- Node7 -->
<g id="Node000007" class="node">
<title>Node7</title>
<g id="a_Node000007"><a xlink:href="classcore_1_1DescriptorEventReceiver.html#aab5e466759c83194c5bc4b41f1a33103" target="_top" xlink:title=" ">
<polygon fill="white" stroke="#666666" points="487.5,-195.5 336.5,-195.5 336.5,-165.5 487.5,-165.5 487.5,-195.5"/>
<text text-anchor="start" x="344.5" y="-183.5" font-family="Helvetica,sans-Serif" font-size="10.00">core::DescriptorEventReceiver</text>
<text text-anchor="middle" x="412" y="-172.5" font-family="Helvetica,sans-Serif" font-size="10.00">::suspend</text>
</a>
</g>
</g>
<!-- Node1&#45;&gt;Node7 -->
<g id="edge20_Node000001_Node000007" class="edge">
<title>Node1&#45;&gt;Node7</title>
<g id="a_edge20_Node000001_Node000007"><a xlink:title=" ">
<path fill="none" stroke="#63b8ff" d="M113.12,-180.5C170.24,-180.5 259.89,-180.5 325.92,-180.5"/>
<polygon fill="#63b8ff" stroke="#63b8ff" points="326.31,-184 336.31,-180.5 326.31,-177 326.31,-184"/>
</a>
</g>
</g>
<!-- Node11 -->
<g id="Node000011" class="node">
<title>Node11</title>
<g id="a_Node000011"><a xlink:href="classcore_1_1DescriptorEventReceiver.html#afa983ac6b0ba8f28ce4c0fc16cd914f8" target="_top" xlink:title=" ">
<polygon fill="white" stroke="#666666" points="487.5,-147.5 336.5,-147.5 336.5,-117.5 487.5,-117.5 487.5,-147.5"/>
<text text-anchor="start" x="344.5" y="-135.5" font-family="Helvetica,sans-Serif" font-size="10.00">core::DescriptorEventReceiver</text>
<text text-anchor="middle" x="412" y="-124.5" font-family="Helvetica,sans-Serif" font-size="10.00">::resume</text>
</a>
</g>
</g>
<!-- Node1&#45;&gt;Node11 -->
<g id="edge11_Node000001_Node000011" class="edge">
<title>Node1&#45;&gt;Node11</title>
<g id="a_edge11_Node000001_Node000011"><a xlink:title=" ">
<path fill="none" stroke="#63b8ff" d="M113.12,-172.95C170.36,-165.17 260.26,-152.97 326.33,-144"/>
<polygon fill="#63b8ff" stroke="#63b8ff" points="326.87,-147.46 336.31,-142.64 325.93,-140.52 326.87,-147.46"/>
</a>
</g>
</g>
<!-- Node3 -->
<g id="Node000003" class="node">
<title>Node3</title>
<g id="a_Node000003"><a xlink:href="classcore_1_1DescriptorEventPublisher.html#a998d681666ff72ed73cf0799ff4aca77" target="_top" xlink:title=" ">
<polygon fill="white" stroke="#666666" points="488,-329.5 336,-329.5 336,-299.5 488,-299.5 488,-329.5"/>
<text text-anchor="start" x="344" y="-317.5" font-family="Helvetica,sans-Serif" font-size="10.00">core::DescriptorEventPublisher</text>
<text text-anchor="middle" x="412" y="-306.5" font-family="Helvetica,sans-Serif" font-size="10.00">::disable</text>
</a>
</g>
</g>
<!-- Node2&#45;&gt;Node3 -->
<g id="edge2_Node000002_Node000003" class="edge">
<title>Node2&#45;&gt;Node3</title>
<g id="a_edge2_Node000002_Node000003"><a xlink:title=" ">
<path fill="none" stroke="#63b8ff" d="M252.8,-243.62C274.92,-255.62 307.06,-272.49 336,-285.5 343.78,-289 352.12,-292.48 360.3,-295.75"/>
<polygon fill="#63b8ff" stroke="#63b8ff" points="359.21,-299.08 369.8,-299.48 361.77,-292.57 359.21,-299.08"/>
</a>
</g>
</g>
<!-- Node4 -->
<g id="Node000004" class="node">
<title>Node4</title>
<g id="a_Node000004"><a xlink:href="classcore_1_1EventReceiver.html#a0735c234c7848cf4d45473a6f7ce11b2" target="_top" xlink:title=" ">
<polygon fill="white" stroke="#666666" points="653,-275.5 547,-275.5 547,-245.5 653,-245.5 653,-275.5"/>
<text text-anchor="start" x="555" y="-263.5" font-family="Helvetica,sans-Serif" font-size="10.00">core::EventReceiver</text>
<text text-anchor="middle" x="600" y="-252.5" font-family="Helvetica,sans-Serif" font-size="10.00">::getName</text>
</a>
</g>
</g>
<!-- Node2&#45;&gt;Node4 -->
<g id="edge3_Node000002_Node000004" class="edge">
<title>Node2&#45;&gt;Node4</title>
<g id="a_edge3_Node000002_Node000004"><a xlink:title=" ">
<path fill="none" stroke="#63b8ff" d="M285.09,-243.54C301.48,-247.1 319.34,-250.45 336,-252.5 404.37,-260.89 483.44,-262.17 536.88,-261.81"/>
<polygon fill="#63b8ff" stroke="#63b8ff" points="536.92,-265.31 546.89,-261.72 536.86,-258.31 536.92,-265.31"/>
</a>
</g>
</g>
<!-- Node6 -->
<g id="Node000006" class="node">
<title>Node6</title>
<g id="a_Node000006"><a xlink:href="classcore_1_1DescriptorEventReceiver.html#ac80fc901f941c059a6ebdb28147b25a2" target="_top" xlink:title=" ">
<polygon fill="white" stroke="#666666" points="487.5,-243.5 336.5,-243.5 336.5,-213.5 487.5,-213.5 487.5,-243.5"/>
<text text-anchor="start" x="344.5" y="-231.5" font-family="Helvetica,sans-Serif" font-size="10.00">core::DescriptorEventReceiver</text>
<text text-anchor="middle" x="412" y="-220.5" font-family="Helvetica,sans-Serif" font-size="10.00">::isSuspended</text>
</a>
</g>
</g>
<!-- Node2&#45;&gt;Node6 -->
<g id="edge5_Node000002_Node000006" class="edge">
<title>Node2&#45;&gt;Node6</title>
<g id="a_edge5_Node000002_Node000006"><a xlink:title=" ">
<path fill="none" stroke="#63b8ff" d="M300.15,-228.5C308.69,-228.5 317.44,-228.5 326.1,-228.5"/>
<polygon fill="#63b8ff" stroke="#63b8ff" points="326.2,-232 336.2,-228.5 326.2,-225 326.2,-232"/>
</a>
</g>
</g>
<!-- Node2&#45;&gt;Node7 -->
<g id="edge6_Node000002_Node000007" class="edge">
<title>Node2&#45;&gt;Node7</title>
<g id="a_edge6_Node000002_Node000007"><a xlink:title=" ">
<path fill="none" stroke="#63b8ff" d="M283.68,-213.44C302.59,-208.55 323.73,-203.08 343.27,-198.02"/>
<polygon fill="#63b8ff" stroke="#63b8ff" points="344.22,-201.4 353.02,-195.5 342.46,-194.62 344.22,-201.4"/>
</a>
</g>
</g>
<!-- Node5 -->
<g id="Node000005" class="node">
<title>Node5</title>
<g id="a_Node000005"><a xlink:href="classcore_1_1Event.html#a0ab010154200ef32e875dc673e921c94" target="_top" xlink:title=" ">
<polygon fill="white" stroke="#666666" points="844.5,-270 731.5,-270 731.5,-251 844.5,-251 844.5,-270"/>
<text text-anchor="middle" x="788" y="-258" font-family="Helvetica,sans-Serif" font-size="10.00">core::Event::getName</text>
</a>
</g>
</g>
<!-- Node4&#45;&gt;Node5 -->
<g id="edge4_Node000004_Node000005" class="edge">
<title>Node4&#45;&gt;Node5</title>
<g id="a_edge4_Node000004_Node000005"><a xlink:title=" ">
<path fill="none" stroke="#63b8ff" d="M653.31,-260.5C674.36,-260.5 698.89,-260.5 721.14,-260.5"/>
<polygon fill="#63b8ff" stroke="#63b8ff" points="721.19,-264 731.19,-260.5 721.19,-257 721.19,-264"/>
</a>
</g>
</g>
<!-- Node7&#45;&gt;Node4 -->
<g id="edge7_Node000007_Node000004" class="edge">
<title>Node7&#45;&gt;Node4</title>
<g id="a_edge7_Node000007_Node000004"><a xlink:title=" ">
<path fill="none" stroke="#63b8ff" d="M469,-195.53C475.58,-198.14 482.06,-201.11 488,-204.5 506.6,-215.1 505.4,-225.9 524,-236.5 528.23,-238.91 532.74,-241.12 537.36,-243.13"/>
<polygon fill="#63b8ff" stroke="#63b8ff" points="536.38,-246.5 546.96,-246.98 538.98,-240.01 536.38,-246.5"/>
</a>
</g>
</g>
<!-- Node8 -->
<g id="Node000008" class="node">
<title>Node8</title>
<g id="a_Node000008"><a xlink:href="classcore_1_1Observer.html#a12bf1ddfdb90f05f28d16c09ce0658f8" target="_top" xlink:title=" ">
<polygon fill="white" stroke="#666666" points="668.5,-179 531.5,-179 531.5,-160 668.5,-160 668.5,-179"/>
<text text-anchor="middle" x="600" y="-167" font-family="Helvetica,sans-Serif" font-size="10.00">core::Observer::isObserved</text>
</a>
</g>
</g>
<!-- Node7&#45;&gt;Node8 -->
<g id="edge8_Node000007_Node000008" class="edge">
<title>Node7&#45;&gt;Node8</title>
<g id="a_edge8_Node000007_Node000008"><a xlink:title=" ">
<path fill="none" stroke="#63b8ff" d="M487.58,-176.09C498.65,-175.43 510.07,-174.76 521.2,-174.1"/>
<polygon fill="#63b8ff" stroke="#63b8ff" points="521.55,-177.59 531.32,-173.5 521.13,-170.6 521.55,-177.59"/>
</a>
</g>
</g>
<!-- Node9 -->
<g id="Node000009" class="node">
<title>Node9</title>
<g id="a_Node000009"><a xlink:href="classcore_1_1DescriptorEventPublisher.html#ac1bfb115c6aba58d380862a43db457e8" target="_top" xlink:title=" ">
<polygon fill="white" stroke="#666666" points="676,-227.5 524,-227.5 524,-197.5 676,-197.5 676,-227.5"/>
<text text-anchor="start" x="532" y="-215.5" font-family="Helvetica,sans-Serif" font-size="10.00">core::DescriptorEventPublisher</text>
<text text-anchor="middle" x="600" y="-204.5" font-family="Helvetica,sans-Serif" font-size="10.00">::suspend</text>
</a>
</g>
</g>
<!-- Node7&#45;&gt;Node9 -->
<g id="edge9_Node000007_Node000009" class="edge">
<title>Node7&#45;&gt;Node9</title>
<g id="a_edge9_Node000007_Node000009"><a xlink:title=" ">
<path fill="none" stroke="#63b8ff" d="M487.58,-193.33C496.25,-194.82 505.13,-196.35 513.93,-197.86"/>
<polygon fill="#63b8ff" stroke="#63b8ff" points="513.35,-201.32 523.79,-199.56 514.53,-194.42 513.35,-201.32"/>
</a>
</g>
</g>
<!-- Node10 -->
<g id="Node000010" class="node">
<title>Node10</title>
<g id="a_Node000010"><a xlink:href="classcore_1_1DescriptorEventPublisher.html#a5e0e1a78a4bae48537ba6d0425a7c1cf" target="_top" xlink:title=" ">
<polygon fill="white" stroke="#666666" points="864,-227.5 712,-227.5 712,-197.5 864,-197.5 864,-227.5"/>
<text text-anchor="start" x="720" y="-215.5" font-family="Helvetica,sans-Serif" font-size="10.00">core::DescriptorEventPublisher</text>
<text text-anchor="middle" x="788" y="-204.5" font-family="Helvetica,sans-Serif" font-size="10.00">::muxOff</text>
</a>
</g>
</g>
<!-- Node9&#45;&gt;Node10 -->
<g id="edge10_Node000009_Node000010" class="edge">
<title>Node9&#45;&gt;Node10</title>
<g id="a_edge10_Node000009_Node000010"><a xlink:title=" ">
<path fill="none" stroke="#63b8ff" d="M676.12,-212.5C684.6,-212.5 693.28,-212.5 701.87,-212.5"/>
<polygon fill="#63b8ff" stroke="#63b8ff" points="701.9,-216 711.9,-212.5 701.9,-209 701.9,-216"/>
</a>
</g>
</g>
<!-- Node11&#45;&gt;Node4 -->
<g id="edge15_Node000011_Node000004" class="edge">
<title>Node11&#45;&gt;Node4</title>
<g id="a_edge15_Node000011_Node000004"><a xlink:title=" ">
<path fill="none" stroke="#63b8ff" d="M475.1,-147.54C479.75,-150.08 484.12,-153.04 488,-156.5 517.08,-182.47 494.92,-210.53 524,-236.5 528.08,-240.14 532.71,-243.23 537.63,-245.85"/>
<polygon fill="#63b8ff" stroke="#63b8ff" points="536.19,-249.04 546.73,-250.08 539.14,-242.69 536.19,-249.04"/>
</a>
</g>
</g>
<!-- Node11&#45;&gt;Node8 -->
<g id="edge16_Node000011_Node000008" class="edge">
<title>Node11&#45;&gt;Node8</title>
<g id="a_edge16_Node000011_Node000008"><a xlink:title=" ">
<path fill="none" stroke="#63b8ff" d="M487.58,-147.34C505.33,-150.87 524,-154.58 540.88,-157.94"/>
<polygon fill="#63b8ff" stroke="#63b8ff" points="540.65,-161.46 551.14,-159.98 542.01,-154.6 540.65,-161.46"/>
</a>
</g>
</g>
<!-- Node12 -->
<g id="Node000012" class="node">
<title>Node12</title>
<g id="a_Node000012"><a xlink:href="classutils_1_1Timeval.html#a54b232dc1ffeea007100dcd1caad1987" target="_top" xlink:title=" ">
<polygon fill="white" stroke="#666666" points="666.5,-56 533.5,-56 533.5,-37 666.5,-37 666.5,-56"/>
<text text-anchor="middle" x="600" y="-44" font-family="Helvetica,sans-Serif" font-size="10.00">utils::Timeval::currentTime</text>
</a>
</g>
</g>
<!-- Node11&#45;&gt;Node12 -->
<g id="edge12_Node000011_Node000012" class="edge">
<title>Node11&#45;&gt;Node12</title>
<g id="a_edge12_Node000011_Node000012"><a xlink:title=" ">
<path fill="none" stroke="#63b8ff" d="M433.7,-117.44C455.28,-102.36 490.56,-79.47 524,-65.5 529.86,-63.05 536.11,-60.86 542.4,-58.92"/>
<polygon fill="#63b8ff" stroke="#63b8ff" points="543.66,-62.2 552.29,-56.06 541.71,-55.48 543.66,-62.2"/>
</a>
</g>
</g>
<!-- Node15 -->
<g id="Node000015" class="node">
<title>Node15</title>
<g id="a_Node000015"><a xlink:href="classutils_1_1Timeval.html#ac5696b678505b8fb9ee27540ab1802ca" target="_top" xlink:title=" ">
<polygon fill="white" stroke="#666666" points="661,-142 539,-142 539,-123 661,-123 661,-142"/>
<text text-anchor="middle" x="600" y="-130" font-family="Helvetica,sans-Serif" font-size="10.00">utils::Timeval::operator=</text>
</a>
</g>
</g>
<!-- Node11&#45;&gt;Node15 -->
<g id="edge17_Node000011_Node000015" class="edge">
<title>Node11&#45;&gt;Node15</title>
<g id="a_edge17_Node000011_Node000015"><a xlink:title=" ">
<path fill="none" stroke="#63b8ff" d="M487.58,-132.5C501.19,-132.5 515.35,-132.5 528.83,-132.5"/>
<polygon fill="#63b8ff" stroke="#63b8ff" points="528.98,-136 538.98,-132.5 528.98,-129 528.98,-136"/>
</a>
</g>
</g>
<!-- Node16 -->
<g id="Node000016" class="node">
<title>Node16</title>
<g id="a_Node000016"><a xlink:href="classcore_1_1DescriptorEventPublisher.html#adef0cdee352a13b99772af079fb7bfe1" target="_top" xlink:title=" ">
<polygon fill="white" stroke="#666666" points="676,-104.5 524,-104.5 524,-74.5 676,-74.5 676,-104.5"/>
<text text-anchor="start" x="532" y="-92.5" font-family="Helvetica,sans-Serif" font-size="10.00">core::DescriptorEventPublisher</text>
<text text-anchor="middle" x="600" y="-81.5" font-family="Helvetica,sans-Serif" font-size="10.00">::resume</text>
</a>
</g>
</g>
<!-- Node11&#45;&gt;Node16 -->
<g id="edge18_Node000011_Node000016" class="edge">
<title>Node11&#45;&gt;Node16</title>
<g id="a_edge18_Node000011_Node000016"><a xlink:title=" ">
<path fill="none" stroke="#63b8ff" d="M478.05,-117.46C492.92,-114.02 508.84,-110.34 524.08,-106.82"/>
<polygon fill="#63b8ff" stroke="#63b8ff" points="525.03,-110.19 533.98,-104.53 523.45,-103.37 525.03,-110.19"/>
</a>
</g>
</g>
<!-- Node13 -->
<g id="Node000013" class="node">
<title>Node13</title>
<g id="a_Node000013"><a xlink:href="namespaceutils_1_1system.html#ad594b7afe9fa80d3db04591c966422b2" target="_top" xlink:title=" ">
<polygon fill="white" stroke="#666666" points="855.5,-19 720.5,-19 720.5,0 855.5,0 855.5,-19"/>
<text text-anchor="middle" x="788" y="-7" font-family="Helvetica,sans-Serif" font-size="10.00">utils::system::gettimeofday</text>
</a>
</g>
</g>
<!-- Node12&#45;&gt;Node13 -->
<g id="edge13_Node000012_Node000013" class="edge">
<title>Node12&#45;&gt;Node13</title>
<g id="a_edge13_Node000012_Node000013"><a xlink:title=" ">
<path fill="none" stroke="#63b8ff" d="M648.9,-36.97C673.32,-32.11 703.22,-26.17 728.94,-21.05"/>
<polygon fill="#63b8ff" stroke="#63b8ff" points="729.81,-24.44 738.94,-19.06 728.45,-17.58 729.81,-24.44"/>
</a>
</g>
</g>
<!-- Node14 -->
<g id="Node000014" class="node">
<title>Node14</title>
<g id="a_Node000014"><a xlink:href="classutils_1_1Timeval.html#a4a554848a362fa40feef1c3f93c0c2e5" target="_top" xlink:title=" ">
<polygon fill="white" stroke="#666666" points="849.5,-56 726.5,-56 726.5,-37 849.5,-37 849.5,-56"/>
<text text-anchor="middle" x="788" y="-44" font-family="Helvetica,sans-Serif" font-size="10.00">utils::Timeval::operator&amp;</text>
</a>
</g>
</g>
<!-- Node12&#45;&gt;Node14 -->
<g id="edge14_Node000012_Node000014" class="edge">
<title>Node12&#45;&gt;Node14</title>
<g id="a_edge14_Node000012_Node000014"><a xlink:title=" ">
<path fill="none" stroke="#63b8ff" d="M666.58,-46.5C682.69,-46.5 700,-46.5 716.34,-46.5"/>
<polygon fill="#63b8ff" stroke="#63b8ff" points="716.37,-50 726.37,-46.5 716.37,-43 716.37,-50"/>
</a>
</g>
</g>
<!-- Node17 -->
<g id="Node000017" class="node">
<title>Node17</title>
<g id="a_Node000017"><a xlink:href="classcore_1_1DescriptorEventPublisher.html#a8cdba59fd3522f1e108a21f6f818840e" target="_top" xlink:title=" ">
<polygon fill="white" stroke="#666666" points="864,-104.5 712,-104.5 712,-74.5 864,-74.5 864,-104.5"/>
<text text-anchor="start" x="720" y="-92.5" font-family="Helvetica,sans-Serif" font-size="10.00">core::DescriptorEventPublisher</text>
<text text-anchor="middle" x="788" y="-81.5" font-family="Helvetica,sans-Serif" font-size="10.00">::muxOn</text>
</a>
</g>
</g>
<!-- Node16&#45;&gt;Node17 -->
<g id="edge19_Node000016_Node000017" class="edge">
<title>Node16&#45;&gt;Node17</title>
<g id="a_edge19_Node000016_Node000017"><a xlink:title=" ">
<path fill="none" stroke="#63b8ff" d="M676.12,-89.5C684.6,-89.5 693.28,-89.5 701.87,-89.5"/>
<polygon fill="#63b8ff" stroke="#63b8ff" points="701.9,-93 711.9,-89.5 701.9,-86 701.9,-93"/>
</a>
</g>
</g>
</g>
</svg>
