<?xml version="1.0" encoding="UTF-8" standalone="no"?>
<!DOCTYPE svg PUBLIC "-//W3C//DTD SVG 1.1//EN"
 "http://www.w3.org/Graphics/SVG/1.1/DTD/svg11.dtd">
<!-- Generated by graphviz version 2.43.0 (0)
 -->
<!-- Title: express::middleware::BasicAuthentication::BasicAuthentication Pages: 1 -->
<svg width="2052pt" height="671pt"
 viewBox="0.00 0.00 2052.00 671.00" xmlns="http://www.w3.org/2000/svg" xmlns:xlink="http://www.w3.org/1999/xlink">
<g id="graph0" class="graph" transform="scale(1 1) rotate(0) translate(4 667)">
<title>express::middleware::BasicAuthentication::BasicAuthentication</title>
<!-- Node1 -->
<g id="Node000001" class="node">
<title>Node1</title>
<g id="a_Node000001"><a xlink:title=" ">
<polygon fill="#999999" stroke="#666666" points="120,-268 0,-268 0,-227 120,-227 120,-268"/>
<text text-anchor="start" x="8" y="-256" font-family="Helvetica,sans-Serif" font-size="10.00">express::middleware</text>
<text text-anchor="start" x="8" y="-245" font-family="Helvetica,sans-Serif" font-size="10.00">::BasicAuthentication</text>
<text text-anchor="middle" x="60" y="-234" font-family="Helvetica,sans-Serif" font-size="10.00">::BasicAuthentication</text>
</a>
</g>
</g>
<!-- Node2 -->
<g id="Node000002" class="node">
<title>Node2</title>
<g id="a_Node000002"><a xlink:href="namespacebase64.html#af19189e96ecbd4de55806b9b705f7374" target="_top" xlink:title=" ">
<polygon fill="white" stroke="#666666" points="292.5,-362 158.5,-362 158.5,-343 292.5,-343 292.5,-362"/>
<text text-anchor="middle" x="225.5" y="-350" font-family="Helvetica,sans-Serif" font-size="10.00">base64::base64_encode</text>
</a>
</g>
</g>
<!-- Node1&#45;&gt;Node2 -->
<g id="edge1_Node000001_Node000002" class="edge">
<title>Node1&#45;&gt;Node2</title>
<g id="a_edge1_Node000001_Node000002"><a xlink:title=" ">
<path fill="none" stroke="#63b8ff" d="M78.57,-268.21C96.24,-287.76 125.21,-316.55 156,-333.5 160,-335.7 164.28,-337.66 168.66,-339.41"/>
<polygon fill="#63b8ff" stroke="#63b8ff" points="167.79,-342.81 178.38,-342.9 170.15,-336.22 167.79,-342.81"/>
</a>
</g>
</g>
<!-- Node3 -->
<g id="Node000003" class="node">
<title>Node3</title>
<g id="a_Node000003"><a xlink:href="classweb_1_1http_1_1server_1_1Request.html#aa29d8d5a5b007453ce2b96b55e63960f" target="_top" xlink:title=" ">
<polygon fill="white" stroke="#666666" points="278,-324.5 173,-324.5 173,-294.5 278,-294.5 278,-324.5"/>
<text text-anchor="start" x="181" y="-312.5" font-family="Helvetica,sans-Serif" font-size="10.00">web::http::server::</text>
<text text-anchor="middle" x="225.5" y="-301.5" font-family="Helvetica,sans-Serif" font-size="10.00">Request::get</text>
</a>
</g>
</g>
<!-- Node1&#45;&gt;Node3 -->
<g id="edge2_Node000001_Node000003" class="edge">
<title>Node1&#45;&gt;Node3</title>
<g id="a_edge2_Node000001_Node000003"><a xlink:title=" ">
<path fill="none" stroke="#63b8ff" d="M111.13,-268.03C125.56,-273.81 141.36,-280.01 156,-285.5 160.82,-287.31 165.84,-289.15 170.88,-290.97"/>
<polygon fill="#63b8ff" stroke="#63b8ff" points="169.95,-294.35 180.55,-294.42 172.31,-287.76 169.95,-294.35"/>
</a>
</g>
</g>
<!-- Node5 -->
<g id="Node000005" class="node">
<title>Node5</title>
<g id="a_Node000005"><a xlink:href="classexpress_1_1Next.html#a3e14e0e46359f80dac195ec6e57eaf5d" target="_top" xlink:title=" ">
<polygon fill="white" stroke="#666666" points="295,-276 156,-276 156,-257 295,-257 295,-276"/>
<text text-anchor="middle" x="225.5" y="-264" font-family="Helvetica,sans-Serif" font-size="10.00">express::Next::operator()</text>
</a>
</g>
</g>
<!-- Node1&#45;&gt;Node5 -->
<g id="edge4_Node000001_Node000005" class="edge">
<title>Node1&#45;&gt;Node5</title>
<g id="a_edge4_Node000001_Node000005"><a xlink:title=" ">
<path fill="none" stroke="#63b8ff" d="M120.03,-254.36C128.38,-255.33 137.07,-256.34 145.72,-257.34"/>
<polygon fill="#63b8ff" stroke="#63b8ff" points="145.49,-260.84 155.83,-258.52 146.3,-253.89 145.49,-260.84"/>
</a>
</g>
</g>
<!-- Node20 -->
<g id="Node000020" class="node">
<title>Node20</title>
<g id="a_Node000020"><a xlink:href="classexpress_1_1Response.html#aead1c666aafef5787f1824e5ea30efad" target="_top" xlink:title=" ">
<polygon fill="white" stroke="#666666" points="773.5,-315.5 659.5,-315.5 659.5,-285.5 773.5,-285.5 773.5,-315.5"/>
<text text-anchor="start" x="667.5" y="-303.5" font-family="Helvetica,sans-Serif" font-size="10.00">express::Response::</text>
<text text-anchor="middle" x="716.5" y="-292.5" font-family="Helvetica,sans-Serif" font-size="10.00">sendStatus</text>
</a>
</g>
</g>
<!-- Node1&#45;&gt;Node20 -->
<g id="edge50_Node000001_Node000020" class="edge">
<title>Node1&#45;&gt;Node20</title>
<g id="a_edge50_Node000001_Node000020"><a xlink:title=" ">
<path fill="none" stroke="#63b8ff" d="M120.38,-238.52C222.54,-225.05 437.4,-205.4 612,-247.5 638.21,-253.82 665.24,-267.97 685.1,-280.06"/>
<polygon fill="#63b8ff" stroke="#63b8ff" points="683.36,-283.1 693.69,-285.43 687.07,-277.16 683.36,-283.1"/>
</a>
</g>
</g>
<!-- Node34 -->
<g id="Node000034" class="node">
<title>Node34</title>
<g id="a_Node000034"><a xlink:href="classweb_1_1http_1_1server_1_1Response.html#a82301ce94e8418a2d0b9bc052207a178" target="_top" xlink:title=" ">
<polygon fill="white" stroke="#666666" points="1857,-119.5 1752,-119.5 1752,-89.5 1857,-89.5 1857,-119.5"/>
<text text-anchor="start" x="1760" y="-107.5" font-family="Helvetica,sans-Serif" font-size="10.00">web::http::server::</text>
<text text-anchor="middle" x="1804.5" y="-96.5" font-family="Helvetica,sans-Serif" font-size="10.00">Response::set</text>
</a>
</g>
</g>
<!-- Node1&#45;&gt;Node34 -->
<g id="edge51_Node000001_Node000034" class="edge">
<title>Node1&#45;&gt;Node34</title>
<g id="a_edge51_Node000001_Node000034"><a xlink:title=" ">
<path fill="none" stroke="#63b8ff" d="M78.29,-226.85C123.12,-175.75 249.14,-47.5 384.5,-47.5 384.5,-47.5 384.5,-47.5 1418,-47.5 1533.41,-47.5 1666.19,-72.81 1741.94,-89.7"/>
<polygon fill="#63b8ff" stroke="#63b8ff" points="1741.27,-93.14 1751.79,-91.92 1742.81,-86.31 1741.27,-93.14"/>
</a>
</g>
</g>
<!-- Node46 -->
<g id="Node000046" class="node">
<title>Node46</title>
<g id="a_Node000046"><a xlink:href="namespacehttputils.html#a9e46abe5c20380871f3884c9176a424d" target="_top" xlink:title=" ">
<polygon fill="white" stroke="#666666" points="276.5,-19 174.5,-19 174.5,0 276.5,0 276.5,-19"/>
<text text-anchor="middle" x="225.5" y="-7" font-family="Helvetica,sans-Serif" font-size="10.00">httputils::str_split</text>
</a>
</g>
</g>
<!-- Node1&#45;&gt;Node46 -->
<g id="edge52_Node000001_Node000046" class="edge">
<title>Node1&#45;&gt;Node46</title>
<g id="a_edge52_Node000001_Node000046"><a xlink:title=" ">
<path fill="none" stroke="#63b8ff" d="M64.49,-226.97C72.73,-184.76 97.28,-87.65 156,-33.5 160.39,-29.45 165.51,-26.08 170.92,-23.27"/>
<polygon fill="#63b8ff" stroke="#63b8ff" points="172.58,-26.36 180.26,-19.06 169.7,-19.98 172.58,-26.36"/>
</a>
</g>
</g>
<!-- Node4 -->
<g id="Node000004" class="node">
<title>Node4</title>
<g id="a_Node000004"><a xlink:href="namespacehttputils.html#a4dd60a8e2472042c70e00dec22ebf927" target="_top" xlink:title=" ">
<polygon fill="white" stroke="#666666" points="438,-324 333,-324 333,-305 438,-305 438,-324"/>
<text text-anchor="middle" x="385.5" y="-312" font-family="Helvetica,sans-Serif" font-size="10.00">httputils::to_lower</text>
</a>
</g>
</g>
<!-- Node3&#45;&gt;Node4 -->
<g id="edge3_Node000003_Node000004" class="edge">
<title>Node3&#45;&gt;Node4</title>
<g id="a_edge3_Node000003_Node000004"><a xlink:title=" ">
<path fill="none" stroke="#63b8ff" d="M278.24,-311.14C292.49,-311.59 308.1,-312.08 322.86,-312.55"/>
<polygon fill="#63b8ff" stroke="#63b8ff" points="322.81,-316.05 332.92,-312.87 323.03,-309.05 322.81,-316.05"/>
</a>
</g>
</g>
<!-- Node6 -->
<g id="Node000006" class="node">
<title>Node6</title>
<g id="a_Node000006"><a xlink:href="classexpress_1_1Controller.html#a37349835c6e195cd3b2f264cfcf97fae" target="_top" xlink:title=" ">
<polygon fill="white" stroke="#666666" points="440,-286.5 331,-286.5 331,-256.5 440,-256.5 440,-286.5"/>
<text text-anchor="start" x="339" y="-274.5" font-family="Helvetica,sans-Serif" font-size="10.00">express::Controller</text>
<text text-anchor="middle" x="385.5" y="-263.5" font-family="Helvetica,sans-Serif" font-size="10.00">::next</text>
</a>
</g>
</g>
<!-- Node5&#45;&gt;Node6 -->
<g id="edge5_Node000005_Node000006" class="edge">
<title>Node5&#45;&gt;Node6</title>
<g id="a_edge5_Node000005_Node000006"><a xlink:title=" ">
<path fill="none" stroke="#63b8ff" d="M295.34,-268.68C303.74,-268.94 312.29,-269.21 320.61,-269.48"/>
<polygon fill="#63b8ff" stroke="#63b8ff" points="320.51,-272.98 330.61,-269.79 320.73,-265.98 320.51,-272.98"/>
</a>
</g>
</g>
<!-- Node7 -->
<g id="Node000007" class="node">
<title>Node7</title>
<g id="a_Node000007"><a xlink:href="classexpress_1_1RootRoute.html#a2d65050e101a52dc8c303cd787d1cb23" target="_top" xlink:title=" ">
<polygon fill="white" stroke="#666666" points="600,-516.5 488,-516.5 488,-486.5 600,-486.5 600,-516.5"/>
<text text-anchor="start" x="496" y="-504.5" font-family="Helvetica,sans-Serif" font-size="10.00">express::RootRoute</text>
<text text-anchor="middle" x="544" y="-493.5" font-family="Helvetica,sans-Serif" font-size="10.00">::dispatch</text>
</a>
</g>
</g>
<!-- Node6&#45;&gt;Node7 -->
<g id="edge6_Node000006_Node000007" class="edge">
<title>Node6&#45;&gt;Node7</title>
<g id="a_edge6_Node000006_Node000007"><a xlink:title=" ">
<path fill="none" stroke="#63b8ff" d="M426.72,-286.58C431.53,-289.42 436.1,-292.71 440,-296.5 493.58,-348.58 523.95,-434.42 536.35,-476.57"/>
<polygon fill="#63b8ff" stroke="#63b8ff" points="533.01,-477.64 539.11,-486.3 539.74,-475.72 533.01,-477.64"/>
</a>
</g>
</g>
<!-- Node45 -->
<g id="Node000045" class="node">
<title>Node45</title>
<g id="a_Node000045"><a xlink:href="classcore_1_1EventLoop.html#aef20810c9fcf4c7b33a5b6dbab1973b9" target="_top" xlink:title=" ">
<polygon fill="white" stroke="#666666" points="612,-286.5 476,-286.5 476,-256.5 612,-256.5 612,-286.5"/>
<text text-anchor="start" x="484" y="-274.5" font-family="Helvetica,sans-Serif" font-size="10.00">core::EventLoop::getTick</text>
<text text-anchor="middle" x="544" y="-263.5" font-family="Helvetica,sans-Serif" font-size="10.00">Counter</text>
</a>
</g>
</g>
<!-- Node6&#45;&gt;Node45 -->
<g id="edge49_Node000006_Node000045" class="edge">
<title>Node6&#45;&gt;Node45</title>
<g id="a_edge49_Node000006_Node000045"><a xlink:title=" ">
<path fill="none" stroke="#63b8ff" d="M440.36,-271.5C448.56,-271.5 457.15,-271.5 465.73,-271.5"/>
<polygon fill="#63b8ff" stroke="#63b8ff" points="465.77,-275 475.77,-271.5 465.77,-268 465.77,-275"/>
</a>
</g>
</g>
<!-- Node8 -->
<g id="Node000008" class="node">
<title>Node8</title>
<g id="a_Node000008"><a xlink:href="classexpress_1_1Route.html#a1aea7b29f8470cd6394ab72d5daeb66d" target="_top" xlink:title=" ">
<polygon fill="white" stroke="#666666" points="785,-511 648,-511 648,-492 785,-492 785,-511"/>
<text text-anchor="middle" x="716.5" y="-499" font-family="Helvetica,sans-Serif" font-size="10.00">express::Route::dispatch</text>
</a>
</g>
</g>
<!-- Node7&#45;&gt;Node8 -->
<g id="edge7_Node000007_Node000008" class="edge">
<title>Node7&#45;&gt;Node8</title>
<g id="a_edge7_Node000007_Node000008"><a xlink:title=" ">
<path fill="none" stroke="#63b8ff" d="M600.36,-501.5C612.33,-501.5 625.19,-501.5 637.84,-501.5"/>
<polygon fill="#63b8ff" stroke="#63b8ff" points="637.91,-505 647.91,-501.5 637.91,-498 637.91,-505"/>
</a>
</g>
</g>
<!-- Node14 -->
<g id="Node000014" class="node">
<title>Node14</title>
<g id="a_Node000014"><a xlink:href="classexpress_1_1Controller.html#aafcd0fbe7ff947b243d28b6dee9baf98" target="_top" xlink:title=" ">
<polygon fill="white" stroke="#666666" points="771,-607.5 662,-607.5 662,-577.5 771,-577.5 771,-607.5"/>
<text text-anchor="start" x="670" y="-595.5" font-family="Helvetica,sans-Serif" font-size="10.00">express::Controller</text>
<text text-anchor="middle" x="716.5" y="-584.5" font-family="Helvetica,sans-Serif" font-size="10.00">::getResponse</text>
</a>
</g>
</g>
<!-- Node7&#45;&gt;Node14 -->
<g id="edge14_Node000007_Node000014" class="edge">
<title>Node7&#45;&gt;Node14</title>
<g id="a_edge14_Node000007_Node000014"><a xlink:title=" ">
<path fill="none" stroke="#63b8ff" d="M565.06,-516.59C585.23,-531.26 617.59,-553.47 648,-568.5 651.54,-570.25 655.23,-571.93 658.99,-573.54"/>
<polygon fill="#63b8ff" stroke="#63b8ff" points="657.85,-576.85 668.43,-577.38 660.48,-570.37 657.85,-576.85"/>
</a>
</g>
</g>
<!-- Node15 -->
<g id="Node000015" class="node">
<title>Node15</title>
<g id="a_Node000015"><a xlink:href="classexpress_1_1Controller.html#a813e6ff0945a1cc96bc7c77b99bb2259" target="_top" xlink:title=" ">
<polygon fill="white" stroke="#666666" points="771,-559.5 662,-559.5 662,-529.5 771,-529.5 771,-559.5"/>
<text text-anchor="start" x="670" y="-547.5" font-family="Helvetica,sans-Serif" font-size="10.00">express::Controller</text>
<text text-anchor="middle" x="716.5" y="-536.5" font-family="Helvetica,sans-Serif" font-size="10.00">::laxRouting</text>
</a>
</g>
</g>
<!-- Node7&#45;&gt;Node15 -->
<g id="edge15_Node000007_Node000015" class="edge">
<title>Node7&#45;&gt;Node15</title>
<g id="a_edge15_Node000007_Node000015"><a xlink:title=" ">
<path fill="none" stroke="#63b8ff" d="M600.36,-515.46C616.86,-519.62 635.07,-524.22 652.04,-528.5"/>
<polygon fill="#63b8ff" stroke="#63b8ff" points="651.32,-531.92 661.87,-530.98 653.03,-525.14 651.32,-531.92"/>
</a>
</g>
</g>
<!-- Node7&#45;&gt;Node20 -->
<g id="edge20_Node000007_Node000020" class="edge">
<title>Node7&#45;&gt;Node20</title>
<g id="a_edge20_Node000007_Node000020"><a xlink:title=" ">
<path fill="none" stroke="#63b8ff" d="M557.82,-486.39C587.51,-451.39 661.17,-364.55 696.28,-323.15"/>
<polygon fill="#63b8ff" stroke="#63b8ff" points="698.97,-325.4 702.77,-315.51 693.63,-320.87 698.97,-325.4"/>
</a>
</g>
</g>
<!-- Node9 -->
<g id="Node000009" class="node">
<title>Node9</title>
<g id="a_Node000009"><a xlink:href="classexpress_1_1Dispatcher.html#a85f78f8231206e037904233940b7b5a7" target="_top" xlink:title=" ">
<polygon fill="white" stroke="#666666" points="947.5,-607.5 834.5,-607.5 834.5,-577.5 947.5,-577.5 947.5,-607.5"/>
<text text-anchor="start" x="842.5" y="-595.5" font-family="Helvetica,sans-Serif" font-size="10.00">express::Dispatcher</text>
<text text-anchor="middle" x="891" y="-584.5" font-family="Helvetica,sans-Serif" font-size="10.00">::dispatch</text>
</a>
</g>
</g>
<!-- Node8&#45;&gt;Node9 -->
<g id="edge8_Node000008_Node000009" class="edge">
<title>Node8&#45;&gt;Node9</title>
<g id="a_edge8_Node000008_Node000009"><a xlink:title=" ">
<path fill="none" stroke="#63b8ff" d="M766.43,-511.11C772.98,-513.57 779.38,-516.65 785,-520.5 807,-535.58 799.47,-552.77 821,-568.5 823.06,-570.01 825.22,-571.42 827.46,-572.76"/>
<polygon fill="#63b8ff" stroke="#63b8ff" points="825.92,-575.9 836.39,-577.49 829.2,-569.72 825.92,-575.9"/>
</a>
</g>
</g>
<!-- Node10 -->
<g id="Node000010" class="node">
<title>Node10</title>
<g id="a_Node000010"><a xlink:href="classexpress_1_1Controller.html#ad869b9f2284026613a76f1c4e4240de0" target="_top" xlink:title=" ">
<polygon fill="white" stroke="#666666" points="945.5,-559.5 836.5,-559.5 836.5,-529.5 945.5,-529.5 945.5,-559.5"/>
<text text-anchor="start" x="844.5" y="-547.5" font-family="Helvetica,sans-Serif" font-size="10.00">express::Controller</text>
<text text-anchor="middle" x="891" y="-536.5" font-family="Helvetica,sans-Serif" font-size="10.00">::dispatchNext</text>
</a>
</g>
</g>
<!-- Node8&#45;&gt;Node10 -->
<g id="edge9_Node000008_Node000010" class="edge">
<title>Node8&#45;&gt;Node10</title>
<g id="a_edge9_Node000008_Node000010"><a xlink:title=" ">
<path fill="none" stroke="#63b8ff" d="M755.78,-511.04C776.54,-516.22 802.73,-522.75 826.46,-528.66"/>
<polygon fill="#63b8ff" stroke="#63b8ff" points="825.9,-532.13 836.45,-531.15 827.59,-525.34 825.9,-532.13"/>
</a>
</g>
</g>
<!-- Node13 -->
<g id="Node000013" class="node">
<title>Node13</title>
<g id="a_Node000013"><a xlink:href="classexpress_1_1Controller.html#ae7633696264876a7d3f64a3ff8aa1291" target="_top" xlink:title=" ">
<polygon fill="white" stroke="#666666" points="945.5,-473.5 836.5,-473.5 836.5,-443.5 945.5,-443.5 945.5,-473.5"/>
<text text-anchor="start" x="844.5" y="-461.5" font-family="Helvetica,sans-Serif" font-size="10.00">express::Controller</text>
<text text-anchor="middle" x="891" y="-450.5" font-family="Helvetica,sans-Serif" font-size="10.00">::setCurrentRoute</text>
</a>
</g>
</g>
<!-- Node8&#45;&gt;Node13 -->
<g id="edge13_Node000008_Node000013" class="edge">
<title>Node8&#45;&gt;Node13</title>
<g id="a_edge13_Node000008_Node000013"><a xlink:title=" ">
<path fill="none" stroke="#63b8ff" d="M755.78,-491.96C776.54,-486.78 802.73,-480.25 826.46,-474.34"/>
<polygon fill="#63b8ff" stroke="#63b8ff" points="827.59,-477.66 836.45,-471.85 825.9,-470.87 827.59,-477.66"/>
</a>
</g>
</g>
<!-- Node11 -->
<g id="Node000011" class="node">
<title>Node11</title>
<g id="a_Node000011"><a xlink:href="classexpress_1_1Route.html#a8c878f3ae8be82aa01d8a73d55759771" target="_top" xlink:title=" ">
<polygon fill="white" stroke="#666666" points="1157,-551 997,-551 997,-532 1157,-532 1157,-551"/>
<text text-anchor="middle" x="1077" y="-539" font-family="Helvetica,sans-Serif" font-size="10.00">express::Route::dispatchNext</text>
</a>
</g>
</g>
<!-- Node10&#45;&gt;Node11 -->
<g id="edge10_Node000010_Node000011" class="edge">
<title>Node10&#45;&gt;Node11</title>
<g id="a_edge10_Node000010_Node000011"><a xlink:title=" ">
<path fill="none" stroke="#63b8ff" d="M945.72,-543.62C958.6,-543.41 972.71,-543.18 986.74,-542.96"/>
<polygon fill="#63b8ff" stroke="#63b8ff" points="986.97,-546.45 996.92,-542.79 986.86,-539.45 986.97,-546.45"/>
</a>
</g>
</g>
<!-- Node12 -->
<g id="Node000012" class="node">
<title>Node12</title>
<g id="a_Node000012"><a xlink:href="classexpress_1_1Dispatcher.html#a8b5e4f0eb3d02c5f8c5452980a8845c2" target="_top" xlink:title=" ">
<polygon fill="white" stroke="#666666" points="1306,-536.5 1193,-536.5 1193,-506.5 1306,-506.5 1306,-536.5"/>
<text text-anchor="start" x="1201" y="-524.5" font-family="Helvetica,sans-Serif" font-size="10.00">express::Dispatcher</text>
<text text-anchor="middle" x="1249.5" y="-513.5" font-family="Helvetica,sans-Serif" font-size="10.00">::dispatchNext</text>
</a>
</g>
</g>
<!-- Node11&#45;&gt;Node12 -->
<g id="edge11_Node000011_Node000012" class="edge">
<title>Node11&#45;&gt;Node12</title>
<g id="a_edge11_Node000011_Node000012"><a xlink:title=" ">
<path fill="none" stroke="#63b8ff" d="M1157.26,-532.2C1165.79,-531.2 1174.4,-530.19 1182.75,-529.21"/>
<polygon fill="#63b8ff" stroke="#63b8ff" points="1183.26,-532.68 1192.78,-528.04 1182.44,-525.72 1183.26,-532.68"/>
</a>
</g>
</g>
<!-- Node12&#45;&gt;Node8 -->
<g id="edge12_Node000012_Node000008" class="edge">
<title>Node12&#45;&gt;Node8</title>
<g id="a_edge12_Node000012_Node000008"><a xlink:title=" ">
<path fill="none" stroke="#63b8ff" d="M1192.74,-519.4C1097.59,-515.82 903.64,-508.51 795.24,-504.43"/>
<polygon fill="#63b8ff" stroke="#63b8ff" points="795.15,-500.92 785.02,-504.04 794.88,-507.92 795.15,-500.92"/>
</a>
</g>
</g>
<!-- Node16 -->
<g id="Node000016" class="node">
<title>Node16</title>
<g id="a_Node000016"><a xlink:href="classexpress_1_1Request.html#a1272dd3c70ef45f3b28d04757b03141d" target="_top" xlink:title=" ">
<polygon fill="white" stroke="#666666" points="961,-645 821,-645 821,-626 961,-626 961,-645"/>
<text text-anchor="middle" x="891" y="-633" font-family="Helvetica,sans-Serif" font-size="10.00">express::Request::extend</text>
</a>
</g>
</g>
<!-- Node15&#45;&gt;Node16 -->
<g id="edge16_Node000015_Node000016" class="edge">
<title>Node15&#45;&gt;Node16</title>
<g id="a_edge16_Node000015_Node000016"><a xlink:title=" ">
<path fill="none" stroke="#63b8ff" d="M769.94,-559.61C775.26,-562.16 780.39,-565.11 785,-568.5 806.48,-584.31 798.96,-601.49 821,-616.5 823.91,-618.48 827.03,-620.26 830.26,-621.85"/>
<polygon fill="#63b8ff" stroke="#63b8ff" points="829.06,-625.15 839.63,-625.87 831.82,-618.71 829.06,-625.15"/>
</a>
</g>
</g>
<!-- Node17 -->
<g id="Node000017" class="node">
<title>Node17</title>
<g id="a_Node000017"><a xlink:href="namespacehttputils.html#a80eaf509829378ed76d2dad7fd41bef0" target="_top" xlink:title=" ">
<polygon fill="white" stroke="#666666" points="1139.5,-663 1014.5,-663 1014.5,-644 1139.5,-644 1139.5,-663"/>
<text text-anchor="middle" x="1077" y="-651" font-family="Helvetica,sans-Serif" font-size="10.00">httputils::str_split_last</text>
</a>
</g>
</g>
<!-- Node16&#45;&gt;Node17 -->
<g id="edge17_Node000016_Node000017" class="edge">
<title>Node16&#45;&gt;Node17</title>
<g id="a_edge17_Node000016_Node000017"><a xlink:title=" ">
<path fill="none" stroke="#63b8ff" d="M961.04,-642.25C975.15,-643.63 990.04,-645.09 1004.24,-646.48"/>
<polygon fill="#63b8ff" stroke="#63b8ff" points="1004.15,-649.99 1014.45,-647.48 1004.84,-643.02 1004.15,-649.99"/>
</a>
</g>
</g>
<!-- Node18 -->
<g id="Node000018" class="node">
<title>Node18</title>
<g id="a_Node000018"><a xlink:href="namespacehttputils.html#a818b4991d32a494fb64a2f7cf1b25087" target="_top" xlink:title=" ">
<polygon fill="white" stroke="#666666" points="1135,-626 1019,-626 1019,-607 1135,-607 1135,-626"/>
<text text-anchor="middle" x="1077" y="-614" font-family="Helvetica,sans-Serif" font-size="10.00">httputils::url_decode</text>
</a>
</g>
</g>
<!-- Node16&#45;&gt;Node18 -->
<g id="edge18_Node000016_Node000018" class="edge">
<title>Node16&#45;&gt;Node18</title>
<g id="a_edge18_Node000016_Node000018"><a xlink:title=" ">
<path fill="none" stroke="#63b8ff" d="M961.04,-628.37C976.68,-626.76 993.27,-625.04 1008.83,-623.44"/>
<polygon fill="#63b8ff" stroke="#63b8ff" points="1009.31,-626.91 1018.89,-622.4 1008.59,-619.94 1009.31,-626.91"/>
</a>
</g>
</g>
<!-- Node19 -->
<g id="Node000019" class="node">
<title>Node19</title>
<g id="a_Node000019"><a xlink:href="namespacehttputils.html#a2162ee901d7b1ac5f0fdb0dcbbd2d350" target="_top" xlink:title=" ">
<polygon fill="white" stroke="#666666" points="1304.5,-626 1194.5,-626 1194.5,-607 1304.5,-607 1304.5,-626"/>
<text text-anchor="middle" x="1249.5" y="-614" font-family="Helvetica,sans-Serif" font-size="10.00">httputils::from_hex</text>
</a>
</g>
</g>
<!-- Node18&#45;&gt;Node19 -->
<g id="edge19_Node000018_Node000019" class="edge">
<title>Node18&#45;&gt;Node19</title>
<g id="a_edge19_Node000018_Node000019"><a xlink:title=" ">
<path fill="none" stroke="#63b8ff" d="M1135.25,-616.5C1150.88,-616.5 1167.93,-616.5 1183.94,-616.5"/>
<polygon fill="#63b8ff" stroke="#63b8ff" points="1184.29,-620 1194.29,-616.5 1184.29,-613 1184.29,-620"/>
</a>
</g>
</g>
<!-- Node21 -->
<g id="Node000021" class="node">
<title>Node21</title>
<g id="a_Node000021"><a xlink:href="classweb_1_1http_1_1StatusCode.html#ad3c635f1cb778cdb4a2e23332ebda277" target="_top" xlink:title=" ">
<polygon fill="white" stroke="#666666" points="1667.5,-555.5 1543.5,-555.5 1543.5,-525.5 1667.5,-525.5 1667.5,-555.5"/>
<text text-anchor="start" x="1551.5" y="-543.5" font-family="Helvetica,sans-Serif" font-size="10.00">web::http::StatusCode</text>
<text text-anchor="middle" x="1605.5" y="-532.5" font-family="Helvetica,sans-Serif" font-size="10.00">::reason</text>
</a>
</g>
</g>
<!-- Node20&#45;&gt;Node21 -->
<g id="edge21_Node000020_Node000021" class="edge">
<title>Node20&#45;&gt;Node21</title>
<g id="a_edge21_Node000020_Node000021"><a xlink:title=" ">
<path fill="none" stroke="#63b8ff" d="M744.44,-315.53C802.9,-346.71 946.58,-415.5 1076,-415.5 1076,-415.5 1076,-415.5 1250.5,-415.5 1381.75,-415.5 1403.69,-474.4 1528,-516.5 1533.66,-518.42 1539.57,-520.36 1545.49,-522.28"/>
<polygon fill="#63b8ff" stroke="#63b8ff" points="1544.83,-525.74 1555.42,-525.46 1546.97,-519.08 1544.83,-525.74"/>
</a>
</g>
</g>
<!-- Node23 -->
<g id="Node000023" class="node">
<title>Node23</title>
<g id="a_Node000023"><a xlink:href="classweb_1_1http_1_1server_1_1Response.html#a5128a20b904071c22a077b040c8ff138" target="_top" xlink:title=" ">
<polygon fill="white" stroke="#666666" points="943.5,-192.5 838.5,-192.5 838.5,-162.5 943.5,-162.5 943.5,-192.5"/>
<text text-anchor="start" x="846.5" y="-180.5" font-family="Helvetica,sans-Serif" font-size="10.00">web::http::server::</text>
<text text-anchor="middle" x="891" y="-169.5" font-family="Helvetica,sans-Serif" font-size="10.00">Response::send</text>
</a>
</g>
</g>
<!-- Node20&#45;&gt;Node23 -->
<g id="edge23_Node000020_Node000023" class="edge">
<title>Node20&#45;&gt;Node23</title>
<g id="a_edge23_Node000020_Node000023"><a xlink:title=" ">
<path fill="none" stroke="#63b8ff" d="M738.65,-285.42C769.26,-263.6 826,-223.13 860.64,-198.43"/>
<polygon fill="#63b8ff" stroke="#63b8ff" points="862.84,-201.17 868.95,-192.51 858.77,-195.47 862.84,-201.17"/>
</a>
</g>
</g>
<!-- Node44 -->
<g id="Node000044" class="node">
<title>Node44</title>
<g id="a_Node000044"><a xlink:href="classweb_1_1http_1_1server_1_1Response.html#ab0e29ec119bf92d286d94d12ff2071ba" target="_top" xlink:title=" ">
<polygon fill="white" stroke="#666666" points="943.5,-315.5 838.5,-315.5 838.5,-285.5 943.5,-285.5 943.5,-315.5"/>
<text text-anchor="start" x="846.5" y="-303.5" font-family="Helvetica,sans-Serif" font-size="10.00">web::http::server::</text>
<text text-anchor="middle" x="891" y="-292.5" font-family="Helvetica,sans-Serif" font-size="10.00">Response::status</text>
</a>
</g>
</g>
<!-- Node20&#45;&gt;Node44 -->
<g id="edge48_Node000020_Node000044" class="edge">
<title>Node20&#45;&gt;Node44</title>
<g id="a_edge48_Node000020_Node000044"><a xlink:title=" ">
<path fill="none" stroke="#63b8ff" d="M773.51,-300.5C790.94,-300.5 810.26,-300.5 828.08,-300.5"/>
<polygon fill="#63b8ff" stroke="#63b8ff" points="828.36,-304 838.36,-300.5 828.36,-297 828.36,-304"/>
</a>
</g>
</g>
<!-- Node22 -->
<g id="Node000022" class="node">
<title>Node22</title>
<g id="a_Node000022"><a xlink:href="classweb_1_1http_1_1StatusCode.html#a7128168d2becba8d8bfd0e47ab2854ff" target="_top" xlink:title=" ">
<polygon fill="white" stroke="#666666" points="1866.5,-555.5 1742.5,-555.5 1742.5,-525.5 1866.5,-525.5 1866.5,-555.5"/>
<text text-anchor="start" x="1750.5" y="-543.5" font-family="Helvetica,sans-Serif" font-size="10.00">web::http::StatusCode</text>
<text text-anchor="middle" x="1804.5" y="-532.5" font-family="Helvetica,sans-Serif" font-size="10.00">::contains</text>
</a>
</g>
</g>
<!-- Node21&#45;&gt;Node22 -->
<g id="edge22_Node000021_Node000022" class="edge">
<title>Node21&#45;&gt;Node22</title>
<g id="a_edge22_Node000021_Node000022"><a xlink:title=" ">
<path fill="none" stroke="#63b8ff" d="M1667.75,-540.5C1688.14,-540.5 1711.02,-540.5 1732.1,-540.5"/>
<polygon fill="#63b8ff" stroke="#63b8ff" points="1732.29,-544 1742.29,-540.5 1732.29,-537 1732.29,-544"/>
</a>
</g>
</g>
<!-- Node24 -->
<g id="Node000024" class="node">
<title>Node24</title>
<g id="a_Node000024"><a xlink:href="classweb_1_1http_1_1server_1_1Response.html#ad13e93ee083ee9e780a4478a86fdefec" target="_top" xlink:title=" ">
<polygon fill="white" stroke="#666666" points="1129.5,-192.5 1024.5,-192.5 1024.5,-162.5 1129.5,-162.5 1129.5,-192.5"/>
<text text-anchor="start" x="1032.5" y="-180.5" font-family="Helvetica,sans-Serif" font-size="10.00">web::http::server::</text>
<text text-anchor="middle" x="1077" y="-169.5" font-family="Helvetica,sans-Serif" font-size="10.00">Response::send</text>
</a>
</g>
</g>
<!-- Node23&#45;&gt;Node24 -->
<g id="edge24_Node000023_Node000024" class="edge">
<title>Node23&#45;&gt;Node24</title>
<g id="a_edge24_Node000023_Node000024"><a xlink:title=" ">
<path fill="none" stroke="#63b8ff" d="M943.74,-177.5C965.59,-177.5 991.21,-177.5 1014.05,-177.5"/>
<polygon fill="#63b8ff" stroke="#63b8ff" points="1014.33,-181 1024.33,-177.5 1014.33,-174 1014.33,-181"/>
</a>
</g>
</g>
<!-- Node23&#45;&gt;Node34 -->
<g id="edge47_Node000023_Node000034" class="edge">
<title>Node23&#45;&gt;Node34</title>
<g id="a_edge47_Node000023_Node000034"><a xlink:title=" ">
<path fill="none" stroke="#63b8ff" d="M926.65,-162.31C989.5,-136.18 1127.05,-85.5 1248.5,-85.5 1248.5,-85.5 1248.5,-85.5 1418,-85.5 1532.24,-85.5 1665.28,-93.93 1741.43,-99.56"/>
<polygon fill="#63b8ff" stroke="#63b8ff" points="1741.55,-103.07 1751.79,-100.33 1742.08,-96.09 1741.55,-103.07"/>
</a>
</g>
</g>
<!-- Node25 -->
<g id="Node000025" class="node">
<title>Node25</title>
<g id="a_Node000025"><a xlink:href="classweb_1_1http_1_1server_1_1Response.html#a6bdff1ff4fb13a952df7bfefd0b87667" target="_top" xlink:title=" ">
<polygon fill="white" stroke="#666666" points="1305.5,-262.5 1193.5,-262.5 1193.5,-232.5 1305.5,-232.5 1305.5,-262.5"/>
<text text-anchor="start" x="1201.5" y="-250.5" font-family="Helvetica,sans-Serif" font-size="10.00">web::http::server::</text>
<text text-anchor="middle" x="1249.5" y="-239.5" font-family="Helvetica,sans-Serif" font-size="10.00">Response::enqueue</text>
</a>
</g>
</g>
<!-- Node24&#45;&gt;Node25 -->
<g id="edge25_Node000024_Node000025" class="edge">
<title>Node24&#45;&gt;Node25</title>
<g id="a_edge25_Node000024_Node000025"><a xlink:title=" ">
<path fill="none" stroke="#63b8ff" d="M1114.58,-192.52C1140.22,-203.05 1174.71,-217.2 1202.26,-228.52"/>
<polygon fill="#63b8ff" stroke="#63b8ff" points="1201.11,-231.83 1211.69,-232.39 1203.77,-225.35 1201.11,-231.83"/>
</a>
</g>
</g>
<!-- Node24&#45;&gt;Node34 -->
<g id="edge46_Node000024_Node000034" class="edge">
<title>Node24&#45;&gt;Node34</title>
<g id="a_edge46_Node000024_Node000034"><a xlink:title=" ">
<path fill="none" stroke="#63b8ff" d="M1129.51,-169.9C1182.65,-162.24 1267.99,-150.45 1342,-142.5 1484.82,-127.16 1653.09,-114.72 1741.71,-108.61"/>
<polygon fill="#63b8ff" stroke="#63b8ff" points="1742.12,-112.09 1751.86,-107.91 1741.64,-105.11 1742.12,-112.09"/>
</a>
</g>
</g>
<!-- Node26 -->
<g id="Node000026" class="node">
<title>Node26</title>
<g id="a_Node000026"><a xlink:href="classweb_1_1http_1_1server_1_1RequestContextBase.html#a4f00d26b05063a3f91a13a4e3f83023d" target="_top" xlink:title=" ">
<polygon fill="white" stroke="#666666" points="1492,-241.5 1342,-241.5 1342,-211.5 1492,-211.5 1492,-241.5"/>
<text text-anchor="start" x="1350" y="-229.5" font-family="Helvetica,sans-Serif" font-size="10.00">web::http::server::</text>
<text text-anchor="middle" x="1417" y="-218.5" font-family="Helvetica,sans-Serif" font-size="10.00">RequestContextBase::close</text>
</a>
</g>
</g>
<!-- Node25&#45;&gt;Node26 -->
<g id="edge26_Node000025_Node000026" class="edge">
<title>Node25&#45;&gt;Node26</title>
<g id="a_edge26_Node000025_Node000026"><a xlink:title=" ">
<path fill="none" stroke="#63b8ff" d="M1305.61,-240.51C1314.08,-239.43 1322.99,-238.3 1331.92,-237.17"/>
<polygon fill="#63b8ff" stroke="#63b8ff" points="1332.51,-240.62 1341.99,-235.89 1331.62,-233.68 1332.51,-240.62"/>
</a>
</g>
</g>
<!-- Node29 -->
<g id="Node000029" class="node">
<title>Node29</title>
<g id="a_Node000029"><a xlink:href="classweb_1_1http_1_1server_1_1Response.html#a4fae387fd1d11b86260f4572bfebfce2" target="_top" xlink:title=" ">
<polygon fill="white" stroke="#666666" points="1481,-327.5 1353,-327.5 1353,-297.5 1481,-297.5 1481,-327.5"/>
<text text-anchor="start" x="1361" y="-315.5" font-family="Helvetica,sans-Serif" font-size="10.00">web::http::server::</text>
<text text-anchor="middle" x="1417" y="-304.5" font-family="Helvetica,sans-Serif" font-size="10.00">Response::sendHeader</text>
</a>
</g>
</g>
<!-- Node25&#45;&gt;Node29 -->
<g id="edge29_Node000025_Node000029" class="edge">
<title>Node25&#45;&gt;Node29</title>
<g id="a_edge29_Node000025_Node000029"><a xlink:title=" ">
<path fill="none" stroke="#63b8ff" d="M1288.78,-262.57C1305.17,-269.02 1324.52,-276.64 1342,-283.5 1350.49,-286.83 1359.53,-290.38 1368.27,-293.8"/>
<polygon fill="#63b8ff" stroke="#63b8ff" points="1367,-297.07 1377.59,-297.46 1369.56,-290.55 1367,-297.07"/>
</a>
</g>
</g>
<!-- Node39 -->
<g id="Node000039" class="node">
<title>Node39</title>
<g id="a_Node000039"><a xlink:href="classweb_1_1http_1_1server_1_1RequestContextBase.html#a75e9f8daa736c9af15f9b784477fd216" target="_top" xlink:title=" ">
<polygon fill="white" stroke="#666666" points="1479.5,-387 1354.5,-387 1354.5,-346 1479.5,-346 1479.5,-387"/>
<text text-anchor="start" x="1362.5" y="-375" font-family="Helvetica,sans-Serif" font-size="10.00">web::http::server::</text>
<text text-anchor="start" x="1362.5" y="-364" font-family="Helvetica,sans-Serif" font-size="10.00">RequestContextBase::</text>
<text text-anchor="middle" x="1417" y="-353" font-family="Helvetica,sans-Serif" font-size="10.00">sendToPeer</text>
</a>
</g>
</g>
<!-- Node25&#45;&gt;Node39 -->
<g id="edge41_Node000025_Node000039" class="edge">
<title>Node25&#45;&gt;Node39</title>
<g id="a_edge41_Node000025_Node000039"><a xlink:title=" ">
<path fill="none" stroke="#63b8ff" d="M1262.71,-262.56C1279.04,-281.88 1309.71,-315.42 1342,-336.5 1344.45,-338.1 1347,-339.64 1349.61,-341.12"/>
<polygon fill="#63b8ff" stroke="#63b8ff" points="1348.22,-344.34 1358.7,-345.9 1351.49,-338.15 1348.22,-344.34"/>
</a>
</g>
</g>
<!-- Node42 -->
<g id="Node000042" class="node">
<title>Node42</title>
<g id="a_Node000042"><a xlink:href="classweb_1_1http_1_1server_1_1RequestContextBase.html#a0d34bccc21c1e0139345d8a59520c8cb" target="_top" xlink:title=" ">
<polygon fill="white" stroke="#666666" points="1479.5,-193 1354.5,-193 1354.5,-152 1479.5,-152 1479.5,-193"/>
<text text-anchor="start" x="1362.5" y="-181" font-family="Helvetica,sans-Serif" font-size="10.00">web::http::server::</text>
<text text-anchor="start" x="1362.5" y="-170" font-family="Helvetica,sans-Serif" font-size="10.00">RequestContextBase::</text>
<text text-anchor="middle" x="1417" y="-159" font-family="Helvetica,sans-Serif" font-size="10.00">sendToPeerCompleted</text>
</a>
</g>
</g>
<!-- Node25&#45;&gt;Node42 -->
<g id="edge44_Node000025_Node000042" class="edge">
<title>Node25&#45;&gt;Node42</title>
<g id="a_edge44_Node000025_Node000042"><a xlink:title=" ">
<path fill="none" stroke="#63b8ff" d="M1279.91,-232.36C1297.73,-223.36 1321,-211.91 1342,-202.5 1346.1,-200.67 1350.34,-198.81 1354.63,-196.98"/>
<polygon fill="#63b8ff" stroke="#63b8ff" points="1356.19,-200.12 1364.05,-193.01 1353.47,-193.67 1356.19,-200.12"/>
</a>
</g>
</g>
<!-- Node27 -->
<g id="Node000027" class="node">
<title>Node27</title>
<g id="a_Node000027"><a xlink:href="classcore_1_1socket_1_1stream_1_1SocketContext.html#a47b23b8583dfd3880232e748f284f380" target="_top" xlink:title=" ">
<polygon fill="white" stroke="#666666" points="1668,-229.5 1543,-229.5 1543,-199.5 1668,-199.5 1668,-229.5"/>
<text text-anchor="start" x="1551" y="-217.5" font-family="Helvetica,sans-Serif" font-size="10.00">core::socket::stream</text>
<text text-anchor="middle" x="1605.5" y="-206.5" font-family="Helvetica,sans-Serif" font-size="10.00">::SocketContext::close</text>
</a>
</g>
</g>
<!-- Node26&#45;&gt;Node27 -->
<g id="edge27_Node000026_Node000027" class="edge">
<title>Node26&#45;&gt;Node27</title>
<g id="a_edge27_Node000026_Node000027"><a xlink:title=" ">
<path fill="none" stroke="#63b8ff" d="M1492.25,-221.72C1505.6,-220.86 1519.5,-219.97 1532.78,-219.11"/>
<polygon fill="#63b8ff" stroke="#63b8ff" points="1533.05,-222.6 1542.8,-218.47 1532.6,-215.62 1533.05,-222.6"/>
</a>
</g>
</g>
<!-- Node28 -->
<g id="Node000028" class="node">
<title>Node28</title>
<g id="a_Node000028"><a xlink:href="classcore_1_1socket_1_1stream_1_1SocketConnection.html#aed398e81ede92d1d1cfae2597580ad2c" target="_top" xlink:title=" ">
<polygon fill="white" stroke="#666666" points="1875,-229.5 1734,-229.5 1734,-199.5 1875,-199.5 1875,-229.5"/>
<text text-anchor="start" x="1742" y="-217.5" font-family="Helvetica,sans-Serif" font-size="10.00">core::socket::stream</text>
<text text-anchor="middle" x="1804.5" y="-206.5" font-family="Helvetica,sans-Serif" font-size="10.00">::SocketConnection::close</text>
</a>
</g>
</g>
<!-- Node27&#45;&gt;Node28 -->
<g id="edge28_Node000027_Node000028" class="edge">
<title>Node27&#45;&gt;Node28</title>
<g id="a_edge28_Node000027_Node000028"><a xlink:title=" ">
<path fill="none" stroke="#63b8ff" d="M1668.02,-214.5C1685.64,-214.5 1705.11,-214.5 1723.67,-214.5"/>
<polygon fill="#63b8ff" stroke="#63b8ff" points="1723.86,-218 1733.86,-214.5 1723.86,-211 1723.86,-218"/>
</a>
</g>
</g>
<!-- Node29&#45;&gt;Node21 -->
<g id="edge34_Node000029_Node000021" class="edge">
<title>Node29&#45;&gt;Node21</title>
<g id="a_edge34_Node000029_Node000021"><a xlink:title=" ">
<path fill="none" stroke="#63b8ff" d="M1480.19,-327.6C1484.57,-330.36 1488.6,-333.63 1492,-337.5 1545.61,-398.42 1473.73,-456.17 1528,-516.5 1530.01,-518.73 1532.22,-520.76 1534.59,-522.6"/>
<polygon fill="#63b8ff" stroke="#63b8ff" points="1532.87,-525.65 1543.17,-528.16 1536.68,-519.78 1532.87,-525.65"/>
</a>
</g>
</g>
<!-- Node30 -->
<g id="Node000030" class="node">
<title>Node30</title>
<g id="a_Node000030"><a xlink:href="classweb_1_1http_1_1server_1_1Response.html#a9c5834911394dedb7faed2e52ceb7a1d" target="_top" xlink:title=" ">
<polygon fill="white" stroke="#666666" points="1661.5,-277.5 1549.5,-277.5 1549.5,-247.5 1661.5,-247.5 1661.5,-277.5"/>
<text text-anchor="start" x="1557.5" y="-265.5" font-family="Helvetica,sans-Serif" font-size="10.00">web::http::server::</text>
<text text-anchor="middle" x="1605.5" y="-254.5" font-family="Helvetica,sans-Serif" font-size="10.00">Response::enqueue</text>
</a>
</g>
</g>
<!-- Node29&#45;&gt;Node30 -->
<g id="edge30_Node000029_Node000030" class="edge">
<title>Node29&#45;&gt;Node30</title>
<g id="a_edge30_Node000029_Node000030"><a xlink:title=" ">
<path fill="none" stroke="#63b8ff" d="M1473.96,-297.5C1494.52,-291.99 1517.98,-285.7 1539.29,-279.98"/>
<polygon fill="#63b8ff" stroke="#63b8ff" points="1540.47,-283.29 1549.23,-277.32 1538.66,-276.53 1540.47,-283.29"/>
</a>
</g>
</g>
<!-- Node31 -->
<g id="Node000031" class="node">
<title>Node31</title>
<g id="a_Node000031"><a xlink:href="classweb_1_1http_1_1CookieOptions.html#a4be3fcbeb3b146110d45edadba1ddc08" target="_top" xlink:title=" ">
<polygon fill="white" stroke="#666666" points="1675.5,-421.5 1535.5,-421.5 1535.5,-391.5 1675.5,-391.5 1675.5,-421.5"/>
<text text-anchor="start" x="1543.5" y="-409.5" font-family="Helvetica,sans-Serif" font-size="10.00">web::http::CookieOptions</text>
<text text-anchor="middle" x="1605.5" y="-398.5" font-family="Helvetica,sans-Serif" font-size="10.00">::getOptions</text>
</a>
</g>
</g>
<!-- Node29&#45;&gt;Node31 -->
<g id="edge32_Node000029_Node000031" class="edge">
<title>Node29&#45;&gt;Node31</title>
<g id="a_edge32_Node000029_Node000031"><a xlink:title=" ">
<path fill="none" stroke="#63b8ff" d="M1474.23,-327.63C1480.49,-330.42 1486.56,-333.69 1492,-337.5 1512.98,-352.19 1506.86,-368.04 1528,-382.5 1530.37,-384.12 1532.85,-385.64 1535.42,-387.05"/>
<polygon fill="#63b8ff" stroke="#63b8ff" points="1533.89,-390.2 1544.4,-391.5 1536.99,-383.93 1533.89,-390.2"/>
</a>
</g>
</g>
<!-- Node32 -->
<g id="Node000032" class="node">
<title>Node32</title>
<g id="a_Node000032"><a xlink:href="classweb_1_1http_1_1CookieOptions.html#a93e39fac2e3beb0b97a485169479e2ea" target="_top" xlink:title=" ">
<polygon fill="white" stroke="#666666" points="1675.5,-373.5 1535.5,-373.5 1535.5,-343.5 1675.5,-343.5 1675.5,-373.5"/>
<text text-anchor="start" x="1543.5" y="-361.5" font-family="Helvetica,sans-Serif" font-size="10.00">web::http::CookieOptions</text>
<text text-anchor="middle" x="1605.5" y="-350.5" font-family="Helvetica,sans-Serif" font-size="10.00">::getValue</text>
</a>
</g>
</g>
<!-- Node29&#45;&gt;Node32 -->
<g id="edge33_Node000029_Node000032" class="edge">
<title>Node29&#45;&gt;Node32</title>
<g id="a_edge33_Node000029_Node000032"><a xlink:title=" ">
<path fill="none" stroke="#63b8ff" d="M1479.07,-327.56C1496.55,-331.87 1515.74,-336.61 1533.75,-341.05"/>
<polygon fill="#63b8ff" stroke="#63b8ff" points="1533.07,-344.49 1543.61,-343.48 1534.74,-337.69 1533.07,-344.49"/>
</a>
</g>
</g>
<!-- Node33 -->
<g id="Node000033" class="node">
<title>Node33</title>
<g id="a_Node000033"><a xlink:href="classweb_1_1http_1_1server_1_1Response.html#a6f8d3d143f82fc3b48fe2d705e95a0c7" target="_top" xlink:title=" ">
<polygon fill="white" stroke="#666666" points="1658,-325.5 1553,-325.5 1553,-295.5 1658,-295.5 1658,-325.5"/>
<text text-anchor="start" x="1561" y="-313.5" font-family="Helvetica,sans-Serif" font-size="10.00">web::http::server::</text>
<text text-anchor="middle" x="1605.5" y="-302.5" font-family="Helvetica,sans-Serif" font-size="10.00">Response::set</text>
</a>
</g>
</g>
<!-- Node29&#45;&gt;Node33 -->
<g id="edge35_Node000029_Node000033" class="edge">
<title>Node29&#45;&gt;Node33</title>
<g id="a_edge35_Node000029_Node000033"><a xlink:title=" ">
<path fill="none" stroke="#63b8ff" d="M1481.14,-311.82C1501.03,-311.61 1522.96,-311.37 1542.75,-311.16"/>
<polygon fill="#63b8ff" stroke="#63b8ff" points="1542.92,-314.66 1552.88,-311.05 1542.85,-307.66 1542.92,-314.66"/>
</a>
</g>
</g>
<!-- Node36 -->
<g id="Node000036" class="node">
<title>Node36</title>
<g id="a_Node000036"><a xlink:href="namespacehttputils.html#ad53daa08390598493f3f4ae09164a60a" target="_top" xlink:title=" ">
<polygon fill="white" stroke="#666666" points="1668,-459 1543,-459 1543,-440 1668,-440 1668,-459"/>
<text text-anchor="middle" x="1605.5" y="-447" font-family="Helvetica,sans-Serif" font-size="10.00">httputils::to_http_date</text>
</a>
</g>
</g>
<!-- Node29&#45;&gt;Node36 -->
<g id="edge38_Node000029_Node000036" class="edge">
<title>Node29&#45;&gt;Node36</title>
<g id="a_edge38_Node000029_Node000036"><a xlink:title=" ">
<path fill="none" stroke="#63b8ff" d="M1478.42,-327.65C1483.36,-330.4 1487.98,-333.66 1492,-337.5 1524.02,-368.15 1494.75,-401.19 1528,-430.5 1529.93,-432.2 1531.99,-433.76 1534.15,-435.18"/>
<polygon fill="#63b8ff" stroke="#63b8ff" points="1532.47,-438.25 1542.92,-440.01 1535.85,-432.12 1532.47,-438.25"/>
</a>
</g>
</g>
<!-- Node30&#45;&gt;Node25 -->
<g id="edge31_Node000030_Node000025" class="edge">
<title>Node30&#45;&gt;Node25</title>
<g id="a_edge31_Node000030_Node000025"><a xlink:title=" ">
<path fill="none" stroke="#63b8ff" d="M1549.28,-260.16C1486.16,-257.49 1382.92,-253.11 1315.85,-250.27"/>
<polygon fill="#63b8ff" stroke="#63b8ff" points="1315.95,-246.77 1305.81,-249.84 1315.66,-253.76 1315.95,-246.77"/>
</a>
</g>
</g>
<!-- Node33&#45;&gt;Node34 -->
<g id="edge36_Node000033_Node000034" class="edge">
<title>Node33&#45;&gt;Node34</title>
<g id="a_edge36_Node000033_Node000034"><a xlink:title=" ">
<path fill="none" stroke="#63b8ff" d="M1658.16,-301.36C1667.25,-297.89 1676.03,-293.1 1683,-286.5 1716.09,-255.17 1694.5,-228.92 1719,-190.5 1734.71,-165.86 1758.42,-142.52 1776.73,-126.38"/>
<polygon fill="#63b8ff" stroke="#63b8ff" points="1779.42,-128.68 1784.71,-119.5 1774.85,-123.38 1779.42,-128.68"/>
</a>
</g>
</g>
<!-- Node35 -->
<g id="Node000035" class="node">
<title>Node35</title>
<g id="a_Node000035"><a xlink:href="namespacehttputils.html#af566d4f31d97a3a84b373a94e6cf9594" target="_top" xlink:title=" ">
<polygon fill="white" stroke="#666666" points="2044,-114 1926,-114 1926,-95 2044,-95 2044,-114"/>
<text text-anchor="middle" x="1985" y="-102" font-family="Helvetica,sans-Serif" font-size="10.00">httputils::ci_contains</text>
</a>
</g>
</g>
<!-- Node34&#45;&gt;Node35 -->
<g id="edge37_Node000034_Node000035" class="edge">
<title>Node34&#45;&gt;Node35</title>
<g id="a_edge37_Node000034_Node000035"><a xlink:title=" ">
<path fill="none" stroke="#63b8ff" d="M1857.13,-104.5C1875.45,-104.5 1896.37,-104.5 1915.86,-104.5"/>
<polygon fill="#63b8ff" stroke="#63b8ff" points="1915.9,-108 1925.9,-104.5 1915.9,-101 1915.9,-108"/>
</a>
</g>
</g>
<!-- Node37 -->
<g id="Node000037" class="node">
<title>Node37</title>
<g id="a_Node000037"><a xlink:href="namespaceutils_1_1system.html#a629a1ebec50192eff5587cdd5d51bf20" target="_top" xlink:title=" ">
<polygon fill="white" stroke="#666666" points="1866.5,-459 1742.5,-459 1742.5,-440 1866.5,-440 1866.5,-459"/>
<text text-anchor="middle" x="1804.5" y="-447" font-family="Helvetica,sans-Serif" font-size="10.00">utils::system::gmtime</text>
</a>
</g>
</g>
<!-- Node36&#45;&gt;Node37 -->
<g id="edge39_Node000036_Node000037" class="edge">
<title>Node36&#45;&gt;Node37</title>
<g id="a_edge39_Node000036_Node000037"><a xlink:title=" ">
<path fill="none" stroke="#63b8ff" d="M1668.02,-449.5C1688.4,-449.5 1711.24,-449.5 1732.28,-449.5"/>
<polygon fill="#63b8ff" stroke="#63b8ff" points="1732.44,-453 1742.44,-449.5 1732.44,-446 1732.44,-453"/>
</a>
</g>
</g>
<!-- Node38 -->
<g id="Node000038" class="node">
<title>Node38</title>
<g id="a_Node000038"><a xlink:href="namespaceutils_1_1system.html#aa36252afed0ca4903feb511649270d1c" target="_top" xlink:title=" ">
<polygon fill="white" stroke="#666666" points="1858.5,-422 1750.5,-422 1750.5,-403 1858.5,-403 1858.5,-422"/>
<text text-anchor="middle" x="1804.5" y="-410" font-family="Helvetica,sans-Serif" font-size="10.00">utils::system::time</text>
</a>
</g>
</g>
<!-- Node36&#45;&gt;Node38 -->
<g id="edge40_Node000036_Node000038" class="edge">
<title>Node36&#45;&gt;Node38</title>
<g id="a_edge40_Node000036_Node000038"><a xlink:title=" ">
<path fill="none" stroke="#63b8ff" d="M1657.23,-439.97C1683.33,-435.07 1715.32,-429.06 1742.73,-423.91"/>
<polygon fill="#63b8ff" stroke="#63b8ff" points="1743.42,-427.35 1752.6,-422.06 1742.12,-420.47 1743.42,-427.35"/>
</a>
</g>
</g>
<!-- Node40 -->
<g id="Node000040" class="node">
<title>Node40</title>
<g id="a_Node000040"><a xlink:href="classcore_1_1socket_1_1stream_1_1SocketContext.html#a7ab4e5580dbb64d509ffe2573205c600" target="_top" xlink:title=" ">
<polygon fill="white" stroke="#666666" points="1683,-507.5 1528,-507.5 1528,-477.5 1683,-477.5 1683,-507.5"/>
<text text-anchor="start" x="1536" y="-495.5" font-family="Helvetica,sans-Serif" font-size="10.00">core::socket::stream</text>
<text text-anchor="middle" x="1605.5" y="-484.5" font-family="Helvetica,sans-Serif" font-size="10.00">::SocketContext::sendToPeer</text>
</a>
</g>
</g>
<!-- Node39&#45;&gt;Node40 -->
<g id="edge42_Node000039_Node000040" class="edge">
<title>Node39&#45;&gt;Node40</title>
<g id="a_edge42_Node000039_Node000040"><a xlink:title=" ">
<path fill="none" stroke="#63b8ff" d="M1472.36,-387.17C1479.44,-391.26 1486.23,-396.02 1492,-401.5 1516.51,-424.78 1501.95,-446.96 1528,-468.5 1529.57,-469.8 1531.21,-471.02 1532.9,-472.19"/>
<polygon fill="#63b8ff" stroke="#63b8ff" points="1531.42,-475.37 1541.8,-477.46 1534.98,-469.35 1531.42,-475.37"/>
</a>
</g>
</g>
<!-- Node41 -->
<g id="Node000041" class="node">
<title>Node41</title>
<g id="a_Node000041"><a xlink:href="classcore_1_1socket_1_1stream_1_1SocketConnection.html#a8562a65ddd381e8a5c3360d12064b0ac" target="_top" xlink:title=" ">
<polygon fill="white" stroke="#666666" points="1890,-507.5 1719,-507.5 1719,-477.5 1890,-477.5 1890,-507.5"/>
<text text-anchor="start" x="1727" y="-495.5" font-family="Helvetica,sans-Serif" font-size="10.00">core::socket::stream</text>
<text text-anchor="middle" x="1804.5" y="-484.5" font-family="Helvetica,sans-Serif" font-size="10.00">::SocketConnection::sendToPeer</text>
</a>
</g>
</g>
<!-- Node40&#45;&gt;Node41 -->
<g id="edge43_Node000040_Node000041" class="edge">
<title>Node40&#45;&gt;Node41</title>
<g id="a_edge43_Node000040_Node000041"><a xlink:title=" ">
<path fill="none" stroke="#63b8ff" d="M1683.23,-492.5C1691.62,-492.5 1700.22,-492.5 1708.79,-492.5"/>
<polygon fill="#63b8ff" stroke="#63b8ff" points="1708.82,-496 1718.82,-492.5 1708.82,-489 1708.82,-496"/>
</a>
</g>
</g>
<!-- Node43 -->
<g id="Node000043" class="node">
<title>Node43</title>
<g id="a_Node000043"><a xlink:href="classweb_1_1http_1_1SocketContext.html#a3d37b0a17a47ce6c9ebf96900bfe2a74" target="_top" xlink:title=" ">
<polygon fill="white" stroke="#666666" points="1675,-181.5 1536,-181.5 1536,-151.5 1675,-151.5 1675,-181.5"/>
<text text-anchor="start" x="1544" y="-169.5" font-family="Helvetica,sans-Serif" font-size="10.00">web::http::SocketContext</text>
<text text-anchor="middle" x="1605.5" y="-158.5" font-family="Helvetica,sans-Serif" font-size="10.00">::sendToPeerCompleted</text>
</a>
</g>
</g>
<!-- Node42&#45;&gt;Node43 -->
<g id="edge45_Node000042_Node000043" class="edge">
<title>Node42&#45;&gt;Node43</title>
<g id="a_edge45_Node000042_Node000043"><a xlink:title=" ">
<path fill="none" stroke="#63b8ff" d="M1479.58,-170.52C1494.38,-170.04 1510.38,-169.53 1525.84,-169.03"/>
<polygon fill="#63b8ff" stroke="#63b8ff" points="1526.01,-172.53 1535.9,-168.71 1525.79,-165.53 1526.01,-172.53"/>
</a>
</g>
</g>
</g>
</svg>
