<?xml version="1.0" encoding="UTF-8" standalone="no"?>
<!DOCTYPE svg PUBLIC "-//W3C//DTD SVG 1.1//EN"
 "http://www.w3.org/Graphics/SVG/1.1/DTD/svg11.dtd">
<!-- Generated by graphviz version 14.1.2 (0)
 -->
<!-- Title: core::socket::stream::SocketWriter Pages: 1 -->
<svg width="1209pt" height="1045pt"
 viewBox="0.00 0.00 1209.00 1045.00" xmlns="http://www.w3.org/2000/svg" xmlns:xlink="http://www.w3.org/1999/xlink">
<g id="graph0" class="graph" transform="scale(1 1) rotate(0) translate(4 1041)">
<title>core::socket::stream::SocketWriter</title>
<!-- Node1 -->
<g id="Node000001" class="node">
<title>Node1</title>
<g id="a_Node000001"><a xlink:title=" ">
<polygon fill="#999999" stroke="none" points="919.12,-734.75 812.12,-734.75 812.12,-701.25 919.12,-701.25 919.12,-734.75"/>
<text xml:space="preserve" text-anchor="start" x="816.12" y="-721.25" font-family="Helvetica,sans-Serif" font-size="10.00">core::socket::stream</text>
<text xml:space="preserve" text-anchor="start" x="831.5" y="-708.5" font-family="Helvetica,sans-Serif" font-size="10.00">::SocketWriter</text>
<polygon fill="none" stroke="#666666" points="812.12,-701.25 812.12,-734.75 919.12,-734.75 919.12,-701.25 812.12,-701.25"/>
</a>
</g>
</g>
<!-- Node2 -->
<g id="Node000002" class="node">
<title>Node2</title>
<g id="a_Node000002"><a xlink:href="classcore_1_1eventreceiver_1_1WriteEventReceiver.html" target="_top" xlink:title=" ">
<polygon fill="white" stroke="none" points="758,-852.5 647.25,-852.5 647.25,-819 758,-819 758,-852.5"/>
<text xml:space="preserve" text-anchor="start" x="651.25" y="-839" font-family="Helvetica,sans-Serif" font-size="10.00">core::eventreceiver</text>
<text xml:space="preserve" text-anchor="start" x="651.25" y="-826.25" font-family="Helvetica,sans-Serif" font-size="10.00">::WriteEventReceiver</text>
<polygon fill="none" stroke="#666666" points="647.25,-819 647.25,-852.5 758,-852.5 758,-819 647.25,-819"/>
</a>
</g>
</g>
<!-- Node2&#45;&gt;Node1 -->
<g id="edge1_Node000001_Node000002" class="edge">
<title>Node2&#45;&gt;Node1</title>
<g id="a_edge1_Node000001_Node000002"><a xlink:title=" ">
<path fill="none" stroke="#63b8ff" d="M733.99,-812.48C766.1,-789.68 815.19,-754.81 843.47,-734.73"/>
<polygon fill="none" stroke="#63b8ff" points="731.97,-809.62 725.84,-818.26 736.02,-815.33 731.97,-809.62"/>
</a>
</g>
</g>
<!-- Node3 -->
<g id="Node000003" class="node">
<title>Node3</title>
<g id="a_Node000003"><a xlink:href="classcore_1_1DescriptorEventReceiver.html" target="_top" xlink:title=" ">
<polygon fill="white" stroke="none" points="697.5,-928 541.75,-928 541.75,-907.25 697.5,-907.25 697.5,-928"/>
<text xml:space="preserve" text-anchor="start" x="545.75" y="-914.5" font-family="Helvetica,sans-Serif" font-size="10.00">core::DescriptorEventReceiver</text>
<polygon fill="none" stroke="#666666" points="541.75,-907.25 541.75,-928 697.5,-928 697.5,-907.25 541.75,-907.25"/>
</a>
</g>
</g>
<!-- Node3&#45;&gt;Node2 -->
<g id="edge2_Node000002_Node000003" class="edge">
<title>Node3&#45;&gt;Node2</title>
<g id="a_edge2_Node000002_Node000003"><a xlink:title=" ">
<path fill="none" stroke="#63b8ff" d="M637.33,-899.59C651.86,-885.61 672.27,-865.96 686.39,-852.38"/>
<polygon fill="none" stroke="#63b8ff" points="635.02,-896.96 630.24,-906.41 639.87,-902 635.02,-896.96"/>
</a>
</g>
</g>
<!-- Node13 -->
<g id="Node000013" class="node">
<title>Node13</title>
<g id="a_Node000013"><a xlink:title=" ">
<polygon fill="white" stroke="none" points="313.88,-852.5 181.38,-852.5 181.38,-819 313.88,-819 313.88,-852.5"/>
<text xml:space="preserve" text-anchor="start" x="185.38" y="-839" font-family="Helvetica,sans-Serif" font-size="10.00">std::list&lt; core::Descriptor</text>
<text xml:space="preserve" text-anchor="start" x="202.62" y="-826.25" font-family="Helvetica,sans-Serif" font-size="10.00">EventReceiver * &gt;</text>
<polygon fill="none" stroke="#666666" points="181.38,-819 181.38,-852.5 313.88,-852.5 313.88,-819 181.38,-819"/>
</a>
</g>
</g>
<!-- Node3&#45;&gt;Node13 -->
<g id="edge14_Node000013_Node000003" class="edge">
<title>Node3&#45;&gt;Node13</title>
<g id="a_edge14_Node000013_Node000003"><a xlink:title=" ">
<path fill="none" stroke="#63b8ff" d="M541.81,-910.93C499.4,-906.83 446.21,-900.07 399.62,-889.25 364.88,-881.18 326.96,-868.09 297.69,-857"/>
<polygon fill="none" stroke="#63b8ff" points="297.75,-857.02 290.71,-858.6 286.55,-852.72 293.58,-851.14 297.75,-857.02"/>
</a>
</g>
<text xml:space="preserve" text-anchor="start" x="402.62" y="-876.75" font-family="Helvetica,sans-Serif" font-size="10.00" fill="grey">+elements</text>
</g>
<!-- Node4 -->
<g id="Node000004" class="node">
<title>Node4</title>
<g id="a_Node000004"><a xlink:href="classcore_1_1Observer.html" target="_top" xlink:title=" ">
<polygon fill="white" stroke="none" points="659.25,-1037 580,-1037 580,-1016.25 659.25,-1016.25 659.25,-1037"/>
<text xml:space="preserve" text-anchor="start" x="584" y="-1023.5" font-family="Helvetica,sans-Serif" font-size="10.00">core::Observer</text>
<polygon fill="none" stroke="#666666" points="580,-1016.25 580,-1037 659.25,-1037 659.25,-1016.25 580,-1016.25"/>
</a>
</g>
</g>
<!-- Node4&#45;&gt;Node3 -->
<g id="edge3_Node000003_Node000004" class="edge">
<title>Node4&#45;&gt;Node3</title>
<g id="a_edge3_Node000003_Node000004"><a xlink:title=" ">
<path fill="none" stroke="darkgreen" d="M619.62,-1005.18C619.62,-981.86 619.62,-944.76 619.62,-927.72"/>
<polygon fill="none" stroke="darkgreen" points="616.13,-1004.99 619.63,-1014.99 623.13,-1004.99 616.13,-1004.99"/>
</a>
</g>
</g>
<!-- Node5 -->
<g id="Node000005" class="node">
<title>Node5</title>
<g id="a_Node000005"><a xlink:href="classcore_1_1EventReceiver.html" target="_top" xlink:title=" ">
<polygon fill="white" stroke="none" points="577.38,-302.25 471.88,-302.25 471.88,-281.5 577.38,-281.5 577.38,-302.25"/>
<text xml:space="preserve" text-anchor="start" x="475.88" y="-288.75" font-family="Helvetica,sans-Serif" font-size="10.00">core::EventReceiver</text>
<polygon fill="none" stroke="#666666" points="471.88,-281.5 471.88,-302.25 577.38,-302.25 577.38,-281.5 471.88,-281.5"/>
</a>
</g>
</g>
<!-- Node5&#45;&gt;Node3 -->
<g id="edge4_Node000003_Node000005" class="edge">
<title>Node5&#45;&gt;Node3</title>
<g id="a_edge4_Node000003_Node000005"><a xlink:title=" ">
<path fill="none" stroke="#63b8ff" d="M578.89,-306.57C586.45,-310.14 593.66,-314.63 599.62,-320.25 615.89,-335.58 619.62,-344.03 619.62,-366.38 619.62,-836.75 619.62,-836.75 619.62,-836.75 619.62,-862.27 619.62,-892.37 619.62,-907.28"/>
<polygon fill="none" stroke="#63b8ff" points="580.42,-303.42 569.84,-302.82 577.74,-309.88 580.42,-303.42"/>
</a>
</g>
</g>
<!-- Node6 -->
<g id="Node000006" class="node">
<title>Node6</title>
<g id="a_Node000006"><a xlink:href="classcore_1_1Event.html" target="_top" xlink:title=" ">
<polygon fill="white" stroke="none" points="480,-377.75 417.25,-377.75 417.25,-357 480,-357 480,-377.75"/>
<text xml:space="preserve" text-anchor="start" x="421.25" y="-364.25" font-family="Helvetica,sans-Serif" font-size="10.00">core::Event</text>
<polygon fill="none" stroke="#666666" points="417.25,-357 417.25,-377.75 480,-377.75 480,-357 417.25,-357"/>
</a>
</g>
</g>
<!-- Node5&#45;&gt;Node6 -->
<g id="edge8_Node000006_Node000005" class="edge">
<title>Node5&#45;&gt;Node6</title>
<g id="a_edge8_Node000006_Node000005"><a xlink:title=" ">
<path fill="none" stroke="#63b8ff" d="M522.19,-302.06C519.11,-312.2 512.91,-328.46 502.62,-339 498.02,-343.72 492.42,-347.77 486.6,-351.2"/>
<polygon fill="none" stroke="#63b8ff" points="486.79,-351.1 483.3,-357.41 476.13,-356.62 479.62,-350.31 486.79,-351.1"/>
</a>
</g>
<text xml:space="preserve" text-anchor="start" x="517.98" y="-326.5" font-family="Helvetica,sans-Serif" font-size="10.00" fill="grey">&#45;eventReceiver</text>
</g>
<!-- Node17 -->
<g id="Node000017" class="node">
<title>Node17</title>
<g id="a_Node000017"><a xlink:href="classcore_1_1TimerEventReceiver.html" target="_top" xlink:title=" ">
<polygon fill="white" stroke="none" points="591.25,-203.62 458,-203.62 458,-182.88 591.25,-182.88 591.25,-203.62"/>
<text xml:space="preserve" text-anchor="start" x="462" y="-190.12" font-family="Helvetica,sans-Serif" font-size="10.00">core::TimerEventReceiver</text>
<polygon fill="none" stroke="#666666" points="458,-182.88 458,-203.62 591.25,-203.62 591.25,-182.88 458,-182.88"/>
</a>
</g>
</g>
<!-- Node5&#45;&gt;Node17 -->
<g id="edge21_Node000017_Node000005" class="edge">
<title>Node5&#45;&gt;Node17</title>
<g id="a_edge21_Node000017_Node000005"><a xlink:title=" ">
<path fill="none" stroke="#63b8ff" d="M524.62,-270.27C524.62,-249.55 524.62,-218.56 524.62,-203.35"/>
<polygon fill="none" stroke="#63b8ff" points="521.13,-270.1 524.63,-280.1 528.13,-270.1 521.13,-270.1"/>
</a>
</g>
</g>
<!-- Node6&#45;&gt;Node5 -->
<g id="edge5_Node000005_Node000006" class="edge">
<title>Node6&#45;&gt;Node5</title>
<g id="a_edge5_Node000005_Node000006"><a xlink:title=" ">
<path fill="none" stroke="#63b8ff" d="M449.77,-357.14C451.48,-346.96 455.59,-330.66 465.12,-320.25 469.62,-315.34 475.16,-311.25 481.05,-307.86"/>
<polygon fill="none" stroke="#63b8ff" points="481.02,-307.87 484.63,-301.63 491.78,-302.55 488.17,-308.8 481.02,-307.87"/>
</a>
</g>
<text xml:space="preserve" text-anchor="start" x="468.12" y="-326.5" font-family="Helvetica,sans-Serif" font-size="10.00" fill="grey">&#45;event</text>
</g>
<!-- Node22 -->
<g id="Node000022" class="node">
<title>Node22</title>
<g id="a_Node000022"><a xlink:title=" ">
<polygon fill="white" stroke="none" points="446.38,-302.25 316.88,-302.25 316.88,-281.5 446.38,-281.5 446.38,-302.25"/>
<text xml:space="preserve" text-anchor="start" x="320.88" y="-288.75" font-family="Helvetica,sans-Serif" font-size="10.00">std::list&lt; core::Event * &gt;</text>
<polygon fill="none" stroke="#666666" points="316.88,-281.5 316.88,-302.25 446.38,-302.25 446.38,-281.5 316.88,-281.5"/>
</a>
</g>
</g>
<!-- Node6&#45;&gt;Node22 -->
<g id="edge30_Node000022_Node000006" class="edge">
<title>Node6&#45;&gt;Node22</title>
<g id="a_edge30_Node000022_Node000006"><a xlink:title=" ">
<path fill="none" stroke="#63b8ff" d="M417.37,-361.53C404.02,-357.74 389.68,-351 381.62,-339 376.99,-332.1 376.11,-323.22 376.71,-315.09"/>
<polygon fill="none" stroke="#63b8ff" points="376.73,-314.98 373.74,-308.41 378.64,-303.13 381.63,-309.69 376.73,-314.98"/>
</a>
</g>
<text xml:space="preserve" text-anchor="start" x="384.62" y="-326.5" font-family="Helvetica,sans-Serif" font-size="10.00" fill="grey">+elements</text>
</g>
<!-- Node7 -->
<g id="Node000007" class="node">
<title>Node7</title>
<g id="a_Node000007"><a xlink:title=" ">
<polygon fill="white" stroke="none" points="425,-728.38 368.25,-728.38 368.25,-707.62 425,-707.62 425,-728.38"/>
<text xml:space="preserve" text-anchor="start" x="372.25" y="-714.88" font-family="Helvetica,sans-Serif" font-size="10.00">std::string</text>
<polygon fill="none" stroke="#666666" points="368.25,-707.62 368.25,-728.38 425,-728.38 425,-707.62 368.25,-707.62"/>
</a>
</g>
</g>
<!-- Node7&#45;&gt;Node6 -->
<g id="edge6_Node000006_Node000007" class="edge">
<title>Node7&#45;&gt;Node6</title>
<g id="a_edge6_Node000006_Node000007"><a xlink:title=" ">
<path fill="none" stroke="#63b8ff" d="M406.16,-707.71C421.17,-692.03 448.62,-658.68 448.62,-624.38 448.62,-624.38 448.62,-624.38 448.62,-441.88 448.62,-424.46 448.62,-404.72 448.62,-390.08"/>
<polygon fill="none" stroke="#63b8ff" points="448.63,-390.33 444.63,-384.33 448.63,-378.33 452.63,-384.33 448.63,-390.33"/>
</a>
</g>
<text xml:space="preserve" text-anchor="start" x="451.62" y="-521.62" font-family="Helvetica,sans-Serif" font-size="10.00" fill="grey">&#45;name</text>
</g>
<!-- Node11 -->
<g id="Node000011" class="node">
<title>Node11</title>
<g id="a_Node000011"><a xlink:href="classcore_1_1DescriptorEventPublisher.html" target="_top" xlink:title=" ">
<polygon fill="white" stroke="none" points="367.62,-633.75 209.62,-633.75 209.62,-613 367.62,-613 367.62,-633.75"/>
<text xml:space="preserve" text-anchor="start" x="213.62" y="-620.25" font-family="Helvetica,sans-Serif" font-size="10.00">core::DescriptorEventPublisher</text>
<polygon fill="none" stroke="#666666" points="209.62,-613 209.62,-633.75 367.62,-633.75 367.62,-613 209.62,-613"/>
</a>
</g>
</g>
<!-- Node7&#45;&gt;Node11 -->
<g id="edge15_Node000011_Node000007" class="edge">
<title>Node7&#45;&gt;Node11</title>
<g id="a_edge15_Node000011_Node000007"><a xlink:title=" ">
<path fill="none" stroke="#63b8ff" d="M395.95,-708.08C394.42,-694.13 389.46,-667.16 373.62,-651.75 368.14,-646.42 361.62,-642.12 354.66,-638.66"/>
<polygon fill="none" stroke="#63b8ff" points="354.52,-638.61 347.44,-639.96 343.46,-633.95 350.55,-632.59 354.52,-638.61"/>
</a>
</g>
<text xml:space="preserve" text-anchor="start" x="389.13" y="-658" font-family="Helvetica,sans-Serif" font-size="10.00" fill="grey">&#45;name</text>
</g>
<!-- Node8 -->
<g id="Node000008" class="node">
<title>Node8</title>
<g id="a_Node000008"><a xlink:title=" ">
<polygon fill="white" stroke="none" points="444.5,-852.5 348.75,-852.5 348.75,-819 444.5,-819 444.5,-852.5"/>
<text xml:space="preserve" text-anchor="start" x="352.75" y="-839" font-family="Helvetica,sans-Serif" font-size="10.00">std::basic_string&lt;</text>
<text xml:space="preserve" text-anchor="start" x="378.25" y="-826.25" font-family="Helvetica,sans-Serif" font-size="10.00"> Char &gt;</text>
<polygon fill="none" stroke="#666666" points="348.75,-819 348.75,-852.5 444.5,-852.5 444.5,-819 348.75,-819"/>
</a>
</g>
</g>
<!-- Node8&#45;&gt;Node7 -->
<g id="edge7_Node000007_Node000008" class="edge">
<title>Node8&#45;&gt;Node7</title>
<g id="a_edge7_Node000007_Node000008"><a xlink:title=" ">
<path fill="none" stroke="#63b8ff" d="M396.62,-807.65C396.62,-782.14 396.62,-745.37 396.62,-728.33"/>
<polygon fill="none" stroke="#63b8ff" points="393.13,-807.63 396.63,-817.63 400.13,-807.63 393.13,-807.63"/>
</a>
</g>
</g>
<!-- Node9 -->
<g id="Node000009" class="node">
<title>Node9</title>
<g id="a_Node000009"><a xlink:href="classcore_1_1EventMultiplexer.html" target="_top" xlink:title=" ">
<polygon fill="white" stroke="none" points="347.75,-453.25 229.5,-453.25 229.5,-432.5 347.75,-432.5 347.75,-453.25"/>
<text xml:space="preserve" text-anchor="start" x="233.5" y="-439.75" font-family="Helvetica,sans-Serif" font-size="10.00">core::EventMultiplexer</text>
<polygon fill="none" stroke="#666666" points="229.5,-432.5 229.5,-453.25 347.75,-453.25 347.75,-432.5 229.5,-432.5"/>
</a>
</g>
</g>
<!-- Node9&#45;&gt;Node6 -->
<g id="edge9_Node000006_Node000009" class="edge">
<title>Node9&#45;&gt;Node6</title>
<g id="a_edge9_Node000006_Node000009"><a xlink:title=" ">
<path fill="none" stroke="#63b8ff" d="M296.68,-432.65C306.32,-422.16 323.48,-405.27 341.62,-395.75 361.12,-385.52 384.66,-378.96 404.69,-374.83"/>
<polygon fill="none" stroke="#63b8ff" points="404.59,-374.85 409.74,-369.81 416.38,-372.63 411.23,-377.67 404.59,-374.85"/>
</a>
</g>
<text xml:space="preserve" text-anchor="start" x="344.62" y="-402" font-family="Helvetica,sans-Serif" font-size="10.00" fill="grey">&#45;eventMultiplexer</text>
</g>
<!-- Node10 -->
<g id="Node000010" class="node">
<title>Node10</title>
<g id="a_Node000010"><a xlink:title=" ">
<polygon fill="white" stroke="none" points="360.12,-541.5 217.12,-541.5 217.12,-508 360.12,-508 360.12,-541.5"/>
<text xml:space="preserve" text-anchor="start" x="221.12" y="-528" font-family="Helvetica,sans-Serif" font-size="10.00">std::array&lt; core::Descriptor</text>
<text xml:space="preserve" text-anchor="start" x="236.5" y="-515.25" font-family="Helvetica,sans-Serif" font-size="10.00">EventPublisher *, 3 &gt;</text>
<polygon fill="none" stroke="#666666" points="217.12,-508 217.12,-541.5 360.12,-541.5 360.12,-508 217.12,-508"/>
</a>
</g>
</g>
<!-- Node10&#45;&gt;Node9 -->
<g id="edge10_Node000009_Node000010" class="edge">
<title>Node10&#45;&gt;Node9</title>
<g id="a_edge10_Node000009_Node000010"><a xlink:title=" ">
<path fill="none" stroke="#63b8ff" d="M288.62,-508.35C288.62,-496.36 288.62,-479.57 288.62,-466.12"/>
<polygon fill="none" stroke="#63b8ff" points="288.63,-466.13 284.63,-460.13 288.63,-454.13 292.63,-460.13 288.63,-466.13"/>
</a>
</g>
<text xml:space="preserve" text-anchor="start" x="291.62" y="-477.5" font-family="Helvetica,sans-Serif" font-size="10.00" fill="grey">#descriptorEventPublishers</text>
</g>
<!-- Node11&#45;&gt;Node3 -->
<g id="edge31_Node000003_Node000011" class="edge">
<title>Node11&#45;&gt;Node3</title>
<g id="a_edge31_Node000003_Node000011"><a xlink:title=" ">
<path fill="none" stroke="#63b8ff" d="M367.37,-632.84C393.38,-637.09 418.1,-643.21 427.62,-651.75 479.38,-698.15 435.07,-743.67 474.38,-801 505.05,-845.75 558.19,-881.64 590.98,-900.97"/>
<polygon fill="none" stroke="#63b8ff" points="590.87,-900.91 598.07,-900.43 601.28,-906.89 594.09,-907.37 590.87,-900.91"/>
</a>
</g>
<text xml:space="preserve" text-anchor="start" x="477.38" y="-780.12" font-family="Helvetica,sans-Serif" font-size="10.00" fill="grey">&#45;descriptorEventPublisher</text>
</g>
<!-- Node11&#45;&gt;Node10 -->
<g id="edge11_Node000010_Node000011" class="edge">
<title>Node11&#45;&gt;Node10</title>
<g id="a_edge11_Node000010_Node000011"><a xlink:title=" ">
<path fill="none" stroke="#63b8ff" d="M288.62,-613.11C288.62,-599.74 288.62,-574.46 288.62,-554.52"/>
<polygon fill="none" stroke="#63b8ff" points="288.63,-554.39 284.63,-548.39 288.63,-542.39 292.63,-548.39 288.63,-554.39"/>
</a>
</g>
<text xml:space="preserve" text-anchor="start" x="291.62" y="-574.12" font-family="Helvetica,sans-Serif" font-size="10.00" fill="grey">+elements</text>
</g>
<!-- Node12 -->
<g id="Node000012" class="node">
<title>Node12</title>
<g id="a_Node000012"><a xlink:title=" ">
<polygon fill="white" stroke="none" points="145.25,-741.12 0,-741.12 0,-694.88 145.25,-694.88 145.25,-741.12"/>
<text xml:space="preserve" text-anchor="start" x="4" y="-727.62" font-family="Helvetica,sans-Serif" font-size="10.00">std::map&lt; int, std</text>
<text xml:space="preserve" text-anchor="start" x="4" y="-714.88" font-family="Helvetica,sans-Serif" font-size="10.00">::list&lt; core::DescriptorEvent</text>
<text xml:space="preserve" text-anchor="start" x="35.88" y="-702.12" font-family="Helvetica,sans-Serif" font-size="10.00">Receiver * &gt; &gt;</text>
<polygon fill="none" stroke="#666666" points="0,-694.88 0,-741.12 145.25,-741.12 145.25,-694.88 0,-694.88"/>
</a>
</g>
</g>
<!-- Node12&#45;&gt;Node11 -->
<g id="edge12_Node000011_Node000012" class="edge">
<title>Node12&#45;&gt;Node11</title>
<g id="a_edge12_Node000011_Node000012"><a xlink:title=" ">
<path fill="none" stroke="#63b8ff" d="M71.24,-695.12C71.59,-680.74 74.67,-662.63 86.38,-651.75 102.63,-636.65 151.37,-629.77 196.94,-626.68"/>
<polygon fill="none" stroke="#63b8ff" points="196.8,-626.69 202.54,-622.34 208.77,-625.96 203.03,-630.32 196.8,-626.69"/>
</a>
</g>
<text xml:space="preserve" text-anchor="start" x="89.38" y="-658" font-family="Helvetica,sans-Serif" font-size="10.00" fill="grey">#observedEventReceiverLists</text>
</g>
<!-- Node13&#45;&gt;Node12 -->
<g id="edge13_Node000012_Node000013" class="edge">
<title>Node13&#45;&gt;Node12</title>
<g id="a_edge13_Node000012_Node000013"><a xlink:title=" ">
<path fill="none" stroke="#63b8ff" d="M215.52,-819.02C205.15,-813.63 193.73,-807.35 183.62,-801 158.28,-785.09 131.25,-765.18 110.2,-748.97"/>
<polygon fill="none" stroke="#63b8ff" points="110.27,-749.02 103.08,-748.5 100.8,-741.66 107.99,-742.18 110.27,-749.02"/>
</a>
</g>
<text xml:space="preserve" text-anchor="start" x="186.62" y="-780.12" font-family="Helvetica,sans-Serif" font-size="10.00" fill="grey">+elements</text>
</g>
<!-- Node14 -->
<g id="Node000014" class="node">
<title>Node14</title>
<g id="a_Node000014"><a xlink:title=" ">
<polygon fill="white" stroke="none" points="331.12,-747.5 164.12,-747.5 164.12,-688.5 331.12,-688.5 331.12,-747.5"/>
<text xml:space="preserve" text-anchor="start" x="168.12" y="-734" font-family="Helvetica,sans-Serif" font-size="10.00">std::map&lt; std::list</text>
<text xml:space="preserve" text-anchor="start" x="168.12" y="-721.25" font-family="Helvetica,sans-Serif" font-size="10.00">&lt; core::DescriptorEventReceiver</text>
<text xml:space="preserve" text-anchor="start" x="168.12" y="-708.5" font-family="Helvetica,sans-Serif" font-size="10.00"> * &gt; *, std::list&lt; core::Descriptor</text>
<text xml:space="preserve" text-anchor="start" x="197" y="-695.75" font-family="Helvetica,sans-Serif" font-size="10.00">EventReceiver * &gt; &gt;</text>
<polygon fill="none" stroke="#666666" points="164.12,-688.5 164.12,-747.5 331.12,-747.5 331.12,-688.5 164.12,-688.5"/>
</a>
</g>
</g>
<!-- Node13&#45;&gt;Node14 -->
<g id="edge17_Node000014_Node000013" class="edge">
<title>Node13&#45;&gt;Node14</title>
<g id="a_edge17_Node000014_Node000013"><a xlink:title=" ">
<path fill="none" stroke="#63b8ff" d="M247.62,-819.14C247.62,-804.05 247.62,-780.55 247.62,-760.1"/>
<polygon fill="none" stroke="#63b8ff" points="247.63,-760.12 243.63,-754.12 247.63,-748.12 251.63,-754.12 247.63,-760.12"/>
</a>
</g>
<text xml:space="preserve" text-anchor="start" x="250.62" y="-788.5" font-family="Helvetica,sans-Serif" font-size="10.00" fill="grey">+elements</text>
<text xml:space="preserve" text-anchor="start" x="250.62" y="-771.75" font-family="Helvetica,sans-Serif" font-size="10.00" fill="grey">+keys</text>
</g>
<!-- Node14&#45;&gt;Node11 -->
<g id="edge16_Node000011_Node000014" class="edge">
<title>Node14&#45;&gt;Node11</title>
<g id="a_edge16_Node000011_Node000014"><a xlink:title=" ">
<path fill="none" stroke="#63b8ff" d="M242.35,-688.58C241.5,-676.57 242.43,-662.83 248.38,-651.75 250.52,-647.76 253.53,-644.24 256.95,-641.16"/>
<polygon fill="none" stroke="#63b8ff" points="256.85,-641.24 259.37,-634.48 266.57,-634.2 264.05,-640.96 256.85,-641.24"/>
</a>
</g>
<text xml:space="preserve" text-anchor="start" x="251.38" y="-658" font-family="Helvetica,sans-Serif" font-size="10.00" fill="grey">&#45;dirtyEventReceiverLists</text>
</g>
<!-- Node15 -->
<g id="Node000015" class="node">
<title>Node15</title>
<g id="a_Node000015"><a xlink:href="classcore_1_1TimerEventPublisher.html" target="_top" xlink:title=" ">
<polygon fill="white" stroke="none" points="518.38,-20.75 382.88,-20.75 382.88,0 518.38,0 518.38,-20.75"/>
<text xml:space="preserve" text-anchor="start" x="386.88" y="-7.25" font-family="Helvetica,sans-Serif" font-size="10.00">core::TimerEventPublisher</text>
<polygon fill="none" stroke="#666666" points="382.88,0 382.88,-20.75 518.38,-20.75 518.38,0 382.88,0"/>
</a>
</g>
</g>
<!-- Node15&#45;&gt;Node9 -->
<g id="edge18_Node000009_Node000015" class="edge">
<title>Node15&#45;&gt;Node9</title>
<g id="a_edge18_Node000009_Node000015"><a xlink:title=" ">
<path fill="none" stroke="#63b8ff" d="M383.21,-18.14C298.66,-28.54 164.62,-52.18 164.62,-97.62 164.62,-368.38 164.62,-368.38 164.62,-368.38 164.62,-400.08 194.99,-418.4 225.67,-428.83"/>
<polygon fill="none" stroke="#63b8ff" points="225.5,-428.78 232.41,-426.72 236.97,-432.31 230.06,-434.36 225.5,-428.78"/>
</a>
</g>
<text xml:space="preserve" text-anchor="start" x="167.62" y="-242.62" font-family="Helvetica,sans-Serif" font-size="10.00" fill="grey">&#45;timerEventPublisher</text>
</g>
<!-- Node15&#45;&gt;Node17 -->
<g id="edge22_Node000017_Node000015" class="edge">
<title>Node15&#45;&gt;Node17</title>
<g id="a_edge22_Node000017_Node000015"><a xlink:title=" ">
<path fill="none" stroke="#63b8ff" d="M447.32,-20.48C440.79,-40.04 428.15,-87.14 443.88,-121.75 454.59,-145.32 477.5,-164.09 496.2,-176.32"/>
<polygon fill="none" stroke="#63b8ff" points="496.16,-176.3 503.37,-176.05 506.38,-182.6 499.17,-182.86 496.16,-176.3"/>
</a>
</g>
<text xml:space="preserve" text-anchor="start" x="446.88" y="-95.5" font-family="Helvetica,sans-Serif" font-size="10.00" fill="grey">&#45;timerEventPublisher</text>
</g>
<!-- Node16 -->
<g id="Node000016" class="node">
<title>Node16</title>
<g id="a_Node000016"><a xlink:title=" ">
<polygon fill="white" stroke="none" points="753.88,-121.75 561.38,-121.75 561.38,-75.5 753.88,-75.5 753.88,-121.75"/>
<text xml:space="preserve" text-anchor="start" x="565.38" y="-108.25" font-family="Helvetica,sans-Serif" font-size="10.00">std::set&lt; core::TimerEvent</text>
<text xml:space="preserve" text-anchor="start" x="565.38" y="-95.5" font-family="Helvetica,sans-Serif" font-size="10.00">Receiver *, core::TimerEventPublisher</text>
<text xml:space="preserve" text-anchor="start" x="617.88" y="-82.75" font-family="Helvetica,sans-Serif" font-size="10.00">::timernode_lt &gt;</text>
<polygon fill="none" stroke="#666666" points="561.38,-75.5 561.38,-121.75 753.88,-121.75 753.88,-75.5 561.38,-75.5"/>
</a>
</g>
</g>
<!-- Node16&#45;&gt;Node15 -->
<g id="edge19_Node000015_Node000016" class="edge">
<title>Node16&#45;&gt;Node15</title>
<g id="a_edge19_Node000015_Node000016"><a xlink:title=" ">
<path fill="none" stroke="#63b8ff" d="M604.59,-75.53C566.94,-59.84 517.5,-39.24 484.93,-25.67"/>
<polygon fill="none" stroke="#63b8ff" points="484.83,-25.63 477.75,-27.01 473.75,-21.01 480.83,-19.63 484.83,-25.63"/>
</a>
</g>
<text xml:space="preserve" text-anchor="start" x="563.33" y="-45" font-family="Helvetica,sans-Serif" font-size="10.00" fill="grey">&#45;timerList</text>
</g>
<!-- Node17&#45;&gt;Node16 -->
<g id="edge20_Node000016_Node000017" class="edge">
<title>Node17&#45;&gt;Node16</title>
<g id="a_edge20_Node000016_Node000017"><a xlink:title=" ">
<path fill="none" stroke="#63b8ff" d="M537.86,-183.03C555.77,-170.56 588.53,-147.75 615.27,-129.12"/>
<polygon fill="none" stroke="#63b8ff" points="615.33,-129.08 617.97,-122.37 625.18,-122.22 622.54,-128.93 615.33,-129.08"/>
</a>
</g>
<text xml:space="preserve" text-anchor="start" x="602.09" y="-146" font-family="Helvetica,sans-Serif" font-size="10.00" fill="grey">+keys</text>
</g>
<!-- Node18 -->
<g id="Node000018" class="node">
<title>Node18</title>
<g id="a_Node000018"><a xlink:href="classcore_1_1Timer.html" target="_top" xlink:title=" ">
<polygon fill="white" stroke="none" points="355,-109 292.25,-109 292.25,-88.25 355,-88.25 355,-109"/>
<text xml:space="preserve" text-anchor="start" x="296.25" y="-95.5" font-family="Helvetica,sans-Serif" font-size="10.00">core::Timer</text>
<polygon fill="none" stroke="#666666" points="292.25,-88.25 292.25,-109 355,-109 355,-88.25 292.25,-88.25"/>
</a>
</g>
</g>
<!-- Node17&#45;&gt;Node18 -->
<g id="edge24_Node000018_Node000017" class="edge">
<title>Node17&#45;&gt;Node18</title>
<g id="a_edge24_Node000018_Node000017"><a xlink:title=" ">
<path fill="none" stroke="#63b8ff" d="M458.15,-184.56C378.04,-175.21 253.83,-160.43 252.12,-158.5 236.93,-141.31 260.88,-125 285.05,-113.92"/>
<polygon fill="none" stroke="#63b8ff" points="284.91,-113.98 288.86,-107.95 295.94,-109.28 291.99,-115.31 284.91,-113.98"/>
</a>
</g>
<text xml:space="preserve" text-anchor="start" x="255.12" y="-146" font-family="Helvetica,sans-Serif" font-size="10.00" fill="grey">&#45;timerEventReceiver</text>
</g>
<!-- Node20 -->
<g id="Node000020" class="node">
<title>Node20</title>
<g id="a_Node000020"><a xlink:title=" ">
<polygon fill="white" stroke="none" points="909.5,-115.38 771.75,-115.38 771.75,-81.88 909.5,-81.88 909.5,-115.38"/>
<text xml:space="preserve" text-anchor="start" x="775.75" y="-101.88" font-family="Helvetica,sans-Serif" font-size="10.00">std::list&lt; core::TimerEvent</text>
<text xml:space="preserve" text-anchor="start" x="809.5" y="-89.12" font-family="Helvetica,sans-Serif" font-size="10.00">Receiver * &gt;</text>
<polygon fill="none" stroke="#666666" points="771.75,-81.88 771.75,-115.38 909.5,-115.38 909.5,-81.88 771.75,-81.88"/>
</a>
</g>
</g>
<!-- Node17&#45;&gt;Node20 -->
<g id="edge27_Node000020_Node000017" class="edge">
<title>Node17&#45;&gt;Node20</title>
<g id="a_edge27_Node000020_Node000017"><a xlink:title=" ">
<path fill="none" stroke="#63b8ff" d="M556.37,-182.94C607.17,-168.05 707.8,-138.56 774.67,-118.96"/>
<polygon fill="none" stroke="#63b8ff" points="774.77,-118.93 779.4,-113.4 786.29,-115.55 781.65,-121.08 774.77,-118.93"/>
</a>
</g>
<text xml:space="preserve" text-anchor="start" x="704.54" y="-146" font-family="Helvetica,sans-Serif" font-size="10.00" fill="grey">+elements</text>
</g>
<!-- Node18&#45;&gt;Node17 -->
<g id="edge23_Node000017_Node000018" class="edge">
<title>Node18&#45;&gt;Node17</title>
<g id="a_edge23_Node000017_Node000018"><a xlink:title=" ">
<path fill="none" stroke="#63b8ff" d="M332.12,-108.95C345.86,-123.82 372.63,-151.91 384.62,-158.5 403.23,-168.71 424.89,-175.86 445.53,-180.86"/>
<polygon fill="none" stroke="#63b8ff" points="445.62,-180.88 452.35,-178.29 457.33,-183.51 450.6,-186.1 445.62,-180.88"/>
</a>
</g>
<text xml:space="preserve" text-anchor="start" x="387.62" y="-146" font-family="Helvetica,sans-Serif" font-size="10.00" fill="grey">&#45;timer</text>
</g>
<!-- Node19 -->
<g id="Node000019" class="node">
<title>Node19</title>
<g id="a_Node000019"><a xlink:href="classutils_1_1Timeval.html" target="_top" xlink:title=" ">
<polygon fill="white" stroke="none" points="944.62,-1037 870.62,-1037 870.62,-1016.25 944.62,-1016.25 944.62,-1037"/>
<text xml:space="preserve" text-anchor="start" x="874.62" y="-1023.5" font-family="Helvetica,sans-Serif" font-size="10.00">utils::Timeval</text>
<polygon fill="none" stroke="#666666" points="870.62,-1016.25 870.62,-1037 944.62,-1037 944.62,-1016.25 870.62,-1016.25"/>
</a>
</g>
</g>
<!-- Node19&#45;&gt;Node1 -->
<g id="edge37_Node000001_Node000019" class="edge">
<title>Node19&#45;&gt;Node1</title>
<g id="a_edge37_Node000001_Node000019"><a xlink:title=" ">
<path fill="none" stroke="#63b8ff" d="M907.72,-1016.45C908.06,-976.04 908.46,-813.81 893.62,-765.5 891.48,-758.52 888.07,-751.5 884.35,-745.11"/>
<polygon fill="none" stroke="#63b8ff" points="884.48,-745.31 877.88,-742.4 878.03,-735.19 884.63,-738.1 884.48,-745.31"/>
</a>
</g>
<text xml:space="preserve" text-anchor="start" x="909.2" y="-876.75" font-family="Helvetica,sans-Serif" font-size="10.00" fill="grey">#terminateTimeout</text>
</g>
<!-- Node19&#45;&gt;Node3 -->
<g id="edge32_Node000003_Node000019" class="edge">
<title>Node19&#45;&gt;Node3</title>
<g id="a_edge32_Node000003_Node000019"><a xlink:title=" ">
<path fill="none" stroke="#63b8ff" d="M874.01,-1016.35C856.67,-1011.36 835.26,-1004.89 816.38,-998.25 757.84,-977.68 691.19,-949.72 652.43,-932.99"/>
<polygon fill="none" stroke="#63b8ff" points="652.47,-933.01 645.37,-934.3 641.46,-928.24 648.55,-926.96 652.47,-933.01"/>
</a>
</g>
<text xml:space="preserve" text-anchor="start" x="819.38" y="-985.75" font-family="Helvetica,sans-Serif" font-size="10.00" fill="grey">&#45;initialTimeout</text>
<text xml:space="preserve" text-anchor="start" x="819.38" y="-969" font-family="Helvetica,sans-Serif" font-size="10.00" fill="grey">&#45;lastTriggered</text>
<text xml:space="preserve" text-anchor="start" x="819.38" y="-952.25" font-family="Helvetica,sans-Serif" font-size="10.00" fill="grey">&#45;maxInactivity</text>
</g>
<!-- Node19&#45;&gt;Node17 -->
<g id="edge25_Node000017_Node000019" class="edge">
<title>Node19&#45;&gt;Node17</title>
<g id="a_edge25_Node000017_Node000019"><a xlink:title=" ">
<path fill="none" stroke="#63b8ff" d="M931.87,-1016.28C966.14,-1001.31 1024.62,-968.45 1024.62,-918.62 1024.62,-918.62 1024.62,-918.62 1024.62,-290.88 1024.62,-206.21 744.78,-194.15 603.81,-193.44"/>
<polygon fill="none" stroke="#63b8ff" points="603.92,-193.44 597.91,-197.42 591.92,-193.41 597.93,-189.42 603.92,-193.44"/>
</a>
</g>
<text xml:space="preserve" text-anchor="start" x="1027.62" y="-582.5" font-family="Helvetica,sans-Serif" font-size="10.00" fill="grey">&#45;absoluteTimeout</text>
<text xml:space="preserve" text-anchor="start" x="1027.62" y="-565.75" font-family="Helvetica,sans-Serif" font-size="10.00" fill="grey">&#45;delay</text>
</g>
<!-- Node20&#45;&gt;Node15 -->
<g id="edge26_Node000015_Node000020" class="edge">
<title>Node20&#45;&gt;Node15</title>
<g id="a_edge26_Node000015_Node000020"><a xlink:title=" ">
<path fill="none" stroke="#63b8ff" d="M786.13,-81.96C778.25,-79.75 770.24,-77.54 762.62,-75.5 698.42,-58.26 682.71,-52.31 617.62,-38.75 588.69,-32.72 556.71,-27.21 528.55,-22.73"/>
<polygon fill="none" stroke="#63b8ff" points="528.64,-22.74 522.1,-25.77 516.79,-20.89 523.33,-17.86 528.64,-22.74"/>
</a>
</g>
<text xml:space="preserve" text-anchor="start" x="698.28" y="-45" font-family="Helvetica,sans-Serif" font-size="10.00" fill="grey">&#45;removedList</text>
</g>
<!-- Node21 -->
<g id="Node000021" class="node">
<title>Node21</title>
<g id="a_Node000021"><a xlink:href="classcore_1_1EventMultiplexer_1_1EventQueue.html" target="_top" xlink:title=" ">
<polygon fill="white" stroke="none" points="378.75,-210 260.5,-210 260.5,-176.5 378.75,-176.5 378.75,-210"/>
<text xml:space="preserve" text-anchor="start" x="264.5" y="-196.5" font-family="Helvetica,sans-Serif" font-size="10.00">core::EventMultiplexer</text>
<text xml:space="preserve" text-anchor="start" x="287" y="-183.75" font-family="Helvetica,sans-Serif" font-size="10.00">::EventQueue</text>
<polygon fill="none" stroke="#666666" points="260.5,-176.5 260.5,-210 378.75,-210 378.75,-176.5 260.5,-176.5"/>
</a>
</g>
</g>
<!-- Node21&#45;&gt;Node9 -->
<g id="edge28_Node000009_Node000021" class="edge">
<title>Node21&#45;&gt;Node9</title>
<g id="a_edge28_Node000009_Node000021"><a xlink:title=" ">
<path fill="none" stroke="#63b8ff" d="M317.41,-209.68C314.94,-227.11 310.85,-256.32 307.62,-281.5 301.29,-330.97 294.59,-389.13 291.08,-420.01"/>
<polygon fill="none" stroke="#63b8ff" points="291.08,-420 294.39,-426.42 289.74,-431.93 286.44,-425.52 291.08,-420"/>
</a>
</g>
<text xml:space="preserve" text-anchor="start" x="305.77" y="-326.5" font-family="Helvetica,sans-Serif" font-size="10.00" fill="grey">&#45;eventQueue</text>
</g>
<!-- Node22&#45;&gt;Node21 -->
<g id="edge29_Node000021_Node000022" class="edge">
<title>Node22&#45;&gt;Node21</title>
<g id="a_edge29_Node000021_Node000022"><a xlink:title=" ">
<path fill="none" stroke="#63b8ff" d="M375.68,-281.61C366.77,-267.73 349.62,-240.99 336.62,-220.73"/>
<polygon fill="none" stroke="#63b8ff" points="336.69,-220.85 330.08,-217.96 330.21,-210.75 336.82,-213.64 336.69,-220.85"/>
</a>
</g>
<text xml:space="preserve" text-anchor="start" x="366.3" y="-251" font-family="Helvetica,sans-Serif" font-size="10.00" fill="grey">&#45;executeQueue</text>
<text xml:space="preserve" text-anchor="start" x="366.3" y="-234.25" font-family="Helvetica,sans-Serif" font-size="10.00" fill="grey">&#45;publishQueue</text>
</g>
<!-- Node23 -->
<g id="Node000023" class="node">
<title>Node23</title>
<g id="a_Node000023"><a xlink:title=" ">
<polygon fill="white" stroke="none" points="879.25,-846.12 776,-846.12 776,-825.38 879.25,-825.38 879.25,-846.12"/>
<text xml:space="preserve" text-anchor="start" x="780" y="-832.62" font-family="Helvetica,sans-Serif" font-size="10.00">std::vector&lt; char &gt;</text>
<polygon fill="none" stroke="#666666" points="776,-825.38 776,-846.12 879.25,-846.12 879.25,-825.38 776,-825.38"/>
</a>
</g>
</g>
<!-- Node23&#45;&gt;Node1 -->
<g id="edge33_Node000001_Node000023" class="edge">
<title>Node23&#45;&gt;Node1</title>
<g id="a_edge33_Node000001_Node000023"><a xlink:title=" ">
<path fill="none" stroke="#63b8ff" d="M825.15,-825.43C822,-811.78 817.81,-785.79 825.38,-765.5 828.26,-757.75 833.09,-750.44 838.41,-744"/>
<polygon fill="none" stroke="#63b8ff" points="838.25,-744.17 839.37,-737.05 846.37,-735.34 845.26,-742.46 838.25,-744.17"/>
</a>
</g>
<text xml:space="preserve" text-anchor="start" x="828.38" y="-780.12" font-family="Helvetica,sans-Serif" font-size="10.00" fill="grey">#writePuffer</text>
</g>
<!-- Node24 -->
<g id="Node000024" class="node">
<title>Node24</title>
<g id="a_Node000024"><a xlink:href="classcore_1_1pipe_1_1Source.html" target="_top" xlink:title=" ">
<polygon fill="white" stroke="none" points="1170.12,-846.12 1075.12,-846.12 1075.12,-825.38 1170.12,-825.38 1170.12,-846.12"/>
<text xml:space="preserve" text-anchor="start" x="1079.12" y="-832.62" font-family="Helvetica,sans-Serif" font-size="10.00">core::pipe::Source</text>
<polygon fill="none" stroke="#666666" points="1075.12,-825.38 1075.12,-846.12 1170.12,-846.12 1170.12,-825.38 1075.12,-825.38"/>
</a>
</g>
</g>
<!-- Node24&#45;&gt;Node1 -->
<g id="edge34_Node000001_Node000024" class="edge">
<title>Node24&#45;&gt;Node1</title>
<g id="a_edge34_Node000001_Node000024"><a xlink:title=" ">
<path fill="none" stroke="#63b8ff" d="M1102.03,-825.47C1061.08,-807.03 968.54,-765.35 912.16,-739.96"/>
<polygon fill="none" stroke="#63b8ff" points="912.12,-739.94 905.01,-741.13 901.18,-735.02 908.3,-733.83 912.12,-739.94"/>
</a>
</g>
<text xml:space="preserve" text-anchor="start" x="1049.68" y="-780.12" font-family="Helvetica,sans-Serif" font-size="10.00" fill="grey">&#45;source</text>
</g>
<!-- Node25 -->
<g id="Node000025" class="node">
<title>Node25</title>
<g id="a_Node000025"><a xlink:href="classcore_1_1pipe_1_1Sink.html" target="_top" xlink:title=" ">
<polygon fill="white" stroke="none" points="1196.12,-728.38 1113.12,-728.38 1113.12,-707.62 1196.12,-707.62 1196.12,-728.38"/>
<text xml:space="preserve" text-anchor="start" x="1117.12" y="-714.88" font-family="Helvetica,sans-Serif" font-size="10.00">core::pipe::Sink</text>
<polygon fill="none" stroke="#666666" points="1113.12,-707.62 1113.12,-728.38 1196.12,-728.38 1196.12,-707.62 1113.12,-707.62"/>
</a>
</g>
</g>
<!-- Node24&#45;&gt;Node25 -->
<g id="edge36_Node000025_Node000024" class="edge">
<title>Node24&#45;&gt;Node25</title>
<g id="a_edge36_Node000025_Node000024"><a xlink:title=" ">
<path fill="none" stroke="#63b8ff" d="M1120.17,-825.5C1117.03,-811.93 1112.76,-786.04 1119.62,-765.5 1123.02,-755.35 1129.59,-745.65 1136.13,-737.75"/>
<polygon fill="none" stroke="#63b8ff" points="1136.08,-737.81 1137.14,-730.67 1144.13,-728.9 1143.07,-736.04 1136.08,-737.81"/>
</a>
</g>
<text xml:space="preserve" text-anchor="start" x="1122.62" y="-780.12" font-family="Helvetica,sans-Serif" font-size="10.00" fill="grey">&#45;source</text>
</g>
<!-- Node25&#45;&gt;Node24 -->
<g id="edge35_Node000024_Node000025" class="edge">
<title>Node25&#45;&gt;Node24</title>
<g id="a_edge35_Node000024_Node000025"><a xlink:title=" ">
<path fill="none" stroke="#63b8ff" d="M1159.04,-728.14C1165.97,-743.88 1177.44,-776.72 1165.62,-801 1162.41,-807.61 1157.2,-813.32 1151.5,-818.05"/>
<polygon fill="none" stroke="#63b8ff" points="1151.53,-818.03 1148.97,-824.77 1141.76,-825 1144.32,-818.26 1151.53,-818.03"/>
</a>
</g>
<text xml:space="preserve" text-anchor="start" x="1173.72" y="-780.12" font-family="Helvetica,sans-Serif" font-size="10.00" fill="grey">&#45;sink</text>
</g>
</g>
</svg>
