<?xml version="1.0" encoding="UTF-8" standalone="no"?>
<!DOCTYPE svg PUBLIC "-//W3C//DTD SVG 1.1//EN"
 "http://www.w3.org/Graphics/SVG/1.1/DTD/svg11.dtd">
<!-- Generated by graphviz version 2.43.0 (0)
 -->
<!-- Title: core::timer::Timer::singleshotTimer Pages: 1 -->
<svg width="1032pt" height="311pt"
 viewBox="0.00 0.00 1032.00 311.00" xmlns="http://www.w3.org/2000/svg" xmlns:xlink="http://www.w3.org/1999/xlink">
<g id="graph0" class="graph" transform="scale(1 1) rotate(0) translate(4 307)">
<title>core::timer::Timer::singleshotTimer</title>
<!-- Node1 -->
<g id="Node000001" class="node">
<title>Node1</title>
<g id="a_Node000001"><a xlink:title=" ">
<polygon fill="#999999" stroke="#666666" points="104,-147.5 0,-147.5 0,-117.5 104,-117.5 104,-147.5"/>
<text text-anchor="start" x="8" y="-135.5" font-family="Helvetica,sans-Serif" font-size="10.00">core::timer::Timer</text>
<text text-anchor="middle" x="52" y="-124.5" font-family="Helvetica,sans-Serif" font-size="10.00">::singleshotTimer</text>
</a>
</g>
</g>
<!-- Node2 -->
<g id="Node000002" class="node">
<title>Node2</title>
<g id="a_Node000002"><a xlink:href="classcore_1_1timer_1_1SingleshotTimer.html#a021ce2f4c49323449bbe12b5f7025ab2" target="_top" xlink:title=" ">
<polygon fill="white" stroke="#666666" points="295,-147.5 140,-147.5 140,-117.5 295,-117.5 295,-147.5"/>
<text text-anchor="start" x="148" y="-135.5" font-family="Helvetica,sans-Serif" font-size="10.00">core::timer::SingleshotTimer</text>
<text text-anchor="middle" x="217.5" y="-124.5" font-family="Helvetica,sans-Serif" font-size="10.00">::SingleshotTimer</text>
</a>
</g>
</g>
<!-- Node1&#45;&gt;Node2 -->
<g id="edge1_Node000001_Node000002" class="edge">
<title>Node1&#45;&gt;Node2</title>
<g id="a_edge1_Node000001_Node000002"><a xlink:title=" ">
<path fill="none" stroke="#63b8ff" d="M104.28,-132.5C112.43,-132.5 121.04,-132.5 129.74,-132.5"/>
<polygon fill="#63b8ff" stroke="#63b8ff" points="129.95,-136 139.95,-132.5 129.95,-129 129.95,-136"/>
</a>
</g>
</g>
<!-- Node3 -->
<g id="Node000003" class="node">
<title>Node3</title>
<g id="a_Node000003"><a xlink:href="classcore_1_1TimerEventReceiver.html#a807e13fae610d76c12480935855046aa" target="_top" xlink:title=" ">
<polygon fill="white" stroke="#666666" points="473,-147.5 331,-147.5 331,-117.5 473,-117.5 473,-147.5"/>
<text text-anchor="start" x="339" y="-135.5" font-family="Helvetica,sans-Serif" font-size="10.00">core::TimerEventReceiver</text>
<text text-anchor="middle" x="402" y="-124.5" font-family="Helvetica,sans-Serif" font-size="10.00">::TimerEventReceiver</text>
</a>
</g>
</g>
<!-- Node2&#45;&gt;Node3 -->
<g id="edge2_Node000002_Node000003" class="edge">
<title>Node2&#45;&gt;Node3</title>
<g id="a_edge2_Node000002_Node000003"><a xlink:title=" ">
<path fill="none" stroke="#63b8ff" d="M295.1,-132.5C303.66,-132.5 312.39,-132.5 320.98,-132.5"/>
<polygon fill="#63b8ff" stroke="#63b8ff" points="320.99,-136 330.99,-132.5 320.99,-129 320.99,-136"/>
</a>
</g>
</g>
<!-- Node4 -->
<g id="Node000004" class="node">
<title>Node4</title>
<g id="a_Node000004"><a xlink:href="classutils_1_1Timeval.html#a54b232dc1ffeea007100dcd1caad1987" target="_top" xlink:title=" ">
<polygon fill="white" stroke="#666666" points="656,-266 509,-266 509,-247 656,-247 656,-266"/>
<text text-anchor="middle" x="582.5" y="-254" font-family="Helvetica,sans-Serif" font-size="10.00">utils::Timeval::currentTime</text>
</a>
</g>
</g>
<!-- Node3&#45;&gt;Node4 -->
<g id="edge3_Node000003_Node000004" class="edge">
<title>Node3&#45;&gt;Node4</title>
<g id="a_edge3_Node000003_Node000004"><a xlink:title=" ">
<path fill="none" stroke="#63b8ff" d="M415.14,-147.54C433.38,-169.21 469.89,-209.17 509,-232.5 516.28,-236.85 524.45,-240.52 532.61,-243.58"/>
<polygon fill="#63b8ff" stroke="#63b8ff" points="531.54,-246.91 542.13,-246.9 533.84,-240.31 531.54,-246.91"/>
</a>
</g>
</g>
<!-- Node7 -->
<g id="Node000007" class="node">
<title>Node7</title>
<g id="a_Node000007"><a xlink:href="classcore_1_1EventReceiver.html#adec275118bd8a68e2b4cb71fa94d79b6" target="_top" xlink:title=" ">
<polygon fill="white" stroke="#666666" points="639.5,-190.5 525.5,-190.5 525.5,-160.5 639.5,-160.5 639.5,-190.5"/>
<text text-anchor="start" x="533.5" y="-178.5" font-family="Helvetica,sans-Serif" font-size="10.00">core::EventReceiver</text>
<text text-anchor="middle" x="582.5" y="-167.5" font-family="Helvetica,sans-Serif" font-size="10.00">::EventReceiver</text>
</a>
</g>
</g>
<!-- Node3&#45;&gt;Node7 -->
<g id="edge6_Node000003_Node000007" class="edge">
<title>Node3&#45;&gt;Node7</title>
<g id="a_edge6_Node000003_Node000007"><a xlink:title=" ">
<path fill="none" stroke="#63b8ff" d="M465.43,-147.54C481.58,-151.43 499.03,-155.63 515.36,-159.57"/>
<polygon fill="#63b8ff" stroke="#63b8ff" points="514.82,-163.04 525.37,-161.98 516.46,-156.23 514.82,-163.04"/>
</a>
</g>
</g>
<!-- Node9 -->
<g id="Node000009" class="node">
<title>Node9</title>
<g id="a_Node000009"><a xlink:href="classcore_1_1EventLoop.html#a17f1623de6ca2ea2682c63cf502c3c36" target="_top" xlink:title=" ">
<polygon fill="white" stroke="#666666" points="1024,-222.5 880,-222.5 880,-192.5 1024,-192.5 1024,-222.5"/>
<text text-anchor="start" x="888" y="-210.5" font-family="Helvetica,sans-Serif" font-size="10.00">core::EventLoop::getEvent</text>
<text text-anchor="middle" x="952" y="-199.5" font-family="Helvetica,sans-Serif" font-size="10.00">Multiplexer</text>
</a>
</g>
</g>
<!-- Node3&#45;&gt;Node9 -->
<g id="edge10_Node000003_Node000009" class="edge">
<title>Node3&#45;&gt;Node9</title>
<g id="a_edge10_Node000003_Node000009"><a xlink:title=" ">
<path fill="none" stroke="#63b8ff" d="M420.25,-147.68C440.09,-164.04 474.38,-189.14 509,-199.5 630.59,-235.9 779.54,-228.61 869.76,-218.89"/>
<polygon fill="#63b8ff" stroke="#63b8ff" points="870.37,-222.34 879.92,-217.75 869.6,-215.38 870.37,-222.34"/>
</a>
</g>
</g>
<!-- Node10 -->
<g id="Node000010" class="node">
<title>Node10</title>
<g id="a_Node000010"><a xlink:href="classcore_1_1EventLoop.html#a413d227511f68c2c9939719bd2590794" target="_top" xlink:title=" ">
<polygon fill="white" stroke="#666666" points="1023,-163 881,-163 881,-144 1023,-144 1023,-163"/>
<text text-anchor="middle" x="952" y="-151" font-family="Helvetica,sans-Serif" font-size="10.00">core::EventLoop::instance</text>
</a>
</g>
</g>
<!-- Node3&#45;&gt;Node10 -->
<g id="edge12_Node000003_Node000010" class="edge">
<title>Node3&#45;&gt;Node10</title>
<g id="a_edge12_Node000003_Node000010"><a xlink:title=" ">
<path fill="none" stroke="#63b8ff" d="M473.24,-135.19C575.08,-139.09 763.26,-146.31 870.55,-150.42"/>
<polygon fill="#63b8ff" stroke="#63b8ff" points="870.54,-153.92 880.67,-150.8 870.81,-146.92 870.54,-153.92"/>
</a>
</g>
</g>
<!-- Node11 -->
<g id="Node000011" class="node">
<title>Node11</title>
<g id="a_Node000011"><a xlink:href="classcore_1_1EventMultiplexer.html#a4a0bcabd14e5588166b7df8c3c634938" target="_top" xlink:title=" ">
<polygon fill="white" stroke="#666666" points="652,-104.5 513,-104.5 513,-74.5 652,-74.5 652,-104.5"/>
<text text-anchor="start" x="521" y="-92.5" font-family="Helvetica,sans-Serif" font-size="10.00">core::EventMultiplexer</text>
<text text-anchor="middle" x="582.5" y="-81.5" font-family="Helvetica,sans-Serif" font-size="10.00">::getTimerEventPublisher</text>
</a>
</g>
</g>
<!-- Node3&#45;&gt;Node11 -->
<g id="edge11_Node000003_Node000011" class="edge">
<title>Node3&#45;&gt;Node11</title>
<g id="a_edge11_Node000003_Node000011"><a xlink:title=" ">
<path fill="none" stroke="#63b8ff" d="M465.43,-117.46C479.56,-114.06 494.68,-110.41 509.18,-106.92"/>
<polygon fill="#63b8ff" stroke="#63b8ff" points="510.2,-110.28 519.1,-104.53 508.56,-103.47 510.2,-110.28"/>
</a>
</g>
</g>
<!-- Node12 -->
<g id="Node000012" class="node">
<title>Node12</title>
<g id="a_Node000012"><a xlink:href="classutils_1_1Timeval.html#ab2603e981dfbf12b15cbcfe4be2780a2" target="_top" xlink:title=" ">
<polygon fill="white" stroke="#666666" points="651.5,-56 513.5,-56 513.5,-37 651.5,-37 651.5,-56"/>
<text text-anchor="middle" x="582.5" y="-44" font-family="Helvetica,sans-Serif" font-size="10.00">utils::Timeval::operator+</text>
</a>
</g>
</g>
<!-- Node3&#45;&gt;Node12 -->
<g id="edge13_Node000003_Node000012" class="edge">
<title>Node3&#45;&gt;Node12</title>
<g id="a_edge13_Node000003_Node000012"><a xlink:title=" ">
<path fill="none" stroke="#63b8ff" d="M422.68,-117.44C443.22,-102.37 476.85,-79.47 509,-65.5 514.5,-63.11 520.38,-60.96 526.31,-59.05"/>
<polygon fill="#63b8ff" stroke="#63b8ff" points="527.72,-62.28 536.29,-56.05 525.71,-55.57 527.72,-62.28"/>
</a>
</g>
</g>
<!-- Node14 -->
<g id="Node000014" class="node">
<title>Node14</title>
<g id="a_Node000014"><a xlink:href="classutils_1_1Timeval.html#aea8eba217c23b75fc9483aa3e6848367" target="_top" xlink:title=" ">
<polygon fill="white" stroke="#666666" points="646.5,-19 518.5,-19 518.5,0 646.5,0 646.5,-19"/>
<text text-anchor="middle" x="582.5" y="-7" font-family="Helvetica,sans-Serif" font-size="10.00">utils::Timeval::Timeval</text>
</a>
</g>
</g>
<!-- Node3&#45;&gt;Node14 -->
<g id="edge15_Node000003_Node000014" class="edge">
<title>Node3&#45;&gt;Node14</title>
<g id="a_edge15_Node000003_Node000014"><a xlink:title=" ">
<path fill="none" stroke="#63b8ff" d="M413.86,-117.42C431.27,-94.4 467.68,-50.72 509,-27.5 512.24,-25.68 515.67,-24.04 519.2,-22.56"/>
<polygon fill="#63b8ff" stroke="#63b8ff" points="520.56,-25.79 528.72,-19.03 518.13,-19.23 520.56,-25.79"/>
</a>
</g>
</g>
<!-- Node5 -->
<g id="Node000005" class="node">
<title>Node5</title>
<g id="a_Node000005"><a xlink:href="namespaceutils_1_1system.html#ad594b7afe9fa80d3db04591c966422b2" target="_top" xlink:title=" ">
<polygon fill="white" stroke="#666666" points="844,-303 692,-303 692,-284 844,-284 844,-303"/>
<text text-anchor="middle" x="768" y="-291" font-family="Helvetica,sans-Serif" font-size="10.00">utils::system::gettimeofday</text>
</a>
</g>
</g>
<!-- Node4&#45;&gt;Node5 -->
<g id="edge4_Node000004_Node000005" class="edge">
<title>Node4&#45;&gt;Node5</title>
<g id="a_edge4_Node000004_Node000005"><a xlink:title=" ">
<path fill="none" stroke="#63b8ff" d="M630.76,-266.03C654.85,-270.89 684.34,-276.83 709.72,-281.95"/>
<polygon fill="#63b8ff" stroke="#63b8ff" points="709.09,-285.39 719.59,-283.94 710.47,-278.53 709.09,-285.39"/>
</a>
</g>
</g>
<!-- Node6 -->
<g id="Node000006" class="node">
<title>Node6</title>
<g id="a_Node000006"><a xlink:href="classutils_1_1Timeval.html#a4a554848a362fa40feef1c3f93c0c2e5" target="_top" xlink:title=" ">
<polygon fill="white" stroke="#666666" points="836.5,-266 699.5,-266 699.5,-247 836.5,-247 836.5,-266"/>
<text text-anchor="middle" x="768" y="-254" font-family="Helvetica,sans-Serif" font-size="10.00">utils::Timeval::operator&amp;</text>
</a>
</g>
</g>
<!-- Node4&#45;&gt;Node6 -->
<g id="edge5_Node000004_Node000006" class="edge">
<title>Node4&#45;&gt;Node6</title>
<g id="a_edge5_Node000004_Node000006"><a xlink:title=" ">
<path fill="none" stroke="#63b8ff" d="M656.02,-256.5C666.99,-256.5 678.34,-256.5 689.41,-256.5"/>
<polygon fill="#63b8ff" stroke="#63b8ff" points="689.48,-260 699.48,-256.5 689.48,-253 689.48,-260"/>
</a>
</g>
</g>
<!-- Node8 -->
<g id="Node000008" class="node">
<title>Node8</title>
<g id="a_Node000008"><a xlink:href="classcore_1_1Event.html#a81e45f64219d897d59324c9dd0573936" target="_top" xlink:title=" ">
<polygon fill="white" stroke="#666666" points="820.5,-185 715.5,-185 715.5,-166 820.5,-166 820.5,-185"/>
<text text-anchor="middle" x="768" y="-173" font-family="Helvetica,sans-Serif" font-size="10.00">core::Event::Event</text>
</a>
</g>
</g>
<!-- Node7&#45;&gt;Node8 -->
<g id="edge7_Node000007_Node000008" class="edge">
<title>Node7&#45;&gt;Node8</title>
<g id="a_edge7_Node000007_Node000008"><a xlink:title=" ">
<path fill="none" stroke="#63b8ff" d="M639.55,-175.5C660.3,-175.5 683.92,-175.5 705.15,-175.5"/>
<polygon fill="#63b8ff" stroke="#63b8ff" points="705.35,-179 715.35,-175.5 705.35,-172 705.35,-179"/>
</a>
</g>
</g>
<!-- Node8&#45;&gt;Node9 -->
<g id="edge8_Node000008_Node000009" class="edge">
<title>Node8&#45;&gt;Node9</title>
<g id="a_edge8_Node000008_Node000009"><a xlink:title=" ">
<path fill="none" stroke="#63b8ff" d="M820.67,-184.58C835.9,-187.26 852.95,-190.26 869.57,-193.18"/>
<polygon fill="#63b8ff" stroke="#63b8ff" points="869.38,-196.7 879.84,-194.99 870.6,-189.81 869.38,-196.7"/>
</a>
</g>
</g>
<!-- Node8&#45;&gt;Node10 -->
<g id="edge9_Node000008_Node000010" class="edge">
<title>Node8&#45;&gt;Node10</title>
<g id="a_edge9_Node000008_Node000010"><a xlink:title=" ">
<path fill="none" stroke="#63b8ff" d="M820.67,-169.25C836.3,-167.36 853.86,-165.24 870.9,-163.18"/>
<polygon fill="#63b8ff" stroke="#63b8ff" points="871.35,-166.65 880.85,-161.98 870.51,-159.7 871.35,-166.65"/>
</a>
</g>
</g>
<!-- Node13 -->
<g id="Node000013" class="node">
<title>Node13</title>
<g id="a_Node000013"><a xlink:href="classutils_1_1Timeval.html#af8b19ac507d5120c815d07da9f5146b1" target="_top" xlink:title=" ">
<polygon fill="white" stroke="#666666" points="836.5,-56 699.5,-56 699.5,-37 836.5,-37 836.5,-56"/>
<text text-anchor="middle" x="768" y="-44" font-family="Helvetica,sans-Serif" font-size="10.00">utils::Timeval::normalize</text>
</a>
</g>
</g>
<!-- Node12&#45;&gt;Node13 -->
<g id="edge14_Node000012_Node000013" class="edge">
<title>Node12&#45;&gt;Node13</title>
<g id="a_edge14_Node000012_Node000013"><a xlink:title=" ">
<path fill="none" stroke="#63b8ff" d="M651.57,-46.5C663.76,-46.5 676.55,-46.5 689,-46.5"/>
<polygon fill="#63b8ff" stroke="#63b8ff" points="689.35,-50 699.35,-46.5 689.35,-43 689.35,-50"/>
</a>
</g>
</g>
</g>
</svg>
