<?xml version="1.0" encoding="UTF-8" standalone="no"?>
<!DOCTYPE svg PUBLIC "-//W3C//DTD SVG 1.1//EN"
 "http://www.w3.org/Graphics/SVG/1.1/DTD/svg11.dtd">
<!-- Generated by graphviz version 2.42.4 (0)
 -->
<!-- Title: web::http::client::SocketContext::SocketContext Pages: 1 -->
<svg width="830pt" height="242pt"
 viewBox="0.00 0.00 830.00 242.00" xmlns="http://www.w3.org/2000/svg" xmlns:xlink="http://www.w3.org/1999/xlink">
<g id="graph0" class="graph" transform="scale(1 1) rotate(0) translate(4 238)">
<title>web::http::client::SocketContext::SocketContext</title>
<!-- Node1 -->
<g id="Node000001" class="node">
<title>Node1</title>
<g id="a_Node000001"><a xlink:title=" ">
<polygon fill="#999999" stroke="#666666" points="164,-131.5 0,-131.5 0,-101.5 164,-101.5 164,-131.5"/>
<text text-anchor="start" x="8" y="-119.5" font-family="Helvetica,sans-Serif" font-size="10.00">web::http::client::</text>
<text text-anchor="middle" x="82" y="-108.5" font-family="Helvetica,sans-Serif" font-size="10.00">SocketContext::SocketContext</text>
</a>
</g>
</g>
<!-- Node2 -->
<g id="Node000002" class="node">
<title>Node2</title>
<g id="a_Node000002"><a xlink:href="classcore_1_1socket_1_1stream_1_1SocketConnection.html#a06d9ab2643cb4ce95681e6cb3a1029cf" target="_top" xlink:title=" ">
<polygon fill="white" stroke="#666666" points="385,-234 200,-234 200,-193 385,-193 385,-234"/>
<text text-anchor="start" x="208" y="-222" font-family="Helvetica,sans-Serif" font-size="10.00">core::socket::stream</text>
<text text-anchor="start" x="208" y="-211" font-family="Helvetica,sans-Serif" font-size="10.00">::SocketConnection::getConfigured</text>
<text text-anchor="middle" x="292.5" y="-200" font-family="Helvetica,sans-Serif" font-size="10.00">Server</text>
</a>
</g>
</g>
<!-- Node1&#45;&gt;Node2 -->
<g id="edge1_Node000001_Node000002" class="edge">
<title>Node1&#45;&gt;Node2</title>
<g id="a_edge1_Node000001_Node000002"><a xlink:title=" ">
<path fill="none" stroke="#63b8ff" d="M106.02,-131.55C129.1,-146.19 165.99,-168.38 200,-183.5 204.44,-185.48 209.06,-187.39 213.75,-189.23"/>
<polygon fill="#63b8ff" stroke="#63b8ff" points="212.86,-192.64 223.45,-192.91 215.34,-186.09 212.86,-192.64"/>
</a>
</g>
</g>
<!-- Node3 -->
<g id="Node000003" class="node">
<title>Node3</title>
<g id="a_Node000003"><a xlink:href="classcore_1_1socket_1_1stream_1_1SocketContext.html#a02f0b93ac0ea376dabd6921c7589a8cf" target="_top" xlink:title=" ">
<polygon fill="white" stroke="#666666" points="623,-131.5 421,-131.5 421,-101.5 623,-101.5 623,-131.5"/>
<text text-anchor="start" x="429" y="-119.5" font-family="Helvetica,sans-Serif" font-size="10.00">core::socket::stream</text>
<text text-anchor="middle" x="522" y="-108.5" font-family="Helvetica,sans-Serif" font-size="10.00">::SocketContext::getSocketConnection</text>
</a>
</g>
</g>
<!-- Node1&#45;&gt;Node3 -->
<g id="edge2_Node000001_Node000003" class="edge">
<title>Node1&#45;&gt;Node3</title>
<g id="a_edge2_Node000001_Node000003"><a xlink:title=" ">
<path fill="none" stroke="#63b8ff" d="M164.1,-116.5C233.44,-116.5 333.88,-116.5 410.56,-116.5"/>
<polygon fill="#63b8ff" stroke="#63b8ff" points="410.74,-120 420.74,-116.5 410.74,-113 410.74,-120"/>
</a>
</g>
</g>
<!-- Node4 -->
<g id="Node000004" class="node">
<title>Node4</title>
<g id="a_Node000004"><a xlink:href="classweb_1_1http_1_1client_1_1ResponseParser.html#a290bfac8d3f75634af065166f07ff564" target="_top" xlink:title=" ">
<polygon fill="white" stroke="#666666" points="382,-174.5 203,-174.5 203,-144.5 382,-144.5 382,-174.5"/>
<text text-anchor="start" x="211" y="-162.5" font-family="Helvetica,sans-Serif" font-size="10.00">web::http::client::</text>
<text text-anchor="middle" x="292.5" y="-151.5" font-family="Helvetica,sans-Serif" font-size="10.00">ResponseParser::ResponseParser</text>
</a>
</g>
</g>
<!-- Node1&#45;&gt;Node4 -->
<g id="edge3_Node000001_Node000004" class="edge">
<title>Node1&#45;&gt;Node4</title>
<g id="a_edge3_Node000001_Node000004"><a xlink:title=" ">
<path fill="none" stroke="#63b8ff" d="M155.92,-131.54C172.91,-135.04 191.11,-138.8 208.49,-142.38"/>
<polygon fill="#63b8ff" stroke="#63b8ff" points="208.12,-145.88 218.62,-144.47 209.53,-139.02 208.12,-145.88"/>
</a>
</g>
</g>
<!-- Node7 -->
<g id="Node000007" class="node">
<title>Node7</title>
<g id="a_Node000007"><a xlink:href="classweb_1_1http_1_1client_1_1SocketContext.html#aab626f8549a72def02f8f48df50bb6ac" target="_top" xlink:title=" ">
<polygon fill="white" stroke="#666666" points="379,-88.5 206,-88.5 206,-58.5 379,-58.5 379,-88.5"/>
<text text-anchor="start" x="214" y="-76.5" font-family="Helvetica,sans-Serif" font-size="10.00">web::http::client::</text>
<text text-anchor="middle" x="292.5" y="-65.5" font-family="Helvetica,sans-Serif" font-size="10.00">SocketContext::responseStarted</text>
</a>
</g>
</g>
<!-- Node1&#45;&gt;Node7 -->
<g id="edge6_Node000001_Node000007" class="edge">
<title>Node1&#45;&gt;Node7</title>
<g id="a_edge6_Node000001_Node000007"><a xlink:title=" ">
<path fill="none" stroke="#63b8ff" d="M155.92,-101.46C172.91,-97.96 191.11,-94.2 208.49,-90.62"/>
<polygon fill="#63b8ff" stroke="#63b8ff" points="209.53,-93.98 218.62,-88.53 208.12,-87.12 209.53,-93.98"/>
</a>
</g>
</g>
<!-- Node11 -->
<g id="Node000011" class="node">
<title>Node11</title>
<g id="a_Node000011"><a xlink:href="classcore_1_1socket_1_1stream_1_1SocketContext.html#a2264c67933db0880ba40e5cd44ffa981" target="_top" xlink:title=" ">
<polygon fill="white" stroke="#666666" points="377.5,-40.5 207.5,-40.5 207.5,-10.5 377.5,-10.5 377.5,-40.5"/>
<text text-anchor="start" x="215.5" y="-28.5" font-family="Helvetica,sans-Serif" font-size="10.00">core::socket::stream</text>
<text text-anchor="middle" x="292.5" y="-17.5" font-family="Helvetica,sans-Serif" font-size="10.00">::SocketContext::SocketContext</text>
</a>
</g>
</g>
<!-- Node1&#45;&gt;Node11 -->
<g id="edge11_Node000001_Node000011" class="edge">
<title>Node1&#45;&gt;Node11</title>
<g id="a_edge11_Node000001_Node000011"><a xlink:title=" ">
<path fill="none" stroke="#63b8ff" d="M105.4,-101.28C128.3,-86.31 165.34,-63.68 200,-49.5 205.04,-47.44 210.3,-45.51 215.65,-43.72"/>
<polygon fill="#63b8ff" stroke="#63b8ff" points="216.88,-47 225.34,-40.62 214.75,-40.33 216.88,-47"/>
</a>
</g>
</g>
<!-- Node5 -->
<g id="Node000005" class="node">
<title>Node5</title>
<g id="a_Node000005"><a xlink:href="classweb_1_1http_1_1Parser.html#a3dc56190c19a9bed38b3934c289f19e8" target="_top" xlink:title=" ">
<polygon fill="white" stroke="#666666" points="574.5,-179.5 469.5,-179.5 469.5,-149.5 574.5,-149.5 574.5,-179.5"/>
<text text-anchor="start" x="477.5" y="-167.5" font-family="Helvetica,sans-Serif" font-size="10.00">web::http::Parser::</text>
<text text-anchor="middle" x="522" y="-156.5" font-family="Helvetica,sans-Serif" font-size="10.00">Parser</text>
</a>
</g>
</g>
<!-- Node4&#45;&gt;Node5 -->
<g id="edge4_Node000004_Node000005" class="edge">
<title>Node4&#45;&gt;Node5</title>
<g id="a_edge4_Node000004_Node000005"><a xlink:title=" ">
<path fill="none" stroke="#63b8ff" d="M382.11,-161.45C407.87,-162.01 435.43,-162.62 459.16,-163.14"/>
<polygon fill="#63b8ff" stroke="#63b8ff" points="459.35,-166.65 469.43,-163.37 459.51,-159.65 459.35,-166.65"/>
</a>
</g>
</g>
<!-- Node6 -->
<g id="Node000006" class="node">
<title>Node6</title>
<g id="a_Node000006"><a xlink:href="classweb_1_1http_1_1decoder_1_1Fields.html#a412b17deed48ad91691dc442f5db1f1e" target="_top" xlink:title=" ">
<polygon fill="white" stroke="#666666" points="794,-179.5 687,-179.5 687,-149.5 794,-149.5 794,-179.5"/>
<text text-anchor="start" x="695" y="-167.5" font-family="Helvetica,sans-Serif" font-size="10.00">web::http::decoder</text>
<text text-anchor="middle" x="740.5" y="-156.5" font-family="Helvetica,sans-Serif" font-size="10.00">::Fields::Fields</text>
</a>
</g>
</g>
<!-- Node5&#45;&gt;Node6 -->
<g id="edge5_Node000005_Node000006" class="edge">
<title>Node5&#45;&gt;Node6</title>
<g id="a_edge5_Node000005_Node000006"><a xlink:title=" ">
<path fill="none" stroke="#63b8ff" d="M574.58,-164.5C605.17,-164.5 644.16,-164.5 676.54,-164.5"/>
<polygon fill="#63b8ff" stroke="#63b8ff" points="676.81,-168 686.81,-164.5 676.81,-161 676.81,-168"/>
</a>
</g>
</g>
<!-- Node7&#45;&gt;Node3 -->
<g id="edge8_Node000007_Node000003" class="edge">
<title>Node7&#45;&gt;Node3</title>
<g id="a_edge8_Node000007_Node000003"><a xlink:title=" ">
<path fill="none" stroke="#63b8ff" d="M373.07,-88.54C391.95,-92.11 412.21,-95.94 431.49,-99.58"/>
<polygon fill="#63b8ff" stroke="#63b8ff" points="431,-103.05 441.48,-101.47 432.3,-96.17 431,-103.05"/>
</a>
</g>
</g>
<!-- Node8 -->
<g id="Node000008" class="node">
<title>Node8</title>
<g id="a_Node000008"><a xlink:href="classcore_1_1socket_1_1stream_1_1SocketConnection.html#aff2eb3e752c798455541e85054bf91de" target="_top" xlink:title=" ">
<polygon fill="white" stroke="#666666" points="623,-83.5 421,-83.5 421,-53.5 623,-53.5 623,-83.5"/>
<text text-anchor="start" x="429" y="-71.5" font-family="Helvetica,sans-Serif" font-size="10.00">core::socket::stream</text>
<text text-anchor="middle" x="522" y="-60.5" font-family="Helvetica,sans-Serif" font-size="10.00">::SocketConnection::getInstanceName</text>
</a>
</g>
</g>
<!-- Node7&#45;&gt;Node8 -->
<g id="edge7_Node000007_Node000008" class="edge">
<title>Node7&#45;&gt;Node8</title>
<g id="a_edge7_Node000007_Node000008"><a xlink:title=" ">
<path fill="none" stroke="#63b8ff" d="M379.18,-71.62C389.49,-71.39 400.13,-71.16 410.73,-70.92"/>
<polygon fill="#63b8ff" stroke="#63b8ff" points="410.94,-74.42 420.86,-70.7 410.79,-67.42 410.94,-74.42"/>
</a>
</g>
</g>
<!-- Node9 -->
<g id="Node000009" class="node">
<title>Node9</title>
<g id="a_Node000009"><a xlink:href="classcore_1_1socket_1_1stream_1_1SocketContext.html#a853d83e3e3cd8dfcce992ab688c0f63e" target="_top" xlink:title=" ">
<polygon fill="white" stroke="#666666" points="608.5,-35.5 435.5,-35.5 435.5,-5.5 608.5,-5.5 608.5,-35.5"/>
<text text-anchor="start" x="443.5" y="-23.5" font-family="Helvetica,sans-Serif" font-size="10.00">core::socket::stream</text>
<text text-anchor="middle" x="522" y="-12.5" font-family="Helvetica,sans-Serif" font-size="10.00">::SocketContext::shutdownWrite</text>
</a>
</g>
</g>
<!-- Node7&#45;&gt;Node9 -->
<g id="edge9_Node000007_Node000009" class="edge">
<title>Node7&#45;&gt;Node9</title>
<g id="a_edge9_Node000007_Node000009"><a xlink:title=" ">
<path fill="none" stroke="#63b8ff" d="M358.08,-58.45C385.58,-52.05 417.83,-44.54 446.34,-37.89"/>
<polygon fill="#63b8ff" stroke="#63b8ff" points="447.31,-41.26 456.25,-35.58 445.72,-34.44 447.31,-41.26"/>
</a>
</g>
</g>
<!-- Node10 -->
<g id="Node000010" class="node">
<title>Node10</title>
<g id="a_Node000010"><a xlink:href="classcore_1_1socket_1_1stream_1_1SocketConnection.html#ab4496d58a35b0fa62a01f8aa78869522" target="_top" xlink:title=" ">
<polygon fill="white" stroke="#666666" points="822,-41 659,-41 659,0 822,0 822,-41"/>
<text text-anchor="start" x="667" y="-29" font-family="Helvetica,sans-Serif" font-size="10.00">core::socket::stream</text>
<text text-anchor="start" x="667" y="-18" font-family="Helvetica,sans-Serif" font-size="10.00">::SocketConnection::shutdown</text>
<text text-anchor="middle" x="740.5" y="-7" font-family="Helvetica,sans-Serif" font-size="10.00">Write</text>
</a>
</g>
</g>
<!-- Node9&#45;&gt;Node10 -->
<g id="edge10_Node000009_Node000010" class="edge">
<title>Node9&#45;&gt;Node10</title>
<g id="a_edge10_Node000009_Node000010"><a xlink:title=" ">
<path fill="none" stroke="#63b8ff" d="M608.57,-20.5C621.75,-20.5 635.41,-20.5 648.7,-20.5"/>
<polygon fill="#63b8ff" stroke="#63b8ff" points="648.79,-24 658.79,-20.5 648.79,-17 648.79,-24"/>
</a>
</g>
</g>
</g>
</svg>
