<?xml version="1.0" encoding="UTF-8" standalone="no"?>
<!DOCTYPE svg PUBLIC "-//W3C//DTD SVG 1.1//EN"
 "http://www.w3.org/Graphics/SVG/1.1/DTD/svg11.dtd">
<!-- Generated by graphviz version 2.43.0 (0)
 -->
<!-- Title: iot::mqtt::packets::Publish::getMessage Pages: 1 -->
<svg width="653pt" height="86pt"
 viewBox="0.00 0.00 653.00 86.00" xmlns="http://www.w3.org/2000/svg" xmlns:xlink="http://www.w3.org/1999/xlink">
<g id="graph0" class="graph" transform="scale(1 1) rotate(0) translate(4 82)">
<title>iot::mqtt::packets::Publish::getMessage</title>
<!-- Node1 -->
<g id="Node000001" class="node">
<title>Node1</title>
<g id="a_Node000001"><a xlink:title=" ">
<polygon fill="#999999" stroke="#666666" points="645,-49 522,-49 522,-19 645,-19 645,-49"/>
<text text-anchor="start" x="530" y="-37" font-family="Helvetica,sans-Serif" font-size="10.00">iot::mqtt::packets</text>
<text text-anchor="middle" x="583.5" y="-26" font-family="Helvetica,sans-Serif" font-size="10.00">::Publish::getMessage</text>
</a>
</g>
</g>
<!-- Node2 -->
<g id="Node000002" class="node">
<title>Node2</title>
<g id="a_Node000002"><a xlink:href="classiot_1_1mqtt_1_1Mqtt.html#a8766079f6d926bc6b5201d7e46a00ed1" target="_top" xlink:title=" ">
<polygon fill="white" stroke="#666666" points="486,-62.5 340,-62.5 340,-43.5 486,-43.5 486,-62.5"/>
<text text-anchor="middle" x="413" y="-50.5" font-family="Helvetica,sans-Serif" font-size="10.00">iot::mqtt::Mqtt::_onPublish</text>
</a>
</g>
</g>
<!-- Node1&#45;&gt;Node2 -->
<g id="edge1_Node000001_Node000002" class="edge">
<title>Node1&#45;&gt;Node2</title>
<g id="a_edge1_Node000001_Node000002"><a xlink:title=" ">
<path fill="none" stroke="#63b8ff" d="M511.56,-42C503.18,-42.94 494.62,-43.91 486.22,-44.86"/>
<polygon fill="#63b8ff" stroke="#63b8ff" points="512.12,-45.46 521.67,-40.86 511.34,-38.5 512.12,-45.46"/>
</a>
</g>
</g>
<!-- Node5 -->
<g id="Node000005" class="node">
<title>Node5</title>
<g id="a_Node000005"><a xlink:href="classiot_1_1mqtt_1_1server_1_1Mqtt.html#a71e7b5dd0527c66335742821ff06d9a6" target="_top" xlink:title=" ">
<polygon fill="white" stroke="#666666" points="304,-30 203,-30 203,0 304,0 304,-30"/>
<text text-anchor="start" x="211" y="-18" font-family="Helvetica,sans-Serif" font-size="10.00">iot::mqtt::server::</text>
<text text-anchor="middle" x="253.5" y="-7" font-family="Helvetica,sans-Serif" font-size="10.00">Mqtt::_onPublish</text>
</a>
</g>
</g>
<!-- Node1&#45;&gt;Node5 -->
<g id="edge6_Node000001_Node000005" class="edge">
<title>Node1&#45;&gt;Node5</title>
<g id="a_edge6_Node000001_Node000005"><a xlink:title=" ">
<path fill="none" stroke="#63b8ff" d="M511.77,-29.9C449.21,-26.28 359.51,-21.08 304.24,-17.88"/>
<polygon fill="#63b8ff" stroke="#63b8ff" points="511.77,-33.41 521.96,-30.49 512.18,-26.42 511.77,-33.41"/>
</a>
</g>
</g>
<!-- Node3 -->
<g id="Node000003" class="node">
<title>Node3</title>
<g id="a_Node000003"><a xlink:href="classiot_1_1mqtt_1_1client_1_1Mqtt.html#a1147c1de14b227686a91052cc000c700" target="_top" xlink:title=" ">
<polygon fill="white" stroke="#666666" points="302.5,-78 204.5,-78 204.5,-48 302.5,-48 302.5,-78"/>
<text text-anchor="start" x="212.5" y="-66" font-family="Helvetica,sans-Serif" font-size="10.00">iot::mqtt::client::</text>
<text text-anchor="middle" x="253.5" y="-55" font-family="Helvetica,sans-Serif" font-size="10.00">Mqtt::_onPublish</text>
</a>
</g>
</g>
<!-- Node2&#45;&gt;Node3 -->
<g id="edge2_Node000002_Node000003" class="edge">
<title>Node2&#45;&gt;Node3</title>
<g id="a_edge2_Node000002_Node000003"><a xlink:title=" ">
<path fill="none" stroke="#63b8ff" d="M329.46,-58.24C320.4,-58.82 311.4,-59.39 302.95,-59.92"/>
<polygon fill="#63b8ff" stroke="#63b8ff" points="329.95,-61.72 339.7,-57.59 329.5,-54.73 329.95,-61.72"/>
</a>
</g>
</g>
<!-- Node2&#45;&gt;Node5 -->
<g id="edge4_Node000002_Node000005" class="edge">
<title>Node2&#45;&gt;Node5</title>
<g id="a_edge4_Node000002_Node000005"><a xlink:title=" ">
<path fill="none" stroke="#63b8ff" d="M362.5,-41.06C343.88,-36.57 322.73,-31.46 304.11,-26.97"/>
<polygon fill="#63b8ff" stroke="#63b8ff" points="361.71,-44.47 372.26,-43.41 363.36,-37.66 361.71,-44.47"/>
</a>
</g>
</g>
<!-- Node4 -->
<g id="Node000004" class="node">
<title>Node4</title>
<g id="a_Node000004"><a xlink:href="classiot_1_1mqtt_1_1client_1_1packets_1_1Publish.html#a32b464340584c0c136fe5f467715fc56" target="_top" xlink:title=" ">
<polygon fill="white" stroke="#666666" points="167,-78 0,-78 0,-48 167,-48 167,-78"/>
<text text-anchor="start" x="8" y="-66" font-family="Helvetica,sans-Serif" font-size="10.00">iot::mqtt::client::</text>
<text text-anchor="middle" x="83.5" y="-55" font-family="Helvetica,sans-Serif" font-size="10.00">packets::Publish::deliverPacket</text>
</a>
</g>
</g>
<!-- Node3&#45;&gt;Node4 -->
<g id="edge3_Node000003_Node000004" class="edge">
<title>Node3&#45;&gt;Node4</title>
<g id="a_edge3_Node000003_Node000004"><a xlink:title=" ">
<path fill="none" stroke="#63b8ff" d="M194.3,-63C185.55,-63 176.38,-63 167.23,-63"/>
<polygon fill="#63b8ff" stroke="#63b8ff" points="194.36,-66.5 204.36,-63 194.36,-59.5 194.36,-66.5"/>
</a>
</g>
</g>
<!-- Node6 -->
<g id="Node000006" class="node">
<title>Node6</title>
<g id="a_Node000006"><a xlink:href="classiot_1_1mqtt_1_1server_1_1packets_1_1Publish.html#aa4b9e335d769c0b994e54bb72276b18b" target="_top" xlink:title=" ">
<polygon fill="white" stroke="#666666" points="167,-30 0,-30 0,0 167,0 167,-30"/>
<text text-anchor="start" x="8" y="-18" font-family="Helvetica,sans-Serif" font-size="10.00">iot::mqtt::server::</text>
<text text-anchor="middle" x="83.5" y="-7" font-family="Helvetica,sans-Serif" font-size="10.00">packets::Publish::deliverPacket</text>
</a>
</g>
</g>
<!-- Node5&#45;&gt;Node6 -->
<g id="edge5_Node000005_Node000006" class="edge">
<title>Node5&#45;&gt;Node6</title>
<g id="a_edge5_Node000005_Node000006"><a xlink:title=" ">
<path fill="none" stroke="#63b8ff" d="M192.42,-15C184.26,-15 175.77,-15 167.3,-15"/>
<polygon fill="#63b8ff" stroke="#63b8ff" points="192.55,-18.5 202.55,-15 192.55,-11.5 192.55,-18.5"/>
</a>
</g>
</g>
</g>
</svg>
