<?xml version="1.0" encoding="UTF-8" standalone="no"?>
<!DOCTYPE svg PUBLIC "-//W3C//DTD SVG 1.1//EN"
 "http://www.w3.org/Graphics/SVG/1.1/DTD/svg11.dtd">
<!-- Generated by graphviz version 2.43.0 (0)
 -->
<!-- Title: net::l2::SocketAddress::SocketAddress Pages: 1 -->
<svg width="490pt" height="134pt"
 viewBox="0.00 0.00 490.00 134.00" xmlns="http://www.w3.org/2000/svg" xmlns:xlink="http://www.w3.org/1999/xlink">
<g id="graph0" class="graph" transform="scale(1 1) rotate(0) translate(4 130)">
<title>net::l2::SocketAddress::SocketAddress</title>
<!-- Node1 -->
<g id="Node000001" class="node">
<title>Node1</title>
<g id="a_Node000001"><a xlink:title=" ">
<polygon fill="#999999" stroke="#666666" points="482,-78 357,-78 357,-48 482,-48 482,-78"/>
<text text-anchor="start" x="365" y="-66" font-family="Helvetica,sans-Serif" font-size="10.00">net::l2::SocketAddress</text>
<text text-anchor="middle" x="419.5" y="-55" font-family="Helvetica,sans-Serif" font-size="10.00">::SocketAddress</text>
</a>
</g>
</g>
<!-- Node2 -->
<g id="Node000002" class="node">
<title>Node2</title>
<g id="a_Node000002"><a xlink:href="classnet_1_1l2_1_1SocketAddress.html#a44651cacfd5e35283d9d06e221e1cb19" target="_top" xlink:title=" ">
<polygon fill="white" stroke="#666666" points="321,-126 196,-126 196,-96 321,-96 321,-126"/>
<text text-anchor="start" x="204" y="-114" font-family="Helvetica,sans-Serif" font-size="10.00">net::l2::SocketAddress</text>
<text text-anchor="middle" x="258.5" y="-103" font-family="Helvetica,sans-Serif" font-size="10.00">::SocketAddress</text>
</a>
</g>
</g>
<!-- Node1&#45;&gt;Node2 -->
<g id="edge1_Node000001_Node000002" class="edge">
<title>Node1&#45;&gt;Node2</title>
<g id="a_edge1_Node000001_Node000002"><a xlink:title=" ">
<path fill="none" stroke="#63b8ff" d="M358.65,-81.07C342.35,-85.99 324.87,-91.27 309.2,-96"/>
<polygon fill="#63b8ff" stroke="#63b8ff" points="360.07,-84.3 368.63,-78.06 358.04,-77.6 360.07,-84.3"/>
</a>
</g>
</g>
<!-- Node3 -->
<g id="Node000003" class="node">
<title>Node3</title>
<g id="a_Node000003"><a xlink:href="classnet_1_1l2_1_1SocketAddress.html#a261ee626d0917427fc77ecaefd077547" target="_top" xlink:title=" ">
<polygon fill="white" stroke="#666666" points="321,-78 196,-78 196,-48 321,-48 321,-78"/>
<text text-anchor="start" x="204" y="-66" font-family="Helvetica,sans-Serif" font-size="10.00">net::l2::SocketAddress</text>
<text text-anchor="middle" x="258.5" y="-55" font-family="Helvetica,sans-Serif" font-size="10.00">::SocketAddress</text>
</a>
</g>
</g>
<!-- Node1&#45;&gt;Node3 -->
<g id="edge2_Node000001_Node000003" class="edge">
<title>Node1&#45;&gt;Node3</title>
<g id="a_edge2_Node000001_Node000003"><a xlink:title=" ">
<path fill="none" stroke="#63b8ff" d="M346.41,-63C338.01,-63 329.5,-63 321.26,-63"/>
<polygon fill="#63b8ff" stroke="#63b8ff" points="346.57,-66.5 356.57,-63 346.57,-59.5 346.57,-66.5"/>
</a>
</g>
</g>
<!-- Node6 -->
<g id="Node000006" class="node">
<title>Node6</title>
<g id="a_Node000006"><a xlink:href="classnet_1_1l2_1_1SocketAddress.html#a56347b3d827dbc14a9f4d212b28f9c7d" target="_top" xlink:title=" ">
<polygon fill="white" stroke="#666666" points="321,-30 196,-30 196,0 321,0 321,-30"/>
<text text-anchor="start" x="204" y="-18" font-family="Helvetica,sans-Serif" font-size="10.00">net::l2::SocketAddress</text>
<text text-anchor="middle" x="258.5" y="-7" font-family="Helvetica,sans-Serif" font-size="10.00">::SocketAddress</text>
</a>
</g>
</g>
<!-- Node1&#45;&gt;Node6 -->
<g id="edge5_Node000001_Node000006" class="edge">
<title>Node1&#45;&gt;Node6</title>
<g id="a_edge5_Node000001_Node000006"><a xlink:title=" ">
<path fill="none" stroke="#63b8ff" d="M358.65,-44.93C342.35,-40.01 324.87,-34.73 309.2,-30"/>
<polygon fill="#63b8ff" stroke="#63b8ff" points="358.04,-48.4 368.63,-47.94 360.07,-41.7 358.04,-48.4"/>
</a>
</g>
</g>
<!-- Node4 -->
<g id="Node000004" class="node">
<title>Node4</title>
<g id="a_Node000004"><a xlink:href="classnet_1_1l2_1_1stream_1_1SocketClient.html#a2f452b9b69257cd87110439389e5f7d5" target="_top" xlink:title=" ">
<polygon fill="white" stroke="#666666" points="157.5,-102 2.5,-102 2.5,-72 157.5,-72 157.5,-102"/>
<text text-anchor="start" x="10.5" y="-90" font-family="Helvetica,sans-Serif" font-size="10.00">net::l2::stream::SocketClient</text>
<text text-anchor="middle" x="80" y="-79" font-family="Helvetica,sans-Serif" font-size="10.00">::connect</text>
</a>
</g>
</g>
<!-- Node3&#45;&gt;Node4 -->
<g id="edge3_Node000003_Node000004" class="edge">
<title>Node3&#45;&gt;Node4</title>
<g id="a_edge3_Node000003_Node000004"><a xlink:title=" ">
<path fill="none" stroke="#63b8ff" d="M185.81,-72.75C176.51,-74.01 166.97,-75.31 157.6,-76.58"/>
<polygon fill="#63b8ff" stroke="#63b8ff" points="186.33,-76.21 195.77,-71.39 185.39,-69.27 186.33,-76.21"/>
</a>
</g>
</g>
<!-- Node5 -->
<g id="Node000005" class="node">
<title>Node5</title>
<g id="a_Node000005"><a xlink:href="classnet_1_1l2_1_1config_1_1ConfigAddress.html#ae5a9e0d8a3a65ab4f0d93766e574334d" target="_top" xlink:title=" ">
<polygon fill="white" stroke="#666666" points="160,-54 0,-54 0,-24 160,-24 160,-54"/>
<text text-anchor="start" x="8" y="-42" font-family="Helvetica,sans-Serif" font-size="10.00">net::l2::config::ConfigAddress</text>
<text text-anchor="middle" x="80" y="-31" font-family="Helvetica,sans-Serif" font-size="10.00">::init</text>
</a>
</g>
</g>
<!-- Node3&#45;&gt;Node5 -->
<g id="edge4_Node000003_Node000005" class="edge">
<title>Node3&#45;&gt;Node5</title>
<g id="a_edge4_Node000003_Node000005"><a xlink:title=" ">
<path fill="none" stroke="#63b8ff" d="M185.62,-53.23C177.2,-52.08 168.58,-50.91 160.07,-49.75"/>
<polygon fill="#63b8ff" stroke="#63b8ff" points="185.39,-56.73 195.77,-54.61 186.33,-49.79 185.39,-56.73"/>
</a>
</g>
</g>
</g>
</svg>
