<?xml version="1.0" encoding="UTF-8" standalone="no"?>
<!DOCTYPE svg PUBLIC "-//W3C//DTD SVG 1.1//EN"
 "http://www.w3.org/Graphics/SVG/1.1/DTD/svg11.dtd">
<!-- Generated by graphviz version 2.43.0 (0)
 -->
<!-- Title: web::http::client::SocketContextFactory&lt; RequestT, ResponseT &gt; Pages: 1 -->
<svg width="138pt" height="203pt"
 viewBox="0.00 0.00 138.00 203.00" xmlns="http://www.w3.org/2000/svg" xmlns:xlink="http://www.w3.org/1999/xlink">
<g id="graph0" class="graph" transform="scale(1 1) rotate(0) translate(4 199)">
<title>web::http::client::SocketContextFactory&lt; RequestT, ResponseT &gt;</title>
<!-- Node1 -->
<g id="Node000001" class="node">
<title>Node1</title>
<g id="a_Node000001"><a xlink:title=" ">
<polygon fill="#999999" stroke="transparent" points="127,-41 3,-41 3,0 127,0 127,-41"/>
<text text-anchor="start" x="7" y="-28.5" font-family="Helvetica,sans-Serif" font-size="10.00">web::http::client::</text>
<text text-anchor="start" x="7" y="-17.5" font-family="Helvetica,sans-Serif" font-size="10.00">SocketContextFactory</text>
<text text-anchor="start" x="7" y="-6.5" font-family="Helvetica,sans-Serif" font-size="10.00">&lt; RequestT, ResponseT &gt;</text>
<polygon fill="none" stroke="#666666" points="3,0 3,-41 127,-41 127,0 3,0"/>
</a>
</g>
</g>
<!-- Node2 -->
<g id="Node000002" class="node">
<title>Node2</title>
<g id="a_Node000002"><a xlink:href="classweb_1_1http_1_1SocketContextFactory.html" target="_top" xlink:title=" ">
<polygon fill="white" stroke="transparent" points="130,-129 0,-129 0,-77 130,-77 130,-129"/>
<text text-anchor="start" x="4" y="-117" font-family="Helvetica,sans-Serif" font-size="10.00">web::http::SocketContext</text>
<text text-anchor="start" x="4" y="-106" font-family="Helvetica,sans-Serif" font-size="10.00">Factory&lt; web::http::client</text>
<text text-anchor="start" x="4" y="-95" font-family="Helvetica,sans-Serif" font-size="10.00">::SocketContext, RequestT,</text>
<text text-anchor="start" x="33.5" y="-84" font-family="Helvetica,sans-Serif" font-size="10.00"> ResponseT &gt;</text>
<polygon fill="none" stroke="#666666" points="0,-77 0,-129 130,-129 130,-77 0,-77"/>
</a>
</g>
</g>
<!-- Node2&#45;&gt;Node1 -->
<g id="edge1_Node000001_Node000002" class="edge">
<title>Node2&#45;&gt;Node1</title>
<g id="a_edge1_Node000001_Node000002"><a xlink:title=" ">
<path fill="none" stroke="#63b8ff" d="M65,-66.87C65,-58.05 65,-48.9 65,-41.15"/>
<polygon fill="none" stroke="#63b8ff" points="61.5,-66.97 65,-76.97 68.5,-66.97 61.5,-66.97"/>
</a>
</g>
</g>
<!-- Node3 -->
<g id="Node000003" class="node">
<title>Node3</title>
<g id="a_Node000003"><a xlink:href="classcore_1_1socket_1_1stream_1_1SocketContextFactory.html" target="_top" xlink:title=" ">
<polygon fill="white" stroke="transparent" points="122,-195 8,-195 8,-165 122,-165 122,-195"/>
<text text-anchor="start" x="12.5" y="-183" font-family="Helvetica,sans-Serif" font-size="10.00">core::socket::stream</text>
<text text-anchor="start" x="12.5" y="-172" font-family="Helvetica,sans-Serif" font-size="10.00">::SocketContextFactory</text>
<polygon fill="none" stroke="#666666" points="8,-165 8,-195 122,-195 122,-165 8,-165"/>
</a>
</g>
</g>
<!-- Node3&#45;&gt;Node2 -->
<g id="edge2_Node000002_Node000003" class="edge">
<title>Node3&#45;&gt;Node2</title>
<g id="a_edge2_Node000002_Node000003"><a xlink:title=" ">
<path fill="none" stroke="#63b8ff" d="M65,-154.86C65,-146.69 65,-137.54 65,-129.28"/>
<polygon fill="none" stroke="#63b8ff" points="61.5,-154.89 65,-164.89 68.5,-154.89 61.5,-154.89"/>
</a>
</g>
</g>
</g>
</svg>
