<?xml version="1.0" encoding="UTF-8" standalone="no"?>
<!DOCTYPE svg PUBLIC "-//W3C//DTD SVG 1.1//EN"
 "http://www.w3.org/Graphics/SVG/1.1/DTD/svg11.dtd">
<!-- Generated by graphviz version 2.42.4 (0)
 -->
<!-- Title: web::http::server::SocketContext::responseCompleted Pages: 1 -->
<svg width="855pt" height="143pt"
 viewBox="0.00 0.00 855.00 142.50" xmlns="http://www.w3.org/2000/svg" xmlns:xlink="http://www.w3.org/1999/xlink">
<g id="graph0" class="graph" transform="scale(1 1) rotate(0) translate(4 138.5)">
<title>web::http::server::SocketContext::responseCompleted</title>
<!-- Node1 -->
<g id="Node000001" class="node">
<title>Node1</title>
<g id="a_Node000001"><a xlink:title=" ">
<polygon fill="#999999" stroke="#666666" points="191,-86.5 0,-86.5 0,-56.5 191,-56.5 191,-86.5"/>
<text text-anchor="start" x="8" y="-74.5" font-family="Helvetica,sans-Serif" font-size="10.00">web::http::server::</text>
<text text-anchor="middle" x="95.5" y="-63.5" font-family="Helvetica,sans-Serif" font-size="10.00">SocketContext::responseCompleted</text>
</a>
</g>
</g>
<!-- Node2 -->
<g id="Node000002" class="node">
<title>Node2</title>
<g id="a_Node000002"><a xlink:href="classcore_1_1socket_1_1stream_1_1SocketContext.html#a02f0b93ac0ea376dabd6921c7589a8cf" target="_top" xlink:title=" ">
<polygon fill="white" stroke="#666666" points="648,-134.5 446,-134.5 446,-104.5 648,-104.5 648,-134.5"/>
<text text-anchor="start" x="454" y="-122.5" font-family="Helvetica,sans-Serif" font-size="10.00">core::socket::stream</text>
<text text-anchor="middle" x="547" y="-111.5" font-family="Helvetica,sans-Serif" font-size="10.00">::SocketContext::getSocketConnection</text>
</a>
</g>
</g>
<!-- Node1&#45;&gt;Node2 -->
<g id="edge1_Node000001_Node000002" class="edge">
<title>Node1&#45;&gt;Node2</title>
<g id="a_edge1_Node000001_Node000002"><a xlink:title=" ">
<path fill="none" stroke="#63b8ff" d="M170.47,-86.52C188.88,-89.87 208.61,-93.12 227,-95.5 296.13,-104.43 374.16,-110.37 435.74,-114.11"/>
<polygon fill="#63b8ff" stroke="#63b8ff" points="435.67,-117.61 445.86,-114.72 436.09,-110.63 435.67,-117.61"/>
</a>
</g>
</g>
<!-- Node3 -->
<g id="Node000003" class="node">
<title>Node3</title>
<g id="a_Node000003"><a xlink:href="classweb_1_1http_1_1server_1_1SocketContext.html#aa91d12601bb4b7ccf9381d64286c4a0c" target="_top" xlink:title=" ">
<polygon fill="white" stroke="#666666" points="410,-86.5 227,-86.5 227,-56.5 410,-56.5 410,-86.5"/>
<text text-anchor="start" x="235" y="-74.5" font-family="Helvetica,sans-Serif" font-size="10.00">web::http::server::</text>
<text text-anchor="middle" x="318.5" y="-63.5" font-family="Helvetica,sans-Serif" font-size="10.00">SocketContext::requestCompleted</text>
</a>
</g>
</g>
<!-- Node1&#45;&gt;Node3 -->
<g id="edge2_Node000001_Node000003" class="edge">
<title>Node1&#45;&gt;Node3</title>
<g id="a_edge2_Node000001_Node000003"><a xlink:title=" ">
<path fill="none" stroke="#63b8ff" d="M191.19,-71.5C199.6,-71.5 208.13,-71.5 216.6,-71.5"/>
<polygon fill="#63b8ff" stroke="#63b8ff" points="216.87,-75 226.87,-71.5 216.87,-68 216.87,-75"/>
</a>
</g>
</g>
<!-- Node6 -->
<g id="Node000006" class="node">
<title>Node6</title>
<g id="a_Node000006"><a xlink:href="classcore_1_1socket_1_1stream_1_1SocketContext.html#a853d83e3e3cd8dfcce992ab688c0f63e" target="_top" xlink:title=" ">
<polygon fill="white" stroke="#666666" points="633.5,-38.5 460.5,-38.5 460.5,-8.5 633.5,-8.5 633.5,-38.5"/>
<text text-anchor="start" x="468.5" y="-26.5" font-family="Helvetica,sans-Serif" font-size="10.00">core::socket::stream</text>
<text text-anchor="middle" x="547" y="-15.5" font-family="Helvetica,sans-Serif" font-size="10.00">::SocketContext::shutdownWrite</text>
</a>
</g>
</g>
<!-- Node1&#45;&gt;Node6 -->
<g id="edge8_Node000001_Node000006" class="edge">
<title>Node1&#45;&gt;Node6</title>
<g id="a_edge8_Node000001_Node000006"><a xlink:title=" ">
<path fill="none" stroke="#63b8ff" d="M170.47,-56.48C188.88,-53.13 208.61,-49.88 227,-47.5 301.77,-37.84 386.93,-31.68 450.45,-28.02"/>
<polygon fill="#63b8ff" stroke="#63b8ff" points="450.66,-31.51 460.45,-27.45 450.27,-24.52 450.66,-31.51"/>
</a>
</g>
</g>
<!-- Node3&#45;&gt;Node2 -->
<g id="edge5_Node000003_Node000002" class="edge">
<title>Node3&#45;&gt;Node2</title>
<g id="a_edge5_Node000003_Node000002"><a xlink:title=" ">
<path fill="none" stroke="#63b8ff" d="M390.54,-86.56C414.26,-91.58 440.86,-97.22 465.26,-102.39"/>
<polygon fill="#63b8ff" stroke="#63b8ff" points="464.7,-105.85 475.21,-104.5 466.15,-99 464.7,-105.85"/>
</a>
</g>
</g>
<!-- Node4 -->
<g id="Node000004" class="node">
<title>Node4</title>
<g id="a_Node000004"><a xlink:href="classcore_1_1EventReceiver.html#a2e8d915eca53e827be4f493a63ae058d" target="_top" xlink:title=" ">
<polygon fill="white" stroke="#666666" points="604,-86.5 490,-86.5 490,-56.5 604,-56.5 604,-86.5"/>
<text text-anchor="start" x="498" y="-74.5" font-family="Helvetica,sans-Serif" font-size="10.00">core::EventReceiver</text>
<text text-anchor="middle" x="547" y="-63.5" font-family="Helvetica,sans-Serif" font-size="10.00">::atNextTick</text>
</a>
</g>
</g>
<!-- Node3&#45;&gt;Node4 -->
<g id="edge3_Node000003_Node000004" class="edge">
<title>Node3&#45;&gt;Node4</title>
<g id="a_edge3_Node000003_Node000004"><a xlink:title=" ">
<path fill="none" stroke="#63b8ff" d="M410.32,-71.5C433.48,-71.5 457.95,-71.5 479.63,-71.5"/>
<polygon fill="#63b8ff" stroke="#63b8ff" points="479.71,-75 489.71,-71.5 479.71,-68 479.71,-75"/>
</a>
</g>
</g>
<!-- Node3&#45;&gt;Node6 -->
<g id="edge6_Node000003_Node000006" class="edge">
<title>Node3&#45;&gt;Node6</title>
<g id="a_edge6_Node000003_Node000006"><a xlink:title=" ">
<path fill="none" stroke="#63b8ff" d="M390.54,-56.44C414.26,-51.42 440.86,-45.78 465.26,-40.61"/>
<polygon fill="#63b8ff" stroke="#63b8ff" points="466.15,-44 475.21,-38.5 464.7,-37.15 466.15,-44"/>
</a>
</g>
</g>
<!-- Node5 -->
<g id="Node000005" class="node">
<title>Node5</title>
<g id="a_Node000005"><a xlink:href="classcore_1_1EventReceiver.html#ad353e97a9089b2769e52f8825e4878b1" target="_top" xlink:title=" ">
<polygon fill="white" stroke="#666666" points="822.5,-89.5 708.5,-89.5 708.5,-59.5 822.5,-59.5 822.5,-89.5"/>
<text text-anchor="start" x="716.5" y="-77.5" font-family="Helvetica,sans-Serif" font-size="10.00">core::EventReceiver</text>
<text text-anchor="middle" x="765.5" y="-66.5" font-family="Helvetica,sans-Serif" font-size="10.00">::span</text>
</a>
</g>
</g>
<!-- Node4&#45;&gt;Node5 -->
<g id="edge4_Node000004_Node000005" class="edge">
<title>Node4&#45;&gt;Node5</title>
<g id="a_edge4_Node000004_Node000005"><a xlink:title=" ">
<path fill="none" stroke="#63b8ff" d="M604.04,-72.28C632.85,-72.68 668.16,-73.17 698.31,-73.58"/>
<polygon fill="#63b8ff" stroke="#63b8ff" points="698.28,-77.08 708.32,-73.72 698.37,-70.08 698.28,-77.08"/>
</a>
</g>
</g>
<!-- Node7 -->
<g id="Node000007" class="node">
<title>Node7</title>
<g id="a_Node000007"><a xlink:href="classcore_1_1socket_1_1stream_1_1SocketConnection.html#ab4496d58a35b0fa62a01f8aa78869522" target="_top" xlink:title=" ">
<polygon fill="white" stroke="#666666" points="847,-41 684,-41 684,0 847,0 847,-41"/>
<text text-anchor="start" x="692" y="-29" font-family="Helvetica,sans-Serif" font-size="10.00">core::socket::stream</text>
<text text-anchor="start" x="692" y="-18" font-family="Helvetica,sans-Serif" font-size="10.00">::SocketConnection::shutdown</text>
<text text-anchor="middle" x="765.5" y="-7" font-family="Helvetica,sans-Serif" font-size="10.00">Write</text>
</a>
</g>
</g>
<!-- Node6&#45;&gt;Node7 -->
<g id="edge7_Node000006_Node000007" class="edge">
<title>Node6&#45;&gt;Node7</title>
<g id="a_edge7_Node000006_Node000007"><a xlink:title=" ">
<path fill="none" stroke="#63b8ff" d="M633.57,-22.31C646.75,-22.13 660.41,-21.94 673.7,-21.76"/>
<polygon fill="#63b8ff" stroke="#63b8ff" points="673.84,-25.26 683.79,-21.62 673.74,-18.26 673.84,-25.26"/>
</a>
</g>
</g>
</g>
</svg>
