<?xml version="1.0" encoding="UTF-8" standalone="no"?>
<!DOCTYPE svg PUBLIC "-//W3C//DTD SVG 1.1//EN"
 "http://www.w3.org/Graphics/SVG/1.1/DTD/svg11.dtd">
<!-- Generated by graphviz version 2.43.0 (0)
 -->
<!-- Title: core::epoll::DescriptorEventPublisher::muxDel Pages: 1 -->
<svg width="528pt" height="38pt"
 viewBox="0.00 0.00 528.00 38.00" xmlns="http://www.w3.org/2000/svg" xmlns:xlink="http://www.w3.org/1999/xlink">
<g id="graph0" class="graph" transform="scale(1 1) rotate(0) translate(4 34)">
<title>core::epoll::DescriptorEventPublisher::muxDel</title>
<!-- Node1 -->
<g id="Node000001" class="node">
<title>Node1</title>
<g id="a_Node000001"><a xlink:title=" ">
<polygon fill="#999999" stroke="#666666" points="152,-30 0,-30 0,0 152,0 152,-30"/>
<text text-anchor="start" x="8" y="-18" font-family="Helvetica,sans-Serif" font-size="10.00">core::epoll::DescriptorEvent</text>
<text text-anchor="middle" x="76" y="-7" font-family="Helvetica,sans-Serif" font-size="10.00">Publisher::muxDel</text>
</a>
</g>
</g>
<!-- Node2 -->
<g id="Node000002" class="node">
<title>Node2</title>
<g id="a_Node000002"><a xlink:href="classcore_1_1epoll_1_1_descriptor_event_publisher_1_1_e_poll_events.html#a3dfa0bc812d34099e1053818655e521e" target="_top" xlink:title=" ">
<polygon fill="white" stroke="#666666" points="357,-30 188,-30 188,0 357,0 357,-30"/>
<text text-anchor="start" x="196" y="-18" font-family="Helvetica,sans-Serif" font-size="10.00">core::epoll::DescriptorEvent</text>
<text text-anchor="middle" x="272.5" y="-7" font-family="Helvetica,sans-Serif" font-size="10.00">Publisher::EPollEvents::muxDel</text>
</a>
</g>
</g>
<!-- Node1&#45;&gt;Node2 -->
<g id="edge1_Node000001_Node000002" class="edge">
<title>Node1&#45;&gt;Node2</title>
<g id="a_edge1_Node000001_Node000002"><a xlink:title=" ">
<path fill="none" stroke="#63b8ff" d="M152.2,-15C160.57,-15 169.18,-15 177.75,-15"/>
<polygon fill="#63b8ff" stroke="#63b8ff" points="177.77,-18.5 187.77,-15 177.77,-11.5 177.77,-18.5"/>
</a>
</g>
</g>
<!-- Node3 -->
<g id="Node000003" class="node">
<title>Node3</title>
<g id="a_Node000003"><a xlink:href="namespacecore_1_1system.html#a6452ec3ca95af0cb07911423312187a9" target="_top" xlink:title=" ">
<polygon fill="white" stroke="#666666" points="520,-24.5 393,-24.5 393,-5.5 520,-5.5 520,-24.5"/>
<text text-anchor="middle" x="456.5" y="-12.5" font-family="Helvetica,sans-Serif" font-size="10.00">core::system::epoll_ctl</text>
</a>
</g>
</g>
<!-- Node2&#45;&gt;Node3 -->
<g id="edge2_Node000002_Node000003" class="edge">
<title>Node2&#45;&gt;Node3</title>
<g id="a_edge2_Node000002_Node000003"><a xlink:title=" ">
<path fill="none" stroke="#63b8ff" d="M357.04,-15C365.61,-15 374.27,-15 382.71,-15"/>
<polygon fill="#63b8ff" stroke="#63b8ff" points="382.88,-18.5 392.88,-15 382.88,-11.5 382.88,-18.5"/>
</a>
</g>
</g>
</g>
</svg>
