<?xml version="1.0" encoding="UTF-8" standalone="no"?>
<!DOCTYPE svg PUBLIC "-//W3C//DTD SVG 1.1//EN"
 "http://www.w3.org/Graphics/SVG/1.1/DTD/svg11.dtd">
<!-- Generated by graphviz version 2.43.0 (0)
 -->
<!-- Title: iot::mqtt::server::Mqtt::onExit Pages: 1 -->
<svg width="456pt" height="38pt"
 viewBox="0.00 0.00 456.00 38.00" xmlns="http://www.w3.org/2000/svg" xmlns:xlink="http://www.w3.org/1999/xlink">
<g id="graph0" class="graph" transform="scale(1 1) rotate(0) translate(4 34)">
<title>iot::mqtt::server::Mqtt::onExit</title>
<!-- Node1 -->
<g id="Node000001" class="node">
<title>Node1</title>
<g id="a_Node000001"><a xlink:title=" ">
<polygon fill="#999999" stroke="#666666" points="101,-30 0,-30 0,0 101,0 101,-30"/>
<text text-anchor="start" x="8" y="-18" font-family="Helvetica,sans-Serif" font-size="10.00">iot::mqtt::server::</text>
<text text-anchor="middle" x="50.5" y="-7" font-family="Helvetica,sans-Serif" font-size="10.00">Mqtt::onExit</text>
</a>
</g>
</g>
<!-- Node2 -->
<g id="Node000002" class="node">
<title>Node2</title>
<g id="a_Node000002"><a xlink:href="classiot_1_1mqtt_1_1Mqtt.html#ac8b88f29fd206ed9c3a6974210959edc" target="_top" xlink:title=" ">
<polygon fill="white" stroke="#666666" points="261,-24.5 137,-24.5 137,-5.5 261,-5.5 261,-24.5"/>
<text text-anchor="middle" x="199" y="-12.5" font-family="Helvetica,sans-Serif" font-size="10.00">iot::mqtt::Mqtt::onExit</text>
</a>
</g>
</g>
<!-- Node1&#45;&gt;Node2 -->
<g id="edge1_Node000001_Node000002" class="edge">
<title>Node1&#45;&gt;Node2</title>
<g id="a_edge1_Node000001_Node000002"><a xlink:title=" ">
<path fill="none" stroke="#63b8ff" d="M101.1,-15C109.33,-15 118.01,-15 126.66,-15"/>
<polygon fill="#63b8ff" stroke="#63b8ff" points="126.76,-18.5 136.76,-15 126.76,-11.5 126.76,-18.5"/>
</a>
</g>
</g>
<!-- Node3 -->
<g id="Node000003" class="node">
<title>Node3</title>
<g id="a_Node000003"><a xlink:href="namespaceutils_1_1system.html#aea0a8f4d2d6d6d0fa7fcc401c5f08f1c" target="_top" xlink:title=" ">
<polygon fill="white" stroke="#666666" points="448,-24.5 297,-24.5 297,-5.5 448,-5.5 448,-24.5"/>
<text text-anchor="middle" x="372.5" y="-12.5" font-family="Helvetica,sans-Serif" font-size="10.00">utils::system::sigabbrev_np</text>
</a>
</g>
</g>
<!-- Node2&#45;&gt;Node3 -->
<g id="edge2_Node000002_Node000003" class="edge">
<title>Node2&#45;&gt;Node3</title>
<g id="a_edge2_Node000002_Node000003"><a xlink:title=" ">
<path fill="none" stroke="#63b8ff" d="M261.43,-15C269.56,-15 278.01,-15 286.45,-15"/>
<polygon fill="#63b8ff" stroke="#63b8ff" points="286.72,-18.5 296.72,-15 286.72,-11.5 286.72,-18.5"/>
</a>
</g>
</g>
</g>
</svg>
