<?xml version="1.0" encoding="UTF-8" standalone="no"?>
<!DOCTYPE svg PUBLIC "-//W3C//DTD SVG 1.1//EN"
 "http://www.w3.org/Graphics/SVG/1.1/DTD/svg11.dtd">
<!-- Generated by graphviz version 2.43.0 (0)
 -->
<!-- Title: web::websocket::SubProtocolFactorySelector::select Pages: 1 -->
<svg width="566pt" height="157pt"
 viewBox="0.00 0.00 566.00 156.50" xmlns="http://www.w3.org/2000/svg" xmlns:xlink="http://www.w3.org/1999/xlink">
<g id="graph0" class="graph" transform="scale(1 1) rotate(0) translate(4 152.5)">
<title>web::websocket::SubProtocolFactorySelector::select</title>
<!-- Node1 -->
<g id="Node000001" class="node">
<title>Node1</title>
<g id="a_Node000001"><a xlink:title=" ">
<polygon fill="#999999" stroke="#666666" points="558,-84 400,-84 400,-54 558,-54 558,-84"/>
<text text-anchor="start" x="408" y="-72" font-family="Helvetica,sans-Serif" font-size="10.00">web::websocket::SubProtocol</text>
<text text-anchor="middle" x="479" y="-61" font-family="Helvetica,sans-Serif" font-size="10.00">FactorySelector::select</text>
</a>
</g>
</g>
<!-- Node2 -->
<g id="Node000002" class="node">
<title>Node2</title>
<g id="a_Node000002"><a xlink:href="classweb_1_1websocket_1_1client_1_1_socket_context_upgrade.html#a3efeb348aa6c5a36e3264a3f367f3c8b" target="_top" xlink:title=" ">
<polygon fill="white" stroke="#666666" points="352,-148.5 218,-148.5 218,-107.5 352,-107.5 352,-148.5"/>
<text text-anchor="start" x="226" y="-136.5" font-family="Helvetica,sans-Serif" font-size="10.00">web::websocket::client</text>
<text text-anchor="start" x="226" y="-125.5" font-family="Helvetica,sans-Serif" font-size="10.00">::SocketContextUpgrade</text>
<text text-anchor="middle" x="285" y="-114.5" font-family="Helvetica,sans-Serif" font-size="10.00">::create</text>
</a>
</g>
</g>
<!-- Node1&#45;&gt;Node2 -->
<g id="edge1_Node000001_Node000002" class="edge">
<title>Node1&#45;&gt;Node2</title>
<g id="a_edge1_Node000001_Node000002"><a xlink:title=" ">
<path fill="none" stroke="#63b8ff" d="M419.23,-87.06C398.05,-93.57 374.02,-100.95 352.25,-107.64"/>
<polygon fill="#63b8ff" stroke="#63b8ff" points="420.52,-90.32 429.05,-84.04 418.47,-83.63 420.52,-90.32"/>
</a>
</g>
</g>
<!-- Node4 -->
<g id="Node000004" class="node">
<title>Node4</title>
<g id="a_Node000004"><a xlink:href="classweb_1_1websocket_1_1server_1_1_socket_context_upgrade.html#aa573a0b50287cd4798ef922aa213d14e" target="_top" xlink:title=" ">
<polygon fill="white" stroke="#666666" points="352,-89.5 218,-89.5 218,-48.5 352,-48.5 352,-89.5"/>
<text text-anchor="start" x="226" y="-77.5" font-family="Helvetica,sans-Serif" font-size="10.00">web::websocket::server</text>
<text text-anchor="start" x="226" y="-66.5" font-family="Helvetica,sans-Serif" font-size="10.00">::SocketContextUpgrade</text>
<text text-anchor="middle" x="285" y="-55.5" font-family="Helvetica,sans-Serif" font-size="10.00">::create</text>
</a>
</g>
</g>
<!-- Node1&#45;&gt;Node4 -->
<g id="edge3_Node000001_Node000004" class="edge">
<title>Node1&#45;&gt;Node4</title>
<g id="a_edge3_Node000001_Node000004"><a xlink:title=" ">
<path fill="none" stroke="#63b8ff" d="M389.78,-69C377.09,-69 364.21,-69 352.04,-69"/>
<polygon fill="#63b8ff" stroke="#63b8ff" points="389.91,-72.5 399.91,-69 389.91,-65.5 389.91,-72.5"/>
</a>
</g>
</g>
<!-- Node6 -->
<g id="Node000006" class="node">
<title>Node6</title>
<g id="a_Node000006"><a xlink:href="classweb_1_1websocket_1_1_sub_protocol_factory_selector.html#a7062da273aa65cd11019c288a54ebe32" target="_top" xlink:title=" ">
<polygon fill="white" stroke="#666666" points="364,-30 206,-30 206,0 364,0 364,-30"/>
<text text-anchor="start" x="214" y="-18" font-family="Helvetica,sans-Serif" font-size="10.00">web::websocket::SubProtocol</text>
<text text-anchor="middle" x="285" y="-7" font-family="Helvetica,sans-Serif" font-size="10.00">FactorySelector::select</text>
</a>
</g>
</g>
<!-- Node1&#45;&gt;Node6 -->
<g id="edge5_Node000001_Node000006" class="edge">
<title>Node1&#45;&gt;Node6</title>
<g id="a_edge5_Node000001_Node000006"><a xlink:title=" ">
<path fill="none" stroke="#63b8ff" d="M414.66,-51.19C390.34,-44.35 362.84,-36.61 339.53,-30.05"/>
<polygon fill="#63b8ff" stroke="#63b8ff" points="413.94,-54.62 424.52,-53.96 415.84,-47.88 413.94,-54.62"/>
</a>
</g>
</g>
<!-- Node3 -->
<g id="Node000003" class="node">
<title>Node3</title>
<g id="a_Node000003"><a xlink:href="classweb_1_1websocket_1_1client_1_1_socket_context_upgrade_factory.html#af7966f0d045a0bf5631569ea717f4e1d" target="_top" xlink:title=" ">
<polygon fill="white" stroke="#666666" points="170,-148.5 0,-148.5 0,-107.5 170,-107.5 170,-148.5"/>
<text text-anchor="start" x="8" y="-136.5" font-family="Helvetica,sans-Serif" font-size="10.00">web::websocket::client</text>
<text text-anchor="start" x="8" y="-125.5" font-family="Helvetica,sans-Serif" font-size="10.00">::SocketContextUpgradeFactory</text>
<text text-anchor="middle" x="85" y="-114.5" font-family="Helvetica,sans-Serif" font-size="10.00">::create</text>
</a>
</g>
</g>
<!-- Node2&#45;&gt;Node3 -->
<g id="edge2_Node000002_Node000003" class="edge">
<title>Node2&#45;&gt;Node3</title>
<g id="a_edge2_Node000002_Node000003"><a xlink:title=" ">
<path fill="none" stroke="#63b8ff" d="M207.61,-128C195.33,-128 182.55,-128 170.1,-128"/>
<polygon fill="#63b8ff" stroke="#63b8ff" points="207.79,-131.5 217.79,-128 207.79,-124.5 207.79,-131.5"/>
</a>
</g>
</g>
<!-- Node5 -->
<g id="Node000005" class="node">
<title>Node5</title>
<g id="a_Node000005"><a xlink:href="classweb_1_1websocket_1_1server_1_1_socket_context_upgrade_factory.html#a7164a3b2a96810d40a3c081e1289277b" target="_top" xlink:title=" ">
<polygon fill="white" stroke="#666666" points="170,-89.5 0,-89.5 0,-48.5 170,-48.5 170,-89.5"/>
<text text-anchor="start" x="8" y="-77.5" font-family="Helvetica,sans-Serif" font-size="10.00">web::websocket::server</text>
<text text-anchor="start" x="8" y="-66.5" font-family="Helvetica,sans-Serif" font-size="10.00">::SocketContextUpgradeFactory</text>
<text text-anchor="middle" x="85" y="-55.5" font-family="Helvetica,sans-Serif" font-size="10.00">::create</text>
</a>
</g>
</g>
<!-- Node4&#45;&gt;Node5 -->
<g id="edge4_Node000004_Node000005" class="edge">
<title>Node4&#45;&gt;Node5</title>
<g id="a_edge4_Node000004_Node000005"><a xlink:title=" ">
<path fill="none" stroke="#63b8ff" d="M207.61,-69C195.33,-69 182.55,-69 170.1,-69"/>
<polygon fill="#63b8ff" stroke="#63b8ff" points="207.79,-72.5 217.79,-69 207.79,-65.5 207.79,-72.5"/>
</a>
</g>
</g>
</g>
</svg>
