<?xml version="1.0" encoding="UTF-8" standalone="no"?>
<!DOCTYPE svg PUBLIC "-//W3C//DTD SVG 1.1//EN"
 "http://www.w3.org/Graphics/SVG/1.1/DTD/svg11.dtd">
<!-- Generated by graphviz version 14.1.2 (0)
 -->
<!-- Title: web::http::Parser Pages: 1 -->
<svg width="1272pt" height="512pt"
 viewBox="0.00 0.00 1272.00 512.00" xmlns="http://www.w3.org/2000/svg" xmlns:xlink="http://www.w3.org/1999/xlink">
<g id="graph0" class="graph" transform="scale(1 1) rotate(0) translate(4 507.5)">
<title>web::http::Parser</title>
<!-- Node1 -->
<g id="Node000001" class="node">
<title>Node1</title>
<g id="a_Node000001"><a xlink:title=" ">
<polygon fill="#999999" stroke="none" points="471.5,-109 381,-109 381,-88.25 471.5,-88.25 471.5,-109"/>
<text xml:space="preserve" text-anchor="start" x="385" y="-95.5" font-family="Helvetica,sans-Serif" font-size="10.00">web::http::Parser</text>
<polygon fill="none" stroke="#666666" points="381,-88.25 381,-109 471.5,-109 471.5,-88.25 381,-88.25"/>
</a>
</g>
</g>
<!-- Node2 -->
<g id="Node000002" class="node">
<title>Node2</title>
<g id="a_Node000002"><a xlink:href="classweb_1_1http_1_1CiStringMap.html" target="_top" xlink:title=" ">
<polygon fill="white" stroke="none" points="392.75,-322 273.75,-322 273.75,-288.5 392.75,-288.5 392.75,-322"/>
<text xml:space="preserve" text-anchor="start" x="277.75" y="-308.5" font-family="Helvetica,sans-Serif" font-size="10.00">web::http::CiStringMap</text>
<text xml:space="preserve" text-anchor="start" x="297.62" y="-295.75" font-family="Helvetica,sans-Serif" font-size="10.00">&lt; std::string &gt;</text>
<polygon fill="none" stroke="#666666" points="273.75,-288.5 273.75,-322 392.75,-322 392.75,-288.5 273.75,-288.5"/>
</a>
</g>
</g>
<!-- Node2&#45;&gt;Node1 -->
<g id="edge1_Node000001_Node000002" class="edge">
<title>Node2&#45;&gt;Node1</title>
<g id="a_edge1_Node000001_Node000002"><a xlink:title=" ">
<path fill="none" stroke="#63b8ff" d="M334.03,-288.6C335.78,-264.31 341.35,-216.57 359,-180.5 370.85,-156.28 391.4,-133.09 406.68,-117.81"/>
<polygon fill="none" stroke="#63b8ff" points="406.54,-117.94 408.07,-110.89 415.16,-109.6 413.63,-116.64 406.54,-117.94"/>
</a>
</g>
<text xml:space="preserve" text-anchor="start" x="362" y="-195.12" font-family="Helvetica,sans-Serif" font-size="10.00" fill="grey">#headers</text>
</g>
<!-- Node20 -->
<g id="Node000020" class="node">
<title>Node20</title>
<g id="a_Node000020"><a xlink:href="classweb_1_1http_1_1decoder_1_1Fields.html" target="_top" xlink:title=" ">
<polygon fill="white" stroke="none" points="700.62,-215 601.88,-215 601.88,-181.5 700.62,-181.5 700.62,-215"/>
<text xml:space="preserve" text-anchor="start" x="605.88" y="-201.5" font-family="Helvetica,sans-Serif" font-size="10.00">web::http::decoder</text>
<text xml:space="preserve" text-anchor="start" x="634.38" y="-188.75" font-family="Helvetica,sans-Serif" font-size="10.00">::Fields</text>
<polygon fill="none" stroke="#666666" points="601.88,-181.5 601.88,-215 700.62,-215 700.62,-181.5 601.88,-181.5"/>
</a>
</g>
</g>
<!-- Node2&#45;&gt;Node20 -->
<g id="edge28_Node000020_Node000002" class="edge">
<title>Node2&#45;&gt;Node20</title>
<g id="a_edge28_Node000020_Node000002"><a xlink:title=" ">
<path fill="none" stroke="#63b8ff" d="M338.78,-288.65C345.72,-270.03 357.86,-240.58 367.5,-234 408.14,-206.24 539.75,-224.36 588.25,-216 588.67,-215.93 589.09,-215.85 589.51,-215.78"/>
<polygon fill="none" stroke="#63b8ff" points="589.27,-215.83 594.35,-210.71 601.03,-213.44 595.94,-218.55 589.27,-215.83"/>
</a>
</g>
<text xml:space="preserve" text-anchor="start" x="370.5" y="-248.62" font-family="Helvetica,sans-Serif" font-size="10.00" fill="grey">&#45;fields</text>
</g>
<!-- Node3 -->
<g id="Node000003" class="node">
<title>Node3</title>
<g id="a_Node000003"><a xlink:title=" ">
<polygon fill="white" stroke="none" points="253.25,-415.25 161.25,-415.25 161.25,-394.5 253.25,-394.5 253.25,-415.25"/>
<text xml:space="preserve" text-anchor="start" x="165.25" y="-401.75" font-family="Helvetica,sans-Serif" font-size="10.00">std::map&lt; K, T &gt;</text>
<polygon fill="none" stroke="#666666" points="161.25,-394.5 161.25,-415.25 253.25,-415.25 253.25,-394.5 161.25,-394.5"/>
</a>
</g>
</g>
<!-- Node3&#45;&gt;Node2 -->
<g id="edge2_Node000002_Node000003" class="edge">
<title>Node3&#45;&gt;Node2</title>
<g id="a_edge2_Node000002_Node000003"><a xlink:title=" ">
<path fill="none" stroke="#63b8ff" d="M228.19,-387.65C251.8,-369.36 289.93,-339.81 313.18,-321.8"/>
<polygon fill="none" stroke="#63b8ff" points="226.29,-384.7 220.53,-393.59 230.58,-390.23 226.29,-384.7"/>
</a>
</g>
</g>
<!-- Node4 -->
<g id="Node000004" class="node">
<title>Node4</title>
<g id="a_Node000004"><a xlink:title=" ">
<polygon fill="white" stroke="none" points="256.62,-497.12 241.88,-497.12 241.88,-476.38 256.62,-476.38 256.62,-497.12"/>
<text xml:space="preserve" text-anchor="start" x="245.88" y="-483.62" font-family="Helvetica,sans-Serif" font-size="10.00">K</text>
<polygon fill="none" stroke="#666666" points="241.88,-476.38 241.88,-497.12 256.62,-497.12 256.62,-476.38 241.88,-476.38"/>
</a>
</g>
</g>
<!-- Node4&#45;&gt;Node3 -->
<g id="edge3_Node000003_Node000004" class="edge">
<title>Node4&#45;&gt;Node3</title>
<g id="a_edge3_Node000003_Node000004"><a xlink:title=" ">
<path fill="none" stroke="#63b8ff" d="M246.13,-476.53C242.34,-465.8 235.41,-447.71 227.25,-433.25 225.79,-430.67 224.13,-428.04 222.41,-425.49"/>
<polygon fill="none" stroke="#63b8ff" points="222.46,-425.56 215.69,-423.07 215.39,-415.86 222.16,-418.35 222.46,-425.56"/>
</a>
</g>
<text xml:space="preserve" text-anchor="start" x="239.25" y="-439.5" font-family="Helvetica,sans-Serif" font-size="10.00" fill="grey">+keys</text>
</g>
<!-- Node5 -->
<g id="Node000005" class="node">
<title>Node5</title>
<g id="a_Node000005"><a xlink:title=" ">
<polygon fill="white" stroke="none" points="173.25,-497.12 159.25,-497.12 159.25,-476.38 173.25,-476.38 173.25,-497.12"/>
<text xml:space="preserve" text-anchor="start" x="163.25" y="-483.62" font-family="Helvetica,sans-Serif" font-size="10.00">T</text>
<polygon fill="none" stroke="#666666" points="159.25,-476.38 159.25,-497.12 173.25,-497.12 173.25,-476.38 159.25,-476.38"/>
</a>
</g>
</g>
<!-- Node5&#45;&gt;Node3 -->
<g id="edge4_Node000003_Node000005" class="edge">
<title>Node5&#45;&gt;Node3</title>
<g id="a_edge4_Node000003_Node000005"><a xlink:title=" ">
<path fill="none" stroke="#63b8ff" d="M164.02,-476.57C161.86,-465.56 159.89,-446.89 167.25,-433.25 169.39,-429.28 172.39,-425.77 175.8,-422.7"/>
<polygon fill="none" stroke="#63b8ff" points="175.65,-422.81 178.15,-416.05 185.36,-415.75 182.86,-422.52 175.65,-422.81"/>
</a>
</g>
<text xml:space="preserve" text-anchor="start" x="170.25" y="-439.5" font-family="Helvetica,sans-Serif" font-size="10.00" fill="grey">+elements</text>
</g>
<!-- Node6 -->
<g id="Node000006" class="node">
<title>Node6</title>
<g id="a_Node000006"><a xlink:title=" ">
<polygon fill="white" stroke="none" points="137.88,-415.25 34.62,-415.25 34.62,-394.5 137.88,-394.5 137.88,-415.25"/>
<text xml:space="preserve" text-anchor="start" x="38.62" y="-401.75" font-family="Helvetica,sans-Serif" font-size="10.00">std::vector&lt; char &gt;</text>
<polygon fill="none" stroke="#666666" points="34.62,-394.5 34.62,-415.25 137.88,-415.25 137.88,-394.5 34.62,-394.5"/>
</a>
</g>
</g>
<!-- Node6&#45;&gt;Node1 -->
<g id="edge5_Node000001_Node000006" class="edge">
<title>Node6&#45;&gt;Node1</title>
<g id="a_edge5_Node000001_Node000006"><a xlink:title=" ">
<path fill="none" stroke="#63b8ff" d="M112.22,-394.54C120.96,-390.25 130.05,-384.34 136.25,-376.5 192.31,-305.64 128.35,-246.32 190.25,-180.5 203.74,-166.15 317.18,-131.37 381.74,-112.43"/>
<polygon fill="none" stroke="#63b8ff" points="381.58,-112.48 386.21,-106.96 393.09,-109.12 388.46,-114.64 381.58,-112.48"/>
</a>
</g>
<text xml:space="preserve" text-anchor="start" x="165.56" y="-248.62" font-family="Helvetica,sans-Serif" font-size="10.00" fill="grey">#content</text>
</g>
<!-- Node8 -->
<g id="Node000008" class="node">
<title>Node8</title>
<g id="a_Node000008"><a xlink:href="classweb_1_1http_1_1ContentDecoder.html" target="_top" xlink:title=" ">
<polygon fill="white" stroke="none" points="138.5,-315.62 0,-315.62 0,-294.88 138.5,-294.88 138.5,-315.62"/>
<text xml:space="preserve" text-anchor="start" x="4" y="-302.12" font-family="Helvetica,sans-Serif" font-size="10.00">web::http::ContentDecoder</text>
<polygon fill="none" stroke="#666666" points="0,-294.88 0,-315.62 138.5,-315.62 138.5,-294.88 0,-294.88"/>
</a>
</g>
</g>
<!-- Node6&#45;&gt;Node8 -->
<g id="edge8_Node000008_Node000006" class="edge">
<title>Node6&#45;&gt;Node8</title>
<g id="a_edge8_Node000008_Node000006"><a xlink:title=" ">
<path fill="none" stroke="#63b8ff" d="M84.62,-394.51C81.97,-379.31 76.67,-348.87 73.04,-328.03"/>
<polygon fill="none" stroke="#63b8ff" points="73.06,-328.15 68.09,-322.93 71,-316.33 75.97,-321.55 73.06,-328.15"/>
</a>
</g>
<text xml:space="preserve" text-anchor="start" x="84.23" y="-355.62" font-family="Helvetica,sans-Serif" font-size="10.00" fill="grey">#content</text>
</g>
<!-- Node7 -->
<g id="Node000007" class="node">
<title>Node7</title>
<g id="a_Node000007"><a xlink:title=" ">
<polygon fill="white" stroke="none" points="135.38,-215 23.13,-215 23.13,-181.5 135.38,-181.5 135.38,-215"/>
<text xml:space="preserve" text-anchor="start" x="27.12" y="-201.5" font-family="Helvetica,sans-Serif" font-size="10.00">std::list&lt; web::http</text>
<text xml:space="preserve" text-anchor="start" x="27.12" y="-188.75" font-family="Helvetica,sans-Serif" font-size="10.00">::ContentDecoder * &gt;</text>
<polygon fill="none" stroke="#666666" points="23.12,-181.5 23.12,-215 135.38,-215 135.38,-181.5 23.12,-181.5"/>
</a>
</g>
</g>
<!-- Node7&#45;&gt;Node1 -->
<g id="edge6_Node000001_Node000007" class="edge">
<title>Node7&#45;&gt;Node1</title>
<g id="a_edge6_Node000001_Node000007"><a xlink:title=" ">
<path fill="none" stroke="#63b8ff" d="M87.55,-181.56C97.31,-164.87 115.18,-139.21 138.5,-127 177.11,-106.78 295.78,-101.4 368.11,-100.02"/>
<polygon fill="none" stroke="#63b8ff" points="368.15,-100.02 374.08,-95.93 380.14,-99.83 374.21,-103.92 368.15,-100.02"/>
</a>
</g>
<text xml:space="preserve" text-anchor="start" x="141.5" y="-141.62" font-family="Helvetica,sans-Serif" font-size="10.00" fill="grey">#decoderQueue</text>
</g>
<!-- Node8&#45;&gt;Node7 -->
<g id="edge7_Node000007_Node000008" class="edge">
<title>Node8&#45;&gt;Node7</title>
<g id="a_edge7_Node000007_Node000008"><a xlink:title=" ">
<path fill="none" stroke="#63b8ff" d="M70.14,-294.93C71.56,-279.97 74.42,-249.99 76.55,-227.56"/>
<polygon fill="none" stroke="#63b8ff" points="76.55,-227.61 73.14,-221.26 77.69,-215.66 81.1,-222.01 76.55,-227.61"/>
</a>
</g>
<text xml:space="preserve" text-anchor="start" x="78.73" y="-248.62" font-family="Helvetica,sans-Serif" font-size="10.00" fill="grey">+elements</text>
</g>
<!-- Node9 -->
<g id="Node000009" class="node">
<title>Node9</title>
<g id="a_Node000009"><a xlink:href="classcore_1_1socket_1_1stream_1_1SocketContext.html" target="_top" xlink:title=" ">
<polygon fill="white" stroke="none" points="844.75,-322 737.75,-322 737.75,-288.5 844.75,-288.5 844.75,-322"/>
<text xml:space="preserve" text-anchor="start" x="741.75" y="-308.5" font-family="Helvetica,sans-Serif" font-size="10.00">core::socket::stream</text>
<text xml:space="preserve" text-anchor="start" x="753" y="-295.75" font-family="Helvetica,sans-Serif" font-size="10.00">::SocketContext</text>
<polygon fill="none" stroke="#666666" points="737.75,-288.5 737.75,-322 844.75,-322 844.75,-288.5 737.75,-288.5"/>
</a>
</g>
</g>
<!-- Node9&#45;&gt;Node1 -->
<g id="edge9_Node000001_Node000009" class="edge">
<title>Node9&#45;&gt;Node1</title>
<g id="a_edge9_Node000001_Node000009"><a xlink:title=" ">
<path fill="none" stroke="#63b8ff" d="M785.04,-288.68C769.44,-252 724.66,-160.73 653.25,-127 624.2,-113.28 541.11,-105.96 483.95,-102.44"/>
<polygon fill="none" stroke="#63b8ff" points="483.98,-102.44 477.75,-106.08 472,-101.74 478.22,-98.1 483.98,-102.44"/>
</a>
</g>
<text xml:space="preserve" text-anchor="start" x="749.22" y="-195.12" font-family="Helvetica,sans-Serif" font-size="10.00" fill="grey">#socketContext</text>
</g>
<!-- Node11 -->
<g id="Node000011" class="node">
<title>Node11</title>
<g id="a_Node000011"><a xlink:href="classcore_1_1socket_1_1stream_1_1SocketConnection.html" target="_top" xlink:title=" ">
<polygon fill="white" stroke="none" points="887.75,-33.5 780.75,-33.5 780.75,0 887.75,0 887.75,-33.5"/>
<text xml:space="preserve" text-anchor="start" x="784.75" y="-20" font-family="Helvetica,sans-Serif" font-size="10.00">core::socket::stream</text>
<text xml:space="preserve" text-anchor="start" x="787.75" y="-7.25" font-family="Helvetica,sans-Serif" font-size="10.00">::SocketConnection</text>
<polygon fill="none" stroke="#666666" points="780.75,0 780.75,-33.5 887.75,-33.5 887.75,0 780.75,0"/>
</a>
</g>
</g>
<!-- Node9&#45;&gt;Node11 -->
<g id="edge12_Node000011_Node000009" class="edge">
<title>Node9&#45;&gt;Node11</title>
<g id="a_edge12_Node000011_Node000009"><a xlink:title=" ">
<path fill="none" stroke="#63b8ff" d="M801.48,-288.8C812.09,-271.79 827.97,-243.24 834.25,-216 837.8,-200.63 843.19,-193.5 834.25,-180.5 821.57,-162.07 799.93,-180.93 787.25,-162.5 778.31,-149.5 784.07,-142.45 787.25,-127 793.31,-97.58 807.66,-66.33 818.92,-44.82"/>
<polygon fill="none" stroke="#63b8ff" points="818.97,-44.72 818.3,-37.54 824.68,-34.16 825.34,-41.34 818.97,-44.72"/>
</a>
</g>
<text xml:space="preserve" text-anchor="start" x="790.25" y="-150" font-family="Helvetica,sans-Serif" font-size="10.00" fill="grey">#newSocketContext</text>
<text xml:space="preserve" text-anchor="start" x="790.25" y="-133.25" font-family="Helvetica,sans-Serif" font-size="10.00" fill="grey">#socketContext</text>
</g>
<!-- Node9&#45;&gt;Node20 -->
<g id="edge27_Node000020_Node000009" class="edge">
<title>Node9&#45;&gt;Node20</title>
<g id="a_edge27_Node000020_Node000009"><a xlink:title=" ">
<path fill="none" stroke="#63b8ff" d="M738.11,-294.12C701.44,-286.6 658.31,-276.48 652.75,-269.5 643.47,-257.86 642.7,-241.36 644.43,-227.28"/>
<polygon fill="none" stroke="#63b8ff" points="644.4,-227.45 641.51,-220.84 646.5,-215.64 649.39,-222.24 644.4,-227.45"/>
</a>
</g>
<text xml:space="preserve" text-anchor="start" x="655.75" y="-248.62" font-family="Helvetica,sans-Serif" font-size="10.00" fill="grey">&#45;socketContext</text>
</g>
<!-- Node10 -->
<g id="Node000010" class="node">
<title>Node10</title>
<g id="a_Node000010"><a xlink:href="classcore_1_1socket_1_1SocketContext.html" target="_top" xlink:title=" ">
<polygon fill="white" stroke="none" points="1002.75,-415.25 859.75,-415.25 859.75,-394.5 1002.75,-394.5 1002.75,-415.25"/>
<text xml:space="preserve" text-anchor="start" x="863.75" y="-401.75" font-family="Helvetica,sans-Serif" font-size="10.00">core::socket::SocketContext</text>
<polygon fill="none" stroke="#666666" points="859.75,-394.5 859.75,-415.25 1002.75,-415.25 1002.75,-394.5 859.75,-394.5"/>
</a>
</g>
</g>
<!-- Node10&#45;&gt;Node9 -->
<g id="edge10_Node000009_Node000010" class="edge">
<title>Node10&#45;&gt;Node9</title>
<g id="a_edge10_Node000009_Node000010"><a xlink:title=" ">
<path fill="none" stroke="#63b8ff" d="M908.71,-388.16C882.62,-369.96 839.9,-340.17 813.8,-321.97"/>
<polygon fill="none" stroke="#63b8ff" points="906.38,-390.8 916.58,-393.65 910.38,-385.06 906.38,-390.8"/>
</a>
</g>
</g>
<!-- Node11&#45;&gt;Node9 -->
<g id="edge11_Node000009_Node000011" class="edge">
<title>Node11&#45;&gt;Node9</title>
<g id="a_edge11_Node000009_Node000011"><a xlink:title=" ">
<path fill="none" stroke="#63b8ff" d="M887.39,-31.62C927.07,-45.29 972.62,-69.9 961.25,-109 955.35,-129.29 874.87,-255.27 859.25,-269.5 854.04,-274.24 848.07,-278.51 841.87,-282.3"/>
<polygon fill="none" stroke="#63b8ff" points="841.85,-282.31 838.56,-288.73 831.37,-288.16 834.66,-281.75 841.85,-282.31"/>
</a>
</g>
<text xml:space="preserve" text-anchor="start" x="955.52" y="-141.62" font-family="Helvetica,sans-Serif" font-size="10.00" fill="grey">&#45;socketConnection</text>
</g>
<!-- Node12 -->
<g id="Node000012" class="node">
<title>Node12</title>
<g id="a_Node000012"><a xlink:title=" ">
<polygon fill="white" stroke="none" points="646.62,-415.25 589.88,-415.25 589.88,-394.5 646.62,-394.5 646.62,-415.25"/>
<text xml:space="preserve" text-anchor="start" x="593.88" y="-401.75" font-family="Helvetica,sans-Serif" font-size="10.00">std::string</text>
<polygon fill="none" stroke="#666666" points="589.88,-394.5 589.88,-415.25 646.62,-415.25 646.62,-394.5 589.88,-394.5"/>
</a>
</g>
</g>
<!-- Node12&#45;&gt;Node1 -->
<g id="edge33_Node000001_Node000012" class="edge">
<title>Node12&#45;&gt;Node1</title>
<g id="a_edge33_Node000001_Node000012"><a xlink:title=" ">
<path fill="none" stroke="#63b8ff" d="M590.2,-399.27C551.79,-391.3 484.2,-370.92 454.25,-323 414.12,-258.81 418.69,-163.88 423.29,-121.47"/>
<polygon fill="none" stroke="#63b8ff" points="423.3,-121.4 420.06,-114.95 424.76,-109.49 428,-115.93 423.3,-121.4"/>
</a>
</g>
<text xml:space="preserve" text-anchor="start" x="434.58" y="-248.62" font-family="Helvetica,sans-Serif" font-size="10.00" fill="grey">#line</text>
</g>
<!-- Node12&#45;&gt;Node9 -->
<g id="edge25_Node000009_Node000012" class="edge">
<title>Node12&#45;&gt;Node9</title>
<g id="a_edge25_Node000009_Node000012"><a xlink:title=" ">
<path fill="none" stroke="#63b8ff" d="M634.84,-394.51C661.62,-379.4 715.12,-349.21 752.04,-328.38"/>
<polygon fill="none" stroke="#63b8ff" points="752.15,-328.32 755.41,-321.88 762.6,-322.42 759.34,-328.85 752.15,-328.32"/>
</a>
</g>
<text xml:space="preserve" text-anchor="start" x="728.33" y="-355.62" font-family="Helvetica,sans-Serif" font-size="10.00" fill="grey">&#45;onlineSince</text>
</g>
<!-- Node12&#45;&gt;Node11 -->
<g id="edge13_Node000011_Node000012" class="edge">
<title>Node12&#45;&gt;Node11</title>
<g id="a_edge13_Node000011_Node000012"><a xlink:title=" ">
<path fill="none" stroke="#63b8ff" d="M590.08,-401.45C514.43,-394.34 309.57,-370.96 265.25,-323 221.86,-276.04 216.5,-237.48 245.5,-180.5 277.11,-118.41 307.82,-114.76 372.25,-88.25 505.27,-33.53 675.62,-20.79 767.8,-18.13"/>
<polygon fill="none" stroke="#63b8ff" points="767.92,-18.12 773.82,-13.97 779.92,-17.82 774.02,-21.97 767.92,-18.12"/>
</a>
</g>
<text xml:space="preserve" text-anchor="start" x="248.5" y="-203.5" font-family="Helvetica,sans-Serif" font-size="10.00" fill="grey">#connectionName</text>
<text xml:space="preserve" text-anchor="start" x="248.5" y="-186.75" font-family="Helvetica,sans-Serif" font-size="10.00" fill="grey">#instanceName</text>
</g>
<!-- Node14 -->
<g id="Node000014" class="node">
<title>Node14</title>
<g id="a_Node000014"><a xlink:href="classnet_1_1config_1_1ConfigInstance.html" target="_top" xlink:title=" ">
<polygon fill="white" stroke="none" points="952.5,-109 814,-109 814,-88.25 952.5,-88.25 952.5,-109"/>
<text xml:space="preserve" text-anchor="start" x="818" y="-95.5" font-family="Helvetica,sans-Serif" font-size="10.00">net::config::ConfigInstance</text>
<polygon fill="none" stroke="#666666" points="814,-88.25 814,-109 952.5,-109 952.5,-88.25 814,-88.25"/>
</a>
</g>
</g>
<!-- Node12&#45;&gt;Node14 -->
<g id="edge24_Node000014_Node000012" class="edge">
<title>Node12&#45;&gt;Node14</title>
<g id="a_edge24_Node000014_Node000012"><a xlink:title=" ">
<path fill="none" stroke="#63b8ff" d="M646.38,-404.41C682.56,-404.04 746.55,-399.72 795.25,-376.5 827.2,-361.26 836.25,-353.48 854.25,-323 891.52,-259.88 883.75,-235.31 892.25,-162.5 894.08,-146.83 894.75,-142.58 892.25,-127 891.94,-125.05 891.51,-123.06 891.01,-121.08"/>
<polygon fill="none" stroke="#63b8ff" points="891.02,-121.11 885.38,-116.61 887.36,-109.68 893,-114.17 891.02,-121.11"/>
</a>
</g>
<text xml:space="preserve" text-anchor="start" x="888.68" y="-257" font-family="Helvetica,sans-Serif" font-size="10.00" fill="grey">&#45;instanceName</text>
<text xml:space="preserve" text-anchor="start" x="888.68" y="-240.25" font-family="Helvetica,sans-Serif" font-size="10.00" fill="grey">&#45;nameAnonymous</text>
</g>
<!-- Node17 -->
<g id="Node000017" class="node">
<title>Node17</title>
<g id="a_Node000017"><a xlink:title=" ">
<polygon fill="white" stroke="none" points="1048.12,-322 934.38,-322 934.38,-288.5 1048.12,-288.5 1048.12,-322"/>
<text xml:space="preserve" text-anchor="start" x="938.38" y="-308.5" font-family="Helvetica,sans-Serif" font-size="10.00">std::map&lt; std::string,</text>
<text xml:space="preserve" text-anchor="start" x="959.75" y="-295.75" font-family="Helvetica,sans-Serif" font-size="10.00"> std::string &gt;</text>
<polygon fill="none" stroke="#666666" points="934.38,-288.5 934.38,-322 1048.12,-322 1048.12,-288.5 934.38,-288.5"/>
</a>
</g>
</g>
<!-- Node12&#45;&gt;Node17 -->
<g id="edge19_Node000017_Node000012" class="edge">
<title>Node12&#45;&gt;Node17</title>
<g id="a_edge19_Node000017_Node000012"><a xlink:title=" ">
<path fill="none" stroke="#63b8ff" d="M646.46,-403.73C711.88,-403 872.04,-398.92 920.25,-376.5 941.33,-366.7 959.8,-347.9 972.62,-332.21"/>
<polygon fill="none" stroke="#63b8ff" points="972.64,-332.19 973.16,-324.99 980,-322.71 979.48,-329.9 972.64,-332.19"/>
</a>
</g>
<text xml:space="preserve" text-anchor="start" x="967.36" y="-364" font-family="Helvetica,sans-Serif" font-size="10.00" fill="grey">+elements</text>
<text xml:space="preserve" text-anchor="start" x="967.36" y="-347.25" font-family="Helvetica,sans-Serif" font-size="10.00" fill="grey">+keys</text>
</g>
<!-- Node12&#45;&gt;Node20 -->
<g id="edge31_Node000020_Node000012" class="edge">
<title>Node12&#45;&gt;Node20</title>
<g id="a_edge31_Node000020_Node000012"><a xlink:title=" ">
<path fill="none" stroke="#63b8ff" d="M618.72,-394.55C620.15,-368.72 625.29,-294.21 639.25,-234 639.76,-231.82 640.35,-229.59 640.99,-227.35"/>
<polygon fill="none" stroke="#63b8ff" points="641.03,-227.22 639.1,-220.28 644.76,-215.82 646.7,-222.76 641.03,-227.22"/>
</a>
</g>
<text xml:space="preserve" text-anchor="start" x="632.29" y="-310.5" font-family="Helvetica,sans-Serif" font-size="10.00" fill="grey">&#45;errorReason</text>
<text xml:space="preserve" text-anchor="start" x="632.29" y="-293.75" font-family="Helvetica,sans-Serif" font-size="10.00" fill="grey">&#45;line</text>
</g>
<!-- Node21 -->
<g id="Node000021" class="node">
<title>Node21</title>
<g id="a_Node000021"><a xlink:title=" ">
<polygon fill="white" stroke="none" points="578.88,-315.62 463.62,-315.62 463.62,-294.88 578.88,-294.88 578.88,-315.62"/>
<text xml:space="preserve" text-anchor="start" x="467.62" y="-302.12" font-family="Helvetica,sans-Serif" font-size="10.00">std::set&lt; std::string &gt;</text>
<polygon fill="none" stroke="#666666" points="463.62,-294.88 463.62,-315.62 578.88,-315.62 578.88,-294.88 463.62,-294.88"/>
</a>
</g>
</g>
<!-- Node12&#45;&gt;Node21 -->
<g id="edge30_Node000021_Node000012" class="edge">
<title>Node12&#45;&gt;Node21</title>
<g id="a_edge30_Node000021_Node000012"><a xlink:title=" ">
<path fill="none" stroke="#63b8ff" d="M595.48,-394.58C586.13,-390.04 575.62,-383.94 567.5,-376.5 552.02,-362.32 539.34,-341.92 531.2,-326.75"/>
<polygon fill="none" stroke="#63b8ff" points="531.32,-326.98 525.03,-323.45 525.88,-316.29 532.16,-319.82 531.32,-326.98"/>
</a>
</g>
<text xml:space="preserve" text-anchor="start" x="570.5" y="-355.62" font-family="Helvetica,sans-Serif" font-size="10.00" fill="grey">+keys</text>
</g>
<!-- Node13 -->
<g id="Node000013" class="node">
<title>Node13</title>
<g id="a_Node000013"><a xlink:title=" ">
<polygon fill="white" stroke="none" points="666.12,-503.5 570.38,-503.5 570.38,-470 666.12,-470 666.12,-503.5"/>
<text xml:space="preserve" text-anchor="start" x="574.38" y="-490" font-family="Helvetica,sans-Serif" font-size="10.00">std::basic_string&lt;</text>
<text xml:space="preserve" text-anchor="start" x="599.88" y="-477.25" font-family="Helvetica,sans-Serif" font-size="10.00"> Char &gt;</text>
<polygon fill="none" stroke="#666666" points="570.38,-470 570.38,-503.5 666.12,-503.5 666.12,-470 570.38,-470"/>
</a>
</g>
</g>
<!-- Node13&#45;&gt;Node12 -->
<g id="edge14_Node000012_Node000013" class="edge">
<title>Node13&#45;&gt;Node12</title>
<g id="a_edge14_Node000012_Node000013"><a xlink:title=" ">
<path fill="none" stroke="#63b8ff" d="M618.25,-459.02C618.25,-443.9 618.25,-425.93 618.25,-415.23"/>
<polygon fill="none" stroke="#63b8ff" points="614.75,-458.84 618.25,-468.84 621.75,-458.84 614.75,-458.84"/>
</a>
</g>
</g>
<!-- Node14&#45;&gt;Node11 -->
<g id="edge15_Node000011_Node000014" class="edge">
<title>Node14&#45;&gt;Node11</title>
<g id="a_edge15_Node000011_Node000014"><a xlink:title=" ">
<path fill="none" stroke="#63b8ff" d="M877.63,-88.46C871.06,-77.75 859.89,-59.55 850.53,-44.29"/>
<polygon fill="none" stroke="#63b8ff" points="850.58,-44.37 844.04,-41.35 844.31,-34.14 850.85,-37.17 850.58,-44.37"/>
</a>
</g>
<text xml:space="preserve" text-anchor="start" x="869" y="-57.75" font-family="Helvetica,sans-Serif" font-size="10.00" fill="grey">&#45;config</text>
</g>
<!-- Node15 -->
<g id="Node000015" class="node">
<title>Node15</title>
<g id="a_Node000015"><a xlink:href="classutils_1_1SubCommand.html" target="_top" xlink:title=" ">
<polygon fill="white" stroke="none" points="1134.88,-208.62 1031.62,-208.62 1031.62,-187.88 1134.88,-187.88 1134.88,-208.62"/>
<text xml:space="preserve" text-anchor="start" x="1035.62" y="-195.12" font-family="Helvetica,sans-Serif" font-size="10.00">utils::SubCommand</text>
<polygon fill="none" stroke="#666666" points="1031.62,-187.88 1031.62,-208.62 1134.88,-208.62 1134.88,-187.88 1031.62,-187.88"/>
</a>
</g>
</g>
<!-- Node15&#45;&gt;Node14 -->
<g id="edge16_Node000014_Node000015" class="edge">
<title>Node15&#45;&gt;Node14</title>
<g id="a_edge16_Node000014_Node000015"><a xlink:title=" ">
<path fill="none" stroke="#63b8ff" d="M1020.64,-190.38C995.69,-185.45 967.64,-177 945.25,-162.5 928.38,-151.57 931.39,-141.28 917.25,-127 910.75,-120.43 902.72,-113.9 896.1,-108.87"/>
<polygon fill="none" stroke="#63b8ff" points="1019.9,-193.8 1030.37,-192.13 1021.15,-186.91 1019.9,-193.8"/>
</a>
</g>
</g>
<!-- Node15&#45;&gt;Node15 -->
<g id="edge23_Node000015_Node000015" class="edge">
<title>Node15&#45;&gt;Node15</title>
<g id="a_edge23_Node000015_Node000015"><a xlink:title=" ">
<path fill="none" stroke="#63b8ff" d="M1134.87,-207.9C1145.36,-206.85 1152.88,-203.63 1152.88,-198.25 1152.88,-195.48 1150.88,-193.28 1147.5,-191.65"/>
<polygon fill="none" stroke="#63b8ff" points="1147.41,-191.63 1140.64,-194.11 1135.74,-188.81 1142.52,-186.33 1147.41,-191.63"/>
</a>
</g>
<text xml:space="preserve" text-anchor="start" x="1155.88" y="-195.12" font-family="Helvetica,sans-Serif" font-size="10.00" fill="grey">&#45;parent</text>
</g>
<!-- Node18 -->
<g id="Node000018" class="node">
<title>Node18</title>
<g id="a_Node000018"><a xlink:href="classutils_1_1AppWithPtr.html" target="_top" xlink:title=" ">
<polygon fill="white" stroke="none" points="1247.12,-109 1157.38,-109 1157.38,-88.25 1247.12,-88.25 1247.12,-109"/>
<text xml:space="preserve" text-anchor="start" x="1161.38" y="-95.5" font-family="Helvetica,sans-Serif" font-size="10.00">utils::AppWithPtr</text>
<polygon fill="none" stroke="#666666" points="1157.38,-88.25 1157.38,-109 1247.12,-109 1247.12,-88.25 1157.38,-88.25"/>
</a>
</g>
</g>
<!-- Node15&#45;&gt;Node18 -->
<g id="edge22_Node000018_Node000015" class="edge">
<title>Node15&#45;&gt;Node18</title>
<g id="a_edge22_Node000018_Node000015"><a xlink:title=" ">
<path fill="none" stroke="#63b8ff" d="M1134.63,-188.02C1150.97,-182.87 1167.96,-174.88 1180.25,-162.5 1191.14,-151.53 1196.65,-134.88 1199.44,-121.46"/>
<polygon fill="none" stroke="#63b8ff" points="1199.46,-121.34 1196.47,-114.78 1201.37,-109.49 1204.36,-116.05 1199.46,-121.34"/>
</a>
</g>
<text xml:space="preserve" text-anchor="start" x="1200.91" y="-141.62" font-family="Helvetica,sans-Serif" font-size="10.00" fill="grey">&#45;ptr</text>
</g>
<!-- Node16 -->
<g id="Node000016" class="node">
<title>Node16</title>
<g id="a_Node000016"><a xlink:title=" ">
<polygon fill="white" stroke="none" points="1172.75,-322 1065.75,-322 1065.75,-288.5 1172.75,-288.5 1172.75,-322"/>
<text xml:space="preserve" text-anchor="start" x="1069.75" y="-308.5" font-family="Helvetica,sans-Serif" font-size="10.00">std::shared_ptr&lt; CLI</text>
<text xml:space="preserve" text-anchor="start" x="1086.62" y="-295.75" font-family="Helvetica,sans-Serif" font-size="10.00">::Formatter &gt;</text>
<polygon fill="none" stroke="#666666" points="1065.75,-288.5 1065.75,-322 1172.75,-322 1172.75,-288.5 1065.75,-288.5"/>
</a>
</g>
</g>
<!-- Node16&#45;&gt;Node15 -->
<g id="edge17_Node000015_Node000016" class="edge">
<title>Node16&#45;&gt;Node15</title>
<g id="a_edge17_Node000015_Node000016"><a xlink:title=" ">
<path fill="none" stroke="#63b8ff" d="M1113.94,-288.76C1107.77,-270.77 1097.56,-241 1090.63,-220.78"/>
<polygon fill="none" stroke="#63b8ff" points="1090.63,-220.77 1084.9,-216.39 1086.74,-209.41 1092.46,-213.79 1090.63,-220.77"/>
</a>
</g>
<text xml:space="preserve" text-anchor="start" x="1109.58" y="-248.62" font-family="Helvetica,sans-Serif" font-size="10.00" fill="grey">+sectionFormatter</text>
</g>
<!-- Node17&#45;&gt;Node15 -->
<g id="edge18_Node000015_Node000017" class="edge">
<title>Node17&#45;&gt;Node15</title>
<g id="a_edge18_Node000015_Node000017"><a xlink:title=" ">
<path fill="none" stroke="#63b8ff" d="M1001.38,-288.72C1011.32,-273.98 1027.3,-251.53 1043.5,-234 1049.08,-227.96 1055.63,-221.89 1061.78,-216.55"/>
<polygon fill="none" stroke="#63b8ff" points="1061.64,-216.67 1063.67,-209.75 1070.84,-208.96 1068.81,-215.88 1061.64,-216.67"/>
</a>
</g>
<text xml:space="preserve" text-anchor="start" x="1046.5" y="-248.62" font-family="Helvetica,sans-Serif" font-size="10.00" fill="grey">#aliases</text>
</g>
<!-- Node18&#45;&gt;Node15 -->
<g id="edge20_Node000015_Node000018" class="edge">
<title>Node18&#45;&gt;Node15</title>
<g id="a_edge20_Node000015_Node000018"><a xlink:title=" ">
<path fill="none" stroke="#63b8ff" d="M1157.53,-104.29C1128.16,-108.38 1093.52,-115.5 1084.25,-127 1073.35,-140.52 1074.27,-160.74 1077.23,-176.02"/>
<polygon fill="none" stroke="#63b8ff" points="1077.17,-175.8 1082.48,-180.67 1080.03,-187.45 1074.71,-182.57 1077.17,-175.8"/>
</a>
</g>
<text xml:space="preserve" text-anchor="start" x="1087.25" y="-141.62" font-family="Helvetica,sans-Serif" font-size="10.00" fill="grey">&#45;subCommandApp</text>
</g>
<!-- Node19 -->
<g id="Node000019" class="node">
<title>Node19</title>
<g id="a_Node000019"><a xlink:title=" ">
<polygon fill="white" stroke="none" points="1264.12,-208.62 1216.38,-208.62 1216.38,-187.88 1264.12,-187.88 1264.12,-208.62"/>
<text xml:space="preserve" text-anchor="start" x="1220.38" y="-195.12" font-family="Helvetica,sans-Serif" font-size="10.00">CLI::App</text>
<polygon fill="none" stroke="#666666" points="1216.38,-187.88 1216.38,-208.62 1264.12,-208.62 1264.12,-187.88 1216.38,-187.88"/>
</a>
</g>
</g>
<!-- Node19&#45;&gt;Node18 -->
<g id="edge21_Node000018_Node000019" class="edge">
<title>Node19&#45;&gt;Node18</title>
<g id="a_edge21_Node000018_Node000019"><a xlink:title=" ">
<path fill="none" stroke="#63b8ff" d="M1239,-176.91C1237.45,-162.37 1233.99,-142.7 1226.25,-127 1222.89,-120.2 1217.41,-113.76 1212.53,-108.83"/>
<polygon fill="none" stroke="#63b8ff" points="1235.49,-176.94 1239.8,-186.61 1242.47,-176.36 1235.49,-176.94"/>
</a>
</g>
</g>
<!-- Node20&#45;&gt;Node1 -->
<g id="edge26_Node000001_Node000020" class="edge">
<title>Node20&#45;&gt;Node1</title>
<g id="a_edge26_Node000001_Node000020"><a xlink:title=" ">
<path fill="none" stroke="#63b8ff" d="M615.1,-181.56C572.21,-162.95 501.28,-132.18 459.64,-114.11"/>
<polygon fill="none" stroke="#63b8ff" points="459.55,-114.07 452.46,-115.36 448.54,-109.3 455.64,-108.02 459.55,-114.07"/>
</a>
</g>
<text xml:space="preserve" text-anchor="start" x="568.52" y="-150" font-family="Helvetica,sans-Serif" font-size="10.00" fill="grey">&#45;headerDecoder</text>
<text xml:space="preserve" text-anchor="start" x="568.52" y="-133.25" font-family="Helvetica,sans-Serif" font-size="10.00" fill="grey">&#45;trailerDecoder</text>
</g>
<!-- Node21&#45;&gt;Node1 -->
<g id="edge32_Node000001_Node000021" class="edge">
<title>Node21&#45;&gt;Node1</title>
<g id="a_edge32_Node000001_Node000021"><a xlink:title=" ">
<path fill="none" stroke="#63b8ff" d="M517.1,-295.03C502.89,-263.47 456.17,-159.89 440.25,-127 439.2,-124.82 438.08,-122.56 436.95,-120.31"/>
<polygon fill="none" stroke="#63b8ff" points="437.02,-120.44 430.72,-116.92 431.56,-109.75 437.85,-113.28 437.02,-120.44"/>
</a>
</g>
<text xml:space="preserve" text-anchor="start" x="483.57" y="-195.12" font-family="Helvetica,sans-Serif" font-size="10.00" fill="grey">&#45;trailerFieldsExpected</text>
</g>
<!-- Node21&#45;&gt;Node20 -->
<g id="edge29_Node000020_Node000021" class="edge">
<title>Node21&#45;&gt;Node20</title>
<g id="a_edge29_Node000020_Node000021"><a xlink:title=" ">
<path fill="none" stroke="#63b8ff" d="M518.21,-294.9C514.09,-280.25 508.69,-251.7 522.5,-234 522.79,-233.63 556.62,-224.5 589.52,-215.7"/>
<polygon fill="none" stroke="#63b8ff" points="589.55,-215.69 594.32,-210.28 601.15,-212.59 596.38,-218.01 589.55,-215.69"/>
</a>
</g>
<text xml:space="preserve" text-anchor="start" x="525.5" y="-248.62" font-family="Helvetica,sans-Serif" font-size="10.00" fill="grey">&#45;fieldsExpected</text>
</g>
</g>
</svg>
