<?xml version="1.0" encoding="UTF-8" standalone="no"?>
<!DOCTYPE svg PUBLIC "-//W3C//DTD SVG 1.1//EN"
 "http://www.w3.org/Graphics/SVG/1.1/DTD/svg11.dtd">
<!-- Generated by graphviz version 2.43.0 (0)
 -->
<!-- Title: express::middleware::JsonMiddleware::instance Pages: 1 -->
<svg width="2226pt" height="663pt"
 viewBox="0.00 0.00 2226.00 662.92" xmlns="http://www.w3.org/2000/svg" xmlns:xlink="http://www.w3.org/1999/xlink">
<g id="graph0" class="graph" transform="scale(1 1) rotate(0) translate(4 658.92)">
<title>express::middleware::JsonMiddleware::instance</title>
<!-- Node1 -->
<g id="Node000001" class="node">
<title>Node1</title>
<g id="a_Node000001"><a xlink:title=" ">
<polygon fill="#999999" stroke="#666666" points="147,-469.92 0,-469.92 0,-439.92 147,-439.92 147,-469.92"/>
<text text-anchor="start" x="8" y="-457.92" font-family="Helvetica,sans-Serif" font-size="10.00">express::middleware</text>
<text text-anchor="middle" x="73.5" y="-446.92" font-family="Helvetica,sans-Serif" font-size="10.00">::JsonMiddleware::instance</text>
</a>
</g>
</g>
<!-- Node2 -->
<g id="Node000002" class="node">
<title>Node2</title>
<g id="a_Node000002"><a xlink:href="classexpress_1_1middleware_1_1JsonMiddleware.html#a0f90276c1100e22d2114306b23b95991" target="_top" xlink:title=" ">
<polygon fill="white" stroke="#666666" points="366,-469.92 183,-469.92 183,-439.92 366,-439.92 366,-469.92"/>
<text text-anchor="start" x="191" y="-457.92" font-family="Helvetica,sans-Serif" font-size="10.00">express::middleware</text>
<text text-anchor="middle" x="274.5" y="-446.92" font-family="Helvetica,sans-Serif" font-size="10.00">::JsonMiddleware::JsonMiddleware</text>
</a>
</g>
</g>
<!-- Node1&#45;&gt;Node2 -->
<g id="edge1_Node000001_Node000002" class="edge">
<title>Node1&#45;&gt;Node2</title>
<g id="a_edge1_Node000001_Node000002"><a xlink:title=" ">
<path fill="none" stroke="#63b8ff" d="M147.19,-454.92C155.49,-454.92 164.06,-454.92 172.64,-454.92"/>
<polygon fill="#63b8ff" stroke="#63b8ff" points="172.7,-458.42 182.7,-454.92 172.7,-451.42 172.7,-458.42"/>
</a>
</g>
</g>
<!-- Node3 -->
<g id="Node000003" class="node">
<title>Node3</title>
<g id="a_Node000003"><a xlink:href="classexpress_1_1Next.html#a3e14e0e46359f80dac195ec6e57eaf5d" target="_top" xlink:title=" ">
<polygon fill="white" stroke="#666666" points="541,-464.42 402,-464.42 402,-445.42 541,-445.42 541,-464.42"/>
<text text-anchor="middle" x="471.5" y="-452.42" font-family="Helvetica,sans-Serif" font-size="10.00">express::Next::operator()</text>
</a>
</g>
</g>
<!-- Node2&#45;&gt;Node3 -->
<g id="edge2_Node000002_Node000003" class="edge">
<title>Node2&#45;&gt;Node3</title>
<g id="a_edge2_Node000002_Node000003"><a xlink:title=" ">
<path fill="none" stroke="#63b8ff" d="M366.15,-454.92C374.71,-454.92 383.33,-454.92 391.76,-454.92"/>
<polygon fill="#63b8ff" stroke="#63b8ff" points="391.93,-458.42 401.93,-454.92 391.93,-451.42 391.93,-458.42"/>
</a>
</g>
</g>
<!-- Node4 -->
<g id="Node000004" class="node">
<title>Node4</title>
<g id="a_Node000004"><a xlink:href="classexpress_1_1Controller.html#a37349835c6e195cd3b2f264cfcf97fae" target="_top" xlink:title=" ">
<polygon fill="white" stroke="#666666" points="686,-469.92 577,-469.92 577,-439.92 686,-439.92 686,-469.92"/>
<text text-anchor="start" x="585" y="-457.92" font-family="Helvetica,sans-Serif" font-size="10.00">express::Controller</text>
<text text-anchor="middle" x="631.5" y="-446.92" font-family="Helvetica,sans-Serif" font-size="10.00">::next</text>
</a>
</g>
</g>
<!-- Node3&#45;&gt;Node4 -->
<g id="edge3_Node000003_Node000004" class="edge">
<title>Node3&#45;&gt;Node4</title>
<g id="a_edge3_Node000003_Node000004"><a xlink:title=" ">
<path fill="none" stroke="#63b8ff" d="M541.34,-454.92C549.74,-454.92 558.29,-454.92 566.61,-454.92"/>
<polygon fill="#63b8ff" stroke="#63b8ff" points="566.61,-458.42 576.61,-454.92 566.61,-451.42 566.61,-458.42"/>
</a>
</g>
</g>
<!-- Node5 -->
<g id="Node000005" class="node">
<title>Node5</title>
<g id="a_Node000005"><a xlink:href="classexpress_1_1RootRoute.html#a2d65050e101a52dc8c303cd787d1cb23" target="_top" xlink:title=" ">
<polygon fill="white" stroke="#666666" points="846,-493.92 734,-493.92 734,-463.92 846,-463.92 846,-493.92"/>
<text text-anchor="start" x="742" y="-481.92" font-family="Helvetica,sans-Serif" font-size="10.00">express::RootRoute</text>
<text text-anchor="middle" x="790" y="-470.92" font-family="Helvetica,sans-Serif" font-size="10.00">::dispatch</text>
</a>
</g>
</g>
<!-- Node4&#45;&gt;Node5 -->
<g id="edge4_Node000004_Node000005" class="edge">
<title>Node4&#45;&gt;Node5</title>
<g id="a_edge4_Node000004_Node000005"><a xlink:title=" ">
<path fill="none" stroke="#63b8ff" d="M686.36,-463.18C698.5,-465.04 711.51,-467.03 724.05,-468.96"/>
<polygon fill="#63b8ff" stroke="#63b8ff" points="723.56,-472.42 733.98,-470.48 724.62,-465.5 723.56,-472.42"/>
</a>
</g>
</g>
<!-- Node42 -->
<g id="Node000042" class="node">
<title>Node42</title>
<g id="a_Node000042"><a xlink:href="classcore_1_1EventLoop.html#aef20810c9fcf4c7b33a5b6dbab1973b9" target="_top" xlink:title=" ">
<polygon fill="white" stroke="#666666" points="858,-445.92 722,-445.92 722,-415.92 858,-415.92 858,-445.92"/>
<text text-anchor="start" x="730" y="-433.92" font-family="Helvetica,sans-Serif" font-size="10.00">core::EventLoop::getTick</text>
<text text-anchor="middle" x="790" y="-422.92" font-family="Helvetica,sans-Serif" font-size="10.00">Counter</text>
</a>
</g>
</g>
<!-- Node4&#45;&gt;Node42 -->
<g id="edge46_Node000004_Node000042" class="edge">
<title>Node4&#45;&gt;Node42</title>
<g id="a_edge46_Node000004_Node000042"><a xlink:title=" ">
<path fill="none" stroke="#63b8ff" d="M686.36,-446.66C694.56,-445.4 703.15,-444.08 711.73,-442.77"/>
<polygon fill="#63b8ff" stroke="#63b8ff" points="712.42,-446.2 721.77,-441.23 711.35,-439.28 712.42,-446.2"/>
</a>
</g>
</g>
<!-- Node6 -->
<g id="Node000006" class="node">
<title>Node6</title>
<g id="a_Node000006"><a xlink:href="classexpress_1_1Route.html#a1aea7b29f8470cd6394ab72d5daeb66d" target="_top" xlink:title=" ">
<polygon fill="white" stroke="#666666" points="1031,-555.42 894,-555.42 894,-536.42 1031,-536.42 1031,-555.42"/>
<text text-anchor="middle" x="962.5" y="-543.42" font-family="Helvetica,sans-Serif" font-size="10.00">express::Route::dispatch</text>
</a>
</g>
</g>
<!-- Node5&#45;&gt;Node6 -->
<g id="edge5_Node000005_Node000006" class="edge">
<title>Node5&#45;&gt;Node6</title>
<g id="a_edge5_Node000005_Node000006"><a xlink:title=" ">
<path fill="none" stroke="#63b8ff" d="M820.21,-494.07C840.54,-504.24 868.47,-517.45 894,-526.92 900.29,-529.25 907,-531.46 913.65,-533.49"/>
<polygon fill="#63b8ff" stroke="#63b8ff" points="912.73,-536.87 923.31,-536.33 914.7,-530.15 912.73,-536.87"/>
</a>
</g>
</g>
<!-- Node12 -->
<g id="Node000012" class="node">
<title>Node12</title>
<g id="a_Node000012"><a xlink:href="classexpress_1_1Controller.html#aafcd0fbe7ff947b243d28b6dee9baf98" target="_top" xlink:title=" ">
<polygon fill="white" stroke="#666666" points="1017,-517.92 908,-517.92 908,-487.92 1017,-487.92 1017,-517.92"/>
<text text-anchor="start" x="916" y="-505.92" font-family="Helvetica,sans-Serif" font-size="10.00">express::Controller</text>
<text text-anchor="middle" x="962.5" y="-494.92" font-family="Helvetica,sans-Serif" font-size="10.00">::getResponse</text>
</a>
</g>
</g>
<!-- Node5&#45;&gt;Node12 -->
<g id="edge12_Node000005_Node000012" class="edge">
<title>Node5&#45;&gt;Node12</title>
<g id="a_edge12_Node000005_Node000012"><a xlink:title=" ">
<path fill="none" stroke="#63b8ff" d="M846.36,-486.71C862.7,-489.01 880.73,-491.55 897.57,-493.92"/>
<polygon fill="#63b8ff" stroke="#63b8ff" points="897.48,-497.44 907.87,-495.37 898.46,-490.51 897.48,-497.44"/>
</a>
</g>
</g>
<!-- Node13 -->
<g id="Node000013" class="node">
<title>Node13</title>
<g id="a_Node000013"><a xlink:href="classexpress_1_1Controller.html#a813e6ff0945a1cc96bc7c77b99bb2259" target="_top" xlink:title=" ">
<polygon fill="white" stroke="#666666" points="1017,-469.92 908,-469.92 908,-439.92 1017,-439.92 1017,-469.92"/>
<text text-anchor="start" x="916" y="-457.92" font-family="Helvetica,sans-Serif" font-size="10.00">express::Controller</text>
<text text-anchor="middle" x="962.5" y="-446.92" font-family="Helvetica,sans-Serif" font-size="10.00">::laxRouting</text>
</a>
</g>
</g>
<!-- Node5&#45;&gt;Node13 -->
<g id="edge13_Node000005_Node000013" class="edge">
<title>Node5&#45;&gt;Node13</title>
<g id="a_edge13_Node000005_Node000013"><a xlink:title=" ">
<path fill="none" stroke="#63b8ff" d="M846.36,-471.13C862.7,-468.82 880.73,-466.29 897.57,-463.92"/>
<polygon fill="#63b8ff" stroke="#63b8ff" points="898.46,-467.33 907.87,-462.47 897.48,-460.39 898.46,-467.33"/>
</a>
</g>
</g>
<!-- Node15 -->
<g id="Node000015" class="node">
<title>Node15</title>
<g id="a_Node000015"><a xlink:href="classexpress_1_1Response.html#aead1c666aafef5787f1824e5ea30efad" target="_top" xlink:title=" ">
<polygon fill="white" stroke="#666666" points="1019.5,-329.92 905.5,-329.92 905.5,-299.92 1019.5,-299.92 1019.5,-329.92"/>
<text text-anchor="start" x="913.5" y="-317.92" font-family="Helvetica,sans-Serif" font-size="10.00">express::Response::</text>
<text text-anchor="middle" x="962.5" y="-306.92" font-family="Helvetica,sans-Serif" font-size="10.00">sendStatus</text>
</a>
</g>
</g>
<!-- Node5&#45;&gt;Node15 -->
<g id="edge15_Node000005_Node000015" class="edge">
<title>Node5&#45;&gt;Node15</title>
<g id="a_edge15_Node000005_Node000015"><a xlink:title=" ">
<path fill="none" stroke="#63b8ff" d="M843.08,-463.81C848.35,-461.25 853.44,-458.31 858,-454.92 900.03,-423.68 932.58,-370.6 949.22,-339.55"/>
<polygon fill="#63b8ff" stroke="#63b8ff" points="952.53,-340.79 954.06,-330.3 946.33,-337.54 952.53,-340.79"/>
</a>
</g>
</g>
<!-- Node7 -->
<g id="Node000007" class="node">
<title>Node7</title>
<g id="a_Node000007"><a xlink:href="classexpress_1_1Dispatcher.html#a85f78f8231206e037904233940b7b5a7" target="_top" xlink:title=" ">
<polygon fill="white" stroke="#666666" points="1193.5,-654.92 1080.5,-654.92 1080.5,-624.92 1193.5,-624.92 1193.5,-654.92"/>
<text text-anchor="start" x="1088.5" y="-642.92" font-family="Helvetica,sans-Serif" font-size="10.00">express::Dispatcher</text>
<text text-anchor="middle" x="1137" y="-631.92" font-family="Helvetica,sans-Serif" font-size="10.00">::dispatch</text>
</a>
</g>
</g>
<!-- Node6&#45;&gt;Node7 -->
<g id="edge6_Node000006_Node000007" class="edge">
<title>Node6&#45;&gt;Node7</title>
<g id="a_edge6_Node000006_Node000007"><a xlink:title=" ">
<path fill="none" stroke="#63b8ff" d="M975.6,-555.65C994.28,-570.31 1031.71,-598.22 1067,-615.92 1070.53,-617.69 1074.23,-619.39 1078,-621"/>
<polygon fill="#63b8ff" stroke="#63b8ff" points="1076.87,-624.32 1087.45,-624.83 1079.5,-617.83 1076.87,-624.32"/>
</a>
</g>
</g>
<!-- Node8 -->
<g id="Node000008" class="node">
<title>Node8</title>
<g id="a_Node000008"><a xlink:href="classexpress_1_1Controller.html#ad869b9f2284026613a76f1c4e4240de0" target="_top" xlink:title=" ">
<polygon fill="white" stroke="#666666" points="1191.5,-606.92 1082.5,-606.92 1082.5,-576.92 1191.5,-576.92 1191.5,-606.92"/>
<text text-anchor="start" x="1090.5" y="-594.92" font-family="Helvetica,sans-Serif" font-size="10.00">express::Controller</text>
<text text-anchor="middle" x="1137" y="-583.92" font-family="Helvetica,sans-Serif" font-size="10.00">::dispatchNext</text>
</a>
</g>
</g>
<!-- Node6&#45;&gt;Node8 -->
<g id="edge7_Node000006_Node000008" class="edge">
<title>Node6&#45;&gt;Node8</title>
<g id="a_edge7_Node000006_Node000008"><a xlink:title=" ">
<path fill="none" stroke="#63b8ff" d="M999.24,-555.45C1020.41,-561.09 1047.85,-568.41 1072.59,-575.01"/>
<polygon fill="#63b8ff" stroke="#63b8ff" points="1071.71,-578.4 1082.28,-577.59 1073.51,-571.63 1071.71,-578.4"/>
</a>
</g>
</g>
<!-- Node11 -->
<g id="Node000011" class="node">
<title>Node11</title>
<g id="a_Node000011"><a xlink:href="classexpress_1_1Controller.html#ae7633696264876a7d3f64a3ff8aa1291" target="_top" xlink:title=" ">
<polygon fill="white" stroke="#666666" points="1191.5,-558.92 1082.5,-558.92 1082.5,-528.92 1191.5,-528.92 1191.5,-558.92"/>
<text text-anchor="start" x="1090.5" y="-546.92" font-family="Helvetica,sans-Serif" font-size="10.00">express::Controller</text>
<text text-anchor="middle" x="1137" y="-535.92" font-family="Helvetica,sans-Serif" font-size="10.00">::setCurrentRoute</text>
</a>
</g>
</g>
<!-- Node6&#45;&gt;Node11 -->
<g id="edge11_Node000006_Node000011" class="edge">
<title>Node6&#45;&gt;Node11</title>
<g id="a_edge11_Node000006_Node000011"><a xlink:title=" ">
<path fill="none" stroke="#63b8ff" d="M1031.18,-545.13C1044.72,-544.98 1058.9,-544.81 1072.3,-544.66"/>
<polygon fill="#63b8ff" stroke="#63b8ff" points="1072.41,-548.15 1082.37,-544.54 1072.33,-541.16 1072.41,-548.15"/>
</a>
</g>
</g>
<!-- Node9 -->
<g id="Node000009" class="node">
<title>Node9</title>
<g id="a_Node000009"><a xlink:href="classexpress_1_1Route.html#a8c878f3ae8be82aa01d8a73d55759771" target="_top" xlink:title=" ">
<polygon fill="white" stroke="#666666" points="1403,-574.42 1243,-574.42 1243,-555.42 1403,-555.42 1403,-574.42"/>
<text text-anchor="middle" x="1323" y="-562.42" font-family="Helvetica,sans-Serif" font-size="10.00">express::Route::dispatchNext</text>
</a>
</g>
</g>
<!-- Node8&#45;&gt;Node9 -->
<g id="edge8_Node000008_Node000009" class="edge">
<title>Node8&#45;&gt;Node9</title>
<g id="a_edge8_Node000008_Node000009"><a xlink:title=" ">
<path fill="none" stroke="#63b8ff" d="M1191.72,-584.04C1209.07,-581.49 1228.63,-578.62 1247.23,-575.89"/>
<polygon fill="#63b8ff" stroke="#63b8ff" points="1247.75,-579.35 1257.14,-574.44 1246.74,-572.42 1247.75,-579.35"/>
</a>
</g>
</g>
<!-- Node10 -->
<g id="Node000010" class="node">
<title>Node10</title>
<g id="a_Node000010"><a xlink:href="classexpress_1_1Dispatcher.html#a8b5e4f0eb3d02c5f8c5452980a8845c2" target="_top" xlink:title=" ">
<polygon fill="white" stroke="#666666" points="1585,-547.92 1472,-547.92 1472,-517.92 1585,-517.92 1585,-547.92"/>
<text text-anchor="start" x="1480" y="-535.92" font-family="Helvetica,sans-Serif" font-size="10.00">express::Dispatcher</text>
<text text-anchor="middle" x="1528.5" y="-524.92" font-family="Helvetica,sans-Serif" font-size="10.00">::dispatchNext</text>
</a>
</g>
</g>
<!-- Node9&#45;&gt;Node10 -->
<g id="edge9_Node000009_Node000010" class="edge">
<title>Node9&#45;&gt;Node10</title>
<g id="a_edge9_Node000009_Node000010"><a xlink:title=" ">
<path fill="none" stroke="#63b8ff" d="M1384.51,-555.4C1408.81,-551.58 1436.89,-547.17 1461.7,-543.26"/>
<polygon fill="#63b8ff" stroke="#63b8ff" points="1462.41,-546.7 1471.75,-541.68 1461.32,-539.78 1462.41,-546.7"/>
</a>
</g>
</g>
<!-- Node10&#45;&gt;Node6 -->
<g id="edge10_Node000010_Node000006" class="edge">
<title>Node10&#45;&gt;Node6</title>
<g id="a_edge10_Node000010_Node000006"><a xlink:title=" ">
<path fill="none" stroke="#63b8ff" d="M1471.95,-525.97C1385.16,-516.31 1212.26,-501.95 1067,-519.92 1055.43,-521.35 1030.21,-527.66 1007.57,-533.7"/>
<polygon fill="#63b8ff" stroke="#63b8ff" points="1006.48,-530.37 997.74,-536.35 1008.31,-537.13 1006.48,-530.37"/>
</a>
</g>
</g>
<!-- Node14 -->
<g id="Node000014" class="node">
<title>Node14</title>
<g id="a_Node000014"><a xlink:href="classexpress_1_1Request.html#a1272dd3c70ef45f3b28d04757b03141d" target="_top" xlink:title=" ">
<polygon fill="white" stroke="#666666" points="1207,-467.42 1067,-467.42 1067,-448.42 1207,-448.42 1207,-467.42"/>
<text text-anchor="middle" x="1137" y="-455.42" font-family="Helvetica,sans-Serif" font-size="10.00">express::Request::extend</text>
</a>
</g>
</g>
<!-- Node13&#45;&gt;Node14 -->
<g id="edge14_Node000013_Node000014" class="edge">
<title>Node13&#45;&gt;Node14</title>
<g id="a_edge14_Node000013_Node000014"><a xlink:title=" ">
<path fill="none" stroke="#63b8ff" d="M1017.13,-455.85C1029.67,-456.07 1043.27,-456.3 1056.66,-456.54"/>
<polygon fill="#63b8ff" stroke="#63b8ff" points="1056.77,-460.04 1066.83,-456.71 1056.89,-453.04 1056.77,-460.04"/>
</a>
</g>
</g>
<!-- Node16 -->
<g id="Node000016" class="node">
<title>Node16</title>
<g id="a_Node000016"><a xlink:href="classweb_1_1http_1_1StatusCode.html#ad3c635f1cb778cdb4a2e23332ebda277" target="_top" xlink:title=" ">
<polygon fill="white" stroke="#666666" points="1983.5,-551.92 1859.5,-551.92 1859.5,-521.92 1983.5,-521.92 1983.5,-551.92"/>
<text text-anchor="start" x="1867.5" y="-539.92" font-family="Helvetica,sans-Serif" font-size="10.00">web::http::StatusCode</text>
<text text-anchor="middle" x="1921.5" y="-528.92" font-family="Helvetica,sans-Serif" font-size="10.00">::reason</text>
</a>
</g>
</g>
<!-- Node15&#45;&gt;Node16 -->
<g id="edge16_Node000015_Node000016" class="edge">
<title>Node15&#45;&gt;Node16</title>
<g id="a_edge16_Node000015_Node000016"><a xlink:title=" ">
<path fill="none" stroke="#63b8ff" d="M993.32,-329.96C1053.72,-358.99 1195.53,-419.92 1322,-419.92 1322,-419.92 1322,-419.92 1529.5,-419.92 1673.56,-419.92 1701.97,-471.67 1840,-512.92 1846.48,-514.85 1853.25,-516.87 1860,-518.89"/>
<polygon fill="#63b8ff" stroke="#63b8ff" points="1859.24,-522.32 1869.83,-521.82 1861.24,-515.61 1859.24,-522.32"/>
</a>
</g>
</g>
<!-- Node18 -->
<g id="Node000018" class="node">
<title>Node18</title>
<g id="a_Node000018"><a xlink:href="classweb_1_1http_1_1server_1_1Response.html#a5128a20b904071c22a077b040c8ff138" target="_top" xlink:title=" ">
<polygon fill="white" stroke="#666666" points="1189.5,-297.92 1084.5,-297.92 1084.5,-267.92 1189.5,-267.92 1189.5,-297.92"/>
<text text-anchor="start" x="1092.5" y="-285.92" font-family="Helvetica,sans-Serif" font-size="10.00">web::http::server::</text>
<text text-anchor="middle" x="1137" y="-274.92" font-family="Helvetica,sans-Serif" font-size="10.00">Response::send</text>
</a>
</g>
</g>
<!-- Node15&#45;&gt;Node18 -->
<g id="edge18_Node000015_Node000018" class="edge">
<title>Node15&#45;&gt;Node18</title>
<g id="a_edge18_Node000015_Node000018"><a xlink:title=" ">
<path fill="none" stroke="#63b8ff" d="M1019.51,-304.53C1036.94,-301.29 1056.26,-297.71 1074.08,-294.4"/>
<polygon fill="#63b8ff" stroke="#63b8ff" points="1075.17,-297.76 1084.36,-292.5 1073.89,-290.88 1075.17,-297.76"/>
</a>
</g>
</g>
<!-- Node41 -->
<g id="Node000041" class="node">
<title>Node41</title>
<g id="a_Node000041"><a xlink:href="classweb_1_1http_1_1server_1_1Response.html#ab0e29ec119bf92d286d94d12ff2071ba" target="_top" xlink:title=" ">
<polygon fill="white" stroke="#666666" points="1189.5,-249.92 1084.5,-249.92 1084.5,-219.92 1189.5,-219.92 1189.5,-249.92"/>
<text text-anchor="start" x="1092.5" y="-237.92" font-family="Helvetica,sans-Serif" font-size="10.00">web::http::server::</text>
<text text-anchor="middle" x="1137" y="-226.92" font-family="Helvetica,sans-Serif" font-size="10.00">Response::status</text>
</a>
</g>
</g>
<!-- Node15&#45;&gt;Node41 -->
<g id="edge45_Node000015_Node000041" class="edge">
<title>Node15&#45;&gt;Node41</title>
<g id="a_edge45_Node000015_Node000041"><a xlink:title=" ">
<path fill="none" stroke="#63b8ff" d="M988.87,-299.7C1009.47,-287.7 1039.52,-271.04 1067,-258.92 1071.09,-257.11 1075.37,-255.35 1079.7,-253.65"/>
<polygon fill="#63b8ff" stroke="#63b8ff" points="1081.1,-256.86 1089.21,-250.04 1078.62,-250.32 1081.1,-256.86"/>
</a>
</g>
</g>
<!-- Node17 -->
<g id="Node000017" class="node">
<title>Node17</title>
<g id="a_Node000017"><a xlink:href="classweb_1_1http_1_1StatusCode.html#a7128168d2becba8d8bfd0e47ab2854ff" target="_top" xlink:title=" ">
<polygon fill="white" stroke="#666666" points="2190.5,-551.92 2066.5,-551.92 2066.5,-521.92 2190.5,-521.92 2190.5,-551.92"/>
<text text-anchor="start" x="2074.5" y="-539.92" font-family="Helvetica,sans-Serif" font-size="10.00">web::http::StatusCode</text>
<text text-anchor="middle" x="2128.5" y="-528.92" font-family="Helvetica,sans-Serif" font-size="10.00">::contains</text>
</a>
</g>
</g>
<!-- Node16&#45;&gt;Node17 -->
<g id="edge17_Node000016_Node000017" class="edge">
<title>Node16&#45;&gt;Node17</title>
<g id="a_edge17_Node000016_Node000017"><a xlink:title=" ">
<path fill="none" stroke="#63b8ff" d="M1983.73,-536.92C2006.44,-536.92 2032.4,-536.92 2055.95,-536.92"/>
<polygon fill="#63b8ff" stroke="#63b8ff" points="2056.23,-540.42 2066.23,-536.92 2056.23,-533.42 2056.23,-540.42"/>
</a>
</g>
</g>
<!-- Node19 -->
<g id="Node000019" class="node">
<title>Node19</title>
<g id="a_Node000019"><a xlink:href="classweb_1_1http_1_1server_1_1Response.html#ad13e93ee083ee9e780a4478a86fdefec" target="_top" xlink:title=" ">
<polygon fill="white" stroke="#666666" points="1375.5,-266.92 1270.5,-266.92 1270.5,-236.92 1375.5,-236.92 1375.5,-266.92"/>
<text text-anchor="start" x="1278.5" y="-254.92" font-family="Helvetica,sans-Serif" font-size="10.00">web::http::server::</text>
<text text-anchor="middle" x="1323" y="-243.92" font-family="Helvetica,sans-Serif" font-size="10.00">Response::send</text>
</a>
</g>
</g>
<!-- Node18&#45;&gt;Node19 -->
<g id="edge19_Node000018_Node000019" class="edge">
<title>Node18&#45;&gt;Node19</title>
<g id="a_edge19_Node000018_Node000019"><a xlink:title=" ">
<path fill="none" stroke="#63b8ff" d="M1189.74,-274.2C1211.69,-270.5 1237.44,-266.16 1260.36,-262.3"/>
<polygon fill="#63b8ff" stroke="#63b8ff" points="1261.05,-265.74 1270.33,-260.62 1259.88,-258.83 1261.05,-265.74"/>
</a>
</g>
</g>
<!-- Node26 -->
<g id="Node000026" class="node">
<title>Node26</title>
<g id="a_Node000026"><a xlink:href="classweb_1_1http_1_1server_1_1Response.html#a82301ce94e8418a2d0b9bc052207a178" target="_top" xlink:title=" ">
<polygon fill="white" stroke="#666666" points="2181,-230.92 2076,-230.92 2076,-200.92 2181,-200.92 2181,-230.92"/>
<text text-anchor="start" x="2084" y="-218.92" font-family="Helvetica,sans-Serif" font-size="10.00">web::http::server::</text>
<text text-anchor="middle" x="2128.5" y="-207.92" font-family="Helvetica,sans-Serif" font-size="10.00">Response::set</text>
</a>
</g>
</g>
<!-- Node18&#45;&gt;Node26 -->
<g id="edge44_Node000018_Node000026" class="edge">
<title>Node18&#45;&gt;Node26</title>
<g id="a_edge44_Node000018_Node000026"><a xlink:title=" ">
<path fill="none" stroke="#63b8ff" d="M1188.37,-267.91C1194.81,-265.27 1201.18,-262.27 1207,-258.92 1225.29,-248.37 1226.43,-241.01 1243,-227.92 1365.48,-131.12 1371.39,-21.92 1527.5,-21.92 1527.5,-21.92 1527.5,-21.92 1730,-21.92 1851.63,-21.92 1910.22,37.73 2003,-40.92 2055.63,-85.53 1990.97,-142.39 2039,-191.92 2046.39,-199.54 2055.94,-204.82 2066.01,-208.46"/>
<polygon fill="#63b8ff" stroke="#63b8ff" points="2065.2,-211.87 2075.78,-211.47 2067.26,-205.18 2065.2,-211.87"/>
</a>
</g>
</g>
<!-- Node20 -->
<g id="Node000020" class="node">
<title>Node20</title>
<g id="a_Node000020"><a xlink:href="classweb_1_1http_1_1server_1_1Response.html#afa629201cede13cbddfcc22290229ab9" target="_top" xlink:title=" ">
<polygon fill="white" stroke="#666666" points="1598.5,-303.92 1458.5,-303.92 1458.5,-273.92 1598.5,-273.92 1598.5,-303.92"/>
<text text-anchor="start" x="1466.5" y="-291.92" font-family="Helvetica,sans-Serif" font-size="10.00">web::http::server::</text>
<text text-anchor="middle" x="1528.5" y="-280.92" font-family="Helvetica,sans-Serif" font-size="10.00">Response::sendResponse</text>
</a>
</g>
</g>
<!-- Node19&#45;&gt;Node20 -->
<g id="edge20_Node000019_Node000020" class="edge">
<title>Node19&#45;&gt;Node20</title>
<g id="a_edge20_Node000019_Node000020"><a xlink:title=" ">
<path fill="none" stroke="#63b8ff" d="M1375.61,-261.3C1397.66,-265.31 1423.89,-270.08 1448.3,-274.52"/>
<polygon fill="#63b8ff" stroke="#63b8ff" points="1447.8,-277.98 1458.26,-276.33 1449.05,-271.1 1447.8,-277.98"/>
</a>
</g>
</g>
<!-- Node19&#45;&gt;Node26 -->
<g id="edge43_Node000019_Node000026" class="edge">
<title>Node19&#45;&gt;Node26</title>
<g id="a_edge43_Node000019_Node000026"><a xlink:title=" ">
<path fill="none" stroke="#63b8ff" d="M1375.72,-249.07C1440.68,-245.54 1555.57,-239.43 1654,-234.92 1801.78,-228.15 1975.58,-221.51 2065.93,-218.16"/>
<polygon fill="#63b8ff" stroke="#63b8ff" points="2066.13,-221.66 2075.99,-217.79 2065.87,-214.66 2066.13,-221.66"/>
</a>
</g>
</g>
<!-- Node33 -->
<g id="Node000033" class="node">
<title>Node33</title>
<g id="a_Node000033"><a xlink:href="classweb_1_1http_1_1server_1_1Response.html#a3967e93bab3872d6c4f1c270ebd421ea" target="_top" xlink:title=" ">
<polygon fill="white" stroke="#666666" points="1618,-187.92 1439,-187.92 1439,-157.92 1618,-157.92 1618,-187.92"/>
<text text-anchor="start" x="1447" y="-175.92" font-family="Helvetica,sans-Serif" font-size="10.00">web::http::server::</text>
<text text-anchor="middle" x="1528.5" y="-164.92" font-family="Helvetica,sans-Serif" font-size="10.00">Response::sendToPeerCompleted</text>
</a>
</g>
</g>
<!-- Node19&#45;&gt;Node33 -->
<g id="edge35_Node000019_Node000033" class="edge">
<title>Node19&#45;&gt;Node33</title>
<g id="a_edge35_Node000019_Node000033"><a xlink:title=" ">
<path fill="none" stroke="#63b8ff" d="M1356.38,-236.87C1379.24,-226.49 1410.71,-212.67 1439,-201.92 1448.62,-198.26 1458.93,-194.63 1468.99,-191.23"/>
<polygon fill="#63b8ff" stroke="#63b8ff" points="1470.14,-194.54 1478.52,-188.06 1467.93,-187.9 1470.14,-194.54"/>
</a>
</g>
</g>
<!-- Node21 -->
<g id="Node000021" class="node">
<title>Node21</title>
<g id="a_Node000021"><a xlink:href="classweb_1_1http_1_1server_1_1Response.html#a4fae387fd1d11b86260f4572bfebfce2" target="_top" xlink:title=" ">
<polygon fill="white" stroke="#666666" points="1793,-391.92 1665,-391.92 1665,-361.92 1793,-361.92 1793,-391.92"/>
<text text-anchor="start" x="1673" y="-379.92" font-family="Helvetica,sans-Serif" font-size="10.00">web::http::server::</text>
<text text-anchor="middle" x="1729" y="-368.92" font-family="Helvetica,sans-Serif" font-size="10.00">Response::sendHeader</text>
</a>
</g>
</g>
<!-- Node20&#45;&gt;Node21 -->
<g id="edge21_Node000020_Node000021" class="edge">
<title>Node20&#45;&gt;Node21</title>
<g id="a_edge21_Node000020_Node000021"><a xlink:title=" ">
<path fill="none" stroke="#63b8ff" d="M1563.62,-304.05C1597.1,-318.89 1648.28,-341.57 1684.62,-357.69"/>
<polygon fill="#63b8ff" stroke="#63b8ff" points="1683.43,-360.99 1693.99,-361.84 1686.27,-354.59 1683.43,-360.99"/>
</a>
</g>
</g>
<!-- Node30 -->
<g id="Node000030" class="node">
<title>Node30</title>
<g id="a_Node000030"><a xlink:href="classweb_1_1http_1_1server_1_1RequestContextBase.html#a75e9f8daa736c9af15f9b784477fd216" target="_top" xlink:title=" ">
<polygon fill="white" stroke="#666666" points="1791.5,-285.42 1666.5,-285.42 1666.5,-244.42 1791.5,-244.42 1791.5,-285.42"/>
<text text-anchor="start" x="1674.5" y="-273.42" font-family="Helvetica,sans-Serif" font-size="10.00">web::http::server::</text>
<text text-anchor="start" x="1674.5" y="-262.42" font-family="Helvetica,sans-Serif" font-size="10.00">RequestContextBase::</text>
<text text-anchor="middle" x="1729" y="-251.42" font-family="Helvetica,sans-Serif" font-size="10.00">sendToPeer</text>
</a>
</g>
</g>
<!-- Node20&#45;&gt;Node30 -->
<g id="edge32_Node000020_Node000030" class="edge">
<title>Node20&#45;&gt;Node30</title>
<g id="a_edge32_Node000020_Node000030"><a xlink:title=" ">
<path fill="none" stroke="#63b8ff" d="M1598.65,-280.56C1617.33,-278.3 1637.59,-275.85 1656.4,-273.57"/>
<polygon fill="#63b8ff" stroke="#63b8ff" points="1656.88,-277.04 1666.39,-272.37 1656.04,-270.09 1656.88,-277.04"/>
</a>
</g>
</g>
<!-- Node21&#45;&gt;Node16 -->
<g id="edge24_Node000021_Node000016" class="edge">
<title>Node21&#45;&gt;Node16</title>
<g id="a_edge24_Node000021_Node000016"><a xlink:title=" ">
<path fill="none" stroke="#63b8ff" d="M1784.8,-391.92C1791.9,-395.62 1798.58,-400.22 1804,-405.92 1838.6,-442.25 1803.91,-478.06 1840,-512.92 1843.13,-515.94 1846.62,-518.58 1850.34,-520.89"/>
<polygon fill="#63b8ff" stroke="#63b8ff" points="1848.94,-524.11 1859.41,-525.71 1852.22,-517.92 1848.94,-524.11"/>
</a>
</g>
</g>
<!-- Node22 -->
<g id="Node000022" class="node">
<title>Node22</title>
<g id="a_Node000022"><a xlink:href="classweb_1_1http_1_1CookieOptions.html#a4be3fcbeb3b146110d45edadba1ddc08" target="_top" xlink:title=" ">
<polygon fill="white" stroke="#666666" points="1991.5,-503.92 1851.5,-503.92 1851.5,-473.92 1991.5,-473.92 1991.5,-503.92"/>
<text text-anchor="start" x="1859.5" y="-491.92" font-family="Helvetica,sans-Serif" font-size="10.00">web::http::CookieOptions</text>
<text text-anchor="middle" x="1921.5" y="-480.92" font-family="Helvetica,sans-Serif" font-size="10.00">::getOptions</text>
</a>
</g>
</g>
<!-- Node21&#45;&gt;Node22 -->
<g id="edge22_Node000021_Node000022" class="edge">
<title>Node21&#45;&gt;Node22</title>
<g id="a_edge22_Node000021_Node000022"><a xlink:title=" ">
<path fill="none" stroke="#63b8ff" d="M1781.41,-391.98C1789.48,-395.73 1797.34,-400.33 1804,-405.92 1827.53,-425.66 1815.66,-446.17 1840,-464.92 1841.83,-466.33 1843.74,-467.65 1845.72,-468.9"/>
<polygon fill="#63b8ff" stroke="#63b8ff" points="1844.3,-472.12 1854.75,-473.9 1847.69,-466 1844.3,-472.12"/>
</a>
</g>
</g>
<!-- Node23 -->
<g id="Node000023" class="node">
<title>Node23</title>
<g id="a_Node000023"><a xlink:href="classweb_1_1http_1_1CookieOptions.html#a93e39fac2e3beb0b97a485169479e2ea" target="_top" xlink:title=" ">
<polygon fill="white" stroke="#666666" points="1991.5,-455.92 1851.5,-455.92 1851.5,-425.92 1991.5,-425.92 1991.5,-455.92"/>
<text text-anchor="start" x="1859.5" y="-443.92" font-family="Helvetica,sans-Serif" font-size="10.00">web::http::CookieOptions</text>
<text text-anchor="middle" x="1921.5" y="-432.92" font-family="Helvetica,sans-Serif" font-size="10.00">::getValue</text>
</a>
</g>
</g>
<!-- Node21&#45;&gt;Node23 -->
<g id="edge23_Node000021_Node000023" class="edge">
<title>Node21&#45;&gt;Node23</title>
<g id="a_edge23_Node000021_Node000023"><a xlink:title=" ">
<path fill="none" stroke="#63b8ff" d="M1769.52,-391.93C1790.38,-399.69 1816.46,-409.14 1840,-416.92 1846,-418.9 1852.27,-420.9 1858.55,-422.85"/>
<polygon fill="#63b8ff" stroke="#63b8ff" points="1857.81,-426.28 1868.4,-425.87 1859.86,-419.59 1857.81,-426.28"/>
</a>
</g>
</g>
<!-- Node24 -->
<g id="Node000024" class="node">
<title>Node24</title>
<g id="a_Node000024"><a xlink:href="classweb_1_1http_1_1server_1_1Response.html#a428f61869432e01609dddc9c16b1d0ff" target="_top" xlink:title=" ">
<polygon fill="white" stroke="#666666" points="1991.5,-321.92 1851.5,-321.92 1851.5,-291.92 1991.5,-291.92 1991.5,-321.92"/>
<text text-anchor="start" x="1859.5" y="-309.92" font-family="Helvetica,sans-Serif" font-size="10.00">web::http::server::</text>
<text text-anchor="middle" x="1921.5" y="-298.92" font-family="Helvetica,sans-Serif" font-size="10.00">Response::sendResponse</text>
</a>
</g>
</g>
<!-- Node21&#45;&gt;Node24 -->
<g id="edge25_Node000021_Node000024" class="edge">
<title>Node21&#45;&gt;Node24</title>
<g id="a_edge25_Node000021_Node000024"><a xlink:title=" ">
<path fill="none" stroke="#63b8ff" d="M1763.34,-361.89C1784.96,-352.41 1813.88,-340.24 1840,-330.92 1845.54,-328.94 1851.34,-326.99 1857.17,-325.1"/>
<polygon fill="#63b8ff" stroke="#63b8ff" points="1858.5,-328.35 1866.98,-322 1856.39,-321.68 1858.5,-328.35"/>
</a>
</g>
</g>
<!-- Node25 -->
<g id="Node000025" class="node">
<title>Node25</title>
<g id="a_Node000025"><a xlink:href="classweb_1_1http_1_1server_1_1Response.html#a6f8d3d143f82fc3b48fe2d705e95a0c7" target="_top" xlink:title=" ">
<polygon fill="white" stroke="#666666" points="1974,-369.92 1869,-369.92 1869,-339.92 1974,-339.92 1974,-369.92"/>
<text text-anchor="start" x="1877" y="-357.92" font-family="Helvetica,sans-Serif" font-size="10.00">web::http::server::</text>
<text text-anchor="middle" x="1921.5" y="-346.92" font-family="Helvetica,sans-Serif" font-size="10.00">Response::set</text>
</a>
</g>
</g>
<!-- Node21&#45;&gt;Node25 -->
<g id="edge27_Node000021_Node000025" class="edge">
<title>Node21&#45;&gt;Node25</title>
<g id="a_edge27_Node000021_Node000025"><a xlink:title=" ">
<path fill="none" stroke="#63b8ff" d="M1793.17,-369.62C1814.3,-367.18 1837.81,-364.47 1858.82,-362.04"/>
<polygon fill="#63b8ff" stroke="#63b8ff" points="1859.38,-365.5 1868.92,-360.87 1858.58,-358.54 1859.38,-365.5"/>
</a>
</g>
</g>
<!-- Node27 -->
<g id="Node000027" class="node">
<title>Node27</title>
<g id="a_Node000027"><a xlink:href="namespacehttputils.html#ad53daa08390598493f3f4ae09164a60a" target="_top" xlink:title=" ">
<polygon fill="white" stroke="#666666" points="1984,-407.42 1859,-407.42 1859,-388.42 1984,-388.42 1984,-407.42"/>
<text text-anchor="middle" x="1921.5" y="-395.42" font-family="Helvetica,sans-Serif" font-size="10.00">httputils::to_http_date</text>
</a>
</g>
</g>
<!-- Node21&#45;&gt;Node27 -->
<g id="edge29_Node000021_Node000027" class="edge">
<title>Node21&#45;&gt;Node27</title>
<g id="a_edge29_Node000021_Node000027"><a xlink:title=" ">
<path fill="none" stroke="#63b8ff" d="M1793.17,-383.88C1810.99,-385.85 1830.5,-388 1848.79,-390.01"/>
<polygon fill="#63b8ff" stroke="#63b8ff" points="1848.47,-393.5 1858.8,-391.12 1849.24,-386.54 1848.47,-393.5"/>
</a>
</g>
</g>
<!-- Node24&#45;&gt;Node20 -->
<g id="edge26_Node000024_Node000020" class="edge">
<title>Node24&#45;&gt;Node20</title>
<g id="a_edge26_Node000024_Node000020"><a xlink:title=" ">
<path fill="none" stroke="#63b8ff" d="M1851.2,-303.73C1783.29,-300.6 1679.9,-295.84 1608.76,-292.57"/>
<polygon fill="#63b8ff" stroke="#63b8ff" points="1608.65,-289.06 1598.5,-292.09 1608.33,-296.05 1608.65,-289.06"/>
</a>
</g>
</g>
<!-- Node25&#45;&gt;Node26 -->
<g id="edge28_Node000025_Node000026" class="edge">
<title>Node25&#45;&gt;Node26</title>
<g id="a_edge28_Node000025_Node000026"><a xlink:title=" ">
<path fill="none" stroke="#63b8ff" d="M1974.23,-346.97C1984.69,-343.43 1994.94,-338.31 2003,-330.92 2035.06,-301.53 2006.57,-268.9 2039,-239.92 2046.74,-233 2056.27,-228.05 2066.18,-224.52"/>
<polygon fill="#63b8ff" stroke="#63b8ff" points="2067.25,-227.85 2075.76,-221.54 2065.17,-221.17 2067.25,-227.85"/>
</a>
</g>
</g>
<!-- Node28 -->
<g id="Node000028" class="node">
<title>Node28</title>
<g id="a_Node000028"><a xlink:href="namespaceutils_1_1system.html#a629a1ebec50192eff5587cdd5d51bf20" target="_top" xlink:title=" ">
<polygon fill="white" stroke="#666666" points="2190.5,-425.42 2066.5,-425.42 2066.5,-406.42 2190.5,-406.42 2190.5,-425.42"/>
<text text-anchor="middle" x="2128.5" y="-413.42" font-family="Helvetica,sans-Serif" font-size="10.00">utils::system::gmtime</text>
</a>
</g>
</g>
<!-- Node27&#45;&gt;Node28 -->
<g id="edge30_Node000027_Node000028" class="edge">
<title>Node27&#45;&gt;Node28</title>
<g id="a_edge30_Node000027_Node000028"><a xlink:title=" ">
<path fill="none" stroke="#63b8ff" d="M1984.01,-403.32C2006.71,-405.31 2032.63,-407.59 2056.13,-409.65"/>
<polygon fill="#63b8ff" stroke="#63b8ff" points="2056.12,-413.16 2066.39,-410.55 2056.73,-406.19 2056.12,-413.16"/>
</a>
</g>
</g>
<!-- Node29 -->
<g id="Node000029" class="node">
<title>Node29</title>
<g id="a_Node000029"><a xlink:href="namespaceutils_1_1system.html#aa36252afed0ca4903feb511649270d1c" target="_top" xlink:title=" ">
<polygon fill="white" stroke="#666666" points="2182.5,-388.42 2074.5,-388.42 2074.5,-369.42 2182.5,-369.42 2182.5,-388.42"/>
<text text-anchor="middle" x="2128.5" y="-376.42" font-family="Helvetica,sans-Serif" font-size="10.00">utils::system::time</text>
</a>
</g>
</g>
<!-- Node27&#45;&gt;Node29 -->
<g id="edge31_Node000027_Node000029" class="edge">
<title>Node27&#45;&gt;Node29</title>
<g id="a_edge31_Node000027_Node000029"><a xlink:title=" ">
<path fill="none" stroke="#63b8ff" d="M1984.01,-392.22C2009.41,-389.86 2038.84,-387.13 2064.41,-384.77"/>
<polygon fill="#63b8ff" stroke="#63b8ff" points="2064.73,-388.25 2074.37,-383.84 2064.09,-381.28 2064.73,-388.25"/>
</a>
</g>
</g>
<!-- Node31 -->
<g id="Node000031" class="node">
<title>Node31</title>
<g id="a_Node000031"><a xlink:href="classcore_1_1socket_1_1stream_1_1SocketContext.html#a7ab4e5580dbb64d509ffe2573205c600" target="_top" xlink:title=" ">
<polygon fill="white" stroke="#666666" points="1999,-273.92 1844,-273.92 1844,-243.92 1999,-243.92 1999,-273.92"/>
<text text-anchor="start" x="1852" y="-261.92" font-family="Helvetica,sans-Serif" font-size="10.00">core::socket::stream</text>
<text text-anchor="middle" x="1921.5" y="-250.92" font-family="Helvetica,sans-Serif" font-size="10.00">::SocketContext::sendToPeer</text>
</a>
</g>
</g>
<!-- Node30&#45;&gt;Node31 -->
<g id="edge33_Node000030_Node000031" class="edge">
<title>Node30&#45;&gt;Node31</title>
<g id="a_edge33_Node000030_Node000031"><a xlink:title=" ">
<path fill="none" stroke="#63b8ff" d="M1791.59,-262.98C1804.97,-262.56 1819.37,-262.1 1833.53,-261.66"/>
<polygon fill="#63b8ff" stroke="#63b8ff" points="1833.89,-265.15 1843.77,-261.33 1833.67,-258.15 1833.89,-265.15"/>
</a>
</g>
</g>
<!-- Node32 -->
<g id="Node000032" class="node">
<title>Node32</title>
<g id="a_Node000032"><a xlink:href="classcore_1_1socket_1_1stream_1_1SocketConnection.html#a8562a65ddd381e8a5c3360d12064b0ac" target="_top" xlink:title=" ">
<polygon fill="white" stroke="#666666" points="2214,-278.92 2043,-278.92 2043,-248.92 2214,-248.92 2214,-278.92"/>
<text text-anchor="start" x="2051" y="-266.92" font-family="Helvetica,sans-Serif" font-size="10.00">core::socket::stream</text>
<text text-anchor="middle" x="2128.5" y="-255.92" font-family="Helvetica,sans-Serif" font-size="10.00">::SocketConnection::sendToPeer</text>
</a>
</g>
</g>
<!-- Node31&#45;&gt;Node32 -->
<g id="edge34_Node000031_Node000032" class="edge">
<title>Node31&#45;&gt;Node32</title>
<g id="a_edge34_Node000031_Node000032"><a xlink:title=" ">
<path fill="none" stroke="#63b8ff" d="M1999.13,-260.79C2010.01,-261.05 2021.31,-261.33 2032.49,-261.6"/>
<polygon fill="#63b8ff" stroke="#63b8ff" points="2032.63,-265.1 2042.71,-261.85 2032.8,-258.11 2032.63,-265.1"/>
</a>
</g>
</g>
<!-- Node34 -->
<g id="Node000034" class="node">
<title>Node34</title>
<g id="a_Node000034"><a xlink:href="classweb_1_1http_1_1server_1_1RequestContextBase.html#a4f00d26b05063a3f91a13a4e3f83023d" target="_top" xlink:title=" ">
<polygon fill="white" stroke="#666666" points="1804,-187.92 1654,-187.92 1654,-157.92 1804,-157.92 1804,-187.92"/>
<text text-anchor="start" x="1662" y="-175.92" font-family="Helvetica,sans-Serif" font-size="10.00">web::http::server::</text>
<text text-anchor="middle" x="1729" y="-164.92" font-family="Helvetica,sans-Serif" font-size="10.00">RequestContextBase::close</text>
</a>
</g>
</g>
<!-- Node33&#45;&gt;Node34 -->
<g id="edge36_Node000033_Node000034" class="edge">
<title>Node33&#45;&gt;Node34</title>
<g id="a_edge36_Node000033_Node000034"><a xlink:title=" ">
<path fill="none" stroke="#63b8ff" d="M1618.01,-172.92C1626.54,-172.92 1635.17,-172.92 1643.65,-172.92"/>
<polygon fill="#63b8ff" stroke="#63b8ff" points="1643.91,-176.42 1653.91,-172.92 1643.91,-169.42 1643.91,-176.42"/>
</a>
</g>
</g>
<!-- Node37 -->
<g id="Node000037" class="node">
<title>Node37</title>
<g id="a_Node000037"><a xlink:href="classweb_1_1http_1_1server_1_1RequestContextBase.html#a0d34bccc21c1e0139345d8a59520c8cb" target="_top" xlink:title=" ">
<polygon fill="white" stroke="#666666" points="1791.5,-139.42 1666.5,-139.42 1666.5,-98.42 1791.5,-98.42 1791.5,-139.42"/>
<text text-anchor="start" x="1674.5" y="-127.42" font-family="Helvetica,sans-Serif" font-size="10.00">web::http::server::</text>
<text text-anchor="start" x="1674.5" y="-116.42" font-family="Helvetica,sans-Serif" font-size="10.00">RequestContextBase::</text>
<text text-anchor="middle" x="1729" y="-105.42" font-family="Helvetica,sans-Serif" font-size="10.00">sendToPeerCompleted</text>
</a>
</g>
</g>
<!-- Node33&#45;&gt;Node37 -->
<g id="edge39_Node000033_Node000037" class="edge">
<title>Node33&#45;&gt;Node37</title>
<g id="a_edge39_Node000033_Node000037"><a xlink:title=" ">
<path fill="none" stroke="#63b8ff" d="M1584.79,-157.88C1606.98,-151.84 1632.83,-144.81 1656.42,-138.39"/>
<polygon fill="#63b8ff" stroke="#63b8ff" points="1657.64,-141.68 1666.37,-135.68 1655.8,-134.93 1657.64,-141.68"/>
</a>
</g>
</g>
<!-- Node35 -->
<g id="Node000035" class="node">
<title>Node35</title>
<g id="a_Node000035"><a xlink:href="classcore_1_1socket_1_1stream_1_1SocketContext.html#a47b23b8583dfd3880232e748f284f380" target="_top" xlink:title=" ">
<polygon fill="white" stroke="#666666" points="1984,-187.92 1859,-187.92 1859,-157.92 1984,-157.92 1984,-187.92"/>
<text text-anchor="start" x="1867" y="-175.92" font-family="Helvetica,sans-Serif" font-size="10.00">core::socket::stream</text>
<text text-anchor="middle" x="1921.5" y="-164.92" font-family="Helvetica,sans-Serif" font-size="10.00">::SocketContext::close</text>
</a>
</g>
</g>
<!-- Node34&#45;&gt;Node35 -->
<g id="edge37_Node000034_Node000035" class="edge">
<title>Node34&#45;&gt;Node35</title>
<g id="a_edge37_Node000034_Node000035"><a xlink:title=" ">
<path fill="none" stroke="#63b8ff" d="M1804.2,-172.92C1818.74,-172.92 1833.97,-172.92 1848.45,-172.92"/>
<polygon fill="#63b8ff" stroke="#63b8ff" points="1848.83,-176.42 1858.83,-172.92 1848.83,-169.42 1848.83,-176.42"/>
</a>
</g>
</g>
<!-- Node36 -->
<g id="Node000036" class="node">
<title>Node36</title>
<g id="a_Node000036"><a xlink:href="classcore_1_1socket_1_1stream_1_1SocketConnection.html#aed398e81ede92d1d1cfae2597580ad2c" target="_top" xlink:title=" ">
<polygon fill="white" stroke="#666666" points="2199,-182.92 2058,-182.92 2058,-152.92 2199,-152.92 2199,-182.92"/>
<text text-anchor="start" x="2066" y="-170.92" font-family="Helvetica,sans-Serif" font-size="10.00">core::socket::stream</text>
<text text-anchor="middle" x="2128.5" y="-159.92" font-family="Helvetica,sans-Serif" font-size="10.00">::SocketConnection::close</text>
</a>
</g>
</g>
<!-- Node35&#45;&gt;Node36 -->
<g id="edge38_Node000035_Node000036" class="edge">
<title>Node35&#45;&gt;Node36</title>
<g id="a_edge38_Node000035_Node000036"><a xlink:title=" ">
<path fill="none" stroke="#63b8ff" d="M1984.01,-171.42C2003.97,-170.93 2026.42,-170.38 2047.53,-169.87"/>
<polygon fill="#63b8ff" stroke="#63b8ff" points="2047.86,-173.36 2057.77,-169.62 2047.69,-166.36 2047.86,-173.36"/>
</a>
</g>
</g>
<!-- Node38 -->
<g id="Node000038" class="node">
<title>Node38</title>
<g id="a_Node000038"><a xlink:href="classweb_1_1http_1_1SocketContext.html#a3d37b0a17a47ce6c9ebf96900bfe2a74" target="_top" xlink:title=" ">
<polygon fill="white" stroke="#666666" points="1991,-139.92 1852,-139.92 1852,-109.92 1991,-109.92 1991,-139.92"/>
<text text-anchor="start" x="1860" y="-127.92" font-family="Helvetica,sans-Serif" font-size="10.00">web::http::SocketContext</text>
<text text-anchor="middle" x="1921.5" y="-116.92" font-family="Helvetica,sans-Serif" font-size="10.00">::sendToPeerCompleted</text>
</a>
</g>
</g>
<!-- Node37&#45;&gt;Node38 -->
<g id="edge40_Node000037_Node000038" class="edge">
<title>Node37&#45;&gt;Node38</title>
<g id="a_edge40_Node000037_Node000038"><a xlink:title=" ">
<path fill="none" stroke="#63b8ff" d="M1791.59,-120.86C1807.52,-121.36 1824.9,-121.91 1841.58,-122.43"/>
<polygon fill="#63b8ff" stroke="#63b8ff" points="1841.76,-125.94 1851.87,-122.76 1841.98,-118.94 1841.76,-125.94"/>
</a>
</g>
</g>
<!-- Node39 -->
<g id="Node000039" class="node">
<title>Node39</title>
<g id="a_Node000039"><a xlink:href="classcore_1_1socket_1_1stream_1_1SocketContext.html#a153fd05f8c588f882b322dcbd47667b4" target="_top" xlink:title=" ">
<polygon fill="white" stroke="#666666" points="2003,-91.42 1840,-91.42 1840,-50.42 2003,-50.42 2003,-91.42"/>
<text text-anchor="start" x="1848" y="-79.42" font-family="Helvetica,sans-Serif" font-size="10.00">core::socket::stream</text>
<text text-anchor="start" x="1848" y="-68.42" font-family="Helvetica,sans-Serif" font-size="10.00">::SocketContext::switchSocket</text>
<text text-anchor="middle" x="1921.5" y="-57.42" font-family="Helvetica,sans-Serif" font-size="10.00">Context</text>
</a>
</g>
</g>
<!-- Node37&#45;&gt;Node39 -->
<g id="edge41_Node000037_Node000039" class="edge">
<title>Node37&#45;&gt;Node39</title>
<g id="a_edge41_Node000037_Node000039"><a xlink:title=" ">
<path fill="none" stroke="#63b8ff" d="M1791.59,-103.4C1803.8,-100.32 1816.86,-97.03 1829.81,-93.77"/>
<polygon fill="#63b8ff" stroke="#63b8ff" points="1830.83,-97.12 1839.68,-91.28 1829.12,-90.33 1830.83,-97.12"/>
</a>
</g>
</g>
<!-- Node40 -->
<g id="Node000040" class="node">
<title>Node40</title>
<g id="a_Node000040"><a xlink:href="classcore_1_1socket_1_1stream_1_1SocketConnection.html#a1f0ce3db26b4f317837b294418b3ee33" target="_top" xlink:title=" ">
<polygon fill="white" stroke="#666666" points="2218,-91.42 2039,-91.42 2039,-50.42 2218,-50.42 2218,-91.42"/>
<text text-anchor="start" x="2047" y="-79.42" font-family="Helvetica,sans-Serif" font-size="10.00">core::socket::stream</text>
<text text-anchor="start" x="2047" y="-68.42" font-family="Helvetica,sans-Serif" font-size="10.00">::SocketConnection::switchSocket</text>
<text text-anchor="middle" x="2128.5" y="-57.42" font-family="Helvetica,sans-Serif" font-size="10.00">Context</text>
</a>
</g>
</g>
<!-- Node39&#45;&gt;Node40 -->
<g id="edge42_Node000039_Node000040" class="edge">
<title>Node39&#45;&gt;Node40</title>
<g id="a_edge42_Node000039_Node000040"><a xlink:title=" ">
<path fill="none" stroke="#63b8ff" d="M2003.23,-70.92C2011.51,-70.92 2019.99,-70.92 2028.45,-70.92"/>
<polygon fill="#63b8ff" stroke="#63b8ff" points="2028.73,-74.42 2038.73,-70.92 2028.73,-67.42 2028.73,-74.42"/>
</a>
</g>
</g>
</g>
</svg>
