<?xml version="1.0" encoding="UTF-8" standalone="no"?>
<!DOCTYPE svg PUBLIC "-//W3C//DTD SVG 1.1//EN"
 "http://www.w3.org/Graphics/SVG/1.1/DTD/svg11.dtd">
<!-- Generated by graphviz version 14.1.2 (0)
 -->
<!-- Title: iot::mqtt_fast::packets::Suback::Suback Pages: 1 -->
<!--zoomable 146 -->

<svg id="main" version="1.1" xmlns="http://www.w3.org/2000/svg" xmlns:xlink="http://www.w3.org/1999/xlink" xml:space="preserve" onload="init(evt)">

<style type="text/css"><![CDATA[
.node, .edge {opacity: 0.7;}
.node.selected, .edge.selected {opacity: 1;}
.edge:hover path { stroke: red; }
.edge:hover polygon { stroke: red; fill: red; }
]]></style>

<defs>
  <circle id="rim" cx="0" cy="0" r="7"/>
  <circle id="rim2" cx="0" cy="0" r="3.5"/>
  <g id="zoomPlus">
    <use xlink:href="#rim" fill="#404040"><set attributeName="fill" to="#808080" begin="zoomplus.mouseover" end="zoomplus.mouseout"/></use>
    <path d="M-4,0h8M0,-4v8" fill="none" stroke="white" stroke-width="1.5" pointer-events="none"/>
  </g>
  <g id="zoomMin">
    <use xlink:href="#rim" fill="#404040"><set attributeName="fill" to="#808080" begin="zoomminus.mouseover" end="zoomminus.mouseout"/></use>
    <path d="M-4,0h8" fill="none" stroke="white" stroke-width="1.5" pointer-events="none"/>
  </g>
  <g id="arrowUp" transform="translate(30 24)">
    <use xlink:href="#rim"/>
    <path pointer-events="none" fill="none" stroke="white" stroke-width="1.5" d="M0,-3.0v7 M-2.5,-0.5L0,-3.0L2.5,-0.5"/>
  </g>
  <g id="arrowRight" transform="rotate(90) translate(36 -43)">
    <use xlink:href="#rim"/>
    <path pointer-events="none" fill="none" stroke="white" stroke-width="1.5" d="M0,-3.0v7 M-2.5,-0.5L0,-3.0L2.5,-0.5"/>
  </g>
  <g id="arrowDown" transform="rotate(180) translate(-30 -48)">
    <use xlink:href="#rim"/>
    <path pointer-events="none" fill="none" stroke="white" stroke-width="1.5" d="M0,-3.0v7 M-2.5,-0.5L0,-3.0L2.5,-0.5"/>
  </g>
  <g id="arrowLeft" transform="rotate(270) translate(-36 17)">
    <use xlink:href="#rim"/>
    <path pointer-events="none" fill="none" stroke="white" stroke-width="1.5" d="M0,-3.0v7 M-2.5,-0.5L0,-3.0L2.5,-0.5"/>
  </g>
  <g id="resetDef">
    <use xlink:href="#rim2" fill="#404040"><set attributeName="fill" to="#808080" begin="reset.mouseover" end="reset.mouseout"/></use>
  </g>
</defs>
<script type="application/ecmascript">
var viewWidth = 651;
var viewHeight = 146;
var sectionId = 'dynsection-2';
</script>
<script type="application/ecmascript" xlink:href="svg.min.js"/>
<svg id="graph" class="graph">
<g id="viewport">
<title>iot::mqtt_fast::packets::Suback::Suback</title>
<!-- Node1 -->
<g id="Node000001" class="node">
<title>Node1</title>
<g id="a_Node000001"><a xlink:title=" ">
<polygon fill="#999999" stroke="#666666" points="125.5,-85.5 0,-85.5 0,-52 125.5,-52 125.5,-85.5"/>
<text xml:space="preserve" text-anchor="start" x="8" y="-72" font-family="Helvetica,sans-Serif" font-size="10.00">iot::mqtt_fast::packets</text>
<text xml:space="preserve" text-anchor="middle" x="62.75" y="-59.25" font-family="Helvetica,sans-Serif" font-size="10.00">::Suback::Suback</text>
</a>
</g>
</g>
<!-- Node2 -->
<g id="Node000002" class="node">
<title>Node2</title>
<g id="a_Node000002"><a xlink:href="classiot_1_1mqtt__fast_1_1ControlPacket.html#a88eb4b316f38e466d7a6c90ce24153ff" target="_top" xlink:title=" ">
<polygon fill="white" stroke="#666666" points="317,-137.5 161.5,-137.5 161.5,-104 317,-104 317,-137.5"/>
<text xml:space="preserve" text-anchor="start" x="169.5" y="-124" font-family="Helvetica,sans-Serif" font-size="10.00">iot::mqtt_fast::ControlPacket</text>
<text xml:space="preserve" text-anchor="middle" x="239.25" y="-111.25" font-family="Helvetica,sans-Serif" font-size="10.00">::ControlPacket</text>
</a>
</g>
</g>
<!-- Node1&#45;&gt;Node2 -->
<g id="edge1_Node000001_Node000002" class="edge">
<title>Node1&#45;&gt;Node2</title>
<g id="a_edge1_Node000001_Node000002"><a xlink:title=" ">
<path fill="none" stroke="#63b8ff" d="M121.37,-85.92C136.78,-90.51 153.58,-95.52 169.52,-100.27"/>
<polygon fill="#63b8ff" stroke="#63b8ff" points="168.36,-103.57 178.94,-103.08 170.36,-96.87 168.36,-103.57"/>
</a>
</g>
</g>
<!-- Node3 -->
<g id="Node000003" class="node">
<title>Node3</title>
<g id="a_Node000003"><a xlink:href="classiot_1_1mqtt__fast_1_1ControlPacket.html#a68489018481e5e672b28b242cb9c71f8" target="_top" xlink:title=" ">
<polygon fill="white" stroke="#666666" points="317,-85.5 161.5,-85.5 161.5,-52 317,-52 317,-85.5"/>
<text xml:space="preserve" text-anchor="start" x="169.5" y="-72" font-family="Helvetica,sans-Serif" font-size="10.00">iot::mqtt_fast::ControlPacket</text>
<text xml:space="preserve" text-anchor="middle" x="239.25" y="-59.25" font-family="Helvetica,sans-Serif" font-size="10.00">::putInt16</text>
</a>
</g>
</g>
<!-- Node1&#45;&gt;Node3 -->
<g id="edge2_Node000001_Node000003" class="edge">
<title>Node1&#45;&gt;Node3</title>
<g id="a_edge2_Node000001_Node000003"><a xlink:title=" ">
<path fill="none" stroke="#63b8ff" d="M125.76,-68.75C133.55,-68.75 141.64,-68.75 149.74,-68.75"/>
<polygon fill="#63b8ff" stroke="#63b8ff" points="149.65,-72.25 159.65,-68.75 149.65,-65.25 149.65,-72.25"/>
</a>
</g>
</g>
<!-- Node5 -->
<g id="Node000005" class="node">
<title>Node5</title>
<g id="a_Node000005"><a xlink:href="classiot_1_1mqtt__fast_1_1ControlPacket.html#ad3af70877b662b88f63a7b236b88ffed" target="_top" xlink:title=" ">
<polygon fill="white" stroke="#666666" points="317,-33.5 161.5,-33.5 161.5,0 317,0 317,-33.5"/>
<text xml:space="preserve" text-anchor="start" x="169.5" y="-20" font-family="Helvetica,sans-Serif" font-size="10.00">iot::mqtt_fast::ControlPacket</text>
<text xml:space="preserve" text-anchor="middle" x="239.25" y="-7.25" font-family="Helvetica,sans-Serif" font-size="10.00">::putUint8ListRaw</text>
</a>
</g>
</g>
<!-- Node1&#45;&gt;Node5 -->
<g id="edge4_Node000001_Node000005" class="edge">
<title>Node1&#45;&gt;Node5</title>
<g id="a_edge4_Node000001_Node000005"><a xlink:title=" ">
<path fill="none" stroke="#63b8ff" d="M121.37,-51.58C136.78,-46.99 153.58,-41.98 169.52,-37.23"/>
<polygon fill="#63b8ff" stroke="#63b8ff" points="170.36,-40.63 178.94,-34.42 168.36,-33.93 170.36,-40.63"/>
</a>
</g>
</g>
<!-- Node4 -->
<g id="Node000004" class="node">
<title>Node4</title>
<g id="a_Node000004"><a xlink:href="classiot_1_1mqtt__fast_1_1types_1_1Binary.html#af8e71e490efa99c2387deab66fb6ad86" target="_top" xlink:title=" ">
<polygon fill="white" stroke="#666666" points="480,-85.5 365,-85.5 365,-52 480,-52 480,-85.5"/>
<text xml:space="preserve" text-anchor="start" x="373" y="-72" font-family="Helvetica,sans-Serif" font-size="10.00">iot::mqtt_fast::types</text>
<text xml:space="preserve" text-anchor="middle" x="422.5" y="-59.25" font-family="Helvetica,sans-Serif" font-size="10.00">::Binary::putInt16</text>
</a>
</g>
</g>
<!-- Node3&#45;&gt;Node4 -->
<g id="edge3_Node000003_Node000004" class="edge">
<title>Node3&#45;&gt;Node4</title>
<g id="a_edge3_Node000003_Node000004"><a xlink:title=" ">
<path fill="none" stroke="#63b8ff" d="M317.38,-68.75C329.3,-68.75 341.54,-68.75 353.26,-68.75"/>
<polygon fill="#63b8ff" stroke="#63b8ff" points="353.24,-72.25 363.24,-68.75 353.24,-65.25 353.24,-72.25"/>
</a>
</g>
</g>
<!-- Node6 -->
<g id="Node000006" class="node">
<title>Node6</title>
<g id="a_Node000006"><a xlink:href="classiot_1_1mqtt__fast_1_1types_1_1Binary.html#a18ac72a3555a22fd707bd2373a8e37a7" target="_top" xlink:title=" ">
<polygon fill="white" stroke="#666666" points="492,-33.5 353,-33.5 353,0 492,0 492,-33.5"/>
<text xml:space="preserve" text-anchor="start" x="361" y="-20" font-family="Helvetica,sans-Serif" font-size="10.00">iot::mqtt_fast::types</text>
<text xml:space="preserve" text-anchor="middle" x="422.5" y="-7.25" font-family="Helvetica,sans-Serif" font-size="10.00">::Binary::putUint8ListRaw</text>
</a>
</g>
</g>
<!-- Node5&#45;&gt;Node6 -->
<g id="edge5_Node000005_Node000006" class="edge">
<title>Node5&#45;&gt;Node6</title>
<g id="a_edge5_Node000005_Node000006"><a xlink:title=" ">
<path fill="none" stroke="#63b8ff" d="M317.38,-16.75C325.28,-16.75 333.31,-16.75 341.24,-16.75"/>
<polygon fill="#63b8ff" stroke="#63b8ff" points="341.24,-20.25 351.24,-16.75 341.24,-13.25 341.24,-20.25"/>
</a>
</g>
</g>
<!-- Node7 -->
<g id="Node000007" class="node">
<title>Node7</title>
<g id="a_Node000007"><a xlink:href="classiot_1_1mqtt__fast_1_1types_1_1Binary.html#a5d4733bdcf86dc7c44716864e147d63d" target="_top" xlink:title=" ">
<polygon fill="white" stroke="#666666" points="643,-33.5 528,-33.5 528,0 643,0 643,-33.5"/>
<text xml:space="preserve" text-anchor="start" x="536" y="-20" font-family="Helvetica,sans-Serif" font-size="10.00">iot::mqtt_fast::types</text>
<text xml:space="preserve" text-anchor="middle" x="585.5" y="-7.25" font-family="Helvetica,sans-Serif" font-size="10.00">::Binary::putInt8</text>
</a>
</g>
</g>
<!-- Node6&#45;&gt;Node7 -->
<g id="edge6_Node000006_Node000007" class="edge">
<title>Node6&#45;&gt;Node7</title>
<g id="a_edge6_Node000006_Node000007"><a xlink:title=" ">
<path fill="none" stroke="#63b8ff" d="M492.25,-16.75C500.17,-16.75 508.25,-16.75 516.17,-16.75"/>
<polygon fill="#63b8ff" stroke="#63b8ff" points="516.11,-20.25 526.11,-16.75 516.11,-13.25 516.11,-20.25"/>
</a>
</g>
</g>
</g>
</svg>

<g id="navigator" transform="translate(0 0)" fill="#404254">
  <rect fill="#f2f5e9" fill-opacity="0.5" stroke="#606060" stroke-width=".5" x="0" y="0" width="60" height="60"/>
  <use id="zoomplus" xlink:href="#zoomPlus" x="17" y="9" onmousedown="handleZoom(evt,'in')"/>
  <use id="zoomminus" xlink:href="#zoomMin" x="42" y="9" onmousedown="handleZoom(evt,'out')"/>
  <use id="reset" xlink:href="#resetDef" x="30" y="36" onmousedown="handleReset()"/>
   <use id="arrowup" xlink:href="#arrowUp" x="0" y="0" onmousedown="handlePan(0,-1)"/>
  <use id="arrowright" xlink:href="#arrowRight" x="0" y="0" onmousedown="handlePan(1,0)"/>
  <use id="arrowdown" xlink:href="#arrowDown" x="0" y="0" onmousedown="handlePan(0,1)"/>
  <use id="arrowleft" xlink:href="#arrowLeft" x="0" y="0" onmousedown="handlePan(-1,0)"/>
</g>
<svg viewBox="0 0 15 15" width="100%" height="30px" preserveAspectRatio="xMaxYMin meet">
 <g id="arrow_out" transform="scale(0.3 0.3)">
  <a xlink:href="classiot_1_1mqtt__fast_1_1packets_1_1Suback_abb78cc49a9a05bf193cfa4800a91ddd0_cgraph_org.svg" target="_base">
   <rect id="button" ry="5" rx="5" y="6" x="6" height="38" width="38"
        fill="#f2f5e9" fill-opacity="0.5" stroke="#606060" stroke-width="1.0"/>
   <path id="arrow"
     d="M 11.500037,31.436501 C 11.940474,20.09759 22.043105,11.32322 32.158766,21.979434 L 37.068811,17.246167 C 37.068811,17.246167 37.088388,32 37.088388,32 L 22.160133,31.978069 C 22.160133,31.978069 26.997745,27.140456 26.997745,27.140456 C 18.528582,18.264221 13.291696,25.230495 11.500037,31.436501 z"
     style="fill:#404040;"/>
  </a>
 </g>
</svg>

<style type='text/css'>
<![CDATA[
[data-mouse-over-selected='false'] { opacity: 0.7; }
[data-mouse-over-selected='true']  { opacity: 1.0; }
]]>
</style>
<script type="application/ecmascript"><![CDATA[
document.addEventListener('DOMContentLoaded', (event) => {
  highlightEdges();
  highlightAdjacentNodes();
});
]]></script>
</svg>
