<?xml version="1.0" encoding="UTF-8" standalone="no"?>
<!DOCTYPE svg PUBLIC "-//W3C//DTD SVG 1.1//EN"
 "http://www.w3.org/Graphics/SVG/1.1/DTD/svg11.dtd">
<!-- Generated by graphviz version 14.1.2 (0)
 -->
<!-- Title: utils::SubCommand::required Pages: 1 -->
<!--zoomable 170 -->

<svg id="main" version="1.1" xmlns="http://www.w3.org/2000/svg" xmlns:xlink="http://www.w3.org/1999/xlink" xml:space="preserve" onload="init(evt)">

<style type="text/css"><![CDATA[
.node, .edge {opacity: 0.7;}
.node.selected, .edge.selected {opacity: 1;}
.edge:hover path { stroke: red; }
.edge:hover polygon { stroke: red; fill: red; }
]]></style>

<defs>
  <circle id="rim" cx="0" cy="0" r="7"/>
  <circle id="rim2" cx="0" cy="0" r="3.5"/>
  <g id="zoomPlus">
    <use xlink:href="#rim" fill="#404040"><set attributeName="fill" to="#808080" begin="zoomplus.mouseover" end="zoomplus.mouseout"/></use>
    <path d="M-4,0h8M0,-4v8" fill="none" stroke="white" stroke-width="1.5" pointer-events="none"/>
  </g>
  <g id="zoomMin">
    <use xlink:href="#rim" fill="#404040"><set attributeName="fill" to="#808080" begin="zoomminus.mouseover" end="zoomminus.mouseout"/></use>
    <path d="M-4,0h8" fill="none" stroke="white" stroke-width="1.5" pointer-events="none"/>
  </g>
  <g id="arrowUp" transform="translate(30 24)">
    <use xlink:href="#rim"/>
    <path pointer-events="none" fill="none" stroke="white" stroke-width="1.5" d="M0,-3.0v7 M-2.5,-0.5L0,-3.0L2.5,-0.5"/>
  </g>
  <g id="arrowRight" transform="rotate(90) translate(36 -43)">
    <use xlink:href="#rim"/>
    <path pointer-events="none" fill="none" stroke="white" stroke-width="1.5" d="M0,-3.0v7 M-2.5,-0.5L0,-3.0L2.5,-0.5"/>
  </g>
  <g id="arrowDown" transform="rotate(180) translate(-30 -48)">
    <use xlink:href="#rim"/>
    <path pointer-events="none" fill="none" stroke="white" stroke-width="1.5" d="M0,-3.0v7 M-2.5,-0.5L0,-3.0L2.5,-0.5"/>
  </g>
  <g id="arrowLeft" transform="rotate(270) translate(-36 17)">
    <use xlink:href="#rim"/>
    <path pointer-events="none" fill="none" stroke="white" stroke-width="1.5" d="M0,-3.0v7 M-2.5,-0.5L0,-3.0L2.5,-0.5"/>
  </g>
  <g id="resetDef">
    <use xlink:href="#rim2" fill="#404040"><set attributeName="fill" to="#808080" begin="reset.mouseover" end="reset.mouseout"/></use>
  </g>
</defs>
<script type="application/ecmascript">
var viewWidth = 617;
var viewHeight = 170;
var sectionId = 'dynsection-45';
</script>
<script type="application/ecmascript" xlink:href="svg.min.js"/>
<svg id="graph" class="graph">
<g id="viewport">
<title>utils::SubCommand::required</title>
<!-- Node1 -->
<g id="Node000001" class="node">
<title>Node1</title>
<g id="a_Node000001"><a xlink:title=" ">
<polygon fill="#999999" stroke="#666666" points="608.5,-100.5 491.25,-100.5 491.25,-67 608.5,-67 608.5,-100.5"/>
<text xml:space="preserve" text-anchor="start" x="499.25" y="-87" font-family="Helvetica,sans-Serif" font-size="10.00">utils::SubCommand::</text>
<text xml:space="preserve" text-anchor="middle" x="549.88" y="-74.25" font-family="Helvetica,sans-Serif" font-size="10.00">required</text>
</a>
</g>
</g>
<!-- Node2 -->
<g id="Node000002" class="node">
<title>Node2</title>
<g id="a_Node000002"><a xlink:href="classutils_1_1SubCommand.html#a1c4830f530e6b8e5a8117b5a9ba11066" target="_top" xlink:title=" ">
<polygon fill="white" stroke="#666666" points="455.25,-100.5 338,-100.5 338,-67 455.25,-67 455.25,-100.5"/>
<text xml:space="preserve" text-anchor="start" x="346" y="-87" font-family="Helvetica,sans-Serif" font-size="10.00">utils::SubCommand::</text>
<text xml:space="preserve" text-anchor="middle" x="396.62" y="-74.25" font-family="Helvetica,sans-Serif" font-size="10.00">required</text>
</a>
</g>
</g>
<!-- Node1&#45;&gt;Node2 -->
<g id="edge1_Node000001_Node000002" class="edge">
<title>Node1&#45;&gt;Node2</title>
<g id="a_edge1_Node000001_Node000002"><a xlink:title=" ">
<path fill="none" stroke="#63b8ff" d="M479.48,-77.02C471.38,-76.97 463.18,-77.02 455.26,-77.17"/>
<polygon fill="#63b8ff" stroke="#63b8ff" points="479.27,-80.52 489.32,-77.15 479.36,-73.52 479.27,-80.52"/>
</a>
</g>
</g>
<!-- Node2&#45;&gt;Node1 -->
<g id="edge7_Node000002_Node000001" class="edge">
<title>Node2&#45;&gt;Node1</title>
<g id="a_edge7_Node000002_Node000001"><a xlink:title=" ">
<path fill="none" stroke="#63b8ff" d="M466.61,-90.48C474.7,-90.53 482.9,-90.49 490.83,-90.34"/>
<polygon fill="#63b8ff" stroke="#63b8ff" points="466.82,-86.98 456.78,-90.35 466.73,-93.98 466.82,-86.98"/>
</a>
</g>
</g>
<!-- Node3 -->
<g id="Node000003" class="node">
<title>Node3</title>
<g id="a_Node000003"><a xlink:href="classutils_1_1SubCommand.html#a4576d8bf056fff27b6a6a9c0f630e6b0" target="_top" xlink:title=" ">
<polygon fill="white" stroke="#666666" points="302,-100.5 184.75,-100.5 184.75,-67 302,-67 302,-100.5"/>
<text xml:space="preserve" text-anchor="start" x="192.75" y="-87" font-family="Helvetica,sans-Serif" font-size="10.00">utils::SubCommand::</text>
<text xml:space="preserve" text-anchor="middle" x="243.38" y="-74.25" font-family="Helvetica,sans-Serif" font-size="10.00">required</text>
</a>
</g>
</g>
<!-- Node2&#45;&gt;Node3 -->
<g id="edge2_Node000002_Node000003" class="edge">
<title>Node2&#45;&gt;Node3</title>
<g id="a_edge2_Node000002_Node000003"><a xlink:title=" ">
<path fill="none" stroke="#63b8ff" d="M326.23,-83.75C318.13,-83.75 309.93,-83.75 302.01,-83.75"/>
<polygon fill="#63b8ff" stroke="#63b8ff" points="326.07,-87.25 336.07,-83.75 326.07,-80.25 326.07,-87.25"/>
</a>
</g>
</g>
<!-- Node4 -->
<g id="Node000004" class="node">
<title>Node4</title>
<g id="a_Node000004"><a xlink:href="classConfigDb.html#a2072f117f6e002d9bdfea2ba0f280a0d" target="_top" xlink:title=" ">
<polygon fill="white" stroke="#666666" points="130.38,-162.12 18.37,-162.12 18.37,-141.38 130.38,-141.38 130.38,-162.12"/>
<text xml:space="preserve" text-anchor="middle" x="74.38" y="-148.62" font-family="Helvetica,sans-Serif" font-size="10.00">ConfigDb::ConfigDb</text>
</a>
</g>
</g>
<!-- Node3&#45;&gt;Node4 -->
<g id="edge3_Node000003_Node000004" class="edge">
<title>Node3&#45;&gt;Node4</title>
<g id="a_edge3_Node000003_Node000004"><a xlink:title=" ">
<path fill="none" stroke="#63b8ff" d="M203.82,-106.48C187.27,-115.55 167.46,-125.54 148.75,-132.75 140.77,-135.83 132.11,-138.56 123.63,-140.94"/>
<polygon fill="#63b8ff" stroke="#63b8ff" points="205.32,-109.65 212.34,-101.71 201.9,-103.53 205.32,-109.65"/>
</a>
</g>
</g>
<!-- Node5 -->
<g id="Node000005" class="node">
<title>Node5</title>
<g id="a_Node000005"><a xlink:href="classsubcommand_1_1ConfigWWW.html#a107a5c675eb1a225d0692767b91fed30" target="_top" xlink:title=" ">
<polygon fill="white" stroke="#666666" points="148.75,-123.5 0,-123.5 0,-90 148.75,-90 148.75,-123.5"/>
<text xml:space="preserve" text-anchor="start" x="8" y="-110" font-family="Helvetica,sans-Serif" font-size="10.00">subcommand::ConfigWWW</text>
<text xml:space="preserve" text-anchor="middle" x="74.38" y="-97.25" font-family="Helvetica,sans-Serif" font-size="10.00">::ConfigWWW</text>
</a>
</g>
</g>
<!-- Node3&#45;&gt;Node5 -->
<g id="edge4_Node000003_Node000005" class="edge">
<title>Node3&#45;&gt;Node5</title>
<g id="a_edge4_Node000003_Node000005"><a xlink:title=" ">
<path fill="none" stroke="#63b8ff" d="M173.3,-93.26C165.31,-94.36 157.14,-95.49 149.1,-96.6"/>
<polygon fill="#63b8ff" stroke="#63b8ff" points="173.51,-96.77 182.94,-91.94 172.55,-89.83 173.51,-96.77"/>
</a>
</g>
</g>
<!-- Node6 -->
<g id="Node000006" class="node">
<title>Node6</title>
<g id="a_Node000006"><a xlink:href="classConfigDb.html#ab26354f392e2dea459eb5b738e6c2b3b" target="_top" xlink:title=" ">
<polygon fill="white" stroke="#666666" points="126.62,-72.12 22.12,-72.12 22.12,-51.38 126.62,-51.38 126.62,-72.12"/>
<text xml:space="preserve" text-anchor="middle" x="74.38" y="-58.62" font-family="Helvetica,sans-Serif" font-size="10.00">ConfigDb::setHost</text>
</a>
</g>
</g>
<!-- Node3&#45;&gt;Node6 -->
<g id="edge5_Node000003_Node000006" class="edge">
<title>Node3&#45;&gt;Node6</title>
<g id="a_edge5_Node000003_Node000006"><a xlink:title=" ">
<path fill="none" stroke="#63b8ff" d="M173.32,-74.65C157.85,-72.62 141.7,-70.49 127.07,-68.56"/>
<polygon fill="#63b8ff" stroke="#63b8ff" points="172.56,-78.08 182.93,-75.92 173.48,-71.14 172.56,-78.08"/>
</a>
</g>
</g>
<!-- Node7 -->
<g id="Node000007" class="node">
<title>Node7</title>
<g id="a_Node000007"><a xlink:href="classsubcommand_1_1ConfigWWW.html#aa04431b69c94dbe1530c307118b9799f" target="_top" xlink:title=" ">
<polygon fill="white" stroke="#666666" points="148.75,-33.5 0,-33.5 0,0 148.75,0 148.75,-33.5"/>
<text xml:space="preserve" text-anchor="start" x="8" y="-20" font-family="Helvetica,sans-Serif" font-size="10.00">subcommand::ConfigWWW</text>
<text xml:space="preserve" text-anchor="middle" x="74.38" y="-7.25" font-family="Helvetica,sans-Serif" font-size="10.00">::setHtmlRoot</text>
</a>
</g>
</g>
<!-- Node3&#45;&gt;Node7 -->
<g id="edge6_Node000003_Node000007" class="edge">
<title>Node3&#45;&gt;Node7</title>
<g id="a_edge6_Node000003_Node000007"><a xlink:title=" ">
<path fill="none" stroke="#63b8ff" d="M194.51,-62C179.91,-55.58 163.75,-48.68 148.75,-42.75 141.21,-39.77 133.17,-36.75 125.29,-33.89"/>
<polygon fill="#63b8ff" stroke="#63b8ff" points="192.88,-65.1 203.44,-65.95 195.72,-58.7 192.88,-65.1"/>
</a>
</g>
</g>
</g>
</svg>

<g id="navigator" transform="translate(0 0)" fill="#404254">
  <rect fill="#f2f5e9" fill-opacity="0.5" stroke="#606060" stroke-width=".5" x="0" y="0" width="60" height="60"/>
  <use id="zoomplus" xlink:href="#zoomPlus" x="17" y="9" onmousedown="handleZoom(evt,'in')"/>
  <use id="zoomminus" xlink:href="#zoomMin" x="42" y="9" onmousedown="handleZoom(evt,'out')"/>
  <use id="reset" xlink:href="#resetDef" x="30" y="36" onmousedown="handleReset()"/>
   <use id="arrowup" xlink:href="#arrowUp" x="0" y="0" onmousedown="handlePan(0,-1)"/>
  <use id="arrowright" xlink:href="#arrowRight" x="0" y="0" onmousedown="handlePan(1,0)"/>
  <use id="arrowdown" xlink:href="#arrowDown" x="0" y="0" onmousedown="handlePan(0,1)"/>
  <use id="arrowleft" xlink:href="#arrowLeft" x="0" y="0" onmousedown="handlePan(-1,0)"/>
</g>
<svg viewBox="0 0 15 15" width="100%" height="30px" preserveAspectRatio="xMaxYMin meet">
 <g id="arrow_out" transform="scale(0.3 0.3)">
  <a xlink:href="classutils_1_1SubCommand_a0ab1ebf64efcbd738555d74571e0759a_icgraph_org.svg" target="_base">
   <rect id="button" ry="5" rx="5" y="6" x="6" height="38" width="38"
        fill="#f2f5e9" fill-opacity="0.5" stroke="#606060" stroke-width="1.0"/>
   <path id="arrow"
     d="M 11.500037,31.436501 C 11.940474,20.09759 22.043105,11.32322 32.158766,21.979434 L 37.068811,17.246167 C 37.068811,17.246167 37.088388,32 37.088388,32 L 22.160133,31.978069 C 22.160133,31.978069 26.997745,27.140456 26.997745,27.140456 C 18.528582,18.264221 13.291696,25.230495 11.500037,31.436501 z"
     style="fill:#404040;"/>
  </a>
 </g>
</svg>

<style type='text/css'>
<![CDATA[
[data-mouse-over-selected='false'] { opacity: 0.7; }
[data-mouse-over-selected='true']  { opacity: 1.0; }
]]>
</style>
<script type="application/ecmascript"><![CDATA[
document.addEventListener('DOMContentLoaded', (event) => {
  highlightEdges();
  highlightAdjacentNodes();
});
]]></script>
</svg>
