<?xml version="1.0" encoding="UTF-8" standalone="no"?>
<!DOCTYPE svg PUBLIC "-//W3C//DTD SVG 1.1//EN"
 "http://www.w3.org/Graphics/SVG/1.1/DTD/svg11.dtd">
<!-- Generated by graphviz version 2.42.4 (0)
 -->
<!-- Title: App::_valid_subcommand Pages: 1 -->
<svg width="323pt" height="45pt"
 viewBox="0.00 0.00 323.00 45.00" xmlns="http://www.w3.org/2000/svg" xmlns:xlink="http://www.w3.org/1999/xlink">
<g id="graph0" class="graph" transform="scale(1 1) rotate(0) translate(4 41)">
<title>App::_valid_subcommand</title>
<!-- Node1 -->
<g id="Node000001" class="node">
<title>Node1</title>
<g id="a_Node000001"><a xlink:title="Check to see if a subcommand is valid. Give up immediately if subcommand max has been reached.">
<polygon fill="#999999" stroke="#666666" points="142,-19 0,-19 0,0 142,0 142,-19"/>
<text text-anchor="middle" x="71" y="-7" font-family="Helvetica,sans-Serif" font-size="10.00">App::_valid_subcommand</text>
</a>
</g>
</g>
<!-- Node1&#45;&gt;Node1 -->
<g id="edge2_Node000001_Node000001" class="edge">
<title>Node1&#45;&gt;Node1</title>
<g id="a_edge2_Node000001_Node000001"><a xlink:title=" ">
<path fill="none" stroke="#63b8ff" d="M44.18,-19.08C31.13,-27.73 40.07,-37 71,-37 91.78,-37 102.63,-32.82 103.56,-27.45"/>
<polygon fill="#63b8ff" stroke="#63b8ff" points="106.36,-25.35 97.82,-19.08 100.59,-29.31 106.36,-25.35"/>
</a>
</g>
</g>
<!-- Node2 -->
<g id="Node000002" class="node">
<title>Node2</title>
<g id="a_Node000002"><a xlink:href="classApp.html#a539cd6f035d7566d2fa3b3972138494c" target="_top" xlink:title=" ">
<polygon fill="white" stroke="#666666" points="315,-19 178,-19 178,0 315,0 315,-19"/>
<text text-anchor="middle" x="246.5" y="-7" font-family="Helvetica,sans-Serif" font-size="10.00">App::_find_subcommand</text>
</a>
</g>
</g>
<!-- Node1&#45;&gt;Node2 -->
<g id="edge1_Node000001_Node000002" class="edge">
<title>Node1&#45;&gt;Node2</title>
<g id="a_edge1_Node000001_Node000002"><a xlink:title=" ">
<path fill="none" stroke="#63b8ff" d="M142.07,-9.5C150.59,-9.5 159.33,-9.5 167.94,-9.5"/>
<polygon fill="#63b8ff" stroke="#63b8ff" points="167.98,-13 177.98,-9.5 167.98,-6 167.98,-13"/>
</a>
</g>
</g>
</g>
</svg>
