<?xml version="1.0" encoding="UTF-8" standalone="no"?>
<!DOCTYPE svg PUBLIC "-//W3C//DTD SVG 1.1//EN"
 "http://www.w3.org/Graphics/SVG/1.1/DTD/svg11.dtd">
<!-- Generated by graphviz version 2.43.0 (0)
 -->
<!-- Title: core::SNodeC::init Pages: 1 -->
<svg width="1002pt" height="344pt"
 viewBox="0.00 0.00 1002.00 343.50" xmlns="http://www.w3.org/2000/svg" xmlns:xlink="http://www.w3.org/1999/xlink">
<g id="graph0" class="graph" transform="scale(1 1) rotate(0) translate(4 339.5)">
<title>core::SNodeC::init</title>
<!-- Node1 -->
<g id="Node000001" class="node">
<title>Node1</title>
<g id="a_Node000001"><a xlink:title=" ">
<polygon fill="#999999" stroke="#666666" points="104,-179 0,-179 0,-160 104,-160 104,-179"/>
<text text-anchor="middle" x="52" y="-167" font-family="Helvetica,sans-Serif" font-size="10.00">core::SNodeC::init</text>
</a>
</g>
</g>
<!-- Node2 -->
<g id="Node000002" class="node">
<title>Node2</title>
<g id="a_Node000002"><a xlink:href="classcore_1_1EventLoop.html#add5491dc1f6a70714ce62f80db91098e" target="_top" xlink:title=" ">
<polygon fill="white" stroke="#666666" points="256,-179 140,-179 140,-160 256,-160 256,-179"/>
<text text-anchor="middle" x="198" y="-167" font-family="Helvetica,sans-Serif" font-size="10.00">core::EventLoop::init</text>
</a>
</g>
</g>
<!-- Node1&#45;&gt;Node2 -->
<g id="edge1_Node000001_Node000002" class="edge">
<title>Node1&#45;&gt;Node2</title>
<g id="a_edge1_Node000001_Node000002"><a xlink:title=" ">
<path fill="none" stroke="#63b8ff" d="M104.17,-169.5C112.34,-169.5 120.89,-169.5 129.36,-169.5"/>
<polygon fill="#63b8ff" stroke="#63b8ff" points="129.62,-173 139.62,-169.5 129.62,-166 129.62,-173"/>
</a>
</g>
</g>
<!-- Node3 -->
<g id="Node000003" class="node">
<title>Node3</title>
<g id="a_Node000003"><a xlink:href="namespacecore.html#ac82d0e7a5fcc66169eb61cb7dd27b814" target="_top" xlink:title=" ">
<polygon fill="white" stroke="#666666" points="450,-283 292,-283 292,-264 450,-264 450,-283"/>
<text text-anchor="middle" x="371" y="-271" font-family="Helvetica,sans-Serif" font-size="10.00">core::getTickCounterAsString</text>
</a>
</g>
</g>
<!-- Node2&#45;&gt;Node3 -->
<g id="edge2_Node000002_Node000003" class="edge">
<title>Node2&#45;&gt;Node3</title>
<g id="a_edge2_Node000002_Node000003"><a xlink:title=" ">
<path fill="none" stroke="#63b8ff" d="M214.78,-179.1C244.68,-197.28 309.8,-236.88 345.45,-258.57"/>
<polygon fill="#63b8ff" stroke="#63b8ff" points="343.89,-261.72 354.26,-263.93 347.53,-255.74 343.89,-261.72"/>
</a>
</g>
</g>
<!-- Node5 -->
<g id="Node000005" class="node">
<title>Node5</title>
<g id="a_Node000005"><a xlink:href="classutils_1_1Config.html#a8f7a5bd81078ac7228f762345677e4f1" target="_top" xlink:title=" ">
<polygon fill="white" stroke="#666666" points="419.5,-179 322.5,-179 322.5,-160 419.5,-160 419.5,-179"/>
<text text-anchor="middle" x="371" y="-167" font-family="Helvetica,sans-Serif" font-size="10.00">utils::Config::init</text>
</a>
</g>
</g>
<!-- Node2&#45;&gt;Node5 -->
<g id="edge4_Node000002_Node000005" class="edge">
<title>Node2&#45;&gt;Node5</title>
<g id="a_edge4_Node000002_Node000005"><a xlink:title=" ">
<path fill="none" stroke="#63b8ff" d="M256.42,-169.5C274.42,-169.5 294.3,-169.5 312.33,-169.5"/>
<polygon fill="#63b8ff" stroke="#63b8ff" points="312.41,-173 322.41,-169.5 312.41,-166 312.41,-173"/>
</a>
</g>
</g>
<!-- Node19 -->
<g id="Node000019" class="node">
<title>Node19</title>
<g id="a_Node000019"><a xlink:href="classlogger_1_1Logger.html#a545211a93eadc019ebe4301426594a69" target="_top" xlink:title=" ">
<polygon fill="white" stroke="#666666" points="443.5,-141.5 298.5,-141.5 298.5,-111.5 443.5,-111.5 443.5,-141.5"/>
<text text-anchor="start" x="306.5" y="-129.5" font-family="Helvetica,sans-Serif" font-size="10.00">logger::Logger::setCustom</text>
<text text-anchor="middle" x="371" y="-118.5" font-family="Helvetica,sans-Serif" font-size="10.00">FormatSpec</text>
</a>
</g>
</g>
<!-- Node2&#45;&gt;Node19 -->
<g id="edge21_Node000002_Node000019" class="edge">
<title>Node2&#45;&gt;Node19</title>
<g id="a_edge21_Node000002_Node000019"><a xlink:title=" ">
<path fill="none" stroke="#63b8ff" d="M236.95,-159.96C255.64,-155.26 278.77,-149.44 300.47,-143.98"/>
<polygon fill="#63b8ff" stroke="#63b8ff" points="301.48,-147.34 310.32,-141.51 299.77,-140.55 301.48,-147.34"/>
</a>
</g>
</g>
<!-- Node4 -->
<g id="Node000004" class="node">
<title>Node4</title>
<g id="a_Node000004"><a xlink:href="classcore_1_1EventLoop.html#aef20810c9fcf4c7b33a5b6dbab1973b9" target="_top" xlink:title=" ">
<polygon fill="white" stroke="#666666" points="630.5,-335.5 494.5,-335.5 494.5,-305.5 630.5,-305.5 630.5,-335.5"/>
<text text-anchor="start" x="502.5" y="-323.5" font-family="Helvetica,sans-Serif" font-size="10.00">core::EventLoop::getTick</text>
<text text-anchor="middle" x="562.5" y="-312.5" font-family="Helvetica,sans-Serif" font-size="10.00">Counter</text>
</a>
</g>
</g>
<!-- Node3&#45;&gt;Node4 -->
<g id="edge3_Node000003_Node000004" class="edge">
<title>Node3&#45;&gt;Node4</title>
<g id="a_edge3_Node000003_Node000004"><a xlink:title=" ">
<path fill="none" stroke="#63b8ff" d="M410.35,-283.01C433.47,-288.74 463.62,-296.22 490.92,-302.99"/>
<polygon fill="#63b8ff" stroke="#63b8ff" points="490.28,-306.44 500.82,-305.45 491.96,-299.65 490.28,-306.44"/>
</a>
</g>
</g>
<!-- Node6 -->
<g id="Node000006" class="node">
<title>Node6</title>
<g id="a_Node000006"><a xlink:href="classCLI_1_1CallForCommandline.html#a8cf46d6197f968c91ebd226e333591c5" target="_top" xlink:title=" ">
<polygon fill="white" stroke="#666666" points="632.5,-163.5 492.5,-163.5 492.5,-133.5 632.5,-133.5 632.5,-163.5"/>
<text text-anchor="start" x="500.5" y="-151.5" font-family="Helvetica,sans-Serif" font-size="10.00">CLI::CallForCommandline</text>
<text text-anchor="middle" x="562.5" y="-140.5" font-family="Helvetica,sans-Serif" font-size="10.00">::CallForCommandline</text>
</a>
</g>
</g>
<!-- Node5&#45;&gt;Node6 -->
<g id="edge5_Node000005_Node000006" class="edge">
<title>Node5&#45;&gt;Node6</title>
<g id="a_edge5_Node000005_Node000006"><a xlink:title=" ">
<path fill="none" stroke="#63b8ff" d="M419.82,-164.2C438.75,-162.1 461.02,-159.63 482.23,-157.28"/>
<polygon fill="#63b8ff" stroke="#63b8ff" points="482.66,-160.76 492.21,-156.18 481.89,-153.8 482.66,-160.76"/>
</a>
</g>
</g>
<!-- Node7 -->
<g id="Node000007" class="node">
<title>Node7</title>
<g id="a_Node000007"><a xlink:href="classCLI_1_1CallForShowConfig.html#a4ce8dc70f52a3d525327e257b3d1f436" target="_top" xlink:title=" ">
<polygon fill="white" stroke="#666666" points="627,-115.5 498,-115.5 498,-85.5 627,-85.5 627,-115.5"/>
<text text-anchor="start" x="506" y="-103.5" font-family="Helvetica,sans-Serif" font-size="10.00">CLI::CallForShowConfig</text>
<text text-anchor="middle" x="562.5" y="-92.5" font-family="Helvetica,sans-Serif" font-size="10.00">::CallForShowConfig</text>
</a>
</g>
</g>
<!-- Node5&#45;&gt;Node7 -->
<g id="edge6_Node000005_Node000007" class="edge">
<title>Node5&#45;&gt;Node7</title>
<g id="a_edge6_Node000005_Node000007"><a xlink:title=" ">
<path fill="none" stroke="#63b8ff" d="M419.6,-161C429.88,-158.32 440.51,-154.88 450,-150.5 467.92,-142.23 468.37,-133.38 486,-124.5 489.73,-122.62 493.64,-120.85 497.63,-119.19"/>
<polygon fill="#63b8ff" stroke="#63b8ff" points="499.01,-122.41 507.05,-115.51 496.46,-115.89 499.01,-122.41"/>
</a>
</g>
</g>
<!-- Node8 -->
<g id="Node000008" class="node">
<title>Node8</title>
<g id="a_Node000008"><a xlink:href="classCLI_1_1CallForWriteConfig.html#ae5318b95841981b247ee7d91dbc9f64b" target="_top" xlink:title=" ">
<polygon fill="white" stroke="#666666" points="627,-67.5 498,-67.5 498,-37.5 627,-37.5 627,-67.5"/>
<text text-anchor="start" x="506" y="-55.5" font-family="Helvetica,sans-Serif" font-size="10.00">CLI::CallForWriteConfig</text>
<text text-anchor="middle" x="562.5" y="-44.5" font-family="Helvetica,sans-Serif" font-size="10.00">::CallForWriteConfig</text>
</a>
</g>
</g>
<!-- Node5&#45;&gt;Node8 -->
<g id="edge7_Node000005_Node000008" class="edge">
<title>Node5&#45;&gt;Node8</title>
<g id="a_edge7_Node000005_Node000008"><a xlink:title=" ">
<path fill="none" stroke="#63b8ff" d="M419.6,-164.83C430.45,-161.98 441.32,-157.5 450,-150.5 478.47,-127.55 458.33,-100.42 486,-76.5 487.36,-75.32 488.78,-74.21 490.24,-73.14"/>
<polygon fill="#63b8ff" stroke="#63b8ff" points="492.46,-75.89 499.1,-67.63 488.76,-69.95 492.46,-75.89"/>
</a>
</g>
</g>
<!-- Node9 -->
<g id="Node000009" class="node">
<title>Node9</title>
<g id="a_Node000009"><a xlink:href="classlogger_1_1Logger.html#abab0f18929e134d658ea323245f6cab8" target="_top" xlink:title=" ">
<polygon fill="white" stroke="#666666" points="616.5,-19 508.5,-19 508.5,0 616.5,0 616.5,-19"/>
<text text-anchor="middle" x="562.5" y="-7" font-family="Helvetica,sans-Serif" font-size="10.00">logger::Logger::init</text>
</a>
</g>
</g>
<!-- Node5&#45;&gt;Node9 -->
<g id="edge8_Node000005_Node000009" class="edge">
<title>Node5&#45;&gt;Node9</title>
<g id="a_edge8_Node000005_Node000009"><a xlink:title=" ">
<path fill="none" stroke="#63b8ff" d="M419.65,-166.03C430.75,-163.17 441.73,-158.39 450,-150.5 490.92,-111.5 445.23,-67.66 486,-28.5 489.8,-24.85 494.2,-21.87 498.92,-19.44"/>
<polygon fill="#63b8ff" stroke="#63b8ff" points="500.51,-22.57 508.33,-15.42 497.75,-16.13 500.51,-22.57"/>
</a>
</g>
</g>
<!-- Node12 -->
<g id="Node000012" class="node">
<title>Node12</title>
<g id="a_Node000012"><a xlink:href="classutils_1_1Config.html#a4e00d5e9679c3e060fda2443bccaefbb" target="_top" xlink:title=" ">
<polygon fill="white" stroke="#666666" points="619.5,-201 505.5,-201 505.5,-182 619.5,-182 619.5,-201"/>
<text text-anchor="middle" x="562.5" y="-189" font-family="Helvetica,sans-Serif" font-size="10.00">utils::Config::parse1</text>
</a>
</g>
</g>
<!-- Node5&#45;&gt;Node12 -->
<g id="edge11_Node000005_Node000012" class="edge">
<title>Node5&#45;&gt;Node12</title>
<g id="a_edge11_Node000005_Node000012"><a xlink:title=" ">
<path fill="none" stroke="#63b8ff" d="M419.82,-175.05C442.66,-177.7 470.36,-180.92 495.2,-183.8"/>
<polygon fill="#63b8ff" stroke="#63b8ff" points="494.94,-187.3 505.28,-184.97 495.75,-180.34 494.94,-187.3"/>
</a>
</g>
</g>
<!-- Node14 -->
<g id="Node000014" class="node">
<title>Node14</title>
<g id="a_Node000014"><a xlink:href="classutils_1_1ResetToDefault.html#a6b8f10c6fae707562bdeebe5aea51c44" target="_top" xlink:title=" ">
<polygon fill="white" stroke="#666666" points="621.5,-249.5 503.5,-249.5 503.5,-219.5 621.5,-219.5 621.5,-249.5"/>
<text text-anchor="start" x="511.5" y="-237.5" font-family="Helvetica,sans-Serif" font-size="10.00">utils::ResetToDefault</text>
<text text-anchor="middle" x="562.5" y="-226.5" font-family="Helvetica,sans-Serif" font-size="10.00">::ResetToDefault</text>
</a>
</g>
</g>
<!-- Node5&#45;&gt;Node14 -->
<g id="edge15_Node000005_Node000014" class="edge">
<title>Node5&#45;&gt;Node14</title>
<g id="a_edge15_Node000005_Node000014"><a xlink:title=" ">
<path fill="none" stroke="#63b8ff" d="M398.67,-179.01C421.75,-187.2 456.02,-199.28 486,-209.5 492.41,-211.69 499.13,-213.95 505.82,-216.19"/>
<polygon fill="#63b8ff" stroke="#63b8ff" points="504.95,-219.59 515.54,-219.43 507.16,-212.94 504.95,-219.59"/>
</a>
</g>
</g>
<!-- Node15 -->
<g id="Node000015" class="node">
<title>Node15</title>
<g id="a_Node000015"><a xlink:href="classutils_1_1Daemon.html#ada36c7a73176494c1aae0d468263eb52" target="_top" xlink:title=" ">
<polygon fill="white" stroke="#666666" points="639,-287 486,-287 486,-268 639,-268 639,-287"/>
<text text-anchor="middle" x="562.5" y="-275" font-family="Helvetica,sans-Serif" font-size="10.00">utils::Daemon::stopDaemon</text>
</a>
</g>
</g>
<!-- Node5&#45;&gt;Node15 -->
<g id="edge16_Node000005_Node000015" class="edge">
<title>Node5&#45;&gt;Node15</title>
<g id="a_edge16_Node000005_Node000015"><a xlink:title=" ">
<path fill="none" stroke="#63b8ff" d="M381.4,-179.15C399.78,-197.44 442.46,-237.22 486,-258.5 490.93,-260.91 496.2,-263.04 501.58,-264.9"/>
<polygon fill="#63b8ff" stroke="#63b8ff" points="500.72,-268.31 511.31,-268 502.84,-261.63 500.72,-268.31"/>
</a>
</g>
</g>
<!-- Node10 -->
<g id="Node000010" class="node">
<title>Node10</title>
<g id="a_Node000010"><a xlink:href="classlogger_1_1Logger.html#a7d70e6711ec68f00c5c68946fd030ff9" target="_top" xlink:title=" ">
<polygon fill="white" stroke="#666666" points="826,-139 675,-139 675,-120 826,-120 826,-139"/>
<text text-anchor="middle" x="750.5" y="-127" font-family="Helvetica,sans-Serif" font-size="10.00">logger::Logger::setLogLevel</text>
</a>
</g>
</g>
<!-- Node9&#45;&gt;Node10 -->
<g id="edge9_Node000009_Node000010" class="edge">
<title>Node9&#45;&gt;Node10</title>
<g id="a_edge9_Node000009_Node000010"><a xlink:title=" ">
<path fill="none" stroke="#63b8ff" d="M615.94,-19.1C623.92,-21.57 631.86,-24.66 639,-28.5 644.39,-31.4 701.63,-84.67 731.53,-112.65"/>
<polygon fill="#63b8ff" stroke="#63b8ff" points="729.48,-115.53 739.18,-119.81 734.27,-110.42 729.48,-115.53"/>
</a>
</g>
</g>
<!-- Node11 -->
<g id="Node000011" class="node">
<title>Node11</title>
<g id="a_Node000011"><a xlink:href="classlogger_1_1Logger.html#a31d2cc6f94e95cea600c9579c981875c" target="_top" xlink:title=" ">
<polygon fill="white" stroke="#666666" points="824,-50.5 677,-50.5 677,-20.5 824,-20.5 824,-50.5"/>
<text text-anchor="start" x="685" y="-38.5" font-family="Helvetica,sans-Serif" font-size="10.00">logger::Logger::setVerbose</text>
<text text-anchor="middle" x="750.5" y="-27.5" font-family="Helvetica,sans-Serif" font-size="10.00">Level</text>
</a>
</g>
</g>
<!-- Node9&#45;&gt;Node11 -->
<g id="edge10_Node000009_Node000011" class="edge">
<title>Node9&#45;&gt;Node11</title>
<g id="a_edge10_Node000009_Node000011"><a xlink:title=" ">
<path fill="none" stroke="#63b8ff" d="M616.8,-16.95C632.41,-19.13 649.87,-21.57 666.85,-23.95"/>
<polygon fill="#63b8ff" stroke="#63b8ff" points="666.39,-27.42 676.78,-25.34 667.36,-20.48 666.39,-27.42"/>
</a>
</g>
</g>
<!-- Node12&#45;&gt;Node10 -->
<g id="edge13_Node000012_Node000010" class="edge">
<title>Node12&#45;&gt;Node10</title>
<g id="a_edge13_Node000012_Node000010"><a xlink:title=" ">
<path fill="none" stroke="#63b8ff" d="M605.3,-181.97C616.34,-179.18 628.18,-175.95 639,-172.5 666.04,-163.87 696.01,-152.07 717.91,-143.01"/>
<polygon fill="#63b8ff" stroke="#63b8ff" points="719.48,-146.14 727.36,-139.06 716.78,-139.68 719.48,-146.14"/>
</a>
</g>
</g>
<!-- Node12&#45;&gt;Node11 -->
<g id="edge14_Node000012_Node000011" class="edge">
<title>Node12&#45;&gt;Node11</title>
<g id="a_edge14_Node000012_Node000011"><a xlink:title=" ">
<path fill="none" stroke="#63b8ff" d="M619.84,-182.74C626.69,-180.15 633.28,-176.81 639,-172.5 664.45,-153.33 655.61,-135.79 675,-110.5 689.74,-91.27 709.08,-71.94 724.37,-57.71"/>
<polygon fill="#63b8ff" stroke="#63b8ff" points="726.94,-60.11 731.94,-50.77 722.21,-54.95 726.94,-60.11"/>
</a>
</g>
</g>
<!-- Node13 -->
<g id="Node000013" class="node">
<title>Node13</title>
<g id="a_Node000013"><a xlink:href="classlogger_1_1Logger.html#a9eece213fbcc8ebf67fd69fc73a0dd4b" target="_top" xlink:title=" ">
<polygon fill="white" stroke="#666666" points="809,-201 692,-201 692,-182 809,-182 809,-201"/>
<text text-anchor="middle" x="750.5" y="-189" font-family="Helvetica,sans-Serif" font-size="10.00">logger::Logger::quiet</text>
</a>
</g>
</g>
<!-- Node12&#45;&gt;Node13 -->
<g id="edge12_Node000012_Node000013" class="edge">
<title>Node12&#45;&gt;Node13</title>
<g id="a_edge12_Node000012_Node000013"><a xlink:title=" ">
<path fill="none" stroke="#63b8ff" d="M619.56,-191.5C639.14,-191.5 661.33,-191.5 681.76,-191.5"/>
<polygon fill="#63b8ff" stroke="#63b8ff" points="681.95,-195 691.95,-191.5 681.95,-188 681.95,-195"/>
</a>
</g>
</g>
<!-- Node16 -->
<g id="Node000016" class="node">
<title>Node16</title>
<g id="a_Node000016"><a xlink:href="classutils_1_1DaemonizeError.html#a5a42290a8321b84597413d2bd9fe0eb6" target="_top" xlink:title=" ">
<polygon fill="white" stroke="#666666" points="811.5,-335.5 689.5,-335.5 689.5,-305.5 811.5,-305.5 811.5,-335.5"/>
<text text-anchor="start" x="697.5" y="-323.5" font-family="Helvetica,sans-Serif" font-size="10.00">utils::DaemonizeError</text>
<text text-anchor="middle" x="750.5" y="-312.5" font-family="Helvetica,sans-Serif" font-size="10.00">::DaemonizeError</text>
</a>
</g>
</g>
<!-- Node15&#45;&gt;Node16 -->
<g id="edge17_Node000015_Node000016" class="edge">
<title>Node15&#45;&gt;Node16</title>
<g id="a_edge17_Node000015_Node000016"><a xlink:title=" ">
<path fill="none" stroke="#63b8ff" d="M604.78,-287.04C626.7,-292.11 654.24,-298.48 679.4,-304.29"/>
<polygon fill="#63b8ff" stroke="#63b8ff" points="678.74,-307.73 689.27,-306.58 680.32,-300.91 678.74,-307.73"/>
</a>
</g>
</g>
<!-- Node17 -->
<g id="Node000017" class="node">
<title>Node17</title>
<g id="a_Node000017"><a xlink:href="classutils_1_1DaemonizeFailure.html#a667542ba48e67246552c84abf4fac80b" target="_top" xlink:title=" ">
<polygon fill="white" stroke="#666666" points="994,-294.5 862,-294.5 862,-264.5 994,-264.5 994,-294.5"/>
<text text-anchor="start" x="870" y="-282.5" font-family="Helvetica,sans-Serif" font-size="10.00">utils::DaemonizeFailure</text>
<text text-anchor="middle" x="928" y="-271.5" font-family="Helvetica,sans-Serif" font-size="10.00">::DaemonizeFailure</text>
</a>
</g>
</g>
<!-- Node15&#45;&gt;Node17 -->
<g id="edge19_Node000015_Node000017" class="edge">
<title>Node15&#45;&gt;Node17</title>
<g id="a_edge19_Node000015_Node000017"><a xlink:title=" ">
<path fill="none" stroke="#63b8ff" d="M608.85,-267.99C629,-264.22 653.09,-260.35 675,-258.5 741.87,-252.84 759.24,-251.63 826,-258.5 835.39,-259.47 845.19,-260.92 854.84,-262.63"/>
<polygon fill="#63b8ff" stroke="#63b8ff" points="854.34,-266.1 864.81,-264.49 855.62,-259.22 854.34,-266.1"/>
</a>
</g>
</g>
<!-- Node18 -->
<g id="Node000018" class="node">
<title>Node18</title>
<g id="a_Node000018"><a xlink:href="classutils_1_1Daemon.html#ade68cf0c06a22b8d0446244b82d75ba8" target="_top" xlink:title=" ">
<polygon fill="white" stroke="#666666" points="825,-287 676,-287 676,-268 825,-268 825,-287"/>
<text text-anchor="middle" x="750.5" y="-275" font-family="Helvetica,sans-Serif" font-size="10.00">utils::Daemon::erasePidFile</text>
</a>
</g>
</g>
<!-- Node15&#45;&gt;Node18 -->
<g id="edge20_Node000015_Node000018" class="edge">
<title>Node15&#45;&gt;Node18</title>
<g id="a_edge20_Node000015_Node000018"><a xlink:title=" ">
<path fill="none" stroke="#63b8ff" d="M639.15,-277.5C647.83,-277.5 656.71,-277.5 665.49,-277.5"/>
<polygon fill="#63b8ff" stroke="#63b8ff" points="665.72,-281 675.72,-277.5 665.72,-274 665.72,-281"/>
</a>
</g>
</g>
<!-- Node16&#45;&gt;Node17 -->
<g id="edge18_Node000016_Node000017" class="edge">
<title>Node16&#45;&gt;Node17</title>
<g id="a_edge18_Node000016_Node000017"><a xlink:title=" ">
<path fill="none" stroke="#63b8ff" d="M811.9,-306.39C825.06,-303.31 839.14,-300.03 852.77,-296.84"/>
<polygon fill="#63b8ff" stroke="#63b8ff" points="853.66,-300.23 862.6,-294.55 852.06,-293.41 853.66,-300.23"/>
</a>
</g>
</g>
</g>
</svg>
