<?xml version="1.0" encoding="UTF-8" standalone="no"?>
<!DOCTYPE svg PUBLIC "-//W3C//DTD SVG 1.1//EN"
 "http://www.w3.org/Graphics/SVG/1.1/DTD/svg11.dtd">
<!-- Generated by graphviz version 2.43.0 (0)
 -->
<!-- Title: core::EventMultiplexer::stop Pages: 1 -->
<svg width="1249pt" height="445pt"
 viewBox="0.00 0.00 1249.00 445.00" xmlns="http://www.w3.org/2000/svg" xmlns:xlink="http://www.w3.org/1999/xlink">
<g id="graph0" class="graph" transform="scale(1 1) rotate(0) translate(4 441)">
<title>core::EventMultiplexer::stop</title>
<!-- Node1 -->
<g id="Node000001" class="node">
<title>Node1</title>
<g id="a_Node000001"><a xlink:title=" ">
<polygon fill="#999999" stroke="#666666" points="114,-248 0,-248 0,-218 114,-218 114,-248"/>
<text text-anchor="start" x="8" y="-236" font-family="Helvetica,sans-Serif" font-size="10.00">core::EventMultiplexer</text>
<text text-anchor="middle" x="57" y="-225" font-family="Helvetica,sans-Serif" font-size="10.00">::stop</text>
</a>
</g>
</g>
<!-- Node2 -->
<g id="Node000002" class="node">
<title>Node2</title>
<g id="a_Node000002"><a xlink:href="classutils_1_1Timeval.html#a54b232dc1ffeea007100dcd1caad1987" target="_top" xlink:title=" ">
<polygon fill="white" stroke="#666666" points="292.5,-374.5 159.5,-374.5 159.5,-355.5 292.5,-355.5 292.5,-374.5"/>
<text text-anchor="middle" x="226" y="-362.5" font-family="Helvetica,sans-Serif" font-size="10.00">utils::Timeval::currentTime</text>
</a>
</g>
</g>
<!-- Node1&#45;&gt;Node2 -->
<g id="edge1_Node000001_Node000002" class="edge">
<title>Node1&#45;&gt;Node2</title>
<g id="a_edge1_Node000001_Node000002"><a xlink:title=" ">
<path fill="none" stroke="#63b8ff" d="M77.16,-248.14C108.93,-273.26 172.24,-323.3 204.73,-348.98"/>
<polygon fill="#63b8ff" stroke="#63b8ff" points="202.65,-351.79 212.66,-355.25 206.99,-346.3 202.65,-351.79"/>
</a>
</g>
</g>
<!-- Node5 -->
<g id="Node000005" class="node">
<title>Node5</title>
<g id="a_Node000005"><a xlink:href="classcore_1_1EventMultiplexer.html#a0d4746a8388a975f74f6ae3db4930a6b" target="_top" xlink:title=" ">
<polygon fill="white" stroke="#666666" points="293,-272 159,-272 159,-242 293,-242 293,-272"/>
<text text-anchor="start" x="167" y="-260" font-family="Helvetica,sans-Serif" font-size="10.00">core::EventMultiplexer</text>
<text text-anchor="middle" x="226" y="-249" font-family="Helvetica,sans-Serif" font-size="10.00">::releaseExpiredResources</text>
</a>
</g>
</g>
<!-- Node1&#45;&gt;Node5 -->
<g id="edge4_Node000001_Node000005" class="edge">
<title>Node1&#45;&gt;Node5</title>
<g id="a_edge4_Node000001_Node000005"><a xlink:title=" ">
<path fill="none" stroke="#63b8ff" d="M114.07,-241.06C125.21,-242.66 137.09,-244.37 148.77,-246.04"/>
<polygon fill="#63b8ff" stroke="#63b8ff" points="148.56,-249.55 158.96,-247.51 149.56,-242.62 148.56,-249.55"/>
</a>
</g>
</g>
<!-- Node21 -->
<g id="Node000021" class="node">
<title>Node21</title>
<g id="a_Node000021"><a xlink:href="classcore_1_1DescriptorEventPublisher.html#a7f72e6de3fcd6c2b7d43042131279bd7" target="_top" xlink:title=" ">
<polygon fill="white" stroke="#666666" points="302,-155 150,-155 150,-125 302,-125 302,-155"/>
<text text-anchor="start" x="158" y="-143" font-family="Helvetica,sans-Serif" font-size="10.00">core::DescriptorEventPublisher</text>
<text text-anchor="middle" x="226" y="-132" font-family="Helvetica,sans-Serif" font-size="10.00">::stop</text>
</a>
</g>
</g>
<!-- Node1&#45;&gt;Node21 -->
<g id="edge20_Node000001_Node000021" class="edge">
<title>Node1&#45;&gt;Node21</title>
<g id="a_edge20_Node000001_Node000021"><a xlink:title=" ">
<path fill="none" stroke="#63b8ff" d="M85.2,-217.85C113.47,-202.11 157.84,-177.4 189,-160.05"/>
<polygon fill="#63b8ff" stroke="#63b8ff" points="190.77,-163.07 197.81,-155.14 187.37,-156.95 190.77,-163.07"/>
</a>
</g>
</g>
<!-- Node31 -->
<g id="Node000031" class="node">
<title>Node31</title>
<g id="a_Node000031"><a xlink:href="classcore_1_1TimerEventPublisher.html#a78db35b8164a8dd0ca09eff66be33d67" target="_top" xlink:title=" ">
<polygon fill="white" stroke="#666666" points="292,-224 160,-224 160,-194 292,-194 292,-224"/>
<text text-anchor="start" x="168" y="-212" font-family="Helvetica,sans-Serif" font-size="10.00">core::TimerEventPublisher</text>
<text text-anchor="middle" x="226" y="-201" font-family="Helvetica,sans-Serif" font-size="10.00">::stop</text>
</a>
</g>
</g>
<!-- Node1&#45;&gt;Node31 -->
<g id="edge33_Node000001_Node000031" class="edge">
<title>Node1&#45;&gt;Node31</title>
<g id="a_edge33_Node000001_Node000031"><a xlink:title=" ">
<path fill="none" stroke="#63b8ff" d="M114.07,-224.94C125.55,-223.29 137.8,-221.53 149.82,-219.8"/>
<polygon fill="#63b8ff" stroke="#63b8ff" points="150.44,-223.25 159.84,-218.36 149.44,-216.32 150.44,-223.25"/>
</a>
</g>
</g>
<!-- Node3 -->
<g id="Node000003" class="node">
<title>Node3</title>
<g id="a_Node000003"><a xlink:href="namespaceutils_1_1system.html#ad594b7afe9fa80d3db04591c966422b2" target="_top" xlink:title=" ">
<polygon fill="white" stroke="#666666" points="481,-411.5 346,-411.5 346,-392.5 481,-392.5 481,-411.5"/>
<text text-anchor="middle" x="413.5" y="-399.5" font-family="Helvetica,sans-Serif" font-size="10.00">utils::system::gettimeofday</text>
</a>
</g>
</g>
<!-- Node2&#45;&gt;Node3 -->
<g id="edge2_Node000002_Node000003" class="edge">
<title>Node2&#45;&gt;Node3</title>
<g id="a_edge2_Node000002_Node000003"><a xlink:title=" ">
<path fill="none" stroke="#63b8ff" d="M274.77,-374.53C299.13,-379.39 328.94,-385.33 354.6,-390.45"/>
<polygon fill="#63b8ff" stroke="#63b8ff" points="354.08,-393.92 364.57,-392.44 355.45,-387.05 354.08,-393.92"/>
</a>
</g>
</g>
<!-- Node4 -->
<g id="Node000004" class="node">
<title>Node4</title>
<g id="a_Node000004"><a xlink:href="classutils_1_1Timeval.html#a4a554848a362fa40feef1c3f93c0c2e5" target="_top" xlink:title=" ">
<polygon fill="white" stroke="#666666" points="475,-374.5 352,-374.5 352,-355.5 475,-355.5 475,-374.5"/>
<text text-anchor="middle" x="413.5" y="-362.5" font-family="Helvetica,sans-Serif" font-size="10.00">utils::Timeval::operator&amp;</text>
</a>
</g>
</g>
<!-- Node2&#45;&gt;Node4 -->
<g id="edge3_Node000002_Node000004" class="edge">
<title>Node2&#45;&gt;Node4</title>
<g id="a_edge3_Node000002_Node000004"><a xlink:title=" ">
<path fill="none" stroke="#63b8ff" d="M292.66,-365C308.48,-365 325.45,-365 341.5,-365"/>
<polygon fill="#63b8ff" stroke="#63b8ff" points="341.89,-368.5 351.89,-365 341.89,-361.5 341.89,-368.5"/>
</a>
</g>
</g>
<!-- Node6 -->
<g id="Node000006" class="node">
<title>Node6</title>
<g id="a_Node000006"><a xlink:href="classcore_1_1DynamicLoader.html#a8c4d850882c7177f93a543b96eb450a0" target="_top" xlink:title=" ">
<polygon fill="white" stroke="#666666" points="471,-337 356,-337 356,-307 471,-307 471,-337"/>
<text text-anchor="start" x="364" y="-325" font-family="Helvetica,sans-Serif" font-size="10.00">core::DynamicLoader</text>
<text text-anchor="middle" x="413.5" y="-314" font-family="Helvetica,sans-Serif" font-size="10.00">::execDlCloseDeleyed</text>
</a>
</g>
</g>
<!-- Node5&#45;&gt;Node6 -->
<g id="edge5_Node000005_Node000006" class="edge">
<title>Node5&#45;&gt;Node6</title>
<g id="a_edge5_Node000005_Node000006"><a xlink:title=" ">
<path fill="none" stroke="#63b8ff" d="M270.02,-272.08C296.74,-281.44 331.26,-293.53 359.63,-303.47"/>
<polygon fill="#63b8ff" stroke="#63b8ff" points="358.79,-306.89 369.39,-306.89 361.11,-300.28 358.79,-306.89"/>
</a>
</g>
</g>
<!-- Node12 -->
<g id="Node000012" class="node">
<title>Node12</title>
<g id="a_Node000012"><a xlink:href="classcore_1_1DescriptorEventPublisher.html#a75b032abf55f5bc5cacc69690f9f02e3" target="_top" xlink:title=" ">
<polygon fill="white" stroke="#666666" points="677,-272 525,-272 525,-242 677,-242 677,-272"/>
<text text-anchor="start" x="533" y="-260" font-family="Helvetica,sans-Serif" font-size="10.00">core::DescriptorEventPublisher</text>
<text text-anchor="middle" x="601" y="-249" font-family="Helvetica,sans-Serif" font-size="10.00">::releaseDisabledEvents</text>
</a>
</g>
</g>
<!-- Node5&#45;&gt;Node12 -->
<g id="edge11_Node000005_Node000012" class="edge">
<title>Node5&#45;&gt;Node12</title>
<g id="a_edge11_Node000005_Node000012"><a xlink:title=" ">
<path fill="none" stroke="#63b8ff" d="M293.26,-257C354.98,-257 447.35,-257 514.59,-257"/>
<polygon fill="#63b8ff" stroke="#63b8ff" points="514.74,-260.5 524.74,-257 514.74,-253.5 514.74,-260.5"/>
</a>
</g>
</g>
<!-- Node19 -->
<g id="Node000019" class="node">
<title>Node19</title>
<g id="a_Node000019"><a xlink:href="classcore_1_1TimerEventPublisher.html#a7064625a77fa629ae729f73b839e4264" target="_top" xlink:title=" ">
<polygon fill="white" stroke="#666666" points="479.5,-227 347.5,-227 347.5,-197 479.5,-197 479.5,-227"/>
<text text-anchor="start" x="355.5" y="-215" font-family="Helvetica,sans-Serif" font-size="10.00">core::TimerEventPublisher</text>
<text text-anchor="middle" x="413.5" y="-204" font-family="Helvetica,sans-Serif" font-size="10.00">::unobserveDisableEvents</text>
</a>
</g>
</g>
<!-- Node5&#45;&gt;Node19 -->
<g id="edge18_Node000005_Node000019" class="edge">
<title>Node5&#45;&gt;Node19</title>
<g id="a_edge18_Node000005_Node000019"><a xlink:title=" ">
<path fill="none" stroke="#63b8ff" d="M289.03,-241.95C305.58,-237.94 323.6,-233.57 340.64,-229.43"/>
<polygon fill="#63b8ff" stroke="#63b8ff" points="341.64,-232.79 350.53,-227.03 339.99,-225.99 341.64,-232.79"/>
</a>
</g>
</g>
<!-- Node7 -->
<g id="Node000007" class="node">
<title>Node7</title>
<g id="a_Node000007"><a xlink:href="classcore_1_1DynamicLoader.html#a28d14f3029339351d8bb8b328a6110b0" target="_top" xlink:title=" ">
<polygon fill="white" stroke="#666666" points="656,-360 546,-360 546,-330 656,-330 656,-360"/>
<text text-anchor="start" x="554" y="-348" font-family="Helvetica,sans-Serif" font-size="10.00">core::DynamicLoader</text>
<text text-anchor="middle" x="601" y="-337" font-family="Helvetica,sans-Serif" font-size="10.00">::dlError</text>
</a>
</g>
</g>
<!-- Node6&#45;&gt;Node7 -->
<g id="edge6_Node000006_Node000007" class="edge">
<title>Node6&#45;&gt;Node7</title>
<g id="a_edge6_Node000006_Node000007"><a xlink:title=" ">
<path fill="none" stroke="#63b8ff" d="M471.16,-329.03C491.58,-331.56 514.77,-334.43 535.78,-337.04"/>
<polygon fill="#63b8ff" stroke="#63b8ff" points="535.55,-340.54 545.91,-338.29 536.41,-333.59 535.55,-340.54"/>
</a>
</g>
</g>
<!-- Node9 -->
<g id="Node000009" class="node">
<title>Node9</title>
<g id="a_Node000009"><a xlink:href="classcore_1_1DynamicLoader.html#a0eb6f36d1c50f7233455d0e2798a71e4" target="_top" xlink:title=" ">
<polygon fill="white" stroke="#666666" points="656,-428 546,-428 546,-398 656,-398 656,-428"/>
<text text-anchor="start" x="554" y="-416" font-family="Helvetica,sans-Serif" font-size="10.00">core::DynamicLoader</text>
<text text-anchor="middle" x="601" y="-405" font-family="Helvetica,sans-Serif" font-size="10.00">::execDlClose</text>
</a>
</g>
</g>
<!-- Node6&#45;&gt;Node9 -->
<g id="edge8_Node000006_Node000009" class="edge">
<title>Node6&#45;&gt;Node9</title>
<g id="a_edge8_Node000006_Node000009"><a xlink:title=" ">
<path fill="none" stroke="#63b8ff" d="M464.4,-337.01C472.74,-340.01 481.21,-343.37 489,-347 506,-354.92 508.91,-359.37 525,-369 538.03,-376.8 552.4,-385.26 565.04,-392.67"/>
<polygon fill="#63b8ff" stroke="#63b8ff" points="563.5,-395.82 573.9,-397.84 567.03,-389.78 563.5,-395.82"/>
</a>
</g>
</g>
<!-- Node8 -->
<g id="Node000008" class="node">
<title>Node8</title>
<g id="a_Node000008"><a xlink:href="namespacecore_1_1system.html#ad04dc647899e7a1c52498190f5e16f1c" target="_top" xlink:title=" ">
<polygon fill="white" stroke="#666666" points="842.5,-388.5 735.5,-388.5 735.5,-369.5 842.5,-369.5 842.5,-388.5"/>
<text text-anchor="middle" x="789" y="-376.5" font-family="Helvetica,sans-Serif" font-size="10.00">core::system::dlerror</text>
</a>
</g>
</g>
<!-- Node7&#45;&gt;Node8 -->
<g id="edge7_Node000007_Node000008" class="edge">
<title>Node7&#45;&gt;Node8</title>
<g id="a_edge7_Node000007_Node000008"><a xlink:title=" ">
<path fill="none" stroke="#63b8ff" d="M656.05,-354.88C677.91,-358.88 703.28,-363.51 725.9,-367.65"/>
<polygon fill="#63b8ff" stroke="#63b8ff" points="725.27,-371.09 735.74,-369.45 726.53,-364.21 725.27,-371.09"/>
</a>
</g>
</g>
<!-- Node10 -->
<g id="Node000010" class="node">
<title>Node10</title>
<g id="a_Node000010"><a xlink:href="classcore_1_1DynamicLoader.html#afea22388177ead6ebd12f9ef041e6d2b" target="_top" xlink:title=" ">
<polygon fill="white" stroke="#666666" points="844,-437 734,-437 734,-407 844,-407 844,-437"/>
<text text-anchor="start" x="742" y="-425" font-family="Helvetica,sans-Serif" font-size="10.00">core::DynamicLoader</text>
<text text-anchor="middle" x="789" y="-414" font-family="Helvetica,sans-Serif" font-size="10.00">::execDlClose</text>
</a>
</g>
</g>
<!-- Node9&#45;&gt;Node10 -->
<g id="edge9_Node000009_Node000010" class="edge">
<title>Node9&#45;&gt;Node10</title>
<g id="a_edge9_Node000009_Node000010"><a xlink:title=" ">
<path fill="none" stroke="#63b8ff" d="M656.05,-415.62C677.16,-416.64 701.54,-417.82 723.56,-418.88"/>
<polygon fill="#63b8ff" stroke="#63b8ff" points="723.66,-422.39 733.82,-419.38 724,-415.4 723.66,-422.39"/>
</a>
</g>
</g>
<!-- Node11 -->
<g id="Node000011" class="node">
<title>Node11</title>
<g id="a_Node000011"><a xlink:href="namespacecore_1_1system.html#a4317d54914cd18248143183ea71252d3" target="_top" xlink:title=" ">
<polygon fill="white" stroke="#666666" points="1032,-431.5 922,-431.5 922,-412.5 1032,-412.5 1032,-431.5"/>
<text text-anchor="middle" x="977" y="-419.5" font-family="Helvetica,sans-Serif" font-size="10.00">core::system::dlclose</text>
</a>
</g>
</g>
<!-- Node10&#45;&gt;Node11 -->
<g id="edge10_Node000010_Node000011" class="edge">
<title>Node10&#45;&gt;Node11</title>
<g id="a_edge10_Node000010_Node000011"><a xlink:title=" ">
<path fill="none" stroke="#63b8ff" d="M844.05,-422C865.16,-422 889.54,-422 911.56,-422"/>
<polygon fill="#63b8ff" stroke="#63b8ff" points="911.82,-425.5 921.82,-422 911.82,-418.5 911.82,-425.5"/>
</a>
</g>
</g>
<!-- Node13 -->
<g id="Node000013" class="node">
<title>Node13</title>
<g id="a_Node000013"><a xlink:href="classcore_1_1DescriptorEventReceiver.html#ac80fc901f941c059a6ebdb28147b25a2" target="_top" xlink:title=" ">
<polygon fill="white" stroke="#666666" points="864.5,-169 713.5,-169 713.5,-139 864.5,-139 864.5,-169"/>
<text text-anchor="start" x="721.5" y="-157" font-family="Helvetica,sans-Serif" font-size="10.00">core::DescriptorEventReceiver</text>
<text text-anchor="middle" x="789" y="-146" font-family="Helvetica,sans-Serif" font-size="10.00">::isSuspended</text>
</a>
</g>
</g>
<!-- Node12&#45;&gt;Node13 -->
<g id="edge12_Node000012_Node000013" class="edge">
<title>Node12&#45;&gt;Node13</title>
<g id="a_edge12_Node000012_Node000013"><a xlink:title=" ">
<path fill="none" stroke="#63b8ff" d="M661.49,-241.98C666.97,-239.43 672.24,-236.45 677,-233 699.15,-216.91 691.33,-199.74 713,-183 717.6,-179.45 722.69,-176.28 727.98,-173.47"/>
<polygon fill="#63b8ff" stroke="#63b8ff" points="729.57,-176.59 737.04,-169.08 726.52,-170.29 729.57,-176.59"/>
</a>
</g>
</g>
<!-- Node14 -->
<g id="Node000014" class="node">
<title>Node14</title>
<g id="a_Node000014"><a xlink:href="classcore_1_1DescriptorEventPublisher.html#a28bc1eb205ca9783d96a4bfedf344e8f" target="_top" xlink:title=" ">
<polygon fill="white" stroke="#666666" points="865,-255 713,-255 713,-225 865,-225 865,-255"/>
<text text-anchor="start" x="721" y="-243" font-family="Helvetica,sans-Serif" font-size="10.00">core::DescriptorEventPublisher</text>
<text text-anchor="middle" x="789" y="-232" font-family="Helvetica,sans-Serif" font-size="10.00">::muxDel</text>
</a>
</g>
</g>
<!-- Node12&#45;&gt;Node14 -->
<g id="edge13_Node000012_Node000014" class="edge">
<title>Node12&#45;&gt;Node14</title>
<g id="a_edge13_Node000012_Node000014"><a xlink:title=" ">
<path fill="none" stroke="#63b8ff" d="M677.12,-250.13C685.6,-249.36 694.28,-248.57 702.87,-247.78"/>
<polygon fill="#63b8ff" stroke="#63b8ff" points="703.26,-251.26 712.9,-246.86 702.63,-244.29 703.26,-251.26"/>
</a>
</g>
</g>
<!-- Node15 -->
<g id="Node000015" class="node">
<title>Node15</title>
<g id="a_Node000015"><a xlink:href="classcore_1_1DescriptorEventPublisher.html#a5e0e1a78a4bae48537ba6d0425a7c1cf" target="_top" xlink:title=" ">
<polygon fill="white" stroke="#666666" points="1241,-177 1089,-177 1089,-147 1241,-147 1241,-177"/>
<text text-anchor="start" x="1097" y="-165" font-family="Helvetica,sans-Serif" font-size="10.00">core::DescriptorEventPublisher</text>
<text text-anchor="middle" x="1165" y="-154" font-family="Helvetica,sans-Serif" font-size="10.00">::muxOff</text>
</a>
</g>
</g>
<!-- Node12&#45;&gt;Node15 -->
<g id="edge14_Node000012_Node000015" class="edge">
<title>Node12&#45;&gt;Node15</title>
<g id="a_edge14_Node000012_Node000015"><a xlink:title=" ">
<path fill="none" stroke="#63b8ff" d="M652.35,-241.9C660.65,-239.12 669.11,-236.11 677,-233 693.46,-226.51 696,-220.89 713,-216 836.99,-180.32 986.72,-168.19 1078.63,-164.08"/>
<polygon fill="#63b8ff" stroke="#63b8ff" points="1078.88,-167.58 1088.72,-163.65 1078.58,-160.58 1078.88,-167.58"/>
</a>
</g>
</g>
<!-- Node16 -->
<g id="Node000016" class="node">
<title>Node16</title>
<g id="a_Node000016"><a xlink:href="classcore_1_1DescriptorEventPublisher.html#a8cdba59fd3522f1e108a21f6f818840e" target="_top" xlink:title=" ">
<polygon fill="white" stroke="#666666" points="865,-351 713,-351 713,-321 865,-321 865,-351"/>
<text text-anchor="start" x="721" y="-339" font-family="Helvetica,sans-Serif" font-size="10.00">core::DescriptorEventPublisher</text>
<text text-anchor="middle" x="789" y="-328" font-family="Helvetica,sans-Serif" font-size="10.00">::muxOn</text>
</a>
</g>
</g>
<!-- Node12&#45;&gt;Node16 -->
<g id="edge15_Node000012_Node000016" class="edge">
<title>Node12&#45;&gt;Node16</title>
<g id="a_edge15_Node000012_Node000016"><a xlink:title=" ">
<path fill="none" stroke="#63b8ff" d="M629.75,-272.21C651.89,-283.98 683.9,-300.21 713,-312 717.71,-313.91 722.63,-315.77 727.61,-317.55"/>
<polygon fill="#63b8ff" stroke="#63b8ff" points="726.61,-320.91 737.2,-320.89 728.9,-314.3 726.61,-320.91"/>
</a>
</g>
</g>
<!-- Node17 -->
<g id="Node000017" class="node">
<title>Node17</title>
<g id="a_Node000017"><a xlink:href="classcore_1_1DescriptorEventReceiver.html#a550c1ba95dcb4e286eaf680eed1ca11b" target="_top" xlink:title=" ">
<polygon fill="white" stroke="#666666" points="864.5,-303 713.5,-303 713.5,-273 864.5,-273 864.5,-303"/>
<text text-anchor="start" x="721.5" y="-291" font-family="Helvetica,sans-Serif" font-size="10.00">core::DescriptorEventReceiver</text>
<text text-anchor="middle" x="789" y="-280" font-family="Helvetica,sans-Serif" font-size="10.00">::triggered</text>
</a>
</g>
</g>
<!-- Node12&#45;&gt;Node17 -->
<g id="edge16_Node000012_Node000017" class="edge">
<title>Node12&#45;&gt;Node17</title>
<g id="a_edge16_Node000012_Node000017"><a xlink:title=" ">
<path fill="none" stroke="#63b8ff" d="M677.12,-269.52C685.67,-270.94 694.43,-272.4 703.1,-273.85"/>
<polygon fill="#63b8ff" stroke="#63b8ff" points="702.77,-277.34 713.21,-275.53 703.92,-270.44 702.77,-277.34"/>
</a>
</g>
</g>
<!-- Node18 -->
<g id="Node000018" class="node">
<title>Node18</title>
<g id="a_Node000018"><a xlink:href="classutils_1_1Timeval.html#ac5696b678505b8fb9ee27540ab1802ca" target="_top" xlink:title=" ">
<polygon fill="white" stroke="#666666" points="1038,-297.5 916,-297.5 916,-278.5 1038,-278.5 1038,-297.5"/>
<text text-anchor="middle" x="977" y="-285.5" font-family="Helvetica,sans-Serif" font-size="10.00">utils::Timeval::operator=</text>
</a>
</g>
</g>
<!-- Node17&#45;&gt;Node18 -->
<g id="edge17_Node000017_Node000018" class="edge">
<title>Node17&#45;&gt;Node18</title>
<g id="a_edge17_Node000017_Node000018"><a xlink:title=" ">
<path fill="none" stroke="#63b8ff" d="M864.58,-288C878.19,-288 892.35,-288 905.83,-288"/>
<polygon fill="#63b8ff" stroke="#63b8ff" points="905.98,-291.5 915.98,-288 905.98,-284.5 905.98,-291.5"/>
</a>
</g>
</g>
<!-- Node20 -->
<g id="Node000020" class="node">
<title>Node20</title>
<g id="a_Node000020"><a xlink:href="classcore_1_1TimerEventReceiver.html#a52b86119e9c36bf5e736eb8db5d93cbf" target="_top" xlink:title=" ">
<polygon fill="white" stroke="#666666" points="666.5,-224 535.5,-224 535.5,-194 666.5,-194 666.5,-224"/>
<text text-anchor="start" x="543.5" y="-212" font-family="Helvetica,sans-Serif" font-size="10.00">core::TimerEventReceiver</text>
<text text-anchor="middle" x="601" y="-201" font-family="Helvetica,sans-Serif" font-size="10.00">::unobservedEvent</text>
</a>
</g>
</g>
<!-- Node19&#45;&gt;Node20 -->
<g id="edge19_Node000019_Node000020" class="edge">
<title>Node19&#45;&gt;Node20</title>
<g id="a_edge19_Node000019_Node000020"><a xlink:title=" ">
<path fill="none" stroke="#63b8ff" d="M479.64,-210.95C494.31,-210.71 510,-210.46 525.04,-210.21"/>
<polygon fill="#63b8ff" stroke="#63b8ff" points="525.39,-213.71 535.33,-210.05 525.27,-206.71 525.39,-213.71"/>
</a>
</g>
</g>
<!-- Node22 -->
<g id="Node000022" class="node">
<title>Node22</title>
<g id="a_Node000022"><a xlink:href="classcore_1_1DescriptorEventReceiver.html#a89834bfd8d8f74d4570c45838239eeb8" target="_top" xlink:title=" ">
<polygon fill="white" stroke="#666666" points="489,-121 338,-121 338,-91 489,-91 489,-121"/>
<text text-anchor="start" x="346" y="-109" font-family="Helvetica,sans-Serif" font-size="10.00">core::DescriptorEventReceiver</text>
<text text-anchor="middle" x="413.5" y="-98" font-family="Helvetica,sans-Serif" font-size="10.00">::terminate</text>
</a>
</g>
</g>
<!-- Node21&#45;&gt;Node22 -->
<g id="edge21_Node000021_Node000022" class="edge">
<title>Node21&#45;&gt;Node22</title>
<g id="a_edge21_Node000021_Node000022"><a xlink:title=" ">
<path fill="none" stroke="#63b8ff" d="M302.18,-126.22C310.63,-124.67 319.28,-123.09 327.83,-121.52"/>
<polygon fill="#63b8ff" stroke="#63b8ff" points="328.61,-124.93 337.81,-119.69 327.35,-118.05 328.61,-124.93"/>
</a>
</g>
</g>
<!-- Node23 -->
<g id="Node000023" class="node">
<title>Node23</title>
<g id="a_Node000023"><a xlink:href="classcore_1_1DescriptorEventReceiver.html#a4ab422ce6622a29cee38a0108ee6ccc1" target="_top" xlink:title=" ">
<polygon fill="white" stroke="#666666" points="676.5,-121 525.5,-121 525.5,-91 676.5,-91 676.5,-121"/>
<text text-anchor="start" x="533.5" y="-109" font-family="Helvetica,sans-Serif" font-size="10.00">core::DescriptorEventReceiver</text>
<text text-anchor="middle" x="601" y="-98" font-family="Helvetica,sans-Serif" font-size="10.00">::disable</text>
</a>
</g>
</g>
<!-- Node22&#45;&gt;Node23 -->
<g id="edge22_Node000022_Node000023" class="edge">
<title>Node22&#45;&gt;Node23</title>
<g id="a_edge22_Node000022_Node000023"><a xlink:title=" ">
<path fill="none" stroke="#63b8ff" d="M489.15,-106C497.69,-106 506.44,-106 515.1,-106"/>
<polygon fill="#63b8ff" stroke="#63b8ff" points="515.2,-109.5 525.2,-106 515.2,-102.5 515.2,-109.5"/>
</a>
</g>
</g>
<!-- Node30 -->
<g id="Node000030" class="node">
<title>Node30</title>
<g id="a_Node000030"><a xlink:href="classcore_1_1DescriptorEventReceiver.html#ac5dc7e86ddad09f5bd3eeb0c74f2e7f9" target="_top" xlink:title=" ">
<polygon fill="white" stroke="#666666" points="676.5,-73 525.5,-73 525.5,-43 676.5,-43 676.5,-73"/>
<text text-anchor="start" x="533.5" y="-61" font-family="Helvetica,sans-Serif" font-size="10.00">core::DescriptorEventReceiver</text>
<text text-anchor="middle" x="601" y="-50" font-family="Helvetica,sans-Serif" font-size="10.00">::isEnabled</text>
</a>
</g>
</g>
<!-- Node22&#45;&gt;Node30 -->
<g id="edge32_Node000022_Node000030" class="edge">
<title>Node22&#45;&gt;Node30</title>
<g id="a_edge32_Node000022_Node000030"><a xlink:title=" ">
<path fill="none" stroke="#63b8ff" d="M472.68,-90.94C491.59,-86.05 512.73,-80.58 532.27,-75.52"/>
<polygon fill="#63b8ff" stroke="#63b8ff" points="533.22,-78.9 542.02,-73 531.46,-72.12 533.22,-78.9"/>
</a>
</g>
</g>
<!-- Node23&#45;&gt;Node13 -->
<g id="edge26_Node000023_Node000013" class="edge">
<title>Node23&#45;&gt;Node13</title>
<g id="a_edge26_Node000023_Node000013"><a xlink:title=" ">
<path fill="none" stroke="#63b8ff" d="M660.34,-121.06C679.3,-125.95 700.5,-131.42 720.09,-136.48"/>
<polygon fill="#63b8ff" stroke="#63b8ff" points="719.31,-139.89 729.87,-139 721.06,-133.11 719.31,-139.89"/>
</a>
</g>
</g>
<!-- Node24 -->
<g id="Node000024" class="node">
<title>Node24</title>
<g id="a_Node000024"><a xlink:href="classcore_1_1DescriptorEventPublisher.html#a998d681666ff72ed73cf0799ff4aca77" target="_top" xlink:title=" ">
<polygon fill="white" stroke="#666666" points="865,-121 713,-121 713,-91 865,-91 865,-121"/>
<text text-anchor="start" x="721" y="-109" font-family="Helvetica,sans-Serif" font-size="10.00">core::DescriptorEventPublisher</text>
<text text-anchor="middle" x="789" y="-98" font-family="Helvetica,sans-Serif" font-size="10.00">::disable</text>
</a>
</g>
</g>
<!-- Node23&#45;&gt;Node24 -->
<g id="edge23_Node000023_Node000024" class="edge">
<title>Node23&#45;&gt;Node24</title>
<g id="a_edge23_Node000023_Node000024"><a xlink:title=" ">
<path fill="none" stroke="#63b8ff" d="M676.58,-106C685.15,-106 693.94,-106 702.64,-106"/>
<polygon fill="#63b8ff" stroke="#63b8ff" points="702.79,-109.5 712.79,-106 702.79,-102.5 702.79,-109.5"/>
</a>
</g>
</g>
<!-- Node25 -->
<g id="Node000025" class="node">
<title>Node25</title>
<g id="a_Node000025"><a xlink:href="classcore_1_1EventReceiver.html#a0735c234c7848cf4d45473a6f7ce11b2" target="_top" xlink:title=" ">
<polygon fill="white" stroke="#666666" points="1030,-30 924,-30 924,0 1030,0 1030,-30"/>
<text text-anchor="start" x="932" y="-18" font-family="Helvetica,sans-Serif" font-size="10.00">core::EventReceiver</text>
<text text-anchor="middle" x="977" y="-7" font-family="Helvetica,sans-Serif" font-size="10.00">::getName</text>
</a>
</g>
</g>
<!-- Node23&#45;&gt;Node25 -->
<g id="edge24_Node000023_Node000025" class="edge">
<title>Node23&#45;&gt;Node25</title>
<g id="a_edge24_Node000023_Node000025"><a xlink:title=" ">
<path fill="none" stroke="#63b8ff" d="M661.42,-90.88C666.91,-88.35 672.21,-85.41 677,-82 698.73,-66.54 689.59,-46.78 713,-34 774.94,-0.18 857.65,-0.21 913.65,-5.57"/>
<polygon fill="#63b8ff" stroke="#63b8ff" points="913.48,-9.07 923.79,-6.63 914.21,-2.11 913.48,-9.07"/>
</a>
</g>
</g>
<!-- Node27 -->
<g id="Node000027" class="node">
<title>Node27</title>
<g id="a_Node000027"><a xlink:href="classcore_1_1DescriptorEventReceiver.html#aab5e466759c83194c5bc4b41f1a33103" target="_top" xlink:title=" ">
<polygon fill="white" stroke="#666666" points="864.5,-73 713.5,-73 713.5,-43 864.5,-43 864.5,-73"/>
<text text-anchor="start" x="721.5" y="-61" font-family="Helvetica,sans-Serif" font-size="10.00">core::DescriptorEventReceiver</text>
<text text-anchor="middle" x="789" y="-50" font-family="Helvetica,sans-Serif" font-size="10.00">::suspend</text>
</a>
</g>
</g>
<!-- Node23&#45;&gt;Node27 -->
<g id="edge27_Node000023_Node000027" class="edge">
<title>Node23&#45;&gt;Node27</title>
<g id="a_edge27_Node000023_Node000027"><a xlink:title=" ">
<path fill="none" stroke="#63b8ff" d="M660.34,-90.94C679.3,-86.05 700.5,-80.58 720.09,-75.52"/>
<polygon fill="#63b8ff" stroke="#63b8ff" points="721.06,-78.89 729.87,-73 719.31,-72.11 721.06,-78.89"/>
</a>
</g>
</g>
<!-- Node26 -->
<g id="Node000026" class="node">
<title>Node26</title>
<g id="a_Node000026"><a xlink:href="classcore_1_1Event.html#a0ab010154200ef32e875dc673e921c94" target="_top" xlink:title=" ">
<polygon fill="white" stroke="#666666" points="1221.5,-24.5 1108.5,-24.5 1108.5,-5.5 1221.5,-5.5 1221.5,-24.5"/>
<text text-anchor="middle" x="1165" y="-12.5" font-family="Helvetica,sans-Serif" font-size="10.00">core::Event::getName</text>
</a>
</g>
</g>
<!-- Node25&#45;&gt;Node26 -->
<g id="edge25_Node000025_Node000026" class="edge">
<title>Node25&#45;&gt;Node26</title>
<g id="a_edge25_Node000025_Node000026"><a xlink:title=" ">
<path fill="none" stroke="#63b8ff" d="M1030.31,-15C1051.36,-15 1075.89,-15 1098.14,-15"/>
<polygon fill="#63b8ff" stroke="#63b8ff" points="1098.19,-18.5 1108.19,-15 1098.19,-11.5 1098.19,-18.5"/>
</a>
</g>
</g>
<!-- Node27&#45;&gt;Node25 -->
<g id="edge28_Node000027_Node000025" class="edge">
<title>Node27&#45;&gt;Node25</title>
<g id="a_edge28_Node000027_Node000025"><a xlink:title=" ">
<path fill="none" stroke="#63b8ff" d="M855.05,-42.96C874.15,-38.55 894.97,-33.73 913.87,-29.36"/>
<polygon fill="#63b8ff" stroke="#63b8ff" points="914.91,-32.72 923.86,-27.05 913.33,-25.9 914.91,-32.72"/>
</a>
</g>
</g>
<!-- Node28 -->
<g id="Node000028" class="node">
<title>Node28</title>
<g id="a_Node000028"><a xlink:href="classcore_1_1Observer.html#a12bf1ddfdb90f05f28d16c09ce0658f8" target="_top" xlink:title=" ">
<polygon fill="white" stroke="#666666" points="1045.5,-67.5 908.5,-67.5 908.5,-48.5 1045.5,-48.5 1045.5,-67.5"/>
<text text-anchor="middle" x="977" y="-55.5" font-family="Helvetica,sans-Serif" font-size="10.00">core::Observer::isObserved</text>
</a>
</g>
</g>
<!-- Node27&#45;&gt;Node28 -->
<g id="edge29_Node000027_Node000028" class="edge">
<title>Node27&#45;&gt;Node28</title>
<g id="a_edge29_Node000027_Node000028"><a xlink:title=" ">
<path fill="none" stroke="#63b8ff" d="M864.58,-58C875.65,-58 887.07,-58 898.2,-58"/>
<polygon fill="#63b8ff" stroke="#63b8ff" points="898.32,-61.5 908.32,-58 898.32,-54.5 898.32,-61.5"/>
</a>
</g>
</g>
<!-- Node29 -->
<g id="Node000029" class="node">
<title>Node29</title>
<g id="a_Node000029"><a xlink:href="classcore_1_1DescriptorEventPublisher.html#ac1bfb115c6aba58d380862a43db457e8" target="_top" xlink:title=" ">
<polygon fill="white" stroke="#666666" points="1053,-142 901,-142 901,-112 1053,-112 1053,-142"/>
<text text-anchor="start" x="909" y="-130" font-family="Helvetica,sans-Serif" font-size="10.00">core::DescriptorEventPublisher</text>
<text text-anchor="middle" x="977" y="-119" font-family="Helvetica,sans-Serif" font-size="10.00">::suspend</text>
</a>
</g>
</g>
<!-- Node27&#45;&gt;Node29 -->
<g id="edge30_Node000027_Node000029" class="edge">
<title>Node27&#45;&gt;Node29</title>
<g id="a_edge30_Node000027_Node000029"><a xlink:title=" ">
<path fill="none" stroke="#63b8ff" d="M839,-73.09C847.7,-75.94 856.64,-78.97 865,-82 887.11,-90.01 911.35,-99.72 931.52,-108.07"/>
<polygon fill="#63b8ff" stroke="#63b8ff" points="930.19,-111.31 940.77,-111.92 932.88,-104.85 930.19,-111.31"/>
</a>
</g>
</g>
<!-- Node29&#45;&gt;Node15 -->
<g id="edge31_Node000029_Node000015" class="edge">
<title>Node29&#45;&gt;Node15</title>
<g id="a_edge31_Node000029_Node000015"><a xlink:title=" ">
<path fill="none" stroke="#63b8ff" d="M1053.12,-141.13C1061.6,-142.73 1070.28,-144.36 1078.87,-145.98"/>
<polygon fill="#63b8ff" stroke="#63b8ff" points="1078.43,-149.46 1088.9,-147.87 1079.72,-142.58 1078.43,-149.46"/>
</a>
</g>
</g>
<!-- Node31&#45;&gt;Node19 -->
<g id="edge35_Node000031_Node000019" class="edge">
<title>Node31&#45;&gt;Node19</title>
<g id="a_edge35_Node000031_Node000019"><a xlink:title=" ">
<path fill="none" stroke="#63b8ff" d="M292.14,-210.05C306.64,-210.29 322.14,-210.54 337.02,-210.78"/>
<polygon fill="#63b8ff" stroke="#63b8ff" points="337.15,-214.28 347.2,-210.94 337.26,-207.28 337.15,-214.28"/>
</a>
</g>
</g>
<!-- Node32 -->
<g id="Node000032" class="node">
<title>Node32</title>
<g id="a_Node000032"><a xlink:href="classcore_1_1TimerEventPublisher.html#af8725b379e9302f110a8c11e4662a217" target="_top" xlink:title=" ">
<polygon fill="white" stroke="#666666" points="479.5,-179 347.5,-179 347.5,-149 479.5,-149 479.5,-179"/>
<text text-anchor="start" x="355.5" y="-167" font-family="Helvetica,sans-Serif" font-size="10.00">core::TimerEventPublisher</text>
<text text-anchor="middle" x="413.5" y="-156" font-family="Helvetica,sans-Serif" font-size="10.00">::remove</text>
</a>
</g>
</g>
<!-- Node31&#45;&gt;Node32 -->
<g id="edge34_Node000031_Node000032" class="edge">
<title>Node31&#45;&gt;Node32</title>
<g id="a_edge34_Node000031_Node000032"><a xlink:title=" ">
<path fill="none" stroke="#63b8ff" d="M289.03,-193.95C305.58,-189.94 323.6,-185.57 340.64,-181.43"/>
<polygon fill="#63b8ff" stroke="#63b8ff" points="341.64,-184.79 350.53,-179.03 339.99,-177.99 341.64,-184.79"/>
</a>
</g>
</g>
</g>
</svg>
