<?xml version="1.0" encoding="UTF-8" standalone="no"?>
<!DOCTYPE svg PUBLIC "-//W3C//DTD SVG 1.1//EN"
 "http://www.w3.org/Graphics/SVG/1.1/DTD/svg11.dtd">
<!-- Generated by graphviz version 2.42.4 (0)
 -->
<!-- Title: net::config::stream::tls::ConfigSocketClient&lt; ConfigSocketClientBaseT &gt; Pages: 1 -->
<svg width="351pt" height="427pt"
 viewBox="0.00 0.00 351.00 427.00" xmlns="http://www.w3.org/2000/svg" xmlns:xlink="http://www.w3.org/1999/xlink">
<g id="graph0" class="graph" transform="scale(1 1) rotate(0) translate(4 423)">
<title>net::config::stream::tls::ConfigSocketClient&lt; ConfigSocketClientBaseT &gt;</title>
<!-- Node1 -->
<g id="Node000001" class="node">
<title>Node1</title>
<g id="a_Node000001"><a xlink:title=" ">
<polygon fill="#999999" stroke="transparent" points="209,-41 69,-41 69,0 209,0 209,-41"/>
<text text-anchor="start" x="73" y="-28.5" font-family="Helvetica,sans-Serif" font-size="10.00">net::config::stream</text>
<text text-anchor="start" x="73" y="-17.5" font-family="Helvetica,sans-Serif" font-size="10.00">::tls::ConfigSocketClient</text>
<text text-anchor="start" x="73" y="-6.5" font-family="Helvetica,sans-Serif" font-size="10.00">&lt; ConfigSocketClientBaseT &gt;</text>
<polygon fill="none" stroke="#666666" points="69,0 69,-41 209,-41 209,0 69,0"/>
</a>
</g>
</g>
<!-- Node2 -->
<g id="Node000002" class="node">
<title>Node2</title>
<g id="a_Node000002"><a xlink:href="classnet_1_1config_1_1ConfigInstance.html" target="_top" xlink:title=" ">
<polygon fill="white" stroke="transparent" points="126,-275 0,-275 0,-256 126,-256 126,-275"/>
<text text-anchor="start" x="4" y="-262.5" font-family="Helvetica,sans-Serif" font-size="10.00">net::config::ConfigInstance</text>
<polygon fill="none" stroke="#666666" points="0,-256 0,-275 126,-275 126,-256 0,-256"/>
</a>
</g>
</g>
<!-- Node2&#45;&gt;Node1 -->
<g id="edge1_Node000001_Node000002" class="edge">
<title>Node2&#45;&gt;Node1</title>
<g id="a_edge1_Node000001_Node000002"><a xlink:title=" ">
<path fill="none" stroke="#63b8ff" d="M55.91,-246.23C51.63,-233.59 47,-216.27 47,-200.5 47,-200.5 47,-200.5 47,-86.5 47,-65.87 62.62,-51.2 81,-41.09"/>
<polygon fill="none" stroke="#63b8ff" points="52.74,-247.77 59.45,-255.97 59.32,-245.38 52.74,-247.77"/>
</a>
</g>
</g>
<!-- Node8 -->
<g id="Node000008" class="node">
<title>Node8</title>
<g id="a_Node000008"><a xlink:href="classnet_1_1config_1_1ConfigSection.html" target="_top" xlink:title=" ">
<polygon fill="white" stroke="transparent" points="198,-209 76,-209 76,-190 198,-190 198,-209"/>
<text text-anchor="start" x="80" y="-196.5" font-family="Helvetica,sans-Serif" font-size="10.00">net::config::ConfigSection</text>
<polygon fill="none" stroke="#666666" points="76,-190 76,-209 198,-209 198,-190 76,-190"/>
</a>
</g>
</g>
<!-- Node2&#45;&gt;Node8 -->
<g id="edge8_Node000008_Node000002" class="edge">
<title>Node2&#45;&gt;Node8</title>
<g id="a_edge8_Node000008_Node000002"><a xlink:title=" ">
<path fill="none" stroke="#63b8ff" d="M72.98,-255.87C84.28,-246.09 102.98,-229.92 117.26,-217.58"/>
<polygon fill="none" stroke="#63b8ff" points="117.63,-217.26 119.55,-210.3 126.7,-209.41 124.78,-216.36 117.63,-217.26"/>
</a>
</g>
<text text-anchor="middle" x="126.5" y="-230" font-family="Helvetica,sans-Serif" font-size="10.00" fill="grey"> &#45;instance</text>
</g>
<!-- Node3 -->
<g id="Node000003" class="node">
<title>Node3</title>
<g id="a_Node000003"><a xlink:title=" ">
<polygon fill="white" stroke="transparent" points="89,-352 37,-352 37,-333 89,-333 89,-352"/>
<text text-anchor="start" x="41" y="-339.5" font-family="Helvetica,sans-Serif" font-size="10.00">std::string</text>
<polygon fill="none" stroke="#666666" points="37,-333 37,-352 89,-352 89,-333 37,-333"/>
</a>
</g>
</g>
<!-- Node3&#45;&gt;Node2 -->
<g id="edge2_Node000002_Node000003" class="edge">
<title>Node3&#45;&gt;Node2</title>
<g id="a_edge2_Node000002_Node000003"><a xlink:title=" ">
<path fill="none" stroke="#63b8ff" d="M63,-332.9C63,-321.82 63,-302.21 63,-287.16"/>
<polygon fill="none" stroke="#63b8ff" points="63,-287 59,-281 63,-275 67,-281 63,-287"/>
</a>
</g>
<text text-anchor="middle" x="102.5" y="-307" font-family="Helvetica,sans-Serif" font-size="10.00" fill="grey"> &#45;instanceName</text>
<text text-anchor="middle" x="102.5" y="-296" font-family="Helvetica,sans-Serif" font-size="10.00" fill="grey">&#45;nameAnonymous</text>
</g>
<!-- Node4 -->
<g id="Node000004" class="node">
<title>Node4</title>
<g id="a_Node000004"><a xlink:title=" ">
<polygon fill="white" stroke="transparent" points="107,-419 19,-419 19,-389 107,-389 107,-419"/>
<text text-anchor="start" x="23.5" y="-407" font-family="Helvetica,sans-Serif" font-size="10.00">std::basic_string&lt;</text>
<text text-anchor="start" x="46" y="-396" font-family="Helvetica,sans-Serif" font-size="10.00"> Char &gt;</text>
<polygon fill="none" stroke="#666666" points="19,-389 19,-419 107,-419 107,-389 19,-389"/>
</a>
</g>
</g>
<!-- Node4&#45;&gt;Node3 -->
<g id="edge3_Node000003_Node000004" class="edge">
<title>Node4&#45;&gt;Node3</title>
<g id="a_edge3_Node000003_Node000004"><a xlink:title=" ">
<path fill="none" stroke="#63b8ff" d="M63,-378.79C63,-369.36 63,-359.15 63,-352.16"/>
<polygon fill="none" stroke="#63b8ff" points="59.5,-378.9 63,-388.9 66.5,-378.9 59.5,-378.9"/>
</a>
</g>
</g>
<!-- Node5 -->
<g id="Node000005" class="node">
<title>Node5</title>
<g id="a_Node000005"><a xlink:title=" ">
<polygon fill="white" stroke="transparent" points="343,-97 221,-97 221,-78 343,-78 343,-97"/>
<text text-anchor="start" x="225" y="-84.5" font-family="Helvetica,sans-Serif" font-size="10.00">ConfigSocketClientBaseT</text>
<polygon fill="none" stroke="#666666" points="221,-78 221,-97 343,-97 343,-78 221,-78"/>
</a>
</g>
</g>
<!-- Node5&#45;&gt;Node1 -->
<g id="edge4_Node000001_Node000005" class="edge">
<title>Node5&#45;&gt;Node1</title>
<g id="a_edge4_Node000001_Node000005"><a xlink:title=" ">
<path fill="none" stroke="#63b8ff" d="M253.65,-73.61C233.24,-64.34 205.34,-51.66 182.18,-41.13"/>
<polygon fill="none" stroke="#63b8ff" points="252.46,-76.92 263.01,-77.87 255.36,-70.54 252.46,-76.92"/>
</a>
</g>
</g>
<!-- Node6 -->
<g id="Node000006" class="node">
<title>Node6</title>
<g id="a_Node000006"><a xlink:href="classnet_1_1config_1_1ConfigTlsClient.html" target="_top" xlink:title=" ">
<polygon fill="white" stroke="transparent" points="203,-97 75,-97 75,-78 203,-78 203,-97"/>
<text text-anchor="start" x="79" y="-84.5" font-family="Helvetica,sans-Serif" font-size="10.00">net::config::ConfigTlsClient</text>
<polygon fill="none" stroke="#666666" points="75,-78 75,-97 203,-97 203,-78 75,-78"/>
</a>
</g>
</g>
<!-- Node6&#45;&gt;Node1 -->
<g id="edge5_Node000001_Node000006" class="edge">
<title>Node6&#45;&gt;Node1</title>
<g id="a_edge5_Node000001_Node000006"><a xlink:title=" ">
<path fill="none" stroke="#63b8ff" d="M139,-67.54C139,-59.21 139,-49.44 139,-41.04"/>
<polygon fill="none" stroke="#63b8ff" points="135.5,-67.73 139,-77.73 142.5,-67.73 135.5,-67.73"/>
</a>
</g>
</g>
<!-- Node7 -->
<g id="Node000007" class="node">
<title>Node7</title>
<g id="a_Node000007"><a xlink:href="classnet_1_1config_1_1ConfigTls.html" target="_top" xlink:title=" ">
<polygon fill="white" stroke="transparent" points="189,-153 87,-153 87,-134 189,-134 189,-153"/>
<text text-anchor="start" x="91" y="-140.5" font-family="Helvetica,sans-Serif" font-size="10.00">net::config::ConfigTls</text>
<polygon fill="none" stroke="#666666" points="87,-134 87,-153 189,-153 189,-134 87,-134"/>
</a>
</g>
</g>
<!-- Node7&#45;&gt;Node6 -->
<g id="edge6_Node000006_Node000007" class="edge">
<title>Node7&#45;&gt;Node6</title>
<g id="a_edge6_Node000006_Node000007"><a xlink:title=" ">
<path fill="none" stroke="#63b8ff" d="M138.36,-123.3C138.52,-114.41 138.71,-104.28 138.84,-97.25"/>
<polygon fill="none" stroke="#63b8ff" points="134.85,-123.52 138.17,-133.58 141.85,-123.65 134.85,-123.52"/>
</a>
</g>
</g>
<!-- Node8&#45;&gt;Node7 -->
<g id="edge7_Node000007_Node000008" class="edge">
<title>Node8&#45;&gt;Node7</title>
<g id="a_edge7_Node000007_Node000008"><a xlink:title=" ">
<path fill="none" stroke="darkgreen" d="M137.36,-179.3C137.52,-170.41 137.71,-160.28 137.84,-153.25"/>
<polygon fill="none" stroke="darkgreen" points="133.85,-179.52 137.17,-189.58 140.85,-179.65 133.85,-179.52"/>
</a>
</g>
</g>
</g>
</svg>
