<?xml version="1.0" encoding="UTF-8" standalone="no"?>
<!DOCTYPE svg PUBLIC "-//W3C//DTD SVG 1.1//EN"
 "http://www.w3.org/Graphics/SVG/1.1/DTD/svg11.dtd">
<!-- Generated by graphviz version 2.43.0 (0)
 -->
<!-- Title: iot::mqtt::FixedHeader::isComplete Pages: 1 -->
<svg width="607pt" height="134pt"
 viewBox="0.00 0.00 607.00 134.00" xmlns="http://www.w3.org/2000/svg" xmlns:xlink="http://www.w3.org/1999/xlink">
<g id="graph0" class="graph" transform="scale(1 1) rotate(0) translate(4 130)">
<title>iot::mqtt::FixedHeader::isComplete</title>
<!-- Node1 -->
<g id="Node000001" class="node">
<title>Node1</title>
<g id="a_Node000001"><a xlink:title=" ">
<polygon fill="#999999" stroke="#666666" points="599,-78 485,-78 485,-48 599,-48 599,-78"/>
<text text-anchor="start" x="493" y="-66" font-family="Helvetica,sans-Serif" font-size="10.00">iot::mqtt::FixedHeader</text>
<text text-anchor="middle" x="542" y="-55" font-family="Helvetica,sans-Serif" font-size="10.00">::isComplete</text>
</a>
</g>
</g>
<!-- Node2 -->
<g id="Node000002" class="node">
<title>Node2</title>
<g id="a_Node000002"><a xlink:href="classiot_1_1mqtt_1_1Mqtt.html#a40738c730fe9ee2aafb9dd4958d91d8f" target="_top" xlink:title=" ">
<polygon fill="white" stroke="#666666" points="449,-78 313,-78 313,-48 449,-48 449,-78"/>
<text text-anchor="start" x="321" y="-66" font-family="Helvetica,sans-Serif" font-size="10.00">iot::mqtt::Mqtt::onReceived</text>
<text text-anchor="middle" x="381" y="-55" font-family="Helvetica,sans-Serif" font-size="10.00">FromPeer</text>
</a>
</g>
</g>
<!-- Node1&#45;&gt;Node2 -->
<g id="edge1_Node000001_Node000002" class="edge">
<title>Node1&#45;&gt;Node2</title>
<g id="a_edge1_Node000001_Node000002"><a xlink:title=" ">
<path fill="none" stroke="#63b8ff" d="M474.79,-63C466.35,-63 457.72,-63 449.27,-63"/>
<polygon fill="#63b8ff" stroke="#63b8ff" points="474.94,-66.5 484.94,-63 474.94,-59.5 474.94,-66.5"/>
</a>
</g>
</g>
<!-- Node3 -->
<g id="Node000003" class="node">
<title>Node3</title>
<g id="a_Node000003"><a xlink:href="classiot_1_1mqtt_1_1MqttContext.html#a614ee4495a17d7f004355578f73cc29c" target="_top" xlink:title=" ">
<polygon fill="white" stroke="#666666" points="277,-78 160,-78 160,-48 277,-48 277,-78"/>
<text text-anchor="start" x="168" y="-66" font-family="Helvetica,sans-Serif" font-size="10.00">iot::mqtt::MqttContext</text>
<text text-anchor="middle" x="218.5" y="-55" font-family="Helvetica,sans-Serif" font-size="10.00">::onReceivedFromPeer</text>
</a>
</g>
</g>
<!-- Node2&#45;&gt;Node3 -->
<g id="edge2_Node000002_Node000003" class="edge">
<title>Node2&#45;&gt;Node3</title>
<g id="a_edge2_Node000002_Node000003"><a xlink:title=" ">
<path fill="none" stroke="#63b8ff" d="M302.79,-63C294.17,-63 285.51,-63 277.2,-63"/>
<polygon fill="#63b8ff" stroke="#63b8ff" points="302.86,-66.5 312.86,-63 302.86,-59.5 302.86,-66.5"/>
</a>
</g>
</g>
<!-- Node4 -->
<g id="Node000004" class="node">
<title>Node4</title>
<g id="a_Node000004"><a xlink:href="classiot_1_1mqtt_1_1SubProtocol.html#ad05d4435c7512624bb216d72b54e2eae" target="_top" xlink:title=" ">
<polygon fill="white" stroke="#666666" points="118,-126 6,-126 6,-96 118,-96 118,-126"/>
<text text-anchor="start" x="14" y="-114" font-family="Helvetica,sans-Serif" font-size="10.00">iot::mqtt::SubProtocol</text>
<text text-anchor="middle" x="62" y="-103" font-family="Helvetica,sans-Serif" font-size="10.00">::onMessageEnd</text>
</a>
</g>
</g>
<!-- Node3&#45;&gt;Node4 -->
<g id="edge3_Node000003_Node000004" class="edge">
<title>Node3&#45;&gt;Node4</title>
<g id="a_edge3_Node000003_Node000004"><a xlink:title=" ">
<path fill="none" stroke="#63b8ff" d="M159.35,-81.07C143.51,-85.99 126.52,-91.27 111.29,-96"/>
<polygon fill="#63b8ff" stroke="#63b8ff" points="160.53,-84.37 169.04,-78.06 158.45,-77.68 160.53,-84.37"/>
</a>
</g>
</g>
<!-- Node5 -->
<g id="Node000005" class="node">
<title>Node5</title>
<g id="a_Node000005"><a xlink:href="classiot_1_1mqtt_1_1SocketContext.html#ad63d9385473ba0841de03dc9af0c467e" target="_top" xlink:title=" ">
<polygon fill="white" stroke="#666666" points="124,-78 0,-78 0,-48 124,-48 124,-78"/>
<text text-anchor="start" x="8" y="-66" font-family="Helvetica,sans-Serif" font-size="10.00">iot::mqtt::SocketContext</text>
<text text-anchor="middle" x="62" y="-55" font-family="Helvetica,sans-Serif" font-size="10.00">::onReceivedFromPeer</text>
</a>
</g>
</g>
<!-- Node3&#45;&gt;Node5 -->
<g id="edge4_Node000003_Node000005" class="edge">
<title>Node3&#45;&gt;Node5</title>
<g id="a_edge4_Node000003_Node000005"><a xlink:title=" ">
<path fill="none" stroke="#63b8ff" d="M149.72,-63C141.23,-63 132.58,-63 124.2,-63"/>
<polygon fill="#63b8ff" stroke="#63b8ff" points="149.97,-66.5 159.97,-63 149.97,-59.5 149.97,-66.5"/>
</a>
</g>
</g>
<!-- Node6 -->
<g id="Node000006" class="node">
<title>Node6</title>
<g id="a_Node000006"><a xlink:href="classiot_1_1mqtt_1_1SubProtocol.html#abcfe4fc7236ee728417d9d5c36d025c9" target="_top" xlink:title=" ">
<polygon fill="white" stroke="#666666" points="118,-30 6,-30 6,0 118,0 118,-30"/>
<text text-anchor="start" x="14" y="-18" font-family="Helvetica,sans-Serif" font-size="10.00">iot::mqtt::SubProtocol</text>
<text text-anchor="middle" x="62" y="-7" font-family="Helvetica,sans-Serif" font-size="10.00">::SubProtocol</text>
</a>
</g>
</g>
<!-- Node3&#45;&gt;Node6 -->
<g id="edge5_Node000003_Node000006" class="edge">
<title>Node3&#45;&gt;Node6</title>
<g id="a_edge5_Node000003_Node000006"><a xlink:title=" ">
<path fill="none" stroke="#63b8ff" d="M159.35,-44.93C143.51,-40.01 126.52,-34.73 111.29,-30"/>
<polygon fill="#63b8ff" stroke="#63b8ff" points="158.45,-48.32 169.04,-47.94 160.53,-41.63 158.45,-48.32"/>
</a>
</g>
</g>
</g>
</svg>
