<?xml version="1.0" encoding="UTF-8" standalone="no"?>
<!DOCTYPE svg PUBLIC "-//W3C//DTD SVG 1.1//EN"
 "http://www.w3.org/Graphics/SVG/1.1/DTD/svg11.dtd">
<!-- Generated by graphviz version 2.43.0 (0)
 -->
<!-- Title: iot::mqtt::packets::Unsuback::Unsuback Pages: 1 -->
<svg width="436pt" height="86pt"
 viewBox="0.00 0.00 436.00 86.00" xmlns="http://www.w3.org/2000/svg" xmlns:xlink="http://www.w3.org/1999/xlink">
<g id="graph0" class="graph" transform="scale(1 1) rotate(0) translate(4 82)">
<title>iot::mqtt::packets::Unsuback::Unsuback</title>
<!-- Node1 -->
<g id="Node000001" class="node">
<title>Node1</title>
<g id="a_Node000001"><a xlink:title=" ">
<polygon fill="#999999" stroke="#666666" points="117,-54 0,-54 0,-24 117,-24 117,-54"/>
<text text-anchor="start" x="8" y="-42" font-family="Helvetica,sans-Serif" font-size="10.00">iot::mqtt::packets</text>
<text text-anchor="middle" x="58.5" y="-31" font-family="Helvetica,sans-Serif" font-size="10.00">::Unsuback::Unsuback</text>
</a>
</g>
</g>
<!-- Node2 -->
<g id="Node000002" class="node">
<title>Node2</title>
<g id="a_Node000002"><a xlink:href="classiot_1_1mqtt_1_1types_1_1UInt16.html#a3c761614ff11a920e9aaba3eba90aa06" target="_top" xlink:title=" ">
<polygon fill="white" stroke="#666666" points="271,-78 153,-78 153,-48 271,-48 271,-78"/>
<text text-anchor="start" x="161" y="-66" font-family="Helvetica,sans-Serif" font-size="10.00">iot::mqtt::types::UInt16</text>
<text text-anchor="middle" x="212" y="-55" font-family="Helvetica,sans-Serif" font-size="10.00">::operator=</text>
</a>
</g>
</g>
<!-- Node1&#45;&gt;Node2 -->
<g id="edge1_Node000001_Node000002" class="edge">
<title>Node1&#45;&gt;Node2</title>
<g id="a_edge1_Node000001_Node000002"><a xlink:title=" ">
<path fill="none" stroke="#63b8ff" d="M117.21,-48.14C125.62,-49.47 134.35,-50.86 142.95,-52.22"/>
<polygon fill="#63b8ff" stroke="#63b8ff" points="142.53,-55.7 152.95,-53.8 143.62,-48.78 142.53,-55.7"/>
</a>
</g>
</g>
<!-- Node3 -->
<g id="Node000003" class="node">
<title>Node3</title>
<g id="a_Node000003"><a xlink:href="classiot_1_1mqtt_1_1packets_1_1Unsuback.html#a555d45f086ea8b4ce8b56b6b00abb62d" target="_top" xlink:title=" ">
<polygon fill="white" stroke="#666666" points="270.5,-30 153.5,-30 153.5,0 270.5,0 270.5,-30"/>
<text text-anchor="start" x="161.5" y="-18" font-family="Helvetica,sans-Serif" font-size="10.00">iot::mqtt::packets</text>
<text text-anchor="middle" x="212" y="-7" font-family="Helvetica,sans-Serif" font-size="10.00">::Unsuback::Unsuback</text>
</a>
</g>
</g>
<!-- Node1&#45;&gt;Node3 -->
<g id="edge2_Node000001_Node000003" class="edge">
<title>Node1&#45;&gt;Node3</title>
<g id="a_edge2_Node000001_Node000003"><a xlink:title=" ">
<path fill="none" stroke="#63b8ff" d="M117.21,-29.86C125.74,-28.51 134.6,-27.1 143.32,-25.72"/>
<polygon fill="#63b8ff" stroke="#63b8ff" points="144.12,-29.14 153.45,-24.12 143.03,-22.22 144.12,-29.14"/>
</a>
</g>
</g>
<!-- Node4 -->
<g id="Node000004" class="node">
<title>Node4</title>
<g id="a_Node000004"><a xlink:href="classiot_1_1mqtt_1_1ControlPacket.html#ae14191916323940c9bacc11d7f517c5a" target="_top" xlink:title=" ">
<polygon fill="white" stroke="#666666" points="428,-30 307,-30 307,0 428,0 428,-30"/>
<text text-anchor="start" x="315" y="-18" font-family="Helvetica,sans-Serif" font-size="10.00">iot::mqtt::ControlPacket</text>
<text text-anchor="middle" x="367.5" y="-7" font-family="Helvetica,sans-Serif" font-size="10.00">::ControlPacket</text>
</a>
</g>
</g>
<!-- Node3&#45;&gt;Node4 -->
<g id="edge3_Node000003_Node000004" class="edge">
<title>Node3&#45;&gt;Node4</title>
<g id="a_edge3_Node000003_Node000004"><a xlink:title=" ">
<path fill="none" stroke="#63b8ff" d="M270.59,-15C279.09,-15 287.93,-15 296.64,-15"/>
<polygon fill="#63b8ff" stroke="#63b8ff" points="296.79,-18.5 306.79,-15 296.79,-11.5 296.79,-18.5"/>
</a>
</g>
</g>
</g>
</svg>
