<?xml version="1.0" encoding="UTF-8" standalone="no"?>
<!DOCTYPE svg PUBLIC "-//W3C//DTD SVG 1.1//EN"
 "http://www.w3.org/Graphics/SVG/1.1/DTD/svg11.dtd">
<!-- Generated by graphviz version 2.42.4 (0)
 -->
<!-- Title: net::rc::stream::config::ConfigSocketServer Pages: 1 -->
<svg width="682pt" height="791pt"
 viewBox="0.00 0.00 682.00 791.00" xmlns="http://www.w3.org/2000/svg" xmlns:xlink="http://www.w3.org/1999/xlink">
<g id="graph0" class="graph" transform="scale(1 1) rotate(0) translate(4 787)">
<title>net::rc::stream::config::ConfigSocketServer</title>
<!-- Node1 -->
<g id="Node000001" class="node">
<title>Node1</title>
<g id="a_Node000001"><a xlink:title=" ">
<polygon fill="#999999" stroke="transparent" points="388,-30 272,-30 272,0 388,0 388,-30"/>
<text text-anchor="start" x="276" y="-18" font-family="Helvetica,sans-Serif" font-size="10.00">net::rc::stream::config</text>
<text text-anchor="start" x="279" y="-7" font-family="Helvetica,sans-Serif" font-size="10.00">::ConfigSocketServer</text>
<polygon fill="none" stroke="#666666" points="272,0 272,-30 388,-30 388,0 272,0"/>
</a>
</g>
</g>
<!-- Node2 -->
<g id="Node000002" class="node">
<title>Node2</title>
<g id="a_Node000002"><a xlink:href="classnet_1_1config_1_1stream_1_1ConfigSocketServer.html" target="_top" xlink:title=" ">
<polygon fill="white" stroke="transparent" points="433,-119 227,-119 227,-67 433,-67 433,-119"/>
<text text-anchor="start" x="231" y="-107" font-family="Helvetica,sans-Serif" font-size="10.00">net::config::stream</text>
<text text-anchor="start" x="231" y="-96" font-family="Helvetica,sans-Serif" font-size="10.00">::ConfigSocketServer</text>
<text text-anchor="start" x="231" y="-85" font-family="Helvetica,sans-Serif" font-size="10.00">&lt; net::rc::config::ConfigAddress,</text>
<text text-anchor="start" x="231" y="-74" font-family="Helvetica,sans-Serif" font-size="10.00"> net::rc::config::ConfigAddressReverse &gt;</text>
<polygon fill="none" stroke="#666666" points="227,-67 227,-119 433,-119 433,-67 227,-67"/>
</a>
</g>
</g>
<!-- Node2&#45;&gt;Node1 -->
<g id="edge1_Node000001_Node000002" class="edge">
<title>Node2&#45;&gt;Node1</title>
<g id="a_edge1_Node000001_Node000002"><a xlink:title=" ">
<path fill="none" stroke="#63b8ff" d="M330,-56.46C330,-47.22 330,-37.78 330,-30.35"/>
<polygon fill="none" stroke="#63b8ff" points="326.5,-56.69 330,-66.69 333.5,-56.69 326.5,-56.69"/>
</a>
</g>
</g>
<!-- Node3 -->
<g id="Node000003" class="node">
<title>Node3</title>
<g id="a_Node000003"><a xlink:href="classnet_1_1rc_1_1config_1_1ConfigAddress.html" target="_top" xlink:title=" ">
<polygon fill="white" stroke="transparent" points="608,-186 422,-186 422,-156 608,-156 608,-186"/>
<text text-anchor="start" x="426.5" y="-174" font-family="Helvetica,sans-Serif" font-size="10.00">net::rc::config::ConfigAddress</text>
<text text-anchor="start" x="426.5" y="-163" font-family="Helvetica,sans-Serif" font-size="10.00">&lt; net::config::ConfigAddressLocal &gt;</text>
<polygon fill="none" stroke="#666666" points="422,-156 422,-186 608,-186 608,-156 422,-156"/>
</a>
</g>
</g>
<!-- Node3&#45;&gt;Node2 -->
<g id="edge2_Node000002_Node000003" class="edge">
<title>Node3&#45;&gt;Node2</title>
<g id="a_edge2_Node000002_Node000003"><a xlink:title=" ">
<path fill="none" stroke="#63b8ff" d="M471.13,-151.98C447.23,-142.16 417.29,-129.86 391.14,-119.12"/>
<polygon fill="none" stroke="#63b8ff" points="470.06,-155.32 480.64,-155.88 472.72,-148.85 470.06,-155.32"/>
</a>
</g>
</g>
<!-- Node4 -->
<g id="Node000004" class="node">
<title>Node4</title>
<g id="a_Node000004"><a xlink:href="classnet_1_1config_1_1ConfigAddressLocal.html" target="_top" xlink:title=" ">
<polygon fill="white" stroke="transparent" points="636,-293 470,-293 470,-263 636,-263 636,-293"/>
<text text-anchor="start" x="474.5" y="-281" font-family="Helvetica,sans-Serif" font-size="10.00">net::config::ConfigAddress</text>
<text text-anchor="start" x="474.5" y="-270" font-family="Helvetica,sans-Serif" font-size="10.00">Local&lt; net::rc::SocketAddress &gt;</text>
<polygon fill="none" stroke="#666666" points="470,-263 470,-293 636,-293 636,-263 470,-263"/>
</a>
</g>
</g>
<!-- Node4&#45;&gt;Node3 -->
<g id="edge3_Node000003_Node000004" class="edge">
<title>Node4&#45;&gt;Node3</title>
<g id="a_edge3_Node000003_Node000004"><a xlink:title=" ">
<path fill="none" stroke="#63b8ff" d="M544.71,-253.41C539.65,-239.1 533.02,-220.47 527,-204 524.84,-198.09 522.41,-191.59 520.31,-186"/>
<polygon fill="none" stroke="#63b8ff" points="541.46,-254.71 548.08,-262.98 548.06,-252.39 541.46,-254.71"/>
</a>
</g>
</g>
<!-- Node5 -->
<g id="Node000005" class="node">
<title>Node5</title>
<g id="a_Node000005"><a xlink:href="classnet_1_1config_1_1ConfigAddress.html" target="_top" xlink:title=" ">
<polygon fill="white" stroke="transparent" points="674,-389 534,-389 534,-359 674,-359 674,-389"/>
<text text-anchor="start" x="538.5" y="-377" font-family="Helvetica,sans-Serif" font-size="10.00">net::config::ConfigAddress</text>
<text text-anchor="start" x="538.5" y="-366" font-family="Helvetica,sans-Serif" font-size="10.00">&lt; net::rc::SocketAddress &gt;</text>
<polygon fill="none" stroke="#666666" points="534,-359 534,-389 674,-389 674,-359 534,-359"/>
</a>
</g>
</g>
<!-- Node5&#45;&gt;Node4 -->
<g id="edge4_Node000004_Node000005" class="edge">
<title>Node5&#45;&gt;Node4</title>
<g id="a_edge4_Node000004_Node000005"><a xlink:title=" ">
<path fill="none" stroke="#63b8ff" d="M591.29,-349.58C581.66,-331.83 568.75,-308.03 560.65,-293.1"/>
<polygon fill="none" stroke="#63b8ff" points="588.41,-351.6 596.25,-358.72 594.56,-348.26 588.41,-351.6"/>
</a>
</g>
</g>
<!-- Node6 -->
<g id="Node000006" class="node">
<title>Node6</title>
<g id="a_Node000006"><a xlink:href="classnet_1_1config_1_1ConfigAddressBase.html" target="_top" xlink:title=" ">
<polygon fill="white" stroke="transparent" points="564,-474 400,-474 400,-444 564,-444 564,-474"/>
<text text-anchor="start" x="404.5" y="-462" font-family="Helvetica,sans-Serif" font-size="10.00">net::config::ConfigAddress</text>
<text text-anchor="start" x="404.5" y="-451" font-family="Helvetica,sans-Serif" font-size="10.00">Base&lt; net::rc::SocketAddress &gt;</text>
<polygon fill="none" stroke="#666666" points="400,-444 400,-474 564,-474 564,-444 400,-444"/>
</a>
</g>
</g>
<!-- Node6&#45;&gt;Node5 -->
<g id="edge5_Node000005_Node000006" class="edge">
<title>Node6&#45;&gt;Node5</title>
<g id="a_edge5_Node000005_Node000006"><a xlink:title=" ">
<path fill="none" stroke="#63b8ff" d="M511.08,-438.21C533.29,-423.1 563.36,-402.65 583.2,-389.15"/>
<polygon fill="none" stroke="#63b8ff" points="508.99,-435.4 502.7,-443.92 512.93,-441.19 508.99,-435.4"/>
</a>
</g>
</g>
<!-- Node15 -->
<g id="Node000015" class="node">
<title>Node15</title>
<g id="a_Node000015"><a xlink:href="classnet_1_1config_1_1ConfigAddressReverse.html" target="_top" xlink:title=" ">
<polygon fill="white" stroke="transparent" points="516,-389 336,-389 336,-359 516,-359 516,-389"/>
<text text-anchor="start" x="340.5" y="-377" font-family="Helvetica,sans-Serif" font-size="10.00">net::config::ConfigAddress</text>
<text text-anchor="start" x="340.5" y="-366" font-family="Helvetica,sans-Serif" font-size="10.00">Reverse&lt; net::rc::SocketAddress &gt;</text>
<polygon fill="none" stroke="#666666" points="336,-359 336,-389 516,-389 516,-359 336,-359"/>
</a>
</g>
</g>
<!-- Node6&#45;&gt;Node15 -->
<g id="edge16_Node000015_Node000006" class="edge">
<title>Node6&#45;&gt;Node15</title>
<g id="a_edge16_Node000015_Node000006"><a xlink:title=" ">
<path fill="none" stroke="#63b8ff" d="M466.72,-435.35C456.76,-420.6 444.09,-401.81 435.55,-389.15"/>
<polygon fill="none" stroke="#63b8ff" points="464.01,-437.59 472.5,-443.92 469.81,-433.67 464.01,-437.59"/>
</a>
</g>
</g>
<!-- Node7 -->
<g id="Node000007" class="node">
<title>Node7</title>
<g id="a_Node000007"><a xlink:href="classnet_1_1config_1_1ConfigSection.html" target="_top" xlink:title=" ">
<polygon fill="white" stroke="transparent" points="386,-551 252,-551 252,-532 386,-532 386,-551"/>
<text text-anchor="start" x="256" y="-538.5" font-family="Helvetica,sans-Serif" font-size="10.00">net::config::ConfigSection</text>
<polygon fill="none" stroke="#666666" points="252,-532 252,-551 386,-551 386,-532 252,-532"/>
</a>
</g>
</g>
<!-- Node7&#45;&gt;Node6 -->
<g id="edge6_Node000006_Node000007" class="edge">
<title>Node7&#45;&gt;Node6</title>
<g id="a_edge6_Node000006_Node000007"><a xlink:title=" ">
<path fill="none" stroke="darkgreen" d="M345.77,-527.28C375.45,-512.62 423.15,-489.06 453.51,-474.07"/>
<polygon fill="none" stroke="darkgreen" points="343.86,-524.32 336.44,-531.89 346.96,-530.6 343.86,-524.32"/>
</a>
</g>
</g>
<!-- Node16 -->
<g id="Node000016" class="node">
<title>Node16</title>
<g id="a_Node000016"><a xlink:href="classnet_1_1config_1_1ConfigConnection.html" target="_top" xlink:title=" ">
<polygon fill="white" stroke="transparent" points="293,-426 139,-426 139,-407 293,-407 293,-426"/>
<text text-anchor="start" x="143.5" y="-413.5" font-family="Helvetica,sans-Serif" font-size="10.00">net::config::ConfigConnection</text>
<polygon fill="none" stroke="#666666" points="139,-407 139,-426 293,-426 293,-407 139,-407"/>
</a>
</g>
</g>
<!-- Node7&#45;&gt;Node16 -->
<g id="edge18_Node000016_Node000007" class="edge">
<title>Node7&#45;&gt;Node16</title>
<g id="a_edge18_Node000016_Node000007"><a xlink:title=" ">
<path fill="none" stroke="darkgreen" d="M294.82,-526.75C276.07,-514.96 250.72,-496.36 235,-474 224.52,-459.1 219.47,-437.98 217.34,-426.24"/>
<polygon fill="none" stroke="darkgreen" points="293.05,-529.78 303.42,-531.98 296.69,-523.8 293.05,-529.78"/>
</a>
</g>
</g>
<!-- Node18 -->
<g id="Node000018" class="node">
<title>Node18</title>
<g id="a_Node000018"><a xlink:href="classnet_1_1config_1_1ConfigPhysicalSocket.html" target="_top" xlink:title=" ">
<polygon fill="white" stroke="transparent" points="382,-474 244,-474 244,-444 382,-444 382,-474"/>
<text text-anchor="start" x="248" y="-462" font-family="Helvetica,sans-Serif" font-size="10.00">net::config::ConfigPhysical</text>
<text text-anchor="start" x="296.5" y="-451" font-family="Helvetica,sans-Serif" font-size="10.00">Socket</text>
<polygon fill="none" stroke="#666666" points="244,-444 244,-474 382,-474 382,-444 244,-444"/>
</a>
</g>
</g>
<!-- Node7&#45;&gt;Node18 -->
<g id="edge21_Node000018_Node000007" class="edge">
<title>Node7&#45;&gt;Node18</title>
<g id="a_edge21_Node000018_Node000007"><a xlink:title=" ">
<path fill="none" stroke="darkgreen" d="M317.59,-521.6C316.51,-507.1 315.04,-487.4 314.06,-474.22"/>
<polygon fill="none" stroke="darkgreen" points="314.12,-522.17 318.36,-531.89 321.1,-521.65 314.12,-522.17"/>
</a>
</g>
</g>
<!-- Node8 -->
<g id="Node000008" class="node">
<title>Node8</title>
<g id="a_Node000008"><a xlink:href="classnet_1_1config_1_1ConfigInstance.html" target="_top" xlink:title=" ">
<polygon fill="white" stroke="transparent" points="460,-628 320,-628 320,-609 460,-609 460,-628"/>
<text text-anchor="start" x="324.5" y="-615.5" font-family="Helvetica,sans-Serif" font-size="10.00">net::config::ConfigInstance</text>
<polygon fill="none" stroke="#666666" points="320,-609 320,-628 460,-628 460,-609 320,-609"/>
</a>
</g>
</g>
<!-- Node8&#45;&gt;Node7 -->
<g id="edge7_Node000007_Node000008" class="edge">
<title>Node8&#45;&gt;Node7</title>
<g id="a_edge7_Node000007_Node000008"><a xlink:title=" ">
<path fill="none" stroke="#63b8ff" d="M381.86,-608.9C370.62,-597.03 350.11,-575.36 335.58,-560.01"/>
<polygon fill="none" stroke="#63b8ff" points="335.3,-559.72 328.27,-558.11 327.05,-551 334.08,-552.61 335.3,-559.72"/>
</a>
</g>
<text text-anchor="middle" x="386.5" y="-583" font-family="Helvetica,sans-Serif" font-size="10.00" fill="grey"> &#45;instance</text>
</g>
<!-- Node9 -->
<g id="Node000009" class="node">
<title>Node9</title>
<g id="a_Node000009"><a xlink:title=" ">
<polygon fill="white" stroke="transparent" points="445,-710.5 387,-710.5 387,-691.5 445,-691.5 445,-710.5"/>
<text text-anchor="start" x="391.5" y="-698" font-family="Helvetica,sans-Serif" font-size="10.00">std::string</text>
<polygon fill="none" stroke="#666666" points="387,-691.5 387,-710.5 445,-710.5 445,-691.5 387,-691.5"/>
</a>
</g>
</g>
<!-- Node9&#45;&gt;Node8 -->
<g id="edge8_Node000008_Node000009" class="edge">
<title>Node9&#45;&gt;Node8</title>
<g id="a_edge8_Node000008_Node000009"><a xlink:title=" ">
<path fill="none" stroke="#63b8ff" d="M410.88,-691.3C407.36,-685.02 402.85,-676.22 400,-668 396.93,-659.15 394.67,-649.05 393.07,-640.37"/>
<polygon fill="none" stroke="#63b8ff" points="393.03,-640.11 388.12,-634.83 391.11,-628.27 396.02,-633.55 393.03,-640.11"/>
</a>
</g>
<text text-anchor="middle" x="445" y="-660" font-family="Helvetica,sans-Serif" font-size="10.00" fill="grey"> &#45;instanceName</text>
<text text-anchor="middle" x="445" y="-649" font-family="Helvetica,sans-Serif" font-size="10.00" fill="grey">&#45;nameAnonymous</text>
</g>
<!-- Node11 -->
<g id="Node000011" class="node">
<title>Node11</title>
<g id="a_Node000011"><a xlink:href="classnet_1_1rc_1_1SocketAddress.html" target="_top" xlink:title=" ">
<polygon fill="white" stroke="transparent" points="645,-628 527,-628 527,-609 645,-609 645,-628"/>
<text text-anchor="start" x="531.5" y="-615.5" font-family="Helvetica,sans-Serif" font-size="10.00">net::rc::SocketAddress</text>
<polygon fill="none" stroke="#666666" points="527,-609 527,-628 645,-628 645,-609 527,-609"/>
</a>
</g>
</g>
<!-- Node9&#45;&gt;Node11 -->
<g id="edge13_Node000011_Node000009" class="edge">
<title>Node9&#45;&gt;Node11</title>
<g id="a_edge13_Node000011_Node000009"><a xlink:title=" ">
<path fill="none" stroke="#63b8ff" d="M438.07,-691.41C452.98,-685.37 472.98,-676.83 490,-668 506.65,-659.37 509.39,-654.7 526,-646 534.77,-641.41 544.5,-636.88 553.53,-632.9"/>
<polygon fill="none" stroke="#63b8ff" points="553.83,-632.77 557.76,-626.73 564.85,-628.03 560.92,-634.08 553.83,-632.77"/>
</a>
</g>
<text text-anchor="middle" x="554" y="-654.5" font-family="Helvetica,sans-Serif" font-size="10.00" fill="grey"> &#45;btAddress</text>
</g>
<!-- Node10 -->
<g id="Node000010" class="node">
<title>Node10</title>
<g id="a_Node000010"><a xlink:title=" ">
<polygon fill="white" stroke="transparent" points="464,-783 368,-783 368,-753 464,-753 464,-783"/>
<text text-anchor="start" x="372" y="-771" font-family="Helvetica,sans-Serif" font-size="10.00">std::basic_string&lt;</text>
<text text-anchor="start" x="397.5" y="-760" font-family="Helvetica,sans-Serif" font-size="10.00"> Char &gt;</text>
<polygon fill="none" stroke="#666666" points="368,-753 368,-783 464,-783 464,-753 368,-753"/>
</a>
</g>
</g>
<!-- Node10&#45;&gt;Node9 -->
<g id="edge9_Node000009_Node000010" class="edge">
<title>Node10&#45;&gt;Node9</title>
<g id="a_edge9_Node000009_Node000010"><a xlink:title=" ">
<path fill="none" stroke="#63b8ff" d="M416,-742.75C416,-731.52 416,-718.88 416,-710.69"/>
<polygon fill="none" stroke="#63b8ff" points="412.5,-742.9 416,-752.9 419.5,-742.9 412.5,-742.9"/>
</a>
</g>
</g>
<!-- Node11&#45;&gt;Node5 -->
<g id="edge10_Node000005_Node000011" class="edge">
<title>Node11&#45;&gt;Node5</title>
<g id="a_edge10_Node000005_Node000011"><a xlink:title=" ">
<path fill="none" stroke="#63b8ff" d="M586.64,-608.87C589.11,-575.66 598.04,-455.27 602.04,-401.39"/>
<polygon fill="none" stroke="#63b8ff" points="602.06,-401.19 598.51,-394.91 602.94,-389.22 606.49,-395.5 602.06,-401.19"/>
</a>
</g>
<text text-anchor="middle" x="634" y="-495" font-family="Helvetica,sans-Serif" font-size="10.00" fill="grey"> &#45;socketAddress</text>
</g>
<!-- Node12 -->
<g id="Node000012" class="node">
<title>Node12</title>
<g id="a_Node000012"><a xlink:href="classnet_1_1SocketAddress.html" target="_top" xlink:title=" ">
<polygon fill="white" stroke="transparent" points="637,-716 535,-716 535,-686 637,-686 637,-716"/>
<text text-anchor="start" x="539" y="-704" font-family="Helvetica,sans-Serif" font-size="10.00">net::SocketAddress</text>
<text text-anchor="start" x="545" y="-693" font-family="Helvetica,sans-Serif" font-size="10.00">&lt; sockaddr_rc &gt;</text>
<polygon fill="none" stroke="#666666" points="535,-686 535,-716 637,-716 637,-686 535,-686"/>
</a>
</g>
</g>
<!-- Node12&#45;&gt;Node11 -->
<g id="edge11_Node000011_Node000012" class="edge">
<title>Node12&#45;&gt;Node11</title>
<g id="a_edge11_Node000011_Node000012"><a xlink:title=" ">
<path fill="none" stroke="#63b8ff" d="M586,-675.7C586,-659.7 586,-639.7 586,-628.38"/>
<polygon fill="none" stroke="#63b8ff" points="582.5,-675.98 586,-685.98 589.5,-675.98 582.5,-675.98"/>
</a>
</g>
</g>
<!-- Node13 -->
<g id="Node000013" class="node">
<title>Node13</title>
<g id="a_Node000013"><a xlink:href="classcore_1_1socket_1_1SocketAddress.html" target="_top" xlink:title=" ">
<polygon fill="white" stroke="transparent" points="658,-777.5 514,-777.5 514,-758.5 658,-758.5 658,-777.5"/>
<text text-anchor="start" x="518" y="-765" font-family="Helvetica,sans-Serif" font-size="10.00">core::socket::SocketAddress</text>
<polygon fill="none" stroke="#666666" points="514,-758.5 514,-777.5 658,-777.5 658,-758.5 514,-758.5"/>
</a>
</g>
</g>
<!-- Node13&#45;&gt;Node12 -->
<g id="edge12_Node000012_Node000013" class="edge">
<title>Node13&#45;&gt;Node12</title>
<g id="a_edge12_Node000012_Node000013"><a xlink:title=" ">
<path fill="none" stroke="#63b8ff" d="M586,-747.91C586,-737.72 586,-725.4 586,-716.09"/>
<polygon fill="none" stroke="#63b8ff" points="582.5,-748.23 586,-758.23 589.5,-748.23 582.5,-748.23"/>
</a>
</g>
</g>
<!-- Node14 -->
<g id="Node000014" class="node">
<title>Node14</title>
<g id="a_Node000014"><a xlink:href="classnet_1_1rc_1_1config_1_1ConfigAddressReverse.html" target="_top" xlink:title=" ">
<polygon fill="white" stroke="transparent" points="518,-245 330,-245 330,-204 518,-204 518,-245"/>
<text text-anchor="start" x="334" y="-232.5" font-family="Helvetica,sans-Serif" font-size="10.00">net::rc::config::ConfigAddress</text>
<text text-anchor="start" x="334" y="-221.5" font-family="Helvetica,sans-Serif" font-size="10.00">Reverse&lt; net::config::ConfigAddress</text>
<text text-anchor="start" x="398" y="-210.5" font-family="Helvetica,sans-Serif" font-size="10.00">Reverse &gt;</text>
<polygon fill="none" stroke="#666666" points="330,-204 330,-245 518,-245 518,-204 330,-204"/>
</a>
</g>
</g>
<!-- Node14&#45;&gt;Node2 -->
<g id="edge14_Node000002_Node000014" class="edge">
<title>Node14&#45;&gt;Node2</title>
<g id="a_edge14_Node000002_Node000014"><a xlink:title=" ">
<path fill="none" stroke="#63b8ff" d="M403.76,-195.61C387.28,-172.91 364.22,-141.14 348.29,-119.2"/>
<polygon fill="none" stroke="#63b8ff" points="401.02,-197.79 409.72,-203.83 406.68,-193.68 401.02,-197.79"/>
</a>
</g>
</g>
<!-- Node15&#45;&gt;Node14 -->
<g id="edge15_Node000014_Node000015" class="edge">
<title>Node15&#45;&gt;Node14</title>
<g id="a_edge15_Node000014_Node000015"><a xlink:title=" ">
<path fill="none" stroke="#63b8ff" d="M425.67,-348.8C425.28,-319.94 424.63,-272.23 424.27,-245.41"/>
<polygon fill="none" stroke="#63b8ff" points="422.17,-348.91 425.81,-358.86 429.17,-348.81 422.17,-348.91"/>
</a>
</g>
</g>
<!-- Node16&#45;&gt;Node2 -->
<g id="edge17_Node000002_Node000016" class="edge">
<title>Node16&#45;&gt;Node2</title>
<g id="a_edge17_Node000002_Node000016"><a xlink:title=" ">
<path fill="none" stroke="#63b8ff" d="M217.34,-396.75C218.5,-378.85 220,-351.1 220,-327 220,-327 220,-327 220,-170 220,-147.25 236.12,-130.78 256.02,-119.12"/>
<polygon fill="none" stroke="#63b8ff" points="213.83,-396.75 216.64,-406.96 220.82,-397.22 213.83,-396.75"/>
</a>
</g>
</g>
<!-- Node17 -->
<g id="Node000017" class="node">
<title>Node17</title>
<g id="a_Node000017"><a xlink:href="classnet_1_1config_1_1ConfigPhysicalSocketServer.html" target="_top" xlink:title=" ">
<polygon fill="white" stroke="transparent" points="378,-341 240,-341 240,-311 378,-311 378,-341"/>
<text text-anchor="start" x="244" y="-329" font-family="Helvetica,sans-Serif" font-size="10.00">net::config::ConfigPhysical</text>
<text text-anchor="start" x="277" y="-318" font-family="Helvetica,sans-Serif" font-size="10.00">SocketServer</text>
<polygon fill="none" stroke="#666666" points="240,-311 240,-341 378,-341 378,-311 240,-311"/>
</a>
</g>
</g>
<!-- Node17&#45;&gt;Node2 -->
<g id="edge19_Node000002_Node000017" class="edge">
<title>Node17&#45;&gt;Node2</title>
<g id="a_edge19_Node000002_Node000017"><a xlink:title=" ">
<path fill="none" stroke="#63b8ff" d="M311.2,-300.82C315.2,-256.83 323.62,-164.13 327.7,-119.32"/>
<polygon fill="none" stroke="#63b8ff" points="307.7,-300.62 310.28,-310.9 314.67,-301.26 307.7,-300.62"/>
</a>
</g>
</g>
<!-- Node18&#45;&gt;Node17 -->
<g id="edge20_Node000017_Node000018" class="edge">
<title>Node18&#45;&gt;Node17</title>
<g id="a_edge20_Node000017_Node000018"><a xlink:title=" ">
<path fill="none" stroke="#63b8ff" d="M312.26,-433.77C311.43,-406.63 310.12,-363.55 309.44,-341.32"/>
<polygon fill="none" stroke="#63b8ff" points="308.77,-434.09 312.57,-443.98 315.77,-433.88 308.77,-434.09"/>
</a>
</g>
</g>
<!-- Node19 -->
<g id="Node000019" class="node">
<title>Node19</title>
<g id="a_Node000019"><a xlink:title=" ">
<polygon fill="white" stroke="transparent" points="166,-562 0,-562 0,-521 166,-521 166,-562"/>
<text text-anchor="start" x="4.5" y="-549.5" font-family="Helvetica,sans-Serif" font-size="10.00">std::map&lt; int, std</text>
<text text-anchor="start" x="4.5" y="-538.5" font-family="Helvetica,sans-Serif" font-size="10.00">::map&lt; int, const net</text>
<text text-anchor="start" x="4.5" y="-527.5" font-family="Helvetica,sans-Serif" font-size="10.00">::phy::PhysicalSocketOption &gt; &gt;</text>
<polygon fill="none" stroke="#666666" points="0,-521 0,-562 166,-562 166,-521 0,-521"/>
</a>
</g>
</g>
<!-- Node19&#45;&gt;Node18 -->
<g id="edge22_Node000018_Node000019" class="edge">
<title>Node19&#45;&gt;Node18</title>
<g id="a_edge22_Node000018_Node000019"><a xlink:title=" ">
<path fill="none" stroke="#63b8ff" d="M123.4,-520.89C143.94,-511.39 169.47,-500.27 193,-492 208.32,-486.62 225.01,-481.63 240.94,-477.28"/>
<polygon fill="none" stroke="#63b8ff" points="241.34,-477.17 246.11,-471.76 252.93,-474.07 248.17,-479.49 241.34,-477.17"/>
</a>
</g>
<text text-anchor="middle" x="252" y="-495" font-family="Helvetica,sans-Serif" font-size="10.00" fill="grey"> &#45;socketOptionsMapMap</text>
</g>
</g>
</svg>
