<?xml version="1.0" encoding="UTF-8" standalone="no"?>
<!DOCTYPE svg PUBLIC "-//W3C//DTD SVG 1.1//EN"
 "http://www.w3.org/Graphics/SVG/1.1/DTD/svg11.dtd">
<!-- Generated by graphviz version 2.43.0 (0)
 -->
<!-- Title: net::in6::stream::config::ConfigSocketServer::ConfigSocketServer Pages: 1 -->
<svg width="521pt" height="230pt"
 viewBox="0.00 0.00 521.00 230.00" xmlns="http://www.w3.org/2000/svg" xmlns:xlink="http://www.w3.org/1999/xlink">
<g id="graph0" class="graph" transform="scale(1 1) rotate(0) translate(4 226)">
<title>net::in6::stream::config::ConfigSocketServer::ConfigSocketServer</title>
<!-- Node1 -->
<g id="Node000001" class="node">
<title>Node1</title>
<g id="a_Node000001"><a xlink:title=" ">
<polygon fill="#999999" stroke="#666666" points="176,-131.5 0,-131.5 0,-90.5 176,-90.5 176,-131.5"/>
<text text-anchor="start" x="8" y="-119.5" font-family="Helvetica,sans-Serif" font-size="10.00">net::in6::stream::config</text>
<text text-anchor="start" x="8" y="-108.5" font-family="Helvetica,sans-Serif" font-size="10.00">::ConfigSocketServer::ConfigSocket</text>
<text text-anchor="middle" x="88" y="-97.5" font-family="Helvetica,sans-Serif" font-size="10.00">Server</text>
</a>
</g>
</g>
<!-- Node2 -->
<g id="Node000002" class="node">
<title>Node2</title>
<g id="a_Node000002"><a xlink:href="classnet_1_1config_1_1ConfigPhysicalSocket.html#a08588ff20f8f18bae5de20b5d384bd0d" target="_top" xlink:title=" ">
<polygon fill="white" stroke="#666666" points="347,-222 212,-222 212,-192 347,-192 347,-222"/>
<text text-anchor="start" x="220" y="-210" font-family="Helvetica,sans-Serif" font-size="10.00">net::config::ConfigPhysical</text>
<text text-anchor="middle" x="279.5" y="-199" font-family="Helvetica,sans-Serif" font-size="10.00">Socket::add_socket_option</text>
</a>
</g>
</g>
<!-- Node1&#45;&gt;Node2 -->
<g id="edge1_Node000001_Node000002" class="edge">
<title>Node1&#45;&gt;Node2</title>
<g id="a_edge1_Node000001_Node000002"><a xlink:title=" ">
<path fill="none" stroke="#63b8ff" d="M120.5,-131.61C144.85,-147 179.73,-167.89 212,-183 215.81,-184.79 219.8,-186.52 223.84,-188.2"/>
<polygon fill="#63b8ff" stroke="#63b8ff" points="222.74,-191.53 233.33,-191.97 225.33,-185.02 222.74,-191.53"/>
</a>
</g>
</g>
<!-- Node4 -->
<g id="Node000004" class="node">
<title>Node4</title>
<g id="a_Node000004"><a xlink:href="classnet_1_1in6_1_1config_1_1ConfigAddress.html#a21bf350fd0044023d51bcffad577c18a" target="_top" xlink:title=" ">
<polygon fill="white" stroke="#666666" points="337.5,-174 221.5,-174 221.5,-144 337.5,-144 337.5,-174"/>
<text text-anchor="start" x="229.5" y="-162" font-family="Helvetica,sans-Serif" font-size="10.00">net::in6::config::Config</text>
<text text-anchor="middle" x="279.5" y="-151" font-family="Helvetica,sans-Serif" font-size="10.00">Address::portRequired</text>
</a>
</g>
</g>
<!-- Node1&#45;&gt;Node4 -->
<g id="edge3_Node000001_Node000004" class="edge">
<title>Node1&#45;&gt;Node4</title>
<g id="a_edge3_Node000001_Node000004"><a xlink:title=" ">
<path fill="none" stroke="#63b8ff" d="M170.19,-131.57C183.88,-135.03 197.95,-138.6 211.24,-141.96"/>
<polygon fill="#63b8ff" stroke="#63b8ff" points="210.67,-145.43 221.22,-144.49 212.39,-138.64 210.67,-145.43"/>
</a>
</g>
</g>
<!-- Node5 -->
<g id="Node000005" class="node">
<title>Node5</title>
<g id="a_Node000005"><a xlink:href="classnet_1_1in6_1_1config_1_1ConfigAddress.html#a48db42e69ef237af1167747938a51a94" target="_top" xlink:title=" ">
<polygon fill="white" stroke="#666666" points="337.5,-126 221.5,-126 221.5,-96 337.5,-96 337.5,-126"/>
<text text-anchor="start" x="229.5" y="-114" font-family="Helvetica,sans-Serif" font-size="10.00">net::in6::config::Config</text>
<text text-anchor="middle" x="279.5" y="-103" font-family="Helvetica,sans-Serif" font-size="10.00">Address::setAiFlags</text>
</a>
</g>
</g>
<!-- Node1&#45;&gt;Node5 -->
<g id="edge4_Node000001_Node000005" class="edge">
<title>Node1&#45;&gt;Node5</title>
<g id="a_edge4_Node000001_Node000005"><a xlink:title=" ">
<path fill="none" stroke="#63b8ff" d="M176.26,-111C188.01,-111 199.92,-111 211.25,-111"/>
<polygon fill="#63b8ff" stroke="#63b8ff" points="211.47,-114.5 221.47,-111 211.47,-107.5 211.47,-114.5"/>
</a>
</g>
</g>
<!-- Node6 -->
<g id="Node000006" class="node">
<title>Node6</title>
<g id="a_Node000006"><a xlink:href="classnet_1_1in6_1_1config_1_1ConfigAddress.html#ae1cec31061cce1625c6a20832f0c9dca" target="_top" xlink:title=" ">
<polygon fill="white" stroke="#666666" points="338,-78 221,-78 221,-48 338,-48 338,-78"/>
<text text-anchor="start" x="229" y="-66" font-family="Helvetica,sans-Serif" font-size="10.00">net::in6::config::Config</text>
<text text-anchor="middle" x="279.5" y="-55" font-family="Helvetica,sans-Serif" font-size="10.00">Address::setAiProtocol</text>
</a>
</g>
</g>
<!-- Node1&#45;&gt;Node6 -->
<g id="edge5_Node000001_Node000006" class="edge">
<title>Node1&#45;&gt;Node6</title>
<g id="a_edge5_Node000001_Node000006"><a xlink:title=" ">
<path fill="none" stroke="#63b8ff" d="M170.19,-90.43C183.8,-86.99 197.79,-83.44 211,-80.1"/>
<polygon fill="#63b8ff" stroke="#63b8ff" points="212.11,-83.43 220.94,-77.58 210.39,-76.64 212.11,-83.43"/>
</a>
</g>
</g>
<!-- Node7 -->
<g id="Node000007" class="node">
<title>Node7</title>
<g id="a_Node000007"><a xlink:href="classnet_1_1in6_1_1config_1_1ConfigAddress.html#a37d150cde08f157cfe970dc41cc42dbf" target="_top" xlink:title=" ">
<polygon fill="white" stroke="#666666" points="340.5,-30 218.5,-30 218.5,0 340.5,0 340.5,-30"/>
<text text-anchor="start" x="226.5" y="-18" font-family="Helvetica,sans-Serif" font-size="10.00">net::in6::config::Config</text>
<text text-anchor="middle" x="279.5" y="-7" font-family="Helvetica,sans-Serif" font-size="10.00">Address::setAiSocktype</text>
</a>
</g>
</g>
<!-- Node1&#45;&gt;Node7 -->
<g id="edge6_Node000001_Node000007" class="edge">
<title>Node1&#45;&gt;Node7</title>
<g id="a_edge6_Node000001_Node000007"><a xlink:title=" ">
<path fill="none" stroke="#63b8ff" d="M120.5,-90.39C144.85,-75 179.73,-54.11 212,-39 215.81,-37.21 219.8,-35.48 223.84,-33.8"/>
<polygon fill="#63b8ff" stroke="#63b8ff" points="225.33,-36.98 233.33,-30.03 222.74,-30.47 225.33,-36.98"/>
</a>
</g>
</g>
<!-- Node3 -->
<g id="Node000003" class="node">
<title>Node3</title>
<g id="a_Node000003"><a xlink:href="classnet_1_1config_1_1ConfigSection.html#a4745eea9224d6e67a8d7c9c93f262ce0" target="_top" xlink:title=" ">
<polygon fill="white" stroke="#666666" points="513,-222 383,-222 383,-192 513,-192 513,-222"/>
<text text-anchor="start" x="391" y="-210" font-family="Helvetica,sans-Serif" font-size="10.00">net::config::ConfigSection</text>
<text text-anchor="middle" x="448" y="-199" font-family="Helvetica,sans-Serif" font-size="10.00">::add_flag_function</text>
</a>
</g>
</g>
<!-- Node2&#45;&gt;Node3 -->
<g id="edge2_Node000002_Node000003" class="edge">
<title>Node2&#45;&gt;Node3</title>
<g id="a_edge2_Node000002_Node000003"><a xlink:title=" ">
<path fill="none" stroke="#63b8ff" d="M347.26,-207C355.62,-207 364.22,-207 372.68,-207"/>
<polygon fill="#63b8ff" stroke="#63b8ff" points="372.93,-210.5 382.93,-207 372.93,-203.5 372.93,-210.5"/>
</a>
</g>
</g>
</g>
</svg>
