<?xml version="1.0" encoding="UTF-8" standalone="no"?>
<!DOCTYPE svg PUBLIC "-//W3C//DTD SVG 1.1//EN"
 "http://www.w3.org/Graphics/SVG/1.1/DTD/svg11.dtd">
<!-- Generated by graphviz version 2.42.4 (0)
 -->
<!-- Title: web::http::decoder::Fields::getErrorReason Pages: 1 -->
<svg width="654pt" height="86pt"
 viewBox="0.00 0.00 654.00 86.00" xmlns="http://www.w3.org/2000/svg" xmlns:xlink="http://www.w3.org/1999/xlink">
<g id="graph0" class="graph" transform="scale(1 1) rotate(0) translate(4 82)">
<title>web::http::decoder::Fields::getErrorReason</title>
<!-- Node1 -->
<g id="Node000001" class="node">
<title>Node1</title>
<g id="a_Node000001"><a xlink:title=" ">
<polygon fill="#999999" stroke="#666666" points="646,-54 515,-54 515,-24 646,-24 646,-54"/>
<text text-anchor="start" x="523" y="-42" font-family="Helvetica,sans-Serif" font-size="10.00">web::http::decoder</text>
<text text-anchor="middle" x="580.5" y="-31" font-family="Helvetica,sans-Serif" font-size="10.00">::Fields::getErrorReason</text>
</a>
</g>
</g>
<!-- Node2 -->
<g id="Node000002" class="node">
<title>Node2</title>
<g id="a_Node000002"><a xlink:href="classweb_1_1http_1_1Parser.html#aef6ab45bed520f6fe3b2496e400e5389" target="_top" xlink:title=" ">
<polygon fill="white" stroke="#666666" points="479,-78 374,-78 374,-48 479,-48 479,-78"/>
<text text-anchor="start" x="382" y="-66" font-family="Helvetica,sans-Serif" font-size="10.00">web::http::Parser::</text>
<text text-anchor="middle" x="426.5" y="-55" font-family="Helvetica,sans-Serif" font-size="10.00">readHeader</text>
</a>
</g>
</g>
<!-- Node1&#45;&gt;Node2 -->
<g id="edge1_Node000001_Node000002" class="edge">
<title>Node1&#45;&gt;Node2</title>
<g id="a_edge1_Node000001_Node000002"><a xlink:title=" ">
<path fill="none" stroke="#63b8ff" d="M504.6,-50.83C496.05,-52.18 487.48,-53.53 479.33,-54.82"/>
<polygon fill="#63b8ff" stroke="#63b8ff" points="505.27,-54.26 514.6,-49.25 504.17,-47.35 505.27,-54.26"/>
</a>
</g>
</g>
<!-- Node6 -->
<g id="Node000006" class="node">
<title>Node6</title>
<g id="a_Node000006"><a xlink:href="classweb_1_1http_1_1Parser.html#abc1ddad3e7024f1623f699e5b1a6f579" target="_top" xlink:title=" ">
<polygon fill="white" stroke="#666666" points="479,-30 374,-30 374,0 479,0 479,-30"/>
<text text-anchor="start" x="382" y="-18" font-family="Helvetica,sans-Serif" font-size="10.00">web::http::Parser::</text>
<text text-anchor="middle" x="426.5" y="-7" font-family="Helvetica,sans-Serif" font-size="10.00">readTrailer</text>
</a>
</g>
</g>
<!-- Node1&#45;&gt;Node6 -->
<g id="edge5_Node000001_Node000006" class="edge">
<title>Node1&#45;&gt;Node6</title>
<g id="a_edge5_Node000001_Node000006"><a xlink:title=" ">
<path fill="none" stroke="#63b8ff" d="M504.6,-27.17C496.05,-25.82 487.48,-24.47 479.33,-23.18"/>
<polygon fill="#63b8ff" stroke="#63b8ff" points="504.17,-30.65 514.6,-28.75 505.27,-23.74 504.17,-30.65"/>
</a>
</g>
</g>
<!-- Node3 -->
<g id="Node000003" class="node">
<title>Node3</title>
<g id="a_Node000003"><a xlink:href="classweb_1_1http_1_1Parser.html#a1291dd16e6eba36cd6f35448dba4b3d5" target="_top" xlink:title=" ">
<polygon fill="white" stroke="#666666" points="338,-54 233,-54 233,-24 338,-24 338,-54"/>
<text text-anchor="start" x="241" y="-42" font-family="Helvetica,sans-Serif" font-size="10.00">web::http::Parser::</text>
<text text-anchor="middle" x="285.5" y="-31" font-family="Helvetica,sans-Serif" font-size="10.00">parse</text>
</a>
</g>
</g>
<!-- Node2&#45;&gt;Node3 -->
<g id="edge2_Node000002_Node000003" class="edge">
<title>Node2&#45;&gt;Node3</title>
<g id="a_edge2_Node000002_Node000003"><a xlink:title=" ">
<path fill="none" stroke="#63b8ff" d="M363.84,-52.35C355.31,-50.88 346.62,-49.38 338.3,-47.94"/>
<polygon fill="#63b8ff" stroke="#63b8ff" points="363.29,-55.81 373.74,-54.06 364.48,-48.91 363.29,-55.81"/>
</a>
</g>
</g>
<!-- Node4 -->
<g id="Node000004" class="node">
<title>Node4</title>
<g id="a_Node000004"><a xlink:href="classweb_1_1http_1_1client_1_1SocketContext.html#a5ac9705bda485573e7af3228fefc8d2c" target="_top" xlink:title=" ">
<polygon fill="white" stroke="#666666" points="197,-78 0,-78 0,-48 197,-48 197,-78"/>
<text text-anchor="start" x="8" y="-66" font-family="Helvetica,sans-Serif" font-size="10.00">web::http::client::</text>
<text text-anchor="middle" x="98.5" y="-55" font-family="Helvetica,sans-Serif" font-size="10.00">SocketContext::onReceivedFromPeer</text>
</a>
</g>
</g>
<!-- Node3&#45;&gt;Node4 -->
<g id="edge3_Node000003_Node000004" class="edge">
<title>Node3&#45;&gt;Node4</title>
<g id="a_edge3_Node000003_Node000004"><a xlink:title=" ">
<path fill="none" stroke="#63b8ff" d="M223,-46.98C214.66,-48.06 205.93,-49.19 197.15,-50.33"/>
<polygon fill="#63b8ff" stroke="#63b8ff" points="223.5,-50.44 232.97,-45.69 222.6,-43.5 223.5,-50.44"/>
</a>
</g>
</g>
<!-- Node5 -->
<g id="Node000005" class="node">
<title>Node5</title>
<g id="a_Node000005"><a xlink:href="classweb_1_1http_1_1server_1_1SocketContext.html#a939435de5ba9e7ac686efd2de1844741" target="_top" xlink:title=" ">
<polygon fill="white" stroke="#666666" points="197,-30 0,-30 0,0 197,0 197,-30"/>
<text text-anchor="start" x="8" y="-18" font-family="Helvetica,sans-Serif" font-size="10.00">web::http::server::</text>
<text text-anchor="middle" x="98.5" y="-7" font-family="Helvetica,sans-Serif" font-size="10.00">SocketContext::onReceivedFromPeer</text>
</a>
</g>
</g>
<!-- Node3&#45;&gt;Node5 -->
<g id="edge4_Node000003_Node000005" class="edge">
<title>Node3&#45;&gt;Node5</title>
<g id="a_edge4_Node000003_Node000005"><a xlink:title=" ">
<path fill="none" stroke="#63b8ff" d="M223,-31.02C214.66,-29.94 205.93,-28.81 197.15,-27.67"/>
<polygon fill="#63b8ff" stroke="#63b8ff" points="222.6,-34.5 232.97,-32.31 223.5,-27.56 222.6,-34.5"/>
</a>
</g>
</g>
<!-- Node6&#45;&gt;Node3 -->
<g id="edge6_Node000006_Node000003" class="edge">
<title>Node6&#45;&gt;Node3</title>
<g id="a_edge6_Node000006_Node000003"><a xlink:title=" ">
<path fill="none" stroke="#63b8ff" d="M363.84,-25.65C355.31,-27.12 346.62,-28.62 338.3,-30.06"/>
<polygon fill="#63b8ff" stroke="#63b8ff" points="364.48,-29.09 373.74,-23.94 363.29,-22.19 364.48,-29.09"/>
</a>
</g>
</g>
</g>
</svg>
