<?xml version="1.0" encoding="UTF-8" standalone="no"?>
<!DOCTYPE svg PUBLIC "-//W3C//DTD SVG 1.1//EN"
 "http://www.w3.org/Graphics/SVG/1.1/DTD/svg11.dtd">
<!-- Generated by graphviz version 2.42.4 (0)
 -->
<!-- Title: web::http::Parser::parsingFinished Pages: 1 -->
<svg width="557pt" height="86pt"
 viewBox="0.00 0.00 557.00 86.00" xmlns="http://www.w3.org/2000/svg" xmlns:xlink="http://www.w3.org/1999/xlink">
<g id="graph0" class="graph" transform="scale(1 1) rotate(0) translate(4 82)">
<title>web::http::Parser::parsingFinished</title>
<!-- Node1 -->
<g id="Node000001" class="node">
<title>Node1</title>
<g id="a_Node000001"><a xlink:title=" ">
<polygon fill="#999999" stroke="#666666" points="549,-54 444,-54 444,-24 549,-24 549,-54"/>
<text text-anchor="start" x="452" y="-42" font-family="Helvetica,sans-Serif" font-size="10.00">web::http::Parser::</text>
<text text-anchor="middle" x="496.5" y="-31" font-family="Helvetica,sans-Serif" font-size="10.00">parsingFinished</text>
</a>
</g>
</g>
<!-- Node2 -->
<g id="Node000002" class="node">
<title>Node2</title>
<g id="a_Node000002"><a xlink:href="classweb_1_1http_1_1Parser.html#a9b4196485cb33fd5dc8caa8e7c3bc568" target="_top" xlink:title=" ">
<polygon fill="white" stroke="#666666" points="408,-78 303,-78 303,-48 408,-48 408,-78"/>
<text text-anchor="start" x="311" y="-66" font-family="Helvetica,sans-Serif" font-size="10.00">web::http::Parser::</text>
<text text-anchor="middle" x="355.5" y="-55" font-family="Helvetica,sans-Serif" font-size="10.00">readContent</text>
</a>
</g>
</g>
<!-- Node1&#45;&gt;Node2 -->
<g id="edge1_Node000001_Node000002" class="edge">
<title>Node1&#45;&gt;Node2</title>
<g id="a_edge1_Node000001_Node000002"><a xlink:title=" ">
<path fill="none" stroke="#63b8ff" d="M433.84,-49.65C425.31,-51.12 416.62,-52.62 408.3,-54.06"/>
<polygon fill="#63b8ff" stroke="#63b8ff" points="434.48,-53.09 443.74,-47.94 433.29,-46.19 434.48,-53.09"/>
</a>
</g>
</g>
<!-- Node5 -->
<g id="Node000005" class="node">
<title>Node5</title>
<g id="a_Node000005"><a xlink:href="classweb_1_1http_1_1Parser.html#abc1ddad3e7024f1623f699e5b1a6f579" target="_top" xlink:title=" ">
<polygon fill="white" stroke="#666666" points="408,-30 303,-30 303,0 408,0 408,-30"/>
<text text-anchor="start" x="311" y="-18" font-family="Helvetica,sans-Serif" font-size="10.00">web::http::Parser::</text>
<text text-anchor="middle" x="355.5" y="-7" font-family="Helvetica,sans-Serif" font-size="10.00">readTrailer</text>
</a>
</g>
</g>
<!-- Node1&#45;&gt;Node5 -->
<g id="edge4_Node000001_Node000005" class="edge">
<title>Node1&#45;&gt;Node5</title>
<g id="a_edge4_Node000001_Node000005"><a xlink:title=" ">
<path fill="none" stroke="#63b8ff" d="M433.84,-28.35C425.31,-26.88 416.62,-25.38 408.3,-23.94"/>
<polygon fill="#63b8ff" stroke="#63b8ff" points="433.29,-31.81 443.74,-30.06 434.48,-24.91 433.29,-31.81"/>
</a>
</g>
</g>
<!-- Node3 -->
<g id="Node000003" class="node">
<title>Node3</title>
<g id="a_Node000003"><a xlink:href="classweb_1_1http_1_1Parser.html#a1291dd16e6eba36cd6f35448dba4b3d5" target="_top" xlink:title=" ">
<polygon fill="white" stroke="#666666" points="267,-54 162,-54 162,-24 267,-24 267,-54"/>
<text text-anchor="start" x="170" y="-42" font-family="Helvetica,sans-Serif" font-size="10.00">web::http::Parser::</text>
<text text-anchor="middle" x="214.5" y="-31" font-family="Helvetica,sans-Serif" font-size="10.00">parse</text>
</a>
</g>
</g>
<!-- Node2&#45;&gt;Node3 -->
<g id="edge2_Node000002_Node000003" class="edge">
<title>Node2&#45;&gt;Node3</title>
<g id="a_edge2_Node000002_Node000003"><a xlink:title=" ">
<path fill="none" stroke="#63b8ff" d="M292.84,-52.35C284.31,-50.88 275.62,-49.38 267.3,-47.94"/>
<polygon fill="#63b8ff" stroke="#63b8ff" points="292.29,-55.81 302.74,-54.06 293.48,-48.91 292.29,-55.81"/>
</a>
</g>
</g>
<!-- Node4 -->
<g id="Node000004" class="node">
<title>Node4</title>
<g id="a_Node000004"><a xlink:href="classSimpleSocketProtocol.html#ad58a5ef99ec018ba9cdccaad37b63b75" target="_top" xlink:title=" ">
<polygon fill="white" stroke="#666666" points="126,-54 0,-54 0,-24 126,-24 126,-54"/>
<text text-anchor="start" x="8" y="-42" font-family="Helvetica,sans-Serif" font-size="10.00">SimpleSocketProtocol</text>
<text text-anchor="middle" x="63" y="-31" font-family="Helvetica,sans-Serif" font-size="10.00">::onReceivedFromPeer</text>
</a>
</g>
</g>
<!-- Node3&#45;&gt;Node4 -->
<g id="edge3_Node000003_Node000004" class="edge">
<title>Node3&#45;&gt;Node4</title>
<g id="a_edge3_Node000003_Node000004"><a xlink:title=" ">
<path fill="none" stroke="#63b8ff" d="M151.52,-39C143.11,-39 134.48,-39 126.07,-39"/>
<polygon fill="#63b8ff" stroke="#63b8ff" points="151.63,-42.5 161.63,-39 151.63,-35.5 151.63,-42.5"/>
</a>
</g>
</g>
<!-- Node5&#45;&gt;Node3 -->
<g id="edge5_Node000005_Node000003" class="edge">
<title>Node5&#45;&gt;Node3</title>
<g id="a_edge5_Node000005_Node000003"><a xlink:title=" ">
<path fill="none" stroke="#63b8ff" d="M292.84,-25.65C284.31,-27.12 275.62,-28.62 267.3,-30.06"/>
<polygon fill="#63b8ff" stroke="#63b8ff" points="293.48,-29.09 302.74,-23.94 292.29,-22.19 293.48,-29.09"/>
</a>
</g>
</g>
</g>
</svg>
