<?xml version="1.0" encoding="UTF-8" standalone="no"?>
<!DOCTYPE svg PUBLIC "-//W3C//DTD SVG 1.1//EN"
 "http://www.w3.org/Graphics/SVG/1.1/DTD/svg11.dtd">
<!-- Generated by graphviz version 2.42.4 (0)
 -->
<!-- Title: core::socket::stream::tls::SocketAcceptor&lt; PhysicalSocketServerT, ConfigT &gt; Pages: 1 -->
<!--zoomable 951 -->

<svg id="main" version="1.1" xmlns="http://www.w3.org/2000/svg" xmlns:xlink="http://www.w3.org/1999/xlink" xml:space="preserve" onload="init(evt)">
<style type="text/css"><![CDATA[
.node, .edge {opacity: 0.7;}
.node.selected, .edge.selected {opacity: 1;}
.edge:hover path { stroke: red; }
.edge:hover polygon { stroke: red; fill: red; }
]]></style>

<defs>
  <circle id="rim" cx="0" cy="0" r="7"/>
  <circle id="rim2" cx="0" cy="0" r="3.5"/>
  <g id="zoomPlus">
    <use xlink:href="#rim" fill="#404040"><set attributeName="fill" to="#808080" begin="zoomplus.mouseover" end="zoomplus.mouseout"/></use>
    <path d="M-4,0h8M0,-4v8" fill="none" stroke="white" stroke-width="1.5" pointer-events="none"/>
  </g>
  <g id="zoomMin">
    <use xlink:href="#rim" fill="#404040"><set attributeName="fill" to="#808080" begin="zoomminus.mouseover" end="zoomminus.mouseout"/></use>
    <path d="M-4,0h8" fill="none" stroke="white" stroke-width="1.5" pointer-events="none"/>
  </g>
  <g id="arrowUp" transform="translate(30 24)">
    <use xlink:href="#rim"/>
    <path pointer-events="none" fill="none" stroke="white" stroke-width="1.5" d="M0,-3.0v7 M-2.5,-0.5L0,-3.0L2.5,-0.5"/>
  </g>
  <g id="arrowRight" transform="rotate(90) translate(36 -43)">
    <use xlink:href="#rim"/>
    <path pointer-events="none" fill="none" stroke="white" stroke-width="1.5" d="M0,-3.0v7 M-2.5,-0.5L0,-3.0L2.5,-0.5"/>
  </g>
  <g id="arrowDown" transform="rotate(180) translate(-30 -48)">
    <use xlink:href="#rim"/>
    <path pointer-events="none" fill="none" stroke="white" stroke-width="1.5" d="M0,-3.0v7 M-2.5,-0.5L0,-3.0L2.5,-0.5"/>
  </g>
  <g id="arrowLeft" transform="rotate(270) translate(-36 17)">
    <use xlink:href="#rim"/>
    <path pointer-events="none" fill="none" stroke="white" stroke-width="1.5" d="M0,-3.0v7 M-2.5,-0.5L0,-3.0L2.5,-0.5"/>
  </g>
  <g id="resetDef">
    <use xlink:href="#rim2" fill="#404040"><set attributeName="fill" to="#808080" begin="reset.mouseover" end="reset.mouseout"/></use>
  </g>
</defs>
<script type="application/ecmascript">
var viewWidth = 1095;
var viewHeight = 951;
var sectionId = 'dynsection-1';
</script>
<script type="application/ecmascript" xlink:href="svg.min.js"/>
<svg id="graph" class="graph">
<g id="viewport">
<title>core::socket::stream::tls::SocketAcceptor&lt; PhysicalSocketServerT, ConfigT &gt;</title>
<!-- Node1 -->
<g id="Node000001" class="node">
<title>Node1</title>
<g id="a_Node000001"><a xlink:title=" ">
<polygon fill="#999999" stroke="transparent" points="934,-580 812,-580 812,-528 934,-528 934,-580"/>
<text text-anchor="start" x="816" y="-568" font-family="Helvetica,sans-Serif" font-size="10.00">core::socket::stream</text>
<text text-anchor="start" x="816" y="-557" font-family="Helvetica,sans-Serif" font-size="10.00">::tls::SocketAcceptor</text>
<text text-anchor="start" x="816" y="-546" font-family="Helvetica,sans-Serif" font-size="10.00">&lt; PhysicalSocketServerT,</text>
<text text-anchor="start" x="849.5" y="-535" font-family="Helvetica,sans-Serif" font-size="10.00"> ConfigT &gt;</text>
<polygon fill="none" stroke="#666666" points="812,-528 812,-580 934,-580 934,-528 812,-528"/>
</a>
</g>
</g>
<!-- Node2 -->
<g id="Node000002" class="node">
<title>Node2</title>
<g id="a_Node000002"><a xlink:href="classcore_1_1socket_1_1stream_1_1SocketAcceptor.html" target="_top" xlink:title=" ">
<polygon fill="white" stroke="transparent" points="954,-679 792,-679 792,-627 954,-627 954,-679"/>
<text text-anchor="start" x="796" y="-667" font-family="Helvetica,sans-Serif" font-size="10.00">core::socket::stream</text>
<text text-anchor="start" x="796" y="-656" font-family="Helvetica,sans-Serif" font-size="10.00">::SocketAcceptor&lt; PhysicalSocket</text>
<text text-anchor="start" x="796" y="-645" font-family="Helvetica,sans-Serif" font-size="10.00">ServerT, ConfigT, core::socket</text>
<text text-anchor="start" x="799" y="-634" font-family="Helvetica,sans-Serif" font-size="10.00">::stream::tls::SocketConnection &gt;</text>
<polygon fill="none" stroke="#666666" points="792,-627 792,-679 954,-679 954,-627 792,-627"/>
</a>
</g>
</g>
<!-- Node2&#45;&gt;Node1 -->
<g id="edge1_Node000001_Node000002" class="edge">
<title>Node2&#45;&gt;Node1</title>
<g id="a_edge1_Node000001_Node000002"><a xlink:title=" ">
<path fill="none" stroke="#8b1a1a" d="M873,-616.53C873,-604.45 873,-591.2 873,-580.11"/>
<polygon fill="none" stroke="#8b1a1a" points="869.5,-616.77 873,-626.77 876.5,-616.77 869.5,-616.77"/>
</a>
</g>
</g>
<!-- Node3 -->
<g id="Node000003" class="node">
<title>Node3</title>
<g id="a_Node000003"><a xlink:href="classcore_1_1eventreceiver_1_1AcceptEventReceiver.html" target="_top" xlink:title=" ">
<polygon fill="white" stroke="transparent" points="779,-772.5 669,-772.5 669,-742.5 779,-742.5 779,-772.5"/>
<text text-anchor="start" x="673" y="-760.5" font-family="Helvetica,sans-Serif" font-size="10.00">core::eventreceiver</text>
<text text-anchor="start" x="673" y="-749.5" font-family="Helvetica,sans-Serif" font-size="10.00">::AcceptEventReceiver</text>
<polygon fill="none" stroke="#666666" points="669,-742.5 669,-772.5 779,-772.5 779,-742.5 669,-742.5"/>
</a>
</g>
</g>
<!-- Node3&#45;&gt;Node2 -->
<g id="edge2_Node000002_Node000003" class="edge">
<title>Node3&#45;&gt;Node2</title>
<g id="a_edge2_Node000002_Node000003"><a xlink:title=" ">
<path fill="none" stroke="darkgreen" d="M752.71,-736.75C776.59,-720.32 810.73,-696.84 836.54,-679.08"/>
<polygon fill="none" stroke="darkgreen" points="750.66,-733.91 744.41,-742.46 754.63,-739.68 750.66,-733.91"/>
</a>
</g>
</g>
<!-- Node4 -->
<g id="Node000004" class="node">
<title>Node4</title>
<g id="a_Node000004"><a xlink:href="classcore_1_1DescriptorEventReceiver.html" target="_top" xlink:title=" ">
<polygon fill="white" stroke="transparent" points="412,-849.5 268,-849.5 268,-830.5 412,-830.5 412,-849.5"/>
<text text-anchor="start" x="272.5" y="-837" font-family="Helvetica,sans-Serif" font-size="10.00">core::DescriptorEventReceiver</text>
<polygon fill="none" stroke="#666666" points="268,-830.5 268,-849.5 412,-849.5 412,-830.5 268,-830.5"/>
</a>
</g>
</g>
<!-- Node4&#45;&gt;Node3 -->
<g id="edge3_Node000003_Node000004" class="edge">
<title>Node4&#45;&gt;Node3</title>
<g id="a_edge3_Node000003_Node000004"><a xlink:title=" ">
<path fill="none" stroke="#63b8ff" d="M407.3,-828.86C472.46,-818.41 573.77,-800.5 660,-778 666.41,-776.33 673.13,-774.43 679.72,-772.5"/>
<polygon fill="none" stroke="#63b8ff" points="406.49,-825.44 397.16,-830.47 407.59,-832.36 406.49,-825.44"/>
</a>
</g>
</g>
<!-- Node14 -->
<g id="Node000014" class="node">
<title>Node14</title>
<g id="a_Node000014"><a xlink:title=" ">
<polygon fill="white" stroke="transparent" points="651,-772.5 531,-772.5 531,-742.5 651,-742.5 651,-772.5"/>
<text text-anchor="start" x="535" y="-760.5" font-family="Helvetica,sans-Serif" font-size="10.00">std::list&lt; core::Descriptor</text>
<text text-anchor="start" x="550.5" y="-749.5" font-family="Helvetica,sans-Serif" font-size="10.00">EventReceiver * &gt;</text>
<polygon fill="none" stroke="#666666" points="531,-742.5 531,-772.5 651,-772.5 651,-742.5 531,-742.5"/>
</a>
</g>
</g>
<!-- Node4&#45;&gt;Node14 -->
<g id="edge15_Node000014_Node000004" class="edge">
<title>Node4&#45;&gt;Node14</title>
<g id="a_edge15_Node000014_Node000004"><a xlink:title=" ">
<path fill="none" stroke="#63b8ff" d="M366.86,-830.39C406.95,-817.53 483.33,-793.03 535.69,-776.24"/>
<polygon fill="none" stroke="#63b8ff" points="535.7,-776.24 540.19,-770.59 547.13,-772.57 542.63,-778.21 535.7,-776.24"/>
</a>
</g>
<text text-anchor="middle" x="498.5" y="-799" font-family="Helvetica,sans-Serif" font-size="10.00" fill="grey"> +elements</text>
</g>
<!-- Node5 -->
<g id="Node000005" class="node">
<title>Node5</title>
<g id="a_Node000005"><a xlink:href="classcore_1_1Observer.html" target="_top" xlink:title=" ">
<polygon fill="white" stroke="transparent" points="377,-943 303,-943 303,-924 377,-924 377,-943"/>
<text text-anchor="start" x="307.5" y="-930.5" font-family="Helvetica,sans-Serif" font-size="10.00">core::Observer</text>
<polygon fill="none" stroke="#666666" points="303,-924 303,-943 377,-943 377,-924 303,-924"/>
</a>
</g>
</g>
<!-- Node5&#45;&gt;Node4 -->
<g id="edge4_Node000004_Node000005" class="edge">
<title>Node5&#45;&gt;Node4</title>
<g id="a_edge4_Node000004_Node000005"><a xlink:title=" ">
<path fill="none" stroke="darkgreen" d="M340,-913.54C340,-893.92 340,-864.16 340,-849.61"/>
<polygon fill="none" stroke="darkgreen" points="336.5,-913.73 340,-923.73 343.5,-913.73 336.5,-913.73"/>
</a>
</g>
</g>
<!-- Node6 -->
<g id="Node000006" class="node">
<title>Node6</title>
<g id="a_Node000006"><a xlink:href="classcore_1_1EventReceiver.html" target="_top" xlink:title=" ">
<polygon fill="white" stroke="transparent" points="371,-261 273,-261 273,-242 371,-242 371,-261"/>
<text text-anchor="start" x="277" y="-248.5" font-family="Helvetica,sans-Serif" font-size="10.00">core::EventReceiver</text>
<polygon fill="none" stroke="#666666" points="273,-242 273,-261 371,-261 371,-242 273,-242"/>
</a>
</g>
</g>
<!-- Node6&#45;&gt;Node4 -->
<g id="edge5_Node000004_Node000006" class="edge">
<title>Node6&#45;&gt;Node4</title>
<g id="a_edge5_Node000004_Node000006"><a xlink:title=" ">
<path fill="none" stroke="#63b8ff" d="M313.11,-270.66C307.77,-283.22 302,-300.49 302,-316.5 302,-758.5 302,-758.5 302,-758.5 302,-786.94 321.63,-816.08 332.67,-830.23"/>
<polygon fill="none" stroke="#63b8ff" points="316.39,-271.89 317.36,-261.34 310.03,-268.99 316.39,-271.89"/>
</a>
</g>
</g>
<!-- Node7 -->
<g id="Node000007" class="node">
<title>Node7</title>
<g id="a_Node000007"><a xlink:href="classcore_1_1Event.html" target="_top" xlink:title=" ">
<polygon fill="white" stroke="transparent" points="458,-327 398,-327 398,-308 458,-308 458,-327"/>
<text text-anchor="start" x="402.5" y="-314.5" font-family="Helvetica,sans-Serif" font-size="10.00">core::Event</text>
<polygon fill="none" stroke="#666666" points="398,-308 398,-327 458,-327 458,-308 398,-308"/>
</a>
</g>
</g>
<!-- Node6&#45;&gt;Node7 -->
<g id="edge9_Node000007_Node000006" class="edge">
<title>Node6&#45;&gt;Node7</title>
<g id="a_edge9_Node000007_Node000006"><a xlink:title=" ">
<path fill="none" stroke="#63b8ff" d="M321.96,-261.14C322.4,-269.61 324.41,-282.34 332,-290 346.08,-304.2 367.03,-310.98 385.78,-314.14"/>
<polygon fill="none" stroke="#63b8ff" points="385.78,-314.15 392.26,-310.98 397.68,-315.74 391.2,-318.91 385.78,-314.15"/>
</a>
</g>
<text text-anchor="middle" x="367" y="-282" font-family="Helvetica,sans-Serif" font-size="10.00" fill="grey"> &#45;eventReceiver</text>
</g>
<!-- Node18 -->
<g id="Node000018" class="node">
<title>Node18</title>
<g id="a_Node000018"><a xlink:href="classcore_1_1TimerEventReceiver.html" target="_top" xlink:title=" ">
<polygon fill="white" stroke="transparent" points="344,-178.5 220,-178.5 220,-159.5 344,-159.5 344,-178.5"/>
<text text-anchor="start" x="224.5" y="-166" font-family="Helvetica,sans-Serif" font-size="10.00">core::TimerEventReceiver</text>
<polygon fill="none" stroke="#666666" points="220,-159.5 220,-178.5 344,-178.5 344,-159.5 220,-159.5"/>
</a>
</g>
</g>
<!-- Node6&#45;&gt;Node18 -->
<g id="edge22_Node000018_Node000006" class="edge">
<title>Node6&#45;&gt;Node18</title>
<g id="a_edge22_Node000018_Node000006"><a xlink:title=" ">
<path fill="none" stroke="#63b8ff" d="M313.12,-232.63C304.82,-215.92 292.77,-191.67 286.37,-178.8"/>
<polygon fill="none" stroke="#63b8ff" points="310.13,-234.49 317.72,-241.89 316.4,-231.37 310.13,-234.49"/>
</a>
</g>
</g>
<!-- Node7&#45;&gt;Node6 -->
<g id="edge6_Node000006_Node000007" class="edge">
<title>Node7&#45;&gt;Node6</title>
<g id="a_edge6_Node000006_Node000007"><a xlink:title=" ">
<path fill="none" stroke="#63b8ff" d="M425.02,-307.81C421.68,-299.29 415.44,-286.53 406,-279 398.77,-273.23 390.26,-268.71 381.49,-265.17"/>
<polygon fill="none" stroke="#63b8ff" points="381.2,-265.07 374.21,-266.83 369.89,-261.06 376.88,-259.29 381.2,-265.07"/>
</a>
</g>
<text text-anchor="middle" x="431.5" y="-282" font-family="Helvetica,sans-Serif" font-size="10.00" fill="grey"> &#45;event</text>
</g>
<!-- Node23 -->
<g id="Node000023" class="node">
<title>Node23</title>
<g id="a_Node000023"><a xlink:title=" ">
<polygon fill="white" stroke="transparent" points="523,-261 407,-261 407,-242 523,-242 523,-261"/>
<text text-anchor="start" x="411" y="-248.5" font-family="Helvetica,sans-Serif" font-size="10.00">std::list&lt; core::Event * &gt;</text>
<polygon fill="none" stroke="#666666" points="407,-242 407,-261 523,-261 523,-242 407,-242"/>
</a>
</g>
</g>
<!-- Node7&#45;&gt;Node23 -->
<g id="edge31_Node000023_Node000007" class="edge">
<title>Node7&#45;&gt;Node23</title>
<g id="a_edge31_Node000023_Node000007"><a xlink:title=" ">
<path fill="none" stroke="#63b8ff" d="M442.61,-307.96C449,-303.45 455.95,-297.32 460,-290 462.79,-284.96 464.26,-278.97 464.98,-273.27"/>
<polygon fill="none" stroke="#63b8ff" points="464.99,-273.08 461.29,-266.89 465.58,-261.09 469.28,-267.28 464.99,-273.08"/>
</a>
</g>
<text text-anchor="middle" x="488.5" y="-282" font-family="Helvetica,sans-Serif" font-size="10.00" fill="grey"> +elements</text>
</g>
<!-- Node8 -->
<g id="Node000008" class="node">
<title>Node8</title>
<g id="a_Node000008"><a xlink:title=" ">
<polygon fill="white" stroke="transparent" points="454,-662.5 402,-662.5 402,-643.5 454,-643.5 454,-662.5"/>
<text text-anchor="start" x="406" y="-650" font-family="Helvetica,sans-Serif" font-size="10.00">std::string</text>
<polygon fill="none" stroke="#666666" points="402,-643.5 402,-662.5 454,-662.5 454,-643.5 402,-643.5"/>
</a>
</g>
</g>
<!-- Node8&#45;&gt;Node7 -->
<g id="edge7_Node000007_Node000008" class="edge">
<title>Node8&#45;&gt;Node7</title>
<g id="a_edge7_Node000007_Node000008"><a xlink:title=" ">
<path fill="none" stroke="#63b8ff" d="M428,-643.44C428,-626.53 428,-587.67 428,-555 428,-555 428,-555 428,-382.5 428,-368.13 428,-351.95 428,-339.45"/>
<polygon fill="none" stroke="#63b8ff" points="428,-339.2 424,-333.2 428,-327.2 432,-333.2 428,-339.2"/>
</a>
</g>
<text text-anchor="middle" x="443.5" y="-452.5" font-family="Helvetica,sans-Serif" font-size="10.00" fill="grey"> &#45;name</text>
</g>
<!-- Node12 -->
<g id="Node000012" class="node">
<title>Node12</title>
<g id="a_Node000012"><a xlink:href="classcore_1_1DescriptorEventPublisher.html" target="_top" xlink:title=" ">
<polygon fill="white" stroke="transparent" points="620,-563.5 476,-563.5 476,-544.5 620,-544.5 620,-563.5"/>
<text text-anchor="start" x="480" y="-551" font-family="Helvetica,sans-Serif" font-size="10.00">core::DescriptorEventPublisher</text>
<polygon fill="none" stroke="#666666" points="476,-544.5 476,-563.5 620,-563.5 620,-544.5 476,-544.5"/>
</a>
</g>
</g>
<!-- Node8&#45;&gt;Node12 -->
<g id="edge16_Node000012_Node000008" class="edge">
<title>Node8&#45;&gt;Node12</title>
<g id="a_edge16_Node000012_Node000008"><a xlink:title=" ">
<path fill="none" stroke="#63b8ff" d="M438.65,-643.39C458.61,-627.25 501.97,-592.21 527.68,-571.42"/>
<polygon fill="none" stroke="#63b8ff" points="527.87,-571.27 530.02,-564.39 537.2,-563.73 535.05,-570.61 527.87,-571.27"/>
</a>
</g>
<text text-anchor="middle" x="507.5" y="-601" font-family="Helvetica,sans-Serif" font-size="10.00" fill="grey"> &#45;name</text>
</g>
<!-- Node9 -->
<g id="Node000009" class="node">
<title>Node9</title>
<g id="a_Node000009"><a xlink:title=" ">
<polygon fill="white" stroke="transparent" points="513,-772.5 425,-772.5 425,-742.5 513,-742.5 513,-772.5"/>
<text text-anchor="start" x="429.5" y="-760.5" font-family="Helvetica,sans-Serif" font-size="10.00">std::basic_string&lt;</text>
<text text-anchor="start" x="452" y="-749.5" font-family="Helvetica,sans-Serif" font-size="10.00"> Char &gt;</text>
<polygon fill="none" stroke="#666666" points="425,-742.5 425,-772.5 513,-772.5 513,-742.5 425,-742.5"/>
</a>
</g>
</g>
<!-- Node9&#45;&gt;Node8 -->
<g id="edge8_Node000008_Node000009" class="edge">
<title>Node9&#45;&gt;Node8</title>
<g id="a_edge8_Node000008_Node000009"><a xlink:title=" ">
<path fill="none" stroke="#63b8ff" d="M465.73,-732.15C463.74,-721.14 460.65,-708.12 456,-697 450.64,-684.18 441.41,-671.02 435.02,-662.69"/>
<polygon fill="none" stroke="#63b8ff" points="462.33,-733.05 467.38,-742.36 469.24,-731.93 462.33,-733.05"/>
</a>
</g>
</g>
<!-- Node10 -->
<g id="Node000010" class="node">
<title>Node10</title>
<g id="a_Node000010"><a xlink:href="classcore_1_1EventMultiplexer.html" target="_top" xlink:title=" ">
<polygon fill="white" stroke="transparent" points="606,-393 500,-393 500,-374 606,-374 606,-393"/>
<text text-anchor="start" x="504" y="-380.5" font-family="Helvetica,sans-Serif" font-size="10.00">core::EventMultiplexer</text>
<polygon fill="none" stroke="#666666" points="500,-374 500,-393 606,-393 606,-374 500,-374"/>
</a>
</g>
</g>
<!-- Node10&#45;&gt;Node7 -->
<g id="edge10_Node000007_Node000010" class="edge">
<title>Node10&#45;&gt;Node7</title>
<g id="a_edge10_Node000007_Node000010"><a xlink:title=" ">
<path fill="none" stroke="#63b8ff" d="M505.55,-373.95C490.87,-369.95 475.11,-364.2 462,-356 454.18,-351.11 447.05,-343.92 441.37,-337.14"/>
<polygon fill="none" stroke="#63b8ff" points="441.05,-336.73 434.22,-334.41 433.73,-327.22 440.56,-329.53 441.05,-336.73"/>
</a>
</g>
<text text-anchor="middle" x="501" y="-348" font-family="Helvetica,sans-Serif" font-size="10.00" fill="grey"> &#45;eventMultiplexer</text>
</g>
<!-- Node11 -->
<g id="Node000011" class="node">
<title>Node11</title>
<g id="a_Node000011"><a xlink:title=" ">
<polygon fill="white" stroke="transparent" points="615,-470 485,-470 485,-440 615,-440 615,-470"/>
<text text-anchor="start" x="489.5" y="-458" font-family="Helvetica,sans-Serif" font-size="10.00">std::array&lt; core::Descriptor</text>
<text text-anchor="start" x="503" y="-447" font-family="Helvetica,sans-Serif" font-size="10.00">EventPublisher *, 3 &gt;</text>
<polygon fill="none" stroke="#666666" points="485,-440 485,-470 615,-470 615,-440 485,-440"/>
</a>
</g>
</g>
<!-- Node11&#45;&gt;Node10 -->
<g id="edge11_Node000010_Node000011" class="edge">
<title>Node11&#45;&gt;Node10</title>
<g id="a_edge11_Node000010_Node000011"><a xlink:title=" ">
<path fill="none" stroke="#63b8ff" d="M550.61,-439.94C551.04,-430.01 551.62,-416.54 552.1,-405.37"/>
<polygon fill="none" stroke="#63b8ff" points="552.1,-405.26 548.37,-399.09 552.62,-393.27 556.36,-399.43 552.1,-405.26"/>
</a>
</g>
<text text-anchor="middle" x="613.5" y="-414" font-family="Helvetica,sans-Serif" font-size="10.00" fill="grey"> #descriptorEventPublishers</text>
</g>
<!-- Node12&#45;&gt;Node4 -->
<g id="edge32_Node000004_Node000012" class="edge">
<title>Node12&#45;&gt;Node4</title>
<g id="a_edge32_Node000004_Node000012"><a xlink:title=" ">
<path fill="none" stroke="#63b8ff" d="M515.82,-563.53C463.79,-579.44 364.26,-619.29 337,-697 322.55,-738.19 329.52,-790.32 335.19,-818.56"/>
<polygon fill="none" stroke="#63b8ff" points="335.21,-818.63 340.4,-823.63 337.78,-830.35 332.59,-825.35 335.21,-818.63"/>
</a>
</g>
<text text-anchor="middle" x="394.5" y="-705.5" font-family="Helvetica,sans-Serif" font-size="10.00" fill="grey"> &#45;descriptorEventPublisher</text>
</g>
<!-- Node12&#45;&gt;Node11 -->
<g id="edge12_Node000011_Node000012" class="edge">
<title>Node12&#45;&gt;Node11</title>
<g id="a_edge12_Node000011_Node000012"><a xlink:title=" ">
<path fill="none" stroke="#63b8ff" d="M548.18,-544.39C548.46,-530.63 549.03,-503.14 549.45,-482.44"/>
<polygon fill="none" stroke="#63b8ff" points="549.46,-482.33 545.58,-476.25 549.7,-470.33 553.58,-476.41 549.46,-482.33"/>
</a>
</g>
<text text-anchor="middle" x="574.5" y="-496.5" font-family="Helvetica,sans-Serif" font-size="10.00" fill="grey"> +elements</text>
</g>
<!-- Node13 -->
<g id="Node000013" class="node">
<title>Node13</title>
<g id="a_Node000013"><a xlink:title=" ">
<polygon fill="white" stroke="transparent" points="774,-673.5 642,-673.5 642,-632.5 774,-632.5 774,-673.5"/>
<text text-anchor="start" x="646" y="-661" font-family="Helvetica,sans-Serif" font-size="10.00">std::map&lt; int, std</text>
<text text-anchor="start" x="646" y="-650" font-family="Helvetica,sans-Serif" font-size="10.00">::list&lt; core::DescriptorEvent</text>
<text text-anchor="start" x="676" y="-639" font-family="Helvetica,sans-Serif" font-size="10.00">Receiver * &gt; &gt;</text>
<polygon fill="none" stroke="#666666" points="642,-632.5 642,-673.5 774,-673.5 774,-632.5 642,-632.5"/>
</a>
</g>
</g>
<!-- Node13&#45;&gt;Node12 -->
<g id="edge13_Node000012_Node000013" class="edge">
<title>Node13&#45;&gt;Node12</title>
<g id="a_edge13_Node000012_Node000013"><a xlink:title=" ">
<path fill="none" stroke="#63b8ff" d="M695.43,-632.3C687.34,-620.96 675.94,-607.18 663,-598 643.12,-583.9 618.06,-573.82 596.41,-566.98"/>
<polygon fill="none" stroke="#63b8ff" points="596.29,-566.94 589.4,-569.06 584.79,-563.51 591.69,-561.39 596.29,-566.94"/>
</a>
</g>
<text text-anchor="middle" x="742" y="-601" font-family="Helvetica,sans-Serif" font-size="10.00" fill="grey"> #observedEventReceiverLists</text>
</g>
<!-- Node14&#45;&gt;Node13 -->
<g id="edge14_Node000013_Node000014" class="edge">
<title>Node14&#45;&gt;Node13</title>
<g id="a_edge14_Node000013_Node000014"><a xlink:title=" ">
<path fill="none" stroke="#63b8ff" d="M607.27,-742.25C625.07,-726.65 654.04,-701.27 676.35,-681.72"/>
<polygon fill="none" stroke="#63b8ff" points="676.43,-681.66 678.31,-674.69 685.46,-673.75 683.58,-680.71 676.43,-681.66"/>
</a>
</g>
<text text-anchor="middle" x="681.5" y="-705.5" font-family="Helvetica,sans-Serif" font-size="10.00" fill="grey"> +elements</text>
</g>
<!-- Node15 -->
<g id="Node000015" class="node">
<title>Node15</title>
<g id="a_Node000015"><a xlink:title=" ">
<polygon fill="white" stroke="transparent" points="624,-679 472,-679 472,-627 624,-627 624,-679"/>
<text text-anchor="start" x="476" y="-667" font-family="Helvetica,sans-Serif" font-size="10.00">std::map&lt; std::list</text>
<text text-anchor="start" x="476" y="-656" font-family="Helvetica,sans-Serif" font-size="10.00">&lt; core::DescriptorEventReceiver</text>
<text text-anchor="start" x="476" y="-645" font-family="Helvetica,sans-Serif" font-size="10.00"> * &gt; *, std::list&lt; core::Descriptor</text>
<text text-anchor="start" x="503" y="-634" font-family="Helvetica,sans-Serif" font-size="10.00">EventReceiver * &gt; &gt;</text>
<polygon fill="none" stroke="#666666" points="472,-627 472,-679 624,-679 624,-627 472,-627"/>
</a>
</g>
</g>
<!-- Node14&#45;&gt;Node15 -->
<g id="edge18_Node000015_Node000014" class="edge">
<title>Node14&#45;&gt;Node15</title>
<g id="a_edge18_Node000015_Node000014"><a xlink:title=" ">
<path fill="none" stroke="#63b8ff" d="M585.02,-742.25C579.42,-728.89 570.8,-708.36 563.29,-690.45"/>
<polygon fill="none" stroke="#63b8ff" points="563.2,-690.24 557.19,-686.25 558.56,-679.17 564.57,-683.16 563.2,-690.24"/>
</a>
</g>
<text text-anchor="middle" x="599.5" y="-711" font-family="Helvetica,sans-Serif" font-size="10.00" fill="grey"> +elements</text>
<text text-anchor="middle" x="599.5" y="-700" font-family="Helvetica,sans-Serif" font-size="10.00" fill="grey">+keys</text>
</g>
<!-- Node15&#45;&gt;Node12 -->
<g id="edge17_Node000012_Node000015" class="edge">
<title>Node15&#45;&gt;Node12</title>
<g id="a_edge17_Node000012_Node000015"><a xlink:title=" ">
<path fill="none" stroke="#63b8ff" d="M548,-626.77C548,-611.11 548,-591.22 548,-576.35"/>
<polygon fill="none" stroke="#63b8ff" points="548,-575.94 544,-569.94 548,-563.94 552,-569.94 548,-575.94"/>
</a>
</g>
<text text-anchor="middle" x="603.5" y="-601" font-family="Helvetica,sans-Serif" font-size="10.00" fill="grey"> &#45;dirtyEventReceiverLists</text>
</g>
<!-- Node16 -->
<g id="Node000016" class="node">
<title>Node16</title>
<g id="a_Node000016"><a xlink:href="classcore_1_1TimerEventPublisher.html" target="_top" xlink:title=" ">
<polygon fill="white" stroke="transparent" points="456,-19 332,-19 332,0 456,0 456,-19"/>
<text text-anchor="start" x="336" y="-6.5" font-family="Helvetica,sans-Serif" font-size="10.00">core::TimerEventPublisher</text>
<polygon fill="none" stroke="#666666" points="332,0 332,-19 456,-19 456,0 332,0"/>
</a>
</g>
</g>
<!-- Node16&#45;&gt;Node10 -->
<g id="edge19_Node000010_Node000016" class="edge">
<title>Node16&#45;&gt;Node10</title>
<g id="a_edge19_Node000010_Node000016"><a xlink:title=" ">
<path fill="none" stroke="#63b8ff" d="M456.32,-15.18C501.24,-22.37 554,-40.4 554,-85.5 554,-318.5 554,-318.5 554,-318.5 554,-332.87 553.74,-349.06 553.49,-361.55"/>
<polygon fill="none" stroke="#63b8ff" points="553.49,-361.81 557.35,-367.89 553.22,-373.81 549.36,-367.72 553.49,-361.81"/>
</a>
</g>
<text text-anchor="middle" x="601" y="-210.5" font-family="Helvetica,sans-Serif" font-size="10.00" fill="grey"> &#45;timerEventPublisher</text>
</g>
<!-- Node16&#45;&gt;Node18 -->
<g id="edge23_Node000018_Node000016" class="edge">
<title>Node16&#45;&gt;Node18</title>
<g id="a_edge23_Node000018_Node000016"><a xlink:title=" ">
<path fill="none" stroke="#63b8ff" d="M404.85,-19.11C409.88,-23.79 415.32,-30.05 418,-37 429.38,-66.52 421.48,-79.99 405,-107 389.82,-131.88 361.08,-146.91 335.2,-155.82"/>
<polygon fill="none" stroke="#63b8ff" points="335.01,-155.88 330.49,-161.5 323.57,-159.5 328.08,-153.88 335.01,-155.88"/>
</a>
</g>
<text text-anchor="middle" x="471" y="-84" font-family="Helvetica,sans-Serif" font-size="10.00" fill="grey"> &#45;timerEventPublisher</text>
</g>
<!-- Node17 -->
<g id="Node000017" class="node">
<title>Node17</title>
<g id="a_Node000017"><a xlink:title=" ">
<polygon fill="white" stroke="transparent" points="176,-107 0,-107 0,-66 176,-66 176,-107"/>
<text text-anchor="start" x="4" y="-94.5" font-family="Helvetica,sans-Serif" font-size="10.00">std::set&lt; core::TimerEvent</text>
<text text-anchor="start" x="4" y="-83.5" font-family="Helvetica,sans-Serif" font-size="10.00">Receiver *, core::TimerEventPublisher</text>
<text text-anchor="start" x="53.5" y="-72.5" font-family="Helvetica,sans-Serif" font-size="10.00">::timernode_lt &gt;</text>
<polygon fill="none" stroke="#666666" points="0,-66 0,-107 176,-107 176,-66 0,-66"/>
</a>
</g>
</g>
<!-- Node17&#45;&gt;Node16 -->
<g id="edge20_Node000016_Node000017" class="edge">
<title>Node17&#45;&gt;Node16</title>
<g id="a_edge20_Node000016_Node000017"><a xlink:title=" ">
<path fill="none" stroke="#63b8ff" d="M167.6,-65.99C224.61,-52.02 299.45,-33.67 347.15,-21.98"/>
<polygon fill="none" stroke="#63b8ff" points="347.31,-21.94 352.18,-16.63 358.96,-19.09 354.09,-24.4 347.31,-21.94"/>
</a>
</g>
<text text-anchor="middle" x="300" y="-40" font-family="Helvetica,sans-Serif" font-size="10.00" fill="grey"> &#45;timerList</text>
</g>
<!-- Node18&#45;&gt;Node17 -->
<g id="edge21_Node000017_Node000018" class="edge">
<title>Node18&#45;&gt;Node17</title>
<g id="a_edge21_Node000017_Node000018"><a xlink:title=" ">
<path fill="none" stroke="#63b8ff" d="M219.82,-165.19C189.65,-161.45 153.97,-153.32 126,-136 118.42,-131.31 111.75,-124.54 106.2,-117.53"/>
<polygon fill="none" stroke="#63b8ff" points="105.88,-117.08 99.13,-114.53 98.89,-107.32 105.64,-109.87 105.88,-117.08"/>
</a>
</g>
<text text-anchor="middle" x="141.5" y="-128" font-family="Helvetica,sans-Serif" font-size="10.00" fill="grey"> +keys</text>
</g>
<!-- Node19 -->
<g id="Node000019" class="node">
<title>Node19</title>
<g id="a_Node000019"><a xlink:href="classcore_1_1Timer.html" target="_top" xlink:title=" ">
<polygon fill="white" stroke="transparent" points="252,-96 194,-96 194,-77 252,-77 252,-96"/>
<text text-anchor="start" x="198" y="-83.5" font-family="Helvetica,sans-Serif" font-size="10.00">core::Timer</text>
<polygon fill="none" stroke="#666666" points="194,-77 194,-96 252,-96 252,-77 194,-77"/>
</a>
</g>
</g>
<!-- Node18&#45;&gt;Node19 -->
<g id="edge25_Node000019_Node000018" class="edge">
<title>Node18&#45;&gt;Node19</title>
<g id="a_edge25_Node000019_Node000018"><a xlink:title=" ">
<path fill="none" stroke="#63b8ff" d="M225.17,-159.45C198.56,-154.17 170.97,-146.4 163,-136 160.03,-132.12 160.63,-129.28 163,-125 166.71,-118.3 181.04,-109.23 194.76,-101.69"/>
<polygon fill="none" stroke="#63b8ff" points="194.82,-101.66 198.25,-95.32 205.42,-96.05 201.99,-102.39 194.82,-101.66"/>
</a>
</g>
<text text-anchor="middle" x="209.5" y="-128" font-family="Helvetica,sans-Serif" font-size="10.00" fill="grey"> &#45;timerEventReceiver</text>
</g>
<!-- Node21 -->
<g id="Node000021" class="node">
<title>Node21</title>
<g id="a_Node000021"><a xlink:title=" ">
<polygon fill="white" stroke="transparent" points="396,-101.5 270,-101.5 270,-71.5 396,-71.5 396,-101.5"/>
<text text-anchor="start" x="274.5" y="-89.5" font-family="Helvetica,sans-Serif" font-size="10.00">std::list&lt; core::TimerEvent</text>
<text text-anchor="start" x="305.5" y="-78.5" font-family="Helvetica,sans-Serif" font-size="10.00">Receiver * &gt;</text>
<polygon fill="none" stroke="#666666" points="270,-71.5 270,-101.5 396,-101.5 396,-71.5 270,-71.5"/>
</a>
</g>
</g>
<!-- Node18&#45;&gt;Node21 -->
<g id="edge28_Node000021_Node000018" class="edge">
<title>Node18&#45;&gt;Node21</title>
<g id="a_edge28_Node000021_Node000018"><a xlink:title=" ">
<path fill="none" stroke="#63b8ff" d="M291.18,-159.38C297.34,-153.27 305.32,-144.65 311,-136 315.66,-128.9 319.81,-120.65 323.22,-112.99"/>
<polygon fill="none" stroke="#63b8ff" points="323.31,-112.76 321.92,-105.69 327.92,-101.69 329.31,-108.76 323.31,-112.76"/>
</a>
</g>
<text text-anchor="middle" x="341.5" y="-128" font-family="Helvetica,sans-Serif" font-size="10.00" fill="grey"> +elements</text>
</g>
<!-- Node19&#45;&gt;Node18 -->
<g id="edge24_Node000018_Node000019" class="edge">
<title>Node19&#45;&gt;Node18</title>
<g id="a_edge24_Node000018_Node000019"><a xlink:title=" ">
<path fill="none" stroke="#63b8ff" d="M232.97,-96.03C240.94,-103.21 252.07,-114.03 260,-125 265.16,-132.14 269.79,-140.66 273.46,-148.23"/>
<polygon fill="none" stroke="#63b8ff" points="273.53,-148.39 279.66,-152.2 278.5,-159.32 272.37,-155.51 273.53,-148.39"/>
</a>
</g>
<text text-anchor="middle" x="281" y="-128" font-family="Helvetica,sans-Serif" font-size="10.00" fill="grey"> &#45;timer</text>
</g>
<!-- Node20 -->
<g id="Node000020" class="node">
<title>Node20</title>
<g id="a_Node000020"><a xlink:href="classutils_1_1Timeval.html" target="_top" xlink:title=" ">
<polygon fill="white" stroke="transparent" points="264,-943 196,-943 196,-924 264,-924 264,-943"/>
<text text-anchor="start" x="200.5" y="-930.5" font-family="Helvetica,sans-Serif" font-size="10.00">utils::Timeval</text>
<polygon fill="none" stroke="#666666" points="196,-924 196,-943 264,-943 264,-924 196,-924"/>
</a>
</g>
</g>
<!-- Node20&#45;&gt;Node4 -->
<g id="edge33_Node000004_Node000020" class="edge">
<title>Node20&#45;&gt;Node4</title>
<g id="a_edge33_Node000004_Node000020"><a xlink:title=" ">
<path fill="none" stroke="#63b8ff" d="M234.3,-923.75C240.88,-911.1 254.56,-887.63 272,-873 281.03,-865.43 292.15,-859.21 302.77,-854.34"/>
<polygon fill="none" stroke="#63b8ff" points="302.92,-854.28 306.88,-848.25 313.96,-849.59 310.01,-855.61 302.92,-854.28"/>
</a>
</g>
<text text-anchor="middle" x="304" y="-898" font-family="Helvetica,sans-Serif" font-size="10.00" fill="grey"> &#45;initialTimeout</text>
<text text-anchor="middle" x="304" y="-887" font-family="Helvetica,sans-Serif" font-size="10.00" fill="grey">&#45;lastTriggered</text>
<text text-anchor="middle" x="304" y="-876" font-family="Helvetica,sans-Serif" font-size="10.00" fill="grey">&#45;maxInactivity</text>
</g>
<!-- Node20&#45;&gt;Node18 -->
<g id="edge26_Node000018_Node000020" class="edge">
<title>Node20&#45;&gt;Node18</title>
<g id="a_edge26_Node000018_Node000020"><a xlink:title=" ">
<path fill="none" stroke="#63b8ff" d="M226.47,-923.83C220.25,-907.78 208,-872.21 208,-841 208,-841 208,-841 208,-250.5 208,-221.89 233.65,-199.06 254.75,-185.13"/>
<polygon fill="none" stroke="#63b8ff" points="255,-184.97 258,-178.42 265.21,-178.67 262.21,-185.22 255,-184.97"/>
</a>
</g>
<text text-anchor="middle" x="247.5" y="-502" font-family="Helvetica,sans-Serif" font-size="10.00" fill="grey"> &#45;absoluteTimeout</text>
<text text-anchor="middle" x="247.5" y="-491" font-family="Helvetica,sans-Serif" font-size="10.00" fill="grey">&#45;delay</text>
</g>
<!-- Node21&#45;&gt;Node16 -->
<g id="edge27_Node000016_Node000021" class="edge">
<title>Node21&#45;&gt;Node16</title>
<g id="a_edge27_Node000016_Node000021"><a xlink:title=" ">
<path fill="none" stroke="#63b8ff" d="M338.26,-71.3C342.53,-61.04 349.27,-47.24 358,-37 361.25,-33.19 365.15,-29.62 369.16,-26.4"/>
<polygon fill="none" stroke="#63b8ff" points="369.36,-26.26 371.87,-19.5 379.08,-19.23 376.56,-25.98 369.36,-26.26"/>
</a>
</g>
<text text-anchor="middle" x="388" y="-40" font-family="Helvetica,sans-Serif" font-size="10.00" fill="grey"> &#45;removedList</text>
</g>
<!-- Node22 -->
<g id="Node000022" class="node">
<title>Node22</title>
<g id="a_Node000022"><a xlink:href="classcore_1_1EventMultiplexer_1_1EventQueue.html" target="_top" xlink:title=" ">
<polygon fill="white" stroke="transparent" points="520,-184 414,-184 414,-154 520,-154 520,-184"/>
<text text-anchor="start" x="418" y="-172" font-family="Helvetica,sans-Serif" font-size="10.00">core::EventMultiplexer</text>
<text text-anchor="start" x="436.5" y="-161" font-family="Helvetica,sans-Serif" font-size="10.00">::EventQueue</text>
<polygon fill="none" stroke="#666666" points="414,-154 414,-184 520,-184 520,-154 414,-154"/>
</a>
</g>
</g>
<!-- Node22&#45;&gt;Node10 -->
<g id="edge29_Node000010_Node000022" class="edge">
<title>Node22&#45;&gt;Node10</title>
<g id="a_edge29_Node000010_Node000022"><a xlink:title=" ">
<path fill="none" stroke="#63b8ff" d="M520.34,-172C568.02,-175.05 632.81,-182.71 649,-202 693.72,-255.26 613.74,-332.74 573.75,-366.15"/>
<polygon fill="none" stroke="#63b8ff" points="573.63,-366.25 571.51,-373.14 564.33,-373.83 566.45,-366.94 573.63,-366.25"/>
</a>
</g>
<text text-anchor="middle" x="680.5" y="-282" font-family="Helvetica,sans-Serif" font-size="10.00" fill="grey"> &#45;eventQueue</text>
</g>
<!-- Node23&#45;&gt;Node22 -->
<g id="edge30_Node000022_Node000023" class="edge">
<title>Node23&#45;&gt;Node22</title>
<g id="a_edge30_Node000022_Node000023"><a xlink:title=" ">
<path fill="none" stroke="#63b8ff" d="M463.75,-241.69C463.08,-236.54 462.33,-229.92 462,-224 461.45,-214.24 461.24,-211.75 462,-202 462.14,-200.18 462.33,-198.3 462.54,-196.42"/>
<polygon fill="none" stroke="#63b8ff" points="462.58,-196.16 459.47,-189.65 464.28,-184.28 467.39,-190.79 462.58,-196.16"/>
</a>
</g>
<text text-anchor="middle" x="497" y="-216" font-family="Helvetica,sans-Serif" font-size="10.00" fill="grey"> &#45;executeQueue</text>
<text text-anchor="middle" x="497" y="-205" font-family="Helvetica,sans-Serif" font-size="10.00" fill="grey">&#45;publishQueue</text>
</g>
<!-- Node24 -->
<g id="Node000024" class="node">
<title>Node24</title>
<g id="a_Node000024"><a xlink:title=" ">
<polygon fill="white" stroke="transparent" points="949,-778 797,-778 797,-737 949,-737 949,-778"/>
<text text-anchor="start" x="801.5" y="-765.5" font-family="Helvetica,sans-Serif" font-size="10.00">std::shared_ptr&lt; core</text>
<text text-anchor="start" x="801.5" y="-754.5" font-family="Helvetica,sans-Serif" font-size="10.00">::socket::stream::SocketContext</text>
<text text-anchor="start" x="851.5" y="-743.5" font-family="Helvetica,sans-Serif" font-size="10.00">Factory &gt;</text>
<polygon fill="none" stroke="#666666" points="797,-737 797,-778 949,-778 949,-737 797,-737"/>
</a>
</g>
</g>
<!-- Node24&#45;&gt;Node2 -->
<g id="edge34_Node000002_Node000024" class="edge">
<title>Node24&#45;&gt;Node2</title>
<g id="a_edge34_Node000002_Node000024"><a xlink:title=" ">
<path fill="none" stroke="#63b8ff" d="M873,-736.74C873,-723.92 873,-706.81 873,-691.48"/>
<polygon fill="none" stroke="#63b8ff" points="873,-691.16 869,-685.16 873,-679.16 877,-685.16 873,-691.16"/>
</a>
</g>
<text text-anchor="middle" x="926" y="-705.5" font-family="Helvetica,sans-Serif" font-size="10.00" fill="grey"> #socketContextFactory</text>
</g>
<!-- Node25 -->
<g id="Node000025" class="node">
<title>Node25</title>
<g id="a_Node000025"><a xlink:href="classcore_1_1socket_1_1stream_1_1SocketContextFactory.html" target="_top" xlink:title=" ">
<polygon fill="white" stroke="transparent" points="930,-855 816,-855 816,-825 930,-825 930,-855"/>
<text text-anchor="start" x="820.5" y="-843" font-family="Helvetica,sans-Serif" font-size="10.00">core::socket::stream</text>
<text text-anchor="start" x="820.5" y="-832" font-family="Helvetica,sans-Serif" font-size="10.00">::SocketContextFactory</text>
<polygon fill="none" stroke="#666666" points="816,-825 816,-855 930,-855 930,-825 816,-825"/>
</a>
</g>
</g>
<!-- Node25&#45;&gt;Node24 -->
<g id="edge35_Node000024_Node000025" class="edge">
<title>Node25&#45;&gt;Node24</title>
<g id="a_edge35_Node000024_Node000025"><a xlink:title=" ">
<path fill="none" stroke="#63b8ff" d="M873,-824.98C873,-815.35 873,-802.17 873,-790.09"/>
<polygon fill="none" stroke="#63b8ff" points="873,-790.09 869,-784.09 873,-778.09 877,-784.09 873,-790.09"/>
</a>
</g>
<text text-anchor="middle" x="883.5" y="-799" font-family="Helvetica,sans-Serif" font-size="10.00" fill="grey"> +ptr</text>
</g>
<!-- Node26 -->
<g id="Node000026" class="node">
<title>Node26</title>
<g id="a_Node000026"><a xlink:title=" ">
<polygon fill="white" stroke="transparent" points="1087,-767 967,-767 967,-748 1087,-748 1087,-767"/>
<text text-anchor="start" x="971" y="-754.5" font-family="Helvetica,sans-Serif" font-size="10.00">std::shared_ptr&lt; Config &gt;</text>
<polygon fill="none" stroke="#666666" points="967,-748 967,-767 1087,-767 1087,-748 967,-748"/>
</a>
</g>
</g>
<!-- Node26&#45;&gt;Node2 -->
<g id="edge36_Node000002_Node000026" class="edge">
<title>Node26&#45;&gt;Node2</title>
<g id="a_edge36_Node000002_Node000026"><a xlink:title=" ">
<path fill="none" stroke="#63b8ff" d="M1022.52,-747.6C1015.66,-734.76 1001.36,-711.06 983,-697 977.07,-692.46 970.6,-688.34 963.87,-684.62"/>
<polygon fill="none" stroke="#63b8ff" points="963.77,-684.57 956.61,-685.38 953.1,-679.08 960.27,-678.27 963.77,-684.57"/>
</a>
</g>
<text text-anchor="middle" x="1022.5" y="-705.5" font-family="Helvetica,sans-Serif" font-size="10.00" fill="grey"> #config</text>
</g>
</g>
</svg>

<g id="navigator" transform="translate(0 0)" fill="#404254">
  <rect fill="#f2f5e9" fill-opacity="0.5" stroke="#606060" stroke-width=".5" x="0" y="0" width="60" height="60"/>
  <use id="zoomplus" xlink:href="#zoomPlus" x="17" y="9" onmousedown="handleZoom(evt,'in')"/>
  <use id="zoomminus" xlink:href="#zoomMin" x="42" y="9" onmousedown="handleZoom(evt,'out')"/>
  <use id="reset" xlink:href="#resetDef" x="30" y="36" onmousedown="handleReset()"/>
   <use id="arrowup" xlink:href="#arrowUp" x="0" y="0" onmousedown="handlePan(0,-1)"/>
  <use id="arrowright" xlink:href="#arrowRight" x="0" y="0" onmousedown="handlePan(1,0)"/>
  <use id="arrowdown" xlink:href="#arrowDown" x="0" y="0" onmousedown="handlePan(0,1)"/>
  <use id="arrowleft" xlink:href="#arrowLeft" x="0" y="0" onmousedown="handlePan(-1,0)"/>
</g>
<svg viewBox="0 0 15 15" width="100%" height="30px" preserveAspectRatio="xMaxYMin meet">
 <g id="arrow_out" transform="scale(0.3 0.3)">
  <a xlink:href="classcore_1_1socket_1_1stream_1_1tls_1_1SocketAcceptor__coll__graph_org.svg" target="_base">
   <rect id="button" ry="5" rx="5" y="6" x="6" height="38" width="38"
        fill="#f2f5e9" fill-opacity="0.5" stroke="#606060" stroke-width="1.0"/>
   <path id="arrow"
     d="M 11.500037,31.436501 C 11.940474,20.09759 22.043105,11.32322 32.158766,21.979434 L 37.068811,17.246167 C 37.068811,17.246167 37.088388,32 37.088388,32 L 22.160133,31.978069 C 22.160133,31.978069 26.997745,27.140456 26.997745,27.140456 C 18.528582,18.264221 13.291696,25.230495 11.500037,31.436501 z"
     style="fill:#404040;"/>
  </a>
 </g>
</svg>

<style type='text/css'>
<![CDATA[
[data-mouse-over-selected='false'] { opacity: 0.7; }
[data-mouse-over-selected='true']  { opacity: 1.0; }
]]>
</style>
<script type="application/ecmascript"><![CDATA[
document.addEventListener('DOMContentLoaded', (event) => {
  highlightEdges();
  highlightAdjacentNodes();
});
]]></script>
</svg>
