<?xml version="1.0" encoding="UTF-8" standalone="no"?>
<!DOCTYPE svg PUBLIC "-//W3C//DTD SVG 1.1//EN"
 "http://www.w3.org/Graphics/SVG/1.1/DTD/svg11.dtd">
<!-- Generated by graphviz version 14.1.2 (0)
 -->
<!-- Title: web::http::client::ConfigHTTP Pages: 1 -->
<svg width="141pt" height="98pt"
 viewBox="0.00 0.00 141.00 98.00" xmlns="http://www.w3.org/2000/svg" xmlns:xlink="http://www.w3.org/1999/xlink">
<g id="graph0" class="graph" transform="scale(1 1) rotate(0) translate(4 94.25)">
<title>web::http::client::ConfigHTTP</title>
<!-- Node1 -->
<g id="Node000001" class="node">
<title>Node1</title>
<g id="a_Node000001"><a xlink:title=" ">
<polygon fill="#999999" stroke="none" points="113,-33.5 20.25,-33.5 20.25,0 113,0 113,-33.5"/>
<text xml:space="preserve" text-anchor="start" x="24.25" y="-20" font-family="Helvetica,sans-Serif" font-size="10.00">web::http::client::</text>
<text xml:space="preserve" text-anchor="start" x="38.12" y="-7.25" font-family="Helvetica,sans-Serif" font-size="10.00">ConfigHTTP</text>
<polygon fill="none" stroke="#666666" points="20.25,0 20.25,-33.5 113,-33.5 113,0 20.25,0"/>
</a>
</g>
</g>
<!-- Node2 -->
<g id="Node000002" class="node">
<title>Node2</title>
<g id="a_Node000002"><a xlink:href="classnet_1_1config_1_1ConfigSection.html" target="_top" xlink:title=" ">
<polygon fill="white" stroke="none" points="133.25,-90.25 0,-90.25 0,-69.5 133.25,-69.5 133.25,-90.25"/>
<text xml:space="preserve" text-anchor="start" x="4" y="-76.75" font-family="Helvetica,sans-Serif" font-size="10.00">net::config::ConfigSection</text>
<polygon fill="none" stroke="#666666" points="0,-69.5 0,-90.25 133.25,-90.25 133.25,-69.5 0,-69.5"/>
</a>
</g>
</g>
<!-- Node2&#45;&gt;Node1 -->
<g id="edge1_Node000001_Node000002" class="edge">
<title>Node2&#45;&gt;Node1</title>
<g id="a_edge1_Node000001_Node000002"><a xlink:title=" ">
<path fill="none" stroke="#63b8ff" d="M66.62,-58.36C66.62,-50.18 66.62,-40.92 66.62,-33.31"/>
<polygon fill="none" stroke="#63b8ff" points="63.13,-58.08 66.63,-68.08 70.13,-58.08 63.13,-58.08"/>
</a>
</g>
</g>
</g>
</svg>
