<?xml version="1.0" encoding="UTF-8" standalone="no"?>
<!DOCTYPE svg PUBLIC "-//W3C//DTD SVG 1.1//EN"
 "http://www.w3.org/Graphics/SVG/1.1/DTD/svg11.dtd">
<!-- Generated by graphviz version 2.43.0 (0)
 -->
<!-- Title: core::socket::stream::SocketContext::SocketContext Pages: 1 -->
<svg width="378pt" height="134pt"
 viewBox="0.00 0.00 378.00 134.00" xmlns="http://www.w3.org/2000/svg" xmlns:xlink="http://www.w3.org/1999/xlink">
<g id="graph0" class="graph" transform="scale(1 1) rotate(0) translate(4 130)">
<title>core::socket::stream::SocketContext::SocketContext</title>
<!-- Node1 -->
<g id="Node000001" class="node">
<title>Node1</title>
<g id="a_Node000001"><a xlink:title=" ">
<polygon fill="#999999" stroke="#666666" points="370,-78 200,-78 200,-48 370,-48 370,-78"/>
<text text-anchor="start" x="208" y="-66" font-family="Helvetica,sans-Serif" font-size="10.00">core::socket::stream</text>
<text text-anchor="middle" x="285" y="-55" font-family="Helvetica,sans-Serif" font-size="10.00">::SocketContext::SocketContext</text>
</a>
</g>
</g>
<!-- Node2 -->
<g id="Node000002" class="node">
<title>Node2</title>
<g id="a_Node000002"><a xlink:href="classiot_1_1mqtt__fast_1_1SocketContext.html#a171a2a425278ce2cd7881774ec467e2a" target="_top" xlink:title=" ">
<polygon fill="white" stroke="#666666" points="161.5,-126 2.5,-126 2.5,-96 161.5,-96 161.5,-126"/>
<text text-anchor="start" x="10.5" y="-114" font-family="Helvetica,sans-Serif" font-size="10.00">iot::mqtt_fast::SocketContext</text>
<text text-anchor="middle" x="82" y="-103" font-family="Helvetica,sans-Serif" font-size="10.00">::SocketContext</text>
</a>
</g>
</g>
<!-- Node1&#45;&gt;Node2 -->
<g id="edge1_Node000001_Node000002" class="edge">
<title>Node1&#45;&gt;Node2</title>
<g id="a_edge1_Node000001_Node000002"><a xlink:title=" ">
<path fill="none" stroke="#63b8ff" d="M210.96,-80.44C189.62,-85.54 166.48,-91.07 145.82,-96"/>
<polygon fill="#63b8ff" stroke="#63b8ff" points="212.04,-83.78 220.95,-78.06 210.41,-76.97 212.04,-83.78"/>
</a>
</g>
</g>
<!-- Node3 -->
<g id="Node000003" class="node">
<title>Node3</title>
<g id="a_Node000003"><a xlink:href="classweb_1_1http_1_1client_1_1SocketContext.html#a33e6675bfc56f19a3e3a735c3286a3bd" target="_top" xlink:title=" ">
<polygon fill="white" stroke="#666666" points="164,-78 0,-78 0,-48 164,-48 164,-78"/>
<text text-anchor="start" x="8" y="-66" font-family="Helvetica,sans-Serif" font-size="10.00">web::http::client::</text>
<text text-anchor="middle" x="82" y="-55" font-family="Helvetica,sans-Serif" font-size="10.00">SocketContext::SocketContext</text>
</a>
</g>
</g>
<!-- Node1&#45;&gt;Node3 -->
<g id="edge2_Node000001_Node000003" class="edge">
<title>Node1&#45;&gt;Node3</title>
<g id="a_edge2_Node000001_Node000003"><a xlink:title=" ">
<path fill="none" stroke="#63b8ff" d="M189.88,-63C181.29,-63 172.63,-63 164.17,-63"/>
<polygon fill="#63b8ff" stroke="#63b8ff" points="189.92,-66.5 199.92,-63 189.92,-59.5 189.92,-66.5"/>
</a>
</g>
</g>
<!-- Node4 -->
<g id="Node000004" class="node">
<title>Node4</title>
<g id="a_Node000004"><a xlink:href="classiot_1_1mqtt_1_1SocketContext.html#a4bd8b26b863ccb46650758301c5f8e70" target="_top" xlink:title=" ">
<polygon fill="white" stroke="#666666" points="149.5,-30 14.5,-30 14.5,0 149.5,0 149.5,-30"/>
<text text-anchor="start" x="22.5" y="-18" font-family="Helvetica,sans-Serif" font-size="10.00">iot::mqtt::SocketContext</text>
<text text-anchor="middle" x="82" y="-7" font-family="Helvetica,sans-Serif" font-size="10.00">::SocketContext</text>
</a>
</g>
</g>
<!-- Node1&#45;&gt;Node4 -->
<g id="edge3_Node000001_Node000004" class="edge">
<title>Node1&#45;&gt;Node4</title>
<g id="a_edge3_Node000001_Node000004"><a xlink:title=" ">
<path fill="none" stroke="#63b8ff" d="M210.96,-45.56C189.62,-40.46 166.48,-34.93 145.82,-30"/>
<polygon fill="#63b8ff" stroke="#63b8ff" points="210.41,-49.03 220.95,-47.94 212.04,-42.22 210.41,-49.03"/>
</a>
</g>
</g>
</g>
</svg>
