<?xml version="1.0" encoding="UTF-8" standalone="no"?>
<!DOCTYPE svg PUBLIC "-//W3C//DTD SVG 1.1//EN"
 "http://www.w3.org/Graphics/SVG/1.1/DTD/svg11.dtd">
<!-- Generated by graphviz version 2.43.0 (0)
 -->
<!-- Title: utils::Daemon::startDaemon Pages: 1 -->
<svg width="489pt" height="60pt"
 viewBox="0.00 0.00 489.00 60.00" xmlns="http://www.w3.org/2000/svg" xmlns:xlink="http://www.w3.org/1999/xlink">
<g id="graph0" class="graph" transform="scale(1 1) rotate(0) translate(4 56)">
<title>utils::Daemon::startDaemon</title>
<!-- Node1 -->
<g id="Node000001" class="node">
<title>Node1</title>
<g id="a_Node000001"><a xlink:title=" ">
<polygon fill="#999999" stroke="#666666" points="155,-24.5 0,-24.5 0,-5.5 155,-5.5 155,-24.5"/>
<text text-anchor="middle" x="77.5" y="-12.5" font-family="Helvetica,sans-Serif" font-size="10.00">utils::Daemon::startDaemon</text>
</a>
</g>
</g>
<!-- Node2 -->
<g id="Node000002" class="node">
<title>Node2</title>
<g id="a_Node000002"><a xlink:href="classutils_1_1DaemonizeError.html#a5a42290a8321b84597413d2bd9fe0eb6" target="_top" xlink:title=" ">
<polygon fill="white" stroke="#666666" points="313,-52 191,-52 191,-22 313,-22 313,-52"/>
<text text-anchor="start" x="199" y="-40" font-family="Helvetica,sans-Serif" font-size="10.00">utils::DaemonizeError</text>
<text text-anchor="middle" x="252" y="-29" font-family="Helvetica,sans-Serif" font-size="10.00">::DaemonizeError</text>
</a>
</g>
</g>
<!-- Node1&#45;&gt;Node2 -->
<g id="edge1_Node000001_Node000002" class="edge">
<title>Node1&#45;&gt;Node2</title>
<g id="a_edge1_Node000001_Node000002"><a xlink:title=" ">
<path fill="none" stroke="#63b8ff" d="M153.16,-24.52C162.29,-25.69 171.59,-26.87 180.66,-28.03"/>
<polygon fill="#63b8ff" stroke="#63b8ff" points="180.4,-31.52 190.76,-29.32 181.29,-24.58 180.4,-31.52"/>
</a>
</g>
</g>
<!-- Node3 -->
<g id="Node000003" class="node">
<title>Node3</title>
<g id="a_Node000003"><a xlink:href="classutils_1_1DaemonizeFailure.html#a667542ba48e67246552c84abf4fac80b" target="_top" xlink:title=" ">
<polygon fill="white" stroke="#666666" points="481,-30 349,-30 349,0 481,0 481,-30"/>
<text text-anchor="start" x="357" y="-18" font-family="Helvetica,sans-Serif" font-size="10.00">utils::DaemonizeFailure</text>
<text text-anchor="middle" x="415" y="-7" font-family="Helvetica,sans-Serif" font-size="10.00">::DaemonizeFailure</text>
</a>
</g>
</g>
<!-- Node1&#45;&gt;Node3 -->
<g id="edge3_Node000001_Node000003" class="edge">
<title>Node1&#45;&gt;Node3</title>
<g id="a_edge3_Node000001_Node000003"><a xlink:title=" ">
<path fill="none" stroke="#63b8ff" d="M155.05,-13.46C167.08,-13.27 179.38,-13.1 191,-13 245.22,-12.52 258.78,-12.46 313,-13 321.32,-13.08 330.02,-13.2 338.68,-13.34"/>
<polygon fill="#63b8ff" stroke="#63b8ff" points="338.75,-16.85 348.81,-13.52 338.87,-9.85 338.75,-16.85"/>
</a>
</g>
</g>
<!-- Node2&#45;&gt;Node3 -->
<g id="edge2_Node000002_Node000003" class="edge">
<title>Node2&#45;&gt;Node3</title>
<g id="a_edge2_Node000002_Node000003"><a xlink:title=" ">
<path fill="none" stroke="#63b8ff" d="M313.41,-28.75C321.75,-27.61 330.39,-26.42 338.95,-25.26"/>
<polygon fill="#63b8ff" stroke="#63b8ff" points="339.51,-28.71 348.94,-23.89 338.56,-21.78 339.51,-28.71"/>
</a>
</g>
</g>
</g>
</svg>
