<?xml version="1.0" encoding="UTF-8" standalone="no"?>
<!DOCTYPE svg PUBLIC "-//W3C//DTD SVG 1.1//EN"
 "http://www.w3.org/Graphics/SVG/1.1/DTD/svg11.dtd">
<!-- Generated by graphviz version 2.42.4 (0)
 -->
<!-- Title: web::http::StatusCode::contains Pages: 1 -->
<!--zoomable 504 -->

<svg id="main" version="1.1" xmlns="http://www.w3.org/2000/svg" xmlns:xlink="http://www.w3.org/1999/xlink" xml:space="preserve" onload="init(evt)">
<style type="text/css"><![CDATA[
.node, .edge {opacity: 0.7;}
.node.selected, .edge.selected {opacity: 1;}
.edge:hover path { stroke: red; }
.edge:hover polygon { stroke: red; fill: red; }
]]></style>

<defs>
  <circle id="rim" cx="0" cy="0" r="7"/>
  <circle id="rim2" cx="0" cy="0" r="3.5"/>
  <g id="zoomPlus">
    <use xlink:href="#rim" fill="#404040"><set attributeName="fill" to="#808080" begin="zoomplus.mouseover" end="zoomplus.mouseout"/></use>
    <path d="M-4,0h8M0,-4v8" fill="none" stroke="white" stroke-width="1.5" pointer-events="none"/>
  </g>
  <g id="zoomMin">
    <use xlink:href="#rim" fill="#404040"><set attributeName="fill" to="#808080" begin="zoomminus.mouseover" end="zoomminus.mouseout"/></use>
    <path d="M-4,0h8" fill="none" stroke="white" stroke-width="1.5" pointer-events="none"/>
  </g>
  <g id="arrowUp" transform="translate(30 24)">
    <use xlink:href="#rim"/>
    <path pointer-events="none" fill="none" stroke="white" stroke-width="1.5" d="M0,-3.0v7 M-2.5,-0.5L0,-3.0L2.5,-0.5"/>
  </g>
  <g id="arrowRight" transform="rotate(90) translate(36 -43)">
    <use xlink:href="#rim"/>
    <path pointer-events="none" fill="none" stroke="white" stroke-width="1.5" d="M0,-3.0v7 M-2.5,-0.5L0,-3.0L2.5,-0.5"/>
  </g>
  <g id="arrowDown" transform="rotate(180) translate(-30 -48)">
    <use xlink:href="#rim"/>
    <path pointer-events="none" fill="none" stroke="white" stroke-width="1.5" d="M0,-3.0v7 M-2.5,-0.5L0,-3.0L2.5,-0.5"/>
  </g>
  <g id="arrowLeft" transform="rotate(270) translate(-36 17)">
    <use xlink:href="#rim"/>
    <path pointer-events="none" fill="none" stroke="white" stroke-width="1.5" d="M0,-3.0v7 M-2.5,-0.5L0,-3.0L2.5,-0.5"/>
  </g>
  <g id="resetDef">
    <use xlink:href="#rim2" fill="#404040"><set attributeName="fill" to="#808080" begin="reset.mouseover" end="reset.mouseout"/></use>
  </g>
</defs>
<script type="application/ecmascript">
var viewWidth = 2530;
var viewHeight = 504;
var sectionId = 'dynsection-1';
</script>
<script type="application/ecmascript" xlink:href="svg.min.js"/>
<svg id="graph" class="graph">
<g id="viewport">
<title>web::http::StatusCode::contains</title>
<!-- Node1 -->
<g id="Node000001" class="node">
<title>Node1</title>
<g id="a_Node000001"><a xlink:title=" ">
<polygon fill="#999999" stroke="#666666" points="2522,-381 2398,-381 2398,-351 2522,-351 2522,-381"/>
<text text-anchor="start" x="2406" y="-369" font-family="Helvetica,sans-Serif" font-size="10.00">web::http::StatusCode</text>
<text text-anchor="middle" x="2460" y="-358" font-family="Helvetica,sans-Serif" font-size="10.00">::contains</text>
</a>
</g>
</g>
<!-- Node2 -->
<g id="Node000002" class="node">
<title>Node2</title>
<g id="a_Node000002"><a xlink:href="classweb_1_1http_1_1client_1_1ResponseParser.html#a53e55550bd7598a846f4e5128590a27e" target="_top" xlink:title=" ">
<polygon fill="white" stroke="#666666" points="2362,-405 2191,-405 2191,-375 2362,-375 2362,-405"/>
<text text-anchor="start" x="2199" y="-393" font-family="Helvetica,sans-Serif" font-size="10.00">web::http::client::</text>
<text text-anchor="middle" x="2276.5" y="-382" font-family="Helvetica,sans-Serif" font-size="10.00">ResponseParser::parseStartLine</text>
</a>
</g>
</g>
<!-- Node1&#45;&gt;Node2 -->
<g id="edge1_Node000001_Node000002" class="edge">
<title>Node1&#45;&gt;Node2</title>
<g id="a_edge1_Node000001_Node000002"><a xlink:title=" ">
<path fill="none" stroke="#63b8ff" d="M2387.74,-375.42C2379.38,-376.53 2370.79,-377.66 2362.27,-378.79"/>
<polygon fill="#63b8ff" stroke="#63b8ff" points="2388.35,-378.87 2397.81,-374.09 2387.43,-371.93 2388.35,-378.87"/>
</a>
</g>
</g>
<!-- Node3 -->
<g id="Node000003" class="node">
<title>Node3</title>
<g id="a_Node000003"><a xlink:href="classweb_1_1http_1_1StatusCode.html#ad3c635f1cb778cdb4a2e23332ebda277" target="_top" xlink:title=" ">
<polygon fill="white" stroke="#666666" points="2338.5,-357 2214.5,-357 2214.5,-327 2338.5,-327 2338.5,-357"/>
<text text-anchor="start" x="2222.5" y="-345" font-family="Helvetica,sans-Serif" font-size="10.00">web::http::StatusCode</text>
<text text-anchor="middle" x="2276.5" y="-334" font-family="Helvetica,sans-Serif" font-size="10.00">::reason</text>
</a>
</g>
</g>
<!-- Node1&#45;&gt;Node3 -->
<g id="edge2_Node000001_Node000003" class="edge">
<title>Node1&#45;&gt;Node3</title>
<g id="a_edge2_Node000001_Node000003"><a xlink:title=" ">
<path fill="none" stroke="#63b8ff" d="M2387.84,-356.59C2371.61,-354.44 2354.51,-352.18 2338.74,-350.1"/>
<polygon fill="#63b8ff" stroke="#63b8ff" points="2387.43,-360.07 2397.81,-357.91 2388.35,-353.13 2387.43,-360.07"/>
</a>
</g>
</g>
<!-- Node4 -->
<g id="Node000004" class="node">
<title>Node4</title>
<g id="a_Node000004"><a xlink:href="classweb_1_1http_1_1server_1_1Response.html#a8f6c40b9d266cd754cd8d3e2612d22de" target="_top" xlink:title=" ">
<polygon fill="white" stroke="#666666" points="2155,-424 2027,-424 2027,-394 2155,-394 2155,-424"/>
<text text-anchor="start" x="2035" y="-412" font-family="Helvetica,sans-Serif" font-size="10.00">web::http::server::</text>
<text text-anchor="middle" x="2091" y="-401" font-family="Helvetica,sans-Serif" font-size="10.00">Response::sendHeader</text>
</a>
</g>
</g>
<!-- Node3&#45;&gt;Node4 -->
<g id="edge3_Node000003_Node000004" class="edge">
<title>Node3&#45;&gt;Node4</title>
<g id="a_edge3_Node000003_Node000004"><a xlink:title=" ">
<path fill="none" stroke="#63b8ff" d="M2208.39,-360.17C2202.48,-362.04 2196.61,-363.99 2191,-366 2168.06,-374.2 2142.89,-385.16 2123.67,-393.96"/>
<polygon fill="#63b8ff" stroke="#63b8ff" points="2209.82,-363.39 2218.35,-357.11 2207.77,-356.7 2209.82,-363.39"/>
</a>
</g>
</g>
<!-- Node15 -->
<g id="Node000015" class="node">
<title>Node15</title>
<g id="a_Node000015"><a xlink:href="classexpress_1_1Response.html#a3594f40a7f6b8d06bfdd7922bade4e7c" target="_top" xlink:title=" ">
<polygon fill="white" stroke="#666666" points="1444,-301 1330,-301 1330,-271 1444,-271 1444,-301"/>
<text text-anchor="start" x="1338" y="-289" font-family="Helvetica,sans-Serif" font-size="10.00">express::Response::</text>
<text text-anchor="middle" x="1387" y="-278" font-family="Helvetica,sans-Serif" font-size="10.00">sendStatus</text>
</a>
</g>
</g>
<!-- Node3&#45;&gt;Node15 -->
<g id="edge44_Node000003_Node000015" class="edge">
<title>Node3&#45;&gt;Node15</title>
<g id="a_edge44_Node000003_Node000015"><a xlink:title=" ">
<path fill="none" stroke="#63b8ff" d="M2204.31,-325.61C2131.81,-310.37 2015.95,-290 1914.5,-290 1914.5,-290 1914.5,-290 1730.5,-290 1629.56,-290 1511.89,-288.24 1444.06,-287.06"/>
<polygon fill="#63b8ff" stroke="#63b8ff" points="2203.74,-329.06 2214.25,-327.72 2205.19,-322.22 2203.74,-329.06"/>
</a>
</g>
</g>
<!-- Node38 -->
<g id="Node000038" class="node">
<title>Node38</title>
<g id="a_Node000038"><a xlink:href="classweb_1_1http_1_1server_1_1Response.html#ad3587f9838ba8df486ca9e14496fc844" target="_top" xlink:title=" ">
<polygon fill="white" stroke="#666666" points="1620.5,-369 1496.5,-369 1496.5,-339 1620.5,-339 1620.5,-369"/>
<text text-anchor="start" x="1504.5" y="-357" font-family="Helvetica,sans-Serif" font-size="10.00">web::http::server::</text>
<text text-anchor="middle" x="1558.5" y="-346" font-family="Helvetica,sans-Serif" font-size="10.00">Response::sendStatus</text>
</a>
</g>
</g>
<!-- Node3&#45;&gt;Node38 -->
<g id="edge45_Node000003_Node000038" class="edge">
<title>Node3&#45;&gt;Node38</title>
<g id="a_edge45_Node000003_Node000038"><a xlink:title=" ">
<path fill="none" stroke="#63b8ff" d="M2204.22,-343.19C2063.59,-345.55 1752.62,-350.76 1620.64,-352.98"/>
<polygon fill="#63b8ff" stroke="#63b8ff" points="2204.51,-346.69 2214.45,-343.02 2204.4,-339.69 2204.51,-346.69"/>
</a>
</g>
</g>
<!-- Node5 -->
<g id="Node000005" class="node">
<title>Node5</title>
<g id="a_Node000005"><a xlink:href="classweb_1_1http_1_1server_1_1Response.html#a32364fe954f40c700848c3037bcf5f96" target="_top" xlink:title=" ">
<polygon fill="white" stroke="#666666" points="1991,-496 1836,-496 1836,-466 1991,-466 1991,-496"/>
<text text-anchor="start" x="1844" y="-484" font-family="Helvetica,sans-Serif" font-size="10.00">web::http::server::</text>
<text text-anchor="middle" x="1913.5" y="-473" font-family="Helvetica,sans-Serif" font-size="10.00">Response::onSourceConnect</text>
</a>
</g>
</g>
<!-- Node4&#45;&gt;Node5 -->
<g id="edge4_Node000004_Node000005" class="edge">
<title>Node4&#45;&gt;Node5</title>
<g id="a_edge4_Node000004_Node000005"><a xlink:title=" ">
<path fill="none" stroke="#63b8ff" d="M2052.35,-428.88C2034.11,-438.08 2011.71,-448.78 1991,-457 1983.11,-460.13 1974.63,-463.13 1966.3,-465.89"/>
<polygon fill="#63b8ff" stroke="#63b8ff" points="2054.16,-431.88 2061.48,-424.22 2050.98,-425.64 2054.16,-431.88"/>
</a>
</g>
</g>
<!-- Node6 -->
<g id="Node000006" class="node">
<title>Node6</title>
<g id="a_Node000006"><a xlink:href="classweb_1_1http_1_1server_1_1Response.html#a6a6cd44cb3d0f3a65e38f5a4cd9cc05b" target="_top" xlink:title=" ">
<polygon fill="white" stroke="#666666" points="1966,-448 1861,-448 1861,-418 1966,-418 1966,-448"/>
<text text-anchor="start" x="1869" y="-436" font-family="Helvetica,sans-Serif" font-size="10.00">web::http::server::</text>
<text text-anchor="middle" x="1913.5" y="-425" font-family="Helvetica,sans-Serif" font-size="10.00">Response::send</text>
</a>
</g>
</g>
<!-- Node4&#45;&gt;Node6 -->
<g id="edge5_Node000004_Node000006" class="edge">
<title>Node4&#45;&gt;Node6</title>
<g id="a_edge5_Node000004_Node000006"><a xlink:title=" ">
<path fill="none" stroke="#63b8ff" d="M2016.28,-419.08C1999.45,-421.38 1981.91,-423.78 1966.24,-425.92"/>
<polygon fill="#63b8ff" stroke="#63b8ff" points="2017.21,-422.49 2026.64,-417.66 2016.26,-415.55 2017.21,-422.49"/>
</a>
</g>
</g>
<!-- Node39 -->
<g id="Node000039" class="node">
<title>Node39</title>
<g id="a_Node000039"><a xlink:href="classexpress_1_1Response.html#a135176b4c7f4055c97fd7982cd7e9756" target="_top" xlink:title=" ">
<polygon fill="white" stroke="#666666" points="1970.5,-400 1856.5,-400 1856.5,-370 1970.5,-370 1970.5,-400"/>
<text text-anchor="start" x="1864.5" y="-388" font-family="Helvetica,sans-Serif" font-size="10.00">express::Response::</text>
<text text-anchor="middle" x="1913.5" y="-377" font-family="Helvetica,sans-Serif" font-size="10.00">sendHeader</text>
</a>
</g>
</g>
<!-- Node4&#45;&gt;Node39 -->
<g id="edge43_Node000004_Node000039" class="edge">
<title>Node4&#45;&gt;Node39</title>
<g id="a_edge43_Node000004_Node000039"><a xlink:title=" ">
<path fill="none" stroke="#63b8ff" d="M2016.67,-398.97C2001.33,-396.87 1985.39,-394.69 1970.78,-392.7"/>
<polygon fill="#63b8ff" stroke="#63b8ff" points="2016.26,-402.45 2026.64,-400.34 2017.21,-395.51 2016.26,-402.45"/>
</a>
</g>
</g>
<!-- Node7 -->
<g id="Node000007" class="node">
<title>Node7</title>
<g id="a_Node000007"><a xlink:href="classexpress_1_1Response.html#a91a4ea0dec22714b3ce9846491090ab0" target="_top" xlink:title=" ">
<polygon fill="white" stroke="#666666" points="1800,-449.5 1663,-449.5 1663,-430.5 1800,-430.5 1800,-449.5"/>
<text text-anchor="middle" x="1731.5" y="-437.5" font-family="Helvetica,sans-Serif" font-size="10.00">express::Response::send</text>
</a>
</g>
</g>
<!-- Node6&#45;&gt;Node7 -->
<g id="edge6_Node000006_Node000007" class="edge">
<title>Node6&#45;&gt;Node7</title>
<g id="a_edge6_Node000006_Node000007"><a xlink:title=" ">
<path fill="none" stroke="#63b8ff" d="M1850.48,-435.41C1834.27,-436.04 1816.71,-436.73 1800.21,-437.37"/>
<polygon fill="#63b8ff" stroke="#63b8ff" points="1851.06,-438.89 1860.92,-435.01 1850.79,-431.9 1851.06,-438.89"/>
</a>
</g>
</g>
<!-- Node8 -->
<g id="Node000008" class="node">
<title>Node8</title>
<g id="a_Node000008"><a xlink:href="classweb_1_1http_1_1server_1_1Response.html#a36844eacc201e3373c9da5bade3ac1c8" target="_top" xlink:title=" ">
<polygon fill="white" stroke="#666666" points="1784,-412 1679,-412 1679,-382 1784,-382 1784,-412"/>
<text text-anchor="start" x="1687" y="-400" font-family="Helvetica,sans-Serif" font-size="10.00">web::http::server::</text>
<text text-anchor="middle" x="1731.5" y="-389" font-family="Helvetica,sans-Serif" font-size="10.00">Response::send</text>
</a>
</g>
</g>
<!-- Node6&#45;&gt;Node8 -->
<g id="edge7_Node000006_Node000008" class="edge">
<title>Node6&#45;&gt;Node8</title>
<g id="a_edge7_Node000006_Node000008"><a xlink:title=" ">
<path fill="none" stroke="#63b8ff" d="M1851.1,-420.72C1829.29,-416.36 1804.99,-411.5 1784.09,-407.32"/>
<polygon fill="#63b8ff" stroke="#63b8ff" points="1850.43,-424.15 1860.92,-422.68 1851.8,-417.29 1850.43,-424.15"/>
</a>
</g>
</g>
<!-- Node9 -->
<g id="Node000009" class="node">
<title>Node9</title>
<g id="a_Node000009"><a xlink:href="classweb_1_1http_1_1server_1_1Response.html#a761cba48efb6eed2fa816750670c03db" target="_top" xlink:title=" ">
<polygon fill="white" stroke="#666666" points="1611,-470 1506,-470 1506,-440 1611,-440 1611,-470"/>
<text text-anchor="start" x="1514" y="-458" font-family="Helvetica,sans-Serif" font-size="10.00">web::http::server::</text>
<text text-anchor="middle" x="1558.5" y="-447" font-family="Helvetica,sans-Serif" font-size="10.00">Response::end</text>
</a>
</g>
</g>
<!-- Node8&#45;&gt;Node9 -->
<g id="edge8_Node000008_Node000009" class="edge">
<title>Node8&#45;&gt;Node9</title>
<g id="a_edge8_Node000008_Node000009"><a xlink:title=" ">
<path fill="none" stroke="#63b8ff" d="M1676.25,-415.4C1652.88,-423.33 1625.89,-432.48 1603.76,-439.99"/>
<polygon fill="#63b8ff" stroke="#63b8ff" points="1677.67,-418.61 1686.02,-412.09 1675.42,-411.99 1677.67,-418.61"/>
</a>
</g>
</g>
<!-- Node12 -->
<g id="Node000012" class="node">
<title>Node12</title>
<g id="a_Node000012"><a xlink:href="classexpress_1_1Response.html#a55934f3429d433fd03e1c4f3d0a90e8c" target="_top" xlink:title=" ">
<polygon fill="white" stroke="#666666" points="1627,-406.5 1490,-406.5 1490,-387.5 1627,-387.5 1627,-406.5"/>
<text text-anchor="middle" x="1558.5" y="-394.5" font-family="Helvetica,sans-Serif" font-size="10.00">express::Response::send</text>
</a>
</g>
</g>
<!-- Node8&#45;&gt;Node12 -->
<g id="edge11_Node000008_Node000012" class="edge">
<title>Node8&#45;&gt;Node12</title>
<g id="a_edge11_Node000008_Node000012"><a xlink:title=" ">
<path fill="none" stroke="#63b8ff" d="M1668.63,-397C1655.18,-397 1640.88,-397 1627.21,-397"/>
<polygon fill="#63b8ff" stroke="#63b8ff" points="1668.73,-400.5 1678.73,-397 1668.73,-393.5 1668.73,-400.5"/>
</a>
</g>
</g>
<!-- Node8&#45;&gt;Node38 -->
<g id="edge42_Node000008_Node000038" class="edge">
<title>Node8&#45;&gt;Node38</title>
<g id="a_edge42_Node000008_Node000038"><a xlink:title=" ">
<path fill="none" stroke="#63b8ff" d="M1668.84,-381.5C1652.67,-377.43 1635.26,-373.05 1619.19,-369.01"/>
<polygon fill="#63b8ff" stroke="#63b8ff" points="1668.18,-384.94 1678.73,-383.98 1669.89,-378.15 1668.18,-384.94"/>
</a>
</g>
</g>
<!-- Node10 -->
<g id="Node000010" class="node">
<title>Node10</title>
<g id="a_Node000010"><a xlink:href="classexpress_1_1Response.html#a229eb88872cbaf3887cda0b64703796f" target="_top" xlink:title=" ">
<polygon fill="white" stroke="#666666" points="1453,-483.5 1321,-483.5 1321,-464.5 1453,-464.5 1453,-483.5"/>
<text text-anchor="middle" x="1387" y="-471.5" font-family="Helvetica,sans-Serif" font-size="10.00">express::Response::end</text>
</a>
</g>
</g>
<!-- Node9&#45;&gt;Node10 -->
<g id="edge9_Node000009_Node000010" class="edge">
<title>Node9&#45;&gt;Node10</title>
<g id="a_edge9_Node000009_Node000010"><a xlink:title=" ">
<path fill="none" stroke="#63b8ff" d="M1495.42,-461.96C1481.69,-463.5 1467.1,-465.13 1453.25,-466.69"/>
<polygon fill="#63b8ff" stroke="#63b8ff" points="1496.18,-465.4 1505.72,-460.8 1495.4,-458.44 1496.18,-465.4"/>
</a>
</g>
</g>
<!-- Node11 -->
<g id="Node000011" class="node">
<title>Node11</title>
<g id="a_Node000011"><a xlink:href="websocket_2echoserver_8cpp.html#a0ddf1224851353fc92bfbff6f499fa97" target="_top" xlink:title=" ">
<polygon fill="white" stroke="#666666" points="1247.5,-483.5 1206.5,-483.5 1206.5,-464.5 1247.5,-464.5 1247.5,-483.5"/>
<text text-anchor="middle" x="1227" y="-471.5" font-family="Helvetica,sans-Serif" font-size="10.00">main</text>
</a>
</g>
</g>
<!-- Node10&#45;&gt;Node11 -->
<g id="edge10_Node000010_Node000011" class="edge">
<title>Node10&#45;&gt;Node11</title>
<g id="a_edge10_Node000010_Node000011"><a xlink:title=" ">
<path fill="none" stroke="#63b8ff" d="M1310.55,-474C1287.3,-474 1263.63,-474 1247.64,-474"/>
<polygon fill="#63b8ff" stroke="#63b8ff" points="1310.82,-477.5 1320.82,-474 1310.82,-470.5 1310.82,-477.5"/>
</a>
</g>
</g>
<!-- Node13 -->
<g id="Node000013" class="node">
<title>Node13</title>
<g id="a_Node000013"><a xlink:href="classexpress_1_1Response.html#ae60d0bae9024f07455b4d54c6fe9b4a0" target="_top" xlink:title=" ">
<polygon fill="white" stroke="#666666" points="1454,-446.5 1320,-446.5 1320,-427.5 1454,-427.5 1454,-446.5"/>
<text text-anchor="middle" x="1387" y="-434.5" font-family="Helvetica,sans-Serif" font-size="10.00">express::Response::json</text>
</a>
</g>
</g>
<!-- Node12&#45;&gt;Node13 -->
<g id="edge12_Node000012_Node000013" class="edge">
<title>Node12&#45;&gt;Node13</title>
<g id="a_edge12_Node000012_Node000013"><a xlink:title=" ">
<path fill="none" stroke="#63b8ff" d="M1507.16,-408.88C1481.97,-414.82 1451.9,-421.92 1428.27,-427.5"/>
<polygon fill="#63b8ff" stroke="#63b8ff" points="1507.97,-412.28 1516.9,-406.58 1506.36,-405.47 1507.97,-412.28"/>
</a>
</g>
</g>
<!-- Node14 -->
<g id="Node000014" class="node">
<title>Node14</title>
<g id="a_Node000014"><a xlink:href="jsonserver_8cpp.html#a0ddf1224851353fc92bfbff6f499fa97" target="_top" xlink:title=" ">
<polygon fill="white" stroke="#666666" points="1407.5,-409.5 1366.5,-409.5 1366.5,-390.5 1407.5,-390.5 1407.5,-409.5"/>
<text text-anchor="middle" x="1387" y="-397.5" font-family="Helvetica,sans-Serif" font-size="10.00">main</text>
</a>
</g>
</g>
<!-- Node12&#45;&gt;Node14 -->
<g id="edge13_Node000012_Node000014" class="edge">
<title>Node12&#45;&gt;Node14</title>
<g id="a_edge13_Node000012_Node000014"><a xlink:title=" ">
<path fill="none" stroke="#63b8ff" d="M1479.43,-398.38C1452.9,-398.85 1425.49,-399.34 1407.69,-399.65"/>
<polygon fill="#63b8ff" stroke="#63b8ff" points="1479.6,-401.88 1489.53,-398.2 1479.47,-394.88 1479.6,-401.88"/>
</a>
</g>
</g>
<!-- Node12&#45;&gt;Node15 -->
<g id="edge14_Node000012_Node000015" class="edge">
<title>Node12&#45;&gt;Node15</title>
<g id="a_edge14_Node000012_Node000015"><a xlink:title=" ">
<path fill="none" stroke="#63b8ff" d="M1502.68,-383.93C1498.29,-382.18 1494.01,-380.21 1490,-378 1480.24,-372.61 1430.31,-326.01 1404.11,-301.27"/>
<polygon fill="#63b8ff" stroke="#63b8ff" points="1501.82,-387.34 1512.42,-387.44 1504.19,-380.76 1501.82,-387.34"/>
</a>
</g>
</g>
<!-- Node29 -->
<g id="Node000029" class="node">
<title>Node29</title>
<g id="a_Node000029"><a xlink:href="classexpress_1_1middleware_1_1StaticMiddleware.html#af712793a6f6d600b813fc4a6d3fbe41d" target="_top" xlink:title=" ">
<polygon fill="white" stroke="#666666" points="774.5,-325.5 655.5,-325.5 655.5,-284.5 774.5,-284.5 774.5,-325.5"/>
<text text-anchor="start" x="663.5" y="-313.5" font-family="Helvetica,sans-Serif" font-size="10.00">express::middleware</text>
<text text-anchor="start" x="663.5" y="-302.5" font-family="Helvetica,sans-Serif" font-size="10.00">::StaticMiddleware::</text>
<text text-anchor="middle" x="715" y="-291.5" font-family="Helvetica,sans-Serif" font-size="10.00">StaticMiddleware</text>
</a>
</g>
</g>
<!-- Node12&#45;&gt;Node29 -->
<g id="edge41_Node000012_Node000029" class="edge">
<title>Node12&#45;&gt;Node29</title>
<g id="a_edge41_Node000012_Node000029"><a xlink:title=" ">
<path fill="none" stroke="#63b8ff" d="M1492.12,-385.93C1425.79,-375.68 1320.06,-362 1228,-362 1228,-362 1228,-362 1076,-362 968.74,-362 845.7,-337.01 774.79,-320.13"/>
<polygon fill="#63b8ff" stroke="#63b8ff" points="1491.59,-389.39 1502.01,-387.48 1492.68,-382.48 1491.59,-389.39"/>
</a>
</g>
</g>
<!-- Node16 -->
<g id="Node000016" class="node">
<title>Node16</title>
<g id="a_Node000016"><a xlink:href="classexpress_1_1middleware_1_1BasicAuthentication.html#a74011e8f313cded7f34c28250ddc878f" target="_top" xlink:title=" ">
<polygon fill="white" stroke="#666666" points="775,-223.5 655,-223.5 655,-182.5 775,-182.5 775,-223.5"/>
<text text-anchor="start" x="663" y="-211.5" font-family="Helvetica,sans-Serif" font-size="10.00">express::middleware</text>
<text text-anchor="start" x="663" y="-200.5" font-family="Helvetica,sans-Serif" font-size="10.00">::BasicAuthentication</text>
<text text-anchor="middle" x="715" y="-189.5" font-family="Helvetica,sans-Serif" font-size="10.00">::BasicAuthentication</text>
</a>
</g>
</g>
<!-- Node15&#45;&gt;Node16 -->
<g id="edge15_Node000015_Node000016" class="edge">
<title>Node15&#45;&gt;Node16</title>
<g id="a_edge15_Node000015_Node000016"><a xlink:title=" ">
<path fill="none" stroke="#63b8ff" d="M1361.73,-264.41C1342.24,-248.56 1313.36,-228.23 1284,-219 1190.72,-189.67 901.27,-196.17 775.43,-200.6"/>
<polygon fill="#63b8ff" stroke="#63b8ff" points="1359.57,-267.17 1369.48,-270.89 1364.05,-261.79 1359.57,-267.17"/>
</a>
</g>
</g>
<!-- Node21 -->
<g id="Node000021" class="node">
<title>Node21</title>
<g id="a_Node000021"><a xlink:href="classexpress_1_1RootRoute.html#a2d65050e101a52dc8c303cd787d1cb23" target="_top" xlink:title=" ">
<polygon fill="white" stroke="#666666" points="1283,-172 1171,-172 1171,-142 1283,-142 1283,-172"/>
<text text-anchor="start" x="1179" y="-160" font-family="Helvetica,sans-Serif" font-size="10.00">express::RootRoute</text>
<text text-anchor="middle" x="1227" y="-149" font-family="Helvetica,sans-Serif" font-size="10.00">::dispatch</text>
</a>
</g>
</g>
<!-- Node15&#45;&gt;Node21 -->
<g id="edge21_Node000015_Node000021" class="edge">
<title>Node15&#45;&gt;Node21</title>
<g id="a_edge21_Node000015_Node000021"><a xlink:title=" ">
<path fill="none" stroke="#63b8ff" d="M1366.17,-262.92C1346.73,-241.25 1315.53,-208.83 1284,-186 1276.99,-180.93 1268.98,-176.22 1261.25,-172.15"/>
<polygon fill="#63b8ff" stroke="#63b8ff" points="1363.76,-265.49 1373.01,-270.66 1369.01,-260.85 1363.76,-265.49"/>
</a>
</g>
</g>
<!-- Node15&#45;&gt;Node29 -->
<g id="edge40_Node000015_Node000029" class="edge">
<title>Node15&#45;&gt;Node29</title>
<g id="a_edge40_Node000015_Node000029"><a xlink:title=" ">
<path fill="none" stroke="#63b8ff" d="M1319.95,-299.26C1308.03,-301.19 1295.68,-302.9 1284,-304 1089.74,-322.31 1040.11,-310.27 845,-308 822.04,-307.73 796.79,-307.2 774.75,-306.65"/>
<polygon fill="#63b8ff" stroke="#63b8ff" points="1320.56,-302.7 1329.84,-297.58 1319.39,-295.8 1320.56,-302.7"/>
</a>
</g>
</g>
<!-- Node35 -->
<g id="Node000035" class="node">
<title>Node35</title>
<g id="a_Node000035"><a xlink:href="ResourceServer_8cpp.html#a0ddf1224851353fc92bfbff6f499fa97" target="_top" xlink:title=" ">
<polygon fill="white" stroke="#666666" points="1247.5,-295.5 1206.5,-295.5 1206.5,-276.5 1247.5,-276.5 1247.5,-295.5"/>
<text text-anchor="middle" x="1227" y="-283.5" font-family="Helvetica,sans-Serif" font-size="10.00">main</text>
</a>
</g>
</g>
<!-- Node15&#45;&gt;Node35 -->
<g id="edge36_Node000015_Node000035" class="edge">
<title>Node15&#45;&gt;Node35</title>
<g id="a_edge36_Node000015_Node000035"><a xlink:title=" ">
<path fill="none" stroke="#63b8ff" d="M1319.66,-286C1293.74,-286 1265.97,-286 1247.87,-286"/>
<polygon fill="#63b8ff" stroke="#63b8ff" points="1319.85,-289.5 1329.85,-286 1319.85,-282.5 1319.85,-289.5"/>
</a>
</g>
</g>
<!-- Node36 -->
<g id="Node000036" class="node">
<title>Node36</title>
<g id="a_Node000036"><a xlink:href="classexpress_1_1Response.html#a18310d9c1178a5aa2fc6c569b1dfd518" target="_top" xlink:title=" ">
<polygon fill="white" stroke="#666666" points="1284,-258 1170,-258 1170,-228 1284,-228 1284,-258"/>
<text text-anchor="start" x="1178" y="-246" font-family="Helvetica,sans-Serif" font-size="10.00">express::Response::</text>
<text text-anchor="middle" x="1227" y="-235" font-family="Helvetica,sans-Serif" font-size="10.00">redirect</text>
</a>
</g>
</g>
<!-- Node15&#45;&gt;Node36 -->
<g id="edge37_Node000015_Node000036" class="edge">
<title>Node15&#45;&gt;Node36</title>
<g id="a_edge37_Node000015_Node000036"><a xlink:title=" ">
<path fill="none" stroke="#63b8ff" d="M1320.84,-268.27C1308.35,-264.87 1295.38,-261.34 1283.23,-258.03"/>
<polygon fill="#63b8ff" stroke="#63b8ff" points="1320.17,-271.71 1330.74,-270.96 1322.01,-264.96 1320.17,-271.71"/>
</a>
</g>
</g>
<!-- Node17 -->
<g id="Node000017" class="node">
<title>Node17</title>
<g id="a_Node000017"><a xlink:href="classexpress_1_1middleware_1_1BasicAuthentication.html#a8cd93f5ab0744e5deae89aac3709ee42" target="_top" xlink:title=" ">
<polygon fill="white" stroke="#666666" points="551,-223.5 431,-223.5 431,-182.5 551,-182.5 551,-223.5"/>
<text text-anchor="start" x="439" y="-211.5" font-family="Helvetica,sans-Serif" font-size="10.00">express::middleware</text>
<text text-anchor="start" x="439" y="-200.5" font-family="Helvetica,sans-Serif" font-size="10.00">::BasicAuthentication</text>
<text text-anchor="middle" x="491" y="-189.5" font-family="Helvetica,sans-Serif" font-size="10.00">::instance</text>
</a>
</g>
</g>
<!-- Node16&#45;&gt;Node17 -->
<g id="edge16_Node000016_Node000017" class="edge">
<title>Node16&#45;&gt;Node17</title>
<g id="a_edge16_Node000016_Node000017"><a xlink:title=" ">
<path fill="none" stroke="#63b8ff" d="M644.41,-203C614.43,-203 579.74,-203 551.04,-203"/>
<polygon fill="#63b8ff" stroke="#63b8ff" points="644.8,-206.5 654.8,-203 644.8,-199.5 644.8,-206.5"/>
</a>
</g>
</g>
<!-- Node18 -->
<g id="Node000018" class="node">
<title>Node18</title>
<g id="a_Node000018"><a xlink:href="classexpress_1_1middleware_1_1BasicAuthentication.html#a461f08f2de85ee8ddb1afb72db149028" target="_top" xlink:title=" ">
<polygon fill="white" stroke="#666666" points="329.5,-223.5 209.5,-223.5 209.5,-182.5 329.5,-182.5 329.5,-223.5"/>
<text text-anchor="start" x="217.5" y="-211.5" font-family="Helvetica,sans-Serif" font-size="10.00">express::middleware</text>
<text text-anchor="start" x="217.5" y="-200.5" font-family="Helvetica,sans-Serif" font-size="10.00">::BasicAuthentication</text>
<text text-anchor="middle" x="269.5" y="-189.5" font-family="Helvetica,sans-Serif" font-size="10.00">::BasicAuthentication</text>
</a>
</g>
</g>
<!-- Node17&#45;&gt;Node18 -->
<g id="edge17_Node000017_Node000018" class="edge">
<title>Node17&#45;&gt;Node18</title>
<g id="a_edge17_Node000017_Node000018"><a xlink:title=" ">
<path fill="none" stroke="#63b8ff" d="M420.75,-203C391.5,-203 357.79,-203 329.72,-203"/>
<polygon fill="#63b8ff" stroke="#63b8ff" points="420.89,-206.5 430.89,-203 420.89,-199.5 420.89,-206.5"/>
</a>
</g>
</g>
<!-- Node19 -->
<g id="Node000019" class="node">
<title>Node19</title>
<g id="a_Node000019"><a xlink:href="testbasicauthentication_8cpp.html#aeb6ff6ca94f495351c99f0a372eadd33" target="_top" xlink:title=" ">
<polygon fill="white" stroke="#666666" points="142,-193.5 77,-193.5 77,-174.5 142,-174.5 142,-193.5"/>
<text text-anchor="middle" x="109.5" y="-181.5" font-family="Helvetica,sans-Serif" font-size="10.00">getRouter</text>
</a>
</g>
</g>
<!-- Node18&#45;&gt;Node19 -->
<g id="edge18_Node000018_Node000019" class="edge">
<title>Node18&#45;&gt;Node19</title>
<g id="a_edge18_Node000018_Node000019"><a xlink:title=" ">
<path fill="none" stroke="#63b8ff" d="M199.22,-194.67C179.32,-192.28 158.58,-189.78 142.16,-187.81"/>
<polygon fill="#63b8ff" stroke="#63b8ff" points="198.87,-198.15 209.22,-195.87 199.71,-191.2 198.87,-198.15"/>
</a>
</g>
</g>
<!-- Node20 -->
<g id="Node000020" class="node">
<title>Node20</title>
<g id="a_Node000020"><a xlink:href="testbasicauthentication_8cpp.html#a0ddf1224851353fc92bfbff6f499fa97" target="_top" xlink:title=" ">
<polygon fill="white" stroke="#666666" points="41,-212.5 0,-212.5 0,-193.5 41,-193.5 41,-212.5"/>
<text text-anchor="middle" x="20.5" y="-200.5" font-family="Helvetica,sans-Serif" font-size="10.00">main</text>
</a>
</g>
</g>
<!-- Node18&#45;&gt;Node20 -->
<g id="edge20_Node000018_Node000020" class="edge">
<title>Node18&#45;&gt;Node20</title>
<g id="a_edge20_Node000018_Node000020"><a xlink:title=" ">
<path fill="none" stroke="#63b8ff" d="M199.19,-203C145.56,-203 74.91,-203 41.14,-203"/>
<polygon fill="#63b8ff" stroke="#63b8ff" points="199.34,-206.5 209.34,-203 199.34,-199.5 199.34,-206.5"/>
</a>
</g>
</g>
<!-- Node19&#45;&gt;Node20 -->
<g id="edge19_Node000019_Node000020" class="edge">
<title>Node19&#45;&gt;Node20</title>
<g id="a_edge19_Node000019_Node000020"><a xlink:title=" ">
<path fill="none" stroke="#63b8ff" d="M66.61,-193.15C57.66,-195.1 48.62,-197.08 41,-198.74"/>
<polygon fill="#63b8ff" stroke="#63b8ff" points="67.58,-196.52 76.6,-190.97 66.08,-189.68 67.58,-196.52"/>
</a>
</g>
</g>
<!-- Node22 -->
<g id="Node000022" class="node">
<title>Node22</title>
<g id="a_Node000022"><a xlink:href="classexpress_1_1RootRoute.html#a1c2da19981989c227a16b6054be19262" target="_top" xlink:title=" ">
<polygon fill="white" stroke="#666666" points="1133,-172 1021,-172 1021,-142 1133,-142 1133,-172"/>
<text text-anchor="start" x="1029" y="-160" font-family="Helvetica,sans-Serif" font-size="10.00">express::RootRoute</text>
<text text-anchor="middle" x="1077" y="-149" font-family="Helvetica,sans-Serif" font-size="10.00">::dispatch</text>
</a>
</g>
</g>
<!-- Node21&#45;&gt;Node22 -->
<g id="edge22_Node000021_Node000022" class="edge">
<title>Node21&#45;&gt;Node22</title>
<g id="a_edge22_Node000021_Node000022"><a xlink:title=" ">
<path fill="none" stroke="#63b8ff" d="M1160.64,-157C1151.47,-157 1142.11,-157 1133.16,-157"/>
<polygon fill="#63b8ff" stroke="#63b8ff" points="1160.89,-160.5 1170.89,-157 1160.89,-153.5 1160.89,-160.5"/>
</a>
</g>
</g>
<!-- Node23 -->
<g id="Node000023" class="node">
<title>Node23</title>
<g id="a_Node000023"><a xlink:href="classexpress_1_1Controller.html#a37349835c6e195cd3b2f264cfcf97fae" target="_top" xlink:title=" ">
<polygon fill="white" stroke="#666666" points="1131.5,-124 1022.5,-124 1022.5,-94 1131.5,-94 1131.5,-124"/>
<text text-anchor="start" x="1030.5" y="-112" font-family="Helvetica,sans-Serif" font-size="10.00">express::Controller</text>
<text text-anchor="middle" x="1077" y="-101" font-family="Helvetica,sans-Serif" font-size="10.00">::next</text>
</a>
</g>
</g>
<!-- Node21&#45;&gt;Node23 -->
<g id="edge23_Node000021_Node000023" class="edge">
<title>Node21&#45;&gt;Node23</title>
<g id="a_edge23_Node000021_Node000023"><a xlink:title=" ">
<path fill="none" stroke="#63b8ff" d="M1169.87,-138.79C1154.81,-133.91 1138.71,-128.69 1124.26,-124"/>
<polygon fill="#63b8ff" stroke="#63b8ff" points="1168.99,-142.19 1179.58,-141.94 1171.15,-135.53 1168.99,-142.19"/>
</a>
</g>
</g>
<!-- Node24 -->
<g id="Node000024" class="node">
<title>Node24</title>
<g id="a_Node000024"><a xlink:href="classexpress_1_1Next.html#a3e14e0e46359f80dac195ec6e57eaf5d" target="_top" xlink:title=" ">
<polygon fill="white" stroke="#666666" points="984,-118.5 845,-118.5 845,-99.5 984,-99.5 984,-118.5"/>
<text text-anchor="middle" x="914.5" y="-106.5" font-family="Helvetica,sans-Serif" font-size="10.00">express::Next::operator()</text>
</a>
</g>
</g>
<!-- Node23&#45;&gt;Node24 -->
<g id="edge24_Node000023_Node000024" class="edge">
<title>Node23&#45;&gt;Node24</title>
<g id="a_edge24_Node000023_Node000024"><a xlink:title=" ">
<path fill="none" stroke="#63b8ff" d="M1011.92,-109C1002.76,-109 993.31,-109 984.07,-109"/>
<polygon fill="#63b8ff" stroke="#63b8ff" points="1012.11,-112.5 1022.11,-109 1012.11,-105.5 1012.11,-112.5"/>
</a>
</g>
</g>
<!-- Node24&#45;&gt;Node16 -->
<g id="edge25_Node000024_Node000016" class="edge">
<title>Node24&#45;&gt;Node16</title>
<g id="a_edge25_Node000024_Node000016"><a xlink:title=" ">
<path fill="none" stroke="#63b8ff" d="M891.9,-124.34C871.33,-138.43 839.14,-159.15 809,-173 798.36,-177.89 786.7,-182.32 775.35,-186.19"/>
<polygon fill="#63b8ff" stroke="#63b8ff" points="894,-127.15 900.22,-118.57 890,-121.4 894,-127.15"/>
</a>
</g>
</g>
<!-- Node25 -->
<g id="Node000025" class="node">
<title>Node25</title>
<g id="a_Node000025"><a xlink:href="classexpress_1_1middleware_1_1JsonMiddleware.html#a0f90276c1100e22d2114306b23b95991" target="_top" xlink:title=" ">
<polygon fill="white" stroke="#666666" points="806.5,-164 623.5,-164 623.5,-134 806.5,-134 806.5,-164"/>
<text text-anchor="start" x="631.5" y="-152" font-family="Helvetica,sans-Serif" font-size="10.00">express::middleware</text>
<text text-anchor="middle" x="715" y="-141" font-family="Helvetica,sans-Serif" font-size="10.00">::JsonMiddleware::JsonMiddleware</text>
</a>
</g>
</g>
<!-- Node24&#45;&gt;Node25 -->
<g id="edge26_Node000024_Node000025" class="edge">
<title>Node24&#45;&gt;Node25</title>
<g id="a_edge26_Node000024_Node000025"><a xlink:title=" ">
<path fill="none" stroke="#63b8ff" d="M856.53,-120.54C835.81,-124.73 812.08,-129.54 790.09,-133.99"/>
<polygon fill="#63b8ff" stroke="#63b8ff" points="857.34,-123.95 866.44,-118.53 855.95,-117.08 857.34,-123.95"/>
</a>
</g>
</g>
<!-- Node28 -->
<g id="Node000028" class="node">
<title>Node28</title>
<g id="a_Node000028"><a xlink:href="vhostserver_8cpp.html#a0ddf1224851353fc92bfbff6f499fa97" target="_top" xlink:title=" ">
<polygon fill="white" stroke="#666666" points="735.5,-115.5 694.5,-115.5 694.5,-96.5 735.5,-96.5 735.5,-115.5"/>
<text text-anchor="middle" x="715" y="-103.5" font-family="Helvetica,sans-Serif" font-size="10.00">main</text>
</a>
</g>
</g>
<!-- Node24&#45;&gt;Node28 -->
<g id="edge29_Node000024_Node000028" class="edge">
<title>Node24&#45;&gt;Node28</title>
<g id="a_edge29_Node000024_Node000028"><a xlink:title=" ">
<path fill="none" stroke="#63b8ff" d="M834.91,-107.81C798.78,-107.26 758.9,-106.65 735.73,-106.3"/>
<polygon fill="#63b8ff" stroke="#63b8ff" points="834.93,-111.31 844.98,-107.96 835.03,-104.31 834.93,-111.31"/>
</a>
</g>
</g>
<!-- Node24&#45;&gt;Node29 -->
<g id="edge30_Node000024_Node000029" class="edge">
<title>Node24&#45;&gt;Node29</title>
<g id="a_edge30_Node000024_Node000029"><a xlink:title=" ">
<path fill="none" stroke="#63b8ff" d="M900.36,-126.62C881.48,-151.4 844.97,-197.4 809,-232 789.03,-251.21 764.26,-270.46 745.31,-284.37"/>
<polygon fill="#63b8ff" stroke="#63b8ff" points="903.25,-128.59 906.48,-118.5 897.66,-124.38 903.25,-128.59"/>
</a>
</g>
</g>
<!-- Node30 -->
<g id="Node000030" class="node">
<title>Node30</title>
<g id="a_Node000030"><a xlink:href="classexpress_1_1middleware_1_1VerboseRequest.html#a9958ed4e731964c4ff5e5dcb447f8d71" target="_top" xlink:title=" ">
<polygon fill="white" stroke="#666666" points="809,-78 621,-78 621,-48 809,-48 809,-78"/>
<text text-anchor="start" x="629" y="-66" font-family="Helvetica,sans-Serif" font-size="10.00">express::middleware</text>
<text text-anchor="middle" x="715" y="-55" font-family="Helvetica,sans-Serif" font-size="10.00">::VerboseRequest::VerboseRequest</text>
</a>
</g>
</g>
<!-- Node24&#45;&gt;Node30 -->
<g id="edge31_Node000024_Node000030" class="edge">
<title>Node24&#45;&gt;Node30</title>
<g id="a_edge31_Node000024_Node000030"><a xlink:title=" ">
<path fill="none" stroke="#63b8ff" d="M862.58,-97.14C837.58,-91.32 807.2,-84.24 780.59,-78.04"/>
<polygon fill="#63b8ff" stroke="#63b8ff" points="862.04,-100.61 872.58,-99.47 863.63,-93.79 862.04,-100.61"/>
</a>
</g>
</g>
<!-- Node32 -->
<g id="Node000032" class="node">
<title>Node32</title>
<g id="a_Node000032"><a xlink:href="classexpress_1_1middleware_1_1VHost.html#ab60d9df1ad85a8ee414c111135e250b1" target="_top" xlink:title=" ">
<polygon fill="white" stroke="#666666" points="774.5,-30 655.5,-30 655.5,0 774.5,0 774.5,-30"/>
<text text-anchor="start" x="663.5" y="-18" font-family="Helvetica,sans-Serif" font-size="10.00">express::middleware</text>
<text text-anchor="middle" x="715" y="-7" font-family="Helvetica,sans-Serif" font-size="10.00">::VHost::VHost</text>
</a>
</g>
</g>
<!-- Node24&#45;&gt;Node32 -->
<g id="edge33_Node000024_Node000032" class="edge">
<title>Node24&#45;&gt;Node32</title>
<g id="a_edge33_Node000024_Node000032"><a xlink:title=" ">
<path fill="none" stroke="#63b8ff" d="M893.99,-92.96C873.85,-77.15 840.94,-53.32 809,-39 798.2,-34.16 786.23,-30.16 774.58,-26.9"/>
<polygon fill="#63b8ff" stroke="#63b8ff" points="892.05,-95.9 902.05,-99.4 896.42,-90.43 892.05,-95.9"/>
</a>
</g>
</g>
<!-- Node26 -->
<g id="Node000026" class="node">
<title>Node26</title>
<g id="a_Node000026"><a xlink:href="classexpress_1_1middleware_1_1JsonMiddleware.html#ae20c47bf2107ee7b8a8190d3a3439b1a" target="_top" xlink:title=" ">
<polygon fill="white" stroke="#666666" points="564.5,-164 417.5,-164 417.5,-134 564.5,-134 564.5,-164"/>
<text text-anchor="start" x="425.5" y="-152" font-family="Helvetica,sans-Serif" font-size="10.00">express::middleware</text>
<text text-anchor="middle" x="491" y="-141" font-family="Helvetica,sans-Serif" font-size="10.00">::JsonMiddleware::instance</text>
</a>
</g>
</g>
<!-- Node25&#45;&gt;Node26 -->
<g id="edge27_Node000025_Node000026" class="edge">
<title>Node25&#45;&gt;Node26</title>
<g id="a_edge27_Node000025_Node000026"><a xlink:title=" ">
<path fill="none" stroke="#63b8ff" d="M613.24,-149C596.87,-149 580.2,-149 564.67,-149"/>
<polygon fill="#63b8ff" stroke="#63b8ff" points="613.38,-152.5 623.38,-149 613.38,-145.5 613.38,-152.5"/>
</a>
</g>
</g>
<!-- Node27 -->
<g id="Node000027" class="node">
<title>Node27</title>
<g id="a_Node000027"><a xlink:href="classexpress_1_1middleware_1_1JsonMiddleware.html#a50b23edc44a7ae19b857efe7fbb3495f" target="_top" xlink:title=" ">
<polygon fill="white" stroke="#666666" points="361,-164 178,-164 178,-134 361,-134 361,-164"/>
<text text-anchor="start" x="186" y="-152" font-family="Helvetica,sans-Serif" font-size="10.00">express::middleware</text>
<text text-anchor="middle" x="269.5" y="-141" font-family="Helvetica,sans-Serif" font-size="10.00">::JsonMiddleware::JsonMiddleware</text>
</a>
</g>
</g>
<!-- Node26&#45;&gt;Node27 -->
<g id="edge28_Node000026_Node000027" class="edge">
<title>Node26&#45;&gt;Node27</title>
<g id="a_edge28_Node000026_Node000027"><a xlink:title=" ">
<path fill="none" stroke="#63b8ff" d="M406.96,-149C391.97,-149 376.27,-149 361.08,-149"/>
<polygon fill="#63b8ff" stroke="#63b8ff" points="407.21,-152.5 417.21,-149 407.21,-145.5 407.21,-152.5"/>
</a>
</g>
</g>
<!-- Node31 -->
<g id="Node000031" class="node">
<title>Node31</title>
<g id="a_Node000031"><a xlink:href="classexpress_1_1middleware_1_1VerboseRequest.html#a545ed22b9d5d978a745b06a25533e544" target="_top" xlink:title=" ">
<polygon fill="white" stroke="#666666" points="585,-78 397,-78 397,-48 585,-48 585,-78"/>
<text text-anchor="start" x="405" y="-66" font-family="Helvetica,sans-Serif" font-size="10.00">express::middleware</text>
<text text-anchor="middle" x="491" y="-55" font-family="Helvetica,sans-Serif" font-size="10.00">::VerboseRequest::VerboseRequest</text>
</a>
</g>
</g>
<!-- Node30&#45;&gt;Node31 -->
<g id="edge32_Node000030_Node000031" class="edge">
<title>Node30&#45;&gt;Node31</title>
<g id="a_edge32_Node000030_Node000031"><a xlink:title=" ">
<path fill="none" stroke="#63b8ff" d="M610.57,-63C602.14,-63 593.65,-63 585.3,-63"/>
<polygon fill="#63b8ff" stroke="#63b8ff" points="610.82,-66.5 620.82,-63 610.82,-59.5 610.82,-66.5"/>
</a>
</g>
</g>
<!-- Node33 -->
<g id="Node000033" class="node">
<title>Node33</title>
<g id="a_Node000033"><a xlink:href="classexpress_1_1middleware_1_1VHost.html#aedfd77e91aabab72a4b6bf19c9047876" target="_top" xlink:title=" ">
<polygon fill="white" stroke="#666666" points="550.5,-30 431.5,-30 431.5,0 550.5,0 550.5,-30"/>
<text text-anchor="start" x="439.5" y="-18" font-family="Helvetica,sans-Serif" font-size="10.00">express::middleware</text>
<text text-anchor="middle" x="491" y="-7" font-family="Helvetica,sans-Serif" font-size="10.00">::VHost::instance</text>
</a>
</g>
</g>
<!-- Node32&#45;&gt;Node33 -->
<g id="edge34_Node000032_Node000033" class="edge">
<title>Node32&#45;&gt;Node33</title>
<g id="a_edge34_Node000032_Node000033"><a xlink:title=" ">
<path fill="none" stroke="#63b8ff" d="M645.3,-15C614.95,-15 579.64,-15 550.56,-15"/>
<polygon fill="#63b8ff" stroke="#63b8ff" points="645.38,-18.5 655.38,-15 645.38,-11.5 645.38,-18.5"/>
</a>
</g>
</g>
<!-- Node34 -->
<g id="Node000034" class="node">
<title>Node34</title>
<g id="a_Node000034"><a xlink:href="classexpress_1_1middleware_1_1VHost.html#a0c0c8ae51cc23dc35d0444d98dfd41a8" target="_top" xlink:title=" ">
<polygon fill="white" stroke="#666666" points="329,-30 210,-30 210,0 329,0 329,-30"/>
<text text-anchor="start" x="218" y="-18" font-family="Helvetica,sans-Serif" font-size="10.00">express::middleware</text>
<text text-anchor="middle" x="269.5" y="-7" font-family="Helvetica,sans-Serif" font-size="10.00">::VHost::VHost</text>
</a>
</g>
</g>
<!-- Node33&#45;&gt;Node34 -->
<g id="edge35_Node000033_Node000034" class="edge">
<title>Node33&#45;&gt;Node34</title>
<g id="a_edge35_Node000033_Node000034"><a xlink:title=" ">
<path fill="none" stroke="#63b8ff" d="M421.23,-15C391.71,-15 357.57,-15 329.25,-15"/>
<polygon fill="#63b8ff" stroke="#63b8ff" points="421.47,-18.5 431.47,-15 421.47,-11.5 421.47,-18.5"/>
</a>
</g>
</g>
<!-- Node36&#45;&gt;Node29 -->
<g id="edge39_Node000036_Node000029" class="edge">
<title>Node36&#45;&gt;Node29</title>
<g id="a_edge39_Node000036_Node000029"><a xlink:title=" ">
<path fill="none" stroke="#63b8ff" d="M1164.32,-260.58C1154.25,-263.02 1143.88,-265.27 1134,-267 1006.95,-289.19 855.76,-298.86 774.55,-302.72"/>
<polygon fill="#63b8ff" stroke="#63b8ff" points="1165.42,-263.91 1174.27,-258.09 1163.72,-257.12 1165.42,-263.91"/>
</a>
</g>
</g>
<!-- Node37 -->
<g id="Node000037" class="node">
<title>Node37</title>
<g id="a_Node000037"><a xlink:href="classexpress_1_1Response.html#a0caba0c97da9f7623360c01639f34616" target="_top" xlink:title=" ">
<polygon fill="white" stroke="#666666" points="1134,-258 1020,-258 1020,-228 1134,-228 1134,-258"/>
<text text-anchor="start" x="1028" y="-246" font-family="Helvetica,sans-Serif" font-size="10.00">express::Response::</text>
<text text-anchor="middle" x="1077" y="-235" font-family="Helvetica,sans-Serif" font-size="10.00">redirect</text>
</a>
</g>
</g>
<!-- Node36&#45;&gt;Node37 -->
<g id="edge38_Node000036_Node000037" class="edge">
<title>Node36&#45;&gt;Node37</title>
<g id="a_edge38_Node000036_Node000037"><a xlink:title=" ">
<path fill="none" stroke="#63b8ff" d="M1159.44,-243C1151.02,-243 1142.46,-243 1134.22,-243"/>
<polygon fill="#63b8ff" stroke="#63b8ff" points="1159.63,-246.5 1169.63,-243 1159.63,-239.5 1159.63,-246.5"/>
</a>
</g>
</g>
</g>
</svg>

<g id="navigator" transform="translate(0 0)" fill="#404254">
  <rect fill="#f2f5e9" fill-opacity="0.5" stroke="#606060" stroke-width=".5" x="0" y="0" width="60" height="60"/>
  <use id="zoomplus" xlink:href="#zoomPlus" x="17" y="9" onmousedown="handleZoom(evt,'in')"/>
  <use id="zoomminus" xlink:href="#zoomMin" x="42" y="9" onmousedown="handleZoom(evt,'out')"/>
  <use id="reset" xlink:href="#resetDef" x="30" y="36" onmousedown="handleReset()"/>
   <use id="arrowup" xlink:href="#arrowUp" x="0" y="0" onmousedown="handlePan(0,-1)"/>
  <use id="arrowright" xlink:href="#arrowRight" x="0" y="0" onmousedown="handlePan(1,0)"/>
  <use id="arrowdown" xlink:href="#arrowDown" x="0" y="0" onmousedown="handlePan(0,1)"/>
  <use id="arrowleft" xlink:href="#arrowLeft" x="0" y="0" onmousedown="handlePan(-1,0)"/>
</g>
<svg viewBox="0 0 15 15" width="100%" height="30px" preserveAspectRatio="xMaxYMin meet">
 <g id="arrow_out" transform="scale(0.3 0.3)">
  <a xlink:href="classweb_1_1http_1_1StatusCode_a7128168d2becba8d8bfd0e47ab2854ff_icgraph_org.svg" target="_base">
   <rect id="button" ry="5" rx="5" y="6" x="6" height="38" width="38"
        fill="#f2f5e9" fill-opacity="0.5" stroke="#606060" stroke-width="1.0"/>
   <path id="arrow"
     d="M 11.500037,31.436501 C 11.940474,20.09759 22.043105,11.32322 32.158766,21.979434 L 37.068811,17.246167 C 37.068811,17.246167 37.088388,32 37.088388,32 L 22.160133,31.978069 C 22.160133,31.978069 26.997745,27.140456 26.997745,27.140456 C 18.528582,18.264221 13.291696,25.230495 11.500037,31.436501 z"
     style="fill:#404040;"/>
  </a>
 </g>
</svg>

<style type='text/css'>
<![CDATA[
[data-mouse-over-selected='false'] { opacity: 0.7; }
[data-mouse-over-selected='true']  { opacity: 1.0; }
]]>
</style>
<script type="application/ecmascript"><![CDATA[
document.addEventListener('DOMContentLoaded', (event) => {
  highlightEdges();
  highlightAdjacentNodes();
});
]]></script>
</svg>
