<?xml version="1.0" encoding="UTF-8" standalone="no"?>
<!DOCTYPE svg PUBLIC "-//W3C//DTD SVG 1.1//EN"
 "http://www.w3.org/Graphics/SVG/1.1/DTD/svg11.dtd">
<!-- Generated by graphviz version 14.1.1 (0)
 -->
<!-- Title: core::socket::stream::SocketWriter::doWriteShutdown Pages: 1 -->
<svg width="568pt" height="94pt"
 viewBox="0.00 0.00 568.00 94.00" xmlns="http://www.w3.org/2000/svg" xmlns:xlink="http://www.w3.org/1999/xlink">
<g id="graph0" class="graph" transform="scale(1 1) rotate(0) translate(4 89.5)">
<title>core::socket::stream::SocketWriter::doWriteShutdown</title>
<!-- Node1 -->
<g id="Node000001" class="node">
<title>Node1</title>
<g id="a_Node000001"><a xlink:title=" ">
<polygon fill="#999999" stroke="#666666" points="559.5,-59.5 383,-59.5 383,-26 559.5,-26 559.5,-59.5"/>
<text xml:space="preserve" text-anchor="start" x="391" y="-46" font-family="Helvetica,sans-Serif" font-size="10.00">core::socket::stream</text>
<text xml:space="preserve" text-anchor="middle" x="471.25" y="-33.25" font-family="Helvetica,sans-Serif" font-size="10.00">::SocketWriter::doWriteShutdown</text>
</a>
</g>
</g>
<!-- Node2 -->
<g id="Node000002" class="node">
<title>Node2</title>
<g id="a_Node000002"><a xlink:href="classcore_1_1socket_1_1stream_1_1SocketWriter.html#ac78cca657385ea8a364d7296c2c32c92" target="_top" xlink:title=" ">
<polygon fill="white" stroke="#666666" points="329.38,-85.5 200.88,-85.5 200.88,-52 329.38,-52 329.38,-85.5"/>
<text xml:space="preserve" text-anchor="start" x="208.88" y="-72" font-family="Helvetica,sans-Serif" font-size="10.00">core::socket::stream</text>
<text xml:space="preserve" text-anchor="middle" x="265.12" y="-59.25" font-family="Helvetica,sans-Serif" font-size="10.00">::SocketWriter::doWrite</text>
</a>
</g>
</g>
<!-- Node1&#45;&gt;Node2 -->
<g id="edge1_Node000001_Node000002" class="edge">
<title>Node1&#45;&gt;Node2</title>
<g id="a_edge1_Node000001_Node000002"><a xlink:title=" ">
<path fill="none" stroke="#63b8ff" d="M371.44,-55.34C357.22,-57.15 342.93,-58.97 329.65,-60.66"/>
<polygon fill="#63b8ff" stroke="#63b8ff" points="371.82,-58.82 381.29,-54.08 370.93,-51.87 371.82,-58.82"/>
</a>
</g>
</g>
<!-- Node4 -->
<g id="Node000004" class="node">
<title>Node4</title>
<g id="a_Node000004"><a xlink:href="classcore_1_1socket_1_1stream_1_1SocketWriter.html#abd61595d46548f991c15c5abf50aa1dd" target="_top" xlink:title=" ">
<polygon fill="white" stroke="#666666" points="347,-33.5 183.25,-33.5 183.25,0 347,0 347,-33.5"/>
<text xml:space="preserve" text-anchor="start" x="191.25" y="-20" font-family="Helvetica,sans-Serif" font-size="10.00">core::socket::stream</text>
<text xml:space="preserve" text-anchor="middle" x="265.12" y="-7.25" font-family="Helvetica,sans-Serif" font-size="10.00">::SocketWriter::shutdownWrite</text>
</a>
</g>
</g>
<!-- Node1&#45;&gt;Node4 -->
<g id="edge3_Node000001_Node000004" class="edge">
<title>Node1&#45;&gt;Node4</title>
<g id="a_edge3_Node000001_Node000004"><a xlink:title=" ">
<path fill="none" stroke="#63b8ff" d="M371.4,-30.16C363.31,-29.13 355.2,-28.1 347.26,-27.08"/>
<polygon fill="#63b8ff" stroke="#63b8ff" points="370.93,-33.63 381.29,-31.42 371.82,-26.68 370.93,-33.63"/>
</a>
</g>
</g>
<!-- Node3 -->
<g id="Node000003" class="node">
<title>Node3</title>
<g id="a_Node000003"><a xlink:href="classcore_1_1socket_1_1stream_1_1SocketWriter.html#a9308f104283a0def976d31fd7b00ad1c" target="_top" xlink:title=" ">
<polygon fill="white" stroke="#666666" points="145,-85.5 2.25,-85.5 2.25,-52 145,-52 145,-85.5"/>
<text xml:space="preserve" text-anchor="start" x="10.25" y="-72" font-family="Helvetica,sans-Serif" font-size="10.00">core::socket::stream</text>
<text xml:space="preserve" text-anchor="middle" x="73.62" y="-59.25" font-family="Helvetica,sans-Serif" font-size="10.00">::SocketWriter::writeEvent</text>
</a>
</g>
</g>
<!-- Node2&#45;&gt;Node3 -->
<g id="edge2_Node000002_Node000003" class="edge">
<title>Node2&#45;&gt;Node3</title>
<g id="a_edge2_Node000002_Node000003"><a xlink:title=" ">
<path fill="none" stroke="#63b8ff" d="M189.08,-68.75C174.64,-68.75 159.55,-68.75 145.26,-68.75"/>
<polygon fill="#63b8ff" stroke="#63b8ff" points="188.98,-72.25 198.98,-68.75 188.98,-65.25 188.98,-72.25"/>
</a>
</g>
</g>
<!-- Node5 -->
<g id="Node000005" class="node">
<title>Node5</title>
<g id="a_Node000005"><a xlink:href="classcore_1_1socket_1_1stream_1_1SocketWriter.html#a7fab5663fc6fe81ac7978084446bfb22" target="_top" xlink:title=" ">
<polygon fill="white" stroke="#666666" points="147.25,-33.5 0,-33.5 0,0 147.25,0 147.25,-33.5"/>
<text xml:space="preserve" text-anchor="start" x="8" y="-20" font-family="Helvetica,sans-Serif" font-size="10.00">core::socket::stream</text>
<text xml:space="preserve" text-anchor="middle" x="73.62" y="-7.25" font-family="Helvetica,sans-Serif" font-size="10.00">::SocketWriter::signalEvent</text>
</a>
</g>
</g>
<!-- Node4&#45;&gt;Node5 -->
<g id="edge4_Node000004_Node000005" class="edge">
<title>Node4&#45;&gt;Node5</title>
<g id="a_edge4_Node000004_Node000005"><a xlink:title=" ">
<path fill="none" stroke="#63b8ff" d="M171.58,-16.75C163.52,-16.75 155.44,-16.75 147.57,-16.75"/>
<polygon fill="#63b8ff" stroke="#63b8ff" points="171.42,-20.25 181.42,-16.75 171.42,-13.25 171.42,-20.25"/>
</a>
</g>
</g>
</g>
</svg>
