<?xml version="1.0" encoding="UTF-8" standalone="no"?>
<!DOCTYPE svg PUBLIC "-//W3C//DTD SVG 1.1//EN"
 "http://www.w3.org/Graphics/SVG/1.1/DTD/svg11.dtd">
<!-- Generated by graphviz version 14.1.2 (0)
 -->
<!-- Title: core::timer::SingleshotTimer::dispatchEvent Pages: 1 -->
<svg width="519pt" height="42pt"
 viewBox="0.00 0.00 519.00 42.00" xmlns="http://www.w3.org/2000/svg" xmlns:xlink="http://www.w3.org/1999/xlink">
<g id="graph0" class="graph" transform="scale(1 1) rotate(0) translate(4 37.5)">
<title>core::timer::SingleshotTimer::dispatchEvent</title>
<!-- Node1 -->
<g id="Node000001" class="node">
<title>Node1</title>
<g id="a_Node000001"><a xlink:title=" ">
<polygon fill="#999999" stroke="#666666" points="154,-33.5 0,-33.5 0,0 154,0 154,-33.5"/>
<text xml:space="preserve" text-anchor="start" x="8" y="-20" font-family="Helvetica,sans-Serif" font-size="10.00">core::timer::SingleshotTimer</text>
<text xml:space="preserve" text-anchor="middle" x="77" y="-7.25" font-family="Helvetica,sans-Serif" font-size="10.00">::dispatchEvent</text>
</a>
</g>
</g>
<!-- Node2 -->
<g id="Node000002" class="node">
<title>Node2</title>
<g id="a_Node000002"><a xlink:href="classcore_1_1TimerEventReceiver.html#ae4772b0cd2211c02e4ec10432368395a" target="_top" xlink:title=" ">
<polygon fill="white" stroke="#666666" points="331.25,-33.5 190,-33.5 190,0 331.25,0 331.25,-33.5"/>
<text xml:space="preserve" text-anchor="start" x="198" y="-20" font-family="Helvetica,sans-Serif" font-size="10.00">core::TimerEventReceiver</text>
<text xml:space="preserve" text-anchor="middle" x="260.62" y="-7.25" font-family="Helvetica,sans-Serif" font-size="10.00">::cancel</text>
</a>
</g>
</g>
<!-- Node1&#45;&gt;Node2 -->
<g id="edge1_Node000001_Node000002" class="edge">
<title>Node1&#45;&gt;Node2</title>
<g id="a_edge1_Node000001_Node000002"><a xlink:title=" ">
<path fill="none" stroke="#63b8ff" d="M154.5,-16.75C162.32,-16.75 170.28,-16.75 178.14,-16.75"/>
<polygon fill="#63b8ff" stroke="#63b8ff" points="178.06,-20.25 188.06,-16.75 178.06,-13.25 178.06,-20.25"/>
</a>
</g>
</g>
<!-- Node3 -->
<g id="Node000003" class="node">
<title>Node3</title>
<g id="a_Node000003"><a xlink:href="classcore_1_1TimerEventPublisher.html#af8725b379e9302f110a8c11e4662a217" target="_top" xlink:title=" ">
<polygon fill="white" stroke="#666666" points="510.75,-33.5 367.25,-33.5 367.25,0 510.75,0 510.75,-33.5"/>
<text xml:space="preserve" text-anchor="start" x="375.25" y="-20" font-family="Helvetica,sans-Serif" font-size="10.00">core::TimerEventPublisher</text>
<text xml:space="preserve" text-anchor="middle" x="439" y="-7.25" font-family="Helvetica,sans-Serif" font-size="10.00">::remove</text>
</a>
</g>
</g>
<!-- Node2&#45;&gt;Node3 -->
<g id="edge2_Node000002_Node000003" class="edge">
<title>Node2&#45;&gt;Node3</title>
<g id="a_edge2_Node000002_Node000003"><a xlink:title=" ">
<path fill="none" stroke="#63b8ff" d="M331.59,-16.75C339.5,-16.75 347.61,-16.75 355.66,-16.75"/>
<polygon fill="#63b8ff" stroke="#63b8ff" points="355.45,-20.25 365.45,-16.75 355.45,-13.25 355.45,-20.25"/>
</a>
</g>
</g>
</g>
</svg>
