<?xml version="1.0" encoding="UTF-8" standalone="no"?>
<!DOCTYPE svg PUBLIC "-//W3C//DTD SVG 1.1//EN"
 "http://www.w3.org/Graphics/SVG/1.1/DTD/svg11.dtd">
<!-- Generated by graphviz version 2.43.0 (0)
 -->
<!-- Title: web::http::CookieOptions::getOptions Pages: 1 -->
<svg width="2267pt" height="413pt"
 viewBox="0.00 0.00 2267.00 412.63" xmlns="http://www.w3.org/2000/svg" xmlns:xlink="http://www.w3.org/1999/xlink">
<g id="graph0" class="graph" transform="scale(1 1) rotate(0) translate(4 408.63)">
<title>web::http::CookieOptions::getOptions</title>
<!-- Node1 -->
<g id="Node000001" class="node">
<title>Node1</title>
<g id="a_Node000001"><a xlink:title=" ">
<polygon fill="#999999" stroke="#666666" points="2259,-84.13 2119,-84.13 2119,-54.13 2259,-54.13 2259,-84.13"/>
<text text-anchor="start" x="2127" y="-72.13" font-family="Helvetica,sans-Serif" font-size="10.00">web::http::CookieOptions</text>
<text text-anchor="middle" x="2189" y="-61.13" font-family="Helvetica,sans-Serif" font-size="10.00">::getOptions</text>
</a>
</g>
</g>
<!-- Node2 -->
<g id="Node000002" class="node">
<title>Node2</title>
<g id="a_Node000002"><a xlink:href="httplowlevelclient_8cpp.html#a885c17ffb968d7ede3ebfe3e04338bab" target="_top" xlink:title=" ">
<polygon fill="white" stroke="#666666" points="2074,-140.63 1964,-140.63 1964,-121.63 2074,-121.63 2074,-140.63"/>
<text text-anchor="middle" x="2019" y="-128.63" font-family="Helvetica,sans-Serif" font-size="10.00">getResponseParser</text>
</a>
</g>
</g>
<!-- Node1&#45;&gt;Node2 -->
<g id="edge1_Node000001_Node000002" class="edge">
<title>Node1&#45;&gt;Node2</title>
<g id="a_edge1_Node000001_Node000002"><a xlink:title=" ">
<path fill="none" stroke="#63b8ff" d="M2141.04,-88.06C2122.97,-95.18 2102.1,-103.23 2083,-110.13 2072.16,-114.05 2060.17,-118.12 2049.59,-121.61"/>
<polygon fill="#63b8ff" stroke="#63b8ff" points="2142.75,-91.14 2150.75,-84.21 2140.17,-84.63 2142.75,-91.14"/>
</a>
</g>
</g>
<!-- Node5 -->
<g id="Node000005" class="node">
<title>Node5</title>
<g id="a_Node000005"><a xlink:href="websocket_2echoclient_8cpp.html#a0ddf1224851353fc92bfbff6f499fa97" target="_top" xlink:title=" ">
<polygon fill="white" stroke="#666666" points="2039.5,-100.63 1998.5,-100.63 1998.5,-81.63 2039.5,-81.63 2039.5,-100.63"/>
<text text-anchor="middle" x="2019" y="-88.63" font-family="Helvetica,sans-Serif" font-size="10.00">main</text>
</a>
</g>
</g>
<!-- Node1&#45;&gt;Node5 -->
<g id="edge4_Node000001_Node000005" class="edge">
<title>Node1&#45;&gt;Node5</title>
<g id="a_edge4_Node000001_Node000005"><a xlink:title=" ">
<path fill="none" stroke="#63b8ff" d="M2108.58,-79.53C2083.05,-82.88 2056.95,-86.29 2039.76,-88.55"/>
<polygon fill="#63b8ff" stroke="#63b8ff" points="2109.24,-82.98 2118.7,-78.21 2108.33,-76.04 2109.24,-82.98"/>
</a>
</g>
</g>
<!-- Node6 -->
<g id="Node000006" class="node">
<title>Node6</title>
<g id="a_Node000006"><a xlink:href="classweb_1_1http_1_1server_1_1Response.html#a4fae387fd1d11b86260f4572bfebfce2" target="_top" xlink:title=" ">
<polygon fill="white" stroke="#666666" points="2083,-63.13 1955,-63.13 1955,-33.13 2083,-33.13 2083,-63.13"/>
<text text-anchor="start" x="1963" y="-51.13" font-family="Helvetica,sans-Serif" font-size="10.00">web::http::server::</text>
<text text-anchor="middle" x="2019" y="-40.13" font-family="Helvetica,sans-Serif" font-size="10.00">Response::sendHeader</text>
</a>
</g>
</g>
<!-- Node1&#45;&gt;Node6 -->
<g id="edge5_Node000001_Node000006" class="edge">
<title>Node1&#45;&gt;Node6</title>
<g id="a_edge5_Node000001_Node000006"><a xlink:title=" ">
<path fill="none" stroke="#63b8ff" d="M2108.71,-59.22C2100.16,-58.15 2091.54,-57.08 2083.22,-56.04"/>
<polygon fill="#63b8ff" stroke="#63b8ff" points="2108.34,-62.7 2118.7,-60.47 2109.21,-55.76 2108.34,-62.7"/>
</a>
</g>
</g>
<!-- Node14 -->
<g id="Node000014" class="node">
<title>Node14</title>
<g id="a_Node000014"><a xlink:href="classexpress_1_1middleware_1_1StaticMiddleware.html#af712793a6f6d600b813fc4a6d3fbe41d" target="_top" xlink:title=" ">
<polygon fill="white" stroke="#666666" points="731,-186.63 612,-186.63 612,-145.63 731,-145.63 731,-186.63"/>
<text text-anchor="start" x="620" y="-174.63" font-family="Helvetica,sans-Serif" font-size="10.00">express::middleware</text>
<text text-anchor="start" x="620" y="-163.63" font-family="Helvetica,sans-Serif" font-size="10.00">::StaticMiddleware::</text>
<text text-anchor="middle" x="671.5" y="-152.63" font-family="Helvetica,sans-Serif" font-size="10.00">StaticMiddleware</text>
</a>
</g>
</g>
<!-- Node1&#45;&gt;Node14 -->
<g id="edge43_Node000001_Node000014" class="edge">
<title>Node1&#45;&gt;Node14</title>
<g id="a_edge43_Node000001_Node000014"><a xlink:title=" ">
<path fill="none" stroke="#63b8ff" d="M2150.24,-49.66C2130.68,-40.42 2106.1,-30.12 2083,-24.13 1982.23,2 1954.1,-0.13 1850,-0.13 1850,-0.13 1850,-0.13 1030,-0.13 893.48,-0.13 752.63,-100.95 697.11,-145.45"/>
<polygon fill="#63b8ff" stroke="#63b8ff" points="2148.89,-52.89 2159.42,-54.08 2151.93,-46.59 2148.89,-52.89"/>
</a>
</g>
</g>
<!-- Node3 -->
<g id="Node000003" class="node">
<title>Node3</title>
<g id="a_Node000003"><a xlink:href="classSimpleSocketProtocol.html#a9a563da4b67ad983877c81023c44a696" target="_top" xlink:title=" ">
<polygon fill="white" stroke="#666666" points="1913,-177.13 1785,-177.13 1785,-147.13 1913,-147.13 1913,-177.13"/>
<text text-anchor="start" x="1793" y="-165.13" font-family="Helvetica,sans-Serif" font-size="10.00">SimpleSocketProtocol</text>
<text text-anchor="middle" x="1849" y="-154.13" font-family="Helvetica,sans-Serif" font-size="10.00">::SimpleSocketProtocol</text>
</a>
</g>
</g>
<!-- Node2&#45;&gt;Node3 -->
<g id="edge2_Node000002_Node000003" class="edge">
<title>Node2&#45;&gt;Node3</title>
<g id="a_edge2_Node000002_Node000003"><a xlink:title=" ">
<path fill="none" stroke="#63b8ff" d="M1956.19,-142.54C1942.15,-145.13 1927.23,-147.88 1913.15,-150.48"/>
<polygon fill="#63b8ff" stroke="#63b8ff" points="1957.02,-145.94 1966.22,-140.69 1955.75,-139.06 1957.02,-145.94"/>
</a>
</g>
</g>
<!-- Node4 -->
<g id="Node000004" class="node">
<title>Node4</title>
<g id="a_Node000004"><a xlink:href="classSimpleSocketProtocolFactory.html#a5e7d4e3e4fa9dc2863a08199c9d0649a" target="_top" xlink:title=" ">
<polygon fill="white" stroke="#666666" points="1743,-202.13 1585,-202.13 1585,-172.13 1743,-172.13 1743,-202.13"/>
<text text-anchor="start" x="1593" y="-190.13" font-family="Helvetica,sans-Serif" font-size="10.00">SimpleSocketProtocolFactory</text>
<text text-anchor="middle" x="1664" y="-179.13" font-family="Helvetica,sans-Serif" font-size="10.00">::create</text>
</a>
</g>
</g>
<!-- Node3&#45;&gt;Node4 -->
<g id="edge3_Node000003_Node000004" class="edge">
<title>Node3&#45;&gt;Node4</title>
<g id="a_edge3_Node000003_Node000004"><a xlink:title=" ">
<path fill="none" stroke="#63b8ff" d="M1774.54,-172.17C1764.2,-173.58 1753.53,-175.04 1743.09,-176.46"/>
<polygon fill="#63b8ff" stroke="#63b8ff" points="1775.33,-175.59 1784.77,-170.77 1774.38,-168.66 1775.33,-175.59"/>
</a>
</g>
</g>
<!-- Node7 -->
<g id="Node000007" class="node">
<title>Node7</title>
<g id="a_Node000007"><a xlink:href="classweb_1_1http_1_1server_1_1Response.html#afa629201cede13cbddfcc22290229ab9" target="_top" xlink:title=" ">
<polygon fill="white" stroke="#666666" points="1919,-104.13 1779,-104.13 1779,-74.13 1919,-74.13 1919,-104.13"/>
<text text-anchor="start" x="1787" y="-92.13" font-family="Helvetica,sans-Serif" font-size="10.00">web::http::server::</text>
<text text-anchor="middle" x="1849" y="-81.13" font-family="Helvetica,sans-Serif" font-size="10.00">Response::sendResponse</text>
</a>
</g>
</g>
<!-- Node6&#45;&gt;Node7 -->
<g id="edge6_Node000006_Node000007" class="edge">
<title>Node6&#45;&gt;Node7</title>
<g id="a_edge6_Node000006_Node000007"><a xlink:title=" ">
<path fill="none" stroke="#63b8ff" d="M1946.34,-65.62C1934.78,-68.44 1922.89,-71.34 1911.6,-74.1"/>
<polygon fill="#63b8ff" stroke="#63b8ff" points="1947.51,-68.94 1956.4,-63.17 1945.85,-62.14 1947.51,-68.94"/>
</a>
</g>
</g>
<!-- Node8 -->
<g id="Node000008" class="node">
<title>Node8</title>
<g id="a_Node000008"><a xlink:href="classweb_1_1http_1_1server_1_1Response.html#a6693a2431a465a948bca9ba1593a1f20" target="_top" xlink:title=" ">
<polygon fill="white" stroke="#666666" points="1717,-106.13 1611,-106.13 1611,-76.13 1717,-76.13 1717,-106.13"/>
<text text-anchor="start" x="1619" y="-94.13" font-family="Helvetica,sans-Serif" font-size="10.00">web::http::server::</text>
<text text-anchor="middle" x="1664" y="-83.13" font-family="Helvetica,sans-Serif" font-size="10.00">Response::receive</text>
</a>
</g>
</g>
<!-- Node7&#45;&gt;Node8 -->
<g id="edge7_Node000007_Node000008" class="edge">
<title>Node7&#45;&gt;Node8</title>
<g id="a_edge7_Node000007_Node000008"><a xlink:title=" ">
<path fill="none" stroke="#63b8ff" d="M1768.64,-90C1751.22,-90.19 1733.19,-90.39 1717.16,-90.56"/>
<polygon fill="#63b8ff" stroke="#63b8ff" points="1768.85,-93.5 1778.82,-89.89 1768.78,-86.5 1768.85,-93.5"/>
</a>
</g>
</g>
<!-- Node9 -->
<g id="Node000009" class="node">
<title>Node9</title>
<g id="a_Node000009"><a xlink:href="classweb_1_1http_1_1server_1_1Response.html#ad13e93ee083ee9e780a4478a86fdefec" target="_top" xlink:title=" ">
<polygon fill="white" stroke="#666666" points="1716.5,-154.13 1611.5,-154.13 1611.5,-124.13 1716.5,-124.13 1716.5,-154.13"/>
<text text-anchor="start" x="1619.5" y="-142.13" font-family="Helvetica,sans-Serif" font-size="10.00">web::http::server::</text>
<text text-anchor="middle" x="1664" y="-131.13" font-family="Helvetica,sans-Serif" font-size="10.00">Response::send</text>
</a>
</g>
</g>
<!-- Node7&#45;&gt;Node9 -->
<g id="edge8_Node000007_Node000009" class="edge">
<title>Node7&#45;&gt;Node9</title>
<g id="a_edge8_Node000007_Node000009"><a xlink:title=" ">
<path fill="none" stroke="#63b8ff" d="M1783.25,-106.82C1761.44,-112.78 1737.41,-119.35 1716.73,-125"/>
<polygon fill="#63b8ff" stroke="#63b8ff" points="1784.37,-110.15 1793.09,-104.14 1782.53,-103.39 1784.37,-110.15"/>
</a>
</g>
</g>
<!-- Node37 -->
<g id="Node000037" class="node">
<title>Node37</title>
<g id="a_Node000037"><a xlink:href="classweb_1_1http_1_1server_1_1Response.html#a428f61869432e01609dddc9c16b1d0ff" target="_top" xlink:title=" ">
<polygon fill="white" stroke="#666666" points="1734,-58.13 1594,-58.13 1594,-28.13 1734,-28.13 1734,-58.13"/>
<text text-anchor="start" x="1602" y="-46.13" font-family="Helvetica,sans-Serif" font-size="10.00">web::http::server::</text>
<text text-anchor="middle" x="1664" y="-35.13" font-family="Helvetica,sans-Serif" font-size="10.00">Response::sendResponse</text>
</a>
</g>
</g>
<!-- Node7&#45;&gt;Node37 -->
<g id="edge41_Node000007_Node000037" class="edge">
<title>Node7&#45;&gt;Node37</title>
<g id="a_edge41_Node000007_Node000037"><a xlink:title=" ">
<path fill="none" stroke="#63b8ff" d="M1777.9,-71.51C1760.37,-67.11 1741.72,-62.42 1724.74,-58.15"/>
<polygon fill="#63b8ff" stroke="#63b8ff" points="1777.53,-75.03 1788.08,-74.07 1779.23,-68.24 1777.53,-75.03"/>
</a>
</g>
</g>
<!-- Node10 -->
<g id="Node000010" class="node">
<title>Node10</title>
<g id="a_Node000010"><a xlink:href="classweb_1_1http_1_1server_1_1Response.html#a5128a20b904071c22a077b040c8ff138" target="_top" xlink:title=" ">
<polygon fill="white" stroke="#666666" points="1549,-143.13 1444,-143.13 1444,-113.13 1549,-113.13 1549,-143.13"/>
<text text-anchor="start" x="1452" y="-131.13" font-family="Helvetica,sans-Serif" font-size="10.00">web::http::server::</text>
<text text-anchor="middle" x="1496.5" y="-120.13" font-family="Helvetica,sans-Serif" font-size="10.00">Response::send</text>
</a>
</g>
</g>
<!-- Node9&#45;&gt;Node10 -->
<g id="edge9_Node000009_Node000010" class="edge">
<title>Node9&#45;&gt;Node10</title>
<g id="a_edge9_Node000009_Node000010"><a xlink:title=" ">
<path fill="none" stroke="#63b8ff" d="M1600.71,-134.99C1583.74,-133.87 1565.54,-132.66 1549.23,-131.57"/>
<polygon fill="#63b8ff" stroke="#63b8ff" points="1600.88,-138.51 1611.09,-135.68 1601.34,-131.53 1600.88,-138.51"/>
</a>
</g>
</g>
<!-- Node11 -->
<g id="Node000011" class="node">
<title>Node11</title>
<g id="a_Node000011"><a xlink:href="classweb_1_1http_1_1server_1_1Response.html#a761cba48efb6eed2fa816750670c03db" target="_top" xlink:title=" ">
<polygon fill="white" stroke="#666666" points="1393.5,-143.13 1288.5,-143.13 1288.5,-113.13 1393.5,-113.13 1393.5,-143.13"/>
<text text-anchor="start" x="1296.5" y="-131.13" font-family="Helvetica,sans-Serif" font-size="10.00">web::http::server::</text>
<text text-anchor="middle" x="1341" y="-120.13" font-family="Helvetica,sans-Serif" font-size="10.00">Response::end</text>
</a>
</g>
</g>
<!-- Node10&#45;&gt;Node11 -->
<g id="edge10_Node000010_Node000011" class="edge">
<title>Node10&#45;&gt;Node11</title>
<g id="a_edge10_Node000010_Node000011"><a xlink:title=" ">
<path fill="none" stroke="#63b8ff" d="M1433.91,-128.13C1420.56,-128.13 1406.58,-128.13 1393.67,-128.13"/>
<polygon fill="#63b8ff" stroke="#63b8ff" points="1433.96,-131.63 1443.96,-128.13 1433.96,-124.63 1433.96,-131.63"/>
</a>
</g>
</g>
<!-- Node15 -->
<g id="Node000015" class="node">
<title>Node15</title>
<g id="a_Node000015"><a xlink:href="classexpress_1_1Response.html#ae60d0bae9024f07455b4d54c6fe9b4a0" target="_top" xlink:title=" ">
<polygon fill="white" stroke="#666666" points="1408,-94.63 1274,-94.63 1274,-75.63 1408,-75.63 1408,-94.63"/>
<text text-anchor="middle" x="1341" y="-82.63" font-family="Helvetica,sans-Serif" font-size="10.00">express::Response::json</text>
</a>
</g>
</g>
<!-- Node10&#45;&gt;Node15 -->
<g id="edge14_Node000010_Node000015" class="edge">
<title>Node10&#45;&gt;Node15</title>
<g id="a_edge14_Node000010_Node000015"><a xlink:title=" ">
<path fill="none" stroke="#63b8ff" d="M1434.12,-110.94C1414.41,-105.42 1393.29,-99.5 1376.26,-94.73"/>
<polygon fill="#63b8ff" stroke="#63b8ff" points="1433.39,-114.37 1443.96,-113.7 1435.27,-107.63 1433.39,-114.37"/>
</a>
</g>
</g>
<!-- Node16 -->
<g id="Node000016" class="node">
<title>Node16</title>
<g id="a_Node000016"><a xlink:href="jsonserver_8cpp.html#a0ddf1224851353fc92bfbff6f499fa97" target="_top" xlink:title=" ">
<polygon fill="white" stroke="#666666" points="1361.5,-57.63 1320.5,-57.63 1320.5,-38.63 1361.5,-38.63 1361.5,-57.63"/>
<text text-anchor="middle" x="1341" y="-45.63" font-family="Helvetica,sans-Serif" font-size="10.00">main</text>
</a>
</g>
</g>
<!-- Node10&#45;&gt;Node16 -->
<g id="edge15_Node000010_Node000016" class="edge">
<title>Node10&#45;&gt;Node16</title>
<g id="a_edge15_Node000010_Node000016"><a xlink:title=" ">
<path fill="none" stroke="#63b8ff" d="M1469.33,-106.46C1452.64,-93.53 1430.07,-77.65 1408,-67.13 1393.14,-60.06 1375.13,-55.09 1361.67,-52.01"/>
<polygon fill="#63b8ff" stroke="#63b8ff" points="1467.47,-109.45 1477.49,-112.9 1471.81,-103.96 1467.47,-109.45"/>
</a>
</g>
</g>
<!-- Node17 -->
<g id="Node000017" class="node">
<title>Node17</title>
<g id="a_Node000017"><a xlink:href="classexpress_1_1Response.html#aead1c666aafef5787f1824e5ea30efad" target="_top" xlink:title=" ">
<polygon fill="white" stroke="#666666" points="1398,-245.13 1284,-245.13 1284,-215.13 1398,-215.13 1398,-245.13"/>
<text text-anchor="start" x="1292" y="-233.13" font-family="Helvetica,sans-Serif" font-size="10.00">express::Response::</text>
<text text-anchor="middle" x="1341" y="-222.13" font-family="Helvetica,sans-Serif" font-size="10.00">sendStatus</text>
</a>
</g>
</g>
<!-- Node10&#45;&gt;Node17 -->
<g id="edge16_Node000010_Node000017" class="edge">
<title>Node10&#45;&gt;Node17</title>
<g id="a_edge16_Node000010_Node000017"><a xlink:title=" ">
<path fill="none" stroke="#63b8ff" d="M1464.17,-148.95C1434.63,-168.58 1391.08,-197.52 1364.74,-215.02"/>
<polygon fill="#63b8ff" stroke="#63b8ff" points="1466.46,-151.63 1472.85,-143.18 1462.58,-145.8 1466.46,-151.63"/>
</a>
</g>
</g>
<!-- Node12 -->
<g id="Node000012" class="node">
<title>Node12</title>
<g id="a_Node000012"><a xlink:href="websocket_2echoserver_8cpp.html#a0ddf1224851353fc92bfbff6f499fa97" target="_top" xlink:title=" ">
<polygon fill="white" stroke="#666666" points="1201.5,-99.63 1160.5,-99.63 1160.5,-80.63 1201.5,-80.63 1201.5,-99.63"/>
<text text-anchor="middle" x="1181" y="-87.63" font-family="Helvetica,sans-Serif" font-size="10.00">main</text>
</a>
</g>
</g>
<!-- Node11&#45;&gt;Node12 -->
<g id="edge11_Node000011_Node000012" class="edge">
<title>Node11&#45;&gt;Node12</title>
<g id="a_edge11_Node000011_Node000012"><a xlink:title=" ">
<path fill="none" stroke="#63b8ff" d="M1278.4,-113.32C1251.19,-106.77 1221.08,-99.53 1201.87,-94.91"/>
<polygon fill="#63b8ff" stroke="#63b8ff" points="1277.72,-116.76 1288.26,-115.69 1279.36,-109.95 1277.72,-116.76"/>
</a>
</g>
</g>
<!-- Node13 -->
<g id="Node000013" class="node">
<title>Node13</title>
<g id="a_Node000013"><a xlink:href="testregex_8cpp.html#ab024e3c77aeb1487da4b33877cdfc1fb" target="_top" xlink:title=" ">
<polygon fill="white" stroke="#666666" points="1204,-62.63 1158,-62.63 1158,-43.63 1204,-43.63 1204,-62.63"/>
<text text-anchor="middle" x="1181" y="-50.63" font-family="Helvetica,sans-Serif" font-size="10.00">router</text>
</a>
</g>
</g>
<!-- Node11&#45;&gt;Node13 -->
<g id="edge12_Node000011_Node000013" class="edge">
<title>Node11&#45;&gt;Node13</title>
<g id="a_edge12_Node000011_Node000013"><a xlink:title=" ">
<path fill="none" stroke="#63b8ff" d="M1282.67,-108.84C1279.68,-107.36 1276.78,-105.79 1274,-104.13 1255.61,-93.17 1256.5,-82.9 1238,-72.13 1227.53,-66.04 1214.81,-61.53 1204.15,-58.43"/>
<polygon fill="#63b8ff" stroke="#63b8ff" points="1281.24,-112.04 1291.79,-113.04 1284.16,-105.68 1281.24,-112.04"/>
</a>
</g>
</g>
<!-- Node11&#45;&gt;Node14 -->
<g id="edge13_Node000011_Node000014" class="edge">
<title>Node11&#45;&gt;Node14</title>
<g id="a_edge13_Node000011_Node000014"><a xlink:title=" ">
<path fill="none" stroke="#63b8ff" d="M1278.18,-129.55C1177.62,-132.15 972.37,-138.71 799,-152.13 776.86,-153.85 752.61,-156.37 731.31,-158.81"/>
<polygon fill="#63b8ff" stroke="#63b8ff" points="1278.55,-133.04 1288.46,-129.29 1278.38,-126.05 1278.55,-133.04"/>
</a>
</g>
</g>
<!-- Node17&#45;&gt;Node14 -->
<g id="edge40_Node000017_Node000014" class="edge">
<title>Node17&#45;&gt;Node14</title>
<g id="a_edge40_Node000017_Node000014"><a xlink:title=" ">
<path fill="none" stroke="#63b8ff" d="M1304.35,-210.38C1285.28,-200.86 1261.03,-190.39 1238,-185.13 1057,-143.8 835.03,-153.14 731.24,-160.86"/>
<polygon fill="#63b8ff" stroke="#63b8ff" points="1302.78,-213.51 1313.27,-214.95 1305.97,-207.28 1302.78,-213.51"/>
</a>
</g>
</g>
<!-- Node18 -->
<g id="Node000018" class="node">
<title>Node18</title>
<g id="a_Node000018"><a xlink:href="classexpress_1_1middleware_1_1BasicAuthentication.html#a74011e8f313cded7f34c28250ddc878f" target="_top" xlink:title=" ">
<polygon fill="white" stroke="#666666" points="731.5,-396.63 611.5,-396.63 611.5,-355.63 731.5,-355.63 731.5,-396.63"/>
<text text-anchor="start" x="619.5" y="-384.63" font-family="Helvetica,sans-Serif" font-size="10.00">express::middleware</text>
<text text-anchor="start" x="619.5" y="-373.63" font-family="Helvetica,sans-Serif" font-size="10.00">::BasicAuthentication</text>
<text text-anchor="middle" x="671.5" y="-362.63" font-family="Helvetica,sans-Serif" font-size="10.00">::BasicAuthentication</text>
</a>
</g>
</g>
<!-- Node17&#45;&gt;Node18 -->
<g id="edge17_Node000017_Node000018" class="edge">
<title>Node17&#45;&gt;Node18</title>
<g id="a_edge17_Node000017_Node000018"><a xlink:title=" ">
<path fill="none" stroke="#63b8ff" d="M1319.52,-252.6C1300.23,-272.57 1269.62,-301.3 1238,-319.13 1073.84,-411.73 839.85,-397.88 731.61,-384.88"/>
<polygon fill="#63b8ff" stroke="#63b8ff" points="1322.24,-254.82 1326.59,-245.16 1317.16,-250 1322.24,-254.82"/>
</a>
</g>
</g>
<!-- Node23 -->
<g id="Node000023" class="node">
<title>Node23</title>
<g id="a_Node000023"><a xlink:href="classexpress_1_1RootRoute.html#a2d65050e101a52dc8c303cd787d1cb23" target="_top" xlink:title=" ">
<polygon fill="white" stroke="#666666" points="1237,-310.13 1125,-310.13 1125,-280.13 1237,-280.13 1237,-310.13"/>
<text text-anchor="start" x="1133" y="-298.13" font-family="Helvetica,sans-Serif" font-size="10.00">express::RootRoute</text>
<text text-anchor="middle" x="1181" y="-287.13" font-family="Helvetica,sans-Serif" font-size="10.00">::dispatch</text>
</a>
</g>
</g>
<!-- Node17&#45;&gt;Node23 -->
<g id="edge23_Node000017_Node000023" class="edge">
<title>Node17&#45;&gt;Node23</title>
<g id="a_edge23_Node000017_Node000023"><a xlink:title=" ">
<path fill="none" stroke="#63b8ff" d="M1294.1,-249.02C1270.12,-258.88 1241.19,-270.78 1218.72,-280.03"/>
<polygon fill="#63b8ff" stroke="#63b8ff" points="1295.44,-252.25 1303.35,-245.21 1292.77,-245.78 1295.44,-252.25"/>
</a>
</g>
</g>
<!-- Node34 -->
<g id="Node000034" class="node">
<title>Node34</title>
<g id="a_Node000034"><a xlink:href="AuthorizationServer_8cpp.html#a0ddf1224851353fc92bfbff6f499fa97" target="_top" xlink:title=" ">
<polygon fill="white" stroke="#666666" points="1201.5,-261.63 1160.5,-261.63 1160.5,-242.63 1201.5,-242.63 1201.5,-261.63"/>
<text text-anchor="middle" x="1181" y="-249.63" font-family="Helvetica,sans-Serif" font-size="10.00">main</text>
</a>
</g>
</g>
<!-- Node17&#45;&gt;Node34 -->
<g id="edge36_Node000017_Node000034" class="edge">
<title>Node17&#45;&gt;Node34</title>
<g id="a_edge36_Node000017_Node000034"><a xlink:title=" ">
<path fill="none" stroke="#63b8ff" d="M1273.66,-239.37C1247.74,-242.98 1219.97,-246.85 1201.87,-249.37"/>
<polygon fill="#63b8ff" stroke="#63b8ff" points="1274.43,-242.8 1283.85,-237.95 1273.46,-235.86 1274.43,-242.8"/>
</a>
</g>
</g>
<!-- Node35 -->
<g id="Node000035" class="node">
<title>Node35</title>
<g id="a_Node000035"><a xlink:href="classexpress_1_1Response.html#a6da531370bf0e26c31d44e9831a896d2" target="_top" xlink:title=" ">
<polygon fill="white" stroke="#666666" points="1238,-224.13 1124,-224.13 1124,-194.13 1238,-194.13 1238,-224.13"/>
<text text-anchor="start" x="1132" y="-212.13" font-family="Helvetica,sans-Serif" font-size="10.00">express::Response::</text>
<text text-anchor="middle" x="1181" y="-201.13" font-family="Helvetica,sans-Serif" font-size="10.00">redirect</text>
</a>
</g>
</g>
<!-- Node17&#45;&gt;Node35 -->
<g id="edge37_Node000017_Node000035" class="edge">
<title>Node17&#45;&gt;Node35</title>
<g id="a_edge37_Node000017_Node000035"><a xlink:title=" ">
<path fill="none" stroke="#63b8ff" d="M1273.63,-221.31C1261.85,-219.75 1249.7,-218.13 1238.23,-216.61"/>
<polygon fill="#63b8ff" stroke="#63b8ff" points="1273.48,-224.82 1283.85,-222.67 1274.4,-217.88 1273.48,-224.82"/>
</a>
</g>
</g>
<!-- Node19 -->
<g id="Node000019" class="node">
<title>Node19</title>
<g id="a_Node000019"><a xlink:href="classexpress_1_1middleware_1_1BasicAuthentication.html#a8cd93f5ab0744e5deae89aac3709ee42" target="_top" xlink:title=" ">
<polygon fill="white" stroke="#666666" points="530.5,-396.63 410.5,-396.63 410.5,-355.63 530.5,-355.63 530.5,-396.63"/>
<text text-anchor="start" x="418.5" y="-384.63" font-family="Helvetica,sans-Serif" font-size="10.00">express::middleware</text>
<text text-anchor="start" x="418.5" y="-373.63" font-family="Helvetica,sans-Serif" font-size="10.00">::BasicAuthentication</text>
<text text-anchor="middle" x="470.5" y="-362.63" font-family="Helvetica,sans-Serif" font-size="10.00">::instance</text>
</a>
</g>
</g>
<!-- Node18&#45;&gt;Node19 -->
<g id="edge18_Node000018_Node000019" class="edge">
<title>Node18&#45;&gt;Node19</title>
<g id="a_edge18_Node000018_Node000019"><a xlink:title=" ">
<path fill="none" stroke="#63b8ff" d="M601.3,-376.13C578.32,-376.13 552.95,-376.13 530.78,-376.13"/>
<polygon fill="#63b8ff" stroke="#63b8ff" points="601.33,-379.63 611.33,-376.13 601.33,-372.63 601.33,-379.63"/>
</a>
</g>
</g>
<!-- Node20 -->
<g id="Node000020" class="node">
<title>Node20</title>
<g id="a_Node000020"><a xlink:href="classexpress_1_1middleware_1_1BasicAuthentication.html#a461f08f2de85ee8ddb1afb72db149028" target="_top" xlink:title=" ">
<polygon fill="white" stroke="#666666" points="329.5,-396.63 209.5,-396.63 209.5,-355.63 329.5,-355.63 329.5,-396.63"/>
<text text-anchor="start" x="217.5" y="-384.63" font-family="Helvetica,sans-Serif" font-size="10.00">express::middleware</text>
<text text-anchor="start" x="217.5" y="-373.63" font-family="Helvetica,sans-Serif" font-size="10.00">::BasicAuthentication</text>
<text text-anchor="middle" x="269.5" y="-362.63" font-family="Helvetica,sans-Serif" font-size="10.00">::BasicAuthentication</text>
</a>
</g>
</g>
<!-- Node19&#45;&gt;Node20 -->
<g id="edge19_Node000019_Node000020" class="edge">
<title>Node19&#45;&gt;Node20</title>
<g id="a_edge19_Node000019_Node000020"><a xlink:title=" ">
<path fill="none" stroke="#63b8ff" d="M400.3,-376.13C377.32,-376.13 351.95,-376.13 329.78,-376.13"/>
<polygon fill="#63b8ff" stroke="#63b8ff" points="400.33,-379.63 410.33,-376.13 400.33,-372.63 400.33,-379.63"/>
</a>
</g>
</g>
<!-- Node21 -->
<g id="Node000021" class="node">
<title>Node21</title>
<g id="a_Node000021"><a xlink:href="testbasicauthentication_8cpp.html#aeb6ff6ca94f495351c99f0a372eadd33" target="_top" xlink:title=" ">
<polygon fill="white" stroke="#666666" points="142,-404.63 77,-404.63 77,-385.63 142,-385.63 142,-404.63"/>
<text text-anchor="middle" x="109.5" y="-392.63" font-family="Helvetica,sans-Serif" font-size="10.00">getRouter</text>
</a>
</g>
</g>
<!-- Node20&#45;&gt;Node21 -->
<g id="edge20_Node000020_Node000021" class="edge">
<title>Node20&#45;&gt;Node21</title>
<g id="a_edge20_Node000020_Node000021"><a xlink:title=" ">
<path fill="none" stroke="#63b8ff" d="M199.22,-384.46C179.32,-386.86 158.58,-389.35 142.16,-391.33"/>
<polygon fill="#63b8ff" stroke="#63b8ff" points="199.71,-387.93 209.22,-383.26 198.87,-380.98 199.71,-387.93"/>
</a>
</g>
</g>
<!-- Node22 -->
<g id="Node000022" class="node">
<title>Node22</title>
<g id="a_Node000022"><a xlink:href="testbasicauthentication_8cpp.html#a0ddf1224851353fc92bfbff6f499fa97" target="_top" xlink:title=" ">
<polygon fill="white" stroke="#666666" points="41,-385.63 0,-385.63 0,-366.63 41,-366.63 41,-385.63"/>
<text text-anchor="middle" x="20.5" y="-373.63" font-family="Helvetica,sans-Serif" font-size="10.00">main</text>
</a>
</g>
</g>
<!-- Node20&#45;&gt;Node22 -->
<g id="edge22_Node000020_Node000022" class="edge">
<title>Node20&#45;&gt;Node22</title>
<g id="a_edge22_Node000020_Node000022"><a xlink:title=" ">
<path fill="none" stroke="#63b8ff" d="M199.19,-376.13C145.56,-376.13 74.91,-376.13 41.14,-376.13"/>
<polygon fill="#63b8ff" stroke="#63b8ff" points="199.34,-379.63 209.34,-376.13 199.34,-372.63 199.34,-379.63"/>
</a>
</g>
</g>
<!-- Node21&#45;&gt;Node22 -->
<g id="edge21_Node000021_Node000022" class="edge">
<title>Node21&#45;&gt;Node22</title>
<g id="a_edge21_Node000021_Node000022"><a xlink:title=" ">
<path fill="none" stroke="#63b8ff" d="M66.61,-385.99C57.66,-384.03 48.62,-382.06 41,-380.39"/>
<polygon fill="#63b8ff" stroke="#63b8ff" points="66.08,-389.45 76.6,-388.17 67.58,-382.61 66.08,-389.45"/>
</a>
</g>
</g>
<!-- Node24 -->
<g id="Node000024" class="node">
<title>Node24</title>
<g id="a_Node000024"><a xlink:href="classexpress_1_1RootRoute.html#a1c2da19981989c227a16b6054be19262" target="_top" xlink:title=" ">
<polygon fill="white" stroke="#666666" points="1087,-358.13 975,-358.13 975,-328.13 1087,-328.13 1087,-358.13"/>
<text text-anchor="start" x="983" y="-346.13" font-family="Helvetica,sans-Serif" font-size="10.00">express::RootRoute</text>
<text text-anchor="middle" x="1031" y="-335.13" font-family="Helvetica,sans-Serif" font-size="10.00">::dispatch</text>
</a>
</g>
</g>
<!-- Node23&#45;&gt;Node24 -->
<g id="edge24_Node000023_Node000024" class="edge">
<title>Node23&#45;&gt;Node24</title>
<g id="a_edge24_Node000023_Node000024"><a xlink:title=" ">
<path fill="none" stroke="#63b8ff" d="M1123.87,-313.34C1108.81,-318.22 1092.71,-323.44 1078.26,-328.13"/>
<polygon fill="#63b8ff" stroke="#63b8ff" points="1125.15,-316.6 1133.58,-310.19 1122.99,-309.95 1125.15,-316.6"/>
</a>
</g>
</g>
<!-- Node26 -->
<g id="Node000026" class="node">
<title>Node26</title>
<g id="a_Node000026"><a xlink:href="classexpress_1_1Controller.html#a37349835c6e195cd3b2f264cfcf97fae" target="_top" xlink:title=" ">
<polygon fill="white" stroke="#666666" points="1085.5,-310.13 976.5,-310.13 976.5,-280.13 1085.5,-280.13 1085.5,-310.13"/>
<text text-anchor="start" x="984.5" y="-298.13" font-family="Helvetica,sans-Serif" font-size="10.00">express::Controller</text>
<text text-anchor="middle" x="1031" y="-287.13" font-family="Helvetica,sans-Serif" font-size="10.00">::next</text>
</a>
</g>
</g>
<!-- Node23&#45;&gt;Node26 -->
<g id="edge26_Node000023_Node000026" class="edge">
<title>Node23&#45;&gt;Node26</title>
<g id="a_edge26_Node000023_Node000026"><a xlink:title=" ">
<path fill="none" stroke="#63b8ff" d="M1114.84,-295.13C1105.1,-295.13 1095.15,-295.13 1085.68,-295.13"/>
<polygon fill="#63b8ff" stroke="#63b8ff" points="1114.89,-298.63 1124.89,-295.13 1114.89,-291.63 1114.89,-298.63"/>
</a>
</g>
</g>
<!-- Node25 -->
<g id="Node000025" class="node">
<title>Node25</title>
<g id="a_Node000025"><a xlink:href="classexpress_1_1RootRoute.html#af16bc704beb82bcaaa1fbf9a56a7bbaa" target="_top" xlink:title=" ">
<polygon fill="white" stroke="#666666" points="924.5,-358.13 812.5,-358.13 812.5,-328.13 924.5,-328.13 924.5,-358.13"/>
<text text-anchor="start" x="820.5" y="-346.13" font-family="Helvetica,sans-Serif" font-size="10.00">express::RootRoute</text>
<text text-anchor="middle" x="868.5" y="-335.13" font-family="Helvetica,sans-Serif" font-size="10.00">::dispatch</text>
</a>
</g>
</g>
<!-- Node24&#45;&gt;Node25 -->
<g id="edge25_Node000024_Node000025" class="edge">
<title>Node24&#45;&gt;Node25</title>
<g id="a_edge25_Node000024_Node000025"><a xlink:title=" ">
<path fill="none" stroke="#63b8ff" d="M964.71,-343.13C951.39,-343.13 937.49,-343.13 924.56,-343.13"/>
<polygon fill="#63b8ff" stroke="#63b8ff" points="964.77,-346.63 974.77,-343.13 964.76,-339.63 964.77,-346.63"/>
</a>
</g>
</g>
<!-- Node27 -->
<g id="Node000027" class="node">
<title>Node27</title>
<g id="a_Node000027"><a xlink:href="classexpress_1_1Next.html#a3e14e0e46359f80dac195ec6e57eaf5d" target="_top" xlink:title=" ">
<polygon fill="white" stroke="#666666" points="938,-304.63 799,-304.63 799,-285.63 938,-285.63 938,-304.63"/>
<text text-anchor="middle" x="868.5" y="-292.63" font-family="Helvetica,sans-Serif" font-size="10.00">express::Next::operator()</text>
</a>
</g>
</g>
<!-- Node26&#45;&gt;Node27 -->
<g id="edge27_Node000026_Node000027" class="edge">
<title>Node26&#45;&gt;Node27</title>
<g id="a_edge27_Node000026_Node000027"><a xlink:title=" ">
<path fill="none" stroke="#63b8ff" d="M965.92,-295.13C956.76,-295.13 947.31,-295.13 938.07,-295.13"/>
<polygon fill="#63b8ff" stroke="#63b8ff" points="966.11,-298.63 976.11,-295.13 966.11,-291.63 966.11,-298.63"/>
</a>
</g>
</g>
<!-- Node27&#45;&gt;Node14 -->
<g id="edge32_Node000027_Node000014" class="edge">
<title>Node27&#45;&gt;Node14</title>
<g id="a_edge32_Node000027_Node000014"><a xlink:title=" ">
<path fill="none" stroke="#63b8ff" d="M829.17,-281.73C818.99,-277.43 808.26,-272.18 799,-266.13 780.58,-254.1 779.92,-246.2 763,-232.13 743.71,-216.1 720.88,-199.46 702.98,-186.91"/>
<polygon fill="#63b8ff" stroke="#63b8ff" points="828.11,-285.08 838.69,-285.57 830.72,-278.59 828.11,-285.08"/>
</a>
</g>
</g>
<!-- Node27&#45;&gt;Node18 -->
<g id="edge28_Node000027_Node000018" class="edge">
<title>Node27&#45;&gt;Node18</title>
<g id="a_edge28_Node000027_Node000018"><a xlink:title=" ">
<path fill="none" stroke="#63b8ff" d="M828.79,-308.04C819.01,-311.48 808.57,-315.31 799,-319.13 770.93,-330.35 739.98,-344.27 715.72,-355.54"/>
<polygon fill="#63b8ff" stroke="#63b8ff" points="830,-311.33 838.3,-304.74 827.7,-304.71 830,-311.33"/>
</a>
</g>
</g>
<!-- Node28 -->
<g id="Node000028" class="node">
<title>Node28</title>
<g id="a_Node000028"><a xlink:href="classexpress_1_1middleware_1_1JsonMiddleware.html#a0f90276c1100e22d2114306b23b95991" target="_top" xlink:title=" ">
<polygon fill="white" stroke="#666666" points="763,-319.13 580,-319.13 580,-289.13 763,-289.13 763,-319.13"/>
<text text-anchor="start" x="588" y="-307.13" font-family="Helvetica,sans-Serif" font-size="10.00">express::middleware</text>
<text text-anchor="middle" x="671.5" y="-296.13" font-family="Helvetica,sans-Serif" font-size="10.00">::JsonMiddleware::JsonMiddleware</text>
</a>
</g>
</g>
<!-- Node27&#45;&gt;Node28 -->
<g id="edge29_Node000027_Node000028" class="edge">
<title>Node27&#45;&gt;Node28</title>
<g id="a_edge29_Node000027_Node000028"><a xlink:title=" ">
<path fill="none" stroke="#63b8ff" d="M788.64,-298.77C780.25,-299.16 771.68,-299.56 763.17,-299.95"/>
<polygon fill="#63b8ff" stroke="#63b8ff" points="788.92,-302.26 798.75,-298.31 788.6,-295.27 788.92,-302.26"/>
</a>
</g>
</g>
<!-- Node31 -->
<g id="Node000031" class="node">
<title>Node31</title>
<g id="a_Node000031"><a xlink:href="classexpress_1_1middleware_1_1VHost.html#ab60d9df1ad85a8ee414c111135e250b1" target="_top" xlink:title=" ">
<polygon fill="white" stroke="#666666" points="731,-271.13 612,-271.13 612,-241.13 731,-241.13 731,-271.13"/>
<text text-anchor="start" x="620" y="-259.13" font-family="Helvetica,sans-Serif" font-size="10.00">express::middleware</text>
<text text-anchor="middle" x="671.5" y="-248.13" font-family="Helvetica,sans-Serif" font-size="10.00">::VHost::VHost</text>
</a>
</g>
</g>
<!-- Node27&#45;&gt;Node31 -->
<g id="edge33_Node000027_Node000031" class="edge">
<title>Node27&#45;&gt;Node31</title>
<g id="a_edge33_Node000027_Node000031"><a xlink:title=" ">
<path fill="none" stroke="#63b8ff" d="M809.81,-283.6C785.03,-278.64 756.1,-272.85 731.21,-267.87"/>
<polygon fill="#63b8ff" stroke="#63b8ff" points="809.31,-287.06 819.8,-285.59 810.68,-280.2 809.31,-287.06"/>
</a>
</g>
</g>
<!-- Node29 -->
<g id="Node000029" class="node">
<title>Node29</title>
<g id="a_Node000029"><a xlink:href="classexpress_1_1middleware_1_1JsonMiddleware.html#ae20c47bf2107ee7b8a8190d3a3439b1a" target="_top" xlink:title=" ">
<polygon fill="white" stroke="#666666" points="544,-319.13 397,-319.13 397,-289.13 544,-289.13 544,-319.13"/>
<text text-anchor="start" x="405" y="-307.13" font-family="Helvetica,sans-Serif" font-size="10.00">express::middleware</text>
<text text-anchor="middle" x="470.5" y="-296.13" font-family="Helvetica,sans-Serif" font-size="10.00">::JsonMiddleware::instance</text>
</a>
</g>
</g>
<!-- Node28&#45;&gt;Node29 -->
<g id="edge30_Node000028_Node000029" class="edge">
<title>Node28&#45;&gt;Node29</title>
<g id="a_edge30_Node000028_Node000029"><a xlink:title=" ">
<path fill="none" stroke="#63b8ff" d="M569.68,-304.13C561.1,-304.13 552.54,-304.13 544.25,-304.13"/>
<polygon fill="#63b8ff" stroke="#63b8ff" points="569.74,-307.63 579.74,-304.13 569.74,-300.63 569.74,-307.63"/>
</a>
</g>
</g>
<!-- Node30 -->
<g id="Node000030" class="node">
<title>Node30</title>
<g id="a_Node000030"><a xlink:href="classexpress_1_1middleware_1_1JsonMiddleware.html#a50b23edc44a7ae19b857efe7fbb3495f" target="_top" xlink:title=" ">
<polygon fill="white" stroke="#666666" points="361,-319.13 178,-319.13 178,-289.13 361,-289.13 361,-319.13"/>
<text text-anchor="start" x="186" y="-307.13" font-family="Helvetica,sans-Serif" font-size="10.00">express::middleware</text>
<text text-anchor="middle" x="269.5" y="-296.13" font-family="Helvetica,sans-Serif" font-size="10.00">::JsonMiddleware::JsonMiddleware</text>
</a>
</g>
</g>
<!-- Node29&#45;&gt;Node30 -->
<g id="edge31_Node000029_Node000030" class="edge">
<title>Node29&#45;&gt;Node30</title>
<g id="a_edge31_Node000029_Node000030"><a xlink:title=" ">
<path fill="none" stroke="#63b8ff" d="M386.68,-304.13C378.3,-304.13 369.76,-304.13 361.3,-304.13"/>
<polygon fill="#63b8ff" stroke="#63b8ff" points="386.81,-307.63 396.81,-304.13 386.81,-300.63 386.81,-307.63"/>
</a>
</g>
</g>
<!-- Node32 -->
<g id="Node000032" class="node">
<title>Node32</title>
<g id="a_Node000032"><a xlink:href="classexpress_1_1middleware_1_1VHost.html#aedfd77e91aabab72a4b6bf19c9047876" target="_top" xlink:title=" ">
<polygon fill="white" stroke="#666666" points="530,-271.13 411,-271.13 411,-241.13 530,-241.13 530,-271.13"/>
<text text-anchor="start" x="419" y="-259.13" font-family="Helvetica,sans-Serif" font-size="10.00">express::middleware</text>
<text text-anchor="middle" x="470.5" y="-248.13" font-family="Helvetica,sans-Serif" font-size="10.00">::VHost::instance</text>
</a>
</g>
</g>
<!-- Node31&#45;&gt;Node32 -->
<g id="edge34_Node000031_Node000032" class="edge">
<title>Node31&#45;&gt;Node32</title>
<g id="a_edge34_Node000031_Node000032"><a xlink:title=" ">
<path fill="none" stroke="#63b8ff" d="M601.69,-256.13C578.35,-256.13 552.52,-256.13 530.05,-256.13"/>
<polygon fill="#63b8ff" stroke="#63b8ff" points="601.87,-259.63 611.87,-256.13 601.87,-252.63 601.87,-259.63"/>
</a>
</g>
</g>
<!-- Node33 -->
<g id="Node000033" class="node">
<title>Node33</title>
<g id="a_Node000033"><a xlink:href="classexpress_1_1middleware_1_1VHost.html#a0c0c8ae51cc23dc35d0444d98dfd41a8" target="_top" xlink:title=" ">
<polygon fill="white" stroke="#666666" points="329,-271.13 210,-271.13 210,-241.13 329,-241.13 329,-271.13"/>
<text text-anchor="start" x="218" y="-259.13" font-family="Helvetica,sans-Serif" font-size="10.00">express::middleware</text>
<text text-anchor="middle" x="269.5" y="-248.13" font-family="Helvetica,sans-Serif" font-size="10.00">::VHost::VHost</text>
</a>
</g>
</g>
<!-- Node32&#45;&gt;Node33 -->
<g id="edge35_Node000032_Node000033" class="edge">
<title>Node32&#45;&gt;Node33</title>
<g id="a_edge35_Node000032_Node000033"><a xlink:title=" ">
<path fill="none" stroke="#63b8ff" d="M400.69,-256.13C377.35,-256.13 351.52,-256.13 329.05,-256.13"/>
<polygon fill="#63b8ff" stroke="#63b8ff" points="400.87,-259.63 410.87,-256.13 400.87,-252.63 400.87,-259.63"/>
</a>
</g>
</g>
<!-- Node35&#45;&gt;Node14 -->
<g id="edge39_Node000035_Node000014" class="edge">
<title>Node35&#45;&gt;Node14</title>
<g id="a_edge39_Node000035_Node000014"><a xlink:title=" ">
<path fill="none" stroke="#63b8ff" d="M1121.73,-226.72C1110.63,-229.39 1099.03,-231.72 1088,-233.13 960.27,-249.52 811.47,-211.59 731.16,-186.36"/>
<polygon fill="#63b8ff" stroke="#63b8ff" points="1122.91,-230.03 1131.75,-224.19 1121.2,-223.24 1122.91,-230.03"/>
</a>
</g>
</g>
<!-- Node36 -->
<g id="Node000036" class="node">
<title>Node36</title>
<g id="a_Node000036"><a xlink:href="classexpress_1_1Response.html#a342af4dc0b35ca124c9980be2cdc2b11" target="_top" xlink:title=" ">
<polygon fill="white" stroke="#666666" points="1088,-224.13 974,-224.13 974,-194.13 1088,-194.13 1088,-224.13"/>
<text text-anchor="start" x="982" y="-212.13" font-family="Helvetica,sans-Serif" font-size="10.00">express::Response::</text>
<text text-anchor="middle" x="1031" y="-201.13" font-family="Helvetica,sans-Serif" font-size="10.00">redirect</text>
</a>
</g>
</g>
<!-- Node35&#45;&gt;Node36 -->
<g id="edge38_Node000035_Node000036" class="edge">
<title>Node35&#45;&gt;Node36</title>
<g id="a_edge38_Node000035_Node000036"><a xlink:title=" ">
<path fill="none" stroke="#63b8ff" d="M1113.44,-209.13C1105.02,-209.13 1096.46,-209.13 1088.22,-209.13"/>
<polygon fill="#63b8ff" stroke="#63b8ff" points="1113.63,-212.63 1123.63,-209.13 1113.63,-205.63 1113.63,-212.63"/>
</a>
</g>
</g>
<!-- Node37&#45;&gt;Node6 -->
<g id="edge42_Node000037_Node000006" class="edge">
<title>Node37&#45;&gt;Node6</title>
<g id="a_edge42_Node000037_Node000006"><a xlink:title=" ">
<path fill="none" stroke="#63b8ff" d="M1744.59,-44.26C1808.18,-45.16 1896.09,-46.41 1954.89,-47.24"/>
<polygon fill="#63b8ff" stroke="#63b8ff" points="1744.25,-40.76 1734.21,-44.11 1744.15,-47.76 1744.25,-40.76"/>
</a>
</g>
</g>
</g>
</svg>
