<?xml version="1.0" encoding="UTF-8" standalone="no"?>
<!DOCTYPE svg PUBLIC "-//W3C//DTD SVG 1.1//EN"
 "http://www.w3.org/Graphics/SVG/1.1/DTD/svg11.dtd">
<!-- Generated by graphviz version 2.43.0 (0)
 -->
<!-- Title: iot::mqtt_fast::SocketContext::sendUnsuback Pages: 1 -->
<svg width="897pt" height="230pt"
 viewBox="0.00 0.00 897.00 230.00" xmlns="http://www.w3.org/2000/svg" xmlns:xlink="http://www.w3.org/1999/xlink">
<g id="graph0" class="graph" transform="scale(1 1) rotate(0) translate(4 226)">
<title>iot::mqtt_fast::SocketContext::sendUnsuback</title>
<!-- Node1 -->
<g id="Node000001" class="node">
<title>Node1</title>
<g id="a_Node000001"><a xlink:title=" ">
<polygon fill="#999999" stroke="#666666" points="146,-102 0,-102 0,-72 146,-72 146,-102"/>
<text text-anchor="start" x="8" y="-90" font-family="Helvetica,sans-Serif" font-size="10.00">iot::mqtt_fast::SocketContext</text>
<text text-anchor="middle" x="73" y="-79" font-family="Helvetica,sans-Serif" font-size="10.00">::sendUnsuback</text>
</a>
</g>
</g>
<!-- Node2 -->
<g id="Node000002" class="node">
<title>Node2</title>
<g id="a_Node000002"><a xlink:href="classiot_1_1mqtt__fast_1_1SocketContext.html#ad63e12c3b927b3b462b32398fe5f67d9" target="_top" xlink:title=" ">
<polygon fill="white" stroke="#666666" points="328,-126 182,-126 182,-96 328,-96 328,-126"/>
<text text-anchor="start" x="190" y="-114" font-family="Helvetica,sans-Serif" font-size="10.00">iot::mqtt_fast::SocketContext</text>
<text text-anchor="middle" x="255" y="-103" font-family="Helvetica,sans-Serif" font-size="10.00">::send</text>
</a>
</g>
</g>
<!-- Node1&#45;&gt;Node2 -->
<g id="edge1_Node000001_Node000002" class="edge">
<title>Node1&#45;&gt;Node2</title>
<g id="a_edge1_Node000001_Node000002"><a xlink:title=" ">
<path fill="none" stroke="#63b8ff" d="M146.18,-96.62C154.61,-97.75 163.27,-98.9 171.82,-100.04"/>
<polygon fill="#63b8ff" stroke="#63b8ff" points="171.43,-103.52 181.81,-101.37 172.36,-96.58 171.43,-103.52"/>
</a>
</g>
</g>
<!-- Node10 -->
<g id="Node000010" class="node">
<title>Node10</title>
<g id="a_Node000010"><a xlink:href="classiot_1_1mqtt__fast_1_1packets_1_1Unsuback.html#a0eda116906009266e61e676ed9d8e33f" target="_top" xlink:title=" ">
<polygon fill="white" stroke="#666666" points="313.5,-78 196.5,-78 196.5,-48 313.5,-48 313.5,-78"/>
<text text-anchor="start" x="204.5" y="-66" font-family="Helvetica,sans-Serif" font-size="10.00">iot::mqtt_fast::packets</text>
<text text-anchor="middle" x="255" y="-55" font-family="Helvetica,sans-Serif" font-size="10.00">::Unsuback::Unsuback</text>
</a>
</g>
</g>
<!-- Node1&#45;&gt;Node10 -->
<g id="edge9_Node000001_Node000010" class="edge">
<title>Node1&#45;&gt;Node10</title>
<g id="a_edge9_Node000001_Node000010"><a xlink:title=" ">
<path fill="none" stroke="#63b8ff" d="M146.18,-77.38C159.5,-75.6 173.37,-73.75 186.56,-71.99"/>
<polygon fill="#63b8ff" stroke="#63b8ff" points="187.03,-75.46 196.48,-70.67 186.11,-68.52 187.03,-75.46"/>
</a>
</g>
</g>
<!-- Node3 -->
<g id="Node000003" class="node">
<title>Node3</title>
<g id="a_Node000003"><a xlink:href="classiot_1_1mqtt__fast_1_1ControlPacket.html#a0ecf57322b57d796e14f30a925f4bb0d" target="_top" xlink:title=" ">
<polygon fill="white" stroke="#666666" points="508.5,-174 365.5,-174 365.5,-144 508.5,-144 508.5,-174"/>
<text text-anchor="start" x="373.5" y="-162" font-family="Helvetica,sans-Serif" font-size="10.00">iot::mqtt_fast::ControlPacket</text>
<text text-anchor="middle" x="437" y="-151" font-family="Helvetica,sans-Serif" font-size="10.00">::getPacket</text>
</a>
</g>
</g>
<!-- Node2&#45;&gt;Node3 -->
<g id="edge2_Node000002_Node000003" class="edge">
<title>Node2&#45;&gt;Node3</title>
<g id="a_edge2_Node000002_Node000003"><a xlink:title=" ">
<path fill="none" stroke="#63b8ff" d="M312.46,-126.06C330.72,-130.93 351.13,-136.37 370.02,-141.41"/>
<polygon fill="#63b8ff" stroke="#63b8ff" points="369.18,-144.8 379.74,-144 370.98,-138.04 369.18,-144.8"/>
</a>
</g>
</g>
<!-- Node6 -->
<g id="Node000006" class="node">
<title>Node6</title>
<g id="a_Node000006"><a xlink:href="classiot_1_1mqtt__fast_1_1SocketContext.html#a88df3b676d4d68b669e289b8f66f2bbd" target="_top" xlink:title=" ">
<polygon fill="white" stroke="#666666" points="510,-126 364,-126 364,-96 510,-96 510,-126"/>
<text text-anchor="start" x="372" y="-114" font-family="Helvetica,sans-Serif" font-size="10.00">iot::mqtt_fast::SocketContext</text>
<text text-anchor="middle" x="437" y="-103" font-family="Helvetica,sans-Serif" font-size="10.00">::send</text>
</a>
</g>
</g>
<!-- Node2&#45;&gt;Node6 -->
<g id="edge5_Node000002_Node000006" class="edge">
<title>Node2&#45;&gt;Node6</title>
<g id="a_edge5_Node000002_Node000006"><a xlink:title=" ">
<path fill="none" stroke="#63b8ff" d="M328.18,-111C336.52,-111 345.08,-111 353.54,-111"/>
<polygon fill="#63b8ff" stroke="#63b8ff" points="353.81,-114.5 363.81,-111 353.81,-107.5 353.81,-114.5"/>
</a>
</g>
</g>
<!-- Node4 -->
<g id="Node000004" class="node">
<title>Node4</title>
<g id="a_Node000004"><a xlink:href="classiot_1_1mqtt__fast_1_1types_1_1Binary.html#ae6e3d4c99926d8ce815eb4738fe8f230" target="_top" xlink:title=" ">
<polygon fill="white" stroke="#666666" points="671,-222 567,-222 567,-192 671,-192 671,-222"/>
<text text-anchor="start" x="575" y="-210" font-family="Helvetica,sans-Serif" font-size="10.00">iot::mqtt_fast::types</text>
<text text-anchor="middle" x="619" y="-199" font-family="Helvetica,sans-Serif" font-size="10.00">::Binary::getLength</text>
</a>
</g>
</g>
<!-- Node3&#45;&gt;Node4 -->
<g id="edge3_Node000003_Node000004" class="edge">
<title>Node3&#45;&gt;Node4</title>
<g id="a_edge3_Node000003_Node000004"><a xlink:title=" ">
<path fill="none" stroke="#63b8ff" d="M494.46,-174.06C514.39,-179.37 536.89,-185.37 557.17,-190.78"/>
<polygon fill="#63b8ff" stroke="#63b8ff" points="556.37,-194.19 566.93,-193.38 558.17,-187.42 556.37,-194.19"/>
</a>
</g>
</g>
<!-- Node5 -->
<g id="Node000005" class="node">
<title>Node5</title>
<g id="a_Node000005"><a xlink:href="classiot_1_1mqtt__fast_1_1types_1_1Binary.html#ac7bf7f96ddc87f7cf79eda642cacbfa3" target="_top" xlink:title=" ">
<polygon fill="white" stroke="#666666" points="671,-174 567,-174 567,-144 671,-144 671,-174"/>
<text text-anchor="start" x="575" y="-162" font-family="Helvetica,sans-Serif" font-size="10.00">iot::mqtt_fast::types</text>
<text text-anchor="middle" x="619" y="-151" font-family="Helvetica,sans-Serif" font-size="10.00">::Binary::getValue</text>
</a>
</g>
</g>
<!-- Node3&#45;&gt;Node5 -->
<g id="edge4_Node000003_Node000005" class="edge">
<title>Node3&#45;&gt;Node5</title>
<g id="a_edge4_Node000003_Node000005"><a xlink:title=" ">
<path fill="none" stroke="#63b8ff" d="M508.62,-159C524.39,-159 540.99,-159 556.36,-159"/>
<polygon fill="#63b8ff" stroke="#63b8ff" points="556.77,-162.5 566.77,-159 556.77,-155.5 556.77,-162.5"/>
</a>
</g>
</g>
<!-- Node7 -->
<g id="Node000007" class="node">
<title>Node7</title>
<g id="a_Node000007"><a xlink:href="classiot_1_1mqtt__fast_1_1SocketContext.html#a8a3c3017e10d7667ac8288153fc07294" target="_top" xlink:title=" ">
<polygon fill="white" stroke="#666666" points="692,-126 546,-126 546,-96 692,-96 692,-126"/>
<text text-anchor="start" x="554" y="-114" font-family="Helvetica,sans-Serif" font-size="10.00">iot::mqtt_fast::SocketContext</text>
<text text-anchor="middle" x="619" y="-103" font-family="Helvetica,sans-Serif" font-size="10.00">::printData</text>
</a>
</g>
</g>
<!-- Node6&#45;&gt;Node7 -->
<g id="edge6_Node000006_Node000007" class="edge">
<title>Node6&#45;&gt;Node7</title>
<g id="a_edge6_Node000006_Node000007"><a xlink:title=" ">
<path fill="none" stroke="#63b8ff" d="M510.18,-111C518.52,-111 527.08,-111 535.54,-111"/>
<polygon fill="#63b8ff" stroke="#63b8ff" points="535.81,-114.5 545.81,-111 535.81,-107.5 535.81,-114.5"/>
</a>
</g>
</g>
<!-- Node8 -->
<g id="Node000008" class="node">
<title>Node8</title>
<g id="a_Node000008"><a xlink:href="classcore_1_1socket_1_1stream_1_1SocketContext.html#a7e80affcdada3ef5f1c52c283d65a89c" target="_top" xlink:title=" ">
<polygon fill="white" stroke="#666666" points="692,-78 546,-78 546,-48 692,-48 692,-78"/>
<text text-anchor="start" x="554" y="-66" font-family="Helvetica,sans-Serif" font-size="10.00">core::socket::stream</text>
<text text-anchor="middle" x="619" y="-55" font-family="Helvetica,sans-Serif" font-size="10.00">::SocketContext::sendToPeer</text>
</a>
</g>
</g>
<!-- Node6&#45;&gt;Node8 -->
<g id="edge7_Node000006_Node000008" class="edge">
<title>Node6&#45;&gt;Node8</title>
<g id="a_edge7_Node000006_Node000008"><a xlink:title=" ">
<path fill="none" stroke="#63b8ff" d="M494.46,-95.94C512.72,-91.07 533.13,-85.63 552.02,-80.59"/>
<polygon fill="#63b8ff" stroke="#63b8ff" points="552.98,-83.96 561.74,-78 551.18,-77.2 552.98,-83.96"/>
</a>
</g>
</g>
<!-- Node9 -->
<g id="Node000009" class="node">
<title>Node9</title>
<g id="a_Node000009"><a xlink:href="classcore_1_1socket_1_1stream_1_1SocketConnection.html#a0e8eedcbfe5dc63e1c1682b5beaf90da" target="_top" xlink:title=" ">
<polygon fill="white" stroke="#666666" points="889,-78 728,-78 728,-48 889,-48 889,-78"/>
<text text-anchor="start" x="736" y="-66" font-family="Helvetica,sans-Serif" font-size="10.00">core::socket::stream</text>
<text text-anchor="middle" x="808.5" y="-55" font-family="Helvetica,sans-Serif" font-size="10.00">::SocketConnection::sendToPeer</text>
</a>
</g>
</g>
<!-- Node8&#45;&gt;Node9 -->
<g id="edge8_Node000008_Node000009" class="edge">
<title>Node8&#45;&gt;Node9</title>
<g id="a_edge8_Node000008_Node000009"><a xlink:title=" ">
<path fill="none" stroke="#63b8ff" d="M692.22,-63C700.6,-63 709.22,-63 717.8,-63"/>
<polygon fill="#63b8ff" stroke="#63b8ff" points="717.83,-66.5 727.83,-63 717.83,-59.5 717.83,-66.5"/>
</a>
</g>
</g>
<!-- Node11 -->
<g id="Node000011" class="node">
<title>Node11</title>
<g id="a_Node000011"><a xlink:href="classiot_1_1mqtt__fast_1_1ControlPacket.html#a88eb4b316f38e466d7a6c90ce24153ff" target="_top" xlink:title=" ">
<polygon fill="white" stroke="#666666" points="508.5,-78 365.5,-78 365.5,-48 508.5,-48 508.5,-78"/>
<text text-anchor="start" x="373.5" y="-66" font-family="Helvetica,sans-Serif" font-size="10.00">iot::mqtt_fast::ControlPacket</text>
<text text-anchor="middle" x="437" y="-55" font-family="Helvetica,sans-Serif" font-size="10.00">::ControlPacket</text>
</a>
</g>
</g>
<!-- Node10&#45;&gt;Node11 -->
<g id="edge10_Node000010_Node000011" class="edge">
<title>Node10&#45;&gt;Node11</title>
<g id="a_edge10_Node000010_Node000011"><a xlink:title=" ">
<path fill="none" stroke="#63b8ff" d="M313.94,-63C327.09,-63 341.29,-63 355.2,-63"/>
<polygon fill="#63b8ff" stroke="#63b8ff" points="355.25,-66.5 365.25,-63 355.25,-59.5 355.25,-66.5"/>
</a>
</g>
</g>
<!-- Node12 -->
<g id="Node000012" class="node">
<title>Node12</title>
<g id="a_Node000012"><a xlink:href="classiot_1_1mqtt__fast_1_1ControlPacket.html#a68489018481e5e672b28b242cb9c71f8" target="_top" xlink:title=" ">
<polygon fill="white" stroke="#666666" points="508.5,-30 365.5,-30 365.5,0 508.5,0 508.5,-30"/>
<text text-anchor="start" x="373.5" y="-18" font-family="Helvetica,sans-Serif" font-size="10.00">iot::mqtt_fast::ControlPacket</text>
<text text-anchor="middle" x="437" y="-7" font-family="Helvetica,sans-Serif" font-size="10.00">::putInt16</text>
</a>
</g>
</g>
<!-- Node10&#45;&gt;Node12 -->
<g id="edge11_Node000010_Node000012" class="edge">
<title>Node10&#45;&gt;Node12</title>
<g id="a_edge11_Node000010_Node000012"><a xlink:title=" ">
<path fill="none" stroke="#63b8ff" d="M312.46,-47.94C330.72,-43.07 351.13,-37.63 370.02,-32.59"/>
<polygon fill="#63b8ff" stroke="#63b8ff" points="370.98,-35.96 379.74,-30 369.18,-29.2 370.98,-35.96"/>
</a>
</g>
</g>
<!-- Node13 -->
<g id="Node000013" class="node">
<title>Node13</title>
<g id="a_Node000013"><a xlink:href="classiot_1_1mqtt__fast_1_1types_1_1Binary.html#af8e71e490efa99c2387deab66fb6ad86" target="_top" xlink:title=" ">
<polygon fill="white" stroke="#666666" points="671,-30 567,-30 567,0 671,0 671,-30"/>
<text text-anchor="start" x="575" y="-18" font-family="Helvetica,sans-Serif" font-size="10.00">iot::mqtt_fast::types</text>
<text text-anchor="middle" x="619" y="-7" font-family="Helvetica,sans-Serif" font-size="10.00">::Binary::putInt16</text>
</a>
</g>
</g>
<!-- Node12&#45;&gt;Node13 -->
<g id="edge12_Node000012_Node000013" class="edge">
<title>Node12&#45;&gt;Node13</title>
<g id="a_edge12_Node000012_Node000013"><a xlink:title=" ">
<path fill="none" stroke="#63b8ff" d="M508.62,-15C524.39,-15 540.99,-15 556.36,-15"/>
<polygon fill="#63b8ff" stroke="#63b8ff" points="556.77,-18.5 566.77,-15 556.77,-11.5 556.77,-18.5"/>
</a>
</g>
</g>
</g>
</svg>
