<?xml version="1.0" encoding="UTF-8" standalone="no"?>
<!DOCTYPE svg PUBLIC "-//W3C//DTD SVG 1.1//EN"
 "http://www.w3.org/Graphics/SVG/1.1/DTD/svg11.dtd">
<!-- Generated by graphviz version 14.1.1 (0)
 -->
<!-- Title: web::http::client::SocketContextFactory::create Pages: 1 -->
<!--zoomable 217 -->

<svg id="main" version="1.1" xmlns="http://www.w3.org/2000/svg" xmlns:xlink="http://www.w3.org/1999/xlink" xml:space="preserve" onload="init(evt)">

<style type="text/css"><![CDATA[
.node, .edge {opacity: 0.7;}
.node.selected, .edge.selected {opacity: 1;}
.edge:hover path { stroke: red; }
.edge:hover polygon { stroke: red; fill: red; }
]]></style>

<defs>
  <circle id="rim" cx="0" cy="0" r="7"/>
  <circle id="rim2" cx="0" cy="0" r="3.5"/>
  <g id="zoomPlus">
    <use xlink:href="#rim" fill="#404040"><set attributeName="fill" to="#808080" begin="zoomplus.mouseover" end="zoomplus.mouseout"/></use>
    <path d="M-4,0h8M0,-4v8" fill="none" stroke="white" stroke-width="1.5" pointer-events="none"/>
  </g>
  <g id="zoomMin">
    <use xlink:href="#rim" fill="#404040"><set attributeName="fill" to="#808080" begin="zoomminus.mouseover" end="zoomminus.mouseout"/></use>
    <path d="M-4,0h8" fill="none" stroke="white" stroke-width="1.5" pointer-events="none"/>
  </g>
  <g id="arrowUp" transform="translate(30 24)">
    <use xlink:href="#rim"/>
    <path pointer-events="none" fill="none" stroke="white" stroke-width="1.5" d="M0,-3.0v7 M-2.5,-0.5L0,-3.0L2.5,-0.5"/>
  </g>
  <g id="arrowRight" transform="rotate(90) translate(36 -43)">
    <use xlink:href="#rim"/>
    <path pointer-events="none" fill="none" stroke="white" stroke-width="1.5" d="M0,-3.0v7 M-2.5,-0.5L0,-3.0L2.5,-0.5"/>
  </g>
  <g id="arrowDown" transform="rotate(180) translate(-30 -48)">
    <use xlink:href="#rim"/>
    <path pointer-events="none" fill="none" stroke="white" stroke-width="1.5" d="M0,-3.0v7 M-2.5,-0.5L0,-3.0L2.5,-0.5"/>
  </g>
  <g id="arrowLeft" transform="rotate(270) translate(-36 17)">
    <use xlink:href="#rim"/>
    <path pointer-events="none" fill="none" stroke="white" stroke-width="1.5" d="M0,-3.0v7 M-2.5,-0.5L0,-3.0L2.5,-0.5"/>
  </g>
  <g id="resetDef">
    <use xlink:href="#rim2" fill="#404040"><set attributeName="fill" to="#808080" begin="reset.mouseover" end="reset.mouseout"/></use>
  </g>
</defs>
<script type="application/ecmascript">
var viewWidth = 1014;
var viewHeight = 217;
var sectionId = 'dynsection-3';
</script>
<script type="application/ecmascript" xlink:href="svg.min.js"/>
<svg id="graph" class="graph">
<g id="viewport">
<title>web::http::client::SocketContextFactory::create</title>
<!-- Node1 -->
<g id="Node000001" class="node">
<title>Node1</title>
<g id="a_Node000001"><a xlink:title=" ">
<polygon fill="#999999" stroke="#666666" points="122.5,-163.25 0,-163.25 0,-117 122.5,-117 122.5,-163.25"/>
<text xml:space="preserve" text-anchor="start" x="8" y="-149.75" font-family="Helvetica,sans-Serif" font-size="10.00">web::http::client::</text>
<text xml:space="preserve" text-anchor="start" x="8" y="-137" font-family="Helvetica,sans-Serif" font-size="10.00">SocketContextFactory</text>
<text xml:space="preserve" text-anchor="middle" x="61.25" y="-124.25" font-family="Helvetica,sans-Serif" font-size="10.00">::create</text>
</a>
</g>
</g>
<!-- Node2 -->
<g id="Node000002" class="node">
<title>Node2</title>
<g id="a_Node000002"><a xlink:href="classweb_1_1http_1_1client_1_1ConfigHTTP.html#af9a6429a5ca752f937d42db2263c97ce" target="_top" xlink:title=" ">
<polygon fill="white" stroke="#666666" points="327.12,-208.88 174.62,-208.88 174.62,-175.38 327.12,-175.38 327.12,-208.88"/>
<text xml:space="preserve" text-anchor="start" x="182.62" y="-195.38" font-family="Helvetica,sans-Serif" font-size="10.00">web::http::client::</text>
<text xml:space="preserve" text-anchor="middle" x="250.88" y="-182.62" font-family="Helvetica,sans-Serif" font-size="10.00">ConfigHTTP::getHostHeader</text>
</a>
</g>
</g>
<!-- Node1&#45;&gt;Node2 -->
<g id="edge1_Node000001_Node000002" class="edge">
<title>Node1&#45;&gt;Node2</title>
<g id="a_edge1_Node000001_Node000002"><a xlink:title=" ">
<path fill="none" stroke="#63b8ff" d="M122.91,-156.94C140.11,-161.7 159.02,-166.94 176.86,-171.89"/>
<polygon fill="#63b8ff" stroke="#63b8ff" points="175.79,-175.22 186.36,-174.52 177.66,-168.48 175.79,-175.22"/>
</a>
</g>
</g>
<!-- Node3 -->
<g id="Node000003" class="node">
<title>Node3</title>
<g id="a_Node000003"><a xlink:href="classweb_1_1http_1_1client_1_1ConfigHTTP.html#af20fab3b89022df7b44b933b7a0542e0" target="_top" xlink:title=" ">
<polygon fill="white" stroke="#666666" points="343.25,-156.88 158.5,-156.88 158.5,-123.38 343.25,-123.38 343.25,-156.88"/>
<text xml:space="preserve" text-anchor="start" x="166.5" y="-143.38" font-family="Helvetica,sans-Serif" font-size="10.00">web::http::client::</text>
<text xml:space="preserve" text-anchor="middle" x="250.88" y="-130.62" font-family="Helvetica,sans-Serif" font-size="10.00">ConfigHTTP::getPipelinedRequests</text>
</a>
</g>
</g>
<!-- Node1&#45;&gt;Node3 -->
<g id="edge2_Node000001_Node000003" class="edge">
<title>Node1&#45;&gt;Node3</title>
<g id="a_edge2_Node000001_Node000003"><a xlink:title=" ">
<path fill="none" stroke="#63b8ff" d="M122.91,-140.12C130.55,-140.12 138.53,-140.12 146.6,-140.12"/>
<polygon fill="#63b8ff" stroke="#63b8ff" points="146.53,-143.63 156.53,-140.13 146.53,-136.63 146.53,-143.63"/>
</a>
</g>
</g>
<!-- Node4 -->
<g id="Node000004" class="node">
<title>Node4</title>
<g id="a_Node000004"><a xlink:href="classweb_1_1http_1_1client_1_1SocketContext.html#a5310a628e8f9ea92b133c6bd4a0ed50a" target="_top" xlink:title=" ">
<polygon fill="white" stroke="#666666" points="332.38,-104.88 169.38,-104.88 169.38,-71.38 332.38,-71.38 332.38,-104.88"/>
<text xml:space="preserve" text-anchor="start" x="177.38" y="-91.38" font-family="Helvetica,sans-Serif" font-size="10.00">web::http::client::</text>
<text xml:space="preserve" text-anchor="middle" x="250.88" y="-78.62" font-family="Helvetica,sans-Serif" font-size="10.00">SocketContext::SocketContext</text>
</a>
</g>
</g>
<!-- Node1&#45;&gt;Node4 -->
<g id="edge3_Node000001_Node000004" class="edge">
<title>Node1&#45;&gt;Node4</title>
<g id="a_edge3_Node000001_Node000004"><a xlink:title=" ">
<path fill="none" stroke="#63b8ff" d="M122.91,-123.31C140.11,-118.55 159.02,-113.31 176.86,-108.36"/>
<polygon fill="#63b8ff" stroke="#63b8ff" points="177.66,-111.77 186.36,-105.73 175.79,-105.03 177.66,-111.77"/>
</a>
</g>
</g>
<!-- Node5 -->
<g id="Node000005" class="node">
<title>Node5</title>
<g id="a_Node000005"><a xlink:href="classweb_1_1http_1_1client_1_1ResponseParser.html#a5459691b64e97e8b30fc20964c85e9fb" target="_top" xlink:title=" ">
<polygon fill="white" stroke="#666666" points="557.25,-182.88 379.25,-182.88 379.25,-149.38 557.25,-149.38 557.25,-182.88"/>
<text xml:space="preserve" text-anchor="start" x="387.25" y="-169.38" font-family="Helvetica,sans-Serif" font-size="10.00">web::http::client::</text>
<text xml:space="preserve" text-anchor="middle" x="468.25" y="-156.62" font-family="Helvetica,sans-Serif" font-size="10.00">ResponseParser::ResponseParser</text>
</a>
</g>
</g>
<!-- Node4&#45;&gt;Node5 -->
<g id="edge4_Node000004_Node000005" class="edge">
<title>Node4&#45;&gt;Node5</title>
<g id="a_edge4_Node000004_Node000005"><a xlink:title=" ">
<path fill="none" stroke="#63b8ff" d="M316.09,-105.34C325.26,-108.11 334.53,-111.07 343.25,-114.12 368.64,-123.02 396.3,-134.45 419.04,-144.32"/>
<polygon fill="#63b8ff" stroke="#63b8ff" points="417.5,-147.47 428.06,-148.27 420.3,-141.06 417.5,-147.47"/>
</a>
</g>
</g>
<!-- Node8 -->
<g id="Node000008" class="node">
<title>Node8</title>
<g id="a_Node000008"><a xlink:href="classweb_1_1http_1_1client_1_1SocketContext.html#aab626f8549a72def02f8f48df50bb6ac" target="_top" xlink:title=" ">
<polygon fill="white" stroke="#666666" points="554.25,-104.88 382.25,-104.88 382.25,-71.38 554.25,-71.38 554.25,-104.88"/>
<text xml:space="preserve" text-anchor="start" x="390.25" y="-91.38" font-family="Helvetica,sans-Serif" font-size="10.00">web::http::client::</text>
<text xml:space="preserve" text-anchor="middle" x="468.25" y="-78.62" font-family="Helvetica,sans-Serif" font-size="10.00">SocketContext::responseStarted</text>
</a>
</g>
</g>
<!-- Node4&#45;&gt;Node8 -->
<g id="edge7_Node000004_Node000008" class="edge">
<title>Node4&#45;&gt;Node8</title>
<g id="a_edge7_Node000004_Node000008"><a xlink:title=" ">
<path fill="none" stroke="#63b8ff" d="M332.69,-88.12C345.15,-88.12 358.12,-88.12 370.89,-88.12"/>
<polygon fill="#63b8ff" stroke="#63b8ff" points="370.51,-91.63 380.51,-88.13 370.51,-84.63 370.51,-91.63"/>
</a>
</g>
</g>
<!-- Node13 -->
<g id="Node000013" class="node">
<title>Node13</title>
<g id="a_Node000013"><a xlink:href="classcore_1_1socket_1_1stream_1_1SocketContext.html#a2264c67933db0880ba40e5cd44ffa981" target="_top" xlink:title=" ">
<polygon fill="white" stroke="#666666" points="552.75,-52.88 383.75,-52.88 383.75,-19.38 552.75,-19.38 552.75,-52.88"/>
<text xml:space="preserve" text-anchor="start" x="391.75" y="-39.38" font-family="Helvetica,sans-Serif" font-size="10.00">core::socket::stream</text>
<text xml:space="preserve" text-anchor="middle" x="468.25" y="-26.62" font-family="Helvetica,sans-Serif" font-size="10.00">::SocketContext::SocketContext</text>
</a>
</g>
</g>
<!-- Node4&#45;&gt;Node13 -->
<g id="edge12_Node000004_Node000013" class="edge">
<title>Node4&#45;&gt;Node13</title>
<g id="a_edge12_Node000004_Node000013"><a xlink:title=" ">
<path fill="none" stroke="#63b8ff" d="M323.29,-70.88C343.03,-66.12 364.6,-60.91 384.9,-56.01"/>
<polygon fill="#63b8ff" stroke="#63b8ff" points="385.66,-59.43 394.55,-53.68 384.01,-52.62 385.66,-59.43"/>
</a>
</g>
</g>
<!-- Node6 -->
<g id="Node000006" class="node">
<title>Node6</title>
<g id="a_Node000006"><a xlink:href="classweb_1_1http_1_1Parser.html#a3dc56190c19a9bed38b3934c289f19e8" target="_top" xlink:title=" ">
<polygon fill="white" stroke="#666666" points="752.88,-195.88 648.38,-195.88 648.38,-162.38 752.88,-162.38 752.88,-195.88"/>
<text xml:space="preserve" text-anchor="start" x="656.38" y="-182.38" font-family="Helvetica,sans-Serif" font-size="10.00">web::http::Parser::</text>
<text xml:space="preserve" text-anchor="middle" x="700.62" y="-169.62" font-family="Helvetica,sans-Serif" font-size="10.00">Parser</text>
</a>
</g>
</g>
<!-- Node5&#45;&gt;Node6 -->
<g id="edge5_Node000005_Node000006" class="edge">
<title>Node5&#45;&gt;Node6</title>
<g id="a_edge5_Node000005_Node000006"><a xlink:title=" ">
<path fill="none" stroke="#63b8ff" d="M557.66,-171.11C584.06,-172.6 612.45,-174.21 636.84,-175.58"/>
<polygon fill="#63b8ff" stroke="#63b8ff" points="636.42,-179.06 646.6,-176.13 636.81,-172.07 636.42,-179.06"/>
</a>
</g>
</g>
<!-- Node7 -->
<g id="Node000007" class="node">
<title>Node7</title>
<g id="a_Node000007"><a xlink:href="classweb_1_1http_1_1decoder_1_1Fields.html#a412b17deed48ad91691dc442f5db1f1e" target="_top" xlink:title=" ">
<polygon fill="white" stroke="#666666" points="978.5,-195.88 871.75,-195.88 871.75,-162.38 978.5,-162.38 978.5,-195.88"/>
<text xml:space="preserve" text-anchor="start" x="879.75" y="-182.38" font-family="Helvetica,sans-Serif" font-size="10.00">web::http::decoder</text>
<text xml:space="preserve" text-anchor="middle" x="925.12" y="-169.62" font-family="Helvetica,sans-Serif" font-size="10.00">::Fields::Fields</text>
</a>
</g>
</g>
<!-- Node6&#45;&gt;Node7 -->
<g id="edge6_Node000006_Node000007" class="edge">
<title>Node6&#45;&gt;Node7</title>
<g id="a_edge6_Node000006_Node000007"><a xlink:title=" ">
<path fill="none" stroke="#63b8ff" d="M753.23,-179.12C785.06,-179.12 826.15,-179.12 860.05,-179.12"/>
<polygon fill="#63b8ff" stroke="#63b8ff" points="859.74,-182.63 869.74,-179.13 859.74,-175.63 859.74,-182.63"/>
</a>
</g>
</g>
<!-- Node9 -->
<g id="Node000009" class="node">
<title>Node9</title>
<g id="a_Node000009"><a xlink:href="classcore_1_1socket_1_1stream_1_1SocketConnection.html#a5e26cd617f07295e8579ddb9c41bdd2c" target="_top" xlink:title=" ">
<polygon fill="white" stroke="#666666" points="808,-143.88 593.25,-143.88 593.25,-110.38 808,-110.38 808,-143.88"/>
<text xml:space="preserve" text-anchor="start" x="601.25" y="-130.38" font-family="Helvetica,sans-Serif" font-size="10.00">core::socket::stream</text>
<text xml:space="preserve" text-anchor="middle" x="700.62" y="-117.62" font-family="Helvetica,sans-Serif" font-size="10.00">::SocketConnection::getConnectionName</text>
</a>
</g>
</g>
<!-- Node8&#45;&gt;Node9 -->
<g id="edge8_Node000008_Node000009" class="edge">
<title>Node8&#45;&gt;Node9</title>
<g id="a_edge8_Node000008_Node000009"><a xlink:title=" ">
<path fill="none" stroke="#63b8ff" d="M554.71,-102.59C565.16,-104.36 575.96,-106.19 586.74,-108.02"/>
<polygon fill="#63b8ff" stroke="#63b8ff" points="586.01,-111.44 596.46,-109.66 587.18,-104.54 586.01,-111.44"/>
</a>
</g>
</g>
<!-- Node10 -->
<g id="Node000010" class="node">
<title>Node10</title>
<g id="a_Node000010"><a xlink:href="classcore_1_1socket_1_1stream_1_1SocketContext.html#a02f0b93ac0ea376dabd6921c7589a8cf" target="_top" xlink:title=" ">
<polygon fill="white" stroke="#666666" points="801.25,-91.88 600,-91.88 600,-58.38 801.25,-58.38 801.25,-91.88"/>
<text xml:space="preserve" text-anchor="start" x="608" y="-78.38" font-family="Helvetica,sans-Serif" font-size="10.00">core::socket::stream</text>
<text xml:space="preserve" text-anchor="middle" x="700.62" y="-65.62" font-family="Helvetica,sans-Serif" font-size="10.00">::SocketContext::getSocketConnection</text>
</a>
</g>
</g>
<!-- Node8&#45;&gt;Node10 -->
<g id="edge9_Node000008_Node000010" class="edge">
<title>Node8&#45;&gt;Node10</title>
<g id="a_edge9_Node000008_Node000010"><a xlink:title=" ">
<path fill="none" stroke="#63b8ff" d="M554.71,-83.3C565.65,-82.68 576.99,-82.05 588.27,-81.41"/>
<polygon fill="#63b8ff" stroke="#63b8ff" points="588.22,-84.92 598.01,-80.86 587.83,-77.93 588.22,-84.92"/>
</a>
</g>
</g>
<!-- Node11 -->
<g id="Node000011" class="node">
<title>Node11</title>
<g id="a_Node000011"><a xlink:href="classcore_1_1socket_1_1stream_1_1SocketContext.html#a853d83e3e3cd8dfcce992ab688c0f63e" target="_top" xlink:title=" ">
<polygon fill="white" stroke="#666666" points="786.62,-39.88 614.62,-39.88 614.62,-6.38 786.62,-6.38 786.62,-39.88"/>
<text xml:space="preserve" text-anchor="start" x="622.62" y="-26.38" font-family="Helvetica,sans-Serif" font-size="10.00">core::socket::stream</text>
<text xml:space="preserve" text-anchor="middle" x="700.62" y="-13.62" font-family="Helvetica,sans-Serif" font-size="10.00">::SocketContext::shutdownWrite</text>
</a>
</g>
</g>
<!-- Node8&#45;&gt;Node11 -->
<g id="edge10_Node000008_Node000011" class="edge">
<title>Node8&#45;&gt;Node11</title>
<g id="a_edge10_Node000008_Node000011"><a xlink:title=" ">
<path fill="none" stroke="#63b8ff" d="M529.04,-70.98C538.51,-68.11 548.17,-65.1 557.25,-62.12 573.41,-56.82 576.96,-54.04 593.25,-49.12 599.94,-47.11 606.9,-45.13 613.92,-43.23"/>
<polygon fill="#63b8ff" stroke="#63b8ff" points="614.72,-46.64 623.49,-40.69 612.93,-39.87 614.72,-46.64"/>
</a>
</g>
</g>
<!-- Node12 -->
<g id="Node000012" class="node">
<title>Node12</title>
<g id="a_Node000012"><a xlink:href="classcore_1_1socket_1_1stream_1_1SocketConnection.html#ab4496d58a35b0fa62a01f8aa78869522" target="_top" xlink:title=" ">
<polygon fill="white" stroke="#666666" points="1006.25,-46.25 844,-46.25 844,0 1006.25,0 1006.25,-46.25"/>
<text xml:space="preserve" text-anchor="start" x="852" y="-32.75" font-family="Helvetica,sans-Serif" font-size="10.00">core::socket::stream</text>
<text xml:space="preserve" text-anchor="start" x="852" y="-20" font-family="Helvetica,sans-Serif" font-size="10.00">::SocketConnection::shutdown</text>
<text xml:space="preserve" text-anchor="middle" x="925.12" y="-7.25" font-family="Helvetica,sans-Serif" font-size="10.00">Write</text>
</a>
</g>
</g>
<!-- Node11&#45;&gt;Node12 -->
<g id="edge11_Node000011_Node000012" class="edge">
<title>Node11&#45;&gt;Node12</title>
<g id="a_edge11_Node000011_Node000012"><a xlink:title=" ">
<path fill="none" stroke="#63b8ff" d="M787.01,-23.12C801.86,-23.12 817.35,-23.12 832.36,-23.12"/>
<polygon fill="#63b8ff" stroke="#63b8ff" points="832.21,-26.63 842.21,-23.13 832.21,-19.63 832.21,-26.63"/>
</a>
</g>
</g>
</g>
</svg>

<g id="navigator" transform="translate(0 0)" fill="#404254">
  <rect fill="#f2f5e9" fill-opacity="0.5" stroke="#606060" stroke-width=".5" x="0" y="0" width="60" height="60"/>
  <use id="zoomplus" xlink:href="#zoomPlus" x="17" y="9" onmousedown="handleZoom(evt,'in')"/>
  <use id="zoomminus" xlink:href="#zoomMin" x="42" y="9" onmousedown="handleZoom(evt,'out')"/>
  <use id="reset" xlink:href="#resetDef" x="30" y="36" onmousedown="handleReset()"/>
   <use id="arrowup" xlink:href="#arrowUp" x="0" y="0" onmousedown="handlePan(0,-1)"/>
  <use id="arrowright" xlink:href="#arrowRight" x="0" y="0" onmousedown="handlePan(1,0)"/>
  <use id="arrowdown" xlink:href="#arrowDown" x="0" y="0" onmousedown="handlePan(0,1)"/>
  <use id="arrowleft" xlink:href="#arrowLeft" x="0" y="0" onmousedown="handlePan(-1,0)"/>
</g>
<svg viewBox="0 0 15 15" width="100%" height="30px" preserveAspectRatio="xMaxYMin meet">
 <g id="arrow_out" transform="scale(0.3 0.3)">
  <a xlink:href="classweb_1_1http_1_1client_1_1SocketContextFactory_ab25c8ca552723bb6a4ef11ac08ddb958_cgraph_org.svg" target="_base">
   <rect id="button" ry="5" rx="5" y="6" x="6" height="38" width="38"
        fill="#f2f5e9" fill-opacity="0.5" stroke="#606060" stroke-width="1.0"/>
   <path id="arrow"
     d="M 11.500037,31.436501 C 11.940474,20.09759 22.043105,11.32322 32.158766,21.979434 L 37.068811,17.246167 C 37.068811,17.246167 37.088388,32 37.088388,32 L 22.160133,31.978069 C 22.160133,31.978069 26.997745,27.140456 26.997745,27.140456 C 18.528582,18.264221 13.291696,25.230495 11.500037,31.436501 z"
     style="fill:#404040;"/>
  </a>
 </g>
</svg>

<style type='text/css'>
<![CDATA[
[data-mouse-over-selected='false'] { opacity: 0.7; }
[data-mouse-over-selected='true']  { opacity: 1.0; }
]]>
</style>
<script type="application/ecmascript"><![CDATA[
document.addEventListener('DOMContentLoaded', (event) => {
  highlightEdges();
  highlightAdjacentNodes();
});
]]></script>
</svg>
