<?xml version="1.0" encoding="UTF-8" standalone="no"?>
<!DOCTYPE svg PUBLIC "-//W3C//DTD SVG 1.1//EN"
 "http://www.w3.org/Graphics/SVG/1.1/DTD/svg11.dtd">
<!-- Generated by graphviz version 2.43.0 (0)
 -->
<!-- Title: iot::mqtt::Session::Session Pages: 1 -->
<svg width="716pt" height="172pt"
 viewBox="0.00 0.00 716.00 172.00" xmlns="http://www.w3.org/2000/svg" xmlns:xlink="http://www.w3.org/1999/xlink">
<g id="graph0" class="graph" transform="scale(1 1) rotate(0) translate(4 168)">
<title>iot::mqtt::Session::Session</title>
<!-- Node1 -->
<g id="Node000001" class="node">
<title>Node1</title>
<g id="a_Node000001"><a xlink:title=" ">
<polygon fill="#999999" stroke="#666666" points="102,-99 0,-99 0,-69 102,-69 102,-99"/>
<text text-anchor="start" x="8" y="-87" font-family="Helvetica,sans-Serif" font-size="10.00">iot::mqtt::Session</text>
<text text-anchor="middle" x="51" y="-76" font-family="Helvetica,sans-Serif" font-size="10.00">::Session</text>
</a>
</g>
</g>
<!-- Node2 -->
<g id="Node000002" class="node">
<title>Node2</title>
<g id="a_Node000002"><a xlink:href="classiot_1_1mqtt_1_1Session.html#af06528da9b6c2681db92be904587d1ef" target="_top" xlink:title=" ">
<polygon fill="white" stroke="#666666" points="240,-99 138,-99 138,-69 240,-69 240,-99"/>
<text text-anchor="start" x="146" y="-87" font-family="Helvetica,sans-Serif" font-size="10.00">iot::mqtt::Session</text>
<text text-anchor="middle" x="189" y="-76" font-family="Helvetica,sans-Serif" font-size="10.00">::fromJson</text>
</a>
</g>
</g>
<!-- Node1&#45;&gt;Node2 -->
<g id="edge1_Node000001_Node000002" class="edge">
<title>Node1&#45;&gt;Node2</title>
<g id="a_edge1_Node000001_Node000002"><a xlink:title=" ">
<path fill="none" stroke="#63b8ff" d="M102.25,-84C110.54,-84 119.2,-84 127.7,-84"/>
<polygon fill="#63b8ff" stroke="#63b8ff" points="127.95,-87.5 137.95,-84 127.95,-80.5 127.95,-87.5"/>
</a>
</g>
</g>
<!-- Node3 -->
<g id="Node000003" class="node">
<title>Node3</title>
<g id="a_Node000003"><a xlink:href="classiot_1_1mqtt_1_1packets_1_1Publish.html#a6f44eef1471a1160e21f602bd93f417d" target="_top" xlink:title=" ">
<polygon fill="white" stroke="#666666" points="378,-99 276,-99 276,-69 378,-69 378,-99"/>
<text text-anchor="start" x="284" y="-87" font-family="Helvetica,sans-Serif" font-size="10.00">iot::mqtt::packets</text>
<text text-anchor="middle" x="327" y="-76" font-family="Helvetica,sans-Serif" font-size="10.00">::Publish::Publish</text>
</a>
</g>
</g>
<!-- Node2&#45;&gt;Node3 -->
<g id="edge2_Node000002_Node000003" class="edge">
<title>Node2&#45;&gt;Node3</title>
<g id="a_edge2_Node000002_Node000003"><a xlink:title=" ">
<path fill="none" stroke="#63b8ff" d="M240.25,-84C248.54,-84 257.2,-84 265.7,-84"/>
<polygon fill="#63b8ff" stroke="#63b8ff" points="265.95,-87.5 275.95,-84 265.95,-80.5 265.95,-87.5"/>
</a>
</g>
</g>
<!-- Node4 -->
<g id="Node000004" class="node">
<title>Node4</title>
<g id="a_Node000004"><a xlink:href="classiot_1_1mqtt_1_1types_1_1String.html#ae05dc8e9dcf43e69cd29794b37495b13" target="_top" xlink:title=" ">
<polygon fill="white" stroke="#666666" points="540,-164 414,-164 414,-134 540,-134 540,-164"/>
<text text-anchor="start" x="422" y="-152" font-family="Helvetica,sans-Serif" font-size="10.00">iot::mqtt::types::String</text>
<text text-anchor="middle" x="477" y="-141" font-family="Helvetica,sans-Serif" font-size="10.00">::operator=</text>
</a>
</g>
</g>
<!-- Node3&#45;&gt;Node4 -->
<g id="edge3_Node000003_Node000004" class="edge">
<title>Node3&#45;&gt;Node4</title>
<g id="a_edge3_Node000003_Node000004"><a xlink:title=" ">
<path fill="none" stroke="#63b8ff" d="M362.33,-99.08C383.17,-108.23 409.98,-120.01 432.33,-129.82"/>
<polygon fill="#63b8ff" stroke="#63b8ff" points="431.04,-133.08 441.6,-133.89 433.86,-126.67 431.04,-133.08"/>
</a>
</g>
</g>
<!-- Node5 -->
<g id="Node000005" class="node">
<title>Node5</title>
<g id="a_Node000005"><a xlink:href="classiot_1_1mqtt_1_1types_1_1UInt16.html#a60a47d7e83cd70d9c87031048668ba72" target="_top" xlink:title=" ">
<polygon fill="white" stroke="#666666" points="707,-142 577,-142 577,-112 707,-112 707,-142"/>
<text text-anchor="start" x="585" y="-130" font-family="Helvetica,sans-Serif" font-size="10.00">iot::mqtt::types::UInt16</text>
<text text-anchor="middle" x="642" y="-119" font-family="Helvetica,sans-Serif" font-size="10.00">::operator=</text>
</a>
</g>
</g>
<!-- Node3&#45;&gt;Node5 -->
<g id="edge6_Node000003_Node000005" class="edge">
<title>Node3&#45;&gt;Node5</title>
<g id="a_edge6_Node000003_Node000005"><a xlink:title=" ">
<path fill="none" stroke="#63b8ff" d="M378.29,-90.91C429.15,-97.9 508.35,-108.78 566.5,-116.77"/>
<polygon fill="#63b8ff" stroke="#63b8ff" points="566.36,-120.28 576.74,-118.17 567.31,-113.34 566.36,-120.28"/>
</a>
</g>
</g>
<!-- Node6 -->
<g id="Node000006" class="node">
<title>Node6</title>
<g id="a_Node000006"><a xlink:href="classiot_1_1mqtt_1_1types_1_1StringRaw.html#abaec26c9099c9f8ca137e272858069ac" target="_top" xlink:title=" ">
<polygon fill="white" stroke="#666666" points="540,-78 414,-78 414,-48 540,-48 540,-78"/>
<text text-anchor="start" x="422" y="-66" font-family="Helvetica,sans-Serif" font-size="10.00">iot::mqtt::types::String</text>
<text text-anchor="middle" x="477" y="-55" font-family="Helvetica,sans-Serif" font-size="10.00">Raw::operator=</text>
</a>
</g>
</g>
<!-- Node3&#45;&gt;Node6 -->
<g id="edge5_Node000003_Node000006" class="edge">
<title>Node3&#45;&gt;Node6</title>
<g id="a_edge5_Node000003_Node000006"><a xlink:title=" ">
<path fill="none" stroke="#63b8ff" d="M378.11,-76.89C386.36,-75.72 395.07,-74.48 403.74,-73.25"/>
<polygon fill="#63b8ff" stroke="#63b8ff" points="404.46,-76.69 413.87,-71.82 403.48,-69.76 404.46,-76.69"/>
</a>
</g>
</g>
<!-- Node7 -->
<g id="Node000007" class="node">
<title>Node7</title>
<g id="a_Node000007"><a xlink:href="classiot_1_1mqtt_1_1packets_1_1Publish.html#a9bfd14e069dd1fcf5ccf276c8c36b498" target="_top" xlink:title=" ">
<polygon fill="white" stroke="#666666" points="528,-30 426,-30 426,0 528,0 528,-30"/>
<text text-anchor="start" x="434" y="-18" font-family="Helvetica,sans-Serif" font-size="10.00">iot::mqtt::packets</text>
<text text-anchor="middle" x="477" y="-7" font-family="Helvetica,sans-Serif" font-size="10.00">::Publish::Publish</text>
</a>
</g>
</g>
<!-- Node3&#45;&gt;Node7 -->
<g id="edge7_Node000003_Node000007" class="edge">
<title>Node3&#45;&gt;Node7</title>
<g id="a_edge7_Node000003_Node000007"><a xlink:title=" ">
<path fill="none" stroke="#63b8ff" d="M355.11,-68.81C371.85,-59.69 393.9,-48.12 414,-39 417.78,-37.28 421.73,-35.58 425.72,-33.91"/>
<polygon fill="#63b8ff" stroke="#63b8ff" points="427.11,-37.12 435.04,-30.1 424.46,-30.64 427.11,-37.12"/>
</a>
</g>
</g>
<!-- Node4&#45;&gt;Node5 -->
<g id="edge4_Node000004_Node000005" class="edge">
<title>Node4&#45;&gt;Node5</title>
<g id="a_edge4_Node000004_Node000005"><a xlink:title=" ">
<path fill="none" stroke="#63b8ff" d="M540.09,-140.62C548.85,-139.44 557.92,-138.21 566.88,-137"/>
<polygon fill="#63b8ff" stroke="#63b8ff" points="567.48,-140.46 576.92,-135.65 566.54,-133.52 567.48,-140.46"/>
</a>
</g>
</g>
<!-- Node8 -->
<g id="Node000008" class="node">
<title>Node8</title>
<g id="a_Node000008"><a xlink:href="classiot_1_1mqtt_1_1ControlPacket.html#ae14191916323940c9bacc11d7f517c5a" target="_top" xlink:title=" ">
<polygon fill="white" stroke="#666666" points="708,-30 576,-30 576,0 708,0 708,-30"/>
<text text-anchor="start" x="584" y="-18" font-family="Helvetica,sans-Serif" font-size="10.00">iot::mqtt::ControlPacket</text>
<text text-anchor="middle" x="642" y="-7" font-family="Helvetica,sans-Serif" font-size="10.00">::ControlPacket</text>
</a>
</g>
</g>
<!-- Node7&#45;&gt;Node8 -->
<g id="edge8_Node000007_Node000008" class="edge">
<title>Node7&#45;&gt;Node8</title>
<g id="a_edge8_Node000007_Node000008"><a xlink:title=" ">
<path fill="none" stroke="#63b8ff" d="M528.24,-15C540.12,-15 553.05,-15 565.77,-15"/>
<polygon fill="#63b8ff" stroke="#63b8ff" points="565.91,-18.5 575.91,-15 565.91,-11.5 565.91,-18.5"/>
</a>
</g>
</g>
</g>
</svg>
