<?xml version="1.0" encoding="UTF-8" standalone="no"?>
<!DOCTYPE svg PUBLIC "-//W3C//DTD SVG 1.1//EN"
 "http://www.w3.org/Graphics/SVG/1.1/DTD/svg11.dtd">
<!-- Generated by graphviz version 14.1.2 (0)
 -->
<!-- Title: net::in::stream::config::ConfigSocketClient Pages: 1 -->
<!--zoomable 701 -->

<svg id="main" version="1.1" xmlns="http://www.w3.org/2000/svg" xmlns:xlink="http://www.w3.org/1999/xlink" xml:space="preserve" onload="init(evt)">

<style type="text/css"><![CDATA[
.node, .edge {opacity: 0.7;}
.node.selected, .edge.selected {opacity: 1;}
.edge:hover path { stroke: red; }
.edge:hover polygon { stroke: red; fill: red; }
]]></style>

<defs>
  <circle id="rim" cx="0" cy="0" r="7"/>
  <circle id="rim2" cx="0" cy="0" r="3.5"/>
  <g id="zoomPlus">
    <use xlink:href="#rim" fill="#404040"><set attributeName="fill" to="#808080" begin="zoomplus.mouseover" end="zoomplus.mouseout"/></use>
    <path d="M-4,0h8M0,-4v8" fill="none" stroke="white" stroke-width="1.5" pointer-events="none"/>
  </g>
  <g id="zoomMin">
    <use xlink:href="#rim" fill="#404040"><set attributeName="fill" to="#808080" begin="zoomminus.mouseover" end="zoomminus.mouseout"/></use>
    <path d="M-4,0h8" fill="none" stroke="white" stroke-width="1.5" pointer-events="none"/>
  </g>
  <g id="arrowUp" transform="translate(30 24)">
    <use xlink:href="#rim"/>
    <path pointer-events="none" fill="none" stroke="white" stroke-width="1.5" d="M0,-3.0v7 M-2.5,-0.5L0,-3.0L2.5,-0.5"/>
  </g>
  <g id="arrowRight" transform="rotate(90) translate(36 -43)">
    <use xlink:href="#rim"/>
    <path pointer-events="none" fill="none" stroke="white" stroke-width="1.5" d="M0,-3.0v7 M-2.5,-0.5L0,-3.0L2.5,-0.5"/>
  </g>
  <g id="arrowDown" transform="rotate(180) translate(-30 -48)">
    <use xlink:href="#rim"/>
    <path pointer-events="none" fill="none" stroke="white" stroke-width="1.5" d="M0,-3.0v7 M-2.5,-0.5L0,-3.0L2.5,-0.5"/>
  </g>
  <g id="arrowLeft" transform="rotate(270) translate(-36 17)">
    <use xlink:href="#rim"/>
    <path pointer-events="none" fill="none" stroke="white" stroke-width="1.5" d="M0,-3.0v7 M-2.5,-0.5L0,-3.0L2.5,-0.5"/>
  </g>
  <g id="resetDef">
    <use xlink:href="#rim2" fill="#404040"><set attributeName="fill" to="#808080" begin="reset.mouseover" end="reset.mouseout"/></use>
  </g>
</defs>
<script type="application/ecmascript">
var viewWidth = 1190;
var viewHeight = 701;
var sectionId = 'dynsection-1';
</script>
<script type="application/ecmascript" xlink:href="svg.min.js"/>
<svg id="graph" class="graph">
<g id="viewport">
<title>net::in::stream::config::ConfigSocketClient</title>
<!-- Node1 -->
<g id="Node000001" class="node">
<title>Node1</title>
<g id="a_Node000001"><a xlink:title=" ">
<polygon fill="#999999" stroke="none" points="623.62,-33.5 508.38,-33.5 508.38,0 623.62,0 623.62,-33.5"/>
<text xml:space="preserve" text-anchor="start" x="512.38" y="-20" font-family="Helvetica,sans-Serif" font-size="10.00">net::in::stream::config</text>
<text xml:space="preserve" text-anchor="start" x="516.88" y="-7.25" font-family="Helvetica,sans-Serif" font-size="10.00">::ConfigSocketClient</text>
<polygon fill="none" stroke="#666666" points="508.38,0 508.38,-33.5 623.62,-33.5 623.62,0 508.38,0"/>
</a>
</g>
</g>
<!-- Node2 -->
<g id="Node000002" class="node">
<title>Node2</title>
<g id="a_Node000002"><a xlink:href="classnet_1_1config_1_1stream_1_1ConfigSocketClient.html" target="_top" xlink:title=" ">
<polygon fill="white" stroke="none" points="652.88,-116.75 479.12,-116.75 479.12,-70.5 652.88,-70.5 652.88,-116.75"/>
<text xml:space="preserve" text-anchor="start" x="483.12" y="-103.25" font-family="Helvetica,sans-Serif" font-size="10.00">net::config::stream</text>
<text xml:space="preserve" text-anchor="start" x="483.12" y="-90.5" font-family="Helvetica,sans-Serif" font-size="10.00">::ConfigSocketClient</text>
<text xml:space="preserve" text-anchor="start" x="483.12" y="-77.75" font-family="Helvetica,sans-Serif" font-size="10.00">&lt; net::in::config::ConfigAddress &gt;</text>
<polygon fill="none" stroke="#666666" points="479.12,-70.5 479.12,-116.75 652.88,-116.75 652.88,-70.5 479.12,-70.5"/>
</a>
</g>
</g>
<!-- Node2&#45;&gt;Node1 -->
<g id="edge1_Node000001_Node000002" class="edge">
<title>Node2&#45;&gt;Node1</title>
<g id="a_edge1_Node000001_Node000002"><a xlink:title=" ">
<path fill="none" stroke="#63b8ff" d="M566,-59.16C566,-50.21 566,-40.96 566,-33.48"/>
<polygon fill="none" stroke="#63b8ff" points="562.5,-59.05 566,-69.05 569.5,-59.05 562.5,-59.05"/>
</a>
</g>
</g>
<!-- Node3 -->
<g id="Node000003" class="node">
<title>Node3</title>
<g id="a_Node000003"><a xlink:href="classnet_1_1in_1_1config_1_1ConfigAddress.html" target="_top" xlink:title=" ">
<polygon fill="white" stroke="none" points="963.5,-205 766.5,-205 766.5,-171.5 963.5,-171.5 963.5,-205"/>
<text xml:space="preserve" text-anchor="start" x="770.5" y="-191.5" font-family="Helvetica,sans-Serif" font-size="10.00">net::in::config::ConfigAddress</text>
<text xml:space="preserve" text-anchor="start" x="770.5" y="-178.75" font-family="Helvetica,sans-Serif" font-size="10.00">&lt; net::config::ConfigAddressRemote &gt;</text>
<polygon fill="none" stroke="#666666" points="766.5,-171.5 766.5,-205 963.5,-205 963.5,-171.5 766.5,-171.5"/>
</a>
</g>
</g>
<!-- Node3&#45;&gt;Node2 -->
<g id="edge2_Node000002_Node000003" class="edge">
<title>Node3&#45;&gt;Node2</title>
<g id="a_edge2_Node000002_Node000003"><a xlink:title=" ">
<path fill="none" stroke="#63b8ff" d="M803.35,-168.15C755.05,-153.19 687.77,-132.35 637.18,-116.67"/>
<polygon fill="none" stroke="#63b8ff" points="802.25,-171.47 812.83,-171.09 804.32,-164.79 802.25,-171.47"/>
</a>
</g>
</g>
<!-- Node4 -->
<g id="Node000004" class="node">
<title>Node4</title>
<g id="a_Node000004"><a xlink:href="classnet_1_1config_1_1ConfigSection.html" target="_top" xlink:title=" ">
<polygon fill="white" stroke="none" points="464.62,-398.25 331.38,-398.25 331.38,-377.5 464.62,-377.5 464.62,-398.25"/>
<text xml:space="preserve" text-anchor="start" x="335.38" y="-384.75" font-family="Helvetica,sans-Serif" font-size="10.00">net::config::ConfigSection</text>
<polygon fill="none" stroke="#666666" points="331.38,-377.5 331.38,-398.25 464.62,-398.25 464.62,-377.5 331.38,-377.5"/>
</a>
</g>
</g>
<!-- Node4&#45;&gt;Node3 -->
<g id="edge3_Node000003_Node000004" class="edge">
<title>Node4&#45;&gt;Node3</title>
<g id="a_edge3_Node000003_Node000004"><a xlink:title=" ">
<path fill="none" stroke="#8b1a1a" d="M428.44,-372.39C441.09,-365.58 455.47,-356.76 467,-346.75 482.18,-333.58 480.81,-325.47 495,-311.25 521.03,-285.16 526.79,-275.74 560,-259.75 597.95,-241.48 701.76,-219.49 777.76,-204.98"/>
<polygon fill="none" stroke="#8b1a1a" points="426.95,-369.22 419.67,-376.92 430.16,-375.44 426.95,-369.22"/>
</a>
</g>
</g>
<!-- Node9 -->
<g id="Node000009" class="node">
<title>Node9</title>
<g id="a_Node000009"><a xlink:title=" ">
<polygon fill="white" stroke="none" points="266.38,-293.25 137.62,-293.25 137.62,-259.75 266.38,-259.75 266.38,-293.25"/>
<text xml:space="preserve" text-anchor="start" x="141.62" y="-279.75" font-family="Helvetica,sans-Serif" font-size="10.00">std::shared_ptr&lt; net</text>
<text xml:space="preserve" text-anchor="start" x="141.62" y="-267" font-family="Helvetica,sans-Serif" font-size="10.00">::config::ConfigSection &gt;</text>
<polygon fill="none" stroke="#666666" points="137.62,-259.75 137.62,-293.25 266.38,-293.25 266.38,-259.75 137.62,-259.75"/>
</a>
</g>
</g>
<!-- Node4&#45;&gt;Node9 -->
<g id="edge9_Node000009_Node000004" class="edge">
<title>Node4&#45;&gt;Node9</title>
<g id="a_edge9_Node000009_Node000004"><a xlink:title=" ">
<path fill="none" stroke="#63b8ff" d="M331.55,-378.33C305.13,-372.55 275.55,-362.89 252.25,-346.75 236.8,-336.04 224.34,-319 215.7,-304.5"/>
<polygon fill="none" stroke="#63b8ff" points="215.63,-304.38 209.22,-301.09 209.79,-293.9 216.2,-297.19 215.63,-304.38"/>
</a>
</g>
<text xml:space="preserve" text-anchor="start" x="255.25" y="-325.88" font-family="Helvetica,sans-Serif" font-size="10.00" fill="grey">+ptr</text>
</g>
<!-- Node20 -->
<g id="Node000020" class="node">
<title>Node20</title>
<g id="a_Node000020"><a xlink:href="classnet_1_1in_1_1config_1_1ConfigAddress.html" target="_top" xlink:title=" ">
<polygon fill="white" stroke="none" points="748.12,-205 563.88,-205 563.88,-171.5 748.12,-171.5 748.12,-205"/>
<text xml:space="preserve" text-anchor="start" x="567.88" y="-191.5" font-family="Helvetica,sans-Serif" font-size="10.00">net::in::config::ConfigAddress</text>
<text xml:space="preserve" text-anchor="start" x="567.88" y="-178.75" font-family="Helvetica,sans-Serif" font-size="10.00">&lt; net::config::ConfigAddressLocal &gt;</text>
<polygon fill="none" stroke="#666666" points="563.88,-171.5 563.88,-205 748.12,-205 748.12,-171.5 563.88,-171.5"/>
</a>
</g>
</g>
<!-- Node4&#45;&gt;Node20 -->
<g id="edge22_Node000020_Node000004" class="edge">
<title>Node4&#45;&gt;Node20</title>
<g id="a_edge22_Node000020_Node000004"><a xlink:title=" ">
<path fill="none" stroke="#8b1a1a" d="M415.48,-369.64C433.45,-351.48 461.73,-321.63 483,-293.25 504.96,-263.96 496.59,-244.8 526,-223 537.33,-214.6 550.57,-208.29 564.18,-203.54"/>
<polygon fill="none" stroke="#8b1a1a" points="413.23,-366.94 408.64,-376.49 418.18,-371.89 413.23,-366.94"/>
</a>
</g>
</g>
<!-- Node22 -->
<g id="Node000022" class="node">
<title>Node22</title>
<g id="a_Node000022"><a xlink:href="classnet_1_1config_1_1ConfigConnection.html" target="_top" xlink:title=" ">
<polygon fill="white" stroke="none" points="474,-286.88 322,-286.88 322,-266.12 474,-266.12 474,-286.88"/>
<text xml:space="preserve" text-anchor="start" x="326" y="-273.38" font-family="Helvetica,sans-Serif" font-size="10.00">net::config::ConfigConnection</text>
<polygon fill="none" stroke="#666666" points="322,-266.12 322,-286.88 474,-286.88 474,-266.12 322,-266.12"/>
</a>
</g>
</g>
<!-- Node4&#45;&gt;Node22 -->
<g id="edge27_Node000022_Node000004" class="edge">
<title>Node4&#45;&gt;Node22</title>
<g id="a_edge27_Node000022_Node000004"><a xlink:title=" ">
<path fill="none" stroke="darkgreen" d="M398,-366.31C398,-342.49 398,-304.3 398,-286.8"/>
<polygon fill="none" stroke="darkgreen" points="394.5,-366.04 398,-376.04 401.5,-366.04 394.5,-366.04"/>
</a>
</g>
</g>
<!-- Node23 -->
<g id="Node000023" class="node">
<title>Node23</title>
<g id="a_Node000023"><a xlink:href="classnet_1_1config_1_1ConfigPhysicalSocketClient.html" target="_top" xlink:title=" ">
<polygon fill="white" stroke="none" points="545.88,-205 408.12,-205 408.12,-171.5 545.88,-171.5 545.88,-205"/>
<text xml:space="preserve" text-anchor="start" x="412.12" y="-191.5" font-family="Helvetica,sans-Serif" font-size="10.00">net::config::ConfigPhysical</text>
<text xml:space="preserve" text-anchor="start" x="446.62" y="-178.75" font-family="Helvetica,sans-Serif" font-size="10.00">SocketClient</text>
<polygon fill="none" stroke="#666666" points="408.12,-171.5 408.12,-205 545.88,-205 545.88,-171.5 408.12,-171.5"/>
</a>
</g>
</g>
<!-- Node4&#45;&gt;Node23 -->
<g id="edge30_Node000023_Node000004" class="edge">
<title>Node4&#45;&gt;Node23</title>
<g id="a_edge30_Node000023_Node000004"><a xlink:title=" ">
<path fill="none" stroke="#8b1a1a" d="M374.15,-371.28C340.62,-347.35 286.42,-300.11 313,-259.75 334.22,-227.53 373.59,-209.97 408.44,-200.44"/>
<polygon fill="none" stroke="#8b1a1a" points="371.92,-373.99 382.14,-376.79 375.9,-368.23 371.92,-373.99"/>
</a>
</g>
</g>
<!-- Node24 -->
<g id="Node000024" class="node">
<title>Node24</title>
<g id="a_Node000024"><a xlink:href="classnet_1_1config_1_1ConfigPhysicalSocket.html" target="_top" xlink:title=" ">
<polygon fill="white" stroke="none" points="706.88,-293.25 569.12,-293.25 569.12,-259.75 706.88,-259.75 706.88,-293.25"/>
<text xml:space="preserve" text-anchor="start" x="573.12" y="-279.75" font-family="Helvetica,sans-Serif" font-size="10.00">net::config::ConfigPhysical</text>
<text xml:space="preserve" text-anchor="start" x="621.88" y="-267" font-family="Helvetica,sans-Serif" font-size="10.00">Socket</text>
<polygon fill="none" stroke="#666666" points="569.12,-259.75 569.12,-293.25 706.88,-293.25 706.88,-259.75 569.12,-259.75"/>
</a>
</g>
</g>
<!-- Node4&#45;&gt;Node24 -->
<g id="edge33_Node000024_Node000004" class="edge">
<title>Node4&#45;&gt;Node24</title>
<g id="a_edge33_Node000024_Node000004"><a xlink:title=" ">
<path fill="none" stroke="#63b8ff" d="M464.43,-385.9C502.45,-382.28 549.16,-372.29 583,-346.75 597.28,-335.97 591.11,-325.45 602,-311.25 604.43,-308.09 607.16,-304.96 610,-301.96"/>
<polygon fill="none" stroke="#63b8ff" points="610.03,-301.94 611.53,-294.89 618.61,-293.56 617.12,-300.61 610.03,-301.94"/>
</a>
</g>
<text xml:space="preserve" text-anchor="start" x="605" y="-325.88" font-family="Helvetica,sans-Serif" font-size="10.00" fill="grey">&#45;section</text>
</g>
<!-- Node5 -->
<g id="Node000005" class="node">
<title>Node5</title>
<g id="a_Node000005"><a xlink:href="classnet_1_1config_1_1ConfigInstance.html" target="_top" xlink:title=" ">
<polygon fill="white" stroke="none" points="179.25,-104 40.75,-104 40.75,-83.25 179.25,-83.25 179.25,-104"/>
<text xml:space="preserve" text-anchor="start" x="44.75" y="-90.5" font-family="Helvetica,sans-Serif" font-size="10.00">net::config::ConfigInstance</text>
<polygon fill="none" stroke="#666666" points="40.75,-83.25 40.75,-104 179.25,-104 179.25,-83.25 40.75,-83.25"/>
</a>
</g>
</g>
<!-- Node5&#45;&gt;Node4 -->
<g id="edge4_Node000004_Node000005" class="edge">
<title>Node5&#45;&gt;Node4</title>
<g id="a_edge4_Node000004_Node000005"><a xlink:title=" ">
<path fill="none" stroke="#63b8ff" d="M108.19,-103.84C102.8,-133.84 89.62,-230.44 129,-293.25 168.5,-356.26 254.42,-377.55 318.6,-384.39"/>
<polygon fill="none" stroke="#63b8ff" points="318.68,-384.4 325.03,-380.98 330.63,-385.52 324.28,-388.94 318.68,-384.4"/>
</a>
</g>
<text xml:space="preserve" text-anchor="start" x="111.46" y="-229.25" font-family="Helvetica,sans-Serif" font-size="10.00" fill="grey">&#45;instance</text>
</g>
<!-- Node6 -->
<g id="Node000006" class="node">
<title>Node6</title>
<g id="a_Node000006"><a xlink:title=" ">
<polygon fill="white" stroke="none" points="376.38,-597.88 319.62,-597.88 319.62,-577.12 376.38,-577.12 376.38,-597.88"/>
<text xml:space="preserve" text-anchor="start" x="323.62" y="-584.38" font-family="Helvetica,sans-Serif" font-size="10.00">std::string</text>
<polygon fill="none" stroke="#666666" points="319.62,-577.12 319.62,-597.88 376.38,-597.88 376.38,-577.12 319.62,-577.12"/>
</a>
</g>
</g>
<!-- Node6&#45;&gt;Node5 -->
<g id="edge5_Node000005_Node000006" class="edge">
<title>Node6&#45;&gt;Node5</title>
<g id="a_edge5_Node000005_Node000006"><a xlink:title=" ">
<path fill="none" stroke="#63b8ff" d="M319.82,-584.26C236.97,-576.9 0,-550.05 0,-483.5 0,-483.5 0,-483.5 0,-187.25 0,-148.95 39.5,-123.29 71.16,-108.88"/>
<polygon fill="none" stroke="#63b8ff" points="70.94,-108.97 74.89,-102.93 81.98,-104.25 78.03,-110.29 70.94,-108.97"/>
</a>
</g>
<text xml:space="preserve" text-anchor="start" x="3" y="-334.25" font-family="Helvetica,sans-Serif" font-size="10.00" fill="grey">&#45;instanceName</text>
<text xml:space="preserve" text-anchor="start" x="3" y="-317.5" font-family="Helvetica,sans-Serif" font-size="10.00" fill="grey">&#45;nameAnonymous</text>
</g>
<!-- Node13 -->
<g id="Node000013" class="node">
<title>Node13</title>
<g id="a_Node000013"><a xlink:href="classnet_1_1in_1_1SocketAddress.html" target="_top" xlink:title=" ">
<polygon fill="white" stroke="none" points="1002,-492.88 886,-492.88 886,-472.12 1002,-472.12 1002,-492.88"/>
<text xml:space="preserve" text-anchor="start" x="890" y="-479.38" font-family="Helvetica,sans-Serif" font-size="10.00">net::in::SocketAddress</text>
<polygon fill="none" stroke="#666666" points="886,-472.12 886,-492.88 1002,-492.88 1002,-472.12 886,-472.12"/>
</a>
</g>
</g>
<!-- Node6&#45;&gt;Node13 -->
<g id="edge16_Node000013_Node000006" class="edge">
<title>Node6&#45;&gt;Node13</title>
<g id="a_edge16_Node000013_Node000006"><a xlink:title=" ">
<path fill="none" stroke="#63b8ff" d="M376.22,-582.53C455.47,-571.23 686.69,-537.27 877,-499.25 882.49,-498.15 888.21,-496.93 893.9,-495.67"/>
<polygon fill="none" stroke="#63b8ff" points="893.61,-495.73 898.56,-490.5 905.3,-493.06 900.35,-498.3 893.61,-495.73"/>
</a>
</g>
<text xml:space="preserve" text-anchor="start" x="779.21" y="-540.25" font-family="Helvetica,sans-Serif" font-size="10.00" fill="grey">&#45;canonName</text>
<text xml:space="preserve" text-anchor="start" x="779.21" y="-523.5" font-family="Helvetica,sans-Serif" font-size="10.00" fill="grey">&#45;host</text>
</g>
<!-- Node7 -->
<g id="Node000007" class="node">
<title>Node7</title>
<g id="a_Node000007"><a xlink:title=" ">
<polygon fill="white" stroke="none" points="395.88,-692.5 300.12,-692.5 300.12,-659 395.88,-659 395.88,-692.5"/>
<text xml:space="preserve" text-anchor="start" x="304.12" y="-679" font-family="Helvetica,sans-Serif" font-size="10.00">std::basic_string&lt;</text>
<text xml:space="preserve" text-anchor="start" x="329.62" y="-666.25" font-family="Helvetica,sans-Serif" font-size="10.00"> Char &gt;</text>
<polygon fill="none" stroke="#666666" points="300.12,-659 300.12,-692.5 395.88,-692.5 395.88,-659 300.12,-659"/>
</a>
</g>
</g>
<!-- Node7&#45;&gt;Node6 -->
<g id="edge6_Node000006_Node000007" class="edge">
<title>Node7&#45;&gt;Node6</title>
<g id="a_edge6_Node000006_Node000007"><a xlink:title=" ">
<path fill="none" stroke="#63b8ff" d="M348,-647.93C348,-630.65 348,-609.28 348,-597.45"/>
<polygon fill="none" stroke="#63b8ff" points="344.5,-647.82 348,-657.82 351.5,-647.82 344.5,-647.82"/>
</a>
</g>
</g>
<!-- Node8 -->
<g id="Node000008" class="node">
<title>Node8</title>
<g id="a_Node000008"><a xlink:title=" ">
<polygon fill="white" stroke="none" points="323.88,-205 138.12,-205 138.12,-171.5 323.88,-171.5 323.88,-205"/>
<text xml:space="preserve" text-anchor="start" x="142.12" y="-191.5" font-family="Helvetica,sans-Serif" font-size="10.00">std::vector&lt; std::shared</text>
<text xml:space="preserve" text-anchor="start" x="142.12" y="-178.75" font-family="Helvetica,sans-Serif" font-size="10.00">_ptr&lt; net::config::ConfigSection &gt; &gt;</text>
<polygon fill="none" stroke="#666666" points="138.12,-171.5 138.12,-205 323.88,-205 323.88,-171.5 138.12,-171.5"/>
</a>
</g>
</g>
<!-- Node8&#45;&gt;Node5 -->
<g id="edge7_Node000005_Node000008" class="edge">
<title>Node8&#45;&gt;Node5</title>
<g id="a_edge7_Node000005_Node000008"><a xlink:title=" ">
<path fill="none" stroke="#63b8ff" d="M210.47,-171.54C188.79,-154.94 154.69,-128.84 132.34,-111.73"/>
<polygon fill="none" stroke="#63b8ff" points="132.38,-111.76 125.18,-111.29 122.85,-104.46 130.05,-104.93 132.38,-111.76"/>
</a>
</g>
<text xml:space="preserve" text-anchor="start" x="187.9" y="-141" font-family="Helvetica,sans-Serif" font-size="10.00" fill="grey">&#45;configSections</text>
</g>
<!-- Node9&#45;&gt;Node8 -->
<g id="edge8_Node000008_Node000009" class="edge">
<title>Node9&#45;&gt;Node8</title>
<g id="a_edge8_Node000008_Node000009"><a xlink:title=" ">
<path fill="none" stroke="#63b8ff" d="M207.18,-260.08C211.2,-248.13 216.87,-231.27 221.67,-216.99"/>
<polygon fill="none" stroke="#63b8ff" points="221.65,-217.06 219.77,-210.09 225.48,-205.68 227.35,-212.64 221.65,-217.06"/>
</a>
</g>
<text xml:space="preserve" text-anchor="start" x="222.1" y="-229.25" font-family="Helvetica,sans-Serif" font-size="10.00" fill="grey">+elements</text>
</g>
<!-- Node10 -->
<g id="Node000010" class="node">
<title>Node10</title>
<g id="a_Node000010"><a xlink:href="classnet_1_1config_1_1ConfigAddressRemote.html" target="_top" xlink:title=" ">
<polygon fill="white" stroke="none" points="1136.38,-293.25 959.62,-293.25 959.62,-259.75 1136.38,-259.75 1136.38,-293.25"/>
<text xml:space="preserve" text-anchor="start" x="963.62" y="-279.75" font-family="Helvetica,sans-Serif" font-size="10.00">net::config::ConfigAddress</text>
<text xml:space="preserve" text-anchor="start" x="963.62" y="-267" font-family="Helvetica,sans-Serif" font-size="10.00">Remote&lt; net::in::SocketAddress &gt;</text>
<polygon fill="none" stroke="#666666" points="959.62,-259.75 959.62,-293.25 1136.38,-293.25 1136.38,-259.75 959.62,-259.75"/>
</a>
</g>
</g>
<!-- Node10&#45;&gt;Node3 -->
<g id="edge10_Node000003_Node000010" class="edge">
<title>Node10&#45;&gt;Node3</title>
<g id="a_edge10_Node000003_Node000010"><a xlink:title=" ">
<path fill="none" stroke="#63b8ff" d="M1004.71,-255.1C972.1,-239.73 928.06,-218.97 898.2,-204.9"/>
<polygon fill="none" stroke="#63b8ff" points="1002.95,-258.14 1013.49,-259.24 1005.94,-251.81 1002.95,-258.14"/>
</a>
</g>
</g>
<!-- Node11 -->
<g id="Node000011" class="node">
<title>Node11</title>
<g id="a_Node000011"><a xlink:href="classnet_1_1config_1_1ConfigAddress.html" target="_top" xlink:title=" ">
<polygon fill="white" stroke="none" points="1163.25,-404.62 1024.75,-404.62 1024.75,-371.12 1163.25,-371.12 1163.25,-404.62"/>
<text xml:space="preserve" text-anchor="start" x="1028.75" y="-391.12" font-family="Helvetica,sans-Serif" font-size="10.00">net::config::ConfigAddress</text>
<text xml:space="preserve" text-anchor="start" x="1028.75" y="-378.38" font-family="Helvetica,sans-Serif" font-size="10.00">&lt; net::in::SocketAddress &gt;</text>
<polygon fill="none" stroke="#666666" points="1024.75,-371.12 1024.75,-404.62 1163.25,-404.62 1163.25,-371.12 1024.75,-371.12"/>
</a>
</g>
</g>
<!-- Node11&#45;&gt;Node10 -->
<g id="edge11_Node000010_Node000011" class="edge">
<title>Node11&#45;&gt;Node10</title>
<g id="a_edge11_Node000010_Node000011"><a xlink:title=" ">
<path fill="none" stroke="#63b8ff" d="M1099.25,-359.96C1100.86,-344.86 1100.56,-326.12 1093,-311.25 1089.37,-304.11 1083.45,-298.08 1077.08,-293.19"/>
<polygon fill="none" stroke="#63b8ff" points="1095.81,-359.25 1097.86,-369.65 1102.74,-360.25 1095.81,-359.25"/>
</a>
</g>
</g>
<!-- Node21 -->
<g id="Node000021" class="node">
<title>Node21</title>
<g id="a_Node000021"><a xlink:href="classnet_1_1config_1_1ConfigAddressLocal.html" target="_top" xlink:title=" ">
<polygon fill="white" stroke="none" points="942,-293.25 778,-293.25 778,-259.75 942,-259.75 942,-293.25"/>
<text xml:space="preserve" text-anchor="start" x="782" y="-279.75" font-family="Helvetica,sans-Serif" font-size="10.00">net::config::ConfigAddress</text>
<text xml:space="preserve" text-anchor="start" x="782" y="-267" font-family="Helvetica,sans-Serif" font-size="10.00">Local&lt; net::in::SocketAddress &gt;</text>
<polygon fill="none" stroke="#666666" points="778,-259.75 778,-293.25 942,-293.25 942,-259.75 778,-259.75"/>
</a>
</g>
</g>
<!-- Node11&#45;&gt;Node21 -->
<g id="edge24_Node000021_Node000011" class="edge">
<title>Node11&#45;&gt;Node21</title>
<g id="a_edge24_Node000021_Node000011"><a xlink:title=" ">
<path fill="none" stroke="#63b8ff" d="M1091.66,-359.99C1088.77,-343.46 1082.32,-323.21 1068,-311.25 1047.82,-294.38 976.96,-297.49 951,-293.25 947.99,-292.76 944.93,-292.25 941.84,-291.74"/>
<polygon fill="none" stroke="#63b8ff" points="1088.17,-360.27 1093,-369.7 1095.1,-359.32 1088.17,-360.27"/>
</a>
</g>
</g>
<!-- Node12 -->
<g id="Node000012" class="node">
<title>Node12</title>
<g id="a_Node000012"><a xlink:href="classnet_1_1config_1_1ConfigAddressBase.html" target="_top" xlink:title=" ">
<polygon fill="white" stroke="none" points="1182.25,-499.25 1019.75,-499.25 1019.75,-465.75 1182.25,-465.75 1182.25,-499.25"/>
<text xml:space="preserve" text-anchor="start" x="1023.75" y="-485.75" font-family="Helvetica,sans-Serif" font-size="10.00">net::config::ConfigAddress</text>
<text xml:space="preserve" text-anchor="start" x="1023.75" y="-473" font-family="Helvetica,sans-Serif" font-size="10.00">Base&lt; net::in::SocketAddress &gt;</text>
<polygon fill="none" stroke="#666666" points="1019.75,-465.75 1019.75,-499.25 1182.25,-499.25 1182.25,-465.75 1019.75,-465.75"/>
</a>
</g>
</g>
<!-- Node12&#45;&gt;Node11 -->
<g id="edge12_Node000011_Node000012" class="edge">
<title>Node12&#45;&gt;Node11</title>
<g id="a_edge12_Node000011_Node000012"><a xlink:title=" ">
<path fill="none" stroke="#63b8ff" d="M1098.98,-454.74C1097.74,-438.4 1096.21,-418.07 1095.17,-404.36"/>
<polygon fill="none" stroke="#63b8ff" points="1095.45,-454.57 1099.7,-464.28 1102.43,-454.04 1095.45,-454.57"/>
</a>
</g>
</g>
<!-- Node13&#45;&gt;Node11 -->
<g id="edge13_Node000011_Node000013" class="edge">
<title>Node13&#45;&gt;Node11</title>
<g id="a_edge13_Node000011_Node000013"><a xlink:title=" ">
<path fill="none" stroke="#63b8ff" d="M954.72,-472.26C967.86,-461.2 991.06,-442.46 1012.75,-429 1023.46,-422.35 1035.44,-415.93 1046.82,-410.25"/>
<polygon fill="none" stroke="#63b8ff" points="1046.8,-410.26 1050.45,-404.04 1057.6,-405.01 1053.95,-411.23 1046.8,-410.26"/>
</a>
</g>
<text xml:space="preserve" text-anchor="start" x="1015.75" y="-435.25" font-family="Helvetica,sans-Serif" font-size="10.00" fill="grey">&#45;socketAddress</text>
</g>
<!-- Node14 -->
<g id="Node000014" class="node">
<title>Node14</title>
<g id="a_Node000014"><a xlink:href="classnet_1_1SocketAddress.html" target="_top" xlink:title=" ">
<polygon fill="white" stroke="none" points="931.5,-604.25 830.5,-604.25 830.5,-570.75 931.5,-570.75 931.5,-604.25"/>
<text xml:space="preserve" text-anchor="start" x="834.5" y="-590.75" font-family="Helvetica,sans-Serif" font-size="10.00">net::SocketAddress</text>
<text xml:space="preserve" text-anchor="start" x="840.5" y="-578" font-family="Helvetica,sans-Serif" font-size="10.00">&lt; sockaddr_in &gt;</text>
<polygon fill="none" stroke="#666666" points="830.5,-570.75 830.5,-604.25 931.5,-604.25 931.5,-570.75 830.5,-570.75"/>
</a>
</g>
</g>
<!-- Node14&#45;&gt;Node13 -->
<g id="edge14_Node000013_Node000014" class="edge">
<title>Node14&#45;&gt;Node13</title>
<g id="a_edge14_Node000013_Node000014"><a xlink:title=" ">
<path fill="none" stroke="#63b8ff" d="M896.54,-561.1C910.08,-538.96 928.96,-508.09 938.3,-492.82"/>
<polygon fill="none" stroke="#63b8ff" points="893.59,-559.21 891.36,-569.57 899.56,-562.86 893.59,-559.21"/>
</a>
</g>
</g>
<!-- Node15 -->
<g id="Node000015" class="node">
<title>Node15</title>
<g id="a_Node000015"><a xlink:href="classcore_1_1socket_1_1SocketAddress.html" target="_top" xlink:title=" ">
<polygon fill="white" stroke="none" points="946.88,-686.12 803.12,-686.12 803.12,-665.38 946.88,-665.38 946.88,-686.12"/>
<text xml:space="preserve" text-anchor="start" x="807.12" y="-672.62" font-family="Helvetica,sans-Serif" font-size="10.00">core::socket::SocketAddress</text>
<polygon fill="none" stroke="#666666" points="803.12,-665.38 803.12,-686.12 946.88,-686.12 946.88,-665.38 803.12,-665.38"/>
</a>
</g>
</g>
<!-- Node15&#45;&gt;Node14 -->
<g id="edge15_Node000014_Node000015" class="edge">
<title>Node15&#45;&gt;Node14</title>
<g id="a_edge15_Node000014_Node000015"><a xlink:title=" ">
<path fill="none" stroke="#63b8ff" d="M876.44,-654.11C877.51,-638.73 878.94,-618.05 879.92,-604.05"/>
<polygon fill="none" stroke="#63b8ff" points="872.95,-653.79 875.75,-664.01 879.93,-654.28 872.95,-653.79"/>
</a>
</g>
</g>
<!-- Node16 -->
<g id="Node000016" class="node">
<title>Node16</title>
<g id="a_Node000016"><a xlink:title=" ">
<polygon fill="white" stroke="none" points="1074.88,-604.25 961.12,-604.25 961.12,-570.75 1074.88,-570.75 1074.88,-604.25"/>
<text xml:space="preserve" text-anchor="start" x="965.12" y="-590.75" font-family="Helvetica,sans-Serif" font-size="10.00">std::shared_ptr&lt; net</text>
<text xml:space="preserve" text-anchor="start" x="965.12" y="-578" font-family="Helvetica,sans-Serif" font-size="10.00">::in::SocketAddrInfo &gt;</text>
<polygon fill="none" stroke="#666666" points="961.12,-570.75 961.12,-604.25 1074.88,-604.25 1074.88,-570.75 961.12,-570.75"/>
</a>
</g>
</g>
<!-- Node16&#45;&gt;Node13 -->
<g id="edge17_Node000013_Node000016" class="edge">
<title>Node16&#45;&gt;Node13</title>
<g id="a_edge17_Node000013_Node000016"><a xlink:title=" ">
<path fill="none" stroke="#63b8ff" d="M1006.76,-570.86C993.78,-552.78 972.39,-523.01 958.25,-503.33"/>
<polygon fill="none" stroke="#63b8ff" points="958.22,-503.3 951.47,-500.76 951.22,-493.55 957.97,-496.09 958.22,-503.3"/>
</a>
</g>
<text xml:space="preserve" text-anchor="start" x="994.95" y="-531.88" font-family="Helvetica,sans-Serif" font-size="10.00" fill="grey">&#45;socketAddrInfo</text>
</g>
<!-- Node17 -->
<g id="Node000017" class="node">
<title>Node17</title>
<g id="a_Node000017"><a xlink:href="classnet_1_1in_1_1SocketAddrInfo.html" target="_top" xlink:title=" ">
<polygon fill="white" stroke="none" points="1083.12,-686.12 964.88,-686.12 964.88,-665.38 1083.12,-665.38 1083.12,-686.12"/>
<text xml:space="preserve" text-anchor="start" x="968.88" y="-672.62" font-family="Helvetica,sans-Serif" font-size="10.00">net::in::SocketAddrInfo</text>
<polygon fill="none" stroke="#666666" points="964.88,-665.38 964.88,-686.12 1083.12,-686.12 1083.12,-665.38 964.88,-665.38"/>
</a>
</g>
</g>
<!-- Node17&#45;&gt;Node16 -->
<g id="edge18_Node000016_Node000017" class="edge">
<title>Node17&#45;&gt;Node16</title>
<g id="a_edge18_Node000016_Node000017"><a xlink:title=" ">
<path fill="none" stroke="#63b8ff" d="M1023.36,-665.52C1022.56,-653.99 1021.15,-633.72 1019.97,-616.87"/>
<polygon fill="none" stroke="#63b8ff" points="1019.98,-616.92 1015.57,-611.21 1019.14,-604.95 1023.55,-610.66 1019.98,-616.92"/>
</a>
</g>
<text xml:space="preserve" text-anchor="start" x="1024.54" y="-628.5" font-family="Helvetica,sans-Serif" font-size="10.00" fill="grey">+ptr</text>
</g>
<!-- Node18 -->
<g id="Node000018" class="node">
<title>Node18</title>
<g id="a_Node000018"><a xlink:title=" ">
<polygon fill="white" stroke="none" points="859.62,-398.25 774.38,-398.25 774.38,-377.5 859.62,-377.5 859.62,-398.25"/>
<text xml:space="preserve" text-anchor="start" x="778.38" y="-384.75" font-family="Helvetica,sans-Serif" font-size="10.00">std::string_view</text>
<polygon fill="none" stroke="#666666" points="774.38,-377.5 774.38,-398.25 859.62,-398.25 859.62,-377.5 774.38,-377.5"/>
</a>
</g>
</g>
<!-- Node18&#45;&gt;Node10 -->
<g id="edge19_Node000010_Node000018" class="edge">
<title>Node18&#45;&gt;Node10</title>
<g id="a_edge19_Node000010_Node000018"><a xlink:title=" ">
<path fill="none" stroke="#63b8ff" d="M859.61,-380.01C889.69,-374.03 930.29,-363.61 963,-346.75 985.56,-335.12 1007.67,-316.82 1023.69,-301.95"/>
<polygon fill="none" stroke="#63b8ff" points="1023.5,-302.14 1025.07,-295.11 1032.17,-293.85 1030.6,-300.89 1023.5,-302.14"/>
</a>
</g>
<text xml:space="preserve" text-anchor="start" x="1014.63" y="-334.25" font-family="Helvetica,sans-Serif" font-size="10.00" fill="grey">+description</text>
<text xml:space="preserve" text-anchor="start" x="1014.63" y="-317.5" font-family="Helvetica,sans-Serif" font-size="10.00" fill="grey">+name</text>
</g>
<!-- Node18&#45;&gt;Node21 -->
<g id="edge25_Node000021_Node000018" class="edge">
<title>Node18&#45;&gt;Node21</title>
<g id="a_edge25_Node000021_Node000018"><a xlink:title=" ">
<path fill="none" stroke="#63b8ff" d="M846.64,-377.6C861.24,-371.36 877.5,-361.52 886,-346.75 893.87,-333.07 891.09,-326.19 886,-311.25 885.12,-308.68 883.97,-306.15 882.62,-303.71"/>
<polygon fill="none" stroke="#63b8ff" points="882.62,-303.7 875.94,-300.99 875.87,-293.78 882.55,-296.49 882.62,-303.7"/>
</a>
</g>
<text xml:space="preserve" text-anchor="start" x="893.91" y="-334.25" font-family="Helvetica,sans-Serif" font-size="10.00" fill="grey">+description</text>
<text xml:space="preserve" text-anchor="start" x="893.91" y="-317.5" font-family="Helvetica,sans-Serif" font-size="10.00" fill="grey">+name</text>
</g>
<!-- Node18&#45;&gt;Node22 -->
<g id="edge28_Node000022_Node000018" class="edge">
<title>Node18&#45;&gt;Node22</title>
<g id="a_edge28_Node000022_Node000018"><a xlink:title=" ">
<path fill="none" stroke="#63b8ff" d="M794.59,-377.53C782.49,-372.89 767.16,-367.67 753,-364.75 647.26,-342.93 613.49,-379.94 510.75,-346.75 475.91,-335.5 440.76,-311.42 419.18,-294.84"/>
<polygon fill="none" stroke="#63b8ff" points="419.06,-294.75 411.88,-294.17 409.65,-287.31 416.84,-287.89 419.06,-294.75"/>
</a>
</g>
<text xml:space="preserve" text-anchor="start" x="513.75" y="-334.25" font-family="Helvetica,sans-Serif" font-size="10.00" fill="grey">+description</text>
<text xml:space="preserve" text-anchor="start" x="513.75" y="-317.5" font-family="Helvetica,sans-Serif" font-size="10.00" fill="grey">+name</text>
</g>
<!-- Node18&#45;&gt;Node24 -->
<g id="edge32_Node000024_Node000018" class="edge">
<title>Node18&#45;&gt;Node24</title>
<g id="a_edge32_Node000024_Node000018"><a xlink:title=" ">
<path fill="none" stroke="#63b8ff" d="M816.08,-377.61C813.97,-361.56 807.28,-328.61 787,-311.25 776.21,-302.01 748.35,-294.59 719.6,-289.09"/>
<polygon fill="none" stroke="#63b8ff" points="719.52,-289.08 712.91,-291.94 707.72,-286.94 714.33,-284.07 719.52,-289.08"/>
</a>
</g>
<text xml:space="preserve" text-anchor="start" x="811.74" y="-334.25" font-family="Helvetica,sans-Serif" font-size="10.00" fill="grey">+description</text>
<text xml:space="preserve" text-anchor="start" x="811.74" y="-317.5" font-family="Helvetica,sans-Serif" font-size="10.00" fill="grey">+name</text>
</g>
<!-- Node19 -->
<g id="Node000019" class="node">
<title>Node19</title>
<g id="a_Node000019"><a xlink:title=" ">
<polygon fill="white" stroke="none" points="868,-499.25 752,-499.25 752,-465.75 868,-465.75 868,-499.25"/>
<text xml:space="preserve" text-anchor="start" x="756" y="-485.75" font-family="Helvetica,sans-Serif" font-size="10.00">std::basic_string_view</text>
<text xml:space="preserve" text-anchor="start" x="787.5" y="-473" font-family="Helvetica,sans-Serif" font-size="10.00">&lt; Char &gt;</text>
<polygon fill="none" stroke="#666666" points="752,-465.75 752,-499.25 868,-499.25 868,-465.75 752,-465.75"/>
</a>
</g>
</g>
<!-- Node19&#45;&gt;Node18 -->
<g id="edge20_Node000018_Node000019" class="edge">
<title>Node19&#45;&gt;Node18</title>
<g id="a_edge20_Node000018_Node000019"><a xlink:title=" ">
<path fill="none" stroke="#63b8ff" d="M812.04,-454.51C813.48,-435.51 815.31,-411.21 816.3,-398.16"/>
<polygon fill="none" stroke="#63b8ff" points="808.57,-454.04 811.3,-464.28 815.55,-454.57 808.57,-454.04"/>
</a>
</g>
</g>
<!-- Node20&#45;&gt;Node2 -->
<g id="edge21_Node000002_Node000020" class="edge">
<title>Node20&#45;&gt;Node2</title>
<g id="a_edge21_Node000002_Node000020"><a xlink:title=" ">
<path fill="none" stroke="#63b8ff" d="M632.97,-163.55C618.95,-149.11 601.15,-130.8 587.43,-116.67"/>
<polygon fill="none" stroke="#63b8ff" points="630.2,-165.72 639.68,-170.45 635.22,-160.84 630.2,-165.72"/>
</a>
</g>
</g>
<!-- Node21&#45;&gt;Node20 -->
<g id="edge23_Node000020_Node000021" class="edge">
<title>Node21&#45;&gt;Node20</title>
<g id="a_edge23_Node000020_Node000021"><a xlink:title=" ">
<path fill="none" stroke="#63b8ff" d="M812.68,-255.49C776.24,-240.09 726.58,-219.09 693.01,-204.9"/>
<polygon fill="none" stroke="#63b8ff" points="811.09,-258.62 821.66,-259.29 813.82,-252.17 811.09,-258.62"/>
</a>
</g>
</g>
<!-- Node22&#45;&gt;Node2 -->
<g id="edge26_Node000002_Node000022" class="edge">
<title>Node22&#45;&gt;Node2</title>
<g id="a_edge26_Node000002_Node000022"><a xlink:title=" ">
<path fill="none" stroke="#63b8ff" d="M392.19,-255.08C387.1,-232.68 382.77,-196.58 399,-171.5 417.21,-143.37 448.58,-125.38 479.24,-113.95"/>
<polygon fill="none" stroke="#63b8ff" points="388.8,-255.95 394.68,-264.77 395.58,-254.21 388.8,-255.95"/>
</a>
</g>
</g>
<!-- Node23&#45;&gt;Node2 -->
<g id="edge29_Node000002_Node000023" class="edge">
<title>Node23&#45;&gt;Node2</title>
<g id="a_edge29_Node000002_Node000023"><a xlink:title=" ">
<path fill="none" stroke="#63b8ff" d="M499.77,-163.55C513.64,-149.11 531.24,-130.8 544.81,-116.67"/>
<polygon fill="none" stroke="#63b8ff" points="497.55,-160.81 493.15,-170.45 502.6,-165.66 497.55,-160.81"/>
</a>
</g>
</g>
<!-- Node24&#45;&gt;Node23 -->
<g id="edge31_Node000023_Node000024" class="edge">
<title>Node24&#45;&gt;Node23</title>
<g id="a_edge31_Node000023_Node000024"><a xlink:title=" ">
<path fill="none" stroke="#63b8ff" d="M598.79,-254.49C570.22,-239.19 532.13,-218.79 506.21,-204.9"/>
<polygon fill="none" stroke="#63b8ff" points="597.04,-257.53 607.51,-259.17 600.35,-251.36 597.04,-257.53"/>
</a>
</g>
</g>
<!-- Node25 -->
<g id="Node000025" class="node">
<title>Node25</title>
<g id="a_Node000025"><a xlink:title=" ">
<polygon fill="white" stroke="none" points="743.75,-411 602.25,-411 602.25,-364.75 743.75,-364.75 743.75,-411"/>
<text xml:space="preserve" text-anchor="start" x="606.25" y="-397.5" font-family="Helvetica,sans-Serif" font-size="10.00">std::map&lt; int, std</text>
<text xml:space="preserve" text-anchor="start" x="606.25" y="-384.75" font-family="Helvetica,sans-Serif" font-size="10.00">::map&lt; int, net::phy</text>
<text xml:space="preserve" text-anchor="start" x="606.25" y="-372" font-family="Helvetica,sans-Serif" font-size="10.00">::PhysicalSocketOption &gt; &gt;</text>
<polygon fill="none" stroke="#666666" points="602.25,-364.75 602.25,-411 743.75,-411 743.75,-364.75 602.25,-364.75"/>
</a>
</g>
</g>
<!-- Node25&#45;&gt;Node24 -->
<g id="edge34_Node000024_Node000025" class="edge">
<title>Node25&#45;&gt;Node24</title>
<g id="a_edge34_Node000024_Node000025"><a xlink:title=" ">
<path fill="none" stroke="#63b8ff" d="M667.13,-364.88C662.95,-349.71 657.03,-329.13 651,-311.25 650.34,-309.3 649.64,-307.29 648.91,-305.28"/>
<polygon fill="none" stroke="#63b8ff" points="648.91,-305.27 643.05,-301.06 644.68,-294.04 650.54,-298.24 648.91,-305.27"/>
</a>
</g>
<text xml:space="preserve" text-anchor="start" x="664.87" y="-325.88" font-family="Helvetica,sans-Serif" font-size="10.00" fill="grey">&#45;socketOptionsMapMap</text>
</g>
</g>
</svg>

<g id="navigator" transform="translate(0 0)" fill="#404254">
  <rect fill="#f2f5e9" fill-opacity="0.5" stroke="#606060" stroke-width=".5" x="0" y="0" width="60" height="60"/>
  <use id="zoomplus" xlink:href="#zoomPlus" x="17" y="9" onmousedown="handleZoom(evt,'in')"/>
  <use id="zoomminus" xlink:href="#zoomMin" x="42" y="9" onmousedown="handleZoom(evt,'out')"/>
  <use id="reset" xlink:href="#resetDef" x="30" y="36" onmousedown="handleReset()"/>
   <use id="arrowup" xlink:href="#arrowUp" x="0" y="0" onmousedown="handlePan(0,-1)"/>
  <use id="arrowright" xlink:href="#arrowRight" x="0" y="0" onmousedown="handlePan(1,0)"/>
  <use id="arrowdown" xlink:href="#arrowDown" x="0" y="0" onmousedown="handlePan(0,1)"/>
  <use id="arrowleft" xlink:href="#arrowLeft" x="0" y="0" onmousedown="handlePan(-1,0)"/>
</g>
<svg viewBox="0 0 15 15" width="100%" height="30px" preserveAspectRatio="xMaxYMin meet">
 <g id="arrow_out" transform="scale(0.3 0.3)">
  <a xlink:href="classnet_1_1in_1_1stream_1_1config_1_1ConfigSocketClient__coll__graph_org.svg" target="_base">
   <rect id="button" ry="5" rx="5" y="6" x="6" height="38" width="38"
        fill="#f2f5e9" fill-opacity="0.5" stroke="#606060" stroke-width="1.0"/>
   <path id="arrow"
     d="M 11.500037,31.436501 C 11.940474,20.09759 22.043105,11.32322 32.158766,21.979434 L 37.068811,17.246167 C 37.068811,17.246167 37.088388,32 37.088388,32 L 22.160133,31.978069 C 22.160133,31.978069 26.997745,27.140456 26.997745,27.140456 C 18.528582,18.264221 13.291696,25.230495 11.500037,31.436501 z"
     style="fill:#404040;"/>
  </a>
 </g>
</svg>

<style type='text/css'>
<![CDATA[
[data-mouse-over-selected='false'] { opacity: 0.7; }
[data-mouse-over-selected='true']  { opacity: 1.0; }
]]>
</style>
<script type="application/ecmascript"><![CDATA[
document.addEventListener('DOMContentLoaded', (event) => {
  highlightEdges();
  highlightAdjacentNodes();
});
]]></script>
</svg>
