<?xml version="1.0" encoding="UTF-8" standalone="no"?>
<!DOCTYPE svg PUBLIC "-//W3C//DTD SVG 1.1//EN"
 "http://www.w3.org/Graphics/SVG/1.1/DTD/svg11.dtd">
<!-- Generated by graphviz version 2.43.0 (0)
 -->
<!-- Title: net::config::ConfigPhysicalSocketClient Pages: 1 -->
<svg width="310pt" height="392pt"
 viewBox="0.00 0.00 310.00 392.00" xmlns="http://www.w3.org/2000/svg" xmlns:xlink="http://www.w3.org/1999/xlink">
<g id="graph0" class="graph" transform="scale(1 1) rotate(0) translate(4 388)">
<title>net::config::ConfigPhysicalSocketClient</title>
<!-- Node1 -->
<g id="Node000001" class="node">
<title>Node1</title>
<g id="a_Node000001"><a xlink:title=" ">
<polygon fill="#999999" stroke="transparent" points="205,-30 79,-30 79,0 205,0 205,-30"/>
<text text-anchor="start" x="83" y="-18" font-family="Helvetica,sans-Serif" font-size="10.00">net::config::ConfigPhysical</text>
<text text-anchor="start" x="113.5" y="-7" font-family="Helvetica,sans-Serif" font-size="10.00">SocketClient</text>
<polygon fill="none" stroke="#666666" points="79,0 79,-30 205,-30 205,0 79,0"/>
</a>
</g>
</g>
<!-- Node2 -->
<g id="Node000002" class="node">
<title>Node2</title>
<g id="a_Node000002"><a xlink:href="classnet_1_1config_1_1ConfigPhysicalSocket.html" target="_top" xlink:title=" ">
<polygon fill="white" stroke="transparent" points="205,-97 79,-97 79,-67 205,-67 205,-97"/>
<text text-anchor="start" x="83" y="-85" font-family="Helvetica,sans-Serif" font-size="10.00">net::config::ConfigPhysical</text>
<text text-anchor="start" x="126.5" y="-74" font-family="Helvetica,sans-Serif" font-size="10.00">Socket</text>
<polygon fill="none" stroke="#666666" points="79,-67 79,-97 205,-97 205,-67 79,-67"/>
</a>
</g>
</g>
<!-- Node2&#45;&gt;Node1 -->
<g id="edge1_Node000001_Node000002" class="edge">
<title>Node2&#45;&gt;Node1</title>
<g id="a_edge1_Node000001_Node000002"><a xlink:title=" ">
<path fill="none" stroke="#63b8ff" d="M142,-56.61C142,-47.65 142,-37.82 142,-30.08"/>
<polygon fill="none" stroke="#63b8ff" points="138.5,-56.9 142,-66.9 145.5,-56.9 138.5,-56.9"/>
</a>
</g>
</g>
<!-- Node3 -->
<g id="Node000003" class="node">
<title>Node3</title>
<g id="a_Node000003"><a xlink:href="classnet_1_1config_1_1ConfigSection.html" target="_top" xlink:title=" ">
<polygon fill="white" stroke="transparent" points="124,-168.5 2,-168.5 2,-149.5 124,-149.5 124,-168.5"/>
<text text-anchor="start" x="6" y="-156" font-family="Helvetica,sans-Serif" font-size="10.00">net::config::ConfigSection</text>
<polygon fill="none" stroke="#666666" points="2,-149.5 2,-168.5 124,-168.5 124,-149.5 2,-149.5"/>
</a>
</g>
</g>
<!-- Node3&#45;&gt;Node2 -->
<g id="edge2_Node000002_Node000003" class="edge">
<title>Node3&#45;&gt;Node2</title>
<g id="a_edge2_Node000002_Node000003"><a xlink:title=" ">
<path fill="none" stroke="darkgreen" d="M79.56,-142.28C93.61,-128.94 113.59,-109.97 127.13,-97.11"/>
<polygon fill="none" stroke="darkgreen" points="76.9,-139.97 72.06,-149.4 81.72,-145.05 76.9,-139.97"/>
</a>
</g>
</g>
<!-- Node4 -->
<g id="Node000004" class="node">
<title>Node4</title>
<g id="a_Node000004"><a xlink:href="classnet_1_1config_1_1ConfigInstance.html" target="_top" xlink:title=" ">
<polygon fill="white" stroke="transparent" points="126,-245.5 0,-245.5 0,-226.5 126,-226.5 126,-245.5"/>
<text text-anchor="start" x="4" y="-233" font-family="Helvetica,sans-Serif" font-size="10.00">net::config::ConfigInstance</text>
<polygon fill="none" stroke="#666666" points="0,-226.5 0,-245.5 126,-245.5 126,-226.5 0,-226.5"/>
</a>
</g>
</g>
<!-- Node4&#45;&gt;Node3 -->
<g id="edge3_Node000003_Node000004" class="edge">
<title>Node4&#45;&gt;Node3</title>
<g id="a_edge3_Node000003_Node000004"><a xlink:title=" ">
<path fill="none" stroke="#63b8ff" d="M63,-226.4C63,-215.32 63,-195.71 63,-180.66"/>
<polygon fill="none" stroke="#63b8ff" points="63,-180.5 59,-174.5 63,-168.5 67,-174.5 63,-180.5"/>
</a>
</g>
<text text-anchor="middle" x="84.5" y="-195" font-family="Helvetica,sans-Serif" font-size="10.00" fill="grey"> &#45;instance</text>
</g>
<!-- Node5 -->
<g id="Node000005" class="node">
<title>Node5</title>
<g id="a_Node000005"><a xlink:title=" ">
<polygon fill="white" stroke="transparent" points="89,-317 37,-317 37,-298 89,-298 89,-317"/>
<text text-anchor="start" x="41" y="-304.5" font-family="Helvetica,sans-Serif" font-size="10.00">std::string</text>
<polygon fill="none" stroke="#666666" points="37,-298 37,-317 89,-317 89,-298 37,-298"/>
</a>
</g>
</g>
<!-- Node5&#45;&gt;Node4 -->
<g id="edge4_Node000004_Node000005" class="edge">
<title>Node5&#45;&gt;Node4</title>
<g id="a_edge4_Node000004_Node000005"><a xlink:title=" ">
<path fill="none" stroke="#63b8ff" d="M63,-297.98C63,-288.08 63,-271.39 63,-257.97"/>
<polygon fill="none" stroke="#63b8ff" points="63,-257.59 59,-251.59 63,-245.59 67,-251.59 63,-257.59"/>
</a>
</g>
<text text-anchor="middle" x="78.5" y="-272" font-family="Helvetica,sans-Serif" font-size="10.00" fill="grey"> &#45;name</text>
</g>
<!-- Node6 -->
<g id="Node000006" class="node">
<title>Node6</title>
<g id="a_Node000006"><a xlink:title=" ">
<polygon fill="white" stroke="transparent" points="107,-384 19,-384 19,-354 107,-354 107,-384"/>
<text text-anchor="start" x="23.5" y="-372" font-family="Helvetica,sans-Serif" font-size="10.00">std::basic_string&lt;</text>
<text text-anchor="start" x="46" y="-361" font-family="Helvetica,sans-Serif" font-size="10.00"> Char &gt;</text>
<polygon fill="none" stroke="#666666" points="19,-354 19,-384 107,-384 107,-354 19,-354"/>
</a>
</g>
</g>
<!-- Node6&#45;&gt;Node5 -->
<g id="edge5_Node000005_Node000006" class="edge">
<title>Node6&#45;&gt;Node5</title>
<g id="a_edge5_Node000005_Node000006"><a xlink:title=" ">
<path fill="none" stroke="#63b8ff" d="M63,-343.79C63,-334.36 63,-324.15 63,-317.16"/>
<polygon fill="none" stroke="#63b8ff" points="59.5,-343.9 63,-353.9 66.5,-343.9 59.5,-343.9"/>
</a>
</g>
</g>
<!-- Node7 -->
<g id="Node000007" class="node">
<title>Node7</title>
<g id="a_Node000007"><a xlink:title=" ">
<polygon fill="white" stroke="transparent" points="302,-174 142,-174 142,-144 302,-144 302,-174"/>
<text text-anchor="start" x="146.5" y="-162" font-family="Helvetica,sans-Serif" font-size="10.00">std::map&lt; int, const</text>
<text text-anchor="start" x="146.5" y="-151" font-family="Helvetica,sans-Serif" font-size="10.00"> net::phy::PhysicalSocketOption &gt;</text>
<polygon fill="none" stroke="#666666" points="142,-144 142,-174 302,-174 302,-144 142,-144"/>
</a>
</g>
</g>
<!-- Node7&#45;&gt;Node2 -->
<g id="edge6_Node000002_Node000007" class="edge">
<title>Node7&#45;&gt;Node2</title>
<g id="a_edge6_Node000002_Node000007"><a xlink:title=" ">
<path fill="none" stroke="#63b8ff" d="M206.95,-143.89C195.44,-133.1 179.35,-118.01 166.06,-105.55"/>
<polygon fill="none" stroke="#63b8ff" points="165.73,-105.25 158.62,-104.07 156.98,-97.04 164.09,-98.23 165.73,-105.25"/>
</a>
</g>
<text text-anchor="middle" x="231.5" y="-118" font-family="Helvetica,sans-Serif" font-size="10.00" fill="grey"> #socketOptionsMap</text>
</g>
<!-- Node8 -->
<g id="Node000008" class="node">
<title>Node8</title>
<g id="a_Node000008"><a xlink:href="classnet_1_1phy_1_1PhysicalSocketOption.html" target="_top" xlink:title=" ">
<polygon fill="white" stroke="transparent" points="281,-251 163,-251 163,-221 281,-221 281,-251"/>
<text text-anchor="start" x="167" y="-239" font-family="Helvetica,sans-Serif" font-size="10.00">net::phy::PhysicalSocket</text>
<text text-anchor="start" x="207.5" y="-228" font-family="Helvetica,sans-Serif" font-size="10.00">Option</text>
<polygon fill="none" stroke="#666666" points="163,-221 163,-251 281,-251 281,-221 163,-221"/>
</a>
</g>
</g>
<!-- Node8&#45;&gt;Node7 -->
<g id="edge7_Node000007_Node000008" class="edge">
<title>Node8&#45;&gt;Node7</title>
<g id="a_edge7_Node000007_Node000008"><a xlink:title=" ">
<path fill="none" stroke="#63b8ff" d="M222,-220.89C222,-211.15 222,-197.9 222,-186.25"/>
<polygon fill="none" stroke="#63b8ff" points="222,-186.04 218,-180.04 222,-174.04 226,-180.04 222,-186.04"/>
</a>
</g>
<text text-anchor="middle" x="246.5" y="-195" font-family="Helvetica,sans-Serif" font-size="10.00" fill="grey"> +elements</text>
</g>
<!-- Node9 -->
<g id="Node000009" class="node">
<title>Node9</title>
<g id="a_Node000009"><a xlink:title=" ">
<polygon fill="white" stroke="transparent" points="268,-317 176,-317 176,-298 268,-298 268,-317"/>
<text text-anchor="start" x="180" y="-304.5" font-family="Helvetica,sans-Serif" font-size="10.00">std::vector&lt; char &gt;</text>
<polygon fill="none" stroke="#666666" points="176,-298 176,-317 268,-317 268,-298 176,-298"/>
</a>
</g>
</g>
<!-- Node9&#45;&gt;Node8 -->
<g id="edge8_Node000008_Node000009" class="edge">
<title>Node9&#45;&gt;Node8</title>
<g id="a_edge8_Node000008_Node000009"><a xlink:title=" ">
<path fill="none" stroke="#63b8ff" d="M222,-297.98C222,-289.41 222,-275.75 222,-263.52"/>
<polygon fill="none" stroke="#63b8ff" points="222,-263.14 218,-257.14 222,-251.14 226,-257.14 222,-263.14"/>
</a>
</g>
<text text-anchor="middle" x="244" y="-272" font-family="Helvetica,sans-Serif" font-size="10.00" fill="grey"> &#45;optValue</text>
</g>
</g>
</svg>
