<?xml version="1.0" encoding="UTF-8" standalone="no"?>
<!DOCTYPE svg PUBLIC "-//W3C//DTD SVG 1.1//EN"
 "http://www.w3.org/Graphics/SVG/1.1/DTD/svg11.dtd">
<!-- Generated by graphviz version 2.43.0 (0)
 -->
<!-- Title: web::http::client::Request Pages: 1 -->
<svg width="1786pt" height="550pt"
 viewBox="0.00 0.00 1786.00 550.00" xmlns="http://www.w3.org/2000/svg" xmlns:xlink="http://www.w3.org/1999/xlink">
<g id="graph0" class="graph" transform="scale(1 1) rotate(0) translate(4 546)">
<title>web::http::client::Request</title>
<!-- Node1 -->
<g id="Node000001" class="node">
<title>Node1</title>
<g id="a_Node000001"><a xlink:title=" ">
<polygon fill="#999999" stroke="transparent" points="1554,-195 1460,-195 1460,-165 1554,-165 1554,-195"/>
<text text-anchor="start" x="1464.5" y="-183" font-family="Helvetica,sans-Serif" font-size="10.00">web::http::client::</text>
<text text-anchor="start" x="1487" y="-172" font-family="Helvetica,sans-Serif" font-size="10.00">Request</text>
<polygon fill="none" stroke="#666666" points="1460,-165 1460,-195 1554,-195 1554,-165 1460,-165"/>
</a>
</g>
</g>
<!-- Node12 -->
<g id="Node000012" class="node">
<title>Node12</title>
<g id="a_Node000012"><a xlink:title=" ">
<polygon fill="white" stroke="transparent" points="1617,-118 1493,-118 1493,-88 1617,-88 1617,-118"/>
<text text-anchor="start" x="1497" y="-106" font-family="Helvetica,sans-Serif" font-size="10.00">std::weak_ptr&lt; web</text>
<text text-anchor="start" x="1497" y="-95" font-family="Helvetica,sans-Serif" font-size="10.00">::http::client::Request &gt;</text>
<polygon fill="none" stroke="#666666" points="1493,-88 1493,-118 1617,-118 1617,-88 1493,-88"/>
</a>
</g>
</g>
<!-- Node1&#45;&gt;Node12 -->
<g id="edge13_Node000012_Node000001" class="edge">
<title>Node1&#45;&gt;Node12</title>
<g id="a_edge13_Node000012_Node000001"><a xlink:title=" ">
<path fill="none" stroke="#63b8ff" d="M1502.3,-164.99C1500.2,-156.15 1499.15,-144.78 1504,-136 1506.18,-132.06 1509.06,-128.55 1512.36,-125.42"/>
<polygon fill="none" stroke="#63b8ff" points="1512.37,-125.41 1514.64,-118.57 1521.83,-118.03 1519.56,-124.87 1512.37,-125.41"/>
</a>
</g>
<text text-anchor="middle" x="1516.5" y="-139" font-family="Helvetica,sans-Serif" font-size="10.00" fill="grey"> +ptr</text>
</g>
<!-- Node17 -->
<g id="Node000017" class="node">
<title>Node17</title>
<g id="a_Node000017"><a xlink:title=" ">
<polygon fill="white" stroke="transparent" points="1737,-118 1635,-118 1635,-88 1737,-88 1737,-118"/>
<text text-anchor="start" x="1639" y="-106" font-family="Helvetica,sans-Serif" font-size="10.00">std::list&lt; web::http</text>
<text text-anchor="start" x="1640.5" y="-95" font-family="Helvetica,sans-Serif" font-size="10.00">::client::Request &gt;</text>
<polygon fill="none" stroke="#666666" points="1635,-88 1635,-118 1737,-118 1737,-88 1635,-88"/>
</a>
</g>
</g>
<!-- Node1&#45;&gt;Node17 -->
<g id="edge21_Node000017_Node000001" class="edge">
<title>Node1&#45;&gt;Node17</title>
<g id="a_edge21_Node000017_Node000001"><a xlink:title=" ">
<path fill="none" stroke="#63b8ff" d="M1554.28,-170.15C1576.4,-165.03 1602.72,-157.47 1625,-147 1637.14,-141.29 1649.43,-133.17 1659.77,-125.52"/>
<polygon fill="none" stroke="#63b8ff" points="1659.87,-125.45 1662.19,-118.62 1669.38,-118.14 1667.06,-124.97 1659.87,-125.45"/>
</a>
</g>
<text text-anchor="middle" x="1673" y="-139" font-family="Helvetica,sans-Serif" font-size="10.00" fill="grey"> +elements</text>
</g>
<!-- Node18 -->
<g id="Node000018" class="node">
<title>Node18</title>
<g id="a_Node000018"><a xlink:title=" ">
<polygon fill="white" stroke="transparent" points="1362,-118 1238,-118 1238,-88 1362,-88 1362,-118"/>
<text text-anchor="start" x="1242" y="-106" font-family="Helvetica,sans-Serif" font-size="10.00">std::shared_ptr&lt; web</text>
<text text-anchor="start" x="1242" y="-95" font-family="Helvetica,sans-Serif" font-size="10.00">::http::client::Request &gt;</text>
<polygon fill="none" stroke="#666666" points="1238,-88 1238,-118 1362,-118 1362,-88 1238,-88"/>
</a>
</g>
</g>
<!-- Node1&#45;&gt;Node18 -->
<g id="edge23_Node000018_Node000001" class="edge">
<title>Node1&#45;&gt;Node18</title>
<g id="a_edge23_Node000018_Node000001"><a xlink:title=" ">
<path fill="none" stroke="#63b8ff" d="M1459.77,-173.89C1429.9,-169.44 1391.02,-161.35 1359,-147 1346.98,-141.61 1335,-133.52 1325,-125.79"/>
<polygon fill="none" stroke="#63b8ff" points="1324.72,-125.56 1317.54,-124.9 1315.39,-118.01 1322.57,-118.68 1324.72,-125.56"/>
</a>
</g>
<text text-anchor="middle" x="1371.5" y="-139" font-family="Helvetica,sans-Serif" font-size="10.00" fill="grey"> +ptr</text>
</g>
<!-- Node2 -->
<g id="Node000002" class="node">
<title>Node2</title>
<g id="a_Node000002"><a xlink:href="classcore_1_1pipe_1_1Sink.html" target="_top" xlink:title=" ">
<polygon fill="white" stroke="transparent" points="1773,-284.5 1689,-284.5 1689,-265.5 1773,-265.5 1773,-284.5"/>
<text text-anchor="start" x="1693" y="-272" font-family="Helvetica,sans-Serif" font-size="10.00">core::pipe::Sink</text>
<polygon fill="none" stroke="#666666" points="1689,-265.5 1689,-284.5 1773,-284.5 1773,-265.5 1689,-265.5"/>
</a>
</g>
</g>
<!-- Node2&#45;&gt;Node1 -->
<g id="edge1_Node000001_Node000002" class="edge">
<title>Node2&#45;&gt;Node1</title>
<g id="a_edge1_Node000001_Node000002"><a xlink:title=" ">
<path fill="none" stroke="#63b8ff" d="M1715.25,-258.39C1700.24,-244.4 1676.37,-224.39 1652,-213 1621.06,-198.53 1583.3,-190.47 1554.07,-186.06"/>
<polygon fill="none" stroke="#63b8ff" points="1712.98,-261.06 1722.62,-265.44 1717.82,-256 1712.98,-261.06"/>
</a>
</g>
</g>
<!-- Node3 -->
<g id="Node000003" class="node">
<title>Node3</title>
<g id="a_Node000003"><a xlink:href="classcore_1_1pipe_1_1Source.html" target="_top" xlink:title=" ">
<polygon fill="white" stroke="transparent" points="1778,-189.5 1682,-189.5 1682,-170.5 1778,-170.5 1778,-189.5"/>
<text text-anchor="start" x="1686" y="-177" font-family="Helvetica,sans-Serif" font-size="10.00">core::pipe::Source</text>
<polygon fill="none" stroke="#666666" points="1682,-170.5 1682,-189.5 1778,-189.5 1778,-170.5 1682,-170.5"/>
</a>
</g>
</g>
<!-- Node2&#45;&gt;Node3 -->
<g id="edge3_Node000003_Node000002" class="edge">
<title>Node2&#45;&gt;Node3</title>
<g id="a_edge3_Node000003_Node000002"><a xlink:title=" ">
<path fill="none" stroke="#63b8ff" d="M1733.92,-265.31C1737.52,-253.47 1742.84,-231.63 1740,-213 1739.4,-209.04 1738.39,-204.9 1737.25,-200.96"/>
<polygon fill="none" stroke="#63b8ff" points="1737.24,-200.91 1731.54,-196.48 1733.44,-189.52 1739.13,-193.95 1737.24,-200.91"/>
</a>
</g>
<text text-anchor="middle" x="1754" y="-221.5" font-family="Helvetica,sans-Serif" font-size="10.00" fill="grey"> &#45;sink</text>
</g>
<!-- Node3&#45;&gt;Node2 -->
<g id="edge2_Node000002_Node000003" class="edge">
<title>Node3&#45;&gt;Node2</title>
<g id="a_edge2_Node000002_Node000003"><a xlink:title=" ">
<path fill="none" stroke="#63b8ff" d="M1718.3,-189.67C1711.56,-195.44 1703.7,-203.65 1700,-213 1696.4,-222.09 1696.78,-225.77 1700,-235 1702.7,-242.74 1707.66,-250.1 1712.82,-256.29"/>
<polygon fill="none" stroke="#63b8ff" points="1713.19,-256.69 1720.2,-258.37 1721.36,-265.49 1714.34,-263.81 1713.19,-256.69"/>
</a>
</g>
<text text-anchor="middle" x="1720" y="-221.5" font-family="Helvetica,sans-Serif" font-size="10.00" fill="grey"> &#45;source</text>
</g>
<!-- Node4 -->
<g id="Node000004" class="node">
<title>Node4</title>
<g id="a_Node000004"><a xlink:title=" ">
<polygon fill="white" stroke="transparent" points="894,-465 836,-465 836,-446 894,-446 894,-465"/>
<text text-anchor="start" x="840.5" y="-452.5" font-family="Helvetica,sans-Serif" font-size="10.00">std::string</text>
<polygon fill="none" stroke="#666666" points="836,-446 836,-465 894,-465 894,-446 836,-446"/>
</a>
</g>
</g>
<!-- Node4&#45;&gt;Node1 -->
<g id="edge4_Node000001_Node000004" class="edge">
<title>Node4&#45;&gt;Node1</title>
<g id="a_edge4_Node000001_Node000004"><a xlink:title=" ">
<path fill="none" stroke="#63b8ff" d="M894.34,-452.68C1001.06,-445.48 1366.5,-415.38 1447,-337 1483.34,-301.62 1498.03,-241.82 1503.69,-207.45"/>
<polygon fill="none" stroke="#63b8ff" points="1503.74,-207.09 1500.66,-200.57 1505.5,-195.22 1508.58,-201.74 1503.74,-207.09"/>
</a>
</g>
<text text-anchor="middle" x="1488.5" y="-329" font-family="Helvetica,sans-Serif" font-size="10.00" fill="grey"> +method</text>
<text text-anchor="middle" x="1488.5" y="-318" font-family="Helvetica,sans-Serif" font-size="10.00" fill="grey">+url</text>
</g>
<!-- Node16 -->
<g id="Node000016" class="node">
<title>Node16</title>
<g id="a_Node000016"><a xlink:href="classcore_1_1socket_1_1stream_1_1SocketConnection.html" target="_top" xlink:title=" ">
<polygon fill="white" stroke="transparent" points="1346,-290 1238,-290 1238,-260 1346,-260 1346,-290"/>
<text text-anchor="start" x="1242" y="-278" font-family="Helvetica,sans-Serif" font-size="10.00">core::socket::stream</text>
<text text-anchor="start" x="1245" y="-267" font-family="Helvetica,sans-Serif" font-size="10.00">::SocketConnection</text>
<polygon fill="none" stroke="#666666" points="1238,-260 1238,-290 1346,-290 1346,-260 1238,-260"/>
</a>
</g>
</g>
<!-- Node4&#45;&gt;Node16 -->
<g id="edge19_Node000016_Node000004" class="edge">
<title>Node4&#45;&gt;Node16</title>
<g id="a_edge19_Node000016_Node000004"><a xlink:title=" ">
<path fill="none" stroke="#63b8ff" d="M882.13,-445.81C903.33,-435.02 940.48,-415.95 972,-399 1007.4,-379.97 1014.18,-371.11 1051,-355 1109.32,-329.48 1178.64,-307.59 1227.92,-293.37"/>
<polygon fill="none" stroke="#63b8ff" points="1228.15,-293.3 1232.82,-287.81 1239.69,-290.01 1235.02,-295.5 1228.15,-293.3"/>
</a>
</g>
<text text-anchor="middle" x="1098.5" y="-380" font-family="Helvetica,sans-Serif" font-size="10.00" fill="grey"> #configuredServer</text>
<text text-anchor="middle" x="1098.5" y="-369" font-family="Helvetica,sans-Serif" font-size="10.00" fill="grey">#instanceName</text>
</g>
<!-- Node20 -->
<g id="Node000020" class="node">
<title>Node20</title>
<g id="a_Node000020"><a xlink:href="classweb_1_1http_1_1Parser.html" target="_top" xlink:title=" ">
<polygon fill="white" stroke="transparent" points="752,-189.5 660,-189.5 660,-170.5 752,-170.5 752,-189.5"/>
<text text-anchor="start" x="664.5" y="-177" font-family="Helvetica,sans-Serif" font-size="10.00">web::http::Parser</text>
<polygon fill="none" stroke="#666666" points="660,-170.5 660,-189.5 752,-189.5 752,-170.5 660,-170.5"/>
</a>
</g>
</g>
<!-- Node4&#45;&gt;Node20 -->
<g id="edge39_Node000020_Node000004" class="edge">
<title>Node4&#45;&gt;Node20</title>
<g id="a_edge39_Node000020_Node000004"><a xlink:title=" ">
<path fill="none" stroke="#63b8ff" d="M835.82,-451.29C804.06,-446.14 754.42,-432.85 729,-399 684.23,-339.4 694.5,-243.39 701.8,-201.57"/>
<polygon fill="none" stroke="#63b8ff" points="701.83,-201.39 699.03,-194.75 704.08,-189.6 706.89,-196.24 701.83,-201.39"/>
</a>
</g>
<text text-anchor="middle" x="716" y="-323.5" font-family="Helvetica,sans-Serif" font-size="10.00" fill="grey"> #line</text>
</g>
<!-- Node24 -->
<g id="Node000024" class="node">
<title>Node24</title>
<g id="a_Node000024"><a xlink:href="classweb_1_1http_1_1decoder_1_1Fields.html" target="_top" xlink:title=" ">
<polygon fill="white" stroke="transparent" points="979,-290 879,-290 879,-260 979,-260 979,-290"/>
<text text-anchor="start" x="883.5" y="-278" font-family="Helvetica,sans-Serif" font-size="10.00">web::http::decoder</text>
<text text-anchor="start" x="912" y="-267" font-family="Helvetica,sans-Serif" font-size="10.00">::Fields</text>
<polygon fill="none" stroke="#666666" points="879,-260 879,-290 979,-290 979,-260 879,-260"/>
</a>
</g>
</g>
<!-- Node4&#45;&gt;Node24 -->
<g id="edge37_Node000024_Node000004" class="edge">
<title>Node4&#45;&gt;Node24</title>
<g id="a_edge37_Node000024_Node000004"><a xlink:title=" ">
<path fill="none" stroke="#63b8ff" d="M868.8,-445.72C870.98,-440.58 873.73,-433.96 876,-428 892.74,-384.13 910.33,-332.38 920.45,-301.98"/>
<polygon fill="none" stroke="#63b8ff" points="920.53,-301.74 918.62,-294.79 924.31,-290.35 926.21,-297.3 920.53,-301.74"/>
</a>
</g>
<text text-anchor="middle" x="934.5" y="-380" font-family="Helvetica,sans-Serif" font-size="10.00" fill="grey"> &#45;errorReason</text>
<text text-anchor="middle" x="934.5" y="-369" font-family="Helvetica,sans-Serif" font-size="10.00" fill="grey">&#45;line</text>
</g>
<!-- Node25 -->
<g id="Node000025" class="node">
<title>Node25</title>
<g id="a_Node000025"><a xlink:title=" ">
<polygon fill="white" stroke="transparent" points="854,-386.5 738,-386.5 738,-367.5 854,-367.5 854,-386.5"/>
<text text-anchor="start" x="742" y="-374" font-family="Helvetica,sans-Serif" font-size="10.00">std::set&lt; std::string &gt;</text>
<polygon fill="none" stroke="#666666" points="738,-367.5 738,-386.5 854,-386.5 854,-367.5 738,-367.5"/>
</a>
</g>
</g>
<!-- Node4&#45;&gt;Node25 -->
<g id="edge36_Node000025_Node000004" class="edge">
<title>Node4&#45;&gt;Node25</title>
<g id="a_edge36_Node000025_Node000004"><a xlink:title=" ">
<path fill="none" stroke="#63b8ff" d="M857.08,-445.72C846.17,-433.62 826.23,-411.52 812.11,-395.86"/>
<polygon fill="none" stroke="#63b8ff" points="811.86,-395.58 804.87,-393.81 803.82,-386.67 810.81,-388.45 811.86,-395.58"/>
</a>
</g>
<text text-anchor="middle" x="857" y="-420" font-family="Helvetica,sans-Serif" font-size="10.00" fill="grey"> +keys</text>
</g>
<!-- Node26 -->
<g id="Node000026" class="node">
<title>Node26</title>
<g id="a_Node000026"><a xlink:href="classweb_1_1http_1_1client_1_1Response.html" target="_top" xlink:title=" ">
<polygon fill="white" stroke="transparent" points="231,-290 137,-290 137,-260 231,-260 231,-290"/>
<text text-anchor="start" x="141.5" y="-278" font-family="Helvetica,sans-Serif" font-size="10.00">web::http::client::</text>
<text text-anchor="start" x="160" y="-267" font-family="Helvetica,sans-Serif" font-size="10.00">Response</text>
<polygon fill="none" stroke="#666666" points="137,-260 137,-290 231,-290 231,-260 137,-260"/>
</a>
</g>
</g>
<!-- Node4&#45;&gt;Node26 -->
<g id="edge41_Node000026_Node000004" class="edge">
<title>Node4&#45;&gt;Node26</title>
<g id="a_edge41_Node000026_Node000004"><a xlink:title=" ">
<path fill="none" stroke="#63b8ff" d="M835.9,-453.4C729.56,-449.11 366.08,-432.13 327,-399 297.47,-373.97 330.72,-343.01 304,-315 288.05,-298.28 264.88,-288.72 243.14,-283.26"/>
<polygon fill="none" stroke="#63b8ff" points="242.98,-283.22 236.25,-285.83 231.26,-280.62 237.98,-278.02 242.98,-283.22"/>
</a>
</g>
<text text-anchor="middle" x="361" y="-391" font-family="Helvetica,sans-Serif" font-size="10.00" fill="grey"> +httpVersion</text>
<text text-anchor="middle" x="361" y="-380" font-family="Helvetica,sans-Serif" font-size="10.00" fill="grey">+reason</text>
<text text-anchor="middle" x="361" y="-369" font-family="Helvetica,sans-Serif" font-size="10.00" fill="grey">+statusCode</text>
<text text-anchor="middle" x="361" y="-358" font-family="Helvetica,sans-Serif" font-size="10.00" fill="grey">&#45;nullstr</text>
</g>
<!-- Node5 -->
<g id="Node000005" class="node">
<title>Node5</title>
<g id="a_Node000005"><a xlink:title=" ">
<polygon fill="white" stroke="transparent" points="913,-542 817,-542 817,-512 913,-512 913,-542"/>
<text text-anchor="start" x="821" y="-530" font-family="Helvetica,sans-Serif" font-size="10.00">std::basic_string&lt;</text>
<text text-anchor="start" x="846.5" y="-519" font-family="Helvetica,sans-Serif" font-size="10.00"> Char &gt;</text>
<polygon fill="none" stroke="#666666" points="817,-512 817,-542 913,-542 913,-512 817,-512"/>
</a>
</g>
</g>
<!-- Node5&#45;&gt;Node4 -->
<g id="edge5_Node000004_Node000005" class="edge">
<title>Node5&#45;&gt;Node4</title>
<g id="a_edge5_Node000004_Node000005"><a xlink:title=" ">
<path fill="none" stroke="#63b8ff" d="M865,-501.56C865,-488.95 865,-474.35 865,-465.27"/>
<polygon fill="none" stroke="#63b8ff" points="861.5,-501.94 865,-511.94 868.5,-501.94 861.5,-501.94"/>
</a>
</g>
</g>
<!-- Node6 -->
<g id="Node000006" class="node">
<title>Node6</title>
<g id="a_Node000006"><a xlink:href="classweb_1_1http_1_1CiStringMap.html" target="_top" xlink:title=" ">
<polygon fill="white" stroke="transparent" points="682,-392 562,-392 562,-362 682,-362 682,-392"/>
<text text-anchor="start" x="566" y="-380" font-family="Helvetica,sans-Serif" font-size="10.00">web::http::CiStringMap</text>
<text text-anchor="start" x="586" y="-369" font-family="Helvetica,sans-Serif" font-size="10.00">&lt; std::string &gt;</text>
<polygon fill="none" stroke="#666666" points="562,-362 562,-392 682,-392 682,-362 562,-362"/>
</a>
</g>
</g>
<!-- Node6&#45;&gt;Node1 -->
<g id="edge6_Node000001_Node000006" class="edge">
<title>Node6&#45;&gt;Node1</title>
<g id="a_edge6_Node000001_Node000006"><a xlink:title=" ">
<path fill="none" stroke="#63b8ff" d="M682.05,-362.82C697.3,-359.85 713.7,-357 729,-355 759.03,-351.08 978.55,-357.33 1001,-337 1029.06,-311.6 987.97,-279.5 1015,-253 1075.22,-193.96 1330.1,-183.1 1447.43,-181.27"/>
<polygon fill="none" stroke="#63b8ff" points="1447.7,-181.27 1453.64,-177.18 1459.7,-181.1 1453.75,-185.18 1447.7,-181.27"/>
</a>
</g>
<text text-anchor="middle" x="1039.5" y="-289" font-family="Helvetica,sans-Serif" font-size="10.00" fill="grey"> #cookies</text>
<text text-anchor="middle" x="1039.5" y="-278" font-family="Helvetica,sans-Serif" font-size="10.00" fill="grey">#headers</text>
<text text-anchor="middle" x="1039.5" y="-267" font-family="Helvetica,sans-Serif" font-size="10.00" fill="grey">#queries</text>
<text text-anchor="middle" x="1039.5" y="-256" font-family="Helvetica,sans-Serif" font-size="10.00" fill="grey">#trailer</text>
</g>
<!-- Node6&#45;&gt;Node20 -->
<g id="edge26_Node000020_Node000006" class="edge">
<title>Node6&#45;&gt;Node20</title>
<g id="a_edge26_Node000020_Node000006"><a xlink:title=" ">
<path fill="none" stroke="#63b8ff" d="M621.59,-361.95C621.44,-338.27 623.53,-289.43 641,-253 651.41,-231.29 670.47,-211.36 685.27,-198.01"/>
<polygon fill="none" stroke="#63b8ff" points="685.6,-197.72 687.52,-190.77 694.68,-189.87 692.76,-196.82 685.6,-197.72"/>
</a>
</g>
<text text-anchor="middle" x="666.5" y="-272.5" font-family="Helvetica,sans-Serif" font-size="10.00" fill="grey"> #headers</text>
</g>
<!-- Node6&#45;&gt;Node24 -->
<g id="edge34_Node000024_Node000006" class="edge">
<title>Node6&#45;&gt;Node24</title>
<g id="a_edge34_Node000024_Node000006"><a xlink:title=" ">
<path fill="none" stroke="#63b8ff" d="M624.54,-361.74C627.92,-347.37 635.38,-325.81 651,-315 690.24,-287.84 818.23,-306.5 865,-297 869.7,-296.04 874.54,-294.86 879.35,-293.53"/>
<polygon fill="none" stroke="#63b8ff" points="879.65,-293.45 884.26,-287.9 891.15,-290.03 886.54,-295.57 879.65,-293.45"/>
</a>
</g>
<text text-anchor="middle" x="668" y="-323.5" font-family="Helvetica,sans-Serif" font-size="10.00" fill="grey"> &#45;fields</text>
</g>
<!-- Node6&#45;&gt;Node26 -->
<g id="edge42_Node000026_Node000006" class="edge">
<title>Node6&#45;&gt;Node26</title>
<g id="a_edge42_Node000026_Node000006"><a xlink:title=" ">
<path fill="none" stroke="#63b8ff" d="M579.58,-361.96C570.85,-359.39 561.68,-356.92 553,-355 496.91,-342.6 481.37,-348.06 425,-337 390.58,-330.24 302.7,-307.47 243.13,-291.75"/>
<polygon fill="none" stroke="#63b8ff" points="242.85,-291.68 236.03,-294.01 231.25,-288.61 238.08,-286.27 242.85,-291.68"/>
</a>
</g>
<text text-anchor="middle" x="450.5" y="-323.5" font-family="Helvetica,sans-Serif" font-size="10.00" fill="grey"> +headers</text>
</g>
<!-- Node7 -->
<g id="Node000007" class="node">
<title>Node7</title>
<g id="a_Node000007"><a xlink:title=" ">
<polygon fill="white" stroke="transparent" points="398,-465 304,-465 304,-446 398,-446 398,-465"/>
<text text-anchor="start" x="308.5" y="-452.5" font-family="Helvetica,sans-Serif" font-size="10.00">std::map&lt; K, T &gt;</text>
<polygon fill="none" stroke="#666666" points="304,-446 304,-465 398,-465 398,-446 304,-446"/>
</a>
</g>
</g>
<!-- Node7&#45;&gt;Node6 -->
<g id="edge7_Node000006_Node000007" class="edge">
<title>Node7&#45;&gt;Node6</title>
<g id="a_edge7_Node000006_Node000007"><a xlink:title=" ">
<path fill="none" stroke="#63b8ff" d="M393.16,-443.28C434.09,-432.3 497.93,-414.94 553,-399 560.58,-396.81 568.6,-394.42 576.4,-392.07"/>
<polygon fill="none" stroke="#63b8ff" points="392.02,-439.96 383.26,-445.93 393.83,-446.72 392.02,-439.96"/>
</a>
</g>
</g>
<!-- Node8 -->
<g id="Node000008" class="node">
<title>Node8</title>
<g id="a_Node000008"><a xlink:title=" ">
<polygon fill="white" stroke="transparent" points="294,-536.5 278,-536.5 278,-517.5 294,-517.5 294,-536.5"/>
<text text-anchor="start" x="282.5" y="-524" font-family="Helvetica,sans-Serif" font-size="10.00">K</text>
<polygon fill="none" stroke="#666666" points="278,-517.5 278,-536.5 294,-536.5 294,-517.5 278,-517.5"/>
</a>
</g>
</g>
<!-- Node8&#45;&gt;Node7 -->
<g id="edge8_Node000007_Node000008" class="edge">
<title>Node8&#45;&gt;Node7</title>
<g id="a_edge8_Node000007_Node000008"><a xlink:title=" ">
<path fill="none" stroke="#63b8ff" d="M294.11,-519.53C301.68,-513.33 313.1,-503.53 322,-494 327.41,-488.21 332.85,-481.47 337.53,-475.32"/>
<polygon fill="none" stroke="#63b8ff" points="337.86,-474.87 338.2,-467.67 344.98,-465.2 344.64,-472.41 337.86,-474.87"/>
</a>
</g>
<text text-anchor="middle" x="349" y="-486" font-family="Helvetica,sans-Serif" font-size="10.00" fill="grey"> +keys</text>
</g>
<!-- Node28 -->
<g id="Node000028" class="node">
<title>Node28</title>
<g id="a_Node000028"><a xlink:title=" ">
<polygon fill="white" stroke="transparent" points="164,-465 70,-465 70,-446 164,-446 164,-465"/>
<text text-anchor="start" x="74.5" y="-452.5" font-family="Helvetica,sans-Serif" font-size="10.00">std::map&lt; K, T &gt;</text>
<polygon fill="none" stroke="#666666" points="70,-446 70,-465 164,-465 164,-446 70,-446"/>
</a>
</g>
</g>
<!-- Node8&#45;&gt;Node28 -->
<g id="edge45_Node000028_Node000008" class="edge">
<title>Node8&#45;&gt;Node28</title>
<g id="a_edge45_Node000028_Node000008"><a xlink:title=" ">
<path fill="none" stroke="#63b8ff" d="M277.77,-523.02C262.91,-517.58 230.64,-505.55 204,-494 193.6,-489.49 191.35,-487.61 181,-483 170.89,-478.5 159.79,-473.81 149.7,-469.65"/>
<polygon fill="none" stroke="#63b8ff" points="149.56,-469.59 142.5,-471.02 138.46,-465.05 145.52,-463.62 149.56,-469.59"/>
</a>
</g>
<text text-anchor="middle" x="221" y="-486" font-family="Helvetica,sans-Serif" font-size="10.00" fill="grey"> +keys</text>
</g>
<!-- Node9 -->
<g id="Node000009" class="node">
<title>Node9</title>
<g id="a_Node000009"><a xlink:title=" ">
<polygon fill="white" stroke="transparent" points="201,-536.5 185,-536.5 185,-517.5 201,-517.5 201,-536.5"/>
<text text-anchor="start" x="189.5" y="-524" font-family="Helvetica,sans-Serif" font-size="10.00">T</text>
<polygon fill="none" stroke="#666666" points="185,-517.5 185,-536.5 201,-536.5 201,-517.5 185,-517.5"/>
</a>
</g>
</g>
<!-- Node9&#45;&gt;Node7 -->
<g id="edge9_Node000007_Node000009" class="edge">
<title>Node9&#45;&gt;Node7</title>
<g id="a_edge9_Node000007_Node000009"><a xlink:title=" ">
<path fill="none" stroke="#63b8ff" d="M201.2,-520.31C216.27,-509.93 247.92,-488.49 260,-483 272.86,-477.15 287.33,-472.24 300.88,-468.31"/>
<polygon fill="none" stroke="#63b8ff" points="300.92,-468.29 305.64,-462.84 312.49,-465.09 307.77,-470.55 300.92,-468.29"/>
</a>
</g>
<text text-anchor="middle" x="289" y="-486" font-family="Helvetica,sans-Serif" font-size="10.00" fill="grey"> +elements</text>
</g>
<!-- Node9&#45;&gt;Node28 -->
<g id="edge46_Node000028_Node000009" class="edge">
<title>Node9&#45;&gt;Node28</title>
<g id="a_edge46_Node000028_Node000009"><a xlink:title=" ">
<path fill="none" stroke="#63b8ff" d="M184.98,-524.83C170.14,-522.21 138.53,-514.42 123,-494 119.35,-489.21 117.55,-483.06 116.73,-477.14"/>
<polygon fill="none" stroke="#63b8ff" points="116.73,-477.12 112.46,-471.31 116.19,-465.13 120.46,-470.95 116.73,-477.12"/>
</a>
</g>
<text text-anchor="middle" x="152" y="-486" font-family="Helvetica,sans-Serif" font-size="10.00" fill="grey"> +elements</text>
</g>
<!-- Node10 -->
<g id="Node000010" class="node">
<title>Node10</title>
<g id="a_Node000010"><a xlink:title=" ">
<polygon fill="white" stroke="transparent" points="1671,-290 1513,-290 1513,-260 1671,-260 1671,-290"/>
<text text-anchor="start" x="1517.5" y="-278" font-family="Helvetica,sans-Serif" font-size="10.00">std::list&lt; web::http</text>
<text text-anchor="start" x="1517.5" y="-267" font-family="Helvetica,sans-Serif" font-size="10.00">::client::RequestCommand * &gt;</text>
<polygon fill="none" stroke="#666666" points="1513,-260 1513,-290 1671,-290 1671,-260 1513,-260"/>
</a>
</g>
</g>
<!-- Node10&#45;&gt;Node1 -->
<g id="edge10_Node000001_Node000010" class="edge">
<title>Node10&#45;&gt;Node1</title>
<g id="a_edge10_Node000001_Node000010"><a xlink:title=" ">
<path fill="none" stroke="#63b8ff" d="M1576.82,-259.91C1569.19,-252.65 1559.9,-243.54 1552,-235 1543.02,-225.29 1533.58,-214.13 1525.68,-204.48"/>
<polygon fill="none" stroke="#63b8ff" points="1525.63,-204.42 1518.75,-202.28 1518.08,-195.1 1524.97,-197.24 1525.63,-204.42"/>
</a>
</g>
<text text-anchor="middle" x="1602" y="-221.5" font-family="Helvetica,sans-Serif" font-size="10.00" fill="grey"> &#45;requestCommands</text>
</g>
<!-- Node11 -->
<g id="Node000011" class="node">
<title>Node11</title>
<g id="a_Node000011"><a xlink:href="classweb_1_1http_1_1client_1_1RequestCommand.html" target="_top" xlink:title=" ">
<polygon fill="white" stroke="transparent" points="1642,-392 1542,-392 1542,-362 1642,-362 1642,-392"/>
<text text-anchor="start" x="1546.5" y="-380" font-family="Helvetica,sans-Serif" font-size="10.00">web::http::client::</text>
<text text-anchor="start" x="1546.5" y="-369" font-family="Helvetica,sans-Serif" font-size="10.00">RequestCommand</text>
<polygon fill="none" stroke="#666666" points="1542,-362 1542,-392 1642,-392 1642,-362 1542,-362"/>
</a>
</g>
</g>
<!-- Node11&#45;&gt;Node10 -->
<g id="edge11_Node000010_Node000011" class="edge">
<title>Node11&#45;&gt;Node10</title>
<g id="a_edge11_Node000010_Node000011"><a xlink:title=" ">
<path fill="none" stroke="#63b8ff" d="M1592,-361.67C1592,-346.23 1592,-321.3 1592,-302.31"/>
<polygon fill="none" stroke="#63b8ff" points="1592,-302.3 1588,-296.3 1592,-290.3 1596,-296.3 1592,-302.3"/>
</a>
</g>
<text text-anchor="middle" x="1621" y="-323.5" font-family="Helvetica,sans-Serif" font-size="10.00" fill="grey"> +elements</text>
</g>
<!-- Node12&#45;&gt;Node1 -->
<g id="edge12_Node000001_Node000012" class="edge">
<title>Node12&#45;&gt;Node1</title>
<g id="a_edge12_Node000001_Node000012"><a xlink:title=" ">
<path fill="none" stroke="#63b8ff" d="M1548.58,-118.36C1544.53,-126.92 1538.95,-137.87 1533,-147 1531.19,-149.77 1529.19,-152.59 1527.12,-155.34"/>
<polygon fill="none" stroke="#63b8ff" points="1527.04,-155.44 1526.44,-162.62 1519.58,-164.83 1520.18,-157.65 1527.04,-155.44"/>
</a>
</g>
<text text-anchor="middle" x="1580" y="-139" font-family="Helvetica,sans-Serif" font-size="10.00" fill="grey"> &#45;masterRequest</text>
</g>
<!-- Node13 -->
<g id="Node000013" class="node">
<title>Node13</title>
<g id="a_Node000013"><a xlink:href="classweb_1_1http_1_1client_1_1SocketContext.html" target="_top" xlink:title=" ">
<polygon fill="white" stroke="transparent" points="1347,-30 1253,-30 1253,0 1347,0 1347,-30"/>
<text text-anchor="start" x="1257.5" y="-18" font-family="Helvetica,sans-Serif" font-size="10.00">web::http::client::</text>
<text text-anchor="start" x="1264.5" y="-7" font-family="Helvetica,sans-Serif" font-size="10.00">SocketContext</text>
<polygon fill="none" stroke="#666666" points="1253,0 1253,-30 1347,-30 1347,0 1253,0"/>
</a>
</g>
</g>
<!-- Node13&#45;&gt;Node1 -->
<g id="edge14_Node000001_Node000013" class="edge">
<title>Node13&#45;&gt;Node1</title>
<g id="a_edge14_Node000001_Node000013"><a xlink:title=" ">
<path fill="none" stroke="#63b8ff" d="M1347.05,-25.79C1360.45,-30.56 1374.09,-37.61 1384,-48 1406.61,-71.69 1386.66,-92.34 1407,-118 1421.04,-135.72 1441.75,-149.55 1460.69,-159.53"/>
<polygon fill="none" stroke="#63b8ff" points="1460.83,-159.6 1467.98,-158.71 1471.56,-164.97 1464.41,-165.86 1460.83,-159.6"/>
</a>
</g>
<text text-anchor="middle" x="1445.5" y="-100.5" font-family="Helvetica,sans-Serif" font-size="10.00" fill="grey"> &#45;socketContext</text>
</g>
<!-- Node14 -->
<g id="Node000014" class="node">
<title>Node14</title>
<g id="a_Node000014"><a xlink:href="classcore_1_1socket_1_1stream_1_1SocketContext.html" target="_top" xlink:title=" ">
<polygon fill="white" stroke="transparent" points="1263,-392 1155,-392 1155,-362 1263,-362 1263,-392"/>
<text text-anchor="start" x="1159" y="-380" font-family="Helvetica,sans-Serif" font-size="10.00">core::socket::stream</text>
<text text-anchor="start" x="1170.5" y="-369" font-family="Helvetica,sans-Serif" font-size="10.00">::SocketContext</text>
<polygon fill="none" stroke="#666666" points="1155,-362 1155,-392 1263,-392 1263,-362 1155,-362"/>
</a>
</g>
</g>
<!-- Node14&#45;&gt;Node13 -->
<g id="edge15_Node000013_Node000014" class="edge">
<title>Node14&#45;&gt;Node13</title>
<g id="a_edge15_Node000013_Node000014"><a xlink:title=" ">
<path fill="none" stroke="#63b8ff" d="M1209.26,-351.55C1209.56,-321.68 1210,-269.63 1210,-225 1210,-225 1210,-225 1210,-102 1210,-68.61 1242.78,-44.2 1268.77,-30.09"/>
<polygon fill="none" stroke="#63b8ff" points="1205.76,-351.81 1209.16,-361.84 1212.76,-351.88 1205.76,-351.81"/>
</a>
</g>
</g>
<!-- Node14&#45;&gt;Node16 -->
<g id="edge18_Node000016_Node000014" class="edge">
<title>Node14&#45;&gt;Node16</title>
<g id="a_edge18_Node000016_Node000014"><a xlink:title=" ">
<path fill="none" stroke="#63b8ff" d="M1263.3,-373.9C1290.02,-369.78 1320.06,-359.87 1337,-337 1346.58,-324.07 1336.73,-309.57 1323.84,-297.95"/>
<polygon fill="none" stroke="#63b8ff" points="1323.45,-297.64 1316.27,-296.95 1314.14,-290.06 1321.32,-290.75 1323.45,-297.64"/>
</a>
</g>
<text text-anchor="middle" x="1391.5" y="-329" font-family="Helvetica,sans-Serif" font-size="10.00" fill="grey"> #newSocketContext</text>
<text text-anchor="middle" x="1391.5" y="-318" font-family="Helvetica,sans-Serif" font-size="10.00" fill="grey">#socketContext</text>
</g>
<!-- Node14&#45;&gt;Node20 -->
<g id="edge31_Node000020_Node000014" class="edge">
<title>Node14&#45;&gt;Node20</title>
<g id="a_edge31_Node000020_Node000014"><a xlink:title=" ">
<path fill="none" stroke="#63b8ff" d="M1191.18,-361.8C1171.86,-346.25 1140.25,-320.42 1114,-297 1092.89,-278.17 1092.69,-266.82 1068,-253 971.14,-198.79 839.61,-184.98 764.68,-181.71"/>
<polygon fill="none" stroke="#63b8ff" points="764.25,-181.7 758.11,-185.47 752.26,-181.24 758.41,-177.47 764.25,-181.7"/>
</a>
</g>
<text text-anchor="middle" x="1155" y="-272.5" font-family="Helvetica,sans-Serif" font-size="10.00" fill="grey"> #socketContext</text>
</g>
<!-- Node14&#45;&gt;Node24 -->
<g id="edge33_Node000024_Node000014" class="edge">
<title>Node14&#45;&gt;Node24</title>
<g id="a_edge33_Node000024_Node000014"><a xlink:title=" ">
<path fill="none" stroke="#63b8ff" d="M1166.58,-361.94C1157.86,-359.37 1148.68,-356.91 1140,-355 1082.6,-342.4 1063.27,-359.56 1009,-337 987.57,-328.09 966.83,-311.99 951.84,-298.57"/>
<polygon fill="none" stroke="#63b8ff" points="951.66,-298.41 944.54,-297.25 942.87,-290.24 949.99,-291.39 951.66,-298.41"/>
</a>
</g>
<text text-anchor="middle" x="1047.5" y="-323.5" font-family="Helvetica,sans-Serif" font-size="10.00" fill="grey"> &#45;socketContext</text>
</g>
<!-- Node15 -->
<g id="Node000015" class="node">
<title>Node15</title>
<g id="a_Node000015"><a xlink:href="classcore_1_1socket_1_1SocketContext.html" target="_top" xlink:title=" ">
<polygon fill="white" stroke="transparent" points="1281,-465 1137,-465 1137,-446 1281,-446 1281,-465"/>
<text text-anchor="start" x="1141" y="-452.5" font-family="Helvetica,sans-Serif" font-size="10.00">core::socket::SocketContext</text>
<polygon fill="none" stroke="#666666" points="1137,-446 1137,-465 1281,-465 1281,-446 1137,-446"/>
</a>
</g>
</g>
<!-- Node15&#45;&gt;Node14 -->
<g id="edge16_Node000014_Node000015" class="edge">
<title>Node15&#45;&gt;Node14</title>
<g id="a_edge16_Node000014_Node000015"><a xlink:title=" ">
<path fill="none" stroke="#63b8ff" d="M1209,-435.66C1209,-422.19 1209,-404.36 1209,-392.11"/>
<polygon fill="none" stroke="#63b8ff" points="1205.5,-435.72 1209,-445.72 1212.5,-435.72 1205.5,-435.72"/>
</a>
</g>
</g>
<!-- Node16&#45;&gt;Node14 -->
<g id="edge17_Node000014_Node000016" class="edge">
<title>Node16&#45;&gt;Node14</title>
<g id="a_edge17_Node000014_Node000016"><a xlink:title=" ">
<path fill="none" stroke="#63b8ff" d="M1270.41,-290.32C1261.24,-297.09 1250.88,-305.71 1243,-315 1233.92,-325.7 1226.1,-339.2 1220.25,-350.78"/>
<polygon fill="none" stroke="#63b8ff" points="1220.09,-351.13 1221.11,-358.26 1214.91,-361.95 1213.89,-354.81 1220.09,-351.13"/>
</a>
</g>
<text text-anchor="middle" x="1290" y="-323.5" font-family="Helvetica,sans-Serif" font-size="10.00" fill="grey"> &#45;socketConnection</text>
</g>
<!-- Node17&#45;&gt;Node13 -->
<g id="edge20_Node000013_Node000017" class="edge">
<title>Node17&#45;&gt;Node13</title>
<g id="a_edge20_Node000013_Node000017"><a xlink:title=" ">
<path fill="none" stroke="#63b8ff" d="M1634.95,-90.04C1631.92,-89.35 1628.92,-88.66 1626,-88 1532.81,-66.84 1424.44,-43.07 1359.09,-28.83"/>
<polygon fill="none" stroke="#63b8ff" points="1358.73,-28.75 1352.02,-31.38 1347.01,-26.2 1353.72,-23.57 1358.73,-28.75"/>
</a>
</g>
<text text-anchor="middle" x="1594" y="-62" font-family="Helvetica,sans-Serif" font-size="10.00" fill="grey"> &#45;deliveredRequests</text>
<text text-anchor="middle" x="1594" y="-51" font-family="Helvetica,sans-Serif" font-size="10.00" fill="grey">&#45;pendingRequests</text>
</g>
<!-- Node18&#45;&gt;Node13 -->
<g id="edge22_Node000013_Node000018" class="edge">
<title>Node18&#45;&gt;Node13</title>
<g id="a_edge22_Node000013_Node000018"><a xlink:title=" ">
<path fill="none" stroke="#63b8ff" d="M1300,-87.8C1300,-75.47 1300,-57.31 1300,-42.33"/>
<polygon fill="none" stroke="#63b8ff" points="1300,-42.22 1296,-36.22 1300,-30.22 1304,-36.22 1300,-42.22"/>
</a>
</g>
<text text-anchor="middle" x="1341" y="-62" font-family="Helvetica,sans-Serif" font-size="10.00" fill="grey"> &#45;currentRequest</text>
<text text-anchor="middle" x="1341" y="-51" font-family="Helvetica,sans-Serif" font-size="10.00" fill="grey">&#45;masterRequest</text>
</g>
<!-- Node19 -->
<g id="Node000019" class="node">
<title>Node19</title>
<g id="a_Node000019"><a xlink:href="classweb_1_1http_1_1client_1_1ResponseParser.html" target="_top" xlink:title=" ">
<polygon fill="white" stroke="transparent" points="753,-118 659,-118 659,-88 753,-88 753,-118"/>
<text text-anchor="start" x="663.5" y="-106" font-family="Helvetica,sans-Serif" font-size="10.00">web::http::client::</text>
<text text-anchor="start" x="666.5" y="-95" font-family="Helvetica,sans-Serif" font-size="10.00">ResponseParser</text>
<polygon fill="none" stroke="#666666" points="659,-88 659,-118 753,-118 753,-88 659,-88"/>
</a>
</g>
</g>
<!-- Node19&#45;&gt;Node13 -->
<g id="edge24_Node000013_Node000019" class="edge">
<title>Node19&#45;&gt;Node13</title>
<g id="a_edge24_Node000013_Node000019"><a xlink:title=" ">
<path fill="none" stroke="#63b8ff" d="M753.11,-95.18C860.44,-79.64 1122.97,-41.63 1240.92,-24.55"/>
<polygon fill="none" stroke="#63b8ff" points="1241.01,-24.54 1246.38,-19.72 1252.89,-22.82 1247.52,-27.64 1241.01,-24.54"/>
</a>
</g>
<text text-anchor="middle" x="1092" y="-56.5" font-family="Helvetica,sans-Serif" font-size="10.00" fill="grey"> &#45;parser</text>
</g>
<!-- Node20&#45;&gt;Node19 -->
<g id="edge25_Node000019_Node000020" class="edge">
<title>Node20&#45;&gt;Node19</title>
<g id="a_edge25_Node000019_Node000020"><a xlink:title=" ">
<path fill="none" stroke="#63b8ff" d="M706,-160.2C706,-147.14 706,-130.01 706,-118.11"/>
<polygon fill="none" stroke="#63b8ff" points="702.5,-160.4 706,-170.4 709.5,-160.4 702.5,-160.4"/>
</a>
</g>
</g>
<!-- Node21 -->
<g id="Node000021" class="node">
<title>Node21</title>
<g id="a_Node000021"><a xlink:title=" ">
<polygon fill="white" stroke="transparent" points="286,-465 182,-465 182,-446 286,-446 286,-465"/>
<text text-anchor="start" x="186" y="-452.5" font-family="Helvetica,sans-Serif" font-size="10.00">std::vector&lt; char &gt;</text>
<polygon fill="none" stroke="#666666" points="182,-446 182,-465 286,-465 286,-446 182,-446"/>
</a>
</g>
</g>
<!-- Node21&#45;&gt;Node20 -->
<g id="edge27_Node000020_Node000021" class="edge">
<title>Node21&#45;&gt;Node20</title>
<g id="a_edge27_Node000020_Node000021"><a xlink:title=" ">
<path fill="none" stroke="#63b8ff" d="M234.83,-445.81C237.52,-421.97 248.08,-354.66 284,-315 379.09,-210.01 555.95,-186.74 647.58,-181.94"/>
<polygon fill="none" stroke="#63b8ff" points="647.68,-181.93 653.49,-177.66 659.66,-181.39 653.85,-185.66 647.68,-181.93"/>
</a>
</g>
<text text-anchor="middle" x="308.5" y="-323.5" font-family="Helvetica,sans-Serif" font-size="10.00" fill="grey"> #content</text>
</g>
<!-- Node23 -->
<g id="Node000023" class="node">
<title>Node23</title>
<g id="a_Node000023"><a xlink:href="classweb_1_1http_1_1ContentDecoder.html" target="_top" xlink:title=" ">
<polygon fill="white" stroke="transparent" points="544,-386.5 404,-386.5 404,-367.5 544,-367.5 544,-386.5"/>
<text text-anchor="start" x="408.5" y="-374" font-family="Helvetica,sans-Serif" font-size="10.00">web::http::ContentDecoder</text>
<polygon fill="none" stroke="#666666" points="404,-367.5 404,-386.5 544,-386.5 544,-367.5 404,-367.5"/>
</a>
</g>
</g>
<!-- Node21&#45;&gt;Node23 -->
<g id="edge30_Node000023_Node000021" class="edge">
<title>Node21&#45;&gt;Node23</title>
<g id="a_edge30_Node000023_Node000021"><a xlink:title=" ">
<path fill="none" stroke="#63b8ff" d="M243.58,-445.89C253.82,-437.19 270.9,-424.04 288,-417 330.56,-399.46 344.98,-408.59 390,-399 403.15,-396.2 417.36,-392.79 430.29,-389.55"/>
<polygon fill="none" stroke="#63b8ff" points="430.58,-389.47 435.41,-384.11 442.21,-386.51 437.39,-391.87 430.58,-389.47"/>
</a>
</g>
<text text-anchor="middle" x="312.5" y="-420" font-family="Helvetica,sans-Serif" font-size="10.00" fill="grey"> #content</text>
</g>
<!-- Node21&#45;&gt;Node26 -->
<g id="edge47_Node000026_Node000021" class="edge">
<title>Node21&#45;&gt;Node26</title>
<g id="a_edge47_Node000026_Node000021"><a xlink:title=" ">
<path fill="none" stroke="#63b8ff" d="M228.15,-445.89C221.26,-435.32 210.01,-416.63 204,-399 193,-366.71 187.96,-327.54 185.72,-302.21"/>
<polygon fill="none" stroke="#63b8ff" points="185.7,-301.98 181.24,-296.31 184.76,-290.02 189.22,-295.68 185.7,-301.98"/>
</a>
</g>
<text text-anchor="middle" x="222" y="-374.5" font-family="Helvetica,sans-Serif" font-size="10.00" fill="grey"> +body</text>
</g>
<!-- Node22 -->
<g id="Node000022" class="node">
<title>Node22</title>
<g id="a_Node000022"><a xlink:title=" ">
<polygon fill="white" stroke="transparent" points="548,-290 434,-290 434,-260 548,-260 548,-290"/>
<text text-anchor="start" x="438.5" y="-278" font-family="Helvetica,sans-Serif" font-size="10.00">std::list&lt; web::http</text>
<text text-anchor="start" x="438.5" y="-267" font-family="Helvetica,sans-Serif" font-size="10.00">::ContentDecoder * &gt;</text>
<polygon fill="none" stroke="#666666" points="434,-260 434,-290 548,-290 548,-260 434,-260"/>
</a>
</g>
</g>
<!-- Node22&#45;&gt;Node20 -->
<g id="edge28_Node000020_Node000022" class="edge">
<title>Node22&#45;&gt;Node20</title>
<g id="a_edge28_Node000020_Node000022"><a xlink:title=" ">
<path fill="none" stroke="#63b8ff" d="M494.04,-259.74C497.84,-245.58 505.79,-224.39 521,-213 540.64,-198.3 601.16,-189.82 647.69,-185.33"/>
<polygon fill="none" stroke="#63b8ff" points="647.84,-185.32 653.45,-180.79 659.79,-184.22 654.18,-188.75 647.84,-185.32"/>
</a>
</g>
<text text-anchor="middle" x="562" y="-221.5" font-family="Helvetica,sans-Serif" font-size="10.00" fill="grey"> #decoderQueue</text>
</g>
<!-- Node23&#45;&gt;Node22 -->
<g id="edge29_Node000022_Node000023" class="edge">
<title>Node23&#45;&gt;Node22</title>
<g id="a_edge29_Node000022_Node000023"><a xlink:title=" ">
<path fill="none" stroke="#63b8ff" d="M475.45,-367.47C477.88,-353.17 482.88,-323.78 486.55,-302.16"/>
<polygon fill="none" stroke="#63b8ff" points="486.57,-302.03 483.64,-295.45 488.59,-290.2 491.52,-296.79 486.57,-302.03"/>
</a>
</g>
<text text-anchor="middle" x="513" y="-323.5" font-family="Helvetica,sans-Serif" font-size="10.00" fill="grey"> +elements</text>
</g>
<!-- Node24&#45;&gt;Node20 -->
<g id="edge32_Node000020_Node000024" class="edge">
<title>Node24&#45;&gt;Node20</title>
<g id="a_edge32_Node000020_Node000024"><a xlink:title=" ">
<path fill="none" stroke="#63b8ff" d="M895.13,-259.88C852.34,-242.03 779.28,-211.56 737.6,-194.18"/>
<polygon fill="none" stroke="#63b8ff" points="737.55,-194.16 730.48,-195.54 726.48,-189.54 733.56,-188.16 737.55,-194.16"/>
</a>
</g>
<text text-anchor="middle" x="871" y="-227" font-family="Helvetica,sans-Serif" font-size="10.00" fill="grey"> &#45;headerDecoder</text>
<text text-anchor="middle" x="871" y="-216" font-family="Helvetica,sans-Serif" font-size="10.00" fill="grey">&#45;trailerDecoder</text>
</g>
<!-- Node25&#45;&gt;Node20 -->
<g id="edge38_Node000020_Node000025" class="edge">
<title>Node25&#45;&gt;Node20</title>
<g id="a_edge38_Node000020_Node000025"><a xlink:title=" ">
<path fill="none" stroke="#63b8ff" d="M792.02,-367.37C778.51,-338.11 734.25,-242.2 715.03,-200.57"/>
<polygon fill="none" stroke="#63b8ff" points="714.97,-200.43 708.82,-196.65 709.94,-189.53 716.08,-193.3 714.97,-200.43"/>
</a>
</g>
<text text-anchor="middle" x="812.5" y="-272.5" font-family="Helvetica,sans-Serif" font-size="10.00" fill="grey"> &#45;trailerFieldsExpected</text>
</g>
<!-- Node25&#45;&gt;Node24 -->
<g id="edge35_Node000024_Node000025" class="edge">
<title>Node25&#45;&gt;Node24</title>
<g id="a_edge35_Node000024_Node000025"><a xlink:title=" ">
<path fill="none" stroke="#63b8ff" d="M793.22,-367.46C789.62,-354.61 785.12,-330.18 797,-315 816.27,-290.38 835.02,-305.88 865,-297 868.53,-295.95 872.16,-294.85 875.81,-293.71"/>
<polygon fill="none" stroke="#63b8ff" points="876.01,-293.65 880.53,-288.02 887.45,-290.02 882.94,-295.65 876.01,-293.65"/>
</a>
</g>
<text text-anchor="middle" x="836.5" y="-323.5" font-family="Helvetica,sans-Serif" font-size="10.00" fill="grey"> &#45;fieldsExpected</text>
</g>
<!-- Node26&#45;&gt;Node19 -->
<g id="edge40_Node000019_Node000026" class="edge">
<title>Node26&#45;&gt;Node19</title>
<g id="a_edge40_Node000019_Node000026"><a xlink:title=" ">
<path fill="none" stroke="#63b8ff" d="M194.27,-259.89C205.24,-245.84 223.94,-224.75 245,-213 376.33,-139.75 555.23,-115.53 646.75,-107.67"/>
<polygon fill="none" stroke="#63b8ff" points="646.85,-107.66 652.5,-103.19 658.81,-106.69 653.15,-111.16 646.85,-107.66"/>
</a>
</g>
<text text-anchor="middle" x="376" y="-177.5" font-family="Helvetica,sans-Serif" font-size="10.00" fill="grey"> &#45;response</text>
</g>
<!-- Node27 -->
<g id="Node000027" class="node">
<title>Node27</title>
<g id="a_Node000027"><a xlink:href="classweb_1_1http_1_1CiStringMap.html" target="_top" xlink:title=" ">
<polygon fill="white" stroke="transparent" points="154,-392 0,-392 0,-362 154,-362 154,-392"/>
<text text-anchor="start" x="4" y="-380" font-family="Helvetica,sans-Serif" font-size="10.00">web::http::CiStringMap</text>
<text text-anchor="start" x="4" y="-369" font-family="Helvetica,sans-Serif" font-size="10.00">&lt; web::http::CookieOptions &gt;</text>
<polygon fill="none" stroke="#666666" points="0,-362 0,-392 154,-392 154,-362 0,-362"/>
</a>
</g>
</g>
<!-- Node27&#45;&gt;Node26 -->
<g id="edge43_Node000026_Node000027" class="edge">
<title>Node27&#45;&gt;Node26</title>
<g id="a_edge43_Node000026_Node000027"><a xlink:title=" ">
<path fill="none" stroke="#63b8ff" d="M86.72,-361.96C96.13,-348.93 111.26,-329.44 127,-315 134.01,-308.58 142.14,-302.39 150.03,-296.91"/>
<polygon fill="none" stroke="#63b8ff" points="150.16,-296.82 152.93,-290.16 160.14,-290.16 157.37,-296.82 150.16,-296.82"/>
</a>
</g>
<text text-anchor="middle" x="151.5" y="-323.5" font-family="Helvetica,sans-Serif" font-size="10.00" fill="grey"> +cookies</text>
</g>
<!-- Node28&#45;&gt;Node27 -->
<g id="edge44_Node000027_Node000028" class="edge">
<title>Node28&#45;&gt;Node27</title>
<g id="a_edge44_Node000027_Node000028"><a xlink:title=" ">
<path fill="none" stroke="#63b8ff" d="M107.78,-436.86C100.67,-423.27 90.98,-404.73 84.38,-392.11"/>
<polygon fill="none" stroke="#63b8ff" points="104.68,-438.48 112.41,-445.72 110.88,-435.24 104.68,-438.48"/>
</a>
</g>
</g>
</g>
</svg>
