<?xml version="1.0" encoding="UTF-8" standalone="no"?>
<!DOCTYPE svg PUBLIC "-//W3C//DTD SVG 1.1//EN"
 "http://www.w3.org/Graphics/SVG/1.1/DTD/svg11.dtd">
<!-- Generated by graphviz version 2.42.4 (0)
 -->
<!-- Title: iot::mqtt::server::broker::SubscribtionTree::appear Pages: 1 -->
<svg width="2200pt" height="584pt"
 viewBox="0.00 0.00 2200.00 583.50" xmlns="http://www.w3.org/2000/svg" xmlns:xlink="http://www.w3.org/1999/xlink">
<g id="graph0" class="graph" transform="scale(1 1) rotate(0) translate(4 579.5)">
<title>iot::mqtt::server::broker::SubscribtionTree::appear</title>
<!-- Node1 -->
<g id="Node000001" class="node">
<title>Node1</title>
<g id="a_Node000001"><a xlink:title=" ">
<polygon fill="#999999" stroke="#666666" points="134,-217 0,-217 0,-176 134,-176 134,-217"/>
<text text-anchor="start" x="8" y="-205" font-family="Helvetica,sans-Serif" font-size="10.00">iot::mqtt::server::</text>
<text text-anchor="start" x="8" y="-194" font-family="Helvetica,sans-Serif" font-size="10.00">broker::SubscribtionTree</text>
<text text-anchor="middle" x="67" y="-183" font-family="Helvetica,sans-Serif" font-size="10.00">::appear</text>
</a>
</g>
</g>
<!-- Node2 -->
<g id="Node000002" class="node">
<title>Node2</title>
<g id="a_Node000002"><a xlink:href="classiot_1_1mqtt_1_1server_1_1broker_1_1SubscribtionTree_1_1TopicLevel.html#a26bc66de7ba68aa779d5ac0001f80783" target="_top" xlink:title=" ">
<polygon fill="white" stroke="#666666" points="304,-217 170,-217 170,-176 304,-176 304,-217"/>
<text text-anchor="start" x="178" y="-205" font-family="Helvetica,sans-Serif" font-size="10.00">iot::mqtt::server::</text>
<text text-anchor="start" x="178" y="-194" font-family="Helvetica,sans-Serif" font-size="10.00">broker::SubscribtionTree</text>
<text text-anchor="middle" x="237" y="-183" font-family="Helvetica,sans-Serif" font-size="10.00">::TopicLevel::appear</text>
</a>
</g>
</g>
<!-- Node1&#45;&gt;Node2 -->
<g id="edge1_Node000001_Node000002" class="edge">
<title>Node1&#45;&gt;Node2</title>
<g id="a_edge1_Node000001_Node000002"><a xlink:title=" ">
<path fill="none" stroke="#63b8ff" d="M134.4,-196.5C142.68,-196.5 151.2,-196.5 159.62,-196.5"/>
<polygon fill="#63b8ff" stroke="#63b8ff" points="159.81,-200 169.81,-196.5 159.81,-193 159.81,-200"/>
</a>
</g>
</g>
<!-- Node2&#45;&gt;Node2 -->
<g id="edge2_Node000002_Node000002" class="edge">
<title>Node2&#45;&gt;Node2</title>
<g id="a_edge2_Node000002_Node000002"><a xlink:title=" ">
<path fill="none" stroke="#63b8ff" d="M206.86,-217.1C203.57,-226.65 213.62,-235 237,-235 251.61,-235 261.02,-231.74 265.22,-226.96"/>
<polygon fill="#63b8ff" stroke="#63b8ff" points="268.66,-227.58 267.14,-217.1 261.79,-226.24 268.66,-227.58"/>
</a>
</g>
</g>
<!-- Node3 -->
<g id="Node000003" class="node">
<title>Node3</title>
<g id="a_Node000003"><a xlink:href="classiot_1_1mqtt_1_1server_1_1broker_1_1Broker.html#a808b519175381ec92e3f8ae9e2618f1f" target="_top" xlink:title=" ">
<polygon fill="white" stroke="#666666" points="465,-211.5 340,-211.5 340,-181.5 465,-181.5 465,-211.5"/>
<text text-anchor="start" x="348" y="-199.5" font-family="Helvetica,sans-Serif" font-size="10.00">iot::mqtt::server::</text>
<text text-anchor="middle" x="402.5" y="-188.5" font-family="Helvetica,sans-Serif" font-size="10.00">broker::Broker::appear</text>
</a>
</g>
</g>
<!-- Node2&#45;&gt;Node3 -->
<g id="edge3_Node000002_Node000003" class="edge">
<title>Node2&#45;&gt;Node3</title>
<g id="a_edge3_Node000002_Node000003"><a xlink:title=" ">
<path fill="none" stroke="#63b8ff" d="M304.03,-196.5C312.57,-196.5 321.34,-196.5 329.96,-196.5"/>
<polygon fill="#63b8ff" stroke="#63b8ff" points="329.98,-200 339.98,-196.5 329.98,-193 329.98,-200"/>
</a>
</g>
</g>
<!-- Node4 -->
<g id="Node000004" class="node">
<title>Node4</title>
<g id="a_Node000004"><a xlink:href="classiot_1_1mqtt_1_1server_1_1broker_1_1RetainTree.html#a0115fb136a4ab331003e393b6c5cdc8f" target="_top" xlink:title=" ">
<polygon fill="white" stroke="#666666" points="612,-217 501,-217 501,-176 612,-176 612,-217"/>
<text text-anchor="start" x="509" y="-205" font-family="Helvetica,sans-Serif" font-size="10.00">iot::mqtt::server::</text>
<text text-anchor="start" x="509" y="-194" font-family="Helvetica,sans-Serif" font-size="10.00">broker::RetainTree::</text>
<text text-anchor="middle" x="556.5" y="-183" font-family="Helvetica,sans-Serif" font-size="10.00">appear</text>
</a>
</g>
</g>
<!-- Node3&#45;&gt;Node4 -->
<g id="edge4_Node000003_Node000004" class="edge">
<title>Node3&#45;&gt;Node4</title>
<g id="a_edge4_Node000003_Node000004"><a xlink:title=" ">
<path fill="none" stroke="#63b8ff" d="M465.32,-196.5C473.62,-196.5 482.15,-196.5 490.5,-196.5"/>
<polygon fill="#63b8ff" stroke="#63b8ff" points="490.57,-200 500.57,-196.5 490.57,-193 490.57,-200"/>
</a>
</g>
</g>
<!-- Node5 -->
<g id="Node000005" class="node">
<title>Node5</title>
<g id="a_Node000005"><a xlink:href="classiot_1_1mqtt_1_1server_1_1broker_1_1RetainTree_1_1TopicLevel.html#a3726affa9362593149d1b1660e85f5f3" target="_top" xlink:title=" ">
<polygon fill="white" stroke="#666666" points="759,-217 648,-217 648,-176 759,-176 759,-217"/>
<text text-anchor="start" x="656" y="-205" font-family="Helvetica,sans-Serif" font-size="10.00">iot::mqtt::server::</text>
<text text-anchor="start" x="656" y="-194" font-family="Helvetica,sans-Serif" font-size="10.00">broker::RetainTree::</text>
<text text-anchor="middle" x="703.5" y="-183" font-family="Helvetica,sans-Serif" font-size="10.00">TopicLevel::appear</text>
</a>
</g>
</g>
<!-- Node4&#45;&gt;Node5 -->
<g id="edge5_Node000004_Node000005" class="edge">
<title>Node4&#45;&gt;Node5</title>
<g id="a_edge5_Node000004_Node000005"><a xlink:title=" ">
<path fill="none" stroke="#63b8ff" d="M612.32,-196.5C620.53,-196.5 629.06,-196.5 637.46,-196.5"/>
<polygon fill="#63b8ff" stroke="#63b8ff" points="637.6,-200 647.6,-196.5 637.6,-193 637.6,-200"/>
</a>
</g>
</g>
<!-- Node5&#45;&gt;Node5 -->
<g id="edge6_Node000005_Node000005" class="edge">
<title>Node5&#45;&gt;Node5</title>
<g id="a_edge6_Node000005_Node000005"><a xlink:title=" ">
<path fill="none" stroke="#63b8ff" d="M676.67,-217.1C673.74,-226.65 682.68,-235 703.5,-235 716.51,-235 724.88,-231.74 728.62,-226.96"/>
<polygon fill="#63b8ff" stroke="#63b8ff" points="732.07,-227.55 730.33,-217.1 725.17,-226.35 732.07,-227.55"/>
</a>
</g>
</g>
<!-- Node6 -->
<g id="Node000006" class="node">
<title>Node6</title>
<g id="a_Node000006"><a xlink:href="classiot_1_1mqtt_1_1server_1_1broker_1_1RetainTree_1_1TopicLevel.html#a14836ec28cdb1d5f58a6c8f2c53ecb08" target="_top" xlink:title=" ">
<polygon fill="white" stroke="#666666" points="906,-242 795,-242 795,-201 906,-201 906,-242"/>
<text text-anchor="start" x="803" y="-230" font-family="Helvetica,sans-Serif" font-size="10.00">iot::mqtt::server::</text>
<text text-anchor="start" x="803" y="-219" font-family="Helvetica,sans-Serif" font-size="10.00">broker::RetainTree::</text>
<text text-anchor="middle" x="850.5" y="-208" font-family="Helvetica,sans-Serif" font-size="10.00">TopicLevel::appear</text>
</a>
</g>
</g>
<!-- Node5&#45;&gt;Node6 -->
<g id="edge7_Node000005_Node000006" class="edge">
<title>Node5&#45;&gt;Node6</title>
<g id="a_edge7_Node000005_Node000006"><a xlink:title=" ">
<path fill="none" stroke="#63b8ff" d="M759.32,-205.95C767.62,-207.38 776.25,-208.87 784.74,-210.33"/>
<polygon fill="#63b8ff" stroke="#63b8ff" points="784.15,-213.79 794.6,-212.04 785.34,-206.89 784.15,-213.79"/>
</a>
</g>
</g>
<!-- Node7 -->
<g id="Node000007" class="node">
<title>Node7</title>
<g id="a_Node000007"><a xlink:href="classiot_1_1mqtt_1_1server_1_1broker_1_1Message.html#acd5cfc83cb92749b61307c77b7649c5e" target="_top" xlink:title=" ">
<polygon fill="white" stroke="#666666" points="1480,-512.5 1318,-512.5 1318,-482.5 1480,-482.5 1480,-512.5"/>
<text text-anchor="start" x="1326" y="-500.5" font-family="Helvetica,sans-Serif" font-size="10.00">iot::mqtt::server::</text>
<text text-anchor="middle" x="1399" y="-489.5" font-family="Helvetica,sans-Serif" font-size="10.00">broker::Message::getMessage</text>
</a>
</g>
</g>
<!-- Node5&#45;&gt;Node7 -->
<g id="edge48_Node000005_Node000007" class="edge">
<title>Node5&#45;&gt;Node7</title>
<g id="a_edge48_Node000005_Node000007"><a xlink:title=" ">
<path fill="none" stroke="#63b8ff" d="M717.22,-217.22C732.93,-241.39 761.71,-281.23 795,-306.5 950.84,-424.81 1181.85,-470.95 1307.91,-488.08"/>
<polygon fill="#63b8ff" stroke="#63b8ff" points="1307.54,-491.56 1317.91,-489.41 1308.46,-484.62 1307.54,-491.56"/>
</a>
</g>
</g>
<!-- Node8 -->
<g id="Node000008" class="node">
<title>Node8</title>
<g id="a_Node000008"><a xlink:href="classiot_1_1mqtt_1_1server_1_1broker_1_1Message.html#ad8438b8455ed9abf0ee35faf50b5c946" target="_top" xlink:title=" ">
<polygon fill="white" stroke="#666666" points="1468,-464.5 1330,-464.5 1330,-434.5 1468,-434.5 1468,-464.5"/>
<text text-anchor="start" x="1338" y="-452.5" font-family="Helvetica,sans-Serif" font-size="10.00">iot::mqtt::server::</text>
<text text-anchor="middle" x="1399" y="-441.5" font-family="Helvetica,sans-Serif" font-size="10.00">broker::Message::getQoS</text>
</a>
</g>
</g>
<!-- Node5&#45;&gt;Node8 -->
<g id="edge49_Node000005_Node000008" class="edge">
<title>Node5&#45;&gt;Node8</title>
<g id="a_edge49_Node000005_Node000008"><a xlink:title=" ">
<path fill="none" stroke="#63b8ff" d="M725.11,-217.09C742.45,-233.36 768.56,-255.59 795,-269.5 970.67,-361.95 1200.75,-413.84 1319.5,-436.18"/>
<polygon fill="#63b8ff" stroke="#63b8ff" points="1319.13,-439.67 1329.6,-438.06 1320.41,-432.79 1319.13,-439.67"/>
</a>
</g>
</g>
<!-- Node9 -->
<g id="Node000009" class="node">
<title>Node9</title>
<g id="a_Node000009"><a xlink:href="classiot_1_1mqtt_1_1server_1_1broker_1_1Message.html#a369363facef6ec50065e6f3f2b9e975c" target="_top" xlink:title=" ">
<polygon fill="white" stroke="#666666" points="1470.5,-67.5 1327.5,-67.5 1327.5,-37.5 1470.5,-37.5 1470.5,-67.5"/>
<text text-anchor="start" x="1335.5" y="-55.5" font-family="Helvetica,sans-Serif" font-size="10.00">iot::mqtt::server::</text>
<text text-anchor="middle" x="1399" y="-44.5" font-family="Helvetica,sans-Serif" font-size="10.00">broker::Message::getTopic</text>
</a>
</g>
</g>
<!-- Node5&#45;&gt;Node9 -->
<g id="edge50_Node000005_Node000009" class="edge">
<title>Node5&#45;&gt;Node9</title>
<g id="a_edge50_Node000005_Node000009"><a xlink:title=" ">
<path fill="none" stroke="#63b8ff" d="M759.21,-185.14C880.94,-159.86 1174.7,-98.87 1317.44,-69.23"/>
<polygon fill="#63b8ff" stroke="#63b8ff" points="1318.38,-72.61 1327.46,-67.15 1316.95,-65.75 1318.38,-72.61"/>
</a>
</g>
</g>
<!-- Node10 -->
<g id="Node000010" class="node">
<title>Node10</title>
<g id="a_Node000010"><a xlink:href="classiot_1_1mqtt_1_1server_1_1broker_1_1Broker.html#ae776d5b70c46dd5e2b80e111119c866e" target="_top" xlink:title=" ">
<polygon fill="white" stroke="#666666" points="1091,-190.5 942,-190.5 942,-160.5 1091,-160.5 1091,-190.5"/>
<text text-anchor="start" x="950" y="-178.5" font-family="Helvetica,sans-Serif" font-size="10.00">iot::mqtt::server::</text>
<text text-anchor="middle" x="1016.5" y="-167.5" font-family="Helvetica,sans-Serif" font-size="10.00">broker::Broker::sendPublish</text>
</a>
</g>
</g>
<!-- Node5&#45;&gt;Node10 -->
<g id="edge51_Node000005_Node000010" class="edge">
<title>Node5&#45;&gt;Node10</title>
<g id="a_edge51_Node000005_Node000010"><a xlink:title=" ">
<path fill="none" stroke="#63b8ff" d="M759.03,-192.82C806.75,-189.6 876.83,-184.86 931.68,-181.16"/>
<polygon fill="#63b8ff" stroke="#63b8ff" points="931.99,-184.65 941.73,-180.48 931.52,-177.66 931.99,-184.65"/>
</a>
</g>
</g>
<!-- Node39 -->
<g id="Node000039" class="node">
<title>Node39</title>
<g id="a_Node000039"><a xlink:href="classiot_1_1mqtt_1_1Mqtt.html#a0aba71e7b8d15c2164b13dd0f67491be" target="_top" xlink:title=" ">
<polygon fill="white" stroke="#666666" points="1474.5,-19 1323.5,-19 1323.5,0 1474.5,0 1474.5,-19"/>
<text text-anchor="middle" x="1399" y="-7" font-family="Helvetica,sans-Serif" font-size="10.00">iot::mqtt::Mqtt::toHexString</text>
</a>
</g>
</g>
<!-- Node5&#45;&gt;Node39 -->
<g id="edge52_Node000005_Node000039" class="edge">
<title>Node5&#45;&gt;Node39</title>
<g id="a_edge52_Node000005_Node000039"><a xlink:title=" ">
<path fill="none" stroke="#63b8ff" d="M741.59,-175.87C757.66,-167.51 776.92,-158.25 795,-151.5 979.62,-82.6 1208.85,-39.59 1324.27,-20.7"/>
<polygon fill="#63b8ff" stroke="#63b8ff" points="1325.09,-24.11 1334.4,-19.05 1323.97,-17.2 1325.09,-24.11"/>
</a>
</g>
</g>
<!-- Node6&#45;&gt;Node6 -->
<g id="edge8_Node000006_Node000006" class="edge">
<title>Node6&#45;&gt;Node6</title>
<g id="a_edge8_Node000006_Node000006"><a xlink:title=" ">
<path fill="none" stroke="#63b8ff" d="M823.67,-242.1C820.74,-251.65 829.68,-260 850.5,-260 863.51,-260 871.88,-256.74 875.62,-251.96"/>
<polygon fill="#63b8ff" stroke="#63b8ff" points="879.07,-252.55 877.33,-242.1 872.17,-251.35 879.07,-252.55"/>
</a>
</g>
</g>
<!-- Node6&#45;&gt;Node7 -->
<g id="edge9_Node000006_Node000007" class="edge">
<title>Node6&#45;&gt;Node7</title>
<g id="a_edge9_Node000006_Node000007"><a xlink:title=" ">
<path fill="none" stroke="#63b8ff" d="M886.11,-242.24C902.89,-252.17 923.39,-264.13 942,-274.5 1107.17,-366.52 1143.06,-401.77 1318,-473.5 1322.74,-475.44 1327.7,-477.31 1332.72,-479.08"/>
<polygon fill="#63b8ff" stroke="#63b8ff" points="1331.83,-482.47 1342.42,-482.36 1334.07,-475.84 1331.83,-482.47"/>
</a>
</g>
</g>
<!-- Node6&#45;&gt;Node8 -->
<g id="edge10_Node000006_Node000008" class="edge">
<title>Node6&#45;&gt;Node8</title>
<g id="a_edge10_Node000006_Node000008"><a xlink:title=" ">
<path fill="none" stroke="#63b8ff" d="M906.3,-233.52C1008.65,-256.84 1223.77,-310.15 1282,-358.5 1308.01,-380.09 1291.81,-404.12 1318,-425.5 1319.56,-426.77 1321.18,-427.98 1322.86,-429.12"/>
<polygon fill="#63b8ff" stroke="#63b8ff" points="1321.26,-432.24 1331.66,-434.31 1324.82,-426.21 1321.26,-432.24"/>
</a>
</g>
</g>
<!-- Node6&#45;&gt;Node9 -->
<g id="edge11_Node000006_Node000009" class="edge">
<title>Node6&#45;&gt;Node9</title>
<g id="a_edge11_Node000006_Node000009"><a xlink:title=" ">
<path fill="none" stroke="#63b8ff" d="M906.16,-223.31C994.31,-223.43 1169.36,-211.73 1282,-125.5 1303.46,-109.07 1295.92,-92.08 1318,-76.5 1320.13,-75 1322.35,-73.59 1324.64,-72.27"/>
<polygon fill="#63b8ff" stroke="#63b8ff" points="1326.47,-75.27 1333.78,-67.6 1323.28,-69.04 1326.47,-75.27"/>
</a>
</g>
</g>
<!-- Node6&#45;&gt;Node10 -->
<g id="edge12_Node000006_Node000010" class="edge">
<title>Node6&#45;&gt;Node10</title>
<g id="a_edge12_Node000006_Node000010"><a xlink:title=" ">
<path fill="none" stroke="#63b8ff" d="M906.11,-206.18C920.86,-202.04 936.95,-197.53 952.14,-193.27"/>
<polygon fill="#63b8ff" stroke="#63b8ff" points="953.28,-196.59 961.97,-190.52 951.39,-189.85 953.28,-196.59"/>
</a>
</g>
</g>
<!-- Node6&#45;&gt;Node39 -->
<g id="edge47_Node000006_Node000039" class="edge">
<title>Node6&#45;&gt;Node39</title>
<g id="a_edge47_Node000006_Node000039"><a xlink:title=" ">
<path fill="none" stroke="#63b8ff" d="M873.8,-200.72C891.25,-185.37 916.73,-164.89 942,-151.5 1097.36,-69.18 1148.77,-76.19 1318,-28.5 1326.78,-26.03 1336.16,-23.6 1345.29,-21.36"/>
<polygon fill="#63b8ff" stroke="#63b8ff" points="1346.17,-24.75 1355.07,-19 1344.53,-17.95 1346.17,-24.75"/>
</a>
</g>
</g>
<!-- Node11 -->
<g id="Node000011" class="node">
<title>Node11</title>
<g id="a_Node000011"><a xlink:href="classiot_1_1mqtt_1_1server_1_1broker_1_1Session.html#a29e925298c01ae9de82376442f63fbab" target="_top" xlink:title=" ">
<polygon fill="white" stroke="#666666" points="1282,-276.5 1127,-276.5 1127,-246.5 1282,-246.5 1282,-276.5"/>
<text text-anchor="start" x="1135" y="-264.5" font-family="Helvetica,sans-Serif" font-size="10.00">iot::mqtt::server::</text>
<text text-anchor="middle" x="1204.5" y="-253.5" font-family="Helvetica,sans-Serif" font-size="10.00">broker::Session::sendPublish</text>
</a>
</g>
</g>
<!-- Node10&#45;&gt;Node11 -->
<g id="edge13_Node000010_Node000011" class="edge">
<title>Node10&#45;&gt;Node11</title>
<g id="a_edge13_Node000010_Node000011"><a xlink:title=" ">
<path fill="none" stroke="#63b8ff" d="M1050.32,-190.68C1081.4,-205.05 1128.19,-226.68 1161.87,-242.25"/>
<polygon fill="#63b8ff" stroke="#63b8ff" points="1160.46,-245.45 1171,-246.47 1163.4,-239.1 1160.46,-245.45"/>
</a>
</g>
</g>
<!-- Node11&#45;&gt;Node7 -->
<g id="edge15_Node000011_Node000007" class="edge">
<title>Node11&#45;&gt;Node7</title>
<g id="a_edge15_Node000011_Node000007"><a xlink:title=" ">
<path fill="none" stroke="#63b8ff" d="M1220.44,-276.71C1237.49,-294.82 1265.18,-326.63 1282,-358.5 1307,-405.87 1279.9,-435.86 1318,-473.5 1319.1,-474.58 1320.24,-475.62 1321.42,-476.61"/>
<polygon fill="#63b8ff" stroke="#63b8ff" points="1319.58,-479.59 1329.77,-482.48 1323.6,-473.86 1319.58,-479.59"/>
</a>
</g>
</g>
<!-- Node11&#45;&gt;Node8 -->
<g id="edge18_Node000011_Node000008" class="edge">
<title>Node11&#45;&gt;Node8</title>
<g id="a_edge18_Node000011_Node000008"><a xlink:title=" ">
<path fill="none" stroke="#63b8ff" d="M1239.54,-276.6C1254.44,-284.73 1270.99,-296.09 1282,-310.5 1314.51,-353.06 1279.9,-387.86 1318,-425.5 1319.1,-426.58 1320.24,-427.62 1321.42,-428.61"/>
<polygon fill="#63b8ff" stroke="#63b8ff" points="1319.58,-431.59 1329.77,-434.48 1323.6,-425.86 1319.58,-431.59"/>
</a>
</g>
</g>
<!-- Node11&#45;&gt;Node9 -->
<g id="edge20_Node000011_Node000009" class="edge">
<title>Node11&#45;&gt;Node9</title>
<g id="a_edge20_Node000011_Node000009"><a xlink:title=" ">
<path fill="none" stroke="#63b8ff" d="M1264.18,-246.41C1270.87,-242.74 1277.05,-238.17 1282,-232.5 1328.79,-178.89 1269.34,-128.41 1318,-76.5 1318.79,-75.65 1319.62,-74.84 1320.46,-74.05"/>
<polygon fill="#63b8ff" stroke="#63b8ff" points="1322.93,-76.56 1328.73,-67.69 1318.67,-71.02 1322.93,-76.56"/>
</a>
</g>
</g>
<!-- Node12 -->
<g id="Node000012" class="node">
<title>Node12</title>
<g id="a_Node000012"><a xlink:href="classiot_1_1mqtt_1_1server_1_1Mqtt.html#a9f9cfb6f141acdd5d293853a42f8c9f6" target="_top" xlink:title=" ">
<polygon fill="white" stroke="#666666" points="1449.5,-330.5 1348.5,-330.5 1348.5,-300.5 1449.5,-300.5 1449.5,-330.5"/>
<text text-anchor="start" x="1356.5" y="-318.5" font-family="Helvetica,sans-Serif" font-size="10.00">iot::mqtt::server::</text>
<text text-anchor="middle" x="1399" y="-307.5" font-family="Helvetica,sans-Serif" font-size="10.00">Mqtt::getClientId</text>
</a>
</g>
</g>
<!-- Node11&#45;&gt;Node12 -->
<g id="edge14_Node000011_Node000012" class="edge">
<title>Node11&#45;&gt;Node12</title>
<g id="a_edge14_Node000011_Node000012"><a xlink:title=" ">
<path fill="none" stroke="#63b8ff" d="M1259.12,-276.54C1283.77,-283.46 1313.1,-291.68 1338.44,-298.79"/>
<polygon fill="#63b8ff" stroke="#63b8ff" points="1337.72,-302.23 1348.3,-301.56 1339.61,-295.49 1337.72,-302.23"/>
</a>
</g>
</g>
<!-- Node13 -->
<g id="Node000013" class="node">
<title>Node13</title>
<g id="a_Node000013"><a xlink:href="classiot_1_1mqtt_1_1server_1_1broker_1_1Message.html#a11f58b2655132e178b967d39ce88d987" target="_top" xlink:title=" ">
<polygon fill="white" stroke="#666666" points="1473,-282 1325,-282 1325,-241 1473,-241 1473,-282"/>
<text text-anchor="start" x="1333" y="-270" font-family="Helvetica,sans-Serif" font-size="10.00">iot::mqtt::server::</text>
<text text-anchor="start" x="1333" y="-259" font-family="Helvetica,sans-Serif" font-size="10.00">broker::Message::getOrigin</text>
<text text-anchor="middle" x="1399" y="-248" font-family="Helvetica,sans-Serif" font-size="10.00">ClientId</text>
</a>
</g>
</g>
<!-- Node11&#45;&gt;Node13 -->
<g id="edge16_Node000011_Node000013" class="edge">
<title>Node11&#45;&gt;Node13</title>
<g id="a_edge16_Node000011_Node000013"><a xlink:title=" ">
<path fill="none" stroke="#63b8ff" d="M1282.13,-261.5C1292.78,-261.5 1303.76,-261.5 1314.53,-261.5"/>
<polygon fill="#63b8ff" stroke="#63b8ff" points="1314.76,-265 1324.76,-261.5 1314.76,-258 1314.76,-265"/>
</a>
</g>
</g>
<!-- Node14 -->
<g id="Node000014" class="node">
<title>Node14</title>
<g id="a_Node000014"><a xlink:href="classiot_1_1mqtt_1_1server_1_1broker_1_1Message.html#ac88e2c9da675254666c7f3805b43b04f" target="_top" xlink:title=" ">
<polygon fill="white" stroke="#666666" points="1473,-223 1325,-223 1325,-182 1473,-182 1473,-223"/>
<text text-anchor="start" x="1333" y="-211" font-family="Helvetica,sans-Serif" font-size="10.00">iot::mqtt::server::</text>
<text text-anchor="start" x="1333" y="-200" font-family="Helvetica,sans-Serif" font-size="10.00">broker::Message::getOrigin</text>
<text text-anchor="middle" x="1399" y="-189" font-family="Helvetica,sans-Serif" font-size="10.00">Retain</text>
</a>
</g>
</g>
<!-- Node11&#45;&gt;Node14 -->
<g id="edge17_Node000011_Node000014" class="edge">
<title>Node11&#45;&gt;Node14</title>
<g id="a_edge17_Node000011_Node000014"><a xlink:title=" ">
<path fill="none" stroke="#63b8ff" d="M1254.57,-246.46C1274.76,-240.27 1298.62,-232.96 1321.02,-226.09"/>
<polygon fill="#63b8ff" stroke="#63b8ff" points="1322.32,-229.36 1330.86,-223.08 1320.27,-222.66 1322.32,-229.36"/>
</a>
</g>
</g>
<!-- Node15 -->
<g id="Node000015" class="node">
<title>Node15</title>
<g id="a_Node000015"><a xlink:href="classiot_1_1mqtt_1_1server_1_1Mqtt.html#a06e3de39b2a5cfb3fc3b7a68afa85363" target="_top" xlink:title=" ">
<polygon fill="white" stroke="#666666" points="1449.5,-163.5 1348.5,-163.5 1348.5,-133.5 1449.5,-133.5 1449.5,-163.5"/>
<text text-anchor="start" x="1356.5" y="-151.5" font-family="Helvetica,sans-Serif" font-size="10.00">iot::mqtt::server::</text>
<text text-anchor="middle" x="1399" y="-140.5" font-family="Helvetica,sans-Serif" font-size="10.00">Mqtt::getReflect</text>
</a>
</g>
</g>
<!-- Node11&#45;&gt;Node15 -->
<g id="edge19_Node000011_Node000015" class="edge">
<title>Node11&#45;&gt;Node15</title>
<g id="a_edge19_Node000011_Node000015"><a xlink:title=" ">
<path fill="none" stroke="#63b8ff" d="M1259.47,-246.33C1267.53,-242.61 1275.35,-238.06 1282,-232.5 1305.86,-212.55 1293.45,-191.59 1318,-172.5 1324.2,-167.68 1331.35,-163.83 1338.78,-160.74"/>
<polygon fill="#63b8ff" stroke="#63b8ff" points="1340.12,-163.98 1348.29,-157.24 1337.69,-157.42 1340.12,-163.98"/>
</a>
</g>
</g>
<!-- Node16 -->
<g id="Node000016" class="node">
<title>Node16</title>
<g id="a_Node000016"><a xlink:href="classiot_1_1mqtt_1_1server_1_1broker_1_1Session.html#acec1ef8891e7d33f873a72a994edf5c7" target="_top" xlink:title=" ">
<polygon fill="white" stroke="#666666" points="1467,-115.5 1331,-115.5 1331,-85.5 1467,-85.5 1467,-115.5"/>
<text text-anchor="start" x="1339" y="-103.5" font-family="Helvetica,sans-Serif" font-size="10.00">iot::mqtt::server::</text>
<text text-anchor="middle" x="1399" y="-92.5" font-family="Helvetica,sans-Serif" font-size="10.00">broker::Session::isActive</text>
</a>
</g>
</g>
<!-- Node11&#45;&gt;Node16 -->
<g id="edge21_Node000011_Node000016" class="edge">
<title>Node11&#45;&gt;Node16</title>
<g id="a_edge21_Node000011_Node000016"><a xlink:title=" ">
<path fill="none" stroke="#63b8ff" d="M1262.92,-246.36C1269.97,-242.69 1276.59,-238.13 1282,-232.5 1317.04,-196 1281.69,-159.73 1318,-124.5 1319.44,-123.1 1320.97,-121.78 1322.55,-120.54"/>
<polygon fill="#63b8ff" stroke="#63b8ff" points="1324.59,-123.39 1330.98,-114.94 1320.72,-117.55 1324.59,-123.39"/>
</a>
</g>
</g>
<!-- Node17 -->
<g id="Node000017" class="node">
<title>Node17</title>
<g id="a_Node000017"><a xlink:href="classiot_1_1mqtt_1_1Mqtt.html#a92d9442bb5f6cdce165fd47e14b0f101" target="_top" xlink:title=" ">
<polygon fill="white" stroke="#666666" points="1475,-416 1323,-416 1323,-397 1475,-397 1475,-416"/>
<text text-anchor="middle" x="1399" y="-404" font-family="Helvetica,sans-Serif" font-size="10.00">iot::mqtt::Mqtt::sendPublish</text>
</a>
</g>
</g>
<!-- Node11&#45;&gt;Node17 -->
<g id="edge22_Node000011_Node000017" class="edge">
<title>Node11&#45;&gt;Node17</title>
<g id="a_edge22_Node000011_Node000017"><a xlink:title=" ">
<path fill="none" stroke="#63b8ff" d="M1237.53,-276.66C1252.53,-284.99 1269.74,-296.5 1282,-310.5 1306.89,-338.92 1288.7,-363.65 1318,-387.5 1320.08,-389.2 1322.29,-390.74 1324.6,-392.16"/>
<polygon fill="#63b8ff" stroke="#63b8ff" points="1323.41,-395.49 1333.9,-396.98 1326.63,-389.27 1323.41,-395.49"/>
</a>
</g>
</g>
<!-- Node38 -->
<g id="Node000038" class="node">
<title>Node38</title>
<g id="a_Node000038"><a xlink:href="classiot_1_1mqtt_1_1server_1_1broker_1_1Message.html#ab5be74e84012b68d9915ad626af2e513" target="_top" xlink:title=" ">
<polygon fill="white" stroke="#666666" points="1467.5,-378.5 1330.5,-378.5 1330.5,-348.5 1467.5,-348.5 1467.5,-378.5"/>
<text text-anchor="start" x="1338.5" y="-366.5" font-family="Helvetica,sans-Serif" font-size="10.00">iot::mqtt::server::</text>
<text text-anchor="middle" x="1399" y="-355.5" font-family="Helvetica,sans-Serif" font-size="10.00">broker::Message::setQoS</text>
</a>
</g>
</g>
<!-- Node11&#45;&gt;Node38 -->
<g id="edge44_Node000011_Node000038" class="edge">
<title>Node11&#45;&gt;Node38</title>
<g id="a_edge44_Node000011_Node000038"><a xlink:title=" ">
<path fill="none" stroke="#63b8ff" d="M1230.41,-276.51C1245.59,-285.88 1265.23,-298.43 1282,-310.5 1298.67,-322.5 1299.82,-329.93 1318,-339.5 1321.51,-341.35 1325.18,-343.07 1328.94,-344.69"/>
<polygon fill="#63b8ff" stroke="#63b8ff" points="1327.84,-348.01 1338.42,-348.45 1330.42,-341.51 1327.84,-348.01"/>
</a>
</g>
</g>
<!-- Node11&#45;&gt;Node39 -->
<g id="edge45_Node000011_Node000039" class="edge">
<title>Node11&#45;&gt;Node39</title>
<g id="a_edge45_Node000011_Node000039"><a xlink:title=" ">
<path fill="none" stroke="#63b8ff" d="M1215.03,-246.41C1230.36,-221.75 1260.93,-170.97 1282,-125.5 1301.33,-83.78 1283.56,-58.97 1318,-28.5 1319.74,-26.96 1321.58,-25.54 1323.5,-24.24"/>
<polygon fill="#63b8ff" stroke="#63b8ff" points="1325.43,-27.16 1332.38,-19.17 1321.96,-21.08 1325.43,-27.16"/>
</a>
</g>
</g>
<!-- Node18 -->
<g id="Node000018" class="node">
<title>Node18</title>
<g id="a_Node000018"><a xlink:href="classiot_1_1mqtt_1_1Mqtt.html#a86ebf4f83f4881c2bb3ed1c9fc3ff0eb" target="_top" xlink:title=" ">
<polygon fill="white" stroke="#666666" points="1657,-399.5 1516,-399.5 1516,-369.5 1657,-369.5 1657,-399.5"/>
<text text-anchor="start" x="1524" y="-387.5" font-family="Helvetica,sans-Serif" font-size="10.00">iot::mqtt::Mqtt::getPacket</text>
<text text-anchor="middle" x="1586.5" y="-376.5" font-family="Helvetica,sans-Serif" font-size="10.00">Identifier</text>
</a>
</g>
</g>
<!-- Node17&#45;&gt;Node18 -->
<g id="edge23_Node000017_Node000018" class="edge">
<title>Node17&#45;&gt;Node18</title>
<g id="a_edge23_Node000017_Node000018"><a xlink:title=" ">
<path fill="none" stroke="#63b8ff" d="M1475.18,-397.58C1485.28,-396.39 1495.66,-395.16 1505.82,-393.95"/>
<polygon fill="#63b8ff" stroke="#63b8ff" points="1506.38,-397.41 1515.9,-392.75 1505.56,-390.46 1506.38,-397.41"/>
</a>
</g>
</g>
<!-- Node19 -->
<g id="Node000019" class="node">
<title>Node19</title>
<g id="a_Node000019"><a xlink:href="classiot_1_1mqtt_1_1packets_1_1Publish.html#a6f44eef1471a1160e21f602bd93f417d" target="_top" xlink:title=" ">
<polygon fill="white" stroke="#666666" points="1637.5,-265.5 1535.5,-265.5 1535.5,-235.5 1637.5,-235.5 1637.5,-265.5"/>
<text text-anchor="start" x="1543.5" y="-253.5" font-family="Helvetica,sans-Serif" font-size="10.00">iot::mqtt::packets</text>
<text text-anchor="middle" x="1586.5" y="-242.5" font-family="Helvetica,sans-Serif" font-size="10.00">::Publish::Publish</text>
</a>
</g>
</g>
<!-- Node17&#45;&gt;Node19 -->
<g id="edge24_Node000017_Node000019" class="edge">
<title>Node17&#45;&gt;Node19</title>
<g id="a_edge24_Node000017_Node000019"><a xlink:title=" ">
<path fill="none" stroke="#63b8ff" d="M1460.39,-396.92C1467.3,-394.46 1474.01,-391.37 1480,-387.5 1523.91,-359.12 1556.9,-305.95 1573.51,-274.85"/>
<polygon fill="#63b8ff" stroke="#63b8ff" points="1576.81,-276.08 1578.32,-265.59 1570.6,-272.85 1576.81,-276.08"/>
</a>
</g>
</g>
<!-- Node25 -->
<g id="Node000025" class="node">
<title>Node25</title>
<g id="a_Node000025"><a xlink:href="classiot_1_1mqtt_1_1Mqtt.html#ac2c838576318814d55feaaf87cdca5b9" target="_top" xlink:title=" ">
<polygon fill="white" stroke="#666666" points="1644.5,-437 1528.5,-437 1528.5,-418 1644.5,-418 1644.5,-437"/>
<text text-anchor="middle" x="1586.5" y="-425" font-family="Helvetica,sans-Serif" font-size="10.00">iot::mqtt::Mqtt::send</text>
</a>
</g>
</g>
<!-- Node17&#45;&gt;Node25 -->
<g id="edge31_Node000017_Node000025" class="edge">
<title>Node17&#45;&gt;Node25</title>
<g id="a_edge31_Node000017_Node000025"><a xlink:title=" ">
<path fill="none" stroke="#63b8ff" d="M1475.18,-415.01C1489.49,-416.63 1504.37,-418.32 1518.4,-419.9"/>
<polygon fill="#63b8ff" stroke="#63b8ff" points="1518.12,-423.39 1528.45,-421.04 1518.91,-416.44 1518.12,-423.39"/>
</a>
</g>
</g>
<!-- Node20 -->
<g id="Node000020" class="node">
<title>Node20</title>
<g id="a_Node000020"><a xlink:href="classiot_1_1mqtt_1_1types_1_1String.html#ae05dc8e9dcf43e69cd29794b37495b13" target="_top" xlink:title=" ">
<polygon fill="white" stroke="#666666" points="1822,-217.5 1696,-217.5 1696,-187.5 1822,-187.5 1822,-217.5"/>
<text text-anchor="start" x="1704" y="-205.5" font-family="Helvetica,sans-Serif" font-size="10.00">iot::mqtt::types::String</text>
<text text-anchor="middle" x="1759" y="-194.5" font-family="Helvetica,sans-Serif" font-size="10.00">::operator=</text>
</a>
</g>
</g>
<!-- Node19&#45;&gt;Node20 -->
<g id="edge25_Node000019_Node000020" class="edge">
<title>Node19&#45;&gt;Node20</title>
<g id="a_edge25_Node000019_Node000020"><a xlink:title=" ">
<path fill="none" stroke="#63b8ff" d="M1637.73,-236.36C1655.63,-231.32 1676.03,-225.58 1694.87,-220.27"/>
<polygon fill="#63b8ff" stroke="#63b8ff" points="1695.89,-223.62 1704.56,-217.54 1693.99,-216.88 1695.89,-223.62"/>
</a>
</g>
</g>
<!-- Node21 -->
<g id="Node000021" class="node">
<title>Node21</title>
<g id="a_Node000021"><a xlink:href="classiot_1_1mqtt_1_1types_1_1UInt16.html#a60a47d7e83cd70d9c87031048668ba72" target="_top" xlink:title=" ">
<polygon fill="white" stroke="#666666" points="2001.5,-196.5 1871.5,-196.5 1871.5,-166.5 2001.5,-166.5 2001.5,-196.5"/>
<text text-anchor="start" x="1879.5" y="-184.5" font-family="Helvetica,sans-Serif" font-size="10.00">iot::mqtt::types::UInt16</text>
<text text-anchor="middle" x="1936.5" y="-173.5" font-family="Helvetica,sans-Serif" font-size="10.00">::operator=</text>
</a>
</g>
</g>
<!-- Node19&#45;&gt;Node21 -->
<g id="edge28_Node000019_Node000021" class="edge">
<title>Node19&#45;&gt;Node21</title>
<g id="a_edge28_Node000019_Node000021"><a xlink:title=" ">
<path fill="none" stroke="#63b8ff" d="M1603.02,-235.35C1622.28,-217.72 1656.98,-189.62 1693,-178.5 1747.55,-161.66 1812.36,-163.5 1861.24,-168.96"/>
<polygon fill="#63b8ff" stroke="#63b8ff" points="1861.08,-172.46 1871.42,-170.17 1861.91,-165.51 1861.08,-172.46"/>
</a>
</g>
</g>
<!-- Node22 -->
<g id="Node000022" class="node">
<title>Node22</title>
<g id="a_Node000022"><a xlink:href="classiot_1_1mqtt_1_1types_1_1StringRaw.html#abaec26c9099c9f8ca137e272858069ac" target="_top" xlink:title=" ">
<polygon fill="white" stroke="#666666" points="1822,-265.5 1696,-265.5 1696,-235.5 1822,-235.5 1822,-265.5"/>
<text text-anchor="start" x="1704" y="-253.5" font-family="Helvetica,sans-Serif" font-size="10.00">iot::mqtt::types::String</text>
<text text-anchor="middle" x="1759" y="-242.5" font-family="Helvetica,sans-Serif" font-size="10.00">Raw::operator=</text>
</a>
</g>
</g>
<!-- Node19&#45;&gt;Node22 -->
<g id="edge27_Node000019_Node000022" class="edge">
<title>Node19&#45;&gt;Node22</title>
<g id="a_edge27_Node000019_Node000022"><a xlink:title=" ">
<path fill="none" stroke="#63b8ff" d="M1637.73,-250.5C1652.64,-250.5 1669.28,-250.5 1685.31,-250.5"/>
<polygon fill="#63b8ff" stroke="#63b8ff" points="1685.73,-254 1695.73,-250.5 1685.73,-247 1685.73,-254"/>
</a>
</g>
</g>
<!-- Node23 -->
<g id="Node000023" class="node">
<title>Node23</title>
<g id="a_Node000023"><a xlink:href="classiot_1_1mqtt_1_1packets_1_1Publish.html#a9bfd14e069dd1fcf5ccf276c8c36b498" target="_top" xlink:title=" ">
<polygon fill="white" stroke="#666666" points="1810,-313.5 1708,-313.5 1708,-283.5 1810,-283.5 1810,-313.5"/>
<text text-anchor="start" x="1716" y="-301.5" font-family="Helvetica,sans-Serif" font-size="10.00">iot::mqtt::packets</text>
<text text-anchor="middle" x="1759" y="-290.5" font-family="Helvetica,sans-Serif" font-size="10.00">::Publish::Publish</text>
</a>
</g>
</g>
<!-- Node19&#45;&gt;Node23 -->
<g id="edge29_Node000019_Node000023" class="edge">
<title>Node19&#45;&gt;Node23</title>
<g id="a_edge29_Node000019_Node000023"><a xlink:title=" ">
<path fill="none" stroke="#63b8ff" d="M1637.73,-264.64C1656.64,-269.96 1678.33,-276.07 1698.04,-281.62"/>
<polygon fill="#63b8ff" stroke="#63b8ff" points="1697.26,-285.04 1707.83,-284.38 1699.15,-278.3 1697.26,-285.04"/>
</a>
</g>
</g>
<!-- Node20&#45;&gt;Node21 -->
<g id="edge26_Node000020_Node000021" class="edge">
<title>Node20&#45;&gt;Node21</title>
<g id="a_edge26_Node000020_Node000021"><a xlink:title=" ">
<path fill="none" stroke="#63b8ff" d="M1822.37,-195.04C1834.89,-193.54 1848.16,-191.95 1861.03,-190.41"/>
<polygon fill="#63b8ff" stroke="#63b8ff" points="1861.74,-193.85 1871.26,-189.19 1860.91,-186.9 1861.74,-193.85"/>
</a>
</g>
</g>
<!-- Node24 -->
<g id="Node000024" class="node">
<title>Node24</title>
<g id="a_Node000024"><a xlink:href="classiot_1_1mqtt_1_1ControlPacket.html#ae14191916323940c9bacc11d7f517c5a" target="_top" xlink:title=" ">
<polygon fill="white" stroke="#666666" points="2002.5,-313.5 1870.5,-313.5 1870.5,-283.5 2002.5,-283.5 2002.5,-313.5"/>
<text text-anchor="start" x="1878.5" y="-301.5" font-family="Helvetica,sans-Serif" font-size="10.00">iot::mqtt::ControlPacket</text>
<text text-anchor="middle" x="1936.5" y="-290.5" font-family="Helvetica,sans-Serif" font-size="10.00">::ControlPacket</text>
</a>
</g>
</g>
<!-- Node23&#45;&gt;Node24 -->
<g id="edge30_Node000023_Node000024" class="edge">
<title>Node23&#45;&gt;Node24</title>
<g id="a_edge30_Node000023_Node000024"><a xlink:title=" ">
<path fill="none" stroke="#63b8ff" d="M1810.29,-298.5C1825.81,-298.5 1843.25,-298.5 1860.08,-298.5"/>
<polygon fill="#63b8ff" stroke="#63b8ff" points="1860.45,-302 1870.45,-298.5 1860.45,-295 1860.45,-302"/>
</a>
</g>
</g>
<!-- Node26 -->
<g id="Node000026" class="node">
<title>Node26</title>
<g id="a_Node000026"><a xlink:href="classiot_1_1mqtt_1_1ControlPacket.html#a1d35b63fe04256fa31650462db1b311a" target="_top" xlink:title=" ">
<polygon fill="white" stroke="#666666" points="1825,-399.5 1693,-399.5 1693,-369.5 1825,-369.5 1825,-399.5"/>
<text text-anchor="start" x="1701" y="-387.5" font-family="Helvetica,sans-Serif" font-size="10.00">iot::mqtt::ControlPacket</text>
<text text-anchor="middle" x="1759" y="-376.5" font-family="Helvetica,sans-Serif" font-size="10.00">::getName</text>
</a>
</g>
</g>
<!-- Node25&#45;&gt;Node26 -->
<g id="edge32_Node000025_Node000026" class="edge">
<title>Node25&#45;&gt;Node26</title>
<g id="a_edge32_Node000025_Node000026"><a xlink:title=" ">
<path fill="none" stroke="#63b8ff" d="M1625.34,-417.96C1643.97,-413.26 1667.03,-407.44 1688.68,-401.98"/>
<polygon fill="#63b8ff" stroke="#63b8ff" points="1689.66,-405.35 1698.5,-399.51 1687.95,-398.56 1689.66,-405.35"/>
</a>
</g>
</g>
<!-- Node27 -->
<g id="Node000027" class="node">
<title>Node27</title>
<g id="a_Node000027"><a xlink:href="classiot_1_1mqtt_1_1Mqtt.html#a594844a93633d9acce2794ef5bc23c5a" target="_top" xlink:title=" ">
<polygon fill="white" stroke="#666666" points="1817,-437 1701,-437 1701,-418 1817,-418 1817,-437"/>
<text text-anchor="middle" x="1759" y="-425" font-family="Helvetica,sans-Serif" font-size="10.00">iot::mqtt::Mqtt::send</text>
</a>
</g>
</g>
<!-- Node25&#45;&gt;Node27 -->
<g id="edge33_Node000025_Node000027" class="edge">
<title>Node25&#45;&gt;Node27</title>
<g id="a_edge33_Node000025_Node000027"><a xlink:title=" ">
<path fill="none" stroke="#63b8ff" d="M1644.75,-427.5C1659.45,-427.5 1675.4,-427.5 1690.56,-427.5"/>
<polygon fill="#63b8ff" stroke="#63b8ff" points="1690.9,-431 1700.9,-427.5 1690.9,-424 1690.9,-431"/>
</a>
</g>
</g>
<!-- Node31 -->
<g id="Node000031" class="node">
<title>Node31</title>
<g id="a_Node000031"><a xlink:href="classiot_1_1mqtt_1_1ControlPacket.html#a05bfc24d7ae7380ef9b2fcb64ce37526" target="_top" xlink:title=" ">
<polygon fill="white" stroke="#666666" points="1825,-506.5 1693,-506.5 1693,-476.5 1825,-476.5 1825,-506.5"/>
<text text-anchor="start" x="1701" y="-494.5" font-family="Helvetica,sans-Serif" font-size="10.00">iot::mqtt::ControlPacket</text>
<text text-anchor="middle" x="1759" y="-483.5" font-family="Helvetica,sans-Serif" font-size="10.00">::serialize</text>
</a>
</g>
</g>
<!-- Node25&#45;&gt;Node31 -->
<g id="edge37_Node000025_Node000031" class="edge">
<title>Node25&#45;&gt;Node31</title>
<g id="a_edge37_Node000025_Node000031"><a xlink:title=" ">
<path fill="none" stroke="#63b8ff" d="M1613.03,-437.08C1638.2,-446.53 1677.33,-461.22 1708.6,-472.96"/>
<polygon fill="#63b8ff" stroke="#63b8ff" points="1707.43,-476.26 1718.03,-476.5 1709.89,-469.7 1707.43,-476.26"/>
</a>
</g>
</g>
<!-- Node28 -->
<g id="Node000028" class="node">
<title>Node28</title>
<g id="a_Node000028"><a xlink:href="classiot_1_1mqtt_1_1MqttContext.html#ab674b33f357f43982863a67c0429dd5b" target="_top" xlink:title=" ">
<polygon fill="white" stroke="#666666" points="1999,-431.5 1874,-431.5 1874,-401.5 1999,-401.5 1999,-431.5"/>
<text text-anchor="start" x="1882" y="-419.5" font-family="Helvetica,sans-Serif" font-size="10.00">iot::mqtt::MqttContext</text>
<text text-anchor="middle" x="1936.5" y="-408.5" font-family="Helvetica,sans-Serif" font-size="10.00">::send</text>
</a>
</g>
</g>
<!-- Node27&#45;&gt;Node28 -->
<g id="edge34_Node000027_Node000028" class="edge">
<title>Node27&#45;&gt;Node28</title>
<g id="a_edge34_Node000027_Node000028"><a xlink:title=" ">
<path fill="none" stroke="#63b8ff" d="M1817.47,-423.9C1832.31,-422.97 1848.47,-421.95 1863.93,-420.99"/>
<polygon fill="#63b8ff" stroke="#63b8ff" points="1864.21,-424.47 1873.98,-420.36 1863.78,-417.49 1864.21,-424.47"/>
</a>
</g>
</g>
<!-- Node29 -->
<g id="Node000029" class="node">
<title>Node29</title>
<g id="a_Node000029"><a xlink:href="classiot_1_1mqtt_1_1Mqtt.html#a16add1744c3cf0ea4a1f266b9d3f3902" target="_top" xlink:title=" ">
<polygon fill="white" stroke="#666666" points="2012,-362 1861,-362 1861,-343 2012,-343 2012,-362"/>
<text text-anchor="middle" x="1936.5" y="-350" font-family="Helvetica,sans-Serif" font-size="10.00">iot::mqtt::Mqtt::toHexString</text>
</a>
</g>
</g>
<!-- Node27&#45;&gt;Node29 -->
<g id="edge35_Node000027_Node000029" class="edge">
<title>Node27&#45;&gt;Node29</title>
<g id="a_edge35_Node000027_Node000029"><a xlink:title=" ">
<path fill="none" stroke="#63b8ff" d="M1797.18,-417.91C1806.39,-415.19 1816.14,-412 1825,-408.5 1841.28,-402.06 1881.54,-381.16 1908.7,-366.8"/>
<polygon fill="#63b8ff" stroke="#63b8ff" points="1910.51,-369.81 1917.7,-362.03 1907.23,-363.62 1910.51,-369.81"/>
</a>
</g>
</g>
<!-- Node30 -->
<g id="Node000030" class="node">
<title>Node30</title>
<g id="a_Node000030"><a xlink:href="namespaceutils.html#a3bd46aa5d1ad27cb939eda58b9ef4e67" target="_top" xlink:title=" ">
<polygon fill="white" stroke="#666666" points="2165.5,-362 2074.5,-362 2074.5,-343 2165.5,-343 2165.5,-362"/>
<text text-anchor="middle" x="2120" y="-350" font-family="Helvetica,sans-Serif" font-size="10.00">utils::hexDump</text>
</a>
</g>
</g>
<!-- Node29&#45;&gt;Node30 -->
<g id="edge36_Node000029_Node000030" class="edge">
<title>Node29&#45;&gt;Node30</title>
<g id="a_edge36_Node000029_Node000030"><a xlink:title=" ">
<path fill="none" stroke="#63b8ff" d="M2012.11,-352.5C2029.43,-352.5 2047.57,-352.5 2063.88,-352.5"/>
<polygon fill="#63b8ff" stroke="#63b8ff" points="2064.31,-356 2074.31,-352.5 2064.31,-349 2064.31,-356"/>
</a>
</g>
</g>
<!-- Node32 -->
<g id="Node000032" class="node">
<title>Node32</title>
<g id="a_Node000032"><a xlink:href="classiot_1_1mqtt_1_1FixedHeader.html#a45b8ecb57a876ecaec96ff3e59361b76" target="_top" xlink:title=" ">
<polygon fill="white" stroke="#666666" points="1999,-527.5 1874,-527.5 1874,-497.5 1999,-497.5 1999,-527.5"/>
<text text-anchor="start" x="1882" y="-515.5" font-family="Helvetica,sans-Serif" font-size="10.00">iot::mqtt::FixedHeader</text>
<text text-anchor="middle" x="1936.5" y="-504.5" font-family="Helvetica,sans-Serif" font-size="10.00">::FixedHeader</text>
</a>
</g>
</g>
<!-- Node31&#45;&gt;Node32 -->
<g id="edge38_Node000031_Node000032" class="edge">
<title>Node31&#45;&gt;Node32</title>
<g id="a_edge38_Node000031_Node000032"><a xlink:title=" ">
<path fill="none" stroke="#63b8ff" d="M1825.35,-499.32C1837.88,-500.82 1851.07,-502.4 1863.79,-503.92"/>
<polygon fill="#63b8ff" stroke="#63b8ff" points="1863.53,-507.41 1873.88,-505.13 1864.36,-500.46 1863.53,-507.41"/>
</a>
</g>
</g>
<!-- Node35 -->
<g id="Node000035" class="node">
<title>Node35</title>
<g id="a_Node000035"><a xlink:href="classiot_1_1mqtt_1_1FixedHeader.html#ad322e68956357200e493c128629b90e7" target="_top" xlink:title=" ">
<polygon fill="white" stroke="#666666" points="1999,-479.5 1874,-479.5 1874,-449.5 1999,-449.5 1999,-479.5"/>
<text text-anchor="start" x="1882" y="-467.5" font-family="Helvetica,sans-Serif" font-size="10.00">iot::mqtt::FixedHeader</text>
<text text-anchor="middle" x="1936.5" y="-456.5" font-family="Helvetica,sans-Serif" font-size="10.00">::serialize</text>
</a>
</g>
</g>
<!-- Node31&#45;&gt;Node35 -->
<g id="edge41_Node000031_Node000035" class="edge">
<title>Node31&#45;&gt;Node35</title>
<g id="a_edge41_Node000031_Node000035"><a xlink:title=" ">
<path fill="none" stroke="#63b8ff" d="M1825.35,-481.45C1837.88,-479.52 1851.07,-477.49 1863.79,-475.53"/>
<polygon fill="#63b8ff" stroke="#63b8ff" points="1864.52,-478.96 1873.88,-473.98 1863.46,-472.04 1864.52,-478.96"/>
</a>
</g>
</g>
<!-- Node37 -->
<g id="Node000037" class="node">
<title>Node37</title>
<g id="a_Node000037"><a xlink:href="classiot_1_1mqtt_1_1ControlPacket.html#ab4f58bf0c1920d705af23c8d7636247f" target="_top" xlink:title=" ">
<polygon fill="white" stroke="#666666" points="2002.5,-575.5 1870.5,-575.5 1870.5,-545.5 2002.5,-545.5 2002.5,-575.5"/>
<text text-anchor="start" x="1878.5" y="-563.5" font-family="Helvetica,sans-Serif" font-size="10.00">iot::mqtt::ControlPacket</text>
<text text-anchor="middle" x="1936.5" y="-552.5" font-family="Helvetica,sans-Serif" font-size="10.00">::serializeVP</text>
</a>
</g>
</g>
<!-- Node31&#45;&gt;Node37 -->
<g id="edge43_Node000031_Node000037" class="edge">
<title>Node31&#45;&gt;Node37</title>
<g id="a_edge43_Node000031_Node000037"><a xlink:title=" ">
<path fill="none" stroke="#63b8ff" d="M1791.48,-506.57C1811.22,-515.76 1837.33,-527.45 1861,-536.5 1866.08,-538.44 1871.39,-540.36 1876.73,-542.22"/>
<polygon fill="#63b8ff" stroke="#63b8ff" points="1875.75,-545.59 1886.35,-545.49 1878.01,-538.96 1875.75,-545.59"/>
</a>
</g>
</g>
<!-- Node33 -->
<g id="Node000033" class="node">
<title>Node33</title>
<g id="a_Node000033"><a xlink:href="classiot_1_1mqtt_1_1types_1_1UIntV.html#a55e63d1c17bc11b3634ca1c32b1e0ca8" target="_top" xlink:title=" ">
<polygon fill="white" stroke="#666666" points="2182.5,-575.5 2057.5,-575.5 2057.5,-545.5 2182.5,-545.5 2182.5,-575.5"/>
<text text-anchor="start" x="2065.5" y="-563.5" font-family="Helvetica,sans-Serif" font-size="10.00">iot::mqtt::types::UIntV</text>
<text text-anchor="middle" x="2120" y="-552.5" font-family="Helvetica,sans-Serif" font-size="10.00">::operator=</text>
</a>
</g>
</g>
<!-- Node32&#45;&gt;Node33 -->
<g id="edge39_Node000032_Node000033" class="edge">
<title>Node32&#45;&gt;Node33</title>
<g id="a_edge39_Node000032_Node000033"><a xlink:title=" ">
<path fill="none" stroke="#63b8ff" d="M1994.43,-527.56C2012.84,-532.43 2033.43,-537.87 2052.47,-542.91"/>
<polygon fill="#63b8ff" stroke="#63b8ff" points="2051.71,-546.32 2062.27,-545.5 2053.5,-539.56 2051.71,-546.32"/>
</a>
</g>
</g>
<!-- Node34 -->
<g id="Node000034" class="node">
<title>Node34</title>
<g id="a_Node000034"><a xlink:href="classiot_1_1mqtt_1_1types_1_1UInt8.html#a046b3f06a9eef1ed55414ec4272e2713" target="_top" xlink:title=" ">
<polygon fill="white" stroke="#666666" points="2182,-527.5 2058,-527.5 2058,-497.5 2182,-497.5 2182,-527.5"/>
<text text-anchor="start" x="2066" y="-515.5" font-family="Helvetica,sans-Serif" font-size="10.00">iot::mqtt::types::UInt8</text>
<text text-anchor="middle" x="2120" y="-504.5" font-family="Helvetica,sans-Serif" font-size="10.00">::operator=</text>
</a>
</g>
</g>
<!-- Node32&#45;&gt;Node34 -->
<g id="edge40_Node000032_Node000034" class="edge">
<title>Node32&#45;&gt;Node34</title>
<g id="a_edge40_Node000032_Node000034"><a xlink:title=" ">
<path fill="none" stroke="#63b8ff" d="M1999.2,-512.5C2014.71,-512.5 2031.49,-512.5 2047.44,-512.5"/>
<polygon fill="#63b8ff" stroke="#63b8ff" points="2047.78,-516 2057.78,-512.5 2047.78,-509 2047.78,-516"/>
</a>
</g>
</g>
<!-- Node36 -->
<g id="Node000036" class="node">
<title>Node36</title>
<g id="a_Node000036"><a xlink:href="classiot_1_1mqtt_1_1types_1_1TypeBase.html#a7e6939bfafb586b2c2990b485bc5218a" target="_top" xlink:title=" ">
<polygon fill="white" stroke="#666666" points="2192,-479.5 2048,-479.5 2048,-449.5 2192,-449.5 2192,-479.5"/>
<text text-anchor="start" x="2056" y="-467.5" font-family="Helvetica,sans-Serif" font-size="10.00">iot::mqtt::types::TypeBase</text>
<text text-anchor="middle" x="2120" y="-456.5" font-family="Helvetica,sans-Serif" font-size="10.00">::serialize</text>
</a>
</g>
</g>
<!-- Node35&#45;&gt;Node36 -->
<g id="edge42_Node000035_Node000036" class="edge">
<title>Node35&#45;&gt;Node36</title>
<g id="a_edge42_Node000035_Node000036"><a xlink:title=" ">
<path fill="none" stroke="#63b8ff" d="M1999.2,-464.5C2011.53,-464.5 2024.65,-464.5 2037.52,-464.5"/>
<polygon fill="#63b8ff" stroke="#63b8ff" points="2037.78,-468 2047.78,-464.5 2037.78,-461 2037.78,-468"/>
</a>
</g>
</g>
<!-- Node39&#45;&gt;Node29 -->
<g id="edge46_Node000039_Node000029" class="edge">
<title>Node39&#45;&gt;Node29</title>
<g id="a_edge46_Node000039_Node000029"><a xlink:title=" ">
<path fill="none" stroke="#63b8ff" d="M1468.01,-19.08C1472.45,-21.61 1476.53,-24.71 1480,-28.5 1554.63,-109.99 1442.67,-191.84 1516,-274.5 1559.26,-323.27 1741.33,-341.85 1850.89,-348.7"/>
<polygon fill="#63b8ff" stroke="#63b8ff" points="1850.74,-352.19 1860.93,-349.3 1851.16,-345.21 1850.74,-352.19"/>
</a>
</g>
</g>
</g>
</svg>
