<?xml version="1.0" encoding="UTF-8" standalone="no"?>
<!DOCTYPE svg PUBLIC "-//W3C//DTD SVG 1.1//EN"
 "http://www.w3.org/Graphics/SVG/1.1/DTD/svg11.dtd">
<!-- Generated by graphviz version 2.42.4 (0)
 -->
<!-- Title: utils::Config::bootstrap Pages: 1 -->
<svg width="644pt" height="124pt"
 viewBox="0.00 0.00 644.00 124.00" xmlns="http://www.w3.org/2000/svg" xmlns:xlink="http://www.w3.org/1999/xlink">
<g id="graph0" class="graph" transform="scale(1 1) rotate(0) translate(4 120)">
<title>utils::Config::bootstrap</title>
<!-- Node1 -->
<g id="Node000001" class="node">
<title>Node1</title>
<g id="a_Node000001"><a xlink:title=" ">
<polygon fill="#999999" stroke="#666666" points="128,-67.5 0,-67.5 0,-48.5 128,-48.5 128,-67.5"/>
<text text-anchor="middle" x="64" y="-55.5" font-family="Helvetica,sans-Serif" font-size="10.00">utils::Config::bootstrap</text>
</a>
</g>
</g>
<!-- Node2 -->
<g id="Node000002" class="node">
<title>Node2</title>
<g id="a_Node000002"><a xlink:href="classutils_1_1Daemon.html#a17d5f929b2f54f5200c540d077ad81e6" target="_top" xlink:title=" ">
<polygon fill="white" stroke="#666666" points="319,-67.5 164,-67.5 164,-48.5 319,-48.5 319,-67.5"/>
<text text-anchor="middle" x="241.5" y="-55.5" font-family="Helvetica,sans-Serif" font-size="10.00">utils::Daemon::startDaemon</text>
</a>
</g>
</g>
<!-- Node1&#45;&gt;Node2 -->
<g id="edge1_Node000001_Node000002" class="edge">
<title>Node1&#45;&gt;Node2</title>
<g id="a_edge1_Node000001_Node000002"><a xlink:title=" ">
<path fill="none" stroke="#63b8ff" d="M128.36,-58C136.62,-58 145.19,-58 153.74,-58"/>
<polygon fill="#63b8ff" stroke="#63b8ff" points="153.76,-61.5 163.76,-58 153.76,-54.5 153.76,-61.5"/>
</a>
</g>
</g>
<!-- Node3 -->
<g id="Node000003" class="node">
<title>Node3</title>
<g id="a_Node000003"><a xlink:href="classutils_1_1DaemonError.html#aa27072592459227b351e18e3e5ed39b3" target="_top" xlink:title=" ">
<polygon fill="white" stroke="#666666" points="472.5,-116 364.5,-116 364.5,-86 472.5,-86 472.5,-116"/>
<text text-anchor="start" x="372.5" y="-104" font-family="Helvetica,sans-Serif" font-size="10.00">utils::DaemonError</text>
<text text-anchor="middle" x="418.5" y="-93" font-family="Helvetica,sans-Serif" font-size="10.00">::DaemonError</text>
</a>
</g>
</g>
<!-- Node2&#45;&gt;Node3 -->
<g id="edge2_Node000002_Node000003" class="edge">
<title>Node2&#45;&gt;Node3</title>
<g id="a_edge2_Node000002_Node000003"><a xlink:title=" ">
<path fill="none" stroke="#63b8ff" d="M281.34,-67.54C302.76,-72.81 329.88,-79.47 354.27,-85.46"/>
<polygon fill="#63b8ff" stroke="#63b8ff" points="353.62,-88.91 364.17,-87.9 355.29,-82.11 353.62,-88.91"/>
</a>
</g>
</g>
<!-- Node4 -->
<g id="Node000004" class="node">
<title>Node4</title>
<g id="a_Node000004"><a xlink:href="classutils_1_1DaemonFailure.html#a51604e8ab0fc0c2829865a30f839db58" target="_top" xlink:title=" ">
<polygon fill="white" stroke="#666666" points="636,-94 518,-94 518,-64 636,-64 636,-94"/>
<text text-anchor="start" x="526" y="-82" font-family="Helvetica,sans-Serif" font-size="10.00">utils::DaemonFailure</text>
<text text-anchor="middle" x="577" y="-71" font-family="Helvetica,sans-Serif" font-size="10.00">::DaemonFailure</text>
</a>
</g>
</g>
<!-- Node2&#45;&gt;Node4 -->
<g id="edge4_Node000002_Node000004" class="edge">
<title>Node2&#45;&gt;Node4</title>
<g id="a_edge4_Node000002_Node000004"><a xlink:title=" ">
<path fill="none" stroke="#63b8ff" d="M319.01,-62.82C375.83,-66.4 452.65,-71.23 507.47,-74.68"/>
<polygon fill="#63b8ff" stroke="#63b8ff" points="507.58,-78.2 517.78,-75.33 508.02,-71.21 507.58,-78.2"/>
</a>
</g>
</g>
<!-- Node5 -->
<g id="Node000005" class="node">
<title>Node5</title>
<g id="a_Node000005"><a xlink:href="classutils_1_1DaemonSignaled.html#a9adf6390bb8ea16625aa9065da8c6149" target="_top" xlink:title=" ">
<polygon fill="white" stroke="#666666" points="482,-30 355,-30 355,0 482,0 482,-30"/>
<text text-anchor="start" x="363" y="-18" font-family="Helvetica,sans-Serif" font-size="10.00">utils::DaemonSignaled</text>
<text text-anchor="middle" x="418.5" y="-7" font-family="Helvetica,sans-Serif" font-size="10.00">::DaemonSignaled</text>
</a>
</g>
</g>
<!-- Node2&#45;&gt;Node5 -->
<g id="edge5_Node000002_Node000005" class="edge">
<title>Node2&#45;&gt;Node5</title>
<g id="a_edge5_Node000002_Node000005"><a xlink:title=" ">
<path fill="none" stroke="#63b8ff" d="M281.34,-48.46C300.55,-43.74 324.35,-37.89 346.65,-32.41"/>
<polygon fill="#63b8ff" stroke="#63b8ff" points="347.55,-35.79 356.43,-30.01 345.88,-28.99 347.55,-35.79"/>
</a>
</g>
</g>
<!-- Node3&#45;&gt;Node4 -->
<g id="edge3_Node000003_Node000004" class="edge">
<title>Node3&#45;&gt;Node4</title>
<g id="a_edge3_Node000003_Node000004"><a xlink:title=" ">
<path fill="none" stroke="#63b8ff" d="M472.92,-93.49C484.15,-91.91 496.15,-90.23 507.83,-88.58"/>
<polygon fill="#63b8ff" stroke="#63b8ff" points="508.58,-92.01 518,-87.15 507.61,-85.08 508.58,-92.01"/>
</a>
</g>
</g>
</g>
</svg>
