<?xml version="1.0" encoding="UTF-8" standalone="no"?>
<!DOCTYPE svg PUBLIC "-//W3C//DTD SVG 1.1//EN"
 "http://www.w3.org/Graphics/SVG/1.1/DTD/svg11.dtd">
<!-- Generated by graphviz version 2.43.0 (0)
 -->
<!-- Title: web::http::client::SocketContext::requestSent Pages: 1 -->
<svg width="738pt" height="196pt"
 viewBox="0.00 0.00 738.00 195.50" xmlns="http://www.w3.org/2000/svg" xmlns:xlink="http://www.w3.org/1999/xlink">
<g id="graph0" class="graph" transform="scale(1 1) rotate(0) translate(4 191.5)">
<title>web::http::client::SocketContext::requestSent</title>
<!-- Node1 -->
<g id="Node000001" class="node">
<title>Node1</title>
<g id="a_Node000001"><a xlink:title=" ">
<polygon fill="#999999" stroke="#666666" points="730,-102 578,-102 578,-72 730,-72 730,-102"/>
<text text-anchor="start" x="586" y="-90" font-family="Helvetica,sans-Serif" font-size="10.00">web::http::client::</text>
<text text-anchor="middle" x="654" y="-79" font-family="Helvetica,sans-Serif" font-size="10.00">SocketContext::requestSent</text>
</a>
</g>
</g>
<!-- Node2 -->
<g id="Node000002" class="node">
<title>Node2</title>
<g id="a_Node000002"><a xlink:href="classweb_1_1http_1_1client_1_1Request.html#a8c95e6589ab2f08f88c72a27de6d1248" target="_top" xlink:title=" ">
<polygon fill="white" stroke="#666666" points="542,-102 385,-102 385,-72 542,-72 542,-102"/>
<text text-anchor="start" x="393" y="-90" font-family="Helvetica,sans-Serif" font-size="10.00">web::http::client::</text>
<text text-anchor="middle" x="463.5" y="-79" font-family="Helvetica,sans-Serif" font-size="10.00">Request::dispatchCompleted</text>
</a>
</g>
</g>
<!-- Node1&#45;&gt;Node2 -->
<g id="edge1_Node000001_Node000002" class="edge">
<title>Node1&#45;&gt;Node2</title>
<g id="a_edge1_Node000001_Node000002"><a xlink:title=" ">
<path fill="none" stroke="#63b8ff" d="M567.91,-87C559.3,-87 550.59,-87 542.06,-87"/>
<polygon fill="#63b8ff" stroke="#63b8ff" points="567.96,-90.5 577.96,-87 567.96,-83.5 567.96,-90.5"/>
</a>
</g>
</g>
<!-- Node3 -->
<g id="Node000003" class="node">
<title>Node3</title>
<g id="a_Node000003"><a xlink:href="classweb_1_1http_1_1client_1_1Request.html#a093e398567ce5cea09738b847d66c821" target="_top" xlink:title=" ">
<polygon fill="white" stroke="#666666" points="337.5,-177 215.5,-177 215.5,-147 337.5,-147 337.5,-177"/>
<text text-anchor="start" x="223.5" y="-165" font-family="Helvetica,sans-Serif" font-size="10.00">web::http::client::</text>
<text text-anchor="middle" x="276.5" y="-154" font-family="Helvetica,sans-Serif" font-size="10.00">Request::dispatchEnd</text>
</a>
</g>
</g>
<!-- Node2&#45;&gt;Node3 -->
<g id="edge2_Node000002_Node000003" class="edge">
<title>Node2&#45;&gt;Node3</title>
<g id="a_edge2_Node000002_Node000003"><a xlink:title=" ">
<path fill="none" stroke="#63b8ff" d="M418.58,-106.05C397.6,-115.02 372.08,-125.77 349,-135 339.02,-138.99 328.2,-143.16 318.07,-147"/>
<polygon fill="#63b8ff" stroke="#63b8ff" points="420.06,-109.22 427.87,-102.06 417.3,-102.78 420.06,-109.22"/>
</a>
</g>
</g>
<!-- Node5 -->
<g id="Node000005" class="node">
<title>Node5</title>
<g id="a_Node000005"><a xlink:href="classweb_1_1http_1_1client_1_1Request.html#ab79c3ea6bab8c77dd3c363d8b1ab97df" target="_top" xlink:title=" ">
<polygon fill="white" stroke="#666666" points="349,-126 204,-126 204,-96 349,-96 349,-126"/>
<text text-anchor="start" x="212" y="-114" font-family="Helvetica,sans-Serif" font-size="10.00">web::http::client::</text>
<text text-anchor="middle" x="276.5" y="-103" font-family="Helvetica,sans-Serif" font-size="10.00">Request::dispatchUpgrade</text>
</a>
</g>
</g>
<!-- Node2&#45;&gt;Node5 -->
<g id="edge4_Node000002_Node000005" class="edge">
<title>Node2&#45;&gt;Node5</title>
<g id="a_edge4_Node000002_Node000005"><a xlink:title=" ">
<path fill="none" stroke="#63b8ff" d="M374.77,-98.38C366.16,-99.5 357.48,-100.62 349.05,-101.72"/>
<polygon fill="#63b8ff" stroke="#63b8ff" points="375.38,-101.83 384.85,-97.07 374.48,-94.89 375.38,-101.83"/>
</a>
</g>
</g>
<!-- Node7 -->
<g id="Node000007" class="node">
<title>Node7</title>
<g id="a_Node000007"><a xlink:href="classweb_1_1http_1_1client_1_1Request.html#a1ffe480fbc673d322ffa8e08ad539672" target="_top" xlink:title=" ">
<polygon fill="white" stroke="#666666" points="338,-78 215,-78 215,-48 338,-48 338,-78"/>
<text text-anchor="start" x="223" y="-66" font-family="Helvetica,sans-Serif" font-size="10.00">web::http::client::</text>
<text text-anchor="middle" x="276.5" y="-55" font-family="Helvetica,sans-Serif" font-size="10.00">Request::onSourceEof</text>
</a>
</g>
</g>
<!-- Node2&#45;&gt;Node7 -->
<g id="edge6_Node000002_Node000007" class="edge">
<title>Node2&#45;&gt;Node7</title>
<g id="a_edge6_Node000002_Node000007"><a xlink:title=" ">
<path fill="none" stroke="#63b8ff" d="M374.9,-75.64C362.44,-74.02 349.87,-72.39 338.08,-70.86"/>
<polygon fill="#63b8ff" stroke="#63b8ff" points="374.48,-79.11 384.85,-76.93 375.38,-72.17 374.48,-79.11"/>
</a>
</g>
</g>
<!-- Node8 -->
<g id="Node000008" class="node">
<title>Node8</title>
<g id="a_Node000008"><a xlink:href="classweb_1_1http_1_1client_1_1Request.html#a390775b7ef1e4ecbcebb0e0b9699bad7" target="_top" xlink:title=" ">
<polygon fill="white" stroke="#666666" points="342,-30 211,-30 211,0 342,0 342,-30"/>
<text text-anchor="start" x="219" y="-18" font-family="Helvetica,sans-Serif" font-size="10.00">web::http::client::</text>
<text text-anchor="middle" x="276.5" y="-7" font-family="Helvetica,sans-Serif" font-size="10.00">Request::onSourceError</text>
</a>
</g>
</g>
<!-- Node2&#45;&gt;Node8 -->
<g id="edge7_Node000002_Node000008" class="edge">
<title>Node2&#45;&gt;Node8</title>
<g id="a_edge7_Node000002_Node000008"><a xlink:title=" ">
<path fill="none" stroke="#63b8ff" d="M419.19,-67.77C398.16,-58.67 372.42,-47.87 349,-39 341.04,-35.99 332.51,-32.96 324.22,-30.11"/>
<polygon fill="#63b8ff" stroke="#63b8ff" points="417.94,-71.04 428.5,-71.82 420.73,-64.62 417.94,-71.04"/>
</a>
</g>
</g>
<!-- Node4 -->
<g id="Node000004" class="node">
<title>Node4</title>
<g id="a_Node000004"><a xlink:href="classweb_1_1http_1_1client_1_1commands_1_1EndCommand.html#a59716c0c909ff68b48ccc561e18be628" target="_top" xlink:title=" ">
<polygon fill="white" stroke="#666666" points="156.5,-187.5 11.5,-187.5 11.5,-146.5 156.5,-146.5 156.5,-187.5"/>
<text text-anchor="start" x="19.5" y="-175.5" font-family="Helvetica,sans-Serif" font-size="10.00">web::http::client::</text>
<text text-anchor="start" x="19.5" y="-164.5" font-family="Helvetica,sans-Serif" font-size="10.00">commands::EndCommand</text>
<text text-anchor="middle" x="84" y="-153.5" font-family="Helvetica,sans-Serif" font-size="10.00">::execute</text>
</a>
</g>
</g>
<!-- Node3&#45;&gt;Node4 -->
<g id="edge3_Node000003_Node000004" class="edge">
<title>Node3&#45;&gt;Node4</title>
<g id="a_edge3_Node000003_Node000004"><a xlink:title=" ">
<path fill="none" stroke="#63b8ff" d="M205.25,-163.84C189.43,-164.26 172.61,-164.7 156.73,-165.12"/>
<polygon fill="#63b8ff" stroke="#63b8ff" points="205.58,-167.34 215.49,-163.58 205.4,-160.34 205.58,-167.34"/>
</a>
</g>
</g>
<!-- Node6 -->
<g id="Node000006" class="node">
<title>Node6</title>
<g id="a_Node000006"><a xlink:href="classweb_1_1http_1_1client_1_1commands_1_1UpgradeCommand.html#ac5c803d44d5e548bc92711d6c74981f0" target="_top" xlink:title=" ">
<polygon fill="white" stroke="#666666" points="168,-128.5 0,-128.5 0,-87.5 168,-87.5 168,-128.5"/>
<text text-anchor="start" x="8" y="-116.5" font-family="Helvetica,sans-Serif" font-size="10.00">web::http::client::</text>
<text text-anchor="start" x="8" y="-105.5" font-family="Helvetica,sans-Serif" font-size="10.00">commands::UpgradeCommand</text>
<text text-anchor="middle" x="84" y="-94.5" font-family="Helvetica,sans-Serif" font-size="10.00">::execute</text>
</a>
</g>
</g>
<!-- Node5&#45;&gt;Node6 -->
<g id="edge5_Node000005_Node000006" class="edge">
<title>Node5&#45;&gt;Node6</title>
<g id="a_edge5_Node000005_Node000006"><a xlink:title=" ">
<path fill="none" stroke="#63b8ff" d="M193.58,-109.71C185.18,-109.58 176.63,-109.44 168.21,-109.31"/>
<polygon fill="#63b8ff" stroke="#63b8ff" points="193.7,-113.21 203.75,-109.87 193.81,-106.21 193.7,-113.21"/>
</a>
</g>
</g>
</g>
</svg>
