<?xml version="1.0" encoding="UTF-8" standalone="no"?>
<!DOCTYPE svg PUBLIC "-//W3C//DTD SVG 1.1//EN"
 "http://www.w3.org/Graphics/SVG/1.1/DTD/svg11.dtd">
<!-- Generated by graphviz version 2.42.4 (0)
 -->
<!-- Title: core::socket::stream::SocketContext::onWriteError Pages: 1 -->
<svg width="327pt" height="98pt"
 viewBox="0.00 0.00 327.00 97.50" xmlns="http://www.w3.org/2000/svg" xmlns:xlink="http://www.w3.org/1999/xlink">
<g id="graph0" class="graph" transform="scale(1 1) rotate(0) translate(4 93.5)">
<title>core::socket::stream::SocketContext::onWriteError</title>
<!-- Node1 -->
<g id="Node000001" class="node">
<title>Node1</title>
<g id="a_Node000001"><a xlink:title=" ">
<polygon fill="#999999" stroke="#666666" points="319,-57 158,-57 158,-27 319,-27 319,-57"/>
<text text-anchor="start" x="166" y="-45" font-family="Helvetica,sans-Serif" font-size="10.00">core::socket::stream</text>
<text text-anchor="middle" x="238.5" y="-34" font-family="Helvetica,sans-Serif" font-size="10.00">::SocketContext::onWriteError</text>
</a>
</g>
</g>
<!-- Node2 -->
<g id="Node000002" class="node">
<title>Node2</title>
<g id="a_Node000002"><a xlink:href="classcore_1_1socket_1_1stream_1_1SocketConnectionT.html#a774fb5df8ec9ec4aba38bed42f4d64a3" target="_top" xlink:title=" ">
<polygon fill="white" stroke="#666666" points="121.5,-89.5 0.5,-89.5 0.5,-48.5 121.5,-48.5 121.5,-89.5"/>
<text text-anchor="start" x="8.5" y="-77.5" font-family="Helvetica,sans-Serif" font-size="10.00">core::socket::stream</text>
<text text-anchor="start" x="8.5" y="-66.5" font-family="Helvetica,sans-Serif" font-size="10.00">::SocketConnectionT::</text>
<text text-anchor="middle" x="61" y="-55.5" font-family="Helvetica,sans-Serif" font-size="10.00">onWriteError</text>
</a>
</g>
</g>
<!-- Node1&#45;&gt;Node2 -->
<g id="edge1_Node000001_Node000002" class="edge">
<title>Node1&#45;&gt;Node2</title>
<g id="a_edge1_Node000001_Node000002"><a xlink:title=" ">
<path fill="none" stroke="#63b8ff" d="M147.89,-55.79C138.96,-57.16 130.06,-58.53 121.55,-59.84"/>
<polygon fill="#63b8ff" stroke="#63b8ff" points="148.61,-59.22 157.97,-54.24 147.55,-52.3 148.61,-59.22"/>
</a>
</g>
</g>
<!-- Node3 -->
<g id="Node000003" class="node">
<title>Node3</title>
<g id="a_Node000003"><a xlink:href="classSimpleSocketProtocol.html#ae2aba0e4906c219709536cd05dfae300" target="_top" xlink:title=" ">
<polygon fill="white" stroke="#666666" points="122,-30 0,-30 0,0 122,0 122,-30"/>
<text text-anchor="start" x="8" y="-18" font-family="Helvetica,sans-Serif" font-size="10.00">SimpleSocketProtocol</text>
<text text-anchor="middle" x="61" y="-7" font-family="Helvetica,sans-Serif" font-size="10.00">::onWriteError</text>
</a>
</g>
</g>
<!-- Node1&#45;&gt;Node3 -->
<g id="edge2_Node000001_Node000003" class="edge">
<title>Node1&#45;&gt;Node3</title>
<g id="a_edge2_Node000001_Node000003"><a xlink:title=" ">
<path fill="none" stroke="#63b8ff" d="M148.04,-28.24C139.25,-26.88 130.47,-25.53 122.07,-24.24"/>
<polygon fill="#63b8ff" stroke="#63b8ff" points="147.55,-31.7 157.97,-29.76 148.61,-24.78 147.55,-31.7"/>
</a>
</g>
</g>
</g>
</svg>
