<?xml version="1.0" encoding="UTF-8" standalone="no"?>
<!DOCTYPE svg PUBLIC "-//W3C//DTD SVG 1.1//EN"
 "http://www.w3.org/Graphics/SVG/1.1/DTD/svg11.dtd">
<!-- Generated by graphviz version 2.43.0 (0)
 -->
<!-- Title: web::http::client::Client&lt; SocketClientT, RequestT, ResponseT &gt; Pages: 1 -->
<svg width="192pt" height="126pt"
 viewBox="0.00 0.00 192.00 126.00" xmlns="http://www.w3.org/2000/svg" xmlns:xlink="http://www.w3.org/1999/xlink">
<g id="graph0" class="graph" transform="scale(1 1) rotate(0) translate(4 122)">
<title>web::http::client::Client&lt; SocketClientT, RequestT, ResponseT &gt;</title>
<!-- Node1 -->
<g id="Node000001" class="node">
<title>Node1</title>
<g id="a_Node000001"><a xlink:title=" ">
<polygon fill="#999999" stroke="transparent" points="156,-41 28,-41 28,0 156,0 156,-41"/>
<text text-anchor="start" x="32" y="-28.5" font-family="Helvetica,sans-Serif" font-size="10.00">web::http::client::</text>
<text text-anchor="start" x="32" y="-17.5" font-family="Helvetica,sans-Serif" font-size="10.00">Client&lt; SocketClientT,</text>
<text text-anchor="start" x="32" y="-6.5" font-family="Helvetica,sans-Serif" font-size="10.00"> RequestT, ResponseT &gt;</text>
<polygon fill="none" stroke="#666666" points="28,0 28,-41 156,-41 156,0 28,0"/>
</a>
</g>
</g>
<!-- Node2 -->
<g id="Node000002" class="node">
<title>Node2</title>
<g id="a_Node000002"><a xlink:title=" ">
<polygon fill="white" stroke="transparent" points="184,-118 0,-118 0,-77 184,-77 184,-118"/>
<text text-anchor="start" x="4.5" y="-105.5" font-family="Helvetica,sans-Serif" font-size="10.00">SocketClientT&lt; web</text>
<text text-anchor="start" x="4.5" y="-94.5" font-family="Helvetica,sans-Serif" font-size="10.00">::http::client::SocketContext</text>
<text text-anchor="start" x="4.5" y="-83.5" font-family="Helvetica,sans-Serif" font-size="10.00">Factory&lt; RequestT, ResponseT &gt; &gt;</text>
<polygon fill="none" stroke="#666666" points="0,-77 0,-118 184,-118 184,-77 0,-77"/>
</a>
</g>
</g>
<!-- Node2&#45;&gt;Node1 -->
<g id="edge1_Node000001_Node000002" class="edge">
<title>Node2&#45;&gt;Node1</title>
<g id="a_edge1_Node000001_Node000002"><a xlink:title=" ">
<path fill="none" stroke="#63b8ff" d="M92,-66.69C92,-58.08 92,-48.9 92,-41.07"/>
<polygon fill="none" stroke="#63b8ff" points="88.5,-66.79 92,-76.79 95.5,-66.79 88.5,-66.79"/>
</a>
</g>
</g>
</g>
</svg>
