<?xml version="1.0" encoding="UTF-8" standalone="no"?>
<!DOCTYPE svg PUBLIC "-//W3C//DTD SVG 1.1//EN"
 "http://www.w3.org/Graphics/SVG/1.1/DTD/svg11.dtd">
<!-- Generated by graphviz version 14.1.2 (0)
 -->
<!-- Title: core::socket::stream::tls::TLSShutdown::doShutdown Pages: 1 -->
<!--zoomable 695 -->

<svg id="main" version="1.1" xmlns="http://www.w3.org/2000/svg" xmlns:xlink="http://www.w3.org/1999/xlink" xml:space="preserve" onload="init(evt)">

<style type="text/css"><![CDATA[
.node, .edge {opacity: 0.7;}
.node.selected, .edge.selected {opacity: 1;}
.edge:hover path { stroke: red; }
.edge:hover polygon { stroke: red; fill: red; }
]]></style>

<defs>
  <circle id="rim" cx="0" cy="0" r="7"/>
  <circle id="rim2" cx="0" cy="0" r="3.5"/>
  <g id="zoomPlus">
    <use xlink:href="#rim" fill="#404040"><set attributeName="fill" to="#808080" begin="zoomplus.mouseover" end="zoomplus.mouseout"/></use>
    <path d="M-4,0h8M0,-4v8" fill="none" stroke="white" stroke-width="1.5" pointer-events="none"/>
  </g>
  <g id="zoomMin">
    <use xlink:href="#rim" fill="#404040"><set attributeName="fill" to="#808080" begin="zoomminus.mouseover" end="zoomminus.mouseout"/></use>
    <path d="M-4,0h8" fill="none" stroke="white" stroke-width="1.5" pointer-events="none"/>
  </g>
  <g id="arrowUp" transform="translate(30 24)">
    <use xlink:href="#rim"/>
    <path pointer-events="none" fill="none" stroke="white" stroke-width="1.5" d="M0,-3.0v7 M-2.5,-0.5L0,-3.0L2.5,-0.5"/>
  </g>
  <g id="arrowRight" transform="rotate(90) translate(36 -43)">
    <use xlink:href="#rim"/>
    <path pointer-events="none" fill="none" stroke="white" stroke-width="1.5" d="M0,-3.0v7 M-2.5,-0.5L0,-3.0L2.5,-0.5"/>
  </g>
  <g id="arrowDown" transform="rotate(180) translate(-30 -48)">
    <use xlink:href="#rim"/>
    <path pointer-events="none" fill="none" stroke="white" stroke-width="1.5" d="M0,-3.0v7 M-2.5,-0.5L0,-3.0L2.5,-0.5"/>
  </g>
  <g id="arrowLeft" transform="rotate(270) translate(-36 17)">
    <use xlink:href="#rim"/>
    <path pointer-events="none" fill="none" stroke="white" stroke-width="1.5" d="M0,-3.0v7 M-2.5,-0.5L0,-3.0L2.5,-0.5"/>
  </g>
  <g id="resetDef">
    <use xlink:href="#rim2" fill="#404040"><set attributeName="fill" to="#808080" begin="reset.mouseover" end="reset.mouseout"/></use>
  </g>
</defs>
<script type="application/ecmascript">
var viewWidth = 1362;
var viewHeight = 695;
var sectionId = 'dynsection-4';
</script>
<script type="application/ecmascript" xlink:href="svg.min.js"/>
<svg id="graph" class="graph">
<g id="viewport">
<title>core::socket::stream::tls::TLSShutdown::doShutdown</title>
<!-- Node1 -->
<g id="Node000001" class="node">
<title>Node1</title>
<g id="a_Node000001"><a xlink:title=" ">
<polygon fill="#999999" stroke="#666666" points="171.25,-415.13 0,-415.13 0,-381.63 171.25,-381.63 171.25,-415.13"/>
<text xml:space="preserve" text-anchor="start" x="8" y="-401.63" font-family="Helvetica,sans-Serif" font-size="10.00">core::socket::stream</text>
<text xml:space="preserve" text-anchor="middle" x="85.62" y="-388.88" font-family="Helvetica,sans-Serif" font-size="10.00">::tls::TLSShutdown::doShutdown</text>
</a>
</g>
</g>
<!-- Node2 -->
<g id="Node000002" class="node">
<title>Node2</title>
<g id="a_Node000002"><a xlink:href="classcore_1_1socket_1_1stream_1_1tls_1_1TLSShutdown.html#a65af96d7ac042893046ff2332e47ae8e" target="_top" xlink:title=" ">
<polygon fill="white" stroke="#666666" points="383.75,-415.13 207.25,-415.13 207.25,-381.63 383.75,-381.63 383.75,-415.13"/>
<text xml:space="preserve" text-anchor="start" x="215.25" y="-401.63" font-family="Helvetica,sans-Serif" font-size="10.00">core::socket::stream</text>
<text xml:space="preserve" text-anchor="middle" x="295.5" y="-388.88" font-family="Helvetica,sans-Serif" font-size="10.00">::tls::TLSShutdown::TLSShutdown</text>
</a>
</g>
</g>
<!-- Node1&#45;&gt;Node2 -->
<g id="edge1_Node000001_Node000002" class="edge">
<title>Node1&#45;&gt;Node2</title>
<g id="a_edge1_Node000001_Node000002"><a xlink:title=" ">
<path fill="none" stroke="#63b8ff" d="M171.48,-398.38C179.41,-398.38 187.5,-398.38 195.55,-398.38"/>
<polygon fill="#63b8ff" stroke="#63b8ff" points="195.37,-401.88 205.37,-398.38 195.37,-394.88 195.37,-401.88"/>
</a>
</g>
</g>
<!-- Node3 -->
<g id="Node000003" class="node">
<title>Node3</title>
<g id="a_Node000003"><a xlink:href="classcore_1_1DescriptorEventReceiver.html#a4ab422ce6622a29cee38a0108ee6ccc1" target="_top" xlink:title=" ">
<polygon fill="white" stroke="#666666" points="583.5,-545.13 419.75,-545.13 419.75,-511.63 583.5,-511.63 583.5,-545.13"/>
<text xml:space="preserve" text-anchor="start" x="427.75" y="-531.63" font-family="Helvetica,sans-Serif" font-size="10.00">core::DescriptorEventReceiver</text>
<text xml:space="preserve" text-anchor="middle" x="501.62" y="-518.88" font-family="Helvetica,sans-Serif" font-size="10.00">::disable</text>
</a>
</g>
</g>
<!-- Node2&#45;&gt;Node3 -->
<g id="edge2_Node000002_Node000003" class="edge">
<title>Node2&#45;&gt;Node3</title>
<g id="a_edge2_Node000002_Node000003"><a xlink:title=" ">
<path fill="none" stroke="#63b8ff" d="M312.46,-415.51C334.56,-438.3 376.65,-478.5 419.75,-502.38 422.44,-503.87 425.23,-505.29 428.08,-506.64"/>
<polygon fill="#63b8ff" stroke="#63b8ff" points="426.67,-509.85 437.24,-510.63 429.47,-503.43 426.67,-509.85"/>
</a>
</g>
</g>
<!-- Node8 -->
<g id="Node000008" class="node">
<title>Node8</title>
<g id="a_Node000008"><a xlink:href="classcore_1_1DescriptorEventReceiver.html#ace4fa96fa2d29ef1bcaf8fc1cf28100a" target="_top" xlink:title=" ">
<polygon fill="white" stroke="#666666" points="583.5,-493.13 419.75,-493.13 419.75,-459.63 583.5,-459.63 583.5,-493.13"/>
<text xml:space="preserve" text-anchor="start" x="427.75" y="-479.63" font-family="Helvetica,sans-Serif" font-size="10.00">core::DescriptorEventReceiver</text>
<text xml:space="preserve" text-anchor="middle" x="501.62" y="-466.88" font-family="Helvetica,sans-Serif" font-size="10.00">::enable</text>
</a>
</g>
</g>
<!-- Node2&#45;&gt;Node8 -->
<g id="edge7_Node000002_Node000008" class="edge">
<title>Node2&#45;&gt;Node8</title>
<g id="a_edge7_Node000002_Node000008"><a xlink:title=" ">
<path fill="none" stroke="#63b8ff" d="M334.73,-415.54C358.9,-426.13 390.9,-439.68 419.75,-450.38 424.47,-452.13 429.36,-453.88 434.31,-455.59"/>
<polygon fill="#63b8ff" stroke="#63b8ff" points="433.12,-458.88 443.72,-458.78 435.37,-452.25 433.12,-458.88"/>
</a>
</g>
</g>
<!-- Node20 -->
<g id="Node000020" class="node">
<title>Node20</title>
<g id="a_Node000020"><a xlink:href="classcore_1_1eventreceiver_1_1ReadEventReceiver.html#aca8a2e9521718d70233491cffbf09f3d" target="_top" xlink:title=" ">
<polygon fill="white" stroke="#666666" points="560.25,-139.51 443,-139.51 443,-93.26 560.25,-93.26 560.25,-139.51"/>
<text xml:space="preserve" text-anchor="start" x="451" y="-126.01" font-family="Helvetica,sans-Serif" font-size="10.00">core::eventreceiver</text>
<text xml:space="preserve" text-anchor="start" x="451" y="-113.26" font-family="Helvetica,sans-Serif" font-size="10.00">::ReadEventReceiver</text>
<text xml:space="preserve" text-anchor="middle" x="501.62" y="-100.51" font-family="Helvetica,sans-Serif" font-size="10.00">::ReadEventReceiver</text>
</a>
</g>
</g>
<!-- Node2&#45;&gt;Node20 -->
<g id="edge21_Node000002_Node000020" class="edge">
<title>Node2&#45;&gt;Node20</title>
<g id="a_edge21_Node000002_Node000020"><a xlink:title=" ">
<path fill="none" stroke="#63b8ff" d="M303.55,-381.25C319.95,-342.7 363.59,-247.37 419.75,-181.38 430.56,-168.68 444.14,-156.66 457.06,-146.49"/>
<polygon fill="#63b8ff" stroke="#63b8ff" points="458.84,-149.53 464.66,-140.68 454.59,-143.97 458.84,-149.53"/>
</a>
</g>
</g>
<!-- Node28 -->
<g id="Node000028" class="node">
<title>Node28</title>
<g id="a_Node000028"><a xlink:href="classcore_1_1DescriptorEventReceiver.html#afa983ac6b0ba8f28ce4c0fc16cd914f8" target="_top" xlink:title=" ">
<polygon fill="white" stroke="#666666" points="583.5,-389.13 419.75,-389.13 419.75,-355.63 583.5,-355.63 583.5,-389.13"/>
<text xml:space="preserve" text-anchor="start" x="427.75" y="-375.63" font-family="Helvetica,sans-Serif" font-size="10.00">core::DescriptorEventReceiver</text>
<text xml:space="preserve" text-anchor="middle" x="501.62" y="-362.88" font-family="Helvetica,sans-Serif" font-size="10.00">::resume</text>
</a>
</g>
</g>
<!-- Node2&#45;&gt;Node28 -->
<g id="edge31_Node000002_Node000028" class="edge">
<title>Node2&#45;&gt;Node28</title>
<g id="a_edge31_Node000002_Node000028"><a xlink:title=" ">
<path fill="none" stroke="#63b8ff" d="M383.96,-387.24C391.97,-386.22 400.11,-385.19 408.17,-384.16"/>
<polygon fill="#63b8ff" stroke="#63b8ff" points="408.51,-387.64 417.99,-382.91 407.63,-380.7 408.51,-387.64"/>
</a>
</g>
</g>
<!-- Node31 -->
<g id="Node000031" class="node">
<title>Node31</title>
<g id="a_Node000031"><a xlink:href="classcore_1_1DescriptorEventReceiver.html#aab5e466759c83194c5bc4b41f1a33103" target="_top" xlink:title=" ">
<polygon fill="white" stroke="#666666" points="583.5,-441.13 419.75,-441.13 419.75,-407.63 583.5,-407.63 583.5,-441.13"/>
<text xml:space="preserve" text-anchor="start" x="427.75" y="-427.63" font-family="Helvetica,sans-Serif" font-size="10.00">core::DescriptorEventReceiver</text>
<text xml:space="preserve" text-anchor="middle" x="501.62" y="-414.88" font-family="Helvetica,sans-Serif" font-size="10.00">::suspend</text>
</a>
</g>
</g>
<!-- Node2&#45;&gt;Node31 -->
<g id="edge37_Node000002_Node000031" class="edge">
<title>Node2&#45;&gt;Node31</title>
<g id="a_edge37_Node000002_Node000031"><a xlink:title=" ">
<path fill="none" stroke="#63b8ff" d="M383.96,-409.52C391.97,-410.54 400.11,-411.58 408.17,-412.61"/>
<polygon fill="#63b8ff" stroke="#63b8ff" points="407.63,-416.07 417.99,-413.86 408.51,-409.12 407.63,-416.07"/>
</a>
</g>
</g>
<!-- Node33 -->
<g id="Node000033" class="node">
<title>Node33</title>
<g id="a_Node000033"><a xlink:href="classcore_1_1eventreceiver_1_1WriteEventReceiver.html#aaae40b662157301c59d6477ba75f794f" target="_top" xlink:title=" ">
<polygon fill="white" stroke="#666666" points="561,-236.51 442.25,-236.51 442.25,-190.26 561,-190.26 561,-236.51"/>
<text xml:space="preserve" text-anchor="start" x="450.25" y="-223.01" font-family="Helvetica,sans-Serif" font-size="10.00">core::eventreceiver</text>
<text xml:space="preserve" text-anchor="start" x="450.25" y="-210.26" font-family="Helvetica,sans-Serif" font-size="10.00">::WriteEventReceiver</text>
<text xml:space="preserve" text-anchor="middle" x="501.62" y="-197.51" font-family="Helvetica,sans-Serif" font-size="10.00">::WriteEventReceiver</text>
</a>
</g>
</g>
<!-- Node2&#45;&gt;Node33 -->
<g id="edge41_Node000002_Node000033" class="edge">
<title>Node2&#45;&gt;Node33</title>
<g id="a_edge41_Node000002_Node000033"><a xlink:title=" ">
<path fill="none" stroke="#63b8ff" d="M315.34,-381.31C349.69,-350.18 422.95,-283.78 466.35,-244.44"/>
<polygon fill="#63b8ff" stroke="#63b8ff" points="468.7,-247.04 473.75,-237.74 463.99,-241.86 468.7,-247.04"/>
</a>
</g>
</g>
<!-- Node4 -->
<g id="Node000004" class="node">
<title>Node4</title>
<g id="a_Node000004"><a xlink:href="classcore_1_1DescriptorEventPublisher.html#a998d681666ff72ed73cf0799ff4aca77" target="_top" xlink:title=" ">
<polygon fill="white" stroke="#666666" points="785.5,-642.13 619.5,-642.13 619.5,-608.63 785.5,-608.63 785.5,-642.13"/>
<text xml:space="preserve" text-anchor="start" x="627.5" y="-628.63" font-family="Helvetica,sans-Serif" font-size="10.00">core::DescriptorEventPublisher</text>
<text xml:space="preserve" text-anchor="middle" x="702.5" y="-615.88" font-family="Helvetica,sans-Serif" font-size="10.00">::disable</text>
</a>
</g>
</g>
<!-- Node3&#45;&gt;Node4 -->
<g id="edge3_Node000003_Node000004" class="edge">
<title>Node3&#45;&gt;Node4</title>
<g id="a_edge3_Node000003_Node000004"><a xlink:title=" ">
<path fill="none" stroke="#63b8ff" d="M537.72,-545.5C570.71,-561.59 620.24,-585.75 656.2,-603.29"/>
<polygon fill="#63b8ff" stroke="#63b8ff" points="654.54,-606.37 665.06,-607.61 657.61,-600.08 654.54,-606.37"/>
</a>
</g>
</g>
<!-- Node6 -->
<g id="Node000006" class="node">
<title>Node6</title>
<g id="a_Node000006"><a xlink:href="classcore_1_1EventReceiver.html#a0735c234c7848cf4d45473a6f7ce11b2" target="_top" xlink:title=" ">
<polygon fill="white" stroke="#666666" points="759.25,-493.13 645.75,-493.13 645.75,-459.63 759.25,-459.63 759.25,-493.13"/>
<text xml:space="preserve" text-anchor="start" x="653.75" y="-479.63" font-family="Helvetica,sans-Serif" font-size="10.00">core::EventReceiver</text>
<text xml:space="preserve" text-anchor="middle" x="702.5" y="-466.88" font-family="Helvetica,sans-Serif" font-size="10.00">::getName</text>
</a>
</g>
</g>
<!-- Node3&#45;&gt;Node6 -->
<g id="edge5_Node000003_Node000006" class="edge">
<title>Node3&#45;&gt;Node6</title>
<g id="a_edge5_Node000003_Node000006"><a xlink:title=" ">
<path fill="none" stroke="#63b8ff" d="M568.57,-511.14C589.75,-505.6 613.23,-499.46 634.49,-493.9"/>
<polygon fill="#63b8ff" stroke="#63b8ff" points="635.13,-497.36 643.92,-491.44 633.36,-490.58 635.13,-497.36"/>
</a>
</g>
</g>
<!-- Node5 -->
<g id="Node000005" class="node">
<title>Node5</title>
<g id="a_Node000005"><a xlink:href="classcore_1_1DescriptorEventReceiver.html#a79f301b292a4c64f35f5bf44c9b7ad8f" target="_top" xlink:title=" ">
<polygon fill="white" stroke="#666666" points="986.38,-687.13 822.62,-687.13 822.62,-653.63 986.38,-653.63 986.38,-687.13"/>
<text xml:space="preserve" text-anchor="start" x="830.62" y="-673.63" font-family="Helvetica,sans-Serif" font-size="10.00">core::DescriptorEventReceiver</text>
<text xml:space="preserve" text-anchor="middle" x="904.5" y="-660.88" font-family="Helvetica,sans-Serif" font-size="10.00">::getRegisteredFd</text>
</a>
</g>
</g>
<!-- Node4&#45;&gt;Node5 -->
<g id="edge4_Node000004_Node000005" class="edge">
<title>Node4&#45;&gt;Node5</title>
<g id="a_edge4_Node000004_Node000005"><a xlink:title=" ">
<path fill="none" stroke="#63b8ff" d="M779.97,-642.59C791.79,-645.25 804.07,-648.01 816.11,-650.72"/>
<polygon fill="#63b8ff" stroke="#63b8ff" points="815.07,-654.07 825.6,-652.86 816.61,-647.25 815.07,-654.07"/>
</a>
</g>
</g>
<!-- Node7 -->
<g id="Node000007" class="node">
<title>Node7</title>
<g id="a_Node000007"><a xlink:href="classcore_1_1Event.html#a0ab010154200ef32e875dc673e921c94" target="_top" xlink:title=" ">
<polygon fill="white" stroke="#666666" points="965.38,-479.76 843.62,-479.76 843.62,-459.01 965.38,-459.01 965.38,-479.76"/>
<text xml:space="preserve" text-anchor="middle" x="904.5" y="-466.26" font-family="Helvetica,sans-Serif" font-size="10.00">core::Event::getName</text>
</a>
</g>
</g>
<!-- Node6&#45;&gt;Node7 -->
<g id="edge6_Node000006_Node000007" class="edge">
<title>Node6&#45;&gt;Node7</title>
<g id="a_edge6_Node000006_Node000007"><a xlink:title=" ">
<path fill="none" stroke="#63b8ff" d="M759.74,-474.41C782.08,-473.63 808.05,-472.72 831.72,-471.9"/>
<polygon fill="#63b8ff" stroke="#63b8ff" points="831.75,-475.4 841.62,-471.55 831.51,-468.4 831.75,-475.4"/>
</a>
</g>
</g>
<!-- Node8&#45;&gt;Node6 -->
<g id="edge20_Node000008_Node000006" class="edge">
<title>Node8&#45;&gt;Node6</title>
<g id="a_edge20_Node000008_Node000006"><a xlink:title=" ">
<path fill="none" stroke="#63b8ff" d="M583.8,-476.38C600.48,-476.38 617.87,-476.38 634.01,-476.38"/>
<polygon fill="#63b8ff" stroke="#63b8ff" points="633.99,-479.88 643.99,-476.38 633.99,-472.88 633.99,-479.88"/>
</a>
</g>
</g>
<!-- Node9 -->
<g id="Node000009" class="node">
<title>Node9</title>
<g id="a_Node000009"><a xlink:href="classcore_1_1DescriptorEventPublisher.html#ab1ba62f94b1882616f47a3cc8045b28d" target="_top" xlink:title=" ">
<polygon fill="white" stroke="#666666" points="785.5,-545.13 619.5,-545.13 619.5,-511.63 785.5,-511.63 785.5,-545.13"/>
<text xml:space="preserve" text-anchor="start" x="627.5" y="-531.63" font-family="Helvetica,sans-Serif" font-size="10.00">core::DescriptorEventPublisher</text>
<text xml:space="preserve" text-anchor="middle" x="702.5" y="-518.88" font-family="Helvetica,sans-Serif" font-size="10.00">::enable</text>
</a>
</g>
</g>
<!-- Node8&#45;&gt;Node9 -->
<g id="edge8_Node000008_Node000009" class="edge">
<title>Node8&#45;&gt;Node9</title>
<g id="a_edge8_Node000008_Node000009"><a xlink:title=" ">
<path fill="none" stroke="#63b8ff" d="M568.57,-493.63C586.54,-498.32 606.16,-503.45 624.68,-508.3"/>
<polygon fill="#63b8ff" stroke="#63b8ff" points="623.71,-511.66 634.27,-510.8 625.48,-504.89 623.71,-511.66"/>
</a>
</g>
</g>
<!-- Node9&#45;&gt;Node5 -->
<g id="edge12_Node000009_Node000005" class="edge">
<title>Node9&#45;&gt;Node5</title>
<g id="a_edge12_Node000009_Node000005"><a xlink:title=" ">
<path fill="none" stroke="#63b8ff" d="M725.35,-545.47C742.45,-559.26 766.44,-579.57 785.5,-599.38 803.26,-617.84 800.38,-629.89 821.5,-644.38 823.35,-645.65 825.26,-646.86 827.22,-648.01"/>
<polygon fill="#63b8ff" stroke="#63b8ff" points="825.57,-651.1 836.06,-652.61 828.8,-644.89 825.57,-651.1"/>
</a>
</g>
</g>
<!-- Node10 -->
<g id="Node000010" class="node">
<title>Node10</title>
<g id="a_Node000010"><a xlink:href="classutils_1_1Timeval.html#a54b232dc1ffeea007100dcd1caad1987" target="_top" xlink:title=" ">
<polygon fill="white" stroke="#666666" points="977.75,-351.76 831.25,-351.76 831.25,-331.01 977.75,-331.01 977.75,-351.76"/>
<text xml:space="preserve" text-anchor="middle" x="904.5" y="-338.26" font-family="Helvetica,sans-Serif" font-size="10.00">utils::Timeval::currentTime</text>
</a>
</g>
</g>
<!-- Node9&#45;&gt;Node10 -->
<g id="edge9_Node000009_Node000010" class="edge">
<title>Node9&#45;&gt;Node10</title>
<g id="a_edge9_Node000009_Node000010"><a xlink:title=" ">
<path fill="none" stroke="#63b8ff" d="M774.11,-511.16C778.23,-508.63 782.08,-505.72 785.5,-502.38 820.54,-468.25 791.96,-437.37 821.5,-398.38 834.42,-381.33 853.93,-367.47 870.68,-357.69"/>
<polygon fill="#63b8ff" stroke="#63b8ff" points="872.31,-360.79 879.35,-352.88 868.91,-354.68 872.31,-360.79"/>
</a>
</g>
</g>
<!-- Node13 -->
<g id="Node000013" class="node">
<title>Node13</title>
<g id="a_Node000013"><a xlink:href="classcore_1_1DescriptorEventReceiver.html#ac80fc901f941c059a6ebdb28147b25a2" target="_top" xlink:title=" ">
<polygon fill="white" stroke="#666666" points="986.38,-583.13 822.62,-583.13 822.62,-549.63 986.38,-549.63 986.38,-583.13"/>
<text xml:space="preserve" text-anchor="start" x="830.62" y="-569.63" font-family="Helvetica,sans-Serif" font-size="10.00">core::DescriptorEventReceiver</text>
<text xml:space="preserve" text-anchor="middle" x="904.5" y="-556.88" font-family="Helvetica,sans-Serif" font-size="10.00">::isSuspended</text>
</a>
</g>
</g>
<!-- Node9&#45;&gt;Node13 -->
<g id="edge13_Node000009_Node000013" class="edge">
<title>Node9&#45;&gt;Node13</title>
<g id="a_edge13_Node000009_Node000013"><a xlink:title=" ">
<path fill="none" stroke="#63b8ff" d="M785.71,-544C794.1,-545.6 802.67,-547.22 811.16,-548.84"/>
<polygon fill="#63b8ff" stroke="#63b8ff" points="810.29,-552.23 820.76,-550.66 811.59,-545.36 810.29,-552.23"/>
</a>
</g>
</g>
<!-- Node14 -->
<g id="Node000014" class="node">
<title>Node14</title>
<g id="a_Node000014"><a xlink:href="classcore_1_1DescriptorEventPublisher.html#a010d889407017a69f9635271587aab9a" target="_top" xlink:title=" ">
<polygon fill="white" stroke="#666666" points="987.5,-531.13 821.5,-531.13 821.5,-497.63 987.5,-497.63 987.5,-531.13"/>
<text xml:space="preserve" text-anchor="start" x="829.5" y="-517.63" font-family="Helvetica,sans-Serif" font-size="10.00">core::DescriptorEventPublisher</text>
<text xml:space="preserve" text-anchor="middle" x="904.5" y="-504.88" font-family="Helvetica,sans-Serif" font-size="10.00">::muxAdd</text>
</a>
</g>
</g>
<!-- Node9&#45;&gt;Node14 -->
<g id="edge14_Node000009_Node000014" class="edge">
<title>Node9&#45;&gt;Node14</title>
<g id="a_edge14_Node000009_Node000014"><a xlink:title=" ">
<path fill="none" stroke="#63b8ff" d="M785.71,-522.63C793.7,-522.07 801.83,-521.5 809.92,-520.93"/>
<polygon fill="#63b8ff" stroke="#63b8ff" points="810.04,-524.43 819.77,-520.24 809.55,-517.45 810.04,-524.43"/>
</a>
</g>
</g>
<!-- Node15 -->
<g id="Node000015" class="node">
<title>Node15</title>
<g id="a_Node000015"><a xlink:href="classcore_1_1DescriptorEventPublisher.html#a5e0e1a78a4bae48537ba6d0425a7c1cf" target="_top" xlink:title=" ">
<polygon fill="white" stroke="#666666" points="987.5,-441.13 821.5,-441.13 821.5,-407.63 987.5,-407.63 987.5,-441.13"/>
<text xml:space="preserve" text-anchor="start" x="829.5" y="-427.63" font-family="Helvetica,sans-Serif" font-size="10.00">core::DescriptorEventPublisher</text>
<text xml:space="preserve" text-anchor="middle" x="904.5" y="-414.88" font-family="Helvetica,sans-Serif" font-size="10.00">::muxOff</text>
</a>
</g>
</g>
<!-- Node9&#45;&gt;Node15 -->
<g id="edge15_Node000009_Node000015" class="edge">
<title>Node9&#45;&gt;Node15</title>
<g id="a_edge15_Node000009_Node000015"><a xlink:title=" ">
<path fill="none" stroke="#63b8ff" d="M770.68,-511.27C775.92,-508.7 780.93,-505.75 785.5,-502.38 808.11,-485.68 798.89,-467.08 821.5,-450.38 823.07,-449.22 824.69,-448.12 826.36,-447.06"/>
<polygon fill="#63b8ff" stroke="#63b8ff" points="827.97,-450.17 834.99,-442.24 824.56,-444.05 827.97,-450.17"/>
</a>
</g>
</g>
<!-- Node16 -->
<g id="Node000016" class="node">
<title>Node16</title>
<g id="a_Node000016"><a xlink:href="classcore_1_1DescriptorEventReceiver.html#a7d590ffb163531deb55223472bfc8400" target="_top" xlink:title=" ">
<polygon fill="white" stroke="#666666" points="986.38,-635.13 822.62,-635.13 822.62,-601.63 986.38,-601.63 986.38,-635.13"/>
<text xml:space="preserve" text-anchor="start" x="830.62" y="-621.63" font-family="Helvetica,sans-Serif" font-size="10.00">core::DescriptorEventReceiver</text>
<text xml:space="preserve" text-anchor="middle" x="904.5" y="-608.88" font-family="Helvetica,sans-Serif" font-size="10.00">::setEnabled</text>
</a>
</g>
</g>
<!-- Node9&#45;&gt;Node16 -->
<g id="edge16_Node000009_Node000016" class="edge">
<title>Node9&#45;&gt;Node16</title>
<g id="a_edge16_Node000009_Node000016"><a xlink:title=" ">
<path fill="none" stroke="#63b8ff" d="M731.36,-545.46C754.81,-559.34 789.54,-578.8 821.5,-592.38 825.56,-594.11 829.77,-595.78 834.05,-597.39"/>
<polygon fill="#63b8ff" stroke="#63b8ff" points="832.75,-600.64 843.35,-600.75 835.13,-594.06 832.75,-600.64"/>
</a>
</g>
</g>
<!-- Node11 -->
<g id="Node000011" class="node">
<title>Node11</title>
<g id="a_Node000011"><a xlink:href="namespaceutils_1_1system.html#ad594b7afe9fa80d3db04591c966422b2" target="_top" xlink:title=" ">
<polygon fill="white" stroke="#666666" points="1174.5,-331.76 1023.5,-331.76 1023.5,-311.01 1174.5,-311.01 1174.5,-331.76"/>
<text xml:space="preserve" text-anchor="middle" x="1099" y="-318.26" font-family="Helvetica,sans-Serif" font-size="10.00">utils::system::gettimeofday</text>
</a>
</g>
</g>
<!-- Node10&#45;&gt;Node11 -->
<g id="edge10_Node000010_Node000011" class="edge">
<title>Node10&#45;&gt;Node11</title>
<g id="a_edge10_Node000010_Node000011"><a xlink:title=" ">
<path fill="none" stroke="#63b8ff" d="M978,-333.85C989.11,-332.7 1000.67,-331.49 1012.04,-330.31"/>
<polygon fill="#63b8ff" stroke="#63b8ff" points="1012.23,-333.81 1021.81,-329.3 1011.51,-326.85 1012.23,-333.81"/>
</a>
</g>
</g>
<!-- Node12 -->
<g id="Node000012" class="node">
<title>Node12</title>
<g id="a_Node000012"><a xlink:href="classutils_1_1Timeval.html#a4a554848a362fa40feef1c3f93c0c2e5" target="_top" xlink:title=" ">
<polygon fill="white" stroke="#666666" points="1167.38,-370.76 1030.62,-370.76 1030.62,-350.01 1167.38,-350.01 1167.38,-370.76"/>
<text xml:space="preserve" text-anchor="middle" x="1099" y="-357.26" font-family="Helvetica,sans-Serif" font-size="10.00">utils::Timeval::operator&amp;</text>
</a>
</g>
</g>
<!-- Node10&#45;&gt;Node12 -->
<g id="edge11_Node000010_Node000012" class="edge">
<title>Node10&#45;&gt;Node12</title>
<g id="a_edge11_Node000010_Node000012"><a xlink:title=" ">
<path fill="none" stroke="#63b8ff" d="M978,-348.54C991.41,-349.86 1005.47,-351.25 1019.05,-352.59"/>
<polygon fill="#63b8ff" stroke="#63b8ff" points="1018.53,-356.06 1028.82,-353.56 1019.21,-349.09 1018.53,-356.06"/>
</a>
</g>
</g>
<!-- Node17 -->
<g id="Node000017" class="node">
<title>Node17</title>
<g id="a_Node000017"><a xlink:href="classcore_1_1Observer.html#aeff595f74f25efea85406cf700e13550" target="_top" xlink:title=" ">
<polygon fill="white" stroke="#666666" points="1168.12,-628.76 1029.88,-628.76 1029.88,-608.01 1168.12,-608.01 1168.12,-628.76"/>
<text xml:space="preserve" text-anchor="middle" x="1099" y="-615.26" font-family="Helvetica,sans-Serif" font-size="10.00">core::Observer::observed</text>
</a>
</g>
</g>
<!-- Node16&#45;&gt;Node17 -->
<g id="edge17_Node000016_Node000017" class="edge">
<title>Node16&#45;&gt;Node17</title>
<g id="a_edge17_Node000016_Node000017"><a xlink:title=" ">
<path fill="none" stroke="#63b8ff" d="M986.86,-618.38C997.15,-618.38 1007.67,-618.38 1017.94,-618.38"/>
<polygon fill="#63b8ff" stroke="#63b8ff" points="1017.88,-621.88 1027.88,-618.38 1017.88,-614.88 1017.88,-621.88"/>
</a>
</g>
</g>
<!-- Node18 -->
<g id="Node000018" class="node">
<title>Node18</title>
<g id="a_Node000018"><a xlink:href="classutils_1_1Timeval.html#ac5696b678505b8fb9ee27540ab1802ca" target="_top" xlink:title=" ">
<polygon fill="white" stroke="#666666" points="1167.75,-508.76 1030.25,-508.76 1030.25,-488.01 1167.75,-488.01 1167.75,-508.76"/>
<text xml:space="preserve" text-anchor="middle" x="1099" y="-495.26" font-family="Helvetica,sans-Serif" font-size="10.00">utils::Timeval::operator=</text>
</a>
</g>
</g>
<!-- Node16&#45;&gt;Node18 -->
<g id="edge18_Node000016_Node000018" class="edge">
<title>Node16&#45;&gt;Node18</title>
<g id="a_edge18_Node000016_Node000018"><a xlink:title=" ">
<path fill="none" stroke="#63b8ff" d="M968.81,-601.15C975.28,-598.56 981.62,-595.64 987.5,-592.38 1024.32,-571.98 1060.16,-538.16 1080.61,-517.13"/>
<polygon fill="#63b8ff" stroke="#63b8ff" points="1082.97,-519.72 1087.34,-510.07 1077.9,-514.89 1082.97,-519.72"/>
</a>
</g>
</g>
<!-- Node19 -->
<g id="Node000019" class="node">
<title>Node19</title>
<g id="a_Node000019"><a xlink:href="classutils_1_1Timeval.html#a09c93683f8c399644adff88b92577624" target="_top" xlink:title=" ">
<polygon fill="white" stroke="#666666" points="1350.62,-508.76 1213.88,-508.76 1213.88,-488.01 1350.62,-488.01 1350.62,-508.76"/>
<text xml:space="preserve" text-anchor="middle" x="1282.25" y="-495.26" font-family="Helvetica,sans-Serif" font-size="10.00">utils::Timeval::operator&amp;</text>
</a>
</g>
</g>
<!-- Node18&#45;&gt;Node19 -->
<g id="edge19_Node000018_Node000019" class="edge">
<title>Node18&#45;&gt;Node19</title>
<g id="a_edge19_Node000018_Node000019"><a xlink:title=" ">
<path fill="none" stroke="#63b8ff" d="M1168.01,-498.38C1179.16,-498.38 1190.79,-498.38 1202.18,-498.38"/>
<polygon fill="#63b8ff" stroke="#63b8ff" points="1201.95,-501.88 1211.95,-498.38 1201.95,-494.88 1201.95,-501.88"/>
</a>
</g>
</g>
<!-- Node21 -->
<g id="Node000021" class="node">
<title>Node21</title>
<g id="a_Node000021"><a xlink:href="classcore_1_1DescriptorEventReceiver.html#a1c88ab07dd31cc902fdfeb071f11956e" target="_top" xlink:title=" ">
<polygon fill="white" stroke="#666666" points="784.38,-133.13 620.62,-133.13 620.62,-99.63 784.38,-99.63 784.38,-133.13"/>
<text xml:space="preserve" text-anchor="start" x="628.62" y="-119.63" font-family="Helvetica,sans-Serif" font-size="10.00">core::DescriptorEventReceiver</text>
<text xml:space="preserve" text-anchor="middle" x="702.5" y="-106.88" font-family="Helvetica,sans-Serif" font-size="10.00">::DescriptorEventReceiver</text>
</a>
</g>
</g>
<!-- Node20&#45;&gt;Node21 -->
<g id="edge22_Node000020_Node000021" class="edge">
<title>Node20&#45;&gt;Node21</title>
<g id="a_edge22_Node000020_Node000021"><a xlink:title=" ">
<path fill="none" stroke="#63b8ff" d="M560.68,-116.38C575.87,-116.38 592.62,-116.38 609.11,-116.38"/>
<polygon fill="#63b8ff" stroke="#63b8ff" points="608.95,-119.88 618.95,-116.38 608.95,-112.88 608.95,-119.88"/>
</a>
</g>
</g>
<!-- Node24 -->
<g id="Node000024" class="node">
<title>Node24</title>
<g id="a_Node000024"><a xlink:href="classcore_1_1EventLoop.html#a17f1623de6ca2ea2682c63cf502c3c36" target="_top" xlink:title=" ">
<polygon fill="white" stroke="#666666" points="1354,-178.13 1210.5,-178.13 1210.5,-144.63 1354,-144.63 1354,-178.13"/>
<text xml:space="preserve" text-anchor="start" x="1218.5" y="-164.63" font-family="Helvetica,sans-Serif" font-size="10.00">core::EventLoop::getEvent</text>
<text xml:space="preserve" text-anchor="middle" x="1282.25" y="-151.88" font-family="Helvetica,sans-Serif" font-size="10.00">Multiplexer</text>
</a>
</g>
</g>
<!-- Node20&#45;&gt;Node24 -->
<g id="edge29_Node000020_Node000024" class="edge">
<title>Node20&#45;&gt;Node24</title>
<g id="a_edge29_Node000020_Node000024"><a xlink:title=" ">
<path fill="none" stroke="#63b8ff" d="M538.29,-92.85C560.61,-79.57 590.53,-64.28 619.5,-57.38 859.46,-0.25 946,35.52 1174.5,-57.38 1212.97,-73.02 1245.16,-109.93 1263.83,-135.29"/>
<polygon fill="#63b8ff" stroke="#63b8ff" points="1260.77,-137.03 1269.42,-143.14 1266.47,-132.97 1260.77,-137.03"/>
</a>
</g>
</g>
<!-- Node25 -->
<g id="Node000025" class="node">
<title>Node25</title>
<g id="a_Node000025"><a xlink:href="classcore_1_1EventLoop.html#a413d227511f68c2c9939719bd2590794" target="_top" xlink:title=" ">
<polygon fill="white" stroke="#666666" points="1352.88,-216.76 1211.62,-216.76 1211.62,-196.01 1352.88,-196.01 1352.88,-216.76"/>
<text xml:space="preserve" text-anchor="middle" x="1282.25" y="-203.26" font-family="Helvetica,sans-Serif" font-size="10.00">core::EventLoop::instance</text>
</a>
</g>
</g>
<!-- Node20&#45;&gt;Node25 -->
<g id="edge30_Node000020_Node000025" class="edge">
<title>Node20&#45;&gt;Node25</title>
<g id="a_edge30_Node000020_Node000025"><a xlink:title=" ">
<path fill="none" stroke="#63b8ff" d="M560.47,-100.89C579.16,-96.59 600.08,-92.52 619.5,-90.38 782.11,-72.51 827.48,-63.42 987.5,-97.38 1092.05,-119.57 1109.15,-153.46 1210.5,-187.38 1215.79,-189.15 1221.35,-190.88 1226.92,-192.51"/>
<polygon fill="#63b8ff" stroke="#63b8ff" points="1225.57,-195.77 1236.14,-195.14 1227.48,-189.03 1225.57,-195.77"/>
</a>
</g>
</g>
<!-- Node27 -->
<g id="Node000027" class="node">
<title>Node27</title>
<g id="a_Node000027"><a xlink:href="classcore_1_1EventMultiplexer.html#ad05d5ce3f2562bbd28d7a8a0ca782e88" target="_top" xlink:title=" ">
<polygon fill="white" stroke="#666666" points="782.88,-185.13 622.12,-185.13 622.12,-151.63 782.88,-151.63 782.88,-185.13"/>
<text xml:space="preserve" text-anchor="start" x="630.12" y="-171.63" font-family="Helvetica,sans-Serif" font-size="10.00">core::EventMultiplexer</text>
<text xml:space="preserve" text-anchor="middle" x="702.5" y="-158.88" font-family="Helvetica,sans-Serif" font-size="10.00">::getDescriptorEventPublisher</text>
</a>
</g>
</g>
<!-- Node20&#45;&gt;Node27 -->
<g id="edge28_Node000020_Node000027" class="edge">
<title>Node20&#45;&gt;Node27</title>
<g id="a_edge28_Node000020_Node000027"><a xlink:title=" ">
<path fill="none" stroke="#63b8ff" d="M560.68,-131.56C580.7,-136.8 603.43,-142.74 624.71,-148.3"/>
<polygon fill="#63b8ff" stroke="#63b8ff" points="623.66,-151.65 634.22,-150.79 625.43,-144.87 623.66,-151.65"/>
</a>
</g>
</g>
<!-- Node22 -->
<g id="Node000022" class="node">
<title>Node22</title>
<g id="a_Node000022"><a xlink:href="classcore_1_1EventReceiver.html#adec275118bd8a68e2b4cb71fa94d79b6" target="_top" xlink:title=" ">
<polygon fill="white" stroke="#666666" points="961.25,-223.13 847.75,-223.13 847.75,-189.63 961.25,-189.63 961.25,-223.13"/>
<text xml:space="preserve" text-anchor="start" x="855.75" y="-209.63" font-family="Helvetica,sans-Serif" font-size="10.00">core::EventReceiver</text>
<text xml:space="preserve" text-anchor="middle" x="904.5" y="-196.88" font-family="Helvetica,sans-Serif" font-size="10.00">::EventReceiver</text>
</a>
</g>
</g>
<!-- Node21&#45;&gt;Node22 -->
<g id="edge23_Node000021_Node000022" class="edge">
<title>Node21&#45;&gt;Node22</title>
<g id="a_edge23_Node000021_Node000022"><a xlink:title=" ">
<path fill="none" stroke="#63b8ff" d="M762.23,-133.51C770.14,-136.25 778.08,-139.23 785.5,-142.38 813.21,-154.17 843.01,-170.36 865.73,-183.51"/>
<polygon fill="#63b8ff" stroke="#63b8ff" points="863.93,-186.51 874.33,-188.54 867.47,-180.47 863.93,-186.51"/>
</a>
</g>
</g>
<!-- Node26 -->
<g id="Node000026" class="node">
<title>Node26</title>
<g id="a_Node000026"><a xlink:href="classutils_1_1Timeval.html#aea8eba217c23b75fc9483aa3e6848367" target="_top" xlink:title=" ">
<polygon fill="white" stroke="#666666" points="968,-126.76 841,-126.76 841,-106.01 968,-106.01 968,-126.76"/>
<text xml:space="preserve" text-anchor="middle" x="904.5" y="-113.26" font-family="Helvetica,sans-Serif" font-size="10.00">utils::Timeval::Timeval</text>
</a>
</g>
</g>
<!-- Node21&#45;&gt;Node26 -->
<g id="edge27_Node000021_Node000026" class="edge">
<title>Node21&#45;&gt;Node26</title>
<g id="a_edge27_Node000021_Node000026"><a xlink:title=" ">
<path fill="none" stroke="#63b8ff" d="M784.85,-116.38C799.53,-116.38 814.76,-116.38 829.22,-116.38"/>
<polygon fill="#63b8ff" stroke="#63b8ff" points="829.12,-119.88 839.12,-116.38 829.12,-112.88 829.12,-119.88"/>
</a>
</g>
</g>
<!-- Node23 -->
<g id="Node000023" class="node">
<title>Node23</title>
<g id="a_Node000023"><a xlink:href="classcore_1_1Event.html#a81e45f64219d897d59324c9dd0573936" target="_top" xlink:title=" ">
<polygon fill="white" stroke="#666666" points="1151.25,-216.76 1046.75,-216.76 1046.75,-196.01 1151.25,-196.01 1151.25,-216.76"/>
<text xml:space="preserve" text-anchor="middle" x="1099" y="-203.26" font-family="Helvetica,sans-Serif" font-size="10.00">core::Event::Event</text>
</a>
</g>
</g>
<!-- Node22&#45;&gt;Node23 -->
<g id="edge24_Node000022_Node000023" class="edge">
<title>Node22&#45;&gt;Node23</title>
<g id="a_edge24_Node000022_Node000023"><a xlink:title=" ">
<path fill="none" stroke="#63b8ff" d="M961.7,-206.38C984.68,-206.38 1011.37,-206.38 1035.01,-206.38"/>
<polygon fill="#63b8ff" stroke="#63b8ff" points="1034.83,-209.88 1044.83,-206.38 1034.83,-202.88 1034.83,-209.88"/>
</a>
</g>
</g>
<!-- Node23&#45;&gt;Node24 -->
<g id="edge25_Node000023_Node000024" class="edge">
<title>Node23&#45;&gt;Node24</title>
<g id="a_edge25_Node000023_Node000024"><a xlink:title=" ">
<path fill="none" stroke="#63b8ff" d="M1143.41,-195.6C1160.73,-191.3 1181.24,-186.21 1201.08,-181.29"/>
<polygon fill="#63b8ff" stroke="#63b8ff" points="1201.67,-184.75 1210.53,-178.94 1199.99,-177.95 1201.67,-184.75"/>
</a>
</g>
</g>
<!-- Node23&#45;&gt;Node25 -->
<g id="edge26_Node000023_Node000025" class="edge">
<title>Node23&#45;&gt;Node25</title>
<g id="a_edge26_Node000023_Node000025"><a xlink:title=" ">
<path fill="none" stroke="#63b8ff" d="M1151.45,-206.38C1166.59,-206.38 1183.53,-206.38 1200.05,-206.38"/>
<polygon fill="#63b8ff" stroke="#63b8ff" points="1199.88,-209.88 1209.88,-206.38 1199.88,-202.88 1199.88,-209.88"/>
</a>
</g>
</g>
<!-- Node28&#45;&gt;Node6 -->
<g id="edge33_Node000028_Node000006" class="edge">
<title>Node28&#45;&gt;Node6</title>
<g id="a_edge33_Node000028_Node000006"><a xlink:title=" ">
<path fill="none" stroke="#63b8ff" d="M568.89,-389.57C574.05,-392.12 579,-395.04 583.5,-398.38 606.08,-415.13 596.89,-433.68 619.5,-450.38 624.19,-453.84 629.35,-456.85 634.73,-459.47"/>
<polygon fill="#63b8ff" stroke="#63b8ff" points="633.33,-462.68 643.9,-463.43 636.1,-456.25 633.33,-462.68"/>
</a>
</g>
</g>
<!-- Node28&#45;&gt;Node10 -->
<g id="edge32_Node000028_Node000010" class="edge">
<title>Node28&#45;&gt;Node10</title>
<g id="a_edge32_Node000028_Node000010"><a xlink:title=" ">
<path fill="none" stroke="#63b8ff" d="M583.75,-366.11C652.34,-360.81 750.24,-353.23 819.61,-347.87"/>
<polygon fill="#63b8ff" stroke="#63b8ff" points="819.71,-351.37 829.41,-347.11 819.17,-344.39 819.71,-351.37"/>
</a>
</g>
</g>
<!-- Node28&#45;&gt;Node18 -->
<g id="edge34_Node000028_Node000018" class="edge">
<title>Node28&#45;&gt;Node18</title>
<g id="a_edge34_Node000028_Node000018"><a xlink:title=" ">
<path fill="none" stroke="#63b8ff" d="M583.97,-370.24C702.67,-368.2 916.88,-368.97 987.5,-398.38 1028.65,-415.52 1064.45,-454.87 1083.47,-478.78"/>
<polygon fill="#63b8ff" stroke="#63b8ff" points="1080.54,-480.72 1089.43,-486.49 1086.08,-476.44 1080.54,-480.72"/>
</a>
</g>
</g>
<!-- Node29 -->
<g id="Node000029" class="node">
<title>Node29</title>
<g id="a_Node000029"><a xlink:href="classcore_1_1DescriptorEventPublisher.html#adef0cdee352a13b99772af079fb7bfe1" target="_top" xlink:title=" ">
<polygon fill="white" stroke="#666666" points="785.5,-313.13 619.5,-313.13 619.5,-279.63 785.5,-279.63 785.5,-313.13"/>
<text xml:space="preserve" text-anchor="start" x="627.5" y="-299.63" font-family="Helvetica,sans-Serif" font-size="10.00">core::DescriptorEventPublisher</text>
<text xml:space="preserve" text-anchor="middle" x="702.5" y="-286.88" font-family="Helvetica,sans-Serif" font-size="10.00">::resume</text>
</a>
</g>
</g>
<!-- Node28&#45;&gt;Node29 -->
<g id="edge35_Node000028_Node000029" class="edge">
<title>Node28&#45;&gt;Node29</title>
<g id="a_edge35_Node000028_Node000029"><a xlink:title=" ">
<path fill="none" stroke="#63b8ff" d="M547,-355.22C568.82,-346.8 595.53,-336.53 619.5,-327.38 627.8,-324.22 636.57,-320.88 645.18,-317.62"/>
<polygon fill="#63b8ff" stroke="#63b8ff" points="646.41,-320.9 654.52,-314.09 643.93,-314.35 646.41,-320.9"/>
</a>
</g>
</g>
<!-- Node30 -->
<g id="Node000030" class="node">
<title>Node30</title>
<g id="a_Node000030"><a xlink:href="classcore_1_1DescriptorEventPublisher.html#a8cdba59fd3522f1e108a21f6f818840e" target="_top" xlink:title=" ">
<polygon fill="white" stroke="#666666" points="987.5,-313.13 821.5,-313.13 821.5,-279.63 987.5,-279.63 987.5,-313.13"/>
<text xml:space="preserve" text-anchor="start" x="829.5" y="-299.63" font-family="Helvetica,sans-Serif" font-size="10.00">core::DescriptorEventPublisher</text>
<text xml:space="preserve" text-anchor="middle" x="904.5" y="-286.88" font-family="Helvetica,sans-Serif" font-size="10.00">::muxOn</text>
</a>
</g>
</g>
<!-- Node29&#45;&gt;Node30 -->
<g id="edge36_Node000029_Node000030" class="edge">
<title>Node29&#45;&gt;Node30</title>
<g id="a_edge36_Node000029_Node000030"><a xlink:title=" ">
<path fill="none" stroke="#63b8ff" d="M785.71,-296.38C793.7,-296.38 801.83,-296.38 809.92,-296.38"/>
<polygon fill="#63b8ff" stroke="#63b8ff" points="809.77,-299.88 819.77,-296.38 809.77,-292.88 809.77,-299.88"/>
</a>
</g>
</g>
<!-- Node31&#45;&gt;Node6 -->
<g id="edge38_Node000031_Node000006" class="edge">
<title>Node31&#45;&gt;Node6</title>
<g id="a_edge38_Node000031_Node000006"><a xlink:title=" ">
<path fill="none" stroke="#63b8ff" d="M568.57,-441.63C589.75,-447.16 613.23,-453.3 634.49,-458.86"/>
<polygon fill="#63b8ff" stroke="#63b8ff" points="633.36,-462.18 643.92,-461.33 635.13,-455.41 633.36,-462.18"/>
</a>
</g>
</g>
<!-- Node32 -->
<g id="Node000032" class="node">
<title>Node32</title>
<g id="a_Node000032"><a xlink:href="classcore_1_1DescriptorEventPublisher.html#ac1bfb115c6aba58d380862a43db457e8" target="_top" xlink:title=" ">
<polygon fill="white" stroke="#666666" points="785.5,-441.13 619.5,-441.13 619.5,-407.63 785.5,-407.63 785.5,-441.13"/>
<text xml:space="preserve" text-anchor="start" x="627.5" y="-427.63" font-family="Helvetica,sans-Serif" font-size="10.00">core::DescriptorEventPublisher</text>
<text xml:space="preserve" text-anchor="middle" x="702.5" y="-414.88" font-family="Helvetica,sans-Serif" font-size="10.00">::suspend</text>
</a>
</g>
</g>
<!-- Node31&#45;&gt;Node32 -->
<g id="edge39_Node000031_Node000032" class="edge">
<title>Node31&#45;&gt;Node32</title>
<g id="a_edge39_Node000031_Node000032"><a xlink:title=" ">
<path fill="none" stroke="#63b8ff" d="M583.8,-424.38C591.76,-424.38 599.88,-424.38 607.94,-424.38"/>
<polygon fill="#63b8ff" stroke="#63b8ff" points="607.78,-427.88 617.78,-424.38 607.78,-420.88 607.78,-427.88"/>
</a>
</g>
</g>
<!-- Node32&#45;&gt;Node15 -->
<g id="edge40_Node000032_Node000015" class="edge">
<title>Node32&#45;&gt;Node15</title>
<g id="a_edge40_Node000032_Node000015"><a xlink:title=" ">
<path fill="none" stroke="#63b8ff" d="M785.71,-424.38C793.7,-424.38 801.83,-424.38 809.92,-424.38"/>
<polygon fill="#63b8ff" stroke="#63b8ff" points="809.77,-427.88 819.77,-424.38 809.77,-420.88 809.77,-427.88"/>
</a>
</g>
</g>
<!-- Node33&#45;&gt;Node21 -->
<g id="edge42_Node000033_Node000021" class="edge">
<title>Node33&#45;&gt;Node21</title>
<g id="a_edge42_Node000033_Node000021"><a xlink:title=" ">
<path fill="none" stroke="#63b8ff" d="M536.46,-189.84C559.18,-174.8 590.21,-155.69 619.5,-142.38 623.26,-140.68 627.16,-139.04 631.13,-137.47"/>
<polygon fill="#63b8ff" stroke="#63b8ff" points="632.19,-140.8 640.33,-134.01 629.74,-134.25 632.19,-140.8"/>
</a>
</g>
</g>
<!-- Node33&#45;&gt;Node24 -->
<g id="edge44_Node000033_Node000024" class="edge">
<title>Node33&#45;&gt;Node24</title>
<g id="a_edge44_Node000033_Node000024"><a xlink:title=" ">
<path fill="none" stroke="#63b8ff" d="M561.33,-214.59C619.06,-214.58 709.35,-211.33 785.5,-194.38 802.26,-190.65 804.7,-183.9 821.5,-180.38 951.36,-153.23 1106.22,-153.31 1198.99,-156.72"/>
<polygon fill="#63b8ff" stroke="#63b8ff" points="1198.62,-160.21 1208.75,-157.1 1198.9,-153.21 1198.62,-160.21"/>
</a>
</g>
</g>
<!-- Node33&#45;&gt;Node25 -->
<g id="edge45_Node000033_Node000025" class="edge">
<title>Node33&#45;&gt;Node25</title>
<g id="a_edge45_Node000033_Node000025"><a xlink:title=" ">
<path fill="none" stroke="#63b8ff" d="M561.38,-221.52C579.94,-223.79 600.54,-226.02 619.5,-227.38 865.53,-245.12 929.24,-251.67 1174.5,-225.38 1188.53,-223.88 1203.5,-221.63 1217.65,-219.19"/>
<polygon fill="#63b8ff" stroke="#63b8ff" points="1218.07,-222.67 1227.3,-217.48 1216.84,-215.78 1218.07,-222.67"/>
</a>
</g>
</g>
<!-- Node33&#45;&gt;Node27 -->
<g id="edge43_Node000033_Node000027" class="edge">
<title>Node33&#45;&gt;Node27</title>
<g id="a_edge43_Node000033_Node000027"><a xlink:title=" ">
<path fill="none" stroke="#63b8ff" d="M561.49,-200.06C578.09,-196.31 596.51,-192.14 614.39,-188.09"/>
<polygon fill="#63b8ff" stroke="#63b8ff" points="614.97,-191.55 623.95,-185.93 613.43,-184.72 614.97,-191.55"/>
</a>
</g>
</g>
</g>
</svg>

<g id="navigator" transform="translate(0 0)" fill="#404254">
  <rect fill="#f2f5e9" fill-opacity="0.5" stroke="#606060" stroke-width=".5" x="0" y="0" width="60" height="60"/>
  <use id="zoomplus" xlink:href="#zoomPlus" x="17" y="9" onmousedown="handleZoom(evt,'in')"/>
  <use id="zoomminus" xlink:href="#zoomMin" x="42" y="9" onmousedown="handleZoom(evt,'out')"/>
  <use id="reset" xlink:href="#resetDef" x="30" y="36" onmousedown="handleReset()"/>
   <use id="arrowup" xlink:href="#arrowUp" x="0" y="0" onmousedown="handlePan(0,-1)"/>
  <use id="arrowright" xlink:href="#arrowRight" x="0" y="0" onmousedown="handlePan(1,0)"/>
  <use id="arrowdown" xlink:href="#arrowDown" x="0" y="0" onmousedown="handlePan(0,1)"/>
  <use id="arrowleft" xlink:href="#arrowLeft" x="0" y="0" onmousedown="handlePan(-1,0)"/>
</g>
<svg viewBox="0 0 15 15" width="100%" height="30px" preserveAspectRatio="xMaxYMin meet">
 <g id="arrow_out" transform="scale(0.3 0.3)">
  <a xlink:href="classcore_1_1socket_1_1stream_1_1tls_1_1TLSShutdown_a3fa5f2766d74bdea0127800c7ba9d4e9_cgraph_org.svg" target="_base">
   <rect id="button" ry="5" rx="5" y="6" x="6" height="38" width="38"
        fill="#f2f5e9" fill-opacity="0.5" stroke="#606060" stroke-width="1.0"/>
   <path id="arrow"
     d="M 11.500037,31.436501 C 11.940474,20.09759 22.043105,11.32322 32.158766,21.979434 L 37.068811,17.246167 C 37.068811,17.246167 37.088388,32 37.088388,32 L 22.160133,31.978069 C 22.160133,31.978069 26.997745,27.140456 26.997745,27.140456 C 18.528582,18.264221 13.291696,25.230495 11.500037,31.436501 z"
     style="fill:#404040;"/>
  </a>
 </g>
</svg>

<style type='text/css'>
<![CDATA[
[data-mouse-over-selected='false'] { opacity: 0.7; }
[data-mouse-over-selected='true']  { opacity: 1.0; }
]]>
</style>
<script type="application/ecmascript"><![CDATA[
document.addEventListener('DOMContentLoaded', (event) => {
  highlightEdges();
  highlightAdjacentNodes();
});
]]></script>
</svg>
