<?xml version="1.0" encoding="UTF-8" standalone="no"?>
<!DOCTYPE svg PUBLIC "-//W3C//DTD SVG 1.1//EN"
 "http://www.w3.org/Graphics/SVG/1.1/DTD/svg11.dtd">
<!-- Generated by graphviz version 2.43.0 (0)
 -->
<!-- Title: web::http::Parser::readContent Pages: 1 -->
<svg width="276pt" height="278pt"
 viewBox="0.00 0.00 276.00 278.00" xmlns="http://www.w3.org/2000/svg" xmlns:xlink="http://www.w3.org/1999/xlink">
<g id="graph0" class="graph" transform="scale(1 1) rotate(0) translate(4 274)">
<title>web::http::Parser::readContent</title>
<!-- Node1 -->
<g id="Node000001" class="node">
<title>Node1</title>
<g id="a_Node000001"><a xlink:title=" ">
<polygon fill="#999999" stroke="#666666" points="98,-150 0,-150 0,-120 98,-120 98,-150"/>
<text text-anchor="start" x="8" y="-138" font-family="Helvetica,sans-Serif" font-size="10.00">web::http::Parser::</text>
<text text-anchor="middle" x="49" y="-127" font-family="Helvetica,sans-Serif" font-size="10.00">readContent</text>
</a>
</g>
</g>
<!-- Node2 -->
<g id="Node000002" class="node">
<title>Node2</title>
<g id="a_Node000002"><a xlink:href="classweb_1_1http_1_1ContentDecoder.html#adbf14c6c888b80753369c01f6fa1f901" target="_top" xlink:title=" ">
<polygon fill="white" stroke="#666666" points="268,-270 134,-270 134,-240 268,-240 268,-270"/>
<text text-anchor="start" x="142" y="-258" font-family="Helvetica,sans-Serif" font-size="10.00">web::http::ContentDecoder</text>
<text text-anchor="middle" x="201" y="-247" font-family="Helvetica,sans-Serif" font-size="10.00">::getContent</text>
</a>
</g>
</g>
<!-- Node1&#45;&gt;Node2 -->
<g id="edge1_Node000001_Node000002" class="edge">
<title>Node1&#45;&gt;Node2</title>
<g id="a_edge1_Node000001_Node000002"><a xlink:title=" ">
<path fill="none" stroke="#63b8ff" d="M59.58,-150.1C73.57,-171.02 101.47,-208.73 134,-231 136.16,-232.48 138.41,-233.87 140.74,-235.2"/>
<polygon fill="#63b8ff" stroke="#63b8ff" points="139.5,-238.49 150,-239.92 142.68,-232.26 139.5,-238.49"/>
</a>
</g>
</g>
<!-- Node3 -->
<g id="Node000003" class="node">
<title>Node3</title>
<g id="a_Node000003"><a xlink:href="classweb_1_1http_1_1ContentDecoder.html#a87938c095efae27c00f2719e5fc5db0d" target="_top" xlink:title=" ">
<polygon fill="white" stroke="#666666" points="268,-222 134,-222 134,-192 268,-192 268,-222"/>
<text text-anchor="start" x="142" y="-210" font-family="Helvetica,sans-Serif" font-size="10.00">web::http::ContentDecoder</text>
<text text-anchor="middle" x="201" y="-199" font-family="Helvetica,sans-Serif" font-size="10.00">::isCompleted</text>
</a>
</g>
</g>
<!-- Node1&#45;&gt;Node3 -->
<g id="edge2_Node000001_Node000003" class="edge">
<title>Node1&#45;&gt;Node3</title>
<g id="a_edge2_Node000001_Node000003"><a xlink:title=" ">
<path fill="none" stroke="#63b8ff" d="M74.04,-150.2C90.53,-160.26 113.12,-173.32 134,-183 137.8,-184.76 141.76,-186.48 145.78,-188.14"/>
<polygon fill="#63b8ff" stroke="#63b8ff" points="144.62,-191.44 155.2,-191.88 147.2,-184.93 144.62,-191.44"/>
</a>
</g>
</g>
<!-- Node4 -->
<g id="Node000004" class="node">
<title>Node4</title>
<g id="a_Node000004"><a xlink:href="classweb_1_1http_1_1ContentDecoder.html#a8bcbb930f2782618f8104e17fc258315" target="_top" xlink:title=" ">
<polygon fill="white" stroke="#666666" points="268,-174 134,-174 134,-144 268,-144 268,-174"/>
<text text-anchor="start" x="142" y="-162" font-family="Helvetica,sans-Serif" font-size="10.00">web::http::ContentDecoder</text>
<text text-anchor="middle" x="201" y="-151" font-family="Helvetica,sans-Serif" font-size="10.00">::isError</text>
</a>
</g>
</g>
<!-- Node1&#45;&gt;Node4 -->
<g id="edge3_Node000001_Node000004" class="edge">
<title>Node1&#45;&gt;Node4</title>
<g id="a_edge3_Node000001_Node000004"><a xlink:title=" ">
<path fill="none" stroke="#63b8ff" d="M98.29,-142.73C106.41,-144.03 115.02,-145.4 123.65,-146.78"/>
<polygon fill="#63b8ff" stroke="#63b8ff" points="123.34,-150.28 133.76,-148.4 124.44,-143.37 123.34,-150.28"/>
</a>
</g>
</g>
<!-- Node5 -->
<g id="Node000005" class="node">
<title>Node5</title>
<g id="a_Node000005"><a xlink:href="classweb_1_1http_1_1Parser.html#a82018d052e9889444a498e72580e32f4" target="_top" xlink:title=" ">
<polygon fill="white" stroke="#666666" points="250,-126 152,-126 152,-96 250,-96 250,-126"/>
<text text-anchor="start" x="160" y="-114" font-family="Helvetica,sans-Serif" font-size="10.00">web::http::Parser::</text>
<text text-anchor="middle" x="201" y="-103" font-family="Helvetica,sans-Serif" font-size="10.00">parseContent</text>
</a>
</g>
</g>
<!-- Node1&#45;&gt;Node5 -->
<g id="edge4_Node000001_Node000005" class="edge">
<title>Node1&#45;&gt;Node5</title>
<g id="a_edge4_Node000001_Node000005"><a xlink:title=" ">
<path fill="none" stroke="#63b8ff" d="M98.29,-127.27C112.07,-125.07 127.24,-122.64 141.56,-120.35"/>
<polygon fill="#63b8ff" stroke="#63b8ff" points="142.48,-123.75 151.8,-118.71 141.38,-116.84 142.48,-123.75"/>
</a>
</g>
</g>
<!-- Node6 -->
<g id="Node000006" class="node">
<title>Node6</title>
<g id="a_Node000006"><a xlink:href="classweb_1_1http_1_1Parser.html#a491e5696e8475beabe6288d1471f2e8e" target="_top" xlink:title=" ">
<polygon fill="white" stroke="#666666" points="250,-78 152,-78 152,-48 250,-48 250,-78"/>
<text text-anchor="start" x="160" y="-66" font-family="Helvetica,sans-Serif" font-size="10.00">web::http::Parser::</text>
<text text-anchor="middle" x="201" y="-55" font-family="Helvetica,sans-Serif" font-size="10.00">parsingError</text>
</a>
</g>
</g>
<!-- Node1&#45;&gt;Node6 -->
<g id="edge5_Node000001_Node000006" class="edge">
<title>Node1&#45;&gt;Node6</title>
<g id="a_edge5_Node000001_Node000006"><a xlink:title=" ">
<path fill="none" stroke="#63b8ff" d="M74.04,-119.8C90.53,-109.74 113.12,-96.68 134,-87 137.8,-85.24 141.76,-83.52 145.78,-81.86"/>
<polygon fill="#63b8ff" stroke="#63b8ff" points="147.2,-85.07 155.2,-78.12 144.62,-78.56 147.2,-85.07"/>
</a>
</g>
</g>
<!-- Node7 -->
<g id="Node000007" class="node">
<title>Node7</title>
<g id="a_Node000007"><a xlink:href="classweb_1_1http_1_1ContentDecoder.html#aa783ff5fd0e2d0f72514d6ebc0a4cd3a" target="_top" xlink:title=" ">
<polygon fill="white" stroke="#666666" points="268,-30 134,-30 134,0 268,0 268,-30"/>
<text text-anchor="start" x="142" y="-18" font-family="Helvetica,sans-Serif" font-size="10.00">web::http::ContentDecoder</text>
<text text-anchor="middle" x="201" y="-7" font-family="Helvetica,sans-Serif" font-size="10.00">::read</text>
</a>
</g>
</g>
<!-- Node1&#45;&gt;Node7 -->
<g id="edge6_Node000001_Node000007" class="edge">
<title>Node1&#45;&gt;Node7</title>
<g id="a_edge6_Node000001_Node000007"><a xlink:title=" ">
<path fill="none" stroke="#63b8ff" d="M59.58,-119.9C73.57,-98.98 101.47,-61.27 134,-39 136.16,-37.52 138.41,-36.13 140.74,-34.8"/>
<polygon fill="#63b8ff" stroke="#63b8ff" points="142.68,-37.74 150,-30.08 139.5,-31.51 142.68,-37.74"/>
</a>
</g>
</g>
</g>
</svg>
