<?xml version="1.0" encoding="UTF-8" standalone="no"?>
<!DOCTYPE svg PUBLIC "-//W3C//DTD SVG 1.1//EN"
 "http://www.w3.org/Graphics/SVG/1.1/DTD/svg11.dtd">
<!-- Generated by graphviz version 2.42.4 (0)
 -->
<!-- Title: iot::mqtt_fast::SocketContext::sendSubscribe Pages: 1 -->
<svg width="959pt" height="182pt"
 viewBox="0.00 0.00 959.00 182.00" xmlns="http://www.w3.org/2000/svg" xmlns:xlink="http://www.w3.org/1999/xlink">
<g id="graph0" class="graph" transform="scale(1 1) rotate(0) translate(4 178)">
<title>iot::mqtt_fast::SocketContext::sendSubscribe</title>
<!-- Node1 -->
<g id="Node000001" class="node">
<title>Node1</title>
<g id="a_Node000001"><a xlink:title=" ">
<polygon fill="#999999" stroke="#666666" points="159,-102 0,-102 0,-72 159,-72 159,-102"/>
<text text-anchor="start" x="8" y="-90" font-family="Helvetica,sans-Serif" font-size="10.00">iot::mqtt_fast::SocketContext</text>
<text text-anchor="middle" x="79.5" y="-79" font-family="Helvetica,sans-Serif" font-size="10.00">::sendSubscribe</text>
</a>
</g>
</g>
<!-- Node2 -->
<g id="Node000002" class="node">
<title>Node2</title>
<g id="a_Node000002"><a xlink:href="classiot_1_1mqtt__fast_1_1SocketContext.html#a8e4c784caa62ee3e865bf3565bab0e58" target="_top" xlink:title=" ">
<polygon fill="white" stroke="#666666" points="354,-150 195,-150 195,-120 354,-120 354,-150"/>
<text text-anchor="start" x="203" y="-138" font-family="Helvetica,sans-Serif" font-size="10.00">iot::mqtt_fast::SocketContext</text>
<text text-anchor="middle" x="274.5" y="-127" font-family="Helvetica,sans-Serif" font-size="10.00">::getPacketIdentifier</text>
</a>
</g>
</g>
<!-- Node1&#45;&gt;Node2 -->
<g id="edge1_Node000001_Node000002" class="edge">
<title>Node1&#45;&gt;Node2</title>
<g id="a_edge1_Node000001_Node000002"><a xlink:title=" ">
<path fill="none" stroke="#63b8ff" d="M141.04,-102.06C160.8,-106.97 182.91,-112.47 203.31,-117.54"/>
<polygon fill="#63b8ff" stroke="#63b8ff" points="202.63,-120.98 213.18,-120 204.32,-114.19 202.63,-120.98"/>
</a>
</g>
</g>
<!-- Node3 -->
<g id="Node000003" class="node">
<title>Node3</title>
<g id="a_Node000003"><a xlink:href="classiot_1_1mqtt__fast_1_1SocketContext.html#ad63e12c3b927b3b462b32398fe5f67d9" target="_top" xlink:title=" ">
<polygon fill="white" stroke="#666666" points="354,-102 195,-102 195,-72 354,-72 354,-102"/>
<text text-anchor="start" x="203" y="-90" font-family="Helvetica,sans-Serif" font-size="10.00">iot::mqtt_fast::SocketContext</text>
<text text-anchor="middle" x="274.5" y="-79" font-family="Helvetica,sans-Serif" font-size="10.00">::send</text>
</a>
</g>
</g>
<!-- Node1&#45;&gt;Node3 -->
<g id="edge2_Node000001_Node000003" class="edge">
<title>Node1&#45;&gt;Node3</title>
<g id="a_edge2_Node000001_Node000003"><a xlink:title=" ">
<path fill="none" stroke="#63b8ff" d="M159,-87C167.48,-87 176.14,-87 184.73,-87"/>
<polygon fill="#63b8ff" stroke="#63b8ff" points="184.76,-90.5 194.76,-87 184.76,-83.5 184.76,-90.5"/>
</a>
</g>
</g>
<!-- Node11 -->
<g id="Node000011" class="node">
<title>Node11</title>
<g id="a_Node000011"><a xlink:href="classiot_1_1mqtt__fast_1_1packets_1_1Subscribe.html#a487c0c7a64ba7fdbd8659676ccafb95d" target="_top" xlink:title=" ">
<polygon fill="white" stroke="#666666" points="337.5,-54 211.5,-54 211.5,-24 337.5,-24 337.5,-54"/>
<text text-anchor="start" x="219.5" y="-42" font-family="Helvetica,sans-Serif" font-size="10.00">iot::mqtt_fast::packets</text>
<text text-anchor="middle" x="274.5" y="-31" font-family="Helvetica,sans-Serif" font-size="10.00">::Subscribe::Subscribe</text>
</a>
</g>
</g>
<!-- Node1&#45;&gt;Node11 -->
<g id="edge10_Node000001_Node000011" class="edge">
<title>Node1&#45;&gt;Node11</title>
<g id="a_edge10_Node000001_Node000011"><a xlink:title=" ">
<path fill="none" stroke="#63b8ff" d="M141.04,-71.94C160.8,-67.03 182.91,-61.53 203.31,-56.46"/>
<polygon fill="#63b8ff" stroke="#63b8ff" points="204.32,-59.81 213.18,-54 202.63,-53.02 204.32,-59.81"/>
</a>
</g>
</g>
<!-- Node4 -->
<g id="Node000004" class="node">
<title>Node4</title>
<g id="a_Node000004"><a xlink:href="classiot_1_1mqtt__fast_1_1ControlPacket.html#a0ecf57322b57d796e14f30a925f4bb0d" target="_top" xlink:title=" ">
<polygon fill="white" stroke="#666666" points="547.5,-126 391.5,-126 391.5,-96 547.5,-96 547.5,-126"/>
<text text-anchor="start" x="399.5" y="-114" font-family="Helvetica,sans-Serif" font-size="10.00">iot::mqtt_fast::ControlPacket</text>
<text text-anchor="middle" x="469.5" y="-103" font-family="Helvetica,sans-Serif" font-size="10.00">::getPacket</text>
</a>
</g>
</g>
<!-- Node3&#45;&gt;Node4 -->
<g id="edge3_Node000003_Node000004" class="edge">
<title>Node3&#45;&gt;Node4</title>
<g id="a_edge3_Node000003_Node000004"><a xlink:title=" ">
<path fill="none" stroke="#63b8ff" d="M354,-96.76C362.95,-97.87 372.11,-99.01 381.16,-100.14"/>
<polygon fill="#63b8ff" stroke="#63b8ff" points="380.96,-103.64 391.32,-101.4 381.83,-96.7 380.96,-103.64"/>
</a>
</g>
</g>
<!-- Node7 -->
<g id="Node000007" class="node">
<title>Node7</title>
<g id="a_Node000007"><a xlink:href="classiot_1_1mqtt__fast_1_1SocketContext.html#a88df3b676d4d68b669e289b8f66f2bbd" target="_top" xlink:title=" ">
<polygon fill="white" stroke="#666666" points="549,-78 390,-78 390,-48 549,-48 549,-78"/>
<text text-anchor="start" x="398" y="-66" font-family="Helvetica,sans-Serif" font-size="10.00">iot::mqtt_fast::SocketContext</text>
<text text-anchor="middle" x="469.5" y="-55" font-family="Helvetica,sans-Serif" font-size="10.00">::send</text>
</a>
</g>
</g>
<!-- Node3&#45;&gt;Node7 -->
<g id="edge6_Node000003_Node000007" class="edge">
<title>Node3&#45;&gt;Node7</title>
<g id="a_edge6_Node000003_Node000007"><a xlink:title=" ">
<path fill="none" stroke="#63b8ff" d="M354,-77.24C362.48,-76.18 371.14,-75.11 379.73,-74.04"/>
<polygon fill="#63b8ff" stroke="#63b8ff" points="380.26,-77.5 389.76,-72.79 379.4,-70.55 380.26,-77.5"/>
</a>
</g>
</g>
<!-- Node5 -->
<g id="Node000005" class="node">
<title>Node5</title>
<g id="a_Node000005"><a xlink:href="classiot_1_1mqtt__fast_1_1types_1_1Binary.html#ae6e3d4c99926d8ce815eb4738fe8f230" target="_top" xlink:title=" ">
<polygon fill="white" stroke="#666666" points="722.5,-174 606.5,-174 606.5,-144 722.5,-144 722.5,-174"/>
<text text-anchor="start" x="614.5" y="-162" font-family="Helvetica,sans-Serif" font-size="10.00">iot::mqtt_fast::types</text>
<text text-anchor="middle" x="664.5" y="-151" font-family="Helvetica,sans-Serif" font-size="10.00">::Binary::getLength</text>
</a>
</g>
</g>
<!-- Node4&#45;&gt;Node5 -->
<g id="edge4_Node000004_Node000005" class="edge">
<title>Node4&#45;&gt;Node5</title>
<g id="a_edge4_Node000004_Node000005"><a xlink:title=" ">
<path fill="none" stroke="#63b8ff" d="M531.04,-126.06C551.84,-131.23 575.25,-137.05 596.53,-142.35"/>
<polygon fill="#63b8ff" stroke="#63b8ff" points="595.92,-145.8 606.47,-144.82 597.61,-139.01 595.92,-145.8"/>
</a>
</g>
</g>
<!-- Node6 -->
<g id="Node000006" class="node">
<title>Node6</title>
<g id="a_Node000006"><a xlink:href="classiot_1_1mqtt__fast_1_1types_1_1Binary.html#ac7bf7f96ddc87f7cf79eda642cacbfa3" target="_top" xlink:title=" ">
<polygon fill="white" stroke="#666666" points="722.5,-126 606.5,-126 606.5,-96 722.5,-96 722.5,-126"/>
<text text-anchor="start" x="614.5" y="-114" font-family="Helvetica,sans-Serif" font-size="10.00">iot::mqtt_fast::types</text>
<text text-anchor="middle" x="664.5" y="-103" font-family="Helvetica,sans-Serif" font-size="10.00">::Binary::getValue</text>
</a>
</g>
</g>
<!-- Node4&#45;&gt;Node6 -->
<g id="edge5_Node000004_Node000006" class="edge">
<title>Node4&#45;&gt;Node6</title>
<g id="a_edge5_Node000004_Node000006"><a xlink:title=" ">
<path fill="none" stroke="#63b8ff" d="M547.61,-111C563.72,-111 580.57,-111 596.29,-111"/>
<polygon fill="#63b8ff" stroke="#63b8ff" points="596.43,-114.5 606.43,-111 596.43,-107.5 596.43,-114.5"/>
</a>
</g>
</g>
<!-- Node8 -->
<g id="Node000008" class="node">
<title>Node8</title>
<g id="a_Node000008"><a xlink:href="classiot_1_1mqtt__fast_1_1SocketContext.html#a8a3c3017e10d7667ac8288153fc07294" target="_top" xlink:title=" ">
<polygon fill="white" stroke="#666666" points="744,-78 585,-78 585,-48 744,-48 744,-78"/>
<text text-anchor="start" x="593" y="-66" font-family="Helvetica,sans-Serif" font-size="10.00">iot::mqtt_fast::SocketContext</text>
<text text-anchor="middle" x="664.5" y="-55" font-family="Helvetica,sans-Serif" font-size="10.00">::printData</text>
</a>
</g>
</g>
<!-- Node7&#45;&gt;Node8 -->
<g id="edge7_Node000007_Node000008" class="edge">
<title>Node7&#45;&gt;Node8</title>
<g id="a_edge7_Node000007_Node000008"><a xlink:title=" ">
<path fill="none" stroke="#63b8ff" d="M549,-63C557.48,-63 566.14,-63 574.73,-63"/>
<polygon fill="#63b8ff" stroke="#63b8ff" points="574.76,-66.5 584.76,-63 574.76,-59.5 574.76,-66.5"/>
</a>
</g>
</g>
<!-- Node9 -->
<g id="Node000009" class="node">
<title>Node9</title>
<g id="a_Node000009"><a xlink:href="classcore_1_1socket_1_1stream_1_1SocketContext.html#a7e80affcdada3ef5f1c52c283d65a89c" target="_top" xlink:title=" ">
<polygon fill="white" stroke="#666666" points="742,-30 587,-30 587,0 742,0 742,-30"/>
<text text-anchor="start" x="595" y="-18" font-family="Helvetica,sans-Serif" font-size="10.00">core::socket::stream</text>
<text text-anchor="middle" x="664.5" y="-7" font-family="Helvetica,sans-Serif" font-size="10.00">::SocketContext::sendToPeer</text>
</a>
</g>
</g>
<!-- Node7&#45;&gt;Node9 -->
<g id="edge8_Node000007_Node000009" class="edge">
<title>Node7&#45;&gt;Node9</title>
<g id="a_edge8_Node000007_Node000009"><a xlink:title=" ">
<path fill="none" stroke="#63b8ff" d="M531.04,-47.94C550.8,-43.03 572.91,-37.53 593.31,-32.46"/>
<polygon fill="#63b8ff" stroke="#63b8ff" points="594.32,-35.81 603.18,-30 592.63,-29.02 594.32,-35.81"/>
</a>
</g>
</g>
<!-- Node10 -->
<g id="Node000010" class="node">
<title>Node10</title>
<g id="a_Node000010"><a xlink:href="classcore_1_1socket_1_1stream_1_1SocketConnection.html#a0e8eedcbfe5dc63e1c1682b5beaf90da" target="_top" xlink:title=" ">
<polygon fill="white" stroke="#666666" points="951,-30 780,-30 780,0 951,0 951,-30"/>
<text text-anchor="start" x="788" y="-18" font-family="Helvetica,sans-Serif" font-size="10.00">core::socket::stream</text>
<text text-anchor="middle" x="865.5" y="-7" font-family="Helvetica,sans-Serif" font-size="10.00">::SocketConnection::sendToPeer</text>
</a>
</g>
</g>
<!-- Node9&#45;&gt;Node10 -->
<g id="edge9_Node000009_Node000010" class="edge">
<title>Node9&#45;&gt;Node10</title>
<g id="a_edge9_Node000009_Node000010"><a xlink:title=" ">
<path fill="none" stroke="#63b8ff" d="M742.15,-15C751.24,-15 760.59,-15 769.89,-15"/>
<polygon fill="#63b8ff" stroke="#63b8ff" points="769.94,-18.5 779.94,-15 769.94,-11.5 769.94,-18.5"/>
</a>
</g>
</g>
</g>
</svg>
