<?xml version="1.0" encoding="UTF-8" standalone="no"?>
<!DOCTYPE svg PUBLIC "-//W3C//DTD SVG 1.1//EN"
 "http://www.w3.org/Graphics/SVG/1.1/DTD/svg11.dtd">
<!-- Generated by graphviz version 2.43.0 (0)
 -->
<!-- Title: net::un::stream::legacy::config::ConfigSocketClient Pages: 1 -->
<svg width="630pt" height="456pt"
 viewBox="0.00 0.00 630.00 456.00" xmlns="http://www.w3.org/2000/svg" xmlns:xlink="http://www.w3.org/1999/xlink">
<g id="graph0" class="graph" transform="scale(1 1) rotate(0) translate(4 452)">
<title>net::un::stream::legacy::config::ConfigSocketClient</title>
<!-- Node1 -->
<g id="Node000001" class="node">
<title>Node1</title>
<g id="a_Node000001"><a xlink:title=" ">
<polygon fill="#999999" stroke="transparent" points="489,-30 357,-30 357,0 489,0 489,-30"/>
<text text-anchor="start" x="361" y="-18" font-family="Helvetica,sans-Serif" font-size="10.00">net::un::stream::legacy</text>
<text text-anchor="start" x="361" y="-7" font-family="Helvetica,sans-Serif" font-size="10.00">::config::ConfigSocketClient</text>
<polygon fill="none" stroke="#666666" points="357,0 357,-30 489,-30 489,0 357,0"/>
</a>
</g>
</g>
<!-- Node2 -->
<g id="Node000002" class="node">
<title>Node2</title>
<g id="a_Node000002"><a xlink:href="classnet_1_1config_1_1stream_1_1legacy_1_1ConfigSocketClient.html" target="_top" xlink:title=" ">
<polygon fill="white" stroke="transparent" points="490,-118 356,-118 356,-66 490,-66 490,-118"/>
<text text-anchor="start" x="360" y="-106" font-family="Helvetica,sans-Serif" font-size="10.00">net::config::stream</text>
<text text-anchor="start" x="360" y="-95" font-family="Helvetica,sans-Serif" font-size="10.00">::legacy::ConfigSocketClient</text>
<text text-anchor="start" x="360" y="-84" font-family="Helvetica,sans-Serif" font-size="10.00">&lt; net::un::stream::config</text>
<text text-anchor="start" x="373" y="-73" font-family="Helvetica,sans-Serif" font-size="10.00">::ConfigSocketClient &gt;</text>
<polygon fill="none" stroke="#666666" points="356,-66 356,-118 490,-118 490,-66 356,-66"/>
</a>
</g>
</g>
<!-- Node2&#45;&gt;Node1 -->
<g id="edge1_Node000001_Node000002" class="edge">
<title>Node2&#45;&gt;Node1</title>
<g id="a_edge1_Node000001_Node000002"><a xlink:title=" ">
<path fill="none" stroke="#63b8ff" d="M423,-55.41C423,-46.57 423,-37.58 423,-30.43"/>
<polygon fill="none" stroke="#63b8ff" points="419.5,-55.61 423,-65.61 426.5,-55.61 419.5,-55.61"/>
</a>
</g>
</g>
<!-- Node3 -->
<g id="Node000003" class="node">
<title>Node3</title>
<g id="a_Node000003"><a xlink:href="classnet_1_1config_1_1ConfigInstance.html" target="_top" xlink:title=" ">
<polygon fill="white" stroke="transparent" points="351,-178.5 225,-178.5 225,-159.5 351,-159.5 351,-178.5"/>
<text text-anchor="start" x="229" y="-166" font-family="Helvetica,sans-Serif" font-size="10.00">net::config::ConfigInstance</text>
<polygon fill="none" stroke="#666666" points="225,-159.5 225,-178.5 351,-178.5 351,-159.5 225,-159.5"/>
</a>
</g>
</g>
<!-- Node3&#45;&gt;Node2 -->
<g id="edge2_Node000002_Node000003" class="edge">
<title>Node3&#45;&gt;Node2</title>
<g id="a_edge2_Node000002_Node000003"><a xlink:title=" ">
<path fill="none" stroke="#63b8ff" d="M312.28,-154.51C330.45,-144.42 355.85,-130.31 377.73,-118.15"/>
<polygon fill="none" stroke="#63b8ff" points="310.53,-151.48 303.49,-159.4 313.93,-157.6 310.53,-151.48"/>
</a>
</g>
</g>
<!-- Node4 -->
<g id="Node000004" class="node">
<title>Node4</title>
<g id="a_Node000004"><a xlink:href="classnet_1_1un_1_1stream_1_1config_1_1ConfigSocketClient.html" target="_top" xlink:title=" ">
<polygon fill="white" stroke="transparent" points="477,-184 369,-184 369,-154 477,-154 477,-184"/>
<text text-anchor="start" x="373.5" y="-172" font-family="Helvetica,sans-Serif" font-size="10.00">net::un::stream::config</text>
<text text-anchor="start" x="377.5" y="-161" font-family="Helvetica,sans-Serif" font-size="10.00">::ConfigSocketClient</text>
<polygon fill="none" stroke="#666666" points="369,-154 369,-184 477,-184 477,-154 369,-154"/>
</a>
</g>
</g>
<!-- Node4&#45;&gt;Node2 -->
<g id="edge3_Node000002_Node000004" class="edge">
<title>Node4&#45;&gt;Node2</title>
<g id="a_edge3_Node000002_Node000004"><a xlink:title=" ">
<path fill="none" stroke="#63b8ff" d="M423,-143.86C423,-135.69 423,-126.54 423,-118.28"/>
<polygon fill="none" stroke="#63b8ff" points="419.5,-143.89 423,-153.89 426.5,-143.89 419.5,-143.89"/>
</a>
</g>
</g>
<!-- Node5 -->
<g id="Node000005" class="node">
<title>Node5</title>
<g id="a_Node000005"><a xlink:href="classnet_1_1config_1_1stream_1_1ConfigSocketClient.html" target="_top" xlink:title=" ">
<polygon fill="white" stroke="transparent" points="472,-261 312,-261 312,-220 472,-220 472,-261"/>
<text text-anchor="start" x="316.5" y="-248.5" font-family="Helvetica,sans-Serif" font-size="10.00">net::config::stream</text>
<text text-anchor="start" x="316.5" y="-237.5" font-family="Helvetica,sans-Serif" font-size="10.00">::ConfigSocketClient</text>
<text text-anchor="start" x="316.5" y="-226.5" font-family="Helvetica,sans-Serif" font-size="10.00">&lt; net::un::config::ConfigAddress &gt;</text>
<polygon fill="none" stroke="#666666" points="312,-220 312,-261 472,-261 472,-220 312,-220"/>
</a>
</g>
</g>
<!-- Node5&#45;&gt;Node4 -->
<g id="edge4_Node000004_Node000005" class="edge">
<title>Node5&#45;&gt;Node4</title>
<g id="a_edge4_Node000004_Node000005"><a xlink:title=" ">
<path fill="none" stroke="#63b8ff" d="M404.92,-210.53C409.01,-201.37 413.34,-191.66 416.74,-184.04"/>
<polygon fill="none" stroke="#63b8ff" points="401.68,-209.21 400.8,-219.77 408.07,-212.06 401.68,-209.21"/>
</a>
</g>
</g>
<!-- Node6 -->
<g id="Node000006" class="node">
<title>Node6</title>
<g id="a_Node000006"><a xlink:title=" ">
<polygon fill="white" stroke="transparent" points="180,-327 0,-327 0,-297 180,-297 180,-327"/>
<text text-anchor="start" x="4" y="-315" font-family="Helvetica,sans-Serif" font-size="10.00">net::un::config::ConfigAddress</text>
<text text-anchor="start" x="4" y="-304" font-family="Helvetica,sans-Serif" font-size="10.00"> &lt; net::config::ConfigAddressRemote &gt;</text>
<polygon fill="none" stroke="#666666" points="0,-297 0,-327 180,-327 180,-297 0,-297"/>
</a>
</g>
</g>
<!-- Node6&#45;&gt;Node5 -->
<g id="edge5_Node000005_Node000006" class="edge">
<title>Node6&#45;&gt;Node5</title>
<g id="a_edge5_Node000005_Node000006"><a xlink:title=" ">
<path fill="none" stroke="#63b8ff" d="M161.13,-294.63C206.32,-284.23 264.92,-270.74 311.77,-259.96"/>
<polygon fill="none" stroke="#63b8ff" points="160.07,-291.28 151.11,-296.94 161.64,-298.1 160.07,-291.28"/>
</a>
</g>
</g>
<!-- Node7 -->
<g id="Node000007" class="node">
<title>Node7</title>
<g id="a_Node000007"><a xlink:title=" ">
<polygon fill="white" stroke="transparent" points="364,-327 198,-327 198,-297 364,-297 364,-327"/>
<text text-anchor="start" x="202" y="-315" font-family="Helvetica,sans-Serif" font-size="10.00">net::un::config::ConfigAddress</text>
<text text-anchor="start" x="202" y="-304" font-family="Helvetica,sans-Serif" font-size="10.00">&lt; net::config::ConfigAddressLocal &gt;</text>
<polygon fill="none" stroke="#666666" points="198,-297 198,-327 364,-327 364,-297 198,-297"/>
</a>
</g>
</g>
<!-- Node7&#45;&gt;Node5 -->
<g id="edge6_Node000005_Node000007" class="edge">
<title>Node7&#45;&gt;Node5</title>
<g id="a_edge6_Node000005_Node000007"><a xlink:title=" ">
<path fill="none" stroke="#63b8ff" d="M312.02,-291.58C327.22,-282.06 345.5,-270.62 360.74,-261.07"/>
<polygon fill="none" stroke="#63b8ff" points="310.08,-288.66 303.46,-296.94 313.8,-294.6 310.08,-288.66"/>
</a>
</g>
</g>
<!-- Node8 -->
<g id="Node000008" class="node">
<title>Node8</title>
<g id="a_Node000008"><a xlink:href="classnet_1_1config_1_1ConfigConnection.html" target="_top" xlink:title=" ">
<polygon fill="white" stroke="transparent" points="402,-387.5 264,-387.5 264,-368.5 402,-368.5 402,-387.5"/>
<text text-anchor="start" x="268" y="-375" font-family="Helvetica,sans-Serif" font-size="10.00">net::config::ConfigConnection</text>
<polygon fill="none" stroke="#666666" points="264,-368.5 264,-387.5 402,-387.5 402,-368.5 264,-368.5"/>
</a>
</g>
</g>
<!-- Node8&#45;&gt;Node5 -->
<g id="edge7_Node000005_Node000008" class="edge">
<title>Node8&#45;&gt;Node5</title>
<g id="a_edge7_Node000005_Node000008"><a xlink:title=" ">
<path fill="none" stroke="#63b8ff" d="M349.18,-360.75C357.47,-351.56 367.04,-339.44 373,-327 383.12,-305.88 387.94,-279.23 390.17,-261.35"/>
<polygon fill="none" stroke="#63b8ff" points="346.38,-358.62 342.07,-368.3 351.48,-363.42 346.38,-358.62"/>
</a>
</g>
</g>
<!-- Node9 -->
<g id="Node000009" class="node">
<title>Node9</title>
<g id="a_Node000009"><a xlink:href="classnet_1_1config_1_1ConfigSection.html" target="_top" xlink:title=" ">
<polygon fill="white" stroke="transparent" points="544,-448 422,-448 422,-429 544,-429 544,-448"/>
<text text-anchor="start" x="426" y="-435.5" font-family="Helvetica,sans-Serif" font-size="10.00">net::config::ConfigSection</text>
<polygon fill="none" stroke="#666666" points="422,-429 422,-448 544,-448 544,-429 422,-429"/>
</a>
</g>
</g>
<!-- Node9&#45;&gt;Node8 -->
<g id="edge8_Node000008_Node000009" class="edge">
<title>Node9&#45;&gt;Node8</title>
<g id="a_edge8_Node000008_Node000009"><a xlink:title=" ">
<path fill="none" stroke="darkgreen" d="M451.54,-425.23C422.55,-413.92 380.29,-397.44 354.84,-387.52"/>
<polygon fill="none" stroke="darkgreen" points="450.6,-428.62 461.19,-428.99 453.14,-422.1 450.6,-428.62"/>
</a>
</g>
</g>
<!-- Node11 -->
<g id="Node000011" class="node">
<title>Node11</title>
<g id="a_Node000011"><a xlink:href="classnet_1_1config_1_1ConfigPhysicalSocket.html" target="_top" xlink:title=" ">
<polygon fill="white" stroke="transparent" points="546,-393 420,-393 420,-363 546,-363 546,-393"/>
<text text-anchor="start" x="424" y="-381" font-family="Helvetica,sans-Serif" font-size="10.00">net::config::ConfigPhysical</text>
<text text-anchor="start" x="467.5" y="-370" font-family="Helvetica,sans-Serif" font-size="10.00">Socket</text>
<polygon fill="none" stroke="#666666" points="420,-363 420,-393 546,-393 546,-363 420,-363"/>
</a>
</g>
</g>
<!-- Node9&#45;&gt;Node11 -->
<g id="edge11_Node000011_Node000009" class="edge">
<title>Node9&#45;&gt;Node11</title>
<g id="a_edge11_Node000011_Node000009"><a xlink:title=" ">
<path fill="none" stroke="darkgreen" d="M483,-418.65C483,-410.36 483,-400.78 483,-393.11"/>
<polygon fill="none" stroke="darkgreen" points="479.5,-418.87 483,-428.87 486.5,-418.87 479.5,-418.87"/>
</a>
</g>
</g>
<!-- Node12 -->
<g id="Node000012" class="node">
<title>Node12</title>
<g id="a_Node000012"><a xlink:href="classnet_1_1config_1_1ConfigLegacy.html" target="_top" xlink:title=" ">
<polygon fill="white" stroke="transparent" points="622,-250 502,-250 502,-231 622,-231 622,-250"/>
<text text-anchor="start" x="506" y="-237.5" font-family="Helvetica,sans-Serif" font-size="10.00">net::config::ConfigLegacy</text>
<polygon fill="none" stroke="#666666" points="502,-231 502,-250 622,-250 622,-231 502,-231"/>
</a>
</g>
</g>
<!-- Node9&#45;&gt;Node12 -->
<g id="edge13_Node000012_Node000009" class="edge">
<title>Node9&#45;&gt;Node12</title>
<g id="a_edge13_Node000012_Node000009"><a xlink:title=" ">
<path fill="none" stroke="darkgreen" d="M517.34,-424.79C531.51,-417.7 546.57,-407.34 555,-393 582.9,-345.57 569.91,-274.61 564.2,-250.15"/>
<polygon fill="none" stroke="darkgreen" points="515.85,-421.63 508.24,-428.99 518.78,-427.98 515.85,-421.63"/>
</a>
</g>
</g>
<!-- Node10 -->
<g id="Node000010" class="node">
<title>Node10</title>
<g id="a_Node000010"><a xlink:href="classnet_1_1config_1_1ConfigPhysicalSocketClient.html" target="_top" xlink:title=" ">
<polygon fill="white" stroke="transparent" points="546,-327 420,-327 420,-297 546,-297 546,-327"/>
<text text-anchor="start" x="424" y="-315" font-family="Helvetica,sans-Serif" font-size="10.00">net::config::ConfigPhysical</text>
<text text-anchor="start" x="454.5" y="-304" font-family="Helvetica,sans-Serif" font-size="10.00">SocketClient</text>
<polygon fill="none" stroke="#666666" points="420,-297 420,-327 546,-327 546,-297 420,-297"/>
</a>
</g>
</g>
<!-- Node10&#45;&gt;Node5 -->
<g id="edge9_Node000005_Node000010" class="edge">
<title>Node10&#45;&gt;Node5</title>
<g id="a_edge9_Node000005_Node000010"><a xlink:title=" ">
<path fill="none" stroke="#63b8ff" d="M456.52,-290.77C444.27,-281.42 429.77,-270.35 417.63,-261.07"/>
<polygon fill="none" stroke="#63b8ff" points="454.51,-293.65 464.58,-296.94 458.76,-288.08 454.51,-293.65"/>
</a>
</g>
</g>
<!-- Node11&#45;&gt;Node10 -->
<g id="edge10_Node000010_Node000011" class="edge">
<title>Node11&#45;&gt;Node10</title>
<g id="a_edge10_Node000010_Node000011"><a xlink:title=" ">
<path fill="none" stroke="#63b8ff" d="M483,-352.54C483,-343.96 483,-334.61 483,-327.16"/>
<polygon fill="none" stroke="#63b8ff" points="479.5,-352.8 483,-362.8 486.5,-352.8 479.5,-352.8"/>
</a>
</g>
</g>
<!-- Node12&#45;&gt;Node2 -->
<g id="edge12_Node000002_Node000012" class="edge">
<title>Node12&#45;&gt;Node2</title>
<g id="a_edge12_Node000002_Node000012"><a xlink:title=" ">
<path fill="none" stroke="#63b8ff" d="M548.14,-223.19C533.17,-205.74 508.44,-177.41 486,-154 474.41,-141.91 461.15,-128.95 449.79,-118.09"/>
<polygon fill="none" stroke="#63b8ff" points="545.5,-225.49 554.66,-230.81 550.82,-220.94 545.5,-225.49"/>
</a>
</g>
</g>
</g>
</svg>
