<?xml version="1.0" encoding="UTF-8" standalone="no"?>
<!DOCTYPE svg PUBLIC "-//W3C//DTD SVG 1.1//EN"
 "http://www.w3.org/Graphics/SVG/1.1/DTD/svg11.dtd">
<!-- Generated by graphviz version 14.1.2 (0)
 -->
<!-- Title: core::DescriptorEventPublisher::checkTimedOutEvents Pages: 1 -->
<svg width="747pt" height="158pt"
 viewBox="0.00 0.00 747.00 158.00" xmlns="http://www.w3.org/2000/svg" xmlns:xlink="http://www.w3.org/1999/xlink">
<g id="graph0" class="graph" transform="scale(1 1) rotate(0) translate(4 154.12)">
<title>core::DescriptorEventPublisher::checkTimedOutEvents</title>
<!-- Node1 -->
<g id="Node000001" class="node">
<title>Node1</title>
<g id="a_Node000001"><a xlink:title=" ">
<polygon fill="#999999" stroke="#666666" points="166,-97.5 0,-97.5 0,-64 166,-64 166,-97.5"/>
<text xml:space="preserve" text-anchor="start" x="8" y="-84" font-family="Helvetica,sans-Serif" font-size="10.00">core::DescriptorEventPublisher</text>
<text xml:space="preserve" text-anchor="middle" x="83" y="-71.25" font-family="Helvetica,sans-Serif" font-size="10.00">::checkTimedOutEvents</text>
</a>
</g>
</g>
<!-- Node2 -->
<g id="Node000002" class="node">
<title>Node2</title>
<g id="a_Node000002"><a xlink:href="classcore_1_1DescriptorEventReceiver.html#ae04e87c4f44979a04d3839759a63220a" target="_top" xlink:title=" ">
<polygon fill="white" stroke="#666666" points="365.75,-97.5 202,-97.5 202,-64 365.75,-64 365.75,-97.5"/>
<text xml:space="preserve" text-anchor="start" x="210" y="-84" font-family="Helvetica,sans-Serif" font-size="10.00">core::DescriptorEventReceiver</text>
<text xml:space="preserve" text-anchor="middle" x="283.88" y="-71.25" font-family="Helvetica,sans-Serif" font-size="10.00">::checkTimeout</text>
</a>
</g>
</g>
<!-- Node1&#45;&gt;Node2 -->
<g id="edge1_Node000001_Node000002" class="edge">
<title>Node1&#45;&gt;Node2</title>
<g id="a_edge1_Node000001_Node000002"><a xlink:title=" ">
<path fill="none" stroke="#63b8ff" d="M166.33,-80.75C174.24,-80.75 182.31,-80.75 190.31,-80.75"/>
<polygon fill="#63b8ff" stroke="#63b8ff" points="190.06,-84.25 200.06,-80.75 190.06,-77.25 190.06,-84.25"/>
</a>
</g>
</g>
<!-- Node3 -->
<g id="Node000003" class="node">
<title>Node3</title>
<g id="a_Node000003"><a xlink:href="classutils_1_1Timeval.html#a9483cc441555547f4978f410c4d3c33a" target="_top" xlink:title=" ">
<polygon fill="white" stroke="#666666" points="549.75,-150.12 417.5,-150.12 417.5,-129.38 549.75,-129.38 549.75,-150.12"/>
<text xml:space="preserve" text-anchor="middle" x="483.62" y="-136.62" font-family="Helvetica,sans-Serif" font-size="10.00">utils::Timeval::operator&#45;</text>
</a>
</g>
</g>
<!-- Node2&#45;&gt;Node3 -->
<g id="edge2_Node000002_Node000003" class="edge">
<title>Node2&#45;&gt;Node3</title>
<g id="a_edge2_Node000002_Node000003"><a xlink:title=" ">
<path fill="none" stroke="#63b8ff" d="M333.51,-97.94C354.39,-105.07 379.15,-113.2 401.75,-119.75 409.3,-121.94 417.3,-124.1 425.2,-126.15"/>
<polygon fill="#63b8ff" stroke="#63b8ff" points="424.24,-129.52 434.8,-128.59 425.97,-122.73 424.24,-129.52"/>
</a>
</g>
</g>
<!-- Node5 -->
<g id="Node000005" class="node">
<title>Node5</title>
<g id="a_Node000005"><a xlink:href="classutils_1_1Timeval.html#a0a9d21f05cc48b208a95d269305fb7ec" target="_top" xlink:title=" ">
<polygon fill="white" stroke="#666666" points="552.38,-111.12 414.88,-111.12 414.88,-90.38 552.38,-90.38 552.38,-111.12"/>
<text xml:space="preserve" text-anchor="middle" x="483.62" y="-97.62" font-family="Helvetica,sans-Serif" font-size="10.00">utils::Timeval::operator&gt;</text>
</a>
</g>
</g>
<!-- Node2&#45;&gt;Node5 -->
<g id="edge4_Node000002_Node000005" class="edge">
<title>Node2&#45;&gt;Node5</title>
<g id="a_edge4_Node000002_Node000005"><a xlink:title=" ">
<path fill="none" stroke="#63b8ff" d="M366.16,-88.97C378.48,-90.22 391.17,-91.5 403.44,-92.74"/>
<polygon fill="#63b8ff" stroke="#63b8ff" points="402.76,-96.19 413.06,-93.71 403.47,-89.23 402.76,-96.19"/>
</a>
</g>
</g>
<!-- Node7 -->
<g id="Node000007" class="node">
<title>Node7</title>
<g id="a_Node000007"><a xlink:href="classutils_1_1Timeval.html#ad2c64952dc08b9e5be444b0ba8779146" target="_top" xlink:title=" ">
<polygon fill="white" stroke="#666666" points="556.5,-72.12 410.75,-72.12 410.75,-51.38 556.5,-51.38 556.5,-72.12"/>
<text xml:space="preserve" text-anchor="middle" x="483.62" y="-58.62" font-family="Helvetica,sans-Serif" font-size="10.00">utils::Timeval::operator&gt;=</text>
</a>
</g>
</g>
<!-- Node2&#45;&gt;Node7 -->
<g id="edge6_Node000002_Node000007" class="edge">
<title>Node2&#45;&gt;Node7</title>
<g id="a_edge6_Node000002_Node000007"><a xlink:title=" ">
<path fill="none" stroke="#63b8ff" d="M366.16,-72.94C377.07,-71.89 388.28,-70.81 399.23,-69.76"/>
<polygon fill="#63b8ff" stroke="#63b8ff" points="399.39,-73.26 409.01,-68.82 398.72,-66.3 399.39,-73.26"/>
</a>
</g>
</g>
<!-- Node8 -->
<g id="Node000008" class="node">
<title>Node8</title>
<g id="a_Node000008"><a xlink:href="classcore_1_1DescriptorEventReceiver.html#a0628f92a1740c25aebef06921291ce2d" target="_top" xlink:title=" ">
<polygon fill="white" stroke="#666666" points="565.5,-33.5 401.75,-33.5 401.75,0 565.5,0 565.5,-33.5"/>
<text xml:space="preserve" text-anchor="start" x="409.75" y="-20" font-family="Helvetica,sans-Serif" font-size="10.00">core::DescriptorEventReceiver</text>
<text xml:space="preserve" text-anchor="middle" x="483.62" y="-7.25" font-family="Helvetica,sans-Serif" font-size="10.00">::timeoutEvent</text>
</a>
</g>
</g>
<!-- Node2&#45;&gt;Node8 -->
<g id="edge8_Node000002_Node000008" class="edge">
<title>Node2&#45;&gt;Node8</title>
<g id="a_edge8_Node000002_Node000008"><a xlink:title=" ">
<path fill="none" stroke="#63b8ff" d="M337.52,-63.59C357.61,-57.06 380.74,-49.54 401.75,-42.75 407.14,-41.01 412.73,-39.2 418.34,-37.4"/>
<polygon fill="#63b8ff" stroke="#63b8ff" points="419.22,-40.79 427.67,-34.39 417.08,-34.13 419.22,-40.79"/>
</a>
</g>
</g>
<!-- Node4 -->
<g id="Node000004" class="node">
<title>Node4</title>
<g id="a_Node000004"><a xlink:href="classutils_1_1Timeval.html#af8b19ac507d5120c815d07da9f5146b1" target="_top" xlink:title=" ">
<polygon fill="white" stroke="#666666" points="738.62,-150.12 601.88,-150.12 601.88,-129.38 738.62,-129.38 738.62,-150.12"/>
<text xml:space="preserve" text-anchor="middle" x="670.25" y="-136.62" font-family="Helvetica,sans-Serif" font-size="10.00">utils::Timeval::normalize</text>
</a>
</g>
</g>
<!-- Node3&#45;&gt;Node4 -->
<g id="edge3_Node000003_Node000004" class="edge">
<title>Node3&#45;&gt;Node4</title>
<g id="a_edge3_Node000003_Node000004"><a xlink:title=" ">
<path fill="none" stroke="#63b8ff" d="M550.24,-139.75C563.27,-139.75 577.09,-139.75 590.51,-139.75"/>
<polygon fill="#63b8ff" stroke="#63b8ff" points="590.15,-143.25 600.15,-139.75 590.15,-136.25 590.15,-143.25"/>
</a>
</g>
</g>
<!-- Node6 -->
<g id="Node000006" class="node">
<title>Node6</title>
<g id="a_Node000006"><a xlink:href="classutils_1_1Timeval.html#a11e78b5aeeb6526856905939d9642815" target="_top" xlink:title=" ">
<polygon fill="white" stroke="#666666" points="739,-92.12 601.5,-92.12 601.5,-71.38 739,-71.38 739,-92.12"/>
<text xml:space="preserve" text-anchor="middle" x="670.25" y="-78.62" font-family="Helvetica,sans-Serif" font-size="10.00">utils::Timeval::operator&lt;</text>
</a>
</g>
</g>
<!-- Node5&#45;&gt;Node6 -->
<g id="edge5_Node000005_Node000006" class="edge">
<title>Node5&#45;&gt;Node6</title>
<g id="a_edge5_Node000005_Node000006"><a xlink:title=" ">
<path fill="none" stroke="#63b8ff" d="M552.85,-93.73C564.96,-92.48 577.67,-91.18 590.05,-89.9"/>
<polygon fill="#63b8ff" stroke="#63b8ff" points="590.21,-93.4 599.8,-88.9 589.5,-86.44 590.21,-93.4"/>
</a>
</g>
</g>
<!-- Node7&#45;&gt;Node6 -->
<g id="edge7_Node000007_Node000006" class="edge">
<title>Node7&#45;&gt;Node6</title>
<g id="a_edge7_Node000007_Node000006"><a xlink:title=" ">
<path fill="none" stroke="#63b8ff" d="M556.8,-69.57C567.61,-70.74 578.8,-71.95 589.76,-73.14"/>
<polygon fill="#63b8ff" stroke="#63b8ff" points="589.23,-76.6 599.55,-74.2 589.98,-69.64 589.23,-76.6"/>
</a>
</g>
</g>
</g>
</svg>
