<?xml version="1.0" encoding="UTF-8" standalone="no"?>
<!DOCTYPE svg PUBLIC "-//W3C//DTD SVG 1.1//EN"
 "http://www.w3.org/Graphics/SVG/1.1/DTD/svg11.dtd">
<!-- Generated by graphviz version 2.42.4 (0)
 -->
<!-- Title: express::Request Pages: 1 -->
<svg width="663pt" height="565pt"
 viewBox="0.00 0.00 663.00 565.00" xmlns="http://www.w3.org/2000/svg" xmlns:xlink="http://www.w3.org/1999/xlink">
<g id="graph0" class="graph" transform="scale(1 1) rotate(0) translate(4 561)">
<title>express::Request</title>
<!-- Node1 -->
<g id="Node000001" class="node">
<title>Node1</title>
<g id="a_Node000001"><a xlink:title=" ">
<polygon fill="#999999" stroke="transparent" points="415,-19 321,-19 321,0 415,0 415,-19"/>
<text text-anchor="start" x="325.5" y="-6.5" font-family="Helvetica,sans-Serif" font-size="10.00">express::Request</text>
<polygon fill="none" stroke="#666666" points="321,0 321,-19 415,-19 415,0 321,0"/>
</a>
</g>
</g>
<!-- Node2 -->
<g id="Node000002" class="node">
<title>Node2</title>
<g id="a_Node000002"><a xlink:href="classutils_1_1MultibleAttributeInjector.html" target="_top" xlink:title=" ">
<polygon fill="white" stroke="transparent" points="168,-102 50,-102 50,-72 168,-72 168,-102"/>
<text text-anchor="start" x="54" y="-90" font-family="Helvetica,sans-Serif" font-size="10.00">utils::MultibleAttribute</text>
<text text-anchor="start" x="90.5" y="-79" font-family="Helvetica,sans-Serif" font-size="10.00">Injector</text>
<polygon fill="none" stroke="#666666" points="50,-72 50,-102 168,-102 168,-72 50,-72"/>
</a>
</g>
</g>
<!-- Node2&#45;&gt;Node1 -->
<g id="edge1_Node000001_Node000002" class="edge">
<title>Node2&#45;&gt;Node1</title>
<g id="a_edge1_Node000001_Node000002"><a xlink:title=" ">
<path fill="none" stroke="#63b8ff" d="M134.45,-65.64C148.55,-55.42 166.86,-43.79 185,-37 229.19,-20.45 282.97,-14.17 320.76,-11.82"/>
<polygon fill="none" stroke="#63b8ff" points="132.16,-62.98 126.25,-71.77 136.36,-68.59 132.16,-62.98"/>
</a>
</g>
</g>
<!-- Node3 -->
<g id="Node000003" class="node">
<title>Node3</title>
<g id="a_Node000003"><a xlink:title=" ">
<polygon fill="white" stroke="transparent" points="171,-275 31,-275 31,-245 171,-245 171,-275"/>
<text text-anchor="start" x="35.5" y="-263" font-family="Helvetica,sans-Serif" font-size="10.00">std::map&lt; std::string,</text>
<text text-anchor="start" x="35.5" y="-252" font-family="Helvetica,sans-Serif" font-size="10.00"> std::shared_ptr&lt; void &gt; &gt;</text>
<polygon fill="none" stroke="#666666" points="31,-245 31,-275 171,-275 171,-245 31,-245"/>
</a>
</g>
</g>
<!-- Node3&#45;&gt;Node2 -->
<g id="edge2_Node000002_Node000003" class="edge">
<title>Node3&#45;&gt;Node2</title>
<g id="a_edge2_Node000002_Node000003"><a xlink:title=" ">
<path fill="none" stroke="#63b8ff" d="M101.67,-244.71C103.01,-215.98 106.06,-150.8 107.77,-114.2"/>
<polygon fill="none" stroke="#63b8ff" points="107.78,-114.11 104.06,-107.93 108.34,-102.12 112.05,-108.3 107.78,-114.11"/>
</a>
</g>
<text text-anchor="start" x="111" y="-170.5" font-family="Helvetica,sans-Serif" font-size="10.00" fill="grey">&#45;attributes</text>
</g>
<!-- Node4 -->
<g id="Node000004" class="node">
<title>Node4</title>
<g id="a_Node000004"><a xlink:title=" ">
<polygon fill="white" stroke="transparent" points="247,-412.5 189,-412.5 189,-393.5 247,-393.5 247,-412.5"/>
<text text-anchor="start" x="193.5" y="-400" font-family="Helvetica,sans-Serif" font-size="10.00">std::string</text>
<polygon fill="none" stroke="#666666" points="189,-393.5 189,-412.5 247,-412.5 247,-393.5 189,-393.5"/>
</a>
</g>
</g>
<!-- Node4&#45;&gt;Node1 -->
<g id="edge6_Node000001_Node000004" class="edge">
<title>Node4&#45;&gt;Node1</title>
<g id="a_edge6_Node000001_Node000004"><a xlink:title=" ">
<path fill="none" stroke="#63b8ff" d="M216.06,-393.31C206.86,-351.29 169.13,-169.11 195,-120 221.97,-68.8 284.61,-38.43 326.64,-23.11"/>
<polygon fill="none" stroke="#63b8ff" points="326.83,-23.04 331.18,-17.29 338.16,-19.1 333.81,-24.85 326.83,-23.04"/>
</a>
</g>
<text text-anchor="start" x="198.5" y="-215.5" font-family="Helvetica,sans-Serif" font-size="10.00" fill="grey">+file</text>
<text text-anchor="start" x="198.5" y="-200.5" font-family="Helvetica,sans-Serif" font-size="10.00" fill="grey">+httpVersion</text>
<text text-anchor="start" x="198.5" y="-185.5" font-family="Helvetica,sans-Serif" font-size="10.00" fill="grey">+method</text>
<text text-anchor="start" x="198.5" y="-170.5" font-family="Helvetica,sans-Serif" font-size="10.00" fill="grey">+originalUrl</text>
<text text-anchor="start" x="198.5" y="-155.5" font-family="Helvetica,sans-Serif" font-size="10.00" fill="grey">+path</text>
<text text-anchor="start" x="198.5" y="-140.5" font-family="Helvetica,sans-Serif" font-size="10.00" fill="grey">+url</text>
<text text-anchor="start" x="198.5" y="-125.5" font-family="Helvetica,sans-Serif" font-size="10.00" fill="grey">&#45;nullstr</text>
</g>
<!-- Node4&#45;&gt;Node3 -->
<g id="edge3_Node000003_Node000004" class="edge">
<title>Node4&#45;&gt;Node3</title>
<g id="a_edge3_Node000003_Node000004"><a xlink:title=" ">
<path fill="none" stroke="#63b8ff" d="M188.99,-394.86C174.83,-390.01 158.61,-382.2 148,-370 124.55,-343.06 141.08,-324.89 125,-293 123.68,-290.38 122.15,-287.76 120.5,-285.2"/>
<polygon fill="none" stroke="#63b8ff" points="120.37,-285.02 113.63,-282.47 113.39,-275.26 120.14,-277.81 120.37,-285.02"/>
</a>
</g>
<text text-anchor="start" x="151.5" y="-328.5" font-family="Helvetica,sans-Serif" font-size="10.00" fill="grey">+keys</text>
</g>
<!-- Node7 -->
<g id="Node000007" class="node">
<title>Node7</title>
<g id="a_Node000007"><a xlink:title=" ">
<polygon fill="white" stroke="transparent" points="389,-188.5 275,-188.5 275,-158.5 389,-158.5 389,-188.5"/>
<text text-anchor="start" x="279" y="-176.5" font-family="Helvetica,sans-Serif" font-size="10.00">std::map&lt; std::string,</text>
<text text-anchor="start" x="300" y="-165.5" font-family="Helvetica,sans-Serif" font-size="10.00"> std::string &gt;</text>
<polygon fill="none" stroke="#666666" points="275,-158.5 275,-188.5 389,-188.5 389,-158.5 275,-158.5"/>
</a>
</g>
</g>
<!-- Node4&#45;&gt;Node7 -->
<g id="edge8_Node000007_Node000004" class="edge">
<title>Node4&#45;&gt;Node7</title>
<g id="a_edge8_Node000007_Node000004"><a xlink:title=" ">
<path fill="none" stroke="#63b8ff" d="M217.73,-393.37C217.45,-374.35 218.54,-327.78 234,-293 250.97,-254.84 283.8,-219.06 306.76,-197.01"/>
<polygon fill="none" stroke="#63b8ff" points="306.87,-196.91 308.51,-189.89 315.63,-188.71 313.98,-195.73 306.87,-196.91"/>
</a>
</g>
<text text-anchor="start" x="237.5" y="-336.5" font-family="Helvetica,sans-Serif" font-size="10.00" fill="grey">+elements</text>
<text text-anchor="start" x="237.5" y="-321.5" font-family="Helvetica,sans-Serif" font-size="10.00" fill="grey">+keys</text>
</g>
<!-- Node9 -->
<g id="Node000009" class="node">
<title>Node9</title>
<g id="a_Node000009"><a xlink:href="classweb_1_1http_1_1server_1_1Request.html" target="_top" xlink:title=" ">
<polygon fill="white" stroke="transparent" points="469,-275 371,-275 371,-245 469,-245 469,-275"/>
<text text-anchor="start" x="375.5" y="-263" font-family="Helvetica,sans-Serif" font-size="10.00">web::http::server::</text>
<text text-anchor="start" x="400" y="-252" font-family="Helvetica,sans-Serif" font-size="10.00">Request</text>
<polygon fill="none" stroke="#666666" points="371,-245 371,-275 469,-275 469,-245 371,-245"/>
</a>
</g>
</g>
<!-- Node4&#45;&gt;Node9 -->
<g id="edge11_Node000009_Node000004" class="edge">
<title>Node4&#45;&gt;Node9</title>
<g id="a_edge11_Node000009_Node000004"><a xlink:title=" ">
<path fill="none" stroke="#63b8ff" d="M247.31,-396.33C264.24,-391.74 284.9,-383.7 299,-370 325.7,-344.05 304.94,-318.58 332,-293 339.81,-285.62 349.46,-279.91 359.47,-275.51"/>
<polygon fill="none" stroke="#63b8ff" points="359.67,-275.43 363.81,-269.53 370.85,-271.08 366.71,-276.98 359.67,-275.43"/>
</a>
</g>
<text text-anchor="start" x="335.5" y="-358.5" font-family="Helvetica,sans-Serif" font-size="10.00" fill="grey">+httpVersion</text>
<text text-anchor="start" x="335.5" y="-343.5" font-family="Helvetica,sans-Serif" font-size="10.00" fill="grey">+method</text>
<text text-anchor="start" x="335.5" y="-328.5" font-family="Helvetica,sans-Serif" font-size="10.00" fill="grey">+url</text>
<text text-anchor="start" x="335.5" y="-313.5" font-family="Helvetica,sans-Serif" font-size="10.00" fill="grey">&#45;nullstr</text>
<text text-anchor="start" x="335.5" y="-298.5" font-family="Helvetica,sans-Serif" font-size="10.00" fill="grey">&#45;reason</text>
</g>
<!-- Node5 -->
<g id="Node000005" class="node">
<title>Node5</title>
<g id="a_Node000005"><a xlink:title=" ">
<polygon fill="white" stroke="transparent" points="266,-485 170,-485 170,-455 266,-455 266,-485"/>
<text text-anchor="start" x="174" y="-473" font-family="Helvetica,sans-Serif" font-size="10.00">std::basic_string&lt;</text>
<text text-anchor="start" x="199.5" y="-462" font-family="Helvetica,sans-Serif" font-size="10.00"> Char &gt;</text>
<polygon fill="none" stroke="#666666" points="170,-455 170,-485 266,-485 266,-455 170,-455"/>
</a>
</g>
</g>
<!-- Node5&#45;&gt;Node4 -->
<g id="edge4_Node000004_Node000005" class="edge">
<title>Node5&#45;&gt;Node4</title>
<g id="a_edge4_Node000004_Node000005"><a xlink:title=" ">
<path fill="none" stroke="#63b8ff" d="M218,-444.75C218,-433.52 218,-420.88 218,-412.69"/>
<polygon fill="none" stroke="#63b8ff" points="214.5,-444.9 218,-454.9 221.5,-444.9 214.5,-444.9"/>
</a>
</g>
</g>
<!-- Node6 -->
<g id="Node000006" class="node">
<title>Node6</title>
<g id="a_Node000006"><a xlink:title=" ">
<polygon fill="white" stroke="transparent" points="126,-412.5 0,-412.5 0,-393.5 126,-393.5 126,-412.5"/>
<text text-anchor="start" x="4.5" y="-400" font-family="Helvetica,sans-Serif" font-size="10.00">std::shared_ptr&lt; void &gt;</text>
<polygon fill="none" stroke="#666666" points="0,-393.5 0,-412.5 126,-412.5 126,-393.5 0,-393.5"/>
</a>
</g>
</g>
<!-- Node6&#45;&gt;Node3 -->
<g id="edge5_Node000003_Node000006" class="edge">
<title>Node6&#45;&gt;Node3</title>
<g id="a_edge5_Node000003_Node000006"><a xlink:title=" ">
<path fill="none" stroke="#63b8ff" d="M60.77,-393.28C56.35,-374.08 48.18,-327.18 64,-293 65.5,-289.75 67.52,-286.7 69.83,-283.87"/>
<polygon fill="none" stroke="#63b8ff" points="70.06,-283.65 71.48,-276.58 78.55,-275.17 77.13,-282.24 70.06,-283.65"/>
</a>
</g>
<text text-anchor="start" x="67.5" y="-328.5" font-family="Helvetica,sans-Serif" font-size="10.00" fill="grey">+elements</text>
</g>
<!-- Node7&#45;&gt;Node1 -->
<g id="edge7_Node000001_Node000007" class="edge">
<title>Node7&#45;&gt;Node1</title>
<g id="a_edge7_Node000001_Node000007"><a xlink:title=" ">
<path fill="none" stroke="#63b8ff" d="M323.85,-158.42C313.48,-138.59 298.26,-101.55 310,-72 317.25,-53.74 332.78,-37.76 345.95,-26.67"/>
<polygon fill="none" stroke="#63b8ff" points="345.98,-26.64 348.19,-19.78 355.38,-19.18 353.16,-26.05 345.98,-26.64"/>
</a>
</g>
<text text-anchor="start" x="313" y="-84" font-family="Helvetica,sans-Serif" font-size="10.00" fill="grey">+params</text>
</g>
<!-- Node8 -->
<g id="Node000008" class="node">
<title>Node8</title>
<g id="a_Node000008"><a xlink:title=" ">
<polygon fill="white" stroke="transparent" points="499,-102 371,-102 371,-72 499,-72 499,-102"/>
<text text-anchor="start" x="375" y="-90" font-family="Helvetica,sans-Serif" font-size="10.00">std::shared_ptr&lt; web</text>
<text text-anchor="start" x="375" y="-79" font-family="Helvetica,sans-Serif" font-size="10.00">::http::server::Request &gt;</text>
<polygon fill="none" stroke="#666666" points="371,-72 371,-102 499,-102 499,-72 371,-72"/>
</a>
</g>
</g>
<!-- Node8&#45;&gt;Node1 -->
<g id="edge9_Node000001_Node000008" class="edge">
<title>Node8&#45;&gt;Node1</title>
<g id="a_edge9_Node000001_Node000008"><a xlink:title=" ">
<path fill="none" stroke="#63b8ff" d="M422.4,-71.8C411.4,-59.41 395.41,-41.38 383.6,-28.08"/>
<polygon fill="none" stroke="#63b8ff" points="383.51,-27.98 376.54,-26.15 375.55,-19.01 382.52,-20.84 383.51,-27.98"/>
</a>
</g>
<text text-anchor="start" x="408.5" y="-42.5" font-family="Helvetica,sans-Serif" font-size="10.00" fill="grey">&#45;requestBase</text>
</g>
<!-- Node9&#45;&gt;Node8 -->
<g id="edge10_Node000008_Node000009" class="edge">
<title>Node9&#45;&gt;Node8</title>
<g id="a_edge10_Node000008_Node000009"><a xlink:title=" ">
<path fill="none" stroke="#63b8ff" d="M421.25,-244.71C423.77,-215.98 429.49,-150.8 432.7,-114.2"/>
<polygon fill="none" stroke="#63b8ff" points="432.71,-114.08 429.25,-107.75 433.76,-102.12 437.22,-108.45 432.71,-114.08"/>
</a>
</g>
<text text-anchor="start" x="435" y="-170.5" font-family="Helvetica,sans-Serif" font-size="10.00" fill="grey">+ptr</text>
</g>
<!-- Node10 -->
<g id="Node000010" class="node">
<title>Node10</title>
<g id="a_Node000010"><a xlink:href="classweb_1_1http_1_1CiStringMap.html" target="_top" xlink:title=" ">
<polygon fill="white" stroke="transparent" points="514,-418 394,-418 394,-388 514,-388 514,-418"/>
<text text-anchor="start" x="398" y="-406" font-family="Helvetica,sans-Serif" font-size="10.00">web::http::CiStringMap</text>
<text text-anchor="start" x="418" y="-395" font-family="Helvetica,sans-Serif" font-size="10.00">&lt; std::string &gt;</text>
<polygon fill="none" stroke="#666666" points="394,-388 394,-418 514,-418 514,-388 394,-388"/>
</a>
</g>
</g>
<!-- Node10&#45;&gt;Node1 -->
<g id="edge17_Node000001_Node000010" class="edge">
<title>Node10&#45;&gt;Node1</title>
<g id="a_edge17_Node000001_Node000010"><a xlink:title=" ">
<path fill="none" stroke="#63b8ff" d="M511.4,-387.92C519.53,-383.49 526.86,-377.66 532,-370 547.02,-347.6 533.51,-133.81 508,-72 500.4,-53.59 496.83,-47.65 480,-37 464.22,-27.01 445.03,-20.78 427.02,-16.9"/>
<polygon fill="none" stroke="#63b8ff" points="426.89,-16.88 420.25,-19.68 415.11,-14.63 421.75,-11.82 426.89,-16.88"/>
</a>
</g>
<text text-anchor="start" x="537" y="-193.5" font-family="Helvetica,sans-Serif" font-size="10.00" fill="grey">+cookies</text>
<text text-anchor="start" x="537" y="-178.5" font-family="Helvetica,sans-Serif" font-size="10.00" fill="grey">+headers</text>
<text text-anchor="start" x="537" y="-163.5" font-family="Helvetica,sans-Serif" font-size="10.00" fill="grey">+queries</text>
<text text-anchor="start" x="537" y="-148.5" font-family="Helvetica,sans-Serif" font-size="10.00" fill="grey">+trailer</text>
</g>
<!-- Node10&#45;&gt;Node9 -->
<g id="edge12_Node000009_Node000010" class="edge">
<title>Node10&#45;&gt;Node9</title>
<g id="a_edge12_Node000009_Node000010"><a xlink:title=" ">
<path fill="none" stroke="#63b8ff" d="M430.92,-387.96C424.94,-383.08 419.27,-377.04 416,-370 403.79,-343.76 407.59,-309.99 412.63,-287.05"/>
<polygon fill="none" stroke="#63b8ff" points="412.67,-286.88 410.23,-280.09 415.55,-275.22 417.99,-282.01 412.67,-286.88"/>
</a>
</g>
<text text-anchor="start" x="419" y="-343.5" font-family="Helvetica,sans-Serif" font-size="10.00" fill="grey">+cookies</text>
<text text-anchor="start" x="419" y="-328.5" font-family="Helvetica,sans-Serif" font-size="10.00" fill="grey">+headers</text>
<text text-anchor="start" x="419" y="-313.5" font-family="Helvetica,sans-Serif" font-size="10.00" fill="grey">+queries</text>
</g>
<!-- Node11 -->
<g id="Node000011" class="node">
<title>Node11</title>
<g id="a_Node000011"><a xlink:title=" ">
<polygon fill="white" stroke="transparent" points="501,-479.5 407,-479.5 407,-460.5 501,-460.5 501,-479.5"/>
<text text-anchor="start" x="411.5" y="-467" font-family="Helvetica,sans-Serif" font-size="10.00">std::map&lt; K, T &gt;</text>
<polygon fill="none" stroke="#666666" points="407,-460.5 407,-479.5 501,-479.5 501,-460.5 407,-460.5"/>
</a>
</g>
</g>
<!-- Node11&#45;&gt;Node10 -->
<g id="edge13_Node000010_Node000011" class="edge">
<title>Node11&#45;&gt;Node10</title>
<g id="a_edge13_Node000010_Node000011"><a xlink:title=" ">
<path fill="none" stroke="#63b8ff" d="M454,-449.91C454,-439.72 454,-427.4 454,-418.09"/>
<polygon fill="none" stroke="#63b8ff" points="450.5,-450.23 454,-460.23 457.5,-450.23 450.5,-450.23"/>
</a>
</g>
</g>
<!-- Node12 -->
<g id="Node000012" class="node">
<title>Node12</title>
<g id="a_Node000012"><a xlink:title=" ">
<polygon fill="white" stroke="transparent" points="432,-557 416,-557 416,-538 432,-538 432,-557"/>
<text text-anchor="start" x="420.5" y="-544.5" font-family="Helvetica,sans-Serif" font-size="10.00">K</text>
<polygon fill="none" stroke="#666666" points="416,-538 416,-557 432,-557 432,-538 416,-538"/>
</a>
</g>
</g>
<!-- Node12&#45;&gt;Node11 -->
<g id="edge14_Node000011_Node000012" class="edge">
<title>Node12&#45;&gt;Node11</title>
<g id="a_edge14_Node000011_Node000012"><a xlink:title=" ">
<path fill="none" stroke="#63b8ff" d="M422.47,-537.81C421.27,-528.77 420.47,-514.37 425,-503 427.15,-497.61 430.66,-492.55 434.5,-488.11"/>
<polygon fill="none" stroke="#63b8ff" points="434.59,-488.02 435.99,-480.95 443.06,-479.52 441.66,-486.59 434.59,-488.02"/>
</a>
</g>
<text text-anchor="start" x="428.5" y="-508.5" font-family="Helvetica,sans-Serif" font-size="10.00" fill="grey">+keys</text>
</g>
<!-- Node13 -->
<g id="Node000013" class="node">
<title>Node13</title>
<g id="a_Node000013"><a xlink:title=" ">
<polygon fill="white" stroke="transparent" points="492,-557 476,-557 476,-538 492,-538 492,-557"/>
<text text-anchor="start" x="480.5" y="-544.5" font-family="Helvetica,sans-Serif" font-size="10.00">T</text>
<polygon fill="none" stroke="#666666" points="476,-538 476,-557 492,-557 492,-538 476,-538"/>
</a>
</g>
</g>
<!-- Node13&#45;&gt;Node11 -->
<g id="edge15_Node000011_Node000013" class="edge">
<title>Node13&#45;&gt;Node11</title>
<g id="a_edge15_Node000011_Node000013"><a xlink:title=" ">
<path fill="none" stroke="#63b8ff" d="M480.56,-537.84C476.04,-526.46 467.96,-506.14 461.9,-490.88"/>
<polygon fill="none" stroke="#63b8ff" points="461.83,-490.71 455.9,-486.61 457.4,-479.56 463.33,-483.66 461.83,-490.71"/>
</a>
</g>
<text text-anchor="start" x="476.5" y="-508.5" font-family="Helvetica,sans-Serif" font-size="10.00" fill="grey">+elements</text>
</g>
<!-- Node14 -->
<g id="Node000014" class="node">
<title>Node14</title>
<g id="a_Node000014"><a xlink:title=" ">
<polygon fill="white" stroke="transparent" points="655,-412.5 551,-412.5 551,-393.5 655,-393.5 655,-412.5"/>
<text text-anchor="start" x="555" y="-400" font-family="Helvetica,sans-Serif" font-size="10.00">std::vector&lt; char &gt;</text>
<polygon fill="none" stroke="#666666" points="551,-393.5 551,-412.5 655,-412.5 655,-393.5 551,-393.5"/>
</a>
</g>
</g>
<!-- Node14&#45;&gt;Node1 -->
<g id="edge18_Node000001_Node000014" class="edge">
<title>Node14&#45;&gt;Node1</title>
<g id="a_edge18_Node000001_Node000014"><a xlink:title=" ">
<path fill="none" stroke="#63b8ff" d="M604.97,-393.15C612.53,-357.08 637.1,-218.44 592,-120 569.47,-70.83 551.17,-61.6 503,-37 479.71,-25.1 451.64,-18.54 427.15,-14.92"/>
<polygon fill="none" stroke="#63b8ff" points="426.98,-14.89 420.5,-18.07 415.08,-13.32 421.55,-10.14 426.98,-14.89"/>
</a>
</g>
<text text-anchor="start" x="619.5" y="-170.5" font-family="Helvetica,sans-Serif" font-size="10.00" fill="grey">+body</text>
</g>
<!-- Node14&#45;&gt;Node9 -->
<g id="edge16_Node000009_Node000014" class="edge">
<title>Node14&#45;&gt;Node9</title>
<g id="a_edge16_Node000009_Node000014"><a xlink:title=" ">
<path fill="none" stroke="#63b8ff" d="M593.31,-393.39C571.78,-374.41 518.08,-327.9 470,-293 464.82,-289.24 459.2,-285.41 453.67,-281.78"/>
<polygon fill="none" stroke="#63b8ff" points="453.37,-281.59 446.16,-281.71 443.28,-275.1 450.49,-274.98 453.37,-281.59"/>
</a>
</g>
<text text-anchor="start" x="568.5" y="-328.5" font-family="Helvetica,sans-Serif" font-size="10.00" fill="grey">+body</text>
</g>
</g>
</svg>
