<?xml version="1.0" encoding="UTF-8" standalone="no"?>
<!DOCTYPE svg PUBLIC "-//W3C//DTD SVG 1.1//EN"
 "http://www.w3.org/Graphics/SVG/1.1/DTD/svg11.dtd">
<!-- Generated by graphviz version 14.1.2 (0)
 -->
<!-- Title: web::http::client::Request::getSocketContext Pages: 1 -->
<svg width="571pt" height="202pt"
 viewBox="0.00 0.00 571.00 202.00" xmlns="http://www.w3.org/2000/svg" xmlns:xlink="http://www.w3.org/1999/xlink">
<g id="graph0" class="graph" transform="scale(1 1) rotate(0) translate(4 197.88)">
<title>web::http::client::Request::getSocketContext</title>
<!-- Node1 -->
<g id="Node000001" class="node">
<title>Node1</title>
<g id="a_Node000001"><a xlink:title=" ">
<polygon fill="#999999" stroke="#666666" points="563.25,-116.5 415.25,-116.5 415.25,-83 563.25,-83 563.25,-116.5"/>
<text xml:space="preserve" text-anchor="start" x="423.25" y="-103" font-family="Helvetica,sans-Serif" font-size="10.00">web::http::client::</text>
<text xml:space="preserve" text-anchor="middle" x="489.25" y="-90.25" font-family="Helvetica,sans-Serif" font-size="10.00">Request::getSocketContext</text>
</a>
</g>
</g>
<!-- Node2 -->
<g id="Node000002" class="node">
<title>Node2</title>
<g id="a_Node000002"><a xlink:href="classweb_1_1http_1_1client_1_1MasterRequest.html#a4600b84fb7091dfb6204cb85cf000424" target="_top" xlink:title=" ">
<polygon fill="white" stroke="#666666" points="379.25,-187.5 203.5,-187.5 203.5,-154 379.25,-154 379.25,-187.5"/>
<text xml:space="preserve" text-anchor="start" x="211.5" y="-174" font-family="Helvetica,sans-Serif" font-size="10.00">web::http::client::</text>
<text xml:space="preserve" text-anchor="middle" x="291.38" y="-161.25" font-family="Helvetica,sans-Serif" font-size="10.00">MasterRequest::executeUpgrade</text>
</a>
</g>
</g>
<!-- Node1&#45;&gt;Node2 -->
<g id="edge1_Node000001_Node000002" class="edge">
<title>Node1&#45;&gt;Node2</title>
<g id="a_edge1_Node000001_Node000002"><a xlink:title=" ">
<path fill="none" stroke="#63b8ff" d="M430.92,-120.9C414.27,-127.01 396.04,-133.67 379.25,-139.75 366.75,-144.27 353.23,-149.12 340.65,-153.61"/>
<polygon fill="#63b8ff" stroke="#63b8ff" points="432.01,-124.23 440.19,-117.49 429.59,-117.66 432.01,-124.23"/>
</a>
</g>
</g>
<!-- Node4 -->
<g id="Node000004" class="node">
<title>Node4</title>
<g id="a_Node000004"><a xlink:href="websocket_2echoclient_8cpp.html#a0ddf1224851353fc92bfbff6f499fa97" target="_top" xlink:title=" ">
<polygon fill="white" stroke="#666666" points="104.12,-78.12 63.38,-78.12 63.38,-57.38 104.12,-57.38 104.12,-78.12"/>
<text xml:space="preserve" text-anchor="middle" x="83.75" y="-64.62" font-family="Helvetica,sans-Serif" font-size="10.00">main</text>
</a>
</g>
</g>
<!-- Node1&#45;&gt;Node4 -->
<g id="edge3_Node000001_Node000004" class="edge">
<title>Node1&#45;&gt;Node4</title>
<g id="a_edge3_Node000001_Node000004"><a xlink:title=" ">
<path fill="none" stroke="#63b8ff" d="M403.78,-109.86C346.84,-114.71 270.22,-117.43 203.5,-106.75 167.5,-100.99 127.61,-85.99 104.44,-76.37"/>
<polygon fill="#63b8ff" stroke="#63b8ff" points="403.74,-113.38 413.39,-109 403.12,-106.4 403.74,-113.38"/>
</a>
</g>
</g>
<!-- Node5 -->
<g id="Node000005" class="node">
<title>Node5</title>
<g id="a_Node000005"><a xlink:href="classweb_1_1http_1_1client_1_1MasterRequest.html#a6bea9923e6702647a912b8dbba9deee6" target="_top" xlink:title=" ">
<polygon fill="white" stroke="#666666" points="371.38,-97.88 211.38,-97.88 211.38,-51.62 371.38,-51.62 371.38,-97.88"/>
<text xml:space="preserve" text-anchor="start" x="219.38" y="-84.38" font-family="Helvetica,sans-Serif" font-size="10.00">web::http::client::</text>
<text xml:space="preserve" text-anchor="start" x="219.38" y="-71.62" font-family="Helvetica,sans-Serif" font-size="10.00">MasterRequest::requestEvent</text>
<text xml:space="preserve" text-anchor="middle" x="291.38" y="-58.88" font-family="Helvetica,sans-Serif" font-size="10.00">Source</text>
</a>
</g>
</g>
<!-- Node1&#45;&gt;Node5 -->
<g id="edge4_Node000001_Node000005" class="edge">
<title>Node1&#45;&gt;Node5</title>
<g id="a_edge4_Node000001_Node000005"><a xlink:title=" ">
<path fill="none" stroke="#63b8ff" d="M403.47,-88.93C392.97,-87.59 382.27,-86.22 371.86,-84.89"/>
<polygon fill="#63b8ff" stroke="#63b8ff" points="402.89,-92.38 413.25,-90.18 403.78,-85.44 402.89,-92.38"/>
</a>
</g>
</g>
<!-- Node6 -->
<g id="Node000006" class="node">
<title>Node6</title>
<g id="a_Node000006"><a xlink:href="classweb_1_1http_1_1client_1_1MasterRequest.html#a928c1cf1c0d6e4ede9a4263b60a253a9" target="_top" xlink:title=" ">
<polygon fill="white" stroke="#666666" points="359,-33.5 223.75,-33.5 223.75,0 359,0 359,-33.5"/>
<text xml:space="preserve" text-anchor="start" x="231.75" y="-20" font-family="Helvetica,sans-Serif" font-size="10.00">web::http::client::</text>
<text xml:space="preserve" text-anchor="middle" x="291.38" y="-7.25" font-family="Helvetica,sans-Serif" font-size="10.00">MasterRequest::upgrade</text>
</a>
</g>
</g>
<!-- Node1&#45;&gt;Node6 -->
<g id="edge5_Node000001_Node000006" class="edge">
<title>Node1&#45;&gt;Node6</title>
<g id="a_edge5_Node000001_Node000006"><a xlink:title=" ">
<path fill="none" stroke="#63b8ff" d="M449.49,-77.17C429.05,-65.86 403.28,-52.52 379.25,-42.75 371.52,-39.61 363.27,-36.65 355.04,-33.94"/>
<polygon fill="#63b8ff" stroke="#63b8ff" points="447.61,-80.13 458.05,-81.96 451.03,-74.02 447.61,-80.13"/>
</a>
</g>
</g>
<!-- Node3 -->
<g id="Node000003" class="node">
<title>Node3</title>
<g id="a_Node000003"><a xlink:href="classweb_1_1http_1_1client_1_1commands_1_1UpgradeCommand.html#a5d569b3e9d35fc61ef6f615e0e05b892" target="_top" xlink:title=" ">
<polygon fill="white" stroke="#666666" points="167.5,-193.88 0,-193.88 0,-147.62 167.5,-147.62 167.5,-193.88"/>
<text xml:space="preserve" text-anchor="start" x="8" y="-180.38" font-family="Helvetica,sans-Serif" font-size="10.00">web::http::client::</text>
<text xml:space="preserve" text-anchor="start" x="8" y="-167.62" font-family="Helvetica,sans-Serif" font-size="10.00">commands::UpgradeCommand</text>
<text xml:space="preserve" text-anchor="middle" x="83.75" y="-154.88" font-family="Helvetica,sans-Serif" font-size="10.00">::execute</text>
</a>
</g>
</g>
<!-- Node2&#45;&gt;Node3 -->
<g id="edge2_Node000002_Node000003" class="edge">
<title>Node2&#45;&gt;Node3</title>
<g id="a_edge2_Node000002_Node000003"><a xlink:title=" ">
<path fill="none" stroke="#63b8ff" d="M191.85,-170.75C183.81,-170.75 175.74,-170.75 167.83,-170.75"/>
<polygon fill="#63b8ff" stroke="#63b8ff" points="191.66,-174.25 201.66,-170.75 191.66,-167.25 191.66,-174.25"/>
</a>
</g>
</g>
<!-- Node6&#45;&gt;Node4 -->
<g id="edge6_Node000006_Node000004" class="edge">
<title>Node6&#45;&gt;Node4</title>
<g id="a_edge6_Node000006_Node000004"><a xlink:title=" ">
<path fill="none" stroke="#63b8ff" d="M212.21,-36.14C173.17,-45.82 129.09,-56.75 104.34,-62.89"/>
<polygon fill="#63b8ff" stroke="#63b8ff" points="213,-39.55 221.86,-33.74 211.31,-32.75 213,-39.55"/>
</a>
</g>
</g>
</g>
</svg>
