<?xml version="1.0" encoding="UTF-8" standalone="no"?>
<!DOCTYPE svg PUBLIC "-//W3C//DTD SVG 1.1//EN"
 "http://www.w3.org/Graphics/SVG/1.1/DTD/svg11.dtd">
<!-- Generated by graphviz version 2.42.4 (0)
 -->
<!-- Title: web::http::server::SocketContextUpgradeFactory Pages: 1 -->
<svg width="158pt" height="258pt"
 viewBox="0.00 0.00 158.00 258.00" xmlns="http://www.w3.org/2000/svg" xmlns:xlink="http://www.w3.org/1999/xlink">

<svg id="main" version="1.1" xmlns="http://www.w3.org/2000/svg" xmlns:xlink="http://www.w3.org/1999/xlink" xml:space="preserve" onload="init(evt)">
<style type="text/css"><![CDATA[
.node, .edge {opacity: 0.7;}
.node.selected, .edge.selected {opacity: 1;}
.edge:hover path { stroke: red; }
.edge:hover polygon { stroke: red; fill: red; }
]]></style>
<script type="application/ecmascript" xlink:href="svg.min.js"/>
<svg id="graph" class="graph">
<g id="graph0" class="graph" transform="scale(1 1) rotate(0) translate(4 254)">
<title>web::http::server::SocketContextUpgradeFactory</title>
<!-- Node1 -->
<g id="Node000001" class="node">
<title>Node1</title>
<g id="a_Node000001"><a xlink:title=" ">
<polygon fill="#999999" stroke="transparent" points="147,-96 3,-96 3,-66 147,-66 147,-96"/>
<text text-anchor="start" x="7" y="-84" font-family="Helvetica,sans-Serif" font-size="10.00">web::http::server::</text>
<text text-anchor="start" x="7" y="-73" font-family="Helvetica,sans-Serif" font-size="10.00">SocketContextUpgradeFactory</text>
<polygon fill="none" stroke="#666666" points="3,-66 3,-96 147,-96 147,-66 3,-66"/>
</a>
</g>
</g>
<!-- Node4 -->
<g id="Node000004" class="node">
<title>Node4</title>
<g id="a_Node000004"><a xlink:href="classweb_1_1websocket_1_1server_1_1SocketContextUpgradeFactory.html" target="_top" xlink:title=" ">
<polygon fill="white" stroke="transparent" points="150,-30 0,-30 0,0 150,0 150,-30"/>
<text text-anchor="start" x="4" y="-18" font-family="Helvetica,sans-Serif" font-size="10.00">web::websocket::server</text>
<text text-anchor="start" x="4" y="-7" font-family="Helvetica,sans-Serif" font-size="10.00">::SocketContextUpgradeFactory</text>
<polygon fill="none" stroke="#666666" points="0,0 0,-30 150,-30 150,0 0,0"/>
</a>
</g>
</g>
<!-- Node1&#45;&gt;Node4 -->
<g id="edge3_Node000001_Node000004" class="edge">
<title>Node1&#45;&gt;Node4</title>
<g id="a_edge3_Node000001_Node000004"><a xlink:title=" ">
<path fill="none" stroke="#63b8ff" d="M75,-55.54C75,-46.96 75,-37.61 75,-30.16"/>
<polygon fill="none" stroke="#63b8ff" points="71.5,-55.8 75,-65.8 78.5,-55.8 71.5,-55.8"/>
</a>
</g>
</g>
<!-- Node2 -->
<g id="Node000002" class="node">
<title>Node2</title>
<g id="a_Node000002"><a xlink:href="classweb_1_1http_1_1SocketContextUpgradeFactory.html" target="_top" xlink:title=" ">
<polygon fill="white" stroke="transparent" points="141,-184 9,-184 9,-132 141,-132 141,-184"/>
<text text-anchor="start" x="13.5" y="-172" font-family="Helvetica,sans-Serif" font-size="10.00">web::http::SocketContext</text>
<text text-anchor="start" x="13.5" y="-161" font-family="Helvetica,sans-Serif" font-size="10.00">UpgradeFactory&lt; web::http</text>
<text text-anchor="start" x="13.5" y="-150" font-family="Helvetica,sans-Serif" font-size="10.00">::server::Request, web::http</text>
<text text-anchor="start" x="28.5" y="-139" font-family="Helvetica,sans-Serif" font-size="10.00">::server::Response &gt;</text>
<polygon fill="none" stroke="#666666" points="9,-132 9,-184 141,-184 141,-132 9,-132"/>
</a>
</g>
</g>
<!-- Node2&#45;&gt;Node1 -->
<g id="edge1_Node000001_Node000002" class="edge">
<title>Node2&#45;&gt;Node1</title>
<g id="a_edge1_Node000001_Node000002"><a xlink:title=" ">
<path fill="none" stroke="#63b8ff" d="M75,-121.41C75,-112.57 75,-103.58 75,-96.43"/>
<polygon fill="none" stroke="#63b8ff" points="71.5,-121.61 75,-131.61 78.5,-121.61 71.5,-121.61"/>
</a>
</g>
</g>
<!-- Node3 -->
<g id="Node000003" class="node">
<title>Node3</title>
<g id="a_Node000003"><a xlink:href="classcore_1_1socket_1_1stream_1_1SocketContextFactory.html" target="_top" xlink:title=" ">
<polygon fill="white" stroke="transparent" points="132,-250 18,-250 18,-220 132,-220 132,-250"/>
<text text-anchor="start" x="22.5" y="-238" font-family="Helvetica,sans-Serif" font-size="10.00">core::socket::stream</text>
<text text-anchor="start" x="22.5" y="-227" font-family="Helvetica,sans-Serif" font-size="10.00">::SocketContextFactory</text>
<polygon fill="none" stroke="#666666" points="18,-220 18,-250 132,-250 132,-220 18,-220"/>
</a>
</g>
</g>
<!-- Node3&#45;&gt;Node2 -->
<g id="edge2_Node000002_Node000003" class="edge">
<title>Node3&#45;&gt;Node2</title>
<g id="a_edge2_Node000002_Node000003"><a xlink:title=" ">
<path fill="none" stroke="#63b8ff" d="M75,-209.86C75,-201.69 75,-192.54 75,-184.28"/>
<polygon fill="none" stroke="#63b8ff" points="71.5,-209.89 75,-219.89 78.5,-209.89 71.5,-209.89"/>
</a>
</g>
</g>
</g>
</svg>
</svg>

<style type='text/css'>
<![CDATA[
[data-mouse-over-selected='false'] { opacity: 0.7; }
[data-mouse-over-selected='true']  { opacity: 1.0; }
]]>
</style>
<script type="application/ecmascript"><![CDATA[
document.addEventListener('DOMContentLoaded', (event) => {
  highlightEdges();
  highlightAdjacentNodes();
});
]]></script>
</svg>
