<?xml version="1.0" encoding="UTF-8" standalone="no"?>
<!DOCTYPE svg PUBLIC "-//W3C//DTD SVG 1.1//EN"
 "http://www.w3.org/Graphics/SVG/1.1/DTD/svg11.dtd">
<!-- Generated by graphviz version 2.43.0 (0)
 -->
<!-- Title: net::PhysicalSocket&lt; SocketAddressT &gt; Pages: 1 -->
<svg width="372pt" height="225pt"
 viewBox="0.00 0.00 372.00 225.00" xmlns="http://www.w3.org/2000/svg" xmlns:xlink="http://www.w3.org/1999/xlink">
<g id="graph0" class="graph" transform="scale(1 1) rotate(0) translate(4 221)">
<title>net::PhysicalSocket&lt; SocketAddressT &gt;</title>
<!-- Node1 -->
<g id="Node000001" class="node">
<title>Node1</title>
<g id="a_Node000001"><a xlink:title=" ">
<polygon fill="#999999" stroke="transparent" points="190,-162 82,-162 82,-132 190,-132 190,-162"/>
<text text-anchor="start" x="86" y="-150" font-family="Helvetica,sans-Serif" font-size="10.00">net::PhysicalSocket</text>
<text text-anchor="start" x="86" y="-139" font-family="Helvetica,sans-Serif" font-size="10.00">&lt; SocketAddressT &gt;</text>
<polygon fill="none" stroke="#666666" points="82,-132 82,-162 190,-162 190,-132 82,-132"/>
</a>
</g>
</g>
<!-- Node3 -->
<g id="Node000003" class="node">
<title>Node3</title>
<g id="a_Node000003"><a xlink:href="classnet_1_1dgram_1_1_peer_socket.html" target="_top" xlink:title=" ">
<polygon fill="white" stroke="transparent" points="122,-96 0,-96 0,-66 122,-66 122,-96"/>
<text text-anchor="start" x="4" y="-84" font-family="Helvetica,sans-Serif" font-size="10.00">net::dgram::PeerSocket</text>
<text text-anchor="start" x="11" y="-73" font-family="Helvetica,sans-Serif" font-size="10.00">&lt; SocketAddressT &gt;</text>
<polygon fill="none" stroke="#666666" points="0,-66 0,-96 122,-96 122,-66 0,-66"/>
</a>
</g>
</g>
<!-- Node1&#45;&gt;Node3 -->
<g id="edge2_Node000001_Node000003" class="edge">
<title>Node1&#45;&gt;Node3</title>
<g id="a_edge2_Node000001_Node000003"><a xlink:title=" ">
<path fill="none" stroke="#63b8ff" d="M111.63,-125.2C100.49,-115.7 87.59,-104.69 77.6,-96.16"/>
<polygon fill="none" stroke="#63b8ff" points="109.48,-127.97 119.36,-131.8 114.02,-122.64 109.48,-127.97"/>
</a>
</g>
</g>
<!-- Node4 -->
<g id="Node000004" class="node">
<title>Node4</title>
<g id="a_Node000004"><a xlink:href="classnet_1_1stream_1_1_physical_socket.html" target="_top" xlink:title=" ">
<polygon fill="white" stroke="transparent" points="284,-96 140,-96 140,-66 284,-66 284,-96"/>
<text text-anchor="start" x="144" y="-84" font-family="Helvetica,sans-Serif" font-size="10.00">net::stream::PhysicalSocket</text>
<text text-anchor="start" x="162" y="-73" font-family="Helvetica,sans-Serif" font-size="10.00">&lt; SocketAddressT &gt;</text>
<polygon fill="none" stroke="#666666" points="140,-66 140,-96 284,-96 284,-66 140,-66"/>
</a>
</g>
</g>
<!-- Node1&#45;&gt;Node4 -->
<g id="edge3_Node000001_Node000004" class="edge">
<title>Node1&#45;&gt;Node4</title>
<g id="a_edge3_Node000001_Node000004"><a xlink:title=" ">
<path fill="none" stroke="#63b8ff" d="M160.7,-125.2C171.98,-115.7 185.05,-104.69 195.18,-96.16"/>
<polygon fill="none" stroke="#63b8ff" points="158.26,-122.68 152.87,-131.8 162.77,-128.03 158.26,-122.68"/>
</a>
</g>
</g>
<!-- Node2 -->
<g id="Node000002" class="node">
<title>Node2</title>
<g id="a_Node000002"><a xlink:href="classcore_1_1_descriptor.html" target="_top" xlink:title=" ">
<polygon fill="white" stroke="transparent" points="179,-217 93,-217 93,-198 179,-198 179,-217"/>
<text text-anchor="start" x="97" y="-204.5" font-family="Helvetica,sans-Serif" font-size="10.00">core::Descriptor</text>
<polygon fill="none" stroke="#666666" points="93,-198 93,-217 179,-217 179,-198 93,-198"/>
</a>
</g>
</g>
<!-- Node2&#45;&gt;Node1 -->
<g id="edge1_Node000001_Node000002" class="edge">
<title>Node2&#45;&gt;Node1</title>
<g id="a_edge1_Node000001_Node000002"><a xlink:title=" ">
<path fill="none" stroke="#63b8ff" d="M136,-187.65C136,-179.36 136,-169.78 136,-162.11"/>
<polygon fill="none" stroke="#63b8ff" points="132.5,-187.87 136,-197.87 139.5,-187.87 132.5,-187.87"/>
</a>
</g>
</g>
<!-- Node5 -->
<g id="Node000005" class="node">
<title>Node5</title>
<g id="a_Node000005"><a xlink:href="classnet_1_1stream_1_1_physical_client_socket.html" target="_top" xlink:title=" ">
<polygon fill="white" stroke="transparent" points="202,-30 60,-30 60,0 202,0 202,-30"/>
<text text-anchor="start" x="64.5" y="-18" font-family="Helvetica,sans-Serif" font-size="10.00">net::stream::PhysicalClient</text>
<text text-anchor="start" x="64.5" y="-7" font-family="Helvetica,sans-Serif" font-size="10.00">Socket&lt; SocketAddressT &gt;</text>
<polygon fill="none" stroke="#666666" points="60,0 60,-30 202,-30 202,0 60,0"/>
</a>
</g>
</g>
<!-- Node4&#45;&gt;Node5 -->
<g id="edge4_Node000004_Node000005" class="edge">
<title>Node4&#45;&gt;Node5</title>
<g id="a_edge4_Node000004_Node000005"><a xlink:title=" ">
<path fill="none" stroke="#63b8ff" d="M186.03,-59.48C173.92,-49.91 159.82,-38.77 148.93,-30.16"/>
<polygon fill="none" stroke="#63b8ff" points="184.01,-62.34 194.02,-65.8 188.35,-56.85 184.01,-62.34"/>
</a>
</g>
</g>
<!-- Node6 -->
<g id="Node000006" class="node">
<title>Node6</title>
<g id="a_Node000006"><a xlink:href="classnet_1_1stream_1_1_physical_server_socket.html" target="_top" xlink:title=" ">
<polygon fill="white" stroke="transparent" points="364,-30 220,-30 220,0 364,0 364,-30"/>
<text text-anchor="start" x="224.5" y="-18" font-family="Helvetica,sans-Serif" font-size="10.00">net::stream::PhysicalServer</text>
<text text-anchor="start" x="225.5" y="-7" font-family="Helvetica,sans-Serif" font-size="10.00">Socket&lt; SocketAddressT &gt;</text>
<polygon fill="none" stroke="#666666" points="220,0 220,-30 364,-30 364,0 220,0"/>
</a>
</g>
</g>
<!-- Node4&#45;&gt;Node6 -->
<g id="edge5_Node000004_Node000006" class="edge">
<title>Node4&#45;&gt;Node6</title>
<g id="a_edge5_Node000004_Node000006"><a xlink:title=" ">
<path fill="none" stroke="#63b8ff" d="M237.65,-59.48C249.61,-49.91 263.53,-38.77 274.3,-30.16"/>
<polygon fill="none" stroke="#63b8ff" points="235.38,-56.82 229.75,-65.8 239.75,-62.28 235.38,-56.82"/>
</a>
</g>
</g>
</g>
</svg>
