<?xml version="1.0" encoding="UTF-8" standalone="no"?>
<!DOCTYPE svg PUBLIC "-//W3C//DTD SVG 1.1//EN"
 "http://www.w3.org/Graphics/SVG/1.1/DTD/svg11.dtd">
<!-- Generated by graphviz version 14.1.1 (0)
 -->
<!-- Title: web::http::client::SocketContext::responseStarted Pages: 1 -->
<svg width="607pt" height="146pt"
 viewBox="0.00 0.00 607.00 146.00" xmlns="http://www.w3.org/2000/svg" xmlns:xlink="http://www.w3.org/1999/xlink">
<g id="graph0" class="graph" transform="scale(1 1) rotate(0) translate(4 141.5)">
<title>web::http::client::SocketContext::responseStarted</title>
<!-- Node1 -->
<g id="Node000001" class="node">
<title>Node1</title>
<g id="a_Node000001"><a xlink:title=" ">
<polygon fill="#999999" stroke="#666666" points="172,-85.5 0,-85.5 0,-52 172,-52 172,-85.5"/>
<text xml:space="preserve" text-anchor="start" x="8" y="-72" font-family="Helvetica,sans-Serif" font-size="10.00">web::http::client::</text>
<text xml:space="preserve" text-anchor="middle" x="86" y="-59.25" font-family="Helvetica,sans-Serif" font-size="10.00">SocketContext::responseStarted</text>
</a>
</g>
</g>
<!-- Node2 -->
<g id="Node000002" class="node">
<title>Node2</title>
<g id="a_Node000002"><a xlink:href="classcore_1_1socket_1_1stream_1_1SocketContext.html#a47b23b8583dfd3880232e748f284f380" target="_top" xlink:title=" ">
<polygon fill="white" stroke="#666666" points="377.38,-137.5 253.38,-137.5 253.38,-104 377.38,-104 377.38,-137.5"/>
<text xml:space="preserve" text-anchor="start" x="261.38" y="-124" font-family="Helvetica,sans-Serif" font-size="10.00">core::socket::stream</text>
<text xml:space="preserve" text-anchor="middle" x="315.38" y="-111.25" font-family="Helvetica,sans-Serif" font-size="10.00">::SocketContext::close</text>
</a>
</g>
</g>
<!-- Node1&#45;&gt;Node2 -->
<g id="edge1_Node000001_Node000002" class="edge">
<title>Node1&#45;&gt;Node2</title>
<g id="a_edge1_Node000001_Node000002"><a xlink:title=" ">
<path fill="none" stroke="#63b8ff" d="M162.4,-85.99C188.07,-91.86 216.7,-98.41 242.12,-104.23"/>
<polygon fill="#63b8ff" stroke="#63b8ff" points="241.17,-107.6 251.7,-106.42 242.73,-100.77 241.17,-107.6"/>
</a>
</g>
</g>
<!-- Node4 -->
<g id="Node000004" class="node">
<title>Node4</title>
<g id="a_Node000004"><a xlink:href="classcore_1_1socket_1_1stream_1_1SocketConnection.html#a5e26cd617f07295e8579ddb9c41bdd2c" target="_top" xlink:title=" ">
<polygon fill="white" stroke="#666666" points="422.75,-85.5 208,-85.5 208,-52 422.75,-52 422.75,-85.5"/>
<text xml:space="preserve" text-anchor="start" x="216" y="-72" font-family="Helvetica,sans-Serif" font-size="10.00">core::socket::stream</text>
<text xml:space="preserve" text-anchor="middle" x="315.38" y="-59.25" font-family="Helvetica,sans-Serif" font-size="10.00">::SocketConnection::getConnectionName</text>
</a>
</g>
</g>
<!-- Node1&#45;&gt;Node4 -->
<g id="edge3_Node000001_Node000004" class="edge">
<title>Node1&#45;&gt;Node4</title>
<g id="a_edge3_Node000001_Node000004"><a xlink:title=" ">
<path fill="none" stroke="#63b8ff" d="M172.31,-68.75C180.19,-68.75 188.27,-68.75 196.37,-68.75"/>
<polygon fill="#63b8ff" stroke="#63b8ff" points="196.32,-72.25 206.32,-68.75 196.32,-65.25 196.32,-72.25"/>
</a>
</g>
</g>
<!-- Node5 -->
<g id="Node000005" class="node">
<title>Node5</title>
<g id="a_Node000005"><a xlink:href="classcore_1_1socket_1_1stream_1_1SocketContext.html#a02f0b93ac0ea376dabd6921c7589a8cf" target="_top" xlink:title=" ">
<polygon fill="white" stroke="#666666" points="416,-33.5 214.75,-33.5 214.75,0 416,0 416,-33.5"/>
<text xml:space="preserve" text-anchor="start" x="222.75" y="-20" font-family="Helvetica,sans-Serif" font-size="10.00">core::socket::stream</text>
<text xml:space="preserve" text-anchor="middle" x="315.38" y="-7.25" font-family="Helvetica,sans-Serif" font-size="10.00">::SocketContext::getSocketConnection</text>
</a>
</g>
</g>
<!-- Node1&#45;&gt;Node5 -->
<g id="edge4_Node000001_Node000005" class="edge">
<title>Node1&#45;&gt;Node5</title>
<g id="a_edge4_Node000001_Node000005"><a xlink:title=" ">
<path fill="none" stroke="#63b8ff" d="M162.4,-51.51C183.42,-46.7 206.43,-41.44 228.03,-36.5"/>
<polygon fill="#63b8ff" stroke="#63b8ff" points="228.74,-39.93 237.71,-34.28 227.18,-33.1 228.74,-39.93"/>
</a>
</g>
</g>
<!-- Node3 -->
<g id="Node000003" class="node">
<title>Node3</title>
<g id="a_Node000003"><a xlink:href="classcore_1_1socket_1_1stream_1_1SocketConnection.html#aed398e81ede92d1d1cfae2597580ad2c" target="_top" xlink:title=" ">
<polygon fill="white" stroke="#666666" points="599.25,-137.5 458.75,-137.5 458.75,-104 599.25,-104 599.25,-137.5"/>
<text xml:space="preserve" text-anchor="start" x="466.75" y="-124" font-family="Helvetica,sans-Serif" font-size="10.00">core::socket::stream</text>
<text xml:space="preserve" text-anchor="middle" x="529" y="-111.25" font-family="Helvetica,sans-Serif" font-size="10.00">::SocketConnection::close</text>
</a>
</g>
</g>
<!-- Node2&#45;&gt;Node3 -->
<g id="edge2_Node000002_Node000003" class="edge">
<title>Node2&#45;&gt;Node3</title>
<g id="a_edge2_Node000002_Node000003"><a xlink:title=" ">
<path fill="none" stroke="#63b8ff" d="M377.87,-120.75C399.48,-120.75 424.1,-120.75 447.06,-120.75"/>
<polygon fill="#63b8ff" stroke="#63b8ff" points="447.03,-124.25 457.03,-120.75 447.03,-117.25 447.03,-124.25"/>
</a>
</g>
</g>
</g>
</svg>
