<?xml version="1.0" encoding="UTF-8" standalone="no"?>
<!DOCTYPE svg PUBLIC "-//W3C//DTD SVG 1.1//EN"
 "http://www.w3.org/Graphics/SVG/1.1/DTD/svg11.dtd">
<!-- Generated by graphviz version 2.43.0 (0)
 -->
<!-- Title: express::Response::status Pages: 1 -->
<svg width="1414pt" height="335pt"
 viewBox="0.00 0.00 1414.00 335.00" xmlns="http://www.w3.org/2000/svg" xmlns:xlink="http://www.w3.org/1999/xlink">
<g id="graph0" class="graph" transform="scale(1 1) rotate(0) translate(4 331)">
<title>express::Response::status</title>
<!-- Node1 -->
<g id="Node000001" class="node">
<title>Node1</title>
<g id="a_Node000001"><a xlink:title=" ">
<polygon fill="#999999" stroke="#666666" points="1406,-77 1292,-77 1292,-47 1406,-47 1406,-77"/>
<text text-anchor="start" x="1300" y="-65" font-family="Helvetica,sans-Serif" font-size="10.00">express::Response::</text>
<text text-anchor="middle" x="1349" y="-54" font-family="Helvetica,sans-Serif" font-size="10.00">status</text>
</a>
</g>
</g>
<!-- Node2 -->
<g id="Node000002" class="node">
<title>Node2</title>
<g id="a_Node000002"><a xlink:href="classexpress_1_1Response.html#aead1c666aafef5787f1824e5ea30efad" target="_top" xlink:title=" ">
<polygon fill="white" stroke="#666666" points="1256,-139 1142,-139 1142,-109 1256,-109 1256,-139"/>
<text text-anchor="start" x="1150" y="-127" font-family="Helvetica,sans-Serif" font-size="10.00">express::Response::</text>
<text text-anchor="middle" x="1199" y="-116" font-family="Helvetica,sans-Serif" font-size="10.00">sendStatus</text>
</a>
</g>
</g>
<!-- Node1&#45;&gt;Node2 -->
<g id="edge1_Node000001_Node000002" class="edge">
<title>Node1&#45;&gt;Node2</title>
<g id="a_edge1_Node000001_Node000002"><a xlink:title=" ">
<path fill="none" stroke="#63b8ff" d="M1302.93,-80.88C1281.47,-89.87 1256.16,-100.47 1236.01,-108.91"/>
<polygon fill="#63b8ff" stroke="#63b8ff" points="1304.3,-84.1 1312.17,-77.01 1301.6,-77.64 1304.3,-84.1"/>
</a>
</g>
</g>
<!-- Node13 -->
<g id="Node000013" class="node">
<title>Node13</title>
<g id="a_Node000013"><a xlink:href="classexpress_1_1middleware_1_1StaticMiddleware.html#af712793a6f6d600b813fc4a6d3fbe41d" target="_top" xlink:title=" ">
<polygon fill="white" stroke="#666666" points="596.5,-91.5 477.5,-91.5 477.5,-50.5 596.5,-50.5 596.5,-91.5"/>
<text text-anchor="start" x="485.5" y="-79.5" font-family="Helvetica,sans-Serif" font-size="10.00">express::middleware</text>
<text text-anchor="start" x="485.5" y="-68.5" font-family="Helvetica,sans-Serif" font-size="10.00">::StaticMiddleware::</text>
<text text-anchor="middle" x="537" y="-57.5" font-family="Helvetica,sans-Serif" font-size="10.00">StaticMiddleware</text>
</a>
</g>
</g>
<!-- Node1&#45;&gt;Node13 -->
<g id="edge25_Node000001_Node000013" class="edge">
<title>Node1&#45;&gt;Node13</title>
<g id="a_edge25_Node000001_Node000013"><a xlink:title=" ">
<path fill="none" stroke="#63b8ff" d="M1294.3,-43.9C1235.17,-25.6 1136.92,0 1050,0 1050,0 1050,0 898,0 790.02,0 667.21,-31.13 596.54,-52.16"/>
<polygon fill="#63b8ff" stroke="#63b8ff" points="1293.58,-47.33 1304.16,-46.99 1295.67,-40.66 1293.58,-47.33"/>
</a>
</g>
</g>
<!-- Node3 -->
<g id="Node000003" class="node">
<title>Node3</title>
<g id="a_Node000003"><a xlink:href="classexpress_1_1middleware_1_1BasicAuthentication.html#a74011e8f313cded7f34c28250ddc878f" target="_top" xlink:title=" ">
<polygon fill="white" stroke="#666666" points="597,-182.5 477,-182.5 477,-141.5 597,-141.5 597,-182.5"/>
<text text-anchor="start" x="485" y="-170.5" font-family="Helvetica,sans-Serif" font-size="10.00">express::middleware</text>
<text text-anchor="start" x="485" y="-159.5" font-family="Helvetica,sans-Serif" font-size="10.00">::BasicAuthentication</text>
<text text-anchor="middle" x="537" y="-148.5" font-family="Helvetica,sans-Serif" font-size="10.00">::BasicAuthentication</text>
</a>
</g>
</g>
<!-- Node2&#45;&gt;Node3 -->
<g id="edge2_Node000002_Node000003" class="edge">
<title>Node2&#45;&gt;Node3</title>
<g id="a_edge2_Node000002_Node000003"><a xlink:title=" ">
<path fill="none" stroke="#63b8ff" d="M1131.65,-134.97C1123.04,-136.14 1114.32,-137.19 1106,-138 920.82,-155.95 700.39,-160.48 597.02,-161.62"/>
<polygon fill="#63b8ff" stroke="#63b8ff" points="1132.27,-138.42 1141.68,-133.56 1131.29,-131.49 1132.27,-138.42"/>
</a>
</g>
</g>
<!-- Node6 -->
<g id="Node000006" class="node">
<title>Node6</title>
<g id="a_Node000006"><a xlink:href="classexpress_1_1RootRoute.html#a2d65050e101a52dc8c303cd787d1cb23" target="_top" xlink:title=" ">
<polygon fill="white" stroke="#666666" points="1105,-220 993,-220 993,-190 1105,-190 1105,-220"/>
<text text-anchor="start" x="1001" y="-208" font-family="Helvetica,sans-Serif" font-size="10.00">express::RootRoute</text>
<text text-anchor="middle" x="1049" y="-197" font-family="Helvetica,sans-Serif" font-size="10.00">::dispatch</text>
</a>
</g>
</g>
<!-- Node2&#45;&gt;Node6 -->
<g id="edge5_Node000002_Node000006" class="edge">
<title>Node2&#45;&gt;Node6</title>
<g id="a_edge5_Node000002_Node000006"><a xlink:title=" ">
<path fill="none" stroke="#63b8ff" d="M1162.9,-144.24C1145.82,-153.99 1124.92,-165.76 1106,-176 1097.43,-180.64 1088.05,-185.56 1079.46,-190"/>
<polygon fill="#63b8ff" stroke="#63b8ff" points="1165.03,-147.05 1171.97,-139.05 1161.55,-140.98 1165.03,-147.05"/>
</a>
</g>
</g>
<!-- Node2&#45;&gt;Node13 -->
<g id="edge24_Node000002_Node000013" class="edge">
<title>Node2&#45;&gt;Node13</title>
<g id="a_edge24_Node000002_Node000013"><a xlink:title=" ">
<path fill="none" stroke="#63b8ff" d="M1131.6,-121.61C1060.04,-118.76 942.83,-113.32 842,-105 756.52,-97.95 657.91,-86.26 596.75,-78.59"/>
<polygon fill="#63b8ff" stroke="#63b8ff" points="1131.69,-125.12 1141.82,-122.01 1131.97,-118.12 1131.69,-125.12"/>
</a>
</g>
</g>
<!-- Node21 -->
<g id="Node000021" class="node">
<title>Node21</title>
<g id="a_Node000021"><a xlink:href="classexpress_1_1Response.html#a6da531370bf0e26c31d44e9831a896d2" target="_top" xlink:title=" ">
<polygon fill="white" stroke="#666666" points="1106,-96 992,-96 992,-66 1106,-66 1106,-96"/>
<text text-anchor="start" x="1000" y="-84" font-family="Helvetica,sans-Serif" font-size="10.00">express::Response::</text>
<text text-anchor="middle" x="1049" y="-73" font-family="Helvetica,sans-Serif" font-size="10.00">redirect</text>
</a>
</g>
</g>
<!-- Node2&#45;&gt;Node21 -->
<g id="edge21_Node000002_Node000021" class="edge">
<title>Node2&#45;&gt;Node21</title>
<g id="a_edge21_Node000002_Node000021"><a xlink:title=" ">
<path fill="none" stroke="#63b8ff" d="M1136.62,-106.17C1125.02,-102.8 1113,-99.3 1101.73,-96.03"/>
<polygon fill="#63b8ff" stroke="#63b8ff" points="1135.66,-109.53 1146.24,-108.96 1137.61,-102.81 1135.66,-109.53"/>
</a>
</g>
</g>
<!-- Node4 -->
<g id="Node000004" class="node">
<title>Node4</title>
<g id="a_Node000004"><a xlink:href="classexpress_1_1middleware_1_1BasicAuthentication.html#a8cd93f5ab0744e5deae89aac3709ee42" target="_top" xlink:title=" ">
<polygon fill="white" stroke="#666666" points="373,-182.5 253,-182.5 253,-141.5 373,-141.5 373,-182.5"/>
<text text-anchor="start" x="261" y="-170.5" font-family="Helvetica,sans-Serif" font-size="10.00">express::middleware</text>
<text text-anchor="start" x="261" y="-159.5" font-family="Helvetica,sans-Serif" font-size="10.00">::BasicAuthentication</text>
<text text-anchor="middle" x="313" y="-148.5" font-family="Helvetica,sans-Serif" font-size="10.00">::instance</text>
</a>
</g>
</g>
<!-- Node3&#45;&gt;Node4 -->
<g id="edge3_Node000003_Node000004" class="edge">
<title>Node3&#45;&gt;Node4</title>
<g id="a_edge3_Node000003_Node000004"><a xlink:title=" ">
<path fill="none" stroke="#63b8ff" d="M466.41,-162C436.43,-162 401.74,-162 373.04,-162"/>
<polygon fill="#63b8ff" stroke="#63b8ff" points="466.8,-165.5 476.8,-162 466.8,-158.5 466.8,-165.5"/>
</a>
</g>
</g>
<!-- Node5 -->
<g id="Node000005" class="node">
<title>Node5</title>
<g id="a_Node000005"><a xlink:href="classexpress_1_1middleware_1_1BasicAuthentication.html#a461f08f2de85ee8ddb1afb72db149028" target="_top" xlink:title=" ">
<polygon fill="white" stroke="#666666" points="151.5,-182.5 31.5,-182.5 31.5,-141.5 151.5,-141.5 151.5,-182.5"/>
<text text-anchor="start" x="39.5" y="-170.5" font-family="Helvetica,sans-Serif" font-size="10.00">express::middleware</text>
<text text-anchor="start" x="39.5" y="-159.5" font-family="Helvetica,sans-Serif" font-size="10.00">::BasicAuthentication</text>
<text text-anchor="middle" x="91.5" y="-148.5" font-family="Helvetica,sans-Serif" font-size="10.00">::BasicAuthentication</text>
</a>
</g>
</g>
<!-- Node4&#45;&gt;Node5 -->
<g id="edge4_Node000004_Node000005" class="edge">
<title>Node4&#45;&gt;Node5</title>
<g id="a_edge4_Node000004_Node000005"><a xlink:title=" ">
<path fill="none" stroke="#63b8ff" d="M242.75,-162C213.5,-162 179.79,-162 151.72,-162"/>
<polygon fill="#63b8ff" stroke="#63b8ff" points="242.89,-165.5 252.89,-162 242.89,-158.5 242.89,-165.5"/>
</a>
</g>
</g>
<!-- Node7 -->
<g id="Node000007" class="node">
<title>Node7</title>
<g id="a_Node000007"><a xlink:href="classexpress_1_1RootRoute.html#a1c2da19981989c227a16b6054be19262" target="_top" xlink:title=" ">
<polygon fill="white" stroke="#666666" points="955,-220 843,-220 843,-190 955,-190 955,-220"/>
<text text-anchor="start" x="851" y="-208" font-family="Helvetica,sans-Serif" font-size="10.00">express::RootRoute</text>
<text text-anchor="middle" x="899" y="-197" font-family="Helvetica,sans-Serif" font-size="10.00">::dispatch</text>
</a>
</g>
</g>
<!-- Node6&#45;&gt;Node7 -->
<g id="edge6_Node000006_Node000007" class="edge">
<title>Node6&#45;&gt;Node7</title>
<g id="a_edge6_Node000006_Node000007"><a xlink:title=" ">
<path fill="none" stroke="#63b8ff" d="M982.64,-205C973.47,-205 964.11,-205 955.16,-205"/>
<polygon fill="#63b8ff" stroke="#63b8ff" points="982.89,-208.5 992.89,-205 982.89,-201.5 982.89,-208.5"/>
</a>
</g>
</g>
<!-- Node8 -->
<g id="Node000008" class="node">
<title>Node8</title>
<g id="a_Node000008"><a xlink:href="classexpress_1_1Controller.html#a37349835c6e195cd3b2f264cfcf97fae" target="_top" xlink:title=" ">
<polygon fill="white" stroke="#666666" points="953.5,-268 844.5,-268 844.5,-238 953.5,-238 953.5,-268"/>
<text text-anchor="start" x="852.5" y="-256" font-family="Helvetica,sans-Serif" font-size="10.00">express::Controller</text>
<text text-anchor="middle" x="899" y="-245" font-family="Helvetica,sans-Serif" font-size="10.00">::next</text>
</a>
</g>
</g>
<!-- Node6&#45;&gt;Node8 -->
<g id="edge7_Node000006_Node000008" class="edge">
<title>Node6&#45;&gt;Node8</title>
<g id="a_edge7_Node000006_Node000008"><a xlink:title=" ">
<path fill="none" stroke="#63b8ff" d="M991.87,-223.21C976.81,-228.09 960.71,-233.31 946.26,-238"/>
<polygon fill="#63b8ff" stroke="#63b8ff" points="993.15,-226.47 1001.58,-220.06 990.99,-219.81 993.15,-226.47"/>
</a>
</g>
</g>
<!-- Node9 -->
<g id="Node000009" class="node">
<title>Node9</title>
<g id="a_Node000009"><a xlink:href="classexpress_1_1Next.html#a3e14e0e46359f80dac195ec6e57eaf5d" target="_top" xlink:title=" ">
<polygon fill="white" stroke="#666666" points="806,-243.5 667,-243.5 667,-224.5 806,-224.5 806,-243.5"/>
<text text-anchor="middle" x="736.5" y="-231.5" font-family="Helvetica,sans-Serif" font-size="10.00">express::Next::operator()</text>
</a>
</g>
</g>
<!-- Node8&#45;&gt;Node9 -->
<g id="edge8_Node000008_Node000009" class="edge">
<title>Node8&#45;&gt;Node9</title>
<g id="a_edge8_Node000008_Node000009"><a xlink:title=" ">
<path fill="none" stroke="#63b8ff" d="M833.92,-245.41C824.76,-244.33 815.31,-243.21 806.07,-242.12"/>
<polygon fill="#63b8ff" stroke="#63b8ff" points="833.77,-248.92 844.11,-246.62 834.59,-241.97 833.77,-248.92"/>
</a>
</g>
</g>
<!-- Node9&#45;&gt;Node3 -->
<g id="edge9_Node000009_Node000003" class="edge">
<title>Node9&#45;&gt;Node3</title>
<g id="a_edge9_Node000009_Node000003"><a xlink:title=" ">
<path fill="none" stroke="#63b8ff" d="M703.34,-220.4C682.79,-211.87 655.49,-200.86 631,-192 620.15,-188.08 608.5,-184.12 597.25,-180.43"/>
<polygon fill="#63b8ff" stroke="#63b8ff" points="702.27,-223.74 712.85,-224.36 704.96,-217.28 702.27,-223.74"/>
</a>
</g>
</g>
<!-- Node10 -->
<g id="Node000010" class="node">
<title>Node10</title>
<g id="a_Node000010"><a xlink:href="classexpress_1_1middleware_1_1JsonMiddleware.html#a0f90276c1100e22d2114306b23b95991" target="_top" xlink:title=" ">
<polygon fill="white" stroke="#666666" points="628.5,-231 445.5,-231 445.5,-201 628.5,-201 628.5,-231"/>
<text text-anchor="start" x="453.5" y="-219" font-family="Helvetica,sans-Serif" font-size="10.00">express::middleware</text>
<text text-anchor="middle" x="537" y="-208" font-family="Helvetica,sans-Serif" font-size="10.00">::JsonMiddleware::JsonMiddleware</text>
</a>
</g>
</g>
<!-- Node9&#45;&gt;Node10 -->
<g id="edge10_Node000009_Node000010" class="edge">
<title>Node9&#45;&gt;Node10</title>
<g id="a_edge10_Node000009_Node000010"><a xlink:title=" ">
<path fill="none" stroke="#63b8ff" d="M656.99,-226.84C647.68,-226 638.12,-225.13 628.66,-224.26"/>
<polygon fill="#63b8ff" stroke="#63b8ff" points="656.7,-230.33 666.98,-227.75 657.34,-223.36 656.7,-230.33"/>
</a>
</g>
</g>
<!-- Node9&#45;&gt;Node13 -->
<g id="edge13_Node000009_Node000013" class="edge">
<title>Node9&#45;&gt;Node13</title>
<g id="a_edge13_Node000009_Node000013"><a xlink:title=" ">
<path fill="none" stroke="#63b8ff" d="M719.86,-216.81C700.18,-195.66 664.85,-159.2 631,-132 612.64,-117.24 590.65,-102.7 572.67,-91.51"/>
<polygon fill="#63b8ff" stroke="#63b8ff" points="717.47,-219.39 726.83,-224.37 722.62,-214.65 717.47,-219.39"/>
</a>
</g>
</g>
<!-- Node16 -->
<g id="Node000016" class="node">
<title>Node16</title>
<g id="a_Node000016"><a xlink:href="classexpress_1_1middleware_1_1VerboseRequest.html#a80c248c1ee14bcc6068fc21a08d9f562" target="_top" xlink:title=" ">
<polygon fill="white" stroke="#666666" points="631,-327 443,-327 443,-297 631,-297 631,-327"/>
<text text-anchor="start" x="451" y="-315" font-family="Helvetica,sans-Serif" font-size="10.00">express::middleware</text>
<text text-anchor="middle" x="537" y="-304" font-family="Helvetica,sans-Serif" font-size="10.00">::VerboseRequest::VerboseRequest</text>
</a>
</g>
</g>
<!-- Node9&#45;&gt;Node16 -->
<g id="edge16_Node000009_Node000016" class="edge">
<title>Node9&#45;&gt;Node16</title>
<g id="a_edge16_Node000009_Node000016"><a xlink:title=" ">
<path fill="none" stroke="#63b8ff" d="M710.96,-248.69C690.23,-260.6 659.46,-277.13 631,-288 622.43,-291.27 613.25,-294.25 604.12,-296.9"/>
<polygon fill="#63b8ff" stroke="#63b8ff" points="712.85,-251.64 719.73,-243.58 709.33,-245.59 712.85,-251.64"/>
</a>
</g>
</g>
<!-- Node18 -->
<g id="Node000018" class="node">
<title>Node18</title>
<g id="a_Node000018"><a xlink:href="classexpress_1_1middleware_1_1VHost.html#ab60d9df1ad85a8ee414c111135e250b1" target="_top" xlink:title=" ">
<polygon fill="white" stroke="#666666" points="596.5,-279 477.5,-279 477.5,-249 596.5,-249 596.5,-279"/>
<text text-anchor="start" x="485.5" y="-267" font-family="Helvetica,sans-Serif" font-size="10.00">express::middleware</text>
<text text-anchor="middle" x="537" y="-256" font-family="Helvetica,sans-Serif" font-size="10.00">::VHost::VHost</text>
</a>
</g>
</g>
<!-- Node9&#45;&gt;Node18 -->
<g id="edge18_Node000009_Node000018" class="edge">
<title>Node9&#45;&gt;Node18</title>
<g id="a_edge18_Node000009_Node000018"><a xlink:title=" ">
<path fill="none" stroke="#63b8ff" d="M662.56,-245.08C640.81,-248.38 617.27,-251.96 596.57,-255.1"/>
<polygon fill="#63b8ff" stroke="#63b8ff" points="663.38,-248.5 672.74,-243.53 662.33,-241.57 663.38,-248.5"/>
</a>
</g>
</g>
<!-- Node11 -->
<g id="Node000011" class="node">
<title>Node11</title>
<g id="a_Node000011"><a xlink:href="classexpress_1_1middleware_1_1JsonMiddleware.html#ae20c47bf2107ee7b8a8190d3a3439b1a" target="_top" xlink:title=" ">
<polygon fill="white" stroke="#666666" points="386.5,-231 239.5,-231 239.5,-201 386.5,-201 386.5,-231"/>
<text text-anchor="start" x="247.5" y="-219" font-family="Helvetica,sans-Serif" font-size="10.00">express::middleware</text>
<text text-anchor="middle" x="313" y="-208" font-family="Helvetica,sans-Serif" font-size="10.00">::JsonMiddleware::instance</text>
</a>
</g>
</g>
<!-- Node10&#45;&gt;Node11 -->
<g id="edge11_Node000010_Node000011" class="edge">
<title>Node10&#45;&gt;Node11</title>
<g id="a_edge11_Node000010_Node000011"><a xlink:title=" ">
<path fill="none" stroke="#63b8ff" d="M435.24,-216C418.87,-216 402.2,-216 386.67,-216"/>
<polygon fill="#63b8ff" stroke="#63b8ff" points="435.38,-219.5 445.38,-216 435.38,-212.5 435.38,-219.5"/>
</a>
</g>
</g>
<!-- Node12 -->
<g id="Node000012" class="node">
<title>Node12</title>
<g id="a_Node000012"><a xlink:href="classexpress_1_1middleware_1_1JsonMiddleware.html#a50b23edc44a7ae19b857efe7fbb3495f" target="_top" xlink:title=" ">
<polygon fill="white" stroke="#666666" points="183,-231 0,-231 0,-201 183,-201 183,-231"/>
<text text-anchor="start" x="8" y="-219" font-family="Helvetica,sans-Serif" font-size="10.00">express::middleware</text>
<text text-anchor="middle" x="91.5" y="-208" font-family="Helvetica,sans-Serif" font-size="10.00">::JsonMiddleware::JsonMiddleware</text>
</a>
</g>
</g>
<!-- Node11&#45;&gt;Node12 -->
<g id="edge12_Node000011_Node000012" class="edge">
<title>Node11&#45;&gt;Node12</title>
<g id="a_edge12_Node000011_Node000012"><a xlink:title=" ">
<path fill="none" stroke="#63b8ff" d="M228.96,-216C213.97,-216 198.27,-216 183.08,-216"/>
<polygon fill="#63b8ff" stroke="#63b8ff" points="229.21,-219.5 239.21,-216 229.21,-212.5 229.21,-219.5"/>
</a>
</g>
</g>
<!-- Node14 -->
<g id="Node000014" class="node">
<title>Node14</title>
<g id="a_Node000014"><a xlink:href="classexpress_1_1middleware_1_1StaticMiddleware.html#abf7aad109677706e3b41004be8ac2f53" target="_top" xlink:title=" ">
<polygon fill="white" stroke="#666666" points="372.5,-91.5 253.5,-91.5 253.5,-50.5 372.5,-50.5 372.5,-91.5"/>
<text text-anchor="start" x="261.5" y="-79.5" font-family="Helvetica,sans-Serif" font-size="10.00">express::middleware</text>
<text text-anchor="start" x="261.5" y="-68.5" font-family="Helvetica,sans-Serif" font-size="10.00">::StaticMiddleware::</text>
<text text-anchor="middle" x="313" y="-57.5" font-family="Helvetica,sans-Serif" font-size="10.00">instance</text>
</a>
</g>
</g>
<!-- Node13&#45;&gt;Node14 -->
<g id="edge14_Node000013_Node000014" class="edge">
<title>Node13&#45;&gt;Node14</title>
<g id="a_edge14_Node000013_Node000014"><a xlink:title=" ">
<path fill="none" stroke="#63b8ff" d="M467.3,-71C436.95,-71 401.64,-71 372.56,-71"/>
<polygon fill="#63b8ff" stroke="#63b8ff" points="467.38,-74.5 477.38,-71 467.38,-67.5 467.38,-74.5"/>
</a>
</g>
</g>
<!-- Node15 -->
<g id="Node000015" class="node">
<title>Node15</title>
<g id="a_Node000015"><a xlink:href="classexpress_1_1middleware_1_1StaticMiddleware.html#a91cf7d4b266c87b5feb7267c12db535b" target="_top" xlink:title=" ">
<polygon fill="white" stroke="#666666" points="151,-91.5 32,-91.5 32,-50.5 151,-50.5 151,-91.5"/>
<text text-anchor="start" x="40" y="-79.5" font-family="Helvetica,sans-Serif" font-size="10.00">express::middleware</text>
<text text-anchor="start" x="40" y="-68.5" font-family="Helvetica,sans-Serif" font-size="10.00">::StaticMiddleware::</text>
<text text-anchor="middle" x="91.5" y="-57.5" font-family="Helvetica,sans-Serif" font-size="10.00">StaticMiddleware</text>
</a>
</g>
</g>
<!-- Node14&#45;&gt;Node15 -->
<g id="edge15_Node000014_Node000015" class="edge">
<title>Node14&#45;&gt;Node15</title>
<g id="a_edge15_Node000014_Node000015"><a xlink:title=" ">
<path fill="none" stroke="#63b8ff" d="M243.23,-71C213.71,-71 179.57,-71 151.25,-71"/>
<polygon fill="#63b8ff" stroke="#63b8ff" points="243.47,-74.5 253.47,-71 243.47,-67.5 243.47,-74.5"/>
</a>
</g>
</g>
<!-- Node17 -->
<g id="Node000017" class="node">
<title>Node17</title>
<g id="a_Node000017"><a xlink:href="classexpress_1_1middleware_1_1VerboseRequest.html#a545ed22b9d5d978a745b06a25533e544" target="_top" xlink:title=" ">
<polygon fill="white" stroke="#666666" points="407,-327 219,-327 219,-297 407,-297 407,-327"/>
<text text-anchor="start" x="227" y="-315" font-family="Helvetica,sans-Serif" font-size="10.00">express::middleware</text>
<text text-anchor="middle" x="313" y="-304" font-family="Helvetica,sans-Serif" font-size="10.00">::VerboseRequest::VerboseRequest</text>
</a>
</g>
</g>
<!-- Node16&#45;&gt;Node17 -->
<g id="edge17_Node000016_Node000017" class="edge">
<title>Node16&#45;&gt;Node17</title>
<g id="a_edge17_Node000016_Node000017"><a xlink:title=" ">
<path fill="none" stroke="#63b8ff" d="M432.57,-312C424.14,-312 415.65,-312 407.3,-312"/>
<polygon fill="#63b8ff" stroke="#63b8ff" points="432.82,-315.5 442.82,-312 432.82,-308.5 432.82,-315.5"/>
</a>
</g>
</g>
<!-- Node19 -->
<g id="Node000019" class="node">
<title>Node19</title>
<g id="a_Node000019"><a xlink:href="classexpress_1_1middleware_1_1VHost.html#aedfd77e91aabab72a4b6bf19c9047876" target="_top" xlink:title=" ">
<polygon fill="white" stroke="#666666" points="372.5,-279 253.5,-279 253.5,-249 372.5,-249 372.5,-279"/>
<text text-anchor="start" x="261.5" y="-267" font-family="Helvetica,sans-Serif" font-size="10.00">express::middleware</text>
<text text-anchor="middle" x="313" y="-256" font-family="Helvetica,sans-Serif" font-size="10.00">::VHost::instance</text>
</a>
</g>
</g>
<!-- Node18&#45;&gt;Node19 -->
<g id="edge19_Node000018_Node000019" class="edge">
<title>Node18&#45;&gt;Node19</title>
<g id="a_edge19_Node000018_Node000019"><a xlink:title=" ">
<path fill="none" stroke="#63b8ff" d="M467.3,-264C436.95,-264 401.64,-264 372.56,-264"/>
<polygon fill="#63b8ff" stroke="#63b8ff" points="467.38,-267.5 477.38,-264 467.38,-260.5 467.38,-267.5"/>
</a>
</g>
</g>
<!-- Node20 -->
<g id="Node000020" class="node">
<title>Node20</title>
<g id="a_Node000020"><a xlink:href="classexpress_1_1middleware_1_1VHost.html#a0c0c8ae51cc23dc35d0444d98dfd41a8" target="_top" xlink:title=" ">
<polygon fill="white" stroke="#666666" points="151,-279 32,-279 32,-249 151,-249 151,-279"/>
<text text-anchor="start" x="40" y="-267" font-family="Helvetica,sans-Serif" font-size="10.00">express::middleware</text>
<text text-anchor="middle" x="91.5" y="-256" font-family="Helvetica,sans-Serif" font-size="10.00">::VHost::VHost</text>
</a>
</g>
</g>
<!-- Node19&#45;&gt;Node20 -->
<g id="edge20_Node000019_Node000020" class="edge">
<title>Node19&#45;&gt;Node20</title>
<g id="a_edge20_Node000019_Node000020"><a xlink:title=" ">
<path fill="none" stroke="#63b8ff" d="M243.23,-264C213.71,-264 179.57,-264 151.25,-264"/>
<polygon fill="#63b8ff" stroke="#63b8ff" points="243.47,-267.5 253.47,-264 243.47,-260.5 243.47,-267.5"/>
</a>
</g>
</g>
<!-- Node21&#45;&gt;Node13 -->
<g id="edge23_Node000021_Node000013" class="edge">
<title>Node21&#45;&gt;Node13</title>
<g id="a_edge23_Node000021_Node000013"><a xlink:title=" ">
<path fill="none" stroke="#63b8ff" d="M989.73,-63.42C978.63,-60.75 967.03,-58.42 956,-57 828.7,-40.67 677.93,-53.56 596.78,-63.11"/>
<polygon fill="#63b8ff" stroke="#63b8ff" points="989.2,-66.89 999.75,-65.95 990.91,-60.11 989.2,-66.89"/>
</a>
</g>
</g>
<!-- Node22 -->
<g id="Node000022" class="node">
<title>Node22</title>
<g id="a_Node000022"><a xlink:href="classexpress_1_1Response.html#a342af4dc0b35ca124c9980be2cdc2b11" target="_top" xlink:title=" ">
<polygon fill="white" stroke="#666666" points="956,-96 842,-96 842,-66 956,-66 956,-96"/>
<text text-anchor="start" x="850" y="-84" font-family="Helvetica,sans-Serif" font-size="10.00">express::Response::</text>
<text text-anchor="middle" x="899" y="-73" font-family="Helvetica,sans-Serif" font-size="10.00">redirect</text>
</a>
</g>
</g>
<!-- Node21&#45;&gt;Node22 -->
<g id="edge22_Node000021_Node000022" class="edge">
<title>Node21&#45;&gt;Node22</title>
<g id="a_edge22_Node000021_Node000022"><a xlink:title=" ">
<path fill="none" stroke="#63b8ff" d="M981.44,-81C973.02,-81 964.46,-81 956.22,-81"/>
<polygon fill="#63b8ff" stroke="#63b8ff" points="981.63,-84.5 991.63,-81 981.63,-77.5 981.63,-84.5"/>
</a>
</g>
</g>
</g>
</svg>
