<?xml version="1.0" encoding="UTF-8" standalone="no"?>
<!DOCTYPE svg PUBLIC "-//W3C//DTD SVG 1.1//EN"
 "http://www.w3.org/Graphics/SVG/1.1/DTD/svg11.dtd">
<!-- Generated by graphviz version 2.43.0 (0)
 -->
<!-- Title: net::rc::SocketAddress::channel Pages: 1 -->
<svg width="490pt" height="205pt"
 viewBox="0.00 0.00 490.00 205.00" xmlns="http://www.w3.org/2000/svg" xmlns:xlink="http://www.w3.org/1999/xlink">
<g id="graph0" class="graph" transform="scale(1 1) rotate(0) translate(4 201)">
<title>net::rc::SocketAddress::channel</title>
<!-- Node1 -->
<g id="Node000001" class="node">
<title>Node1</title>
<g id="a_Node000001"><a xlink:title=" ">
<polygon fill="#999999" stroke="#666666" points="482,-121 357,-121 357,-91 482,-91 482,-121"/>
<text text-anchor="start" x="365" y="-109" font-family="Helvetica,sans-Serif" font-size="10.00">net::rc::SocketAddress</text>
<text text-anchor="middle" x="419.5" y="-98" font-family="Helvetica,sans-Serif" font-size="10.00">::channel</text>
</a>
</g>
</g>
<!-- Node2 -->
<g id="Node000002" class="node">
<title>Node2</title>
<g id="a_Node000002"><a xlink:href="classnet_1_1rc_1_1SocketAddress.html#a883dc3afe86fc63787455b721d07899e" target="_top" xlink:title=" ">
<polygon fill="white" stroke="#666666" points="303.5,-164 178.5,-164 178.5,-134 303.5,-134 303.5,-164"/>
<text text-anchor="start" x="186.5" y="-152" font-family="Helvetica,sans-Serif" font-size="10.00">net::rc::SocketAddress</text>
<text text-anchor="middle" x="241" y="-141" font-family="Helvetica,sans-Serif" font-size="10.00">::setChannel</text>
</a>
</g>
</g>
<!-- Node1&#45;&gt;Node2 -->
<g id="edge1_Node000001_Node000002" class="edge">
<title>Node1&#45;&gt;Node2</title>
<g id="a_edge1_Node000001_Node000002"><a xlink:title=" ">
<path fill="none" stroke="#63b8ff" d="M346.96,-123.43C332.62,-126.92 317.67,-130.57 303.7,-133.97"/>
<polygon fill="#63b8ff" stroke="#63b8ff" points="347.88,-126.81 356.77,-121.04 346.22,-120.01 347.88,-126.81"/>
</a>
</g>
</g>
<!-- Node3 -->
<g id="Node000003" class="node">
<title>Node3</title>
<g id="a_Node000003"><a xlink:href="classnet_1_1rc_1_1SocketAddress.html#a4b5bf908d8cf00162d68918357184a66" target="_top" xlink:title=" ">
<polygon fill="white" stroke="#666666" points="125,-197 0,-197 0,-167 125,-167 125,-197"/>
<text text-anchor="start" x="8" y="-185" font-family="Helvetica,sans-Serif" font-size="10.00">net::rc::SocketAddress</text>
<text text-anchor="middle" x="62.5" y="-174" font-family="Helvetica,sans-Serif" font-size="10.00">::SocketAddress</text>
</a>
</g>
</g>
<!-- Node1&#45;&gt;Node3 -->
<g id="edge5_Node000001_Node000003" class="edge">
<title>Node1&#45;&gt;Node3</title>
<g id="a_edge5_Node000001_Node000003"><a xlink:title=" ">
<path fill="none" stroke="#63b8ff" d="M395.2,-127.74C376.65,-143.53 349.21,-163.7 321,-173 256.64,-194.22 178.27,-193.48 125.02,-189.33"/>
<polygon fill="#63b8ff" stroke="#63b8ff" points="397.61,-130.28 402.83,-121.06 393,-125.02 397.61,-130.28"/>
</a>
</g>
</g>
<!-- Node4 -->
<g id="Node000004" class="node">
<title>Node4</title>
<g id="a_Node000004"><a xlink:href="classnet_1_1rc_1_1SocketAddress.html#ae1ebf22215c7b69e0fd9b60a35ae3c17" target="_top" xlink:title=" ">
<polygon fill="white" stroke="#666666" points="125,-140 0,-140 0,-110 125,-110 125,-140"/>
<text text-anchor="start" x="8" y="-128" font-family="Helvetica,sans-Serif" font-size="10.00">net::rc::SocketAddress</text>
<text text-anchor="middle" x="62.5" y="-117" font-family="Helvetica,sans-Serif" font-size="10.00">::SocketAddress</text>
</a>
</g>
</g>
<!-- Node1&#45;&gt;Node4 -->
<g id="edge6_Node000001_Node000004" class="edge">
<title>Node1&#45;&gt;Node4</title>
<g id="a_edge6_Node000001_Node000004"><a xlink:title=" ">
<path fill="none" stroke="#63b8ff" d="M346.49,-109.85C281.48,-113.33 186.84,-118.4 125.22,-121.7"/>
<polygon fill="#63b8ff" stroke="#63b8ff" points="346.87,-113.34 356.66,-109.31 346.49,-106.35 346.87,-113.34"/>
</a>
</g>
</g>
<!-- Node5 -->
<g id="Node000005" class="node">
<title>Node5</title>
<g id="a_Node000005"><a xlink:href="classnet_1_1rc_1_1config_1_1ConfigAddress.html#a640280d04897d46c2089b49374a09b7d" target="_top" xlink:title=" ">
<polygon fill="white" stroke="#666666" points="321,-78 161,-78 161,-48 321,-48 321,-78"/>
<text text-anchor="start" x="169" y="-66" font-family="Helvetica,sans-Serif" font-size="10.00">net::rc::config::ConfigAddress</text>
<text text-anchor="middle" x="241" y="-55" font-family="Helvetica,sans-Serif" font-size="10.00">::setSocketAddress</text>
</a>
</g>
</g>
<!-- Node1&#45;&gt;Node5 -->
<g id="edge4_Node000001_Node000005" class="edge">
<title>Node1&#45;&gt;Node5</title>
<g id="a_edge4_Node000001_Node000005"><a xlink:title=" ">
<path fill="none" stroke="#63b8ff" d="M346.96,-88.57C332.62,-85.08 317.67,-81.43 303.7,-78.03"/>
<polygon fill="#63b8ff" stroke="#63b8ff" points="346.22,-91.99 356.77,-90.96 347.88,-85.19 346.22,-91.99"/>
</a>
</g>
</g>
<!-- Node6 -->
<g id="Node000006" class="node">
<title>Node6</title>
<g id="a_Node000006"><a xlink:href="classnet_1_1rc_1_1SocketAddress.html#ac1dcea17b72045db2c3e5ca1623d9a72" target="_top" xlink:title=" ">
<polygon fill="white" stroke="#666666" points="303.5,-30 178.5,-30 178.5,0 303.5,0 303.5,-30"/>
<text text-anchor="start" x="186.5" y="-18" font-family="Helvetica,sans-Serif" font-size="10.00">net::rc::SocketAddress</text>
<text text-anchor="middle" x="241" y="-7" font-family="Helvetica,sans-Serif" font-size="10.00">::toString</text>
</a>
</g>
</g>
<!-- Node1&#45;&gt;Node6 -->
<g id="edge7_Node000001_Node000006" class="edge">
<title>Node1&#45;&gt;Node6</title>
<g id="a_edge7_Node000001_Node000006"><a xlink:title=" ">
<path fill="none" stroke="#63b8ff" d="M392.04,-84.49C373.16,-70 346.68,-51.36 321,-39 314.15,-35.71 306.76,-32.75 299.33,-30.13"/>
<polygon fill="#63b8ff" stroke="#63b8ff" points="390.11,-87.42 400.14,-90.81 394.41,-81.9 390.11,-87.42"/>
</a>
</g>
</g>
<!-- Node2&#45;&gt;Node3 -->
<g id="edge2_Node000002_Node000003" class="edge">
<title>Node2&#45;&gt;Node3</title>
<g id="a_edge2_Node000002_Node000003"><a xlink:title=" ">
<path fill="none" stroke="#63b8ff" d="M168.04,-162.45C153.83,-165.11 139.03,-167.88 125.2,-170.46"/>
<polygon fill="#63b8ff" stroke="#63b8ff" points="169.08,-165.82 178.27,-160.54 167.8,-158.94 169.08,-165.82"/>
</a>
</g>
</g>
<!-- Node2&#45;&gt;Node4 -->
<g id="edge3_Node000002_Node000004" class="edge">
<title>Node2&#45;&gt;Node4</title>
<g id="a_edge3_Node000002_Node000004"><a xlink:title=" ">
<path fill="none" stroke="#63b8ff" d="M168.04,-139.22C153.83,-137.28 139.03,-135.27 125.2,-133.39"/>
<polygon fill="#63b8ff" stroke="#63b8ff" points="167.89,-142.73 178.27,-140.61 168.83,-135.79 167.89,-142.73"/>
</a>
</g>
</g>
</g>
</svg>
