<?xml version="1.0" encoding="UTF-8" standalone="no"?>
<!DOCTYPE svg PUBLIC "-//W3C//DTD SVG 1.1//EN"
 "http://www.w3.org/Graphics/SVG/1.1/DTD/svg11.dtd">
<!-- Generated by graphviz version 14.1.2 (0)
 -->
<!-- Title: net::config::ConfigPhysicalSocketClient Pages: 1 -->
<svg width="1590pt" height="440pt"
 viewBox="0.00 0.00 1590.00 440.00" xmlns="http://www.w3.org/2000/svg" xmlns:xlink="http://www.w3.org/1999/xlink">
<g id="graph0" class="graph" transform="scale(1 1) rotate(0) translate(4 436)">
<title>net::config::ConfigPhysicalSocketClient</title>
<!-- Node1 -->
<g id="Node000001" class="node">
<title>Node1</title>
<g id="a_Node000001"><a xlink:title=" ">
<polygon fill="#999999" stroke="none" points="956,-362.5 818.25,-362.5 818.25,-329 956,-329 956,-362.5"/>
<text xml:space="preserve" text-anchor="start" x="822.25" y="-349" font-family="Helvetica,sans-Serif" font-size="10.00">net::config::ConfigPhysical</text>
<text xml:space="preserve" text-anchor="start" x="856.75" y="-336.25" font-family="Helvetica,sans-Serif" font-size="10.00">SocketClient</text>
<polygon fill="none" stroke="#666666" points="818.25,-329 818.25,-362.5 956,-362.5 956,-329 818.25,-329"/>
</a>
</g>
</g>
<!-- Node4 -->
<g id="Node000004" class="node">
<title>Node4</title>
<g id="a_Node000004"><a xlink:href="classnet_1_1config_1_1stream_1_1ConfigSocketClient.html" target="_top" xlink:title=" ">
<polygon fill="white" stroke="none" points="384,-286.62 204.25,-286.62 204.25,-240.38 384,-240.38 384,-286.62"/>
<text xml:space="preserve" text-anchor="start" x="208.25" y="-273.12" font-family="Helvetica,sans-Serif" font-size="10.00">net::config::stream</text>
<text xml:space="preserve" text-anchor="start" x="208.25" y="-260.38" font-family="Helvetica,sans-Serif" font-size="10.00">::ConfigSocketClient</text>
<text xml:space="preserve" text-anchor="start" x="208.25" y="-247.62" font-family="Helvetica,sans-Serif" font-size="10.00">&lt; net::in6::config::ConfigAddress &gt;</text>
<polygon fill="none" stroke="#666666" points="204.25,-240.38 204.25,-286.62 384,-286.62 384,-240.38 204.25,-240.38"/>
</a>
</g>
</g>
<!-- Node1&#45;&gt;Node4 -->
<g id="edge3_Node000001_Node000004" class="edge">
<title>Node1&#45;&gt;Node4</title>
<g id="a_edge3_Node000001_Node000004"><a xlink:title=" ">
<path fill="none" stroke="#63b8ff" d="M807.19,-335.25C724.87,-325.32 592.91,-308.98 479.12,-293 448.07,-288.64 414.14,-283.52 383.92,-278.83"/>
<polygon fill="none" stroke="#63b8ff" points="806.62,-338.71 816.97,-336.43 807.46,-331.76 806.62,-338.71"/>
</a>
</g>
</g>
<!-- Node10 -->
<g id="Node000010" class="node">
<title>Node10</title>
<g id="a_Node000010"><a xlink:href="classnet_1_1config_1_1stream_1_1ConfigSocketClient.html" target="_top" xlink:title=" ">
<polygon fill="white" stroke="none" points="662,-286.62 488.25,-286.62 488.25,-240.38 662,-240.38 662,-286.62"/>
<text xml:space="preserve" text-anchor="start" x="492.25" y="-273.12" font-family="Helvetica,sans-Serif" font-size="10.00">net::config::stream</text>
<text xml:space="preserve" text-anchor="start" x="492.25" y="-260.38" font-family="Helvetica,sans-Serif" font-size="10.00">::ConfigSocketClient</text>
<text xml:space="preserve" text-anchor="start" x="492.25" y="-247.62" font-family="Helvetica,sans-Serif" font-size="10.00">&lt; net::in::config::ConfigAddress &gt;</text>
<polygon fill="none" stroke="#666666" points="488.25,-240.38 488.25,-286.62 662,-286.62 662,-240.38 488.25,-240.38"/>
</a>
</g>
</g>
<!-- Node1&#45;&gt;Node10 -->
<g id="edge9_Node000001_Node000010" class="edge">
<title>Node1&#45;&gt;Node10</title>
<g id="a_edge9_Node000001_Node000010"><a xlink:title=" ">
<path fill="none" stroke="#63b8ff" d="M815.16,-326.24C769.2,-314.42 709.38,-299.03 660.95,-286.58"/>
<polygon fill="none" stroke="#63b8ff" points="814.21,-329.61 824.76,-328.71 815.95,-322.83 814.21,-329.61"/>
</a>
</g>
</g>
<!-- Node16 -->
<g id="Node000016" class="node">
<title>Node16</title>
<g id="a_Node000016"><a xlink:href="classnet_1_1config_1_1stream_1_1ConfigSocketClient.html" target="_top" xlink:title=" ">
<polygon fill="white" stroke="none" points="878,-286.62 704.25,-286.62 704.25,-240.38 878,-240.38 878,-286.62"/>
<text xml:space="preserve" text-anchor="start" x="708.25" y="-273.12" font-family="Helvetica,sans-Serif" font-size="10.00">net::config::stream</text>
<text xml:space="preserve" text-anchor="start" x="708.25" y="-260.38" font-family="Helvetica,sans-Serif" font-size="10.00">::ConfigSocketClient</text>
<text xml:space="preserve" text-anchor="start" x="708.25" y="-247.62" font-family="Helvetica,sans-Serif" font-size="10.00">&lt; net::l2::config::ConfigAddress &gt;</text>
<polygon fill="none" stroke="#666666" points="704.25,-240.38 704.25,-286.62 878,-286.62 878,-240.38 704.25,-240.38"/>
</a>
</g>
</g>
<!-- Node1&#45;&gt;Node16 -->
<g id="edge15_Node000001_Node000016" class="edge">
<title>Node1&#45;&gt;Node16</title>
<g id="a_edge15_Node000001_Node000016"><a xlink:title=" ">
<path fill="none" stroke="#63b8ff" d="M859.91,-322C846.64,-310.9 830.73,-297.61 817.56,-286.6"/>
<polygon fill="none" stroke="#63b8ff" points="857.54,-324.58 867.45,-328.31 862.03,-319.21 857.54,-324.58"/>
</a>
</g>
</g>
<!-- Node22 -->
<g id="Node000022" class="node">
<title>Node22</title>
<g id="a_Node000022"><a xlink:href="classnet_1_1config_1_1stream_1_1ConfigSocketClient.html" target="_top" xlink:title=" ">
<polygon fill="white" stroke="none" points="1070,-286.62 896.25,-286.62 896.25,-240.38 1070,-240.38 1070,-286.62"/>
<text xml:space="preserve" text-anchor="start" x="900.25" y="-273.12" font-family="Helvetica,sans-Serif" font-size="10.00">net::config::stream</text>
<text xml:space="preserve" text-anchor="start" x="900.25" y="-260.38" font-family="Helvetica,sans-Serif" font-size="10.00">::ConfigSocketClient</text>
<text xml:space="preserve" text-anchor="start" x="900.25" y="-247.62" font-family="Helvetica,sans-Serif" font-size="10.00">&lt; net::rc::config::ConfigAddress &gt;</text>
<polygon fill="none" stroke="#666666" points="896.25,-240.38 896.25,-286.62 1070,-286.62 1070,-240.38 896.25,-240.38"/>
</a>
</g>
</g>
<!-- Node1&#45;&gt;Node22 -->
<g id="edge21_Node000001_Node000022" class="edge">
<title>Node1&#45;&gt;Node22</title>
<g id="a_edge21_Node000001_Node000022"><a xlink:title=" ">
<path fill="none" stroke="#63b8ff" d="M914.34,-322C927.61,-310.9 943.52,-297.61 956.69,-286.6"/>
<polygon fill="none" stroke="#63b8ff" points="912.22,-319.21 906.8,-328.31 916.71,-324.58 912.22,-319.21"/>
</a>
</g>
</g>
<!-- Node28 -->
<g id="Node000028" class="node">
<title>Node28</title>
<g id="a_Node000028"><a xlink:href="classnet_1_1config_1_1stream_1_1ConfigSocketClient.html" target="_top" xlink:title=" ">
<polygon fill="white" stroke="none" points="1264.5,-286.62 1087.75,-286.62 1087.75,-240.38 1264.5,-240.38 1264.5,-286.62"/>
<text xml:space="preserve" text-anchor="start" x="1091.75" y="-273.12" font-family="Helvetica,sans-Serif" font-size="10.00">net::config::stream</text>
<text xml:space="preserve" text-anchor="start" x="1091.75" y="-260.38" font-family="Helvetica,sans-Serif" font-size="10.00">::ConfigSocketClient</text>
<text xml:space="preserve" text-anchor="start" x="1091.75" y="-247.62" font-family="Helvetica,sans-Serif" font-size="10.00">&lt; net::un::config::ConfigAddress &gt;</text>
<polygon fill="none" stroke="#666666" points="1087.75,-240.38 1087.75,-286.62 1264.5,-286.62 1264.5,-240.38 1087.75,-240.38"/>
</a>
</g>
</g>
<!-- Node1&#45;&gt;Node28 -->
<g id="edge27_Node000001_Node000028" class="edge">
<title>Node1&#45;&gt;Node28</title>
<g id="a_edge27_Node000001_Node000028"><a xlink:title=" ">
<path fill="none" stroke="#63b8ff" d="M957.87,-326.09C994.17,-316.41 1039.07,-304.28 1079.12,-293 1086.39,-290.95 1093.95,-288.79 1101.5,-286.61"/>
<polygon fill="none" stroke="#63b8ff" points="957.12,-322.67 948.36,-328.62 958.92,-329.43 957.12,-322.67"/>
</a>
</g>
</g>
<!-- Node34 -->
<g id="Node000034" class="node">
<title>Node34</title>
<g id="a_Node000034"><a xlink:href="classnet_1_1config_1_1stream_1_1ConfigSocketClient.html" target="_top" xlink:title=" ">
<polygon fill="white" stroke="none" points="1419.62,-293 1282.62,-293 1282.62,-234 1419.62,-234 1419.62,-293"/>
<text xml:space="preserve" text-anchor="start" x="1286.62" y="-279.5" font-family="Helvetica,sans-Serif" font-size="10.00">net::config::stream</text>
<text xml:space="preserve" text-anchor="start" x="1286.62" y="-266.75" font-family="Helvetica,sans-Serif" font-size="10.00">::ConfigSocketClient</text>
<text xml:space="preserve" text-anchor="start" x="1286.62" y="-254" font-family="Helvetica,sans-Serif" font-size="10.00">&lt; ConfigAddressLocalT,</text>
<text xml:space="preserve" text-anchor="start" x="1286.62" y="-241.25" font-family="Helvetica,sans-Serif" font-size="10.00"> ConfigAddressRemoteT &gt;</text>
<polygon fill="none" stroke="#666666" points="1282.62,-234 1282.62,-293 1419.62,-293 1419.62,-234 1282.62,-234"/>
</a>
</g>
</g>
<!-- Node1&#45;&gt;Node34 -->
<g id="edge33_Node000001_Node000034" class="edge">
<title>Node1&#45;&gt;Node34</title>
<g id="a_edge33_Node000001_Node000034"><a xlink:title=" ">
<path fill="none" stroke="#63b8ff" d="M967.23,-339.11C1045.97,-332.38 1169.1,-318.65 1273.12,-293 1276.34,-292.21 1279.62,-291.32 1282.9,-290.38"/>
<polygon fill="none" stroke="#63b8ff" points="967.13,-335.61 957.46,-339.93 967.71,-342.58 967.13,-335.61"/>
</a>
</g>
</g>
<!-- Node2 -->
<g id="Node000002" class="node">
<title>Node2</title>
<g id="a_Node000002"><a xlink:href="classnet_1_1config_1_1ConfigSection.html" target="_top" xlink:title=" ">
<polygon fill="white" stroke="none" points="876.75,-425.62 743.5,-425.62 743.5,-404.88 876.75,-404.88 876.75,-425.62"/>
<text xml:space="preserve" text-anchor="start" x="747.5" y="-412.12" font-family="Helvetica,sans-Serif" font-size="10.00">net::config::ConfigSection</text>
<polygon fill="none" stroke="#666666" points="743.5,-404.88 743.5,-425.62 876.75,-425.62 876.75,-404.88 743.5,-404.88"/>
</a>
</g>
</g>
<!-- Node2&#45;&gt;Node1 -->
<g id="edge1_Node000001_Node000002" class="edge">
<title>Node2&#45;&gt;Node1</title>
<g id="a_edge1_Node000001_Node000002"><a xlink:title=" ">
<path fill="none" stroke="#8b1a1a" d="M829.06,-397.65C841.33,-386.89 857.2,-372.98 869.25,-362.42"/>
<polygon fill="none" stroke="#8b1a1a" points="826.86,-394.93 821.65,-404.15 831.47,-400.19 826.86,-394.93"/>
</a>
</g>
</g>
<!-- Node3 -->
<g id="Node000003" class="node">
<title>Node3</title>
<g id="a_Node000003"><a xlink:href="classnet_1_1config_1_1ConfigPhysicalSocket.html" target="_top" xlink:title=" ">
<polygon fill="white" stroke="none" points="1033,-432 895.25,-432 895.25,-398.5 1033,-398.5 1033,-432"/>
<text xml:space="preserve" text-anchor="start" x="899.25" y="-418.5" font-family="Helvetica,sans-Serif" font-size="10.00">net::config::ConfigPhysical</text>
<text xml:space="preserve" text-anchor="start" x="948" y="-405.75" font-family="Helvetica,sans-Serif" font-size="10.00">Socket</text>
<polygon fill="none" stroke="#666666" points="895.25,-398.5 895.25,-432 1033,-432 1033,-398.5 895.25,-398.5"/>
</a>
</g>
</g>
<!-- Node3&#45;&gt;Node1 -->
<g id="edge2_Node000001_Node000003" class="edge">
<title>Node3&#45;&gt;Node1</title>
<g id="a_edge2_Node000001_Node000003"><a xlink:title=" ">
<path fill="none" stroke="#63b8ff" d="M937.93,-391.28C927.04,-381.74 914.69,-370.91 904.89,-362.32"/>
<polygon fill="none" stroke="#63b8ff" points="935.3,-393.64 945.13,-397.6 939.92,-388.37 935.3,-393.64"/>
</a>
</g>
</g>
<!-- Node5 -->
<g id="Node000005" class="node">
<title>Node5</title>
<g id="a_Node000005"><a xlink:href="classnet_1_1in6_1_1stream_1_1config_1_1ConfigSocketClient.html" target="_top" xlink:title=" ">
<polygon fill="white" stroke="none" points="291.75,-198 170.5,-198 170.5,-164.5 291.75,-164.5 291.75,-198"/>
<text xml:space="preserve" text-anchor="start" x="174.5" y="-184.5" font-family="Helvetica,sans-Serif" font-size="10.00">net::in6::stream::config</text>
<text xml:space="preserve" text-anchor="start" x="182" y="-171.75" font-family="Helvetica,sans-Serif" font-size="10.00">::ConfigSocketClient</text>
<polygon fill="none" stroke="#666666" points="170.5,-164.5 170.5,-198 291.75,-198 291.75,-164.5 170.5,-164.5"/>
</a>
</g>
</g>
<!-- Node4&#45;&gt;Node5 -->
<g id="edge4_Node000004_Node000005" class="edge">
<title>Node4&#45;&gt;Node5</title>
<g id="a_edge4_Node000004_Node000005"><a xlink:title=" ">
<path fill="none" stroke="#63b8ff" d="M269.87,-231.61C260.79,-220.04 250.86,-207.39 243.33,-197.79"/>
<polygon fill="none" stroke="#63b8ff" points="267.05,-233.68 275.98,-239.38 272.55,-229.35 267.05,-233.68"/>
</a>
</g>
</g>
<!-- Node6 -->
<g id="Node000006" class="node">
<title>Node6</title>
<g id="a_Node000006"><a xlink:href="classnet_1_1config_1_1stream_1_1legacy_1_1ConfigSocketClient.html" target="_top" xlink:title=" ">
<polygon fill="white" stroke="none" points="145,-128.5 1.25,-128.5 1.25,-69.5 145,-69.5 145,-128.5"/>
<text xml:space="preserve" text-anchor="start" x="5.25" y="-115" font-family="Helvetica,sans-Serif" font-size="10.00">net::config::stream</text>
<text xml:space="preserve" text-anchor="start" x="5.25" y="-102.25" font-family="Helvetica,sans-Serif" font-size="10.00">::legacy::ConfigSocketClient</text>
<text xml:space="preserve" text-anchor="start" x="5.25" y="-89.5" font-family="Helvetica,sans-Serif" font-size="10.00">&lt; net::in6::stream::config</text>
<text xml:space="preserve" text-anchor="start" x="18.38" y="-76.75" font-family="Helvetica,sans-Serif" font-size="10.00">::ConfigSocketClient &gt;</text>
<polygon fill="none" stroke="#666666" points="1.25,-69.5 1.25,-128.5 145,-128.5 145,-69.5 1.25,-69.5"/>
</a>
</g>
</g>
<!-- Node5&#45;&gt;Node6 -->
<g id="edge5_Node000005_Node000006" class="edge">
<title>Node5&#45;&gt;Node6</title>
<g id="a_edge5_Node000005_Node000006"><a xlink:title=" ">
<path fill="none" stroke="#63b8ff" d="M190.09,-159.41C171.51,-149.97 149.24,-138.66 129.15,-128.46"/>
<polygon fill="none" stroke="#63b8ff" points="188.44,-162.49 198.94,-163.9 191.61,-156.25 188.44,-162.49"/>
</a>
</g>
</g>
<!-- Node8 -->
<g id="Node000008" class="node">
<title>Node8</title>
<g id="a_Node000008"><a xlink:href="classnet_1_1config_1_1stream_1_1tls_1_1ConfigSocketClient.html" target="_top" xlink:title=" ">
<polygon fill="white" stroke="none" points="297.38,-128.5 164.88,-128.5 164.88,-69.5 297.38,-69.5 297.38,-128.5"/>
<text xml:space="preserve" text-anchor="start" x="168.88" y="-115" font-family="Helvetica,sans-Serif" font-size="10.00">net::config::stream</text>
<text xml:space="preserve" text-anchor="start" x="168.88" y="-102.25" font-family="Helvetica,sans-Serif" font-size="10.00">::tls::ConfigSocketClient</text>
<text xml:space="preserve" text-anchor="start" x="168.88" y="-89.5" font-family="Helvetica,sans-Serif" font-size="10.00">&lt; net::in6::stream::config</text>
<text xml:space="preserve" text-anchor="start" x="176.38" y="-76.75" font-family="Helvetica,sans-Serif" font-size="10.00">::ConfigSocketClient &gt;</text>
<polygon fill="none" stroke="#666666" points="164.88,-69.5 164.88,-128.5 297.38,-128.5 297.38,-69.5 164.88,-69.5"/>
</a>
</g>
</g>
<!-- Node5&#45;&gt;Node8 -->
<g id="edge7_Node000005_Node000008" class="edge">
<title>Node5&#45;&gt;Node8</title>
<g id="a_edge7_Node000005_Node000008"><a xlink:title=" ">
<path fill="none" stroke="#63b8ff" d="M231.12,-153.4C231.12,-145.37 231.12,-136.55 231.12,-128.42"/>
<polygon fill="none" stroke="#63b8ff" points="227.63,-153.26 231.13,-163.26 234.63,-153.26 227.63,-153.26"/>
</a>
</g>
</g>
<!-- Node7 -->
<g id="Node000007" class="node">
<title>Node7</title>
<g id="a_Node000007"><a xlink:href="classnet_1_1in6_1_1stream_1_1legacy_1_1config_1_1ConfigSocketClient.html" target="_top" xlink:title=" ">
<polygon fill="white" stroke="none" points="142.25,-33.5 0,-33.5 0,0 142.25,0 142.25,-33.5"/>
<text xml:space="preserve" text-anchor="start" x="4" y="-20" font-family="Helvetica,sans-Serif" font-size="10.00">net::in6::stream::legacy</text>
<text xml:space="preserve" text-anchor="start" x="4" y="-7.25" font-family="Helvetica,sans-Serif" font-size="10.00">::config::ConfigSocketClient</text>
<polygon fill="none" stroke="#666666" points="0,0 0,-33.5 142.25,-33.5 142.25,0 0,0"/>
</a>
</g>
</g>
<!-- Node6&#45;&gt;Node7 -->
<g id="edge6_Node000006_Node000007" class="edge">
<title>Node6&#45;&gt;Node7</title>
<g id="a_edge6_Node000006_Node000007"><a xlink:title=" ">
<path fill="none" stroke="#63b8ff" d="M72.15,-58.68C71.92,-49.67 71.69,-40.6 71.51,-33.29"/>
<polygon fill="none" stroke="#63b8ff" points="68.64,-58.51 72.39,-68.42 75.64,-58.34 68.64,-58.51"/>
</a>
</g>
</g>
<!-- Node9 -->
<g id="Node000009" class="node">
<title>Node9</title>
<g id="a_Node000009"><a xlink:href="classnet_1_1in6_1_1stream_1_1tls_1_1config_1_1ConfigSocketClient.html" target="_top" xlink:title=" ">
<polygon fill="white" stroke="none" points="302.25,-33.5 160,-33.5 160,0 302.25,0 302.25,-33.5"/>
<text xml:space="preserve" text-anchor="start" x="164" y="-20" font-family="Helvetica,sans-Serif" font-size="10.00">net::in6::stream::tls</text>
<text xml:space="preserve" text-anchor="start" x="164" y="-7.25" font-family="Helvetica,sans-Serif" font-size="10.00">::config::ConfigSocketClient</text>
<polygon fill="none" stroke="#666666" points="160,0 160,-33.5 302.25,-33.5 302.25,0 160,0"/>
</a>
</g>
</g>
<!-- Node8&#45;&gt;Node9 -->
<g id="edge8_Node000008_Node000009" class="edge">
<title>Node8&#45;&gt;Node9</title>
<g id="a_edge8_Node000008_Node000009"><a xlink:title=" ">
<path fill="none" stroke="#63b8ff" d="M231.12,-58.68C231.12,-49.67 231.12,-40.6 231.12,-33.29"/>
<polygon fill="none" stroke="#63b8ff" points="227.63,-58.42 231.13,-68.42 234.63,-58.42 227.63,-58.42"/>
</a>
</g>
</g>
<!-- Node11 -->
<g id="Node000011" class="node">
<title>Node11</title>
<g id="a_Node000011"><a xlink:href="classnet_1_1in_1_1stream_1_1config_1_1ConfigSocketClient.html" target="_top" xlink:title=" ">
<polygon fill="white" stroke="none" points="608.75,-198 493.5,-198 493.5,-164.5 608.75,-164.5 608.75,-198"/>
<text xml:space="preserve" text-anchor="start" x="497.5" y="-184.5" font-family="Helvetica,sans-Serif" font-size="10.00">net::in::stream::config</text>
<text xml:space="preserve" text-anchor="start" x="502" y="-171.75" font-family="Helvetica,sans-Serif" font-size="10.00">::ConfigSocketClient</text>
<polygon fill="none" stroke="#666666" points="493.5,-164.5 493.5,-198 608.75,-198 608.75,-164.5 493.5,-164.5"/>
</a>
</g>
</g>
<!-- Node10&#45;&gt;Node11 -->
<g id="edge10_Node000010_Node000011" class="edge">
<title>Node10&#45;&gt;Node11</title>
<g id="a_edge10_Node000010_Node000011"><a xlink:title=" ">
<path fill="none" stroke="#63b8ff" d="M565.37,-229.88C562.05,-218.79 558.5,-206.92 555.77,-197.79"/>
<polygon fill="none" stroke="#63b8ff" points="561.91,-230.54 568.13,-239.12 568.62,-228.54 561.91,-230.54"/>
</a>
</g>
</g>
<!-- Node12 -->
<g id="Node000012" class="node">
<title>Node12</title>
<g id="a_Node000012"><a xlink:href="classnet_1_1config_1_1stream_1_1legacy_1_1ConfigSocketClient.html" target="_top" xlink:title=" ">
<polygon fill="white" stroke="none" points="466,-128.5 322.25,-128.5 322.25,-69.5 466,-69.5 466,-128.5"/>
<text xml:space="preserve" text-anchor="start" x="326.25" y="-115" font-family="Helvetica,sans-Serif" font-size="10.00">net::config::stream</text>
<text xml:space="preserve" text-anchor="start" x="326.25" y="-102.25" font-family="Helvetica,sans-Serif" font-size="10.00">::legacy::ConfigSocketClient</text>
<text xml:space="preserve" text-anchor="start" x="326.25" y="-89.5" font-family="Helvetica,sans-Serif" font-size="10.00">&lt; net::in::stream::config</text>
<text xml:space="preserve" text-anchor="start" x="339.38" y="-76.75" font-family="Helvetica,sans-Serif" font-size="10.00">::ConfigSocketClient &gt;</text>
<polygon fill="none" stroke="#666666" points="322.25,-69.5 322.25,-128.5 466,-128.5 466,-69.5 322.25,-69.5"/>
</a>
</g>
</g>
<!-- Node11&#45;&gt;Node12 -->
<g id="edge11_Node000011_Node000012" class="edge">
<title>Node11&#45;&gt;Node12</title>
<g id="a_edge11_Node000011_Node000012"><a xlink:title=" ">
<path fill="none" stroke="#63b8ff" d="M510.35,-159.41C491.89,-149.97 469.76,-138.66 449.8,-128.46"/>
<polygon fill="none" stroke="#63b8ff" points="508.64,-162.46 519.13,-163.9 511.82,-156.23 508.64,-162.46"/>
</a>
</g>
</g>
<!-- Node14 -->
<g id="Node000014" class="node">
<title>Node14</title>
<g id="a_Node000014"><a xlink:href="classnet_1_1config_1_1stream_1_1tls_1_1ConfigSocketClient.html" target="_top" xlink:title=" ">
<polygon fill="white" stroke="none" points="614.38,-128.5 487.88,-128.5 487.88,-69.5 614.38,-69.5 614.38,-128.5"/>
<text xml:space="preserve" text-anchor="start" x="491.88" y="-115" font-family="Helvetica,sans-Serif" font-size="10.00">net::config::stream</text>
<text xml:space="preserve" text-anchor="start" x="491.88" y="-102.25" font-family="Helvetica,sans-Serif" font-size="10.00">::tls::ConfigSocketClient</text>
<text xml:space="preserve" text-anchor="start" x="491.88" y="-89.5" font-family="Helvetica,sans-Serif" font-size="10.00">&lt; net::in::stream::config</text>
<text xml:space="preserve" text-anchor="start" x="496.38" y="-76.75" font-family="Helvetica,sans-Serif" font-size="10.00">::ConfigSocketClient &gt;</text>
<polygon fill="none" stroke="#666666" points="487.88,-69.5 487.88,-128.5 614.38,-128.5 614.38,-69.5 487.88,-69.5"/>
</a>
</g>
</g>
<!-- Node11&#45;&gt;Node14 -->
<g id="edge13_Node000011_Node000014" class="edge">
<title>Node11&#45;&gt;Node14</title>
<g id="a_edge13_Node000011_Node000014"><a xlink:title=" ">
<path fill="none" stroke="#63b8ff" d="M551.12,-153.4C551.12,-145.37 551.12,-136.55 551.12,-128.42"/>
<polygon fill="none" stroke="#63b8ff" points="547.63,-153.26 551.13,-163.26 554.63,-153.26 547.63,-153.26"/>
</a>
</g>
</g>
<!-- Node13 -->
<g id="Node000013" class="node">
<title>Node13</title>
<g id="a_Node000013"><a xlink:href="classnet_1_1in_1_1stream_1_1legacy_1_1config_1_1ConfigSocketClient.html" target="_top" xlink:title=" ">
<polygon fill="white" stroke="none" points="462.25,-33.5 320,-33.5 320,0 462.25,0 462.25,-33.5"/>
<text xml:space="preserve" text-anchor="start" x="324" y="-20" font-family="Helvetica,sans-Serif" font-size="10.00">net::in::stream::legacy</text>
<text xml:space="preserve" text-anchor="start" x="324" y="-7.25" font-family="Helvetica,sans-Serif" font-size="10.00">::config::ConfigSocketClient</text>
<polygon fill="none" stroke="#666666" points="320,0 320,-33.5 462.25,-33.5 462.25,0 320,0"/>
</a>
</g>
</g>
<!-- Node12&#45;&gt;Node13 -->
<g id="edge12_Node000012_Node000013" class="edge">
<title>Node12&#45;&gt;Node13</title>
<g id="a_edge12_Node000012_Node000013"><a xlink:title=" ">
<path fill="none" stroke="#63b8ff" d="M392.66,-58.68C392.32,-49.67 391.98,-40.6 391.71,-33.29"/>
<polygon fill="none" stroke="#63b8ff" points="389.15,-58.56 393.02,-68.42 396.14,-58.3 389.15,-58.56"/>
</a>
</g>
</g>
<!-- Node15 -->
<g id="Node000015" class="node">
<title>Node15</title>
<g id="a_Node000015"><a xlink:href="classnet_1_1in_1_1stream_1_1tls_1_1config_1_1ConfigSocketClient.html" target="_top" xlink:title=" ">
<polygon fill="white" stroke="none" points="622.25,-33.5 480,-33.5 480,0 622.25,0 622.25,-33.5"/>
<text xml:space="preserve" text-anchor="start" x="484" y="-20" font-family="Helvetica,sans-Serif" font-size="10.00">net::in::stream::tls</text>
<text xml:space="preserve" text-anchor="start" x="484" y="-7.25" font-family="Helvetica,sans-Serif" font-size="10.00">::config::ConfigSocketClient</text>
<polygon fill="none" stroke="#666666" points="480,0 480,-33.5 622.25,-33.5 622.25,0 480,0"/>
</a>
</g>
</g>
<!-- Node14&#45;&gt;Node15 -->
<g id="edge14_Node000014_Node000015" class="edge">
<title>Node14&#45;&gt;Node15</title>
<g id="a_edge14_Node000014_Node000015"><a xlink:title=" ">
<path fill="none" stroke="#63b8ff" d="M551.12,-58.68C551.12,-49.67 551.12,-40.6 551.12,-33.29"/>
<polygon fill="none" stroke="#63b8ff" points="547.63,-58.42 551.13,-68.42 554.63,-58.42 547.63,-58.42"/>
</a>
</g>
</g>
<!-- Node17 -->
<g id="Node000017" class="node">
<title>Node17</title>
<g id="a_Node000017"><a xlink:href="classnet_1_1l2_1_1stream_1_1config_1_1ConfigSocketClient.html" target="_top" xlink:title=" ">
<polygon fill="white" stroke="none" points="848.75,-198 733.5,-198 733.5,-164.5 848.75,-164.5 848.75,-198"/>
<text xml:space="preserve" text-anchor="start" x="737.5" y="-184.5" font-family="Helvetica,sans-Serif" font-size="10.00">net::l2::stream::config</text>
<text xml:space="preserve" text-anchor="start" x="742" y="-171.75" font-family="Helvetica,sans-Serif" font-size="10.00">::ConfigSocketClient</text>
<polygon fill="none" stroke="#666666" points="733.5,-164.5 733.5,-198 848.75,-198 848.75,-164.5 733.5,-164.5"/>
</a>
</g>
</g>
<!-- Node16&#45;&gt;Node17 -->
<g id="edge16_Node000016_Node000017" class="edge">
<title>Node16&#45;&gt;Node17</title>
<g id="a_edge16_Node000016_Node000017"><a xlink:title=" ">
<path fill="none" stroke="#63b8ff" d="M791.12,-229.19C791.12,-218.3 791.12,-206.73 791.12,-197.79"/>
<polygon fill="none" stroke="#63b8ff" points="787.63,-229.06 791.13,-239.06 794.63,-229.06 787.63,-229.06"/>
</a>
</g>
</g>
<!-- Node18 -->
<g id="Node000018" class="node">
<title>Node18</title>
<g id="a_Node000018"><a xlink:href="classnet_1_1config_1_1stream_1_1legacy_1_1ConfigSocketClient.html" target="_top" xlink:title=" ">
<polygon fill="white" stroke="none" points="785,-128.5 641.25,-128.5 641.25,-69.5 785,-69.5 785,-128.5"/>
<text xml:space="preserve" text-anchor="start" x="645.25" y="-115" font-family="Helvetica,sans-Serif" font-size="10.00">net::config::stream</text>
<text xml:space="preserve" text-anchor="start" x="645.25" y="-102.25" font-family="Helvetica,sans-Serif" font-size="10.00">::legacy::ConfigSocketClient</text>
<text xml:space="preserve" text-anchor="start" x="645.25" y="-89.5" font-family="Helvetica,sans-Serif" font-size="10.00">&lt; net::l2::stream::config</text>
<text xml:space="preserve" text-anchor="start" x="658.38" y="-76.75" font-family="Helvetica,sans-Serif" font-size="10.00">::ConfigSocketClient &gt;</text>
<polygon fill="none" stroke="#666666" points="641.25,-69.5 641.25,-128.5 785,-128.5 785,-69.5 641.25,-69.5"/>
</a>
</g>
</g>
<!-- Node17&#45;&gt;Node18 -->
<g id="edge17_Node000017_Node000018" class="edge">
<title>Node17&#45;&gt;Node18</title>
<g id="a_edge17_Node000017_Node000018"><a xlink:title=" ">
<path fill="none" stroke="#63b8ff" d="M768.28,-156.75C759.66,-147.88 749.76,-137.69 740.75,-128.42"/>
<polygon fill="none" stroke="#63b8ff" points="765.55,-158.96 775.03,-163.69 770.57,-154.08 765.55,-158.96"/>
</a>
</g>
</g>
<!-- Node20 -->
<g id="Node000020" class="node">
<title>Node20</title>
<g id="a_Node000020"><a xlink:href="classnet_1_1config_1_1stream_1_1tls_1_1ConfigSocketClient.html" target="_top" xlink:title=" ">
<polygon fill="white" stroke="none" points="931.38,-128.5 804.88,-128.5 804.88,-69.5 931.38,-69.5 931.38,-128.5"/>
<text xml:space="preserve" text-anchor="start" x="808.88" y="-115" font-family="Helvetica,sans-Serif" font-size="10.00">net::config::stream</text>
<text xml:space="preserve" text-anchor="start" x="808.88" y="-102.25" font-family="Helvetica,sans-Serif" font-size="10.00">::tls::ConfigSocketClient</text>
<text xml:space="preserve" text-anchor="start" x="808.88" y="-89.5" font-family="Helvetica,sans-Serif" font-size="10.00">&lt; net::l2::stream::config</text>
<text xml:space="preserve" text-anchor="start" x="813.38" y="-76.75" font-family="Helvetica,sans-Serif" font-size="10.00">::ConfigSocketClient &gt;</text>
<polygon fill="none" stroke="#666666" points="804.88,-69.5 804.88,-128.5 931.38,-128.5 931.38,-69.5 804.88,-69.5"/>
</a>
</g>
</g>
<!-- Node17&#45;&gt;Node20 -->
<g id="edge19_Node000017_Node000020" class="edge">
<title>Node17&#45;&gt;Node20</title>
<g id="a_edge19_Node000017_Node000020"><a xlink:title=" ">
<path fill="none" stroke="#63b8ff" d="M813.94,-156.47C822.39,-147.67 832.05,-137.6 840.86,-128.42"/>
<polygon fill="none" stroke="#63b8ff" points="811.42,-154.05 807.02,-163.68 816.47,-158.89 811.42,-154.05"/>
</a>
</g>
</g>
<!-- Node19 -->
<g id="Node000019" class="node">
<title>Node19</title>
<g id="a_Node000019"><a xlink:href="classnet_1_1l2_1_1stream_1_1legacy_1_1config_1_1ConfigSocketClient.html" target="_top" xlink:title=" ">
<polygon fill="white" stroke="none" points="782.25,-33.5 640,-33.5 640,0 782.25,0 782.25,-33.5"/>
<text xml:space="preserve" text-anchor="start" x="644" y="-20" font-family="Helvetica,sans-Serif" font-size="10.00">net::l2::stream::legacy</text>
<text xml:space="preserve" text-anchor="start" x="644" y="-7.25" font-family="Helvetica,sans-Serif" font-size="10.00">::config::ConfigSocketClient</text>
<polygon fill="none" stroke="#666666" points="640,0 640,-33.5 782.25,-33.5 782.25,0 640,0"/>
</a>
</g>
</g>
<!-- Node18&#45;&gt;Node19 -->
<g id="edge18_Node000018_Node000019" class="edge">
<title>Node18&#45;&gt;Node19</title>
<g id="a_edge18_Node000018_Node000019"><a xlink:title=" ">
<path fill="none" stroke="#63b8ff" d="M712.15,-58.68C711.92,-49.67 711.69,-40.6 711.51,-33.29"/>
<polygon fill="none" stroke="#63b8ff" points="708.64,-58.51 712.39,-68.42 715.64,-58.34 708.64,-58.51"/>
</a>
</g>
</g>
<!-- Node21 -->
<g id="Node000021" class="node">
<title>Node21</title>
<g id="a_Node000021"><a xlink:href="classnet_1_1l2_1_1stream_1_1tls_1_1config_1_1ConfigSocketClient.html" target="_top" xlink:title=" ">
<polygon fill="white" stroke="none" points="942.25,-33.5 800,-33.5 800,0 942.25,0 942.25,-33.5"/>
<text xml:space="preserve" text-anchor="start" x="804" y="-20" font-family="Helvetica,sans-Serif" font-size="10.00">net::l2::stream::tls</text>
<text xml:space="preserve" text-anchor="start" x="804" y="-7.25" font-family="Helvetica,sans-Serif" font-size="10.00">::config::ConfigSocketClient</text>
<polygon fill="none" stroke="#666666" points="800,0 800,-33.5 942.25,-33.5 942.25,0 800,0"/>
</a>
</g>
</g>
<!-- Node20&#45;&gt;Node21 -->
<g id="edge20_Node000020_Node000021" class="edge">
<title>Node20&#45;&gt;Node21</title>
<g id="a_edge20_Node000020_Node000021"><a xlink:title=" ">
<path fill="none" stroke="#63b8ff" d="M869.59,-58.68C869.93,-49.67 870.27,-40.6 870.54,-33.29"/>
<polygon fill="none" stroke="#63b8ff" points="866.11,-58.3 869.23,-68.42 873.1,-58.56 866.11,-58.3"/>
</a>
</g>
</g>
<!-- Node23 -->
<g id="Node000023" class="node">
<title>Node23</title>
<g id="a_Node000023"><a xlink:href="classnet_1_1rc_1_1stream_1_1config_1_1ConfigSocketClient.html" target="_top" xlink:title=" ">
<polygon fill="white" stroke="none" points="1088.75,-198 973.5,-198 973.5,-164.5 1088.75,-164.5 1088.75,-198"/>
<text xml:space="preserve" text-anchor="start" x="977.5" y="-184.5" font-family="Helvetica,sans-Serif" font-size="10.00">net::rc::stream::config</text>
<text xml:space="preserve" text-anchor="start" x="982" y="-171.75" font-family="Helvetica,sans-Serif" font-size="10.00">::ConfigSocketClient</text>
<polygon fill="none" stroke="#666666" points="973.5,-164.5 973.5,-198 1088.75,-198 1088.75,-164.5 973.5,-164.5"/>
</a>
</g>
</g>
<!-- Node22&#45;&gt;Node23 -->
<g id="edge22_Node000022_Node000023" class="edge">
<title>Node22&#45;&gt;Node23</title>
<g id="a_edge22_Node000022_Node000023"><a xlink:title=" ">
<path fill="none" stroke="#63b8ff" d="M1002.02,-230.92C1008.82,-219.54 1016.2,-207.2 1021.83,-197.79"/>
<polygon fill="none" stroke="#63b8ff" points="999.15,-228.89 997.02,-239.27 1005.16,-232.49 999.15,-228.89"/>
</a>
</g>
</g>
<!-- Node24 -->
<g id="Node000024" class="node">
<title>Node24</title>
<g id="a_Node000024"><a xlink:href="classnet_1_1config_1_1stream_1_1legacy_1_1ConfigSocketClient.html" target="_top" xlink:title=" ">
<polygon fill="white" stroke="none" points="1103,-128.5 959.25,-128.5 959.25,-69.5 1103,-69.5 1103,-128.5"/>
<text xml:space="preserve" text-anchor="start" x="963.25" y="-115" font-family="Helvetica,sans-Serif" font-size="10.00">net::config::stream</text>
<text xml:space="preserve" text-anchor="start" x="963.25" y="-102.25" font-family="Helvetica,sans-Serif" font-size="10.00">::legacy::ConfigSocketClient</text>
<text xml:space="preserve" text-anchor="start" x="963.25" y="-89.5" font-family="Helvetica,sans-Serif" font-size="10.00">&lt; net::rc::stream::config</text>
<text xml:space="preserve" text-anchor="start" x="976.38" y="-76.75" font-family="Helvetica,sans-Serif" font-size="10.00">::ConfigSocketClient &gt;</text>
<polygon fill="none" stroke="#666666" points="959.25,-69.5 959.25,-128.5 1103,-128.5 1103,-69.5 959.25,-69.5"/>
</a>
</g>
</g>
<!-- Node23&#45;&gt;Node24 -->
<g id="edge23_Node000023_Node000024" class="edge">
<title>Node23&#45;&gt;Node24</title>
<g id="a_edge23_Node000023_Node000024"><a xlink:title=" ">
<path fill="none" stroke="#63b8ff" d="M1031.12,-153.4C1031.12,-145.37 1031.12,-136.55 1031.12,-128.42"/>
<polygon fill="none" stroke="#63b8ff" points="1027.63,-153.26 1031.13,-163.26 1034.63,-153.26 1027.63,-153.26"/>
</a>
</g>
</g>
<!-- Node26 -->
<g id="Node000026" class="node">
<title>Node26</title>
<g id="a_Node000026"><a xlink:href="classnet_1_1config_1_1stream_1_1tls_1_1ConfigSocketClient.html" target="_top" xlink:title=" ">
<polygon fill="white" stroke="none" points="1251.38,-128.5 1124.88,-128.5 1124.88,-69.5 1251.38,-69.5 1251.38,-128.5"/>
<text xml:space="preserve" text-anchor="start" x="1128.88" y="-115" font-family="Helvetica,sans-Serif" font-size="10.00">net::config::stream</text>
<text xml:space="preserve" text-anchor="start" x="1128.88" y="-102.25" font-family="Helvetica,sans-Serif" font-size="10.00">::tls::ConfigSocketClient</text>
<text xml:space="preserve" text-anchor="start" x="1128.88" y="-89.5" font-family="Helvetica,sans-Serif" font-size="10.00">&lt; net::rc::stream::config</text>
<text xml:space="preserve" text-anchor="start" x="1133.38" y="-76.75" font-family="Helvetica,sans-Serif" font-size="10.00">::ConfigSocketClient &gt;</text>
<polygon fill="none" stroke="#666666" points="1124.88,-69.5 1124.88,-128.5 1251.38,-128.5 1251.38,-69.5 1124.88,-69.5"/>
</a>
</g>
</g>
<!-- Node23&#45;&gt;Node26 -->
<g id="edge25_Node000023_Node000026" class="edge">
<title>Node23&#45;&gt;Node26</title>
<g id="a_edge25_Node000023_Node000026"><a xlink:title=" ">
<path fill="none" stroke="#63b8ff" d="M1071.9,-159.41C1090.36,-149.97 1112.49,-138.66 1132.45,-128.46"/>
<polygon fill="none" stroke="#63b8ff" points="1070.43,-156.23 1063.12,-163.9 1073.61,-162.46 1070.43,-156.23"/>
</a>
</g>
</g>
<!-- Node25 -->
<g id="Node000025" class="node">
<title>Node25</title>
<g id="a_Node000025"><a xlink:href="classnet_1_1rc_1_1stream_1_1legacy_1_1config_1_1ConfigSocketClient.html" target="_top" xlink:title=" ">
<polygon fill="white" stroke="none" points="1102.25,-33.5 960,-33.5 960,0 1102.25,0 1102.25,-33.5"/>
<text xml:space="preserve" text-anchor="start" x="964" y="-20" font-family="Helvetica,sans-Serif" font-size="10.00">net::rc::stream::legacy</text>
<text xml:space="preserve" text-anchor="start" x="964" y="-7.25" font-family="Helvetica,sans-Serif" font-size="10.00">::config::ConfigSocketClient</text>
<polygon fill="none" stroke="#666666" points="960,0 960,-33.5 1102.25,-33.5 1102.25,0 960,0"/>
</a>
</g>
</g>
<!-- Node24&#45;&gt;Node25 -->
<g id="edge24_Node000024_Node000025" class="edge">
<title>Node24&#45;&gt;Node25</title>
<g id="a_edge24_Node000024_Node000025"><a xlink:title=" ">
<path fill="none" stroke="#63b8ff" d="M1031.12,-58.68C1031.12,-49.67 1031.12,-40.6 1031.12,-33.29"/>
<polygon fill="none" stroke="#63b8ff" points="1027.63,-58.42 1031.13,-68.42 1034.63,-58.42 1027.63,-58.42"/>
</a>
</g>
</g>
<!-- Node27 -->
<g id="Node000027" class="node">
<title>Node27</title>
<g id="a_Node000027"><a xlink:href="classnet_1_1rc_1_1stream_1_1tls_1_1config_1_1ConfigSocketClient.html" target="_top" xlink:title=" ">
<polygon fill="white" stroke="none" points="1262.25,-33.5 1120,-33.5 1120,0 1262.25,0 1262.25,-33.5"/>
<text xml:space="preserve" text-anchor="start" x="1124" y="-20" font-family="Helvetica,sans-Serif" font-size="10.00">net::rc::stream::tls</text>
<text xml:space="preserve" text-anchor="start" x="1124" y="-7.25" font-family="Helvetica,sans-Serif" font-size="10.00">::config::ConfigSocketClient</text>
<polygon fill="none" stroke="#666666" points="1120,0 1120,-33.5 1262.25,-33.5 1262.25,0 1120,0"/>
</a>
</g>
</g>
<!-- Node26&#45;&gt;Node27 -->
<g id="edge26_Node000026_Node000027" class="edge">
<title>Node26&#45;&gt;Node27</title>
<g id="a_edge26_Node000026_Node000027"><a xlink:title=" ">
<path fill="none" stroke="#63b8ff" d="M1189.59,-58.68C1189.93,-49.67 1190.27,-40.6 1190.54,-33.29"/>
<polygon fill="none" stroke="#63b8ff" points="1186.11,-58.3 1189.23,-68.42 1193.1,-58.56 1186.11,-58.3"/>
</a>
</g>
</g>
<!-- Node29 -->
<g id="Node000029" class="node">
<title>Node29</title>
<g id="a_Node000029"><a xlink:href="classnet_1_1un_1_1stream_1_1config_1_1ConfigSocketClient.html" target="_top" xlink:title=" ">
<polygon fill="white" stroke="none" points="1410.25,-198 1292,-198 1292,-164.5 1410.25,-164.5 1410.25,-198"/>
<text xml:space="preserve" text-anchor="start" x="1296" y="-184.5" font-family="Helvetica,sans-Serif" font-size="10.00">net::un::stream::config</text>
<text xml:space="preserve" text-anchor="start" x="1302" y="-171.75" font-family="Helvetica,sans-Serif" font-size="10.00">::ConfigSocketClient</text>
<polygon fill="none" stroke="#666666" points="1292,-164.5 1292,-198 1410.25,-198 1410.25,-164.5 1292,-164.5"/>
</a>
</g>
</g>
<!-- Node28&#45;&gt;Node29 -->
<g id="edge28_Node000028_Node000029" class="edge">
<title>Node28&#45;&gt;Node29</title>
<g id="a_edge28_Node000028_Node000029"><a xlink:title=" ">
<path fill="none" stroke="#63b8ff" d="M1234.22,-235.86C1261.65,-223.28 1293.45,-208.7 1316.95,-197.92"/>
<polygon fill="none" stroke="#63b8ff" points="1232.95,-232.59 1225.32,-239.94 1235.87,-238.95 1232.95,-232.59"/>
</a>
</g>
</g>
<!-- Node30 -->
<g id="Node000030" class="node">
<title>Node30</title>
<g id="a_Node000030"><a xlink:href="classnet_1_1config_1_1stream_1_1legacy_1_1ConfigSocketClient.html" target="_top" xlink:title=" ">
<polygon fill="white" stroke="none" points="1423,-128.5 1279.25,-128.5 1279.25,-69.5 1423,-69.5 1423,-128.5"/>
<text xml:space="preserve" text-anchor="start" x="1283.25" y="-115" font-family="Helvetica,sans-Serif" font-size="10.00">net::config::stream</text>
<text xml:space="preserve" text-anchor="start" x="1283.25" y="-102.25" font-family="Helvetica,sans-Serif" font-size="10.00">::legacy::ConfigSocketClient</text>
<text xml:space="preserve" text-anchor="start" x="1283.25" y="-89.5" font-family="Helvetica,sans-Serif" font-size="10.00">&lt; net::un::stream::config</text>
<text xml:space="preserve" text-anchor="start" x="1296.38" y="-76.75" font-family="Helvetica,sans-Serif" font-size="10.00">::ConfigSocketClient &gt;</text>
<polygon fill="none" stroke="#666666" points="1279.25,-69.5 1279.25,-128.5 1423,-128.5 1423,-69.5 1279.25,-69.5"/>
</a>
</g>
</g>
<!-- Node29&#45;&gt;Node30 -->
<g id="edge29_Node000029_Node000030" class="edge">
<title>Node29&#45;&gt;Node30</title>
<g id="a_edge29_Node000029_Node000030"><a xlink:title=" ">
<path fill="none" stroke="#63b8ff" d="M1351.12,-153.4C1351.12,-145.37 1351.12,-136.55 1351.12,-128.42"/>
<polygon fill="none" stroke="#63b8ff" points="1347.63,-153.26 1351.13,-163.26 1354.63,-153.26 1347.63,-153.26"/>
</a>
</g>
</g>
<!-- Node32 -->
<g id="Node000032" class="node">
<title>Node32</title>
<g id="a_Node000032"><a xlink:href="classnet_1_1config_1_1stream_1_1tls_1_1ConfigSocketClient.html" target="_top" xlink:title=" ">
<polygon fill="white" stroke="none" points="1572.88,-128.5 1443.38,-128.5 1443.38,-69.5 1572.88,-69.5 1572.88,-128.5"/>
<text xml:space="preserve" text-anchor="start" x="1447.38" y="-115" font-family="Helvetica,sans-Serif" font-size="10.00">net::config::stream</text>
<text xml:space="preserve" text-anchor="start" x="1447.38" y="-102.25" font-family="Helvetica,sans-Serif" font-size="10.00">::tls::ConfigSocketClient</text>
<text xml:space="preserve" text-anchor="start" x="1447.38" y="-89.5" font-family="Helvetica,sans-Serif" font-size="10.00">&lt; net::un::stream::config</text>
<text xml:space="preserve" text-anchor="start" x="1453.38" y="-76.75" font-family="Helvetica,sans-Serif" font-size="10.00">::ConfigSocketClient &gt;</text>
<polygon fill="none" stroke="#666666" points="1443.38,-69.5 1443.38,-128.5 1572.88,-128.5 1572.88,-69.5 1443.38,-69.5"/>
</a>
</g>
</g>
<!-- Node29&#45;&gt;Node32 -->
<g id="edge31_Node000029_Node000032" class="edge">
<title>Node29&#45;&gt;Node32</title>
<g id="a_edge31_Node000029_Node000032"><a xlink:title=" ">
<path fill="none" stroke="#63b8ff" d="M1391.9,-159.41C1410.36,-149.97 1432.49,-138.66 1452.45,-128.46"/>
<polygon fill="none" stroke="#63b8ff" points="1390.43,-156.23 1383.12,-163.9 1393.61,-162.46 1390.43,-156.23"/>
</a>
</g>
</g>
<!-- Node31 -->
<g id="Node000031" class="node">
<title>Node31</title>
<g id="a_Node000031"><a xlink:href="classnet_1_1un_1_1stream_1_1legacy_1_1config_1_1ConfigSocketClient.html" target="_top" xlink:title=" ">
<polygon fill="white" stroke="none" points="1422.25,-33.5 1280,-33.5 1280,0 1422.25,0 1422.25,-33.5"/>
<text xml:space="preserve" text-anchor="start" x="1284" y="-20" font-family="Helvetica,sans-Serif" font-size="10.00">net::un::stream::legacy</text>
<text xml:space="preserve" text-anchor="start" x="1284" y="-7.25" font-family="Helvetica,sans-Serif" font-size="10.00">::config::ConfigSocketClient</text>
<polygon fill="none" stroke="#666666" points="1280,0 1280,-33.5 1422.25,-33.5 1422.25,0 1280,0"/>
</a>
</g>
</g>
<!-- Node30&#45;&gt;Node31 -->
<g id="edge30_Node000030_Node000031" class="edge">
<title>Node30&#45;&gt;Node31</title>
<g id="a_edge30_Node000030_Node000031"><a xlink:title=" ">
<path fill="none" stroke="#63b8ff" d="M1351.12,-58.68C1351.12,-49.67 1351.12,-40.6 1351.12,-33.29"/>
<polygon fill="none" stroke="#63b8ff" points="1347.63,-58.42 1351.13,-68.42 1354.63,-58.42 1347.63,-58.42"/>
</a>
</g>
</g>
<!-- Node33 -->
<g id="Node000033" class="node">
<title>Node33</title>
<g id="a_Node000033"><a xlink:href="classnet_1_1un_1_1stream_1_1tls_1_1config_1_1ConfigSocketClient.html" target="_top" xlink:title=" ">
<polygon fill="white" stroke="none" points="1582.25,-33.5 1440,-33.5 1440,0 1582.25,0 1582.25,-33.5"/>
<text xml:space="preserve" text-anchor="start" x="1444" y="-20" font-family="Helvetica,sans-Serif" font-size="10.00">net::un::stream::tls</text>
<text xml:space="preserve" text-anchor="start" x="1444" y="-7.25" font-family="Helvetica,sans-Serif" font-size="10.00">::config::ConfigSocketClient</text>
<polygon fill="none" stroke="#666666" points="1440,0 1440,-33.5 1582.25,-33.5 1582.25,0 1440,0"/>
</a>
</g>
</g>
<!-- Node32&#45;&gt;Node33 -->
<g id="edge32_Node000032_Node000033" class="edge">
<title>Node32&#45;&gt;Node33</title>
<g id="a_edge32_Node000032_Node000033"><a xlink:title=" ">
<path fill="none" stroke="#63b8ff" d="M1509.59,-58.68C1509.93,-49.67 1510.27,-40.6 1510.54,-33.29"/>
<polygon fill="none" stroke="#63b8ff" points="1506.11,-58.3 1509.23,-68.42 1513.1,-58.56 1506.11,-58.3"/>
</a>
</g>
</g>
</g>
</svg>
