<?xml version="1.0" encoding="UTF-8" standalone="no"?>
<!DOCTYPE svg PUBLIC "-//W3C//DTD SVG 1.1//EN"
 "http://www.w3.org/Graphics/SVG/1.1/DTD/svg11.dtd">
<!-- Generated by graphviz version 14.1.1 (0)
 -->
<!-- Title: express::Route::dispatchNext Pages: 1 -->
<!--zoomable 250 -->

<svg id="main" version="1.1" xmlns="http://www.w3.org/2000/svg" xmlns:xlink="http://www.w3.org/1999/xlink" xml:space="preserve" onload="init(evt)">

<style type="text/css"><![CDATA[
.node, .edge {opacity: 0.7;}
.node.selected, .edge.selected {opacity: 1;}
.edge:hover path { stroke: red; }
.edge:hover polygon { stroke: red; fill: red; }
]]></style>

<defs>
  <circle id="rim" cx="0" cy="0" r="7"/>
  <circle id="rim2" cx="0" cy="0" r="3.5"/>
  <g id="zoomPlus">
    <use xlink:href="#rim" fill="#404040"><set attributeName="fill" to="#808080" begin="zoomplus.mouseover" end="zoomplus.mouseout"/></use>
    <path d="M-4,0h8M0,-4v8" fill="none" stroke="white" stroke-width="1.5" pointer-events="none"/>
  </g>
  <g id="zoomMin">
    <use xlink:href="#rim" fill="#404040"><set attributeName="fill" to="#808080" begin="zoomminus.mouseover" end="zoomminus.mouseout"/></use>
    <path d="M-4,0h8" fill="none" stroke="white" stroke-width="1.5" pointer-events="none"/>
  </g>
  <g id="arrowUp" transform="translate(30 24)">
    <use xlink:href="#rim"/>
    <path pointer-events="none" fill="none" stroke="white" stroke-width="1.5" d="M0,-3.0v7 M-2.5,-0.5L0,-3.0L2.5,-0.5"/>
  </g>
  <g id="arrowRight" transform="rotate(90) translate(36 -43)">
    <use xlink:href="#rim"/>
    <path pointer-events="none" fill="none" stroke="white" stroke-width="1.5" d="M0,-3.0v7 M-2.5,-0.5L0,-3.0L2.5,-0.5"/>
  </g>
  <g id="arrowDown" transform="rotate(180) translate(-30 -48)">
    <use xlink:href="#rim"/>
    <path pointer-events="none" fill="none" stroke="white" stroke-width="1.5" d="M0,-3.0v7 M-2.5,-0.5L0,-3.0L2.5,-0.5"/>
  </g>
  <g id="arrowLeft" transform="rotate(270) translate(-36 17)">
    <use xlink:href="#rim"/>
    <path pointer-events="none" fill="none" stroke="white" stroke-width="1.5" d="M0,-3.0v7 M-2.5,-0.5L0,-3.0L2.5,-0.5"/>
  </g>
  <g id="resetDef">
    <use xlink:href="#rim2" fill="#404040"><set attributeName="fill" to="#808080" begin="reset.mouseover" end="reset.mouseout"/></use>
  </g>
</defs>
<script type="application/ecmascript">
var viewWidth = 637;
var viewHeight = 250;
var sectionId = 'dynsection-8';
</script>
<script type="application/ecmascript" xlink:href="svg.min.js"/>
<svg id="graph" class="graph">
<g id="viewport">
<title>express::Route::dispatchNext</title>
<!-- Node1 -->
<g id="Node000001" class="node">
<title>Node1</title>
<g id="a_Node000001"><a xlink:title=" ">
<polygon fill="#999999" stroke="#666666" points="159.25,-189.12 0,-189.12 0,-168.38 159.25,-168.38 159.25,-189.12"/>
<text xml:space="preserve" text-anchor="middle" x="79.62" y="-175.62" font-family="Helvetica,sans-Serif" font-size="10.00">express::Route::dispatchNext</text>
</a>
</g>
</g>
<!-- Node2 -->
<g id="Node000002" class="node">
<title>Node2</title>
<g id="a_Node000002"><a xlink:href="classexpress_1_1Dispatcher.html#a8b5e4f0eb3d02c5f8c5452980a8845c2" target="_top" xlink:title=" ">
<polygon fill="white" stroke="#666666" points="308,-173.5 195.25,-173.5 195.25,-140 308,-140 308,-173.5"/>
<text xml:space="preserve" text-anchor="start" x="203.25" y="-160" font-family="Helvetica,sans-Serif" font-size="10.00">express::Dispatcher</text>
<text xml:space="preserve" text-anchor="middle" x="251.62" y="-147.25" font-family="Helvetica,sans-Serif" font-size="10.00">::dispatchNext</text>
</a>
</g>
</g>
<!-- Node1&#45;&gt;Node2 -->
<g id="edge1_Node000001_Node000002" class="edge">
<title>Node1&#45;&gt;Node2</title>
<g id="a_edge1_Node000001_Node000002"><a xlink:title=" ">
<path fill="none" stroke="#63b8ff" d="M159.65,-168.52C167.69,-167.48 175.8,-166.43 183.7,-165.41"/>
<polygon fill="#63b8ff" stroke="#63b8ff" points="184.1,-168.89 193.57,-164.13 183.2,-161.95 184.1,-168.89"/>
</a>
</g>
</g>
<!-- Node3 -->
<g id="Node000003" class="node">
<title>Node3</title>
<g id="a_Node000003"><a xlink:href="classexpress_1_1Route.html#a1aea7b29f8470cd6394ab72d5daeb66d" target="_top" xlink:title=" ">
<polygon fill="white" stroke="#666666" points="480,-138.12 344,-138.12 344,-117.38 480,-117.38 480,-138.12"/>
<text xml:space="preserve" text-anchor="middle" x="412" y="-124.62" font-family="Helvetica,sans-Serif" font-size="10.00">express::Route::dispatch</text>
</a>
</g>
</g>
<!-- Node2&#45;&gt;Node3 -->
<g id="edge2_Node000002_Node000003" class="edge">
<title>Node2&#45;&gt;Node3</title>
<g id="a_edge2_Node000002_Node000003"><a xlink:title=" ">
<path fill="none" stroke="#63b8ff" d="M308.46,-146.53C318.84,-144.63 329.8,-142.62 340.55,-140.65"/>
<polygon fill="#63b8ff" stroke="#63b8ff" points="340.94,-144.14 350.15,-138.89 339.68,-137.25 340.94,-144.14"/>
</a>
</g>
</g>
<!-- Node4 -->
<g id="Node000004" class="node">
<title>Node4</title>
<g id="a_Node000004"><a xlink:href="classexpress_1_1Dispatcher.html#a85f78f8231206e037904233940b7b5a7" target="_top" xlink:title=" ">
<polygon fill="white" stroke="#666666" points="628.75,-189.5 516,-189.5 516,-156 628.75,-156 628.75,-189.5"/>
<text xml:space="preserve" text-anchor="start" x="524" y="-176" font-family="Helvetica,sans-Serif" font-size="10.00">express::Dispatcher</text>
<text xml:space="preserve" text-anchor="middle" x="572.38" y="-163.25" font-family="Helvetica,sans-Serif" font-size="10.00">::dispatch</text>
</a>
</g>
</g>
<!-- Node3&#45;&gt;Node4 -->
<g id="edge3_Node000003_Node000004" class="edge">
<title>Node3&#45;&gt;Node4</title>
<g id="a_edge3_Node000003_Node000004"><a xlink:title=" ">
<path fill="none" stroke="#63b8ff" d="M450.93,-138.53C467.08,-143.12 486.39,-148.6 504.78,-153.83"/>
<polygon fill="#63b8ff" stroke="#63b8ff" points="503.73,-157.17 514.31,-156.54 505.65,-150.44 503.73,-157.17"/>
</a>
</g>
</g>
<!-- Node5 -->
<g id="Node000005" class="node">
<title>Node5</title>
<g id="a_Node000005"><a xlink:href="classexpress_1_1Controller.html#ad869b9f2284026613a76f1c4e4240de0" target="_top" xlink:title=" ">
<polygon fill="white" stroke="#666666" points="626.5,-241.5 518.25,-241.5 518.25,-208 626.5,-208 626.5,-241.5"/>
<text xml:space="preserve" text-anchor="start" x="526.25" y="-228" font-family="Helvetica,sans-Serif" font-size="10.00">express::Controller</text>
<text xml:space="preserve" text-anchor="middle" x="572.38" y="-215.25" font-family="Helvetica,sans-Serif" font-size="10.00">::dispatchNext</text>
</a>
</g>
</g>
<!-- Node3&#45;&gt;Node5 -->
<g id="edge4_Node000003_Node000005" class="edge">
<title>Node3&#45;&gt;Node5</title>
<g id="a_edge4_Node000003_Node000005"><a xlink:title=" ">
<path fill="none" stroke="#63b8ff" d="M426.85,-138.39C446.19,-152.99 482.66,-179.61 516,-198.75 518.05,-199.93 520.16,-201.1 522.31,-202.25"/>
<polygon fill="#63b8ff" stroke="#63b8ff" points="520.69,-205.35 531.18,-206.82 523.89,-199.13 520.69,-205.35"/>
</a>
</g>
</g>
<!-- Node6 -->
<g id="Node000006" class="node">
<title>Node6</title>
<g id="a_Node000006"><a xlink:href="classexpress_1_1Controller.html#a830cb9ca5febfce72e872e775e9677be" target="_top" xlink:title=" ">
<polygon fill="white" stroke="#666666" points="626.5,-137.5 518.25,-137.5 518.25,-104 626.5,-104 626.5,-137.5"/>
<text xml:space="preserve" text-anchor="start" x="526.25" y="-124" font-family="Helvetica,sans-Serif" font-size="10.00">express::Controller</text>
<text xml:space="preserve" text-anchor="middle" x="572.38" y="-111.25" font-family="Helvetica,sans-Serif" font-size="10.00">::getStrictRouting</text>
</a>
</g>
</g>
<!-- Node3&#45;&gt;Node6 -->
<g id="edge6_Node000003_Node000006" class="edge">
<title>Node3&#45;&gt;Node6</title>
<g id="a_edge6_Node000003_Node000006"><a xlink:title=" ">
<path fill="none" stroke="#63b8ff" d="M480.17,-124.78C488.96,-124.39 497.95,-124 506.7,-123.61"/>
<polygon fill="#63b8ff" stroke="#63b8ff" points="506.68,-127.11 516.52,-123.17 506.37,-120.12 506.68,-127.11"/>
</a>
</g>
</g>
<!-- Node7 -->
<g id="Node000007" class="node">
<title>Node7</title>
<g id="a_Node000007"><a xlink:href="classexpress_1_1Controller.html#aaff8f54ab62ad5ace41ab46c680c5edb" target="_top" xlink:title=" ">
<polygon fill="white" stroke="#666666" points="626.5,-85.5 518.25,-85.5 518.25,-52 626.5,-52 626.5,-85.5"/>
<text xml:space="preserve" text-anchor="start" x="526.25" y="-72" font-family="Helvetica,sans-Serif" font-size="10.00">express::Controller</text>
<text xml:space="preserve" text-anchor="middle" x="572.38" y="-59.25" font-family="Helvetica,sans-Serif" font-size="10.00">::setCurrentRoute</text>
</a>
</g>
</g>
<!-- Node3&#45;&gt;Node7 -->
<g id="edge7_Node000003_Node000007" class="edge">
<title>Node3&#45;&gt;Node7</title>
<g id="a_edge7_Node000003_Node000007"><a xlink:title=" ">
<path fill="none" stroke="#63b8ff" d="M442.05,-116.93C462.27,-109.39 489.91,-99.1 514.45,-89.96"/>
<polygon fill="#63b8ff" stroke="#63b8ff" points="515.53,-93.29 523.68,-86.52 513.09,-86.73 515.53,-93.29"/>
</a>
</g>
</g>
<!-- Node8 -->
<g id="Node000008" class="node">
<title>Node8</title>
<g id="a_Node000008"><a xlink:href="classexpress_1_1Controller.html#a7ffebbf48d02df4cbfb275c5fbb77f36" target="_top" xlink:title=" ">
<polygon fill="white" stroke="#666666" points="626.5,-33.5 518.25,-33.5 518.25,0 626.5,0 626.5,-33.5"/>
<text xml:space="preserve" text-anchor="start" x="526.25" y="-20" font-family="Helvetica,sans-Serif" font-size="10.00">express::Controller</text>
<text xml:space="preserve" text-anchor="middle" x="572.38" y="-7.25" font-family="Helvetica,sans-Serif" font-size="10.00">::setStrictRouting</text>
</a>
</g>
</g>
<!-- Node3&#45;&gt;Node8 -->
<g id="edge8_Node000003_Node000008" class="edge">
<title>Node3&#45;&gt;Node8</title>
<g id="a_edge8_Node000003_Node000008"><a xlink:title=" ">
<path fill="none" stroke="#63b8ff" d="M424.01,-117.06C442.11,-99.87 479.76,-65.7 516,-42.75 517.85,-41.58 519.76,-40.43 521.71,-39.3"/>
<polygon fill="#63b8ff" stroke="#63b8ff" points="523.24,-42.45 530.37,-34.61 519.91,-36.3 523.24,-42.45"/>
</a>
</g>
</g>
<!-- Node5&#45;&gt;Node1 -->
<g id="edge5_Node000005_Node000001" class="edge">
<title>Node5&#45;&gt;Node1</title>
<g id="a_edge5_Node000005_Node000001"><a xlink:title=" ">
<path fill="none" stroke="#63b8ff" d="M517.8,-219.73C434.4,-211.91 272.57,-196.74 170.92,-187.21"/>
<polygon fill="#63b8ff" stroke="#63b8ff" points="171.53,-183.76 161.25,-186.31 170.88,-190.73 171.53,-183.76"/>
</a>
</g>
</g>
</g>
</svg>

<g id="navigator" transform="translate(0 0)" fill="#404254">
  <rect fill="#f2f5e9" fill-opacity="0.5" stroke="#606060" stroke-width=".5" x="0" y="0" width="60" height="60"/>
  <use id="zoomplus" xlink:href="#zoomPlus" x="17" y="9" onmousedown="handleZoom(evt,'in')"/>
  <use id="zoomminus" xlink:href="#zoomMin" x="42" y="9" onmousedown="handleZoom(evt,'out')"/>
  <use id="reset" xlink:href="#resetDef" x="30" y="36" onmousedown="handleReset()"/>
   <use id="arrowup" xlink:href="#arrowUp" x="0" y="0" onmousedown="handlePan(0,-1)"/>
  <use id="arrowright" xlink:href="#arrowRight" x="0" y="0" onmousedown="handlePan(1,0)"/>
  <use id="arrowdown" xlink:href="#arrowDown" x="0" y="0" onmousedown="handlePan(0,1)"/>
  <use id="arrowleft" xlink:href="#arrowLeft" x="0" y="0" onmousedown="handlePan(-1,0)"/>
</g>
<svg viewBox="0 0 15 15" width="100%" height="30px" preserveAspectRatio="xMaxYMin meet">
 <g id="arrow_out" transform="scale(0.3 0.3)">
  <a xlink:href="classexpress_1_1Route_a8c878f3ae8be82aa01d8a73d55759771_cgraph_org.svg" target="_base">
   <rect id="button" ry="5" rx="5" y="6" x="6" height="38" width="38"
        fill="#f2f5e9" fill-opacity="0.5" stroke="#606060" stroke-width="1.0"/>
   <path id="arrow"
     d="M 11.500037,31.436501 C 11.940474,20.09759 22.043105,11.32322 32.158766,21.979434 L 37.068811,17.246167 C 37.068811,17.246167 37.088388,32 37.088388,32 L 22.160133,31.978069 C 22.160133,31.978069 26.997745,27.140456 26.997745,27.140456 C 18.528582,18.264221 13.291696,25.230495 11.500037,31.436501 z"
     style="fill:#404040;"/>
  </a>
 </g>
</svg>

<style type='text/css'>
<![CDATA[
[data-mouse-over-selected='false'] { opacity: 0.7; }
[data-mouse-over-selected='true']  { opacity: 1.0; }
]]>
</style>
<script type="application/ecmascript"><![CDATA[
document.addEventListener('DOMContentLoaded', (event) => {
  highlightEdges();
  highlightAdjacentNodes();
});
]]></script>
</svg>
