<?xml version="1.0" encoding="UTF-8" standalone="no"?>
<!DOCTYPE svg PUBLIC "-//W3C//DTD SVG 1.1//EN"
 "http://www.w3.org/Graphics/SVG/1.1/DTD/svg11.dtd">
<!-- Generated by graphviz version 2.42.4 (0)
 -->
<!-- Title: src/utils/CLI11.hpp Pages: 1 -->
<svg width="2193pt" height="82pt"
 viewBox="0.00 0.00 2193.00 82.00" xmlns="http://www.w3.org/2000/svg" xmlns:xlink="http://www.w3.org/1999/xlink">
<g id="graph0" class="graph" transform="scale(1 1) rotate(0) translate(4 78)">
<title>src/utils/CLI11.hpp</title>
<!-- Node1 -->
<g id="Node000001" class="node">
<title>Node1</title>
<g id="a_Node000001"><a xlink:title=" ">
<polygon fill="#999999" stroke="#666666" points="1156,-74 1050,-74 1050,-55 1156,-55 1156,-74"/>
<text text-anchor="middle" x="1103" y="-62" font-family="Helvetica,sans-Serif" font-size="10.00">src/utils/CLI11.hpp</text>
</a>
</g>
</g>
<!-- Node2 -->
<g id="Node000002" class="node">
<title>Node2</title>
<g id="a_Node000002"><a xlink:title=" ">
<polygon fill="#e0e0e0" stroke="#999999" points="64,-19 0,-19 0,0 64,0 64,-19"/>
<text text-anchor="middle" x="32" y="-7" font-family="Helvetica,sans-Serif" font-size="10.00">algorithm</text>
</a>
</g>
</g>
<!-- Node1&#45;&gt;Node2 -->
<g id="edge1_Node000001_Node000002" class="edge">
<title>Node1&#45;&gt;Node2</title>
<g id="a_edge1_Node000001_Node000002"><a xlink:title=" ">
<path fill="none" stroke="#63b8ff" d="M1049.79,-62.34C869.86,-58.22 284.23,-43.37 74.16,-18.89"/>
<polygon fill="#63b8ff" stroke="#63b8ff" points="74.49,-15.4 64.15,-17.68 73.65,-22.35 74.49,-15.4"/>
</a>
</g>
</g>
<!-- Node3 -->
<g id="Node000003" class="node">
<title>Node3</title>
<g id="a_Node000003"><a xlink:title=" ">
<polygon fill="#e0e0e0" stroke="#999999" points="124,-19 82,-19 82,0 124,0 124,-19"/>
<text text-anchor="middle" x="103" y="-7" font-family="Helvetica,sans-Serif" font-size="10.00">array</text>
</a>
</g>
</g>
<!-- Node1&#45;&gt;Node3 -->
<g id="edge2_Node000001_Node000003" class="edge">
<title>Node1&#45;&gt;Node3</title>
<g id="a_edge2_Node000001_Node000003"><a xlink:title=" ">
<path fill="none" stroke="#63b8ff" d="M1049.79,-62.67C876.83,-59.73 330.87,-48.42 134.11,-18.72"/>
<polygon fill="#63b8ff" stroke="#63b8ff" points="134.59,-15.25 124.17,-17.15 133.5,-22.16 134.59,-15.25"/>
</a>
</g>
</g>
<!-- Node4 -->
<g id="Node000004" class="node">
<title>Node4</title>
<g id="a_Node000004"><a xlink:title=" ">
<polygon fill="#e0e0e0" stroke="#999999" points="191.5,-19 142.5,-19 142.5,0 191.5,0 191.5,-19"/>
<text text-anchor="middle" x="167" y="-7" font-family="Helvetica,sans-Serif" font-size="10.00">cctype</text>
</a>
</g>
</g>
<!-- Node1&#45;&gt;Node4 -->
<g id="edge3_Node000001_Node000004" class="edge">
<title>Node1&#45;&gt;Node4</title>
<g id="a_edge3_Node000001_Node000004"><a xlink:title=" ">
<path fill="none" stroke="#63b8ff" d="M1049.71,-62.29C884.97,-58.34 384.51,-44.64 201.77,-18.92"/>
<polygon fill="#63b8ff" stroke="#63b8ff" points="202.16,-15.44 191.75,-17.45 201.14,-22.37 202.16,-15.44"/>
</a>
</g>
</g>
<!-- Node5 -->
<g id="Node000005" class="node">
<title>Node5</title>
<g id="a_Node000005"><a xlink:title=" ">
<polygon fill="#e0e0e0" stroke="#999999" points="260.5,-19 209.5,-19 209.5,0 260.5,0 260.5,-19"/>
<text text-anchor="middle" x="235" y="-7" font-family="Helvetica,sans-Serif" font-size="10.00">clocale</text>
</a>
</g>
</g>
<!-- Node1&#45;&gt;Node5 -->
<g id="edge4_Node000001_Node000005" class="edge">
<title>Node1&#45;&gt;Node5</title>
<g id="a_edge4_Node000001_Node000005"><a xlink:title=" ">
<path fill="none" stroke="#63b8ff" d="M1049.95,-64.18C918.92,-65.1 569.48,-63 270.68,-18.95"/>
<polygon fill="#63b8ff" stroke="#63b8ff" points="270.92,-15.45 260.51,-17.44 269.89,-22.37 270.92,-15.45"/>
</a>
</g>
</g>
<!-- Node6 -->
<g id="Node000006" class="node">
<title>Node6</title>
<g id="a_Node000006"><a xlink:title=" ">
<polygon fill="#e0e0e0" stroke="#999999" points="325.5,-19 278.5,-19 278.5,0 325.5,0 325.5,-19"/>
<text text-anchor="middle" x="302" y="-7" font-family="Helvetica,sans-Serif" font-size="10.00">cmath</text>
</a>
</g>
</g>
<!-- Node1&#45;&gt;Node6 -->
<g id="edge5_Node000001_Node000006" class="edge">
<title>Node1&#45;&gt;Node6</title>
<g id="a_edge5_Node000001_Node000006"><a xlink:title=" ">
<path fill="none" stroke="#63b8ff" d="M1049.55,-63.96C925.55,-64.25 608.75,-60.63 335.78,-18.76"/>
<polygon fill="#63b8ff" stroke="#63b8ff" points="336.1,-15.26 325.68,-17.19 335.02,-22.18 336.1,-15.26"/>
</a>
</g>
</g>
<!-- Node7 -->
<g id="Node000007" class="node">
<title>Node7</title>
<g id="a_Node000007"><a xlink:title=" ">
<polygon fill="#e0e0e0" stroke="#999999" points="394,-19 344,-19 344,0 394,0 394,-19"/>
<text text-anchor="middle" x="369" y="-7" font-family="Helvetica,sans-Serif" font-size="10.00">cstdint</text>
</a>
</g>
</g>
<!-- Node1&#45;&gt;Node7 -->
<g id="edge6_Node000001_Node000007" class="edge">
<title>Node1&#45;&gt;Node7</title>
<g id="a_edge6_Node000001_Node000007"><a xlink:title=" ">
<path fill="none" stroke="#63b8ff" d="M1049.96,-63.4C934.22,-62.48 650.35,-56.4 404.35,-18.9"/>
<polygon fill="#63b8ff" stroke="#63b8ff" points="404.56,-15.4 394.15,-17.33 403.5,-22.31 404.56,-15.4"/>
</a>
</g>
</g>
<!-- Node8 -->
<g id="Node000008" class="node">
<title>Node8</title>
<g id="a_Node000008"><a xlink:title=" ">
<polygon fill="#e0e0e0" stroke="#999999" points="461.5,-19 412.5,-19 412.5,0 461.5,0 461.5,-19"/>
<text text-anchor="middle" x="437" y="-7" font-family="Helvetica,sans-Serif" font-size="10.00">cstdlib</text>
</a>
</g>
</g>
<!-- Node1&#45;&gt;Node8 -->
<g id="edge7_Node000001_Node000008" class="edge">
<title>Node1&#45;&gt;Node8</title>
<g id="a_edge7_Node000001_Node000008"><a xlink:title=" ">
<path fill="none" stroke="#63b8ff" d="M1049.79,-62.88C942.27,-60.96 691.39,-53.05 471.88,-18.82"/>
<polygon fill="#63b8ff" stroke="#63b8ff" points="472.2,-15.33 461.78,-17.23 471.11,-22.25 472.2,-15.33"/>
</a>
</g>
</g>
<!-- Node9 -->
<g id="Node000009" class="node">
<title>Node9</title>
<g id="a_Node000009"><a xlink:title=" ">
<polygon fill="#e0e0e0" stroke="#999999" points="530,-19 480,-19 480,0 530,0 530,-19"/>
<text text-anchor="middle" x="505" y="-7" font-family="Helvetica,sans-Serif" font-size="10.00">cstring</text>
</a>
</g>
</g>
<!-- Node1&#45;&gt;Node9 -->
<g id="edge8_Node000001_Node000009" class="edge">
<title>Node1&#45;&gt;Node9</title>
<g id="a_edge8_Node000001_Node000009"><a xlink:title=" ">
<path fill="none" stroke="#63b8ff" d="M1049.77,-62.25C951.03,-59.28 732.75,-49.72 540.17,-18.91"/>
<polygon fill="#63b8ff" stroke="#63b8ff" points="540.59,-15.43 530.15,-17.28 539.46,-22.34 540.59,-15.43"/>
</a>
</g>
</g>
<!-- Node10 -->
<g id="Node000010" class="node">
<title>Node10</title>
<g id="a_Node000010"><a xlink:title=" ">
<polygon fill="#e0e0e0" stroke="#999999" points="599.5,-19 548.5,-19 548.5,0 599.5,0 599.5,-19"/>
<text text-anchor="middle" x="574" y="-7" font-family="Helvetica,sans-Serif" font-size="10.00">cwchar</text>
</a>
</g>
</g>
<!-- Node1&#45;&gt;Node10 -->
<g id="edge9_Node000001_Node000010" class="edge">
<title>Node1&#45;&gt;Node10</title>
<g id="a_edge9_Node000001_Node000010"><a xlink:title=" ">
<path fill="none" stroke="#63b8ff" d="M1049.91,-61.43C960.69,-57.37 774.96,-46.38 609.4,-18.99"/>
<polygon fill="#63b8ff" stroke="#63b8ff" points="609.97,-15.54 599.53,-17.33 608.81,-22.44 609.97,-15.54"/>
</a>
</g>
</g>
<!-- Node11 -->
<g id="Node000011" class="node">
<title>Node11</title>
<g id="a_Node000011"><a xlink:title=" ">
<polygon fill="#e0e0e0" stroke="#999999" points="682.5,-19 617.5,-19 617.5,0 682.5,0 682.5,-19"/>
<text text-anchor="middle" x="650" y="-7" font-family="Helvetica,sans-Serif" font-size="10.00">exception</text>
</a>
</g>
</g>
<!-- Node1&#45;&gt;Node11 -->
<g id="edge10_Node000001_Node000011" class="edge">
<title>Node1&#45;&gt;Node11</title>
<g id="a_edge10_Node000001_Node000011"><a xlink:title=" ">
<path fill="none" stroke="#63b8ff" d="M1049.78,-59.41C972.99,-53.14 826.48,-39.82 692.64,-19.13"/>
<polygon fill="#63b8ff" stroke="#63b8ff" points="693.04,-15.65 682.62,-17.56 691.96,-22.56 693.04,-15.65"/>
</a>
</g>
</g>
<!-- Node12 -->
<g id="Node000012" class="node">
<title>Node12</title>
<g id="a_Node000012"><a xlink:title=" ">
<polygon fill="#e0e0e0" stroke="#999999" points="755.5,-19 700.5,-19 700.5,0 755.5,0 755.5,-19"/>
<text text-anchor="middle" x="728" y="-7" font-family="Helvetica,sans-Serif" font-size="10.00">fstream</text>
</a>
</g>
</g>
<!-- Node1&#45;&gt;Node12 -->
<g id="edge11_Node000001_Node000012" class="edge">
<title>Node1&#45;&gt;Node12</title>
<g id="a_edge11_Node000001_Node000012"><a xlink:title=" ">
<path fill="none" stroke="#63b8ff" d="M1049.89,-58.21C984.96,-51.38 871.55,-38.23 765.74,-19.17"/>
<polygon fill="#63b8ff" stroke="#63b8ff" points="766.31,-15.72 755.85,-17.37 765.06,-22.61 766.31,-15.72"/>
</a>
</g>
</g>
<!-- Node13 -->
<g id="Node000013" class="node">
<title>Node13</title>
<g id="a_Node000013"><a xlink:title=" ">
<polygon fill="#e0e0e0" stroke="#999999" points="838.5,-19 773.5,-19 773.5,0 838.5,0 838.5,-19"/>
<text text-anchor="middle" x="806" y="-7" font-family="Helvetica,sans-Serif" font-size="10.00">functional</text>
</a>
</g>
</g>
<!-- Node1&#45;&gt;Node13 -->
<g id="edge12_Node000001_Node000013" class="edge">
<title>Node1&#45;&gt;Node13</title>
<g id="a_edge12_Node000001_Node000013"><a xlink:title=" ">
<path fill="none" stroke="#63b8ff" d="M1051.64,-54.95C1002.21,-46.64 925.09,-33.41 848.38,-19.03"/>
<polygon fill="#63b8ff" stroke="#63b8ff" points="849.02,-15.59 838.54,-17.18 847.72,-22.47 849.02,-15.59"/>
</a>
</g>
</g>
<!-- Node14 -->
<g id="Node000014" class="node">
<title>Node14</title>
<g id="a_Node000014"><a xlink:title=" ">
<polygon fill="#e0e0e0" stroke="#999999" points="913,-19 857,-19 857,0 913,0 913,-19"/>
<text text-anchor="middle" x="885" y="-7" font-family="Helvetica,sans-Serif" font-size="10.00">iomanip</text>
</a>
</g>
</g>
<!-- Node1&#45;&gt;Node14 -->
<g id="edge13_Node000001_Node000014" class="edge">
<title>Node1&#45;&gt;Node14</title>
<g id="a_edge13_Node000001_Node000014"><a xlink:title=" ">
<path fill="none" stroke="#63b8ff" d="M1067.97,-54.98C1028.25,-45.33 963.71,-29.64 922.86,-19.7"/>
<polygon fill="#63b8ff" stroke="#63b8ff" points="923.55,-16.27 913.01,-17.31 921.9,-23.07 923.55,-16.27"/>
</a>
</g>
</g>
<!-- Node15 -->
<g id="Node000015" class="node">
<title>Node15</title>
<g id="a_Node000015"><a xlink:title=" ">
<polygon fill="#e0e0e0" stroke="#999999" points="991,-19 931,-19 931,0 991,0 991,-19"/>
<text text-anchor="middle" x="961" y="-7" font-family="Helvetica,sans-Serif" font-size="10.00">iostream</text>
</a>
</g>
</g>
<!-- Node1&#45;&gt;Node15 -->
<g id="edge14_Node000001_Node000015" class="edge">
<title>Node1&#45;&gt;Node15</title>
<g id="a_edge14_Node000001_Node000015"><a xlink:title=" ">
<path fill="none" stroke="#63b8ff" d="M1080.19,-54.98C1056.83,-46.27 1020.3,-32.63 993.83,-22.75"/>
<polygon fill="#63b8ff" stroke="#63b8ff" points="994.82,-19.39 984.23,-19.17 992.37,-25.95 994.82,-19.39"/>
</a>
</g>
</g>
<!-- Node16 -->
<g id="Node000016" class="node">
<title>Node16</title>
<g id="a_Node000016"><a xlink:title=" ">
<polygon fill="#e0e0e0" stroke="#999999" points="1062.5,-19 1009.5,-19 1009.5,0 1062.5,0 1062.5,-19"/>
<text text-anchor="middle" x="1036" y="-7" font-family="Helvetica,sans-Serif" font-size="10.00">iterator</text>
</a>
</g>
</g>
<!-- Node1&#45;&gt;Node16 -->
<g id="edge15_Node000001_Node000016" class="edge">
<title>Node1&#45;&gt;Node16</title>
<g id="a_edge15_Node000001_Node000016"><a xlink:title=" ">
<path fill="none" stroke="#63b8ff" d="M1092.24,-54.98C1082.23,-47.07 1067.11,-35.11 1055.07,-25.58"/>
<polygon fill="#63b8ff" stroke="#63b8ff" points="1056.97,-22.63 1046.96,-19.17 1052.63,-28.12 1056.97,-22.63"/>
</a>
</g>
</g>
<!-- Node17 -->
<g id="Node000017" class="node">
<title>Node17</title>
<g id="a_Node000017"><a xlink:title=" ">
<polygon fill="#e0e0e0" stroke="#999999" points="1125,-19 1081,-19 1081,0 1125,0 1125,-19"/>
<text text-anchor="middle" x="1103" y="-7" font-family="Helvetica,sans-Serif" font-size="10.00">limits</text>
</a>
</g>
</g>
<!-- Node1&#45;&gt;Node17 -->
<g id="edge16_Node000001_Node000017" class="edge">
<title>Node1&#45;&gt;Node17</title>
<g id="a_edge16_Node000001_Node000017"><a xlink:title=" ">
<path fill="none" stroke="#63b8ff" d="M1103,-54.75C1103,-47.8 1103,-37.85 1103,-29.13"/>
<polygon fill="#63b8ff" stroke="#63b8ff" points="1106.5,-29.09 1103,-19.09 1099.5,-29.09 1106.5,-29.09"/>
</a>
</g>
</g>
<!-- Node18 -->
<g id="Node000018" class="node">
<title>Node18</title>
<g id="a_Node000018"><a xlink:title=" ">
<polygon fill="#e0e0e0" stroke="#999999" points="1189,-19 1143,-19 1143,0 1189,0 1189,-19"/>
<text text-anchor="middle" x="1166" y="-7" font-family="Helvetica,sans-Serif" font-size="10.00">locale</text>
</a>
</g>
</g>
<!-- Node1&#45;&gt;Node18 -->
<g id="edge17_Node000001_Node000018" class="edge">
<title>Node1&#45;&gt;Node18</title>
<g id="a_edge17_Node000001_Node000018"><a xlink:title=" ">
<path fill="none" stroke="#63b8ff" d="M1113.12,-54.98C1122.44,-47.15 1136.47,-35.34 1147.74,-25.86"/>
<polygon fill="#63b8ff" stroke="#63b8ff" points="1150.29,-28.29 1155.69,-19.17 1145.79,-22.93 1150.29,-28.29"/>
</a>
</g>
</g>
<!-- Node19 -->
<g id="Node000019" class="node">
<title>Node19</title>
<g id="a_Node000019"><a xlink:title=" ">
<polygon fill="#e0e0e0" stroke="#999999" points="1245,-19 1207,-19 1207,0 1245,0 1245,-19"/>
<text text-anchor="middle" x="1226" y="-7" font-family="Helvetica,sans-Serif" font-size="10.00">map</text>
</a>
</g>
</g>
<!-- Node1&#45;&gt;Node19 -->
<g id="edge18_Node000001_Node000019" class="edge">
<title>Node1&#45;&gt;Node19</title>
<g id="a_edge18_Node000001_Node000019"><a xlink:title=" ">
<path fill="none" stroke="#63b8ff" d="M1122.76,-54.98C1142.96,-46.28 1174.55,-32.67 1197.46,-22.8"/>
<polygon fill="#63b8ff" stroke="#63b8ff" points="1198.89,-25.99 1206.69,-18.82 1196.12,-19.56 1198.89,-25.99"/>
</a>
</g>
</g>
<!-- Node20 -->
<g id="Node000020" class="node">
<title>Node20</title>
<g id="a_Node000020"><a xlink:title=" ">
<polygon fill="#e0e0e0" stroke="#999999" points="1321,-19 1263,-19 1263,0 1321,0 1321,-19"/>
<text text-anchor="middle" x="1292" y="-7" font-family="Helvetica,sans-Serif" font-size="10.00">memory</text>
</a>
</g>
</g>
<!-- Node1&#45;&gt;Node20 -->
<g id="edge19_Node000001_Node000020" class="edge">
<title>Node1&#45;&gt;Node20</title>
<g id="a_edge19_Node000001_Node000020"><a xlink:title=" ">
<path fill="none" stroke="#63b8ff" d="M1133.37,-54.98C1165.85,-45.88 1217.47,-31.4 1252.95,-21.45"/>
<polygon fill="#63b8ff" stroke="#63b8ff" points="1254.27,-24.72 1262.95,-18.65 1252.38,-17.98 1254.27,-24.72"/>
</a>
</g>
</g>
<!-- Node21 -->
<g id="Node000021" class="node">
<title>Node21</title>
<g id="a_Node000021"><a xlink:title=" ">
<polygon fill="#e0e0e0" stroke="#999999" points="1395,-19 1339,-19 1339,0 1395,0 1395,-19"/>
<text text-anchor="middle" x="1367" y="-7" font-family="Helvetica,sans-Serif" font-size="10.00">numeric</text>
</a>
</g>
</g>
<!-- Node1&#45;&gt;Node21 -->
<g id="edge20_Node000001_Node000021" class="edge">
<title>Node1&#45;&gt;Node21</title>
<g id="a_edge20_Node000001_Node000021"><a xlink:title=" ">
<path fill="none" stroke="#63b8ff" d="M1148.74,-54.98C1192.5,-46.73 1260.59,-33.63 1328.69,-19.23"/>
<polygon fill="#63b8ff" stroke="#63b8ff" points="1329.69,-22.59 1338.74,-17.09 1328.23,-15.75 1329.69,-22.59"/>
</a>
</g>
</g>
<!-- Node22 -->
<g id="Node000022" class="node">
<title>Node22</title>
<g id="a_Node000022"><a xlink:title=" ">
<polygon fill="#e0e0e0" stroke="#999999" points="1445,-19 1413,-19 1413,0 1445,0 1445,-19"/>
<text text-anchor="middle" x="1429" y="-7" font-family="Helvetica,sans-Serif" font-size="10.00">set</text>
</a>
</g>
</g>
<!-- Node1&#45;&gt;Node22 -->
<g id="edge21_Node000001_Node000022" class="edge">
<title>Node1&#45;&gt;Node22</title>
<g id="a_edge21_Node000001_Node000022"><a xlink:title=" ">
<path fill="none" stroke="#63b8ff" d="M1156.03,-58.59C1214.52,-52.53 1311.47,-40.56 1403.26,-18.77"/>
<polygon fill="#63b8ff" stroke="#63b8ff" points="1404.09,-22.17 1412.99,-16.42 1402.45,-15.37 1404.09,-22.17"/>
</a>
</g>
</g>
<!-- Node23 -->
<g id="Node000023" class="node">
<title>Node23</title>
<g id="a_Node000023"><a xlink:title=" ">
<polygon fill="#e0e0e0" stroke="#999999" points="1519,-19 1463,-19 1463,0 1519,0 1519,-19"/>
<text text-anchor="middle" x="1491" y="-7" font-family="Helvetica,sans-Serif" font-size="10.00">sstream</text>
</a>
</g>
</g>
<!-- Node1&#45;&gt;Node23 -->
<g id="edge22_Node000001_Node000023" class="edge">
<title>Node1&#45;&gt;Node23</title>
<g id="a_edge22_Node000001_Node000023"><a xlink:title=" ">
<path fill="none" stroke="#63b8ff" d="M1156.17,-58.43C1223.13,-51.67 1341.86,-38.46 1452.76,-19.06"/>
<polygon fill="#63b8ff" stroke="#63b8ff" points="1453.54,-22.48 1462.78,-17.29 1452.32,-15.59 1453.54,-22.48"/>
</a>
</g>
</g>
<!-- Node24 -->
<g id="Node000024" class="node">
<title>Node24</title>
<g id="a_Node000024"><a xlink:title=" ">
<polygon fill="#e0e0e0" stroke="#999999" points="1602.5,-19 1537.5,-19 1537.5,0 1602.5,0 1602.5,-19"/>
<text text-anchor="middle" x="1570" y="-7" font-family="Helvetica,sans-Serif" font-size="10.00">stdexcept</text>
</a>
</g>
</g>
<!-- Node1&#45;&gt;Node24 -->
<g id="edge23_Node000001_Node000024" class="edge">
<title>Node1&#45;&gt;Node24</title>
<g id="a_edge23_Node000001_Node000024"><a xlink:title=" ">
<path fill="none" stroke="#63b8ff" d="M1156.21,-59.57C1235.01,-53.38 1387.54,-40.03 1527.44,-18.93"/>
<polygon fill="#63b8ff" stroke="#63b8ff" points="1528.14,-22.36 1537.5,-17.4 1527.08,-15.44 1528.14,-22.36"/>
</a>
</g>
</g>
<!-- Node25 -->
<g id="Node000025" class="node">
<title>Node25</title>
<g id="a_Node000025"><a xlink:title=" ">
<polygon fill="#e0e0e0" stroke="#999999" points="1665,-19 1621,-19 1621,0 1665,0 1665,-19"/>
<text text-anchor="middle" x="1643" y="-7" font-family="Helvetica,sans-Serif" font-size="10.00">string</text>
</a>
</g>
</g>
<!-- Node1&#45;&gt;Node25 -->
<g id="edge24_Node000001_Node000025" class="edge">
<title>Node1&#45;&gt;Node25</title>
<g id="a_edge24_Node000001_Node000025"><a xlink:title=" ">
<path fill="none" stroke="#63b8ff" d="M1156.17,-62C1247.47,-58.75 1439.91,-48.89 1610.83,-18.89"/>
<polygon fill="#63b8ff" stroke="#63b8ff" points="1611.53,-22.32 1620.76,-17.11 1610.3,-15.42 1611.53,-22.32"/>
</a>
</g>
</g>
<!-- Node26 -->
<g id="Node000026" class="node">
<title>Node26</title>
<g id="a_Node000026"><a xlink:title=" ">
<polygon fill="#e0e0e0" stroke="#999999" points="1724.5,-19 1683.5,-19 1683.5,0 1724.5,0 1724.5,-19"/>
<text text-anchor="middle" x="1704" y="-7" font-family="Helvetica,sans-Serif" font-size="10.00">tuple</text>
</a>
</g>
</g>
<!-- Node1&#45;&gt;Node26 -->
<g id="edge25_Node000001_Node000026" class="edge">
<title>Node1&#45;&gt;Node26</title>
<g id="a_edge25_Node000001_Node000026"><a xlink:title=" ">
<path fill="none" stroke="#63b8ff" d="M1156.19,-62.86C1255.98,-60.91 1478.05,-52.96 1673.59,-18.66"/>
<polygon fill="#63b8ff" stroke="#63b8ff" points="1674.24,-22.1 1683.47,-16.9 1673.01,-15.21 1674.24,-22.1"/>
</a>
</g>
</g>
<!-- Node27 -->
<g id="Node000027" class="node">
<title>Node27</title>
<g id="a_Node000027"><a xlink:title=" ">
<polygon fill="#e0e0e0" stroke="#999999" points="1811.5,-19 1742.5,-19 1742.5,0 1811.5,0 1811.5,-19"/>
<text text-anchor="middle" x="1777" y="-7" font-family="Helvetica,sans-Serif" font-size="10.00">type_traits</text>
</a>
</g>
</g>
<!-- Node1&#45;&gt;Node27 -->
<g id="edge26_Node000001_Node000027" class="edge">
<title>Node1&#45;&gt;Node27</title>
<g id="a_edge26_Node000001_Node000027"><a xlink:title=" ">
<path fill="none" stroke="#63b8ff" d="M1156.41,-61.98C1263.77,-58.44 1513.48,-47.75 1732.26,-19.07"/>
<polygon fill="#63b8ff" stroke="#63b8ff" points="1732.88,-22.52 1742.33,-17.74 1731.95,-15.58 1732.88,-22.52"/>
</a>
</g>
</g>
<!-- Node28 -->
<g id="Node000028" class="node">
<title>Node28</title>
<g id="a_Node000028"><a xlink:title=" ">
<polygon fill="#e0e0e0" stroke="#999999" points="1874.5,-19 1829.5,-19 1829.5,0 1874.5,0 1874.5,-19"/>
<text text-anchor="middle" x="1852" y="-7" font-family="Helvetica,sans-Serif" font-size="10.00">utility</text>
</a>
</g>
</g>
<!-- Node1&#45;&gt;Node28 -->
<g id="edge27_Node000001_Node000028" class="edge">
<title>Node1&#45;&gt;Node28</title>
<g id="a_edge27_Node000001_Node000028"><a xlink:title=" ">
<path fill="none" stroke="#63b8ff" d="M1156.12,-63.93C1274.14,-64.07 1567.05,-60.03 1819.34,-18.93"/>
<polygon fill="#63b8ff" stroke="#63b8ff" points="1820.14,-22.35 1829.43,-17.26 1819,-15.44 1820.14,-22.35"/>
</a>
</g>
</g>
<!-- Node29 -->
<g id="Node000029" class="node">
<title>Node29</title>
<g id="a_Node000029"><a xlink:title=" ">
<polygon fill="#e0e0e0" stroke="#999999" points="1939.5,-19 1892.5,-19 1892.5,0 1939.5,0 1939.5,-19"/>
<text text-anchor="middle" x="1916" y="-7" font-family="Helvetica,sans-Serif" font-size="10.00">vector</text>
</a>
</g>
</g>
<!-- Node1&#45;&gt;Node29 -->
<g id="edge28_Node000001_Node000029" class="edge">
<title>Node1&#45;&gt;Node29</title>
<g id="a_edge28_Node000001_Node000029"><a xlink:title=" ">
<path fill="none" stroke="#63b8ff" d="M1156.43,-64.17C1281.89,-64.94 1605.07,-62.3 1882.1,-18.98"/>
<polygon fill="#63b8ff" stroke="#63b8ff" points="1883.02,-22.38 1892.35,-17.35 1881.92,-15.46 1883.02,-22.38"/>
</a>
</g>
</g>
<!-- Node30 -->
<g id="Node000030" class="node">
<title>Node30</title>
<g id="a_Node000030"><a xlink:title=" ">
<polygon fill="#e0e0e0" stroke="#999999" points="2012.5,-19 1957.5,-19 1957.5,0 2012.5,0 2012.5,-19"/>
<text text-anchor="middle" x="1985" y="-7" font-family="Helvetica,sans-Serif" font-size="10.00">codecvt</text>
</a>
</g>
</g>
<!-- Node1&#45;&gt;Node30 -->
<g id="edge29_Node000001_Node000030" class="edge">
<title>Node1&#45;&gt;Node30</title>
<g id="a_edge29_Node000001_Node000030"><a xlink:title=" ">
<path fill="none" stroke="#63b8ff" d="M1156.28,-64C1288.73,-64.53 1643.54,-61.64 1946.87,-19.05"/>
<polygon fill="#63b8ff" stroke="#63b8ff" points="1947.78,-22.46 1957.19,-17.59 1946.79,-15.53 1947.78,-22.46"/>
</a>
</g>
</g>
<!-- Node31 -->
<g id="Node000031" class="node">
<title>Node31</title>
<g id="a_Node000031"><a xlink:title=" ">
<polygon fill="#e0e0e0" stroke="#999999" points="2095,-19 2031,-19 2031,0 2095,0 2095,-19"/>
<text text-anchor="middle" x="2063" y="-7" font-family="Helvetica,sans-Serif" font-size="10.00">sys/stat.h</text>
</a>
</g>
</g>
<!-- Node1&#45;&gt;Node31 -->
<g id="edge30_Node000001_Node000031" class="edge">
<title>Node1&#45;&gt;Node31</title>
<g id="a_edge30_Node000001_Node000031"><a xlink:title=" ">
<path fill="none" stroke="#63b8ff" d="M1156.09,-63.82C1296.04,-64.03 1686.66,-60.65 2020.49,-18.97"/>
<polygon fill="#63b8ff" stroke="#63b8ff" points="2021.37,-22.38 2030.85,-17.66 2020.49,-15.44 2021.37,-22.38"/>
</a>
</g>
</g>
<!-- Node32 -->
<g id="Node000032" class="node">
<title>Node32</title>
<g id="a_Node000032"><a xlink:title=" ">
<polygon fill="#e0e0e0" stroke="#999999" points="2185,-19 2113,-19 2113,0 2185,0 2185,-19"/>
<text text-anchor="middle" x="2149" y="-7" font-family="Helvetica,sans-Serif" font-size="10.00">sys/types.h</text>
</a>
</g>
</g>
<!-- Node1&#45;&gt;Node32 -->
<g id="edge31_Node000001_Node000032" class="edge">
<title>Node1&#45;&gt;Node32</title>
<g id="a_edge31_Node000001_Node000032"><a xlink:title=" ">
<path fill="none" stroke="#63b8ff" d="M1156.12,-63.79C1304.43,-64.04 1735.62,-60.9 2102.7,-18.97"/>
<polygon fill="#63b8ff" stroke="#63b8ff" points="2103.19,-22.44 2112.72,-17.81 2102.38,-15.48 2103.19,-22.44"/>
</a>
</g>
</g>
</g>
</svg>
