<?xml version="1.0" encoding="UTF-8" standalone="no"?>
<!DOCTYPE svg PUBLIC "-//W3C//DTD SVG 1.1//EN"
 "http://www.w3.org/Graphics/SVG/1.1/DTD/svg11.dtd">
<!-- Generated by graphviz version 2.43.0 (0)
 -->
<!-- Title: iot/mqtt/client/ControlPacketDeserializer.cpp Pages: 1 -->
<svg width="202pt" height="159pt"
 viewBox="0.00 0.00 202.00 159.00" xmlns="http://www.w3.org/2000/svg" xmlns:xlink="http://www.w3.org/1999/xlink">
<g id="graph0" class="graph" transform="scale(1 1) rotate(0) translate(4 155)">
<title>iot/mqtt/client/ControlPacketDeserializer.cpp</title>
<!-- Node1 -->
<g id="Node000001" class="node">
<title>Node1</title>
<g id="a_Node000001"><a xlink:title=" ">
<polygon fill="#999999" stroke="#666666" points="175,-151 19,-151 19,-121 175,-121 175,-151"/>
<text text-anchor="start" x="27" y="-139" font-family="Helvetica,sans-Serif" font-size="10.00">iot/mqtt/client/ControlPacket</text>
<text text-anchor="middle" x="97" y="-128" font-family="Helvetica,sans-Serif" font-size="10.00">Deserializer.cpp</text>
</a>
</g>
</g>
<!-- Node2 -->
<g id="Node000002" class="node">
<title>Node2</title>
<g id="a_Node000002"><a xlink:href="client_2_control_packet_deserializer_8h.html" target="_top" xlink:title=" ">
<polygon fill="white" stroke="#666666" points="175,-85 19,-85 19,-55 175,-55 175,-85"/>
<text text-anchor="start" x="27" y="-73" font-family="Helvetica,sans-Serif" font-size="10.00">iot/mqtt/client/ControlPacket</text>
<text text-anchor="middle" x="97" y="-62" font-family="Helvetica,sans-Serif" font-size="10.00">Deserializer.h</text>
</a>
</g>
</g>
<!-- Node1&#45;&gt;Node2 -->
<g id="edge1_Node000001_Node000002" class="edge">
<title>Node1&#45;&gt;Node2</title>
<g id="a_edge1_Node000001_Node000002"><a xlink:title=" ">
<path fill="none" stroke="#63b8ff" d="M97,-120.8C97,-113.34 97,-103.99 97,-95.41"/>
<polygon fill="#63b8ff" stroke="#63b8ff" points="100.5,-95.16 97,-85.16 93.5,-95.16 100.5,-95.16"/>
</a>
</g>
</g>
<!-- Node3 -->
<g id="Node000003" class="node">
<title>Node3</title>
<g id="a_Node000003"><a xlink:href="_control_packet_deserializer_8h.html" target="_top" xlink:title=" ">
<polygon fill="white" stroke="#666666" points="194,-19 0,-19 0,0 194,0 194,-19"/>
<text text-anchor="middle" x="97" y="-7" font-family="Helvetica,sans-Serif" font-size="10.00">iot/mqtt/ControlPacketDeserializer.h</text>
</a>
</g>
</g>
<!-- Node2&#45;&gt;Node3 -->
<g id="edge2_Node000002_Node000003" class="edge">
<title>Node2&#45;&gt;Node3</title>
<g id="a_edge2_Node000002_Node000003"><a xlink:title=" ">
<path fill="none" stroke="#63b8ff" d="M97,-54.84C97,-47.21 97,-37.7 97,-29.45"/>
<polygon fill="#63b8ff" stroke="#63b8ff" points="100.5,-29.27 97,-19.27 93.5,-29.27 100.5,-29.27"/>
</a>
</g>
</g>
</g>
</svg>
