<?xml version="1.0" encoding="UTF-8" standalone="no"?>
<!DOCTYPE svg PUBLIC "-//W3C//DTD SVG 1.1//EN"
 "http://www.w3.org/Graphics/SVG/1.1/DTD/svg11.dtd">
<!-- Generated by graphviz version 14.1.2 (0)
 -->
<!-- Title: web/http/client/Client.h Pages: 1 -->
<svg width="762pt" height="351pt"
 viewBox="0.00 0.00 762.00 351.00" xmlns="http://www.w3.org/2000/svg" xmlns:xlink="http://www.w3.org/1999/xlink">
<g id="graph0" class="graph" transform="scale(1 1) rotate(0) translate(4 346.75)">
<title>web/http/client/Client.h</title>
<!-- Node1 -->
<g id="Node000001" class="node">
<title>Node1</title>
<g id="a_Node000001"><a xlink:title=" ">
<polygon fill="#999999" stroke="#666666" points="313.62,-342.75 184.38,-342.75 184.38,-322 313.62,-322 313.62,-342.75"/>
<text xml:space="preserve" text-anchor="middle" x="249" y="-329.25" font-family="Helvetica,sans-Serif" font-size="10.00">web/http/client/Client.h</text>
</a>
</g>
</g>
<!-- Node2 -->
<g id="Node000002" class="node">
<title>Node2</title>
<g id="a_Node000002"><a xlink:href="ConfigHTTP_8h.html" target="_top" xlink:title=" ">
<polygon fill="white" stroke="#666666" points="221.12,-279.62 64.88,-279.62 64.88,-258.88 221.12,-258.88 221.12,-279.62"/>
<text xml:space="preserve" text-anchor="middle" x="143" y="-266.12" font-family="Helvetica,sans-Serif" font-size="10.00">web/http/client/ConfigHTTP.h</text>
</a>
</g>
</g>
<!-- Node1&#45;&gt;Node2 -->
<g id="edge1_Node000001_Node000002" class="edge">
<title>Node1&#45;&gt;Node2</title>
<g id="a_edge1_Node000001_Node000002"><a xlink:title=" ">
<path fill="none" stroke="#63b8ff" d="M231.97,-321.55C215.2,-311.89 189.34,-296.97 169.81,-285.71"/>
<polygon fill="#63b8ff" stroke="#63b8ff" points="171.71,-282.77 161.3,-280.8 168.21,-288.83 171.71,-282.77"/>
</a>
</g>
</g>
<!-- Node5 -->
<g id="Node000005" class="node">
<title>Node5</title>
<g id="a_Node000005"><a xlink:href="web_2http_2client_2Request_8h.html" target="_top" xlink:title=" ">
<polygon fill="white" stroke="#666666" points="258.25,-77.5 117.75,-77.5 117.75,-56.75 258.25,-56.75 258.25,-77.5"/>
<text xml:space="preserve" text-anchor="middle" x="188" y="-64" font-family="Helvetica,sans-Serif" font-size="10.00">web/http/client/Request.h</text>
</a>
</g>
</g>
<!-- Node1&#45;&gt;Node5 -->
<g id="edge4_Node000001_Node000005" class="edge">
<title>Node1&#45;&gt;Node5</title>
<g id="a_edge4_Node000001_Node000005"><a xlink:title=" ">
<path fill="none" stroke="#63b8ff" d="M248.37,-321.55C246.13,-290.35 237.27,-190.95 211,-113.5 208.03,-104.75 203.64,-95.56 199.5,-87.77"/>
<polygon fill="#63b8ff" stroke="#63b8ff" points="202.63,-86.21 194.7,-79.18 196.52,-89.62 202.63,-86.21"/>
</a>
</g>
</g>
<!-- Node9 -->
<g id="Node000009" class="node">
<title>Node9</title>
<g id="a_Node000009"><a xlink:href="web_2http_2client_2SocketContextFactory_8h.html" target="_top" xlink:title=" ">
<polygon fill="white" stroke="#666666" points="468.12,-286 305.88,-286 305.88,-252.5 468.12,-252.5 468.12,-286"/>
<text xml:space="preserve" text-anchor="start" x="313.88" y="-272.5" font-family="Helvetica,sans-Serif" font-size="10.00">web/http/client/SocketContext</text>
<text xml:space="preserve" text-anchor="middle" x="387" y="-259.75" font-family="Helvetica,sans-Serif" font-size="10.00">Factory.h</text>
</a>
</g>
</g>
<!-- Node1&#45;&gt;Node9 -->
<g id="edge8_Node000001_Node000009" class="edge">
<title>Node1&#45;&gt;Node9</title>
<g id="a_edge8_Node000001_Node000009"><a xlink:title=" ">
<path fill="none" stroke="#63b8ff" d="M271.17,-321.55C289.67,-313.36 316.68,-301.4 339.96,-291.09"/>
<polygon fill="#63b8ff" stroke="#63b8ff" points="341.24,-294.35 348.96,-287.1 338.4,-287.95 341.24,-294.35"/>
</a>
</g>
</g>
<!-- Node3 -->
<g id="Node000003" class="node">
<title>Node3</title>
<g id="a_Node000003"><a xlink:href="ConfigSection_8h.html" target="_top" xlink:title=" ">
<polygon fill="white" stroke="#666666" points="215.12,-210.12 70.88,-210.12 70.88,-189.38 215.12,-189.38 215.12,-210.12"/>
<text xml:space="preserve" text-anchor="middle" x="143" y="-196.62" font-family="Helvetica,sans-Serif" font-size="10.00">net/config/ConfigSection.h</text>
</a>
</g>
</g>
<!-- Node2&#45;&gt;Node3 -->
<g id="edge2_Node000002_Node000003" class="edge">
<title>Node2&#45;&gt;Node3</title>
<g id="a_edge2_Node000002_Node000003"><a xlink:title=" ">
<path fill="none" stroke="#63b8ff" d="M143,-258.58C143,-248.96 143,-233.88 143,-221.54"/>
<polygon fill="#63b8ff" stroke="#63b8ff" points="146.5,-221.92 143,-211.92 139.5,-221.92 146.5,-221.92"/>
</a>
</g>
</g>
<!-- Node4 -->
<g id="Node000004" class="node">
<title>Node4</title>
<g id="a_Node000004"><a xlink:href="SubCommand_8h.html" target="_top" xlink:title=" ">
<polygon fill="white" stroke="#666666" points="201.62,-140.62 84.38,-140.62 84.38,-119.88 201.62,-119.88 201.62,-140.62"/>
<text xml:space="preserve" text-anchor="middle" x="143" y="-127.12" font-family="Helvetica,sans-Serif" font-size="10.00">utils/SubCommand.h</text>
</a>
</g>
</g>
<!-- Node3&#45;&gt;Node4 -->
<g id="edge3_Node000003_Node000004" class="edge">
<title>Node3&#45;&gt;Node4</title>
<g id="a_edge3_Node000003_Node000004"><a xlink:title=" ">
<path fill="none" stroke="#63b8ff" d="M143,-189.08C143,-179.46 143,-164.38 143,-152.04"/>
<polygon fill="#63b8ff" stroke="#63b8ff" points="146.5,-152.42 143,-142.42 139.5,-152.42 146.5,-152.42"/>
</a>
</g>
</g>
<!-- Node6 -->
<g id="Node000006" class="node">
<title>Node6</title>
<g id="a_Node000006"><a xlink:href="Sink_8h.html" target="_top" xlink:title=" ">
<polygon fill="white" stroke="#666666" points="94,-20.75 0,-20.75 0,0 94,0 94,-20.75"/>
<text xml:space="preserve" text-anchor="middle" x="47" y="-7.25" font-family="Helvetica,sans-Serif" font-size="10.00">core/pipe/Sink.h</text>
</a>
</g>
</g>
<!-- Node5&#45;&gt;Node6 -->
<g id="edge5_Node000005_Node000006" class="edge">
<title>Node5&#45;&gt;Node6</title>
<g id="a_edge5_Node000005_Node000006"><a xlink:title=" ">
<path fill="none" stroke="#63b8ff" d="M162.79,-56.34C140.44,-47.66 107.54,-34.88 82.52,-25.17"/>
<polygon fill="#63b8ff" stroke="#63b8ff" points="83.99,-21.98 73.4,-21.63 81.46,-28.51 83.99,-21.98"/>
</a>
</g>
</g>
<!-- Node7 -->
<g id="Node000007" class="node">
<title>Node7</title>
<g id="a_Node000007"><a xlink:href="ConnectionState_8h.html" target="_top" xlink:title=" ">
<polygon fill="white" stroke="#666666" points="263.5,-20.75 112.5,-20.75 112.5,0 263.5,0 263.5,-20.75"/>
<text xml:space="preserve" text-anchor="middle" x="188" y="-7.25" font-family="Helvetica,sans-Serif" font-size="10.00">web/http/ConnectionState.h</text>
</a>
</g>
</g>
<!-- Node5&#45;&gt;Node7 -->
<g id="edge6_Node000005_Node000007" class="edge">
<title>Node5&#45;&gt;Node7</title>
<g id="a_edge6_Node000005_Node000007"><a xlink:title=" ">
<path fill="none" stroke="#63b8ff" d="M188,-56.34C188,-49.72 188,-40.72 188,-32.52"/>
<polygon fill="#63b8ff" stroke="#63b8ff" points="191.5,-32.59 188,-22.59 184.5,-32.59 191.5,-32.59"/>
</a>
</g>
</g>
<!-- Node8 -->
<g id="Node000008" class="node">
<title>Node8</title>
<g id="a_Node000008"><a xlink:href="TransferEncoding_8h.html" target="_top" xlink:title=" ">
<polygon fill="white" stroke="#666666" points="436.38,-20.75 281.62,-20.75 281.62,0 436.38,0 436.38,-20.75"/>
<text xml:space="preserve" text-anchor="middle" x="359" y="-7.25" font-family="Helvetica,sans-Serif" font-size="10.00">web/http/TransferEncoding.h</text>
</a>
</g>
</g>
<!-- Node5&#45;&gt;Node8 -->
<g id="edge7_Node000005_Node000008" class="edge">
<title>Node5&#45;&gt;Node8</title>
<g id="a_edge7_Node000005_Node000008"><a xlink:title=" ">
<path fill="none" stroke="#63b8ff" d="M218.57,-56.34C246.21,-47.49 287.12,-34.39 317.66,-24.61"/>
<polygon fill="#63b8ff" stroke="#63b8ff" points="318.51,-28.01 326.96,-21.63 316.37,-21.35 318.51,-28.01"/>
</a>
</g>
</g>
<!-- Node10 -->
<g id="Node000010" class="node">
<title>Node10</title>
<g id="a_Node000010"><a xlink:href="core_2socket_2stream_2SocketContextFactory_8h.html" target="_top" xlink:title=" ">
<polygon fill="white" stroke="#666666" points="627,-216.5 491,-216.5 491,-183 627,-183 627,-216.5"/>
<text xml:space="preserve" text-anchor="start" x="499" y="-203" font-family="Helvetica,sans-Serif" font-size="10.00">core/socket/stream</text>
<text xml:space="preserve" text-anchor="middle" x="559" y="-190.25" font-family="Helvetica,sans-Serif" font-size="10.00">//SocketContextFactory.h</text>
</a>
</g>
</g>
<!-- Node9&#45;&gt;Node10 -->
<g id="edge9_Node000009_Node000010" class="edge">
<title>Node9&#45;&gt;Node10</title>
<g id="a_edge9_Node000009_Node000010"><a xlink:title=" ">
<path fill="none" stroke="#63b8ff" d="M428.2,-252.08C451.94,-242.77 482,-230.97 507.31,-221.03"/>
<polygon fill="#63b8ff" stroke="#63b8ff" points="508.4,-224.37 516.43,-217.46 505.84,-217.85 508.4,-224.37"/>
</a>
</g>
</g>
<!-- Node11 -->
<g id="Node000011" class="node">
<title>Node11</title>
<g id="a_Node000011"><a xlink:href="web_2http_2client_2SocketContext_8h.html" target="_top" xlink:title=" ">
<polygon fill="white" stroke="#666666" points="472.62,-210.12 301.38,-210.12 301.38,-189.38 472.62,-189.38 472.62,-210.12"/>
<text xml:space="preserve" text-anchor="middle" x="387" y="-196.62" font-family="Helvetica,sans-Serif" font-size="10.00">web/http/client/SocketContext.h</text>
</a>
</g>
</g>
<!-- Node9&#45;&gt;Node11 -->
<g id="edge10_Node000009_Node000011" class="edge">
<title>Node9&#45;&gt;Node11</title>
<g id="a_edge10_Node000009_Node000011"><a xlink:title=" ">
<path fill="none" stroke="#63b8ff" d="M387,-252.25C387,-243.15 387,-231.64 387,-221.82"/>
<polygon fill="#63b8ff" stroke="#63b8ff" points="390.5,-222.09 387,-212.09 383.5,-222.09 390.5,-222.09"/>
</a>
</g>
</g>
<!-- Node12 -->
<g id="Node000012" class="node">
<title>Node12</title>
<g id="a_Node000012"><a xlink:href="core_2socket_2stream_2SocketContext_8h.html" target="_top" xlink:title=" ">
<polygon fill="white" stroke="#666666" points="656.5,-147 547.5,-147 547.5,-113.5 656.5,-113.5 656.5,-147"/>
<text xml:space="preserve" text-anchor="start" x="555.5" y="-133.5" font-family="Helvetica,sans-Serif" font-size="10.00">core/socket/stream</text>
<text xml:space="preserve" text-anchor="middle" x="602" y="-120.75" font-family="Helvetica,sans-Serif" font-size="10.00">/SocketContext.h</text>
</a>
</g>
</g>
<!-- Node11&#45;&gt;Node12 -->
<g id="edge11_Node000011_Node000012" class="edge">
<title>Node11&#45;&gt;Node12</title>
<g id="a_edge11_Node000011_Node000012"><a xlink:title=" ">
<path fill="none" stroke="#63b8ff" d="M418.26,-188.93C449.88,-179.01 499.62,-163.39 539.38,-150.91"/>
<polygon fill="#63b8ff" stroke="#63b8ff" points="540.37,-154.27 548.87,-147.93 538.28,-147.59 540.37,-154.27"/>
</a>
</g>
</g>
<!-- Node14 -->
<g id="Node000014" class="node">
<title>Node14</title>
<g id="a_Node000014"><a xlink:href="ResponseParser_8h.html" target="_top" xlink:title=" ">
<polygon fill="white" stroke="#666666" points="456.5,-147 317.5,-147 317.5,-113.5 456.5,-113.5 456.5,-147"/>
<text xml:space="preserve" text-anchor="start" x="325.5" y="-133.5" font-family="Helvetica,sans-Serif" font-size="10.00">web/http/client/Response</text>
<text xml:space="preserve" text-anchor="middle" x="387" y="-120.75" font-family="Helvetica,sans-Serif" font-size="10.00">Parser.h</text>
</a>
</g>
</g>
<!-- Node11&#45;&gt;Node14 -->
<g id="edge13_Node000011_Node000014" class="edge">
<title>Node11&#45;&gt;Node14</title>
<g id="a_edge13_Node000011_Node000014"><a xlink:title=" ">
<path fill="none" stroke="#63b8ff" d="M387,-189.08C387,-181.19 387,-169.63 387,-158.91"/>
<polygon fill="#63b8ff" stroke="#63b8ff" points="390.5,-158.93 387,-148.93 383.5,-158.93 390.5,-158.93"/>
</a>
</g>
</g>
<!-- Node13 -->
<g id="Node000013" class="node">
<title>Node13</title>
<g id="a_Node000013"><a xlink:href="core_2socket_2SocketContext_8h.html" target="_top" xlink:title=" ">
<polygon fill="white" stroke="#666666" points="716,-77.5 562,-77.5 562,-56.75 716,-56.75 716,-77.5"/>
<text xml:space="preserve" text-anchor="middle" x="639" y="-64" font-family="Helvetica,sans-Serif" font-size="10.00">core/socket/SocketContext.h</text>
</a>
</g>
</g>
<!-- Node12&#45;&gt;Node13 -->
<g id="edge12_Node000012_Node000013" class="edge">
<title>Node12&#45;&gt;Node13</title>
<g id="a_edge12_Node000012_Node000013"><a xlink:title=" ">
<path fill="none" stroke="#63b8ff" d="M611.72,-113.19C616.48,-105.33 622.24,-95.81 627.25,-87.54"/>
<polygon fill="#63b8ff" stroke="#63b8ff" points="630.07,-89.63 632.26,-79.26 624.09,-86 630.07,-89.63"/>
</a>
</g>
</g>
<!-- Node15 -->
<g id="Node000015" class="node">
<title>Node15</title>
<g id="a_Node000015"><a xlink:href="Parser_8h.html" target="_top" xlink:title=" ">
<polygon fill="white" stroke="#666666" points="543.75,-77.5 442.25,-77.5 442.25,-56.75 543.75,-56.75 543.75,-77.5"/>
<text xml:space="preserve" text-anchor="middle" x="493" y="-64" font-family="Helvetica,sans-Serif" font-size="10.00">web/http/Parser.h</text>
</a>
</g>
</g>
<!-- Node14&#45;&gt;Node15 -->
<g id="edge14_Node000014_Node000015" class="edge">
<title>Node14&#45;&gt;Node15</title>
<g id="a_edge14_Node000014_Node000015"><a xlink:title=" ">
<path fill="none" stroke="#63b8ff" d="M415.13,-113.03C431.03,-103.86 450.79,-92.47 466.42,-83.45"/>
<polygon fill="#63b8ff" stroke="#63b8ff" points="467.8,-86.7 474.71,-78.67 464.3,-80.63 467.8,-86.7"/>
</a>
</g>
</g>
<!-- Node17 -->
<g id="Node000017" class="node">
<title>Node17</title>
<g id="a_Node000017"><a xlink:href="web_2http_2client_2Response_8h.html" target="_top" xlink:title=" ">
<polygon fill="white" stroke="#666666" points="424,-77.5 276,-77.5 276,-56.75 424,-56.75 424,-77.5"/>
<text xml:space="preserve" text-anchor="middle" x="350" y="-64" font-family="Helvetica,sans-Serif" font-size="10.00">web/http/client/Response.h</text>
</a>
</g>
</g>
<!-- Node14&#45;&gt;Node17 -->
<g id="edge17_Node000014_Node000017" class="edge">
<title>Node14&#45;&gt;Node17</title>
<g id="a_edge17_Node000014_Node000017"><a xlink:title=" ">
<path fill="none" stroke="#63b8ff" d="M377.28,-113.19C372.52,-105.33 366.76,-95.81 361.75,-87.54"/>
<polygon fill="#63b8ff" stroke="#63b8ff" points="364.91,-86 356.74,-79.26 358.93,-89.63 364.91,-86"/>
</a>
</g>
</g>
<!-- Node15&#45;&gt;Node8 -->
<g id="edge15_Node000015_Node000008" class="edge">
<title>Node15&#45;&gt;Node8</title>
<g id="a_edge15_Node000015_Node000008"><a xlink:title=" ">
<path fill="none" stroke="#63b8ff" d="M469.04,-56.34C447.99,-47.73 417.1,-35.11 393.4,-25.43"/>
<polygon fill="#63b8ff" stroke="#63b8ff" points="394.73,-22.19 384.15,-21.65 392.08,-28.67 394.73,-22.19"/>
</a>
</g>
</g>
<!-- Node16 -->
<g id="Node000016" class="node">
<title>Node16</title>
<g id="a_Node000016"><a xlink:href="Fields_8h.html" target="_top" xlink:title=" ">
<polygon fill="white" stroke="#666666" points="754.25,-20.75 613.75,-20.75 613.75,0 754.25,0 754.25,-20.75"/>
<text xml:space="preserve" text-anchor="middle" x="684" y="-7.25" font-family="Helvetica,sans-Serif" font-size="10.00">web/http/decoder/Fields.h</text>
</a>
</g>
</g>
<!-- Node15&#45;&gt;Node16 -->
<g id="edge16_Node000015_Node000016" class="edge">
<title>Node15&#45;&gt;Node16</title>
<g id="a_edge16_Node000015_Node000016"><a xlink:title=" ">
<path fill="none" stroke="#63b8ff" d="M527.15,-56.34C558.42,-47.37 604.92,-34.04 639.17,-24.23"/>
<polygon fill="#63b8ff" stroke="#63b8ff" points="639.72,-27.71 648.37,-21.59 637.79,-20.98 639.72,-27.71"/>
</a>
</g>
</g>
<!-- Node17&#45;&gt;Node7 -->
<g id="edge18_Node000017_Node000007" class="edge">
<title>Node17&#45;&gt;Node7</title>
<g id="a_edge18_Node000017_Node000007"><a xlink:title=" ">
<path fill="none" stroke="#63b8ff" d="M321.04,-56.34C294.97,-47.53 256.44,-34.5 227.54,-24.74"/>
<polygon fill="#63b8ff" stroke="#63b8ff" points="229.01,-21.54 218.42,-21.66 226.77,-28.17 229.01,-21.54"/>
</a>
</g>
</g>
<!-- Node18 -->
<g id="Node000018" class="node">
<title>Node18</title>
<g id="a_Node000018"><a xlink:href="CookieOptions_8h.html" target="_top" xlink:title=" ">
<polygon fill="white" stroke="#666666" points="596,-20.75 454,-20.75 454,0 596,0 596,-20.75"/>
<text xml:space="preserve" text-anchor="middle" x="525" y="-7.25" font-family="Helvetica,sans-Serif" font-size="10.00">web/http/CookieOptions.h</text>
</a>
</g>
</g>
<!-- Node17&#45;&gt;Node18 -->
<g id="edge19_Node000017_Node000018" class="edge">
<title>Node17&#45;&gt;Node18</title>
<g id="a_edge19_Node000017_Node000018"><a xlink:title=" ">
<path fill="none" stroke="#63b8ff" d="M381.29,-56.34C409.69,-47.45 451.81,-34.27 483.11,-24.48"/>
<polygon fill="#63b8ff" stroke="#63b8ff" points="483.75,-27.95 492.25,-21.62 481.66,-21.27 483.75,-27.95"/>
</a>
</g>
</g>
</g>
</svg>
