<?xml version="1.0" encoding="UTF-8" standalone="no"?>
<!DOCTYPE svg PUBLIC "-//W3C//DTD SVG 1.1//EN"
 "http://www.w3.org/Graphics/SVG/1.1/DTD/svg11.dtd">
<!-- Generated by graphviz version 2.42.4 (0)
 -->
<!-- Title: src/net/config/ConfigAddress.h Pages: 1 -->
<svg width="173pt" height="148pt"
 viewBox="0.00 0.00 173.00 148.00" xmlns="http://www.w3.org/2000/svg" xmlns:xlink="http://www.w3.org/1999/xlink">
<g id="graph0" class="graph" transform="scale(1 1) rotate(0) translate(4 144)">
<title>src/net/config/ConfigAddress.h</title>
<!-- Node1 -->
<g id="Node000001" class="node">
<title>Node1</title>
<g id="a_Node000001"><a xlink:title=" ">
<polygon fill="#999999" stroke="#666666" points="165,-140 0,-140 0,-121 165,-121 165,-140"/>
<text text-anchor="middle" x="82.5" y="-128" font-family="Helvetica,sans-Serif" font-size="10.00">src/net/config/ConfigAddress.h</text>
</a>
</g>
</g>
<!-- Node2 -->
<g id="Node000002" class="node">
<title>Node2</title>
<g id="a_Node000002"><a xlink:href="ConfigAddressBase_8h.html" target="_top" xlink:title=" ">
<polygon fill="white" stroke="#666666" points="152,-85 13,-85 13,-55 152,-55 152,-85"/>
<text text-anchor="start" x="21" y="-73" font-family="Helvetica,sans-Serif" font-size="10.00">net/config/ConfigAddress</text>
<text text-anchor="middle" x="82.5" y="-62" font-family="Helvetica,sans-Serif" font-size="10.00">Base.h</text>
</a>
</g>
</g>
<!-- Node1&#45;&gt;Node2 -->
<g id="edge1_Node000001_Node000002" class="edge">
<title>Node1&#45;&gt;Node2</title>
<g id="a_edge1_Node000001_Node000002"><a xlink:title=" ">
<path fill="none" stroke="#63b8ff" d="M82.5,-120.87C82.5,-114.11 82.5,-104.35 82.5,-95.26"/>
<polygon fill="#63b8ff" stroke="#63b8ff" points="86,-95.11 82.5,-85.11 79,-95.11 86,-95.11"/>
</a>
</g>
</g>
<!-- Node3 -->
<g id="Node000003" class="node">
<title>Node3</title>
<g id="a_Node000003"><a xlink:href="ConfigSection_8h.html" target="_top" xlink:title=" ">
<polygon fill="white" stroke="#666666" points="155,-19 10,-19 10,0 155,0 155,-19"/>
<text text-anchor="middle" x="82.5" y="-7" font-family="Helvetica,sans-Serif" font-size="10.00">net/config/ConfigSection.h</text>
</a>
</g>
</g>
<!-- Node2&#45;&gt;Node3 -->
<g id="edge2_Node000002_Node000003" class="edge">
<title>Node2&#45;&gt;Node3</title>
<g id="a_edge2_Node000002_Node000003"><a xlink:title=" ">
<path fill="none" stroke="#63b8ff" d="M82.5,-54.84C82.5,-47.21 82.5,-37.7 82.5,-29.45"/>
<polygon fill="#63b8ff" stroke="#63b8ff" points="86,-29.27 82.5,-19.27 79,-29.27 86,-29.27"/>
</a>
</g>
</g>
</g>
</svg>
