<?xml version="1.0" encoding="UTF-8" standalone="no"?>
<!DOCTYPE svg PUBLIC "-//W3C//DTD SVG 1.1//EN"
 "http://www.w3.org/Graphics/SVG/1.1/DTD/svg11.dtd">
<!-- Generated by graphviz version 2.42.4 (0)
 -->
<!-- Title: src/net/un Pages: 1 -->
<svg width="259pt" height="196pt"
 viewBox="0.00 0.00 259.00 196.00" xmlns="http://www.w3.org/2000/svg" xmlns:xlink="http://www.w3.org/1999/xlink">
<g id="graph0" class="graph" transform="scale(1 1) rotate(0) translate(4 192)">
<title>src/net/un</title>
<g id="clust1" class="cluster">
<title>clusterdir_c72b25b75abe208498b36a3e44a3726c</title>
<g id="a_clust1"><a xlink:href="dir_c72b25b75abe208498b36a3e44a3726c.html" target="_top" xlink:title="net">
<polygon fill="#edf0f7" stroke="#7f7f7f" stroke-dasharray="5,2" points="8,-8 8,-180 205,-180 205,-8 8,-8"/>
<text text-anchor="middle" x="106.5" y="-168" font-family="Helvetica,sans-Serif" font-size="10.00">net</text>
</a>
</g>
</g>
<g id="clust2" class="cluster">
<title>clusterdir_60867252f3b9adc2cbc422951d16b286</title>
<g id="a_clust2"><a xlink:href="dir_60867252f3b9adc2cbc422951d16b286.html" target="_top">
<polygon fill="#edf0f7" stroke="#404040" stroke-width="2" points="16,-63 16,-153 197,-153 197,-63 16,-63"/>
</a>
</g>
</g>
<!-- dir_b50b1103b0c851008eb525ffe261be03 -->
<g id="node1" class="node">
<title>dir_b50b1103b0c851008eb525ffe261be03</title>
<g id="a_node1"><a xlink:href="dir_b50b1103b0c851008eb525ffe261be03.html" target="_top" xlink:title="config">
<polygon fill="#a2b4d6" stroke="red" points="158.5,-35 111.5,-35 111.5,-16 158.5,-16 158.5,-35"/>
<text text-anchor="middle" x="135" y="-23" font-family="Helvetica,sans-Serif" font-size="10.00">config</text>
</a>
</g>
</g>
<!-- dir_c88044bb87351fd9d86099731605e377 -->
<g id="node2" class="node">
<title>dir_c88044bb87351fd9d86099731605e377</title>
<g id="a_node2"><a xlink:href="dir_c88044bb87351fd9d86099731605e377.html" target="_top" xlink:title="phy">
<polygon fill="#a2b4d6" stroke="red" points="82.5,-35 47.5,-35 47.5,-16 82.5,-16 82.5,-35"/>
<text text-anchor="middle" x="65" y="-23" font-family="Helvetica,sans-Serif" font-size="10.00">phy</text>
</a>
</g>
</g>
<!-- dir_60867252f3b9adc2cbc422951d16b286 -->
<g id="node3" class="node">
<title>dir_60867252f3b9adc2cbc422951d16b286</title>
<text text-anchor="middle" x="174" y="-133" font-family="Helvetica,sans-Serif" font-size="10.00">un</text>
</g>
<!-- dir_aebb8dcc11953d78e620bbef0b9e2183 -->
<g id="node9" class="node">
<title>dir_aebb8dcc11953d78e620bbef0b9e2183</title>
<g id="a_node9"><a xlink:href="dir_aebb8dcc11953d78e620bbef0b9e2183.html" target="_top" xlink:title="core">
<polygon fill="#edf0f7" stroke="red" stroke-dasharray="5,2" points="251,-90 213,-90 213,-71 251,-71 251,-90"/>
<text text-anchor="middle" x="232" y="-78" font-family="Helvetica,sans-Serif" font-size="10.00">core</text>
</a>
</g>
</g>
<!-- dir_60867252f3b9adc2cbc422951d16b286&#45;&gt;dir_aebb8dcc11953d78e620bbef0b9e2183 -->
<g id="edge1" class="edge">
<title>dir_60867252f3b9adc2cbc422951d16b286&#45;&gt;dir_aebb8dcc11953d78e620bbef0b9e2183</title>
<g id="a_edge1"><a xlink:href="dir_000121_000028.html" target="_top">
<path fill="none" stroke="#63b8ff" d="M183.32,-125.98C191.81,-118.23 204.56,-106.58 214.88,-97.14"/>
<polygon fill="#63b8ff" stroke="#63b8ff" points="217.49,-99.5 222.51,-90.17 212.77,-94.33 217.49,-99.5"/>
</a>
</g>
<g id="a_edge1&#45;headlabel"><a xlink:href="dir_000121_000028.html" target="_top" xlink:title="23">
<text text-anchor="middle" x="216.75" y="-101.52" font-family="Helvetica,sans-Serif" font-size="10.00" fill="#63b8ff">23</text>
</a>
</g>
</g>
<!-- dir_c41484eb8bbc2b763d385d9053ce9894 -->
<g id="node4" class="node">
<title>dir_c41484eb8bbc2b763d385d9053ce9894</title>
<g id="a_node4"><a xlink:href="dir_c41484eb8bbc2b763d385d9053ce9894.html" target="_top" xlink:title="config">
<polygon fill="#a2b4d6" stroke="#404040" points="153.5,-90 106.5,-90 106.5,-71 153.5,-71 153.5,-90"/>
<text text-anchor="middle" x="130" y="-78" font-family="Helvetica,sans-Serif" font-size="10.00">config</text>
</a>
</g>
</g>
<!-- dir_c41484eb8bbc2b763d385d9053ce9894&#45;&gt;dir_b50b1103b0c851008eb525ffe261be03 -->
<g id="edge3" class="edge">
<title>dir_c41484eb8bbc2b763d385d9053ce9894&#45;&gt;dir_b50b1103b0c851008eb525ffe261be03</title>
<g id="a_edge3"><a xlink:href="dir_000024_000007.html" target="_top">
<path fill="none" stroke="#63b8ff" d="M130.83,-70.75C131.48,-63.8 132.42,-53.85 133.24,-45.13"/>
<polygon fill="#63b8ff" stroke="#63b8ff" points="136.73,-45.37 134.19,-35.09 129.77,-44.72 136.73,-45.37"/>
</a>
</g>
<g id="a_edge3&#45;headlabel"><a xlink:href="dir_000024_000007.html" target="_top" xlink:title="9">
<text text-anchor="middle" x="139.22" y="-46.72" font-family="Helvetica,sans-Serif" font-size="10.00" fill="#63b8ff">9</text>
</a>
</g>
</g>
<!-- dir_313caf1132e152dd9b58bea13a4052ca -->
<g id="node8" class="node">
<title>dir_313caf1132e152dd9b58bea13a4052ca</title>
<g id="a_node8"><a xlink:href="dir_313caf1132e152dd9b58bea13a4052ca.html" target="_top" xlink:title="utils">
<polygon fill="#edf0f7" stroke="red" stroke-dasharray="5,2" points="251,-35 213,-35 213,-16 251,-16 251,-35"/>
<text text-anchor="middle" x="232" y="-23" font-family="Helvetica,sans-Serif" font-size="10.00">utils</text>
</a>
</g>
</g>
<!-- dir_c41484eb8bbc2b763d385d9053ce9894&#45;&gt;dir_313caf1132e152dd9b58bea13a4052ca -->
<g id="edge2" class="edge">
<title>dir_c41484eb8bbc2b763d385d9053ce9894&#45;&gt;dir_313caf1132e152dd9b58bea13a4052ca</title>
<g id="a_edge2"><a xlink:href="dir_000024_000124.html" target="_top">
<path fill="none" stroke="#63b8ff" d="M146.39,-70.98C162.57,-62.57 187.57,-49.59 206.38,-39.81"/>
<polygon fill="#63b8ff" stroke="#63b8ff" points="208.05,-42.89 215.31,-35.17 204.83,-36.68 208.05,-42.89"/>
</a>
</g>
<g id="a_edge2&#45;headlabel"><a xlink:href="dir_000024_000124.html" target="_top" xlink:title="1">
<text text-anchor="middle" x="206.17" y="-44.56" font-family="Helvetica,sans-Serif" font-size="10.00" fill="#63b8ff">1</text>
</a>
</g>
</g>
<!-- dir_e30d92727dce7c0e2222f211ec32b8df -->
<g id="node5" class="node">
<title>dir_e30d92727dce7c0e2222f211ec32b8df</title>
<g id="a_node5"><a xlink:href="dir_e30d92727dce7c0e2222f211ec32b8df.html" target="_top" xlink:title="dgram">
<polygon fill="#a2b4d6" stroke="#404040" points="72,-145 24,-145 24,-126 72,-126 72,-145"/>
<text text-anchor="middle" x="48" y="-133" font-family="Helvetica,sans-Serif" font-size="10.00">dgram</text>
</a>
</g>
</g>
<!-- dir_e30d92727dce7c0e2222f211ec32b8df&#45;&gt;dir_c88044bb87351fd9d86099731605e377 -->
<g id="edge5" class="edge">
<title>dir_e30d92727dce7c0e2222f211ec32b8df&#45;&gt;dir_c88044bb87351fd9d86099731605e377</title>
<g id="a_edge5"><a xlink:href="dir_000032_000074.html" target="_top">
<path fill="none" stroke="#63b8ff" d="M46.08,-125.97C43.36,-112.39 39.33,-85.15 45,-63 46.68,-56.45 49.8,-49.82 53.08,-44.03"/>
<polygon fill="#63b8ff" stroke="#63b8ff" points="56.23,-45.6 58.54,-35.26 50.29,-41.9 56.23,-45.6"/>
</a>
</g>
<g id="a_edge5&#45;headlabel"><a xlink:href="dir_000032_000074.html" target="_top" xlink:title="2">
<text text-anchor="middle" x="56.74" y="-47.66" font-family="Helvetica,sans-Serif" font-size="10.00" fill="#63b8ff">2</text>
</a>
</g>
</g>
<!-- dir_03b504697cbae0e80ea88d4d8100a59c -->
<g id="node6" class="node">
<title>dir_03b504697cbae0e80ea88d4d8100a59c</title>
<g id="a_node6"><a xlink:href="dir_03b504697cbae0e80ea88d4d8100a59c.html" target="_top" xlink:title="phy">
<polygon fill="#a2b4d6" stroke="#404040" points="88.5,-90 53.5,-90 53.5,-71 88.5,-71 88.5,-90"/>
<text text-anchor="middle" x="71" y="-78" font-family="Helvetica,sans-Serif" font-size="10.00">phy</text>
</a>
</g>
</g>
<!-- dir_e30d92727dce7c0e2222f211ec32b8df&#45;&gt;dir_03b504697cbae0e80ea88d4d8100a59c -->
<g id="edge4" class="edge">
<title>dir_e30d92727dce7c0e2222f211ec32b8df&#45;&gt;dir_03b504697cbae0e80ea88d4d8100a59c</title>
<g id="a_edge4"><a xlink:href="dir_000032_000076.html" target="_top">
<path fill="none" stroke="#63b8ff" d="M51.8,-125.75C54.91,-118.57 59.42,-108.18 63.29,-99.27"/>
<polygon fill="#63b8ff" stroke="#63b8ff" points="66.5,-100.66 67.27,-90.09 60.08,-97.87 66.5,-100.66"/>
</a>
</g>
<g id="a_edge4&#45;headlabel"><a xlink:href="dir_000032_000076.html" target="_top" xlink:title="2">
<text text-anchor="middle" x="67.68" y="-102.58" font-family="Helvetica,sans-Serif" font-size="10.00" fill="#63b8ff">2</text>
</a>
</g>
</g>
<!-- dir_03b504697cbae0e80ea88d4d8100a59c&#45;&gt;dir_c88044bb87351fd9d86099731605e377 -->
<g id="edge6" class="edge">
<title>dir_03b504697cbae0e80ea88d4d8100a59c&#45;&gt;dir_c88044bb87351fd9d86099731605e377</title>
<g id="a_edge6"><a xlink:href="dir_000076_000074.html" target="_top">
<path fill="none" stroke="#63b8ff" d="M70.01,-70.75C69.22,-63.8 68.1,-53.85 67.11,-45.13"/>
<polygon fill="#63b8ff" stroke="#63b8ff" points="70.58,-44.63 65.97,-35.09 63.62,-45.42 70.58,-44.63"/>
</a>
</g>
<g id="a_edge6&#45;headlabel"><a xlink:href="dir_000076_000074.html" target="_top" xlink:title="8">
<text text-anchor="middle" x="73.8" y="-45.38" font-family="Helvetica,sans-Serif" font-size="10.00" fill="#63b8ff">8</text>
</a>
</g>
</g>
<!-- dir_6f05cea844b2fb41617e8a37a7e77cf3 -->
<g id="node7" class="node">
<title>dir_6f05cea844b2fb41617e8a37a7e77cf3</title>
<g id="a_node7"><a xlink:href="dir_6f05cea844b2fb41617e8a37a7e77cf3.html" target="_top" xlink:title="stream">
<polygon fill="#a2b4d6" stroke="#404040" points="141.5,-145 90.5,-145 90.5,-126 141.5,-126 141.5,-145"/>
<text text-anchor="middle" x="116" y="-133" font-family="Helvetica,sans-Serif" font-size="10.00">stream</text>
</a>
</g>
</g>
<!-- dir_6f05cea844b2fb41617e8a37a7e77cf3&#45;&gt;dir_b50b1103b0c851008eb525ffe261be03 -->
<g id="edge9" class="edge">
<title>dir_6f05cea844b2fb41617e8a37a7e77cf3&#45;&gt;dir_b50b1103b0c851008eb525ffe261be03</title>
<g id="a_edge9"><a xlink:href="dir_000102_000007.html" target="_top">
<path fill="none" stroke="#63b8ff" d="M130.07,-125.89C141.35,-118.1 156.34,-105.48 163,-90 167.74,-78.98 166.86,-74.36 163,-63 160.52,-55.68 155.91,-48.68 151.14,-42.81"/>
<polygon fill="#63b8ff" stroke="#63b8ff" points="153.53,-40.23 144.27,-35.09 148.31,-44.89 153.53,-40.23"/>
</a>
</g>
<g id="a_edge9&#45;headlabel"><a xlink:href="dir_000102_000007.html" target="_top" xlink:title="12">
<text text-anchor="middle" x="158.04" y="-38.52" font-family="Helvetica,sans-Serif" font-size="10.00" fill="#63b8ff">12</text>
</a>
</g>
</g>
<!-- dir_6f05cea844b2fb41617e8a37a7e77cf3&#45;&gt;dir_c41484eb8bbc2b763d385d9053ce9894 -->
<g id="edge10" class="edge">
<title>dir_6f05cea844b2fb41617e8a37a7e77cf3&#45;&gt;dir_c41484eb8bbc2b763d385d9053ce9894</title>
<g id="a_edge10"><a xlink:href="dir_000102_000024.html" target="_top">
<path fill="none" stroke="#63b8ff" d="M118.31,-125.75C120.17,-118.72 122.84,-108.62 125.15,-99.84"/>
<polygon fill="#63b8ff" stroke="#63b8ff" points="128.56,-100.65 127.73,-90.09 121.79,-98.86 128.56,-100.65"/>
</a>
</g>
<g id="a_edge10&#45;headlabel"><a xlink:href="dir_000102_000024.html" target="_top" xlink:title="2">
<text text-anchor="middle" x="130.39" y="-102.35" font-family="Helvetica,sans-Serif" font-size="10.00" fill="#63b8ff">2</text>
</a>
</g>
</g>
<!-- dir_6f05cea844b2fb41617e8a37a7e77cf3&#45;&gt;dir_03b504697cbae0e80ea88d4d8100a59c -->
<g id="edge7" class="edge">
<title>dir_6f05cea844b2fb41617e8a37a7e77cf3&#45;&gt;dir_03b504697cbae0e80ea88d4d8100a59c</title>
<g id="a_edge7"><a xlink:href="dir_000102_000076.html" target="_top">
<path fill="none" stroke="#63b8ff" d="M108.57,-125.75C102.15,-118.18 92.69,-107.05 84.88,-97.84"/>
<polygon fill="#63b8ff" stroke="#63b8ff" points="87.43,-95.45 78.29,-90.09 82.1,-99.98 87.43,-95.45"/>
</a>
</g>
<g id="a_edge7&#45;headlabel"><a xlink:href="dir_000102_000076.html" target="_top" xlink:title="2">
<text text-anchor="middle" x="91.92" y="-93.85" font-family="Helvetica,sans-Serif" font-size="10.00" fill="#63b8ff">2</text>
</a>
</g>
</g>
<!-- dir_6f05cea844b2fb41617e8a37a7e77cf3&#45;&gt;dir_aebb8dcc11953d78e620bbef0b9e2183 -->
<g id="edge8" class="edge">
<title>dir_6f05cea844b2fb41617e8a37a7e77cf3&#45;&gt;dir_aebb8dcc11953d78e620bbef0b9e2183</title>
<g id="a_edge8"><a xlink:href="dir_000102_000028.html" target="_top">
<path fill="none" stroke="#63b8ff" d="M134.64,-125.98C153.3,-117.46 182.25,-104.23 203.74,-94.41"/>
<polygon fill="#63b8ff" stroke="#63b8ff" points="205.38,-97.51 213.02,-90.17 202.47,-91.14 205.38,-97.51"/>
</a>
</g>
<g id="a_edge8&#45;headlabel"><a xlink:href="dir_000102_000028.html" target="_top" xlink:title="22">
<text text-anchor="middle" x="203.29" y="-99.09" font-family="Helvetica,sans-Serif" font-size="10.00" fill="#63b8ff">22</text>
</a>
</g>
</g>
</g>
</svg>
