<?xml version="1.0" encoding="UTF-8" standalone="no"?>
<!DOCTYPE svg PUBLIC "-//W3C//DTD SVG 1.1//EN"
 "http://www.w3.org/Graphics/SVG/1.1/DTD/svg11.dtd">
<!-- Generated by graphviz version 2.42.4 (0)
 -->
<!-- Title: src Pages: 1 -->
<svg width="312pt" height="279pt"
 viewBox="0.00 0.00 312.00 279.00" xmlns="http://www.w3.org/2000/svg" xmlns:xlink="http://www.w3.org/1999/xlink">
<g id="graph0" class="graph" transform="scale(1 1) rotate(0) translate(4 275)">
<title>src</title>
<g id="clust1" class="cluster">
<title>clusterdir_68267d1309a1af8e8297ef4c3efbcdba</title>
<g id="a_clust1"><a xlink:href="dir_68267d1309a1af8e8297ef4c3efbcdba.html" target="_top">
<polygon fill="#edf0f7" stroke="#404040" stroke-width="2" points="8,-8 8,-263 296,-263 296,-8 8,-8"/>
</a>
</g>
</g>
<!-- dir_68267d1309a1af8e8297ef4c3efbcdba -->
<g id="node1" class="node">
<title>dir_68267d1309a1af8e8297ef4c3efbcdba</title>
<text text-anchor="middle" x="239" y="-243" font-family="Helvetica,sans-Serif" font-size="10.00">src</text>
</g>
<!-- dir_53adf0b982dc8545998aae3f283a5a58 -->
<g id="node2" class="node">
<title>dir_53adf0b982dc8545998aae3f283a5a58</title>
<g id="a_node2"><a xlink:href="dir_53adf0b982dc8545998aae3f283a5a58.html" target="_top" xlink:title="apps">
<polygon fill="#a2b4d6" stroke="#404040" points="173,-255 133,-255 133,-236 173,-236 173,-255"/>
<text text-anchor="middle" x="153" y="-243" font-family="Helvetica,sans-Serif" font-size="10.00">apps</text>
</a>
</g>
</g>
<!-- dir_aebb8dcc11953d78e620bbef0b9e2183 -->
<g id="node3" class="node">
<title>dir_aebb8dcc11953d78e620bbef0b9e2183</title>
<g id="a_node3"><a xlink:href="dir_aebb8dcc11953d78e620bbef0b9e2183.html" target="_top" xlink:title="core">
<polygon fill="#a2b4d6" stroke="#404040" points="146,-35 108,-35 108,-16 146,-16 146,-35"/>
<text text-anchor="middle" x="127" y="-23" font-family="Helvetica,sans-Serif" font-size="10.00">core</text>
</a>
</g>
</g>
<!-- dir_53adf0b982dc8545998aae3f283a5a58&#45;&gt;dir_aebb8dcc11953d78e620bbef0b9e2183 -->
<g id="edge6" class="edge">
<title>dir_53adf0b982dc8545998aae3f283a5a58&#45;&gt;dir_aebb8dcc11953d78e620bbef0b9e2183</title>
<g id="a_edge6"><a xlink:href="dir_000000_000032.html" target="_top">
<path fill="none" stroke="#63b8ff" d="M133.51,-235.85C118.31,-228.27 97.57,-215.96 84,-200 66.72,-179.68 65.45,-171.11 60,-145 58.27,-136.73 57.33,-134.01 60,-126 66.32,-107.03 75.66,-106.47 87,-90 97.48,-74.78 108.62,-56.93 116.48,-44.04"/>
<polygon fill="#63b8ff" stroke="#63b8ff" points="119.6,-45.64 121.78,-35.27 113.61,-42.02 119.6,-45.64"/>
</a>
</g>
<g id="a_edge6&#45;headlabel"><a xlink:href="dir_000000_000032.html" target="_top" xlink:title="21">
<text text-anchor="middle" x="120.17" y="-47.69" font-family="Helvetica,sans-Serif" font-size="10.00" fill="#63b8ff">21</text>
</a>
</g>
</g>
<!-- dir_803ee67260c130b45d29089798491ab2 -->
<g id="node4" class="node">
<title>dir_803ee67260c130b45d29089798491ab2</title>
<g id="a_node4"><a xlink:href="dir_803ee67260c130b45d29089798491ab2.html" target="_top" xlink:title="database">
<polygon fill="#a2b4d6" stroke="#404040" points="78,-90 16,-90 16,-71 78,-71 78,-90"/>
<text text-anchor="middle" x="47" y="-78" font-family="Helvetica,sans-Serif" font-size="10.00">database</text>
</a>
</g>
</g>
<!-- dir_53adf0b982dc8545998aae3f283a5a58&#45;&gt;dir_803ee67260c130b45d29089798491ab2 -->
<g id="edge5" class="edge">
<title>dir_53adf0b982dc8545998aae3f283a5a58&#45;&gt;dir_803ee67260c130b45d29089798491ab2</title>
<g id="a_edge5"><a xlink:href="dir_000000_000034.html" target="_top">
<path fill="none" stroke="#63b8ff" d="M132.9,-242.75C107.47,-239.34 64.63,-229.32 45,-200 24.76,-169.77 33.43,-124.76 40.74,-99.81"/>
<polygon fill="#63b8ff" stroke="#63b8ff" points="44.11,-100.76 43.79,-90.17 37.43,-98.65 44.11,-100.76"/>
</a>
</g>
<g id="a_edge5&#45;headlabel"><a xlink:href="dir_000000_000034.html" target="_top" xlink:title="5">
<text text-anchor="middle" x="45.73" y="-102.55" font-family="Helvetica,sans-Serif" font-size="10.00" fill="#63b8ff">5</text>
</a>
</g>
</g>
<!-- dir_1ef10629401f35c9235e4b0300a49988 -->
<g id="node5" class="node">
<title>dir_1ef10629401f35c9235e4b0300a49988</title>
<g id="a_node5"><a xlink:href="dir_1ef10629401f35c9235e4b0300a49988.html" target="_top" xlink:title="express">
<polygon fill="#a2b4d6" stroke="#404040" points="227.5,-200 172.5,-200 172.5,-181 227.5,-181 227.5,-200"/>
<text text-anchor="middle" x="200" y="-188" font-family="Helvetica,sans-Serif" font-size="10.00">express</text>
</a>
</g>
</g>
<!-- dir_53adf0b982dc8545998aae3f283a5a58&#45;&gt;dir_1ef10629401f35c9235e4b0300a49988 -->
<g id="edge2" class="edge">
<title>dir_53adf0b982dc8545998aae3f283a5a58&#45;&gt;dir_1ef10629401f35c9235e4b0300a49988</title>
<g id="a_edge2"><a xlink:href="dir_000000_000044.html" target="_top">
<path fill="none" stroke="#63b8ff" d="M160.76,-235.75C167.47,-228.18 177.34,-217.05 185.51,-207.84"/>
<polygon fill="#63b8ff" stroke="#63b8ff" points="188.37,-209.89 192.38,-200.09 183.13,-205.25 188.37,-209.89"/>
</a>
</g>
<g id="a_edge2&#45;headlabel"><a xlink:href="dir_000000_000044.html" target="_top" xlink:title="33">
<text text-anchor="middle" x="188.11" y="-211.97" font-family="Helvetica,sans-Serif" font-size="10.00" fill="#63b8ff">33</text>
</a>
</g>
</g>
<!-- dir_2241064965c8d9ca993f08b926076f7d -->
<g id="node7" class="node">
<title>dir_2241064965c8d9ca993f08b926076f7d</title>
<g id="a_node7"><a xlink:href="dir_2241064965c8d9ca993f08b926076f7d.html" target="_top" xlink:title="log">
<polygon fill="#a2b4d6" stroke="#404040" points="101,-145 69,-145 69,-126 101,-126 101,-145"/>
<text text-anchor="middle" x="85" y="-133" font-family="Helvetica,sans-Serif" font-size="10.00">log</text>
</a>
</g>
</g>
<!-- dir_53adf0b982dc8545998aae3f283a5a58&#45;&gt;dir_2241064965c8d9ca993f08b926076f7d -->
<g id="edge3" class="edge">
<title>dir_53adf0b982dc8545998aae3f283a5a58&#45;&gt;dir_2241064965c8d9ca993f08b926076f7d</title>
<g id="a_edge3"><a xlink:href="dir_000000_000069.html" target="_top">
<path fill="none" stroke="#63b8ff" d="M136.22,-235.93C123.11,-228.32 105.55,-215.94 96,-200 88,-186.64 85.44,-169.03 84.78,-155.74"/>
<polygon fill="#63b8ff" stroke="#63b8ff" points="88.27,-155.33 84.6,-145.4 81.28,-155.46 88.27,-155.33"/>
</a>
</g>
<g id="a_edge3&#45;headlabel"><a xlink:href="dir_000000_000069.html" target="_top" xlink:title="6">
<text text-anchor="middle" x="91.18" y="-156.38" font-family="Helvetica,sans-Serif" font-size="10.00" fill="#63b8ff">6</text>
</a>
</g>
</g>
<!-- dir_c72b25b75abe208498b36a3e44a3726c -->
<g id="node8" class="node">
<title>dir_c72b25b75abe208498b36a3e44a3726c</title>
<g id="a_node8"><a xlink:href="dir_c72b25b75abe208498b36a3e44a3726c.html" target="_top" xlink:title="net">
<polygon fill="#a2b4d6" stroke="#404040" points="248,-90 216,-90 216,-71 248,-71 248,-90"/>
<text text-anchor="middle" x="232" y="-78" font-family="Helvetica,sans-Serif" font-size="10.00">net</text>
</a>
</g>
</g>
<!-- dir_53adf0b982dc8545998aae3f283a5a58&#45;&gt;dir_c72b25b75abe208498b36a3e44a3726c -->
<g id="edge7" class="edge">
<title>dir_53adf0b982dc8545998aae3f283a5a58&#45;&gt;dir_c72b25b75abe208498b36a3e44a3726c</title>
<g id="a_edge7"><a xlink:href="dir_000000_000077.html" target="_top">
<path fill="none" stroke="#63b8ff" d="M173.08,-240.17C193.24,-234.64 223.21,-222.91 237,-200 255.78,-168.8 246.23,-124.16 238.53,-99.54"/>
<polygon fill="#63b8ff" stroke="#63b8ff" points="241.83,-98.39 235.33,-90.03 235.2,-100.62 241.83,-98.39"/>
</a>
</g>
<g id="a_edge7&#45;headlabel"><a xlink:href="dir_000000_000077.html" target="_top" xlink:title="4">
<text text-anchor="middle" x="245.67" y="-98.39" font-family="Helvetica,sans-Serif" font-size="10.00" fill="#63b8ff">4</text>
</a>
</g>
</g>
<!-- dir_313caf1132e152dd9b58bea13a4052ca -->
<g id="node9" class="node">
<title>dir_313caf1132e152dd9b58bea13a4052ca</title>
<g id="a_node9"><a xlink:href="dir_313caf1132e152dd9b58bea13a4052ca.html" target="_top" xlink:title="utils">
<polygon fill="#a2b4d6" stroke="#404040" points="251,-35 213,-35 213,-16 251,-16 251,-35"/>
<text text-anchor="middle" x="232" y="-23" font-family="Helvetica,sans-Serif" font-size="10.00">utils</text>
</a>
</g>
</g>
<!-- dir_53adf0b982dc8545998aae3f283a5a58&#45;&gt;dir_313caf1132e152dd9b58bea13a4052ca -->
<g id="edge4" class="edge">
<title>dir_53adf0b982dc8545998aae3f283a5a58&#45;&gt;dir_313caf1132e152dd9b58bea13a4052ca</title>
<g id="a_edge4"><a xlink:href="dir_000000_000140.html" target="_top">
<path fill="none" stroke="#63b8ff" d="M173.01,-240.55C194.41,-235.22 227.59,-223.54 245,-200 279.39,-153.51 278.9,-126.3 262,-71 258.91,-60.9 252.68,-51.02 246.69,-43.15"/>
<polygon fill="#63b8ff" stroke="#63b8ff" points="249.24,-40.74 240.21,-35.2 243.82,-45.16 249.24,-40.74"/>
</a>
</g>
<g id="a_edge4&#45;headlabel"><a xlink:href="dir_000000_000140.html" target="_top" xlink:title="5">
<text text-anchor="middle" x="253.72" y="-39.23" font-family="Helvetica,sans-Serif" font-size="10.00" fill="#63b8ff">5</text>
</a>
</g>
</g>
<!-- dir_0d4dde2834ed44e47b6207c19e4aac26 -->
<g id="node10" class="node">
<title>dir_0d4dde2834ed44e47b6207c19e4aac26</title>
<g id="a_node10"><a xlink:href="dir_0d4dde2834ed44e47b6207c19e4aac26.html" target="_top" xlink:title="web">
<polygon fill="#a2b4d6" stroke="#404040" points="196.5,-145 159.5,-145 159.5,-126 196.5,-126 196.5,-145"/>
<text text-anchor="middle" x="178" y="-133" font-family="Helvetica,sans-Serif" font-size="10.00">web</text>
</a>
</g>
</g>
<!-- dir_53adf0b982dc8545998aae3f283a5a58&#45;&gt;dir_0d4dde2834ed44e47b6207c19e4aac26 -->
<g id="edge1" class="edge">
<title>dir_53adf0b982dc8545998aae3f283a5a58&#45;&gt;dir_0d4dde2834ed44e47b6207c19e4aac26</title>
<g id="a_edge1"><a xlink:href="dir_000000_000143.html" target="_top">
<path fill="none" stroke="#63b8ff" d="M154.13,-235.8C155.82,-223.49 159.3,-200.35 164,-181 166.1,-172.34 168.98,-162.91 171.58,-154.96"/>
<polygon fill="#63b8ff" stroke="#63b8ff" points="174.98,-155.86 174.86,-145.27 168.34,-153.62 174.98,-155.86"/>
</a>
</g>
<g id="a_edge1&#45;headlabel"><a xlink:href="dir_000000_000143.html" target="_top" xlink:title="9">
<text text-anchor="middle" x="176.51" y="-157.68" font-family="Helvetica,sans-Serif" font-size="10.00" fill="#63b8ff">9</text>
</a>
</g>
</g>
<!-- dir_803ee67260c130b45d29089798491ab2&#45;&gt;dir_aebb8dcc11953d78e620bbef0b9e2183 -->
<g id="edge8" class="edge">
<title>dir_803ee67260c130b45d29089798491ab2&#45;&gt;dir_aebb8dcc11953d78e620bbef0b9e2183</title>
<g id="a_edge8"><a xlink:href="dir_000034_000032.html" target="_top">
<path fill="none" stroke="#63b8ff" d="M59.85,-70.98C72.14,-62.84 90.91,-50.41 105.48,-40.76"/>
<polygon fill="#63b8ff" stroke="#63b8ff" points="107.51,-43.61 113.91,-35.17 103.64,-37.78 107.51,-43.61"/>
</a>
</g>
<g id="a_edge8&#45;headlabel"><a xlink:href="dir_000034_000032.html" target="_top" xlink:title="3">
<text text-anchor="middle" x="106.08" y="-45.46" font-family="Helvetica,sans-Serif" font-size="10.00" fill="#63b8ff">3</text>
</a>
</g>
</g>
<!-- dir_1ef10629401f35c9235e4b0300a49988&#45;&gt;dir_aebb8dcc11953d78e620bbef0b9e2183 -->
<g id="edge11" class="edge">
<title>dir_1ef10629401f35c9235e4b0300a49988&#45;&gt;dir_aebb8dcc11953d78e620bbef0b9e2183</title>
<g id="a_edge11"><a xlink:href="dir_000044_000032.html" target="_top">
<path fill="none" stroke="#63b8ff" d="M203.14,-180.59C207.05,-168.04 212.49,-144.61 206,-126 193.93,-91.38 164.22,-59.76 144.87,-41.85"/>
<polygon fill="#63b8ff" stroke="#63b8ff" points="147.07,-39.12 137.29,-35.04 142.39,-44.33 147.07,-39.12"/>
</a>
</g>
<g id="a_edge11&#45;headlabel"><a xlink:href="dir_000044_000032.html" target="_top" xlink:title="5">
<text text-anchor="middle" x="151.64" y="-36.91" font-family="Helvetica,sans-Serif" font-size="10.00" fill="#63b8ff">5</text>
</a>
</g>
</g>
<!-- dir_1ef10629401f35c9235e4b0300a49988&#45;&gt;dir_313caf1132e152dd9b58bea13a4052ca -->
<g id="edge10" class="edge">
<title>dir_1ef10629401f35c9235e4b0300a49988&#45;&gt;dir_313caf1132e152dd9b58bea13a4052ca</title>
<g id="a_edge10"><a xlink:href="dir_000044_000140.html" target="_top">
<path fill="none" stroke="#63b8ff" d="M207.06,-180.88C220.02,-164.44 247.17,-126.94 257,-90 261.27,-73.94 253.36,-56.42 245.33,-43.86"/>
<polygon fill="#63b8ff" stroke="#63b8ff" points="247.97,-41.52 239.37,-35.32 242.23,-45.53 247.97,-41.52"/>
</a>
</g>
<g id="a_edge10&#45;headlabel"><a xlink:href="dir_000044_000140.html" target="_top" xlink:title="1">
<text text-anchor="middle" x="252.35" y="-40.34" font-family="Helvetica,sans-Serif" font-size="10.00" fill="#63b8ff">1</text>
</a>
</g>
</g>
<!-- dir_1ef10629401f35c9235e4b0300a49988&#45;&gt;dir_0d4dde2834ed44e47b6207c19e4aac26 -->
<g id="edge9" class="edge">
<title>dir_1ef10629401f35c9235e4b0300a49988&#45;&gt;dir_0d4dde2834ed44e47b6207c19e4aac26</title>
<g id="a_edge9"><a xlink:href="dir_000044_000143.html" target="_top">
<path fill="none" stroke="#63b8ff" d="M196.37,-180.75C193.42,-173.65 189.17,-163.4 185.49,-154.56"/>
<polygon fill="#63b8ff" stroke="#63b8ff" points="188.63,-152.98 181.57,-145.09 182.17,-155.67 188.63,-152.98"/>
</a>
</g>
<g id="a_edge9&#45;headlabel"><a xlink:href="dir_000044_000143.html" target="_top" xlink:title="14">
<text text-anchor="middle" x="192.63" y="-152.71" font-family="Helvetica,sans-Serif" font-size="10.00" fill="#63b8ff">14</text>
</a>
</g>
</g>
<!-- dir_fe0d52f96f4f289e926976262c5570b1 -->
<g id="node6" class="node">
<title>dir_fe0d52f96f4f289e926976262c5570b1</title>
<g id="a_node6"><a xlink:href="dir_fe0d52f96f4f289e926976262c5570b1.html" target="_top" xlink:title="iot">
<polygon fill="#a2b4d6" stroke="#404040" points="133.5,-200 104.5,-200 104.5,-181 133.5,-181 133.5,-200"/>
<text text-anchor="middle" x="119" y="-188" font-family="Helvetica,sans-Serif" font-size="10.00">iot</text>
</a>
</g>
</g>
<!-- dir_fe0d52f96f4f289e926976262c5570b1&#45;&gt;dir_aebb8dcc11953d78e620bbef0b9e2183 -->
<g id="edge13" class="edge">
<title>dir_fe0d52f96f4f289e926976262c5570b1&#45;&gt;dir_aebb8dcc11953d78e620bbef0b9e2183</title>
<g id="a_edge13"><a xlink:href="dir_000058_000032.html" target="_top">
<path fill="none" stroke="#63b8ff" d="M119.43,-180.74C120.68,-155.31 124.32,-81.08 126.06,-45.69"/>
<polygon fill="#63b8ff" stroke="#63b8ff" points="129.57,-45.47 126.57,-35.31 122.58,-45.12 129.57,-45.47"/>
</a>
</g>
<g id="a_edge13&#45;headlabel"><a xlink:href="dir_000058_000032.html" target="_top" xlink:title="8">
<text text-anchor="middle" x="132.23" y="-46.7" font-family="Helvetica,sans-Serif" font-size="10.00" fill="#63b8ff">8</text>
</a>
</g>
</g>
<!-- dir_fe0d52f96f4f289e926976262c5570b1&#45;&gt;dir_2241064965c8d9ca993f08b926076f7d -->
<g id="edge14" class="edge">
<title>dir_fe0d52f96f4f289e926976262c5570b1&#45;&gt;dir_2241064965c8d9ca993f08b926076f7d</title>
<g id="a_edge14"><a xlink:href="dir_000058_000069.html" target="_top">
<path fill="none" stroke="#63b8ff" d="M113.39,-180.75C108.68,-173.42 101.83,-162.73 96.03,-153.7"/>
<polygon fill="#63b8ff" stroke="#63b8ff" points="98.86,-151.62 90.51,-145.09 92.96,-155.4 98.86,-151.62"/>
</a>
</g>
<g id="a_edge14&#45;headlabel"><a xlink:href="dir_000058_000069.html" target="_top" xlink:title="1">
<text text-anchor="middle" x="103.19" y="-150.61" font-family="Helvetica,sans-Serif" font-size="10.00" fill="#63b8ff">1</text>
</a>
</g>
</g>
<!-- dir_fe0d52f96f4f289e926976262c5570b1&#45;&gt;dir_313caf1132e152dd9b58bea13a4052ca -->
<g id="edge15" class="edge">
<title>dir_fe0d52f96f4f289e926976262c5570b1&#45;&gt;dir_313caf1132e152dd9b58bea13a4052ca</title>
<g id="a_edge15"><a xlink:href="dir_000058_000140.html" target="_top">
<path fill="none" stroke="#63b8ff" d="M122.85,-180.59C128.42,-168.05 139.34,-144.62 151,-126 167.32,-99.93 173.52,-94.8 193,-71 200.81,-61.46 209.87,-51.09 217.28,-42.76"/>
<polygon fill="#63b8ff" stroke="#63b8ff" points="219.98,-44.99 224.05,-35.21 214.77,-40.32 219.98,-44.99"/>
</a>
</g>
<g id="a_edge15&#45;headlabel"><a xlink:href="dir_000058_000140.html" target="_top" xlink:title="1">
<text text-anchor="middle" x="219.69" y="-47.07" font-family="Helvetica,sans-Serif" font-size="10.00" fill="#63b8ff">1</text>
</a>
</g>
</g>
<!-- dir_fe0d52f96f4f289e926976262c5570b1&#45;&gt;dir_0d4dde2834ed44e47b6207c19e4aac26 -->
<g id="edge12" class="edge">
<title>dir_fe0d52f96f4f289e926976262c5570b1&#45;&gt;dir_0d4dde2834ed44e47b6207c19e4aac26</title>
<g id="a_edge12"><a xlink:href="dir_000058_000143.html" target="_top">
<path fill="none" stroke="#63b8ff" d="M128.48,-180.98C137.2,-173.15 150.34,-161.34 160.9,-151.86"/>
<polygon fill="#63b8ff" stroke="#63b8ff" points="163.25,-154.46 168.35,-145.17 158.57,-149.25 163.25,-154.46"/>
</a>
</g>
<g id="a_edge12&#45;headlabel"><a xlink:href="dir_000058_000143.html" target="_top" xlink:title="3">
<text text-anchor="middle" x="162.47" y="-156.47" font-family="Helvetica,sans-Serif" font-size="10.00" fill="#63b8ff">3</text>
</a>
</g>
</g>
<!-- dir_c72b25b75abe208498b36a3e44a3726c&#45;&gt;dir_aebb8dcc11953d78e620bbef0b9e2183 -->
<g id="edge17" class="edge">
<title>dir_c72b25b75abe208498b36a3e44a3726c&#45;&gt;dir_aebb8dcc11953d78e620bbef0b9e2183</title>
<g id="a_edge17"><a xlink:href="dir_000077_000032.html" target="_top">
<path fill="none" stroke="#63b8ff" d="M215.59,-71.22C198.84,-62.76 172.58,-49.51 153,-39.62"/>
<polygon fill="#63b8ff" stroke="#63b8ff" points="154.49,-36.46 143.99,-35.07 151.34,-42.7 154.49,-36.46"/>
</a>
</g>
<g id="a_edge17&#45;headlabel"><a xlink:href="dir_000077_000032.html" target="_top" xlink:title="115">
<text text-anchor="middle" x="158.98" y="-33.04" font-family="Helvetica,sans-Serif" font-size="10.00" fill="#63b8ff">115</text>
</a>
</g>
</g>
<!-- dir_c72b25b75abe208498b36a3e44a3726c&#45;&gt;dir_313caf1132e152dd9b58bea13a4052ca -->
<g id="edge16" class="edge">
<title>dir_c72b25b75abe208498b36a3e44a3726c&#45;&gt;dir_313caf1132e152dd9b58bea13a4052ca</title>
<g id="a_edge16"><a xlink:href="dir_000077_000140.html" target="_top">
<path fill="none" stroke="#63b8ff" d="M232,-70.75C232,-63.8 232,-53.85 232,-45.13"/>
<polygon fill="#63b8ff" stroke="#63b8ff" points="235.5,-45.09 232,-35.09 228.5,-45.09 235.5,-45.09"/>
</a>
</g>
<g id="a_edge16&#45;headlabel"><a xlink:href="dir_000077_000140.html" target="_top" xlink:title="3">
<text text-anchor="middle" x="238.34" y="-46.18" font-family="Helvetica,sans-Serif" font-size="10.00" fill="#63b8ff">3</text>
</a>
</g>
</g>
<!-- dir_0d4dde2834ed44e47b6207c19e4aac26&#45;&gt;dir_aebb8dcc11953d78e620bbef0b9e2183 -->
<g id="edge19" class="edge">
<title>dir_0d4dde2834ed44e47b6207c19e4aac26&#45;&gt;dir_aebb8dcc11953d78e620bbef0b9e2183</title>
<g id="a_edge19"><a xlink:href="dir_000143_000032.html" target="_top">
<path fill="none" stroke="#63b8ff" d="M173.83,-125.66C165.45,-107.93 146.47,-67.73 135.41,-44.32"/>
<polygon fill="#63b8ff" stroke="#63b8ff" points="138.52,-42.71 131.09,-35.16 132.19,-45.7 138.52,-42.71"/>
</a>
</g>
<g id="a_edge19&#45;headlabel"><a xlink:href="dir_000143_000032.html" target="_top" xlink:title="22">
<text text-anchor="middle" x="142.63" y="-42.24" font-family="Helvetica,sans-Serif" font-size="10.00" fill="#63b8ff">22</text>
</a>
</g>
</g>
<!-- dir_0d4dde2834ed44e47b6207c19e4aac26&#45;&gt;dir_c72b25b75abe208498b36a3e44a3726c -->
<g id="edge20" class="edge">
<title>dir_0d4dde2834ed44e47b6207c19e4aac26&#45;&gt;dir_c72b25b75abe208498b36a3e44a3726c</title>
<g id="a_edge20"><a xlink:href="dir_000143_000077.html" target="_top">
<path fill="none" stroke="#63b8ff" d="M186.92,-125.75C194.78,-118.03 206.43,-106.6 215.92,-97.28"/>
<polygon fill="#63b8ff" stroke="#63b8ff" points="218.56,-99.59 223.25,-90.09 213.66,-94.6 218.56,-99.59"/>
</a>
</g>
<g id="a_edge20&#45;headlabel"><a xlink:href="dir_000143_000077.html" target="_top" xlink:title="17">
<text text-anchor="middle" x="217.99" y="-101.64" font-family="Helvetica,sans-Serif" font-size="10.00" fill="#63b8ff">17</text>
</a>
</g>
</g>
<!-- dir_0d4dde2834ed44e47b6207c19e4aac26&#45;&gt;dir_313caf1132e152dd9b58bea13a4052ca -->
<g id="edge18" class="edge">
<title>dir_0d4dde2834ed44e47b6207c19e4aac26&#45;&gt;dir_313caf1132e152dd9b58bea13a4052ca</title>
<g id="a_edge18"><a xlink:href="dir_000143_000140.html" target="_top">
<path fill="none" stroke="#63b8ff" d="M181.71,-125.76C187.02,-113.42 197.23,-90.23 207,-71 211.57,-62.01 217.01,-52.23 221.65,-44.13"/>
<polygon fill="#63b8ff" stroke="#63b8ff" points="224.81,-45.65 226.8,-35.25 218.76,-42.14 224.81,-45.65"/>
</a>
</g>
<g id="a_edge18&#45;headlabel"><a xlink:href="dir_000143_000140.html" target="_top" xlink:title="2">
<text text-anchor="middle" x="225.46" y="-47.69" font-family="Helvetica,sans-Serif" font-size="10.00" fill="#63b8ff">2</text>
</a>
</g>
</g>
</g>
</svg>
