<?xml version="1.0" encoding="UTF-8" standalone="no"?>
<!DOCTYPE svg PUBLIC "-//W3C//DTD SVG 1.1//EN"
 "http://www.w3.org/Graphics/SVG/1.1/DTD/svg11.dtd">
<!-- Generated by graphviz version 14.1.2 (0)
 -->
<!-- Title: core/Event.cpp Pages: 1 -->
<svg width="419pt" height="142pt"
 viewBox="0.00 0.00 419.00 142.00" xmlns="http://www.w3.org/2000/svg" xmlns:xlink="http://www.w3.org/1999/xlink">

<svg id="main" version="1.1" xmlns="http://www.w3.org/2000/svg" xmlns:xlink="http://www.w3.org/1999/xlink" xml:space="preserve">

<style type="text/css"><![CDATA[
.node, .edge {opacity: 0.7;}
.node.selected, .edge.selected {opacity: 1;}
.edge:hover path { stroke: red; }
.edge:hover polygon { stroke: red; fill: red; }
]]></style>
<script type="application/ecmascript" xlink:href="svg.min.js"/>
<svg id="graph" class="graph">
<g id="graph0" class="graph" transform="scale(1 1) rotate(0) translate(4 138.25)">
<title>core/Event.cpp</title>
<!-- Node1 -->
<g id="Node000001" class="node">
<title>Node1</title>
<g id="a_Node000001"><a xlink:title=" ">
<polygon fill="#999999" stroke="#666666" points="190.38,-134.25 102.38,-134.25 102.38,-113.5 190.38,-113.5 190.38,-134.25"/>
<text xml:space="preserve" text-anchor="middle" x="146.38" y="-120.75" font-family="Helvetica,sans-Serif" font-size="10.00">core/Event.cpp</text>
</a>
</g>
</g>
<!-- Node2 -->
<g id="Node000002" class="node">
<title>Node2</title>
<g id="a_Node000002"><a xlink:href="Event_8h.html" target="_top" xlink:title=" ">
<polygon fill="white" stroke="#666666" points="76.75,-20.75 0,-20.75 0,0 76.75,0 76.75,-20.75"/>
<text xml:space="preserve" text-anchor="middle" x="38.38" y="-7.25" font-family="Helvetica,sans-Serif" font-size="10.00">core/Event.h</text>
</a>
</g>
</g>
<!-- Node1&#45;&gt;Node2 -->
<g id="edge1_Node000001_Node000002" class="edge">
<title>Node1&#45;&gt;Node2</title>
<g id="a_edge1_Node000001_Node000002"><a xlink:title=" ">
<path fill="none" stroke="#63b8ff" d="M102.09,-120.57C71.7,-116.4 33.39,-105.48 13.38,-77.5 3.05,-63.06 12.37,-43.83 22.43,-29.84"/>
<polygon fill="#63b8ff" stroke="#63b8ff" points="24.93,-32.32 28.35,-22.29 19.42,-28 24.93,-32.32"/>
</a>
</g>
</g>
<!-- Node3 -->
<g id="Node000003" class="node">
<title>Node3</title>
<g id="a_Node000003"><a xlink:href="EventLoop_8h.html" target="_top" xlink:title=" ">
<polygon fill="white" stroke="#666666" points="260.38,-77.5 160.38,-77.5 160.38,-56.75 260.38,-56.75 260.38,-77.5"/>
<text xml:space="preserve" text-anchor="middle" x="210.38" y="-64" font-family="Helvetica,sans-Serif" font-size="10.00">core/EventLoop.h</text>
</a>
</g>
</g>
<!-- Node1&#45;&gt;Node3 -->
<g id="edge2_Node000001_Node000003" class="edge">
<title>Node1&#45;&gt;Node3</title>
<g id="a_edge2_Node000001_Node000003"><a xlink:title=" ">
<path fill="none" stroke="#63b8ff" d="M157.82,-113.09C166.83,-105.38 179.61,-94.45 190.31,-85.29"/>
<polygon fill="#63b8ff" stroke="#63b8ff" points="192.56,-87.97 197.88,-78.81 188.01,-82.65 192.56,-87.97"/>
</a>
</g>
</g>
<!-- Node6 -->
<g id="Node000006" class="node">
<title>Node6</title>
<g id="a_Node000006"><a xlink:href="EventMultiplexer_8h.html" target="_top" xlink:title=" ">
<polygon fill="white" stroke="#666666" points="410.5,-77.5 278.25,-77.5 278.25,-56.75 410.5,-56.75 410.5,-77.5"/>
<text xml:space="preserve" text-anchor="middle" x="344.38" y="-64" font-family="Helvetica,sans-Serif" font-size="10.00">core/EventMultiplexer.h</text>
</a>
</g>
</g>
<!-- Node1&#45;&gt;Node6 -->
<g id="edge5_Node000001_Node000006" class="edge">
<title>Node1&#45;&gt;Node6</title>
<g id="a_edge5_Node000001_Node000006"><a xlink:title=" ">
<path fill="none" stroke="#63b8ff" d="M181.77,-113.09C214.19,-104.12 262.39,-90.79 297.9,-80.98"/>
<polygon fill="#63b8ff" stroke="#63b8ff" points="298.79,-84.36 307.49,-78.32 296.92,-77.62 298.79,-84.36"/>
</a>
</g>
</g>
<!-- Node7 -->
<g id="Node000007" class="node">
<title>Node7</title>
<g id="a_Node000007"><a xlink:href="EventReceiver_8h.html" target="_top" xlink:title=" ">
<polygon fill="white" stroke="#666666" points="142.12,-77.5 22.62,-77.5 22.62,-56.75 142.12,-56.75 142.12,-77.5"/>
<text xml:space="preserve" text-anchor="middle" x="82.38" y="-64" font-family="Helvetica,sans-Serif" font-size="10.00">core/EventReceiver.h</text>
</a>
</g>
</g>
<!-- Node1&#45;&gt;Node7 -->
<g id="edge7_Node000001_Node000007" class="edge">
<title>Node1&#45;&gt;Node7</title>
<g id="a_edge7_Node000001_Node000007"><a xlink:title=" ">
<path fill="none" stroke="#63b8ff" d="M134.93,-113.09C125.92,-105.38 113.14,-94.45 102.44,-85.29"/>
<polygon fill="#63b8ff" stroke="#63b8ff" points="104.74,-82.65 94.87,-78.81 100.19,-87.97 104.74,-82.65"/>
</a>
</g>
</g>
<!-- Node4 -->
<g id="Node000004" class="node">
<title>Node4</title>
<g id="a_Node000004"><a xlink:href="State_8h.html" target="_top" xlink:title=" ">
<polygon fill="white" stroke="#666666" points="247.62,-20.75 173.12,-20.75 173.12,0 247.62,0 247.62,-20.75"/>
<text xml:space="preserve" text-anchor="middle" x="210.38" y="-7.25" font-family="Helvetica,sans-Serif" font-size="10.00">core/State.h</text>
</a>
</g>
</g>
<!-- Node3&#45;&gt;Node4 -->
<g id="edge3_Node000003_Node000004" class="edge">
<title>Node3&#45;&gt;Node4</title>
<g id="a_edge3_Node000003_Node000004"><a xlink:title=" ">
<path fill="none" stroke="#63b8ff" d="M210.38,-56.34C210.38,-49.72 210.38,-40.72 210.38,-32.52"/>
<polygon fill="#63b8ff" stroke="#63b8ff" points="213.88,-32.59 210.38,-22.59 206.88,-32.59 213.88,-32.59"/>
</a>
</g>
</g>
<!-- Node5 -->
<g id="Node000005" class="node">
<title>Node5</title>
<g id="a_Node000005"><a xlink:href="TickStatus_8h.html" target="_top" xlink:title=" ">
<polygon fill="white" stroke="#666666" points="379,-20.75 279.75,-20.75 279.75,0 379,0 379,-20.75"/>
<text xml:space="preserve" text-anchor="middle" x="329.38" y="-7.25" font-family="Helvetica,sans-Serif" font-size="10.00">core/TickStatus.h</text>
</a>
</g>
</g>
<!-- Node3&#45;&gt;Node5 -->
<g id="edge4_Node000003_Node000005" class="edge">
<title>Node3&#45;&gt;Node5</title>
<g id="a_edge4_Node000003_Node000005"><a xlink:title=" ">
<path fill="none" stroke="#63b8ff" d="M231.65,-56.34C250.09,-47.85 277.04,-35.45 297.97,-25.83"/>
<polygon fill="#63b8ff" stroke="#63b8ff" points="299.29,-29.07 306.91,-21.71 296.36,-22.71 299.29,-29.07"/>
</a>
</g>
</g>
<!-- Node6&#45;&gt;Node5 -->
<g id="edge6_Node000006_Node000005" class="edge">
<title>Node6&#45;&gt;Node5</title>
<g id="a_edge6_Node000006_Node000005"><a xlink:title=" ">
<path fill="none" stroke="#63b8ff" d="M341.69,-56.34C339.84,-49.56 337.3,-40.3 335.01,-31.94"/>
<polygon fill="#63b8ff" stroke="#63b8ff" points="338.45,-31.26 332.43,-22.54 331.7,-33.11 338.45,-31.26"/>
</a>
</g>
</g>
<!-- Node7&#45;&gt;Node2 -->
<g id="edge8_Node000007_Node000002" class="edge">
<title>Node7&#45;&gt;Node2</title>
<g id="a_edge8_Node000007_Node000002"><a xlink:title=" ">
<path fill="none" stroke="#63b8ff" d="M74.51,-56.34C68.63,-49.02 60.41,-38.79 53.3,-29.94"/>
<polygon fill="#63b8ff" stroke="#63b8ff" points="56.11,-27.86 47.12,-22.26 50.66,-32.25 56.11,-27.86"/>
</a>
</g>
</g>
</g>
</svg>
</svg>

<style type='text/css'>
<![CDATA[
[data-mouse-over-selected='false'] { opacity: 0.7; }
[data-mouse-over-selected='true']  { opacity: 1.0; }
]]>
</style>
<script type="application/ecmascript"><![CDATA[
document.addEventListener('DOMContentLoaded', (event) => {
  highlightEdges();
  highlightAdjacentNodes();
});
]]></script>
</svg>
