<?xml version="1.0" encoding="UTF-8" standalone="no"?>
<!DOCTYPE svg PUBLIC "-//W3C//DTD SVG 1.1//EN"
 "http://www.w3.org/Graphics/SVG/1.1/DTD/svg11.dtd">
<!-- Generated by graphviz version 14.1.2 (0)
 -->
<!-- Title: apps/http/httpclient.cpp Pages: 1 -->
<svg width="493pt" height="155pt"
 viewBox="0.00 0.00 493.00 155.00" xmlns="http://www.w3.org/2000/svg" xmlns:xlink="http://www.w3.org/1999/xlink">

<svg id="main" version="1.1" xmlns="http://www.w3.org/2000/svg" xmlns:xlink="http://www.w3.org/1999/xlink" xml:space="preserve">

<style type="text/css"><![CDATA[
.node, .edge {opacity: 0.7;}
.node.selected, .edge.selected {opacity: 1;}
.edge:hover path { stroke: red; }
.edge:hover polygon { stroke: red; fill: red; }
]]></style>
<script type="application/ecmascript" xlink:href="svg.min.js"/>
<svg id="graph" class="graph">
<g id="graph0" class="graph" transform="scale(1 1) rotate(0) translate(4 151)">
<title>apps/http/httpclient.cpp</title>
<!-- Node1 -->
<g id="Node000001" class="node">
<title>Node1</title>
<g id="a_Node000001"><a xlink:title=" ">
<polygon fill="#999999" stroke="#666666" points="333.12,-147 201.62,-147 201.62,-126.25 333.12,-126.25 333.12,-147"/>
<text xml:space="preserve" text-anchor="middle" x="267.38" y="-133.5" font-family="Helvetica,sans-Serif" font-size="10.00">apps/http/httpclient.cpp</text>
</a>
</g>
</g>
<!-- Node2 -->
<g id="Node000002" class="node">
<title>Node2</title>
<g id="a_Node000002"><a xlink:href="http_2model_2clients_8h.html" target="_top" xlink:title=" ">
<polygon fill="white" stroke="#666666" points="271.25,-90.25 131.5,-90.25 131.5,-69.5 271.25,-69.5 271.25,-90.25"/>
<text xml:space="preserve" text-anchor="middle" x="201.38" y="-76.75" font-family="Helvetica,sans-Serif" font-size="10.00">apps/http/model/clients.h</text>
</a>
</g>
</g>
<!-- Node1&#45;&gt;Node2 -->
<g id="edge1_Node000001_Node000002" class="edge">
<title>Node1&#45;&gt;Node2</title>
<g id="a_edge1_Node000001_Node000002"><a xlink:title=" ">
<path fill="none" stroke="#63b8ff" d="M255.58,-125.84C246.19,-118.05 232.84,-106.97 221.73,-97.76"/>
<polygon fill="#63b8ff" stroke="#63b8ff" points="224.17,-95.24 214.24,-91.54 219.7,-100.62 224.17,-95.24"/>
</a>
</g>
</g>
<!-- Node5 -->
<g id="Node000005" class="node">
<title>Node5</title>
<g id="a_Node000005"><a xlink:href="SNodeC_8h.html" target="_top" xlink:title=" ">
<polygon fill="white" stroke="#666666" points="377,-90.25 289.75,-90.25 289.75,-69.5 377,-69.5 377,-90.25"/>
<text xml:space="preserve" text-anchor="middle" x="333.38" y="-76.75" font-family="Helvetica,sans-Serif" font-size="10.00">core/SNodeC.h</text>
</a>
</g>
</g>
<!-- Node1&#45;&gt;Node5 -->
<g id="edge4_Node000001_Node000005" class="edge">
<title>Node1&#45;&gt;Node5</title>
<g id="a_edge4_Node000001_Node000005"><a xlink:title=" ">
<path fill="none" stroke="#63b8ff" d="M279.17,-125.84C288.56,-118.05 301.91,-106.97 313.02,-97.76"/>
<polygon fill="#63b8ff" stroke="#63b8ff" points="315.05,-100.62 320.51,-91.54 310.58,-95.24 315.05,-100.62"/>
</a>
</g>
</g>
<!-- Node3 -->
<g id="Node000003" class="node">
<title>Node3</title>
<g id="a_Node000003"><a xlink:title=" ">
<polygon fill="#e0e0e0" stroke="#999999" points="124.75,-33.5 0,-33.5 0,0 124.75,0 124.75,-33.5"/>
<text xml:space="preserve" text-anchor="start" x="8" y="-20" font-family="Helvetica,sans-Serif" font-size="10.00">web/http/STREAM/NET</text>
<text xml:space="preserve" text-anchor="middle" x="62.38" y="-7.25" font-family="Helvetica,sans-Serif" font-size="10.00">/Client.h</text>
</a>
</g>
</g>
<!-- Node2&#45;&gt;Node3 -->
<g id="edge2_Node000002_Node000003" class="edge">
<title>Node2&#45;&gt;Node3</title>
<g id="a_edge2_Node000002_Node000003"><a xlink:title=" ">
<path fill="none" stroke="#63b8ff" d="M179.04,-69.05C160.41,-60.86 133.21,-48.9 109.76,-38.59"/>
<polygon fill="#63b8ff" stroke="#63b8ff" points="111.24,-35.42 100.68,-34.59 108.42,-41.82 111.24,-35.42"/>
</a>
</g>
</g>
<!-- Node4 -->
<g id="Node000004" class="node">
<title>Node4</title>
<g id="a_Node000004"><a xlink:title=" ">
<polygon fill="#e0e0e0" stroke="#999999" points="267.75,-33.5 143,-33.5 143,0 267.75,0 267.75,-33.5"/>
<text xml:space="preserve" text-anchor="start" x="151" y="-20" font-family="Helvetica,sans-Serif" font-size="10.00">web/http/STREAM/NET</text>
<text xml:space="preserve" text-anchor="middle" x="205.38" y="-7.25" font-family="Helvetica,sans-Serif" font-size="10.00">/EventSource.h</text>
</a>
</g>
</g>
<!-- Node2&#45;&gt;Node4 -->
<g id="edge3_Node000002_Node000004" class="edge">
<title>Node2&#45;&gt;Node4</title>
<g id="a_edge3_Node000002_Node000004"><a xlink:title=" ">
<path fill="none" stroke="#63b8ff" d="M202.02,-69.05C202.44,-62.63 203.01,-53.9 203.56,-45.45"/>
<polygon fill="#63b8ff" stroke="#63b8ff" points="207.05,-45.7 204.21,-35.5 200.07,-45.25 207.05,-45.7"/>
</a>
</g>
</g>
<!-- Node6 -->
<g id="Node000006" class="node">
<title>Node6</title>
<g id="a_Node000006"><a xlink:href="State_8h.html" target="_top" xlink:title=" ">
<polygon fill="white" stroke="#666666" points="367.62,-27.12 293.12,-27.12 293.12,-6.38 367.62,-6.38 367.62,-27.12"/>
<text xml:space="preserve" text-anchor="middle" x="330.38" y="-13.62" font-family="Helvetica,sans-Serif" font-size="10.00">core/State.h</text>
</a>
</g>
</g>
<!-- Node5&#45;&gt;Node6 -->
<g id="edge5_Node000005_Node000006" class="edge">
<title>Node5&#45;&gt;Node6</title>
<g id="a_edge5_Node000005_Node000006"><a xlink:title=" ">
<path fill="none" stroke="#63b8ff" d="M332.89,-69.05C332.49,-60.9 331.91,-49.01 331.4,-38.73"/>
<polygon fill="#63b8ff" stroke="#63b8ff" points="334.91,-38.67 330.92,-28.86 327.91,-39.02 334.91,-38.67"/>
</a>
</g>
</g>
<!-- Node7 -->
<g id="Node000007" class="node">
<title>Node7</title>
<g id="a_Node000007"><a xlink:href="TickStatus_8h.html" target="_top" xlink:title=" ">
<polygon fill="white" stroke="#666666" points="485,-27.12 385.75,-27.12 385.75,-6.38 485,-6.38 485,-27.12"/>
<text xml:space="preserve" text-anchor="middle" x="435.38" y="-13.62" font-family="Helvetica,sans-Serif" font-size="10.00">core/TickStatus.h</text>
</a>
</g>
</g>
<!-- Node5&#45;&gt;Node7 -->
<g id="edge6_Node000005_Node000007" class="edge">
<title>Node5&#45;&gt;Node7</title>
<g id="a_edge6_Node000005_Node000007"><a xlink:title=" ">
<path fill="none" stroke="#63b8ff" d="M349.76,-69.05C365.82,-59.43 390.55,-44.61 409.31,-33.37"/>
<polygon fill="#63b8ff" stroke="#63b8ff" points="410.95,-36.47 417.73,-28.32 407.35,-30.46 410.95,-36.47"/>
</a>
</g>
</g>
</g>
</svg>
</svg>

<style type='text/css'>
<![CDATA[
[data-mouse-over-selected='false'] { opacity: 0.7; }
[data-mouse-over-selected='true']  { opacity: 1.0; }
]]>
</style>
<script type="application/ecmascript"><![CDATA[
document.addEventListener('DOMContentLoaded', (event) => {
  highlightEdges();
  highlightAdjacentNodes();
});
]]></script>
</svg>
