<?xml version="1.0" encoding="UTF-8" standalone="no"?>
<!DOCTYPE svg PUBLIC "-//W3C//DTD SVG 1.1//EN"
 "http://www.w3.org/Graphics/SVG/1.1/DTD/svg11.dtd">
<!-- Generated by graphviz version 2.42.4 (0)
 -->
<!-- Title: net/in6/phy/stream/PhysicalSocket.h Pages: 1 -->
<svg width="438pt" height="203pt"
 viewBox="0.00 0.00 437.50 203.00" xmlns="http://www.w3.org/2000/svg" xmlns:xlink="http://www.w3.org/1999/xlink">
<g id="graph0" class="graph" transform="scale(1 1) rotate(0) translate(4 199)">
<title>net/in6/phy/stream/PhysicalSocket.h</title>
<!-- Node1 -->
<g id="Node000001" class="node">
<title>Node1</title>
<g id="a_Node000001"><a xlink:title=" ">
<polygon fill="#999999" stroke="#666666" points="206,-195 108,-195 108,-165 206,-165 206,-195"/>
<text text-anchor="start" x="116" y="-183" font-family="Helvetica,sans-Serif" font-size="10.00">net/in6/phy/stream</text>
<text text-anchor="middle" x="157" y="-172" font-family="Helvetica,sans-Serif" font-size="10.00">/PhysicalSocket.h</text>
</a>
</g>
</g>
<!-- Node2 -->
<g id="Node000002" class="node">
<title>Node2</title>
<g id="a_Node000002"><a xlink:href="in6_2phy_2PhysicalSocket_8h.html" target="_top" xlink:title=" ">
<polygon fill="white" stroke="#666666" points="144,-129 0,-129 0,-110 144,-110 144,-129"/>
<text text-anchor="middle" x="72" y="-117" font-family="Helvetica,sans-Serif" font-size="10.00">net/in6/phy/PhysicalSocket.h</text>
</a>
</g>
</g>
<!-- Node1&#45;&gt;Node2 -->
<g id="edge1_Node000001_Node000002" class="edge">
<title>Node1&#45;&gt;Node2</title>
<g id="a_edge1_Node000001_Node000002"><a xlink:title=" ">
<path fill="none" stroke="#63b8ff" d="M136.42,-164.84C123.33,-155.83 106.41,-144.18 93.2,-135.09"/>
<polygon fill="#63b8ff" stroke="#63b8ff" points="94.96,-132.05 84.74,-129.27 90.99,-137.82 94.96,-132.05"/>
</a>
</g>
</g>
<!-- Node8 -->
<g id="Node000008" class="node">
<title>Node8</title>
<g id="a_Node000008"><a xlink:href="phy_2stream_2PhysicalSocket_8h.html" target="_top" xlink:title=" ">
<polygon fill="white" stroke="#666666" points="323.5,-129 162.5,-129 162.5,-110 323.5,-110 323.5,-129"/>
<text text-anchor="middle" x="243" y="-117" font-family="Helvetica,sans-Serif" font-size="10.00">net/phy/stream/PhysicalSocket.h</text>
</a>
</g>
</g>
<!-- Node1&#45;&gt;Node8 -->
<g id="edge7_Node000001_Node000008" class="edge">
<title>Node1&#45;&gt;Node8</title>
<g id="a_edge7_Node000001_Node000008"><a xlink:title=" ">
<path fill="none" stroke="#63b8ff" d="M177.82,-164.84C191.15,-155.77 208.39,-144.04 221.79,-134.92"/>
<polygon fill="#63b8ff" stroke="#63b8ff" points="224.07,-137.61 230.37,-129.09 220.13,-131.83 224.07,-137.61"/>
</a>
</g>
</g>
<!-- Node3 -->
<g id="Node000003" class="node">
<title>Node3</title>
<g id="a_Node000003"><a xlink:href="net_2in6_2SocketAddress_8h.html" target="_top" xlink:title=" ">
<polygon fill="white" stroke="#666666" points="134,-74 10,-74 10,-55 134,-55 134,-74"/>
<text text-anchor="middle" x="72" y="-62" font-family="Helvetica,sans-Serif" font-size="10.00">net/in6/SocketAddress.h</text>
</a>
</g>
</g>
<!-- Node2&#45;&gt;Node3 -->
<g id="edge2_Node000002_Node000003" class="edge">
<title>Node2&#45;&gt;Node3</title>
<g id="a_edge2_Node000002_Node000003"><a xlink:title=" ">
<path fill="none" stroke="#63b8ff" d="M72,-109.75C72,-102.8 72,-92.85 72,-84.13"/>
<polygon fill="#63b8ff" stroke="#63b8ff" points="75.5,-84.09 72,-74.09 68.5,-84.09 75.5,-84.09"/>
</a>
</g>
</g>
<!-- Node5 -->
<g id="Node000005" class="node">
<title>Node5</title>
<g id="a_Node000005"><a xlink:href="phy_2PhysicalSocket_8h.html" target="_top" xlink:title=" ">
<polygon fill="white" stroke="#666666" points="293,-74 165,-74 165,-55 293,-55 293,-74"/>
<text text-anchor="middle" x="229" y="-62" font-family="Helvetica,sans-Serif" font-size="10.00">net/phy/PhysicalSocket.h</text>
</a>
</g>
</g>
<!-- Node2&#45;&gt;Node5 -->
<g id="edge4_Node000002_Node000005" class="edge">
<title>Node2&#45;&gt;Node5</title>
<g id="a_edge4_Node000002_Node000005"><a xlink:title=" ">
<path fill="none" stroke="#63b8ff" d="M97.22,-109.98C123.36,-101.16 164.4,-87.31 193.73,-77.41"/>
<polygon fill="#63b8ff" stroke="#63b8ff" points="195.22,-80.6 203.58,-74.08 192.98,-73.96 195.22,-80.6"/>
</a>
</g>
</g>
<!-- Node4 -->
<g id="Node000004" class="node">
<title>Node4</title>
<g id="a_Node000004"><a xlink:href="net_2SocketAddress_8h.html" target="_top" xlink:title=" ">
<polygon fill="white" stroke="#666666" points="126,-19 18,-19 18,0 126,0 126,-19"/>
<text text-anchor="middle" x="72" y="-7" font-family="Helvetica,sans-Serif" font-size="10.00">net/SocketAddress.h</text>
</a>
</g>
</g>
<!-- Node3&#45;&gt;Node4 -->
<g id="edge3_Node000003_Node000004" class="edge">
<title>Node3&#45;&gt;Node4</title>
<g id="a_edge3_Node000003_Node000004"><a xlink:title=" ">
<path fill="none" stroke="#63b8ff" d="M72,-54.75C72,-47.8 72,-37.85 72,-29.13"/>
<polygon fill="#63b8ff" stroke="#63b8ff" points="75.5,-29.09 72,-19.09 68.5,-29.09 75.5,-29.09"/>
</a>
</g>
</g>
<!-- Node6 -->
<g id="Node000006" class="node">
<title>Node6</title>
<g id="a_Node000006"><a xlink:href="Descriptor_8h.html" target="_top" xlink:title=" ">
<polygon fill="white" stroke="#666666" points="254.5,-19 163.5,-19 163.5,0 254.5,0 254.5,-19"/>
<text text-anchor="middle" x="209" y="-7" font-family="Helvetica,sans-Serif" font-size="10.00">core/Descriptor.h</text>
</a>
</g>
</g>
<!-- Node5&#45;&gt;Node6 -->
<g id="edge5_Node000005_Node000006" class="edge">
<title>Node5&#45;&gt;Node6</title>
<g id="a_edge5_Node000005_Node000006"><a xlink:title=" ">
<path fill="none" stroke="#63b8ff" d="M225.7,-54.75C223.02,-47.65 219.15,-37.4 215.81,-28.56"/>
<polygon fill="#63b8ff" stroke="#63b8ff" points="219.05,-27.21 212.24,-19.09 212.5,-29.68 219.05,-27.21"/>
</a>
</g>
</g>
<!-- Node7 -->
<g id="Node000007" class="node">
<title>Node7</title>
<g id="a_Node000007"><a xlink:href="PhysicalSocketOption_8h.html" target="_top" xlink:title=" ">
<polygon fill="white" stroke="#666666" points="429.5,-19 272.5,-19 272.5,0 429.5,0 429.5,-19"/>
<text text-anchor="middle" x="351" y="-7" font-family="Helvetica,sans-Serif" font-size="10.00">net/phy/PhysicalSocketOption.h</text>
</a>
</g>
</g>
<!-- Node5&#45;&gt;Node7 -->
<g id="edge6_Node000005_Node000007" class="edge">
<title>Node5&#45;&gt;Node7</title>
<g id="a_edge6_Node000005_Node000007"><a xlink:title=" ">
<path fill="none" stroke="#63b8ff" d="M248.6,-54.98C268.32,-46.42 298.95,-33.11 321.58,-23.28"/>
<polygon fill="#63b8ff" stroke="#63b8ff" points="323.26,-26.37 331.04,-19.17 320.48,-19.94 323.26,-26.37"/>
</a>
</g>
</g>
<!-- Node8&#45;&gt;Node5 -->
<g id="edge8_Node000008_Node000005" class="edge">
<title>Node8&#45;&gt;Node5</title>
<g id="a_edge8_Node000008_Node000005"><a xlink:title=" ">
<path fill="none" stroke="#63b8ff" d="M240.69,-109.75C238.83,-102.72 236.16,-92.62 233.85,-83.84"/>
<polygon fill="#63b8ff" stroke="#63b8ff" points="237.21,-82.86 231.27,-74.09 230.44,-84.65 237.21,-82.86"/>
</a>
</g>
</g>
</g>
</svg>
