<?xml version="1.0" encoding="UTF-8" standalone="no"?>
<!DOCTYPE svg PUBLIC "-//W3C//DTD SVG 1.1//EN"
 "http://www.w3.org/Graphics/SVG/1.1/DTD/svg11.dtd">
<!-- Generated by graphviz version 2.42.4 (0)
 -->
<!-- Title: net/in6/phy/stream/PhysicalSocket.h Pages: 1 -->
<!--zoomable 500 -->

<svg id="main" version="1.1" xmlns="http://www.w3.org/2000/svg" xmlns:xlink="http://www.w3.org/1999/xlink" xml:space="preserve" onload="init(evt)">
<style type="text/css"><![CDATA[
.node, .edge {opacity: 0.7;}
.node.selected, .edge.selected {opacity: 1;}
.edge:hover path { stroke: red; }
.edge:hover polygon { stroke: red; fill: red; }
]]></style>

<defs>
  <circle id="rim" cx="0" cy="0" r="7"/>
  <circle id="rim2" cx="0" cy="0" r="3.5"/>
  <g id="zoomPlus">
    <use xlink:href="#rim" fill="#404040"><set attributeName="fill" to="#808080" begin="zoomplus.mouseover" end="zoomplus.mouseout"/></use>
    <path d="M-4,0h8M0,-4v8" fill="none" stroke="white" stroke-width="1.5" pointer-events="none"/>
  </g>
  <g id="zoomMin">
    <use xlink:href="#rim" fill="#404040"><set attributeName="fill" to="#808080" begin="zoomminus.mouseover" end="zoomminus.mouseout"/></use>
    <path d="M-4,0h8" fill="none" stroke="white" stroke-width="1.5" pointer-events="none"/>
  </g>
  <g id="arrowUp" transform="translate(30 24)">
    <use xlink:href="#rim"/>
    <path pointer-events="none" fill="none" stroke="white" stroke-width="1.5" d="M0,-3.0v7 M-2.5,-0.5L0,-3.0L2.5,-0.5"/>
  </g>
  <g id="arrowRight" transform="rotate(90) translate(36 -43)">
    <use xlink:href="#rim"/>
    <path pointer-events="none" fill="none" stroke="white" stroke-width="1.5" d="M0,-3.0v7 M-2.5,-0.5L0,-3.0L2.5,-0.5"/>
  </g>
  <g id="arrowDown" transform="rotate(180) translate(-30 -48)">
    <use xlink:href="#rim"/>
    <path pointer-events="none" fill="none" stroke="white" stroke-width="1.5" d="M0,-3.0v7 M-2.5,-0.5L0,-3.0L2.5,-0.5"/>
  </g>
  <g id="arrowLeft" transform="rotate(270) translate(-36 17)">
    <use xlink:href="#rim"/>
    <path pointer-events="none" fill="none" stroke="white" stroke-width="1.5" d="M0,-3.0v7 M-2.5,-0.5L0,-3.0L2.5,-0.5"/>
  </g>
  <g id="resetDef">
    <use xlink:href="#rim2" fill="#404040"><set attributeName="fill" to="#808080" begin="reset.mouseover" end="reset.mouseout"/></use>
  </g>
</defs>
<script type="application/ecmascript">
var viewWidth = 1164;
var viewHeight = 500;
var sectionId = 'dynsection-1';
</script>
<script type="application/ecmascript" xlink:href="svg.min.js"/>
<svg id="graph" class="graph">
<g id="viewport">
<title>net/in6/phy/stream/PhysicalSocket.h</title>
<!-- Node1 -->
<g id="Node000001" class="node">
<title>Node1</title>
<g id="a_Node000001"><a xlink:title=" ">
<polygon fill="#999999" stroke="#666666" points="540,-492 431,-492 431,-462 540,-462 540,-492"/>
<text text-anchor="start" x="439" y="-480" font-family="Helvetica,sans-Serif" font-size="10.00">net/in6/phy/stream</text>
<text text-anchor="middle" x="485.5" y="-469" font-family="Helvetica,sans-Serif" font-size="10.00">/PhysicalSocket.h</text>
</a>
</g>
</g>
<!-- Node2 -->
<g id="Node000002" class="node">
<title>Node2</title>
<g id="a_Node000002"><a xlink:href="in6_2phy_2stream_2PhysicalSocket_8cpp.html" target="_top" xlink:title=" ">
<polygon fill="white" stroke="#666666" points="332,-426 219,-426 219,-396 332,-396 332,-426"/>
<text text-anchor="start" x="227" y="-414" font-family="Helvetica,sans-Serif" font-size="10.00">net/in6/phy/stream</text>
<text text-anchor="middle" x="275.5" y="-403" font-family="Helvetica,sans-Serif" font-size="10.00">/PhysicalSocket.cpp</text>
</a>
</g>
</g>
<!-- Node1&#45;&gt;Node2 -->
<g id="edge1_Node000001_Node000002" class="edge">
<title>Node1&#45;&gt;Node2</title>
<g id="a_edge1_Node000001_Node000002"><a xlink:title=" ">
<path fill="none" stroke="#63b8ff" d="M429.68,-458.99C395.89,-448.69 353.32,-435.72 321.48,-426.01"/>
<polygon fill="#63b8ff" stroke="#63b8ff" points="428.83,-462.39 439.41,-461.95 430.87,-455.69 428.83,-462.39"/>
</a>
</g>
</g>
<!-- Node3 -->
<g id="Node000003" class="node">
<title>Node3</title>
<g id="a_Node000003"><a xlink:href="in6_2phy_2stream_2PhysicalSocket_8hpp.html" target="_top" xlink:title=" ">
<polygon fill="white" stroke="#666666" points="612,-426 499,-426 499,-396 612,-396 612,-426"/>
<text text-anchor="start" x="507" y="-414" font-family="Helvetica,sans-Serif" font-size="10.00">net/in6/phy/stream</text>
<text text-anchor="middle" x="555.5" y="-403" font-family="Helvetica,sans-Serif" font-size="10.00">/PhysicalSocket.hpp</text>
</a>
</g>
</g>
<!-- Node1&#45;&gt;Node3 -->
<g id="edge2_Node000001_Node000003" class="edge">
<title>Node1&#45;&gt;Node3</title>
<g id="a_edge2_Node000001_Node000003"><a xlink:title=" ">
<path fill="none" stroke="#63b8ff" d="M508.55,-454.92C518.87,-445.49 530.77,-434.61 540.01,-426.16"/>
<polygon fill="#63b8ff" stroke="#63b8ff" points="506.05,-452.47 501.04,-461.8 510.78,-457.63 506.05,-452.47"/>
</a>
</g>
</g>
<!-- Node6 -->
<g id="Node000006" class="node">
<title>Node6</title>
<g id="a_Node000006"><a xlink:href="in6_2phy_2stream_2PhysicalSocketClient_8h.html" target="_top" xlink:title=" ">
<polygon fill="white" stroke="#666666" points="480.5,-426 350.5,-426 350.5,-396 480.5,-396 480.5,-426"/>
<text text-anchor="start" x="358.5" y="-414" font-family="Helvetica,sans-Serif" font-size="10.00">net/in6/phy/stream</text>
<text text-anchor="middle" x="415.5" y="-403" font-family="Helvetica,sans-Serif" font-size="10.00">/PhysicalSocketClient.h</text>
</a>
</g>
</g>
<!-- Node1&#45;&gt;Node6 -->
<g id="edge5_Node000001_Node000006" class="edge">
<title>Node1&#45;&gt;Node6</title>
<g id="a_edge5_Node000001_Node000006"><a xlink:title=" ">
<path fill="none" stroke="#63b8ff" d="M462.45,-454.92C452.13,-445.49 440.23,-434.61 430.99,-426.16"/>
<polygon fill="#63b8ff" stroke="#63b8ff" points="460.22,-457.63 469.96,-461.8 464.95,-452.47 460.22,-457.63"/>
</a>
</g>
</g>
<!-- Node14 -->
<g id="Node000014" class="node">
<title>Node14</title>
<g id="a_Node000014"><a xlink:href="in6_2phy_2stream_2PhysicalSocketServer_8h.html" target="_top" xlink:title=" ">
<polygon fill="white" stroke="#666666" points="763,-426 630,-426 630,-396 763,-396 763,-426"/>
<text text-anchor="start" x="638" y="-414" font-family="Helvetica,sans-Serif" font-size="10.00">net/in6/phy/stream</text>
<text text-anchor="middle" x="696.5" y="-403" font-family="Helvetica,sans-Serif" font-size="10.00">/PhysicalSocketServer.h</text>
</a>
</g>
</g>
<!-- Node1&#45;&gt;Node14 -->
<g id="edge14_Node000001_Node000014" class="edge">
<title>Node1&#45;&gt;Node14</title>
<g id="a_edge14_Node000001_Node000014"><a xlink:title=" ">
<path fill="none" stroke="#63b8ff" d="M541.58,-458.99C575.53,-448.69 618.31,-435.72 650.3,-426.01"/>
<polygon fill="#63b8ff" stroke="#63b8ff" points="540.36,-455.7 531.8,-461.95 542.39,-462.4 540.36,-455.7"/>
</a>
</g>
</g>
<!-- Node4 -->
<g id="Node000004" class="node">
<title>Node4</title>
<g id="a_Node000004"><a xlink:href="in6_2phy_2stream_2PhysicalSocketClient_8cpp.html" target="_top" xlink:title=" ">
<polygon fill="white" stroke="#666666" points="546,-360 405,-360 405,-330 546,-330 546,-360"/>
<text text-anchor="start" x="413" y="-348" font-family="Helvetica,sans-Serif" font-size="10.00">net/in6/phy/stream</text>
<text text-anchor="middle" x="475.5" y="-337" font-family="Helvetica,sans-Serif" font-size="10.00">/PhysicalSocketClient.cpp</text>
</a>
</g>
</g>
<!-- Node3&#45;&gt;Node4 -->
<g id="edge3_Node000003_Node000004" class="edge">
<title>Node3&#45;&gt;Node4</title>
<g id="a_edge3_Node000003_Node000004"><a xlink:title=" ">
<path fill="none" stroke="#63b8ff" d="M529.85,-389.48C517.89,-379.91 503.97,-368.77 493.2,-360.16"/>
<polygon fill="#63b8ff" stroke="#63b8ff" points="527.75,-392.28 537.75,-395.8 532.12,-386.82 527.75,-392.28"/>
</a>
</g>
</g>
<!-- Node5 -->
<g id="Node000005" class="node">
<title>Node5</title>
<g id="a_Node000005"><a xlink:href="in6_2phy_2stream_2PhysicalSocketServer_8cpp.html" target="_top" xlink:title=" ">
<polygon fill="white" stroke="#666666" points="708.5,-360 564.5,-360 564.5,-330 708.5,-330 708.5,-360"/>
<text text-anchor="start" x="572.5" y="-348" font-family="Helvetica,sans-Serif" font-size="10.00">net/in6/phy/stream</text>
<text text-anchor="middle" x="636.5" y="-337" font-family="Helvetica,sans-Serif" font-size="10.00">/PhysicalSocketServer.cpp</text>
</a>
</g>
</g>
<!-- Node3&#45;&gt;Node5 -->
<g id="edge4_Node000003_Node000005" class="edge">
<title>Node3&#45;&gt;Node5</title>
<g id="a_edge4_Node000003_Node000005"><a xlink:title=" ">
<path fill="none" stroke="#63b8ff" d="M581.47,-389.48C593.58,-379.91 607.68,-368.77 618.57,-360.16"/>
<polygon fill="#63b8ff" stroke="#63b8ff" points="579.15,-386.85 573.48,-395.8 583.49,-392.34 579.15,-386.85"/>
</a>
</g>
</g>
<!-- Node6&#45;&gt;Node4 -->
<g id="edge6_Node000006_Node000004" class="edge">
<title>Node6&#45;&gt;Node4</title>
<g id="a_edge6_Node000006_Node000004"><a xlink:title=" ">
<path fill="none" stroke="#63b8ff" d="M435.78,-388.37C444.51,-379.06 454.46,-368.44 462.22,-360.16"/>
<polygon fill="#63b8ff" stroke="#63b8ff" points="433.1,-386.11 428.82,-395.8 438.21,-390.89 433.1,-386.11"/>
</a>
</g>
</g>
<!-- Node7 -->
<g id="Node000007" class="node">
<title>Node7</title>
<g id="a_Node000007"><a xlink:href="net_2in6_2stream_2SocketClient_8h.html" target="_top" xlink:title=" ">
<polygon fill="white" stroke="#666666" points="387,-354.5 226,-354.5 226,-335.5 387,-335.5 387,-354.5"/>
<text text-anchor="middle" x="306.5" y="-342.5" font-family="Helvetica,sans-Serif" font-size="10.00">net/in6/stream/SocketClient.h</text>
</a>
</g>
</g>
<!-- Node6&#45;&gt;Node7 -->
<g id="edge7_Node000006_Node000007" class="edge">
<title>Node6&#45;&gt;Node7</title>
<g id="a_edge7_Node000006_Node000007"><a xlink:title=" ">
<path fill="none" stroke="#63b8ff" d="M382.82,-390.81C362.25,-378.73 336.7,-363.73 321.01,-354.52"/>
<polygon fill="#63b8ff" stroke="#63b8ff" points="381.18,-393.91 391.58,-395.95 384.73,-387.87 381.18,-393.91"/>
</a>
</g>
</g>
<!-- Node8 -->
<g id="Node000008" class="node">
<title>Node8</title>
<g id="a_Node000008"><a xlink:href="net_2in6_2stream_2legacy_2SocketClient_8h.html" target="_top" xlink:title=" ">
<polygon fill="white" stroke="#666666" points="258,-294 135,-294 135,-264 258,-264 258,-294"/>
<text text-anchor="start" x="143" y="-282" font-family="Helvetica,sans-Serif" font-size="10.00">net/in6/stream/legacy</text>
<text text-anchor="middle" x="196.5" y="-271" font-family="Helvetica,sans-Serif" font-size="10.00">/SocketClient.h</text>
</a>
</g>
</g>
<!-- Node7&#45;&gt;Node8 -->
<g id="edge8_Node000007_Node000008" class="edge">
<title>Node7&#45;&gt;Node8</title>
<g id="a_edge8_Node000007_Node000008"><a xlink:title=" ">
<path fill="none" stroke="#63b8ff" d="M282.79,-330.21C264.47,-319.55 239.22,-304.85 220.76,-294.12"/>
<polygon fill="#63b8ff" stroke="#63b8ff" points="281.26,-333.36 291.66,-335.37 284.78,-327.31 281.26,-333.36"/>
</a>
</g>
</g>
<!-- Node11 -->
<g id="Node000011" class="node">
<title>Node11</title>
<g id="a_Node000011"><a xlink:href="net_2in6_2stream_2tls_2SocketClient_8h.html" target="_top" xlink:title=" ">
<polygon fill="white" stroke="#666666" points="379,-294 276,-294 276,-264 379,-264 379,-294"/>
<text text-anchor="start" x="284" y="-282" font-family="Helvetica,sans-Serif" font-size="10.00">net/in6/stream/tls</text>
<text text-anchor="middle" x="327.5" y="-271" font-family="Helvetica,sans-Serif" font-size="10.00">/SocketClient.h</text>
</a>
</g>
</g>
<!-- Node7&#45;&gt;Node11 -->
<g id="edge11_Node000007_Node000011" class="edge">
<title>Node7&#45;&gt;Node11</title>
<g id="a_edge11_Node000007_Node000011"><a xlink:title=" ">
<path fill="none" stroke="#63b8ff" d="M312.52,-325.67C315.78,-315.72 319.75,-303.61 322.79,-294.36"/>
<polygon fill="#63b8ff" stroke="#63b8ff" points="309.12,-324.78 309.33,-335.37 315.78,-326.96 309.12,-324.78"/>
</a>
</g>
</g>
<!-- Node9 -->
<g id="Node000009" class="node">
<title>Node9</title>
<g id="a_Node000009"><a xlink:href="in6_2stream_2legacy_2SocketClient_8cpp.html" target="_top" xlink:title=" ">
<polygon fill="white" stroke="#666666" points="123,-228 0,-228 0,-198 123,-198 123,-228"/>
<text text-anchor="start" x="8" y="-216" font-family="Helvetica,sans-Serif" font-size="10.00">net/in6/stream/legacy</text>
<text text-anchor="middle" x="61.5" y="-205" font-family="Helvetica,sans-Serif" font-size="10.00">/SocketClient.cpp</text>
</a>
</g>
</g>
<!-- Node8&#45;&gt;Node9 -->
<g id="edge9_Node000008_Node000009" class="edge">
<title>Node8&#45;&gt;Node9</title>
<g id="a_edge9_Node000008_Node000009"><a xlink:title=" ">
<path fill="none" stroke="#63b8ff" d="M157.79,-259.65C136.56,-249.58 110.65,-237.3 91.06,-228.01"/>
<polygon fill="#63b8ff" stroke="#63b8ff" points="156.34,-262.83 166.87,-263.95 159.34,-256.51 156.34,-262.83"/>
</a>
</g>
</g>
<!-- Node10 -->
<g id="Node000010" class="node">
<title>Node10</title>
<g id="a_Node000010"><a xlink:href="legacy_2in6_2Client_8h.html" target="_top" xlink:title=" ">
<polygon fill="white" stroke="#666666" points="254,-228 141,-228 141,-198 254,-198 254,-228"/>
<text text-anchor="start" x="149" y="-216" font-family="Helvetica,sans-Serif" font-size="10.00">web/http/legacy/in6</text>
<text text-anchor="middle" x="197.5" y="-205" font-family="Helvetica,sans-Serif" font-size="10.00">/Client.h</text>
</a>
</g>
</g>
<!-- Node8&#45;&gt;Node10 -->
<g id="edge10_Node000008_Node000010" class="edge">
<title>Node8&#45;&gt;Node10</title>
<g id="a_edge10_Node000008_Node000010"><a xlink:title=" ">
<path fill="none" stroke="#63b8ff" d="M196.88,-253.54C197.02,-244.96 197.16,-235.61 197.28,-228.16"/>
<polygon fill="#63b8ff" stroke="#63b8ff" points="193.38,-253.74 196.72,-263.8 200.38,-253.85 193.38,-253.74"/>
</a>
</g>
</g>
<!-- Node12 -->
<g id="Node000012" class="node">
<title>Node12</title>
<g id="a_Node000012"><a xlink:href="in6_2stream_2tls_2SocketClient_8cpp.html" target="_top" xlink:title=" ">
<polygon fill="white" stroke="#666666" points="377,-228 274,-228 274,-198 377,-198 377,-228"/>
<text text-anchor="start" x="282" y="-216" font-family="Helvetica,sans-Serif" font-size="10.00">net/in6/stream/tls</text>
<text text-anchor="middle" x="325.5" y="-205" font-family="Helvetica,sans-Serif" font-size="10.00">/SocketClient.cpp</text>
</a>
</g>
</g>
<!-- Node11&#45;&gt;Node12 -->
<g id="edge12_Node000011_Node000012" class="edge">
<title>Node11&#45;&gt;Node12</title>
<g id="a_edge12_Node000011_Node000012"><a xlink:title=" ">
<path fill="none" stroke="#63b8ff" d="M326.74,-253.54C326.47,-244.96 326.18,-235.61 325.94,-228.16"/>
<polygon fill="#63b8ff" stroke="#63b8ff" points="323.25,-253.91 327.06,-263.8 330.24,-253.69 323.25,-253.91"/>
</a>
</g>
</g>
<!-- Node13 -->
<g id="Node000013" class="node">
<title>Node13</title>
<g id="a_Node000013"><a xlink:href="tls_2in6_2Client_8h.html" target="_top" xlink:title=" ">
<polygon fill="white" stroke="#666666" points="528,-222.5 395,-222.5 395,-203.5 528,-203.5 528,-222.5"/>
<text text-anchor="middle" x="461.5" y="-210.5" font-family="Helvetica,sans-Serif" font-size="10.00">web/http/tls/in6/Client.h</text>
</a>
</g>
</g>
<!-- Node11&#45;&gt;Node13 -->
<g id="edge13_Node000011_Node000013" class="edge">
<title>Node11&#45;&gt;Node13</title>
<g id="a_edge13_Node000011_Node000013"><a xlink:title=" ">
<path fill="none" stroke="#63b8ff" d="M365.98,-259.62C391.55,-247.41 423.94,-231.94 443.67,-222.52"/>
<polygon fill="#63b8ff" stroke="#63b8ff" points="364.42,-256.49 356.91,-263.95 367.44,-262.8 364.42,-256.49"/>
</a>
</g>
</g>
<!-- Node14&#45;&gt;Node5 -->
<g id="edge15_Node000014_Node000005" class="edge">
<title>Node14&#45;&gt;Node5</title>
<g id="a_edge15_Node000014_Node000005"><a xlink:title=" ">
<path fill="none" stroke="#63b8ff" d="M676.22,-388.37C667.49,-379.06 657.54,-368.44 649.78,-360.16"/>
<polygon fill="#63b8ff" stroke="#63b8ff" points="673.79,-390.89 683.18,-395.8 678.9,-386.11 673.79,-390.89"/>
</a>
</g>
</g>
<!-- Node15 -->
<g id="Node000015" class="node">
<title>Node15</title>
<g id="a_Node000015"><a xlink:href="net_2in6_2stream_2SocketServer_8h.html" target="_top" xlink:title=" ">
<polygon fill="white" stroke="#666666" points="890.5,-354.5 726.5,-354.5 726.5,-335.5 890.5,-335.5 890.5,-354.5"/>
<text text-anchor="middle" x="808.5" y="-342.5" font-family="Helvetica,sans-Serif" font-size="10.00">net/in6/stream/SocketServer.h</text>
</a>
</g>
</g>
<!-- Node14&#45;&gt;Node15 -->
<g id="edge16_Node000014_Node000015" class="edge">
<title>Node14&#45;&gt;Node15</title>
<g id="a_edge16_Node000014_Node000015"><a xlink:title=" ">
<path fill="none" stroke="#63b8ff" d="M729.8,-390.97C750.98,-378.87 777.39,-363.78 793.59,-354.52"/>
<polygon fill="#63b8ff" stroke="#63b8ff" points="728.02,-387.95 721.08,-395.95 731.5,-394.03 728.02,-387.95"/>
</a>
</g>
</g>
<!-- Node16 -->
<g id="Node000016" class="node">
<title>Node16</title>
<g id="a_Node000016"><a xlink:href="net_2in6_2stream_2legacy_2SocketServer_8h.html" target="_top" xlink:title=" ">
<polygon fill="white" stroke="#666666" points="848,-294 725,-294 725,-264 848,-264 848,-294"/>
<text text-anchor="start" x="733" y="-282" font-family="Helvetica,sans-Serif" font-size="10.00">net/in6/stream/legacy</text>
<text text-anchor="middle" x="786.5" y="-271" font-family="Helvetica,sans-Serif" font-size="10.00">/SocketServer.h</text>
</a>
</g>
</g>
<!-- Node15&#45;&gt;Node16 -->
<g id="edge17_Node000015_Node000016" class="edge">
<title>Node15&#45;&gt;Node16</title>
<g id="a_edge17_Node000015_Node000016"><a xlink:title=" ">
<path fill="none" stroke="#63b8ff" d="M802.2,-325.67C798.78,-315.72 794.62,-303.61 791.44,-294.36"/>
<polygon fill="#63b8ff" stroke="#63b8ff" points="798.97,-327.05 805.53,-335.37 805.59,-324.77 798.97,-327.05"/>
</a>
</g>
</g>
<!-- Node24 -->
<g id="Node000024" class="node">
<title>Node24</title>
<g id="a_Node000024"><a xlink:href="net_2in6_2stream_2tls_2SocketServer_8h.html" target="_top" xlink:title=" ">
<polygon fill="white" stroke="#666666" points="987,-294 884,-294 884,-264 987,-264 987,-294"/>
<text text-anchor="start" x="892" y="-282" font-family="Helvetica,sans-Serif" font-size="10.00">net/in6/stream/tls</text>
<text text-anchor="middle" x="935.5" y="-271" font-family="Helvetica,sans-Serif" font-size="10.00">/SocketServer.h</text>
</a>
</g>
</g>
<!-- Node15&#45;&gt;Node24 -->
<g id="edge25_Node000015_Node000024" class="edge">
<title>Node15&#45;&gt;Node24</title>
<g id="a_edge25_Node000015_Node000024"><a xlink:title=" ">
<path fill="none" stroke="#63b8ff" d="M834.72,-330.79C855.95,-320.09 885.79,-305.05 907.49,-294.12"/>
<polygon fill="#63b8ff" stroke="#63b8ff" points="832.98,-327.74 825.63,-335.37 836.13,-333.99 832.98,-327.74"/>
</a>
</g>
</g>
<!-- Node17 -->
<g id="Node000017" class="node">
<title>Node17</title>
<g id="a_Node000017"><a xlink:href="in6_2stream_2legacy_2SocketServer_8cpp.html" target="_top" xlink:title=" ">
<polygon fill="white" stroke="#666666" points="712,-228 589,-228 589,-198 712,-198 712,-228"/>
<text text-anchor="start" x="597" y="-216" font-family="Helvetica,sans-Serif" font-size="10.00">net/in6/stream/legacy</text>
<text text-anchor="middle" x="650.5" y="-205" font-family="Helvetica,sans-Serif" font-size="10.00">/SocketServer.cpp</text>
</a>
</g>
</g>
<!-- Node16&#45;&gt;Node17 -->
<g id="edge18_Node000016_Node000017" class="edge">
<title>Node16&#45;&gt;Node17</title>
<g id="a_edge18_Node000016_Node000017"><a xlink:title=" ">
<path fill="none" stroke="#63b8ff" d="M747.5,-259.65C726.11,-249.58 700.01,-237.3 680.28,-228.01"/>
<polygon fill="#63b8ff" stroke="#63b8ff" points="746.12,-262.86 756.65,-263.95 749.1,-256.53 746.12,-262.86"/>
</a>
</g>
</g>
<!-- Node18 -->
<g id="Node000018" class="node">
<title>Node18</title>
<g id="a_Node000018"><a xlink:href="web_2http_2legacy_2in6_2Server_8h.html" target="_top" xlink:title=" ">
<polygon fill="white" stroke="#666666" points="843,-228 730,-228 730,-198 843,-198 843,-228"/>
<text text-anchor="start" x="738" y="-216" font-family="Helvetica,sans-Serif" font-size="10.00">web/http/legacy/in6</text>
<text text-anchor="middle" x="786.5" y="-205" font-family="Helvetica,sans-Serif" font-size="10.00">/Server.h</text>
</a>
</g>
</g>
<!-- Node16&#45;&gt;Node18 -->
<g id="edge19_Node000016_Node000018" class="edge">
<title>Node16&#45;&gt;Node18</title>
<g id="a_edge19_Node000016_Node000018"><a xlink:title=" ">
<path fill="none" stroke="#63b8ff" d="M786.5,-253.54C786.5,-244.96 786.5,-235.61 786.5,-228.16"/>
<polygon fill="#63b8ff" stroke="#63b8ff" points="783,-253.8 786.5,-263.8 790,-253.8 783,-253.8"/>
</a>
</g>
</g>
<!-- Node19 -->
<g id="Node000019" class="node">
<title>Node19</title>
<g id="a_Node000019"><a xlink:href="legacy_2in6_2WebApp_8h.html" target="_top" xlink:title=" ">
<polygon fill="white" stroke="#666666" points="839.5,-162 731.5,-162 731.5,-132 839.5,-132 839.5,-162"/>
<text text-anchor="start" x="739.5" y="-150" font-family="Helvetica,sans-Serif" font-size="10.00">express/legacy/in6</text>
<text text-anchor="middle" x="785.5" y="-139" font-family="Helvetica,sans-Serif" font-size="10.00">/WebApp.h</text>
</a>
</g>
</g>
<!-- Node18&#45;&gt;Node19 -->
<g id="edge20_Node000018_Node000019" class="edge">
<title>Node18&#45;&gt;Node19</title>
<g id="a_edge20_Node000018_Node000019"><a xlink:title=" ">
<path fill="none" stroke="#63b8ff" d="M786.12,-187.54C785.98,-178.96 785.84,-169.61 785.72,-162.16"/>
<polygon fill="#63b8ff" stroke="#63b8ff" points="782.62,-187.85 786.28,-197.8 789.62,-187.74 782.62,-187.85"/>
</a>
</g>
</g>
<!-- Node20 -->
<g id="Node000020" class="node">
<title>Node20</title>
<g id="a_Node000020"><a xlink:href="testbasicauthentication_8cpp.html" target="_top" xlink:title=" ">
<polygon fill="white" stroke="#666666" points="862.5,-90.5 684.5,-90.5 684.5,-71.5 862.5,-71.5 862.5,-90.5"/>
<text text-anchor="middle" x="773.5" y="-78.5" font-family="Helvetica,sans-Serif" font-size="10.00">apps/testbasicauthentication.cpp</text>
</a>
</g>
</g>
<!-- Node19&#45;&gt;Node20 -->
<g id="edge21_Node000019_Node000020" class="edge">
<title>Node19&#45;&gt;Node20</title>
<g id="a_edge21_Node000019_Node000020"><a xlink:title=" ">
<path fill="none" stroke="#63b8ff" d="M780.99,-121.94C778.95,-111.06 776.66,-98.86 775.16,-90.84"/>
<polygon fill="#63b8ff" stroke="#63b8ff" points="777.55,-122.61 782.84,-131.8 784.43,-121.32 777.55,-122.61"/>
</a>
</g>
</g>
<!-- Node21 -->
<g id="Node000021" class="node">
<title>Node21</title>
<g id="a_Node000021"><a xlink:href="vhostserver_8cpp.html" target="_top" xlink:title=" ">
<polygon fill="white" stroke="#666666" points="1001,-90.5 880,-90.5 880,-71.5 1001,-71.5 1001,-90.5"/>
<text text-anchor="middle" x="940.5" y="-78.5" font-family="Helvetica,sans-Serif" font-size="10.00">apps/vhostserver.cpp</text>
</a>
</g>
</g>
<!-- Node19&#45;&gt;Node21 -->
<g id="edge22_Node000019_Node000021" class="edge">
<title>Node19&#45;&gt;Node21</title>
<g id="a_edge22_Node000019_Node000021"><a xlink:title=" ">
<path fill="none" stroke="#63b8ff" d="M828.85,-128.1C858.6,-115.82 896.75,-100.06 919.87,-90.52"/>
<polygon fill="#63b8ff" stroke="#63b8ff" points="827.42,-124.9 819.52,-131.95 830.09,-131.37 827.42,-124.9"/>
</a>
</g>
</g>
<!-- Node22 -->
<g id="Node000022" class="node">
<title>Node22</title>
<g id="a_Node000022"><a xlink:href="express_2legacy_2in6_2Server_8h.html" target="_top" xlink:title=" ">
<polygon fill="white" stroke="#666666" points="666.5,-96 558.5,-96 558.5,-66 666.5,-66 666.5,-96"/>
<text text-anchor="start" x="566.5" y="-84" font-family="Helvetica,sans-Serif" font-size="10.00">express/legacy/in6</text>
<text text-anchor="middle" x="612.5" y="-73" font-family="Helvetica,sans-Serif" font-size="10.00">/Server.h</text>
</a>
</g>
</g>
<!-- Node19&#45;&gt;Node22 -->
<g id="edge23_Node000019_Node000022" class="edge">
<title>Node19&#45;&gt;Node22</title>
<g id="a_edge23_Node000019_Node000022"><a xlink:title=" ">
<path fill="none" stroke="#63b8ff" d="M738.08,-128.46C710.48,-118.25 676.16,-105.55 650.38,-96.01"/>
<polygon fill="#63b8ff" stroke="#63b8ff" points="736.94,-131.77 747.53,-131.95 739.37,-125.2 736.94,-131.77"/>
</a>
</g>
</g>
<!-- Node23 -->
<g id="Node000023" class="node">
<title>Node23</title>
<g id="a_Node000023"><a xlink:href="legacy_2in6_2Server_8cpp.html" target="_top" xlink:title=" ">
<polygon fill="white" stroke="#666666" points="666.5,-30 558.5,-30 558.5,0 666.5,0 666.5,-30"/>
<text text-anchor="start" x="566.5" y="-18" font-family="Helvetica,sans-Serif" font-size="10.00">express/legacy/in6</text>
<text text-anchor="middle" x="612.5" y="-7" font-family="Helvetica,sans-Serif" font-size="10.00">/Server.cpp</text>
</a>
</g>
</g>
<!-- Node22&#45;&gt;Node23 -->
<g id="edge24_Node000022_Node000023" class="edge">
<title>Node22&#45;&gt;Node23</title>
<g id="a_edge24_Node000022_Node000023"><a xlink:title=" ">
<path fill="none" stroke="#63b8ff" d="M612.5,-55.54C612.5,-46.96 612.5,-37.61 612.5,-30.16"/>
<polygon fill="#63b8ff" stroke="#63b8ff" points="609,-55.8 612.5,-65.8 616,-55.8 609,-55.8"/>
</a>
</g>
</g>
<!-- Node25 -->
<g id="Node000025" class="node">
<title>Node25</title>
<g id="a_Node000025"><a xlink:href="in6_2stream_2tls_2SocketServer_8cpp.html" target="_top" xlink:title=" ">
<polygon fill="white" stroke="#666666" points="1125.5,-228 1021.5,-228 1021.5,-198 1125.5,-198 1125.5,-228"/>
<text text-anchor="start" x="1029.5" y="-216" font-family="Helvetica,sans-Serif" font-size="10.00">net/in6/stream/tls</text>
<text text-anchor="middle" x="1073.5" y="-205" font-family="Helvetica,sans-Serif" font-size="10.00">/SocketServer.cpp</text>
</a>
</g>
</g>
<!-- Node24&#45;&gt;Node25 -->
<g id="edge26_Node000024_Node000025" class="edge">
<title>Node24&#45;&gt;Node25</title>
<g id="a_edge26_Node000024_Node000025"><a xlink:title=" ">
<path fill="none" stroke="#63b8ff" d="M975.07,-259.65C996.77,-249.58 1023.26,-237.3 1043.29,-228.01"/>
<polygon fill="#63b8ff" stroke="#63b8ff" points="973.38,-256.57 965.78,-263.95 976.33,-262.92 973.38,-256.57"/>
</a>
</g>
</g>
<!-- Node26 -->
<g id="Node000026" class="node">
<title>Node26</title>
<g id="a_Node000026"><a xlink:href="web_2http_2tls_2in6_2Server_8h.html" target="_top" xlink:title=" ">
<polygon fill="white" stroke="#666666" points="1003.5,-222.5 867.5,-222.5 867.5,-203.5 1003.5,-203.5 1003.5,-222.5"/>
<text text-anchor="middle" x="935.5" y="-210.5" font-family="Helvetica,sans-Serif" font-size="10.00">web/http/tls/in6/Server.h</text>
</a>
</g>
</g>
<!-- Node24&#45;&gt;Node26 -->
<g id="edge27_Node000024_Node000026" class="edge">
<title>Node24&#45;&gt;Node26</title>
<g id="a_edge27_Node000024_Node000026"><a xlink:title=" ">
<path fill="none" stroke="#63b8ff" d="M935.5,-253.6C935.5,-242.8 935.5,-230.78 935.5,-222.84"/>
<polygon fill="#63b8ff" stroke="#63b8ff" points="932,-253.8 935.5,-263.8 939,-253.8 932,-253.8"/>
</a>
</g>
</g>
<!-- Node27 -->
<g id="Node000027" class="node">
<title>Node27</title>
<g id="a_Node000027"><a xlink:href="tls_2in6_2WebApp_8h.html" target="_top" xlink:title=" ">
<polygon fill="white" stroke="#666666" points="1008.5,-156.5 868.5,-156.5 868.5,-137.5 1008.5,-137.5 1008.5,-156.5"/>
<text text-anchor="middle" x="938.5" y="-144.5" font-family="Helvetica,sans-Serif" font-size="10.00">express/tls/in6/WebApp.h</text>
</a>
</g>
</g>
<!-- Node26&#45;&gt;Node27 -->
<g id="edge28_Node000026_Node000027" class="edge">
<title>Node26&#45;&gt;Node27</title>
<g id="a_edge28_Node000026_Node000027"><a xlink:title=" ">
<path fill="none" stroke="#63b8ff" d="M936.39,-193.08C936.95,-181.13 937.65,-166.22 938.08,-156.91"/>
<polygon fill="#63b8ff" stroke="#63b8ff" points="932.88,-193.22 935.9,-203.37 939.87,-193.54 932.88,-193.22"/>
</a>
</g>
</g>
<!-- Node27&#45;&gt;Node20 -->
<g id="edge29_Node000027_Node000020" class="edge">
<title>Node27&#45;&gt;Node20</title>
<g id="a_edge29_Node000027_Node000020"><a xlink:title=" ">
<path fill="none" stroke="#63b8ff" d="M906.73,-133.68C874.12,-121.03 824.24,-101.68 795.66,-90.6"/>
<polygon fill="#63b8ff" stroke="#63b8ff" points="905.66,-137.02 916.25,-137.37 908.19,-130.49 905.66,-137.02"/>
</a>
</g>
</g>
<!-- Node27&#45;&gt;Node21 -->
<g id="edge30_Node000027_Node000021" class="edge">
<title>Node27&#45;&gt;Node21</title>
<g id="a_edge30_Node000027_Node000021"><a xlink:title=" ">
<path fill="none" stroke="#63b8ff" d="M939.09,-127.08C939.46,-115.13 939.93,-100.22 940.22,-90.91"/>
<polygon fill="#63b8ff" stroke="#63b8ff" points="935.58,-127.26 938.77,-137.37 942.58,-127.48 935.58,-127.26"/>
</a>
</g>
</g>
<!-- Node28 -->
<g id="Node000028" class="node">
<title>Node28</title>
<g id="a_Node000028"><a xlink:href="express_2tls_2in6_2Server_8h.html" target="_top" xlink:title=" ">
<polygon fill="white" stroke="#666666" points="1150,-90.5 1019,-90.5 1019,-71.5 1150,-71.5 1150,-90.5"/>
<text text-anchor="middle" x="1084.5" y="-78.5" font-family="Helvetica,sans-Serif" font-size="10.00">express/tls/in6/Server.h</text>
</a>
</g>
</g>
<!-- Node27&#45;&gt;Node28 -->
<g id="edge31_Node000027_Node000028" class="edge">
<title>Node27&#45;&gt;Node28</title>
<g id="a_edge31_Node000027_Node000028"><a xlink:title=" ">
<path fill="none" stroke="#63b8ff" d="M967.71,-133.19C996.49,-120.58 1039.65,-101.66 1064.66,-90.7"/>
<polygon fill="#63b8ff" stroke="#63b8ff" points="965.94,-130.15 958.19,-137.37 968.75,-136.56 965.94,-130.15"/>
</a>
</g>
</g>
<!-- Node29 -->
<g id="Node000029" class="node">
<title>Node29</title>
<g id="a_Node000029"><a xlink:href="tls_2in6_2Server_8cpp.html" target="_top" xlink:title=" ">
<polygon fill="white" stroke="#666666" points="1156,-24.5 1013,-24.5 1013,-5.5 1156,-5.5 1156,-24.5"/>
<text text-anchor="middle" x="1084.5" y="-12.5" font-family="Helvetica,sans-Serif" font-size="10.00">express/tls/in6/Server.cpp</text>
</a>
</g>
</g>
<!-- Node28&#45;&gt;Node29 -->
<g id="edge32_Node000028_Node000029" class="edge">
<title>Node28&#45;&gt;Node29</title>
<g id="a_edge32_Node000028_Node000029"><a xlink:title=" ">
<path fill="none" stroke="#63b8ff" d="M1084.5,-61.08C1084.5,-49.13 1084.5,-34.22 1084.5,-24.91"/>
<polygon fill="#63b8ff" stroke="#63b8ff" points="1081,-61.37 1084.5,-71.37 1088,-61.37 1081,-61.37"/>
</a>
</g>
</g>
</g>
</svg>

<g id="navigator" transform="translate(0 0)" fill="#404254">
  <rect fill="#f2f5e9" fill-opacity="0.5" stroke="#606060" stroke-width=".5" x="0" y="0" width="60" height="60"/>
  <use id="zoomplus" xlink:href="#zoomPlus" x="17" y="9" onmousedown="handleZoom(evt,'in')"/>
  <use id="zoomminus" xlink:href="#zoomMin" x="42" y="9" onmousedown="handleZoom(evt,'out')"/>
  <use id="reset" xlink:href="#resetDef" x="30" y="36" onmousedown="handleReset()"/>
   <use id="arrowup" xlink:href="#arrowUp" x="0" y="0" onmousedown="handlePan(0,-1)"/>
  <use id="arrowright" xlink:href="#arrowRight" x="0" y="0" onmousedown="handlePan(1,0)"/>
  <use id="arrowdown" xlink:href="#arrowDown" x="0" y="0" onmousedown="handlePan(0,1)"/>
  <use id="arrowleft" xlink:href="#arrowLeft" x="0" y="0" onmousedown="handlePan(-1,0)"/>
</g>
<svg viewBox="0 0 15 15" width="100%" height="30px" preserveAspectRatio="xMaxYMin meet">
 <g id="arrow_out" transform="scale(0.3 0.3)">
  <a xlink:href="in6_2phy_2stream_2PhysicalSocket_8h__dep__incl_org.svg" target="_base">
   <rect id="button" ry="5" rx="5" y="6" x="6" height="38" width="38"
        fill="#f2f5e9" fill-opacity="0.5" stroke="#606060" stroke-width="1.0"/>
   <path id="arrow"
     d="M 11.500037,31.436501 C 11.940474,20.09759 22.043105,11.32322 32.158766,21.979434 L 37.068811,17.246167 C 37.068811,17.246167 37.088388,32 37.088388,32 L 22.160133,31.978069 C 22.160133,31.978069 26.997745,27.140456 26.997745,27.140456 C 18.528582,18.264221 13.291696,25.230495 11.500037,31.436501 z"
     style="fill:#404040;"/>
  </a>
 </g>
</svg>

<style type='text/css'>
<![CDATA[
[data-mouse-over-selected='false'] { opacity: 0.7; }
[data-mouse-over-selected='true']  { opacity: 1.0; }
]]>
</style>
<script type="application/ecmascript"><![CDATA[
document.addEventListener('DOMContentLoaded', (event) => {
  highlightEdges();
  highlightAdjacentNodes();
});
]]></script>
</svg>
