<?xml version="1.0" encoding="UTF-8" standalone="no"?>
<!DOCTYPE svg PUBLIC "-//W3C//DTD SVG 1.1//EN"
 "http://www.w3.org/Graphics/SVG/1.1/DTD/svg11.dtd">
<!-- Generated by graphviz version 14.1.1 (0)
 -->
<!-- Title: net/in6/stream/legacy/config/ConfigSocketServer.h Pages: 1 -->
<svg width="1122pt" height="446pt"
 viewBox="0.00 0.00 1122.00 446.00" xmlns="http://www.w3.org/2000/svg" xmlns:xlink="http://www.w3.org/1999/xlink">
<g id="graph0" class="graph" transform="scale(1 1) rotate(0) translate(4 441.75)">
<title>net/in6/stream/legacy/config/ConfigSocketServer.h</title>
<!-- Node1 -->
<g id="Node000001" class="node">
<title>Node1</title>
<g id="a_Node000001"><a xlink:title=" ">
<polygon fill="#999999" stroke="#666666" points="379.88,-437.75 223.62,-437.75 223.62,-404.25 379.88,-404.25 379.88,-437.75"/>
<text xml:space="preserve" text-anchor="start" x="231.62" y="-424.25" font-family="Helvetica,sans-Serif" font-size="10.00">net/in6/stream/legacy</text>
<text xml:space="preserve" text-anchor="middle" x="301.75" y="-411.5" font-family="Helvetica,sans-Serif" font-size="10.00">/config/ConfigSocketServer.h</text>
</a>
</g>
</g>
<!-- Node2 -->
<g id="Node000002" class="node">
<title>Node2</title>
<g id="a_Node000002"><a xlink:href="config_2stream_2legacy_2ConfigSocketServer_8h.html" target="_top" xlink:title=" ">
<polygon fill="white" stroke="#666666" points="246.5,-368.25 109,-368.25 109,-334.75 246.5,-334.75 246.5,-368.25"/>
<text xml:space="preserve" text-anchor="start" x="117" y="-354.75" font-family="Helvetica,sans-Serif" font-size="10.00">net/config/stream/legacy</text>
<text xml:space="preserve" text-anchor="middle" x="177.75" y="-342" font-family="Helvetica,sans-Serif" font-size="10.00">/ConfigSocketServer.h</text>
</a>
</g>
</g>
<!-- Node1&#45;&gt;Node2 -->
<g id="edge1_Node000001_Node000002" class="edge">
<title>Node1&#45;&gt;Node2</title>
<g id="a_edge1_Node000001_Node000002"><a xlink:title=" ">
<path fill="none" stroke="#63b8ff" d="M272.05,-403.83C255.64,-394.9 235.04,-383.69 217.28,-374.02"/>
<polygon fill="#63b8ff" stroke="#63b8ff" points="218.99,-370.97 208.54,-369.26 215.65,-377.11 218.99,-370.97"/>
</a>
</g>
</g>
<!-- Node6 -->
<g id="Node000006" class="node">
<title>Node6</title>
<g id="a_Node000006"><a xlink:href="in6_2stream_2config_2ConfigSocketServer_8h.html" target="_top" xlink:title=" ">
<polygon fill="white" stroke="#666666" points="559.38,-368.25 436.12,-368.25 436.12,-334.75 559.38,-334.75 559.38,-368.25"/>
<text xml:space="preserve" text-anchor="start" x="444.12" y="-354.75" font-family="Helvetica,sans-Serif" font-size="10.00">net/in6/stream/config</text>
<text xml:space="preserve" text-anchor="middle" x="497.75" y="-342" font-family="Helvetica,sans-Serif" font-size="10.00">/ConfigSocketServer.h</text>
</a>
</g>
</g>
<!-- Node1&#45;&gt;Node6 -->
<g id="edge5_Node000001_Node000006" class="edge">
<title>Node1&#45;&gt;Node6</title>
<g id="a_edge5_Node000001_Node000006"><a xlink:title=" ">
<path fill="none" stroke="#63b8ff" d="M348.7,-403.83C376.11,-394.39 410.92,-382.4 440.01,-372.39"/>
<polygon fill="#63b8ff" stroke="#63b8ff" points="441.1,-375.71 449.42,-369.15 438.82,-369.09 441.1,-375.71"/>
</a>
</g>
</g>
<!-- Node3 -->
<g id="Node000003" class="node">
<title>Node3</title>
<g id="a_Node000003"><a xlink:href="ConfigInstance_8h.html" target="_top" xlink:title=" ">
<polygon fill="white" stroke="#666666" points="149.5,-292.38 0,-292.38 0,-271.62 149.5,-271.62 149.5,-292.38"/>
<text xml:space="preserve" text-anchor="middle" x="74.75" y="-278.88" font-family="Helvetica,sans-Serif" font-size="10.00">net/config/ConfigInstance.h</text>
</a>
</g>
</g>
<!-- Node2&#45;&gt;Node3 -->
<g id="edge2_Node000002_Node000003" class="edge">
<title>Node2&#45;&gt;Node3</title>
<g id="a_edge2_Node000002_Node000003"><a xlink:title=" ">
<path fill="none" stroke="#63b8ff" d="M153.08,-334.33C136.72,-323.61 115.34,-309.6 99.05,-298.93"/>
<polygon fill="#63b8ff" stroke="#63b8ff" points="101.21,-296.15 90.93,-293.6 97.37,-302.01 101.21,-296.15"/>
</a>
</g>
</g>
<!-- Node4 -->
<g id="Node000004" class="node">
<title>Node4</title>
<g id="a_Node000004"><a xlink:href="ConfigLegacy_8h.html" target="_top" xlink:title=" ">
<polygon fill="white" stroke="#666666" points="414.38,-83.88 273.12,-83.88 273.12,-63.12 414.38,-63.12 414.38,-83.88"/>
<text xml:space="preserve" text-anchor="middle" x="343.75" y="-70.38" font-family="Helvetica,sans-Serif" font-size="10.00">net/config/ConfigLegacy.h</text>
</a>
</g>
</g>
<!-- Node2&#45;&gt;Node4 -->
<g id="edge3_Node000002_Node000004" class="edge">
<title>Node2&#45;&gt;Node4</title>
<g id="a_edge3_Node000002_Node000004"><a xlink:title=" ">
<path fill="none" stroke="#63b8ff" d="M174.59,-334.26C167.77,-294.13 156.02,-188.97 205.75,-126.25 220.85,-107.21 243.73,-95.18 266.55,-87.57"/>
<polygon fill="#63b8ff" stroke="#63b8ff" points="267.36,-90.98 275.91,-84.72 265.32,-84.28 267.36,-90.98"/>
</a>
</g>
</g>
<!-- Node5 -->
<g id="Node000005" class="node">
<title>Node5</title>
<g id="a_Node000005"><a xlink:href="ConfigSection_8h.html" target="_top" xlink:title=" ">
<polygon fill="white" stroke="#666666" points="780.88,-20.75 636.62,-20.75 636.62,0 780.88,0 780.88,-20.75"/>
<text xml:space="preserve" text-anchor="middle" x="708.75" y="-7.25" font-family="Helvetica,sans-Serif" font-size="10.00">net/config/ConfigSection.h</text>
</a>
</g>
</g>
<!-- Node4&#45;&gt;Node5 -->
<g id="edge4_Node000004_Node000005" class="edge">
<title>Node4&#45;&gt;Node5</title>
<g id="a_edge4_Node000004_Node000005"><a xlink:title=" ">
<path fill="none" stroke="#63b8ff" d="M402.39,-62.68C466.82,-51.89 570.24,-34.57 638.83,-23.08"/>
<polygon fill="#63b8ff" stroke="#63b8ff" points="639.17,-26.58 648.46,-21.47 638.02,-19.67 639.17,-26.58"/>
</a>
</g>
</g>
<!-- Node7 -->
<g id="Node000007" class="node">
<title>Node7</title>
<g id="a_Node000007"><a xlink:href="config_2stream_2ConfigSocketServer_8h.html" target="_top" xlink:title=" ">
<polygon fill="white" stroke="#666666" points="807.12,-298.75 670.38,-298.75 670.38,-265.25 807.12,-265.25 807.12,-298.75"/>
<text xml:space="preserve" text-anchor="start" x="678.38" y="-285.25" font-family="Helvetica,sans-Serif" font-size="10.00">net/config/stream/Config</text>
<text xml:space="preserve" text-anchor="middle" x="738.75" y="-272.5" font-family="Helvetica,sans-Serif" font-size="10.00">SocketServer.h</text>
</a>
</g>
</g>
<!-- Node6&#45;&gt;Node7 -->
<g id="edge6_Node000006_Node000007" class="edge">
<title>Node6&#45;&gt;Node7</title>
<g id="a_edge6_Node000006_Node000007"><a xlink:title=" ">
<path fill="none" stroke="#63b8ff" d="M555.48,-334.33C589.93,-324.68 633.88,-312.37 670.1,-302.23"/>
<polygon fill="#63b8ff" stroke="#63b8ff" points="670.94,-305.63 679.62,-299.56 669.05,-298.89 670.94,-305.63"/>
</a>
</g>
</g>
<!-- Node17 -->
<g id="Node000017" class="node">
<title>Node17</title>
<g id="a_Node000017"><a xlink:href="in6_2config_2ConfigAddress_8h.html" target="_top" xlink:title=" ">
<polygon fill="white" stroke="#666666" points="580.38,-292.38 415.12,-292.38 415.12,-271.62 580.38,-271.62 580.38,-292.38"/>
<text xml:space="preserve" text-anchor="middle" x="497.75" y="-278.88" font-family="Helvetica,sans-Serif" font-size="10.00">net/in6/config/ConfigAddress.h</text>
</a>
</g>
</g>
<!-- Node6&#45;&gt;Node17 -->
<g id="edge20_Node000006_Node000017" class="edge">
<title>Node6&#45;&gt;Node17</title>
<g id="a_edge20_Node000006_Node000017"><a xlink:title=" ">
<path fill="none" stroke="#63b8ff" d="M497.75,-334.5C497.75,-325.4 497.75,-313.89 497.75,-304.07"/>
<polygon fill="#63b8ff" stroke="#63b8ff" points="501.25,-304.34 497.75,-294.34 494.25,-304.34 501.25,-304.34"/>
</a>
</g>
</g>
<!-- Node8 -->
<g id="Node000008" class="node">
<title>Node8</title>
<g id="a_Node000008"><a xlink:href="ConfigAddressLocal_8h.html" target="_top" xlink:title=" ">
<polygon fill="white" stroke="#666666" points="651.88,-229.25 513.62,-229.25 513.62,-195.75 651.88,-195.75 651.88,-229.25"/>
<text xml:space="preserve" text-anchor="start" x="521.62" y="-215.75" font-family="Helvetica,sans-Serif" font-size="10.00">net/config/ConfigAddress</text>
<text xml:space="preserve" text-anchor="middle" x="582.75" y="-203" font-family="Helvetica,sans-Serif" font-size="10.00">Local.h</text>
</a>
</g>
</g>
<!-- Node7&#45;&gt;Node8 -->
<g id="edge7_Node000007_Node000008" class="edge">
<title>Node7&#45;&gt;Node8</title>
<g id="a_edge7_Node000007_Node000008"><a xlink:title=" ">
<path fill="none" stroke="#63b8ff" d="M701.38,-264.83C680.14,-255.64 653.32,-244.03 630.55,-234.18"/>
<polygon fill="#63b8ff" stroke="#63b8ff" points="632.04,-231.01 621.47,-230.25 629.26,-237.44 632.04,-231.01"/>
</a>
</g>
</g>
<!-- Node11 -->
<g id="Node000011" class="node">
<title>Node11</title>
<g id="a_Node000011"><a xlink:href="ConfigAddressReverse_8h.html" target="_top" xlink:title=" ">
<polygon fill="white" stroke="#666666" points="807.88,-229.25 669.62,-229.25 669.62,-195.75 807.88,-195.75 807.88,-229.25"/>
<text xml:space="preserve" text-anchor="start" x="677.62" y="-215.75" font-family="Helvetica,sans-Serif" font-size="10.00">net/config/ConfigAddress</text>
<text xml:space="preserve" text-anchor="middle" x="738.75" y="-203" font-family="Helvetica,sans-Serif" font-size="10.00">Reverse.h</text>
</a>
</g>
</g>
<!-- Node7&#45;&gt;Node11 -->
<g id="edge11_Node000007_Node000011" class="edge">
<title>Node7&#45;&gt;Node11</title>
<g id="a_edge11_Node000007_Node000011"><a xlink:title=" ">
<path fill="none" stroke="#63b8ff" d="M738.75,-265C738.75,-257.77 738.75,-249.03 738.75,-240.81"/>
<polygon fill="#63b8ff" stroke="#63b8ff" points="742.25,-240.9 738.75,-230.9 735.25,-240.9 742.25,-240.9"/>
</a>
</g>
</g>
<!-- Node12 -->
<g id="Node000012" class="node">
<title>Node12</title>
<g id="a_Node000012"><a xlink:href="ConfigConnection_8h.html" target="_top" xlink:title=" ">
<polygon fill="white" stroke="#666666" points="875.25,-83.88 712.25,-83.88 712.25,-63.12 875.25,-63.12 875.25,-83.88"/>
<text xml:space="preserve" text-anchor="middle" x="793.75" y="-70.38" font-family="Helvetica,sans-Serif" font-size="10.00">net/config/ConfigConnection.h</text>
</a>
</g>
</g>
<!-- Node7&#45;&gt;Node12 -->
<g id="edge13_Node000007_Node000012" class="edge">
<title>Node7&#45;&gt;Node12</title>
<g id="a_edge13_Node000007_Node000012"><a xlink:title=" ">
<path fill="none" stroke="#63b8ff" d="M778.08,-264.85C792.99,-256.56 808.37,-244.86 816.75,-229.25 840.21,-185.53 818.48,-125.42 804.11,-94.56"/>
<polygon fill="#63b8ff" stroke="#63b8ff" points="807.27,-93.06 799.73,-85.62 800.98,-96.14 807.27,-93.06"/>
</a>
</g>
</g>
<!-- Node13 -->
<g id="Node000013" class="node">
<title>Node13</title>
<g id="a_Node000013"><a xlink:href="ConfigPhysicalSocketServer_8h.html" target="_top" xlink:title=" ">
<polygon fill="white" stroke="#666666" points="1003.62,-229.25 863.88,-229.25 863.88,-195.75 1003.62,-195.75 1003.62,-229.25"/>
<text xml:space="preserve" text-anchor="start" x="871.88" y="-215.75" font-family="Helvetica,sans-Serif" font-size="10.00">net/config/ConfigPhysical</text>
<text xml:space="preserve" text-anchor="middle" x="933.75" y="-203" font-family="Helvetica,sans-Serif" font-size="10.00">SocketServer.h</text>
</a>
</g>
</g>
<!-- Node7&#45;&gt;Node13 -->
<g id="edge15_Node000007_Node000013" class="edge">
<title>Node7&#45;&gt;Node13</title>
<g id="a_edge15_Node000007_Node000013"><a xlink:title=" ">
<path fill="none" stroke="#63b8ff" d="M785.46,-264.83C812.73,-255.39 847.37,-243.4 876.3,-233.39"/>
<polygon fill="#63b8ff" stroke="#63b8ff" points="877.35,-236.73 885.66,-230.15 875.06,-230.11 877.35,-236.73"/>
</a>
</g>
</g>
<!-- Node9 -->
<g id="Node000009" class="node">
<title>Node9</title>
<g id="a_Node000009"><a xlink:href="config_2ConfigAddress_8h.html" target="_top" xlink:title=" ">
<polygon fill="white" stroke="#666666" points="656.38,-153.38 509.12,-153.38 509.12,-132.62 656.38,-132.62 656.38,-153.38"/>
<text xml:space="preserve" text-anchor="middle" x="582.75" y="-139.88" font-family="Helvetica,sans-Serif" font-size="10.00">net/config/ConfigAddress.h</text>
</a>
</g>
</g>
<!-- Node8&#45;&gt;Node9 -->
<g id="edge8_Node000008_Node000009" class="edge">
<title>Node8&#45;&gt;Node9</title>
<g id="a_edge8_Node000008_Node000009"><a xlink:title=" ">
<path fill="none" stroke="#63b8ff" d="M582.75,-195.5C582.75,-186.4 582.75,-174.89 582.75,-165.07"/>
<polygon fill="#63b8ff" stroke="#63b8ff" points="586.25,-165.34 582.75,-155.34 579.25,-165.34 586.25,-165.34"/>
</a>
</g>
</g>
<!-- Node10 -->
<g id="Node000010" class="node">
<title>Node10</title>
<g id="a_Node000010"><a xlink:href="ConfigAddressBase_8h.html" target="_top" xlink:title=" ">
<polygon fill="white" stroke="#666666" points="693.88,-90.25 555.62,-90.25 555.62,-56.75 693.88,-56.75 693.88,-90.25"/>
<text xml:space="preserve" text-anchor="start" x="563.62" y="-76.75" font-family="Helvetica,sans-Serif" font-size="10.00">net/config/ConfigAddress</text>
<text xml:space="preserve" text-anchor="middle" x="624.75" y="-64" font-family="Helvetica,sans-Serif" font-size="10.00">Base.h</text>
</a>
</g>
</g>
<!-- Node9&#45;&gt;Node10 -->
<g id="edge9_Node000009_Node000010" class="edge">
<title>Node9&#45;&gt;Node10</title>
<g id="a_edge9_Node000009_Node000010"><a xlink:title=" ">
<path fill="none" stroke="#63b8ff" d="M588.77,-132.33C593.94,-124.01 601.65,-111.62 608.61,-100.44"/>
<polygon fill="#63b8ff" stroke="#63b8ff" points="611.58,-102.29 613.89,-91.95 605.63,-98.6 611.58,-102.29"/>
</a>
</g>
</g>
<!-- Node10&#45;&gt;Node5 -->
<g id="edge10_Node000010_Node000005" class="edge">
<title>Node10&#45;&gt;Node5</title>
<g id="a_edge10_Node000010_Node000005"><a xlink:title=" ">
<path fill="none" stroke="#63b8ff" d="M646.82,-56.44C658.94,-47.62 673.94,-36.7 686.15,-27.82"/>
<polygon fill="#63b8ff" stroke="#63b8ff" points="687.97,-30.82 694,-22.11 683.86,-25.16 687.97,-30.82"/>
</a>
</g>
</g>
<!-- Node11&#45;&gt;Node10 -->
<g id="edge12_Node000011_Node000010" class="edge">
<title>Node11&#45;&gt;Node10</title>
<g id="a_edge12_Node000011_Node000010"><a xlink:title=" ">
<path fill="none" stroke="#63b8ff" d="M725.45,-195.52C705.71,-171.8 668.51,-127.09 645.27,-99.16"/>
<polygon fill="#63b8ff" stroke="#63b8ff" points="648.02,-96.99 638.93,-91.55 642.64,-101.47 648.02,-96.99"/>
</a>
</g>
</g>
<!-- Node12&#45;&gt;Node5 -->
<g id="edge14_Node000012_Node000005" class="edge">
<title>Node12&#45;&gt;Node5</title>
<g id="a_edge14_Node000012_Node000005"><a xlink:title=" ">
<path fill="none" stroke="#63b8ff" d="M780.09,-62.68C766.96,-53.23 746.86,-38.78 731.34,-27.62"/>
<polygon fill="#63b8ff" stroke="#63b8ff" points="733.76,-25.05 723.6,-22.06 729.68,-30.74 733.76,-25.05"/>
</a>
</g>
</g>
<!-- Node14 -->
<g id="Node000014" class="node">
<title>Node14</title>
<g id="a_Node000014"><a xlink:href="ConfigPhysicalSocket_8h.html" target="_top" xlink:title=" ">
<polygon fill="white" stroke="#666666" points="1113.62,-159.75 973.88,-159.75 973.88,-126.25 1113.62,-126.25 1113.62,-159.75"/>
<text xml:space="preserve" text-anchor="start" x="981.88" y="-146.25" font-family="Helvetica,sans-Serif" font-size="10.00">net/config/ConfigPhysical</text>
<text xml:space="preserve" text-anchor="middle" x="1043.75" y="-133.5" font-family="Helvetica,sans-Serif" font-size="10.00">Socket.h</text>
</a>
</g>
</g>
<!-- Node13&#45;&gt;Node14 -->
<g id="edge16_Node000013_Node000014" class="edge">
<title>Node13&#45;&gt;Node14</title>
<g id="a_edge16_Node000013_Node000014"><a xlink:title=" ">
<path fill="none" stroke="#63b8ff" d="M960.1,-195.33C974.52,-186.48 992.59,-175.39 1008.24,-165.79"/>
<polygon fill="#63b8ff" stroke="#63b8ff" points="1009.63,-169.04 1016.33,-160.83 1005.97,-163.07 1009.63,-169.04"/>
</a>
</g>
</g>
<!-- Node16 -->
<g id="Node000016" class="node">
<title>Node16</title>
<g id="a_Node000016"><a xlink:href="Timeval_8h.html" target="_top" xlink:title=" ">
<polygon fill="white" stroke="#666666" points="955.75,-153.38 867.75,-153.38 867.75,-132.62 955.75,-132.62 955.75,-153.38"/>
<text xml:space="preserve" text-anchor="middle" x="911.75" y="-139.88" font-family="Helvetica,sans-Serif" font-size="10.00">utils/Timeval.h</text>
</a>
</g>
</g>
<!-- Node13&#45;&gt;Node16 -->
<g id="edge19_Node000013_Node000016" class="edge">
<title>Node13&#45;&gt;Node16</title>
<g id="a_edge19_Node000013_Node000016"><a xlink:title=" ">
<path fill="none" stroke="#63b8ff" d="M928.54,-195.5C925.54,-186.3 921.74,-174.64 918.51,-164.74"/>
<polygon fill="#63b8ff" stroke="#63b8ff" points="921.85,-163.68 915.42,-155.26 915.19,-165.85 921.85,-163.68"/>
</a>
</g>
</g>
<!-- Node14&#45;&gt;Node5 -->
<g id="edge17_Node000014_Node000005" class="edge">
<title>Node14&#45;&gt;Node5</title>
<g id="a_edge17_Node000014_Node000005"><a xlink:title=" ">
<path fill="none" stroke="#63b8ff" d="M1057.29,-125.99C1071.39,-107.32 1089.17,-76.49 1071.75,-56.75 1053.56,-36.15 894.04,-22.66 792.61,-16.09"/>
<polygon fill="#63b8ff" stroke="#63b8ff" points="792.86,-12.6 782.66,-15.46 792.42,-19.58 792.86,-12.6"/>
</a>
</g>
</g>
<!-- Node15 -->
<g id="Node000015" class="node">
<title>Node15</title>
<g id="a_Node000015"><a xlink:href="PhysicalSocketOption_8h.html" target="_top" xlink:title=" ">
<polygon fill="white" stroke="#666666" points="1062.62,-83.88 892.88,-83.88 892.88,-63.12 1062.62,-63.12 1062.62,-83.88"/>
<text xml:space="preserve" text-anchor="middle" x="977.75" y="-70.38" font-family="Helvetica,sans-Serif" font-size="10.00">net/phy/PhysicalSocketOption.h</text>
</a>
</g>
</g>
<!-- Node14&#45;&gt;Node15 -->
<g id="edge18_Node000014_Node000015" class="edge">
<title>Node14&#45;&gt;Node15</title>
<g id="a_edge18_Node000014_Node000015"><a xlink:title=" ">
<path fill="none" stroke="#63b8ff" d="M1028.11,-126C1018.22,-115.89 1005.43,-102.81 995.21,-92.36"/>
<polygon fill="#63b8ff" stroke="#63b8ff" points="997.91,-90.11 988.41,-85.4 992.9,-95 997.91,-90.11"/>
</a>
</g>
</g>
<!-- Node17&#45;&gt;Node8 -->
<g id="edge21_Node000017_Node000008" class="edge">
<title>Node17&#45;&gt;Node8</title>
<g id="a_edge21_Node000017_Node000008"><a xlink:title=" ">
<path fill="none" stroke="#63b8ff" d="M509.93,-271.33C521.26,-262.33 538.58,-248.57 553.49,-236.73"/>
<polygon fill="#63b8ff" stroke="#63b8ff" points="555.55,-239.57 561.2,-230.61 551.2,-234.09 555.55,-239.57"/>
</a>
</g>
</g>
<!-- Node17&#45;&gt;Node11 -->
<g id="edge24_Node000017_Node000011" class="edge">
<title>Node17&#45;&gt;Node11</title>
<g id="a_edge24_Node000017_Node000011"><a xlink:title=" ">
<path fill="none" stroke="#63b8ff" d="M532.79,-271.18C568.61,-261.15 625.19,-245.31 669.99,-232.76"/>
<polygon fill="#63b8ff" stroke="#63b8ff" points="670.67,-236.2 679.35,-230.14 668.78,-229.46 670.67,-236.2"/>
</a>
</g>
</g>
<!-- Node18 -->
<g id="Node000018" class="node">
<title>Node18</title>
<g id="a_Node000018"><a xlink:href="ConfigAddressRemote_8h.html" target="_top" xlink:title=" ">
<polygon fill="white" stroke="#666666" points="495.88,-229.25 357.62,-229.25 357.62,-195.75 495.88,-195.75 495.88,-229.25"/>
<text xml:space="preserve" text-anchor="start" x="365.62" y="-215.75" font-family="Helvetica,sans-Serif" font-size="10.00">net/config/ConfigAddress</text>
<text xml:space="preserve" text-anchor="middle" x="426.75" y="-203" font-family="Helvetica,sans-Serif" font-size="10.00">Remote.h</text>
</a>
</g>
</g>
<!-- Node17&#45;&gt;Node18 -->
<g id="edge22_Node000017_Node000018" class="edge">
<title>Node17&#45;&gt;Node18</title>
<g id="a_edge22_Node000017_Node000018"><a xlink:title=" ">
<path fill="none" stroke="#63b8ff" d="M487.58,-271.33C478.29,-262.5 464.19,-249.09 451.9,-237.41"/>
<polygon fill="#63b8ff" stroke="#63b8ff" points="454.51,-235.07 444.85,-230.71 449.69,-240.14 454.51,-235.07"/>
</a>
</g>
</g>
<!-- Node19 -->
<g id="Node000019" class="node">
<title>Node19</title>
<g id="a_Node000019"><a xlink:href="net_2in6_2SocketAddress_8h.html" target="_top" xlink:title=" ">
<polygon fill="white" stroke="#666666" points="339.25,-222.88 206.25,-222.88 206.25,-202.12 339.25,-202.12 339.25,-222.88"/>
<text xml:space="preserve" text-anchor="middle" x="272.75" y="-209.38" font-family="Helvetica,sans-Serif" font-size="10.00">net/in6/SocketAddress.h</text>
</a>
</g>
</g>
<!-- Node17&#45;&gt;Node19 -->
<g id="edge25_Node000017_Node000019" class="edge">
<title>Node17&#45;&gt;Node19</title>
<g id="a_edge25_Node000017_Node000019"><a xlink:title=" ">
<path fill="none" stroke="#63b8ff" d="M465.03,-271.18C425.79,-259.41 359.86,-239.63 316.33,-226.57"/>
<polygon fill="#63b8ff" stroke="#63b8ff" points="317.54,-223.28 306.96,-223.76 315.53,-229.99 317.54,-223.28"/>
</a>
</g>
</g>
<!-- Node18&#45;&gt;Node9 -->
<g id="edge23_Node000018_Node000009" class="edge">
<title>Node18&#45;&gt;Node9</title>
<g id="a_edge23_Node000018_Node000009"><a xlink:title=" ">
<path fill="none" stroke="#63b8ff" d="M464.12,-195.33C490.18,-184.05 524.65,-169.14 549.72,-158.29"/>
<polygon fill="#63b8ff" stroke="#63b8ff" points="550.99,-161.56 558.78,-154.37 548.21,-155.13 550.99,-161.56"/>
</a>
</g>
</g>
<!-- Node20 -->
<g id="Node000020" class="node">
<title>Node20</title>
<g id="a_Node000020"><a xlink:href="net_2SocketAddress_8h.html" target="_top" xlink:title=" ">
<polygon fill="white" stroke="#666666" points="330.25,-153.38 215.25,-153.38 215.25,-132.62 330.25,-132.62 330.25,-153.38"/>
<text xml:space="preserve" text-anchor="middle" x="272.75" y="-139.88" font-family="Helvetica,sans-Serif" font-size="10.00">net/SocketAddress.h</text>
</a>
</g>
</g>
<!-- Node19&#45;&gt;Node20 -->
<g id="edge26_Node000019_Node000020" class="edge">
<title>Node19&#45;&gt;Node20</title>
<g id="a_edge26_Node000019_Node000020"><a xlink:title=" ">
<path fill="none" stroke="#63b8ff" d="M272.75,-201.83C272.75,-192.21 272.75,-177.13 272.75,-164.79"/>
<polygon fill="#63b8ff" stroke="#63b8ff" points="276.25,-165.17 272.75,-155.17 269.25,-165.17 276.25,-165.17"/>
</a>
</g>
</g>
</g>
</svg>
