<?xml version="1.0" encoding="UTF-8" standalone="no"?>
<!DOCTYPE svg PUBLIC "-//W3C//DTD SVG 1.1//EN"
 "http://www.w3.org/Graphics/SVG/1.1/DTD/svg11.dtd">
<!-- Generated by graphviz version 2.43.0 (0)
 -->
<!-- Title: net/in6/config/ConfigAddress.cpp Pages: 1 -->
<svg width="805pt" height="269pt"
 viewBox="0.00 0.00 804.50 269.00" xmlns="http://www.w3.org/2000/svg" xmlns:xlink="http://www.w3.org/1999/xlink">
<g id="graph0" class="graph" transform="scale(1 1) rotate(0) translate(4 265)">
<title>net/in6/config/ConfigAddress.cpp</title>
<!-- Node1 -->
<g id="Node000001" class="node">
<title>Node1</title>
<g id="a_Node000001"><a xlink:title=" ">
<polygon fill="#999999" stroke="#666666" points="557.5,-261 380.5,-261 380.5,-242 557.5,-242 557.5,-261"/>
<text text-anchor="middle" x="469" y="-249" font-family="Helvetica,sans-Serif" font-size="10.00">net/in6/config/ConfigAddress.cpp</text>
</a>
</g>
</g>
<!-- Node2 -->
<g id="Node000002" class="node">
<title>Node2</title>
<g id="a_Node000002"><a xlink:href="in6_2config_2ConfigAddress_8h.html" target="_top" xlink:title=" ">
<polygon fill="white" stroke="#666666" points="303,-200.5 137,-200.5 137,-181.5 303,-181.5 303,-200.5"/>
<text text-anchor="middle" x="220" y="-188.5" font-family="Helvetica,sans-Serif" font-size="10.00">net/in6/config/ConfigAddress.h</text>
</a>
</g>
</g>
<!-- Node1&#45;&gt;Node2 -->
<g id="edge1_Node000001_Node000002" class="edge">
<title>Node1&#45;&gt;Node2</title>
<g id="a_edge1_Node000001_Node000002"><a xlink:title=" ">
<path fill="none" stroke="#63b8ff" d="M432.79,-241.99C388.72,-231.64 314.23,-214.14 266.1,-202.83"/>
<polygon fill="#63b8ff" stroke="#63b8ff" points="266.79,-199.4 256.25,-200.52 265.18,-206.21 266.79,-199.4"/>
</a>
</g>
</g>
<!-- Node9 -->
<g id="Node000009" class="node">
<title>Node9</title>
<g id="a_Node000009"><a xlink:href="ConfigAddressLocal_8hpp.html" target="_top" xlink:title=" ">
<polygon fill="white" stroke="#666666" points="460.5,-206 321.5,-206 321.5,-176 460.5,-176 460.5,-206"/>
<text text-anchor="start" x="329.5" y="-194" font-family="Helvetica,sans-Serif" font-size="10.00">net/config/ConfigAddress</text>
<text text-anchor="middle" x="391" y="-183" font-family="Helvetica,sans-Serif" font-size="10.00">Local.hpp</text>
</a>
</g>
</g>
<!-- Node1&#45;&gt;Node9 -->
<g id="edge9_Node000001_Node000009" class="edge">
<title>Node1&#45;&gt;Node9</title>
<g id="a_edge9_Node000001_Node000009"><a xlink:title=" ">
<path fill="none" stroke="#63b8ff" d="M457.49,-241.87C447.1,-234.08 431.42,-222.32 417.9,-212.17"/>
<polygon fill="#63b8ff" stroke="#63b8ff" points="419.92,-209.31 409.82,-206.11 415.72,-214.91 419.92,-209.31"/>
</a>
</g>
</g>
<!-- Node12 -->
<g id="Node000012" class="node">
<title>Node12</title>
<g id="a_Node000012"><a xlink:href="ConfigAddressRemote_8hpp.html" target="_top" xlink:title=" ">
<polygon fill="white" stroke="#666666" points="617.5,-206 478.5,-206 478.5,-176 617.5,-176 617.5,-206"/>
<text text-anchor="start" x="486.5" y="-194" font-family="Helvetica,sans-Serif" font-size="10.00">net/config/ConfigAddress</text>
<text text-anchor="middle" x="548" y="-183" font-family="Helvetica,sans-Serif" font-size="10.00">Remote.hpp</text>
</a>
</g>
</g>
<!-- Node1&#45;&gt;Node12 -->
<g id="edge14_Node000001_Node000012" class="edge">
<title>Node1&#45;&gt;Node12</title>
<g id="a_edge14_Node000001_Node000012"><a xlink:title=" ">
<path fill="none" stroke="#63b8ff" d="M480.66,-241.87C491.18,-234.08 507.06,-222.32 520.76,-212.17"/>
<polygon fill="#63b8ff" stroke="#63b8ff" points="522.99,-214.88 528.94,-206.11 518.82,-209.25 522.99,-214.88"/>
</a>
</g>
</g>
<!-- Node13 -->
<g id="Node000013" class="node">
<title>Node13</title>
<g id="a_Node000013"><a xlink:href="ConfigSection_8hpp.html" target="_top" xlink:title=" ">
<polygon fill="white" stroke="#666666" points="796.5,-74 639.5,-74 639.5,-55 796.5,-55 796.5,-74"/>
<text text-anchor="middle" x="718" y="-62" font-family="Helvetica,sans-Serif" font-size="10.00">net/config/ConfigSection.hpp</text>
</a>
</g>
</g>
<!-- Node1&#45;&gt;Node13 -->
<g id="edge17_Node000001_Node000013" class="edge">
<title>Node1&#45;&gt;Node13</title>
<g id="a_edge17_Node000001_Node000013"><a xlink:title=" ">
<path fill="none" stroke="#63b8ff" d="M538.75,-241.99C568.15,-235.73 601.42,-224.86 627,-206 670.54,-173.9 698.87,-114.2 711.1,-84.01"/>
<polygon fill="#63b8ff" stroke="#63b8ff" points="714.5,-84.91 714.87,-74.32 707.98,-82.37 714.5,-84.91"/>
</a>
</g>
</g>
<!-- Node3 -->
<g id="Node000003" class="node">
<title>Node3</title>
<g id="a_Node000003"><a xlink:href="ConfigAddressLocal_8h.html" target="_top" xlink:title=" ">
<polygon fill="white" stroke="#666666" points="291.5,-140 152.5,-140 152.5,-110 291.5,-110 291.5,-140"/>
<text text-anchor="start" x="160.5" y="-128" font-family="Helvetica,sans-Serif" font-size="10.00">net/config/ConfigAddress</text>
<text text-anchor="middle" x="222" y="-117" font-family="Helvetica,sans-Serif" font-size="10.00">Local.h</text>
</a>
</g>
</g>
<!-- Node2&#45;&gt;Node3 -->
<g id="edge2_Node000002_Node000003" class="edge">
<title>Node2&#45;&gt;Node3</title>
<g id="a_edge2_Node000002_Node000003"><a xlink:title=" ">
<path fill="none" stroke="#63b8ff" d="M220.27,-181.37C220.52,-173.49 220.89,-161.45 221.23,-150.6"/>
<polygon fill="#63b8ff" stroke="#63b8ff" points="224.74,-150.46 221.55,-140.36 217.74,-150.25 224.74,-150.46"/>
</a>
</g>
</g>
<!-- Node6 -->
<g id="Node000006" class="node">
<title>Node6</title>
<g id="a_Node000006"><a xlink:href="ConfigAddressRemote_8h.html" target="_top" xlink:title=" ">
<polygon fill="white" stroke="#666666" points="448.5,-140 309.5,-140 309.5,-110 448.5,-110 448.5,-140"/>
<text text-anchor="start" x="317.5" y="-128" font-family="Helvetica,sans-Serif" font-size="10.00">net/config/ConfigAddress</text>
<text text-anchor="middle" x="379" y="-117" font-family="Helvetica,sans-Serif" font-size="10.00">Remote.h</text>
</a>
</g>
</g>
<!-- Node2&#45;&gt;Node6 -->
<g id="edge5_Node000002_Node000006" class="edge">
<title>Node2&#45;&gt;Node6</title>
<g id="a_edge5_Node000002_Node000006"><a xlink:title=" ">
<path fill="none" stroke="#63b8ff" d="M241.44,-181.37C265.15,-171.82 304.02,-156.18 334.4,-143.95"/>
<polygon fill="#63b8ff" stroke="#63b8ff" points="335.96,-147.1 343.93,-140.12 333.35,-140.6 335.96,-147.1"/>
</a>
</g>
</g>
<!-- Node7 -->
<g id="Node000007" class="node">
<title>Node7</title>
<g id="a_Node000007"><a xlink:href="net_2in6_2SocketAddress_8h.html" target="_top" xlink:title=" ">
<polygon fill="white" stroke="#666666" points="134,-134.5 0,-134.5 0,-115.5 134,-115.5 134,-134.5"/>
<text text-anchor="middle" x="67" y="-122.5" font-family="Helvetica,sans-Serif" font-size="10.00">net/in6/SocketAddress.h</text>
</a>
</g>
</g>
<!-- Node2&#45;&gt;Node7 -->
<g id="edge7_Node000002_Node000007" class="edge">
<title>Node2&#45;&gt;Node7</title>
<g id="a_edge7_Node000002_Node000007"><a xlink:title=" ">
<path fill="none" stroke="#63b8ff" d="M199.37,-181.37C173.13,-170.39 127.62,-151.36 97.41,-138.72"/>
<polygon fill="#63b8ff" stroke="#63b8ff" points="98.37,-135.33 87.8,-134.7 95.67,-141.79 98.37,-135.33"/>
</a>
</g>
</g>
<!-- Node4 -->
<g id="Node000004" class="node">
<title>Node4</title>
<g id="a_Node000004"><a xlink:href="config_2ConfigAddress_8h.html" target="_top" xlink:title=" ">
<polygon fill="white" stroke="#666666" points="453,-74 305,-74 305,-55 453,-55 453,-74"/>
<text text-anchor="middle" x="379" y="-62" font-family="Helvetica,sans-Serif" font-size="10.00">net/config/ConfigAddress.h</text>
</a>
</g>
</g>
<!-- Node3&#45;&gt;Node4 -->
<g id="edge3_Node000003_Node000004" class="edge">
<title>Node3&#45;&gt;Node4</title>
<g id="a_edge3_Node000003_Node000004"><a xlink:title=" ">
<path fill="none" stroke="#63b8ff" d="M259.61,-109.99C286.03,-100.14 321.04,-87.1 346.31,-77.68"/>
<polygon fill="#63b8ff" stroke="#63b8ff" points="347.67,-80.91 355.81,-74.14 345.22,-74.35 347.67,-80.91"/>
</a>
</g>
</g>
<!-- Node5 -->
<g id="Node000005" class="node">
<title>Node5</title>
<g id="a_Node000005"><a xlink:href="ConfigSection_8h.html" target="_top" xlink:title=" ">
<polygon fill="white" stroke="#666666" points="620.5,-19 475.5,-19 475.5,0 620.5,0 620.5,-19"/>
<text text-anchor="middle" x="548" y="-7" font-family="Helvetica,sans-Serif" font-size="10.00">net/config/ConfigSection.h</text>
</a>
</g>
</g>
<!-- Node4&#45;&gt;Node5 -->
<g id="edge4_Node000004_Node000005" class="edge">
<title>Node4&#45;&gt;Node5</title>
<g id="a_edge4_Node000004_Node000005"><a xlink:title=" ">
<path fill="none" stroke="#63b8ff" d="M406.15,-54.98C434.53,-46.09 479.23,-32.07 510.86,-22.15"/>
<polygon fill="#63b8ff" stroke="#63b8ff" points="512.14,-25.41 520.63,-19.08 510.05,-18.73 512.14,-25.41"/>
</a>
</g>
</g>
<!-- Node6&#45;&gt;Node4 -->
<g id="edge6_Node000006_Node000004" class="edge">
<title>Node6&#45;&gt;Node4</title>
<g id="a_edge6_Node000006_Node000004"><a xlink:title=" ">
<path fill="none" stroke="#63b8ff" d="M379,-109.84C379,-102.21 379,-92.7 379,-84.45"/>
<polygon fill="#63b8ff" stroke="#63b8ff" points="382.5,-84.27 379,-74.27 375.5,-84.27 382.5,-84.27"/>
</a>
</g>
</g>
<!-- Node8 -->
<g id="Node000008" class="node">
<title>Node8</title>
<g id="a_Node000008"><a xlink:href="net_2SocketAddress_8h.html" target="_top" xlink:title=" ">
<polygon fill="white" stroke="#666666" points="125,-74 9,-74 9,-55 125,-55 125,-74"/>
<text text-anchor="middle" x="67" y="-62" font-family="Helvetica,sans-Serif" font-size="10.00">net/SocketAddress.h</text>
</a>
</g>
</g>
<!-- Node7&#45;&gt;Node8 -->
<g id="edge8_Node000007_Node000008" class="edge">
<title>Node7&#45;&gt;Node8</title>
<g id="a_edge8_Node000007_Node000008"><a xlink:title=" ">
<path fill="none" stroke="#63b8ff" d="M67,-115.37C67,-107.25 67,-94.81 67,-84.39"/>
<polygon fill="#63b8ff" stroke="#63b8ff" points="70.5,-84.17 67,-74.17 63.5,-84.17 70.5,-84.17"/>
</a>
</g>
</g>
<!-- Node9&#45;&gt;Node3 -->
<g id="edge13_Node000009_Node000003" class="edge">
<title>Node9&#45;&gt;Node3</title>
<g id="a_edge13_Node000009_Node000003"><a xlink:title=" ">
<path fill="none" stroke="#63b8ff" d="M353.91,-175.95C328.82,-166.45 295.47,-153.82 268.59,-143.64"/>
<polygon fill="#63b8ff" stroke="#63b8ff" points="269.59,-140.28 259,-140.01 267.11,-146.83 269.59,-140.28"/>
</a>
</g>
</g>
<!-- Node10 -->
<g id="Node000010" class="node">
<title>Node10</title>
<g id="a_Node000010"><a xlink:href="ConfigAddress_8hpp.html" target="_top" xlink:title=" ">
<polygon fill="white" stroke="#666666" points="627,-134.5 467,-134.5 467,-115.5 627,-115.5 627,-134.5"/>
<text text-anchor="middle" x="547" y="-122.5" font-family="Helvetica,sans-Serif" font-size="10.00">net/config/ConfigAddress.hpp</text>
</a>
</g>
</g>
<!-- Node9&#45;&gt;Node10 -->
<g id="edge10_Node000009_Node000010" class="edge">
<title>Node9&#45;&gt;Node10</title>
<g id="a_edge10_Node000009_Node000010"><a xlink:title=" ">
<path fill="none" stroke="#63b8ff" d="M425.23,-175.95C452.59,-164.73 490.57,-149.15 516.81,-138.39"/>
<polygon fill="#63b8ff" stroke="#63b8ff" points="518.32,-141.55 526.24,-134.52 515.66,-135.07 518.32,-141.55"/>
</a>
</g>
</g>
<!-- Node10&#45;&gt;Node4 -->
<g id="edge11_Node000010_Node000004" class="edge">
<title>Node10&#45;&gt;Node4</title>
<g id="a_edge11_Node000010_Node000004"><a xlink:title=" ">
<path fill="none" stroke="#63b8ff" d="M522.57,-115.49C493.71,-105.44 445.5,-88.66 413,-77.34"/>
<polygon fill="#63b8ff" stroke="#63b8ff" points="414.05,-74 403.46,-74.02 411.75,-80.61 414.05,-74"/>
</a>
</g>
</g>
<!-- Node11 -->
<g id="Node000011" class="node">
<title>Node11</title>
<g id="a_Node000011"><a xlink:href="ConfigInstance_8h.html" target="_top" xlink:title=" ">
<polygon fill="white" stroke="#666666" points="621,-74 471,-74 471,-55 621,-55 621,-74"/>
<text text-anchor="middle" x="546" y="-62" font-family="Helvetica,sans-Serif" font-size="10.00">net/config/ConfigInstance.h</text>
</a>
</g>
</g>
<!-- Node10&#45;&gt;Node11 -->
<g id="edge12_Node000010_Node000011" class="edge">
<title>Node10&#45;&gt;Node11</title>
<g id="a_edge12_Node000010_Node000011"><a xlink:title=" ">
<path fill="none" stroke="#63b8ff" d="M546.85,-115.37C546.71,-107.25 546.5,-94.81 546.32,-84.39"/>
<polygon fill="#63b8ff" stroke="#63b8ff" points="549.82,-84.11 546.15,-74.17 542.82,-84.23 549.82,-84.11"/>
</a>
</g>
</g>
<!-- Node12&#45;&gt;Node6 -->
<g id="edge16_Node000012_Node000006" class="edge">
<title>Node12&#45;&gt;Node6</title>
<g id="a_edge16_Node000012_Node000006"><a xlink:title=" ">
<path fill="none" stroke="#63b8ff" d="M510.91,-175.95C485.82,-166.45 452.47,-153.82 425.59,-143.64"/>
<polygon fill="#63b8ff" stroke="#63b8ff" points="426.59,-140.28 416,-140.01 424.11,-146.83 426.59,-140.28"/>
</a>
</g>
</g>
<!-- Node12&#45;&gt;Node10 -->
<g id="edge15_Node000012_Node000010" class="edge">
<title>Node12&#45;&gt;Node10</title>
<g id="a_edge15_Node000012_Node000010"><a xlink:title=" ">
<path fill="none" stroke="#63b8ff" d="M547.78,-175.8C547.64,-166.7 547.45,-154.79 547.3,-144.9"/>
<polygon fill="#63b8ff" stroke="#63b8ff" points="550.79,-144.79 547.14,-134.84 543.79,-144.9 550.79,-144.79"/>
</a>
</g>
</g>
<!-- Node13&#45;&gt;Node5 -->
<g id="edge18_Node000013_Node000005" class="edge">
<title>Node13&#45;&gt;Node5</title>
<g id="a_edge18_Node000013_Node000005"><a xlink:title=" ">
<path fill="none" stroke="#63b8ff" d="M690.69,-54.98C662.15,-46.09 617.17,-32.07 585.36,-22.15"/>
<polygon fill="#63b8ff" stroke="#63b8ff" points="586.12,-18.72 575.53,-19.08 584.03,-25.4 586.12,-18.72"/>
</a>
</g>
</g>
</g>
</svg>
