<?xml version="1.0" encoding="UTF-8" standalone="no"?>
<!DOCTYPE svg PUBLIC "-//W3C//DTD SVG 1.1//EN"
 "http://www.w3.org/Graphics/SVG/1.1/DTD/svg11.dtd">
<!-- Generated by graphviz version 14.1.2 (0)
 -->
<!-- Title: net/in/phy/stream/PhysicalSocket.h Pages: 1 -->
<svg width="466pt" height="212pt"
 viewBox="0.00 0.00 466.00 212.00" xmlns="http://www.w3.org/2000/svg" xmlns:xlink="http://www.w3.org/1999/xlink">

<svg id="main" version="1.1" xmlns="http://www.w3.org/2000/svg" xmlns:xlink="http://www.w3.org/1999/xlink" xml:space="preserve">

<style type="text/css"><![CDATA[
.node, .edge {opacity: 0.7;}
.node.selected, .edge.selected {opacity: 1;}
.edge:hover path { stroke: red; }
.edge:hover polygon { stroke: red; fill: red; }
]]></style>
<script type="application/ecmascript" xlink:href="svg.min.js"/>
<svg id="graph" class="graph">
<g id="graph0" class="graph" transform="scale(1 1) rotate(0) translate(4 207.75)">
<title>net/in/phy/stream/PhysicalSocket.h</title>
<!-- Node1 -->
<g id="Node000001" class="node">
<title>Node1</title>
<g id="a_Node000001"><a xlink:title=" ">
<polygon fill="#999999" stroke="#666666" points="237.62,-203.75 91.88,-203.75 91.88,-170.25 237.62,-170.25 237.62,-203.75"/>
<text xml:space="preserve" text-anchor="start" x="99.88" y="-190.25" font-family="Helvetica,sans-Serif" font-size="10.00">net/in/phy/stream/Physical</text>
<text xml:space="preserve" text-anchor="middle" x="164.75" y="-177.5" font-family="Helvetica,sans-Serif" font-size="10.00">Socket.h</text>
</a>
</g>
</g>
<!-- Node2 -->
<g id="Node000002" class="node">
<title>Node2</title>
<g id="a_Node000002"><a xlink:href="in_2phy_2PhysicalSocket_8h.html" target="_top" xlink:title=" ">
<polygon fill="white" stroke="#666666" points="149.5,-134.25 0,-134.25 0,-113.5 149.5,-113.5 149.5,-134.25"/>
<text xml:space="preserve" text-anchor="middle" x="74.75" y="-120.75" font-family="Helvetica,sans-Serif" font-size="10.00">net/in/phy/PhysicalSocket.h</text>
</a>
</g>
</g>
<!-- Node1&#45;&gt;Node2 -->
<g id="edge1_Node000001_Node000002" class="edge">
<title>Node1&#45;&gt;Node2</title>
<g id="a_edge1_Node000001_Node000002"><a xlink:title=" ">
<path fill="none" stroke="#63b8ff" d="M141.1,-169.94C127.99,-161.03 111.72,-149.99 98.58,-141.06"/>
<polygon fill="#63b8ff" stroke="#63b8ff" points="100.73,-138.29 90.49,-135.57 96.8,-144.08 100.73,-138.29"/>
</a>
</g>
</g>
<!-- Node8 -->
<g id="Node000008" class="node">
<title>Node8</title>
<g id="a_Node000008"><a xlink:href="phy_2stream_2PhysicalSocket_8h.html" target="_top" xlink:title=" ">
<polygon fill="white" stroke="#666666" points="342.25,-134.25 167.25,-134.25 167.25,-113.5 342.25,-113.5 342.25,-134.25"/>
<text xml:space="preserve" text-anchor="middle" x="254.75" y="-120.75" font-family="Helvetica,sans-Serif" font-size="10.00">net/phy/stream/PhysicalSocket.h</text>
</a>
</g>
</g>
<!-- Node1&#45;&gt;Node8 -->
<g id="edge7_Node000001_Node000008" class="edge">
<title>Node1&#45;&gt;Node8</title>
<g id="a_edge7_Node000001_Node000008"><a xlink:title=" ">
<path fill="none" stroke="#63b8ff" d="M188.4,-169.94C201.51,-161.03 217.78,-149.99 230.92,-141.06"/>
<polygon fill="#63b8ff" stroke="#63b8ff" points="232.7,-144.08 239.01,-135.57 228.77,-138.29 232.7,-144.08"/>
</a>
</g>
</g>
<!-- Node3 -->
<g id="Node000003" class="node">
<title>Node3</title>
<g id="a_Node000003"><a xlink:href="net_2in_2SocketAddress_8h.html" target="_top" xlink:title=" ">
<polygon fill="white" stroke="#666666" points="138.25,-77.5 11.25,-77.5 11.25,-56.75 138.25,-56.75 138.25,-77.5"/>
<text xml:space="preserve" text-anchor="middle" x="74.75" y="-64" font-family="Helvetica,sans-Serif" font-size="10.00">net/in/SocketAddress.h</text>
</a>
</g>
</g>
<!-- Node2&#45;&gt;Node3 -->
<g id="edge2_Node000002_Node000003" class="edge">
<title>Node2&#45;&gt;Node3</title>
<g id="a_edge2_Node000002_Node000003"><a xlink:title=" ">
<path fill="none" stroke="#63b8ff" d="M74.75,-113.09C74.75,-106.47 74.75,-97.47 74.75,-89.27"/>
<polygon fill="#63b8ff" stroke="#63b8ff" points="78.25,-89.34 74.75,-79.34 71.25,-89.34 78.25,-89.34"/>
</a>
</g>
</g>
<!-- Node5 -->
<g id="Node000005" class="node">
<title>Node5</title>
<g id="a_Node000005"><a xlink:href="phy_2PhysicalSocket_8h.html" target="_top" xlink:title=" ">
<polygon fill="white" stroke="#666666" points="308.5,-77.5 171,-77.5 171,-56.75 308.5,-56.75 308.5,-77.5"/>
<text xml:space="preserve" text-anchor="middle" x="239.75" y="-64" font-family="Helvetica,sans-Serif" font-size="10.00">net/phy/PhysicalSocket.h</text>
</a>
</g>
</g>
<!-- Node2&#45;&gt;Node5 -->
<g id="edge4_Node000002_Node000005" class="edge">
<title>Node2&#45;&gt;Node5</title>
<g id="a_edge4_Node000002_Node000005"><a xlink:title=" ">
<path fill="none" stroke="#63b8ff" d="M104.25,-113.09C130.8,-104.28 170.05,-91.25 199.48,-81.49"/>
<polygon fill="#63b8ff" stroke="#63b8ff" points="200.4,-84.87 208.79,-78.4 198.2,-78.22 200.4,-84.87"/>
</a>
</g>
</g>
<!-- Node4 -->
<g id="Node000004" class="node">
<title>Node4</title>
<g id="a_Node000004"><a xlink:href="net_2SocketAddress_8h.html" target="_top" xlink:title=" ">
<polygon fill="white" stroke="#666666" points="132.25,-20.75 17.25,-20.75 17.25,0 132.25,0 132.25,-20.75"/>
<text xml:space="preserve" text-anchor="middle" x="74.75" y="-7.25" font-family="Helvetica,sans-Serif" font-size="10.00">net/SocketAddress.h</text>
</a>
</g>
</g>
<!-- Node3&#45;&gt;Node4 -->
<g id="edge3_Node000003_Node000004" class="edge">
<title>Node3&#45;&gt;Node4</title>
<g id="a_edge3_Node000003_Node000004"><a xlink:title=" ">
<path fill="none" stroke="#63b8ff" d="M74.75,-56.34C74.75,-49.72 74.75,-40.72 74.75,-32.52"/>
<polygon fill="#63b8ff" stroke="#63b8ff" points="78.25,-32.59 74.75,-22.59 71.25,-32.59 78.25,-32.59"/>
</a>
</g>
</g>
<!-- Node6 -->
<g id="Node000006" class="node">
<title>Node6</title>
<g id="a_Node000006"><a xlink:href="Descriptor_8h.html" target="_top" xlink:title=" ">
<polygon fill="white" stroke="#666666" points="269.38,-20.75 170.12,-20.75 170.12,0 269.38,0 269.38,-20.75"/>
<text xml:space="preserve" text-anchor="middle" x="219.75" y="-7.25" font-family="Helvetica,sans-Serif" font-size="10.00">core/Descriptor.h</text>
</a>
</g>
</g>
<!-- Node5&#45;&gt;Node6 -->
<g id="edge5_Node000005_Node000006" class="edge">
<title>Node5&#45;&gt;Node6</title>
<g id="a_edge5_Node000005_Node000006"><a xlink:title=" ">
<path fill="none" stroke="#63b8ff" d="M236.17,-56.34C233.67,-49.49 230.24,-40.09 227.16,-31.65"/>
<polygon fill="#63b8ff" stroke="#63b8ff" points="230.53,-30.69 223.81,-22.5 223.96,-33.09 230.53,-30.69"/>
</a>
</g>
</g>
<!-- Node7 -->
<g id="Node000007" class="node">
<title>Node7</title>
<g id="a_Node000007"><a xlink:href="PhysicalSocketOption_8h.html" target="_top" xlink:title=" ">
<polygon fill="white" stroke="#666666" points="457.62,-20.75 287.88,-20.75 287.88,0 457.62,0 457.62,-20.75"/>
<text xml:space="preserve" text-anchor="middle" x="372.75" y="-7.25" font-family="Helvetica,sans-Serif" font-size="10.00">net/phy/PhysicalSocketOption.h</text>
</a>
</g>
</g>
<!-- Node5&#45;&gt;Node7 -->
<g id="edge6_Node000005_Node000007" class="edge">
<title>Node5&#45;&gt;Node7</title>
<g id="a_edge6_Node000005_Node000007"><a xlink:title=" ">
<path fill="none" stroke="#63b8ff" d="M263.53,-56.34C284.43,-47.73 315.09,-35.11 338.61,-25.43"/>
<polygon fill="#63b8ff" stroke="#63b8ff" points="339.86,-28.7 347.78,-21.65 337.2,-22.22 339.86,-28.7"/>
</a>
</g>
</g>
<!-- Node8&#45;&gt;Node5 -->
<g id="edge8_Node000008_Node000005" class="edge">
<title>Node8&#45;&gt;Node5</title>
<g id="a_edge8_Node000008_Node000005"><a xlink:title=" ">
<path fill="none" stroke="#63b8ff" d="M252.07,-113.09C250.21,-106.31 247.67,-97.05 245.38,-88.69"/>
<polygon fill="#63b8ff" stroke="#63b8ff" points="248.83,-88.01 242.81,-79.29 242.08,-89.86 248.83,-88.01"/>
</a>
</g>
</g>
</g>
</svg>
</svg>

<style type='text/css'>
<![CDATA[
[data-mouse-over-selected='false'] { opacity: 0.7; }
[data-mouse-over-selected='true']  { opacity: 1.0; }
]]>
</style>
<script type="application/ecmascript"><![CDATA[
document.addEventListener('DOMContentLoaded', (event) => {
  highlightEdges();
  highlightAdjacentNodes();
});
]]></script>
</svg>
