<?xml version="1.0" encoding="UTF-8" standalone="no"?>
<!DOCTYPE svg PUBLIC "-//W3C//DTD SVG 1.1//EN"
 "http://www.w3.org/Graphics/SVG/1.1/DTD/svg11.dtd">
<!-- Generated by graphviz version 2.42.4 (0)
 -->
<!-- Title: net/in/phy/stream/PhysicalSocketServer.h Pages: 1 -->
<!--zoomable 412 -->

<svg id="main" version="1.1" xmlns="http://www.w3.org/2000/svg" xmlns:xlink="http://www.w3.org/1999/xlink" xml:space="preserve" onload="init(evt)">
<style type="text/css"><![CDATA[
.node, .edge {opacity: 0.7;}
.node.selected, .edge.selected {opacity: 1;}
.edge:hover path { stroke: red; }
.edge:hover polygon { stroke: red; fill: red; }
]]></style>

<defs>
  <circle id="rim" cx="0" cy="0" r="7"/>
  <circle id="rim2" cx="0" cy="0" r="3.5"/>
  <g id="zoomPlus">
    <use xlink:href="#rim" fill="#404040"><set attributeName="fill" to="#808080" begin="zoomplus.mouseover" end="zoomplus.mouseout"/></use>
    <path d="M-4,0h8M0,-4v8" fill="none" stroke="white" stroke-width="1.5" pointer-events="none"/>
  </g>
  <g id="zoomMin">
    <use xlink:href="#rim" fill="#404040"><set attributeName="fill" to="#808080" begin="zoomminus.mouseover" end="zoomminus.mouseout"/></use>
    <path d="M-4,0h8" fill="none" stroke="white" stroke-width="1.5" pointer-events="none"/>
  </g>
  <g id="arrowUp" transform="translate(30 24)">
    <use xlink:href="#rim"/>
    <path pointer-events="none" fill="none" stroke="white" stroke-width="1.5" d="M0,-3.0v7 M-2.5,-0.5L0,-3.0L2.5,-0.5"/>
  </g>
  <g id="arrowRight" transform="rotate(90) translate(36 -43)">
    <use xlink:href="#rim"/>
    <path pointer-events="none" fill="none" stroke="white" stroke-width="1.5" d="M0,-3.0v7 M-2.5,-0.5L0,-3.0L2.5,-0.5"/>
  </g>
  <g id="arrowDown" transform="rotate(180) translate(-30 -48)">
    <use xlink:href="#rim"/>
    <path pointer-events="none" fill="none" stroke="white" stroke-width="1.5" d="M0,-3.0v7 M-2.5,-0.5L0,-3.0L2.5,-0.5"/>
  </g>
  <g id="arrowLeft" transform="rotate(270) translate(-36 17)">
    <use xlink:href="#rim"/>
    <path pointer-events="none" fill="none" stroke="white" stroke-width="1.5" d="M0,-3.0v7 M-2.5,-0.5L0,-3.0L2.5,-0.5"/>
  </g>
  <g id="resetDef">
    <use xlink:href="#rim2" fill="#404040"><set attributeName="fill" to="#808080" begin="reset.mouseover" end="reset.mouseout"/></use>
  </g>
</defs>
<script type="application/ecmascript">
var viewWidth = 1702;
var viewHeight = 412;
var sectionId = 'dynsection-1';
</script>
<script type="application/ecmascript" xlink:href="svg.min.js"/>
<svg id="graph" class="graph">
<g id="viewport">
<title>net/in/phy/stream/PhysicalSocketServer.h</title>
<!-- Node1 -->
<g id="Node000001" class="node">
<title>Node1</title>
<g id="a_Node000001"><a xlink:title=" ">
<polygon fill="#999999" stroke="#666666" points="1016.5,-404 870.5,-404 870.5,-374 1016.5,-374 1016.5,-404"/>
<text text-anchor="start" x="878.5" y="-392" font-family="Helvetica,sans-Serif" font-size="10.00">net/in/phy/stream/Physical</text>
<text text-anchor="middle" x="943.5" y="-381" font-family="Helvetica,sans-Serif" font-size="10.00">SocketServer.h</text>
</a>
</g>
</g>
<!-- Node2 -->
<g id="Node000002" class="node">
<title>Node2</title>
<g id="a_Node000002"><a xlink:href="in_2phy_2stream_2PhysicalSocketServer_8cpp.html" target="_top" xlink:title=" ">
<polygon fill="white" stroke="#666666" points="931.5,-338 785.5,-338 785.5,-308 931.5,-308 931.5,-338"/>
<text text-anchor="start" x="793.5" y="-326" font-family="Helvetica,sans-Serif" font-size="10.00">net/in/phy/stream/Physical</text>
<text text-anchor="middle" x="858.5" y="-315" font-family="Helvetica,sans-Serif" font-size="10.00">SocketServer.cpp</text>
</a>
</g>
</g>
<!-- Node1&#45;&gt;Node2 -->
<g id="edge1_Node000001_Node000002" class="edge">
<title>Node1&#45;&gt;Node2</title>
<g id="a_edge1_Node000001_Node000002"><a xlink:title=" ">
<path fill="none" stroke="#63b8ff" d="M916.61,-367.75C903.83,-358.13 888.86,-346.86 877.31,-338.16"/>
<polygon fill="#63b8ff" stroke="#63b8ff" points="914.54,-370.58 924.64,-373.8 918.75,-364.99 914.54,-370.58"/>
</a>
</g>
</g>
<!-- Node3 -->
<g id="Node000003" class="node">
<title>Node3</title>
<g id="a_Node000003"><a xlink:href="net_2in_2stream_2SocketServer_8h.html" target="_top" xlink:title=" ">
<polygon fill="white" stroke="#666666" points="1107.5,-332.5 949.5,-332.5 949.5,-313.5 1107.5,-313.5 1107.5,-332.5"/>
<text text-anchor="middle" x="1028.5" y="-320.5" font-family="Helvetica,sans-Serif" font-size="10.00">net/in/stream/SocketServer.h</text>
</a>
</g>
</g>
<!-- Node1&#45;&gt;Node3 -->
<g id="edge2_Node000001_Node000003" class="edge">
<title>Node1&#45;&gt;Node3</title>
<g id="a_edge2_Node000001_Node000003"><a xlink:title=" ">
<path fill="none" stroke="#63b8ff" d="M970.61,-367.58C986.17,-355.87 1004.9,-341.77 1016.75,-332.84"/>
<polygon fill="#63b8ff" stroke="#63b8ff" points="968.25,-364.99 962.36,-373.8 972.46,-370.58 968.25,-364.99"/>
</a>
</g>
</g>
<!-- Node4 -->
<g id="Node000004" class="node">
<title>Node4</title>
<g id="a_Node000004"><a xlink:href="net_2in_2stream_2legacy_2SocketServer_8h.html" target="_top" xlink:title=" ">
<polygon fill="white" stroke="#666666" points="968,-272 851,-272 851,-242 968,-242 968,-272"/>
<text text-anchor="start" x="859" y="-260" font-family="Helvetica,sans-Serif" font-size="10.00">net/in/stream/legacy</text>
<text text-anchor="middle" x="909.5" y="-249" font-family="Helvetica,sans-Serif" font-size="10.00">/SocketServer.h</text>
</a>
</g>
</g>
<!-- Node3&#45;&gt;Node4 -->
<g id="edge3_Node000003_Node000004" class="edge">
<title>Node3&#45;&gt;Node4</title>
<g id="a_edge3_Node000003_Node000004"><a xlink:title=" ">
<path fill="none" stroke="#63b8ff" d="M1003.39,-308.5C983.54,-297.82 955.89,-282.95 935.75,-272.12"/>
<polygon fill="#63b8ff" stroke="#63b8ff" points="1001.99,-311.71 1012.45,-313.37 1005.3,-305.55 1001.99,-311.71"/>
</a>
</g>
</g>
<!-- Node19 -->
<g id="Node000019" class="node">
<title>Node19</title>
<g id="a_Node000019"><a xlink:href="net_2in_2stream_2tls_2SocketServer_8h.html" target="_top" xlink:title=" ">
<polygon fill="white" stroke="#666666" points="1214.5,-272 1082.5,-272 1082.5,-242 1214.5,-242 1214.5,-272"/>
<text text-anchor="start" x="1090.5" y="-260" font-family="Helvetica,sans-Serif" font-size="10.00">net/in/stream/tls/Socket</text>
<text text-anchor="middle" x="1148.5" y="-249" font-family="Helvetica,sans-Serif" font-size="10.00">Server.h</text>
</a>
</g>
</g>
<!-- Node3&#45;&gt;Node19 -->
<g id="edge18_Node000003_Node000019" class="edge">
<title>Node3&#45;&gt;Node19</title>
<g id="a_edge18_Node000003_Node000019"><a xlink:title=" ">
<path fill="none" stroke="#63b8ff" d="M1053.54,-308.64C1073.59,-297.95 1101.62,-283 1122.03,-272.12"/>
<polygon fill="#63b8ff" stroke="#63b8ff" points="1051.86,-305.57 1044.68,-313.37 1055.15,-311.75 1051.86,-305.57"/>
</a>
</g>
</g>
<!-- Node5 -->
<g id="Node000005" class="node">
<title>Node5</title>
<g id="a_Node000005"><a xlink:href="in_2stream_2legacy_2SocketServer_8cpp.html" target="_top" xlink:title=" ">
<polygon fill="white" stroke="#666666" points="838,-206 721,-206 721,-176 838,-176 838,-206"/>
<text text-anchor="start" x="729" y="-194" font-family="Helvetica,sans-Serif" font-size="10.00">net/in/stream/legacy</text>
<text text-anchor="middle" x="779.5" y="-183" font-family="Helvetica,sans-Serif" font-size="10.00">/SocketServer.cpp</text>
</a>
</g>
</g>
<!-- Node4&#45;&gt;Node5 -->
<g id="edge4_Node000004_Node000005" class="edge">
<title>Node4&#45;&gt;Node5</title>
<g id="a_edge4_Node000004_Node000005"><a xlink:title=" ">
<path fill="none" stroke="#63b8ff" d="M871.95,-237.51C851.55,-227.47 826.74,-215.26 807.96,-206.01"/>
<polygon fill="#63b8ff" stroke="#63b8ff" points="870.45,-240.68 880.97,-241.95 873.55,-234.4 870.45,-240.68"/>
</a>
</g>
</g>
<!-- Node6 -->
<g id="Node000006" class="node">
<title>Node6</title>
<g id="a_Node000006"><a xlink:href="web_2http_2legacy_2in_2Server_8h.html" target="_top" xlink:title=" ">
<polygon fill="white" stroke="#666666" points="963,-206 856,-206 856,-176 963,-176 963,-206"/>
<text text-anchor="start" x="864" y="-194" font-family="Helvetica,sans-Serif" font-size="10.00">web/http/legacy/in</text>
<text text-anchor="middle" x="909.5" y="-183" font-family="Helvetica,sans-Serif" font-size="10.00">/Server.h</text>
</a>
</g>
</g>
<!-- Node4&#45;&gt;Node6 -->
<g id="edge5_Node000004_Node000006" class="edge">
<title>Node4&#45;&gt;Node6</title>
<g id="a_edge5_Node000004_Node000006"><a xlink:title=" ">
<path fill="none" stroke="#63b8ff" d="M909.5,-231.54C909.5,-222.96 909.5,-213.61 909.5,-206.16"/>
<polygon fill="#63b8ff" stroke="#63b8ff" points="906,-231.8 909.5,-241.8 913,-231.8 906,-231.8"/>
</a>
</g>
</g>
<!-- Node7 -->
<g id="Node000007" class="node">
<title>Node7</title>
<g id="a_Node000007"><a xlink:href="legacy_2in_2WebApp_8h.html" target="_top" xlink:title=" ">
<polygon fill="white" stroke="#666666" points="939,-140 784,-140 784,-121 939,-121 939,-140"/>
<text text-anchor="middle" x="861.5" y="-128" font-family="Helvetica,sans-Serif" font-size="10.00">express/legacy/in/WebApp.h</text>
</a>
</g>
</g>
<!-- Node6&#45;&gt;Node7 -->
<g id="edge6_Node000006_Node000007" class="edge">
<title>Node6&#45;&gt;Node7</title>
<g id="a_edge6_Node000006_Node000007"><a xlink:title=" ">
<path fill="none" stroke="#63b8ff" d="M891.52,-168.09C883.59,-158.42 874.72,-147.61 868.69,-140.27"/>
<polygon fill="#63b8ff" stroke="#63b8ff" points="888.83,-170.33 897.88,-175.84 894.24,-165.89 888.83,-170.33"/>
</a>
</g>
</g>
<!-- Node8 -->
<g id="Node000008" class="node">
<title>Node8</title>
<g id="a_Node000008"><a xlink:href="jsonserver_8cpp.html" target="_top" xlink:title=" ">
<polygon fill="white" stroke="#666666" points="447.5,-79.5 333.5,-79.5 333.5,-60.5 447.5,-60.5 447.5,-79.5"/>
<text text-anchor="middle" x="390.5" y="-67.5" font-family="Helvetica,sans-Serif" font-size="10.00">apps/jsonserver.cpp</text>
</a>
</g>
</g>
<!-- Node7&#45;&gt;Node8 -->
<g id="edge7_Node000007_Node000008" class="edge">
<title>Node7&#45;&gt;Node8</title>
<g id="a_edge7_Node000007_Node000008"><a xlink:title=" ">
<path fill="none" stroke="#63b8ff" d="M773.72,-122.29C691.66,-114.96 565.87,-102.25 457.5,-85 447.99,-83.49 437.8,-81.53 428.3,-79.56"/>
<polygon fill="#63b8ff" stroke="#63b8ff" points="773.48,-125.78 783.75,-123.17 774.1,-118.81 773.48,-125.78"/>
</a>
</g>
</g>
<!-- Node9 -->
<g id="Node000009" class="node">
<title>Node9</title>
<g id="a_Node000009"><a xlink:href="AuthorizationServer_8cpp.html" target="_top" xlink:title=" ">
<polygon fill="white" stroke="#666666" points="639,-85 466,-85 466,-55 639,-55 639,-85"/>
<text text-anchor="start" x="474" y="-73" font-family="Helvetica,sans-Serif" font-size="10.00">apps/oauth2/authorization</text>
<text text-anchor="middle" x="552.5" y="-62" font-family="Helvetica,sans-Serif" font-size="10.00">_server/AuthorizationServer.cpp</text>
</a>
</g>
</g>
<!-- Node7&#45;&gt;Node9 -->
<g id="edge8_Node000007_Node000009" class="edge">
<title>Node7&#45;&gt;Node9</title>
<g id="a_edge8_Node000007_Node000009"><a xlink:title=" ">
<path fill="none" stroke="#63b8ff" d="M806.56,-119.1C756.41,-109.6 681.87,-95.49 626.49,-85.01"/>
<polygon fill="#63b8ff" stroke="#63b8ff" points="806.09,-122.57 816.57,-120.99 807.39,-115.69 806.09,-122.57"/>
</a>
</g>
</g>
<!-- Node10 -->
<g id="Node000010" class="node">
<title>Node10</title>
<g id="a_Node000010"><a xlink:href="ClientApp_8cpp.html" target="_top" xlink:title=" ">
<polygon fill="white" stroke="#666666" points="767.5,-85 657.5,-85 657.5,-55 767.5,-55 767.5,-85"/>
<text text-anchor="start" x="665.5" y="-73" font-family="Helvetica,sans-Serif" font-size="10.00">apps/oauth2/client</text>
<text text-anchor="middle" x="712.5" y="-62" font-family="Helvetica,sans-Serif" font-size="10.00">_app/ClientApp.cpp</text>
</a>
</g>
</g>
<!-- Node7&#45;&gt;Node10 -->
<g id="edge9_Node000007_Node000010" class="edge">
<title>Node7&#45;&gt;Node10</title>
<g id="a_edge9_Node000007_Node000010"><a xlink:title=" ">
<path fill="none" stroke="#63b8ff" d="M830.51,-117.33C806.57,-107.93 773.4,-94.91 748.32,-85.06"/>
<polygon fill="#63b8ff" stroke="#63b8ff" points="829.25,-120.6 839.83,-120.99 831.8,-114.08 829.25,-120.6"/>
</a>
</g>
</g>
<!-- Node11 -->
<g id="Node000011" class="node">
<title>Node11</title>
<g id="a_Node000011"><a xlink:href="ResourceServer_8cpp.html" target="_top" xlink:title=" ">
<polygon fill="white" stroke="#666666" points="937.5,-85 785.5,-85 785.5,-55 937.5,-55 937.5,-85"/>
<text text-anchor="start" x="793.5" y="-73" font-family="Helvetica,sans-Serif" font-size="10.00">apps/oauth2/resource</text>
<text text-anchor="middle" x="861.5" y="-62" font-family="Helvetica,sans-Serif" font-size="10.00">_server/ResourceServer.cpp</text>
</a>
</g>
</g>
<!-- Node7&#45;&gt;Node11 -->
<g id="edge10_Node000007_Node000011" class="edge">
<title>Node7&#45;&gt;Node11</title>
<g id="a_edge10_Node000007_Node000011"><a xlink:title=" ">
<path fill="none" stroke="#63b8ff" d="M861.5,-110.65C861.5,-102.36 861.5,-92.78 861.5,-85.11"/>
<polygon fill="#63b8ff" stroke="#63b8ff" points="858,-110.87 861.5,-120.87 865,-110.87 858,-110.87"/>
</a>
</g>
</g>
<!-- Node12 -->
<g id="Node000012" class="node">
<title>Node12</title>
<g id="a_Node000012"><a xlink:href="testpost_8cpp.html" target="_top" xlink:title=" ">
<polygon fill="white" stroke="#666666" points="1249,-79.5 1146,-79.5 1146,-60.5 1249,-60.5 1249,-79.5"/>
<text text-anchor="middle" x="1197.5" y="-67.5" font-family="Helvetica,sans-Serif" font-size="10.00">apps/testpost.cpp</text>
</a>
</g>
</g>
<!-- Node7&#45;&gt;Node12 -->
<g id="edge11_Node000007_Node000012" class="edge">
<title>Node7&#45;&gt;Node12</title>
<g id="a_edge11_Node000007_Node000012"><a xlink:title=" ">
<path fill="none" stroke="#63b8ff" d="M931.36,-119.48C987.08,-111.18 1067.02,-98.58 1136.5,-85 1144.82,-83.37 1153.73,-81.44 1162.1,-79.54"/>
<polygon fill="#63b8ff" stroke="#63b8ff" points="930.62,-116.05 921.24,-120.98 931.65,-122.98 930.62,-116.05"/>
</a>
</g>
</g>
<!-- Node13 -->
<g id="Node000013" class="node">
<title>Node13</title>
<g id="a_Node000013"><a xlink:href="testregex_8cpp.html" target="_top" xlink:title=" ">
<polygon fill="white" stroke="#666666" points="1377.5,-79.5 1267.5,-79.5 1267.5,-60.5 1377.5,-60.5 1377.5,-79.5"/>
<text text-anchor="middle" x="1322.5" y="-67.5" font-family="Helvetica,sans-Serif" font-size="10.00">apps/testregex.cpp</text>
</a>
</g>
</g>
<!-- Node7&#45;&gt;Node13 -->
<g id="edge12_Node000007_Node000013" class="edge">
<title>Node7&#45;&gt;Node13</title>
<g id="a_edge12_Node000007_Node000013"><a xlink:title=" ">
<path fill="none" stroke="#63b8ff" d="M949.16,-122.31C1029.85,-115.06 1152.68,-102.46 1258.5,-85 1267.7,-83.48 1277.58,-81.5 1286.75,-79.51"/>
<polygon fill="#63b8ff" stroke="#63b8ff" points="948.7,-118.83 939.05,-123.21 949.32,-125.81 948.7,-118.83"/>
</a>
</g>
</g>
<!-- Node14 -->
<g id="Node000014" class="node">
<title>Node14</title>
<g id="a_Node000014"><a xlink:href="verysimpleserver_8cpp.html" target="_top" xlink:title=" ">
<polygon fill="white" stroke="#666666" points="1545,-79.5 1396,-79.5 1396,-60.5 1545,-60.5 1545,-79.5"/>
<text text-anchor="middle" x="1470.5" y="-67.5" font-family="Helvetica,sans-Serif" font-size="10.00">apps/verysimpleserver.cpp</text>
</a>
</g>
</g>
<!-- Node7&#45;&gt;Node14 -->
<g id="edge13_Node000007_Node000014" class="edge">
<title>Node7&#45;&gt;Node14</title>
<g id="a_edge13_Node000007_Node000014"><a xlink:title=" ">
<path fill="none" stroke="#63b8ff" d="M949.27,-124.23C1053.71,-117.46 1233.23,-104.24 1386.5,-85 1398.53,-83.49 1411.47,-81.51 1423.51,-79.52"/>
<polygon fill="#63b8ff" stroke="#63b8ff" points="948.85,-120.75 939.09,-124.89 949.3,-127.74 948.85,-120.75"/>
</a>
</g>
</g>
<!-- Node15 -->
<g id="Node000015" class="node">
<title>Node15</title>
<g id="a_Node000015"><a xlink:href="warema-jalousien_8cpp.html" target="_top" xlink:title=" ">
<polygon fill="white" stroke="#666666" points="151,-79.5 0,-79.5 0,-60.5 151,-60.5 151,-79.5"/>
<text text-anchor="middle" x="75.5" y="-67.5" font-family="Helvetica,sans-Serif" font-size="10.00">apps/warema&#45;jalousien.cpp</text>
</a>
</g>
</g>
<!-- Node7&#45;&gt;Node15 -->
<g id="edge14_Node000007_Node000015" class="edge">
<title>Node7&#45;&gt;Node15</title>
<g id="a_edge14_Node000007_Node000015"><a xlink:title=" ">
<path fill="none" stroke="#63b8ff" d="M773.87,-126.75C640.92,-121.94 380.44,-110.03 160.5,-85 148.02,-83.58 134.58,-81.58 122.15,-79.54"/>
<polygon fill="#63b8ff" stroke="#63b8ff" points="773.88,-130.25 784,-127.11 774.13,-123.25 773.88,-130.25"/>
</a>
</g>
</g>
<!-- Node16 -->
<g id="Node000016" class="node">
<title>Node16</title>
<g id="a_Node000016"><a xlink:href="websocket_2echoserver_8cpp.html" target="_top" xlink:title=" ">
<polygon fill="white" stroke="#666666" points="1127.5,-79.5 955.5,-79.5 955.5,-60.5 1127.5,-60.5 1127.5,-79.5"/>
<text text-anchor="middle" x="1041.5" y="-67.5" font-family="Helvetica,sans-Serif" font-size="10.00">apps/websocket/echoserver.cpp</text>
</a>
</g>
</g>
<!-- Node7&#45;&gt;Node16 -->
<g id="edge15_Node000007_Node000016" class="edge">
<title>Node7&#45;&gt;Node16</title>
<g id="a_edge15_Node000007_Node000016"><a xlink:title=" ">
<path fill="none" stroke="#63b8ff" d="M897.45,-117.82C932.26,-106.5 984.22,-89.62 1015.29,-79.52"/>
<polygon fill="#63b8ff" stroke="#63b8ff" points="896.1,-114.57 887.67,-120.99 898.27,-121.23 896.1,-114.57"/>
</a>
</g>
</g>
<!-- Node17 -->
<g id="Node000017" class="node">
<title>Node17</title>
<g id="a_Node000017"><a xlink:href="express_2legacy_2in_2Server_8h.html" target="_top" xlink:title=" ">
<polygon fill="white" stroke="#666666" points="315.5,-79.5 169.5,-79.5 169.5,-60.5 315.5,-60.5 315.5,-79.5"/>
<text text-anchor="middle" x="242.5" y="-67.5" font-family="Helvetica,sans-Serif" font-size="10.00">express/legacy/in/Server.h</text>
</a>
</g>
</g>
<!-- Node7&#45;&gt;Node17 -->
<g id="edge16_Node000007_Node000017" class="edge">
<title>Node7&#45;&gt;Node17</title>
<g id="a_edge16_Node000007_Node000017"><a xlink:title=" ">
<path fill="none" stroke="#63b8ff" d="M773.86,-124.57C667.34,-118.04 482.29,-104.97 324.5,-85 312.75,-83.51 300.12,-81.54 288.37,-79.55"/>
<polygon fill="#63b8ff" stroke="#63b8ff" points="773.72,-128.07 783.91,-125.18 774.14,-121.08 773.72,-128.07"/>
</a>
</g>
</g>
<!-- Node18 -->
<g id="Node000018" class="node">
<title>Node18</title>
<g id="a_Node000018"><a xlink:href="legacy_2in_2Server_8cpp.html" target="_top" xlink:title=" ">
<polygon fill="white" stroke="#666666" points="321,-19 164,-19 164,0 321,0 321,-19"/>
<text text-anchor="middle" x="242.5" y="-7" font-family="Helvetica,sans-Serif" font-size="10.00">express/legacy/in/Server.cpp</text>
</a>
</g>
</g>
<!-- Node17&#45;&gt;Node18 -->
<g id="edge17_Node000017_Node000018" class="edge">
<title>Node17&#45;&gt;Node18</title>
<g id="a_edge17_Node000017_Node000018"><a xlink:title=" ">
<path fill="none" stroke="#63b8ff" d="M242.5,-50.16C242.5,-39.74 242.5,-27.3 242.5,-19.17"/>
<polygon fill="#63b8ff" stroke="#63b8ff" points="239,-50.37 242.5,-60.37 246,-50.37 239,-50.37"/>
</a>
</g>
</g>
<!-- Node20 -->
<g id="Node000020" class="node">
<title>Node20</title>
<g id="a_Node000020"><a xlink:href="in_2stream_2tls_2SocketServer_8cpp.html" target="_top" xlink:title=" ">
<polygon fill="white" stroke="#666666" points="1363.5,-206 1231.5,-206 1231.5,-176 1363.5,-176 1363.5,-206"/>
<text text-anchor="start" x="1239.5" y="-194" font-family="Helvetica,sans-Serif" font-size="10.00">net/in/stream/tls/Socket</text>
<text text-anchor="middle" x="1297.5" y="-183" font-family="Helvetica,sans-Serif" font-size="10.00">Server.cpp</text>
</a>
</g>
</g>
<!-- Node19&#45;&gt;Node20 -->
<g id="edge19_Node000019_Node000020" class="edge">
<title>Node19&#45;&gt;Node20</title>
<g id="a_edge19_Node000019_Node000020"><a xlink:title=" ">
<path fill="none" stroke="#63b8ff" d="M1190.59,-237.92C1214.14,-227.8 1243.06,-215.38 1264.88,-206.01"/>
<polygon fill="#63b8ff" stroke="#63b8ff" points="1189.01,-234.79 1181.2,-241.95 1191.77,-241.22 1189.01,-234.79"/>
</a>
</g>
</g>
<!-- Node21 -->
<g id="Node000021" class="node">
<title>Node21</title>
<g id="a_Node000021"><a xlink:href="web_2http_2tls_2in_2Server_8h.html" target="_top" xlink:title=" ">
<polygon fill="white" stroke="#666666" points="1213.5,-200.5 1083.5,-200.5 1083.5,-181.5 1213.5,-181.5 1213.5,-200.5"/>
<text text-anchor="middle" x="1148.5" y="-188.5" font-family="Helvetica,sans-Serif" font-size="10.00">web/http/tls/in/Server.h</text>
</a>
</g>
</g>
<!-- Node19&#45;&gt;Node21 -->
<g id="edge20_Node000019_Node000021" class="edge">
<title>Node19&#45;&gt;Node21</title>
<g id="a_edge20_Node000019_Node000021"><a xlink:title=" ">
<path fill="none" stroke="#63b8ff" d="M1148.5,-231.6C1148.5,-220.8 1148.5,-208.78 1148.5,-200.84"/>
<polygon fill="#63b8ff" stroke="#63b8ff" points="1145,-231.8 1148.5,-241.8 1152,-231.8 1145,-231.8"/>
</a>
</g>
</g>
<!-- Node22 -->
<g id="Node000022" class="node">
<title>Node22</title>
<g id="a_Node000022"><a xlink:href="tls_2in_2WebApp_8h.html" target="_top" xlink:title=" ">
<polygon fill="white" stroke="#666666" points="1326.5,-140 1192.5,-140 1192.5,-121 1326.5,-121 1326.5,-140"/>
<text text-anchor="middle" x="1259.5" y="-128" font-family="Helvetica,sans-Serif" font-size="10.00">express/tls/in/WebApp.h</text>
</a>
</g>
</g>
<!-- Node21&#45;&gt;Node22 -->
<g id="edge21_Node000021_Node000022" class="edge">
<title>Node21&#45;&gt;Node22</title>
<g id="a_edge21_Node000021_Node000022"><a xlink:title=" ">
<path fill="none" stroke="#63b8ff" d="M1173.97,-176.58C1195.21,-165.38 1224.83,-149.77 1243.05,-140.17"/>
<polygon fill="#63b8ff" stroke="#63b8ff" points="1172.09,-173.61 1164.88,-181.37 1175.36,-179.8 1172.09,-173.61"/>
</a>
</g>
</g>
<!-- Node22&#45;&gt;Node12 -->
<g id="edge22_Node000022_Node000012" class="edge">
<title>Node22&#45;&gt;Node12</title>
<g id="a_edge22_Node000022_Node000012"><a xlink:title=" ">
<path fill="none" stroke="#63b8ff" d="M1242.98,-113.91C1231.35,-102.94 1216.22,-88.67 1206.69,-79.67"/>
<polygon fill="#63b8ff" stroke="#63b8ff" points="1240.68,-116.55 1250.35,-120.87 1245.48,-111.46 1240.68,-116.55"/>
</a>
</g>
</g>
<!-- Node22&#45;&gt;Node13 -->
<g id="edge23_Node000022_Node000013" class="edge">
<title>Node22&#45;&gt;Node13</title>
<g id="a_edge23_Node000022_Node000013"><a xlink:title=" ">
<path fill="none" stroke="#63b8ff" d="M1276.29,-113.91C1288.1,-102.94 1303.47,-88.67 1313.17,-79.67"/>
<polygon fill="#63b8ff" stroke="#63b8ff" points="1273.74,-111.5 1268.8,-120.87 1278.51,-116.63 1273.74,-111.5"/>
</a>
</g>
</g>
<!-- Node22&#45;&gt;Node14 -->
<g id="edge24_Node000022_Node000014" class="edge">
<title>Node22&#45;&gt;Node14</title>
<g id="a_edge24_Node000022_Node000014"><a xlink:title=" ">
<path fill="none" stroke="#63b8ff" d="M1300.07,-118.25C1340.88,-106.94 1402.89,-89.75 1439.78,-79.52"/>
<polygon fill="#63b8ff" stroke="#63b8ff" points="1298.88,-114.95 1290.18,-120.99 1300.75,-121.69 1298.88,-114.95"/>
</a>
</g>
</g>
<!-- Node22&#45;&gt;Node16 -->
<g id="edge25_Node000022_Node000016" class="edge">
<title>Node22&#45;&gt;Node16</title>
<g id="a_edge25_Node000022_Node000016"><a xlink:title=" ">
<path fill="none" stroke="#63b8ff" d="M1218.12,-118.4C1175.97,-107.08 1111.52,-89.79 1073.24,-79.52"/>
<polygon fill="#63b8ff" stroke="#63b8ff" points="1217.24,-121.78 1227.8,-120.99 1219.05,-115.02 1217.24,-121.78"/>
</a>
</g>
</g>
<!-- Node23 -->
<g id="Node000023" class="node">
<title>Node23</title>
<g id="a_Node000023"><a xlink:href="express_2tls_2in_2Server_8h.html" target="_top" xlink:title=" ">
<polygon fill="white" stroke="#666666" points="1688,-79.5 1563,-79.5 1563,-60.5 1688,-60.5 1688,-79.5"/>
<text text-anchor="middle" x="1625.5" y="-67.5" font-family="Helvetica,sans-Serif" font-size="10.00">express/tls/in/Server.h</text>
</a>
</g>
</g>
<!-- Node22&#45;&gt;Node23 -->
<g id="edge26_Node000022_Node000023" class="edge">
<title>Node22&#45;&gt;Node23</title>
<g id="a_edge26_Node000022_Node000023"><a xlink:title=" ">
<path fill="none" stroke="#63b8ff" d="M1331.6,-119.55C1391.42,-111.07 1478.65,-98.19 1554.5,-85 1564.03,-83.34 1574.25,-81.42 1583.89,-79.53"/>
<polygon fill="#63b8ff" stroke="#63b8ff" points="1330.91,-116.11 1321.5,-120.97 1331.89,-123.04 1330.91,-116.11"/>
</a>
</g>
</g>
<!-- Node24 -->
<g id="Node000024" class="node">
<title>Node24</title>
<g id="a_Node000024"><a xlink:href="tls_2in_2Server_8cpp.html" target="_top" xlink:title=" ">
<polygon fill="white" stroke="#666666" points="1694,-19 1557,-19 1557,0 1694,0 1694,-19"/>
<text text-anchor="middle" x="1625.5" y="-7" font-family="Helvetica,sans-Serif" font-size="10.00">express/tls/in/Server.cpp</text>
</a>
</g>
</g>
<!-- Node23&#45;&gt;Node24 -->
<g id="edge27_Node000023_Node000024" class="edge">
<title>Node23&#45;&gt;Node24</title>
<g id="a_edge27_Node000023_Node000024"><a xlink:title=" ">
<path fill="none" stroke="#63b8ff" d="M1625.5,-50.16C1625.5,-39.74 1625.5,-27.3 1625.5,-19.17"/>
<polygon fill="#63b8ff" stroke="#63b8ff" points="1622,-50.37 1625.5,-60.37 1629,-50.37 1622,-50.37"/>
</a>
</g>
</g>
</g>
</svg>

<g id="navigator" transform="translate(0 0)" fill="#404254">
  <rect fill="#f2f5e9" fill-opacity="0.5" stroke="#606060" stroke-width=".5" x="0" y="0" width="60" height="60"/>
  <use id="zoomplus" xlink:href="#zoomPlus" x="17" y="9" onmousedown="handleZoom(evt,'in')"/>
  <use id="zoomminus" xlink:href="#zoomMin" x="42" y="9" onmousedown="handleZoom(evt,'out')"/>
  <use id="reset" xlink:href="#resetDef" x="30" y="36" onmousedown="handleReset()"/>
   <use id="arrowup" xlink:href="#arrowUp" x="0" y="0" onmousedown="handlePan(0,-1)"/>
  <use id="arrowright" xlink:href="#arrowRight" x="0" y="0" onmousedown="handlePan(1,0)"/>
  <use id="arrowdown" xlink:href="#arrowDown" x="0" y="0" onmousedown="handlePan(0,1)"/>
  <use id="arrowleft" xlink:href="#arrowLeft" x="0" y="0" onmousedown="handlePan(-1,0)"/>
</g>
<svg viewBox="0 0 15 15" width="100%" height="30px" preserveAspectRatio="xMaxYMin meet">
 <g id="arrow_out" transform="scale(0.3 0.3)">
  <a xlink:href="in_2phy_2stream_2PhysicalSocketServer_8h__dep__incl_org.svg" target="_base">
   <rect id="button" ry="5" rx="5" y="6" x="6" height="38" width="38"
        fill="#f2f5e9" fill-opacity="0.5" stroke="#606060" stroke-width="1.0"/>
   <path id="arrow"
     d="M 11.500037,31.436501 C 11.940474,20.09759 22.043105,11.32322 32.158766,21.979434 L 37.068811,17.246167 C 37.068811,17.246167 37.088388,32 37.088388,32 L 22.160133,31.978069 C 22.160133,31.978069 26.997745,27.140456 26.997745,27.140456 C 18.528582,18.264221 13.291696,25.230495 11.500037,31.436501 z"
     style="fill:#404040;"/>
  </a>
 </g>
</svg>

<style type='text/css'>
<![CDATA[
[data-mouse-over-selected='false'] { opacity: 0.7; }
[data-mouse-over-selected='true']  { opacity: 1.0; }
]]>
</style>
<script type="application/ecmascript"><![CDATA[
document.addEventListener('DOMContentLoaded', (event) => {
  highlightEdges();
  highlightAdjacentNodes();
});
]]></script>
</svg>
