<?xml version="1.0" encoding="UTF-8" standalone="no"?>
<!DOCTYPE svg PUBLIC "-//W3C//DTD SVG 1.1//EN"
 "http://www.w3.org/Graphics/SVG/1.1/DTD/svg11.dtd">
<!-- Generated by graphviz version 2.42.4 (0)
 -->
<!-- Title: net/in/stream/config/ConfigSocketServer.h Pages: 1 -->
<svg width="1390pt" height="357pt"
 viewBox="0.00 0.00 1389.50 357.00" xmlns="http://www.w3.org/2000/svg" xmlns:xlink="http://www.w3.org/1999/xlink">
<g id="graph0" class="graph" transform="scale(1 1) rotate(0) translate(4 353)">
<title>net/in/stream/config/ConfigSocketServer.h</title>
<!-- Node1 -->
<g id="Node000001" class="node">
<title>Node1</title>
<g id="a_Node000001"><a xlink:title=" ">
<polygon fill="#999999" stroke="#666666" points="904,-349 780,-349 780,-319 904,-319 904,-349"/>
<text text-anchor="start" x="788" y="-337" font-family="Helvetica,sans-Serif" font-size="10.00">net/in/stream/config</text>
<text text-anchor="middle" x="842" y="-326" font-family="Helvetica,sans-Serif" font-size="10.00">/ConfigSocketServer.h</text>
</a>
</g>
</g>
<!-- Node2 -->
<g id="Node000002" class="node">
<title>Node2</title>
<g id="a_Node000002"><a xlink:href="in_2stream_2config_2ConfigSocketServer_8cpp.html" target="_top" xlink:title=" ">
<polygon fill="white" stroke="#666666" points="745.5,-283 610.5,-283 610.5,-253 745.5,-253 745.5,-283"/>
<text text-anchor="start" x="618.5" y="-271" font-family="Helvetica,sans-Serif" font-size="10.00">net/in/stream/config</text>
<text text-anchor="middle" x="678" y="-260" font-family="Helvetica,sans-Serif" font-size="10.00">/ConfigSocketServer.cpp</text>
</a>
</g>
</g>
<!-- Node1&#45;&gt;Node2 -->
<g id="edge1_Node000001_Node000002" class="edge">
<title>Node1&#45;&gt;Node2</title>
<g id="a_edge1_Node000001_Node000002"><a xlink:title=" ">
<path fill="none" stroke="#63b8ff" d="M796.36,-315.19C770.31,-305.02 738.13,-292.47 713.91,-283.01"/>
<polygon fill="#63b8ff" stroke="#63b8ff" points="795.42,-318.58 806.01,-318.95 797.97,-312.06 795.42,-318.58"/>
</a>
</g>
</g>
<!-- Node3 -->
<g id="Node000003" class="node">
<title>Node3</title>
<g id="a_Node000003"><a xlink:href="in_2stream_2legacy_2config_2ConfigSocketServer_8h.html" target="_top" xlink:title=" ">
<polygon fill="white" stroke="#666666" points="920.5,-283 763.5,-283 763.5,-253 920.5,-253 920.5,-283"/>
<text text-anchor="start" x="771.5" y="-271" font-family="Helvetica,sans-Serif" font-size="10.00">net/in/stream/legacy</text>
<text text-anchor="middle" x="842" y="-260" font-family="Helvetica,sans-Serif" font-size="10.00">/config/ConfigSocketServer.h</text>
</a>
</g>
</g>
<!-- Node1&#45;&gt;Node3 -->
<g id="edge2_Node000001_Node000003" class="edge">
<title>Node1&#45;&gt;Node3</title>
<g id="a_edge2_Node000001_Node000003"><a xlink:title=" ">
<path fill="none" stroke="#63b8ff" d="M842,-308.54C842,-299.96 842,-290.61 842,-283.16"/>
<polygon fill="#63b8ff" stroke="#63b8ff" points="838.5,-308.8 842,-318.8 845.5,-308.8 838.5,-308.8"/>
</a>
</g>
</g>
<!-- Node18 -->
<g id="Node000018" class="node">
<title>Node18</title>
<g id="a_Node000018"><a xlink:href="in_2stream_2tls_2config_2ConfigSocketServer_8h.html" target="_top" xlink:title=" ">
<polygon fill="white" stroke="#666666" points="1075,-283 945,-283 945,-253 1075,-253 1075,-283"/>
<text text-anchor="start" x="953" y="-271" font-family="Helvetica,sans-Serif" font-size="10.00">net/in/stream/tls/config</text>
<text text-anchor="middle" x="1010" y="-260" font-family="Helvetica,sans-Serif" font-size="10.00">/ConfigSocketServer.h</text>
</a>
</g>
</g>
<!-- Node1&#45;&gt;Node18 -->
<g id="edge17_Node000001_Node000018" class="edge">
<title>Node1&#45;&gt;Node18</title>
<g id="a_edge17_Node000001_Node000018"><a xlink:title=" ">
<path fill="none" stroke="#63b8ff" d="M888.4,-315.32C915.14,-305.14 948.29,-292.51 973.22,-283.01"/>
<polygon fill="#63b8ff" stroke="#63b8ff" points="886.97,-312.12 878.87,-318.95 889.46,-318.67 886.97,-312.12"/>
</a>
</g>
</g>
<!-- Node4 -->
<g id="Node000004" class="node">
<title>Node4</title>
<g id="a_Node000004"><a xlink:href="net_2in_2stream_2legacy_2SocketServer_8h.html" target="_top" xlink:title=" ">
<polygon fill="white" stroke="#666666" points="739.5,-217 622.5,-217 622.5,-187 739.5,-187 739.5,-217"/>
<text text-anchor="start" x="630.5" y="-205" font-family="Helvetica,sans-Serif" font-size="10.00">net/in/stream/legacy</text>
<text text-anchor="middle" x="681" y="-194" font-family="Helvetica,sans-Serif" font-size="10.00">/SocketServer.h</text>
</a>
</g>
</g>
<!-- Node3&#45;&gt;Node4 -->
<g id="edge3_Node000003_Node000004" class="edge">
<title>Node3&#45;&gt;Node4</title>
<g id="a_edge3_Node000003_Node000004"><a xlink:title=" ">
<path fill="none" stroke="#63b8ff" d="M797.19,-249.19C771.63,-239.02 740.03,-226.47 716.25,-217.01"/>
<polygon fill="#63b8ff" stroke="#63b8ff" points="796.08,-252.51 806.67,-252.95 798.67,-246.01 796.08,-252.51"/>
</a>
</g>
</g>
<!-- Node17 -->
<g id="Node000017" class="node">
<title>Node17</title>
<g id="a_Node000017"><a xlink:href="in_2stream_2legacy_2config_2ConfigSocketServer_8cpp.html" target="_top" xlink:title=" ">
<polygon fill="white" stroke="#666666" points="926,-217 758,-217 758,-187 926,-187 926,-217"/>
<text text-anchor="start" x="766" y="-205" font-family="Helvetica,sans-Serif" font-size="10.00">net/in/stream/legacy</text>
<text text-anchor="middle" x="842" y="-194" font-family="Helvetica,sans-Serif" font-size="10.00">/config/ConfigSocketServer.cpp</text>
</a>
</g>
</g>
<!-- Node3&#45;&gt;Node17 -->
<g id="edge16_Node000003_Node000017" class="edge">
<title>Node3&#45;&gt;Node17</title>
<g id="a_edge16_Node000003_Node000017"><a xlink:title=" ">
<path fill="none" stroke="#63b8ff" d="M842,-242.54C842,-233.96 842,-224.61 842,-217.16"/>
<polygon fill="#63b8ff" stroke="#63b8ff" points="838.5,-242.8 842,-252.8 845.5,-242.8 838.5,-242.8"/>
</a>
</g>
</g>
<!-- Node5 -->
<g id="Node000005" class="node">
<title>Node5</title>
<g id="a_Node000005"><a xlink:href="in_2stream_2legacy_2SocketServer_8cpp.html" target="_top" xlink:title=" ">
<polygon fill="white" stroke="#666666" points="615.5,-151 498.5,-151 498.5,-121 615.5,-121 615.5,-151"/>
<text text-anchor="start" x="506.5" y="-139" font-family="Helvetica,sans-Serif" font-size="10.00">net/in/stream/legacy</text>
<text text-anchor="middle" x="557" y="-128" font-family="Helvetica,sans-Serif" font-size="10.00">/SocketServer.cpp</text>
</a>
</g>
</g>
<!-- Node4&#45;&gt;Node5 -->
<g id="edge4_Node000004_Node000005" class="edge">
<title>Node4&#45;&gt;Node5</title>
<g id="a_edge4_Node000004_Node000005"><a xlink:title=" ">
<path fill="none" stroke="#63b8ff" d="M644.66,-182.24C625.3,-172.25 601.9,-160.18 584.15,-151.01"/>
<polygon fill="#63b8ff" stroke="#63b8ff" points="643.3,-185.48 653.79,-186.95 646.51,-179.26 643.3,-185.48"/>
</a>
</g>
</g>
<!-- Node6 -->
<g id="Node000006" class="node">
<title>Node6</title>
<g id="a_Node000006"><a xlink:href="legacy_2in_2Server_8h.html" target="_top" xlink:title=" ">
<polygon fill="white" stroke="#666666" points="740.5,-151 633.5,-151 633.5,-121 740.5,-121 740.5,-151"/>
<text text-anchor="start" x="641.5" y="-139" font-family="Helvetica,sans-Serif" font-size="10.00">web/http/legacy/in</text>
<text text-anchor="middle" x="687" y="-128" font-family="Helvetica,sans-Serif" font-size="10.00">/Server.h</text>
</a>
</g>
</g>
<!-- Node4&#45;&gt;Node6 -->
<g id="edge5_Node000004_Node000006" class="edge">
<title>Node4&#45;&gt;Node6</title>
<g id="a_edge5_Node000004_Node000006"><a xlink:title=" ">
<path fill="none" stroke="#63b8ff" d="M683.27,-176.83C684.08,-168.17 684.97,-158.7 685.67,-151.16"/>
<polygon fill="#63b8ff" stroke="#63b8ff" points="679.78,-176.51 682.33,-186.8 686.75,-177.17 679.78,-176.51"/>
</a>
</g>
</g>
<!-- Node7 -->
<g id="Node000007" class="node">
<title>Node7</title>
<g id="a_Node000007"><a xlink:href="legacy_2in_2WebApp_8h.html" target="_top" xlink:title=" ">
<polygon fill="white" stroke="#666666" points="764.5,-85 609.5,-85 609.5,-66 764.5,-66 764.5,-85"/>
<text text-anchor="middle" x="687" y="-73" font-family="Helvetica,sans-Serif" font-size="10.00">express/legacy/in/WebApp.h</text>
</a>
</g>
</g>
<!-- Node6&#45;&gt;Node7 -->
<g id="edge6_Node000006_Node000007" class="edge">
<title>Node6&#45;&gt;Node7</title>
<g id="a_edge6_Node000006_Node000007"><a xlink:title=" ">
<path fill="none" stroke="#63b8ff" d="M687,-110.75C687,-101.72 687,-92.03 687,-85.27"/>
<polygon fill="#63b8ff" stroke="#63b8ff" points="683.5,-110.84 687,-120.84 690.5,-110.84 683.5,-110.84"/>
</a>
</g>
</g>
<!-- Node8 -->
<g id="Node000008" class="node">
<title>Node8</title>
<g id="a_Node000008"><a xlink:href="jsonserver_8cpp.html" target="_top" xlink:title=" ">
<polygon fill="white" stroke="#666666" points="582,-24.5 468,-24.5 468,-5.5 582,-5.5 582,-24.5"/>
<text text-anchor="middle" x="525" y="-12.5" font-family="Helvetica,sans-Serif" font-size="10.00">apps/jsonserver.cpp</text>
</a>
</g>
</g>
<!-- Node7&#45;&gt;Node8 -->
<g id="edge7_Node000007_Node000008" class="edge">
<title>Node7&#45;&gt;Node8</title>
<g id="a_edge7_Node000007_Node000008"><a xlink:title=" ">
<path fill="none" stroke="#63b8ff" d="M653.84,-62.52C622.51,-51.21 576.31,-34.53 548.58,-24.52"/>
<polygon fill="#63b8ff" stroke="#63b8ff" points="652.85,-65.89 663.44,-65.99 655.23,-59.31 652.85,-65.89"/>
</a>
</g>
</g>
<!-- Node9 -->
<g id="Node000009" class="node">
<title>Node9</title>
<g id="a_Node000009"><a xlink:href="AuthorizationServer_8cpp.html" target="_top" xlink:title=" ">
<polygon fill="white" stroke="#666666" points="773.5,-30 600.5,-30 600.5,0 773.5,0 773.5,-30"/>
<text text-anchor="start" x="608.5" y="-18" font-family="Helvetica,sans-Serif" font-size="10.00">apps/oauth2/authorization</text>
<text text-anchor="middle" x="687" y="-7" font-family="Helvetica,sans-Serif" font-size="10.00">_server/AuthorizationServer.cpp</text>
</a>
</g>
</g>
<!-- Node7&#45;&gt;Node9 -->
<g id="edge8_Node000007_Node000009" class="edge">
<title>Node7&#45;&gt;Node9</title>
<g id="a_edge8_Node000007_Node000009"><a xlink:title=" ">
<path fill="none" stroke="#63b8ff" d="M687,-55.65C687,-47.36 687,-37.78 687,-30.11"/>
<polygon fill="#63b8ff" stroke="#63b8ff" points="683.5,-55.87 687,-65.87 690.5,-55.87 683.5,-55.87"/>
</a>
</g>
</g>
<!-- Node10 -->
<g id="Node000010" class="node">
<title>Node10</title>
<g id="a_Node000010"><a xlink:href="ClientApp_8cpp.html" target="_top" xlink:title=" ">
<polygon fill="white" stroke="#666666" points="110,-30 0,-30 0,0 110,0 110,-30"/>
<text text-anchor="start" x="8" y="-18" font-family="Helvetica,sans-Serif" font-size="10.00">apps/oauth2/client</text>
<text text-anchor="middle" x="55" y="-7" font-family="Helvetica,sans-Serif" font-size="10.00">_app/ClientApp.cpp</text>
</a>
</g>
</g>
<!-- Node7&#45;&gt;Node10 -->
<g id="edge9_Node000007_Node000010" class="edge">
<title>Node7&#45;&gt;Node10</title>
<g id="a_edge9_Node000007_Node000010"><a xlink:title=" ">
<path fill="none" stroke="#63b8ff" d="M599.22,-71.36C487.26,-66.5 287.9,-54.97 119,-30 116.07,-29.57 113.08,-29.08 110.07,-28.55"/>
<polygon fill="#63b8ff" stroke="#63b8ff" points="599.31,-74.87 609.45,-71.8 599.61,-67.87 599.31,-74.87"/>
</a>
</g>
</g>
<!-- Node11 -->
<g id="Node000011" class="node">
<title>Node11</title>
<g id="a_Node000011"><a xlink:href="ResourceServer_8cpp.html" target="_top" xlink:title=" ">
<polygon fill="white" stroke="#666666" points="280,-30 128,-30 128,0 280,0 280,-30"/>
<text text-anchor="start" x="136" y="-18" font-family="Helvetica,sans-Serif" font-size="10.00">apps/oauth2/resource</text>
<text text-anchor="middle" x="204" y="-7" font-family="Helvetica,sans-Serif" font-size="10.00">_server/ResourceServer.cpp</text>
</a>
</g>
</g>
<!-- Node7&#45;&gt;Node11 -->
<g id="edge10_Node000007_Node000011" class="edge">
<title>Node7&#45;&gt;Node11</title>
<g id="a_edge10_Node000007_Node000011"><a xlink:title=" ">
<path fill="none" stroke="#63b8ff" d="M599.31,-66.02C518.56,-57.89 395.5,-44.71 289,-30 286.19,-29.61 283.32,-29.2 280.43,-28.78"/>
<polygon fill="#63b8ff" stroke="#63b8ff" points="599.14,-69.52 609.44,-67.03 599.84,-62.55 599.14,-69.52"/>
</a>
</g>
</g>
<!-- Node12 -->
<g id="Node000012" class="node">
<title>Node12</title>
<g id="a_Node000012"><a xlink:href="testpost_8cpp.html" target="_top" xlink:title=" ">
<polygon fill="white" stroke="#666666" points="1381.5,-24.5 1278.5,-24.5 1278.5,-5.5 1381.5,-5.5 1381.5,-24.5"/>
<text text-anchor="middle" x="1330" y="-12.5" font-family="Helvetica,sans-Serif" font-size="10.00">apps/testpost.cpp</text>
</a>
</g>
</g>
<!-- Node7&#45;&gt;Node12 -->
<g id="edge11_Node000007_Node000012" class="edge">
<title>Node7&#45;&gt;Node12</title>
<g id="a_edge11_Node000007_Node000012"><a xlink:title=" ">
<path fill="none" stroke="#63b8ff" d="M774.71,-71.87C889.04,-67.51 1094.92,-56.48 1269,-30 1278.13,-28.61 1287.92,-26.6 1296.93,-24.54"/>
<polygon fill="#63b8ff" stroke="#63b8ff" points="774.48,-68.38 764.61,-72.25 774.74,-75.37 774.48,-68.38"/>
</a>
</g>
</g>
<!-- Node13 -->
<g id="Node000013" class="node">
<title>Node13</title>
<g id="a_Node000013"><a xlink:href="testregex_8cpp.html" target="_top" xlink:title=" ">
<polygon fill="white" stroke="#666666" points="902,-24.5 792,-24.5 792,-5.5 902,-5.5 902,-24.5"/>
<text text-anchor="middle" x="847" y="-12.5" font-family="Helvetica,sans-Serif" font-size="10.00">apps/testregex.cpp</text>
</a>
</g>
</g>
<!-- Node7&#45;&gt;Node13 -->
<g id="edge12_Node000007_Node000013" class="edge">
<title>Node7&#45;&gt;Node13</title>
<g id="a_edge12_Node000007_Node000013"><a xlink:title=" ">
<path fill="none" stroke="#63b8ff" d="M719.75,-62.52C750.69,-51.21 796.32,-34.53 823.71,-24.52"/>
<polygon fill="#63b8ff" stroke="#63b8ff" points="718.46,-59.27 710.27,-65.99 720.86,-65.85 718.46,-59.27"/>
</a>
</g>
</g>
<!-- Node14 -->
<g id="Node000014" class="node">
<title>Node14</title>
<g id="a_Node000014"><a xlink:href="verysimpleserver_8cpp.html" target="_top" xlink:title=" ">
<polygon fill="white" stroke="#666666" points="1069.5,-24.5 920.5,-24.5 920.5,-5.5 1069.5,-5.5 1069.5,-24.5"/>
<text text-anchor="middle" x="995" y="-12.5" font-family="Helvetica,sans-Serif" font-size="10.00">apps/verysimpleserver.cpp</text>
</a>
</g>
</g>
<!-- Node7&#45;&gt;Node14 -->
<g id="edge13_Node000007_Node000014" class="edge">
<title>Node7&#45;&gt;Node14</title>
<g id="a_edge13_Node000007_Node000014"><a xlink:title=" ">
<path fill="none" stroke="#63b8ff" d="M741.74,-64.1C801.16,-52.82 894.93,-35.01 950.16,-24.52"/>
<polygon fill="#63b8ff" stroke="#63b8ff" points="740.96,-60.69 731.79,-65.99 742.26,-67.57 740.96,-60.69"/>
</a>
</g>
</g>
<!-- Node15 -->
<g id="Node000015" class="node">
<title>Node15</title>
<g id="a_Node000015"><a xlink:href="warema-jalousien_8cpp.html" target="_top" xlink:title=" ">
<polygon fill="white" stroke="#666666" points="449.5,-24.5 298.5,-24.5 298.5,-5.5 449.5,-5.5 449.5,-24.5"/>
<text text-anchor="middle" x="374" y="-12.5" font-family="Helvetica,sans-Serif" font-size="10.00">apps/warema&#45;jalousien.cpp</text>
</a>
</g>
</g>
<!-- Node7&#45;&gt;Node15 -->
<g id="edge14_Node000007_Node000015" class="edge">
<title>Node7&#45;&gt;Node15</title>
<g id="a_edge14_Node000007_Node000015"><a xlink:title=" ">
<path fill="none" stroke="#63b8ff" d="M631.37,-64.1C570.99,-52.82 475.69,-35.01 419.57,-24.52"/>
<polygon fill="#63b8ff" stroke="#63b8ff" points="631.01,-67.6 641.49,-65.99 632.3,-60.72 631.01,-67.6"/>
</a>
</g>
</g>
<!-- Node16 -->
<g id="Node000016" class="node">
<title>Node16</title>
<g id="a_Node000016"><a xlink:href="websocket_2echoserver_8cpp.html" target="_top" xlink:title=" ">
<polygon fill="white" stroke="#666666" points="1260,-24.5 1088,-24.5 1088,-5.5 1260,-5.5 1260,-24.5"/>
<text text-anchor="middle" x="1174" y="-12.5" font-family="Helvetica,sans-Serif" font-size="10.00">apps/websocket/echoserver.cpp</text>
</a>
</g>
</g>
<!-- Node7&#45;&gt;Node16 -->
<g id="edge15_Node000007_Node000016" class="edge">
<title>Node7&#45;&gt;Node16</title>
<g id="a_edge15_Node000007_Node000016"><a xlink:title=" ">
<path fill="none" stroke="#63b8ff" d="M774.79,-65.38C854.3,-56.92 974.63,-43.61 1079,-30 1091.73,-28.34 1105.4,-26.41 1118.28,-24.53"/>
<polygon fill="#63b8ff" stroke="#63b8ff" points="774.39,-61.9 764.82,-66.44 775.13,-68.86 774.39,-61.9"/>
</a>
</g>
</g>
<!-- Node19 -->
<g id="Node000019" class="node">
<title>Node19</title>
<g id="a_Node000019"><a xlink:href="net_2in_2stream_2tls_2SocketServer_8h.html" target="_top" xlink:title=" ">
<polygon fill="white" stroke="#666666" points="1076,-217 944,-217 944,-187 1076,-187 1076,-217"/>
<text text-anchor="start" x="952" y="-205" font-family="Helvetica,sans-Serif" font-size="10.00">net/in/stream/tls/Socket</text>
<text text-anchor="middle" x="1010" y="-194" font-family="Helvetica,sans-Serif" font-size="10.00">Server.h</text>
</a>
</g>
</g>
<!-- Node18&#45;&gt;Node19 -->
<g id="edge18_Node000018_Node000019" class="edge">
<title>Node18&#45;&gt;Node19</title>
<g id="a_edge18_Node000018_Node000019"><a xlink:title=" ">
<path fill="none" stroke="#63b8ff" d="M1010,-242.54C1010,-233.96 1010,-224.61 1010,-217.16"/>
<polygon fill="#63b8ff" stroke="#63b8ff" points="1006.5,-242.8 1010,-252.8 1013.5,-242.8 1006.5,-242.8"/>
</a>
</g>
</g>
<!-- Node23 -->
<g id="Node000023" class="node">
<title>Node23</title>
<g id="a_Node000023"><a xlink:href="in_2stream_2tls_2config_2ConfigSocketServer_8cpp.html" target="_top" xlink:title=" ">
<polygon fill="white" stroke="#666666" points="1229.5,-217 1094.5,-217 1094.5,-187 1229.5,-187 1229.5,-217"/>
<text text-anchor="start" x="1102.5" y="-205" font-family="Helvetica,sans-Serif" font-size="10.00">net/in/stream/tls/config</text>
<text text-anchor="middle" x="1162" y="-194" font-family="Helvetica,sans-Serif" font-size="10.00">/ConfigSocketServer.cpp</text>
</a>
</g>
</g>
<!-- Node18&#45;&gt;Node23 -->
<g id="edge26_Node000018_Node000023" class="edge">
<title>Node18&#45;&gt;Node23</title>
<g id="a_edge26_Node000018_Node000023"><a xlink:title=" ">
<path fill="none" stroke="#63b8ff" d="M1052.62,-249.05C1076.7,-238.91 1106.36,-226.43 1128.72,-217.01"/>
<polygon fill="#63b8ff" stroke="#63b8ff" points="1051.22,-245.85 1043.36,-252.95 1053.93,-252.3 1051.22,-245.85"/>
</a>
</g>
</g>
<!-- Node20 -->
<g id="Node000020" class="node">
<title>Node20</title>
<g id="a_Node000020"><a xlink:href="in_2stream_2tls_2SocketServer_8cpp.html" target="_top" xlink:title=" ">
<polygon fill="white" stroke="#666666" points="1215,-151 1083,-151 1083,-121 1215,-121 1215,-151"/>
<text text-anchor="start" x="1091" y="-139" font-family="Helvetica,sans-Serif" font-size="10.00">net/in/stream/tls/Socket</text>
<text text-anchor="middle" x="1149" y="-128" font-family="Helvetica,sans-Serif" font-size="10.00">Server.cpp</text>
</a>
</g>
</g>
<!-- Node19&#45;&gt;Node20 -->
<g id="edge19_Node000019_Node000020" class="edge">
<title>Node19&#45;&gt;Node20</title>
<g id="a_edge19_Node000019_Node000020"><a xlink:title=" ">
<path fill="none" stroke="#63b8ff" d="M1049.86,-182.65C1071.72,-172.58 1098.39,-160.3 1118.57,-151.01"/>
<polygon fill="#63b8ff" stroke="#63b8ff" points="1048.12,-179.59 1040.5,-186.95 1051.05,-185.95 1048.12,-179.59"/>
</a>
</g>
</g>
<!-- Node21 -->
<g id="Node000021" class="node">
<title>Node21</title>
<g id="a_Node000021"><a xlink:href="tls_2in_2Server_8h.html" target="_top" xlink:title=" ">
<polygon fill="white" stroke="#666666" points="1065,-145.5 935,-145.5 935,-126.5 1065,-126.5 1065,-145.5"/>
<text text-anchor="middle" x="1000" y="-133.5" font-family="Helvetica,sans-Serif" font-size="10.00">web/http/tls/in/Server.h</text>
</a>
</g>
</g>
<!-- Node19&#45;&gt;Node21 -->
<g id="edge20_Node000019_Node000021" class="edge">
<title>Node19&#45;&gt;Node21</title>
<g id="a_edge20_Node000019_Node000021"><a xlink:title=" ">
<path fill="none" stroke="#63b8ff" d="M1006.19,-176.6C1004.5,-165.8 1002.62,-153.78 1001.38,-145.84"/>
<polygon fill="#63b8ff" stroke="#63b8ff" points="1002.78,-177.46 1007.78,-186.8 1009.69,-176.38 1002.78,-177.46"/>
</a>
</g>
</g>
<!-- Node22 -->
<g id="Node000022" class="node">
<title>Node22</title>
<g id="a_Node000022"><a xlink:href="tls_2in_2WebApp_8h.html" target="_top" xlink:title=" ">
<polygon fill="white" stroke="#666666" points="1067,-85 933,-85 933,-66 1067,-66 1067,-85"/>
<text text-anchor="middle" x="1000" y="-73" font-family="Helvetica,sans-Serif" font-size="10.00">express/tls/in/WebApp.h</text>
</a>
</g>
</g>
<!-- Node21&#45;&gt;Node22 -->
<g id="edge21_Node000021_Node000022" class="edge">
<title>Node21&#45;&gt;Node22</title>
<g id="a_edge21_Node000021_Node000022"><a xlink:title=" ">
<path fill="none" stroke="#63b8ff" d="M1000,-116.16C1000,-105.74 1000,-93.3 1000,-85.17"/>
<polygon fill="#63b8ff" stroke="#63b8ff" points="996.5,-116.37 1000,-126.37 1003.5,-116.37 996.5,-116.37"/>
</a>
</g>
</g>
<!-- Node22&#45;&gt;Node12 -->
<g id="edge22_Node000022_Node000012" class="edge">
<title>Node22&#45;&gt;Node12</title>
<g id="a_edge22_Node000022_Node000012"><a xlink:title=" ">
<path fill="none" stroke="#63b8ff" d="M1067.8,-64.47C1122.32,-56.12 1200.8,-43.45 1269,-30 1277.31,-28.36 1286.23,-26.42 1294.6,-24.51"/>
<polygon fill="#63b8ff" stroke="#63b8ff" points="1067.27,-61.01 1057.91,-65.98 1068.32,-67.93 1067.27,-61.01"/>
</a>
</g>
</g>
<!-- Node22&#45;&gt;Node13 -->
<g id="edge23_Node000022_Node000013" class="edge">
<title>Node22&#45;&gt;Node13</title>
<g id="a_edge23_Node000022_Node000013"><a xlink:title=" ">
<path fill="none" stroke="#63b8ff" d="M968.3,-62.38C938.72,-51.07 895.35,-34.49 869.27,-24.52"/>
<polygon fill="#63b8ff" stroke="#63b8ff" points="967.16,-65.69 977.75,-65.99 969.66,-59.15 967.16,-65.69"/>
</a>
</g>
</g>
<!-- Node22&#45;&gt;Node14 -->
<g id="edge24_Node000022_Node000014" class="edge">
<title>Node22&#45;&gt;Node14</title>
<g id="a_edge24_Node000022_Node000014"><a xlink:title=" ">
<path fill="none" stroke="#63b8ff" d="M998.39,-55.66C997.5,-45.24 996.44,-32.8 995.74,-24.67"/>
<polygon fill="#63b8ff" stroke="#63b8ff" points="994.92,-56.2 999.26,-65.87 1001.9,-55.61 994.92,-56.2"/>
</a>
</g>
</g>
<!-- Node22&#45;&gt;Node16 -->
<g id="edge25_Node000022_Node000016" class="edge">
<title>Node22&#45;&gt;Node16</title>
<g id="a_edge25_Node000022_Node000016"><a xlink:title=" ">
<path fill="none" stroke="#63b8ff" d="M1035.18,-62.67C1068.83,-51.36 1118.76,-34.57 1148.67,-24.52"/>
<polygon fill="#63b8ff" stroke="#63b8ff" points="1033.66,-59.49 1025.3,-65.99 1035.9,-66.12 1033.66,-59.49"/>
</a>
</g>
</g>
</g>
</svg>
