<?xml version="1.0" encoding="UTF-8" standalone="no"?>
<!DOCTYPE svg PUBLIC "-//W3C//DTD SVG 1.1//EN"
 "http://www.w3.org/Graphics/SVG/1.1/DTD/svg11.dtd">
<!-- Generated by graphviz version 2.42.4 (0)
 -->
<!-- Title: Graphical Class Hierarchy Pages: 1 -->
<svg width="412pt" height="610pt"
 viewBox="0.00 0.00 412.00 610.00" xmlns="http://www.w3.org/2000/svg" xmlns:xlink="http://www.w3.org/1999/xlink">
<g id="graph0" class="graph" transform="scale(1 1) rotate(0) translate(4 606)">
<title>Graphical Class Hierarchy</title>
<!-- Node0 -->
<g id="Node000000" class="node">
<title>Node0</title>
<g id="a_Node000000"><a xlink:title=" ">
<polygon fill="#e0e0e0" stroke="#999999" points="109,-335 0,-335 0,-305 109,-305 109,-335"/>
<text text-anchor="start" x="8" y="-323" font-family="Helvetica,sans-Serif" font-size="10.00">std::enable_shared</text>
<text text-anchor="middle" x="54.5" y="-312" font-family="Helvetica,sans-Serif" font-size="10.00">_from_this</text>
</a>
</g>
</g>
<!-- Node1 -->
<g id="Node000001" class="node">
<title>Node1</title>
<g id="a_Node000001"><a xlink:href="classweb_1_1http_1_1client_1_1tools_1_1EventSourceT.html" target="_top" xlink:title=" ">
<polygon fill="white" stroke="#666666" points="262,-602 145,-602 145,-550 262,-550 262,-602"/>
<text text-anchor="start" x="153" y="-590" font-family="Helvetica,sans-Serif" font-size="10.00">web::http::client::</text>
<text text-anchor="start" x="153" y="-579" font-family="Helvetica,sans-Serif" font-size="10.00">tools::EventSourceT</text>
<text text-anchor="start" x="153" y="-568" font-family="Helvetica,sans-Serif" font-size="10.00">&lt; web::http::legacy::</text>
<text text-anchor="middle" x="203.5" y="-557" font-family="Helvetica,sans-Serif" font-size="10.00">in::Client &gt;</text>
</a>
</g>
</g>
<!-- Node0&#45;&gt;Node1 -->
<g id="edge567_Node000000_Node000001" class="edge">
<title>Node0&#45;&gt;Node1</title>
<g id="a_edge567_Node000000_Node000001"><a xlink:title=" ">
<path fill="none" stroke="#63b8ff" d="M60.21,-344.97C69.6,-388.96 94.23,-481.26 145,-541 147.72,-544.21 150.82,-547.2 154.13,-549.98"/>
<polygon fill="#63b8ff" stroke="#63b8ff" points="63.63,-344.21 58.2,-335.12 56.77,-345.62 63.63,-344.21"/>
</a>
</g>
</g>
<!-- Node4 -->
<g id="Node000004" class="node">
<title>Node4</title>
<g id="a_Node000004"><a xlink:href="classweb_1_1http_1_1client_1_1tools_1_1EventSourceT.html" target="_top" xlink:title=" ">
<polygon fill="white" stroke="#666666" points="262,-532 145,-532 145,-480 262,-480 262,-532"/>
<text text-anchor="start" x="153" y="-520" font-family="Helvetica,sans-Serif" font-size="10.00">web::http::client::</text>
<text text-anchor="start" x="153" y="-509" font-family="Helvetica,sans-Serif" font-size="10.00">tools::EventSourceT</text>
<text text-anchor="start" x="153" y="-498" font-family="Helvetica,sans-Serif" font-size="10.00">&lt; web::http::legacy::</text>
<text text-anchor="middle" x="203.5" y="-487" font-family="Helvetica,sans-Serif" font-size="10.00">in6::Client &gt;</text>
</a>
</g>
</g>
<!-- Node0&#45;&gt;Node4 -->
<g id="edge569_Node000000_Node000004" class="edge">
<title>Node0&#45;&gt;Node4</title>
<g id="a_edge569_Node000000_Node000004"><a xlink:title=" ">
<path fill="none" stroke="#63b8ff" d="M65.66,-344.86C79.73,-376.98 107.69,-433.25 145,-471 148.12,-474.16 151.58,-477.15 155.22,-479.96"/>
<polygon fill="#63b8ff" stroke="#63b8ff" points="68.73,-343.15 61.58,-335.33 62.3,-345.9 68.73,-343.15"/>
</a>
</g>
</g>
<!-- Node6 -->
<g id="Node000006" class="node">
<title>Node6</title>
<g id="a_Node000006"><a xlink:href="classweb_1_1http_1_1client_1_1tools_1_1EventSourceT.html" target="_top" xlink:title=" ">
<polygon fill="white" stroke="#666666" points="262,-462 145,-462 145,-410 262,-410 262,-462"/>
<text text-anchor="start" x="153" y="-450" font-family="Helvetica,sans-Serif" font-size="10.00">web::http::client::</text>
<text text-anchor="start" x="153" y="-439" font-family="Helvetica,sans-Serif" font-size="10.00">tools::EventSourceT</text>
<text text-anchor="start" x="153" y="-428" font-family="Helvetica,sans-Serif" font-size="10.00">&lt; web::http::legacy::</text>
<text text-anchor="middle" x="203.5" y="-417" font-family="Helvetica,sans-Serif" font-size="10.00">rc::Client &gt;</text>
</a>
</g>
</g>
<!-- Node0&#45;&gt;Node6 -->
<g id="edge571_Node000000_Node000006" class="edge">
<title>Node0&#45;&gt;Node6</title>
<g id="a_edge571_Node000000_Node000006"><a xlink:title=" ">
<path fill="none" stroke="#63b8ff" d="M78.03,-342.6C95.54,-359.59 120.82,-382.96 145,-401 149.03,-404.01 153.32,-406.99 157.69,-409.87"/>
<polygon fill="#63b8ff" stroke="#63b8ff" points="80.16,-339.78 70.57,-335.28 75.26,-344.78 80.16,-339.78"/>
</a>
</g>
</g>
<!-- Node8 -->
<g id="Node000008" class="node">
<title>Node8</title>
<g id="a_Node000008"><a xlink:href="classweb_1_1http_1_1client_1_1tools_1_1EventSourceT.html" target="_top" xlink:title=" ">
<polygon fill="white" stroke="#666666" points="262,-392 145,-392 145,-340 262,-340 262,-392"/>
<text text-anchor="start" x="153" y="-380" font-family="Helvetica,sans-Serif" font-size="10.00">web::http::client::</text>
<text text-anchor="start" x="153" y="-369" font-family="Helvetica,sans-Serif" font-size="10.00">tools::EventSourceT</text>
<text text-anchor="start" x="153" y="-358" font-family="Helvetica,sans-Serif" font-size="10.00">&lt; web::http::legacy::</text>
<text text-anchor="middle" x="203.5" y="-347" font-family="Helvetica,sans-Serif" font-size="10.00">un::Client &gt;</text>
</a>
</g>
</g>
<!-- Node0&#45;&gt;Node8 -->
<g id="edge573_Node000000_Node000008" class="edge">
<title>Node0&#45;&gt;Node8</title>
<g id="a_edge573_Node000000_Node000008"><a xlink:title=" ">
<path fill="none" stroke="#63b8ff" d="M113.37,-338.11C123.7,-341.34 134.46,-344.71 144.78,-347.94"/>
<polygon fill="#63b8ff" stroke="#63b8ff" points="114.22,-334.71 103.63,-335.06 112.13,-341.39 114.22,-334.71"/>
</a>
</g>
</g>
<!-- Node10 -->
<g id="Node000010" class="node">
<title>Node10</title>
<g id="a_Node000010"><a xlink:href="classweb_1_1http_1_1client_1_1tools_1_1EventSourceT.html" target="_top" xlink:title=" ">
<polygon fill="white" stroke="#666666" points="260,-322 147,-322 147,-270 260,-270 260,-322"/>
<text text-anchor="start" x="155" y="-310" font-family="Helvetica,sans-Serif" font-size="10.00">web::http::client::</text>
<text text-anchor="start" x="155" y="-299" font-family="Helvetica,sans-Serif" font-size="10.00">tools::EventSourceT</text>
<text text-anchor="start" x="155" y="-288" font-family="Helvetica,sans-Serif" font-size="10.00">&lt; web::http::tls::in</text>
<text text-anchor="middle" x="203.5" y="-277" font-family="Helvetica,sans-Serif" font-size="10.00">::Client &gt;</text>
</a>
</g>
</g>
<!-- Node0&#45;&gt;Node10 -->
<g id="edge575_Node000000_Node000010" class="edge">
<title>Node0&#45;&gt;Node10</title>
<g id="a_edge575_Node000000_Node000010"><a xlink:title=" ">
<path fill="none" stroke="#63b8ff" d="M119.49,-309.55C128.53,-308.08 137.76,-306.57 146.63,-305.12"/>
<polygon fill="#63b8ff" stroke="#63b8ff" points="118.71,-306.13 109.4,-311.2 119.84,-313.04 118.71,-306.13"/>
</a>
</g>
</g>
<!-- Node12 -->
<g id="Node000012" class="node">
<title>Node12</title>
<g id="a_Node000012"><a xlink:href="classweb_1_1http_1_1client_1_1tools_1_1EventSourceT.html" target="_top" xlink:title=" ">
<polygon fill="white" stroke="#666666" points="260,-192 147,-192 147,-140 260,-140 260,-192"/>
<text text-anchor="start" x="155" y="-180" font-family="Helvetica,sans-Serif" font-size="10.00">web::http::client::</text>
<text text-anchor="start" x="155" y="-169" font-family="Helvetica,sans-Serif" font-size="10.00">tools::EventSourceT</text>
<text text-anchor="start" x="155" y="-158" font-family="Helvetica,sans-Serif" font-size="10.00">&lt; web::http::tls::in6</text>
<text text-anchor="middle" x="203.5" y="-147" font-family="Helvetica,sans-Serif" font-size="10.00">::Client &gt;</text>
</a>
</g>
</g>
<!-- Node0&#45;&gt;Node12 -->
<g id="edge577_Node000000_Node000012" class="edge">
<title>Node0&#45;&gt;Node12</title>
<g id="a_edge577_Node000000_Node000012"><a xlink:title=" ">
<path fill="none" stroke="#63b8ff" d="M106.16,-298.77C107.15,-297.88 108.1,-296.96 109,-296 139.74,-263.49 116.57,-236.54 145,-202 147.92,-198.45 151.28,-195.15 154.89,-192.1"/>
<polygon fill="#63b8ff" stroke="#63b8ff" points="103.85,-296.12 97.94,-304.92 108.05,-301.72 103.85,-296.12"/>
</a>
</g>
</g>
<!-- Node14 -->
<g id="Node000014" class="node">
<title>Node14</title>
<g id="a_Node000014"><a xlink:href="classweb_1_1http_1_1client_1_1tools_1_1EventSourceT.html" target="_top" xlink:title=" ">
<polygon fill="white" stroke="#666666" points="260,-122 147,-122 147,-70 260,-70 260,-122"/>
<text text-anchor="start" x="155" y="-110" font-family="Helvetica,sans-Serif" font-size="10.00">web::http::client::</text>
<text text-anchor="start" x="155" y="-99" font-family="Helvetica,sans-Serif" font-size="10.00">tools::EventSourceT</text>
<text text-anchor="start" x="155" y="-88" font-family="Helvetica,sans-Serif" font-size="10.00">&lt; web::http::tls::rc</text>
<text text-anchor="middle" x="203.5" y="-77" font-family="Helvetica,sans-Serif" font-size="10.00">::Client &gt;</text>
</a>
</g>
</g>
<!-- Node0&#45;&gt;Node14 -->
<g id="edge579_Node000000_Node000014" class="edge">
<title>Node0&#45;&gt;Node14</title>
<g id="a_edge579_Node000000_Node000014"><a xlink:title=" ">
<path fill="none" stroke="#63b8ff" d="M107.11,-298.16C107.77,-297.46 108.4,-296.74 109,-296 156.31,-237.73 101.42,-192.11 145,-131 147.31,-127.76 150.02,-124.77 152.98,-122.01"/>
<polygon fill="#63b8ff" stroke="#63b8ff" points="104.59,-295.71 99.25,-304.86 109.13,-301.04 104.59,-295.71"/>
</a>
</g>
</g>
<!-- Node16 -->
<g id="Node000016" class="node">
<title>Node16</title>
<g id="a_Node000016"><a xlink:href="classweb_1_1http_1_1client_1_1tools_1_1EventSourceT.html" target="_top" xlink:title=" ">
<polygon fill="white" stroke="#666666" points="260,-52 147,-52 147,0 260,0 260,-52"/>
<text text-anchor="start" x="155" y="-40" font-family="Helvetica,sans-Serif" font-size="10.00">web::http::client::</text>
<text text-anchor="start" x="155" y="-29" font-family="Helvetica,sans-Serif" font-size="10.00">tools::EventSourceT</text>
<text text-anchor="start" x="155" y="-18" font-family="Helvetica,sans-Serif" font-size="10.00">&lt; web::http::tls::un</text>
<text text-anchor="middle" x="203.5" y="-7" font-family="Helvetica,sans-Serif" font-size="10.00">::Client &gt;</text>
</a>
</g>
</g>
<!-- Node0&#45;&gt;Node16 -->
<g id="edge581_Node000000_Node000016" class="edge">
<title>Node0&#45;&gt;Node16</title>
<g id="a_edge581_Node000000_Node000016"><a xlink:title=" ">
<path fill="none" stroke="#63b8ff" d="M107.22,-298.17C107.84,-297.47 108.43,-296.74 109,-296 172.99,-211.92 86.39,-148.92 145,-61 147.14,-57.79 149.68,-54.83 152.49,-52.1"/>
<polygon fill="#63b8ff" stroke="#63b8ff" points="104.85,-295.59 99.72,-304.86 109.51,-300.81 104.85,-295.59"/>
</a>
</g>
</g>
<!-- Node18 -->
<g id="Node000018" class="node">
<title>Node18</title>
<g id="a_Node000018"><a xlink:href="classweb_1_1http_1_1client_1_1tools_1_1EventSourceT.html" target="_top" xlink:title=" ">
<polygon fill="white" stroke="#666666" points="260,-251.5 147,-251.5 147,-210.5 260,-210.5 260,-251.5"/>
<text text-anchor="start" x="155" y="-239.5" font-family="Helvetica,sans-Serif" font-size="10.00">web::http::client::</text>
<text text-anchor="start" x="155" y="-228.5" font-family="Helvetica,sans-Serif" font-size="10.00">tools::EventSourceT</text>
<text text-anchor="middle" x="203.5" y="-217.5" font-family="Helvetica,sans-Serif" font-size="10.00">&lt; Client &gt;</text>
</a>
</g>
</g>
<!-- Node0&#45;&gt;Node18 -->
<g id="edge583_Node000000_Node000018" class="edge">
<title>Node0&#45;&gt;Node18</title>
<g id="a_edge583_Node000000_Node000018"><a xlink:title=" ">
<path fill="none" stroke="#63b8ff" d="M102.44,-300.12C104.7,-298.8 106.9,-297.43 109,-296 127.46,-283.46 126.92,-274.08 145,-261 149.56,-257.7 154.54,-254.55 159.59,-251.61"/>
<polygon fill="#63b8ff" stroke="#63b8ff" points="100.65,-297.11 93.52,-304.95 103.98,-303.27 100.65,-297.11"/>
</a>
</g>
</g>
<!-- Node2 -->
<g id="Node000002" class="node">
<title>Node2</title>
<g id="a_Node000002"><a xlink:href="classweb_1_1http_1_1legacy_1_1in_1_1EventSource.html" target="_top" xlink:title=" ">
<polygon fill="white" stroke="#666666" points="404,-591 298,-591 298,-561 404,-561 404,-591"/>
<text text-anchor="start" x="306" y="-579" font-family="Helvetica,sans-Serif" font-size="10.00">web::http::legacy::</text>
<text text-anchor="middle" x="351" y="-568" font-family="Helvetica,sans-Serif" font-size="10.00">in::EventSource</text>
</a>
</g>
</g>
<!-- Node1&#45;&gt;Node2 -->
<g id="edge568_Node000001_Node000002" class="edge">
<title>Node1&#45;&gt;Node2</title>
<g id="a_edge568_Node000001_Node000002"><a xlink:title=" ">
<path fill="none" stroke="#63b8ff" d="M272.03,-576C280.63,-576 289.33,-576 297.64,-576"/>
<polygon fill="#63b8ff" stroke="#63b8ff" points="272.01,-572.5 262.01,-576 272.01,-579.5 272.01,-572.5"/>
</a>
</g>
</g>
<!-- Node5 -->
<g id="Node000005" class="node">
<title>Node5</title>
<g id="a_Node000005"><a xlink:href="classweb_1_1http_1_1legacy_1_1in6_1_1EventSource.html" target="_top" xlink:title=" ">
<polygon fill="white" stroke="#666666" points="404,-521 298,-521 298,-491 404,-491 404,-521"/>
<text text-anchor="start" x="306" y="-509" font-family="Helvetica,sans-Serif" font-size="10.00">web::http::legacy::</text>
<text text-anchor="middle" x="351" y="-498" font-family="Helvetica,sans-Serif" font-size="10.00">in6::EventSource</text>
</a>
</g>
</g>
<!-- Node4&#45;&gt;Node5 -->
<g id="edge570_Node000004_Node000005" class="edge">
<title>Node4&#45;&gt;Node5</title>
<g id="a_edge570_Node000004_Node000005"><a xlink:title=" ">
<path fill="none" stroke="#63b8ff" d="M272.03,-506C280.63,-506 289.33,-506 297.64,-506"/>
<polygon fill="#63b8ff" stroke="#63b8ff" points="272.01,-502.5 262.01,-506 272.01,-509.5 272.01,-502.5"/>
</a>
</g>
</g>
<!-- Node7 -->
<g id="Node000007" class="node">
<title>Node7</title>
<g id="a_Node000007"><a xlink:href="classweb_1_1http_1_1legacy_1_1rc_1_1EventSource.html" target="_top" xlink:title=" ">
<polygon fill="white" stroke="#666666" points="404,-451 298,-451 298,-421 404,-421 404,-451"/>
<text text-anchor="start" x="306" y="-439" font-family="Helvetica,sans-Serif" font-size="10.00">web::http::legacy::</text>
<text text-anchor="middle" x="351" y="-428" font-family="Helvetica,sans-Serif" font-size="10.00">rc::EventSource</text>
</a>
</g>
</g>
<!-- Node6&#45;&gt;Node7 -->
<g id="edge572_Node000006_Node000007" class="edge">
<title>Node6&#45;&gt;Node7</title>
<g id="a_edge572_Node000006_Node000007"><a xlink:title=" ">
<path fill="none" stroke="#63b8ff" d="M272.03,-436C280.63,-436 289.33,-436 297.64,-436"/>
<polygon fill="#63b8ff" stroke="#63b8ff" points="272.01,-432.5 262.01,-436 272.01,-439.5 272.01,-432.5"/>
</a>
</g>
</g>
<!-- Node9 -->
<g id="Node000009" class="node">
<title>Node9</title>
<g id="a_Node000009"><a xlink:href="classweb_1_1http_1_1legacy_1_1un_1_1EventSource.html" target="_top" xlink:title=" ">
<polygon fill="white" stroke="#666666" points="404,-381 298,-381 298,-351 404,-351 404,-381"/>
<text text-anchor="start" x="306" y="-369" font-family="Helvetica,sans-Serif" font-size="10.00">web::http::legacy::</text>
<text text-anchor="middle" x="351" y="-358" font-family="Helvetica,sans-Serif" font-size="10.00">un::EventSource</text>
</a>
</g>
</g>
<!-- Node8&#45;&gt;Node9 -->
<g id="edge574_Node000008_Node000009" class="edge">
<title>Node8&#45;&gt;Node9</title>
<g id="a_edge574_Node000008_Node000009"><a xlink:title=" ">
<path fill="none" stroke="#63b8ff" d="M272.03,-366C280.63,-366 289.33,-366 297.64,-366"/>
<polygon fill="#63b8ff" stroke="#63b8ff" points="272.01,-362.5 262.01,-366 272.01,-369.5 272.01,-362.5"/>
</a>
</g>
</g>
<!-- Node11 -->
<g id="Node000011" class="node">
<title>Node11</title>
<g id="a_Node000011"><a xlink:href="classweb_1_1http_1_1tls_1_1in_1_1EventSource.html" target="_top" xlink:title=" ">
<polygon fill="white" stroke="#666666" points="398.5,-311 303.5,-311 303.5,-281 398.5,-281 398.5,-311"/>
<text text-anchor="start" x="311.5" y="-299" font-family="Helvetica,sans-Serif" font-size="10.00">web::http::tls::in</text>
<text text-anchor="middle" x="351" y="-288" font-family="Helvetica,sans-Serif" font-size="10.00">::EventSource</text>
</a>
</g>
</g>
<!-- Node10&#45;&gt;Node11 -->
<g id="edge576_Node000010_Node000011" class="edge">
<title>Node10&#45;&gt;Node11</title>
<g id="a_edge576_Node000010_Node000011"><a xlink:title=" ">
<path fill="none" stroke="#63b8ff" d="M270.37,-296C281.4,-296 292.64,-296 303.06,-296"/>
<polygon fill="#63b8ff" stroke="#63b8ff" points="270.34,-292.5 260.34,-296 270.34,-299.5 270.34,-292.5"/>
</a>
</g>
</g>
<!-- Node13 -->
<g id="Node000013" class="node">
<title>Node13</title>
<g id="a_Node000013"><a xlink:href="classweb_1_1http_1_1tls_1_1in6_1_1EventSource.html" target="_top" xlink:title=" ">
<polygon fill="white" stroke="#666666" points="401.5,-181 300.5,-181 300.5,-151 401.5,-151 401.5,-181"/>
<text text-anchor="start" x="308.5" y="-169" font-family="Helvetica,sans-Serif" font-size="10.00">web::http::tls::in6</text>
<text text-anchor="middle" x="351" y="-158" font-family="Helvetica,sans-Serif" font-size="10.00">::EventSource</text>
</a>
</g>
</g>
<!-- Node12&#45;&gt;Node13 -->
<g id="edge578_Node000012_Node000013" class="edge">
<title>Node12&#45;&gt;Node13</title>
<g id="a_edge578_Node000012_Node000013"><a xlink:title=" ">
<path fill="none" stroke="#63b8ff" d="M270.63,-166C280.59,-166 290.72,-166 300.26,-166"/>
<polygon fill="#63b8ff" stroke="#63b8ff" points="270.34,-162.5 260.34,-166 270.34,-169.5 270.34,-162.5"/>
</a>
</g>
</g>
<!-- Node15 -->
<g id="Node000015" class="node">
<title>Node15</title>
<g id="a_Node000015"><a xlink:href="classweb_1_1http_1_1tls_1_1rc_1_1EventSource.html" target="_top" xlink:title=" ">
<polygon fill="white" stroke="#666666" points="398.5,-111 303.5,-111 303.5,-81 398.5,-81 398.5,-111"/>
<text text-anchor="start" x="311.5" y="-99" font-family="Helvetica,sans-Serif" font-size="10.00">web::http::tls::rc</text>
<text text-anchor="middle" x="351" y="-88" font-family="Helvetica,sans-Serif" font-size="10.00">::EventSource</text>
</a>
</g>
</g>
<!-- Node14&#45;&gt;Node15 -->
<g id="edge580_Node000014_Node000015" class="edge">
<title>Node14&#45;&gt;Node15</title>
<g id="a_edge580_Node000014_Node000015"><a xlink:title=" ">
<path fill="none" stroke="#63b8ff" d="M270.37,-96C281.4,-96 292.64,-96 303.06,-96"/>
<polygon fill="#63b8ff" stroke="#63b8ff" points="270.34,-92.5 260.34,-96 270.34,-99.5 270.34,-92.5"/>
</a>
</g>
</g>
<!-- Node17 -->
<g id="Node000017" class="node">
<title>Node17</title>
<g id="a_Node000017"><a xlink:href="classweb_1_1http_1_1tls_1_1un_1_1EventSource.html" target="_top" xlink:title=" ">
<polygon fill="white" stroke="#666666" points="400,-41 302,-41 302,-11 400,-11 400,-41"/>
<text text-anchor="start" x="310" y="-29" font-family="Helvetica,sans-Serif" font-size="10.00">web::http::tls::un</text>
<text text-anchor="middle" x="351" y="-18" font-family="Helvetica,sans-Serif" font-size="10.00">::EventSource</text>
</a>
</g>
</g>
<!-- Node16&#45;&gt;Node17 -->
<g id="edge582_Node000016_Node000017" class="edge">
<title>Node16&#45;&gt;Node17</title>
<g id="a_edge582_Node000016_Node000017"><a xlink:title=" ">
<path fill="none" stroke="#63b8ff" d="M270.35,-26C280.9,-26 291.63,-26 301.66,-26"/>
<polygon fill="#63b8ff" stroke="#63b8ff" points="270.34,-22.5 260.34,-26 270.34,-29.5 270.34,-22.5"/>
</a>
</g>
</g>
<!-- Node3 -->
<g id="Node000003" class="node">
<title>Node3</title>
<g id="a_Node000003"><a xlink:href="classweb_1_1http_1_1client_1_1tools_1_1EventSource.html" target="_top" xlink:title=" ">
<polygon fill="white" stroke="#666666" points="108,-287 1,-287 1,-257 108,-257 108,-287"/>
<text text-anchor="start" x="9" y="-275" font-family="Helvetica,sans-Serif" font-size="10.00">web::http::client::</text>
<text text-anchor="middle" x="54.5" y="-264" font-family="Helvetica,sans-Serif" font-size="10.00">tools::EventSource</text>
</a>
</g>
</g>
<!-- Node3&#45;&gt;Node1 -->
<g id="edge584_Node000003_Node000001" class="edge">
<title>Node3&#45;&gt;Node1</title>
<g id="a_edge584_Node000003_Node000001"><a xlink:title=" ">
<path fill="none" stroke="#63b8ff" d="M107.23,-293.83C107.84,-294.53 108.44,-295.25 109,-296 175.39,-383.78 84.23,-449.24 145,-541 147.13,-544.22 149.67,-547.18 152.47,-549.91"/>
<polygon fill="#63b8ff" stroke="#63b8ff" points="109.53,-291.19 99.75,-287.12 104.86,-296.41 109.53,-291.19"/>
</a>
</g>
</g>
<!-- Node3&#45;&gt;Node4 -->
<g id="edge585_Node000003_Node000004" class="edge">
<title>Node3&#45;&gt;Node4</title>
<g id="a_edge585_Node000003_Node000004"><a xlink:title=" ">
<path fill="none" stroke="#63b8ff" d="M107.12,-293.83C107.77,-294.53 108.4,-295.25 109,-296 158.68,-357.94 99.29,-406.07 145,-471 147.22,-474.15 149.82,-477.08 152.67,-479.77"/>
<polygon fill="#63b8ff" stroke="#63b8ff" points="109.16,-290.96 99.29,-287.1 104.6,-296.27 109.16,-290.96"/>
</a>
</g>
</g>
<!-- Node3&#45;&gt;Node6 -->
<g id="edge586_Node000003_Node000006" class="edge">
<title>Node3&#45;&gt;Node6</title>
<g id="a_edge586_Node000003_Node000006"><a xlink:title=" ">
<path fill="none" stroke="#63b8ff" d="M106.27,-293.25C107.22,-294.13 108.13,-295.05 109,-296 142.25,-332.44 114.09,-362.55 145,-401 147.56,-404.19 150.5,-407.16 153.66,-409.91"/>
<polygon fill="#63b8ff" stroke="#63b8ff" points="108.39,-290.47 98.33,-287.14 104.12,-296.01 108.39,-290.47"/>
</a>
</g>
</g>
<!-- Node3&#45;&gt;Node8 -->
<g id="edge587_Node000003_Node000008" class="edge">
<title>Node3&#45;&gt;Node8</title>
<g id="a_edge587_Node000003_Node000008"><a xlink:title=" ">
<path fill="none" stroke="#63b8ff" d="M102.44,-291.88C104.7,-293.2 106.9,-294.57 109,-296 127.46,-308.54 127.36,-317.33 145,-331 148.88,-334.01 153.04,-336.97 157.27,-339.82"/>
<polygon fill="#63b8ff" stroke="#63b8ff" points="103.98,-288.73 93.52,-287.05 100.65,-294.89 103.98,-288.73"/>
</a>
</g>
</g>
<!-- Node3&#45;&gt;Node10 -->
<g id="edge588_Node000003_Node000010" class="edge">
<title>Node3&#45;&gt;Node10</title>
<g id="a_edge588_Node000003_Node000010"><a xlink:title=" ">
<path fill="none" stroke="#63b8ff" d="M118.29,-282.25C127.74,-283.8 137.44,-285.38 146.74,-286.9"/>
<polygon fill="#63b8ff" stroke="#63b8ff" points="118.59,-278.75 108.16,-280.6 117.46,-285.66 118.59,-278.75"/>
</a>
</g>
</g>
<!-- Node3&#45;&gt;Node12 -->
<g id="edge589_Node000003_Node000012" class="edge">
<title>Node3&#45;&gt;Node12</title>
<g id="a_edge589_Node000003_Node000012"><a xlink:title=" ">
<path fill="none" stroke="#63b8ff" d="M81.67,-250.36C99.23,-236.14 123.07,-217.38 145,-202 149.73,-198.69 154.75,-195.32 159.78,-192.05"/>
<polygon fill="#63b8ff" stroke="#63b8ff" points="79.13,-247.92 73.59,-256.95 83.55,-253.34 79.13,-247.92"/>
</a>
</g>
</g>
<!-- Node3&#45;&gt;Node14 -->
<g id="edge590_Node000003_Node000014" class="edge">
<title>Node3&#45;&gt;Node14</title>
<g id="a_edge590_Node000003_Node000014"><a xlink:title=" ">
<path fill="none" stroke="#63b8ff" d="M66.69,-247.49C81.37,-217.33 109.49,-165.85 145,-131 148.17,-127.89 151.67,-124.93 155.32,-122.15"/>
<polygon fill="#63b8ff" stroke="#63b8ff" points="63.37,-246.31 62.24,-256.85 69.69,-249.32 63.37,-246.31"/>
</a>
</g>
</g>
<!-- Node3&#45;&gt;Node16 -->
<g id="edge591_Node000003_Node000016" class="edge">
<title>Node3&#45;&gt;Node16</title>
<g id="a_edge591_Node000003_Node000016"><a xlink:title=" ">
<path fill="none" stroke="#63b8ff" d="M60.8,-246.96C70.86,-204.5 96.2,-117.48 145,-61 147.75,-57.82 150.86,-54.84 154.19,-52.07"/>
<polygon fill="#63b8ff" stroke="#63b8ff" points="57.38,-246.22 58.57,-256.75 64.2,-247.78 57.38,-246.22"/>
</a>
</g>
</g>
<!-- Node3&#45;&gt;Node18 -->
<g id="edge592_Node000003_Node000018" class="edge">
<title>Node3&#45;&gt;Node18</title>
<g id="a_edge592_Node000003_Node000018"><a xlink:title=" ">
<path fill="none" stroke="#63b8ff" d="M117.99,-254.57C127.54,-251.91 137.34,-249.17 146.74,-246.55"/>
<polygon fill="#63b8ff" stroke="#63b8ff" points="116.85,-251.26 108.16,-257.31 118.73,-258 116.85,-251.26"/>
</a>
</g>
</g>
</g>
</svg>
