<?xml version="1.0" encoding="UTF-8" standalone="no"?>
<!DOCTYPE svg PUBLIC "-//W3C//DTD SVG 1.1//EN"
 "http://www.w3.org/Graphics/SVG/1.1/DTD/svg11.dtd">
<!-- Generated by graphviz version 2.42.4 (0)
 -->
<!-- Title: Graphical Class Hierarchy Pages: 1 -->
<svg width="901pt" height="555pt"
 viewBox="0.00 0.00 901.00 554.50" xmlns="http://www.w3.org/2000/svg" xmlns:xlink="http://www.w3.org/1999/xlink">
<g id="graph0" class="graph" transform="scale(1 1) rotate(0) translate(4 550.5)">
<title>Graphical Class Hierarchy</title>
<!-- Node0 -->
<g id="Node000000" class="node">
<title>Node0</title>
<g id="a_Node000000"><a xlink:href="classiot_1_1mqtt_1_1MqttContext.html" target="_top" xlink:title=" ">
<polygon fill="white" stroke="#666666" points="306,-501 193,-501 193,-482 306,-482 306,-501"/>
<text text-anchor="middle" x="249.5" y="-489" font-family="Helvetica,sans-Serif" font-size="10.00">iot::mqtt::MqttContext</text>
</a>
</g>
</g>
<!-- Node1 -->
<g id="Node000001" class="node">
<title>Node1</title>
<g id="a_Node000001"><a xlink:href="classiot_1_1mqtt_1_1SocketContext.html" target="_top" xlink:title=" ">
<polygon fill="white" stroke="#666666" points="503.5,-498 379.5,-498 379.5,-479 503.5,-479 503.5,-498"/>
<text text-anchor="middle" x="441.5" y="-486" font-family="Helvetica,sans-Serif" font-size="10.00">iot::mqtt::SocketContext</text>
</a>
</g>
</g>
<!-- Node0&#45;&gt;Node1 -->
<g id="edge469_Node000000_Node000001" class="edge">
<title>Node0&#45;&gt;Node1</title>
<g id="a_edge469_Node000000_Node000001"><a xlink:title=" ">
<path fill="none" stroke="#8b1a1a" d="M316.41,-490.46C336.87,-490.14 359.34,-489.78 379.46,-489.46"/>
<polygon fill="#8b1a1a" stroke="#8b1a1a" points="316.17,-486.96 306.22,-490.62 316.28,-493.96 316.17,-486.96"/>
</a>
</g>
</g>
<!-- Node20 -->
<g id="Node000020" class="node">
<title>Node20</title>
<g id="a_Node000020"><a xlink:href="classiot_1_1mqtt_1_1SubProtocol.html" target="_top" xlink:title=" ">
<polygon fill="white" stroke="#666666" points="507,-546.5 376,-546.5 376,-516.5 507,-516.5 507,-546.5"/>
<text text-anchor="start" x="384" y="-534.5" font-family="Helvetica,sans-Serif" font-size="10.00">iot::mqtt::SubProtocol</text>
<text text-anchor="middle" x="441.5" y="-523.5" font-family="Helvetica,sans-Serif" font-size="10.00">&lt; WSSubProtocolRoleT &gt;</text>
</a>
</g>
</g>
<!-- Node0&#45;&gt;Node20 -->
<g id="edge470_Node000000_Node000020" class="edge">
<title>Node0&#45;&gt;Node20</title>
<g id="a_edge470_Node000000_Node000020"><a xlink:title=" ">
<path fill="none" stroke="#8b1a1a" d="M305.83,-503.15C327.78,-507.77 353.18,-513.12 375.96,-517.91"/>
<polygon fill="#8b1a1a" stroke="#8b1a1a" points="306.52,-499.72 296.01,-501.08 305.07,-506.57 306.52,-499.72"/>
</a>
</g>
</g>
<!-- Node12 -->
<g id="Node000012" class="node">
<title>Node12</title>
<g id="a_Node000012"><a xlink:href="classweb_1_1websocket_1_1Receiver.html" target="_top" xlink:title=" ">
<polygon fill="white" stroke="#666666" points="316,-56 183,-56 183,-37 316,-37 316,-56"/>
<text text-anchor="middle" x="249.5" y="-44" font-family="Helvetica,sans-Serif" font-size="10.00">web::websocket::Receiver</text>
</a>
</g>
</g>
<!-- Node6 -->
<g id="Node000006" class="node">
<title>Node6</title>
<g id="a_Node000006"><a xlink:href="classweb_1_1websocket_1_1SubProtocolContext.html" target="_top" xlink:title=" ">
<polygon fill="white" stroke="#666666" points="515,-42.5 368,-42.5 368,-12.5 515,-12.5 515,-42.5"/>
<text text-anchor="start" x="376" y="-30.5" font-family="Helvetica,sans-Serif" font-size="10.00">web::websocket::SubProtocol</text>
<text text-anchor="middle" x="441.5" y="-19.5" font-family="Helvetica,sans-Serif" font-size="10.00">Context</text>
</a>
</g>
</g>
<!-- Node12&#45;&gt;Node6 -->
<g id="edge471_Node000012_Node000006" class="edge">
<title>Node12&#45;&gt;Node6</title>
<g id="a_edge471_Node000012_Node000006"><a xlink:title=" ">
<path fill="none" stroke="darkgreen" d="M326.43,-38.91C340.03,-37.55 354.18,-36.13 367.69,-34.78"/>
<polygon fill="darkgreen" stroke="darkgreen" points="325.76,-35.46 316.15,-39.93 326.45,-42.42 325.76,-35.46"/>
</a>
</g>
</g>
<!-- Node4 -->
<g id="Node000004" class="node">
<title>Node4</title>
<g id="a_Node000004"><a xlink:href="classweb_1_1websocket_1_1SocketContextUpgrade.html" target="_top" xlink:title=" ">
<polygon fill="white" stroke="#666666" points="726.5,-167.5 567.5,-167.5 567.5,-115.5 726.5,-115.5 726.5,-167.5"/>
<text text-anchor="start" x="575.5" y="-155.5" font-family="Helvetica,sans-Serif" font-size="10.00">web::websocket::SocketContext</text>
<text text-anchor="start" x="575.5" y="-144.5" font-family="Helvetica,sans-Serif" font-size="10.00">Upgrade&lt; SubProtocol, web</text>
<text text-anchor="start" x="575.5" y="-133.5" font-family="Helvetica,sans-Serif" font-size="10.00">::http::client::Request, web</text>
<text text-anchor="middle" x="647" y="-122.5" font-family="Helvetica,sans-Serif" font-size="10.00">::http::client::Response &gt;</text>
</a>
</g>
</g>
<!-- Node6&#45;&gt;Node4 -->
<g id="edge472_Node000006_Node000004" class="edge">
<title>Node6&#45;&gt;Node4</title>
<g id="a_edge472_Node000006_Node000004"><a xlink:title=" ">
<path fill="none" stroke="#63b8ff" d="M514.17,-46.2C518.23,-47.85 522.2,-49.61 526,-51.5 560.04,-68.44 594.28,-95.33 617.43,-115.31"/>
<polygon fill="#63b8ff" stroke="#63b8ff" points="515.16,-42.84 504.57,-42.58 512.69,-49.39 515.16,-42.84"/>
</a>
</g>
</g>
<!-- Node7 -->
<g id="Node000007" class="node">
<title>Node7</title>
<g id="a_Node000007"><a xlink:href="classweb_1_1websocket_1_1SocketContextUpgrade.html" target="_top" xlink:title=" ">
<polygon fill="white" stroke="#666666" points="726.5,-383.5 567.5,-383.5 567.5,-331.5 726.5,-331.5 726.5,-383.5"/>
<text text-anchor="start" x="575.5" y="-371.5" font-family="Helvetica,sans-Serif" font-size="10.00">web::websocket::SocketContext</text>
<text text-anchor="start" x="575.5" y="-360.5" font-family="Helvetica,sans-Serif" font-size="10.00">Upgrade&lt; SubProtocol, web</text>
<text text-anchor="start" x="575.5" y="-349.5" font-family="Helvetica,sans-Serif" font-size="10.00">::http::server::Request, web</text>
<text text-anchor="middle" x="647" y="-338.5" font-family="Helvetica,sans-Serif" font-size="10.00">::http::server::Response &gt;</text>
</a>
</g>
</g>
<!-- Node6&#45;&gt;Node7 -->
<g id="edge474_Node000006_Node000007" class="edge">
<title>Node6&#45;&gt;Node7</title>
<g id="a_edge474_Node000006_Node000007"><a xlink:title=" ">
<path fill="none" stroke="#63b8ff" d="M523.2,-48.56C524.17,-49.5 525.11,-50.48 526,-51.5 597.38,-132.95 507.23,-199.07 562,-292.5 571.05,-307.93 585.3,-321 599.51,-331.28"/>
<polygon fill="#63b8ff" stroke="#63b8ff" points="525.11,-45.61 515.11,-42.13 520.76,-51.09 525.11,-45.61"/>
</a>
</g>
</g>
<!-- Node10 -->
<g id="Node000010" class="node">
<title>Node10</title>
<g id="a_Node000010"><a xlink:href="classweb_1_1websocket_1_1SocketContextUpgrade.html" target="_top" xlink:title=" ">
<polygon fill="white" stroke="#666666" points="732,-284 562,-284 562,-243 732,-243 732,-284"/>
<text text-anchor="start" x="570" y="-272" font-family="Helvetica,sans-Serif" font-size="10.00">web::websocket::SocketContext</text>
<text text-anchor="start" x="570" y="-261" font-family="Helvetica,sans-Serif" font-size="10.00">Upgrade&lt; SubProtocolT, RequestT,</text>
<text text-anchor="middle" x="647" y="-250" font-family="Helvetica,sans-Serif" font-size="10.00"> ResponseT &gt;</text>
</a>
</g>
</g>
<!-- Node6&#45;&gt;Node10 -->
<g id="edge476_Node000006_Node000010" class="edge">
<title>Node6&#45;&gt;Node10</title>
<g id="a_edge476_Node000006_Node000010"><a xlink:title=" ">
<path fill="none" stroke="#63b8ff" d="M523.02,-48.73C524.04,-49.62 525.04,-50.54 526,-51.5 566.89,-92.37 533.07,-126.45 562,-176.5 577.03,-202.49 601.48,-226.59 620.13,-242.8"/>
<polygon fill="#63b8ff" stroke="#63b8ff" points="524.73,-45.65 514.57,-42.63 520.63,-51.32 524.73,-45.65"/>
</a>
</g>
</g>
<!-- Node5 -->
<g id="Node000005" class="node">
<title>Node5</title>
<g id="a_Node000005"><a xlink:href="classweb_1_1websocket_1_1client_1_1SocketContextUpgrade.html" target="_top" xlink:title=" ">
<polygon fill="white" stroke="#666666" points="893,-156.5 768,-156.5 768,-126.5 893,-126.5 893,-156.5"/>
<text text-anchor="start" x="776" y="-144.5" font-family="Helvetica,sans-Serif" font-size="10.00">web::websocket::client</text>
<text text-anchor="middle" x="830.5" y="-133.5" font-family="Helvetica,sans-Serif" font-size="10.00">::SocketContextUpgrade</text>
</a>
</g>
</g>
<!-- Node4&#45;&gt;Node5 -->
<g id="edge473_Node000004_Node000005" class="edge">
<title>Node4&#45;&gt;Node5</title>
<g id="a_edge473_Node000004_Node000005"><a xlink:title=" ">
<path fill="none" stroke="#63b8ff" d="M736.63,-141.5C747.16,-141.5 757.74,-141.5 767.78,-141.5"/>
<polygon fill="#63b8ff" stroke="#63b8ff" points="736.55,-138 726.55,-141.5 736.55,-145 736.55,-138"/>
</a>
</g>
</g>
<!-- Node8 -->
<g id="Node000008" class="node">
<title>Node8</title>
<g id="a_Node000008"><a xlink:href="classweb_1_1websocket_1_1server_1_1SocketContextUpgrade.html" target="_top" xlink:title=" ">
<polygon fill="white" stroke="#666666" points="893,-372.5 768,-372.5 768,-342.5 893,-342.5 893,-372.5"/>
<text text-anchor="start" x="776" y="-360.5" font-family="Helvetica,sans-Serif" font-size="10.00">web::websocket::server</text>
<text text-anchor="middle" x="830.5" y="-349.5" font-family="Helvetica,sans-Serif" font-size="10.00">::SocketContextUpgrade</text>
</a>
</g>
</g>
<!-- Node7&#45;&gt;Node8 -->
<g id="edge475_Node000007_Node000008" class="edge">
<title>Node7&#45;&gt;Node8</title>
<g id="a_edge475_Node000007_Node000008"><a xlink:title=" ">
<path fill="none" stroke="#63b8ff" d="M736.63,-357.5C747.16,-357.5 757.74,-357.5 767.78,-357.5"/>
<polygon fill="#63b8ff" stroke="#63b8ff" points="736.55,-354 726.55,-357.5 736.55,-361 736.55,-354"/>
</a>
</g>
</g>
<!-- Node19 -->
<g id="Node000019" class="node">
<title>Node19</title>
<g id="a_Node000019"><a xlink:href="classcore_1_1socket_1_1SocketContext.html" target="_top" xlink:title=" ">
<polygon fill="white" stroke="#666666" points="142,-278 0,-278 0,-259 142,-259 142,-278"/>
<text text-anchor="middle" x="71" y="-266" font-family="Helvetica,sans-Serif" font-size="10.00">core::socket::SocketContext</text>
</a>
</g>
</g>
<!-- Node2 -->
<g id="Node000002" class="node">
<title>Node2</title>
<g id="a_Node000002"><a xlink:href="classcore_1_1socket_1_1stream_1_1SocketContext.html" target="_top" xlink:title=" ">
<polygon fill="white" stroke="#666666" points="303,-283.5 196,-283.5 196,-253.5 303,-253.5 303,-283.5"/>
<text text-anchor="start" x="204" y="-271.5" font-family="Helvetica,sans-Serif" font-size="10.00">core::socket::stream</text>
<text text-anchor="middle" x="249.5" y="-260.5" font-family="Helvetica,sans-Serif" font-size="10.00">::SocketContext</text>
</a>
</g>
</g>
<!-- Node19&#45;&gt;Node2 -->
<g id="edge477_Node000019_Node000002" class="edge">
<title>Node19&#45;&gt;Node2</title>
<g id="a_edge477_Node000019_Node000002"><a xlink:title=" ">
<path fill="none" stroke="#63b8ff" d="M152.17,-268.5C166.95,-268.5 182.02,-268.5 195.73,-268.5"/>
<polygon fill="#63b8ff" stroke="#63b8ff" points="152.01,-265 142.01,-268.5 152.01,-272 152.01,-265"/>
</a>
</g>
</g>
<!-- Node2&#45;&gt;Node1 -->
<g id="edge484_Node000002_Node000001" class="edge">
<title>Node2&#45;&gt;Node1</title>
<g id="a_edge484_Node000002_Node000001"><a xlink:title=" ">
<path fill="none" stroke="#63b8ff" d="M256.48,-293.6C268.09,-336.63 297.9,-424.23 357,-469.5 363.61,-474.56 371.32,-478.32 379.34,-481.1"/>
<polygon fill="#63b8ff" stroke="#63b8ff" points="259.8,-292.47 253.91,-283.67 253.03,-294.23 259.8,-292.47"/>
</a>
</g>
</g>
<!-- Node3 -->
<g id="Node000003" class="node">
<title>Node3</title>
<g id="a_Node000003"><a xlink:href="classweb_1_1http_1_1SocketContextUpgrade.html" target="_top" xlink:title=" ">
<polygon fill="white" stroke="#666666" points="509,-294.5 374,-294.5 374,-242.5 509,-242.5 509,-294.5"/>
<text text-anchor="start" x="382" y="-282.5" font-family="Helvetica,sans-Serif" font-size="10.00">web::http::SocketContext</text>
<text text-anchor="start" x="382" y="-271.5" font-family="Helvetica,sans-Serif" font-size="10.00">Upgrade&lt; web::http::client</text>
<text text-anchor="start" x="382" y="-260.5" font-family="Helvetica,sans-Serif" font-size="10.00">::Request, web::http::client</text>
<text text-anchor="middle" x="441.5" y="-249.5" font-family="Helvetica,sans-Serif" font-size="10.00">::Response &gt;</text>
</a>
</g>
</g>
<!-- Node2&#45;&gt;Node3 -->
<g id="edge478_Node000002_Node000003" class="edge">
<title>Node2&#45;&gt;Node3</title>
<g id="a_edge478_Node000002_Node000003"><a xlink:title=" ">
<path fill="none" stroke="#63b8ff" d="M313.4,-268.5C332.77,-268.5 354.17,-268.5 373.79,-268.5"/>
<polygon fill="#63b8ff" stroke="#63b8ff" points="313.17,-265 303.17,-268.5 313.17,-272 313.17,-265"/>
</a>
</g>
</g>
<!-- Node9 -->
<g id="Node000009" class="node">
<title>Node9</title>
<g id="a_Node000009"><a xlink:href="classweb_1_1http_1_1SocketContextUpgrade.html" target="_top" xlink:title=" ">
<polygon fill="white" stroke="#666666" points="511,-412.5 372,-412.5 372,-360.5 511,-360.5 511,-412.5"/>
<text text-anchor="start" x="380" y="-400.5" font-family="Helvetica,sans-Serif" font-size="10.00">web::http::SocketContext</text>
<text text-anchor="start" x="380" y="-389.5" font-family="Helvetica,sans-Serif" font-size="10.00">Upgrade&lt; web::http::server</text>
<text text-anchor="start" x="380" y="-378.5" font-family="Helvetica,sans-Serif" font-size="10.00">::Request, web::http::server</text>
<text text-anchor="middle" x="441.5" y="-367.5" font-family="Helvetica,sans-Serif" font-size="10.00">::Response &gt;</text>
</a>
</g>
</g>
<!-- Node2&#45;&gt;Node9 -->
<g id="edge480_Node000002_Node000009" class="edge">
<title>Node2&#45;&gt;Node9</title>
<g id="a_edge480_Node000002_Node000009"><a xlink:title=" ">
<path fill="none" stroke="#63b8ff" d="M274.88,-290.56C295.64,-308.57 326.82,-333.84 357,-351.5 362.29,-354.6 367.91,-357.56 373.63,-360.36"/>
<polygon fill="#63b8ff" stroke="#63b8ff" points="277.02,-287.78 267.19,-283.81 272.4,-293.04 277.02,-287.78"/>
</a>
</g>
</g>
<!-- Node14 -->
<g id="Node000014" class="node">
<title>Node14</title>
<g id="a_Node000014"><a xlink:href="classapps_1_1echo_1_1model_1_1EchoSocketContext.html" target="_top" xlink:title=" ">
<polygon fill="white" stroke="#666666" points="493.5,-224.5 389.5,-224.5 389.5,-194.5 493.5,-194.5 493.5,-224.5"/>
<text text-anchor="start" x="397.5" y="-212.5" font-family="Helvetica,sans-Serif" font-size="10.00">apps::echo::model::</text>
<text text-anchor="middle" x="441.5" y="-201.5" font-family="Helvetica,sans-Serif" font-size="10.00">EchoSocketContext</text>
</a>
</g>
</g>
<!-- Node2&#45;&gt;Node14 -->
<g id="edge482_Node000002_Node000014" class="edge">
<title>Node2&#45;&gt;Node14</title>
<g id="a_edge482_Node000002_Node000014"><a xlink:title=" ">
<path fill="none" stroke="#63b8ff" d="M304.58,-250.29C321.34,-244.77 339.9,-238.77 357,-233.5 367.38,-230.3 378.53,-227.01 389.19,-223.92"/>
<polygon fill="#63b8ff" stroke="#63b8ff" points="303.34,-247.02 294.94,-253.48 305.54,-253.66 303.34,-247.02"/>
</a>
</g>
</g>
<!-- Node15 -->
<g id="Node000015" class="node">
<title>Node15</title>
<g id="a_Node000015"><a xlink:href="classapps_1_1http_1_1SimpleSocketProtocol.html" target="_top" xlink:title=" ">
<polygon fill="white" stroke="#666666" points="505,-176.5 378,-176.5 378,-146.5 505,-146.5 505,-176.5"/>
<text text-anchor="start" x="386" y="-164.5" font-family="Helvetica,sans-Serif" font-size="10.00">apps::http::SimpleSocket</text>
<text text-anchor="middle" x="441.5" y="-153.5" font-family="Helvetica,sans-Serif" font-size="10.00">Protocol</text>
</a>
</g>
</g>
<!-- Node2&#45;&gt;Node15 -->
<g id="edge483_Node000002_Node000015" class="edge">
<title>Node2&#45;&gt;Node15</title>
<g id="a_edge483_Node000002_Node000015"><a xlink:title=" ">
<path fill="none" stroke="#63b8ff" d="M273.29,-246.48C293.72,-227.84 325.28,-201.65 357,-185.5 363.59,-182.15 370.71,-179.2 377.93,-176.62"/>
<polygon fill="#63b8ff" stroke="#63b8ff" points="270.72,-244.1 265.77,-253.46 275.48,-249.23 270.72,-244.1"/>
</a>
</g>
</g>
<!-- Node16 -->
<g id="Node000016" class="node">
<title>Node16</title>
<g id="a_Node000016"><a xlink:href="classiot_1_1mqtt__fast_1_1SocketContext.html" target="_top" xlink:title=" ">
<polygon fill="white" stroke="#666666" points="514.5,-128 368.5,-128 368.5,-109 514.5,-109 514.5,-128"/>
<text text-anchor="middle" x="441.5" y="-116" font-family="Helvetica,sans-Serif" font-size="10.00">iot::mqtt_fast::SocketContext</text>
</a>
</g>
</g>
<!-- Node2&#45;&gt;Node16 -->
<g id="edge485_Node000002_Node000016" class="edge">
<title>Node2&#45;&gt;Node16</title>
<g id="a_edge485_Node000002_Node000016"><a xlink:title=" ">
<path fill="none" stroke="#63b8ff" d="M263.44,-244.22C280.69,-214.3 314.09,-164.16 357,-137.5 363.19,-133.66 370.07,-130.59 377.14,-128.14"/>
<polygon fill="#63b8ff" stroke="#63b8ff" points="260.26,-242.73 258.41,-253.17 266.36,-246.16 260.26,-242.73"/>
</a>
</g>
</g>
<!-- Node11 -->
<g id="Node000011" class="node">
<title>Node11</title>
<g id="a_Node000011"><a xlink:href="classweb_1_1http_1_1SocketContextUpgrade.html" target="_top" xlink:title=" ">
<polygon fill="white" stroke="#666666" points="526,-342.5 357,-342.5 357,-312.5 526,-312.5 526,-342.5"/>
<text text-anchor="start" x="365" y="-330.5" font-family="Helvetica,sans-Serif" font-size="10.00">web::http::SocketContext</text>
<text text-anchor="middle" x="441.5" y="-319.5" font-family="Helvetica,sans-Serif" font-size="10.00">Upgrade&lt; RequestT, ResponseT &gt;</text>
</a>
</g>
</g>
<!-- Node2&#45;&gt;Node11 -->
<g id="edge486_Node000002_Node000011" class="edge">
<title>Node2&#45;&gt;Node11</title>
<g id="a_edge486_Node000002_Node000011"><a xlink:title=" ">
<path fill="none" stroke="#63b8ff" d="M304.58,-286.71C321.34,-292.23 339.9,-298.23 357,-303.5 366.66,-306.47 376.98,-309.54 386.96,-312.43"/>
<polygon fill="#63b8ff" stroke="#63b8ff" points="305.54,-283.34 294.94,-283.52 303.34,-289.98 305.54,-283.34"/>
</a>
</g>
</g>
<!-- Node17 -->
<g id="Node000017" class="node">
<title>Node17</title>
<g id="a_Node000017"><a xlink:href="classweb_1_1http_1_1client_1_1SocketContext.html" target="_top" xlink:title=" ">
<polygon fill="white" stroke="#666666" points="487.5,-90.5 395.5,-90.5 395.5,-60.5 487.5,-60.5 487.5,-90.5"/>
<text text-anchor="start" x="403.5" y="-78.5" font-family="Helvetica,sans-Serif" font-size="10.00">web::http::client::</text>
<text text-anchor="middle" x="441.5" y="-67.5" font-family="Helvetica,sans-Serif" font-size="10.00">SocketContext</text>
</a>
</g>
</g>
<!-- Node2&#45;&gt;Node17 -->
<g id="edge488_Node000002_Node000017" class="edge">
<title>Node2&#45;&gt;Node17</title>
<g id="a_edge488_Node000002_Node000017"><a xlink:title=" ">
<path fill="none" stroke="#63b8ff" d="M259.43,-243.74C274.03,-206.75 306.56,-137.38 357,-99.5 368.1,-91.17 382,-85.72 395.26,-82.17"/>
<polygon fill="#63b8ff" stroke="#63b8ff" points="256.09,-242.67 255.78,-253.26 262.62,-245.17 256.09,-242.67"/>
</a>
</g>
</g>
<!-- Node18 -->
<g id="Node000018" class="node">
<title>Node18</title>
<g id="a_Node000018"><a xlink:href="classweb_1_1http_1_1server_1_1SocketContext.html" target="_top" xlink:title=" ">
<polygon fill="white" stroke="#666666" points="489.5,-460.5 393.5,-460.5 393.5,-430.5 489.5,-430.5 489.5,-460.5"/>
<text text-anchor="start" x="401.5" y="-448.5" font-family="Helvetica,sans-Serif" font-size="10.00">web::http::server::</text>
<text text-anchor="middle" x="441.5" y="-437.5" font-family="Helvetica,sans-Serif" font-size="10.00">SocketContext</text>
</a>
</g>
</g>
<!-- Node2&#45;&gt;Node18 -->
<g id="edge489_Node000002_Node000018" class="edge">
<title>Node2&#45;&gt;Node18</title>
<g id="a_edge489_Node000002_Node000018"><a xlink:title=" ">
<path fill="none" stroke="#63b8ff" d="M260.99,-292.89C276.82,-326.83 310.05,-387.89 357,-421.5 367.67,-429.14 380.73,-434.36 393.33,-437.92"/>
<polygon fill="#63b8ff" stroke="#63b8ff" points="264.13,-291.35 256.81,-283.69 257.75,-294.24 264.13,-291.35"/>
</a>
</g>
</g>
<!-- Node3&#45;&gt;Node4 -->
<g id="edge479_Node000003_Node000004" class="edge">
<title>Node3&#45;&gt;Node4</title>
<g id="a_edge479_Node000003_Node000004"><a xlink:title=" ">
<path fill="none" stroke="#63b8ff" d="M518.35,-237.74C520.96,-236.36 523.51,-234.94 526,-233.5 558.93,-214.41 593.05,-187.43 616.45,-167.62"/>
<polygon fill="#63b8ff" stroke="#63b8ff" points="516.67,-234.67 509.35,-242.32 519.85,-240.91 516.67,-234.67"/>
</a>
</g>
</g>
<!-- Node9&#45;&gt;Node7 -->
<g id="edge481_Node000009_Node000007" class="edge">
<title>Node9&#45;&gt;Node7</title>
<g id="a_edge481_Node000009_Node000007"><a xlink:title=" ">
<path fill="none" stroke="#63b8ff" d="M521.38,-375.26C536.41,-373.12 552.13,-370.88 567.16,-368.74"/>
<polygon fill="#63b8ff" stroke="#63b8ff" points="520.52,-371.85 511.11,-376.72 521.51,-378.78 520.52,-371.85"/>
</a>
</g>
</g>
<!-- Node11&#45;&gt;Node10 -->
<g id="edge487_Node000011_Node000010" class="edge">
<title>Node11&#45;&gt;Node10</title>
<g id="a_edge487_Node000011_Node000010"><a xlink:title=" ">
<path fill="none" stroke="#63b8ff" d="M505.95,-309.56C512.73,-307.56 519.51,-305.51 526,-303.5 545.61,-297.42 566.9,-290.44 586.03,-284.04"/>
<polygon fill="#63b8ff" stroke="#63b8ff" points="504.66,-306.29 496.05,-312.47 506.63,-313.01 504.66,-306.29"/>
</a>
</g>
</g>
<!-- Node13 -->
<g id="Node000013" class="node">
<title>Node13</title>
<g id="a_Node000013"><a xlink:href="classweb_1_1websocket_1_1Transmitter.html" target="_top" xlink:title=" ">
<polygon fill="white" stroke="#666666" points="321,-19 178,-19 178,0 321,0 321,-19"/>
<text text-anchor="middle" x="249.5" y="-7" font-family="Helvetica,sans-Serif" font-size="10.00">web::websocket::Transmitter</text>
</a>
</g>
</g>
<!-- Node13&#45;&gt;Node6 -->
<g id="edge490_Node000013_Node000006" class="edge">
<title>Node13&#45;&gt;Node6</title>
<g id="a_edge490_Node000013_Node000006"><a xlink:title=" ">
<path fill="none" stroke="darkgreen" d="M331.33,-17.16C343.44,-18.3 355.86,-19.48 367.79,-20.61"/>
<polygon fill="darkgreen" stroke="darkgreen" points="331.53,-13.66 321.25,-16.2 330.87,-20.63 331.53,-13.66"/>
</a>
</g>
</g>
<!-- Node21 -->
<g id="Node000021" class="node">
<title>Node21</title>
<g id="a_Node000021"><a xlink:title=" ">
<polygon fill="#e0e0e0" stroke="#999999" points="306,-541 193,-541 193,-522 306,-522 306,-541"/>
<text text-anchor="middle" x="249.5" y="-529" font-family="Helvetica,sans-Serif" font-size="10.00">WSSubProtocolRoleT</text>
</a>
</g>
</g>
<!-- Node21&#45;&gt;Node20 -->
<g id="edge491_Node000021_Node000020" class="edge">
<title>Node21&#45;&gt;Node20</title>
<g id="a_edge491_Node000021_Node000020"><a xlink:title=" ">
<path fill="none" stroke="#63b8ff" d="M316.39,-531.5C335.61,-531.5 356.59,-531.5 375.74,-531.5"/>
<polygon fill="#63b8ff" stroke="#63b8ff" points="316.22,-528 306.22,-531.5 316.22,-535 316.22,-528"/>
</a>
</g>
</g>
</g>
</svg>
