<?xml version="1.0" encoding="UTF-8" standalone="no"?>
<!DOCTYPE svg PUBLIC "-//W3C//DTD SVG 1.1//EN"
 "http://www.w3.org/Graphics/SVG/1.1/DTD/svg11.dtd">
<!-- Generated by graphviz version 2.43.0 (0)
 -->
<!-- Title: net/l2/stream/legacy/config/ConfigSocketServer.h Pages: 1 -->
<svg width="1009pt" height="357pt"
 viewBox="0.00 0.00 1009.00 357.00" xmlns="http://www.w3.org/2000/svg" xmlns:xlink="http://www.w3.org/1999/xlink">
<g id="graph0" class="graph" transform="scale(1 1) rotate(0) translate(4 353)">
<title>net/l2/stream/legacy/config/ConfigSocketServer.h</title>
<!-- Node1 -->
<g id="Node000001" class="node">
<title>Node1</title>
<g id="a_Node000001"><a xlink:title=" ">
<polygon fill="#999999" stroke="#666666" points="732.5,-349 575.5,-349 575.5,-319 732.5,-319 732.5,-349"/>
<text text-anchor="start" x="583.5" y="-337" font-family="Helvetica,sans-Serif" font-size="10.00">net/l2/stream/legacy</text>
<text text-anchor="middle" x="654" y="-326" font-family="Helvetica,sans-Serif" font-size="10.00">/config/ConfigSocketServer.h</text>
</a>
</g>
</g>
<!-- Node2 -->
<g id="Node000002" class="node">
<title>Node2</title>
<g id="a_Node000002"><a xlink:href="l2_2stream_2config_2_config_socket_server_8h.html" target="_top" xlink:title=" ">
<polygon fill="white" stroke="#666666" points="575,-283 451,-283 451,-253 575,-253 575,-283"/>
<text text-anchor="start" x="459" y="-271" font-family="Helvetica,sans-Serif" font-size="10.00">net/l2/stream/config</text>
<text text-anchor="middle" x="513" y="-260" font-family="Helvetica,sans-Serif" font-size="10.00">/ConfigSocketServer.h</text>
</a>
</g>
</g>
<!-- Node1&#45;&gt;Node2 -->
<g id="edge1_Node000001_Node000002" class="edge">
<title>Node1&#45;&gt;Node2</title>
<g id="a_edge1_Node000001_Node000002"><a xlink:title=" ">
<path fill="none" stroke="#63b8ff" d="M623.06,-318.95C602.49,-309.62 575.27,-297.27 553.05,-287.18"/>
<polygon fill="#63b8ff" stroke="#63b8ff" points="554.42,-283.96 543.87,-283.01 551.53,-290.33 554.42,-283.96"/>
</a>
</g>
</g>
<!-- Node16 -->
<g id="Node000016" class="node">
<title>Node16</title>
<g id="a_Node000016"><a xlink:href="stream_2config_2legacy_2_config_socket_server_8h.html" target="_top" xlink:title=" ">
<polygon fill="white" stroke="#666666" points="892,-283 754,-283 754,-253 892,-253 892,-283"/>
<text text-anchor="start" x="762" y="-271" font-family="Helvetica,sans-Serif" font-size="10.00">net/stream/config/legacy</text>
<text text-anchor="middle" x="823" y="-260" font-family="Helvetica,sans-Serif" font-size="10.00">/ConfigSocketServer.h</text>
</a>
</g>
</g>
<!-- Node1&#45;&gt;Node16 -->
<g id="edge20_Node000001_Node000016" class="edge">
<title>Node1&#45;&gt;Node16</title>
<g id="a_edge20_Node000001_Node000016"><a xlink:title=" ">
<path fill="none" stroke="#63b8ff" d="M691.09,-318.95C716.18,-309.45 749.53,-296.82 776.41,-286.64"/>
<polygon fill="#63b8ff" stroke="#63b8ff" points="777.89,-289.83 786,-283.01 775.41,-283.28 777.89,-289.83"/>
</a>
</g>
</g>
<!-- Node3 -->
<g id="Node000003" class="node">
<title>Node3</title>
<g id="a_Node000003"><a xlink:href="l2_2config_2_config_address_8h.html" target="_top" xlink:title=" ">
<polygon fill="white" stroke="#666666" points="412,-211.5 252,-211.5 252,-192.5 412,-192.5 412,-211.5"/>
<text text-anchor="middle" x="332" y="-199.5" font-family="Helvetica,sans-Serif" font-size="10.00">net/l2/config/ConfigAddress.h</text>
</a>
</g>
</g>
<!-- Node2&#45;&gt;Node3 -->
<g id="edge2_Node000002_Node000003" class="edge">
<title>Node2&#45;&gt;Node3</title>
<g id="a_edge2_Node000002_Node000003"><a xlink:title=" ">
<path fill="none" stroke="#63b8ff" d="M473.28,-252.95C441.12,-241.58 396.3,-225.74 365.83,-214.96"/>
<polygon fill="#63b8ff" stroke="#63b8ff" points="366.68,-211.55 356.09,-211.52 364.35,-218.15 366.68,-211.55"/>
</a>
</g>
</g>
<!-- Node10 -->
<g id="Node000010" class="node">
<title>Node10</title>
<g id="a_Node000010"><a xlink:href="stream_2config_2_config_socket_server_8h.html" target="_top" xlink:title=" ">
<polygon fill="white" stroke="#666666" points="581.5,-217 444.5,-217 444.5,-187 581.5,-187 581.5,-217"/>
<text text-anchor="start" x="452.5" y="-205" font-family="Helvetica,sans-Serif" font-size="10.00">net/stream/config/Config</text>
<text text-anchor="middle" x="513" y="-194" font-family="Helvetica,sans-Serif" font-size="10.00">SocketServer.h</text>
</a>
</g>
</g>
<!-- Node2&#45;&gt;Node10 -->
<g id="edge10_Node000002_Node000010" class="edge">
<title>Node2&#45;&gt;Node10</title>
<g id="a_edge10_Node000002_Node000010"><a xlink:title=" ">
<path fill="none" stroke="#63b8ff" d="M513,-252.8C513,-245.34 513,-235.99 513,-227.41"/>
<polygon fill="#63b8ff" stroke="#63b8ff" points="516.5,-227.16 513,-217.16 509.5,-227.16 516.5,-227.16"/>
</a>
</g>
</g>
<!-- Node4 -->
<g id="Node000004" class="node">
<title>Node4</title>
<g id="a_Node000004"><a xlink:href="_config_address_local_8h.html" target="_top" xlink:title=" ">
<polygon fill="white" stroke="#666666" points="442.5,-151 303.5,-151 303.5,-121 442.5,-121 442.5,-151"/>
<text text-anchor="start" x="311.5" y="-139" font-family="Helvetica,sans-Serif" font-size="10.00">net/config/ConfigAddress</text>
<text text-anchor="middle" x="373" y="-128" font-family="Helvetica,sans-Serif" font-size="10.00">Local.h</text>
</a>
</g>
</g>
<!-- Node3&#45;&gt;Node4 -->
<g id="edge3_Node000003_Node000004" class="edge">
<title>Node3&#45;&gt;Node4</title>
<g id="a_edge3_Node000003_Node000004"><a xlink:title=" ">
<path fill="none" stroke="#63b8ff" d="M337.53,-192.37C342.84,-184.08 351.1,-171.18 358.32,-159.92"/>
<polygon fill="#63b8ff" stroke="#63b8ff" points="361.35,-161.67 363.8,-151.36 355.46,-157.89 361.35,-161.67"/>
</a>
</g>
</g>
<!-- Node7 -->
<g id="Node000007" class="node">
<title>Node7</title>
<g id="a_Node000007"><a xlink:href="_config_address_remote_8h.html" target="_top" xlink:title=" ">
<polygon fill="white" stroke="#666666" points="285.5,-151 146.5,-151 146.5,-121 285.5,-121 285.5,-151"/>
<text text-anchor="start" x="154.5" y="-139" font-family="Helvetica,sans-Serif" font-size="10.00">net/config/ConfigAddress</text>
<text text-anchor="middle" x="216" y="-128" font-family="Helvetica,sans-Serif" font-size="10.00">Remote.h</text>
</a>
</g>
</g>
<!-- Node3&#45;&gt;Node7 -->
<g id="edge6_Node000003_Node000007" class="edge">
<title>Node3&#45;&gt;Node7</title>
<g id="a_edge6_Node000003_Node000007"><a xlink:title=" ">
<path fill="none" stroke="#63b8ff" d="M316.36,-192.37C299.58,-183.11 272.41,-168.12 250.57,-156.07"/>
<polygon fill="#63b8ff" stroke="#63b8ff" points="252.03,-152.88 241.58,-151.12 248.65,-159.01 252.03,-152.88"/>
</a>
</g>
</g>
<!-- Node8 -->
<g id="Node000008" class="node">
<title>Node8</title>
<g id="a_Node000008"><a xlink:href="net_2l2_2_socket_address_8h.html" target="_top" xlink:title=" ">
<polygon fill="white" stroke="#666666" points="128,-145.5 0,-145.5 0,-126.5 128,-126.5 128,-145.5"/>
<text text-anchor="middle" x="64" y="-133.5" font-family="Helvetica,sans-Serif" font-size="10.00">net/l2/SocketAddress.h</text>
</a>
</g>
</g>
<!-- Node3&#45;&gt;Node8 -->
<g id="edge8_Node000003_Node000008" class="edge">
<title>Node3&#45;&gt;Node8</title>
<g id="a_edge8_Node000003_Node000008"><a xlink:title=" ">
<path fill="none" stroke="#63b8ff" d="M296.13,-192.44C247.9,-180.92 162.1,-160.43 109.41,-147.84"/>
<polygon fill="#63b8ff" stroke="#63b8ff" points="110.19,-144.43 99.65,-145.51 108.57,-151.24 110.19,-144.43"/>
</a>
</g>
</g>
<!-- Node5 -->
<g id="Node000005" class="node">
<title>Node5</title>
<g id="a_Node000005"><a xlink:href="config_2_config_address_8h.html" target="_top" xlink:title=" ">
<polygon fill="white" stroke="#666666" points="364,-79.5 216,-79.5 216,-60.5 364,-60.5 364,-79.5"/>
<text text-anchor="middle" x="290" y="-67.5" font-family="Helvetica,sans-Serif" font-size="10.00">net/config/ConfigAddress.h</text>
</a>
</g>
</g>
<!-- Node4&#45;&gt;Node5 -->
<g id="edge4_Node000004_Node000005" class="edge">
<title>Node4&#45;&gt;Node5</title>
<g id="a_edge4_Node000004_Node000005"><a xlink:title=" ">
<path fill="none" stroke="#63b8ff" d="M354.58,-120.8C341.26,-110.53 323.29,-96.67 309.69,-86.18"/>
<polygon fill="#63b8ff" stroke="#63b8ff" points="311.53,-83.18 301.47,-79.84 307.25,-88.72 311.53,-83.18"/>
</a>
</g>
</g>
<!-- Node6 -->
<g id="Node000006" class="node">
<title>Node6</title>
<g id="a_Node000006"><a xlink:href="_config_section_8h.html" target="_top" xlink:title=" ">
<polygon fill="white" stroke="#666666" points="646.5,-19 501.5,-19 501.5,0 646.5,0 646.5,-19"/>
<text text-anchor="middle" x="574" y="-7" font-family="Helvetica,sans-Serif" font-size="10.00">net/config/ConfigSection.h</text>
</a>
</g>
</g>
<!-- Node5&#45;&gt;Node6 -->
<g id="edge5_Node000005_Node000006" class="edge">
<title>Node5&#45;&gt;Node6</title>
<g id="a_edge5_Node000005_Node000006"><a xlink:title=" ">
<path fill="none" stroke="#63b8ff" d="M331.3,-60.49C381.99,-50.05 467.95,-32.35 522.79,-21.05"/>
<polygon fill="#63b8ff" stroke="#63b8ff" points="523.57,-24.46 532.65,-19.02 522.15,-17.61 523.57,-24.46"/>
</a>
</g>
</g>
<!-- Node7&#45;&gt;Node5 -->
<g id="edge7_Node000007_Node000005" class="edge">
<title>Node7&#45;&gt;Node5</title>
<g id="a_edge7_Node000007_Node000005"><a xlink:title=" ">
<path fill="none" stroke="#63b8ff" d="M232.42,-120.8C244.19,-110.62 260.02,-96.93 272.1,-86.48"/>
<polygon fill="#63b8ff" stroke="#63b8ff" points="274.5,-89.03 279.77,-79.84 269.92,-83.74 274.5,-89.03"/>
</a>
</g>
</g>
<!-- Node9 -->
<g id="Node000009" class="node">
<title>Node9</title>
<g id="a_Node000009"><a xlink:href="net_2_socket_address_8h.html" target="_top" xlink:title=" ">
<polygon fill="white" stroke="#666666" points="122,-79.5 6,-79.5 6,-60.5 122,-60.5 122,-79.5"/>
<text text-anchor="middle" x="64" y="-67.5" font-family="Helvetica,sans-Serif" font-size="10.00">net/SocketAddress.h</text>
</a>
</g>
</g>
<!-- Node8&#45;&gt;Node9 -->
<g id="edge9_Node000008_Node000009" class="edge">
<title>Node8&#45;&gt;Node9</title>
<g id="a_edge9_Node000008_Node000009"><a xlink:title=" ">
<path fill="none" stroke="#63b8ff" d="M64,-126.37C64,-117.16 64,-102.29 64,-90.27"/>
<polygon fill="#63b8ff" stroke="#63b8ff" points="67.5,-89.91 64,-79.91 60.5,-89.91 67.5,-89.91"/>
</a>
</g>
</g>
<!-- Node10&#45;&gt;Node4 -->
<g id="edge11_Node000010_Node000004" class="edge">
<title>Node10&#45;&gt;Node4</title>
<g id="a_edge11_Node000010_Node000004"><a xlink:title=" ">
<path fill="none" stroke="#63b8ff" d="M482.28,-186.95C461.85,-177.62 434.83,-165.27 412.77,-155.18"/>
<polygon fill="#63b8ff" stroke="#63b8ff" points="414.2,-151.99 403.65,-151.01 411.29,-158.35 414.2,-151.99"/>
</a>
</g>
</g>
<!-- Node11 -->
<g id="Node000011" class="node">
<title>Node11</title>
<g id="a_Node000011"><a xlink:href="_config_connection_8h.html" target="_top" xlink:title=" ">
<polygon fill="white" stroke="#666666" points="546,-79.5 382,-79.5 382,-60.5 546,-60.5 546,-79.5"/>
<text text-anchor="middle" x="464" y="-67.5" font-family="Helvetica,sans-Serif" font-size="10.00">net/config/ConfigConnection.h</text>
</a>
</g>
</g>
<!-- Node10&#45;&gt;Node11 -->
<g id="edge12_Node000010_Node000011" class="edge">
<title>Node10&#45;&gt;Node11</title>
<g id="a_edge12_Node000010_Node000011"><a xlink:title=" ">
<path fill="none" stroke="#63b8ff" d="M505.91,-186.75C501.11,-176.85 494.8,-163.28 490,-151 481.88,-130.22 474.19,-105.76 469.31,-89.4"/>
<polygon fill="#63b8ff" stroke="#63b8ff" points="472.59,-88.13 466.41,-79.52 465.87,-90.1 472.59,-88.13"/>
</a>
</g>
</g>
<!-- Node12 -->
<g id="Node000012" class="node">
<title>Node12</title>
<g id="a_Node000012"><a xlink:href="_config_listen_8h.html" target="_top" xlink:title=" ">
<polygon fill="white" stroke="#666666" points="637,-145.5 499,-145.5 499,-126.5 637,-126.5 637,-145.5"/>
<text text-anchor="middle" x="568" y="-133.5" font-family="Helvetica,sans-Serif" font-size="10.00">net/config/ConfigListen.h</text>
</a>
</g>
</g>
<!-- Node10&#45;&gt;Node12 -->
<g id="edge14_Node000010_Node000012" class="edge">
<title>Node10&#45;&gt;Node12</title>
<g id="a_edge14_Node000010_Node000012"><a xlink:title=" ">
<path fill="none" stroke="#63b8ff" d="M525.21,-186.8C533.61,-177.01 544.81,-163.98 553.65,-153.7"/>
<polygon fill="#63b8ff" stroke="#63b8ff" points="556.54,-155.71 560.4,-145.84 551.23,-151.15 556.54,-155.71"/>
</a>
</g>
</g>
<!-- Node13 -->
<g id="Node000013" class="node">
<title>Node13</title>
<g id="a_Node000013"><a xlink:href="_config_physical_socket_server_8h.html" target="_top" xlink:title=" ">
<polygon fill="white" stroke="#666666" points="795,-151 655,-151 655,-121 795,-121 795,-151"/>
<text text-anchor="start" x="663" y="-139" font-family="Helvetica,sans-Serif" font-size="10.00">net/config/ConfigPhysical</text>
<text text-anchor="middle" x="725" y="-128" font-family="Helvetica,sans-Serif" font-size="10.00">SocketServer.h</text>
</a>
</g>
</g>
<!-- Node10&#45;&gt;Node13 -->
<g id="edge16_Node000010_Node000013" class="edge">
<title>Node10&#45;&gt;Node13</title>
<g id="a_edge16_Node000010_Node000013"><a xlink:title=" ">
<path fill="none" stroke="#63b8ff" d="M559.52,-186.95C591.7,-177.24 634.67,-164.27 668.77,-153.98"/>
<polygon fill="#63b8ff" stroke="#63b8ff" points="670.02,-157.25 678.58,-151.01 668,-150.55 670.02,-157.25"/>
</a>
</g>
</g>
<!-- Node11&#45;&gt;Node6 -->
<g id="edge13_Node000011_Node000006" class="edge">
<title>Node11&#45;&gt;Node6</title>
<g id="a_edge13_Node000011_Node000006"><a xlink:title=" ">
<path fill="none" stroke="#63b8ff" d="M480.23,-60.37C498.27,-50.78 527.62,-35.17 548.68,-23.97"/>
<polygon fill="#63b8ff" stroke="#63b8ff" points="550.52,-26.95 557.7,-19.17 547.23,-20.77 550.52,-26.95"/>
</a>
</g>
</g>
<!-- Node12&#45;&gt;Node6 -->
<g id="edge15_Node000012_Node000006" class="edge">
<title>Node12&#45;&gt;Node6</title>
<g id="a_edge15_Node000012_Node000006"><a xlink:title=" ">
<path fill="none" stroke="#63b8ff" d="M568.41,-126.44C569.37,-106.54 571.77,-56.76 573.09,-29.35"/>
<polygon fill="#63b8ff" stroke="#63b8ff" points="576.6,-29.27 573.58,-19.12 569.61,-28.94 576.6,-29.27"/>
</a>
</g>
</g>
<!-- Node14 -->
<g id="Node000014" class="node">
<title>Node14</title>
<g id="a_Node000014"><a xlink:href="_config_physical_socket_8h.html" target="_top" xlink:title=" ">
<polygon fill="white" stroke="#666666" points="902,-85 762,-85 762,-55 902,-55 902,-85"/>
<text text-anchor="start" x="770" y="-73" font-family="Helvetica,sans-Serif" font-size="10.00">net/config/ConfigPhysical</text>
<text text-anchor="middle" x="832" y="-62" font-family="Helvetica,sans-Serif" font-size="10.00">Socket.h</text>
</a>
</g>
</g>
<!-- Node13&#45;&gt;Node14 -->
<g id="edge17_Node000013_Node000014" class="edge">
<title>Node13&#45;&gt;Node14</title>
<g id="a_edge17_Node000013_Node000014"><a xlink:title=" ">
<path fill="none" stroke="#63b8ff" d="M748.48,-120.95C763.53,-111.95 783.27,-100.14 799.78,-90.27"/>
<polygon fill="#63b8ff" stroke="#63b8ff" points="801.79,-93.15 808.57,-85.01 798.19,-87.14 801.79,-93.15"/>
</a>
</g>
</g>
<!-- Node14&#45;&gt;Node6 -->
<g id="edge19_Node000014_Node000006" class="edge">
<title>Node14&#45;&gt;Node6</title>
<g id="a_edge19_Node000014_Node000006"><a xlink:title=" ">
<path fill="none" stroke="#63b8ff" d="M770.2,-54.99C724.62,-44.65 663.5,-30.79 621.66,-21.31"/>
<polygon fill="#63b8ff" stroke="#63b8ff" points="622.25,-17.85 611.72,-19.05 620.7,-24.68 622.25,-17.85"/>
</a>
</g>
</g>
<!-- Node15 -->
<g id="Node000015" class="node">
<title>Node15</title>
<g id="a_Node000015"><a xlink:href="_physical_socket_option_8h.html" target="_top" xlink:title=" ">
<polygon fill="white" stroke="#666666" points="906.5,-19 757.5,-19 757.5,0 906.5,0 906.5,-19"/>
<text text-anchor="middle" x="832" y="-7" font-family="Helvetica,sans-Serif" font-size="10.00">net/PhysicalSocketOption.h</text>
</a>
</g>
</g>
<!-- Node14&#45;&gt;Node15 -->
<g id="edge18_Node000014_Node000015" class="edge">
<title>Node14&#45;&gt;Node15</title>
<g id="a_edge18_Node000014_Node000015"><a xlink:title=" ">
<path fill="none" stroke="#63b8ff" d="M832,-54.84C832,-47.21 832,-37.7 832,-29.45"/>
<polygon fill="#63b8ff" stroke="#63b8ff" points="835.5,-29.27 832,-19.27 828.5,-29.27 835.5,-29.27"/>
</a>
</g>
</g>
<!-- Node17 -->
<g id="Node000017" class="node">
<title>Node17</title>
<g id="a_Node000017"><a xlink:href="_config_instance_8h.html" target="_top" xlink:title=" ">
<polygon fill="white" stroke="#666666" points="1001,-211.5 851,-211.5 851,-192.5 1001,-192.5 1001,-211.5"/>
<text text-anchor="middle" x="926" y="-199.5" font-family="Helvetica,sans-Serif" font-size="10.00">net/config/ConfigInstance.h</text>
</a>
</g>
</g>
<!-- Node16&#45;&gt;Node17 -->
<g id="edge21_Node000016_Node000017" class="edge">
<title>Node16&#45;&gt;Node17</title>
<g id="a_edge21_Node000016_Node000017"><a xlink:title=" ">
<path fill="none" stroke="#63b8ff" d="M845.6,-252.95C862.79,-242.27 886.33,-227.65 903.49,-216.98"/>
<polygon fill="#63b8ff" stroke="#63b8ff" points="905.65,-219.77 912.29,-211.52 901.95,-213.82 905.65,-219.77"/>
</a>
</g>
</g>
<!-- Node18 -->
<g id="Node000018" class="node">
<title>Node18</title>
<g id="a_Node000018"><a xlink:href="_config_legacy_8h.html" target="_top" xlink:title=" ">
<polygon fill="white" stroke="#666666" points="744,-79.5 602,-79.5 602,-60.5 744,-60.5 744,-79.5"/>
<text text-anchor="middle" x="673" y="-67.5" font-family="Helvetica,sans-Serif" font-size="10.00">net/config/ConfigLegacy.h</text>
</a>
</g>
</g>
<!-- Node16&#45;&gt;Node18 -->
<g id="edge22_Node000016_Node000018" class="edge">
<title>Node16&#45;&gt;Node18</title>
<g id="a_edge22_Node000016_Node000018"><a xlink:title=" ">
<path fill="none" stroke="#63b8ff" d="M825.54,-252.75C829.73,-224.36 834.87,-160.14 804,-121 788.63,-101.52 764.73,-89.62 741.53,-82.36"/>
<polygon fill="#63b8ff" stroke="#63b8ff" points="742.24,-78.92 731.66,-79.52 740.3,-85.65 742.24,-78.92"/>
</a>
</g>
</g>
<!-- Node18&#45;&gt;Node6 -->
<g id="edge23_Node000018_Node000006" class="edge">
<title>Node18&#45;&gt;Node6</title>
<g id="a_edge23_Node000018_Node000006"><a xlink:title=" ">
<path fill="none" stroke="#63b8ff" d="M658.39,-60.37C642.31,-50.86 616.22,-35.45 597.3,-24.27"/>
<polygon fill="#63b8ff" stroke="#63b8ff" points="599.06,-21.24 588.67,-19.17 595.5,-27.27 599.06,-21.24"/>
</a>
</g>
</g>
</g>
</svg>
