<?xml version="1.0" encoding="UTF-8" standalone="no"?>
<!DOCTYPE svg PUBLIC "-//W3C//DTD SVG 1.1//EN"
 "http://www.w3.org/Graphics/SVG/1.1/DTD/svg11.dtd">
<!-- Generated by graphviz version 14.1.2 (0)
 -->
<!-- Title: net/l2/stream/tls/config/ConfigSocketServer.cpp Pages: 1 -->
<!--zoomable 515 -->

<svg id="main" version="1.1" xmlns="http://www.w3.org/2000/svg" xmlns:xlink="http://www.w3.org/1999/xlink" xml:space="preserve" onload="init(evt)">

<style type="text/css"><![CDATA[
.node, .edge {opacity: 0.7;}
.node.selected, .edge.selected {opacity: 1;}
.edge:hover path { stroke: red; }
.edge:hover polygon { stroke: red; fill: red; }
]]></style>

<defs>
  <circle id="rim" cx="0" cy="0" r="7"/>
  <circle id="rim2" cx="0" cy="0" r="3.5"/>
  <g id="zoomPlus">
    <use xlink:href="#rim" fill="#404040"><set attributeName="fill" to="#808080" begin="zoomplus.mouseover" end="zoomplus.mouseout"/></use>
    <path d="M-4,0h8M0,-4v8" fill="none" stroke="white" stroke-width="1.5" pointer-events="none"/>
  </g>
  <g id="zoomMin">
    <use xlink:href="#rim" fill="#404040"><set attributeName="fill" to="#808080" begin="zoomminus.mouseover" end="zoomminus.mouseout"/></use>
    <path d="M-4,0h8" fill="none" stroke="white" stroke-width="1.5" pointer-events="none"/>
  </g>
  <g id="arrowUp" transform="translate(30 24)">
    <use xlink:href="#rim"/>
    <path pointer-events="none" fill="none" stroke="white" stroke-width="1.5" d="M0,-3.0v7 M-2.5,-0.5L0,-3.0L2.5,-0.5"/>
  </g>
  <g id="arrowRight" transform="rotate(90) translate(36 -43)">
    <use xlink:href="#rim"/>
    <path pointer-events="none" fill="none" stroke="white" stroke-width="1.5" d="M0,-3.0v7 M-2.5,-0.5L0,-3.0L2.5,-0.5"/>
  </g>
  <g id="arrowDown" transform="rotate(180) translate(-30 -48)">
    <use xlink:href="#rim"/>
    <path pointer-events="none" fill="none" stroke="white" stroke-width="1.5" d="M0,-3.0v7 M-2.5,-0.5L0,-3.0L2.5,-0.5"/>
  </g>
  <g id="arrowLeft" transform="rotate(270) translate(-36 17)">
    <use xlink:href="#rim"/>
    <path pointer-events="none" fill="none" stroke="white" stroke-width="1.5" d="M0,-3.0v7 M-2.5,-0.5L0,-3.0L2.5,-0.5"/>
  </g>
  <g id="resetDef">
    <use xlink:href="#rim2" fill="#404040"><set attributeName="fill" to="#808080" begin="reset.mouseover" end="reset.mouseout"/></use>
  </g>
</defs>
<script type="application/ecmascript">
var viewWidth = 1065;
var viewHeight = 515;
var sectionId = 'dynsection-0';
</script>
<script type="application/ecmascript" xlink:href="svg.min.js"/>
<svg id="graph" class="graph">
<g id="viewport">
<title>net/l2/stream/tls/config/ConfigSocketServer.cpp</title>
<!-- Node1 -->
<g id="Node000001" class="node">
<title>Node1</title>
<g id="a_Node000001"><a xlink:title=" ">
<polygon fill="#999999" stroke="#666666" points="307,-507.25 172.5,-507.25 172.5,-473.75 307,-473.75 307,-507.25"/>
<text xml:space="preserve" text-anchor="start" x="180.5" y="-493.75" font-family="Helvetica,sans-Serif" font-size="10.00">net/l2/stream/tls/config</text>
<text xml:space="preserve" text-anchor="middle" x="239.75" y="-481" font-family="Helvetica,sans-Serif" font-size="10.00">/ConfigSocketServer.cpp</text>
</a>
</g>
</g>
<!-- Node2 -->
<g id="Node000002" class="node">
<title>Node2</title>
<g id="a_Node000002"><a xlink:href="l2_2stream_2tls_2config_2ConfigSocketServer_8h.html" target="_top" xlink:title=" ">
<polygon fill="white" stroke="#666666" points="379.38,-437.75 250.12,-437.75 250.12,-404.25 379.38,-404.25 379.38,-437.75"/>
<text xml:space="preserve" text-anchor="start" x="258.12" y="-424.25" font-family="Helvetica,sans-Serif" font-size="10.00">net/l2/stream/tls/config</text>
<text xml:space="preserve" text-anchor="middle" x="314.75" y="-411.5" font-family="Helvetica,sans-Serif" font-size="10.00">/ConfigSocketServer.h</text>
</a>
</g>
</g>
<!-- Node1&#45;&gt;Node2 -->
<g id="edge1_Node000001_Node000002" class="edge">
<title>Node1&#45;&gt;Node2</title>
<g id="a_edge1_Node000001_Node000002"><a xlink:title=" ">
<path fill="none" stroke="#63b8ff" d="M257.52,-473.5C266.8,-465.16 278.32,-454.79 288.59,-445.55"/>
<polygon fill="#63b8ff" stroke="#63b8ff" points="290.63,-448.42 295.72,-439.13 285.94,-443.22 290.63,-448.42"/>
</a>
</g>
</g>
<!-- Node24 -->
<g id="Node000024" class="node">
<title>Node24</title>
<g id="a_Node000024"><a xlink:href="tls_2ConfigSocketServer_8hpp.html" target="_top" xlink:title=" ">
<polygon fill="white" stroke="#666666" points="232.38,-437.75 97.12,-437.75 97.12,-404.25 232.38,-404.25 232.38,-437.75"/>
<text xml:space="preserve" text-anchor="start" x="105.12" y="-424.25" font-family="Helvetica,sans-Serif" font-size="10.00">net/config/stream/tls</text>
<text xml:space="preserve" text-anchor="middle" x="164.75" y="-411.5" font-family="Helvetica,sans-Serif" font-size="10.00">/ConfigSocketServer.hpp</text>
</a>
</g>
</g>
<!-- Node1&#45;&gt;Node24 -->
<g id="edge31_Node000001_Node000024" class="edge">
<title>Node1&#45;&gt;Node24</title>
<g id="a_edge31_Node000001_Node000024"><a xlink:title=" ">
<path fill="none" stroke="#63b8ff" d="M221.98,-473.5C212.7,-465.16 201.18,-454.79 190.91,-445.55"/>
<polygon fill="#63b8ff" stroke="#63b8ff" points="193.56,-443.22 183.78,-439.13 188.87,-448.42 193.56,-443.22"/>
</a>
</g>
</g>
<!-- Node3 -->
<g id="Node000003" class="node">
<title>Node3</title>
<g id="a_Node000003"><a xlink:href="config_2stream_2tls_2ConfigSocketServer_8h.html" target="_top" xlink:title=" ">
<polygon fill="white" stroke="#666666" points="226.38,-368.25 103.12,-368.25 103.12,-334.75 226.38,-334.75 226.38,-368.25"/>
<text xml:space="preserve" text-anchor="start" x="111.12" y="-354.75" font-family="Helvetica,sans-Serif" font-size="10.00">net/config/stream/tls</text>
<text xml:space="preserve" text-anchor="middle" x="164.75" y="-342" font-family="Helvetica,sans-Serif" font-size="10.00">/ConfigSocketServer.h</text>
</a>
</g>
</g>
<!-- Node2&#45;&gt;Node3 -->
<g id="edge2_Node000002_Node000003" class="edge">
<title>Node2&#45;&gt;Node3</title>
<g id="a_edge2_Node000002_Node000003"><a xlink:title=" ">
<path fill="none" stroke="#63b8ff" d="M278.82,-403.83C258.49,-394.68 232.84,-383.14 211.01,-373.32"/>
<polygon fill="#63b8ff" stroke="#63b8ff" points="212.58,-370.19 202.03,-369.27 209.71,-376.57 212.58,-370.19"/>
</a>
</g>
</g>
<!-- Node9 -->
<g id="Node000009" class="node">
<title>Node9</title>
<g id="a_Node000009"><a xlink:href="l2_2stream_2config_2ConfigSocketServer_8h.html" target="_top" xlink:title=" ">
<polygon fill="white" stroke="#666666" points="500.38,-368.25 377.12,-368.25 377.12,-334.75 500.38,-334.75 500.38,-368.25"/>
<text xml:space="preserve" text-anchor="start" x="385.12" y="-354.75" font-family="Helvetica,sans-Serif" font-size="10.00">net/l2/stream/config</text>
<text xml:space="preserve" text-anchor="middle" x="438.75" y="-342" font-family="Helvetica,sans-Serif" font-size="10.00">/ConfigSocketServer.h</text>
</a>
</g>
</g>
<!-- Node2&#45;&gt;Node9 -->
<g id="edge9_Node000002_Node000009" class="edge">
<title>Node2&#45;&gt;Node9</title>
<g id="a_edge9_Node000002_Node000009"><a xlink:title=" ">
<path fill="none" stroke="#63b8ff" d="M344.45,-403.83C360.86,-394.9 381.46,-383.69 399.22,-374.02"/>
<polygon fill="#63b8ff" stroke="#63b8ff" points="400.85,-377.11 407.96,-369.26 397.51,-370.97 400.85,-377.11"/>
</a>
</g>
</g>
<!-- Node4 -->
<g id="Node000004" class="node">
<title>Node4</title>
<g id="a_Node000004"><a xlink:href="ConfigInstance_8h.html" target="_top" xlink:title=" ">
<polygon fill="white" stroke="#666666" points="149.5,-83.88 0,-83.88 0,-63.12 149.5,-63.12 149.5,-83.88"/>
<text xml:space="preserve" text-anchor="middle" x="74.75" y="-70.38" font-family="Helvetica,sans-Serif" font-size="10.00">net/config/ConfigInstance.h</text>
</a>
</g>
</g>
<!-- Node3&#45;&gt;Node4 -->
<g id="edge3_Node000003_Node000004" class="edge">
<title>Node3&#45;&gt;Node4</title>
<g id="a_edge3_Node000003_Node000004"><a xlink:title=" ">
<path fill="none" stroke="#63b8ff" d="M119.83,-334.27C104.01,-326.15 87.9,-314.6 78.75,-298.75 40.74,-232.9 58.39,-137.04 68.9,-95.26"/>
<polygon fill="#63b8ff" stroke="#63b8ff" points="72.23,-96.36 71.42,-85.8 65.46,-94.56 72.23,-96.36"/>
</a>
</g>
</g>
<!-- Node6 -->
<g id="Node000006" class="node">
<title>Node6</title>
<g id="a_Node000006"><a xlink:href="ConfigTlsServer_8h.html" target="_top" xlink:title=" ">
<polygon fill="white" stroke="#666666" points="241.75,-292.38 87.75,-292.38 87.75,-271.62 241.75,-271.62 241.75,-292.38"/>
<text xml:space="preserve" text-anchor="middle" x="164.75" y="-278.88" font-family="Helvetica,sans-Serif" font-size="10.00">net/config/ConfigTlsServer.h</text>
</a>
</g>
</g>
<!-- Node3&#45;&gt;Node6 -->
<g id="edge5_Node000003_Node000006" class="edge">
<title>Node3&#45;&gt;Node6</title>
<g id="a_edge5_Node000003_Node000006"><a xlink:title=" ">
<path fill="none" stroke="#63b8ff" d="M164.75,-334.5C164.75,-325.4 164.75,-313.89 164.75,-304.07"/>
<polygon fill="#63b8ff" stroke="#63b8ff" points="168.25,-304.34 164.75,-294.34 161.25,-304.34 168.25,-304.34"/>
</a>
</g>
</g>
<!-- Node5 -->
<g id="Node000005" class="node">
<title>Node5</title>
<g id="a_Node000005"><a xlink:href="SubCommand_8h.html" target="_top" xlink:title=" ">
<polygon fill="white" stroke="#666666" points="309.38,-20.75 192.12,-20.75 192.12,0 309.38,0 309.38,-20.75"/>
<text xml:space="preserve" text-anchor="middle" x="250.75" y="-7.25" font-family="Helvetica,sans-Serif" font-size="10.00">utils/SubCommand.h</text>
</a>
</g>
</g>
<!-- Node4&#45;&gt;Node5 -->
<g id="edge4_Node000004_Node000005" class="edge">
<title>Node4&#45;&gt;Node5</title>
<g id="a_edge4_Node000004_Node000005"><a xlink:title=" ">
<path fill="none" stroke="#63b8ff" d="M103.03,-62.68C132.54,-52.43 179.01,-36.29 211.94,-24.85"/>
<polygon fill="#63b8ff" stroke="#63b8ff" points="212.81,-28.26 221.11,-21.67 210.52,-21.64 212.81,-28.26"/>
</a>
</g>
</g>
<!-- Node7 -->
<g id="Node000007" class="node">
<title>Node7</title>
<g id="a_Node000007"><a xlink:href="ConfigTls_8h.html" target="_top" xlink:title=" ">
<polygon fill="white" stroke="#666666" points="210,-153.38 87.5,-153.38 87.5,-132.62 210,-132.62 210,-153.38"/>
<text xml:space="preserve" text-anchor="middle" x="148.75" y="-139.88" font-family="Helvetica,sans-Serif" font-size="10.00">net/config/ConfigTls.h</text>
</a>
</g>
</g>
<!-- Node6&#45;&gt;Node7 -->
<g id="edge6_Node000006_Node000007" class="edge">
<title>Node6&#45;&gt;Node7</title>
<g id="a_edge6_Node000006_Node000007"><a xlink:title=" ">
<path fill="none" stroke="#63b8ff" d="M163.6,-271.15C161.02,-249.03 154.71,-195.02 151.2,-165"/>
<polygon fill="#63b8ff" stroke="#63b8ff" points="154.7,-164.79 150.07,-155.27 147.75,-165.61 154.7,-164.79"/>
</a>
</g>
</g>
<!-- Node8 -->
<g id="Node000008" class="node">
<title>Node8</title>
<g id="a_Node000008"><a xlink:href="ConfigSection_8h.html" target="_top" xlink:title=" ">
<polygon fill="white" stroke="#666666" points="514.88,-83.88 370.62,-83.88 370.62,-63.12 514.88,-63.12 514.88,-83.88"/>
<text xml:space="preserve" text-anchor="middle" x="442.75" y="-70.38" font-family="Helvetica,sans-Serif" font-size="10.00">net/config/ConfigSection.h</text>
</a>
</g>
</g>
<!-- Node7&#45;&gt;Node8 -->
<g id="edge7_Node000007_Node000008" class="edge">
<title>Node7&#45;&gt;Node8</title>
<g id="a_edge7_Node000007_Node000008"><a xlink:title=" ">
<path fill="none" stroke="#63b8ff" d="M191.5,-132.18C243.76,-120.19 332.23,-99.88 389.03,-86.83"/>
<polygon fill="#63b8ff" stroke="#63b8ff" points="389.51,-90.31 398.47,-84.67 387.94,-83.49 389.51,-90.31"/>
</a>
</g>
</g>
<!-- Node8&#45;&gt;Node5 -->
<g id="edge8_Node000008_Node000005" class="edge">
<title>Node8&#45;&gt;Node5</title>
<g id="a_edge8_Node000008_Node000005"><a xlink:title=" ">
<path fill="none" stroke="#63b8ff" d="M411.9,-62.68C379.43,-52.34 328.13,-36.01 292.16,-24.56"/>
<polygon fill="#63b8ff" stroke="#63b8ff" points="293.55,-21.33 282.96,-21.63 291.43,-28 293.55,-21.33"/>
</a>
</g>
</g>
<!-- Node10 -->
<g id="Node000010" class="node">
<title>Node10</title>
<g id="a_Node000010"><a xlink:href="config_2stream_2ConfigSocketServer_8h.html" target="_top" xlink:title=" ">
<polygon fill="white" stroke="#666666" points="507.12,-298.75 370.38,-298.75 370.38,-265.25 507.12,-265.25 507.12,-298.75"/>
<text xml:space="preserve" text-anchor="start" x="378.38" y="-285.25" font-family="Helvetica,sans-Serif" font-size="10.00">net/config/stream/Config</text>
<text xml:space="preserve" text-anchor="middle" x="438.75" y="-272.5" font-family="Helvetica,sans-Serif" font-size="10.00">SocketServer.h</text>
</a>
</g>
</g>
<!-- Node9&#45;&gt;Node10 -->
<g id="edge10_Node000009_Node000010" class="edge">
<title>Node9&#45;&gt;Node10</title>
<g id="a_edge10_Node000009_Node000010"><a xlink:title=" ">
<path fill="none" stroke="#63b8ff" d="M438.75,-334.5C438.75,-327.27 438.75,-318.53 438.75,-310.31"/>
<polygon fill="#63b8ff" stroke="#63b8ff" points="442.25,-310.4 438.75,-300.4 435.25,-310.4 442.25,-310.4"/>
</a>
</g>
</g>
<!-- Node20 -->
<g id="Node000020" class="node">
<title>Node20</title>
<g id="a_Node000020"><a xlink:href="l2_2config_2ConfigAddress_8h.html" target="_top" xlink:title=" ">
<polygon fill="white" stroke="#666666" points="776.38,-292.38 617.12,-292.38 617.12,-271.62 776.38,-271.62 776.38,-292.38"/>
<text xml:space="preserve" text-anchor="middle" x="696.75" y="-278.88" font-family="Helvetica,sans-Serif" font-size="10.00">net/l2/config/ConfigAddress.h</text>
</a>
</g>
</g>
<!-- Node9&#45;&gt;Node20 -->
<g id="edge23_Node000009_Node000020" class="edge">
<title>Node9&#45;&gt;Node20</title>
<g id="a_edge23_Node000009_Node000020"><a xlink:title=" ">
<path fill="none" stroke="#63b8ff" d="M500.55,-334.33C545.75,-322.51 606.22,-306.69 648.02,-295.75"/>
<polygon fill="#63b8ff" stroke="#63b8ff" points="648.77,-299.17 657.56,-293.25 647,-292.4 648.77,-299.17"/>
</a>
</g>
</g>
<!-- Node11 -->
<g id="Node000011" class="node">
<title>Node11</title>
<g id="a_Node000011"><a xlink:href="ConfigAddressLocal_8h.html" target="_top" xlink:title=" ">
<polygon fill="white" stroke="#666666" points="717.88,-229.25 579.62,-229.25 579.62,-195.75 717.88,-195.75 717.88,-229.25"/>
<text xml:space="preserve" text-anchor="start" x="587.62" y="-215.75" font-family="Helvetica,sans-Serif" font-size="10.00">net/config/ConfigAddress</text>
<text xml:space="preserve" text-anchor="middle" x="648.75" y="-203" font-family="Helvetica,sans-Serif" font-size="10.00">Local.h</text>
</a>
</g>
</g>
<!-- Node10&#45;&gt;Node11 -->
<g id="edge11_Node000010_Node000011" class="edge">
<title>Node10&#45;&gt;Node11</title>
<g id="a_edge11_Node000010_Node000011"><a xlink:title=" ">
<path fill="none" stroke="#63b8ff" d="M489.05,-264.83C518.68,-255.31 556.38,-243.19 587.71,-233.12"/>
<polygon fill="#63b8ff" stroke="#63b8ff" points="588.61,-236.51 597.06,-230.12 586.46,-229.84 588.61,-236.51"/>
</a>
</g>
</g>
<!-- Node14 -->
<g id="Node000014" class="node">
<title>Node14</title>
<g id="a_Node000014"><a xlink:href="ConfigAddressReverse_8h.html" target="_top" xlink:title=" ">
<polygon fill="white" stroke="#666666" points="561.88,-229.25 423.62,-229.25 423.62,-195.75 561.88,-195.75 561.88,-229.25"/>
<text xml:space="preserve" text-anchor="start" x="431.62" y="-215.75" font-family="Helvetica,sans-Serif" font-size="10.00">net/config/ConfigAddress</text>
<text xml:space="preserve" text-anchor="middle" x="492.75" y="-203" font-family="Helvetica,sans-Serif" font-size="10.00">Reverse.h</text>
</a>
</g>
</g>
<!-- Node10&#45;&gt;Node14 -->
<g id="edge14_Node000010_Node000014" class="edge">
<title>Node10&#45;&gt;Node14</title>
<g id="a_edge14_Node000010_Node000014"><a xlink:title=" ">
<path fill="none" stroke="#63b8ff" d="M451.55,-265C457.94,-257.02 465.81,-247.18 472.95,-238.25"/>
<polygon fill="#63b8ff" stroke="#63b8ff" points="475.59,-240.56 479.1,-230.56 470.12,-236.19 475.59,-240.56"/>
</a>
</g>
</g>
<!-- Node15 -->
<g id="Node000015" class="node">
<title>Node15</title>
<g id="a_Node000015"><a xlink:href="ConfigConnection_8h.html" target="_top" xlink:title=" ">
<polygon fill="white" stroke="#666666" points="655.25,-153.38 492.25,-153.38 492.25,-132.62 655.25,-132.62 655.25,-153.38"/>
<text xml:space="preserve" text-anchor="middle" x="573.75" y="-139.88" font-family="Helvetica,sans-Serif" font-size="10.00">net/config/ConfigConnection.h</text>
</a>
</g>
</g>
<!-- Node10&#45;&gt;Node15 -->
<g id="edge16_Node000010_Node000015" class="edge">
<title>Node10&#45;&gt;Node15</title>
<g id="a_edge16_Node000010_Node000015"><a xlink:title=" ">
<path fill="none" stroke="#63b8ff" d="M426.59,-264.79C414.47,-246.47 399.66,-216.53 414.75,-195.75 426.57,-179.47 472.22,-165.64 511.6,-156.39"/>
<polygon fill="#63b8ff" stroke="#63b8ff" points="512.32,-159.81 521.29,-154.18 510.76,-152.99 512.32,-159.81"/>
</a>
</g>
</g>
<!-- Node16 -->
<g id="Node000016" class="node">
<title>Node16</title>
<g id="a_Node000016"><a xlink:href="ConfigPhysicalSocketServer_8h.html" target="_top" xlink:title=" ">
<polygon fill="white" stroke="#666666" points="367.62,-229.25 227.88,-229.25 227.88,-195.75 367.62,-195.75 367.62,-229.25"/>
<text xml:space="preserve" text-anchor="start" x="235.88" y="-215.75" font-family="Helvetica,sans-Serif" font-size="10.00">net/config/ConfigPhysical</text>
<text xml:space="preserve" text-anchor="middle" x="297.75" y="-203" font-family="Helvetica,sans-Serif" font-size="10.00">SocketServer.h</text>
</a>
</g>
</g>
<!-- Node10&#45;&gt;Node16 -->
<g id="edge18_Node000010_Node000016" class="edge">
<title>Node10&#45;&gt;Node16</title>
<g id="a_edge18_Node000010_Node000016"><a xlink:title=" ">
<path fill="none" stroke="#63b8ff" d="M404.98,-264.83C385.97,-255.73 362.01,-244.27 341.57,-234.48"/>
<polygon fill="#63b8ff" stroke="#63b8ff" points="343.14,-231.35 332.61,-230.19 340.12,-237.66 343.14,-231.35"/>
</a>
</g>
</g>
<!-- Node12 -->
<g id="Node000012" class="node">
<title>Node12</title>
<g id="a_Node000012"><a xlink:href="config_2ConfigAddress_8h.html" target="_top" xlink:title=" ">
<polygon fill="white" stroke="#666666" points="917.38,-153.38 770.12,-153.38 770.12,-132.62 917.38,-132.62 917.38,-153.38"/>
<text xml:space="preserve" text-anchor="middle" x="843.75" y="-139.88" font-family="Helvetica,sans-Serif" font-size="10.00">net/config/ConfigAddress.h</text>
</a>
</g>
</g>
<!-- Node11&#45;&gt;Node12 -->
<g id="edge12_Node000011_Node000012" class="edge">
<title>Node11&#45;&gt;Node12</title>
<g id="a_edge12_Node000011_Node000012"><a xlink:title=" ">
<path fill="none" stroke="#63b8ff" d="M695.46,-195.33C728.82,-183.78 773.19,-168.43 804.68,-157.53"/>
<polygon fill="#63b8ff" stroke="#63b8ff" points="805.5,-160.94 813.81,-154.36 803.21,-154.33 805.5,-160.94"/>
</a>
</g>
</g>
<!-- Node13 -->
<g id="Node000013" class="node">
<title>Node13</title>
<g id="a_Node000013"><a xlink:href="ConfigAddressBase_8h.html" target="_top" xlink:title=" ">
<polygon fill="white" stroke="#666666" points="837.88,-90.25 699.62,-90.25 699.62,-56.75 837.88,-56.75 837.88,-90.25"/>
<text xml:space="preserve" text-anchor="start" x="707.62" y="-76.75" font-family="Helvetica,sans-Serif" font-size="10.00">net/config/ConfigAddress</text>
<text xml:space="preserve" text-anchor="middle" x="768.75" y="-64" font-family="Helvetica,sans-Serif" font-size="10.00">Base.h</text>
</a>
</g>
</g>
<!-- Node12&#45;&gt;Node13 -->
<g id="edge13_Node000012_Node000013" class="edge">
<title>Node12&#45;&gt;Node13</title>
<g id="a_edge13_Node000012_Node000013"><a xlink:title=" ">
<path fill="none" stroke="#63b8ff" d="M833,-132.33C823.1,-123.42 808.01,-109.83 794.94,-98.07"/>
<polygon fill="#63b8ff" stroke="#63b8ff" points="797.62,-95.77 787.84,-91.68 792.93,-100.97 797.62,-95.77"/>
</a>
</g>
</g>
<!-- Node14&#45;&gt;Node13 -->
<g id="edge15_Node000014_Node000013" class="edge">
<title>Node14&#45;&gt;Node13</title>
<g id="a_edge15_Node000014_Node000013"><a xlink:title=" ">
<path fill="none" stroke="#63b8ff" d="M562.16,-197.26C594.52,-188.98 632.82,-176.76 664.75,-159.75 695.26,-143.5 725.28,-117.52 745.16,-98.51"/>
<polygon fill="#63b8ff" stroke="#63b8ff" points="747.49,-101.13 752.2,-91.64 742.6,-96.11 747.49,-101.13"/>
</a>
</g>
</g>
<!-- Node15&#45;&gt;Node8 -->
<g id="edge17_Node000015_Node000008" class="edge">
<title>Node15&#45;&gt;Node8</title>
<g id="a_edge17_Node000015_Node000008"><a xlink:title=" ">
<path fill="none" stroke="#63b8ff" d="M554.7,-132.18C532.97,-120.99 497.18,-102.55 471.93,-89.53"/>
<polygon fill="#63b8ff" stroke="#63b8ff" points="473.66,-86.49 463.17,-85.02 470.45,-92.71 473.66,-86.49"/>
</a>
</g>
</g>
<!-- Node17 -->
<g id="Node000017" class="node">
<title>Node17</title>
<g id="a_Node000017"><a xlink:href="ConfigPhysicalSocket_8h.html" target="_top" xlink:title=" ">
<polygon fill="white" stroke="#666666" points="367.62,-159.75 227.88,-159.75 227.88,-126.25 367.62,-126.25 367.62,-159.75"/>
<text xml:space="preserve" text-anchor="start" x="235.88" y="-146.25" font-family="Helvetica,sans-Serif" font-size="10.00">net/config/ConfigPhysical</text>
<text xml:space="preserve" text-anchor="middle" x="297.75" y="-133.5" font-family="Helvetica,sans-Serif" font-size="10.00">Socket.h</text>
</a>
</g>
</g>
<!-- Node16&#45;&gt;Node17 -->
<g id="edge19_Node000016_Node000017" class="edge">
<title>Node16&#45;&gt;Node17</title>
<g id="a_edge19_Node000016_Node000017"><a xlink:title=" ">
<path fill="none" stroke="#63b8ff" d="M297.75,-195.5C297.75,-188.27 297.75,-179.53 297.75,-171.31"/>
<polygon fill="#63b8ff" stroke="#63b8ff" points="301.25,-171.4 297.75,-161.4 294.25,-171.4 301.25,-171.4"/>
</a>
</g>
</g>
<!-- Node19 -->
<g id="Node000019" class="node">
<title>Node19</title>
<g id="a_Node000019"><a xlink:href="Timeval_8h.html" target="_top" xlink:title=" ">
<polygon fill="white" stroke="#666666" points="473.75,-153.38 385.75,-153.38 385.75,-132.62 473.75,-132.62 473.75,-153.38"/>
<text xml:space="preserve" text-anchor="middle" x="429.75" y="-139.88" font-family="Helvetica,sans-Serif" font-size="10.00">utils/Timeval.h</text>
</a>
</g>
</g>
<!-- Node16&#45;&gt;Node19 -->
<g id="edge22_Node000016_Node000019" class="edge">
<title>Node16&#45;&gt;Node19</title>
<g id="a_edge22_Node000016_Node000019"><a xlink:title=" ">
<path fill="none" stroke="#63b8ff" d="M329.37,-195.33C351.03,-184.25 379.55,-169.67 400.65,-158.88"/>
<polygon fill="#63b8ff" stroke="#63b8ff" points="401.98,-162.13 409.29,-154.46 398.8,-155.9 401.98,-162.13"/>
</a>
</g>
</g>
<!-- Node17&#45;&gt;Node8 -->
<g id="edge20_Node000017_Node000008" class="edge">
<title>Node17&#45;&gt;Node8</title>
<g id="a_edge20_Node000017_Node000008"><a xlink:title=" ">
<path fill="none" stroke="#63b8ff" d="M332.48,-125.83C356.49,-114.65 388.18,-99.9 411.42,-89.09"/>
<polygon fill="#63b8ff" stroke="#63b8ff" points="412.8,-92.3 420.39,-84.91 409.85,-85.96 412.8,-92.3"/>
</a>
</g>
</g>
<!-- Node18 -->
<g id="Node000018" class="node">
<title>Node18</title>
<g id="a_Node000018"><a xlink:href="PhysicalSocketOption_8h.html" target="_top" xlink:title=" ">
<polygon fill="white" stroke="#666666" points="352.62,-83.88 182.88,-83.88 182.88,-63.12 352.62,-63.12 352.62,-83.88"/>
<text xml:space="preserve" text-anchor="middle" x="267.75" y="-70.38" font-family="Helvetica,sans-Serif" font-size="10.00">net/phy/PhysicalSocketOption.h</text>
</a>
</g>
</g>
<!-- Node17&#45;&gt;Node18 -->
<g id="edge21_Node000017_Node000018" class="edge">
<title>Node17&#45;&gt;Node18</title>
<g id="a_edge21_Node000017_Node000018"><a xlink:title=" ">
<path fill="none" stroke="#63b8ff" d="M290.64,-126C286.46,-116.6 281.14,-104.62 276.68,-94.59"/>
<polygon fill="#63b8ff" stroke="#63b8ff" points="279.99,-93.42 272.73,-85.7 273.59,-96.26 279.99,-93.42"/>
</a>
</g>
</g>
<!-- Node20&#45;&gt;Node8 -->
<g id="edge28_Node000020_Node000008" class="edge">
<title>Node20&#45;&gt;Node8</title>
<g id="a_edge28_Node000020_Node000008"><a xlink:title=" ">
<path fill="none" stroke="#63b8ff" d="M704.78,-271.22C716.82,-255.31 737.09,-222.87 726.75,-195.75 712.01,-157.07 700.34,-147.38 664.75,-126.25 622.88,-101.4 569.97,-88.48 526.31,-81.76"/>
<polygon fill="#63b8ff" stroke="#63b8ff" points="527.03,-78.33 516.63,-80.37 526.03,-85.26 527.03,-78.33"/>
</a>
</g>
</g>
<!-- Node20&#45;&gt;Node11 -->
<g id="edge24_Node000020_Node000011" class="edge">
<title>Node20&#45;&gt;Node11</title>
<g id="a_edge24_Node000020_Node000011"><a xlink:title=" ">
<path fill="none" stroke="#63b8ff" d="M689.87,-271.33C683.84,-262.84 674.79,-250.12 666.71,-238.76"/>
<polygon fill="#63b8ff" stroke="#63b8ff" points="669.77,-237.02 661.13,-230.9 664.07,-241.08 669.77,-237.02"/>
</a>
</g>
</g>
<!-- Node20&#45;&gt;Node14 -->
<g id="edge27_Node000020_Node000014" class="edge">
<title>Node20&#45;&gt;Node14</title>
<g id="a_edge27_Node000020_Node000014"><a xlink:title=" ">
<path fill="none" stroke="#63b8ff" d="M667.09,-271.18C637.22,-261.3 590.29,-245.77 552.65,-233.32"/>
<polygon fill="#63b8ff" stroke="#63b8ff" points="553.82,-230.02 543.23,-230.2 551.63,-236.67 553.82,-230.02"/>
</a>
</g>
</g>
<!-- Node21 -->
<g id="Node000021" class="node">
<title>Node21</title>
<g id="a_Node000021"><a xlink:href="ConfigAddressRemote_8h.html" target="_top" xlink:title=" ">
<polygon fill="white" stroke="#666666" points="911.88,-229.25 773.62,-229.25 773.62,-195.75 911.88,-195.75 911.88,-229.25"/>
<text xml:space="preserve" text-anchor="start" x="781.62" y="-215.75" font-family="Helvetica,sans-Serif" font-size="10.00">net/config/ConfigAddress</text>
<text xml:space="preserve" text-anchor="middle" x="842.75" y="-203" font-family="Helvetica,sans-Serif" font-size="10.00">Remote.h</text>
</a>
</g>
</g>
<!-- Node20&#45;&gt;Node21 -->
<g id="edge25_Node000020_Node000021" class="edge">
<title>Node20&#45;&gt;Node21</title>
<g id="a_edge25_Node000020_Node000021"><a xlink:title=" ">
<path fill="none" stroke="#63b8ff" d="M717.98,-271.18C738.72,-261.6 770.93,-246.7 797.44,-234.45"/>
<polygon fill="#63b8ff" stroke="#63b8ff" points="798.67,-237.74 806.28,-230.36 795.73,-231.38 798.67,-237.74"/>
</a>
</g>
</g>
<!-- Node22 -->
<g id="Node000022" class="node">
<title>Node22</title>
<g id="a_Node000022"><a xlink:href="net_2l2_2SocketAddress_8h.html" target="_top" xlink:title=" ">
<polygon fill="white" stroke="#666666" points="1057.25,-222.88 930.25,-222.88 930.25,-202.12 1057.25,-202.12 1057.25,-222.88"/>
<text xml:space="preserve" text-anchor="middle" x="993.75" y="-209.38" font-family="Helvetica,sans-Serif" font-size="10.00">net/l2/SocketAddress.h</text>
</a>
</g>
</g>
<!-- Node20&#45;&gt;Node22 -->
<g id="edge29_Node000020_Node000022" class="edge">
<title>Node20&#45;&gt;Node22</title>
<g id="a_edge29_Node000020_Node000022"><a xlink:title=" ">
<path fill="none" stroke="#63b8ff" d="M739.94,-271.18C792.73,-259.19 882.1,-238.88 939.48,-225.83"/>
<polygon fill="#63b8ff" stroke="#63b8ff" points="940.06,-229.29 949.04,-223.66 938.51,-222.47 940.06,-229.29"/>
</a>
</g>
</g>
<!-- Node21&#45;&gt;Node12 -->
<g id="edge26_Node000021_Node000012" class="edge">
<title>Node21&#45;&gt;Node12</title>
<g id="a_edge26_Node000021_Node000012"><a xlink:title=" ">
<path fill="none" stroke="#63b8ff" d="M842.99,-195.5C843.12,-186.4 843.29,-174.89 843.44,-165.07"/>
<polygon fill="#63b8ff" stroke="#63b8ff" points="846.93,-165.39 843.58,-155.34 839.93,-165.28 846.93,-165.39"/>
</a>
</g>
</g>
<!-- Node23 -->
<g id="Node000023" class="node">
<title>Node23</title>
<g id="a_Node000023"><a xlink:href="net_2SocketAddress_8h.html" target="_top" xlink:title=" ">
<polygon fill="white" stroke="#666666" points="1051.25,-153.38 936.25,-153.38 936.25,-132.62 1051.25,-132.62 1051.25,-153.38"/>
<text xml:space="preserve" text-anchor="middle" x="993.75" y="-139.88" font-family="Helvetica,sans-Serif" font-size="10.00">net/SocketAddress.h</text>
</a>
</g>
</g>
<!-- Node22&#45;&gt;Node23 -->
<g id="edge30_Node000022_Node000023" class="edge">
<title>Node22&#45;&gt;Node23</title>
<g id="a_edge30_Node000022_Node000023"><a xlink:title=" ">
<path fill="none" stroke="#63b8ff" d="M993.75,-201.83C993.75,-192.21 993.75,-177.13 993.75,-164.79"/>
<polygon fill="#63b8ff" stroke="#63b8ff" points="997.25,-165.17 993.75,-155.17 990.25,-165.17 997.25,-165.17"/>
</a>
</g>
</g>
<!-- Node24&#45;&gt;Node3 -->
<g id="edge32_Node000024_Node000003" class="edge">
<title>Node24&#45;&gt;Node3</title>
<g id="a_edge32_Node000024_Node000003"><a xlink:title=" ">
<path fill="none" stroke="#63b8ff" d="M164.75,-404C164.75,-396.77 164.75,-388.03 164.75,-379.81"/>
<polygon fill="#63b8ff" stroke="#63b8ff" points="168.25,-379.9 164.75,-369.9 161.25,-379.9 168.25,-379.9"/>
</a>
</g>
</g>
</g>
</svg>

<g id="navigator" transform="translate(0 0)" fill="#404254">
  <rect fill="#f2f5e9" fill-opacity="0.5" stroke="#606060" stroke-width=".5" x="0" y="0" width="60" height="60"/>
  <use id="zoomplus" xlink:href="#zoomPlus" x="17" y="9" onmousedown="handleZoom(evt,'in')"/>
  <use id="zoomminus" xlink:href="#zoomMin" x="42" y="9" onmousedown="handleZoom(evt,'out')"/>
  <use id="reset" xlink:href="#resetDef" x="30" y="36" onmousedown="handleReset()"/>
   <use id="arrowup" xlink:href="#arrowUp" x="0" y="0" onmousedown="handlePan(0,-1)"/>
  <use id="arrowright" xlink:href="#arrowRight" x="0" y="0" onmousedown="handlePan(1,0)"/>
  <use id="arrowdown" xlink:href="#arrowDown" x="0" y="0" onmousedown="handlePan(0,1)"/>
  <use id="arrowleft" xlink:href="#arrowLeft" x="0" y="0" onmousedown="handlePan(-1,0)"/>
</g>
<svg viewBox="0 0 15 15" width="100%" height="30px" preserveAspectRatio="xMaxYMin meet">
 <g id="arrow_out" transform="scale(0.3 0.3)">
  <a xlink:href="l2_2stream_2tls_2config_2ConfigSocketServer_8cpp__incl_org.svg" target="_base">
   <rect id="button" ry="5" rx="5" y="6" x="6" height="38" width="38"
        fill="#f2f5e9" fill-opacity="0.5" stroke="#606060" stroke-width="1.0"/>
   <path id="arrow"
     d="M 11.500037,31.436501 C 11.940474,20.09759 22.043105,11.32322 32.158766,21.979434 L 37.068811,17.246167 C 37.068811,17.246167 37.088388,32 37.088388,32 L 22.160133,31.978069 C 22.160133,31.978069 26.997745,27.140456 26.997745,27.140456 C 18.528582,18.264221 13.291696,25.230495 11.500037,31.436501 z"
     style="fill:#404040;"/>
  </a>
 </g>
</svg>

<style type='text/css'>
<![CDATA[
[data-mouse-over-selected='false'] { opacity: 0.7; }
[data-mouse-over-selected='true']  { opacity: 1.0; }
]]>
</style>
<script type="application/ecmascript"><![CDATA[
document.addEventListener('DOMContentLoaded', (event) => {
  highlightEdges();
  highlightAdjacentNodes();
});
]]></script>
</svg>
