<?xml version="1.0" encoding="UTF-8" standalone="no"?>
<!DOCTYPE svg PUBLIC "-//W3C//DTD SVG 1.1//EN"
 "http://www.w3.org/Graphics/SVG/1.1/DTD/svg11.dtd">
<!-- Generated by graphviz version 2.43.0 (0)
 -->
<!-- Title: core/socket/stream/legacy/SocketAcceptor.h Pages: 1 -->
<svg width="1285pt" height="236pt"
 viewBox="0.00 0.00 1284.50 236.00" xmlns="http://www.w3.org/2000/svg" xmlns:xlink="http://www.w3.org/1999/xlink">
<g id="graph0" class="graph" transform="scale(1 1) rotate(0) translate(4 232)">
<title>core/socket/stream/legacy/SocketAcceptor.h</title>
<!-- Node1 -->
<g id="Node000001" class="node">
<title>Node1</title>
<g id="a_Node000001"><a xlink:title=" ">
<polygon fill="#999999" stroke="#666666" points="707,-228 568,-228 568,-198 707,-198 707,-228"/>
<text text-anchor="start" x="576" y="-216" font-family="Helvetica,sans-Serif" font-size="10.00">core/socket/stream</text>
<text text-anchor="middle" x="637.5" y="-205" font-family="Helvetica,sans-Serif" font-size="10.00">/legacy/SocketAcceptor.h</text>
</a>
</g>
</g>
<!-- Node2 -->
<g id="Node000002" class="node">
<title>Node2</title>
<g id="a_Node000002"><a xlink:href="legacy_2SocketAcceptor_8hpp.html" target="_top" xlink:title=" ">
<polygon fill="white" stroke="#666666" points="637,-162 486,-162 486,-132 637,-132 637,-162"/>
<text text-anchor="start" x="494" y="-150" font-family="Helvetica,sans-Serif" font-size="10.00">core/socket/stream</text>
<text text-anchor="middle" x="561.5" y="-139" font-family="Helvetica,sans-Serif" font-size="10.00">/legacy/SocketAcceptor.hpp</text>
</a>
</g>
</g>
<!-- Node1&#45;&gt;Node2 -->
<g id="edge1_Node000001_Node000002" class="edge">
<title>Node1&#45;&gt;Node2</title>
<g id="a_edge1_Node000001_Node000002"><a xlink:title=" ">
<path fill="none" stroke="#63b8ff" d="M612.8,-191.2C601.52,-181.7 588.45,-170.69 578.32,-162.16"/>
<polygon fill="#63b8ff" stroke="#63b8ff" points="610.73,-194.03 620.63,-197.8 615.24,-188.68 610.73,-194.03"/>
</a>
</g>
</g>
<!-- Node8 -->
<g id="Node000008" class="node">
<title>Node8</title>
<g id="a_Node000008"><a xlink:href="net_2in_2stream_2legacy_2SocketServer_8h.html" target="_top" xlink:title=" ">
<polygon fill="white" stroke="#666666" points="327,-162 210,-162 210,-132 327,-132 327,-162"/>
<text text-anchor="start" x="218" y="-150" font-family="Helvetica,sans-Serif" font-size="10.00">net/in/stream/legacy</text>
<text text-anchor="middle" x="268.5" y="-139" font-family="Helvetica,sans-Serif" font-size="10.00">/SocketServer.h</text>
</a>
</g>
</g>
<!-- Node1&#45;&gt;Node8 -->
<g id="edge7_Node000001_Node000008" class="edge">
<title>Node1&#45;&gt;Node8</title>
<g id="a_edge7_Node000001_Node000008"><a xlink:title=" ">
<path fill="none" stroke="#63b8ff" d="M557.84,-199.74C496.85,-190.14 410.71,-176.08 335.5,-162 332.81,-161.5 330.07,-160.97 327.3,-160.43"/>
<polygon fill="#63b8ff" stroke="#63b8ff" points="557.36,-203.21 567.78,-201.31 558.45,-196.3 557.36,-203.21"/>
</a>
</g>
</g>
<!-- Node11 -->
<g id="Node000011" class="node">
<title>Node11</title>
<g id="a_Node000011"><a xlink:href="net_2in6_2stream_2legacy_2SocketServer_8h.html" target="_top" xlink:title=" ">
<polygon fill="white" stroke="#666666" points="468,-162 345,-162 345,-132 468,-132 468,-162"/>
<text text-anchor="start" x="353" y="-150" font-family="Helvetica,sans-Serif" font-size="10.00">net/in6/stream/legacy</text>
<text text-anchor="middle" x="406.5" y="-139" font-family="Helvetica,sans-Serif" font-size="10.00">/SocketServer.h</text>
</a>
</g>
</g>
<!-- Node1&#45;&gt;Node11 -->
<g id="edge11_Node000001_Node000011" class="edge">
<title>Node1&#45;&gt;Node11</title>
<g id="a_edge11_Node000001_Node000011"><a xlink:title=" ">
<path fill="none" stroke="#63b8ff" d="M577.06,-195.25C539.74,-184.91 492.4,-171.8 457.08,-162.01"/>
<polygon fill="#63b8ff" stroke="#63b8ff" points="576.23,-198.66 586.81,-197.95 578.1,-191.91 576.23,-198.66"/>
</a>
</g>
</g>
<!-- Node14 -->
<g id="Node000014" class="node">
<title>Node14</title>
<g id="a_Node000014"><a xlink:href="net_2l2_2stream_2legacy_2SocketServer_8h.html" target="_top" xlink:title=" ">
<polygon fill="white" stroke="#666666" points="772,-162 655,-162 655,-132 772,-132 772,-162"/>
<text text-anchor="start" x="663" y="-150" font-family="Helvetica,sans-Serif" font-size="10.00">net/l2/stream/legacy</text>
<text text-anchor="middle" x="713.5" y="-139" font-family="Helvetica,sans-Serif" font-size="10.00">/SocketServer.h</text>
</a>
</g>
</g>
<!-- Node1&#45;&gt;Node14 -->
<g id="edge15_Node000001_Node000014" class="edge">
<title>Node1&#45;&gt;Node14</title>
<g id="a_edge15_Node000001_Node000014"><a xlink:title=" ">
<path fill="none" stroke="#63b8ff" d="M662.2,-191.2C673.48,-181.7 686.55,-170.69 696.68,-162.16"/>
<polygon fill="#63b8ff" stroke="#63b8ff" points="659.76,-188.68 654.37,-197.8 664.27,-194.03 659.76,-188.68"/>
</a>
</g>
</g>
<!-- Node15 -->
<g id="Node000015" class="node">
<title>Node15</title>
<g id="a_Node000015"><a xlink:href="net_2rc_2stream_2legacy_2SocketServer_8h.html" target="_top" xlink:title=" ">
<polygon fill="white" stroke="#666666" points="907,-162 790,-162 790,-132 907,-132 907,-162"/>
<text text-anchor="start" x="798" y="-150" font-family="Helvetica,sans-Serif" font-size="10.00">net/rc/stream/legacy</text>
<text text-anchor="middle" x="848.5" y="-139" font-family="Helvetica,sans-Serif" font-size="10.00">/SocketServer.h</text>
</a>
</g>
</g>
<!-- Node1&#45;&gt;Node15 -->
<g id="edge17_Node000001_Node000015" class="edge">
<title>Node1&#45;&gt;Node15</title>
<g id="a_edge17_Node000001_Node000015"><a xlink:title=" ">
<path fill="none" stroke="#63b8ff" d="M693.58,-194.99C727.53,-184.69 770.31,-171.72 802.3,-162.01"/>
<polygon fill="#63b8ff" stroke="#63b8ff" points="692.36,-191.7 683.8,-197.95 694.39,-198.4 692.36,-191.7"/>
</a>
</g>
</g>
<!-- Node18 -->
<g id="Node000018" class="node">
<title>Node18</title>
<g id="a_Node000018"><a xlink:href="net_2un_2stream_2legacy_2SocketServer_8h.html" target="_top" xlink:title=" ">
<polygon fill="white" stroke="#666666" points="1045.5,-162 925.5,-162 925.5,-132 1045.5,-132 1045.5,-162"/>
<text text-anchor="start" x="933.5" y="-150" font-family="Helvetica,sans-Serif" font-size="10.00">net/un/stream/legacy</text>
<text text-anchor="middle" x="985.5" y="-139" font-family="Helvetica,sans-Serif" font-size="10.00">/SocketServer.h</text>
</a>
</g>
</g>
<!-- Node1&#45;&gt;Node18 -->
<g id="edge21_Node000001_Node000018" class="edge">
<title>Node1&#45;&gt;Node18</title>
<g id="a_edge21_Node000001_Node000018"><a xlink:title=" ">
<path fill="none" stroke="#63b8ff" d="M717.4,-198.05C773,-188.24 848.83,-174.66 915.5,-162 918.67,-161.4 921.91,-160.78 925.19,-160.14"/>
<polygon fill="#63b8ff" stroke="#63b8ff" points="716.5,-194.66 707.26,-199.84 717.72,-201.55 716.5,-194.66"/>
</a>
</g>
</g>
<!-- Node3 -->
<g id="Node000003" class="node">
<title>Node3</title>
<g id="a_Node000003"><a xlink:href="in_2stream_2legacy_2SocketServer_8cpp.html" target="_top" xlink:title=" ">
<polygon fill="white" stroke="#666666" points="413,-96 296,-96 296,-66 413,-66 413,-96"/>
<text text-anchor="start" x="304" y="-84" font-family="Helvetica,sans-Serif" font-size="10.00">net/in/stream/legacy</text>
<text text-anchor="middle" x="354.5" y="-73" font-family="Helvetica,sans-Serif" font-size="10.00">/SocketServer.cpp</text>
</a>
</g>
</g>
<!-- Node2&#45;&gt;Node3 -->
<g id="edge2_Node000002_Node000003" class="edge">
<title>Node2&#45;&gt;Node3</title>
<g id="a_edge2_Node000002_Node000003"><a xlink:title=" ">
<path fill="none" stroke="#63b8ff" d="M506.48,-128.99C473.17,-118.69 431.21,-105.72 399.82,-96.01"/>
<polygon fill="#63b8ff" stroke="#63b8ff" points="505.49,-132.34 516.07,-131.95 507.55,-125.66 505.49,-132.34"/>
</a>
</g>
</g>
<!-- Node4 -->
<g id="Node000004" class="node">
<title>Node4</title>
<g id="a_Node000004"><a xlink:href="in6_2stream_2legacy_2SocketServer_8cpp.html" target="_top" xlink:title=" ">
<polygon fill="white" stroke="#666666" points="554,-96 431,-96 431,-66 554,-66 554,-96"/>
<text text-anchor="start" x="439" y="-84" font-family="Helvetica,sans-Serif" font-size="10.00">net/in6/stream/legacy</text>
<text text-anchor="middle" x="492.5" y="-73" font-family="Helvetica,sans-Serif" font-size="10.00">/SocketServer.cpp</text>
</a>
</g>
</g>
<!-- Node2&#45;&gt;Node4 -->
<g id="edge3_Node000002_Node000004" class="edge">
<title>Node2&#45;&gt;Node4</title>
<g id="a_edge3_Node000002_Node000004"><a xlink:title=" ">
<path fill="none" stroke="#63b8ff" d="M538.78,-124.92C528.6,-115.49 516.87,-104.61 507.77,-96.16"/>
<polygon fill="#63b8ff" stroke="#63b8ff" points="536.47,-127.56 546.19,-131.8 541.24,-122.43 536.47,-127.56"/>
</a>
</g>
</g>
<!-- Node5 -->
<g id="Node000005" class="node">
<title>Node5</title>
<g id="a_Node000005"><a xlink:href="l2_2stream_2legacy_2SocketServer_8cpp.html" target="_top" xlink:title=" ">
<polygon fill="white" stroke="#666666" points="689,-96 572,-96 572,-66 689,-66 689,-96"/>
<text text-anchor="start" x="580" y="-84" font-family="Helvetica,sans-Serif" font-size="10.00">net/l2/stream/legacy</text>
<text text-anchor="middle" x="630.5" y="-73" font-family="Helvetica,sans-Serif" font-size="10.00">/SocketServer.cpp</text>
</a>
</g>
</g>
<!-- Node2&#45;&gt;Node5 -->
<g id="edge4_Node000002_Node000005" class="edge">
<title>Node2&#45;&gt;Node5</title>
<g id="a_edge4_Node000002_Node000005"><a xlink:title=" ">
<path fill="none" stroke="#63b8ff" d="M584.22,-124.92C594.4,-115.49 606.13,-104.61 615.23,-96.16"/>
<polygon fill="#63b8ff" stroke="#63b8ff" points="581.76,-122.43 576.81,-131.8 586.53,-127.56 581.76,-122.43"/>
</a>
</g>
</g>
<!-- Node6 -->
<g id="Node000006" class="node">
<title>Node6</title>
<g id="a_Node000006"><a xlink:href="rc_2stream_2legacy_2SocketServer_8cpp.html" target="_top" xlink:title=" ">
<polygon fill="white" stroke="#666666" points="824,-96 707,-96 707,-66 824,-66 824,-96"/>
<text text-anchor="start" x="715" y="-84" font-family="Helvetica,sans-Serif" font-size="10.00">net/rc/stream/legacy</text>
<text text-anchor="middle" x="765.5" y="-73" font-family="Helvetica,sans-Serif" font-size="10.00">/SocketServer.cpp</text>
</a>
</g>
</g>
<!-- Node2&#45;&gt;Node6 -->
<g id="edge5_Node000002_Node000006" class="edge">
<title>Node2&#45;&gt;Node6</title>
<g id="a_edge5_Node000002_Node000006"><a xlink:title=" ">
<path fill="none" stroke="#63b8ff" d="M616.15,-128.86C648.9,-118.58 690.03,-105.68 720.84,-96.01"/>
<polygon fill="#63b8ff" stroke="#63b8ff" points="614.76,-125.62 606.27,-131.95 616.86,-132.3 614.76,-125.62"/>
</a>
</g>
</g>
<!-- Node7 -->
<g id="Node000007" class="node">
<title>Node7</title>
<g id="a_Node000007"><a xlink:href="un_2stream_2legacy_2SocketServer_8cpp.html" target="_top" xlink:title=" ">
<polygon fill="white" stroke="#666666" points="962.5,-96 842.5,-96 842.5,-66 962.5,-66 962.5,-96"/>
<text text-anchor="start" x="850.5" y="-84" font-family="Helvetica,sans-Serif" font-size="10.00">net/un/stream/legacy</text>
<text text-anchor="middle" x="902.5" y="-73" font-family="Helvetica,sans-Serif" font-size="10.00">/SocketServer.cpp</text>
</a>
</g>
</g>
<!-- Node2&#45;&gt;Node7 -->
<g id="edge6_Node000002_Node000007" class="edge">
<title>Node2&#45;&gt;Node7</title>
<g id="a_edge6_Node000002_Node000007"><a xlink:title=" ">
<path fill="none" stroke="#63b8ff" d="M647.29,-130.51C700.63,-120.8 770.6,-107.9 832.5,-96 835.66,-95.39 838.91,-94.76 842.18,-94.12"/>
<polygon fill="#63b8ff" stroke="#63b8ff" points="646.41,-127.11 637.19,-132.35 647.66,-134 646.41,-127.11"/>
</a>
</g>
</g>
<!-- Node8&#45;&gt;Node3 -->
<g id="edge8_Node000008_Node000003" class="edge">
<title>Node8&#45;&gt;Node3</title>
<g id="a_edge8_Node000008_Node000003"><a xlink:title=" ">
<path fill="none" stroke="#63b8ff" d="M295.71,-125.75C308.64,-116.13 323.79,-104.86 335.47,-96.16"/>
<polygon fill="#63b8ff" stroke="#63b8ff" points="293.52,-123.02 287.59,-131.8 297.7,-128.63 293.52,-123.02"/>
</a>
</g>
</g>
<!-- Node9 -->
<g id="Node000009" class="node">
<title>Node9</title>
<g id="a_Node000009"><a xlink:href="legacy_2in_2Server_8h.html" target="_top" xlink:title=" ">
<polygon fill="white" stroke="#666666" points="142,-96 35,-96 35,-66 142,-66 142,-96"/>
<text text-anchor="start" x="43" y="-84" font-family="Helvetica,sans-Serif" font-size="10.00">web/http/legacy/in</text>
<text text-anchor="middle" x="88.5" y="-73" font-family="Helvetica,sans-Serif" font-size="10.00">/Server.h</text>
</a>
</g>
</g>
<!-- Node8&#45;&gt;Node9 -->
<g id="edge9_Node000008_Node000009" class="edge">
<title>Node8&#45;&gt;Node9</title>
<g id="a_edge9_Node000008_Node000009"><a xlink:title=" ">
<path fill="none" stroke="#63b8ff" d="M219.53,-128.59C190.76,-118.36 154.85,-105.59 127.91,-96.01"/>
<polygon fill="#63b8ff" stroke="#63b8ff" points="218.4,-131.9 229,-131.95 220.75,-125.31 218.4,-131.9"/>
</a>
</g>
</g>
<!-- Node10 -->
<g id="Node000010" class="node">
<title>Node10</title>
<g id="a_Node000010"><a xlink:href="legacy_2in_2WebApp_8h.html" target="_top" xlink:title=" ">
<polygon fill="white" stroke="#666666" points="155,-24.5 0,-24.5 0,-5.5 155,-5.5 155,-24.5"/>
<text text-anchor="middle" x="77.5" y="-12.5" font-family="Helvetica,sans-Serif" font-size="10.00">express/legacy/in/WebApp.h</text>
</a>
</g>
</g>
<!-- Node9&#45;&gt;Node10 -->
<g id="edge10_Node000009_Node000010" class="edge">
<title>Node9&#45;&gt;Node10</title>
<g id="a_edge10_Node000009_Node000010"><a xlink:title=" ">
<path fill="none" stroke="#63b8ff" d="M84.36,-55.94C82.49,-45.06 80.4,-32.86 79.02,-24.84"/>
<polygon fill="#63b8ff" stroke="#63b8ff" points="80.92,-56.53 86.06,-65.8 87.81,-55.35 80.92,-56.53"/>
</a>
</g>
</g>
<!-- Node11&#45;&gt;Node4 -->
<g id="edge12_Node000011_Node000004" class="edge">
<title>Node11&#45;&gt;Node4</title>
<g id="a_edge12_Node000011_Node000004"><a xlink:title=" ">
<path fill="none" stroke="#63b8ff" d="M433.71,-125.75C446.64,-116.13 461.79,-104.86 473.47,-96.16"/>
<polygon fill="#63b8ff" stroke="#63b8ff" points="431.52,-123.02 425.59,-131.8 435.7,-128.63 431.52,-123.02"/>
</a>
</g>
</g>
<!-- Node12 -->
<g id="Node000012" class="node">
<title>Node12</title>
<g id="a_Node000012"><a xlink:href="legacy_2in6_2Server_8h.html" target="_top" xlink:title=" ">
<polygon fill="white" stroke="#666666" points="278,-96 165,-96 165,-66 278,-66 278,-96"/>
<text text-anchor="start" x="173" y="-84" font-family="Helvetica,sans-Serif" font-size="10.00">web/http/legacy/in6</text>
<text text-anchor="middle" x="221.5" y="-73" font-family="Helvetica,sans-Serif" font-size="10.00">/Server.h</text>
</a>
</g>
</g>
<!-- Node11&#45;&gt;Node12 -->
<g id="edge13_Node000011_Node000012" class="edge">
<title>Node11&#45;&gt;Node12</title>
<g id="a_edge13_Node000011_Node000012"><a xlink:title=" ">
<path fill="none" stroke="#63b8ff" d="M356.17,-128.59C326.6,-118.36 289.7,-105.59 262,-96.01"/>
<polygon fill="#63b8ff" stroke="#63b8ff" points="355.31,-131.99 365.9,-131.95 357.59,-125.38 355.31,-131.99"/>
</a>
</g>
</g>
<!-- Node13 -->
<g id="Node000013" class="node">
<title>Node13</title>
<g id="a_Node000013"><a xlink:href="legacy_2in6_2WebApp_8h.html" target="_top" xlink:title=" ">
<polygon fill="white" stroke="#666666" points="281.5,-30 173.5,-30 173.5,0 281.5,0 281.5,-30"/>
<text text-anchor="start" x="181.5" y="-18" font-family="Helvetica,sans-Serif" font-size="10.00">express/legacy/in6</text>
<text text-anchor="middle" x="227.5" y="-7" font-family="Helvetica,sans-Serif" font-size="10.00">/WebApp.h</text>
</a>
</g>
</g>
<!-- Node12&#45;&gt;Node13 -->
<g id="edge14_Node000012_Node000013" class="edge">
<title>Node12&#45;&gt;Node13</title>
<g id="a_edge14_Node000012_Node000013"><a xlink:title=" ">
<path fill="none" stroke="#63b8ff" d="M223.77,-55.83C224.58,-47.17 225.47,-37.7 226.17,-30.16"/>
<polygon fill="#63b8ff" stroke="#63b8ff" points="220.28,-55.51 222.83,-65.8 227.25,-56.17 220.28,-55.51"/>
</a>
</g>
</g>
<!-- Node14&#45;&gt;Node5 -->
<g id="edge16_Node000014_Node000005" class="edge">
<title>Node14&#45;&gt;Node5</title>
<g id="a_edge16_Node000014_Node000005"><a xlink:title=" ">
<path fill="none" stroke="#63b8ff" d="M686.89,-125.48C674.48,-115.91 660.03,-104.77 648.87,-96.16"/>
<polygon fill="#63b8ff" stroke="#63b8ff" points="685.02,-128.46 695.08,-131.8 689.3,-122.92 685.02,-128.46"/>
</a>
</g>
</g>
<!-- Node15&#45;&gt;Node6 -->
<g id="edge18_Node000015_Node000006" class="edge">
<title>Node15&#45;&gt;Node6</title>
<g id="a_edge18_Node000015_Node000006"><a xlink:title=" ">
<path fill="none" stroke="#63b8ff" d="M821.89,-125.48C809.48,-115.91 795.03,-104.77 783.87,-96.16"/>
<polygon fill="#63b8ff" stroke="#63b8ff" points="820.02,-128.46 830.08,-131.8 824.3,-122.92 820.02,-128.46"/>
</a>
</g>
</g>
<!-- Node16 -->
<g id="Node000016" class="node">
<title>Node16</title>
<g id="a_Node000016"><a xlink:href="legacy_2rc_2Server_8h.html" target="_top" xlink:title=" ">
<polygon fill="white" stroke="#666666" points="1088,-96 981,-96 981,-66 1088,-66 1088,-96"/>
<text text-anchor="start" x="989" y="-84" font-family="Helvetica,sans-Serif" font-size="10.00">web/http/legacy/rc</text>
<text text-anchor="middle" x="1034.5" y="-73" font-family="Helvetica,sans-Serif" font-size="10.00">/Server.h</text>
</a>
</g>
</g>
<!-- Node15&#45;&gt;Node16 -->
<g id="edge19_Node000015_Node000016" class="edge">
<title>Node15&#45;&gt;Node16</title>
<g id="a_edge19_Node000015_Node000016"><a xlink:title=" ">
<path fill="none" stroke="#63b8ff" d="M899.1,-128.59C928.84,-118.36 965.94,-105.59 993.78,-96.01"/>
<polygon fill="#63b8ff" stroke="#63b8ff" points="897.64,-125.39 889.32,-131.95 899.91,-132.01 897.64,-125.39"/>
</a>
</g>
</g>
<!-- Node17 -->
<g id="Node000017" class="node">
<title>Node17</title>
<g id="a_Node000017"><a xlink:href="legacy_2rc_2WebApp_8h.html" target="_top" xlink:title=" ">
<polygon fill="white" stroke="#666666" points="1100,-24.5 945,-24.5 945,-5.5 1100,-5.5 1100,-24.5"/>
<text text-anchor="middle" x="1022.5" y="-12.5" font-family="Helvetica,sans-Serif" font-size="10.00">express/legacy/rc/WebApp.h</text>
</a>
</g>
</g>
<!-- Node16&#45;&gt;Node17 -->
<g id="edge20_Node000016_Node000017" class="edge">
<title>Node16&#45;&gt;Node17</title>
<g id="a_edge20_Node000016_Node000017"><a xlink:title=" ">
<path fill="none" stroke="#63b8ff" d="M1029.99,-55.94C1027.95,-45.06 1025.66,-32.86 1024.16,-24.84"/>
<polygon fill="#63b8ff" stroke="#63b8ff" points="1026.55,-56.61 1031.84,-65.8 1033.43,-55.32 1026.55,-56.61"/>
</a>
</g>
</g>
<!-- Node18&#45;&gt;Node7 -->
<g id="edge22_Node000018_Node000007" class="edge">
<title>Node18&#45;&gt;Node7</title>
<g id="a_edge22_Node000018_Node000007"><a xlink:title=" ">
<path fill="none" stroke="#63b8ff" d="M958.89,-125.48C946.48,-115.91 932.03,-104.77 920.87,-96.16"/>
<polygon fill="#63b8ff" stroke="#63b8ff" points="957.02,-128.46 967.08,-131.8 961.3,-122.92 957.02,-128.46"/>
</a>
</g>
</g>
<!-- Node19 -->
<g id="Node000019" class="node">
<title>Node19</title>
<g id="a_Node000019"><a xlink:href="legacy_2un_2Server_8h.html" target="_top" xlink:title=" ">
<polygon fill="white" stroke="#666666" points="1240.5,-96 1130.5,-96 1130.5,-66 1240.5,-66 1240.5,-96"/>
<text text-anchor="start" x="1138.5" y="-84" font-family="Helvetica,sans-Serif" font-size="10.00">web/http/legacy/un</text>
<text text-anchor="middle" x="1185.5" y="-73" font-family="Helvetica,sans-Serif" font-size="10.00">/Server.h</text>
</a>
</g>
</g>
<!-- Node18&#45;&gt;Node19 -->
<g id="edge23_Node000018_Node000019" class="edge">
<title>Node18&#45;&gt;Node19</title>
<g id="a_edge23_Node000018_Node000019"><a xlink:title=" ">
<path fill="none" stroke="#63b8ff" d="M1039.07,-128.86C1071.19,-118.58 1111.51,-105.68 1141.71,-96.01"/>
<polygon fill="#63b8ff" stroke="#63b8ff" points="1037.85,-125.57 1029.39,-131.95 1039.98,-132.24 1037.85,-125.57"/>
</a>
</g>
</g>
<!-- Node20 -->
<g id="Node000020" class="node">
<title>Node20</title>
<g id="a_Node000020"><a xlink:href="legacy_2un_2WebApp_8h.html" target="_top" xlink:title=" ">
<polygon fill="white" stroke="#666666" points="1276.5,-24.5 1118.5,-24.5 1118.5,-5.5 1276.5,-5.5 1276.5,-24.5"/>
<text text-anchor="middle" x="1197.5" y="-12.5" font-family="Helvetica,sans-Serif" font-size="10.00">express/legacy/un/WebApp.h</text>
</a>
</g>
</g>
<!-- Node19&#45;&gt;Node20 -->
<g id="edge24_Node000019_Node000020" class="edge">
<title>Node19&#45;&gt;Node20</title>
<g id="a_edge24_Node000019_Node000020"><a xlink:title=" ">
<path fill="none" stroke="#63b8ff" d="M1190.01,-55.94C1192.05,-45.06 1194.34,-32.86 1195.84,-24.84"/>
<polygon fill="#63b8ff" stroke="#63b8ff" points="1186.57,-55.32 1188.16,-65.8 1193.45,-56.61 1186.57,-55.32"/>
</a>
</g>
</g>
</g>
</svg>
