<?xml version="1.0" encoding="UTF-8" standalone="no"?>
<!DOCTYPE svg PUBLIC "-//W3C//DTD SVG 1.1//EN"
 "http://www.w3.org/Graphics/SVG/1.1/DTD/svg11.dtd">
<!-- Generated by graphviz version 2.43.0 (0)
 -->
<!-- Title: core/socket/stream/legacy/SocketAcceptor.hpp Pages: 1 -->
<svg width="456pt" height="401pt"
 viewBox="0.00 0.00 456.00 401.00" xmlns="http://www.w3.org/2000/svg" xmlns:xlink="http://www.w3.org/1999/xlink">
<g id="graph0" class="graph" transform="scale(1 1) rotate(0) translate(4 397)">
<title>core/socket/stream/legacy/SocketAcceptor.hpp</title>
<!-- Node1 -->
<g id="Node000001" class="node">
<title>Node1</title>
<g id="a_Node000001"><a xlink:title=" ">
<polygon fill="#999999" stroke="#666666" points="224.5,-393 73.5,-393 73.5,-363 224.5,-363 224.5,-393"/>
<text text-anchor="start" x="81.5" y="-381" font-family="Helvetica,sans-Serif" font-size="10.00">core/socket/stream</text>
<text text-anchor="middle" x="149" y="-370" font-family="Helvetica,sans-Serif" font-size="10.00">/legacy/SocketAcceptor.hpp</text>
</a>
</g>
</g>
<!-- Node2 -->
<g id="Node000002" class="node">
<title>Node2</title>
<g id="a_Node000002"><a xlink:href="legacy_2_socket_acceptor_8h.html" target="_top" xlink:title=" ">
<polygon fill="white" stroke="#666666" points="145.5,-327 6.5,-327 6.5,-297 145.5,-297 145.5,-327"/>
<text text-anchor="start" x="14.5" y="-315" font-family="Helvetica,sans-Serif" font-size="10.00">core/socket/stream</text>
<text text-anchor="middle" x="76" y="-304" font-family="Helvetica,sans-Serif" font-size="10.00">/legacy/SocketAcceptor.h</text>
</a>
</g>
</g>
<!-- Node1&#45;&gt;Node2 -->
<g id="edge1_Node000001_Node000002" class="edge">
<title>Node1&#45;&gt;Node2</title>
<g id="a_edge1_Node000001_Node000002"><a xlink:title=" ">
<path fill="none" stroke="#63b8ff" d="M132.8,-362.8C123.16,-354.34 110.75,-343.46 99.99,-334.03"/>
<polygon fill="#63b8ff" stroke="#63b8ff" points="101.98,-331.12 92.16,-327.16 97.37,-336.39 101.98,-331.12"/>
</a>
</g>
</g>
<!-- Node9 -->
<g id="Node000009" class="node">
<title>Node9</title>
<g id="a_Node000009"><a xlink:href="_socket_acceptor_8hpp.html" target="_top" xlink:title=" ">
<polygon fill="white" stroke="#666666" points="280,-327 164,-327 164,-297 280,-297 280,-327"/>
<text text-anchor="start" x="172" y="-315" font-family="Helvetica,sans-Serif" font-size="10.00">core/socket/stream</text>
<text text-anchor="middle" x="222" y="-304" font-family="Helvetica,sans-Serif" font-size="10.00">/SocketAcceptor.hpp</text>
</a>
</g>
</g>
<!-- Node1&#45;&gt;Node9 -->
<g id="edge8_Node000001_Node000009" class="edge">
<title>Node1&#45;&gt;Node9</title>
<g id="a_edge8_Node000001_Node000009"><a xlink:title=" ">
<path fill="none" stroke="#63b8ff" d="M165.2,-362.8C174.84,-354.34 187.25,-343.46 198.01,-334.03"/>
<polygon fill="#63b8ff" stroke="#63b8ff" points="200.63,-336.39 205.84,-327.16 196.02,-331.12 200.63,-336.39"/>
</a>
</g>
</g>
<!-- Node3 -->
<g id="Node000003" class="node">
<title>Node3</title>
<g id="a_Node000003"><a xlink:href="_socket_acceptor_8h.html" target="_top" xlink:title=" ">
<polygon fill="white" stroke="#666666" points="140,-261 30,-261 30,-231 140,-231 140,-261"/>
<text text-anchor="start" x="38" y="-249" font-family="Helvetica,sans-Serif" font-size="10.00">core/socket/stream</text>
<text text-anchor="middle" x="85" y="-238" font-family="Helvetica,sans-Serif" font-size="10.00">/SocketAcceptor.h</text>
</a>
</g>
</g>
<!-- Node2&#45;&gt;Node3 -->
<g id="edge2_Node000002_Node000003" class="edge">
<title>Node2&#45;&gt;Node3</title>
<g id="a_edge2_Node000002_Node000003"><a xlink:title=" ">
<path fill="none" stroke="#63b8ff" d="M78,-296.8C79.06,-289.26 80.39,-279.78 81.61,-271.13"/>
<polygon fill="#63b8ff" stroke="#63b8ff" points="85.08,-271.55 83.01,-261.16 78.15,-270.58 85.08,-271.55"/>
</a>
</g>
</g>
<!-- Node4 -->
<g id="Node000004" class="node">
<title>Node4</title>
<g id="a_Node000004"><a xlink:href="_accept_event_receiver_8h.html" target="_top" xlink:title=" ">
<polygon fill="white" stroke="#666666" points="151,-195 19,-195 19,-165 151,-165 151,-195"/>
<text text-anchor="start" x="27" y="-183" font-family="Helvetica,sans-Serif" font-size="10.00">core/eventreceiver</text>
<text text-anchor="middle" x="85" y="-172" font-family="Helvetica,sans-Serif" font-size="10.00">/AcceptEventReceiver.h</text>
</a>
</g>
</g>
<!-- Node3&#45;&gt;Node4 -->
<g id="edge3_Node000003_Node000004" class="edge">
<title>Node3&#45;&gt;Node4</title>
<g id="a_edge3_Node000003_Node000004"><a xlink:title=" ">
<path fill="none" stroke="#63b8ff" d="M85,-230.8C85,-223.34 85,-213.99 85,-205.41"/>
<polygon fill="#63b8ff" stroke="#63b8ff" points="88.5,-205.16 85,-195.16 81.5,-205.16 88.5,-205.16"/>
</a>
</g>
</g>
<!-- Node8 -->
<g id="Node000008" class="node">
<title>Node8</title>
<g id="a_Node000008"><a xlink:href="_socket_connection_factory_8h.html" target="_top" xlink:title=" ">
<polygon fill="white" stroke="#666666" points="380,-195 230,-195 230,-165 380,-165 380,-195"/>
<text text-anchor="start" x="238" y="-183" font-family="Helvetica,sans-Serif" font-size="10.00">core/socket/stream</text>
<text text-anchor="middle" x="305" y="-172" font-family="Helvetica,sans-Serif" font-size="10.00">/SocketConnectionFactory.h</text>
</a>
</g>
</g>
<!-- Node3&#45;&gt;Node8 -->
<g id="edge7_Node000003_Node000008" class="edge">
<title>Node3&#45;&gt;Node8</title>
<g id="a_edge7_Node000003_Node000008"><a xlink:title=" ">
<path fill="none" stroke="#63b8ff" d="M133.28,-230.95C166.81,-221.2 211.65,-208.16 247.1,-197.84"/>
<polygon fill="#63b8ff" stroke="#63b8ff" points="248.21,-201.17 256.83,-195.01 246.25,-194.44 248.21,-201.17"/>
</a>
</g>
</g>
<!-- Node5 -->
<g id="Node000005" class="node">
<title>Node5</title>
<g id="a_Node000005"><a xlink:href="_descriptor_event_receiver_8h.html" target="_top" xlink:title=" ">
<polygon fill="white" stroke="#666666" points="170,-129 0,-129 0,-110 170,-110 170,-129"/>
<text text-anchor="middle" x="85" y="-117" font-family="Helvetica,sans-Serif" font-size="10.00">core/DescriptorEventReceiver.h</text>
</a>
</g>
</g>
<!-- Node4&#45;&gt;Node5 -->
<g id="edge4_Node000004_Node000005" class="edge">
<title>Node4&#45;&gt;Node5</title>
<g id="a_edge4_Node000004_Node000005"><a xlink:title=" ">
<path fill="none" stroke="#63b8ff" d="M85,-164.84C85,-157.21 85,-147.7 85,-139.45"/>
<polygon fill="#63b8ff" stroke="#63b8ff" points="88.5,-139.27 85,-129.27 81.5,-139.27 88.5,-139.27"/>
</a>
</g>
</g>
<!-- Node6 -->
<g id="Node000006" class="node">
<title>Node6</title>
<g id="a_Node000006"><a xlink:href="_event_receiver_8h.html" target="_top" xlink:title=" ">
<polygon fill="white" stroke="#666666" points="145,-74 25,-74 25,-55 145,-55 145,-74"/>
<text text-anchor="middle" x="85" y="-62" font-family="Helvetica,sans-Serif" font-size="10.00">core/EventReceiver.h</text>
</a>
</g>
</g>
<!-- Node5&#45;&gt;Node6 -->
<g id="edge5_Node000005_Node000006" class="edge">
<title>Node5&#45;&gt;Node6</title>
<g id="a_edge5_Node000005_Node000006"><a xlink:title=" ">
<path fill="none" stroke="#63b8ff" d="M85,-109.75C85,-102.8 85,-92.85 85,-84.13"/>
<polygon fill="#63b8ff" stroke="#63b8ff" points="88.5,-84.09 85,-74.09 81.5,-84.09 88.5,-84.09"/>
</a>
</g>
</g>
<!-- Node7 -->
<g id="Node000007" class="node">
<title>Node7</title>
<g id="a_Node000007"><a xlink:href="_event_8h.html" target="_top" xlink:title=" ">
<polygon fill="white" stroke="#666666" points="123.5,-19 46.5,-19 46.5,0 123.5,0 123.5,-19"/>
<text text-anchor="middle" x="85" y="-7" font-family="Helvetica,sans-Serif" font-size="10.00">core/Event.h</text>
</a>
</g>
</g>
<!-- Node6&#45;&gt;Node7 -->
<g id="edge6_Node000006_Node000007" class="edge">
<title>Node6&#45;&gt;Node7</title>
<g id="a_edge6_Node000006_Node000007"><a xlink:title=" ">
<path fill="none" stroke="#63b8ff" d="M85,-54.75C85,-47.8 85,-37.85 85,-29.13"/>
<polygon fill="#63b8ff" stroke="#63b8ff" points="88.5,-29.09 85,-19.09 81.5,-29.09 88.5,-29.09"/>
</a>
</g>
</g>
<!-- Node9&#45;&gt;Node3 -->
<g id="edge10_Node000009_Node000003" class="edge">
<title>Node9&#45;&gt;Node3</title>
<g id="a_edge10_Node000009_Node000003"><a xlink:title=" ">
<path fill="none" stroke="#63b8ff" d="M191.93,-296.95C172.04,-287.66 145.74,-275.38 124.21,-265.32"/>
<polygon fill="#63b8ff" stroke="#63b8ff" points="125.54,-262.07 115,-261.01 122.57,-268.42 125.54,-262.07"/>
</a>
</g>
</g>
<!-- Node10 -->
<g id="Node000010" class="node">
<title>Node10</title>
<g id="a_Node000010"><a xlink:href="_progress_log_8h.html" target="_top" xlink:title=" ">
<polygon fill="white" stroke="#666666" points="267.5,-255.5 158.5,-255.5 158.5,-236.5 267.5,-236.5 267.5,-255.5"/>
<text text-anchor="middle" x="213" y="-243.5" font-family="Helvetica,sans-Serif" font-size="10.00">core/ProgressLog.h</text>
</a>
</g>
</g>
<!-- Node9&#45;&gt;Node10 -->
<g id="edge9_Node000009_Node000010" class="edge">
<title>Node9&#45;&gt;Node10</title>
<g id="a_edge9_Node000009_Node000010"><a xlink:title=" ">
<path fill="none" stroke="#63b8ff" d="M220,-296.8C218.72,-287.7 217.05,-275.79 215.66,-265.9"/>
<polygon fill="#63b8ff" stroke="#63b8ff" points="219.1,-265.26 214.24,-255.84 212.17,-266.23 219.1,-265.26"/>
</a>
</g>
</g>
<!-- Node11 -->
<g id="Node000011" class="node">
<title>Node11</title>
<g id="a_Node000011"><a xlink:href="_socket_connection_factory_8hpp.html" target="_top" xlink:title=" ">
<polygon fill="white" stroke="#666666" points="448,-261 286,-261 286,-231 448,-231 448,-261"/>
<text text-anchor="start" x="294" y="-249" font-family="Helvetica,sans-Serif" font-size="10.00">core/socket/stream</text>
<text text-anchor="middle" x="367" y="-238" font-family="Helvetica,sans-Serif" font-size="10.00">/SocketConnectionFactory.hpp</text>
</a>
</g>
</g>
<!-- Node9&#45;&gt;Node11 -->
<g id="edge11_Node000009_Node000011" class="edge">
<title>Node9&#45;&gt;Node11</title>
<g id="a_edge11_Node000009_Node000011"><a xlink:title=" ">
<path fill="none" stroke="#63b8ff" d="M253.82,-296.95C274.97,-287.62 302.96,-275.27 325.81,-265.18"/>
<polygon fill="#63b8ff" stroke="#63b8ff" points="327.52,-268.25 335.25,-261.01 324.69,-261.85 327.52,-268.25"/>
</a>
</g>
</g>
<!-- Node11&#45;&gt;Node8 -->
<g id="edge12_Node000011_Node000008" class="edge">
<title>Node11&#45;&gt;Node8</title>
<g id="a_edge12_Node000011_Node000008"><a xlink:title=" ">
<path fill="none" stroke="#63b8ff" d="M353.24,-230.8C345.21,-222.51 334.93,-211.89 325.91,-202.59"/>
<polygon fill="#63b8ff" stroke="#63b8ff" points="328.19,-199.91 318.72,-195.16 323.17,-204.78 328.19,-199.91"/>
</a>
</g>
</g>
</g>
</svg>
