<?xml version="1.0" encoding="UTF-8" standalone="no"?>
<!DOCTYPE svg PUBLIC "-//W3C//DTD SVG 1.1//EN"
 "http://www.w3.org/Graphics/SVG/1.1/DTD/svg11.dtd">
<!-- Generated by graphviz version 14.1.1 (0)
 -->
<!-- Title: core/socket/stream/legacy/SocketAcceptor.h Pages: 1 -->
<!--zoomable 389 -->

<svg id="main" version="1.1" xmlns="http://www.w3.org/2000/svg" xmlns:xlink="http://www.w3.org/1999/xlink" xml:space="preserve" onload="init(evt)">

<style type="text/css"><![CDATA[
.node, .edge {opacity: 0.7;}
.node.selected, .edge.selected {opacity: 1;}
.edge:hover path { stroke: red; }
.edge:hover polygon { stroke: red; fill: red; }
]]></style>

<defs>
  <circle id="rim" cx="0" cy="0" r="7"/>
  <circle id="rim2" cx="0" cy="0" r="3.5"/>
  <g id="zoomPlus">
    <use xlink:href="#rim" fill="#404040"><set attributeName="fill" to="#808080" begin="zoomplus.mouseover" end="zoomplus.mouseout"/></use>
    <path d="M-4,0h8M0,-4v8" fill="none" stroke="white" stroke-width="1.5" pointer-events="none"/>
  </g>
  <g id="zoomMin">
    <use xlink:href="#rim" fill="#404040"><set attributeName="fill" to="#808080" begin="zoomminus.mouseover" end="zoomminus.mouseout"/></use>
    <path d="M-4,0h8" fill="none" stroke="white" stroke-width="1.5" pointer-events="none"/>
  </g>
  <g id="arrowUp" transform="translate(30 24)">
    <use xlink:href="#rim"/>
    <path pointer-events="none" fill="none" stroke="white" stroke-width="1.5" d="M0,-3.0v7 M-2.5,-0.5L0,-3.0L2.5,-0.5"/>
  </g>
  <g id="arrowRight" transform="rotate(90) translate(36 -43)">
    <use xlink:href="#rim"/>
    <path pointer-events="none" fill="none" stroke="white" stroke-width="1.5" d="M0,-3.0v7 M-2.5,-0.5L0,-3.0L2.5,-0.5"/>
  </g>
  <g id="arrowDown" transform="rotate(180) translate(-30 -48)">
    <use xlink:href="#rim"/>
    <path pointer-events="none" fill="none" stroke="white" stroke-width="1.5" d="M0,-3.0v7 M-2.5,-0.5L0,-3.0L2.5,-0.5"/>
  </g>
  <g id="arrowLeft" transform="rotate(270) translate(-36 17)">
    <use xlink:href="#rim"/>
    <path pointer-events="none" fill="none" stroke="white" stroke-width="1.5" d="M0,-3.0v7 M-2.5,-0.5L0,-3.0L2.5,-0.5"/>
  </g>
  <g id="resetDef">
    <use xlink:href="#rim2" fill="#404040"><set attributeName="fill" to="#808080" begin="reset.mouseover" end="reset.mouseout"/></use>
  </g>
</defs>
<script type="application/ecmascript">
var viewWidth = 2510;
var viewHeight = 389;
var sectionId = 'dynsection-1';
</script>
<script type="application/ecmascript" xlink:href="svg.min.js"/>
<svg id="graph" class="graph">
<g id="viewport">
<title>core/socket/stream/legacy/SocketAcceptor.h</title>
<!-- Node1 -->
<g id="Node000001" class="node">
<title>Node1</title>
<g id="a_Node000001"><a xlink:title=" ">
<polygon fill="#999999" stroke="#666666" points="1932.62,-381 1794.38,-381 1794.38,-347.5 1932.62,-347.5 1932.62,-381"/>
<text xml:space="preserve" text-anchor="start" x="1802.38" y="-367.5" font-family="Helvetica,sans-Serif" font-size="10.00">core/socket/stream</text>
<text xml:space="preserve" text-anchor="middle" x="1863.5" y="-354.75" font-family="Helvetica,sans-Serif" font-size="10.00">/legacy/SocketAcceptor.h</text>
</a>
</g>
</g>
<!-- Node2 -->
<g id="Node000002" class="node">
<title>Node2</title>
<g id="a_Node000002"><a xlink:href="legacy_2SocketAcceptor_8hpp.html" target="_top" xlink:title=" ">
<polygon fill="white" stroke="#666666" points="1863.62,-311.5 1713.38,-311.5 1713.38,-278 1863.62,-278 1863.62,-311.5"/>
<text xml:space="preserve" text-anchor="start" x="1721.38" y="-298" font-family="Helvetica,sans-Serif" font-size="10.00">core/socket/stream</text>
<text xml:space="preserve" text-anchor="middle" x="1788.5" y="-285.25" font-family="Helvetica,sans-Serif" font-size="10.00">/legacy/SocketAcceptor.hpp</text>
</a>
</g>
</g>
<!-- Node1&#45;&gt;Node2 -->
<g id="edge1_Node000001_Node000002" class="edge">
<title>Node1&#45;&gt;Node2</title>
<g id="a_edge1_Node000001_Node000002"><a xlink:title=" ">
<path fill="none" stroke="#63b8ff" d="M1837.18,-339.56C1827,-330.4 1815.61,-320.15 1806.41,-311.87"/>
<polygon fill="#63b8ff" stroke="#63b8ff" points="1834.83,-342.15 1844.6,-346.24 1839.51,-336.95 1834.83,-342.15"/>
</a>
</g>
</g>
<!-- Node8 -->
<g id="Node000008" class="node">
<title>Node8</title>
<g id="a_Node000008"><a xlink:href="net_2in_2stream_2legacy_2SocketServer_8h.html" target="_top" xlink:title=" ">
<polygon fill="white" stroke="#666666" points="1554.75,-311.5 1438.25,-311.5 1438.25,-278 1554.75,-278 1554.75,-311.5"/>
<text xml:space="preserve" text-anchor="start" x="1446.25" y="-298" font-family="Helvetica,sans-Serif" font-size="10.00">net/in/stream/legacy</text>
<text xml:space="preserve" text-anchor="middle" x="1496.5" y="-285.25" font-family="Helvetica,sans-Serif" font-size="10.00">/SocketServer.h</text>
</a>
</g>
</g>
<!-- Node1&#45;&gt;Node8 -->
<g id="edge7_Node000001_Node000008" class="edge">
<title>Node1&#45;&gt;Node8</title>
<g id="a_edge7_Node000001_Node000008"><a xlink:title=" ">
<path fill="none" stroke="#63b8ff" d="M1782.77,-350.54C1722.46,-340.74 1638.11,-326.38 1564.5,-311.5 1561.41,-310.88 1558.25,-310.22 1555.06,-309.53"/>
<polygon fill="#63b8ff" stroke="#63b8ff" points="1782.19,-353.99 1792.62,-352.13 1783.31,-347.08 1782.19,-353.99"/>
</a>
</g>
</g>
<!-- Node22 -->
<g id="Node000022" class="node">
<title>Node22</title>
<g id="a_Node000022"><a xlink:href="net_2in6_2stream_2legacy_2SocketServer_8h.html" target="_top" xlink:title=" ">
<polygon fill="white" stroke="#666666" points="1695.75,-311.5 1573.25,-311.5 1573.25,-278 1695.75,-278 1695.75,-311.5"/>
<text xml:space="preserve" text-anchor="start" x="1581.25" y="-298" font-family="Helvetica,sans-Serif" font-size="10.00">net/in6/stream/legacy</text>
<text xml:space="preserve" text-anchor="middle" x="1634.5" y="-285.25" font-family="Helvetica,sans-Serif" font-size="10.00">/SocketServer.h</text>
</a>
</g>
</g>
<!-- Node1&#45;&gt;Node22 -->
<g id="edge22_Node000001_Node000022" class="edge">
<title>Node1&#45;&gt;Node22</title>
<g id="a_edge22_Node000001_Node000022"><a xlink:title=" ">
<path fill="none" stroke="#63b8ff" d="M1797.77,-343.88C1763.43,-333.75 1721.89,-321.51 1689.3,-311.9"/>
<polygon fill="#63b8ff" stroke="#63b8ff" points="1796.62,-347.18 1807.2,-346.65 1798.59,-340.47 1796.62,-347.18"/>
</a>
</g>
</g>
<!-- Node29 -->
<g id="Node000029" class="node">
<title>Node29</title>
<g id="a_Node000029"><a xlink:href="net_2l2_2stream_2legacy_2SocketServer_8h.html" target="_top" xlink:title=" ">
<polygon fill="white" stroke="#666666" points="1997.75,-311.5 1881.25,-311.5 1881.25,-278 1997.75,-278 1997.75,-311.5"/>
<text xml:space="preserve" text-anchor="start" x="1889.25" y="-298" font-family="Helvetica,sans-Serif" font-size="10.00">net/l2/stream/legacy</text>
<text xml:space="preserve" text-anchor="middle" x="1939.5" y="-285.25" font-family="Helvetica,sans-Serif" font-size="10.00">/SocketServer.h</text>
</a>
</g>
</g>
<!-- Node1&#45;&gt;Node29 -->
<g id="edge30_Node000001_Node000029" class="edge">
<title>Node1&#45;&gt;Node29</title>
<g id="a_edge30_Node000001_Node000029"><a xlink:title=" ">
<path fill="none" stroke="#63b8ff" d="M1889.86,-339.84C1900.26,-330.6 1911.94,-320.23 1921.35,-311.87"/>
<polygon fill="#63b8ff" stroke="#63b8ff" points="1887.8,-336.99 1882.64,-346.25 1892.44,-342.22 1887.8,-336.99"/>
</a>
</g>
</g>
<!-- Node30 -->
<g id="Node000030" class="node">
<title>Node30</title>
<g id="a_Node000030"><a xlink:href="net_2rc_2stream_2legacy_2SocketServer_8h.html" target="_top" xlink:title=" ">
<polygon fill="white" stroke="#666666" points="2132.75,-311.5 2016.25,-311.5 2016.25,-278 2132.75,-278 2132.75,-311.5"/>
<text xml:space="preserve" text-anchor="start" x="2024.25" y="-298" font-family="Helvetica,sans-Serif" font-size="10.00">net/rc/stream/legacy</text>
<text xml:space="preserve" text-anchor="middle" x="2074.5" y="-285.25" font-family="Helvetica,sans-Serif" font-size="10.00">/SocketServer.h</text>
</a>
</g>
</g>
<!-- Node1&#45;&gt;Node30 -->
<g id="edge32_Node000001_Node000030" class="edge">
<title>Node1&#45;&gt;Node30</title>
<g id="a_edge32_Node000001_Node000030"><a xlink:title=" ">
<path fill="none" stroke="#63b8ff" d="M1924.89,-343.61C1956.37,-333.54 1994.24,-321.42 2024.01,-311.9"/>
<polygon fill="#63b8ff" stroke="#63b8ff" points="1923.94,-340.24 1915.48,-346.62 1926.07,-346.91 1923.94,-340.24"/>
</a>
</g>
</g>
<!-- Node35 -->
<g id="Node000035" class="node">
<title>Node35</title>
<g id="a_Node000035"><a xlink:href="net_2un_2stream_2legacy_2SocketServer_8h.html" target="_top" xlink:title=" ">
<polygon fill="white" stroke="#666666" points="2270.25,-311.5 2150.75,-311.5 2150.75,-278 2270.25,-278 2270.25,-311.5"/>
<text xml:space="preserve" text-anchor="start" x="2158.75" y="-298" font-family="Helvetica,sans-Serif" font-size="10.00">net/un/stream/legacy</text>
<text xml:space="preserve" text-anchor="middle" x="2210.5" y="-285.25" font-family="Helvetica,sans-Serif" font-size="10.00">/SocketServer.h</text>
</a>
</g>
</g>
<!-- Node1&#45;&gt;Node35 -->
<g id="edge38_Node000001_Node000035" class="edge">
<title>Node1&#45;&gt;Node35</title>
<g id="a_edge38_Node000001_Node000035"><a xlink:title=" ">
<path fill="none" stroke="#63b8ff" d="M1944.25,-349.11C1999.82,-339.16 2075.28,-325.22 2141.5,-311.5 2144.39,-310.9 2147.34,-310.28 2150.32,-309.64"/>
<polygon fill="#63b8ff" stroke="#63b8ff" points="1943.78,-345.64 1934.55,-350.84 1945.01,-352.53 1943.78,-345.64"/>
</a>
</g>
</g>
<!-- Node3 -->
<g id="Node000003" class="node">
<title>Node3</title>
<g id="a_Node000003"><a xlink:href="in_2stream_2legacy_2SocketServer_8cpp.html" target="_top" xlink:title=" ">
<polygon fill="white" stroke="#666666" points="1639.75,-242 1523.25,-242 1523.25,-208.5 1639.75,-208.5 1639.75,-242"/>
<text xml:space="preserve" text-anchor="start" x="1531.25" y="-228.5" font-family="Helvetica,sans-Serif" font-size="10.00">net/in/stream/legacy</text>
<text xml:space="preserve" text-anchor="middle" x="1581.5" y="-215.75" font-family="Helvetica,sans-Serif" font-size="10.00">/SocketServer.cpp</text>
</a>
</g>
</g>
<!-- Node2&#45;&gt;Node3 -->
<g id="edge2_Node000002_Node000003" class="edge">
<title>Node2&#45;&gt;Node3</title>
<g id="a_edge2_Node000002_Node000003"><a xlink:title=" ">
<path fill="none" stroke="#63b8ff" d="M1728.28,-274.11C1697.39,-264.04 1660.24,-251.92 1631.04,-242.4"/>
<polygon fill="#63b8ff" stroke="#63b8ff" points="1726.89,-277.34 1737.48,-277.11 1729.06,-270.69 1726.89,-277.34"/>
</a>
</g>
</g>
<!-- Node4 -->
<g id="Node000004" class="node">
<title>Node4</title>
<g id="a_Node000004"><a xlink:href="in6_2stream_2legacy_2SocketServer_8cpp.html" target="_top" xlink:title=" ">
<polygon fill="white" stroke="#666666" points="1780.75,-242 1658.25,-242 1658.25,-208.5 1780.75,-208.5 1780.75,-242"/>
<text xml:space="preserve" text-anchor="start" x="1666.25" y="-228.5" font-family="Helvetica,sans-Serif" font-size="10.00">net/in6/stream/legacy</text>
<text xml:space="preserve" text-anchor="middle" x="1719.5" y="-215.75" font-family="Helvetica,sans-Serif" font-size="10.00">/SocketServer.cpp</text>
</a>
</g>
</g>
<!-- Node2&#45;&gt;Node4 -->
<g id="edge3_Node000002_Node000004" class="edge">
<title>Node2&#45;&gt;Node4</title>
<g id="a_edge3_Node000002_Node000004"><a xlink:title=" ">
<path fill="none" stroke="#63b8ff" d="M1763.94,-269.72C1754.57,-260.56 1744.14,-250.35 1735.73,-242.13"/>
<polygon fill="#63b8ff" stroke="#63b8ff" points="1761.47,-272.2 1771.07,-276.7 1766.37,-267.2 1761.47,-272.2"/>
</a>
</g>
</g>
<!-- Node5 -->
<g id="Node000005" class="node">
<title>Node5</title>
<g id="a_Node000005"><a xlink:href="l2_2stream_2legacy_2SocketServer_8cpp.html" target="_top" xlink:title=" ">
<polygon fill="white" stroke="#666666" points="1915.75,-242 1799.25,-242 1799.25,-208.5 1915.75,-208.5 1915.75,-242"/>
<text xml:space="preserve" text-anchor="start" x="1807.25" y="-228.5" font-family="Helvetica,sans-Serif" font-size="10.00">net/l2/stream/legacy</text>
<text xml:space="preserve" text-anchor="middle" x="1857.5" y="-215.75" font-family="Helvetica,sans-Serif" font-size="10.00">/SocketServer.cpp</text>
</a>
</g>
</g>
<!-- Node2&#45;&gt;Node5 -->
<g id="edge4_Node000002_Node000005" class="edge">
<title>Node2&#45;&gt;Node5</title>
<g id="a_edge4_Node000002_Node000005"><a xlink:title=" ">
<path fill="none" stroke="#63b8ff" d="M1813.06,-269.72C1822.43,-260.56 1832.86,-250.35 1841.27,-242.13"/>
<polygon fill="#63b8ff" stroke="#63b8ff" points="1810.63,-267.2 1805.93,-276.7 1815.53,-272.2 1810.63,-267.2"/>
</a>
</g>
</g>
<!-- Node6 -->
<g id="Node000006" class="node">
<title>Node6</title>
<g id="a_Node000006"><a xlink:href="rc_2stream_2legacy_2SocketServer_8cpp.html" target="_top" xlink:title=" ">
<polygon fill="white" stroke="#666666" points="2050.75,-242 1934.25,-242 1934.25,-208.5 2050.75,-208.5 2050.75,-242"/>
<text xml:space="preserve" text-anchor="start" x="1942.25" y="-228.5" font-family="Helvetica,sans-Serif" font-size="10.00">net/rc/stream/legacy</text>
<text xml:space="preserve" text-anchor="middle" x="1992.5" y="-215.75" font-family="Helvetica,sans-Serif" font-size="10.00">/SocketServer.cpp</text>
</a>
</g>
</g>
<!-- Node2&#45;&gt;Node6 -->
<g id="edge5_Node000002_Node000006" class="edge">
<title>Node2&#45;&gt;Node6</title>
<g id="a_edge5_Node000002_Node000006"><a xlink:title=" ">
<path fill="none" stroke="#63b8ff" d="M1848.25,-273.98C1878.61,-263.94 1915.03,-251.88 1943.68,-242.4"/>
<polygon fill="#63b8ff" stroke="#63b8ff" points="1847.19,-270.64 1838.8,-277.11 1849.39,-277.29 1847.19,-270.64"/>
</a>
</g>
</g>
<!-- Node7 -->
<g id="Node000007" class="node">
<title>Node7</title>
<g id="a_Node000007"><a xlink:href="un_2stream_2legacy_2SocketServer_8cpp.html" target="_top" xlink:title=" ">
<polygon fill="white" stroke="#666666" points="2188.25,-242 2068.75,-242 2068.75,-208.5 2188.25,-208.5 2188.25,-242"/>
<text xml:space="preserve" text-anchor="start" x="2076.75" y="-228.5" font-family="Helvetica,sans-Serif" font-size="10.00">net/un/stream/legacy</text>
<text xml:space="preserve" text-anchor="middle" x="2128.5" y="-215.75" font-family="Helvetica,sans-Serif" font-size="10.00">/SocketServer.cpp</text>
</a>
</g>
</g>
<!-- Node2&#45;&gt;Node7 -->
<g id="edge6_Node000002_Node000007" class="edge">
<title>Node2&#45;&gt;Node7</title>
<g id="a_edge6_Node000002_Node000007"><a xlink:title=" ">
<path fill="none" stroke="#63b8ff" d="M1874.9,-277.41C1947.23,-263.71 2041.47,-245.78 2059.5,-242 2062.39,-241.4 2065.34,-240.77 2068.32,-240.12"/>
<polygon fill="#63b8ff" stroke="#63b8ff" points="1874.6,-273.91 1865.43,-279.21 1875.91,-280.78 1874.6,-273.91"/>
</a>
</g>
</g>
<!-- Node8&#45;&gt;Node3 -->
<g id="edge8_Node000008_Node000003" class="edge">
<title>Node8&#45;&gt;Node3</title>
<g id="a_edge8_Node000008_Node000003"><a xlink:title=" ">
<path fill="none" stroke="#63b8ff" d="M1525.64,-270.61C1537.35,-261.31 1550.57,-250.81 1561.21,-242.37"/>
<polygon fill="#63b8ff" stroke="#63b8ff" points="1523.48,-267.85 1517.83,-276.81 1527.84,-273.33 1523.48,-267.85"/>
</a>
</g>
</g>
<!-- Node9 -->
<g id="Node000009" class="node">
<title>Node9</title>
<g id="a_Node000009"><a xlink:href="web_2http_2legacy_2in_2Server_8h.html" target="_top" xlink:title=" ">
<polygon fill="white" stroke="#666666" points="1131.5,-242 1025.5,-242 1025.5,-208.5 1131.5,-208.5 1131.5,-242"/>
<text xml:space="preserve" text-anchor="start" x="1033.5" y="-228.5" font-family="Helvetica,sans-Serif" font-size="10.00">web/http/legacy/in</text>
<text xml:space="preserve" text-anchor="middle" x="1078.5" y="-215.75" font-family="Helvetica,sans-Serif" font-size="10.00">/Server.h</text>
</a>
</g>
</g>
<!-- Node8&#45;&gt;Node9 -->
<g id="edge9_Node000008_Node000009" class="edge">
<title>Node8&#45;&gt;Node9</title>
<g id="a_edge9_Node000008_Node000009"><a xlink:title=" ">
<path fill="none" stroke="#63b8ff" d="M1426.58,-282.46C1343.48,-269.04 1206.67,-246.95 1131.71,-234.84"/>
<polygon fill="#63b8ff" stroke="#63b8ff" points="1426.01,-285.91 1436.44,-284.05 1427.13,-279 1426.01,-285.91"/>
</a>
</g>
</g>
<!-- Node10 -->
<g id="Node000010" class="node">
<title>Node10</title>
<g id="a_Node000010"><a xlink:href="legacy_2in_2WebApp_8h.html" target="_top" xlink:title=" ">
<polygon fill="white" stroke="#666666" points="947.5,-166.12 793.5,-166.12 793.5,-145.38 947.5,-145.38 947.5,-166.12"/>
<text xml:space="preserve" text-anchor="middle" x="870.5" y="-152.62" font-family="Helvetica,sans-Serif" font-size="10.00">express/legacy/in/WebApp.h</text>
</a>
</g>
</g>
<!-- Node9&#45;&gt;Node10 -->
<g id="edge10_Node000009_Node000010" class="edge">
<title>Node9&#45;&gt;Node10</title>
<g id="a_edge10_Node000009_Node000010"><a xlink:title=" ">
<path fill="none" stroke="#63b8ff" d="M1018.12,-204.66C979.69,-192.19 931.56,-176.57 900.91,-166.62"/>
<polygon fill="#63b8ff" stroke="#63b8ff" points="1016.65,-207.86 1027.24,-207.61 1018.81,-201.2 1016.65,-207.86"/>
</a>
</g>
</g>
<!-- Node11 -->
<g id="Node000011" class="node">
<title>Node11</title>
<g id="a_Node000011"><a xlink:href="jsonserver_8cpp.html" target="_top" xlink:title=" ">
<polygon fill="white" stroke="#666666" points="927.25,-96.62 813.75,-96.62 813.75,-75.88 927.25,-75.88 927.25,-96.62"/>
<text xml:space="preserve" text-anchor="middle" x="870.5" y="-83.12" font-family="Helvetica,sans-Serif" font-size="10.00">apps/jsonserver.cpp</text>
</a>
</g>
</g>
<!-- Node10&#45;&gt;Node11 -->
<g id="edge11_Node000010_Node000011" class="edge">
<title>Node10&#45;&gt;Node11</title>
<g id="a_edge11_Node000010_Node000011"><a xlink:title=" ">
<path fill="none" stroke="#63b8ff" d="M870.5,-133.94C870.5,-121.59 870.5,-106.52 870.5,-96.9"/>
<polygon fill="#63b8ff" stroke="#63b8ff" points="867,-133.57 870.5,-143.57 874,-133.57 867,-133.57"/>
</a>
</g>
</g>
<!-- Node12 -->
<g id="Node000012" class="node">
<title>Node12</title>
<g id="a_Node000012"><a xlink:href="AuthorizationServer_8cpp.html" target="_top" xlink:title=" ">
<polygon fill="white" stroke="#666666" points="1117.5,-103 945.5,-103 945.5,-69.5 1117.5,-69.5 1117.5,-103"/>
<text xml:space="preserve" text-anchor="start" x="953.5" y="-89.5" font-family="Helvetica,sans-Serif" font-size="10.00">apps/oauth2/authorization</text>
<text xml:space="preserve" text-anchor="middle" x="1031.5" y="-76.75" font-family="Helvetica,sans-Serif" font-size="10.00">_server/AuthorizationServer.cpp</text>
</a>
</g>
</g>
<!-- Node10&#45;&gt;Node12 -->
<g id="edge12_Node000010_Node000012" class="edge">
<title>Node10&#45;&gt;Node12</title>
<g id="a_edge12_Node000010_Node000012"><a xlink:title=" ">
<path fill="none" stroke="#63b8ff" d="M904.33,-140.57C930.17,-129.73 965.82,-114.79 992.79,-103.48"/>
<polygon fill="#63b8ff" stroke="#63b8ff" points="903.18,-137.26 895.31,-144.35 905.88,-143.71 903.18,-137.26"/>
</a>
</g>
</g>
<!-- Node13 -->
<g id="Node000013" class="node">
<title>Node13</title>
<g id="a_Node000013"><a xlink:href="ClientApp_8cpp.html" target="_top" xlink:title=" ">
<polygon fill="white" stroke="#666666" points="1245.38,-103 1135.62,-103 1135.62,-69.5 1245.38,-69.5 1245.38,-103"/>
<text xml:space="preserve" text-anchor="start" x="1143.62" y="-89.5" font-family="Helvetica,sans-Serif" font-size="10.00">apps/oauth2/client</text>
<text xml:space="preserve" text-anchor="middle" x="1190.5" y="-76.75" font-family="Helvetica,sans-Serif" font-size="10.00">_app/ClientApp.cpp</text>
</a>
</g>
</g>
<!-- Node10&#45;&gt;Node13 -->
<g id="edge13_Node000010_Node000013" class="edge">
<title>Node10&#45;&gt;Node13</title>
<g id="a_edge13_Node000010_Node000013"><a xlink:title=" ">
<path fill="none" stroke="#63b8ff" d="M933.64,-142.75C985.55,-132.7 1060.96,-117.68 1126.5,-103 1129.4,-102.35 1132.38,-101.67 1135.38,-100.97"/>
<polygon fill="#63b8ff" stroke="#63b8ff" points="933.25,-139.26 924.09,-144.59 934.58,-146.13 933.25,-139.26"/>
</a>
</g>
</g>
<!-- Node14 -->
<g id="Node000014" class="node">
<title>Node14</title>
<g id="a_Node000014"><a xlink:href="ResourceServer_8cpp.html" target="_top" xlink:title=" ">
<polygon fill="white" stroke="#666666" points="1415.38,-103 1263.62,-103 1263.62,-69.5 1415.38,-69.5 1415.38,-103"/>
<text xml:space="preserve" text-anchor="start" x="1271.62" y="-89.5" font-family="Helvetica,sans-Serif" font-size="10.00">apps/oauth2/resource</text>
<text xml:space="preserve" text-anchor="middle" x="1339.5" y="-76.75" font-family="Helvetica,sans-Serif" font-size="10.00">_server/ResourceServer.cpp</text>
</a>
</g>
</g>
<!-- Node10&#45;&gt;Node14 -->
<g id="edge14_Node000010_Node000014" class="edge">
<title>Node10&#45;&gt;Node14</title>
<g id="a_edge14_Node000010_Node000014"><a xlink:title=" ">
<path fill="none" stroke="#63b8ff" d="M959.11,-144.07C1037.05,-134.37 1153.52,-119.15 1254.5,-103 1257.46,-102.53 1260.48,-102.03 1263.53,-101.52"/>
<polygon fill="#63b8ff" stroke="#63b8ff" points="958.89,-140.57 949.39,-145.27 959.75,-147.51 958.89,-140.57"/>
</a>
</g>
</g>
<!-- Node15 -->
<g id="Node000015" class="node">
<title>Node15</title>
<g id="a_Node000015"><a xlink:href="testpost_8cpp.html" target="_top" xlink:title=" ">
<polygon fill="white" stroke="#666666" points="1535.62,-96.62 1433.38,-96.62 1433.38,-75.88 1535.62,-75.88 1535.62,-96.62"/>
<text xml:space="preserve" text-anchor="middle" x="1484.5" y="-83.12" font-family="Helvetica,sans-Serif" font-size="10.00">apps/testpost.cpp</text>
</a>
</g>
</g>
<!-- Node10&#45;&gt;Node15 -->
<g id="edge15_Node000010_Node000015" class="edge">
<title>Node10&#45;&gt;Node15</title>
<g id="a_edge15_Node000010_Node000015"><a xlink:title=" ">
<path fill="none" stroke="#63b8ff" d="M959,-150.95C1068.86,-145.21 1261.65,-131.78 1424.5,-103 1433.2,-101.46 1442.48,-99.29 1451.08,-97.06"/>
<polygon fill="#63b8ff" stroke="#63b8ff" points="958.97,-147.45 949.17,-151.45 959.33,-154.44 958.97,-147.45"/>
</a>
</g>
</g>
<!-- Node16 -->
<g id="Node000016" class="node">
<title>Node16</title>
<g id="a_Node000016"><a xlink:href="testregex_8cpp.html" target="_top" xlink:title=" ">
<polygon fill="white" stroke="#666666" points="109,-96.62 0,-96.62 0,-75.88 109,-75.88 109,-96.62"/>
<text xml:space="preserve" text-anchor="middle" x="54.5" y="-83.12" font-family="Helvetica,sans-Serif" font-size="10.00">apps/testregex.cpp</text>
</a>
</g>
</g>
<!-- Node10&#45;&gt;Node16 -->
<g id="edge16_Node000010_Node000016" class="edge">
<title>Node10&#45;&gt;Node16</title>
<g id="a_edge16_Node000010_Node000016"><a xlink:title=" ">
<path fill="none" stroke="#63b8ff" d="M782,-153.59C640.86,-150.65 356.42,-140.18 118.5,-103 109.12,-101.53 99.09,-99.36 89.82,-97.1"/>
<polygon fill="#63b8ff" stroke="#63b8ff" points="781.57,-157.09 791.64,-153.79 781.71,-150.09 781.57,-157.09"/>
</a>
</g>
</g>
<!-- Node17 -->
<g id="Node000017" class="node">
<title>Node17</title>
<g id="a_Node000017"><a xlink:href="verysimpleserver_8cpp.html" target="_top" xlink:title=" ">
<polygon fill="white" stroke="#666666" points="275.5,-96.62 127.5,-96.62 127.5,-75.88 275.5,-75.88 275.5,-96.62"/>
<text xml:space="preserve" text-anchor="middle" x="201.5" y="-83.12" font-family="Helvetica,sans-Serif" font-size="10.00">apps/verysimpleserver.cpp</text>
</a>
</g>
</g>
<!-- Node10&#45;&gt;Node17 -->
<g id="edge17_Node000010_Node000017" class="edge">
<title>Node10&#45;&gt;Node17</title>
<g id="a_edge17_Node000010_Node000017"><a xlink:title=" ">
<path fill="none" stroke="#63b8ff" d="M782.26,-149.7C667.3,-142.5 460.24,-127.37 284.5,-103 272.88,-101.39 260.41,-99.25 248.77,-97.06"/>
<polygon fill="#63b8ff" stroke="#63b8ff" points="781.73,-153.17 791.92,-150.3 782.16,-146.19 781.73,-153.17"/>
</a>
</g>
</g>
<!-- Node18 -->
<g id="Node000018" class="node">
<title>Node18</title>
<g id="a_Node000018"><a xlink:href="warema-jalousien_8cpp.html" target="_top" xlink:title=" ">
<polygon fill="white" stroke="#666666" points="443.62,-96.62 293.38,-96.62 293.38,-75.88 443.62,-75.88 443.62,-96.62"/>
<text xml:space="preserve" text-anchor="middle" x="368.5" y="-83.12" font-family="Helvetica,sans-Serif" font-size="10.00">apps/warema&#45;jalousien.cpp</text>
</a>
</g>
</g>
<!-- Node10&#45;&gt;Node18 -->
<g id="edge18_Node000010_Node000018" class="edge">
<title>Node10&#45;&gt;Node18</title>
<g id="a_edge18_Node000010_Node000018"><a xlink:title=" ">
<path fill="none" stroke="#63b8ff" d="M781.87,-145.4C697.11,-136.07 565.79,-120.62 452.5,-103 441.36,-101.27 429.43,-99.18 418.16,-97.09"/>
<polygon fill="#63b8ff" stroke="#63b8ff" points="781.43,-148.87 791.75,-146.48 782.2,-141.91 781.43,-148.87"/>
</a>
</g>
</g>
<!-- Node19 -->
<g id="Node000019" class="node">
<title>Node19</title>
<g id="a_Node000019"><a xlink:href="websocket_2echoserver_8cpp.html" target="_top" xlink:title=" ">
<polygon fill="white" stroke="#666666" points="633.12,-96.62 461.88,-96.62 461.88,-75.88 633.12,-75.88 633.12,-96.62"/>
<text xml:space="preserve" text-anchor="middle" x="547.5" y="-83.12" font-family="Helvetica,sans-Serif" font-size="10.00">apps/websocket/echoserver.cpp</text>
</a>
</g>
</g>
<!-- Node10&#45;&gt;Node19 -->
<g id="edge19_Node000010_Node000019" class="edge">
<title>Node10&#45;&gt;Node19</title>
<g id="a_edge19_Node000010_Node000019"><a xlink:title=" ">
<path fill="none" stroke="#63b8ff" d="M812.32,-142.59C749.97,-129.56 652.2,-109.13 594.52,-97.08"/>
<polygon fill="#63b8ff" stroke="#63b8ff" points="811.55,-146.01 822.05,-144.63 812.98,-139.15 811.55,-146.01"/>
</a>
</g>
</g>
<!-- Node20 -->
<g id="Node000020" class="node">
<title>Node20</title>
<g id="a_Node000020"><a xlink:href="express_2legacy_2in_2Server_8h.html" target="_top" xlink:title=" ">
<polygon fill="white" stroke="#666666" points="796,-96.62 651,-96.62 651,-75.88 796,-75.88 796,-96.62"/>
<text xml:space="preserve" text-anchor="middle" x="723.5" y="-83.12" font-family="Helvetica,sans-Serif" font-size="10.00">express/legacy/in/Server.h</text>
</a>
</g>
</g>
<!-- Node10&#45;&gt;Node20 -->
<g id="edge20_Node000010_Node000020" class="edge">
<title>Node10&#45;&gt;Node20</title>
<g id="a_edge20_Node000010_Node000020"><a xlink:title=" ">
<path fill="none" stroke="#63b8ff" d="M838.92,-140.25C810.54,-127.22 769.63,-108.43 744.9,-97.08"/>
<polygon fill="#63b8ff" stroke="#63b8ff" points="837.2,-143.31 847.75,-144.3 840.12,-136.95 837.2,-143.31"/>
</a>
</g>
</g>
<!-- Node21 -->
<g id="Node000021" class="node">
<title>Node21</title>
<g id="a_Node000021"><a xlink:href="legacy_2in_2Server_8cpp.html" target="_top" xlink:title=" ">
<polygon fill="white" stroke="#666666" points="801.62,-27.12 645.38,-27.12 645.38,-6.38 801.62,-6.38 801.62,-27.12"/>
<text xml:space="preserve" text-anchor="middle" x="723.5" y="-13.62" font-family="Helvetica,sans-Serif" font-size="10.00">express/legacy/in/Server.cpp</text>
</a>
</g>
</g>
<!-- Node20&#45;&gt;Node21 -->
<g id="edge21_Node000020_Node000021" class="edge">
<title>Node20&#45;&gt;Node21</title>
<g id="a_edge21_Node000020_Node000021"><a xlink:title=" ">
<path fill="none" stroke="#63b8ff" d="M723.5,-64.44C723.5,-52.09 723.5,-37.02 723.5,-27.4"/>
<polygon fill="#63b8ff" stroke="#63b8ff" points="720,-64.07 723.5,-74.07 727,-64.07 720,-64.07"/>
</a>
</g>
</g>
<!-- Node22&#45;&gt;Node4 -->
<g id="edge23_Node000022_Node000004" class="edge">
<title>Node22&#45;&gt;Node4</title>
<g id="a_edge23_Node000022_Node000004"><a xlink:title=" ">
<path fill="none" stroke="#63b8ff" d="M1663.64,-270.61C1675.35,-261.31 1688.57,-250.81 1699.21,-242.37"/>
<polygon fill="#63b8ff" stroke="#63b8ff" points="1661.48,-267.85 1655.83,-276.81 1665.84,-273.33 1661.48,-267.85"/>
</a>
</g>
</g>
<!-- Node23 -->
<g id="Node000023" class="node">
<title>Node23</title>
<g id="a_Node000023"><a xlink:href="web_2http_2legacy_2in6_2Server_8h.html" target="_top" xlink:title=" ">
<polygon fill="white" stroke="#666666" points="1505.5,-242 1393.5,-242 1393.5,-208.5 1505.5,-208.5 1505.5,-242"/>
<text xml:space="preserve" text-anchor="start" x="1401.5" y="-228.5" font-family="Helvetica,sans-Serif" font-size="10.00">web/http/legacy/in6</text>
<text xml:space="preserve" text-anchor="middle" x="1449.5" y="-215.75" font-family="Helvetica,sans-Serif" font-size="10.00">/Server.h</text>
</a>
</g>
</g>
<!-- Node22&#45;&gt;Node23 -->
<g id="edge24_Node000022_Node000023" class="edge">
<title>Node22&#45;&gt;Node23</title>
<g id="a_edge24_Node000022_Node000023"><a xlink:title=" ">
<path fill="none" stroke="#63b8ff" d="M1579.59,-273.72C1552.21,-263.72 1519.53,-251.8 1493.77,-242.4"/>
<polygon fill="#63b8ff" stroke="#63b8ff" points="1578.17,-276.92 1588.77,-277.06 1580.57,-270.35 1578.17,-276.92"/>
</a>
</g>
</g>
<!-- Node24 -->
<g id="Node000024" class="node">
<title>Node24</title>
<g id="a_Node000024"><a xlink:href="legacy_2in6_2WebApp_8h.html" target="_top" xlink:title=" ">
<polygon fill="white" stroke="#666666" points="1779.25,-172.5 1671.75,-172.5 1671.75,-139 1779.25,-139 1779.25,-172.5"/>
<text xml:space="preserve" text-anchor="start" x="1679.75" y="-159" font-family="Helvetica,sans-Serif" font-size="10.00">express/legacy/in6</text>
<text xml:space="preserve" text-anchor="middle" x="1725.5" y="-146.25" font-family="Helvetica,sans-Serif" font-size="10.00">/WebApp.h</text>
</a>
</g>
</g>
<!-- Node23&#45;&gt;Node24 -->
<g id="edge25_Node000023_Node000024" class="edge">
<title>Node23&#45;&gt;Node24</title>
<g id="a_edge25_Node000023_Node000024"><a xlink:title=" ">
<path fill="none" stroke="#63b8ff" d="M1516.79,-207.79C1564.25,-196.19 1627.01,-180.84 1671.27,-170.01"/>
<polygon fill="#63b8ff" stroke="#63b8ff" points="1516.04,-204.37 1507.16,-210.15 1517.7,-211.17 1516.04,-204.37"/>
</a>
</g>
</g>
<!-- Node25 -->
<g id="Node000025" class="node">
<title>Node25</title>
<g id="a_Node000025"><a xlink:href="testbasicauthentication_8cpp.html" target="_top" xlink:title=" ">
<polygon fill="white" stroke="#666666" points="1731.12,-96.62 1553.88,-96.62 1553.88,-75.88 1731.12,-75.88 1731.12,-96.62"/>
<text xml:space="preserve" text-anchor="middle" x="1642.5" y="-83.12" font-family="Helvetica,sans-Serif" font-size="10.00">apps/testbasicauthentication.cpp</text>
</a>
</g>
</g>
<!-- Node24&#45;&gt;Node25 -->
<g id="edge26_Node000024_Node000025" class="edge">
<title>Node24&#45;&gt;Node25</title>
<g id="a_edge26_Node000024_Node000025"><a xlink:title=" ">
<path fill="none" stroke="#63b8ff" d="M1697.17,-131.71C1682.64,-119.89 1665.7,-106.12 1654.58,-97.07"/>
<polygon fill="#63b8ff" stroke="#63b8ff" points="1694.69,-134.2 1704.66,-137.8 1699.11,-128.77 1694.69,-134.2"/>
</a>
</g>
</g>
<!-- Node26 -->
<g id="Node000026" class="node">
<title>Node26</title>
<g id="a_Node000026"><a xlink:href="vhostserver_8cpp.html" target="_top" xlink:title=" ">
<polygon fill="white" stroke="#666666" points="1869.62,-96.62 1749.38,-96.62 1749.38,-75.88 1869.62,-75.88 1869.62,-96.62"/>
<text xml:space="preserve" text-anchor="middle" x="1809.5" y="-83.12" font-family="Helvetica,sans-Serif" font-size="10.00">apps/vhostserver.cpp</text>
</a>
</g>
</g>
<!-- Node24&#45;&gt;Node26 -->
<g id="edge27_Node000024_Node000026" class="edge">
<title>Node24&#45;&gt;Node26</title>
<g id="a_edge27_Node000024_Node000026"><a xlink:title=" ">
<path fill="none" stroke="#63b8ff" d="M1754.17,-131.71C1768.88,-119.89 1786.02,-106.12 1797.28,-97.07"/>
<polygon fill="#63b8ff" stroke="#63b8ff" points="1752.19,-128.81 1746.59,-137.81 1756.57,-134.27 1752.19,-128.81"/>
</a>
</g>
</g>
<!-- Node27 -->
<g id="Node000027" class="node">
<title>Node27</title>
<g id="a_Node000027"><a xlink:href="express_2legacy_2in6_2Server_8h.html" target="_top" xlink:title=" ">
<polygon fill="white" stroke="#666666" points="1995.25,-103 1887.75,-103 1887.75,-69.5 1995.25,-69.5 1995.25,-103"/>
<text xml:space="preserve" text-anchor="start" x="1895.75" y="-89.5" font-family="Helvetica,sans-Serif" font-size="10.00">express/legacy/in6</text>
<text xml:space="preserve" text-anchor="middle" x="1941.5" y="-76.75" font-family="Helvetica,sans-Serif" font-size="10.00">/Server.h</text>
</a>
</g>
</g>
<!-- Node24&#45;&gt;Node27 -->
<g id="edge28_Node000024_Node000027" class="edge">
<title>Node24&#45;&gt;Node27</title>
<g id="a_edge28_Node000024_Node000027"><a xlink:title=" ">
<path fill="none" stroke="#63b8ff" d="M1787.92,-135.24C1820.23,-125.15 1859.21,-112.97 1889.81,-103.4"/>
<polygon fill="#63b8ff" stroke="#63b8ff" points="1787.18,-131.81 1778.68,-138.13 1789.27,-138.49 1787.18,-131.81"/>
</a>
</g>
</g>
<!-- Node28 -->
<g id="Node000028" class="node">
<title>Node28</title>
<g id="a_Node000028"><a xlink:href="legacy_2in6_2Server_8cpp.html" target="_top" xlink:title=" ">
<polygon fill="white" stroke="#666666" points="1995.25,-33.5 1887.75,-33.5 1887.75,0 1995.25,0 1995.25,-33.5"/>
<text xml:space="preserve" text-anchor="start" x="1895.75" y="-20" font-family="Helvetica,sans-Serif" font-size="10.00">express/legacy/in6</text>
<text xml:space="preserve" text-anchor="middle" x="1941.5" y="-7.25" font-family="Helvetica,sans-Serif" font-size="10.00">/Server.cpp</text>
</a>
</g>
</g>
<!-- Node27&#45;&gt;Node28 -->
<g id="edge29_Node000027_Node000028" class="edge">
<title>Node27&#45;&gt;Node28</title>
<g id="a_edge29_Node000027_Node000028"><a xlink:title=" ">
<path fill="none" stroke="#63b8ff" d="M1941.5,-57.81C1941.5,-49.59 1941.5,-40.84 1941.5,-33.63"/>
<polygon fill="#63b8ff" stroke="#63b8ff" points="1938,-57.74 1941.5,-67.74 1945,-57.74 1938,-57.74"/>
</a>
</g>
</g>
<!-- Node29&#45;&gt;Node5 -->
<g id="edge31_Node000029_Node000005" class="edge">
<title>Node29&#45;&gt;Node5</title>
<g id="a_edge31_Node000029_Node000005"><a xlink:title=" ">
<path fill="none" stroke="#63b8ff" d="M1911.39,-270.61C1900.09,-261.31 1887.34,-250.81 1877.08,-242.37"/>
<polygon fill="#63b8ff" stroke="#63b8ff" points="1908.95,-273.14 1918.9,-276.79 1913.4,-267.73 1908.95,-273.14"/>
</a>
</g>
</g>
<!-- Node30&#45;&gt;Node6 -->
<g id="edge33_Node000030_Node000006" class="edge">
<title>Node30&#45;&gt;Node6</title>
<g id="a_edge33_Node000030_Node000006"><a xlink:title=" ">
<path fill="none" stroke="#63b8ff" d="M2046.39,-270.61C2035.09,-261.31 2022.34,-250.81 2012.08,-242.37"/>
<polygon fill="#63b8ff" stroke="#63b8ff" points="2043.95,-273.14 2053.9,-276.79 2048.4,-267.73 2043.95,-273.14"/>
</a>
</g>
</g>
<!-- Node31 -->
<g id="Node000031" class="node">
<title>Node31</title>
<g id="a_Node000031"><a xlink:href="web_2http_2legacy_2rc_2Server_8h.html" target="_top" xlink:title=" ">
<polygon fill="white" stroke="#666666" points="2312.5,-242 2206.5,-242 2206.5,-208.5 2312.5,-208.5 2312.5,-242"/>
<text xml:space="preserve" text-anchor="start" x="2214.5" y="-228.5" font-family="Helvetica,sans-Serif" font-size="10.00">web/http/legacy/rc</text>
<text xml:space="preserve" text-anchor="middle" x="2259.5" y="-215.75" font-family="Helvetica,sans-Serif" font-size="10.00">/Server.h</text>
</a>
</g>
</g>
<!-- Node30&#45;&gt;Node31 -->
<g id="edge34_Node000030_Node000031" class="edge">
<title>Node30&#45;&gt;Node31</title>
<g id="a_edge34_Node000030_Node000031"><a xlink:title=" ">
<path fill="none" stroke="#63b8ff" d="M2129.41,-273.72C2156.79,-263.72 2189.47,-251.8 2215.23,-242.4"/>
<polygon fill="#63b8ff" stroke="#63b8ff" points="2128.43,-270.35 2120.23,-277.06 2130.83,-276.92 2128.43,-270.35"/>
</a>
</g>
</g>
<!-- Node32 -->
<g id="Node000032" class="node">
<title>Node32</title>
<g id="a_Node000032"><a xlink:href="legacy_2rc_2WebApp_8h.html" target="_top" xlink:title=" ">
<polygon fill="white" stroke="#666666" points="2324.5,-166.12 2170.5,-166.12 2170.5,-145.38 2324.5,-145.38 2324.5,-166.12"/>
<text xml:space="preserve" text-anchor="middle" x="2247.5" y="-152.62" font-family="Helvetica,sans-Serif" font-size="10.00">express/legacy/rc/WebApp.h</text>
</a>
</g>
</g>
<!-- Node31&#45;&gt;Node32 -->
<g id="edge35_Node000031_Node000032" class="edge">
<title>Node31&#45;&gt;Node32</title>
<g id="a_edge35_Node000031_Node000032"><a xlink:title=" ">
<path fill="none" stroke="#63b8ff" d="M2254.68,-197.13C2252.76,-186.33 2250.67,-174.6 2249.25,-166.57"/>
<polygon fill="#63b8ff" stroke="#63b8ff" points="2251.19,-197.53 2256.39,-206.76 2258.09,-196.3 2251.19,-197.53"/>
</a>
</g>
</g>
<!-- Node33 -->
<g id="Node000033" class="node">
<title>Node33</title>
<g id="a_Node000033"><a xlink:href="express_2legacy_2rc_2Server_8h.html" target="_top" xlink:title=" ">
<polygon fill="white" stroke="#666666" points="2320,-96.62 2175,-96.62 2175,-75.88 2320,-75.88 2320,-96.62"/>
<text xml:space="preserve" text-anchor="middle" x="2247.5" y="-83.12" font-family="Helvetica,sans-Serif" font-size="10.00">express/legacy/rc/Server.h</text>
</a>
</g>
</g>
<!-- Node32&#45;&gt;Node33 -->
<g id="edge36_Node000032_Node000033" class="edge">
<title>Node32&#45;&gt;Node33</title>
<g id="a_edge36_Node000032_Node000033"><a xlink:title=" ">
<path fill="none" stroke="#63b8ff" d="M2247.5,-133.94C2247.5,-121.59 2247.5,-106.52 2247.5,-96.9"/>
<polygon fill="#63b8ff" stroke="#63b8ff" points="2244,-133.57 2247.5,-143.57 2251,-133.57 2244,-133.57"/>
</a>
</g>
</g>
<!-- Node34 -->
<g id="Node000034" class="node">
<title>Node34</title>
<g id="a_Node000034"><a xlink:href="legacy_2rc_2Server_8cpp.html" target="_top" xlink:title=" ">
<polygon fill="white" stroke="#666666" points="2324.62,-27.12 2168.38,-27.12 2168.38,-6.38 2324.62,-6.38 2324.62,-27.12"/>
<text xml:space="preserve" text-anchor="middle" x="2246.5" y="-13.62" font-family="Helvetica,sans-Serif" font-size="10.00">express/legacy/rc/Server.cpp</text>
</a>
</g>
</g>
<!-- Node33&#45;&gt;Node34 -->
<g id="edge37_Node000033_Node000034" class="edge">
<title>Node33&#45;&gt;Node34</title>
<g id="a_edge37_Node000033_Node000034"><a xlink:title=" ">
<path fill="none" stroke="#63b8ff" d="M2247.19,-64.44C2247.01,-52.09 2246.79,-37.02 2246.64,-27.4"/>
<polygon fill="#63b8ff" stroke="#63b8ff" points="2243.69,-64.12 2247.33,-74.07 2250.69,-64.01 2243.69,-64.12"/>
</a>
</g>
</g>
<!-- Node35&#45;&gt;Node7 -->
<g id="edge39_Node000035_Node000007" class="edge">
<title>Node35&#45;&gt;Node7</title>
<g id="a_edge39_Node000035_Node000007"><a xlink:title=" ">
<path fill="none" stroke="#63b8ff" d="M2182.39,-270.61C2171.09,-261.31 2158.34,-250.81 2148.08,-242.37"/>
<polygon fill="#63b8ff" stroke="#63b8ff" points="2179.95,-273.14 2189.9,-276.79 2184.4,-267.73 2179.95,-273.14"/>
</a>
</g>
</g>
<!-- Node36 -->
<g id="Node000036" class="node">
<title>Node36</title>
<g id="a_Node000036"><a xlink:href="web_2http_2legacy_2un_2Server_8h.html" target="_top" xlink:title=" ">
<polygon fill="white" stroke="#666666" points="2464,-242 2355,-242 2355,-208.5 2464,-208.5 2464,-242"/>
<text xml:space="preserve" text-anchor="start" x="2363" y="-228.5" font-family="Helvetica,sans-Serif" font-size="10.00">web/http/legacy/un</text>
<text xml:space="preserve" text-anchor="middle" x="2409.5" y="-215.75" font-family="Helvetica,sans-Serif" font-size="10.00">/Server.h</text>
</a>
</g>
</g>
<!-- Node35&#45;&gt;Node36 -->
<g id="edge40_Node000035_Node000036" class="edge">
<title>Node35&#45;&gt;Node36</title>
<g id="a_edge40_Node000035_Node000036"><a xlink:title=" ">
<path fill="none" stroke="#63b8ff" d="M2268.78,-273.98C2298.4,-263.94 2333.93,-251.88 2361.88,-242.4"/>
<polygon fill="#63b8ff" stroke="#63b8ff" points="2267.94,-270.57 2259.6,-277.1 2270.19,-277.2 2267.94,-270.57"/>
</a>
</g>
</g>
<!-- Node37 -->
<g id="Node000037" class="node">
<title>Node37</title>
<g id="a_Node000037"><a xlink:href="legacy_2un_2WebApp_8h.html" target="_top" xlink:title=" ">
<polygon fill="white" stroke="#666666" points="2500,-166.12 2343,-166.12 2343,-145.38 2500,-145.38 2500,-166.12"/>
<text xml:space="preserve" text-anchor="middle" x="2421.5" y="-152.62" font-family="Helvetica,sans-Serif" font-size="10.00">express/legacy/un/WebApp.h</text>
</a>
</g>
</g>
<!-- Node36&#45;&gt;Node37 -->
<g id="edge41_Node000036_Node000037" class="edge">
<title>Node36&#45;&gt;Node37</title>
<g id="a_edge41_Node000036_Node000037"><a xlink:title=" ">
<path fill="none" stroke="#63b8ff" d="M2414.32,-197.13C2416.24,-186.33 2418.33,-174.6 2419.75,-166.57"/>
<polygon fill="#63b8ff" stroke="#63b8ff" points="2410.91,-196.3 2412.61,-206.76 2417.81,-197.53 2410.91,-196.3"/>
</a>
</g>
</g>
<!-- Node38 -->
<g id="Node000038" class="node">
<title>Node38</title>
<g id="a_Node000038"><a xlink:href="express_2legacy_2un_2Server_8h.html" target="_top" xlink:title=" ">
<polygon fill="white" stroke="#666666" points="2496.5,-96.62 2348.5,-96.62 2348.5,-75.88 2496.5,-75.88 2496.5,-96.62"/>
<text xml:space="preserve" text-anchor="middle" x="2422.5" y="-83.12" font-family="Helvetica,sans-Serif" font-size="10.00">express/legacy/un/Server.h</text>
</a>
</g>
</g>
<!-- Node37&#45;&gt;Node38 -->
<g id="edge42_Node000037_Node000038" class="edge">
<title>Node37&#45;&gt;Node38</title>
<g id="a_edge42_Node000037_Node000038"><a xlink:title=" ">
<path fill="none" stroke="#63b8ff" d="M2421.81,-133.94C2421.99,-121.59 2422.21,-106.52 2422.36,-96.9"/>
<polygon fill="#63b8ff" stroke="#63b8ff" points="2418.31,-133.51 2421.67,-143.57 2425.31,-133.62 2418.31,-133.51"/>
</a>
</g>
</g>
<!-- Node39 -->
<g id="Node000039" class="node">
<title>Node39</title>
<g id="a_Node000039"><a xlink:href="legacy_2un_2Server_8cpp.html" target="_top" xlink:title=" ">
<polygon fill="white" stroke="#666666" points="2502.12,-27.12 2342.88,-27.12 2342.88,-6.38 2502.12,-6.38 2502.12,-27.12"/>
<text xml:space="preserve" text-anchor="middle" x="2422.5" y="-13.62" font-family="Helvetica,sans-Serif" font-size="10.00">express/legacy/un/Server.cpp</text>
</a>
</g>
</g>
<!-- Node38&#45;&gt;Node39 -->
<g id="edge43_Node000038_Node000039" class="edge">
<title>Node38&#45;&gt;Node39</title>
<g id="a_edge43_Node000038_Node000039"><a xlink:title=" ">
<path fill="none" stroke="#63b8ff" d="M2422.5,-64.44C2422.5,-52.09 2422.5,-37.02 2422.5,-27.4"/>
<polygon fill="#63b8ff" stroke="#63b8ff" points="2419,-64.07 2422.5,-74.07 2426,-64.07 2419,-64.07"/>
</a>
</g>
</g>
</g>
</svg>

<g id="navigator" transform="translate(0 0)" fill="#404254">
  <rect fill="#f2f5e9" fill-opacity="0.5" stroke="#606060" stroke-width=".5" x="0" y="0" width="60" height="60"/>
  <use id="zoomplus" xlink:href="#zoomPlus" x="17" y="9" onmousedown="handleZoom(evt,'in')"/>
  <use id="zoomminus" xlink:href="#zoomMin" x="42" y="9" onmousedown="handleZoom(evt,'out')"/>
  <use id="reset" xlink:href="#resetDef" x="30" y="36" onmousedown="handleReset()"/>
   <use id="arrowup" xlink:href="#arrowUp" x="0" y="0" onmousedown="handlePan(0,-1)"/>
  <use id="arrowright" xlink:href="#arrowRight" x="0" y="0" onmousedown="handlePan(1,0)"/>
  <use id="arrowdown" xlink:href="#arrowDown" x="0" y="0" onmousedown="handlePan(0,1)"/>
  <use id="arrowleft" xlink:href="#arrowLeft" x="0" y="0" onmousedown="handlePan(-1,0)"/>
</g>
<svg viewBox="0 0 15 15" width="100%" height="30px" preserveAspectRatio="xMaxYMin meet">
 <g id="arrow_out" transform="scale(0.3 0.3)">
  <a xlink:href="legacy_2SocketAcceptor_8h__dep__incl_org.svg" target="_base">
   <rect id="button" ry="5" rx="5" y="6" x="6" height="38" width="38"
        fill="#f2f5e9" fill-opacity="0.5" stroke="#606060" stroke-width="1.0"/>
   <path id="arrow"
     d="M 11.500037,31.436501 C 11.940474,20.09759 22.043105,11.32322 32.158766,21.979434 L 37.068811,17.246167 C 37.068811,17.246167 37.088388,32 37.088388,32 L 22.160133,31.978069 C 22.160133,31.978069 26.997745,27.140456 26.997745,27.140456 C 18.528582,18.264221 13.291696,25.230495 11.500037,31.436501 z"
     style="fill:#404040;"/>
  </a>
 </g>
</svg>

<style type='text/css'>
<![CDATA[
[data-mouse-over-selected='false'] { opacity: 0.7; }
[data-mouse-over-selected='true']  { opacity: 1.0; }
]]>
</style>
<script type="application/ecmascript"><![CDATA[
document.addEventListener('DOMContentLoaded', (event) => {
  highlightEdges();
  highlightAdjacentNodes();
});
]]></script>
</svg>
