<?xml version="1.0" encoding="UTF-8" standalone="no"?>
<!DOCTYPE svg PUBLIC "-//W3C//DTD SVG 1.1//EN"
 "http://www.w3.org/Graphics/SVG/1.1/DTD/svg11.dtd">
<!-- Generated by graphviz version 14.1.2 (0)
 -->
<!-- Title: core/socket/stream/legacy/SocketAcceptor.hpp Pages: 1 -->
<svg width="673pt" height="111pt"
 viewBox="0.00 0.00 673.00 111.00" xmlns="http://www.w3.org/2000/svg" xmlns:xlink="http://www.w3.org/1999/xlink">
<g id="graph0" class="graph" transform="scale(1 1) rotate(0) translate(4 107)">
<title>core/socket/stream/legacy/SocketAcceptor.hpp</title>
<!-- Node1 -->
<g id="Node000001" class="node">
<title>Node1</title>
<g id="a_Node000001"><a xlink:title=" ">
<polygon fill="#999999" stroke="#666666" points="409.38,-103 259.12,-103 259.12,-69.5 409.38,-69.5 409.38,-103"/>
<text xml:space="preserve" text-anchor="start" x="267.12" y="-89.5" font-family="Helvetica,sans-Serif" font-size="10.00">core/socket/stream</text>
<text xml:space="preserve" text-anchor="middle" x="334.25" y="-76.75" font-family="Helvetica,sans-Serif" font-size="10.00">/legacy/SocketAcceptor.hpp</text>
</a>
</g>
</g>
<!-- Node2 -->
<g id="Node000002" class="node">
<title>Node2</title>
<g id="a_Node000002"><a xlink:href="in_2stream_2legacy_2SocketServer_8cpp.html" target="_top" xlink:title=" ">
<polygon fill="white" stroke="#666666" points="116.5,-33.5 0,-33.5 0,0 116.5,0 116.5,-33.5"/>
<text xml:space="preserve" text-anchor="start" x="8" y="-20" font-family="Helvetica,sans-Serif" font-size="10.00">net/in/stream/legacy</text>
<text xml:space="preserve" text-anchor="middle" x="58.25" y="-7.25" font-family="Helvetica,sans-Serif" font-size="10.00">/SocketServer.cpp</text>
</a>
</g>
</g>
<!-- Node1&#45;&gt;Node2 -->
<g id="edge1_Node000001_Node000002" class="edge">
<title>Node1&#45;&gt;Node2</title>
<g id="a_edge1_Node000001_Node000002"><a xlink:title=" ">
<path fill="none" stroke="#63b8ff" d="M257.08,-66.38C212.63,-55.51 157.66,-42.06 116.79,-32.07"/>
<polygon fill="#63b8ff" stroke="#63b8ff" points="256.13,-69.75 266.67,-68.72 257.79,-62.95 256.13,-69.75"/>
</a>
</g>
</g>
<!-- Node3 -->
<g id="Node000003" class="node">
<title>Node3</title>
<g id="a_Node000003"><a xlink:href="in6_2stream_2legacy_2SocketServer_8cpp.html" target="_top" xlink:title=" ">
<polygon fill="white" stroke="#666666" points="257.5,-33.5 135,-33.5 135,0 257.5,0 257.5,-33.5"/>
<text xml:space="preserve" text-anchor="start" x="143" y="-20" font-family="Helvetica,sans-Serif" font-size="10.00">net/in6/stream/legacy</text>
<text xml:space="preserve" text-anchor="middle" x="196.25" y="-7.25" font-family="Helvetica,sans-Serif" font-size="10.00">/SocketServer.cpp</text>
</a>
</g>
</g>
<!-- Node1&#45;&gt;Node3 -->
<g id="edge2_Node000001_Node000003" class="edge">
<title>Node1&#45;&gt;Node3</title>
<g id="a_edge2_Node000001_Node000003"><a xlink:title=" ">
<path fill="none" stroke="#63b8ff" d="M291.07,-64.13C271.03,-54.33 247.59,-42.86 229.03,-33.79"/>
<polygon fill="#63b8ff" stroke="#63b8ff" points="289.32,-67.17 299.84,-68.42 292.39,-60.88 289.32,-67.17"/>
</a>
</g>
</g>
<!-- Node4 -->
<g id="Node000004" class="node">
<title>Node4</title>
<g id="a_Node000004"><a xlink:href="l2_2stream_2legacy_2SocketServer_8cpp.html" target="_top" xlink:title=" ">
<polygon fill="white" stroke="#666666" points="392.5,-33.5 276,-33.5 276,0 392.5,0 392.5,-33.5"/>
<text xml:space="preserve" text-anchor="start" x="284" y="-20" font-family="Helvetica,sans-Serif" font-size="10.00">net/l2/stream/legacy</text>
<text xml:space="preserve" text-anchor="middle" x="334.25" y="-7.25" font-family="Helvetica,sans-Serif" font-size="10.00">/SocketServer.cpp</text>
</a>
</g>
</g>
<!-- Node1&#45;&gt;Node4 -->
<g id="edge3_Node000001_Node000004" class="edge">
<title>Node1&#45;&gt;Node4</title>
<g id="a_edge3_Node000001_Node000004"><a xlink:title=" ">
<path fill="none" stroke="#63b8ff" d="M334.25,-57.81C334.25,-49.59 334.25,-40.84 334.25,-33.63"/>
<polygon fill="#63b8ff" stroke="#63b8ff" points="330.75,-57.74 334.25,-67.74 337.75,-57.74 330.75,-57.74"/>
</a>
</g>
</g>
<!-- Node5 -->
<g id="Node000005" class="node">
<title>Node5</title>
<g id="a_Node000005"><a xlink:href="rc_2stream_2legacy_2SocketServer_8cpp.html" target="_top" xlink:title=" ">
<polygon fill="white" stroke="#666666" points="527.5,-33.5 411,-33.5 411,0 527.5,0 527.5,-33.5"/>
<text xml:space="preserve" text-anchor="start" x="419" y="-20" font-family="Helvetica,sans-Serif" font-size="10.00">net/rc/stream/legacy</text>
<text xml:space="preserve" text-anchor="middle" x="469.25" y="-7.25" font-family="Helvetica,sans-Serif" font-size="10.00">/SocketServer.cpp</text>
</a>
</g>
</g>
<!-- Node1&#45;&gt;Node5 -->
<g id="edge4_Node000001_Node000005" class="edge">
<title>Node1&#45;&gt;Node5</title>
<g id="a_edge4_Node000001_Node000005"><a xlink:title=" ">
<path fill="none" stroke="#63b8ff" d="M376.76,-63.99C396.31,-54.22 419.11,-42.82 437.18,-33.79"/>
<polygon fill="#63b8ff" stroke="#63b8ff" points="375.32,-60.8 367.94,-68.41 378.45,-67.06 375.32,-60.8"/>
</a>
</g>
</g>
<!-- Node6 -->
<g id="Node000006" class="node">
<title>Node6</title>
<g id="a_Node000006"><a xlink:href="un_2stream_2legacy_2SocketServer_8cpp.html" target="_top" xlink:title=" ">
<polygon fill="white" stroke="#666666" points="665,-33.5 545.5,-33.5 545.5,0 665,0 665,-33.5"/>
<text xml:space="preserve" text-anchor="start" x="553.5" y="-20" font-family="Helvetica,sans-Serif" font-size="10.00">net/un/stream/legacy</text>
<text xml:space="preserve" text-anchor="middle" x="605.25" y="-7.25" font-family="Helvetica,sans-Serif" font-size="10.00">/SocketServer.cpp</text>
</a>
</g>
</g>
<!-- Node1&#45;&gt;Node6 -->
<g id="edge5_Node000001_Node000006" class="edge">
<title>Node1&#45;&gt;Node6</title>
<g id="a_edge5_Node000001_Node000006"><a xlink:title=" ">
<path fill="none" stroke="#63b8ff" d="M410.33,-66.3C452.94,-55.69 505.32,-42.64 545.04,-32.75"/>
<polygon fill="#63b8ff" stroke="#63b8ff" points="409.49,-62.9 400.63,-68.72 411.18,-69.7 409.49,-62.9"/>
</a>
</g>
</g>
</g>
</svg>
