<?xml version="1.0" encoding="UTF-8" standalone="no"?>
<!DOCTYPE svg PUBLIC "-//W3C//DTD SVG 1.1//EN"
 "http://www.w3.org/Graphics/SVG/1.1/DTD/svg11.dtd">
<!-- Generated by graphviz version 2.43.0 (0)
 -->
<!-- Title: core/socket/stream/legacy/SocketWriter.h Pages: 1 -->
<svg width="2195pt" height="302pt"
 viewBox="0.00 0.00 2194.50 302.00" xmlns="http://www.w3.org/2000/svg" xmlns:xlink="http://www.w3.org/1999/xlink">
<g id="graph0" class="graph" transform="scale(1 1) rotate(0) translate(4 298)">
<title>core/socket/stream/legacy/SocketWriter.h</title>
<!-- Node1 -->
<g id="Node000001" class="node">
<title>Node1</title>
<g id="a_Node000001"><a xlink:title=" ">
<polygon fill="#999999" stroke="#666666" points="1198,-294 1083,-294 1083,-264 1198,-264 1198,-294"/>
<text text-anchor="start" x="1091" y="-282" font-family="Helvetica,sans-Serif" font-size="10.00">core/socket/stream</text>
<text text-anchor="middle" x="1140.5" y="-271" font-family="Helvetica,sans-Serif" font-size="10.00">/legacy/SocketWriter.h</text>
</a>
</g>
</g>
<!-- Node2 -->
<g id="Node000002" class="node">
<title>Node2</title>
<g id="a_Node000002"><a xlink:href="legacy_2SocketConnection_8h.html" target="_top" xlink:title=" ">
<polygon fill="white" stroke="#666666" points="1135.5,-228 995.5,-228 995.5,-198 1135.5,-198 1135.5,-228"/>
<text text-anchor="start" x="1003.5" y="-216" font-family="Helvetica,sans-Serif" font-size="10.00">core/socket/stream</text>
<text text-anchor="middle" x="1065.5" y="-205" font-family="Helvetica,sans-Serif" font-size="10.00">/legacy/SocketConnection.h</text>
</a>
</g>
</g>
<!-- Node1&#45;&gt;Node2 -->
<g id="edge1_Node000001_Node000002" class="edge">
<title>Node1&#45;&gt;Node2</title>
<g id="a_edge1_Node000001_Node000002"><a xlink:title=" ">
<path fill="none" stroke="#63b8ff" d="M1116.13,-257.2C1104.99,-247.7 1092.09,-236.69 1082.1,-228.16"/>
<polygon fill="#63b8ff" stroke="#63b8ff" points="1113.98,-259.97 1123.86,-263.8 1118.52,-254.64 1113.98,-259.97"/>
</a>
</g>
</g>
<!-- Node36 -->
<g id="Node000036" class="node">
<title>Node36</title>
<g id="a_Node000036"><a xlink:href="legacy_2SocketWriter_8cpp.html" target="_top" xlink:title=" ">
<polygon fill="white" stroke="#666666" points="1279,-228 1154,-228 1154,-198 1279,-198 1279,-228"/>
<text text-anchor="start" x="1162" y="-216" font-family="Helvetica,sans-Serif" font-size="10.00">core/socket/stream</text>
<text text-anchor="middle" x="1216.5" y="-205" font-family="Helvetica,sans-Serif" font-size="10.00">/legacy/SocketWriter.cpp</text>
</a>
</g>
</g>
<!-- Node1&#45;&gt;Node36 -->
<g id="edge44_Node000001_Node000036" class="edge">
<title>Node1&#45;&gt;Node36</title>
<g id="a_edge44_Node000001_Node000036"><a xlink:title=" ">
<path fill="none" stroke="#63b8ff" d="M1165.2,-257.2C1176.48,-247.7 1189.55,-236.69 1199.68,-228.16"/>
<polygon fill="#63b8ff" stroke="#63b8ff" points="1162.76,-254.68 1157.37,-263.8 1167.27,-260.03 1162.76,-254.68"/>
</a>
</g>
</g>
<!-- Node3 -->
<g id="Node000003" class="node">
<title>Node3</title>
<g id="a_Node000003"><a xlink:href="legacy_2SocketConnection_8hpp.html" target="_top" xlink:title=" ">
<polygon fill="white" stroke="#666666" points="1140.5,-162 990.5,-162 990.5,-132 1140.5,-132 1140.5,-162"/>
<text text-anchor="start" x="998.5" y="-150" font-family="Helvetica,sans-Serif" font-size="10.00">core/socket/stream</text>
<text text-anchor="middle" x="1065.5" y="-139" font-family="Helvetica,sans-Serif" font-size="10.00">/legacy/SocketConnection.hpp</text>
</a>
</g>
</g>
<!-- Node2&#45;&gt;Node3 -->
<g id="edge2_Node000002_Node000003" class="edge">
<title>Node2&#45;&gt;Node3</title>
<g id="a_edge2_Node000002_Node000003"><a xlink:title=" ">
<path fill="none" stroke="#63b8ff" d="M1065.5,-187.54C1065.5,-178.96 1065.5,-169.61 1065.5,-162.16"/>
<polygon fill="#63b8ff" stroke="#63b8ff" points="1062,-187.8 1065.5,-197.8 1069,-187.8 1062,-187.8"/>
</a>
</g>
</g>
<!-- Node13 -->
<g id="Node000013" class="node">
<title>Node13</title>
<g id="a_Node000013"><a xlink:href="net_2in_2stream_2legacy_2SocketClient_8h.html" target="_top" xlink:title=" ">
<polygon fill="white" stroke="#666666" points="2072,-162 1967,-162 1967,-132 2072,-132 2072,-162"/>
<text text-anchor="start" x="1975" y="-150" font-family="Helvetica,sans-Serif" font-size="10.00">net/in/stream/legacy</text>
<text text-anchor="middle" x="2019.5" y="-139" font-family="Helvetica,sans-Serif" font-size="10.00">/SocketClient.h</text>
</a>
</g>
</g>
<!-- Node2&#45;&gt;Node13 -->
<g id="edge12_Node000002_Node000013" class="edge">
<title>Node2&#45;&gt;Node13</title>
<g id="a_edge12_Node000002_Node000013"><a xlink:title=" ">
<path fill="none" stroke="#63b8ff" d="M1145.82,-198.04C1261.9,-186.65 1796,-159.27 1966.84,-150.64"/>
<polygon fill="#63b8ff" stroke="#63b8ff" points="1145.22,-194.59 1135.65,-199.12 1145.96,-201.55 1145.22,-194.59"/>
</a>
</g>
</g>
<!-- Node16 -->
<g id="Node000016" class="node">
<title>Node16</title>
<g id="a_Node000016"><a xlink:href="net_2in_2stream_2legacy_2SocketServer_8h.html" target="_top" xlink:title=" ">
<polygon fill="white" stroke="#666666" points="242,-162 137,-162 137,-132 242,-132 242,-162"/>
<text text-anchor="start" x="145" y="-150" font-family="Helvetica,sans-Serif" font-size="10.00">net/in/stream/legacy</text>
<text text-anchor="middle" x="189.5" y="-139" font-family="Helvetica,sans-Serif" font-size="10.00">/SocketServer.h</text>
</a>
</g>
</g>
<!-- Node2&#45;&gt;Node16 -->
<g id="edge15_Node000002_Node000016" class="edge">
<title>Node2&#45;&gt;Node16</title>
<g id="a_edge15_Node000002_Node000016"><a xlink:title=" ">
<path fill="none" stroke="#63b8ff" d="M985.28,-206.14C808.62,-193.23 389.95,-162.64 242.22,-151.85"/>
<polygon fill="#63b8ff" stroke="#63b8ff" points="985.07,-209.63 995.29,-206.87 985.58,-202.65 985.07,-209.63"/>
</a>
</g>
</g>
<!-- Node19 -->
<g id="Node000019" class="node">
<title>Node19</title>
<g id="a_Node000019"><a xlink:href="net_2in6_2stream_2legacy_2SocketClient_8h.html" target="_top" xlink:title=" ">
<polygon fill="white" stroke="#666666" points="597.5,-162 487.5,-162 487.5,-132 597.5,-132 597.5,-162"/>
<text text-anchor="start" x="495.5" y="-150" font-family="Helvetica,sans-Serif" font-size="10.00">net/in6/stream/legacy</text>
<text text-anchor="middle" x="542.5" y="-139" font-family="Helvetica,sans-Serif" font-size="10.00">/SocketClient.h</text>
</a>
</g>
</g>
<!-- Node2&#45;&gt;Node19 -->
<g id="edge19_Node000002_Node000019" class="edge">
<title>Node2&#45;&gt;Node19</title>
<g id="a_edge19_Node000002_Node000019"><a xlink:title=" ">
<path fill="none" stroke="#63b8ff" d="M985.13,-205.86C893.22,-198.24 738.42,-183.55 606.5,-162 603.58,-161.52 600.6,-161 597.59,-160.44"/>
<polygon fill="#63b8ff" stroke="#63b8ff" points="984.95,-209.36 995.2,-206.69 985.52,-202.38 984.95,-209.36"/>
</a>
</g>
</g>
<!-- Node21 -->
<g id="Node000021" class="node">
<title>Node21</title>
<g id="a_Node000021"><a xlink:href="net_2in6_2stream_2legacy_2SocketServer_8h.html" target="_top" xlink:title=" ">
<polygon fill="white" stroke="#666666" points="725.5,-162 615.5,-162 615.5,-132 725.5,-132 725.5,-162"/>
<text text-anchor="start" x="623.5" y="-150" font-family="Helvetica,sans-Serif" font-size="10.00">net/in6/stream/legacy</text>
<text text-anchor="middle" x="670.5" y="-139" font-family="Helvetica,sans-Serif" font-size="10.00">/SocketServer.h</text>
</a>
</g>
</g>
<!-- Node2&#45;&gt;Node21 -->
<g id="edge22_Node000002_Node000021" class="edge">
<title>Node2&#45;&gt;Node21</title>
<g id="a_edge22_Node000002_Node000021"><a xlink:title=" ">
<path fill="none" stroke="#63b8ff" d="M985.12,-201.36C917.94,-192.1 819.71,-177.74 734.5,-162 731.59,-161.46 728.61,-160.89 725.61,-160.3"/>
<polygon fill="#63b8ff" stroke="#63b8ff" points="984.83,-204.85 995.22,-202.74 985.79,-197.92 984.83,-204.85"/>
</a>
</g>
</g>
<!-- Node24 -->
<g id="Node000024" class="node">
<title>Node24</title>
<g id="a_Node000024"><a xlink:href="net_2l2_2stream_2legacy_2SocketClient_8h.html" target="_top" xlink:title=" ">
<polygon fill="white" stroke="#666666" points="849,-162 744,-162 744,-132 849,-132 849,-162"/>
<text text-anchor="start" x="752" y="-150" font-family="Helvetica,sans-Serif" font-size="10.00">net/l2/stream/legacy</text>
<text text-anchor="middle" x="796.5" y="-139" font-family="Helvetica,sans-Serif" font-size="10.00">/SocketClient.h</text>
</a>
</g>
</g>
<!-- Node2&#45;&gt;Node24 -->
<g id="edge26_Node000002_Node000024" class="edge">
<title>Node2&#45;&gt;Node24</title>
<g id="a_edge26_Node000002_Node000024"><a xlink:title=" ">
<path fill="none" stroke="#63b8ff" d="M996.58,-195.6C950.63,-184.67 891.15,-170.52 849.02,-160.5"/>
<polygon fill="#63b8ff" stroke="#63b8ff" points="995.93,-199.05 1006.47,-197.95 997.55,-192.24 995.93,-199.05"/>
</a>
</g>
</g>
<!-- Node25 -->
<g id="Node000025" class="node">
<title>Node25</title>
<g id="a_Node000025"><a xlink:href="net_2l2_2stream_2legacy_2SocketServer_8h.html" target="_top" xlink:title=" ">
<polygon fill="white" stroke="#666666" points="972,-162 867,-162 867,-132 972,-132 972,-162"/>
<text text-anchor="start" x="875" y="-150" font-family="Helvetica,sans-Serif" font-size="10.00">net/l2/stream/legacy</text>
<text text-anchor="middle" x="919.5" y="-139" font-family="Helvetica,sans-Serif" font-size="10.00">/SocketServer.h</text>
</a>
</g>
</g>
<!-- Node2&#45;&gt;Node25 -->
<g id="edge28_Node000002_Node000025" class="edge">
<title>Node2&#45;&gt;Node25</title>
<g id="a_edge28_Node000002_Node000025"><a xlink:title=" ">
<path fill="none" stroke="#63b8ff" d="M1024.25,-193.92C1001.18,-183.8 972.84,-171.38 951.47,-162.01"/>
<polygon fill="#63b8ff" stroke="#63b8ff" points="1022.9,-197.15 1033.46,-197.95 1025.71,-190.73 1022.9,-197.15"/>
</a>
</g>
</g>
<!-- Node26 -->
<g id="Node000026" class="node">
<title>Node26</title>
<g id="a_Node000026"><a xlink:href="net_2rc_2stream_2legacy_2SocketClient_8h.html" target="_top" xlink:title=" ">
<polygon fill="white" stroke="#666666" points="1264.5,-162 1158.5,-162 1158.5,-132 1264.5,-132 1264.5,-162"/>
<text text-anchor="start" x="1166.5" y="-150" font-family="Helvetica,sans-Serif" font-size="10.00">net/rc/stream/legacy</text>
<text text-anchor="middle" x="1211.5" y="-139" font-family="Helvetica,sans-Serif" font-size="10.00">/SocketClient.h</text>
</a>
</g>
</g>
<!-- Node2&#45;&gt;Node26 -->
<g id="edge30_Node000002_Node000026" class="edge">
<title>Node2&#45;&gt;Node26</title>
<g id="a_edge30_Node000002_Node000026"><a xlink:title=" ">
<path fill="none" stroke="#63b8ff" d="M1106.75,-193.92C1129.82,-183.8 1158.16,-171.38 1179.53,-162.01"/>
<polygon fill="#63b8ff" stroke="#63b8ff" points="1105.29,-190.73 1097.54,-197.95 1108.1,-197.15 1105.29,-190.73"/>
</a>
</g>
</g>
<!-- Node28 -->
<g id="Node000028" class="node">
<title>Node28</title>
<g id="a_Node000028"><a xlink:href="net_2rc_2stream_2legacy_2SocketServer_8h.html" target="_top" xlink:title=" ">
<polygon fill="white" stroke="#666666" points="1388.5,-162 1282.5,-162 1282.5,-132 1388.5,-132 1388.5,-162"/>
<text text-anchor="start" x="1290.5" y="-150" font-family="Helvetica,sans-Serif" font-size="10.00">net/rc/stream/legacy</text>
<text text-anchor="middle" x="1335.5" y="-139" font-family="Helvetica,sans-Serif" font-size="10.00">/SocketServer.h</text>
</a>
</g>
</g>
<!-- Node2&#45;&gt;Node28 -->
<g id="edge33_Node000002_Node000028" class="edge">
<title>Node2&#45;&gt;Node28</title>
<g id="a_edge33_Node000002_Node000028"><a xlink:title=" ">
<path fill="none" stroke="#63b8ff" d="M1134.64,-195.61C1180.61,-184.72 1240.06,-170.62 1282.33,-160.6"/>
<polygon fill="#63b8ff" stroke="#63b8ff" points="1133.68,-192.24 1124.75,-197.95 1135.29,-199.05 1133.68,-192.24"/>
</a>
</g>
</g>
<!-- Node31 -->
<g id="Node000031" class="node">
<title>Node31</title>
<g id="a_Node000031"><a xlink:href="net_2un_2stream_2legacy_2SocketClient_8h.html" target="_top" xlink:title=" ">
<polygon fill="white" stroke="#666666" points="1514.5,-162 1406.5,-162 1406.5,-132 1514.5,-132 1514.5,-162"/>
<text text-anchor="start" x="1414.5" y="-150" font-family="Helvetica,sans-Serif" font-size="10.00">net/un/stream/legacy</text>
<text text-anchor="middle" x="1460.5" y="-139" font-family="Helvetica,sans-Serif" font-size="10.00">/SocketClient.h</text>
</a>
</g>
</g>
<!-- Node2&#45;&gt;Node31 -->
<g id="edge37_Node000002_Node000031" class="edge">
<title>Node2&#45;&gt;Node31</title>
<g id="a_edge37_Node000002_Node000031"><a xlink:title=" ">
<path fill="none" stroke="#63b8ff" d="M1145.75,-197.84C1258.37,-180.2 1288.92,-181.76 1397.5,-162 1400.37,-161.48 1403.3,-160.92 1406.26,-160.33"/>
<polygon fill="#63b8ff" stroke="#63b8ff" points="1145.02,-194.41 1135.69,-199.43 1146.11,-201.33 1145.02,-194.41"/>
</a>
</g>
</g>
<!-- Node33 -->
<g id="Node000033" class="node">
<title>Node33</title>
<g id="a_Node000033"><a xlink:href="net_2un_2stream_2legacy_2SocketServer_8h.html" target="_top" xlink:title=" ">
<polygon fill="white" stroke="#666666" points="1714.5,-162 1606.5,-162 1606.5,-132 1714.5,-132 1714.5,-162"/>
<text text-anchor="start" x="1614.5" y="-150" font-family="Helvetica,sans-Serif" font-size="10.00">net/un/stream/legacy</text>
<text text-anchor="middle" x="1660.5" y="-139" font-family="Helvetica,sans-Serif" font-size="10.00">/SocketServer.h</text>
</a>
</g>
</g>
<!-- Node2&#45;&gt;Node33 -->
<g id="edge40_Node000002_Node000033" class="edge">
<title>Node2&#45;&gt;Node33</title>
<g id="a_edge40_Node000002_Node000033"><a xlink:title=" ">
<path fill="none" stroke="#63b8ff" d="M1145.6,-197.92C1313.84,-175.34 1358.32,-178.28 1523.5,-162 1550.74,-159.31 1581.02,-156.23 1606.17,-153.64"/>
<polygon fill="#63b8ff" stroke="#63b8ff" points="1145.11,-194.45 1135.67,-199.26 1146.04,-201.39 1145.11,-194.45"/>
</a>
</g>
</g>
<!-- Node4 -->
<g id="Node000004" class="node">
<title>Node4</title>
<g id="a_Node000004"><a xlink:href="in_2stream_2legacy_2SocketServer_8cpp.html" target="_top" xlink:title=" ">
<polygon fill="white" stroke="#666666" points="242,-96 137,-96 137,-66 242,-66 242,-96"/>
<text text-anchor="start" x="145" y="-84" font-family="Helvetica,sans-Serif" font-size="10.00">net/in/stream/legacy</text>
<text text-anchor="middle" x="189.5" y="-73" font-family="Helvetica,sans-Serif" font-size="10.00">/SocketServer.cpp</text>
</a>
</g>
</g>
<!-- Node3&#45;&gt;Node4 -->
<g id="edge3_Node000003_Node000004" class="edge">
<title>Node3&#45;&gt;Node4</title>
<g id="a_edge3_Node000003_Node000004"><a xlink:title=" ">
<path fill="none" stroke="#63b8ff" d="M980.81,-132.03C980.7,-132.02 980.6,-132.01 980.5,-132 657.49,-97.55 572.28,-140.5 250.5,-96 247.81,-95.63 245.06,-95.19 242.3,-94.72"/>
<polygon fill="#63b8ff" stroke="#63b8ff" points="980.14,-135.48 990.48,-133.17 980.95,-128.53 980.14,-135.48"/>
</a>
</g>
</g>
<!-- Node5 -->
<g id="Node000005" class="node">
<title>Node5</title>
<g id="a_Node000005"><a xlink:href="in6_2stream_2legacy_2SocketClient_8cpp.html" target="_top" xlink:title=" ">
<polygon fill="white" stroke="#666666" points="608.5,-96 498.5,-96 498.5,-66 608.5,-66 608.5,-96"/>
<text text-anchor="start" x="506.5" y="-84" font-family="Helvetica,sans-Serif" font-size="10.00">net/in6/stream/legacy</text>
<text text-anchor="middle" x="553.5" y="-73" font-family="Helvetica,sans-Serif" font-size="10.00">/SocketClient.cpp</text>
</a>
</g>
</g>
<!-- Node3&#45;&gt;Node5 -->
<g id="edge4_Node000003_Node000005" class="edge">
<title>Node3&#45;&gt;Node5</title>
<g id="a_edge4_Node000003_Node000005"><a xlink:title=" ">
<path fill="none" stroke="#63b8ff" d="M980.81,-132.04C980.7,-132.03 980.6,-132.01 980.5,-132 819.77,-110.82 777.63,-121.37 617.5,-96 614.58,-95.54 611.59,-95.02 608.58,-94.48"/>
<polygon fill="#63b8ff" stroke="#63b8ff" points="980.07,-135.47 990.45,-133.37 981.02,-128.54 980.07,-135.47"/>
</a>
</g>
</g>
<!-- Node6 -->
<g id="Node000006" class="node">
<title>Node6</title>
<g id="a_Node000006"><a xlink:href="in6_2stream_2legacy_2SocketServer_8cpp.html" target="_top" xlink:title=" ">
<polygon fill="white" stroke="#666666" points="736.5,-96 626.5,-96 626.5,-66 736.5,-66 736.5,-96"/>
<text text-anchor="start" x="634.5" y="-84" font-family="Helvetica,sans-Serif" font-size="10.00">net/in6/stream/legacy</text>
<text text-anchor="middle" x="681.5" y="-73" font-family="Helvetica,sans-Serif" font-size="10.00">/SocketServer.cpp</text>
</a>
</g>
</g>
<!-- Node3&#45;&gt;Node6 -->
<g id="edge5_Node000003_Node000006" class="edge">
<title>Node3&#45;&gt;Node6</title>
<g id="a_edge5_Node000003_Node000006"><a xlink:title=" ">
<path fill="none" stroke="#63b8ff" d="M980.8,-132.05C980.7,-132.03 980.6,-132.02 980.5,-132 876.15,-115.41 849.39,-115.3 745.5,-96 742.59,-95.46 739.62,-94.89 736.61,-94.29"/>
<polygon fill="#63b8ff" stroke="#63b8ff" points="979.99,-135.46 990.42,-133.59 981.1,-128.55 979.99,-135.46"/>
</a>
</g>
</g>
<!-- Node7 -->
<g id="Node000007" class="node">
<title>Node7</title>
<g id="a_Node000007"><a xlink:href="l2_2stream_2legacy_2SocketClient_8cpp.html" target="_top" xlink:title=" ">
<polygon fill="white" stroke="#666666" points="860,-96 755,-96 755,-66 860,-66 860,-96"/>
<text text-anchor="start" x="763" y="-84" font-family="Helvetica,sans-Serif" font-size="10.00">net/l2/stream/legacy</text>
<text text-anchor="middle" x="807.5" y="-73" font-family="Helvetica,sans-Serif" font-size="10.00">/SocketClient.cpp</text>
</a>
</g>
</g>
<!-- Node3&#45;&gt;Node7 -->
<g id="edge6_Node000003_Node000007" class="edge">
<title>Node3&#45;&gt;Node7</title>
<g id="a_edge6_Node000003_Node000007"><a xlink:title=" ">
<path fill="none" stroke="#63b8ff" d="M999.01,-129.51C955.77,-118.78 900.17,-104.99 860.03,-95.03"/>
<polygon fill="#63b8ff" stroke="#63b8ff" points="998.33,-132.94 1008.88,-131.95 1000.02,-126.15 998.33,-132.94"/>
</a>
</g>
</g>
<!-- Node8 -->
<g id="Node000008" class="node">
<title>Node8</title>
<g id="a_Node000008"><a xlink:href="l2_2stream_2legacy_2SocketServer_8cpp.html" target="_top" xlink:title=" ">
<polygon fill="white" stroke="#666666" points="983,-96 878,-96 878,-66 983,-66 983,-96"/>
<text text-anchor="start" x="886" y="-84" font-family="Helvetica,sans-Serif" font-size="10.00">net/l2/stream/legacy</text>
<text text-anchor="middle" x="930.5" y="-73" font-family="Helvetica,sans-Serif" font-size="10.00">/SocketServer.cpp</text>
</a>
</g>
</g>
<!-- Node3&#45;&gt;Node8 -->
<g id="edge7_Node000003_Node000008" class="edge">
<title>Node3&#45;&gt;Node8</title>
<g id="a_edge7_Node000003_Node000008"><a xlink:title=" ">
<path fill="none" stroke="#63b8ff" d="M1026.79,-127.65C1005.56,-117.58 979.65,-105.3 960.06,-96.01"/>
<polygon fill="#63b8ff" stroke="#63b8ff" points="1025.34,-130.83 1035.87,-131.95 1028.34,-124.51 1025.34,-130.83"/>
</a>
</g>
</g>
<!-- Node9 -->
<g id="Node000009" class="node">
<title>Node9</title>
<g id="a_Node000009"><a xlink:href="rc_2stream_2legacy_2SocketClient_8cpp.html" target="_top" xlink:title=" ">
<polygon fill="white" stroke="#666666" points="1107.5,-96 1001.5,-96 1001.5,-66 1107.5,-66 1107.5,-96"/>
<text text-anchor="start" x="1009.5" y="-84" font-family="Helvetica,sans-Serif" font-size="10.00">net/rc/stream/legacy</text>
<text text-anchor="middle" x="1054.5" y="-73" font-family="Helvetica,sans-Serif" font-size="10.00">/SocketClient.cpp</text>
</a>
</g>
</g>
<!-- Node3&#45;&gt;Node9 -->
<g id="edge8_Node000003_Node000009" class="edge">
<title>Node3&#45;&gt;Node9</title>
<g id="a_edge8_Node000003_Node000009"><a xlink:title=" ">
<path fill="none" stroke="#63b8ff" d="M1061.34,-121.83C1059.86,-113.17 1058.23,-103.7 1056.93,-96.16"/>
<polygon fill="#63b8ff" stroke="#63b8ff" points="1057.92,-122.53 1063.06,-131.8 1064.81,-121.35 1057.92,-122.53"/>
</a>
</g>
</g>
<!-- Node10 -->
<g id="Node000010" class="node">
<title>Node10</title>
<g id="a_Node000010"><a xlink:href="rc_2stream_2legacy_2SocketServer_8cpp.html" target="_top" xlink:title=" ">
<polygon fill="white" stroke="#666666" points="1231.5,-96 1125.5,-96 1125.5,-66 1231.5,-66 1231.5,-96"/>
<text text-anchor="start" x="1133.5" y="-84" font-family="Helvetica,sans-Serif" font-size="10.00">net/rc/stream/legacy</text>
<text text-anchor="middle" x="1178.5" y="-73" font-family="Helvetica,sans-Serif" font-size="10.00">/SocketServer.cpp</text>
</a>
</g>
</g>
<!-- Node3&#45;&gt;Node10 -->
<g id="edge9_Node000003_Node000010" class="edge">
<title>Node3&#45;&gt;Node10</title>
<g id="a_edge9_Node000003_Node000010"><a xlink:title=" ">
<path fill="none" stroke="#63b8ff" d="M1099.1,-126.97C1116.64,-117.03 1137.73,-105.09 1153.76,-96.01"/>
<polygon fill="#63b8ff" stroke="#63b8ff" points="1097.27,-123.98 1090.3,-131.95 1100.72,-130.07 1097.27,-123.98"/>
</a>
</g>
</g>
<!-- Node11 -->
<g id="Node000011" class="node">
<title>Node11</title>
<g id="a_Node000011"><a xlink:href="un_2stream_2legacy_2SocketClient_8cpp.html" target="_top" xlink:title=" ">
<polygon fill="white" stroke="#666666" points="1357.5,-96 1249.5,-96 1249.5,-66 1357.5,-66 1357.5,-96"/>
<text text-anchor="start" x="1257.5" y="-84" font-family="Helvetica,sans-Serif" font-size="10.00">net/un/stream/legacy</text>
<text text-anchor="middle" x="1303.5" y="-73" font-family="Helvetica,sans-Serif" font-size="10.00">/SocketClient.cpp</text>
</a>
</g>
</g>
<!-- Node3&#45;&gt;Node11 -->
<g id="edge10_Node000003_Node000011" class="edge">
<title>Node3&#45;&gt;Node11</title>
<g id="a_edge10_Node000003_Node000011"><a xlink:title=" ">
<path fill="none" stroke="#63b8ff" d="M1127.78,-129.25C1166.23,-118.91 1214.99,-105.8 1251.39,-96.01"/>
<polygon fill="#63b8ff" stroke="#63b8ff" points="1126.48,-125.98 1117.73,-131.95 1128.3,-132.74 1126.48,-125.98"/>
</a>
</g>
</g>
<!-- Node12 -->
<g id="Node000012" class="node">
<title>Node12</title>
<g id="a_Node000012"><a xlink:href="un_2stream_2legacy_2SocketServer_8cpp.html" target="_top" xlink:title=" ">
<polygon fill="white" stroke="#666666" points="1714.5,-96 1606.5,-96 1606.5,-66 1714.5,-66 1714.5,-96"/>
<text text-anchor="start" x="1614.5" y="-84" font-family="Helvetica,sans-Serif" font-size="10.00">net/un/stream/legacy</text>
<text text-anchor="middle" x="1660.5" y="-73" font-family="Helvetica,sans-Serif" font-size="10.00">/SocketServer.cpp</text>
</a>
</g>
</g>
<!-- Node3&#45;&gt;Node12 -->
<g id="edge11_Node000003_Node000012" class="edge">
<title>Node3&#45;&gt;Node12</title>
<g id="a_edge11_Node000003_Node000012"><a xlink:title=" ">
<path fill="none" stroke="#63b8ff" d="M1150.73,-131.93C1349.08,-108.17 1402.64,-124.88 1596.5,-96 1599.76,-95.51 1603.11,-94.96 1606.47,-94.36"/>
<polygon fill="#63b8ff" stroke="#63b8ff" points="1150.06,-128.48 1140.56,-133.17 1150.91,-135.43 1150.06,-128.48"/>
</a>
</g>
</g>
<!-- Node14 -->
<g id="Node000014" class="node">
<title>Node14</title>
<g id="a_Node000014"><a xlink:href="in_2stream_2legacy_2SocketClient_8cpp.html" target="_top" xlink:title=" ">
<polygon fill="white" stroke="#666666" points="2072,-96 1967,-96 1967,-66 2072,-66 2072,-96"/>
<text text-anchor="start" x="1975" y="-84" font-family="Helvetica,sans-Serif" font-size="10.00">net/in/stream/legacy</text>
<text text-anchor="middle" x="2019.5" y="-73" font-family="Helvetica,sans-Serif" font-size="10.00">/SocketClient.cpp</text>
</a>
</g>
</g>
<!-- Node13&#45;&gt;Node14 -->
<g id="edge13_Node000013_Node000014" class="edge">
<title>Node13&#45;&gt;Node14</title>
<g id="a_edge13_Node000013_Node000014"><a xlink:title=" ">
<path fill="none" stroke="#63b8ff" d="M2019.5,-121.54C2019.5,-112.96 2019.5,-103.61 2019.5,-96.16"/>
<polygon fill="#63b8ff" stroke="#63b8ff" points="2016,-121.8 2019.5,-131.8 2023,-121.8 2016,-121.8"/>
</a>
</g>
</g>
<!-- Node15 -->
<g id="Node000015" class="node">
<title>Node15</title>
<g id="a_Node000015"><a xlink:href="legacy_2in_2Client_8h.html" target="_top" xlink:title=" ">
<polygon fill="white" stroke="#666666" points="2186.5,-96 2090.5,-96 2090.5,-66 2186.5,-66 2186.5,-96"/>
<text text-anchor="start" x="2098.5" y="-84" font-family="Helvetica,sans-Serif" font-size="10.00">web/http/legacy/in</text>
<text text-anchor="middle" x="2138.5" y="-73" font-family="Helvetica,sans-Serif" font-size="10.00">/Client.h</text>
</a>
</g>
</g>
<!-- Node13&#45;&gt;Node15 -->
<g id="edge14_Node000013_Node000015" class="edge">
<title>Node13&#45;&gt;Node15</title>
<g id="a_edge14_Node000013_Node000015"><a xlink:title=" ">
<path fill="none" stroke="#63b8ff" d="M2054.63,-127.11C2073.15,-117.14 2095.49,-105.13 2112.45,-96.01"/>
<polygon fill="#63b8ff" stroke="#63b8ff" points="2052.76,-124.14 2045.62,-131.95 2056.08,-130.3 2052.76,-124.14"/>
</a>
</g>
</g>
<!-- Node16&#45;&gt;Node4 -->
<g id="edge16_Node000016_Node000004" class="edge">
<title>Node16&#45;&gt;Node4</title>
<g id="a_edge16_Node000016_Node000004"><a xlink:title=" ">
<path fill="none" stroke="#63b8ff" d="M189.5,-121.54C189.5,-112.96 189.5,-103.61 189.5,-96.16"/>
<polygon fill="#63b8ff" stroke="#63b8ff" points="186,-121.8 189.5,-131.8 193,-121.8 186,-121.8"/>
</a>
</g>
</g>
<!-- Node17 -->
<g id="Node000017" class="node">
<title>Node17</title>
<g id="a_Node000017"><a xlink:href="legacy_2in_2Server_8h.html" target="_top" xlink:title=" ">
<polygon fill="white" stroke="#666666" points="118.5,-96 22.5,-96 22.5,-66 118.5,-66 118.5,-96"/>
<text text-anchor="start" x="30.5" y="-84" font-family="Helvetica,sans-Serif" font-size="10.00">web/http/legacy/in</text>
<text text-anchor="middle" x="70.5" y="-73" font-family="Helvetica,sans-Serif" font-size="10.00">/Server.h</text>
</a>
</g>
</g>
<!-- Node16&#45;&gt;Node17 -->
<g id="edge17_Node000016_Node000017" class="edge">
<title>Node16&#45;&gt;Node17</title>
<g id="a_edge17_Node000016_Node000017"><a xlink:title=" ">
<path fill="none" stroke="#63b8ff" d="M154.37,-127.11C135.85,-117.14 113.51,-105.13 96.55,-96.01"/>
<polygon fill="#63b8ff" stroke="#63b8ff" points="152.92,-130.3 163.38,-131.95 156.24,-124.14 152.92,-130.3"/>
</a>
</g>
</g>
<!-- Node18 -->
<g id="Node000018" class="node">
<title>Node18</title>
<g id="a_Node000018"><a xlink:href="legacy_2in_2WebApp_8h.html" target="_top" xlink:title=" ">
<polygon fill="white" stroke="#666666" points="141,-24.5 0,-24.5 0,-5.5 141,-5.5 141,-24.5"/>
<text text-anchor="middle" x="70.5" y="-12.5" font-family="Helvetica,sans-Serif" font-size="10.00">express/legacy/in/WebApp.h</text>
</a>
</g>
</g>
<!-- Node17&#45;&gt;Node18 -->
<g id="edge18_Node000017_Node000018" class="edge">
<title>Node17&#45;&gt;Node18</title>
<g id="a_edge18_Node000017_Node000018"><a xlink:title=" ">
<path fill="none" stroke="#63b8ff" d="M70.5,-55.6C70.5,-44.8 70.5,-32.78 70.5,-24.84"/>
<polygon fill="#63b8ff" stroke="#63b8ff" points="67,-55.8 70.5,-65.8 74,-55.8 67,-55.8"/>
</a>
</g>
</g>
<!-- Node19&#45;&gt;Node5 -->
<g id="edge20_Node000019_Node000005" class="edge">
<title>Node19&#45;&gt;Node5</title>
<g id="a_edge20_Node000019_Node000005"><a xlink:title=" ">
<path fill="none" stroke="#63b8ff" d="M546.66,-121.83C548.14,-113.17 549.77,-103.7 551.07,-96.16"/>
<polygon fill="#63b8ff" stroke="#63b8ff" points="543.19,-121.35 544.94,-131.8 550.08,-122.53 543.19,-121.35"/>
</a>
</g>
</g>
<!-- Node20 -->
<g id="Node000020" class="node">
<title>Node20</title>
<g id="a_Node000020"><a xlink:href="legacy_2in6_2Client_8h.html" target="_top" xlink:title=" ">
<polygon fill="white" stroke="#666666" points="361,-96 260,-96 260,-66 361,-66 361,-96"/>
<text text-anchor="start" x="268" y="-84" font-family="Helvetica,sans-Serif" font-size="10.00">web/http/legacy/in6</text>
<text text-anchor="middle" x="310.5" y="-73" font-family="Helvetica,sans-Serif" font-size="10.00">/Client.h</text>
</a>
</g>
</g>
<!-- Node19&#45;&gt;Node20 -->
<g id="edge21_Node000019_Node000020" class="edge">
<title>Node19&#45;&gt;Node20</title>
<g id="a_edge21_Node000019_Node000020"><a xlink:title=" ">
<path fill="none" stroke="#63b8ff" d="M481.79,-129.25C444.31,-118.91 396.78,-105.8 361.29,-96.01"/>
<polygon fill="#63b8ff" stroke="#63b8ff" points="481.02,-132.67 491.59,-131.95 482.88,-125.92 481.02,-132.67"/>
</a>
</g>
</g>
<!-- Node21&#45;&gt;Node6 -->
<g id="edge23_Node000021_Node000006" class="edge">
<title>Node21&#45;&gt;Node6</title>
<g id="a_edge23_Node000021_Node000006"><a xlink:title=" ">
<path fill="none" stroke="#63b8ff" d="M674.66,-121.83C676.14,-113.17 677.77,-103.7 679.07,-96.16"/>
<polygon fill="#63b8ff" stroke="#63b8ff" points="671.19,-121.35 672.94,-131.8 678.08,-122.53 671.19,-121.35"/>
</a>
</g>
</g>
<!-- Node22 -->
<g id="Node000022" class="node">
<title>Node22</title>
<g id="a_Node000022"><a xlink:href="legacy_2in6_2Server_8h.html" target="_top" xlink:title=" ">
<polygon fill="white" stroke="#666666" points="480,-96 379,-96 379,-66 480,-66 480,-96"/>
<text text-anchor="start" x="387" y="-84" font-family="Helvetica,sans-Serif" font-size="10.00">web/http/legacy/in6</text>
<text text-anchor="middle" x="429.5" y="-73" font-family="Helvetica,sans-Serif" font-size="10.00">/Server.h</text>
</a>
</g>
</g>
<!-- Node21&#45;&gt;Node22 -->
<g id="edge24_Node000021_Node000022" class="edge">
<title>Node21&#45;&gt;Node22</title>
<g id="a_edge24_Node000021_Node000022"><a xlink:title=" ">
<path fill="none" stroke="#63b8ff" d="M607.77,-129.34C568.05,-118.79 517.37,-105.33 480.2,-95.46"/>
<polygon fill="#63b8ff" stroke="#63b8ff" points="607.05,-132.77 617.61,-131.95 608.84,-126.01 607.05,-132.77"/>
</a>
</g>
</g>
<!-- Node23 -->
<g id="Node000023" class="node">
<title>Node23</title>
<g id="a_Node000023"><a xlink:href="legacy_2in6_2WebApp_8h.html" target="_top" xlink:title=" ">
<polygon fill="white" stroke="#666666" points="478.5,-30 380.5,-30 380.5,0 478.5,0 478.5,-30"/>
<text text-anchor="start" x="388.5" y="-18" font-family="Helvetica,sans-Serif" font-size="10.00">express/legacy/in6</text>
<text text-anchor="middle" x="429.5" y="-7" font-family="Helvetica,sans-Serif" font-size="10.00">/WebApp.h</text>
</a>
</g>
</g>
<!-- Node22&#45;&gt;Node23 -->
<g id="edge25_Node000022_Node000023" class="edge">
<title>Node22&#45;&gt;Node23</title>
<g id="a_edge25_Node000022_Node000023"><a xlink:title=" ">
<path fill="none" stroke="#63b8ff" d="M429.5,-55.54C429.5,-46.96 429.5,-37.61 429.5,-30.16"/>
<polygon fill="#63b8ff" stroke="#63b8ff" points="426,-55.8 429.5,-65.8 433,-55.8 426,-55.8"/>
</a>
</g>
</g>
<!-- Node24&#45;&gt;Node7 -->
<g id="edge27_Node000024_Node000007" class="edge">
<title>Node24&#45;&gt;Node7</title>
<g id="a_edge27_Node000024_Node000007"><a xlink:title=" ">
<path fill="none" stroke="#63b8ff" d="M800.66,-121.83C802.14,-113.17 803.77,-103.7 805.07,-96.16"/>
<polygon fill="#63b8ff" stroke="#63b8ff" points="797.19,-121.35 798.94,-131.8 804.08,-122.53 797.19,-121.35"/>
</a>
</g>
</g>
<!-- Node25&#45;&gt;Node8 -->
<g id="edge29_Node000025_Node000008" class="edge">
<title>Node25&#45;&gt;Node8</title>
<g id="a_edge29_Node000025_Node000008"><a xlink:title=" ">
<path fill="none" stroke="#63b8ff" d="M923.66,-121.83C925.14,-113.17 926.77,-103.7 928.07,-96.16"/>
<polygon fill="#63b8ff" stroke="#63b8ff" points="920.19,-121.35 921.94,-131.8 927.08,-122.53 920.19,-121.35"/>
</a>
</g>
</g>
<!-- Node26&#45;&gt;Node9 -->
<g id="edge31_Node000026_Node000009" class="edge">
<title>Node26&#45;&gt;Node9</title>
<g id="a_edge31_Node000026_Node000009"><a xlink:title=" ">
<path fill="none" stroke="#63b8ff" d="M1167.48,-128.05C1142.6,-117.91 1111.97,-105.43 1088.87,-96.01"/>
<polygon fill="#63b8ff" stroke="#63b8ff" points="1166.46,-131.42 1177.05,-131.95 1169.11,-124.94 1166.46,-131.42"/>
</a>
</g>
</g>
<!-- Node27 -->
<g id="Node000027" class="node">
<title>Node27</title>
<g id="a_Node000027"><a xlink:href="legacy_2rc_2Client_8h.html" target="_top" xlink:title=" ">
<polygon fill="white" stroke="#666666" points="1473,-96 1376,-96 1376,-66 1473,-66 1473,-96"/>
<text text-anchor="start" x="1384" y="-84" font-family="Helvetica,sans-Serif" font-size="10.00">web/http/legacy/rc</text>
<text text-anchor="middle" x="1424.5" y="-73" font-family="Helvetica,sans-Serif" font-size="10.00">/Client.h</text>
</a>
</g>
</g>
<!-- Node26&#45;&gt;Node27 -->
<g id="edge32_Node000026_Node000027" class="edge">
<title>Node26&#45;&gt;Node27</title>
<g id="a_edge32_Node000026_Node000027"><a xlink:title=" ">
<path fill="none" stroke="#63b8ff" d="M1268.11,-128.99C1302.39,-118.69 1345.57,-105.72 1377.87,-96.01"/>
<polygon fill="#63b8ff" stroke="#63b8ff" points="1266.81,-125.73 1258.24,-131.95 1268.83,-132.43 1266.81,-125.73"/>
</a>
</g>
</g>
<!-- Node28&#45;&gt;Node10 -->
<g id="edge34_Node000028_Node000010" class="edge">
<title>Node28&#45;&gt;Node10</title>
<g id="a_edge34_Node000028_Node000010"><a xlink:title=" ">
<path fill="none" stroke="#63b8ff" d="M1291.48,-128.05C1266.6,-117.91 1235.97,-105.43 1212.87,-96.01"/>
<polygon fill="#63b8ff" stroke="#63b8ff" points="1290.46,-131.42 1301.05,-131.95 1293.11,-124.94 1290.46,-131.42"/>
</a>
</g>
</g>
<!-- Node29 -->
<g id="Node000029" class="node">
<title>Node29</title>
<g id="a_Node000029"><a xlink:href="legacy_2rc_2Server_8h.html" target="_top" xlink:title=" ">
<polygon fill="white" stroke="#666666" points="1588,-96 1491,-96 1491,-66 1588,-66 1588,-96"/>
<text text-anchor="start" x="1499" y="-84" font-family="Helvetica,sans-Serif" font-size="10.00">web/http/legacy/rc</text>
<text text-anchor="middle" x="1539.5" y="-73" font-family="Helvetica,sans-Serif" font-size="10.00">/Server.h</text>
</a>
</g>
</g>
<!-- Node28&#45;&gt;Node29 -->
<g id="edge35_Node000028_Node000029" class="edge">
<title>Node28&#45;&gt;Node29</title>
<g id="a_edge35_Node000028_Node000029"><a xlink:title=" ">
<path fill="none" stroke="#63b8ff" d="M1390.15,-128.86C1422.9,-118.58 1464.03,-105.68 1494.84,-96.01"/>
<polygon fill="#63b8ff" stroke="#63b8ff" points="1388.76,-125.62 1380.27,-131.95 1390.86,-132.3 1388.76,-125.62"/>
</a>
</g>
</g>
<!-- Node30 -->
<g id="Node000030" class="node">
<title>Node30</title>
<g id="a_Node000030"><a xlink:href="legacy_2rc_2WebApp_8h.html" target="_top" xlink:title=" ">
<polygon fill="white" stroke="#666666" points="1610.5,-24.5 1468.5,-24.5 1468.5,-5.5 1610.5,-5.5 1610.5,-24.5"/>
<text text-anchor="middle" x="1539.5" y="-12.5" font-family="Helvetica,sans-Serif" font-size="10.00">express/legacy/rc/WebApp.h</text>
</a>
</g>
</g>
<!-- Node29&#45;&gt;Node30 -->
<g id="edge36_Node000029_Node000030" class="edge">
<title>Node29&#45;&gt;Node30</title>
<g id="a_edge36_Node000029_Node000030"><a xlink:title=" ">
<path fill="none" stroke="#63b8ff" d="M1539.5,-55.6C1539.5,-44.8 1539.5,-32.78 1539.5,-24.84"/>
<polygon fill="#63b8ff" stroke="#63b8ff" points="1536,-55.8 1539.5,-65.8 1543,-55.8 1536,-55.8"/>
</a>
</g>
</g>
<!-- Node31&#45;&gt;Node11 -->
<g id="edge38_Node000031_Node000011" class="edge">
<title>Node31&#45;&gt;Node11</title>
<g id="a_edge38_Node000031_Node000011"><a xlink:title=" ">
<path fill="none" stroke="#63b8ff" d="M1416.48,-128.05C1391.6,-117.91 1360.97,-105.43 1337.87,-96.01"/>
<polygon fill="#63b8ff" stroke="#63b8ff" points="1415.46,-131.42 1426.05,-131.95 1418.11,-124.94 1415.46,-131.42"/>
</a>
</g>
</g>
<!-- Node32 -->
<g id="Node000032" class="node">
<title>Node32</title>
<g id="a_Node000032"><a xlink:href="legacy_2un_2Client_8h.html" target="_top" xlink:title=" ">
<polygon fill="white" stroke="#666666" points="1832,-96 1733,-96 1733,-66 1832,-66 1832,-96"/>
<text text-anchor="start" x="1741" y="-84" font-family="Helvetica,sans-Serif" font-size="10.00">web/http/legacy/un</text>
<text text-anchor="middle" x="1782.5" y="-73" font-family="Helvetica,sans-Serif" font-size="10.00">/Client.h</text>
</a>
</g>
</g>
<!-- Node31&#45;&gt;Node32 -->
<g id="edge39_Node000031_Node000032" class="edge">
<title>Node31&#45;&gt;Node32</title>
<g id="a_edge39_Node000031_Node000032"><a xlink:title=" ">
<path fill="none" stroke="#63b8ff" d="M1524.54,-134.66C1577.89,-125.01 1655.82,-110.46 1723.5,-96 1726.59,-95.34 1729.76,-94.64 1732.96,-93.93"/>
<polygon fill="#63b8ff" stroke="#63b8ff" points="1523.76,-131.24 1514.54,-136.46 1525,-138.13 1523.76,-131.24"/>
</a>
</g>
</g>
<!-- Node33&#45;&gt;Node12 -->
<g id="edge41_Node000033_Node000012" class="edge">
<title>Node33&#45;&gt;Node12</title>
<g id="a_edge41_Node000033_Node000012"><a xlink:title=" ">
<path fill="none" stroke="#63b8ff" d="M1660.5,-121.54C1660.5,-112.96 1660.5,-103.61 1660.5,-96.16"/>
<polygon fill="#63b8ff" stroke="#63b8ff" points="1657,-121.8 1660.5,-131.8 1664,-121.8 1657,-121.8"/>
</a>
</g>
</g>
<!-- Node34 -->
<g id="Node000034" class="node">
<title>Node34</title>
<g id="a_Node000034"><a xlink:href="legacy_2un_2Server_8h.html" target="_top" xlink:title=" ">
<polygon fill="white" stroke="#666666" points="1949,-96 1850,-96 1850,-66 1949,-66 1949,-96"/>
<text text-anchor="start" x="1858" y="-84" font-family="Helvetica,sans-Serif" font-size="10.00">web/http/legacy/un</text>
<text text-anchor="middle" x="1899.5" y="-73" font-family="Helvetica,sans-Serif" font-size="10.00">/Server.h</text>
</a>
</g>
</g>
<!-- Node33&#45;&gt;Node34 -->
<g id="edge42_Node000033_Node000034" class="edge">
<title>Node33&#45;&gt;Node34</title>
<g id="a_edge42_Node000033_Node000034"><a xlink:title=" ">
<path fill="none" stroke="#63b8ff" d="M1722.75,-129.33C1762.27,-118.75 1812.74,-105.23 1849.63,-95.36"/>
<polygon fill="#63b8ff" stroke="#63b8ff" points="1721.7,-125.99 1712.95,-131.95 1723.51,-132.75 1721.7,-125.99"/>
</a>
</g>
</g>
<!-- Node35 -->
<g id="Node000035" class="node">
<title>Node35</title>
<g id="a_Node000035"><a xlink:href="legacy_2un_2WebApp_8h.html" target="_top" xlink:title=" ">
<polygon fill="white" stroke="#666666" points="1971.5,-24.5 1827.5,-24.5 1827.5,-5.5 1971.5,-5.5 1971.5,-24.5"/>
<text text-anchor="middle" x="1899.5" y="-12.5" font-family="Helvetica,sans-Serif" font-size="10.00">express/legacy/un/WebApp.h</text>
</a>
</g>
</g>
<!-- Node34&#45;&gt;Node35 -->
<g id="edge43_Node000034_Node000035" class="edge">
<title>Node34&#45;&gt;Node35</title>
<g id="a_edge43_Node000034_Node000035"><a xlink:title=" ">
<path fill="none" stroke="#63b8ff" d="M1899.5,-55.6C1899.5,-44.8 1899.5,-32.78 1899.5,-24.84"/>
<polygon fill="#63b8ff" stroke="#63b8ff" points="1896,-55.8 1899.5,-65.8 1903,-55.8 1896,-55.8"/>
</a>
</g>
</g>
</g>
</svg>
