<?xml version="1.0" encoding="UTF-8" standalone="no"?>
<!DOCTYPE svg PUBLIC "-//W3C//DTD SVG 1.1//EN"
 "http://www.w3.org/Graphics/SVG/1.1/DTD/svg11.dtd">
<!-- Generated by graphviz version 2.42.4 (0)
 -->
<!-- Title: database/mariadb/MariaDBCommandSequence.cpp Pages: 1 -->
<svg width="557pt" height="170pt"
 viewBox="0.00 0.00 556.50 170.00" xmlns="http://www.w3.org/2000/svg" xmlns:xlink="http://www.w3.org/1999/xlink">
<g id="graph0" class="graph" transform="scale(1 1) rotate(0) translate(4 166)">
<title>database/mariadb/MariaDBCommandSequence.cpp</title>
<!-- Node1 -->
<g id="Node000001" class="node">
<title>Node1</title>
<g id="a_Node000001"><a xlink:title=" ">
<polygon fill="#999999" stroke="#666666" points="445.5,-162 265.5,-162 265.5,-132 445.5,-132 445.5,-162"/>
<text text-anchor="start" x="273.5" y="-150" font-family="Helvetica,sans-Serif" font-size="10.00">database/mariadb/MariaDBCommand</text>
<text text-anchor="middle" x="355.5" y="-139" font-family="Helvetica,sans-Serif" font-size="10.00">Sequence.cpp</text>
</a>
</g>
</g>
<!-- Node2 -->
<g id="Node000002" class="node">
<title>Node2</title>
<g id="a_Node000002"><a xlink:href="MariaDBCommandSequence_8h.html" target="_top" xlink:title=" ">
<polygon fill="white" stroke="#666666" points="346.5,-96 166.5,-96 166.5,-66 346.5,-66 346.5,-96"/>
<text text-anchor="start" x="174.5" y="-84" font-family="Helvetica,sans-Serif" font-size="10.00">database/mariadb/MariaDBCommand</text>
<text text-anchor="middle" x="256.5" y="-73" font-family="Helvetica,sans-Serif" font-size="10.00">Sequence.h</text>
</a>
</g>
</g>
<!-- Node1&#45;&gt;Node2 -->
<g id="edge1_Node000001_Node000002" class="edge">
<title>Node1&#45;&gt;Node2</title>
<g id="a_edge1_Node000001_Node000002"><a xlink:title=" ">
<path fill="none" stroke="#63b8ff" d="M333.53,-131.8C319.81,-122.93 301.97,-111.39 286.9,-101.66"/>
<polygon fill="#63b8ff" stroke="#63b8ff" points="288.71,-98.65 278.41,-96.16 284.91,-104.53 288.71,-98.65"/>
</a>
</g>
</g>
<!-- Node5 -->
<g id="Node000005" class="node">
<title>Node5</title>
<g id="a_Node000005"><a xlink:href="MariaDBCommandSync_8h.html" target="_top" xlink:title=" ">
<polygon fill="white" stroke="#666666" points="544.5,-96 364.5,-96 364.5,-66 544.5,-66 544.5,-96"/>
<text text-anchor="start" x="372.5" y="-84" font-family="Helvetica,sans-Serif" font-size="10.00">database/mariadb/MariaDBCommand</text>
<text text-anchor="middle" x="454.5" y="-73" font-family="Helvetica,sans-Serif" font-size="10.00">Sync.h</text>
</a>
</g>
</g>
<!-- Node1&#45;&gt;Node5 -->
<g id="edge4_Node000001_Node000005" class="edge">
<title>Node1&#45;&gt;Node5</title>
<g id="a_edge4_Node000001_Node000005"><a xlink:title=" ">
<path fill="none" stroke="#63b8ff" d="M377.47,-131.8C391.19,-122.93 409.03,-111.39 424.1,-101.66"/>
<polygon fill="#63b8ff" stroke="#63b8ff" points="426.09,-104.53 432.59,-96.16 422.29,-98.65 426.09,-104.53"/>
</a>
</g>
</g>
<!-- Node3 -->
<g id="Node000003" class="node">
<title>Node3</title>
<g id="a_Node000003"><a xlink:href="MariaDBClientASyncAPI_8h.html" target="_top" xlink:title=" ">
<polygon fill="white" stroke="#666666" points="161,-30 0,-30 0,0 161,0 161,-30"/>
<text text-anchor="start" x="8" y="-18" font-family="Helvetica,sans-Serif" font-size="10.00">database/mariadb/MariaDBClient</text>
<text text-anchor="middle" x="80.5" y="-7" font-family="Helvetica,sans-Serif" font-size="10.00">ASyncAPI.h</text>
</a>
</g>
</g>
<!-- Node2&#45;&gt;Node3 -->
<g id="edge2_Node000002_Node000003" class="edge">
<title>Node2&#45;&gt;Node3</title>
<g id="a_edge2_Node000002_Node000003"><a xlink:title=" ">
<path fill="none" stroke="#63b8ff" d="M217.88,-65.95C191.63,-56.41 156.71,-43.71 128.65,-33.51"/>
<polygon fill="#63b8ff" stroke="#63b8ff" points="129.63,-30.14 119.03,-30.01 127.24,-36.72 129.63,-30.14"/>
</a>
</g>
</g>
<!-- Node4 -->
<g id="Node000004" class="node">
<title>Node4</title>
<g id="a_Node000004"><a xlink:href="MariaDBClientSyncAPI_8h.html" target="_top" xlink:title=" ">
<polygon fill="white" stroke="#666666" points="340,-30 179,-30 179,0 340,0 340,-30"/>
<text text-anchor="start" x="187" y="-18" font-family="Helvetica,sans-Serif" font-size="10.00">database/mariadb/MariaDBClient</text>
<text text-anchor="middle" x="259.5" y="-7" font-family="Helvetica,sans-Serif" font-size="10.00">SyncAPI.h</text>
</a>
</g>
</g>
<!-- Node2&#45;&gt;Node4 -->
<g id="edge3_Node000002_Node000004" class="edge">
<title>Node2&#45;&gt;Node4</title>
<g id="a_edge3_Node000002_Node000004"><a xlink:title=" ">
<path fill="none" stroke="#63b8ff" d="M257.17,-65.8C257.52,-58.34 257.95,-48.99 258.36,-40.41"/>
<polygon fill="#63b8ff" stroke="#63b8ff" points="261.86,-40.32 258.84,-30.16 254.87,-39.99 261.86,-40.32"/>
</a>
</g>
</g>
<!-- Node6 -->
<g id="Node000006" class="node">
<title>Node6</title>
<g id="a_Node000006"><a xlink:href="MariaDBCommand_8h.html" target="_top" xlink:title=" ">
<polygon fill="white" stroke="#666666" points="548.5,-24.5 360.5,-24.5 360.5,-5.5 548.5,-5.5 548.5,-24.5"/>
<text text-anchor="middle" x="454.5" y="-12.5" font-family="Helvetica,sans-Serif" font-size="10.00">database/mariadb/MariaDBCommand.h</text>
</a>
</g>
</g>
<!-- Node5&#45;&gt;Node6 -->
<g id="edge5_Node000005_Node000006" class="edge">
<title>Node5&#45;&gt;Node6</title>
<g id="a_edge5_Node000005_Node000006"><a xlink:title=" ">
<path fill="none" stroke="#63b8ff" d="M454.5,-65.8C454.5,-56.7 454.5,-44.79 454.5,-34.9"/>
<polygon fill="#63b8ff" stroke="#63b8ff" points="458,-34.84 454.5,-24.84 451,-34.84 458,-34.84"/>
</a>
</g>
</g>
</g>
</svg>
