<?xml version="1.0" encoding="UTF-8" standalone="no"?>
<!DOCTYPE svg PUBLIC "-//W3C//DTD SVG 1.1//EN"
 "http://www.w3.org/Graphics/SVG/1.1/DTD/svg11.dtd">
<!-- Generated by graphviz version 14.1.1 (0)
 -->
<!-- Title: database/mariadb/MariaDBConnection.h Pages: 1 -->
<svg width="780pt" height="294pt"
 viewBox="0.00 0.00 780.00 294.00" xmlns="http://www.w3.org/2000/svg" xmlns:xlink="http://www.w3.org/1999/xlink">
<g id="graph0" class="graph" transform="scale(1 1) rotate(0) translate(4 290)">
<title>database/mariadb/MariaDBConnection.h</title>
<!-- Node1 -->
<g id="Node000001" class="node">
<title>Node1</title>
<g id="a_Node000001"><a xlink:title=" ">
<polygon fill="#999999" stroke="#666666" points="407.75,-286 194.5,-286 194.5,-265.25 407.75,-265.25 407.75,-286"/>
<text xml:space="preserve" text-anchor="middle" x="301.12" y="-272.5" font-family="Helvetica,sans-Serif" font-size="10.00">database/mariadb/MariaDBConnection.h</text>
</a>
</g>
</g>
<!-- Node2 -->
<g id="Node000002" class="node">
<title>Node2</title>
<g id="a_Node000002"><a xlink:href="ExceptionalConditionEventReceiver_8h.html" target="_top" xlink:title=" ">
<polygon fill="white" stroke="#666666" points="150.25,-229.25 0,-229.25 0,-183 150.25,-183 150.25,-229.25"/>
<text xml:space="preserve" text-anchor="start" x="8" y="-215.75" font-family="Helvetica,sans-Serif" font-size="10.00">core/eventreceiver</text>
<text xml:space="preserve" text-anchor="start" x="8" y="-203" font-family="Helvetica,sans-Serif" font-size="10.00">/ExceptionalConditionEvent</text>
<text xml:space="preserve" text-anchor="middle" x="75.12" y="-190.25" font-family="Helvetica,sans-Serif" font-size="10.00">Receiver.h</text>
</a>
</g>
</g>
<!-- Node1&#45;&gt;Node2 -->
<g id="edge1_Node000001_Node000002" class="edge">
<title>Node1&#45;&gt;Node2</title>
<g id="a_edge1_Node000001_Node000002"><a xlink:title=" ">
<path fill="none" stroke="#63b8ff" d="M268.26,-264.81C240.3,-256.46 198.83,-244.07 161.49,-232.92"/>
<polygon fill="#63b8ff" stroke="#63b8ff" points="162.6,-229.6 152.02,-230.09 160.6,-236.31 162.6,-229.6"/>
</a>
</g>
</g>
<!-- Node6 -->
<g id="Node000006" class="node">
<title>Node6</title>
<g id="a_Node000006"><a xlink:href="ReadEventReceiver_8h.html" target="_top" xlink:title=" ">
<polygon fill="white" stroke="#666666" points="291.75,-222.88 168.5,-222.88 168.5,-189.38 291.75,-189.38 291.75,-222.88"/>
<text xml:space="preserve" text-anchor="start" x="176.5" y="-209.38" font-family="Helvetica,sans-Serif" font-size="10.00">core/eventreceiver</text>
<text xml:space="preserve" text-anchor="middle" x="230.12" y="-196.62" font-family="Helvetica,sans-Serif" font-size="10.00">/ReadEventReceiver.h</text>
</a>
</g>
</g>
<!-- Node1&#45;&gt;Node6 -->
<g id="edge5_Node000001_Node000006" class="edge">
<title>Node1&#45;&gt;Node6</title>
<g id="a_edge5_Node000001_Node000006"><a xlink:title=" ">
<path fill="none" stroke="#63b8ff" d="M290.95,-264.95C281.67,-256.13 267.56,-242.72 255.27,-231.03"/>
<polygon fill="#63b8ff" stroke="#63b8ff" points="257.89,-228.69 248.23,-224.34 253.07,-233.76 257.89,-228.69"/>
</a>
</g>
</g>
<!-- Node7 -->
<g id="Node000007" class="node">
<title>Node7</title>
<g id="a_Node000007"><a xlink:href="WriteEventReceiver_8h.html" target="_top" xlink:title=" ">
<polygon fill="white" stroke="#666666" points="434.5,-222.88 309.75,-222.88 309.75,-189.38 434.5,-189.38 434.5,-222.88"/>
<text xml:space="preserve" text-anchor="start" x="317.75" y="-209.38" font-family="Helvetica,sans-Serif" font-size="10.00">core/eventreceiver</text>
<text xml:space="preserve" text-anchor="middle" x="372.12" y="-196.62" font-family="Helvetica,sans-Serif" font-size="10.00">/WriteEventReceiver.h</text>
</a>
</g>
</g>
<!-- Node1&#45;&gt;Node7 -->
<g id="edge7_Node000001_Node000007" class="edge">
<title>Node1&#45;&gt;Node7</title>
<g id="a_edge7_Node000001_Node000007"><a xlink:title=" ">
<path fill="none" stroke="#63b8ff" d="M311.3,-264.95C320.58,-256.13 334.69,-242.72 346.98,-231.03"/>
<polygon fill="#63b8ff" stroke="#63b8ff" points="349.18,-233.76 354.02,-224.34 344.36,-228.69 349.18,-233.76"/>
</a>
</g>
</g>
<!-- Node8 -->
<g id="Node000008" class="node">
<title>Node8</title>
<g id="a_Node000008"><a xlink:href="MariaDBCommandSequence_8h.html" target="_top" xlink:title=" ">
<polygon fill="white" stroke="#666666" points="652,-222.88 452.25,-222.88 452.25,-189.38 652,-189.38 652,-222.88"/>
<text xml:space="preserve" text-anchor="start" x="460.25" y="-209.38" font-family="Helvetica,sans-Serif" font-size="10.00">database/mariadb/MariaDBCommand</text>
<text xml:space="preserve" text-anchor="middle" x="552.12" y="-196.62" font-family="Helvetica,sans-Serif" font-size="10.00">Sequence.h</text>
</a>
</g>
</g>
<!-- Node1&#45;&gt;Node8 -->
<g id="edge9_Node000001_Node000008" class="edge">
<title>Node1&#45;&gt;Node8</title>
<g id="a_edge9_Node000001_Node000008"><a xlink:title=" ">
<path fill="none" stroke="#63b8ff" d="M337.62,-264.81C375.01,-254.76 434.1,-238.86 480.8,-226.3"/>
<polygon fill="#63b8ff" stroke="#63b8ff" points="481.57,-229.72 490.32,-223.75 479.75,-222.96 481.57,-229.72"/>
</a>
</g>
</g>
<!-- Node3 -->
<g id="Node000003" class="node">
<title>Node3</title>
<g id="a_Node000003"><a xlink:href="DescriptorEventReceiver_8h.html" target="_top" xlink:title=" ">
<polygon fill="white" stroke="#666666" points="315,-140.62 145.25,-140.62 145.25,-119.88 315,-119.88 315,-140.62"/>
<text xml:space="preserve" text-anchor="middle" x="230.12" y="-127.12" font-family="Helvetica,sans-Serif" font-size="10.00">core/DescriptorEventReceiver.h</text>
</a>
</g>
</g>
<!-- Node2&#45;&gt;Node3 -->
<g id="edge2_Node000002_Node000003" class="edge">
<title>Node2&#45;&gt;Node3</title>
<g id="a_edge2_Node000002_Node000003"><a xlink:title=" ">
<path fill="none" stroke="#63b8ff" d="M122.47,-182.56C147.45,-170.65 177.39,-156.39 199.34,-145.92"/>
<polygon fill="#63b8ff" stroke="#63b8ff" points="200.83,-149.09 208.36,-141.63 197.82,-142.77 200.83,-149.09"/>
</a>
</g>
</g>
<!-- Node4 -->
<g id="Node000004" class="node">
<title>Node4</title>
<g id="a_Node000004"><a xlink:href="EventReceiver_8h.html" target="_top" xlink:title=" ">
<polygon fill="white" stroke="#666666" points="289.88,-77.5 170.38,-77.5 170.38,-56.75 289.88,-56.75 289.88,-77.5"/>
<text xml:space="preserve" text-anchor="middle" x="230.12" y="-64" font-family="Helvetica,sans-Serif" font-size="10.00">core/EventReceiver.h</text>
</a>
</g>
</g>
<!-- Node3&#45;&gt;Node4 -->
<g id="edge3_Node000003_Node000004" class="edge">
<title>Node3&#45;&gt;Node4</title>
<g id="a_edge3_Node000003_Node000004"><a xlink:title=" ">
<path fill="none" stroke="#63b8ff" d="M230.12,-119.43C230.12,-111.27 230.12,-99.38 230.12,-89.1"/>
<polygon fill="#63b8ff" stroke="#63b8ff" points="233.63,-89.23 230.13,-79.23 226.63,-89.23 233.63,-89.23"/>
</a>
</g>
</g>
<!-- Node5 -->
<g id="Node000005" class="node">
<title>Node5</title>
<g id="a_Node000005"><a xlink:href="Event_8h.html" target="_top" xlink:title=" ">
<polygon fill="white" stroke="#666666" points="268.5,-20.75 191.75,-20.75 191.75,0 268.5,0 268.5,-20.75"/>
<text xml:space="preserve" text-anchor="middle" x="230.12" y="-7.25" font-family="Helvetica,sans-Serif" font-size="10.00">core/Event.h</text>
</a>
</g>
</g>
<!-- Node4&#45;&gt;Node5 -->
<g id="edge4_Node000004_Node000005" class="edge">
<title>Node4&#45;&gt;Node5</title>
<g id="a_edge4_Node000004_Node000005"><a xlink:title=" ">
<path fill="none" stroke="#63b8ff" d="M230.12,-56.34C230.12,-49.72 230.12,-40.72 230.12,-32.52"/>
<polygon fill="#63b8ff" stroke="#63b8ff" points="233.63,-32.59 230.13,-22.59 226.63,-32.59 233.63,-32.59"/>
</a>
</g>
</g>
<!-- Node6&#45;&gt;Node3 -->
<g id="edge6_Node000006_Node000003" class="edge">
<title>Node6&#45;&gt;Node3</title>
<g id="a_edge6_Node000006_Node000003"><a xlink:title=" ">
<path fill="none" stroke="#63b8ff" d="M230.12,-189.1C230.12,-178.25 230.12,-163.82 230.12,-152.09"/>
<polygon fill="#63b8ff" stroke="#63b8ff" points="233.63,-152.22 230.13,-142.22 226.63,-152.22 233.63,-152.22"/>
</a>
</g>
</g>
<!-- Node7&#45;&gt;Node3 -->
<g id="edge8_Node000007_Node000003" class="edge">
<title>Node7&#45;&gt;Node3</title>
<g id="a_edge8_Node000007_Node000003"><a xlink:title=" ">
<path fill="none" stroke="#63b8ff" d="M340.96,-188.91C316.61,-176.24 283.01,-158.76 259.2,-146.38"/>
<polygon fill="#63b8ff" stroke="#63b8ff" points="260.85,-143.29 250.37,-141.78 257.62,-149.5 260.85,-143.29"/>
</a>
</g>
</g>
<!-- Node9 -->
<g id="Node000009" class="node">
<title>Node9</title>
<g id="a_Node000009"><a xlink:href="MariaDBClientASyncAPI_8h.html" target="_top" xlink:title=" ">
<polygon fill="white" stroke="#666666" points="576.12,-147 398.12,-147 398.12,-113.5 576.12,-113.5 576.12,-147"/>
<text xml:space="preserve" text-anchor="start" x="406.12" y="-133.5" font-family="Helvetica,sans-Serif" font-size="10.00">database/mariadb/MariaDBClient</text>
<text xml:space="preserve" text-anchor="middle" x="487.12" y="-120.75" font-family="Helvetica,sans-Serif" font-size="10.00">ASyncAPI.h</text>
</a>
</g>
</g>
<!-- Node8&#45;&gt;Node9 -->
<g id="edge10_Node000008_Node000009" class="edge">
<title>Node8&#45;&gt;Node9</title>
<g id="a_edge10_Node000008_Node000009"><a xlink:title=" ">
<path fill="none" stroke="#63b8ff" d="M538.02,-189.1C529.42,-179.32 518.25,-166.63 508.57,-155.62"/>
<polygon fill="#63b8ff" stroke="#63b8ff" points="511.43,-153.58 502.2,-148.38 506.18,-158.2 511.43,-153.58"/>
</a>
</g>
</g>
<!-- Node10 -->
<g id="Node000010" class="node">
<title>Node10</title>
<g id="a_Node000010"><a xlink:href="MariaDBClientSyncAPI_8h.html" target="_top" xlink:title=" ">
<polygon fill="white" stroke="#666666" points="772.12,-147 594.12,-147 594.12,-113.5 772.12,-113.5 772.12,-147"/>
<text xml:space="preserve" text-anchor="start" x="602.12" y="-133.5" font-family="Helvetica,sans-Serif" font-size="10.00">database/mariadb/MariaDBClient</text>
<text xml:space="preserve" text-anchor="middle" x="683.12" y="-120.75" font-family="Helvetica,sans-Serif" font-size="10.00">SyncAPI.h</text>
</a>
</g>
</g>
<!-- Node8&#45;&gt;Node10 -->
<g id="edge11_Node000008_Node000010" class="edge">
<title>Node8&#45;&gt;Node10</title>
<g id="a_edge11_Node000008_Node000010"><a xlink:title=" ">
<path fill="none" stroke="#63b8ff" d="M580.87,-188.91C599.56,-178.38 624.14,-164.51 644.52,-153.02"/>
<polygon fill="#63b8ff" stroke="#63b8ff" points="646.13,-156.13 653.13,-148.17 642.7,-150.03 646.13,-156.13"/>
</a>
</g>
</g>
</g>
</svg>
