<?xml version="1.0" encoding="UTF-8" standalone="no"?>
<!DOCTYPE svg PUBLIC "-//W3C//DTD SVG 1.1//EN"
 "http://www.w3.org/Graphics/SVG/1.1/DTD/svg11.dtd">
<!-- Generated by graphviz version 2.42.4 (0)
 -->
<!-- Title: iot/mqtt/server/packets/Subscribe.cpp Pages: 1 -->
<!--zoomable 335 -->

<svg id="main" version="1.1" xmlns="http://www.w3.org/2000/svg" xmlns:xlink="http://www.w3.org/1999/xlink" xml:space="preserve" onload="init(evt)">
<style type="text/css"><![CDATA[
.node, .edge {opacity: 0.7;}
.node.selected, .edge.selected {opacity: 1;}
.edge:hover path { stroke: red; }
.edge:hover polygon { stroke: red; fill: red; }
]]></style>

<defs>
  <circle id="rim" cx="0" cy="0" r="7"/>
  <circle id="rim2" cx="0" cy="0" r="3.5"/>
  <g id="zoomPlus">
    <use xlink:href="#rim" fill="#404040"><set attributeName="fill" to="#808080" begin="zoomplus.mouseover" end="zoomplus.mouseout"/></use>
    <path d="M-4,0h8M0,-4v8" fill="none" stroke="white" stroke-width="1.5" pointer-events="none"/>
  </g>
  <g id="zoomMin">
    <use xlink:href="#rim" fill="#404040"><set attributeName="fill" to="#808080" begin="zoomminus.mouseover" end="zoomminus.mouseout"/></use>
    <path d="M-4,0h8" fill="none" stroke="white" stroke-width="1.5" pointer-events="none"/>
  </g>
  <g id="arrowUp" transform="translate(30 24)">
    <use xlink:href="#rim"/>
    <path pointer-events="none" fill="none" stroke="white" stroke-width="1.5" d="M0,-3.0v7 M-2.5,-0.5L0,-3.0L2.5,-0.5"/>
  </g>
  <g id="arrowRight" transform="rotate(90) translate(36 -43)">
    <use xlink:href="#rim"/>
    <path pointer-events="none" fill="none" stroke="white" stroke-width="1.5" d="M0,-3.0v7 M-2.5,-0.5L0,-3.0L2.5,-0.5"/>
  </g>
  <g id="arrowDown" transform="rotate(180) translate(-30 -48)">
    <use xlink:href="#rim"/>
    <path pointer-events="none" fill="none" stroke="white" stroke-width="1.5" d="M0,-3.0v7 M-2.5,-0.5L0,-3.0L2.5,-0.5"/>
  </g>
  <g id="arrowLeft" transform="rotate(270) translate(-36 17)">
    <use xlink:href="#rim"/>
    <path pointer-events="none" fill="none" stroke="white" stroke-width="1.5" d="M0,-3.0v7 M-2.5,-0.5L0,-3.0L2.5,-0.5"/>
  </g>
  <g id="resetDef">
    <use xlink:href="#rim2" fill="#404040"><set attributeName="fill" to="#808080" begin="reset.mouseover" end="reset.mouseout"/></use>
  </g>
</defs>
<script type="application/ecmascript">
var viewWidth = 982;
var viewHeight = 335;
var sectionId = 'dynsection-0';
</script>
<script type="application/ecmascript" xlink:href="svg.min.js"/>
<svg id="graph" class="graph">
<g id="viewport">
<title>iot/mqtt/server/packets/Subscribe.cpp</title>
<!-- Node1 -->
<g id="Node000001" class="node">
<title>Node1</title>
<g id="a_Node000001"><a xlink:title=" ">
<polygon fill="#999999" stroke="#666666" points="587,-327 457,-327 457,-297 587,-297 587,-327"/>
<text text-anchor="start" x="465" y="-315" font-family="Helvetica,sans-Serif" font-size="10.00">iot/mqtt/server/packets</text>
<text text-anchor="middle" x="522" y="-304" font-family="Helvetica,sans-Serif" font-size="10.00">/Subscribe.cpp</text>
</a>
</g>
</g>
<!-- Node2 -->
<g id="Node000002" class="node">
<title>Node2</title>
<g id="a_Node000002"><a xlink:href="mqtt_2server_2packets_2Subscribe_8h.html" target="_top" xlink:title=" ">
<polygon fill="white" stroke="#666666" points="515,-261 385,-261 385,-231 515,-231 515,-261"/>
<text text-anchor="start" x="393" y="-249" font-family="Helvetica,sans-Serif" font-size="10.00">iot/mqtt/server/packets</text>
<text text-anchor="middle" x="450" y="-238" font-family="Helvetica,sans-Serif" font-size="10.00">/Subscribe.h</text>
</a>
</g>
</g>
<!-- Node1&#45;&gt;Node2 -->
<g id="edge1_Node000001_Node000002" class="edge">
<title>Node1&#45;&gt;Node2</title>
<g id="a_edge1_Node000001_Node000002"><a xlink:title=" ">
<path fill="none" stroke="#63b8ff" d="M506.02,-296.8C496.51,-288.34 484.27,-277.46 473.66,-268.03"/>
<polygon fill="#63b8ff" stroke="#63b8ff" points="475.73,-265.19 465.93,-261.16 471.08,-270.42 475.73,-265.19"/>
</a>
</g>
</g>
<!-- Node12 -->
<g id="Node000012" class="node">
<title>Node12</title>
<g id="a_Node000012"><a xlink:href="server_2Mqtt_8h.html" target="_top" xlink:title=" ">
<polygon fill="white" stroke="#666666" points="739,-255.5 615,-255.5 615,-236.5 739,-236.5 739,-255.5"/>
<text text-anchor="middle" x="677" y="-243.5" font-family="Helvetica,sans-Serif" font-size="10.00">iot/mqtt/server/Mqtt.h</text>
</a>
</g>
</g>
<!-- Node1&#45;&gt;Node12 -->
<g id="edge13_Node000001_Node000012" class="edge">
<title>Node1&#45;&gt;Node12</title>
<g id="a_edge13_Node000001_Node000012"><a xlink:title=" ">
<path fill="none" stroke="#63b8ff" d="M556.02,-296.95C583.2,-285.73 620.93,-270.15 647,-259.39"/>
<polygon fill="#63b8ff" stroke="#63b8ff" points="648.46,-262.57 656.37,-255.52 645.79,-256.1 648.46,-262.57"/>
</a>
</g>
</g>
<!-- Node3 -->
<g id="Node000003" class="node">
<title>Node3</title>
<g id="a_Node000003"><a xlink:href="mqtt_2packets_2Subscribe_8h.html" target="_top" xlink:title=" ">
<polygon fill="white" stroke="#666666" points="527.5,-189.5 372.5,-189.5 372.5,-170.5 527.5,-170.5 527.5,-189.5"/>
<text text-anchor="middle" x="450" y="-177.5" font-family="Helvetica,sans-Serif" font-size="10.00">iot/mqtt/packets/Subscribe.h</text>
</a>
</g>
</g>
<!-- Node2&#45;&gt;Node3 -->
<g id="edge2_Node000002_Node000003" class="edge">
<title>Node2&#45;&gt;Node3</title>
<g id="a_edge2_Node000002_Node000003"><a xlink:title=" ">
<path fill="none" stroke="#63b8ff" d="M450,-230.8C450,-221.7 450,-209.79 450,-199.9"/>
<polygon fill="#63b8ff" stroke="#63b8ff" points="453.5,-199.84 450,-189.84 446.5,-199.84 453.5,-199.84"/>
</a>
</g>
</g>
<!-- Node10 -->
<g id="Node000010" class="node">
<title>Node10</title>
<g id="a_Node000010"><a xlink:href="server_2ControlPacketDeserializer_8h.html" target="_top" xlink:title=" ">
<polygon fill="white" stroke="#666666" points="266,-195 106,-195 106,-165 266,-165 266,-195"/>
<text text-anchor="start" x="114" y="-183" font-family="Helvetica,sans-Serif" font-size="10.00">iot/mqtt/server/ControlPacket</text>
<text text-anchor="middle" x="186" y="-172" font-family="Helvetica,sans-Serif" font-size="10.00">Deserializer.h</text>
</a>
</g>
</g>
<!-- Node2&#45;&gt;Node10 -->
<g id="edge11_Node000002_Node000010" class="edge">
<title>Node2&#45;&gt;Node10</title>
<g id="a_edge11_Node000002_Node000010"><a xlink:title=" ">
<path fill="none" stroke="#63b8ff" d="M392.06,-230.95C351.23,-221.06 296.41,-207.77 253.58,-197.38"/>
<polygon fill="#63b8ff" stroke="#63b8ff" points="254.34,-193.97 243.8,-195.01 252.69,-200.77 254.34,-193.97"/>
</a>
</g>
</g>
<!-- Node4 -->
<g id="Node000004" class="node">
<title>Node4</title>
<g id="a_Node000004"><a xlink:href="mqtt_2ControlPacket_8h.html" target="_top" xlink:title=" ">
<polygon fill="white" stroke="#666666" points="385.5,-129 250.5,-129 250.5,-110 385.5,-110 385.5,-129"/>
<text text-anchor="middle" x="318" y="-117" font-family="Helvetica,sans-Serif" font-size="10.00">iot/mqtt/ControlPacket.h</text>
</a>
</g>
</g>
<!-- Node3&#45;&gt;Node4 -->
<g id="edge3_Node000003_Node000004" class="edge">
<title>Node3&#45;&gt;Node4</title>
<g id="a_edge3_Node000003_Node000004"><a xlink:title=" ">
<path fill="none" stroke="#63b8ff" d="M430.81,-170.49C408.61,-160.66 371.88,-144.38 346.38,-133.08"/>
<polygon fill="#63b8ff" stroke="#63b8ff" points="347.78,-129.87 337.22,-129.02 344.94,-136.27 347.78,-129.87"/>
</a>
</g>
</g>
<!-- Node5 -->
<g id="Node000005" class="node">
<title>Node5</title>
<g id="a_Node000005"><a xlink:href="mqtt_2Topic_8h.html" target="_top" xlink:title=" ">
<polygon fill="white" stroke="#666666" points="496,-129 404,-129 404,-110 496,-110 496,-129"/>
<text text-anchor="middle" x="450" y="-117" font-family="Helvetica,sans-Serif" font-size="10.00">iot/mqtt/Topic.h</text>
</a>
</g>
</g>
<!-- Node3&#45;&gt;Node5 -->
<g id="edge4_Node000003_Node000005" class="edge">
<title>Node3&#45;&gt;Node5</title>
<g id="a_edge4_Node000003_Node000005"><a xlink:title=" ">
<path fill="none" stroke="#63b8ff" d="M450,-170.37C450,-162.25 450,-149.81 450,-139.39"/>
<polygon fill="#63b8ff" stroke="#63b8ff" points="453.5,-139.17 450,-129.17 446.5,-139.17 453.5,-139.17"/>
</a>
</g>
</g>
<!-- Node6 -->
<g id="Node000006" class="node">
<title>Node6</title>
<g id="a_Node000006"><a xlink:href="String_8h.html" target="_top" xlink:title=" ">
<polygon fill="white" stroke="#666666" points="640,-129 514,-129 514,-110 640,-110 640,-129"/>
<text text-anchor="middle" x="577" y="-117" font-family="Helvetica,sans-Serif" font-size="10.00">iot/mqtt/types/String.h</text>
</a>
</g>
</g>
<!-- Node3&#45;&gt;Node6 -->
<g id="edge5_Node000003_Node000006" class="edge">
<title>Node3&#45;&gt;Node6</title>
<g id="a_edge5_Node000003_Node000006"><a xlink:title=" ">
<path fill="none" stroke="#63b8ff" d="M468.47,-170.49C489.72,-160.7 524.85,-144.52 549.37,-133.23"/>
<polygon fill="#63b8ff" stroke="#63b8ff" points="550.89,-136.38 558.51,-129.02 547.96,-130.02 550.89,-136.38"/>
</a>
</g>
</g>
<!-- Node7 -->
<g id="Node000007" class="node">
<title>Node7</title>
<g id="a_Node000007"><a xlink:href="UInt16_8h.html" target="_top" xlink:title=" ">
<polygon fill="white" stroke="#666666" points="584,-74 454,-74 454,-55 584,-55 584,-74"/>
<text text-anchor="middle" x="519" y="-62" font-family="Helvetica,sans-Serif" font-size="10.00">iot/mqtt/types/UInt16.h</text>
</a>
</g>
</g>
<!-- Node3&#45;&gt;Node7 -->
<g id="edge8_Node000003_Node000007" class="edge">
<title>Node3&#45;&gt;Node7</title>
<g id="a_edge8_Node000003_Node000007"><a xlink:title=" ">
<path fill="none" stroke="#63b8ff" d="M372.35,-177.03C297.69,-172.36 201.65,-157.35 242,-110 267.46,-80.13 370.65,-70.23 443.61,-67"/>
<polygon fill="#63b8ff" stroke="#63b8ff" points="443.85,-70.49 453.69,-66.58 443.56,-63.5 443.85,-70.49"/>
</a>
</g>
</g>
<!-- Node9 -->
<g id="Node000009" class="node">
<title>Node9</title>
<g id="a_Node000009"><a xlink:href="UInt8_8h.html" target="_top" xlink:title=" ">
<polygon fill="white" stroke="#666666" points="726,-74 602,-74 602,-55 726,-55 726,-74"/>
<text text-anchor="middle" x="664" y="-62" font-family="Helvetica,sans-Serif" font-size="10.00">iot/mqtt/types/UInt8.h</text>
</a>
</g>
</g>
<!-- Node3&#45;&gt;Node9 -->
<g id="edge9_Node000003_Node000009" class="edge">
<title>Node3&#45;&gt;Node9</title>
<g id="a_edge9_Node000003_Node000009"><a xlink:title=" ">
<path fill="none" stroke="#63b8ff" d="M512.43,-170.49C563.4,-162.29 629.99,-148.28 649,-129 660.55,-117.29 663.82,-98.44 664.49,-84.31"/>
<polygon fill="#63b8ff" stroke="#63b8ff" points="667.99,-84.25 664.58,-74.22 660.99,-84.19 667.99,-84.25"/>
</a>
</g>
</g>
<!-- Node6&#45;&gt;Node7 -->
<g id="edge6_Node000006_Node000007" class="edge">
<title>Node6&#45;&gt;Node7</title>
<g id="a_edge6_Node000006_Node000007"><a xlink:title=" ">
<path fill="none" stroke="#63b8ff" d="M567.68,-109.98C559.19,-102.23 546.44,-90.58 536.12,-81.14"/>
<polygon fill="#63b8ff" stroke="#63b8ff" points="538.23,-78.33 528.49,-74.17 533.51,-83.5 538.23,-78.33"/>
</a>
</g>
</g>
<!-- Node8 -->
<g id="Node000008" class="node">
<title>Node8</title>
<g id="a_Node000008"><a xlink:href="mqtt_2types_2TypeBase_8h.html" target="_top" xlink:title=" ">
<polygon fill="white" stroke="#666666" points="736,-19 592,-19 592,0 736,0 736,-19"/>
<text text-anchor="middle" x="664" y="-7" font-family="Helvetica,sans-Serif" font-size="10.00">iot/mqtt/types/TypeBase.h</text>
</a>
</g>
</g>
<!-- Node7&#45;&gt;Node8 -->
<g id="edge7_Node000007_Node000008" class="edge">
<title>Node7&#45;&gt;Node8</title>
<g id="a_edge7_Node000007_Node000008"><a xlink:title=" ">
<path fill="none" stroke="#63b8ff" d="M542.3,-54.98C566.25,-46.23 603.78,-32.51 630.83,-22.62"/>
<polygon fill="#63b8ff" stroke="#63b8ff" points="632.09,-25.89 640.28,-19.17 629.69,-19.32 632.09,-25.89"/>
</a>
</g>
</g>
<!-- Node9&#45;&gt;Node8 -->
<g id="edge10_Node000009_Node000008" class="edge">
<title>Node9&#45;&gt;Node8</title>
<g id="a_edge10_Node000009_Node000008"><a xlink:title=" ">
<path fill="none" stroke="#63b8ff" d="M664,-54.75C664,-47.8 664,-37.85 664,-29.13"/>
<polygon fill="#63b8ff" stroke="#63b8ff" points="667.5,-29.09 664,-19.09 660.5,-29.09 667.5,-29.09"/>
</a>
</g>
</g>
<!-- Node11 -->
<g id="Node000011" class="node">
<title>Node11</title>
<g id="a_Node000011"><a xlink:href="ControlPacketDeserializer_8h.html" target="_top" xlink:title=" ">
<polygon fill="white" stroke="#666666" points="194,-129 0,-129 0,-110 194,-110 194,-129"/>
<text text-anchor="middle" x="97" y="-117" font-family="Helvetica,sans-Serif" font-size="10.00">iot/mqtt/ControlPacketDeserializer.h</text>
</a>
</g>
</g>
<!-- Node10&#45;&gt;Node11 -->
<g id="edge12_Node000010_Node000011" class="edge">
<title>Node10&#45;&gt;Node11</title>
<g id="a_edge12_Node000010_Node000011"><a xlink:title=" ">
<path fill="none" stroke="#63b8ff" d="M164.46,-164.84C150.53,-155.68 132.47,-143.82 118.55,-134.66"/>
<polygon fill="#63b8ff" stroke="#63b8ff" points="120.35,-131.66 110.08,-129.09 116.51,-137.51 120.35,-131.66"/>
</a>
</g>
</g>
<!-- Node13 -->
<g id="Node000013" class="node">
<title>Node13</title>
<g id="a_Node000013"><a xlink:href="Mqtt_8h.html" target="_top" xlink:title=" ">
<polygon fill="white" stroke="#666666" points="821,-189.5 731,-189.5 731,-170.5 821,-170.5 821,-189.5"/>
<text text-anchor="middle" x="776" y="-177.5" font-family="Helvetica,sans-Serif" font-size="10.00">iot/mqtt/Mqtt.h</text>
</a>
</g>
</g>
<!-- Node12&#45;&gt;Node13 -->
<g id="edge14_Node000012_Node000013" class="edge">
<title>Node12&#45;&gt;Node13</title>
<g id="a_edge14_Node000012_Node000013"><a xlink:title=" ">
<path fill="none" stroke="#63b8ff" d="M690.35,-236.37C706.66,-225.82 734.49,-207.84 753.99,-195.23"/>
<polygon fill="#63b8ff" stroke="#63b8ff" points="756.05,-198.07 762.54,-189.7 752.25,-192.19 756.05,-198.07"/>
</a>
</g>
</g>
<!-- Node14 -->
<g id="Node000014" class="node">
<title>Node14</title>
<g id="a_Node000014"><a xlink:href="timer_2Timer_8h.html" target="_top" xlink:title=" ">
<polygon fill="white" stroke="#666666" points="973.5,-129 866.5,-129 866.5,-110 973.5,-110 973.5,-129"/>
<text text-anchor="middle" x="920" y="-117" font-family="Helvetica,sans-Serif" font-size="10.00">core/timer/Timer.h</text>
</a>
</g>
</g>
<!-- Node13&#45;&gt;Node14 -->
<g id="edge15_Node000013_Node000014" class="edge">
<title>Node13&#45;&gt;Node14</title>
<g id="a_edge15_Node000013_Node000014"><a xlink:title=" ">
<path fill="none" stroke="#63b8ff" d="M796.94,-170.49C821.36,-160.57 861.93,-144.09 889.77,-132.78"/>
<polygon fill="#63b8ff" stroke="#63b8ff" points="891.09,-136.02 899.04,-129.02 888.45,-129.54 891.09,-136.02"/>
</a>
</g>
</g>
<!-- Node16 -->
<g id="Node000016" class="node">
<title>Node16</title>
<g id="a_Node000016"><a xlink:href="FixedHeader_8h.html" target="_top" xlink:title=" ">
<polygon fill="white" stroke="#666666" points="840,-129 712,-129 712,-110 840,-110 840,-129"/>
<text text-anchor="middle" x="776" y="-117" font-family="Helvetica,sans-Serif" font-size="10.00">iot/mqtt/FixedHeader.h</text>
</a>
</g>
</g>
<!-- Node13&#45;&gt;Node16 -->
<g id="edge17_Node000013_Node000016" class="edge">
<title>Node13&#45;&gt;Node16</title>
<g id="a_edge17_Node000013_Node000016"><a xlink:title=" ">
<path fill="none" stroke="#63b8ff" d="M776,-170.37C776,-162.25 776,-149.81 776,-139.39"/>
<polygon fill="#63b8ff" stroke="#63b8ff" points="779.5,-139.17 776,-129.17 772.5,-139.17 779.5,-139.17"/>
</a>
</g>
</g>
<!-- Node15 -->
<g id="Node000015" class="node">
<title>Node15</title>
<g id="a_Node000015"><a xlink:href="Timer_8h.html" target="_top" xlink:title=" ">
<polygon fill="white" stroke="#666666" points="962.5,-74 885.5,-74 885.5,-55 962.5,-55 962.5,-74"/>
<text text-anchor="middle" x="924" y="-62" font-family="Helvetica,sans-Serif" font-size="10.00">core/Timer.h</text>
</a>
</g>
</g>
<!-- Node14&#45;&gt;Node15 -->
<g id="edge16_Node000014_Node000015" class="edge">
<title>Node14&#45;&gt;Node15</title>
<g id="a_edge16_Node000014_Node000015"><a xlink:title=" ">
<path fill="none" stroke="#63b8ff" d="M920.66,-109.75C921.18,-102.8 921.94,-92.85 922.59,-84.13"/>
<polygon fill="#63b8ff" stroke="#63b8ff" points="926.09,-84.32 923.35,-74.09 919.11,-83.8 926.09,-84.32"/>
</a>
</g>
</g>
<!-- Node16&#45;&gt;Node9 -->
<g id="edge18_Node000016_Node000009" class="edge">
<title>Node16&#45;&gt;Node9</title>
<g id="a_edge18_Node000016_Node000009"><a xlink:title=" ">
<path fill="none" stroke="#63b8ff" d="M758.01,-109.98C740.07,-101.5 712.28,-88.35 691.57,-78.54"/>
<polygon fill="#63b8ff" stroke="#63b8ff" points="692.86,-75.28 682.32,-74.17 689.86,-81.61 692.86,-75.28"/>
</a>
</g>
</g>
<!-- Node17 -->
<g id="Node000017" class="node">
<title>Node17</title>
<g id="a_Node000017"><a xlink:href="UIntV_8h.html" target="_top" xlink:title=" ">
<polygon fill="white" stroke="#666666" points="867.5,-74 744.5,-74 744.5,-55 867.5,-55 867.5,-74"/>
<text text-anchor="middle" x="806" y="-62" font-family="Helvetica,sans-Serif" font-size="10.00">iot/mqtt/types/UIntV.h</text>
</a>
</g>
</g>
<!-- Node16&#45;&gt;Node17 -->
<g id="edge19_Node000016_Node000017" class="edge">
<title>Node16&#45;&gt;Node17</title>
<g id="a_edge19_Node000016_Node000017"><a xlink:title=" ">
<path fill="none" stroke="#63b8ff" d="M780.95,-109.75C785.06,-102.49 791.03,-91.95 796.1,-82.98"/>
<polygon fill="#63b8ff" stroke="#63b8ff" points="799.26,-84.52 801.14,-74.09 793.17,-81.07 799.26,-84.52"/>
</a>
</g>
</g>
<!-- Node17&#45;&gt;Node8 -->
<g id="edge20_Node000017_Node000008" class="edge">
<title>Node17&#45;&gt;Node8</title>
<g id="a_edge20_Node000017_Node000008"><a xlink:title=" ">
<path fill="none" stroke="#63b8ff" d="M783.19,-54.98C759.83,-46.27 723.3,-32.63 696.83,-22.75"/>
<polygon fill="#63b8ff" stroke="#63b8ff" points="697.82,-19.39 687.23,-19.17 695.37,-25.95 697.82,-19.39"/>
</a>
</g>
</g>
</g>
</svg>

<g id="navigator" transform="translate(0 0)" fill="#404254">
  <rect fill="#f2f5e9" fill-opacity="0.5" stroke="#606060" stroke-width=".5" x="0" y="0" width="60" height="60"/>
  <use id="zoomplus" xlink:href="#zoomPlus" x="17" y="9" onmousedown="handleZoom(evt,'in')"/>
  <use id="zoomminus" xlink:href="#zoomMin" x="42" y="9" onmousedown="handleZoom(evt,'out')"/>
  <use id="reset" xlink:href="#resetDef" x="30" y="36" onmousedown="handleReset()"/>
   <use id="arrowup" xlink:href="#arrowUp" x="0" y="0" onmousedown="handlePan(0,-1)"/>
  <use id="arrowright" xlink:href="#arrowRight" x="0" y="0" onmousedown="handlePan(1,0)"/>
  <use id="arrowdown" xlink:href="#arrowDown" x="0" y="0" onmousedown="handlePan(0,1)"/>
  <use id="arrowleft" xlink:href="#arrowLeft" x="0" y="0" onmousedown="handlePan(-1,0)"/>
</g>
<svg viewBox="0 0 15 15" width="100%" height="30px" preserveAspectRatio="xMaxYMin meet">
 <g id="arrow_out" transform="scale(0.3 0.3)">
  <a xlink:href="mqtt_2server_2packets_2Subscribe_8cpp__incl_org.svg" target="_base">
   <rect id="button" ry="5" rx="5" y="6" x="6" height="38" width="38"
        fill="#f2f5e9" fill-opacity="0.5" stroke="#606060" stroke-width="1.0"/>
   <path id="arrow"
     d="M 11.500037,31.436501 C 11.940474,20.09759 22.043105,11.32322 32.158766,21.979434 L 37.068811,17.246167 C 37.068811,17.246167 37.088388,32 37.088388,32 L 22.160133,31.978069 C 22.160133,31.978069 26.997745,27.140456 26.997745,27.140456 C 18.528582,18.264221 13.291696,25.230495 11.500037,31.436501 z"
     style="fill:#404040;"/>
  </a>
 </g>
</svg>

<style type='text/css'>
<![CDATA[
[data-mouse-over-selected='false'] { opacity: 0.7; }
[data-mouse-over-selected='true']  { opacity: 1.0; }
]]>
</style>
<script type="application/ecmascript"><![CDATA[
document.addEventListener('DOMContentLoaded', (event) => {
  highlightEdges();
  highlightAdjacentNodes();
});
]]></script>
</svg>
