<?xml version="1.0" encoding="UTF-8" standalone="no"?>
<!DOCTYPE svg PUBLIC "-//W3C//DTD SVG 1.1//EN"
 "http://www.w3.org/Graphics/SVG/1.1/DTD/svg11.dtd">
<!-- Generated by graphviz version 14.1.2 (0)
 -->
<!-- Title: iot/mqtt/server/packets/Disconnect.h Pages: 1 -->
<svg width="365pt" height="168pt"
 viewBox="0.00 0.00 365.00 168.00" xmlns="http://www.w3.org/2000/svg" xmlns:xlink="http://www.w3.org/1999/xlink">
<g id="graph0" class="graph" transform="scale(1 1) rotate(0) translate(4 163.75)">
<title>iot/mqtt/server/packets/Disconnect.h</title>
<!-- Node1 -->
<g id="Node000001" class="node">
<title>Node1</title>
<g id="a_Node000001"><a xlink:title=" ">
<polygon fill="#999999" stroke="#666666" points="234.38,-159.75 105.12,-159.75 105.12,-126.25 234.38,-126.25 234.38,-159.75"/>
<text xml:space="preserve" text-anchor="start" x="113.12" y="-146.25" font-family="Helvetica,sans-Serif" font-size="10.00">iot/mqtt/server/packets</text>
<text xml:space="preserve" text-anchor="middle" x="169.75" y="-133.5" font-family="Helvetica,sans-Serif" font-size="10.00">/Disconnect.h</text>
</a>
</g>
</g>
<!-- Node2 -->
<g id="Node000002" class="node">
<title>Node2</title>
<g id="a_Node000002"><a xlink:href="mqtt_2packets_2Disconnect_8h.html" target="_top" xlink:title=" ">
<polygon fill="white" stroke="#666666" points="161.5,-83.88 0,-83.88 0,-63.12 161.5,-63.12 161.5,-83.88"/>
<text xml:space="preserve" text-anchor="middle" x="80.75" y="-70.38" font-family="Helvetica,sans-Serif" font-size="10.00">iot/mqtt/packets/Disconnect.h</text>
</a>
</g>
</g>
<!-- Node1&#45;&gt;Node2 -->
<g id="edge1_Node000001_Node000002" class="edge">
<title>Node1&#45;&gt;Node2</title>
<g id="a_edge1_Node000001_Node000002"><a xlink:title=" ">
<path fill="none" stroke="#63b8ff" d="M148.66,-126C134.79,-115.49 116.69,-101.76 102.66,-91.12"/>
<polygon fill="#63b8ff" stroke="#63b8ff" points="104.99,-88.49 94.91,-85.24 100.76,-94.07 104.99,-88.49"/>
</a>
</g>
</g>
<!-- Node4 -->
<g id="Node000004" class="node">
<title>Node4</title>
<g id="a_Node000004"><a xlink:href="server_2ControlPacketDeserializer_8h.html" target="_top" xlink:title=" ">
<polygon fill="white" stroke="#666666" points="339.38,-90.25 180.12,-90.25 180.12,-56.75 339.38,-56.75 339.38,-90.25"/>
<text xml:space="preserve" text-anchor="start" x="188.12" y="-76.75" font-family="Helvetica,sans-Serif" font-size="10.00">iot/mqtt/server/ControlPacket</text>
<text xml:space="preserve" text-anchor="middle" x="259.75" y="-64" font-family="Helvetica,sans-Serif" font-size="10.00">Deserializer.h</text>
</a>
</g>
</g>
<!-- Node1&#45;&gt;Node4 -->
<g id="edge3_Node000001_Node000004" class="edge">
<title>Node1&#45;&gt;Node4</title>
<g id="a_edge3_Node000001_Node000004"><a xlink:title=" ">
<path fill="none" stroke="#63b8ff" d="M191.08,-126C202.43,-117.49 216.59,-106.87 229.09,-97.49"/>
<polygon fill="#63b8ff" stroke="#63b8ff" points="231.15,-100.32 237.05,-91.52 226.95,-94.72 231.15,-100.32"/>
</a>
</g>
</g>
<!-- Node3 -->
<g id="Node000003" class="node">
<title>Node3</title>
<g id="a_Node000003"><a xlink:href="mqtt_2ControlPacket_8h.html" target="_top" xlink:title=" ">
<polygon fill="white" stroke="#666666" points="146,-20.75 11.5,-20.75 11.5,0 146,0 146,-20.75"/>
<text xml:space="preserve" text-anchor="middle" x="78.75" y="-7.25" font-family="Helvetica,sans-Serif" font-size="10.00">iot/mqtt/ControlPacket.h</text>
</a>
</g>
</g>
<!-- Node2&#45;&gt;Node3 -->
<g id="edge2_Node000002_Node000003" class="edge">
<title>Node2&#45;&gt;Node3</title>
<g id="a_edge2_Node000002_Node000003"><a xlink:title=" ">
<path fill="none" stroke="#63b8ff" d="M80.43,-62.68C80.16,-54.52 79.77,-42.63 79.44,-32.35"/>
<polygon fill="#63b8ff" stroke="#63b8ff" points="82.94,-32.36 79.11,-22.48 75.94,-32.59 82.94,-32.36"/>
</a>
</g>
</g>
<!-- Node5 -->
<g id="Node000005" class="node">
<title>Node5</title>
<g id="a_Node000005"><a xlink:href="ControlPacketDeserializer_8h.html" target="_top" xlink:title=" ">
<polygon fill="white" stroke="#666666" points="357.25,-20.75 164.25,-20.75 164.25,0 357.25,0 357.25,-20.75"/>
<text xml:space="preserve" text-anchor="middle" x="260.75" y="-7.25" font-family="Helvetica,sans-Serif" font-size="10.00">iot/mqtt/ControlPacketDeserializer.h</text>
</a>
</g>
</g>
<!-- Node4&#45;&gt;Node5 -->
<g id="edge4_Node000004_Node000005" class="edge">
<title>Node4&#45;&gt;Node5</title>
<g id="a_edge4_Node000004_Node000005"><a xlink:title=" ">
<path fill="none" stroke="#63b8ff" d="M260.01,-56.44C260.13,-49.1 260.28,-40.32 260.41,-32.46"/>
<polygon fill="#63b8ff" stroke="#63b8ff" points="263.9,-32.79 260.56,-22.73 256.9,-32.67 263.9,-32.79"/>
</a>
</g>
</g>
</g>
</svg>
