<?xml version="1.0" encoding="UTF-8" standalone="no"?>
<!DOCTYPE svg PUBLIC "-//W3C//DTD SVG 1.1//EN"
 "http://www.w3.org/Graphics/SVG/1.1/DTD/svg11.dtd">
<!-- Generated by graphviz version 2.42.4 (0)
 -->
<!-- Title: iot/mqtt/packets/Publish.h Pages: 1 -->
<!--zoomable 291 -->

<svg id="main" version="1.1" xmlns="http://www.w3.org/2000/svg" xmlns:xlink="http://www.w3.org/1999/xlink" xml:space="preserve" onload="init(evt)">
<style type="text/css"><![CDATA[
.node, .edge {opacity: 0.7;}
.node.selected, .edge.selected {opacity: 1;}
.edge:hover path { stroke: red; }
.edge:hover polygon { stroke: red; fill: red; }
]]></style>

<defs>
  <circle id="rim" cx="0" cy="0" r="7"/>
  <circle id="rim2" cx="0" cy="0" r="3.5"/>
  <g id="zoomPlus">
    <use xlink:href="#rim" fill="#404040"><set attributeName="fill" to="#808080" begin="zoomplus.mouseover" end="zoomplus.mouseout"/></use>
    <path d="M-4,0h8M0,-4v8" fill="none" stroke="white" stroke-width="1.5" pointer-events="none"/>
  </g>
  <g id="zoomMin">
    <use xlink:href="#rim" fill="#404040"><set attributeName="fill" to="#808080" begin="zoomminus.mouseover" end="zoomminus.mouseout"/></use>
    <path d="M-4,0h8" fill="none" stroke="white" stroke-width="1.5" pointer-events="none"/>
  </g>
  <g id="arrowUp" transform="translate(30 24)">
    <use xlink:href="#rim"/>
    <path pointer-events="none" fill="none" stroke="white" stroke-width="1.5" d="M0,-3.0v7 M-2.5,-0.5L0,-3.0L2.5,-0.5"/>
  </g>
  <g id="arrowRight" transform="rotate(90) translate(36 -43)">
    <use xlink:href="#rim"/>
    <path pointer-events="none" fill="none" stroke="white" stroke-width="1.5" d="M0,-3.0v7 M-2.5,-0.5L0,-3.0L2.5,-0.5"/>
  </g>
  <g id="arrowDown" transform="rotate(180) translate(-30 -48)">
    <use xlink:href="#rim"/>
    <path pointer-events="none" fill="none" stroke="white" stroke-width="1.5" d="M0,-3.0v7 M-2.5,-0.5L0,-3.0L2.5,-0.5"/>
  </g>
  <g id="arrowLeft" transform="rotate(270) translate(-36 17)">
    <use xlink:href="#rim"/>
    <path pointer-events="none" fill="none" stroke="white" stroke-width="1.5" d="M0,-3.0v7 M-2.5,-0.5L0,-3.0L2.5,-0.5"/>
  </g>
  <g id="resetDef">
    <use xlink:href="#rim2" fill="#404040"><set attributeName="fill" to="#808080" begin="reset.mouseover" end="reset.mouseout"/></use>
  </g>
</defs>
<script type="application/ecmascript">
var viewWidth = 2221;
var viewHeight = 291;
var sectionId = 'dynsection-1';
</script>
<script type="application/ecmascript" xlink:href="svg.min.js"/>
<svg id="graph" class="graph">
<g id="viewport">
<title>iot/mqtt/packets/Publish.h</title>
<!-- Node1 -->
<g id="Node000001" class="node">
<title>Node1</title>
<g id="a_Node000001"><a xlink:title=" ">
<polygon fill="#999999" stroke="#666666" points="1926.5,-283 1783.5,-283 1783.5,-264 1926.5,-264 1926.5,-283"/>
<text text-anchor="middle" x="1855" y="-271" font-family="Helvetica,sans-Serif" font-size="10.00">iot/mqtt/packets/Publish.h</text>
</a>
</g>
</g>
<!-- Node2 -->
<g id="Node000002" class="node">
<title>Node2</title>
<g id="a_Node000002"><a xlink:href="Mqtt_8cpp.html" target="_top" xlink:title=" ">
<polygon fill="white" stroke="#666666" points="1131.5,-156.5 1030.5,-156.5 1030.5,-137.5 1131.5,-137.5 1131.5,-156.5"/>
<text text-anchor="middle" x="1081" y="-144.5" font-family="Helvetica,sans-Serif" font-size="10.00">iot/mqtt/Mqtt.cpp</text>
</a>
</g>
</g>
<!-- Node1&#45;&gt;Node2 -->
<g id="edge1_Node000001_Node000002" class="edge">
<title>Node1&#45;&gt;Node2</title>
<g id="a_edge1_Node000001_Node000002"><a xlink:title=" ">
<path fill="none" stroke="#63b8ff" d="M1773.3,-273.41C1662.28,-272.99 1458.19,-266.34 1289,-228 1215.42,-211.33 1133.25,-173.64 1098.27,-156.62"/>
<polygon fill="#63b8ff" stroke="#63b8ff" points="1773.42,-276.91 1783.43,-273.43 1773.43,-269.91 1773.42,-276.91"/>
</a>
</g>
</g>
<!-- Node3 -->
<g id="Node000003" class="node">
<title>Node3</title>
<g id="a_Node000003"><a xlink:href="Session_8h.html" target="_top" xlink:title=" ">
<polygon fill="white" stroke="#666666" points="1403.5,-222.5 1298.5,-222.5 1298.5,-203.5 1403.5,-203.5 1403.5,-222.5"/>
<text text-anchor="middle" x="1351" y="-210.5" font-family="Helvetica,sans-Serif" font-size="10.00">iot/mqtt/Session.h</text>
</a>
</g>
</g>
<!-- Node1&#45;&gt;Node3 -->
<g id="edge2_Node000001_Node000003" class="edge">
<title>Node1&#45;&gt;Node3</title>
<g id="a_edge2_Node000001_Node000003"><a xlink:title=" ">
<path fill="none" stroke="#63b8ff" d="M1773.15,-263C1668.82,-250.89 1491.48,-230.31 1403.59,-220.1"/>
<polygon fill="#63b8ff" stroke="#63b8ff" points="1772.99,-266.5 1783.32,-264.18 1773.79,-259.55 1772.99,-266.5"/>
</a>
</g>
</g>
<!-- Node25 -->
<g id="Node000025" class="node">
<title>Node25</title>
<g id="a_Node000025"><a xlink:href="mqtt_2client_2packets_2Publish_8h.html" target="_top" xlink:title=" ">
<polygon fill="white" stroke="#666666" points="1918,-162 1792,-162 1792,-132 1918,-132 1918,-162"/>
<text text-anchor="start" x="1800" y="-150" font-family="Helvetica,sans-Serif" font-size="10.00">iot/mqtt/client/packets</text>
<text text-anchor="middle" x="1855" y="-139" font-family="Helvetica,sans-Serif" font-size="10.00">/Publish.h</text>
</a>
</g>
</g>
<!-- Node1&#45;&gt;Node25 -->
<g id="edge25_Node000001_Node000025" class="edge">
<title>Node1&#45;&gt;Node25</title>
<g id="a_edge25_Node000001_Node000025"><a xlink:title=" ">
<path fill="none" stroke="#63b8ff" d="M1855,-253.91C1855,-228.83 1855,-184.72 1855,-162.16"/>
<polygon fill="#63b8ff" stroke="#63b8ff" points="1851.5,-253.94 1855,-263.94 1858.5,-253.94 1851.5,-253.94"/>
</a>
</g>
</g>
<!-- Node26 -->
<g id="Node000026" class="node">
<title>Node26</title>
<g id="a_Node000026"><a xlink:href="mqtt_2packets_2Publish_8cpp.html" target="_top" xlink:title=" ">
<polygon fill="white" stroke="#666666" points="2212.5,-222.5 2057.5,-222.5 2057.5,-203.5 2212.5,-203.5 2212.5,-222.5"/>
<text text-anchor="middle" x="2135" y="-210.5" font-family="Helvetica,sans-Serif" font-size="10.00">iot/mqtt/packets/Publish.cpp</text>
</a>
</g>
</g>
<!-- Node1&#45;&gt;Node26 -->
<g id="edge28_Node000001_Node000026" class="edge">
<title>Node1&#45;&gt;Node26</title>
<g id="a_edge28_Node000001_Node000026"><a xlink:title=" ">
<path fill="none" stroke="#63b8ff" d="M1905.77,-261.89C1959.84,-250.6 2044.34,-232.94 2094.24,-222.52"/>
<polygon fill="#63b8ff" stroke="#63b8ff" points="1904.79,-258.52 1895.71,-263.99 1906.22,-265.37 1904.79,-258.52"/>
</a>
</g>
</g>
<!-- Node27 -->
<g id="Node000027" class="node">
<title>Node27</title>
<g id="a_Node000027"><a xlink:href="mqtt_2server_2packets_2Publish_8h.html" target="_top" xlink:title=" ">
<polygon fill="white" stroke="#666666" points="2039,-228 1909,-228 1909,-198 2039,-198 2039,-228"/>
<text text-anchor="start" x="1917" y="-216" font-family="Helvetica,sans-Serif" font-size="10.00">iot/mqtt/server/packets</text>
<text text-anchor="middle" x="1974" y="-205" font-family="Helvetica,sans-Serif" font-size="10.00">/Publish.h</text>
</a>
</g>
</g>
<!-- Node1&#45;&gt;Node27 -->
<g id="edge29_Node000001_Node000027" class="edge">
<title>Node1&#45;&gt;Node27</title>
<g id="a_edge29_Node000001_Node000027"><a xlink:title=" ">
<path fill="none" stroke="#63b8ff" d="M1881.52,-259.46C1900.41,-250.18 1925.77,-237.71 1945.16,-228.18"/>
<polygon fill="#63b8ff" stroke="#63b8ff" points="1879.73,-256.44 1872.3,-263.99 1882.82,-262.72 1879.73,-256.44"/>
</a>
</g>
</g>
<!-- Node3&#45;&gt;Node2 -->
<g id="edge3_Node000003_Node000002" class="edge">
<title>Node3&#45;&gt;Node2</title>
<g id="a_edge3_Node000003_Node000002"><a xlink:title=" ">
<path fill="none" stroke="#63b8ff" d="M1304.96,-201.09C1262.21,-190.97 1196.8,-175.47 1140,-162 1132.52,-160.23 1124.51,-158.33 1116.88,-156.52"/>
<polygon fill="#63b8ff" stroke="#63b8ff" points="1304.25,-204.52 1314.78,-203.42 1305.86,-197.71 1304.25,-204.52"/>
</a>
</g>
</g>
<!-- Node4 -->
<g id="Node000004" class="node">
<title>Node4</title>
<g id="a_Node000004"><a xlink:href="Session_8cpp.html" target="_top" xlink:title=" ">
<polygon fill="white" stroke="#666666" points="1545,-156.5 1429,-156.5 1429,-137.5 1545,-137.5 1545,-156.5"/>
<text text-anchor="middle" x="1487" y="-144.5" font-family="Helvetica,sans-Serif" font-size="10.00">iot/mqtt/Session.cpp</text>
</a>
</g>
</g>
<!-- Node3&#45;&gt;Node4 -->
<g id="edge4_Node000003_Node000004" class="edge">
<title>Node3&#45;&gt;Node4</title>
<g id="a_edge4_Node000003_Node000004"><a xlink:title=" ">
<path fill="none" stroke="#63b8ff" d="M1378.56,-199.03C1405.37,-186.42 1445.33,-167.61 1468.51,-156.7"/>
<polygon fill="#63b8ff" stroke="#63b8ff" points="1376.9,-195.94 1369.34,-203.37 1379.88,-202.28 1376.9,-195.94"/>
</a>
</g>
</g>
<!-- Node5 -->
<g id="Node000005" class="node">
<title>Node5</title>
<g id="a_Node000005"><a xlink:href="client_2Mqtt_8h.html" target="_top" xlink:title=" ">
<polygon fill="white" stroke="#666666" points="1411,-156.5 1291,-156.5 1291,-137.5 1411,-137.5 1411,-156.5"/>
<text text-anchor="middle" x="1351" y="-144.5" font-family="Helvetica,sans-Serif" font-size="10.00">iot/mqtt/client/Mqtt.h</text>
</a>
</g>
</g>
<!-- Node3&#45;&gt;Node5 -->
<g id="edge5_Node000003_Node000005" class="edge">
<title>Node3&#45;&gt;Node5</title>
<g id="a_edge5_Node000003_Node000005"><a xlink:title=" ">
<path fill="none" stroke="#63b8ff" d="M1351,-193.08C1351,-181.13 1351,-166.22 1351,-156.91"/>
<polygon fill="#63b8ff" stroke="#63b8ff" points="1347.5,-193.37 1351,-203.37 1354.5,-193.37 1347.5,-193.37"/>
</a>
</g>
</g>
<!-- Node16 -->
<g id="Node000016" class="node">
<title>Node16</title>
<g id="a_Node000016"><a xlink:href="server_2broker_2Session_8h.html" target="_top" xlink:title=" ">
<polygon fill="white" stroke="#666666" points="1272.5,-162 1149.5,-162 1149.5,-132 1272.5,-132 1272.5,-162"/>
<text text-anchor="start" x="1157.5" y="-150" font-family="Helvetica,sans-Serif" font-size="10.00">iot/mqtt/server/broker</text>
<text text-anchor="middle" x="1211" y="-139" font-family="Helvetica,sans-Serif" font-size="10.00">/Session.h</text>
</a>
</g>
</g>
<!-- Node3&#45;&gt;Node16 -->
<g id="edge16_Node000003_Node000016" class="edge">
<title>Node3&#45;&gt;Node16</title>
<g id="a_edge16_Node000003_Node000016"><a xlink:title=" ">
<path fill="none" stroke="#63b8ff" d="M1322.73,-199.08C1299.29,-188.36 1266.01,-173.15 1241.88,-162.12"/>
<polygon fill="#63b8ff" stroke="#63b8ff" points="1321.57,-202.39 1332.12,-203.37 1324.48,-196.03 1321.57,-202.39"/>
</a>
</g>
</g>
<!-- Node6 -->
<g id="Node000006" class="node">
<title>Node6</title>
<g id="a_Node000006"><a xlink:href="client_2Mqtt_8cpp.html" target="_top" xlink:title=" ">
<polygon fill="white" stroke="#666666" points="2067.5,-90.5 1936.5,-90.5 1936.5,-71.5 2067.5,-71.5 2067.5,-90.5"/>
<text text-anchor="middle" x="2002" y="-78.5" font-family="Helvetica,sans-Serif" font-size="10.00">iot/mqtt/client/Mqtt.cpp</text>
</a>
</g>
</g>
<!-- Node5&#45;&gt;Node6 -->
<g id="edge6_Node000005_Node000006" class="edge">
<title>Node5&#45;&gt;Node6</title>
<g id="a_edge6_Node000005_Node000006"><a xlink:title=" ">
<path fill="none" stroke="#63b8ff" d="M1398.71,-135.49C1405.82,-134.16 1413.08,-132.94 1420,-132 1643.83,-101.48 1702.94,-124.77 1927,-96 1938.04,-94.58 1949.9,-92.59 1960.87,-90.55"/>
<polygon fill="#63b8ff" stroke="#63b8ff" points="1397.6,-132.14 1388.45,-137.48 1398.94,-139.01 1397.6,-132.14"/>
</a>
</g>
</g>
<!-- Node7 -->
<g id="Node000007" class="node">
<title>Node7</title>
<g id="a_Node000007"><a xlink:href="mqtt_2client_2packets_2Connack_8cpp.html" target="_top" xlink:title=" ">
<polygon fill="white" stroke="#666666" points="1486,-96 1360,-96 1360,-66 1486,-66 1486,-96"/>
<text text-anchor="start" x="1368" y="-84" font-family="Helvetica,sans-Serif" font-size="10.00">iot/mqtt/client/packets</text>
<text text-anchor="middle" x="1423" y="-73" font-family="Helvetica,sans-Serif" font-size="10.00">/Connack.cpp</text>
</a>
</g>
</g>
<!-- Node5&#45;&gt;Node7 -->
<g id="edge7_Node000005_Node000007" class="edge">
<title>Node5&#45;&gt;Node7</title>
<g id="a_edge7_Node000005_Node000007"><a xlink:title=" ">
<path fill="none" stroke="#63b8ff" d="M1368.2,-130.71C1380.02,-120.21 1395.59,-106.36 1407.12,-96.12"/>
<polygon fill="#63b8ff" stroke="#63b8ff" points="1365.86,-128.11 1360.71,-137.37 1370.51,-133.34 1365.86,-128.11"/>
</a>
</g>
</g>
<!-- Node8 -->
<g id="Node000008" class="node">
<title>Node8</title>
<g id="a_Node000008"><a xlink:href="mqtt_2client_2packets_2Pingresp_8cpp.html" target="_top" xlink:title=" ">
<polygon fill="white" stroke="#666666" points="1630,-96 1504,-96 1504,-66 1630,-66 1630,-96"/>
<text text-anchor="start" x="1512" y="-84" font-family="Helvetica,sans-Serif" font-size="10.00">iot/mqtt/client/packets</text>
<text text-anchor="middle" x="1567" y="-73" font-family="Helvetica,sans-Serif" font-size="10.00">/Pingresp.cpp</text>
</a>
</g>
</g>
<!-- Node5&#45;&gt;Node8 -->
<g id="edge8_Node000005_Node000008" class="edge">
<title>Node5&#45;&gt;Node8</title>
<g id="a_edge8_Node000005_Node000008"><a xlink:title=" ">
<path fill="none" stroke="#63b8ff" d="M1389.87,-134.48C1426.17,-123.73 1480.46,-107.64 1519.36,-96.12"/>
<polygon fill="#63b8ff" stroke="#63b8ff" points="1388.72,-131.17 1380.13,-137.37 1390.71,-137.88 1388.72,-131.17"/>
</a>
</g>
</g>
<!-- Node9 -->
<g id="Node000009" class="node">
<title>Node9</title>
<g id="a_Node000009"><a xlink:href="mqtt_2client_2packets_2Puback_8cpp.html" target="_top" xlink:title=" ">
<polygon fill="white" stroke="#666666" points="1774,-96 1648,-96 1648,-66 1774,-66 1774,-96"/>
<text text-anchor="start" x="1656" y="-84" font-family="Helvetica,sans-Serif" font-size="10.00">iot/mqtt/client/packets</text>
<text text-anchor="middle" x="1711" y="-73" font-family="Helvetica,sans-Serif" font-size="10.00">/Puback.cpp</text>
</a>
</g>
</g>
<!-- Node5&#45;&gt;Node9 -->
<g id="edge9_Node000005_Node000009" class="edge">
<title>Node5&#45;&gt;Node9</title>
<g id="a_edge9_Node000005_Node000009"><a xlink:title=" ">
<path fill="none" stroke="#63b8ff" d="M1401.95,-135.44C1408.02,-134.25 1414.15,-133.07 1420,-132 1517.02,-114.19 1541.91,-113.42 1639,-96 1641.88,-95.48 1644.83,-94.95 1647.8,-94.4"/>
<polygon fill="#63b8ff" stroke="#63b8ff" points="1400.94,-132.07 1391.82,-137.46 1402.31,-138.94 1400.94,-132.07"/>
</a>
</g>
</g>
<!-- Node10 -->
<g id="Node000010" class="node">
<title>Node10</title>
<g id="a_Node000010"><a xlink:href="mqtt_2client_2packets_2Pubcomp_8cpp.html" target="_top" xlink:title=" ">
<polygon fill="white" stroke="#666666" points="766,-96 640,-96 640,-66 766,-66 766,-96"/>
<text text-anchor="start" x="648" y="-84" font-family="Helvetica,sans-Serif" font-size="10.00">iot/mqtt/client/packets</text>
<text text-anchor="middle" x="703" y="-73" font-family="Helvetica,sans-Serif" font-size="10.00">/Pubcomp.cpp</text>
</a>
</g>
</g>
<!-- Node5&#45;&gt;Node10 -->
<g id="edge10_Node000005_Node000010" class="edge">
<title>Node5&#45;&gt;Node10</title>
<g id="a_edge10_Node000005_Node000010"><a xlink:title=" ">
<path fill="none" stroke="#63b8ff" d="M1303.1,-135.59C1295.73,-134.23 1288.18,-132.97 1281,-132 1057.57,-101.83 998.51,-125.57 775,-96 772.1,-95.62 769.13,-95.19 766.15,-94.73"/>
<polygon fill="#63b8ff" stroke="#63b8ff" points="1302.52,-139.04 1313,-137.49 1303.84,-132.17 1302.52,-139.04"/>
</a>
</g>
</g>
<!-- Node11 -->
<g id="Node000011" class="node">
<title>Node11</title>
<g id="a_Node000011"><a xlink:href="mqtt_2client_2packets_2Publish_8cpp.html" target="_top" xlink:title=" ">
<polygon fill="white" stroke="#666666" points="1918,-96 1792,-96 1792,-66 1918,-66 1918,-96"/>
<text text-anchor="start" x="1800" y="-84" font-family="Helvetica,sans-Serif" font-size="10.00">iot/mqtt/client/packets</text>
<text text-anchor="middle" x="1855" y="-73" font-family="Helvetica,sans-Serif" font-size="10.00">/Publish.cpp</text>
</a>
</g>
</g>
<!-- Node5&#45;&gt;Node11 -->
<g id="edge11_Node000005_Node000011" class="edge">
<title>Node5&#45;&gt;Node11</title>
<g id="a_edge11_Node000005_Node000011"><a xlink:title=" ">
<path fill="none" stroke="#63b8ff" d="M1399.48,-135.52C1406.35,-134.22 1413.34,-133 1420,-132 1580.32,-107.85 1622.59,-119.5 1783,-96 1785.9,-95.58 1788.86,-95.11 1791.84,-94.63"/>
<polygon fill="#63b8ff" stroke="#63b8ff" points="1398.7,-132.11 1389.56,-137.46 1400.05,-138.98 1398.7,-132.11"/>
</a>
</g>
</g>
<!-- Node12 -->
<g id="Node000012" class="node">
<title>Node12</title>
<g id="a_Node000012"><a xlink:href="mqtt_2client_2packets_2Pubrec_8cpp.html" target="_top" xlink:title=" ">
<polygon fill="white" stroke="#666666" points="910,-96 784,-96 784,-66 910,-66 910,-96"/>
<text text-anchor="start" x="792" y="-84" font-family="Helvetica,sans-Serif" font-size="10.00">iot/mqtt/client/packets</text>
<text text-anchor="middle" x="847" y="-73" font-family="Helvetica,sans-Serif" font-size="10.00">/Pubrec.cpp</text>
</a>
</g>
</g>
<!-- Node5&#45;&gt;Node12 -->
<g id="edge12_Node000005_Node000012" class="edge">
<title>Node5&#45;&gt;Node12</title>
<g id="a_edge12_Node000005_Node000012"><a xlink:title=" ">
<path fill="none" stroke="#63b8ff" d="M1301.81,-135.53C1294.84,-134.23 1287.75,-133.01 1281,-132 1121.09,-108.12 1078.97,-119.46 919,-96 916.1,-95.58 913.14,-95.11 910.16,-94.63"/>
<polygon fill="#63b8ff" stroke="#63b8ff" points="1301.39,-139.01 1311.88,-137.47 1302.72,-132.14 1301.39,-139.01"/>
</a>
</g>
</g>
<!-- Node13 -->
<g id="Node000013" class="node">
<title>Node13</title>
<g id="a_Node000013"><a xlink:href="mqtt_2client_2packets_2Pubrel_8cpp.html" target="_top" xlink:title=" ">
<polygon fill="white" stroke="#666666" points="1054,-96 928,-96 928,-66 1054,-66 1054,-96"/>
<text text-anchor="start" x="936" y="-84" font-family="Helvetica,sans-Serif" font-size="10.00">iot/mqtt/client/packets</text>
<text text-anchor="middle" x="991" y="-73" font-family="Helvetica,sans-Serif" font-size="10.00">/Pubrel.cpp</text>
</a>
</g>
</g>
<!-- Node5&#45;&gt;Node13 -->
<g id="edge13_Node000005_Node000013" class="edge">
<title>Node5&#45;&gt;Node13</title>
<g id="a_edge13_Node000005_Node000013"><a xlink:title=" ">
<path fill="none" stroke="#63b8ff" d="M1299.76,-135.55C1293.45,-134.32 1287.08,-133.11 1281,-132 1184.39,-114.37 1159.65,-113.37 1063,-96 1060.12,-95.48 1057.17,-94.94 1054.2,-94.39"/>
<polygon fill="#63b8ff" stroke="#63b8ff" points="1299.1,-138.98 1309.59,-137.48 1300.45,-132.11 1299.1,-138.98"/>
</a>
</g>
</g>
<!-- Node14 -->
<g id="Node000014" class="node">
<title>Node14</title>
<g id="a_Node000014"><a xlink:href="mqtt_2client_2packets_2Suback_8cpp.html" target="_top" xlink:title=" ">
<polygon fill="white" stroke="#666666" points="1198,-96 1072,-96 1072,-66 1198,-66 1198,-96"/>
<text text-anchor="start" x="1080" y="-84" font-family="Helvetica,sans-Serif" font-size="10.00">iot/mqtt/client/packets</text>
<text text-anchor="middle" x="1135" y="-73" font-family="Helvetica,sans-Serif" font-size="10.00">/Suback.cpp</text>
</a>
</g>
</g>
<!-- Node5&#45;&gt;Node14 -->
<g id="edge14_Node000005_Node000014" class="edge">
<title>Node5&#45;&gt;Node14</title>
<g id="a_edge14_Node000005_Node000014"><a xlink:title=" ">
<path fill="none" stroke="#63b8ff" d="M1312.13,-134.48C1275.83,-123.73 1221.54,-107.64 1182.64,-96.12"/>
<polygon fill="#63b8ff" stroke="#63b8ff" points="1311.29,-137.88 1321.87,-137.37 1313.28,-131.17 1311.29,-137.88"/>
</a>
</g>
</g>
<!-- Node15 -->
<g id="Node000015" class="node">
<title>Node15</title>
<g id="a_Node000015"><a xlink:href="mqtt_2client_2packets_2Unsuback_8cpp.html" target="_top" xlink:title=" ">
<polygon fill="white" stroke="#666666" points="1342,-96 1216,-96 1216,-66 1342,-66 1342,-96"/>
<text text-anchor="start" x="1224" y="-84" font-family="Helvetica,sans-Serif" font-size="10.00">iot/mqtt/client/packets</text>
<text text-anchor="middle" x="1279" y="-73" font-family="Helvetica,sans-Serif" font-size="10.00">/Unsuback.cpp</text>
</a>
</g>
</g>
<!-- Node5&#45;&gt;Node15 -->
<g id="edge15_Node000005_Node000015" class="edge">
<title>Node5&#45;&gt;Node15</title>
<g id="a_edge15_Node000005_Node000015"><a xlink:title=" ">
<path fill="none" stroke="#63b8ff" d="M1333.8,-130.71C1321.98,-120.21 1306.41,-106.36 1294.88,-96.12"/>
<polygon fill="#63b8ff" stroke="#63b8ff" points="1331.49,-133.34 1341.29,-137.37 1336.14,-128.11 1331.49,-133.34"/>
</a>
</g>
</g>
<!-- Node17 -->
<g id="Node000017" class="node">
<title>Node17</title>
<g id="a_Node000017"><a xlink:href="Broker_8h.html" target="_top" xlink:title=" ">
<polygon fill="white" stroke="#666666" points="480.5,-96 357.5,-96 357.5,-66 480.5,-66 480.5,-96"/>
<text text-anchor="start" x="365.5" y="-84" font-family="Helvetica,sans-Serif" font-size="10.00">iot/mqtt/server/broker</text>
<text text-anchor="middle" x="419" y="-73" font-family="Helvetica,sans-Serif" font-size="10.00">/Broker.h</text>
</a>
</g>
</g>
<!-- Node16&#45;&gt;Node17 -->
<g id="edge17_Node000016_Node000017" class="edge">
<title>Node16&#45;&gt;Node17</title>
<g id="a_edge17_Node000016_Node000017"><a xlink:title=" ">
<path fill="none" stroke="#63b8ff" d="M1138.79,-131.99C850.67,-96.73 773.1,-132.08 489,-96 486.3,-95.66 483.54,-95.27 480.76,-94.85"/>
<polygon fill="#63b8ff" stroke="#63b8ff" points="1138.77,-135.51 1149.13,-133.27 1139.63,-128.57 1138.77,-135.51"/>
</a>
</g>
</g>
<!-- Node24 -->
<g id="Node000024" class="node">
<title>Node24</title>
<g id="a_Node000024"><a xlink:href="server_2broker_2Session_8cpp.html" target="_top" xlink:title=" ">
<polygon fill="white" stroke="#666666" points="621.5,-96 498.5,-96 498.5,-66 621.5,-66 621.5,-96"/>
<text text-anchor="start" x="506.5" y="-84" font-family="Helvetica,sans-Serif" font-size="10.00">iot/mqtt/server/broker</text>
<text text-anchor="middle" x="560" y="-73" font-family="Helvetica,sans-Serif" font-size="10.00">/Session.cpp</text>
</a>
</g>
</g>
<!-- Node16&#45;&gt;Node24 -->
<g id="edge24_Node000016_Node000024" class="edge">
<title>Node16&#45;&gt;Node24</title>
<g id="a_edge24_Node000016_Node000024"><a xlink:title=" ">
<path fill="none" stroke="#63b8ff" d="M1138.95,-131.99C913.43,-102.7 852.5,-125.56 631,-96 628.01,-95.6 624.96,-95.15 621.88,-94.67"/>
<polygon fill="#63b8ff" stroke="#63b8ff" points="1138.75,-135.49 1149.12,-133.33 1139.66,-128.55 1138.75,-135.49"/>
</a>
</g>
</g>
<!-- Node18 -->
<g id="Node000018" class="node">
<title>Node18</title>
<g id="a_Node000018"><a xlink:href="server_2Mqtt_8cpp.html" target="_top" xlink:title=" ">
<polygon fill="white" stroke="#666666" points="1539.5,-24.5 1404.5,-24.5 1404.5,-5.5 1539.5,-5.5 1539.5,-24.5"/>
<text text-anchor="middle" x="1472" y="-12.5" font-family="Helvetica,sans-Serif" font-size="10.00">iot/mqtt/server/Mqtt.cpp</text>
</a>
</g>
</g>
<!-- Node17&#45;&gt;Node18 -->
<g id="edge18_Node000017_Node000018" class="edge">
<title>Node17&#45;&gt;Node18</title>
<g id="a_edge18_Node000017_Node000018"><a xlink:title=" ">
<path fill="none" stroke="#63b8ff" d="M490.78,-65.9C838.95,-23.2 1246.03,-16.85 1404.37,-16.03"/>
<polygon fill="#63b8ff" stroke="#63b8ff" points="490.25,-62.44 480.76,-67.14 491.11,-69.38 490.25,-62.44"/>
</a>
</g>
</g>
<!-- Node19 -->
<g id="Node000019" class="node">
<title>Node19</title>
<g id="a_Node000019"><a xlink:href="SharedSocketContextFactory_8cpp.html" target="_top" xlink:title=" ">
<polygon fill="white" stroke="#666666" points="158,-30 0,-30 0,0 158,0 158,-30"/>
<text text-anchor="start" x="8" y="-18" font-family="Helvetica,sans-Serif" font-size="10.00">iot/mqtt/server/SharedSocket</text>
<text text-anchor="middle" x="79" y="-7" font-family="Helvetica,sans-Serif" font-size="10.00">ContextFactory.cpp</text>
</a>
</g>
</g>
<!-- Node17&#45;&gt;Node19 -->
<g id="edge19_Node000017_Node000019" class="edge">
<title>Node17&#45;&gt;Node19</title>
<g id="a_edge19_Node000017_Node000019"><a xlink:title=" ">
<path fill="none" stroke="#63b8ff" d="M347.43,-66.53C290.5,-55.81 211.12,-40.87 153.45,-30.01"/>
<polygon fill="#63b8ff" stroke="#63b8ff" points="346.95,-70 357.43,-68.41 348.25,-63.12 346.95,-70"/>
</a>
</g>
</g>
<!-- Node20 -->
<g id="Node000020" class="node">
<title>Node20</title>
<g id="a_Node000020"><a xlink:href="iot_2mqtt_2server_2SocketContextFactory_8cpp.html" target="_top" xlink:title=" ">
<polygon fill="white" stroke="#666666" points="339.5,-30 176.5,-30 176.5,0 339.5,0 339.5,-30"/>
<text text-anchor="start" x="184.5" y="-18" font-family="Helvetica,sans-Serif" font-size="10.00">iot/mqtt/server/SocketContext</text>
<text text-anchor="middle" x="258" y="-7" font-family="Helvetica,sans-Serif" font-size="10.00">Factory.cpp</text>
</a>
</g>
</g>
<!-- Node17&#45;&gt;Node20 -->
<g id="edge20_Node000017_Node000020" class="edge">
<title>Node17&#45;&gt;Node20</title>
<g id="a_edge20_Node000017_Node000020"><a xlink:title=" ">
<path fill="none" stroke="#63b8ff" d="M374.19,-62.19C348.63,-52.02 317.03,-39.47 293.25,-30.01"/>
<polygon fill="#63b8ff" stroke="#63b8ff" points="373.08,-65.51 383.67,-65.95 375.67,-59.01 373.08,-65.51"/>
</a>
</g>
</g>
<!-- Node21 -->
<g id="Node000021" class="node">
<title>Node21</title>
<g id="a_Node000021"><a xlink:href="Broker_8cpp.html" target="_top" xlink:title=" ">
<polygon fill="white" stroke="#666666" points="480.5,-30 357.5,-30 357.5,0 480.5,0 480.5,-30"/>
<text text-anchor="start" x="365.5" y="-18" font-family="Helvetica,sans-Serif" font-size="10.00">iot/mqtt/server/broker</text>
<text text-anchor="middle" x="419" y="-7" font-family="Helvetica,sans-Serif" font-size="10.00">/Broker.cpp</text>
</a>
</g>
</g>
<!-- Node17&#45;&gt;Node21 -->
<g id="edge21_Node000017_Node000021" class="edge">
<title>Node17&#45;&gt;Node21</title>
<g id="a_edge21_Node000017_Node000021"><a xlink:title=" ">
<path fill="none" stroke="#63b8ff" d="M419,-55.54C419,-46.96 419,-37.61 419,-30.16"/>
<polygon fill="#63b8ff" stroke="#63b8ff" points="415.5,-55.8 419,-65.8 422.5,-55.8 415.5,-55.8"/>
</a>
</g>
</g>
<!-- Node22 -->
<g id="Node000022" class="node">
<title>Node22</title>
<g id="a_Node000022"><a xlink:href="RetainTree_8cpp.html" target="_top" xlink:title=" ">
<polygon fill="white" stroke="#666666" points="621.5,-30 498.5,-30 498.5,0 621.5,0 621.5,-30"/>
<text text-anchor="start" x="506.5" y="-18" font-family="Helvetica,sans-Serif" font-size="10.00">iot/mqtt/server/broker</text>
<text text-anchor="middle" x="560" y="-7" font-family="Helvetica,sans-Serif" font-size="10.00">/RetainTree.cpp</text>
</a>
</g>
</g>
<!-- Node17&#45;&gt;Node22 -->
<g id="edge22_Node000017_Node000022" class="edge">
<title>Node17&#45;&gt;Node22</title>
<g id="a_edge22_Node000017_Node000022"><a xlink:title=" ">
<path fill="none" stroke="#63b8ff" d="M459.13,-61.78C481.36,-51.69 508.57,-39.34 529.13,-30.01"/>
<polygon fill="#63b8ff" stroke="#63b8ff" points="457.6,-58.63 449.94,-65.95 460.5,-65.01 457.6,-58.63"/>
</a>
</g>
</g>
<!-- Node23 -->
<g id="Node000023" class="node">
<title>Node23</title>
<g id="a_Node000023"><a xlink:href="SubscriptionTree_8cpp.html" target="_top" xlink:title=" ">
<polygon fill="white" stroke="#666666" points="762.5,-30 639.5,-30 639.5,0 762.5,0 762.5,-30"/>
<text text-anchor="start" x="647.5" y="-18" font-family="Helvetica,sans-Serif" font-size="10.00">iot/mqtt/server/broker</text>
<text text-anchor="middle" x="701" y="-7" font-family="Helvetica,sans-Serif" font-size="10.00">/SubscriptionTree.cpp</text>
</a>
</g>
</g>
<!-- Node17&#45;&gt;Node23 -->
<g id="edge23_Node000017_Node000023" class="edge">
<title>Node17&#45;&gt;Node23</title>
<g id="a_edge23_Node000017_Node000023"><a xlink:title=" ">
<path fill="none" stroke="#63b8ff" d="M490.41,-63.79C536.27,-53.39 595.24,-40 639.11,-30.05"/>
<polygon fill="#63b8ff" stroke="#63b8ff" points="489.51,-60.41 480.54,-66.03 491.06,-67.23 489.51,-60.41"/>
</a>
</g>
</g>
<!-- Node25&#45;&gt;Node6 -->
<g id="edge26_Node000025_Node000006" class="edge">
<title>Node25&#45;&gt;Node6</title>
<g id="a_edge26_Node000025_Node000006"><a xlink:title=" ">
<path fill="none" stroke="#63b8ff" d="M1896.48,-127.94C1924.64,-115.68 1960.6,-100.02 1982.44,-90.52"/>
<polygon fill="#63b8ff" stroke="#63b8ff" points="1895.03,-124.75 1887.26,-131.95 1897.83,-131.17 1895.03,-124.75"/>
</a>
</g>
</g>
<!-- Node25&#45;&gt;Node11 -->
<g id="edge27_Node000025_Node000011" class="edge">
<title>Node25&#45;&gt;Node11</title>
<g id="a_edge27_Node000025_Node000011"><a xlink:title=" ">
<path fill="none" stroke="#63b8ff" d="M1855,-121.54C1855,-112.96 1855,-103.61 1855,-96.16"/>
<polygon fill="#63b8ff" stroke="#63b8ff" points="1851.5,-121.8 1855,-131.8 1858.5,-121.8 1851.5,-121.8"/>
</a>
</g>
</g>
<!-- Node27&#45;&gt;Node18 -->
<g id="edge30_Node000027_Node000018" class="edge">
<title>Node27&#45;&gt;Node18</title>
<g id="a_edge30_Node000027_Node000018"><a xlink:title=" ">
<path fill="none" stroke="#63b8ff" d="M2036.81,-193.69C2051.76,-186.28 2065.98,-176.04 2075,-162 2098.05,-126.09 2105.91,-97.39 2077,-66 2041.19,-27.11 1689.94,-18.47 1539.65,-16.55"/>
<polygon fill="#63b8ff" stroke="#63b8ff" points="2035.1,-190.62 2027.44,-197.94 2037.99,-196.99 2035.1,-190.62"/>
</a>
</g>
</g>
<!-- Node28 -->
<g id="Node000028" class="node">
<title>Node28</title>
<g id="a_Node000028"><a xlink:href="mqtt_2server_2packets_2Publish_8cpp.html" target="_top" xlink:title=" ">
<polygon fill="white" stroke="#666666" points="2066,-162 1936,-162 1936,-132 2066,-132 2066,-162"/>
<text text-anchor="start" x="1944" y="-150" font-family="Helvetica,sans-Serif" font-size="10.00">iot/mqtt/server/packets</text>
<text text-anchor="middle" x="2001" y="-139" font-family="Helvetica,sans-Serif" font-size="10.00">/Publish.cpp</text>
</a>
</g>
</g>
<!-- Node27&#45;&gt;Node28 -->
<g id="edge31_Node000027_Node000028" class="edge">
<title>Node27&#45;&gt;Node28</title>
<g id="a_edge31_Node000027_Node000028"><a xlink:title=" ">
<path fill="none" stroke="#63b8ff" d="M1983.96,-188.39C1987.67,-179.59 1991.78,-169.86 1995.02,-162.16"/>
<polygon fill="#63b8ff" stroke="#63b8ff" points="1980.65,-187.22 1979.99,-197.8 1987.1,-189.94 1980.65,-187.22"/>
</a>
</g>
</g>
</g>
</svg>

<g id="navigator" transform="translate(0 0)" fill="#404254">
  <rect fill="#f2f5e9" fill-opacity="0.5" stroke="#606060" stroke-width=".5" x="0" y="0" width="60" height="60"/>
  <use id="zoomplus" xlink:href="#zoomPlus" x="17" y="9" onmousedown="handleZoom(evt,'in')"/>
  <use id="zoomminus" xlink:href="#zoomMin" x="42" y="9" onmousedown="handleZoom(evt,'out')"/>
  <use id="reset" xlink:href="#resetDef" x="30" y="36" onmousedown="handleReset()"/>
   <use id="arrowup" xlink:href="#arrowUp" x="0" y="0" onmousedown="handlePan(0,-1)"/>
  <use id="arrowright" xlink:href="#arrowRight" x="0" y="0" onmousedown="handlePan(1,0)"/>
  <use id="arrowdown" xlink:href="#arrowDown" x="0" y="0" onmousedown="handlePan(0,1)"/>
  <use id="arrowleft" xlink:href="#arrowLeft" x="0" y="0" onmousedown="handlePan(-1,0)"/>
</g>
<svg viewBox="0 0 15 15" width="100%" height="30px" preserveAspectRatio="xMaxYMin meet">
 <g id="arrow_out" transform="scale(0.3 0.3)">
  <a xlink:href="mqtt_2packets_2Publish_8h__dep__incl_org.svg" target="_base">
   <rect id="button" ry="5" rx="5" y="6" x="6" height="38" width="38"
        fill="#f2f5e9" fill-opacity="0.5" stroke="#606060" stroke-width="1.0"/>
   <path id="arrow"
     d="M 11.500037,31.436501 C 11.940474,20.09759 22.043105,11.32322 32.158766,21.979434 L 37.068811,17.246167 C 37.068811,17.246167 37.088388,32 37.088388,32 L 22.160133,31.978069 C 22.160133,31.978069 26.997745,27.140456 26.997745,27.140456 C 18.528582,18.264221 13.291696,25.230495 11.500037,31.436501 z"
     style="fill:#404040;"/>
  </a>
 </g>
</svg>

<style type='text/css'>
<![CDATA[
[data-mouse-over-selected='false'] { opacity: 0.7; }
[data-mouse-over-selected='true']  { opacity: 1.0; }
]]>
</style>
<script type="application/ecmascript"><![CDATA[
document.addEventListener('DOMContentLoaded', (event) => {
  highlightEdges();
  highlightAdjacentNodes();
});
]]></script>
</svg>
