<?xml version="1.0" encoding="UTF-8" standalone="no"?>
<!DOCTYPE svg PUBLIC "-//W3C//DTD SVG 1.1//EN"
 "http://www.w3.org/Graphics/SVG/1.1/DTD/svg11.dtd">
<!-- Generated by graphviz version 14.1.1 (0)
 -->
<!-- Title: iot/mqtt/packets/Pubcomp.h Pages: 1 -->
<svg width="647pt" height="168pt"
 viewBox="0.00 0.00 647.00 168.00" xmlns="http://www.w3.org/2000/svg" xmlns:xlink="http://www.w3.org/1999/xlink">
<g id="graph0" class="graph" transform="scale(1 1) rotate(0) translate(4 163.75)">
<title>iot/mqtt/packets/Pubcomp.h</title>
<!-- Node1 -->
<g id="Node000001" class="node">
<title>Node1</title>
<g id="a_Node000001"><a xlink:title=" ">
<polygon fill="#999999" stroke="#666666" points="338.62,-159.75 186.12,-159.75 186.12,-139 338.62,-139 338.62,-159.75"/>
<text xml:space="preserve" text-anchor="middle" x="262.38" y="-146.25" font-family="Helvetica,sans-Serif" font-size="10.00">iot/mqtt/packets/Pubcomp.h</text>
</a>
</g>
</g>
<!-- Node2 -->
<g id="Node000002" class="node">
<title>Node2</title>
<g id="a_Node000002"><a xlink:href="Mqtt_8cpp.html" target="_top" xlink:title=" ">
<polygon fill="white" stroke="#666666" points="100.75,-96.62 0,-96.62 0,-75.88 100.75,-75.88 100.75,-96.62"/>
<text xml:space="preserve" text-anchor="middle" x="50.38" y="-83.12" font-family="Helvetica,sans-Serif" font-size="10.00">iot/mqtt/Mqtt.cpp</text>
</a>
</g>
</g>
<!-- Node1&#45;&gt;Node2 -->
<g id="edge1_Node000001_Node000002" class="edge">
<title>Node1&#45;&gt;Node2</title>
<g id="a_edge1_Node000001_Node000002"><a xlink:title=" ">
<path fill="none" stroke="#63b8ff" d="M217.33,-135.39C177.54,-123.92 120.4,-107.44 84.35,-97.05"/>
<polygon fill="#63b8ff" stroke="#63b8ff" points="216.28,-138.73 226.86,-138.13 218.22,-132 216.28,-138.73"/>
</a>
</g>
</g>
<!-- Node3 -->
<g id="Node000003" class="node">
<title>Node3</title>
<g id="a_Node000003"><a xlink:href="mqtt_2client_2packets_2Pubcomp_8h.html" target="_top" xlink:title=" ">
<polygon fill="white" stroke="#666666" points="244.12,-103 118.62,-103 118.62,-69.5 244.12,-69.5 244.12,-103"/>
<text xml:space="preserve" text-anchor="start" x="126.62" y="-89.5" font-family="Helvetica,sans-Serif" font-size="10.00">iot/mqtt/client/packets</text>
<text xml:space="preserve" text-anchor="middle" x="181.38" y="-76.75" font-family="Helvetica,sans-Serif" font-size="10.00">/Pubcomp.h</text>
</a>
</g>
</g>
<!-- Node1&#45;&gt;Node3 -->
<g id="edge2_Node000001_Node000003" class="edge">
<title>Node1&#45;&gt;Node3</title>
<g id="a_edge2_Node000001_Node000003"><a xlink:title=" ">
<path fill="none" stroke="#63b8ff" d="M240.31,-131.72C228.67,-122.94 214.44,-112.21 202.89,-103.48"/>
<polygon fill="#63b8ff" stroke="#63b8ff" points="238.06,-134.41 248.15,-137.64 242.28,-128.83 238.06,-134.41"/>
</a>
</g>
</g>
<!-- Node6 -->
<g id="Node000006" class="node">
<title>Node6</title>
<g id="a_Node000006"><a xlink:href="mqtt_2packets_2Pubcomp_8cpp.html" target="_top" xlink:title=" ">
<polygon fill="white" stroke="#666666" points="426.25,-96.62 262.5,-96.62 262.5,-75.88 426.25,-75.88 426.25,-96.62"/>
<text xml:space="preserve" text-anchor="middle" x="344.38" y="-83.12" font-family="Helvetica,sans-Serif" font-size="10.00">iot/mqtt/packets/Pubcomp.cpp</text>
</a>
</g>
</g>
<!-- Node1&#45;&gt;Node6 -->
<g id="edge5_Node000001_Node000006" class="edge">
<title>Node1&#45;&gt;Node6</title>
<g id="a_edge5_Node000001_Node000006"><a xlink:title=" ">
<path fill="none" stroke="#63b8ff" d="M284.63,-131.78C299.55,-120.66 318.69,-106.39 331.23,-97.05"/>
<polygon fill="#63b8ff" stroke="#63b8ff" points="282.69,-128.87 276.76,-137.65 286.87,-134.48 282.69,-128.87"/>
</a>
</g>
</g>
<!-- Node7 -->
<g id="Node000007" class="node">
<title>Node7</title>
<g id="a_Node000007"><a xlink:href="mqtt_2server_2packets_2Pubcomp_8h.html" target="_top" xlink:title=" ">
<polygon fill="white" stroke="#666666" points="574,-103 444.75,-103 444.75,-69.5 574,-69.5 574,-103"/>
<text xml:space="preserve" text-anchor="start" x="452.75" y="-89.5" font-family="Helvetica,sans-Serif" font-size="10.00">iot/mqtt/server/packets</text>
<text xml:space="preserve" text-anchor="middle" x="509.38" y="-76.75" font-family="Helvetica,sans-Serif" font-size="10.00">/Pubcomp.h</text>
</a>
</g>
</g>
<!-- Node1&#45;&gt;Node7 -->
<g id="edge6_Node000001_Node000007" class="edge">
<title>Node1&#45;&gt;Node7</title>
<g id="a_edge6_Node000001_Node000007"><a xlink:title=" ">
<path fill="none" stroke="#63b8ff" d="M312.86,-135.88C350.82,-126.49 403.14,-113.54 444.25,-103.37"/>
<polygon fill="#63b8ff" stroke="#63b8ff" points="312.4,-132.39 303.53,-138.19 314.08,-139.19 312.4,-132.39"/>
</a>
</g>
</g>
<!-- Node4 -->
<g id="Node000004" class="node">
<title>Node4</title>
<g id="a_Node000004"><a xlink:href="client_2Mqtt_8cpp.html" target="_top" xlink:title=" ">
<polygon fill="white" stroke="#666666" points="180.75,-27.12 50,-27.12 50,-6.38 180.75,-6.38 180.75,-27.12"/>
<text xml:space="preserve" text-anchor="middle" x="115.38" y="-13.62" font-family="Helvetica,sans-Serif" font-size="10.00">iot/mqtt/client/Mqtt.cpp</text>
</a>
</g>
</g>
<!-- Node3&#45;&gt;Node4 -->
<g id="edge3_Node000003_Node000004" class="edge">
<title>Node3&#45;&gt;Node4</title>
<g id="a_edge3_Node000003_Node000004"><a xlink:title=" ">
<path fill="none" stroke="#63b8ff" d="M157.86,-61.2C146.53,-49.61 133.57,-36.36 124.98,-27.57"/>
<polygon fill="#63b8ff" stroke="#63b8ff" points="155.18,-63.47 164.68,-68.17 160.19,-58.57 155.18,-63.47"/>
</a>
</g>
</g>
<!-- Node5 -->
<g id="Node000005" class="node">
<title>Node5</title>
<g id="a_Node000005"><a xlink:href="mqtt_2client_2packets_2Pubcomp_8cpp.html" target="_top" xlink:title=" ">
<polygon fill="white" stroke="#666666" points="324.12,-33.5 198.62,-33.5 198.62,0 324.12,0 324.12,-33.5"/>
<text xml:space="preserve" text-anchor="start" x="206.62" y="-20" font-family="Helvetica,sans-Serif" font-size="10.00">iot/mqtt/client/packets</text>
<text xml:space="preserve" text-anchor="middle" x="261.38" y="-7.25" font-family="Helvetica,sans-Serif" font-size="10.00">/Pubcomp.cpp</text>
</a>
</g>
</g>
<!-- Node3&#45;&gt;Node5 -->
<g id="edge4_Node000003_Node000005" class="edge">
<title>Node3&#45;&gt;Node5</title>
<g id="a_edge4_Node000003_Node000005"><a xlink:title=" ">
<path fill="none" stroke="#63b8ff" d="M209.12,-61.84C220.07,-52.6 232.36,-42.23 242.27,-33.87"/>
<polygon fill="#63b8ff" stroke="#63b8ff" points="206.88,-59.15 201.49,-68.28 211.39,-64.5 206.88,-59.15"/>
</a>
</g>
</g>
<!-- Node8 -->
<g id="Node000008" class="node">
<title>Node8</title>
<g id="a_Node000008"><a xlink:href="server_2Mqtt_8cpp.html" target="_top" xlink:title=" ">
<polygon fill="white" stroke="#666666" points="491.62,-27.12 357.12,-27.12 357.12,-6.38 491.62,-6.38 491.62,-27.12"/>
<text xml:space="preserve" text-anchor="middle" x="424.38" y="-13.62" font-family="Helvetica,sans-Serif" font-size="10.00">iot/mqtt/server/Mqtt.cpp</text>
</a>
</g>
</g>
<!-- Node7&#45;&gt;Node8 -->
<g id="edge7_Node000007_Node000008" class="edge">
<title>Node7&#45;&gt;Node8</title>
<g id="a_edge7_Node000007_Node000008"><a xlink:title=" ">
<path fill="none" stroke="#63b8ff" d="M480.36,-62.21C465.48,-50.39 448.14,-36.62 436.74,-27.57"/>
<polygon fill="#63b8ff" stroke="#63b8ff" points="478.04,-64.83 488.05,-68.31 482.39,-59.35 478.04,-64.83"/>
</a>
</g>
</g>
<!-- Node9 -->
<g id="Node000009" class="node">
<title>Node9</title>
<g id="a_Node000009"><a xlink:href="mqtt_2server_2packets_2Pubcomp_8cpp.html" target="_top" xlink:title=" ">
<polygon fill="white" stroke="#666666" points="639,-33.5 509.75,-33.5 509.75,0 639,0 639,-33.5"/>
<text xml:space="preserve" text-anchor="start" x="517.75" y="-20" font-family="Helvetica,sans-Serif" font-size="10.00">iot/mqtt/server/packets</text>
<text xml:space="preserve" text-anchor="middle" x="574.38" y="-7.25" font-family="Helvetica,sans-Serif" font-size="10.00">/Pubcomp.cpp</text>
</a>
</g>
</g>
<!-- Node7&#45;&gt;Node9 -->
<g id="edge8_Node000007_Node000009" class="edge">
<title>Node7&#45;&gt;Node9</title>
<g id="a_edge8_Node000007_Node000009"><a xlink:title=" ">
<path fill="none" stroke="#63b8ff" d="M532.51,-61.22C541.34,-52.06 551.17,-41.85 559.08,-33.63"/>
<polygon fill="#63b8ff" stroke="#63b8ff" points="530.24,-58.53 525.83,-68.16 535.29,-63.39 530.24,-58.53"/>
</a>
</g>
</g>
</g>
</svg>
