<?xml version="1.0" encoding="UTF-8" standalone="no"?>
<!DOCTYPE svg PUBLIC "-//W3C//DTD SVG 1.1//EN"
 "http://www.w3.org/Graphics/SVG/1.1/DTD/svg11.dtd">
<!-- Generated by graphviz version 14.1.2 (0)
 -->
<!-- Title: iot/mqtt/packets/Subscribe.cpp Pages: 1 -->
<svg width="469pt" height="256pt"
 viewBox="0.00 0.00 469.00 256.00" xmlns="http://www.w3.org/2000/svg" xmlns:xlink="http://www.w3.org/1999/xlink">

<svg id="main" version="1.1" xmlns="http://www.w3.org/2000/svg" xmlns:xlink="http://www.w3.org/1999/xlink" xml:space="preserve">

<style type="text/css"><![CDATA[
.node, .edge {opacity: 0.7;}
.node.selected, .edge.selected {opacity: 1;}
.edge:hover path { stroke: red; }
.edge:hover polygon { stroke: red; fill: red; }
]]></style>
<script type="application/ecmascript" xlink:href="svg.min.js"/>
<svg id="graph" class="graph">
<g id="graph0" class="graph" transform="scale(1 1) rotate(0) translate(4 251.75)">
<title>iot/mqtt/packets/Subscribe.cpp</title>
<!-- Node1 -->
<g id="Node000001" class="node">
<title>Node1</title>
<g id="a_Node000001"><a xlink:title=" ">
<polygon fill="#999999" stroke="#666666" points="460.68,-247.75 294.68,-247.75 294.68,-227 460.68,-227 460.68,-247.75"/>
<text xml:space="preserve" text-anchor="middle" x="377.68" y="-234.25" font-family="Helvetica,sans-Serif" font-size="10.00">iot/mqtt/packets/Subscribe.cpp</text>
</a>
</g>
</g>
<!-- Node2 -->
<g id="Node000002" class="node">
<title>Node2</title>
<g id="a_Node000002"><a xlink:href="mqtt_2packets_2Subscribe_8h.html" target="_top" xlink:title=" ">
<polygon fill="white" stroke="#666666" points="291.05,-191 136.3,-191 136.3,-170.25 291.05,-170.25 291.05,-191"/>
<text xml:space="preserve" text-anchor="middle" x="213.68" y="-177.5" font-family="Helvetica,sans-Serif" font-size="10.00">iot/mqtt/packets/Subscribe.h</text>
</a>
</g>
</g>
<!-- Node1&#45;&gt;Node2 -->
<g id="edge1_Node000001_Node000002" class="edge">
<title>Node1&#45;&gt;Node2</title>
<g id="a_edge1_Node000001_Node000002"><a xlink:title=" ">
<path fill="none" stroke="#63b8ff" d="M348.36,-226.59C321.97,-217.78 282.96,-204.75 253.71,-194.99"/>
<polygon fill="#63b8ff" stroke="#63b8ff" points="255.05,-191.75 244.46,-191.9 252.83,-198.39 255.05,-191.75"/>
</a>
</g>
</g>
<!-- Node5 -->
<g id="Node000005" class="node">
<title>Node5</title>
<g id="a_Node000005"><a xlink:href="String_8h.html" target="_top" xlink:title=" ">
<polygon fill="white" stroke="#666666" points="440.43,-134.25 314.93,-134.25 314.93,-113.5 440.43,-113.5 440.43,-134.25"/>
<text xml:space="preserve" text-anchor="middle" x="377.68" y="-120.75" font-family="Helvetica,sans-Serif" font-size="10.00">iot/mqtt/types/String.h</text>
</a>
</g>
</g>
<!-- Node1&#45;&gt;Node5 -->
<g id="edge10_Node000001_Node000005" class="edge">
<title>Node1&#45;&gt;Node5</title>
<g id="a_edge10_Node000001_Node000005"><a xlink:title=" ">
<path fill="none" stroke="#63b8ff" d="M377.68,-226.87C377.68,-209.1 377.68,-170.47 377.68,-146.18"/>
<polygon fill="#63b8ff" stroke="#63b8ff" points="381.18,-146.19 377.68,-136.19 374.18,-146.19 381.18,-146.19"/>
</a>
</g>
</g>
<!-- Node6 -->
<g id="Node000006" class="node">
<title>Node6</title>
<g id="a_Node000006"><a xlink:href="UInt16_8h.html" target="_top" xlink:title=" ">
<polygon fill="white" stroke="#666666" points="341.3,-77.5 212.05,-77.5 212.05,-56.75 341.3,-56.75 341.3,-77.5"/>
<text xml:space="preserve" text-anchor="middle" x="276.68" y="-64" font-family="Helvetica,sans-Serif" font-size="10.00">iot/mqtt/types/UInt16.h</text>
</a>
</g>
</g>
<!-- Node1&#45;&gt;Node6 -->
<g id="edge11_Node000001_Node000006" class="edge">
<title>Node1&#45;&gt;Node6</title>
<g id="a_edge11_Node000001_Node000006"><a xlink:title=" ">
<path fill="none" stroke="#63b8ff" d="M391.27,-226.61C419.56,-205.1 479.74,-152.46 449.68,-113.5 437.41,-97.6 393.38,-86.19 352.81,-78.78"/>
<polygon fill="#63b8ff" stroke="#63b8ff" points="353.44,-75.34 342.98,-77.06 352.23,-82.23 353.44,-75.34"/>
</a>
</g>
</g>
<!-- Node3 -->
<g id="Node000003" class="node">
<title>Node3</title>
<g id="a_Node000003"><a xlink:href="mqtt_2ControlPacket_8h.html" target="_top" xlink:title=" ">
<polygon fill="white" stroke="#666666" points="148.93,-134.25 14.43,-134.25 14.43,-113.5 148.93,-113.5 148.93,-134.25"/>
<text xml:space="preserve" text-anchor="middle" x="81.68" y="-120.75" font-family="Helvetica,sans-Serif" font-size="10.00">iot/mqtt/ControlPacket.h</text>
</a>
</g>
</g>
<!-- Node2&#45;&gt;Node3 -->
<g id="edge2_Node000002_Node000003" class="edge">
<title>Node2&#45;&gt;Node3</title>
<g id="a_edge2_Node000002_Node000003"><a xlink:title=" ">
<path fill="none" stroke="#63b8ff" d="M190.08,-169.84C169.34,-161.23 138.91,-148.61 115.57,-138.93"/>
<polygon fill="#63b8ff" stroke="#63b8ff" points="117.05,-135.76 106.47,-135.16 114.37,-142.22 117.05,-135.76"/>
</a>
</g>
</g>
<!-- Node4 -->
<g id="Node000004" class="node">
<title>Node4</title>
<g id="a_Node000004"><a xlink:href="mqtt_2Topic_8h.html" target="_top" xlink:title=" ">
<polygon fill="white" stroke="#666666" points="296.55,-134.25 204.8,-134.25 204.8,-113.5 296.55,-113.5 296.55,-134.25"/>
<text xml:space="preserve" text-anchor="middle" x="250.68" y="-120.75" font-family="Helvetica,sans-Serif" font-size="10.00">iot/mqtt/Topic.h</text>
</a>
</g>
</g>
<!-- Node2&#45;&gt;Node4 -->
<g id="edge3_Node000002_Node000004" class="edge">
<title>Node2&#45;&gt;Node4</title>
<g id="a_edge3_Node000002_Node000004"><a xlink:title=" ">
<path fill="none" stroke="#63b8ff" d="M220.29,-169.84C225.14,-162.67 231.86,-152.73 237.75,-144.01"/>
<polygon fill="#63b8ff" stroke="#63b8ff" points="240.58,-146.08 243.27,-135.83 234.78,-142.16 240.58,-146.08"/>
</a>
</g>
</g>
<!-- Node2&#45;&gt;Node5 -->
<g id="edge4_Node000002_Node000005" class="edge">
<title>Node2&#45;&gt;Node5</title>
<g id="a_edge4_Node000002_Node000005"><a xlink:title=" ">
<path fill="none" stroke="#63b8ff" d="M243,-169.84C269.39,-161.03 308.4,-148 337.65,-138.24"/>
<polygon fill="#63b8ff" stroke="#63b8ff" points="338.53,-141.64 346.9,-135.15 336.31,-135 338.53,-141.64"/>
</a>
</g>
</g>
<!-- Node2&#45;&gt;Node6 -->
<g id="edge7_Node000002_Node000006" class="edge">
<title>Node2&#45;&gt;Node6</title>
<g id="a_edge7_Node000002_Node000006"><a xlink:title=" ">
<path fill="none" stroke="#63b8ff" d="M206.7,-170.04C197.86,-156.6 184.97,-131.77 195.68,-113.5 203.88,-99.51 218.14,-89.51 232.43,-82.52"/>
<polygon fill="#63b8ff" stroke="#63b8ff" points="233.65,-85.81 241.37,-78.57 230.81,-79.41 233.65,-85.81"/>
</a>
</g>
</g>
<!-- Node8 -->
<g id="Node000008" class="node">
<title>Node8</title>
<g id="a_Node000008"><a xlink:href="UInt8_8h.html" target="_top" xlink:title=" ">
<polygon fill="white" stroke="#666666" points="171.3,-77.5 48.05,-77.5 48.05,-56.75 171.3,-56.75 171.3,-77.5"/>
<text xml:space="preserve" text-anchor="middle" x="109.68" y="-64" font-family="Helvetica,sans-Serif" font-size="10.00">iot/mqtt/types/UInt8.h</text>
</a>
</g>
</g>
<!-- Node2&#45;&gt;Node8 -->
<g id="edge8_Node000002_Node000008" class="edge">
<title>Node2&#45;&gt;Node8</title>
<g id="a_edge8_Node000002_Node000008"><a xlink:title=" ">
<path fill="none" stroke="#63b8ff" d="M135.92,-172.74C83.9,-166.33 22.08,-154.62 5.68,-134.25 -13.66,-110.24 21.72,-92.31 56.35,-81.22"/>
<polygon fill="#63b8ff" stroke="#63b8ff" points="57,-84.68 65.56,-78.44 54.98,-77.98 57,-84.68"/>
</a>
</g>
</g>
<!-- Node5&#45;&gt;Node6 -->
<g id="edge5_Node000005_Node000006" class="edge">
<title>Node5&#45;&gt;Node6</title>
<g id="a_edge5_Node000005_Node000006"><a xlink:title=" ">
<path fill="none" stroke="#63b8ff" d="M359.62,-113.09C344.26,-104.76 321.94,-92.66 304.32,-83.11"/>
<polygon fill="#63b8ff" stroke="#63b8ff" points="306.37,-80.24 295.91,-78.55 303.03,-86.39 306.37,-80.24"/>
</a>
</g>
</g>
<!-- Node7 -->
<g id="Node000007" class="node">
<title>Node7</title>
<g id="a_Node000007"><a xlink:href="mqtt_2types_2TypeBase_8h.html" target="_top" xlink:title=" ">
<polygon fill="white" stroke="#666666" points="253.43,-20.75 109.93,-20.75 109.93,0 253.43,0 253.43,-20.75"/>
<text xml:space="preserve" text-anchor="middle" x="181.68" y="-7.25" font-family="Helvetica,sans-Serif" font-size="10.00">iot/mqtt/types/TypeBase.h</text>
</a>
</g>
</g>
<!-- Node6&#45;&gt;Node7 -->
<g id="edge6_Node000006_Node000007" class="edge">
<title>Node6&#45;&gt;Node7</title>
<g id="a_edge6_Node000006_Node000007"><a xlink:title=" ">
<path fill="none" stroke="#63b8ff" d="M259.7,-56.34C245.38,-48.08 224.64,-36.13 208.14,-26.63"/>
<polygon fill="#63b8ff" stroke="#63b8ff" points="210.24,-23.8 199.83,-21.83 206.74,-29.86 210.24,-23.8"/>
</a>
</g>
</g>
<!-- Node8&#45;&gt;Node7 -->
<g id="edge9_Node000008_Node000007" class="edge">
<title>Node8&#45;&gt;Node7</title>
<g id="a_edge9_Node000008_Node000007"><a xlink:title=" ">
<path fill="none" stroke="#63b8ff" d="M122.55,-56.34C132.89,-48.47 147.65,-37.25 159.83,-27.99"/>
<polygon fill="#63b8ff" stroke="#63b8ff" points="161.87,-30.83 167.71,-21.99 157.64,-25.26 161.87,-30.83"/>
</a>
</g>
</g>
</g>
</svg>
</svg>

<style type='text/css'>
<![CDATA[
[data-mouse-over-selected='false'] { opacity: 0.7; }
[data-mouse-over-selected='true']  { opacity: 1.0; }
]]>
</style>
<script type="application/ecmascript"><![CDATA[
document.addEventListener('DOMContentLoaded', (event) => {
  highlightEdges();
  highlightAdjacentNodes();
});
]]></script>
</svg>
