<?xml version="1.0" encoding="UTF-8" standalone="no"?>
<!DOCTYPE svg PUBLIC "-//W3C//DTD SVG 1.1//EN"
 "http://www.w3.org/Graphics/SVG/1.1/DTD/svg11.dtd">
<!-- Generated by graphviz version 2.43.0 (0)
 -->
<!-- Title: iot/mqtt/packets/Disconnect.h Pages: 1 -->
<svg width="554pt" height="159pt"
 viewBox="0.00 0.00 553.50 159.00" xmlns="http://www.w3.org/2000/svg" xmlns:xlink="http://www.w3.org/1999/xlink">
<g id="graph0" class="graph" transform="scale(1 1) rotate(0) translate(4 155)">
<title>iot/mqtt/packets/Disconnect.h</title>
<!-- Node1 -->
<g id="Node000001" class="node">
<title>Node1</title>
<g id="a_Node000001"><a xlink:title=" ">
<polygon fill="#999999" stroke="#666666" points="316.5,-151 154.5,-151 154.5,-132 316.5,-132 316.5,-151"/>
<text text-anchor="middle" x="235.5" y="-139" font-family="Helvetica,sans-Serif" font-size="10.00">iot/mqtt/packets/Disconnect.h</text>
</a>
</g>
</g>
<!-- Node2 -->
<g id="Node000002" class="node">
<title>Node2</title>
<g id="a_Node000002"><a xlink:href="client_2Mqtt_8cpp.html" target="_top" xlink:title=" ">
<polygon fill="white" stroke="#666666" points="131,-90.5 0,-90.5 0,-71.5 131,-71.5 131,-90.5"/>
<text text-anchor="middle" x="65.5" y="-78.5" font-family="Helvetica,sans-Serif" font-size="10.00">iot/mqtt/client/Mqtt.cpp</text>
</a>
</g>
</g>
<!-- Node1&#45;&gt;Node2 -->
<g id="edge1_Node000001_Node000002" class="edge">
<title>Node1&#45;&gt;Node2</title>
<g id="a_edge1_Node000001_Node000002"><a xlink:title=" ">
<path fill="none" stroke="#63b8ff" d="M201.13,-128.67C168.25,-117.36 119.47,-100.57 90.25,-90.52"/>
<polygon fill="#63b8ff" stroke="#63b8ff" points="200.19,-132.05 210.78,-131.99 202.46,-125.43 200.19,-132.05"/>
</a>
</g>
</g>
<!-- Node3 -->
<g id="Node000003" class="node">
<title>Node3</title>
<g id="a_Node000003"><a xlink:href="mqtt_2packets_2Disconnect_8cpp.html" target="_top" xlink:title=" ">
<polygon fill="white" stroke="#666666" points="322,-90.5 149,-90.5 149,-71.5 322,-71.5 322,-90.5"/>
<text text-anchor="middle" x="235.5" y="-78.5" font-family="Helvetica,sans-Serif" font-size="10.00">iot/mqtt/packets/Disconnect.cpp</text>
</a>
</g>
</g>
<!-- Node1&#45;&gt;Node3 -->
<g id="edge2_Node000001_Node000003" class="edge">
<title>Node1&#45;&gt;Node3</title>
<g id="a_edge2_Node000001_Node000003"><a xlink:title=" ">
<path fill="none" stroke="#63b8ff" d="M235.5,-121.66C235.5,-111.24 235.5,-98.8 235.5,-90.67"/>
<polygon fill="#63b8ff" stroke="#63b8ff" points="232,-121.87 235.5,-131.87 239,-121.87 232,-121.87"/>
</a>
</g>
</g>
<!-- Node4 -->
<g id="Node000004" class="node">
<title>Node4</title>
<g id="a_Node000004"><a xlink:href="mqtt_2server_2packets_2Disconnect_8h.html" target="_top" xlink:title=" ">
<polygon fill="white" stroke="#666666" points="470.5,-96 340.5,-96 340.5,-66 470.5,-66 470.5,-96"/>
<text text-anchor="start" x="348.5" y="-84" font-family="Helvetica,sans-Serif" font-size="10.00">iot/mqtt/server/packets</text>
<text text-anchor="middle" x="405.5" y="-73" font-family="Helvetica,sans-Serif" font-size="10.00">/Disconnect.h</text>
</a>
</g>
</g>
<!-- Node1&#45;&gt;Node4 -->
<g id="edge3_Node000001_Node000004" class="edge">
<title>Node1&#45;&gt;Node4</title>
<g id="a_edge3_Node000001_Node000004"><a xlink:title=" ">
<path fill="none" stroke="#63b8ff" d="M269.77,-128.71C297.16,-119.28 335.64,-106.04 364.63,-96.06"/>
<polygon fill="#63b8ff" stroke="#63b8ff" points="268.54,-125.43 260.22,-131.99 270.81,-132.05 268.54,-125.43"/>
</a>
</g>
</g>
<!-- Node5 -->
<g id="Node000005" class="node">
<title>Node5</title>
<g id="a_Node000005"><a xlink:href="server_2Mqtt_8cpp.html" target="_top" xlink:title=" ">
<polygon fill="white" stroke="#666666" points="397,-24.5 262,-24.5 262,-5.5 397,-5.5 397,-24.5"/>
<text text-anchor="middle" x="329.5" y="-12.5" font-family="Helvetica,sans-Serif" font-size="10.00">iot/mqtt/server/Mqtt.cpp</text>
</a>
</g>
</g>
<!-- Node4&#45;&gt;Node5 -->
<g id="edge4_Node000004_Node000005" class="edge">
<title>Node4&#45;&gt;Node5</title>
<g id="a_edge4_Node000004_Node000005"><a xlink:title=" ">
<path fill="none" stroke="#63b8ff" d="M380.87,-59.26C367.04,-47.61 350.51,-33.69 340,-24.84"/>
<polygon fill="#63b8ff" stroke="#63b8ff" points="378.73,-62.03 388.63,-65.8 383.24,-56.68 378.73,-62.03"/>
</a>
</g>
</g>
<!-- Node6 -->
<g id="Node000006" class="node">
<title>Node6</title>
<g id="a_Node000006"><a xlink:href="mqtt_2server_2packets_2Disconnect_8cpp.html" target="_top" xlink:title=" ">
<polygon fill="white" stroke="#666666" points="545.5,-30 415.5,-30 415.5,0 545.5,0 545.5,-30"/>
<text text-anchor="start" x="423.5" y="-18" font-family="Helvetica,sans-Serif" font-size="10.00">iot/mqtt/server/packets</text>
<text text-anchor="middle" x="480.5" y="-7" font-family="Helvetica,sans-Serif" font-size="10.00">/Disconnect.cpp</text>
</a>
</g>
</g>
<!-- Node4&#45;&gt;Node6 -->
<g id="edge5_Node000004_Node000006" class="edge">
<title>Node4&#45;&gt;Node6</title>
<g id="a_edge5_Node000004_Node000006"><a xlink:title=" ">
<path fill="none" stroke="#63b8ff" d="M429.87,-59.2C441.01,-49.7 453.91,-38.69 463.9,-30.16"/>
<polygon fill="#63b8ff" stroke="#63b8ff" points="427.48,-56.64 422.14,-65.8 432.02,-61.97 427.48,-56.64"/>
</a>
</g>
</g>
</g>
</svg>
