<?xml version="1.0" encoding="UTF-8" standalone="no"?>
<!DOCTYPE svg PUBLIC "-//W3C//DTD SVG 1.1//EN"
 "http://www.w3.org/Graphics/SVG/1.1/DTD/svg11.dtd">
<!-- Generated by graphviz version 14.1.2 (0)
 -->
<!-- Title: express::legacy::in::Server Pages: 1 -->
<svg width="1672pt" height="416pt"
 viewBox="0.00 0.00 1672.00 416.00" xmlns="http://www.w3.org/2000/svg" xmlns:xlink="http://www.w3.org/1999/xlink">
<g id="graph0" class="graph" transform="scale(1 1) rotate(0) translate(4 411.5)">
<title>express::legacy::in::Server</title>
<!-- Node1 -->
<g id="Node000001" class="node">
<title>Node1</title>
<g id="a_Node000001"><a xlink:title=" ">
<polygon fill="#999999" stroke="#666666" points="106.75,-301.5 0,-301.5 0,-268 106.75,-268 106.75,-301.5"/>
<text xml:space="preserve" text-anchor="start" x="8" y="-288" font-family="Helvetica,sans-Serif" font-size="10.00">express::legacy::in</text>
<text xml:space="preserve" text-anchor="middle" x="53.38" y="-275.25" font-family="Helvetica,sans-Serif" font-size="10.00">::Server</text>
</a>
</g>
</g>
<!-- Node2 -->
<g id="Node000002" class="node">
<title>Node2</title>
<g id="a_Node000002"><a xlink:href="classexpress_1_1Router.html#ae7ad7fb1a5d240f338865485e7b04070" target="_top" xlink:title=" ">
<polygon fill="white" stroke="#666666" points="273.5,-318.12 142.75,-318.12 142.75,-297.38 273.5,-297.38 273.5,-318.12"/>
<text xml:space="preserve" text-anchor="middle" x="208.12" y="-304.62" font-family="Helvetica,sans-Serif" font-size="10.00">express::Router::Router</text>
</a>
</g>
</g>
<!-- Node1&#45;&gt;Node2 -->
<g id="edge1_Node000001_Node000002" class="edge">
<title>Node1&#45;&gt;Node2</title>
<g id="a_edge1_Node000001_Node000002"><a xlink:title=" ">
<path fill="none" stroke="#63b8ff" d="M106.94,-292.67C114.77,-293.84 122.98,-295.08 131.17,-296.31"/>
<polygon fill="#63b8ff" stroke="#63b8ff" points="130.4,-299.74 140.81,-297.77 131.45,-292.82 130.4,-299.74"/>
</a>
</g>
</g>
<!-- Node3 -->
<g id="Node000003" class="node">
<title>Node3</title>
<g id="a_Node000003"><a xlink:href="namespaceexpress_1_1legacy_1_1in.html#af0dee274b3e220c4d65670ca07a1f326" target="_top" xlink:title=" ">
<polygon fill="white" stroke="#666666" points="261.5,-279.5 154.75,-279.5 154.75,-246 261.5,-246 261.5,-279.5"/>
<text xml:space="preserve" text-anchor="start" x="162.75" y="-266" font-family="Helvetica,sans-Serif" font-size="10.00">express::legacy::in</text>
<text xml:space="preserve" text-anchor="middle" x="208.12" y="-253.25" font-family="Helvetica,sans-Serif" font-size="10.00">::Server</text>
</a>
</g>
</g>
<!-- Node1&#45;&gt;Node3 -->
<g id="edge2_Node000001_Node000003" class="edge">
<title>Node1&#45;&gt;Node3</title>
<g id="a_edge2_Node000001_Node000003"><a xlink:title=" ">
<path fill="none" stroke="#63b8ff" d="M106.94,-277.18C118.58,-275.5 131.04,-273.71 143.09,-271.97"/>
<polygon fill="#63b8ff" stroke="#63b8ff" points="143.56,-275.44 152.96,-270.55 142.57,-268.51 143.56,-275.44"/>
</a>
</g>
</g>
<!-- Node4 -->
<g id="Node000004" class="node">
<title>Node4</title>
<g id="a_Node000004"><a xlink:href="namespaceexpress_1_1legacy_1_1in.html#a0e24c48e0e1eeb739c1529e1f8b10e1a" target="_top" xlink:title=" ">
<polygon fill="white" stroke="#666666" points="416.25,-279.5 309.5,-279.5 309.5,-246 416.25,-246 416.25,-279.5"/>
<text xml:space="preserve" text-anchor="start" x="317.5" y="-266" font-family="Helvetica,sans-Serif" font-size="10.00">express::legacy::in</text>
<text xml:space="preserve" text-anchor="middle" x="362.88" y="-253.25" font-family="Helvetica,sans-Serif" font-size="10.00">::Server</text>
</a>
</g>
</g>
<!-- Node3&#45;&gt;Node4 -->
<g id="edge3_Node000003_Node000004" class="edge">
<title>Node3&#45;&gt;Node4</title>
<g id="a_edge3_Node000003_Node000004"><a xlink:title=" ">
<path fill="none" stroke="#63b8ff" d="M261.69,-262.75C273.33,-262.75 285.79,-262.75 297.84,-262.75"/>
<polygon fill="#63b8ff" stroke="#63b8ff" points="297.7,-266.25 307.7,-262.75 297.7,-259.25 297.7,-266.25"/>
</a>
</g>
</g>
<!-- Node5 -->
<g id="Node000005" class="node">
<title>Node5</title>
<g id="a_Node000005"><a xlink:href="classcore_1_1socket_1_1Socket.html#ac9b7df3682b2a24b5c7fce9bcff1c441" target="_top" xlink:title=" ">
<polygon fill="white" stroke="#666666" points="587.88,-407.5 475.12,-407.5 475.12,-374 587.88,-374 587.88,-407.5"/>
<text xml:space="preserve" text-anchor="start" x="483.12" y="-394" font-family="Helvetica,sans-Serif" font-size="10.00">core::socket::Socket</text>
<text xml:space="preserve" text-anchor="middle" x="531.5" y="-381.25" font-family="Helvetica,sans-Serif" font-size="10.00">::getConfig</text>
</a>
</g>
</g>
<!-- Node4&#45;&gt;Node5 -->
<g id="edge4_Node000004_Node000005" class="edge">
<title>Node4&#45;&gt;Node5</title>
<g id="a_edge4_Node000004_Node000005"><a xlink:title=" ">
<path fill="none" stroke="#63b8ff" d="M374.33,-279.7C389.05,-302.22 417.96,-341.85 452.25,-364.75 456.13,-367.34 460.3,-369.7 464.61,-371.83"/>
<polygon fill="#63b8ff" stroke="#63b8ff" points="462.93,-374.92 473.49,-375.81 465.79,-368.53 462.93,-374.92"/>
</a>
</g>
</g>
<!-- Node6 -->
<g id="Node000006" class="node">
<title>Node6</title>
<g id="a_Node000006"><a xlink:href="classexpress_1_1Router.html#ac3107c8acf16cdccc5adb23623fda8c9" target="_top" xlink:title=" ">
<polygon fill="white" stroke="#666666" points="605.5,-356.12 457.5,-356.12 457.5,-335.38 605.5,-335.38 605.5,-356.12"/>
<text xml:space="preserve" text-anchor="middle" x="531.5" y="-342.62" font-family="Helvetica,sans-Serif" font-size="10.00">express::Router::getRoutes</text>
</a>
</g>
</g>
<!-- Node4&#45;&gt;Node6 -->
<g id="edge5_Node000004_Node000006" class="edge">
<title>Node4&#45;&gt;Node6</title>
<g id="a_edge5_Node000004_Node000006"><a xlink:title=" ">
<path fill="none" stroke="#63b8ff" d="M385.68,-279.94C402.94,-292.88 428.08,-310.28 452.25,-321.75 459.93,-325.39 468.29,-328.64 476.59,-331.49"/>
<polygon fill="#63b8ff" stroke="#63b8ff" points="475.38,-334.77 485.97,-334.52 477.54,-328.11 475.38,-334.77"/>
</a>
</g>
</g>
<!-- Node12 -->
<g id="Node000012" class="node">
<title>Node12</title>
<g id="a_Node000012"><a xlink:href="classcore_1_1socket_1_1stream_1_1SocketServer.html#a9a713f1b302ec01e28621b606af23e4c" target="_top" xlink:title=" ">
<polygon fill="white" stroke="#666666" points="590.88,-279.5 472.12,-279.5 472.12,-246 590.88,-246 590.88,-279.5"/>
<text xml:space="preserve" text-anchor="start" x="480.12" y="-266" font-family="Helvetica,sans-Serif" font-size="10.00">core::socket::stream</text>
<text xml:space="preserve" text-anchor="middle" x="531.5" y="-253.25" font-family="Helvetica,sans-Serif" font-size="10.00">::SocketServer::listen</text>
</a>
</g>
</g>
<!-- Node4&#45;&gt;Node12 -->
<g id="edge11_Node000004_Node000012" class="edge">
<title>Node4&#45;&gt;Node12</title>
<g id="a_edge11_Node000004_Node000012"><a xlink:title=" ">
<path fill="none" stroke="#63b8ff" d="M416.6,-262.75C430.58,-262.75 445.89,-262.75 460.63,-262.75"/>
<polygon fill="#63b8ff" stroke="#63b8ff" points="460.24,-266.25 470.24,-262.75 460.24,-259.25 460.24,-266.25"/>
</a>
</g>
</g>
<!-- Node24 -->
<g id="Node000024" class="node">
<title>Node24</title>
<g id="a_Node000024"><a xlink:href="classlogger_1_1LogMessage.html#a089741bbcda92449732c3e105088059e" target="_top" xlink:title=" ">
<polygon fill="white" stroke="#666666" points="951.75,-324.5 838.25,-324.5 838.25,-291 951.75,-291 951.75,-324.5"/>
<text xml:space="preserve" text-anchor="start" x="846.25" y="-311" font-family="Helvetica,sans-Serif" font-size="10.00">logger::LogMessage</text>
<text xml:space="preserve" text-anchor="middle" x="895" y="-298.25" font-family="Helvetica,sans-Serif" font-size="10.00">::LogMessage</text>
</a>
</g>
</g>
<!-- Node4&#45;&gt;Node24 -->
<g id="edge31_Node000004_Node000024" class="edge">
<title>Node4&#45;&gt;Node24</title>
<g id="a_edge31_Node000004_Node000024"><a xlink:title=" ">
<path fill="none" stroke="#63b8ff" d="M414.32,-279.88C426.6,-283.41 439.79,-286.68 452.25,-288.75 583.43,-310.53 739.34,-311.54 826.45,-309.91"/>
<polygon fill="#63b8ff" stroke="#63b8ff" points="826.32,-313.41 836.25,-309.71 826.18,-306.41 826.32,-313.41"/>
</a>
</g>
</g>
<!-- Node31 -->
<g id="Node000031" class="node">
<title>Node31</title>
<g id="a_Node000031"><a xlink:href="classnet_1_1in_1_1SocketAddress.html#af1acaf76ab09ffe9f4f23d39cc56d7f3" target="_top" xlink:title=" ">
<polygon fill="white" stroke="#666666" points="593.5,-227.5 469.5,-227.5 469.5,-194 593.5,-194 593.5,-227.5"/>
<text xml:space="preserve" text-anchor="start" x="477.5" y="-214" font-family="Helvetica,sans-Serif" font-size="10.00">net::in::SocketAddress</text>
<text xml:space="preserve" text-anchor="middle" x="531.5" y="-201.25" font-family="Helvetica,sans-Serif" font-size="10.00">::toString</text>
</a>
</g>
</g>
<!-- Node4&#45;&gt;Node31 -->
<g id="edge32_Node000004_Node000031" class="edge">
<title>Node4&#45;&gt;Node31</title>
<g id="a_edge32_Node000004_Node000031"><a xlink:title=" ">
<path fill="none" stroke="#63b8ff" d="M416.6,-246.3C431.78,-241.56 448.54,-236.33 464.42,-231.37"/>
<polygon fill="#63b8ff" stroke="#63b8ff" points="465.3,-234.76 473.8,-228.44 463.21,-228.08 465.3,-234.76"/>
</a>
</g>
</g>
<!-- Node32 -->
<g id="Node000032" class="node">
<title>Node32</title>
<g id="a_Node000032"><a xlink:href="classexpress_1_1WebAppT.html#a4c662b444a547c8bb9ba4f959d3362ac" target="_top" xlink:title=" ">
<polygon fill="white" stroke="#666666" points="610.75,-176.12 452.25,-176.12 452.25,-155.38 610.75,-155.38 610.75,-176.12"/>
<text xml:space="preserve" text-anchor="middle" x="531.5" y="-162.62" font-family="Helvetica,sans-Serif" font-size="10.00">express::WebAppT::WebAppT</text>
</a>
</g>
</g>
<!-- Node4&#45;&gt;Node32 -->
<g id="edge33_Node000004_Node000032" class="edge">
<title>Node4&#45;&gt;Node32</title>
<g id="a_edge33_Node000004_Node000032"><a xlink:title=" ">
<path fill="none" stroke="#63b8ff" d="M378.38,-245.78C394.59,-227.91 422.49,-200.27 452.25,-184.75 455.16,-183.24 458.18,-181.84 461.29,-180.55"/>
<polygon fill="#63b8ff" stroke="#63b8ff" points="462.48,-183.84 470.66,-177.1 460.06,-177.27 462.48,-183.84"/>
</a>
</g>
</g>
<!-- Node33 -->
<g id="Node000033" class="node">
<title>Node33</title>
<g id="a_Node000033"><a xlink:href="classcore_1_1socket_1_1State.html#a55b6abd55034b331fae4c9e085007dfa" target="_top" xlink:title=" ">
<polygon fill="white" stroke="#666666" points="584.5,-137.5 478.5,-137.5 478.5,-104 584.5,-104 584.5,-137.5"/>
<text xml:space="preserve" text-anchor="start" x="486.5" y="-124" font-family="Helvetica,sans-Serif" font-size="10.00">core::socket::State</text>
<text xml:space="preserve" text-anchor="middle" x="531.5" y="-111.25" font-family="Helvetica,sans-Serif" font-size="10.00">::what</text>
</a>
</g>
</g>
<!-- Node4&#45;&gt;Node33 -->
<g id="edge34_Node000004_Node000033" class="edge">
<title>Node4&#45;&gt;Node33</title>
<g id="a_edge34_Node000004_Node000033"><a xlink:title=" ">
<path fill="none" stroke="#63b8ff" d="M372.58,-245.57C386.22,-220.34 414.96,-173.39 452.25,-146.75 457.13,-143.27 462.5,-140.23 468.08,-137.58"/>
<polygon fill="#63b8ff" stroke="#63b8ff" points="469.07,-140.96 476.89,-133.82 466.32,-134.52 469.07,-140.96"/>
</a>
</g>
</g>
<!-- Node7 -->
<g id="Node000007" class="node">
<title>Node7</title>
<g id="a_Node000007"><a xlink:href="classexpress_1_1RootRoute.html#a79b53a07452e053898fbd0ccb17ead8a" target="_top" xlink:title=" ">
<polygon fill="white" stroke="#666666" points="772.25,-375.5 661,-375.5 661,-342 772.25,-342 772.25,-375.5"/>
<text xml:space="preserve" text-anchor="start" x="669" y="-362" font-family="Helvetica,sans-Serif" font-size="10.00">express::RootRoute</text>
<text xml:space="preserve" text-anchor="middle" x="716.62" y="-349.25" font-family="Helvetica,sans-Serif" font-size="10.00">::getRoutes</text>
</a>
</g>
</g>
<!-- Node6&#45;&gt;Node7 -->
<g id="edge6_Node000006_Node000007" class="edge">
<title>Node6&#45;&gt;Node7</title>
<g id="a_edge6_Node000006_Node000007"><a xlink:title=" ">
<path fill="none" stroke="#63b8ff" d="M605.93,-350.96C620.3,-351.98 635.29,-353.05 649.4,-354.05"/>
<polygon fill="#63b8ff" stroke="#63b8ff" points="648.78,-357.51 659,-354.73 649.27,-350.53 648.78,-357.51"/>
</a>
</g>
</g>
<!-- Node8 -->
<g id="Node000008" class="node">
<title>Node8</title>
<g id="a_Node000008"><a xlink:href="classexpress_1_1dispatcher_1_1RouterDispatcher.html#a7c837fd8f7e105a2b034de81e74289d2" target="_top" xlink:title=" ">
<polygon fill="white" stroke="#666666" points="951.38,-388.88 838.62,-388.88 838.62,-342.62 951.38,-342.62 951.38,-388.88"/>
<text xml:space="preserve" text-anchor="start" x="846.62" y="-375.38" font-family="Helvetica,sans-Serif" font-size="10.00">express::dispatcher</text>
<text xml:space="preserve" text-anchor="start" x="846.62" y="-362.62" font-family="Helvetica,sans-Serif" font-size="10.00">::RouterDispatcher::</text>
<text xml:space="preserve" text-anchor="middle" x="895" y="-349.88" font-family="Helvetica,sans-Serif" font-size="10.00">getRoutes</text>
</a>
</g>
</g>
<!-- Node7&#45;&gt;Node8 -->
<g id="edge7_Node000007_Node000008" class="edge">
<title>Node7&#45;&gt;Node8</title>
<g id="a_edge7_Node000007_Node000008"><a xlink:title=" ">
<path fill="none" stroke="#63b8ff" d="M772.46,-360.93C789.72,-361.61 808.97,-362.38 826.97,-363.09"/>
<polygon fill="#63b8ff" stroke="#63b8ff" points="826.64,-366.58 836.77,-363.48 826.92,-359.58 826.64,-366.58"/>
</a>
</g>
</g>
<!-- Node9 -->
<g id="Node000009" class="node">
<title>Node9</title>
<g id="a_Node000009"><a xlink:href="classexpress_1_1dispatcher_1_1RouterDispatcher.html#a307182bc588db8d70172911c5ad2a3ea" target="_top" xlink:title=" ">
<polygon fill="white" stroke="#666666" points="1131.62,-388.88 1018.88,-388.88 1018.88,-342.62 1131.62,-342.62 1131.62,-388.88"/>
<text xml:space="preserve" text-anchor="start" x="1026.88" y="-375.38" font-family="Helvetica,sans-Serif" font-size="10.00">express::dispatcher</text>
<text xml:space="preserve" text-anchor="start" x="1026.88" y="-362.62" font-family="Helvetica,sans-Serif" font-size="10.00">::RouterDispatcher::</text>
<text xml:space="preserve" text-anchor="middle" x="1075.25" y="-349.88" font-family="Helvetica,sans-Serif" font-size="10.00">getRoutes</text>
</a>
</g>
</g>
<!-- Node8&#45;&gt;Node9 -->
<g id="edge8_Node000008_Node000009" class="edge">
<title>Node8&#45;&gt;Node9</title>
<g id="a_edge8_Node000008_Node000009"><a xlink:title=" ">
<path fill="none" stroke="#63b8ff" d="M951.42,-365.75C969.11,-365.75 988.88,-365.75 1007.29,-365.75"/>
<polygon fill="#63b8ff" stroke="#63b8ff" points="1007.04,-369.25 1017.04,-365.75 1007.04,-362.25 1007.04,-369.25"/>
</a>
</g>
</g>
<!-- Node10 -->
<g id="Node000010" class="node">
<title>Node10</title>
<g id="a_Node000010"><a xlink:href="classexpress_1_1Route.html#abb8e6506433479e5bd42250aa6262655" target="_top" xlink:title=" ">
<polygon fill="white" stroke="#666666" points="1322,-376.12 1183,-376.12 1183,-355.38 1322,-355.38 1322,-376.12"/>
<text xml:space="preserve" text-anchor="middle" x="1252.5" y="-362.62" font-family="Helvetica,sans-Serif" font-size="10.00">express::Route::getRoute</text>
</a>
</g>
</g>
<!-- Node9&#45;&gt;Node10 -->
<g id="edge9_Node000009_Node000010" class="edge">
<title>Node9&#45;&gt;Node10</title>
<g id="a_edge9_Node000009_Node000010"><a xlink:title=" ">
<path fill="none" stroke="#63b8ff" d="M1131.7,-365.75C1144.31,-365.75 1157.96,-365.75 1171.37,-365.75"/>
<polygon fill="#63b8ff" stroke="#63b8ff" points="1171.04,-369.25 1181.04,-365.75 1171.04,-362.25 1171.04,-369.25"/>
</a>
</g>
</g>
<!-- Node11 -->
<g id="Node000011" class="node">
<title>Node11</title>
<g id="a_Node000011"><a xlink:href="classexpress_1_1Dispatcher.html#ae5699cd0fe73fdfd59325d570601cdc5" target="_top" xlink:title=" ">
<polygon fill="white" stroke="#666666" points="1486.12,-382.5 1373.38,-382.5 1373.38,-349 1486.12,-349 1486.12,-382.5"/>
<text xml:space="preserve" text-anchor="start" x="1381.38" y="-369" font-family="Helvetica,sans-Serif" font-size="10.00">express::Dispatcher</text>
<text xml:space="preserve" text-anchor="middle" x="1429.75" y="-356.25" font-family="Helvetica,sans-Serif" font-size="10.00">::getRoutes</text>
</a>
</g>
</g>
<!-- Node10&#45;&gt;Node11 -->
<g id="edge10_Node000010_Node000011" class="edge">
<title>Node10&#45;&gt;Node11</title>
<g id="a_edge10_Node000010_Node000011"><a xlink:title=" ">
<path fill="none" stroke="#63b8ff" d="M1322.26,-365.75C1335.24,-365.75 1348.8,-365.75 1361.72,-365.75"/>
<polygon fill="#63b8ff" stroke="#63b8ff" points="1361.38,-369.25 1371.38,-365.75 1361.38,-362.25 1361.38,-369.25"/>
</a>
</g>
</g>
<!-- Node13 -->
<g id="Node000013" class="node">
<title>Node13</title>
<g id="a_Node000013"><a xlink:href="classcore_1_1socket_1_1stream_1_1SocketServer.html#a64020939e9a94e44979be4ac244bd063" target="_top" xlink:title=" ">
<polygon fill="white" stroke="#666666" points="786.5,-205.5 646.75,-205.5 646.75,-172 786.5,-172 786.5,-205.5"/>
<text xml:space="preserve" text-anchor="start" x="654.75" y="-192" font-family="Helvetica,sans-Serif" font-size="10.00">core::socket::stream</text>
<text xml:space="preserve" text-anchor="middle" x="716.62" y="-179.25" font-family="Helvetica,sans-Serif" font-size="10.00">::SocketServer::realListen</text>
</a>
</g>
</g>
<!-- Node12&#45;&gt;Node13 -->
<g id="edge12_Node000012_Node000013" class="edge">
<title>Node12&#45;&gt;Node13</title>
<g id="a_edge12_Node000012_Node000013"><a xlink:title=" ">
<path fill="none" stroke="#63b8ff" d="M586.66,-245.61C594.78,-242.79 603.02,-239.79 610.75,-236.75 630.53,-228.96 651.94,-219.38 670.23,-210.83"/>
<polygon fill="#63b8ff" stroke="#63b8ff" points="671.68,-214.01 679.23,-206.58 668.69,-207.68 671.68,-214.01"/>
</a>
</g>
</g>
<!-- Node13&#45;&gt;Node13 -->
<g id="edge28_Node000013_Node000013" class="edge">
<title>Node13&#45;&gt;Node13</title>
<g id="a_edge28_Node000013_Node000013"><a xlink:title=" ">
<path fill="none" stroke="#63b8ff" d="M684.56,-205.91C679.11,-215.12 689.8,-223.5 716.62,-223.5 731.71,-223.5 741.7,-220.85 746.58,-216.89"/>
<polygon fill="#63b8ff" stroke="#63b8ff" points="749.95,-217.88 748.4,-207.4 743.08,-216.56 749.95,-217.88"/>
</a>
</g>
</g>
<!-- Node14 -->
<g id="Node000014" class="node">
<title>Node14</title>
<g id="a_Node000014"><a xlink:href="classcore_1_1EventReceiver.html#a2e8d915eca53e827be4f493a63ae058d" target="_top" xlink:title=" ">
<polygon fill="white" stroke="#666666" points="951.75,-272.5 838.25,-272.5 838.25,-239 951.75,-239 951.75,-272.5"/>
<text xml:space="preserve" text-anchor="start" x="846.25" y="-259" font-family="Helvetica,sans-Serif" font-size="10.00">core::EventReceiver</text>
<text xml:space="preserve" text-anchor="middle" x="895" y="-246.25" font-family="Helvetica,sans-Serif" font-size="10.00">::atNextTick</text>
</a>
</g>
</g>
<!-- Node13&#45;&gt;Node14 -->
<g id="edge13_Node000013_Node000014" class="edge">
<title>Node13&#45;&gt;Node14</title>
<g id="a_edge13_Node000013_Node000014"><a xlink:title=" ">
<path fill="none" stroke="#63b8ff" d="M760.91,-205.94C779.78,-213.37 802.2,-222.09 822.5,-229.75 826.81,-231.38 831.27,-233.04 835.77,-234.71"/>
<polygon fill="#63b8ff" stroke="#63b8ff" points="834.24,-237.87 844.83,-238.04 836.66,-231.3 834.24,-237.87"/>
</a>
</g>
</g>
<!-- Node23 -->
<g id="Node000023" class="node">
<title>Node23</title>
<g id="a_Node000023"><a xlink:href="classutils_1_1Random.html#a9d15c0e2c11092d1e9cebabc0057d5bb" target="_top" xlink:title=" ">
<polygon fill="white" stroke="#666666" points="967.5,-221.12 822.5,-221.12 822.5,-200.38 967.5,-200.38 967.5,-221.12"/>
<text xml:space="preserve" text-anchor="middle" x="895" y="-207.62" font-family="Helvetica,sans-Serif" font-size="10.00">utils::Random::getInRange</text>
</a>
</g>
</g>
<!-- Node13&#45;&gt;Node23 -->
<g id="edge22_Node000013_Node000023" class="edge">
<title>Node13&#45;&gt;Node23</title>
<g id="a_edge22_Node000013_Node000023"><a xlink:title=" ">
<path fill="none" stroke="#63b8ff" d="M786.83,-197.38C794.7,-198.36 802.78,-199.37 810.81,-200.37"/>
<polygon fill="#63b8ff" stroke="#63b8ff" points="810.24,-203.83 820.59,-201.59 811.1,-196.88 810.24,-203.83"/>
</a>
</g>
</g>
<!-- Node13&#45;&gt;Node24 -->
<g id="edge23_Node000013_Node000024" class="edge">
<title>Node13&#45;&gt;Node24</title>
<g id="a_edge23_Node000013_Node000024"><a xlink:title=" ">
<path fill="none" stroke="#63b8ff" d="M732.81,-205.66C751.96,-226.12 786.75,-260.46 822.5,-281.75 824.8,-283.12 827.18,-284.43 829.62,-285.69"/>
<polygon fill="#63b8ff" stroke="#63b8ff" points="827.99,-288.79 838.52,-289.92 830.99,-282.47 827.99,-288.79"/>
</a>
</g>
</g>
<!-- Node25 -->
<g id="Node000025" class="node">
<title>Node25</title>
<g id="a_Node000025"><a xlink:href="classcore_1_1socket_1_1State.html#a2c16c3c8d05a7e85c99baa78a658d17a" target="_top" xlink:title=" ">
<polygon fill="white" stroke="#666666" points="948,-182.5 842,-182.5 842,-149 948,-149 948,-182.5"/>
<text xml:space="preserve" text-anchor="start" x="850" y="-169" font-family="Helvetica,sans-Serif" font-size="10.00">core::socket::State</text>
<text xml:space="preserve" text-anchor="middle" x="895" y="-156.25" font-family="Helvetica,sans-Serif" font-size="10.00">::operator&amp;</text>
</a>
</g>
</g>
<!-- Node13&#45;&gt;Node25 -->
<g id="edge24_Node000013_Node000025" class="edge">
<title>Node13&#45;&gt;Node25</title>
<g id="a_edge24_Node000013_Node000025"><a xlink:title=" ">
<path fill="none" stroke="#63b8ff" d="M786.83,-179.73C801.22,-177.85 816.32,-175.88 830.5,-174.03"/>
<polygon fill="#63b8ff" stroke="#63b8ff" points="830.67,-177.54 840.13,-172.77 829.77,-170.6 830.67,-177.54"/>
</a>
</g>
</g>
<!-- Node27 -->
<g id="Node000027" class="node">
<title>Node27</title>
<g id="a_Node000027"><a xlink:href="classcore_1_1socket_1_1State.html#a17374479f229f1cca06b73f3ed2bce73" target="_top" xlink:title=" ">
<polygon fill="white" stroke="#666666" points="948,-130.5 842,-130.5 842,-97 948,-97 948,-130.5"/>
<text xml:space="preserve" text-anchor="start" x="850" y="-117" font-family="Helvetica,sans-Serif" font-size="10.00">core::socket::State</text>
<text xml:space="preserve" text-anchor="middle" x="895" y="-104.25" font-family="Helvetica,sans-Serif" font-size="10.00">::operator&amp;=</text>
</a>
</g>
</g>
<!-- Node13&#45;&gt;Node27 -->
<g id="edge26_Node000013_Node000027" class="edge">
<title>Node13&#45;&gt;Node27</title>
<g id="a_edge26_Node000013_Node000027"><a xlink:title=" ">
<path fill="none" stroke="#63b8ff" d="M752.24,-171.64C772.52,-161.85 798.74,-149.6 822.5,-139.75 826.32,-138.16 830.28,-136.58 834.29,-135.01"/>
<polygon fill="#63b8ff" stroke="#63b8ff" points="835.43,-138.33 843.52,-131.48 832.93,-131.79 835.43,-138.33"/>
</a>
</g>
</g>
<!-- Node28 -->
<g id="Node000028" class="node">
<title>Node28</title>
<g id="a_Node000028"><a xlink:href="classcore_1_1socket_1_1State.html#a2b42b2e3d02b693c52348700ceab379b" target="_top" xlink:title=" ">
<polygon fill="white" stroke="#666666" points="948,-78.5 842,-78.5 842,-45 948,-45 948,-78.5"/>
<text xml:space="preserve" text-anchor="start" x="850" y="-65" font-family="Helvetica,sans-Serif" font-size="10.00">core::socket::State</text>
<text xml:space="preserve" text-anchor="middle" x="895" y="-52.25" font-family="Helvetica,sans-Serif" font-size="10.00">::operator==</text>
</a>
</g>
</g>
<!-- Node13&#45;&gt;Node28 -->
<g id="edge27_Node000013_Node000028" class="edge">
<title>Node13&#45;&gt;Node28</title>
<g id="a_edge27_Node000013_Node000028"><a xlink:title=" ">
<path fill="none" stroke="#63b8ff" d="M731.21,-171.85C749.74,-149.76 784.97,-111.16 822.5,-87.75 825.38,-85.96 828.4,-84.26 831.5,-82.66"/>
<polygon fill="#63b8ff" stroke="#63b8ff" points="832.71,-85.96 840.26,-78.53 829.72,-79.63 832.71,-85.96"/>
</a>
</g>
</g>
<!-- Node29 -->
<g id="Node000029" class="node">
<title>Node29</title>
<g id="a_Node000029"><a xlink:href="classcore_1_1SNodeC.html#a89f702217b0329573f527bda0021fd51" target="_top" xlink:title=" ">
<polygon fill="white" stroke="#666666" points="951,-27.12 839,-27.12 839,-6.38 951,-6.38 951,-27.12"/>
<text xml:space="preserve" text-anchor="middle" x="895" y="-13.62" font-family="Helvetica,sans-Serif" font-size="10.00">core::SNodeC::state</text>
</a>
</g>
</g>
<!-- Node13&#45;&gt;Node29 -->
<g id="edge29_Node000013_Node000029" class="edge">
<title>Node13&#45;&gt;Node29</title>
<g id="a_edge29_Node000013_Node000029"><a xlink:title=" ">
<path fill="none" stroke="#63b8ff" d="M724.54,-171.53C738.25,-139.64 771.99,-71.41 822.5,-35.75 824.43,-34.39 826.44,-33.13 828.53,-31.95"/>
<polygon fill="#63b8ff" stroke="#63b8ff" points="829.82,-35.22 837.34,-27.75 826.81,-28.9 829.82,-35.22"/>
</a>
</g>
</g>
<!-- Node15 -->
<g id="Node000015" class="node">
<title>Node15</title>
<g id="a_Node000015"><a xlink:href="classcore_1_1EventReceiver.html#adec275118bd8a68e2b4cb71fa94d79b6" target="_top" xlink:title=" ">
<polygon fill="white" stroke="#666666" points="1132,-288.5 1018.5,-288.5 1018.5,-255 1132,-255 1132,-288.5"/>
<text xml:space="preserve" text-anchor="start" x="1026.5" y="-275" font-family="Helvetica,sans-Serif" font-size="10.00">core::EventReceiver</text>
<text xml:space="preserve" text-anchor="middle" x="1075.25" y="-262.25" font-family="Helvetica,sans-Serif" font-size="10.00">::EventReceiver</text>
</a>
</g>
</g>
<!-- Node14&#45;&gt;Node15 -->
<g id="edge14_Node000014_Node000015" class="edge">
<title>Node14&#45;&gt;Node15</title>
<g id="a_edge14_Node000014_Node000015"><a xlink:title=" ">
<path fill="none" stroke="#63b8ff" d="M951.91,-260.77C969.33,-262.33 988.72,-264.07 1006.84,-265.7"/>
<polygon fill="#63b8ff" stroke="#63b8ff" points="1006.45,-269.18 1016.72,-266.59 1007.08,-262.21 1006.45,-269.18"/>
</a>
</g>
</g>
<!-- Node19 -->
<g id="Node000019" class="node">
<title>Node19</title>
<g id="a_Node000019"><a xlink:href="classcore_1_1EventReceiver.html#ad353e97a9089b2769e52f8825e4878b1" target="_top" xlink:title=" ">
<polygon fill="white" stroke="#666666" points="1132,-236.5 1018.5,-236.5 1018.5,-203 1132,-203 1132,-236.5"/>
<text xml:space="preserve" text-anchor="start" x="1026.5" y="-223" font-family="Helvetica,sans-Serif" font-size="10.00">core::EventReceiver</text>
<text xml:space="preserve" text-anchor="middle" x="1075.25" y="-210.25" font-family="Helvetica,sans-Serif" font-size="10.00">::span</text>
</a>
</g>
</g>
<!-- Node14&#45;&gt;Node19 -->
<g id="edge18_Node000014_Node000019" class="edge">
<title>Node14&#45;&gt;Node19</title>
<g id="a_edge18_Node000014_Node000019"><a xlink:title=" ">
<path fill="none" stroke="#63b8ff" d="M951.91,-244.46C969.41,-240.92 988.91,-236.99 1007.1,-233.31"/>
<polygon fill="#63b8ff" stroke="#63b8ff" points="1007.64,-236.77 1016.75,-231.36 1006.25,-229.91 1007.64,-236.77"/>
</a>
</g>
</g>
<!-- Node16 -->
<g id="Node000016" class="node">
<title>Node16</title>
<g id="a_Node000016"><a xlink:href="classcore_1_1Event.html#a81e45f64219d897d59324c9dd0573936" target="_top" xlink:title=" ">
<polygon fill="white" stroke="#666666" points="1304.75,-282.12 1200.25,-282.12 1200.25,-261.38 1304.75,-261.38 1304.75,-282.12"/>
<text xml:space="preserve" text-anchor="middle" x="1252.5" y="-268.62" font-family="Helvetica,sans-Serif" font-size="10.00">core::Event::Event</text>
</a>
</g>
</g>
<!-- Node15&#45;&gt;Node16 -->
<g id="edge15_Node000015_Node000016" class="edge">
<title>Node15&#45;&gt;Node16</title>
<g id="a_edge15_Node000015_Node000016"><a xlink:title=" ">
<path fill="none" stroke="#63b8ff" d="M1132.18,-271.75C1150.18,-271.75 1170.25,-271.75 1188.71,-271.75"/>
<polygon fill="#63b8ff" stroke="#63b8ff" points="1188.45,-275.25 1198.45,-271.75 1188.45,-268.25 1188.45,-275.25"/>
</a>
</g>
</g>
<!-- Node17 -->
<g id="Node000017" class="node">
<title>Node17</title>
<g id="a_Node000017"><a xlink:href="classcore_1_1EventLoop.html#a17f1623de6ca2ea2682c63cf502c3c36" target="_top" xlink:title=" ">
<polygon fill="white" stroke="#666666" points="1501.5,-329.5 1358,-329.5 1358,-296 1501.5,-296 1501.5,-329.5"/>
<text xml:space="preserve" text-anchor="start" x="1366" y="-316" font-family="Helvetica,sans-Serif" font-size="10.00">core::EventLoop::getEvent</text>
<text xml:space="preserve" text-anchor="middle" x="1429.75" y="-303.25" font-family="Helvetica,sans-Serif" font-size="10.00">Multiplexer</text>
</a>
</g>
</g>
<!-- Node16&#45;&gt;Node17 -->
<g id="edge16_Node000016_Node000017" class="edge">
<title>Node16&#45;&gt;Node17</title>
<g id="a_edge16_Node000016_Node000017"><a xlink:title=" ">
<path fill="none" stroke="#63b8ff" d="M1299.54,-282.52C1313.96,-285.9 1330.34,-289.73 1346.47,-293.5"/>
<polygon fill="#63b8ff" stroke="#63b8ff" points="1345.57,-296.88 1356.1,-295.75 1347.16,-290.07 1345.57,-296.88"/>
</a>
</g>
</g>
<!-- Node18 -->
<g id="Node000018" class="node">
<title>Node18</title>
<g id="a_Node000018"><a xlink:href="classcore_1_1EventLoop.html#a413d227511f68c2c9939719bd2590794" target="_top" xlink:title=" ">
<polygon fill="white" stroke="#666666" points="1500.38,-278.12 1359.12,-278.12 1359.12,-257.38 1500.38,-257.38 1500.38,-278.12"/>
<text xml:space="preserve" text-anchor="middle" x="1429.75" y="-264.62" font-family="Helvetica,sans-Serif" font-size="10.00">core::EventLoop::instance</text>
</a>
</g>
</g>
<!-- Node16&#45;&gt;Node18 -->
<g id="edge17_Node000016_Node000018" class="edge">
<title>Node16&#45;&gt;Node18</title>
<g id="a_edge17_Node000016_Node000018"><a xlink:title=" ">
<path fill="none" stroke="#63b8ff" d="M1305.13,-270.57C1318.36,-270.27 1332.91,-269.94 1347.24,-269.61"/>
<polygon fill="#63b8ff" stroke="#63b8ff" points="1347.22,-273.11 1357.14,-269.38 1347.06,-266.11 1347.22,-273.11"/>
</a>
</g>
</g>
<!-- Node20 -->
<g id="Node000020" class="node">
<title>Node20</title>
<g id="a_Node000020"><a xlink:href="classcore_1_1Event.html#a0a68a616082e2b1aece96499a439884f" target="_top" xlink:title=" ">
<polygon fill="white" stroke="#666666" points="1302.5,-230.12 1202.5,-230.12 1202.5,-209.38 1302.5,-209.38 1302.5,-230.12"/>
<text xml:space="preserve" text-anchor="middle" x="1252.5" y="-216.62" font-family="Helvetica,sans-Serif" font-size="10.00">core::Event::span</text>
</a>
</g>
</g>
<!-- Node19&#45;&gt;Node20 -->
<g id="edge19_Node000019_Node000020" class="edge">
<title>Node19&#45;&gt;Node20</title>
<g id="a_edge19_Node000019_Node000020"><a xlink:title=" ">
<path fill="none" stroke="#63b8ff" d="M1132.18,-219.75C1150.85,-219.75 1171.74,-219.75 1190.76,-219.75"/>
<polygon fill="#63b8ff" stroke="#63b8ff" points="1190.5,-223.25 1200.5,-219.75 1190.5,-216.25 1190.5,-223.25"/>
</a>
</g>
</g>
<!-- Node21 -->
<g id="Node000021" class="node">
<title>Node21</title>
<g id="a_Node000021"><a xlink:href="classcore_1_1EventMultiplexer.html#a61d96e95daaebfe6c3b980a2a847bb21" target="_top" xlink:title=" ">
<polygon fill="white" stroke="#666666" points="1492.88,-236.5 1366.62,-236.5 1366.62,-203 1492.88,-203 1492.88,-236.5"/>
<text xml:space="preserve" text-anchor="start" x="1374.62" y="-223" font-family="Helvetica,sans-Serif" font-size="10.00">core::EventMultiplexer</text>
<text xml:space="preserve" text-anchor="middle" x="1429.75" y="-210.25" font-family="Helvetica,sans-Serif" font-size="10.00">::span</text>
</a>
</g>
</g>
<!-- Node20&#45;&gt;Node21 -->
<g id="edge20_Node000020_Node000021" class="edge">
<title>Node20&#45;&gt;Node21</title>
<g id="a_edge20_Node000020_Node000021"><a xlink:title=" ">
<path fill="none" stroke="#63b8ff" d="M1302.78,-219.75C1318.98,-219.75 1337.35,-219.75 1354.95,-219.75"/>
<polygon fill="#63b8ff" stroke="#63b8ff" points="1354.87,-223.25 1364.87,-219.75 1354.87,-216.25 1354.87,-223.25"/>
</a>
</g>
</g>
<!-- Node22 -->
<g id="Node000022" class="node">
<title>Node22</title>
<g id="a_Node000022"><a xlink:href="classcore_1_1EventMultiplexer_1_1EventQueue.html#a009075f2f16a78d3bf8d9e3a20226336" target="_top" xlink:title=" ">
<polygon fill="white" stroke="#666666" points="1663.75,-236.5 1537.5,-236.5 1537.5,-203 1663.75,-203 1663.75,-236.5"/>
<text xml:space="preserve" text-anchor="start" x="1545.5" y="-223" font-family="Helvetica,sans-Serif" font-size="10.00">core::EventMultiplexer</text>
<text xml:space="preserve" text-anchor="middle" x="1600.62" y="-210.25" font-family="Helvetica,sans-Serif" font-size="10.00">::EventQueue::insert</text>
</a>
</g>
</g>
<!-- Node21&#45;&gt;Node22 -->
<g id="edge21_Node000021_Node000022" class="edge">
<title>Node21&#45;&gt;Node22</title>
<g id="a_edge21_Node000021_Node000022"><a xlink:title=" ">
<path fill="none" stroke="#63b8ff" d="M1493.15,-219.75C1503.82,-219.75 1515,-219.75 1525.93,-219.75"/>
<polygon fill="#63b8ff" stroke="#63b8ff" points="1525.68,-223.25 1535.68,-219.75 1525.68,-216.25 1525.68,-223.25"/>
</a>
</g>
</g>
<!-- Node26 -->
<g id="Node000026" class="node">
<title>Node26</title>
<g id="a_Node000026"><a xlink:href="classcore_1_1socket_1_1State.html#ab07dc39fe7e79d46832a6ac89aa5e8ec" target="_top" xlink:title=" ">
<polygon fill="white" stroke="#666666" points="1128.25,-182.5 1022.25,-182.5 1022.25,-149 1128.25,-149 1128.25,-182.5"/>
<text xml:space="preserve" text-anchor="start" x="1030.25" y="-169" font-family="Helvetica,sans-Serif" font-size="10.00">core::socket::State</text>
<text xml:space="preserve" text-anchor="middle" x="1075.25" y="-156.25" font-family="Helvetica,sans-Serif" font-size="10.00">::State</text>
</a>
</g>
</g>
<!-- Node25&#45;&gt;Node26 -->
<g id="edge25_Node000025_Node000026" class="edge">
<title>Node25&#45;&gt;Node26</title>
<g id="a_edge25_Node000025_Node000026"><a xlink:title=" ">
<path fill="none" stroke="#63b8ff" d="M948.04,-165.75C967.54,-165.75 989.93,-165.75 1010.38,-165.75"/>
<polygon fill="#63b8ff" stroke="#63b8ff" points="1010.33,-169.25 1020.33,-165.75 1010.33,-162.25 1010.33,-169.25"/>
</a>
</g>
</g>
<!-- Node30 -->
<g id="Node000030" class="node">
<title>Node30</title>
<g id="a_Node000030"><a xlink:href="classcore_1_1EventLoop.html#a2a5630955f1449eb2141e711985590a7" target="_top" xlink:title=" ">
<polygon fill="white" stroke="#666666" points="1147,-33.5 1003.5,-33.5 1003.5,0 1147,0 1147,-33.5"/>
<text xml:space="preserve" text-anchor="start" x="1011.5" y="-20" font-family="Helvetica,sans-Serif" font-size="10.00">core::EventLoop::getEvent</text>
<text xml:space="preserve" text-anchor="middle" x="1075.25" y="-7.25" font-family="Helvetica,sans-Serif" font-size="10.00">LoopState</text>
</a>
</g>
</g>
<!-- Node29&#45;&gt;Node30 -->
<g id="edge30_Node000029_Node000030" class="edge">
<title>Node29&#45;&gt;Node30</title>
<g id="a_edge30_Node000029_Node000030"><a xlink:title=" ">
<path fill="none" stroke="#63b8ff" d="M951.42,-16.75C964.2,-16.75 978.06,-16.75 991.71,-16.75"/>
<polygon fill="#63b8ff" stroke="#63b8ff" points="991.58,-20.25 1001.58,-16.75 991.58,-13.25 991.58,-20.25"/>
</a>
</g>
</g>
</g>
</svg>
