<?xml version="1.0" encoding="UTF-8" standalone="no"?>
<!DOCTYPE svg PUBLIC "-//W3C//DTD SVG 1.1//EN"
 "http://www.w3.org/Graphics/SVG/1.1/DTD/svg11.dtd">
<!-- Generated by graphviz version 2.43.0 (0)
 -->
<!-- Title: core::socket::stream::tls::ssl_log_warning Pages: 1 -->
<svg width="450pt" height="146pt"
 viewBox="0.00 0.00 450.00 145.50" xmlns="http://www.w3.org/2000/svg" xmlns:xlink="http://www.w3.org/1999/xlink">
<g id="graph0" class="graph" transform="scale(1 1) rotate(0) translate(4 141.5)">
<title>core::socket::stream::tls::ssl_log_warning</title>
<!-- Node1 -->
<g id="Node000001" class="node">
<title>Node1</title>
<g id="a_Node000001"><a xlink:title=" ">
<polygon fill="#999999" stroke="#666666" points="442,-78 323,-78 323,-48 442,-48 442,-78"/>
<text text-anchor="start" x="331" y="-66" font-family="Helvetica,sans-Serif" font-size="10.00">core::socket::stream</text>
<text text-anchor="middle" x="382.5" y="-55" font-family="Helvetica,sans-Serif" font-size="10.00">::tls::ssl_log_warning</text>
</a>
</g>
</g>
<!-- Node2 -->
<g id="Node000002" class="node">
<title>Node2</title>
<g id="a_Node000002"><a xlink:href="namespacecore_1_1socket_1_1stream_1_1tls.html#adae6a3615f37e032ede0621579fee758" target="_top" xlink:title=" ">
<polygon fill="white" stroke="#666666" points="287,-78 171,-78 171,-48 287,-48 287,-78"/>
<text text-anchor="start" x="179" y="-66" font-family="Helvetica,sans-Serif" font-size="10.00">core::socket::stream</text>
<text text-anchor="middle" x="229" y="-55" font-family="Helvetica,sans-Serif" font-size="10.00">::tls::ssl_log</text>
</a>
</g>
</g>
<!-- Node1&#45;&gt;Node2 -->
<g id="edge1_Node000001_Node000002" class="edge">
<title>Node1&#45;&gt;Node2</title>
<g id="a_edge1_Node000001_Node000002"><a xlink:title=" ">
<path fill="none" stroke="#63b8ff" d="M312.7,-63C304.25,-63 295.68,-63 287.42,-63"/>
<polygon fill="#63b8ff" stroke="#63b8ff" points="312.93,-66.5 322.93,-63 312.93,-59.5 312.93,-66.5"/>
</a>
</g>
</g>
<!-- Node3 -->
<g id="Node000003" class="node">
<title>Node3</title>
<g id="a_Node000003"><a xlink:href="classcore_1_1socket_1_1stream_1_1tls_1_1_socket_connection.html#a63a1fa0b997efef1de4eb87fe518d100" target="_top" xlink:title=" ">
<polygon fill="white" stroke="#666666" points="131.5,-137.5 3.5,-137.5 3.5,-96.5 131.5,-96.5 131.5,-137.5"/>
<text text-anchor="start" x="11.5" y="-125.5" font-family="Helvetica,sans-Serif" font-size="10.00">core::socket::stream</text>
<text text-anchor="start" x="11.5" y="-114.5" font-family="Helvetica,sans-Serif" font-size="10.00">::tls::SocketConnection</text>
<text text-anchor="middle" x="67.5" y="-103.5" font-family="Helvetica,sans-Serif" font-size="10.00">::doWriteShutdown</text>
</a>
</g>
</g>
<!-- Node2&#45;&gt;Node3 -->
<g id="edge2_Node000002_Node000003" class="edge">
<title>Node2&#45;&gt;Node3</title>
<g id="a_edge2_Node000002_Node000003"><a xlink:title=" ">
<path fill="none" stroke="#63b8ff" d="M173.83,-81.34C159.43,-86.21 143.8,-91.51 129.08,-96.49"/>
<polygon fill="#63b8ff" stroke="#63b8ff" points="175.22,-84.56 183.57,-78.04 172.98,-77.93 175.22,-84.56"/>
</a>
</g>
</g>
<!-- Node4 -->
<g id="Node000004" class="node">
<title>Node4</title>
<g id="a_Node000004"><a xlink:href="classcore_1_1socket_1_1stream_1_1tls_1_1_socket_reader.html#a2ae0a14cc42b0da481e26beaf8eb6abf" target="_top" xlink:title=" ">
<polygon fill="white" stroke="#666666" points="135,-78 0,-78 0,-48 135,-48 135,-78"/>
<text text-anchor="start" x="8" y="-66" font-family="Helvetica,sans-Serif" font-size="10.00">core::socket::stream</text>
<text text-anchor="middle" x="67.5" y="-55" font-family="Helvetica,sans-Serif" font-size="10.00">::tls::SocketReader::read</text>
</a>
</g>
</g>
<!-- Node2&#45;&gt;Node4 -->
<g id="edge3_Node000002_Node000004" class="edge">
<title>Node2&#45;&gt;Node4</title>
<g id="a_edge3_Node000002_Node000004"><a xlink:title=" ">
<path fill="none" stroke="#63b8ff" d="M160.64,-63C152.16,-63 143.48,-63 135.01,-63"/>
<polygon fill="#63b8ff" stroke="#63b8ff" points="160.87,-66.5 170.87,-63 160.87,-59.5 160.87,-66.5"/>
</a>
</g>
</g>
<!-- Node5 -->
<g id="Node000005" class="node">
<title>Node5</title>
<g id="a_Node000005"><a xlink:href="classcore_1_1socket_1_1stream_1_1tls_1_1_socket_writer.html#ad92f9a1336af64dbf39974ebe3ee3050" target="_top" xlink:title=" ">
<polygon fill="white" stroke="#666666" points="134.5,-30 0.5,-30 0.5,0 134.5,0 134.5,-30"/>
<text text-anchor="start" x="8.5" y="-18" font-family="Helvetica,sans-Serif" font-size="10.00">core::socket::stream</text>
<text text-anchor="middle" x="67.5" y="-7" font-family="Helvetica,sans-Serif" font-size="10.00">::tls::SocketWriter::write</text>
</a>
</g>
</g>
<!-- Node2&#45;&gt;Node5 -->
<g id="edge4_Node000002_Node000005" class="edge">
<title>Node2&#45;&gt;Node5</title>
<g id="a_edge4_Node000002_Node000005"><a xlink:title=" ">
<path fill="none" stroke="#63b8ff" d="M167.97,-44.93C151.61,-40.01 134.07,-34.73 118.35,-30"/>
<polygon fill="#63b8ff" stroke="#63b8ff" points="167.39,-48.41 177.97,-47.94 169.4,-41.71 167.39,-48.41"/>
</a>
</g>
</g>
</g>
</svg>
