<?xml version="1.0" encoding="UTF-8" standalone="no"?>
<!DOCTYPE svg PUBLIC "-//W3C//DTD SVG 1.1//EN"
 "http://www.w3.org/Graphics/SVG/1.1/DTD/svg11.dtd">
<!-- Generated by graphviz version 2.43.0 (0)
 -->
<!-- Title: core::socket::stream::tls::ssl_log_info Pages: 1 -->
<svg width="447pt" height="290pt"
 viewBox="0.00 0.00 447.00 290.00" xmlns="http://www.w3.org/2000/svg" xmlns:xlink="http://www.w3.org/1999/xlink">
<g id="graph0" class="graph" transform="scale(1 1) rotate(0) translate(4 286)">
<title>core::socket::stream::tls::ssl_log_info</title>
<!-- Node1 -->
<g id="Node000001" class="node">
<title>Node1</title>
<g id="a_Node000001"><a xlink:title=" ">
<polygon fill="#999999" stroke="#666666" points="439,-132 323,-132 323,-102 439,-102 439,-132"/>
<text text-anchor="start" x="331" y="-120" font-family="Helvetica,sans-Serif" font-size="10.00">core::socket::stream</text>
<text text-anchor="middle" x="381" y="-109" font-family="Helvetica,sans-Serif" font-size="10.00">::tls::ssl_log_info</text>
</a>
</g>
</g>
<!-- Node2 -->
<g id="Node000002" class="node">
<title>Node2</title>
<g id="a_Node000002"><a xlink:href="namespacecore_1_1socket_1_1stream_1_1tls.html#aefd777e1f1c17197ec24d244bb46c047" target="_top" xlink:title=" ">
<polygon fill="white" stroke="#666666" points="287,-210 171,-210 171,-180 287,-180 287,-210"/>
<text text-anchor="start" x="179" y="-198" font-family="Helvetica,sans-Serif" font-size="10.00">core::socket::stream</text>
<text text-anchor="middle" x="229" y="-187" font-family="Helvetica,sans-Serif" font-size="10.00">::tls::ssl_ctx_new</text>
</a>
</g>
</g>
<!-- Node1&#45;&gt;Node2 -->
<g id="edge1_Node000001_Node000002" class="edge">
<title>Node1&#45;&gt;Node2</title>
<g id="a_edge1_Node000001_Node000002"><a xlink:title=" ">
<path fill="none" stroke="#63b8ff" d="M341.97,-136.77C316.22,-150.16 282.72,-167.59 259.09,-179.87"/>
<polygon fill="#63b8ff" stroke="#63b8ff" points="343.82,-139.76 351.08,-132.04 340.59,-133.55 343.82,-139.76"/>
</a>
</g>
</g>
<!-- Node6 -->
<g id="Node000006" class="node">
<title>Node6</title>
<g id="a_Node000006"><a xlink:href="namespacecore_1_1socket_1_1stream_1_1tls.html#adae6a3615f37e032ede0621579fee758" target="_top" xlink:title=" ">
<polygon fill="white" stroke="#666666" points="287,-105 171,-105 171,-75 287,-75 287,-105"/>
<text text-anchor="start" x="179" y="-93" font-family="Helvetica,sans-Serif" font-size="10.00">core::socket::stream</text>
<text text-anchor="middle" x="229" y="-82" font-family="Helvetica,sans-Serif" font-size="10.00">::tls::ssl_log</text>
</a>
</g>
</g>
<!-- Node1&#45;&gt;Node6 -->
<g id="edge5_Node000001_Node000006" class="edge">
<title>Node1&#45;&gt;Node6</title>
<g id="a_edge5_Node000001_Node000006"><a xlink:title=" ">
<path fill="none" stroke="#63b8ff" d="M312.97,-104.93C304.46,-103.4 295.81,-101.85 287.47,-100.35"/>
<polygon fill="#63b8ff" stroke="#63b8ff" points="312.4,-108.39 322.86,-106.72 313.64,-101.5 312.4,-108.39"/>
</a>
</g>
</g>
<!-- Node3 -->
<g id="Node000003" class="node">
<title>Node3</title>
<g id="a_Node000003"><a xlink:href="namespacecore_1_1socket_1_1stream_1_1tls.html#a4248694d15e48a99933c00d9600ceee8" target="_top" xlink:title=" ">
<polygon fill="white" stroke="#666666" points="125.5,-282 9.5,-282 9.5,-252 125.5,-252 125.5,-282"/>
<text text-anchor="start" x="17.5" y="-270" font-family="Helvetica,sans-Serif" font-size="10.00">core::socket::stream</text>
<text text-anchor="middle" x="67.5" y="-259" font-family="Helvetica,sans-Serif" font-size="10.00">::tls::ssl_ctx_new</text>
</a>
</g>
</g>
<!-- Node2&#45;&gt;Node3 -->
<g id="edge2_Node000002_Node000003" class="edge">
<title>Node2&#45;&gt;Node3</title>
<g id="a_edge2_Node000002_Node000003"><a xlink:title=" ">
<path fill="none" stroke="#63b8ff" d="M192.13,-214.9C175.08,-224 154.25,-234.6 135,-243 127.91,-246.09 120.29,-249.12 112.82,-251.92"/>
<polygon fill="#63b8ff" stroke="#63b8ff" points="194.04,-217.85 201.19,-210.02 190.72,-211.68 194.04,-217.85"/>
</a>
</g>
</g>
<!-- Node4 -->
<g id="Node000004" class="node">
<title>Node4</title>
<g id="a_Node000004"><a xlink:href="namespacecore_1_1socket_1_1stream_1_1tls.html#a4660661da7880950bf8d445ccdc24f79" target="_top" xlink:title=" ">
<polygon fill="white" stroke="#666666" points="125.5,-234 9.5,-234 9.5,-204 125.5,-204 125.5,-234"/>
<text text-anchor="start" x="17.5" y="-222" font-family="Helvetica,sans-Serif" font-size="10.00">core::socket::stream</text>
<text text-anchor="middle" x="67.5" y="-211" font-family="Helvetica,sans-Serif" font-size="10.00">::tls::ssl_ctx_new</text>
</a>
</g>
</g>
<!-- Node2&#45;&gt;Node4 -->
<g id="edge3_Node000002_Node000004" class="edge">
<title>Node2&#45;&gt;Node4</title>
<g id="a_edge3_Node000002_Node000004"><a xlink:title=" ">
<path fill="none" stroke="#63b8ff" d="M160.7,-205.13C148.98,-206.89 136.9,-208.71 125.5,-210.42"/>
<polygon fill="#63b8ff" stroke="#63b8ff" points="161.5,-208.55 170.87,-203.6 160.46,-201.62 161.5,-208.55"/>
</a>
</g>
</g>
<!-- Node5 -->
<g id="Node000005" class="node">
<title>Node5</title>
<g id="a_Node000005"><a xlink:href="namespacecore_1_1socket_1_1stream_1_1tls.html#a7a4a0e331de2d4c1a0fe5006a2176e05" target="_top" xlink:title=" ">
<polygon fill="white" stroke="#666666" points="125.5,-186 9.5,-186 9.5,-156 125.5,-156 125.5,-186"/>
<text text-anchor="start" x="17.5" y="-174" font-family="Helvetica,sans-Serif" font-size="10.00">core::socket::stream</text>
<text text-anchor="middle" x="67.5" y="-163" font-family="Helvetica,sans-Serif" font-size="10.00">::tls::ssl_ctx_new</text>
</a>
</g>
</g>
<!-- Node2&#45;&gt;Node5 -->
<g id="edge4_Node000002_Node000005" class="edge">
<title>Node2&#45;&gt;Node5</title>
<g id="a_edge4_Node000002_Node000005"><a xlink:title=" ">
<path fill="none" stroke="#63b8ff" d="M160.7,-184.87C148.98,-183.11 136.9,-181.29 125.5,-179.58"/>
<polygon fill="#63b8ff" stroke="#63b8ff" points="160.46,-188.38 170.87,-186.4 161.5,-181.45 160.46,-188.38"/>
</a>
</g>
</g>
<!-- Node7 -->
<g id="Node000007" class="node">
<title>Node7</title>
<g id="a_Node000007"><a xlink:href="classcore_1_1socket_1_1stream_1_1tls_1_1SocketConnection.html#a63a1fa0b997efef1de4eb87fe518d100" target="_top" xlink:title=" ">
<polygon fill="white" stroke="#666666" points="131.5,-137.5 3.5,-137.5 3.5,-96.5 131.5,-96.5 131.5,-137.5"/>
<text text-anchor="start" x="11.5" y="-125.5" font-family="Helvetica,sans-Serif" font-size="10.00">core::socket::stream</text>
<text text-anchor="start" x="11.5" y="-114.5" font-family="Helvetica,sans-Serif" font-size="10.00">::tls::SocketConnection</text>
<text text-anchor="middle" x="67.5" y="-103.5" font-family="Helvetica,sans-Serif" font-size="10.00">::doWriteShutdown</text>
</a>
</g>
</g>
<!-- Node6&#45;&gt;Node7 -->
<g id="edge6_Node000006_Node000007" class="edge">
<title>Node6&#45;&gt;Node7</title>
<g id="a_edge6_Node000006_Node000007"><a xlink:title=" ">
<path fill="none" stroke="#63b8ff" d="M160.91,-101.36C151.24,-102.99 141.32,-104.67 131.73,-106.3"/>
<polygon fill="#63b8ff" stroke="#63b8ff" points="161.59,-104.79 170.87,-99.67 160.42,-97.89 161.59,-104.79"/>
</a>
</g>
</g>
<!-- Node8 -->
<g id="Node000008" class="node">
<title>Node8</title>
<g id="a_Node000008"><a xlink:href="classcore_1_1socket_1_1stream_1_1tls_1_1SocketReader.html#a2ae0a14cc42b0da481e26beaf8eb6abf" target="_top" xlink:title=" ">
<polygon fill="white" stroke="#666666" points="135,-78 0,-78 0,-48 135,-48 135,-78"/>
<text text-anchor="start" x="8" y="-66" font-family="Helvetica,sans-Serif" font-size="10.00">core::socket::stream</text>
<text text-anchor="middle" x="67.5" y="-55" font-family="Helvetica,sans-Serif" font-size="10.00">::tls::SocketReader::read</text>
</a>
</g>
</g>
<!-- Node6&#45;&gt;Node8 -->
<g id="edge7_Node000006_Node000008" class="edge">
<title>Node6&#45;&gt;Node8</title>
<g id="a_edge7_Node000006_Node000008"><a xlink:title=" ">
<path fill="none" stroke="#63b8ff" d="M160.92,-78.64C152.35,-77.19 143.58,-75.71 135.01,-74.26"/>
<polygon fill="#63b8ff" stroke="#63b8ff" points="160.42,-82.11 170.87,-80.33 161.59,-75.21 160.42,-82.11"/>
</a>
</g>
</g>
<!-- Node9 -->
<g id="Node000009" class="node">
<title>Node9</title>
<g id="a_Node000009"><a xlink:href="classcore_1_1socket_1_1stream_1_1tls_1_1SocketWriter.html#ad92f9a1336af64dbf39974ebe3ee3050" target="_top" xlink:title=" ">
<polygon fill="white" stroke="#666666" points="134.5,-30 0.5,-30 0.5,0 134.5,0 134.5,-30"/>
<text text-anchor="start" x="8.5" y="-18" font-family="Helvetica,sans-Serif" font-size="10.00">core::socket::stream</text>
<text text-anchor="middle" x="67.5" y="-7" font-family="Helvetica,sans-Serif" font-size="10.00">::tls::SocketWriter::write</text>
</a>
</g>
</g>
<!-- Node6&#45;&gt;Node9 -->
<g id="edge8_Node000006_Node000009" class="edge">
<title>Node6&#45;&gt;Node9</title>
<g id="a_edge8_Node000006_Node000009"><a xlink:title=" ">
<path fill="none" stroke="#63b8ff" d="M194.23,-69.83C176.86,-59.88 155.15,-48.1 135,-39 128.06,-35.87 120.59,-32.85 113.24,-30.07"/>
<polygon fill="#63b8ff" stroke="#63b8ff" points="192.48,-72.86 202.89,-74.84 195.99,-66.8 192.48,-72.86"/>
</a>
</g>
</g>
</g>
</svg>
