<?xml version="1.0" encoding="UTF-8" standalone="no"?>
<!DOCTYPE svg PUBLIC "-//W3C//DTD SVG 1.1//EN"
 "http://www.w3.org/Graphics/SVG/1.1/DTD/svg11.dtd">
<!-- Generated by graphviz version 2.42.4 (0)
 -->
<!-- Title: express::legacy::in6::Server Pages: 1 -->
<svg width="1743pt" height="443pt"
 viewBox="0.00 0.00 1743.00 443.00" xmlns="http://www.w3.org/2000/svg" xmlns:xlink="http://www.w3.org/1999/xlink">
<g id="graph0" class="graph" transform="scale(1 1) rotate(0) translate(4 439)">
<title>express::legacy::in6::Server</title>
<!-- Node1 -->
<g id="Node000001" class="node">
<title>Node1</title>
<g id="a_Node000001"><a xlink:title=" ">
<polygon fill="#999999" stroke="#666666" points="113,-300.5 0,-300.5 0,-270.5 113,-270.5 113,-300.5"/>
<text text-anchor="start" x="8" y="-288.5" font-family="Helvetica,sans-Serif" font-size="10.00">express::legacy::in6</text>
<text text-anchor="middle" x="56.5" y="-277.5" font-family="Helvetica,sans-Serif" font-size="10.00">::Server</text>
</a>
</g>
</g>
<!-- Node2 -->
<g id="Node000002" class="node">
<title>Node2</title>
<g id="a_Node000002"><a xlink:href="namespaceexpress_1_1legacy_1_1in6.html#a0889e6b0c84a132411c17d41a31e7445" target="_top" xlink:title=" ">
<polygon fill="white" stroke="#666666" points="262,-300.5 149,-300.5 149,-270.5 262,-270.5 262,-300.5"/>
<text text-anchor="start" x="157" y="-288.5" font-family="Helvetica,sans-Serif" font-size="10.00">express::legacy::in6</text>
<text text-anchor="middle" x="205.5" y="-277.5" font-family="Helvetica,sans-Serif" font-size="10.00">::Server</text>
</a>
</g>
</g>
<!-- Node1&#45;&gt;Node2 -->
<g id="edge1_Node000001_Node000002" class="edge">
<title>Node1&#45;&gt;Node2</title>
<g id="a_edge1_Node000001_Node000002"><a xlink:title=" ">
<path fill="none" stroke="#63b8ff" d="M113.07,-285.5C121.49,-285.5 130.24,-285.5 138.84,-285.5"/>
<polygon fill="#63b8ff" stroke="#63b8ff" points="138.85,-289 148.85,-285.5 138.85,-282 138.85,-289"/>
</a>
</g>
</g>
<!-- Node3 -->
<g id="Node000003" class="node">
<title>Node3</title>
<g id="a_Node000003"><a xlink:href="classcore_1_1socket_1_1Socket.html#ac9b7df3682b2a24b5c7fce9bcff1c441" target="_top" xlink:title=" ">
<polygon fill="white" stroke="#666666" points="434,-410.5 321,-410.5 321,-380.5 434,-380.5 434,-410.5"/>
<text text-anchor="start" x="329" y="-398.5" font-family="Helvetica,sans-Serif" font-size="10.00">core::socket::Socket</text>
<text text-anchor="middle" x="377.5" y="-387.5" font-family="Helvetica,sans-Serif" font-size="10.00">::getConfig</text>
</a>
</g>
</g>
<!-- Node2&#45;&gt;Node3 -->
<g id="edge2_Node000002_Node000003" class="edge">
<title>Node2&#45;&gt;Node3</title>
<g id="a_edge2_Node000002_Node000003"><a xlink:title=" ">
<path fill="none" stroke="#63b8ff" d="M218.9,-300.55C235.21,-319.42 265.61,-351.59 298,-370.5 302.18,-372.94 306.63,-375.17 311.2,-377.21"/>
<polygon fill="#63b8ff" stroke="#63b8ff" points="310.13,-380.55 320.71,-381.12 312.79,-374.08 310.13,-380.55"/>
</a>
</g>
</g>
<!-- Node4 -->
<g id="Node000004" class="node">
<title>Node4</title>
<g id="a_Node000004"><a xlink:href="classexpress_1_1Router.html#ac3107c8acf16cdccc5adb23623fda8c9" target="_top" xlink:title=" ">
<polygon fill="white" stroke="#666666" points="452,-362 303,-362 303,-343 452,-343 452,-362"/>
<text text-anchor="middle" x="377.5" y="-350" font-family="Helvetica,sans-Serif" font-size="10.00">express::Router::getRoutes</text>
</a>
</g>
</g>
<!-- Node2&#45;&gt;Node4 -->
<g id="edge3_Node000002_Node000004" class="edge">
<title>Node2&#45;&gt;Node4</title>
<g id="a_edge3_Node000002_Node000004"><a xlink:title=" ">
<path fill="none" stroke="#63b8ff" d="M231.36,-300.68C249.34,-311.12 274.5,-324.65 298,-333.5 304.77,-336.05 311.99,-338.34 319.22,-340.38"/>
<polygon fill="#63b8ff" stroke="#63b8ff" points="318.46,-343.8 329.02,-343 320.27,-337.04 318.46,-343.8"/>
</a>
</g>
</g>
<!-- Node10 -->
<g id="Node000010" class="node">
<title>Node10</title>
<g id="a_Node000010"><a xlink:href="classcore_1_1socket_1_1stream_1_1SocketServer.html#a9e1dd326ba3403a4c6eeb83a4a92a95d" target="_top" xlink:title=" ">
<polygon fill="white" stroke="#666666" points="437,-324.5 318,-324.5 318,-294.5 437,-294.5 437,-324.5"/>
<text text-anchor="start" x="326" y="-312.5" font-family="Helvetica,sans-Serif" font-size="10.00">core::socket::stream</text>
<text text-anchor="middle" x="377.5" y="-301.5" font-family="Helvetica,sans-Serif" font-size="10.00">::SocketServer::listen</text>
</a>
</g>
</g>
<!-- Node2&#45;&gt;Node10 -->
<g id="edge9_Node000002_Node000010" class="edge">
<title>Node2&#45;&gt;Node10</title>
<g id="a_edge9_Node000002_Node000010"><a xlink:title=" ">
<path fill="none" stroke="#63b8ff" d="M262.16,-293.36C276.64,-295.4 292.41,-297.63 307.49,-299.76"/>
<polygon fill="#63b8ff" stroke="#63b8ff" points="307.4,-303.28 317.79,-301.21 308.37,-296.35 307.4,-303.28"/>
</a>
</g>
</g>
<!-- Node33 -->
<g id="Node000033" class="node">
<title>Node33</title>
<g id="a_Node000033"><a xlink:href="classnet_1_1in6_1_1SocketAddress.html#a9bfaca78da4c3c9a1200507704b77d00" target="_top" xlink:title=" ">
<polygon fill="white" stroke="#666666" points="443,-276.5 312,-276.5 312,-246.5 443,-246.5 443,-276.5"/>
<text text-anchor="start" x="320" y="-264.5" font-family="Helvetica,sans-Serif" font-size="10.00">net::in6::SocketAddress</text>
<text text-anchor="middle" x="377.5" y="-253.5" font-family="Helvetica,sans-Serif" font-size="10.00">::toString</text>
</a>
</g>
</g>
<!-- Node2&#45;&gt;Node33 -->
<g id="edge35_Node000002_Node000033" class="edge">
<title>Node2&#45;&gt;Node33</title>
<g id="a_edge35_Node000002_Node000033"><a xlink:title=" ">
<path fill="none" stroke="#63b8ff" d="M262.16,-277.64C274.82,-275.85 288.46,-273.93 301.77,-272.05"/>
<polygon fill="#63b8ff" stroke="#63b8ff" points="302.44,-275.49 311.85,-270.63 301.46,-268.56 302.44,-275.49"/>
</a>
</g>
</g>
<!-- Node34 -->
<g id="Node000034" class="node">
<title>Node34</title>
<g id="a_Node000034"><a xlink:href="classexpress_1_1WebAppT.html#a4c662b444a547c8bb9ba4f959d3362ac" target="_top" xlink:title=" ">
<polygon fill="white" stroke="#666666" points="457,-228 298,-228 298,-209 457,-209 457,-228"/>
<text text-anchor="middle" x="377.5" y="-216" font-family="Helvetica,sans-Serif" font-size="10.00">express::WebAppT::WebAppT</text>
</a>
</g>
</g>
<!-- Node2&#45;&gt;Node34 -->
<g id="edge36_Node000002_Node000034" class="edge">
<title>Node2&#45;&gt;Node34</title>
<g id="a_edge36_Node000002_Node000034"><a xlink:title=" ">
<path fill="none" stroke="#63b8ff" d="M231.36,-270.32C249.34,-259.88 274.5,-246.35 298,-237.5 304.77,-234.95 311.99,-232.66 319.22,-230.62"/>
<polygon fill="#63b8ff" stroke="#63b8ff" points="320.27,-233.96 329.02,-228 318.46,-227.2 320.27,-233.96"/>
</a>
</g>
</g>
<!-- Node35 -->
<g id="Node000035" class="node">
<title>Node35</title>
<g id="a_Node000035"><a xlink:href="classcore_1_1socket_1_1State.html#a55b6abd55034b331fae4c9e085007dfa" target="_top" xlink:title=" ">
<polygon fill="white" stroke="#666666" points="431,-190.5 324,-190.5 324,-160.5 431,-160.5 431,-190.5"/>
<text text-anchor="start" x="332" y="-178.5" font-family="Helvetica,sans-Serif" font-size="10.00">core::socket::State</text>
<text text-anchor="middle" x="377.5" y="-167.5" font-family="Helvetica,sans-Serif" font-size="10.00">::what</text>
</a>
</g>
</g>
<!-- Node2&#45;&gt;Node35 -->
<g id="edge37_Node000002_Node000035" class="edge">
<title>Node2&#45;&gt;Node35</title>
<g id="a_edge37_Node000002_Node000035"><a xlink:title=" ">
<path fill="none" stroke="#63b8ff" d="M218.83,-270.21C235.06,-251.04 265.37,-218.42 298,-199.5 303.13,-196.52 308.67,-193.88 314.35,-191.54"/>
<polygon fill="#63b8ff" stroke="#63b8ff" points="315.88,-194.7 323.99,-187.88 313.4,-188.16 315.88,-194.7"/>
</a>
</g>
</g>
<!-- Node5 -->
<g id="Node000005" class="node">
<title>Node5</title>
<g id="a_Node000005"><a xlink:href="classexpress_1_1RootRoute.html#a79b53a07452e053898fbd0ccb17ead8a" target="_top" xlink:title=" ">
<polygon fill="white" stroke="#666666" points="619,-394.5 507,-394.5 507,-364.5 619,-364.5 619,-394.5"/>
<text text-anchor="start" x="515" y="-382.5" font-family="Helvetica,sans-Serif" font-size="10.00">express::RootRoute</text>
<text text-anchor="middle" x="563" y="-371.5" font-family="Helvetica,sans-Serif" font-size="10.00">::getRoutes</text>
</a>
</g>
</g>
<!-- Node4&#45;&gt;Node5 -->
<g id="edge4_Node000004_Node000005" class="edge">
<title>Node4&#45;&gt;Node5</title>
<g id="a_edge4_Node000004_Node000005"><a xlink:title=" ">
<path fill="none" stroke="#63b8ff" d="M443.2,-362.02C460.53,-364.57 479.29,-367.33 496.66,-369.89"/>
<polygon fill="#63b8ff" stroke="#63b8ff" points="496.3,-373.37 506.71,-371.36 497.32,-366.45 496.3,-373.37"/>
</a>
</g>
</g>
<!-- Node6 -->
<g id="Node000006" class="node">
<title>Node6</title>
<g id="a_Node000006"><a xlink:href="classexpress_1_1dispatcher_1_1RouterDispatcher.html#a7c837fd8f7e105a2b034de81e74289d2" target="_top" xlink:title=" ">
<polygon fill="white" stroke="#666666" points="798.5,-434 685.5,-434 685.5,-393 798.5,-393 798.5,-434"/>
<text text-anchor="start" x="693.5" y="-422" font-family="Helvetica,sans-Serif" font-size="10.00">express::dispatcher</text>
<text text-anchor="start" x="693.5" y="-411" font-family="Helvetica,sans-Serif" font-size="10.00">::RouterDispatcher::</text>
<text text-anchor="middle" x="742" y="-400" font-family="Helvetica,sans-Serif" font-size="10.00">getRoutes</text>
</a>
</g>
</g>
<!-- Node5&#45;&gt;Node6 -->
<g id="edge5_Node000005_Node000006" class="edge">
<title>Node5&#45;&gt;Node6</title>
<g id="a_edge5_Node000005_Node000006"><a xlink:title=" ">
<path fill="none" stroke="#63b8ff" d="M619.03,-390.07C636.93,-393.51 656.96,-397.36 675.54,-400.93"/>
<polygon fill="#63b8ff" stroke="#63b8ff" points="674.91,-404.37 685.39,-402.82 676.23,-397.49 674.91,-404.37"/>
</a>
</g>
</g>
<!-- Node7 -->
<g id="Node000007" class="node">
<title>Node7</title>
<g id="a_Node000007"><a xlink:href="classexpress_1_1dispatcher_1_1RouterDispatcher.html#a307182bc588db8d70172911c5ad2a3ea" target="_top" xlink:title=" ">
<polygon fill="white" stroke="#666666" points="985,-435 872,-435 872,-394 985,-394 985,-435"/>
<text text-anchor="start" x="880" y="-423" font-family="Helvetica,sans-Serif" font-size="10.00">express::dispatcher</text>
<text text-anchor="start" x="880" y="-412" font-family="Helvetica,sans-Serif" font-size="10.00">::RouterDispatcher::</text>
<text text-anchor="middle" x="928.5" y="-401" font-family="Helvetica,sans-Serif" font-size="10.00">getRoutes</text>
</a>
</g>
</g>
<!-- Node6&#45;&gt;Node7 -->
<g id="edge6_Node000006_Node000007" class="edge">
<title>Node6&#45;&gt;Node7</title>
<g id="a_edge6_Node000006_Node000007"><a xlink:title=" ">
<path fill="none" stroke="#63b8ff" d="M798.61,-413.8C818.39,-413.91 840.87,-414.03 861.44,-414.14"/>
<polygon fill="#63b8ff" stroke="#63b8ff" points="861.67,-417.64 871.69,-414.2 861.71,-410.64 861.67,-417.64"/>
</a>
</g>
</g>
<!-- Node8 -->
<g id="Node000008" class="node">
<title>Node8</title>
<g id="a_Node000008"><a xlink:href="classexpress_1_1Route.html#abb8e6506433479e5bd42250aa6262655" target="_top" xlink:title=" ">
<polygon fill="white" stroke="#666666" points="1183,-424 1043,-424 1043,-405 1183,-405 1183,-424"/>
<text text-anchor="middle" x="1113" y="-412" font-family="Helvetica,sans-Serif" font-size="10.00">express::Route::getRoute</text>
</a>
</g>
</g>
<!-- Node7&#45;&gt;Node8 -->
<g id="edge7_Node000007_Node000008" class="edge">
<title>Node7&#45;&gt;Node8</title>
<g id="a_edge7_Node000007_Node000008"><a xlink:title=" ">
<path fill="none" stroke="#63b8ff" d="M985.25,-414.5C1000.12,-414.5 1016.49,-414.5 1032.38,-414.5"/>
<polygon fill="#63b8ff" stroke="#63b8ff" points="1032.73,-418 1042.73,-414.5 1032.73,-411 1032.73,-418"/>
</a>
</g>
</g>
<!-- Node9 -->
<g id="Node000009" class="node">
<title>Node9</title>
<g id="a_Node000009"><a xlink:href="classexpress_1_1Dispatcher.html#ae5699cd0fe73fdfd59325d570601cdc5" target="_top" xlink:title=" ">
<polygon fill="white" stroke="#666666" points="1350,-429.5 1237,-429.5 1237,-399.5 1350,-399.5 1350,-429.5"/>
<text text-anchor="start" x="1245" y="-417.5" font-family="Helvetica,sans-Serif" font-size="10.00">express::Dispatcher</text>
<text text-anchor="middle" x="1293.5" y="-406.5" font-family="Helvetica,sans-Serif" font-size="10.00">::getRoutes</text>
</a>
</g>
</g>
<!-- Node8&#45;&gt;Node9 -->
<g id="edge8_Node000008_Node000009" class="edge">
<title>Node8&#45;&gt;Node9</title>
<g id="a_edge8_Node000008_Node000009"><a xlink:title=" ">
<path fill="none" stroke="#63b8ff" d="M1183.01,-414.5C1197.38,-414.5 1212.49,-414.5 1226.73,-414.5"/>
<polygon fill="#63b8ff" stroke="#63b8ff" points="1226.93,-418 1236.93,-414.5 1226.93,-411 1226.93,-418"/>
</a>
</g>
</g>
<!-- Node11 -->
<g id="Node000011" class="node">
<title>Node11</title>
<g id="a_Node000011"><a xlink:href="classcore_1_1socket_1_1stream_1_1SocketServer.html#a221e38a6b6df96de45063940ebcbbfa5" target="_top" xlink:title=" ">
<polygon fill="white" stroke="#666666" points="633,-297.5 493,-297.5 493,-267.5 633,-267.5 633,-297.5"/>
<text text-anchor="start" x="501" y="-285.5" font-family="Helvetica,sans-Serif" font-size="10.00">core::socket::stream</text>
<text text-anchor="middle" x="563" y="-274.5" font-family="Helvetica,sans-Serif" font-size="10.00">::SocketServer::realListen</text>
</a>
</g>
</g>
<!-- Node10&#45;&gt;Node11 -->
<g id="edge10_Node000010_Node000011" class="edge">
<title>Node10&#45;&gt;Node11</title>
<g id="a_edge10_Node000010_Node000011"><a xlink:title=" ">
<path fill="none" stroke="#63b8ff" d="M437.07,-300.88C451.61,-298.74 467.43,-296.41 482.78,-294.16"/>
<polygon fill="#63b8ff" stroke="#63b8ff" points="483.4,-297.6 492.78,-292.68 482.38,-290.68 483.4,-297.6"/>
</a>
</g>
</g>
<!-- Node11&#45;&gt;Node11 -->
<g id="edge16_Node000011_Node000011" class="edge">
<title>Node11&#45;&gt;Node11</title>
<g id="a_edge16_Node000011_Node000011"><a xlink:title=" ">
<path fill="none" stroke="#63b8ff" d="M531.71,-297.78C524.76,-306.91 535.19,-315.5 563,-315.5 579.51,-315.5 589.9,-312.47 594.16,-308.1"/>
<polygon fill="#63b8ff" stroke="#63b8ff" points="597.66,-307.82 594.29,-297.78 590.66,-307.73 597.66,-307.82"/>
</a>
</g>
</g>
<!-- Node12 -->
<g id="Node000012" class="node">
<title>Node12</title>
<g id="a_Node000012"><a xlink:href="classutils_1_1Random.html#a9d15c0e2c11092d1e9cebabc0057d5bb" target="_top" xlink:title=" ">
<polygon fill="white" stroke="#666666" points="815,-335 669,-335 669,-316 815,-316 815,-335"/>
<text text-anchor="middle" x="742" y="-323" font-family="Helvetica,sans-Serif" font-size="10.00">utils::Random::getInRange</text>
</a>
</g>
</g>
<!-- Node11&#45;&gt;Node12 -->
<g id="edge11_Node000011_Node000012" class="edge">
<title>Node11&#45;&gt;Node12</title>
<g id="a_edge11_Node000011_Node000012"><a xlink:title=" ">
<path fill="none" stroke="#63b8ff" d="M625.91,-297.54C647.58,-302.8 671.6,-308.64 692.07,-313.61"/>
<polygon fill="#63b8ff" stroke="#63b8ff" points="691.26,-317.02 701.8,-315.98 692.91,-310.22 691.26,-317.02"/>
</a>
</g>
</g>
<!-- Node13 -->
<g id="Node000013" class="node">
<title>Node13</title>
<g id="a_Node000013"><a xlink:href="classcore_1_1socket_1_1State.html#a2c16c3c8d05a7e85c99baa78a658d17a" target="_top" xlink:title=" ">
<polygon fill="white" stroke="#666666" points="795.5,-297.5 688.5,-297.5 688.5,-267.5 795.5,-267.5 795.5,-297.5"/>
<text text-anchor="start" x="696.5" y="-285.5" font-family="Helvetica,sans-Serif" font-size="10.00">core::socket::State</text>
<text text-anchor="middle" x="742" y="-274.5" font-family="Helvetica,sans-Serif" font-size="10.00">::operator&amp;</text>
</a>
</g>
</g>
<!-- Node11&#45;&gt;Node13 -->
<g id="edge12_Node000011_Node000013" class="edge">
<title>Node11&#45;&gt;Node13</title>
<g id="a_edge12_Node000011_Node000013"><a xlink:title=" ">
<path fill="none" stroke="#63b8ff" d="M633.19,-282.5C647.94,-282.5 663.44,-282.5 677.94,-282.5"/>
<polygon fill="#63b8ff" stroke="#63b8ff" points="678.3,-286 688.3,-282.5 678.3,-279 678.3,-286"/>
</a>
</g>
</g>
<!-- Node15 -->
<g id="Node000015" class="node">
<title>Node15</title>
<g id="a_Node000015"><a xlink:href="classcore_1_1socket_1_1State.html#a17374479f229f1cca06b73f3ed2bce73" target="_top" xlink:title=" ">
<polygon fill="white" stroke="#666666" points="795.5,-249.5 688.5,-249.5 688.5,-219.5 795.5,-219.5 795.5,-249.5"/>
<text text-anchor="start" x="696.5" y="-237.5" font-family="Helvetica,sans-Serif" font-size="10.00">core::socket::State</text>
<text text-anchor="middle" x="742" y="-226.5" font-family="Helvetica,sans-Serif" font-size="10.00">::operator&amp;=</text>
</a>
</g>
</g>
<!-- Node11&#45;&gt;Node15 -->
<g id="edge14_Node000011_Node000015" class="edge">
<title>Node11&#45;&gt;Node15</title>
<g id="a_edge14_Node000011_Node000015"><a xlink:title=" ">
<path fill="none" stroke="#63b8ff" d="M619.52,-267.44C638.25,-262.36 659.29,-256.66 678.52,-251.44"/>
<polygon fill="#63b8ff" stroke="#63b8ff" points="679.66,-254.76 688.4,-248.77 677.83,-248 679.66,-254.76"/>
</a>
</g>
</g>
<!-- Node16 -->
<g id="Node000016" class="node">
<title>Node16</title>
<g id="a_Node000016"><a xlink:href="classcore_1_1socket_1_1State.html#a2b42b2e3d02b693c52348700ceab379b" target="_top" xlink:title=" ">
<polygon fill="white" stroke="#666666" points="795.5,-201.5 688.5,-201.5 688.5,-171.5 795.5,-171.5 795.5,-201.5"/>
<text text-anchor="start" x="696.5" y="-189.5" font-family="Helvetica,sans-Serif" font-size="10.00">core::socket::State</text>
<text text-anchor="middle" x="742" y="-178.5" font-family="Helvetica,sans-Serif" font-size="10.00">::operator==</text>
</a>
</g>
</g>
<!-- Node11&#45;&gt;Node16 -->
<g id="edge15_Node000011_Node000016" class="edge">
<title>Node11&#45;&gt;Node16</title>
<g id="a_edge15_Node000011_Node000016"><a xlink:title=" ">
<path fill="none" stroke="#63b8ff" d="M582.73,-267.25C602.99,-251.34 636.74,-226.54 669,-210.5 672.72,-208.65 676.61,-206.9 680.58,-205.24"/>
<polygon fill="#63b8ff" stroke="#63b8ff" points="681.91,-208.47 689.93,-201.54 679.34,-201.96 681.91,-208.47"/>
</a>
</g>
</g>
<!-- Node17 -->
<g id="Node000017" class="node">
<title>Node17</title>
<g id="a_Node000017"><a xlink:href="classcore_1_1timer_1_1Timer.html#a9847ce4e56baf9141cc880aa7e20c71a" target="_top" xlink:title=" ">
<polygon fill="white" stroke="#666666" points="794,-153.5 690,-153.5 690,-123.5 794,-123.5 794,-153.5"/>
<text text-anchor="start" x="698" y="-141.5" font-family="Helvetica,sans-Serif" font-size="10.00">core::timer::Timer</text>
<text text-anchor="middle" x="742" y="-130.5" font-family="Helvetica,sans-Serif" font-size="10.00">::singleshotTimer</text>
</a>
</g>
</g>
<!-- Node11&#45;&gt;Node17 -->
<g id="edge17_Node000011_Node000017" class="edge">
<title>Node11&#45;&gt;Node17</title>
<g id="a_edge17_Node000011_Node000017"><a xlink:title=" ">
<path fill="none" stroke="#63b8ff" d="M573.38,-267.29C589.74,-241.98 625.89,-191.17 669,-162.5 672.58,-160.12 676.42,-157.96 680.39,-155.99"/>
<polygon fill="#63b8ff" stroke="#63b8ff" points="682.13,-159.05 689.83,-151.77 679.28,-152.66 682.13,-159.05"/>
</a>
</g>
</g>
<!-- Node31 -->
<g id="Node000031" class="node">
<title>Node31</title>
<g id="a_Node000031"><a xlink:href="classcore_1_1SNodeC.html#a89f702217b0329573f527bda0021fd51" target="_top" xlink:title=" ">
<polygon fill="white" stroke="#666666" points="798.5,-372 685.5,-372 685.5,-353 798.5,-353 798.5,-372"/>
<text text-anchor="middle" x="742" y="-360" font-family="Helvetica,sans-Serif" font-size="10.00">core::SNodeC::state</text>
</a>
</g>
</g>
<!-- Node11&#45;&gt;Node31 -->
<g id="edge33_Node000011_Node000031" class="edge">
<title>Node11&#45;&gt;Node31</title>
<g id="a_edge33_Node000011_Node000031"><a xlink:title=" ">
<path fill="none" stroke="#63b8ff" d="M586.03,-297.66C606.68,-311.28 638.8,-331.01 669,-343.5 674.88,-345.93 681.16,-348.13 687.47,-350.1"/>
<polygon fill="#63b8ff" stroke="#63b8ff" points="686.77,-353.54 697.36,-352.99 688.74,-346.82 686.77,-353.54"/>
</a>
</g>
</g>
<!-- Node14 -->
<g id="Node000014" class="node">
<title>Node14</title>
<g id="a_Node000014"><a xlink:href="classcore_1_1socket_1_1State.html#ab07dc39fe7e79d46832a6ac89aa5e8ec" target="_top" xlink:title=" ">
<polygon fill="white" stroke="#666666" points="982,-297.5 875,-297.5 875,-267.5 982,-267.5 982,-297.5"/>
<text text-anchor="start" x="883" y="-285.5" font-family="Helvetica,sans-Serif" font-size="10.00">core::socket::State</text>
<text text-anchor="middle" x="928.5" y="-274.5" font-family="Helvetica,sans-Serif" font-size="10.00">::State</text>
</a>
</g>
</g>
<!-- Node13&#45;&gt;Node14 -->
<g id="edge13_Node000013_Node000014" class="edge">
<title>Node13&#45;&gt;Node14</title>
<g id="a_edge13_Node000013_Node000014"><a xlink:title=" ">
<path fill="none" stroke="#63b8ff" d="M795.87,-282.5C817.39,-282.5 842.42,-282.5 864.84,-282.5"/>
<polygon fill="#63b8ff" stroke="#63b8ff" points="864.94,-286 874.94,-282.5 864.94,-279 864.94,-286"/>
</a>
</g>
</g>
<!-- Node18 -->
<g id="Node000018" class="node">
<title>Node18</title>
<g id="a_Node000018"><a xlink:href="classcore_1_1timer_1_1SingleshotTimer.html#a021ce2f4c49323449bbe12b5f7025ab2" target="_top" xlink:title=" ">
<polygon fill="white" stroke="#666666" points="1006,-153.5 851,-153.5 851,-123.5 1006,-123.5 1006,-153.5"/>
<text text-anchor="start" x="859" y="-141.5" font-family="Helvetica,sans-Serif" font-size="10.00">core::timer::SingleshotTimer</text>
<text text-anchor="middle" x="928.5" y="-130.5" font-family="Helvetica,sans-Serif" font-size="10.00">::SingleshotTimer</text>
</a>
</g>
</g>
<!-- Node17&#45;&gt;Node18 -->
<g id="edge18_Node000017_Node000018" class="edge">
<title>Node17&#45;&gt;Node18</title>
<g id="a_edge18_Node000017_Node000018"><a xlink:title=" ">
<path fill="none" stroke="#63b8ff" d="M794.39,-138.5C808.74,-138.5 824.73,-138.5 840.52,-138.5"/>
<polygon fill="#63b8ff" stroke="#63b8ff" points="840.85,-142 850.85,-138.5 840.85,-135 840.85,-142"/>
</a>
</g>
</g>
<!-- Node19 -->
<g id="Node000019" class="node">
<title>Node19</title>
<g id="a_Node000019"><a xlink:href="classcore_1_1TimerEventReceiver.html#a807e13fae610d76c12480935855046aa" target="_top" xlink:title=" ">
<polygon fill="white" stroke="#666666" points="1184,-153.5 1042,-153.5 1042,-123.5 1184,-123.5 1184,-153.5"/>
<text text-anchor="start" x="1050" y="-141.5" font-family="Helvetica,sans-Serif" font-size="10.00">core::TimerEventReceiver</text>
<text text-anchor="middle" x="1113" y="-130.5" font-family="Helvetica,sans-Serif" font-size="10.00">::TimerEventReceiver</text>
</a>
</g>
</g>
<!-- Node18&#45;&gt;Node19 -->
<g id="edge19_Node000018_Node000019" class="edge">
<title>Node18&#45;&gt;Node19</title>
<g id="a_edge19_Node000018_Node000019"><a xlink:title=" ">
<path fill="none" stroke="#63b8ff" d="M1006.1,-138.5C1014.66,-138.5 1023.39,-138.5 1031.98,-138.5"/>
<polygon fill="#63b8ff" stroke="#63b8ff" points="1031.99,-142 1041.99,-138.5 1031.99,-135 1031.99,-142"/>
</a>
</g>
</g>
<!-- Node20 -->
<g id="Node000020" class="node">
<title>Node20</title>
<g id="a_Node000020"><a xlink:href="classutils_1_1Timeval.html#a54b232dc1ffeea007100dcd1caad1987" target="_top" xlink:title=" ">
<polygon fill="white" stroke="#666666" points="1367,-229 1220,-229 1220,-210 1367,-210 1367,-229"/>
<text text-anchor="middle" x="1293.5" y="-217" font-family="Helvetica,sans-Serif" font-size="10.00">utils::Timeval::currentTime</text>
</a>
</g>
</g>
<!-- Node19&#45;&gt;Node20 -->
<g id="edge20_Node000019_Node000020" class="edge">
<title>Node19&#45;&gt;Node20</title>
<g id="a_edge20_Node000019_Node000020"><a xlink:title=" ">
<path fill="none" stroke="#63b8ff" d="M1139.09,-153.6C1160.19,-165.9 1191.4,-183.19 1220,-195.5 1229.5,-199.59 1239.94,-203.41 1249.87,-206.76"/>
<polygon fill="#63b8ff" stroke="#63b8ff" points="1248.98,-210.15 1259.57,-209.93 1251.15,-203.5 1248.98,-210.15"/>
</a>
</g>
</g>
<!-- Node23 -->
<g id="Node000023" class="node">
<title>Node23</title>
<g id="a_Node000023"><a xlink:href="classcore_1_1EventReceiver.html#adec275118bd8a68e2b4cb71fa94d79b6" target="_top" xlink:title=" ">
<polygon fill="white" stroke="#666666" points="1350.5,-153.5 1236.5,-153.5 1236.5,-123.5 1350.5,-123.5 1350.5,-153.5"/>
<text text-anchor="start" x="1244.5" y="-141.5" font-family="Helvetica,sans-Serif" font-size="10.00">core::EventReceiver</text>
<text text-anchor="middle" x="1293.5" y="-130.5" font-family="Helvetica,sans-Serif" font-size="10.00">::EventReceiver</text>
</a>
</g>
</g>
<!-- Node19&#45;&gt;Node23 -->
<g id="edge23_Node000019_Node000023" class="edge">
<title>Node19&#45;&gt;Node23</title>
<g id="a_edge23_Node000019_Node000023"><a xlink:title=" ">
<path fill="none" stroke="#63b8ff" d="M1184.04,-138.5C1197.89,-138.5 1212.39,-138.5 1226.12,-138.5"/>
<polygon fill="#63b8ff" stroke="#63b8ff" points="1226.44,-142 1236.44,-138.5 1226.44,-135 1226.44,-142"/>
</a>
</g>
</g>
<!-- Node25 -->
<g id="Node000025" class="node">
<title>Node25</title>
<g id="a_Node000025"><a xlink:href="classcore_1_1EventLoop.html#a17f1623de6ca2ea2682c63cf502c3c36" target="_top" xlink:title=" ">
<polygon fill="white" stroke="#666666" points="1735,-185.5 1591,-185.5 1591,-155.5 1735,-155.5 1735,-185.5"/>
<text text-anchor="start" x="1599" y="-173.5" font-family="Helvetica,sans-Serif" font-size="10.00">core::EventLoop::getEvent</text>
<text text-anchor="middle" x="1663" y="-162.5" font-family="Helvetica,sans-Serif" font-size="10.00">Multiplexer</text>
</a>
</g>
</g>
<!-- Node19&#45;&gt;Node25 -->
<g id="edge27_Node000019_Node000025" class="edge">
<title>Node19&#45;&gt;Node25</title>
<g id="a_edge27_Node000019_Node000025"><a xlink:title=" ">
<path fill="none" stroke="#63b8ff" d="M1170.56,-153.55C1186.44,-157.16 1203.8,-160.54 1220,-162.5 1345.27,-177.65 1491.95,-176.64 1580.86,-173.98"/>
<polygon fill="#63b8ff" stroke="#63b8ff" points="1581,-177.48 1590.88,-173.66 1580.78,-170.48 1581,-177.48"/>
</a>
</g>
</g>
<!-- Node26 -->
<g id="Node000026" class="node">
<title>Node26</title>
<g id="a_Node000026"><a xlink:href="classcore_1_1EventLoop.html#a413d227511f68c2c9939719bd2590794" target="_top" xlink:title=" ">
<polygon fill="white" stroke="#666666" points="1734,-126 1592,-126 1592,-107 1734,-107 1734,-126"/>
<text text-anchor="middle" x="1663" y="-114" font-family="Helvetica,sans-Serif" font-size="10.00">core::EventLoop::instance</text>
</a>
</g>
</g>
<!-- Node19&#45;&gt;Node26 -->
<g id="edge29_Node000019_Node000026" class="edge">
<title>Node19&#45;&gt;Node26</title>
<g id="a_edge29_Node000019_Node000026"><a xlink:title=" ">
<path fill="none" stroke="#63b8ff" d="M1169.72,-123.44C1185.82,-119.76 1203.5,-116.34 1220,-114.5 1345.75,-100.44 1492.89,-105.32 1581.69,-110.58"/>
<polygon fill="#63b8ff" stroke="#63b8ff" points="1581.49,-114.07 1591.69,-111.19 1581.92,-107.09 1581.49,-114.07"/>
</a>
</g>
</g>
<!-- Node27 -->
<g id="Node000027" class="node">
<title>Node27</title>
<g id="a_Node000027"><a xlink:href="classcore_1_1EventMultiplexer.html#a4a0bcabd14e5588166b7df8c3c634938" target="_top" xlink:title=" ">
<polygon fill="white" stroke="#666666" points="1363,-67.5 1224,-67.5 1224,-37.5 1363,-37.5 1363,-67.5"/>
<text text-anchor="start" x="1232" y="-55.5" font-family="Helvetica,sans-Serif" font-size="10.00">core::EventMultiplexer</text>
<text text-anchor="middle" x="1293.5" y="-44.5" font-family="Helvetica,sans-Serif" font-size="10.00">::getTimerEventPublisher</text>
</a>
</g>
</g>
<!-- Node19&#45;&gt;Node27 -->
<g id="edge28_Node000019_Node000027" class="edge">
<title>Node19&#45;&gt;Node27</title>
<g id="a_edge28_Node000019_Node000027"><a xlink:title=" ">
<path fill="none" stroke="#63b8ff" d="M1140.15,-123.37C1161.35,-111.36 1192.17,-94.5 1220,-81.5 1227.42,-78.03 1235.38,-74.59 1243.21,-71.35"/>
<polygon fill="#63b8ff" stroke="#63b8ff" points="1244.7,-74.52 1252.65,-67.5 1242.06,-68.03 1244.7,-74.52"/>
</a>
</g>
</g>
<!-- Node28 -->
<g id="Node000028" class="node">
<title>Node28</title>
<g id="a_Node000028"><a xlink:href="classutils_1_1Timeval.html#ab2603e981dfbf12b15cbcfe4be2780a2" target="_top" xlink:title=" ">
<polygon fill="white" stroke="#666666" points="1362.5,-19 1224.5,-19 1224.5,0 1362.5,0 1362.5,-19"/>
<text text-anchor="middle" x="1293.5" y="-7" font-family="Helvetica,sans-Serif" font-size="10.00">utils::Timeval::operator+</text>
</a>
</g>
</g>
<!-- Node19&#45;&gt;Node28 -->
<g id="edge30_Node000019_Node000028" class="edge">
<title>Node19&#45;&gt;Node28</title>
<g id="a_edge30_Node000019_Node000028"><a xlink:title=" ">
<path fill="none" stroke="#63b8ff" d="M1124.45,-123.15C1141.56,-99.21 1177.9,-53.17 1220,-28.5 1223.83,-26.26 1227.92,-24.27 1232.15,-22.52"/>
<polygon fill="#63b8ff" stroke="#63b8ff" points="1233.38,-25.8 1241.54,-19.04 1230.95,-19.23 1233.38,-25.8"/>
</a>
</g>
</g>
<!-- Node30 -->
<g id="Node000030" class="node">
<title>Node30</title>
<g id="a_Node000030"><a xlink:href="classutils_1_1Timeval.html#aea8eba217c23b75fc9483aa3e6848367" target="_top" xlink:title=" ">
<polygon fill="white" stroke="#666666" points="1357.5,-266 1229.5,-266 1229.5,-247 1357.5,-247 1357.5,-266"/>
<text text-anchor="middle" x="1293.5" y="-254" font-family="Helvetica,sans-Serif" font-size="10.00">utils::Timeval::Timeval</text>
</a>
</g>
</g>
<!-- Node19&#45;&gt;Node30 -->
<g id="edge32_Node000019_Node000030" class="edge">
<title>Node19&#45;&gt;Node30</title>
<g id="a_edge32_Node000019_Node000030"><a xlink:title=" ">
<path fill="none" stroke="#63b8ff" d="M1125.98,-153.71C1144.03,-175.56 1180.31,-215.62 1220,-237.5 1224.02,-239.72 1228.31,-241.68 1232.71,-243.42"/>
<polygon fill="#63b8ff" stroke="#63b8ff" points="1231.89,-246.85 1242.49,-246.89 1234.23,-240.25 1231.89,-246.85"/>
</a>
</g>
</g>
<!-- Node21 -->
<g id="Node000021" class="node">
<title>Node21</title>
<g id="a_Node000021"><a xlink:href="namespaceutils_1_1system.html#ad594b7afe9fa80d3db04591c966422b2" target="_top" xlink:title=" ">
<polygon fill="white" stroke="#666666" points="1555,-266 1403,-266 1403,-247 1555,-247 1555,-266"/>
<text text-anchor="middle" x="1479" y="-254" font-family="Helvetica,sans-Serif" font-size="10.00">utils::system::gettimeofday</text>
</a>
</g>
</g>
<!-- Node20&#45;&gt;Node21 -->
<g id="edge21_Node000020_Node000021" class="edge">
<title>Node20&#45;&gt;Node21</title>
<g id="a_edge21_Node000020_Node000021"><a xlink:title=" ">
<path fill="none" stroke="#63b8ff" d="M1341.76,-229.03C1365.85,-233.89 1395.34,-239.83 1420.72,-244.95"/>
<polygon fill="#63b8ff" stroke="#63b8ff" points="1420.09,-248.39 1430.59,-246.94 1421.47,-241.53 1420.09,-248.39"/>
</a>
</g>
</g>
<!-- Node22 -->
<g id="Node000022" class="node">
<title>Node22</title>
<g id="a_Node000022"><a xlink:href="classutils_1_1Timeval.html#a4a554848a362fa40feef1c3f93c0c2e5" target="_top" xlink:title=" ">
<polygon fill="white" stroke="#666666" points="1547.5,-229 1410.5,-229 1410.5,-210 1547.5,-210 1547.5,-229"/>
<text text-anchor="middle" x="1479" y="-217" font-family="Helvetica,sans-Serif" font-size="10.00">utils::Timeval::operator&amp;</text>
</a>
</g>
</g>
<!-- Node20&#45;&gt;Node22 -->
<g id="edge22_Node000020_Node000022" class="edge">
<title>Node20&#45;&gt;Node22</title>
<g id="a_edge22_Node000020_Node000022"><a xlink:title=" ">
<path fill="none" stroke="#63b8ff" d="M1367.02,-219.5C1377.99,-219.5 1389.34,-219.5 1400.41,-219.5"/>
<polygon fill="#63b8ff" stroke="#63b8ff" points="1400.48,-223 1410.48,-219.5 1400.48,-216 1400.48,-223"/>
</a>
</g>
</g>
<!-- Node24 -->
<g id="Node000024" class="node">
<title>Node24</title>
<g id="a_Node000024"><a xlink:href="classcore_1_1Event.html#a81e45f64219d897d59324c9dd0573936" target="_top" xlink:title=" ">
<polygon fill="white" stroke="#666666" points="1531.5,-148 1426.5,-148 1426.5,-129 1531.5,-129 1531.5,-148"/>
<text text-anchor="middle" x="1479" y="-136" font-family="Helvetica,sans-Serif" font-size="10.00">core::Event::Event</text>
</a>
</g>
</g>
<!-- Node23&#45;&gt;Node24 -->
<g id="edge24_Node000023_Node000024" class="edge">
<title>Node23&#45;&gt;Node24</title>
<g id="a_edge24_Node000023_Node000024"><a xlink:title=" ">
<path fill="none" stroke="#63b8ff" d="M1350.55,-138.5C1371.3,-138.5 1394.92,-138.5 1416.15,-138.5"/>
<polygon fill="#63b8ff" stroke="#63b8ff" points="1416.35,-142 1426.35,-138.5 1416.35,-135 1416.35,-142"/>
</a>
</g>
</g>
<!-- Node24&#45;&gt;Node25 -->
<g id="edge25_Node000024_Node000025" class="edge">
<title>Node24&#45;&gt;Node25</title>
<g id="a_edge25_Node000024_Node000025"><a xlink:title=" ">
<path fill="none" stroke="#63b8ff" d="M1531.67,-147.58C1546.9,-150.26 1563.95,-153.26 1580.57,-156.18"/>
<polygon fill="#63b8ff" stroke="#63b8ff" points="1580.38,-159.7 1590.84,-157.99 1581.6,-152.81 1580.38,-159.7"/>
</a>
</g>
</g>
<!-- Node24&#45;&gt;Node26 -->
<g id="edge26_Node000024_Node000026" class="edge">
<title>Node24&#45;&gt;Node26</title>
<g id="a_edge26_Node000024_Node000026"><a xlink:title=" ">
<path fill="none" stroke="#63b8ff" d="M1531.67,-132.25C1547.3,-130.36 1564.86,-128.24 1581.9,-126.18"/>
<polygon fill="#63b8ff" stroke="#63b8ff" points="1582.35,-129.65 1591.85,-124.98 1581.51,-122.7 1582.35,-129.65"/>
</a>
</g>
</g>
<!-- Node29 -->
<g id="Node000029" class="node">
<title>Node29</title>
<g id="a_Node000029"><a xlink:href="classutils_1_1Timeval.html#af8b19ac507d5120c815d07da9f5146b1" target="_top" xlink:title=" ">
<polygon fill="white" stroke="#666666" points="1547.5,-19 1410.5,-19 1410.5,0 1547.5,0 1547.5,-19"/>
<text text-anchor="middle" x="1479" y="-7" font-family="Helvetica,sans-Serif" font-size="10.00">utils::Timeval::normalize</text>
</a>
</g>
</g>
<!-- Node28&#45;&gt;Node29 -->
<g id="edge31_Node000028_Node000029" class="edge">
<title>Node28&#45;&gt;Node29</title>
<g id="a_edge31_Node000028_Node000029"><a xlink:title=" ">
<path fill="none" stroke="#63b8ff" d="M1362.57,-9.5C1374.76,-9.5 1387.55,-9.5 1400,-9.5"/>
<polygon fill="#63b8ff" stroke="#63b8ff" points="1400.35,-13 1410.35,-9.5 1400.35,-6 1400.35,-13"/>
</a>
</g>
</g>
<!-- Node32 -->
<g id="Node000032" class="node">
<title>Node32</title>
<g id="a_Node000032"><a xlink:href="classcore_1_1EventLoop.html#a2a5630955f1449eb2141e711985590a7" target="_top" xlink:title=" ">
<polygon fill="white" stroke="#666666" points="1000.5,-375.5 856.5,-375.5 856.5,-345.5 1000.5,-345.5 1000.5,-375.5"/>
<text text-anchor="start" x="864.5" y="-363.5" font-family="Helvetica,sans-Serif" font-size="10.00">core::EventLoop::getEvent</text>
<text text-anchor="middle" x="928.5" y="-352.5" font-family="Helvetica,sans-Serif" font-size="10.00">LoopState</text>
</a>
</g>
</g>
<!-- Node31&#45;&gt;Node32 -->
<g id="edge34_Node000031_Node000032" class="edge">
<title>Node31&#45;&gt;Node32</title>
<g id="a_edge34_Node000031_Node000032"><a xlink:title=" ">
<path fill="none" stroke="#63b8ff" d="M798.61,-361.9C813.49,-361.74 829.89,-361.56 845.87,-361.38"/>
<polygon fill="#63b8ff" stroke="#63b8ff" points="846.32,-364.88 856.28,-361.27 846.24,-357.88 846.32,-364.88"/>
</a>
</g>
</g>
</g>
</svg>
