<?xml version="1.0" encoding="UTF-8" standalone="no"?>
<!DOCTYPE svg PUBLIC "-//W3C//DTD SVG 1.1//EN"
 "http://www.w3.org/Graphics/SVG/1.1/DTD/svg11.dtd">
<!-- Generated by graphviz version 14.1.2 (0)
 -->
<!-- Title: core::system::getnameinfo Pages: 1 -->
<svg width="517pt" height="170pt"
 viewBox="0.00 0.00 517.00 170.00" xmlns="http://www.w3.org/2000/svg" xmlns:xlink="http://www.w3.org/1999/xlink">
<g id="graph0" class="graph" transform="scale(1 1) rotate(0) translate(4 165.5)">
<title>core::system::getnameinfo</title>
<!-- Node1 -->
<g id="Node000001" class="node">
<title>Node1</title>
<g id="a_Node000001"><a xlink:title=" ">
<polygon fill="#999999" stroke="#666666" points="508.5,-59.12 361.25,-59.12 361.25,-38.38 508.5,-38.38 508.5,-59.12"/>
<text xml:space="preserve" text-anchor="middle" x="434.88" y="-45.62" font-family="Helvetica,sans-Serif" font-size="10.00">core::system::getnameinfo</text>
</a>
</g>
</g>
<!-- Node2 -->
<g id="Node000002" class="node">
<title>Node2</title>
<g id="a_Node000002"><a xlink:href="classnet_1_1in6_1_1SocketAddress.html#ab6e68fb9bcad3ebbd175105a71e3686a" target="_top" xlink:title=" ">
<polygon fill="white" stroke="#666666" points="325.25,-97.5 195.25,-97.5 195.25,-64 325.25,-64 325.25,-97.5"/>
<text xml:space="preserve" text-anchor="start" x="203.25" y="-84" font-family="Helvetica,sans-Serif" font-size="10.00">net::in6::SocketAddress</text>
<text xml:space="preserve" text-anchor="middle" x="260.25" y="-71.25" font-family="Helvetica,sans-Serif" font-size="10.00">::SocketAddress</text>
</a>
</g>
</g>
<!-- Node1&#45;&gt;Node2 -->
<g id="edge1_Node000001_Node000002" class="edge">
<title>Node1&#45;&gt;Node2</title>
<g id="a_edge1_Node000001_Node000002"><a xlink:title=" ">
<path fill="none" stroke="#63b8ff" d="M364.34,-61.64C351.53,-64.01 338.21,-66.48 325.56,-68.83"/>
<polygon fill="#63b8ff" stroke="#63b8ff" points="364.75,-65.12 373.94,-59.86 363.47,-58.24 364.75,-65.12"/>
</a>
</g>
</g>
<!-- Node5 -->
<g id="Node000005" class="node">
<title>Node5</title>
<g id="a_Node000005"><a xlink:href="classnet_1_1in_1_1SocketAddress.html#a9baecfd0d2c08553586614eb8c075869" target="_top" xlink:title=" ">
<polygon fill="white" stroke="#666666" points="322.25,-39.5 198.25,-39.5 198.25,-6 322.25,-6 322.25,-39.5"/>
<text xml:space="preserve" text-anchor="start" x="206.25" y="-26" font-family="Helvetica,sans-Serif" font-size="10.00">net::in::SocketAddress</text>
<text xml:space="preserve" text-anchor="middle" x="260.25" y="-13.25" font-family="Helvetica,sans-Serif" font-size="10.00">::SocketAddress</text>
</a>
</g>
</g>
<!-- Node1&#45;&gt;Node5 -->
<g id="edge4_Node000001_Node000005" class="edge">
<title>Node1&#45;&gt;Node5</title>
<g id="a_edge4_Node000001_Node000005"><a xlink:title=" ">
<path fill="none" stroke="#63b8ff" d="M350.99,-36.27C341.41,-34.82 331.79,-33.37 322.58,-31.99"/>
<polygon fill="#63b8ff" stroke="#63b8ff" points="350.26,-39.7 360.67,-37.72 351.3,-32.77 350.26,-39.7"/>
</a>
</g>
</g>
<!-- Node3 -->
<g id="Node000003" class="node">
<title>Node3</title>
<g id="a_Node000003"><a xlink:href="classnet_1_1in6_1_1config_1_1ConfigAddress.html#a612d98b77cfd73f5cd3ef0805fb94020" target="_top" xlink:title=" ">
<polygon fill="white" stroke="#666666" points="153.62,-161.5 5.62,-161.5 5.62,-128 153.62,-128 153.62,-161.5"/>
<text xml:space="preserve" text-anchor="start" x="13.62" y="-148" font-family="Helvetica,sans-Serif" font-size="10.00">net::in6::config::Config</text>
<text xml:space="preserve" text-anchor="middle" x="79.62" y="-135.25" font-family="Helvetica,sans-Serif" font-size="10.00">Address::getSocketAddress</text>
</a>
</g>
</g>
<!-- Node2&#45;&gt;Node3 -->
<g id="edge2_Node000002_Node000003" class="edge">
<title>Node2&#45;&gt;Node3</title>
<g id="a_edge2_Node000002_Node000003"><a xlink:title=" ">
<path fill="none" stroke="#63b8ff" d="M206.84,-101.92C191.57,-107.89 174.81,-114.25 159.25,-119.75 151.82,-122.38 143.96,-125.03 136.19,-127.57"/>
<polygon fill="#63b8ff" stroke="#63b8ff" points="207.71,-105.34 215.73,-98.42 205.15,-98.82 207.71,-105.34"/>
</a>
</g>
</g>
<!-- Node4 -->
<g id="Node000004" class="node">
<title>Node4</title>
<g id="a_Node000004"><a xlink:href="classnet_1_1in6_1_1config_1_1ConfigAddressReverse.html#ab91a6b9ee645823229f5bb0c8f337055" target="_top" xlink:title=" ">
<polygon fill="white" stroke="#666666" points="158.5,-110.25 0.75,-110.25 0.75,-51.25 158.5,-51.25 158.5,-110.25"/>
<text xml:space="preserve" text-anchor="start" x="8.75" y="-96.75" font-family="Helvetica,sans-Serif" font-size="10.00">net::in6::config::Config</text>
<text xml:space="preserve" text-anchor="start" x="8.75" y="-84" font-family="Helvetica,sans-Serif" font-size="10.00">AddressReverse&lt; net::config</text>
<text xml:space="preserve" text-anchor="start" x="8.75" y="-71.25" font-family="Helvetica,sans-Serif" font-size="10.00">::ConfigAddressReverse &gt;::</text>
<text xml:space="preserve" text-anchor="middle" x="79.62" y="-58.5" font-family="Helvetica,sans-Serif" font-size="10.00">getSocketAddress</text>
</a>
</g>
</g>
<!-- Node2&#45;&gt;Node4 -->
<g id="edge3_Node000002_Node000004" class="edge">
<title>Node2&#45;&gt;Node4</title>
<g id="a_edge3_Node000002_Node000004"><a xlink:title=" ">
<path fill="none" stroke="#63b8ff" d="M183.37,-80.75C175.21,-80.75 166.91,-80.75 158.73,-80.75"/>
<polygon fill="#63b8ff" stroke="#63b8ff" points="183.25,-84.25 193.25,-80.75 183.25,-77.25 183.25,-84.25"/>
</a>
</g>
</g>
<!-- Node6 -->
<g id="Node000006" class="node">
<title>Node6</title>
<g id="a_Node000006"><a xlink:href="classnet_1_1in_1_1config_1_1ConfigAddress.html#a0b6f0dbfa292f2530b9b1f2ef86dc306" target="_top" xlink:title=" ">
<polygon fill="white" stroke="#666666" points="159.25,-33.5 0,-33.5 0,0 159.25,0 159.25,-33.5"/>
<text xml:space="preserve" text-anchor="start" x="8" y="-20" font-family="Helvetica,sans-Serif" font-size="10.00">net::in::config::ConfigAddress</text>
<text xml:space="preserve" text-anchor="middle" x="79.62" y="-7.25" font-family="Helvetica,sans-Serif" font-size="10.00">::getSocketAddress</text>
</a>
</g>
</g>
<!-- Node5&#45;&gt;Node6 -->
<g id="edge5_Node000005_Node000006" class="edge">
<title>Node5&#45;&gt;Node6</title>
<g id="a_edge5_Node000005_Node000006"><a xlink:title=" ">
<path fill="none" stroke="#63b8ff" d="M186.34,-20.3C177.51,-20 168.47,-19.7 159.56,-19.4"/>
<polygon fill="#63b8ff" stroke="#63b8ff" points="186.15,-23.8 196.26,-20.63 186.39,-16.8 186.15,-23.8"/>
</a>
</g>
</g>
</g>
</svg>
