<?xml version="1.0" encoding="UTF-8" standalone="no"?>
<!DOCTYPE svg PUBLIC "-//W3C//DTD SVG 1.1//EN"
 "http://www.w3.org/Graphics/SVG/1.1/DTD/svg11.dtd">
<!-- Generated by graphviz version 2.42.4 (0)
 -->
<!-- Title: httputils::to_lower Pages: 1 -->
<svg width="773pt" height="167pt"
 viewBox="0.00 0.00 773.00 167.00" xmlns="http://www.w3.org/2000/svg" xmlns:xlink="http://www.w3.org/1999/xlink">
<g id="graph0" class="graph" transform="scale(1 1) rotate(0) translate(4 163)">
<title>httputils::to_lower</title>
<!-- Node1 -->
<g id="Node000001" class="node">
<title>Node1</title>
<g id="a_Node000001"><a xlink:title=" ">
<polygon fill="#999999" stroke="#666666" points="765,-89 660,-89 660,-70 765,-70 765,-89"/>
<text text-anchor="middle" x="712.5" y="-77" font-family="Helvetica,sans-Serif" font-size="10.00">httputils::to_lower</text>
</a>
</g>
</g>
<!-- Node2 -->
<g id="Node000002" class="node">
<title>Node2</title>
<g id="a_Node000002"><a xlink:href="classweb_1_1http_1_1client_1_1SocketContextUpgradeFactorySelector.html#ab9d337ebb5d81bf02b8b71c17c197491" target="_top" xlink:title=" ">
<polygon fill="white" stroke="#666666" points="624,-159 460,-159 460,-118 624,-118 624,-159"/>
<text text-anchor="start" x="468" y="-147" font-family="Helvetica,sans-Serif" font-size="10.00">web::http::client::</text>
<text text-anchor="start" x="468" y="-136" font-family="Helvetica,sans-Serif" font-size="10.00">SocketContextUpgradeFactory</text>
<text text-anchor="middle" x="542" y="-125" font-family="Helvetica,sans-Serif" font-size="10.00">Selector::select</text>
</a>
</g>
</g>
<!-- Node1&#45;&gt;Node2 -->
<g id="edge1_Node000001_Node000002" class="edge">
<title>Node1&#45;&gt;Node2</title>
<g id="a_edge1_Node000001_Node000002"><a xlink:title=" ">
<path fill="none" stroke="#63b8ff" d="M674.43,-92.48C653.17,-99.92 626,-109.44 601.88,-117.88"/>
<polygon fill="#63b8ff" stroke="#63b8ff" points="675.77,-95.72 684.05,-89.11 673.46,-89.11 675.77,-95.72"/>
</a>
</g>
</g>
<!-- Node5 -->
<g id="Node000005" class="node">
<title>Node5</title>
<g id="a_Node000005"><a xlink:href="classweb_1_1http_1_1client_1_1SocketContextUpgradeFactorySelector.html#a32992e094e0fb72c84974fdac58958e9" target="_top" xlink:title=" ">
<polygon fill="white" stroke="#666666" points="624,-100 460,-100 460,-59 624,-59 624,-100"/>
<text text-anchor="start" x="468" y="-88" font-family="Helvetica,sans-Serif" font-size="10.00">web::http::client::</text>
<text text-anchor="start" x="468" y="-77" font-family="Helvetica,sans-Serif" font-size="10.00">SocketContextUpgradeFactory</text>
<text text-anchor="middle" x="542" y="-66" font-family="Helvetica,sans-Serif" font-size="10.00">Selector::select</text>
</a>
</g>
</g>
<!-- Node1&#45;&gt;Node5 -->
<g id="edge4_Node000001_Node000005" class="edge">
<title>Node1&#45;&gt;Node5</title>
<g id="a_edge4_Node000001_Node000005"><a xlink:title=" ">
<path fill="none" stroke="#63b8ff" d="M649.37,-79.5C641.16,-79.5 632.66,-79.5 624.2,-79.5"/>
<polygon fill="#63b8ff" stroke="#63b8ff" points="649.57,-83 659.57,-79.5 649.57,-76 649.57,-83"/>
</a>
</g>
</g>
<!-- Node9 -->
<g id="Node000009" class="node">
<title>Node9</title>
<g id="a_Node000009"><a xlink:href="classweb_1_1http_1_1server_1_1SocketContextUpgradeFactorySelector.html#a0f3c3fc11f20bc704da83f07ad3fa2ff" target="_top" xlink:title=" ">
<polygon fill="white" stroke="#666666" points="624,-41 460,-41 460,0 624,0 624,-41"/>
<text text-anchor="start" x="468" y="-29" font-family="Helvetica,sans-Serif" font-size="10.00">web::http::server::</text>
<text text-anchor="start" x="468" y="-18" font-family="Helvetica,sans-Serif" font-size="10.00">SocketContextUpgradeFactory</text>
<text text-anchor="middle" x="542" y="-7" font-family="Helvetica,sans-Serif" font-size="10.00">Selector::select</text>
</a>
</g>
</g>
<!-- Node1&#45;&gt;Node9 -->
<g id="edge8_Node000001_Node000009" class="edge">
<title>Node1&#45;&gt;Node9</title>
<g id="a_edge8_Node000001_Node000009"><a xlink:title=" ">
<path fill="none" stroke="#63b8ff" d="M674.43,-66.52C653.17,-59.08 626,-49.56 601.88,-41.12"/>
<polygon fill="#63b8ff" stroke="#63b8ff" points="673.46,-69.89 684.05,-69.89 675.77,-63.28 673.46,-69.89"/>
</a>
</g>
</g>
<!-- Node3 -->
<g id="Node000003" class="node">
<title>Node3</title>
<g id="a_Node000003"><a xlink:href="classweb_1_1http_1_1client_1_1Request.html#aefca4984baddef470c2d9b74e18659cc" target="_top" xlink:title=" ">
<polygon fill="white" stroke="#666666" points="424,-153.5 281,-153.5 281,-123.5 424,-123.5 424,-153.5"/>
<text text-anchor="start" x="289" y="-141.5" font-family="Helvetica,sans-Serif" font-size="10.00">web::http::client::</text>
<text text-anchor="middle" x="352.5" y="-130.5" font-family="Helvetica,sans-Serif" font-size="10.00">Request::executeUpgrade</text>
</a>
</g>
</g>
<!-- Node2&#45;&gt;Node3 -->
<g id="edge2_Node000002_Node000003" class="edge">
<title>Node2&#45;&gt;Node3</title>
<g id="a_edge2_Node000002_Node000003"><a xlink:title=" ">
<path fill="none" stroke="#63b8ff" d="M449.78,-138.5C441.18,-138.5 432.55,-138.5 424.18,-138.5"/>
<polygon fill="#63b8ff" stroke="#63b8ff" points="449.85,-142 459.85,-138.5 449.85,-135 449.85,-142"/>
</a>
</g>
</g>
<!-- Node4 -->
<g id="Node000004" class="node">
<title>Node4</title>
<g id="a_Node000004"><a xlink:href="classweb_1_1http_1_1client_1_1commands_1_1UpgradeCommand.html#ab2186ec0dd5768ab05d4c1d9b8b19569" target="_top" xlink:title=" ">
<polygon fill="white" stroke="#666666" points="245,-159 77,-159 77,-118 245,-118 245,-159"/>
<text text-anchor="start" x="85" y="-147" font-family="Helvetica,sans-Serif" font-size="10.00">web::http::client::</text>
<text text-anchor="start" x="85" y="-136" font-family="Helvetica,sans-Serif" font-size="10.00">commands::UpgradeCommand</text>
<text text-anchor="middle" x="161" y="-125" font-family="Helvetica,sans-Serif" font-size="10.00">::execute</text>
</a>
</g>
</g>
<!-- Node3&#45;&gt;Node4 -->
<g id="edge3_Node000003_Node000004" class="edge">
<title>Node3&#45;&gt;Node4</title>
<g id="a_edge3_Node000003_Node000004"><a xlink:title=" ">
<path fill="none" stroke="#63b8ff" d="M270.7,-138.5C262.22,-138.5 253.59,-138.5 245.1,-138.5"/>
<polygon fill="#63b8ff" stroke="#63b8ff" points="270.94,-142 280.94,-138.5 270.94,-135 270.94,-142"/>
</a>
</g>
</g>
<!-- Node6 -->
<g id="Node000006" class="node">
<title>Node6</title>
<g id="a_Node000006"><a xlink:href="classweb_1_1http_1_1client_1_1Request.html#af5c824f2331e2fc195e5e6bf8e7cbde7" target="_top" xlink:title=" ">
<polygon fill="white" stroke="#666666" points="403.5,-94.5 301.5,-94.5 301.5,-64.5 403.5,-64.5 403.5,-94.5"/>
<text text-anchor="start" x="309.5" y="-82.5" font-family="Helvetica,sans-Serif" font-size="10.00">web::http::client::</text>
<text text-anchor="middle" x="352.5" y="-71.5" font-family="Helvetica,sans-Serif" font-size="10.00">Request::upgrade</text>
</a>
</g>
</g>
<!-- Node5&#45;&gt;Node6 -->
<g id="edge5_Node000005_Node000006" class="edge">
<title>Node5&#45;&gt;Node6</title>
<g id="a_edge5_Node000005_Node000006"><a xlink:title=" ">
<path fill="none" stroke="#63b8ff" d="M449.5,-79.5C433.71,-79.5 417.83,-79.5 403.66,-79.5"/>
<polygon fill="#63b8ff" stroke="#63b8ff" points="449.85,-83 459.85,-79.5 449.85,-76 449.85,-83"/>
</a>
</g>
</g>
<!-- Node7 -->
<g id="Node000007" class="node">
<title>Node7</title>
<g id="a_Node000007"><a xlink:href="classweb_1_1http_1_1client_1_1Request.html#a2a3785bbcede24525aa6bec39e8e777a" target="_top" xlink:title=" ">
<polygon fill="white" stroke="#666666" points="212,-94.5 110,-94.5 110,-64.5 212,-64.5 212,-94.5"/>
<text text-anchor="start" x="118" y="-82.5" font-family="Helvetica,sans-Serif" font-size="10.00">web::http::client::</text>
<text text-anchor="middle" x="161" y="-71.5" font-family="Helvetica,sans-Serif" font-size="10.00">Request::upgrade</text>
</a>
</g>
</g>
<!-- Node6&#45;&gt;Node7 -->
<g id="edge6_Node000006_Node000007" class="edge">
<title>Node6&#45;&gt;Node7</title>
<g id="a_edge6_Node000006_Node000007"><a xlink:title=" ">
<path fill="none" stroke="#63b8ff" d="M290.96,-79.5C265.56,-79.5 236.37,-79.5 212.19,-79.5"/>
<polygon fill="#63b8ff" stroke="#63b8ff" points="291.22,-83 301.21,-79.5 291.21,-76 291.22,-83"/>
</a>
</g>
</g>
<!-- Node8 -->
<g id="Node000008" class="node">
<title>Node8</title>
<g id="a_Node000008"><a xlink:href="websocket_2echoclient_8cpp.html#a0ddf1224851353fc92bfbff6f499fa97" target="_top" xlink:title=" ">
<polygon fill="white" stroke="#666666" points="41,-89 0,-89 0,-70 41,-70 41,-89"/>
<text text-anchor="middle" x="20.5" y="-77" font-family="Helvetica,sans-Serif" font-size="10.00">main</text>
</a>
</g>
</g>
<!-- Node7&#45;&gt;Node8 -->
<g id="edge7_Node000007_Node000008" class="edge">
<title>Node7&#45;&gt;Node8</title>
<g id="a_edge7_Node000007_Node000008"><a xlink:title=" ">
<path fill="none" stroke="#63b8ff" d="M99.77,-79.5C78.67,-79.5 56.44,-79.5 41.09,-79.5"/>
<polygon fill="#63b8ff" stroke="#63b8ff" points="100,-83 110,-79.5 100,-76 100,-83"/>
</a>
</g>
</g>
<!-- Node10 -->
<g id="Node000010" class="node">
<title>Node10</title>
<g id="a_Node000010"><a xlink:href="classweb_1_1http_1_1server_1_1Response.html#a8b01d5c0ea5bd4110818b9fac4fc1546" target="_top" xlink:title=" ">
<polygon fill="white" stroke="#666666" points="407.5,-35.5 297.5,-35.5 297.5,-5.5 407.5,-5.5 407.5,-35.5"/>
<text text-anchor="start" x="305.5" y="-23.5" font-family="Helvetica,sans-Serif" font-size="10.00">web::http::server::</text>
<text text-anchor="middle" x="352.5" y="-12.5" font-family="Helvetica,sans-Serif" font-size="10.00">Response::upgrade</text>
</a>
</g>
</g>
<!-- Node9&#45;&gt;Node10 -->
<g id="edge9_Node000009_Node000010" class="edge">
<title>Node9&#45;&gt;Node10</title>
<g id="a_edge9_Node000009_Node000010"><a xlink:title=" ">
<path fill="none" stroke="#63b8ff" d="M449.48,-20.5C435.19,-20.5 420.83,-20.5 407.73,-20.5"/>
<polygon fill="#63b8ff" stroke="#63b8ff" points="449.85,-24 459.85,-20.5 449.85,-17 449.85,-24"/>
</a>
</g>
</g>
<!-- Node11 -->
<g id="Node000011" class="node">
<title>Node11</title>
<g id="a_Node000011"><a xlink:href="classexpress_1_1Response.html#af5935953d7ef6ec6739b5774bc586a98" target="_top" xlink:title=" ">
<polygon fill="white" stroke="#666666" points="218,-35.5 104,-35.5 104,-5.5 218,-5.5 218,-35.5"/>
<text text-anchor="start" x="112" y="-23.5" font-family="Helvetica,sans-Serif" font-size="10.00">express::Response::</text>
<text text-anchor="middle" x="161" y="-12.5" font-family="Helvetica,sans-Serif" font-size="10.00">upgrade</text>
</a>
</g>
</g>
<!-- Node10&#45;&gt;Node11 -->
<g id="edge10_Node000010_Node000011" class="edge">
<title>Node10&#45;&gt;Node11</title>
<g id="a_edge10_Node000010_Node000011"><a xlink:title=" ">
<path fill="none" stroke="#63b8ff" d="M287.33,-20.5C264.87,-20.5 239.85,-20.5 218.1,-20.5"/>
<polygon fill="#63b8ff" stroke="#63b8ff" points="287.45,-24 297.45,-20.5 287.45,-17 287.45,-24"/>
</a>
</g>
</g>
<!-- Node12 -->
<g id="Node000012" class="node">
<title>Node12</title>
<g id="a_Node000012"><a xlink:href="websocket_2echoserver_8cpp.html#a0ddf1224851353fc92bfbff6f499fa97" target="_top" xlink:title=" ">
<polygon fill="white" stroke="#666666" points="41,-30 0,-30 0,-11 41,-11 41,-30"/>
<text text-anchor="middle" x="20.5" y="-18" font-family="Helvetica,sans-Serif" font-size="10.00">main</text>
</a>
</g>
</g>
<!-- Node11&#45;&gt;Node12 -->
<g id="edge11_Node000011_Node000012" class="edge">
<title>Node11&#45;&gt;Node12</title>
<g id="a_edge11_Node000011_Node000012"><a xlink:title=" ">
<path fill="none" stroke="#63b8ff" d="M93.44,-20.5C74.37,-20.5 55.02,-20.5 41.2,-20.5"/>
<polygon fill="#63b8ff" stroke="#63b8ff" points="93.67,-24 103.67,-20.5 93.67,-17 93.67,-24"/>
</a>
</g>
</g>
</g>
</svg>
