<?xml version="1.0" encoding="UTF-8" standalone="no"?>
<!DOCTYPE svg PUBLIC "-//W3C//DTD SVG 1.1//EN"
 "http://www.w3.org/Graphics/SVG/1.1/DTD/svg11.dtd">
<!-- Generated by graphviz version 14.1.1 (0)
 -->
<!-- Title: web::http::legacy::un::EventSource Pages: 1 -->
<!--zoomable 146 -->

<svg id="main" version="1.1" xmlns="http://www.w3.org/2000/svg" xmlns:xlink="http://www.w3.org/1999/xlink" xml:space="preserve" onload="init(evt)">

<style type="text/css"><![CDATA[
.node, .edge {opacity: 0.7;}
.node.selected, .edge.selected {opacity: 1;}
.edge:hover path { stroke: red; }
.edge:hover polygon { stroke: red; fill: red; }
]]></style>

<defs>
  <circle id="rim" cx="0" cy="0" r="7"/>
  <circle id="rim2" cx="0" cy="0" r="3.5"/>
  <g id="zoomPlus">
    <use xlink:href="#rim" fill="#404040"><set attributeName="fill" to="#808080" begin="zoomplus.mouseover" end="zoomplus.mouseout"/></use>
    <path d="M-4,0h8M0,-4v8" fill="none" stroke="white" stroke-width="1.5" pointer-events="none"/>
  </g>
  <g id="zoomMin">
    <use xlink:href="#rim" fill="#404040"><set attributeName="fill" to="#808080" begin="zoomminus.mouseover" end="zoomminus.mouseout"/></use>
    <path d="M-4,0h8" fill="none" stroke="white" stroke-width="1.5" pointer-events="none"/>
  </g>
  <g id="arrowUp" transform="translate(30 24)">
    <use xlink:href="#rim"/>
    <path pointer-events="none" fill="none" stroke="white" stroke-width="1.5" d="M0,-3.0v7 M-2.5,-0.5L0,-3.0L2.5,-0.5"/>
  </g>
  <g id="arrowRight" transform="rotate(90) translate(36 -43)">
    <use xlink:href="#rim"/>
    <path pointer-events="none" fill="none" stroke="white" stroke-width="1.5" d="M0,-3.0v7 M-2.5,-0.5L0,-3.0L2.5,-0.5"/>
  </g>
  <g id="arrowDown" transform="rotate(180) translate(-30 -48)">
    <use xlink:href="#rim"/>
    <path pointer-events="none" fill="none" stroke="white" stroke-width="1.5" d="M0,-3.0v7 M-2.5,-0.5L0,-3.0L2.5,-0.5"/>
  </g>
  <g id="arrowLeft" transform="rotate(270) translate(-36 17)">
    <use xlink:href="#rim"/>
    <path pointer-events="none" fill="none" stroke="white" stroke-width="1.5" d="M0,-3.0v7 M-2.5,-0.5L0,-3.0L2.5,-0.5"/>
  </g>
  <g id="resetDef">
    <use xlink:href="#rim2" fill="#404040"><set attributeName="fill" to="#808080" begin="reset.mouseover" end="reset.mouseout"/></use>
  </g>
</defs>
<script type="application/ecmascript">
var viewWidth = 591;
var viewHeight = 146;
var sectionId = 'dynsection-2';
</script>
<script type="application/ecmascript" xlink:href="svg.min.js"/>
<svg id="graph" class="graph">
<g id="viewport">
<title>web::http::legacy::un::EventSource</title>
<!-- Node1 -->
<g id="Node000001" class="node">
<title>Node1</title>
<g id="a_Node000001"><a xlink:title=" ">
<polygon fill="#999999" stroke="#666666" points="105.25,-111.5 0,-111.5 0,-78 105.25,-78 105.25,-111.5"/>
<text xml:space="preserve" text-anchor="start" x="8" y="-98" font-family="Helvetica,sans-Serif" font-size="10.00">web::http::legacy::</text>
<text xml:space="preserve" text-anchor="middle" x="52.62" y="-85.25" font-family="Helvetica,sans-Serif" font-size="10.00">un::EventSource</text>
</a>
</g>
</g>
<!-- Node2 -->
<g id="Node000002" class="node">
<title>Node2</title>
<g id="a_Node000002"><a xlink:href="namespaceweb_1_1http_1_1legacy_1_1un.html#ae1ddf6ebbbc0ee647d18b32d510ce49b" target="_top" xlink:title=" ">
<polygon fill="white" stroke="#666666" points="257.38,-137.5 152.12,-137.5 152.12,-104 257.38,-104 257.38,-137.5"/>
<text xml:space="preserve" text-anchor="start" x="160.12" y="-124" font-family="Helvetica,sans-Serif" font-size="10.00">web::http::legacy::</text>
<text xml:space="preserve" text-anchor="middle" x="204.75" y="-111.25" font-family="Helvetica,sans-Serif" font-size="10.00">un::EventSource</text>
</a>
</g>
</g>
<!-- Node1&#45;&gt;Node2 -->
<g id="edge1_Node000001_Node000002" class="edge">
<title>Node1&#45;&gt;Node2</title>
<g id="a_edge1_Node000001_Node000002"><a xlink:title=" ">
<path fill="none" stroke="#63b8ff" d="M105.71,-103.77C117.01,-105.73 129.07,-107.82 140.73,-109.84"/>
<polygon fill="#63b8ff" stroke="#63b8ff" points="139.81,-113.23 150.27,-111.49 141.01,-106.33 139.81,-113.23"/>
</a>
</g>
</g>
<!-- Node4 -->
<g id="Node000004" class="node">
<title>Node4</title>
<g id="a_Node000004"><a xlink:href="classnet_1_1un_1_1SocketAddress.html#a642b5904081eae12c546ad22f81022a9" target="_top" xlink:title=" ">
<polygon fill="white" stroke="#666666" points="268.25,-85.5 141.25,-85.5 141.25,-52 268.25,-52 268.25,-85.5"/>
<text xml:space="preserve" text-anchor="start" x="149.25" y="-72" font-family="Helvetica,sans-Serif" font-size="10.00">net::un::SocketAddress</text>
<text xml:space="preserve" text-anchor="middle" x="204.75" y="-59.25" font-family="Helvetica,sans-Serif" font-size="10.00">::SocketAddress</text>
</a>
</g>
</g>
<!-- Node1&#45;&gt;Node4 -->
<g id="edge3_Node000001_Node000004" class="edge">
<title>Node1&#45;&gt;Node4</title>
<g id="a_edge3_Node000001_Node000004"><a xlink:title=" ">
<path fill="none" stroke="#63b8ff" d="M105.71,-85.73C113.51,-84.38 121.68,-82.96 129.83,-81.55"/>
<polygon fill="#63b8ff" stroke="#63b8ff" points="130.15,-85.05 139.41,-79.89 128.96,-78.15 130.15,-85.05"/>
</a>
</g>
</g>
<!-- Node3 -->
<g id="Node000003" class="node">
<title>Node3</title>
<g id="a_Node000003"><a xlink:href="classweb_1_1http_1_1client_1_1tools_1_1EventSourceT.html#a17a6fe4c9364d85d498a7ccebfb963b9" target="_top" xlink:title=" ">
<polygon fill="white" stroke="#666666" points="438,-137.5 304.25,-137.5 304.25,-104 438,-104 438,-137.5"/>
<text xml:space="preserve" text-anchor="start" x="312.25" y="-124" font-family="Helvetica,sans-Serif" font-size="10.00">web::http::client::</text>
<text xml:space="preserve" text-anchor="middle" x="371.12" y="-111.25" font-family="Helvetica,sans-Serif" font-size="10.00">tools::EventSourceT::init</text>
</a>
</g>
</g>
<!-- Node2&#45;&gt;Node3 -->
<g id="edge2_Node000002_Node000003" class="edge">
<title>Node2&#45;&gt;Node3</title>
<g id="a_edge2_Node000002_Node000003"><a xlink:title=" ">
<path fill="none" stroke="#63b8ff" d="M257.76,-120.75C268.88,-120.75 280.85,-120.75 292.7,-120.75"/>
<polygon fill="#63b8ff" stroke="#63b8ff" points="292.46,-124.25 302.46,-120.75 292.46,-117.25 292.46,-124.25"/>
</a>
</g>
</g>
<!-- Node5 -->
<g id="Node000005" class="node">
<title>Node5</title>
<g id="a_Node000005"><a xlink:href="classnet_1_1un_1_1SocketAddress.html#a49fbd9ea9492860695bd6ba6273a6af8" target="_top" xlink:title=" ">
<polygon fill="white" stroke="#666666" points="434.62,-85.5 307.62,-85.5 307.62,-52 434.62,-52 434.62,-85.5"/>
<text xml:space="preserve" text-anchor="start" x="315.62" y="-72" font-family="Helvetica,sans-Serif" font-size="10.00">net::un::SocketAddress</text>
<text xml:space="preserve" text-anchor="middle" x="371.12" y="-59.25" font-family="Helvetica,sans-Serif" font-size="10.00">::setSunPath</text>
</a>
</g>
</g>
<!-- Node4&#45;&gt;Node5 -->
<g id="edge4_Node000004_Node000005" class="edge">
<title>Node4&#45;&gt;Node5</title>
<g id="a_edge4_Node000004_Node000005"><a xlink:title=" ">
<path fill="none" stroke="#63b8ff" d="M268.36,-68.75C277.29,-68.75 286.55,-68.75 295.68,-68.75"/>
<polygon fill="#63b8ff" stroke="#63b8ff" points="295.63,-72.25 305.63,-68.75 295.63,-65.25 295.63,-72.25"/>
</a>
</g>
</g>
<!-- Node6 -->
<g id="Node000006" class="node">
<title>Node6</title>
<g id="a_Node000006"><a xlink:href="classnet_1_1un_1_1SocketAddress.html#af20aa53a2d0f4d9684b9a27d33176568" target="_top" xlink:title=" ">
<polygon fill="white" stroke="#666666" points="434.62,-33.5 307.62,-33.5 307.62,0 434.62,0 434.62,-33.5"/>
<text xml:space="preserve" text-anchor="start" x="315.62" y="-20" font-family="Helvetica,sans-Serif" font-size="10.00">net::un::SocketAddress</text>
<text xml:space="preserve" text-anchor="middle" x="371.12" y="-7.25" font-family="Helvetica,sans-Serif" font-size="10.00">::SocketAddress</text>
</a>
</g>
</g>
<!-- Node4&#45;&gt;Node6 -->
<g id="edge5_Node000004_Node000006" class="edge">
<title>Node4&#45;&gt;Node6</title>
<g id="a_edge5_Node000004_Node000006"><a xlink:title=" ">
<path fill="none" stroke="#63b8ff" d="M260.03,-51.58C274.4,-47.03 290.07,-42.08 304.95,-37.37"/>
<polygon fill="#63b8ff" stroke="#63b8ff" points="305.7,-40.8 314.18,-34.45 303.59,-34.13 305.7,-40.8"/>
</a>
</g>
</g>
<!-- Node7 -->
<g id="Node000007" class="node">
<title>Node7</title>
<g id="a_Node000007"><a xlink:href="classnet_1_1SocketAddress.html#a477678abbcb3cd5117d6ad68a8fb9c7c" target="_top" xlink:title=" ">
<polygon fill="white" stroke="#666666" points="583,-33.5 474,-33.5 474,0 583,0 583,-33.5"/>
<text xml:space="preserve" text-anchor="start" x="482" y="-20" font-family="Helvetica,sans-Serif" font-size="10.00">net::SocketAddress</text>
<text xml:space="preserve" text-anchor="middle" x="528.5" y="-7.25" font-family="Helvetica,sans-Serif" font-size="10.00">::SocketAddress</text>
</a>
</g>
</g>
<!-- Node6&#45;&gt;Node7 -->
<g id="edge6_Node000006_Node000007" class="edge">
<title>Node6&#45;&gt;Node7</title>
<g id="a_edge6_Node000006_Node000007"><a xlink:title=" ">
<path fill="none" stroke="#63b8ff" d="M434.87,-16.75C443.88,-16.75 453.15,-16.75 462.2,-16.75"/>
<polygon fill="#63b8ff" stroke="#63b8ff" points="461.99,-20.25 471.99,-16.75 461.99,-13.25 461.99,-20.25"/>
</a>
</g>
</g>
</g>
</svg>

<g id="navigator" transform="translate(0 0)" fill="#404254">
  <rect fill="#f2f5e9" fill-opacity="0.5" stroke="#606060" stroke-width=".5" x="0" y="0" width="60" height="60"/>
  <use id="zoomplus" xlink:href="#zoomPlus" x="17" y="9" onmousedown="handleZoom(evt,'in')"/>
  <use id="zoomminus" xlink:href="#zoomMin" x="42" y="9" onmousedown="handleZoom(evt,'out')"/>
  <use id="reset" xlink:href="#resetDef" x="30" y="36" onmousedown="handleReset()"/>
   <use id="arrowup" xlink:href="#arrowUp" x="0" y="0" onmousedown="handlePan(0,-1)"/>
  <use id="arrowright" xlink:href="#arrowRight" x="0" y="0" onmousedown="handlePan(1,0)"/>
  <use id="arrowdown" xlink:href="#arrowDown" x="0" y="0" onmousedown="handlePan(0,1)"/>
  <use id="arrowleft" xlink:href="#arrowLeft" x="0" y="0" onmousedown="handlePan(-1,0)"/>
</g>
<svg viewBox="0 0 15 15" width="100%" height="30px" preserveAspectRatio="xMaxYMin meet">
 <g id="arrow_out" transform="scale(0.3 0.3)">
  <a xlink:href="namespaceweb_1_1http_1_1legacy_1_1un_a96730204f09f64e4a2ebcf48a3bee194_cgraph_org.svg" target="_base">
   <rect id="button" ry="5" rx="5" y="6" x="6" height="38" width="38"
        fill="#f2f5e9" fill-opacity="0.5" stroke="#606060" stroke-width="1.0"/>
   <path id="arrow"
     d="M 11.500037,31.436501 C 11.940474,20.09759 22.043105,11.32322 32.158766,21.979434 L 37.068811,17.246167 C 37.068811,17.246167 37.088388,32 37.088388,32 L 22.160133,31.978069 C 22.160133,31.978069 26.997745,27.140456 26.997745,27.140456 C 18.528582,18.264221 13.291696,25.230495 11.500037,31.436501 z"
     style="fill:#404040;"/>
  </a>
 </g>
</svg>

<style type='text/css'>
<![CDATA[
[data-mouse-over-selected='false'] { opacity: 0.7; }
[data-mouse-over-selected='true']  { opacity: 1.0; }
]]>
</style>
<script type="application/ecmascript"><![CDATA[
document.addEventListener('DOMContentLoaded', (event) => {
  highlightEdges();
  highlightAdjacentNodes();
});
]]></script>
</svg>
