<?xml version="1.0" encoding="UTF-8" standalone="no"?>
<!DOCTYPE svg PUBLIC "-//W3C//DTD SVG 1.1//EN"
 "http://www.w3.org/Graphics/SVG/1.1/DTD/svg11.dtd">
<!-- Generated by graphviz version 14.1.2 (0)
 -->
<!-- Title: express::tls::in6::Server Pages: 1 -->
<!--zoomable 416 -->

<svg id="main" version="1.1" xmlns="http://www.w3.org/2000/svg" xmlns:xlink="http://www.w3.org/1999/xlink" xml:space="preserve" onload="init(evt)">

<style type="text/css"><![CDATA[
.node, .edge {opacity: 0.7;}
.node.selected, .edge.selected {opacity: 1;}
.edge:hover path { stroke: red; }
.edge:hover polygon { stroke: red; fill: red; }
]]></style>

<defs>
  <circle id="rim" cx="0" cy="0" r="7"/>
  <circle id="rim2" cx="0" cy="0" r="3.5"/>
  <g id="zoomPlus">
    <use xlink:href="#rim" fill="#404040"><set attributeName="fill" to="#808080" begin="zoomplus.mouseover" end="zoomplus.mouseout"/></use>
    <path d="M-4,0h8M0,-4v8" fill="none" stroke="white" stroke-width="1.5" pointer-events="none"/>
  </g>
  <g id="zoomMin">
    <use xlink:href="#rim" fill="#404040"><set attributeName="fill" to="#808080" begin="zoomminus.mouseover" end="zoomminus.mouseout"/></use>
    <path d="M-4,0h8" fill="none" stroke="white" stroke-width="1.5" pointer-events="none"/>
  </g>
  <g id="arrowUp" transform="translate(30 24)">
    <use xlink:href="#rim"/>
    <path pointer-events="none" fill="none" stroke="white" stroke-width="1.5" d="M0,-3.0v7 M-2.5,-0.5L0,-3.0L2.5,-0.5"/>
  </g>
  <g id="arrowRight" transform="rotate(90) translate(36 -43)">
    <use xlink:href="#rim"/>
    <path pointer-events="none" fill="none" stroke="white" stroke-width="1.5" d="M0,-3.0v7 M-2.5,-0.5L0,-3.0L2.5,-0.5"/>
  </g>
  <g id="arrowDown" transform="rotate(180) translate(-30 -48)">
    <use xlink:href="#rim"/>
    <path pointer-events="none" fill="none" stroke="white" stroke-width="1.5" d="M0,-3.0v7 M-2.5,-0.5L0,-3.0L2.5,-0.5"/>
  </g>
  <g id="arrowLeft" transform="rotate(270) translate(-36 17)">
    <use xlink:href="#rim"/>
    <path pointer-events="none" fill="none" stroke="white" stroke-width="1.5" d="M0,-3.0v7 M-2.5,-0.5L0,-3.0L2.5,-0.5"/>
  </g>
  <g id="resetDef">
    <use xlink:href="#rim2" fill="#404040"><set attributeName="fill" to="#808080" begin="reset.mouseover" end="reset.mouseout"/></use>
  </g>
</defs>
<script type="application/ecmascript">
var viewWidth = 1522;
var viewHeight = 416;
var sectionId = 'dynsection-4';
</script>
<script type="application/ecmascript" xlink:href="svg.min.js"/>
<svg id="graph" class="graph">
<g id="viewport">
<title>express::tls::in6::Server</title>
<!-- Node1 -->
<g id="Node000001" class="node">
<title>Node1</title>
<g id="a_Node000001"><a xlink:title=" ">
<polygon fill="#999999" stroke="#666666" points="99.25,-301.5 0,-301.5 0,-268 99.25,-268 99.25,-301.5"/>
<text xml:space="preserve" text-anchor="start" x="8" y="-288" font-family="Helvetica,sans-Serif" font-size="10.00">express::tls::in6::</text>
<text xml:space="preserve" text-anchor="middle" x="49.62" y="-275.25" font-family="Helvetica,sans-Serif" font-size="10.00">Server</text>
</a>
</g>
</g>
<!-- Node2 -->
<g id="Node000002" class="node">
<title>Node2</title>
<g id="a_Node000002"><a xlink:href="classexpress_1_1Router.html#ae7ad7fb1a5d240f338865485e7b04070" target="_top" xlink:title=" ">
<polygon fill="white" stroke="#666666" points="266,-318.12 135.25,-318.12 135.25,-297.38 266,-297.38 266,-318.12"/>
<text xml:space="preserve" text-anchor="middle" x="200.62" y="-304.62" font-family="Helvetica,sans-Serif" font-size="10.00">express::Router::Router</text>
</a>
</g>
</g>
<!-- Node1&#45;&gt;Node2 -->
<g id="edge1_Node000001_Node000002" class="edge">
<title>Node1&#45;&gt;Node2</title>
<g id="a_edge1_Node000001_Node000002"><a xlink:title=" ">
<path fill="none" stroke="#63b8ff" d="M99.41,-292.28C107.23,-293.49 115.48,-294.76 123.75,-296.04"/>
<polygon fill="#63b8ff" stroke="#63b8ff" points="123.1,-299.48 133.51,-297.54 124.16,-292.56 123.1,-299.48"/>
</a>
</g>
</g>
<!-- Node3 -->
<g id="Node000003" class="node">
<title>Node3</title>
<g id="a_Node000003"><a xlink:href="namespaceexpress_1_1tls_1_1in6.html#a3313cd9aac01fc9e4bc1c41fc84ae47f" target="_top" xlink:title=" ">
<polygon fill="white" stroke="#666666" points="250.25,-279.5 151,-279.5 151,-246 250.25,-246 250.25,-279.5"/>
<text xml:space="preserve" text-anchor="start" x="159" y="-266" font-family="Helvetica,sans-Serif" font-size="10.00">express::tls::in6::</text>
<text xml:space="preserve" text-anchor="middle" x="200.62" y="-253.25" font-family="Helvetica,sans-Serif" font-size="10.00">Server</text>
</a>
</g>
</g>
<!-- Node1&#45;&gt;Node3 -->
<g id="edge2_Node000001_Node000003" class="edge">
<title>Node1&#45;&gt;Node3</title>
<g id="a_edge2_Node000001_Node000003"><a xlink:title=" ">
<path fill="none" stroke="#63b8ff" d="M99.41,-277.55C112.28,-275.65 126.31,-273.58 139.68,-271.6"/>
<polygon fill="#63b8ff" stroke="#63b8ff" points="139.85,-275.11 149.23,-270.19 138.83,-268.19 139.85,-275.11"/>
</a>
</g>
</g>
<!-- Node4 -->
<g id="Node000004" class="node">
<title>Node4</title>
<g id="a_Node000004"><a xlink:href="classcore_1_1socket_1_1Socket.html#ac9b7df3682b2a24b5c7fce9bcff1c441" target="_top" xlink:title=" ">
<polygon fill="white" stroke="#666666" points="437.62,-407.5 324.88,-407.5 324.88,-374 437.62,-374 437.62,-407.5"/>
<text xml:space="preserve" text-anchor="start" x="332.88" y="-394" font-family="Helvetica,sans-Serif" font-size="10.00">core::socket::Socket</text>
<text xml:space="preserve" text-anchor="middle" x="381.25" y="-381.25" font-family="Helvetica,sans-Serif" font-size="10.00">::getConfig</text>
</a>
</g>
</g>
<!-- Node3&#45;&gt;Node4 -->
<g id="edge3_Node000003_Node000004" class="edge">
<title>Node3&#45;&gt;Node4</title>
<g id="a_edge3_Node000003_Node000004"><a xlink:title=" ">
<path fill="none" stroke="#63b8ff" d="M250.42,-277.78C256.08,-280.82 261.44,-284.45 266,-288.75 293.19,-314.39 274.01,-339.98 302,-364.75 305.78,-368.1 310,-371.01 314.48,-373.56"/>
<polygon fill="#63b8ff" stroke="#63b8ff" points="312.72,-376.59 323.24,-377.88 315.82,-370.32 312.72,-376.59"/>
</a>
</g>
</g>
<!-- Node5 -->
<g id="Node000005" class="node">
<title>Node5</title>
<g id="a_Node000005"><a xlink:href="classexpress_1_1Router.html#ac3107c8acf16cdccc5adb23623fda8c9" target="_top" xlink:title=" ">
<polygon fill="white" stroke="#666666" points="455.25,-356.12 307.25,-356.12 307.25,-335.38 455.25,-335.38 455.25,-356.12"/>
<text xml:space="preserve" text-anchor="middle" x="381.25" y="-342.62" font-family="Helvetica,sans-Serif" font-size="10.00">express::Router::getRoutes</text>
</a>
</g>
</g>
<!-- Node3&#45;&gt;Node5 -->
<g id="edge4_Node000003_Node000005" class="edge">
<title>Node3&#45;&gt;Node5</title>
<g id="a_edge4_Node000003_Node000005"><a xlink:title=" ">
<path fill="none" stroke="#63b8ff" d="M249.69,-279.91C255.34,-282.58 260.9,-285.53 266,-288.75 284.36,-300.33 283.16,-310.97 302,-321.75 308.38,-325.4 315.38,-328.56 322.48,-331.27"/>
<polygon fill="#63b8ff" stroke="#63b8ff" points="320.88,-334.42 331.48,-334.43 323.2,-327.81 320.88,-334.42"/>
</a>
</g>
</g>
<!-- Node11 -->
<g id="Node000011" class="node">
<title>Node11</title>
<g id="a_Node000011"><a xlink:href="classcore_1_1socket_1_1stream_1_1SocketServer.html#a9a713f1b302ec01e28621b606af23e4c" target="_top" xlink:title=" ">
<polygon fill="white" stroke="#666666" points="440.62,-279.5 321.88,-279.5 321.88,-246 440.62,-246 440.62,-279.5"/>
<text xml:space="preserve" text-anchor="start" x="329.88" y="-266" font-family="Helvetica,sans-Serif" font-size="10.00">core::socket::stream</text>
<text xml:space="preserve" text-anchor="middle" x="381.25" y="-253.25" font-family="Helvetica,sans-Serif" font-size="10.00">::SocketServer::listen</text>
</a>
</g>
</g>
<!-- Node3&#45;&gt;Node11 -->
<g id="edge10_Node000003_Node000011" class="edge">
<title>Node3&#45;&gt;Node11</title>
<g id="a_edge10_Node000003_Node000011"><a xlink:title=" ">
<path fill="none" stroke="#63b8ff" d="M250.44,-262.75C268.91,-262.75 290.33,-262.75 310.37,-262.75"/>
<polygon fill="#63b8ff" stroke="#63b8ff" points="310.14,-266.25 320.14,-262.75 310.14,-259.25 310.14,-266.25"/>
</a>
</g>
</g>
<!-- Node23 -->
<g id="Node000023" class="node">
<title>Node23</title>
<g id="a_Node000023"><a xlink:href="classlogger_1_1LogMessage.html#a089741bbcda92449732c3e105088059e" target="_top" xlink:title=" ">
<polygon fill="white" stroke="#666666" points="801.5,-324.5 688,-324.5 688,-291 801.5,-291 801.5,-324.5"/>
<text xml:space="preserve" text-anchor="start" x="696" y="-311" font-family="Helvetica,sans-Serif" font-size="10.00">logger::LogMessage</text>
<text xml:space="preserve" text-anchor="middle" x="744.75" y="-298.25" font-family="Helvetica,sans-Serif" font-size="10.00">::LogMessage</text>
</a>
</g>
</g>
<!-- Node3&#45;&gt;Node23 -->
<g id="edge30_Node000003_Node000023" class="edge">
<title>Node3&#45;&gt;Node23</title>
<g id="a_edge30_Node000003_Node000023"><a xlink:title=" ">
<path fill="none" stroke="#63b8ff" d="M250.72,-277.67C266.9,-281.99 285.09,-286.22 302,-288.75 433.51,-308.39 589.31,-310.15 676.31,-309.23"/>
<polygon fill="#63b8ff" stroke="#63b8ff" points="676.13,-312.74 686.09,-309.12 676.05,-305.74 676.13,-312.74"/>
</a>
</g>
</g>
<!-- Node30 -->
<g id="Node000030" class="node">
<title>Node30</title>
<g id="a_Node000030"><a xlink:href="classnet_1_1in6_1_1SocketAddress.html#a9bfaca78da4c3c9a1200507704b77d00" target="_top" xlink:title=" ">
<polygon fill="white" stroke="#666666" points="446.25,-227.5 316.25,-227.5 316.25,-194 446.25,-194 446.25,-227.5"/>
<text xml:space="preserve" text-anchor="start" x="324.25" y="-214" font-family="Helvetica,sans-Serif" font-size="10.00">net::in6::SocketAddress</text>
<text xml:space="preserve" text-anchor="middle" x="381.25" y="-201.25" font-family="Helvetica,sans-Serif" font-size="10.00">::toString</text>
</a>
</g>
</g>
<!-- Node3&#45;&gt;Node30 -->
<g id="edge31_Node000003_Node000030" class="edge">
<title>Node3&#45;&gt;Node30</title>
<g id="a_edge31_Node000003_Node000030"><a xlink:title=" ">
<path fill="none" stroke="#63b8ff" d="M250.44,-248.54C268.82,-243.19 290.12,-236.99 310.08,-231.18"/>
<polygon fill="#63b8ff" stroke="#63b8ff" points="310.93,-234.58 319.55,-228.42 308.97,-227.86 310.93,-234.58"/>
</a>
</g>
</g>
<!-- Node31 -->
<g id="Node000031" class="node">
<title>Node31</title>
<g id="a_Node000031"><a xlink:href="classexpress_1_1WebAppT.html#a4c662b444a547c8bb9ba4f959d3362ac" target="_top" xlink:title=" ">
<polygon fill="white" stroke="#666666" points="460.5,-176.12 302,-176.12 302,-155.38 460.5,-155.38 460.5,-176.12"/>
<text xml:space="preserve" text-anchor="middle" x="381.25" y="-162.62" font-family="Helvetica,sans-Serif" font-size="10.00">express::WebAppT::WebAppT</text>
</a>
</g>
</g>
<!-- Node3&#45;&gt;Node31 -->
<g id="edge32_Node000003_Node000031" class="edge">
<title>Node3&#45;&gt;Node31</title>
<g id="a_edge32_Node000003_Node000031"><a xlink:title=" ">
<path fill="none" stroke="#63b8ff" d="M218.91,-245.53C237.77,-227.73 269.6,-200.38 302,-184.75 305.34,-183.14 308.82,-181.66 312.39,-180.3"/>
<polygon fill="#63b8ff" stroke="#63b8ff" points="313.51,-183.62 321.83,-177.06 311.24,-177 313.51,-183.62"/>
</a>
</g>
</g>
<!-- Node32 -->
<g id="Node000032" class="node">
<title>Node32</title>
<g id="a_Node000032"><a xlink:href="classcore_1_1socket_1_1State.html#a55b6abd55034b331fae4c9e085007dfa" target="_top" xlink:title=" ">
<polygon fill="white" stroke="#666666" points="434.25,-137.5 328.25,-137.5 328.25,-104 434.25,-104 434.25,-137.5"/>
<text xml:space="preserve" text-anchor="start" x="336.25" y="-124" font-family="Helvetica,sans-Serif" font-size="10.00">core::socket::State</text>
<text xml:space="preserve" text-anchor="middle" x="381.25" y="-111.25" font-family="Helvetica,sans-Serif" font-size="10.00">::what</text>
</a>
</g>
</g>
<!-- Node3&#45;&gt;Node32 -->
<g id="edge33_Node000003_Node000032" class="edge">
<title>Node3&#45;&gt;Node32</title>
<g id="a_edge33_Node000003_Node000032"><a xlink:title=" ">
<path fill="none" stroke="#63b8ff" d="M212.1,-245.61C228.34,-220.43 261.92,-173.53 302,-146.75 306.79,-143.55 312,-140.72 317.39,-138.21"/>
<polygon fill="#63b8ff" stroke="#63b8ff" points="318.65,-141.48 326.51,-134.37 315.93,-135.02 318.65,-141.48"/>
</a>
</g>
</g>
<!-- Node6 -->
<g id="Node000006" class="node">
<title>Node6</title>
<g id="a_Node000006"><a xlink:href="classexpress_1_1RootRoute.html#a79b53a07452e053898fbd0ccb17ead8a" target="_top" xlink:title=" ">
<polygon fill="white" stroke="#666666" points="622,-375.5 510.75,-375.5 510.75,-342 622,-342 622,-375.5"/>
<text xml:space="preserve" text-anchor="start" x="518.75" y="-362" font-family="Helvetica,sans-Serif" font-size="10.00">express::RootRoute</text>
<text xml:space="preserve" text-anchor="middle" x="566.38" y="-349.25" font-family="Helvetica,sans-Serif" font-size="10.00">::getRoutes</text>
</a>
</g>
</g>
<!-- Node5&#45;&gt;Node6 -->
<g id="edge5_Node000005_Node000006" class="edge">
<title>Node5&#45;&gt;Node6</title>
<g id="a_edge5_Node000005_Node000006"><a xlink:title=" ">
<path fill="none" stroke="#63b8ff" d="M455.68,-350.96C470.05,-351.98 485.04,-353.05 499.15,-354.05"/>
<polygon fill="#63b8ff" stroke="#63b8ff" points="498.53,-357.51 508.75,-354.73 499.02,-350.53 498.53,-357.51"/>
</a>
</g>
</g>
<!-- Node7 -->
<g id="Node000007" class="node">
<title>Node7</title>
<g id="a_Node000007"><a xlink:href="classexpress_1_1dispatcher_1_1RouterDispatcher.html#a7c837fd8f7e105a2b034de81e74289d2" target="_top" xlink:title=" ">
<polygon fill="white" stroke="#666666" points="801.12,-388.88 688.38,-388.88 688.38,-342.62 801.12,-342.62 801.12,-388.88"/>
<text xml:space="preserve" text-anchor="start" x="696.38" y="-375.38" font-family="Helvetica,sans-Serif" font-size="10.00">express::dispatcher</text>
<text xml:space="preserve" text-anchor="start" x="696.38" y="-362.62" font-family="Helvetica,sans-Serif" font-size="10.00">::RouterDispatcher::</text>
<text xml:space="preserve" text-anchor="middle" x="744.75" y="-349.88" font-family="Helvetica,sans-Serif" font-size="10.00">getRoutes</text>
</a>
</g>
</g>
<!-- Node6&#45;&gt;Node7 -->
<g id="edge6_Node000006_Node000007" class="edge">
<title>Node6&#45;&gt;Node7</title>
<g id="a_edge6_Node000006_Node000007"><a xlink:title=" ">
<path fill="none" stroke="#63b8ff" d="M622.21,-360.93C639.47,-361.61 658.72,-362.38 676.72,-363.09"/>
<polygon fill="#63b8ff" stroke="#63b8ff" points="676.39,-366.58 686.52,-363.48 676.67,-359.58 676.39,-366.58"/>
</a>
</g>
</g>
<!-- Node8 -->
<g id="Node000008" class="node">
<title>Node8</title>
<g id="a_Node000008"><a xlink:href="classexpress_1_1dispatcher_1_1RouterDispatcher.html#a307182bc588db8d70172911c5ad2a3ea" target="_top" xlink:title=" ">
<polygon fill="white" stroke="#666666" points="981.38,-388.88 868.62,-388.88 868.62,-342.62 981.38,-342.62 981.38,-388.88"/>
<text xml:space="preserve" text-anchor="start" x="876.62" y="-375.38" font-family="Helvetica,sans-Serif" font-size="10.00">express::dispatcher</text>
<text xml:space="preserve" text-anchor="start" x="876.62" y="-362.62" font-family="Helvetica,sans-Serif" font-size="10.00">::RouterDispatcher::</text>
<text xml:space="preserve" text-anchor="middle" x="925" y="-349.88" font-family="Helvetica,sans-Serif" font-size="10.00">getRoutes</text>
</a>
</g>
</g>
<!-- Node7&#45;&gt;Node8 -->
<g id="edge7_Node000007_Node000008" class="edge">
<title>Node7&#45;&gt;Node8</title>
<g id="a_edge7_Node000007_Node000008"><a xlink:title=" ">
<path fill="none" stroke="#63b8ff" d="M801.17,-365.75C818.86,-365.75 838.63,-365.75 857.04,-365.75"/>
<polygon fill="#63b8ff" stroke="#63b8ff" points="856.79,-369.25 866.79,-365.75 856.79,-362.25 856.79,-369.25"/>
</a>
</g>
</g>
<!-- Node9 -->
<g id="Node000009" class="node">
<title>Node9</title>
<g id="a_Node000009"><a xlink:href="classexpress_1_1Route.html#abb8e6506433479e5bd42250aa6262655" target="_top" xlink:title=" ">
<polygon fill="white" stroke="#666666" points="1171.75,-376.12 1032.75,-376.12 1032.75,-355.38 1171.75,-355.38 1171.75,-376.12"/>
<text xml:space="preserve" text-anchor="middle" x="1102.25" y="-362.62" font-family="Helvetica,sans-Serif" font-size="10.00">express::Route::getRoute</text>
</a>
</g>
</g>
<!-- Node8&#45;&gt;Node9 -->
<g id="edge8_Node000008_Node000009" class="edge">
<title>Node8&#45;&gt;Node9</title>
<g id="a_edge8_Node000008_Node000009"><a xlink:title=" ">
<path fill="none" stroke="#63b8ff" d="M981.45,-365.75C994.06,-365.75 1007.71,-365.75 1021.12,-365.75"/>
<polygon fill="#63b8ff" stroke="#63b8ff" points="1020.79,-369.25 1030.79,-365.75 1020.79,-362.25 1020.79,-369.25"/>
</a>
</g>
</g>
<!-- Node10 -->
<g id="Node000010" class="node">
<title>Node10</title>
<g id="a_Node000010"><a xlink:href="classexpress_1_1Dispatcher.html#ae5699cd0fe73fdfd59325d570601cdc5" target="_top" xlink:title=" ">
<polygon fill="white" stroke="#666666" points="1335.88,-382.5 1223.12,-382.5 1223.12,-349 1335.88,-349 1335.88,-382.5"/>
<text xml:space="preserve" text-anchor="start" x="1231.12" y="-369" font-family="Helvetica,sans-Serif" font-size="10.00">express::Dispatcher</text>
<text xml:space="preserve" text-anchor="middle" x="1279.5" y="-356.25" font-family="Helvetica,sans-Serif" font-size="10.00">::getRoutes</text>
</a>
</g>
</g>
<!-- Node9&#45;&gt;Node10 -->
<g id="edge9_Node000009_Node000010" class="edge">
<title>Node9&#45;&gt;Node10</title>
<g id="a_edge9_Node000009_Node000010"><a xlink:title=" ">
<path fill="none" stroke="#63b8ff" d="M1172.01,-365.75C1184.99,-365.75 1198.55,-365.75 1211.47,-365.75"/>
<polygon fill="#63b8ff" stroke="#63b8ff" points="1211.13,-369.25 1221.13,-365.75 1211.13,-362.25 1211.13,-369.25"/>
</a>
</g>
</g>
<!-- Node12 -->
<g id="Node000012" class="node">
<title>Node12</title>
<g id="a_Node000012"><a xlink:href="classcore_1_1socket_1_1stream_1_1SocketServer.html#a64020939e9a94e44979be4ac244bd063" target="_top" xlink:title=" ">
<polygon fill="white" stroke="#666666" points="636.25,-205.5 496.5,-205.5 496.5,-172 636.25,-172 636.25,-205.5"/>
<text xml:space="preserve" text-anchor="start" x="504.5" y="-192" font-family="Helvetica,sans-Serif" font-size="10.00">core::socket::stream</text>
<text xml:space="preserve" text-anchor="middle" x="566.38" y="-179.25" font-family="Helvetica,sans-Serif" font-size="10.00">::SocketServer::realListen</text>
</a>
</g>
</g>
<!-- Node11&#45;&gt;Node12 -->
<g id="edge11_Node000011_Node000012" class="edge">
<title>Node11&#45;&gt;Node12</title>
<g id="a_edge11_Node000011_Node000012"><a xlink:title=" ">
<path fill="none" stroke="#63b8ff" d="M436.41,-245.61C444.53,-242.79 452.77,-239.79 460.5,-236.75 480.28,-228.96 501.69,-219.38 519.98,-210.83"/>
<polygon fill="#63b8ff" stroke="#63b8ff" points="521.43,-214.01 528.98,-206.58 518.44,-207.68 521.43,-214.01"/>
</a>
</g>
</g>
<!-- Node12&#45;&gt;Node12 -->
<g id="edge27_Node000012_Node000012" class="edge">
<title>Node12&#45;&gt;Node12</title>
<g id="a_edge27_Node000012_Node000012"><a xlink:title=" ">
<path fill="none" stroke="#63b8ff" d="M534.31,-205.91C528.86,-215.12 539.55,-223.5 566.38,-223.5 581.46,-223.5 591.45,-220.85 596.33,-216.89"/>
<polygon fill="#63b8ff" stroke="#63b8ff" points="599.7,-217.88 598.15,-207.4 592.83,-216.56 599.7,-217.88"/>
</a>
</g>
</g>
<!-- Node13 -->
<g id="Node000013" class="node">
<title>Node13</title>
<g id="a_Node000013"><a xlink:href="classcore_1_1EventReceiver.html#a2e8d915eca53e827be4f493a63ae058d" target="_top" xlink:title=" ">
<polygon fill="white" stroke="#666666" points="801.5,-272.5 688,-272.5 688,-239 801.5,-239 801.5,-272.5"/>
<text xml:space="preserve" text-anchor="start" x="696" y="-259" font-family="Helvetica,sans-Serif" font-size="10.00">core::EventReceiver</text>
<text xml:space="preserve" text-anchor="middle" x="744.75" y="-246.25" font-family="Helvetica,sans-Serif" font-size="10.00">::atNextTick</text>
</a>
</g>
</g>
<!-- Node12&#45;&gt;Node13 -->
<g id="edge12_Node000012_Node000013" class="edge">
<title>Node12&#45;&gt;Node13</title>
<g id="a_edge12_Node000012_Node000013"><a xlink:title=" ">
<path fill="none" stroke="#63b8ff" d="M610.66,-205.94C629.53,-213.37 651.95,-222.09 672.25,-229.75 676.56,-231.38 681.02,-233.04 685.52,-234.71"/>
<polygon fill="#63b8ff" stroke="#63b8ff" points="683.99,-237.87 694.58,-238.04 686.41,-231.3 683.99,-237.87"/>
</a>
</g>
</g>
<!-- Node22 -->
<g id="Node000022" class="node">
<title>Node22</title>
<g id="a_Node000022"><a xlink:href="classutils_1_1Random.html#a9d15c0e2c11092d1e9cebabc0057d5bb" target="_top" xlink:title=" ">
<polygon fill="white" stroke="#666666" points="817.25,-221.12 672.25,-221.12 672.25,-200.38 817.25,-200.38 817.25,-221.12"/>
<text xml:space="preserve" text-anchor="middle" x="744.75" y="-207.62" font-family="Helvetica,sans-Serif" font-size="10.00">utils::Random::getInRange</text>
</a>
</g>
</g>
<!-- Node12&#45;&gt;Node22 -->
<g id="edge21_Node000012_Node000022" class="edge">
<title>Node12&#45;&gt;Node22</title>
<g id="a_edge21_Node000012_Node000022"><a xlink:title=" ">
<path fill="none" stroke="#63b8ff" d="M636.58,-197.38C644.45,-198.36 652.53,-199.37 660.56,-200.37"/>
<polygon fill="#63b8ff" stroke="#63b8ff" points="659.99,-203.83 670.34,-201.59 660.85,-196.88 659.99,-203.83"/>
</a>
</g>
</g>
<!-- Node12&#45;&gt;Node23 -->
<g id="edge22_Node000012_Node000023" class="edge">
<title>Node12&#45;&gt;Node23</title>
<g id="a_edge22_Node000012_Node000023"><a xlink:title=" ">
<path fill="none" stroke="#63b8ff" d="M582.56,-205.66C601.71,-226.12 636.5,-260.46 672.25,-281.75 674.55,-283.12 676.93,-284.43 679.37,-285.69"/>
<polygon fill="#63b8ff" stroke="#63b8ff" points="677.74,-288.79 688.27,-289.92 680.74,-282.47 677.74,-288.79"/>
</a>
</g>
</g>
<!-- Node24 -->
<g id="Node000024" class="node">
<title>Node24</title>
<g id="a_Node000024"><a xlink:href="classcore_1_1socket_1_1State.html#a2c16c3c8d05a7e85c99baa78a658d17a" target="_top" xlink:title=" ">
<polygon fill="white" stroke="#666666" points="797.75,-182.5 691.75,-182.5 691.75,-149 797.75,-149 797.75,-182.5"/>
<text xml:space="preserve" text-anchor="start" x="699.75" y="-169" font-family="Helvetica,sans-Serif" font-size="10.00">core::socket::State</text>
<text xml:space="preserve" text-anchor="middle" x="744.75" y="-156.25" font-family="Helvetica,sans-Serif" font-size="10.00">::operator&amp;</text>
</a>
</g>
</g>
<!-- Node12&#45;&gt;Node24 -->
<g id="edge23_Node000012_Node000024" class="edge">
<title>Node12&#45;&gt;Node24</title>
<g id="a_edge23_Node000012_Node000024"><a xlink:title=" ">
<path fill="none" stroke="#63b8ff" d="M636.58,-179.73C650.97,-177.85 666.07,-175.88 680.25,-174.03"/>
<polygon fill="#63b8ff" stroke="#63b8ff" points="680.42,-177.54 689.88,-172.77 679.52,-170.6 680.42,-177.54"/>
</a>
</g>
</g>
<!-- Node26 -->
<g id="Node000026" class="node">
<title>Node26</title>
<g id="a_Node000026"><a xlink:href="classcore_1_1socket_1_1State.html#a17374479f229f1cca06b73f3ed2bce73" target="_top" xlink:title=" ">
<polygon fill="white" stroke="#666666" points="797.75,-130.5 691.75,-130.5 691.75,-97 797.75,-97 797.75,-130.5"/>
<text xml:space="preserve" text-anchor="start" x="699.75" y="-117" font-family="Helvetica,sans-Serif" font-size="10.00">core::socket::State</text>
<text xml:space="preserve" text-anchor="middle" x="744.75" y="-104.25" font-family="Helvetica,sans-Serif" font-size="10.00">::operator&amp;=</text>
</a>
</g>
</g>
<!-- Node12&#45;&gt;Node26 -->
<g id="edge25_Node000012_Node000026" class="edge">
<title>Node12&#45;&gt;Node26</title>
<g id="a_edge25_Node000012_Node000026"><a xlink:title=" ">
<path fill="none" stroke="#63b8ff" d="M601.99,-171.64C622.27,-161.85 648.49,-149.6 672.25,-139.75 676.07,-138.16 680.03,-136.58 684.04,-135.01"/>
<polygon fill="#63b8ff" stroke="#63b8ff" points="685.18,-138.33 693.27,-131.48 682.68,-131.79 685.18,-138.33"/>
</a>
</g>
</g>
<!-- Node27 -->
<g id="Node000027" class="node">
<title>Node27</title>
<g id="a_Node000027"><a xlink:href="classcore_1_1socket_1_1State.html#a2b42b2e3d02b693c52348700ceab379b" target="_top" xlink:title=" ">
<polygon fill="white" stroke="#666666" points="797.75,-78.5 691.75,-78.5 691.75,-45 797.75,-45 797.75,-78.5"/>
<text xml:space="preserve" text-anchor="start" x="699.75" y="-65" font-family="Helvetica,sans-Serif" font-size="10.00">core::socket::State</text>
<text xml:space="preserve" text-anchor="middle" x="744.75" y="-52.25" font-family="Helvetica,sans-Serif" font-size="10.00">::operator==</text>
</a>
</g>
</g>
<!-- Node12&#45;&gt;Node27 -->
<g id="edge26_Node000012_Node000027" class="edge">
<title>Node12&#45;&gt;Node27</title>
<g id="a_edge26_Node000012_Node000027"><a xlink:title=" ">
<path fill="none" stroke="#63b8ff" d="M580.96,-171.85C599.49,-149.76 634.72,-111.16 672.25,-87.75 675.13,-85.96 678.15,-84.26 681.25,-82.66"/>
<polygon fill="#63b8ff" stroke="#63b8ff" points="682.46,-85.96 690.01,-78.53 679.47,-79.63 682.46,-85.96"/>
</a>
</g>
</g>
<!-- Node28 -->
<g id="Node000028" class="node">
<title>Node28</title>
<g id="a_Node000028"><a xlink:href="classcore_1_1SNodeC.html#a89f702217b0329573f527bda0021fd51" target="_top" xlink:title=" ">
<polygon fill="white" stroke="#666666" points="800.75,-27.12 688.75,-27.12 688.75,-6.38 800.75,-6.38 800.75,-27.12"/>
<text xml:space="preserve" text-anchor="middle" x="744.75" y="-13.62" font-family="Helvetica,sans-Serif" font-size="10.00">core::SNodeC::state</text>
</a>
</g>
</g>
<!-- Node12&#45;&gt;Node28 -->
<g id="edge28_Node000012_Node000028" class="edge">
<title>Node12&#45;&gt;Node28</title>
<g id="a_edge28_Node000012_Node000028"><a xlink:title=" ">
<path fill="none" stroke="#63b8ff" d="M574.29,-171.53C588,-139.64 621.74,-71.41 672.25,-35.75 674.18,-34.39 676.19,-33.13 678.28,-31.95"/>
<polygon fill="#63b8ff" stroke="#63b8ff" points="679.57,-35.22 687.09,-27.75 676.56,-28.9 679.57,-35.22"/>
</a>
</g>
</g>
<!-- Node14 -->
<g id="Node000014" class="node">
<title>Node14</title>
<g id="a_Node000014"><a xlink:href="classcore_1_1EventReceiver.html#adec275118bd8a68e2b4cb71fa94d79b6" target="_top" xlink:title=" ">
<polygon fill="white" stroke="#666666" points="981.75,-288.5 868.25,-288.5 868.25,-255 981.75,-255 981.75,-288.5"/>
<text xml:space="preserve" text-anchor="start" x="876.25" y="-275" font-family="Helvetica,sans-Serif" font-size="10.00">core::EventReceiver</text>
<text xml:space="preserve" text-anchor="middle" x="925" y="-262.25" font-family="Helvetica,sans-Serif" font-size="10.00">::EventReceiver</text>
</a>
</g>
</g>
<!-- Node13&#45;&gt;Node14 -->
<g id="edge13_Node000013_Node000014" class="edge">
<title>Node13&#45;&gt;Node14</title>
<g id="a_edge13_Node000013_Node000014"><a xlink:title=" ">
<path fill="none" stroke="#63b8ff" d="M801.66,-260.77C819.08,-262.33 838.47,-264.07 856.59,-265.7"/>
<polygon fill="#63b8ff" stroke="#63b8ff" points="856.2,-269.18 866.47,-266.59 856.83,-262.21 856.2,-269.18"/>
</a>
</g>
</g>
<!-- Node18 -->
<g id="Node000018" class="node">
<title>Node18</title>
<g id="a_Node000018"><a xlink:href="classcore_1_1EventReceiver.html#ad353e97a9089b2769e52f8825e4878b1" target="_top" xlink:title=" ">
<polygon fill="white" stroke="#666666" points="981.75,-236.5 868.25,-236.5 868.25,-203 981.75,-203 981.75,-236.5"/>
<text xml:space="preserve" text-anchor="start" x="876.25" y="-223" font-family="Helvetica,sans-Serif" font-size="10.00">core::EventReceiver</text>
<text xml:space="preserve" text-anchor="middle" x="925" y="-210.25" font-family="Helvetica,sans-Serif" font-size="10.00">::span</text>
</a>
</g>
</g>
<!-- Node13&#45;&gt;Node18 -->
<g id="edge17_Node000013_Node000018" class="edge">
<title>Node13&#45;&gt;Node18</title>
<g id="a_edge17_Node000013_Node000018"><a xlink:title=" ">
<path fill="none" stroke="#63b8ff" d="M801.66,-244.46C819.16,-240.92 838.66,-236.99 856.85,-233.31"/>
<polygon fill="#63b8ff" stroke="#63b8ff" points="857.39,-236.77 866.5,-231.36 856,-229.91 857.39,-236.77"/>
</a>
</g>
</g>
<!-- Node15 -->
<g id="Node000015" class="node">
<title>Node15</title>
<g id="a_Node000015"><a xlink:href="classcore_1_1Event.html#a81e45f64219d897d59324c9dd0573936" target="_top" xlink:title=" ">
<polygon fill="white" stroke="#666666" points="1154.5,-282.12 1050,-282.12 1050,-261.38 1154.5,-261.38 1154.5,-282.12"/>
<text xml:space="preserve" text-anchor="middle" x="1102.25" y="-268.62" font-family="Helvetica,sans-Serif" font-size="10.00">core::Event::Event</text>
</a>
</g>
</g>
<!-- Node14&#45;&gt;Node15 -->
<g id="edge14_Node000014_Node000015" class="edge">
<title>Node14&#45;&gt;Node15</title>
<g id="a_edge14_Node000014_Node000015"><a xlink:title=" ">
<path fill="none" stroke="#63b8ff" d="M981.93,-271.75C999.93,-271.75 1020,-271.75 1038.46,-271.75"/>
<polygon fill="#63b8ff" stroke="#63b8ff" points="1038.2,-275.25 1048.2,-271.75 1038.2,-268.25 1038.2,-275.25"/>
</a>
</g>
</g>
<!-- Node16 -->
<g id="Node000016" class="node">
<title>Node16</title>
<g id="a_Node000016"><a xlink:href="classcore_1_1EventLoop.html#a17f1623de6ca2ea2682c63cf502c3c36" target="_top" xlink:title=" ">
<polygon fill="white" stroke="#666666" points="1351.25,-329.5 1207.75,-329.5 1207.75,-296 1351.25,-296 1351.25,-329.5"/>
<text xml:space="preserve" text-anchor="start" x="1215.75" y="-316" font-family="Helvetica,sans-Serif" font-size="10.00">core::EventLoop::getEvent</text>
<text xml:space="preserve" text-anchor="middle" x="1279.5" y="-303.25" font-family="Helvetica,sans-Serif" font-size="10.00">Multiplexer</text>
</a>
</g>
</g>
<!-- Node15&#45;&gt;Node16 -->
<g id="edge15_Node000015_Node000016" class="edge">
<title>Node15&#45;&gt;Node16</title>
<g id="a_edge15_Node000015_Node000016"><a xlink:title=" ">
<path fill="none" stroke="#63b8ff" d="M1149.29,-282.52C1163.71,-285.9 1180.09,-289.73 1196.22,-293.5"/>
<polygon fill="#63b8ff" stroke="#63b8ff" points="1195.32,-296.88 1205.85,-295.75 1196.91,-290.07 1195.32,-296.88"/>
</a>
</g>
</g>
<!-- Node17 -->
<g id="Node000017" class="node">
<title>Node17</title>
<g id="a_Node000017"><a xlink:href="classcore_1_1EventLoop.html#a413d227511f68c2c9939719bd2590794" target="_top" xlink:title=" ">
<polygon fill="white" stroke="#666666" points="1350.12,-278.12 1208.88,-278.12 1208.88,-257.38 1350.12,-257.38 1350.12,-278.12"/>
<text xml:space="preserve" text-anchor="middle" x="1279.5" y="-264.62" font-family="Helvetica,sans-Serif" font-size="10.00">core::EventLoop::instance</text>
</a>
</g>
</g>
<!-- Node15&#45;&gt;Node17 -->
<g id="edge16_Node000015_Node000017" class="edge">
<title>Node15&#45;&gt;Node17</title>
<g id="a_edge16_Node000015_Node000017"><a xlink:title=" ">
<path fill="none" stroke="#63b8ff" d="M1154.88,-270.57C1168.11,-270.27 1182.66,-269.94 1196.99,-269.61"/>
<polygon fill="#63b8ff" stroke="#63b8ff" points="1196.97,-273.11 1206.89,-269.38 1196.81,-266.11 1196.97,-273.11"/>
</a>
</g>
</g>
<!-- Node19 -->
<g id="Node000019" class="node">
<title>Node19</title>
<g id="a_Node000019"><a xlink:href="classcore_1_1Event.html#a0a68a616082e2b1aece96499a439884f" target="_top" xlink:title=" ">
<polygon fill="white" stroke="#666666" points="1152.25,-230.12 1052.25,-230.12 1052.25,-209.38 1152.25,-209.38 1152.25,-230.12"/>
<text xml:space="preserve" text-anchor="middle" x="1102.25" y="-216.62" font-family="Helvetica,sans-Serif" font-size="10.00">core::Event::span</text>
</a>
</g>
</g>
<!-- Node18&#45;&gt;Node19 -->
<g id="edge18_Node000018_Node000019" class="edge">
<title>Node18&#45;&gt;Node19</title>
<g id="a_edge18_Node000018_Node000019"><a xlink:title=" ">
<path fill="none" stroke="#63b8ff" d="M981.93,-219.75C1000.6,-219.75 1021.49,-219.75 1040.51,-219.75"/>
<polygon fill="#63b8ff" stroke="#63b8ff" points="1040.25,-223.25 1050.25,-219.75 1040.25,-216.25 1040.25,-223.25"/>
</a>
</g>
</g>
<!-- Node20 -->
<g id="Node000020" class="node">
<title>Node20</title>
<g id="a_Node000020"><a xlink:href="classcore_1_1EventMultiplexer.html#a61d96e95daaebfe6c3b980a2a847bb21" target="_top" xlink:title=" ">
<polygon fill="white" stroke="#666666" points="1342.62,-236.5 1216.38,-236.5 1216.38,-203 1342.62,-203 1342.62,-236.5"/>
<text xml:space="preserve" text-anchor="start" x="1224.38" y="-223" font-family="Helvetica,sans-Serif" font-size="10.00">core::EventMultiplexer</text>
<text xml:space="preserve" text-anchor="middle" x="1279.5" y="-210.25" font-family="Helvetica,sans-Serif" font-size="10.00">::span</text>
</a>
</g>
</g>
<!-- Node19&#45;&gt;Node20 -->
<g id="edge19_Node000019_Node000020" class="edge">
<title>Node19&#45;&gt;Node20</title>
<g id="a_edge19_Node000019_Node000020"><a xlink:title=" ">
<path fill="none" stroke="#63b8ff" d="M1152.53,-219.75C1168.73,-219.75 1187.1,-219.75 1204.7,-219.75"/>
<polygon fill="#63b8ff" stroke="#63b8ff" points="1204.62,-223.25 1214.62,-219.75 1204.62,-216.25 1204.62,-223.25"/>
</a>
</g>
</g>
<!-- Node21 -->
<g id="Node000021" class="node">
<title>Node21</title>
<g id="a_Node000021"><a xlink:href="classcore_1_1EventMultiplexer_1_1EventQueue.html#a009075f2f16a78d3bf8d9e3a20226336" target="_top" xlink:title=" ">
<polygon fill="white" stroke="#666666" points="1513.5,-236.5 1387.25,-236.5 1387.25,-203 1513.5,-203 1513.5,-236.5"/>
<text xml:space="preserve" text-anchor="start" x="1395.25" y="-223" font-family="Helvetica,sans-Serif" font-size="10.00">core::EventMultiplexer</text>
<text xml:space="preserve" text-anchor="middle" x="1450.38" y="-210.25" font-family="Helvetica,sans-Serif" font-size="10.00">::EventQueue::insert</text>
</a>
</g>
</g>
<!-- Node20&#45;&gt;Node21 -->
<g id="edge20_Node000020_Node000021" class="edge">
<title>Node20&#45;&gt;Node21</title>
<g id="a_edge20_Node000020_Node000021"><a xlink:title=" ">
<path fill="none" stroke="#63b8ff" d="M1342.9,-219.75C1353.57,-219.75 1364.75,-219.75 1375.68,-219.75"/>
<polygon fill="#63b8ff" stroke="#63b8ff" points="1375.43,-223.25 1385.43,-219.75 1375.43,-216.25 1375.43,-223.25"/>
</a>
</g>
</g>
<!-- Node25 -->
<g id="Node000025" class="node">
<title>Node25</title>
<g id="a_Node000025"><a xlink:href="classcore_1_1socket_1_1State.html#ab07dc39fe7e79d46832a6ac89aa5e8ec" target="_top" xlink:title=" ">
<polygon fill="white" stroke="#666666" points="978,-182.5 872,-182.5 872,-149 978,-149 978,-182.5"/>
<text xml:space="preserve" text-anchor="start" x="880" y="-169" font-family="Helvetica,sans-Serif" font-size="10.00">core::socket::State</text>
<text xml:space="preserve" text-anchor="middle" x="925" y="-156.25" font-family="Helvetica,sans-Serif" font-size="10.00">::State</text>
</a>
</g>
</g>
<!-- Node24&#45;&gt;Node25 -->
<g id="edge24_Node000024_Node000025" class="edge">
<title>Node24&#45;&gt;Node25</title>
<g id="a_edge24_Node000024_Node000025"><a xlink:title=" ">
<path fill="none" stroke="#63b8ff" d="M797.79,-165.75C817.29,-165.75 839.68,-165.75 860.13,-165.75"/>
<polygon fill="#63b8ff" stroke="#63b8ff" points="860.08,-169.25 870.08,-165.75 860.08,-162.25 860.08,-169.25"/>
</a>
</g>
</g>
<!-- Node29 -->
<g id="Node000029" class="node">
<title>Node29</title>
<g id="a_Node000029"><a xlink:href="classcore_1_1EventLoop.html#a2a5630955f1449eb2141e711985590a7" target="_top" xlink:title=" ">
<polygon fill="white" stroke="#666666" points="996.75,-33.5 853.25,-33.5 853.25,0 996.75,0 996.75,-33.5"/>
<text xml:space="preserve" text-anchor="start" x="861.25" y="-20" font-family="Helvetica,sans-Serif" font-size="10.00">core::EventLoop::getEvent</text>
<text xml:space="preserve" text-anchor="middle" x="925" y="-7.25" font-family="Helvetica,sans-Serif" font-size="10.00">LoopState</text>
</a>
</g>
</g>
<!-- Node28&#45;&gt;Node29 -->
<g id="edge29_Node000028_Node000029" class="edge">
<title>Node28&#45;&gt;Node29</title>
<g id="a_edge29_Node000028_Node000029"><a xlink:title=" ">
<path fill="none" stroke="#63b8ff" d="M801.17,-16.75C813.95,-16.75 827.81,-16.75 841.46,-16.75"/>
<polygon fill="#63b8ff" stroke="#63b8ff" points="841.33,-20.25 851.33,-16.75 841.33,-13.25 841.33,-20.25"/>
</a>
</g>
</g>
</g>
</svg>

<g id="navigator" transform="translate(0 0)" fill="#404254">
  <rect fill="#f2f5e9" fill-opacity="0.5" stroke="#606060" stroke-width=".5" x="0" y="0" width="60" height="60"/>
  <use id="zoomplus" xlink:href="#zoomPlus" x="17" y="9" onmousedown="handleZoom(evt,'in')"/>
  <use id="zoomminus" xlink:href="#zoomMin" x="42" y="9" onmousedown="handleZoom(evt,'out')"/>
  <use id="reset" xlink:href="#resetDef" x="30" y="36" onmousedown="handleReset()"/>
   <use id="arrowup" xlink:href="#arrowUp" x="0" y="0" onmousedown="handlePan(0,-1)"/>
  <use id="arrowright" xlink:href="#arrowRight" x="0" y="0" onmousedown="handlePan(1,0)"/>
  <use id="arrowdown" xlink:href="#arrowDown" x="0" y="0" onmousedown="handlePan(0,1)"/>
  <use id="arrowleft" xlink:href="#arrowLeft" x="0" y="0" onmousedown="handlePan(-1,0)"/>
</g>
<svg viewBox="0 0 15 15" width="100%" height="30px" preserveAspectRatio="xMaxYMin meet">
 <g id="arrow_out" transform="scale(0.3 0.3)">
  <a xlink:href="namespaceexpress_1_1tls_1_1in6_ae3f1bf9cfebdc115492c97ffbd41b24e_cgraph_org.svg" target="_base">
   <rect id="button" ry="5" rx="5" y="6" x="6" height="38" width="38"
        fill="#f2f5e9" fill-opacity="0.5" stroke="#606060" stroke-width="1.0"/>
   <path id="arrow"
     d="M 11.500037,31.436501 C 11.940474,20.09759 22.043105,11.32322 32.158766,21.979434 L 37.068811,17.246167 C 37.068811,17.246167 37.088388,32 37.088388,32 L 22.160133,31.978069 C 22.160133,31.978069 26.997745,27.140456 26.997745,27.140456 C 18.528582,18.264221 13.291696,25.230495 11.500037,31.436501 z"
     style="fill:#404040;"/>
  </a>
 </g>
</svg>

<style type='text/css'>
<![CDATA[
[data-mouse-over-selected='false'] { opacity: 0.7; }
[data-mouse-over-selected='true']  { opacity: 1.0; }
]]>
</style>
<script type="application/ecmascript"><![CDATA[
document.addEventListener('DOMContentLoaded', (event) => {
  highlightEdges();
  highlightAdjacentNodes();
});
]]></script>
</svg>
