<?xml version="1.0" encoding="UTF-8" standalone="no"?>
<!DOCTYPE svg PUBLIC "-//W3C//DTD SVG 1.1//EN"
 "http://www.w3.org/Graphics/SVG/1.1/DTD/svg11.dtd">
<!-- Generated by graphviz version 14.1.1 (0)
 -->
<!-- Title: express::dispatcher::explode Pages: 1 -->
<svg width="434pt" height="118pt"
 viewBox="0.00 0.00 434.00 118.00" xmlns="http://www.w3.org/2000/svg" xmlns:xlink="http://www.w3.org/1999/xlink">
<g id="graph0" class="graph" transform="scale(1 1) rotate(0) translate(4 114.25)">
<title>express::dispatcher::explode</title>
<!-- Node1 -->
<g id="Node000001" class="node">
<title>Node1</title>
<g id="a_Node000001"><a xlink:title=" ">
<polygon fill="#999999" stroke="#666666" points="426,-71.88 314.75,-71.88 314.75,-38.38 426,-38.38 426,-71.88"/>
<text xml:space="preserve" text-anchor="start" x="322.75" y="-58.38" font-family="Helvetica,sans-Serif" font-size="10.00">express::dispatcher</text>
<text xml:space="preserve" text-anchor="middle" x="370.38" y="-45.62" font-family="Helvetica,sans-Serif" font-size="10.00">::explode</text>
</a>
</g>
</g>
<!-- Node2 -->
<g id="Node000002" class="node">
<title>Node2</title>
<g id="a_Node000002"><a xlink:href="namespaceexpress_1_1dispatcher.html#a383db1fb291317caf5c61e4922f123d8" target="_top" xlink:title=" ">
<polygon fill="white" stroke="#666666" points="278.75,-71.88 167.5,-71.88 167.5,-38.38 278.75,-38.38 278.75,-71.88"/>
<text xml:space="preserve" text-anchor="start" x="175.5" y="-58.38" font-family="Helvetica,sans-Serif" font-size="10.00">express::dispatcher</text>
<text xml:space="preserve" text-anchor="middle" x="223.12" y="-45.62" font-family="Helvetica,sans-Serif" font-size="10.00">::setParams</text>
</a>
</g>
</g>
<!-- Node1&#45;&gt;Node2 -->
<g id="edge1_Node000001_Node000002" class="edge">
<title>Node1&#45;&gt;Node2</title>
<g id="a_edge1_Node000001_Node000002"><a xlink:title=" ">
<path fill="none" stroke="#63b8ff" d="M303.19,-55.12C295.14,-55.12 286.98,-55.12 279.12,-55.12"/>
<polygon fill="#63b8ff" stroke="#63b8ff" points="302.95,-58.63 312.95,-55.13 302.95,-51.63 302.95,-58.63"/>
</a>
</g>
</g>
<!-- Node3 -->
<g id="Node000003" class="node">
<title>Node3</title>
<g id="a_Node000003"><a xlink:href="classexpress_1_1dispatcher_1_1ApplicationDispatcher.html#a4d41d29ce3e2adb6a3bb9684c0442cb5" target="_top" xlink:title=" ">
<polygon fill="white" stroke="#666666" points="130.38,-110.25 1.12,-110.25 1.12,-64 130.38,-64 130.38,-110.25"/>
<text xml:space="preserve" text-anchor="start" x="9.12" y="-96.75" font-family="Helvetica,sans-Serif" font-size="10.00">express::dispatcher</text>
<text xml:space="preserve" text-anchor="start" x="9.12" y="-84" font-family="Helvetica,sans-Serif" font-size="10.00">::ApplicationDispatcher</text>
<text xml:space="preserve" text-anchor="middle" x="65.75" y="-71.25" font-family="Helvetica,sans-Serif" font-size="10.00">::dispatch</text>
</a>
</g>
</g>
<!-- Node2&#45;&gt;Node3 -->
<g id="edge2_Node000002_Node000003" class="edge">
<title>Node2&#45;&gt;Node3</title>
<g id="a_edge2_Node000002_Node000003"><a xlink:title=" ">
<path fill="none" stroke="#63b8ff" d="M156.1,-68.72C147.74,-70.44 139.2,-72.2 130.87,-73.92"/>
<polygon fill="#63b8ff" stroke="#63b8ff" points="156.77,-72.16 165.86,-66.71 155.36,-65.3 156.77,-72.16"/>
</a>
</g>
</g>
<!-- Node4 -->
<g id="Node000004" class="node">
<title>Node4</title>
<g id="a_Node000004"><a xlink:href="classexpress_1_1dispatcher_1_1MiddlewareDispatcher.html#a2a4b241e077a750572b5be835b176671" target="_top" xlink:title=" ">
<polygon fill="white" stroke="#666666" points="131.5,-46.25 0,-46.25 0,0 131.5,0 131.5,-46.25"/>
<text xml:space="preserve" text-anchor="start" x="8" y="-32.75" font-family="Helvetica,sans-Serif" font-size="10.00">express::dispatcher</text>
<text xml:space="preserve" text-anchor="start" x="8" y="-20" font-family="Helvetica,sans-Serif" font-size="10.00">::MiddlewareDispatcher</text>
<text xml:space="preserve" text-anchor="middle" x="65.75" y="-7.25" font-family="Helvetica,sans-Serif" font-size="10.00">::dispatch</text>
</a>
</g>
</g>
<!-- Node2&#45;&gt;Node4 -->
<g id="edge3_Node000002_Node000004" class="edge">
<title>Node2&#45;&gt;Node4</title>
<g id="a_edge3_Node000002_Node000004"><a xlink:title=" ">
<path fill="none" stroke="#63b8ff" d="M156.16,-41.54C148.14,-39.89 139.95,-38.2 131.95,-36.55"/>
<polygon fill="#63b8ff" stroke="#63b8ff" points="155.36,-44.95 165.86,-43.54 156.77,-38.09 155.36,-44.95"/>
</a>
</g>
</g>
</g>
</svg>
