<?xml version="1.0" encoding="UTF-8" standalone="no"?>
<!DOCTYPE svg PUBLIC "-//W3C//DTD SVG 1.1//EN"
 "http://www.w3.org/Graphics/SVG/1.1/DTD/svg11.dtd">
<!-- Generated by graphviz version 14.1.2 (0)
 -->
<!-- Title: express::tls::un::Server Pages: 1 -->
<!--zoomable 368 -->

<svg id="main" version="1.1" xmlns="http://www.w3.org/2000/svg" xmlns:xlink="http://www.w3.org/1999/xlink" xml:space="preserve" onload="init(evt)">

<style type="text/css"><![CDATA[
.node, .edge {opacity: 0.7;}
.node.selected, .edge.selected {opacity: 1;}
.edge:hover path { stroke: red; }
.edge:hover polygon { stroke: red; fill: red; }
]]></style>

<defs>
  <circle id="rim" cx="0" cy="0" r="7"/>
  <circle id="rim2" cx="0" cy="0" r="3.5"/>
  <g id="zoomPlus">
    <use xlink:href="#rim" fill="#404040"><set attributeName="fill" to="#808080" begin="zoomplus.mouseover" end="zoomplus.mouseout"/></use>
    <path d="M-4,0h8M0,-4v8" fill="none" stroke="white" stroke-width="1.5" pointer-events="none"/>
  </g>
  <g id="zoomMin">
    <use xlink:href="#rim" fill="#404040"><set attributeName="fill" to="#808080" begin="zoomminus.mouseover" end="zoomminus.mouseout"/></use>
    <path d="M-4,0h8" fill="none" stroke="white" stroke-width="1.5" pointer-events="none"/>
  </g>
  <g id="arrowUp" transform="translate(30 24)">
    <use xlink:href="#rim"/>
    <path pointer-events="none" fill="none" stroke="white" stroke-width="1.5" d="M0,-3.0v7 M-2.5,-0.5L0,-3.0L2.5,-0.5"/>
  </g>
  <g id="arrowRight" transform="rotate(90) translate(36 -43)">
    <use xlink:href="#rim"/>
    <path pointer-events="none" fill="none" stroke="white" stroke-width="1.5" d="M0,-3.0v7 M-2.5,-0.5L0,-3.0L2.5,-0.5"/>
  </g>
  <g id="arrowDown" transform="rotate(180) translate(-30 -48)">
    <use xlink:href="#rim"/>
    <path pointer-events="none" fill="none" stroke="white" stroke-width="1.5" d="M0,-3.0v7 M-2.5,-0.5L0,-3.0L2.5,-0.5"/>
  </g>
  <g id="arrowLeft" transform="rotate(270) translate(-36 17)">
    <use xlink:href="#rim"/>
    <path pointer-events="none" fill="none" stroke="white" stroke-width="1.5" d="M0,-3.0v7 M-2.5,-0.5L0,-3.0L2.5,-0.5"/>
  </g>
  <g id="resetDef">
    <use xlink:href="#rim2" fill="#404040"><set attributeName="fill" to="#808080" begin="reset.mouseover" end="reset.mouseout"/></use>
  </g>
</defs>
<script type="application/ecmascript">
var viewWidth = 1383;
var viewHeight = 368;
var sectionId = 'dynsection-0';
</script>
<script type="application/ecmascript" xlink:href="svg.min.js"/>
<svg id="graph" class="graph">
<g id="viewport">
<title>express::tls::un::Server</title>
<!-- Node1 -->
<g id="Node000001" class="node">
<title>Node1</title>
<g id="a_Node000001"><a xlink:title=" ">
<polygon fill="#999999" stroke="#666666" points="127.75,-182.12 0,-182.12 0,-161.38 127.75,-161.38 127.75,-182.12"/>
<text xml:space="preserve" text-anchor="middle" x="63.88" y="-168.62" font-family="Helvetica,sans-Serif" font-size="10.00">express::tls::un::Server</text>
</a>
</g>
</g>
<!-- Node2 -->
<g id="Node000002" class="node">
<title>Node2</title>
<g id="a_Node000002"><a xlink:href="classcore_1_1socket_1_1Socket.html#ac9b7df3682b2a24b5c7fce9bcff1c441" target="_top" xlink:title=" ">
<polygon fill="white" stroke="#666666" points="299.38,-304.5 186.62,-304.5 186.62,-271 299.38,-271 299.38,-304.5"/>
<text xml:space="preserve" text-anchor="start" x="194.62" y="-291" font-family="Helvetica,sans-Serif" font-size="10.00">core::socket::Socket</text>
<text xml:space="preserve" text-anchor="middle" x="243" y="-278.25" font-family="Helvetica,sans-Serif" font-size="10.00">::getConfig</text>
</a>
</g>
</g>
<!-- Node1&#45;&gt;Node2 -->
<g id="edge1_Node000001_Node000002" class="edge">
<title>Node1&#45;&gt;Node2</title>
<g id="a_edge1_Node000001_Node000002"><a xlink:title=" ">
<path fill="none" stroke="#63b8ff" d="M73.87,-182.46C90.04,-201.09 125.89,-239.59 163.75,-261.75 167.6,-264 171.67,-266.1 175.86,-268.03"/>
<polygon fill="#63b8ff" stroke="#63b8ff" points="174.46,-271.24 185.03,-271.92 177.2,-264.79 174.46,-271.24"/>
</a>
</g>
</g>
<!-- Node3 -->
<g id="Node000003" class="node">
<title>Node3</title>
<g id="a_Node000003"><a xlink:href="classexpress_1_1Router.html#ac3107c8acf16cdccc5adb23623fda8c9" target="_top" xlink:title=" ">
<polygon fill="white" stroke="#666666" points="317,-253.12 169,-253.12 169,-232.38 317,-232.38 317,-253.12"/>
<text xml:space="preserve" text-anchor="middle" x="243" y="-239.62" font-family="Helvetica,sans-Serif" font-size="10.00">express::Router::getRoutes</text>
</a>
</g>
</g>
<!-- Node1&#45;&gt;Node3 -->
<g id="edge2_Node000001_Node000003" class="edge">
<title>Node1&#45;&gt;Node3</title>
<g id="a_edge2_Node000001_Node000003"><a xlink:title=" ">
<path fill="none" stroke="#63b8ff" d="M82.13,-182.5C101.39,-194.11 133.81,-212.44 163.75,-223.75 168.64,-225.6 173.77,-227.31 178.97,-228.89"/>
<polygon fill="#63b8ff" stroke="#63b8ff" points="177.65,-232.15 188.23,-231.53 179.57,-225.42 177.65,-232.15"/>
</a>
</g>
</g>
<!-- Node9 -->
<g id="Node000009" class="node">
<title>Node9</title>
<g id="a_Node000009"><a xlink:href="classcore_1_1socket_1_1stream_1_1SocketServer.html#a9a713f1b302ec01e28621b606af23e4c" target="_top" xlink:title=" ">
<polygon fill="white" stroke="#666666" points="302.38,-214.5 183.62,-214.5 183.62,-181 302.38,-181 302.38,-214.5"/>
<text xml:space="preserve" text-anchor="start" x="191.62" y="-201" font-family="Helvetica,sans-Serif" font-size="10.00">core::socket::stream</text>
<text xml:space="preserve" text-anchor="middle" x="243" y="-188.25" font-family="Helvetica,sans-Serif" font-size="10.00">::SocketServer::listen</text>
</a>
</g>
</g>
<!-- Node1&#45;&gt;Node9 -->
<g id="edge8_Node000001_Node000009" class="edge">
<title>Node1&#45;&gt;Node9</title>
<g id="a_edge8_Node000001_Node000009"><a xlink:title=" ">
<path fill="none" stroke="#63b8ff" d="M127.82,-180.99C142.24,-183.11 157.66,-185.37 172.34,-187.52"/>
<polygon fill="#63b8ff" stroke="#63b8ff" points="171.5,-190.94 181.9,-188.93 172.52,-184.01 171.5,-190.94"/>
</a>
</g>
</g>
<!-- Node27 -->
<g id="Node000027" class="node">
<title>Node27</title>
<g id="a_Node000027"><a xlink:href="classnet_1_1un_1_1SocketAddress.html#a7b61abefff2d5c02f626d5de9aaea090" target="_top" xlink:title=" ">
<polygon fill="white" stroke="#666666" points="306.5,-162.5 179.5,-162.5 179.5,-129 306.5,-129 306.5,-162.5"/>
<text xml:space="preserve" text-anchor="start" x="187.5" y="-149" font-family="Helvetica,sans-Serif" font-size="10.00">net::un::SocketAddress</text>
<text xml:space="preserve" text-anchor="middle" x="243" y="-136.25" font-family="Helvetica,sans-Serif" font-size="10.00">::toString</text>
</a>
</g>
</g>
<!-- Node1&#45;&gt;Node27 -->
<g id="edge27_Node000001_Node000027" class="edge">
<title>Node1&#45;&gt;Node27</title>
<g id="a_edge27_Node000001_Node000027"><a xlink:title=" ">
<path fill="none" stroke="#63b8ff" d="M127.82,-162.51C140.87,-160.59 154.74,-158.56 168.14,-156.59"/>
<polygon fill="#63b8ff" stroke="#63b8ff" points="168.37,-160.1 177.76,-155.18 167.36,-153.17 168.37,-160.1"/>
</a>
</g>
</g>
<!-- Node28 -->
<g id="Node000028" class="node">
<title>Node28</title>
<g id="a_Node000028"><a xlink:href="classexpress_1_1WebAppT.html#a4c662b444a547c8bb9ba4f959d3362ac" target="_top" xlink:title=" ">
<polygon fill="white" stroke="#666666" points="322.25,-111.12 163.75,-111.12 163.75,-90.38 322.25,-90.38 322.25,-111.12"/>
<text xml:space="preserve" text-anchor="middle" x="243" y="-97.62" font-family="Helvetica,sans-Serif" font-size="10.00">express::WebAppT::WebAppT</text>
</a>
</g>
</g>
<!-- Node1&#45;&gt;Node28 -->
<g id="edge28_Node000001_Node000028" class="edge">
<title>Node1&#45;&gt;Node28</title>
<g id="a_edge28_Node000001_Node000028"><a xlink:title=" ">
<path fill="none" stroke="#63b8ff" d="M82.13,-161C101.39,-149.39 133.81,-131.06 163.75,-119.75 168.64,-117.9 173.77,-116.19 178.97,-114.61"/>
<polygon fill="#63b8ff" stroke="#63b8ff" points="179.57,-118.08 188.23,-111.97 177.65,-111.35 179.57,-118.08"/>
</a>
</g>
</g>
<!-- Node29 -->
<g id="Node000029" class="node">
<title>Node29</title>
<g id="a_Node000029"><a xlink:href="classcore_1_1socket_1_1State.html#a55b6abd55034b331fae4c9e085007dfa" target="_top" xlink:title=" ">
<polygon fill="white" stroke="#666666" points="296,-72.5 190,-72.5 190,-39 296,-39 296,-72.5"/>
<text xml:space="preserve" text-anchor="start" x="198" y="-59" font-family="Helvetica,sans-Serif" font-size="10.00">core::socket::State</text>
<text xml:space="preserve" text-anchor="middle" x="243" y="-46.25" font-family="Helvetica,sans-Serif" font-size="10.00">::what</text>
</a>
</g>
</g>
<!-- Node1&#45;&gt;Node29 -->
<g id="edge29_Node000001_Node000029" class="edge">
<title>Node1&#45;&gt;Node29</title>
<g id="a_edge29_Node000001_Node000029"><a xlink:title=" ">
<path fill="none" stroke="#63b8ff" d="M73.87,-161.04C90.04,-142.41 125.89,-103.91 163.75,-81.75 168.64,-78.89 173.9,-76.28 179.28,-73.94"/>
<polygon fill="#63b8ff" stroke="#63b8ff" points="180.36,-77.27 188.33,-70.29 177.75,-70.78 180.36,-77.27"/>
</a>
</g>
</g>
<!-- Node4 -->
<g id="Node000004" class="node">
<title>Node4</title>
<g id="a_Node000004"><a xlink:href="classexpress_1_1RootRoute.html#a79b53a07452e053898fbd0ccb17ead8a" target="_top" xlink:title=" ">
<polygon fill="white" stroke="#666666" points="483.75,-291.5 372.5,-291.5 372.5,-258 483.75,-258 483.75,-291.5"/>
<text xml:space="preserve" text-anchor="start" x="380.5" y="-278" font-family="Helvetica,sans-Serif" font-size="10.00">express::RootRoute</text>
<text xml:space="preserve" text-anchor="middle" x="428.12" y="-265.25" font-family="Helvetica,sans-Serif" font-size="10.00">::getRoutes</text>
</a>
</g>
</g>
<!-- Node3&#45;&gt;Node4 -->
<g id="edge3_Node000003_Node000004" class="edge">
<title>Node3&#45;&gt;Node4</title>
<g id="a_edge3_Node000003_Node000004"><a xlink:title=" ">
<path fill="none" stroke="#63b8ff" d="M306,-253.58C323.7,-256.68 343.06,-260.06 361,-263.19"/>
<polygon fill="#63b8ff" stroke="#63b8ff" points="360.31,-266.63 370.76,-264.9 361.51,-259.73 360.31,-266.63"/>
</a>
</g>
</g>
<!-- Node5 -->
<g id="Node000005" class="node">
<title>Node5</title>
<g id="a_Node000005"><a xlink:href="classexpress_1_1dispatcher_1_1RouterDispatcher.html#a7c837fd8f7e105a2b034de81e74289d2" target="_top" xlink:title=" ">
<polygon fill="white" stroke="#666666" points="662.88,-352.88 550.12,-352.88 550.12,-306.62 662.88,-306.62 662.88,-352.88"/>
<text xml:space="preserve" text-anchor="start" x="558.12" y="-339.38" font-family="Helvetica,sans-Serif" font-size="10.00">express::dispatcher</text>
<text xml:space="preserve" text-anchor="start" x="558.12" y="-326.62" font-family="Helvetica,sans-Serif" font-size="10.00">::RouterDispatcher::</text>
<text xml:space="preserve" text-anchor="middle" x="606.5" y="-313.88" font-family="Helvetica,sans-Serif" font-size="10.00">getRoutes</text>
</a>
</g>
</g>
<!-- Node4&#45;&gt;Node5 -->
<g id="edge4_Node000004_Node000005" class="edge">
<title>Node4&#45;&gt;Node5</title>
<g id="a_edge4_Node000004_Node000005"><a xlink:title=" ">
<path fill="none" stroke="#63b8ff" d="M483.96,-291.85C501.38,-297.28 520.83,-303.35 538.98,-309.01"/>
<polygon fill="#63b8ff" stroke="#63b8ff" points="537.75,-312.29 548.34,-311.92 539.83,-305.61 537.75,-312.29"/>
</a>
</g>
</g>
<!-- Node6 -->
<g id="Node000006" class="node">
<title>Node6</title>
<g id="a_Node000006"><a xlink:href="classexpress_1_1dispatcher_1_1RouterDispatcher.html#a307182bc588db8d70172911c5ad2a3ea" target="_top" xlink:title=" ">
<polygon fill="white" stroke="#666666" points="843.12,-359.88 730.38,-359.88 730.38,-313.62 843.12,-313.62 843.12,-359.88"/>
<text xml:space="preserve" text-anchor="start" x="738.38" y="-346.38" font-family="Helvetica,sans-Serif" font-size="10.00">express::dispatcher</text>
<text xml:space="preserve" text-anchor="start" x="738.38" y="-333.62" font-family="Helvetica,sans-Serif" font-size="10.00">::RouterDispatcher::</text>
<text xml:space="preserve" text-anchor="middle" x="786.75" y="-320.88" font-family="Helvetica,sans-Serif" font-size="10.00">getRoutes</text>
</a>
</g>
</g>
<!-- Node5&#45;&gt;Node6 -->
<g id="edge5_Node000005_Node000006" class="edge">
<title>Node5&#45;&gt;Node6</title>
<g id="a_edge5_Node000005_Node000006"><a xlink:title=" ">
<path fill="none" stroke="#63b8ff" d="M662.92,-331.93C680.61,-332.62 700.38,-333.4 718.79,-334.12"/>
<polygon fill="#63b8ff" stroke="#63b8ff" points="718.41,-337.61 728.54,-334.5 718.69,-330.61 718.41,-337.61"/>
</a>
</g>
</g>
<!-- Node7 -->
<g id="Node000007" class="node">
<title>Node7</title>
<g id="a_Node000007"><a xlink:href="classexpress_1_1Route.html#abb8e6506433479e5bd42250aa6262655" target="_top" xlink:title=" ">
<polygon fill="white" stroke="#666666" points="1033.5,-351.12 894.5,-351.12 894.5,-330.38 1033.5,-330.38 1033.5,-351.12"/>
<text xml:space="preserve" text-anchor="middle" x="964" y="-337.62" font-family="Helvetica,sans-Serif" font-size="10.00">express::Route::getRoute</text>
</a>
</g>
</g>
<!-- Node6&#45;&gt;Node7 -->
<g id="edge6_Node000006_Node000007" class="edge">
<title>Node6&#45;&gt;Node7</title>
<g id="a_edge6_Node000006_Node000007"><a xlink:title=" ">
<path fill="none" stroke="#63b8ff" d="M843.2,-338.02C855.81,-338.3 869.46,-338.61 882.87,-338.92"/>
<polygon fill="#63b8ff" stroke="#63b8ff" points="882.46,-342.41 892.54,-339.14 882.62,-335.41 882.46,-342.41"/>
</a>
</g>
</g>
<!-- Node8 -->
<g id="Node000008" class="node">
<title>Node8</title>
<g id="a_Node000008"><a xlink:href="classexpress_1_1Dispatcher.html#ae5699cd0fe73fdfd59325d570601cdc5" target="_top" xlink:title=" ">
<polygon fill="white" stroke="#666666" points="1197.62,-359.5 1084.88,-359.5 1084.88,-326 1197.62,-326 1197.62,-359.5"/>
<text xml:space="preserve" text-anchor="start" x="1092.88" y="-346" font-family="Helvetica,sans-Serif" font-size="10.00">express::Dispatcher</text>
<text xml:space="preserve" text-anchor="middle" x="1141.25" y="-333.25" font-family="Helvetica,sans-Serif" font-size="10.00">::getRoutes</text>
</a>
</g>
</g>
<!-- Node7&#45;&gt;Node8 -->
<g id="edge7_Node000007_Node000008" class="edge">
<title>Node7&#45;&gt;Node8</title>
<g id="a_edge7_Node000007_Node000008"><a xlink:title=" ">
<path fill="none" stroke="#63b8ff" d="M1033.76,-341.53C1046.74,-341.68 1060.3,-341.84 1073.22,-341.99"/>
<polygon fill="#63b8ff" stroke="#63b8ff" points="1072.84,-345.48 1082.88,-342.1 1072.92,-338.48 1072.84,-345.48"/>
</a>
</g>
</g>
<!-- Node10 -->
<g id="Node000010" class="node">
<title>Node10</title>
<g id="a_Node000010"><a xlink:href="classcore_1_1socket_1_1stream_1_1SocketServer.html#a64020939e9a94e44979be4ac244bd063" target="_top" xlink:title=" ">
<polygon fill="white" stroke="#666666" points="498,-182.5 358.25,-182.5 358.25,-149 498,-149 498,-182.5"/>
<text xml:space="preserve" text-anchor="start" x="366.25" y="-169" font-family="Helvetica,sans-Serif" font-size="10.00">core::socket::stream</text>
<text xml:space="preserve" text-anchor="middle" x="428.12" y="-156.25" font-family="Helvetica,sans-Serif" font-size="10.00">::SocketServer::realListen</text>
</a>
</g>
</g>
<!-- Node9&#45;&gt;Node10 -->
<g id="edge9_Node000009_Node000010" class="edge">
<title>Node9&#45;&gt;Node10</title>
<g id="a_edge9_Node000009_Node000010"><a xlink:title=" ">
<path fill="none" stroke="#63b8ff" d="M302.7,-187.49C316.7,-185.05 331.89,-182.39 346.69,-179.81"/>
<polygon fill="#63b8ff" stroke="#63b8ff" points="347.16,-183.28 356.41,-178.11 345.95,-176.38 347.16,-183.28"/>
</a>
</g>
</g>
<!-- Node10&#45;&gt;Node10 -->
<g id="edge24_Node000010_Node000010" class="edge">
<title>Node10&#45;&gt;Node10</title>
<g id="a_edge24_Node000010_Node000010"><a xlink:title=" ">
<path fill="none" stroke="#63b8ff" d="M396.06,-182.91C390.61,-192.12 401.3,-200.5 428.12,-200.5 443.21,-200.5 453.2,-197.85 458.08,-193.89"/>
<polygon fill="#63b8ff" stroke="#63b8ff" points="461.45,-194.88 459.9,-184.4 454.58,-193.56 461.45,-194.88"/>
</a>
</g>
</g>
<!-- Node11 -->
<g id="Node000011" class="node">
<title>Node11</title>
<g id="a_Node000011"><a xlink:href="classcore_1_1EventReceiver.html#a2e8d915eca53e827be4f493a63ae058d" target="_top" xlink:title=" ">
<polygon fill="white" stroke="#666666" points="663.25,-272.5 549.75,-272.5 549.75,-239 663.25,-239 663.25,-272.5"/>
<text xml:space="preserve" text-anchor="start" x="557.75" y="-259" font-family="Helvetica,sans-Serif" font-size="10.00">core::EventReceiver</text>
<text xml:space="preserve" text-anchor="middle" x="606.5" y="-246.25" font-family="Helvetica,sans-Serif" font-size="10.00">::atNextTick</text>
</a>
</g>
</g>
<!-- Node10&#45;&gt;Node11 -->
<g id="edge10_Node000010_Node000011" class="edge">
<title>Node10&#45;&gt;Node11</title>
<g id="a_edge10_Node000010_Node000011"><a xlink:title=" ">
<path fill="none" stroke="#63b8ff" d="M453.76,-182.73C474.53,-196.55 505.36,-215.97 534,-229.75 537.11,-231.25 540.34,-232.71 543.62,-234.13"/>
<polygon fill="#63b8ff" stroke="#63b8ff" points="542.23,-237.34 552.81,-237.93 544.9,-230.88 542.23,-237.34"/>
</a>
</g>
</g>
<!-- Node20 -->
<g id="Node000020" class="node">
<title>Node20</title>
<g id="a_Node000020"><a xlink:href="classutils_1_1Random.html#a9d15c0e2c11092d1e9cebabc0057d5bb" target="_top" xlink:title=" ">
<polygon fill="white" stroke="#666666" points="679,-221.12 534,-221.12 534,-200.38 679,-200.38 679,-221.12"/>
<text xml:space="preserve" text-anchor="middle" x="606.5" y="-207.62" font-family="Helvetica,sans-Serif" font-size="10.00">utils::Random::getInRange</text>
</a>
</g>
</g>
<!-- Node10&#45;&gt;Node20 -->
<g id="edge19_Node000010_Node000020" class="edge">
<title>Node10&#45;&gt;Node20</title>
<g id="a_edge19_Node000010_Node000020"><a xlink:title=" ">
<path fill="none" stroke="#63b8ff" d="M496.56,-182.96C514.91,-187.64 534.53,-192.64 551.99,-197.1"/>
<polygon fill="#63b8ff" stroke="#63b8ff" points="551.09,-200.48 561.65,-199.56 552.83,-193.7 551.09,-200.48"/>
</a>
</g>
</g>
<!-- Node21 -->
<g id="Node000021" class="node">
<title>Node21</title>
<g id="a_Node000021"><a xlink:href="classcore_1_1socket_1_1State.html#a2c16c3c8d05a7e85c99baa78a658d17a" target="_top" xlink:title=" ">
<polygon fill="white" stroke="#666666" points="659.5,-182.5 553.5,-182.5 553.5,-149 659.5,-149 659.5,-182.5"/>
<text xml:space="preserve" text-anchor="start" x="561.5" y="-169" font-family="Helvetica,sans-Serif" font-size="10.00">core::socket::State</text>
<text xml:space="preserve" text-anchor="middle" x="606.5" y="-156.25" font-family="Helvetica,sans-Serif" font-size="10.00">::operator&amp;</text>
</a>
</g>
</g>
<!-- Node10&#45;&gt;Node21 -->
<g id="edge20_Node000010_Node000021" class="edge">
<title>Node10&#45;&gt;Node21</title>
<g id="a_edge20_Node000010_Node000021"><a xlink:title=" ">
<path fill="none" stroke="#63b8ff" d="M498.33,-165.75C512.72,-165.75 527.82,-165.75 542,-165.75"/>
<polygon fill="#63b8ff" stroke="#63b8ff" points="541.62,-169.25 551.62,-165.75 541.62,-162.25 541.62,-169.25"/>
</a>
</g>
</g>
<!-- Node23 -->
<g id="Node000023" class="node">
<title>Node23</title>
<g id="a_Node000023"><a xlink:href="classcore_1_1socket_1_1State.html#a17374479f229f1cca06b73f3ed2bce73" target="_top" xlink:title=" ">
<polygon fill="white" stroke="#666666" points="659.5,-130.5 553.5,-130.5 553.5,-97 659.5,-97 659.5,-130.5"/>
<text xml:space="preserve" text-anchor="start" x="561.5" y="-117" font-family="Helvetica,sans-Serif" font-size="10.00">core::socket::State</text>
<text xml:space="preserve" text-anchor="middle" x="606.5" y="-104.25" font-family="Helvetica,sans-Serif" font-size="10.00">::operator&amp;=</text>
</a>
</g>
</g>
<!-- Node10&#45;&gt;Node23 -->
<g id="edge22_Node000010_Node000023" class="edge">
<title>Node10&#45;&gt;Node23</title>
<g id="a_edge22_Node000010_Node000023"><a xlink:title=" ">
<path fill="none" stroke="#63b8ff" d="M487.37,-148.58C504.98,-143.39 524.41,-137.66 542.33,-132.37"/>
<polygon fill="#63b8ff" stroke="#63b8ff" points="543.21,-135.76 551.81,-129.58 541.23,-129.05 543.21,-135.76"/>
</a>
</g>
</g>
<!-- Node24 -->
<g id="Node000024" class="node">
<title>Node24</title>
<g id="a_Node000024"><a xlink:href="classcore_1_1socket_1_1State.html#a2b42b2e3d02b693c52348700ceab379b" target="_top" xlink:title=" ">
<polygon fill="white" stroke="#666666" points="659.5,-78.5 553.5,-78.5 553.5,-45 659.5,-45 659.5,-78.5"/>
<text xml:space="preserve" text-anchor="start" x="561.5" y="-65" font-family="Helvetica,sans-Serif" font-size="10.00">core::socket::State</text>
<text xml:space="preserve" text-anchor="middle" x="606.5" y="-52.25" font-family="Helvetica,sans-Serif" font-size="10.00">::operator==</text>
</a>
</g>
</g>
<!-- Node10&#45;&gt;Node24 -->
<g id="edge23_Node000010_Node000024" class="edge">
<title>Node10&#45;&gt;Node24</title>
<g id="a_edge23_Node000010_Node000024"><a xlink:title=" ">
<path fill="none" stroke="#63b8ff" d="M448.45,-148.66C468.65,-131.46 501.84,-105.08 534,-87.75 536.83,-86.22 539.78,-84.75 542.78,-83.34"/>
<polygon fill="#63b8ff" stroke="#63b8ff" points="544.05,-86.61 551.79,-79.37 541.22,-80.2 544.05,-86.61"/>
</a>
</g>
</g>
<!-- Node25 -->
<g id="Node000025" class="node">
<title>Node25</title>
<g id="a_Node000025"><a xlink:href="classcore_1_1SNodeC.html#a89f702217b0329573f527bda0021fd51" target="_top" xlink:title=" ">
<polygon fill="white" stroke="#666666" points="662.5,-27.12 550.5,-27.12 550.5,-6.38 662.5,-6.38 662.5,-27.12"/>
<text xml:space="preserve" text-anchor="middle" x="606.5" y="-13.62" font-family="Helvetica,sans-Serif" font-size="10.00">core::SNodeC::state</text>
</a>
</g>
</g>
<!-- Node10&#45;&gt;Node25 -->
<g id="edge25_Node000010_Node000025" class="edge">
<title>Node10&#45;&gt;Node25</title>
<g id="a_edge25_Node000010_Node000025"><a xlink:title=" ">
<path fill="none" stroke="#63b8ff" d="M437.96,-148.94C453.52,-121.03 488.52,-65.28 534,-35.75 535.98,-34.47 538.04,-33.27 540.16,-32.15"/>
<polygon fill="#63b8ff" stroke="#63b8ff" points="541.42,-35.42 549.09,-28.11 538.54,-29.05 541.42,-35.42"/>
</a>
</g>
</g>
<!-- Node12 -->
<g id="Node000012" class="node">
<title>Node12</title>
<g id="a_Node000012"><a xlink:href="classcore_1_1EventReceiver.html#adec275118bd8a68e2b4cb71fa94d79b6" target="_top" xlink:title=" ">
<polygon fill="white" stroke="#666666" points="843.5,-279.5 730,-279.5 730,-246 843.5,-246 843.5,-279.5"/>
<text xml:space="preserve" text-anchor="start" x="738" y="-266" font-family="Helvetica,sans-Serif" font-size="10.00">core::EventReceiver</text>
<text xml:space="preserve" text-anchor="middle" x="786.75" y="-253.25" font-family="Helvetica,sans-Serif" font-size="10.00">::EventReceiver</text>
</a>
</g>
</g>
<!-- Node11&#45;&gt;Node12 -->
<g id="edge11_Node000011_Node000012" class="edge">
<title>Node11&#45;&gt;Node12</title>
<g id="a_edge11_Node000011_Node000012"><a xlink:title=" ">
<path fill="none" stroke="#63b8ff" d="M663.41,-257.95C680.83,-258.63 700.22,-259.39 718.34,-260.1"/>
<polygon fill="#63b8ff" stroke="#63b8ff" points="718.09,-263.6 728.22,-260.49 718.36,-256.6 718.09,-263.6"/>
</a>
</g>
</g>
<!-- Node16 -->
<g id="Node000016" class="node">
<title>Node16</title>
<g id="a_Node000016"><a xlink:href="classcore_1_1EventReceiver.html#ad353e97a9089b2769e52f8825e4878b1" target="_top" xlink:title=" ">
<polygon fill="white" stroke="#666666" points="843.5,-227.5 730,-227.5 730,-194 843.5,-194 843.5,-227.5"/>
<text xml:space="preserve" text-anchor="start" x="738" y="-214" font-family="Helvetica,sans-Serif" font-size="10.00">core::EventReceiver</text>
<text xml:space="preserve" text-anchor="middle" x="786.75" y="-201.25" font-family="Helvetica,sans-Serif" font-size="10.00">::span</text>
</a>
</g>
</g>
<!-- Node11&#45;&gt;Node16 -->
<g id="edge15_Node000011_Node000016" class="edge">
<title>Node11&#45;&gt;Node16</title>
<g id="a_edge15_Node000011_Node000016"><a xlink:title=" ">
<path fill="none" stroke="#63b8ff" d="M663.41,-241.64C680.91,-237.22 700.41,-232.29 718.6,-227.7"/>
<polygon fill="#63b8ff" stroke="#63b8ff" points="719.43,-231.1 728.26,-225.26 717.71,-224.32 719.43,-231.1"/>
</a>
</g>
</g>
<!-- Node13 -->
<g id="Node000013" class="node">
<title>Node13</title>
<g id="a_Node000013"><a xlink:href="classcore_1_1Event.html#a81e45f64219d897d59324c9dd0573936" target="_top" xlink:title=" ">
<polygon fill="white" stroke="#666666" points="1016.25,-273.12 911.75,-273.12 911.75,-252.38 1016.25,-252.38 1016.25,-273.12"/>
<text xml:space="preserve" text-anchor="middle" x="964" y="-259.62" font-family="Helvetica,sans-Serif" font-size="10.00">core::Event::Event</text>
</a>
</g>
</g>
<!-- Node12&#45;&gt;Node13 -->
<g id="edge12_Node000012_Node000013" class="edge">
<title>Node12&#45;&gt;Node13</title>
<g id="a_edge12_Node000012_Node000013"><a xlink:title=" ">
<path fill="none" stroke="#63b8ff" d="M843.68,-262.75C861.68,-262.75 881.75,-262.75 900.21,-262.75"/>
<polygon fill="#63b8ff" stroke="#63b8ff" points="899.95,-266.25 909.95,-262.75 899.95,-259.25 899.95,-266.25"/>
</a>
</g>
</g>
<!-- Node14 -->
<g id="Node000014" class="node">
<title>Node14</title>
<g id="a_Node000014"><a xlink:href="classcore_1_1EventLoop.html#a17f1623de6ca2ea2682c63cf502c3c36" target="_top" xlink:title=" ">
<polygon fill="white" stroke="#666666" points="1213,-307.5 1069.5,-307.5 1069.5,-274 1213,-274 1213,-307.5"/>
<text xml:space="preserve" text-anchor="start" x="1077.5" y="-294" font-family="Helvetica,sans-Serif" font-size="10.00">core::EventLoop::getEvent</text>
<text xml:space="preserve" text-anchor="middle" x="1141.25" y="-281.25" font-family="Helvetica,sans-Serif" font-size="10.00">Multiplexer</text>
</a>
</g>
</g>
<!-- Node13&#45;&gt;Node14 -->
<g id="edge13_Node000013_Node000014" class="edge">
<title>Node13&#45;&gt;Node14</title>
<g id="a_edge13_Node000013_Node000014"><a xlink:title=" ">
<path fill="none" stroke="#63b8ff" d="M1016.63,-271C1029.62,-273.07 1043.88,-275.35 1057.96,-277.6"/>
<polygon fill="#63b8ff" stroke="#63b8ff" points="1057.26,-281.03 1067.69,-279.16 1058.37,-274.12 1057.26,-281.03"/>
</a>
</g>
</g>
<!-- Node15 -->
<g id="Node000015" class="node">
<title>Node15</title>
<g id="a_Node000015"><a xlink:href="classcore_1_1EventLoop.html#a413d227511f68c2c9939719bd2590794" target="_top" xlink:title=" ">
<polygon fill="white" stroke="#666666" points="1211.88,-256.12 1070.62,-256.12 1070.62,-235.38 1211.88,-235.38 1211.88,-256.12"/>
<text xml:space="preserve" text-anchor="middle" x="1141.25" y="-242.62" font-family="Helvetica,sans-Serif" font-size="10.00">core::EventLoop::instance</text>
</a>
</g>
</g>
<!-- Node13&#45;&gt;Node15 -->
<g id="edge14_Node000013_Node000015" class="edge">
<title>Node13&#45;&gt;Node15</title>
<g id="a_edge14_Node000013_Node000015"><a xlink:title=" ">
<path fill="none" stroke="#63b8ff" d="M1016.63,-257.74C1029.86,-256.46 1044.41,-255.05 1058.74,-253.66"/>
<polygon fill="#63b8ff" stroke="#63b8ff" points="1059.03,-257.15 1068.65,-252.7 1058.35,-250.18 1059.03,-257.15"/>
</a>
</g>
</g>
<!-- Node17 -->
<g id="Node000017" class="node">
<title>Node17</title>
<g id="a_Node000017"><a xlink:href="classcore_1_1Event.html#a0a68a616082e2b1aece96499a439884f" target="_top" xlink:title=" ">
<polygon fill="white" stroke="#666666" points="1014,-219.12 914,-219.12 914,-198.38 1014,-198.38 1014,-219.12"/>
<text xml:space="preserve" text-anchor="middle" x="964" y="-205.62" font-family="Helvetica,sans-Serif" font-size="10.00">core::Event::span</text>
</a>
</g>
</g>
<!-- Node16&#45;&gt;Node17 -->
<g id="edge16_Node000016_Node000017" class="edge">
<title>Node16&#45;&gt;Node17</title>
<g id="a_edge16_Node000016_Node000017"><a xlink:title=" ">
<path fill="none" stroke="#63b8ff" d="M843.68,-210.11C862.35,-209.9 883.24,-209.66 902.26,-209.44"/>
<polygon fill="#63b8ff" stroke="#63b8ff" points="902.04,-212.95 912,-209.33 901.96,-205.95 902.04,-212.95"/>
</a>
</g>
</g>
<!-- Node18 -->
<g id="Node000018" class="node">
<title>Node18</title>
<g id="a_Node000018"><a xlink:href="classcore_1_1EventMultiplexer.html#a61d96e95daaebfe6c3b980a2a847bb21" target="_top" xlink:title=" ">
<polygon fill="white" stroke="#666666" points="1204.38,-217.5 1078.12,-217.5 1078.12,-184 1204.38,-184 1204.38,-217.5"/>
<text xml:space="preserve" text-anchor="start" x="1086.12" y="-204" font-family="Helvetica,sans-Serif" font-size="10.00">core::EventMultiplexer</text>
<text xml:space="preserve" text-anchor="middle" x="1141.25" y="-191.25" font-family="Helvetica,sans-Serif" font-size="10.00">::span</text>
</a>
</g>
</g>
<!-- Node17&#45;&gt;Node18 -->
<g id="edge17_Node000017_Node000018" class="edge">
<title>Node17&#45;&gt;Node18</title>
<g id="a_edge17_Node000017_Node000018"><a xlink:title=" ">
<path fill="none" stroke="#63b8ff" d="M1014.28,-206.5C1030.48,-205.76 1048.85,-204.92 1066.45,-204.12"/>
<polygon fill="#63b8ff" stroke="#63b8ff" points="1066.54,-207.62 1076.37,-203.67 1066.22,-200.63 1066.54,-207.62"/>
</a>
</g>
</g>
<!-- Node19 -->
<g id="Node000019" class="node">
<title>Node19</title>
<g id="a_Node000019"><a xlink:href="classcore_1_1EventMultiplexer_1_1EventQueue.html#a009075f2f16a78d3bf8d9e3a20226336" target="_top" xlink:title=" ">
<polygon fill="white" stroke="#666666" points="1375.25,-217.5 1249,-217.5 1249,-184 1375.25,-184 1375.25,-217.5"/>
<text xml:space="preserve" text-anchor="start" x="1257" y="-204" font-family="Helvetica,sans-Serif" font-size="10.00">core::EventMultiplexer</text>
<text xml:space="preserve" text-anchor="middle" x="1312.12" y="-191.25" font-family="Helvetica,sans-Serif" font-size="10.00">::EventQueue::insert</text>
</a>
</g>
</g>
<!-- Node18&#45;&gt;Node19 -->
<g id="edge18_Node000018_Node000019" class="edge">
<title>Node18&#45;&gt;Node19</title>
<g id="a_edge18_Node000018_Node000019"><a xlink:title=" ">
<path fill="none" stroke="#63b8ff" d="M1204.65,-200.75C1215.32,-200.75 1226.5,-200.75 1237.43,-200.75"/>
<polygon fill="#63b8ff" stroke="#63b8ff" points="1237.18,-204.25 1247.18,-200.75 1237.18,-197.25 1237.18,-204.25"/>
</a>
</g>
</g>
<!-- Node22 -->
<g id="Node000022" class="node">
<title>Node22</title>
<g id="a_Node000022"><a xlink:href="classcore_1_1socket_1_1State.html#ab07dc39fe7e79d46832a6ac89aa5e8ec" target="_top" xlink:title=" ">
<polygon fill="white" stroke="#666666" points="839.75,-175.5 733.75,-175.5 733.75,-142 839.75,-142 839.75,-175.5"/>
<text xml:space="preserve" text-anchor="start" x="741.75" y="-162" font-family="Helvetica,sans-Serif" font-size="10.00">core::socket::State</text>
<text xml:space="preserve" text-anchor="middle" x="786.75" y="-149.25" font-family="Helvetica,sans-Serif" font-size="10.00">::State</text>
</a>
</g>
</g>
<!-- Node21&#45;&gt;Node22 -->
<g id="edge21_Node000021_Node000022" class="edge">
<title>Node21&#45;&gt;Node22</title>
<g id="a_edge21_Node000021_Node000022"><a xlink:title=" ">
<path fill="none" stroke="#63b8ff" d="M659.54,-163.71C679.04,-162.94 701.43,-162.06 721.88,-161.26"/>
<polygon fill="#63b8ff" stroke="#63b8ff" points="721.97,-164.76 731.83,-160.87 721.7,-157.76 721.97,-164.76"/>
</a>
</g>
</g>
<!-- Node26 -->
<g id="Node000026" class="node">
<title>Node26</title>
<g id="a_Node000026"><a xlink:href="classcore_1_1EventLoop.html#a2a5630955f1449eb2141e711985590a7" target="_top" xlink:title=" ">
<polygon fill="white" stroke="#666666" points="858.5,-33.5 715,-33.5 715,0 858.5,0 858.5,-33.5"/>
<text xml:space="preserve" text-anchor="start" x="723" y="-20" font-family="Helvetica,sans-Serif" font-size="10.00">core::EventLoop::getEvent</text>
<text xml:space="preserve" text-anchor="middle" x="786.75" y="-7.25" font-family="Helvetica,sans-Serif" font-size="10.00">LoopState</text>
</a>
</g>
</g>
<!-- Node25&#45;&gt;Node26 -->
<g id="edge26_Node000025_Node000026" class="edge">
<title>Node25&#45;&gt;Node26</title>
<g id="a_edge26_Node000025_Node000026"><a xlink:title=" ">
<path fill="none" stroke="#63b8ff" d="M662.92,-16.75C675.7,-16.75 689.56,-16.75 703.21,-16.75"/>
<polygon fill="#63b8ff" stroke="#63b8ff" points="703.08,-20.25 713.08,-16.75 703.08,-13.25 703.08,-20.25"/>
</a>
</g>
</g>
</g>
</svg>

<g id="navigator" transform="translate(0 0)" fill="#404254">
  <rect fill="#f2f5e9" fill-opacity="0.5" stroke="#606060" stroke-width=".5" x="0" y="0" width="60" height="60"/>
  <use id="zoomplus" xlink:href="#zoomPlus" x="17" y="9" onmousedown="handleZoom(evt,'in')"/>
  <use id="zoomminus" xlink:href="#zoomMin" x="42" y="9" onmousedown="handleZoom(evt,'out')"/>
  <use id="reset" xlink:href="#resetDef" x="30" y="36" onmousedown="handleReset()"/>
   <use id="arrowup" xlink:href="#arrowUp" x="0" y="0" onmousedown="handlePan(0,-1)"/>
  <use id="arrowright" xlink:href="#arrowRight" x="0" y="0" onmousedown="handlePan(1,0)"/>
  <use id="arrowdown" xlink:href="#arrowDown" x="0" y="0" onmousedown="handlePan(0,1)"/>
  <use id="arrowleft" xlink:href="#arrowLeft" x="0" y="0" onmousedown="handlePan(-1,0)"/>
</g>
<svg viewBox="0 0 15 15" width="100%" height="30px" preserveAspectRatio="xMaxYMin meet">
 <g id="arrow_out" transform="scale(0.3 0.3)">
  <a xlink:href="namespaceexpress_1_1tls_1_1un_abe3e55028cd431d121fd579c3ee38831_cgraph_org.svg" target="_base">
   <rect id="button" ry="5" rx="5" y="6" x="6" height="38" width="38"
        fill="#f2f5e9" fill-opacity="0.5" stroke="#606060" stroke-width="1.0"/>
   <path id="arrow"
     d="M 11.500037,31.436501 C 11.940474,20.09759 22.043105,11.32322 32.158766,21.979434 L 37.068811,17.246167 C 37.068811,17.246167 37.088388,32 37.088388,32 L 22.160133,31.978069 C 22.160133,31.978069 26.997745,27.140456 26.997745,27.140456 C 18.528582,18.264221 13.291696,25.230495 11.500037,31.436501 z"
     style="fill:#404040;"/>
  </a>
 </g>
</svg>

<style type='text/css'>
<![CDATA[
[data-mouse-over-selected='false'] { opacity: 0.7; }
[data-mouse-over-selected='true']  { opacity: 1.0; }
]]>
</style>
<script type="application/ecmascript"><![CDATA[
document.addEventListener('DOMContentLoaded', (event) => {
  highlightEdges();
  highlightAdjacentNodes();
});
]]></script>
</svg>
