<?xml version="1.0" encoding="UTF-8" standalone="no"?>
<!DOCTYPE svg PUBLIC "-//W3C//DTD SVG 1.1//EN"
 "http://www.w3.org/Graphics/SVG/1.1/DTD/svg11.dtd">
<!-- Generated by graphviz version 2.42.4 (0)
 -->
<!-- Title: net/rc/stream/SocketClient.h Pages: 1 -->
<svg width="506pt" height="159pt"
 viewBox="0.00 0.00 506.00 159.00" xmlns="http://www.w3.org/2000/svg" xmlns:xlink="http://www.w3.org/1999/xlink">
<g id="graph0" class="graph" transform="scale(1 1) rotate(0) translate(4 155)">
<title>net/rc/stream/SocketClient.h</title>
<!-- Node1 -->
<g id="Node000001" class="node">
<title>Node1</title>
<g id="a_Node000001"><a xlink:title=" ">
<polygon fill="#999999" stroke="#666666" points="309,-151 167,-151 167,-132 309,-132 309,-151"/>
<text text-anchor="middle" x="238" y="-139" font-family="Helvetica,sans-Serif" font-size="10.00">net/rc/stream/SocketClient.h</text>
</a>
</g>
</g>
<!-- Node2 -->
<g id="Node000002" class="node">
<title>Node2</title>
<g id="a_Node000002"><a xlink:href="net_2rc_2stream_2legacy_2SocketClient_8h.html" target="_top" xlink:title=" ">
<polygon fill="white" stroke="#666666" points="225,-96 119,-96 119,-66 225,-66 225,-96"/>
<text text-anchor="start" x="127" y="-84" font-family="Helvetica,sans-Serif" font-size="10.00">net/rc/stream/legacy</text>
<text text-anchor="middle" x="172" y="-73" font-family="Helvetica,sans-Serif" font-size="10.00">/SocketClient.h</text>
</a>
</g>
</g>
<!-- Node1&#45;&gt;Node2 -->
<g id="edge1_Node000001_Node000002" class="edge">
<title>Node1&#45;&gt;Node2</title>
<g id="a_edge1_Node000001_Node000002"><a xlink:title=" ">
<path fill="none" stroke="#63b8ff" d="M220.78,-125.23C210.62,-116.23 197.85,-104.91 187.92,-96.11"/>
<polygon fill="#63b8ff" stroke="#63b8ff" points="218.46,-127.85 228.26,-131.87 223.1,-122.62 218.46,-127.85"/>
</a>
</g>
</g>
<!-- Node5 -->
<g id="Node000005" class="node">
<title>Node5</title>
<g id="a_Node000005"><a xlink:href="net_2rc_2stream_2tls_2SocketClient_8h.html" target="_top" xlink:title=" ">
<polygon fill="white" stroke="#666666" points="365,-96 243,-96 243,-66 365,-66 365,-96"/>
<text text-anchor="start" x="251" y="-84" font-family="Helvetica,sans-Serif" font-size="10.00">net/rc/stream/tls/Socket</text>
<text text-anchor="middle" x="304" y="-73" font-family="Helvetica,sans-Serif" font-size="10.00">Client.h</text>
</a>
</g>
</g>
<!-- Node1&#45;&gt;Node5 -->
<g id="edge4_Node000001_Node000005" class="edge">
<title>Node1&#45;&gt;Node5</title>
<g id="a_edge4_Node000001_Node000005"><a xlink:title=" ">
<path fill="none" stroke="#63b8ff" d="M255.22,-125.23C265.38,-116.23 278.15,-104.91 288.08,-96.11"/>
<polygon fill="#63b8ff" stroke="#63b8ff" points="252.9,-122.62 247.74,-131.87 257.54,-127.85 252.9,-122.62"/>
</a>
</g>
</g>
<!-- Node3 -->
<g id="Node000003" class="node">
<title>Node3</title>
<g id="a_Node000003"><a xlink:href="rc_2stream_2legacy_2SocketClient_8cpp.html" target="_top" xlink:title=" ">
<polygon fill="white" stroke="#666666" points="106,-30 0,-30 0,0 106,0 106,-30"/>
<text text-anchor="start" x="8" y="-18" font-family="Helvetica,sans-Serif" font-size="10.00">net/rc/stream/legacy</text>
<text text-anchor="middle" x="53" y="-7" font-family="Helvetica,sans-Serif" font-size="10.00">/SocketClient.cpp</text>
</a>
</g>
</g>
<!-- Node2&#45;&gt;Node3 -->
<g id="edge2_Node000002_Node000003" class="edge">
<title>Node2&#45;&gt;Node3</title>
<g id="a_edge2_Node000002_Node000003"><a xlink:title=" ">
<path fill="none" stroke="#63b8ff" d="M136.87,-61.11C118.35,-51.14 96.01,-39.13 79.05,-30.01"/>
<polygon fill="#63b8ff" stroke="#63b8ff" points="135.42,-64.3 145.88,-65.95 138.74,-58.14 135.42,-64.3"/>
</a>
</g>
</g>
<!-- Node4 -->
<g id="Node000004" class="node">
<title>Node4</title>
<g id="a_Node000004"><a xlink:href="legacy_2rc_2Client_8h.html" target="_top" xlink:title=" ">
<polygon fill="white" stroke="#666666" points="221.5,-30 124.5,-30 124.5,0 221.5,0 221.5,-30"/>
<text text-anchor="start" x="132.5" y="-18" font-family="Helvetica,sans-Serif" font-size="10.00">web/http/legacy/rc</text>
<text text-anchor="middle" x="173" y="-7" font-family="Helvetica,sans-Serif" font-size="10.00">/Client.h</text>
</a>
</g>
</g>
<!-- Node2&#45;&gt;Node4 -->
<g id="edge3_Node000002_Node000004" class="edge">
<title>Node2&#45;&gt;Node4</title>
<g id="a_edge3_Node000002_Node000004"><a xlink:title=" ">
<path fill="none" stroke="#63b8ff" d="M172.38,-55.54C172.52,-46.96 172.66,-37.61 172.78,-30.16"/>
<polygon fill="#63b8ff" stroke="#63b8ff" points="168.88,-55.74 172.22,-65.8 175.88,-55.85 168.88,-55.74"/>
</a>
</g>
</g>
<!-- Node6 -->
<g id="Node000006" class="node">
<title>Node6</title>
<g id="a_Node000006"><a xlink:href="rc_2stream_2tls_2SocketClient_8cpp.html" target="_top" xlink:title=" ">
<polygon fill="white" stroke="#666666" points="364,-30 242,-30 242,0 364,0 364,-30"/>
<text text-anchor="start" x="250" y="-18" font-family="Helvetica,sans-Serif" font-size="10.00">net/rc/stream/tls/Socket</text>
<text text-anchor="middle" x="303" y="-7" font-family="Helvetica,sans-Serif" font-size="10.00">Client.cpp</text>
</a>
</g>
</g>
<!-- Node5&#45;&gt;Node6 -->
<g id="edge5_Node000005_Node000006" class="edge">
<title>Node5&#45;&gt;Node6</title>
<g id="a_edge5_Node000005_Node000006"><a xlink:title=" ">
<path fill="none" stroke="#63b8ff" d="M303.62,-55.54C303.48,-46.96 303.34,-37.61 303.22,-30.16"/>
<polygon fill="#63b8ff" stroke="#63b8ff" points="300.12,-55.85 303.78,-65.8 307.12,-55.74 300.12,-55.85"/>
</a>
</g>
</g>
<!-- Node7 -->
<g id="Node000007" class="node">
<title>Node7</title>
<g id="a_Node000007"><a xlink:href="tls_2rc_2Client_8h.html" target="_top" xlink:title=" ">
<polygon fill="white" stroke="#666666" points="498,-24.5 382,-24.5 382,-5.5 498,-5.5 498,-24.5"/>
<text text-anchor="middle" x="440" y="-12.5" font-family="Helvetica,sans-Serif" font-size="10.00">web/http/tls/rc/Client.h</text>
</a>
</g>
</g>
<!-- Node5&#45;&gt;Node7 -->
<g id="edge6_Node000005_Node000007" class="edge">
<title>Node5&#45;&gt;Node7</title>
<g id="a_edge6_Node000005_Node000007"><a xlink:title=" ">
<path fill="none" stroke="#63b8ff" d="M343.06,-61.62C369.01,-49.41 401.88,-33.94 421.9,-24.52"/>
<polygon fill="#63b8ff" stroke="#63b8ff" points="341.4,-58.53 333.85,-65.95 344.38,-64.86 341.4,-58.53"/>
</a>
</g>
</g>
</g>
</svg>
