<?xml version="1.0" encoding="UTF-8" standalone="no"?>
<!DOCTYPE svg PUBLIC "-//W3C//DTD SVG 1.1//EN"
 "http://www.w3.org/Graphics/SVG/1.1/DTD/svg11.dtd">
<!-- Generated by graphviz version 2.42.4 (0)
 -->
<!-- Title: net/l2/SocketAddress.h Pages: 1 -->
<svg width="1620pt" height="412pt"
 viewBox="0.00 0.00 1620.00 412.00" xmlns="http://www.w3.org/2000/svg" xmlns:xlink="http://www.w3.org/1999/xlink">
<g id="graph0" class="graph" transform="scale(1 1) rotate(0) translate(4 408)">
<title>net/l2/SocketAddress.h</title>
<!-- Node1 -->
<g id="Node000001" class="node">
<title>Node1</title>
<g id="a_Node000001"><a xlink:title=" ">
<polygon fill="#999999" stroke="#666666" points="1109,-404 981,-404 981,-385 1109,-385 1109,-404"/>
<text text-anchor="middle" x="1045" y="-392" font-family="Helvetica,sans-Serif" font-size="10.00">net/l2/SocketAddress.h</text>
</a>
</g>
</g>
<!-- Node2 -->
<g id="Node000002" class="node">
<title>Node2</title>
<g id="a_Node000002"><a xlink:href="net_2l2_2SocketAddress_8cpp.html" target="_top" xlink:title=" ">
<polygon fill="white" stroke="#666666" points="965.5,-349 826.5,-349 826.5,-330 965.5,-330 965.5,-349"/>
<text text-anchor="middle" x="896" y="-337" font-family="Helvetica,sans-Serif" font-size="10.00">net/l2/SocketAddress.cpp</text>
</a>
</g>
</g>
<!-- Node1&#45;&gt;Node2 -->
<g id="edge1_Node000001_Node000002" class="edge">
<title>Node1&#45;&gt;Node2</title>
<g id="a_edge1_Node000001_Node000002"><a xlink:title=" ">
<path fill="none" stroke="#63b8ff" d="M1011.41,-381.55C983.74,-371.71 945.16,-357.98 920.38,-349.17"/>
<polygon fill="#63b8ff" stroke="#63b8ff" points="1010.47,-384.93 1021.06,-384.98 1012.81,-378.34 1010.47,-384.93"/>
</a>
</g>
</g>
<!-- Node3 -->
<g id="Node000003" class="node">
<title>Node3</title>
<g id="a_Node000003"><a xlink:href="l2_2config_2ConfigAddress_8h.html" target="_top" xlink:title=" ">
<polygon fill="white" stroke="#666666" points="602,-288.5 442,-288.5 442,-269.5 602,-269.5 602,-288.5"/>
<text text-anchor="middle" x="522" y="-276.5" font-family="Helvetica,sans-Serif" font-size="10.00">net/l2/config/ConfigAddress.h</text>
</a>
</g>
</g>
<!-- Node1&#45;&gt;Node3 -->
<g id="edge2_Node000001_Node000003" class="edge">
<title>Node1&#45;&gt;Node3</title>
<g id="a_edge2_Node000001_Node000003"><a xlink:title=" ">
<path fill="none" stroke="#63b8ff" d="M1031.62,-376.67C1018.63,-361.66 997.48,-340.48 974,-330 909.39,-301.15 713.65,-288.19 602.1,-283.01"/>
<polygon fill="#63b8ff" stroke="#63b8ff" points="1029.19,-379.22 1038.28,-384.67 1034.57,-374.74 1029.19,-379.22"/>
</a>
</g>
</g>
<!-- Node25 -->
<g id="Node000025" class="node">
<title>Node25</title>
<g id="a_Node000025"><a xlink:href="l2_2phy_2PhysicalSocket_8cpp.html" target="_top" xlink:title=" ">
<polygon fill="white" stroke="#666666" points="1351.5,-349 1190.5,-349 1190.5,-330 1351.5,-330 1351.5,-349"/>
<text text-anchor="middle" x="1271" y="-337" font-family="Helvetica,sans-Serif" font-size="10.00">net/l2/phy/PhysicalSocket.cpp</text>
</a>
</g>
</g>
<!-- Node1&#45;&gt;Node25 -->
<g id="edge24_Node000001_Node000025" class="edge">
<title>Node1&#45;&gt;Node25</title>
<g id="a_edge24_Node000001_Node000025"><a xlink:title=" ">
<path fill="none" stroke="#63b8ff" d="M1091.09,-382.69C1133.44,-372.76 1195.36,-358.24 1234.4,-349.08"/>
<polygon fill="#63b8ff" stroke="#63b8ff" points="1090.25,-379.29 1081.31,-384.98 1091.85,-386.11 1090.25,-379.29"/>
</a>
</g>
</g>
<!-- Node26 -->
<g id="Node000026" class="node">
<title>Node26</title>
<g id="a_Node000026"><a xlink:href="l2_2phy_2PhysicalSocket_8h.html" target="_top" xlink:title=" ">
<polygon fill="white" stroke="#666666" points="1172,-349 1022,-349 1022,-330 1172,-330 1172,-349"/>
<text text-anchor="middle" x="1097" y="-337" font-family="Helvetica,sans-Serif" font-size="10.00">net/l2/phy/PhysicalSocket.h</text>
</a>
</g>
</g>
<!-- Node1&#45;&gt;Node26 -->
<g id="edge25_Node000001_Node000026" class="edge">
<title>Node1&#45;&gt;Node26</title>
<g id="a_edge25_Node000001_Node000026"><a xlink:title=" ">
<path fill="none" stroke="#63b8ff" d="M1060.68,-377.52C1069.84,-368.18 1081.05,-356.75 1088.57,-349.09"/>
<polygon fill="#63b8ff" stroke="#63b8ff" points="1058.09,-375.16 1053.59,-384.75 1063.09,-380.06 1058.09,-375.16"/>
</a>
</g>
</g>
<!-- Node4 -->
<g id="Node000004" class="node">
<title>Node4</title>
<g id="a_Node000004"><a xlink:href="l2_2config_2ConfigAddress_8cpp.html" target="_top" xlink:title=" ">
<polygon fill="white" stroke="#666666" points="318.5,-222.5 147.5,-222.5 147.5,-203.5 318.5,-203.5 318.5,-222.5"/>
<text text-anchor="middle" x="233" y="-210.5" font-family="Helvetica,sans-Serif" font-size="10.00">net/l2/config/ConfigAddress.cpp</text>
</a>
</g>
</g>
<!-- Node3&#45;&gt;Node4 -->
<g id="edge3_Node000003_Node000004" class="edge">
<title>Node3&#45;&gt;Node4</title>
<g id="a_edge3_Node000003_Node000004"><a xlink:title=" ">
<path fill="none" stroke="#63b8ff" d="M473.49,-267.26C416.63,-254.67 323.56,-234.06 271.45,-222.51"/>
<polygon fill="#63b8ff" stroke="#63b8ff" points="472.8,-270.69 483.32,-269.44 474.32,-263.86 472.8,-270.69"/>
</a>
</g>
</g>
<!-- Node5 -->
<g id="Node000005" class="node">
<title>Node5</title>
<g id="a_Node000005"><a xlink:href="l2_2stream_2config_2ConfigSocketClient_8h.html" target="_top" xlink:title=" ">
<polygon fill="white" stroke="#666666" points="705.5,-228 584.5,-228 584.5,-198 705.5,-198 705.5,-228"/>
<text text-anchor="start" x="592.5" y="-216" font-family="Helvetica,sans-Serif" font-size="10.00">net/l2/stream/config</text>
<text text-anchor="middle" x="645" y="-205" font-family="Helvetica,sans-Serif" font-size="10.00">/ConfigSocketClient.h</text>
</a>
</g>
</g>
<!-- Node3&#45;&gt;Node5 -->
<g id="edge4_Node000003_Node000005" class="edge">
<title>Node3&#45;&gt;Node5</title>
<g id="a_edge4_Node000003_Node000005"><a xlink:title=" ">
<path fill="none" stroke="#63b8ff" d="M547.67,-264.64C568.21,-253.95 596.95,-239 617.87,-228.12"/>
<polygon fill="#63b8ff" stroke="#63b8ff" points="545.84,-261.65 538.59,-269.37 549.07,-267.86 545.84,-261.65"/>
</a>
</g>
</g>
<!-- Node15 -->
<g id="Node000015" class="node">
<title>Node15</title>
<g id="a_Node000015"><a xlink:href="l2_2stream_2config_2ConfigSocketServer_8h.html" target="_top" xlink:title=" ">
<polygon fill="white" stroke="#666666" points="461,-228 337,-228 337,-198 461,-198 461,-228"/>
<text text-anchor="start" x="345" y="-216" font-family="Helvetica,sans-Serif" font-size="10.00">net/l2/stream/config</text>
<text text-anchor="middle" x="399" y="-205" font-family="Helvetica,sans-Serif" font-size="10.00">/ConfigSocketServer.h</text>
</a>
</g>
</g>
<!-- Node3&#45;&gt;Node15 -->
<g id="edge14_Node000003_Node000015" class="edge">
<title>Node3&#45;&gt;Node15</title>
<g id="a_edge14_Node000003_Node000015"><a xlink:title=" ">
<path fill="none" stroke="#63b8ff" d="M496.33,-264.64C475.79,-253.95 447.05,-239 426.13,-228.12"/>
<polygon fill="#63b8ff" stroke="#63b8ff" points="494.93,-267.86 505.41,-269.37 498.16,-261.65 494.93,-267.86"/>
</a>
</g>
</g>
<!-- Node6 -->
<g id="Node000006" class="node">
<title>Node6</title>
<g id="a_Node000006"><a xlink:href="l2_2stream_2config_2ConfigSocketClient_8cpp.html" target="_top" xlink:title=" ">
<polygon fill="white" stroke="#666666" points="614,-162 482,-162 482,-132 614,-132 614,-162"/>
<text text-anchor="start" x="490" y="-150" font-family="Helvetica,sans-Serif" font-size="10.00">net/l2/stream/config</text>
<text text-anchor="middle" x="548" y="-139" font-family="Helvetica,sans-Serif" font-size="10.00">/ConfigSocketClient.cpp</text>
</a>
</g>
</g>
<!-- Node5&#45;&gt;Node6 -->
<g id="edge5_Node000005_Node000006" class="edge">
<title>Node5&#45;&gt;Node6</title>
<g id="a_edge5_Node000005_Node000006"><a xlink:title=" ">
<path fill="none" stroke="#63b8ff" d="M614.73,-192.03C600.05,-182.34 582.77,-170.94 569.47,-162.16"/>
<polygon fill="#63b8ff" stroke="#63b8ff" points="613.2,-195.21 623.47,-197.8 617.05,-189.37 613.2,-195.21"/>
</a>
</g>
</g>
<!-- Node7 -->
<g id="Node000007" class="node">
<title>Node7</title>
<g id="a_Node000007"><a xlink:href="l2_2stream_2legacy_2config_2ConfigSocketClient_8h.html" target="_top" xlink:title=" ">
<polygon fill="white" stroke="#666666" points="962,-162 808,-162 808,-132 962,-132 962,-162"/>
<text text-anchor="start" x="816" y="-150" font-family="Helvetica,sans-Serif" font-size="10.00">net/l2/stream/legacy</text>
<text text-anchor="middle" x="885" y="-139" font-family="Helvetica,sans-Serif" font-size="10.00">/config/ConfigSocketClient.h</text>
</a>
</g>
</g>
<!-- Node5&#45;&gt;Node7 -->
<g id="edge6_Node000005_Node000007" class="edge">
<title>Node5&#45;&gt;Node7</title>
<g id="a_edge6_Node000005_Node000007"><a xlink:title=" ">
<path fill="none" stroke="#63b8ff" d="M707.8,-195.25C746.57,-184.91 795.75,-171.8 832.45,-162.01"/>
<polygon fill="#63b8ff" stroke="#63b8ff" points="706.43,-192 697.67,-197.95 708.23,-198.76 706.43,-192"/>
</a>
</g>
</g>
<!-- Node11 -->
<g id="Node000011" class="node">
<title>Node11</title>
<g id="a_Node000011"><a xlink:href="l2_2stream_2tls_2config_2ConfigSocketClient_8h.html" target="_top" xlink:title=" ">
<polygon fill="white" stroke="#666666" points="1284,-162 1154,-162 1154,-132 1284,-132 1284,-162"/>
<text text-anchor="start" x="1162" y="-150" font-family="Helvetica,sans-Serif" font-size="10.00">net/l2/stream/tls/config</text>
<text text-anchor="middle" x="1219" y="-139" font-family="Helvetica,sans-Serif" font-size="10.00">/ConfigSocketClient.h</text>
</a>
</g>
</g>
<!-- Node5&#45;&gt;Node11 -->
<g id="edge10_Node000005_Node000011" class="edge">
<title>Node5&#45;&gt;Node11</title>
<g id="a_edge10_Node000005_Node000011"><a xlink:title=" ">
<path fill="none" stroke="#63b8ff" d="M715.79,-205.69C833.38,-195.08 1064.04,-173.68 1145,-162 1147.85,-161.59 1150.75,-161.15 1153.68,-160.68"/>
<polygon fill="#63b8ff" stroke="#63b8ff" points="715.45,-202.21 705.8,-206.59 716.07,-209.18 715.45,-202.21"/>
</a>
</g>
</g>
<!-- Node8 -->
<g id="Node000008" class="node">
<title>Node8</title>
<g id="a_Node000008"><a xlink:href="net_2l2_2stream_2legacy_2SocketClient_8h.html" target="_top" xlink:title=" ">
<polygon fill="white" stroke="#666666" points="1043.5,-96 926.5,-96 926.5,-66 1043.5,-66 1043.5,-96"/>
<text text-anchor="start" x="934.5" y="-84" font-family="Helvetica,sans-Serif" font-size="10.00">net/l2/stream/legacy</text>
<text text-anchor="middle" x="985" y="-73" font-family="Helvetica,sans-Serif" font-size="10.00">/SocketClient.h</text>
</a>
</g>
</g>
<!-- Node7&#45;&gt;Node8 -->
<g id="edge7_Node000007_Node000008" class="edge">
<title>Node7&#45;&gt;Node8</title>
<g id="a_edge7_Node000007_Node000008"><a xlink:title=" ">
<path fill="none" stroke="#63b8ff" d="M915.78,-126.3C931,-116.56 949.03,-105.02 962.87,-96.16"/>
<polygon fill="#63b8ff" stroke="#63b8ff" points="913.73,-123.46 907.19,-131.8 917.5,-129.35 913.73,-123.46"/>
</a>
</g>
</g>
<!-- Node10 -->
<g id="Node000010" class="node">
<title>Node10</title>
<g id="a_Node000010"><a xlink:href="l2_2stream_2legacy_2config_2ConfigSocketClient_8cpp.html" target="_top" xlink:title=" ">
<polygon fill="white" stroke="#666666" points="908.5,-96 743.5,-96 743.5,-66 908.5,-66 908.5,-96"/>
<text text-anchor="start" x="751.5" y="-84" font-family="Helvetica,sans-Serif" font-size="10.00">net/l2/stream/legacy</text>
<text text-anchor="middle" x="826" y="-73" font-family="Helvetica,sans-Serif" font-size="10.00">/config/ConfigSocketClient.cpp</text>
</a>
</g>
</g>
<!-- Node7&#45;&gt;Node10 -->
<g id="edge9_Node000007_Node000010" class="edge">
<title>Node7&#45;&gt;Node10</title>
<g id="a_edge9_Node000007_Node000010"><a xlink:title=" ">
<path fill="none" stroke="#63b8ff" d="M865.06,-124.37C856.48,-115.06 846.69,-104.44 839.06,-96.16"/>
<polygon fill="#63b8ff" stroke="#63b8ff" points="862.55,-126.82 871.91,-131.8 867.7,-122.07 862.55,-126.82"/>
</a>
</g>
</g>
<!-- Node9 -->
<g id="Node000009" class="node">
<title>Node9</title>
<g id="a_Node000009"><a xlink:href="l2_2stream_2legacy_2SocketClient_8cpp.html" target="_top" xlink:title=" ">
<polygon fill="white" stroke="#666666" points="1043.5,-30 926.5,-30 926.5,0 1043.5,0 1043.5,-30"/>
<text text-anchor="start" x="934.5" y="-18" font-family="Helvetica,sans-Serif" font-size="10.00">net/l2/stream/legacy</text>
<text text-anchor="middle" x="985" y="-7" font-family="Helvetica,sans-Serif" font-size="10.00">/SocketClient.cpp</text>
</a>
</g>
</g>
<!-- Node8&#45;&gt;Node9 -->
<g id="edge8_Node000008_Node000009" class="edge">
<title>Node8&#45;&gt;Node9</title>
<g id="a_edge8_Node000008_Node000009"><a xlink:title=" ">
<path fill="none" stroke="#63b8ff" d="M985,-55.54C985,-46.96 985,-37.61 985,-30.16"/>
<polygon fill="#63b8ff" stroke="#63b8ff" points="981.5,-55.8 985,-65.8 988.5,-55.8 981.5,-55.8"/>
</a>
</g>
</g>
<!-- Node12 -->
<g id="Node000012" class="node">
<title>Node12</title>
<g id="a_Node000012"><a xlink:href="net_2l2_2stream_2tls_2SocketClient_8h.html" target="_top" xlink:title=" ">
<polygon fill="white" stroke="#666666" points="1194,-96 1062,-96 1062,-66 1194,-66 1194,-96"/>
<text text-anchor="start" x="1070" y="-84" font-family="Helvetica,sans-Serif" font-size="10.00">net/l2/stream/tls/Socket</text>
<text text-anchor="middle" x="1128" y="-73" font-family="Helvetica,sans-Serif" font-size="10.00">Client.h</text>
</a>
</g>
</g>
<!-- Node11&#45;&gt;Node12 -->
<g id="edge11_Node000011_Node000012" class="edge">
<title>Node11&#45;&gt;Node12</title>
<g id="a_edge11_Node000011_Node000012"><a xlink:title=" ">
<path fill="none" stroke="#63b8ff" d="M1190.6,-126.03C1176.83,-116.34 1160.62,-104.94 1148.14,-96.16"/>
<polygon fill="#63b8ff" stroke="#63b8ff" points="1188.61,-128.91 1198.8,-131.8 1192.64,-123.18 1188.61,-128.91"/>
</a>
</g>
</g>
<!-- Node14 -->
<g id="Node000014" class="node">
<title>Node14</title>
<g id="a_Node000014"><a xlink:href="l2_2stream_2tls_2config_2ConfigSocketClient_8cpp.html" target="_top" xlink:title=" ">
<polygon fill="white" stroke="#666666" points="1344,-96 1212,-96 1212,-66 1344,-66 1344,-96"/>
<text text-anchor="start" x="1220" y="-84" font-family="Helvetica,sans-Serif" font-size="10.00">net/l2/stream/tls/config</text>
<text text-anchor="middle" x="1278" y="-73" font-family="Helvetica,sans-Serif" font-size="10.00">/ConfigSocketClient.cpp</text>
</a>
</g>
</g>
<!-- Node11&#45;&gt;Node14 -->
<g id="edge13_Node000011_Node000014" class="edge">
<title>Node11&#45;&gt;Node14</title>
<g id="a_edge13_Node000011_Node000014"><a xlink:title=" ">
<path fill="none" stroke="#63b8ff" d="M1238.94,-124.37C1247.52,-115.06 1257.31,-104.44 1264.94,-96.16"/>
<polygon fill="#63b8ff" stroke="#63b8ff" points="1236.3,-122.07 1232.09,-131.8 1241.45,-126.82 1236.3,-122.07"/>
</a>
</g>
</g>
<!-- Node13 -->
<g id="Node000013" class="node">
<title>Node13</title>
<g id="a_Node000013"><a xlink:href="l2_2stream_2tls_2SocketClient_8cpp.html" target="_top" xlink:title=" ">
<polygon fill="white" stroke="#666666" points="1194,-30 1062,-30 1062,0 1194,0 1194,-30"/>
<text text-anchor="start" x="1070" y="-18" font-family="Helvetica,sans-Serif" font-size="10.00">net/l2/stream/tls/Socket</text>
<text text-anchor="middle" x="1128" y="-7" font-family="Helvetica,sans-Serif" font-size="10.00">Client.cpp</text>
</a>
</g>
</g>
<!-- Node12&#45;&gt;Node13 -->
<g id="edge12_Node000012_Node000013" class="edge">
<title>Node12&#45;&gt;Node13</title>
<g id="a_edge12_Node000012_Node000013"><a xlink:title=" ">
<path fill="none" stroke="#63b8ff" d="M1128,-55.54C1128,-46.96 1128,-37.61 1128,-30.16"/>
<polygon fill="#63b8ff" stroke="#63b8ff" points="1124.5,-55.8 1128,-65.8 1131.5,-55.8 1124.5,-55.8"/>
</a>
</g>
</g>
<!-- Node16 -->
<g id="Node000016" class="node">
<title>Node16</title>
<g id="a_Node000016"><a xlink:href="l2_2stream_2config_2ConfigSocketServer_8cpp.html" target="_top" xlink:title=" ">
<polygon fill="white" stroke="#666666" points="315.5,-162 180.5,-162 180.5,-132 315.5,-132 315.5,-162"/>
<text text-anchor="start" x="188.5" y="-150" font-family="Helvetica,sans-Serif" font-size="10.00">net/l2/stream/config</text>
<text text-anchor="middle" x="248" y="-139" font-family="Helvetica,sans-Serif" font-size="10.00">/ConfigSocketServer.cpp</text>
</a>
</g>
</g>
<!-- Node15&#45;&gt;Node16 -->
<g id="edge15_Node000015_Node000016" class="edge">
<title>Node15&#45;&gt;Node16</title>
<g id="a_edge15_Node000015_Node000016"><a xlink:title=" ">
<path fill="none" stroke="#63b8ff" d="M356.34,-193.92C332.47,-183.8 303.17,-171.38 281.06,-162.01"/>
<polygon fill="#63b8ff" stroke="#63b8ff" points="355.29,-197.28 365.86,-197.95 358.02,-190.83 355.29,-197.28"/>
</a>
</g>
</g>
<!-- Node17 -->
<g id="Node000017" class="node">
<title>Node17</title>
<g id="a_Node000017"><a xlink:href="l2_2stream_2legacy_2config_2ConfigSocketServer_8h.html" target="_top" xlink:title=" ">
<polygon fill="white" stroke="#666666" points="162.5,-162 5.5,-162 5.5,-132 162.5,-132 162.5,-162"/>
<text text-anchor="start" x="13.5" y="-150" font-family="Helvetica,sans-Serif" font-size="10.00">net/l2/stream/legacy</text>
<text text-anchor="middle" x="84" y="-139" font-family="Helvetica,sans-Serif" font-size="10.00">/config/ConfigSocketServer.h</text>
</a>
</g>
</g>
<!-- Node15&#45;&gt;Node17 -->
<g id="edge16_Node000015_Node000017" class="edge">
<title>Node15&#45;&gt;Node17</title>
<g id="a_edge16_Node000015_Node000017"><a xlink:title=" ">
<path fill="none" stroke="#63b8ff" d="M326.9,-197.35C274.66,-186.74 204.44,-172.47 152.94,-162.01"/>
<polygon fill="#63b8ff" stroke="#63b8ff" points="326.27,-200.79 336.77,-199.36 327.66,-193.93 326.27,-200.79"/>
</a>
</g>
</g>
<!-- Node21 -->
<g id="Node000021" class="node">
<title>Node21</title>
<g id="a_Node000021"><a xlink:href="l2_2stream_2tls_2config_2ConfigSocketServer_8h.html" target="_top" xlink:title=" ">
<polygon fill="white" stroke="#666666" points="464,-162 334,-162 334,-132 464,-132 464,-162"/>
<text text-anchor="start" x="342" y="-150" font-family="Helvetica,sans-Serif" font-size="10.00">net/l2/stream/tls/config</text>
<text text-anchor="middle" x="399" y="-139" font-family="Helvetica,sans-Serif" font-size="10.00">/ConfigSocketServer.h</text>
</a>
</g>
</g>
<!-- Node15&#45;&gt;Node21 -->
<g id="edge20_Node000015_Node000021" class="edge">
<title>Node15&#45;&gt;Node21</title>
<g id="a_edge20_Node000015_Node000021"><a xlink:title=" ">
<path fill="none" stroke="#63b8ff" d="M399,-187.54C399,-178.96 399,-169.61 399,-162.16"/>
<polygon fill="#63b8ff" stroke="#63b8ff" points="395.5,-187.8 399,-197.8 402.5,-187.8 395.5,-187.8"/>
</a>
</g>
</g>
<!-- Node18 -->
<g id="Node000018" class="node">
<title>Node18</title>
<g id="a_Node000018"><a xlink:href="net_2l2_2stream_2legacy_2SocketServer_8h.html" target="_top" xlink:title=" ">
<polygon fill="white" stroke="#666666" points="308.5,-96 191.5,-96 191.5,-66 308.5,-66 308.5,-96"/>
<text text-anchor="start" x="199.5" y="-84" font-family="Helvetica,sans-Serif" font-size="10.00">net/l2/stream/legacy</text>
<text text-anchor="middle" x="250" y="-73" font-family="Helvetica,sans-Serif" font-size="10.00">/SocketServer.h</text>
</a>
</g>
</g>
<!-- Node17&#45;&gt;Node18 -->
<g id="edge17_Node000017_Node000018" class="edge">
<title>Node17&#45;&gt;Node18</title>
<g id="a_edge17_Node000017_Node000018"><a xlink:title=" ">
<path fill="none" stroke="#63b8ff" d="M129.85,-128.32C156.27,-118.14 189.02,-105.51 213.66,-96.01"/>
<polygon fill="#63b8ff" stroke="#63b8ff" points="128.5,-125.09 120.43,-131.95 131.02,-131.62 128.5,-125.09"/>
</a>
</g>
</g>
<!-- Node20 -->
<g id="Node000020" class="node">
<title>Node20</title>
<g id="a_Node000020"><a xlink:href="l2_2stream_2legacy_2config_2ConfigSocketServer_8cpp.html" target="_top" xlink:title=" ">
<polygon fill="white" stroke="#666666" points="168,-96 0,-96 0,-66 168,-66 168,-96"/>
<text text-anchor="start" x="8" y="-84" font-family="Helvetica,sans-Serif" font-size="10.00">net/l2/stream/legacy</text>
<text text-anchor="middle" x="84" y="-73" font-family="Helvetica,sans-Serif" font-size="10.00">/config/ConfigSocketServer.cpp</text>
</a>
</g>
</g>
<!-- Node17&#45;&gt;Node20 -->
<g id="edge19_Node000017_Node000020" class="edge">
<title>Node17&#45;&gt;Node20</title>
<g id="a_edge19_Node000017_Node000020"><a xlink:title=" ">
<path fill="none" stroke="#63b8ff" d="M84,-121.54C84,-112.96 84,-103.61 84,-96.16"/>
<polygon fill="#63b8ff" stroke="#63b8ff" points="80.5,-121.8 84,-131.8 87.5,-121.8 80.5,-121.8"/>
</a>
</g>
</g>
<!-- Node19 -->
<g id="Node000019" class="node">
<title>Node19</title>
<g id="a_Node000019"><a xlink:href="l2_2stream_2legacy_2SocketServer_8cpp.html" target="_top" xlink:title=" ">
<polygon fill="white" stroke="#666666" points="308.5,-30 191.5,-30 191.5,0 308.5,0 308.5,-30"/>
<text text-anchor="start" x="199.5" y="-18" font-family="Helvetica,sans-Serif" font-size="10.00">net/l2/stream/legacy</text>
<text text-anchor="middle" x="250" y="-7" font-family="Helvetica,sans-Serif" font-size="10.00">/SocketServer.cpp</text>
</a>
</g>
</g>
<!-- Node18&#45;&gt;Node19 -->
<g id="edge18_Node000018_Node000019" class="edge">
<title>Node18&#45;&gt;Node19</title>
<g id="a_edge18_Node000018_Node000019"><a xlink:title=" ">
<path fill="none" stroke="#63b8ff" d="M250,-55.54C250,-46.96 250,-37.61 250,-30.16"/>
<polygon fill="#63b8ff" stroke="#63b8ff" points="246.5,-55.8 250,-65.8 253.5,-55.8 246.5,-55.8"/>
</a>
</g>
</g>
<!-- Node22 -->
<g id="Node000022" class="node">
<title>Node22</title>
<g id="a_Node000022"><a xlink:href="net_2l2_2stream_2tls_2SocketServer_8h.html" target="_top" xlink:title=" ">
<polygon fill="white" stroke="#666666" points="701,-96 569,-96 569,-66 701,-66 701,-96"/>
<text text-anchor="start" x="577" y="-84" font-family="Helvetica,sans-Serif" font-size="10.00">net/l2/stream/tls/Socket</text>
<text text-anchor="middle" x="635" y="-73" font-family="Helvetica,sans-Serif" font-size="10.00">Server.h</text>
</a>
</g>
</g>
<!-- Node21&#45;&gt;Node22 -->
<g id="edge21_Node000021_Node000022" class="edge">
<title>Node21&#45;&gt;Node22</title>
<g id="a_edge21_Node000021_Node000022"><a xlink:title=" ">
<path fill="none" stroke="#63b8ff" d="M460.75,-129.25C498.88,-118.91 547.24,-105.8 583.33,-96.01"/>
<polygon fill="#63b8ff" stroke="#63b8ff" points="459.53,-125.96 450.79,-131.95 461.36,-132.72 459.53,-125.96"/>
</a>
</g>
</g>
<!-- Node24 -->
<g id="Node000024" class="node">
<title>Node24</title>
<g id="a_Node000024"><a xlink:href="l2_2stream_2tls_2config_2ConfigSocketServer_8cpp.html" target="_top" xlink:title=" ">
<polygon fill="white" stroke="#666666" points="466.5,-96 331.5,-96 331.5,-66 466.5,-66 466.5,-96"/>
<text text-anchor="start" x="339.5" y="-84" font-family="Helvetica,sans-Serif" font-size="10.00">net/l2/stream/tls/config</text>
<text text-anchor="middle" x="399" y="-73" font-family="Helvetica,sans-Serif" font-size="10.00">/ConfigSocketServer.cpp</text>
</a>
</g>
</g>
<!-- Node21&#45;&gt;Node24 -->
<g id="edge23_Node000021_Node000024" class="edge">
<title>Node21&#45;&gt;Node24</title>
<g id="a_edge23_Node000021_Node000024"><a xlink:title=" ">
<path fill="none" stroke="#63b8ff" d="M399,-121.54C399,-112.96 399,-103.61 399,-96.16"/>
<polygon fill="#63b8ff" stroke="#63b8ff" points="395.5,-121.8 399,-131.8 402.5,-121.8 395.5,-121.8"/>
</a>
</g>
</g>
<!-- Node23 -->
<g id="Node000023" class="node">
<title>Node23</title>
<g id="a_Node000023"><a xlink:href="l2_2stream_2tls_2SocketServer_8cpp.html" target="_top" xlink:title=" ">
<polygon fill="white" stroke="#666666" points="701,-30 569,-30 569,0 701,0 701,-30"/>
<text text-anchor="start" x="577" y="-18" font-family="Helvetica,sans-Serif" font-size="10.00">net/l2/stream/tls/Socket</text>
<text text-anchor="middle" x="635" y="-7" font-family="Helvetica,sans-Serif" font-size="10.00">Server.cpp</text>
</a>
</g>
</g>
<!-- Node22&#45;&gt;Node23 -->
<g id="edge22_Node000022_Node000023" class="edge">
<title>Node22&#45;&gt;Node23</title>
<g id="a_edge22_Node000022_Node000023"><a xlink:title=" ">
<path fill="none" stroke="#63b8ff" d="M635,-55.54C635,-46.96 635,-37.61 635,-30.16"/>
<polygon fill="#63b8ff" stroke="#63b8ff" points="631.5,-55.8 635,-65.8 638.5,-55.8 631.5,-55.8"/>
</a>
</g>
</g>
<!-- Node27 -->
<g id="Node000027" class="node">
<title>Node27</title>
<g id="a_Node000027"><a xlink:href="l2_2phy_2PhysicalSocket_8hpp.html" target="_top" xlink:title=" ">
<polygon fill="white" stroke="#666666" points="1428,-288.5 1266,-288.5 1266,-269.5 1428,-269.5 1428,-288.5"/>
<text text-anchor="middle" x="1347" y="-276.5" font-family="Helvetica,sans-Serif" font-size="10.00">net/l2/phy/PhysicalSocket.hpp</text>
</a>
</g>
</g>
<!-- Node26&#45;&gt;Node27 -->
<g id="edge26_Node000026_Node000027" class="edge">
<title>Node26&#45;&gt;Node27</title>
<g id="a_edge26_Node000026_Node000027"><a xlink:title=" ">
<path fill="none" stroke="#63b8ff" d="M1143.24,-327.68C1191.54,-316.38 1266.33,-298.88 1310.6,-288.52"/>
<polygon fill="#63b8ff" stroke="#63b8ff" points="1142.29,-324.31 1133.35,-329.99 1143.89,-331.12 1142.29,-324.31"/>
</a>
</g>
</g>
<!-- Node31 -->
<g id="Node000031" class="node">
<title>Node31</title>
<g id="a_Node000031"><a xlink:href="l2_2phy_2stream_2PhysicalSocket_8h.html" target="_top" xlink:title=" ">
<polygon fill="white" stroke="#666666" points="1170,-294 1024,-294 1024,-264 1170,-264 1170,-294"/>
<text text-anchor="start" x="1032" y="-282" font-family="Helvetica,sans-Serif" font-size="10.00">net/l2/phy/stream/Physical</text>
<text text-anchor="middle" x="1097" y="-271" font-family="Helvetica,sans-Serif" font-size="10.00">Socket.h</text>
</a>
</g>
</g>
<!-- Node26&#45;&gt;Node31 -->
<g id="edge30_Node000026_Node000031" class="edge">
<title>Node26&#45;&gt;Node31</title>
<g id="a_edge30_Node000026_Node000031"><a xlink:title=" ">
<path fill="none" stroke="#63b8ff" d="M1097,-319.65C1097,-311.36 1097,-301.78 1097,-294.11"/>
<polygon fill="#63b8ff" stroke="#63b8ff" points="1093.5,-319.87 1097,-329.87 1100.5,-319.87 1093.5,-319.87"/>
</a>
</g>
</g>
<!-- Node28 -->
<g id="Node000028" class="node">
<title>Node28</title>
<g id="a_Node000028"><a xlink:href="l2_2phy_2stream_2PhysicalSocket_8hpp.html" target="_top" xlink:title=" ">
<polygon fill="white" stroke="#666666" points="1459,-228 1313,-228 1313,-198 1459,-198 1459,-228"/>
<text text-anchor="start" x="1321" y="-216" font-family="Helvetica,sans-Serif" font-size="10.00">net/l2/phy/stream/Physical</text>
<text text-anchor="middle" x="1386" y="-205" font-family="Helvetica,sans-Serif" font-size="10.00">Socket.hpp</text>
</a>
</g>
</g>
<!-- Node27&#45;&gt;Node28 -->
<g id="edge27_Node000027_Node000028" class="edge">
<title>Node27&#45;&gt;Node28</title>
<g id="a_edge27_Node000027_Node000028"><a xlink:title=" ">
<path fill="none" stroke="#63b8ff" d="M1357.6,-260.61C1363.76,-250.5 1371.43,-237.91 1377.25,-228.36"/>
<polygon fill="#63b8ff" stroke="#63b8ff" points="1354.47,-259.01 1352.26,-269.37 1360.45,-262.65 1354.47,-259.01"/>
</a>
</g>
</g>
<!-- Node29 -->
<g id="Node000029" class="node">
<title>Node29</title>
<g id="a_Node000029"><a xlink:href="l2_2phy_2stream_2PhysicalSocketClient_8cpp.html" target="_top" xlink:title=" ">
<polygon fill="white" stroke="#666666" points="1612,-162 1466,-162 1466,-132 1612,-132 1612,-162"/>
<text text-anchor="start" x="1474" y="-150" font-family="Helvetica,sans-Serif" font-size="10.00">net/l2/phy/stream/Physical</text>
<text text-anchor="middle" x="1539" y="-139" font-family="Helvetica,sans-Serif" font-size="10.00">SocketClient.cpp</text>
</a>
</g>
</g>
<!-- Node28&#45;&gt;Node29 -->
<g id="edge28_Node000028_Node000029" class="edge">
<title>Node28&#45;&gt;Node29</title>
<g id="a_edge28_Node000028_Node000029"><a xlink:title=" ">
<path fill="none" stroke="#63b8ff" d="M1428.9,-194.05C1453.14,-183.91 1483,-171.43 1505.5,-162.01"/>
<polygon fill="#63b8ff" stroke="#63b8ff" points="1427.45,-190.87 1419.58,-197.95 1430.15,-197.32 1427.45,-190.87"/>
</a>
</g>
</g>
<!-- Node30 -->
<g id="Node000030" class="node">
<title>Node30</title>
<g id="a_Node000030"><a xlink:href="l2_2phy_2stream_2PhysicalSocketServer_8cpp.html" target="_top" xlink:title=" ">
<polygon fill="white" stroke="#666666" points="1448,-162 1302,-162 1302,-132 1448,-132 1448,-162"/>
<text text-anchor="start" x="1310" y="-150" font-family="Helvetica,sans-Serif" font-size="10.00">net/l2/phy/stream/Physical</text>
<text text-anchor="middle" x="1375" y="-139" font-family="Helvetica,sans-Serif" font-size="10.00">SocketServer.cpp</text>
</a>
</g>
</g>
<!-- Node28&#45;&gt;Node30 -->
<g id="edge29_Node000028_Node000030" class="edge">
<title>Node28&#45;&gt;Node30</title>
<g id="a_edge29_Node000028_Node000030"><a xlink:title=" ">
<path fill="none" stroke="#63b8ff" d="M1381.84,-187.83C1380.36,-179.17 1378.73,-169.7 1377.43,-162.16"/>
<polygon fill="#63b8ff" stroke="#63b8ff" points="1378.42,-188.53 1383.56,-197.8 1385.31,-187.35 1378.42,-188.53"/>
</a>
</g>
</g>
<!-- Node31&#45;&gt;Node28 -->
<g id="edge32_Node000031_Node000028" class="edge">
<title>Node31&#45;&gt;Node28</title>
<g id="a_edge32_Node000031_Node000028"><a xlink:title=" ">
<path fill="none" stroke="#63b8ff" d="M1170.25,-261.78C1217.29,-251.36 1277.77,-237.97 1322.73,-228.01"/>
<polygon fill="#63b8ff" stroke="#63b8ff" points="1169.43,-258.38 1160.42,-263.95 1170.94,-265.21 1169.43,-258.38"/>
</a>
</g>
</g>
<!-- Node32 -->
<g id="Node000032" class="node">
<title>Node32</title>
<g id="a_Node000032"><a xlink:href="l2_2phy_2stream_2PhysicalSocket_8cpp.html" target="_top" xlink:title=" ">
<polygon fill="white" stroke="#666666" points="1295,-228 1149,-228 1149,-198 1295,-198 1295,-228"/>
<text text-anchor="start" x="1157" y="-216" font-family="Helvetica,sans-Serif" font-size="10.00">net/l2/phy/stream/Physical</text>
<text text-anchor="middle" x="1222" y="-205" font-family="Helvetica,sans-Serif" font-size="10.00">Socket.cpp</text>
</a>
</g>
</g>
<!-- Node31&#45;&gt;Node32 -->
<g id="edge31_Node000031_Node000032" class="edge">
<title>Node31&#45;&gt;Node32</title>
<g id="a_edge31_Node000031_Node000032"><a xlink:title=" ">
<path fill="none" stroke="#63b8ff" d="M1133.37,-259.38C1152.93,-249.36 1176.65,-237.22 1194.63,-228.01"/>
<polygon fill="#63b8ff" stroke="#63b8ff" points="1131.74,-256.28 1124.43,-263.95 1134.93,-262.51 1131.74,-256.28"/>
</a>
</g>
</g>
<!-- Node33 -->
<g id="Node000033" class="node">
<title>Node33</title>
<g id="a_Node000033"><a xlink:href="l2_2phy_2stream_2PhysicalSocketClient_8h.html" target="_top" xlink:title=" ">
<polygon fill="white" stroke="#666666" points="1131,-228 985,-228 985,-198 1131,-198 1131,-228"/>
<text text-anchor="start" x="993" y="-216" font-family="Helvetica,sans-Serif" font-size="10.00">net/l2/phy/stream/Physical</text>
<text text-anchor="middle" x="1058" y="-205" font-family="Helvetica,sans-Serif" font-size="10.00">SocketClient.h</text>
</a>
</g>
</g>
<!-- Node31&#45;&gt;Node33 -->
<g id="edge33_Node000031_Node000033" class="edge">
<title>Node31&#45;&gt;Node33</title>
<g id="a_edge33_Node000031_Node000033"><a xlink:title=" ">
<path fill="none" stroke="#63b8ff" d="M1083.13,-255.24C1077.63,-246.21 1071.47,-236.11 1066.63,-228.16"/>
<polygon fill="#63b8ff" stroke="#63b8ff" points="1080.15,-257.08 1088.34,-263.8 1086.13,-253.44 1080.15,-257.08"/>
</a>
</g>
</g>
<!-- Node35 -->
<g id="Node000035" class="node">
<title>Node35</title>
<g id="a_Node000035"><a xlink:href="l2_2phy_2stream_2PhysicalSocketServer_8h.html" target="_top" xlink:title=" ">
<polygon fill="white" stroke="#666666" points="967,-228 821,-228 821,-198 967,-198 967,-228"/>
<text text-anchor="start" x="829" y="-216" font-family="Helvetica,sans-Serif" font-size="10.00">net/l2/phy/stream/Physical</text>
<text text-anchor="middle" x="894" y="-205" font-family="Helvetica,sans-Serif" font-size="10.00">SocketServer.h</text>
</a>
</g>
</g>
<!-- Node31&#45;&gt;Node35 -->
<g id="edge38_Node000031_Node000035" class="edge">
<title>Node31&#45;&gt;Node35</title>
<g id="a_edge38_Node000031_Node000035"><a xlink:title=" ">
<path fill="none" stroke="#63b8ff" d="M1042.62,-260.86C1010.03,-250.58 969.1,-237.68 938.45,-228.01"/>
<polygon fill="#63b8ff" stroke="#63b8ff" points="1041.86,-264.29 1052.45,-263.95 1043.97,-257.61 1041.86,-264.29"/>
</a>
</g>
</g>
<!-- Node33&#45;&gt;Node29 -->
<g id="edge34_Node000033_Node000029" class="edge">
<title>Node33&#45;&gt;Node29</title>
<g id="a_edge34_Node000033_Node000029"><a xlink:title=" ">
<path fill="none" stroke="#63b8ff" d="M1141.59,-197.83C1282.14,-178.23 1319.9,-181.47 1457,-162 1459.86,-161.59 1462.77,-161.17 1465.71,-160.72"/>
<polygon fill="#63b8ff" stroke="#63b8ff" points="1140.7,-194.42 1131.29,-199.28 1141.68,-201.35 1140.7,-194.42"/>
</a>
</g>
</g>
<!-- Node34 -->
<g id="Node000034" class="node">
<title>Node34</title>
<g id="a_Node000034"><a xlink:href="net_2l2_2stream_2SocketClient_8h.html" target="_top" xlink:title=" ">
<polygon fill="white" stroke="#666666" points="1135.5,-156.5 980.5,-156.5 980.5,-137.5 1135.5,-137.5 1135.5,-156.5"/>
<text text-anchor="middle" x="1058" y="-144.5" font-family="Helvetica,sans-Serif" font-size="10.00">net/l2/stream/SocketClient.h</text>
</a>
</g>
</g>
<!-- Node33&#45;&gt;Node34 -->
<g id="edge35_Node000033_Node000034" class="edge">
<title>Node33&#45;&gt;Node34</title>
<g id="a_edge35_Node000033_Node000034"><a xlink:title=" ">
<path fill="none" stroke="#63b8ff" d="M1058,-187.6C1058,-176.8 1058,-164.78 1058,-156.84"/>
<polygon fill="#63b8ff" stroke="#63b8ff" points="1054.5,-187.8 1058,-197.8 1061.5,-187.8 1054.5,-187.8"/>
</a>
</g>
</g>
<!-- Node34&#45;&gt;Node8 -->
<g id="edge36_Node000034_Node000008" class="edge">
<title>Node34&#45;&gt;Node8</title>
<g id="a_edge36_Node000034_Node000008"><a xlink:title=" ">
<path fill="none" stroke="#63b8ff" d="M1040.56,-130.71C1028.58,-120.21 1012.79,-106.36 1001.1,-96.12"/>
<polygon fill="#63b8ff" stroke="#63b8ff" points="1038.33,-133.41 1048.15,-137.37 1042.94,-128.14 1038.33,-133.41"/>
</a>
</g>
</g>
<!-- Node34&#45;&gt;Node12 -->
<g id="edge37_Node000034_Node000012" class="edge">
<title>Node34&#45;&gt;Node12</title>
<g id="a_edge37_Node000034_Node000012"><a xlink:title=" ">
<path fill="none" stroke="#63b8ff" d="M1075.05,-130.41C1086.5,-119.94 1101.46,-106.26 1112.56,-96.12"/>
<polygon fill="#63b8ff" stroke="#63b8ff" points="1072.46,-128.04 1067.44,-137.37 1077.18,-133.2 1072.46,-128.04"/>
</a>
</g>
</g>
<!-- Node35&#45;&gt;Node30 -->
<g id="edge39_Node000035_Node000030" class="edge">
<title>Node35&#45;&gt;Node30</title>
<g id="a_edge39_Node000035_Node000030"><a xlink:title=" ">
<path fill="none" stroke="#63b8ff" d="M977.59,-197.83C1118.14,-178.23 1155.9,-181.47 1293,-162 1295.86,-161.59 1298.77,-161.17 1301.71,-160.72"/>
<polygon fill="#63b8ff" stroke="#63b8ff" points="976.7,-194.42 967.29,-199.28 977.68,-201.35 976.7,-194.42"/>
</a>
</g>
</g>
<!-- Node36 -->
<g id="Node000036" class="node">
<title>Node36</title>
<g id="a_Node000036"><a xlink:href="net_2l2_2stream_2SocketServer_8h.html" target="_top" xlink:title=" ">
<polygon fill="white" stroke="#666666" points="790,-156.5 632,-156.5 632,-137.5 790,-137.5 790,-156.5"/>
<text text-anchor="middle" x="711" y="-144.5" font-family="Helvetica,sans-Serif" font-size="10.00">net/l2/stream/SocketServer.h</text>
</a>
</g>
</g>
<!-- Node35&#45;&gt;Node36 -->
<g id="edge40_Node000035_Node000036" class="edge">
<title>Node35&#45;&gt;Node36</title>
<g id="a_edge40_Node000035_Node000036"><a xlink:title=" ">
<path fill="none" stroke="#63b8ff" d="M844.18,-194.58C808.86,-182.23 763.01,-166.19 735.35,-156.52"/>
<polygon fill="#63b8ff" stroke="#63b8ff" points="843.25,-197.96 853.84,-197.95 845.56,-191.35 843.25,-197.96"/>
</a>
</g>
</g>
<!-- Node36&#45;&gt;Node18 -->
<g id="edge41_Node000036_Node000018" class="edge">
<title>Node36&#45;&gt;Node18</title>
<g id="a_edge41_Node000036_Node000018"><a xlink:title=" ">
<path fill="none" stroke="#63b8ff" d="M649.48,-135.9C640.6,-134.53 631.57,-133.19 623,-132 489.56,-113.41 455.1,-116.87 322,-96 317.72,-95.33 313.31,-94.59 308.88,-93.81"/>
<polygon fill="#63b8ff" stroke="#63b8ff" points="648.98,-139.37 659.4,-137.45 650.06,-132.45 648.98,-139.37"/>
</a>
</g>
</g>
<!-- Node36&#45;&gt;Node22 -->
<g id="edge42_Node000036_Node000022" class="edge">
<title>Node36&#45;&gt;Node22</title>
<g id="a_edge42_Node000036_Node000022"><a xlink:title=" ">
<path fill="none" stroke="#63b8ff" d="M692.85,-130.71C680.37,-120.21 663.93,-106.36 651.76,-96.12"/>
<polygon fill="#63b8ff" stroke="#63b8ff" points="690.85,-133.6 700.75,-137.37 695.36,-128.25 690.85,-133.6"/>
</a>
</g>
</g>
</g>
</svg>
