<?xml version="1.0" encoding="UTF-8" standalone="no"?>
<!DOCTYPE svg PUBLIC "-//W3C//DTD SVG 1.1//EN"
 "http://www.w3.org/Graphics/SVG/1.1/DTD/svg11.dtd">
<!-- Generated by graphviz version 2.42.4 (0)
 -->
<!-- Title: net/in6/stream/SocketServer.h Pages: 1 -->
<svg width="539pt" height="280pt"
 viewBox="0.00 0.00 538.50 280.00" xmlns="http://www.w3.org/2000/svg" xmlns:xlink="http://www.w3.org/1999/xlink">
<g id="graph0" class="graph" transform="scale(1 1) rotate(0) translate(4 276)">
<title>net/in6/stream/SocketServer.h</title>
<!-- Node1 -->
<g id="Node000001" class="node">
<title>Node1</title>
<g id="a_Node000001"><a xlink:title=" ">
<polygon fill="#999999" stroke="#666666" points="350.5,-272 186.5,-272 186.5,-253 350.5,-253 350.5,-272"/>
<text text-anchor="middle" x="268.5" y="-260" font-family="Helvetica,sans-Serif" font-size="10.00">net/in6/stream/SocketServer.h</text>
</a>
</g>
</g>
<!-- Node2 -->
<g id="Node000002" class="node">
<title>Node2</title>
<g id="a_Node000002"><a xlink:href="net_2in6_2stream_2legacy_2SocketServer_8h.html" target="_top" xlink:title=" ">
<polygon fill="white" stroke="#666666" points="259,-217 136,-217 136,-187 259,-187 259,-217"/>
<text text-anchor="start" x="144" y="-205" font-family="Helvetica,sans-Serif" font-size="10.00">net/in6/stream/legacy</text>
<text text-anchor="middle" x="197.5" y="-194" font-family="Helvetica,sans-Serif" font-size="10.00">/SocketServer.h</text>
</a>
</g>
</g>
<!-- Node1&#45;&gt;Node2 -->
<g id="edge1_Node000001_Node000002" class="edge">
<title>Node1&#45;&gt;Node2</title>
<g id="a_edge1_Node000001_Node000002"><a xlink:title=" ">
<path fill="none" stroke="#63b8ff" d="M250.3,-246.5C239.32,-237.45 225.41,-226 214.63,-217.11"/>
<polygon fill="#63b8ff" stroke="#63b8ff" points="248.08,-249.21 258.02,-252.87 252.53,-243.81 248.08,-249.21"/>
</a>
</g>
</g>
<!-- Node8 -->
<g id="Node000008" class="node">
<title>Node8</title>
<g id="a_Node000008"><a xlink:href="net_2in6_2stream_2tls_2SocketServer_8h.html" target="_top" xlink:title=" ">
<polygon fill="white" stroke="#666666" points="392,-217 289,-217 289,-187 392,-187 392,-217"/>
<text text-anchor="start" x="297" y="-205" font-family="Helvetica,sans-Serif" font-size="10.00">net/in6/stream/tls</text>
<text text-anchor="middle" x="340.5" y="-194" font-family="Helvetica,sans-Serif" font-size="10.00">/SocketServer.h</text>
</a>
</g>
</g>
<!-- Node1&#45;&gt;Node8 -->
<g id="edge7_Node000001_Node000008" class="edge">
<title>Node1&#45;&gt;Node8</title>
<g id="a_edge7_Node000001_Node000008"><a xlink:title=" ">
<path fill="none" stroke="#63b8ff" d="M286.96,-246.5C298.1,-237.45 312.19,-226 323.13,-217.11"/>
<polygon fill="#63b8ff" stroke="#63b8ff" points="284.68,-243.85 279.12,-252.87 289.09,-249.28 284.68,-243.85"/>
</a>
</g>
</g>
<!-- Node3 -->
<g id="Node000003" class="node">
<title>Node3</title>
<g id="a_Node000003"><a xlink:href="in6_2stream_2legacy_2SocketServer_8cpp.html" target="_top" xlink:title=" ">
<polygon fill="white" stroke="#666666" points="123,-151 0,-151 0,-121 123,-121 123,-151"/>
<text text-anchor="start" x="8" y="-139" font-family="Helvetica,sans-Serif" font-size="10.00">net/in6/stream/legacy</text>
<text text-anchor="middle" x="61.5" y="-128" font-family="Helvetica,sans-Serif" font-size="10.00">/SocketServer.cpp</text>
</a>
</g>
</g>
<!-- Node2&#45;&gt;Node3 -->
<g id="edge2_Node000002_Node000003" class="edge">
<title>Node2&#45;&gt;Node3</title>
<g id="a_edge2_Node000002_Node000003"><a xlink:title=" ">
<path fill="none" stroke="#63b8ff" d="M158.5,-182.65C137.11,-172.58 111.01,-160.3 91.28,-151.01"/>
<polygon fill="#63b8ff" stroke="#63b8ff" points="157.12,-185.86 167.65,-186.95 160.1,-179.53 157.12,-185.86"/>
</a>
</g>
</g>
<!-- Node4 -->
<g id="Node000004" class="node">
<title>Node4</title>
<g id="a_Node000004"><a xlink:href="legacy_2in6_2Server_8h.html" target="_top" xlink:title=" ">
<polygon fill="white" stroke="#666666" points="254,-151 141,-151 141,-121 254,-121 254,-151"/>
<text text-anchor="start" x="149" y="-139" font-family="Helvetica,sans-Serif" font-size="10.00">web/http/legacy/in6</text>
<text text-anchor="middle" x="197.5" y="-128" font-family="Helvetica,sans-Serif" font-size="10.00">/Server.h</text>
</a>
</g>
</g>
<!-- Node2&#45;&gt;Node4 -->
<g id="edge3_Node000002_Node000004" class="edge">
<title>Node2&#45;&gt;Node4</title>
<g id="a_edge3_Node000002_Node000004"><a xlink:title=" ">
<path fill="none" stroke="#63b8ff" d="M197.5,-176.54C197.5,-167.96 197.5,-158.61 197.5,-151.16"/>
<polygon fill="#63b8ff" stroke="#63b8ff" points="194,-176.8 197.5,-186.8 201,-176.8 194,-176.8"/>
</a>
</g>
</g>
<!-- Node5 -->
<g id="Node000005" class="node">
<title>Node5</title>
<g id="a_Node000005"><a xlink:href="legacy_2in6_2WebApp_8h.html" target="_top" xlink:title=" ">
<polygon fill="white" stroke="#666666" points="251.5,-85 143.5,-85 143.5,-55 251.5,-55 251.5,-85"/>
<text text-anchor="start" x="151.5" y="-73" font-family="Helvetica,sans-Serif" font-size="10.00">express/legacy/in6</text>
<text text-anchor="middle" x="197.5" y="-62" font-family="Helvetica,sans-Serif" font-size="10.00">/WebApp.h</text>
</a>
</g>
</g>
<!-- Node4&#45;&gt;Node5 -->
<g id="edge4_Node000004_Node000005" class="edge">
<title>Node4&#45;&gt;Node5</title>
<g id="a_edge4_Node000004_Node000005"><a xlink:title=" ">
<path fill="none" stroke="#63b8ff" d="M197.5,-110.54C197.5,-101.96 197.5,-92.61 197.5,-85.16"/>
<polygon fill="#63b8ff" stroke="#63b8ff" points="194,-110.8 197.5,-120.8 201,-110.8 194,-110.8"/>
</a>
</g>
</g>
<!-- Node6 -->
<g id="Node000006" class="node">
<title>Node6</title>
<g id="a_Node000006"><a xlink:href="testbasicauthentication_8cpp.html" target="_top" xlink:title=" ">
<polygon fill="white" stroke="#666666" points="274.5,-19 96.5,-19 96.5,0 274.5,0 274.5,-19"/>
<text text-anchor="middle" x="185.5" y="-7" font-family="Helvetica,sans-Serif" font-size="10.00">apps/testbasicauthentication.cpp</text>
</a>
</g>
</g>
<!-- Node5&#45;&gt;Node6 -->
<g id="edge5_Node000005_Node000006" class="edge">
<title>Node5&#45;&gt;Node6</title>
<g id="a_edge5_Node000005_Node000006"><a xlink:title=" ">
<path fill="none" stroke="#63b8ff" d="M192.53,-44.75C190.67,-35.72 188.68,-26.03 187.3,-19.27"/>
<polygon fill="#63b8ff" stroke="#63b8ff" points="189.16,-45.75 194.6,-54.84 196.01,-44.34 189.16,-45.75"/>
</a>
</g>
</g>
<!-- Node7 -->
<g id="Node000007" class="node">
<title>Node7</title>
<g id="a_Node000007"><a xlink:href="vhostserver_8cpp.html" target="_top" xlink:title=" ">
<polygon fill="white" stroke="#666666" points="413,-19 292,-19 292,0 413,0 413,-19"/>
<text text-anchor="middle" x="352.5" y="-7" font-family="Helvetica,sans-Serif" font-size="10.00">apps/vhostserver.cpp</text>
</a>
</g>
</g>
<!-- Node5&#45;&gt;Node7 -->
<g id="edge6_Node000005_Node000007" class="edge">
<title>Node5&#45;&gt;Node7</title>
<g id="a_edge6_Node000005_Node000007"><a xlink:title=" ">
<path fill="none" stroke="#63b8ff" d="M244.31,-51.33C272.54,-40.68 307.24,-27.58 329.61,-19.14"/>
<polygon fill="#63b8ff" stroke="#63b8ff" points="242.75,-48.18 234.63,-54.99 245.22,-54.73 242.75,-48.18"/>
</a>
</g>
</g>
<!-- Node9 -->
<g id="Node000009" class="node">
<title>Node9</title>
<g id="a_Node000009"><a xlink:href="in6_2stream_2tls_2SocketServer_8cpp.html" target="_top" xlink:title=" ">
<polygon fill="white" stroke="#666666" points="530.5,-151 426.5,-151 426.5,-121 530.5,-121 530.5,-151"/>
<text text-anchor="start" x="434.5" y="-139" font-family="Helvetica,sans-Serif" font-size="10.00">net/in6/stream/tls</text>
<text text-anchor="middle" x="478.5" y="-128" font-family="Helvetica,sans-Serif" font-size="10.00">/SocketServer.cpp</text>
</a>
</g>
</g>
<!-- Node8&#45;&gt;Node9 -->
<g id="edge8_Node000008_Node000009" class="edge">
<title>Node8&#45;&gt;Node9</title>
<g id="a_edge8_Node000008_Node000009"><a xlink:title=" ">
<path fill="none" stroke="#63b8ff" d="M380.07,-182.65C401.77,-172.58 428.26,-160.3 448.29,-151.01"/>
<polygon fill="#63b8ff" stroke="#63b8ff" points="378.38,-179.57 370.78,-186.95 381.33,-185.92 378.38,-179.57"/>
</a>
</g>
</g>
<!-- Node10 -->
<g id="Node000010" class="node">
<title>Node10</title>
<g id="a_Node000010"><a xlink:href="tls_2in6_2Server_8h.html" target="_top" xlink:title=" ">
<polygon fill="white" stroke="#666666" points="408.5,-145.5 272.5,-145.5 272.5,-126.5 408.5,-126.5 408.5,-145.5"/>
<text text-anchor="middle" x="340.5" y="-133.5" font-family="Helvetica,sans-Serif" font-size="10.00">web/http/tls/in6/Server.h</text>
</a>
</g>
</g>
<!-- Node8&#45;&gt;Node10 -->
<g id="edge9_Node000008_Node000010" class="edge">
<title>Node8&#45;&gt;Node10</title>
<g id="a_edge9_Node000008_Node000010"><a xlink:title=" ">
<path fill="none" stroke="#63b8ff" d="M340.5,-176.6C340.5,-165.8 340.5,-153.78 340.5,-145.84"/>
<polygon fill="#63b8ff" stroke="#63b8ff" points="337,-176.8 340.5,-186.8 344,-176.8 337,-176.8"/>
</a>
</g>
</g>
<!-- Node11 -->
<g id="Node000011" class="node">
<title>Node11</title>
<g id="a_Node000011"><a xlink:href="tls_2in6_2WebApp_8h.html" target="_top" xlink:title=" ">
<polygon fill="white" stroke="#666666" points="410.5,-79.5 270.5,-79.5 270.5,-60.5 410.5,-60.5 410.5,-79.5"/>
<text text-anchor="middle" x="340.5" y="-67.5" font-family="Helvetica,sans-Serif" font-size="10.00">express/tls/in6/WebApp.h</text>
</a>
</g>
</g>
<!-- Node10&#45;&gt;Node11 -->
<g id="edge10_Node000010_Node000011" class="edge">
<title>Node10&#45;&gt;Node11</title>
<g id="a_edge10_Node000010_Node000011"><a xlink:title=" ">
<path fill="none" stroke="#63b8ff" d="M340.5,-116.08C340.5,-104.13 340.5,-89.22 340.5,-79.91"/>
<polygon fill="#63b8ff" stroke="#63b8ff" points="337,-116.37 340.5,-126.37 344,-116.37 337,-116.37"/>
</a>
</g>
</g>
<!-- Node11&#45;&gt;Node6 -->
<g id="edge11_Node000011_Node000006" class="edge">
<title>Node11&#45;&gt;Node6</title>
<g id="a_edge11_Node000011_Node000006"><a xlink:title=" ">
<path fill="none" stroke="#63b8ff" d="M308.38,-56.88C278.42,-45.57 234.48,-28.99 208.07,-19.02"/>
<polygon fill="#63b8ff" stroke="#63b8ff" points="307.37,-60.24 317.96,-60.49 309.84,-53.69 307.37,-60.24"/>
</a>
</g>
</g>
<!-- Node11&#45;&gt;Node7 -->
<g id="edge12_Node000011_Node000007" class="edge">
<title>Node11&#45;&gt;Node7</title>
<g id="a_edge12_Node000011_Node000007"><a xlink:title=" ">
<path fill="none" stroke="#63b8ff" d="M344.3,-50.49C346.45,-40.01 349.04,-27.39 350.72,-19.17"/>
<polygon fill="#63b8ff" stroke="#63b8ff" points="340.85,-49.87 342.27,-60.37 347.71,-51.28 340.85,-49.87"/>
</a>
</g>
</g>
</g>
</svg>
