<?xml version="1.0" encoding="UTF-8" standalone="no"?>
<!DOCTYPE svg PUBLIC "-//W3C//DTD SVG 1.1//EN"
 "http://www.w3.org/Graphics/SVG/1.1/DTD/svg11.dtd">
<!-- Generated by graphviz version 2.42.4 (0)
 -->
<!-- Title: net/in/stream/SocketClient.h Pages: 1 -->
<svg width="672pt" height="225pt"
 viewBox="0.00 0.00 672.00 225.00" xmlns="http://www.w3.org/2000/svg" xmlns:xlink="http://www.w3.org/1999/xlink">
<g id="graph0" class="graph" transform="scale(1 1) rotate(0) translate(4 221)">
<title>net/in/stream/SocketClient.h</title>
<!-- Node1 -->
<g id="Node000001" class="node">
<title>Node1</title>
<g id="a_Node000001"><a xlink:title=" ">
<polygon fill="#999999" stroke="#666666" points="381,-217 240,-217 240,-198 381,-198 381,-217"/>
<text text-anchor="middle" x="310.5" y="-205" font-family="Helvetica,sans-Serif" font-size="10.00">net/in/stream/SocketClient.h</text>
</a>
</g>
</g>
<!-- Node2 -->
<g id="Node000002" class="node">
<title>Node2</title>
<g id="a_Node000002"><a xlink:href="net_2in_2stream_2legacy_2SocketClient_8h.html" target="_top" xlink:title=" ">
<polygon fill="white" stroke="#666666" points="298,-162 193,-162 193,-132 298,-132 298,-162"/>
<text text-anchor="start" x="201" y="-150" font-family="Helvetica,sans-Serif" font-size="10.00">net/in/stream/legacy</text>
<text text-anchor="middle" x="245.5" y="-139" font-family="Helvetica,sans-Serif" font-size="10.00">/SocketClient.h</text>
</a>
</g>
</g>
<!-- Node1&#45;&gt;Node2 -->
<g id="edge1_Node000001_Node000002" class="edge">
<title>Node1&#45;&gt;Node2</title>
<g id="a_edge1_Node000001_Node000002"><a xlink:title=" ">
<path fill="none" stroke="#63b8ff" d="M293.24,-190.97C283.28,-182.01 270.86,-170.82 261.18,-162.11"/>
<polygon fill="#63b8ff" stroke="#63b8ff" points="291.13,-193.78 300.91,-197.87 295.82,-188.58 291.13,-193.78"/>
</a>
</g>
</g>
<!-- Node9 -->
<g id="Node000009" class="node">
<title>Node9</title>
<g id="a_Node000009"><a xlink:href="net_2in_2stream_2tls_2SocketClient_8h.html" target="_top" xlink:title=" ">
<polygon fill="white" stroke="#666666" points="443,-162 322,-162 322,-132 443,-132 443,-162"/>
<text text-anchor="start" x="330" y="-150" font-family="Helvetica,sans-Serif" font-size="10.00">net/in/stream/tls/Socket</text>
<text text-anchor="middle" x="382.5" y="-139" font-family="Helvetica,sans-Serif" font-size="10.00">Client.h</text>
</a>
</g>
</g>
<!-- Node1&#45;&gt;Node9 -->
<g id="edge8_Node000001_Node000009" class="edge">
<title>Node1&#45;&gt;Node9</title>
<g id="a_edge8_Node000001_Node000009"><a xlink:title=" ">
<path fill="none" stroke="#63b8ff" d="M328.96,-191.5C340.1,-182.45 354.19,-171 365.13,-162.11"/>
<polygon fill="#63b8ff" stroke="#63b8ff" points="326.68,-188.85 321.12,-197.87 331.09,-194.28 326.68,-188.85"/>
</a>
</g>
</g>
<!-- Node3 -->
<g id="Node000003" class="node">
<title>Node3</title>
<g id="a_Node000003"><a xlink:href="httplowlevelclient_8cpp.html" target="_top" xlink:title=" ">
<polygon fill="white" stroke="#666666" points="391.5,-90.5 237.5,-90.5 237.5,-71.5 391.5,-71.5 391.5,-90.5"/>
<text text-anchor="middle" x="314.5" y="-78.5" font-family="Helvetica,sans-Serif" font-size="10.00">apps/http/httplowlevelclient.cpp</text>
</a>
</g>
</g>
<!-- Node2&#45;&gt;Node3 -->
<g id="edge2_Node000002_Node000003" class="edge">
<title>Node2&#45;&gt;Node3</title>
<g id="a_edge2_Node000002_Node000003"><a xlink:title=" ">
<path fill="none" stroke="#63b8ff" d="M268.21,-124.93C280.7,-113.35 295.52,-99.61 304.96,-90.84"/>
<polygon fill="#63b8ff" stroke="#63b8ff" points="265.76,-122.43 260.81,-131.8 270.53,-127.56 265.76,-122.43"/>
</a>
</g>
</g>
<!-- Node4 -->
<g id="Node000004" class="node">
<title>Node4</title>
<g id="a_Node000004"><a xlink:href="in_2stream_2legacy_2SocketClient_8cpp.html" target="_top" xlink:title=" ">
<polygon fill="white" stroke="#666666" points="105,-96 0,-96 0,-66 105,-66 105,-96"/>
<text text-anchor="start" x="8" y="-84" font-family="Helvetica,sans-Serif" font-size="10.00">net/in/stream/legacy</text>
<text text-anchor="middle" x="52.5" y="-73" font-family="Helvetica,sans-Serif" font-size="10.00">/SocketClient.cpp</text>
</a>
</g>
</g>
<!-- Node2&#45;&gt;Node4 -->
<g id="edge3_Node000002_Node000004" class="edge">
<title>Node2&#45;&gt;Node4</title>
<g id="a_edge3_Node000002_Node000004"><a xlink:title=" ">
<path fill="none" stroke="#63b8ff" d="M193.4,-128.72C162.48,-118.47 123.77,-105.63 94.76,-96.01"/>
<polygon fill="#63b8ff" stroke="#63b8ff" points="192.55,-132.13 203.15,-131.95 194.76,-125.49 192.55,-132.13"/>
</a>
</g>
</g>
<!-- Node5 -->
<g id="Node000005" class="node">
<title>Node5</title>
<g id="a_Node000005"><a xlink:href="legacy_2in_2Client_8h.html" target="_top" xlink:title=" ">
<polygon fill="white" stroke="#666666" points="219.5,-96 123.5,-96 123.5,-66 219.5,-66 219.5,-96"/>
<text text-anchor="start" x="131.5" y="-84" font-family="Helvetica,sans-Serif" font-size="10.00">web/http/legacy/in</text>
<text text-anchor="middle" x="171.5" y="-73" font-family="Helvetica,sans-Serif" font-size="10.00">/Client.h</text>
</a>
</g>
</g>
<!-- Node2&#45;&gt;Node5 -->
<g id="edge4_Node000002_Node000005" class="edge">
<title>Node2&#45;&gt;Node5</title>
<g id="a_edge4_Node000002_Node000005"><a xlink:title=" ">
<path fill="none" stroke="#63b8ff" d="M221.45,-125.2C210.47,-115.7 197.74,-104.69 187.88,-96.16"/>
<polygon fill="#63b8ff" stroke="#63b8ff" points="219.22,-127.9 229.08,-131.8 223.8,-122.61 219.22,-127.9"/>
</a>
</g>
</g>
<!-- Node6 -->
<g id="Node000006" class="node">
<title>Node6</title>
<g id="a_Node000006"><a xlink:href="jsonclient_8cpp.html" target="_top" xlink:title=" ">
<polygon fill="white" stroke="#666666" points="153,-24.5 52,-24.5 52,-5.5 153,-5.5 153,-24.5"/>
<text text-anchor="middle" x="102.5" y="-12.5" font-family="Helvetica,sans-Serif" font-size="10.00">apps/jsonclient.cpp</text>
</a>
</g>
</g>
<!-- Node5&#45;&gt;Node6 -->
<g id="edge5_Node000005_Node000006" class="edge">
<title>Node5&#45;&gt;Node6</title>
<g id="a_edge5_Node000005_Node000006"><a xlink:title=" ">
<path fill="none" stroke="#63b8ff" d="M148.79,-58.93C136.3,-47.35 121.48,-33.61 112.04,-24.84"/>
<polygon fill="#63b8ff" stroke="#63b8ff" points="146.47,-61.56 156.19,-65.8 151.24,-56.43 146.47,-61.56"/>
</a>
</g>
</g>
<!-- Node7 -->
<g id="Node000007" class="node">
<title>Node7</title>
<g id="a_Node000007"><a xlink:href="ResourceServer_8cpp.html" target="_top" xlink:title=" ">
<polygon fill="white" stroke="#666666" points="311.5,-30 171.5,-30 171.5,0 311.5,0 311.5,-30"/>
<text text-anchor="start" x="179.5" y="-18" font-family="Helvetica,sans-Serif" font-size="10.00">apps/oauth2/resource</text>
<text text-anchor="middle" x="241.5" y="-7" font-family="Helvetica,sans-Serif" font-size="10.00">_server/ResourceServer.cpp</text>
</a>
</g>
</g>
<!-- Node5&#45;&gt;Node7 -->
<g id="edge6_Node000005_Node000007" class="edge">
<title>Node5&#45;&gt;Node7</title>
<g id="a_edge6_Node000005_Node000007"><a xlink:title=" ">
<path fill="none" stroke="#63b8ff" d="M194.55,-58.92C204.87,-49.49 216.77,-38.61 226.01,-30.16"/>
<polygon fill="#63b8ff" stroke="#63b8ff" points="192.05,-56.47 187.04,-65.8 196.78,-61.63 192.05,-56.47"/>
</a>
</g>
</g>
<!-- Node8 -->
<g id="Node000008" class="node">
<title>Node8</title>
<g id="a_Node000008"><a xlink:href="websocket_2echoclient_8cpp.html" target="_top" xlink:title=" ">
<polygon fill="white" stroke="#666666" points="548.5,-24.5 394.5,-24.5 394.5,-5.5 548.5,-5.5 548.5,-24.5"/>
<text text-anchor="middle" x="471.5" y="-12.5" font-family="Helvetica,sans-Serif" font-size="10.00">apps/websocket/echoclient.cpp</text>
</a>
</g>
</g>
<!-- Node5&#45;&gt;Node8 -->
<g id="edge7_Node000005_Node000008" class="edge">
<title>Node5&#45;&gt;Node8</title>
<g id="a_edge7_Node000005_Node000008"><a xlink:title=" ">
<path fill="none" stroke="#63b8ff" d="M229.76,-65.76C304.72,-48.98 380.83,-33.7 427.49,-24.53"/>
<polygon fill="#63b8ff" stroke="#63b8ff" points="228.66,-62.42 219.67,-68.03 230.2,-69.25 228.66,-62.42"/>
</a>
</g>
</g>
<!-- Node9&#45;&gt;Node3 -->
<g id="edge9_Node000009_Node000003" class="edge">
<title>Node9&#45;&gt;Node3</title>
<g id="a_edge9_Node000009_Node000003"><a xlink:title=" ">
<path fill="none" stroke="#63b8ff" d="M360.12,-124.93C347.81,-113.35 333.21,-99.61 323.9,-90.84"/>
<polygon fill="#63b8ff" stroke="#63b8ff" points="357.73,-127.49 367.41,-131.8 362.53,-122.39 357.73,-127.49"/>
</a>
</g>
</g>
<!-- Node10 -->
<g id="Node000010" class="node">
<title>Node10</title>
<g id="a_Node000010"><a xlink:href="in_2stream_2tls_2SocketClient_8cpp.html" target="_top" xlink:title=" ">
<polygon fill="white" stroke="#666666" points="531,-96 410,-96 410,-66 531,-66 531,-96"/>
<text text-anchor="start" x="418" y="-84" font-family="Helvetica,sans-Serif" font-size="10.00">net/in/stream/tls/Socket</text>
<text text-anchor="middle" x="470.5" y="-73" font-family="Helvetica,sans-Serif" font-size="10.00">Client.cpp</text>
</a>
</g>
</g>
<!-- Node9&#45;&gt;Node10 -->
<g id="edge10_Node000009_Node000010" class="edge">
<title>Node9&#45;&gt;Node10</title>
<g id="a_edge10_Node000009_Node000010"><a xlink:title=" ">
<path fill="none" stroke="#63b8ff" d="M410.34,-125.75C423.57,-116.13 439.07,-104.86 451.02,-96.16"/>
<polygon fill="#63b8ff" stroke="#63b8ff" points="408.06,-123.08 402.03,-131.8 412.18,-128.75 408.06,-123.08"/>
</a>
</g>
</g>
<!-- Node11 -->
<g id="Node000011" class="node">
<title>Node11</title>
<g id="a_Node000011"><a xlink:href="tls_2in_2Client_8h.html" target="_top" xlink:title=" ">
<polygon fill="white" stroke="#666666" points="664,-90.5 549,-90.5 549,-71.5 664,-71.5 664,-90.5"/>
<text text-anchor="middle" x="606.5" y="-78.5" font-family="Helvetica,sans-Serif" font-size="10.00">web/http/tls/in/Client.h</text>
</a>
</g>
</g>
<!-- Node9&#45;&gt;Node11 -->
<g id="edge11_Node000009_Node000011" class="edge">
<title>Node9&#45;&gt;Node11</title>
<g id="a_edge11_Node000009_Node000011"><a xlink:title=" ">
<path fill="none" stroke="#63b8ff" d="M441.27,-129.21C484.79,-116.78 542.26,-100.35 576.69,-90.52"/>
<polygon fill="#63b8ff" stroke="#63b8ff" points="440.31,-125.84 431.66,-131.95 442.23,-132.57 440.31,-125.84"/>
</a>
</g>
</g>
<!-- Node11&#45;&gt;Node8 -->
<g id="edge12_Node000011_Node000008" class="edge">
<title>Node11&#45;&gt;Node8</title>
<g id="a_edge12_Node000011_Node000008"><a xlink:title=" ">
<path fill="none" stroke="#63b8ff" d="M579.14,-67.03C552.53,-54.42 512.87,-35.61 489.85,-24.7"/>
<polygon fill="#63b8ff" stroke="#63b8ff" points="577.76,-70.25 588.29,-71.37 580.76,-63.92 577.76,-70.25"/>
</a>
</g>
</g>
</g>
</svg>
