<?xml version="1.0" encoding="UTF-8" standalone="no"?>
<!DOCTYPE svg PUBLIC "-//W3C//DTD SVG 1.1//EN"
 "http://www.w3.org/Graphics/SVG/1.1/DTD/svg11.dtd">
<!-- Generated by graphviz version 14.1.2 (0)
 -->
<!-- Title: net/un/stream/SocketServer.h Pages: 1 -->
<svg width="562pt" height="338pt"
 viewBox="0.00 0.00 562.00 338.00" xmlns="http://www.w3.org/2000/svg" xmlns:xlink="http://www.w3.org/1999/xlink">
<g id="graph0" class="graph" transform="scale(1 1) rotate(0) translate(4 334)">
<title>net/un/stream/SocketServer.h</title>
<!-- Node1 -->
<g id="Node000001" class="node">
<title>Node1</title>
<g id="a_Node000001"><a xlink:title=" ">
<polygon fill="#999999" stroke="#666666" points="341.75,-330 181.75,-330 181.75,-309.25 341.75,-309.25 341.75,-330"/>
<text xml:space="preserve" text-anchor="middle" x="261.75" y="-316.5" font-family="Helvetica,sans-Serif" font-size="10.00">net/un/stream/SocketServer.h</text>
</a>
</g>
</g>
<!-- Node2 -->
<g id="Node000002" class="node">
<title>Node2</title>
<g id="a_Node000002"><a xlink:href="net_2un_2stream_2legacy_2SocketServer_8h.html" target="_top" xlink:title=" ">
<polygon fill="white" stroke="#666666" points="249.5,-273.25 130,-273.25 130,-239.75 249.5,-239.75 249.5,-273.25"/>
<text xml:space="preserve" text-anchor="start" x="138" y="-259.75" font-family="Helvetica,sans-Serif" font-size="10.00">net/un/stream/legacy</text>
<text xml:space="preserve" text-anchor="middle" x="189.75" y="-247" font-family="Helvetica,sans-Serif" font-size="10.00">/SocketServer.h</text>
</a>
</g>
</g>
<!-- Node1&#45;&gt;Node2 -->
<g id="edge1_Node000001_Node000002" class="edge">
<title>Node1&#45;&gt;Node2</title>
<g id="a_edge1_Node000001_Node000002"><a xlink:title=" ">
<path fill="none" stroke="#63b8ff" d="M241.51,-301.44C231.28,-292.76 218.94,-282.28 208.87,-273.73"/>
<polygon fill="#63b8ff" stroke="#63b8ff" points="239.14,-304.02 249.03,-307.82 243.67,-298.68 239.14,-304.02"/>
</a>
</g>
</g>
<!-- Node8 -->
<g id="Node000008" class="node">
<title>Node8</title>
<g id="a_Node000008"><a xlink:href="net_2un_2stream_2tls_2SocketServer_8h.html" target="_top" xlink:title=" ">
<polygon fill="white" stroke="#666666" points="402,-273.25 267.5,-273.25 267.5,-239.75 402,-239.75 402,-273.25"/>
<text xml:space="preserve" text-anchor="start" x="275.5" y="-259.75" font-family="Helvetica,sans-Serif" font-size="10.00">net/un/stream/tls/Socket</text>
<text xml:space="preserve" text-anchor="middle" x="334.75" y="-247" font-family="Helvetica,sans-Serif" font-size="10.00">Server.h</text>
</a>
</g>
</g>
<!-- Node1&#45;&gt;Node8 -->
<g id="edge7_Node000001_Node000008" class="edge">
<title>Node1&#45;&gt;Node8</title>
<g id="a_edge7_Node000001_Node000008"><a xlink:title=" ">
<path fill="none" stroke="#63b8ff" d="M282.27,-301.44C292.64,-292.76 305.15,-282.28 315.36,-273.73"/>
<polygon fill="#63b8ff" stroke="#63b8ff" points="280.06,-298.73 274.64,-307.83 284.55,-304.1 280.06,-298.73"/>
</a>
</g>
</g>
<!-- Node3 -->
<g id="Node000003" class="node">
<title>Node3</title>
<g id="a_Node000003"><a xlink:href="un_2stream_2legacy_2SocketServer_8cpp.html" target="_top" xlink:title=" ">
<polygon fill="white" stroke="#666666" points="119.5,-203.75 0,-203.75 0,-170.25 119.5,-170.25 119.5,-203.75"/>
<text xml:space="preserve" text-anchor="start" x="8" y="-190.25" font-family="Helvetica,sans-Serif" font-size="10.00">net/un/stream/legacy</text>
<text xml:space="preserve" text-anchor="middle" x="59.75" y="-177.5" font-family="Helvetica,sans-Serif" font-size="10.00">/SocketServer.cpp</text>
</a>
</g>
</g>
<!-- Node2&#45;&gt;Node3 -->
<g id="edge2_Node000002_Node000003" class="edge">
<title>Node2&#45;&gt;Node3</title>
<g id="a_edge2_Node000002_Node000003"><a xlink:title=" ">
<path fill="none" stroke="#63b8ff" d="M148.55,-234.11C129.79,-224.37 107.96,-213.03 90.63,-204.04"/>
<polygon fill="#63b8ff" stroke="#63b8ff" points="146.78,-237.13 157.27,-238.63 150.01,-230.92 146.78,-237.13"/>
</a>
</g>
</g>
<!-- Node4 -->
<g id="Node000004" class="node">
<title>Node4</title>
<g id="a_Node000004"><a xlink:href="web_2http_2legacy_2un_2Server_8h.html" target="_top" xlink:title=" ">
<polygon fill="white" stroke="#666666" points="246.25,-203.75 137.25,-203.75 137.25,-170.25 246.25,-170.25 246.25,-203.75"/>
<text xml:space="preserve" text-anchor="start" x="145.25" y="-190.25" font-family="Helvetica,sans-Serif" font-size="10.00">web/http/legacy/un</text>
<text xml:space="preserve" text-anchor="middle" x="191.75" y="-177.5" font-family="Helvetica,sans-Serif" font-size="10.00">/Server.h</text>
</a>
</g>
</g>
<!-- Node2&#45;&gt;Node4 -->
<g id="edge3_Node000002_Node000004" class="edge">
<title>Node2&#45;&gt;Node4</title>
<g id="a_edge3_Node000002_Node000004"><a xlink:title=" ">
<path fill="none" stroke="#63b8ff" d="M190.56,-228.06C190.81,-219.84 191.07,-211.09 191.28,-203.88"/>
<polygon fill="#63b8ff" stroke="#63b8ff" points="187.07,-227.89 190.27,-237.99 194.06,-228.1 187.07,-227.89"/>
</a>
</g>
</g>
<!-- Node5 -->
<g id="Node000005" class="node">
<title>Node5</title>
<g id="a_Node000005"><a xlink:href="legacy_2un_2WebApp_8h.html" target="_top" xlink:title=" ">
<polygon fill="white" stroke="#666666" points="270.25,-134.25 113.25,-134.25 113.25,-113.5 270.25,-113.5 270.25,-134.25"/>
<text xml:space="preserve" text-anchor="middle" x="191.75" y="-120.75" font-family="Helvetica,sans-Serif" font-size="10.00">express/legacy/un/WebApp.h</text>
</a>
</g>
</g>
<!-- Node4&#45;&gt;Node5 -->
<g id="edge4_Node000004_Node000005" class="edge">
<title>Node4&#45;&gt;Node5</title>
<g id="a_edge4_Node000004_Node000005"><a xlink:title=" ">
<path fill="none" stroke="#63b8ff" d="M191.75,-158.44C191.75,-149.96 191.75,-141.17 191.75,-134.72"/>
<polygon fill="#63b8ff" stroke="#63b8ff" points="188.25,-158.43 191.75,-168.43 195.25,-158.43 188.25,-158.43"/>
</a>
</g>
</g>
<!-- Node6 -->
<g id="Node000006" class="node">
<title>Node6</title>
<g id="a_Node000006"><a xlink:href="express_2legacy_2un_2Server_8h.html" target="_top" xlink:title=" ">
<polygon fill="white" stroke="#666666" points="265.75,-77.5 117.75,-77.5 117.75,-56.75 265.75,-56.75 265.75,-77.5"/>
<text xml:space="preserve" text-anchor="middle" x="191.75" y="-64" font-family="Helvetica,sans-Serif" font-size="10.00">express/legacy/un/Server.h</text>
</a>
</g>
</g>
<!-- Node5&#45;&gt;Node6 -->
<g id="edge5_Node000005_Node000006" class="edge">
<title>Node5&#45;&gt;Node6</title>
<g id="a_edge5_Node000005_Node000006"><a xlink:title=" ">
<path fill="none" stroke="#63b8ff" d="M191.75,-101.63C191.75,-93.41 191.75,-84.43 191.75,-77.83"/>
<polygon fill="#63b8ff" stroke="#63b8ff" points="188.25,-101.57 191.75,-111.57 195.25,-101.57 188.25,-101.57"/>
</a>
</g>
</g>
<!-- Node7 -->
<g id="Node000007" class="node">
<title>Node7</title>
<g id="a_Node000007"><a xlink:href="legacy_2un_2Server_8cpp.html" target="_top" xlink:title=" ">
<polygon fill="white" stroke="#666666" points="271.38,-20.75 112.12,-20.75 112.12,0 271.38,0 271.38,-20.75"/>
<text xml:space="preserve" text-anchor="middle" x="191.75" y="-7.25" font-family="Helvetica,sans-Serif" font-size="10.00">express/legacy/un/Server.cpp</text>
</a>
</g>
</g>
<!-- Node6&#45;&gt;Node7 -->
<g id="edge6_Node000006_Node000007" class="edge">
<title>Node6&#45;&gt;Node7</title>
<g id="a_edge6_Node000006_Node000007"><a xlink:title=" ">
<path fill="none" stroke="#63b8ff" d="M191.75,-44.88C191.75,-36.66 191.75,-27.68 191.75,-21.08"/>
<polygon fill="#63b8ff" stroke="#63b8ff" points="188.25,-44.82 191.75,-54.82 195.25,-44.82 188.25,-44.82"/>
</a>
</g>
</g>
<!-- Node9 -->
<g id="Node000009" class="node">
<title>Node9</title>
<g id="a_Node000009"><a xlink:href="un_2stream_2tls_2SocketServer_8cpp.html" target="_top" xlink:title=" ">
<polygon fill="white" stroke="#666666" points="401,-203.75 266.5,-203.75 266.5,-170.25 401,-170.25 401,-203.75"/>
<text xml:space="preserve" text-anchor="start" x="274.5" y="-190.25" font-family="Helvetica,sans-Serif" font-size="10.00">net/un/stream/tls/Socket</text>
<text xml:space="preserve" text-anchor="middle" x="333.75" y="-177.5" font-family="Helvetica,sans-Serif" font-size="10.00">Server.cpp</text>
</a>
</g>
</g>
<!-- Node8&#45;&gt;Node9 -->
<g id="edge8_Node000008_Node000009" class="edge">
<title>Node8&#45;&gt;Node9</title>
<g id="a_edge8_Node000008_Node000009"><a xlink:title=" ">
<path fill="none" stroke="#63b8ff" d="M334.34,-228.06C334.22,-219.84 334.09,-211.09 333.99,-203.88"/>
<polygon fill="#63b8ff" stroke="#63b8ff" points="330.84,-228.04 334.49,-237.99 337.84,-227.94 330.84,-228.04"/>
</a>
</g>
</g>
<!-- Node10 -->
<g id="Node000010" class="node">
<title>Node10</title>
<g id="a_Node000010"><a xlink:href="web_2http_2tls_2un_2Server_8h.html" target="_top" xlink:title=" ">
<polygon fill="white" stroke="#666666" points="550.88,-197.38 418.62,-197.38 418.62,-176.62 550.88,-176.62 550.88,-197.38"/>
<text xml:space="preserve" text-anchor="middle" x="484.75" y="-183.88" font-family="Helvetica,sans-Serif" font-size="10.00">web/http/tls/un/Server.h</text>
</a>
</g>
</g>
<!-- Node8&#45;&gt;Node10 -->
<g id="edge9_Node000008_Node000010" class="edge">
<title>Node8&#45;&gt;Node10</title>
<g id="a_edge9_Node000008_Node000010"><a xlink:title=" ">
<path fill="none" stroke="#63b8ff" d="M380.83,-234.76C408.19,-222.45 441.61,-207.41 463.04,-197.77"/>
<polygon fill="#63b8ff" stroke="#63b8ff" points="379.74,-231.42 372.06,-238.71 382.61,-237.8 379.74,-231.42"/>
</a>
</g>
</g>
<!-- Node11 -->
<g id="Node000011" class="node">
<title>Node11</title>
<g id="a_Node000011"><a xlink:href="tls_2un_2WebApp_8h.html" target="_top" xlink:title=" ">
<polygon fill="white" stroke="#666666" points="553.12,-134.25 416.38,-134.25 416.38,-113.5 553.12,-113.5 553.12,-134.25"/>
<text xml:space="preserve" text-anchor="middle" x="484.75" y="-120.75" font-family="Helvetica,sans-Serif" font-size="10.00">express/tls/un/WebApp.h</text>
</a>
</g>
</g>
<!-- Node10&#45;&gt;Node11 -->
<g id="edge10_Node000010_Node000011" class="edge">
<title>Node10&#45;&gt;Node11</title>
<g id="a_edge10_Node000010_Node000011"><a xlink:title=" ">
<path fill="none" stroke="#63b8ff" d="M484.75,-164.74C484.75,-154.43 484.75,-142.56 484.75,-134.47"/>
<polygon fill="#63b8ff" stroke="#63b8ff" points="481.25,-164.67 484.75,-174.67 488.25,-164.67 481.25,-164.67"/>
</a>
</g>
</g>
<!-- Node12 -->
<g id="Node000012" class="node">
<title>Node12</title>
<g id="a_Node000012"><a xlink:href="express_2tls_2un_2Server_8h.html" target="_top" xlink:title=" ">
<polygon fill="white" stroke="#666666" points="548.62,-77.5 420.88,-77.5 420.88,-56.75 548.62,-56.75 548.62,-77.5"/>
<text xml:space="preserve" text-anchor="middle" x="484.75" y="-64" font-family="Helvetica,sans-Serif" font-size="10.00">express/tls/un/Server.h</text>
</a>
</g>
</g>
<!-- Node11&#45;&gt;Node12 -->
<g id="edge11_Node000011_Node000012" class="edge">
<title>Node11&#45;&gt;Node12</title>
<g id="a_edge11_Node000011_Node000012"><a xlink:title=" ">
<path fill="none" stroke="#63b8ff" d="M484.75,-101.63C484.75,-93.41 484.75,-84.43 484.75,-77.83"/>
<polygon fill="#63b8ff" stroke="#63b8ff" points="481.25,-101.57 484.75,-111.57 488.25,-101.57 481.25,-101.57"/>
</a>
</g>
</g>
<!-- Node13 -->
<g id="Node000013" class="node">
<title>Node13</title>
<g id="a_Node000013"><a xlink:href="tls_2un_2Server_8cpp.html" target="_top" xlink:title=" ">
<polygon fill="white" stroke="#666666" points="554.25,-20.75 415.25,-20.75 415.25,0 554.25,0 554.25,-20.75"/>
<text xml:space="preserve" text-anchor="middle" x="484.75" y="-7.25" font-family="Helvetica,sans-Serif" font-size="10.00">express/tls/un/Server.cpp</text>
</a>
</g>
</g>
<!-- Node12&#45;&gt;Node13 -->
<g id="edge12_Node000012_Node000013" class="edge">
<title>Node12&#45;&gt;Node13</title>
<g id="a_edge12_Node000012_Node000013"><a xlink:title=" ">
<path fill="none" stroke="#63b8ff" d="M484.75,-44.88C484.75,-36.66 484.75,-27.68 484.75,-21.08"/>
<polygon fill="#63b8ff" stroke="#63b8ff" points="481.25,-44.82 484.75,-54.82 488.25,-44.82 481.25,-44.82"/>
</a>
</g>
</g>
</g>
</svg>
