<?xml version="1.0" encoding="UTF-8" standalone="no"?>
<!DOCTYPE svg PUBLIC "-//W3C//DTD SVG 1.1//EN"
 "http://www.w3.org/Graphics/SVG/1.1/DTD/svg11.dtd">
<!-- Generated by graphviz version 2.43.0 (0)
 -->
<!-- Title: net/in6/stream/legacy/SocketClient.h Pages: 1 -->
<svg width="2194pt" height="478pt"
 viewBox="0.00 0.00 2194.00 478.00" xmlns="http://www.w3.org/2000/svg" xmlns:xlink="http://www.w3.org/1999/xlink">
<g id="graph0" class="graph" transform="scale(1 1) rotate(0) translate(4 474)">
<title>net/in6/stream/legacy/SocketClient.h</title>
<!-- Node1 -->
<g id="Node000001" class="node">
<title>Node1</title>
<g id="a_Node000001"><a xlink:title=" ">
<polygon fill="#999999" stroke="#666666" points="719.5,-470 596.5,-470 596.5,-440 719.5,-440 719.5,-470"/>
<text text-anchor="start" x="604.5" y="-458" font-family="Helvetica,sans-Serif" font-size="10.00">net/in6/stream/legacy</text>
<text text-anchor="middle" x="658" y="-447" font-family="Helvetica,sans-Serif" font-size="10.00">/SocketClient.h</text>
</a>
</g>
</g>
<!-- Node2 -->
<g id="Node000002" class="node">
<title>Node2</title>
<g id="a_Node000002"><a xlink:href="legacy_2_socket_connection_8h.html" target="_top" xlink:title=" ">
<polygon fill="white" stroke="#666666" points="646.5,-404 495.5,-404 495.5,-374 646.5,-374 646.5,-404"/>
<text text-anchor="start" x="503.5" y="-392" font-family="Helvetica,sans-Serif" font-size="10.00">core/socket/stream</text>
<text text-anchor="middle" x="571" y="-381" font-family="Helvetica,sans-Serif" font-size="10.00">/legacy/SocketConnection.h</text>
</a>
</g>
</g>
<!-- Node1&#45;&gt;Node2 -->
<g id="edge1_Node000001_Node000002" class="edge">
<title>Node1&#45;&gt;Node2</title>
<g id="a_edge1_Node000001_Node000002"><a xlink:title=" ">
<path fill="none" stroke="#63b8ff" d="M638.69,-439.8C626.87,-431.1 611.54,-419.82 598.46,-410.2"/>
<polygon fill="#63b8ff" stroke="#63b8ff" points="600.38,-407.27 590.25,-404.16 596.24,-412.91 600.38,-407.27"/>
</a>
</g>
</g>
<!-- Node13 -->
<g id="Node000013" class="node">
<title>Node13</title>
<g id="a_Node000013"><a xlink:href="legacy_2_socket_connector_8h.html" target="_top" xlink:title=" ">
<polygon fill="white" stroke="#666666" points="366,-404 220,-404 220,-374 366,-374 366,-404"/>
<text text-anchor="start" x="228" y="-392" font-family="Helvetica,sans-Serif" font-size="10.00">core/socket/stream</text>
<text text-anchor="middle" x="293" y="-381" font-family="Helvetica,sans-Serif" font-size="10.00">/legacy/SocketConnector.h</text>
</a>
</g>
</g>
<!-- Node1&#45;&gt;Node13 -->
<g id="edge13_Node000001_Node000013" class="edge">
<title>Node1&#45;&gt;Node13</title>
<g id="a_edge13_Node000001_Node000013"><a xlink:title=" ">
<path fill="none" stroke="#63b8ff" d="M596.5,-443.22C536.01,-432.61 443.25,-416.34 376.2,-404.59"/>
<polygon fill="#63b8ff" stroke="#63b8ff" points="376.54,-401.09 366.08,-402.81 375.33,-407.99 376.54,-401.09"/>
</a>
</g>
</g>
<!-- Node17 -->
<g id="Node000017" class="node">
<title>Node17</title>
<g id="a_Node000017"><a xlink:href="net_2in6_2stream_2_socket_client_8h.html" target="_top" xlink:title=" ">
<polygon fill="white" stroke="#666666" points="876.5,-398.5 715.5,-398.5 715.5,-379.5 876.5,-379.5 876.5,-398.5"/>
<text text-anchor="middle" x="796" y="-386.5" font-family="Helvetica,sans-Serif" font-size="10.00">net/in6/stream/SocketClient.h</text>
</a>
</g>
</g>
<!-- Node1&#45;&gt;Node17 -->
<g id="edge18_Node000001_Node000017" class="edge">
<title>Node1&#45;&gt;Node17</title>
<g id="a_edge18_Node000001_Node000017"><a xlink:title=" ">
<path fill="none" stroke="#63b8ff" d="M688.28,-439.95C712.17,-428.88 745.2,-413.56 768.36,-402.82"/>
<polygon fill="#63b8ff" stroke="#63b8ff" points="770.04,-405.9 777.63,-398.52 767.09,-399.55 770.04,-405.9"/>
</a>
</g>
</g>
<!-- Node36 -->
<g id="Node000036" class="node">
<title>Node36</title>
<g id="a_Node000036"><a xlink:href="in6_2stream_2legacy_2config_2_config_socket_client_8h.html" target="_top" xlink:title=" ">
<polygon fill="white" stroke="#666666" points="1658,-404 1504,-404 1504,-374 1658,-374 1658,-404"/>
<text text-anchor="start" x="1512" y="-392" font-family="Helvetica,sans-Serif" font-size="10.00">net/in6/stream/legacy</text>
<text text-anchor="middle" x="1581" y="-381" font-family="Helvetica,sans-Serif" font-size="10.00">/config/ConfigSocketClient.h</text>
</a>
</g>
</g>
<!-- Node1&#45;&gt;Node36 -->
<g id="edge39_Node000001_Node000036" class="edge">
<title>Node1&#45;&gt;Node36</title>
<g id="a_edge39_Node000001_Node000036"><a xlink:title=" ">
<path fill="none" stroke="#63b8ff" d="M719.63,-449.73C879.59,-438.64 1308.39,-408.9 1493.7,-396.05"/>
<polygon fill="#63b8ff" stroke="#63b8ff" points="1494.21,-399.53 1503.95,-395.34 1493.73,-392.54 1494.21,-399.53"/>
</a>
</g>
</g>
<!-- Node3 -->
<g id="Node000003" class="node">
<title>Node3</title>
<g id="a_Node000003"><a xlink:href="_socket_connection_8h.html" target="_top" xlink:title=" ">
<polygon fill="white" stroke="#666666" points="666,-338 550,-338 550,-308 666,-308 666,-338"/>
<text text-anchor="start" x="558" y="-326" font-family="Helvetica,sans-Serif" font-size="10.00">core/socket/stream</text>
<text text-anchor="middle" x="608" y="-315" font-family="Helvetica,sans-Serif" font-size="10.00">/SocketConnection.h</text>
</a>
</g>
</g>
<!-- Node2&#45;&gt;Node3 -->
<g id="edge2_Node000002_Node000003" class="edge">
<title>Node2&#45;&gt;Node3</title>
<g id="a_edge2_Node000002_Node000003"><a xlink:title=" ">
<path fill="none" stroke="#63b8ff" d="M579.21,-373.8C583.76,-365.92 589.53,-355.95 594.71,-346.99"/>
<polygon fill="#63b8ff" stroke="#63b8ff" points="597.84,-348.57 599.81,-338.16 591.78,-345.07 597.84,-348.57"/>
</a>
</g>
</g>
<!-- Node4 -->
<g id="Node000004" class="node">
<title>Node4</title>
<g id="a_Node000004"><a xlink:href="legacy_2_socket_reader_8h.html" target="_top" xlink:title=" ">
<polygon fill="white" stroke="#666666" points="387.5,-338 256.5,-338 256.5,-308 387.5,-308 387.5,-338"/>
<text text-anchor="start" x="264.5" y="-326" font-family="Helvetica,sans-Serif" font-size="10.00">core/socket/stream</text>
<text text-anchor="middle" x="322" y="-315" font-family="Helvetica,sans-Serif" font-size="10.00">/legacy/SocketReader.h</text>
</a>
</g>
</g>
<!-- Node2&#45;&gt;Node4 -->
<g id="edge3_Node000002_Node000004" class="edge">
<title>Node2&#45;&gt;Node4</title>
<g id="a_edge3_Node000002_Node000004"><a xlink:title=" ">
<path fill="none" stroke="#63b8ff" d="M516.36,-373.95C478,-364.1 426.57,-350.88 386.25,-340.51"/>
<polygon fill="#63b8ff" stroke="#63b8ff" points="387.07,-337.11 376.52,-338.01 385.33,-343.89 387.07,-337.11"/>
</a>
</g>
</g>
<!-- Node10 -->
<g id="Node000010" class="node">
<title>Node10</title>
<g id="a_Node000010"><a xlink:href="legacy_2_socket_writer_8h.html" target="_top" xlink:title=" ">
<polygon fill="white" stroke="#666666" points="532,-338 406,-338 406,-308 532,-308 532,-338"/>
<text text-anchor="start" x="414" y="-326" font-family="Helvetica,sans-Serif" font-size="10.00">core/socket/stream</text>
<text text-anchor="middle" x="469" y="-315" font-family="Helvetica,sans-Serif" font-size="10.00">/legacy/SocketWriter.h</text>
</a>
</g>
</g>
<!-- Node2&#45;&gt;Node10 -->
<g id="edge9_Node000002_Node000010" class="edge">
<title>Node2&#45;&gt;Node10</title>
<g id="a_edge9_Node000002_Node000010"><a xlink:title=" ">
<path fill="none" stroke="#63b8ff" d="M548.62,-373.95C534.4,-365.03 515.8,-353.36 500.15,-343.54"/>
<polygon fill="#63b8ff" stroke="#63b8ff" points="501.66,-340.36 491.33,-338.01 497.94,-346.29 501.66,-340.36"/>
</a>
</g>
</g>
<!-- Node5 -->
<g id="Node000005" class="node">
<title>Node5</title>
<g id="a_Node000005"><a xlink:href="_socket_reader_8h.html" target="_top" xlink:title=" ">
<polygon fill="white" stroke="#666666" points="377,-272 267,-272 267,-242 377,-242 377,-272"/>
<text text-anchor="start" x="275" y="-260" font-family="Helvetica,sans-Serif" font-size="10.00">core/socket/stream</text>
<text text-anchor="middle" x="322" y="-249" font-family="Helvetica,sans-Serif" font-size="10.00">/SocketReader.h</text>
</a>
</g>
</g>
<!-- Node4&#45;&gt;Node5 -->
<g id="edge4_Node000004_Node000005" class="edge">
<title>Node4&#45;&gt;Node5</title>
<g id="a_edge4_Node000004_Node000005"><a xlink:title=" ">
<path fill="none" stroke="#63b8ff" d="M322,-307.8C322,-300.34 322,-290.99 322,-282.41"/>
<polygon fill="#63b8ff" stroke="#63b8ff" points="325.5,-282.16 322,-272.16 318.5,-282.16 325.5,-282.16"/>
</a>
</g>
</g>
<!-- Node6 -->
<g id="Node000006" class="node">
<title>Node6</title>
<g id="a_Node000006"><a xlink:href="_read_event_receiver_8h.html" target="_top" xlink:title=" ">
<polygon fill="white" stroke="#666666" points="384,-206 260,-206 260,-176 384,-176 384,-206"/>
<text text-anchor="start" x="268" y="-194" font-family="Helvetica,sans-Serif" font-size="10.00">core/eventreceiver</text>
<text text-anchor="middle" x="322" y="-183" font-family="Helvetica,sans-Serif" font-size="10.00">/ReadEventReceiver.h</text>
</a>
</g>
</g>
<!-- Node5&#45;&gt;Node6 -->
<g id="edge5_Node000005_Node000006" class="edge">
<title>Node5&#45;&gt;Node6</title>
<g id="a_edge5_Node000005_Node000006"><a xlink:title=" ">
<path fill="none" stroke="#63b8ff" d="M322,-241.8C322,-234.34 322,-224.99 322,-216.41"/>
<polygon fill="#63b8ff" stroke="#63b8ff" points="325.5,-216.16 322,-206.16 318.5,-216.16 325.5,-216.16"/>
</a>
</g>
</g>
<!-- Node7 -->
<g id="Node000007" class="node">
<title>Node7</title>
<g id="a_Node000007"><a xlink:href="_descriptor_event_receiver_8h.html" target="_top" xlink:title=" ">
<polygon fill="white" stroke="#666666" points="407,-134.5 237,-134.5 237,-115.5 407,-115.5 407,-134.5"/>
<text text-anchor="middle" x="322" y="-122.5" font-family="Helvetica,sans-Serif" font-size="10.00">core/DescriptorEventReceiver.h</text>
</a>
</g>
</g>
<!-- Node6&#45;&gt;Node7 -->
<g id="edge6_Node000006_Node000007" class="edge">
<title>Node6&#45;&gt;Node7</title>
<g id="a_edge6_Node000006_Node000007"><a xlink:title=" ">
<path fill="none" stroke="#63b8ff" d="M322,-175.8C322,-166.7 322,-154.79 322,-144.9"/>
<polygon fill="#63b8ff" stroke="#63b8ff" points="325.5,-144.84 322,-134.84 318.5,-144.84 325.5,-144.84"/>
</a>
</g>
</g>
<!-- Node8 -->
<g id="Node000008" class="node">
<title>Node8</title>
<g id="a_Node000008"><a xlink:href="_event_receiver_8h.html" target="_top" xlink:title=" ">
<polygon fill="white" stroke="#666666" points="382,-74 262,-74 262,-55 382,-55 382,-74"/>
<text text-anchor="middle" x="322" y="-62" font-family="Helvetica,sans-Serif" font-size="10.00">core/EventReceiver.h</text>
</a>
</g>
</g>
<!-- Node7&#45;&gt;Node8 -->
<g id="edge7_Node000007_Node000008" class="edge">
<title>Node7&#45;&gt;Node8</title>
<g id="a_edge7_Node000007_Node000008"><a xlink:title=" ">
<path fill="none" stroke="#63b8ff" d="M322,-115.37C322,-107.25 322,-94.81 322,-84.39"/>
<polygon fill="#63b8ff" stroke="#63b8ff" points="325.5,-84.17 322,-74.17 318.5,-84.17 325.5,-84.17"/>
</a>
</g>
</g>
<!-- Node9 -->
<g id="Node000009" class="node">
<title>Node9</title>
<g id="a_Node000009"><a xlink:href="_event_8h.html" target="_top" xlink:title=" ">
<polygon fill="white" stroke="#666666" points="360.5,-19 283.5,-19 283.5,0 360.5,0 360.5,-19"/>
<text text-anchor="middle" x="322" y="-7" font-family="Helvetica,sans-Serif" font-size="10.00">core/Event.h</text>
</a>
</g>
</g>
<!-- Node8&#45;&gt;Node9 -->
<g id="edge8_Node000008_Node000009" class="edge">
<title>Node8&#45;&gt;Node9</title>
<g id="a_edge8_Node000008_Node000009"><a xlink:title=" ">
<path fill="none" stroke="#63b8ff" d="M322,-54.75C322,-47.8 322,-37.85 322,-29.13"/>
<polygon fill="#63b8ff" stroke="#63b8ff" points="325.5,-29.09 322,-19.09 318.5,-29.09 325.5,-29.09"/>
</a>
</g>
</g>
<!-- Node11 -->
<g id="Node000011" class="node">
<title>Node11</title>
<g id="a_Node000011"><a xlink:href="_socket_writer_8h.html" target="_top" xlink:title=" ">
<polygon fill="white" stroke="#666666" points="512,-272 402,-272 402,-242 512,-242 512,-272"/>
<text text-anchor="start" x="410" y="-260" font-family="Helvetica,sans-Serif" font-size="10.00">core/socket/stream</text>
<text text-anchor="middle" x="457" y="-249" font-family="Helvetica,sans-Serif" font-size="10.00">/SocketWriter.h</text>
</a>
</g>
</g>
<!-- Node10&#45;&gt;Node11 -->
<g id="edge10_Node000010_Node000011" class="edge">
<title>Node10&#45;&gt;Node11</title>
<g id="a_edge10_Node000010_Node000011"><a xlink:title=" ">
<path fill="none" stroke="#63b8ff" d="M466.34,-307.8C464.92,-300.26 463.15,-290.78 461.52,-282.13"/>
<polygon fill="#63b8ff" stroke="#63b8ff" points="464.94,-281.35 459.66,-272.16 458.06,-282.64 464.94,-281.35"/>
</a>
</g>
</g>
<!-- Node12 -->
<g id="Node000012" class="node">
<title>Node12</title>
<g id="a_Node000012"><a xlink:href="_write_event_receiver_8h.html" target="_top" xlink:title=" ">
<polygon fill="white" stroke="#666666" points="527.5,-206 402.5,-206 402.5,-176 527.5,-176 527.5,-206"/>
<text text-anchor="start" x="410.5" y="-194" font-family="Helvetica,sans-Serif" font-size="10.00">core/eventreceiver</text>
<text text-anchor="middle" x="465" y="-183" font-family="Helvetica,sans-Serif" font-size="10.00">/WriteEventReceiver.h</text>
</a>
</g>
</g>
<!-- Node11&#45;&gt;Node12 -->
<g id="edge11_Node000011_Node000012" class="edge">
<title>Node11&#45;&gt;Node12</title>
<g id="a_edge11_Node000011_Node000012"><a xlink:title=" ">
<path fill="none" stroke="#63b8ff" d="M458.78,-241.8C459.72,-234.26 460.9,-224.78 461.98,-216.13"/>
<polygon fill="#63b8ff" stroke="#63b8ff" points="465.46,-216.52 463.23,-206.16 458.52,-215.65 465.46,-216.52"/>
</a>
</g>
</g>
<!-- Node12&#45;&gt;Node7 -->
<g id="edge12_Node000012_Node000007" class="edge">
<title>Node12&#45;&gt;Node7</title>
<g id="a_edge12_Node000012_Node000007"><a xlink:title=" ">
<path fill="none" stroke="#63b8ff" d="M433.62,-175.95C408.76,-164.83 374.34,-149.42 350.32,-138.67"/>
<polygon fill="#63b8ff" stroke="#63b8ff" points="351.59,-135.41 341.03,-134.52 348.73,-141.8 351.59,-135.41"/>
</a>
</g>
</g>
<!-- Node14 -->
<g id="Node000014" class="node">
<title>Node14</title>
<g id="a_Node000014"><a xlink:href="_socket_connector_8h.html" target="_top" xlink:title=" ">
<polygon fill="white" stroke="#666666" points="233,-338 123,-338 123,-308 233,-308 233,-338"/>
<text text-anchor="start" x="131" y="-326" font-family="Helvetica,sans-Serif" font-size="10.00">core/socket/stream</text>
<text text-anchor="middle" x="178" y="-315" font-family="Helvetica,sans-Serif" font-size="10.00">/SocketConnector.h</text>
</a>
</g>
</g>
<!-- Node13&#45;&gt;Node14 -->
<g id="edge14_Node000013_Node000014" class="edge">
<title>Node13&#45;&gt;Node14</title>
<g id="a_edge14_Node000013_Node000014"><a xlink:title=" ">
<path fill="none" stroke="#63b8ff" d="M267.76,-373.95C251.43,-364.87 229.98,-352.93 212.13,-343"/>
<polygon fill="#63b8ff" stroke="#63b8ff" points="213.62,-339.82 203.18,-338.01 210.21,-345.93 213.62,-339.82"/>
</a>
</g>
</g>
<!-- Node15 -->
<g id="Node000015" class="node">
<title>Node15</title>
<g id="a_Node000015"><a xlink:href="_connect_event_receiver_8h.html" target="_top" xlink:title=" ">
<polygon fill="white" stroke="#666666" points="241.5,-206 102.5,-206 102.5,-176 241.5,-176 241.5,-206"/>
<text text-anchor="start" x="110.5" y="-194" font-family="Helvetica,sans-Serif" font-size="10.00">core/eventreceiver</text>
<text text-anchor="middle" x="172" y="-183" font-family="Helvetica,sans-Serif" font-size="10.00">/ConnectEventReceiver.h</text>
</a>
</g>
</g>
<!-- Node14&#45;&gt;Node15 -->
<g id="edge15_Node000014_Node000015" class="edge">
<title>Node14&#45;&gt;Node15</title>
<g id="a_edge15_Node000014_Node000015"><a xlink:title=" ">
<path fill="none" stroke="#63b8ff" d="M177.35,-307.84C176.33,-285.86 174.37,-243.27 173.12,-216.3"/>
<polygon fill="#63b8ff" stroke="#63b8ff" points="176.61,-215.97 172.65,-206.14 169.62,-216.29 176.61,-215.97"/>
</a>
</g>
</g>
<!-- Node16 -->
<g id="Node000016" class="node">
<title>Node16</title>
<g id="a_Node000016"><a xlink:href="_socket_connection_factory_8h.html" target="_top" xlink:title=" ">
<polygon fill="white" stroke="#666666" points="150,-272 0,-272 0,-242 150,-242 150,-272"/>
<text text-anchor="start" x="8" y="-260" font-family="Helvetica,sans-Serif" font-size="10.00">core/socket/stream</text>
<text text-anchor="middle" x="75" y="-249" font-family="Helvetica,sans-Serif" font-size="10.00">/SocketConnectionFactory.h</text>
</a>
</g>
</g>
<!-- Node14&#45;&gt;Node16 -->
<g id="edge17_Node000014_Node000016" class="edge">
<title>Node14&#45;&gt;Node16</title>
<g id="a_edge17_Node000014_Node000016"><a xlink:title=" ">
<path fill="none" stroke="#63b8ff" d="M155.4,-307.95C141.04,-299.03 122.26,-287.36 106.45,-277.54"/>
<polygon fill="#63b8ff" stroke="#63b8ff" points="107.89,-274.32 97.55,-272.01 104.2,-280.26 107.89,-274.32"/>
</a>
</g>
</g>
<!-- Node15&#45;&gt;Node7 -->
<g id="edge16_Node000015_Node000007" class="edge">
<title>Node15&#45;&gt;Node7</title>
<g id="a_edge16_Node000015_Node000007"><a xlink:title=" ">
<path fill="none" stroke="#63b8ff" d="M204.92,-175.95C231.11,-164.78 267.42,-149.29 292.63,-138.53"/>
<polygon fill="#63b8ff" stroke="#63b8ff" points="294.21,-141.66 302.04,-134.52 291.47,-135.22 294.21,-141.66"/>
</a>
</g>
</g>
<!-- Node18 -->
<g id="Node000018" class="node">
<title>Node18</title>
<g id="a_Node000018"><a xlink:href="core_2socket_2stream_2_socket_client_8h.html" target="_top" xlink:title=" ">
<polygon fill="white" stroke="#666666" points="851,-338 741,-338 741,-308 851,-308 851,-338"/>
<text text-anchor="start" x="749" y="-326" font-family="Helvetica,sans-Serif" font-size="10.00">core/socket/stream</text>
<text text-anchor="middle" x="796" y="-315" font-family="Helvetica,sans-Serif" font-size="10.00">/SocketClient.h</text>
</a>
</g>
</g>
<!-- Node17&#45;&gt;Node18 -->
<g id="edge19_Node000017_Node000018" class="edge">
<title>Node17&#45;&gt;Node18</title>
<g id="a_edge19_Node000017_Node000018"><a xlink:title=" ">
<path fill="none" stroke="#63b8ff" d="M796,-379.37C796,-371.49 796,-359.45 796,-348.6"/>
<polygon fill="#63b8ff" stroke="#63b8ff" points="799.5,-348.36 796,-338.36 792.5,-348.36 799.5,-348.36"/>
</a>
</g>
</g>
<!-- Node26 -->
<g id="Node000026" class="node">
<title>Node26</title>
<g id="a_Node000026"><a xlink:href="in6_2stream_2_physical_client_socket_8h.html" target="_top" xlink:title=" ">
<polygon fill="white" stroke="#666666" points="1209,-338 1049,-338 1049,-308 1209,-308 1209,-338"/>
<text text-anchor="start" x="1057" y="-326" font-family="Helvetica,sans-Serif" font-size="10.00">net/in6/stream/PhysicalClient</text>
<text text-anchor="middle" x="1129" y="-315" font-family="Helvetica,sans-Serif" font-size="10.00">Socket.h</text>
</a>
</g>
</g>
<!-- Node17&#45;&gt;Node26 -->
<g id="edge27_Node000017_Node000026" class="edge">
<title>Node17&#45;&gt;Node26</title>
<g id="a_edge27_Node000017_Node000026"><a xlink:title=" ">
<path fill="none" stroke="#63b8ff" d="M840.56,-379.44C892.99,-369.36 981.12,-352.42 1046.2,-339.91"/>
<polygon fill="#63b8ff" stroke="#63b8ff" points="1046.87,-343.35 1056.03,-338.02 1045.55,-336.48 1046.87,-343.35"/>
</a>
</g>
</g>
<!-- Node19 -->
<g id="Node000019" class="node">
<title>Node19</title>
<g id="a_Node000019"><a xlink:href="_progress_log_8h.html" target="_top" xlink:title=" ">
<polygon fill="white" stroke="#666666" points="933.5,-266.5 824.5,-266.5 824.5,-247.5 933.5,-247.5 933.5,-266.5"/>
<text text-anchor="middle" x="879" y="-254.5" font-family="Helvetica,sans-Serif" font-size="10.00">core/ProgressLog.h</text>
</a>
</g>
</g>
<!-- Node18&#45;&gt;Node19 -->
<g id="edge20_Node000018_Node000019" class="edge">
<title>Node18&#45;&gt;Node19</title>
<g id="a_edge20_Node000018_Node000019"><a xlink:title=" ">
<path fill="none" stroke="#63b8ff" d="M814.42,-307.8C827.74,-297.53 845.71,-283.67 859.31,-273.18"/>
<polygon fill="#63b8ff" stroke="#63b8ff" points="861.75,-275.72 867.53,-266.84 857.47,-270.18 861.75,-275.72"/>
</a>
</g>
</g>
<!-- Node20 -->
<g id="Node000020" class="node">
<title>Node20</title>
<g id="a_Node000020"><a xlink:href="_s_node_c_8h.html" target="_top" xlink:title=" ">
<polygon fill="white" stroke="#666666" points="1040,-266.5 952,-266.5 952,-247.5 1040,-247.5 1040,-266.5"/>
<text text-anchor="middle" x="996" y="-254.5" font-family="Helvetica,sans-Serif" font-size="10.00">core/SNodeC.h</text>
</a>
</g>
</g>
<!-- Node18&#45;&gt;Node20 -->
<g id="edge21_Node000018_Node000020" class="edge">
<title>Node18&#45;&gt;Node20</title>
<g id="a_edge21_Node000018_Node000020"><a xlink:title=" ">
<path fill="none" stroke="#63b8ff" d="M839.89,-307.95C875.74,-296.48 925.81,-280.46 959.49,-269.68"/>
<polygon fill="#63b8ff" stroke="#63b8ff" points="960.93,-272.9 969.38,-266.52 958.79,-266.23 960.93,-272.9"/>
</a>
</g>
</g>
<!-- Node23 -->
<g id="Node000023" class="node">
<title>Node23</title>
<g id="a_Node000023"><a xlink:href="_logical_socket_8h.html" target="_top" xlink:title=" ">
<polygon fill="white" stroke="#666666" points="681.5,-266.5 530.5,-266.5 530.5,-247.5 681.5,-247.5 681.5,-266.5"/>
<text text-anchor="middle" x="606" y="-254.5" font-family="Helvetica,sans-Serif" font-size="10.00">core/socket/LogicalSocket.h</text>
</a>
</g>
</g>
<!-- Node18&#45;&gt;Node23 -->
<g id="edge24_Node000018_Node000023" class="edge">
<title>Node18&#45;&gt;Node23</title>
<g id="a_edge24_Node000018_Node000023"><a xlink:title=" ">
<path fill="none" stroke="#63b8ff" d="M754.3,-307.95C720.4,-296.53 673.09,-280.6 641.1,-269.82"/>
<polygon fill="#63b8ff" stroke="#63b8ff" points="641.88,-266.39 631.29,-266.52 639.65,-273.03 641.88,-266.39"/>
</a>
</g>
</g>
<!-- Node24 -->
<g id="Node000024" class="node">
<title>Node24</title>
<g id="a_Node000024"><a xlink:href="timer_2_timer_8h.html" target="_top" xlink:title=" ">
<polygon fill="white" stroke="#666666" points="806.5,-266.5 699.5,-266.5 699.5,-247.5 806.5,-247.5 806.5,-266.5"/>
<text text-anchor="middle" x="753" y="-254.5" font-family="Helvetica,sans-Serif" font-size="10.00">core/timer/Timer.h</text>
</a>
</g>
</g>
<!-- Node18&#45;&gt;Node24 -->
<g id="edge25_Node000018_Node000024" class="edge">
<title>Node18&#45;&gt;Node24</title>
<g id="a_edge25_Node000018_Node000024"><a xlink:title=" ">
<path fill="none" stroke="#63b8ff" d="M786.46,-307.8C780.02,-298.21 771.48,-285.5 764.64,-275.32"/>
<polygon fill="#63b8ff" stroke="#63b8ff" points="767.42,-273.19 758.94,-266.84 761.61,-277.1 767.42,-273.19"/>
</a>
</g>
</g>
<!-- Node21 -->
<g id="Node000021" class="node">
<title>Node21</title>
<g id="a_Node000021"><a xlink:href="_state_8h.html" target="_top" xlink:title=" ">
<polygon fill="white" stroke="#666666" points="1038.5,-200.5 963.5,-200.5 963.5,-181.5 1038.5,-181.5 1038.5,-200.5"/>
<text text-anchor="middle" x="1001" y="-188.5" font-family="Helvetica,sans-Serif" font-size="10.00">core/State.h</text>
</a>
</g>
</g>
<!-- Node20&#45;&gt;Node21 -->
<g id="edge22_Node000020_Node000021" class="edge">
<title>Node20&#45;&gt;Node21</title>
<g id="a_edge22_Node000020_Node000021"><a xlink:title=" ">
<path fill="none" stroke="#63b8ff" d="M996.67,-247.37C997.4,-238.07 998.58,-222.98 999.52,-210.9"/>
<polygon fill="#63b8ff" stroke="#63b8ff" points="1003.01,-211.15 1000.3,-200.91 996.04,-210.6 1003.01,-211.15"/>
</a>
</g>
</g>
<!-- Node22 -->
<g id="Node000022" class="node">
<title>Node22</title>
<g id="a_Node000022"><a xlink:href="_tick_status_8h.html" target="_top" xlink:title=" ">
<polygon fill="white" stroke="#666666" points="945,-200.5 845,-200.5 845,-181.5 945,-181.5 945,-200.5"/>
<text text-anchor="middle" x="895" y="-188.5" font-family="Helvetica,sans-Serif" font-size="10.00">core/TickStatus.h</text>
</a>
</g>
</g>
<!-- Node20&#45;&gt;Node22 -->
<g id="edge23_Node000020_Node000022" class="edge">
<title>Node20&#45;&gt;Node22</title>
<g id="a_edge23_Node000020_Node000022"><a xlink:title=" ">
<path fill="none" stroke="#63b8ff" d="M982.38,-247.37C965.66,-236.78 937.09,-218.67 917.19,-206.06"/>
<polygon fill="#63b8ff" stroke="#63b8ff" points="919.05,-203.1 908.73,-200.7 915.3,-209.01 919.05,-203.1"/>
</a>
</g>
</g>
<!-- Node25 -->
<g id="Node000025" class="node">
<title>Node25</title>
<g id="a_Node000025"><a xlink:href="_timer_8h.html" target="_top" xlink:title=" ">
<polygon fill="white" stroke="#666666" points="791.5,-200.5 714.5,-200.5 714.5,-181.5 791.5,-181.5 791.5,-200.5"/>
<text text-anchor="middle" x="753" y="-188.5" font-family="Helvetica,sans-Serif" font-size="10.00">core/Timer.h</text>
</a>
</g>
</g>
<!-- Node24&#45;&gt;Node25 -->
<g id="edge26_Node000024_Node000025" class="edge">
<title>Node24&#45;&gt;Node25</title>
<g id="a_edge26_Node000024_Node000025"><a xlink:title=" ">
<path fill="none" stroke="#63b8ff" d="M753,-247.37C753,-238.16 753,-223.29 753,-211.27"/>
<polygon fill="#63b8ff" stroke="#63b8ff" points="756.5,-210.91 753,-200.91 749.5,-210.91 756.5,-210.91"/>
</a>
</g>
</g>
<!-- Node27 -->
<g id="Node000027" class="node">
<title>Node27</title>
<g id="a_Node000027"><a xlink:href="in6_2stream_2_physical_socket_8h.html" target="_top" xlink:title=" ">
<polygon fill="white" stroke="#666666" points="1391.5,-266.5 1218.5,-266.5 1218.5,-247.5 1391.5,-247.5 1391.5,-266.5"/>
<text text-anchor="middle" x="1305" y="-254.5" font-family="Helvetica,sans-Serif" font-size="10.00">net/in6/stream/PhysicalSocket.h</text>
</a>
</g>
</g>
<!-- Node26&#45;&gt;Node27 -->
<g id="edge28_Node000026_Node000027" class="edge">
<title>Node26&#45;&gt;Node27</title>
<g id="a_edge28_Node000026_Node000027"><a xlink:title=" ">
<path fill="none" stroke="#63b8ff" d="M1167.62,-307.95C1198.9,-296.58 1242.47,-280.74 1272.1,-269.96"/>
<polygon fill="#63b8ff" stroke="#63b8ff" points="1273.38,-273.22 1281.58,-266.52 1270.98,-266.65 1273.38,-273.22"/>
</a>
</g>
</g>
<!-- Node35 -->
<g id="Node000035" class="node">
<title>Node35</title>
<g id="a_Node000035"><a xlink:href="stream_2_physical_client_socket_8h.html" target="_top" xlink:title=" ">
<polygon fill="white" stroke="#666666" points="1200,-272 1058,-272 1058,-242 1200,-242 1200,-272"/>
<text text-anchor="start" x="1066" y="-260" font-family="Helvetica,sans-Serif" font-size="10.00">net/stream/PhysicalClient</text>
<text text-anchor="middle" x="1129" y="-249" font-family="Helvetica,sans-Serif" font-size="10.00">Socket.h</text>
</a>
</g>
</g>
<!-- Node26&#45;&gt;Node35 -->
<g id="edge37_Node000026_Node000035" class="edge">
<title>Node26&#45;&gt;Node35</title>
<g id="a_edge37_Node000026_Node000035"><a xlink:title=" ">
<path fill="none" stroke="#63b8ff" d="M1129,-307.8C1129,-300.34 1129,-290.99 1129,-282.41"/>
<polygon fill="#63b8ff" stroke="#63b8ff" points="1132.5,-282.16 1129,-272.16 1125.5,-282.16 1132.5,-282.16"/>
</a>
</g>
</g>
<!-- Node28 -->
<g id="Node000028" class="node">
<title>Node28</title>
<g id="a_Node000028"><a xlink:href="in6_2_physical_socket_8h.html" target="_top" xlink:title=" ">
<polygon fill="white" stroke="#666666" points="1369.5,-200.5 1234.5,-200.5 1234.5,-181.5 1369.5,-181.5 1369.5,-200.5"/>
<text text-anchor="middle" x="1302" y="-188.5" font-family="Helvetica,sans-Serif" font-size="10.00">net/in6/PhysicalSocket.h</text>
</a>
</g>
</g>
<!-- Node27&#45;&gt;Node28 -->
<g id="edge29_Node000027_Node000028" class="edge">
<title>Node27&#45;&gt;Node28</title>
<g id="a_edge29_Node000027_Node000028"><a xlink:title=" ">
<path fill="none" stroke="#63b8ff" d="M1304.6,-247.37C1304.16,-238.07 1303.45,-222.98 1302.89,-210.9"/>
<polygon fill="#63b8ff" stroke="#63b8ff" points="1306.38,-210.73 1302.42,-200.91 1299.39,-211.06 1306.38,-210.73"/>
</a>
</g>
</g>
<!-- Node34 -->
<g id="Node000034" class="node">
<title>Node34</title>
<g id="a_Node000034"><a xlink:href="stream_2_physical_socket_8h.html" target="_top" xlink:title=" ">
<polygon fill="white" stroke="#666666" points="1216.5,-200.5 1061.5,-200.5 1061.5,-181.5 1216.5,-181.5 1216.5,-200.5"/>
<text text-anchor="middle" x="1139" y="-188.5" font-family="Helvetica,sans-Serif" font-size="10.00">net/stream/PhysicalSocket.h</text>
</a>
</g>
</g>
<!-- Node27&#45;&gt;Node34 -->
<g id="edge35_Node000027_Node000034" class="edge">
<title>Node27&#45;&gt;Node34</title>
<g id="a_edge35_Node000027_Node000034"><a xlink:title=" ">
<path fill="none" stroke="#63b8ff" d="M1282.61,-247.37C1253.82,-236.27 1203.63,-216.92 1170.86,-204.28"/>
<polygon fill="#63b8ff" stroke="#63b8ff" points="1171.89,-200.93 1161.3,-200.6 1169.37,-207.46 1171.89,-200.93"/>
</a>
</g>
</g>
<!-- Node29 -->
<g id="Node000029" class="node">
<title>Node29</title>
<g id="a_Node000029"><a xlink:href="_physical_socket_8h.html" target="_top" xlink:title=" ">
<polygon fill="white" stroke="#666666" points="1273.5,-134.5 1156.5,-134.5 1156.5,-115.5 1273.5,-115.5 1273.5,-134.5"/>
<text text-anchor="middle" x="1215" y="-122.5" font-family="Helvetica,sans-Serif" font-size="10.00">net/PhysicalSocket.h</text>
</a>
</g>
</g>
<!-- Node28&#45;&gt;Node29 -->
<g id="edge30_Node000028_Node000029" class="edge">
<title>Node28&#45;&gt;Node29</title>
<g id="a_edge30_Node000028_Node000029"><a xlink:title=" ">
<path fill="none" stroke="#63b8ff" d="M1290.27,-181.37C1276.13,-170.97 1252.14,-153.32 1235.05,-140.75"/>
<polygon fill="#63b8ff" stroke="#63b8ff" points="1236.95,-137.81 1226.83,-134.7 1232.81,-143.44 1236.95,-137.81"/>
</a>
</g>
</g>
<!-- Node32 -->
<g id="Node000032" class="node">
<title>Node32</title>
<g id="a_Node000032"><a xlink:href="net_2in6_2_socket_address_8h.html" target="_top" xlink:title=" ">
<polygon fill="white" stroke="#666666" points="1465,-134.5 1331,-134.5 1331,-115.5 1465,-115.5 1465,-134.5"/>
<text text-anchor="middle" x="1398" y="-122.5" font-family="Helvetica,sans-Serif" font-size="10.00">net/in6/SocketAddress.h</text>
</a>
</g>
</g>
<!-- Node28&#45;&gt;Node32 -->
<g id="edge33_Node000028_Node000032" class="edge">
<title>Node28&#45;&gt;Node32</title>
<g id="a_edge33_Node000028_Node000032"><a xlink:title=" ">
<path fill="none" stroke="#63b8ff" d="M1314.95,-181.37C1330.69,-170.87 1357.5,-153 1376.4,-140.4"/>
<polygon fill="#63b8ff" stroke="#63b8ff" points="1378.57,-143.16 1384.95,-134.7 1374.69,-137.33 1378.57,-143.16"/>
</a>
</g>
</g>
<!-- Node30 -->
<g id="Node000030" class="node">
<title>Node30</title>
<g id="a_Node000030"><a xlink:href="_descriptor_8h.html" target="_top" xlink:title=" ">
<polygon fill="white" stroke="#666666" points="1194,-74 1094,-74 1094,-55 1194,-55 1194,-74"/>
<text text-anchor="middle" x="1144" y="-62" font-family="Helvetica,sans-Serif" font-size="10.00">core/Descriptor.h</text>
</a>
</g>
</g>
<!-- Node29&#45;&gt;Node30 -->
<g id="edge31_Node000029_Node000030" class="edge">
<title>Node29&#45;&gt;Node30</title>
<g id="a_edge31_Node000029_Node000030"><a xlink:title=" ">
<path fill="none" stroke="#63b8ff" d="M1204.52,-115.37C1193.51,-106.3 1175.96,-91.84 1162.59,-80.82"/>
<polygon fill="#63b8ff" stroke="#63b8ff" points="1164.46,-77.83 1154.52,-74.17 1160.01,-83.23 1164.46,-77.83"/>
</a>
</g>
</g>
<!-- Node31 -->
<g id="Node000031" class="node">
<title>Node31</title>
<g id="a_Node000031"><a xlink:href="_physical_socket_option_8h.html" target="_top" xlink:title=" ">
<polygon fill="white" stroke="#666666" points="1361.5,-74 1212.5,-74 1212.5,-55 1361.5,-55 1361.5,-74"/>
<text text-anchor="middle" x="1287" y="-62" font-family="Helvetica,sans-Serif" font-size="10.00">net/PhysicalSocketOption.h</text>
</a>
</g>
</g>
<!-- Node29&#45;&gt;Node31 -->
<g id="edge32_Node000029_Node000031" class="edge">
<title>Node29&#45;&gt;Node31</title>
<g id="a_edge32_Node000029_Node000031"><a xlink:title=" ">
<path fill="none" stroke="#63b8ff" d="M1225.62,-115.37C1236.9,-106.21 1254.92,-91.56 1268.53,-80.51"/>
<polygon fill="#63b8ff" stroke="#63b8ff" points="1270.78,-83.19 1276.33,-74.17 1266.36,-77.76 1270.78,-83.19"/>
</a>
</g>
</g>
<!-- Node33 -->
<g id="Node000033" class="node">
<title>Node33</title>
<g id="a_Node000033"><a xlink:href="net_2_socket_address_8h.html" target="_top" xlink:title=" ">
<polygon fill="white" stroke="#666666" points="1495,-74 1379,-74 1379,-55 1495,-55 1495,-74"/>
<text text-anchor="middle" x="1437" y="-62" font-family="Helvetica,sans-Serif" font-size="10.00">net/SocketAddress.h</text>
</a>
</g>
</g>
<!-- Node32&#45;&gt;Node33 -->
<g id="edge34_Node000032_Node000033" class="edge">
<title>Node32&#45;&gt;Node33</title>
<g id="a_edge34_Node000032_Node000033"><a xlink:title=" ">
<path fill="none" stroke="#63b8ff" d="M1403.75,-115.37C1409.46,-106.81 1418.35,-93.47 1425.51,-82.74"/>
<polygon fill="#63b8ff" stroke="#63b8ff" points="1428.59,-84.43 1431.22,-74.17 1422.76,-80.55 1428.59,-84.43"/>
</a>
</g>
</g>
<!-- Node34&#45;&gt;Node29 -->
<g id="edge36_Node000034_Node000029" class="edge">
<title>Node34&#45;&gt;Node29</title>
<g id="a_edge36_Node000034_Node000029"><a xlink:title=" ">
<path fill="none" stroke="#63b8ff" d="M1149.25,-181.37C1161.31,-171.21 1181.56,-154.16 1196.41,-141.65"/>
<polygon fill="#63b8ff" stroke="#63b8ff" points="1199.03,-144.02 1204.43,-134.91 1194.52,-138.67 1199.03,-144.02"/>
</a>
</g>
</g>
<!-- Node35&#45;&gt;Node34 -->
<g id="edge38_Node000035_Node000034" class="edge">
<title>Node35&#45;&gt;Node34</title>
<g id="a_edge38_Node000035_Node000034"><a xlink:title=" ">
<path fill="none" stroke="#63b8ff" d="M1131.22,-241.8C1132.64,-232.7 1134.5,-220.79 1136.05,-210.9"/>
<polygon fill="#63b8ff" stroke="#63b8ff" points="1139.53,-211.26 1137.62,-200.84 1132.62,-210.18 1139.53,-211.26"/>
</a>
</g>
</g>
<!-- Node37 -->
<g id="Node000037" class="node">
<title>Node37</title>
<g id="a_Node000037"><a xlink:href="in6_2stream_2config_2_config_socket_client_8h.html" target="_top" xlink:title=" ">
<polygon fill="white" stroke="#666666" points="1641.5,-338 1520.5,-338 1520.5,-308 1641.5,-308 1641.5,-338"/>
<text text-anchor="start" x="1528.5" y="-326" font-family="Helvetica,sans-Serif" font-size="10.00">net/in6/stream/config</text>
<text text-anchor="middle" x="1581" y="-315" font-family="Helvetica,sans-Serif" font-size="10.00">/ConfigSocketClient.h</text>
</a>
</g>
</g>
<!-- Node36&#45;&gt;Node37 -->
<g id="edge40_Node000036_Node000037" class="edge">
<title>Node36&#45;&gt;Node37</title>
<g id="a_edge40_Node000036_Node000037"><a xlink:title=" ">
<path fill="none" stroke="#63b8ff" d="M1581,-373.8C1581,-366.34 1581,-356.99 1581,-348.41"/>
<polygon fill="#63b8ff" stroke="#63b8ff" points="1584.5,-348.16 1581,-338.16 1577.5,-348.16 1584.5,-348.16"/>
</a>
</g>
</g>
<!-- Node47 -->
<g id="Node000047" class="node">
<title>Node47</title>
<g id="a_Node000047"><a xlink:href="stream_2config_2legacy_2_config_socket_client_8h.html" target="_top" xlink:title=" ">
<polygon fill="white" stroke="#666666" points="2077,-338 1939,-338 1939,-308 2077,-308 2077,-338"/>
<text text-anchor="start" x="1947" y="-326" font-family="Helvetica,sans-Serif" font-size="10.00">net/stream/config/legacy</text>
<text text-anchor="middle" x="2008" y="-315" font-family="Helvetica,sans-Serif" font-size="10.00">/ConfigSocketClient.h</text>
</a>
</g>
</g>
<!-- Node36&#45;&gt;Node47 -->
<g id="edge57_Node000036_Node000047" class="edge">
<title>Node36&#45;&gt;Node47</title>
<g id="a_edge57_Node000036_Node000047"><a xlink:title=" ">
<path fill="none" stroke="#63b8ff" d="M1658.33,-376.41C1734.8,-364.95 1851.29,-347.49 1928.51,-335.91"/>
<polygon fill="#63b8ff" stroke="#63b8ff" points="1929.29,-339.34 1938.67,-334.39 1928.26,-332.41 1929.29,-339.34"/>
</a>
</g>
</g>
<!-- Node38 -->
<g id="Node000038" class="node">
<title>Node38</title>
<g id="a_Node000038"><a xlink:href="in6_2config_2_config_address_8h.html" target="_top" xlink:title=" ">
<polygon fill="white" stroke="#666666" points="1579,-266.5 1413,-266.5 1413,-247.5 1579,-247.5 1579,-266.5"/>
<text text-anchor="middle" x="1496" y="-254.5" font-family="Helvetica,sans-Serif" font-size="10.00">net/in6/config/ConfigAddress.h</text>
</a>
</g>
</g>
<!-- Node37&#45;&gt;Node38 -->
<g id="edge41_Node000037_Node000038" class="edge">
<title>Node37&#45;&gt;Node38</title>
<g id="a_edge41_Node000037_Node000038"><a xlink:title=" ">
<path fill="none" stroke="#63b8ff" d="M1562.14,-307.8C1548.36,-297.43 1529.74,-283.4 1515.76,-272.88"/>
<polygon fill="#63b8ff" stroke="#63b8ff" points="1517.84,-270.06 1507.75,-266.84 1513.63,-275.66 1517.84,-270.06"/>
</a>
</g>
</g>
<!-- Node43 -->
<g id="Node000043" class="node">
<title>Node43</title>
<g id="a_Node000043"><a xlink:href="stream_2config_2_config_socket_client_8h.html" target="_top" xlink:title=" ">
<polygon fill="white" stroke="#666666" points="1734.5,-272 1597.5,-272 1597.5,-242 1734.5,-242 1734.5,-272"/>
<text text-anchor="start" x="1605.5" y="-260" font-family="Helvetica,sans-Serif" font-size="10.00">net/stream/config/Config</text>
<text text-anchor="middle" x="1666" y="-249" font-family="Helvetica,sans-Serif" font-size="10.00">SocketClient.h</text>
</a>
</g>
</g>
<!-- Node37&#45;&gt;Node43 -->
<g id="edge48_Node000037_Node000043" class="edge">
<title>Node37&#45;&gt;Node43</title>
<g id="a_edge48_Node000037_Node000043"><a xlink:title=" ">
<path fill="none" stroke="#63b8ff" d="M1599.86,-307.8C1611.42,-299.1 1626.39,-287.82 1639.17,-278.2"/>
<polygon fill="#63b8ff" stroke="#63b8ff" points="1641.31,-280.98 1647.19,-272.16 1637.09,-275.38 1641.31,-280.98"/>
</a>
</g>
</g>
<!-- Node38&#45;&gt;Node32 -->
<g id="edge47_Node000038_Node000032" class="edge">
<title>Node38&#45;&gt;Node32</title>
<g id="a_edge47_Node000038_Node000032"><a xlink:title=" ">
<path fill="none" stroke="#63b8ff" d="M1474.2,-247.46C1456.44,-239.39 1432.08,-225.6 1418,-206 1404.91,-187.78 1400.35,-161.9 1398.79,-144.55"/>
<polygon fill="#63b8ff" stroke="#63b8ff" points="1402.28,-144.31 1398.13,-134.56 1395.29,-144.77 1402.28,-144.31"/>
</a>
</g>
</g>
<!-- Node39 -->
<g id="Node000039" class="node">
<title>Node39</title>
<g id="a_Node000039"><a xlink:href="_config_address_local_8h.html" target="_top" xlink:title=" ">
<polygon fill="white" stroke="#666666" points="1722.5,-206 1583.5,-206 1583.5,-176 1722.5,-176 1722.5,-206"/>
<text text-anchor="start" x="1591.5" y="-194" font-family="Helvetica,sans-Serif" font-size="10.00">net/config/ConfigAddress</text>
<text text-anchor="middle" x="1653" y="-183" font-family="Helvetica,sans-Serif" font-size="10.00">Local.h</text>
</a>
</g>
</g>
<!-- Node38&#45;&gt;Node39 -->
<g id="edge42_Node000038_Node000039" class="edge">
<title>Node38&#45;&gt;Node39</title>
<g id="a_edge42_Node000038_Node000039"><a xlink:title=" ">
<path fill="none" stroke="#63b8ff" d="M1517.17,-247.37C1540.59,-237.82 1578.96,-222.18 1608.96,-209.95"/>
<polygon fill="#63b8ff" stroke="#63b8ff" points="1610.43,-213.13 1618.37,-206.12 1607.79,-206.65 1610.43,-213.13"/>
</a>
</g>
</g>
<!-- Node42 -->
<g id="Node000042" class="node">
<title>Node42</title>
<g id="a_Node000042"><a xlink:href="_config_address_remote_8h.html" target="_top" xlink:title=" ">
<polygon fill="white" stroke="#666666" points="1565.5,-206 1426.5,-206 1426.5,-176 1565.5,-176 1565.5,-206"/>
<text text-anchor="start" x="1434.5" y="-194" font-family="Helvetica,sans-Serif" font-size="10.00">net/config/ConfigAddress</text>
<text text-anchor="middle" x="1496" y="-183" font-family="Helvetica,sans-Serif" font-size="10.00">Remote.h</text>
</a>
</g>
</g>
<!-- Node38&#45;&gt;Node42 -->
<g id="edge45_Node000038_Node000042" class="edge">
<title>Node38&#45;&gt;Node42</title>
<g id="a_edge45_Node000038_Node000042"><a xlink:title=" ">
<path fill="none" stroke="#63b8ff" d="M1496,-247.37C1496,-239.49 1496,-227.45 1496,-216.6"/>
<polygon fill="#63b8ff" stroke="#63b8ff" points="1499.5,-216.36 1496,-206.36 1492.5,-216.36 1499.5,-216.36"/>
</a>
</g>
</g>
<!-- Node40 -->
<g id="Node000040" class="node">
<title>Node40</title>
<g id="a_Node000040"><a xlink:href="config_2_config_address_8h.html" target="_top" xlink:title=" ">
<polygon fill="white" stroke="#666666" points="1641,-134.5 1493,-134.5 1493,-115.5 1641,-115.5 1641,-134.5"/>
<text text-anchor="middle" x="1567" y="-122.5" font-family="Helvetica,sans-Serif" font-size="10.00">net/config/ConfigAddress.h</text>
</a>
</g>
</g>
<!-- Node39&#45;&gt;Node40 -->
<g id="edge43_Node000039_Node000040" class="edge">
<title>Node39&#45;&gt;Node40</title>
<g id="a_edge43_Node000039_Node000040"><a xlink:title=" ">
<path fill="none" stroke="#63b8ff" d="M1633.91,-175.8C1619.98,-165.43 1601.14,-151.4 1587,-140.88"/>
<polygon fill="#63b8ff" stroke="#63b8ff" points="1589,-138.01 1578.88,-134.84 1584.82,-143.62 1589,-138.01"/>
</a>
</g>
</g>
<!-- Node41 -->
<g id="Node000041" class="node">
<title>Node41</title>
<g id="a_Node000041"><a xlink:href="_config_section_8h.html" target="_top" xlink:title=" ">
<polygon fill="white" stroke="#666666" points="1886.5,-74 1741.5,-74 1741.5,-55 1886.5,-55 1886.5,-74"/>
<text text-anchor="middle" x="1814" y="-62" font-family="Helvetica,sans-Serif" font-size="10.00">net/config/ConfigSection.h</text>
</a>
</g>
</g>
<!-- Node40&#45;&gt;Node41 -->
<g id="edge44_Node000040_Node000041" class="edge">
<title>Node40&#45;&gt;Node41</title>
<g id="a_edge44_Node000040_Node000041"><a xlink:title=" ">
<path fill="none" stroke="#63b8ff" d="M1602.92,-115.49C1646.64,-105.14 1720.53,-87.64 1768.27,-76.33"/>
<polygon fill="#63b8ff" stroke="#63b8ff" points="1769.12,-79.73 1778.04,-74.02 1767.5,-72.92 1769.12,-79.73"/>
</a>
</g>
</g>
<!-- Node42&#45;&gt;Node40 -->
<g id="edge46_Node000042_Node000040" class="edge">
<title>Node42&#45;&gt;Node40</title>
<g id="a_edge46_Node000042_Node000040"><a xlink:title=" ">
<path fill="none" stroke="#63b8ff" d="M1511.76,-175.8C1522.93,-165.72 1537.94,-152.19 1549.49,-141.78"/>
<polygon fill="#63b8ff" stroke="#63b8ff" points="1552.1,-144.14 1557.19,-134.84 1547.42,-138.94 1552.1,-144.14"/>
</a>
</g>
</g>
<!-- Node43&#45;&gt;Node39 -->
<g id="edge49_Node000043_Node000039" class="edge">
<title>Node43&#45;&gt;Node39</title>
<g id="a_edge49_Node000043_Node000039"><a xlink:title=" ">
<path fill="none" stroke="#63b8ff" d="M1663.11,-241.8C1661.58,-234.26 1659.66,-224.78 1657.9,-216.13"/>
<polygon fill="#63b8ff" stroke="#63b8ff" points="1661.3,-215.27 1655.88,-206.16 1654.44,-216.66 1661.3,-215.27"/>
</a>
</g>
</g>
<!-- Node43&#45;&gt;Node42 -->
<g id="edge50_Node000043_Node000042" class="edge">
<title>Node43&#45;&gt;Node42</title>
<g id="a_edge50_Node000043_Node000042"><a xlink:title=" ">
<path fill="none" stroke="#63b8ff" d="M1628.69,-241.95C1603.45,-232.45 1569.91,-219.82 1542.86,-209.64"/>
<polygon fill="#63b8ff" stroke="#63b8ff" points="1543.81,-206.26 1533.22,-206.01 1541.35,-212.81 1543.81,-206.26"/>
</a>
</g>
</g>
<!-- Node44 -->
<g id="Node000044" class="node">
<title>Node44</title>
<g id="a_Node000044"><a xlink:href="_config_connection_8h.html" target="_top" xlink:title=" ">
<polygon fill="white" stroke="#666666" points="1981,-134.5 1817,-134.5 1817,-115.5 1981,-115.5 1981,-134.5"/>
<text text-anchor="middle" x="1899" y="-122.5" font-family="Helvetica,sans-Serif" font-size="10.00">net/config/ConfigConnection.h</text>
</a>
</g>
</g>
<!-- Node43&#45;&gt;Node44 -->
<g id="edge51_Node000043_Node000044" class="edge">
<title>Node43&#45;&gt;Node44</title>
<g id="a_edge51_Node000043_Node000044"><a xlink:title=" ">
<path fill="none" stroke="#63b8ff" d="M1734.58,-249.39C1792.61,-242.29 1869.5,-228.83 1890,-206 1904.78,-189.54 1904.72,-162.86 1902.53,-144.89"/>
<polygon fill="#63b8ff" stroke="#63b8ff" points="1905.95,-144.1 1900.96,-134.76 1899.03,-145.17 1905.95,-144.1"/>
</a>
</g>
</g>
<!-- Node45 -->
<g id="Node000045" class="node">
<title>Node45</title>
<g id="a_Node000045"><a xlink:href="_config_physical_socket_client_8h.html" target="_top" xlink:title=" ">
<polygon fill="white" stroke="#666666" points="1881,-206 1741,-206 1741,-176 1881,-176 1881,-206"/>
<text text-anchor="start" x="1749" y="-194" font-family="Helvetica,sans-Serif" font-size="10.00">net/config/ConfigPhysical</text>
<text text-anchor="middle" x="1811" y="-183" font-family="Helvetica,sans-Serif" font-size="10.00">SocketClient.h</text>
</a>
</g>
</g>
<!-- Node43&#45;&gt;Node45 -->
<g id="edge53_Node000043_Node000045" class="edge">
<title>Node43&#45;&gt;Node45</title>
<g id="a_edge53_Node000043_Node000045"><a xlink:title=" ">
<path fill="none" stroke="#63b8ff" d="M1697.82,-241.95C1718.97,-232.62 1746.96,-220.27 1769.81,-210.18"/>
<polygon fill="#63b8ff" stroke="#63b8ff" points="1771.52,-213.25 1779.25,-206.01 1768.69,-206.85 1771.52,-213.25"/>
</a>
</g>
</g>
<!-- Node44&#45;&gt;Node41 -->
<g id="edge52_Node000044_Node000041" class="edge">
<title>Node44&#45;&gt;Node41</title>
<g id="a_edge52_Node000044_Node000041"><a xlink:title=" ">
<path fill="none" stroke="#63b8ff" d="M1886.46,-115.37C1872.9,-106.04 1851.06,-91.01 1834.9,-79.88"/>
<polygon fill="#63b8ff" stroke="#63b8ff" points="1836.82,-76.95 1826.59,-74.17 1832.85,-82.72 1836.82,-76.95"/>
</a>
</g>
</g>
<!-- Node46 -->
<g id="Node000046" class="node">
<title>Node46</title>
<g id="a_Node000046"><a xlink:href="_config_physical_socket_8h.html" target="_top" xlink:title=" ">
<polygon fill="white" stroke="#666666" points="1799,-140 1659,-140 1659,-110 1799,-110 1799,-140"/>
<text text-anchor="start" x="1667" y="-128" font-family="Helvetica,sans-Serif" font-size="10.00">net/config/ConfigPhysical</text>
<text text-anchor="middle" x="1729" y="-117" font-family="Helvetica,sans-Serif" font-size="10.00">Socket.h</text>
</a>
</g>
</g>
<!-- Node45&#45;&gt;Node46 -->
<g id="edge54_Node000045_Node000046" class="edge">
<title>Node45&#45;&gt;Node46</title>
<g id="a_edge54_Node000045_Node000046"><a xlink:title=" ">
<path fill="none" stroke="#63b8ff" d="M1792.8,-175.8C1781.76,-167.18 1767.49,-156.04 1755.24,-146.48"/>
<polygon fill="#63b8ff" stroke="#63b8ff" points="1757.18,-143.56 1747.15,-140.16 1752.88,-149.08 1757.18,-143.56"/>
</a>
</g>
</g>
<!-- Node46&#45;&gt;Node31 -->
<g id="edge55_Node000046_Node000031" class="edge">
<title>Node46&#45;&gt;Node31</title>
<g id="a_edge55_Node000046_Node000031"><a xlink:title=" ">
<path fill="none" stroke="#63b8ff" d="M1658.82,-111.36C1655.84,-110.89 1652.89,-110.43 1650,-110 1554.95,-95.76 1445.38,-82.8 1371.7,-74.59"/>
<polygon fill="#63b8ff" stroke="#63b8ff" points="1371.87,-71.09 1361.55,-73.46 1371.1,-78.04 1371.87,-71.09"/>
</a>
</g>
</g>
<!-- Node46&#45;&gt;Node41 -->
<g id="edge56_Node000046_Node000041" class="edge">
<title>Node46&#45;&gt;Node41</title>
<g id="a_edge56_Node000046_Node000041"><a xlink:title=" ">
<path fill="none" stroke="#63b8ff" d="M1749.58,-109.84C1762.67,-100.83 1779.59,-89.18 1792.8,-80.09"/>
<polygon fill="#63b8ff" stroke="#63b8ff" points="1795.01,-82.82 1801.26,-74.27 1791.04,-77.05 1795.01,-82.82"/>
</a>
</g>
</g>
<!-- Node48 -->
<g id="Node000048" class="node">
<title>Node48</title>
<g id="a_Node000048"><a xlink:href="_config_instance_8h.html" target="_top" xlink:title=" ">
<polygon fill="white" stroke="#666666" points="2186,-266.5 2036,-266.5 2036,-247.5 2186,-247.5 2186,-266.5"/>
<text text-anchor="middle" x="2111" y="-254.5" font-family="Helvetica,sans-Serif" font-size="10.00">net/config/ConfigInstance.h</text>
</a>
</g>
</g>
<!-- Node47&#45;&gt;Node48 -->
<g id="edge58_Node000047_Node000048" class="edge">
<title>Node47&#45;&gt;Node48</title>
<g id="a_edge58_Node000047_Node000048"><a xlink:title=" ">
<path fill="none" stroke="#63b8ff" d="M2030.6,-307.95C2047.79,-297.27 2071.33,-282.65 2088.49,-271.98"/>
<polygon fill="#63b8ff" stroke="#63b8ff" points="2090.65,-274.77 2097.29,-266.52 2086.95,-268.82 2090.65,-274.77"/>
</a>
</g>
</g>
<!-- Node49 -->
<g id="Node000049" class="node">
<title>Node49</title>
<g id="a_Node000049"><a xlink:href="_config_legacy_8h.html" target="_top" xlink:title=" ">
<polygon fill="white" stroke="#666666" points="2141,-134.5 1999,-134.5 1999,-115.5 2141,-115.5 2141,-134.5"/>
<text text-anchor="middle" x="2070" y="-122.5" font-family="Helvetica,sans-Serif" font-size="10.00">net/config/ConfigLegacy.h</text>
</a>
</g>
</g>
<!-- Node47&#45;&gt;Node49 -->
<g id="edge59_Node000047_Node000049" class="edge">
<title>Node47&#45;&gt;Node49</title>
<g id="a_edge59_Node000047_Node000049"><a xlink:title=" ">
<path fill="none" stroke="#63b8ff" d="M2010.79,-307.99C2014.11,-291.91 2020.09,-264.82 2027,-242 2037.7,-206.69 2053.4,-166.53 2062.57,-143.93"/>
<polygon fill="#63b8ff" stroke="#63b8ff" points="2065.84,-145.19 2066.4,-134.61 2059.37,-142.53 2065.84,-145.19"/>
</a>
</g>
</g>
<!-- Node49&#45;&gt;Node41 -->
<g id="edge60_Node000049_Node000041" class="edge">
<title>Node49&#45;&gt;Node41</title>
<g id="a_edge60_Node000049_Node000041"><a xlink:title=" ">
<path fill="none" stroke="#63b8ff" d="M2032.78,-115.49C1987.37,-105.12 1910.56,-87.57 1861.09,-76.26"/>
<polygon fill="#63b8ff" stroke="#63b8ff" points="1861.8,-72.83 1851.27,-74.02 1860.24,-79.66 1861.8,-72.83"/>
</a>
</g>
</g>
</g>
</svg>
