<?xml version="1.0" encoding="UTF-8" standalone="no"?>
<!DOCTYPE svg PUBLIC "-//W3C//DTD SVG 1.1//EN"
 "http://www.w3.org/Graphics/SVG/1.1/DTD/svg11.dtd">
<!-- Generated by graphviz version 14.1.1 (0)
 -->
<!-- Title: net/rc/stream/tls/SocketClient.h Pages: 1 -->
<svg width="300pt" height="168pt"
 viewBox="0.00 0.00 300.00 168.00" xmlns="http://www.w3.org/2000/svg" xmlns:xlink="http://www.w3.org/1999/xlink">
<g id="graph0" class="graph" transform="scale(1 1) rotate(0) translate(4 163.75)">
<title>net/rc/stream/tls/SocketClient.h</title>
<!-- Node1 -->
<g id="Node000001" class="node">
<title>Node1</title>
<g id="a_Node000001"><a xlink:title=" ">
<polygon fill="#999999" stroke="#666666" points="204.5,-159.75 73,-159.75 73,-126.25 204.5,-126.25 204.5,-159.75"/>
<text xml:space="preserve" text-anchor="start" x="81" y="-146.25" font-family="Helvetica,sans-Serif" font-size="10.00">net/rc/stream/tls/Socket</text>
<text xml:space="preserve" text-anchor="middle" x="138.75" y="-133.5" font-family="Helvetica,sans-Serif" font-size="10.00">Client.h</text>
</a>
</g>
</g>
<!-- Node2 -->
<g id="Node000002" class="node">
<title>Node2</title>
<g id="a_Node000002"><a xlink:href="rc_2stream_2tls_2SocketClient_8cpp.html" target="_top" xlink:title=" ">
<polygon fill="white" stroke="#666666" points="131.5,-90.25 0,-90.25 0,-56.75 131.5,-56.75 131.5,-90.25"/>
<text xml:space="preserve" text-anchor="start" x="8" y="-76.75" font-family="Helvetica,sans-Serif" font-size="10.00">net/rc/stream/tls/Socket</text>
<text xml:space="preserve" text-anchor="middle" x="65.75" y="-64" font-family="Helvetica,sans-Serif" font-size="10.00">Client.cpp</text>
</a>
</g>
</g>
<!-- Node1&#45;&gt;Node2 -->
<g id="edge1_Node000001_Node000002" class="edge">
<title>Node1&#45;&gt;Node2</title>
<g id="a_edge1_Node000001_Node000002"><a xlink:title=" ">
<path fill="none" stroke="#63b8ff" d="M113.13,-118.31C103.22,-109.15 92.13,-98.9 83.18,-90.62"/>
<polygon fill="#63b8ff" stroke="#63b8ff" points="110.62,-120.76 120.34,-124.98 115.37,-115.62 110.62,-120.76"/>
</a>
</g>
</g>
<!-- Node3 -->
<g id="Node000003" class="node">
<title>Node3</title>
<g id="a_Node000003"><a xlink:href="tls_2rc_2Client_8h.html" target="_top" xlink:title=" ">
<polygon fill="white" stroke="#666666" points="275.88,-83.88 149.62,-83.88 149.62,-63.12 275.88,-63.12 275.88,-83.88"/>
<text xml:space="preserve" text-anchor="middle" x="212.75" y="-70.38" font-family="Helvetica,sans-Serif" font-size="10.00">web/http/tls/rc/Client.h</text>
</a>
</g>
</g>
<!-- Node1&#45;&gt;Node3 -->
<g id="edge2_Node000001_Node000003" class="edge">
<title>Node1&#45;&gt;Node3</title>
<g id="a_edge2_Node000001_Node000003"><a xlink:title=" ">
<path fill="none" stroke="#63b8ff" d="M164.75,-118.29C177.53,-106.62 192.25,-93.2 201.98,-84.32"/>
<polygon fill="#63b8ff" stroke="#63b8ff" points="162.43,-115.66 157.41,-124.98 167.15,-120.83 162.43,-115.66"/>
</a>
</g>
</g>
<!-- Node4 -->
<g id="Node000004" class="node">
<title>Node4</title>
<g id="a_Node000004"><a xlink:href="tls_2rc_2EventSource_8h.html" target="_top" xlink:title=" ">
<polygon fill="white" stroke="#666666" points="292,-20.75 133.5,-20.75 133.5,0 292,0 292,-20.75"/>
<text xml:space="preserve" text-anchor="middle" x="212.75" y="-7.25" font-family="Helvetica,sans-Serif" font-size="10.00">web/http/tls/rc/EventSource.h</text>
</a>
</g>
</g>
<!-- Node3&#45;&gt;Node4 -->
<g id="edge3_Node000003_Node000004" class="edge">
<title>Node3&#45;&gt;Node4</title>
<g id="a_edge3_Node000003_Node000004"><a xlink:title=" ">
<path fill="none" stroke="#63b8ff" d="M212.75,-51.24C212.75,-40.93 212.75,-29.06 212.75,-20.97"/>
<polygon fill="#63b8ff" stroke="#63b8ff" points="209.25,-51.17 212.75,-61.17 216.25,-51.17 209.25,-51.17"/>
</a>
</g>
</g>
</g>
</svg>
