<?xml version="1.0" encoding="UTF-8" standalone="no"?>
<!DOCTYPE svg PUBLIC "-//W3C//DTD SVG 1.1//EN"
 "http://www.w3.org/Graphics/SVG/1.1/DTD/svg11.dtd">
<!-- Generated by graphviz version 14.1.2 (0)
 -->
<!-- Title: core/pipe/Pipe.cpp Pages: 1 -->
<svg width="382pt" height="325pt"
 viewBox="0.00 0.00 382.00 325.00" xmlns="http://www.w3.org/2000/svg" xmlns:xlink="http://www.w3.org/1999/xlink">

<svg id="main" version="1.1" xmlns="http://www.w3.org/2000/svg" xmlns:xlink="http://www.w3.org/1999/xlink" xml:space="preserve">

<style type="text/css"><![CDATA[
.node, .edge {opacity: 0.7;}
.node.selected, .edge.selected {opacity: 1;}
.edge:hover path { stroke: red; }
.edge:hover polygon { stroke: red; fill: red; }
]]></style>
<script type="application/ecmascript" xlink:href="svg.min.js"/>
<svg id="graph" class="graph">
<g id="graph0" class="graph" transform="scale(1 1) rotate(0) translate(4 321.25)">
<title>core/pipe/Pipe.cpp</title>
<!-- Node1 -->
<g id="Node000001" class="node">
<title>Node1</title>
<g id="a_Node000001"><a xlink:title=" ">
<polygon fill="#999999" stroke="#666666" points="222.62,-317.25 117.38,-317.25 117.38,-296.5 222.62,-296.5 222.62,-317.25"/>
<text xml:space="preserve" text-anchor="middle" x="170" y="-303.75" font-family="Helvetica,sans-Serif" font-size="10.00">core/pipe/Pipe.cpp</text>
</a>
</g>
</g>
<!-- Node2 -->
<g id="Node000002" class="node">
<title>Node2</title>
<g id="a_Node000002"><a xlink:href="Pipe_8h.html" target="_top" xlink:title=" ">
<polygon fill="white" stroke="#666666" points="94,-260.5 0,-260.5 0,-239.75 94,-239.75 94,-260.5"/>
<text xml:space="preserve" text-anchor="middle" x="47" y="-247" font-family="Helvetica,sans-Serif" font-size="10.00">core/pipe/Pipe.h</text>
</a>
</g>
</g>
<!-- Node1&#45;&gt;Node2 -->
<g id="edge1_Node000001_Node000002" class="edge">
<title>Node1&#45;&gt;Node2</title>
<g id="a_edge1_Node000001_Node000002"><a xlink:title=" ">
<path fill="none" stroke="#63b8ff" d="M148.01,-296.09C128.86,-287.56 100.84,-275.09 79.17,-265.44"/>
<polygon fill="#63b8ff" stroke="#63b8ff" points="80.74,-262.31 70.18,-261.44 77.89,-268.71 80.74,-262.31"/>
</a>
</g>
</g>
<!-- Node3 -->
<g id="Node000003" class="node">
<title>Node3</title>
<g id="a_Node000003"><a xlink:href="PipeSink_8h.html" target="_top" xlink:title=" ">
<polygon fill="white" stroke="#666666" points="227.5,-260.5 112.5,-260.5 112.5,-239.75 227.5,-239.75 227.5,-260.5"/>
<text xml:space="preserve" text-anchor="middle" x="170" y="-247" font-family="Helvetica,sans-Serif" font-size="10.00">core/pipe/PipeSink.h</text>
</a>
</g>
</g>
<!-- Node1&#45;&gt;Node3 -->
<g id="edge2_Node000001_Node000003" class="edge">
<title>Node1&#45;&gt;Node3</title>
<g id="a_edge2_Node000001_Node000003"><a xlink:title=" ">
<path fill="none" stroke="#63b8ff" d="M170,-296.09C170,-289.47 170,-280.47 170,-272.27"/>
<polygon fill="#63b8ff" stroke="#63b8ff" points="173.5,-272.34 170,-262.34 166.5,-272.34 173.5,-272.34"/>
</a>
</g>
</g>
<!-- Node8 -->
<g id="Node000008" class="node">
<title>Node8</title>
<g id="a_Node000008"><a xlink:href="PipeSource_8h.html" target="_top" xlink:title=" ">
<polygon fill="white" stroke="#666666" points="373.5,-260.5 246.5,-260.5 246.5,-239.75 373.5,-239.75 373.5,-260.5"/>
<text xml:space="preserve" text-anchor="middle" x="310" y="-247" font-family="Helvetica,sans-Serif" font-size="10.00">core/pipe/PipeSource.h</text>
</a>
</g>
</g>
<!-- Node1&#45;&gt;Node8 -->
<g id="edge7_Node000001_Node000008" class="edge">
<title>Node1&#45;&gt;Node8</title>
<g id="a_edge7_Node000001_Node000008"><a xlink:title=" ">
<path fill="none" stroke="#63b8ff" d="M195.03,-296.09C217.23,-287.41 249.89,-274.63 274.73,-264.92"/>
<polygon fill="#63b8ff" stroke="#63b8ff" points="275.74,-268.28 283.78,-261.38 273.19,-261.76 275.74,-268.28"/>
</a>
</g>
</g>
<!-- Node4 -->
<g id="Node000004" class="node">
<title>Node4</title>
<g id="a_Node000004"><a xlink:href="ReadEventReceiver_8h.html" target="_top" xlink:title=" ">
<polygon fill="white" stroke="#666666" points="230.62,-203.75 107.38,-203.75 107.38,-170.25 230.62,-170.25 230.62,-203.75"/>
<text xml:space="preserve" text-anchor="start" x="115.38" y="-190.25" font-family="Helvetica,sans-Serif" font-size="10.00">core/eventreceiver</text>
<text xml:space="preserve" text-anchor="middle" x="169" y="-177.5" font-family="Helvetica,sans-Serif" font-size="10.00">/ReadEventReceiver.h</text>
</a>
</g>
</g>
<!-- Node3&#45;&gt;Node4 -->
<g id="edge3_Node000003_Node000004" class="edge">
<title>Node3&#45;&gt;Node4</title>
<g id="a_edge3_Node000003_Node000004"><a xlink:title=" ">
<path fill="none" stroke="#63b8ff" d="M169.84,-239.3C169.73,-232.88 169.59,-224.15 169.45,-215.7"/>
<polygon fill="#63b8ff" stroke="#63b8ff" points="172.95,-215.69 169.29,-205.75 165.95,-215.8 172.95,-215.69"/>
</a>
</g>
</g>
<!-- Node5 -->
<g id="Node000005" class="node">
<title>Node5</title>
<g id="a_Node000005"><a xlink:href="DescriptorEventReceiver_8h.html" target="_top" xlink:title=" ">
<polygon fill="white" stroke="#666666" points="324.88,-134.25 155.12,-134.25 155.12,-113.5 324.88,-113.5 324.88,-134.25"/>
<text xml:space="preserve" text-anchor="middle" x="240" y="-120.75" font-family="Helvetica,sans-Serif" font-size="10.00">core/DescriptorEventReceiver.h</text>
</a>
</g>
</g>
<!-- Node4&#45;&gt;Node5 -->
<g id="edge4_Node000004_Node000005" class="edge">
<title>Node4&#45;&gt;Node5</title>
<g id="a_edge4_Node000004_Node000005"><a xlink:title=" ">
<path fill="none" stroke="#63b8ff" d="M187.65,-169.94C197.59,-161.38 209.83,-150.85 219.97,-142.12"/>
<polygon fill="#63b8ff" stroke="#63b8ff" points="222.13,-144.88 227.42,-135.7 217.56,-139.58 222.13,-144.88"/>
</a>
</g>
</g>
<!-- Node6 -->
<g id="Node000006" class="node">
<title>Node6</title>
<g id="a_Node000006"><a xlink:href="EventReceiver_8h.html" target="_top" xlink:title=" ">
<polygon fill="white" stroke="#666666" points="299.75,-77.5 180.25,-77.5 180.25,-56.75 299.75,-56.75 299.75,-77.5"/>
<text xml:space="preserve" text-anchor="middle" x="240" y="-64" font-family="Helvetica,sans-Serif" font-size="10.00">core/EventReceiver.h</text>
</a>
</g>
</g>
<!-- Node5&#45;&gt;Node6 -->
<g id="edge5_Node000005_Node000006" class="edge">
<title>Node5&#45;&gt;Node6</title>
<g id="a_edge5_Node000005_Node000006"><a xlink:title=" ">
<path fill="none" stroke="#63b8ff" d="M240,-113.09C240,-106.47 240,-97.47 240,-89.27"/>
<polygon fill="#63b8ff" stroke="#63b8ff" points="243.5,-89.34 240,-79.34 236.5,-89.34 243.5,-89.34"/>
</a>
</g>
</g>
<!-- Node7 -->
<g id="Node000007" class="node">
<title>Node7</title>
<g id="a_Node000007"><a xlink:href="Event_8h.html" target="_top" xlink:title=" ">
<polygon fill="white" stroke="#666666" points="278.38,-20.75 201.62,-20.75 201.62,0 278.38,0 278.38,-20.75"/>
<text xml:space="preserve" text-anchor="middle" x="240" y="-7.25" font-family="Helvetica,sans-Serif" font-size="10.00">core/Event.h</text>
</a>
</g>
</g>
<!-- Node6&#45;&gt;Node7 -->
<g id="edge6_Node000006_Node000007" class="edge">
<title>Node6&#45;&gt;Node7</title>
<g id="a_edge6_Node000006_Node000007"><a xlink:title=" ">
<path fill="none" stroke="#63b8ff" d="M240,-56.34C240,-49.72 240,-40.72 240,-32.52"/>
<polygon fill="#63b8ff" stroke="#63b8ff" points="243.5,-32.59 240,-22.59 236.5,-32.59 243.5,-32.59"/>
</a>
</g>
</g>
<!-- Node9 -->
<g id="Node000009" class="node">
<title>Node9</title>
<g id="a_Node000009"><a xlink:href="WriteEventReceiver_8h.html" target="_top" xlink:title=" ">
<polygon fill="white" stroke="#666666" points="373.38,-203.75 248.62,-203.75 248.62,-170.25 373.38,-170.25 373.38,-203.75"/>
<text xml:space="preserve" text-anchor="start" x="256.62" y="-190.25" font-family="Helvetica,sans-Serif" font-size="10.00">core/eventreceiver</text>
<text xml:space="preserve" text-anchor="middle" x="311" y="-177.5" font-family="Helvetica,sans-Serif" font-size="10.00">/WriteEventReceiver.h</text>
</a>
</g>
</g>
<!-- Node8&#45;&gt;Node9 -->
<g id="edge8_Node000008_Node000009" class="edge">
<title>Node8&#45;&gt;Node9</title>
<g id="a_edge8_Node000008_Node000009"><a xlink:title=" ">
<path fill="none" stroke="#63b8ff" d="M310.16,-239.3C310.27,-232.88 310.41,-224.15 310.55,-215.7"/>
<polygon fill="#63b8ff" stroke="#63b8ff" points="314.05,-215.8 310.71,-205.75 307.05,-215.69 314.05,-215.8"/>
</a>
</g>
</g>
<!-- Node9&#45;&gt;Node5 -->
<g id="edge9_Node000009_Node000005" class="edge">
<title>Node9&#45;&gt;Node5</title>
<g id="a_edge9_Node000009_Node000005"><a xlink:title=" ">
<path fill="none" stroke="#63b8ff" d="M292.35,-169.94C282.41,-161.38 270.17,-150.85 260.03,-142.12"/>
<polygon fill="#63b8ff" stroke="#63b8ff" points="262.44,-139.58 252.58,-135.7 257.87,-144.88 262.44,-139.58"/>
</a>
</g>
</g>
</g>
</svg>
</svg>

<style type='text/css'>
<![CDATA[
[data-mouse-over-selected='false'] { opacity: 0.7; }
[data-mouse-over-selected='true']  { opacity: 1.0; }
]]>
</style>
<script type="application/ecmascript"><![CDATA[
document.addEventListener('DOMContentLoaded', (event) => {
  highlightEdges();
  highlightAdjacentNodes();
});
]]></script>
</svg>
