<?xml version="1.0" encoding="UTF-8" standalone="no"?>
<!DOCTYPE svg PUBLIC "-//W3C//DTD SVG 1.1//EN"
 "http://www.w3.org/Graphics/SVG/1.1/DTD/svg11.dtd">
<!-- Generated by graphviz version 14.1.2 (0)
 -->
<!-- Title: core/pipe/PipeSink.cpp Pages: 1 -->
<svg width="178pt" height="325pt"
 viewBox="0.00 0.00 178.00 325.00" xmlns="http://www.w3.org/2000/svg" xmlns:xlink="http://www.w3.org/1999/xlink">
<g id="graph0" class="graph" transform="scale(1 1) rotate(0) translate(4 321.25)">
<title>core/pipe/PipeSink.cpp</title>
<!-- Node1 -->
<g id="Node000001" class="node">
<title>Node1</title>
<g id="a_Node000001"><a xlink:title=" ">
<polygon fill="#999999" stroke="#666666" points="148,-317.25 21.75,-317.25 21.75,-296.5 148,-296.5 148,-317.25"/>
<text xml:space="preserve" text-anchor="middle" x="84.88" y="-303.75" font-family="Helvetica,sans-Serif" font-size="10.00">core/pipe/PipeSink.cpp</text>
</a>
</g>
</g>
<!-- Node2 -->
<g id="Node000002" class="node">
<title>Node2</title>
<g id="a_Node000002"><a xlink:href="PipeSink_8h.html" target="_top" xlink:title=" ">
<polygon fill="white" stroke="#666666" points="142.38,-260.5 27.38,-260.5 27.38,-239.75 142.38,-239.75 142.38,-260.5"/>
<text xml:space="preserve" text-anchor="middle" x="84.88" y="-247" font-family="Helvetica,sans-Serif" font-size="10.00">core/pipe/PipeSink.h</text>
</a>
</g>
</g>
<!-- Node1&#45;&gt;Node2 -->
<g id="edge1_Node000001_Node000002" class="edge">
<title>Node1&#45;&gt;Node2</title>
<g id="a_edge1_Node000001_Node000002"><a xlink:title=" ">
<path fill="none" stroke="#63b8ff" d="M84.88,-296.09C84.88,-289.47 84.88,-280.47 84.88,-272.27"/>
<polygon fill="#63b8ff" stroke="#63b8ff" points="88.38,-272.34 84.88,-262.34 81.38,-272.34 88.38,-272.34"/>
</a>
</g>
</g>
<!-- Node3 -->
<g id="Node000003" class="node">
<title>Node3</title>
<g id="a_Node000003"><a xlink:href="ReadEventReceiver_8h.html" target="_top" xlink:title=" ">
<polygon fill="white" stroke="#666666" points="146.5,-203.75 23.25,-203.75 23.25,-170.25 146.5,-170.25 146.5,-203.75"/>
<text xml:space="preserve" text-anchor="start" x="31.25" y="-190.25" font-family="Helvetica,sans-Serif" font-size="10.00">core/eventreceiver</text>
<text xml:space="preserve" text-anchor="middle" x="84.88" y="-177.5" font-family="Helvetica,sans-Serif" font-size="10.00">/ReadEventReceiver.h</text>
</a>
</g>
</g>
<!-- Node2&#45;&gt;Node3 -->
<g id="edge2_Node000002_Node000003" class="edge">
<title>Node2&#45;&gt;Node3</title>
<g id="a_edge2_Node000002_Node000003"><a xlink:title=" ">
<path fill="none" stroke="#63b8ff" d="M84.88,-239.3C84.88,-232.88 84.88,-224.15 84.88,-215.7"/>
<polygon fill="#63b8ff" stroke="#63b8ff" points="88.38,-215.75 84.88,-205.75 81.38,-215.75 88.38,-215.75"/>
</a>
</g>
</g>
<!-- Node4 -->
<g id="Node000004" class="node">
<title>Node4</title>
<g id="a_Node000004"><a xlink:href="DescriptorEventReceiver_8h.html" target="_top" xlink:title=" ">
<polygon fill="white" stroke="#666666" points="169.75,-134.25 0,-134.25 0,-113.5 169.75,-113.5 169.75,-134.25"/>
<text xml:space="preserve" text-anchor="middle" x="84.88" y="-120.75" font-family="Helvetica,sans-Serif" font-size="10.00">core/DescriptorEventReceiver.h</text>
</a>
</g>
</g>
<!-- Node3&#45;&gt;Node4 -->
<g id="edge3_Node000003_Node000004" class="edge">
<title>Node3&#45;&gt;Node4</title>
<g id="a_edge3_Node000003_Node000004"><a xlink:title=" ">
<path fill="none" stroke="#63b8ff" d="M84.88,-169.94C84.88,-162.6 84.88,-153.82 84.88,-145.96"/>
<polygon fill="#63b8ff" stroke="#63b8ff" points="88.38,-146.23 84.88,-136.23 81.38,-146.23 88.38,-146.23"/>
</a>
</g>
</g>
<!-- Node5 -->
<g id="Node000005" class="node">
<title>Node5</title>
<g id="a_Node000005"><a xlink:href="EventReceiver_8h.html" target="_top" xlink:title=" ">
<polygon fill="white" stroke="#666666" points="144.62,-77.5 25.12,-77.5 25.12,-56.75 144.62,-56.75 144.62,-77.5"/>
<text xml:space="preserve" text-anchor="middle" x="84.88" y="-64" font-family="Helvetica,sans-Serif" font-size="10.00">core/EventReceiver.h</text>
</a>
</g>
</g>
<!-- Node4&#45;&gt;Node5 -->
<g id="edge4_Node000004_Node000005" class="edge">
<title>Node4&#45;&gt;Node5</title>
<g id="a_edge4_Node000004_Node000005"><a xlink:title=" ">
<path fill="none" stroke="#63b8ff" d="M84.88,-113.09C84.88,-106.47 84.88,-97.47 84.88,-89.27"/>
<polygon fill="#63b8ff" stroke="#63b8ff" points="88.38,-89.34 84.88,-79.34 81.38,-89.34 88.38,-89.34"/>
</a>
</g>
</g>
<!-- Node6 -->
<g id="Node000006" class="node">
<title>Node6</title>
<g id="a_Node000006"><a xlink:href="Event_8h.html" target="_top" xlink:title=" ">
<polygon fill="white" stroke="#666666" points="123.25,-20.75 46.5,-20.75 46.5,0 123.25,0 123.25,-20.75"/>
<text xml:space="preserve" text-anchor="middle" x="84.88" y="-7.25" font-family="Helvetica,sans-Serif" font-size="10.00">core/Event.h</text>
</a>
</g>
</g>
<!-- Node5&#45;&gt;Node6 -->
<g id="edge5_Node000005_Node000006" class="edge">
<title>Node5&#45;&gt;Node6</title>
<g id="a_edge5_Node000005_Node000006"><a xlink:title=" ">
<path fill="none" stroke="#63b8ff" d="M84.88,-56.34C84.88,-49.72 84.88,-40.72 84.88,-32.52"/>
<polygon fill="#63b8ff" stroke="#63b8ff" points="88.38,-32.59 84.88,-22.59 81.38,-32.59 88.38,-32.59"/>
</a>
</g>
</g>
</g>
</svg>
