<?xml version="1.0" encoding="UTF-8" standalone="no"?>
<!DOCTYPE svg PUBLIC "-//W3C//DTD SVG 1.1//EN"
 "http://www.w3.org/Graphics/SVG/1.1/DTD/svg11.dtd">
<!-- Generated by graphviz version 2.42.4 (0)
 -->
<!-- Title: net/rc/phy/stream/PhysicalSocket.cpp Pages: 1 -->
<svg width="452pt" height="269pt"
 viewBox="0.00 0.00 452.00 269.00" xmlns="http://www.w3.org/2000/svg" xmlns:xlink="http://www.w3.org/1999/xlink">
<g id="graph0" class="graph" transform="scale(1 1) rotate(0) translate(4 265)">
<title>net/rc/phy/stream/PhysicalSocket.cpp</title>
<!-- Node1 -->
<g id="Node000001" class="node">
<title>Node1</title>
<g id="a_Node000001"><a xlink:title=" ">
<polygon fill="#999999" stroke="#666666" points="349,-261 203,-261 203,-231 349,-231 349,-261"/>
<text text-anchor="start" x="211" y="-249" font-family="Helvetica,sans-Serif" font-size="10.00">net/rc/phy/stream/Physical</text>
<text text-anchor="middle" x="276" y="-238" font-family="Helvetica,sans-Serif" font-size="10.00">Socket.cpp</text>
</a>
</g>
</g>
<!-- Node2 -->
<g id="Node000002" class="node">
<title>Node2</title>
<g id="a_Node000002"><a xlink:href="rc_2phy_2stream_2PhysicalSocket_8h.html" target="_top" xlink:title=" ">
<polygon fill="white" stroke="#666666" points="442,-195 296,-195 296,-165 442,-165 442,-195"/>
<text text-anchor="start" x="304" y="-183" font-family="Helvetica,sans-Serif" font-size="10.00">net/rc/phy/stream/Physical</text>
<text text-anchor="middle" x="369" y="-172" font-family="Helvetica,sans-Serif" font-size="10.00">Socket.h</text>
</a>
</g>
</g>
<!-- Node1&#45;&gt;Node2 -->
<g id="edge1_Node000001_Node000002" class="edge">
<title>Node1&#45;&gt;Node2</title>
<g id="a_edge1_Node000001_Node000002"><a xlink:title=" ">
<path fill="none" stroke="#63b8ff" d="M296.64,-230.8C309.4,-222.01 325.98,-210.61 340.04,-200.93"/>
<polygon fill="#63b8ff" stroke="#63b8ff" points="342.16,-203.72 348.42,-195.16 338.2,-197.95 342.16,-203.72"/>
</a>
</g>
</g>
<!-- Node10 -->
<g id="Node000010" class="node">
<title>Node10</title>
<g id="a_Node000010"><a xlink:href="phy_2stream_2PhysicalSocket_8hpp.html" target="_top" xlink:title=" ">
<polygon fill="white" stroke="#666666" points="278,-189.5 90,-189.5 90,-170.5 278,-170.5 278,-189.5"/>
<text text-anchor="middle" x="184" y="-177.5" font-family="Helvetica,sans-Serif" font-size="10.00">net/phy/stream/PhysicalSocket.hpp</text>
</a>
</g>
</g>
<!-- Node1&#45;&gt;Node10 -->
<g id="edge10_Node000001_Node000010" class="edge">
<title>Node1&#45;&gt;Node10</title>
<g id="a_edge10_Node000001_Node000010"><a xlink:title=" ">
<path fill="none" stroke="#63b8ff" d="M255.58,-230.8C240.45,-220.27 219.9,-205.97 204.7,-195.4"/>
<polygon fill="#63b8ff" stroke="#63b8ff" points="206.65,-192.5 196.45,-189.66 202.66,-198.24 206.65,-192.5"/>
</a>
</g>
</g>
<!-- Node3 -->
<g id="Node000003" class="node">
<title>Node3</title>
<g id="a_Node000003"><a xlink:href="phy_2stream_2PhysicalSocket_8h.html" target="_top" xlink:title=" ">
<polygon fill="white" stroke="#666666" points="276,-129 100,-129 100,-110 276,-110 276,-129"/>
<text text-anchor="middle" x="188" y="-117" font-family="Helvetica,sans-Serif" font-size="10.00">net/phy/stream/PhysicalSocket.h</text>
</a>
</g>
</g>
<!-- Node2&#45;&gt;Node3 -->
<g id="edge2_Node000002_Node000003" class="edge">
<title>Node2&#45;&gt;Node3</title>
<g id="a_edge2_Node000002_Node000003"><a xlink:title=" ">
<path fill="none" stroke="#63b8ff" d="M325.65,-164.99C294.68,-154.98 253.5,-141.67 224.27,-132.22"/>
<polygon fill="#63b8ff" stroke="#63b8ff" points="225.06,-128.8 214.47,-129.05 222.9,-135.46 225.06,-128.8"/>
</a>
</g>
</g>
<!-- Node7 -->
<g id="Node000007" class="node">
<title>Node7</title>
<g id="a_Node000007"><a xlink:href="rc_2phy_2PhysicalSocket_8h.html" target="_top" xlink:title=" ">
<polygon fill="white" stroke="#666666" points="444,-129 294,-129 294,-110 444,-110 444,-129"/>
<text text-anchor="middle" x="369" y="-117" font-family="Helvetica,sans-Serif" font-size="10.00">net/rc/phy/PhysicalSocket.h</text>
</a>
</g>
</g>
<!-- Node2&#45;&gt;Node7 -->
<g id="edge6_Node000002_Node000007" class="edge">
<title>Node2&#45;&gt;Node7</title>
<g id="a_edge6_Node000002_Node000007"><a xlink:title=" ">
<path fill="none" stroke="#63b8ff" d="M369,-164.84C369,-157.21 369,-147.7 369,-139.45"/>
<polygon fill="#63b8ff" stroke="#63b8ff" points="372.5,-139.27 369,-129.27 365.5,-139.27 372.5,-139.27"/>
</a>
</g>
</g>
<!-- Node4 -->
<g id="Node000004" class="node">
<title>Node4</title>
<g id="a_Node000004"><a xlink:href="phy_2PhysicalSocket_8h.html" target="_top" xlink:title=" ">
<polygon fill="white" stroke="#666666" points="267,-74 129,-74 129,-55 267,-55 267,-74"/>
<text text-anchor="middle" x="198" y="-62" font-family="Helvetica,sans-Serif" font-size="10.00">net/phy/PhysicalSocket.h</text>
</a>
</g>
</g>
<!-- Node3&#45;&gt;Node4 -->
<g id="edge3_Node000003_Node000004" class="edge">
<title>Node3&#45;&gt;Node4</title>
<g id="a_edge3_Node000003_Node000004"><a xlink:title=" ">
<path fill="none" stroke="#63b8ff" d="M189.65,-109.75C190.96,-102.8 192.84,-92.85 194.48,-84.13"/>
<polygon fill="#63b8ff" stroke="#63b8ff" points="197.96,-84.56 196.38,-74.09 191.09,-83.27 197.96,-84.56"/>
</a>
</g>
</g>
<!-- Node5 -->
<g id="Node000005" class="node">
<title>Node5</title>
<g id="a_Node000005"><a xlink:href="Descriptor_8h.html" target="_top" xlink:title=" ">
<polygon fill="white" stroke="#666666" points="100,-19 0,-19 0,0 100,0 100,-19"/>
<text text-anchor="middle" x="50" y="-7" font-family="Helvetica,sans-Serif" font-size="10.00">core/Descriptor.h</text>
</a>
</g>
</g>
<!-- Node4&#45;&gt;Node5 -->
<g id="edge4_Node000004_Node000005" class="edge">
<title>Node4&#45;&gt;Node5</title>
<g id="a_edge4_Node000004_Node000005"><a xlink:title=" ">
<path fill="none" stroke="#63b8ff" d="M174.22,-54.98C149.77,-46.23 111.47,-32.51 83.85,-22.62"/>
<polygon fill="#63b8ff" stroke="#63b8ff" points="84.81,-19.25 74.21,-19.17 82.45,-25.84 84.81,-19.25"/>
</a>
</g>
</g>
<!-- Node6 -->
<g id="Node000006" class="node">
<title>Node6</title>
<g id="a_Node000006"><a xlink:href="PhysicalSocketOption_8h.html" target="_top" xlink:title=" ">
<polygon fill="white" stroke="#666666" points="288,-19 118,-19 118,0 288,0 288,-19"/>
<text text-anchor="middle" x="203" y="-7" font-family="Helvetica,sans-Serif" font-size="10.00">net/phy/PhysicalSocketOption.h</text>
</a>
</g>
</g>
<!-- Node4&#45;&gt;Node6 -->
<g id="edge5_Node000004_Node000006" class="edge">
<title>Node4&#45;&gt;Node6</title>
<g id="a_edge5_Node000004_Node000006"><a xlink:title=" ">
<path fill="none" stroke="#63b8ff" d="M198.83,-54.75C199.48,-47.8 200.42,-37.85 201.24,-29.13"/>
<polygon fill="#63b8ff" stroke="#63b8ff" points="204.73,-29.37 202.19,-19.09 197.77,-28.72 204.73,-29.37"/>
</a>
</g>
</g>
<!-- Node7&#45;&gt;Node4 -->
<g id="edge7_Node000007_Node000004" class="edge">
<title>Node7&#45;&gt;Node4</title>
<g id="a_edge7_Node000007_Node000004"><a xlink:title=" ">
<path fill="none" stroke="#63b8ff" d="M341.53,-109.98C312.82,-101.09 267.58,-87.07 235.58,-77.15"/>
<polygon fill="#63b8ff" stroke="#63b8ff" points="236.28,-73.7 225.69,-74.08 234.2,-80.39 236.28,-73.7"/>
</a>
</g>
</g>
<!-- Node8 -->
<g id="Node000008" class="node">
<title>Node8</title>
<g id="a_Node000008"><a xlink:href="net_2rc_2SocketAddress_8h.html" target="_top" xlink:title=" ">
<polygon fill="white" stroke="#666666" points="433,-74 305,-74 305,-55 433,-55 433,-74"/>
<text text-anchor="middle" x="369" y="-62" font-family="Helvetica,sans-Serif" font-size="10.00">net/rc/SocketAddress.h</text>
</a>
</g>
</g>
<!-- Node7&#45;&gt;Node8 -->
<g id="edge8_Node000007_Node000008" class="edge">
<title>Node7&#45;&gt;Node8</title>
<g id="a_edge8_Node000007_Node000008"><a xlink:title=" ">
<path fill="none" stroke="#63b8ff" d="M369,-109.75C369,-102.8 369,-92.85 369,-84.13"/>
<polygon fill="#63b8ff" stroke="#63b8ff" points="372.5,-84.09 369,-74.09 365.5,-84.09 372.5,-84.09"/>
</a>
</g>
</g>
<!-- Node9 -->
<g id="Node000009" class="node">
<title>Node9</title>
<g id="a_Node000009"><a xlink:href="net_2SocketAddress_8h.html" target="_top" xlink:title=" ">
<polygon fill="white" stroke="#666666" points="427,-19 311,-19 311,0 427,0 427,-19"/>
<text text-anchor="middle" x="369" y="-7" font-family="Helvetica,sans-Serif" font-size="10.00">net/SocketAddress.h</text>
</a>
</g>
</g>
<!-- Node8&#45;&gt;Node9 -->
<g id="edge9_Node000008_Node000009" class="edge">
<title>Node8&#45;&gt;Node9</title>
<g id="a_edge9_Node000008_Node000009"><a xlink:title=" ">
<path fill="none" stroke="#63b8ff" d="M369,-54.75C369,-47.8 369,-37.85 369,-29.13"/>
<polygon fill="#63b8ff" stroke="#63b8ff" points="372.5,-29.09 369,-19.09 365.5,-29.09 372.5,-29.09"/>
</a>
</g>
</g>
<!-- Node10&#45;&gt;Node3 -->
<g id="edge11_Node000010_Node000003" class="edge">
<title>Node10&#45;&gt;Node3</title>
<g id="a_edge11_Node000010_Node000003"><a xlink:title=" ">
<path fill="none" stroke="#63b8ff" d="M184.59,-170.37C185.15,-162.25 186,-149.81 186.71,-139.39"/>
<polygon fill="#63b8ff" stroke="#63b8ff" points="190.22,-139.38 187.41,-129.17 183.23,-138.91 190.22,-139.38"/>
</a>
</g>
</g>
</g>
</svg>
