<?xml version="1.0" encoding="UTF-8" standalone="no"?>
<!DOCTYPE svg PUBLIC "-//W3C//DTD SVG 1.1//EN"
 "http://www.w3.org/Graphics/SVG/1.1/DTD/svg11.dtd">
<!-- Generated by graphviz version 2.42.4 (0)
 -->
<!-- Title: src/net/rc/stream/config/ConfigSocketServer.h Pages: 1 -->
<svg width="685pt" height="302pt"
 viewBox="0.00 0.00 685.00 302.00" xmlns="http://www.w3.org/2000/svg" xmlns:xlink="http://www.w3.org/1999/xlink">
<g id="graph0" class="graph" transform="scale(1 1) rotate(0) translate(4 298)">
<title>src/net/rc/stream/config/ConfigSocketServer.h</title>
<!-- Node1 -->
<g id="Node000001" class="node">
<title>Node1</title>
<g id="a_Node000001"><a xlink:title=" ">
<polygon fill="#999999" stroke="#666666" points="329,-294 197,-294 197,-264 329,-264 329,-294"/>
<text text-anchor="start" x="205" y="-282" font-family="Helvetica,sans-Serif" font-size="10.00">src/net/rc/stream/config</text>
<text text-anchor="middle" x="263" y="-271" font-family="Helvetica,sans-Serif" font-size="10.00">/ConfigSocketServer.h</text>
</a>
</g>
</g>
<!-- Node2 -->
<g id="Node000002" class="node">
<title>Node2</title>
<g id="a_Node000002"><a xlink:href="rc_2stream_2config_2ConfigSocketServer_8cpp.html" target="_top" xlink:title=" ">
<polygon fill="white" stroke="#666666" points="166.5,-228 31.5,-228 31.5,-198 166.5,-198 166.5,-228"/>
<text text-anchor="start" x="39.5" y="-216" font-family="Helvetica,sans-Serif" font-size="10.00">src/net/rc/stream/config</text>
<text text-anchor="middle" x="99" y="-205" font-family="Helvetica,sans-Serif" font-size="10.00">/ConfigSocketServer.cpp</text>
</a>
</g>
</g>
<!-- Node1&#45;&gt;Node2 -->
<g id="edge1_Node000001_Node000002" class="edge">
<title>Node1&#45;&gt;Node2</title>
<g id="a_edge1_Node000001_Node000002"><a xlink:title=" ">
<path fill="none" stroke="#63b8ff" d="M217.36,-260.19C191.31,-250.02 159.13,-237.47 134.91,-228.01"/>
<polygon fill="#63b8ff" stroke="#63b8ff" points="216.42,-263.58 227.01,-263.95 218.97,-257.06 216.42,-263.58"/>
</a>
</g>
</g>
<!-- Node3 -->
<g id="Node000003" class="node">
<title>Node3</title>
<g id="a_Node000003"><a xlink:href="rc_2stream_2legacy_2config_2ConfigSocketServer_8h.html" target="_top" xlink:title=" ">
<polygon fill="white" stroke="#666666" points="341.5,-228 184.5,-228 184.5,-198 341.5,-198 341.5,-228"/>
<text text-anchor="start" x="192.5" y="-216" font-family="Helvetica,sans-Serif" font-size="10.00">src/net/rc/stream/legacy</text>
<text text-anchor="middle" x="263" y="-205" font-family="Helvetica,sans-Serif" font-size="10.00">/config/ConfigSocketServer.h</text>
</a>
</g>
</g>
<!-- Node1&#45;&gt;Node3 -->
<g id="edge2_Node000001_Node000003" class="edge">
<title>Node1&#45;&gt;Node3</title>
<g id="a_edge2_Node000001_Node000003"><a xlink:title=" ">
<path fill="none" stroke="#63b8ff" d="M263,-253.54C263,-244.96 263,-235.61 263,-228.16"/>
<polygon fill="#63b8ff" stroke="#63b8ff" points="259.5,-253.8 263,-263.8 266.5,-253.8 259.5,-253.8"/>
</a>
</g>
</g>
<!-- Node9 -->
<g id="Node000009" class="node">
<title>Node9</title>
<g id="a_Node000009"><a xlink:href="rc_2stream_2tls_2config_2ConfigSocketServer_8h.html" target="_top" xlink:title=" ">
<polygon fill="white" stroke="#666666" points="516.5,-228 359.5,-228 359.5,-198 516.5,-198 516.5,-228"/>
<text text-anchor="start" x="367.5" y="-216" font-family="Helvetica,sans-Serif" font-size="10.00">src/net/rc/stream/tls</text>
<text text-anchor="middle" x="438" y="-205" font-family="Helvetica,sans-Serif" font-size="10.00">/config/ConfigSocketServer.h</text>
</a>
</g>
</g>
<!-- Node1&#45;&gt;Node9 -->
<g id="edge8_Node000001_Node000009" class="edge">
<title>Node1&#45;&gt;Node9</title>
<g id="a_edge8_Node000001_Node000009"><a xlink:title=" ">
<path fill="none" stroke="#63b8ff" d="M310.97,-260.46C338.89,-250.25 373.6,-237.55 399.69,-228.01"/>
<polygon fill="#63b8ff" stroke="#63b8ff" points="309.59,-257.23 301.4,-263.95 312,-263.81 309.59,-257.23"/>
</a>
</g>
</g>
<!-- Node4 -->
<g id="Node000004" class="node">
<title>Node4</title>
<g id="a_Node000004"><a xlink:href="net_2rc_2stream_2legacy_2SocketServer_8h.html" target="_top" xlink:title=" ">
<polygon fill="white" stroke="#666666" points="165,-162 31,-162 31,-132 165,-132 165,-162"/>
<text text-anchor="start" x="39" y="-150" font-family="Helvetica,sans-Serif" font-size="10.00">src/net/rc/stream/legacy</text>
<text text-anchor="middle" x="98" y="-139" font-family="Helvetica,sans-Serif" font-size="10.00">/SocketServer.h</text>
</a>
</g>
</g>
<!-- Node3&#45;&gt;Node4 -->
<g id="edge3_Node000003_Node000004" class="edge">
<title>Node3&#45;&gt;Node4</title>
<g id="a_edge3_Node000003_Node000004"><a xlink:title=" ">
<path fill="none" stroke="#63b8ff" d="M217.43,-194.32C191.16,-184.14 158.61,-171.51 134.13,-162.01"/>
<polygon fill="#63b8ff" stroke="#63b8ff" points="216.2,-197.6 226.79,-197.95 218.73,-191.08 216.2,-197.6"/>
</a>
</g>
</g>
<!-- Node8 -->
<g id="Node000008" class="node">
<title>Node8</title>
<g id="a_Node000008"><a xlink:href="rc_2stream_2legacy_2config_2ConfigSocketServer_8cpp.html" target="_top" xlink:title=" ">
<polygon fill="white" stroke="#666666" points="351,-162 183,-162 183,-132 351,-132 351,-162"/>
<text text-anchor="start" x="191" y="-150" font-family="Helvetica,sans-Serif" font-size="10.00">src/net/rc/stream/legacy</text>
<text text-anchor="middle" x="267" y="-139" font-family="Helvetica,sans-Serif" font-size="10.00">/config/ConfigSocketServer.cpp</text>
</a>
</g>
</g>
<!-- Node3&#45;&gt;Node8 -->
<g id="edge7_Node000003_Node000008" class="edge">
<title>Node3&#45;&gt;Node8</title>
<g id="a_edge7_Node000003_Node000008"><a xlink:title=" ">
<path fill="none" stroke="#63b8ff" d="M264.53,-187.54C265.06,-178.96 265.65,-169.61 266.11,-162.16"/>
<polygon fill="#63b8ff" stroke="#63b8ff" points="261.02,-187.6 263.89,-197.8 268,-188.03 261.02,-187.6"/>
</a>
</g>
</g>
<!-- Node5 -->
<g id="Node000005" class="node">
<title>Node5</title>
<g id="a_Node000005"><a xlink:href="rc_2stream_2legacy_2SocketServer_8cpp.html" target="_top" xlink:title=" ">
<polygon fill="white" stroke="#666666" points="134,-96 0,-96 0,-66 134,-66 134,-96"/>
<text text-anchor="start" x="8" y="-84" font-family="Helvetica,sans-Serif" font-size="10.00">src/net/rc/stream/legacy</text>
<text text-anchor="middle" x="67" y="-73" font-family="Helvetica,sans-Serif" font-size="10.00">/SocketServer.cpp</text>
</a>
</g>
</g>
<!-- Node4&#45;&gt;Node5 -->
<g id="edge4_Node000004_Node000005" class="edge">
<title>Node4&#45;&gt;Node5</title>
<g id="a_edge4_Node000004_Node000005"><a xlink:title=" ">
<path fill="none" stroke="#63b8ff" d="M86.7,-122.68C82.4,-113.79 77.63,-103.95 73.86,-96.16"/>
<polygon fill="#63b8ff" stroke="#63b8ff" points="83.61,-124.32 91.12,-131.8 89.91,-121.27 83.61,-124.32"/>
</a>
</g>
</g>
<!-- Node6 -->
<g id="Node000006" class="node">
<title>Node6</title>
<g id="a_Node000006"><a xlink:href="legacy_2rc_2Server_8h.html" target="_top" xlink:title=" ">
<polygon fill="white" stroke="#666666" points="264,-96 152,-96 152,-66 264,-66 264,-96"/>
<text text-anchor="start" x="160" y="-84" font-family="Helvetica,sans-Serif" font-size="10.00">src/web/http/legacy</text>
<text text-anchor="middle" x="208" y="-73" font-family="Helvetica,sans-Serif" font-size="10.00">/rc/Server.h</text>
</a>
</g>
</g>
<!-- Node4&#45;&gt;Node6 -->
<g id="edge5_Node000004_Node000006" class="edge">
<title>Node4&#45;&gt;Node6</title>
<g id="a_edge5_Node000004_Node000006"><a xlink:title=" ">
<path fill="none" stroke="#63b8ff" d="M131.18,-126.69C148.16,-116.82 168.45,-105.01 183.92,-96.01"/>
<polygon fill="#63b8ff" stroke="#63b8ff" points="129.02,-123.9 122.14,-131.95 132.54,-129.95 129.02,-123.9"/>
</a>
</g>
</g>
<!-- Node7 -->
<g id="Node000007" class="node">
<title>Node7</title>
<g id="a_Node000007"><a xlink:href="legacy_2rc_2WebApp_8h.html" target="_top" xlink:title=" ">
<polygon fill="white" stroke="#666666" points="261.5,-30 154.5,-30 154.5,0 261.5,0 261.5,-30"/>
<text text-anchor="start" x="162.5" y="-18" font-family="Helvetica,sans-Serif" font-size="10.00">src/express/legacy</text>
<text text-anchor="middle" x="208" y="-7" font-family="Helvetica,sans-Serif" font-size="10.00">/rc/WebApp.h</text>
</a>
</g>
</g>
<!-- Node6&#45;&gt;Node7 -->
<g id="edge6_Node000006_Node000007" class="edge">
<title>Node6&#45;&gt;Node7</title>
<g id="a_edge6_Node000006_Node000007"><a xlink:title=" ">
<path fill="none" stroke="#63b8ff" d="M208,-55.54C208,-46.96 208,-37.61 208,-30.16"/>
<polygon fill="#63b8ff" stroke="#63b8ff" points="204.5,-55.8 208,-65.8 211.5,-55.8 204.5,-55.8"/>
</a>
</g>
</g>
<!-- Node10 -->
<g id="Node000010" class="node">
<title>Node10</title>
<g id="a_Node000010"><a xlink:href="net_2rc_2stream_2tls_2SocketServer_8h.html" target="_top" xlink:title=" ">
<polygon fill="white" stroke="#666666" points="491,-162 377,-162 377,-132 491,-132 491,-162"/>
<text text-anchor="start" x="385" y="-150" font-family="Helvetica,sans-Serif" font-size="10.00">src/net/rc/stream/tls</text>
<text text-anchor="middle" x="434" y="-139" font-family="Helvetica,sans-Serif" font-size="10.00">/SocketServer.h</text>
</a>
</g>
</g>
<!-- Node9&#45;&gt;Node10 -->
<g id="edge9_Node000009_Node000010" class="edge">
<title>Node9&#45;&gt;Node10</title>
<g id="a_edge9_Node000009_Node000010"><a xlink:title=" ">
<path fill="none" stroke="#63b8ff" d="M436.47,-187.54C435.94,-178.96 435.35,-169.61 434.89,-162.16"/>
<polygon fill="#63b8ff" stroke="#63b8ff" points="433,-188.03 437.11,-197.8 439.98,-187.6 433,-188.03"/>
</a>
</g>
</g>
<!-- Node14 -->
<g id="Node000014" class="node">
<title>Node14</title>
<g id="a_Node000014"><a xlink:href="rc_2stream_2tls_2config_2ConfigSocketServer_8cpp.html" target="_top" xlink:title=" ">
<polygon fill="white" stroke="#666666" points="677,-162 509,-162 509,-132 677,-132 677,-162"/>
<text text-anchor="start" x="517" y="-150" font-family="Helvetica,sans-Serif" font-size="10.00">src/net/rc/stream/tls</text>
<text text-anchor="middle" x="593" y="-139" font-family="Helvetica,sans-Serif" font-size="10.00">/config/ConfigSocketServer.cpp</text>
</a>
</g>
</g>
<!-- Node9&#45;&gt;Node14 -->
<g id="edge13_Node000009_Node000014" class="edge">
<title>Node9&#45;&gt;Node14</title>
<g id="a_edge13_Node000009_Node000014"><a xlink:title=" ">
<path fill="none" stroke="#63b8ff" d="M481.46,-194.05C506.02,-183.91 536.27,-171.43 559.06,-162.01"/>
<polygon fill="#63b8ff" stroke="#63b8ff" points="479.92,-190.9 472.02,-197.95 482.59,-197.37 479.92,-190.9"/>
</a>
</g>
</g>
<!-- Node11 -->
<g id="Node000011" class="node">
<title>Node11</title>
<g id="a_Node000011"><a xlink:href="rc_2stream_2tls_2SocketServer_8cpp.html" target="_top" xlink:title=" ">
<polygon fill="white" stroke="#666666" points="443,-96 329,-96 329,-66 443,-66 443,-96"/>
<text text-anchor="start" x="337" y="-84" font-family="Helvetica,sans-Serif" font-size="10.00">src/net/rc/stream/tls</text>
<text text-anchor="middle" x="386" y="-73" font-family="Helvetica,sans-Serif" font-size="10.00">/SocketServer.cpp</text>
</a>
</g>
</g>
<!-- Node10&#45;&gt;Node11 -->
<g id="edge10_Node000010_Node000011" class="edge">
<title>Node10&#45;&gt;Node11</title>
<g id="a_edge10_Node000010_Node000011"><a xlink:title=" ">
<path fill="none" stroke="#63b8ff" d="M417.14,-123.53C410.32,-114.43 402.65,-104.19 396.62,-96.16"/>
<polygon fill="#63b8ff" stroke="#63b8ff" points="414.55,-125.9 423.35,-131.8 420.15,-121.7 414.55,-125.9"/>
</a>
</g>
</g>
<!-- Node12 -->
<g id="Node000012" class="node">
<title>Node12</title>
<g id="a_Node000012"><a xlink:href="tls_2rc_2Server_8h.html" target="_top" xlink:title=" ">
<polygon fill="white" stroke="#666666" points="565,-96 461,-96 461,-66 565,-66 565,-96"/>
<text text-anchor="start" x="469" y="-84" font-family="Helvetica,sans-Serif" font-size="10.00">src/web/http/tls/rc</text>
<text text-anchor="middle" x="513" y="-73" font-family="Helvetica,sans-Serif" font-size="10.00">/Server.h</text>
</a>
</g>
</g>
<!-- Node10&#45;&gt;Node12 -->
<g id="edge11_Node000010_Node000012" class="edge">
<title>Node10&#45;&gt;Node12</title>
<g id="a_edge11_Node000010_Node000012"><a xlink:title=" ">
<path fill="none" stroke="#63b8ff" d="M459.33,-125.48C471.14,-115.91 484.89,-104.77 495.52,-96.16"/>
<polygon fill="#63b8ff" stroke="#63b8ff" points="457.1,-122.78 451.53,-131.8 461.51,-128.22 457.1,-122.78"/>
</a>
</g>
</g>
<!-- Node13 -->
<g id="Node000013" class="node">
<title>Node13</title>
<g id="a_Node000013"><a xlink:href="tls_2rc_2WebApp_8h.html" target="_top" xlink:title=" ">
<polygon fill="white" stroke="#666666" points="562.5,-30 463.5,-30 463.5,0 562.5,0 562.5,-30"/>
<text text-anchor="start" x="471.5" y="-18" font-family="Helvetica,sans-Serif" font-size="10.00">src/express/tls/rc</text>
<text text-anchor="middle" x="513" y="-7" font-family="Helvetica,sans-Serif" font-size="10.00">/WebApp.h</text>
</a>
</g>
</g>
<!-- Node12&#45;&gt;Node13 -->
<g id="edge12_Node000012_Node000013" class="edge">
<title>Node12&#45;&gt;Node13</title>
<g id="a_edge12_Node000012_Node000013"><a xlink:title=" ">
<path fill="none" stroke="#63b8ff" d="M513,-55.54C513,-46.96 513,-37.61 513,-30.16"/>
<polygon fill="#63b8ff" stroke="#63b8ff" points="509.5,-55.8 513,-65.8 516.5,-55.8 509.5,-55.8"/>
</a>
</g>
</g>
</g>
</svg>
