<?xml version="1.0" encoding="UTF-8" standalone="no"?>
<!DOCTYPE svg PUBLIC "-//W3C//DTD SVG 1.1//EN"
 "http://www.w3.org/Graphics/SVG/1.1/DTD/svg11.dtd">
<!-- Generated by graphviz version 14.1.2 (0)
 -->
<!-- Title: iot/mqtt/server/broker/RetainTree.h Pages: 1 -->
<svg width="921pt" height="181pt"
 viewBox="0.00 0.00 921.00 181.00" xmlns="http://www.w3.org/2000/svg" xmlns:xlink="http://www.w3.org/1999/xlink">
<g id="graph0" class="graph" transform="scale(1 1) rotate(0) translate(4 176.5)">
<title>iot/mqtt/server/broker/RetainTree.h</title>
<!-- Node1 -->
<g id="Node000001" class="node">
<title>Node1</title>
<g id="a_Node000001"><a xlink:title=" ">
<polygon fill="#999999" stroke="#666666" points="674.5,-172.5 552,-172.5 552,-139 674.5,-139 674.5,-172.5"/>
<text xml:space="preserve" text-anchor="start" x="560" y="-159" font-family="Helvetica,sans-Serif" font-size="10.00">iot/mqtt/server/broker</text>
<text xml:space="preserve" text-anchor="middle" x="613.25" y="-146.25" font-family="Helvetica,sans-Serif" font-size="10.00">/RetainTree.h</text>
</a>
</g>
</g>
<!-- Node2 -->
<g id="Node000002" class="node">
<title>Node2</title>
<g id="a_Node000002"><a xlink:href="Broker_8h.html" target="_top" xlink:title=" ">
<polygon fill="white" stroke="#666666" points="630.5,-103 508,-103 508,-69.5 630.5,-69.5 630.5,-103"/>
<text xml:space="preserve" text-anchor="start" x="516" y="-89.5" font-family="Helvetica,sans-Serif" font-size="10.00">iot/mqtt/server/broker</text>
<text xml:space="preserve" text-anchor="middle" x="569.25" y="-76.75" font-family="Helvetica,sans-Serif" font-size="10.00">/Broker.h</text>
</a>
</g>
</g>
<!-- Node1&#45;&gt;Node2 -->
<g id="edge1_Node000001_Node000002" class="edge">
<title>Node1&#45;&gt;Node2</title>
<g id="a_edge1_Node000001_Node000002"><a xlink:title=" ">
<path fill="none" stroke="#63b8ff" d="M596.67,-129.31C590.94,-120.52 584.69,-110.93 579.6,-103.13"/>
<polygon fill="#63b8ff" stroke="#63b8ff" points="593.6,-131.02 602,-137.49 599.47,-127.2 593.6,-131.02"/>
</a>
</g>
</g>
<!-- Node7 -->
<g id="Node000007" class="node">
<title>Node7</title>
<g id="a_Node000007"><a xlink:href="RetainTree_8cpp.html" target="_top" xlink:title=" ">
<polygon fill="white" stroke="#666666" points="912.5,-33.5 790,-33.5 790,0 912.5,0 912.5,-33.5"/>
<text xml:space="preserve" text-anchor="start" x="798" y="-20" font-family="Helvetica,sans-Serif" font-size="10.00">iot/mqtt/server/broker</text>
<text xml:space="preserve" text-anchor="middle" x="851.25" y="-7.25" font-family="Helvetica,sans-Serif" font-size="10.00">/RetainTree.cpp</text>
</a>
</g>
</g>
<!-- Node1&#45;&gt;Node7 -->
<g id="edge8_Node000001_Node000007" class="edge">
<title>Node1&#45;&gt;Node7</title>
<g id="a_edge8_Node000001_Node000007"><a xlink:title=" ">
<path fill="none" stroke="#63b8ff" d="M650.7,-133.19C698.6,-105.62 780.47,-58.49 823.29,-33.84"/>
<polygon fill="#63b8ff" stroke="#63b8ff" points="649.25,-129.99 642.33,-138.01 652.74,-136.06 649.25,-129.99"/>
</a>
</g>
</g>
<!-- Node3 -->
<g id="Node000003" class="node">
<title>Node3</title>
<g id="a_Node000003"><a xlink:href="server_2Mqtt_8cpp.html" target="_top" xlink:title=" ">
<polygon fill="white" stroke="#666666" points="134.5,-27.12 0,-27.12 0,-6.38 134.5,-6.38 134.5,-27.12"/>
<text xml:space="preserve" text-anchor="middle" x="67.25" y="-13.62" font-family="Helvetica,sans-Serif" font-size="10.00">iot/mqtt/server/Mqtt.cpp</text>
</a>
</g>
</g>
<!-- Node2&#45;&gt;Node3 -->
<g id="edge2_Node000002_Node000003" class="edge">
<title>Node2&#45;&gt;Node3</title>
<g id="a_edge2_Node000002_Node000003"><a xlink:title=" ">
<path fill="none" stroke="#63b8ff" d="M496.31,-78.26C411.26,-69.68 266.61,-53.74 143.25,-33.5 133.01,-31.82 122.06,-29.73 111.74,-27.62"/>
<polygon fill="#63b8ff" stroke="#63b8ff" points="495.84,-81.73 506.14,-79.25 496.54,-74.77 495.84,-81.73"/>
</a>
</g>
</g>
<!-- Node4 -->
<g id="Node000004" class="node">
<title>Node4</title>
<g id="a_Node000004"><a xlink:href="SharedSocketContextFactory_8cpp.html" target="_top" xlink:title=" ">
<polygon fill="white" stroke="#666666" points="310.12,-33.5 152.38,-33.5 152.38,0 310.12,0 310.12,-33.5"/>
<text xml:space="preserve" text-anchor="start" x="160.38" y="-20" font-family="Helvetica,sans-Serif" font-size="10.00">iot/mqtt/server/SharedSocket</text>
<text xml:space="preserve" text-anchor="middle" x="231.25" y="-7.25" font-family="Helvetica,sans-Serif" font-size="10.00">ContextFactory.cpp</text>
</a>
</g>
</g>
<!-- Node2&#45;&gt;Node4 -->
<g id="edge3_Node000002_Node000004" class="edge">
<title>Node2&#45;&gt;Node4</title>
<g id="a_edge3_Node000002_Node000004"><a xlink:title=" ">
<path fill="none" stroke="#63b8ff" d="M496.64,-70.75C441.91,-59.82 366.93,-44.85 310.62,-33.6"/>
<polygon fill="#63b8ff" stroke="#63b8ff" points="495.67,-74.13 506.16,-72.65 497.04,-67.26 495.67,-74.13"/>
</a>
</g>
</g>
<!-- Node5 -->
<g id="Node000005" class="node">
<title>Node5</title>
<g id="a_Node000005"><a xlink:href="iot_2mqtt_2server_2SocketContextFactory_8cpp.html" target="_top" xlink:title=" ">
<polygon fill="white" stroke="#666666" points="490.38,-33.5 328.12,-33.5 328.12,0 490.38,0 490.38,-33.5"/>
<text xml:space="preserve" text-anchor="start" x="336.12" y="-20" font-family="Helvetica,sans-Serif" font-size="10.00">iot/mqtt/server/SocketContext</text>
<text xml:space="preserve" text-anchor="middle" x="409.25" y="-7.25" font-family="Helvetica,sans-Serif" font-size="10.00">Factory.cpp</text>
</a>
</g>
</g>
<!-- Node2&#45;&gt;Node5 -->
<g id="edge4_Node000002_Node000005" class="edge">
<title>Node2&#45;&gt;Node5</title>
<g id="a_edge4_Node000002_Node000005"><a xlink:title=" ">
<path fill="none" stroke="#63b8ff" d="M520.5,-64.68C497.08,-54.8 469.42,-43.13 447.54,-33.9"/>
<polygon fill="#63b8ff" stroke="#63b8ff" points="518.96,-67.83 529.53,-68.49 521.68,-61.38 518.96,-67.83"/>
</a>
</g>
</g>
<!-- Node6 -->
<g id="Node000006" class="node">
<title>Node6</title>
<g id="a_Node000006"><a xlink:href="Broker_8cpp.html" target="_top" xlink:title=" ">
<polygon fill="white" stroke="#666666" points="630.5,-33.5 508,-33.5 508,0 630.5,0 630.5,-33.5"/>
<text xml:space="preserve" text-anchor="start" x="516" y="-20" font-family="Helvetica,sans-Serif" font-size="10.00">iot/mqtt/server/broker</text>
<text xml:space="preserve" text-anchor="middle" x="569.25" y="-7.25" font-family="Helvetica,sans-Serif" font-size="10.00">/Broker.cpp</text>
</a>
</g>
</g>
<!-- Node2&#45;&gt;Node6 -->
<g id="edge5_Node000002_Node000006" class="edge">
<title>Node2&#45;&gt;Node6</title>
<g id="a_edge5_Node000002_Node000006"><a xlink:title=" ">
<path fill="none" stroke="#63b8ff" d="M569.25,-57.81C569.25,-49.59 569.25,-40.84 569.25,-33.63"/>
<polygon fill="#63b8ff" stroke="#63b8ff" points="565.75,-57.74 569.25,-67.74 572.75,-57.74 565.75,-57.74"/>
</a>
</g>
</g>
<!-- Node2&#45;&gt;Node7 -->
<g id="edge6_Node000002_Node000007" class="edge">
<title>Node2&#45;&gt;Node7</title>
<g id="a_edge6_Node000002_Node000007"><a xlink:title=" ">
<path fill="none" stroke="#63b8ff" d="M641.86,-67.87C687.71,-56.89 746.31,-42.87 789.84,-32.45"/>
<polygon fill="#63b8ff" stroke="#63b8ff" points="641.17,-64.44 632.26,-70.17 642.8,-71.24 641.17,-64.44"/>
</a>
</g>
</g>
<!-- Node8 -->
<g id="Node000008" class="node">
<title>Node8</title>
<g id="a_Node000008"><a xlink:href="SubscriptionTree_8cpp.html" target="_top" xlink:title=" ">
<polygon fill="white" stroke="#666666" points="771.5,-33.5 649,-33.5 649,0 771.5,0 771.5,-33.5"/>
<text xml:space="preserve" text-anchor="start" x="657" y="-20" font-family="Helvetica,sans-Serif" font-size="10.00">iot/mqtt/server/broker</text>
<text xml:space="preserve" text-anchor="middle" x="710.25" y="-7.25" font-family="Helvetica,sans-Serif" font-size="10.00">/SubscriptionTree.cpp</text>
</a>
</g>
</g>
<!-- Node2&#45;&gt;Node8 -->
<g id="edge7_Node000002_Node000008" class="edge">
<title>Node2&#45;&gt;Node8</title>
<g id="a_edge7_Node000002_Node000008"><a xlink:title=" ">
<path fill="none" stroke="#63b8ff" d="M613.37,-64.13C633.85,-54.33 657.79,-42.86 676.75,-33.79"/>
<polygon fill="#63b8ff" stroke="#63b8ff" points="611.9,-60.95 604.39,-68.43 614.92,-67.27 611.9,-60.95"/>
</a>
</g>
</g>
</g>
</svg>
