<?xml version="1.0" encoding="UTF-8" standalone="no"?>
<!DOCTYPE svg PUBLIC "-//W3C//DTD SVG 1.1//EN"
 "http://www.w3.org/Graphics/SVG/1.1/DTD/svg11.dtd">
<!-- Generated by graphviz version 14.1.2 (0)
 -->
<!-- Title: express/Route.cpp Pages: 1 -->
<!--zoomable 155 -->

<svg id="main" version="1.1" xmlns="http://www.w3.org/2000/svg" xmlns:xlink="http://www.w3.org/1999/xlink" xml:space="preserve" onload="init(evt)">

<style type="text/css"><![CDATA[
.node, .edge {opacity: 0.7;}
.node.selected, .edge.selected {opacity: 1;}
.edge:hover path { stroke: red; }
.edge:hover polygon { stroke: red; fill: red; }
]]></style>

<defs>
  <circle id="rim" cx="0" cy="0" r="7"/>
  <circle id="rim2" cx="0" cy="0" r="3.5"/>
  <g id="zoomPlus">
    <use xlink:href="#rim" fill="#404040"><set attributeName="fill" to="#808080" begin="zoomplus.mouseover" end="zoomplus.mouseout"/></use>
    <path d="M-4,0h8M0,-4v8" fill="none" stroke="white" stroke-width="1.5" pointer-events="none"/>
  </g>
  <g id="zoomMin">
    <use xlink:href="#rim" fill="#404040"><set attributeName="fill" to="#808080" begin="zoomminus.mouseover" end="zoomminus.mouseout"/></use>
    <path d="M-4,0h8" fill="none" stroke="white" stroke-width="1.5" pointer-events="none"/>
  </g>
  <g id="arrowUp" transform="translate(30 24)">
    <use xlink:href="#rim"/>
    <path pointer-events="none" fill="none" stroke="white" stroke-width="1.5" d="M0,-3.0v7 M-2.5,-0.5L0,-3.0L2.5,-0.5"/>
  </g>
  <g id="arrowRight" transform="rotate(90) translate(36 -43)">
    <use xlink:href="#rim"/>
    <path pointer-events="none" fill="none" stroke="white" stroke-width="1.5" d="M0,-3.0v7 M-2.5,-0.5L0,-3.0L2.5,-0.5"/>
  </g>
  <g id="arrowDown" transform="rotate(180) translate(-30 -48)">
    <use xlink:href="#rim"/>
    <path pointer-events="none" fill="none" stroke="white" stroke-width="1.5" d="M0,-3.0v7 M-2.5,-0.5L0,-3.0L2.5,-0.5"/>
  </g>
  <g id="arrowLeft" transform="rotate(270) translate(-36 17)">
    <use xlink:href="#rim"/>
    <path pointer-events="none" fill="none" stroke="white" stroke-width="1.5" d="M0,-3.0v7 M-2.5,-0.5L0,-3.0L2.5,-0.5"/>
  </g>
  <g id="resetDef">
    <use xlink:href="#rim2" fill="#404040"><set attributeName="fill" to="#808080" begin="reset.mouseover" end="reset.mouseout"/></use>
  </g>
</defs>
<script type="application/ecmascript">
var viewWidth = 754;
var viewHeight = 155;
var sectionId = 'dynsection-0';
</script>
<script type="application/ecmascript" xlink:href="svg.min.js"/>
<svg id="graph" class="graph">
<g id="viewport">
<title>express/Route.cpp</title>
<!-- Node1 -->
<g id="Node000001" class="node">
<title>Node1</title>
<g id="a_Node000001"><a xlink:title=" ">
<polygon fill="#999999" stroke="#666666" points="445.88,-147 339.88,-147 339.88,-126.25 445.88,-126.25 445.88,-147"/>
<text xml:space="preserve" text-anchor="middle" x="392.88" y="-133.5" font-family="Helvetica,sans-Serif" font-size="10.00">express/Route.cpp</text>
</a>
</g>
</g>
<!-- Node2 -->
<g id="Node000002" class="node">
<title>Node2</title>
<g id="a_Node000002"><a xlink:href="Route_8h.html" target="_top" xlink:title=" ">
<polygon fill="white" stroke="#666666" points="174.25,-83.88 79.5,-83.88 79.5,-63.12 174.25,-63.12 174.25,-83.88"/>
<text xml:space="preserve" text-anchor="middle" x="126.88" y="-70.38" font-family="Helvetica,sans-Serif" font-size="10.00">express/Route.h</text>
</a>
</g>
</g>
<!-- Node1&#45;&gt;Node2 -->
<g id="edge1_Node000001_Node000002" class="edge">
<title>Node1&#45;&gt;Node2</title>
<g id="a_edge1_Node000001_Node000002"><a xlink:title=" ">
<path fill="none" stroke="#63b8ff" d="M343.71,-125.76C301.24,-117.04 238.31,-103.67 183.88,-90.25 180.07,-89.31 176.14,-88.3 172.19,-87.27"/>
<polygon fill="#63b8ff" stroke="#63b8ff" points="173.18,-83.91 162.62,-84.7 171.37,-90.67 173.18,-83.91"/>
</a>
</g>
</g>
<!-- Node5 -->
<g id="Node000005" class="node">
<title>Node5</title>
<g id="a_Node000005"><a xlink:href="Controller_8h.html" target="_top" xlink:title=" ">
<polygon fill="white" stroke="#666666" points="307,-83.88 192.75,-83.88 192.75,-63.12 307,-63.12 307,-83.88"/>
<text xml:space="preserve" text-anchor="middle" x="249.88" y="-70.38" font-family="Helvetica,sans-Serif" font-size="10.00">express/Controller.h</text>
</a>
</g>
</g>
<!-- Node1&#45;&gt;Node5 -->
<g id="edge4_Node000001_Node000005" class="edge">
<title>Node1&#45;&gt;Node5</title>
<g id="a_edge4_Node000001_Node000005"><a xlink:title=" ">
<path fill="none" stroke="#63b8ff" d="M369.9,-125.8C346.45,-115.78 309.8,-100.12 283.17,-88.73"/>
<polygon fill="#63b8ff" stroke="#63b8ff" points="284.76,-85.6 274.19,-84.89 282,-92.04 284.76,-85.6"/>
</a>
</g>
</g>
<!-- Node6 -->
<g id="Node000006" class="node">
<title>Node6</title>
<g id="a_Node000006"><a xlink:href="ApplicationDispatcher_8h.html" target="_top" xlink:title=" ">
<polygon fill="white" stroke="#666666" points="460.5,-90.25 325.25,-90.25 325.25,-56.75 460.5,-56.75 460.5,-90.25"/>
<text xml:space="preserve" text-anchor="start" x="333.25" y="-76.75" font-family="Helvetica,sans-Serif" font-size="10.00">express/dispatcher</text>
<text xml:space="preserve" text-anchor="middle" x="392.88" y="-64" font-family="Helvetica,sans-Serif" font-size="10.00">/ApplicationDispatcher.h</text>
</a>
</g>
</g>
<!-- Node1&#45;&gt;Node6 -->
<g id="edge5_Node000001_Node000006" class="edge">
<title>Node1&#45;&gt;Node6</title>
<g id="a_edge5_Node000001_Node000006"><a xlink:title=" ">
<path fill="none" stroke="#63b8ff" d="M392.88,-125.8C392.88,-119.38 392.88,-110.65 392.88,-102.2"/>
<polygon fill="#63b8ff" stroke="#63b8ff" points="396.38,-102.25 392.88,-92.25 389.38,-102.25 396.38,-102.25"/>
</a>
</g>
</g>
<!-- Node8 -->
<g id="Node000008" class="node">
<title>Node8</title>
<g id="a_Node000008"><a xlink:href="MiddlewareDispatcher_8h.html" target="_top" xlink:title=" ">
<polygon fill="white" stroke="#666666" points="615.62,-90.25 478.12,-90.25 478.12,-56.75 615.62,-56.75 615.62,-90.25"/>
<text xml:space="preserve" text-anchor="start" x="486.12" y="-76.75" font-family="Helvetica,sans-Serif" font-size="10.00">express/dispatcher</text>
<text xml:space="preserve" text-anchor="middle" x="546.88" y="-64" font-family="Helvetica,sans-Serif" font-size="10.00">/MiddlewareDispatcher.h</text>
</a>
</g>
</g>
<!-- Node1&#45;&gt;Node8 -->
<g id="edge7_Node000001_Node000008" class="edge">
<title>Node1&#45;&gt;Node8</title>
<g id="a_edge7_Node000001_Node000008"><a xlink:title=" ">
<path fill="none" stroke="#63b8ff" d="M417.62,-125.8C438.54,-117.5 469.21,-105.33 495.43,-94.92"/>
<polygon fill="#63b8ff" stroke="#63b8ff" points="496.56,-98.24 504.57,-91.29 493.98,-91.73 496.56,-98.24"/>
</a>
</g>
</g>
<!-- Node9 -->
<g id="Node000009" class="node">
<title>Node9</title>
<g id="a_Node000009"><a xlink:href="RouterDispatcher_8h.html" target="_top" xlink:title=" ">
<polygon fill="white" stroke="#666666" points="746.25,-90.25 633.5,-90.25 633.5,-56.75 746.25,-56.75 746.25,-90.25"/>
<text xml:space="preserve" text-anchor="start" x="641.5" y="-76.75" font-family="Helvetica,sans-Serif" font-size="10.00">express/dispatcher</text>
<text xml:space="preserve" text-anchor="middle" x="689.88" y="-64" font-family="Helvetica,sans-Serif" font-size="10.00">/RouterDispatcher.h</text>
</a>
</g>
</g>
<!-- Node1&#45;&gt;Node9 -->
<g id="edge9_Node000001_Node000009" class="edge">
<title>Node1&#45;&gt;Node9</title>
<g id="a_edge9_Node000001_Node000009"><a xlink:title=" ">
<path fill="none" stroke="#63b8ff" d="M446,-125.93C490.62,-117.63 556.35,-105.04 622.2,-90.79"/>
<polygon fill="#63b8ff" stroke="#63b8ff" points="622.68,-94.26 631.71,-88.72 621.19,-87.42 622.68,-94.26"/>
</a>
</g>
</g>
<!-- Node3 -->
<g id="Node000003" class="node">
<title>Node3</title>
<g id="a_Node000003"><a xlink:href="MountPoint_8h.html" target="_top" xlink:title=" ">
<polygon fill="white" stroke="#666666" points="121.75,-20.75 0,-20.75 0,0 121.75,0 121.75,-20.75"/>
<text xml:space="preserve" text-anchor="middle" x="60.88" y="-7.25" font-family="Helvetica,sans-Serif" font-size="10.00">express/MountPoint.h</text>
</a>
</g>
</g>
<!-- Node2&#45;&gt;Node3 -->
<g id="edge2_Node000002_Node000003" class="edge">
<title>Node2&#45;&gt;Node3</title>
<g id="a_edge2_Node000002_Node000003"><a xlink:title=" ">
<path fill="none" stroke="#63b8ff" d="M116.27,-62.68C106.4,-53.54 91.46,-39.7 79.59,-28.7"/>
<polygon fill="#63b8ff" stroke="#63b8ff" points="82.06,-26.23 72.35,-22 77.3,-31.36 82.06,-26.23"/>
</a>
</g>
</g>
<!-- Node4 -->
<g id="Node000004" class="node">
<title>Node4</title>
<g id="a_Node000004"><a xlink:href="Route_8hpp.html" target="_top" xlink:title=" ">
<polygon fill="white" stroke="#666666" points="246.25,-20.75 139.5,-20.75 139.5,0 246.25,0 246.25,-20.75"/>
<text xml:space="preserve" text-anchor="middle" x="192.88" y="-7.25" font-family="Helvetica,sans-Serif" font-size="10.00">express/Route.hpp</text>
</a>
</g>
</g>
<!-- Node2&#45;&gt;Node4 -->
<g id="edge3_Node000002_Node000004" class="edge">
<title>Node2&#45;&gt;Node4</title>
<g id="a_edge3_Node000002_Node000004"><a xlink:title=" ">
<path fill="none" stroke="#63b8ff" d="M137.48,-62.68C147.35,-53.54 162.29,-39.7 174.16,-28.7"/>
<polygon fill="#63b8ff" stroke="#63b8ff" points="176.45,-31.36 181.4,-22 171.69,-26.23 176.45,-31.36"/>
</a>
</g>
</g>
<!-- Node7 -->
<g id="Node000007" class="node">
<title>Node7</title>
<g id="a_Node000007"><a xlink:href="Dispatcher_8h.html" target="_top" xlink:title=" ">
<polygon fill="white" stroke="#666666" points="606.25,-20.75 487.5,-20.75 487.5,0 606.25,0 606.25,-20.75"/>
<text xml:space="preserve" text-anchor="middle" x="546.88" y="-7.25" font-family="Helvetica,sans-Serif" font-size="10.00">express/Dispatcher.h</text>
</a>
</g>
</g>
<!-- Node6&#45;&gt;Node7 -->
<g id="edge6_Node000006_Node000007" class="edge">
<title>Node6&#45;&gt;Node7</title>
<g id="a_edge6_Node000006_Node000007"><a xlink:title=" ">
<path fill="none" stroke="#63b8ff" d="M433.74,-56.28C458.05,-46.63 488.57,-34.52 511.78,-25.3"/>
<polygon fill="#63b8ff" stroke="#63b8ff" points="512.8,-28.67 520.8,-21.72 510.22,-22.16 512.8,-28.67"/>
</a>
</g>
</g>
<!-- Node8&#45;&gt;Node7 -->
<g id="edge8_Node000008_Node000007" class="edge">
<title>Node8&#45;&gt;Node7</title>
<g id="a_edge8_Node000008_Node000007"><a xlink:title=" ">
<path fill="none" stroke="#63b8ff" d="M546.88,-56.44C546.88,-49.1 546.88,-40.32 546.88,-32.46"/>
<polygon fill="#63b8ff" stroke="#63b8ff" points="550.38,-32.73 546.88,-22.73 543.38,-32.73 550.38,-32.73"/>
</a>
</g>
</g>
<!-- Node9&#45;&gt;Node7 -->
<g id="edge10_Node000009_Node000007" class="edge">
<title>Node9&#45;&gt;Node7</title>
<g id="a_edge10_Node000009_Node000007"><a xlink:title=" ">
<path fill="none" stroke="#63b8ff" d="M651.93,-56.28C629.66,-46.76 601.78,-34.85 580.34,-25.68"/>
<polygon fill="#63b8ff" stroke="#63b8ff" points="581.74,-22.47 571.17,-21.76 578.99,-28.91 581.74,-22.47"/>
</a>
</g>
</g>
</g>
</svg>

<g id="navigator" transform="translate(0 0)" fill="#404254">
  <rect fill="#f2f5e9" fill-opacity="0.5" stroke="#606060" stroke-width=".5" x="0" y="0" width="60" height="60"/>
  <use id="zoomplus" xlink:href="#zoomPlus" x="17" y="9" onmousedown="handleZoom(evt,'in')"/>
  <use id="zoomminus" xlink:href="#zoomMin" x="42" y="9" onmousedown="handleZoom(evt,'out')"/>
  <use id="reset" xlink:href="#resetDef" x="30" y="36" onmousedown="handleReset()"/>
   <use id="arrowup" xlink:href="#arrowUp" x="0" y="0" onmousedown="handlePan(0,-1)"/>
  <use id="arrowright" xlink:href="#arrowRight" x="0" y="0" onmousedown="handlePan(1,0)"/>
  <use id="arrowdown" xlink:href="#arrowDown" x="0" y="0" onmousedown="handlePan(0,1)"/>
  <use id="arrowleft" xlink:href="#arrowLeft" x="0" y="0" onmousedown="handlePan(-1,0)"/>
</g>
<svg viewBox="0 0 15 15" width="100%" height="30px" preserveAspectRatio="xMaxYMin meet">
 <g id="arrow_out" transform="scale(0.3 0.3)">
  <a xlink:href="Route_8cpp__incl_org.svg" target="_base">
   <rect id="button" ry="5" rx="5" y="6" x="6" height="38" width="38"
        fill="#f2f5e9" fill-opacity="0.5" stroke="#606060" stroke-width="1.0"/>
   <path id="arrow"
     d="M 11.500037,31.436501 C 11.940474,20.09759 22.043105,11.32322 32.158766,21.979434 L 37.068811,17.246167 C 37.068811,17.246167 37.088388,32 37.088388,32 L 22.160133,31.978069 C 22.160133,31.978069 26.997745,27.140456 26.997745,27.140456 C 18.528582,18.264221 13.291696,25.230495 11.500037,31.436501 z"
     style="fill:#404040;"/>
  </a>
 </g>
</svg>

<style type='text/css'>
<![CDATA[
[data-mouse-over-selected='false'] { opacity: 0.7; }
[data-mouse-over-selected='true']  { opacity: 1.0; }
]]>
</style>
<script type="application/ecmascript"><![CDATA[
document.addEventListener('DOMContentLoaded', (event) => {
  highlightEdges();
  highlightAdjacentNodes();
});
]]></script>
</svg>
