<?xml version="1.0" encoding="UTF-8" standalone="no"?>
<!DOCTYPE svg PUBLIC "-//W3C//DTD SVG 1.1//EN"
 "http://www.w3.org/Graphics/SVG/1.1/DTD/svg11.dtd">
<!-- Generated by graphviz version 2.43.0 (0)
 -->
<!-- Title: core/socket/stream/SocketConnector.hpp Pages: 1 -->
<svg width="446pt" height="335pt"
 viewBox="0.00 0.00 446.00 335.00" xmlns="http://www.w3.org/2000/svg" xmlns:xlink="http://www.w3.org/1999/xlink">
<g id="graph0" class="graph" transform="scale(1 1) rotate(0) translate(4 331)">
<title>core/socket/stream/SocketConnector.hpp</title>
<!-- Node1 -->
<g id="Node000001" class="node">
<title>Node1</title>
<g id="a_Node000001"><a xlink:title=" ">
<polygon fill="#999999" stroke="#666666" points="219,-327 97,-327 97,-297 219,-297 219,-327"/>
<text text-anchor="start" x="105" y="-315" font-family="Helvetica,sans-Serif" font-size="10.00">core/socket/stream</text>
<text text-anchor="middle" x="158" y="-304" font-family="Helvetica,sans-Serif" font-size="10.00">/SocketConnector.hpp</text>
</a>
</g>
</g>
<!-- Node2 -->
<g id="Node000002" class="node">
<title>Node2</title>
<g id="a_Node000002"><a xlink:href="SocketConnectionFactory_8hpp.html" target="_top" xlink:title=" ">
<polygon fill="white" stroke="#666666" points="162,-261 0,-261 0,-231 162,-231 162,-261"/>
<text text-anchor="start" x="8" y="-249" font-family="Helvetica,sans-Serif" font-size="10.00">core/socket/stream</text>
<text text-anchor="middle" x="81" y="-238" font-family="Helvetica,sans-Serif" font-size="10.00">/SocketConnectionFactory.hpp</text>
</a>
</g>
</g>
<!-- Node1&#45;&gt;Node2 -->
<g id="edge1_Node000001_Node000002" class="edge">
<title>Node1&#45;&gt;Node2</title>
<g id="a_edge1_Node000001_Node000002"><a xlink:title=" ">
<path fill="none" stroke="#63b8ff" d="M140.91,-296.8C130.64,-288.26 117.4,-277.25 105.97,-267.75"/>
<polygon fill="#63b8ff" stroke="#63b8ff" points="107.97,-264.86 98.04,-261.16 103.49,-270.25 107.97,-264.86"/>
</a>
</g>
</g>
<!-- Node4 -->
<g id="Node000004" class="node">
<title>Node4</title>
<g id="a_Node000004"><a xlink:href="SocketConnector_8h.html" target="_top" xlink:title=" ">
<polygon fill="white" stroke="#666666" points="292,-261 182,-261 182,-231 292,-231 292,-261"/>
<text text-anchor="start" x="190" y="-249" font-family="Helvetica,sans-Serif" font-size="10.00">core/socket/stream</text>
<text text-anchor="middle" x="237" y="-238" font-family="Helvetica,sans-Serif" font-size="10.00">/SocketConnector.h</text>
</a>
</g>
</g>
<!-- Node1&#45;&gt;Node4 -->
<g id="edge3_Node000001_Node000004" class="edge">
<title>Node1&#45;&gt;Node4</title>
<g id="a_edge3_Node000001_Node000004"><a xlink:title=" ">
<path fill="none" stroke="#63b8ff" d="M175.53,-296.8C186.17,-288.18 199.92,-277.04 211.72,-267.48"/>
<polygon fill="#63b8ff" stroke="#63b8ff" points="213.95,-270.18 219.52,-261.16 209.54,-264.74 213.95,-270.18"/>
</a>
</g>
</g>
<!-- Node3 -->
<g id="Node000003" class="node">
<title>Node3</title>
<g id="a_Node000003"><a xlink:href="SocketConnectionFactory_8h.html" target="_top" xlink:title=" ">
<polygon fill="white" stroke="#666666" points="152,-195 2,-195 2,-165 152,-165 152,-195"/>
<text text-anchor="start" x="10" y="-183" font-family="Helvetica,sans-Serif" font-size="10.00">core/socket/stream</text>
<text text-anchor="middle" x="77" y="-172" font-family="Helvetica,sans-Serif" font-size="10.00">/SocketConnectionFactory.h</text>
</a>
</g>
</g>
<!-- Node2&#45;&gt;Node3 -->
<g id="edge2_Node000002_Node000003" class="edge">
<title>Node2&#45;&gt;Node3</title>
<g id="a_edge2_Node000002_Node000003"><a xlink:title=" ">
<path fill="none" stroke="#63b8ff" d="M80.11,-230.8C79.65,-223.34 79.06,-213.99 78.53,-205.41"/>
<polygon fill="#63b8ff" stroke="#63b8ff" points="82,-204.93 77.89,-195.16 75.02,-205.36 82,-204.93"/>
</a>
</g>
</g>
<!-- Node4&#45;&gt;Node3 -->
<g id="edge9_Node000004_Node000003" class="edge">
<title>Node4&#45;&gt;Node3</title>
<g id="a_edge9_Node000004_Node000003"><a xlink:title=" ">
<path fill="none" stroke="#63b8ff" d="M201.89,-230.95C178.23,-221.49 146.84,-208.93 121.44,-198.78"/>
<polygon fill="#63b8ff" stroke="#63b8ff" points="122.62,-195.48 112.03,-195.01 120.02,-201.98 122.62,-195.48"/>
</a>
</g>
</g>
<!-- Node5 -->
<g id="Node000005" class="node">
<title>Node5</title>
<g id="a_Node000005"><a xlink:href="ConnectEventReceiver_8h.html" target="_top" xlink:title=" ">
<polygon fill="white" stroke="#666666" points="309.5,-195 170.5,-195 170.5,-165 309.5,-165 309.5,-195"/>
<text text-anchor="start" x="178.5" y="-183" font-family="Helvetica,sans-Serif" font-size="10.00">core/eventreceiver</text>
<text text-anchor="middle" x="240" y="-172" font-family="Helvetica,sans-Serif" font-size="10.00">/ConnectEventReceiver.h</text>
</a>
</g>
</g>
<!-- Node4&#45;&gt;Node5 -->
<g id="edge4_Node000004_Node000005" class="edge">
<title>Node4&#45;&gt;Node5</title>
<g id="a_edge4_Node000004_Node000005"><a xlink:title=" ">
<path fill="none" stroke="#63b8ff" d="M237.67,-230.8C238.02,-223.34 238.45,-213.99 238.86,-205.41"/>
<polygon fill="#63b8ff" stroke="#63b8ff" points="242.36,-205.32 239.34,-195.16 235.37,-204.99 242.36,-205.32"/>
</a>
</g>
</g>
<!-- Node9 -->
<g id="Node000009" class="node">
<title>Node9</title>
<g id="a_Node000009"><a xlink:href="socket_2State_8h.html" target="_top" xlink:title=" ">
<polygon fill="white" stroke="#666666" points="438,-189.5 328,-189.5 328,-170.5 438,-170.5 438,-189.5"/>
<text text-anchor="middle" x="383" y="-177.5" font-family="Helvetica,sans-Serif" font-size="10.00">core/socket/State.h</text>
</a>
</g>
</g>
<!-- Node4&#45;&gt;Node9 -->
<g id="edge8_Node000004_Node000009" class="edge">
<title>Node4&#45;&gt;Node9</title>
<g id="a_edge8_Node000004_Node000009"><a xlink:title=" ">
<path fill="none" stroke="#63b8ff" d="M269.04,-230.95C294.42,-219.83 329.56,-204.42 354.09,-193.67"/>
<polygon fill="#63b8ff" stroke="#63b8ff" points="355.82,-196.74 363.57,-189.52 353.01,-190.33 355.82,-196.74"/>
</a>
</g>
</g>
<!-- Node6 -->
<g id="Node000006" class="node">
<title>Node6</title>
<g id="a_Node000006"><a xlink:href="DescriptorEventReceiver_8h.html" target="_top" xlink:title=" ">
<polygon fill="white" stroke="#666666" points="325,-129 155,-129 155,-110 325,-110 325,-129"/>
<text text-anchor="middle" x="240" y="-117" font-family="Helvetica,sans-Serif" font-size="10.00">core/DescriptorEventReceiver.h</text>
</a>
</g>
</g>
<!-- Node5&#45;&gt;Node6 -->
<g id="edge5_Node000005_Node000006" class="edge">
<title>Node5&#45;&gt;Node6</title>
<g id="a_edge5_Node000005_Node000006"><a xlink:title=" ">
<path fill="none" stroke="#63b8ff" d="M240,-164.84C240,-157.21 240,-147.7 240,-139.45"/>
<polygon fill="#63b8ff" stroke="#63b8ff" points="243.5,-139.27 240,-129.27 236.5,-139.27 243.5,-139.27"/>
</a>
</g>
</g>
<!-- Node7 -->
<g id="Node000007" class="node">
<title>Node7</title>
<g id="a_Node000007"><a xlink:href="EventReceiver_8h.html" target="_top" xlink:title=" ">
<polygon fill="white" stroke="#666666" points="300,-74 180,-74 180,-55 300,-55 300,-74"/>
<text text-anchor="middle" x="240" y="-62" font-family="Helvetica,sans-Serif" font-size="10.00">core/EventReceiver.h</text>
</a>
</g>
</g>
<!-- Node6&#45;&gt;Node7 -->
<g id="edge6_Node000006_Node000007" class="edge">
<title>Node6&#45;&gt;Node7</title>
<g id="a_edge6_Node000006_Node000007"><a xlink:title=" ">
<path fill="none" stroke="#63b8ff" d="M240,-109.75C240,-102.8 240,-92.85 240,-84.13"/>
<polygon fill="#63b8ff" stroke="#63b8ff" points="243.5,-84.09 240,-74.09 236.5,-84.09 243.5,-84.09"/>
</a>
</g>
</g>
<!-- Node8 -->
<g id="Node000008" class="node">
<title>Node8</title>
<g id="a_Node000008"><a xlink:href="Event_8h.html" target="_top" xlink:title=" ">
<polygon fill="white" stroke="#666666" points="278.5,-19 201.5,-19 201.5,0 278.5,0 278.5,-19"/>
<text text-anchor="middle" x="240" y="-7" font-family="Helvetica,sans-Serif" font-size="10.00">core/Event.h</text>
</a>
</g>
</g>
<!-- Node7&#45;&gt;Node8 -->
<g id="edge7_Node000007_Node000008" class="edge">
<title>Node7&#45;&gt;Node8</title>
<g id="a_edge7_Node000007_Node000008"><a xlink:title=" ">
<path fill="none" stroke="#63b8ff" d="M240,-54.75C240,-47.8 240,-37.85 240,-29.13"/>
<polygon fill="#63b8ff" stroke="#63b8ff" points="243.5,-29.09 240,-19.09 236.5,-29.09 243.5,-29.09"/>
</a>
</g>
</g>
</g>
</svg>
