<?xml version="1.0" encoding="UTF-8" standalone="no"?>
<!DOCTYPE svg PUBLIC "-//W3C//DTD SVG 1.1//EN"
 "http://www.w3.org/Graphics/SVG/1.1/DTD/svg11.dtd">
<!-- Generated by graphviz version 2.43.0 (0)
 -->
<!-- Title: iot/mqtt/types/String.h Pages: 1 -->
<svg width="2372pt" height="346pt"
 viewBox="0.00 0.00 2371.50 346.00" xmlns="http://www.w3.org/2000/svg" xmlns:xlink="http://www.w3.org/1999/xlink">
<g id="graph0" class="graph" transform="scale(1 1) rotate(0) translate(4 342)">
<title>iot/mqtt/types/String.h</title>
<!-- Node1 -->
<g id="Node000001" class="node">
<title>Node1</title>
<g id="a_Node000001"><a xlink:title=" ">
<polygon fill="#999999" stroke="#666666" points="1052.5,-338 939.5,-338 939.5,-319 1052.5,-319 1052.5,-338"/>
<text text-anchor="middle" x="996" y="-326" font-family="Helvetica,sans-Serif" font-size="10.00">iot/mqtt/types/String.h</text>
</a>
</g>
</g>
<!-- Node2 -->
<g id="Node000002" class="node">
<title>Node2</title>
<g id="a_Node000002"><a xlink:href="mqtt_2packets_2Connect_8h.html" target="_top" xlink:title=" ">
<polygon fill="white" stroke="#666666" points="361.5,-156.5 226.5,-156.5 226.5,-137.5 361.5,-137.5 361.5,-156.5"/>
<text text-anchor="middle" x="294" y="-144.5" font-family="Helvetica,sans-Serif" font-size="10.00">iot/mqtt/packets/Connect.h</text>
</a>
</g>
</g>
<!-- Node1&#45;&gt;Node2 -->
<g id="edge1_Node000001_Node000002" class="edge">
<title>Node1&#45;&gt;Node2</title>
<g id="a_edge1_Node000001_Node000002"><a xlink:title=" ">
<path fill="none" stroke="#63b8ff" d="M929.22,-328.05C842.92,-327.1 688.83,-319.7 563,-283 457.66,-252.28 344.13,-181.12 306.73,-156.53"/>
<polygon fill="#63b8ff" stroke="#63b8ff" points="929.37,-331.55 939.4,-328.14 929.43,-324.55 929.37,-331.55"/>
</a>
</g>
</g>
<!-- Node8 -->
<g id="Node000008" class="node">
<title>Node8</title>
<g id="a_Node000008"><a xlink:href="mqtt_2packets_2Publish_8h.html" target="_top" xlink:title=" ">
<polygon fill="white" stroke="#666666" points="984.5,-283 853.5,-283 853.5,-264 984.5,-264 984.5,-283"/>
<text text-anchor="middle" x="919" y="-271" font-family="Helvetica,sans-Serif" font-size="10.00">iot/mqtt/packets/Publish.h</text>
</a>
</g>
</g>
<!-- Node1&#45;&gt;Node8 -->
<g id="edge7_Node000001_Node000008" class="edge">
<title>Node1&#45;&gt;Node8</title>
<g id="a_edge7_Node000001_Node000008"><a xlink:title=" ">
<path fill="none" stroke="#63b8ff" d="M975.15,-313.15C961.24,-303.57 943.39,-291.29 931.6,-283.17"/>
<polygon fill="#63b8ff" stroke="#63b8ff" points="973.41,-316.2 983.63,-318.98 977.38,-310.43 973.41,-316.2"/>
</a>
</g>
</g>
<!-- Node34 -->
<g id="Node000034" class="node">
<title>Node34</title>
<g id="a_Node000034"><a xlink:href="mqtt_2packets_2Subscribe_8cpp.html" target="_top" xlink:title=" ">
<polygon fill="white" stroke="#666666" points="1432,-222.5 1280,-222.5 1280,-203.5 1432,-203.5 1432,-222.5"/>
<text text-anchor="middle" x="1356" y="-210.5" font-family="Helvetica,sans-Serif" font-size="10.00">iot/mqtt/packets/Subscribe.cpp</text>
</a>
</g>
</g>
<!-- Node1&#45;&gt;Node34 -->
<g id="edge40_Node000001_Node000034" class="edge">
<title>Node1&#45;&gt;Node34</title>
<g id="a_edge40_Node000001_Node000034"><a xlink:title=" ">
<path fill="none" stroke="#63b8ff" d="M1043.91,-316.52C1075.64,-308.63 1117.91,-296.96 1154,-283 1171.61,-276.19 1174.46,-271 1192,-264 1235.96,-246.45 1288.57,-231.42 1322.14,-222.54"/>
<polygon fill="#63b8ff" stroke="#63b8ff" points="1042.89,-313.16 1034,-318.94 1044.55,-319.96 1042.89,-313.16"/>
</a>
</g>
</g>
<!-- Node35 -->
<g id="Node000035" class="node">
<title>Node35</title>
<g id="a_Node000035"><a xlink:href="mqtt_2packets_2Subscribe_8h.html" target="_top" xlink:title=" ">
<polygon fill="white" stroke="#666666" points="1145,-283 1003,-283 1003,-264 1145,-264 1145,-283"/>
<text text-anchor="middle" x="1074" y="-271" font-family="Helvetica,sans-Serif" font-size="10.00">iot/mqtt/packets/Subscribe.h</text>
</a>
</g>
</g>
<!-- Node1&#45;&gt;Node35 -->
<g id="edge41_Node000001_Node000035" class="edge">
<title>Node1&#45;&gt;Node35</title>
<g id="a_edge41_Node000001_Node000035"><a xlink:title=" ">
<path fill="none" stroke="#63b8ff" d="M1017.12,-313.15C1031.21,-303.57 1049.29,-291.29 1061.24,-283.17"/>
<polygon fill="#63b8ff" stroke="#63b8ff" points="1014.84,-310.47 1008.53,-318.98 1018.77,-316.26 1014.84,-310.47"/>
</a>
</g>
</g>
<!-- Node38 -->
<g id="Node000038" class="node">
<title>Node38</title>
<g id="a_Node000038"><a xlink:href="mqtt_2packets_2Unsubscribe_8h.html" target="_top" xlink:title=" ">
<polygon fill="white" stroke="#666666" points="599.5,-156.5 446.5,-156.5 446.5,-137.5 599.5,-137.5 599.5,-156.5"/>
<text text-anchor="middle" x="523" y="-144.5" font-family="Helvetica,sans-Serif" font-size="10.00">iot/mqtt/packets/Unsubscribe.h</text>
</a>
</g>
</g>
<!-- Node1&#45;&gt;Node38 -->
<g id="edge47_Node000001_Node000038" class="edge">
<title>Node1&#45;&gt;Node38</title>
<g id="a_edge47_Node000001_Node000038"><a xlink:title=" ">
<path fill="none" stroke="#63b8ff" d="M928.88,-324.08C806.99,-316.32 556.94,-292.72 504,-228 486.65,-206.79 506.01,-172.39 516.78,-156.52"/>
<polygon fill="#63b8ff" stroke="#63b8ff" points="929,-327.6 939.2,-324.72 929.44,-320.61 929,-327.6"/>
</a>
</g>
</g>
<!-- Node42 -->
<g id="Node000042" class="node">
<title>Node42</title>
<g id="a_Node000042"><a xlink:href="String_8cpp.html" target="_top" xlink:title=" ">
<polygon fill="white" stroke="#666666" points="1325,-283 1201,-283 1201,-264 1325,-264 1325,-283"/>
<text text-anchor="middle" x="1263" y="-271" font-family="Helvetica,sans-Serif" font-size="10.00">iot/mqtt/types/String.cpp</text>
</a>
</g>
</g>
<!-- Node1&#45;&gt;Node42 -->
<g id="edge53_Node000001_Node000042" class="edge">
<title>Node1&#45;&gt;Node42</title>
<g id="a_edge53_Node000001_Node000042"><a xlink:title=" ">
<path fill="none" stroke="#63b8ff" d="M1048.88,-317C1098.93,-307.07 1173.16,-292.33 1219.77,-283.08"/>
<polygon fill="#63b8ff" stroke="#63b8ff" points="1048.03,-313.6 1038.9,-318.98 1049.39,-320.47 1048.03,-313.6"/>
</a>
</g>
</g>
<!-- Node3 -->
<g id="Node000003" class="node">
<title>Node3</title>
<g id="a_Node000003"><a xlink:href="client_2Mqtt_8cpp.html" target="_top" xlink:title=" ">
<polygon fill="white" stroke="#666666" points="734.5,-90.5 617.5,-90.5 617.5,-71.5 734.5,-71.5 734.5,-90.5"/>
<text text-anchor="middle" x="676" y="-78.5" font-family="Helvetica,sans-Serif" font-size="10.00">iot/mqtt/client/Mqtt.cpp</text>
</a>
</g>
</g>
<!-- Node2&#45;&gt;Node3 -->
<g id="edge2_Node000002_Node000003" class="edge">
<title>Node2&#45;&gt;Node3</title>
<g id="a_edge2_Node000002_Node000003"><a xlink:title=" ">
<path fill="none" stroke="#63b8ff" d="M363.04,-136.03C426.97,-126.56 524.61,-111.51 609,-96 618,-94.35 627.65,-92.42 636.74,-90.54"/>
<polygon fill="#63b8ff" stroke="#63b8ff" points="362.45,-132.58 353.07,-137.5 363.48,-139.5 362.45,-132.58"/>
</a>
</g>
</g>
<!-- Node4 -->
<g id="Node000004" class="node">
<title>Node4</title>
<g id="a_Node000004"><a xlink:href="mqtt_2packets_2Connect_8cpp.html" target="_top" xlink:title=" ">
<polygon fill="white" stroke="#666666" points="146,-90.5 0,-90.5 0,-71.5 146,-71.5 146,-90.5"/>
<text text-anchor="middle" x="73" y="-78.5" font-family="Helvetica,sans-Serif" font-size="10.00">iot/mqtt/packets/Connect.cpp</text>
</a>
</g>
</g>
<!-- Node2&#45;&gt;Node4 -->
<g id="edge3_Node000002_Node000004" class="edge">
<title>Node2&#45;&gt;Node4</title>
<g id="a_edge3_Node000002_Node000004"><a xlink:title=" ">
<path fill="none" stroke="#63b8ff" d="M254.51,-134.56C210.95,-121.95 141.86,-101.94 102.68,-90.6"/>
<polygon fill="#63b8ff" stroke="#63b8ff" points="253.62,-137.95 264.19,-137.37 255.56,-131.23 253.62,-137.95"/>
</a>
</g>
</g>
<!-- Node5 -->
<g id="Node000005" class="node">
<title>Node5</title>
<g id="a_Node000005"><a xlink:href="mqtt_2server_2packets_2Connect_8h.html" target="_top" xlink:title=" ">
<polygon fill="white" stroke="#666666" points="281.5,-96 164.5,-96 164.5,-66 281.5,-66 281.5,-96"/>
<text text-anchor="start" x="172.5" y="-84" font-family="Helvetica,sans-Serif" font-size="10.00">iot/mqtt/server/packets</text>
<text text-anchor="middle" x="223" y="-73" font-family="Helvetica,sans-Serif" font-size="10.00">/Connect.h</text>
</a>
</g>
</g>
<!-- Node2&#45;&gt;Node5 -->
<g id="edge4_Node000002_Node000005" class="edge">
<title>Node2&#45;&gt;Node5</title>
<g id="a_edge4_Node000002_Node000005"><a xlink:title=" ">
<path fill="none" stroke="#63b8ff" d="M276.71,-130.41C265.09,-119.94 249.92,-106.26 238.66,-96.12"/>
<polygon fill="#63b8ff" stroke="#63b8ff" points="274.65,-133.27 284.42,-137.37 279.34,-128.07 274.65,-133.27"/>
</a>
</g>
</g>
<!-- Node6 -->
<g id="Node000006" class="node">
<title>Node6</title>
<g id="a_Node000006"><a xlink:href="server_2Mqtt_8cpp.html" target="_top" xlink:title=" ">
<polygon fill="white" stroke="#666666" points="849.5,-24.5 728.5,-24.5 728.5,-5.5 849.5,-5.5 849.5,-24.5"/>
<text text-anchor="middle" x="789" y="-12.5" font-family="Helvetica,sans-Serif" font-size="10.00">iot/mqtt/server/Mqtt.cpp</text>
</a>
</g>
</g>
<!-- Node5&#45;&gt;Node6 -->
<g id="edge5_Node000005_Node000006" class="edge">
<title>Node5&#45;&gt;Node6</title>
<g id="a_edge5_Node000005_Node000006"><a xlink:title=" ">
<path fill="none" stroke="#63b8ff" d="M291.52,-66.07C390.21,-51.85 618.73,-31.01 728.42,-21.29"/>
<polygon fill="#63b8ff" stroke="#63b8ff" points="290.91,-62.62 281.54,-67.55 291.94,-69.54 290.91,-62.62"/>
</a>
</g>
</g>
<!-- Node7 -->
<g id="Node000007" class="node">
<title>Node7</title>
<g id="a_Node000007"><a xlink:href="mqtt_2server_2packets_2Connect_8cpp.html" target="_top" xlink:title=" ">
<polygon fill="white" stroke="#666666" points="281.5,-30 164.5,-30 164.5,0 281.5,0 281.5,-30"/>
<text text-anchor="start" x="172.5" y="-18" font-family="Helvetica,sans-Serif" font-size="10.00">iot/mqtt/server/packets</text>
<text text-anchor="middle" x="223" y="-7" font-family="Helvetica,sans-Serif" font-size="10.00">/Connect.cpp</text>
</a>
</g>
</g>
<!-- Node5&#45;&gt;Node7 -->
<g id="edge6_Node000005_Node000007" class="edge">
<title>Node5&#45;&gt;Node7</title>
<g id="a_edge6_Node000005_Node000007"><a xlink:title=" ">
<path fill="none" stroke="#63b8ff" d="M223,-55.54C223,-46.96 223,-37.61 223,-30.16"/>
<polygon fill="#63b8ff" stroke="#63b8ff" points="219.5,-55.8 223,-65.8 226.5,-55.8 219.5,-55.8"/>
</a>
</g>
</g>
<!-- Node9 -->
<g id="Node000009" class="node">
<title>Node9</title>
<g id="a_Node000009"><a xlink:href="Mqtt_8cpp.html" target="_top" xlink:title=" ">
<polygon fill="white" stroke="#666666" points="1084.5,-156.5 993.5,-156.5 993.5,-137.5 1084.5,-137.5 1084.5,-156.5"/>
<text text-anchor="middle" x="1039" y="-144.5" font-family="Helvetica,sans-Serif" font-size="10.00">iot/mqtt/Mqtt.cpp</text>
</a>
</g>
</g>
<!-- Node8&#45;&gt;Node9 -->
<g id="edge8_Node000008_Node000009" class="edge">
<title>Node8&#45;&gt;Node9</title>
<g id="a_edge8_Node000008_Node000009"><a xlink:title=" ">
<path fill="none" stroke="#63b8ff" d="M934.34,-256.58C960,-229.96 1010.77,-177.29 1030.69,-156.62"/>
<polygon fill="#63b8ff" stroke="#63b8ff" points="931.67,-254.31 927.25,-263.94 936.71,-259.17 931.67,-254.31"/>
</a>
</g>
</g>
<!-- Node10 -->
<g id="Node000010" class="node">
<title>Node10</title>
<g id="a_Node000010"><a xlink:href="Session_8h.html" target="_top" xlink:title=" ">
<polygon fill="white" stroke="#666666" points="1126,-222.5 1030,-222.5 1030,-203.5 1126,-203.5 1126,-222.5"/>
<text text-anchor="middle" x="1078" y="-210.5" font-family="Helvetica,sans-Serif" font-size="10.00">iot/mqtt/Session.h</text>
</a>
</g>
</g>
<!-- Node8&#45;&gt;Node10 -->
<g id="edge9_Node000008_Node000010" class="edge">
<title>Node8&#45;&gt;Node10</title>
<g id="a_edge9_Node000008_Node000010"><a xlink:title=" ">
<path fill="none" stroke="#63b8ff" d="M951.55,-260.52C982.29,-249.21 1027.64,-232.53 1054.85,-222.52"/>
<polygon fill="#63b8ff" stroke="#63b8ff" points="950.3,-257.26 942.12,-263.99 952.71,-263.83 950.3,-257.26"/>
</a>
</g>
</g>
<!-- Node30 -->
<g id="Node000030" class="node">
<title>Node30</title>
<g id="a_Node000030"><a xlink:href="mqtt_2client_2packets_2Publish_8h.html" target="_top" xlink:title=" ">
<polygon fill="white" stroke="#666666" points="975.5,-162 862.5,-162 862.5,-132 975.5,-132 975.5,-162"/>
<text text-anchor="start" x="870.5" y="-150" font-family="Helvetica,sans-Serif" font-size="10.00">iot/mqtt/client/packets</text>
<text text-anchor="middle" x="919" y="-139" font-family="Helvetica,sans-Serif" font-size="10.00">/Publish.h</text>
</a>
</g>
</g>
<!-- Node8&#45;&gt;Node30 -->
<g id="edge33_Node000008_Node000030" class="edge">
<title>Node8&#45;&gt;Node30</title>
<g id="a_edge33_Node000008_Node000030"><a xlink:title=" ">
<path fill="none" stroke="#63b8ff" d="M919,-253.91C919,-228.83 919,-184.72 919,-162.16"/>
<polygon fill="#63b8ff" stroke="#63b8ff" points="915.5,-253.94 919,-263.94 922.5,-253.94 915.5,-253.94"/>
</a>
</g>
</g>
<!-- Node31 -->
<g id="Node000031" class="node">
<title>Node31</title>
<g id="a_Node000031"><a xlink:href="mqtt_2packets_2Publish_8cpp.html" target="_top" xlink:title=" ">
<polygon fill="white" stroke="#666666" points="653.5,-222.5 512.5,-222.5 512.5,-203.5 653.5,-203.5 653.5,-222.5"/>
<text text-anchor="middle" x="583" y="-210.5" font-family="Helvetica,sans-Serif" font-size="10.00">iot/mqtt/packets/Publish.cpp</text>
</a>
</g>
</g>
<!-- Node8&#45;&gt;Node31 -->
<g id="edge36_Node000008_Node000031" class="edge">
<title>Node8&#45;&gt;Node31</title>
<g id="a_edge36_Node000008_Node000031"><a xlink:title=" ">
<path fill="none" stroke="#63b8ff" d="M860.09,-262.24C795.31,-250.96 692.41,-233.05 631.92,-222.52"/>
<polygon fill="#63b8ff" stroke="#63b8ff" points="859.69,-265.73 870.14,-263.99 860.89,-258.83 859.69,-265.73"/>
</a>
</g>
</g>
<!-- Node32 -->
<g id="Node000032" class="node">
<title>Node32</title>
<g id="a_Node000032"><a xlink:href="mqtt_2server_2packets_2Publish_8h.html" target="_top" xlink:title=" ">
<polygon fill="white" stroke="#666666" points="844.5,-228 727.5,-228 727.5,-198 844.5,-198 844.5,-228"/>
<text text-anchor="start" x="735.5" y="-216" font-family="Helvetica,sans-Serif" font-size="10.00">iot/mqtt/server/packets</text>
<text text-anchor="middle" x="786" y="-205" font-family="Helvetica,sans-Serif" font-size="10.00">/Publish.h</text>
</a>
</g>
</g>
<!-- Node8&#45;&gt;Node32 -->
<g id="edge37_Node000008_Node000032" class="edge">
<title>Node8&#45;&gt;Node32</title>
<g id="a_edge37_Node000008_Node000032"><a xlink:title=" ">
<path fill="none" stroke="#63b8ff" d="M890.48,-259.95C869.18,-250.59 840.06,-237.78 817.98,-228.06"/>
<polygon fill="#63b8ff" stroke="#63b8ff" points="889.1,-263.17 899.66,-263.99 891.92,-256.76 889.1,-263.17"/>
</a>
</g>
</g>
<!-- Node10&#45;&gt;Node9 -->
<g id="edge10_Node000010_Node000009" class="edge">
<title>Node10&#45;&gt;Node9</title>
<g id="a_edge10_Node000010_Node000009"><a xlink:title=" ">
<path fill="none" stroke="#63b8ff" d="M1067.37,-194.55C1059.94,-182.36 1050.34,-166.61 1044.43,-156.91"/>
<polygon fill="#63b8ff" stroke="#63b8ff" points="1064.55,-196.65 1072.74,-203.37 1070.53,-193.01 1064.55,-196.65"/>
</a>
</g>
</g>
<!-- Node11 -->
<g id="Node000011" class="node">
<title>Node11</title>
<g id="a_Node000011"><a xlink:href="Session_8cpp.html" target="_top" xlink:title=" ">
<polygon fill="white" stroke="#666666" points="1209.5,-156.5 1102.5,-156.5 1102.5,-137.5 1209.5,-137.5 1209.5,-156.5"/>
<text text-anchor="middle" x="1156" y="-144.5" font-family="Helvetica,sans-Serif" font-size="10.00">iot/mqtt/Session.cpp</text>
</a>
</g>
</g>
<!-- Node10&#45;&gt;Node11 -->
<g id="edge11_Node000010_Node000011" class="edge">
<title>Node10&#45;&gt;Node11</title>
<g id="a_edge11_Node000010_Node000011"><a xlink:title=" ">
<path fill="none" stroke="#63b8ff" d="M1096.3,-196.99C1111.57,-184.46 1132.8,-167.04 1145.4,-156.7"/>
<polygon fill="#63b8ff" stroke="#63b8ff" points="1094.03,-194.32 1088.52,-203.37 1098.47,-199.73 1094.03,-194.32"/>
</a>
</g>
</g>
<!-- Node12 -->
<g id="Node000012" class="node">
<title>Node12</title>
<g id="a_Node000012"><a xlink:href="client_2Mqtt_8h.html" target="_top" xlink:title=" ">
<polygon fill="white" stroke="#666666" points="1639.5,-156.5 1532.5,-156.5 1532.5,-137.5 1639.5,-137.5 1639.5,-156.5"/>
<text text-anchor="middle" x="1586" y="-144.5" font-family="Helvetica,sans-Serif" font-size="10.00">iot/mqtt/client/Mqtt.h</text>
</a>
</g>
</g>
<!-- Node10&#45;&gt;Node12 -->
<g id="edge12_Node000010_Node000012" class="edge">
<title>Node10&#45;&gt;Node12</title>
<g id="a_edge12_Node000010_Node000012"><a xlink:title=" ">
<path fill="none" stroke="#63b8ff" d="M1120.13,-201.17C1125.45,-200 1130.84,-198.91 1136,-198 1278.07,-173.06 1447.68,-158.19 1532.35,-151.76"/>
<polygon fill="#63b8ff" stroke="#63b8ff" points="1119.02,-197.84 1110.06,-203.5 1120.59,-204.66 1119.02,-197.84"/>
</a>
</g>
</g>
<!-- Node22 -->
<g id="Node000022" class="node">
<title>Node22</title>
<g id="a_Node000022"><a xlink:href="server_2broker_2Session_8h.html" target="_top" xlink:title=" ">
<polygon fill="white" stroke="#666666" points="1338,-162 1228,-162 1228,-132 1338,-132 1338,-162"/>
<text text-anchor="start" x="1236" y="-150" font-family="Helvetica,sans-Serif" font-size="10.00">iot/mqtt/server/broker</text>
<text text-anchor="middle" x="1283" y="-139" font-family="Helvetica,sans-Serif" font-size="10.00">/Session.h</text>
</a>
</g>
</g>
<!-- Node10&#45;&gt;Node22 -->
<g id="edge23_Node000010_Node000022" class="edge">
<title>Node10&#45;&gt;Node22</title>
<g id="a_edge23_Node000010_Node000022"><a xlink:title=" ">
<path fill="none" stroke="#63b8ff" d="M1115.33,-200.35C1149.78,-189.59 1201.03,-173.59 1237.79,-162.12"/>
<polygon fill="#63b8ff" stroke="#63b8ff" points="1114.15,-197.05 1105.65,-203.37 1116.24,-203.73 1114.15,-197.05"/>
</a>
</g>
</g>
<!-- Node12&#45;&gt;Node3 -->
<g id="edge13_Node000012_Node000003" class="edge">
<title>Node12&#45;&gt;Node3</title>
<g id="a_edge13_Node000012_Node000003"><a xlink:title=" ">
<path fill="none" stroke="#63b8ff" d="M1522.26,-141.52C1353.61,-129.66 897.48,-97.58 734.71,-86.13"/>
<polygon fill="#63b8ff" stroke="#63b8ff" points="1522.25,-145.03 1532.47,-142.24 1522.74,-138.04 1522.25,-145.03"/>
</a>
</g>
</g>
<!-- Node13 -->
<g id="Node000013" class="node">
<title>Node13</title>
<g id="a_Node000013"><a xlink:href="mqtt_2client_2packets_2Connack_8cpp.html" target="_top" xlink:title=" ">
<polygon fill="white" stroke="#666666" points="2101.5,-96 1988.5,-96 1988.5,-66 2101.5,-66 2101.5,-96"/>
<text text-anchor="start" x="1996.5" y="-84" font-family="Helvetica,sans-Serif" font-size="10.00">iot/mqtt/client/packets</text>
<text text-anchor="middle" x="2045" y="-73" font-family="Helvetica,sans-Serif" font-size="10.00">/Connack.cpp</text>
</a>
</g>
</g>
<!-- Node12&#45;&gt;Node13 -->
<g id="edge14_Node000012_Node000013" class="edge">
<title>Node12&#45;&gt;Node13</title>
<g id="a_edge14_Node000012_Node000013"><a xlink:title=" ">
<path fill="none" stroke="#63b8ff" d="M1631.12,-135.34C1637.12,-134.11 1643.19,-132.96 1649,-132 1795.01,-107.91 1833.92,-119.61 1980,-96 1982.73,-95.56 1985.53,-95.08 1988.35,-94.56"/>
<polygon fill="#63b8ff" stroke="#63b8ff" points="1630.24,-131.95 1621.19,-137.46 1631.7,-138.8 1630.24,-131.95"/>
</a>
</g>
</g>
<!-- Node14 -->
<g id="Node000014" class="node">
<title>Node14</title>
<g id="a_Node000014"><a xlink:href="mqtt_2client_2packets_2Pingresp_8cpp.html" target="_top" xlink:title=" ">
<polygon fill="white" stroke="#666666" points="2232.5,-96 2119.5,-96 2119.5,-66 2232.5,-66 2232.5,-96"/>
<text text-anchor="start" x="2127.5" y="-84" font-family="Helvetica,sans-Serif" font-size="10.00">iot/mqtt/client/packets</text>
<text text-anchor="middle" x="2176" y="-73" font-family="Helvetica,sans-Serif" font-size="10.00">/Pingresp.cpp</text>
</a>
</g>
</g>
<!-- Node12&#45;&gt;Node14 -->
<g id="edge15_Node000012_Node000014" class="edge">
<title>Node12&#45;&gt;Node14</title>
<g id="a_edge15_Node000012_Node000014"><a xlink:title=" ">
<path fill="none" stroke="#63b8ff" d="M1629.99,-135.4C1636.34,-134.11 1642.82,-132.92 1649,-132 1852.7,-101.59 1907.2,-125.75 2111,-96 2113.74,-95.6 2116.54,-95.15 2119.36,-94.67"/>
<polygon fill="#63b8ff" stroke="#63b8ff" points="1629.22,-131.98 1620.17,-137.49 1630.68,-138.83 1629.22,-131.98"/>
</a>
</g>
</g>
<!-- Node15 -->
<g id="Node000015" class="node">
<title>Node15</title>
<g id="a_Node000015"><a xlink:href="mqtt_2client_2packets_2Puback_8cpp.html" target="_top" xlink:title=" ">
<polygon fill="white" stroke="#666666" points="2363.5,-96 2250.5,-96 2250.5,-66 2363.5,-66 2363.5,-96"/>
<text text-anchor="start" x="2258.5" y="-84" font-family="Helvetica,sans-Serif" font-size="10.00">iot/mqtt/client/packets</text>
<text text-anchor="middle" x="2307" y="-73" font-family="Helvetica,sans-Serif" font-size="10.00">/Puback.cpp</text>
</a>
</g>
</g>
<!-- Node12&#45;&gt;Node15 -->
<g id="edge16_Node000012_Node000015" class="edge">
<title>Node12&#45;&gt;Node15</title>
<g id="a_edge16_Node000012_Node000015"><a xlink:title=" ">
<path fill="none" stroke="#63b8ff" d="M1629.75,-135.35C1636.18,-134.05 1642.74,-132.88 1649,-132 1910.47,-95.25 1980.41,-131.9 2242,-96 2244.74,-95.62 2247.55,-95.19 2250.37,-94.73"/>
<polygon fill="#63b8ff" stroke="#63b8ff" points="1628.88,-131.95 1619.82,-137.45 1630.33,-138.8 1628.88,-131.95"/>
</a>
</g>
</g>
<!-- Node16 -->
<g id="Node000016" class="node">
<title>Node16</title>
<g id="a_Node000016"><a xlink:href="mqtt_2client_2packets_2Pubcomp_8cpp.html" target="_top" xlink:title=" ">
<polygon fill="white" stroke="#666666" points="1446.5,-96 1333.5,-96 1333.5,-66 1446.5,-66 1446.5,-96"/>
<text text-anchor="start" x="1341.5" y="-84" font-family="Helvetica,sans-Serif" font-size="10.00">iot/mqtt/client/packets</text>
<text text-anchor="middle" x="1390" y="-73" font-family="Helvetica,sans-Serif" font-size="10.00">/Pubcomp.cpp</text>
</a>
</g>
</g>
<!-- Node12&#45;&gt;Node16 -->
<g id="edge17_Node000012_Node000016" class="edge">
<title>Node12&#45;&gt;Node16</title>
<g id="a_edge17_Node000012_Node000016"><a xlink:title=" ">
<path fill="none" stroke="#63b8ff" d="M1549.88,-134.21C1516.95,-123.45 1468.22,-107.54 1433.23,-96.12"/>
<polygon fill="#63b8ff" stroke="#63b8ff" points="1548.97,-137.59 1559.57,-137.37 1551.15,-130.94 1548.97,-137.59"/>
</a>
</g>
</g>
<!-- Node17 -->
<g id="Node000017" class="node">
<title>Node17</title>
<g id="a_Node000017"><a xlink:href="mqtt_2client_2packets_2Publish_8cpp.html" target="_top" xlink:title=" ">
<polygon fill="white" stroke="#666666" points="999.5,-96 886.5,-96 886.5,-66 999.5,-66 999.5,-96"/>
<text text-anchor="start" x="894.5" y="-84" font-family="Helvetica,sans-Serif" font-size="10.00">iot/mqtt/client/packets</text>
<text text-anchor="middle" x="943" y="-73" font-family="Helvetica,sans-Serif" font-size="10.00">/Publish.cpp</text>
</a>
</g>
</g>
<!-- Node12&#45;&gt;Node17 -->
<g id="edge18_Node000012_Node000017" class="edge">
<title>Node12&#45;&gt;Node17</title>
<g id="a_edge18_Node000012_Node000017"><a xlink:title=" ">
<path fill="none" stroke="#63b8ff" d="M1522.21,-141.72C1418.69,-134.45 1207.76,-118.27 1030,-96 1020.13,-94.76 1009.67,-93.25 999.54,-91.69"/>
<polygon fill="#63b8ff" stroke="#63b8ff" points="1521.97,-145.21 1532.19,-142.42 1522.46,-138.23 1521.97,-145.21"/>
</a>
</g>
</g>
<!-- Node18 -->
<g id="Node000018" class="node">
<title>Node18</title>
<g id="a_Node000018"><a xlink:href="mqtt_2client_2packets_2Pubrec_8cpp.html" target="_top" xlink:title=" ">
<polygon fill="white" stroke="#666666" points="1577.5,-96 1464.5,-96 1464.5,-66 1577.5,-66 1577.5,-96"/>
<text text-anchor="start" x="1472.5" y="-84" font-family="Helvetica,sans-Serif" font-size="10.00">iot/mqtt/client/packets</text>
<text text-anchor="middle" x="1521" y="-73" font-family="Helvetica,sans-Serif" font-size="10.00">/Pubrec.cpp</text>
</a>
</g>
</g>
<!-- Node12&#45;&gt;Node18 -->
<g id="edge19_Node000012_Node000018" class="edge">
<title>Node12&#45;&gt;Node18</title>
<g id="a_edge19_Node000012_Node000018"><a xlink:title=" ">
<path fill="none" stroke="#63b8ff" d="M1569.91,-130.16C1559.4,-119.81 1545.78,-106.4 1535.58,-96.36"/>
<polygon fill="#63b8ff" stroke="#63b8ff" points="1567.65,-132.85 1577.23,-137.37 1572.56,-127.86 1567.65,-132.85"/>
</a>
</g>
</g>
<!-- Node19 -->
<g id="Node000019" class="node">
<title>Node19</title>
<g id="a_Node000019"><a xlink:href="mqtt_2client_2packets_2Pubrel_8cpp.html" target="_top" xlink:title=" ">
<polygon fill="white" stroke="#666666" points="1708.5,-96 1595.5,-96 1595.5,-66 1708.5,-66 1708.5,-96"/>
<text text-anchor="start" x="1603.5" y="-84" font-family="Helvetica,sans-Serif" font-size="10.00">iot/mqtt/client/packets</text>
<text text-anchor="middle" x="1652" y="-73" font-family="Helvetica,sans-Serif" font-size="10.00">/Pubrel.cpp</text>
</a>
</g>
</g>
<!-- Node12&#45;&gt;Node19 -->
<g id="edge20_Node000012_Node000019" class="edge">
<title>Node12&#45;&gt;Node19</title>
<g id="a_edge20_Node000012_Node000019"><a xlink:title=" ">
<path fill="none" stroke="#63b8ff" d="M1602.39,-130.1C1613.15,-119.68 1627.08,-106.16 1637.44,-96.12"/>
<polygon fill="#63b8ff" stroke="#63b8ff" points="1599.64,-127.89 1594.9,-137.37 1604.52,-132.92 1599.64,-127.89"/>
</a>
</g>
</g>
<!-- Node20 -->
<g id="Node000020" class="node">
<title>Node20</title>
<g id="a_Node000020"><a xlink:href="mqtt_2client_2packets_2Suback_8cpp.html" target="_top" xlink:title=" ">
<polygon fill="white" stroke="#666666" points="1839.5,-96 1726.5,-96 1726.5,-66 1839.5,-66 1839.5,-96"/>
<text text-anchor="start" x="1734.5" y="-84" font-family="Helvetica,sans-Serif" font-size="10.00">iot/mqtt/client/packets</text>
<text text-anchor="middle" x="1783" y="-73" font-family="Helvetica,sans-Serif" font-size="10.00">/Suback.cpp</text>
</a>
</g>
</g>
<!-- Node12&#45;&gt;Node20 -->
<g id="edge21_Node000012_Node000020" class="edge">
<title>Node12&#45;&gt;Node20</title>
<g id="a_edge21_Node000012_Node000020"><a xlink:title=" ">
<path fill="none" stroke="#63b8ff" d="M1622.3,-134.21C1655.41,-123.45 1704.38,-107.54 1739.55,-96.12"/>
<polygon fill="#63b8ff" stroke="#63b8ff" points="1621,-130.95 1612.57,-137.37 1623.16,-137.61 1621,-130.95"/>
</a>
</g>
</g>
<!-- Node21 -->
<g id="Node000021" class="node">
<title>Node21</title>
<g id="a_Node000021"><a xlink:href="mqtt_2client_2packets_2Unsuback_8cpp.html" target="_top" xlink:title=" ">
<polygon fill="white" stroke="#666666" points="1970.5,-96 1857.5,-96 1857.5,-66 1970.5,-66 1970.5,-96"/>
<text text-anchor="start" x="1865.5" y="-84" font-family="Helvetica,sans-Serif" font-size="10.00">iot/mqtt/client/packets</text>
<text text-anchor="middle" x="1914" y="-73" font-family="Helvetica,sans-Serif" font-size="10.00">/Unsuback.cpp</text>
</a>
</g>
</g>
<!-- Node12&#45;&gt;Node21 -->
<g id="edge22_Node000012_Node000021" class="edge">
<title>Node12&#45;&gt;Node21</title>
<g id="a_edge22_Node000012_Node000021"><a xlink:title=" ">
<path fill="none" stroke="#63b8ff" d="M1633.32,-135.27C1638.6,-134.13 1643.91,-133.02 1649,-132 1737.55,-114.2 1760.4,-113.51 1849,-96 1851.72,-95.46 1854.5,-94.9 1857.3,-94.33"/>
<polygon fill="#63b8ff" stroke="#63b8ff" points="1632.28,-131.91 1623.26,-137.46 1633.77,-138.75 1632.28,-131.91"/>
</a>
</g>
</g>
<!-- Node22&#45;&gt;Node6 -->
<g id="edge24_Node000022_Node000006" class="edge">
<title>Node22&#45;&gt;Node6</title>
<g id="a_edge24_Node000022_Node000006"><a xlink:title=" ">
<path fill="none" stroke="#63b8ff" d="M1217.79,-131.98C1066.31,-109.79 1014.24,-156.63 878,-96 840.99,-79.53 808.72,-41.73 795.45,-24.66"/>
<polygon fill="#63b8ff" stroke="#63b8ff" points="1217.5,-135.48 1227.92,-133.55 1218.57,-128.56 1217.5,-135.48"/>
</a>
</g>
</g>
<!-- Node23 -->
<g id="Node000023" class="node">
<title>Node23</title>
<g id="a_Node000023"><a xlink:href="Broker_8h.html" target="_top" xlink:title=" ">
<polygon fill="white" stroke="#666666" points="1315,-96 1205,-96 1205,-66 1315,-66 1315,-96"/>
<text text-anchor="start" x="1213" y="-84" font-family="Helvetica,sans-Serif" font-size="10.00">iot/mqtt/server/broker</text>
<text text-anchor="middle" x="1260" y="-73" font-family="Helvetica,sans-Serif" font-size="10.00">/Broker.h</text>
</a>
</g>
</g>
<!-- Node22&#45;&gt;Node23 -->
<g id="edge25_Node000022_Node000023" class="edge">
<title>Node22&#45;&gt;Node23</title>
<g id="a_edge25_Node000022_Node000023"><a xlink:title=" ">
<path fill="none" stroke="#63b8ff" d="M1274.41,-122.11C1271.28,-113.38 1267.83,-103.78 1265.09,-96.16"/>
<polygon fill="#63b8ff" stroke="#63b8ff" points="1271.22,-123.57 1277.9,-131.8 1277.81,-121.2 1271.22,-123.57"/>
</a>
</g>
</g>
<!-- Node29 -->
<g id="Node000029" class="node">
<title>Node29</title>
<g id="a_Node000029"><a xlink:href="server_2broker_2Session_8cpp.html" target="_top" xlink:title=" ">
<polygon fill="white" stroke="#666666" points="1149,-96 1039,-96 1039,-66 1149,-66 1149,-96"/>
<text text-anchor="start" x="1047" y="-84" font-family="Helvetica,sans-Serif" font-size="10.00">iot/mqtt/server/broker</text>
<text text-anchor="middle" x="1094" y="-73" font-family="Helvetica,sans-Serif" font-size="10.00">/Session.cpp</text>
</a>
</g>
</g>
<!-- Node22&#45;&gt;Node29 -->
<g id="edge32_Node000022_Node000029" class="edge">
<title>Node22&#45;&gt;Node29</title>
<g id="a_edge32_Node000022_Node000029"><a xlink:title=" ">
<path fill="none" stroke="#63b8ff" d="M1231.98,-128.72C1201.7,-118.47 1163.79,-105.63 1135.38,-96.01"/>
<polygon fill="#63b8ff" stroke="#63b8ff" points="1230.93,-132.06 1241.52,-131.95 1233.17,-125.43 1230.93,-132.06"/>
</a>
</g>
</g>
<!-- Node23&#45;&gt;Node6 -->
<g id="edge26_Node000023_Node000006" class="edge">
<title>Node23&#45;&gt;Node6</title>
<g id="a_edge26_Node000023_Node000006"><a xlink:title=" ">
<path fill="none" stroke="#63b8ff" d="M1194.8,-66.63C1193.52,-66.42 1192.26,-66.21 1191,-66 1126.8,-55.51 945.45,-34.07 849.8,-22.98"/>
<polygon fill="#63b8ff" stroke="#63b8ff" points="1194.25,-70.09 1204.71,-68.39 1195.47,-63.2 1194.25,-70.09"/>
</a>
</g>
</g>
<!-- Node24 -->
<g id="Node000024" class="node">
<title>Node24</title>
<g id="a_Node000024"><a xlink:href="SharedSocketContextFactory_8cpp.html" target="_top" xlink:title=" ">
<polygon fill="white" stroke="#666666" points="1332,-30 1188,-30 1188,0 1332,0 1332,-30"/>
<text text-anchor="start" x="1196" y="-18" font-family="Helvetica,sans-Serif" font-size="10.00">iot/mqtt/server/SharedSocket</text>
<text text-anchor="middle" x="1260" y="-7" font-family="Helvetica,sans-Serif" font-size="10.00">ContextFactory.cpp</text>
</a>
</g>
</g>
<!-- Node23&#45;&gt;Node24 -->
<g id="edge27_Node000023_Node000024" class="edge">
<title>Node23&#45;&gt;Node24</title>
<g id="a_edge27_Node000023_Node000024"><a xlink:title=" ">
<path fill="none" stroke="#63b8ff" d="M1260,-55.54C1260,-46.96 1260,-37.61 1260,-30.16"/>
<polygon fill="#63b8ff" stroke="#63b8ff" points="1256.5,-55.8 1260,-65.8 1263.5,-55.8 1256.5,-55.8"/>
</a>
</g>
</g>
<!-- Node25 -->
<g id="Node000025" class="node">
<title>Node25</title>
<g id="a_Node000025"><a xlink:href="iot_2mqtt_2server_2SocketContextFactory_8cpp.html" target="_top" xlink:title=" ">
<polygon fill="white" stroke="#666666" points="1498,-30 1350,-30 1350,0 1498,0 1498,-30"/>
<text text-anchor="start" x="1358" y="-18" font-family="Helvetica,sans-Serif" font-size="10.00">iot/mqtt/server/SocketContext</text>
<text text-anchor="middle" x="1424" y="-7" font-family="Helvetica,sans-Serif" font-size="10.00">Factory.cpp</text>
</a>
</g>
</g>
<!-- Node23&#45;&gt;Node25 -->
<g id="edge28_Node000023_Node000025" class="edge">
<title>Node23&#45;&gt;Node25</title>
<g id="a_edge28_Node000023_Node000025"><a xlink:title=" ">
<path fill="none" stroke="#63b8ff" d="M1305.64,-62.19C1331.69,-52.02 1363.87,-39.47 1388.09,-30.01"/>
<polygon fill="#63b8ff" stroke="#63b8ff" points="1304.03,-59.06 1295.99,-65.95 1306.58,-65.58 1304.03,-59.06"/>
</a>
</g>
</g>
<!-- Node26 -->
<g id="Node000026" class="node">
<title>Node26</title>
<g id="a_Node000026"><a xlink:href="Broker_8cpp.html" target="_top" xlink:title=" ">
<polygon fill="white" stroke="#666666" points="1626,-30 1516,-30 1516,0 1626,0 1626,-30"/>
<text text-anchor="start" x="1524" y="-18" font-family="Helvetica,sans-Serif" font-size="10.00">iot/mqtt/server/broker</text>
<text text-anchor="middle" x="1571" y="-7" font-family="Helvetica,sans-Serif" font-size="10.00">/Broker.cpp</text>
</a>
</g>
</g>
<!-- Node23&#45;&gt;Node26 -->
<g id="edge29_Node000023_Node000026" class="edge">
<title>Node23&#45;&gt;Node26</title>
<g id="a_edge29_Node000023_Node000026"><a xlink:title=" ">
<path fill="none" stroke="#63b8ff" d="M1325.34,-65.95C1407.4,-49.11 1429.35,-46.17 1507,-30 1509.9,-29.4 1512.86,-28.77 1515.86,-28.14"/>
<polygon fill="#63b8ff" stroke="#63b8ff" points="1324.39,-62.58 1315.3,-68.02 1325.81,-69.43 1324.39,-62.58"/>
</a>
</g>
</g>
<!-- Node27 -->
<g id="Node000027" class="node">
<title>Node27</title>
<g id="a_Node000027"><a xlink:href="RetainTree_8cpp.html" target="_top" xlink:title=" ">
<polygon fill="white" stroke="#666666" points="1040,-30 930,-30 930,0 1040,0 1040,-30"/>
<text text-anchor="start" x="938" y="-18" font-family="Helvetica,sans-Serif" font-size="10.00">iot/mqtt/server/broker</text>
<text text-anchor="middle" x="985" y="-7" font-family="Helvetica,sans-Serif" font-size="10.00">/RetainTree.cpp</text>
</a>
</g>
</g>
<!-- Node23&#45;&gt;Node27 -->
<g id="edge30_Node000023_Node000027" class="edge">
<title>Node23&#45;&gt;Node27</title>
<g id="a_edge30_Node000023_Node000027"><a xlink:title=" ">
<path fill="none" stroke="#63b8ff" d="M1194.89,-64.85C1147.8,-53.89 1084.87,-39.24 1040.23,-28.85"/>
<polygon fill="#63b8ff" stroke="#63b8ff" points="1194.15,-68.27 1204.68,-67.13 1195.73,-61.45 1194.15,-68.27"/>
</a>
</g>
</g>
<!-- Node28 -->
<g id="Node000028" class="node">
<title>Node28</title>
<g id="a_Node000028"><a xlink:href="SubscribtionTree_8cpp.html" target="_top" xlink:title=" ">
<polygon fill="white" stroke="#666666" points="1170,-30 1058,-30 1058,0 1170,0 1170,-30"/>
<text text-anchor="start" x="1066" y="-18" font-family="Helvetica,sans-Serif" font-size="10.00">iot/mqtt/server/broker</text>
<text text-anchor="middle" x="1114" y="-7" font-family="Helvetica,sans-Serif" font-size="10.00">/SubscribtionTree.cpp</text>
</a>
</g>
</g>
<!-- Node23&#45;&gt;Node28 -->
<g id="edge31_Node000023_Node000028" class="edge">
<title>Node23&#45;&gt;Node28</title>
<g id="a_edge31_Node000023_Node000028"><a xlink:title=" ">
<path fill="none" stroke="#63b8ff" d="M1218.75,-61.92C1195.68,-51.8 1167.34,-39.38 1145.97,-30.01"/>
<polygon fill="#63b8ff" stroke="#63b8ff" points="1217.4,-65.15 1227.96,-65.95 1220.21,-58.73 1217.4,-65.15"/>
</a>
</g>
</g>
<!-- Node30&#45;&gt;Node3 -->
<g id="edge34_Node000030_Node000003" class="edge">
<title>Node30&#45;&gt;Node3</title>
<g id="a_edge34_Node000030_Node000003"><a xlink:title=" ">
<path fill="none" stroke="#63b8ff" d="M855.83,-129.36C808.56,-116.91 745.84,-100.4 708.34,-90.52"/>
<polygon fill="#63b8ff" stroke="#63b8ff" points="855.11,-132.79 865.67,-131.95 856.89,-126.02 855.11,-132.79"/>
</a>
</g>
</g>
<!-- Node30&#45;&gt;Node17 -->
<g id="edge35_Node000030_Node000017" class="edge">
<title>Node30&#45;&gt;Node17</title>
<g id="a_edge35_Node000030_Node000017"><a xlink:title=" ">
<path fill="none" stroke="#63b8ff" d="M927.85,-122.39C931.16,-113.59 934.8,-103.86 937.69,-96.16"/>
<polygon fill="#63b8ff" stroke="#63b8ff" points="924.56,-121.2 924.33,-131.8 931.11,-123.66 924.56,-121.2"/>
</a>
</g>
</g>
<!-- Node32&#45;&gt;Node6 -->
<g id="edge38_Node000032_Node000006" class="edge">
<title>Node32&#45;&gt;Node6</title>
<g id="a_edge38_Node000032_Node000006"><a xlink:title=" ">
<path fill="none" stroke="#63b8ff" d="M747.39,-192.32C736.14,-184.52 725.22,-174.41 719,-162 713.02,-150.08 715.02,-144.72 719,-132 724.82,-113.41 733.66,-112.51 744,-96 759.91,-70.61 776.72,-39.37 784.53,-24.56"/>
<polygon fill="#63b8ff" stroke="#63b8ff" points="745.67,-195.38 755.97,-197.84 749.45,-189.49 745.67,-195.38"/>
</a>
</g>
</g>
<!-- Node33 -->
<g id="Node000033" class="node">
<title>Node33</title>
<g id="a_Node000033"><a xlink:href="mqtt_2server_2packets_2Publish_8cpp.html" target="_top" xlink:title=" ">
<polygon fill="white" stroke="#666666" points="844.5,-162 727.5,-162 727.5,-132 844.5,-132 844.5,-162"/>
<text text-anchor="start" x="735.5" y="-150" font-family="Helvetica,sans-Serif" font-size="10.00">iot/mqtt/server/packets</text>
<text text-anchor="middle" x="786" y="-139" font-family="Helvetica,sans-Serif" font-size="10.00">/Publish.cpp</text>
</a>
</g>
</g>
<!-- Node32&#45;&gt;Node33 -->
<g id="edge39_Node000032_Node000033" class="edge">
<title>Node32&#45;&gt;Node33</title>
<g id="a_edge39_Node000032_Node000033"><a xlink:title=" ">
<path fill="none" stroke="#63b8ff" d="M786,-187.54C786,-178.96 786,-169.61 786,-162.16"/>
<polygon fill="#63b8ff" stroke="#63b8ff" points="782.5,-187.8 786,-197.8 789.5,-187.8 782.5,-187.8"/>
</a>
</g>
</g>
<!-- Node35&#45;&gt;Node3 -->
<g id="edge42_Node000035_Node000003" class="edge">
<title>Node35&#45;&gt;Node3</title>
<g id="a_edge42_Node000035_Node000003"><a xlink:title=" ">
<path fill="none" stroke="#63b8ff" d="M992.57,-263.41C889.39,-251.72 724.2,-232.42 719,-228 676.52,-191.89 674.85,-116.12 675.58,-90.6"/>
<polygon fill="#63b8ff" stroke="#63b8ff" points="992.34,-266.9 1002.67,-264.55 993.12,-259.95 992.34,-266.9"/>
</a>
</g>
</g>
<!-- Node35&#45;&gt;Node34 -->
<g id="edge43_Node000035_Node000034" class="edge">
<title>Node35&#45;&gt;Node34</title>
<g id="a_edge43_Node000035_Node000034"><a xlink:title=" ">
<path fill="none" stroke="#63b8ff" d="M1125.13,-261.89C1179.59,-250.6 1264.69,-232.94 1314.95,-222.52"/>
<polygon fill="#63b8ff" stroke="#63b8ff" points="1124.09,-258.54 1115.01,-263.99 1125.51,-265.39 1124.09,-258.54"/>
</a>
</g>
</g>
<!-- Node36 -->
<g id="Node000036" class="node">
<title>Node36</title>
<g id="a_Node000036"><a xlink:href="mqtt_2server_2packets_2Subscribe_8h.html" target="_top" xlink:title=" ">
<polygon fill="white" stroke="#666666" points="1261.5,-228 1144.5,-228 1144.5,-198 1261.5,-198 1261.5,-228"/>
<text text-anchor="start" x="1152.5" y="-216" font-family="Helvetica,sans-Serif" font-size="10.00">iot/mqtt/server/packets</text>
<text text-anchor="middle" x="1203" y="-205" font-family="Helvetica,sans-Serif" font-size="10.00">/Subscribe.h</text>
</a>
</g>
</g>
<!-- Node35&#45;&gt;Node36 -->
<g id="edge44_Node000035_Node000036" class="edge">
<title>Node35&#45;&gt;Node36</title>
<g id="a_edge44_Node000035_Node000036"><a xlink:title=" ">
<path fill="none" stroke="#63b8ff" d="M1101.91,-259.84C1122.47,-250.52 1150.43,-237.84 1171.74,-228.18"/>
<polygon fill="#63b8ff" stroke="#63b8ff" points="1100.42,-256.68 1092.76,-263.99 1103.31,-263.05 1100.42,-256.68"/>
</a>
</g>
</g>
<!-- Node36&#45;&gt;Node6 -->
<g id="edge45_Node000036_Node000006" class="edge">
<title>Node36&#45;&gt;Node6</title>
<g id="a_edge45_Node000036_Node000006"><a xlink:title=" ">
<path fill="none" stroke="#63b8ff" d="M1271.74,-196.23C1304.07,-187.28 1337.58,-175.24 1347,-162 1354.73,-151.14 1355.26,-142.46 1347,-132 1304.24,-77.85 1258.09,-126.08 1196,-96 1176.64,-86.62 1177.81,-74.41 1158,-66 1130.25,-54.22 947.09,-33.07 849.69,-22.45"/>
<polygon fill="#63b8ff" stroke="#63b8ff" points="1270.52,-192.93 1261.77,-198.91 1272.34,-199.69 1270.52,-192.93"/>
</a>
</g>
</g>
<!-- Node37 -->
<g id="Node000037" class="node">
<title>Node37</title>
<g id="a_Node000037"><a xlink:href="mqtt_2server_2packets_2Subscribe_8cpp.html" target="_top" xlink:title=" ">
<polygon fill="white" stroke="#666666" points="1774.5,-162 1657.5,-162 1657.5,-132 1774.5,-132 1774.5,-162"/>
<text text-anchor="start" x="1665.5" y="-150" font-family="Helvetica,sans-Serif" font-size="10.00">iot/mqtt/server/packets</text>
<text text-anchor="middle" x="1716" y="-139" font-family="Helvetica,sans-Serif" font-size="10.00">/Subscribe.cpp</text>
</a>
</g>
</g>
<!-- Node36&#45;&gt;Node37 -->
<g id="edge46_Node000036_Node000037" class="edge">
<title>Node36&#45;&gt;Node37</title>
<g id="a_edge46_Node000036_Node000037"><a xlink:title=" ">
<path fill="none" stroke="#63b8ff" d="M1271.47,-198.06C1439.62,-173.48 1485.32,-186.82 1649,-162 1651.7,-161.59 1654.46,-161.14 1657.24,-160.66"/>
<polygon fill="#63b8ff" stroke="#63b8ff" points="1270.91,-194.6 1261.53,-199.53 1271.94,-201.52 1270.91,-194.6"/>
</a>
</g>
</g>
<!-- Node38&#45;&gt;Node3 -->
<g id="edge48_Node000038_Node000003" class="edge">
<title>Node38&#45;&gt;Node3</title>
<g id="a_edge48_Node000038_Node000003"><a xlink:title=" ">
<path fill="none" stroke="#63b8ff" d="M553.22,-133.36C583.37,-120.75 628.89,-101.71 655.2,-90.7"/>
<polygon fill="#63b8ff" stroke="#63b8ff" points="551.51,-130.28 543.63,-137.37 554.21,-136.74 551.51,-130.28"/>
</a>
</g>
</g>
<!-- Node39 -->
<g id="Node000039" class="node">
<title>Node39</title>
<g id="a_Node000039"><a xlink:href="mqtt_2packets_2Unsubscribe_8cpp.html" target="_top" xlink:title=" ">
<polygon fill="white" stroke="#666666" points="464,-90.5 300,-90.5 300,-71.5 464,-71.5 464,-90.5"/>
<text text-anchor="middle" x="382" y="-78.5" font-family="Helvetica,sans-Serif" font-size="10.00">iot/mqtt/packets/Unsubscribe.cpp</text>
</a>
</g>
</g>
<!-- Node38&#45;&gt;Node39 -->
<g id="edge49_Node000038_Node000039" class="edge">
<title>Node38&#45;&gt;Node39</title>
<g id="a_edge49_Node000038_Node000039"><a xlink:title=" ">
<path fill="none" stroke="#63b8ff" d="M494.79,-133.19C467,-120.58 425.31,-101.66 401.16,-90.7"/>
<polygon fill="#63b8ff" stroke="#63b8ff" points="493.43,-136.42 503.98,-137.37 496.32,-130.05 493.43,-136.42"/>
</a>
</g>
</g>
<!-- Node40 -->
<g id="Node000040" class="node">
<title>Node40</title>
<g id="a_Node000040"><a xlink:href="mqtt_2server_2packets_2Unsubscribe_8h.html" target="_top" xlink:title=" ">
<polygon fill="white" stroke="#666666" points="599.5,-96 482.5,-96 482.5,-66 599.5,-66 599.5,-96"/>
<text text-anchor="start" x="490.5" y="-84" font-family="Helvetica,sans-Serif" font-size="10.00">iot/mqtt/server/packets</text>
<text text-anchor="middle" x="541" y="-73" font-family="Helvetica,sans-Serif" font-size="10.00">/Unsubscribe.h</text>
</a>
</g>
</g>
<!-- Node38&#45;&gt;Node40 -->
<g id="edge50_Node000038_Node000040" class="edge">
<title>Node38&#45;&gt;Node40</title>
<g id="a_edge50_Node000038_Node000040"><a xlink:title=" ">
<path fill="none" stroke="#63b8ff" d="M528.16,-127.67C530.95,-117.72 534.36,-105.61 536.96,-96.36"/>
<polygon fill="#63b8ff" stroke="#63b8ff" points="524.77,-126.79 525.43,-137.37 531.5,-128.69 524.77,-126.79"/>
</a>
</g>
</g>
<!-- Node40&#45;&gt;Node6 -->
<g id="edge51_Node000040_Node000006" class="edge">
<title>Node40&#45;&gt;Node6</title>
<g id="a_edge51_Node000040_Node000006"><a xlink:title=" ">
<path fill="none" stroke="#63b8ff" d="M605.16,-63.44C653.44,-50.98 717.64,-34.42 756,-24.52"/>
<polygon fill="#63b8ff" stroke="#63b8ff" points="604.23,-60.07 595.42,-65.95 605.98,-66.85 604.23,-60.07"/>
</a>
</g>
</g>
<!-- Node41 -->
<g id="Node000041" class="node">
<title>Node41</title>
<g id="a_Node000041"><a xlink:href="mqtt_2server_2packets_2Unsubscribe_8cpp.html" target="_top" xlink:title=" ">
<polygon fill="white" stroke="#666666" points="599.5,-30 482.5,-30 482.5,0 599.5,0 599.5,-30"/>
<text text-anchor="start" x="490.5" y="-18" font-family="Helvetica,sans-Serif" font-size="10.00">iot/mqtt/server/packets</text>
<text text-anchor="middle" x="541" y="-7" font-family="Helvetica,sans-Serif" font-size="10.00">/Unsubscribe.cpp</text>
</a>
</g>
</g>
<!-- Node40&#45;&gt;Node41 -->
<g id="edge52_Node000040_Node000041" class="edge">
<title>Node40&#45;&gt;Node41</title>
<g id="a_edge52_Node000040_Node000041"><a xlink:title=" ">
<path fill="none" stroke="#63b8ff" d="M541,-55.54C541,-46.96 541,-37.61 541,-30.16"/>
<polygon fill="#63b8ff" stroke="#63b8ff" points="537.5,-55.8 541,-65.8 544.5,-55.8 537.5,-55.8"/>
</a>
</g>
</g>
</g>
</svg>
