<?xml version="1.0" encoding="UTF-8" standalone="no"?>
<!DOCTYPE svg PUBLIC "-//W3C//DTD SVG 1.1//EN"
 "http://www.w3.org/Graphics/SVG/1.1/DTD/svg11.dtd">
<!-- Generated by graphviz version 14.1.1 (0)
 -->
<!-- Title: web::http::client::tools::EventSource::SharedState Pages: 1 -->
<svg width="500pt" height="429pt"
 viewBox="0.00 0.00 500.00 429.00" xmlns="http://www.w3.org/2000/svg" xmlns:xlink="http://www.w3.org/1999/xlink">
<g id="graph0" class="graph" transform="scale(1 1) rotate(0) translate(4 425.25)">
<title>web::http::client::tools::EventSource::SharedState</title>
<!-- Node1 -->
<g id="Node000001" class="node">
<title>Node1</title>
<g id="a_Node000001"><a xlink:title=" ">
<polygon fill="#999999" stroke="none" points="302.91,-46.25 198.16,-46.25 198.16,0 302.91,0 302.91,-46.25"/>
<text xml:space="preserve" text-anchor="start" x="202.16" y="-32.75" font-family="Helvetica,sans-Serif" font-size="10.00">web::http::client::</text>
<text xml:space="preserve" text-anchor="start" x="202.16" y="-20" font-family="Helvetica,sans-Serif" font-size="10.00">tools::EventSource::</text>
<text xml:space="preserve" text-anchor="start" x="220.91" y="-7.25" font-family="Helvetica,sans-Serif" font-size="10.00">SharedState</text>
<polygon fill="none" stroke="#666666" points="198.16,0 198.16,-46.25 302.91,-46.25 302.91,0 198.16,0"/>
</a>
</g>
</g>
<!-- Node2 -->
<g id="Node000002" class="node">
<title>Node2</title>
<g id="a_Node000002"><a xlink:title=" ">
<polygon fill="white" stroke="none" points="160.41,-350.75 22.66,-350.75 22.66,-291.75 160.41,-291.75 160.41,-350.75"/>
<text xml:space="preserve" text-anchor="start" x="26.66" y="-337.25" font-family="Helvetica,sans-Serif" font-size="10.00">std::list&lt; std::function</text>
<text xml:space="preserve" text-anchor="start" x="26.66" y="-324.5" font-family="Helvetica,sans-Serif" font-size="10.00">&lt; void(const web::http</text>
<text xml:space="preserve" text-anchor="start" x="26.66" y="-311.75" font-family="Helvetica,sans-Serif" font-size="10.00">::client::tools::EventSource</text>
<text xml:space="preserve" text-anchor="start" x="36.04" y="-299" font-family="Helvetica,sans-Serif" font-size="10.00">::MessageEvent &amp;)&gt; &gt;</text>
<polygon fill="none" stroke="#666666" points="22.66,-291.75 22.66,-350.75 160.41,-350.75 160.41,-291.75 22.66,-291.75"/>
</a>
</g>
</g>
<!-- Node2&#45;&gt;Node1 -->
<g id="edge1_Node000001_Node000002" class="edge">
<title>Node2&#45;&gt;Node1</title>
<g id="a_edge1_Node000001_Node000002"><a xlink:title=" ">
<path fill="none" stroke="#63b8ff" d="M57.46,-291.87C42.55,-277.22 26.68,-258.02 18.79,-237 0.16,-187.38 -10.85,-161.69 18.79,-117.75 55.74,-62.96 130.74,-40.23 185.45,-30.8"/>
<polygon fill="none" stroke="#63b8ff" points="185.44,-30.8 190.74,-25.91 197.29,-28.92 191.99,-33.81 185.44,-30.8"/>
</a>
</g>
<text xml:space="preserve" text-anchor="start" x="21.79" y="-174.25" font-family="Helvetica,sans-Serif" font-size="10.00" fill="grey">+onMessageListener</text>
</g>
<!-- Node3 -->
<g id="Node000003" class="node">
<title>Node3</title>
<g id="a_Node000003"><a xlink:title=" ">
<polygon fill="white" stroke="none" points="268.41,-213.25 136.66,-213.25 136.66,-141.5 268.41,-141.5 268.41,-213.25"/>
<text xml:space="preserve" text-anchor="start" x="140.66" y="-199.75" font-family="Helvetica,sans-Serif" font-size="10.00">std::map&lt; std::string,</text>
<text xml:space="preserve" text-anchor="start" x="140.66" y="-187" font-family="Helvetica,sans-Serif" font-size="10.00"> std::list&lt; std::function</text>
<text xml:space="preserve" text-anchor="start" x="140.66" y="-174.25" font-family="Helvetica,sans-Serif" font-size="10.00">&lt; void(const web::http::</text>
<text xml:space="preserve" text-anchor="start" x="140.66" y="-161.5" font-family="Helvetica,sans-Serif" font-size="10.00">client::tools::EventSource</text>
<text xml:space="preserve" text-anchor="start" x="141.41" y="-148.75" font-family="Helvetica,sans-Serif" font-size="10.00">::MessageEvent &amp;)&gt; &gt; &gt;</text>
<polygon fill="none" stroke="#666666" points="136.66,-141.5 136.66,-213.25 268.41,-213.25 268.41,-141.5 136.66,-141.5"/>
</a>
</g>
</g>
<!-- Node2&#45;&gt;Node3 -->
<g id="edge5_Node000003_Node000002" class="edge">
<title>Node2&#45;&gt;Node3</title>
<g id="a_edge5_Node000003_Node000002"><a xlink:title=" ">
<path fill="none" stroke="#63b8ff" d="M113.73,-291.88C129.09,-272.25 149.86,-245.71 167.45,-223.23"/>
<polygon fill="none" stroke="#63b8ff" points="167.32,-223.38 167.87,-216.19 174.72,-213.93 174.17,-221.12 167.32,-223.38"/>
</a>
</g>
<text xml:space="preserve" text-anchor="start" x="143.39" y="-261.25" font-family="Helvetica,sans-Serif" font-size="10.00" fill="grey">+elements</text>
</g>
<!-- Node3&#45;&gt;Node1 -->
<g id="edge2_Node000001_Node000003" class="edge">
<title>Node3&#45;&gt;Node1</title>
<g id="a_edge2_Node000001_Node000003"><a xlink:title=" ">
<path fill="none" stroke="#63b8ff" d="M192.6,-141.71C187.92,-118.58 185.65,-88.15 197.54,-64.25 199.1,-61.11 201.03,-58.16 203.23,-55.38"/>
<polygon fill="none" stroke="#63b8ff" points="203.2,-55.41 204.49,-48.31 211.53,-46.77 210.25,-53.87 203.2,-55.41"/>
</a>
</g>
<text xml:space="preserve" text-anchor="start" x="200.54" y="-78.88" font-family="Helvetica,sans-Serif" font-size="10.00" fill="grey">+onEventListener</text>
</g>
<!-- Node4 -->
<g id="Node000004" class="node">
<title>Node4</title>
<g id="a_Node000004"><a xlink:title=" ">
<polygon fill="white" stroke="none" points="273.91,-331.62 217.16,-331.62 217.16,-310.88 273.91,-310.88 273.91,-331.62"/>
<text xml:space="preserve" text-anchor="start" x="221.16" y="-318.12" font-family="Helvetica,sans-Serif" font-size="10.00">std::string</text>
<polygon fill="none" stroke="#666666" points="217.16,-310.88 217.16,-331.62 273.91,-331.62 273.91,-310.88 217.16,-310.88"/>
</a>
</g>
</g>
<!-- Node4&#45;&gt;Node1 -->
<g id="edge7_Node000001_Node000004" class="edge">
<title>Node4&#45;&gt;Node1</title>
<g id="a_edge7_Node000001_Node000004"><a xlink:title=" ">
<path fill="none" stroke="#63b8ff" d="M251.93,-311.09C257.95,-302.03 266.72,-287.55 271.54,-273.75 283.27,-240.14 286.69,-181.16 290.54,-99.75 291.28,-83.99 296.56,-78.83 290.54,-64.25 289.36,-61.41 287.88,-58.67 286.18,-56.04"/>
<polygon fill="none" stroke="#63b8ff" points="286.21,-56.07 279.35,-53.83 278.78,-46.64 285.64,-48.88 286.21,-56.07"/>
</a>
</g>
<text xml:space="preserve" text-anchor="start" x="292.64" y="-224.5" font-family="Helvetica,sans-Serif" font-size="10.00" fill="grey">+data</text>
<text xml:space="preserve" text-anchor="start" x="292.64" y="-207.75" font-family="Helvetica,sans-Serif" font-size="10.00" fill="grey">+idBuf</text>
<text xml:space="preserve" text-anchor="start" x="292.64" y="-191" font-family="Helvetica,sans-Serif" font-size="10.00" fill="grey">+lastId</text>
<text xml:space="preserve" text-anchor="start" x="292.64" y="-174.25" font-family="Helvetica,sans-Serif" font-size="10.00" fill="grey">+origin</text>
<text xml:space="preserve" text-anchor="start" x="292.64" y="-157.5" font-family="Helvetica,sans-Serif" font-size="10.00" fill="grey">+path</text>
<text xml:space="preserve" text-anchor="start" x="292.64" y="-140.75" font-family="Helvetica,sans-Serif" font-size="10.00" fill="grey">+pending</text>
<text xml:space="preserve" text-anchor="start" x="292.64" y="-124" font-family="Helvetica,sans-Serif" font-size="10.00" fill="grey">+type</text>
</g>
<!-- Node4&#45;&gt;Node3 -->
<g id="edge3_Node000003_Node000004" class="edge">
<title>Node4&#45;&gt;Node3</title>
<g id="a_edge3_Node000003_Node000004"><a xlink:title=" ">
<path fill="none" stroke="#63b8ff" d="M242.72,-310.94C237.53,-293.82 226.14,-256.27 216.82,-225.48"/>
<polygon fill="none" stroke="#63b8ff" points="216.84,-225.56 211.27,-220.98 213.36,-214.08 218.93,-218.66 216.84,-225.56"/>
</a>
</g>
<text xml:space="preserve" text-anchor="start" x="233.4" y="-261.25" font-family="Helvetica,sans-Serif" font-size="10.00" fill="grey">+keys</text>
</g>
<!-- Node5 -->
<g id="Node000005" class="node">
<title>Node5</title>
<g id="a_Node000005"><a xlink:title=" ">
<polygon fill="white" stroke="none" points="293.41,-421.25 197.66,-421.25 197.66,-387.75 293.41,-387.75 293.41,-421.25"/>
<text xml:space="preserve" text-anchor="start" x="201.66" y="-407.75" font-family="Helvetica,sans-Serif" font-size="10.00">std::basic_string&lt;</text>
<text xml:space="preserve" text-anchor="start" x="227.16" y="-395" font-family="Helvetica,sans-Serif" font-size="10.00"> Char &gt;</text>
<polygon fill="none" stroke="#666666" points="197.66,-387.75 197.66,-421.25 293.41,-421.25 293.41,-387.75 197.66,-387.75"/>
</a>
</g>
</g>
<!-- Node5&#45;&gt;Node4 -->
<g id="edge4_Node000004_Node000005" class="edge">
<title>Node5&#45;&gt;Node4</title>
<g id="a_edge4_Node000004_Node000005"><a xlink:title=" ">
<path fill="none" stroke="#63b8ff" d="M245.54,-376.64C245.54,-360.97 245.54,-342.21 245.54,-331.31"/>
<polygon fill="none" stroke="#63b8ff" points="242.04,-376.32 245.54,-386.32 249.04,-376.32 242.04,-376.32"/>
</a>
</g>
</g>
<!-- Node6 -->
<g id="Node000006" class="node">
<title>Node6</title>
<g id="a_Node000006"><a xlink:title=" ">
<polygon fill="white" stroke="none" points="491.54,-194.12 375.54,-194.12 375.54,-160.62 491.54,-160.62 491.54,-194.12"/>
<text xml:space="preserve" text-anchor="start" x="379.54" y="-180.62" font-family="Helvetica,sans-Serif" font-size="10.00">std::list&lt; std::function</text>
<text xml:space="preserve" text-anchor="start" x="403.91" y="-167.88" font-family="Helvetica,sans-Serif" font-size="10.00">&lt; void()&gt; &gt;</text>
<polygon fill="none" stroke="#666666" points="375.54,-160.62 375.54,-194.12 491.54,-194.12 491.54,-160.62 375.54,-160.62"/>
</a>
</g>
</g>
<!-- Node6&#45;&gt;Node1 -->
<g id="edge6_Node000001_Node000006" class="edge">
<title>Node6&#45;&gt;Node1</title>
<g id="a_edge6_Node000001_Node000006"><a xlink:title=" ">
<path fill="none" stroke="#63b8ff" d="M419.69,-160.66C399.06,-137.79 358.41,-94.74 318.54,-64.25 313.43,-60.34 307.91,-56.52 302.3,-52.88"/>
<polygon fill="none" stroke="#63b8ff" points="302.43,-52.97 295.22,-53.18 292.25,-46.62 299.46,-46.4 302.43,-52.97"/>
</a>
</g>
<text xml:space="preserve" text-anchor="start" x="361.81" y="-87.25" font-family="Helvetica,sans-Serif" font-size="10.00" fill="grey">+onErrorListener</text>
<text xml:space="preserve" text-anchor="start" x="361.81" y="-70.5" font-family="Helvetica,sans-Serif" font-size="10.00" fill="grey">+onOpenListener</text>
</g>
</g>
</svg>
