<?xml version="1.0" encoding="UTF-8" standalone="no"?>
<!DOCTYPE svg PUBLIC "-//W3C//DTD SVG 1.1//EN"
 "http://www.w3.org/Graphics/SVG/1.1/DTD/svg11.dtd">
<!-- Generated by graphviz version 2.42.4 (0)
 -->
<!-- Title: database::mariadb::MariaDBConnectionDetails Pages: 1 -->
<svg width="175pt" height="252pt"
 viewBox="0.00 0.00 175.00 252.00" xmlns="http://www.w3.org/2000/svg" xmlns:xlink="http://www.w3.org/1999/xlink">
<g id="graph0" class="graph" transform="scale(1 1) rotate(0) translate(4 248)">
<title>database::mariadb::MariaDBConnectionDetails</title>
<!-- Node1 -->
<g id="Node000001" class="node">
<title>Node1</title>
<g id="a_Node000001"><a xlink:title=" ">
<polygon fill="#999999" stroke="transparent" points="140,-30 0,-30 0,0 140,0 140,-30"/>
<text text-anchor="start" x="4" y="-18" font-family="Helvetica,sans-Serif" font-size="10.00">database::mariadb::</text>
<text text-anchor="start" x="4" y="-7" font-family="Helvetica,sans-Serif" font-size="10.00">MariaDBConnectionDetails</text>
<polygon fill="none" stroke="#666666" points="0,0 0,-30 140,-30 140,0 0,0"/>
</a>
</g>
</g>
<!-- Node2 -->
<g id="Node000002" class="node">
<title>Node2</title>
<g id="a_Node000002"><a xlink:title=" ">
<polygon fill="white" stroke="transparent" points="99,-177 41,-177 41,-158 99,-158 99,-177"/>
<text text-anchor="start" x="45.5" y="-164.5" font-family="Helvetica,sans-Serif" font-size="10.00">std::string</text>
<polygon fill="none" stroke="#666666" points="41,-158 41,-177 99,-177 99,-158 41,-158"/>
</a>
</g>
</g>
<!-- Node2&#45;&gt;Node1 -->
<g id="edge1_Node000001_Node000002" class="edge">
<title>Node2&#45;&gt;Node1</title>
<g id="a_edge1_Node000001_Node000002"><a xlink:title=" ">
<path fill="none" stroke="#63b8ff" d="M70,-157.98C70,-136.13 70,-77.4 70,-42.71"/>
<polygon fill="none" stroke="#63b8ff" points="70,-42.3 66,-36.3 70,-30.3 74,-36.3 70,-42.3"/>
</a>
</g>
<text text-anchor="start" x="73.5" y="-129" font-family="Helvetica,sans-Serif" font-size="10.00" fill="grey">+connectionName</text>
<text text-anchor="start" x="73.5" y="-114" font-family="Helvetica,sans-Serif" font-size="10.00" fill="grey">+database</text>
<text text-anchor="start" x="73.5" y="-99" font-family="Helvetica,sans-Serif" font-size="10.00" fill="grey">+hostname</text>
<text text-anchor="start" x="73.5" y="-84" font-family="Helvetica,sans-Serif" font-size="10.00" fill="grey">+password</text>
<text text-anchor="start" x="73.5" y="-69" font-family="Helvetica,sans-Serif" font-size="10.00" fill="grey">+socket</text>
<text text-anchor="start" x="73.5" y="-54" font-family="Helvetica,sans-Serif" font-size="10.00" fill="grey">+username</text>
</g>
<!-- Node3 -->
<g id="Node000003" class="node">
<title>Node3</title>
<g id="a_Node000003"><a xlink:title=" ">
<polygon fill="white" stroke="transparent" points="118,-244 22,-244 22,-214 118,-214 118,-244"/>
<text text-anchor="start" x="26" y="-232" font-family="Helvetica,sans-Serif" font-size="10.00">std::basic_string&lt;</text>
<text text-anchor="start" x="51.5" y="-221" font-family="Helvetica,sans-Serif" font-size="10.00"> Char &gt;</text>
<polygon fill="none" stroke="#666666" points="22,-214 22,-244 118,-244 118,-214 22,-214"/>
</a>
</g>
</g>
<!-- Node3&#45;&gt;Node2 -->
<g id="edge2_Node000002_Node000003" class="edge">
<title>Node3&#45;&gt;Node2</title>
<g id="a_edge2_Node000002_Node000003"><a xlink:title=" ">
<path fill="none" stroke="#63b8ff" d="M70,-203.79C70,-194.36 70,-184.15 70,-177.16"/>
<polygon fill="none" stroke="#63b8ff" points="66.5,-203.9 70,-213.9 73.5,-203.9 66.5,-203.9"/>
</a>
</g>
</g>
</g>
</svg>
