<?xml version="1.0" encoding="UTF-8" standalone="no"?>
<!DOCTYPE svg PUBLIC "-//W3C//DTD SVG 1.1//EN"
 "http://www.w3.org/Graphics/SVG/1.1/DTD/svg11.dtd">
<!-- Generated by graphviz version 14.1.2 (0)
 -->
<!-- Title: express/tls/in6/WebApp.h Pages: 1 -->
<svg width="523pt" height="142pt"
 viewBox="0.00 0.00 523.00 142.00" xmlns="http://www.w3.org/2000/svg" xmlns:xlink="http://www.w3.org/1999/xlink">
<g id="graph0" class="graph" transform="scale(1 1) rotate(0) translate(4 138.25)">
<title>express/tls/in6/WebApp.h</title>
<!-- Node1 -->
<g id="Node000001" class="node">
<title>Node1</title>
<g id="a_Node000001"><a xlink:title=" ">
<polygon fill="#999999" stroke="#666666" points="358.75,-134.25 219,-134.25 219,-113.5 358.75,-113.5 358.75,-134.25"/>
<text xml:space="preserve" text-anchor="middle" x="288.88" y="-120.75" font-family="Helvetica,sans-Serif" font-size="10.00">express/tls/in6/WebApp.h</text>
</a>
</g>
</g>
<!-- Node2 -->
<g id="Node000002" class="node">
<title>Node2</title>
<g id="a_Node000002"><a xlink:href="testbasicauthentication_8cpp.html" target="_top" xlink:title=" ">
<polygon fill="white" stroke="#666666" points="199.75,-77.5 0,-77.5 0,-56.75 199.75,-56.75 199.75,-77.5"/>
<text xml:space="preserve" text-anchor="middle" x="99.88" y="-64" font-family="Helvetica,sans-Serif" font-size="10.00">apps/http/testbasicauthentication.cpp</text>
</a>
</g>
</g>
<!-- Node1&#45;&gt;Node2 -->
<g id="edge1_Node000001_Node000002" class="edge">
<title>Node1&#45;&gt;Node2</title>
<g id="a_edge1_Node000001_Node000002"><a xlink:title=" ">
<path fill="none" stroke="#63b8ff" d="M244.1,-109.91C210.26,-100.1 164.51,-86.85 133.69,-77.92"/>
<polygon fill="#63b8ff" stroke="#63b8ff" points="243.05,-113.24 253.63,-112.67 245,-106.52 243.05,-113.24"/>
</a>
</g>
</g>
<!-- Node3 -->
<g id="Node000003" class="node">
<title>Node3</title>
<g id="a_Node000003"><a xlink:href="vhostserver_8cpp.html" target="_top" xlink:title=" ">
<polygon fill="white" stroke="#666666" points="360.25,-77.5 217.5,-77.5 217.5,-56.75 360.25,-56.75 360.25,-77.5"/>
<text xml:space="preserve" text-anchor="middle" x="288.88" y="-64" font-family="Helvetica,sans-Serif" font-size="10.00">apps/http/vhostserver.cpp</text>
</a>
</g>
</g>
<!-- Node1&#45;&gt;Node3 -->
<g id="edge2_Node000001_Node000003" class="edge">
<title>Node1&#45;&gt;Node3</title>
<g id="a_edge2_Node000001_Node000003"><a xlink:title=" ">
<path fill="none" stroke="#63b8ff" d="M288.88,-101.63C288.88,-93.41 288.88,-84.43 288.88,-77.83"/>
<polygon fill="#63b8ff" stroke="#63b8ff" points="285.38,-101.57 288.88,-111.57 292.38,-101.57 285.38,-101.57"/>
</a>
</g>
</g>
<!-- Node4 -->
<g id="Node000004" class="node">
<title>Node4</title>
<g id="a_Node000004"><a xlink:href="express_2tls_2in6_2Server_8h.html" target="_top" xlink:title=" ">
<polygon fill="white" stroke="#666666" points="509.25,-77.5 378.5,-77.5 378.5,-56.75 509.25,-56.75 509.25,-77.5"/>
<text xml:space="preserve" text-anchor="middle" x="443.88" y="-64" font-family="Helvetica,sans-Serif" font-size="10.00">express/tls/in6/Server.h</text>
</a>
</g>
</g>
<!-- Node1&#45;&gt;Node4 -->
<g id="edge3_Node000001_Node000004" class="edge">
<title>Node1&#45;&gt;Node4</title>
<g id="a_edge3_Node000001_Node000004"><a xlink:title=" ">
<path fill="none" stroke="#63b8ff" d="M327.42,-109.26C354.98,-99.53 391.42,-86.65 416.14,-77.92"/>
<polygon fill="#63b8ff" stroke="#63b8ff" points="326.28,-105.95 318.01,-112.58 328.61,-112.55 326.28,-105.95"/>
</a>
</g>
</g>
<!-- Node5 -->
<g id="Node000005" class="node">
<title>Node5</title>
<g id="a_Node000005"><a xlink:href="tls_2in6_2Server_8cpp.html" target="_top" xlink:title=" ">
<polygon fill="white" stroke="#666666" points="514.88,-20.75 372.88,-20.75 372.88,0 514.88,0 514.88,-20.75"/>
<text xml:space="preserve" text-anchor="middle" x="443.88" y="-7.25" font-family="Helvetica,sans-Serif" font-size="10.00">express/tls/in6/Server.cpp</text>
</a>
</g>
</g>
<!-- Node4&#45;&gt;Node5 -->
<g id="edge4_Node000004_Node000005" class="edge">
<title>Node4&#45;&gt;Node5</title>
<g id="a_edge4_Node000004_Node000005"><a xlink:title=" ">
<path fill="none" stroke="#63b8ff" d="M443.88,-44.88C443.88,-36.66 443.88,-27.68 443.88,-21.08"/>
<polygon fill="#63b8ff" stroke="#63b8ff" points="440.38,-44.82 443.88,-54.82 447.38,-44.82 440.38,-44.82"/>
</a>
</g>
</g>
</g>
</svg>
