<?xml version="1.0" encoding="UTF-8" standalone="no"?>
<!DOCTYPE svg PUBLIC "-//W3C//DTD SVG 1.1//EN"
 "http://www.w3.org/Graphics/SVG/1.1/DTD/svg11.dtd">
<!-- Generated by graphviz version 2.42.4 (0)
 -->
<!-- Title: main Pages: 1 -->
<svg width="1664pt" height="538pt"
 viewBox="0.00 0.00 1664.00 537.50" xmlns="http://www.w3.org/2000/svg" xmlns:xlink="http://www.w3.org/1999/xlink">
<g id="graph0" class="graph" transform="scale(1 1) rotate(0) translate(4 533.5)">
<title>main</title>
<!-- Node1 -->
<g id="Node000001" class="node">
<title>Node1</title>
<g id="a_Node000001"><a xlink:title=" ">
<polygon fill="#999999" stroke="#666666" points="41,-392.5 0,-392.5 0,-373.5 41,-373.5 41,-392.5"/>
<text text-anchor="middle" x="20.5" y="-380.5" font-family="Helvetica,sans-Serif" font-size="10.00">main</text>
</a>
</g>
</g>
<!-- Node2 -->
<g id="Node000002" class="node">
<title>Node2</title>
<g id="a_Node000002"><a xlink:href="classTowerCalculator.html#aba9fe045454f9455b73070e221428720" target="_top" xlink:title=" ">
<polygon fill="white" stroke="#666666" points="222,-430.5 77,-430.5 77,-411.5 222,-411.5 222,-430.5"/>
<text text-anchor="middle" x="149.5" y="-418.5" font-family="Helvetica,sans-Serif" font-size="10.00">TowerCalculator::calculate</text>
</a>
</g>
</g>
<!-- Node1&#45;&gt;Node2 -->
<g id="edge1_Node000001_Node000002" class="edge">
<title>Node1&#45;&gt;Node2</title>
<g id="a_edge1_Node000001_Node000002"><a xlink:title=" ">
<path fill="none" stroke="#63b8ff" d="M41.22,-389.61C51.79,-393.1 65.07,-397.4 77,-401 85.52,-403.57 94.64,-406.21 103.42,-408.69"/>
<polygon fill="#63b8ff" stroke="#63b8ff" points="102.57,-412.09 113.14,-411.42 104.46,-405.35 102.57,-412.09"/>
</a>
</g>
</g>
<!-- Node5 -->
<g id="Node000005" class="node">
<title>Node5</title>
<g id="a_Node000005"><a xlink:href="classcore_1_1SNodeC.html#a2c8b01c5fc6ecc3036cb48a76f76f3b5" target="_top" xlink:title=" ">
<polygon fill="white" stroke="#666666" points="201.5,-392.5 97.5,-392.5 97.5,-373.5 201.5,-373.5 201.5,-392.5"/>
<text text-anchor="middle" x="149.5" y="-380.5" font-family="Helvetica,sans-Serif" font-size="10.00">core::SNodeC::init</text>
</a>
</g>
</g>
<!-- Node1&#45;&gt;Node5 -->
<g id="edge4_Node000001_Node000005" class="edge">
<title>Node1&#45;&gt;Node5</title>
<g id="a_edge4_Node000001_Node000005"><a xlink:title=" ">
<path fill="none" stroke="#63b8ff" d="M41.07,-383C53.51,-383 70.37,-383 87.05,-383"/>
<polygon fill="#63b8ff" stroke="#63b8ff" points="87.36,-386.5 97.36,-383 87.36,-379.5 87.36,-386.5"/>
</a>
</g>
</g>
<!-- Node12 -->
<g id="Node000012" class="node">
<title>Node12</title>
<g id="a_Node000012"><a xlink:href="classcore_1_1SNodeC.html#ac3d0dcb6c216ae72d9bbb77fe080e461" target="_top" xlink:title=" ">
<polygon fill="white" stroke="#666666" points="204.5,-336.5 94.5,-336.5 94.5,-317.5 204.5,-317.5 204.5,-336.5"/>
<text text-anchor="middle" x="149.5" y="-324.5" font-family="Helvetica,sans-Serif" font-size="10.00">core::SNodeC::start</text>
</a>
</g>
</g>
<!-- Node1&#45;&gt;Node12 -->
<g id="edge11_Node000001_Node000012" class="edge">
<title>Node1&#45;&gt;Node12</title>
<g id="a_edge11_Node000001_Node000012"><a xlink:title=" ">
<path fill="none" stroke="#63b8ff" d="M41.07,-374.37C61.37,-365.42 93.42,-351.29 117.24,-340.78"/>
<polygon fill="#63b8ff" stroke="#63b8ff" points="118.83,-343.91 126.57,-336.67 116,-337.5 118.83,-343.91"/>
</a>
</g>
</g>
<!-- Node3 -->
<g id="Node000003" class="node">
<title>Node3</title>
<g id="a_Node000003"><a xlink:href="classTowerCalculator.html#a5923e3a32434b56287335e4c5caf72f6" target="_top" xlink:title=" ">
<polygon fill="white" stroke="#666666" points="403,-433.5 258,-433.5 258,-414.5 403,-414.5 403,-433.5"/>
<text text-anchor="middle" x="330.5" y="-421.5" font-family="Helvetica,sans-Serif" font-size="10.00">TowerCalculator::calculate</text>
</a>
</g>
</g>
<!-- Node2&#45;&gt;Node3 -->
<g id="edge2_Node000002_Node000003" class="edge">
<title>Node2&#45;&gt;Node3</title>
<g id="a_edge2_Node000002_Node000003"><a xlink:title=" ">
<path fill="none" stroke="#63b8ff" d="M222.02,-422.2C230.49,-422.34 239.18,-422.49 247.78,-422.63"/>
<polygon fill="#63b8ff" stroke="#63b8ff" points="247.75,-426.13 257.8,-422.8 247.86,-419.13 247.75,-426.13"/>
</a>
</g>
</g>
<!-- Node4 -->
<g id="Node000004" class="node">
<title>Node4</title>
<g id="a_Node000004"><a xlink:href="classcore_1_1EventReceiver.html#ad353e97a9089b2769e52f8825e4878b1" target="_top" xlink:title=" ">
<polygon fill="white" stroke="#666666" points="560,-441 446,-441 446,-411 560,-411 560,-441"/>
<text text-anchor="start" x="454" y="-429" font-family="Helvetica,sans-Serif" font-size="10.00">core::EventReceiver</text>
<text text-anchor="middle" x="503" y="-418" font-family="Helvetica,sans-Serif" font-size="10.00">::span</text>
</a>
</g>
</g>
<!-- Node3&#45;&gt;Node4 -->
<g id="edge3_Node000003_Node000004" class="edge">
<title>Node3&#45;&gt;Node4</title>
<g id="a_edge3_Node000003_Node000004"><a xlink:title=" ">
<path fill="none" stroke="#63b8ff" d="M403.31,-424.84C414.07,-424.97 425.12,-425.1 435.76,-425.22"/>
<polygon fill="#63b8ff" stroke="#63b8ff" points="435.77,-428.72 445.81,-425.34 435.85,-421.72 435.77,-428.72"/>
</a>
</g>
</g>
<!-- Node6 -->
<g id="Node000006" class="node">
<title>Node6</title>
<g id="a_Node000006"><a xlink:href="classcore_1_1EventLoop.html#add5491dc1f6a70714ce62f80db91098e" target="_top" xlink:title=" ">
<polygon fill="white" stroke="#666666" points="388.5,-392.5 272.5,-392.5 272.5,-373.5 388.5,-373.5 388.5,-392.5"/>
<text text-anchor="middle" x="330.5" y="-380.5" font-family="Helvetica,sans-Serif" font-size="10.00">core::EventLoop::init</text>
</a>
</g>
</g>
<!-- Node5&#45;&gt;Node6 -->
<g id="edge5_Node000005_Node000006" class="edge">
<title>Node5&#45;&gt;Node6</title>
<g id="a_edge5_Node000005_Node000006"><a xlink:title=" ">
<path fill="none" stroke="#63b8ff" d="M201.79,-383C220.53,-383 242.02,-383 261.96,-383"/>
<polygon fill="#63b8ff" stroke="#63b8ff" points="262.22,-386.5 272.22,-383 262.22,-379.5 262.22,-386.5"/>
</a>
</g>
</g>
<!-- Node7 -->
<g id="Node000007" class="node">
<title>Node7</title>
<g id="a_Node000007"><a xlink:href="classutils_1_1Config.html#aa1f3aab9bd9c12e40d174cac09f9666e" target="_top" xlink:title=" ">
<polygon fill="white" stroke="#666666" points="551.5,-392.5 454.5,-392.5 454.5,-373.5 551.5,-373.5 551.5,-392.5"/>
<text text-anchor="middle" x="503" y="-380.5" font-family="Helvetica,sans-Serif" font-size="10.00">utils::Config::init</text>
</a>
</g>
</g>
<!-- Node6&#45;&gt;Node7 -->
<g id="edge6_Node000006_Node000007" class="edge">
<title>Node6&#45;&gt;Node7</title>
<g id="a_edge6_Node000006_Node000007"><a xlink:title=" ">
<path fill="none" stroke="#63b8ff" d="M388.75,-383C406.62,-383 426.35,-383 444.25,-383"/>
<polygon fill="#63b8ff" stroke="#63b8ff" points="444.28,-386.5 454.28,-383 444.28,-379.5 444.28,-386.5"/>
</a>
</g>
</g>
<!-- Node8 -->
<g id="Node000008" class="node">
<title>Node8</title>
<g id="a_Node000008"><a xlink:href="classutils_1_1Config.html#a02a44318f73f6b5aeae2758ae62ea488" target="_top" xlink:title=" ">
<polygon fill="white" stroke="#666666" points="731,-464.5 617,-464.5 617,-445.5 731,-445.5 731,-464.5"/>
<text text-anchor="middle" x="674" y="-452.5" font-family="Helvetica,sans-Serif" font-size="10.00">utils::Config::parse1</text>
</a>
</g>
</g>
<!-- Node7&#45;&gt;Node8 -->
<g id="edge7_Node000007_Node000008" class="edge">
<title>Node7&#45;&gt;Node8</title>
<g id="a_edge7_Node000007_Node000008"><a xlink:title=" ">
<path fill="none" stroke="#63b8ff" d="M539.35,-392.51C548.47,-395.27 558.19,-398.5 567,-402 595.19,-413.2 626.06,-429.08 647.18,-440.53"/>
<polygon fill="#63b8ff" stroke="#63b8ff" points="645.7,-443.71 656.15,-445.45 649.07,-437.57 645.7,-443.71"/>
</a>
</g>
</g>
<!-- Node9 -->
<g id="Node000009" class="node">
<title>Node9</title>
<g id="a_Node000009"><a xlink:href="classlogger_1_1Logger.html#a7d70e6711ec68f00c5c68946fd030ff9" target="_top" xlink:title=" ">
<polygon fill="white" stroke="#666666" points="932,-529.5 781,-529.5 781,-510.5 932,-510.5 932,-529.5"/>
<text text-anchor="middle" x="856.5" y="-517.5" font-family="Helvetica,sans-Serif" font-size="10.00">logger::Logger::setLogLevel</text>
</a>
</g>
</g>
<!-- Node8&#45;&gt;Node9 -->
<g id="edge8_Node000008_Node000009" class="edge">
<title>Node8&#45;&gt;Node9</title>
<g id="a_edge8_Node000008_Node000009"><a xlink:title=" ">
<path fill="none" stroke="#63b8ff" d="M694.55,-464.61C715.55,-474.66 750.06,-490.42 781,-501 788.11,-503.43 795.7,-505.72 803.21,-507.79"/>
<polygon fill="#63b8ff" stroke="#63b8ff" points="802.43,-511.21 813,-510.41 804.24,-504.45 802.43,-511.21"/>
</a>
</g>
</g>
<!-- Node10 -->
<g id="Node000010" class="node">
<title>Node10</title>
<g id="a_Node000010"><a xlink:href="classlogger_1_1Logger.html#abbe17b0b008e0db4cc58ca239f3a4f03" target="_top" xlink:title=" ">
<polygon fill="white" stroke="#666666" points="923.5,-443.5 789.5,-443.5 789.5,-424.5 923.5,-424.5 923.5,-443.5"/>
<text text-anchor="middle" x="856.5" y="-431.5" font-family="Helvetica,sans-Serif" font-size="10.00">logger::Logger::setQuiet</text>
</a>
</g>
</g>
<!-- Node8&#45;&gt;Node10 -->
<g id="edge9_Node000008_Node000010" class="edge">
<title>Node8&#45;&gt;Node10</title>
<g id="a_edge9_Node000008_Node000010"><a xlink:title=" ">
<path fill="none" stroke="#63b8ff" d="M731.12,-448.47C746.38,-446.7 763.16,-444.74 779.32,-442.86"/>
<polygon fill="#63b8ff" stroke="#63b8ff" points="779.76,-446.34 789.29,-441.7 778.95,-439.38 779.76,-446.34"/>
</a>
</g>
</g>
<!-- Node11 -->
<g id="Node000011" class="node">
<title>Node11</title>
<g id="a_Node000011"><a xlink:href="classlogger_1_1Logger.html#a31d2cc6f94e95cea600c9579c981875c" target="_top" xlink:title=" ">
<polygon fill="white" stroke="#666666" points="930,-492 783,-492 783,-462 930,-462 930,-492"/>
<text text-anchor="start" x="791" y="-480" font-family="Helvetica,sans-Serif" font-size="10.00">logger::Logger::setVerbose</text>
<text text-anchor="middle" x="856.5" y="-469" font-family="Helvetica,sans-Serif" font-size="10.00">Level</text>
</a>
</g>
</g>
<!-- Node8&#45;&gt;Node11 -->
<g id="edge10_Node000008_Node000011" class="edge">
<title>Node8&#45;&gt;Node11</title>
<g id="a_edge10_Node000008_Node000011"><a xlink:title=" ">
<path fill="none" stroke="#63b8ff" d="M731.12,-461.84C744.28,-463.44 758.57,-465.19 772.62,-466.9"/>
<polygon fill="#63b8ff" stroke="#63b8ff" points="772.44,-470.4 782.79,-468.14 773.29,-463.45 772.44,-470.4"/>
</a>
</g>
</g>
<!-- Node13 -->
<g id="Node000013" class="node">
<title>Node13</title>
<g id="a_Node000013"><a xlink:href="classcore_1_1EventLoop.html#aaa2c3856fed808d00542d573c2b3a737" target="_top" xlink:title=" ">
<polygon fill="white" stroke="#666666" points="392,-266.5 269,-266.5 269,-247.5 392,-247.5 392,-266.5"/>
<text text-anchor="middle" x="330.5" y="-254.5" font-family="Helvetica,sans-Serif" font-size="10.00">core::EventLoop::start</text>
</a>
</g>
</g>
<!-- Node12&#45;&gt;Node13 -->
<g id="edge12_Node000012_Node000013" class="edge">
<title>Node12&#45;&gt;Node13</title>
<g id="a_edge12_Node000012_Node000013"><a xlink:title=" ">
<path fill="none" stroke="#63b8ff" d="M175.01,-317.41C206.26,-305.19 260.43,-284.01 295.61,-270.25"/>
<polygon fill="#63b8ff" stroke="#63b8ff" points="296.96,-273.48 305,-266.58 294.41,-266.97 296.96,-273.48"/>
</a>
</g>
</g>
<!-- Node14 -->
<g id="Node000014" class="node">
<title>Node14</title>
<g id="a_Node000014"><a xlink:href="classcore_1_1EventLoop.html#a3ce638b4895c765df8e60a804be90339" target="_top" xlink:title=" ">
<polygon fill="white" stroke="#666666" points="736,-265.5 612,-265.5 612,-246.5 736,-246.5 736,-265.5"/>
<text text-anchor="middle" x="674" y="-253.5" font-family="Helvetica,sans-Serif" font-size="10.00">core::EventLoop::_tick</text>
</a>
</g>
</g>
<!-- Node13&#45;&gt;Node14 -->
<g id="edge13_Node000013_Node000014" class="edge">
<title>Node13&#45;&gt;Node14</title>
<g id="a_edge13_Node000013_Node000014"><a xlink:title=" ">
<path fill="none" stroke="#63b8ff" d="M392.16,-256.82C450.8,-256.65 539.65,-256.39 601.66,-256.21"/>
<polygon fill="#63b8ff" stroke="#63b8ff" points="601.77,-259.71 611.75,-256.18 601.74,-252.71 601.77,-259.71"/>
</a>
</g>
</g>
<!-- Node34 -->
<g id="Node000034" class="node">
<title>Node34</title>
<g id="a_Node000034"><a xlink:href="classutils_1_1Config.html#ad7ec24ac620163a876e6673e03cecb85" target="_top" xlink:title=" ">
<polygon fill="white" stroke="#666666" points="567,-304.5 439,-304.5 439,-285.5 567,-285.5 567,-304.5"/>
<text text-anchor="middle" x="503" y="-292.5" font-family="Helvetica,sans-Serif" font-size="10.00">utils::Config::bootstrap</text>
</a>
</g>
</g>
<!-- Node13&#45;&gt;Node34 -->
<g id="edge33_Node000013_Node000034" class="edge">
<title>Node13&#45;&gt;Node34</title>
<g id="a_edge33_Node000013_Node000034"><a xlink:title=" ">
<path fill="none" stroke="#63b8ff" d="M374.52,-266.59C397.23,-271.65 425.27,-277.9 449.27,-283.25"/>
<polygon fill="#63b8ff" stroke="#63b8ff" points="448.76,-286.72 459.29,-285.48 450.29,-279.89 448.76,-286.72"/>
</a>
</g>
</g>
<!-- Node41 -->
<g id="Node000041" class="node">
<title>Node41</title>
<g id="a_Node000041"><a xlink:href="classcore_1_1EventLoop.html#a3125b6361565df4753affc73eb83984a" target="_top" xlink:title=" ">
<polygon fill="white" stroke="#666666" points="563,-171.5 443,-171.5 443,-152.5 563,-152.5 563,-171.5"/>
<text text-anchor="middle" x="503" y="-159.5" font-family="Helvetica,sans-Serif" font-size="10.00">core::EventLoop::free</text>
</a>
</g>
</g>
<!-- Node13&#45;&gt;Node41 -->
<g id="edge41_Node000013_Node000041" class="edge">
<title>Node13&#45;&gt;Node41</title>
<g id="a_edge41_Node000013_Node000041"><a xlink:title=" ">
<path fill="none" stroke="#63b8ff" d="M348.79,-247.37C378.86,-230.61 440.96,-196.01 476.17,-176.39"/>
<polygon fill="#63b8ff" stroke="#63b8ff" points="477.89,-179.44 484.92,-171.52 474.48,-173.33 477.89,-179.44"/>
</a>
</g>
</g>
<!-- Node43 -->
<g id="Node000043" class="node">
<title>Node43</title>
<g id="a_Node000043"><a xlink:href="classcore_1_1EventLoop.html#a413d227511f68c2c9939719bd2590794" target="_top" xlink:title=" ">
<polygon fill="white" stroke="#666666" points="745,-228.5 603,-228.5 603,-209.5 745,-209.5 745,-228.5"/>
<text text-anchor="middle" x="674" y="-216.5" font-family="Helvetica,sans-Serif" font-size="10.00">core::EventLoop::instance</text>
</a>
</g>
</g>
<!-- Node13&#45;&gt;Node43 -->
<g id="edge57_Node000013_Node000043" class="edge">
<title>Node13&#45;&gt;Node43</title>
<g id="a_edge57_Node000013_Node000043"><a xlink:title=" ">
<path fill="none" stroke="#63b8ff" d="M392.16,-250.25C448.08,-244.03 531.46,-234.75 592.85,-227.92"/>
<polygon fill="#63b8ff" stroke="#63b8ff" points="593.34,-231.39 602.89,-226.8 592.57,-224.43 593.34,-231.39"/>
</a>
</g>
</g>
<!-- Node15 -->
<g id="Node000015" class="node">
<title>Node15</title>
<g id="a_Node000015"><a xlink:href="classcore_1_1EventMultiplexer.html#a530975d218904452f30c411598c10423" target="_top" xlink:title=" ">
<polygon fill="white" stroke="#666666" points="920,-166 793,-166 793,-136 920,-136 920,-166"/>
<text text-anchor="start" x="801" y="-154" font-family="Helvetica,sans-Serif" font-size="10.00">core::EventMultiplexer</text>
<text text-anchor="middle" x="856.5" y="-143" font-family="Helvetica,sans-Serif" font-size="10.00">::tick</text>
</a>
</g>
</g>
<!-- Node14&#45;&gt;Node15 -->
<g id="edge14_Node000014_Node000015" class="edge">
<title>Node14&#45;&gt;Node15</title>
<g id="a_edge14_Node000014_Node000015"><a xlink:title=" ">
<path fill="none" stroke="#63b8ff" d="M727.97,-246.49C734.06,-244.02 739.91,-240.91 745,-237 770.27,-217.59 756.19,-194.99 781,-175 782.59,-173.72 784.24,-172.51 785.96,-171.36"/>
<polygon fill="#63b8ff" stroke="#63b8ff" points="788.05,-174.2 794.93,-166.14 784.52,-168.15 788.05,-174.2"/>
</a>
</g>
</g>
<!-- Node16 -->
<g id="Node000016" class="node">
<title>Node16</title>
<g id="a_Node000016"><a xlink:href="classcore_1_1EventMultiplexer.html#a21830006341a0137542d35ba0c57295a" target="_top" xlink:title=" ">
<polygon fill="white" stroke="#666666" points="1107,-212 976,-212 976,-182 1107,-182 1107,-212"/>
<text text-anchor="start" x="984" y="-200" font-family="Helvetica,sans-Serif" font-size="10.00">core::EventMultiplexer</text>
<text text-anchor="middle" x="1041.5" y="-189" font-family="Helvetica,sans-Serif" font-size="10.00">::checkTimedOutEvents</text>
</a>
</g>
</g>
<!-- Node15&#45;&gt;Node16 -->
<g id="edge15_Node000015_Node000016" class="edge">
<title>Node15&#45;&gt;Node16</title>
<g id="a_edge15_Node000015_Node000016"><a xlink:title=" ">
<path fill="none" stroke="#63b8ff" d="M917.42,-166.06C934.41,-170.33 953.06,-175.02 970.59,-179.43"/>
<polygon fill="#63b8ff" stroke="#63b8ff" points="970.21,-182.94 980.76,-181.98 971.91,-176.15 970.21,-182.94"/>
</a>
</g>
</g>
<!-- Node17 -->
<g id="Node000017" class="node">
<title>Node17</title>
<g id="a_Node000017"><a xlink:href="classutils_1_1Timeval.html#a54b232dc1ffeea007100dcd1caad1987" target="_top" xlink:title=" ">
<polygon fill="white" stroke="#666666" points="1115,-115.5 968,-115.5 968,-96.5 1115,-96.5 1115,-115.5"/>
<text text-anchor="middle" x="1041.5" y="-103.5" font-family="Helvetica,sans-Serif" font-size="10.00">utils::Timeval::currentTime</text>
</a>
</g>
</g>
<!-- Node15&#45;&gt;Node17 -->
<g id="edge16_Node000015_Node000017" class="edge">
<title>Node15&#45;&gt;Node17</title>
<g id="a_edge16_Node000015_Node000017"><a xlink:title=" ">
<path fill="none" stroke="#63b8ff" d="M918.69,-135.95C942.48,-130.1 969.35,-123.5 991.79,-117.98"/>
<polygon fill="#63b8ff" stroke="#63b8ff" points="992.88,-121.31 1001.76,-115.53 991.21,-114.52 992.88,-121.31"/>
</a>
</g>
</g>
<!-- Node20 -->
<g id="Node000020" class="node">
<title>Node20</title>
<g id="a_Node000020"><a xlink:href="classcore_1_1EventMultiplexer.html#af3e7b68817fc910c020a9981b2e58c61" target="_top" xlink:title=" ">
<polygon fill="white" stroke="#666666" points="1105,-164 978,-164 978,-134 1105,-134 1105,-164"/>
<text text-anchor="start" x="986" y="-152" font-family="Helvetica,sans-Serif" font-size="10.00">core::EventMultiplexer</text>
<text text-anchor="middle" x="1041.5" y="-141" font-family="Helvetica,sans-Serif" font-size="10.00">::executeEventQueue</text>
</a>
</g>
</g>
<!-- Node15&#45;&gt;Node20 -->
<g id="edge19_Node000015_Node000020" class="edge">
<title>Node15&#45;&gt;Node20</title>
<g id="a_edge19_Node000015_Node000020"><a xlink:title=" ">
<path fill="none" stroke="#63b8ff" d="M920.22,-150.31C935.5,-150.15 951.97,-149.97 967.67,-149.8"/>
<polygon fill="#63b8ff" stroke="#63b8ff" points="967.9,-153.29 977.86,-149.68 967.82,-146.29 967.9,-153.29"/>
</a>
</g>
</g>
<!-- Node21 -->
<g id="Node000021" class="node">
<title>Node21</title>
<g id="a_Node000021"><a xlink:href="classcore_1_1EventMultiplexer.html#a0d4746a8388a975f74f6ae3db4930a6b" target="_top" xlink:title=" ">
<polygon fill="white" stroke="#666666" points="1114.5,-78 968.5,-78 968.5,-48 1114.5,-48 1114.5,-78"/>
<text text-anchor="start" x="976.5" y="-66" font-family="Helvetica,sans-Serif" font-size="10.00">core::EventMultiplexer</text>
<text text-anchor="middle" x="1041.5" y="-55" font-family="Helvetica,sans-Serif" font-size="10.00">::releaseExpiredResources</text>
</a>
</g>
</g>
<!-- Node15&#45;&gt;Node21 -->
<g id="edge20_Node000015_Node000021" class="edge">
<title>Node15&#45;&gt;Node21</title>
<g id="a_edge20_Node000015_Node000021"><a xlink:title=" ">
<path fill="none" stroke="#63b8ff" d="M915.06,-135.91C920.99,-133.35 926.75,-130.4 932,-127 952.07,-114 947.98,-100.08 968,-87 970.45,-85.4 973.01,-83.9 975.65,-82.49"/>
<polygon fill="#63b8ff" stroke="#63b8ff" points="977.37,-85.55 984.86,-78.05 974.34,-79.24 977.37,-85.55"/>
</a>
</g>
</g>
<!-- Node24 -->
<g id="Node000024" class="node">
<title>Node24</title>
<g id="a_Node000024"><a xlink:href="classcore_1_1EventMultiplexer.html#a5425950b6a24f1bd93ce44301cfb2c22" target="_top" xlink:title=" ">
<polygon fill="white" stroke="#666666" points="1105,-308 978,-308 978,-278 1105,-278 1105,-308"/>
<text text-anchor="start" x="986" y="-296" font-family="Helvetica,sans-Serif" font-size="10.00">core::EventMultiplexer</text>
<text text-anchor="middle" x="1041.5" y="-285" font-family="Helvetica,sans-Serif" font-size="10.00">::spanActiveEvents</text>
</a>
</g>
</g>
<!-- Node15&#45;&gt;Node24 -->
<g id="edge23_Node000015_Node000024" class="edge">
<title>Node15&#45;&gt;Node24</title>
<g id="a_edge23_Node000015_Node000024"><a xlink:title=" ">
<path fill="none" stroke="#63b8ff" d="M919.77,-166.05C924.2,-168.58 928.35,-171.54 932,-175 964.48,-205.77 935.65,-238.1 968,-269 969.25,-270.2 970.57,-271.33 971.93,-272.41"/>
<polygon fill="#63b8ff" stroke="#63b8ff" points="969.99,-275.33 980.24,-278 973.9,-269.52 969.99,-275.33"/>
</a>
</g>
</g>
<!-- Node27 -->
<g id="Node000027" class="node">
<title>Node27</title>
<g id="a_Node000027"><a xlink:href="classcore_1_1EventMultiplexer.html#a355f067eee528083f621446d8c5233d1" target="_top" xlink:title=" ">
<polygon fill="white" stroke="#666666" points="1105,-260 978,-260 978,-230 1105,-230 1105,-260"/>
<text text-anchor="start" x="986" y="-248" font-family="Helvetica,sans-Serif" font-size="10.00">core::EventMultiplexer</text>
<text text-anchor="middle" x="1041.5" y="-237" font-family="Helvetica,sans-Serif" font-size="10.00">::waitForEvents</text>
</a>
</g>
</g>
<!-- Node15&#45;&gt;Node27 -->
<g id="edge26_Node000015_Node000027" class="edge">
<title>Node15&#45;&gt;Node27</title>
<g id="a_edge26_Node000015_Node000027"><a xlink:title=" ">
<path fill="none" stroke="#63b8ff" d="M916.07,-166.08C921.68,-168.62 927.1,-171.58 932,-175 953.29,-189.86 946.77,-206.06 968,-221 970.13,-222.5 972.37,-223.92 974.68,-225.24"/>
<polygon fill="#63b8ff" stroke="#63b8ff" points="973.38,-228.51 983.88,-229.96 976.58,-222.28 973.38,-228.51"/>
</a>
</g>
</g>
<!-- Node18 -->
<g id="Node000018" class="node">
<title>Node18</title>
<g id="a_Node000018"><a xlink:href="namespaceutils_1_1system.html#ad594b7afe9fa80d3db04591c966422b2" target="_top" xlink:title=" ">
<polygon fill="white" stroke="#666666" points="1303,-152.5 1151,-152.5 1151,-133.5 1303,-133.5 1303,-152.5"/>
<text text-anchor="middle" x="1227" y="-140.5" font-family="Helvetica,sans-Serif" font-size="10.00">utils::system::gettimeofday</text>
</a>
</g>
</g>
<!-- Node17&#45;&gt;Node18 -->
<g id="edge17_Node000017_Node000018" class="edge">
<title>Node17&#45;&gt;Node18</title>
<g id="a_edge17_Node000017_Node000018"><a xlink:title=" ">
<path fill="none" stroke="#63b8ff" d="M1089.76,-115.53C1113.85,-120.39 1143.34,-126.33 1168.72,-131.45"/>
<polygon fill="#63b8ff" stroke="#63b8ff" points="1168.09,-134.89 1178.59,-133.44 1169.47,-128.03 1168.09,-134.89"/>
</a>
</g>
</g>
<!-- Node19 -->
<g id="Node000019" class="node">
<title>Node19</title>
<g id="a_Node000019"><a xlink:href="classutils_1_1Timeval.html#a4a554848a362fa40feef1c3f93c0c2e5" target="_top" xlink:title=" ">
<polygon fill="white" stroke="#666666" points="1295.5,-115.5 1158.5,-115.5 1158.5,-96.5 1295.5,-96.5 1295.5,-115.5"/>
<text text-anchor="middle" x="1227" y="-103.5" font-family="Helvetica,sans-Serif" font-size="10.00">utils::Timeval::operator&amp;</text>
</a>
</g>
</g>
<!-- Node17&#45;&gt;Node19 -->
<g id="edge18_Node000017_Node000019" class="edge">
<title>Node17&#45;&gt;Node19</title>
<g id="a_edge18_Node000017_Node000019"><a xlink:title=" ">
<path fill="none" stroke="#63b8ff" d="M1115.02,-106C1125.99,-106 1137.34,-106 1148.41,-106"/>
<polygon fill="#63b8ff" stroke="#63b8ff" points="1148.48,-109.5 1158.48,-106 1148.48,-102.5 1148.48,-109.5"/>
</a>
</g>
</g>
<!-- Node22 -->
<g id="Node000022" class="node">
<title>Node22</title>
<g id="a_Node000022"><a xlink:href="classcore_1_1DynamicLoader.html#a8c4d850882c7177f93a543b96eb450a0" target="_top" xlink:title=" ">
<polygon fill="white" stroke="#666666" points="1289,-78 1165,-78 1165,-48 1289,-48 1289,-78"/>
<text text-anchor="start" x="1173" y="-66" font-family="Helvetica,sans-Serif" font-size="10.00">core::DynamicLoader</text>
<text text-anchor="middle" x="1227" y="-55" font-family="Helvetica,sans-Serif" font-size="10.00">::execDlCloseDeleyed</text>
</a>
</g>
</g>
<!-- Node21&#45;&gt;Node22 -->
<g id="edge21_Node000021_Node000022" class="edge">
<title>Node21&#45;&gt;Node22</title>
<g id="a_edge21_Node000021_Node000022"><a xlink:title=" ">
<path fill="none" stroke="#63b8ff" d="M1114.76,-63C1127.82,-63 1141.43,-63 1154.47,-63"/>
<polygon fill="#63b8ff" stroke="#63b8ff" points="1154.78,-66.5 1164.78,-63 1154.78,-59.5 1154.78,-66.5"/>
</a>
</g>
</g>
<!-- Node23 -->
<g id="Node000023" class="node">
<title>Node23</title>
<g id="a_Node000023"><a xlink:href="classcore_1_1TimerEventPublisher.html#a7064625a77fa629ae729f73b839e4264" target="_top" xlink:title=" ">
<polygon fill="white" stroke="#666666" points="1299,-30 1155,-30 1155,0 1299,0 1299,-30"/>
<text text-anchor="start" x="1163" y="-18" font-family="Helvetica,sans-Serif" font-size="10.00">core::TimerEventPublisher</text>
<text text-anchor="middle" x="1227" y="-7" font-family="Helvetica,sans-Serif" font-size="10.00">::unobserveDisableEvents</text>
</a>
</g>
</g>
<!-- Node21&#45;&gt;Node23 -->
<g id="edge22_Node000021_Node000023" class="edge">
<title>Node21&#45;&gt;Node23</title>
<g id="a_edge22_Node000021_Node000023"><a xlink:title=" ">
<path fill="none" stroke="#63b8ff" d="M1100.06,-47.94C1118.67,-43.07 1139.48,-37.63 1158.74,-32.59"/>
<polygon fill="#63b8ff" stroke="#63b8ff" points="1159.86,-35.92 1168.65,-30 1158.09,-29.15 1159.86,-35.92"/>
</a>
</g>
</g>
<!-- Node25 -->
<g id="Node000025" class="node">
<title>Node25</title>
<g id="a_Node000025"><a xlink:href="classcore_1_1EventMultiplexer.html#ab0aac58738dd772b9462b387d91cc413" target="_top" xlink:title=" ">
<polygon fill="white" stroke="#666666" points="1290.5,-356 1163.5,-356 1163.5,-326 1290.5,-326 1290.5,-356"/>
<text text-anchor="start" x="1171.5" y="-344" font-family="Helvetica,sans-Serif" font-size="10.00">core::EventMultiplexer</text>
<text text-anchor="middle" x="1227" y="-333" font-family="Helvetica,sans-Serif" font-size="10.00">::spanActiveEvents</text>
</a>
</g>
</g>
<!-- Node24&#45;&gt;Node25 -->
<g id="edge24_Node000024_Node000025" class="edge">
<title>Node24&#45;&gt;Node25</title>
<g id="a_edge24_Node000024_Node000025"><a xlink:title=" ">
<path fill="none" stroke="#63b8ff" d="M1100.06,-308.06C1118.67,-312.93 1139.48,-318.37 1158.74,-323.41"/>
<polygon fill="#63b8ff" stroke="#63b8ff" points="1158.09,-326.85 1168.65,-326 1159.86,-320.08 1158.09,-326.85"/>
</a>
</g>
</g>
<!-- Node26 -->
<g id="Node000026" class="node">
<title>Node26</title>
<g id="a_Node000026"><a xlink:href="classcore_1_1TimerEventPublisher.html#a63e61efe7444a29cc3ada8616249d535" target="_top" xlink:title=" ">
<polygon fill="white" stroke="#666666" points="1299,-308 1155,-308 1155,-278 1299,-278 1299,-308"/>
<text text-anchor="start" x="1163" y="-296" font-family="Helvetica,sans-Serif" font-size="10.00">core::TimerEventPublisher</text>
<text text-anchor="middle" x="1227" y="-285" font-family="Helvetica,sans-Serif" font-size="10.00">::spanActiveEvents</text>
</a>
</g>
</g>
<!-- Node24&#45;&gt;Node26 -->
<g id="edge25_Node000024_Node000026" class="edge">
<title>Node24&#45;&gt;Node26</title>
<g id="a_edge25_Node000024_Node000026"><a xlink:title=" ">
<path fill="none" stroke="#63b8ff" d="M1105.14,-293C1117.88,-293 1131.46,-293 1144.74,-293"/>
<polygon fill="#63b8ff" stroke="#63b8ff" points="1144.81,-296.5 1154.81,-293 1144.81,-289.5 1144.81,-296.5"/>
</a>
</g>
</g>
<!-- Node28 -->
<g id="Node000028" class="node">
<title>Node28</title>
<g id="a_Node000028"><a xlink:href="classcore_1_1EventMultiplexer.html#a1747151aa22c4bcbdb9b67c11d0fd403" target="_top" xlink:title=" ">
<polygon fill="white" stroke="#666666" points="1290.5,-260 1163.5,-260 1163.5,-230 1290.5,-230 1290.5,-260"/>
<text text-anchor="start" x="1171.5" y="-248" font-family="Helvetica,sans-Serif" font-size="10.00">core::EventMultiplexer</text>
<text text-anchor="middle" x="1227" y="-237" font-family="Helvetica,sans-Serif" font-size="10.00">::getNextTimeout</text>
</a>
</g>
</g>
<!-- Node27&#45;&gt;Node28 -->
<g id="edge27_Node000027_Node000028" class="edge">
<title>Node27&#45;&gt;Node28</title>
<g id="a_edge27_Node000027_Node000028"><a xlink:title=" ">
<path fill="none" stroke="#63b8ff" d="M1105.14,-245C1120.55,-245 1137.19,-245 1153.05,-245"/>
<polygon fill="#63b8ff" stroke="#63b8ff" points="1153.33,-248.5 1163.33,-245 1153.33,-241.5 1153.33,-248.5"/>
</a>
</g>
</g>
<!-- Node33 -->
<g id="Node000033" class="node">
<title>Node33</title>
<g id="a_Node000033"><a xlink:href="classcore_1_1EventMultiplexer.html#a0161a18334e48b47ab7d78bac115577e" target="_top" xlink:title=" ">
<polygon fill="white" stroke="#666666" points="1290.5,-212 1163.5,-212 1163.5,-182 1290.5,-182 1290.5,-212"/>
<text text-anchor="start" x="1171.5" y="-200" font-family="Helvetica,sans-Serif" font-size="10.00">core::EventMultiplexer</text>
<text text-anchor="middle" x="1227" y="-189" font-family="Helvetica,sans-Serif" font-size="10.00">::monitorDescriptors</text>
</a>
</g>
</g>
<!-- Node27&#45;&gt;Node33 -->
<g id="edge32_Node000027_Node000033" class="edge">
<title>Node27&#45;&gt;Node33</title>
<g id="a_edge32_Node000027_Node000033"><a xlink:title=" ">
<path fill="none" stroke="#63b8ff" d="M1100.06,-229.94C1118.67,-225.07 1139.48,-219.63 1158.74,-214.59"/>
<polygon fill="#63b8ff" stroke="#63b8ff" points="1159.86,-217.92 1168.65,-212 1158.09,-211.15 1159.86,-217.92"/>
</a>
</g>
</g>
<!-- Node29 -->
<g id="Node000029" class="node">
<title>Node29</title>
<g id="a_Node000029"><a xlink:href="classcore_1_1TimerEventPublisher.html#a498ad26f0eb68bacc274e81d5c29f027" target="_top" xlink:title=" ">
<polygon fill="white" stroke="#666666" points="1483,-303 1339,-303 1339,-273 1483,-273 1483,-303"/>
<text text-anchor="start" x="1347" y="-291" font-family="Helvetica,sans-Serif" font-size="10.00">core::TimerEventPublisher</text>
<text text-anchor="middle" x="1411" y="-280" font-family="Helvetica,sans-Serif" font-size="10.00">::getNextTimeout</text>
</a>
</g>
</g>
<!-- Node28&#45;&gt;Node29 -->
<g id="edge28_Node000028_Node000029" class="edge">
<title>Node28&#45;&gt;Node29</title>
<g id="a_edge28_Node000028_Node000029"><a xlink:title=" ">
<path fill="none" stroke="#63b8ff" d="M1290.63,-259.8C1305.4,-263.29 1321.26,-267.03 1336.46,-270.62"/>
<polygon fill="#63b8ff" stroke="#63b8ff" points="1335.79,-274.06 1346.32,-272.96 1337.4,-267.25 1335.79,-274.06"/>
</a>
</g>
</g>
<!-- Node30 -->
<g id="Node000030" class="node">
<title>Node30</title>
<g id="a_Node000030"><a xlink:href="classutils_1_1Timeval.html#ac5696b678505b8fb9ee27540ab1802ca" target="_top" xlink:title=" ">
<polygon fill="white" stroke="#666666" points="1480,-254.5 1342,-254.5 1342,-235.5 1480,-235.5 1480,-254.5"/>
<text text-anchor="middle" x="1411" y="-242.5" font-family="Helvetica,sans-Serif" font-size="10.00">utils::Timeval::operator=</text>
</a>
</g>
</g>
<!-- Node28&#45;&gt;Node30 -->
<g id="edge29_Node000028_Node000030" class="edge">
<title>Node28&#45;&gt;Node30</title>
<g id="a_edge29_Node000028_Node000030"><a xlink:title=" ">
<path fill="none" stroke="#63b8ff" d="M1290.63,-245C1303.83,-245 1317.9,-245 1331.59,-245"/>
<polygon fill="#63b8ff" stroke="#63b8ff" points="1331.96,-248.5 1341.96,-245 1331.96,-241.5 1331.96,-248.5"/>
</a>
</g>
</g>
<!-- Node32 -->
<g id="Node000032" class="node">
<title>Node32</title>
<g id="a_Node000032"><a xlink:href="classutils_1_1Timeval.html#aacc316fe0ed05d83ecefbc3fb31e195c" target="_top" xlink:title=" ">
<polygon fill="white" stroke="#666666" points="1475,-217.5 1347,-217.5 1347,-198.5 1475,-198.5 1475,-217.5"/>
<text text-anchor="middle" x="1411" y="-205.5" font-family="Helvetica,sans-Serif" font-size="10.00">utils::Timeval::Timeval</text>
</a>
</g>
</g>
<!-- Node28&#45;&gt;Node32 -->
<g id="edge31_Node000028_Node000032" class="edge">
<title>Node28&#45;&gt;Node32</title>
<g id="a_edge31_Node000028_Node000032"><a xlink:title=" ">
<path fill="none" stroke="#63b8ff" d="M1290.63,-232.27C1310.95,-228.14 1333.37,-223.58 1353.24,-219.54"/>
<polygon fill="#63b8ff" stroke="#63b8ff" points="1353.96,-222.96 1363.07,-217.54 1352.57,-216.1 1353.96,-222.96"/>
</a>
</g>
</g>
<!-- Node31 -->
<g id="Node000031" class="node">
<title>Node31</title>
<g id="a_Node000031"><a xlink:href="classutils_1_1Timeval.html#a09c93683f8c399644adff88b92577624" target="_top" xlink:title=" ">
<polygon fill="white" stroke="#666666" points="1656,-254.5 1519,-254.5 1519,-235.5 1656,-235.5 1656,-254.5"/>
<text text-anchor="middle" x="1587.5" y="-242.5" font-family="Helvetica,sans-Serif" font-size="10.00">utils::Timeval::operator&amp;</text>
</a>
</g>
</g>
<!-- Node30&#45;&gt;Node31 -->
<g id="edge30_Node000030_Node000031" class="edge">
<title>Node30&#45;&gt;Node31</title>
<g id="a_edge30_Node000030_Node000031"><a xlink:title=" ">
<path fill="none" stroke="#63b8ff" d="M1480.22,-245C1489.55,-245 1499.19,-245 1508.69,-245"/>
<polygon fill="#63b8ff" stroke="#63b8ff" points="1508.9,-248.5 1518.9,-245 1508.9,-241.5 1508.9,-248.5"/>
</a>
</g>
</g>
<!-- Node35 -->
<g id="Node000035" class="node">
<title>Node35</title>
<g id="a_Node000035"><a xlink:href="classutils_1_1Config.html#acfc15fda9b650ea850840952fa72ec6c" target="_top" xlink:title=" ">
<polygon fill="white" stroke="#666666" points="731,-304.5 617,-304.5 617,-285.5 731,-285.5 731,-304.5"/>
<text text-anchor="middle" x="674" y="-292.5" font-family="Helvetica,sans-Serif" font-size="10.00">utils::Config::parse2</text>
</a>
</g>
</g>
<!-- Node34&#45;&gt;Node35 -->
<g id="edge34_Node000034_Node000035" class="edge">
<title>Node34&#45;&gt;Node35</title>
<g id="a_edge34_Node000034_Node000035"><a xlink:title=" ">
<path fill="none" stroke="#63b8ff" d="M567.41,-295C580.2,-295 593.67,-295 606.56,-295"/>
<polygon fill="#63b8ff" stroke="#63b8ff" points="606.74,-298.5 616.74,-295 606.74,-291.5 606.74,-298.5"/>
</a>
</g>
</g>
<!-- Node35&#45;&gt;Node10 -->
<g id="edge40_Node000035_Node000010" class="edge">
<title>Node35&#45;&gt;Node10</title>
<g id="a_edge40_Node000035_Node000010"><a xlink:title=" ">
<path fill="none" stroke="#63b8ff" d="M680.56,-304.52C694.41,-327.36 732.85,-385.58 781,-415 784.59,-417.19 788.42,-419.13 792.38,-420.85"/>
<polygon fill="#63b8ff" stroke="#63b8ff" points="791.22,-424.15 801.81,-424.47 793.73,-417.62 791.22,-424.15"/>
</a>
</g>
</g>
<!-- Node36 -->
<g id="Node000036" class="node">
<title>Node36</title>
<g id="a_Node000036"><a xlink:href="classCLI_1_1CallForCommandline.html#a62369261eb9006cb8bdd1a3595cdc5eb" target="_top" xlink:title=" ">
<polygon fill="white" stroke="#666666" points="926.5,-358 786.5,-358 786.5,-328 926.5,-328 926.5,-358"/>
<text text-anchor="start" x="794.5" y="-346" font-family="Helvetica,sans-Serif" font-size="10.00">CLI::CallForCommandline</text>
<text text-anchor="middle" x="856.5" y="-335" font-family="Helvetica,sans-Serif" font-size="10.00">::getApp</text>
</a>
</g>
</g>
<!-- Node35&#45;&gt;Node36 -->
<g id="edge35_Node000035_Node000036" class="edge">
<title>Node35&#45;&gt;Node36</title>
<g id="a_edge35_Node000035_Node000036"><a xlink:title=" ">
<path fill="none" stroke="#63b8ff" d="M711.09,-304.6C733.35,-310.52 762.59,-318.29 788.92,-325.3"/>
<polygon fill="#63b8ff" stroke="#63b8ff" points="788.29,-328.75 798.86,-327.94 790.09,-321.98 788.29,-328.75"/>
</a>
</g>
</g>
<!-- Node37 -->
<g id="Node000037" class="node">
<title>Node37</title>
<g id="a_Node000037"><a xlink:href="classCLI_1_1CallForShowConfig.html#a355b190c4e114e32788578b8a7090132" target="_top" xlink:title=" ">
<polygon fill="white" stroke="#666666" points="921,-310 792,-310 792,-280 921,-280 921,-310"/>
<text text-anchor="start" x="800" y="-298" font-family="Helvetica,sans-Serif" font-size="10.00">CLI::CallForShowConfig</text>
<text text-anchor="middle" x="856.5" y="-287" font-family="Helvetica,sans-Serif" font-size="10.00">::getApp</text>
</a>
</g>
</g>
<!-- Node35&#45;&gt;Node37 -->
<g id="edge36_Node000035_Node000037" class="edge">
<title>Node35&#45;&gt;Node37</title>
<g id="a_edge36_Node000035_Node000037"><a xlink:title=" ">
<path fill="none" stroke="#63b8ff" d="M731.12,-295C747.06,-295 764.67,-295 781.5,-295"/>
<polygon fill="#63b8ff" stroke="#63b8ff" points="781.85,-298.5 791.85,-295 781.85,-291.5 781.85,-298.5"/>
</a>
</g>
</g>
<!-- Node38 -->
<g id="Node000038" class="node">
<title>Node38</title>
<g id="a_Node000038"><a xlink:href="classCLI_1_1CallForWriteConfig.html#a0cb54fe0d9d83b597d6c5caddb04b89c" target="_top" xlink:title=" ">
<polygon fill="white" stroke="#666666" points="921,-262 792,-262 792,-232 921,-232 921,-262"/>
<text text-anchor="start" x="800" y="-250" font-family="Helvetica,sans-Serif" font-size="10.00">CLI::CallForWriteConfig</text>
<text text-anchor="middle" x="856.5" y="-239" font-family="Helvetica,sans-Serif" font-size="10.00">::getConfigFile</text>
</a>
</g>
</g>
<!-- Node35&#45;&gt;Node38 -->
<g id="edge37_Node000035_Node000038" class="edge">
<title>Node35&#45;&gt;Node38</title>
<g id="a_edge37_Node000035_Node000038"><a xlink:title=" ">
<path fill="none" stroke="#63b8ff" d="M711.09,-285.4C733.35,-279.48 762.59,-271.71 788.92,-264.7"/>
<polygon fill="#63b8ff" stroke="#63b8ff" points="790.09,-268.02 798.86,-262.06 788.29,-261.25 790.09,-268.02"/>
</a>
</g>
</g>
<!-- Node39 -->
<g id="Node000039" class="node">
<title>Node39</title>
<g id="a_Node000039"><a xlink:href="classCLI_1_1CallForCommandline.html#adce893b471d60e14d0fa7af2e2278680" target="_top" xlink:title=" ">
<polygon fill="white" stroke="#666666" points="926.5,-214 786.5,-214 786.5,-184 926.5,-184 926.5,-214"/>
<text text-anchor="start" x="794.5" y="-202" font-family="Helvetica,sans-Serif" font-size="10.00">CLI::CallForCommandline</text>
<text text-anchor="middle" x="856.5" y="-191" font-family="Helvetica,sans-Serif" font-size="10.00">::getMode</text>
</a>
</g>
</g>
<!-- Node35&#45;&gt;Node39 -->
<g id="edge38_Node000035_Node000039" class="edge">
<title>Node35&#45;&gt;Node39</title>
<g id="a_edge38_Node000035_Node000039"><a xlink:title=" ">
<path fill="none" stroke="#63b8ff" d="M722.57,-285.42C730.5,-282.54 738.31,-278.82 745,-274 767.52,-257.79 758.65,-239.43 781,-223 783.06,-221.49 785.22,-220.06 787.45,-218.73"/>
<polygon fill="#63b8ff" stroke="#63b8ff" points="789.18,-221.78 796.38,-214.01 785.9,-215.59 789.18,-221.78"/>
</a>
</g>
</g>
<!-- Node40 -->
<g id="Node000040" class="node">
<title>Node40</title>
<g id="a_Node000040"><a xlink:href="classutils_1_1DaemonSignaled.html#a93c5203381f3b2042458cd588c12acfc" target="_top" xlink:title=" ">
<polygon fill="white" stroke="#666666" points="920,-406 793,-406 793,-376 920,-376 920,-406"/>
<text text-anchor="start" x="801" y="-394" font-family="Helvetica,sans-Serif" font-size="10.00">utils::DaemonSignaled</text>
<text text-anchor="middle" x="856.5" y="-383" font-family="Helvetica,sans-Serif" font-size="10.00">::getPid</text>
</a>
</g>
</g>
<!-- Node35&#45;&gt;Node40 -->
<g id="edge39_Node000035_Node000040" class="edge">
<title>Node35&#45;&gt;Node40</title>
<g id="a_edge39_Node000035_Node000040"><a xlink:title=" ">
<path fill="none" stroke="#63b8ff" d="M686.71,-304.62C705.55,-319.7 744.22,-349.04 781,-367 784.78,-368.84 788.73,-370.59 792.76,-372.24"/>
<polygon fill="#63b8ff" stroke="#63b8ff" points="791.67,-375.57 802.26,-375.91 794.19,-369.04 791.67,-375.57"/>
</a>
</g>
</g>
<!-- Node41&#45;&gt;Node14 -->
<g id="edge42_Node000041_Node000014" class="edge">
<title>Node41&#45;&gt;Node14</title>
<g id="a_edge42_Node000041_Node000014"><a xlink:title=" ">
<path fill="none" stroke="#63b8ff" d="M513.81,-171.53C530.67,-187.4 566.81,-219.22 603,-237 607.68,-239.3 612.68,-241.35 617.78,-243.18"/>
<polygon fill="#63b8ff" stroke="#63b8ff" points="617.03,-246.62 627.63,-246.42 619.22,-239.97 617.03,-246.62"/>
</a>
</g>
</g>
<!-- Node42 -->
<g id="Node000042" class="node">
<title>Node42</title>
<g id="a_Node000042"><a xlink:href="classcore_1_1DynamicLoader.html#acff0a66e885a7bc718171eede89a1c9a" target="_top" xlink:title=" ">
<polygon fill="white" stroke="#666666" points="734,-115 614,-115 614,-85 734,-85 734,-115"/>
<text text-anchor="start" x="622" y="-103" font-family="Helvetica,sans-Serif" font-size="10.00">core::DynamicLoader</text>
<text text-anchor="middle" x="674" y="-92" font-family="Helvetica,sans-Serif" font-size="10.00">::execDlCloseAll</text>
</a>
</g>
</g>
<!-- Node41&#45;&gt;Node42 -->
<g id="edge43_Node000041_Node000042" class="edge">
<title>Node41&#45;&gt;Node42</title>
<g id="a_edge43_Node000041_Node000042"><a xlink:title=" ">
<path fill="none" stroke="#63b8ff" d="M528.32,-152.38C548.3,-144.55 577.39,-133.3 603,-124 608.06,-122.16 613.33,-120.29 618.62,-118.43"/>
<polygon fill="#63b8ff" stroke="#63b8ff" points="619.81,-121.72 628.1,-115.12 617.51,-115.11 619.81,-121.72"/>
</a>
</g>
</g>
<!-- Node41&#45;&gt;Node43 -->
<g id="edge44_Node000041_Node000043" class="edge">
<title>Node41&#45;&gt;Node43</title>
<g id="a_edge44_Node000041_Node000043"><a xlink:title=" ">
<path fill="none" stroke="#63b8ff" d="M532.29,-171.54C560.44,-181.03 603.82,-195.67 634.97,-206.17"/>
<polygon fill="#63b8ff" stroke="#63b8ff" points="634.03,-209.55 644.62,-209.43 636.26,-202.92 634.03,-209.55"/>
</a>
</g>
</g>
<!-- Node44 -->
<g id="Node000044" class="node">
<title>Node44</title>
<g id="a_Node000044"><a xlink:href="classutils_1_1Timeval.html#a0a9d21f05cc48b208a95d269305fb7ec" target="_top" xlink:title=" ">
<polygon fill="white" stroke="#666666" points="743,-66.5 605,-66.5 605,-47.5 743,-47.5 743,-66.5"/>
<text text-anchor="middle" x="674" y="-54.5" font-family="Helvetica,sans-Serif" font-size="10.00">utils::Timeval::operator&gt;</text>
</a>
</g>
</g>
<!-- Node41&#45;&gt;Node44 -->
<g id="edge45_Node000041_Node000044" class="edge">
<title>Node41&#45;&gt;Node44</title>
<g id="a_edge45_Node000041_Node000044"><a xlink:title=" ">
<path fill="none" stroke="#63b8ff" d="M512.24,-152.42C528.03,-134.66 564.43,-96.58 603,-76 607.29,-73.71 611.87,-71.68 616.57,-69.88"/>
<polygon fill="#63b8ff" stroke="#63b8ff" points="618,-73.09 626.31,-66.51 615.71,-66.48 618,-73.09"/>
</a>
</g>
</g>
<!-- Node46 -->
<g id="Node000046" class="node">
<title>Node46</title>
<g id="a_Node000046"><a xlink:href="classcore_1_1EventMultiplexer.html#a606a67a2c22c6d1f0c7eb0d722ee2069" target="_top" xlink:title=" ">
<polygon fill="white" stroke="#666666" points="920,-32 793,-32 793,-2 920,-2 920,-32"/>
<text text-anchor="start" x="801" y="-20" font-family="Helvetica,sans-Serif" font-size="10.00">core::EventMultiplexer</text>
<text text-anchor="middle" x="856.5" y="-9" font-family="Helvetica,sans-Serif" font-size="10.00">::signal</text>
</a>
</g>
</g>
<!-- Node41&#45;&gt;Node46 -->
<g id="edge47_Node000041_Node000046" class="edge">
<title>Node41&#45;&gt;Node46</title>
<g id="a_edge47_Node000041_Node000046"><a xlink:title=" ">
<path fill="none" stroke="#63b8ff" d="M508.29,-152.36C519.66,-128.1 553.17,-64.58 603,-38 658.15,-8.58 729.87,-5.35 782.77,-8.3"/>
<polygon fill="#63b8ff" stroke="#63b8ff" points="782.55,-11.79 792.76,-8.94 783,-4.81 782.55,-11.79"/>
</a>
</g>
</g>
<!-- Node48 -->
<g id="Node000048" class="node">
<title>Node48</title>
<g id="a_Node000048"><a xlink:href="classcore_1_1EventMultiplexer.html#ae8368220efce9e102a2ddddcea18bd28" target="_top" xlink:title=" ">
<polygon fill="white" stroke="#666666" points="920,-118 793,-118 793,-88 920,-88 920,-118"/>
<text text-anchor="start" x="801" y="-106" font-family="Helvetica,sans-Serif" font-size="10.00">core::EventMultiplexer</text>
<text text-anchor="middle" x="856.5" y="-95" font-family="Helvetica,sans-Serif" font-size="10.00">::terminate</text>
</a>
</g>
</g>
<!-- Node41&#45;&gt;Node48 -->
<g id="edge52_Node000041_Node000048" class="edge">
<title>Node41&#45;&gt;Node48</title>
<g id="a_edge52_Node000041_Node000048"><a xlink:title=" ">
<path fill="none" stroke="#63b8ff" d="M549.86,-171.5C599.81,-179.69 681.09,-186.56 745,-161 765.43,-152.83 762.06,-138.21 781,-127 783.87,-125.3 786.86,-123.71 789.95,-122.22"/>
<polygon fill="#63b8ff" stroke="#63b8ff" points="791.65,-125.3 799.38,-118.05 788.82,-118.89 791.65,-125.3"/>
</a>
</g>
</g>
<!-- Node49 -->
<g id="Node000049" class="node">
<title>Node49</title>
<g id="a_Node000049"><a xlink:href="classutils_1_1Config.html#a764d38853d92211c112bcc15d8c21bb3" target="_top" xlink:title=" ">
<polygon fill="white" stroke="#666666" points="738.5,-152.5 609.5,-152.5 609.5,-133.5 738.5,-133.5 738.5,-152.5"/>
<text text-anchor="middle" x="674" y="-140.5" font-family="Helvetica,sans-Serif" font-size="10.00">utils::Config::terminate</text>
</a>
</g>
</g>
<!-- Node41&#45;&gt;Node49 -->
<g id="edge56_Node000041_Node000049" class="edge">
<title>Node41&#45;&gt;Node49</title>
<g id="a_edge56_Node000041_Node000049"><a xlink:title=" ">
<path fill="none" stroke="#63b8ff" d="M563.11,-155.35C574.78,-154.04 587.17,-152.65 599.26,-151.29"/>
<polygon fill="#63b8ff" stroke="#63b8ff" points="599.78,-154.75 609.32,-150.16 598.99,-147.8 599.78,-154.75"/>
</a>
</g>
</g>
<!-- Node45 -->
<g id="Node000045" class="node">
<title>Node45</title>
<g id="a_Node000045"><a xlink:href="classutils_1_1Timeval.html#a11e78b5aeeb6526856905939d9642815" target="_top" xlink:title=" ">
<polygon fill="white" stroke="#666666" points="925.5,-69.5 787.5,-69.5 787.5,-50.5 925.5,-50.5 925.5,-69.5"/>
<text text-anchor="middle" x="856.5" y="-57.5" font-family="Helvetica,sans-Serif" font-size="10.00">utils::Timeval::operator&lt;</text>
</a>
</g>
</g>
<!-- Node44&#45;&gt;Node45 -->
<g id="edge46_Node000044_Node000045" class="edge">
<title>Node44&#45;&gt;Node45</title>
<g id="a_edge46_Node000044_Node000045"><a xlink:title=" ">
<path fill="none" stroke="#63b8ff" d="M743.24,-58.13C754.32,-58.32 765.88,-58.51 777.18,-58.7"/>
<polygon fill="#63b8ff" stroke="#63b8ff" points="777.41,-62.2 787.46,-58.87 777.52,-55.2 777.41,-62.2"/>
</a>
</g>
</g>
<!-- Node46&#45;&gt;Node17 -->
<g id="edge48_Node000046_Node000017" class="edge">
<title>Node46&#45;&gt;Node17</title>
<g id="a_edge48_Node000046_Node000017"><a xlink:title=" ">
<path fill="none" stroke="#63b8ff" d="M916.07,-32.08C921.68,-34.62 927.1,-37.58 932,-41 953.29,-55.86 946.31,-72.74 968,-87 971.12,-89.05 974.45,-90.88 977.91,-92.51"/>
<polygon fill="#63b8ff" stroke="#63b8ff" points="976.71,-95.8 987.28,-96.39 979.38,-89.33 976.71,-95.8"/>
</a>
</g>
</g>
<!-- Node46&#45;&gt;Node21 -->
<g id="edge49_Node000046_Node000021" class="edge">
<title>Node46&#45;&gt;Node21</title>
<g id="a_edge49_Node000046_Node000021"><a xlink:title=" ">
<path fill="none" stroke="#63b8ff" d="M917.42,-32.06C934.41,-36.33 953.06,-41.02 970.59,-45.43"/>
<polygon fill="#63b8ff" stroke="#63b8ff" points="970.21,-48.94 980.76,-47.98 971.91,-42.15 970.21,-48.94"/>
</a>
</g>
</g>
<!-- Node47 -->
<g id="Node000047" class="node">
<title>Node47</title>
<g id="a_Node000047"><a xlink:href="classcore_1_1TimerEventPublisher.html#a78db35b8164a8dd0ca09eff66be33d67" target="_top" xlink:title=" ">
<polygon fill="white" stroke="#666666" points="1113.5,-30 969.5,-30 969.5,0 1113.5,0 1113.5,-30"/>
<text text-anchor="start" x="977.5" y="-18" font-family="Helvetica,sans-Serif" font-size="10.00">core::TimerEventPublisher</text>
<text text-anchor="middle" x="1041.5" y="-7" font-family="Helvetica,sans-Serif" font-size="10.00">::stop</text>
</a>
</g>
</g>
<!-- Node46&#45;&gt;Node47 -->
<g id="edge50_Node000046_Node000047" class="edge">
<title>Node46&#45;&gt;Node47</title>
<g id="a_edge50_Node000046_Node000047"><a xlink:title=" ">
<path fill="none" stroke="#63b8ff" d="M920.22,-16.31C932.71,-16.18 946,-16.03 959.02,-15.89"/>
<polygon fill="#63b8ff" stroke="#63b8ff" points="959.41,-19.39 969.37,-15.78 959.34,-12.39 959.41,-19.39"/>
</a>
</g>
</g>
<!-- Node47&#45;&gt;Node23 -->
<g id="edge51_Node000047_Node000023" class="edge">
<title>Node47&#45;&gt;Node23</title>
<g id="a_edge51_Node000047_Node000023"><a xlink:title=" ">
<path fill="none" stroke="#63b8ff" d="M1113.71,-15C1123.83,-15 1134.31,-15 1144.61,-15"/>
<polygon fill="#63b8ff" stroke="#63b8ff" points="1144.83,-18.5 1154.83,-15 1144.83,-11.5 1144.83,-18.5"/>
</a>
</g>
</g>
<!-- Node48&#45;&gt;Node17 -->
<g id="edge53_Node000048_Node000017" class="edge">
<title>Node48&#45;&gt;Node17</title>
<g id="a_edge53_Node000048_Node000017"><a xlink:title=" ">
<path fill="none" stroke="#63b8ff" d="M920.22,-104.03C932.31,-104.23 945.13,-104.44 957.74,-104.64"/>
<polygon fill="#63b8ff" stroke="#63b8ff" points="957.73,-108.14 967.78,-104.81 957.84,-101.14 957.73,-108.14"/>
</a>
</g>
</g>
<!-- Node48&#45;&gt;Node21 -->
<g id="edge54_Node000048_Node000021" class="edge">
<title>Node48&#45;&gt;Node21</title>
<g id="a_edge54_Node000048_Node000021"><a xlink:title=" ">
<path fill="none" stroke="#63b8ff" d="M920.22,-89.29C933.54,-86.38 947.77,-83.27 961.61,-80.24"/>
<polygon fill="#63b8ff" stroke="#63b8ff" points="962.57,-83.62 971.59,-78.06 961.08,-76.78 962.57,-83.62"/>
</a>
</g>
</g>
<!-- Node48&#45;&gt;Node47 -->
<g id="edge55_Node000048_Node000047" class="edge">
<title>Node48&#45;&gt;Node47</title>
<g id="a_edge55_Node000048_Node000047"><a xlink:title=" ">
<path fill="none" stroke="#63b8ff" d="M913.07,-87.86C919.69,-85.05 926.16,-81.78 932,-78 951.8,-65.18 948.17,-51.78 968,-39 970.46,-37.42 973.02,-35.93 975.67,-34.53"/>
<polygon fill="#63b8ff" stroke="#63b8ff" points="977.39,-37.59 984.91,-30.12 974.38,-31.27 977.39,-37.59"/>
</a>
</g>
</g>
</g>
</svg>
