<?xml version="1.0" encoding="UTF-8" standalone="no"?>
<!DOCTYPE svg PUBLIC "-//W3C//DTD SVG 1.1//EN"
 "http://www.w3.org/Graphics/SVG/1.1/DTD/svg11.dtd">
<!-- Generated by graphviz version 14.1.2 (0)
 -->
<!-- Title: iot/mqtt/types/UInt8.cpp Pages: 1 -->
<svg width="313pt" height="142pt"
 viewBox="0.00 0.00 313.00 142.00" xmlns="http://www.w3.org/2000/svg" xmlns:xlink="http://www.w3.org/1999/xlink">

<svg id="main" version="1.1" xmlns="http://www.w3.org/2000/svg" xmlns:xlink="http://www.w3.org/1999/xlink" xml:space="preserve">

<style type="text/css"><![CDATA[
.node, .edge {opacity: 0.7;}
.node.selected, .edge.selected {opacity: 1;}
.edge:hover path { stroke: red; }
.edge:hover polygon { stroke: red; fill: red; }
]]></style>
<script type="application/ecmascript" xlink:href="svg.min.js"/>
<svg id="graph" class="graph">
<g id="graph0" class="graph" transform="scale(1 1) rotate(0) translate(4 138.25)">
<title>iot/mqtt/types/UInt8.cpp</title>
<!-- Node1 -->
<g id="Node000001" class="node">
<title>Node1</title>
<g id="a_Node000001"><a xlink:title=" ">
<polygon fill="#999999" stroke="#666666" points="215,-134.25 80.5,-134.25 80.5,-113.5 215,-113.5 215,-134.25"/>
<text xml:space="preserve" text-anchor="middle" x="147.75" y="-120.75" font-family="Helvetica,sans-Serif" font-size="10.00">iot/mqtt/types/UInt8.cpp</text>
</a>
</g>
</g>
<!-- Node2 -->
<g id="Node000002" class="node">
<title>Node2</title>
<g id="a_Node000002"><a xlink:href="UInt8_8h.html" target="_top" xlink:title=" ">
<polygon fill="white" stroke="#666666" points="131.38,-77.5 8.12,-77.5 8.12,-56.75 131.38,-56.75 131.38,-77.5"/>
<text xml:space="preserve" text-anchor="middle" x="69.75" y="-64" font-family="Helvetica,sans-Serif" font-size="10.00">iot/mqtt/types/UInt8.h</text>
</a>
</g>
</g>
<!-- Node1&#45;&gt;Node2 -->
<g id="edge1_Node000001_Node000002" class="edge">
<title>Node1&#45;&gt;Node2</title>
<g id="a_edge1_Node000001_Node000002"><a xlink:title=" ">
<path fill="none" stroke="#63b8ff" d="M133.81,-113.09C122.38,-105.07 105.98,-93.56 92.64,-84.19"/>
<polygon fill="#63b8ff" stroke="#63b8ff" points="95.01,-81.58 84.81,-78.7 90.99,-87.31 95.01,-81.58"/>
</a>
</g>
</g>
<!-- Node4 -->
<g id="Node000004" class="node">
<title>Node4</title>
<g id="a_Node000004"><a xlink:href="TypeBase_8hpp.html" target="_top" xlink:title=" ">
<polygon fill="white" stroke="#666666" points="304.5,-77.5 149,-77.5 149,-56.75 304.5,-56.75 304.5,-77.5"/>
<text xml:space="preserve" text-anchor="middle" x="226.75" y="-64" font-family="Helvetica,sans-Serif" font-size="10.00">iot/mqtt/types/TypeBase.hpp</text>
</a>
</g>
</g>
<!-- Node1&#45;&gt;Node4 -->
<g id="edge3_Node000001_Node000004" class="edge">
<title>Node1&#45;&gt;Node4</title>
<g id="a_edge3_Node000001_Node000004"><a xlink:title=" ">
<path fill="none" stroke="#63b8ff" d="M161.87,-113.09C173.44,-105.07 190.05,-93.56 203.57,-84.19"/>
<polygon fill="#63b8ff" stroke="#63b8ff" points="205.28,-87.26 211.5,-78.69 201.29,-81.51 205.28,-87.26"/>
</a>
</g>
</g>
<!-- Node3 -->
<g id="Node000003" class="node">
<title>Node3</title>
<g id="a_Node000003"><a xlink:href="mqtt_2types_2TypeBase_8h.html" target="_top" xlink:title=" ">
<polygon fill="white" stroke="#666666" points="143.5,-20.75 0,-20.75 0,0 143.5,0 143.5,-20.75"/>
<text xml:space="preserve" text-anchor="middle" x="71.75" y="-7.25" font-family="Helvetica,sans-Serif" font-size="10.00">iot/mqtt/types/TypeBase.h</text>
</a>
</g>
</g>
<!-- Node2&#45;&gt;Node3 -->
<g id="edge2_Node000002_Node000003" class="edge">
<title>Node2&#45;&gt;Node3</title>
<g id="a_edge2_Node000002_Node000003"><a xlink:title=" ">
<path fill="none" stroke="#63b8ff" d="M70.11,-56.34C70.35,-49.72 70.68,-40.72 70.98,-32.52"/>
<polygon fill="#63b8ff" stroke="#63b8ff" points="74.47,-32.71 71.34,-22.59 67.48,-32.46 74.47,-32.71"/>
</a>
</g>
</g>
<!-- Node4&#45;&gt;Node3 -->
<g id="edge5_Node000004_Node000003" class="edge">
<title>Node4&#45;&gt;Node3</title>
<g id="a_edge5_Node000004_Node000003"><a xlink:title=" ">
<path fill="none" stroke="#63b8ff" d="M199.04,-56.34C174.32,-47.61 137.88,-34.73 110.32,-25"/>
<polygon fill="#63b8ff" stroke="#63b8ff" points="111.5,-21.71 100.91,-21.67 109.17,-28.31 111.5,-21.71"/>
</a>
</g>
</g>
<!-- Node5 -->
<g id="Node000005" class="node">
<title>Node5</title>
<g id="a_Node000005"><a xlink:href="MqttContext_8h.html" target="_top" xlink:title=" ">
<polygon fill="white" stroke="#666666" points="290.62,-20.75 162.88,-20.75 162.88,0 290.62,0 290.62,-20.75"/>
<text xml:space="preserve" text-anchor="middle" x="226.75" y="-7.25" font-family="Helvetica,sans-Serif" font-size="10.00">iot/mqtt/MqttContext.h</text>
</a>
</g>
</g>
<!-- Node4&#45;&gt;Node5 -->
<g id="edge4_Node000004_Node000005" class="edge">
<title>Node4&#45;&gt;Node5</title>
<g id="a_edge4_Node000004_Node000005"><a xlink:title=" ">
<path fill="none" stroke="#63b8ff" d="M226.75,-56.34C226.75,-49.72 226.75,-40.72 226.75,-32.52"/>
<polygon fill="#63b8ff" stroke="#63b8ff" points="230.25,-32.59 226.75,-22.59 223.25,-32.59 230.25,-32.59"/>
</a>
</g>
</g>
</g>
</svg>
</svg>

<style type='text/css'>
<![CDATA[
[data-mouse-over-selected='false'] { opacity: 0.7; }
[data-mouse-over-selected='true']  { opacity: 1.0; }
]]>
</style>
<script type="application/ecmascript"><![CDATA[
document.addEventListener('DOMContentLoaded', (event) => {
  highlightEdges();
  highlightAdjacentNodes();
});
]]></script>
</svg>
