<?xml version="1.0" encoding="UTF-8" standalone="no"?>
<!DOCTYPE svg PUBLIC "-//W3C//DTD SVG 1.1//EN"
 "http://www.w3.org/Graphics/SVG/1.1/DTD/svg11.dtd">
<!-- Generated by graphviz version 2.42.4 (0)
 -->
<!-- Title: net/un/stream/tls/config/ConfigSocketServer.h Pages: 1 -->
<svg width="346pt" height="225pt"
 viewBox="0.00 0.00 345.50 225.00" xmlns="http://www.w3.org/2000/svg" xmlns:xlink="http://www.w3.org/1999/xlink">
<g id="graph0" class="graph" transform="scale(1 1) rotate(0) translate(4 221)">
<title>net/un/stream/tls/config/ConfigSocketServer.h</title>
<!-- Node1 -->
<g id="Node000001" class="node">
<title>Node1</title>
<g id="a_Node000001"><a xlink:title=" ">
<polygon fill="#999999" stroke="#666666" points="262.5,-217 143.5,-217 143.5,-187 262.5,-187 262.5,-217"/>
<text text-anchor="start" x="151.5" y="-205" font-family="Helvetica,sans-Serif" font-size="10.00">net/un/stream/tls/config</text>
<text text-anchor="middle" x="203" y="-194" font-family="Helvetica,sans-Serif" font-size="10.00">/ConfigSocketServer.h</text>
</a>
</g>
</g>
<!-- Node2 -->
<g id="Node000002" class="node">
<title>Node2</title>
<g id="a_Node000002"><a xlink:href="net_2un_2stream_2tls_2SocketServer_8h.html" target="_top" xlink:title=" ">
<polygon fill="white" stroke="#666666" points="194,-151 70,-151 70,-121 194,-121 194,-151"/>
<text text-anchor="start" x="78" y="-139" font-family="Helvetica,sans-Serif" font-size="10.00">net/un/stream/tls/Socket</text>
<text text-anchor="middle" x="132" y="-128" font-family="Helvetica,sans-Serif" font-size="10.00">Server.h</text>
</a>
</g>
</g>
<!-- Node1&#45;&gt;Node2 -->
<g id="edge1_Node000001_Node000002" class="edge">
<title>Node1&#45;&gt;Node2</title>
<g id="a_edge1_Node000001_Node000002"><a xlink:title=" ">
<path fill="none" stroke="#63b8ff" d="M179.62,-179.92C169.15,-170.49 157.08,-159.61 147.71,-151.16"/>
<polygon fill="#63b8ff" stroke="#63b8ff" points="177.47,-182.7 187.24,-186.8 182.16,-177.5 177.47,-182.7"/>
</a>
</g>
</g>
<!-- Node6 -->
<g id="Node000006" class="node">
<title>Node6</title>
<g id="a_Node000006"><a xlink:href="un_2stream_2tls_2config_2ConfigSocketServer_8cpp.html" target="_top" xlink:title=" ">
<polygon fill="white" stroke="#666666" points="337.5,-151 212.5,-151 212.5,-121 337.5,-121 337.5,-151"/>
<text text-anchor="start" x="220.5" y="-139" font-family="Helvetica,sans-Serif" font-size="10.00">net/un/stream/tls/config</text>
<text text-anchor="middle" x="275" y="-128" font-family="Helvetica,sans-Serif" font-size="10.00">/ConfigSocketServer.cpp</text>
</a>
</g>
</g>
<!-- Node1&#45;&gt;Node6 -->
<g id="edge5_Node000001_Node000006" class="edge">
<title>Node1&#45;&gt;Node6</title>
<g id="a_edge5_Node000001_Node000006"><a xlink:title=" ">
<path fill="none" stroke="#63b8ff" d="M226.71,-179.92C237.33,-170.49 249.57,-159.61 259.07,-151.16"/>
<polygon fill="#63b8ff" stroke="#63b8ff" points="224.13,-177.54 218.98,-186.8 228.78,-182.77 224.13,-177.54"/>
</a>
</g>
</g>
<!-- Node3 -->
<g id="Node000003" class="node">
<title>Node3</title>
<g id="a_Node000003"><a xlink:href="un_2stream_2tls_2SocketServer_8cpp.html" target="_top" xlink:title=" ">
<polygon fill="white" stroke="#666666" points="124,-85 0,-85 0,-55 124,-55 124,-85"/>
<text text-anchor="start" x="8" y="-73" font-family="Helvetica,sans-Serif" font-size="10.00">net/un/stream/tls/Socket</text>
<text text-anchor="middle" x="62" y="-62" font-family="Helvetica,sans-Serif" font-size="10.00">Server.cpp</text>
</a>
</g>
</g>
<!-- Node2&#45;&gt;Node3 -->
<g id="edge2_Node000002_Node000003" class="edge">
<title>Node2&#45;&gt;Node3</title>
<g id="a_edge2_Node000002_Node000003"><a xlink:title=" ">
<path fill="none" stroke="#63b8ff" d="M108.95,-113.92C98.63,-104.49 86.73,-93.61 77.49,-85.16"/>
<polygon fill="#63b8ff" stroke="#63b8ff" points="106.72,-116.63 116.46,-120.8 111.45,-111.47 106.72,-116.63"/>
</a>
</g>
</g>
<!-- Node4 -->
<g id="Node000004" class="node">
<title>Node4</title>
<g id="a_Node000004"><a xlink:href="tls_2un_2Server_8h.html" target="_top" xlink:title=" ">
<polygon fill="white" stroke="#666666" points="262,-79.5 142,-79.5 142,-60.5 262,-60.5 262,-79.5"/>
<text text-anchor="middle" x="202" y="-67.5" font-family="Helvetica,sans-Serif" font-size="10.00">web/http/tls/un/Server.h</text>
</a>
</g>
</g>
<!-- Node2&#45;&gt;Node4 -->
<g id="edge3_Node000002_Node000004" class="edge">
<title>Node2&#45;&gt;Node4</title>
<g id="a_edge3_Node000002_Node000004"><a xlink:title=" ">
<path fill="none" stroke="#63b8ff" d="M155.04,-113.93C167.71,-102.35 182.74,-88.61 192.33,-79.84"/>
<polygon fill="#63b8ff" stroke="#63b8ff" points="152.55,-111.47 147.54,-120.8 157.28,-116.63 152.55,-111.47"/>
</a>
</g>
</g>
<!-- Node5 -->
<g id="Node000005" class="node">
<title>Node5</title>
<g id="a_Node000005"><a xlink:href="tls_2un_2WebApp_8h.html" target="_top" xlink:title=" ">
<polygon fill="white" stroke="#666666" points="265,-19 139,-19 139,0 265,0 265,-19"/>
<text text-anchor="middle" x="202" y="-7" font-family="Helvetica,sans-Serif" font-size="10.00">express/tls/un/WebApp.h</text>
</a>
</g>
</g>
<!-- Node4&#45;&gt;Node5 -->
<g id="edge4_Node000004_Node000005" class="edge">
<title>Node4&#45;&gt;Node5</title>
<g id="a_edge4_Node000004_Node000005"><a xlink:title=" ">
<path fill="none" stroke="#63b8ff" d="M202,-50.16C202,-39.74 202,-27.3 202,-19.17"/>
<polygon fill="#63b8ff" stroke="#63b8ff" points="198.5,-50.37 202,-60.37 205.5,-50.37 198.5,-50.37"/>
</a>
</g>
</g>
</g>
</svg>
