<?xml version="1.0" encoding="UTF-8" standalone="no"?>
<!DOCTYPE svg PUBLIC "-//W3C//DTD SVG 1.1//EN"
 "http://www.w3.org/Graphics/SVG/1.1/DTD/svg11.dtd">
<!-- Generated by graphviz version 14.1.2 (0)
 -->
<!-- Title: net/un/config/ConfigAddress.cpp Pages: 1 -->
<svg width="1271pt" height="307pt"
 viewBox="0.00 0.00 1271.00 307.00" xmlns="http://www.w3.org/2000/svg" xmlns:xlink="http://www.w3.org/1999/xlink">
<g id="graph0" class="graph" transform="scale(1 1) rotate(0) translate(4 302.75)">
<title>net/un/config/ConfigAddress.cpp</title>
<!-- Node1 -->
<g id="Node000001" class="node">
<title>Node1</title>
<g id="a_Node000001"><a xlink:title=" ">
<polygon fill="#999999" stroke="#666666" points="964.38,-298.75 790.88,-298.75 790.88,-278 964.38,-278 964.38,-298.75"/>
<text xml:space="preserve" text-anchor="middle" x="877.62" y="-285.25" font-family="Helvetica,sans-Serif" font-size="10.00">net/un/config/ConfigAddress.cpp</text>
</a>
</g>
</g>
<!-- Node2 -->
<g id="Node000002" class="node">
<title>Node2</title>
<g id="a_Node000002"><a xlink:href="un_2config_2ConfigAddress_8h.html" target="_top" xlink:title=" ">
<polygon fill="white" stroke="#666666" points="691.75,-235.62 529.5,-235.62 529.5,-214.88 691.75,-214.88 691.75,-235.62"/>
<text xml:space="preserve" text-anchor="middle" x="610.62" y="-222.12" font-family="Helvetica,sans-Serif" font-size="10.00">net/un/config/ConfigAddress.h</text>
</a>
</g>
</g>
<!-- Node1&#45;&gt;Node2 -->
<g id="edge1_Node000001_Node000002" class="edge">
<title>Node1&#45;&gt;Node2</title>
<g id="a_edge1_Node000001_Node000002"><a xlink:title=" ">
<path fill="none" stroke="#63b8ff" d="M834.73,-277.55C788.41,-266.95 714.53,-250.04 664.37,-238.55"/>
<polygon fill="#63b8ff" stroke="#63b8ff" points="665.42,-235.2 654.89,-236.38 663.86,-242.03 665.42,-235.2"/>
</a>
</g>
</g>
<!-- Node11 -->
<g id="Node000011" class="node">
<title>Node11</title>
<g id="a_Node000011"><a xlink:href="ConfigAddressBase_8hpp.html" target="_top" xlink:title=" ">
<polygon fill="white" stroke="#666666" points="953.75,-103 815.5,-103 815.5,-69.5 953.75,-69.5 953.75,-103"/>
<text xml:space="preserve" text-anchor="start" x="823.5" y="-89.5" font-family="Helvetica,sans-Serif" font-size="10.00">net/config/ConfigAddress</text>
<text xml:space="preserve" text-anchor="middle" x="884.62" y="-76.75" font-family="Helvetica,sans-Serif" font-size="10.00">Base.hpp</text>
</a>
</g>
</g>
<!-- Node1&#45;&gt;Node11 -->
<g id="edge12_Node000001_Node000011" class="edge">
<title>Node1&#45;&gt;Node11</title>
<g id="a_edge12_Node000001_Node000011"><a xlink:title=" ">
<path fill="none" stroke="#63b8ff" d="M886.29,-277.53C902.16,-258.73 935.33,-215.72 946.62,-172.5 950.39,-158.1 952.93,-152.49 946.62,-139 941.3,-127.62 932.11,-117.87 922.42,-110"/>
<polygon fill="#63b8ff" stroke="#63b8ff" points="924.78,-107.4 914.67,-104.22 920.59,-113.01 924.78,-107.4"/>
</a>
</g>
</g>
<!-- Node12 -->
<g id="Node000012" class="node">
<title>Node12</title>
<g id="a_Node000012"><a xlink:href="ConfigAddressLocal_8hpp.html" target="_top" xlink:title=" ">
<polygon fill="white" stroke="#666666" points="315.75,-242 177.5,-242 177.5,-208.5 315.75,-208.5 315.75,-242"/>
<text xml:space="preserve" text-anchor="start" x="185.5" y="-228.5" font-family="Helvetica,sans-Serif" font-size="10.00">net/config/ConfigAddress</text>
<text xml:space="preserve" text-anchor="middle" x="246.62" y="-215.75" font-family="Helvetica,sans-Serif" font-size="10.00">Local.hpp</text>
</a>
</g>
</g>
<!-- Node1&#45;&gt;Node12 -->
<g id="edge14_Node000001_Node000012" class="edge">
<title>Node1&#45;&gt;Node12</title>
<g id="a_edge14_Node000001_Node000012"><a xlink:title=" ">
<path fill="none" stroke="#63b8ff" d="M790.59,-283.4C683.7,-277.8 496.69,-265.71 327.02,-242.23"/>
<polygon fill="#63b8ff" stroke="#63b8ff" points="327.76,-238.8 317.37,-240.88 326.79,-245.74 327.76,-238.8"/>
</a>
</g>
</g>
<!-- Node14 -->
<g id="Node000014" class="node">
<title>Node14</title>
<g id="a_Node000014"><a xlink:href="ConfigAddressRemote_8hpp.html" target="_top" xlink:title=" ">
<polygon fill="white" stroke="#666666" points="471.75,-242 333.5,-242 333.5,-208.5 471.75,-208.5 471.75,-242"/>
<text xml:space="preserve" text-anchor="start" x="341.5" y="-228.5" font-family="Helvetica,sans-Serif" font-size="10.00">net/config/ConfigAddress</text>
<text xml:space="preserve" text-anchor="middle" x="402.62" y="-215.75" font-family="Helvetica,sans-Serif" font-size="10.00">Remote.hpp</text>
</a>
</g>
</g>
<!-- Node1&#45;&gt;Node14 -->
<g id="edge18_Node000001_Node000014" class="edge">
<title>Node1&#45;&gt;Node14</title>
<g id="a_edge18_Node000001_Node000014"><a xlink:title=" ">
<path fill="none" stroke="#63b8ff" d="M798.91,-277.51C726.56,-268.42 616.34,-254.47 520.62,-242 508.62,-240.44 495.93,-238.76 483.5,-237.11"/>
<polygon fill="#63b8ff" stroke="#63b8ff" points="484.06,-233.66 473.69,-235.81 483.14,-240.6 484.06,-233.66"/>
</a>
</g>
</g>
<!-- Node15 -->
<g id="Node000015" class="node">
<title>Node15</title>
<g id="a_Node000015"><a xlink:href="ConfigAddressReverse_8hpp.html" target="_top" xlink:title=" ">
<polygon fill="white" stroke="#666666" points="898.75,-242 760.5,-242 760.5,-208.5 898.75,-208.5 898.75,-242"/>
<text xml:space="preserve" text-anchor="start" x="768.5" y="-228.5" font-family="Helvetica,sans-Serif" font-size="10.00">net/config/ConfigAddress</text>
<text xml:space="preserve" text-anchor="middle" x="829.62" y="-215.75" font-family="Helvetica,sans-Serif" font-size="10.00">Reverse.hpp</text>
</a>
</g>
</g>
<!-- Node1&#45;&gt;Node15 -->
<g id="edge21_Node000001_Node000015" class="edge">
<title>Node1&#45;&gt;Node15</title>
<g id="a_edge21_Node000001_Node000015"><a xlink:title=" ">
<path fill="none" stroke="#63b8ff" d="M869.91,-277.55C864.35,-270.47 856.57,-260.56 849.33,-251.34"/>
<polygon fill="#63b8ff" stroke="#63b8ff" points="852.24,-249.38 843.31,-243.68 846.73,-253.7 852.24,-249.38"/>
</a>
</g>
</g>
<!-- Node16 -->
<g id="Node000016" class="node">
<title>Node16</title>
<g id="a_Node000016"><a xlink:href="ConfigInstance_8h.html" target="_top" xlink:title=" ">
<polygon fill="white" stroke="#666666" points="1260.38,-166.12 1110.88,-166.12 1110.88,-145.38 1260.38,-145.38 1260.38,-166.12"/>
<text xml:space="preserve" text-anchor="middle" x="1185.62" y="-152.62" font-family="Helvetica,sans-Serif" font-size="10.00">net/config/ConfigInstance.h</text>
</a>
</g>
</g>
<!-- Node1&#45;&gt;Node16 -->
<g id="edge23_Node000001_Node000016" class="edge">
<title>Node1&#45;&gt;Node16</title>
<g id="a_edge23_Node000001_Node000016"><a xlink:title=" ">
<path fill="none" stroke="#63b8ff" d="M964.57,-281.2C1031.36,-274.91 1116.74,-263 1144.62,-242 1165.39,-226.37 1176.15,-197.48 1181.34,-177.71"/>
<polygon fill="#63b8ff" stroke="#63b8ff" points="1184.74,-178.52 1183.6,-167.99 1177.92,-176.93 1184.74,-178.52"/>
</a>
</g>
</g>
<!-- Node17 -->
<g id="Node000017" class="node">
<title>Node17</title>
<g id="a_Node000017"><a xlink:href="ConfigSection_8hpp.html" target="_top" xlink:title=" ">
<polygon fill="white" stroke="#666666" points="1135.75,-235.62 979.5,-235.62 979.5,-214.88 1135.75,-214.88 1135.75,-235.62"/>
<text xml:space="preserve" text-anchor="middle" x="1057.62" y="-222.12" font-family="Helvetica,sans-Serif" font-size="10.00">net/config/ConfigSection.hpp</text>
</a>
</g>
</g>
<!-- Node1&#45;&gt;Node17 -->
<g id="edge24_Node000001_Node000017" class="edge">
<title>Node1&#45;&gt;Node17</title>
<g id="a_edge24_Node000001_Node000017"><a xlink:title=" ">
<path fill="none" stroke="#63b8ff" d="M906.55,-277.55C936.72,-267.31 984.25,-251.17 1017.93,-239.73"/>
<polygon fill="#63b8ff" stroke="#63b8ff" points="1019,-243.06 1027.34,-236.53 1016.75,-236.43 1019,-243.06"/>
</a>
</g>
</g>
<!-- Node19 -->
<g id="Node000019" class="node">
<title>Node19</title>
<g id="a_Node000019"><a xlink:href="Uuid_8h.html" target="_top" xlink:title=" ">
<polygon fill="white" stroke="#666666" points="1263.38,-235.62 1191.88,-235.62 1191.88,-214.88 1263.38,-214.88 1263.38,-235.62"/>
<text xml:space="preserve" text-anchor="middle" x="1227.62" y="-222.12" font-family="Helvetica,sans-Serif" font-size="10.00">utils/Uuid.h</text>
</a>
</g>
</g>
<!-- Node1&#45;&gt;Node19 -->
<g id="edge28_Node000001_Node000019" class="edge">
<title>Node1&#45;&gt;Node19</title>
<g id="a_edge28_Node000001_Node000019"><a xlink:title=" ">
<path fill="none" stroke="#63b8ff" d="M964.62,-277.84C1024.87,-270.35 1106.68,-258.43 1177.62,-242 1181.02,-241.21 1184.51,-240.31 1188.01,-239.34"/>
<polygon fill="#63b8ff" stroke="#63b8ff" points="1188.96,-242.71 1197.56,-236.53 1186.98,-236 1188.96,-242.71"/>
</a>
</g>
</g>
<!-- Node3 -->
<g id="Node000003" class="node">
<title>Node3</title>
<g id="a_Node000003"><a xlink:href="ConfigAddressLocal_8h.html" target="_top" xlink:title=" ">
<polygon fill="white" stroke="#666666" points="315.75,-172.5 177.5,-172.5 177.5,-139 315.75,-139 315.75,-172.5"/>
<text xml:space="preserve" text-anchor="start" x="185.5" y="-159" font-family="Helvetica,sans-Serif" font-size="10.00">net/config/ConfigAddress</text>
<text xml:space="preserve" text-anchor="middle" x="246.62" y="-146.25" font-family="Helvetica,sans-Serif" font-size="10.00">Local.h</text>
</a>
</g>
</g>
<!-- Node2&#45;&gt;Node3 -->
<g id="edge2_Node000002_Node000003" class="edge">
<title>Node2&#45;&gt;Node3</title>
<g id="a_edge2_Node000002_Node000003"><a xlink:title=" ">
<path fill="none" stroke="#63b8ff" d="M554.4,-214.42C499.1,-204.68 411.99,-189.12 327.08,-172.95"/>
<polygon fill="#63b8ff" stroke="#63b8ff" points="327.9,-169.54 317.42,-171.1 326.59,-176.42 327.9,-169.54"/>
</a>
</g>
</g>
<!-- Node6 -->
<g id="Node000006" class="node">
<title>Node6</title>
<g id="a_Node000006"><a xlink:href="ConfigAddressRemote_8h.html" target="_top" xlink:title=" ">
<polygon fill="white" stroke="#666666" points="471.75,-172.5 333.5,-172.5 333.5,-139 471.75,-139 471.75,-172.5"/>
<text xml:space="preserve" text-anchor="start" x="341.5" y="-159" font-family="Helvetica,sans-Serif" font-size="10.00">net/config/ConfigAddress</text>
<text xml:space="preserve" text-anchor="middle" x="402.62" y="-146.25" font-family="Helvetica,sans-Serif" font-size="10.00">Remote.h</text>
</a>
</g>
</g>
<!-- Node2&#45;&gt;Node6 -->
<g id="edge5_Node000002_Node000006" class="edge">
<title>Node2&#45;&gt;Node6</title>
<g id="a_edge5_Node000002_Node000006"><a xlink:title=" ">
<path fill="none" stroke="#63b8ff" d="M580.38,-214.43C549.79,-204.51 501.67,-188.89 463.2,-176.41"/>
<polygon fill="#63b8ff" stroke="#63b8ff" points="464.66,-173.2 454.07,-173.45 462.5,-179.86 464.66,-173.2"/>
</a>
</g>
</g>
<!-- Node7 -->
<g id="Node000007" class="node">
<title>Node7</title>
<g id="a_Node000007"><a xlink:href="ConfigAddressReverse_8h.html" target="_top" xlink:title=" ">
<polygon fill="white" stroke="#666666" points="775.75,-172.5 637.5,-172.5 637.5,-139 775.75,-139 775.75,-172.5"/>
<text xml:space="preserve" text-anchor="start" x="645.5" y="-159" font-family="Helvetica,sans-Serif" font-size="10.00">net/config/ConfigAddress</text>
<text xml:space="preserve" text-anchor="middle" x="706.62" y="-146.25" font-family="Helvetica,sans-Serif" font-size="10.00">Reverse.h</text>
</a>
</g>
</g>
<!-- Node2&#45;&gt;Node7 -->
<g id="edge7_Node000002_Node000007" class="edge">
<title>Node2&#45;&gt;Node7</title>
<g id="a_edge7_Node000002_Node000007"><a xlink:title=" ">
<path fill="none" stroke="#63b8ff" d="M624.38,-214.58C637.42,-205.41 657.48,-191.3 674.53,-179.32"/>
<polygon fill="#63b8ff" stroke="#63b8ff" points="676.22,-182.4 682.39,-173.79 672.2,-176.68 676.22,-182.4"/>
</a>
</g>
</g>
<!-- Node8 -->
<g id="Node000008" class="node">
<title>Node8</title>
<g id="a_Node000008"><a xlink:href="ConfigSection_8h.html" target="_top" xlink:title=" ">
<polygon fill="white" stroke="#666666" points="937.75,-166.12 793.5,-166.12 793.5,-145.38 937.75,-145.38 937.75,-166.12"/>
<text xml:space="preserve" text-anchor="middle" x="865.62" y="-152.62" font-family="Helvetica,sans-Serif" font-size="10.00">net/config/ConfigSection.h</text>
</a>
</g>
</g>
<!-- Node2&#45;&gt;Node8 -->
<g id="edge9_Node000002_Node000008" class="edge">
<title>Node2&#45;&gt;Node8</title>
<g id="a_edge9_Node000002_Node000008"><a xlink:title=" ">
<path fill="none" stroke="#63b8ff" d="M647.7,-214.43C692.56,-202.56 768.17,-182.55 817.48,-169.49"/>
<polygon fill="#63b8ff" stroke="#63b8ff" points="818.27,-172.91 827.04,-166.96 816.48,-166.14 818.27,-172.91"/>
</a>
</g>
</g>
<!-- Node9 -->
<g id="Node000009" class="node">
<title>Node9</title>
<g id="a_Node000009"><a xlink:href="net_2un_2SocketAddress_8h.html" target="_top" xlink:title=" ">
<polygon fill="white" stroke="#666666" points="619.62,-166.12 489.62,-166.12 489.62,-145.38 619.62,-145.38 619.62,-166.12"/>
<text xml:space="preserve" text-anchor="middle" x="554.62" y="-152.62" font-family="Helvetica,sans-Serif" font-size="10.00">net/un/SocketAddress.h</text>
</a>
</g>
</g>
<!-- Node2&#45;&gt;Node9 -->
<g id="edge10_Node000002_Node000009" class="edge">
<title>Node2&#45;&gt;Node9</title>
<g id="a_edge10_Node000002_Node000009"><a xlink:title=" ">
<path fill="none" stroke="#63b8ff" d="M602.6,-214.58C594.12,-204.35 580.53,-187.98 569.98,-175.25"/>
<polygon fill="#63b8ff" stroke="#63b8ff" points="572.68,-173.03 563.6,-167.57 567.29,-177.5 572.68,-173.03"/>
</a>
</g>
</g>
<!-- Node4 -->
<g id="Node000004" class="node">
<title>Node4</title>
<g id="a_Node000004"><a xlink:href="config_2ConfigAddress_8h.html" target="_top" xlink:title=" ">
<polygon fill="white" stroke="#666666" points="398.25,-96.62 251,-96.62 251,-75.88 398.25,-75.88 398.25,-96.62"/>
<text xml:space="preserve" text-anchor="middle" x="324.62" y="-83.12" font-family="Helvetica,sans-Serif" font-size="10.00">net/config/ConfigAddress.h</text>
</a>
</g>
</g>
<!-- Node3&#45;&gt;Node4 -->
<g id="edge3_Node000003_Node000004" class="edge">
<title>Node3&#45;&gt;Node4</title>
<g id="a_edge3_Node000003_Node000004"><a xlink:title=" ">
<path fill="none" stroke="#63b8ff" d="M265.11,-138.75C277.03,-128.44 292.52,-115.03 304.71,-104.48"/>
<polygon fill="#63b8ff" stroke="#63b8ff" points="306.86,-107.25 312.13,-98.06 302.28,-101.96 306.86,-107.25"/>
</a>
</g>
</g>
<!-- Node5 -->
<g id="Node000005" class="node">
<title>Node5</title>
<g id="a_Node000005"><a xlink:href="ConfigAddressBase_8h.html" target="_top" xlink:title=" ">
<polygon fill="white" stroke="#666666" points="775.75,-33.5 637.5,-33.5 637.5,0 775.75,0 775.75,-33.5"/>
<text xml:space="preserve" text-anchor="start" x="645.5" y="-20" font-family="Helvetica,sans-Serif" font-size="10.00">net/config/ConfigAddress</text>
<text xml:space="preserve" text-anchor="middle" x="706.62" y="-7.25" font-family="Helvetica,sans-Serif" font-size="10.00">Base.h</text>
</a>
</g>
</g>
<!-- Node4&#45;&gt;Node5 -->
<g id="edge4_Node000004_Node000005" class="edge">
<title>Node4&#45;&gt;Node5</title>
<g id="a_edge4_Node000004_Node000005"><a xlink:title=" ">
<path fill="none" stroke="#63b8ff" d="M380.17,-75.43C444.83,-64.01 552.15,-45.05 625.98,-32"/>
<polygon fill="#63b8ff" stroke="#63b8ff" points="626.35,-35.49 635.59,-30.3 625.13,-28.6 626.35,-35.49"/>
</a>
</g>
</g>
<!-- Node6&#45;&gt;Node4 -->
<g id="edge6_Node000006_Node000004" class="edge">
<title>Node6&#45;&gt;Node4</title>
<g id="a_edge6_Node000006_Node000004"><a xlink:title=" ">
<path fill="none" stroke="#63b8ff" d="M384.14,-138.75C372.22,-128.44 356.73,-115.03 344.54,-104.48"/>
<polygon fill="#63b8ff" stroke="#63b8ff" points="346.97,-101.96 337.12,-98.06 342.39,-107.25 346.97,-101.96"/>
</a>
</g>
</g>
<!-- Node7&#45;&gt;Node5 -->
<g id="edge8_Node000007_Node000005" class="edge">
<title>Node7&#45;&gt;Node5</title>
<g id="a_edge8_Node000007_Node000005"><a xlink:title=" ">
<path fill="none" stroke="#63b8ff" d="M706.62,-138.77C706.62,-115.77 706.62,-73.04 706.62,-45"/>
<polygon fill="#63b8ff" stroke="#63b8ff" points="710.13,-45.15 706.63,-35.15 703.13,-45.15 710.13,-45.15"/>
</a>
</g>
</g>
<!-- Node10 -->
<g id="Node000010" class="node">
<title>Node10</title>
<g id="a_Node000010"><a xlink:href="net_2SocketAddress_8h.html" target="_top" xlink:title=" ">
<polygon fill="white" stroke="#666666" points="612.12,-96.62 497.12,-96.62 497.12,-75.88 612.12,-75.88 612.12,-96.62"/>
<text xml:space="preserve" text-anchor="middle" x="554.62" y="-83.12" font-family="Helvetica,sans-Serif" font-size="10.00">net/SocketAddress.h</text>
</a>
</g>
</g>
<!-- Node9&#45;&gt;Node10 -->
<g id="edge11_Node000009_Node000010" class="edge">
<title>Node9&#45;&gt;Node10</title>
<g id="a_edge11_Node000009_Node000010"><a xlink:title=" ">
<path fill="none" stroke="#63b8ff" d="M554.62,-145.08C554.62,-135.46 554.62,-120.38 554.62,-108.04"/>
<polygon fill="#63b8ff" stroke="#63b8ff" points="558.13,-108.42 554.63,-98.42 551.13,-108.42 558.13,-108.42"/>
</a>
</g>
</g>
<!-- Node11&#45;&gt;Node5 -->
<g id="edge13_Node000011_Node000005" class="edge">
<title>Node11&#45;&gt;Node5</title>
<g id="a_edge13_Node000011_Node000005"><a xlink:title=" ">
<path fill="none" stroke="#63b8ff" d="M841.99,-69.08C817.31,-59.72 786.03,-47.86 759.76,-37.9"/>
<polygon fill="#63b8ff" stroke="#63b8ff" points="761.23,-34.71 750.64,-34.44 758.75,-41.26 761.23,-34.71"/>
</a>
</g>
</g>
<!-- Node12&#45;&gt;Node3 -->
<g id="edge17_Node000012_Node000003" class="edge">
<title>Node12&#45;&gt;Node3</title>
<g id="a_edge17_Node000012_Node000003"><a xlink:title=" ">
<path fill="none" stroke="#63b8ff" d="M246.62,-208.25C246.62,-201.02 246.62,-192.28 246.62,-184.06"/>
<polygon fill="#63b8ff" stroke="#63b8ff" points="250.13,-184.15 246.63,-174.15 243.13,-184.15 250.13,-184.15"/>
</a>
</g>
</g>
<!-- Node13 -->
<g id="Node000013" class="node">
<title>Node13</title>
<g id="a_Node000013"><a xlink:href="ConfigAddress_8hpp.html" target="_top" xlink:title=" ">
<polygon fill="white" stroke="#666666" points="159.25,-166.12 0,-166.12 0,-145.38 159.25,-145.38 159.25,-166.12"/>
<text xml:space="preserve" text-anchor="middle" x="79.62" y="-152.62" font-family="Helvetica,sans-Serif" font-size="10.00">net/config/ConfigAddress.hpp</text>
</a>
</g>
</g>
<!-- Node12&#45;&gt;Node13 -->
<g id="edge15_Node000012_Node000013" class="edge">
<title>Node12&#45;&gt;Node13</title>
<g id="a_edge15_Node000012_Node000013"><a xlink:title=" ">
<path fill="none" stroke="#63b8ff" d="M206.62,-208.08C178.47,-196.7 141.15,-181.62 114.27,-170.75"/>
<polygon fill="#63b8ff" stroke="#63b8ff" points="115.79,-167.59 105.2,-167.09 113.16,-174.08 115.79,-167.59"/>
</a>
</g>
</g>
<!-- Node13&#45;&gt;Node4 -->
<g id="edge16_Node000013_Node000004" class="edge">
<title>Node13&#45;&gt;Node4</title>
<g id="a_edge16_Node000013_Node000004"><a xlink:title=" ">
<path fill="none" stroke="#63b8ff" d="M115.25,-144.93C158.25,-133.09 230.68,-113.13 278.07,-100.08"/>
<polygon fill="#63b8ff" stroke="#63b8ff" points="278.79,-103.51 287.5,-97.48 276.93,-96.76 278.79,-103.51"/>
</a>
</g>
</g>
<!-- Node14&#45;&gt;Node6 -->
<g id="edge20_Node000014_Node000006" class="edge">
<title>Node14&#45;&gt;Node6</title>
<g id="a_edge20_Node000014_Node000006"><a xlink:title=" ">
<path fill="none" stroke="#63b8ff" d="M402.62,-208.25C402.62,-201.02 402.62,-192.28 402.62,-184.06"/>
<polygon fill="#63b8ff" stroke="#63b8ff" points="406.13,-184.15 402.63,-174.15 399.13,-184.15 406.13,-184.15"/>
</a>
</g>
</g>
<!-- Node14&#45;&gt;Node13 -->
<g id="edge19_Node000014_Node000013" class="edge">
<title>Node14&#45;&gt;Node13</title>
<g id="a_edge19_Node000014_Node000013"><a xlink:title=" ">
<path fill="none" stroke="#63b8ff" d="M333.33,-209.77C275.06,-197.59 192.71,-180.38 137.81,-168.91"/>
<polygon fill="#63b8ff" stroke="#63b8ff" points="138.86,-165.55 128.35,-166.93 137.43,-172.41 138.86,-165.55"/>
</a>
</g>
</g>
<!-- Node15&#45;&gt;Node7 -->
<g id="edge22_Node000015_Node000007" class="edge">
<title>Node15&#45;&gt;Node7</title>
<g id="a_edge22_Node000015_Node000007"><a xlink:title=" ">
<path fill="none" stroke="#63b8ff" d="M800.16,-208.08C783.88,-199.15 763.45,-187.94 745.84,-178.27"/>
<polygon fill="#63b8ff" stroke="#63b8ff" points="747.62,-175.26 737.17,-173.51 744.26,-181.39 747.62,-175.26"/>
</a>
</g>
</g>
<!-- Node17&#45;&gt;Node8 -->
<g id="edge26_Node000017_Node000008" class="edge">
<title>Node17&#45;&gt;Node8</title>
<g id="a_edge26_Node000017_Node000008"><a xlink:title=" ">
<path fill="none" stroke="#63b8ff" d="M1029.71,-214.43C996.58,-202.79 941.15,-183.3 904.01,-170.24"/>
<polygon fill="#63b8ff" stroke="#63b8ff" points="905.6,-167.09 895.01,-167.08 903.28,-173.7 905.6,-167.09"/>
</a>
</g>
</g>
<!-- Node17&#45;&gt;Node16 -->
<g id="edge25_Node000017_Node000016" class="edge">
<title>Node17&#45;&gt;Node16</title>
<g id="a_edge25_Node000017_Node000016"><a xlink:title=" ">
<path fill="none" stroke="#63b8ff" d="M1076.24,-214.43C1097.47,-203.24 1132.44,-184.8 1157.12,-171.78"/>
<polygon fill="#63b8ff" stroke="#63b8ff" points="1158.44,-175.04 1165.65,-167.28 1155.17,-168.85 1158.44,-175.04"/>
</a>
</g>
</g>
<!-- Node18 -->
<g id="Node000018" class="node">
<title>Node18</title>
<g id="a_Node000018"><a xlink:href="ConfigApp_8h.html" target="_top" xlink:title=" ">
<polygon fill="white" stroke="#666666" points="1093.25,-166.12 994,-166.12 994,-145.38 1093.25,-145.38 1093.25,-166.12"/>
<text xml:space="preserve" text-anchor="middle" x="1043.62" y="-152.62" font-family="Helvetica,sans-Serif" font-size="10.00">utils/ConfigApp.h</text>
</a>
</g>
</g>
<!-- Node17&#45;&gt;Node18 -->
<g id="edge27_Node000017_Node000018" class="edge">
<title>Node17&#45;&gt;Node18</title>
<g id="a_edge27_Node000017_Node000018"><a xlink:title=" ">
<path fill="none" stroke="#63b8ff" d="M1055.62,-214.58C1053.62,-204.96 1050.5,-189.88 1047.94,-177.54"/>
<polygon fill="#63b8ff" stroke="#63b8ff" points="1051.39,-176.97 1045.93,-167.89 1044.54,-178.39 1051.39,-176.97"/>
</a>
</g>
</g>
</g>
</svg>
