<?xml version="1.0" encoding="UTF-8" standalone="no"?>
<!DOCTYPE svg PUBLIC "-//W3C//DTD SVG 1.1//EN"
 "http://www.w3.org/Graphics/SVG/1.1/DTD/svg11.dtd">
<!-- Generated by graphviz version 2.42.4 (0)
 -->
<!-- Title: src/web/http/client/commands/UpgradeCommand.h Pages: 1 -->
<svg width="322pt" height="104pt"
 viewBox="0.00 0.00 321.50 104.00" xmlns="http://www.w3.org/2000/svg" xmlns:xlink="http://www.w3.org/1999/xlink">
<g id="graph0" class="graph" transform="scale(1 1) rotate(0) translate(4 100)">
<title>src/web/http/client/commands/UpgradeCommand.h</title>
<!-- Node1 -->
<g id="Node000001" class="node">
<title>Node1</title>
<g id="a_Node000001"><a xlink:title=" ">
<polygon fill="#999999" stroke="#666666" points="225,-96 48,-96 48,-66 225,-66 225,-96"/>
<text text-anchor="start" x="56" y="-84" font-family="Helvetica,sans-Serif" font-size="10.00">src/web/http/client</text>
<text text-anchor="middle" x="136.5" y="-73" font-family="Helvetica,sans-Serif" font-size="10.00">/commands/UpgradeCommand.h</text>
</a>
</g>
</g>
<!-- Node2 -->
<g id="Node000002" class="node">
<title>Node2</title>
<g id="a_Node000002"><a xlink:href="web_2http_2client_2Request_8cpp.html" target="_top" xlink:title=" ">
<polygon fill="white" stroke="#666666" points="107,-30 0,-30 0,0 107,0 107,-30"/>
<text text-anchor="start" x="8" y="-18" font-family="Helvetica,sans-Serif" font-size="10.00">src/web/http/client</text>
<text text-anchor="middle" x="53.5" y="-7" font-family="Helvetica,sans-Serif" font-size="10.00">/Request.cpp</text>
</a>
</g>
</g>
<!-- Node1&#45;&gt;Node2 -->
<g id="edge1_Node000001_Node000002" class="edge">
<title>Node1&#45;&gt;Node2</title>
<g id="a_edge1_Node000001_Node000002"><a xlink:title=" ">
<path fill="none" stroke="#63b8ff" d="M109.89,-59.48C97.48,-49.91 83.03,-38.77 71.87,-30.16"/>
<polygon fill="#63b8ff" stroke="#63b8ff" points="108.02,-62.46 118.08,-65.8 112.3,-56.92 108.02,-62.46"/>
</a>
</g>
</g>
<!-- Node3 -->
<g id="Node000003" class="node">
<title>Node3</title>
<g id="a_Node000003"><a xlink:href="UpgradeCommand_8cpp.html" target="_top" xlink:title=" ">
<polygon fill="white" stroke="#666666" points="313.5,-30 125.5,-30 125.5,0 313.5,0 313.5,-30"/>
<text text-anchor="start" x="133.5" y="-18" font-family="Helvetica,sans-Serif" font-size="10.00">src/web/http/client</text>
<text text-anchor="middle" x="219.5" y="-7" font-family="Helvetica,sans-Serif" font-size="10.00">/commands/UpgradeCommand.cpp</text>
</a>
</g>
</g>
<!-- Node1&#45;&gt;Node3 -->
<g id="edge2_Node000001_Node000003" class="edge">
<title>Node1&#45;&gt;Node3</title>
<g id="a_edge2_Node000001_Node000003"><a xlink:title=" ">
<path fill="none" stroke="#63b8ff" d="M163.11,-59.48C175.52,-49.91 189.97,-38.77 201.13,-30.16"/>
<polygon fill="#63b8ff" stroke="#63b8ff" points="160.7,-56.92 154.92,-65.8 164.98,-62.46 160.7,-56.92"/>
</a>
</g>
</g>
</g>
</svg>
