<?xml version="1.0" encoding="UTF-8" standalone="no"?>
<!DOCTYPE svg PUBLIC "-//W3C//DTD SVG 1.1//EN"
 "http://www.w3.org/Graphics/SVG/1.1/DTD/svg11.dtd">
<!-- Generated by graphviz version 14.1.2 (0)
 -->
<!-- Title: web/http/client/Request.cpp Pages: 1 -->
<svg width="2513pt" height="376pt"
 viewBox="0.00 0.00 2513.00 376.00" xmlns="http://www.w3.org/2000/svg" xmlns:xlink="http://www.w3.org/1999/xlink">
<g id="graph0" class="graph" transform="scale(1 1) rotate(0) translate(4 372.25)">
<title>web/http/client/Request.cpp</title>
<!-- Node1 -->
<g id="Node000001" class="node">
<title>Node1</title>
<g id="a_Node000001"><a xlink:title=" ">
<polygon fill="#999999" stroke="#666666" points="1367.12,-368.25 1215.38,-368.25 1215.38,-347.5 1367.12,-347.5 1367.12,-368.25"/>
<text xml:space="preserve" text-anchor="middle" x="1291.25" y="-354.75" font-family="Helvetica,sans-Serif" font-size="10.00">web/http/client/Request.cpp</text>
</a>
</g>
</g>
<!-- Node2 -->
<g id="Node000002" class="node">
<title>Node2</title>
<g id="a_Node000002"><a xlink:href="web_2http_2client_2Request_8h.html" target="_top" xlink:title=" ">
<polygon fill="white" stroke="#666666" points="508.5,-166.12 368,-166.12 368,-145.38 508.5,-145.38 508.5,-166.12"/>
<text xml:space="preserve" text-anchor="middle" x="438.25" y="-152.62" font-family="Helvetica,sans-Serif" font-size="10.00">web/http/client/Request.h</text>
</a>
</g>
</g>
<!-- Node1&#45;&gt;Node2 -->
<g id="edge1_Node000001_Node000002" class="edge">
<title>Node1&#45;&gt;Node2</title>
<g id="a_edge1_Node000001_Node000002"><a xlink:title=" ">
<path fill="none" stroke="#63b8ff" d="M1215.08,-355.26C1042.93,-351.14 634.46,-338.61 578.25,-311.5 516.12,-281.53 468.97,-210.54 448.88,-176.13"/>
<polygon fill="#63b8ff" stroke="#63b8ff" points="452.05,-174.62 444.07,-167.65 445.96,-178.08 452.05,-174.62"/>
</a>
</g>
</g>
<!-- Node5 -->
<g id="Node000005" class="node">
<title>Node5</title>
<g id="a_Node000005"><a xlink:href="TransferEncoding_8h.html" target="_top" xlink:title=" ">
<polygon fill="white" stroke="#666666" points="313.62,-96.62 158.88,-96.62 158.88,-75.88 313.62,-75.88 313.62,-96.62"/>
<text xml:space="preserve" text-anchor="middle" x="236.25" y="-83.12" font-family="Helvetica,sans-Serif" font-size="10.00">web/http/TransferEncoding.h</text>
</a>
</g>
</g>
<!-- Node1&#45;&gt;Node5 -->
<g id="edge13_Node000001_Node000005" class="edge">
<title>Node1&#45;&gt;Node5</title>
<g id="a_edge13_Node000001_Node000005"><a xlink:title=" ">
<path fill="none" stroke="#63b8ff" d="M1215.09,-356.1C1048.34,-353.8 655.6,-344.89 527.25,-311.5 389.7,-275.72 316.92,-291.53 239.25,-172.5 226.82,-153.45 228.22,-126.58 231.34,-108.13"/>
<polygon fill="#63b8ff" stroke="#63b8ff" points="234.76,-108.87 233.31,-98.38 227.9,-107.48 234.76,-108.87"/>
</a>
</g>
</g>
<!-- Node6 -->
<g id="Node000006" class="node">
<title>Node6</title>
<g id="a_Node000006"><a xlink:href="FileReader_8h.html" target="_top" xlink:title=" ">
<polygon fill="white" stroke="#666666" points="1076.62,-305.12 957.88,-305.12 957.88,-284.38 1076.62,-284.38 1076.62,-305.12"/>
<text xml:space="preserve" text-anchor="middle" x="1017.25" y="-291.62" font-family="Helvetica,sans-Serif" font-size="10.00">core/file/FileReader.h</text>
</a>
</g>
</g>
<!-- Node1&#45;&gt;Node6 -->
<g id="edge5_Node000001_Node000006" class="edge">
<title>Node1&#45;&gt;Node6</title>
<g id="a_edge5_Node000001_Node000006"><a xlink:title=" ">
<path fill="none" stroke="#63b8ff" d="M1246.44,-347.05C1204.9,-337.91 1141.37,-323.89 1086.25,-311.5 1081.4,-310.41 1076.36,-309.27 1071.31,-308.12"/>
<polygon fill="#63b8ff" stroke="#63b8ff" points="1072.31,-304.76 1061.78,-305.96 1070.76,-311.59 1072.31,-304.76"/>
</a>
</g>
</g>
<!-- Node12 -->
<g id="Node000012" class="node">
<title>Node12</title>
<g id="a_Node000012"><a xlink:href="SocketConnection_8h.html" target="_top" xlink:title=" ">
<polygon fill="white" stroke="#666666" points="1209.75,-311.5 1094.75,-311.5 1094.75,-278 1209.75,-278 1209.75,-311.5"/>
<text xml:space="preserve" text-anchor="start" x="1102.75" y="-298" font-family="Helvetica,sans-Serif" font-size="10.00">core/socket/stream</text>
<text xml:space="preserve" text-anchor="middle" x="1152.25" y="-285.25" font-family="Helvetica,sans-Serif" font-size="10.00">/SocketConnection.h</text>
</a>
</g>
</g>
<!-- Node1&#45;&gt;Node12 -->
<g id="edge11_Node000001_Node000012" class="edge">
<title>Node1&#45;&gt;Node12</title>
<g id="a_edge11_Node000001_Node000012"><a xlink:title=" ">
<path fill="none" stroke="#63b8ff" d="M1268.92,-347.05C1250.28,-338.86 1223.08,-326.9 1199.63,-316.59"/>
<polygon fill="#63b8ff" stroke="#63b8ff" points="1201.12,-313.42 1190.55,-312.59 1198.3,-319.82 1201.12,-313.42"/>
</a>
</g>
</g>
<!-- Node13 -->
<g id="Node000013" class="node">
<title>Node13</title>
<g id="a_Node000013"><a xlink:href="MimeTypes_8h.html" target="_top" xlink:title=" ">
<polygon fill="white" stroke="#666666" points="1354.38,-305.12 1228.12,-305.12 1228.12,-284.38 1354.38,-284.38 1354.38,-305.12"/>
<text xml:space="preserve" text-anchor="middle" x="1291.25" y="-291.62" font-family="Helvetica,sans-Serif" font-size="10.00">web/http/MimeTypes.h</text>
</a>
</g>
</g>
<!-- Node1&#45;&gt;Node13 -->
<g id="edge12_Node000001_Node000013" class="edge">
<title>Node1&#45;&gt;Node13</title>
<g id="a_edge12_Node000001_Node000013"><a xlink:title=" ">
<path fill="none" stroke="#63b8ff" d="M1291.25,-347.05C1291.25,-338.9 1291.25,-327.01 1291.25,-316.73"/>
<polygon fill="#63b8ff" stroke="#63b8ff" points="1294.75,-316.86 1291.25,-306.86 1287.75,-316.86 1294.75,-316.86"/>
</a>
</g>
</g>
<!-- Node14 -->
<g id="Node000014" class="node">
<title>Node14</title>
<g id="a_Node000014"><a xlink:href="web_2http_2client_2SocketContext_8h.html" target="_top" xlink:title=" ">
<polygon fill="white" stroke="#666666" points="758.88,-305.12 587.62,-305.12 587.62,-284.38 758.88,-284.38 758.88,-305.12"/>
<text xml:space="preserve" text-anchor="middle" x="673.25" y="-291.62" font-family="Helvetica,sans-Serif" font-size="10.00">web/http/client/SocketContext.h</text>
</a>
</g>
</g>
<!-- Node1&#45;&gt;Node14 -->
<g id="edge14_Node000001_Node000014" class="edge">
<title>Node1&#45;&gt;Node14</title>
<g id="a_edge14_Node000001_Node000014"><a xlink:title=" ">
<path fill="none" stroke="#63b8ff" d="M1215.27,-352.14C1113.32,-345.37 926.72,-331.48 768.25,-311.5 758.89,-310.32 749.04,-308.9 739.38,-307.39"/>
<polygon fill="#63b8ff" stroke="#63b8ff" points="740.07,-303.96 729.65,-305.84 738.97,-310.87 740.07,-303.96"/>
</a>
</g>
</g>
<!-- Node22 -->
<g id="Node000022" class="node">
<title>Node22</title>
<g id="a_Node000022"><a xlink:href="client_2SocketContextUpgradeFactorySelector_8h.html" target="_top" xlink:title=" ">
<polygon fill="white" stroke="#666666" points="939.38,-311.5 777.12,-311.5 777.12,-278 939.38,-278 939.38,-311.5"/>
<text xml:space="preserve" text-anchor="start" x="785.12" y="-298" font-family="Helvetica,sans-Serif" font-size="10.00">web/http/client/SocketContext</text>
<text xml:space="preserve" text-anchor="middle" x="858.25" y="-285.25" font-family="Helvetica,sans-Serif" font-size="10.00">UpgradeFactorySelector.h</text>
</a>
</g>
</g>
<!-- Node1&#45;&gt;Node22 -->
<g id="edge24_Node000001_Node000022" class="edge">
<title>Node1&#45;&gt;Node22</title>
<g id="a_edge24_Node000001_Node000022"><a xlink:title=" ">
<path fill="none" stroke="#63b8ff" d="M1215.06,-347.64C1148.25,-339.34 1048.19,-326.44 950.83,-311.7"/>
<polygon fill="#63b8ff" stroke="#63b8ff" points="951.5,-308.26 941.08,-310.22 950.44,-315.18 951.5,-308.26"/>
</a>
</g>
</g>
<!-- Node28 -->
<g id="Node000028" class="node">
<title>Node28</title>
<g id="a_Node000028"><a xlink:href="EndCommand_8h.html" target="_top" xlink:title=" ">
<polygon fill="white" stroke="#666666" points="2313.38,-305.12 2163.12,-305.12 2163.12,-284.38 2313.38,-284.38 2313.38,-305.12"/>
<text xml:space="preserve" text-anchor="middle" x="2238.25" y="-291.62" font-family="Helvetica,sans-Serif" font-size="10.00">commands/EndCommand.h</text>
</a>
</g>
</g>
<!-- Node1&#45;&gt;Node28 -->
<g id="edge32_Node000001_Node000028" class="edge">
<title>Node1&#45;&gt;Node28</title>
<g id="a_edge32_Node000001_Node000028"><a xlink:title=" ">
<path fill="none" stroke="#63b8ff" d="M1367.44,-356.26C1518.21,-354.3 1865.06,-346.06 2154.25,-311.5 2162.75,-310.48 2171.69,-309.13 2180.44,-307.63"/>
<polygon fill="#63b8ff" stroke="#63b8ff" points="2181.05,-311.08 2190.28,-305.87 2179.82,-304.19 2181.05,-311.08"/>
</a>
</g>
</g>
<!-- Node30 -->
<g id="Node000030" class="node">
<title>Node30</title>
<g id="a_Node000030"><a xlink:href="SendFileCommand_8h.html" target="_top" xlink:title=" ">
<polygon fill="white" stroke="#666666" points="2504.62,-305.12 2331.88,-305.12 2331.88,-284.38 2504.62,-284.38 2504.62,-305.12"/>
<text xml:space="preserve" text-anchor="middle" x="2418.25" y="-291.62" font-family="Helvetica,sans-Serif" font-size="10.00">commands/SendFileCommand.h</text>
</a>
</g>
</g>
<!-- Node1&#45;&gt;Node30 -->
<g id="edge34_Node000001_Node000030" class="edge">
<title>Node1&#45;&gt;Node30</title>
<g id="a_edge34_Node000001_Node000030"><a xlink:title=" ">
<path fill="none" stroke="#63b8ff" d="M1367.47,-356.61C1538.65,-355.33 1966.5,-348.38 2322.25,-311.5 2332.55,-310.43 2343.43,-308.97 2354.01,-307.37"/>
<polygon fill="#63b8ff" stroke="#63b8ff" points="2354.51,-310.83 2363.84,-305.82 2353.42,-303.92 2354.51,-310.83"/>
</a>
</g>
</g>
<!-- Node31 -->
<g id="Node000031" class="node">
<title>Node31</title>
<g id="a_Node000031"><a xlink:href="SendFragmentCommand_8h.html" target="_top" xlink:title=" ">
<polygon fill="white" stroke="#666666" points="1575.62,-305.12 1372.88,-305.12 1372.88,-284.38 1575.62,-284.38 1575.62,-305.12"/>
<text xml:space="preserve" text-anchor="middle" x="1474.25" y="-291.62" font-family="Helvetica,sans-Serif" font-size="10.00">commands/SendFragmentCommand.h</text>
</a>
</g>
</g>
<!-- Node1&#45;&gt;Node31 -->
<g id="edge36_Node000001_Node000031" class="edge">
<title>Node1&#45;&gt;Node31</title>
<g id="a_edge36_Node000001_Node000031"><a xlink:title=" ">
<path fill="none" stroke="#63b8ff" d="M1320.65,-347.05C1351.47,-336.76 1400.07,-320.53 1434.34,-309.08"/>
<polygon fill="#63b8ff" stroke="#63b8ff" points="1435.11,-312.51 1443.49,-306.03 1432.89,-305.87 1435.11,-312.51"/>
</a>
</g>
</g>
<!-- Node32 -->
<g id="Node000032" class="node">
<title>Node32</title>
<g id="a_Node000032"><a xlink:href="SendHeaderCommand_8h.html" target="_top" xlink:title=" ">
<polygon fill="white" stroke="#666666" points="1785,-305.12 1593.5,-305.12 1593.5,-284.38 1785,-284.38 1785,-305.12"/>
<text xml:space="preserve" text-anchor="middle" x="1689.25" y="-291.62" font-family="Helvetica,sans-Serif" font-size="10.00">commands/SendHeaderCommand.h</text>
</a>
</g>
</g>
<!-- Node1&#45;&gt;Node32 -->
<g id="edge38_Node000001_Node000032" class="edge">
<title>Node1&#45;&gt;Node32</title>
<g id="a_edge38_Node000001_Node000032"><a xlink:title=" ">
<path fill="none" stroke="#63b8ff" d="M1355.2,-347.05C1425.74,-336.22 1539.14,-318.8 1613.93,-307.32"/>
<polygon fill="#63b8ff" stroke="#63b8ff" points="1614.28,-310.8 1623.64,-305.83 1613.22,-303.89 1614.28,-310.8"/>
</a>
</g>
</g>
<!-- Node33 -->
<g id="Node000033" class="node">
<title>Node33</title>
<g id="a_Node000033"><a xlink:href="SseCommand_8h.html" target="_top" xlink:title=" ">
<polygon fill="white" stroke="#666666" points="1953,-305.12 1803.5,-305.12 1803.5,-284.38 1953,-284.38 1953,-305.12"/>
<text xml:space="preserve" text-anchor="middle" x="1878.25" y="-291.62" font-family="Helvetica,sans-Serif" font-size="10.00">commands/SseCommand.h</text>
</a>
</g>
</g>
<!-- Node1&#45;&gt;Node33 -->
<g id="edge40_Node000001_Node000033" class="edge">
<title>Node1&#45;&gt;Node33</title>
<g id="a_edge40_Node000001_Node000033"><a xlink:title=" ">
<path fill="none" stroke="#63b8ff" d="M1367.35,-352.28C1466.09,-345.8 1643.56,-332.38 1794.25,-311.5 1802.23,-310.39 1810.61,-309.05 1818.85,-307.61"/>
<polygon fill="#63b8ff" stroke="#63b8ff" points="1819.25,-311.1 1828.47,-305.89 1818.01,-304.21 1819.25,-311.1"/>
</a>
</g>
</g>
<!-- Node34 -->
<g id="Node000034" class="node">
<title>Node34</title>
<g id="a_Node000034"><a xlink:href="UpgradeCommand_8h.html" target="_top" xlink:title=" ">
<polygon fill="white" stroke="#666666" points="2145,-305.12 1971.5,-305.12 1971.5,-284.38 2145,-284.38 2145,-305.12"/>
<text xml:space="preserve" text-anchor="middle" x="2058.25" y="-291.62" font-family="Helvetica,sans-Serif" font-size="10.00">commands/UpgradeCommand.h</text>
</a>
</g>
</g>
<!-- Node1&#45;&gt;Node34 -->
<g id="edge42_Node000001_Node000034" class="edge">
<title>Node1&#45;&gt;Node34</title>
<g id="a_edge42_Node000001_Node000034"><a xlink:title=" ">
<path fill="none" stroke="#63b8ff" d="M1367.44,-354.08C1492.12,-348.99 1747.38,-336.33 1962.25,-311.5 1972.06,-310.37 1982.4,-308.93 1992.52,-307.38"/>
<polygon fill="#63b8ff" stroke="#63b8ff" points="1992.97,-310.86 2002.31,-305.84 1991.88,-303.94 1992.97,-310.86"/>
</a>
</g>
</g>
<!-- Node3 -->
<g id="Node000003" class="node">
<title>Node3</title>
<g id="a_Node000003"><a xlink:href="Sink_8h.html" target="_top" xlink:title=" ">
<polygon fill="white" stroke="#666666" points="425.25,-96.62 331.25,-96.62 331.25,-75.88 425.25,-75.88 425.25,-96.62"/>
<text xml:space="preserve" text-anchor="middle" x="378.25" y="-83.12" font-family="Helvetica,sans-Serif" font-size="10.00">core/pipe/Sink.h</text>
</a>
</g>
</g>
<!-- Node2&#45;&gt;Node3 -->
<g id="edge2_Node000002_Node000003" class="edge">
<title>Node2&#45;&gt;Node3</title>
<g id="a_edge2_Node000002_Node000003"><a xlink:title=" ">
<path fill="none" stroke="#63b8ff" d="M429.65,-145.08C420.48,-134.75 405.72,-118.15 394.37,-105.38"/>
<polygon fill="#63b8ff" stroke="#63b8ff" points="397.1,-103.18 387.84,-98.03 391.86,-107.83 397.1,-103.18"/>
</a>
</g>
</g>
<!-- Node4 -->
<g id="Node000004" class="node">
<title>Node4</title>
<g id="a_Node000004"><a xlink:href="ConnectionState_8h.html" target="_top" xlink:title=" ">
<polygon fill="white" stroke="#666666" points="594.75,-96.62 443.75,-96.62 443.75,-75.88 594.75,-75.88 594.75,-96.62"/>
<text xml:space="preserve" text-anchor="middle" x="519.25" y="-83.12" font-family="Helvetica,sans-Serif" font-size="10.00">web/http/ConnectionState.h</text>
</a>
</g>
</g>
<!-- Node2&#45;&gt;Node4 -->
<g id="edge3_Node000002_Node000004" class="edge">
<title>Node2&#45;&gt;Node4</title>
<g id="a_edge3_Node000002_Node000004"><a xlink:title=" ">
<path fill="none" stroke="#63b8ff" d="M449.86,-145.08C462.65,-134.41 483.49,-117.05 498.99,-104.13"/>
<polygon fill="#63b8ff" stroke="#63b8ff" points="500.8,-107.18 506.24,-98.09 496.32,-101.8 500.8,-107.18"/>
</a>
</g>
</g>
<!-- Node2&#45;&gt;Node5 -->
<g id="edge4_Node000002_Node000005" class="edge">
<title>Node2&#45;&gt;Node5</title>
<g id="a_edge4_Node000002_Node000005"><a xlink:title=" ">
<path fill="none" stroke="#63b8ff" d="M408.88,-144.93C373.95,-133.26 315.46,-113.72 276.38,-100.66"/>
<polygon fill="#63b8ff" stroke="#63b8ff" points="277.69,-97.41 267.09,-97.56 275.47,-104.05 277.69,-97.41"/>
</a>
</g>
</g>
<!-- Node7 -->
<g id="Node000007" class="node">
<title>Node7</title>
<g id="a_Node000007"><a xlink:href="EventReceiver_8h.html" target="_top" xlink:title=" ">
<polygon fill="white" stroke="#666666" points="1208,-235.62 1088.5,-235.62 1088.5,-214.88 1208,-214.88 1208,-235.62"/>
<text xml:space="preserve" text-anchor="middle" x="1148.25" y="-222.12" font-family="Helvetica,sans-Serif" font-size="10.00">core/EventReceiver.h</text>
</a>
</g>
</g>
<!-- Node6&#45;&gt;Node7 -->
<g id="edge6_Node000006_Node000007" class="edge">
<title>Node6&#45;&gt;Node7</title>
<g id="a_edge6_Node000006_Node000007"><a xlink:title=" ">
<path fill="none" stroke="#63b8ff" d="M1036.3,-283.93C1058.03,-272.74 1093.82,-254.3 1119.07,-241.28"/>
<polygon fill="#63b8ff" stroke="#63b8ff" points="1120.55,-244.46 1127.83,-236.77 1117.34,-238.24 1120.55,-244.46"/>
</a>
</g>
</g>
<!-- Node9 -->
<g id="Node000009" class="node">
<title>Node9</title>
<g id="a_Node000009"><a xlink:href="File_8h.html" target="_top" xlink:title=" ">
<polygon fill="white" stroke="#666666" points="1310.38,-235.62 1226.12,-235.62 1226.12,-214.88 1310.38,-214.88 1310.38,-235.62"/>
<text xml:space="preserve" text-anchor="middle" x="1268.25" y="-222.12" font-family="Helvetica,sans-Serif" font-size="10.00">core/file/File.h</text>
</a>
</g>
</g>
<!-- Node6&#45;&gt;Node9 -->
<g id="edge8_Node000006_Node000009" class="edge">
<title>Node6&#45;&gt;Node9</title>
<g id="a_edge8_Node000006_Node000009"><a xlink:title=" ">
<path fill="none" stroke="#63b8ff" d="M1057.62,-283.89C1098.12,-273.86 1162.21,-257.61 1217.25,-242 1220.2,-241.16 1223.24,-240.28 1226.29,-239.38"/>
<polygon fill="#63b8ff" stroke="#63b8ff" points="1227.29,-242.73 1235.85,-236.5 1225.27,-236.03 1227.29,-242.73"/>
</a>
</g>
</g>
<!-- Node11 -->
<g id="Node000011" class="node">
<title>Node11</title>
<g id="a_Node000011"><a xlink:href="Source_8h.html" target="_top" xlink:title=" ">
<polygon fill="white" stroke="#666666" points="1070.25,-235.62 964.25,-235.62 964.25,-214.88 1070.25,-214.88 1070.25,-235.62"/>
<text xml:space="preserve" text-anchor="middle" x="1017.25" y="-222.12" font-family="Helvetica,sans-Serif" font-size="10.00">core/pipe/Source.h</text>
</a>
</g>
</g>
<!-- Node6&#45;&gt;Node11 -->
<g id="edge10_Node000006_Node000011" class="edge">
<title>Node6&#45;&gt;Node11</title>
<g id="a_edge10_Node000006_Node000011"><a xlink:title=" ">
<path fill="none" stroke="#63b8ff" d="M1017.25,-284.08C1017.25,-274.46 1017.25,-259.38 1017.25,-247.04"/>
<polygon fill="#63b8ff" stroke="#63b8ff" points="1020.75,-247.42 1017.25,-237.42 1013.75,-247.42 1020.75,-247.42"/>
</a>
</g>
</g>
<!-- Node8 -->
<g id="Node000008" class="node">
<title>Node8</title>
<g id="a_Node000008"><a xlink:href="Event_8h.html" target="_top" xlink:title=" ">
<polygon fill="white" stroke="#666666" points="1187.62,-166.12 1110.88,-166.12 1110.88,-145.38 1187.62,-145.38 1187.62,-166.12"/>
<text xml:space="preserve" text-anchor="middle" x="1149.25" y="-152.62" font-family="Helvetica,sans-Serif" font-size="10.00">core/Event.h</text>
</a>
</g>
</g>
<!-- Node7&#45;&gt;Node8 -->
<g id="edge7_Node000007_Node000008" class="edge">
<title>Node7&#45;&gt;Node8</title>
<g id="a_edge7_Node000007_Node000008"><a xlink:title=" ">
<path fill="none" stroke="#63b8ff" d="M1148.39,-214.58C1148.54,-204.96 1148.76,-189.88 1148.94,-177.54"/>
<polygon fill="#63b8ff" stroke="#63b8ff" points="1152.44,-177.97 1149.08,-167.92 1145.44,-177.86 1152.44,-177.97"/>
</a>
</g>
</g>
<!-- Node10 -->
<g id="Node000010" class="node">
<title>Node10</title>
<g id="a_Node000010"><a xlink:href="Descriptor_8h.html" target="_top" xlink:title=" ">
<polygon fill="white" stroke="#666666" points="1317.88,-166.12 1218.62,-166.12 1218.62,-145.38 1317.88,-145.38 1317.88,-166.12"/>
<text xml:space="preserve" text-anchor="middle" x="1268.25" y="-152.62" font-family="Helvetica,sans-Serif" font-size="10.00">core/Descriptor.h</text>
</a>
</g>
</g>
<!-- Node9&#45;&gt;Node10 -->
<g id="edge9_Node000009_Node000010" class="edge">
<title>Node9&#45;&gt;Node10</title>
<g id="a_edge9_Node000009_Node000010"><a xlink:title=" ">
<path fill="none" stroke="#63b8ff" d="M1268.25,-214.58C1268.25,-204.96 1268.25,-189.88 1268.25,-177.54"/>
<polygon fill="#63b8ff" stroke="#63b8ff" points="1271.75,-177.92 1268.25,-167.92 1264.75,-177.92 1271.75,-177.92"/>
</a>
</g>
</g>
<!-- Node15 -->
<g id="Node000015" class="node">
<title>Node15</title>
<g id="a_Node000015"><a xlink:href="core_2socket_2stream_2SocketContext_8h.html" target="_top" xlink:title=" ">
<polygon fill="white" stroke="#666666" points="882.75,-103 773.75,-103 773.75,-69.5 882.75,-69.5 882.75,-103"/>
<text xml:space="preserve" text-anchor="start" x="781.75" y="-89.5" font-family="Helvetica,sans-Serif" font-size="10.00">core/socket/stream</text>
<text xml:space="preserve" text-anchor="middle" x="828.25" y="-76.75" font-family="Helvetica,sans-Serif" font-size="10.00">/SocketContext.h</text>
</a>
</g>
</g>
<!-- Node14&#45;&gt;Node15 -->
<g id="edge15_Node000014_Node000015" class="edge">
<title>Node14&#45;&gt;Node15</title>
<g id="a_edge15_Node000014_Node000015"><a xlink:title=" ">
<path fill="none" stroke="#63b8ff" d="M673.65,-284.15C675.25,-257.79 683.09,-183.35 721.25,-139 732.57,-125.85 747.99,-115.75 763.61,-108.13"/>
<polygon fill="#63b8ff" stroke="#63b8ff" points="764.82,-111.42 772.48,-104.09 761.92,-105.05 764.82,-111.42"/>
</a>
</g>
</g>
<!-- Node17 -->
<g id="Node000017" class="node">
<title>Node17</title>
<g id="a_Node000017"><a xlink:href="ResponseParser_8h.html" target="_top" xlink:title=" ">
<polygon fill="white" stroke="#666666" points="669.75,-242 530.75,-242 530.75,-208.5 669.75,-208.5 669.75,-242"/>
<text xml:space="preserve" text-anchor="start" x="538.75" y="-228.5" font-family="Helvetica,sans-Serif" font-size="10.00">web/http/client/Response</text>
<text xml:space="preserve" text-anchor="middle" x="600.25" y="-215.75" font-family="Helvetica,sans-Serif" font-size="10.00">Parser.h</text>
</a>
</g>
</g>
<!-- Node14&#45;&gt;Node17 -->
<g id="edge17_Node000014_Node000017" class="edge">
<title>Node14&#45;&gt;Node17</title>
<g id="a_edge17_Node000014_Node000017"><a xlink:title=" ">
<path fill="none" stroke="#63b8ff" d="M662.79,-284.08C653.25,-275.25 638.74,-261.84 626.1,-250.16"/>
<polygon fill="#63b8ff" stroke="#63b8ff" points="628.57,-247.67 618.85,-243.45 623.81,-252.81 628.57,-247.67"/>
</a>
</g>
</g>
<!-- Node16 -->
<g id="Node000016" class="node">
<title>Node16</title>
<g id="a_Node000016"><a xlink:href="core_2socket_2SocketContext_8h.html" target="_top" xlink:title=" ">
<polygon fill="white" stroke="#666666" points="905.25,-27.12 751.25,-27.12 751.25,-6.38 905.25,-6.38 905.25,-27.12"/>
<text xml:space="preserve" text-anchor="middle" x="828.25" y="-13.62" font-family="Helvetica,sans-Serif" font-size="10.00">core/socket/SocketContext.h</text>
</a>
</g>
</g>
<!-- Node15&#45;&gt;Node16 -->
<g id="edge16_Node000015_Node000016" class="edge">
<title>Node15&#45;&gt;Node16</title>
<g id="a_edge16_Node000015_Node000016"><a xlink:title=" ">
<path fill="none" stroke="#63b8ff" d="M828.25,-69.25C828.25,-60.15 828.25,-48.64 828.25,-38.82"/>
<polygon fill="#63b8ff" stroke="#63b8ff" points="831.75,-39.09 828.25,-29.09 824.75,-39.09 831.75,-39.09"/>
</a>
</g>
</g>
<!-- Node18 -->
<g id="Node000018" class="node">
<title>Node18</title>
<g id="a_Node000018"><a xlink:href="Parser_8h.html" target="_top" xlink:title=" ">
<polygon fill="white" stroke="#666666" points="350,-166.12 248.5,-166.12 248.5,-145.38 350,-145.38 350,-166.12"/>
<text xml:space="preserve" text-anchor="middle" x="299.25" y="-152.62" font-family="Helvetica,sans-Serif" font-size="10.00">web/http/Parser.h</text>
</a>
</g>
</g>
<!-- Node17&#45;&gt;Node18 -->
<g id="edge18_Node000017_Node000018" class="edge">
<title>Node17&#45;&gt;Node18</title>
<g id="a_edge18_Node000017_Node000018"><a xlink:title=" ">
<path fill="none" stroke="#63b8ff" d="M530.46,-210.13C482.24,-200.17 416.69,-186.2 359.25,-172.5 355.19,-171.53 350.98,-170.49 346.76,-169.43"/>
<polygon fill="#63b8ff" stroke="#63b8ff" points="347.69,-166.06 337.14,-166.97 345.96,-172.84 347.69,-166.06"/>
</a>
</g>
</g>
<!-- Node20 -->
<g id="Node000020" class="node">
<title>Node20</title>
<g id="a_Node000020"><a xlink:href="web_2http_2client_2Response_8h.html" target="_top" xlink:title=" ">
<polygon fill="white" stroke="#666666" points="674.25,-166.12 526.25,-166.12 526.25,-145.38 674.25,-145.38 674.25,-166.12"/>
<text xml:space="preserve" text-anchor="middle" x="600.25" y="-152.62" font-family="Helvetica,sans-Serif" font-size="10.00">web/http/client/Response.h</text>
</a>
</g>
</g>
<!-- Node17&#45;&gt;Node20 -->
<g id="edge21_Node000017_Node000020" class="edge">
<title>Node17&#45;&gt;Node20</title>
<g id="a_edge21_Node000017_Node000020"><a xlink:title=" ">
<path fill="none" stroke="#63b8ff" d="M600.25,-208.25C600.25,-199.15 600.25,-187.64 600.25,-177.82"/>
<polygon fill="#63b8ff" stroke="#63b8ff" points="603.75,-178.09 600.25,-168.09 596.75,-178.09 603.75,-178.09"/>
</a>
</g>
</g>
<!-- Node18&#45;&gt;Node5 -->
<g id="edge19_Node000018_Node000005" class="edge">
<title>Node18&#45;&gt;Node5</title>
<g id="a_edge19_Node000018_Node000005"><a xlink:title=" ">
<path fill="none" stroke="#63b8ff" d="M290.22,-145.08C280.49,-134.65 264.79,-117.83 252.83,-105.01"/>
<polygon fill="#63b8ff" stroke="#63b8ff" points="255.67,-102.93 246.29,-98.01 250.56,-107.71 255.67,-102.93"/>
</a>
</g>
</g>
<!-- Node19 -->
<g id="Node000019" class="node">
<title>Node19</title>
<g id="a_Node000019"><a xlink:href="Fields_8h.html" target="_top" xlink:title=" ">
<polygon fill="white" stroke="#666666" points="140.5,-96.62 0,-96.62 0,-75.88 140.5,-75.88 140.5,-96.62"/>
<text xml:space="preserve" text-anchor="middle" x="70.25" y="-83.12" font-family="Helvetica,sans-Serif" font-size="10.00">web/http/decoder/Fields.h</text>
</a>
</g>
</g>
<!-- Node18&#45;&gt;Node19 -->
<g id="edge20_Node000018_Node000019" class="edge">
<title>Node18&#45;&gt;Node19</title>
<g id="a_edge20_Node000018_Node000019"><a xlink:title=" ">
<path fill="none" stroke="#63b8ff" d="M265.95,-144.93C226.01,-133.16 158.91,-113.38 114.61,-100.32"/>
<polygon fill="#63b8ff" stroke="#63b8ff" points="115.62,-96.98 105.04,-97.5 113.64,-103.69 115.62,-96.98"/>
</a>
</g>
</g>
<!-- Node20&#45;&gt;Node4 -->
<g id="edge22_Node000020_Node000004" class="edge">
<title>Node20&#45;&gt;Node4</title>
<g id="a_edge22_Node000020_Node000004"><a xlink:title=" ">
<path fill="none" stroke="#63b8ff" d="M588.64,-145.08C575.85,-134.41 555.01,-117.05 539.51,-104.13"/>
<polygon fill="#63b8ff" stroke="#63b8ff" points="542.18,-101.8 532.26,-98.09 537.7,-107.18 542.18,-101.8"/>
</a>
</g>
</g>
<!-- Node21 -->
<g id="Node000021" class="node">
<title>Node21</title>
<g id="a_Node000021"><a xlink:href="CookieOptions_8h.html" target="_top" xlink:title=" ">
<polygon fill="white" stroke="#666666" points="755.25,-96.62 613.25,-96.62 613.25,-75.88 755.25,-75.88 755.25,-96.62"/>
<text xml:space="preserve" text-anchor="middle" x="684.25" y="-83.12" font-family="Helvetica,sans-Serif" font-size="10.00">web/http/CookieOptions.h</text>
</a>
</g>
</g>
<!-- Node20&#45;&gt;Node21 -->
<g id="edge23_Node000020_Node000021" class="edge">
<title>Node20&#45;&gt;Node21</title>
<g id="a_edge23_Node000020_Node000021"><a xlink:title=" ">
<path fill="none" stroke="#63b8ff" d="M612.29,-145.08C625.56,-134.41 647.16,-117.05 663.24,-104.13"/>
<polygon fill="#63b8ff" stroke="#63b8ff" points="665.18,-107.06 670.78,-98.07 660.8,-101.61 665.18,-107.06"/>
</a>
</g>
</g>
<!-- Node23 -->
<g id="Node000023" class="node">
<title>Node23</title>
<g id="a_Node000023"><a xlink:href="SocketContextUpgradeFactorySelector_8h.html" target="_top" xlink:title=" ">
<polygon fill="white" stroke="#666666" points="908,-242 734.5,-242 734.5,-208.5 908,-208.5 908,-242"/>
<text xml:space="preserve" text-anchor="start" x="742.5" y="-228.5" font-family="Helvetica,sans-Serif" font-size="10.00">web/http/SocketContextUpgrade</text>
<text xml:space="preserve" text-anchor="middle" x="821.25" y="-215.75" font-family="Helvetica,sans-Serif" font-size="10.00">FactorySelector.h</text>
</a>
</g>
</g>
<!-- Node22&#45;&gt;Node23 -->
<g id="edge25_Node000022_Node000023" class="edge">
<title>Node22&#45;&gt;Node23</title>
<g id="a_edge25_Node000022_Node000023"><a xlink:title=" ">
<path fill="none" stroke="#63b8ff" d="M849.48,-277.75C845.29,-270.1 840.16,-260.75 835.44,-252.13"/>
<polygon fill="#63b8ff" stroke="#63b8ff" points="838.56,-250.55 830.68,-243.46 832.42,-253.91 838.56,-250.55"/>
</a>
</g>
</g>
<!-- Node27 -->
<g id="Node000027" class="node">
<title>Node27</title>
<g id="a_Node000027"><a xlink:href="http_2client_2SocketContextUpgradeFactory_8h.html" target="_top" xlink:title=" ">
<polygon fill="white" stroke="#666666" points="1092.38,-172.5 930.12,-172.5 930.12,-139 1092.38,-139 1092.38,-172.5"/>
<text xml:space="preserve" text-anchor="start" x="938.12" y="-159" font-family="Helvetica,sans-Serif" font-size="10.00">web/http/client/SocketContext</text>
<text xml:space="preserve" text-anchor="middle" x="1011.25" y="-146.25" font-family="Helvetica,sans-Serif" font-size="10.00">UpgradeFactory.h</text>
</a>
</g>
</g>
<!-- Node22&#45;&gt;Node27 -->
<g id="edge30_Node000022_Node000027" class="edge">
<title>Node22&#45;&gt;Node27</title>
<g id="a_edge30_Node000022_Node000027"><a xlink:title=" ">
<path fill="none" stroke="#63b8ff" d="M876.92,-277.51C888.56,-267.36 903.83,-253.97 917.25,-242 940.39,-221.36 966.49,-197.66 985.31,-180.49"/>
<polygon fill="#63b8ff" stroke="#63b8ff" points="987.52,-183.21 992.54,-173.88 982.8,-178.04 987.52,-183.21"/>
</a>
</g>
</g>
<!-- Node24 -->
<g id="Node000024" class="node">
<title>Node24</title>
<g id="a_Node000024"><a xlink:href="http_2SocketContextUpgrade_8h.html" target="_top" xlink:title=" ">
<polygon fill="white" stroke="#666666" points="912.5,-166.12 730,-166.12 730,-145.38 912.5,-145.38 912.5,-166.12"/>
<text xml:space="preserve" text-anchor="middle" x="821.25" y="-152.62" font-family="Helvetica,sans-Serif" font-size="10.00">web/http/SocketContextUpgrade.h</text>
</a>
</g>
</g>
<!-- Node23&#45;&gt;Node24 -->
<g id="edge26_Node000023_Node000024" class="edge">
<title>Node23&#45;&gt;Node24</title>
<g id="a_edge26_Node000023_Node000024"><a xlink:title=" ">
<path fill="none" stroke="#63b8ff" d="M821.25,-208.25C821.25,-199.15 821.25,-187.64 821.25,-177.82"/>
<polygon fill="#63b8ff" stroke="#63b8ff" points="824.75,-178.09 821.25,-168.09 817.75,-178.09 824.75,-178.09"/>
</a>
</g>
</g>
<!-- Node24&#45;&gt;Node15 -->
<g id="edge27_Node000024_Node000015" class="edge">
<title>Node24&#45;&gt;Node15</title>
<g id="a_edge27_Node000024_Node000015"><a xlink:title=" ">
<path fill="none" stroke="#63b8ff" d="M822.25,-145.08C823.08,-137.1 824.3,-125.38 825.42,-114.57"/>
<polygon fill="#63b8ff" stroke="#63b8ff" points="828.87,-115.23 826.42,-104.92 821.9,-114.51 828.87,-115.23"/>
</a>
</g>
</g>
<!-- Node25 -->
<g id="Node000025" class="node">
<title>Node25</title>
<g id="a_Node000025"><a xlink:href="http_2SocketContextUpgradeFactory_8h.html" target="_top" xlink:title=" ">
<polygon fill="white" stroke="#666666" points="1091,-103 917.5,-103 917.5,-69.5 1091,-69.5 1091,-103"/>
<text xml:space="preserve" text-anchor="start" x="925.5" y="-89.5" font-family="Helvetica,sans-Serif" font-size="10.00">web/http/SocketContextUpgrade</text>
<text xml:space="preserve" text-anchor="middle" x="1004.25" y="-76.75" font-family="Helvetica,sans-Serif" font-size="10.00">Factory.h</text>
</a>
</g>
</g>
<!-- Node24&#45;&gt;Node25 -->
<g id="edge28_Node000024_Node000025" class="edge">
<title>Node24&#45;&gt;Node25</title>
<g id="a_edge28_Node000024_Node000025"><a xlink:title=" ">
<path fill="none" stroke="#63b8ff" d="M847.86,-144.93C874.43,-135.14 916.03,-119.79 949.65,-107.39"/>
<polygon fill="#63b8ff" stroke="#63b8ff" points="950.66,-110.75 958.83,-104 948.24,-104.18 950.66,-110.75"/>
</a>
</g>
</g>
<!-- Node26 -->
<g id="Node000026" class="node">
<title>Node26</title>
<g id="a_Node000026"><a xlink:href="core_2socket_2stream_2SocketContextFactory_8h.html" target="_top" xlink:title=" ">
<polygon fill="white" stroke="#666666" points="1070.75,-33.5 937.75,-33.5 937.75,0 1070.75,0 1070.75,-33.5"/>
<text xml:space="preserve" text-anchor="start" x="945.75" y="-20" font-family="Helvetica,sans-Serif" font-size="10.00">core/socket/stream</text>
<text xml:space="preserve" text-anchor="middle" x="1004.25" y="-7.25" font-family="Helvetica,sans-Serif" font-size="10.00">/SocketContextFactory.h</text>
</a>
</g>
</g>
<!-- Node25&#45;&gt;Node26 -->
<g id="edge29_Node000025_Node000026" class="edge">
<title>Node25&#45;&gt;Node26</title>
<g id="a_edge29_Node000025_Node000026"><a xlink:title=" ">
<path fill="none" stroke="#63b8ff" d="M1004.25,-69.25C1004.25,-62.02 1004.25,-53.28 1004.25,-45.06"/>
<polygon fill="#63b8ff" stroke="#63b8ff" points="1007.75,-45.15 1004.25,-35.15 1000.75,-45.15 1007.75,-45.15"/>
</a>
</g>
</g>
<!-- Node27&#45;&gt;Node25 -->
<g id="edge31_Node000027_Node000025" class="edge">
<title>Node27&#45;&gt;Node25</title>
<g id="a_edge31_Node000027_Node000025"><a xlink:title=" ">
<path fill="none" stroke="#63b8ff" d="M1009.59,-138.75C1008.84,-131.52 1007.93,-122.78 1007.08,-114.56"/>
<polygon fill="#63b8ff" stroke="#63b8ff" points="1010.57,-114.22 1006.05,-104.64 1003.6,-114.94 1010.57,-114.22"/>
</a>
</g>
</g>
<!-- Node29 -->
<g id="Node000029" class="node">
<title>Node29</title>
<g id="a_Node000029"><a xlink:href="RequestCommand_8h.html" target="_top" xlink:title=" ">
<polygon fill="white" stroke="#666666" points="2063.62,-235.62 1872.88,-235.62 1872.88,-214.88 2063.62,-214.88 2063.62,-235.62"/>
<text xml:space="preserve" text-anchor="middle" x="1968.25" y="-222.12" font-family="Helvetica,sans-Serif" font-size="10.00">web/http/client/RequestCommand.h</text>
</a>
</g>
</g>
<!-- Node28&#45;&gt;Node29 -->
<g id="edge33_Node000028_Node000029" class="edge">
<title>Node28&#45;&gt;Node29</title>
<g id="a_edge33_Node000028_Node000029"><a xlink:title=" ">
<path fill="none" stroke="#63b8ff" d="M2198.99,-283.93C2151.3,-272.01 2070.77,-251.88 2018.57,-238.83"/>
<polygon fill="#63b8ff" stroke="#63b8ff" points="2019.58,-235.47 2009.03,-236.44 2017.88,-242.26 2019.58,-235.47"/>
</a>
</g>
</g>
<!-- Node30&#45;&gt;Node29 -->
<g id="edge35_Node000030_Node000029" class="edge">
<title>Node30&#45;&gt;Node29</title>
<g id="a_edge35_Node000030_Node000029"><a xlink:title=" ">
<path fill="none" stroke="#63b8ff" d="M2359.13,-283.88C2346.94,-281.9 2334.18,-279.85 2322.25,-278 2228.74,-263.5 2121.16,-247.93 2049.37,-237.7"/>
<polygon fill="#63b8ff" stroke="#63b8ff" points="2050.05,-234.26 2039.66,-236.32 2049.06,-241.19 2050.05,-234.26"/>
</a>
</g>
</g>
<!-- Node31&#45;&gt;Node29 -->
<g id="edge37_Node000031_Node000029" class="edge">
<title>Node31&#45;&gt;Node29</title>
<g id="a_edge37_Node000031_Node000029"><a xlink:title=" ">
<path fill="none" stroke="#63b8ff" d="M1542.3,-283.92C1556.18,-281.94 1570.68,-279.89 1584.25,-278 1686.81,-263.75 1804.87,-247.92 1882.71,-237.57"/>
<polygon fill="#63b8ff" stroke="#63b8ff" points="1882.94,-241.07 1892.39,-236.29 1882.02,-234.13 1882.94,-241.07"/>
</a>
</g>
</g>
<!-- Node32&#45;&gt;Node29 -->
<g id="edge39_Node000032_Node000029" class="edge">
<title>Node32&#45;&gt;Node29</title>
<g id="a_edge39_Node000032_Node000029"><a xlink:title=" ">
<path fill="none" stroke="#63b8ff" d="M1729.82,-283.93C1779.2,-271.99 1862.67,-251.79 1916.6,-238.75"/>
<polygon fill="#63b8ff" stroke="#63b8ff" points="1917.26,-242.19 1926.16,-236.43 1915.62,-235.38 1917.26,-242.19"/>
</a>
</g>
</g>
<!-- Node33&#45;&gt;Node29 -->
<g id="edge41_Node000033_Node000029" class="edge">
<title>Node33&#45;&gt;Node29</title>
<g id="a_edge41_Node000033_Node000029"><a xlink:title=" ">
<path fill="none" stroke="#63b8ff" d="M1891.14,-284.08C1905.5,-273.31 1928.95,-255.73 1946.22,-242.77"/>
<polygon fill="#63b8ff" stroke="#63b8ff" points="1947.98,-245.83 1953.88,-237.03 1943.78,-240.23 1947.98,-245.83"/>
</a>
</g>
</g>
<!-- Node34&#45;&gt;Node29 -->
<g id="edge43_Node000034_Node000029" class="edge">
<title>Node34&#45;&gt;Node29</title>
<g id="a_edge43_Node000034_Node000029"><a xlink:title=" ">
<path fill="none" stroke="#63b8ff" d="M2045.36,-284.08C2031,-273.31 2007.55,-255.73 1990.28,-242.77"/>
<polygon fill="#63b8ff" stroke="#63b8ff" points="1992.72,-240.23 1982.62,-237.03 1988.52,-245.83 1992.72,-240.23"/>
</a>
</g>
</g>
</g>
</svg>
