<?xml version="1.0" encoding="UTF-8" standalone="no"?>
<!DOCTYPE svg PUBLIC "-//W3C//DTD SVG 1.1//EN"
 "http://www.w3.org/Graphics/SVG/1.1/DTD/svg11.dtd">
<!-- Generated by graphviz version 2.43.0 (0)
 -->
<!-- Title: express/WebAppT.h Pages: 1 -->
<svg width="1162pt" height="93pt"
 viewBox="0.00 0.00 1161.50 93.00" xmlns="http://www.w3.org/2000/svg" xmlns:xlink="http://www.w3.org/1999/xlink">
<g id="graph0" class="graph" transform="scale(1 1) rotate(0) translate(4 89)">
<title>express/WebAppT.h</title>
<!-- Node1 -->
<g id="Node000001" class="node">
<title>Node1</title>
<g id="a_Node000001"><a xlink:title=" ">
<polygon fill="#999999" stroke="#666666" points="635.5,-85 531.5,-85 531.5,-66 635.5,-66 635.5,-85"/>
<text text-anchor="middle" x="583.5" y="-73" font-family="Helvetica,sans-Serif" font-size="10.00">express/WebAppT.h</text>
</a>
</g>
</g>
<!-- Node2 -->
<g id="Node000002" class="node">
<title>Node2</title>
<g id="a_Node000002"><a xlink:href="legacy_2in_2WebApp_8h.html" target="_top" xlink:title=" ">
<polygon fill="white" stroke="#666666" points="141,-24.5 0,-24.5 0,-5.5 141,-5.5 141,-24.5"/>
<text text-anchor="middle" x="70.5" y="-12.5" font-family="Helvetica,sans-Serif" font-size="10.00">express/legacy/in/WebApp.h</text>
</a>
</g>
</g>
<!-- Node1&#45;&gt;Node2 -->
<g id="edge1_Node000001_Node000002" class="edge">
<title>Node1&#45;&gt;Node2</title>
<g id="a_edge1_Node000001_Node000002"><a xlink:title=" ">
<path fill="none" stroke="#63b8ff" d="M521.2,-69.49C436.92,-62.4 282,-48.24 150.5,-30 139.33,-28.45 127.32,-26.5 116.1,-24.56"/>
<polygon fill="#63b8ff" stroke="#63b8ff" points="521.11,-73 531.37,-70.34 521.69,-66.02 521.11,-73"/>
</a>
</g>
</g>
<!-- Node3 -->
<g id="Node000003" class="node">
<title>Node3</title>
<g id="a_Node000003"><a xlink:href="legacy_2in6_2WebApp_8h.html" target="_top" xlink:title=" ">
<polygon fill="white" stroke="#666666" points="257.5,-30 159.5,-30 159.5,0 257.5,0 257.5,-30"/>
<text text-anchor="start" x="167.5" y="-18" font-family="Helvetica,sans-Serif" font-size="10.00">express/legacy/in6</text>
<text text-anchor="middle" x="208.5" y="-7" font-family="Helvetica,sans-Serif" font-size="10.00">/WebApp.h</text>
</a>
</g>
</g>
<!-- Node1&#45;&gt;Node3 -->
<g id="edge2_Node000001_Node000003" class="edge">
<title>Node1&#45;&gt;Node3</title>
<g id="a_edge2_Node000001_Node000003"><a xlink:title=" ">
<path fill="none" stroke="#63b8ff" d="M521.4,-67.6C457.28,-60.04 354.47,-46.75 266.5,-30 263.65,-29.46 260.73,-28.87 257.79,-28.24"/>
<polygon fill="#63b8ff" stroke="#63b8ff" points="521.02,-71.07 531.36,-68.76 521.83,-64.12 521.02,-71.07"/>
</a>
</g>
</g>
<!-- Node4 -->
<g id="Node000004" class="node">
<title>Node4</title>
<g id="a_Node000004"><a xlink:href="legacy_2rc_2WebApp_8h.html" target="_top" xlink:title=" ">
<polygon fill="white" stroke="#666666" points="417.5,-24.5 275.5,-24.5 275.5,-5.5 417.5,-5.5 417.5,-24.5"/>
<text text-anchor="middle" x="346.5" y="-12.5" font-family="Helvetica,sans-Serif" font-size="10.00">express/legacy/rc/WebApp.h</text>
</a>
</g>
</g>
<!-- Node1&#45;&gt;Node4 -->
<g id="edge3_Node000001_Node000004" class="edge">
<title>Node1&#45;&gt;Node4</title>
<g id="a_edge3_Node000001_Node000004"><a xlink:title=" ">
<path fill="none" stroke="#63b8ff" d="M539.09,-63.54C493.28,-52.23 422.8,-34.83 381,-24.52"/>
<polygon fill="#63b8ff" stroke="#63b8ff" points="538.49,-67 549.04,-65.99 540.17,-60.2 538.49,-67"/>
</a>
</g>
</g>
<!-- Node5 -->
<g id="Node000005" class="node">
<title>Node5</title>
<g id="a_Node000005"><a xlink:href="legacy_2un_2WebApp_8h.html" target="_top" xlink:title=" ">
<polygon fill="white" stroke="#666666" points="579.5,-24.5 435.5,-24.5 435.5,-5.5 579.5,-5.5 579.5,-24.5"/>
<text text-anchor="middle" x="507.5" y="-12.5" font-family="Helvetica,sans-Serif" font-size="10.00">express/legacy/un/WebApp.h</text>
</a>
</g>
</g>
<!-- Node1&#45;&gt;Node5 -->
<g id="edge4_Node000001_Node000005" class="edge">
<title>Node1&#45;&gt;Node5</title>
<g id="a_edge4_Node000001_Node000005"><a xlink:title=" ">
<path fill="none" stroke="#63b8ff" d="M564.06,-59.54C549.71,-48.49 530.68,-33.84 518.76,-24.67"/>
<polygon fill="#63b8ff" stroke="#63b8ff" points="562.23,-62.54 572.29,-65.87 566.5,-56.99 562.23,-62.54"/>
</a>
</g>
</g>
<!-- Node6 -->
<g id="Node000006" class="node">
<title>Node6</title>
<g id="a_Node000006"><a xlink:href="tls_2in_2WebApp_8h.html" target="_top" xlink:title=" ">
<polygon fill="white" stroke="#666666" points="721,-24.5 598,-24.5 598,-5.5 721,-5.5 721,-24.5"/>
<text text-anchor="middle" x="659.5" y="-12.5" font-family="Helvetica,sans-Serif" font-size="10.00">express/tls/in/WebApp.h</text>
</a>
</g>
</g>
<!-- Node1&#45;&gt;Node6 -->
<g id="edge5_Node000001_Node000006" class="edge">
<title>Node1&#45;&gt;Node6</title>
<g id="a_edge5_Node000001_Node000006"><a xlink:title=" ">
<path fill="none" stroke="#63b8ff" d="M602.94,-59.54C617.29,-48.49 636.32,-33.84 648.24,-24.67"/>
<polygon fill="#63b8ff" stroke="#63b8ff" points="600.5,-56.99 594.71,-65.87 604.77,-62.54 600.5,-56.99"/>
</a>
</g>
</g>
<!-- Node7 -->
<g id="Node000007" class="node">
<title>Node7</title>
<g id="a_Node000007"><a xlink:href="tls_2in6_2WebApp_8h.html" target="_top" xlink:title=" ">
<polygon fill="white" stroke="#666666" points="867.5,-24.5 739.5,-24.5 739.5,-5.5 867.5,-5.5 867.5,-24.5"/>
<text text-anchor="middle" x="803.5" y="-12.5" font-family="Helvetica,sans-Serif" font-size="10.00">express/tls/in6/WebApp.h</text>
</a>
</g>
</g>
<!-- Node1&#45;&gt;Node7 -->
<g id="edge6_Node000001_Node000007" class="edge">
<title>Node1&#45;&gt;Node7</title>
<g id="a_edge6_Node000001_Node000007"><a xlink:title=" ">
<path fill="none" stroke="#63b8ff" d="M625.26,-63.4C667.8,-52.08 732.84,-34.79 771.47,-24.52"/>
<polygon fill="#63b8ff" stroke="#63b8ff" points="624.25,-60.04 615.49,-65.99 626.05,-66.81 624.25,-60.04"/>
</a>
</g>
</g>
<!-- Node8 -->
<g id="Node000008" class="node">
<title>Node8</title>
<g id="a_Node000008"><a xlink:href="tls_2rc_2WebApp_8h.html" target="_top" xlink:title=" ">
<polygon fill="white" stroke="#666666" points="1009.5,-24.5 885.5,-24.5 885.5,-5.5 1009.5,-5.5 1009.5,-24.5"/>
<text text-anchor="middle" x="947.5" y="-12.5" font-family="Helvetica,sans-Serif" font-size="10.00">express/tls/rc/WebApp.h</text>
</a>
</g>
</g>
<!-- Node1&#45;&gt;Node8 -->
<g id="edge7_Node000001_Node000008" class="edge">
<title>Node1&#45;&gt;Node8</title>
<g id="a_edge7_Node000001_Node000008"><a xlink:title=" ">
<path fill="none" stroke="#63b8ff" d="M645.72,-65.86C705.12,-57.42 797.08,-43.85 876.5,-30 886.03,-28.34 896.25,-26.41 905.88,-24.52"/>
<polygon fill="#63b8ff" stroke="#63b8ff" points="645.16,-62.4 635.75,-67.27 646.14,-69.34 645.16,-62.4"/>
</a>
</g>
</g>
<!-- Node9 -->
<g id="Node000009" class="node">
<title>Node9</title>
<g id="a_Node000009"><a xlink:href="tls_2un_2WebApp_8h.html" target="_top" xlink:title=" ">
<polygon fill="white" stroke="#666666" points="1153.5,-24.5 1027.5,-24.5 1027.5,-5.5 1153.5,-5.5 1153.5,-24.5"/>
<text text-anchor="middle" x="1090.5" y="-12.5" font-family="Helvetica,sans-Serif" font-size="10.00">express/tls/un/WebApp.h</text>
</a>
</g>
</g>
<!-- Node1&#45;&gt;Node9 -->
<g id="edge8_Node000001_Node000009" class="edge">
<title>Node1&#45;&gt;Node9</title>
<g id="a_edge8_Node000001_Node000009"><a xlink:title=" ">
<path fill="none" stroke="#63b8ff" d="M645.8,-69.9C730.44,-63.25 886.4,-49.56 1018.5,-30 1028.7,-28.49 1039.66,-26.53 1049.87,-24.56"/>
<polygon fill="#63b8ff" stroke="#63b8ff" points="645.28,-66.43 635.58,-70.7 645.82,-73.41 645.28,-66.43"/>
</a>
</g>
</g>
</g>
</svg>
