<?xml version="1.0" encoding="UTF-8" standalone="no"?>
<!DOCTYPE svg PUBLIC "-//W3C//DTD SVG 1.1//EN"
 "http://www.w3.org/Graphics/SVG/1.1/DTD/svg11.dtd">
<!-- Generated by graphviz version 2.42.4 (0)
 -->
<!-- Title: web/websocket/client/SocketContextUpgradeFactory.cpp Pages: 1 -->
<svg width="1079pt" height="434pt"
 viewBox="0.00 0.00 1078.50 434.00" xmlns="http://www.w3.org/2000/svg" xmlns:xlink="http://www.w3.org/1999/xlink">
<g id="graph0" class="graph" transform="scale(1 1) rotate(0) translate(4 430)">
<title>web/websocket/client/SocketContextUpgradeFactory.cpp</title>
<!-- Node1 -->
<g id="Node000001" class="node">
<title>Node1</title>
<g id="a_Node000001"><a xlink:title=" ">
<polygon fill="#999999" stroke="#666666" points="754,-426 568,-426 568,-396 754,-396 754,-426"/>
<text text-anchor="start" x="576" y="-414" font-family="Helvetica,sans-Serif" font-size="10.00">web/websocket/client</text>
<text text-anchor="middle" x="661" y="-403" font-family="Helvetica,sans-Serif" font-size="10.00">/SocketContextUpgradeFactory.cpp</text>
</a>
</g>
</g>
<!-- Node2 -->
<g id="Node000002" class="node">
<title>Node2</title>
<g id="a_Node000002"><a xlink:href="websocket_2client_2SocketContextUpgradeFactory_8h.html" target="_top" xlink:title=" ">
<polygon fill="white" stroke="#666666" points="469.5,-360 294.5,-360 294.5,-330 469.5,-330 469.5,-360"/>
<text text-anchor="start" x="302.5" y="-348" font-family="Helvetica,sans-Serif" font-size="10.00">web/websocket/client</text>
<text text-anchor="middle" x="382" y="-337" font-family="Helvetica,sans-Serif" font-size="10.00">/SocketContextUpgradeFactory.h</text>
</a>
</g>
</g>
<!-- Node1&#45;&gt;Node2 -->
<g id="edge1_Node000001_Node000002" class="edge">
<title>Node1&#45;&gt;Node2</title>
<g id="a_edge1_Node000001_Node000002"><a xlink:title=" ">
<path fill="none" stroke="#63b8ff" d="M599.77,-395.95C556.43,-386.01 498.19,-372.65 452.85,-362.25"/>
<polygon fill="#63b8ff" stroke="#63b8ff" points="453.61,-358.84 443.08,-360.01 452.05,-365.66 453.61,-358.84"/>
</a>
</g>
</g>
<!-- Node18 -->
<g id="Node000018" class="node">
<title>Node18</title>
<g id="a_Node000018"><a xlink:href="web_2http_2client_2Request_8h.html" target="_top" xlink:title=" ">
<polygon fill="white" stroke="#666666" points="731.5,-354.5 590.5,-354.5 590.5,-335.5 731.5,-335.5 731.5,-354.5"/>
<text text-anchor="middle" x="661" y="-342.5" font-family="Helvetica,sans-Serif" font-size="10.00">web/http/client/Request.h</text>
</a>
</g>
</g>
<!-- Node1&#45;&gt;Node18 -->
<g id="edge18_Node000001_Node000018" class="edge">
<title>Node1&#45;&gt;Node18</title>
<g id="a_edge18_Node000001_Node000018"><a xlink:title=" ">
<path fill="none" stroke="#63b8ff" d="M661,-395.8C661,-386.7 661,-374.79 661,-364.9"/>
<polygon fill="#63b8ff" stroke="#63b8ff" points="664.5,-364.84 661,-354.84 657.5,-364.84 664.5,-364.84"/>
</a>
</g>
</g>
<!-- Node22 -->
<g id="Node000022" class="node">
<title>Node22</title>
<g id="a_Node000022"><a xlink:href="web_2http_2client_2Response_8h.html" target="_top" xlink:title=" ">
<polygon fill="white" stroke="#666666" points="907.5,-354.5 758.5,-354.5 758.5,-335.5 907.5,-335.5 907.5,-354.5"/>
<text text-anchor="middle" x="833" y="-342.5" font-family="Helvetica,sans-Serif" font-size="10.00">web/http/client/Response.h</text>
</a>
</g>
</g>
<!-- Node1&#45;&gt;Node22 -->
<g id="edge22_Node000001_Node000022" class="edge">
<title>Node1&#45;&gt;Node22</title>
<g id="a_edge22_Node000001_Node000022"><a xlink:title=" ">
<path fill="none" stroke="#63b8ff" d="M698.75,-395.95C729.18,-384.63 771.52,-368.88 800.47,-358.1"/>
<polygon fill="#63b8ff" stroke="#63b8ff" points="801.96,-361.28 810.11,-354.52 799.52,-354.72 801.96,-361.28"/>
</a>
</g>
</g>
<!-- Node3 -->
<g id="Node000003" class="node">
<title>Node3</title>
<g id="a_Node000003"><a xlink:href="http_2client_2SocketContextUpgradeFactory_8h.html" target="_top" xlink:title=" ">
<polygon fill="white" stroke="#666666" points="250.5,-228 87.5,-228 87.5,-198 250.5,-198 250.5,-228"/>
<text text-anchor="start" x="95.5" y="-216" font-family="Helvetica,sans-Serif" font-size="10.00">web/http/client/SocketContext</text>
<text text-anchor="middle" x="169" y="-205" font-family="Helvetica,sans-Serif" font-size="10.00">UpgradeFactory.h</text>
</a>
</g>
</g>
<!-- Node2&#45;&gt;Node3 -->
<g id="edge2_Node000002_Node000003" class="edge">
<title>Node2&#45;&gt;Node3</title>
<g id="a_edge2_Node000002_Node000003"><a xlink:title=" ">
<path fill="none" stroke="#63b8ff" d="M358.8,-329.84C320.55,-306.49 244.18,-259.88 200.88,-233.46"/>
<polygon fill="#63b8ff" stroke="#63b8ff" points="202.53,-230.36 192.17,-228.14 198.88,-236.34 202.53,-230.36"/>
</a>
</g>
</g>
<!-- Node6 -->
<g id="Node000006" class="node">
<title>Node6</title>
<g id="a_Node000006"><a xlink:href="websocket_2client_2SocketContextUpgrade_8h.html" target="_top" xlink:title=" ">
<polygon fill="white" stroke="#666666" points="452,-294 312,-294 312,-264 452,-264 452,-294"/>
<text text-anchor="start" x="320" y="-282" font-family="Helvetica,sans-Serif" font-size="10.00">web/websocket/client</text>
<text text-anchor="middle" x="382" y="-271" font-family="Helvetica,sans-Serif" font-size="10.00">/SocketContextUpgrade.h</text>
</a>
</g>
</g>
<!-- Node2&#45;&gt;Node6 -->
<g id="edge5_Node000002_Node000006" class="edge">
<title>Node2&#45;&gt;Node6</title>
<g id="a_edge5_Node000002_Node000006"><a xlink:title=" ">
<path fill="none" stroke="#63b8ff" d="M382,-329.8C382,-322.34 382,-312.99 382,-304.41"/>
<polygon fill="#63b8ff" stroke="#63b8ff" points="385.5,-304.16 382,-294.16 378.5,-304.16 385.5,-304.16"/>
</a>
</g>
</g>
<!-- Node4 -->
<g id="Node000004" class="node">
<title>Node4</title>
<g id="a_Node000004"><a xlink:href="http_2SocketContextUpgradeFactory_8h.html" target="_top" xlink:title=" ">
<polygon fill="white" stroke="#666666" points="174,-96 0,-96 0,-66 174,-66 174,-96"/>
<text text-anchor="start" x="8" y="-84" font-family="Helvetica,sans-Serif" font-size="10.00">web/http/SocketContextUpgrade</text>
<text text-anchor="middle" x="87" y="-73" font-family="Helvetica,sans-Serif" font-size="10.00">Factory.h</text>
</a>
</g>
</g>
<!-- Node3&#45;&gt;Node4 -->
<g id="edge3_Node000003_Node000004" class="edge">
<title>Node3&#45;&gt;Node4</title>
<g id="a_edge3_Node000003_Node000004"><a xlink:title=" ">
<path fill="none" stroke="#63b8ff" d="M155.15,-197.92C146.16,-188.31 134.56,-175.01 126,-162 114.18,-144.04 103.69,-121.97 96.58,-105.57"/>
<polygon fill="#63b8ff" stroke="#63b8ff" points="99.72,-104.02 92.6,-96.17 93.27,-106.75 99.72,-104.02"/>
</a>
</g>
</g>
<!-- Node5 -->
<g id="Node000005" class="node">
<title>Node5</title>
<g id="a_Node000005"><a xlink:href="core_2socket_2stream_2SocketContextFactory_8h.html" target="_top" xlink:title=" ">
<polygon fill="white" stroke="#666666" points="153,-30 19,-30 19,0 153,0 153,-30"/>
<text text-anchor="start" x="27" y="-18" font-family="Helvetica,sans-Serif" font-size="10.00">core/socket/stream</text>
<text text-anchor="middle" x="86" y="-7" font-family="Helvetica,sans-Serif" font-size="10.00">/SocketContextFactory.h</text>
</a>
</g>
</g>
<!-- Node4&#45;&gt;Node5 -->
<g id="edge4_Node000004_Node000005" class="edge">
<title>Node4&#45;&gt;Node5</title>
<g id="a_edge4_Node000004_Node000005"><a xlink:title=" ">
<path fill="none" stroke="#63b8ff" d="M86.78,-65.8C86.66,-58.34 86.52,-48.99 86.38,-40.41"/>
<polygon fill="#63b8ff" stroke="#63b8ff" points="89.88,-40.11 86.22,-30.16 82.88,-40.22 89.88,-40.11"/>
</a>
</g>
</g>
<!-- Node7 -->
<g id="Node000007" class="node">
<title>Node7</title>
<g id="a_Node000007"><a xlink:href="websocket_2SocketContextUpgrade_8h.html" target="_top" xlink:title=" ">
<polygon fill="white" stroke="#666666" points="464.5,-228 299.5,-228 299.5,-198 464.5,-198 464.5,-228"/>
<text text-anchor="start" x="307.5" y="-216" font-family="Helvetica,sans-Serif" font-size="10.00">web/websocket/SocketContext</text>
<text text-anchor="middle" x="382" y="-205" font-family="Helvetica,sans-Serif" font-size="10.00">Upgrade.h</text>
</a>
</g>
</g>
<!-- Node6&#45;&gt;Node7 -->
<g id="edge6_Node000006_Node000007" class="edge">
<title>Node6&#45;&gt;Node7</title>
<g id="a_edge6_Node000006_Node000007"><a xlink:title=" ">
<path fill="none" stroke="#63b8ff" d="M382,-263.8C382,-256.34 382,-246.99 382,-238.41"/>
<polygon fill="#63b8ff" stroke="#63b8ff" points="385.5,-238.16 382,-228.16 378.5,-238.16 385.5,-238.16"/>
</a>
</g>
</g>
<!-- Node14 -->
<g id="Node000014" class="node">
<title>Node14</title>
<g id="a_Node000014"><a xlink:href="web_2websocket_2client_2SubProtocol_8h.html" target="_top" xlink:title=" ">
<polygon fill="white" stroke="#666666" points="627,-228 505,-228 505,-198 627,-198 627,-228"/>
<text text-anchor="start" x="513" y="-216" font-family="Helvetica,sans-Serif" font-size="10.00">web/websocket/client</text>
<text text-anchor="middle" x="566" y="-205" font-family="Helvetica,sans-Serif" font-size="10.00">/SubProtocol.h</text>
</a>
</g>
</g>
<!-- Node6&#45;&gt;Node14 -->
<g id="edge14_Node000006_Node000014" class="edge">
<title>Node6&#45;&gt;Node14</title>
<g id="a_edge14_Node000006_Node000014"><a xlink:title=" ">
<path fill="none" stroke="#63b8ff" d="M422.38,-263.95C449.94,-254.37 486.64,-241.6 516.05,-231.37"/>
<polygon fill="#63b8ff" stroke="#63b8ff" points="517.42,-234.6 525.71,-228.01 515.12,-227.99 517.42,-234.6"/>
</a>
</g>
</g>
<!-- Node8 -->
<g id="Node000008" class="node">
<title>Node8</title>
<g id="a_Node000008"><a xlink:href="http_2SocketContextUpgrade_8h.html" target="_top" xlink:title=" ">
<polygon fill="white" stroke="#666666" points="318.5,-156.5 135.5,-156.5 135.5,-137.5 318.5,-137.5 318.5,-156.5"/>
<text text-anchor="middle" x="227" y="-144.5" font-family="Helvetica,sans-Serif" font-size="10.00">web/http/SocketContextUpgrade.h</text>
</a>
</g>
</g>
<!-- Node7&#45;&gt;Node8 -->
<g id="edge7_Node000007_Node000008" class="edge">
<title>Node7&#45;&gt;Node8</title>
<g id="a_edge7_Node000007_Node000008"><a xlink:title=" ">
<path fill="none" stroke="#63b8ff" d="M347.98,-197.95C320.8,-186.73 283.07,-171.15 257,-160.39"/>
<polygon fill="#63b8ff" stroke="#63b8ff" points="258.21,-157.1 247.63,-156.52 255.54,-163.57 258.21,-157.1"/>
</a>
</g>
</g>
<!-- Node11 -->
<g id="Node000011" class="node">
<title>Node11</title>
<g id="a_Node000011"><a xlink:href="SubProtocolContext_8h.html" target="_top" xlink:title=" ">
<polygon fill="white" stroke="#666666" points="489,-162 337,-162 337,-132 489,-132 489,-162"/>
<text text-anchor="start" x="345" y="-150" font-family="Helvetica,sans-Serif" font-size="10.00">web/websocket/SubProtocol</text>
<text text-anchor="middle" x="413" y="-139" font-family="Helvetica,sans-Serif" font-size="10.00">Context.h</text>
</a>
</g>
</g>
<!-- Node7&#45;&gt;Node11 -->
<g id="edge11_Node000007_Node000011" class="edge">
<title>Node7&#45;&gt;Node11</title>
<g id="a_edge11_Node000007_Node000011"><a xlink:title=" ">
<path fill="none" stroke="#63b8ff" d="M388.88,-197.8C392.65,-190.01 397.42,-180.16 401.73,-171.28"/>
<polygon fill="#63b8ff" stroke="#63b8ff" points="404.93,-172.69 406.14,-162.16 398.63,-169.64 404.93,-172.69"/>
</a>
</g>
</g>
<!-- Node8&#45;&gt;Node4 -->
<g id="edge10_Node000008_Node000004" class="edge">
<title>Node8&#45;&gt;Node4</title>
<g id="a_edge10_Node000008_Node000004"><a xlink:title=" ">
<path fill="none" stroke="#63b8ff" d="M208.12,-137.37C187.51,-127.95 153.91,-112.59 127.32,-100.43"/>
<polygon fill="#63b8ff" stroke="#63b8ff" points="128.43,-97.09 117.88,-96.12 125.52,-103.46 128.43,-97.09"/>
</a>
</g>
</g>
<!-- Node9 -->
<g id="Node000009" class="node">
<title>Node9</title>
<g id="a_Node000009"><a xlink:href="core_2socket_2stream_2SocketContext_8h.html" target="_top" xlink:title=" ">
<polygon fill="white" stroke="#666666" points="302,-96 192,-96 192,-66 302,-66 302,-96"/>
<text text-anchor="start" x="200" y="-84" font-family="Helvetica,sans-Serif" font-size="10.00">core/socket/stream</text>
<text text-anchor="middle" x="247" y="-73" font-family="Helvetica,sans-Serif" font-size="10.00">/SocketContext.h</text>
</a>
</g>
</g>
<!-- Node8&#45;&gt;Node9 -->
<g id="edge8_Node000008_Node000009" class="edge">
<title>Node8&#45;&gt;Node9</title>
<g id="a_edge8_Node000008_Node000009"><a xlink:title=" ">
<path fill="none" stroke="#63b8ff" d="M229.7,-137.37C232.21,-129.32 236.08,-116.94 239.52,-105.93"/>
<polygon fill="#63b8ff" stroke="#63b8ff" points="242.87,-106.95 242.51,-96.36 236.19,-104.86 242.87,-106.95"/>
</a>
</g>
</g>
<!-- Node10 -->
<g id="Node000010" class="node">
<title>Node10</title>
<g id="a_Node000010"><a xlink:href="core_2socket_2SocketContext_8h.html" target="_top" xlink:title=" ">
<polygon fill="white" stroke="#666666" points="326.5,-24.5 171.5,-24.5 171.5,-5.5 326.5,-5.5 326.5,-24.5"/>
<text text-anchor="middle" x="249" y="-12.5" font-family="Helvetica,sans-Serif" font-size="10.00">core/socket/SocketContext.h</text>
</a>
</g>
</g>
<!-- Node9&#45;&gt;Node10 -->
<g id="edge9_Node000009_Node000010" class="edge">
<title>Node9&#45;&gt;Node10</title>
<g id="a_edge9_Node000009_Node000010"><a xlink:title=" ">
<path fill="none" stroke="#63b8ff" d="M247.44,-65.8C247.73,-56.7 248.1,-44.79 248.41,-34.9"/>
<polygon fill="#63b8ff" stroke="#63b8ff" points="251.91,-34.95 248.72,-24.84 244.91,-34.73 251.91,-34.95"/>
</a>
</g>
</g>
<!-- Node12 -->
<g id="Node000012" class="node">
<title>Node12</title>
<g id="a_Node000012"><a xlink:href="Receiver_8h.html" target="_top" xlink:title=" ">
<polygon fill="white" stroke="#666666" points="466,-90.5 320,-90.5 320,-71.5 466,-71.5 466,-90.5"/>
<text text-anchor="middle" x="393" y="-78.5" font-family="Helvetica,sans-Serif" font-size="10.00">web/websocket/Receiver.h</text>
</a>
</g>
</g>
<!-- Node11&#45;&gt;Node12 -->
<g id="edge12_Node000011_Node000012" class="edge">
<title>Node11&#45;&gt;Node12</title>
<g id="a_edge12_Node000011_Node000012"><a xlink:title=" ">
<path fill="none" stroke="#63b8ff" d="M408.56,-131.8C405.69,-122.6 401.92,-110.53 398.81,-100.58"/>
<polygon fill="#63b8ff" stroke="#63b8ff" points="402.09,-99.35 395.76,-90.84 395.41,-101.43 402.09,-99.35"/>
</a>
</g>
</g>
<!-- Node13 -->
<g id="Node000013" class="node">
<title>Node13</title>
<g id="a_Node000013"><a xlink:href="Transmitter_8h.html" target="_top" xlink:title=" ">
<polygon fill="white" stroke="#666666" points="644,-90.5 484,-90.5 484,-71.5 644,-71.5 644,-90.5"/>
<text text-anchor="middle" x="564" y="-78.5" font-family="Helvetica,sans-Serif" font-size="10.00">web/websocket/Transmitter.h</text>
</a>
</g>
</g>
<!-- Node11&#45;&gt;Node13 -->
<g id="edge13_Node000011_Node000013" class="edge">
<title>Node11&#45;&gt;Node13</title>
<g id="a_edge13_Node000011_Node000013"><a xlink:title=" ">
<path fill="none" stroke="#63b8ff" d="M446.14,-131.95C472.5,-120.78 509.06,-105.29 534.44,-94.53"/>
<polygon fill="#63b8ff" stroke="#63b8ff" points="536.06,-97.64 543.9,-90.52 533.33,-91.2 536.06,-97.64"/>
</a>
</g>
</g>
<!-- Node15 -->
<g id="Node000015" class="node">
<title>Node15</title>
<g id="a_Node000015"><a xlink:href="web_2websocket_2SubProtocol_8h.html" target="_top" xlink:title=" ">
<polygon fill="white" stroke="#666666" points="742.5,-156.5 581.5,-156.5 581.5,-137.5 742.5,-137.5 742.5,-156.5"/>
<text text-anchor="middle" x="662" y="-144.5" font-family="Helvetica,sans-Serif" font-size="10.00">web/websocket/SubProtocol.h</text>
</a>
</g>
</g>
<!-- Node14&#45;&gt;Node15 -->
<g id="edge15_Node000014_Node000015" class="edge">
<title>Node14&#45;&gt;Node15</title>
<g id="a_edge15_Node000014_Node000015"><a xlink:title=" ">
<path fill="none" stroke="#63b8ff" d="M587.31,-197.8C603.1,-187.27 624.54,-172.97 640.4,-162.4"/>
<polygon fill="#63b8ff" stroke="#63b8ff" points="642.63,-165.12 649.01,-156.66 638.75,-159.29 642.63,-165.12"/>
</a>
</g>
</g>
<!-- Node16 -->
<g id="Node000016" class="node">
<title>Node16</title>
<g id="a_Node000016"><a xlink:href="timer_2Timer_8h.html" target="_top" xlink:title=" ">
<polygon fill="white" stroke="#666666" points="769.5,-90.5 662.5,-90.5 662.5,-71.5 769.5,-71.5 769.5,-90.5"/>
<text text-anchor="middle" x="716" y="-78.5" font-family="Helvetica,sans-Serif" font-size="10.00">core/timer/Timer.h</text>
</a>
</g>
</g>
<!-- Node15&#45;&gt;Node16 -->
<g id="edge16_Node000015_Node000016" class="edge">
<title>Node15&#45;&gt;Node16</title>
<g id="a_edge16_Node000015_Node000016"><a xlink:title=" ">
<path fill="none" stroke="#63b8ff" d="M669.28,-137.37C677.61,-127.5 691.44,-111.11 701.89,-98.72"/>
<polygon fill="#63b8ff" stroke="#63b8ff" points="704.71,-100.81 708.49,-90.91 699.36,-96.29 704.71,-100.81"/>
</a>
</g>
</g>
<!-- Node17 -->
<g id="Node000017" class="node">
<title>Node17</title>
<g id="a_Node000017"><a xlink:href="Timer_8h.html" target="_top" xlink:title=" ">
<polygon fill="white" stroke="#666666" points="754.5,-24.5 677.5,-24.5 677.5,-5.5 754.5,-5.5 754.5,-24.5"/>
<text text-anchor="middle" x="716" y="-12.5" font-family="Helvetica,sans-Serif" font-size="10.00">core/Timer.h</text>
</a>
</g>
</g>
<!-- Node16&#45;&gt;Node17 -->
<g id="edge17_Node000016_Node000017" class="edge">
<title>Node16&#45;&gt;Node17</title>
<g id="a_edge17_Node000016_Node000017"><a xlink:title=" ">
<path fill="none" stroke="#63b8ff" d="M716,-71.37C716,-62.16 716,-47.29 716,-35.27"/>
<polygon fill="#63b8ff" stroke="#63b8ff" points="719.5,-34.91 716,-24.91 712.5,-34.91 719.5,-34.91"/>
</a>
</g>
</g>
<!-- Node19 -->
<g id="Node000019" class="node">
<title>Node19</title>
<g id="a_Node000019"><a xlink:href="Sink_8h.html" target="_top" xlink:title=" ">
<polygon fill="white" stroke="#666666" points="565.5,-288.5 470.5,-288.5 470.5,-269.5 565.5,-269.5 565.5,-288.5"/>
<text text-anchor="middle" x="518" y="-276.5" font-family="Helvetica,sans-Serif" font-size="10.00">core/pipe/Sink.h</text>
</a>
</g>
</g>
<!-- Node18&#45;&gt;Node19 -->
<g id="edge19_Node000018_Node000019" class="edge">
<title>Node18&#45;&gt;Node19</title>
<g id="a_edge19_Node000018_Node000019"><a xlink:title=" ">
<path fill="none" stroke="#63b8ff" d="M641.71,-335.37C617.3,-324.44 575.03,-305.52 546.79,-292.88"/>
<polygon fill="#63b8ff" stroke="#63b8ff" points="547.99,-289.59 537.44,-288.7 545.13,-295.98 547.99,-289.59"/>
</a>
</g>
</g>
<!-- Node20 -->
<g id="Node000020" class="node">
<title>Node20</title>
<g id="a_Node000020"><a xlink:href="ConnectionState_8h.html" target="_top" xlink:title=" ">
<polygon fill="white" stroke="#666666" points="909,-288.5 757,-288.5 757,-269.5 909,-269.5 909,-288.5"/>
<text text-anchor="middle" x="833" y="-276.5" font-family="Helvetica,sans-Serif" font-size="10.00">web/http/ConnectionState.h</text>
</a>
</g>
</g>
<!-- Node18&#45;&gt;Node20 -->
<g id="edge20_Node000018_Node000020" class="edge">
<title>Node18&#45;&gt;Node20</title>
<g id="a_edge20_Node000018_Node000020"><a xlink:title=" ">
<path fill="none" stroke="#63b8ff" d="M684.2,-335.37C714.16,-324.22 766.48,-304.75 800.42,-292.12"/>
<polygon fill="#63b8ff" stroke="#63b8ff" points="801.75,-295.36 809.9,-288.6 799.3,-288.8 801.75,-295.36"/>
</a>
</g>
</g>
<!-- Node21 -->
<g id="Node000021" class="node">
<title>Node21</title>
<g id="a_Node000021"><a xlink:href="TransferEncoding_8h.html" target="_top" xlink:title=" ">
<polygon fill="white" stroke="#666666" points="738.5,-288.5 583.5,-288.5 583.5,-269.5 738.5,-269.5 738.5,-288.5"/>
<text text-anchor="middle" x="661" y="-276.5" font-family="Helvetica,sans-Serif" font-size="10.00">web/http/TransferEncoding.h</text>
</a>
</g>
</g>
<!-- Node18&#45;&gt;Node21 -->
<g id="edge21_Node000018_Node000021" class="edge">
<title>Node18&#45;&gt;Node21</title>
<g id="a_edge21_Node000018_Node000021"><a xlink:title=" ">
<path fill="none" stroke="#63b8ff" d="M661,-335.37C661,-326.16 661,-311.29 661,-299.27"/>
<polygon fill="#63b8ff" stroke="#63b8ff" points="664.5,-298.91 661,-288.91 657.5,-298.91 664.5,-298.91"/>
</a>
</g>
</g>
<!-- Node22&#45;&gt;Node20 -->
<g id="edge23_Node000022_Node000020" class="edge">
<title>Node22&#45;&gt;Node20</title>
<g id="a_edge23_Node000022_Node000020"><a xlink:title=" ">
<path fill="none" stroke="#63b8ff" d="M833,-335.37C833,-326.16 833,-311.29 833,-299.27"/>
<polygon fill="#63b8ff" stroke="#63b8ff" points="836.5,-298.91 833,-288.91 829.5,-298.91 836.5,-298.91"/>
</a>
</g>
</g>
<!-- Node23 -->
<g id="Node000023" class="node">
<title>Node23</title>
<g id="a_Node000023"><a xlink:href="CookieOptions_8h.html" target="_top" xlink:title=" ">
<polygon fill="white" stroke="#666666" points="1070.5,-288.5 927.5,-288.5 927.5,-269.5 1070.5,-269.5 1070.5,-288.5"/>
<text text-anchor="middle" x="999" y="-276.5" font-family="Helvetica,sans-Serif" font-size="10.00">web/http/CookieOptions.h</text>
</a>
</g>
</g>
<!-- Node22&#45;&gt;Node23 -->
<g id="edge24_Node000022_Node000023" class="edge">
<title>Node22&#45;&gt;Node23</title>
<g id="a_edge24_Node000022_Node000023"><a xlink:title=" ">
<path fill="none" stroke="#63b8ff" d="M855.39,-335.37C884.18,-324.27 934.37,-304.92 967.14,-292.28"/>
<polygon fill="#63b8ff" stroke="#63b8ff" points="968.63,-295.46 976.7,-288.6 966.11,-288.93 968.63,-295.46"/>
</a>
</g>
</g>
</g>
</svg>
