<?xml version="1.0" encoding="UTF-8" standalone="no"?>
<!DOCTYPE svg PUBLIC "-//W3C//DTD SVG 1.1//EN"
 "http://www.w3.org/Graphics/SVG/1.1/DTD/svg11.dtd">
<!-- Generated by graphviz version 2.43.0 (0)
 -->
<!-- Title: web/websocket/server/SocketContextUpgradeFactory.cpp Pages: 1 -->
<svg width="840pt" height="434pt"
 viewBox="0.00 0.00 840.00 434.00" xmlns="http://www.w3.org/2000/svg" xmlns:xlink="http://www.w3.org/1999/xlink">
<g id="graph0" class="graph" transform="scale(1 1) rotate(0) translate(4 430)">
<title>web/websocket/server/SocketContextUpgradeFactory.cpp</title>
<!-- Node1 -->
<g id="Node000001" class="node">
<title>Node1</title>
<g id="a_Node000001"><a xlink:title=" ">
<polygon fill="#999999" stroke="#666666" points="503,-426 331,-426 331,-396 503,-396 503,-426"/>
<text text-anchor="start" x="339" y="-414" font-family="Helvetica,sans-Serif" font-size="10.00">web/websocket/server</text>
<text text-anchor="middle" x="417" y="-403" font-family="Helvetica,sans-Serif" font-size="10.00">/SocketContextUpgradeFactory.cpp</text>
</a>
</g>
</g>
<!-- Node2 -->
<g id="Node000002" class="node">
<title>Node2</title>
<g id="a_Node000002"><a xlink:href="websocket_2server_2SocketContextUpgradeFactory_8h.html" target="_top" xlink:title=" ">
<polygon fill="white" stroke="#666666" points="278.5,-360 117.5,-360 117.5,-330 278.5,-330 278.5,-360"/>
<text text-anchor="start" x="125.5" y="-348" font-family="Helvetica,sans-Serif" font-size="10.00">web/websocket/server</text>
<text text-anchor="middle" x="198" y="-337" font-family="Helvetica,sans-Serif" font-size="10.00">/SocketContextUpgradeFactory.h</text>
</a>
</g>
</g>
<!-- Node1&#45;&gt;Node2 -->
<g id="edge1_Node000001_Node000002" class="edge">
<title>Node1&#45;&gt;Node2</title>
<g id="a_edge1_Node000001_Node000002"><a xlink:title=" ">
<path fill="none" stroke="#63b8ff" d="M368.94,-395.95C335.56,-386.2 290.93,-373.16 255.64,-362.84"/>
<polygon fill="#63b8ff" stroke="#63b8ff" points="256.53,-359.46 245.95,-360.01 254.57,-366.18 256.53,-359.46"/>
</a>
</g>
</g>
<!-- Node14 -->
<g id="Node000014" class="node">
<title>Node14</title>
<g id="a_Node000014"><a xlink:href="http__utils_8h.html" target="_top" xlink:title=" ">
<polygon fill="white" stroke="#666666" points="401.5,-354.5 296.5,-354.5 296.5,-335.5 401.5,-335.5 401.5,-354.5"/>
<text text-anchor="middle" x="349" y="-342.5" font-family="Helvetica,sans-Serif" font-size="10.00">web/http/http_utils.h</text>
</a>
</g>
</g>
<!-- Node1&#45;&gt;Node14 -->
<g id="edge15_Node000001_Node000014" class="edge">
<title>Node1&#45;&gt;Node14</title>
<g id="a_edge15_Node000001_Node000014"><a xlink:title=" ">
<path fill="none" stroke="#63b8ff" d="M401.91,-395.8C391.2,-385.72 376.83,-372.19 365.77,-361.78"/>
<polygon fill="#63b8ff" stroke="#63b8ff" points="368.08,-359.15 358.4,-354.84 363.28,-364.25 368.08,-359.15"/>
</a>
</g>
</g>
<!-- Node15 -->
<g id="Node000015" class="node">
<title>Node15</title>
<g id="a_Node000015"><a xlink:href="web_2http_2server_2Request_8h.html" target="_top" xlink:title=" ">
<polygon fill="white" stroke="#666666" points="552,-354.5 420,-354.5 420,-335.5 552,-335.5 552,-354.5"/>
<text text-anchor="middle" x="486" y="-342.5" font-family="Helvetica,sans-Serif" font-size="10.00">web/http/server/Request.h</text>
</a>
</g>
</g>
<!-- Node1&#45;&gt;Node15 -->
<g id="edge16_Node000001_Node000015" class="edge">
<title>Node1&#45;&gt;Node15</title>
<g id="a_edge16_Node000001_Node000015"><a xlink:title=" ">
<path fill="none" stroke="#63b8ff" d="M432.31,-395.8C443.18,-385.72 457.76,-372.19 468.99,-361.78"/>
<polygon fill="#63b8ff" stroke="#63b8ff" points="471.51,-364.21 476.46,-354.84 466.75,-359.08 471.51,-364.21"/>
</a>
</g>
</g>
<!-- Node18 -->
<g id="Node000018" class="node">
<title>Node18</title>
<g id="a_Node000018"><a xlink:href="web_2http_2server_2Response_8h.html" target="_top" xlink:title=" ">
<polygon fill="white" stroke="#666666" points="710,-354.5 570,-354.5 570,-335.5 710,-335.5 710,-354.5"/>
<text text-anchor="middle" x="640" y="-342.5" font-family="Helvetica,sans-Serif" font-size="10.00">web/http/server/Response.h</text>
</a>
</g>
</g>
<!-- Node1&#45;&gt;Node18 -->
<g id="edge19_Node000001_Node000018" class="edge">
<title>Node1&#45;&gt;Node18</title>
<g id="a_edge19_Node000001_Node000018"><a xlink:title=" ">
<path fill="none" stroke="#63b8ff" d="M465.94,-395.95C506.25,-384.38 562.7,-368.18 600.26,-357.41"/>
<polygon fill="#63b8ff" stroke="#63b8ff" points="601.68,-360.64 610.32,-354.52 599.74,-353.91 601.68,-360.64"/>
</a>
</g>
</g>
<!-- Node3 -->
<g id="Node000003" class="node">
<title>Node3</title>
<g id="a_Node000003"><a xlink:href="http_2server_2SocketContextUpgradeFactory_8h.html" target="_top" xlink:title=" ">
<polygon fill="white" stroke="#666666" points="152,-162 0,-162 0,-132 152,-132 152,-162"/>
<text text-anchor="start" x="8" y="-150" font-family="Helvetica,sans-Serif" font-size="10.00">web/http/server/SocketContext</text>
<text text-anchor="middle" x="76" y="-139" font-family="Helvetica,sans-Serif" font-size="10.00">UpgradeFactory.h</text>
</a>
</g>
</g>
<!-- Node2&#45;&gt;Node3 -->
<g id="edge2_Node000002_Node000003" class="edge">
<title>Node2&#45;&gt;Node3</title>
<g id="a_edge2_Node000002_Node000003"><a xlink:title=" ">
<path fill="none" stroke="#63b8ff" d="M176.34,-329.87C163.82,-320.82 148.51,-308.15 138,-294 109.65,-255.83 91.34,-202.74 82.42,-172.22"/>
<polygon fill="#63b8ff" stroke="#63b8ff" points="85.74,-171.1 79.66,-162.42 79.01,-173 85.74,-171.1"/>
</a>
</g>
</g>
<!-- Node8 -->
<g id="Node000008" class="node">
<title>Node8</title>
<g id="a_Node000008"><a xlink:href="websocket_2server_2SocketContextUpgrade_8h.html" target="_top" xlink:title=" ">
<polygon fill="white" stroke="#666666" points="277,-294 147,-294 147,-264 277,-264 277,-294"/>
<text text-anchor="start" x="155" y="-282" font-family="Helvetica,sans-Serif" font-size="10.00">web/websocket/server</text>
<text text-anchor="middle" x="212" y="-271" font-family="Helvetica,sans-Serif" font-size="10.00">/SocketContextUpgrade.h</text>
</a>
</g>
</g>
<!-- Node2&#45;&gt;Node8 -->
<g id="edge7_Node000002_Node000008" class="edge">
<title>Node2&#45;&gt;Node8</title>
<g id="a_edge7_Node000002_Node000008"><a xlink:title=" ">
<path fill="none" stroke="#63b8ff" d="M201.11,-329.8C202.76,-322.26 204.83,-312.78 206.72,-304.13"/>
<polygon fill="#63b8ff" stroke="#63b8ff" points="210.18,-304.68 208.9,-294.16 203.35,-303.19 210.18,-304.68"/>
</a>
</g>
</g>
<!-- Node4 -->
<g id="Node000004" class="node">
<title>Node4</title>
<g id="a_Node000004"><a xlink:href="core_2socket_2stream_2SocketContext_8h.html" target="_top" xlink:title=" ">
<polygon fill="white" stroke="#666666" points="138.5,-96 37.5,-96 37.5,-66 138.5,-66 138.5,-96"/>
<text text-anchor="start" x="45.5" y="-84" font-family="Helvetica,sans-Serif" font-size="10.00">core/socket/stream</text>
<text text-anchor="middle" x="88" y="-73" font-family="Helvetica,sans-Serif" font-size="10.00">/SocketContext.h</text>
</a>
</g>
</g>
<!-- Node3&#45;&gt;Node4 -->
<g id="edge3_Node000003_Node000004" class="edge">
<title>Node3&#45;&gt;Node4</title>
<g id="a_edge3_Node000003_Node000004"><a xlink:title=" ">
<path fill="none" stroke="#63b8ff" d="M78.66,-131.8C80.08,-124.26 81.85,-114.78 83.48,-106.13"/>
<polygon fill="#63b8ff" stroke="#63b8ff" points="86.94,-106.64 85.34,-96.16 80.06,-105.35 86.94,-106.64"/>
</a>
</g>
</g>
<!-- Node6 -->
<g id="Node000006" class="node">
<title>Node6</title>
<g id="a_Node000006"><a xlink:href="http_2SocketContextUpgradeFactory_8h.html" target="_top" xlink:title=" ">
<polygon fill="white" stroke="#666666" points="326.5,-96 167.5,-96 167.5,-66 326.5,-66 326.5,-96"/>
<text text-anchor="start" x="175.5" y="-84" font-family="Helvetica,sans-Serif" font-size="10.00">web/http/SocketContextUpgrade</text>
<text text-anchor="middle" x="247" y="-73" font-family="Helvetica,sans-Serif" font-size="10.00">Factory.h</text>
</a>
</g>
</g>
<!-- Node3&#45;&gt;Node6 -->
<g id="edge5_Node000003_Node000006" class="edge">
<title>Node3&#45;&gt;Node6</title>
<g id="a_edge5_Node000003_Node000006"><a xlink:title=" ">
<path fill="none" stroke="#63b8ff" d="M113.53,-131.95C138.92,-122.45 172.66,-109.82 199.86,-99.64"/>
<polygon fill="#63b8ff" stroke="#63b8ff" points="201.42,-102.8 209.56,-96.01 198.97,-96.24 201.42,-102.8"/>
</a>
</g>
</g>
<!-- Node5 -->
<g id="Node000005" class="node">
<title>Node5</title>
<g id="a_Node000005"><a xlink:href="core_2socket_2SocketContext_8h.html" target="_top" xlink:title=" ">
<polygon fill="white" stroke="#666666" points="160,-24.5 16,-24.5 16,-5.5 160,-5.5 160,-24.5"/>
<text text-anchor="middle" x="88" y="-12.5" font-family="Helvetica,sans-Serif" font-size="10.00">core/socket/SocketContext.h</text>
</a>
</g>
</g>
<!-- Node4&#45;&gt;Node5 -->
<g id="edge4_Node000004_Node000005" class="edge">
<title>Node4&#45;&gt;Node5</title>
<g id="a_edge4_Node000004_Node000005"><a xlink:title=" ">
<path fill="none" stroke="#63b8ff" d="M88,-65.8C88,-56.7 88,-44.79 88,-34.9"/>
<polygon fill="#63b8ff" stroke="#63b8ff" points="91.5,-34.84 88,-24.84 84.5,-34.84 91.5,-34.84"/>
</a>
</g>
</g>
<!-- Node7 -->
<g id="Node000007" class="node">
<title>Node7</title>
<g id="a_Node000007"><a xlink:href="core_2socket_2stream_2SocketContextFactory_8h.html" target="_top" xlink:title=" ">
<polygon fill="white" stroke="#666666" points="309.5,-30 184.5,-30 184.5,0 309.5,0 309.5,-30"/>
<text text-anchor="start" x="192.5" y="-18" font-family="Helvetica,sans-Serif" font-size="10.00">core/socket/stream</text>
<text text-anchor="middle" x="247" y="-7" font-family="Helvetica,sans-Serif" font-size="10.00">/SocketContextFactory.h</text>
</a>
</g>
</g>
<!-- Node6&#45;&gt;Node7 -->
<g id="edge6_Node000006_Node000007" class="edge">
<title>Node6&#45;&gt;Node7</title>
<g id="a_edge6_Node000006_Node000007"><a xlink:title=" ">
<path fill="none" stroke="#63b8ff" d="M247,-65.8C247,-58.34 247,-48.99 247,-40.41"/>
<polygon fill="#63b8ff" stroke="#63b8ff" points="250.5,-40.16 247,-30.16 243.5,-40.16 250.5,-40.16"/>
</a>
</g>
</g>
<!-- Node9 -->
<g id="Node000009" class="node">
<title>Node9</title>
<g id="a_Node000009"><a xlink:href="websocket_2SocketContextUpgrade_8h.html" target="_top" xlink:title=" ">
<polygon fill="white" stroke="#666666" points="330.5,-228 177.5,-228 177.5,-198 330.5,-198 330.5,-228"/>
<text text-anchor="start" x="185.5" y="-216" font-family="Helvetica,sans-Serif" font-size="10.00">web/websocket/SocketContext</text>
<text text-anchor="middle" x="254" y="-205" font-family="Helvetica,sans-Serif" font-size="10.00">Upgrade.h</text>
</a>
</g>
</g>
<!-- Node8&#45;&gt;Node9 -->
<g id="edge8_Node000008_Node000009" class="edge">
<title>Node8&#45;&gt;Node9</title>
<g id="a_edge8_Node000008_Node000009"><a xlink:title=" ">
<path fill="none" stroke="#63b8ff" d="M221.32,-263.8C226.54,-255.84 233.17,-245.74 239.1,-236.71"/>
<polygon fill="#63b8ff" stroke="#63b8ff" points="242.14,-238.44 244.7,-228.16 236.29,-234.6 242.14,-238.44"/>
</a>
</g>
</g>
<!-- Node10 -->
<g id="Node000010" class="node">
<title>Node10</title>
<g id="a_Node000010"><a xlink:href="http_2SocketContextUpgrade_8h.html" target="_top" xlink:title=" ">
<polygon fill="white" stroke="#666666" points="337.5,-156.5 170.5,-156.5 170.5,-137.5 337.5,-137.5 337.5,-156.5"/>
<text text-anchor="middle" x="254" y="-144.5" font-family="Helvetica,sans-Serif" font-size="10.00">web/http/SocketContextUpgrade.h</text>
</a>
</g>
</g>
<!-- Node9&#45;&gt;Node10 -->
<g id="edge9_Node000009_Node000010" class="edge">
<title>Node9&#45;&gt;Node10</title>
<g id="a_edge9_Node000009_Node000010"><a xlink:title=" ">
<path fill="none" stroke="#63b8ff" d="M254,-197.8C254,-188.7 254,-176.79 254,-166.9"/>
<polygon fill="#63b8ff" stroke="#63b8ff" points="257.5,-166.84 254,-156.84 250.5,-166.84 257.5,-166.84"/>
</a>
</g>
</g>
<!-- Node11 -->
<g id="Node000011" class="node">
<title>Node11</title>
<g id="a_Node000011"><a xlink:href="SubProtocolContext_8h.html" target="_top" xlink:title=" ">
<polygon fill="white" stroke="#666666" points="496.5,-162 355.5,-162 355.5,-132 496.5,-132 496.5,-162"/>
<text text-anchor="start" x="363.5" y="-150" font-family="Helvetica,sans-Serif" font-size="10.00">web/websocket/SubProtocol</text>
<text text-anchor="middle" x="426" y="-139" font-family="Helvetica,sans-Serif" font-size="10.00">Context.h</text>
</a>
</g>
</g>
<!-- Node9&#45;&gt;Node11 -->
<g id="edge12_Node000009_Node000011" class="edge">
<title>Node9&#45;&gt;Node11</title>
<g id="a_edge12_Node000009_Node000011"><a xlink:title=" ">
<path fill="none" stroke="#63b8ff" d="M291.75,-197.95C317.4,-188.41 351.52,-175.71 378.95,-165.51"/>
<polygon fill="#63b8ff" stroke="#63b8ff" points="380.19,-168.78 388.34,-162.01 377.75,-162.22 380.19,-168.78"/>
</a>
</g>
</g>
<!-- Node10&#45;&gt;Node4 -->
<g id="edge10_Node000010_Node000004" class="edge">
<title>Node10&#45;&gt;Node4</title>
<g id="a_edge10_Node000010_Node000004"><a xlink:title=" ">
<path fill="none" stroke="#63b8ff" d="M231.61,-137.37C206.75,-127.78 165.93,-112.05 134.16,-99.8"/>
<polygon fill="#63b8ff" stroke="#63b8ff" points="135.2,-96.45 124.61,-96.12 132.68,-102.98 135.2,-96.45"/>
</a>
</g>
</g>
<!-- Node10&#45;&gt;Node6 -->
<g id="edge11_Node000010_Node000006" class="edge">
<title>Node10&#45;&gt;Node6</title>
<g id="a_edge11_Node000010_Node000006"><a xlink:title=" ">
<path fill="none" stroke="#63b8ff" d="M253.06,-137.37C252.19,-129.49 250.88,-117.45 249.69,-106.6"/>
<polygon fill="#63b8ff" stroke="#63b8ff" points="253.14,-105.92 248.57,-96.36 246.18,-106.68 253.14,-105.92"/>
</a>
</g>
</g>
<!-- Node12 -->
<g id="Node000012" class="node">
<title>Node12</title>
<g id="a_Node000012"><a xlink:href="Receiver_8h.html" target="_top" xlink:title=" ">
<polygon fill="white" stroke="#666666" points="486,-90.5 352,-90.5 352,-71.5 486,-71.5 486,-90.5"/>
<text text-anchor="middle" x="419" y="-78.5" font-family="Helvetica,sans-Serif" font-size="10.00">web/websocket/Receiver.h</text>
</a>
</g>
</g>
<!-- Node11&#45;&gt;Node12 -->
<g id="edge13_Node000011_Node000012" class="edge">
<title>Node11&#45;&gt;Node12</title>
<g id="a_edge13_Node000011_Node000012"><a xlink:title=" ">
<path fill="none" stroke="#63b8ff" d="M424.45,-131.8C423.45,-122.7 422.15,-110.79 421.07,-100.9"/>
<polygon fill="#63b8ff" stroke="#63b8ff" points="424.53,-100.4 419.97,-90.84 417.58,-101.17 424.53,-100.4"/>
</a>
</g>
</g>
<!-- Node13 -->
<g id="Node000013" class="node">
<title>Node13</title>
<g id="a_Node000013"><a xlink:href="Transmitter_8h.html" target="_top" xlink:title=" ">
<polygon fill="white" stroke="#666666" points="649.5,-90.5 504.5,-90.5 504.5,-71.5 649.5,-71.5 649.5,-90.5"/>
<text text-anchor="middle" x="577" y="-78.5" font-family="Helvetica,sans-Serif" font-size="10.00">web/websocket/Transmitter.h</text>
</a>
</g>
</g>
<!-- Node11&#45;&gt;Node13 -->
<g id="edge14_Node000011_Node000013" class="edge">
<title>Node11&#45;&gt;Node13</title>
<g id="a_edge14_Node000011_Node000013"><a xlink:title=" ">
<path fill="none" stroke="#63b8ff" d="M459.14,-131.95C485.5,-120.78 522.06,-105.29 547.44,-94.53"/>
<polygon fill="#63b8ff" stroke="#63b8ff" points="549.06,-97.64 556.9,-90.52 546.33,-91.2 549.06,-97.64"/>
</a>
</g>
</g>
<!-- Node16 -->
<g id="Node000016" class="node">
<title>Node16</title>
<g id="a_Node000016"><a xlink:href="AttributeInjector_8h.html" target="_top" xlink:title=" ">
<polygon fill="white" stroke="#666666" points="422,-288.5 308,-288.5 308,-269.5 422,-269.5 422,-288.5"/>
<text text-anchor="middle" x="365" y="-276.5" font-family="Helvetica,sans-Serif" font-size="10.00">utils/AttributeInjector.h</text>
</a>
</g>
</g>
<!-- Node15&#45;&gt;Node16 -->
<g id="edge17_Node000015_Node000016" class="edge">
<title>Node15&#45;&gt;Node16</title>
<g id="a_edge17_Node000015_Node000016"><a xlink:title=" ">
<path fill="none" stroke="#63b8ff" d="M469.68,-335.37C449.29,-324.59 414.19,-306.02 390.3,-293.38"/>
<polygon fill="#63b8ff" stroke="#63b8ff" points="391.92,-290.28 381.45,-288.7 388.65,-296.47 391.92,-290.28"/>
</a>
</g>
</g>
<!-- Node17 -->
<g id="Node000017" class="node">
<title>Node17</title>
<g id="a_Node000017"><a xlink:href="ConnectionState_8h.html" target="_top" xlink:title=" ">
<polygon fill="white" stroke="#666666" points="578,-288.5 440,-288.5 440,-269.5 578,-269.5 578,-288.5"/>
<text text-anchor="middle" x="509" y="-276.5" font-family="Helvetica,sans-Serif" font-size="10.00">web/http/ConnectionState.h</text>
</a>
</g>
</g>
<!-- Node15&#45;&gt;Node17 -->
<g id="edge18_Node000015_Node000017" class="edge">
<title>Node15&#45;&gt;Node17</title>
<g id="a_edge18_Node000015_Node000017"><a xlink:title=" ">
<path fill="none" stroke="#63b8ff" d="M489.1,-335.37C492.48,-325.97 497.98,-310.67 502.34,-298.53"/>
<polygon fill="#63b8ff" stroke="#63b8ff" points="505.71,-299.5 505.8,-288.91 499.12,-297.13 505.71,-299.5"/>
</a>
</g>
</g>
<!-- Node18&#45;&gt;Node17 -->
<g id="edge21_Node000018_Node000017" class="edge">
<title>Node18&#45;&gt;Node17</title>
<g id="a_edge21_Node000018_Node000017"><a xlink:title=" ">
<path fill="none" stroke="#63b8ff" d="M622.33,-335.37C600.16,-324.54 561.92,-305.85 536.05,-293.22"/>
<polygon fill="#63b8ff" stroke="#63b8ff" points="537.33,-289.94 526.81,-288.7 534.25,-296.23 537.33,-289.94"/>
</a>
</g>
</g>
<!-- Node19 -->
<g id="Node000019" class="node">
<title>Node19</title>
<g id="a_Node000019"><a xlink:href="Sink_8h.html" target="_top" xlink:title=" ">
<polygon fill="white" stroke="#666666" points="683.5,-288.5 596.5,-288.5 596.5,-269.5 683.5,-269.5 683.5,-288.5"/>
<text text-anchor="middle" x="640" y="-276.5" font-family="Helvetica,sans-Serif" font-size="10.00">core/pipe/Sink.h</text>
</a>
</g>
</g>
<!-- Node18&#45;&gt;Node19 -->
<g id="edge20_Node000018_Node000019" class="edge">
<title>Node18&#45;&gt;Node19</title>
<g id="a_edge20_Node000018_Node000019"><a xlink:title=" ">
<path fill="none" stroke="#63b8ff" d="M640,-335.37C640,-326.16 640,-311.29 640,-299.27"/>
<polygon fill="#63b8ff" stroke="#63b8ff" points="643.5,-298.91 640,-288.91 636.5,-298.91 643.5,-298.91"/>
</a>
</g>
</g>
<!-- Node20 -->
<g id="Node000020" class="node">
<title>Node20</title>
<g id="a_Node000020"><a xlink:href="CookieOptions_8h.html" target="_top" xlink:title=" ">
<polygon fill="white" stroke="#666666" points="832,-288.5 702,-288.5 702,-269.5 832,-269.5 832,-288.5"/>
<text text-anchor="middle" x="767" y="-276.5" font-family="Helvetica,sans-Serif" font-size="10.00">web/http/CookieOptions.h</text>
</a>
</g>
</g>
<!-- Node18&#45;&gt;Node20 -->
<g id="edge22_Node000018_Node000020" class="edge">
<title>Node18&#45;&gt;Node20</title>
<g id="a_edge22_Node000018_Node000020"><a xlink:title=" ">
<path fill="none" stroke="#63b8ff" d="M657.13,-335.37C678.62,-324.54 715.7,-305.85 740.77,-293.22"/>
<polygon fill="#63b8ff" stroke="#63b8ff" points="742.38,-296.32 749.74,-288.7 739.23,-290.07 742.38,-296.32"/>
</a>
</g>
</g>
</g>
</svg>
